<?xml version="1.0" encoding="utf-8" standalone="no"?>
<!DOCTYPE svg PUBLIC "-//W3C//DTD SVG 1.1//EN"
  "http://www.w3.org/Graphics/SVG/1.1/DTD/svg11.dtd">
<!-- Created with matplotlib (http://matplotlib.org/) -->
<svg height="345.6pt" version="1.1" viewBox="0 0 460.8 345.6" width="460.8pt" xmlns="http://www.w3.org/2000/svg" xmlns:xlink="http://www.w3.org/1999/xlink">
 <defs>
  <style type="text/css">
*{stroke-linecap:butt;stroke-linejoin:round;}
  </style>
 </defs>
 <g id="figure_1">
  <g id="patch_1">
   <path d="M 0 345.6 
L 460.8 345.6 
L 460.8 0 
L 0 0 
z
" style="fill:#ffffff;"/>
  </g>
  <g id="axes_1">
   <g id="patch_2">
    <path d="M 56.12 294.88 
L 399.984 294.88 
L 399.984 24.84 
L 56.12 24.84 
z
" style="fill:#ffffff;"/>
   </g>
   <g id="line2d_1">
    <path d="M 86.946982 294.88 
L 86.946982 289.637523 
L 88.324106 289.637523 
L 88.324106 284.395046 
L 89.599124 284.395046 
L 89.599124 279.152568 
L 90.786137 279.152568 
L 90.786137 268.667614 
L 91.896513 268.667614 
L 91.896513 263.425137 
L 93.922955 263.425137 
L 93.922955 258.18266 
L 94.853174 258.18266 
L 94.853174 237.212751 
L 95.735668 237.212751 
L 95.735668 231.970274 
L 98.872486 231.970274 
L 98.872486 216.242842 
L 99.574823 216.242842 
L 99.574823 179.545502 
L 100.24961 179.545502 
L 100.24961 148.090639 
L 100.898928 148.090639 
L 100.898928 121.878253 
L 101.524628 121.878253 
L 101.524628 74.695958 
L 102.128369 74.695958 
L 102.128369 48.483572 
L 102.711641 48.483572 
L 102.711641 27.513663 
L 333.429677 27.513663 
" style="fill:none;stroke:#f5deb3;stroke-linecap:square;stroke-width:6;"/>
   </g>
   <g id="line2d_2">
    <defs>
     <path d="M -0 7.778175 
L 7.778175 0 
L 0 -7.778175 
L -7.778175 -0 
z
" id="mdb23c63f23" style="stroke:#f5deb3;stroke-linejoin:miter;stroke-width:1.5;"/>
    </defs>
    <g>
     <use style="fill:#f5deb3;stroke:#f5deb3;stroke-linejoin:miter;stroke-width:1.5;" x="99.574823" xlink:href="#mdb23c63f23" y="179.545502"/>
     <use style="fill:#f5deb3;stroke:#f5deb3;stroke-linejoin:miter;stroke-width:1.5;" x="102.128369" xlink:href="#mdb23c63f23" y="74.695958"/>
     <use style="fill:#f5deb3;stroke:#f5deb3;stroke-linejoin:miter;stroke-width:1.5;" x="102.711641" xlink:href="#mdb23c63f23" y="27.513663"/>
     <use style="fill:#f5deb3;stroke:#f5deb3;stroke-linejoin:miter;stroke-width:1.5;" x="102.711641" xlink:href="#mdb23c63f23" y="27.513663"/>
     <use style="fill:#f5deb3;stroke:#f5deb3;stroke-linejoin:miter;stroke-width:1.5;" x="333.429677" xlink:href="#mdb23c63f23" y="27.513663"/>
    </g>
   </g>
   <g id="line2d_3">
    <path style="fill:none;stroke:#f5deb3;stroke-linecap:square;stroke-width:6;"/>
    <g/>
   </g>
   <g id="line2d_4">
    <path d="M 333.429677 27.513663 
L 363.933742 32.86099 
" style="fill:none;stroke:#f5deb3;stroke-linecap:square;stroke-width:6;"/>
    <g>
     <use style="fill:#f5deb3;stroke:#f5deb3;stroke-linejoin:miter;stroke-width:1.5;" x="333.429677" xlink:href="#mdb23c63f23" y="27.513663"/>
     <use style="fill:#f5deb3;stroke:#f5deb3;stroke-linejoin:miter;stroke-width:1.5;" x="363.933742" xlink:href="#mdb23c63f23" y="32.86099"/>
    </g>
   </g>
   <g id="matplotlib.axis_1">
    <g id="xtick_1">
     <g id="line2d_5">
      <path clip-path="url(#p1a45b89852)" d="M 56.12 294.88 
L 56.12 24.84 
" style="fill:none;stroke:#b0b0b0;stroke-linecap:square;stroke-width:0.8;"/>
     </g>
     <g id="line2d_6">
      <defs>
       <path d="M 0 0 
L 0 3.5 
" id="m9c9dd1f2e1" style="stroke:#000000;stroke-width:0.8;"/>
      </defs>
      <g>
       <use style="stroke:#000000;stroke-width:0.8;" x="56.12" xlink:href="#m9c9dd1f2e1" y="294.88"/>
      </g>
     </g>
     <g id="text_1">
      <!-- 0 -->
      <defs>
       <path d="M 31.78125 66.40625 
Q 24.171875 66.40625 20.328125 58.90625 
Q 16.5 51.421875 16.5 36.375 
Q 16.5 21.390625 20.328125 13.890625 
Q 24.171875 6.390625 31.78125 6.390625 
Q 39.453125 6.390625 43.28125 13.890625 
Q 47.125 21.390625 47.125 36.375 
Q 47.125 51.421875 43.28125 58.90625 
Q 39.453125 66.40625 31.78125 66.40625 
z
M 31.78125 74.21875 
Q 44.046875 74.21875 50.515625 64.515625 
Q 56.984375 54.828125 56.984375 36.375 
Q 56.984375 17.96875 50.515625 8.265625 
Q 44.046875 -1.421875 31.78125 -1.421875 
Q 19.53125 -1.421875 13.0625 8.265625 
Q 6.59375 17.96875 6.59375 36.375 
Q 6.59375 54.828125 13.0625 64.515625 
Q 19.53125 74.21875 31.78125 74.21875 
z
" id="DejaVuSans-30"/>
      </defs>
      <g transform="translate(49.7575 317.076875)scale(0.2 -0.2)">
       <use xlink:href="#DejaVuSans-30"/>
      </g>
     </g>
    </g>
    <g id="xtick_2">
     <g id="line2d_7">
      <path clip-path="url(#p1a45b89852)" d="M 135.351336 294.88 
L 135.351336 24.84 
" style="fill:none;stroke:#b0b0b0;stroke-linecap:square;stroke-width:0.8;"/>
     </g>
     <g id="line2d_8">
      <g>
       <use style="stroke:#000000;stroke-width:0.8;" x="135.351336" xlink:href="#m9c9dd1f2e1" y="294.88"/>
      </g>
     </g>
     <g id="text_2">
      <!-- 2 -->
      <defs>
       <path d="M 19.1875 8.296875 
L 53.609375 8.296875 
L 53.609375 0 
L 7.328125 0 
L 7.328125 8.296875 
Q 12.9375 14.109375 22.625 23.890625 
Q 32.328125 33.6875 34.8125 36.53125 
Q 39.546875 41.84375 41.421875 45.53125 
Q 43.3125 49.21875 43.3125 52.78125 
Q 43.3125 58.59375 39.234375 62.25 
Q 35.15625 65.921875 28.609375 65.921875 
Q 23.96875 65.921875 18.8125 64.3125 
Q 13.671875 62.703125 7.8125 59.421875 
L 7.8125 69.390625 
Q 13.765625 71.78125 18.9375 73 
Q 24.125 74.21875 28.421875 74.21875 
Q 39.75 74.21875 46.484375 68.546875 
Q 53.21875 62.890625 53.21875 53.421875 
Q 53.21875 48.921875 51.53125 44.890625 
Q 49.859375 40.875 45.40625 35.40625 
Q 44.1875 33.984375 37.640625 27.21875 
Q 31.109375 20.453125 19.1875 8.296875 
z
" id="DejaVuSans-32"/>
      </defs>
      <g transform="translate(128.988836 317.076875)scale(0.2 -0.2)">
       <use xlink:href="#DejaVuSans-32"/>
      </g>
     </g>
    </g>
    <g id="xtick_3">
     <g id="line2d_9">
      <path clip-path="url(#p1a45b89852)" d="M 214.582673 294.88 
L 214.582673 24.84 
" style="fill:none;stroke:#b0b0b0;stroke-linecap:square;stroke-width:0.8;"/>
     </g>
     <g id="line2d_10">
      <g>
       <use style="stroke:#000000;stroke-width:0.8;" x="214.582673" xlink:href="#m9c9dd1f2e1" y="294.88"/>
      </g>
     </g>
     <g id="text_3">
      <!-- 4 -->
      <defs>
       <path d="M 37.796875 64.3125 
L 12.890625 25.390625 
L 37.796875 25.390625 
z
M 35.203125 72.90625 
L 47.609375 72.90625 
L 47.609375 25.390625 
L 58.015625 25.390625 
L 58.015625 17.1875 
L 47.609375 17.1875 
L 47.609375 0 
L 37.796875 0 
L 37.796875 17.1875 
L 4.890625 17.1875 
L 4.890625 26.703125 
z
" id="DejaVuSans-34"/>
      </defs>
      <g transform="translate(208.220173 317.076875)scale(0.2 -0.2)">
       <use xlink:href="#DejaVuSans-34"/>
      </g>
     </g>
    </g>
    <g id="xtick_4">
     <g id="line2d_11">
      <path clip-path="url(#p1a45b89852)" d="M 293.814009 294.88 
L 293.814009 24.84 
" style="fill:none;stroke:#b0b0b0;stroke-linecap:square;stroke-width:0.8;"/>
     </g>
     <g id="line2d_12">
      <g>
       <use style="stroke:#000000;stroke-width:0.8;" x="293.814009" xlink:href="#m9c9dd1f2e1" y="294.88"/>
      </g>
     </g>
     <g id="text_4">
      <!-- 6 -->
      <defs>
       <path d="M 33.015625 40.375 
Q 26.375 40.375 22.484375 35.828125 
Q 18.609375 31.296875 18.609375 23.390625 
Q 18.609375 15.53125 22.484375 10.953125 
Q 26.375 6.390625 33.015625 6.390625 
Q 39.65625 6.390625 43.53125 10.953125 
Q 47.40625 15.53125 47.40625 23.390625 
Q 47.40625 31.296875 43.53125 35.828125 
Q 39.65625 40.375 33.015625 40.375 
z
M 52.59375 71.296875 
L 52.59375 62.3125 
Q 48.875 64.0625 45.09375 64.984375 
Q 41.3125 65.921875 37.59375 65.921875 
Q 27.828125 65.921875 22.671875 59.328125 
Q 17.53125 52.734375 16.796875 39.40625 
Q 19.671875 43.65625 24.015625 45.921875 
Q 28.375 48.1875 33.59375 48.1875 
Q 44.578125 48.1875 50.953125 41.515625 
Q 57.328125 34.859375 57.328125 23.390625 
Q 57.328125 12.15625 50.6875 5.359375 
Q 44.046875 -1.421875 33.015625 -1.421875 
Q 20.359375 -1.421875 13.671875 8.265625 
Q 6.984375 17.96875 6.984375 36.375 
Q 6.984375 53.65625 15.1875 63.9375 
Q 23.390625 74.21875 37.203125 74.21875 
Q 40.921875 74.21875 44.703125 73.484375 
Q 48.484375 72.75 52.59375 71.296875 
z
" id="DejaVuSans-36"/>
      </defs>
      <g transform="translate(287.451509 317.076875)scale(0.2 -0.2)">
       <use xlink:href="#DejaVuSans-36"/>
      </g>
     </g>
    </g>
    <g id="xtick_5">
     <g id="line2d_13">
      <path clip-path="url(#p1a45b89852)" d="M 373.045346 294.88 
L 373.045346 24.84 
" style="fill:none;stroke:#b0b0b0;stroke-linecap:square;stroke-width:0.8;"/>
     </g>
     <g id="line2d_14">
      <g>
       <use style="stroke:#000000;stroke-width:0.8;" x="373.045346" xlink:href="#m9c9dd1f2e1" y="294.88"/>
      </g>
     </g>
     <g id="text_5">
      <!-- 8 -->
      <defs>
       <path d="M 31.78125 34.625 
Q 24.75 34.625 20.71875 30.859375 
Q 16.703125 27.09375 16.703125 20.515625 
Q 16.703125 13.921875 20.71875 10.15625 
Q 24.75 6.390625 31.78125 6.390625 
Q 38.8125 6.390625 42.859375 10.171875 
Q 46.921875 13.96875 46.921875 20.515625 
Q 46.921875 27.09375 42.890625 30.859375 
Q 38.875 34.625 31.78125 34.625 
z
M 21.921875 38.8125 
Q 15.578125 40.375 12.03125 44.71875 
Q 8.5 49.078125 8.5 55.328125 
Q 8.5 64.0625 14.71875 69.140625 
Q 20.953125 74.21875 31.78125 74.21875 
Q 42.671875 74.21875 48.875 69.140625 
Q 55.078125 64.0625 55.078125 55.328125 
Q 55.078125 49.078125 51.53125 44.71875 
Q 48 40.375 41.703125 38.8125 
Q 48.828125 37.15625 52.796875 32.3125 
Q 56.78125 27.484375 56.78125 20.515625 
Q 56.78125 9.90625 50.3125 4.234375 
Q 43.84375 -1.421875 31.78125 -1.421875 
Q 19.734375 -1.421875 13.25 4.234375 
Q 6.78125 9.90625 6.78125 20.515625 
Q 6.78125 27.484375 10.78125 32.3125 
Q 14.796875 37.15625 21.921875 38.8125 
z
M 18.3125 54.390625 
Q 18.3125 48.734375 21.84375 45.5625 
Q 25.390625 42.390625 31.78125 42.390625 
Q 38.140625 42.390625 41.71875 45.5625 
Q 45.3125 48.734375 45.3125 54.390625 
Q 45.3125 60.0625 41.71875 63.234375 
Q 38.140625 66.40625 31.78125 66.40625 
Q 25.390625 66.40625 21.84375 63.234375 
Q 18.3125 60.0625 18.3125 54.390625 
z
" id="DejaVuSans-38"/>
      </defs>
      <g transform="translate(366.682846 317.076875)scale(0.2 -0.2)">
       <use xlink:href="#DejaVuSans-38"/>
      </g>
     </g>
    </g>
    <g id="text_6">
     <!-- log10(# f-evals / dimension) -->
     <defs>
      <path d="M 9.421875 75.984375 
L 18.40625 75.984375 
L 18.40625 0 
L 9.421875 0 
z
" id="DejaVuSans-6c"/>
      <path d="M 30.609375 48.390625 
Q 23.390625 48.390625 19.1875 42.75 
Q 14.984375 37.109375 14.984375 27.296875 
Q 14.984375 17.484375 19.15625 11.84375 
Q 23.34375 6.203125 30.609375 6.203125 
Q 37.796875 6.203125 41.984375 11.859375 
Q 46.1875 17.53125 46.1875 27.296875 
Q 46.1875 37.015625 41.984375 42.703125 
Q 37.796875 48.390625 30.609375 48.390625 
z
M 30.609375 56 
Q 42.328125 56 49.015625 48.375 
Q 55.71875 40.765625 55.71875 27.296875 
Q 55.71875 13.875 49.015625 6.21875 
Q 42.328125 -1.421875 30.609375 -1.421875 
Q 18.84375 -1.421875 12.171875 6.21875 
Q 5.515625 13.875 5.515625 27.296875 
Q 5.515625 40.765625 12.171875 48.375 
Q 18.84375 56 30.609375 56 
z
" id="DejaVuSans-6f"/>
      <path d="M 45.40625 27.984375 
Q 45.40625 37.75 41.375 43.109375 
Q 37.359375 48.484375 30.078125 48.484375 
Q 22.859375 48.484375 18.828125 43.109375 
Q 14.796875 37.75 14.796875 27.984375 
Q 14.796875 18.265625 18.828125 12.890625 
Q 22.859375 7.515625 30.078125 7.515625 
Q 37.359375 7.515625 41.375 12.890625 
Q 45.40625 18.265625 45.40625 27.984375 
z
M 54.390625 6.78125 
Q 54.390625 -7.171875 48.1875 -13.984375 
Q 42 -20.796875 29.203125 -20.796875 
Q 24.46875 -20.796875 20.265625 -20.09375 
Q 16.0625 -19.390625 12.109375 -17.921875 
L 12.109375 -9.1875 
Q 16.0625 -11.328125 19.921875 -12.34375 
Q 23.78125 -13.375 27.78125 -13.375 
Q 36.625 -13.375 41.015625 -8.765625 
Q 45.40625 -4.15625 45.40625 5.171875 
L 45.40625 9.625 
Q 42.625 4.78125 38.28125 2.390625 
Q 33.9375 0 27.875 0 
Q 17.828125 0 11.671875 7.65625 
Q 5.515625 15.328125 5.515625 27.984375 
Q 5.515625 40.671875 11.671875 48.328125 
Q 17.828125 56 27.875 56 
Q 33.9375 56 38.28125 53.609375 
Q 42.625 51.21875 45.40625 46.390625 
L 45.40625 54.6875 
L 54.390625 54.6875 
z
" id="DejaVuSans-67"/>
      <path d="M 12.40625 8.296875 
L 28.515625 8.296875 
L 28.515625 63.921875 
L 10.984375 60.40625 
L 10.984375 69.390625 
L 28.421875 72.90625 
L 38.28125 72.90625 
L 38.28125 8.296875 
L 54.390625 8.296875 
L 54.390625 0 
L 12.40625 0 
z
" id="DejaVuSans-31"/>
      <path d="M 31 75.875 
Q 24.46875 64.65625 21.28125 53.65625 
Q 18.109375 42.671875 18.109375 31.390625 
Q 18.109375 20.125 21.3125 9.0625 
Q 24.515625 -2 31 -13.1875 
L 23.1875 -13.1875 
Q 15.875 -1.703125 12.234375 9.375 
Q 8.59375 20.453125 8.59375 31.390625 
Q 8.59375 42.28125 12.203125 53.3125 
Q 15.828125 64.359375 23.1875 75.875 
z
" id="DejaVuSans-28"/>
      <path d="M 51.125 44 
L 36.921875 44 
L 32.8125 27.6875 
L 47.125 27.6875 
z
M 43.796875 71.78125 
L 38.71875 51.515625 
L 52.984375 51.515625 
L 58.109375 71.78125 
L 65.921875 71.78125 
L 60.890625 51.515625 
L 76.125 51.515625 
L 76.125 44 
L 58.984375 44 
L 54.984375 27.6875 
L 70.515625 27.6875 
L 70.515625 20.21875 
L 53.078125 20.21875 
L 48 0 
L 40.1875 0 
L 45.21875 20.21875 
L 30.90625 20.21875 
L 25.875 0 
L 18.015625 0 
L 23.09375 20.21875 
L 7.71875 20.21875 
L 7.71875 27.6875 
L 24.90625 27.6875 
L 29 44 
L 13.28125 44 
L 13.28125 51.515625 
L 30.90625 51.515625 
L 35.890625 71.78125 
z
" id="DejaVuSans-23"/>
      <path id="DejaVuSans-20"/>
      <path d="M 37.109375 75.984375 
L 37.109375 68.5 
L 28.515625 68.5 
Q 23.6875 68.5 21.796875 66.546875 
Q 19.921875 64.59375 19.921875 59.515625 
L 19.921875 54.6875 
L 34.71875 54.6875 
L 34.71875 47.703125 
L 19.921875 47.703125 
L 19.921875 0 
L 10.890625 0 
L 10.890625 47.703125 
L 2.296875 47.703125 
L 2.296875 54.6875 
L 10.890625 54.6875 
L 10.890625 58.5 
Q 10.890625 67.625 15.140625 71.796875 
Q 19.390625 75.984375 28.609375 75.984375 
z
" id="DejaVuSans-66"/>
      <path d="M 4.890625 31.390625 
L 31.203125 31.390625 
L 31.203125 23.390625 
L 4.890625 23.390625 
z
" id="DejaVuSans-2d"/>
      <path d="M 56.203125 29.59375 
L 56.203125 25.203125 
L 14.890625 25.203125 
Q 15.484375 15.921875 20.484375 11.0625 
Q 25.484375 6.203125 34.421875 6.203125 
Q 39.59375 6.203125 44.453125 7.46875 
Q 49.3125 8.734375 54.109375 11.28125 
L 54.109375 2.78125 
Q 49.265625 0.734375 44.1875 -0.34375 
Q 39.109375 -1.421875 33.890625 -1.421875 
Q 20.796875 -1.421875 13.15625 6.1875 
Q 5.515625 13.8125 5.515625 26.8125 
Q 5.515625 40.234375 12.765625 48.109375 
Q 20.015625 56 32.328125 56 
Q 43.359375 56 49.78125 48.890625 
Q 56.203125 41.796875 56.203125 29.59375 
z
M 47.21875 32.234375 
Q 47.125 39.59375 43.09375 43.984375 
Q 39.0625 48.390625 32.421875 48.390625 
Q 24.90625 48.390625 20.390625 44.140625 
Q 15.875 39.890625 15.1875 32.171875 
z
" id="DejaVuSans-65"/>
      <path d="M 2.984375 54.6875 
L 12.5 54.6875 
L 29.59375 8.796875 
L 46.6875 54.6875 
L 56.203125 54.6875 
L 35.6875 0 
L 23.484375 0 
z
" id="DejaVuSans-76"/>
      <path d="M 34.28125 27.484375 
Q 23.390625 27.484375 19.1875 25 
Q 14.984375 22.515625 14.984375 16.5 
Q 14.984375 11.71875 18.140625 8.90625 
Q 21.296875 6.109375 26.703125 6.109375 
Q 34.1875 6.109375 38.703125 11.40625 
Q 43.21875 16.703125 43.21875 25.484375 
L 43.21875 27.484375 
z
M 52.203125 31.203125 
L 52.203125 0 
L 43.21875 0 
L 43.21875 8.296875 
Q 40.140625 3.328125 35.546875 0.953125 
Q 30.953125 -1.421875 24.3125 -1.421875 
Q 15.921875 -1.421875 10.953125 3.296875 
Q 6 8.015625 6 15.921875 
Q 6 25.140625 12.171875 29.828125 
Q 18.359375 34.515625 30.609375 34.515625 
L 43.21875 34.515625 
L 43.21875 35.40625 
Q 43.21875 41.609375 39.140625 45 
Q 35.0625 48.390625 27.6875 48.390625 
Q 23 48.390625 18.546875 47.265625 
Q 14.109375 46.140625 10.015625 43.890625 
L 10.015625 52.203125 
Q 14.9375 54.109375 19.578125 55.046875 
Q 24.21875 56 28.609375 56 
Q 40.484375 56 46.34375 49.84375 
Q 52.203125 43.703125 52.203125 31.203125 
z
" id="DejaVuSans-61"/>
      <path d="M 44.28125 53.078125 
L 44.28125 44.578125 
Q 40.484375 46.53125 36.375 47.5 
Q 32.28125 48.484375 27.875 48.484375 
Q 21.1875 48.484375 17.84375 46.4375 
Q 14.5 44.390625 14.5 40.28125 
Q 14.5 37.15625 16.890625 35.375 
Q 19.28125 33.59375 26.515625 31.984375 
L 29.59375 31.296875 
Q 39.15625 29.25 43.1875 25.515625 
Q 47.21875 21.78125 47.21875 15.09375 
Q 47.21875 7.46875 41.1875 3.015625 
Q 35.15625 -1.421875 24.609375 -1.421875 
Q 20.21875 -1.421875 15.453125 -0.5625 
Q 10.6875 0.296875 5.421875 2 
L 5.421875 11.28125 
Q 10.40625 8.6875 15.234375 7.390625 
Q 20.0625 6.109375 24.8125 6.109375 
Q 31.15625 6.109375 34.5625 8.28125 
Q 37.984375 10.453125 37.984375 14.40625 
Q 37.984375 18.0625 35.515625 20.015625 
Q 33.0625 21.96875 24.703125 23.78125 
L 21.578125 24.515625 
Q 13.234375 26.265625 9.515625 29.90625 
Q 5.8125 33.546875 5.8125 39.890625 
Q 5.8125 47.609375 11.28125 51.796875 
Q 16.75 56 26.8125 56 
Q 31.78125 56 36.171875 55.265625 
Q 40.578125 54.546875 44.28125 53.078125 
z
" id="DejaVuSans-73"/>
      <path d="M 25.390625 72.90625 
L 33.6875 72.90625 
L 8.296875 -9.28125 
L 0 -9.28125 
z
" id="DejaVuSans-2f"/>
      <path d="M 45.40625 46.390625 
L 45.40625 75.984375 
L 54.390625 75.984375 
L 54.390625 0 
L 45.40625 0 
L 45.40625 8.203125 
Q 42.578125 3.328125 38.25 0.953125 
Q 33.9375 -1.421875 27.875 -1.421875 
Q 17.96875 -1.421875 11.734375 6.484375 
Q 5.515625 14.40625 5.515625 27.296875 
Q 5.515625 40.1875 11.734375 48.09375 
Q 17.96875 56 27.875 56 
Q 33.9375 56 38.25 53.625 
Q 42.578125 51.265625 45.40625 46.390625 
z
M 14.796875 27.296875 
Q 14.796875 17.390625 18.875 11.75 
Q 22.953125 6.109375 30.078125 6.109375 
Q 37.203125 6.109375 41.296875 11.75 
Q 45.40625 17.390625 45.40625 27.296875 
Q 45.40625 37.203125 41.296875 42.84375 
Q 37.203125 48.484375 30.078125 48.484375 
Q 22.953125 48.484375 18.875 42.84375 
Q 14.796875 37.203125 14.796875 27.296875 
z
" id="DejaVuSans-64"/>
      <path d="M 9.421875 54.6875 
L 18.40625 54.6875 
L 18.40625 0 
L 9.421875 0 
z
M 9.421875 75.984375 
L 18.40625 75.984375 
L 18.40625 64.59375 
L 9.421875 64.59375 
z
" id="DejaVuSans-69"/>
      <path d="M 52 44.1875 
Q 55.375 50.25 60.0625 53.125 
Q 64.75 56 71.09375 56 
Q 79.640625 56 84.28125 50.015625 
Q 88.921875 44.046875 88.921875 33.015625 
L 88.921875 0 
L 79.890625 0 
L 79.890625 32.71875 
Q 79.890625 40.578125 77.09375 44.375 
Q 74.3125 48.1875 68.609375 48.1875 
Q 61.625 48.1875 57.5625 43.546875 
Q 53.515625 38.921875 53.515625 30.90625 
L 53.515625 0 
L 44.484375 0 
L 44.484375 32.71875 
Q 44.484375 40.625 41.703125 44.40625 
Q 38.921875 48.1875 33.109375 48.1875 
Q 26.21875 48.1875 22.15625 43.53125 
Q 18.109375 38.875 18.109375 30.90625 
L 18.109375 0 
L 9.078125 0 
L 9.078125 54.6875 
L 18.109375 54.6875 
L 18.109375 46.1875 
Q 21.1875 51.21875 25.484375 53.609375 
Q 29.78125 56 35.6875 56 
Q 41.65625 56 45.828125 52.96875 
Q 50 49.953125 52 44.1875 
z
" id="DejaVuSans-6d"/>
      <path d="M 54.890625 33.015625 
L 54.890625 0 
L 45.90625 0 
L 45.90625 32.71875 
Q 45.90625 40.484375 42.875 44.328125 
Q 39.84375 48.1875 33.796875 48.1875 
Q 26.515625 48.1875 22.3125 43.546875 
Q 18.109375 38.921875 18.109375 30.90625 
L 18.109375 0 
L 9.078125 0 
L 9.078125 54.6875 
L 18.109375 54.6875 
L 18.109375 46.1875 
Q 21.34375 51.125 25.703125 53.5625 
Q 30.078125 56 35.796875 56 
Q 45.21875 56 50.046875 50.171875 
Q 54.890625 44.34375 54.890625 33.015625 
z
" id="DejaVuSans-6e"/>
      <path d="M 8.015625 75.875 
L 15.828125 75.875 
Q 23.140625 64.359375 26.78125 53.3125 
Q 30.421875 42.28125 30.421875 31.390625 
Q 30.421875 20.453125 26.78125 9.375 
Q 23.140625 -1.703125 15.828125 -13.1875 
L 8.015625 -13.1875 
Q 14.5 -2 17.703125 9.0625 
Q 20.90625 20.125 20.90625 31.390625 
Q 20.90625 42.671875 17.703125 53.65625 
Q 14.5 64.65625 8.015625 75.875 
z
" id="DejaVuSans-29"/>
     </defs>
     <g transform="translate(107.211219 338.153594)scale(0.17 -0.17)">
      <use xlink:href="#DejaVuSans-6c"/>
      <use x="27.783203" xlink:href="#DejaVuSans-6f"/>
      <use x="88.964844" xlink:href="#DejaVuSans-67"/>
      <use x="152.441406" xlink:href="#DejaVuSans-31"/>
      <use x="216.064453" xlink:href="#DejaVuSans-30"/>
      <use x="279.6875" xlink:href="#DejaVuSans-28"/>
      <use x="318.701172" xlink:href="#DejaVuSans-23"/>
      <use x="402.490234" xlink:href="#DejaVuSans-20"/>
      <use x="434.277344" xlink:href="#DejaVuSans-66"/>
      <use x="469.404297" xlink:href="#DejaVuSans-2d"/>
      <use x="505.488281" xlink:href="#DejaVuSans-65"/>
      <use x="567.011719" xlink:href="#DejaVuSans-76"/>
      <use x="626.191406" xlink:href="#DejaVuSans-61"/>
      <use x="687.470703" xlink:href="#DejaVuSans-6c"/>
      <use x="715.253906" xlink:href="#DejaVuSans-73"/>
      <use x="767.353516" xlink:href="#DejaVuSans-20"/>
      <use x="799.140625" xlink:href="#DejaVuSans-2f"/>
      <use x="832.832031" xlink:href="#DejaVuSans-20"/>
      <use x="864.619141" xlink:href="#DejaVuSans-64"/>
      <use x="928.095703" xlink:href="#DejaVuSans-69"/>
      <use x="955.878906" xlink:href="#DejaVuSans-6d"/>
      <use x="1053.291016" xlink:href="#DejaVuSans-65"/>
      <use x="1114.814453" xlink:href="#DejaVuSans-6e"/>
      <use x="1178.193359" xlink:href="#DejaVuSans-73"/>
      <use x="1230.292969" xlink:href="#DejaVuSans-69"/>
      <use x="1258.076172" xlink:href="#DejaVuSans-6f"/>
      <use x="1319.257812" xlink:href="#DejaVuSans-6e"/>
      <use x="1382.636719" xlink:href="#DejaVuSans-29"/>
     </g>
    </g>
   </g>
   <g id="matplotlib.axis_2">
    <g id="ytick_1">
     <g id="line2d_15">
      <path clip-path="url(#p1a45b89852)" d="M 56.12 294.88 
L 399.984 294.88 
" style="fill:none;stroke:#b0b0b0;stroke-linecap:square;stroke-width:0.8;"/>
     </g>
     <g id="line2d_16">
      <defs>
       <path d="M 0 0 
L -3.5 0 
" id="m8a2382c469" style="stroke:#000000;stroke-width:0.8;"/>
      </defs>
      <g>
       <use style="stroke:#000000;stroke-width:0.8;" x="56.12" xlink:href="#m8a2382c469" y="294.88"/>
      </g>
     </g>
     <g id="text_7">
      <!-- 0.0 -->
      <defs>
       <path d="M 10.6875 12.40625 
L 21 12.40625 
L 21 0 
L 10.6875 0 
z
" id="DejaVuSans-2e"/>
      </defs>
      <g transform="translate(23.675 300.95875)scale(0.16 -0.16)">
       <use xlink:href="#DejaVuSans-30"/>
       <use x="63.623047" xlink:href="#DejaVuSans-2e"/>
       <use x="95.410156" xlink:href="#DejaVuSans-30"/>
      </g>
     </g>
    </g>
    <g id="ytick_2">
     <g id="line2d_17">
      <path clip-path="url(#p1a45b89852)" d="M 56.12 241.406733 
L 399.984 241.406733 
" style="fill:none;stroke:#b0b0b0;stroke-linecap:square;stroke-width:0.8;"/>
     </g>
     <g id="line2d_18">
      <g>
       <use style="stroke:#000000;stroke-width:0.8;" x="56.12" xlink:href="#m8a2382c469" y="241.406733"/>
      </g>
     </g>
     <g id="text_8">
      <!-- 0.2 -->
      <g transform="translate(23.675 247.485483)scale(0.16 -0.16)">
       <use xlink:href="#DejaVuSans-30"/>
       <use x="63.623047" xlink:href="#DejaVuSans-2e"/>
       <use x="95.410156" xlink:href="#DejaVuSans-32"/>
      </g>
     </g>
    </g>
    <g id="ytick_3">
     <g id="line2d_19">
      <path clip-path="url(#p1a45b89852)" d="M 56.12 187.933465 
L 399.984 187.933465 
" style="fill:none;stroke:#b0b0b0;stroke-linecap:square;stroke-width:0.8;"/>
     </g>
     <g id="line2d_20">
      <g>
       <use style="stroke:#000000;stroke-width:0.8;" x="56.12" xlink:href="#m8a2382c469" y="187.933465"/>
      </g>
     </g>
     <g id="text_9">
      <!-- 0.4 -->
      <g transform="translate(23.675 194.012215)scale(0.16 -0.16)">
       <use xlink:href="#DejaVuSans-30"/>
       <use x="63.623047" xlink:href="#DejaVuSans-2e"/>
       <use x="95.410156" xlink:href="#DejaVuSans-34"/>
      </g>
     </g>
    </g>
    <g id="ytick_4">
     <g id="line2d_21">
      <path clip-path="url(#p1a45b89852)" d="M 56.12 134.460198 
L 399.984 134.460198 
" style="fill:none;stroke:#b0b0b0;stroke-linecap:square;stroke-width:0.8;"/>
     </g>
     <g id="line2d_22">
      <g>
       <use style="stroke:#000000;stroke-width:0.8;" x="56.12" xlink:href="#m8a2382c469" y="134.460198"/>
      </g>
     </g>
     <g id="text_10">
      <!-- 0.6 -->
      <g transform="translate(23.675 140.538948)scale(0.16 -0.16)">
       <use xlink:href="#DejaVuSans-30"/>
       <use x="63.623047" xlink:href="#DejaVuSans-2e"/>
       <use x="95.410156" xlink:href="#DejaVuSans-36"/>
      </g>
     </g>
    </g>
    <g id="ytick_5">
     <g id="line2d_23">
      <path clip-path="url(#p1a45b89852)" d="M 56.12 80.986931 
L 399.984 80.986931 
" style="fill:none;stroke:#b0b0b0;stroke-linecap:square;stroke-width:0.8;"/>
     </g>
     <g id="line2d_24">
      <g>
       <use style="stroke:#000000;stroke-width:0.8;" x="56.12" xlink:href="#m8a2382c469" y="80.986931"/>
      </g>
     </g>
     <g id="text_11">
      <!-- 0.8 -->
      <g transform="translate(23.675 87.065681)scale(0.16 -0.16)">
       <use xlink:href="#DejaVuSans-30"/>
       <use x="63.623047" xlink:href="#DejaVuSans-2e"/>
       <use x="95.410156" xlink:href="#DejaVuSans-38"/>
      </g>
     </g>
    </g>
    <g id="ytick_6">
     <g id="line2d_25">
      <path clip-path="url(#p1a45b89852)" d="M 56.12 27.513663 
L 399.984 27.513663 
" style="fill:none;stroke:#b0b0b0;stroke-linecap:square;stroke-width:0.8;"/>
     </g>
     <g id="line2d_26">
      <g>
       <use style="stroke:#000000;stroke-width:0.8;" x="56.12" xlink:href="#m8a2382c469" y="27.513663"/>
      </g>
     </g>
     <g id="text_12">
      <!-- 1.0 -->
      <g transform="translate(23.675 33.592413)scale(0.16 -0.16)">
       <use xlink:href="#DejaVuSans-31"/>
       <use x="63.623047" xlink:href="#DejaVuSans-2e"/>
       <use x="95.410156" xlink:href="#DejaVuSans-30"/>
      </g>
     </g>
    </g>
    <g id="text_13">
     <!-- Fraction of function,target pairs -->
     <defs>
      <path d="M 9.8125 72.90625 
L 51.703125 72.90625 
L 51.703125 64.59375 
L 19.671875 64.59375 
L 19.671875 43.109375 
L 48.578125 43.109375 
L 48.578125 34.8125 
L 19.671875 34.8125 
L 19.671875 0 
L 9.8125 0 
z
" id="DejaVuSans-46"/>
      <path d="M 41.109375 46.296875 
Q 39.59375 47.171875 37.8125 47.578125 
Q 36.03125 48 33.890625 48 
Q 26.265625 48 22.1875 43.046875 
Q 18.109375 38.09375 18.109375 28.8125 
L 18.109375 0 
L 9.078125 0 
L 9.078125 54.6875 
L 18.109375 54.6875 
L 18.109375 46.1875 
Q 20.953125 51.171875 25.484375 53.578125 
Q 30.03125 56 36.53125 56 
Q 37.453125 56 38.578125 55.875 
Q 39.703125 55.765625 41.0625 55.515625 
z
" id="DejaVuSans-72"/>
      <path d="M 48.78125 52.59375 
L 48.78125 44.1875 
Q 44.96875 46.296875 41.140625 47.34375 
Q 37.3125 48.390625 33.40625 48.390625 
Q 24.65625 48.390625 19.8125 42.84375 
Q 14.984375 37.3125 14.984375 27.296875 
Q 14.984375 17.28125 19.8125 11.734375 
Q 24.65625 6.203125 33.40625 6.203125 
Q 37.3125 6.203125 41.140625 7.25 
Q 44.96875 8.296875 48.78125 10.40625 
L 48.78125 2.09375 
Q 45.015625 0.34375 40.984375 -0.53125 
Q 36.96875 -1.421875 32.421875 -1.421875 
Q 20.0625 -1.421875 12.78125 6.34375 
Q 5.515625 14.109375 5.515625 27.296875 
Q 5.515625 40.671875 12.859375 48.328125 
Q 20.21875 56 33.015625 56 
Q 37.15625 56 41.109375 55.140625 
Q 45.0625 54.296875 48.78125 52.59375 
z
" id="DejaVuSans-63"/>
      <path d="M 18.3125 70.21875 
L 18.3125 54.6875 
L 36.8125 54.6875 
L 36.8125 47.703125 
L 18.3125 47.703125 
L 18.3125 18.015625 
Q 18.3125 11.328125 20.140625 9.421875 
Q 21.96875 7.515625 27.59375 7.515625 
L 36.8125 7.515625 
L 36.8125 0 
L 27.59375 0 
Q 17.1875 0 13.234375 3.875 
Q 9.28125 7.765625 9.28125 18.015625 
L 9.28125 47.703125 
L 2.6875 47.703125 
L 2.6875 54.6875 
L 9.28125 54.6875 
L 9.28125 70.21875 
z
" id="DejaVuSans-74"/>
      <path d="M 8.5 21.578125 
L 8.5 54.6875 
L 17.484375 54.6875 
L 17.484375 21.921875 
Q 17.484375 14.15625 20.5 10.265625 
Q 23.53125 6.390625 29.59375 6.390625 
Q 36.859375 6.390625 41.078125 11.03125 
Q 45.3125 15.671875 45.3125 23.6875 
L 45.3125 54.6875 
L 54.296875 54.6875 
L 54.296875 0 
L 45.3125 0 
L 45.3125 8.40625 
Q 42.046875 3.421875 37.71875 1 
Q 33.40625 -1.421875 27.6875 -1.421875 
Q 18.265625 -1.421875 13.375 4.4375 
Q 8.5 10.296875 8.5 21.578125 
z
M 31.109375 56 
z
" id="DejaVuSans-75"/>
      <path d="M 11.71875 12.40625 
L 22.015625 12.40625 
L 22.015625 4 
L 14.015625 -11.625 
L 7.71875 -11.625 
L 11.71875 4 
z
" id="DejaVuSans-2c"/>
      <path d="M 18.109375 8.203125 
L 18.109375 -20.796875 
L 9.078125 -20.796875 
L 9.078125 54.6875 
L 18.109375 54.6875 
L 18.109375 46.390625 
Q 20.953125 51.265625 25.265625 53.625 
Q 29.59375 56 35.59375 56 
Q 45.5625 56 51.78125 48.09375 
Q 58.015625 40.1875 58.015625 27.296875 
Q 58.015625 14.40625 51.78125 6.484375 
Q 45.5625 -1.421875 35.59375 -1.421875 
Q 29.59375 -1.421875 25.265625 0.953125 
Q 20.953125 3.328125 18.109375 8.203125 
z
M 48.6875 27.296875 
Q 48.6875 37.203125 44.609375 42.84375 
Q 40.53125 48.484375 33.40625 48.484375 
Q 26.265625 48.484375 22.1875 42.84375 
Q 18.109375 37.203125 18.109375 27.296875 
Q 18.109375 17.390625 22.1875 11.75 
Q 26.265625 6.109375 33.40625 6.109375 
Q 40.53125 6.109375 44.609375 11.75 
Q 48.6875 17.390625 48.6875 27.296875 
z
" id="DejaVuSans-70"/>
     </defs>
     <g transform="translate(16.139531 294.999375)rotate(-90)scale(0.17 -0.17)">
      <use xlink:href="#DejaVuSans-46"/>
      <use x="57.410156" xlink:href="#DejaVuSans-72"/>
      <use x="98.523438" xlink:href="#DejaVuSans-61"/>
      <use x="159.802734" xlink:href="#DejaVuSans-63"/>
      <use x="214.783203" xlink:href="#DejaVuSans-74"/>
      <use x="253.992188" xlink:href="#DejaVuSans-69"/>
      <use x="281.775391" xlink:href="#DejaVuSans-6f"/>
      <use x="342.957031" xlink:href="#DejaVuSans-6e"/>
      <use x="406.335938" xlink:href="#DejaVuSans-20"/>
      <use x="438.123047" xlink:href="#DejaVuSans-6f"/>
      <use x="499.304688" xlink:href="#DejaVuSans-66"/>
      <use x="534.509766" xlink:href="#DejaVuSans-20"/>
      <use x="566.296875" xlink:href="#DejaVuSans-66"/>
      <use x="601.501953" xlink:href="#DejaVuSans-75"/>
      <use x="664.880859" xlink:href="#DejaVuSans-6e"/>
      <use x="728.259766" xlink:href="#DejaVuSans-63"/>
      <use x="783.240234" xlink:href="#DejaVuSans-74"/>
      <use x="822.449219" xlink:href="#DejaVuSans-69"/>
      <use x="850.232422" xlink:href="#DejaVuSans-6f"/>
      <use x="911.414062" xlink:href="#DejaVuSans-6e"/>
      <use x="974.792969" xlink:href="#DejaVuSans-2c"/>
      <use x="1006.580078" xlink:href="#DejaVuSans-74"/>
      <use x="1045.789062" xlink:href="#DejaVuSans-61"/>
      <use x="1107.068359" xlink:href="#DejaVuSans-72"/>
      <use x="1148.166016" xlink:href="#DejaVuSans-67"/>
      <use x="1211.642578" xlink:href="#DejaVuSans-65"/>
      <use x="1273.166016" xlink:href="#DejaVuSans-74"/>
      <use x="1312.375" xlink:href="#DejaVuSans-20"/>
      <use x="1344.162109" xlink:href="#DejaVuSans-70"/>
      <use x="1407.638672" xlink:href="#DejaVuSans-61"/>
      <use x="1468.917969" xlink:href="#DejaVuSans-69"/>
      <use x="1496.701172" xlink:href="#DejaVuSans-72"/>
      <use x="1537.814453" xlink:href="#DejaVuSans-73"/>
     </g>
    </g>
   </g>
   <g id="line2d_27">
    <defs>
     <path d="M 0 1.5 
C 0.397805 1.5 0.77937 1.341951 1.06066 1.06066 
C 1.341951 0.77937 1.5 0.397805 1.5 0 
C 1.5 -0.397805 1.341951 -0.77937 1.06066 -1.06066 
C 0.77937 -1.341951 0.397805 -1.5 0 -1.5 
C -0.397805 -1.5 -0.77937 -1.341951 -1.06066 -1.06066 
C -1.341951 -0.77937 -1.5 -0.397805 -1.5 0 
C -1.5 0.397805 -1.341951 0.77937 -1.06066 1.06066 
C -0.77937 1.341951 -0.397805 1.5 0 1.5 
z
" id="m67a312ac8f" style="stroke:#f5deb3;"/>
    </defs>
    <g>
     <use style="fill:#f5deb3;stroke:#f5deb3;" x="102.711641" xlink:href="#m67a312ac8f" y="27.513663"/>
     <use style="fill:#f5deb3;stroke:#f5deb3;" x="102.711641" xlink:href="#m67a312ac8f" y="27.513663"/>
    </g>
   </g>
   <g id="line2d_28">
    <defs>
     <path d="M 0 1.5 
C 0.397805 1.5 0.77937 1.341951 1.06066 1.06066 
C 1.341951 0.77937 1.5 0.397805 1.5 0 
C 1.5 -0.397805 1.341951 -0.77937 1.06066 -1.06066 
C 0.77937 -1.341951 0.397805 -1.5 0 -1.5 
C -0.397805 -1.5 -0.77937 -1.341951 -1.06066 -1.06066 
C -1.341951 -0.77937 -1.5 -0.397805 -1.5 0 
C -1.5 0.397805 -1.341951 0.77937 -1.06066 1.06066 
C -0.77937 1.341951 -0.397805 1.5 0 1.5 
z
" id="mefe8b9cb8d" style="stroke:#000080;"/>
    </defs>
    <g>
     <use style="fill:#000080;stroke:#000080;" x="204.491375" xlink:href="#mefe8b9cb8d" y="27.513663"/>
     <use style="fill:#000080;stroke:#000080;" x="204.491375" xlink:href="#mefe8b9cb8d" y="27.513663"/>
    </g>
   </g>
   <g id="line2d_29">
    <path d="M 119.370261 294.88 
L 119.370261 294.355752 
L 120.426105 294.355752 
L 120.426105 292.783009 
L 125.065631 292.783009 
L 125.065631 290.161771 
L 125.375637 290.161771 
L 125.375637 289.637523 
L 125.680156 289.637523 
L 125.680156 288.06478 
L 135.178422 288.06478 
L 135.178422 287.540532 
L 136.834012 287.540532 
L 136.834012 286.492036 
L 139.598531 286.492036 
L 139.598531 284.919293 
L 143.491367 284.919293 
L 143.491367 284.395046 
L 144.122809 284.395046 
L 144.122809 282.298055 
L 146.212283 282.298055 
L 146.212283 281.249559 
L 147.147318 281.249559 
L 147.233775 276.53133 
L 150.413659 276.53133 
L 150.413659 274.958587 
L 154.338624 274.958587 
L 154.338624 274.434339 
L 154.649649 274.434339 
L 154.649649 273.910091 
L 158.567084 273.910091 
L 158.633899 272.337348 
L 159.627178 272.337348 
L 159.66909 270.240357 
L 159.939058 270.240357 
L 159.939058 268.667614 
L 162.213251 268.667614 
L 162.213251 268.143366 
L 163.499871 268.143366 
L 163.499871 267.619119 
L 165.609872 267.619119 
L 165.609872 267.094871 
L 165.772114 267.094871 
L 165.772114 263.425137 
L 167.315556 263.425137 
L 167.315556 262.900889 
L 168.063997 262.900889 
L 168.063997 262.376641 
L 168.470331 262.376641 
L 168.520454 257.658412 
L 169.493426 257.658412 
L 169.493426 257.134164 
L 170.290572 257.134164 
L 170.290572 256.609917 
L 170.769289 256.609917 
L 170.780265 253.988678 
L 171.905722 253.988678 
L 171.905722 253.46443 
L 172.718702 253.46443 
L 172.718702 252.940182 
L 173.116015 252.940182 
L 173.116015 251.891687 
L 173.773846 251.891687 
L 173.773846 251.367439 
L 174.030093 251.367439 
L 174.030093 250.843192 
L 175.052815 250.843192 
L 175.052815 249.270448 
L 175.416997 249.270448 
L 175.416997 248.221953 
L 175.94515 248.221953 
L 176.010043 247.173458 
L 176.275171 247.173458 
L 176.275171 241.93098 
L 176.878363 241.93098 
L 176.878363 240.358237 
L 177.513133 240.358237 
L 177.624061 236.688503 
L 177.843794 236.688503 
L 177.843794 235.11576 
L 178.451551 235.11576 
L 178.472614 233.543017 
L 178.847402 233.543017 
L 178.91592 229.873283 
L 179.652141 229.873283 
L 179.652141 226.727797 
L 179.886401 226.727797 
L 179.899323 223.58231 
L 180.028006 223.58231 
L 180.040821 221.485319 
L 180.168455 221.485319 
L 180.168455 220.436824 
L 180.645005 220.436824 
L 180.645005 218.339833 
L 180.99395 218.339833 
L 180.99395 217.291338 
L 181.764269 217.291338 
L 181.764269 216.76709 
L 182.005947 216.76709 
L 182.005947 215.718594 
L 182.793326 215.718594 
L 182.875008 212.04886 
L 184.37248 212.04886 
L 184.417239 210.476117 
L 184.486633 210.476117 
L 184.540962 208.903374 
L 185.117986 208.903374 
L 185.156092 205.23364 
L 185.411124 205.23364 
L 185.411124 204.709392 
L 185.749987 204.709392 
L 185.749987 204.185145 
L 185.905564 204.185145 
L 185.905564 203.136649 
L 186.140817 203.136649 
L 186.140817 202.088154 
L 186.566855 202.088154 
L 186.606261 198.942667 
L 186.793296 198.942667 
L 186.823552 197.894172 
L 187.063703 197.894172 
L 187.169841 195.797181 
L 187.279534 195.797181 
L 187.279534 195.272933 
L 187.8869 195.272933 
L 187.903131 194.224438 
L 188.02035 194.224438 
L 188.02035 191.603199 
L 188.216613 191.603199 
L 188.288151 185.836474 
L 188.753758 185.836474 
L 188.753758 182.690988 
L 189.067417 182.690988 
L 189.067417 180.06975 
L 189.323256 180.06975 
L 189.364287 176.400016 
L 189.678084 176.400016 
L 189.678084 175.875768 
L 189.84917 175.875768 
L 189.84917 174.827272 
L 190.334852 174.827272 
L 190.338373 171.681786 
L 190.49956 171.681786 
L 190.569173 165.390813 
L 190.796919 165.390813 
L 190.807199 159.624089 
L 191.025072 159.624089 
L 191.025072 158.051345 
L 191.750396 158.051345 
L 191.857088 151.760373 
L 192.880018 151.760373 
L 192.919454 146.517896 
L 193.485749 146.517896 
L 193.596805 140.226923 
L 193.646257 140.226923 
L 193.686876 138.65418 
L 194.070878 138.65418 
L 194.070878 138.129932 
L 194.371468 138.129932 
L 194.427076 134.460198 
L 194.623042 134.460198 
L 194.724288 130.266216 
L 194.824941 130.266216 
L 194.824941 128.693473 
L 195.203203 128.693473 
L 195.295824 126.596482 
L 195.42466 126.596482 
L 195.490024 122.926748 
L 196.087555 122.926748 
L 196.157984 120.829757 
L 196.24312 120.829757 
L 196.248115 116.635776 
L 196.444262 116.635776 
L 196.444262 116.111528 
L 196.870961 116.111528 
L 196.909451 114.538785 
L 197.017244 114.538785 
L 197.10537 112.441794 
L 197.14571 112.441794 
L 197.14571 111.917546 
L 197.590244 111.917546 
L 197.682385 109.820555 
L 197.776319 109.820555 
L 197.815118 105.626573 
L 197.912866 105.626573 
L 197.980736 103.529583 
L 198.44847 103.529583 
L 198.54488 102.481087 
L 198.584166 102.481087 
L 198.69499 100.384096 
L 198.72745 100.384096 
L 198.72745 99.859849 
L 199.078407 99.859849 
L 199.14817 93.568876 
L 199.196625 93.568876 
L 199.299404 89.899142 
L 199.309857 89.899142 
L 199.387014 86.229408 
L 199.690182 86.229408 
L 199.76769 81.511178 
L 199.873192 81.511178 
L 199.933766 78.365692 
L 199.990109 78.365692 
L 199.992118 76.268701 
L 200.393173 76.268701 
L 200.494919 72.598967 
L 200.547513 72.598967 
L 200.547513 71.550472 
L 200.721672 71.550472 
L 200.721672 68.404985 
L 201.11379 68.404985 
L 201.216988 64.735251 
L 201.519242 64.735251 
L 201.620043 61.065517 
L 201.73297 61.065517 
L 201.818084 56.871536 
L 201.864989 56.871536 
L 201.864989 56.347288 
L 202.166789 56.347288 
L 202.228636 52.677554 
L 202.313094 52.677554 
L 202.323623 51.629058 
L 202.660609 51.629058 
L 202.766929 46.386581 
L 202.772057 46.386581 
L 202.881089 39.047113 
L 202.898063 39.047113 
L 202.950576 37.998618 
L 203.282254 37.998618 
L 203.303809 36.425875 
L 203.50315 36.425875 
L 203.50315 35.377379 
L 203.846934 35.377379 
L 203.846934 34.328884 
L 204.351623 34.328884 
L 204.430955 28.037911 
L 204.491375 28.037911 
L 204.491375 27.513663 
L 333.429677 27.513663 
L 333.429677 27.513663 
" style="fill:none;stroke:#000080;stroke-linecap:square;stroke-width:1.5;"/>
   </g>
   <g id="line2d_30">
    <defs>
     <path d="M 0 6 
C 1.591219 6 3.117479 5.367802 4.242641 4.242641 
C 5.367802 3.117479 6 1.591219 6 0 
C 6 -1.591219 5.367802 -3.117479 4.242641 -4.242641 
C 3.117479 -5.367802 1.591219 -6 0 -6 
C -1.591219 -6 -3.117479 -5.367802 -4.242641 -4.242641 
C -5.367802 -3.117479 -6 -1.591219 -6 0 
C -6 1.591219 -5.367802 3.117479 -4.242641 4.242641 
C -3.117479 5.367802 -1.591219 6 0 6 
z
" id="mcce6142a70" style="stroke:#000080;stroke-width:1.5;"/>
    </defs>
    <g>
     <use style="fill-opacity:0;stroke:#000080;stroke-width:1.5;" x="154.338624" xlink:href="#mcce6142a70" y="274.958587"/>
     <use style="fill-opacity:0;stroke:#000080;stroke-width:1.5;" x="194.427076" xlink:href="#mcce6142a70" y="134.460198"/>
     <use style="fill-opacity:0;stroke:#000080;stroke-width:1.5;" x="204.491375" xlink:href="#mcce6142a70" y="28.037911"/>
     <use style="fill-opacity:0;stroke:#000080;stroke-width:1.5;" x="204.491375" xlink:href="#mcce6142a70" y="27.513663"/>
     <use style="fill-opacity:0;stroke:#000080;stroke-width:1.5;" x="333.429677" xlink:href="#mcce6142a70" y="27.513663"/>
    </g>
   </g>
   <g id="line2d_31">
    <path style="fill:none;stroke:#000080;stroke-linecap:square;stroke-width:1.5;"/>
    <g/>
   </g>
   <g id="line2d_32">
    <defs>
     <path d="M 0 1.5 
C 0.397805 1.5 0.77937 1.341951 1.06066 1.06066 
C 1.341951 0.77937 1.5 0.397805 1.5 0 
C 1.5 -0.397805 1.341951 -0.77937 1.06066 -1.06066 
C 0.77937 -1.341951 0.397805 -1.5 0 -1.5 
C -0.397805 -1.5 -0.77937 -1.341951 -1.06066 -1.06066 
C -1.341951 -0.77937 -1.5 -0.397805 -1.5 0 
C -1.5 0.397805 -1.341951 0.77937 -1.06066 1.06066 
C -0.77937 1.341951 -0.397805 1.5 0 1.5 
z
" id="mc41a1cfd78" style="stroke:#ff00ff;"/>
    </defs>
    <g>
     <use style="fill:#ff00ff;stroke:#ff00ff;" x="169.013817" xlink:href="#mc41a1cfd78" y="27.513663"/>
     <use style="fill:#ff00ff;stroke:#ff00ff;" x="169.013817" xlink:href="#mc41a1cfd78" y="27.513663"/>
    </g>
   </g>
   <g id="line2d_33">
    <path d="M 124.428341 294.88 
L 124.428341 293.307257 
L 125.065631 293.307257 
L 125.065631 292.258761 
L 126.987483 292.258761 
L 126.987483 291.210266 
L 127.264987 291.210266 
L 127.264987 290.686018 
L 129.699468 290.686018 
L 129.699468 290.161771 
L 130.629687 290.161771 
L 130.629687 289.637523 
L 131.295765 289.637523 
L 131.295765 289.113275 
L 131.619377 289.113275 
L 131.619377 284.395046 
L 132.248894 284.395046 
L 132.248894 282.298055 
L 136.434809 282.298055 
L 136.434809 280.201064 
L 136.991135 280.201064 
L 136.991135 278.628321 
L 137.978882 278.628321 
L 137.978882 276.53133 
L 138.488154 276.53133 
L 138.488154 275.482834 
L 138.772539 275.482834 
L 138.772539 272.861596 
L 139.190491 272.861596 
L 139.259174 271.288853 
L 140.704707 271.288853 
L 140.704707 270.240357 
L 141.07874 270.240357 
L 141.07874 269.716109 
L 142.384563 269.716109 
L 142.441628 263.425137 
L 142.498503 263.425137 
L 142.498503 261.328146 
L 142.668011 261.328146 
L 142.724144 259.755403 
L 143.002096 259.755403 
L 143.002096 257.658412 
L 144.174398 257.658412 
L 144.225833 256.085669 
L 144.831345 256.085669 
L 144.831345 250.318944 
L 145.174963 250.318944 
L 145.174963 249.794696 
L 145.606907 249.794696 
L 145.70144 247.697705 
L 145.935523 247.697705 
L 145.935523 246.64921 
L 146.120523 246.64921 
L 146.120523 244.027971 
L 146.303556 244.027971 
L 146.394347 242.455228 
L 146.574504 242.455228 
L 146.61925 240.882485 
L 146.929256 240.882485 
L 146.929256 240.358237 
L 147.276841 240.358237 
L 147.276841 239.309742 
L 147.827105 239.309742 
L 147.827105 238.785494 
L 148.198003 238.785494 
L 148.198003 235.11576 
L 148.319879 235.11576 
L 148.360314 232.494521 
L 148.48105 232.494521 
L 148.521108 227.252044 
L 148.798932 227.252044 
L 148.798932 226.203549 
L 148.91664 226.203549 
L 148.91664 225.155053 
L 149.379579 225.155053 
L 149.455539 219.912576 
L 149.531165 219.912576 
L 149.568853 216.76709 
L 149.681426 216.76709 
L 149.681426 213.097356 
L 150.305791 213.097356 
L 150.341822 209.95187 
L 150.485197 209.95187 
L 150.485197 204.709392 
L 150.662751 204.709392 
L 150.768411 202.088154 
L 151.218916 202.088154 
L 151.321225 200.515411 
L 151.422929 200.515411 
L 151.524035 190.030456 
L 151.823837 190.030456 
L 151.823837 186.88497 
L 152.150936 186.88497 
L 152.183306 183.215236 
L 152.40821 183.215236 
L 152.40821 181.642493 
L 152.535418 181.642493 
L 152.598671 174.827272 
L 152.661693 174.827272 
L 152.693117 173.778777 
L 152.787048 173.778777 
L 152.818244 171.157538 
L 152.973384 171.157538 
L 152.973384 169.584795 
L 153.249158 169.584795 
L 153.340109 168.5363 
L 153.460634 168.5363 
L 153.550477 163.81807 
L 153.58032 163.81807 
L 153.639853 161.196832 
L 153.905229 161.196832 
L 153.905229 158.051345 
L 154.252814 158.051345 
L 154.310068 155.954354 
L 154.395594 155.954354 
L 154.395594 151.236125 
L 154.593515 151.236125 
L 154.593515 148.614886 
L 155.010118 148.614886 
L 155.010118 147.042143 
L 155.36319 147.042143 
L 155.390052 140.751171 
L 155.81423 140.751171 
L 155.840397 138.129932 
L 155.970639 138.129932 
L 156.048314 136.032941 
L 156.151337 136.032941 
L 156.151337 135.508693 
L 156.355552 135.508693 
L 156.431512 129.217721 
L 156.557371 129.217721 
L 156.557371 122.4025 
L 156.732041 122.4025 
L 156.75685 120.30551 
L 156.88036 120.30551 
L 156.929516 114.538785 
L 157.100467 114.538785 
L 157.197397 111.393298 
L 157.48495 111.393298 
L 157.556093 108.247812 
L 157.650496 108.247812 
L 157.697504 106.150821 
L 157.861027 106.150821 
L 157.953776 102.481087 
L 158.023011 102.481087 
L 158.023011 101.956839 
L 158.137787 101.956839 
L 158.206287 95.665867 
L 158.455146 95.665867 
L 158.455146 93.568876 
L 158.656113 93.568876 
L 158.656113 92.520381 
L 158.810814 92.520381 
L 158.92047 84.132417 
L 159.007694 84.132417 
L 159.116105 74.695958 
L 159.202345 74.695958 
L 159.202345 70.501976 
L 159.814983 70.501976 
L 159.814983 69.977729 
L 160.082689 69.977729 
L 160.164229 67.880738 
L 160.204854 67.880738 
L 160.285818 65.259499 
L 160.56623 65.259499 
L 160.56623 63.162508 
L 160.685021 63.162508 
L 160.783391 60.017022 
L 160.959052 60.017022 
L 161.036551 56.347288 
L 161.266977 56.347288 
L 161.324105 55.298792 
L 161.381043 55.298792 
L 161.381043 51.629058 
L 161.774421 51.629058 
L 161.774421 50.580563 
L 161.903574 50.580563 
L 161.903574 49.00782 
L 162.285314 49.00782 
L 162.285314 48.483572 
L 162.535181 48.483572 
L 162.535181 47.435077 
L 162.67635 47.435077 
L 162.67635 45.338086 
L 162.972543 45.338086 
L 162.972543 43.765343 
L 163.12731 43.765343 
L 163.12731 42.716847 
L 163.533344 42.716847 
L 163.583431 41.668352 
L 163.732822 41.668352 
L 163.831701 38.522865 
L 163.946346 38.522865 
L 163.946346 36.425875 
L 164.397436 36.425875 
L 164.397436 35.901627 
L 164.618622 35.901627 
L 164.618622 34.853131 
L 164.759326 34.853131 
L 164.759326 34.328884 
L 165.356086 34.328884 
L 165.431118 32.231893 
L 166.235572 32.231893 
L 166.292637 28.562159 
L 169.013817 28.562159 
L 169.013817 27.513663 
L 333.429677 27.513663 
L 333.429677 27.513663 
" style="fill:none;stroke:#ff00ff;stroke-linecap:square;stroke-width:1.5;"/>
   </g>
   <g id="line2d_34">
    <defs>
     <path d="M -0 8.485281 
L 5.091169 0 
L 0 -8.485281 
L -5.091169 -0 
z
" id="m8733686d3b" style="stroke:#ff00ff;stroke-linejoin:miter;stroke-width:1.5;"/>
    </defs>
    <g>
     <use style="fill-opacity:0;stroke:#ff00ff;stroke-linejoin:miter;stroke-width:1.5;" x="151.422929" xlink:href="#m8733686d3b" y="198.942667"/>
     <use style="fill-opacity:0;stroke:#ff00ff;stroke-linejoin:miter;stroke-width:1.5;" x="169.013817" xlink:href="#m8733686d3b" y="28.562159"/>
     <use style="fill-opacity:0;stroke:#ff00ff;stroke-linejoin:miter;stroke-width:1.5;" x="169.013817" xlink:href="#m8733686d3b" y="27.513663"/>
     <use style="fill-opacity:0;stroke:#ff00ff;stroke-linejoin:miter;stroke-width:1.5;" x="169.013817" xlink:href="#m8733686d3b" y="27.513663"/>
     <use style="fill-opacity:0;stroke:#ff00ff;stroke-linejoin:miter;stroke-width:1.5;" x="333.429677" xlink:href="#m8733686d3b" y="27.513663"/>
    </g>
   </g>
   <g id="line2d_35">
    <path style="fill:none;stroke:#ff00ff;stroke-linecap:square;stroke-width:1.5;"/>
    <g/>
   </g>
   <g id="line2d_36">
    <defs>
     <path d="M 0 1.5 
C 0.397805 1.5 0.77937 1.341951 1.06066 1.06066 
C 1.341951 0.77937 1.5 0.397805 1.5 0 
C 1.5 -0.397805 1.341951 -0.77937 1.06066 -1.06066 
C 0.77937 -1.341951 0.397805 -1.5 0 -1.5 
C -0.397805 -1.5 -0.77937 -1.341951 -1.06066 -1.06066 
C -1.341951 -0.77937 -1.5 -0.397805 -1.5 0 
C -1.5 0.397805 -1.341951 0.77937 -1.06066 1.06066 
C -0.77937 1.341951 -0.397805 1.5 0 1.5 
z
" id="m8ea4622663" style="stroke:#ffa500;"/>
    </defs>
    <g>
     <use style="fill:#ffa500;stroke:#ffa500;" x="240.321352" xlink:href="#m8ea4622663" y="27.513663"/>
     <use style="fill:#ffa500;stroke:#ffa500;" x="240.321352" xlink:href="#m8ea4622663" y="27.513663"/>
    </g>
   </g>
   <g id="line2d_37">
    <path d="M 77.673619 294.88 
L 77.673619 294.355752 
L 93.922955 294.355752 
L 93.922955 293.831505 
L 114.637146 293.831505 
L 114.637146 292.258761 
L 138.701882 292.258761 
L 138.701882 290.686018 
L 139.395721 290.686018 
L 139.395721 290.161771 
L 139.798978 290.161771 
L 139.798978 288.589027 
L 142.835865 288.589027 
L 142.835865 286.492036 
L 150.377778 286.492036 
L 150.377778 285.443541 
L 152.880468 285.443541 
L 152.880468 284.919293 
L 155.22825 284.919293 
L 155.22825 284.395046 
L 155.416872 284.395046 
L 155.416872 282.822302 
L 155.970639 282.822302 
L 156.074128 280.725312 
L 158.183484 280.725312 
L 158.183484 280.201064 
L 158.964137 280.201064 
L 158.964137 279.676816 
L 160.783391 279.676816 
L 160.783391 278.628321 
L 164.02777 278.628321 
L 164.02777 274.434339 
L 166.063235 274.434339 
L 166.063235 273.385844 
L 166.292637 273.385844 
L 166.292637 272.861596 
L 168.179252 272.861596 
L 168.281056 265.522128 
L 168.369643 265.522128 
L 168.369643 264.99788 
L 170.637028 264.99788 
L 170.637028 264.473632 
L 173.838266 264.473632 
L 173.838266 260.803898 
L 174.557864 260.803898 
L 174.557864 259.231155 
L 176.010043 259.231155 
L 176.010043 256.085669 
L 176.19526 256.085669 
L 176.19526 255.561421 
L 177.475998 255.561421 
L 177.475998 255.037173 
L 177.726953 255.037173 
L 177.726953 254.512926 
L 179.200753 254.512926 
L 179.200753 253.988678 
L 179.57334 253.988678 
L 179.57334 252.940182 
L 179.763161 252.940182 
L 179.763161 252.415935 
L 182.29492 252.415935 
L 182.29492 251.367439 
L 185.919224 251.367439 
L 185.919224 250.843192 
L 186.239386 250.843192 
L 186.239386 248.746201 
L 188.873009 248.746201 
L 188.873009 248.221953 
L 189.074996 248.221953 
L 189.074996 245.600714 
L 189.590061 245.600714 
L 189.590061 245.076467 
L 190.865341 245.076467 
L 190.889225 242.979476 
L 191.571092 242.979476 
L 191.639774 236.164255 
L 192.733619 236.164255 
L 192.733619 235.11576 
L 193.701359 235.11576 
L 193.701359 234.591512 
L 194.933097 234.591512 
L 194.933097 234.067265 
L 195.152714 234.067265 
L 195.152714 233.018769 
L 195.474359 233.018769 
L 195.474359 229.873283 
L 196.293004 229.873283 
L 196.293004 228.30054 
L 197.705343 228.30054 
L 197.705343 226.727797 
L 198.710146 226.727797 
L 198.710146 225.679301 
L 199.409885 225.679301 
L 199.409885 225.155053 
L 199.636948 225.155053 
L 199.636948 224.630806 
L 199.899467 224.630806 
L 199.907543 220.436824 
L 200.07428 220.436824 
L 200.07428 218.864081 
L 200.389247 218.864081 
L 200.389247 218.339833 
L 201.091192 218.339833 
L 201.091192 217.291338 
L 201.430785 217.291338 
L 201.430785 216.76709 
L 201.947661 216.76709 
L 201.960207 214.670099 
L 202.06737 214.670099 
L 202.079828 207.854879 
L 202.816434 207.854879 
L 202.816434 206.282136 
L 203.016414 206.282136 
L 203.016414 205.23364 
L 203.353448 205.23364 
L 203.353448 204.185145 
L 204.17611 204.185145 
L 204.17611 202.612401 
L 204.606973 202.612401 
L 204.606973 200.515411 
L 204.718748 200.515411 
L 204.799447 197.369924 
L 204.885817 197.369924 
L 204.885817 196.321429 
L 205.280283 196.321429 
L 205.280283 194.748686 
L 205.773902 194.748686 
L 205.773902 194.224438 
L 206.067085 194.224438 
L 206.067085 193.70019 
L 207.351475 193.70019 
L 207.351475 192.651695 
L 207.586903 192.651695 
L 207.586903 190.030456 
L 207.73867 190.030456 
L 207.742511 188.457713 
L 209.223413 188.457713 
L 209.308948 186.88497 
L 209.463702 186.88497 
L 209.463702 181.642493 
L 209.838371 181.642493 
L 209.876863 179.021254 
L 210.539076 179.021254 
L 210.634568 177.448511 
L 210.677799 177.448511 
L 210.677799 175.35152 
L 210.793983 175.35152 
L 210.854988 173.778777 
L 211.038828 173.778777 
L 211.038828 172.730281 
L 211.771369 172.730281 
L 211.771369 172.206034 
L 212.472045 172.206034 
L 212.472045 171.157538 
L 212.724977 171.157538 
L 212.724977 166.963557 
L 212.899463 166.963557 
L 212.990294 164.342318 
L 213.230191 164.342318 
L 213.230191 163.293823 
L 213.530922 163.293823 
L 213.530922 162.769575 
L 213.671178 162.769575 
L 213.671178 161.196832 
L 213.992874 161.196832 
L 213.992874 160.148336 
L 214.13561 160.148336 
L 214.13561 159.099841 
L 214.735119 159.099841 
L 214.793852 156.478602 
L 215.445026 156.478602 
L 215.445026 154.381611 
L 216.017139 154.381611 
L 216.017139 153.857364 
L 216.42461 153.857364 
L 216.42461 153.333116 
L 216.72723 153.333116 
L 216.72723 151.760373 
L 216.864894 151.760373 
L 216.880708 149.663382 
L 217.907002 149.663382 
L 217.907002 148.614886 
L 218.172975 148.614886 
L 218.267672 145.4694 
L 218.287797 145.4694 
L 218.287797 144.420905 
L 218.724704 144.420905 
L 218.724704 143.372409 
L 219.018353 143.372409 
L 219.129009 141.799666 
L 219.137593 141.799666 
L 219.137593 141.275418 
L 219.659692 141.275418 
L 219.659692 140.751171 
L 219.977587 140.751171 
L 219.977587 139.702675 
L 220.450104 139.702675 
L 220.54526 133.93595 
L 220.800062 133.93595 
L 220.800062 130.790464 
L 221.147156 130.790464 
L 221.244969 121.878253 
L 221.349778 121.878253 
L 221.349778 121.354005 
L 221.649591 121.354005 
L 221.679799 118.208519 
L 222.309363 118.208519 
L 222.382774 117.160023 
L 222.483069 117.160023 
L 222.588725 115.063032 
L 222.604383 115.063032 
L 222.604383 114.538785 
L 222.767667 114.538785 
L 222.767667 112.966042 
L 222.951644 112.966042 
L 223.007615 111.917546 
L 223.404704 111.917546 
L 223.438156 110.344803 
L 223.604448 110.344803 
L 223.673053 109.296308 
L 223.989642 109.296308 
L 223.989642 105.102326 
L 224.792683 105.102326 
L 224.872335 101.956839 
L 225.158022 101.956839 
L 225.158022 100.384096 
L 225.27856 100.384096 
L 225.27856 97.762858 
L 225.707438 97.762858 
L 225.707438 97.23861 
L 226.07347 97.23861 
L 226.108284 95.665867 
L 226.289147 95.665867 
L 226.376054 93.044628 
L 226.495269 93.044628 
L 226.524944 89.899142 
L 226.636305 89.899142 
L 226.713407 88.326399 
L 226.815533 88.326399 
L 226.843818 86.753656 
L 227.507034 86.753656 
L 227.507034 85.180912 
L 227.653332 85.180912 
L 227.653332 84.656665 
L 227.795203 84.656665 
L 227.795203 83.083922 
L 228.298252 83.083922 
L 228.388331 80.986931 
L 228.725108 80.986931 
L 228.77457 79.938435 
L 229.02832 79.938435 
L 229.10875 76.268701 
L 229.316053 76.268701 
L 229.422044 72.598967 
L 229.641052 72.598967 
L 229.657536 69.453481 
L 229.933257 69.453481 
L 229.933257 68.929233 
L 230.112089 68.929233 
L 230.112089 68.404985 
L 230.426978 68.404985 
L 230.426978 67.35649 
L 230.686009 67.35649 
L 230.718032 65.783747 
L 230.89093 65.783747 
L 230.89093 62.638261 
L 231.028405 62.638261 
L 231.028405 62.114013 
L 231.270777 62.114013 
L 231.310517 61.065517 
L 231.408821 61.065517 
L 231.43662 57.920031 
L 232.003077 57.920031 
L 232.079787 53.201802 
L 232.701876 53.201802 
L 232.701876 52.153306 
L 232.947092 52.153306 
L 232.947092 51.629058 
L 233.208103 51.629058 
L 233.312973 49.532068 
L 233.410874 49.532068 
L 233.410874 48.483572 
L 233.559971 48.483572 
L 233.637733 44.813838 
L 234.176299 44.813838 
L 234.261748 42.192599 
L 234.344866 42.192599 
L 234.344866 41.144104 
L 234.968667 41.144104 
L 234.968667 39.571361 
L 235.188736 39.571361 
L 235.245775 38.522865 
L 235.466439 38.522865 
L 235.561493 35.901627 
L 235.606416 35.901627 
L 235.606416 34.853131 
L 236.004045 34.853131 
L 236.00454 33.280388 
L 236.180231 33.280388 
L 236.231637 31.707645 
L 236.466147 31.707645 
L 236.568797 30.65915 
L 236.631001 30.65915 
L 236.631001 30.134902 
L 237.162435 30.134902 
L 237.162435 28.562159 
L 238.773962 28.562159 
L 238.773962 28.037911 
L 240.321352 28.037911 
L 240.321352 27.513663 
L 333.429677 27.513663 
L 333.429677 27.513663 
" style="fill:none;stroke:#ffa500;stroke-linecap:square;stroke-width:1.5;"/>
   </g>
   <g id="line2d_38">
    <defs>
     <path d="M 0 -6 
L -1.347084 -1.854102 
L -5.706339 -1.854102 
L -2.179628 0.708204 
L -3.526712 4.854102 
L -0 2.291796 
L 3.526712 4.854102 
L 2.179628 0.708204 
L 5.706339 -1.854102 
L 1.347084 -1.854102 
z
" id="m5d24c43e77" style="stroke:#ffa500;stroke-linejoin:bevel;stroke-width:1.5;"/>
    </defs>
    <g>
     <use style="fill-opacity:0;stroke:#ffa500;stroke-linejoin:bevel;stroke-width:1.5;" x="182.29492" xlink:href="#m5d24c43e77" y="252.415935"/>
     <use style="fill-opacity:0;stroke:#ffa500;stroke-linejoin:bevel;stroke-width:1.5;" x="221.679799" xlink:href="#m5d24c43e77" y="120.30551"/>
     <use style="fill-opacity:0;stroke:#ffa500;stroke-linejoin:bevel;stroke-width:1.5;" x="240.321352" xlink:href="#m5d24c43e77" y="27.513663"/>
     <use style="fill-opacity:0;stroke:#ffa500;stroke-linejoin:bevel;stroke-width:1.5;" x="240.321352" xlink:href="#m5d24c43e77" y="27.513663"/>
     <use style="fill-opacity:0;stroke:#ffa500;stroke-linejoin:bevel;stroke-width:1.5;" x="333.429677" xlink:href="#m5d24c43e77" y="27.513663"/>
    </g>
   </g>
   <g id="line2d_39">
    <path style="fill:none;stroke:#ffa500;stroke-linecap:square;stroke-width:1.5;"/>
    <g/>
   </g>
   <g id="line2d_40">
    <defs>
     <path d="M 0 1.5 
C 0.397805 1.5 0.77937 1.341951 1.06066 1.06066 
C 1.341951 0.77937 1.5 0.397805 1.5 0 
C 1.5 -0.397805 1.341951 -0.77937 1.06066 -1.06066 
C 0.77937 -1.341951 0.397805 -1.5 0 -1.5 
C -0.397805 -1.5 -0.77937 -1.341951 -1.06066 -1.06066 
C -1.341951 -0.77937 -1.5 -0.397805 -1.5 0 
C -1.5 0.397805 -1.341951 0.77937 -1.06066 1.06066 
C -0.77937 1.341951 -0.397805 1.5 0 1.5 
z
" id="mcc3f6eeb39" style="stroke:#6495ed;"/>
    </defs>
    <g>
     <use style="fill:#6495ed;stroke:#6495ed;" x="196.784043" xlink:href="#mcc3f6eeb39" y="27.513663"/>
     <use style="fill:#6495ed;stroke:#6495ed;" x="196.784043" xlink:href="#mcc3f6eeb39" y="27.513663"/>
    </g>
   </g>
   <g id="line2d_41">
    <path d="M 93.922955 294.88 
L 93.922955 294.355752 
L 109.300972 294.355752 
L 109.300972 292.783009 
L 113.754651 292.783009 
L 113.754651 291.210266 
L 120.220057 291.210266 
L 120.220057 290.686018 
L 122.901785 290.686018 
L 122.901785 289.113275 
L 128.716065 289.113275 
L 128.716065 286.492036 
L 129.579573 286.492036 
L 129.579573 285.967789 
L 132.145561 285.967789 
L 132.145561 284.395046 
L 136.108641 284.395046 
L 136.108641 278.628321 
L 137.224162 278.628321 
L 137.224162 277.579825 
L 141.803263 277.579825 
L 141.803263 276.53133 
L 142.212226 276.53133 
L 142.212226 273.910091 
L 142.780095 273.910091 
L 142.780095 271.288853 
L 143.914893 271.288853 
L 143.914893 268.143366 
L 149.265007 268.143366 
L 149.265007 267.619119 
L 150.662751 267.619119 
L 150.662751 266.046375 
L 151.253087 266.046375 
L 151.28719 262.900889 
L 151.422929 262.900889 
L 151.422929 262.376641 
L 152.724485 262.376641 
L 152.724485 259.755403 
L 153.370319 259.755403 
L 153.370319 257.658412 
L 154.079899 257.658412 
L 154.079899 257.134164 
L 154.649649 257.134164 
L 154.649649 256.609917 
L 156.253747 256.609917 
L 156.253747 252.940182 
L 156.978533 252.940182 
L 156.978533 252.415935 
L 158.069014 252.415935 
L 158.069014 251.891687 
L 158.898594 251.891687 
L 158.898594 250.318944 
L 163.22972 250.318944 
L 163.22972 249.270448 
L 163.683169 249.270448 
L 163.683169 248.746201 
L 164.805973 248.746201 
L 164.805973 247.173458 
L 165.728017 247.173458 
L 165.728017 245.600714 
L 166.063235 245.600714 
L 166.063235 243.503724 
L 166.490884 243.503724 
L 166.490884 240.358237 
L 166.659011 240.358237 
L 166.659011 239.83399 
L 167.382528 239.83399 
L 167.382528 238.785494 
L 170.987489 238.785494 
L 171.019982 233.543017 
L 171.224356 233.543017 
L 171.224356 231.970274 
L 171.384006 231.970274 
L 171.384006 231.446026 
L 172.342082 231.446026 
L 172.372117 225.679301 
L 173.106433 225.679301 
L 173.202016 223.058063 
L 173.410448 223.058063 
L 173.466857 222.009567 
L 173.939014 222.009567 
L 173.939014 221.485319 
L 174.174825 221.485319 
L 174.201827 219.388328 
L 174.557864 219.388328 
L 174.557864 217.291338 
L 175.00138 217.291338 
L 175.00138 216.242842 
L 175.257029 216.242842 
L 175.257029 215.718594 
L 175.48391 215.718594 
L 175.525598 213.097356 
L 175.666589 213.097356 
L 175.666589 212.573108 
L 175.888166 212.573108 
L 175.912611 211.524613 
L 176.042398 211.524613 
L 176.042398 211.000365 
L 176.19526 211.000365 
L 176.19526 209.95187 
L 176.489096 209.95187 
L 176.489096 209.427622 
L 176.661459 209.427622 
L 176.661459 208.903374 
L 177.741601 208.903374 
L 177.741601 208.379126 
L 178.125315 208.379126 
L 178.211018 204.709392 
L 178.282113 204.709392 
L 178.282113 203.660897 
L 178.409348 203.660897 
L 178.458575 197.369924 
L 178.570568 197.369924 
L 178.654087 194.748686 
L 178.874842 194.748686 
L 178.929591 193.175943 
L 179.187296 193.175943 
L 179.187296 191.603199 
L 179.427927 191.603199 
L 179.533803 183.739484 
L 179.540399 183.739484 
L 179.540399 183.215236 
L 179.802175 183.215236 
L 179.886401 181.642493 
L 179.983076 181.642493 
L 179.983076 181.118245 
L 180.238251 181.118245 
L 180.28252 179.021254 
L 180.527099 179.021254 
L 180.527099 177.972759 
L 180.951476 177.972759 
L 180.951476 176.924263 
L 181.222709 176.924263 
L 181.288366 174.827272 
L 181.49562 174.827272 
L 181.49562 174.303025 
L 181.799003 174.303025 
L 181.799003 173.778777 
L 181.960174 173.778777 
L 181.988796 170.109043 
L 182.102812 170.109043 
L 182.125524 166.963557 
L 182.356617 166.963557 
L 182.356617 163.81807 
L 182.47935 163.81807 
L 182.573593 160.672584 
L 182.601214 160.672584 
L 182.667323 158.051345 
L 182.793326 158.051345 
L 182.891298 151.760373 
L 183.010288 151.760373 
L 183.080216 150.711877 
L 183.229871 150.711877 
L 183.229871 150.18763 
L 183.525331 150.18763 
L 183.525331 145.4694 
L 183.645226 145.4694 
L 183.67118 141.799666 
L 184.327604 141.799666 
L 184.327604 141.275418 
L 184.737087 141.275418 
L 184.819767 139.702675 
L 185.04152 139.702675 
L 185.146574 137.605684 
L 185.160849 137.605684 
L 185.255721 135.508693 
L 185.312393 135.508693 
L 185.312393 134.984446 
L 185.485968 134.984446 
L 185.579068 128.693473 
L 185.685514 128.693473 
L 185.791306 122.926748 
L 185.896451 122.926748 
L 185.896451 122.4025 
L 186.023592 122.4025 
L 186.050715 118.208519 
L 186.154291 118.208519 
L 186.239386 114.538785 
L 186.544924 114.538785 
L 186.544924 112.441794 
L 186.849443 112.441794 
L 186.918297 107.723564 
L 187.604478 107.723564 
L 187.604478 107.199317 
L 187.935548 107.199317 
L 187.988094 105.626573 
L 188.092707 105.626573 
L 188.092707 105.102326 
L 188.25242 105.102326 
L 188.331723 104.05383 
L 188.579166 104.05383 
L 188.579166 102.481087 
L 188.776903 102.481087 
L 188.849993 100.908344 
L 188.907477 100.908344 
L 188.91895 98.811353 
L 189.330723 98.811353 
L 189.330723 97.762858 
L 189.549566 97.762858 
L 189.623122 95.665867 
L 189.751095 95.665867 
L 189.823796 90.947637 
L 189.935881 90.947637 
L 190.004218 89.899142 
L 190.090153 89.899142 
L 190.18632 86.753656 
L 190.221801 86.753656 
L 190.221801 84.656665 
L 190.555273 84.656665 
L 190.555273 83.083922 
L 190.693772 83.083922 
L 190.731664 81.511178 
L 190.820897 81.511178 
L 190.889225 79.938435 
L 191.092595 79.938435 
L 191.196735 73.123215 
L 191.206779 73.123215 
L 191.206779 72.598967 
L 191.41968 72.598967 
L 191.41968 72.074719 
L 191.557979 72.074719 
L 191.557979 71.026224 
L 191.682155 71.026224 
L 191.682155 67.880738 
L 192.074874 67.880738 
L 192.182742 65.259499 
L 192.44949 65.259499 
L 192.524064 62.638261 
L 192.576692 62.638261 
L 192.672249 58.444279 
L 192.828311 58.444279 
L 192.828311 57.920031 
L 192.955777 57.920031 
L 192.955777 55.298792 
L 193.112296 55.298792 
L 193.166145 52.153306 
L 193.231733 52.153306 
L 193.231733 51.104811 
L 193.415237 51.104811 
L 193.415237 50.580563 
L 193.652066 50.580563 
L 193.652066 50.056315 
L 193.799524 50.056315 
L 193.836911 47.435077 
L 194.056702 47.435077 
L 194.158506 43.241095 
L 194.231659 43.241095 
L 194.296112 40.619856 
L 194.382604 40.619856 
L 194.382604 40.095609 
L 194.559804 40.095609 
L 194.559804 39.571361 
L 194.710641 39.571361 
L 194.778768 36.950122 
L 195.024498 36.950122 
L 195.040578 34.328884 
L 195.253545 34.328884 
L 195.264124 31.707645 
L 195.568133 31.707645 
L 195.568133 31.183397 
L 195.74645 31.183397 
L 195.836199 29.610654 
L 196.195596 29.610654 
L 196.195596 29.086407 
L 196.335291 29.086407 
L 196.335291 28.562159 
L 196.784043 28.562159 
L 196.784043 27.513663 
L 333.429677 27.513663 
L 333.429677 27.513663 
" style="fill:none;stroke:#6495ed;stroke-linecap:square;stroke-width:1.5;"/>
   </g>
   <g id="line2d_42">
    <defs>
     <path d="M -0 6 
L 6 -6 
L -6 -6 
z
" id="m1fa1789519" style="stroke:#6495ed;stroke-linejoin:miter;stroke-width:1.5;"/>
    </defs>
    <g>
     <use style="fill-opacity:0;stroke:#6495ed;stroke-linejoin:miter;stroke-width:1.5;" x="143.914893" xlink:href="#m1fa1789519" y="271.288853"/>
     <use style="fill-opacity:0;stroke:#6495ed;stroke-linejoin:miter;stroke-width:1.5;" x="182.891298" xlink:href="#m1fa1789519" y="155.954354"/>
     <use style="fill-opacity:0;stroke:#6495ed;stroke-linejoin:miter;stroke-width:1.5;" x="196.784043" xlink:href="#m1fa1789519" y="28.562159"/>
     <use style="fill-opacity:0;stroke:#6495ed;stroke-linejoin:miter;stroke-width:1.5;" x="196.784043" xlink:href="#m1fa1789519" y="27.513663"/>
     <use style="fill-opacity:0;stroke:#6495ed;stroke-linejoin:miter;stroke-width:1.5;" x="333.429677" xlink:href="#m1fa1789519" y="27.513663"/>
    </g>
   </g>
   <g id="line2d_43">
    <path style="fill:none;stroke:#6495ed;stroke-linecap:square;stroke-width:1.5;"/>
    <g/>
   </g>
   <g id="line2d_44">
    <defs>
     <path d="M 0 1.5 
C 0.397805 1.5 0.77937 1.341951 1.06066 1.06066 
C 1.341951 0.77937 1.5 0.397805 1.5 0 
C 1.5 -0.397805 1.341951 -0.77937 1.06066 -1.06066 
C 0.77937 -1.341951 0.397805 -1.5 0 -1.5 
C -0.397805 -1.5 -0.77937 -1.341951 -1.06066 -1.06066 
C -1.341951 -0.77937 -1.5 -0.397805 -1.5 0 
C -1.5 0.397805 -1.341951 0.77937 -1.06066 1.06066 
C -0.77937 1.341951 -0.397805 1.5 0 1.5 
z
" id="m05c55d6506" style="stroke:#ff0000;"/>
    </defs>
    <g>
     <use style="fill:#ff0000;stroke:#ff0000;" x="143.75729" xlink:href="#m05c55d6506" y="27.513663"/>
     <use style="fill:#ff0000;stroke:#ff0000;" x="143.75729" xlink:href="#m05c55d6506" y="27.513663"/>
    </g>
   </g>
   <g id="line2d_45">
    <path d="M 96.575096 294.88 
L 96.575096 292.783009 
L 97.375467 292.783009 
L 97.375467 291.734514 
L 99.574823 291.734514 
L 99.574823 288.589027 
L 100.898928 288.589027 
L 100.898928 287.016284 
L 101.524628 287.016284 
L 101.524628 285.967789 
L 102.128369 285.967789 
L 102.128369 282.822302 
L 102.711641 282.822302 
L 102.711641 273.910091 
L 103.275786 273.910091 
L 103.275786 272.861596 
L 103.822018 272.861596 
L 103.822018 267.094871 
L 104.865056 267.094871 
L 104.865056 264.473632 
L 105.848459 264.473632 
L 105.848459 261.852394 
L 106.319855 261.852394 
L 106.319855 259.231155 
L 106.778678 259.231155 
L 106.778678 254.512926 
L 107.661173 254.512926 
L 107.661173 248.746201 
L 108.086006 248.746201 
L 108.086006 245.600714 
L 108.90544 245.600714 
L 108.90544 243.503724 
L 109.300972 243.503724 
L 109.300972 241.406733 
L 109.687614 241.406733 
L 109.687614 238.261246 
L 110.065758 238.261246 
L 110.065758 237.212751 
L 110.43577 237.212751 
L 110.43577 236.688503 
L 110.797991 236.688503 
L 110.797991 234.067265 
L 111.500328 234.067265 
L 111.500328 233.543017 
L 112.502836 233.543017 
L 112.502836 232.494521 
L 112.824432 232.494521 
L 112.824432 231.970274 
L 113.140126 231.970274 
L 113.140126 231.446026 
L 113.450132 231.446026 
L 113.450132 225.679301 
L 114.053874 225.679301 
L 114.053874 224.630806 
L 116.276944 224.630806 
L 116.276944 222.533815 
L 118.245359 222.533815 
L 118.245359 221.485319 
L 119.586677 221.485319 
L 119.586677 219.388328 
L 120.830944 219.388328 
L 120.830944 215.718594 
L 121.991263 215.718594 
L 121.991263 215.194347 
L 122.177263 215.194347 
L 122.177263 214.670099 
L 123.425832 214.670099 
L 123.425832 209.95187 
L 127.126794 209.95187 
L 127.126794 208.903374 
L 127.402078 208.903374 
L 127.402078 208.379126 
L 128.071613 208.379126 
L 128.071613 206.806383 
L 128.202449 206.806383 
L 128.202449 205.757888 
L 128.461173 205.757888 
L 128.461173 204.185145 
L 128.589091 204.185145 
L 128.589091 202.612401 
L 128.716065 202.612401 
L 128.716065 202.088154 
L 128.842109 202.088154 
L 128.842109 200.515411 
L 128.967235 200.515411 
L 128.967235 198.942667 
L 129.214792 198.942667 
L 129.214792 198.41842 
L 129.458837 198.41842 
L 129.458837 197.894172 
L 129.579573 197.894172 
L 129.579573 197.369924 
L 129.699468 197.369924 
L 129.699468 196.845677 
L 129.93678 196.845677 
L 129.93678 194.748686 
L 130.05422 194.748686 
L 130.05422 194.224438 
L 130.170864 194.224438 
L 130.170864 188.981961 
L 130.401805 188.981961 
L 130.401805 188.457713 
L 130.629687 188.457713 
L 130.629687 186.88497 
L 130.742506 186.88497 
L 130.742506 181.642493 
L 130.854591 181.642493 
L 130.854591 176.924263 
L 130.965949 176.924263 
L 131.076592 170.633291 
L 131.186528 170.633291 
L 131.295765 169.584795 
L 131.404314 169.584795 
L 131.512181 166.963557 
L 131.725909 166.963557 
L 131.831786 162.769575 
L 131.937015 162.769575 
L 131.937015 160.672584 
L 132.248894 160.672584 
L 132.35161 156.478602 
L 132.453716 156.478602 
L 132.55522 148.090639 
L 132.756449 148.090639 
L 132.856187 140.751171 
L 133.053947 140.751171 
L 133.15198 137.081437 
L 133.249459 137.081437 
L 133.346388 135.508693 
L 133.442774 135.508693 
L 133.538623 132.887455 
L 133.633941 132.887455 
L 133.728734 131.314712 
L 133.916767 131.314712 
L 134.010019 127.644978 
L 134.195019 127.644978 
L 134.195019 125.023739 
L 134.378051 125.023739 
L 134.468842 123.450996 
L 134.559157 123.450996 
L 134.648999 120.30551 
L 134.738376 120.30551 
L 134.82729 118.208519 
L 134.915747 118.208519 
L 135.003752 116.635776 
L 135.091308 116.635776 
L 135.178422 112.966042 
L 135.265096 112.966042 
L 135.351336 109.820555 
L 135.437146 109.820555 
L 135.437146 108.77206 
L 135.607493 108.77206 
L 135.692038 98.811353 
L 135.776169 98.811353 
L 135.859892 91.996133 
L 136.190765 91.996133 
L 136.272498 88.850646 
L 136.353845 88.850646 
L 136.353845 86.229408 
L 136.675441 86.229408 
L 136.754909 82.559674 
L 136.834012 82.559674 
L 136.912753 81.511178 
L 136.991135 81.511178 
L 136.991135 78.365692 
L 137.146836 78.365692 
L 137.224162 75.220206 
L 137.301141 75.220206 
L 137.377778 73.647463 
L 137.454074 73.647463 
L 137.454074 68.929233 
L 137.755922 68.929233 
L 137.830564 65.259499 
L 137.904883 65.259499 
L 137.978882 52.677554 
L 138.052565 52.677554 
L 138.052565 52.153306 
L 138.19899 52.153306 
L 138.271738 47.959324 
L 138.416318 47.959324 
L 138.488154 46.386581 
L 138.701882 46.386581 
L 138.772539 44.813838 
L 138.842906 44.813838 
L 138.842906 44.28959 
L 139.052299 44.28959 
L 139.052299 43.241095 
L 139.259174 43.241095 
L 139.259174 42.716847 
L 139.395721 42.716847 
L 139.395721 41.668352 
L 140.322361 41.668352 
L 140.322361 40.619856 
L 140.514596 40.619856 
L 140.514596 40.095609 
L 140.767613 40.095609 
L 140.83029 38.522865 
L 141.07874 38.522865 
L 141.140296 34.853131 
L 141.444815 34.853131 
L 141.505077 31.707645 
L 141.624972 31.707645 
L 141.624972 30.65915 
L 143.166738 30.65915 
L 143.166738 29.610654 
L 143.437686 29.610654 
L 143.491367 28.562159 
L 143.75729 28.562159 
L 143.75729 27.513663 
L 333.429677 27.513663 
L 333.429677 27.513663 
" style="fill:none;stroke:#ff0000;stroke-linecap:square;stroke-width:1.5;"/>
   </g>
   <g id="line2d_46">
    <defs>
     <path d="M 0 -6 
L -5.196152 -3 
L -5.196152 3 
L -0 6 
L 5.196152 3 
L 5.196152 -3 
z
" id="m10c1601f8c" style="stroke:#ff0000;stroke-linejoin:miter;stroke-width:1.5;"/>
    </defs>
    <g>
     <use style="fill-opacity:0;stroke:#ff0000;stroke-linejoin:miter;stroke-width:1.5;" x="135.776169" xlink:href="#m10c1601f8c" y="95.141619"/>
     <use style="fill-opacity:0;stroke:#ff0000;stroke-linejoin:miter;stroke-width:1.5;" x="143.75729" xlink:href="#m10c1601f8c" y="28.562159"/>
     <use style="fill-opacity:0;stroke:#ff0000;stroke-linejoin:miter;stroke-width:1.5;" x="143.75729" xlink:href="#m10c1601f8c" y="27.513663"/>
     <use style="fill-opacity:0;stroke:#ff0000;stroke-linejoin:miter;stroke-width:1.5;" x="143.75729" xlink:href="#m10c1601f8c" y="27.513663"/>
     <use style="fill-opacity:0;stroke:#ff0000;stroke-linejoin:miter;stroke-width:1.5;" x="333.429677" xlink:href="#m10c1601f8c" y="27.513663"/>
    </g>
   </g>
   <g id="line2d_47">
    <path style="fill:none;stroke:#ff0000;stroke-linecap:square;stroke-width:1.5;"/>
    <g/>
   </g>
   <g id="line2d_48">
    <path clip-path="url(#p1a45b89852)" d="M 56.12 294.88 
L 56.12 294.88 
L 56.12 294.88 
L 56.12 294.88 
L 399.984 294.88 
" style="fill:none;stroke:#9acd32;stroke-linecap:square;stroke-width:1.5;"/>
   </g>
   <g id="line2d_49">
    <defs>
     <path d="M 0 -6 
L -6 6 
L 6 6 
z
" id="me3ba8b524d" style="stroke:#9acd32;stroke-linejoin:miter;stroke-width:1.5;"/>
    </defs>
    <g clip-path="url(#p1a45b89852)">
     <use style="fill-opacity:0;stroke:#9acd32;stroke-linejoin:miter;stroke-width:1.5;" x="56.12" xlink:href="#me3ba8b524d" y="294.88"/>
    </g>
   </g>
   <g id="line2d_50">
    <path clip-path="url(#p1a45b89852)" style="fill:none;stroke:#9acd32;stroke-linecap:square;stroke-width:1.5;"/>
    <g clip-path="url(#p1a45b89852)">
     <use style="fill-opacity:0;stroke:#9acd32;stroke-linejoin:miter;stroke-width:1.5;" x="-1" xlink:href="#me3ba8b524d" y="562.246337"/>
     <use style="fill-opacity:0;stroke:#9acd32;stroke-linejoin:miter;stroke-width:1.5;" x="399.984" xlink:href="#me3ba8b524d" y="562.246337"/>
    </g>
   </g>
   <g id="line2d_51">
    <path d="M 333.429677 294.88 
L 363.933742 289.532673 
" style="fill:none;stroke:#9acd32;stroke-linecap:square;stroke-width:1.5;"/>
    <g>
     <use style="fill-opacity:0;stroke:#9acd32;stroke-linejoin:miter;stroke-width:1.5;" x="333.429677" xlink:href="#me3ba8b524d" y="294.88"/>
     <use style="fill-opacity:0;stroke:#9acd32;stroke-linejoin:miter;stroke-width:1.5;" x="363.933742" xlink:href="#me3ba8b524d" y="289.532673"/>
    </g>
   </g>
   <g id="line2d_52">
    <path d="M 333.429677 27.513663 
L 363.933742 246.754059 
" style="fill:none;stroke:#ffa500;stroke-linecap:square;stroke-width:1.5;"/>
    <g>
     <use style="fill-opacity:0;stroke:#ffa500;stroke-linejoin:bevel;stroke-width:1.5;" x="333.429677" xlink:href="#m5d24c43e77" y="27.513663"/>
     <use style="fill-opacity:0;stroke:#ffa500;stroke-linejoin:bevel;stroke-width:1.5;" x="363.933742" xlink:href="#m5d24c43e77" y="246.754059"/>
    </g>
   </g>
   <g id="line2d_53">
    <path d="M 333.429677 27.513663 
L 363.933742 203.975446 
" style="fill:none;stroke:#000080;stroke-linecap:square;stroke-width:1.5;"/>
    <g>
     <use style="fill-opacity:0;stroke:#000080;stroke-width:1.5;" x="333.429677" xlink:href="#mcce6142a70" y="27.513663"/>
     <use style="fill-opacity:0;stroke:#000080;stroke-width:1.5;" x="363.933742" xlink:href="#mcce6142a70" y="203.975446"/>
    </g>
   </g>
   <g id="line2d_54">
    <path d="M 333.429677 27.513663 
L 363.933742 161.196832 
" style="fill:none;stroke:#6495ed;stroke-linecap:square;stroke-width:1.5;"/>
    <g>
     <use style="fill-opacity:0;stroke:#6495ed;stroke-linejoin:miter;stroke-width:1.5;" x="333.429677" xlink:href="#m1fa1789519" y="27.513663"/>
     <use style="fill-opacity:0;stroke:#6495ed;stroke-linejoin:miter;stroke-width:1.5;" x="363.933742" xlink:href="#m1fa1789519" y="161.196832"/>
    </g>
   </g>
   <g id="line2d_55">
    <path d="M 333.429677 27.513663 
L 363.933742 118.418218 
" style="fill:none;stroke:#ff00ff;stroke-linecap:square;stroke-width:1.5;"/>
    <g>
     <use style="fill-opacity:0;stroke:#ff00ff;stroke-linejoin:miter;stroke-width:1.5;" x="333.429677" xlink:href="#m8733686d3b" y="27.513663"/>
     <use style="fill-opacity:0;stroke:#ff00ff;stroke-linejoin:miter;stroke-width:1.5;" x="363.933742" xlink:href="#m8733686d3b" y="118.418218"/>
    </g>
   </g>
   <g id="line2d_56">
    <path d="M 333.429677 27.513663 
L 363.933742 75.639604 
" style="fill:none;stroke:#ff0000;stroke-linecap:square;stroke-width:1.5;"/>
    <g>
     <use style="fill-opacity:0;stroke:#ff0000;stroke-linejoin:miter;stroke-width:1.5;" x="333.429677" xlink:href="#m10c1601f8c" y="27.513663"/>
     <use style="fill-opacity:0;stroke:#ff0000;stroke-linejoin:miter;stroke-width:1.5;" x="363.933742" xlink:href="#m10c1601f8c" y="75.639604"/>
    </g>
   </g>
   <g id="line2d_57">
    <path d="M 333.429677 294.88 
L 333.429677 27.513663 
" style="fill:none;stroke:#000000;stroke-linecap:square;stroke-width:1.5;"/>
   </g>
   <g id="patch_3">
    <path d="M 56.12 294.88 
L 56.12 24.84 
" style="fill:none;stroke:#000000;stroke-linecap:square;stroke-linejoin:miter;stroke-width:0.8;"/>
   </g>
   <g id="patch_4">
    <path d="M 399.984 294.88 
L 399.984 24.84 
" style="fill:none;stroke:#000000;stroke-linecap:square;stroke-linejoin:miter;stroke-width:0.8;"/>
   </g>
   <g id="patch_5">
    <path d="M 56.12 294.88 
L 399.984 294.88 
" style="fill:none;stroke:#000000;stroke-linecap:square;stroke-linejoin:miter;stroke-width:0.8;"/>
   </g>
   <g id="patch_6">
    <path d="M 56.12 24.84 
L 399.984 24.84 
" style="fill:none;stroke:#000000;stroke-linecap:square;stroke-linejoin:miter;stroke-width:0.8;"/>
   </g>
   <g id="text_14">
    <!-- gsa outpu -->
    <g transform="translate(369.479935 294.223611)scale(0.17 -0.17)">
     <use xlink:href="#DejaVuSans-67"/>
     <use x="63.476562" xlink:href="#DejaVuSans-73"/>
     <use x="115.576172" xlink:href="#DejaVuSans-61"/>
     <use x="176.855469" xlink:href="#DejaVuSans-20"/>
     <use x="208.642578" xlink:href="#DejaVuSans-6f"/>
     <use x="269.824219" xlink:href="#DejaVuSans-75"/>
     <use x="333.203125" xlink:href="#DejaVuSans-74"/>
     <use x="372.412109" xlink:href="#DejaVuSans-70"/>
     <use x="435.888672" xlink:href="#DejaVuSans-75"/>
    </g>
   </g>
   <g id="text_15">
    <!-- GA -->
    <defs>
     <path d="M 59.515625 10.40625 
L 59.515625 29.984375 
L 43.40625 29.984375 
L 43.40625 38.09375 
L 69.28125 38.09375 
L 69.28125 6.78125 
Q 63.578125 2.734375 56.6875 0.65625 
Q 49.8125 -1.421875 42 -1.421875 
Q 24.90625 -1.421875 15.25 8.5625 
Q 5.609375 18.5625 5.609375 36.375 
Q 5.609375 54.25 15.25 64.234375 
Q 24.90625 74.21875 42 74.21875 
Q 49.125 74.21875 55.546875 72.453125 
Q 61.96875 70.703125 67.390625 67.28125 
L 67.390625 56.78125 
Q 61.921875 61.421875 55.765625 63.765625 
Q 49.609375 66.109375 42.828125 66.109375 
Q 29.4375 66.109375 22.71875 58.640625 
Q 16.015625 51.171875 16.015625 36.375 
Q 16.015625 21.625 22.71875 14.15625 
Q 29.4375 6.6875 42.828125 6.6875 
Q 48.046875 6.6875 52.140625 7.59375 
Q 56.25 8.5 59.515625 10.40625 
z
" id="DejaVuSans-47"/>
     <path d="M 34.1875 63.1875 
L 20.796875 26.90625 
L 47.609375 26.90625 
z
M 28.609375 72.90625 
L 39.796875 72.90625 
L 67.578125 0 
L 57.328125 0 
L 50.6875 18.703125 
L 17.828125 18.703125 
L 11.1875 0 
L 0.78125 0 
z
" id="DejaVuSans-41"/>
    </defs>
    <g transform="translate(369.479935 251.444997)scale(0.17 -0.17)">
     <use xlink:href="#DejaVuSans-47"/>
     <use x="77.490234" xlink:href="#DejaVuSans-41"/>
    </g>
   </g>
   <g id="text_16">
    <!-- ALPS -->
    <defs>
     <path d="M 9.8125 72.90625 
L 19.671875 72.90625 
L 19.671875 8.296875 
L 55.171875 8.296875 
L 55.171875 0 
L 9.8125 0 
z
" id="DejaVuSans-4c"/>
     <path d="M 19.671875 64.796875 
L 19.671875 37.40625 
L 32.078125 37.40625 
Q 38.96875 37.40625 42.71875 40.96875 
Q 46.484375 44.53125 46.484375 51.125 
Q 46.484375 57.671875 42.71875 61.234375 
Q 38.96875 64.796875 32.078125 64.796875 
z
M 9.8125 72.90625 
L 32.078125 72.90625 
Q 44.34375 72.90625 50.609375 67.359375 
Q 56.890625 61.8125 56.890625 51.125 
Q 56.890625 40.328125 50.609375 34.8125 
Q 44.34375 29.296875 32.078125 29.296875 
L 19.671875 29.296875 
L 19.671875 0 
L 9.8125 0 
z
" id="DejaVuSans-50"/>
     <path d="M 53.515625 70.515625 
L 53.515625 60.890625 
Q 47.90625 63.578125 42.921875 64.890625 
Q 37.9375 66.21875 33.296875 66.21875 
Q 25.25 66.21875 20.875 63.09375 
Q 16.5 59.96875 16.5 54.203125 
Q 16.5 49.359375 19.40625 46.890625 
Q 22.3125 44.4375 30.421875 42.921875 
L 36.375 41.703125 
Q 47.40625 39.59375 52.65625 34.296875 
Q 57.90625 29 57.90625 20.125 
Q 57.90625 9.515625 50.796875 4.046875 
Q 43.703125 -1.421875 29.984375 -1.421875 
Q 24.8125 -1.421875 18.96875 -0.25 
Q 13.140625 0.921875 6.890625 3.21875 
L 6.890625 13.375 
Q 12.890625 10.015625 18.65625 8.296875 
Q 24.421875 6.59375 29.984375 6.59375 
Q 38.421875 6.59375 43.015625 9.90625 
Q 47.609375 13.234375 47.609375 19.390625 
Q 47.609375 24.75 44.3125 27.78125 
Q 41.015625 30.8125 33.5 32.328125 
L 27.484375 33.5 
Q 16.453125 35.6875 11.515625 40.375 
Q 6.59375 45.0625 6.59375 53.421875 
Q 6.59375 63.09375 13.40625 68.65625 
Q 20.21875 74.21875 32.171875 74.21875 
Q 37.3125 74.21875 42.625 73.28125 
Q 47.953125 72.359375 53.515625 70.515625 
z
" id="DejaVuSans-53"/>
    </defs>
    <g transform="translate(369.479935 208.666383)scale(0.17 -0.17)">
     <use xlink:href="#DejaVuSans-41"/>
     <use x="68.408203" xlink:href="#DejaVuSans-4c"/>
     <use x="124.121094" xlink:href="#DejaVuSans-50"/>
     <use x="184.423828" xlink:href="#DejaVuSans-53"/>
    </g>
   </g>
   <g id="text_17">
    <!-- PSO -->
    <defs>
     <path d="M 39.40625 66.21875 
Q 28.65625 66.21875 22.328125 58.203125 
Q 16.015625 50.203125 16.015625 36.375 
Q 16.015625 22.609375 22.328125 14.59375 
Q 28.65625 6.59375 39.40625 6.59375 
Q 50.140625 6.59375 56.421875 14.59375 
Q 62.703125 22.609375 62.703125 36.375 
Q 62.703125 50.203125 56.421875 58.203125 
Q 50.140625 66.21875 39.40625 66.21875 
z
M 39.40625 74.21875 
Q 54.734375 74.21875 63.90625 63.9375 
Q 73.09375 53.65625 73.09375 36.375 
Q 73.09375 19.140625 63.90625 8.859375 
Q 54.734375 -1.421875 39.40625 -1.421875 
Q 24.03125 -1.421875 14.8125 8.828125 
Q 5.609375 19.09375 5.609375 36.375 
Q 5.609375 53.65625 14.8125 63.9375 
Q 24.03125 74.21875 39.40625 74.21875 
z
" id="DejaVuSans-4f"/>
    </defs>
    <g transform="translate(369.479935 165.887769)scale(0.17 -0.17)">
     <use xlink:href="#DejaVuSans-50"/>
     <use x="60.302734" xlink:href="#DejaVuSans-53"/>
     <use x="123.779297" xlink:href="#DejaVuSans-4f"/>
    </g>
   </g>
   <g id="text_18">
    <!-- DASA -->
    <defs>
     <path d="M 19.671875 64.796875 
L 19.671875 8.109375 
L 31.59375 8.109375 
Q 46.6875 8.109375 53.6875 14.9375 
Q 60.6875 21.78125 60.6875 36.53125 
Q 60.6875 51.171875 53.6875 57.984375 
Q 46.6875 64.796875 31.59375 64.796875 
z
M 9.8125 72.90625 
L 30.078125 72.90625 
Q 51.265625 72.90625 61.171875 64.09375 
Q 71.09375 55.28125 71.09375 36.53125 
Q 71.09375 17.671875 61.125 8.828125 
Q 51.171875 0 30.078125 0 
L 9.8125 0 
z
" id="DejaVuSans-44"/>
    </defs>
    <g transform="translate(369.479935 123.109155)scale(0.17 -0.17)">
     <use xlink:href="#DejaVuSans-44"/>
     <use x="76.986328" xlink:href="#DejaVuSans-41"/>
     <use x="145.394531" xlink:href="#DejaVuSans-53"/>
     <use x="208.886719" xlink:href="#DejaVuSans-41"/>
    </g>
   </g>
   <g id="text_19">
    <!-- Rosenbroc -->
    <defs>
     <path d="M 44.390625 34.1875 
Q 47.5625 33.109375 50.5625 29.59375 
Q 53.5625 26.078125 56.59375 19.921875 
L 66.609375 0 
L 56 0 
L 46.6875 18.703125 
Q 43.0625 26.03125 39.671875 28.421875 
Q 36.28125 30.8125 30.421875 30.8125 
L 19.671875 30.8125 
L 19.671875 0 
L 9.8125 0 
L 9.8125 72.90625 
L 32.078125 72.90625 
Q 44.578125 72.90625 50.734375 67.671875 
Q 56.890625 62.453125 56.890625 51.90625 
Q 56.890625 45.015625 53.6875 40.46875 
Q 50.484375 35.9375 44.390625 34.1875 
z
M 19.671875 64.796875 
L 19.671875 38.921875 
L 32.078125 38.921875 
Q 39.203125 38.921875 42.84375 42.21875 
Q 46.484375 45.515625 46.484375 51.90625 
Q 46.484375 58.296875 42.84375 61.546875 
Q 39.203125 64.796875 32.078125 64.796875 
z
" id="DejaVuSans-52"/>
     <path d="M 48.6875 27.296875 
Q 48.6875 37.203125 44.609375 42.84375 
Q 40.53125 48.484375 33.40625 48.484375 
Q 26.265625 48.484375 22.1875 42.84375 
Q 18.109375 37.203125 18.109375 27.296875 
Q 18.109375 17.390625 22.1875 11.75 
Q 26.265625 6.109375 33.40625 6.109375 
Q 40.53125 6.109375 44.609375 11.75 
Q 48.6875 17.390625 48.6875 27.296875 
z
M 18.109375 46.390625 
Q 20.953125 51.265625 25.265625 53.625 
Q 29.59375 56 35.59375 56 
Q 45.5625 56 51.78125 48.09375 
Q 58.015625 40.1875 58.015625 27.296875 
Q 58.015625 14.40625 51.78125 6.484375 
Q 45.5625 -1.421875 35.59375 -1.421875 
Q 29.59375 -1.421875 25.265625 0.953125 
Q 20.953125 3.328125 18.109375 8.203125 
L 18.109375 0 
L 9.078125 0 
L 9.078125 75.984375 
L 18.109375 75.984375 
z
" id="DejaVuSans-62"/>
    </defs>
    <g transform="translate(369.479935 80.330541)scale(0.17 -0.17)">
     <use xlink:href="#DejaVuSans-52"/>
     <use x="69.419922" xlink:href="#DejaVuSans-6f"/>
     <use x="130.601562" xlink:href="#DejaVuSans-73"/>
     <use x="182.701172" xlink:href="#DejaVuSans-65"/>
     <use x="244.224609" xlink:href="#DejaVuSans-6e"/>
     <use x="307.603516" xlink:href="#DejaVuSans-62"/>
     <use x="371.080078" xlink:href="#DejaVuSans-72"/>
     <use x="412.162109" xlink:href="#DejaVuSans-6f"/>
     <use x="473.34375" xlink:href="#DejaVuSans-63"/>
    </g>
   </g>
   <g id="text_20">
    <!-- best 2009 -->
    <defs>
     <path d="M 10.984375 1.515625 
L 10.984375 10.5 
Q 14.703125 8.734375 18.5 7.8125 
Q 22.3125 6.890625 25.984375 6.890625 
Q 35.75 6.890625 40.890625 13.453125 
Q 46.046875 20.015625 46.78125 33.40625 
Q 43.953125 29.203125 39.59375 26.953125 
Q 35.25 24.703125 29.984375 24.703125 
Q 19.046875 24.703125 12.671875 31.3125 
Q 6.296875 37.9375 6.296875 49.421875 
Q 6.296875 60.640625 12.9375 67.421875 
Q 19.578125 74.21875 30.609375 74.21875 
Q 43.265625 74.21875 49.921875 64.515625 
Q 56.59375 54.828125 56.59375 36.375 
Q 56.59375 19.140625 48.40625 8.859375 
Q 40.234375 -1.421875 26.421875 -1.421875 
Q 22.703125 -1.421875 18.890625 -0.6875 
Q 15.09375 0.046875 10.984375 1.515625 
z
M 30.609375 32.421875 
Q 37.25 32.421875 41.125 36.953125 
Q 45.015625 41.5 45.015625 49.421875 
Q 45.015625 57.28125 41.125 61.84375 
Q 37.25 66.40625 30.609375 66.40625 
Q 23.96875 66.40625 20.09375 61.84375 
Q 16.21875 57.28125 16.21875 49.421875 
Q 16.21875 41.5 20.09375 36.953125 
Q 23.96875 32.421875 30.609375 32.421875 
z
" id="DejaVuSans-39"/>
    </defs>
    <g transform="translate(369.479935 37.551928)scale(0.17 -0.17)">
     <use xlink:href="#DejaVuSans-62"/>
     <use x="63.476562" xlink:href="#DejaVuSans-65"/>
     <use x="125" xlink:href="#DejaVuSans-73"/>
     <use x="177.099609" xlink:href="#DejaVuSans-74"/>
     <use x="216.308594" xlink:href="#DejaVuSans-20"/>
     <use x="248.095703" xlink:href="#DejaVuSans-32"/>
     <use x="311.71875" xlink:href="#DejaVuSans-30"/>
     <use x="375.341797" xlink:href="#DejaVuSans-30"/>
     <use x="438.964844" xlink:href="#DejaVuSans-39"/>
    </g>
   </g>
   <g id="text_21">
    <!-- bbob f2, 2-D -->
    <g transform="translate(59.55864 35.290806)scale(0.102 -0.102)">
     <use xlink:href="#DejaVuSans-62"/>
     <use x="63.476562" xlink:href="#DejaVuSans-62"/>
     <use x="126.953125" xlink:href="#DejaVuSans-6f"/>
     <use x="188.134766" xlink:href="#DejaVuSans-62"/>
     <use x="251.611328" xlink:href="#DejaVuSans-20"/>
     <use x="283.398438" xlink:href="#DejaVuSans-66"/>
     <use x="318.603516" xlink:href="#DejaVuSans-32"/>
     <use x="382.226562" xlink:href="#DejaVuSans-2c"/>
     <use x="414.013672" xlink:href="#DejaVuSans-20"/>
     <use x="445.800781" xlink:href="#DejaVuSans-32"/>
     <use x="509.423828" xlink:href="#DejaVuSans-2d"/>
     <use x="545.507812" xlink:href="#DejaVuSans-44"/>
    </g>
    <!-- 51 targets: 100..1e-08 -->
    <defs>
     <path d="M 10.796875 72.90625 
L 49.515625 72.90625 
L 49.515625 64.59375 
L 19.828125 64.59375 
L 19.828125 46.734375 
Q 21.96875 47.46875 24.109375 47.828125 
Q 26.265625 48.1875 28.421875 48.1875 
Q 40.625 48.1875 47.75 41.5 
Q 54.890625 34.8125 54.890625 23.390625 
Q 54.890625 11.625 47.5625 5.09375 
Q 40.234375 -1.421875 26.90625 -1.421875 
Q 22.3125 -1.421875 17.546875 -0.640625 
Q 12.796875 0.140625 7.71875 1.703125 
L 7.71875 11.625 
Q 12.109375 9.234375 16.796875 8.0625 
Q 21.484375 6.890625 26.703125 6.890625 
Q 35.15625 6.890625 40.078125 11.328125 
Q 45.015625 15.765625 45.015625 23.390625 
Q 45.015625 31 40.078125 35.4375 
Q 35.15625 39.890625 26.703125 39.890625 
Q 22.75 39.890625 18.8125 39.015625 
Q 14.890625 38.140625 10.796875 36.28125 
z
" id="DejaVuSans-35"/>
     <path d="M 11.71875 12.40625 
L 22.015625 12.40625 
L 22.015625 0 
L 11.71875 0 
z
M 11.71875 51.703125 
L 22.015625 51.703125 
L 22.015625 39.3125 
L 11.71875 39.3125 
z
" id="DejaVuSans-3a"/>
    </defs>
    <g transform="translate(59.55864 46.712575)scale(0.102 -0.102)">
     <use xlink:href="#DejaVuSans-35"/>
     <use x="63.623047" xlink:href="#DejaVuSans-31"/>
     <use x="127.246094" xlink:href="#DejaVuSans-20"/>
     <use x="159.033203" xlink:href="#DejaVuSans-74"/>
     <use x="198.242188" xlink:href="#DejaVuSans-61"/>
     <use x="259.521484" xlink:href="#DejaVuSans-72"/>
     <use x="300.619141" xlink:href="#DejaVuSans-67"/>
     <use x="364.095703" xlink:href="#DejaVuSans-65"/>
     <use x="425.619141" xlink:href="#DejaVuSans-74"/>
     <use x="464.828125" xlink:href="#DejaVuSans-73"/>
     <use x="516.927734" xlink:href="#DejaVuSans-3a"/>
     <use x="550.619141" xlink:href="#DejaVuSans-20"/>
     <use x="582.40625" xlink:href="#DejaVuSans-31"/>
     <use x="646.029297" xlink:href="#DejaVuSans-30"/>
     <use x="709.652344" xlink:href="#DejaVuSans-30"/>
     <use x="773.275391" xlink:href="#DejaVuSans-2e"/>
     <use x="805.0625" xlink:href="#DejaVuSans-2e"/>
     <use x="836.849609" xlink:href="#DejaVuSans-31"/>
     <use x="900.472656" xlink:href="#DejaVuSans-65"/>
     <use x="961.996094" xlink:href="#DejaVuSans-2d"/>
     <use x="998.080078" xlink:href="#DejaVuSans-30"/>
     <use x="1061.703125" xlink:href="#DejaVuSans-38"/>
    </g>
    <!-- 15 instances -->
    <g transform="translate(59.55864 58.134344)scale(0.102 -0.102)">
     <use xlink:href="#DejaVuSans-31"/>
     <use x="63.623047" xlink:href="#DejaVuSans-35"/>
     <use x="127.246094" xlink:href="#DejaVuSans-20"/>
     <use x="159.033203" xlink:href="#DejaVuSans-69"/>
     <use x="186.816406" xlink:href="#DejaVuSans-6e"/>
     <use x="250.195312" xlink:href="#DejaVuSans-73"/>
     <use x="302.294922" xlink:href="#DejaVuSans-74"/>
     <use x="341.503906" xlink:href="#DejaVuSans-61"/>
     <use x="402.783203" xlink:href="#DejaVuSans-6e"/>
     <use x="466.162109" xlink:href="#DejaVuSans-63"/>
     <use x="521.142578" xlink:href="#DejaVuSans-65"/>
     <use x="582.666016" xlink:href="#DejaVuSans-73"/>
    </g>
   </g>
   <g id="text_22">
    <!-- v-coco-version -->
    <g style="fill:#808080;" transform="translate(191.556688 290.099912)scale(0.1 -0.1)">
     <use xlink:href="#DejaVuSans-76"/>
     <use x="59.148438" xlink:href="#DejaVuSans-2d"/>
     <use x="95.232422" xlink:href="#DejaVuSans-63"/>
     <use x="150.212891" xlink:href="#DejaVuSans-6f"/>
     <use x="211.394531" xlink:href="#DejaVuSans-63"/>
     <use x="266.375" xlink:href="#DejaVuSans-6f"/>
     <use x="327.572266" xlink:href="#DejaVuSans-2d"/>
     <use x="363.625" xlink:href="#DejaVuSans-76"/>
     <use x="422.804688" xlink:href="#DejaVuSans-65"/>
     <use x="484.328125" xlink:href="#DejaVuSans-72"/>
     <use x="525.441406" xlink:href="#DejaVuSans-73"/>
     <use x="577.541016" xlink:href="#DejaVuSans-69"/>
     <use x="605.324219" xlink:href="#DejaVuSans-6f"/>
     <use x="666.505859" xlink:href="#DejaVuSans-6e"/>
    </g>
   </g>
   <g id="text_23">
    <!-- 2 Ellipsoid separable -->
    <defs>
     <path d="M 9.8125 72.90625 
L 55.90625 72.90625 
L 55.90625 64.59375 
L 19.671875 64.59375 
L 19.671875 43.015625 
L 54.390625 43.015625 
L 54.390625 34.71875 
L 19.671875 34.71875 
L 19.671875 8.296875 
L 56.78125 8.296875 
L 56.78125 0 
L 9.8125 0 
z
" id="DejaVuSans-45"/>
    </defs>
    <g transform="translate(124.519188 18.84)scale(0.2 -0.2)">
     <use xlink:href="#DejaVuSans-32"/>
     <use x="63.623047" xlink:href="#DejaVuSans-20"/>
     <use x="95.410156" xlink:href="#DejaVuSans-45"/>
     <use x="158.59375" xlink:href="#DejaVuSans-6c"/>
     <use x="186.376953" xlink:href="#DejaVuSans-6c"/>
     <use x="214.160156" xlink:href="#DejaVuSans-69"/>
     <use x="241.943359" xlink:href="#DejaVuSans-70"/>
     <use x="305.419922" xlink:href="#DejaVuSans-73"/>
     <use x="357.519531" xlink:href="#DejaVuSans-6f"/>
     <use x="418.701172" xlink:href="#DejaVuSans-69"/>
     <use x="446.484375" xlink:href="#DejaVuSans-64"/>
     <use x="509.960938" xlink:href="#DejaVuSans-20"/>
     <use x="541.748047" xlink:href="#DejaVuSans-73"/>
     <use x="593.847656" xlink:href="#DejaVuSans-65"/>
     <use x="655.371094" xlink:href="#DejaVuSans-70"/>
     <use x="718.847656" xlink:href="#DejaVuSans-61"/>
     <use x="780.126953" xlink:href="#DejaVuSans-72"/>
     <use x="821.240234" xlink:href="#DejaVuSans-61"/>
     <use x="882.519531" xlink:href="#DejaVuSans-62"/>
     <use x="945.996094" xlink:href="#DejaVuSans-6c"/>
     <use x="973.779297" xlink:href="#DejaVuSans-65"/>
    </g>
   </g>
  </g>
 </g>
 <defs>
  <clipPath id="p1a45b89852">
   <rect height="270.04" width="343.864" x="56.12" y="24.84"/>
  </clipPath>
 </defs>
</svg>
