<?xml version="1.0" encoding="utf-8" standalone="no"?>
<!DOCTYPE svg PUBLIC "-//W3C//DTD SVG 1.1//EN"
  "http://www.w3.org/Graphics/SVG/1.1/DTD/svg11.dtd">
<!-- Created with matplotlib (http://matplotlib.org/) -->
<svg height="345.6pt" version="1.1" viewBox="0 0 460.8 345.6" width="460.8pt" xmlns="http://www.w3.org/2000/svg" xmlns:xlink="http://www.w3.org/1999/xlink">
 <defs>
  <style type="text/css">
*{stroke-linecap:butt;stroke-linejoin:round;}
  </style>
 </defs>
 <g id="figure_1">
  <g id="patch_1">
   <path d="M 0 345.6 
L 460.8 345.6 
L 460.8 0 
L 0 0 
z
" style="fill:#ffffff;"/>
  </g>
  <g id="axes_1">
   <g id="patch_2">
    <path d="M 56.12 294.88 
L 399.984 294.88 
L 399.984 24.84 
L 56.12 24.84 
z
" style="fill:#ffffff;"/>
   </g>
   <g id="line2d_1">
    <path d="M 95.300079 294.88 
L 95.300079 289.637523 
L 96.939878 289.637523 
L 96.939878 284.395046 
L 99.436631 284.395046 
L 99.436631 279.152568 
L 108.294552 279.152568 
L 108.294552 273.910091 
L 109.610977 273.910091 
L 109.610977 268.667614 
L 123.673511 268.667614 
L 123.673511 263.425137 
L 132.540033 263.425137 
L 132.540033 258.18266 
L 136.955907 258.18266 
L 136.955907 252.940182 
L 140.441159 252.940182 
L 140.441159 247.697705 
L 143.057152 247.697705 
L 143.057152 242.455228 
L 144.771744 242.455228 
L 144.771744 237.212751 
L 145.564197 237.212751 
L 145.564197 231.970274 
L 146.369427 231.970274 
L 146.369427 226.727797 
L 147.138648 226.727797 
L 147.138648 221.485319 
L 147.943354 221.485319 
L 147.943354 216.242842 
L 148.787117 216.242842 
L 148.787117 211.000365 
L 149.683296 211.000365 
L 149.683296 205.757888 
L 150.69628 205.757888 
L 150.69628 200.515411 
L 151.747717 200.515411 
L 151.747717 195.272933 
L 152.878915 195.272933 
L 152.878915 190.030456 
L 154.052361 190.030456 
L 154.052361 184.787979 
L 155.309341 184.787979 
L 155.309341 179.545502 
L 182.54399 179.545502 
L 182.54399 174.303025 
L 183.568172 174.303025 
L 183.568172 169.060547 
L 184.513078 169.060547 
L 184.513078 163.81807 
L 185.064495 163.81807 
L 185.064495 158.575593 
L 185.518145 158.575593 
L 185.518145 153.333116 
L 186.017257 153.333116 
L 186.017257 148.090639 
L 186.523624 148.090639 
L 186.523624 142.848162 
L 187.142944 142.848162 
L 187.142944 137.605684 
L 187.711853 137.605684 
L 187.711853 132.363207 
L 188.453926 132.363207 
L 188.453926 127.12073 
L 189.029281 127.12073 
L 189.029281 121.878253 
L 189.658684 121.878253 
L 189.658684 116.635776 
L 190.060125 116.635776 
L 190.060125 111.393298 
L 190.465871 111.393298 
L 190.465871 106.150821 
L 190.853899 106.150821 
L 190.853899 100.908344 
L 191.205942 100.908344 
L 191.205942 95.665867 
L 191.550106 95.665867 
L 191.550106 90.42339 
L 191.856444 90.42339 
L 191.856444 85.180912 
L 192.182268 85.180912 
L 192.182268 79.938435 
L 192.45774 79.938435 
L 192.45774 74.695958 
L 192.760246 74.695958 
L 192.760246 69.453481 
L 193.075251 69.453481 
L 193.075251 64.211004 
L 193.405961 64.211004 
L 193.405961 58.968526 
L 193.782962 58.968526 
L 193.782962 53.726049 
L 194.092402 53.726049 
L 194.092402 48.483572 
L 194.429851 48.483572 
L 194.429851 43.241095 
L 194.820194 43.241095 
L 194.820194 37.998618 
L 195.119416 37.998618 
L 195.119416 32.756141 
L 195.435266 32.756141 
L 195.435266 27.513663 
L 333.429677 27.513663 
" style="fill:none;stroke:#f5deb3;stroke-linecap:square;stroke-width:6;"/>
   </g>
   <g id="line2d_2">
    <defs>
     <path d="M -0 7.778175 
L 7.778175 0 
L 0 -7.778175 
L -7.778175 -0 
z
" id="mecd8fcb9ce" style="stroke:#f5deb3;stroke-linejoin:miter;stroke-width:1.5;"/>
    </defs>
    <g>
     <use style="fill:#f5deb3;stroke:#f5deb3;stroke-linejoin:miter;stroke-width:1.5;" x="155.309341" xlink:href="#mecd8fcb9ce" y="179.545502"/>
     <use style="fill:#f5deb3;stroke:#f5deb3;stroke-linejoin:miter;stroke-width:1.5;" x="192.45774" xlink:href="#mecd8fcb9ce" y="74.695958"/>
     <use style="fill:#f5deb3;stroke:#f5deb3;stroke-linejoin:miter;stroke-width:1.5;" x="195.435266" xlink:href="#mecd8fcb9ce" y="27.513663"/>
     <use style="fill:#f5deb3;stroke:#f5deb3;stroke-linejoin:miter;stroke-width:1.5;" x="195.435266" xlink:href="#mecd8fcb9ce" y="27.513663"/>
     <use style="fill:#f5deb3;stroke:#f5deb3;stroke-linejoin:miter;stroke-width:1.5;" x="333.429677" xlink:href="#mecd8fcb9ce" y="27.513663"/>
    </g>
   </g>
   <g id="line2d_3">
    <path style="fill:none;stroke:#f5deb3;stroke-linecap:square;stroke-width:6;"/>
    <g/>
   </g>
   <g id="line2d_4">
    <path d="M 333.429677 27.513663 
L 363.933742 32.86099 
" style="fill:none;stroke:#f5deb3;stroke-linecap:square;stroke-width:6;"/>
    <g>
     <use style="fill:#f5deb3;stroke:#f5deb3;stroke-linejoin:miter;stroke-width:1.5;" x="333.429677" xlink:href="#mecd8fcb9ce" y="27.513663"/>
     <use style="fill:#f5deb3;stroke:#f5deb3;stroke-linejoin:miter;stroke-width:1.5;" x="363.933742" xlink:href="#mecd8fcb9ce" y="32.86099"/>
    </g>
   </g>
   <g id="matplotlib.axis_1">
    <g id="xtick_1">
     <g id="line2d_5">
      <path clip-path="url(#p03e7b17f66)" d="M 56.12 294.88 
L 56.12 24.84 
" style="fill:none;stroke:#b0b0b0;stroke-linecap:square;stroke-width:0.8;"/>
     </g>
     <g id="line2d_6">
      <defs>
       <path d="M 0 0 
L 0 3.5 
" id="m7a617f116f" style="stroke:#000000;stroke-width:0.8;"/>
      </defs>
      <g>
       <use style="stroke:#000000;stroke-width:0.8;" x="56.12" xlink:href="#m7a617f116f" y="294.88"/>
      </g>
     </g>
     <g id="text_1">
      <!-- 0 -->
      <defs>
       <path d="M 31.78125 66.40625 
Q 24.171875 66.40625 20.328125 58.90625 
Q 16.5 51.421875 16.5 36.375 
Q 16.5 21.390625 20.328125 13.890625 
Q 24.171875 6.390625 31.78125 6.390625 
Q 39.453125 6.390625 43.28125 13.890625 
Q 47.125 21.390625 47.125 36.375 
Q 47.125 51.421875 43.28125 58.90625 
Q 39.453125 66.40625 31.78125 66.40625 
z
M 31.78125 74.21875 
Q 44.046875 74.21875 50.515625 64.515625 
Q 56.984375 54.828125 56.984375 36.375 
Q 56.984375 17.96875 50.515625 8.265625 
Q 44.046875 -1.421875 31.78125 -1.421875 
Q 19.53125 -1.421875 13.0625 8.265625 
Q 6.59375 17.96875 6.59375 36.375 
Q 6.59375 54.828125 13.0625 64.515625 
Q 19.53125 74.21875 31.78125 74.21875 
z
" id="DejaVuSans-30"/>
      </defs>
      <g transform="translate(49.7575 317.076875)scale(0.2 -0.2)">
       <use xlink:href="#DejaVuSans-30"/>
      </g>
     </g>
    </g>
    <g id="xtick_2">
     <g id="line2d_7">
      <path clip-path="url(#p03e7b17f66)" d="M 135.351336 294.88 
L 135.351336 24.84 
" style="fill:none;stroke:#b0b0b0;stroke-linecap:square;stroke-width:0.8;"/>
     </g>
     <g id="line2d_8">
      <g>
       <use style="stroke:#000000;stroke-width:0.8;" x="135.351336" xlink:href="#m7a617f116f" y="294.88"/>
      </g>
     </g>
     <g id="text_2">
      <!-- 2 -->
      <defs>
       <path d="M 19.1875 8.296875 
L 53.609375 8.296875 
L 53.609375 0 
L 7.328125 0 
L 7.328125 8.296875 
Q 12.9375 14.109375 22.625 23.890625 
Q 32.328125 33.6875 34.8125 36.53125 
Q 39.546875 41.84375 41.421875 45.53125 
Q 43.3125 49.21875 43.3125 52.78125 
Q 43.3125 58.59375 39.234375 62.25 
Q 35.15625 65.921875 28.609375 65.921875 
Q 23.96875 65.921875 18.8125 64.3125 
Q 13.671875 62.703125 7.8125 59.421875 
L 7.8125 69.390625 
Q 13.765625 71.78125 18.9375 73 
Q 24.125 74.21875 28.421875 74.21875 
Q 39.75 74.21875 46.484375 68.546875 
Q 53.21875 62.890625 53.21875 53.421875 
Q 53.21875 48.921875 51.53125 44.890625 
Q 49.859375 40.875 45.40625 35.40625 
Q 44.1875 33.984375 37.640625 27.21875 
Q 31.109375 20.453125 19.1875 8.296875 
z
" id="DejaVuSans-32"/>
      </defs>
      <g transform="translate(128.988836 317.076875)scale(0.2 -0.2)">
       <use xlink:href="#DejaVuSans-32"/>
      </g>
     </g>
    </g>
    <g id="xtick_3">
     <g id="line2d_9">
      <path clip-path="url(#p03e7b17f66)" d="M 214.582673 294.88 
L 214.582673 24.84 
" style="fill:none;stroke:#b0b0b0;stroke-linecap:square;stroke-width:0.8;"/>
     </g>
     <g id="line2d_10">
      <g>
       <use style="stroke:#000000;stroke-width:0.8;" x="214.582673" xlink:href="#m7a617f116f" y="294.88"/>
      </g>
     </g>
     <g id="text_3">
      <!-- 4 -->
      <defs>
       <path d="M 37.796875 64.3125 
L 12.890625 25.390625 
L 37.796875 25.390625 
z
M 35.203125 72.90625 
L 47.609375 72.90625 
L 47.609375 25.390625 
L 58.015625 25.390625 
L 58.015625 17.1875 
L 47.609375 17.1875 
L 47.609375 0 
L 37.796875 0 
L 37.796875 17.1875 
L 4.890625 17.1875 
L 4.890625 26.703125 
z
" id="DejaVuSans-34"/>
      </defs>
      <g transform="translate(208.220173 317.076875)scale(0.2 -0.2)">
       <use xlink:href="#DejaVuSans-34"/>
      </g>
     </g>
    </g>
    <g id="xtick_4">
     <g id="line2d_11">
      <path clip-path="url(#p03e7b17f66)" d="M 293.814009 294.88 
L 293.814009 24.84 
" style="fill:none;stroke:#b0b0b0;stroke-linecap:square;stroke-width:0.8;"/>
     </g>
     <g id="line2d_12">
      <g>
       <use style="stroke:#000000;stroke-width:0.8;" x="293.814009" xlink:href="#m7a617f116f" y="294.88"/>
      </g>
     </g>
     <g id="text_4">
      <!-- 6 -->
      <defs>
       <path d="M 33.015625 40.375 
Q 26.375 40.375 22.484375 35.828125 
Q 18.609375 31.296875 18.609375 23.390625 
Q 18.609375 15.53125 22.484375 10.953125 
Q 26.375 6.390625 33.015625 6.390625 
Q 39.65625 6.390625 43.53125 10.953125 
Q 47.40625 15.53125 47.40625 23.390625 
Q 47.40625 31.296875 43.53125 35.828125 
Q 39.65625 40.375 33.015625 40.375 
z
M 52.59375 71.296875 
L 52.59375 62.3125 
Q 48.875 64.0625 45.09375 64.984375 
Q 41.3125 65.921875 37.59375 65.921875 
Q 27.828125 65.921875 22.671875 59.328125 
Q 17.53125 52.734375 16.796875 39.40625 
Q 19.671875 43.65625 24.015625 45.921875 
Q 28.375 48.1875 33.59375 48.1875 
Q 44.578125 48.1875 50.953125 41.515625 
Q 57.328125 34.859375 57.328125 23.390625 
Q 57.328125 12.15625 50.6875 5.359375 
Q 44.046875 -1.421875 33.015625 -1.421875 
Q 20.359375 -1.421875 13.671875 8.265625 
Q 6.984375 17.96875 6.984375 36.375 
Q 6.984375 53.65625 15.1875 63.9375 
Q 23.390625 74.21875 37.203125 74.21875 
Q 40.921875 74.21875 44.703125 73.484375 
Q 48.484375 72.75 52.59375 71.296875 
z
" id="DejaVuSans-36"/>
      </defs>
      <g transform="translate(287.451509 317.076875)scale(0.2 -0.2)">
       <use xlink:href="#DejaVuSans-36"/>
      </g>
     </g>
    </g>
    <g id="xtick_5">
     <g id="line2d_13">
      <path clip-path="url(#p03e7b17f66)" d="M 373.045346 294.88 
L 373.045346 24.84 
" style="fill:none;stroke:#b0b0b0;stroke-linecap:square;stroke-width:0.8;"/>
     </g>
     <g id="line2d_14">
      <g>
       <use style="stroke:#000000;stroke-width:0.8;" x="373.045346" xlink:href="#m7a617f116f" y="294.88"/>
      </g>
     </g>
     <g id="text_5">
      <!-- 8 -->
      <defs>
       <path d="M 31.78125 34.625 
Q 24.75 34.625 20.71875 30.859375 
Q 16.703125 27.09375 16.703125 20.515625 
Q 16.703125 13.921875 20.71875 10.15625 
Q 24.75 6.390625 31.78125 6.390625 
Q 38.8125 6.390625 42.859375 10.171875 
Q 46.921875 13.96875 46.921875 20.515625 
Q 46.921875 27.09375 42.890625 30.859375 
Q 38.875 34.625 31.78125 34.625 
z
M 21.921875 38.8125 
Q 15.578125 40.375 12.03125 44.71875 
Q 8.5 49.078125 8.5 55.328125 
Q 8.5 64.0625 14.71875 69.140625 
Q 20.953125 74.21875 31.78125 74.21875 
Q 42.671875 74.21875 48.875 69.140625 
Q 55.078125 64.0625 55.078125 55.328125 
Q 55.078125 49.078125 51.53125 44.71875 
Q 48 40.375 41.703125 38.8125 
Q 48.828125 37.15625 52.796875 32.3125 
Q 56.78125 27.484375 56.78125 20.515625 
Q 56.78125 9.90625 50.3125 4.234375 
Q 43.84375 -1.421875 31.78125 -1.421875 
Q 19.734375 -1.421875 13.25 4.234375 
Q 6.78125 9.90625 6.78125 20.515625 
Q 6.78125 27.484375 10.78125 32.3125 
Q 14.796875 37.15625 21.921875 38.8125 
z
M 18.3125 54.390625 
Q 18.3125 48.734375 21.84375 45.5625 
Q 25.390625 42.390625 31.78125 42.390625 
Q 38.140625 42.390625 41.71875 45.5625 
Q 45.3125 48.734375 45.3125 54.390625 
Q 45.3125 60.0625 41.71875 63.234375 
Q 38.140625 66.40625 31.78125 66.40625 
Q 25.390625 66.40625 21.84375 63.234375 
Q 18.3125 60.0625 18.3125 54.390625 
z
" id="DejaVuSans-38"/>
      </defs>
      <g transform="translate(366.682846 317.076875)scale(0.2 -0.2)">
       <use xlink:href="#DejaVuSans-38"/>
      </g>
     </g>
    </g>
    <g id="text_6">
     <!-- log10(# f-evals / dimension) -->
     <defs>
      <path d="M 9.421875 75.984375 
L 18.40625 75.984375 
L 18.40625 0 
L 9.421875 0 
z
" id="DejaVuSans-6c"/>
      <path d="M 30.609375 48.390625 
Q 23.390625 48.390625 19.1875 42.75 
Q 14.984375 37.109375 14.984375 27.296875 
Q 14.984375 17.484375 19.15625 11.84375 
Q 23.34375 6.203125 30.609375 6.203125 
Q 37.796875 6.203125 41.984375 11.859375 
Q 46.1875 17.53125 46.1875 27.296875 
Q 46.1875 37.015625 41.984375 42.703125 
Q 37.796875 48.390625 30.609375 48.390625 
z
M 30.609375 56 
Q 42.328125 56 49.015625 48.375 
Q 55.71875 40.765625 55.71875 27.296875 
Q 55.71875 13.875 49.015625 6.21875 
Q 42.328125 -1.421875 30.609375 -1.421875 
Q 18.84375 -1.421875 12.171875 6.21875 
Q 5.515625 13.875 5.515625 27.296875 
Q 5.515625 40.765625 12.171875 48.375 
Q 18.84375 56 30.609375 56 
z
" id="DejaVuSans-6f"/>
      <path d="M 45.40625 27.984375 
Q 45.40625 37.75 41.375 43.109375 
Q 37.359375 48.484375 30.078125 48.484375 
Q 22.859375 48.484375 18.828125 43.109375 
Q 14.796875 37.75 14.796875 27.984375 
Q 14.796875 18.265625 18.828125 12.890625 
Q 22.859375 7.515625 30.078125 7.515625 
Q 37.359375 7.515625 41.375 12.890625 
Q 45.40625 18.265625 45.40625 27.984375 
z
M 54.390625 6.78125 
Q 54.390625 -7.171875 48.1875 -13.984375 
Q 42 -20.796875 29.203125 -20.796875 
Q 24.46875 -20.796875 20.265625 -20.09375 
Q 16.0625 -19.390625 12.109375 -17.921875 
L 12.109375 -9.1875 
Q 16.0625 -11.328125 19.921875 -12.34375 
Q 23.78125 -13.375 27.78125 -13.375 
Q 36.625 -13.375 41.015625 -8.765625 
Q 45.40625 -4.15625 45.40625 5.171875 
L 45.40625 9.625 
Q 42.625 4.78125 38.28125 2.390625 
Q 33.9375 0 27.875 0 
Q 17.828125 0 11.671875 7.65625 
Q 5.515625 15.328125 5.515625 27.984375 
Q 5.515625 40.671875 11.671875 48.328125 
Q 17.828125 56 27.875 56 
Q 33.9375 56 38.28125 53.609375 
Q 42.625 51.21875 45.40625 46.390625 
L 45.40625 54.6875 
L 54.390625 54.6875 
z
" id="DejaVuSans-67"/>
      <path d="M 12.40625 8.296875 
L 28.515625 8.296875 
L 28.515625 63.921875 
L 10.984375 60.40625 
L 10.984375 69.390625 
L 28.421875 72.90625 
L 38.28125 72.90625 
L 38.28125 8.296875 
L 54.390625 8.296875 
L 54.390625 0 
L 12.40625 0 
z
" id="DejaVuSans-31"/>
      <path d="M 31 75.875 
Q 24.46875 64.65625 21.28125 53.65625 
Q 18.109375 42.671875 18.109375 31.390625 
Q 18.109375 20.125 21.3125 9.0625 
Q 24.515625 -2 31 -13.1875 
L 23.1875 -13.1875 
Q 15.875 -1.703125 12.234375 9.375 
Q 8.59375 20.453125 8.59375 31.390625 
Q 8.59375 42.28125 12.203125 53.3125 
Q 15.828125 64.359375 23.1875 75.875 
z
" id="DejaVuSans-28"/>
      <path d="M 51.125 44 
L 36.921875 44 
L 32.8125 27.6875 
L 47.125 27.6875 
z
M 43.796875 71.78125 
L 38.71875 51.515625 
L 52.984375 51.515625 
L 58.109375 71.78125 
L 65.921875 71.78125 
L 60.890625 51.515625 
L 76.125 51.515625 
L 76.125 44 
L 58.984375 44 
L 54.984375 27.6875 
L 70.515625 27.6875 
L 70.515625 20.21875 
L 53.078125 20.21875 
L 48 0 
L 40.1875 0 
L 45.21875 20.21875 
L 30.90625 20.21875 
L 25.875 0 
L 18.015625 0 
L 23.09375 20.21875 
L 7.71875 20.21875 
L 7.71875 27.6875 
L 24.90625 27.6875 
L 29 44 
L 13.28125 44 
L 13.28125 51.515625 
L 30.90625 51.515625 
L 35.890625 71.78125 
z
" id="DejaVuSans-23"/>
      <path id="DejaVuSans-20"/>
      <path d="M 37.109375 75.984375 
L 37.109375 68.5 
L 28.515625 68.5 
Q 23.6875 68.5 21.796875 66.546875 
Q 19.921875 64.59375 19.921875 59.515625 
L 19.921875 54.6875 
L 34.71875 54.6875 
L 34.71875 47.703125 
L 19.921875 47.703125 
L 19.921875 0 
L 10.890625 0 
L 10.890625 47.703125 
L 2.296875 47.703125 
L 2.296875 54.6875 
L 10.890625 54.6875 
L 10.890625 58.5 
Q 10.890625 67.625 15.140625 71.796875 
Q 19.390625 75.984375 28.609375 75.984375 
z
" id="DejaVuSans-66"/>
      <path d="M 4.890625 31.390625 
L 31.203125 31.390625 
L 31.203125 23.390625 
L 4.890625 23.390625 
z
" id="DejaVuSans-2d"/>
      <path d="M 56.203125 29.59375 
L 56.203125 25.203125 
L 14.890625 25.203125 
Q 15.484375 15.921875 20.484375 11.0625 
Q 25.484375 6.203125 34.421875 6.203125 
Q 39.59375 6.203125 44.453125 7.46875 
Q 49.3125 8.734375 54.109375 11.28125 
L 54.109375 2.78125 
Q 49.265625 0.734375 44.1875 -0.34375 
Q 39.109375 -1.421875 33.890625 -1.421875 
Q 20.796875 -1.421875 13.15625 6.1875 
Q 5.515625 13.8125 5.515625 26.8125 
Q 5.515625 40.234375 12.765625 48.109375 
Q 20.015625 56 32.328125 56 
Q 43.359375 56 49.78125 48.890625 
Q 56.203125 41.796875 56.203125 29.59375 
z
M 47.21875 32.234375 
Q 47.125 39.59375 43.09375 43.984375 
Q 39.0625 48.390625 32.421875 48.390625 
Q 24.90625 48.390625 20.390625 44.140625 
Q 15.875 39.890625 15.1875 32.171875 
z
" id="DejaVuSans-65"/>
      <path d="M 2.984375 54.6875 
L 12.5 54.6875 
L 29.59375 8.796875 
L 46.6875 54.6875 
L 56.203125 54.6875 
L 35.6875 0 
L 23.484375 0 
z
" id="DejaVuSans-76"/>
      <path d="M 34.28125 27.484375 
Q 23.390625 27.484375 19.1875 25 
Q 14.984375 22.515625 14.984375 16.5 
Q 14.984375 11.71875 18.140625 8.90625 
Q 21.296875 6.109375 26.703125 6.109375 
Q 34.1875 6.109375 38.703125 11.40625 
Q 43.21875 16.703125 43.21875 25.484375 
L 43.21875 27.484375 
z
M 52.203125 31.203125 
L 52.203125 0 
L 43.21875 0 
L 43.21875 8.296875 
Q 40.140625 3.328125 35.546875 0.953125 
Q 30.953125 -1.421875 24.3125 -1.421875 
Q 15.921875 -1.421875 10.953125 3.296875 
Q 6 8.015625 6 15.921875 
Q 6 25.140625 12.171875 29.828125 
Q 18.359375 34.515625 30.609375 34.515625 
L 43.21875 34.515625 
L 43.21875 35.40625 
Q 43.21875 41.609375 39.140625 45 
Q 35.0625 48.390625 27.6875 48.390625 
Q 23 48.390625 18.546875 47.265625 
Q 14.109375 46.140625 10.015625 43.890625 
L 10.015625 52.203125 
Q 14.9375 54.109375 19.578125 55.046875 
Q 24.21875 56 28.609375 56 
Q 40.484375 56 46.34375 49.84375 
Q 52.203125 43.703125 52.203125 31.203125 
z
" id="DejaVuSans-61"/>
      <path d="M 44.28125 53.078125 
L 44.28125 44.578125 
Q 40.484375 46.53125 36.375 47.5 
Q 32.28125 48.484375 27.875 48.484375 
Q 21.1875 48.484375 17.84375 46.4375 
Q 14.5 44.390625 14.5 40.28125 
Q 14.5 37.15625 16.890625 35.375 
Q 19.28125 33.59375 26.515625 31.984375 
L 29.59375 31.296875 
Q 39.15625 29.25 43.1875 25.515625 
Q 47.21875 21.78125 47.21875 15.09375 
Q 47.21875 7.46875 41.1875 3.015625 
Q 35.15625 -1.421875 24.609375 -1.421875 
Q 20.21875 -1.421875 15.453125 -0.5625 
Q 10.6875 0.296875 5.421875 2 
L 5.421875 11.28125 
Q 10.40625 8.6875 15.234375 7.390625 
Q 20.0625 6.109375 24.8125 6.109375 
Q 31.15625 6.109375 34.5625 8.28125 
Q 37.984375 10.453125 37.984375 14.40625 
Q 37.984375 18.0625 35.515625 20.015625 
Q 33.0625 21.96875 24.703125 23.78125 
L 21.578125 24.515625 
Q 13.234375 26.265625 9.515625 29.90625 
Q 5.8125 33.546875 5.8125 39.890625 
Q 5.8125 47.609375 11.28125 51.796875 
Q 16.75 56 26.8125 56 
Q 31.78125 56 36.171875 55.265625 
Q 40.578125 54.546875 44.28125 53.078125 
z
" id="DejaVuSans-73"/>
      <path d="M 25.390625 72.90625 
L 33.6875 72.90625 
L 8.296875 -9.28125 
L 0 -9.28125 
z
" id="DejaVuSans-2f"/>
      <path d="M 45.40625 46.390625 
L 45.40625 75.984375 
L 54.390625 75.984375 
L 54.390625 0 
L 45.40625 0 
L 45.40625 8.203125 
Q 42.578125 3.328125 38.25 0.953125 
Q 33.9375 -1.421875 27.875 -1.421875 
Q 17.96875 -1.421875 11.734375 6.484375 
Q 5.515625 14.40625 5.515625 27.296875 
Q 5.515625 40.1875 11.734375 48.09375 
Q 17.96875 56 27.875 56 
Q 33.9375 56 38.25 53.625 
Q 42.578125 51.265625 45.40625 46.390625 
z
M 14.796875 27.296875 
Q 14.796875 17.390625 18.875 11.75 
Q 22.953125 6.109375 30.078125 6.109375 
Q 37.203125 6.109375 41.296875 11.75 
Q 45.40625 17.390625 45.40625 27.296875 
Q 45.40625 37.203125 41.296875 42.84375 
Q 37.203125 48.484375 30.078125 48.484375 
Q 22.953125 48.484375 18.875 42.84375 
Q 14.796875 37.203125 14.796875 27.296875 
z
" id="DejaVuSans-64"/>
      <path d="M 9.421875 54.6875 
L 18.40625 54.6875 
L 18.40625 0 
L 9.421875 0 
z
M 9.421875 75.984375 
L 18.40625 75.984375 
L 18.40625 64.59375 
L 9.421875 64.59375 
z
" id="DejaVuSans-69"/>
      <path d="M 52 44.1875 
Q 55.375 50.25 60.0625 53.125 
Q 64.75 56 71.09375 56 
Q 79.640625 56 84.28125 50.015625 
Q 88.921875 44.046875 88.921875 33.015625 
L 88.921875 0 
L 79.890625 0 
L 79.890625 32.71875 
Q 79.890625 40.578125 77.09375 44.375 
Q 74.3125 48.1875 68.609375 48.1875 
Q 61.625 48.1875 57.5625 43.546875 
Q 53.515625 38.921875 53.515625 30.90625 
L 53.515625 0 
L 44.484375 0 
L 44.484375 32.71875 
Q 44.484375 40.625 41.703125 44.40625 
Q 38.921875 48.1875 33.109375 48.1875 
Q 26.21875 48.1875 22.15625 43.53125 
Q 18.109375 38.875 18.109375 30.90625 
L 18.109375 0 
L 9.078125 0 
L 9.078125 54.6875 
L 18.109375 54.6875 
L 18.109375 46.1875 
Q 21.1875 51.21875 25.484375 53.609375 
Q 29.78125 56 35.6875 56 
Q 41.65625 56 45.828125 52.96875 
Q 50 49.953125 52 44.1875 
z
" id="DejaVuSans-6d"/>
      <path d="M 54.890625 33.015625 
L 54.890625 0 
L 45.90625 0 
L 45.90625 32.71875 
Q 45.90625 40.484375 42.875 44.328125 
Q 39.84375 48.1875 33.796875 48.1875 
Q 26.515625 48.1875 22.3125 43.546875 
Q 18.109375 38.921875 18.109375 30.90625 
L 18.109375 0 
L 9.078125 0 
L 9.078125 54.6875 
L 18.109375 54.6875 
L 18.109375 46.1875 
Q 21.34375 51.125 25.703125 53.5625 
Q 30.078125 56 35.796875 56 
Q 45.21875 56 50.046875 50.171875 
Q 54.890625 44.34375 54.890625 33.015625 
z
" id="DejaVuSans-6e"/>
      <path d="M 8.015625 75.875 
L 15.828125 75.875 
Q 23.140625 64.359375 26.78125 53.3125 
Q 30.421875 42.28125 30.421875 31.390625 
Q 30.421875 20.453125 26.78125 9.375 
Q 23.140625 -1.703125 15.828125 -13.1875 
L 8.015625 -13.1875 
Q 14.5 -2 17.703125 9.0625 
Q 20.90625 20.125 20.90625 31.390625 
Q 20.90625 42.671875 17.703125 53.65625 
Q 14.5 64.65625 8.015625 75.875 
z
" id="DejaVuSans-29"/>
     </defs>
     <g transform="translate(107.211219 338.153594)scale(0.17 -0.17)">
      <use xlink:href="#DejaVuSans-6c"/>
      <use x="27.783203" xlink:href="#DejaVuSans-6f"/>
      <use x="88.964844" xlink:href="#DejaVuSans-67"/>
      <use x="152.441406" xlink:href="#DejaVuSans-31"/>
      <use x="216.064453" xlink:href="#DejaVuSans-30"/>
      <use x="279.6875" xlink:href="#DejaVuSans-28"/>
      <use x="318.701172" xlink:href="#DejaVuSans-23"/>
      <use x="402.490234" xlink:href="#DejaVuSans-20"/>
      <use x="434.277344" xlink:href="#DejaVuSans-66"/>
      <use x="469.404297" xlink:href="#DejaVuSans-2d"/>
      <use x="505.488281" xlink:href="#DejaVuSans-65"/>
      <use x="567.011719" xlink:href="#DejaVuSans-76"/>
      <use x="626.191406" xlink:href="#DejaVuSans-61"/>
      <use x="687.470703" xlink:href="#DejaVuSans-6c"/>
      <use x="715.253906" xlink:href="#DejaVuSans-73"/>
      <use x="767.353516" xlink:href="#DejaVuSans-20"/>
      <use x="799.140625" xlink:href="#DejaVuSans-2f"/>
      <use x="832.832031" xlink:href="#DejaVuSans-20"/>
      <use x="864.619141" xlink:href="#DejaVuSans-64"/>
      <use x="928.095703" xlink:href="#DejaVuSans-69"/>
      <use x="955.878906" xlink:href="#DejaVuSans-6d"/>
      <use x="1053.291016" xlink:href="#DejaVuSans-65"/>
      <use x="1114.814453" xlink:href="#DejaVuSans-6e"/>
      <use x="1178.193359" xlink:href="#DejaVuSans-73"/>
      <use x="1230.292969" xlink:href="#DejaVuSans-69"/>
      <use x="1258.076172" xlink:href="#DejaVuSans-6f"/>
      <use x="1319.257812" xlink:href="#DejaVuSans-6e"/>
      <use x="1382.636719" xlink:href="#DejaVuSans-29"/>
     </g>
    </g>
   </g>
   <g id="matplotlib.axis_2">
    <g id="ytick_1">
     <g id="line2d_15">
      <path clip-path="url(#p03e7b17f66)" d="M 56.12 294.88 
L 399.984 294.88 
" style="fill:none;stroke:#b0b0b0;stroke-linecap:square;stroke-width:0.8;"/>
     </g>
     <g id="line2d_16">
      <defs>
       <path d="M 0 0 
L -3.5 0 
" id="m0a69540bc2" style="stroke:#000000;stroke-width:0.8;"/>
      </defs>
      <g>
       <use style="stroke:#000000;stroke-width:0.8;" x="56.12" xlink:href="#m0a69540bc2" y="294.88"/>
      </g>
     </g>
     <g id="text_7">
      <!-- 0.0 -->
      <defs>
       <path d="M 10.6875 12.40625 
L 21 12.40625 
L 21 0 
L 10.6875 0 
z
" id="DejaVuSans-2e"/>
      </defs>
      <g transform="translate(23.675 300.95875)scale(0.16 -0.16)">
       <use xlink:href="#DejaVuSans-30"/>
       <use x="63.623047" xlink:href="#DejaVuSans-2e"/>
       <use x="95.410156" xlink:href="#DejaVuSans-30"/>
      </g>
     </g>
    </g>
    <g id="ytick_2">
     <g id="line2d_17">
      <path clip-path="url(#p03e7b17f66)" d="M 56.12 241.406733 
L 399.984 241.406733 
" style="fill:none;stroke:#b0b0b0;stroke-linecap:square;stroke-width:0.8;"/>
     </g>
     <g id="line2d_18">
      <g>
       <use style="stroke:#000000;stroke-width:0.8;" x="56.12" xlink:href="#m0a69540bc2" y="241.406733"/>
      </g>
     </g>
     <g id="text_8">
      <!-- 0.2 -->
      <g transform="translate(23.675 247.485483)scale(0.16 -0.16)">
       <use xlink:href="#DejaVuSans-30"/>
       <use x="63.623047" xlink:href="#DejaVuSans-2e"/>
       <use x="95.410156" xlink:href="#DejaVuSans-32"/>
      </g>
     </g>
    </g>
    <g id="ytick_3">
     <g id="line2d_19">
      <path clip-path="url(#p03e7b17f66)" d="M 56.12 187.933465 
L 399.984 187.933465 
" style="fill:none;stroke:#b0b0b0;stroke-linecap:square;stroke-width:0.8;"/>
     </g>
     <g id="line2d_20">
      <g>
       <use style="stroke:#000000;stroke-width:0.8;" x="56.12" xlink:href="#m0a69540bc2" y="187.933465"/>
      </g>
     </g>
     <g id="text_9">
      <!-- 0.4 -->
      <g transform="translate(23.675 194.012215)scale(0.16 -0.16)">
       <use xlink:href="#DejaVuSans-30"/>
       <use x="63.623047" xlink:href="#DejaVuSans-2e"/>
       <use x="95.410156" xlink:href="#DejaVuSans-34"/>
      </g>
     </g>
    </g>
    <g id="ytick_4">
     <g id="line2d_21">
      <path clip-path="url(#p03e7b17f66)" d="M 56.12 134.460198 
L 399.984 134.460198 
" style="fill:none;stroke:#b0b0b0;stroke-linecap:square;stroke-width:0.8;"/>
     </g>
     <g id="line2d_22">
      <g>
       <use style="stroke:#000000;stroke-width:0.8;" x="56.12" xlink:href="#m0a69540bc2" y="134.460198"/>
      </g>
     </g>
     <g id="text_10">
      <!-- 0.6 -->
      <g transform="translate(23.675 140.538948)scale(0.16 -0.16)">
       <use xlink:href="#DejaVuSans-30"/>
       <use x="63.623047" xlink:href="#DejaVuSans-2e"/>
       <use x="95.410156" xlink:href="#DejaVuSans-36"/>
      </g>
     </g>
    </g>
    <g id="ytick_5">
     <g id="line2d_23">
      <path clip-path="url(#p03e7b17f66)" d="M 56.12 80.986931 
L 399.984 80.986931 
" style="fill:none;stroke:#b0b0b0;stroke-linecap:square;stroke-width:0.8;"/>
     </g>
     <g id="line2d_24">
      <g>
       <use style="stroke:#000000;stroke-width:0.8;" x="56.12" xlink:href="#m0a69540bc2" y="80.986931"/>
      </g>
     </g>
     <g id="text_11">
      <!-- 0.8 -->
      <g transform="translate(23.675 87.065681)scale(0.16 -0.16)">
       <use xlink:href="#DejaVuSans-30"/>
       <use x="63.623047" xlink:href="#DejaVuSans-2e"/>
       <use x="95.410156" xlink:href="#DejaVuSans-38"/>
      </g>
     </g>
    </g>
    <g id="ytick_6">
     <g id="line2d_25">
      <path clip-path="url(#p03e7b17f66)" d="M 56.12 27.513663 
L 399.984 27.513663 
" style="fill:none;stroke:#b0b0b0;stroke-linecap:square;stroke-width:0.8;"/>
     </g>
     <g id="line2d_26">
      <g>
       <use style="stroke:#000000;stroke-width:0.8;" x="56.12" xlink:href="#m0a69540bc2" y="27.513663"/>
      </g>
     </g>
     <g id="text_12">
      <!-- 1.0 -->
      <g transform="translate(23.675 33.592413)scale(0.16 -0.16)">
       <use xlink:href="#DejaVuSans-31"/>
       <use x="63.623047" xlink:href="#DejaVuSans-2e"/>
       <use x="95.410156" xlink:href="#DejaVuSans-30"/>
      </g>
     </g>
    </g>
    <g id="text_13">
     <!-- Fraction of function,target pairs -->
     <defs>
      <path d="M 9.8125 72.90625 
L 51.703125 72.90625 
L 51.703125 64.59375 
L 19.671875 64.59375 
L 19.671875 43.109375 
L 48.578125 43.109375 
L 48.578125 34.8125 
L 19.671875 34.8125 
L 19.671875 0 
L 9.8125 0 
z
" id="DejaVuSans-46"/>
      <path d="M 41.109375 46.296875 
Q 39.59375 47.171875 37.8125 47.578125 
Q 36.03125 48 33.890625 48 
Q 26.265625 48 22.1875 43.046875 
Q 18.109375 38.09375 18.109375 28.8125 
L 18.109375 0 
L 9.078125 0 
L 9.078125 54.6875 
L 18.109375 54.6875 
L 18.109375 46.1875 
Q 20.953125 51.171875 25.484375 53.578125 
Q 30.03125 56 36.53125 56 
Q 37.453125 56 38.578125 55.875 
Q 39.703125 55.765625 41.0625 55.515625 
z
" id="DejaVuSans-72"/>
      <path d="M 48.78125 52.59375 
L 48.78125 44.1875 
Q 44.96875 46.296875 41.140625 47.34375 
Q 37.3125 48.390625 33.40625 48.390625 
Q 24.65625 48.390625 19.8125 42.84375 
Q 14.984375 37.3125 14.984375 27.296875 
Q 14.984375 17.28125 19.8125 11.734375 
Q 24.65625 6.203125 33.40625 6.203125 
Q 37.3125 6.203125 41.140625 7.25 
Q 44.96875 8.296875 48.78125 10.40625 
L 48.78125 2.09375 
Q 45.015625 0.34375 40.984375 -0.53125 
Q 36.96875 -1.421875 32.421875 -1.421875 
Q 20.0625 -1.421875 12.78125 6.34375 
Q 5.515625 14.109375 5.515625 27.296875 
Q 5.515625 40.671875 12.859375 48.328125 
Q 20.21875 56 33.015625 56 
Q 37.15625 56 41.109375 55.140625 
Q 45.0625 54.296875 48.78125 52.59375 
z
" id="DejaVuSans-63"/>
      <path d="M 18.3125 70.21875 
L 18.3125 54.6875 
L 36.8125 54.6875 
L 36.8125 47.703125 
L 18.3125 47.703125 
L 18.3125 18.015625 
Q 18.3125 11.328125 20.140625 9.421875 
Q 21.96875 7.515625 27.59375 7.515625 
L 36.8125 7.515625 
L 36.8125 0 
L 27.59375 0 
Q 17.1875 0 13.234375 3.875 
Q 9.28125 7.765625 9.28125 18.015625 
L 9.28125 47.703125 
L 2.6875 47.703125 
L 2.6875 54.6875 
L 9.28125 54.6875 
L 9.28125 70.21875 
z
" id="DejaVuSans-74"/>
      <path d="M 8.5 21.578125 
L 8.5 54.6875 
L 17.484375 54.6875 
L 17.484375 21.921875 
Q 17.484375 14.15625 20.5 10.265625 
Q 23.53125 6.390625 29.59375 6.390625 
Q 36.859375 6.390625 41.078125 11.03125 
Q 45.3125 15.671875 45.3125 23.6875 
L 45.3125 54.6875 
L 54.296875 54.6875 
L 54.296875 0 
L 45.3125 0 
L 45.3125 8.40625 
Q 42.046875 3.421875 37.71875 1 
Q 33.40625 -1.421875 27.6875 -1.421875 
Q 18.265625 -1.421875 13.375 4.4375 
Q 8.5 10.296875 8.5 21.578125 
z
M 31.109375 56 
z
" id="DejaVuSans-75"/>
      <path d="M 11.71875 12.40625 
L 22.015625 12.40625 
L 22.015625 4 
L 14.015625 -11.625 
L 7.71875 -11.625 
L 11.71875 4 
z
" id="DejaVuSans-2c"/>
      <path d="M 18.109375 8.203125 
L 18.109375 -20.796875 
L 9.078125 -20.796875 
L 9.078125 54.6875 
L 18.109375 54.6875 
L 18.109375 46.390625 
Q 20.953125 51.265625 25.265625 53.625 
Q 29.59375 56 35.59375 56 
Q 45.5625 56 51.78125 48.09375 
Q 58.015625 40.1875 58.015625 27.296875 
Q 58.015625 14.40625 51.78125 6.484375 
Q 45.5625 -1.421875 35.59375 -1.421875 
Q 29.59375 -1.421875 25.265625 0.953125 
Q 20.953125 3.328125 18.109375 8.203125 
z
M 48.6875 27.296875 
Q 48.6875 37.203125 44.609375 42.84375 
Q 40.53125 48.484375 33.40625 48.484375 
Q 26.265625 48.484375 22.1875 42.84375 
Q 18.109375 37.203125 18.109375 27.296875 
Q 18.109375 17.390625 22.1875 11.75 
Q 26.265625 6.109375 33.40625 6.109375 
Q 40.53125 6.109375 44.609375 11.75 
Q 48.6875 17.390625 48.6875 27.296875 
z
" id="DejaVuSans-70"/>
     </defs>
     <g transform="translate(16.139531 294.999375)rotate(-90)scale(0.17 -0.17)">
      <use xlink:href="#DejaVuSans-46"/>
      <use x="57.410156" xlink:href="#DejaVuSans-72"/>
      <use x="98.523438" xlink:href="#DejaVuSans-61"/>
      <use x="159.802734" xlink:href="#DejaVuSans-63"/>
      <use x="214.783203" xlink:href="#DejaVuSans-74"/>
      <use x="253.992188" xlink:href="#DejaVuSans-69"/>
      <use x="281.775391" xlink:href="#DejaVuSans-6f"/>
      <use x="342.957031" xlink:href="#DejaVuSans-6e"/>
      <use x="406.335938" xlink:href="#DejaVuSans-20"/>
      <use x="438.123047" xlink:href="#DejaVuSans-6f"/>
      <use x="499.304688" xlink:href="#DejaVuSans-66"/>
      <use x="534.509766" xlink:href="#DejaVuSans-20"/>
      <use x="566.296875" xlink:href="#DejaVuSans-66"/>
      <use x="601.501953" xlink:href="#DejaVuSans-75"/>
      <use x="664.880859" xlink:href="#DejaVuSans-6e"/>
      <use x="728.259766" xlink:href="#DejaVuSans-63"/>
      <use x="783.240234" xlink:href="#DejaVuSans-74"/>
      <use x="822.449219" xlink:href="#DejaVuSans-69"/>
      <use x="850.232422" xlink:href="#DejaVuSans-6f"/>
      <use x="911.414062" xlink:href="#DejaVuSans-6e"/>
      <use x="974.792969" xlink:href="#DejaVuSans-2c"/>
      <use x="1006.580078" xlink:href="#DejaVuSans-74"/>
      <use x="1045.789062" xlink:href="#DejaVuSans-61"/>
      <use x="1107.068359" xlink:href="#DejaVuSans-72"/>
      <use x="1148.166016" xlink:href="#DejaVuSans-67"/>
      <use x="1211.642578" xlink:href="#DejaVuSans-65"/>
      <use x="1273.166016" xlink:href="#DejaVuSans-74"/>
      <use x="1312.375" xlink:href="#DejaVuSans-20"/>
      <use x="1344.162109" xlink:href="#DejaVuSans-70"/>
      <use x="1407.638672" xlink:href="#DejaVuSans-61"/>
      <use x="1468.917969" xlink:href="#DejaVuSans-69"/>
      <use x="1496.701172" xlink:href="#DejaVuSans-72"/>
      <use x="1537.814453" xlink:href="#DejaVuSans-73"/>
     </g>
    </g>
   </g>
   <g id="line2d_27">
    <defs>
     <path d="M 0 1.5 
C 0.397805 1.5 0.77937 1.341951 1.06066 1.06066 
C 1.341951 0.77937 1.5 0.397805 1.5 0 
C 1.5 -0.397805 1.341951 -0.77937 1.06066 -1.06066 
C 0.77937 -1.341951 0.397805 -1.5 0 -1.5 
C -0.397805 -1.5 -0.77937 -1.341951 -1.06066 -1.06066 
C -1.341951 -0.77937 -1.5 -0.397805 -1.5 0 
C -1.5 0.397805 -1.341951 0.77937 -1.06066 1.06066 
C -0.77937 1.341951 -0.397805 1.5 0 1.5 
z
" id="m53db046d4d" style="stroke:#f5deb3;"/>
    </defs>
    <g>
     <use style="fill:#f5deb3;stroke:#f5deb3;" x="195.435266" xlink:href="#m53db046d4d" y="27.513663"/>
     <use style="fill:#f5deb3;stroke:#f5deb3;" x="195.435266" xlink:href="#m53db046d4d" y="27.513663"/>
    </g>
   </g>
   <g id="line2d_28">
    <defs>
     <path d="M 0 1.5 
C 0.397805 1.5 0.77937 1.341951 1.06066 1.06066 
C 1.341951 0.77937 1.5 0.397805 1.5 0 
C 1.5 -0.397805 1.341951 -0.77937 1.06066 -1.06066 
C 0.77937 -1.341951 0.397805 -1.5 0 -1.5 
C -0.397805 -1.5 -0.77937 -1.341951 -1.06066 -1.06066 
C -1.341951 -0.77937 -1.5 -0.397805 -1.5 0 
C -1.5 0.397805 -1.341951 0.77937 -1.06066 1.06066 
C -0.77937 1.341951 -0.397805 1.5 0 1.5 
z
" id="mf06e37c488" style="stroke:#000080;"/>
    </defs>
    <g>
     <use style="fill:#000080;stroke:#000080;" x="313.175251" xlink:href="#mf06e37c488" y="195.272933"/>
     <use style="fill:#000080;stroke:#000080;" x="313.175251" xlink:href="#mf06e37c488" y="195.272933"/>
    </g>
   </g>
   <g id="line2d_29">
    <path d="M 179.825865 294.88 
L 179.825865 293.307257 
L 182.123822 293.307257 
L 182.225952 292.258761 
L 183.712366 292.258761 
L 183.712366 291.734514 
L 184.97914 291.734514 
L 184.97914 291.210266 
L 185.716169 291.210266 
L 185.716169 290.686018 
L 186.870559 290.686018 
L 186.870559 290.161771 
L 187.269438 290.161771 
L 187.269438 289.637523 
L 187.604065 289.637523 
L 187.604065 289.113275 
L 187.876951 289.113275 
L 187.876951 288.06478 
L 188.389188 288.06478 
L 188.389188 286.492036 
L 188.572731 286.492036 
L 188.572731 284.919293 
L 189.004951 284.919293 
L 189.004951 284.395046 
L 189.376204 284.395046 
L 189.376204 283.870798 
L 189.778394 283.870798 
L 189.778394 283.34655 
L 190.901155 283.34655 
L 190.901155 282.822302 
L 191.118521 282.822302 
L 191.175119 281.249559 
L 191.646954 281.249559 
L 191.646954 280.201064 
L 192.663948 280.201064 
L 192.758105 279.152568 
L 192.810786 279.152568 
L 192.810786 278.104073 
L 193.098357 278.104073 
L 193.098357 277.579825 
L 193.579464 277.579825 
L 193.579464 277.055578 
L 194.125486 277.055578 
L 194.210167 276.007082 
L 194.569718 276.007082 
L 194.569718 275.482834 
L 194.874237 275.482834 
L 194.874237 274.958587 
L 195.010953 274.958587 
L 195.010953 273.910091 
L 195.844126 273.910091 
L 195.844126 272.337348 
L 196.010761 272.337348 
L 196.010761 271.8131 
L 196.479159 271.8131 
L 196.52259 270.240357 
L 196.829609 270.240357 
L 196.869757 269.191862 
L 197.024286 269.191862 
L 197.024286 268.143366 
L 197.91332 268.143366 
L 197.91332 267.619119 
L 198.093596 267.619119 
L 198.093596 267.094871 
L 198.661709 267.094871 
L 198.661709 266.570623 
L 199.074488 266.570623 
L 199.074488 266.046375 
L 199.439885 266.046375 
L 199.439885 265.522128 
L 200.280355 265.522128 
L 200.280355 264.473632 
L 200.935305 264.473632 
L 201.029933 261.852394 
L 201.744222 261.852394 
L 201.851381 260.803898 
L 202.023067 260.803898 
L 202.023067 259.755403 
L 202.310461 259.755403 
L 202.310461 259.231155 
L 203.075034 259.231155 
L 203.124834 258.18266 
L 203.811013 258.18266 
L 203.811013 257.658412 
L 204.017476 257.658412 
L 204.017476 256.609917 
L 204.215678 256.609917 
L 204.215678 256.085669 
L 204.661344 256.085669 
L 204.661344 255.561421 
L 204.833213 255.561421 
L 204.833213 254.512926 
L 205.889637 254.512926 
L 205.940392 252.940182 
L 206.38191 252.940182 
L 206.38191 252.415935 
L 206.516544 252.415935 
L 206.516544 251.367439 
L 207.122405 251.367439 
L 207.122405 250.843192 
L 207.622908 250.843192 
L 207.622908 250.318944 
L 207.868788 250.318944 
L 207.909978 248.221953 
L 208.546117 248.221953 
L 208.546117 247.173458 
L 210.010631 247.173458 
L 210.010631 246.64921 
L 210.777571 246.64921 
L 210.777571 246.124962 
L 215.675352 246.124962 
L 215.675352 245.600714 
L 216.323255 245.600714 
L 216.323255 244.552219 
L 216.809923 244.552219 
L 216.809923 243.503724 
L 217.299996 243.503724 
L 217.299996 242.979476 
L 218.722372 242.979476 
L 218.722372 242.455228 
L 222.596016 242.455228 
L 222.596016 241.406733 
L 223.263725 241.406733 
L 223.263725 240.882485 
L 223.481496 240.882485 
L 223.481496 240.358237 
L 224.070043 240.358237 
L 224.070043 239.83399 
L 224.665903 239.83399 
L 224.665903 238.785494 
L 226.907646 238.785494 
L 226.907646 238.261246 
L 227.0788 238.261246 
L 227.125588 237.212751 
L 227.405533 237.212751 
L 227.500478 236.164255 
L 229.089881 236.164255 
L 229.089881 235.11576 
L 230.900679 235.11576 
L 230.900679 234.591512 
L 233.243994 234.591512 
L 233.243994 234.067265 
L 233.966823 234.067265 
L 233.966823 233.543017 
L 234.532113 233.543017 
L 234.532113 233.018769 
L 235.868389 233.018769 
L 235.868389 232.494521 
L 236.267262 232.494521 
L 236.267262 231.446026 
L 237.578185 231.446026 
L 237.578185 230.921778 
L 238.582802 230.921778 
L 238.582802 230.397531 
L 239.643435 230.397531 
L 239.643435 229.873283 
L 239.777389 229.873283 
L 239.777389 228.824787 
L 239.997239 228.824787 
L 239.997239 227.776292 
L 240.251913 227.776292 
L 240.251913 227.252044 
L 241.412504 227.252044 
L 241.412504 226.727797 
L 241.801954 226.727797 
L 241.801954 226.203549 
L 243.221586 226.203549 
L 243.249332 225.155053 
L 243.781828 225.155053 
L 243.781828 224.630806 
L 247.269649 224.630806 
L 247.269649 223.58231 
L 247.458798 223.58231 
L 247.458798 222.533815 
L 248.471498 222.533815 
L 248.471498 222.009567 
L 248.995452 222.009567 
L 248.995452 220.961072 
L 250.454142 220.961072 
L 250.454142 219.912576 
L 251.15084 219.912576 
L 251.15084 219.388328 
L 251.78777 219.388328 
L 251.78777 218.864081 
L 253.551999 218.864081 
L 253.551999 217.815585 
L 254.425203 217.815585 
L 254.425203 217.291338 
L 254.76213 217.291338 
L 254.76213 215.718594 
L 256.549565 215.718594 
L 256.549565 215.194347 
L 257.960131 215.194347 
L 257.960131 214.145851 
L 259.528908 214.145851 
L 259.528908 213.621604 
L 260.971018 213.621604 
L 260.971018 213.097356 
L 262.850382 213.097356 
L 262.850382 212.573108 
L 263.115291 212.573108 
L 263.206408 211.000365 
L 263.756768 211.000365 
L 263.756768 210.476117 
L 265.334296 210.476117 
L 265.334296 209.95187 
L 267.866017 209.95187 
L 267.866017 209.427622 
L 270.750635 209.427622 
L 270.750635 208.903374 
L 275.569755 208.903374 
L 275.569755 208.379126 
L 278.127929 208.379126 
L 278.127929 207.854879 
L 283.354084 207.854879 
L 283.354084 207.330631 
L 284.47908 207.330631 
L 284.47908 206.806383 
L 286.909941 206.806383 
L 286.909941 206.282136 
L 287.830389 206.282136 
L 287.830389 205.23364 
L 288.426858 205.23364 
L 288.426858 204.709392 
L 289.855268 204.709392 
L 289.855268 204.185145 
L 290.634118 204.185145 
L 290.634118 203.660897 
L 290.914094 203.660897 
L 290.914094 203.136649 
L 294.5624 203.136649 
L 294.5624 202.612401 
L 296.507276 202.612401 
L 296.507276 202.088154 
L 297.39193 202.088154 
L 297.39193 201.563906 
L 298.736633 201.563906 
L 298.736633 201.039658 
L 299.840454 201.039658 
L 299.840454 199.466915 
L 300.53963 199.466915 
L 300.53963 198.942667 
L 301.697545 198.942667 
L 301.697545 198.41842 
L 303.006531 198.41842 
L 303.006531 197.894172 
L 306.424634 197.894172 
L 306.424634 197.369924 
L 308.376285 197.369924 
L 308.376285 196.845677 
L 308.559177 196.845677 
L 308.559177 196.321429 
L 309.015263 196.321429 
L 309.015263 195.797181 
L 313.175251 195.797181 
L 313.175251 195.272933 
L 333.429677 195.272933 
L 333.429677 195.272933 
" style="fill:none;stroke:#000080;stroke-linecap:square;stroke-width:1.5;"/>
   </g>
   <g id="line2d_30">
    <defs>
     <path d="M 0 6 
C 1.591219 6 3.117479 5.367802 4.242641 4.242641 
C 5.367802 3.117479 6 1.591219 6 0 
C 6 -1.591219 5.367802 -3.117479 4.242641 -4.242641 
C 3.117479 -5.367802 1.591219 -6 0 -6 
C -1.591219 -6 -3.117479 -5.367802 -4.242641 -4.242641 
C -5.367802 -3.117479 -6 -1.591219 -6 0 
C -6 1.591219 -5.367802 3.117479 -4.242641 4.242641 
C -3.117479 5.367802 -1.591219 6 0 6 
z
" id="m036dba1ba2" style="stroke:#000080;stroke-width:1.5;"/>
    </defs>
    <g>
     <use style="fill-opacity:0;stroke:#000080;stroke-width:1.5;" x="210.777571" xlink:href="#m036dba1ba2" y="246.124962"/>
     <use style="fill-opacity:0;stroke:#000080;stroke-width:1.5;" x="275.569755" xlink:href="#m036dba1ba2" y="208.379126"/>
     <use style="fill-opacity:0;stroke:#000080;stroke-width:1.5;" x="313.175251" xlink:href="#m036dba1ba2" y="195.272933"/>
     <use style="fill-opacity:0;stroke:#000080;stroke-width:1.5;" x="333.429677" xlink:href="#m036dba1ba2" y="195.272933"/>
    </g>
   </g>
   <g id="line2d_31">
    <path style="fill:none;stroke:#000080;stroke-linecap:square;stroke-width:1.5;"/>
    <g/>
   </g>
   <g id="line2d_32">
    <path clip-path="url(#p03e7b17f66)" d="M 258.037496 214.145851 
" style="fill:none;stroke:#000080;stroke-linecap:square;stroke-width:1.5;"/>
    <defs>
     <path d="M -12 12 
L 12 -12 
M -12 -12 
L 12 12 
" id="m7951feab40" style="stroke:#000080;stroke-width:3;"/>
    </defs>
    <g clip-path="url(#p03e7b17f66)">
     <use style="fill:#000080;stroke:#000080;stroke-width:3;" x="258.037496" xlink:href="#m7951feab40" y="214.145851"/>
    </g>
   </g>
   <g id="line2d_33">
    <defs>
     <path d="M 0 1.5 
C 0.397805 1.5 0.77937 1.341951 1.06066 1.06066 
C 1.341951 0.77937 1.5 0.397805 1.5 0 
C 1.5 -0.397805 1.341951 -0.77937 1.06066 -1.06066 
C 0.77937 -1.341951 0.397805 -1.5 0 -1.5 
C -0.397805 -1.5 -0.77937 -1.341951 -1.06066 -1.06066 
C -1.341951 -0.77937 -1.5 -0.397805 -1.5 0 
C -1.5 0.397805 -1.341951 0.77937 -1.06066 1.06066 
C -0.77937 1.341951 -0.397805 1.5 0 1.5 
z
" id="m32f202425b" style="stroke:#ff00ff;"/>
    </defs>
    <g>
     <use style="fill:#ff00ff;stroke:#ff00ff;" x="370.528052" xlink:href="#m32f202425b" y="79.938435"/>
     <use style="fill:#ff00ff;stroke:#ff00ff;" x="370.528052" xlink:href="#m32f202425b" y="79.938435"/>
    </g>
   </g>
   <g id="line2d_34">
    <path d="M 146.507166 294.88 
L 146.507166 292.783009 
L 148.230588 292.783009 
L 148.230588 292.258761 
L 148.503094 292.258761 
L 148.503094 291.734514 
L 149.188199 291.734514 
L 149.188199 291.210266 
L 149.867427 291.210266 
L 149.867427 290.161771 
L 150.211755 290.161771 
L 150.271491 288.589027 
L 150.454829 288.589027 
L 150.454829 288.06478 
L 150.669815 288.06478 
L 150.669815 287.540532 
L 152.004511 287.540532 
L 152.004511 287.016284 
L 152.257528 287.016284 
L 152.257528 286.492036 
L 152.470341 286.492036 
L 152.470341 285.967789 
L 152.760486 285.967789 
L 152.760486 285.443541 
L 153.022735 285.443541 
L 153.022735 284.919293 
L 153.282563 284.919293 
L 153.282563 284.395046 
L 153.761254 284.395046 
L 153.761254 283.34655 
L 154.23847 283.34655 
L 154.23847 282.822302 
L 154.952398 282.822302 
L 155.01972 281.249559 
L 155.381998 281.249559 
L 155.381998 280.725312 
L 155.703892 280.725312 
L 155.703892 279.152568 
L 156.10119 279.152568 
L 156.10119 278.104073 
L 156.678581 278.104073 
L 156.678581 277.055578 
L 157.480196 277.055578 
L 157.480196 276.53133 
L 157.879617 276.53133 
L 157.879617 276.007082 
L 159.477561 276.007082 
L 159.477561 274.958587 
L 160.11841 274.958587 
L 160.170329 273.385844 
L 160.832366 273.385844 
L 160.832366 272.861596 
L 161.061664 272.861596 
L 161.061664 272.337348 
L 161.773495 272.337348 
L 161.773495 271.8131 
L 162.0345 271.8131 
L 162.117302 270.764605 
L 162.642927 270.764605 
L 162.642927 270.240357 
L 162.949207 270.240357 
L 162.949207 269.716109 
L 163.239928 269.716109 
L 163.239928 268.667614 
L 163.927564 268.667614 
L 163.927564 267.619119 
L 164.054556 267.619119 
L 164.054556 267.094871 
L 164.649206 267.094871 
L 164.649206 266.570623 
L 164.847072 266.570623 
L 164.847072 266.046375 
L 165.368113 266.046375 
L 165.368113 265.522128 
L 165.507316 265.522128 
L 165.507316 264.99788 
L 166.964411 264.99788 
L 166.964411 263.949385 
L 167.219332 263.949385 
L 167.219332 263.425137 
L 167.635984 263.425137 
L 167.635984 262.900889 
L 168.325407 262.900889 
L 168.416914 261.852394 
L 169.153683 261.852394 
L 169.153683 260.803898 
L 169.762684 260.803898 
L 169.762684 260.279651 
L 170.956564 260.279651 
L 170.956564 259.755403 
L 171.103638 259.755403 
L 171.103638 259.231155 
L 171.302237 259.231155 
L 171.302237 258.706907 
L 171.686964 258.706907 
L 171.686964 258.18266 
L 173.939014 258.18266 
L 173.939014 256.609917 
L 174.382991 256.609917 
L 174.382991 256.085669 
L 174.911861 256.085669 
L 174.911861 255.561421 
L 175.300958 255.561421 
L 175.300958 255.037173 
L 176.648592 255.037173 
L 176.648592 254.512926 
L 177.728052 254.512926 
L 177.728052 253.988678 
L 177.895027 253.988678 
L 177.895027 253.46443 
L 178.426241 253.46443 
L 178.426241 252.940182 
L 179.256487 252.940182 
L 179.256487 252.415935 
L 180.150325 252.415935 
L 180.150325 250.843192 
L 197.071126 250.843192 
L 197.071126 250.318944 
L 197.297439 250.318944 
L 197.328188 249.270448 
L 197.722885 249.270448 
L 197.817853 247.697705 
L 197.889162 247.697705 
L 197.889162 247.173458 
L 198.04339 247.173458 
L 198.04339 246.64921 
L 198.19123 246.64921 
L 198.296738 245.076467 
L 198.352731 245.076467 
L 198.455719 242.455228 
L 198.472074 242.455228 
L 198.472074 241.93098 
L 198.59223 241.93098 
L 198.698022 239.83399 
L 198.833383 239.83399 
L 198.901362 237.212751 
L 199.053711 237.212751 
L 199.053711 236.688503 
L 199.195363 236.688503 
L 199.195363 236.164255 
L 199.640638 236.164255 
L 199.735913 235.11576 
L 199.909966 235.11576 
L 199.909966 234.591512 
L 200.068681 234.591512 
L 200.068681 233.543017 
L 208.216764 233.543017 
L 208.216764 233.018769 
L 208.60509 233.018769 
L 208.60509 232.494521 
L 208.821914 232.494521 
L 208.821914 231.970274 
L 209.663968 231.970274 
L 209.663968 230.397531 
L 210.483708 230.397531 
L 210.483708 229.873283 
L 210.917161 229.873283 
L 210.917161 229.349035 
L 215.523189 229.349035 
L 215.523189 227.776292 
L 216.061007 227.776292 
L 216.061007 227.252044 
L 220.158203 227.252044 
L 220.158203 226.203549 
L 223.774517 226.203549 
L 223.774517 225.679301 
L 224.355826 225.679301 
L 224.42721 224.630806 
L 224.685735 224.630806 
L 224.685735 223.58231 
L 224.894765 223.58231 
L 224.894765 222.533815 
L 226.706116 222.533815 
L 226.769058 221.485319 
L 227.510361 221.485319 
L 227.510361 220.436824 
L 227.690937 220.436824 
L 227.690937 219.912576 
L 229.230825 219.912576 
L 229.312527 218.339833 
L 229.369531 218.339833 
L 229.46587 215.194347 
L 229.49746 215.194347 
L 229.602899 213.097356 
L 229.794563 213.097356 
L 229.794563 212.573108 
L 231.719813 212.573108 
L 231.80562 211.000365 
L 231.83176 211.000365 
L 231.850862 209.95187 
L 236.855806 209.95187 
L 236.912907 207.854879 
L 237.072753 207.854879 
L 237.162007 204.185145 
L 237.224149 204.185145 
L 237.306264 202.088154 
L 237.360199 202.088154 
L 237.360199 201.563906 
L 237.491898 201.563906 
L 237.491898 200.515411 
L 238.337085 200.515411 
L 238.404829 198.942667 
L 238.632173 198.942667 
L 238.632173 198.41842 
L 240.846606 198.41842 
L 240.909045 196.321429 
L 242.604731 196.321429 
L 242.664857 193.70019 
L 242.725318 193.70019 
L 242.82485 192.651695 
L 245.729385 192.651695 
L 245.729385 191.603199 
L 246.348345 191.603199 
L 246.418519 189.506209 
L 247.862539 189.506209 
L 247.957397 186.360722 
L 251.466758 186.360722 
L 251.47837 184.787979 
L 255.05287 184.787979 
L 255.05287 184.263731 
L 255.16904 184.263731 
L 255.206262 183.215236 
L 256.640157 183.215236 
L 256.640157 182.690988 
L 258.003531 182.690988 
L 258.113891 180.06975 
L 258.127366 180.06975 
L 258.195268 177.972759 
L 259.493928 177.972759 
L 259.506067 176.400016 
L 259.821259 176.400016 
L 259.86113 174.827272 
L 262.120414 174.827272 
L 262.153721 171.681786 
L 264.471986 171.681786 
L 264.517346 168.5363 
L 264.718121 168.5363 
L 264.817119 165.390813 
L 264.982888 165.390813 
L 264.982888 164.866566 
L 265.942652 164.866566 
L 265.970527 163.81807 
L 269.629381 163.81807 
L 269.629381 163.293823 
L 272.121457 163.293823 
L 272.140005 162.245327 
L 274.703249 162.245327 
L 274.703249 161.196832 
L 275.259637 161.196832 
L 275.259637 160.672584 
L 277.514581 160.672584 
L 277.56552 154.905859 
L 278.455875 154.905859 
L 278.463217 153.857364 
L 282.654029 153.857364 
L 282.664157 149.139134 
L 282.871682 149.139134 
L 282.871682 148.614886 
L 283.914418 148.614886 
L 283.914418 148.090639 
L 284.162221 148.090639 
L 284.167803 145.993648 
L 285.418859 145.993648 
L 285.418859 145.4694 
L 286.770752 145.4694 
L 286.775438 143.372409 
L 287.810946 143.372409 
L 287.820818 141.799666 
L 288.497795 141.799666 
L 288.502221 140.226923 
L 291.06454 140.226923 
L 291.067825 139.178427 
L 292.043549 139.178427 
L 292.043549 138.65418 
L 294.453512 138.65418 
L 294.453512 138.129932 
L 295.851283 138.129932 
L 295.855706 136.032941 
L 296.690055 136.032941 
L 296.690055 134.984446 
L 298.108153 134.984446 
L 298.109167 133.411703 
L 299.459797 133.411703 
L 299.466118 129.741969 
L 301.582344 129.741969 
L 301.585888 128.169225 
L 302.048999 128.169225 
L 302.048999 127.644978 
L 302.57612 127.644978 
L 302.581931 126.072235 
L 303.002577 126.072235 
L 303.002577 125.547987 
L 304.868021 125.547987 
L 304.878109 122.4025 
L 306.629191 122.4025 
L 306.629191 121.878253 
L 306.789161 121.878253 
L 306.789951 120.829757 
L 308.792298 120.829757 
L 308.796642 117.684271 
L 310.059785 117.684271 
L 310.06062 116.635776 
L 310.672449 116.635776 
L 310.676075 114.014537 
L 312.139427 114.014537 
L 312.139427 113.490289 
L 312.311888 113.490289 
L 312.311888 112.966042 
L 313.424169 112.966042 
L 313.424169 112.441794 
L 314.810577 112.441794 
L 314.812319 109.820555 
L 315.711953 109.820555 
L 315.711953 109.296308 
L 316.156216 109.296308 
L 316.156362 108.247812 
L 319.260371 108.247812 
L 319.260905 107.199317 
L 320.308239 107.199317 
L 320.30824 106.150821 
L 321.932882 106.150821 
L 321.932882 105.626573 
L 322.791458 105.626573 
L 322.792676 102.481087 
L 323.649784 102.481087 
L 323.65054 100.908344 
L 325.721192 100.908344 
L 325.721533 99.859849 
L 326.204762 99.859849 
L 326.204762 99.335601 
L 326.447715 99.335601 
L 326.447715 98.811353 
L 328.222676 98.811353 
L 328.223406 97.23861 
L 328.852526 97.23861 
L 328.852526 96.714362 
L 330.407227 96.714362 
L 330.407227 96.190115 
L 330.962849 96.190115 
L 330.962849 95.665867 
L 332.344338 95.665867 
L 332.344681 93.568876 
L 333.429677 93.568876 
L 333.429677 93.568876 
" style="fill:none;stroke:#ff00ff;stroke-linecap:square;stroke-width:1.5;"/>
   </g>
   <g id="line2d_35">
    <defs>
     <path d="M -0 8.485281 
L 5.091169 0 
L 0 -8.485281 
L -5.091169 -0 
z
" id="m7154d7b65e" style="stroke:#ff00ff;stroke-linejoin:miter;stroke-width:1.5;"/>
    </defs>
    <g>
     <use style="fill-opacity:0;stroke:#ff00ff;stroke-linejoin:miter;stroke-width:1.5;" x="199.909966" xlink:href="#m7154d7b65e" y="234.591512"/>
     <use style="fill-opacity:0;stroke:#ff00ff;stroke-linejoin:miter;stroke-width:1.5;" x="247.957397" xlink:href="#m7154d7b65e" y="186.360722"/>
     <use style="fill-opacity:0;stroke:#ff00ff;stroke-linejoin:miter;stroke-width:1.5;" x="303.002577" xlink:href="#m7154d7b65e" y="125.547987"/>
     <use style="fill-opacity:0;stroke:#ff00ff;stroke-linejoin:miter;stroke-width:1.5;" x="332.344681" xlink:href="#m7154d7b65e" y="93.568876"/>
     <use style="fill-opacity:0;stroke:#ff00ff;stroke-linejoin:miter;stroke-width:1.5;" x="333.429677" xlink:href="#m7154d7b65e" y="93.568876"/>
    </g>
   </g>
   <g id="line2d_36">
    <path style="fill:none;stroke:#ff00ff;stroke-linecap:square;stroke-width:1.5;"/>
    <g/>
   </g>
   <g id="line2d_37">
    <path clip-path="url(#p03e7b17f66)" d="M 293.814021 138.65418 
" style="fill:none;stroke:#ff00ff;stroke-linecap:square;stroke-width:1.5;"/>
    <defs>
     <path d="M -12 12 
L 12 -12 
M -12 -12 
L 12 12 
" id="m9e20c65c7e" style="stroke:#ff00ff;stroke-width:3;"/>
    </defs>
    <g clip-path="url(#p03e7b17f66)">
     <use style="fill:#ff00ff;stroke:#ff00ff;stroke-width:3;" x="293.814021" xlink:href="#m9e20c65c7e" y="138.65418"/>
    </g>
   </g>
   <g id="line2d_38">
    <defs>
     <path d="M 0 1.5 
C 0.397805 1.5 0.77937 1.341951 1.06066 1.06066 
C 1.341951 0.77937 1.5 0.397805 1.5 0 
C 1.5 -0.397805 1.341951 -0.77937 1.06066 -1.06066 
C 0.77937 -1.341951 0.397805 -1.5 0 -1.5 
C -0.397805 -1.5 -0.77937 -1.341951 -1.06066 -1.06066 
C -1.341951 -0.77937 -1.5 -0.397805 -1.5 0 
C -1.5 0.397805 -1.341951 0.77937 -1.06066 1.06066 
C -0.77937 1.341951 -0.397805 1.5 0 1.5 
z
" id="ma03a612494" style="stroke:#ffa500;"/>
    </defs>
    <g>
     <use style="fill:#ffa500;stroke:#ffa500;" x="305.141838" xlink:href="#ma03a612494" y="284.395046"/>
     <use style="fill:#ffa500;stroke:#ffa500;" x="305.141838" xlink:href="#ma03a612494" y="284.395046"/>
    </g>
   </g>
   <g id="line2d_39">
    <path d="M 215.501307 294.88 
L 215.501307 294.355752 
L 216.631466 294.355752 
L 216.631466 293.307257 
L 218.521122 293.307257 
L 218.521122 292.258761 
L 221.018155 292.258761 
L 221.018155 291.210266 
L 225.403535 291.210266 
L 225.403535 290.686018 
L 231.652166 290.686018 
L 231.652166 290.161771 
L 232.301514 290.161771 
L 232.301514 289.637523 
L 234.440854 289.637523 
L 234.440854 288.589027 
L 256.235843 288.589027 
L 256.235843 288.06478 
L 258.3065 288.06478 
L 258.3065 286.492036 
L 258.93783 286.492036 
L 258.93783 285.967789 
L 298.681231 285.967789 
L 298.681231 285.443541 
L 303.214203 285.443541 
L 303.214203 284.919293 
L 305.141838 284.919293 
L 305.141838 284.395046 
L 333.429677 284.395046 
" style="fill:none;stroke:#ffa500;stroke-linecap:square;stroke-width:1.5;"/>
   </g>
   <g id="line2d_40">
    <defs>
     <path d="M 0 -6 
L -1.347084 -1.854102 
L -5.706339 -1.854102 
L -2.179628 0.708204 
L -3.526712 4.854102 
L -0 2.291796 
L 3.526712 4.854102 
L 2.179628 0.708204 
L 5.706339 -1.854102 
L 1.347084 -1.854102 
z
" id="m4d1acf4c86" style="stroke:#ffa500;stroke-linejoin:bevel;stroke-width:1.5;"/>
    </defs>
    <g>
     <use style="fill-opacity:0;stroke:#ffa500;stroke-linejoin:bevel;stroke-width:1.5;" x="234.440854" xlink:href="#m4d1acf4c86" y="288.589027"/>
     <use style="fill-opacity:0;stroke:#ffa500;stroke-linejoin:bevel;stroke-width:1.5;" x="305.141838" xlink:href="#m4d1acf4c86" y="284.919293"/>
     <use style="fill-opacity:0;stroke:#ffa500;stroke-linejoin:bevel;stroke-width:1.5;" x="305.141838" xlink:href="#m4d1acf4c86" y="284.395046"/>
     <use style="fill-opacity:0;stroke:#ffa500;stroke-linejoin:bevel;stroke-width:1.5;" x="333.429677" xlink:href="#m4d1acf4c86" y="284.395046"/>
    </g>
   </g>
   <g id="line2d_41">
    <path style="fill:none;stroke:#ffa500;stroke-linecap:square;stroke-width:1.5;"/>
    <g/>
   </g>
   <g id="line2d_42">
    <path clip-path="url(#p03e7b17f66)" d="M 254.198341 288.589027 
" style="fill:none;stroke:#ffa500;stroke-linecap:square;stroke-width:1.5;"/>
    <defs>
     <path d="M -12 12 
L 12 -12 
M -12 -12 
L 12 12 
" id="ma1abce35e6" style="stroke:#ffa500;stroke-width:3;"/>
    </defs>
    <g clip-path="url(#p03e7b17f66)">
     <use style="fill:#ffa500;stroke:#ffa500;stroke-width:3;" x="254.198341" xlink:href="#ma1abce35e6" y="288.589027"/>
    </g>
   </g>
   <g id="line2d_43">
    <defs>
     <path d="M 0 1.5 
C 0.397805 1.5 0.77937 1.341951 1.06066 1.06066 
C 1.341951 0.77937 1.5 0.397805 1.5 0 
C 1.5 -0.397805 1.341951 -0.77937 1.06066 -1.06066 
C 0.77937 -1.341951 0.397805 -1.5 0 -1.5 
C -0.397805 -1.5 -0.77937 -1.341951 -1.06066 -1.06066 
C -1.341951 -0.77937 -1.5 -0.397805 -1.5 0 
C -1.5 0.397805 -1.341951 0.77937 -1.06066 1.06066 
C -0.77937 1.341951 -0.397805 1.5 0 1.5 
z
" id="m1c8b3ffeb0" style="stroke:#ff0000;"/>
    </defs>
    <g>
     <use style="fill:#ff0000;stroke:#ff0000;" x="286.221975" xlink:href="#m1c8b3ffeb0" y="95.665867"/>
     <use style="fill:#ff0000;stroke:#ff0000;" x="286.221975" xlink:href="#m1c8b3ffeb0" y="95.665867"/>
    </g>
   </g>
   <g id="line2d_44">
    <path d="M 104.788984 294.88 
L 104.788984 294.355752 
L 105.339187 294.355752 
L 105.339187 293.831505 
L 106.665114 293.831505 
L 106.665114 293.307257 
L 106.778678 293.307257 
L 106.778678 292.258761 
L 107.070483 292.258761 
L 107.070483 291.734514 
L 107.466521 291.734514 
L 107.466521 291.210266 
L 107.618107 291.210266 
L 107.72557 290.161771 
L 108.211437 290.161771 
L 108.211437 289.637523 
L 108.541516 289.637523 
L 108.643381 288.589027 
L 108.784985 288.589027 
L 108.845318 286.492036 
L 109.610977 286.492036 
L 109.649338 285.443541 
L 109.744868 285.443541 
L 109.820912 283.870798 
L 110.028316 283.870798 
L 110.028316 283.34655 
L 110.654016 283.34655 
L 110.654016 282.298055 
L 111.465883 282.298055 
L 111.500328 281.249559 
L 111.722549 281.249559 
L 111.807261 279.676816 
L 112.339756 279.676816 
L 112.339756 278.628321 
L 112.856263 278.628321 
L 112.856263 277.055578 
L 113.2648 277.055578 
L 113.2648 276.53133 
L 113.450132 276.53133 
L 113.557328 274.958587 
L 113.739553 274.958587 
L 113.739553 274.434339 
L 113.904913 274.434339 
L 113.904913 273.910091 
L 114.024185 273.910091 
L 114.024185 273.385844 
L 114.142635 273.385844 
L 114.142635 272.861596 
L 114.420729 272.861596 
L 114.420729 271.8131 
L 114.637146 271.8131 
L 114.637146 271.288853 
L 114.865028 271.288853 
L 114.865028 270.764605 
L 115.047985 270.764605 
L 115.047985 270.240357 
L 115.339482 270.240357 
L 115.339482 269.716109 
L 115.934679 269.716109 
L 116.00103 266.570623 
L 116.302993 266.570623 
L 116.302993 266.046375 
L 116.548504 266.046375 
L 116.625311 264.473632 
L 117.054194 264.473632 
L 117.054194 263.949385 
L 117.276994 263.949385 
L 117.276994 263.425137 
L 117.44831 263.425137 
L 117.44831 262.900889 
L 118.140416 262.900889 
L 118.140416 261.852394 
L 118.407343 261.852394 
L 118.407343 261.328146 
L 119.359368 261.328146 
L 119.359368 260.803898 
L 120.750735 260.803898 
L 120.750735 259.755403 
L 121.536482 259.755403 
L 121.536482 259.231155 
L 121.81268 259.231155 
L 121.81268 258.706907 
L 122.306277 258.706907 
L 122.306277 257.658412 
L 123.817062 257.658412 
L 123.817062 256.609917 
L 142.168871 256.609917 
L 142.168871 255.561421 
L 142.484302 255.561421 
L 142.484302 255.037173 
L 142.60323 255.037173 
L 142.60323 253.988678 
L 142.877573 253.988678 
L 142.877573 253.46443 
L 143.08187 253.46443 
L 143.188571 252.415935 
L 143.207653 252.415935 
L 143.207653 251.891687 
L 143.38114 251.891687 
L 143.47528 250.318944 
L 143.510116 250.318944 
L 143.510116 249.794696 
L 143.677944 249.794696 
L 143.778387 246.64921 
L 143.804723 246.64921 
L 143.804723 246.124962 
L 144.15636 246.124962 
L 144.15636 245.600714 
L 144.279674 245.600714 
L 144.279674 245.076467 
L 144.541341 245.076467 
L 144.541341 244.552219 
L 144.699449 244.552219 
L 144.699449 244.027971 
L 144.841259 244.027971 
L 144.841259 243.503724 
L 145.235608 243.503724 
L 145.341826 242.455228 
L 145.970362 242.455228 
L 145.970362 241.93098 
L 152.66641 241.93098 
L 152.66641 240.882485 
L 152.880468 240.882485 
L 152.880468 239.83399 
L 153.691775 239.83399 
L 153.691775 239.309742 
L 153.834861 239.309742 
L 153.853948 237.736999 
L 153.968023 237.736999 
L 154.043655 236.164255 
L 154.364283 236.164255 
L 154.364283 235.640008 
L 159.170056 235.640008 
L 159.170056 235.11576 
L 159.631374 235.11576 
L 159.631374 234.067265 
L 159.837797 234.067265 
L 159.837797 233.018769 
L 160.161178 233.018769 
L 160.161178 232.494521 
L 160.404549 232.494521 
L 160.404549 231.446026 
L 160.517486 231.446026 
L 160.517486 230.921778 
L 160.662316 230.921778 
L 160.662316 230.397531 
L 160.800058 230.397531 
L 160.800058 229.873283 
L 162.96736 229.873283 
L 162.96736 229.349035 
L 163.210991 229.349035 
L 163.210991 228.824787 
L 163.387261 228.824787 
L 163.48311 227.776292 
L 163.548385 227.776292 
L 163.659119 225.679301 
L 163.680683 225.679301 
L 163.763371 224.630806 
L 163.961846 224.630806 
L 163.961846 224.106558 
L 164.091824 224.106558 
L 164.091824 223.58231 
L 166.573051 223.58231 
L 166.573051 223.058063 
L 167.294742 223.058063 
L 167.294742 222.009567 
L 167.703034 222.009567 
L 167.703034 220.961072 
L 167.916243 220.961072 
L 167.916243 220.436824 
L 170.202857 220.436824 
L 170.202857 219.912576 
L 170.403657 219.912576 
L 170.403657 219.388328 
L 172.430036 219.388328 
L 172.485773 217.291338 
L 172.55816 217.291338 
L 172.624331 215.718594 
L 172.962539 215.718594 
L 172.962539 214.145851 
L 175.305176 214.145851 
L 175.349403 212.573108 
L 175.428307 212.573108 
L 175.52768 211.524613 
L 178.295942 211.524613 
L 178.295942 211.000365 
L 178.498556 211.000365 
L 178.593576 208.903374 
L 178.631854 208.903374 
L 178.733401 207.854879 
L 178.870043 207.854879 
L 178.870043 206.806383 
L 179.010709 206.806383 
L 179.010709 205.757888 
L 180.005556 205.757888 
L 180.042423 204.709392 
L 180.119428 204.709392 
L 180.119428 203.660897 
L 180.250278 203.660897 
L 180.298934 202.088154 
L 181.382235 202.088154 
L 181.382235 201.039658 
L 183.96483 201.039658 
L 184.073606 198.41842 
L 184.12698 198.41842 
L 184.200319 195.797181 
L 184.283361 195.797181 
L 184.283361 195.272933 
L 185.679054 195.272933 
L 185.725147 193.175943 
L 185.846016 193.175943 
L 185.846016 192.651695 
L 186.8981 192.651695 
L 186.953907 190.554704 
L 188.388596 190.554704 
L 188.448229 187.933465 
L 188.539931 187.933465 
L 188.641252 183.739484 
L 190.574036 183.739484 
L 190.640755 182.16674 
L 191.450235 182.16674 
L 191.502299 181.118245 
L 194.759992 181.118245 
L 194.848794 177.448511 
L 194.872073 177.448511 
L 194.982084 175.875768 
L 194.984234 175.875768 
L 195.081245 172.206034 
L 195.097138 172.206034 
L 195.17997 170.633291 
L 195.973504 170.633291 
L 195.973504 170.109043 
L 198.384078 170.109043 
L 198.472623 166.963557 
L 202.504488 166.963557 
L 202.551811 165.915061 
L 203.274455 165.915061 
L 203.295936 164.866566 
L 207.597299 164.866566 
L 207.597299 164.342318 
L 208.818788 164.342318 
L 208.855908 161.721079 
L 211.200475 161.721079 
L 211.21743 160.672584 
L 211.970121 160.672584 
L 211.970121 160.148336 
L 213.24712 160.148336 
L 213.24712 159.624089 
L 215.330549 159.624089 
L 215.330549 159.099841 
L 215.680921 159.099841 
L 215.709104 158.051345 
L 217.718236 158.051345 
L 217.718236 157.527098 
L 217.988956 157.527098 
L 218.023818 155.954354 
L 219.33095 155.954354 
L 219.408423 150.711877 
L 221.51374 150.711877 
L 221.51374 150.18763 
L 221.774384 150.18763 
L 221.774384 149.663382 
L 223.355334 149.663382 
L 223.361558 148.090639 
L 223.892246 148.090639 
L 223.892246 147.566391 
L 225.251582 147.566391 
L 225.251582 147.042143 
L 226.886284 147.042143 
L 226.886284 146.517896 
L 228.309818 146.517896 
L 228.309818 145.993648 
L 229.056272 145.993648 
L 229.08442 143.896657 
L 231.449647 143.896657 
L 231.455537 142.323914 
L 233.737227 142.323914 
L 233.737227 141.799666 
L 235.222594 141.799666 
L 235.241659 139.178427 
L 236.929533 139.178427 
L 236.935153 136.557189 
L 238.620189 136.557189 
L 238.62388 135.508693 
L 239.360805 135.508693 
L 239.360805 134.984446 
L 239.754958 134.984446 
L 239.768406 132.887455 
L 241.08248 132.887455 
L 241.08248 132.363207 
L 243.33912 132.363207 
L 243.341675 130.790464 
L 246.300082 130.790464 
L 246.314106 128.693473 
L 248.831233 128.693473 
L 248.831233 128.169225 
L 249.292397 128.169225 
L 249.292397 127.644978 
L 249.626355 127.644978 
L 249.626355 127.12073 
L 251.035865 127.12073 
L 251.035865 126.596482 
L 251.44069 126.596482 
L 251.44069 126.072235 
L 251.733423 126.072235 
L 251.734609 125.023739 
L 252.986252 125.023739 
L 252.987078 123.975244 
L 253.613019 123.975244 
L 253.613019 123.450996 
L 254.739867 123.450996 
L 254.739867 122.926748 
L 255.306896 122.926748 
L 255.306896 122.4025 
L 256.331845 122.4025 
L 256.331845 121.878253 
L 256.629857 121.878253 
L 256.629857 121.354005 
L 256.848829 121.354005 
L 256.848832 120.30551 
L 257.787658 120.30551 
L 257.787658 119.781262 
L 258.263488 119.781262 
L 258.263488 119.257014 
L 259.131421 119.257014 
L 259.131437 118.208519 
L 259.571731 118.208519 
L 259.571731 117.684271 
L 260.376858 117.684271 
L 260.376858 117.160023 
L 261.536879 117.160023 
L 261.538639 115.58728 
L 261.92132 115.58728 
L 261.922311 114.538785 
L 262.624841 114.538785 
L 262.624841 114.014537 
L 262.986272 114.014537 
L 262.986272 113.490289 
L 263.648428 113.490289 
L 263.648428 112.966042 
L 263.988261 112.966042 
L 263.989425 111.917546 
L 264.93563 111.917546 
L 264.935644 110.869051 
L 265.528597 110.869051 
L 265.529011 109.820555 
L 265.833803 109.820555 
L 265.833803 109.296308 
L 266.397528 109.296308 
L 266.397867 108.247812 
L 267.500188 108.247812 
L 267.500188 107.723564 
L 268.276536 107.723564 
L 268.276768 106.675069 
L 269.731636 106.675069 
L 269.731636 106.150821 
L 270.181553 106.150821 
L 270.182622 104.578078 
L 270.84902 104.578078 
L 270.84902 104.05383 
L 271.706031 104.05383 
L 271.706031 103.529583 
L 272.317675 103.529583 
L 272.317675 103.005335 
L 273.28284 103.005335 
L 273.28284 102.481087 
L 273.841128 102.481087 
L 273.841128 101.956839 
L 274.564685 101.956839 
L 274.564685 101.432592 
L 275.083779 101.432592 
L 275.083779 100.908344 
L 275.908604 100.908344 
L 275.909194 99.859849 
L 276.388784 99.859849 
L 276.389523 98.811353 
L 276.552129 98.811353 
L 276.552129 98.287105 
L 280.57348 98.287105 
L 280.57348 97.762858 
L 281.773548 97.762858 
L 281.773548 97.23861 
L 284.829254 97.23861 
L 284.829254 96.714362 
L 286.221784 96.714362 
L 286.221975 95.665867 
L 333.429677 95.665867 
L 333.429677 95.665867 
" style="fill:none;stroke:#ff0000;stroke-linecap:square;stroke-width:1.5;"/>
   </g>
   <g id="line2d_45">
    <defs>
     <path d="M 0 -6 
L -5.196152 -3 
L -5.196152 3 
L -0 6 
L 5.196152 3 
L 5.196152 -3 
z
" id="me1c01df5d0" style="stroke:#ff0000;stroke-linejoin:miter;stroke-width:1.5;"/>
    </defs>
    <g>
     <use style="fill-opacity:0;stroke:#ff0000;stroke-linejoin:miter;stroke-width:1.5;" x="153.853948" xlink:href="#me1c01df5d0" y="238.785494"/>
     <use style="fill-opacity:0;stroke:#ff0000;stroke-linejoin:miter;stroke-width:1.5;" x="208.855908" xlink:href="#me1c01df5d0" y="161.721079"/>
     <use style="fill-opacity:0;stroke:#ff0000;stroke-linejoin:miter;stroke-width:1.5;" x="281.773548" xlink:href="#me1c01df5d0" y="97.762858"/>
     <use style="fill-opacity:0;stroke:#ff0000;stroke-linejoin:miter;stroke-width:1.5;" x="286.221975" xlink:href="#me1c01df5d0" y="95.665867"/>
     <use style="fill-opacity:0;stroke:#ff0000;stroke-linejoin:miter;stroke-width:1.5;" x="333.429677" xlink:href="#me1c01df5d0" y="95.665867"/>
    </g>
   </g>
   <g id="line2d_46">
    <path style="fill:none;stroke:#ff0000;stroke-linecap:square;stroke-width:1.5;"/>
    <g/>
   </g>
   <g id="line2d_47">
    <path clip-path="url(#p03e7b17f66)" d="M 214.582931 159.624089 
" style="fill:none;stroke:#ff0000;stroke-linecap:square;stroke-width:1.5;"/>
    <defs>
     <path d="M -12 12 
L 12 -12 
M -12 -12 
L 12 12 
" id="mbd75dcc1e2" style="stroke:#ff0000;stroke-width:3;"/>
    </defs>
    <g clip-path="url(#p03e7b17f66)">
     <use style="fill:#ff0000;stroke:#ff0000;stroke-width:3;" x="214.582931" xlink:href="#mbd75dcc1e2" y="159.624089"/>
    </g>
   </g>
   <g id="line2d_48">
    <path d="M 333.429677 284.395046 
L 363.933742 289.532673 
" style="fill:none;stroke:#ffa500;stroke-linecap:square;stroke-width:1.5;"/>
    <g>
     <use style="fill-opacity:0;stroke:#ffa500;stroke-linejoin:bevel;stroke-width:1.5;" x="333.429677" xlink:href="#m4d1acf4c86" y="284.395046"/>
     <use style="fill-opacity:0;stroke:#ffa500;stroke-linejoin:bevel;stroke-width:1.5;" x="363.933742" xlink:href="#m4d1acf4c86" y="289.532673"/>
    </g>
   </g>
   <g id="line2d_49">
    <path d="M 333.429677 195.272933 
L 363.933742 225.364752 
" style="fill:none;stroke:#000080;stroke-linecap:square;stroke-width:1.5;"/>
    <g>
     <use style="fill-opacity:0;stroke:#000080;stroke-width:1.5;" x="333.429677" xlink:href="#m036dba1ba2" y="195.272933"/>
     <use style="fill-opacity:0;stroke:#000080;stroke-width:1.5;" x="363.933742" xlink:href="#m036dba1ba2" y="225.364752"/>
    </g>
   </g>
   <g id="line2d_50">
    <path d="M 333.429677 95.665867 
L 363.933742 161.196832 
" style="fill:none;stroke:#ff0000;stroke-linecap:square;stroke-width:1.5;"/>
    <g>
     <use style="fill-opacity:0;stroke:#ff0000;stroke-linejoin:miter;stroke-width:1.5;" x="333.429677" xlink:href="#me1c01df5d0" y="95.665867"/>
     <use style="fill-opacity:0;stroke:#ff0000;stroke-linejoin:miter;stroke-width:1.5;" x="363.933742" xlink:href="#me1c01df5d0" y="161.196832"/>
    </g>
   </g>
   <g id="line2d_51">
    <path d="M 333.429677 93.568876 
L 363.933742 97.028911 
" style="fill:none;stroke:#ff00ff;stroke-linecap:square;stroke-width:1.5;"/>
    <g>
     <use style="fill-opacity:0;stroke:#ff00ff;stroke-linejoin:miter;stroke-width:1.5;" x="333.429677" xlink:href="#m7154d7b65e" y="93.568876"/>
     <use style="fill-opacity:0;stroke:#ff00ff;stroke-linejoin:miter;stroke-width:1.5;" x="363.933742" xlink:href="#m7154d7b65e" y="97.028911"/>
    </g>
   </g>
   <g id="line2d_52">
    <path d="M 333.429677 294.88 
L 333.429677 27.513663 
" style="fill:none;stroke:#000000;stroke-linecap:square;stroke-width:1.5;"/>
   </g>
   <g id="patch_3">
    <path d="M 56.12 294.88 
L 56.12 24.84 
" style="fill:none;stroke:#000000;stroke-linecap:square;stroke-linejoin:miter;stroke-width:0.8;"/>
   </g>
   <g id="patch_4">
    <path d="M 399.984 294.88 
L 399.984 24.84 
" style="fill:none;stroke:#000000;stroke-linecap:square;stroke-linejoin:miter;stroke-width:0.8;"/>
   </g>
   <g id="patch_5">
    <path d="M 56.12 294.88 
L 399.984 294.88 
" style="fill:none;stroke:#000000;stroke-linecap:square;stroke-linejoin:miter;stroke-width:0.8;"/>
   </g>
   <g id="patch_6">
    <path d="M 56.12 24.84 
L 399.984 24.84 
" style="fill:none;stroke:#000000;stroke-linecap:square;stroke-linejoin:miter;stroke-width:0.8;"/>
   </g>
   <g id="text_14">
    <!-- GA -->
    <defs>
     <path d="M 59.515625 10.40625 
L 59.515625 29.984375 
L 43.40625 29.984375 
L 43.40625 38.09375 
L 69.28125 38.09375 
L 69.28125 6.78125 
Q 63.578125 2.734375 56.6875 0.65625 
Q 49.8125 -1.421875 42 -1.421875 
Q 24.90625 -1.421875 15.25 8.5625 
Q 5.609375 18.5625 5.609375 36.375 
Q 5.609375 54.25 15.25 64.234375 
Q 24.90625 74.21875 42 74.21875 
Q 49.125 74.21875 55.546875 72.453125 
Q 61.96875 70.703125 67.390625 67.28125 
L 67.390625 56.78125 
Q 61.921875 61.421875 55.765625 63.765625 
Q 49.609375 66.109375 42.828125 66.109375 
Q 29.4375 66.109375 22.71875 58.640625 
Q 16.015625 51.171875 16.015625 36.375 
Q 16.015625 21.625 22.71875 14.15625 
Q 29.4375 6.6875 42.828125 6.6875 
Q 48.046875 6.6875 52.140625 7.59375 
Q 56.25 8.5 59.515625 10.40625 
z
" id="DejaVuSans-47"/>
     <path d="M 34.1875 63.1875 
L 20.796875 26.90625 
L 47.609375 26.90625 
z
M 28.609375 72.90625 
L 39.796875 72.90625 
L 67.578125 0 
L 57.328125 0 
L 50.6875 18.703125 
L 17.828125 18.703125 
L 11.1875 0 
L 0.78125 0 
z
" id="DejaVuSans-41"/>
    </defs>
    <g transform="translate(369.479935 294.223611)scale(0.17 -0.17)">
     <use xlink:href="#DejaVuSans-47"/>
     <use x="77.490234" xlink:href="#DejaVuSans-41"/>
    </g>
   </g>
   <g id="text_15">
    <!-- ALPS -->
    <defs>
     <path d="M 9.8125 72.90625 
L 19.671875 72.90625 
L 19.671875 8.296875 
L 55.171875 8.296875 
L 55.171875 0 
L 9.8125 0 
z
" id="DejaVuSans-4c"/>
     <path d="M 19.671875 64.796875 
L 19.671875 37.40625 
L 32.078125 37.40625 
Q 38.96875 37.40625 42.71875 40.96875 
Q 46.484375 44.53125 46.484375 51.125 
Q 46.484375 57.671875 42.71875 61.234375 
Q 38.96875 64.796875 32.078125 64.796875 
z
M 9.8125 72.90625 
L 32.078125 72.90625 
Q 44.34375 72.90625 50.609375 67.359375 
Q 56.890625 61.8125 56.890625 51.125 
Q 56.890625 40.328125 50.609375 34.8125 
Q 44.34375 29.296875 32.078125 29.296875 
L 19.671875 29.296875 
L 19.671875 0 
L 9.8125 0 
z
" id="DejaVuSans-50"/>
     <path d="M 53.515625 70.515625 
L 53.515625 60.890625 
Q 47.90625 63.578125 42.921875 64.890625 
Q 37.9375 66.21875 33.296875 66.21875 
Q 25.25 66.21875 20.875 63.09375 
Q 16.5 59.96875 16.5 54.203125 
Q 16.5 49.359375 19.40625 46.890625 
Q 22.3125 44.4375 30.421875 42.921875 
L 36.375 41.703125 
Q 47.40625 39.59375 52.65625 34.296875 
Q 57.90625 29 57.90625 20.125 
Q 57.90625 9.515625 50.796875 4.046875 
Q 43.703125 -1.421875 29.984375 -1.421875 
Q 24.8125 -1.421875 18.96875 -0.25 
Q 13.140625 0.921875 6.890625 3.21875 
L 6.890625 13.375 
Q 12.890625 10.015625 18.65625 8.296875 
Q 24.421875 6.59375 29.984375 6.59375 
Q 38.421875 6.59375 43.015625 9.90625 
Q 47.609375 13.234375 47.609375 19.390625 
Q 47.609375 24.75 44.3125 27.78125 
Q 41.015625 30.8125 33.5 32.328125 
L 27.484375 33.5 
Q 16.453125 35.6875 11.515625 40.375 
Q 6.59375 45.0625 6.59375 53.421875 
Q 6.59375 63.09375 13.40625 68.65625 
Q 20.21875 74.21875 32.171875 74.21875 
Q 37.3125 74.21875 42.625 73.28125 
Q 47.953125 72.359375 53.515625 70.515625 
z
" id="DejaVuSans-53"/>
    </defs>
    <g transform="translate(369.479935 230.05569)scale(0.17 -0.17)">
     <use xlink:href="#DejaVuSans-41"/>
     <use x="68.408203" xlink:href="#DejaVuSans-4c"/>
     <use x="124.121094" xlink:href="#DejaVuSans-50"/>
     <use x="184.423828" xlink:href="#DejaVuSans-53"/>
    </g>
   </g>
   <g id="text_16">
    <!-- Rosenbroc -->
    <defs>
     <path d="M 44.390625 34.1875 
Q 47.5625 33.109375 50.5625 29.59375 
Q 53.5625 26.078125 56.59375 19.921875 
L 66.609375 0 
L 56 0 
L 46.6875 18.703125 
Q 43.0625 26.03125 39.671875 28.421875 
Q 36.28125 30.8125 30.421875 30.8125 
L 19.671875 30.8125 
L 19.671875 0 
L 9.8125 0 
L 9.8125 72.90625 
L 32.078125 72.90625 
Q 44.578125 72.90625 50.734375 67.671875 
Q 56.890625 62.453125 56.890625 51.90625 
Q 56.890625 45.015625 53.6875 40.46875 
Q 50.484375 35.9375 44.390625 34.1875 
z
M 19.671875 64.796875 
L 19.671875 38.921875 
L 32.078125 38.921875 
Q 39.203125 38.921875 42.84375 42.21875 
Q 46.484375 45.515625 46.484375 51.90625 
Q 46.484375 58.296875 42.84375 61.546875 
Q 39.203125 64.796875 32.078125 64.796875 
z
" id="DejaVuSans-52"/>
     <path d="M 48.6875 27.296875 
Q 48.6875 37.203125 44.609375 42.84375 
Q 40.53125 48.484375 33.40625 48.484375 
Q 26.265625 48.484375 22.1875 42.84375 
Q 18.109375 37.203125 18.109375 27.296875 
Q 18.109375 17.390625 22.1875 11.75 
Q 26.265625 6.109375 33.40625 6.109375 
Q 40.53125 6.109375 44.609375 11.75 
Q 48.6875 17.390625 48.6875 27.296875 
z
M 18.109375 46.390625 
Q 20.953125 51.265625 25.265625 53.625 
Q 29.59375 56 35.59375 56 
Q 45.5625 56 51.78125 48.09375 
Q 58.015625 40.1875 58.015625 27.296875 
Q 58.015625 14.40625 51.78125 6.484375 
Q 45.5625 -1.421875 35.59375 -1.421875 
Q 29.59375 -1.421875 25.265625 0.953125 
Q 20.953125 3.328125 18.109375 8.203125 
L 18.109375 0 
L 9.078125 0 
L 9.078125 75.984375 
L 18.109375 75.984375 
z
" id="DejaVuSans-62"/>
    </defs>
    <g transform="translate(369.479935 165.887769)scale(0.17 -0.17)">
     <use xlink:href="#DejaVuSans-52"/>
     <use x="69.419922" xlink:href="#DejaVuSans-6f"/>
     <use x="130.601562" xlink:href="#DejaVuSans-73"/>
     <use x="182.701172" xlink:href="#DejaVuSans-65"/>
     <use x="244.224609" xlink:href="#DejaVuSans-6e"/>
     <use x="307.603516" xlink:href="#DejaVuSans-62"/>
     <use x="371.080078" xlink:href="#DejaVuSans-72"/>
     <use x="412.162109" xlink:href="#DejaVuSans-6f"/>
     <use x="473.34375" xlink:href="#DejaVuSans-63"/>
    </g>
   </g>
   <g id="text_17">
    <!-- DASA -->
    <defs>
     <path d="M 19.671875 64.796875 
L 19.671875 8.109375 
L 31.59375 8.109375 
Q 46.6875 8.109375 53.6875 14.9375 
Q 60.6875 21.78125 60.6875 36.53125 
Q 60.6875 51.171875 53.6875 57.984375 
Q 46.6875 64.796875 31.59375 64.796875 
z
M 9.8125 72.90625 
L 30.078125 72.90625 
Q 51.265625 72.90625 61.171875 64.09375 
Q 71.09375 55.28125 71.09375 36.53125 
Q 71.09375 17.671875 61.125 8.828125 
Q 51.171875 0 30.078125 0 
L 9.8125 0 
z
" id="DejaVuSans-44"/>
    </defs>
    <g transform="translate(369.479935 101.719848)scale(0.17 -0.17)">
     <use xlink:href="#DejaVuSans-44"/>
     <use x="76.986328" xlink:href="#DejaVuSans-41"/>
     <use x="145.394531" xlink:href="#DejaVuSans-53"/>
     <use x="208.886719" xlink:href="#DejaVuSans-41"/>
    </g>
   </g>
   <g id="text_18">
    <!-- best 2009 -->
    <defs>
     <path d="M 10.984375 1.515625 
L 10.984375 10.5 
Q 14.703125 8.734375 18.5 7.8125 
Q 22.3125 6.890625 25.984375 6.890625 
Q 35.75 6.890625 40.890625 13.453125 
Q 46.046875 20.015625 46.78125 33.40625 
Q 43.953125 29.203125 39.59375 26.953125 
Q 35.25 24.703125 29.984375 24.703125 
Q 19.046875 24.703125 12.671875 31.3125 
Q 6.296875 37.9375 6.296875 49.421875 
Q 6.296875 60.640625 12.9375 67.421875 
Q 19.578125 74.21875 30.609375 74.21875 
Q 43.265625 74.21875 49.921875 64.515625 
Q 56.59375 54.828125 56.59375 36.375 
Q 56.59375 19.140625 48.40625 8.859375 
Q 40.234375 -1.421875 26.421875 -1.421875 
Q 22.703125 -1.421875 18.890625 -0.6875 
Q 15.09375 0.046875 10.984375 1.515625 
z
M 30.609375 32.421875 
Q 37.25 32.421875 41.125 36.953125 
Q 45.015625 41.5 45.015625 49.421875 
Q 45.015625 57.28125 41.125 61.84375 
Q 37.25 66.40625 30.609375 66.40625 
Q 23.96875 66.40625 20.09375 61.84375 
Q 16.21875 57.28125 16.21875 49.421875 
Q 16.21875 41.5 20.09375 36.953125 
Q 23.96875 32.421875 30.609375 32.421875 
z
" id="DejaVuSans-39"/>
    </defs>
    <g transform="translate(369.479935 37.551928)scale(0.17 -0.17)">
     <use xlink:href="#DejaVuSans-62"/>
     <use x="63.476562" xlink:href="#DejaVuSans-65"/>
     <use x="125" xlink:href="#DejaVuSans-73"/>
     <use x="177.099609" xlink:href="#DejaVuSans-74"/>
     <use x="216.308594" xlink:href="#DejaVuSans-20"/>
     <use x="248.095703" xlink:href="#DejaVuSans-32"/>
     <use x="311.71875" xlink:href="#DejaVuSans-30"/>
     <use x="375.341797" xlink:href="#DejaVuSans-30"/>
     <use x="438.964844" xlink:href="#DejaVuSans-39"/>
    </g>
   </g>
   <g id="text_19">
    <!-- bbob f13, 40-D -->
    <defs>
     <path d="M 40.578125 39.3125 
Q 47.65625 37.796875 51.625 33 
Q 55.609375 28.21875 55.609375 21.1875 
Q 55.609375 10.40625 48.1875 4.484375 
Q 40.765625 -1.421875 27.09375 -1.421875 
Q 22.515625 -1.421875 17.65625 -0.515625 
Q 12.796875 0.390625 7.625 2.203125 
L 7.625 11.71875 
Q 11.71875 9.328125 16.59375 8.109375 
Q 21.484375 6.890625 26.8125 6.890625 
Q 36.078125 6.890625 40.9375 10.546875 
Q 45.796875 14.203125 45.796875 21.1875 
Q 45.796875 27.640625 41.28125 31.265625 
Q 36.765625 34.90625 28.71875 34.90625 
L 20.21875 34.90625 
L 20.21875 43.015625 
L 29.109375 43.015625 
Q 36.375 43.015625 40.234375 45.921875 
Q 44.09375 48.828125 44.09375 54.296875 
Q 44.09375 59.90625 40.109375 62.90625 
Q 36.140625 65.921875 28.71875 65.921875 
Q 24.65625 65.921875 20.015625 65.03125 
Q 15.375 64.15625 9.8125 62.3125 
L 9.8125 71.09375 
Q 15.4375 72.65625 20.34375 73.4375 
Q 25.25 74.21875 29.59375 74.21875 
Q 40.828125 74.21875 47.359375 69.109375 
Q 53.90625 64.015625 53.90625 55.328125 
Q 53.90625 49.265625 50.4375 45.09375 
Q 46.96875 40.921875 40.578125 39.3125 
z
" id="DejaVuSans-33"/>
    </defs>
    <g transform="translate(59.55864 35.290806)scale(0.102 -0.102)">
     <use xlink:href="#DejaVuSans-62"/>
     <use x="63.476562" xlink:href="#DejaVuSans-62"/>
     <use x="126.953125" xlink:href="#DejaVuSans-6f"/>
     <use x="188.134766" xlink:href="#DejaVuSans-62"/>
     <use x="251.611328" xlink:href="#DejaVuSans-20"/>
     <use x="283.398438" xlink:href="#DejaVuSans-66"/>
     <use x="318.603516" xlink:href="#DejaVuSans-31"/>
     <use x="382.226562" xlink:href="#DejaVuSans-33"/>
     <use x="445.849609" xlink:href="#DejaVuSans-2c"/>
     <use x="477.636719" xlink:href="#DejaVuSans-20"/>
     <use x="509.423828" xlink:href="#DejaVuSans-34"/>
     <use x="573.046875" xlink:href="#DejaVuSans-30"/>
     <use x="636.669922" xlink:href="#DejaVuSans-2d"/>
     <use x="672.753906" xlink:href="#DejaVuSans-44"/>
    </g>
    <!-- 51 targets: 100..1e-08 -->
    <defs>
     <path d="M 10.796875 72.90625 
L 49.515625 72.90625 
L 49.515625 64.59375 
L 19.828125 64.59375 
L 19.828125 46.734375 
Q 21.96875 47.46875 24.109375 47.828125 
Q 26.265625 48.1875 28.421875 48.1875 
Q 40.625 48.1875 47.75 41.5 
Q 54.890625 34.8125 54.890625 23.390625 
Q 54.890625 11.625 47.5625 5.09375 
Q 40.234375 -1.421875 26.90625 -1.421875 
Q 22.3125 -1.421875 17.546875 -0.640625 
Q 12.796875 0.140625 7.71875 1.703125 
L 7.71875 11.625 
Q 12.109375 9.234375 16.796875 8.0625 
Q 21.484375 6.890625 26.703125 6.890625 
Q 35.15625 6.890625 40.078125 11.328125 
Q 45.015625 15.765625 45.015625 23.390625 
Q 45.015625 31 40.078125 35.4375 
Q 35.15625 39.890625 26.703125 39.890625 
Q 22.75 39.890625 18.8125 39.015625 
Q 14.890625 38.140625 10.796875 36.28125 
z
" id="DejaVuSans-35"/>
     <path d="M 11.71875 12.40625 
L 22.015625 12.40625 
L 22.015625 0 
L 11.71875 0 
z
M 11.71875 51.703125 
L 22.015625 51.703125 
L 22.015625 39.3125 
L 11.71875 39.3125 
z
" id="DejaVuSans-3a"/>
    </defs>
    <g transform="translate(59.55864 46.712575)scale(0.102 -0.102)">
     <use xlink:href="#DejaVuSans-35"/>
     <use x="63.623047" xlink:href="#DejaVuSans-31"/>
     <use x="127.246094" xlink:href="#DejaVuSans-20"/>
     <use x="159.033203" xlink:href="#DejaVuSans-74"/>
     <use x="198.242188" xlink:href="#DejaVuSans-61"/>
     <use x="259.521484" xlink:href="#DejaVuSans-72"/>
     <use x="300.619141" xlink:href="#DejaVuSans-67"/>
     <use x="364.095703" xlink:href="#DejaVuSans-65"/>
     <use x="425.619141" xlink:href="#DejaVuSans-74"/>
     <use x="464.828125" xlink:href="#DejaVuSans-73"/>
     <use x="516.927734" xlink:href="#DejaVuSans-3a"/>
     <use x="550.619141" xlink:href="#DejaVuSans-20"/>
     <use x="582.40625" xlink:href="#DejaVuSans-31"/>
     <use x="646.029297" xlink:href="#DejaVuSans-30"/>
     <use x="709.652344" xlink:href="#DejaVuSans-30"/>
     <use x="773.275391" xlink:href="#DejaVuSans-2e"/>
     <use x="805.0625" xlink:href="#DejaVuSans-2e"/>
     <use x="836.849609" xlink:href="#DejaVuSans-31"/>
     <use x="900.472656" xlink:href="#DejaVuSans-65"/>
     <use x="961.996094" xlink:href="#DejaVuSans-2d"/>
     <use x="998.080078" xlink:href="#DejaVuSans-30"/>
     <use x="1061.703125" xlink:href="#DejaVuSans-38"/>
    </g>
    <!-- 15 instances -->
    <g transform="translate(59.55864 58.134344)scale(0.102 -0.102)">
     <use xlink:href="#DejaVuSans-31"/>
     <use x="63.623047" xlink:href="#DejaVuSans-35"/>
     <use x="127.246094" xlink:href="#DejaVuSans-20"/>
     <use x="159.033203" xlink:href="#DejaVuSans-69"/>
     <use x="186.816406" xlink:href="#DejaVuSans-6e"/>
     <use x="250.195312" xlink:href="#DejaVuSans-73"/>
     <use x="302.294922" xlink:href="#DejaVuSans-74"/>
     <use x="341.503906" xlink:href="#DejaVuSans-61"/>
     <use x="402.783203" xlink:href="#DejaVuSans-6e"/>
     <use x="466.162109" xlink:href="#DejaVuSans-63"/>
     <use x="521.142578" xlink:href="#DejaVuSans-65"/>
     <use x="582.666016" xlink:href="#DejaVuSans-73"/>
    </g>
   </g>
   <g id="text_20">
    <!-- v-coco-version -->
    <g style="fill:#808080;" transform="translate(191.556688 290.099912)scale(0.1 -0.1)">
     <use xlink:href="#DejaVuSans-76"/>
     <use x="59.148438" xlink:href="#DejaVuSans-2d"/>
     <use x="95.232422" xlink:href="#DejaVuSans-63"/>
     <use x="150.212891" xlink:href="#DejaVuSans-6f"/>
     <use x="211.394531" xlink:href="#DejaVuSans-63"/>
     <use x="266.375" xlink:href="#DejaVuSans-6f"/>
     <use x="327.572266" xlink:href="#DejaVuSans-2d"/>
     <use x="363.625" xlink:href="#DejaVuSans-76"/>
     <use x="422.804688" xlink:href="#DejaVuSans-65"/>
     <use x="484.328125" xlink:href="#DejaVuSans-72"/>
     <use x="525.441406" xlink:href="#DejaVuSans-73"/>
     <use x="577.541016" xlink:href="#DejaVuSans-69"/>
     <use x="605.324219" xlink:href="#DejaVuSans-6f"/>
     <use x="666.505859" xlink:href="#DejaVuSans-6e"/>
    </g>
   </g>
   <g id="text_21">
    <!-- 13 Sharp ridge -->
    <defs>
     <path d="M 54.890625 33.015625 
L 54.890625 0 
L 45.90625 0 
L 45.90625 32.71875 
Q 45.90625 40.484375 42.875 44.328125 
Q 39.84375 48.1875 33.796875 48.1875 
Q 26.515625 48.1875 22.3125 43.546875 
Q 18.109375 38.921875 18.109375 30.90625 
L 18.109375 0 
L 9.078125 0 
L 9.078125 75.984375 
L 18.109375 75.984375 
L 18.109375 46.1875 
Q 21.34375 51.125 25.703125 53.5625 
Q 30.078125 56 35.796875 56 
Q 45.21875 56 50.046875 50.171875 
Q 54.890625 44.34375 54.890625 33.015625 
z
" id="DejaVuSans-68"/>
    </defs>
    <g transform="translate(153.95825 18.84)scale(0.2 -0.2)">
     <use xlink:href="#DejaVuSans-31"/>
     <use x="63.623047" xlink:href="#DejaVuSans-33"/>
     <use x="127.246094" xlink:href="#DejaVuSans-20"/>
     <use x="159.033203" xlink:href="#DejaVuSans-53"/>
     <use x="222.509766" xlink:href="#DejaVuSans-68"/>
     <use x="285.888672" xlink:href="#DejaVuSans-61"/>
     <use x="347.167969" xlink:href="#DejaVuSans-72"/>
     <use x="388.28125" xlink:href="#DejaVuSans-70"/>
     <use x="451.757812" xlink:href="#DejaVuSans-20"/>
     <use x="483.544922" xlink:href="#DejaVuSans-72"/>
     <use x="524.658203" xlink:href="#DejaVuSans-69"/>
     <use x="552.441406" xlink:href="#DejaVuSans-64"/>
     <use x="615.917969" xlink:href="#DejaVuSans-67"/>
     <use x="679.394531" xlink:href="#DejaVuSans-65"/>
    </g>
   </g>
  </g>
 </g>
 <defs>
  <clipPath id="p03e7b17f66">
   <rect height="270.04" width="343.864" x="56.12" y="24.84"/>
  </clipPath>
 </defs>
</svg>
