<?xml version="1.0" encoding="utf-8" standalone="no"?>
<!DOCTYPE svg PUBLIC "-//W3C//DTD SVG 1.1//EN"
  "http://www.w3.org/Graphics/SVG/1.1/DTD/svg11.dtd">
<!-- Created with matplotlib (http://matplotlib.org/) -->
<svg height="345.6pt" version="1.1" viewBox="0 0 460.8 345.6" width="460.8pt" xmlns="http://www.w3.org/2000/svg" xmlns:xlink="http://www.w3.org/1999/xlink">
 <defs>
  <style type="text/css">
*{stroke-linecap:butt;stroke-linejoin:round;}
  </style>
 </defs>
 <g id="figure_1">
  <g id="patch_1">
   <path d="M 0 345.6 
L 460.8 345.6 
L 460.8 0 
L 0 0 
z
" style="fill:#ffffff;"/>
  </g>
  <g id="axes_1">
   <g id="patch_2">
    <path d="M 56.12 294.88 
L 399.984 294.88 
L 399.984 24.84 
L 56.12 24.84 
z
" style="fill:#ffffff;"/>
   </g>
   <g id="line2d_1">
    <path d="M -1 289.637523 
L 79.971009 289.637523 
L 79.971009 284.395046 
L 91.070521 284.395046 
L 91.070521 279.152568 
L 94.853174 279.152568 
L 94.853174 273.910091 
L 107.313588 273.910091 
L 107.313588 268.667614 
L 112.24116 268.667614 
L 112.24116 263.425137 
L 127.333669 263.425137 
L 127.333669 258.18266 
L 129.983852 258.18266 
L 129.983852 252.940182 
L 134.268466 252.940182 
L 134.268466 247.697705 
L 151.407712 247.697705 
L 151.407712 242.455228 
L 163.998502 242.455228 
L 163.998502 237.212751 
L 190.817474 237.212751 
L 190.817474 231.970274 
L 190.83373 231.970274 
L 190.83373 226.727797 
L 190.83715 226.727797 
L 190.83715 221.485319 
L 190.840398 221.485319 
L 190.840398 216.242842 
L 190.853216 216.242842 
L 190.853216 211.000365 
L 190.859536 211.000365 
L 190.859536 205.757888 
L 190.870121 205.757888 
L 190.870121 200.515411 
L 190.878311 200.515411 
L 190.878311 195.272933 
L 190.888373 195.272933 
L 190.888373 190.030456 
L 190.903028 190.030456 
L 190.903028 184.787979 
L 190.909671 184.787979 
L 190.909671 179.545502 
L 190.920054 179.545502 
L 190.920054 174.303025 
L 190.941313 174.303025 
L 190.941313 169.060547 
L 190.94828 169.060547 
L 190.94828 163.81807 
L 190.956433 163.81807 
L 190.956433 158.575593 
L 190.976799 158.575593 
L 190.976799 153.333116 
L 190.982735 153.333116 
L 190.982735 148.090639 
L 190.992058 148.090639 
L 190.992058 142.848162 
L 191.00544 142.848162 
L 191.00544 137.605684 
L 191.015428 137.605684 
L 191.015428 132.363207 
L 191.026255 132.363207 
L 191.026255 127.12073 
L 191.032512 127.12073 
L 191.032512 121.878253 
L 191.047383 121.878253 
L 191.047383 116.635776 
L 191.054477 116.635776 
L 191.054477 111.393298 
L 191.058529 111.393298 
L 191.058529 106.150821 
L 191.072028 106.150821 
L 191.072028 100.908344 
L 191.078268 100.908344 
L 191.078268 95.665867 
L 191.081977 95.665867 
L 191.081977 90.42339 
L 191.09091 90.42339 
L 191.09091 85.180912 
L 191.099501 85.180912 
L 191.099501 79.938435 
L 191.104384 79.938435 
L 191.104384 74.695958 
L 191.113978 74.695958 
L 191.113978 69.453481 
L 191.122221 69.453481 
L 191.122221 64.211004 
L 191.133822 64.211004 
L 191.133822 58.968526 
L 191.141216 58.968526 
L 191.141216 53.726049 
L 191.148102 53.726049 
L 191.148102 48.483572 
L 191.167572 48.483572 
L 191.167572 43.241095 
L 191.172771 43.241095 
L 191.172771 37.998618 
L 191.177969 37.998618 
L 191.177969 32.756141 
L 191.200418 32.756141 
L 191.200418 27.513663 
L 333.429677 27.513663 
" style="fill:none;stroke:#f5deb3;stroke-linecap:square;stroke-width:6;"/>
   </g>
   <g id="line2d_2">
    <defs>
     <path d="M -0 7.778175 
L 7.778175 0 
L 0 -7.778175 
L -7.778175 -0 
z
" id="mda602f9bcc" style="stroke:#f5deb3;stroke-linejoin:miter;stroke-width:1.5;"/>
    </defs>
    <g>
     <use style="fill:#f5deb3;stroke:#f5deb3;stroke-linejoin:miter;stroke-width:1.5;" x="151.407712" xlink:href="#mda602f9bcc" y="247.697705"/>
     <use style="fill:#f5deb3;stroke:#f5deb3;stroke-linejoin:miter;stroke-width:1.5;" x="190.956433" xlink:href="#mda602f9bcc" y="158.575593"/>
     <use style="fill:#f5deb3;stroke:#f5deb3;stroke-linejoin:miter;stroke-width:1.5;" x="191.148102" xlink:href="#mda602f9bcc" y="53.726049"/>
     <use style="fill:#f5deb3;stroke:#f5deb3;stroke-linejoin:miter;stroke-width:1.5;" x="191.200418" xlink:href="#mda602f9bcc" y="27.513663"/>
     <use style="fill:#f5deb3;stroke:#f5deb3;stroke-linejoin:miter;stroke-width:1.5;" x="191.200418" xlink:href="#mda602f9bcc" y="27.513663"/>
     <use style="fill:#f5deb3;stroke:#f5deb3;stroke-linejoin:miter;stroke-width:1.5;" x="333.429677" xlink:href="#mda602f9bcc" y="27.513663"/>
    </g>
   </g>
   <g id="line2d_3">
    <path style="fill:none;stroke:#f5deb3;stroke-linecap:square;stroke-width:6;"/>
    <g/>
   </g>
   <g id="line2d_4">
    <path d="M 333.429677 27.513663 
L 363.933742 32.86099 
" style="fill:none;stroke:#f5deb3;stroke-linecap:square;stroke-width:6;"/>
    <g>
     <use style="fill:#f5deb3;stroke:#f5deb3;stroke-linejoin:miter;stroke-width:1.5;" x="333.429677" xlink:href="#mda602f9bcc" y="27.513663"/>
     <use style="fill:#f5deb3;stroke:#f5deb3;stroke-linejoin:miter;stroke-width:1.5;" x="363.933742" xlink:href="#mda602f9bcc" y="32.86099"/>
    </g>
   </g>
   <g id="matplotlib.axis_1">
    <g id="xtick_1">
     <g id="line2d_5">
      <path clip-path="url(#pd305b75934)" d="M 56.12 294.88 
L 56.12 24.84 
" style="fill:none;stroke:#b0b0b0;stroke-linecap:square;stroke-width:0.8;"/>
     </g>
     <g id="line2d_6">
      <defs>
       <path d="M 0 0 
L 0 3.5 
" id="mefdf0b292a" style="stroke:#000000;stroke-width:0.8;"/>
      </defs>
      <g>
       <use style="stroke:#000000;stroke-width:0.8;" x="56.12" xlink:href="#mefdf0b292a" y="294.88"/>
      </g>
     </g>
     <g id="text_1">
      <!-- 0 -->
      <defs>
       <path d="M 31.78125 66.40625 
Q 24.171875 66.40625 20.328125 58.90625 
Q 16.5 51.421875 16.5 36.375 
Q 16.5 21.390625 20.328125 13.890625 
Q 24.171875 6.390625 31.78125 6.390625 
Q 39.453125 6.390625 43.28125 13.890625 
Q 47.125 21.390625 47.125 36.375 
Q 47.125 51.421875 43.28125 58.90625 
Q 39.453125 66.40625 31.78125 66.40625 
z
M 31.78125 74.21875 
Q 44.046875 74.21875 50.515625 64.515625 
Q 56.984375 54.828125 56.984375 36.375 
Q 56.984375 17.96875 50.515625 8.265625 
Q 44.046875 -1.421875 31.78125 -1.421875 
Q 19.53125 -1.421875 13.0625 8.265625 
Q 6.59375 17.96875 6.59375 36.375 
Q 6.59375 54.828125 13.0625 64.515625 
Q 19.53125 74.21875 31.78125 74.21875 
z
" id="DejaVuSans-30"/>
      </defs>
      <g transform="translate(49.7575 317.076875)scale(0.2 -0.2)">
       <use xlink:href="#DejaVuSans-30"/>
      </g>
     </g>
    </g>
    <g id="xtick_2">
     <g id="line2d_7">
      <path clip-path="url(#pd305b75934)" d="M 135.351336 294.88 
L 135.351336 24.84 
" style="fill:none;stroke:#b0b0b0;stroke-linecap:square;stroke-width:0.8;"/>
     </g>
     <g id="line2d_8">
      <g>
       <use style="stroke:#000000;stroke-width:0.8;" x="135.351336" xlink:href="#mefdf0b292a" y="294.88"/>
      </g>
     </g>
     <g id="text_2">
      <!-- 2 -->
      <defs>
       <path d="M 19.1875 8.296875 
L 53.609375 8.296875 
L 53.609375 0 
L 7.328125 0 
L 7.328125 8.296875 
Q 12.9375 14.109375 22.625 23.890625 
Q 32.328125 33.6875 34.8125 36.53125 
Q 39.546875 41.84375 41.421875 45.53125 
Q 43.3125 49.21875 43.3125 52.78125 
Q 43.3125 58.59375 39.234375 62.25 
Q 35.15625 65.921875 28.609375 65.921875 
Q 23.96875 65.921875 18.8125 64.3125 
Q 13.671875 62.703125 7.8125 59.421875 
L 7.8125 69.390625 
Q 13.765625 71.78125 18.9375 73 
Q 24.125 74.21875 28.421875 74.21875 
Q 39.75 74.21875 46.484375 68.546875 
Q 53.21875 62.890625 53.21875 53.421875 
Q 53.21875 48.921875 51.53125 44.890625 
Q 49.859375 40.875 45.40625 35.40625 
Q 44.1875 33.984375 37.640625 27.21875 
Q 31.109375 20.453125 19.1875 8.296875 
z
" id="DejaVuSans-32"/>
      </defs>
      <g transform="translate(128.988836 317.076875)scale(0.2 -0.2)">
       <use xlink:href="#DejaVuSans-32"/>
      </g>
     </g>
    </g>
    <g id="xtick_3">
     <g id="line2d_9">
      <path clip-path="url(#pd305b75934)" d="M 214.582673 294.88 
L 214.582673 24.84 
" style="fill:none;stroke:#b0b0b0;stroke-linecap:square;stroke-width:0.8;"/>
     </g>
     <g id="line2d_10">
      <g>
       <use style="stroke:#000000;stroke-width:0.8;" x="214.582673" xlink:href="#mefdf0b292a" y="294.88"/>
      </g>
     </g>
     <g id="text_3">
      <!-- 4 -->
      <defs>
       <path d="M 37.796875 64.3125 
L 12.890625 25.390625 
L 37.796875 25.390625 
z
M 35.203125 72.90625 
L 47.609375 72.90625 
L 47.609375 25.390625 
L 58.015625 25.390625 
L 58.015625 17.1875 
L 47.609375 17.1875 
L 47.609375 0 
L 37.796875 0 
L 37.796875 17.1875 
L 4.890625 17.1875 
L 4.890625 26.703125 
z
" id="DejaVuSans-34"/>
      </defs>
      <g transform="translate(208.220173 317.076875)scale(0.2 -0.2)">
       <use xlink:href="#DejaVuSans-34"/>
      </g>
     </g>
    </g>
    <g id="xtick_4">
     <g id="line2d_11">
      <path clip-path="url(#pd305b75934)" d="M 293.814009 294.88 
L 293.814009 24.84 
" style="fill:none;stroke:#b0b0b0;stroke-linecap:square;stroke-width:0.8;"/>
     </g>
     <g id="line2d_12">
      <g>
       <use style="stroke:#000000;stroke-width:0.8;" x="293.814009" xlink:href="#mefdf0b292a" y="294.88"/>
      </g>
     </g>
     <g id="text_4">
      <!-- 6 -->
      <defs>
       <path d="M 33.015625 40.375 
Q 26.375 40.375 22.484375 35.828125 
Q 18.609375 31.296875 18.609375 23.390625 
Q 18.609375 15.53125 22.484375 10.953125 
Q 26.375 6.390625 33.015625 6.390625 
Q 39.65625 6.390625 43.53125 10.953125 
Q 47.40625 15.53125 47.40625 23.390625 
Q 47.40625 31.296875 43.53125 35.828125 
Q 39.65625 40.375 33.015625 40.375 
z
M 52.59375 71.296875 
L 52.59375 62.3125 
Q 48.875 64.0625 45.09375 64.984375 
Q 41.3125 65.921875 37.59375 65.921875 
Q 27.828125 65.921875 22.671875 59.328125 
Q 17.53125 52.734375 16.796875 39.40625 
Q 19.671875 43.65625 24.015625 45.921875 
Q 28.375 48.1875 33.59375 48.1875 
Q 44.578125 48.1875 50.953125 41.515625 
Q 57.328125 34.859375 57.328125 23.390625 
Q 57.328125 12.15625 50.6875 5.359375 
Q 44.046875 -1.421875 33.015625 -1.421875 
Q 20.359375 -1.421875 13.671875 8.265625 
Q 6.984375 17.96875 6.984375 36.375 
Q 6.984375 53.65625 15.1875 63.9375 
Q 23.390625 74.21875 37.203125 74.21875 
Q 40.921875 74.21875 44.703125 73.484375 
Q 48.484375 72.75 52.59375 71.296875 
z
" id="DejaVuSans-36"/>
      </defs>
      <g transform="translate(287.451509 317.076875)scale(0.2 -0.2)">
       <use xlink:href="#DejaVuSans-36"/>
      </g>
     </g>
    </g>
    <g id="xtick_5">
     <g id="line2d_13">
      <path clip-path="url(#pd305b75934)" d="M 373.045346 294.88 
L 373.045346 24.84 
" style="fill:none;stroke:#b0b0b0;stroke-linecap:square;stroke-width:0.8;"/>
     </g>
     <g id="line2d_14">
      <g>
       <use style="stroke:#000000;stroke-width:0.8;" x="373.045346" xlink:href="#mefdf0b292a" y="294.88"/>
      </g>
     </g>
     <g id="text_5">
      <!-- 8 -->
      <defs>
       <path d="M 31.78125 34.625 
Q 24.75 34.625 20.71875 30.859375 
Q 16.703125 27.09375 16.703125 20.515625 
Q 16.703125 13.921875 20.71875 10.15625 
Q 24.75 6.390625 31.78125 6.390625 
Q 38.8125 6.390625 42.859375 10.171875 
Q 46.921875 13.96875 46.921875 20.515625 
Q 46.921875 27.09375 42.890625 30.859375 
Q 38.875 34.625 31.78125 34.625 
z
M 21.921875 38.8125 
Q 15.578125 40.375 12.03125 44.71875 
Q 8.5 49.078125 8.5 55.328125 
Q 8.5 64.0625 14.71875 69.140625 
Q 20.953125 74.21875 31.78125 74.21875 
Q 42.671875 74.21875 48.875 69.140625 
Q 55.078125 64.0625 55.078125 55.328125 
Q 55.078125 49.078125 51.53125 44.71875 
Q 48 40.375 41.703125 38.8125 
Q 48.828125 37.15625 52.796875 32.3125 
Q 56.78125 27.484375 56.78125 20.515625 
Q 56.78125 9.90625 50.3125 4.234375 
Q 43.84375 -1.421875 31.78125 -1.421875 
Q 19.734375 -1.421875 13.25 4.234375 
Q 6.78125 9.90625 6.78125 20.515625 
Q 6.78125 27.484375 10.78125 32.3125 
Q 14.796875 37.15625 21.921875 38.8125 
z
M 18.3125 54.390625 
Q 18.3125 48.734375 21.84375 45.5625 
Q 25.390625 42.390625 31.78125 42.390625 
Q 38.140625 42.390625 41.71875 45.5625 
Q 45.3125 48.734375 45.3125 54.390625 
Q 45.3125 60.0625 41.71875 63.234375 
Q 38.140625 66.40625 31.78125 66.40625 
Q 25.390625 66.40625 21.84375 63.234375 
Q 18.3125 60.0625 18.3125 54.390625 
z
" id="DejaVuSans-38"/>
      </defs>
      <g transform="translate(366.682846 317.076875)scale(0.2 -0.2)">
       <use xlink:href="#DejaVuSans-38"/>
      </g>
     </g>
    </g>
    <g id="text_6">
     <!-- log10(# f-evals / dimension) -->
     <defs>
      <path d="M 9.421875 75.984375 
L 18.40625 75.984375 
L 18.40625 0 
L 9.421875 0 
z
" id="DejaVuSans-6c"/>
      <path d="M 30.609375 48.390625 
Q 23.390625 48.390625 19.1875 42.75 
Q 14.984375 37.109375 14.984375 27.296875 
Q 14.984375 17.484375 19.15625 11.84375 
Q 23.34375 6.203125 30.609375 6.203125 
Q 37.796875 6.203125 41.984375 11.859375 
Q 46.1875 17.53125 46.1875 27.296875 
Q 46.1875 37.015625 41.984375 42.703125 
Q 37.796875 48.390625 30.609375 48.390625 
z
M 30.609375 56 
Q 42.328125 56 49.015625 48.375 
Q 55.71875 40.765625 55.71875 27.296875 
Q 55.71875 13.875 49.015625 6.21875 
Q 42.328125 -1.421875 30.609375 -1.421875 
Q 18.84375 -1.421875 12.171875 6.21875 
Q 5.515625 13.875 5.515625 27.296875 
Q 5.515625 40.765625 12.171875 48.375 
Q 18.84375 56 30.609375 56 
z
" id="DejaVuSans-6f"/>
      <path d="M 45.40625 27.984375 
Q 45.40625 37.75 41.375 43.109375 
Q 37.359375 48.484375 30.078125 48.484375 
Q 22.859375 48.484375 18.828125 43.109375 
Q 14.796875 37.75 14.796875 27.984375 
Q 14.796875 18.265625 18.828125 12.890625 
Q 22.859375 7.515625 30.078125 7.515625 
Q 37.359375 7.515625 41.375 12.890625 
Q 45.40625 18.265625 45.40625 27.984375 
z
M 54.390625 6.78125 
Q 54.390625 -7.171875 48.1875 -13.984375 
Q 42 -20.796875 29.203125 -20.796875 
Q 24.46875 -20.796875 20.265625 -20.09375 
Q 16.0625 -19.390625 12.109375 -17.921875 
L 12.109375 -9.1875 
Q 16.0625 -11.328125 19.921875 -12.34375 
Q 23.78125 -13.375 27.78125 -13.375 
Q 36.625 -13.375 41.015625 -8.765625 
Q 45.40625 -4.15625 45.40625 5.171875 
L 45.40625 9.625 
Q 42.625 4.78125 38.28125 2.390625 
Q 33.9375 0 27.875 0 
Q 17.828125 0 11.671875 7.65625 
Q 5.515625 15.328125 5.515625 27.984375 
Q 5.515625 40.671875 11.671875 48.328125 
Q 17.828125 56 27.875 56 
Q 33.9375 56 38.28125 53.609375 
Q 42.625 51.21875 45.40625 46.390625 
L 45.40625 54.6875 
L 54.390625 54.6875 
z
" id="DejaVuSans-67"/>
      <path d="M 12.40625 8.296875 
L 28.515625 8.296875 
L 28.515625 63.921875 
L 10.984375 60.40625 
L 10.984375 69.390625 
L 28.421875 72.90625 
L 38.28125 72.90625 
L 38.28125 8.296875 
L 54.390625 8.296875 
L 54.390625 0 
L 12.40625 0 
z
" id="DejaVuSans-31"/>
      <path d="M 31 75.875 
Q 24.46875 64.65625 21.28125 53.65625 
Q 18.109375 42.671875 18.109375 31.390625 
Q 18.109375 20.125 21.3125 9.0625 
Q 24.515625 -2 31 -13.1875 
L 23.1875 -13.1875 
Q 15.875 -1.703125 12.234375 9.375 
Q 8.59375 20.453125 8.59375 31.390625 
Q 8.59375 42.28125 12.203125 53.3125 
Q 15.828125 64.359375 23.1875 75.875 
z
" id="DejaVuSans-28"/>
      <path d="M 51.125 44 
L 36.921875 44 
L 32.8125 27.6875 
L 47.125 27.6875 
z
M 43.796875 71.78125 
L 38.71875 51.515625 
L 52.984375 51.515625 
L 58.109375 71.78125 
L 65.921875 71.78125 
L 60.890625 51.515625 
L 76.125 51.515625 
L 76.125 44 
L 58.984375 44 
L 54.984375 27.6875 
L 70.515625 27.6875 
L 70.515625 20.21875 
L 53.078125 20.21875 
L 48 0 
L 40.1875 0 
L 45.21875 20.21875 
L 30.90625 20.21875 
L 25.875 0 
L 18.015625 0 
L 23.09375 20.21875 
L 7.71875 20.21875 
L 7.71875 27.6875 
L 24.90625 27.6875 
L 29 44 
L 13.28125 44 
L 13.28125 51.515625 
L 30.90625 51.515625 
L 35.890625 71.78125 
z
" id="DejaVuSans-23"/>
      <path id="DejaVuSans-20"/>
      <path d="M 37.109375 75.984375 
L 37.109375 68.5 
L 28.515625 68.5 
Q 23.6875 68.5 21.796875 66.546875 
Q 19.921875 64.59375 19.921875 59.515625 
L 19.921875 54.6875 
L 34.71875 54.6875 
L 34.71875 47.703125 
L 19.921875 47.703125 
L 19.921875 0 
L 10.890625 0 
L 10.890625 47.703125 
L 2.296875 47.703125 
L 2.296875 54.6875 
L 10.890625 54.6875 
L 10.890625 58.5 
Q 10.890625 67.625 15.140625 71.796875 
Q 19.390625 75.984375 28.609375 75.984375 
z
" id="DejaVuSans-66"/>
      <path d="M 4.890625 31.390625 
L 31.203125 31.390625 
L 31.203125 23.390625 
L 4.890625 23.390625 
z
" id="DejaVuSans-2d"/>
      <path d="M 56.203125 29.59375 
L 56.203125 25.203125 
L 14.890625 25.203125 
Q 15.484375 15.921875 20.484375 11.0625 
Q 25.484375 6.203125 34.421875 6.203125 
Q 39.59375 6.203125 44.453125 7.46875 
Q 49.3125 8.734375 54.109375 11.28125 
L 54.109375 2.78125 
Q 49.265625 0.734375 44.1875 -0.34375 
Q 39.109375 -1.421875 33.890625 -1.421875 
Q 20.796875 -1.421875 13.15625 6.1875 
Q 5.515625 13.8125 5.515625 26.8125 
Q 5.515625 40.234375 12.765625 48.109375 
Q 20.015625 56 32.328125 56 
Q 43.359375 56 49.78125 48.890625 
Q 56.203125 41.796875 56.203125 29.59375 
z
M 47.21875 32.234375 
Q 47.125 39.59375 43.09375 43.984375 
Q 39.0625 48.390625 32.421875 48.390625 
Q 24.90625 48.390625 20.390625 44.140625 
Q 15.875 39.890625 15.1875 32.171875 
z
" id="DejaVuSans-65"/>
      <path d="M 2.984375 54.6875 
L 12.5 54.6875 
L 29.59375 8.796875 
L 46.6875 54.6875 
L 56.203125 54.6875 
L 35.6875 0 
L 23.484375 0 
z
" id="DejaVuSans-76"/>
      <path d="M 34.28125 27.484375 
Q 23.390625 27.484375 19.1875 25 
Q 14.984375 22.515625 14.984375 16.5 
Q 14.984375 11.71875 18.140625 8.90625 
Q 21.296875 6.109375 26.703125 6.109375 
Q 34.1875 6.109375 38.703125 11.40625 
Q 43.21875 16.703125 43.21875 25.484375 
L 43.21875 27.484375 
z
M 52.203125 31.203125 
L 52.203125 0 
L 43.21875 0 
L 43.21875 8.296875 
Q 40.140625 3.328125 35.546875 0.953125 
Q 30.953125 -1.421875 24.3125 -1.421875 
Q 15.921875 -1.421875 10.953125 3.296875 
Q 6 8.015625 6 15.921875 
Q 6 25.140625 12.171875 29.828125 
Q 18.359375 34.515625 30.609375 34.515625 
L 43.21875 34.515625 
L 43.21875 35.40625 
Q 43.21875 41.609375 39.140625 45 
Q 35.0625 48.390625 27.6875 48.390625 
Q 23 48.390625 18.546875 47.265625 
Q 14.109375 46.140625 10.015625 43.890625 
L 10.015625 52.203125 
Q 14.9375 54.109375 19.578125 55.046875 
Q 24.21875 56 28.609375 56 
Q 40.484375 56 46.34375 49.84375 
Q 52.203125 43.703125 52.203125 31.203125 
z
" id="DejaVuSans-61"/>
      <path d="M 44.28125 53.078125 
L 44.28125 44.578125 
Q 40.484375 46.53125 36.375 47.5 
Q 32.28125 48.484375 27.875 48.484375 
Q 21.1875 48.484375 17.84375 46.4375 
Q 14.5 44.390625 14.5 40.28125 
Q 14.5 37.15625 16.890625 35.375 
Q 19.28125 33.59375 26.515625 31.984375 
L 29.59375 31.296875 
Q 39.15625 29.25 43.1875 25.515625 
Q 47.21875 21.78125 47.21875 15.09375 
Q 47.21875 7.46875 41.1875 3.015625 
Q 35.15625 -1.421875 24.609375 -1.421875 
Q 20.21875 -1.421875 15.453125 -0.5625 
Q 10.6875 0.296875 5.421875 2 
L 5.421875 11.28125 
Q 10.40625 8.6875 15.234375 7.390625 
Q 20.0625 6.109375 24.8125 6.109375 
Q 31.15625 6.109375 34.5625 8.28125 
Q 37.984375 10.453125 37.984375 14.40625 
Q 37.984375 18.0625 35.515625 20.015625 
Q 33.0625 21.96875 24.703125 23.78125 
L 21.578125 24.515625 
Q 13.234375 26.265625 9.515625 29.90625 
Q 5.8125 33.546875 5.8125 39.890625 
Q 5.8125 47.609375 11.28125 51.796875 
Q 16.75 56 26.8125 56 
Q 31.78125 56 36.171875 55.265625 
Q 40.578125 54.546875 44.28125 53.078125 
z
" id="DejaVuSans-73"/>
      <path d="M 25.390625 72.90625 
L 33.6875 72.90625 
L 8.296875 -9.28125 
L 0 -9.28125 
z
" id="DejaVuSans-2f"/>
      <path d="M 45.40625 46.390625 
L 45.40625 75.984375 
L 54.390625 75.984375 
L 54.390625 0 
L 45.40625 0 
L 45.40625 8.203125 
Q 42.578125 3.328125 38.25 0.953125 
Q 33.9375 -1.421875 27.875 -1.421875 
Q 17.96875 -1.421875 11.734375 6.484375 
Q 5.515625 14.40625 5.515625 27.296875 
Q 5.515625 40.1875 11.734375 48.09375 
Q 17.96875 56 27.875 56 
Q 33.9375 56 38.25 53.625 
Q 42.578125 51.265625 45.40625 46.390625 
z
M 14.796875 27.296875 
Q 14.796875 17.390625 18.875 11.75 
Q 22.953125 6.109375 30.078125 6.109375 
Q 37.203125 6.109375 41.296875 11.75 
Q 45.40625 17.390625 45.40625 27.296875 
Q 45.40625 37.203125 41.296875 42.84375 
Q 37.203125 48.484375 30.078125 48.484375 
Q 22.953125 48.484375 18.875 42.84375 
Q 14.796875 37.203125 14.796875 27.296875 
z
" id="DejaVuSans-64"/>
      <path d="M 9.421875 54.6875 
L 18.40625 54.6875 
L 18.40625 0 
L 9.421875 0 
z
M 9.421875 75.984375 
L 18.40625 75.984375 
L 18.40625 64.59375 
L 9.421875 64.59375 
z
" id="DejaVuSans-69"/>
      <path d="M 52 44.1875 
Q 55.375 50.25 60.0625 53.125 
Q 64.75 56 71.09375 56 
Q 79.640625 56 84.28125 50.015625 
Q 88.921875 44.046875 88.921875 33.015625 
L 88.921875 0 
L 79.890625 0 
L 79.890625 32.71875 
Q 79.890625 40.578125 77.09375 44.375 
Q 74.3125 48.1875 68.609375 48.1875 
Q 61.625 48.1875 57.5625 43.546875 
Q 53.515625 38.921875 53.515625 30.90625 
L 53.515625 0 
L 44.484375 0 
L 44.484375 32.71875 
Q 44.484375 40.625 41.703125 44.40625 
Q 38.921875 48.1875 33.109375 48.1875 
Q 26.21875 48.1875 22.15625 43.53125 
Q 18.109375 38.875 18.109375 30.90625 
L 18.109375 0 
L 9.078125 0 
L 9.078125 54.6875 
L 18.109375 54.6875 
L 18.109375 46.1875 
Q 21.1875 51.21875 25.484375 53.609375 
Q 29.78125 56 35.6875 56 
Q 41.65625 56 45.828125 52.96875 
Q 50 49.953125 52 44.1875 
z
" id="DejaVuSans-6d"/>
      <path d="M 54.890625 33.015625 
L 54.890625 0 
L 45.90625 0 
L 45.90625 32.71875 
Q 45.90625 40.484375 42.875 44.328125 
Q 39.84375 48.1875 33.796875 48.1875 
Q 26.515625 48.1875 22.3125 43.546875 
Q 18.109375 38.921875 18.109375 30.90625 
L 18.109375 0 
L 9.078125 0 
L 9.078125 54.6875 
L 18.109375 54.6875 
L 18.109375 46.1875 
Q 21.34375 51.125 25.703125 53.5625 
Q 30.078125 56 35.796875 56 
Q 45.21875 56 50.046875 50.171875 
Q 54.890625 44.34375 54.890625 33.015625 
z
" id="DejaVuSans-6e"/>
      <path d="M 8.015625 75.875 
L 15.828125 75.875 
Q 23.140625 64.359375 26.78125 53.3125 
Q 30.421875 42.28125 30.421875 31.390625 
Q 30.421875 20.453125 26.78125 9.375 
Q 23.140625 -1.703125 15.828125 -13.1875 
L 8.015625 -13.1875 
Q 14.5 -2 17.703125 9.0625 
Q 20.90625 20.125 20.90625 31.390625 
Q 20.90625 42.671875 17.703125 53.65625 
Q 14.5 64.65625 8.015625 75.875 
z
" id="DejaVuSans-29"/>
     </defs>
     <g transform="translate(107.211219 338.153594)scale(0.17 -0.17)">
      <use xlink:href="#DejaVuSans-6c"/>
      <use x="27.783203" xlink:href="#DejaVuSans-6f"/>
      <use x="88.964844" xlink:href="#DejaVuSans-67"/>
      <use x="152.441406" xlink:href="#DejaVuSans-31"/>
      <use x="216.064453" xlink:href="#DejaVuSans-30"/>
      <use x="279.6875" xlink:href="#DejaVuSans-28"/>
      <use x="318.701172" xlink:href="#DejaVuSans-23"/>
      <use x="402.490234" xlink:href="#DejaVuSans-20"/>
      <use x="434.277344" xlink:href="#DejaVuSans-66"/>
      <use x="469.404297" xlink:href="#DejaVuSans-2d"/>
      <use x="505.488281" xlink:href="#DejaVuSans-65"/>
      <use x="567.011719" xlink:href="#DejaVuSans-76"/>
      <use x="626.191406" xlink:href="#DejaVuSans-61"/>
      <use x="687.470703" xlink:href="#DejaVuSans-6c"/>
      <use x="715.253906" xlink:href="#DejaVuSans-73"/>
      <use x="767.353516" xlink:href="#DejaVuSans-20"/>
      <use x="799.140625" xlink:href="#DejaVuSans-2f"/>
      <use x="832.832031" xlink:href="#DejaVuSans-20"/>
      <use x="864.619141" xlink:href="#DejaVuSans-64"/>
      <use x="928.095703" xlink:href="#DejaVuSans-69"/>
      <use x="955.878906" xlink:href="#DejaVuSans-6d"/>
      <use x="1053.291016" xlink:href="#DejaVuSans-65"/>
      <use x="1114.814453" xlink:href="#DejaVuSans-6e"/>
      <use x="1178.193359" xlink:href="#DejaVuSans-73"/>
      <use x="1230.292969" xlink:href="#DejaVuSans-69"/>
      <use x="1258.076172" xlink:href="#DejaVuSans-6f"/>
      <use x="1319.257812" xlink:href="#DejaVuSans-6e"/>
      <use x="1382.636719" xlink:href="#DejaVuSans-29"/>
     </g>
    </g>
   </g>
   <g id="matplotlib.axis_2">
    <g id="ytick_1">
     <g id="line2d_15">
      <path clip-path="url(#pd305b75934)" d="M 56.12 294.88 
L 399.984 294.88 
" style="fill:none;stroke:#b0b0b0;stroke-linecap:square;stroke-width:0.8;"/>
     </g>
     <g id="line2d_16">
      <defs>
       <path d="M 0 0 
L -3.5 0 
" id="m9f7097d141" style="stroke:#000000;stroke-width:0.8;"/>
      </defs>
      <g>
       <use style="stroke:#000000;stroke-width:0.8;" x="56.12" xlink:href="#m9f7097d141" y="294.88"/>
      </g>
     </g>
     <g id="text_7">
      <!-- 0.0 -->
      <defs>
       <path d="M 10.6875 12.40625 
L 21 12.40625 
L 21 0 
L 10.6875 0 
z
" id="DejaVuSans-2e"/>
      </defs>
      <g transform="translate(23.675 300.95875)scale(0.16 -0.16)">
       <use xlink:href="#DejaVuSans-30"/>
       <use x="63.623047" xlink:href="#DejaVuSans-2e"/>
       <use x="95.410156" xlink:href="#DejaVuSans-30"/>
      </g>
     </g>
    </g>
    <g id="ytick_2">
     <g id="line2d_17">
      <path clip-path="url(#pd305b75934)" d="M 56.12 241.406733 
L 399.984 241.406733 
" style="fill:none;stroke:#b0b0b0;stroke-linecap:square;stroke-width:0.8;"/>
     </g>
     <g id="line2d_18">
      <g>
       <use style="stroke:#000000;stroke-width:0.8;" x="56.12" xlink:href="#m9f7097d141" y="241.406733"/>
      </g>
     </g>
     <g id="text_8">
      <!-- 0.2 -->
      <g transform="translate(23.675 247.485483)scale(0.16 -0.16)">
       <use xlink:href="#DejaVuSans-30"/>
       <use x="63.623047" xlink:href="#DejaVuSans-2e"/>
       <use x="95.410156" xlink:href="#DejaVuSans-32"/>
      </g>
     </g>
    </g>
    <g id="ytick_3">
     <g id="line2d_19">
      <path clip-path="url(#pd305b75934)" d="M 56.12 187.933465 
L 399.984 187.933465 
" style="fill:none;stroke:#b0b0b0;stroke-linecap:square;stroke-width:0.8;"/>
     </g>
     <g id="line2d_20">
      <g>
       <use style="stroke:#000000;stroke-width:0.8;" x="56.12" xlink:href="#m9f7097d141" y="187.933465"/>
      </g>
     </g>
     <g id="text_9">
      <!-- 0.4 -->
      <g transform="translate(23.675 194.012215)scale(0.16 -0.16)">
       <use xlink:href="#DejaVuSans-30"/>
       <use x="63.623047" xlink:href="#DejaVuSans-2e"/>
       <use x="95.410156" xlink:href="#DejaVuSans-34"/>
      </g>
     </g>
    </g>
    <g id="ytick_4">
     <g id="line2d_21">
      <path clip-path="url(#pd305b75934)" d="M 56.12 134.460198 
L 399.984 134.460198 
" style="fill:none;stroke:#b0b0b0;stroke-linecap:square;stroke-width:0.8;"/>
     </g>
     <g id="line2d_22">
      <g>
       <use style="stroke:#000000;stroke-width:0.8;" x="56.12" xlink:href="#m9f7097d141" y="134.460198"/>
      </g>
     </g>
     <g id="text_10">
      <!-- 0.6 -->
      <g transform="translate(23.675 140.538948)scale(0.16 -0.16)">
       <use xlink:href="#DejaVuSans-30"/>
       <use x="63.623047" xlink:href="#DejaVuSans-2e"/>
       <use x="95.410156" xlink:href="#DejaVuSans-36"/>
      </g>
     </g>
    </g>
    <g id="ytick_5">
     <g id="line2d_23">
      <path clip-path="url(#pd305b75934)" d="M 56.12 80.986931 
L 399.984 80.986931 
" style="fill:none;stroke:#b0b0b0;stroke-linecap:square;stroke-width:0.8;"/>
     </g>
     <g id="line2d_24">
      <g>
       <use style="stroke:#000000;stroke-width:0.8;" x="56.12" xlink:href="#m9f7097d141" y="80.986931"/>
      </g>
     </g>
     <g id="text_11">
      <!-- 0.8 -->
      <g transform="translate(23.675 87.065681)scale(0.16 -0.16)">
       <use xlink:href="#DejaVuSans-30"/>
       <use x="63.623047" xlink:href="#DejaVuSans-2e"/>
       <use x="95.410156" xlink:href="#DejaVuSans-38"/>
      </g>
     </g>
    </g>
    <g id="ytick_6">
     <g id="line2d_25">
      <path clip-path="url(#pd305b75934)" d="M 56.12 27.513663 
L 399.984 27.513663 
" style="fill:none;stroke:#b0b0b0;stroke-linecap:square;stroke-width:0.8;"/>
     </g>
     <g id="line2d_26">
      <g>
       <use style="stroke:#000000;stroke-width:0.8;" x="56.12" xlink:href="#m9f7097d141" y="27.513663"/>
      </g>
     </g>
     <g id="text_12">
      <!-- 1.0 -->
      <g transform="translate(23.675 33.592413)scale(0.16 -0.16)">
       <use xlink:href="#DejaVuSans-31"/>
       <use x="63.623047" xlink:href="#DejaVuSans-2e"/>
       <use x="95.410156" xlink:href="#DejaVuSans-30"/>
      </g>
     </g>
    </g>
    <g id="text_13">
     <!-- Fraction of function,target pairs -->
     <defs>
      <path d="M 9.8125 72.90625 
L 51.703125 72.90625 
L 51.703125 64.59375 
L 19.671875 64.59375 
L 19.671875 43.109375 
L 48.578125 43.109375 
L 48.578125 34.8125 
L 19.671875 34.8125 
L 19.671875 0 
L 9.8125 0 
z
" id="DejaVuSans-46"/>
      <path d="M 41.109375 46.296875 
Q 39.59375 47.171875 37.8125 47.578125 
Q 36.03125 48 33.890625 48 
Q 26.265625 48 22.1875 43.046875 
Q 18.109375 38.09375 18.109375 28.8125 
L 18.109375 0 
L 9.078125 0 
L 9.078125 54.6875 
L 18.109375 54.6875 
L 18.109375 46.1875 
Q 20.953125 51.171875 25.484375 53.578125 
Q 30.03125 56 36.53125 56 
Q 37.453125 56 38.578125 55.875 
Q 39.703125 55.765625 41.0625 55.515625 
z
" id="DejaVuSans-72"/>
      <path d="M 48.78125 52.59375 
L 48.78125 44.1875 
Q 44.96875 46.296875 41.140625 47.34375 
Q 37.3125 48.390625 33.40625 48.390625 
Q 24.65625 48.390625 19.8125 42.84375 
Q 14.984375 37.3125 14.984375 27.296875 
Q 14.984375 17.28125 19.8125 11.734375 
Q 24.65625 6.203125 33.40625 6.203125 
Q 37.3125 6.203125 41.140625 7.25 
Q 44.96875 8.296875 48.78125 10.40625 
L 48.78125 2.09375 
Q 45.015625 0.34375 40.984375 -0.53125 
Q 36.96875 -1.421875 32.421875 -1.421875 
Q 20.0625 -1.421875 12.78125 6.34375 
Q 5.515625 14.109375 5.515625 27.296875 
Q 5.515625 40.671875 12.859375 48.328125 
Q 20.21875 56 33.015625 56 
Q 37.15625 56 41.109375 55.140625 
Q 45.0625 54.296875 48.78125 52.59375 
z
" id="DejaVuSans-63"/>
      <path d="M 18.3125 70.21875 
L 18.3125 54.6875 
L 36.8125 54.6875 
L 36.8125 47.703125 
L 18.3125 47.703125 
L 18.3125 18.015625 
Q 18.3125 11.328125 20.140625 9.421875 
Q 21.96875 7.515625 27.59375 7.515625 
L 36.8125 7.515625 
L 36.8125 0 
L 27.59375 0 
Q 17.1875 0 13.234375 3.875 
Q 9.28125 7.765625 9.28125 18.015625 
L 9.28125 47.703125 
L 2.6875 47.703125 
L 2.6875 54.6875 
L 9.28125 54.6875 
L 9.28125 70.21875 
z
" id="DejaVuSans-74"/>
      <path d="M 8.5 21.578125 
L 8.5 54.6875 
L 17.484375 54.6875 
L 17.484375 21.921875 
Q 17.484375 14.15625 20.5 10.265625 
Q 23.53125 6.390625 29.59375 6.390625 
Q 36.859375 6.390625 41.078125 11.03125 
Q 45.3125 15.671875 45.3125 23.6875 
L 45.3125 54.6875 
L 54.296875 54.6875 
L 54.296875 0 
L 45.3125 0 
L 45.3125 8.40625 
Q 42.046875 3.421875 37.71875 1 
Q 33.40625 -1.421875 27.6875 -1.421875 
Q 18.265625 -1.421875 13.375 4.4375 
Q 8.5 10.296875 8.5 21.578125 
z
M 31.109375 56 
z
" id="DejaVuSans-75"/>
      <path d="M 11.71875 12.40625 
L 22.015625 12.40625 
L 22.015625 4 
L 14.015625 -11.625 
L 7.71875 -11.625 
L 11.71875 4 
z
" id="DejaVuSans-2c"/>
      <path d="M 18.109375 8.203125 
L 18.109375 -20.796875 
L 9.078125 -20.796875 
L 9.078125 54.6875 
L 18.109375 54.6875 
L 18.109375 46.390625 
Q 20.953125 51.265625 25.265625 53.625 
Q 29.59375 56 35.59375 56 
Q 45.5625 56 51.78125 48.09375 
Q 58.015625 40.1875 58.015625 27.296875 
Q 58.015625 14.40625 51.78125 6.484375 
Q 45.5625 -1.421875 35.59375 -1.421875 
Q 29.59375 -1.421875 25.265625 0.953125 
Q 20.953125 3.328125 18.109375 8.203125 
z
M 48.6875 27.296875 
Q 48.6875 37.203125 44.609375 42.84375 
Q 40.53125 48.484375 33.40625 48.484375 
Q 26.265625 48.484375 22.1875 42.84375 
Q 18.109375 37.203125 18.109375 27.296875 
Q 18.109375 17.390625 22.1875 11.75 
Q 26.265625 6.109375 33.40625 6.109375 
Q 40.53125 6.109375 44.609375 11.75 
Q 48.6875 17.390625 48.6875 27.296875 
z
" id="DejaVuSans-70"/>
     </defs>
     <g transform="translate(16.139531 294.999375)rotate(-90)scale(0.17 -0.17)">
      <use xlink:href="#DejaVuSans-46"/>
      <use x="57.410156" xlink:href="#DejaVuSans-72"/>
      <use x="98.523438" xlink:href="#DejaVuSans-61"/>
      <use x="159.802734" xlink:href="#DejaVuSans-63"/>
      <use x="214.783203" xlink:href="#DejaVuSans-74"/>
      <use x="253.992188" xlink:href="#DejaVuSans-69"/>
      <use x="281.775391" xlink:href="#DejaVuSans-6f"/>
      <use x="342.957031" xlink:href="#DejaVuSans-6e"/>
      <use x="406.335938" xlink:href="#DejaVuSans-20"/>
      <use x="438.123047" xlink:href="#DejaVuSans-6f"/>
      <use x="499.304688" xlink:href="#DejaVuSans-66"/>
      <use x="534.509766" xlink:href="#DejaVuSans-20"/>
      <use x="566.296875" xlink:href="#DejaVuSans-66"/>
      <use x="601.501953" xlink:href="#DejaVuSans-75"/>
      <use x="664.880859" xlink:href="#DejaVuSans-6e"/>
      <use x="728.259766" xlink:href="#DejaVuSans-63"/>
      <use x="783.240234" xlink:href="#DejaVuSans-74"/>
      <use x="822.449219" xlink:href="#DejaVuSans-69"/>
      <use x="850.232422" xlink:href="#DejaVuSans-6f"/>
      <use x="911.414062" xlink:href="#DejaVuSans-6e"/>
      <use x="974.792969" xlink:href="#DejaVuSans-2c"/>
      <use x="1006.580078" xlink:href="#DejaVuSans-74"/>
      <use x="1045.789062" xlink:href="#DejaVuSans-61"/>
      <use x="1107.068359" xlink:href="#DejaVuSans-72"/>
      <use x="1148.166016" xlink:href="#DejaVuSans-67"/>
      <use x="1211.642578" xlink:href="#DejaVuSans-65"/>
      <use x="1273.166016" xlink:href="#DejaVuSans-74"/>
      <use x="1312.375" xlink:href="#DejaVuSans-20"/>
      <use x="1344.162109" xlink:href="#DejaVuSans-70"/>
      <use x="1407.638672" xlink:href="#DejaVuSans-61"/>
      <use x="1468.917969" xlink:href="#DejaVuSans-69"/>
      <use x="1496.701172" xlink:href="#DejaVuSans-72"/>
      <use x="1537.814453" xlink:href="#DejaVuSans-73"/>
     </g>
    </g>
   </g>
   <g id="line2d_27">
    <defs>
     <path d="M 0 1.5 
C 0.397805 1.5 0.77937 1.341951 1.06066 1.06066 
C 1.341951 0.77937 1.5 0.397805 1.5 0 
C 1.5 -0.397805 1.341951 -0.77937 1.06066 -1.06066 
C 0.77937 -1.341951 0.397805 -1.5 0 -1.5 
C -0.397805 -1.5 -0.77937 -1.341951 -1.06066 -1.06066 
C -1.341951 -0.77937 -1.5 -0.397805 -1.5 0 
C -1.5 0.397805 -1.341951 0.77937 -1.06066 1.06066 
C -0.77937 1.341951 -0.397805 1.5 0 1.5 
z
" id="m09c4223caf" style="stroke:#f5deb3;"/>
    </defs>
    <g>
     <use style="fill:#f5deb3;stroke:#f5deb3;" x="191.200418" xlink:href="#m09c4223caf" y="27.513663"/>
     <use style="fill:#f5deb3;stroke:#f5deb3;" x="191.200418" xlink:href="#m09c4223caf" y="27.513663"/>
    </g>
   </g>
   <g id="line2d_28">
    <defs>
     <path d="M 0 1.5 
C 0.397805 1.5 0.77937 1.341951 1.06066 1.06066 
C 1.341951 0.77937 1.5 0.397805 1.5 0 
C 1.5 -0.397805 1.341951 -0.77937 1.06066 -1.06066 
C 0.77937 -1.341951 0.397805 -1.5 0 -1.5 
C -0.397805 -1.5 -0.77937 -1.341951 -1.06066 -1.06066 
C -1.341951 -0.77937 -1.5 -0.397805 -1.5 0 
C -1.5 0.397805 -1.341951 0.77937 -1.06066 1.06066 
C -0.77937 1.341951 -0.397805 1.5 0 1.5 
z
" id="m4f3a60f2f4" style="stroke:#000080;"/>
    </defs>
    <g>
     <use style="fill:#000080;stroke:#000080;" x="244.042075" xlink:href="#m4f3a60f2f4" y="27.513663"/>
     <use style="fill:#000080;stroke:#000080;" x="244.042075" xlink:href="#m4f3a60f2f4" y="27.513663"/>
    </g>
   </g>
   <g id="line2d_29">
    <path d="M -1 289.637523 
L 136.861612 289.637523 
L 136.861612 288.589027 
L 140.280425 288.589027 
L 140.315916 287.540532 
L 141.944577 287.540532 
L 142.01188 286.492036 
L 143.699139 286.492036 
L 143.699139 285.967789 
L 144.011367 285.967789 
L 144.011367 284.395046 
L 144.739374 284.395046 
L 144.739374 283.870798 
L 146.362624 283.870798 
L 146.362624 282.822302 
L 148.167398 282.822302 
L 148.167398 282.298055 
L 148.473027 282.298055 
L 148.473027 281.773807 
L 149.035489 281.773807 
L 149.035489 281.249559 
L 149.724385 281.249559 
L 149.724385 280.725312 
L 150.033125 280.725312 
L 150.033125 280.201064 
L 150.787712 280.201064 
L 150.787712 279.676816 
L 152.513225 279.676816 
L 152.513225 279.152568 
L 152.769866 279.152568 
L 152.769866 278.628321 
L 153.42306 278.628321 
L 153.459133 277.579825 
L 155.309341 277.579825 
L 155.309341 277.055578 
L 155.624643 277.055578 
L 155.635231 274.958587 
L 156.00952 274.958587 
L 156.00952 274.434339 
L 157.250476 274.434339 
L 157.250476 273.910091 
L 158.040276 273.910091 
L 158.089675 272.861596 
L 158.402282 272.861596 
L 158.423672 271.288853 
L 159.132308 271.288853 
L 159.132308 270.764605 
L 160.634635 270.764605 
L 160.70474 268.143366 
L 161.051044 268.143366 
L 161.051044 267.619119 
L 161.348801 267.619119 
L 161.348801 266.570623 
L 161.57511 266.570623 
L 161.57511 266.046375 
L 163.022564 266.046375 
L 163.088749 264.473632 
L 163.398218 264.473632 
L 163.398218 263.949385 
L 163.623395 263.949385 
L 163.623395 263.425137 
L 165.671999 263.425137 
L 165.671999 262.900889 
L 166.561137 262.900889 
L 166.561137 262.376641 
L 166.960301 262.376641 
L 167.017064 259.755403 
L 167.440581 259.755403 
L 167.440581 258.706907 
L 167.639277 258.706907 
L 167.639277 257.658412 
L 167.879268 257.658412 
L 167.879268 257.134164 
L 168.037637 257.134164 
L 168.037637 256.609917 
L 168.276615 256.609917 
L 168.276615 256.085669 
L 168.410619 256.085669 
L 168.410619 255.561421 
L 169.04176 255.561421 
L 169.04176 255.037173 
L 169.446656 255.037173 
L 169.446656 254.512926 
L 169.810346 254.512926 
L 169.838185 251.891687 
L 170.164802 251.891687 
L 170.164802 250.843192 
L 170.854716 250.843192 
L 170.854716 249.794696 
L 172.250151 249.794696 
L 172.250151 249.270448 
L 172.540835 249.270448 
L 172.540835 248.221953 
L 172.857835 248.221953 
L 172.857835 247.697705 
L 172.992476 247.697705 
L 172.992476 247.173458 
L 173.180079 247.173458 
L 173.180079 246.124962 
L 175.048106 246.124962 
L 175.048106 245.600714 
L 175.201111 245.600714 
L 175.201111 245.076467 
L 175.461774 245.076467 
L 175.461774 244.552219 
L 176.507983 244.552219 
L 176.507983 244.027971 
L 177.364482 244.027971 
L 177.364482 242.455228 
L 178.848432 242.455228 
L 178.848432 241.93098 
L 181.573727 241.93098 
L 181.573727 239.83399 
L 183.610907 239.83399 
L 183.610907 238.785494 
L 183.927056 238.785494 
L 183.927056 238.261246 
L 184.094115 238.261246 
L 184.094115 237.736999 
L 184.416245 237.736999 
L 184.416245 237.212751 
L 185.037688 237.212751 
L 185.037688 236.688503 
L 185.709259 236.688503 
L 185.709259 236.164255 
L 186.074638 236.164255 
L 186.074638 235.640008 
L 187.187819 235.640008 
L 187.190145 234.067265 
L 187.720054 234.067265 
L 187.720054 233.018769 
L 187.989305 233.018769 
L 187.989305 232.494521 
L 188.362553 232.494521 
L 188.362553 231.970274 
L 188.731354 231.970274 
L 188.73232 229.873283 
L 189.045039 229.873283 
L 189.045039 229.349035 
L 189.468844 229.349035 
L 189.468844 228.824787 
L 190.719789 228.824787 
L 190.719789 228.30054 
L 191.25825 228.30054 
L 191.25825 227.776292 
L 191.572731 227.776292 
L 191.572731 226.203549 
L 192.445597 226.203549 
L 192.445597 225.679301 
L 192.741121 225.679301 
L 192.794617 224.106558 
L 193.077803 224.106558 
L 193.077803 223.58231 
L 193.926308 223.58231 
L 193.926308 223.058063 
L 195.036291 223.058063 
L 195.068146 222.009567 
L 195.520919 222.009567 
L 195.520919 221.485319 
L 195.901167 221.485319 
L 195.901167 220.961072 
L 196.847947 220.961072 
L 196.847947 219.912576 
L 196.96439 219.912576 
L 196.96439 219.388328 
L 197.165134 219.388328 
L 197.275576 218.339833 
L 197.935972 218.339833 
L 197.935972 217.815585 
L 198.217862 217.815585 
L 198.217862 217.291338 
L 198.572608 217.291338 
L 198.572608 216.76709 
L 198.711877 216.76709 
L 198.711877 216.242842 
L 198.844231 216.242842 
L 198.844231 215.718594 
L 199.463204 215.718594 
L 199.463204 214.670099 
L 199.625871 214.670099 
L 199.625871 213.621604 
L 200.066581 213.621604 
L 200.066581 212.573108 
L 200.331047 212.573108 
L 200.389149 211.524613 
L 200.454586 211.524613 
L 200.550333 210.476117 
L 200.604308 210.476117 
L 200.696721 208.903374 
L 201.007698 208.903374 
L 201.007698 207.854879 
L 201.187124 207.854879 
L 201.191527 206.806383 
L 201.546516 206.806383 
L 201.630913 203.136649 
L 201.887853 203.136649 
L 201.887853 202.612401 
L 202.20675 202.612401 
L 202.290613 201.039658 
L 202.396616 201.039658 
L 202.396616 199.991163 
L 202.625396 199.991163 
L 202.708191 198.41842 
L 202.788285 198.41842 
L 202.842921 195.272933 
L 202.978461 195.272933 
L 202.978461 194.748686 
L 203.16397 194.748686 
L 203.255522 190.554704 
L 203.430847 190.554704 
L 203.430847 190.030456 
L 203.670711 190.030456 
L 203.689678 188.457713 
L 204.024867 188.457713 
L 204.024867 187.409218 
L 204.151284 187.409218 
L 204.151284 186.88497 
L 204.264952 186.88497 
L 204.264952 186.360722 
L 204.377874 186.360722 
L 204.377874 185.836474 
L 204.860632 185.836474 
L 204.950687 183.739484 
L 205.028734 183.739484 
L 205.107175 182.16674 
L 205.341036 182.16674 
L 205.341036 181.642493 
L 205.461171 181.642493 
L 205.484543 180.593997 
L 205.796065 180.593997 
L 205.807816 179.021254 
L 205.98646 179.021254 
L 205.98646 178.497006 
L 206.135039 178.497006 
L 206.135039 177.972759 
L 206.265545 177.972759 
L 206.265545 177.448511 
L 206.503341 177.448511 
L 206.613672 174.303025 
L 207.002339 174.303025 
L 207.002339 173.254529 
L 207.176933 173.254529 
L 207.176933 172.730281 
L 207.2996 172.730281 
L 207.381439 170.633291 
L 207.527829 170.633291 
L 207.613946 167.487804 
L 207.744239 167.487804 
L 207.83425 165.915061 
L 207.957709 165.915061 
L 208.047304 164.866566 
L 208.214336 164.866566 
L 208.214336 164.342318 
L 208.438077 164.342318 
L 208.486451 162.769575 
L 208.551125 162.769575 
L 208.551125 162.245327 
L 208.766516 162.245327 
L 208.851347 159.099841 
L 209.083238 159.099841 
L 209.083238 158.575593 
L 209.273556 158.575593 
L 209.273556 158.051345 
L 209.509685 158.051345 
L 209.509685 157.527098 
L 209.700338 157.527098 
L 209.700338 157.00285 
L 209.828337 157.00285 
L 209.860854 155.430107 
L 210.030537 155.430107 
L 210.030537 154.905859 
L 210.200615 154.905859 
L 210.200615 153.857364 
L 210.381608 153.857364 
L 210.468691 152.28462 
L 210.741636 152.28462 
L 210.840078 151.236125 
L 210.95321 151.236125 
L 210.95321 150.711877 
L 211.116027 150.711877 
L 211.132435 149.139134 
L 211.36207 149.139134 
L 211.469873 147.042143 
L 211.649078 147.042143 
L 211.710535 145.993648 
L 211.973075 145.993648 
L 212.048994 144.420905 
L 212.173136 144.420905 
L 212.173136 143.896657 
L 212.305426 143.896657 
L 212.305426 143.372409 
L 212.553253 143.372409 
L 212.553253 142.323914 
L 212.94456 142.323914 
L 213.027293 140.751171 
L 213.127426 140.751171 
L 213.162591 139.178427 
L 213.326286 139.178427 
L 213.406655 135.508693 
L 213.447871 135.508693 
L 213.447871 134.984446 
L 213.569105 134.984446 
L 213.620672 133.93595 
L 213.718822 133.93595 
L 213.72045 132.363207 
L 213.874824 132.363207 
L 213.975728 128.169225 
L 214.006267 128.169225 
L 214.006267 127.644978 
L 214.162825 127.644978 
L 214.222707 124.499491 
L 214.299923 124.499491 
L 214.316006 122.926748 
L 214.437021 122.926748 
L 214.480258 121.354005 
L 214.570453 121.354005 
L 214.659793 119.781262 
L 214.768255 119.781262 
L 214.768255 119.257014 
L 214.890071 119.257014 
L 214.965449 116.111528 
L 215.004065 116.111528 
L 215.092606 113.490289 
L 215.124311 113.490289 
L 215.124311 112.966042 
L 215.236272 112.966042 
L 215.316459 110.869051 
L 215.403821 110.869051 
L 215.512516 107.723564 
L 215.557689 107.723564 
L 215.616155 105.626573 
L 215.748379 105.626573 
L 215.748379 105.102326 
L 215.90833 105.102326 
L 215.999917 103.529583 
L 216.051018 103.529583 
L 216.158853 101.432592 
L 216.369801 101.432592 
L 216.369801 100.384096 
L 216.487179 100.384096 
L 216.597755 96.190115 
L 216.840241 96.190115 
L 216.883568 94.617371 
L 217.048712 94.617371 
L 217.139259 91.471885 
L 217.162785 91.471885 
L 217.22166 88.850646 
L 217.27526 88.850646 
L 217.27526 87.802151 
L 217.388393 87.802151 
L 217.488695 85.70516 
L 217.714938 85.70516 
L 217.714938 85.180912 
L 217.844061 85.180912 
L 217.869414 83.083922 
L 217.972222 83.083922 
L 218.07189 81.511178 
L 218.144184 81.511178 
L 218.144184 80.462683 
L 218.349173 80.462683 
L 218.448543 78.88994 
L 218.563595 78.88994 
L 218.63542 77.317197 
L 218.999964 77.317197 
L 219.064292 75.744454 
L 219.169614 75.744454 
L 219.253979 73.647463 
L 219.377918 73.647463 
L 219.377918 73.123215 
L 219.523481 73.123215 
L 219.523481 72.074719 
L 219.677774 72.074719 
L 219.759086 69.453481 
L 220.031288 69.453481 
L 220.071884 68.404985 
L 220.149397 68.404985 
L 220.149397 67.880738 
L 220.264074 67.880738 
L 220.264074 67.35649 
L 220.49363 67.35649 
L 220.49363 66.307995 
L 220.804287 66.307995 
L 220.914873 64.735251 
L 221.133229 64.735251 
L 221.133229 63.686756 
L 221.277178 63.686756 
L 221.33308 62.638261 
L 221.407093 62.638261 
L 221.414845 61.065517 
L 221.624414 61.065517 
L 221.624414 60.017022 
L 221.872451 60.017022 
L 221.872451 59.492774 
L 221.987115 59.492774 
L 222.089291 57.920031 
L 222.228552 57.920031 
L 222.228552 57.395783 
L 222.416771 57.395783 
L 222.416771 56.871536 
L 222.673592 56.871536 
L 222.673592 55.82304 
L 223.049028 55.82304 
L 223.049028 55.298792 
L 223.279844 55.298792 
L 223.279844 53.726049 
L 223.556516 53.726049 
L 223.621574 52.677554 
L 223.943372 52.677554 
L 223.943372 51.629058 
L 224.323063 51.629058 
L 224.323063 51.104811 
L 224.68607 51.104811 
L 224.68607 50.056315 
L 224.799715 50.056315 
L 224.799715 49.532068 
L 225.128897 49.532068 
L 225.128897 49.00782 
L 225.633944 49.00782 
L 225.633944 48.483572 
L 225.987412 48.483572 
L 225.987412 47.435077 
L 226.126852 47.435077 
L 226.126852 46.910829 
L 227.229037 46.910829 
L 227.229037 46.386581 
L 228.505192 46.386581 
L 228.505192 45.862334 
L 228.766575 45.862334 
L 228.766575 45.338086 
L 228.934872 45.338086 
L 229.02401 43.765343 
L 229.635261 43.765343 
L 229.635261 43.241095 
L 230.40897 43.241095 
L 230.40897 42.192599 
L 232.559452 42.192599 
L 232.559452 41.668352 
L 232.817739 41.668352 
L 232.817739 41.144104 
L 232.932264 41.144104 
L 233.030479 40.095609 
L 233.28786 40.095609 
L 233.28786 37.998618 
L 233.417395 37.998618 
L 233.417395 36.950122 
L 233.677574 36.950122 
L 233.677574 34.853131 
L 233.794956 34.853131 
L 233.794956 34.328884 
L 234.282716 34.328884 
L 234.282716 33.280388 
L 234.560487 33.280388 
L 234.560487 32.756141 
L 235.144517 32.756141 
L 235.22319 31.183397 
L 235.510579 31.183397 
L 235.510579 30.65915 
L 236.294949 30.65915 
L 236.294949 30.134902 
L 236.57989 30.134902 
L 236.57989 29.610654 
L 238.007773 29.610654 
L 238.007773 28.562159 
L 238.609581 28.562159 
L 238.609581 28.037911 
L 244.042075 28.037911 
L 244.042075 27.513663 
L 333.429677 27.513663 
L 333.429677 27.513663 
" style="fill:none;stroke:#000080;stroke-linecap:square;stroke-width:1.5;"/>
   </g>
   <g id="line2d_30">
    <defs>
     <path d="M 0 6 
C 1.591219 6 3.117479 5.367802 4.242641 4.242641 
C 5.367802 3.117479 6 1.591219 6 0 
C 6 -1.591219 5.367802 -3.117479 4.242641 -4.242641 
C 3.117479 -5.367802 1.591219 -6 0 -6 
C -1.591219 -6 -3.117479 -5.367802 -4.242641 -4.242641 
C -5.367802 -3.117479 -6 -1.591219 -6 0 
C -6 1.591219 -5.367802 3.117479 -4.242641 4.242641 
C -3.117479 5.367802 -1.591219 6 0 6 
z
" id="m71d2662f14" style="stroke:#000080;stroke-width:1.5;"/>
    </defs>
    <g>
     <use style="fill-opacity:0;stroke:#000080;stroke-width:1.5;" x="163.623395" xlink:href="#m71d2662f14" y="263.949385"/>
     <use style="fill-opacity:0;stroke:#000080;stroke-width:1.5;" x="213.874824" xlink:href="#m71d2662f14" y="130.790464"/>
     <use style="fill-opacity:0;stroke:#000080;stroke-width:1.5;" x="244.042075" xlink:href="#m71d2662f14" y="28.037911"/>
     <use style="fill-opacity:0;stroke:#000080;stroke-width:1.5;" x="244.042075" xlink:href="#m71d2662f14" y="27.513663"/>
     <use style="fill-opacity:0;stroke:#000080;stroke-width:1.5;" x="333.429677" xlink:href="#m71d2662f14" y="27.513663"/>
    </g>
   </g>
   <g id="line2d_31">
    <path style="fill:none;stroke:#000080;stroke-linecap:square;stroke-width:1.5;"/>
    <g/>
   </g>
   <g id="line2d_32">
    <defs>
     <path d="M 0 1.5 
C 0.397805 1.5 0.77937 1.341951 1.06066 1.06066 
C 1.341951 0.77937 1.5 0.397805 1.5 0 
C 1.5 -0.397805 1.341951 -0.77937 1.06066 -1.06066 
C 0.77937 -1.341951 0.397805 -1.5 0 -1.5 
C -0.397805 -1.5 -0.77937 -1.341951 -1.06066 -1.06066 
C -1.341951 -0.77937 -1.5 -0.397805 -1.5 0 
C -1.5 0.397805 -1.341951 0.77937 -1.06066 1.06066 
C -0.77937 1.341951 -0.397805 1.5 0 1.5 
z
" id="m21e939ad66" style="stroke:#ff00ff;"/>
    </defs>
    <g>
     <use style="fill:#ff00ff;stroke:#ff00ff;" x="267.965643" xlink:href="#m21e939ad66" y="27.513663"/>
     <use style="fill:#ff00ff;stroke:#ff00ff;" x="267.965643" xlink:href="#m21e939ad66" y="27.513663"/>
    </g>
   </g>
   <g id="line2d_33">
    <path d="M -1 289.637523 
L 103.578357 289.637523 
L 103.578357 289.113275 
L 104.035746 289.113275 
L 104.035746 288.589027 
L 108.065011 288.589027 
L 108.065011 287.540532 
L 109.83987 287.540532 
L 109.83987 287.016284 
L 111.500328 287.016284 
L 111.500328 286.492036 
L 111.807261 286.492036 
L 111.807261 285.967789 
L 112.51906 285.967789 
L 112.51906 284.395046 
L 112.888036 284.395046 
L 112.888036 283.870798 
L 113.465487 283.870798 
L 113.465487 282.822302 
L 116.289973 282.822302 
L 116.289973 282.298055 
L 117.091528 282.298055 
L 117.091528 281.773807 
L 117.928588 281.773807 
L 117.928588 281.249559 
L 118.187136 281.249559 
L 118.210449 280.201064 
L 118.533555 280.201064 
L 118.533555 279.676816 
L 118.895538 279.676816 
L 118.895538 278.628321 
L 119.184142 278.628321 
L 119.261023 276.53133 
L 119.359368 276.53133 
L 119.359368 276.007082 
L 119.736565 276.007082 
L 119.736565 275.482834 
L 119.906281 275.482834 
L 119.906281 274.958587 
L 120.282131 274.958587 
L 120.282131 274.434339 
L 121.916296 274.434339 
L 121.916296 273.910091 
L 123.183262 273.910091 
L 123.183262 273.385844 
L 124.04262 273.385844 
L 124.108889 271.8131 
L 125.057809 271.8131 
L 125.057809 271.288853 
L 125.596949 271.288853 
L 125.680156 269.716109 
L 125.822935 269.716109 
L 125.822935 268.667614 
L 126.295342 268.667614 
L 126.295342 268.143366 
L 128.454753 268.143366 
L 128.454753 267.094871 
L 129.263878 267.094871 
L 129.263878 266.570623 
L 130.697467 266.570623 
L 130.697467 265.522128 
L 131.474505 265.522128 
L 131.474505 264.473632 
L 132.575449 264.473632 
L 132.686286 263.425137 
L 133.220273 263.425137 
L 133.220273 262.900889 
L 136.459025 262.900889 
L 136.459025 262.376641 
L 136.659503 262.376641 
L 136.659503 261.852394 
L 137.564107 261.852394 
L 137.564107 261.328146 
L 139.675645 261.328146 
L 139.675645 260.803898 
L 141.645868 260.803898 
L 141.645868 260.279651 
L 142.00896 260.279651 
L 142.00896 259.755403 
L 143.283769 259.755403 
L 143.283769 259.231155 
L 145.656601 259.231155 
L 145.656601 258.706907 
L 146.706172 258.706907 
L 146.706172 257.658412 
L 149.299458 257.658412 
L 149.299458 257.134164 
L 150.10261 257.134164 
L 150.10261 256.609917 
L 154.873751 256.609917 
L 154.873751 256.085669 
L 155.870441 256.085669 
L 155.870441 255.561421 
L 156.269057 255.561421 
L 156.269057 255.037173 
L 157.100467 255.037173 
L 157.100467 254.512926 
L 158.8975 254.512926 
L 158.8975 253.988678 
L 160.015126 253.988678 
L 160.015126 252.415935 
L 161.039451 252.415935 
L 161.039451 251.367439 
L 161.41417 251.367439 
L 161.41417 250.318944 
L 162.575886 250.318944 
L 162.575886 249.794696 
L 163.446179 249.794696 
L 163.446179 249.270448 
L 164.826922 249.270448 
L 164.826922 248.746201 
L 165.679381 248.746201 
L 165.679381 248.221953 
L 167.725981 248.221953 
L 167.725981 247.697705 
L 168.684213 247.697705 
L 168.684213 247.173458 
L 169.346172 247.173458 
L 169.346172 246.64921 
L 170.36492 246.64921 
L 170.36492 246.124962 
L 170.778619 246.124962 
L 170.778619 245.600714 
L 171.305431 245.600714 
L 171.305431 244.552219 
L 172.087699 244.552219 
L 172.087699 243.503724 
L 172.338074 243.503724 
L 172.338074 242.979476 
L 173.170532 242.979476 
L 173.170532 242.455228 
L 173.420333 242.455228 
L 173.420333 241.93098 
L 174.241354 241.93098 
L 174.241354 240.882485 
L 174.842248 240.882485 
L 174.842248 240.358237 
L 174.996657 240.358237 
L 174.996657 239.83399 
L 176.936768 239.83399 
L 176.936768 239.309742 
L 178.085174 239.309742 
L 178.085174 238.261246 
L 178.356094 238.261246 
L 178.356094 237.736999 
L 178.608549 237.736999 
L 178.608549 237.212751 
L 179.463071 237.212751 
L 179.463071 236.688503 
L 180.46378 236.688503 
L 180.46378 236.164255 
L 180.591116 236.164255 
L 180.591116 235.640008 
L 180.856747 235.640008 
L 180.856747 234.067265 
L 181.181097 234.067265 
L 181.181097 233.543017 
L 181.431638 233.543017 
L 181.431638 233.018769 
L 192.032813 233.018769 
L 192.032813 231.970274 
L 192.169929 231.970274 
L 192.169929 231.446026 
L 192.434692 231.446026 
L 192.434692 230.921778 
L 193.346061 230.921778 
L 193.346061 229.873283 
L 193.78714 229.873283 
L 193.78714 229.349035 
L 197.35174 229.349035 
L 197.35174 228.824787 
L 197.618745 228.824787 
L 197.618745 228.30054 
L 198.163215 228.30054 
L 198.163215 227.776292 
L 199.022074 227.776292 
L 199.022074 226.203549 
L 200.689199 226.203549 
L 200.794584 224.106558 
L 200.817192 224.106558 
L 200.817192 223.58231 
L 202.801683 223.58231 
L 202.801683 223.058063 
L 203.69632 223.058063 
L 203.69632 222.533815 
L 209.367465 222.533815 
L 209.372007 220.436824 
L 209.797577 220.436824 
L 209.858929 218.339833 
L 210.065694 218.339833 
L 210.143589 216.242842 
L 210.204277 216.242842 
L 210.204277 215.718594 
L 210.365402 215.718594 
L 210.365402 214.670099 
L 210.538803 214.670099 
L 210.61692 213.097356 
L 210.66187 213.097356 
L 210.733945 211.524613 
L 210.840826 211.524613 
L 210.840826 210.476117 
L 211.03423 210.476117 
L 211.093389 209.427622 
L 211.150087 209.427622 
L 211.202936 208.379126 
L 211.319071 208.379126 
L 211.319071 207.854879 
L 211.435667 207.854879 
L 211.49578 206.806383 
L 211.937748 206.806383 
L 211.937748 206.282136 
L 216.281531 206.282136 
L 216.281531 205.757888 
L 219.858573 205.757888 
L 219.952012 203.660897 
L 219.989151 203.660897 
L 220.092037 202.088154 
L 220.172226 202.088154 
L 220.257147 199.991163 
L 220.366071 199.991163 
L 220.455547 197.894172 
L 220.568754 197.894172 
L 220.615193 196.845677 
L 220.691237 196.845677 
L 220.780632 193.70019 
L 220.84615 193.70019 
L 220.864133 191.603199 
L 222.752987 191.603199 
L 222.752987 191.078952 
L 223.975893 191.078952 
L 223.975893 190.554704 
L 228.98666 190.554704 
L 229.094156 187.409218 
L 229.135428 187.409218 
L 229.198373 184.263731 
L 229.315323 184.263731 
L 229.422571 180.06975 
L 229.513649 180.06975 
L 229.615363 176.400016 
L 229.699784 176.400016 
L 229.760115 173.778777 
L 231.674447 173.778777 
L 231.779646 169.584795 
L 231.797556 169.584795 
L 231.886045 166.963557 
L 231.929947 166.963557 
L 231.98211 163.81807 
L 232.055548 163.81807 
L 232.137313 161.721079 
L 232.199901 161.721079 
L 232.276064 159.624089 
L 232.314072 159.624089 
L 232.314072 159.099841 
L 233.341404 159.099841 
L 233.441875 156.478602 
L 233.502191 156.478602 
L 233.602784 151.236125 
L 233.624342 151.236125 
L 233.724733 148.614886 
L 233.765234 148.614886 
L 233.862299 145.4694 
L 233.877034 145.4694 
L 233.907445 143.372409 
L 237.057465 143.372409 
L 237.057465 142.323914 
L 239.266309 142.323914 
L 239.373903 137.605684 
L 239.429281 137.605684 
L 239.533312 133.93595 
L 239.587285 133.93595 
L 239.661426 129.741969 
L 245.659333 129.741969 
L 245.762075 121.354005 
L 245.771357 121.354005 
L 245.866322 114.014537 
L 245.88516 114.014537 
L 245.90248 111.917546 
L 249.323431 111.917546 
L 249.323431 111.393298 
L 252.049026 111.393298 
L 252.155791 105.626573 
L 252.181645 105.626573 
L 252.21041 102.481087 
L 253.54327 102.481087 
L 253.651492 93.044628 
L 253.676414 93.044628 
L 253.703691 88.850646 
L 254.481724 88.850646 
L 254.588066 78.365692 
L 254.596078 78.365692 
L 254.655397 73.123215 
L 261.515094 73.123215 
L 261.609643 53.201802 
L 261.745264 53.201802 
L 261.837771 41.668352 
L 267.905756 41.668352 
L 267.965643 27.513663 
L 333.429677 27.513663 
L 333.429677 27.513663 
" style="fill:none;stroke:#ff00ff;stroke-linecap:square;stroke-width:1.5;"/>
   </g>
   <g id="line2d_34">
    <defs>
     <path d="M -0 8.485281 
L 5.091169 0 
L 0 -8.485281 
L -5.091169 -0 
z
" id="m95a1888c01" style="stroke:#ff00ff;stroke-linejoin:miter;stroke-width:1.5;"/>
    </defs>
    <g>
     <use style="fill-opacity:0;stroke:#ff00ff;stroke-linejoin:miter;stroke-width:1.5;" x="181.431638" xlink:href="#m95a1888c01" y="233.018769"/>
     <use style="fill-opacity:0;stroke:#ff00ff;stroke-linejoin:miter;stroke-width:1.5;" x="233.862299" xlink:href="#m95a1888c01" y="145.4694"/>
     <use style="fill-opacity:0;stroke:#ff00ff;stroke-linejoin:miter;stroke-width:1.5;" x="267.965643" xlink:href="#m95a1888c01" y="27.513663"/>
     <use style="fill-opacity:0;stroke:#ff00ff;stroke-linejoin:miter;stroke-width:1.5;" x="267.965643" xlink:href="#m95a1888c01" y="27.513663"/>
     <use style="fill-opacity:0;stroke:#ff00ff;stroke-linejoin:miter;stroke-width:1.5;" x="333.429677" xlink:href="#m95a1888c01" y="27.513663"/>
    </g>
   </g>
   <g id="line2d_35">
    <path style="fill:none;stroke:#ff00ff;stroke-linecap:square;stroke-width:1.5;"/>
    <g/>
   </g>
   <g id="line2d_36">
    <defs>
     <path d="M 0 1.5 
C 0.397805 1.5 0.77937 1.341951 1.06066 1.06066 
C 1.341951 0.77937 1.5 0.397805 1.5 0 
C 1.5 -0.397805 1.341951 -0.77937 1.06066 -1.06066 
C 0.77937 -1.341951 0.397805 -1.5 0 -1.5 
C -0.397805 -1.5 -0.77937 -1.341951 -1.06066 -1.06066 
C -1.341951 -0.77937 -1.5 -0.397805 -1.5 0 
C -1.5 0.397805 -1.341951 0.77937 -1.06066 1.06066 
C -0.77937 1.341951 -0.397805 1.5 0 1.5 
z
" id="m53a63c946a" style="stroke:#ffa500;"/>
    </defs>
    <g>
     <use style="fill:#ffa500;stroke:#ffa500;" x="328.725089" xlink:href="#m53a63c946a" y="195.272933"/>
     <use style="fill:#ffa500;stroke:#ffa500;" x="328.725089" xlink:href="#m53a63c946a" y="195.272933"/>
    </g>
   </g>
   <g id="line2d_37">
    <path d="M -1 289.637523 
L 173.057481 289.637523 
L 173.057481 289.113275 
L 176.027442 289.113275 
L 176.0884 287.540532 
L 176.569616 287.540532 
L 176.650932 286.492036 
L 178.06866 286.492036 
L 178.112065 285.443541 
L 178.609246 285.443541 
L 178.609246 284.919293 
L 179.070112 284.919293 
L 179.070112 284.395046 
L 182.250756 284.395046 
L 182.351857 282.822302 
L 182.57691 282.822302 
L 182.57691 282.298055 
L 182.869303 282.298055 
L 182.869303 281.773807 
L 183.329892 281.773807 
L 183.329892 281.249559 
L 184.602983 281.249559 
L 184.701704 278.628321 
L 186.893799 278.628321 
L 186.924523 277.055578 
L 187.052414 277.055578 
L 187.052414 276.007082 
L 187.713699 276.007082 
L 187.713699 275.482834 
L 187.965074 275.482834 
L 187.965074 274.958587 
L 188.777289 274.958587 
L 188.777289 274.434339 
L 190.773764 274.434339 
L 190.807713 272.337348 
L 191.000359 272.337348 
L 191.028961 270.764605 
L 191.433065 270.764605 
L 191.433065 270.240357 
L 191.819337 270.240357 
L 191.819337 269.191862 
L 192.041106 269.191862 
L 192.041106 268.667614 
L 192.385065 268.667614 
L 192.495205 267.094871 
L 192.686077 267.094871 
L 192.686077 266.570623 
L 193.875076 266.570623 
L 193.881667 265.522128 
L 194.986518 265.522128 
L 194.986518 264.99788 
L 195.510887 264.99788 
L 195.510887 264.473632 
L 196.542853 264.473632 
L 196.595058 262.900889 
L 196.845414 262.900889 
L 196.949533 261.328146 
L 197.753799 261.328146 
L 197.753799 260.803898 
L 198.39918 260.803898 
L 198.39918 259.755403 
L 198.818766 259.755403 
L 198.903395 258.18266 
L 199.47273 258.18266 
L 199.47273 257.658412 
L 199.89977 257.658412 
L 199.964275 256.085669 
L 201.082333 256.085669 
L 201.082333 255.561421 
L 201.820342 255.561421 
L 201.820342 255.037173 
L 202.047595 255.037173 
L 202.047595 254.512926 
L 203.579064 254.512926 
L 203.579064 253.988678 
L 205.803088 253.988678 
L 205.803088 252.940182 
L 206.015996 252.940182 
L 206.015996 252.415935 
L 206.690329 252.415935 
L 206.690329 251.891687 
L 207.350689 251.891687 
L 207.350689 251.367439 
L 207.884095 251.367439 
L 207.884095 250.843192 
L 209.12062 250.843192 
L 209.12062 250.318944 
L 209.725284 250.318944 
L 209.725284 249.794696 
L 210.246222 249.794696 
L 210.246222 249.270448 
L 212.333684 249.270448 
L 212.333684 248.746201 
L 212.472628 248.746201 
L 212.472628 248.221953 
L 218.807675 248.221953 
L 218.807675 247.697705 
L 254.757018 247.697705 
L 254.833391 246.64921 
L 254.87642 246.64921 
L 254.956131 244.552219 
L 255.005751 244.552219 
L 255.082807 242.979476 
L 255.17998 242.979476 
L 255.17998 242.455228 
L 255.407342 242.455228 
L 255.407342 239.83399 
L 255.605271 239.83399 
L 255.605271 239.309742 
L 256.268084 239.309742 
L 256.268084 237.736999 
L 266.571762 237.736999 
L 266.638908 235.640008 
L 266.697008 235.640008 
L 266.697008 235.11576 
L 266.841688 235.11576 
L 266.841688 234.067265 
L 273.343071 234.067265 
L 273.343071 233.543017 
L 273.458552 233.543017 
L 273.458552 233.018769 
L 273.581692 233.018769 
L 273.595822 231.970274 
L 278.254782 231.970274 
L 278.308808 229.873283 
L 278.370654 229.873283 
L 278.370654 229.349035 
L 282.089364 229.349035 
L 282.187819 226.727797 
L 282.322852 226.727797 
L 282.322852 226.203549 
L 285.163152 226.203549 
L 285.240191 225.155053 
L 285.30892 225.155053 
L 285.388036 224.106558 
L 287.781695 224.106558 
L 287.891791 220.961072 
L 287.920833 220.961072 
L 287.920833 220.436824 
L 290.110257 220.436824 
L 290.136257 218.864081 
L 290.247604 218.864081 
L 290.247604 218.339833 
L 292.087823 218.339833 
L 292.190879 215.194347 
L 294.032554 215.194347 
L 294.032554 214.670099 
L 295.586572 214.670099 
L 295.652599 213.097356 
L 297.01988 213.097356 
L 297.058597 211.524613 
L 298.391702 211.524613 
L 298.411402 208.379126 
L 300.859555 208.379126 
L 300.903982 206.806383 
L 301.973057 206.806383 
L 301.973057 206.282136 
L 303.002717 206.282136 
L 303.044025 204.709392 
L 303.972866 204.709392 
L 303.98283 203.660897 
L 305.804256 203.660897 
L 305.804256 203.136649 
L 307.417012 203.136649 
L 307.43818 202.088154 
L 308.218533 202.088154 
L 308.218533 201.563906 
L 309.647159 201.563906 
L 309.647159 201.039658 
L 311.565779 201.039658 
L 311.565779 200.515411 
L 312.160822 200.515411 
L 312.207889 198.942667 
L 313.859814 198.942667 
L 313.859814 198.41842 
L 314.407197 198.41842 
L 314.407197 197.894172 
L 315.882486 197.894172 
L 315.882486 197.369924 
L 317.255311 197.369924 
L 317.255311 196.845677 
L 318.125572 196.845677 
L 318.125572 196.321429 
L 320.828842 196.321429 
L 320.828842 195.797181 
L 328.725089 195.797181 
L 328.725089 195.272933 
L 333.429677 195.272933 
L 333.429677 195.272933 
" style="fill:none;stroke:#ffa500;stroke-linecap:square;stroke-width:1.5;"/>
   </g>
   <g id="line2d_38">
    <defs>
     <path d="M 0 -6 
L -1.347084 -1.854102 
L -5.706339 -1.854102 
L -2.179628 0.708204 
L -3.526712 4.854102 
L -0 2.291796 
L 3.526712 4.854102 
L 2.179628 0.708204 
L 5.706339 -1.854102 
L 1.347084 -1.854102 
z
" id="m9b3a6b4133" style="stroke:#ffa500;stroke-linejoin:bevel;stroke-width:1.5;"/>
    </defs>
    <g>
     <use style="fill-opacity:0;stroke:#ffa500;stroke-linejoin:bevel;stroke-width:1.5;" x="194.986518" xlink:href="#m9b3a6b4133" y="265.522128"/>
     <use style="fill-opacity:0;stroke:#ffa500;stroke-linejoin:bevel;stroke-width:1.5;" x="256.268084" xlink:href="#m9b3a6b4133" y="239.309742"/>
     <use style="fill-opacity:0;stroke:#ffa500;stroke-linejoin:bevel;stroke-width:1.5;" x="320.828842" xlink:href="#m9b3a6b4133" y="195.797181"/>
     <use style="fill-opacity:0;stroke:#ffa500;stroke-linejoin:bevel;stroke-width:1.5;" x="328.725089" xlink:href="#m9b3a6b4133" y="195.272933"/>
     <use style="fill-opacity:0;stroke:#ffa500;stroke-linejoin:bevel;stroke-width:1.5;" x="333.429677" xlink:href="#m9b3a6b4133" y="195.272933"/>
    </g>
   </g>
   <g id="line2d_39">
    <path style="fill:none;stroke:#ffa500;stroke-linecap:square;stroke-width:1.5;"/>
    <g/>
   </g>
   <g id="line2d_40">
    <path clip-path="url(#pd305b75934)" d="M 254.198341 247.697705 
" style="fill:none;stroke:#ffa500;stroke-linecap:square;stroke-width:1.5;"/>
    <defs>
     <path d="M -12 12 
L 12 -12 
M -12 -12 
L 12 12 
" id="m7912f06076" style="stroke:#ffa500;stroke-width:3;"/>
    </defs>
    <g clip-path="url(#pd305b75934)">
     <use style="fill:#ffa500;stroke:#ffa500;stroke-width:3;" x="254.198341" xlink:href="#m7912f06076" y="247.697705"/>
    </g>
   </g>
   <g id="line2d_41">
    <defs>
     <path d="M 0 1.5 
C 0.397805 1.5 0.77937 1.341951 1.06066 1.06066 
C 1.341951 0.77937 1.5 0.397805 1.5 0 
C 1.5 -0.397805 1.341951 -0.77937 1.06066 -1.06066 
C 0.77937 -1.341951 0.397805 -1.5 0 -1.5 
C -0.397805 -1.5 -0.77937 -1.341951 -1.06066 -1.06066 
C -1.341951 -0.77937 -1.5 -0.397805 -1.5 0 
C -1.5 0.397805 -1.341951 0.77937 -1.06066 1.06066 
C -0.77937 1.341951 -0.397805 1.5 0 1.5 
z
" id="m0d66818a15" style="stroke:#ff0000;"/>
    </defs>
    <g>
     <use style="fill:#ff0000;stroke:#ff0000;" x="233.306745" xlink:href="#m0d66818a15" y="27.513663"/>
     <use style="fill:#ff0000;stroke:#ff0000;" x="233.306745" xlink:href="#m0d66818a15" y="27.513663"/>
    </g>
   </g>
   <g id="line2d_42">
    <path d="M -1 289.637523 
L 84.649592 289.637523 
L 84.649592 288.589027 
L 86.730565 288.589027 
L 86.730565 287.540532 
L 86.946982 287.540532 
L 86.946982 287.016284 
L 87.301734 287.016284 
L 87.301734 286.492036 
L 87.649319 286.492036 
L 87.649319 285.967789 
L 87.922418 285.967789 
L 87.922418 285.443541 
L 88.390151 285.443541 
L 88.390151 284.919293 
L 88.521487 284.919293 
L 88.521487 284.395046 
L 88.651827 284.395046 
L 88.651827 283.870798 
L 89.100397 283.870798 
L 89.100397 282.822302 
L 89.289118 282.822302 
L 89.289118 282.298055 
L 89.413791 282.298055 
L 89.413791 281.773807 
L 89.599124 281.773807 
L 89.599124 281.249559 
L 90.202865 281.249559 
L 90.202865 280.725312 
L 90.496972 280.725312 
L 90.496972 280.201064 
L 90.613222 280.201064 
L 90.613222 279.152568 
L 90.957331 279.152568 
L 91.014019 278.104073 
L 91.070521 278.104073 
L 91.070521 277.579825 
L 91.734457 277.579825 
L 91.788645 276.007082 
L 91.950195 276.007082 
L 91.950195 275.482834 
L 92.477993 275.482834 
L 92.477993 274.958587 
L 92.68466 274.958587 
L 92.78707 273.910091 
L 93.140781 273.910091 
L 93.140781 273.385844 
L 93.97068 273.385844 
L 93.97068 272.337348 
L 94.716807 272.337348 
L 94.716807 271.8131 
L 95.122707 271.8131 
L 95.122707 271.288853 
L 95.255907 271.288853 
L 95.344137 269.191862 
L 96.07637 269.191862 
L 96.07637 268.667614 
L 96.492973 268.667614 
L 96.492973 267.094871 
L 96.899726 267.094871 
L 96.899726 266.046375 
L 97.178838 266.046375 
L 97.178838 265.522128 
L 97.685473 265.522128 
L 97.685473 264.99788 
L 100.609763 264.99788 
L 100.609763 264.473632 
L 101.057499 264.473632 
L 101.057499 263.949385 
L 102.187595 263.949385 
L 102.187595 262.900889 
L 102.451613 262.900889 
L 102.451613 262.376641 
L 103.523738 262.376641 
L 103.523738 261.328146 
L 105.339187 261.328146 
L 105.339187 259.755403 
L 105.486238 259.755403 
L 105.486238 259.231155 
L 105.704484 259.231155 
L 105.704484 258.706907 
L 108.232253 258.706907 
L 108.232253 258.18266 
L 110.690123 258.18266 
L 110.690123 257.134164 
L 113.108816 257.134164 
L 113.108816 256.609917 
L 114.493171 256.609917 
L 114.493171 256.085669 
L 118.163792 256.085669 
L 118.163792 255.037173 
L 121.236249 255.037173 
L 121.236249 254.512926 
L 121.784313 254.512926 
L 121.784313 252.940182 
L 123.313635 252.940182 
L 123.313635 252.415935 
L 124.908508 252.415935 
L 124.908508 251.891687 
L 126.790532 251.891687 
L 126.790532 251.367439 
L 127.706597 251.367439 
L 127.706597 250.843192 
L 128.377514 250.843192 
L 128.377514 249.794696 
L 129.705441 249.794696 
L 129.705441 249.270448 
L 131.431344 249.270448 
L 131.431344 248.746201 
L 131.54441 248.746201 
L 131.62472 247.697705 
L 131.699338 247.697705 
L 131.715286 246.124962 
L 131.837062 246.124962 
L 131.837062 245.600714 
L 132.325988 245.600714 
L 132.325988 245.076467 
L 133.053947 245.076467 
L 133.053947 243.503724 
L 142.827511 243.503724 
L 142.827511 241.93098 
L 143.305454 241.93098 
L 143.356848 240.882485 
L 143.467231 240.882485 
L 143.467231 240.358237 
L 143.648758 240.358237 
L 143.648758 239.83399 
L 144.495898 239.83399 
L 144.495898 239.309742 
L 145.736756 239.309742 
L 145.736756 238.261246 
L 145.972683 238.261246 
L 145.972683 237.212751 
L 148.171482 237.212751 
L 148.171482 236.688503 
L 151.965253 236.688503 
L 151.965253 236.164255 
L 153.972396 236.164255 
L 153.972396 235.640008 
L 154.147831 235.640008 
L 154.147831 234.591512 
L 154.314354 234.591512 
L 154.314354 233.543017 
L 154.465125 233.543017 
L 154.521679 231.970274 
L 154.931736 231.970274 
L 154.931736 231.446026 
L 155.093607 231.446026 
L 155.194348 228.30054 
L 155.243145 228.30054 
L 155.270194 227.252044 
L 155.394078 227.252044 
L 155.482404 224.630806 
L 155.521071 224.630806 
L 155.598146 222.533815 
L 155.669596 222.533815 
L 155.739435 219.912576 
L 155.861303 219.912576 
L 155.953764 217.291338 
L 156.049605 217.291338 
L 156.128211 213.621604 
L 156.207738 213.621604 
L 156.311086 211.524613 
L 156.423931 211.524613 
L 156.460541 210.476117 
L 156.604957 210.476117 
L 156.604957 209.95187 
L 156.891432 209.95187 
L 156.977309 208.379126 
L 157.057889 208.379126 
L 157.100467 206.806383 
L 157.190146 206.806383 
L 157.243247 205.757888 
L 157.330988 205.757888 
L 157.330988 204.709392 
L 157.66226 204.709392 
L 157.765438 203.660897 
L 159.801488 203.660897 
L 159.801488 202.612401 
L 159.978162 202.612401 
L 159.978162 202.088154 
L 160.134715 202.088154 
L 160.134715 201.563906 
L 160.702769 201.563906 
L 160.702769 201.039658 
L 164.228054 201.039658 
L 164.228054 200.515411 
L 168.585397 200.515411 
L 168.661889 198.41842 
L 168.781849 198.41842 
L 168.86974 195.797181 
L 168.94193 195.797181 
L 169.026579 194.224438 
L 169.095695 194.224438 
L 169.162726 193.175943 
L 169.208471 193.175943 
L 169.208471 192.651695 
L 169.393217 192.651695 
L 169.483373 189.506209 
L 169.521192 189.506209 
L 169.521192 188.981961 
L 169.679834 188.981961 
L 169.679834 188.457713 
L 169.802218 188.457713 
L 169.87639 186.360722 
L 174.814932 186.360722 
L 174.92092 183.215236 
L 174.940316 183.215236 
L 175.041255 182.16674 
L 175.104523 182.16674 
L 175.136495 180.06975 
L 175.238833 180.06975 
L 175.291252 177.972759 
L 175.403583 177.972759 
L 175.484744 175.875768 
L 175.5489 175.875768 
L 175.628966 173.254529 
L 175.6897 173.254529 
L 175.786759 170.109043 
L 175.823629 170.109043 
L 175.823629 169.584795 
L 180.130583 169.584795 
L 180.130583 168.5363 
L 180.690708 168.5363 
L 180.779605 166.439309 
L 180.827094 166.439309 
L 180.914073 165.390813 
L 180.943273 165.390813 
L 181.018476 161.196832 
L 181.056257 161.196832 
L 181.144191 158.051345 
L 181.176601 158.051345 
L 181.285685 155.954354 
L 183.015138 155.954354 
L 183.015138 154.905859 
L 189.75237 154.905859 
L 189.859309 151.236125 
L 189.864376 151.236125 
L 189.95911 147.566391 
L 189.98087 147.566391 
L 190.089617 142.323914 
L 190.099259 142.323914 
L 190.151833 138.65418 
L 195.205724 138.65418 
L 195.313365 134.984446 
L 195.319955 134.984446 
L 195.419028 130.790464 
L 195.48389 130.790464 
L 195.488327 129.741969 
L 197.271577 129.741969 
L 197.378301 124.499491 
L 197.39723 124.499491 
L 197.479718 119.781262 
L 197.709128 119.781262 
L 197.81375 110.869051 
L 197.832093 110.869051 
L 197.935859 103.005335 
L 197.95622 103.005335 
L 197.992134 99.859849 
L 204.422184 99.859849 
L 204.530997 90.42339 
L 204.535239 90.42339 
L 204.5843 86.229408 
L 211.798242 86.229408 
L 211.891992 80.986931 
L 211.909937 80.986931 
L 211.956348 75.220206 
L 212.34853 75.220206 
L 212.430175 71.026224 
L 212.489444 71.026224 
L 212.489444 70.501976 
L 212.679588 70.501976 
L 212.71472 69.453481 
L 213.145438 69.453481 
L 213.255531 66.832242 
L 213.304942 66.832242 
L 213.304942 66.307995 
L 213.662921 66.307995 
L 213.724655 63.686756 
L 213.779185 63.686756 
L 213.779185 63.162508 
L 213.899546 63.162508 
L 213.899546 62.638261 
L 214.370307 62.638261 
L 214.480734 58.968526 
L 215.982915 58.968526 
L 216.05702 56.871536 
L 217.316626 56.871536 
L 217.426863 53.726049 
L 217.946383 53.726049 
L 218.023361 51.104811 
L 218.075121 51.104811 
L 218.137678 49.532068 
L 218.52427 49.532068 
L 218.564039 47.959324 
L 218.652641 47.959324 
L 218.701123 45.862334 
L 220.390946 45.862334 
L 220.421363 44.813838 
L 220.929542 44.813838 
L 220.965998 43.765343 
L 223.712972 43.765343 
L 223.773282 39.571361 
L 223.996064 39.571361 
L 224.037128 38.522865 
L 224.158035 38.522865 
L 224.209018 35.901627 
L 224.680116 35.901627 
L 224.784935 34.853131 
L 224.830398 34.853131 
L 224.830398 34.328884 
L 225.487171 34.328884 
L 225.487171 33.804636 
L 226.334741 33.804636 
L 226.337348 32.756141 
L 226.769651 32.756141 
L 226.769651 32.231893 
L 227.059504 32.231893 
L 227.088264 31.183397 
L 227.451259 31.183397 
L 227.451259 30.65915 
L 228.894108 30.65915 
L 228.894108 30.134902 
L 229.223002 30.134902 
L 229.223002 29.610654 
L 231.01603 29.610654 
L 231.01603 29.086407 
L 231.259343 29.086407 
L 231.259343 28.562159 
L 232.720636 28.562159 
L 232.720636 28.037911 
L 233.306745 28.037911 
L 233.306745 27.513663 
L 333.429677 27.513663 
L 333.429677 27.513663 
" style="fill:none;stroke:#ff0000;stroke-linecap:square;stroke-width:1.5;"/>
   </g>
   <g id="line2d_43">
    <defs>
     <path d="M 0 -6 
L -5.196152 -3 
L -5.196152 3 
L -0 6 
L 5.196152 3 
L 5.196152 -3 
z
" id="m4e0ad23211" style="stroke:#ff0000;stroke-linejoin:miter;stroke-width:1.5;"/>
    </defs>
    <g>
     <use style="fill-opacity:0;stroke:#ff0000;stroke-linejoin:miter;stroke-width:1.5;" x="91.070521" xlink:href="#m4e0ad23211" y="277.579825"/>
     <use style="fill-opacity:0;stroke:#ff0000;stroke-linejoin:miter;stroke-width:1.5;" x="169.87639" xlink:href="#m4e0ad23211" y="186.88497"/>
     <use style="fill-opacity:0;stroke:#ff0000;stroke-linejoin:miter;stroke-width:1.5;" x="213.899546" xlink:href="#m4e0ad23211" y="63.162508"/>
     <use style="fill-opacity:0;stroke:#ff0000;stroke-linejoin:miter;stroke-width:1.5;" x="233.306745" xlink:href="#m4e0ad23211" y="27.513663"/>
     <use style="fill-opacity:0;stroke:#ff0000;stroke-linejoin:miter;stroke-width:1.5;" x="233.306745" xlink:href="#m4e0ad23211" y="27.513663"/>
     <use style="fill-opacity:0;stroke:#ff0000;stroke-linejoin:miter;stroke-width:1.5;" x="333.429677" xlink:href="#m4e0ad23211" y="27.513663"/>
    </g>
   </g>
   <g id="line2d_44">
    <path style="fill:none;stroke:#ff0000;stroke-linecap:square;stroke-width:1.5;"/>
    <g/>
   </g>
   <g id="line2d_45">
    <path clip-path="url(#pd305b75934)" d="M 211.795662 86.229408 
" style="fill:none;stroke:#ff0000;stroke-linecap:square;stroke-width:1.5;"/>
    <defs>
     <path d="M -12 12 
L 12 -12 
M -12 -12 
L 12 12 
" id="m06a6e2ef7f" style="stroke:#ff0000;stroke-width:3;"/>
    </defs>
    <g clip-path="url(#pd305b75934)">
     <use style="fill:#ff0000;stroke:#ff0000;stroke-width:3;" x="211.795662" xlink:href="#m06a6e2ef7f" y="86.229408"/>
    </g>
   </g>
   <g id="line2d_46">
    <path d="M 333.429677 195.272933 
L 363.933742 289.532673 
" style="fill:none;stroke:#ffa500;stroke-linecap:square;stroke-width:1.5;"/>
    <g>
     <use style="fill-opacity:0;stroke:#ffa500;stroke-linejoin:bevel;stroke-width:1.5;" x="333.429677" xlink:href="#m9b3a6b4133" y="195.272933"/>
     <use style="fill-opacity:0;stroke:#ffa500;stroke-linejoin:bevel;stroke-width:1.5;" x="363.933742" xlink:href="#m9b3a6b4133" y="289.532673"/>
    </g>
   </g>
   <g id="line2d_47">
    <path d="M 333.429677 27.513663 
L 363.933742 225.364752 
" style="fill:none;stroke:#ff00ff;stroke-linecap:square;stroke-width:1.5;"/>
    <g>
     <use style="fill-opacity:0;stroke:#ff00ff;stroke-linejoin:miter;stroke-width:1.5;" x="333.429677" xlink:href="#m95a1888c01" y="27.513663"/>
     <use style="fill-opacity:0;stroke:#ff00ff;stroke-linejoin:miter;stroke-width:1.5;" x="363.933742" xlink:href="#m95a1888c01" y="225.364752"/>
    </g>
   </g>
   <g id="line2d_48">
    <path d="M 333.429677 27.513663 
L 363.933742 161.196832 
" style="fill:none;stroke:#000080;stroke-linecap:square;stroke-width:1.5;"/>
    <g>
     <use style="fill-opacity:0;stroke:#000080;stroke-width:1.5;" x="333.429677" xlink:href="#m71d2662f14" y="27.513663"/>
     <use style="fill-opacity:0;stroke:#000080;stroke-width:1.5;" x="363.933742" xlink:href="#m71d2662f14" y="161.196832"/>
    </g>
   </g>
   <g id="line2d_49">
    <path d="M 333.429677 27.513663 
L 363.933742 97.028911 
" style="fill:none;stroke:#ff0000;stroke-linecap:square;stroke-width:1.5;"/>
    <g>
     <use style="fill-opacity:0;stroke:#ff0000;stroke-linejoin:miter;stroke-width:1.5;" x="333.429677" xlink:href="#m4e0ad23211" y="27.513663"/>
     <use style="fill-opacity:0;stroke:#ff0000;stroke-linejoin:miter;stroke-width:1.5;" x="363.933742" xlink:href="#m4e0ad23211" y="97.028911"/>
    </g>
   </g>
   <g id="line2d_50">
    <path d="M 333.429677 294.88 
L 333.429677 27.513663 
" style="fill:none;stroke:#000000;stroke-linecap:square;stroke-width:1.5;"/>
   </g>
   <g id="patch_3">
    <path d="M 56.12 294.88 
L 56.12 24.84 
" style="fill:none;stroke:#000000;stroke-linecap:square;stroke-linejoin:miter;stroke-width:0.8;"/>
   </g>
   <g id="patch_4">
    <path d="M 399.984 294.88 
L 399.984 24.84 
" style="fill:none;stroke:#000000;stroke-linecap:square;stroke-linejoin:miter;stroke-width:0.8;"/>
   </g>
   <g id="patch_5">
    <path d="M 56.12 294.88 
L 399.984 294.88 
" style="fill:none;stroke:#000000;stroke-linecap:square;stroke-linejoin:miter;stroke-width:0.8;"/>
   </g>
   <g id="patch_6">
    <path d="M 56.12 24.84 
L 399.984 24.84 
" style="fill:none;stroke:#000000;stroke-linecap:square;stroke-linejoin:miter;stroke-width:0.8;"/>
   </g>
   <g id="text_14">
    <!-- GA -->
    <defs>
     <path d="M 59.515625 10.40625 
L 59.515625 29.984375 
L 43.40625 29.984375 
L 43.40625 38.09375 
L 69.28125 38.09375 
L 69.28125 6.78125 
Q 63.578125 2.734375 56.6875 0.65625 
Q 49.8125 -1.421875 42 -1.421875 
Q 24.90625 -1.421875 15.25 8.5625 
Q 5.609375 18.5625 5.609375 36.375 
Q 5.609375 54.25 15.25 64.234375 
Q 24.90625 74.21875 42 74.21875 
Q 49.125 74.21875 55.546875 72.453125 
Q 61.96875 70.703125 67.390625 67.28125 
L 67.390625 56.78125 
Q 61.921875 61.421875 55.765625 63.765625 
Q 49.609375 66.109375 42.828125 66.109375 
Q 29.4375 66.109375 22.71875 58.640625 
Q 16.015625 51.171875 16.015625 36.375 
Q 16.015625 21.625 22.71875 14.15625 
Q 29.4375 6.6875 42.828125 6.6875 
Q 48.046875 6.6875 52.140625 7.59375 
Q 56.25 8.5 59.515625 10.40625 
z
" id="DejaVuSans-47"/>
     <path d="M 34.1875 63.1875 
L 20.796875 26.90625 
L 47.609375 26.90625 
z
M 28.609375 72.90625 
L 39.796875 72.90625 
L 67.578125 0 
L 57.328125 0 
L 50.6875 18.703125 
L 17.828125 18.703125 
L 11.1875 0 
L 0.78125 0 
z
" id="DejaVuSans-41"/>
    </defs>
    <g transform="translate(369.479935 294.223611)scale(0.17 -0.17)">
     <use xlink:href="#DejaVuSans-47"/>
     <use x="77.490234" xlink:href="#DejaVuSans-41"/>
    </g>
   </g>
   <g id="text_15">
    <!-- DASA -->
    <defs>
     <path d="M 19.671875 64.796875 
L 19.671875 8.109375 
L 31.59375 8.109375 
Q 46.6875 8.109375 53.6875 14.9375 
Q 60.6875 21.78125 60.6875 36.53125 
Q 60.6875 51.171875 53.6875 57.984375 
Q 46.6875 64.796875 31.59375 64.796875 
z
M 9.8125 72.90625 
L 30.078125 72.90625 
Q 51.265625 72.90625 61.171875 64.09375 
Q 71.09375 55.28125 71.09375 36.53125 
Q 71.09375 17.671875 61.125 8.828125 
Q 51.171875 0 30.078125 0 
L 9.8125 0 
z
" id="DejaVuSans-44"/>
     <path d="M 53.515625 70.515625 
L 53.515625 60.890625 
Q 47.90625 63.578125 42.921875 64.890625 
Q 37.9375 66.21875 33.296875 66.21875 
Q 25.25 66.21875 20.875 63.09375 
Q 16.5 59.96875 16.5 54.203125 
Q 16.5 49.359375 19.40625 46.890625 
Q 22.3125 44.4375 30.421875 42.921875 
L 36.375 41.703125 
Q 47.40625 39.59375 52.65625 34.296875 
Q 57.90625 29 57.90625 20.125 
Q 57.90625 9.515625 50.796875 4.046875 
Q 43.703125 -1.421875 29.984375 -1.421875 
Q 24.8125 -1.421875 18.96875 -0.25 
Q 13.140625 0.921875 6.890625 3.21875 
L 6.890625 13.375 
Q 12.890625 10.015625 18.65625 8.296875 
Q 24.421875 6.59375 29.984375 6.59375 
Q 38.421875 6.59375 43.015625 9.90625 
Q 47.609375 13.234375 47.609375 19.390625 
Q 47.609375 24.75 44.3125 27.78125 
Q 41.015625 30.8125 33.5 32.328125 
L 27.484375 33.5 
Q 16.453125 35.6875 11.515625 40.375 
Q 6.59375 45.0625 6.59375 53.421875 
Q 6.59375 63.09375 13.40625 68.65625 
Q 20.21875 74.21875 32.171875 74.21875 
Q 37.3125 74.21875 42.625 73.28125 
Q 47.953125 72.359375 53.515625 70.515625 
z
" id="DejaVuSans-53"/>
    </defs>
    <g transform="translate(369.479935 230.05569)scale(0.17 -0.17)">
     <use xlink:href="#DejaVuSans-44"/>
     <use x="76.986328" xlink:href="#DejaVuSans-41"/>
     <use x="145.394531" xlink:href="#DejaVuSans-53"/>
     <use x="208.886719" xlink:href="#DejaVuSans-41"/>
    </g>
   </g>
   <g id="text_16">
    <!-- ALPS -->
    <defs>
     <path d="M 9.8125 72.90625 
L 19.671875 72.90625 
L 19.671875 8.296875 
L 55.171875 8.296875 
L 55.171875 0 
L 9.8125 0 
z
" id="DejaVuSans-4c"/>
     <path d="M 19.671875 64.796875 
L 19.671875 37.40625 
L 32.078125 37.40625 
Q 38.96875 37.40625 42.71875 40.96875 
Q 46.484375 44.53125 46.484375 51.125 
Q 46.484375 57.671875 42.71875 61.234375 
Q 38.96875 64.796875 32.078125 64.796875 
z
M 9.8125 72.90625 
L 32.078125 72.90625 
Q 44.34375 72.90625 50.609375 67.359375 
Q 56.890625 61.8125 56.890625 51.125 
Q 56.890625 40.328125 50.609375 34.8125 
Q 44.34375 29.296875 32.078125 29.296875 
L 19.671875 29.296875 
L 19.671875 0 
L 9.8125 0 
z
" id="DejaVuSans-50"/>
    </defs>
    <g transform="translate(369.479935 165.887769)scale(0.17 -0.17)">
     <use xlink:href="#DejaVuSans-41"/>
     <use x="68.408203" xlink:href="#DejaVuSans-4c"/>
     <use x="124.121094" xlink:href="#DejaVuSans-50"/>
     <use x="184.423828" xlink:href="#DejaVuSans-53"/>
    </g>
   </g>
   <g id="text_17">
    <!-- Rosenbroc -->
    <defs>
     <path d="M 44.390625 34.1875 
Q 47.5625 33.109375 50.5625 29.59375 
Q 53.5625 26.078125 56.59375 19.921875 
L 66.609375 0 
L 56 0 
L 46.6875 18.703125 
Q 43.0625 26.03125 39.671875 28.421875 
Q 36.28125 30.8125 30.421875 30.8125 
L 19.671875 30.8125 
L 19.671875 0 
L 9.8125 0 
L 9.8125 72.90625 
L 32.078125 72.90625 
Q 44.578125 72.90625 50.734375 67.671875 
Q 56.890625 62.453125 56.890625 51.90625 
Q 56.890625 45.015625 53.6875 40.46875 
Q 50.484375 35.9375 44.390625 34.1875 
z
M 19.671875 64.796875 
L 19.671875 38.921875 
L 32.078125 38.921875 
Q 39.203125 38.921875 42.84375 42.21875 
Q 46.484375 45.515625 46.484375 51.90625 
Q 46.484375 58.296875 42.84375 61.546875 
Q 39.203125 64.796875 32.078125 64.796875 
z
" id="DejaVuSans-52"/>
     <path d="M 48.6875 27.296875 
Q 48.6875 37.203125 44.609375 42.84375 
Q 40.53125 48.484375 33.40625 48.484375 
Q 26.265625 48.484375 22.1875 42.84375 
Q 18.109375 37.203125 18.109375 27.296875 
Q 18.109375 17.390625 22.1875 11.75 
Q 26.265625 6.109375 33.40625 6.109375 
Q 40.53125 6.109375 44.609375 11.75 
Q 48.6875 17.390625 48.6875 27.296875 
z
M 18.109375 46.390625 
Q 20.953125 51.265625 25.265625 53.625 
Q 29.59375 56 35.59375 56 
Q 45.5625 56 51.78125 48.09375 
Q 58.015625 40.1875 58.015625 27.296875 
Q 58.015625 14.40625 51.78125 6.484375 
Q 45.5625 -1.421875 35.59375 -1.421875 
Q 29.59375 -1.421875 25.265625 0.953125 
Q 20.953125 3.328125 18.109375 8.203125 
L 18.109375 0 
L 9.078125 0 
L 9.078125 75.984375 
L 18.109375 75.984375 
z
" id="DejaVuSans-62"/>
    </defs>
    <g transform="translate(369.479935 101.719848)scale(0.17 -0.17)">
     <use xlink:href="#DejaVuSans-52"/>
     <use x="69.419922" xlink:href="#DejaVuSans-6f"/>
     <use x="130.601562" xlink:href="#DejaVuSans-73"/>
     <use x="182.701172" xlink:href="#DejaVuSans-65"/>
     <use x="244.224609" xlink:href="#DejaVuSans-6e"/>
     <use x="307.603516" xlink:href="#DejaVuSans-62"/>
     <use x="371.080078" xlink:href="#DejaVuSans-72"/>
     <use x="412.162109" xlink:href="#DejaVuSans-6f"/>
     <use x="473.34375" xlink:href="#DejaVuSans-63"/>
    </g>
   </g>
   <g id="text_18">
    <!-- best 2009 -->
    <defs>
     <path d="M 10.984375 1.515625 
L 10.984375 10.5 
Q 14.703125 8.734375 18.5 7.8125 
Q 22.3125 6.890625 25.984375 6.890625 
Q 35.75 6.890625 40.890625 13.453125 
Q 46.046875 20.015625 46.78125 33.40625 
Q 43.953125 29.203125 39.59375 26.953125 
Q 35.25 24.703125 29.984375 24.703125 
Q 19.046875 24.703125 12.671875 31.3125 
Q 6.296875 37.9375 6.296875 49.421875 
Q 6.296875 60.640625 12.9375 67.421875 
Q 19.578125 74.21875 30.609375 74.21875 
Q 43.265625 74.21875 49.921875 64.515625 
Q 56.59375 54.828125 56.59375 36.375 
Q 56.59375 19.140625 48.40625 8.859375 
Q 40.234375 -1.421875 26.421875 -1.421875 
Q 22.703125 -1.421875 18.890625 -0.6875 
Q 15.09375 0.046875 10.984375 1.515625 
z
M 30.609375 32.421875 
Q 37.25 32.421875 41.125 36.953125 
Q 45.015625 41.5 45.015625 49.421875 
Q 45.015625 57.28125 41.125 61.84375 
Q 37.25 66.40625 30.609375 66.40625 
Q 23.96875 66.40625 20.09375 61.84375 
Q 16.21875 57.28125 16.21875 49.421875 
Q 16.21875 41.5 20.09375 36.953125 
Q 23.96875 32.421875 30.609375 32.421875 
z
" id="DejaVuSans-39"/>
    </defs>
    <g transform="translate(369.479935 37.551928)scale(0.17 -0.17)">
     <use xlink:href="#DejaVuSans-62"/>
     <use x="63.476562" xlink:href="#DejaVuSans-65"/>
     <use x="125" xlink:href="#DejaVuSans-73"/>
     <use x="177.099609" xlink:href="#DejaVuSans-74"/>
     <use x="216.308594" xlink:href="#DejaVuSans-20"/>
     <use x="248.095703" xlink:href="#DejaVuSans-32"/>
     <use x="311.71875" xlink:href="#DejaVuSans-30"/>
     <use x="375.341797" xlink:href="#DejaVuSans-30"/>
     <use x="438.964844" xlink:href="#DejaVuSans-39"/>
    </g>
   </g>
   <g id="text_19">
    <!-- bbob f21, 40-D -->
    <g transform="translate(59.55864 35.290806)scale(0.102 -0.102)">
     <use xlink:href="#DejaVuSans-62"/>
     <use x="63.476562" xlink:href="#DejaVuSans-62"/>
     <use x="126.953125" xlink:href="#DejaVuSans-6f"/>
     <use x="188.134766" xlink:href="#DejaVuSans-62"/>
     <use x="251.611328" xlink:href="#DejaVuSans-20"/>
     <use x="283.398438" xlink:href="#DejaVuSans-66"/>
     <use x="318.603516" xlink:href="#DejaVuSans-32"/>
     <use x="382.226562" xlink:href="#DejaVuSans-31"/>
     <use x="445.849609" xlink:href="#DejaVuSans-2c"/>
     <use x="477.636719" xlink:href="#DejaVuSans-20"/>
     <use x="509.423828" xlink:href="#DejaVuSans-34"/>
     <use x="573.046875" xlink:href="#DejaVuSans-30"/>
     <use x="636.669922" xlink:href="#DejaVuSans-2d"/>
     <use x="672.753906" xlink:href="#DejaVuSans-44"/>
    </g>
    <!-- 51 targets: 100..1e-08 -->
    <defs>
     <path d="M 10.796875 72.90625 
L 49.515625 72.90625 
L 49.515625 64.59375 
L 19.828125 64.59375 
L 19.828125 46.734375 
Q 21.96875 47.46875 24.109375 47.828125 
Q 26.265625 48.1875 28.421875 48.1875 
Q 40.625 48.1875 47.75 41.5 
Q 54.890625 34.8125 54.890625 23.390625 
Q 54.890625 11.625 47.5625 5.09375 
Q 40.234375 -1.421875 26.90625 -1.421875 
Q 22.3125 -1.421875 17.546875 -0.640625 
Q 12.796875 0.140625 7.71875 1.703125 
L 7.71875 11.625 
Q 12.109375 9.234375 16.796875 8.0625 
Q 21.484375 6.890625 26.703125 6.890625 
Q 35.15625 6.890625 40.078125 11.328125 
Q 45.015625 15.765625 45.015625 23.390625 
Q 45.015625 31 40.078125 35.4375 
Q 35.15625 39.890625 26.703125 39.890625 
Q 22.75 39.890625 18.8125 39.015625 
Q 14.890625 38.140625 10.796875 36.28125 
z
" id="DejaVuSans-35"/>
     <path d="M 11.71875 12.40625 
L 22.015625 12.40625 
L 22.015625 0 
L 11.71875 0 
z
M 11.71875 51.703125 
L 22.015625 51.703125 
L 22.015625 39.3125 
L 11.71875 39.3125 
z
" id="DejaVuSans-3a"/>
    </defs>
    <g transform="translate(59.55864 46.712575)scale(0.102 -0.102)">
     <use xlink:href="#DejaVuSans-35"/>
     <use x="63.623047" xlink:href="#DejaVuSans-31"/>
     <use x="127.246094" xlink:href="#DejaVuSans-20"/>
     <use x="159.033203" xlink:href="#DejaVuSans-74"/>
     <use x="198.242188" xlink:href="#DejaVuSans-61"/>
     <use x="259.521484" xlink:href="#DejaVuSans-72"/>
     <use x="300.619141" xlink:href="#DejaVuSans-67"/>
     <use x="364.095703" xlink:href="#DejaVuSans-65"/>
     <use x="425.619141" xlink:href="#DejaVuSans-74"/>
     <use x="464.828125" xlink:href="#DejaVuSans-73"/>
     <use x="516.927734" xlink:href="#DejaVuSans-3a"/>
     <use x="550.619141" xlink:href="#DejaVuSans-20"/>
     <use x="582.40625" xlink:href="#DejaVuSans-31"/>
     <use x="646.029297" xlink:href="#DejaVuSans-30"/>
     <use x="709.652344" xlink:href="#DejaVuSans-30"/>
     <use x="773.275391" xlink:href="#DejaVuSans-2e"/>
     <use x="805.0625" xlink:href="#DejaVuSans-2e"/>
     <use x="836.849609" xlink:href="#DejaVuSans-31"/>
     <use x="900.472656" xlink:href="#DejaVuSans-65"/>
     <use x="961.996094" xlink:href="#DejaVuSans-2d"/>
     <use x="998.080078" xlink:href="#DejaVuSans-30"/>
     <use x="1061.703125" xlink:href="#DejaVuSans-38"/>
    </g>
    <!-- 15 instances -->
    <g transform="translate(59.55864 58.134344)scale(0.102 -0.102)">
     <use xlink:href="#DejaVuSans-31"/>
     <use x="63.623047" xlink:href="#DejaVuSans-35"/>
     <use x="127.246094" xlink:href="#DejaVuSans-20"/>
     <use x="159.033203" xlink:href="#DejaVuSans-69"/>
     <use x="186.816406" xlink:href="#DejaVuSans-6e"/>
     <use x="250.195312" xlink:href="#DejaVuSans-73"/>
     <use x="302.294922" xlink:href="#DejaVuSans-74"/>
     <use x="341.503906" xlink:href="#DejaVuSans-61"/>
     <use x="402.783203" xlink:href="#DejaVuSans-6e"/>
     <use x="466.162109" xlink:href="#DejaVuSans-63"/>
     <use x="521.142578" xlink:href="#DejaVuSans-65"/>
     <use x="582.666016" xlink:href="#DejaVuSans-73"/>
    </g>
   </g>
   <g id="text_20">
    <!-- v-coco-version -->
    <g style="fill:#808080;" transform="translate(191.556688 290.099912)scale(0.1 -0.1)">
     <use xlink:href="#DejaVuSans-76"/>
     <use x="59.148438" xlink:href="#DejaVuSans-2d"/>
     <use x="95.232422" xlink:href="#DejaVuSans-63"/>
     <use x="150.212891" xlink:href="#DejaVuSans-6f"/>
     <use x="211.394531" xlink:href="#DejaVuSans-63"/>
     <use x="266.375" xlink:href="#DejaVuSans-6f"/>
     <use x="327.572266" xlink:href="#DejaVuSans-2d"/>
     <use x="363.625" xlink:href="#DejaVuSans-76"/>
     <use x="422.804688" xlink:href="#DejaVuSans-65"/>
     <use x="484.328125" xlink:href="#DejaVuSans-72"/>
     <use x="525.441406" xlink:href="#DejaVuSans-73"/>
     <use x="577.541016" xlink:href="#DejaVuSans-69"/>
     <use x="605.324219" xlink:href="#DejaVuSans-6f"/>
     <use x="666.505859" xlink:href="#DejaVuSans-6e"/>
    </g>
   </g>
   <g id="text_21">
    <!-- 21 Gallagher 101 peaks -->
    <defs>
     <path d="M 54.890625 33.015625 
L 54.890625 0 
L 45.90625 0 
L 45.90625 32.71875 
Q 45.90625 40.484375 42.875 44.328125 
Q 39.84375 48.1875 33.796875 48.1875 
Q 26.515625 48.1875 22.3125 43.546875 
Q 18.109375 38.921875 18.109375 30.90625 
L 18.109375 0 
L 9.078125 0 
L 9.078125 75.984375 
L 18.109375 75.984375 
L 18.109375 46.1875 
Q 21.34375 51.125 25.703125 53.5625 
Q 30.078125 56 35.796875 56 
Q 45.21875 56 50.046875 50.171875 
Q 54.890625 44.34375 54.890625 33.015625 
z
" id="DejaVuSans-68"/>
     <path d="M 9.078125 75.984375 
L 18.109375 75.984375 
L 18.109375 31.109375 
L 44.921875 54.6875 
L 56.390625 54.6875 
L 27.390625 29.109375 
L 57.625 0 
L 45.90625 0 
L 18.109375 26.703125 
L 18.109375 0 
L 9.078125 0 
z
" id="DejaVuSans-6b"/>
    </defs>
    <g transform="translate(108.5645 18.84)scale(0.2 -0.2)">
     <use xlink:href="#DejaVuSans-32"/>
     <use x="63.623047" xlink:href="#DejaVuSans-31"/>
     <use x="127.246094" xlink:href="#DejaVuSans-20"/>
     <use x="159.033203" xlink:href="#DejaVuSans-47"/>
     <use x="236.523438" xlink:href="#DejaVuSans-61"/>
     <use x="297.802734" xlink:href="#DejaVuSans-6c"/>
     <use x="325.585938" xlink:href="#DejaVuSans-6c"/>
     <use x="353.369141" xlink:href="#DejaVuSans-61"/>
     <use x="414.648438" xlink:href="#DejaVuSans-67"/>
     <use x="478.125" xlink:href="#DejaVuSans-68"/>
     <use x="541.503906" xlink:href="#DejaVuSans-65"/>
     <use x="603.027344" xlink:href="#DejaVuSans-72"/>
     <use x="644.140625" xlink:href="#DejaVuSans-20"/>
     <use x="675.927734" xlink:href="#DejaVuSans-31"/>
     <use x="739.550781" xlink:href="#DejaVuSans-30"/>
     <use x="803.173828" xlink:href="#DejaVuSans-31"/>
     <use x="866.796875" xlink:href="#DejaVuSans-20"/>
     <use x="898.583984" xlink:href="#DejaVuSans-70"/>
     <use x="962.060547" xlink:href="#DejaVuSans-65"/>
     <use x="1023.583984" xlink:href="#DejaVuSans-61"/>
     <use x="1084.863281" xlink:href="#DejaVuSans-6b"/>
     <use x="1142.773438" xlink:href="#DejaVuSans-73"/>
    </g>
   </g>
  </g>
 </g>
 <defs>
  <clipPath id="pd305b75934">
   <rect height="270.04" width="343.864" x="56.12" y="24.84"/>
  </clipPath>
 </defs>
</svg>
