<?xml version="1.0" encoding="utf-8" standalone="no"?>
<!DOCTYPE svg PUBLIC "-//W3C//DTD SVG 1.1//EN"
  "http://www.w3.org/Graphics/SVG/1.1/DTD/svg11.dtd">
<!-- Created with matplotlib (http://matplotlib.org/) -->
<svg height="345.6pt" version="1.1" viewBox="0 0 460.8 345.6" width="460.8pt" xmlns="http://www.w3.org/2000/svg" xmlns:xlink="http://www.w3.org/1999/xlink">
 <defs>
  <style type="text/css">
*{stroke-linecap:butt;stroke-linejoin:round;}
  </style>
 </defs>
 <g id="figure_1">
  <g id="patch_1">
   <path d="M 0 345.6 
L 460.8 345.6 
L 460.8 0 
L 0 0 
z
" style="fill:#ffffff;"/>
  </g>
  <g id="axes_1">
   <g id="patch_2">
    <path d="M 56.12 294.88 
L 399.984 294.88 
L 399.984 24.84 
L 56.12 24.84 
z
" style="fill:#ffffff;"/>
   </g>
   <g id="line2d_1">
    <path d="M 16.504332 294.88 
L 16.504332 279.152568 
L 28.429836 279.152568 
L 28.429836 273.910091 
L 35.405809 273.910091 
L 35.405809 268.667614 
L 72.559446 268.667614 
L 72.559446 263.425137 
L 92.939552 263.425137 
L 92.939552 258.18266 
L 103.275786 258.18266 
L 103.275786 252.940182 
L 110.654016 252.940182 
L 110.654016 247.697705 
L 115.801204 247.697705 
L 115.801204 242.455228 
L 120.790886 242.455228 
L 120.790886 237.212751 
L 126.12706 237.212751 
L 126.12706 231.970274 
L 130.787428 231.970274 
L 130.787428 226.727797 
L 141.468945 226.727797 
L 141.468945 221.485319 
L 144.490842 221.485319 
L 144.490842 216.242842 
L 148.940085 216.242842 
L 148.940085 211.000365 
L 153.969481 211.000365 
L 153.969481 205.757888 
L 156.562386 205.757888 
L 156.562386 200.515411 
L 162.690404 200.515411 
L 162.690404 195.272933 
L 164.502064 195.272933 
L 164.502064 190.030456 
L 167.096762 190.030456 
L 167.096762 184.787979 
L 168.724447 184.787979 
L 168.724447 179.545502 
L 170.784653 179.545502 
L 170.784653 174.303025 
L 172.122241 174.303025 
L 172.122241 169.060547 
L 172.565086 169.060547 
L 172.565086 163.81807 
L 174.708723 163.81807 
L 174.708723 158.575593 
L 175.045966 158.575593 
L 175.045966 153.333116 
L 176.346775 153.333116 
L 176.346775 148.090639 
L 178.551021 148.090639 
L 178.551021 142.848162 
L 182.086895 142.848162 
L 182.086895 137.605684 
L 182.334207 137.605684 
L 182.334207 132.363207 
L 182.539282 132.363207 
L 182.539282 127.12073 
L 184.088294 127.12073 
L 184.088294 121.878253 
L 184.389402 121.878253 
L 184.389402 116.635776 
L 185.25099 116.635776 
L 185.25099 111.393298 
L 187.055184 111.393298 
L 187.055184 106.150821 
L 187.212958 106.150821 
L 187.212958 100.908344 
L 187.366787 100.908344 
L 187.366787 95.665867 
L 188.301631 95.665867 
L 188.301631 90.42339 
L 188.47277 90.42339 
L 188.47277 85.180912 
L 189.038585 85.180912 
L 189.038585 79.938435 
L 189.267147 79.938435 
L 189.267147 74.695958 
L 190.052252 74.695958 
L 190.052252 69.453481 
L 191.460627 69.453481 
L 191.460627 64.211004 
L 191.623446 64.211004 
L 191.623446 58.968526 
L 191.73612 58.968526 
L 191.73612 53.726049 
L 191.840965 53.726049 
L 191.840965 48.483572 
L 191.959919 48.483572 
L 191.959919 43.241095 
L 192.048758 43.241095 
L 192.048758 37.998618 
L 192.138408 37.998618 
L 192.138408 32.756141 
L 192.201076 32.756141 
L 192.201076 27.513663 
L 333.429677 27.513663 
" style="fill:none;stroke:#f5deb3;stroke-linecap:square;stroke-width:6;"/>
   </g>
   <g id="line2d_2">
    <defs>
     <path d="M -0 7.778175 
L 7.778175 0 
L 0 -7.778175 
L -7.778175 -0 
z
" id="m89c3dd1f7c" style="stroke:#f5deb3;stroke-linejoin:miter;stroke-width:1.5;"/>
    </defs>
    <g>
     <use style="fill:#f5deb3;stroke:#f5deb3;stroke-linejoin:miter;stroke-width:1.5;" x="130.787428" xlink:href="#m89c3dd1f7c" y="231.970274"/>
     <use style="fill:#f5deb3;stroke:#f5deb3;stroke-linejoin:miter;stroke-width:1.5;" x="184.088294" xlink:href="#m89c3dd1f7c" y="121.878253"/>
     <use style="fill:#f5deb3;stroke:#f5deb3;stroke-linejoin:miter;stroke-width:1.5;" x="192.201076" xlink:href="#m89c3dd1f7c" y="32.756141"/>
     <use style="fill:#f5deb3;stroke:#f5deb3;stroke-linejoin:miter;stroke-width:1.5;" x="192.201076" xlink:href="#m89c3dd1f7c" y="27.513663"/>
     <use style="fill:#f5deb3;stroke:#f5deb3;stroke-linejoin:miter;stroke-width:1.5;" x="333.429677" xlink:href="#m89c3dd1f7c" y="27.513663"/>
    </g>
   </g>
   <g id="line2d_3">
    <path style="fill:none;stroke:#f5deb3;stroke-linecap:square;stroke-width:6;"/>
    <g/>
   </g>
   <g id="line2d_4">
    <path d="M 333.429677 27.513663 
L 363.933742 32.86099 
" style="fill:none;stroke:#f5deb3;stroke-linecap:square;stroke-width:6;"/>
    <g>
     <use style="fill:#f5deb3;stroke:#f5deb3;stroke-linejoin:miter;stroke-width:1.5;" x="333.429677" xlink:href="#m89c3dd1f7c" y="27.513663"/>
     <use style="fill:#f5deb3;stroke:#f5deb3;stroke-linejoin:miter;stroke-width:1.5;" x="363.933742" xlink:href="#m89c3dd1f7c" y="32.86099"/>
    </g>
   </g>
   <g id="matplotlib.axis_1">
    <g id="xtick_1">
     <g id="line2d_5">
      <path clip-path="url(#pa3a6716d7e)" d="M 56.12 294.88 
L 56.12 24.84 
" style="fill:none;stroke:#b0b0b0;stroke-linecap:square;stroke-width:0.8;"/>
     </g>
     <g id="line2d_6">
      <defs>
       <path d="M 0 0 
L 0 3.5 
" id="m4e7513f542" style="stroke:#000000;stroke-width:0.8;"/>
      </defs>
      <g>
       <use style="stroke:#000000;stroke-width:0.8;" x="56.12" xlink:href="#m4e7513f542" y="294.88"/>
      </g>
     </g>
     <g id="text_1">
      <!-- 0 -->
      <defs>
       <path d="M 31.78125 66.40625 
Q 24.171875 66.40625 20.328125 58.90625 
Q 16.5 51.421875 16.5 36.375 
Q 16.5 21.390625 20.328125 13.890625 
Q 24.171875 6.390625 31.78125 6.390625 
Q 39.453125 6.390625 43.28125 13.890625 
Q 47.125 21.390625 47.125 36.375 
Q 47.125 51.421875 43.28125 58.90625 
Q 39.453125 66.40625 31.78125 66.40625 
z
M 31.78125 74.21875 
Q 44.046875 74.21875 50.515625 64.515625 
Q 56.984375 54.828125 56.984375 36.375 
Q 56.984375 17.96875 50.515625 8.265625 
Q 44.046875 -1.421875 31.78125 -1.421875 
Q 19.53125 -1.421875 13.0625 8.265625 
Q 6.59375 17.96875 6.59375 36.375 
Q 6.59375 54.828125 13.0625 64.515625 
Q 19.53125 74.21875 31.78125 74.21875 
z
" id="DejaVuSans-30"/>
      </defs>
      <g transform="translate(49.7575 317.076875)scale(0.2 -0.2)">
       <use xlink:href="#DejaVuSans-30"/>
      </g>
     </g>
    </g>
    <g id="xtick_2">
     <g id="line2d_7">
      <path clip-path="url(#pa3a6716d7e)" d="M 135.351336 294.88 
L 135.351336 24.84 
" style="fill:none;stroke:#b0b0b0;stroke-linecap:square;stroke-width:0.8;"/>
     </g>
     <g id="line2d_8">
      <g>
       <use style="stroke:#000000;stroke-width:0.8;" x="135.351336" xlink:href="#m4e7513f542" y="294.88"/>
      </g>
     </g>
     <g id="text_2">
      <!-- 2 -->
      <defs>
       <path d="M 19.1875 8.296875 
L 53.609375 8.296875 
L 53.609375 0 
L 7.328125 0 
L 7.328125 8.296875 
Q 12.9375 14.109375 22.625 23.890625 
Q 32.328125 33.6875 34.8125 36.53125 
Q 39.546875 41.84375 41.421875 45.53125 
Q 43.3125 49.21875 43.3125 52.78125 
Q 43.3125 58.59375 39.234375 62.25 
Q 35.15625 65.921875 28.609375 65.921875 
Q 23.96875 65.921875 18.8125 64.3125 
Q 13.671875 62.703125 7.8125 59.421875 
L 7.8125 69.390625 
Q 13.765625 71.78125 18.9375 73 
Q 24.125 74.21875 28.421875 74.21875 
Q 39.75 74.21875 46.484375 68.546875 
Q 53.21875 62.890625 53.21875 53.421875 
Q 53.21875 48.921875 51.53125 44.890625 
Q 49.859375 40.875 45.40625 35.40625 
Q 44.1875 33.984375 37.640625 27.21875 
Q 31.109375 20.453125 19.1875 8.296875 
z
" id="DejaVuSans-32"/>
      </defs>
      <g transform="translate(128.988836 317.076875)scale(0.2 -0.2)">
       <use xlink:href="#DejaVuSans-32"/>
      </g>
     </g>
    </g>
    <g id="xtick_3">
     <g id="line2d_9">
      <path clip-path="url(#pa3a6716d7e)" d="M 214.582673 294.88 
L 214.582673 24.84 
" style="fill:none;stroke:#b0b0b0;stroke-linecap:square;stroke-width:0.8;"/>
     </g>
     <g id="line2d_10">
      <g>
       <use style="stroke:#000000;stroke-width:0.8;" x="214.582673" xlink:href="#m4e7513f542" y="294.88"/>
      </g>
     </g>
     <g id="text_3">
      <!-- 4 -->
      <defs>
       <path d="M 37.796875 64.3125 
L 12.890625 25.390625 
L 37.796875 25.390625 
z
M 35.203125 72.90625 
L 47.609375 72.90625 
L 47.609375 25.390625 
L 58.015625 25.390625 
L 58.015625 17.1875 
L 47.609375 17.1875 
L 47.609375 0 
L 37.796875 0 
L 37.796875 17.1875 
L 4.890625 17.1875 
L 4.890625 26.703125 
z
" id="DejaVuSans-34"/>
      </defs>
      <g transform="translate(208.220173 317.076875)scale(0.2 -0.2)">
       <use xlink:href="#DejaVuSans-34"/>
      </g>
     </g>
    </g>
    <g id="xtick_4">
     <g id="line2d_11">
      <path clip-path="url(#pa3a6716d7e)" d="M 293.814009 294.88 
L 293.814009 24.84 
" style="fill:none;stroke:#b0b0b0;stroke-linecap:square;stroke-width:0.8;"/>
     </g>
     <g id="line2d_12">
      <g>
       <use style="stroke:#000000;stroke-width:0.8;" x="293.814009" xlink:href="#m4e7513f542" y="294.88"/>
      </g>
     </g>
     <g id="text_4">
      <!-- 6 -->
      <defs>
       <path d="M 33.015625 40.375 
Q 26.375 40.375 22.484375 35.828125 
Q 18.609375 31.296875 18.609375 23.390625 
Q 18.609375 15.53125 22.484375 10.953125 
Q 26.375 6.390625 33.015625 6.390625 
Q 39.65625 6.390625 43.53125 10.953125 
Q 47.40625 15.53125 47.40625 23.390625 
Q 47.40625 31.296875 43.53125 35.828125 
Q 39.65625 40.375 33.015625 40.375 
z
M 52.59375 71.296875 
L 52.59375 62.3125 
Q 48.875 64.0625 45.09375 64.984375 
Q 41.3125 65.921875 37.59375 65.921875 
Q 27.828125 65.921875 22.671875 59.328125 
Q 17.53125 52.734375 16.796875 39.40625 
Q 19.671875 43.65625 24.015625 45.921875 
Q 28.375 48.1875 33.59375 48.1875 
Q 44.578125 48.1875 50.953125 41.515625 
Q 57.328125 34.859375 57.328125 23.390625 
Q 57.328125 12.15625 50.6875 5.359375 
Q 44.046875 -1.421875 33.015625 -1.421875 
Q 20.359375 -1.421875 13.671875 8.265625 
Q 6.984375 17.96875 6.984375 36.375 
Q 6.984375 53.65625 15.1875 63.9375 
Q 23.390625 74.21875 37.203125 74.21875 
Q 40.921875 74.21875 44.703125 73.484375 
Q 48.484375 72.75 52.59375 71.296875 
z
" id="DejaVuSans-36"/>
      </defs>
      <g transform="translate(287.451509 317.076875)scale(0.2 -0.2)">
       <use xlink:href="#DejaVuSans-36"/>
      </g>
     </g>
    </g>
    <g id="xtick_5">
     <g id="line2d_13">
      <path clip-path="url(#pa3a6716d7e)" d="M 373.045346 294.88 
L 373.045346 24.84 
" style="fill:none;stroke:#b0b0b0;stroke-linecap:square;stroke-width:0.8;"/>
     </g>
     <g id="line2d_14">
      <g>
       <use style="stroke:#000000;stroke-width:0.8;" x="373.045346" xlink:href="#m4e7513f542" y="294.88"/>
      </g>
     </g>
     <g id="text_5">
      <!-- 8 -->
      <defs>
       <path d="M 31.78125 34.625 
Q 24.75 34.625 20.71875 30.859375 
Q 16.703125 27.09375 16.703125 20.515625 
Q 16.703125 13.921875 20.71875 10.15625 
Q 24.75 6.390625 31.78125 6.390625 
Q 38.8125 6.390625 42.859375 10.171875 
Q 46.921875 13.96875 46.921875 20.515625 
Q 46.921875 27.09375 42.890625 30.859375 
Q 38.875 34.625 31.78125 34.625 
z
M 21.921875 38.8125 
Q 15.578125 40.375 12.03125 44.71875 
Q 8.5 49.078125 8.5 55.328125 
Q 8.5 64.0625 14.71875 69.140625 
Q 20.953125 74.21875 31.78125 74.21875 
Q 42.671875 74.21875 48.875 69.140625 
Q 55.078125 64.0625 55.078125 55.328125 
Q 55.078125 49.078125 51.53125 44.71875 
Q 48 40.375 41.703125 38.8125 
Q 48.828125 37.15625 52.796875 32.3125 
Q 56.78125 27.484375 56.78125 20.515625 
Q 56.78125 9.90625 50.3125 4.234375 
Q 43.84375 -1.421875 31.78125 -1.421875 
Q 19.734375 -1.421875 13.25 4.234375 
Q 6.78125 9.90625 6.78125 20.515625 
Q 6.78125 27.484375 10.78125 32.3125 
Q 14.796875 37.15625 21.921875 38.8125 
z
M 18.3125 54.390625 
Q 18.3125 48.734375 21.84375 45.5625 
Q 25.390625 42.390625 31.78125 42.390625 
Q 38.140625 42.390625 41.71875 45.5625 
Q 45.3125 48.734375 45.3125 54.390625 
Q 45.3125 60.0625 41.71875 63.234375 
Q 38.140625 66.40625 31.78125 66.40625 
Q 25.390625 66.40625 21.84375 63.234375 
Q 18.3125 60.0625 18.3125 54.390625 
z
" id="DejaVuSans-38"/>
      </defs>
      <g transform="translate(366.682846 317.076875)scale(0.2 -0.2)">
       <use xlink:href="#DejaVuSans-38"/>
      </g>
     </g>
    </g>
    <g id="text_6">
     <!-- log10(# f-evals / dimension) -->
     <defs>
      <path d="M 9.421875 75.984375 
L 18.40625 75.984375 
L 18.40625 0 
L 9.421875 0 
z
" id="DejaVuSans-6c"/>
      <path d="M 30.609375 48.390625 
Q 23.390625 48.390625 19.1875 42.75 
Q 14.984375 37.109375 14.984375 27.296875 
Q 14.984375 17.484375 19.15625 11.84375 
Q 23.34375 6.203125 30.609375 6.203125 
Q 37.796875 6.203125 41.984375 11.859375 
Q 46.1875 17.53125 46.1875 27.296875 
Q 46.1875 37.015625 41.984375 42.703125 
Q 37.796875 48.390625 30.609375 48.390625 
z
M 30.609375 56 
Q 42.328125 56 49.015625 48.375 
Q 55.71875 40.765625 55.71875 27.296875 
Q 55.71875 13.875 49.015625 6.21875 
Q 42.328125 -1.421875 30.609375 -1.421875 
Q 18.84375 -1.421875 12.171875 6.21875 
Q 5.515625 13.875 5.515625 27.296875 
Q 5.515625 40.765625 12.171875 48.375 
Q 18.84375 56 30.609375 56 
z
" id="DejaVuSans-6f"/>
      <path d="M 45.40625 27.984375 
Q 45.40625 37.75 41.375 43.109375 
Q 37.359375 48.484375 30.078125 48.484375 
Q 22.859375 48.484375 18.828125 43.109375 
Q 14.796875 37.75 14.796875 27.984375 
Q 14.796875 18.265625 18.828125 12.890625 
Q 22.859375 7.515625 30.078125 7.515625 
Q 37.359375 7.515625 41.375 12.890625 
Q 45.40625 18.265625 45.40625 27.984375 
z
M 54.390625 6.78125 
Q 54.390625 -7.171875 48.1875 -13.984375 
Q 42 -20.796875 29.203125 -20.796875 
Q 24.46875 -20.796875 20.265625 -20.09375 
Q 16.0625 -19.390625 12.109375 -17.921875 
L 12.109375 -9.1875 
Q 16.0625 -11.328125 19.921875 -12.34375 
Q 23.78125 -13.375 27.78125 -13.375 
Q 36.625 -13.375 41.015625 -8.765625 
Q 45.40625 -4.15625 45.40625 5.171875 
L 45.40625 9.625 
Q 42.625 4.78125 38.28125 2.390625 
Q 33.9375 0 27.875 0 
Q 17.828125 0 11.671875 7.65625 
Q 5.515625 15.328125 5.515625 27.984375 
Q 5.515625 40.671875 11.671875 48.328125 
Q 17.828125 56 27.875 56 
Q 33.9375 56 38.28125 53.609375 
Q 42.625 51.21875 45.40625 46.390625 
L 45.40625 54.6875 
L 54.390625 54.6875 
z
" id="DejaVuSans-67"/>
      <path d="M 12.40625 8.296875 
L 28.515625 8.296875 
L 28.515625 63.921875 
L 10.984375 60.40625 
L 10.984375 69.390625 
L 28.421875 72.90625 
L 38.28125 72.90625 
L 38.28125 8.296875 
L 54.390625 8.296875 
L 54.390625 0 
L 12.40625 0 
z
" id="DejaVuSans-31"/>
      <path d="M 31 75.875 
Q 24.46875 64.65625 21.28125 53.65625 
Q 18.109375 42.671875 18.109375 31.390625 
Q 18.109375 20.125 21.3125 9.0625 
Q 24.515625 -2 31 -13.1875 
L 23.1875 -13.1875 
Q 15.875 -1.703125 12.234375 9.375 
Q 8.59375 20.453125 8.59375 31.390625 
Q 8.59375 42.28125 12.203125 53.3125 
Q 15.828125 64.359375 23.1875 75.875 
z
" id="DejaVuSans-28"/>
      <path d="M 51.125 44 
L 36.921875 44 
L 32.8125 27.6875 
L 47.125 27.6875 
z
M 43.796875 71.78125 
L 38.71875 51.515625 
L 52.984375 51.515625 
L 58.109375 71.78125 
L 65.921875 71.78125 
L 60.890625 51.515625 
L 76.125 51.515625 
L 76.125 44 
L 58.984375 44 
L 54.984375 27.6875 
L 70.515625 27.6875 
L 70.515625 20.21875 
L 53.078125 20.21875 
L 48 0 
L 40.1875 0 
L 45.21875 20.21875 
L 30.90625 20.21875 
L 25.875 0 
L 18.015625 0 
L 23.09375 20.21875 
L 7.71875 20.21875 
L 7.71875 27.6875 
L 24.90625 27.6875 
L 29 44 
L 13.28125 44 
L 13.28125 51.515625 
L 30.90625 51.515625 
L 35.890625 71.78125 
z
" id="DejaVuSans-23"/>
      <path id="DejaVuSans-20"/>
      <path d="M 37.109375 75.984375 
L 37.109375 68.5 
L 28.515625 68.5 
Q 23.6875 68.5 21.796875 66.546875 
Q 19.921875 64.59375 19.921875 59.515625 
L 19.921875 54.6875 
L 34.71875 54.6875 
L 34.71875 47.703125 
L 19.921875 47.703125 
L 19.921875 0 
L 10.890625 0 
L 10.890625 47.703125 
L 2.296875 47.703125 
L 2.296875 54.6875 
L 10.890625 54.6875 
L 10.890625 58.5 
Q 10.890625 67.625 15.140625 71.796875 
Q 19.390625 75.984375 28.609375 75.984375 
z
" id="DejaVuSans-66"/>
      <path d="M 4.890625 31.390625 
L 31.203125 31.390625 
L 31.203125 23.390625 
L 4.890625 23.390625 
z
" id="DejaVuSans-2d"/>
      <path d="M 56.203125 29.59375 
L 56.203125 25.203125 
L 14.890625 25.203125 
Q 15.484375 15.921875 20.484375 11.0625 
Q 25.484375 6.203125 34.421875 6.203125 
Q 39.59375 6.203125 44.453125 7.46875 
Q 49.3125 8.734375 54.109375 11.28125 
L 54.109375 2.78125 
Q 49.265625 0.734375 44.1875 -0.34375 
Q 39.109375 -1.421875 33.890625 -1.421875 
Q 20.796875 -1.421875 13.15625 6.1875 
Q 5.515625 13.8125 5.515625 26.8125 
Q 5.515625 40.234375 12.765625 48.109375 
Q 20.015625 56 32.328125 56 
Q 43.359375 56 49.78125 48.890625 
Q 56.203125 41.796875 56.203125 29.59375 
z
M 47.21875 32.234375 
Q 47.125 39.59375 43.09375 43.984375 
Q 39.0625 48.390625 32.421875 48.390625 
Q 24.90625 48.390625 20.390625 44.140625 
Q 15.875 39.890625 15.1875 32.171875 
z
" id="DejaVuSans-65"/>
      <path d="M 2.984375 54.6875 
L 12.5 54.6875 
L 29.59375 8.796875 
L 46.6875 54.6875 
L 56.203125 54.6875 
L 35.6875 0 
L 23.484375 0 
z
" id="DejaVuSans-76"/>
      <path d="M 34.28125 27.484375 
Q 23.390625 27.484375 19.1875 25 
Q 14.984375 22.515625 14.984375 16.5 
Q 14.984375 11.71875 18.140625 8.90625 
Q 21.296875 6.109375 26.703125 6.109375 
Q 34.1875 6.109375 38.703125 11.40625 
Q 43.21875 16.703125 43.21875 25.484375 
L 43.21875 27.484375 
z
M 52.203125 31.203125 
L 52.203125 0 
L 43.21875 0 
L 43.21875 8.296875 
Q 40.140625 3.328125 35.546875 0.953125 
Q 30.953125 -1.421875 24.3125 -1.421875 
Q 15.921875 -1.421875 10.953125 3.296875 
Q 6 8.015625 6 15.921875 
Q 6 25.140625 12.171875 29.828125 
Q 18.359375 34.515625 30.609375 34.515625 
L 43.21875 34.515625 
L 43.21875 35.40625 
Q 43.21875 41.609375 39.140625 45 
Q 35.0625 48.390625 27.6875 48.390625 
Q 23 48.390625 18.546875 47.265625 
Q 14.109375 46.140625 10.015625 43.890625 
L 10.015625 52.203125 
Q 14.9375 54.109375 19.578125 55.046875 
Q 24.21875 56 28.609375 56 
Q 40.484375 56 46.34375 49.84375 
Q 52.203125 43.703125 52.203125 31.203125 
z
" id="DejaVuSans-61"/>
      <path d="M 44.28125 53.078125 
L 44.28125 44.578125 
Q 40.484375 46.53125 36.375 47.5 
Q 32.28125 48.484375 27.875 48.484375 
Q 21.1875 48.484375 17.84375 46.4375 
Q 14.5 44.390625 14.5 40.28125 
Q 14.5 37.15625 16.890625 35.375 
Q 19.28125 33.59375 26.515625 31.984375 
L 29.59375 31.296875 
Q 39.15625 29.25 43.1875 25.515625 
Q 47.21875 21.78125 47.21875 15.09375 
Q 47.21875 7.46875 41.1875 3.015625 
Q 35.15625 -1.421875 24.609375 -1.421875 
Q 20.21875 -1.421875 15.453125 -0.5625 
Q 10.6875 0.296875 5.421875 2 
L 5.421875 11.28125 
Q 10.40625 8.6875 15.234375 7.390625 
Q 20.0625 6.109375 24.8125 6.109375 
Q 31.15625 6.109375 34.5625 8.28125 
Q 37.984375 10.453125 37.984375 14.40625 
Q 37.984375 18.0625 35.515625 20.015625 
Q 33.0625 21.96875 24.703125 23.78125 
L 21.578125 24.515625 
Q 13.234375 26.265625 9.515625 29.90625 
Q 5.8125 33.546875 5.8125 39.890625 
Q 5.8125 47.609375 11.28125 51.796875 
Q 16.75 56 26.8125 56 
Q 31.78125 56 36.171875 55.265625 
Q 40.578125 54.546875 44.28125 53.078125 
z
" id="DejaVuSans-73"/>
      <path d="M 25.390625 72.90625 
L 33.6875 72.90625 
L 8.296875 -9.28125 
L 0 -9.28125 
z
" id="DejaVuSans-2f"/>
      <path d="M 45.40625 46.390625 
L 45.40625 75.984375 
L 54.390625 75.984375 
L 54.390625 0 
L 45.40625 0 
L 45.40625 8.203125 
Q 42.578125 3.328125 38.25 0.953125 
Q 33.9375 -1.421875 27.875 -1.421875 
Q 17.96875 -1.421875 11.734375 6.484375 
Q 5.515625 14.40625 5.515625 27.296875 
Q 5.515625 40.1875 11.734375 48.09375 
Q 17.96875 56 27.875 56 
Q 33.9375 56 38.25 53.625 
Q 42.578125 51.265625 45.40625 46.390625 
z
M 14.796875 27.296875 
Q 14.796875 17.390625 18.875 11.75 
Q 22.953125 6.109375 30.078125 6.109375 
Q 37.203125 6.109375 41.296875 11.75 
Q 45.40625 17.390625 45.40625 27.296875 
Q 45.40625 37.203125 41.296875 42.84375 
Q 37.203125 48.484375 30.078125 48.484375 
Q 22.953125 48.484375 18.875 42.84375 
Q 14.796875 37.203125 14.796875 27.296875 
z
" id="DejaVuSans-64"/>
      <path d="M 9.421875 54.6875 
L 18.40625 54.6875 
L 18.40625 0 
L 9.421875 0 
z
M 9.421875 75.984375 
L 18.40625 75.984375 
L 18.40625 64.59375 
L 9.421875 64.59375 
z
" id="DejaVuSans-69"/>
      <path d="M 52 44.1875 
Q 55.375 50.25 60.0625 53.125 
Q 64.75 56 71.09375 56 
Q 79.640625 56 84.28125 50.015625 
Q 88.921875 44.046875 88.921875 33.015625 
L 88.921875 0 
L 79.890625 0 
L 79.890625 32.71875 
Q 79.890625 40.578125 77.09375 44.375 
Q 74.3125 48.1875 68.609375 48.1875 
Q 61.625 48.1875 57.5625 43.546875 
Q 53.515625 38.921875 53.515625 30.90625 
L 53.515625 0 
L 44.484375 0 
L 44.484375 32.71875 
Q 44.484375 40.625 41.703125 44.40625 
Q 38.921875 48.1875 33.109375 48.1875 
Q 26.21875 48.1875 22.15625 43.53125 
Q 18.109375 38.875 18.109375 30.90625 
L 18.109375 0 
L 9.078125 0 
L 9.078125 54.6875 
L 18.109375 54.6875 
L 18.109375 46.1875 
Q 21.1875 51.21875 25.484375 53.609375 
Q 29.78125 56 35.6875 56 
Q 41.65625 56 45.828125 52.96875 
Q 50 49.953125 52 44.1875 
z
" id="DejaVuSans-6d"/>
      <path d="M 54.890625 33.015625 
L 54.890625 0 
L 45.90625 0 
L 45.90625 32.71875 
Q 45.90625 40.484375 42.875 44.328125 
Q 39.84375 48.1875 33.796875 48.1875 
Q 26.515625 48.1875 22.3125 43.546875 
Q 18.109375 38.921875 18.109375 30.90625 
L 18.109375 0 
L 9.078125 0 
L 9.078125 54.6875 
L 18.109375 54.6875 
L 18.109375 46.1875 
Q 21.34375 51.125 25.703125 53.5625 
Q 30.078125 56 35.796875 56 
Q 45.21875 56 50.046875 50.171875 
Q 54.890625 44.34375 54.890625 33.015625 
z
" id="DejaVuSans-6e"/>
      <path d="M 8.015625 75.875 
L 15.828125 75.875 
Q 23.140625 64.359375 26.78125 53.3125 
Q 30.421875 42.28125 30.421875 31.390625 
Q 30.421875 20.453125 26.78125 9.375 
Q 23.140625 -1.703125 15.828125 -13.1875 
L 8.015625 -13.1875 
Q 14.5 -2 17.703125 9.0625 
Q 20.90625 20.125 20.90625 31.390625 
Q 20.90625 42.671875 17.703125 53.65625 
Q 14.5 64.65625 8.015625 75.875 
z
" id="DejaVuSans-29"/>
     </defs>
     <g transform="translate(107.211219 338.153594)scale(0.17 -0.17)">
      <use xlink:href="#DejaVuSans-6c"/>
      <use x="27.783203" xlink:href="#DejaVuSans-6f"/>
      <use x="88.964844" xlink:href="#DejaVuSans-67"/>
      <use x="152.441406" xlink:href="#DejaVuSans-31"/>
      <use x="216.064453" xlink:href="#DejaVuSans-30"/>
      <use x="279.6875" xlink:href="#DejaVuSans-28"/>
      <use x="318.701172" xlink:href="#DejaVuSans-23"/>
      <use x="402.490234" xlink:href="#DejaVuSans-20"/>
      <use x="434.277344" xlink:href="#DejaVuSans-66"/>
      <use x="469.404297" xlink:href="#DejaVuSans-2d"/>
      <use x="505.488281" xlink:href="#DejaVuSans-65"/>
      <use x="567.011719" xlink:href="#DejaVuSans-76"/>
      <use x="626.191406" xlink:href="#DejaVuSans-61"/>
      <use x="687.470703" xlink:href="#DejaVuSans-6c"/>
      <use x="715.253906" xlink:href="#DejaVuSans-73"/>
      <use x="767.353516" xlink:href="#DejaVuSans-20"/>
      <use x="799.140625" xlink:href="#DejaVuSans-2f"/>
      <use x="832.832031" xlink:href="#DejaVuSans-20"/>
      <use x="864.619141" xlink:href="#DejaVuSans-64"/>
      <use x="928.095703" xlink:href="#DejaVuSans-69"/>
      <use x="955.878906" xlink:href="#DejaVuSans-6d"/>
      <use x="1053.291016" xlink:href="#DejaVuSans-65"/>
      <use x="1114.814453" xlink:href="#DejaVuSans-6e"/>
      <use x="1178.193359" xlink:href="#DejaVuSans-73"/>
      <use x="1230.292969" xlink:href="#DejaVuSans-69"/>
      <use x="1258.076172" xlink:href="#DejaVuSans-6f"/>
      <use x="1319.257812" xlink:href="#DejaVuSans-6e"/>
      <use x="1382.636719" xlink:href="#DejaVuSans-29"/>
     </g>
    </g>
   </g>
   <g id="matplotlib.axis_2">
    <g id="ytick_1">
     <g id="line2d_15">
      <path clip-path="url(#pa3a6716d7e)" d="M 56.12 294.88 
L 399.984 294.88 
" style="fill:none;stroke:#b0b0b0;stroke-linecap:square;stroke-width:0.8;"/>
     </g>
     <g id="line2d_16">
      <defs>
       <path d="M 0 0 
L -3.5 0 
" id="mb68fb2dfdc" style="stroke:#000000;stroke-width:0.8;"/>
      </defs>
      <g>
       <use style="stroke:#000000;stroke-width:0.8;" x="56.12" xlink:href="#mb68fb2dfdc" y="294.88"/>
      </g>
     </g>
     <g id="text_7">
      <!-- 0.0 -->
      <defs>
       <path d="M 10.6875 12.40625 
L 21 12.40625 
L 21 0 
L 10.6875 0 
z
" id="DejaVuSans-2e"/>
      </defs>
      <g transform="translate(23.675 300.95875)scale(0.16 -0.16)">
       <use xlink:href="#DejaVuSans-30"/>
       <use x="63.623047" xlink:href="#DejaVuSans-2e"/>
       <use x="95.410156" xlink:href="#DejaVuSans-30"/>
      </g>
     </g>
    </g>
    <g id="ytick_2">
     <g id="line2d_17">
      <path clip-path="url(#pa3a6716d7e)" d="M 56.12 241.406733 
L 399.984 241.406733 
" style="fill:none;stroke:#b0b0b0;stroke-linecap:square;stroke-width:0.8;"/>
     </g>
     <g id="line2d_18">
      <g>
       <use style="stroke:#000000;stroke-width:0.8;" x="56.12" xlink:href="#mb68fb2dfdc" y="241.406733"/>
      </g>
     </g>
     <g id="text_8">
      <!-- 0.2 -->
      <g transform="translate(23.675 247.485483)scale(0.16 -0.16)">
       <use xlink:href="#DejaVuSans-30"/>
       <use x="63.623047" xlink:href="#DejaVuSans-2e"/>
       <use x="95.410156" xlink:href="#DejaVuSans-32"/>
      </g>
     </g>
    </g>
    <g id="ytick_3">
     <g id="line2d_19">
      <path clip-path="url(#pa3a6716d7e)" d="M 56.12 187.933465 
L 399.984 187.933465 
" style="fill:none;stroke:#b0b0b0;stroke-linecap:square;stroke-width:0.8;"/>
     </g>
     <g id="line2d_20">
      <g>
       <use style="stroke:#000000;stroke-width:0.8;" x="56.12" xlink:href="#mb68fb2dfdc" y="187.933465"/>
      </g>
     </g>
     <g id="text_9">
      <!-- 0.4 -->
      <g transform="translate(23.675 194.012215)scale(0.16 -0.16)">
       <use xlink:href="#DejaVuSans-30"/>
       <use x="63.623047" xlink:href="#DejaVuSans-2e"/>
       <use x="95.410156" xlink:href="#DejaVuSans-34"/>
      </g>
     </g>
    </g>
    <g id="ytick_4">
     <g id="line2d_21">
      <path clip-path="url(#pa3a6716d7e)" d="M 56.12 134.460198 
L 399.984 134.460198 
" style="fill:none;stroke:#b0b0b0;stroke-linecap:square;stroke-width:0.8;"/>
     </g>
     <g id="line2d_22">
      <g>
       <use style="stroke:#000000;stroke-width:0.8;" x="56.12" xlink:href="#mb68fb2dfdc" y="134.460198"/>
      </g>
     </g>
     <g id="text_10">
      <!-- 0.6 -->
      <g transform="translate(23.675 140.538948)scale(0.16 -0.16)">
       <use xlink:href="#DejaVuSans-30"/>
       <use x="63.623047" xlink:href="#DejaVuSans-2e"/>
       <use x="95.410156" xlink:href="#DejaVuSans-36"/>
      </g>
     </g>
    </g>
    <g id="ytick_5">
     <g id="line2d_23">
      <path clip-path="url(#pa3a6716d7e)" d="M 56.12 80.986931 
L 399.984 80.986931 
" style="fill:none;stroke:#b0b0b0;stroke-linecap:square;stroke-width:0.8;"/>
     </g>
     <g id="line2d_24">
      <g>
       <use style="stroke:#000000;stroke-width:0.8;" x="56.12" xlink:href="#mb68fb2dfdc" y="80.986931"/>
      </g>
     </g>
     <g id="text_11">
      <!-- 0.8 -->
      <g transform="translate(23.675 87.065681)scale(0.16 -0.16)">
       <use xlink:href="#DejaVuSans-30"/>
       <use x="63.623047" xlink:href="#DejaVuSans-2e"/>
       <use x="95.410156" xlink:href="#DejaVuSans-38"/>
      </g>
     </g>
    </g>
    <g id="ytick_6">
     <g id="line2d_25">
      <path clip-path="url(#pa3a6716d7e)" d="M 56.12 27.513663 
L 399.984 27.513663 
" style="fill:none;stroke:#b0b0b0;stroke-linecap:square;stroke-width:0.8;"/>
     </g>
     <g id="line2d_26">
      <g>
       <use style="stroke:#000000;stroke-width:0.8;" x="56.12" xlink:href="#mb68fb2dfdc" y="27.513663"/>
      </g>
     </g>
     <g id="text_12">
      <!-- 1.0 -->
      <g transform="translate(23.675 33.592413)scale(0.16 -0.16)">
       <use xlink:href="#DejaVuSans-31"/>
       <use x="63.623047" xlink:href="#DejaVuSans-2e"/>
       <use x="95.410156" xlink:href="#DejaVuSans-30"/>
      </g>
     </g>
    </g>
    <g id="text_13">
     <!-- Fraction of function,target pairs -->
     <defs>
      <path d="M 9.8125 72.90625 
L 51.703125 72.90625 
L 51.703125 64.59375 
L 19.671875 64.59375 
L 19.671875 43.109375 
L 48.578125 43.109375 
L 48.578125 34.8125 
L 19.671875 34.8125 
L 19.671875 0 
L 9.8125 0 
z
" id="DejaVuSans-46"/>
      <path d="M 41.109375 46.296875 
Q 39.59375 47.171875 37.8125 47.578125 
Q 36.03125 48 33.890625 48 
Q 26.265625 48 22.1875 43.046875 
Q 18.109375 38.09375 18.109375 28.8125 
L 18.109375 0 
L 9.078125 0 
L 9.078125 54.6875 
L 18.109375 54.6875 
L 18.109375 46.1875 
Q 20.953125 51.171875 25.484375 53.578125 
Q 30.03125 56 36.53125 56 
Q 37.453125 56 38.578125 55.875 
Q 39.703125 55.765625 41.0625 55.515625 
z
" id="DejaVuSans-72"/>
      <path d="M 48.78125 52.59375 
L 48.78125 44.1875 
Q 44.96875 46.296875 41.140625 47.34375 
Q 37.3125 48.390625 33.40625 48.390625 
Q 24.65625 48.390625 19.8125 42.84375 
Q 14.984375 37.3125 14.984375 27.296875 
Q 14.984375 17.28125 19.8125 11.734375 
Q 24.65625 6.203125 33.40625 6.203125 
Q 37.3125 6.203125 41.140625 7.25 
Q 44.96875 8.296875 48.78125 10.40625 
L 48.78125 2.09375 
Q 45.015625 0.34375 40.984375 -0.53125 
Q 36.96875 -1.421875 32.421875 -1.421875 
Q 20.0625 -1.421875 12.78125 6.34375 
Q 5.515625 14.109375 5.515625 27.296875 
Q 5.515625 40.671875 12.859375 48.328125 
Q 20.21875 56 33.015625 56 
Q 37.15625 56 41.109375 55.140625 
Q 45.0625 54.296875 48.78125 52.59375 
z
" id="DejaVuSans-63"/>
      <path d="M 18.3125 70.21875 
L 18.3125 54.6875 
L 36.8125 54.6875 
L 36.8125 47.703125 
L 18.3125 47.703125 
L 18.3125 18.015625 
Q 18.3125 11.328125 20.140625 9.421875 
Q 21.96875 7.515625 27.59375 7.515625 
L 36.8125 7.515625 
L 36.8125 0 
L 27.59375 0 
Q 17.1875 0 13.234375 3.875 
Q 9.28125 7.765625 9.28125 18.015625 
L 9.28125 47.703125 
L 2.6875 47.703125 
L 2.6875 54.6875 
L 9.28125 54.6875 
L 9.28125 70.21875 
z
" id="DejaVuSans-74"/>
      <path d="M 8.5 21.578125 
L 8.5 54.6875 
L 17.484375 54.6875 
L 17.484375 21.921875 
Q 17.484375 14.15625 20.5 10.265625 
Q 23.53125 6.390625 29.59375 6.390625 
Q 36.859375 6.390625 41.078125 11.03125 
Q 45.3125 15.671875 45.3125 23.6875 
L 45.3125 54.6875 
L 54.296875 54.6875 
L 54.296875 0 
L 45.3125 0 
L 45.3125 8.40625 
Q 42.046875 3.421875 37.71875 1 
Q 33.40625 -1.421875 27.6875 -1.421875 
Q 18.265625 -1.421875 13.375 4.4375 
Q 8.5 10.296875 8.5 21.578125 
z
M 31.109375 56 
z
" id="DejaVuSans-75"/>
      <path d="M 11.71875 12.40625 
L 22.015625 12.40625 
L 22.015625 4 
L 14.015625 -11.625 
L 7.71875 -11.625 
L 11.71875 4 
z
" id="DejaVuSans-2c"/>
      <path d="M 18.109375 8.203125 
L 18.109375 -20.796875 
L 9.078125 -20.796875 
L 9.078125 54.6875 
L 18.109375 54.6875 
L 18.109375 46.390625 
Q 20.953125 51.265625 25.265625 53.625 
Q 29.59375 56 35.59375 56 
Q 45.5625 56 51.78125 48.09375 
Q 58.015625 40.1875 58.015625 27.296875 
Q 58.015625 14.40625 51.78125 6.484375 
Q 45.5625 -1.421875 35.59375 -1.421875 
Q 29.59375 -1.421875 25.265625 0.953125 
Q 20.953125 3.328125 18.109375 8.203125 
z
M 48.6875 27.296875 
Q 48.6875 37.203125 44.609375 42.84375 
Q 40.53125 48.484375 33.40625 48.484375 
Q 26.265625 48.484375 22.1875 42.84375 
Q 18.109375 37.203125 18.109375 27.296875 
Q 18.109375 17.390625 22.1875 11.75 
Q 26.265625 6.109375 33.40625 6.109375 
Q 40.53125 6.109375 44.609375 11.75 
Q 48.6875 17.390625 48.6875 27.296875 
z
" id="DejaVuSans-70"/>
     </defs>
     <g transform="translate(16.139531 294.999375)rotate(-90)scale(0.17 -0.17)">
      <use xlink:href="#DejaVuSans-46"/>
      <use x="57.410156" xlink:href="#DejaVuSans-72"/>
      <use x="98.523438" xlink:href="#DejaVuSans-61"/>
      <use x="159.802734" xlink:href="#DejaVuSans-63"/>
      <use x="214.783203" xlink:href="#DejaVuSans-74"/>
      <use x="253.992188" xlink:href="#DejaVuSans-69"/>
      <use x="281.775391" xlink:href="#DejaVuSans-6f"/>
      <use x="342.957031" xlink:href="#DejaVuSans-6e"/>
      <use x="406.335938" xlink:href="#DejaVuSans-20"/>
      <use x="438.123047" xlink:href="#DejaVuSans-6f"/>
      <use x="499.304688" xlink:href="#DejaVuSans-66"/>
      <use x="534.509766" xlink:href="#DejaVuSans-20"/>
      <use x="566.296875" xlink:href="#DejaVuSans-66"/>
      <use x="601.501953" xlink:href="#DejaVuSans-75"/>
      <use x="664.880859" xlink:href="#DejaVuSans-6e"/>
      <use x="728.259766" xlink:href="#DejaVuSans-63"/>
      <use x="783.240234" xlink:href="#DejaVuSans-74"/>
      <use x="822.449219" xlink:href="#DejaVuSans-69"/>
      <use x="850.232422" xlink:href="#DejaVuSans-6f"/>
      <use x="911.414062" xlink:href="#DejaVuSans-6e"/>
      <use x="974.792969" xlink:href="#DejaVuSans-2c"/>
      <use x="1006.580078" xlink:href="#DejaVuSans-74"/>
      <use x="1045.789062" xlink:href="#DejaVuSans-61"/>
      <use x="1107.068359" xlink:href="#DejaVuSans-72"/>
      <use x="1148.166016" xlink:href="#DejaVuSans-67"/>
      <use x="1211.642578" xlink:href="#DejaVuSans-65"/>
      <use x="1273.166016" xlink:href="#DejaVuSans-74"/>
      <use x="1312.375" xlink:href="#DejaVuSans-20"/>
      <use x="1344.162109" xlink:href="#DejaVuSans-70"/>
      <use x="1407.638672" xlink:href="#DejaVuSans-61"/>
      <use x="1468.917969" xlink:href="#DejaVuSans-69"/>
      <use x="1496.701172" xlink:href="#DejaVuSans-72"/>
      <use x="1537.814453" xlink:href="#DejaVuSans-73"/>
     </g>
    </g>
   </g>
   <g id="line2d_27">
    <defs>
     <path d="M 0 1.5 
C 0.397805 1.5 0.77937 1.341951 1.06066 1.06066 
C 1.341951 0.77937 1.5 0.397805 1.5 0 
C 1.5 -0.397805 1.341951 -0.77937 1.06066 -1.06066 
C 0.77937 -1.341951 0.397805 -1.5 0 -1.5 
C -0.397805 -1.5 -0.77937 -1.341951 -1.06066 -1.06066 
C -1.341951 -0.77937 -1.5 -0.397805 -1.5 0 
C -1.5 0.397805 -1.341951 0.77937 -1.06066 1.06066 
C -0.77937 1.341951 -0.397805 1.5 0 1.5 
z
" id="m46931f2258" style="stroke:#f5deb3;"/>
    </defs>
    <g>
     <use style="fill:#f5deb3;stroke:#f5deb3;" x="192.201076" xlink:href="#m46931f2258" y="27.513663"/>
     <use style="fill:#f5deb3;stroke:#f5deb3;" x="192.201076" xlink:href="#m46931f2258" y="27.513663"/>
    </g>
   </g>
   <g id="line2d_28">
    <defs>
     <path d="M 0 1.5 
C 0.397805 1.5 0.77937 1.341951 1.06066 1.06066 
C 1.341951 0.77937 1.5 0.397805 1.5 0 
C 1.5 -0.397805 1.341951 -0.77937 1.06066 -1.06066 
C 0.77937 -1.341951 0.397805 -1.5 0 -1.5 
C -0.397805 -1.5 -0.77937 -1.341951 -1.06066 -1.06066 
C -1.341951 -0.77937 -1.5 -0.397805 -1.5 0 
C -1.5 0.397805 -1.341951 0.77937 -1.06066 1.06066 
C -0.77937 1.341951 -0.397805 1.5 0 1.5 
z
" id="md5a74a4a4f" style="stroke:#000080;"/>
    </defs>
    <g>
     <use style="fill:#000080;stroke:#000080;" x="328.574119" xlink:href="#md5a74a4a4f" y="153.333116"/>
     <use style="fill:#000080;stroke:#000080;" x="328.574119" xlink:href="#md5a74a4a4f" y="153.333116"/>
    </g>
   </g>
   <g id="line2d_29">
    <path d="M 16.504332 294.88 
L 16.504332 277.055578 
L 28.429836 277.055578 
L 28.429836 276.53133 
L 35.405809 276.53133 
L 35.405809 274.434339 
L 40.355341 274.434339 
L 40.355341 271.8131 
L 47.331314 271.8131 
L 47.331314 270.764605 
L 49.983455 270.764605 
L 49.983455 270.240357 
L 52.280845 270.240357 
L 52.280845 269.716109 
L 54.307286 269.716109 
L 54.307286 268.143366 
L 56.12 268.143366 
L 56.12 267.619119 
L 57.759799 267.619119 
L 57.759799 267.094871 
L 68.045504 267.094871 
L 68.045504 266.570623 
L 77.673619 266.570623 
L 77.673619 266.046375 
L 87.511126 266.046375 
L 87.511126 264.473632 
L 90.555195 264.473632 
L 90.555195 263.425137 
L 114.230941 263.425137 
L 114.230941 262.900889 
L 120.870909 262.900889 
L 120.870909 262.376641 
L 123.800236 262.376641 
L 123.800236 261.852394 
L 127.374747 261.852394 
L 127.374747 261.328146 
L 127.833571 261.328146 
L 127.833571 260.279651 
L 132.935564 260.279651 
L 132.935564 259.755403 
L 137.270391 259.755403 
L 137.270391 259.231155 
L 137.740955 259.231155 
L 137.740955 258.706907 
L 141.779597 258.706907 
L 141.779597 258.18266 
L 142.061458 258.18266 
L 142.061458 257.658412 
L 142.946864 257.658412 
L 142.946864 257.134164 
L 145.425852 257.134164 
L 145.425852 256.609917 
L 149.111047 256.609917 
L 149.111047 255.561421 
L 149.860025 255.561421 
L 149.860025 255.037173 
L 150.984739 255.037173 
L 150.984739 253.988678 
L 152.202699 253.988678 
L 152.202699 253.46443 
L 153.022735 253.46443 
L 153.022735 252.415935 
L 154.021872 252.415935 
L 154.021872 251.891687 
L 154.201122 251.891687 
L 154.201122 251.367439 
L 154.571011 251.367439 
L 154.571011 250.843192 
L 157.598639 250.843192 
L 157.598639 249.794696 
L 158.224508 249.794696 
L 158.224508 249.270448 
L 158.450653 249.270448 
L 158.450653 248.221953 
L 158.942317 248.221953 
L 158.942317 247.697705 
L 160.490569 247.697705 
L 160.490569 246.64921 
L 161.60319 246.64921 
L 161.60319 246.124962 
L 163.280698 246.124962 
L 163.324756 244.027971 
L 164.774889 244.027971 
L 164.774889 243.503724 
L 165.639484 243.503724 
L 165.639484 242.979476 
L 166.731359 242.979476 
L 166.731359 242.455228 
L 169.293617 242.455228 
L 169.293617 241.93098 
L 170.301857 241.93098 
L 170.301857 240.882485 
L 170.608237 240.882485 
L 170.608237 240.358237 
L 170.745117 240.358237 
L 170.745117 239.83399 
L 171.311815 239.83399 
L 171.311815 238.785494 
L 171.730108 238.785494 
L 171.730108 238.261246 
L 171.975469 238.261246 
L 172.061238 236.688503 
L 172.091767 236.688503 
L 172.091767 236.164255 
L 173.508107 236.164255 
L 173.508107 235.640008 
L 174.490781 235.640008 
L 174.490781 235.11576 
L 174.605369 235.11576 
L 174.605369 234.067265 
L 175.192623 234.067265 
L 175.192623 233.543017 
L 176.105316 233.543017 
L 176.105316 233.018769 
L 176.627125 233.018769 
L 176.627125 231.970274 
L 176.822848 231.970274 
L 176.822848 231.446026 
L 178.510462 231.446026 
L 178.576148 230.397531 
L 179.479623 230.397531 
L 179.479623 229.873283 
L 179.835915 229.873283 
L 179.856645 228.30054 
L 181.074965 228.30054 
L 181.074965 227.776292 
L 181.38342 227.776292 
L 181.461447 226.203549 
L 182.564745 226.203549 
L 182.564745 225.155053 
L 182.821686 225.155053 
L 182.821686 224.630806 
L 183.600493 224.630806 
L 183.600493 224.106558 
L 183.811688 224.106558 
L 183.818889 222.533815 
L 184.198307 222.533815 
L 184.198307 222.009567 
L 185.215938 222.009567 
L 185.215938 221.485319 
L 185.954689 221.485319 
L 185.954689 220.961072 
L 186.333841 220.961072 
L 186.333841 219.388328 
L 186.551945 219.388328 
L 186.594011 217.815585 
L 186.700467 217.815585 
L 186.700467 217.291338 
L 186.864959 217.291338 
L 186.864959 216.76709 
L 188.439779 216.76709 
L 188.439779 216.242842 
L 189.189039 216.242842 
L 189.203335 214.670099 
L 189.907026 214.670099 
L 189.94885 213.621604 
L 190.621892 213.621604 
L 190.621892 213.097356 
L 190.872169 213.097356 
L 190.872169 212.573108 
L 191.173945 212.573108 
L 191.173945 212.04886 
L 192.089508 212.04886 
L 192.089508 211.524613 
L 193.091909 211.524613 
L 193.091909 209.95187 
L 193.273341 209.95187 
L 193.273341 209.427622 
L 194.891538 209.427622 
L 194.930402 206.806383 
L 195.90053 206.806383 
L 195.90053 205.757888 
L 196.223626 205.757888 
L 196.223626 204.709392 
L 198.319666 204.709392 
L 198.319666 204.185145 
L 198.469551 204.185145 
L 198.469551 203.136649 
L 202.208163 203.136649 
L 202.208163 202.612401 
L 203.506098 202.612401 
L 203.506098 202.088154 
L 206.021869 202.088154 
L 206.021869 201.563906 
L 210.166845 201.563906 
L 210.177739 200.515411 
L 213.282597 200.515411 
L 213.297064 199.466915 
L 217.659456 199.466915 
L 217.659456 198.942667 
L 221.437211 198.942667 
L 221.437211 197.894172 
L 222.887422 197.894172 
L 222.887422 196.321429 
L 224.048198 196.321429 
L 224.048198 194.748686 
L 224.796199 194.748686 
L 224.796199 194.224438 
L 225.096595 194.224438 
L 225.096595 193.70019 
L 225.259978 193.70019 
L 225.259978 193.175943 
L 226.065263 193.175943 
L 226.065263 192.651695 
L 226.337261 192.651695 
L 226.400829 191.603199 
L 226.629644 191.603199 
L 226.629644 190.554704 
L 226.972829 190.554704 
L 226.972829 190.030456 
L 227.109023 190.030456 
L 227.109023 188.981961 
L 228.603605 188.981961 
L 228.603605 188.457713 
L 228.994776 188.457713 
L 228.994776 187.933465 
L 229.660258 187.933465 
L 229.660258 187.409218 
L 230.963656 187.409218 
L 230.963656 186.360722 
L 232.173247 186.360722 
L 232.248896 184.787979 
L 232.580695 184.787979 
L 232.580695 183.739484 
L 232.814102 183.739484 
L 232.814102 183.215236 
L 233.040559 183.215236 
L 233.040559 182.16674 
L 233.267211 182.16674 
L 233.267211 181.642493 
L 233.525163 181.642493 
L 233.525163 180.593997 
L 233.828731 180.593997 
L 233.828731 180.06975 
L 234.323906 180.06975 
L 234.323906 179.545502 
L 238.347571 179.545502 
L 238.347571 179.021254 
L 238.567487 179.021254 
L 238.567487 177.448511 
L 238.933591 177.448511 
L 238.933591 176.924263 
L 240.423227 176.924263 
L 240.423227 175.875768 
L 246.673969 175.875768 
L 246.673969 175.35152 
L 249.249865 175.35152 
L 249.249865 174.827272 
L 255.607162 174.827272 
L 255.607162 174.303025 
L 255.758548 174.303025 
L 255.758548 173.778777 
L 259.886097 173.778777 
L 259.886097 173.254529 
L 260.039487 173.254529 
L 260.039487 172.730281 
L 260.653791 172.730281 
L 260.653791 172.206034 
L 261.317628 172.206034 
L 261.317628 171.681786 
L 261.494526 171.681786 
L 261.494526 171.157538 
L 261.986422 171.157538 
L 261.986422 170.109043 
L 262.098541 170.109043 
L 262.098541 169.584795 
L 262.423819 169.584795 
L 262.495519 168.012052 
L 272.705923 168.012052 
L 272.801495 163.81807 
L 278.039751 163.81807 
L 278.039751 163.293823 
L 280.710401 163.293823 
L 280.710401 162.245327 
L 283.246892 162.245327 
L 283.246892 160.672584 
L 286.914718 160.672584 
L 286.914718 160.148336 
L 292.257341 160.148336 
L 292.257341 159.624089 
L 294.171821 159.624089 
L 294.171821 159.099841 
L 299.768006 159.099841 
L 299.768006 158.575593 
L 301.067674 158.575593 
L 301.067674 158.051345 
L 305.948202 158.051345 
L 305.948202 157.527098 
L 309.745821 157.527098 
L 309.745821 157.00285 
L 310.006282 157.00285 
L 310.017429 155.954354 
L 315.494533 155.954354 
L 315.568374 154.905859 
L 319.790244 154.905859 
L 319.790244 154.381611 
L 323.27199 154.381611 
L 323.27199 153.857364 
L 328.574119 153.857364 
L 328.574119 153.333116 
L 333.429677 153.333116 
L 333.429677 153.333116 
" style="fill:none;stroke:#000080;stroke-linecap:square;stroke-width:1.5;"/>
   </g>
   <g id="line2d_30">
    <defs>
     <path d="M 0 6 
C 1.591219 6 3.117479 5.367802 4.242641 4.242641 
C 5.367802 3.117479 6 1.591219 6 0 
C 6 -1.591219 5.367802 -3.117479 4.242641 -4.242641 
C 3.117479 -5.367802 1.591219 -6 0 -6 
C -1.591219 -6 -3.117479 -5.367802 -4.242641 -4.242641 
C -5.367802 -3.117479 -6 -1.591219 -6 0 
C -6 1.591219 -5.367802 3.117479 -4.242641 4.242641 
C -3.117479 5.367802 -1.591219 6 0 6 
z
" id="m23ddeb4e72" style="stroke:#000080;stroke-width:1.5;"/>
    </defs>
    <g>
     <use style="fill-opacity:0;stroke:#000080;stroke-width:1.5;" x="90.555195" xlink:href="#m23ddeb4e72" y="264.473632"/>
     <use style="fill-opacity:0;stroke:#000080;stroke-width:1.5;" x="166.731359" xlink:href="#m23ddeb4e72" y="242.455228"/>
     <use style="fill-opacity:0;stroke:#000080;stroke-width:1.5;" x="217.659456" xlink:href="#m23ddeb4e72" y="198.942667"/>
     <use style="fill-opacity:0;stroke:#000080;stroke-width:1.5;" x="305.948202" xlink:href="#m23ddeb4e72" y="157.527098"/>
     <use style="fill-opacity:0;stroke:#000080;stroke-width:1.5;" x="328.574119" xlink:href="#m23ddeb4e72" y="153.333116"/>
     <use style="fill-opacity:0;stroke:#000080;stroke-width:1.5;" x="333.429677" xlink:href="#m23ddeb4e72" y="153.333116"/>
    </g>
   </g>
   <g id="line2d_31">
    <path style="fill:none;stroke:#000080;stroke-linecap:square;stroke-width:1.5;"/>
    <g/>
   </g>
   <g id="line2d_32">
    <path clip-path="url(#pa3a6716d7e)" d="M 281.888505 162.245327 
" style="fill:none;stroke:#000080;stroke-linecap:square;stroke-width:1.5;"/>
    <defs>
     <path d="M -12 12 
L 12 -12 
M -12 -12 
L 12 12 
" id="m37e09363fb" style="stroke:#000080;stroke-width:3;"/>
    </defs>
    <g clip-path="url(#pa3a6716d7e)">
     <use style="fill:#000080;stroke:#000080;stroke-width:3;" x="281.888505" xlink:href="#m37e09363fb" y="162.245327"/>
    </g>
   </g>
   <g id="line2d_33">
    <defs>
     <path d="M 0 1.5 
C 0.397805 1.5 0.77937 1.341951 1.06066 1.06066 
C 1.341951 0.77937 1.5 0.397805 1.5 0 
C 1.5 -0.397805 1.341951 -0.77937 1.06066 -1.06066 
C 0.77937 -1.341951 0.397805 -1.5 0 -1.5 
C -0.397805 -1.5 -0.77937 -1.341951 -1.06066 -1.06066 
C -1.341951 -0.77937 -1.5 -0.397805 -1.5 0 
C -1.5 0.397805 -1.341951 0.77937 -1.06066 1.06066 
C -0.77937 1.341951 -0.397805 1.5 0 1.5 
z
" id="m6b45c08658" style="stroke:#ff00ff;"/>
    </defs>
    <g>
     <use style="fill:#ff00ff;stroke:#ff00ff;" x="357.549628" xlink:href="#m6b45c08658" y="221.485319"/>
     <use style="fill:#ff00ff;stroke:#ff00ff;" x="357.549628" xlink:href="#m6b45c08658" y="221.485319"/>
    </g>
   </g>
   <g id="line2d_34">
    <path d="M 16.504332 294.88 
L 16.504332 281.249559 
L 40.355341 281.249559 
L 40.355341 280.725312 
L 56.12 280.725312 
L 56.12 279.676816 
L 63.095973 279.676816 
L 63.095973 278.628321 
L 66.232791 278.628321 
L 66.232791 277.579825 
L 71.182322 277.579825 
L 71.182322 277.055578 
L 72.559446 277.055578 
L 72.559446 275.482834 
L 76.131854 275.482834 
L 76.131854 274.434339 
L 76.661276 274.434339 
L 76.661276 273.910091 
L 79.088515 273.910091 
L 79.088515 273.385844 
L 80.810437 273.385844 
L 80.810437 272.861596 
L 88.324106 272.861596 
L 88.324106 272.337348 
L 105.848459 272.337348 
L 105.848459 270.764605 
L 106.226603 270.764605 
L 106.226603 270.240357 
L 106.778678 270.240357 
L 106.778678 269.191862 
L 111.43137 269.191862 
L 111.43137 268.667614 
L 117.533332 268.667614 
L 117.533332 268.143366 
L 121.803229 268.143366 
L 121.803229 267.619119 
L 125.649945 267.619119 
L 125.649945 267.094871 
L 127.51097 267.094871 
L 127.51097 266.046375 
L 128.124067 266.046375 
L 128.124067 265.522128 
L 136.370069 265.522128 
L 136.370069 264.99788 
L 137.022388 264.99788 
L 137.022388 263.949385 
L 137.934521 263.949385 
L 137.934521 263.425137 
L 142.350234 263.425137 
L 142.350234 262.900889 
L 149.141949 262.900889 
L 149.141949 261.852394 
L 151.490399 261.852394 
L 151.490399 261.328146 
L 169.422332 261.328146 
L 169.422332 260.803898 
L 177.925114 260.803898 
L 177.925114 260.279651 
L 178.085174 260.279651 
L 178.085174 259.755403 
L 184.412271 259.755403 
L 184.412271 259.231155 
L 188.375974 259.231155 
L 188.375974 258.18266 
L 201.313618 258.18266 
L 201.313618 257.658412 
L 205.501906 257.658412 
L 205.501906 257.134164 
L 214.7032 257.134164 
L 214.7032 256.609917 
L 217.913808 256.609917 
L 217.913808 256.085669 
L 219.425895 256.085669 
L 219.514345 255.037173 
L 220.21956 255.037173 
L 220.21956 253.988678 
L 222.959364 253.988678 
L 222.959364 253.46443 
L 224.04105 253.46443 
L 224.04105 252.940182 
L 225.426131 252.940182 
L 225.426131 252.415935 
L 234.645153 252.415935 
L 234.645153 251.891687 
L 234.818659 251.891687 
L 234.818659 251.367439 
L 235.596478 251.367439 
L 235.596478 250.843192 
L 245.681145 250.843192 
L 245.681145 250.318944 
L 246.923844 250.318944 
L 246.923844 249.794696 
L 254.71735 249.794696 
L 254.723058 248.746201 
L 260.844814 248.746201 
L 260.844814 248.221953 
L 264.784304 248.221953 
L 264.784304 247.173458 
L 265.488441 247.173458 
L 265.488441 246.124962 
L 265.699987 246.124962 
L 265.754372 245.076467 
L 268.944073 245.076467 
L 268.965236 244.027971 
L 271.196106 244.027971 
L 271.196106 242.455228 
L 273.205549 242.455228 
L 273.205549 241.406733 
L 276.131596 241.406733 
L 276.131596 240.358237 
L 292.013778 240.358237 
L 292.013778 239.83399 
L 293.986438 239.83399 
L 294.091756 238.785494 
L 296.183073 238.785494 
L 296.183097 237.736999 
L 296.846547 237.736999 
L 296.846547 237.212751 
L 296.987177 237.212751 
L 296.987177 236.688503 
L 302.221348 236.688503 
L 302.221348 236.164255 
L 305.843622 236.164255 
L 305.843622 235.640008 
L 306.256074 235.640008 
L 306.256074 235.11576 
L 306.598254 235.11576 
L 306.598254 234.591512 
L 306.964795 234.591512 
L 306.977079 233.018769 
L 315.995724 233.018769 
L 315.995724 232.494521 
L 318.288578 232.494521 
L 318.294941 231.446026 
L 325.059199 231.446026 
L 325.063497 230.397531 
L 326.359167 230.397531 
L 326.359167 229.873283 
L 327.655924 229.873283 
L 327.655924 229.349035 
L 328.776122 229.349035 
L 328.776122 228.824787 
L 329.908371 228.824787 
L 329.908371 228.30054 
L 331.999871 228.30054 
L 331.999871 227.776292 
L 333.429677 227.776292 
L 333.429677 227.776292 
" style="fill:none;stroke:#ff00ff;stroke-linecap:square;stroke-width:1.5;"/>
   </g>
   <g id="line2d_35">
    <defs>
     <path d="M -0 8.485281 
L 5.091169 0 
L 0 -8.485281 
L -5.091169 -0 
z
" id="mf5fb683e2d" style="stroke:#ff00ff;stroke-linejoin:miter;stroke-width:1.5;"/>
    </defs>
    <g>
     <use style="fill-opacity:0;stroke:#ff00ff;stroke-linejoin:miter;stroke-width:1.5;" x="128.124067" xlink:href="#mf5fb683e2d" y="265.522128"/>
     <use style="fill-opacity:0;stroke:#ff00ff;stroke-linejoin:miter;stroke-width:1.5;" x="201.313618" xlink:href="#mf5fb683e2d" y="257.658412"/>
     <use style="fill-opacity:0;stroke:#ff00ff;stroke-linejoin:miter;stroke-width:1.5;" x="268.965236" xlink:href="#mf5fb683e2d" y="244.552219"/>
     <use style="fill-opacity:0;stroke:#ff00ff;stroke-linejoin:miter;stroke-width:1.5;" x="331.999871" xlink:href="#mf5fb683e2d" y="227.776292"/>
     <use style="fill-opacity:0;stroke:#ff00ff;stroke-linejoin:miter;stroke-width:1.5;" x="333.429677" xlink:href="#mf5fb683e2d" y="227.776292"/>
    </g>
   </g>
   <g id="line2d_36">
    <path style="fill:none;stroke:#ff00ff;stroke-linecap:square;stroke-width:1.5;"/>
    <g/>
   </g>
   <g id="line2d_37">
    <path clip-path="url(#pa3a6716d7e)" d="M 293.814025 239.83399 
" style="fill:none;stroke:#ff00ff;stroke-linecap:square;stroke-width:1.5;"/>
    <defs>
     <path d="M -12 12 
L 12 -12 
M -12 -12 
L 12 12 
" id="m843068a06a" style="stroke:#ff00ff;stroke-width:3;"/>
    </defs>
    <g clip-path="url(#pa3a6716d7e)">
     <use style="fill:#ff00ff;stroke:#ff00ff;stroke-width:3;" x="293.814025" xlink:href="#m843068a06a" y="239.83399"/>
    </g>
   </g>
   <g id="line2d_38">
    <defs>
     <path d="M 0 1.5 
C 0.397805 1.5 0.77937 1.341951 1.06066 1.06066 
C 1.341951 0.77937 1.5 0.397805 1.5 0 
C 1.5 -0.397805 1.341951 -0.77937 1.06066 -1.06066 
C 0.77937 -1.341951 0.397805 -1.5 0 -1.5 
C -0.397805 -1.5 -0.77937 -1.341951 -1.06066 -1.06066 
C -1.341951 -0.77937 -1.5 -0.397805 -1.5 0 
C -1.5 0.397805 -1.341951 0.77937 -1.06066 1.06066 
C -0.77937 1.341951 -0.397805 1.5 0 1.5 
z
" id="m26d7f97cfc" style="stroke:#ffa500;"/>
    </defs>
    <g>
     <use style="fill:#ffa500;stroke:#ffa500;" x="323.944596" xlink:href="#m26d7f97cfc" y="153.333116"/>
     <use style="fill:#ffa500;stroke:#ffa500;" x="323.944596" xlink:href="#m26d7f97cfc" y="153.333116"/>
    </g>
   </g>
   <g id="line2d_39">
    <path d="M 16.504332 294.88 
L 16.504332 283.870798 
L 28.429836 283.870798 
L 28.429836 278.628321 
L 35.405809 278.628321 
L 35.405809 276.53133 
L 40.355341 276.53133 
L 40.355341 276.007082 
L 44.194496 276.007082 
L 44.194496 274.434339 
L 47.331314 274.434339 
L 47.331314 273.910091 
L 49.983455 273.910091 
L 49.983455 271.8131 
L 64.20635 271.8131 
L 64.20635 271.288853 
L 76.661276 271.288853 
L 76.661276 269.716109 
L 81.610808 269.716109 
L 81.610808 268.667614 
L 83.810164 268.667614 
L 83.810164 267.619119 
L 89.843168 267.619119 
L 89.843168 267.094871 
L 90.555195 267.094871 
L 90.555195 266.046375 
L 97.989992 266.046375 
L 97.989992 265.522128 
L 105.363783 265.522128 
L 105.363783 264.473632 
L 105.943777 264.473632 
L 105.943777 263.949385 
L 109.610977 263.949385 
L 109.610977 263.425137 
L 118.973716 263.425137 
L 118.973716 261.852394 
L 126.505205 261.852394 
L 126.505205 260.803898 
L 126.818807 260.803898 
L 126.818807 260.279651 
L 149.072341 260.279651 
L 149.072341 259.231155 
L 151.402636 259.231155 
L 151.402636 258.706907 
L 158.656113 258.706907 
L 158.656113 258.18266 
L 159.618784 258.18266 
L 159.618784 257.134164 
L 164.07968 257.134164 
L 164.07968 256.609917 
L 168.186908 256.609917 
L 168.186908 256.085669 
L 170.261195 256.085669 
L 170.261195 255.037173 
L 170.88528 255.037173 
L 170.88528 254.512926 
L 171.646842 254.512926 
L 171.646842 253.988678 
L 172.752001 253.988678 
L 172.752001 253.46443 
L 175.110922 253.46443 
L 175.110922 252.940182 
L 175.284075 252.940182 
L 175.284075 252.415935 
L 176.973553 252.415935 
L 176.973553 251.891687 
L 178.213868 251.891687 
L 178.213868 251.367439 
L 178.720611 251.367439 
L 178.786879 249.794696 
L 182.821686 249.794696 
L 182.821686 248.746201 
L 184.88176 248.746201 
L 184.88176 248.221953 
L 186.950049 248.221953 
L 186.950049 247.697705 
L 187.077325 247.697705 
L 187.077325 247.173458 
L 187.446938 247.173458 
L 187.446938 246.124962 
L 191.171262 246.124962 
L 191.171262 245.600714 
L 191.296918 245.600714 
L 191.296918 244.027971 
L 191.908581 244.027971 
L 191.908581 242.979476 
L 192.455094 242.979476 
L 192.455094 242.455228 
L 194.818973 242.455228 
L 194.818973 241.93098 
L 196.563337 241.93098 
L 196.563337 240.358237 
L 196.749153 240.358237 
L 196.749153 239.83399 
L 197.024883 239.83399 
L 197.117719 237.212751 
L 197.352091 237.212751 
L 197.437591 236.164255 
L 198.883697 236.164255 
L 198.883697 235.640008 
L 199.51388 235.640008 
L 199.51388 235.11576 
L 200.964849 235.11576 
L 201.011863 231.970274 
L 201.113414 231.970274 
L 201.113414 231.446026 
L 201.57503 231.446026 
L 201.57503 230.921778 
L 202.621345 230.921778 
L 202.621345 229.873283 
L 202.737499 229.873283 
L 202.737499 229.349035 
L 204.561751 229.349035 
L 204.561751 228.824787 
L 205.303902 228.824787 
L 205.303902 227.776292 
L 205.804879 227.776292 
L 205.866381 226.727797 
L 205.949558 226.727797 
L 205.949558 226.203549 
L 206.53427 226.203549 
L 206.53427 225.679301 
L 206.702369 225.679301 
L 206.784588 224.630806 
L 207.216841 224.630806 
L 207.216841 223.58231 
L 207.71817 223.58231 
L 207.71817 223.058063 
L 208.509914 223.058063 
L 208.509914 222.533815 
L 209.678045 222.533815 
L 209.73743 221.485319 
L 210.392641 221.485319 
L 210.448083 219.912576 
L 210.872927 219.912576 
L 210.872927 219.388328 
L 211.394922 219.388328 
L 211.448263 218.339833 
L 211.793032 218.339833 
L 211.887867 217.291338 
L 212.083744 217.291338 
L 212.083744 215.194347 
L 212.884088 215.194347 
L 212.884088 214.670099 
L 213.112535 214.670099 
L 213.112535 214.145851 
L 213.515918 214.145851 
L 213.544085 212.573108 
L 213.9829 212.573108 
L 213.9829 211.000365 
L 214.443613 211.000365 
L 214.443613 210.476117 
L 214.619109 210.476117 
L 214.619109 209.95187 
L 214.903459 209.95187 
L 214.903459 209.427622 
L 215.150258 209.427622 
L 215.150258 208.903374 
L 215.322187 208.903374 
L 215.322187 208.379126 
L 217.336905 208.379126 
L 217.336905 207.854879 
L 217.564959 207.854879 
L 217.564959 207.330631 
L 218.336418 207.330631 
L 218.336418 206.282136 
L 218.655052 206.282136 
L 218.655052 205.23364 
L 219.121742 205.23364 
L 219.121742 204.185145 
L 219.407188 204.185145 
L 219.407188 202.088154 
L 219.911573 202.088154 
L 219.911573 201.563906 
L 221.713365 201.563906 
L 221.713365 201.039658 
L 221.871324 201.039658 
L 221.886073 199.991163 
L 222.643842 199.991163 
L 222.643842 199.466915 
L 224.243985 199.466915 
L 224.333926 198.41842 
L 224.440578 198.41842 
L 224.440578 197.369924 
L 224.566519 197.369924 
L 224.566519 196.321429 
L 225.185914 196.321429 
L 225.185914 195.797181 
L 225.357011 195.797181 
L 225.357011 194.748686 
L 225.595412 194.748686 
L 225.595412 194.224438 
L 226.691121 194.224438 
L 226.691121 193.70019 
L 227.398244 193.70019 
L 227.398244 193.175943 
L 231.030323 193.175943 
L 231.030323 192.127447 
L 231.195541 192.127447 
L 231.228656 191.078952 
L 234.172387 191.078952 
L 234.172387 190.030456 
L 236.652911 190.030456 
L 236.652911 189.506209 
L 256.274322 189.506209 
L 256.274322 188.981961 
L 256.456905 188.981961 
L 256.456905 188.457713 
L 256.623186 188.457713 
L 256.623186 187.933465 
L 256.769232 187.933465 
L 256.769232 187.409218 
L 256.974212 187.409218 
L 257.026388 185.836474 
L 257.121719 185.836474 
L 257.121719 185.312227 
L 257.369649 185.312227 
L 257.453493 184.263731 
L 257.726851 184.263731 
L 257.726851 183.739484 
L 258.046591 183.739484 
L 258.046591 183.215236 
L 258.210516 183.215236 
L 258.21741 182.16674 
L 258.58872 182.16674 
L 258.58872 181.642493 
L 259.497035 181.642493 
L 259.497035 181.118245 
L 267.419092 181.118245 
L 267.419092 180.593997 
L 267.764583 180.593997 
L 267.764583 180.06975 
L 268.006119 180.06975 
L 268.006119 179.545502 
L 268.256916 179.545502 
L 268.256916 179.021254 
L 274.254666 179.021254 
L 274.358127 177.972759 
L 274.480441 177.972759 
L 274.480441 177.448511 
L 275.049403 177.448511 
L 275.053048 176.400016 
L 276.33146 176.400016 
L 276.33146 175.875768 
L 279.143458 175.875768 
L 279.148922 174.827272 
L 279.256354 174.827272 
L 279.256354 173.778777 
L 279.531856 173.778777 
L 279.531856 173.254529 
L 282.401586 173.254529 
L 282.401586 172.730281 
L 282.520412 172.730281 
L 282.520412 172.206034 
L 282.770941 172.206034 
L 282.770941 171.681786 
L 283.084553 171.681786 
L 283.084553 171.157538 
L 285.766123 171.157538 
L 285.766123 170.633291 
L 288.228045 170.633291 
L 288.314369 169.060547 
L 288.377513 169.060547 
L 288.428286 168.012052 
L 288.541849 168.012052 
L 288.541849 167.487804 
L 290.526893 167.487804 
L 290.526893 166.963557 
L 291.258879 166.963557 
L 291.258879 166.439309 
L 292.498689 166.439309 
L 292.498689 165.915061 
L 292.676004 165.915061 
L 292.676004 165.390813 
L 293.147292 165.390813 
L 293.147292 164.866566 
L 294.207299 164.866566 
L 294.207299 164.342318 
L 294.848781 164.342318 
L 294.848781 163.81807 
L 295.811714 163.81807 
L 295.811714 163.293823 
L 296.007794 163.293823 
L 296.007794 162.769575 
L 297.27919 162.769575 
L 297.27919 162.245327 
L 297.460314 162.245327 
L 297.460314 161.721079 
L 298.673826 161.721079 
L 298.673826 161.196832 
L 298.797861 161.196832 
L 298.797861 160.672584 
L 299.922735 160.672584 
L 299.922735 160.148336 
L 300.039736 160.148336 
L 300.039736 159.624089 
L 300.348387 159.624089 
L 300.348387 159.099841 
L 303.303889 159.099841 
L 303.303889 158.575593 
L 304.509338 158.575593 
L 304.509338 158.051345 
L 306.006044 158.051345 
L 306.006044 157.527098 
L 307.857391 157.527098 
L 307.857391 157.00285 
L 308.601666 157.00285 
L 308.601666 156.478602 
L 309.083471 156.478602 
L 309.098726 155.430107 
L 318.651271 155.430107 
L 318.651271 154.905859 
L 319.828534 154.905859 
L 319.828534 154.381611 
L 321.022606 154.381611 
L 321.022606 153.857364 
L 323.944596 153.857364 
L 323.944596 153.333116 
L 333.429677 153.333116 
L 333.429677 153.333116 
" style="fill:none;stroke:#ffa500;stroke-linecap:square;stroke-width:1.5;"/>
   </g>
   <g id="line2d_40">
    <defs>
     <path d="M 0 -6 
L -1.347084 -1.854102 
L -5.706339 -1.854102 
L -2.179628 0.708204 
L -3.526712 4.854102 
L -0 2.291796 
L 3.526712 4.854102 
L 2.179628 0.708204 
L 5.706339 -1.854102 
L 1.347084 -1.854102 
z
" id="m6c45003080" style="stroke:#ffa500;stroke-linejoin:bevel;stroke-width:1.5;"/>
    </defs>
    <g>
     <use style="fill-opacity:0;stroke:#ffa500;stroke-linejoin:bevel;stroke-width:1.5;" x="105.943777" xlink:href="#m6c45003080" y="264.473632"/>
     <use style="fill-opacity:0;stroke:#ffa500;stroke-linejoin:bevel;stroke-width:1.5;" x="187.077325" xlink:href="#m6c45003080" y="247.173458"/>
     <use style="fill-opacity:0;stroke:#ffa500;stroke-linejoin:bevel;stroke-width:1.5;" x="225.357011" xlink:href="#m6c45003080" y="194.748686"/>
     <use style="fill-opacity:0;stroke:#ffa500;stroke-linejoin:bevel;stroke-width:1.5;" x="323.944596" xlink:href="#m6c45003080" y="153.857364"/>
     <use style="fill-opacity:0;stroke:#ffa500;stroke-linejoin:bevel;stroke-width:1.5;" x="323.944596" xlink:href="#m6c45003080" y="153.333116"/>
     <use style="fill-opacity:0;stroke:#ffa500;stroke-linejoin:bevel;stroke-width:1.5;" x="333.429677" xlink:href="#m6c45003080" y="153.333116"/>
    </g>
   </g>
   <g id="line2d_41">
    <path style="fill:none;stroke:#ffa500;stroke-linecap:square;stroke-width:1.5;"/>
    <g/>
   </g>
   <g id="line2d_42">
    <path clip-path="url(#pa3a6716d7e)" d="M 254.198341 189.506209 
" style="fill:none;stroke:#ffa500;stroke-linecap:square;stroke-width:1.5;"/>
    <defs>
     <path d="M -12 12 
L 12 -12 
M -12 -12 
L 12 12 
" id="md19a233e0b" style="stroke:#ffa500;stroke-width:3;"/>
    </defs>
    <g clip-path="url(#pa3a6716d7e)">
     <use style="fill:#ffa500;stroke:#ffa500;stroke-width:3;" x="254.198341" xlink:href="#md19a233e0b" y="189.506209"/>
    </g>
   </g>
   <g id="line2d_43">
    <defs>
     <path d="M 0 1.5 
C 0.397805 1.5 0.77937 1.341951 1.06066 1.06066 
C 1.341951 0.77937 1.5 0.397805 1.5 0 
C 1.5 -0.397805 1.341951 -0.77937 1.06066 -1.06066 
C 0.77937 -1.341951 0.397805 -1.5 0 -1.5 
C -0.397805 -1.5 -0.77937 -1.341951 -1.06066 -1.06066 
C -1.341951 -0.77937 -1.5 -0.397805 -1.5 0 
C -1.5 0.397805 -1.341951 0.77937 -1.06066 1.06066 
C -0.77937 1.341951 -0.397805 1.5 0 1.5 
z
" id="m3c9296652e" style="stroke:#6495ed;"/>
    </defs>
    <g>
     <use style="fill:#6495ed;stroke:#6495ed;" x="322.5123" xlink:href="#m3c9296652e" y="163.81807"/>
     <use style="fill:#6495ed;stroke:#6495ed;" x="322.5123" xlink:href="#m3c9296652e" y="163.81807"/>
    </g>
   </g>
   <g id="line2d_44">
    <path d="M 16.504332 294.88 
L 16.504332 280.201064 
L 28.429836 280.201064 
L 28.429836 279.152568 
L 35.405809 279.152568 
L 35.405809 276.53133 
L 40.355341 276.53133 
L 40.355341 274.434339 
L 44.194496 274.434339 
L 44.194496 273.385844 
L 47.331314 273.385844 
L 47.331314 271.8131 
L 52.280845 271.8131 
L 52.280845 271.288853 
L 56.12 271.288853 
L 56.12 270.764605 
L 57.759799 270.764605 
L 57.759799 270.240357 
L 60.633942 270.240357 
L 60.633942 269.716109 
L 71.182322 269.716109 
L 71.182322 269.191862 
L 72.559446 269.191862 
L 72.559446 268.143366 
L 75.585622 268.143366 
L 75.585622 267.619119 
L 79.088515 267.619119 
L 79.088515 267.094871 
L 80.395842 267.094871 
L 80.395842 266.570623 
L 83.810164 266.570623 
L 83.810164 263.425137 
L 97.059773 263.425137 
L 97.059773 262.900889 
L 101.768673 262.900889 
L 101.768673 262.376641 
L 102.009304 262.376641 
L 102.009304 261.328146 
L 102.246616 261.328146 
L 102.246616 260.803898 
L 103.052343 260.803898 
L 103.052343 259.755403 
L 104.865056 259.755403 
L 104.865056 259.231155 
L 107.137126 259.231155 
L 107.137126 258.18266 
L 109.990791 258.18266 
L 109.990791 257.134164 
L 111.841029 257.134164 
L 111.841029 256.609917 
L 119.757871 256.609917 
L 119.757871 255.561421 
L 120.426105 255.561421 
L 120.426105 255.037173 
L 120.589186 255.037173 
L 120.589186 254.512926 
L 121.187329 254.512926 
L 121.187329 253.988678 
L 121.420883 253.988678 
L 121.420883 253.46443 
L 121.727437 253.46443 
L 121.727437 252.940182 
L 123.732765 252.940182 
L 123.732765 251.891687 
L 126.360746 251.891687 
L 126.360746 251.367439 
L 126.875216 251.367439 
L 126.875216 250.843192 
L 129.041877 250.843192 
L 129.066686 249.794696 
L 131.230306 249.794696 
L 131.230306 249.270448 
L 135.265096 249.270448 
L 135.265096 248.221953 
L 135.471351 248.221953 
L 135.471351 247.697705 
L 138.300751 247.697705 
L 138.300751 247.173458 
L 138.416318 247.173458 
L 138.416318 246.64921 
L 138.744311 246.64921 
L 138.744311 246.124962 
L 138.870973 246.124962 
L 138.870973 245.600714 
L 139.46359 245.600714 
L 139.46359 244.552219 
L 140.805247 244.552219 
L 140.905203 243.503724 
L 141.826896 243.503724 
L 141.826896 242.979476 
L 142.441628 242.979476 
L 142.441628 242.455228 
L 143.683245 242.455228 
L 143.683245 241.406733 
L 143.873007 241.406733 
L 143.904431 239.83399 
L 144.039944 239.83399 
L 144.039944 239.309742 
L 144.153781 239.309742 
L 144.153781 238.785494 
L 145.048133 238.785494 
L 145.048133 238.261246 
L 146.841251 238.261246 
L 146.841251 237.736999 
L 148.727919 237.736999 
L 148.727919 236.688503 
L 150.880404 236.688503 
L 150.880404 236.164255 
L 151.429688 236.164255 
L 151.429688 235.640008 
L 152.484648 235.640008 
L 152.484648 234.591512 
L 153.758303 234.591512 
L 153.758303 234.067265 
L 154.079899 234.067265 
L 154.079899 233.018769 
L 154.321496 233.018769 
L 154.321496 232.494521 
L 155.709162 232.494521 
L 155.709162 231.970274 
L 157.288976 231.970274 
L 157.288976 231.446026 
L 157.716271 231.446026 
L 157.716271 230.397531 
L 158.810814 230.397531 
L 158.810814 229.873283 
L 159.077156 229.873283 
L 159.077156 228.824787 
L 159.403324 228.824787 
L 159.403324 228.30054 
L 159.844014 228.30054 
L 159.844014 227.776292 
L 161.796631 227.776292 
L 161.796631 227.252044 
L 162.489051 227.252044 
L 162.489051 226.203549 
L 162.602381 226.203549 
L 162.602381 225.679301 
L 163.280698 225.679301 
L 163.280698 225.155053 
L 163.506571 225.155053 
L 163.506571 224.630806 
L 163.828414 224.630806 
L 163.828414 224.106558 
L 165.189854 224.106558 
L 165.189854 223.58231 
L 165.472994 223.58231 
L 165.472994 223.058063 
L 166.883408 223.058063 
L 166.883408 222.009567 
L 167.237542 222.009567 
L 167.275248 220.436824 
L 167.518346 220.436824 
L 167.518346 219.912576 
L 168.316546 219.912576 
L 168.316546 218.864081 
L 168.630214 218.864081 
L 168.630214 217.815585 
L 171.556879 217.815585 
L 171.623873 216.242842 
L 172.366114 216.242842 
L 172.366114 214.670099 
L 172.521509 214.670099 
L 172.521509 214.145851 
L 173.100681 214.145851 
L 173.100681 213.621604 
L 173.926224 213.621604 
L 173.926224 213.097356 
L 174.257497 213.097356 
L 174.257497 212.573108 
L 174.703483 212.573108 
L 174.703483 212.04886 
L 175.410292 212.04886 
L 175.410292 211.524613 
L 176.065011 211.524613 
L 176.137493 210.476117 
L 179.886401 210.476117 
L 179.886401 209.95187 
L 180.004914 209.95187 
L 180.004914 209.427622 
L 181.537947 209.427622 
L 181.617616 207.854879 
L 182.839116 207.854879 
L 182.839116 207.330631 
L 183.241574 207.330631 
L 183.241574 206.806383 
L 185.841673 206.806383 
L 185.841673 206.282136 
L 186.253677 206.282136 
L 186.253677 205.757888 
L 204.538633 205.757888 
L 204.538633 204.709392 
L 205.21635 204.709392 
L 205.21635 204.185145 
L 250.89799 204.185145 
L 250.89799 203.136649 
L 254.272643 203.136649 
L 254.366946 201.039658 
L 254.397619 201.039658 
L 254.49973 197.894172 
L 255.168666 197.894172 
L 255.168666 197.369924 
L 257.231749 197.369924 
L 257.231749 196.845677 
L 259.446523 196.845677 
L 259.446523 196.321429 
L 266.194258 196.321429 
L 266.259247 191.603199 
L 273.153717 191.603199 
L 273.190204 188.981961 
L 273.429378 188.981961 
L 273.429378 188.457713 
L 278.08979 188.457713 
L 278.13204 185.836474 
L 281.921493 185.836474 
L 281.954688 183.215236 
L 282.079373 183.215236 
L 282.079373 182.690988 
L 285.05018 182.690988 
L 285.080493 180.06975 
L 285.613964 180.06975 
L 285.613964 179.545502 
L 287.711391 179.545502 
L 287.713604 177.972759 
L 290.005344 177.972759 
L 290.01527 176.924263 
L 292.037226 176.924263 
L 292.037226 176.400016 
L 293.839314 176.400016 
L 293.843767 174.827272 
L 295.474757 174.827272 
L 295.483211 173.254529 
L 296.971917 173.254529 
L 296.977782 171.681786 
L 298.34742 171.681786 
L 298.353437 170.633291 
L 299.622377 170.633291 
L 299.622377 170.109043 
L 301.917342 170.109043 
L 301.917342 169.584795 
L 302.960908 169.584795 
L 302.960908 169.060547 
L 303.943338 169.060547 
L 303.943338 168.5363 
L 304.871322 168.5363 
L 304.871322 168.012052 
L 305.753102 168.012052 
L 305.753102 167.487804 
L 309.591612 167.487804 
L 309.591612 166.963557 
L 310.91215 166.963557 
L 310.91215 166.439309 
L 312.726273 166.439309 
L 312.726273 165.915061 
L 314.363522 165.915061 
L 314.363522 165.390813 
L 318.097745 165.390813 
L 318.097745 164.866566 
L 321.851221 164.866566 
L 321.851221 164.342318 
L 322.5123 164.342318 
L 322.5123 163.81807 
L 333.429677 163.81807 
L 333.429677 163.81807 
" style="fill:none;stroke:#6495ed;stroke-linecap:square;stroke-width:1.5;"/>
   </g>
   <g id="line2d_45">
    <defs>
     <path d="M -0 6 
L 6 -6 
L -6 -6 
z
" id="mb5bedbc876" style="stroke:#6495ed;stroke-linejoin:miter;stroke-width:1.5;"/>
    </defs>
    <g>
     <use style="fill-opacity:0;stroke:#6495ed;stroke-linejoin:miter;stroke-width:1.5;" x="104.865056" xlink:href="#mb5bedbc876" y="259.755403"/>
     <use style="fill-opacity:0;stroke:#6495ed;stroke-linejoin:miter;stroke-width:1.5;" x="165.472994" xlink:href="#mb5bedbc876" y="223.058063"/>
     <use style="fill-opacity:0;stroke:#6495ed;stroke-linejoin:miter;stroke-width:1.5;" x="205.21635" xlink:href="#mb5bedbc876" y="204.185145"/>
     <use style="fill-opacity:0;stroke:#6495ed;stroke-linejoin:miter;stroke-width:1.5;" x="314.363522" xlink:href="#mb5bedbc876" y="165.915061"/>
     <use style="fill-opacity:0;stroke:#6495ed;stroke-linejoin:miter;stroke-width:1.5;" x="322.5123" xlink:href="#mb5bedbc876" y="163.81807"/>
     <use style="fill-opacity:0;stroke:#6495ed;stroke-linejoin:miter;stroke-width:1.5;" x="333.429677" xlink:href="#mb5bedbc876" y="163.81807"/>
    </g>
   </g>
   <g id="line2d_46">
    <path style="fill:none;stroke:#6495ed;stroke-linecap:square;stroke-width:1.5;"/>
    <g/>
   </g>
   <g id="line2d_47">
    <path clip-path="url(#pa3a6716d7e)" d="M 254.198341 203.136649 
" style="fill:none;stroke:#6495ed;stroke-linecap:square;stroke-width:1.5;"/>
    <defs>
     <path d="M -12 12 
L 12 -12 
M -12 -12 
L 12 12 
" id="m714b8a6a51" style="stroke:#6495ed;stroke-width:3;"/>
    </defs>
    <g clip-path="url(#pa3a6716d7e)">
     <use style="fill:#6495ed;stroke:#6495ed;stroke-width:3;" x="254.198341" xlink:href="#m714b8a6a51" y="203.136649"/>
    </g>
   </g>
   <g id="line2d_48">
    <defs>
     <path d="M 0 1.5 
C 0.397805 1.5 0.77937 1.341951 1.06066 1.06066 
C 1.341951 0.77937 1.5 0.397805 1.5 0 
C 1.5 -0.397805 1.341951 -0.77937 1.06066 -1.06066 
C 0.77937 -1.341951 0.397805 -1.5 0 -1.5 
C -0.397805 -1.5 -0.77937 -1.341951 -1.06066 -1.06066 
C -1.341951 -0.77937 -1.5 -0.397805 -1.5 0 
C -1.5 0.397805 -1.341951 0.77937 -1.06066 1.06066 
C -0.77937 1.341951 -0.397805 1.5 0 1.5 
z
" id="mfa5482d213" style="stroke:#ff0000;"/>
    </defs>
    <g>
     <use style="fill:#ff0000;stroke:#ff0000;" x="269.265215" xlink:href="#mfa5482d213" y="258.18266"/>
     <use style="fill:#ff0000;stroke:#ff0000;" x="269.265215" xlink:href="#mfa5482d213" y="258.18266"/>
    </g>
   </g>
   <g id="line2d_49">
    <path d="M 16.504332 294.88 
L 16.504332 280.201064 
L 35.405809 280.201064 
L 35.405809 279.152568 
L 56.12 279.152568 
L 56.12 278.628321 
L 61.90896 278.628321 
L 61.90896 277.579825 
L 65.249388 277.579825 
L 65.249388 277.055578 
L 73.834464 277.055578 
L 73.834464 276.007082 
L 84.150865 276.007082 
L 84.150865 274.958587 
L 102.128369 274.958587 
L 102.128369 274.434339 
L 114.406204 274.434339 
L 114.406204 273.910091 
L 120.136941 273.910091 
L 120.136941 273.385844 
L 126.18578 273.385844 
L 126.18578 272.337348 
L 187.661335 272.337348 
L 187.661335 271.8131 
L 203.589416 271.8131 
L 203.589416 270.240357 
L 214.583017 270.240357 
L 214.583017 269.716109 
L 214.583361 269.716109 
L 214.583361 269.191862 
L 214.583533 269.191862 
L 214.583533 268.667614 
L 214.585769 268.667614 
L 214.585769 268.143366 
L 214.607774 268.143366 
L 214.607774 267.619119 
L 214.607945 267.619119 
L 214.607945 267.094871 
L 217.204606 267.094871 
L 217.204606 266.570623 
L 220.106364 266.570623 
L 220.106364 266.046375 
L 220.106738 266.046375 
L 220.106738 264.99788 
L 226.52099 264.99788 
L 226.52099 264.473632 
L 226.558771 264.473632 
L 226.558771 263.949385 
L 226.559114 263.949385 
L 226.559114 263.425137 
L 228.219462 263.425137 
L 228.219462 262.900889 
L 230.538003 262.900889 
L 230.538003 262.376641 
L 230.607624 262.376641 
L 230.607624 261.852394 
L 246.462568 261.852394 
L 246.462568 261.328146 
L 250.372214 261.328146 
L 250.372214 260.803898 
L 254.208867 260.803898 
L 254.208867 260.279651 
L 259.994882 260.279651 
L 259.994882 259.755403 
L 263.334043 259.755403 
L 263.334043 259.231155 
L 266.12935 259.231155 
L 266.12935 258.706907 
L 269.265215 258.706907 
L 269.265215 258.18266 
L 333.429677 258.18266 
" style="fill:none;stroke:#ff0000;stroke-linecap:square;stroke-width:1.5;"/>
   </g>
   <g id="line2d_50">
    <defs>
     <path d="M 0 -6 
L -5.196152 -3 
L -5.196152 3 
L -0 6 
L 5.196152 3 
L 5.196152 -3 
z
" id="m40d3a50a8f" style="stroke:#ff0000;stroke-linejoin:miter;stroke-width:1.5;"/>
    </defs>
    <g>
     <use style="fill-opacity:0;stroke:#ff0000;stroke-linejoin:miter;stroke-width:1.5;" x="73.834464" xlink:href="#m40d3a50a8f" y="276.007082"/>
     <use style="fill-opacity:0;stroke:#ff0000;stroke-linejoin:miter;stroke-width:1.5;" x="126.18578" xlink:href="#m40d3a50a8f" y="273.385844"/>
     <use style="fill-opacity:0;stroke:#ff0000;stroke-linejoin:miter;stroke-width:1.5;" x="230.607624" xlink:href="#m40d3a50a8f" y="262.376641"/>
     <use style="fill-opacity:0;stroke:#ff0000;stroke-linejoin:miter;stroke-width:1.5;" x="269.265215" xlink:href="#m40d3a50a8f" y="258.18266"/>
     <use style="fill-opacity:0;stroke:#ff0000;stroke-linejoin:miter;stroke-width:1.5;" x="269.265215" xlink:href="#m40d3a50a8f" y="258.18266"/>
     <use style="fill-opacity:0;stroke:#ff0000;stroke-linejoin:miter;stroke-width:1.5;" x="333.429677" xlink:href="#m40d3a50a8f" y="258.18266"/>
    </g>
   </g>
   <g id="line2d_51">
    <path style="fill:none;stroke:#ff0000;stroke-linecap:square;stroke-width:1.5;"/>
    <g/>
   </g>
   <g id="line2d_52">
    <path clip-path="url(#pa3a6716d7e)" d="M 214.583017 269.716109 
" style="fill:none;stroke:#ff0000;stroke-linecap:square;stroke-width:1.5;"/>
    <defs>
     <path d="M -12 12 
L 12 -12 
M -12 -12 
L 12 12 
" id="m796bce31f9" style="stroke:#ff0000;stroke-width:3;"/>
    </defs>
    <g clip-path="url(#pa3a6716d7e)">
     <use style="fill:#ff0000;stroke:#ff0000;stroke-width:3;" x="214.583017" xlink:href="#m796bce31f9" y="269.716109"/>
    </g>
   </g>
   <g id="line2d_53">
    <defs>
     <path d="M 0 1.5 
C 0.397805 1.5 0.77937 1.341951 1.06066 1.06066 
C 1.341951 0.77937 1.5 0.397805 1.5 0 
C 1.5 -0.397805 1.341951 -0.77937 1.06066 -1.06066 
C 0.77937 -1.341951 0.397805 -1.5 0 -1.5 
C -0.397805 -1.5 -0.77937 -1.341951 -1.06066 -1.06066 
C -1.341951 -0.77937 -1.5 -0.397805 -1.5 0 
C -1.5 0.397805 -1.341951 0.77937 -1.06066 1.06066 
C -0.77937 1.341951 -0.397805 1.5 0 1.5 
z
" id="m97fd42cd86" style="stroke:#9acd32;"/>
    </defs>
    <g>
     <use style="fill:#9acd32;stroke:#9acd32;" x="150.880404" xlink:href="#m97fd42cd86" y="258.18266"/>
     <use style="fill:#9acd32;stroke:#9acd32;" x="150.880404" xlink:href="#m97fd42cd86" y="258.18266"/>
    </g>
   </g>
   <g id="line2d_54">
    <path d="M 16.504332 294.88 
L 16.504332 269.716109 
L 35.405809 269.716109 
L 35.405809 269.191862 
L 40.355341 269.191862 
L 40.355341 268.667614 
L 47.331314 268.667614 
L 47.331314 268.143366 
L 59.256818 268.143366 
L 59.256818 267.619119 
L 80.810437 267.619119 
L 80.810437 266.570623 
L 82.745606 266.570623 
L 82.745606 266.046375 
L 90.321112 266.046375 
L 90.321112 264.99788 
L 92.529893 264.99788 
L 92.529893 263.949385 
L 108.169728 263.949385 
L 108.169728 263.425137 
L 108.582334 263.425137 
L 108.582334 262.900889 
L 111.29262 262.900889 
L 111.29262 262.376641 
L 111.637419 262.376641 
L 111.637419 261.852394 
L 118.4763 261.852394 
L 118.4763 261.328146 
L 125.979378 261.328146 
L 125.979378 260.279651 
L 137.815661 260.279651 
L 137.815661 259.755403 
L 140.628914 259.755403 
L 140.628914 259.231155 
L 141.636916 259.231155 
L 141.636916 258.706907 
L 150.880404 258.706907 
L 150.880404 258.18266 
L 333.429677 258.18266 
" style="fill:none;stroke:#9acd32;stroke-linecap:square;stroke-width:1.5;"/>
   </g>
   <g id="line2d_55">
    <defs>
     <path d="M 0 -6 
L -6 6 
L 6 6 
z
" id="m08ed9f0865" style="stroke:#9acd32;stroke-linejoin:miter;stroke-width:1.5;"/>
    </defs>
    <g>
     <use style="fill-opacity:0;stroke:#9acd32;stroke-linejoin:miter;stroke-width:1.5;" x="80.810437" xlink:href="#m08ed9f0865" y="266.570623"/>
     <use style="fill-opacity:0;stroke:#9acd32;stroke-linejoin:miter;stroke-width:1.5;" x="150.880404" xlink:href="#m08ed9f0865" y="258.706907"/>
     <use style="fill-opacity:0;stroke:#9acd32;stroke-linejoin:miter;stroke-width:1.5;" x="150.880404" xlink:href="#m08ed9f0865" y="258.18266"/>
     <use style="fill-opacity:0;stroke:#9acd32;stroke-linejoin:miter;stroke-width:1.5;" x="150.880404" xlink:href="#m08ed9f0865" y="258.18266"/>
     <use style="fill-opacity:0;stroke:#9acd32;stroke-linejoin:miter;stroke-width:1.5;" x="150.880404" xlink:href="#m08ed9f0865" y="258.18266"/>
     <use style="fill-opacity:0;stroke:#9acd32;stroke-linejoin:miter;stroke-width:1.5;" x="333.429677" xlink:href="#m08ed9f0865" y="258.18266"/>
    </g>
   </g>
   <g id="line2d_56">
    <path style="fill:none;stroke:#9acd32;stroke-linecap:square;stroke-width:1.5;"/>
    <g/>
   </g>
   <g id="line2d_57">
    <path clip-path="url(#pa3a6716d7e)" d="M 80.395842 267.619119 
" style="fill:none;stroke:#9acd32;stroke-linecap:square;stroke-width:1.5;"/>
    <defs>
     <path d="M -12 12 
L 12 -12 
M -12 -12 
L 12 12 
" id="m8fcd5b719b" style="stroke:#9acd32;stroke-width:3;"/>
    </defs>
    <g clip-path="url(#pa3a6716d7e)">
     <use style="fill:#9acd32;stroke:#9acd32;stroke-width:3;" x="80.395842" xlink:href="#m8fcd5b719b" y="267.619119"/>
    </g>
   </g>
   <g id="line2d_58">
    <path d="M 333.429677 258.18266 
L 363.933742 289.532673 
" style="fill:none;stroke:#ff0000;stroke-linecap:square;stroke-width:1.5;"/>
    <g>
     <use style="fill-opacity:0;stroke:#ff0000;stroke-linejoin:miter;stroke-width:1.5;" x="333.429677" xlink:href="#m40d3a50a8f" y="258.18266"/>
     <use style="fill-opacity:0;stroke:#ff0000;stroke-linejoin:miter;stroke-width:1.5;" x="363.933742" xlink:href="#m40d3a50a8f" y="289.532673"/>
    </g>
   </g>
   <g id="line2d_59">
    <path d="M 333.429677 258.18266 
L 363.933742 246.754059 
" style="fill:none;stroke:#9acd32;stroke-linecap:square;stroke-width:1.5;"/>
    <g>
     <use style="fill-opacity:0;stroke:#9acd32;stroke-linejoin:miter;stroke-width:1.5;" x="333.429677" xlink:href="#m08ed9f0865" y="258.18266"/>
     <use style="fill-opacity:0;stroke:#9acd32;stroke-linejoin:miter;stroke-width:1.5;" x="363.933742" xlink:href="#m08ed9f0865" y="246.754059"/>
    </g>
   </g>
   <g id="line2d_60">
    <path d="M 333.429677 227.776292 
L 363.933742 203.975446 
" style="fill:none;stroke:#ff00ff;stroke-linecap:square;stroke-width:1.5;"/>
    <g>
     <use style="fill-opacity:0;stroke:#ff00ff;stroke-linejoin:miter;stroke-width:1.5;" x="333.429677" xlink:href="#mf5fb683e2d" y="227.776292"/>
     <use style="fill-opacity:0;stroke:#ff00ff;stroke-linejoin:miter;stroke-width:1.5;" x="363.933742" xlink:href="#mf5fb683e2d" y="203.975446"/>
    </g>
   </g>
   <g id="line2d_61">
    <path d="M 333.429677 163.81807 
L 363.933742 161.196832 
" style="fill:none;stroke:#6495ed;stroke-linecap:square;stroke-width:1.5;"/>
    <g>
     <use style="fill-opacity:0;stroke:#6495ed;stroke-linejoin:miter;stroke-width:1.5;" x="333.429677" xlink:href="#mb5bedbc876" y="163.81807"/>
     <use style="fill-opacity:0;stroke:#6495ed;stroke-linejoin:miter;stroke-width:1.5;" x="363.933742" xlink:href="#mb5bedbc876" y="161.196832"/>
    </g>
   </g>
   <g id="line2d_62">
    <path d="M 333.429677 153.333116 
L 363.933742 118.418218 
" style="fill:none;stroke:#000080;stroke-linecap:square;stroke-width:1.5;"/>
    <g>
     <use style="fill-opacity:0;stroke:#000080;stroke-width:1.5;" x="333.429677" xlink:href="#m23ddeb4e72" y="153.333116"/>
     <use style="fill-opacity:0;stroke:#000080;stroke-width:1.5;" x="363.933742" xlink:href="#m23ddeb4e72" y="118.418218"/>
    </g>
   </g>
   <g id="line2d_63">
    <path d="M 333.429677 153.333116 
L 363.933742 75.639604 
" style="fill:none;stroke:#ffa500;stroke-linecap:square;stroke-width:1.5;"/>
    <g>
     <use style="fill-opacity:0;stroke:#ffa500;stroke-linejoin:bevel;stroke-width:1.5;" x="333.429677" xlink:href="#m6c45003080" y="153.333116"/>
     <use style="fill-opacity:0;stroke:#ffa500;stroke-linejoin:bevel;stroke-width:1.5;" x="363.933742" xlink:href="#m6c45003080" y="75.639604"/>
    </g>
   </g>
   <g id="line2d_64">
    <path d="M 333.429677 294.88 
L 333.429677 27.513663 
" style="fill:none;stroke:#000000;stroke-linecap:square;stroke-width:1.5;"/>
   </g>
   <g id="patch_3">
    <path d="M 56.12 294.88 
L 56.12 24.84 
" style="fill:none;stroke:#000000;stroke-linecap:square;stroke-linejoin:miter;stroke-width:0.8;"/>
   </g>
   <g id="patch_4">
    <path d="M 399.984 294.88 
L 399.984 24.84 
" style="fill:none;stroke:#000000;stroke-linecap:square;stroke-linejoin:miter;stroke-width:0.8;"/>
   </g>
   <g id="patch_5">
    <path d="M 56.12 294.88 
L 399.984 294.88 
" style="fill:none;stroke:#000000;stroke-linecap:square;stroke-linejoin:miter;stroke-width:0.8;"/>
   </g>
   <g id="patch_6">
    <path d="M 56.12 24.84 
L 399.984 24.84 
" style="fill:none;stroke:#000000;stroke-linecap:square;stroke-linejoin:miter;stroke-width:0.8;"/>
   </g>
   <g id="text_14">
    <!-- Rosenbroc -->
    <defs>
     <path d="M 44.390625 34.1875 
Q 47.5625 33.109375 50.5625 29.59375 
Q 53.5625 26.078125 56.59375 19.921875 
L 66.609375 0 
L 56 0 
L 46.6875 18.703125 
Q 43.0625 26.03125 39.671875 28.421875 
Q 36.28125 30.8125 30.421875 30.8125 
L 19.671875 30.8125 
L 19.671875 0 
L 9.8125 0 
L 9.8125 72.90625 
L 32.078125 72.90625 
Q 44.578125 72.90625 50.734375 67.671875 
Q 56.890625 62.453125 56.890625 51.90625 
Q 56.890625 45.015625 53.6875 40.46875 
Q 50.484375 35.9375 44.390625 34.1875 
z
M 19.671875 64.796875 
L 19.671875 38.921875 
L 32.078125 38.921875 
Q 39.203125 38.921875 42.84375 42.21875 
Q 46.484375 45.515625 46.484375 51.90625 
Q 46.484375 58.296875 42.84375 61.546875 
Q 39.203125 64.796875 32.078125 64.796875 
z
" id="DejaVuSans-52"/>
     <path d="M 48.6875 27.296875 
Q 48.6875 37.203125 44.609375 42.84375 
Q 40.53125 48.484375 33.40625 48.484375 
Q 26.265625 48.484375 22.1875 42.84375 
Q 18.109375 37.203125 18.109375 27.296875 
Q 18.109375 17.390625 22.1875 11.75 
Q 26.265625 6.109375 33.40625 6.109375 
Q 40.53125 6.109375 44.609375 11.75 
Q 48.6875 17.390625 48.6875 27.296875 
z
M 18.109375 46.390625 
Q 20.953125 51.265625 25.265625 53.625 
Q 29.59375 56 35.59375 56 
Q 45.5625 56 51.78125 48.09375 
Q 58.015625 40.1875 58.015625 27.296875 
Q 58.015625 14.40625 51.78125 6.484375 
Q 45.5625 -1.421875 35.59375 -1.421875 
Q 29.59375 -1.421875 25.265625 0.953125 
Q 20.953125 3.328125 18.109375 8.203125 
L 18.109375 0 
L 9.078125 0 
L 9.078125 75.984375 
L 18.109375 75.984375 
z
" id="DejaVuSans-62"/>
    </defs>
    <g transform="translate(369.479935 294.223611)scale(0.17 -0.17)">
     <use xlink:href="#DejaVuSans-52"/>
     <use x="69.419922" xlink:href="#DejaVuSans-6f"/>
     <use x="130.601562" xlink:href="#DejaVuSans-73"/>
     <use x="182.701172" xlink:href="#DejaVuSans-65"/>
     <use x="244.224609" xlink:href="#DejaVuSans-6e"/>
     <use x="307.603516" xlink:href="#DejaVuSans-62"/>
     <use x="371.080078" xlink:href="#DejaVuSans-72"/>
     <use x="412.162109" xlink:href="#DejaVuSans-6f"/>
     <use x="473.34375" xlink:href="#DejaVuSans-63"/>
    </g>
   </g>
   <g id="text_15">
    <!-- gsa outpu -->
    <g transform="translate(369.479935 251.444997)scale(0.17 -0.17)">
     <use xlink:href="#DejaVuSans-67"/>
     <use x="63.476562" xlink:href="#DejaVuSans-73"/>
     <use x="115.576172" xlink:href="#DejaVuSans-61"/>
     <use x="176.855469" xlink:href="#DejaVuSans-20"/>
     <use x="208.642578" xlink:href="#DejaVuSans-6f"/>
     <use x="269.824219" xlink:href="#DejaVuSans-75"/>
     <use x="333.203125" xlink:href="#DejaVuSans-74"/>
     <use x="372.412109" xlink:href="#DejaVuSans-70"/>
     <use x="435.888672" xlink:href="#DejaVuSans-75"/>
    </g>
   </g>
   <g id="text_16">
    <!-- DASA -->
    <defs>
     <path d="M 19.671875 64.796875 
L 19.671875 8.109375 
L 31.59375 8.109375 
Q 46.6875 8.109375 53.6875 14.9375 
Q 60.6875 21.78125 60.6875 36.53125 
Q 60.6875 51.171875 53.6875 57.984375 
Q 46.6875 64.796875 31.59375 64.796875 
z
M 9.8125 72.90625 
L 30.078125 72.90625 
Q 51.265625 72.90625 61.171875 64.09375 
Q 71.09375 55.28125 71.09375 36.53125 
Q 71.09375 17.671875 61.125 8.828125 
Q 51.171875 0 30.078125 0 
L 9.8125 0 
z
" id="DejaVuSans-44"/>
     <path d="M 34.1875 63.1875 
L 20.796875 26.90625 
L 47.609375 26.90625 
z
M 28.609375 72.90625 
L 39.796875 72.90625 
L 67.578125 0 
L 57.328125 0 
L 50.6875 18.703125 
L 17.828125 18.703125 
L 11.1875 0 
L 0.78125 0 
z
" id="DejaVuSans-41"/>
     <path d="M 53.515625 70.515625 
L 53.515625 60.890625 
Q 47.90625 63.578125 42.921875 64.890625 
Q 37.9375 66.21875 33.296875 66.21875 
Q 25.25 66.21875 20.875 63.09375 
Q 16.5 59.96875 16.5 54.203125 
Q 16.5 49.359375 19.40625 46.890625 
Q 22.3125 44.4375 30.421875 42.921875 
L 36.375 41.703125 
Q 47.40625 39.59375 52.65625 34.296875 
Q 57.90625 29 57.90625 20.125 
Q 57.90625 9.515625 50.796875 4.046875 
Q 43.703125 -1.421875 29.984375 -1.421875 
Q 24.8125 -1.421875 18.96875 -0.25 
Q 13.140625 0.921875 6.890625 3.21875 
L 6.890625 13.375 
Q 12.890625 10.015625 18.65625 8.296875 
Q 24.421875 6.59375 29.984375 6.59375 
Q 38.421875 6.59375 43.015625 9.90625 
Q 47.609375 13.234375 47.609375 19.390625 
Q 47.609375 24.75 44.3125 27.78125 
Q 41.015625 30.8125 33.5 32.328125 
L 27.484375 33.5 
Q 16.453125 35.6875 11.515625 40.375 
Q 6.59375 45.0625 6.59375 53.421875 
Q 6.59375 63.09375 13.40625 68.65625 
Q 20.21875 74.21875 32.171875 74.21875 
Q 37.3125 74.21875 42.625 73.28125 
Q 47.953125 72.359375 53.515625 70.515625 
z
" id="DejaVuSans-53"/>
    </defs>
    <g transform="translate(369.479935 208.666383)scale(0.17 -0.17)">
     <use xlink:href="#DejaVuSans-44"/>
     <use x="76.986328" xlink:href="#DejaVuSans-41"/>
     <use x="145.394531" xlink:href="#DejaVuSans-53"/>
     <use x="208.886719" xlink:href="#DejaVuSans-41"/>
    </g>
   </g>
   <g id="text_17">
    <!-- PSO -->
    <defs>
     <path d="M 19.671875 64.796875 
L 19.671875 37.40625 
L 32.078125 37.40625 
Q 38.96875 37.40625 42.71875 40.96875 
Q 46.484375 44.53125 46.484375 51.125 
Q 46.484375 57.671875 42.71875 61.234375 
Q 38.96875 64.796875 32.078125 64.796875 
z
M 9.8125 72.90625 
L 32.078125 72.90625 
Q 44.34375 72.90625 50.609375 67.359375 
Q 56.890625 61.8125 56.890625 51.125 
Q 56.890625 40.328125 50.609375 34.8125 
Q 44.34375 29.296875 32.078125 29.296875 
L 19.671875 29.296875 
L 19.671875 0 
L 9.8125 0 
z
" id="DejaVuSans-50"/>
     <path d="M 39.40625 66.21875 
Q 28.65625 66.21875 22.328125 58.203125 
Q 16.015625 50.203125 16.015625 36.375 
Q 16.015625 22.609375 22.328125 14.59375 
Q 28.65625 6.59375 39.40625 6.59375 
Q 50.140625 6.59375 56.421875 14.59375 
Q 62.703125 22.609375 62.703125 36.375 
Q 62.703125 50.203125 56.421875 58.203125 
Q 50.140625 66.21875 39.40625 66.21875 
z
M 39.40625 74.21875 
Q 54.734375 74.21875 63.90625 63.9375 
Q 73.09375 53.65625 73.09375 36.375 
Q 73.09375 19.140625 63.90625 8.859375 
Q 54.734375 -1.421875 39.40625 -1.421875 
Q 24.03125 -1.421875 14.8125 8.828125 
Q 5.609375 19.09375 5.609375 36.375 
Q 5.609375 53.65625 14.8125 63.9375 
Q 24.03125 74.21875 39.40625 74.21875 
z
" id="DejaVuSans-4f"/>
    </defs>
    <g transform="translate(369.479935 165.887769)scale(0.17 -0.17)">
     <use xlink:href="#DejaVuSans-50"/>
     <use x="60.302734" xlink:href="#DejaVuSans-53"/>
     <use x="123.779297" xlink:href="#DejaVuSans-4f"/>
    </g>
   </g>
   <g id="text_18">
    <!-- ALPS -->
    <defs>
     <path d="M 9.8125 72.90625 
L 19.671875 72.90625 
L 19.671875 8.296875 
L 55.171875 8.296875 
L 55.171875 0 
L 9.8125 0 
z
" id="DejaVuSans-4c"/>
    </defs>
    <g transform="translate(369.479935 123.109155)scale(0.17 -0.17)">
     <use xlink:href="#DejaVuSans-41"/>
     <use x="68.408203" xlink:href="#DejaVuSans-4c"/>
     <use x="124.121094" xlink:href="#DejaVuSans-50"/>
     <use x="184.423828" xlink:href="#DejaVuSans-53"/>
    </g>
   </g>
   <g id="text_19">
    <!-- GA -->
    <defs>
     <path d="M 59.515625 10.40625 
L 59.515625 29.984375 
L 43.40625 29.984375 
L 43.40625 38.09375 
L 69.28125 38.09375 
L 69.28125 6.78125 
Q 63.578125 2.734375 56.6875 0.65625 
Q 49.8125 -1.421875 42 -1.421875 
Q 24.90625 -1.421875 15.25 8.5625 
Q 5.609375 18.5625 5.609375 36.375 
Q 5.609375 54.25 15.25 64.234375 
Q 24.90625 74.21875 42 74.21875 
Q 49.125 74.21875 55.546875 72.453125 
Q 61.96875 70.703125 67.390625 67.28125 
L 67.390625 56.78125 
Q 61.921875 61.421875 55.765625 63.765625 
Q 49.609375 66.109375 42.828125 66.109375 
Q 29.4375 66.109375 22.71875 58.640625 
Q 16.015625 51.171875 16.015625 36.375 
Q 16.015625 21.625 22.71875 14.15625 
Q 29.4375 6.6875 42.828125 6.6875 
Q 48.046875 6.6875 52.140625 7.59375 
Q 56.25 8.5 59.515625 10.40625 
z
" id="DejaVuSans-47"/>
    </defs>
    <g transform="translate(369.479935 80.330541)scale(0.17 -0.17)">
     <use xlink:href="#DejaVuSans-47"/>
     <use x="77.490234" xlink:href="#DejaVuSans-41"/>
    </g>
   </g>
   <g id="text_20">
    <!-- best 2009 -->
    <defs>
     <path d="M 10.984375 1.515625 
L 10.984375 10.5 
Q 14.703125 8.734375 18.5 7.8125 
Q 22.3125 6.890625 25.984375 6.890625 
Q 35.75 6.890625 40.890625 13.453125 
Q 46.046875 20.015625 46.78125 33.40625 
Q 43.953125 29.203125 39.59375 26.953125 
Q 35.25 24.703125 29.984375 24.703125 
Q 19.046875 24.703125 12.671875 31.3125 
Q 6.296875 37.9375 6.296875 49.421875 
Q 6.296875 60.640625 12.9375 67.421875 
Q 19.578125 74.21875 30.609375 74.21875 
Q 43.265625 74.21875 49.921875 64.515625 
Q 56.59375 54.828125 56.59375 36.375 
Q 56.59375 19.140625 48.40625 8.859375 
Q 40.234375 -1.421875 26.421875 -1.421875 
Q 22.703125 -1.421875 18.890625 -0.6875 
Q 15.09375 0.046875 10.984375 1.515625 
z
M 30.609375 32.421875 
Q 37.25 32.421875 41.125 36.953125 
Q 45.015625 41.5 45.015625 49.421875 
Q 45.015625 57.28125 41.125 61.84375 
Q 37.25 66.40625 30.609375 66.40625 
Q 23.96875 66.40625 20.09375 61.84375 
Q 16.21875 57.28125 16.21875 49.421875 
Q 16.21875 41.5 20.09375 36.953125 
Q 23.96875 32.421875 30.609375 32.421875 
z
" id="DejaVuSans-39"/>
    </defs>
    <g transform="translate(369.479935 37.551928)scale(0.17 -0.17)">
     <use xlink:href="#DejaVuSans-62"/>
     <use x="63.476562" xlink:href="#DejaVuSans-65"/>
     <use x="125" xlink:href="#DejaVuSans-73"/>
     <use x="177.099609" xlink:href="#DejaVuSans-74"/>
     <use x="216.308594" xlink:href="#DejaVuSans-20"/>
     <use x="248.095703" xlink:href="#DejaVuSans-32"/>
     <use x="311.71875" xlink:href="#DejaVuSans-30"/>
     <use x="375.341797" xlink:href="#DejaVuSans-30"/>
     <use x="438.964844" xlink:href="#DejaVuSans-39"/>
    </g>
   </g>
   <g id="text_21">
    <!-- bbob f17, 10-D -->
    <defs>
     <path d="M 8.203125 72.90625 
L 55.078125 72.90625 
L 55.078125 68.703125 
L 28.609375 0 
L 18.3125 0 
L 43.21875 64.59375 
L 8.203125 64.59375 
z
" id="DejaVuSans-37"/>
    </defs>
    <g transform="translate(59.55864 35.290806)scale(0.102 -0.102)">
     <use xlink:href="#DejaVuSans-62"/>
     <use x="63.476562" xlink:href="#DejaVuSans-62"/>
     <use x="126.953125" xlink:href="#DejaVuSans-6f"/>
     <use x="188.134766" xlink:href="#DejaVuSans-62"/>
     <use x="251.611328" xlink:href="#DejaVuSans-20"/>
     <use x="283.398438" xlink:href="#DejaVuSans-66"/>
     <use x="318.603516" xlink:href="#DejaVuSans-31"/>
     <use x="382.226562" xlink:href="#DejaVuSans-37"/>
     <use x="445.849609" xlink:href="#DejaVuSans-2c"/>
     <use x="477.636719" xlink:href="#DejaVuSans-20"/>
     <use x="509.423828" xlink:href="#DejaVuSans-31"/>
     <use x="573.046875" xlink:href="#DejaVuSans-30"/>
     <use x="636.669922" xlink:href="#DejaVuSans-2d"/>
     <use x="672.753906" xlink:href="#DejaVuSans-44"/>
    </g>
    <!-- 51 targets: 100..1e-08 -->
    <defs>
     <path d="M 10.796875 72.90625 
L 49.515625 72.90625 
L 49.515625 64.59375 
L 19.828125 64.59375 
L 19.828125 46.734375 
Q 21.96875 47.46875 24.109375 47.828125 
Q 26.265625 48.1875 28.421875 48.1875 
Q 40.625 48.1875 47.75 41.5 
Q 54.890625 34.8125 54.890625 23.390625 
Q 54.890625 11.625 47.5625 5.09375 
Q 40.234375 -1.421875 26.90625 -1.421875 
Q 22.3125 -1.421875 17.546875 -0.640625 
Q 12.796875 0.140625 7.71875 1.703125 
L 7.71875 11.625 
Q 12.109375 9.234375 16.796875 8.0625 
Q 21.484375 6.890625 26.703125 6.890625 
Q 35.15625 6.890625 40.078125 11.328125 
Q 45.015625 15.765625 45.015625 23.390625 
Q 45.015625 31 40.078125 35.4375 
Q 35.15625 39.890625 26.703125 39.890625 
Q 22.75 39.890625 18.8125 39.015625 
Q 14.890625 38.140625 10.796875 36.28125 
z
" id="DejaVuSans-35"/>
     <path d="M 11.71875 12.40625 
L 22.015625 12.40625 
L 22.015625 0 
L 11.71875 0 
z
M 11.71875 51.703125 
L 22.015625 51.703125 
L 22.015625 39.3125 
L 11.71875 39.3125 
z
" id="DejaVuSans-3a"/>
    </defs>
    <g transform="translate(59.55864 46.712575)scale(0.102 -0.102)">
     <use xlink:href="#DejaVuSans-35"/>
     <use x="63.623047" xlink:href="#DejaVuSans-31"/>
     <use x="127.246094" xlink:href="#DejaVuSans-20"/>
     <use x="159.033203" xlink:href="#DejaVuSans-74"/>
     <use x="198.242188" xlink:href="#DejaVuSans-61"/>
     <use x="259.521484" xlink:href="#DejaVuSans-72"/>
     <use x="300.619141" xlink:href="#DejaVuSans-67"/>
     <use x="364.095703" xlink:href="#DejaVuSans-65"/>
     <use x="425.619141" xlink:href="#DejaVuSans-74"/>
     <use x="464.828125" xlink:href="#DejaVuSans-73"/>
     <use x="516.927734" xlink:href="#DejaVuSans-3a"/>
     <use x="550.619141" xlink:href="#DejaVuSans-20"/>
     <use x="582.40625" xlink:href="#DejaVuSans-31"/>
     <use x="646.029297" xlink:href="#DejaVuSans-30"/>
     <use x="709.652344" xlink:href="#DejaVuSans-30"/>
     <use x="773.275391" xlink:href="#DejaVuSans-2e"/>
     <use x="805.0625" xlink:href="#DejaVuSans-2e"/>
     <use x="836.849609" xlink:href="#DejaVuSans-31"/>
     <use x="900.472656" xlink:href="#DejaVuSans-65"/>
     <use x="961.996094" xlink:href="#DejaVuSans-2d"/>
     <use x="998.080078" xlink:href="#DejaVuSans-30"/>
     <use x="1061.703125" xlink:href="#DejaVuSans-38"/>
    </g>
    <!-- 15 instances -->
    <g transform="translate(59.55864 58.134344)scale(0.102 -0.102)">
     <use xlink:href="#DejaVuSans-31"/>
     <use x="63.623047" xlink:href="#DejaVuSans-35"/>
     <use x="127.246094" xlink:href="#DejaVuSans-20"/>
     <use x="159.033203" xlink:href="#DejaVuSans-69"/>
     <use x="186.816406" xlink:href="#DejaVuSans-6e"/>
     <use x="250.195312" xlink:href="#DejaVuSans-73"/>
     <use x="302.294922" xlink:href="#DejaVuSans-74"/>
     <use x="341.503906" xlink:href="#DejaVuSans-61"/>
     <use x="402.783203" xlink:href="#DejaVuSans-6e"/>
     <use x="466.162109" xlink:href="#DejaVuSans-63"/>
     <use x="521.142578" xlink:href="#DejaVuSans-65"/>
     <use x="582.666016" xlink:href="#DejaVuSans-73"/>
    </g>
   </g>
   <g id="text_22">
    <!-- v-coco-version -->
    <g style="fill:#808080;" transform="translate(191.556688 290.099912)scale(0.1 -0.1)">
     <use xlink:href="#DejaVuSans-76"/>
     <use x="59.148438" xlink:href="#DejaVuSans-2d"/>
     <use x="95.232422" xlink:href="#DejaVuSans-63"/>
     <use x="150.212891" xlink:href="#DejaVuSans-6f"/>
     <use x="211.394531" xlink:href="#DejaVuSans-63"/>
     <use x="266.375" xlink:href="#DejaVuSans-6f"/>
     <use x="327.572266" xlink:href="#DejaVuSans-2d"/>
     <use x="363.625" xlink:href="#DejaVuSans-76"/>
     <use x="422.804688" xlink:href="#DejaVuSans-65"/>
     <use x="484.328125" xlink:href="#DejaVuSans-72"/>
     <use x="525.441406" xlink:href="#DejaVuSans-73"/>
     <use x="577.541016" xlink:href="#DejaVuSans-69"/>
     <use x="605.324219" xlink:href="#DejaVuSans-6f"/>
     <use x="666.505859" xlink:href="#DejaVuSans-6e"/>
    </g>
   </g>
   <g id="text_23">
    <!-- 17 Schaffer F7, condition 10 -->
    <defs>
     <path d="M 54.890625 33.015625 
L 54.890625 0 
L 45.90625 0 
L 45.90625 32.71875 
Q 45.90625 40.484375 42.875 44.328125 
Q 39.84375 48.1875 33.796875 48.1875 
Q 26.515625 48.1875 22.3125 43.546875 
Q 18.109375 38.921875 18.109375 30.90625 
L 18.109375 0 
L 9.078125 0 
L 9.078125 75.984375 
L 18.109375 75.984375 
L 18.109375 46.1875 
Q 21.34375 51.125 25.703125 53.5625 
Q 30.078125 56 35.796875 56 
Q 45.21875 56 50.046875 50.171875 
Q 54.890625 44.34375 54.890625 33.015625 
z
" id="DejaVuSans-68"/>
    </defs>
    <g transform="translate(86.744188 18.84)scale(0.2 -0.2)">
     <use xlink:href="#DejaVuSans-31"/>
     <use x="63.623047" xlink:href="#DejaVuSans-37"/>
     <use x="127.246094" xlink:href="#DejaVuSans-20"/>
     <use x="159.033203" xlink:href="#DejaVuSans-53"/>
     <use x="222.509766" xlink:href="#DejaVuSans-63"/>
     <use x="277.490234" xlink:href="#DejaVuSans-68"/>
     <use x="340.869141" xlink:href="#DejaVuSans-61"/>
     <use x="402.148438" xlink:href="#DejaVuSans-66"/>
     <use x="437.353516" xlink:href="#DejaVuSans-66"/>
     <use x="472.558594" xlink:href="#DejaVuSans-65"/>
     <use x="534.082031" xlink:href="#DejaVuSans-72"/>
     <use x="575.195312" xlink:href="#DejaVuSans-20"/>
     <use x="606.982422" xlink:href="#DejaVuSans-46"/>
     <use x="664.501953" xlink:href="#DejaVuSans-37"/>
     <use x="728.125" xlink:href="#DejaVuSans-2c"/>
     <use x="759.912109" xlink:href="#DejaVuSans-20"/>
     <use x="791.699219" xlink:href="#DejaVuSans-63"/>
     <use x="846.679688" xlink:href="#DejaVuSans-6f"/>
     <use x="907.861328" xlink:href="#DejaVuSans-6e"/>
     <use x="971.240234" xlink:href="#DejaVuSans-64"/>
     <use x="1034.716797" xlink:href="#DejaVuSans-69"/>
     <use x="1062.5" xlink:href="#DejaVuSans-74"/>
     <use x="1101.708984" xlink:href="#DejaVuSans-69"/>
     <use x="1129.492188" xlink:href="#DejaVuSans-6f"/>
     <use x="1190.673828" xlink:href="#DejaVuSans-6e"/>
     <use x="1254.052734" xlink:href="#DejaVuSans-20"/>
     <use x="1285.839844" xlink:href="#DejaVuSans-31"/>
     <use x="1349.462891" xlink:href="#DejaVuSans-30"/>
    </g>
   </g>
  </g>
 </g>
 <defs>
  <clipPath id="pa3a6716d7e">
   <rect height="270.04" width="343.864" x="56.12" y="24.84"/>
  </clipPath>
 </defs>
</svg>
