<?xml version="1.0" encoding="utf-8" standalone="no"?>
<!DOCTYPE svg PUBLIC "-//W3C//DTD SVG 1.1//EN"
  "http://www.w3.org/Graphics/SVG/1.1/DTD/svg11.dtd">
<!-- Created with matplotlib (http://matplotlib.org/) -->
<svg height="345.6pt" version="1.1" viewBox="0 0 460.8 345.6" width="460.8pt" xmlns="http://www.w3.org/2000/svg" xmlns:xlink="http://www.w3.org/1999/xlink">
 <defs>
  <style type="text/css">
*{stroke-linecap:butt;stroke-linejoin:round;}
  </style>
 </defs>
 <g id="figure_1">
  <g id="patch_1">
   <path d="M 0 345.6 
L 460.8 345.6 
L 460.8 0 
L 0 0 
z
" style="fill:#ffffff;"/>
  </g>
  <g id="axes_1">
   <g id="patch_2">
    <path d="M 56.12 294.88 
L 399.984 294.88 
L 399.984 24.84 
L 56.12 24.84 
z
" style="fill:#ffffff;"/>
   </g>
   <g id="line2d_1">
    <path d="M 92.939552 294.88 
L 92.939552 289.637523 
L 94.579351 289.637523 
L 94.579351 284.395046 
L 96.65683 284.395046 
L 96.65683 279.152568 
L 98.728512 279.152568 
L 98.728512 273.910091 
L 111.975443 273.910091 
L 111.975443 268.667614 
L 116.067126 268.667614 
L 116.067126 263.425137 
L 116.689057 263.425137 
L 116.689057 258.18266 
L 120.302772 258.18266 
L 120.302772 252.940182 
L 132.796414 252.940182 
L 132.796414 247.697705 
L 134.130495 247.697705 
L 134.130495 242.455228 
L 135.531046 242.455228 
L 135.531046 237.212751 
L 136.762836 237.212751 
L 136.762836 231.970274 
L 137.83801 231.970274 
L 137.83801 226.727797 
L 138.968847 226.727797 
L 138.968847 221.485319 
L 139.85866 221.485319 
L 139.85866 216.242842 
L 140.836545 216.242842 
L 140.836545 211.000365 
L 141.761827 211.000365 
L 141.761827 205.757888 
L 142.622972 205.757888 
L 142.622972 200.515411 
L 143.47528 200.515411 
L 143.47528 195.272933 
L 144.205277 195.272933 
L 144.205277 190.030456 
L 145.013826 190.030456 
L 145.013826 184.787979 
L 145.8703 184.787979 
L 145.8703 179.545502 
L 149.149666 179.545502 
L 149.149666 174.303025 
L 166.766034 174.303025 
L 166.766034 169.060547 
L 173.254361 169.060547 
L 173.254361 163.81807 
L 173.85571 163.81807 
L 173.85571 158.575593 
L 174.362065 158.575593 
L 174.362065 153.333116 
L 174.790614 153.333116 
L 174.790614 148.090639 
L 175.373364 148.090639 
L 175.373364 142.848162 
L 175.908539 142.848162 
L 175.908539 137.605684 
L 176.384843 137.605684 
L 176.384843 132.363207 
L 176.815124 132.363207 
L 176.815124 127.12073 
L 177.234906 127.12073 
L 177.234906 121.878253 
L 177.649106 121.878253 
L 177.649106 116.635776 
L 178.044939 116.635776 
L 178.044939 111.393298 
L 178.426945 111.393298 
L 178.426945 106.150821 
L 178.850834 106.150821 
L 178.850834 100.908344 
L 179.249782 100.908344 
L 179.249782 95.665867 
L 179.657381 95.665867 
L 179.657381 90.42339 
L 180.033774 90.42339 
L 180.033774 85.180912 
L 180.399599 85.180912 
L 180.399599 79.938435 
L 180.750433 79.938435 
L 180.750433 74.695958 
L 181.084613 74.695958 
L 181.084613 69.453481 
L 181.371567 69.453481 
L 181.371567 64.211004 
L 181.727142 64.211004 
L 181.727142 58.968526 
L 182.057866 58.968526 
L 182.057866 53.726049 
L 182.393529 53.726049 
L 182.393529 48.483572 
L 182.660173 48.483572 
L 182.660173 43.241095 
L 182.969816 43.241095 
L 182.969816 37.998618 
L 183.249018 37.998618 
L 183.249018 32.756141 
L 183.507536 32.756141 
L 183.507536 27.513663 
L 333.429677 27.513663 
" style="fill:none;stroke:#f5deb3;stroke-linecap:square;stroke-width:6;"/>
   </g>
   <g id="line2d_2">
    <defs>
     <path d="M -0 7.778175 
L 7.778175 0 
L 0 -7.778175 
L -7.778175 -0 
z
" id="m100a1ba625" style="stroke:#f5deb3;stroke-linejoin:miter;stroke-width:1.5;"/>
    </defs>
    <g>
     <use style="fill:#f5deb3;stroke:#f5deb3;stroke-linejoin:miter;stroke-width:1.5;" x="145.8703" xlink:href="#m100a1ba625" y="184.787979"/>
     <use style="fill:#f5deb3;stroke:#f5deb3;stroke-linejoin:miter;stroke-width:1.5;" x="181.727142" xlink:href="#m100a1ba625" y="64.211004"/>
     <use style="fill:#f5deb3;stroke:#f5deb3;stroke-linejoin:miter;stroke-width:1.5;" x="183.507536" xlink:href="#m100a1ba625" y="27.513663"/>
     <use style="fill:#f5deb3;stroke:#f5deb3;stroke-linejoin:miter;stroke-width:1.5;" x="183.507536" xlink:href="#m100a1ba625" y="27.513663"/>
     <use style="fill:#f5deb3;stroke:#f5deb3;stroke-linejoin:miter;stroke-width:1.5;" x="333.429677" xlink:href="#m100a1ba625" y="27.513663"/>
    </g>
   </g>
   <g id="line2d_3">
    <path style="fill:none;stroke:#f5deb3;stroke-linecap:square;stroke-width:6;"/>
    <g/>
   </g>
   <g id="line2d_4">
    <path d="M 333.429677 27.513663 
L 363.933742 32.86099 
" style="fill:none;stroke:#f5deb3;stroke-linecap:square;stroke-width:6;"/>
    <g>
     <use style="fill:#f5deb3;stroke:#f5deb3;stroke-linejoin:miter;stroke-width:1.5;" x="333.429677" xlink:href="#m100a1ba625" y="27.513663"/>
     <use style="fill:#f5deb3;stroke:#f5deb3;stroke-linejoin:miter;stroke-width:1.5;" x="363.933742" xlink:href="#m100a1ba625" y="32.86099"/>
    </g>
   </g>
   <g id="matplotlib.axis_1">
    <g id="xtick_1">
     <g id="line2d_5">
      <path clip-path="url(#p8e581e3ca5)" d="M 56.12 294.88 
L 56.12 24.84 
" style="fill:none;stroke:#b0b0b0;stroke-linecap:square;stroke-width:0.8;"/>
     </g>
     <g id="line2d_6">
      <defs>
       <path d="M 0 0 
L 0 3.5 
" id="mf605684aba" style="stroke:#000000;stroke-width:0.8;"/>
      </defs>
      <g>
       <use style="stroke:#000000;stroke-width:0.8;" x="56.12" xlink:href="#mf605684aba" y="294.88"/>
      </g>
     </g>
     <g id="text_1">
      <!-- 0 -->
      <defs>
       <path d="M 31.78125 66.40625 
Q 24.171875 66.40625 20.328125 58.90625 
Q 16.5 51.421875 16.5 36.375 
Q 16.5 21.390625 20.328125 13.890625 
Q 24.171875 6.390625 31.78125 6.390625 
Q 39.453125 6.390625 43.28125 13.890625 
Q 47.125 21.390625 47.125 36.375 
Q 47.125 51.421875 43.28125 58.90625 
Q 39.453125 66.40625 31.78125 66.40625 
z
M 31.78125 74.21875 
Q 44.046875 74.21875 50.515625 64.515625 
Q 56.984375 54.828125 56.984375 36.375 
Q 56.984375 17.96875 50.515625 8.265625 
Q 44.046875 -1.421875 31.78125 -1.421875 
Q 19.53125 -1.421875 13.0625 8.265625 
Q 6.59375 17.96875 6.59375 36.375 
Q 6.59375 54.828125 13.0625 64.515625 
Q 19.53125 74.21875 31.78125 74.21875 
z
" id="DejaVuSans-30"/>
      </defs>
      <g transform="translate(49.7575 317.076875)scale(0.2 -0.2)">
       <use xlink:href="#DejaVuSans-30"/>
      </g>
     </g>
    </g>
    <g id="xtick_2">
     <g id="line2d_7">
      <path clip-path="url(#p8e581e3ca5)" d="M 135.351336 294.88 
L 135.351336 24.84 
" style="fill:none;stroke:#b0b0b0;stroke-linecap:square;stroke-width:0.8;"/>
     </g>
     <g id="line2d_8">
      <g>
       <use style="stroke:#000000;stroke-width:0.8;" x="135.351336" xlink:href="#mf605684aba" y="294.88"/>
      </g>
     </g>
     <g id="text_2">
      <!-- 2 -->
      <defs>
       <path d="M 19.1875 8.296875 
L 53.609375 8.296875 
L 53.609375 0 
L 7.328125 0 
L 7.328125 8.296875 
Q 12.9375 14.109375 22.625 23.890625 
Q 32.328125 33.6875 34.8125 36.53125 
Q 39.546875 41.84375 41.421875 45.53125 
Q 43.3125 49.21875 43.3125 52.78125 
Q 43.3125 58.59375 39.234375 62.25 
Q 35.15625 65.921875 28.609375 65.921875 
Q 23.96875 65.921875 18.8125 64.3125 
Q 13.671875 62.703125 7.8125 59.421875 
L 7.8125 69.390625 
Q 13.765625 71.78125 18.9375 73 
Q 24.125 74.21875 28.421875 74.21875 
Q 39.75 74.21875 46.484375 68.546875 
Q 53.21875 62.890625 53.21875 53.421875 
Q 53.21875 48.921875 51.53125 44.890625 
Q 49.859375 40.875 45.40625 35.40625 
Q 44.1875 33.984375 37.640625 27.21875 
Q 31.109375 20.453125 19.1875 8.296875 
z
" id="DejaVuSans-32"/>
      </defs>
      <g transform="translate(128.988836 317.076875)scale(0.2 -0.2)">
       <use xlink:href="#DejaVuSans-32"/>
      </g>
     </g>
    </g>
    <g id="xtick_3">
     <g id="line2d_9">
      <path clip-path="url(#p8e581e3ca5)" d="M 214.582673 294.88 
L 214.582673 24.84 
" style="fill:none;stroke:#b0b0b0;stroke-linecap:square;stroke-width:0.8;"/>
     </g>
     <g id="line2d_10">
      <g>
       <use style="stroke:#000000;stroke-width:0.8;" x="214.582673" xlink:href="#mf605684aba" y="294.88"/>
      </g>
     </g>
     <g id="text_3">
      <!-- 4 -->
      <defs>
       <path d="M 37.796875 64.3125 
L 12.890625 25.390625 
L 37.796875 25.390625 
z
M 35.203125 72.90625 
L 47.609375 72.90625 
L 47.609375 25.390625 
L 58.015625 25.390625 
L 58.015625 17.1875 
L 47.609375 17.1875 
L 47.609375 0 
L 37.796875 0 
L 37.796875 17.1875 
L 4.890625 17.1875 
L 4.890625 26.703125 
z
" id="DejaVuSans-34"/>
      </defs>
      <g transform="translate(208.220173 317.076875)scale(0.2 -0.2)">
       <use xlink:href="#DejaVuSans-34"/>
      </g>
     </g>
    </g>
    <g id="xtick_4">
     <g id="line2d_11">
      <path clip-path="url(#p8e581e3ca5)" d="M 293.814009 294.88 
L 293.814009 24.84 
" style="fill:none;stroke:#b0b0b0;stroke-linecap:square;stroke-width:0.8;"/>
     </g>
     <g id="line2d_12">
      <g>
       <use style="stroke:#000000;stroke-width:0.8;" x="293.814009" xlink:href="#mf605684aba" y="294.88"/>
      </g>
     </g>
     <g id="text_4">
      <!-- 6 -->
      <defs>
       <path d="M 33.015625 40.375 
Q 26.375 40.375 22.484375 35.828125 
Q 18.609375 31.296875 18.609375 23.390625 
Q 18.609375 15.53125 22.484375 10.953125 
Q 26.375 6.390625 33.015625 6.390625 
Q 39.65625 6.390625 43.53125 10.953125 
Q 47.40625 15.53125 47.40625 23.390625 
Q 47.40625 31.296875 43.53125 35.828125 
Q 39.65625 40.375 33.015625 40.375 
z
M 52.59375 71.296875 
L 52.59375 62.3125 
Q 48.875 64.0625 45.09375 64.984375 
Q 41.3125 65.921875 37.59375 65.921875 
Q 27.828125 65.921875 22.671875 59.328125 
Q 17.53125 52.734375 16.796875 39.40625 
Q 19.671875 43.65625 24.015625 45.921875 
Q 28.375 48.1875 33.59375 48.1875 
Q 44.578125 48.1875 50.953125 41.515625 
Q 57.328125 34.859375 57.328125 23.390625 
Q 57.328125 12.15625 50.6875 5.359375 
Q 44.046875 -1.421875 33.015625 -1.421875 
Q 20.359375 -1.421875 13.671875 8.265625 
Q 6.984375 17.96875 6.984375 36.375 
Q 6.984375 53.65625 15.1875 63.9375 
Q 23.390625 74.21875 37.203125 74.21875 
Q 40.921875 74.21875 44.703125 73.484375 
Q 48.484375 72.75 52.59375 71.296875 
z
" id="DejaVuSans-36"/>
      </defs>
      <g transform="translate(287.451509 317.076875)scale(0.2 -0.2)">
       <use xlink:href="#DejaVuSans-36"/>
      </g>
     </g>
    </g>
    <g id="xtick_5">
     <g id="line2d_13">
      <path clip-path="url(#p8e581e3ca5)" d="M 373.045346 294.88 
L 373.045346 24.84 
" style="fill:none;stroke:#b0b0b0;stroke-linecap:square;stroke-width:0.8;"/>
     </g>
     <g id="line2d_14">
      <g>
       <use style="stroke:#000000;stroke-width:0.8;" x="373.045346" xlink:href="#mf605684aba" y="294.88"/>
      </g>
     </g>
     <g id="text_5">
      <!-- 8 -->
      <defs>
       <path d="M 31.78125 34.625 
Q 24.75 34.625 20.71875 30.859375 
Q 16.703125 27.09375 16.703125 20.515625 
Q 16.703125 13.921875 20.71875 10.15625 
Q 24.75 6.390625 31.78125 6.390625 
Q 38.8125 6.390625 42.859375 10.171875 
Q 46.921875 13.96875 46.921875 20.515625 
Q 46.921875 27.09375 42.890625 30.859375 
Q 38.875 34.625 31.78125 34.625 
z
M 21.921875 38.8125 
Q 15.578125 40.375 12.03125 44.71875 
Q 8.5 49.078125 8.5 55.328125 
Q 8.5 64.0625 14.71875 69.140625 
Q 20.953125 74.21875 31.78125 74.21875 
Q 42.671875 74.21875 48.875 69.140625 
Q 55.078125 64.0625 55.078125 55.328125 
Q 55.078125 49.078125 51.53125 44.71875 
Q 48 40.375 41.703125 38.8125 
Q 48.828125 37.15625 52.796875 32.3125 
Q 56.78125 27.484375 56.78125 20.515625 
Q 56.78125 9.90625 50.3125 4.234375 
Q 43.84375 -1.421875 31.78125 -1.421875 
Q 19.734375 -1.421875 13.25 4.234375 
Q 6.78125 9.90625 6.78125 20.515625 
Q 6.78125 27.484375 10.78125 32.3125 
Q 14.796875 37.15625 21.921875 38.8125 
z
M 18.3125 54.390625 
Q 18.3125 48.734375 21.84375 45.5625 
Q 25.390625 42.390625 31.78125 42.390625 
Q 38.140625 42.390625 41.71875 45.5625 
Q 45.3125 48.734375 45.3125 54.390625 
Q 45.3125 60.0625 41.71875 63.234375 
Q 38.140625 66.40625 31.78125 66.40625 
Q 25.390625 66.40625 21.84375 63.234375 
Q 18.3125 60.0625 18.3125 54.390625 
z
" id="DejaVuSans-38"/>
      </defs>
      <g transform="translate(366.682846 317.076875)scale(0.2 -0.2)">
       <use xlink:href="#DejaVuSans-38"/>
      </g>
     </g>
    </g>
    <g id="text_6">
     <!-- log10(# f-evals / dimension) -->
     <defs>
      <path d="M 9.421875 75.984375 
L 18.40625 75.984375 
L 18.40625 0 
L 9.421875 0 
z
" id="DejaVuSans-6c"/>
      <path d="M 30.609375 48.390625 
Q 23.390625 48.390625 19.1875 42.75 
Q 14.984375 37.109375 14.984375 27.296875 
Q 14.984375 17.484375 19.15625 11.84375 
Q 23.34375 6.203125 30.609375 6.203125 
Q 37.796875 6.203125 41.984375 11.859375 
Q 46.1875 17.53125 46.1875 27.296875 
Q 46.1875 37.015625 41.984375 42.703125 
Q 37.796875 48.390625 30.609375 48.390625 
z
M 30.609375 56 
Q 42.328125 56 49.015625 48.375 
Q 55.71875 40.765625 55.71875 27.296875 
Q 55.71875 13.875 49.015625 6.21875 
Q 42.328125 -1.421875 30.609375 -1.421875 
Q 18.84375 -1.421875 12.171875 6.21875 
Q 5.515625 13.875 5.515625 27.296875 
Q 5.515625 40.765625 12.171875 48.375 
Q 18.84375 56 30.609375 56 
z
" id="DejaVuSans-6f"/>
      <path d="M 45.40625 27.984375 
Q 45.40625 37.75 41.375 43.109375 
Q 37.359375 48.484375 30.078125 48.484375 
Q 22.859375 48.484375 18.828125 43.109375 
Q 14.796875 37.75 14.796875 27.984375 
Q 14.796875 18.265625 18.828125 12.890625 
Q 22.859375 7.515625 30.078125 7.515625 
Q 37.359375 7.515625 41.375 12.890625 
Q 45.40625 18.265625 45.40625 27.984375 
z
M 54.390625 6.78125 
Q 54.390625 -7.171875 48.1875 -13.984375 
Q 42 -20.796875 29.203125 -20.796875 
Q 24.46875 -20.796875 20.265625 -20.09375 
Q 16.0625 -19.390625 12.109375 -17.921875 
L 12.109375 -9.1875 
Q 16.0625 -11.328125 19.921875 -12.34375 
Q 23.78125 -13.375 27.78125 -13.375 
Q 36.625 -13.375 41.015625 -8.765625 
Q 45.40625 -4.15625 45.40625 5.171875 
L 45.40625 9.625 
Q 42.625 4.78125 38.28125 2.390625 
Q 33.9375 0 27.875 0 
Q 17.828125 0 11.671875 7.65625 
Q 5.515625 15.328125 5.515625 27.984375 
Q 5.515625 40.671875 11.671875 48.328125 
Q 17.828125 56 27.875 56 
Q 33.9375 56 38.28125 53.609375 
Q 42.625 51.21875 45.40625 46.390625 
L 45.40625 54.6875 
L 54.390625 54.6875 
z
" id="DejaVuSans-67"/>
      <path d="M 12.40625 8.296875 
L 28.515625 8.296875 
L 28.515625 63.921875 
L 10.984375 60.40625 
L 10.984375 69.390625 
L 28.421875 72.90625 
L 38.28125 72.90625 
L 38.28125 8.296875 
L 54.390625 8.296875 
L 54.390625 0 
L 12.40625 0 
z
" id="DejaVuSans-31"/>
      <path d="M 31 75.875 
Q 24.46875 64.65625 21.28125 53.65625 
Q 18.109375 42.671875 18.109375 31.390625 
Q 18.109375 20.125 21.3125 9.0625 
Q 24.515625 -2 31 -13.1875 
L 23.1875 -13.1875 
Q 15.875 -1.703125 12.234375 9.375 
Q 8.59375 20.453125 8.59375 31.390625 
Q 8.59375 42.28125 12.203125 53.3125 
Q 15.828125 64.359375 23.1875 75.875 
z
" id="DejaVuSans-28"/>
      <path d="M 51.125 44 
L 36.921875 44 
L 32.8125 27.6875 
L 47.125 27.6875 
z
M 43.796875 71.78125 
L 38.71875 51.515625 
L 52.984375 51.515625 
L 58.109375 71.78125 
L 65.921875 71.78125 
L 60.890625 51.515625 
L 76.125 51.515625 
L 76.125 44 
L 58.984375 44 
L 54.984375 27.6875 
L 70.515625 27.6875 
L 70.515625 20.21875 
L 53.078125 20.21875 
L 48 0 
L 40.1875 0 
L 45.21875 20.21875 
L 30.90625 20.21875 
L 25.875 0 
L 18.015625 0 
L 23.09375 20.21875 
L 7.71875 20.21875 
L 7.71875 27.6875 
L 24.90625 27.6875 
L 29 44 
L 13.28125 44 
L 13.28125 51.515625 
L 30.90625 51.515625 
L 35.890625 71.78125 
z
" id="DejaVuSans-23"/>
      <path id="DejaVuSans-20"/>
      <path d="M 37.109375 75.984375 
L 37.109375 68.5 
L 28.515625 68.5 
Q 23.6875 68.5 21.796875 66.546875 
Q 19.921875 64.59375 19.921875 59.515625 
L 19.921875 54.6875 
L 34.71875 54.6875 
L 34.71875 47.703125 
L 19.921875 47.703125 
L 19.921875 0 
L 10.890625 0 
L 10.890625 47.703125 
L 2.296875 47.703125 
L 2.296875 54.6875 
L 10.890625 54.6875 
L 10.890625 58.5 
Q 10.890625 67.625 15.140625 71.796875 
Q 19.390625 75.984375 28.609375 75.984375 
z
" id="DejaVuSans-66"/>
      <path d="M 4.890625 31.390625 
L 31.203125 31.390625 
L 31.203125 23.390625 
L 4.890625 23.390625 
z
" id="DejaVuSans-2d"/>
      <path d="M 56.203125 29.59375 
L 56.203125 25.203125 
L 14.890625 25.203125 
Q 15.484375 15.921875 20.484375 11.0625 
Q 25.484375 6.203125 34.421875 6.203125 
Q 39.59375 6.203125 44.453125 7.46875 
Q 49.3125 8.734375 54.109375 11.28125 
L 54.109375 2.78125 
Q 49.265625 0.734375 44.1875 -0.34375 
Q 39.109375 -1.421875 33.890625 -1.421875 
Q 20.796875 -1.421875 13.15625 6.1875 
Q 5.515625 13.8125 5.515625 26.8125 
Q 5.515625 40.234375 12.765625 48.109375 
Q 20.015625 56 32.328125 56 
Q 43.359375 56 49.78125 48.890625 
Q 56.203125 41.796875 56.203125 29.59375 
z
M 47.21875 32.234375 
Q 47.125 39.59375 43.09375 43.984375 
Q 39.0625 48.390625 32.421875 48.390625 
Q 24.90625 48.390625 20.390625 44.140625 
Q 15.875 39.890625 15.1875 32.171875 
z
" id="DejaVuSans-65"/>
      <path d="M 2.984375 54.6875 
L 12.5 54.6875 
L 29.59375 8.796875 
L 46.6875 54.6875 
L 56.203125 54.6875 
L 35.6875 0 
L 23.484375 0 
z
" id="DejaVuSans-76"/>
      <path d="M 34.28125 27.484375 
Q 23.390625 27.484375 19.1875 25 
Q 14.984375 22.515625 14.984375 16.5 
Q 14.984375 11.71875 18.140625 8.90625 
Q 21.296875 6.109375 26.703125 6.109375 
Q 34.1875 6.109375 38.703125 11.40625 
Q 43.21875 16.703125 43.21875 25.484375 
L 43.21875 27.484375 
z
M 52.203125 31.203125 
L 52.203125 0 
L 43.21875 0 
L 43.21875 8.296875 
Q 40.140625 3.328125 35.546875 0.953125 
Q 30.953125 -1.421875 24.3125 -1.421875 
Q 15.921875 -1.421875 10.953125 3.296875 
Q 6 8.015625 6 15.921875 
Q 6 25.140625 12.171875 29.828125 
Q 18.359375 34.515625 30.609375 34.515625 
L 43.21875 34.515625 
L 43.21875 35.40625 
Q 43.21875 41.609375 39.140625 45 
Q 35.0625 48.390625 27.6875 48.390625 
Q 23 48.390625 18.546875 47.265625 
Q 14.109375 46.140625 10.015625 43.890625 
L 10.015625 52.203125 
Q 14.9375 54.109375 19.578125 55.046875 
Q 24.21875 56 28.609375 56 
Q 40.484375 56 46.34375 49.84375 
Q 52.203125 43.703125 52.203125 31.203125 
z
" id="DejaVuSans-61"/>
      <path d="M 44.28125 53.078125 
L 44.28125 44.578125 
Q 40.484375 46.53125 36.375 47.5 
Q 32.28125 48.484375 27.875 48.484375 
Q 21.1875 48.484375 17.84375 46.4375 
Q 14.5 44.390625 14.5 40.28125 
Q 14.5 37.15625 16.890625 35.375 
Q 19.28125 33.59375 26.515625 31.984375 
L 29.59375 31.296875 
Q 39.15625 29.25 43.1875 25.515625 
Q 47.21875 21.78125 47.21875 15.09375 
Q 47.21875 7.46875 41.1875 3.015625 
Q 35.15625 -1.421875 24.609375 -1.421875 
Q 20.21875 -1.421875 15.453125 -0.5625 
Q 10.6875 0.296875 5.421875 2 
L 5.421875 11.28125 
Q 10.40625 8.6875 15.234375 7.390625 
Q 20.0625 6.109375 24.8125 6.109375 
Q 31.15625 6.109375 34.5625 8.28125 
Q 37.984375 10.453125 37.984375 14.40625 
Q 37.984375 18.0625 35.515625 20.015625 
Q 33.0625 21.96875 24.703125 23.78125 
L 21.578125 24.515625 
Q 13.234375 26.265625 9.515625 29.90625 
Q 5.8125 33.546875 5.8125 39.890625 
Q 5.8125 47.609375 11.28125 51.796875 
Q 16.75 56 26.8125 56 
Q 31.78125 56 36.171875 55.265625 
Q 40.578125 54.546875 44.28125 53.078125 
z
" id="DejaVuSans-73"/>
      <path d="M 25.390625 72.90625 
L 33.6875 72.90625 
L 8.296875 -9.28125 
L 0 -9.28125 
z
" id="DejaVuSans-2f"/>
      <path d="M 45.40625 46.390625 
L 45.40625 75.984375 
L 54.390625 75.984375 
L 54.390625 0 
L 45.40625 0 
L 45.40625 8.203125 
Q 42.578125 3.328125 38.25 0.953125 
Q 33.9375 -1.421875 27.875 -1.421875 
Q 17.96875 -1.421875 11.734375 6.484375 
Q 5.515625 14.40625 5.515625 27.296875 
Q 5.515625 40.1875 11.734375 48.09375 
Q 17.96875 56 27.875 56 
Q 33.9375 56 38.25 53.625 
Q 42.578125 51.265625 45.40625 46.390625 
z
M 14.796875 27.296875 
Q 14.796875 17.390625 18.875 11.75 
Q 22.953125 6.109375 30.078125 6.109375 
Q 37.203125 6.109375 41.296875 11.75 
Q 45.40625 17.390625 45.40625 27.296875 
Q 45.40625 37.203125 41.296875 42.84375 
Q 37.203125 48.484375 30.078125 48.484375 
Q 22.953125 48.484375 18.875 42.84375 
Q 14.796875 37.203125 14.796875 27.296875 
z
" id="DejaVuSans-64"/>
      <path d="M 9.421875 54.6875 
L 18.40625 54.6875 
L 18.40625 0 
L 9.421875 0 
z
M 9.421875 75.984375 
L 18.40625 75.984375 
L 18.40625 64.59375 
L 9.421875 64.59375 
z
" id="DejaVuSans-69"/>
      <path d="M 52 44.1875 
Q 55.375 50.25 60.0625 53.125 
Q 64.75 56 71.09375 56 
Q 79.640625 56 84.28125 50.015625 
Q 88.921875 44.046875 88.921875 33.015625 
L 88.921875 0 
L 79.890625 0 
L 79.890625 32.71875 
Q 79.890625 40.578125 77.09375 44.375 
Q 74.3125 48.1875 68.609375 48.1875 
Q 61.625 48.1875 57.5625 43.546875 
Q 53.515625 38.921875 53.515625 30.90625 
L 53.515625 0 
L 44.484375 0 
L 44.484375 32.71875 
Q 44.484375 40.625 41.703125 44.40625 
Q 38.921875 48.1875 33.109375 48.1875 
Q 26.21875 48.1875 22.15625 43.53125 
Q 18.109375 38.875 18.109375 30.90625 
L 18.109375 0 
L 9.078125 0 
L 9.078125 54.6875 
L 18.109375 54.6875 
L 18.109375 46.1875 
Q 21.1875 51.21875 25.484375 53.609375 
Q 29.78125 56 35.6875 56 
Q 41.65625 56 45.828125 52.96875 
Q 50 49.953125 52 44.1875 
z
" id="DejaVuSans-6d"/>
      <path d="M 54.890625 33.015625 
L 54.890625 0 
L 45.90625 0 
L 45.90625 32.71875 
Q 45.90625 40.484375 42.875 44.328125 
Q 39.84375 48.1875 33.796875 48.1875 
Q 26.515625 48.1875 22.3125 43.546875 
Q 18.109375 38.921875 18.109375 30.90625 
L 18.109375 0 
L 9.078125 0 
L 9.078125 54.6875 
L 18.109375 54.6875 
L 18.109375 46.1875 
Q 21.34375 51.125 25.703125 53.5625 
Q 30.078125 56 35.796875 56 
Q 45.21875 56 50.046875 50.171875 
Q 54.890625 44.34375 54.890625 33.015625 
z
" id="DejaVuSans-6e"/>
      <path d="M 8.015625 75.875 
L 15.828125 75.875 
Q 23.140625 64.359375 26.78125 53.3125 
Q 30.421875 42.28125 30.421875 31.390625 
Q 30.421875 20.453125 26.78125 9.375 
Q 23.140625 -1.703125 15.828125 -13.1875 
L 8.015625 -13.1875 
Q 14.5 -2 17.703125 9.0625 
Q 20.90625 20.125 20.90625 31.390625 
Q 20.90625 42.671875 17.703125 53.65625 
Q 14.5 64.65625 8.015625 75.875 
z
" id="DejaVuSans-29"/>
     </defs>
     <g transform="translate(107.211219 338.153594)scale(0.17 -0.17)">
      <use xlink:href="#DejaVuSans-6c"/>
      <use x="27.783203" xlink:href="#DejaVuSans-6f"/>
      <use x="88.964844" xlink:href="#DejaVuSans-67"/>
      <use x="152.441406" xlink:href="#DejaVuSans-31"/>
      <use x="216.064453" xlink:href="#DejaVuSans-30"/>
      <use x="279.6875" xlink:href="#DejaVuSans-28"/>
      <use x="318.701172" xlink:href="#DejaVuSans-23"/>
      <use x="402.490234" xlink:href="#DejaVuSans-20"/>
      <use x="434.277344" xlink:href="#DejaVuSans-66"/>
      <use x="469.404297" xlink:href="#DejaVuSans-2d"/>
      <use x="505.488281" xlink:href="#DejaVuSans-65"/>
      <use x="567.011719" xlink:href="#DejaVuSans-76"/>
      <use x="626.191406" xlink:href="#DejaVuSans-61"/>
      <use x="687.470703" xlink:href="#DejaVuSans-6c"/>
      <use x="715.253906" xlink:href="#DejaVuSans-73"/>
      <use x="767.353516" xlink:href="#DejaVuSans-20"/>
      <use x="799.140625" xlink:href="#DejaVuSans-2f"/>
      <use x="832.832031" xlink:href="#DejaVuSans-20"/>
      <use x="864.619141" xlink:href="#DejaVuSans-64"/>
      <use x="928.095703" xlink:href="#DejaVuSans-69"/>
      <use x="955.878906" xlink:href="#DejaVuSans-6d"/>
      <use x="1053.291016" xlink:href="#DejaVuSans-65"/>
      <use x="1114.814453" xlink:href="#DejaVuSans-6e"/>
      <use x="1178.193359" xlink:href="#DejaVuSans-73"/>
      <use x="1230.292969" xlink:href="#DejaVuSans-69"/>
      <use x="1258.076172" xlink:href="#DejaVuSans-6f"/>
      <use x="1319.257812" xlink:href="#DejaVuSans-6e"/>
      <use x="1382.636719" xlink:href="#DejaVuSans-29"/>
     </g>
    </g>
   </g>
   <g id="matplotlib.axis_2">
    <g id="ytick_1">
     <g id="line2d_15">
      <path clip-path="url(#p8e581e3ca5)" d="M 56.12 294.88 
L 399.984 294.88 
" style="fill:none;stroke:#b0b0b0;stroke-linecap:square;stroke-width:0.8;"/>
     </g>
     <g id="line2d_16">
      <defs>
       <path d="M 0 0 
L -3.5 0 
" id="m375aaf34ab" style="stroke:#000000;stroke-width:0.8;"/>
      </defs>
      <g>
       <use style="stroke:#000000;stroke-width:0.8;" x="56.12" xlink:href="#m375aaf34ab" y="294.88"/>
      </g>
     </g>
     <g id="text_7">
      <!-- 0.0 -->
      <defs>
       <path d="M 10.6875 12.40625 
L 21 12.40625 
L 21 0 
L 10.6875 0 
z
" id="DejaVuSans-2e"/>
      </defs>
      <g transform="translate(23.675 300.95875)scale(0.16 -0.16)">
       <use xlink:href="#DejaVuSans-30"/>
       <use x="63.623047" xlink:href="#DejaVuSans-2e"/>
       <use x="95.410156" xlink:href="#DejaVuSans-30"/>
      </g>
     </g>
    </g>
    <g id="ytick_2">
     <g id="line2d_17">
      <path clip-path="url(#p8e581e3ca5)" d="M 56.12 241.406733 
L 399.984 241.406733 
" style="fill:none;stroke:#b0b0b0;stroke-linecap:square;stroke-width:0.8;"/>
     </g>
     <g id="line2d_18">
      <g>
       <use style="stroke:#000000;stroke-width:0.8;" x="56.12" xlink:href="#m375aaf34ab" y="241.406733"/>
      </g>
     </g>
     <g id="text_8">
      <!-- 0.2 -->
      <g transform="translate(23.675 247.485483)scale(0.16 -0.16)">
       <use xlink:href="#DejaVuSans-30"/>
       <use x="63.623047" xlink:href="#DejaVuSans-2e"/>
       <use x="95.410156" xlink:href="#DejaVuSans-32"/>
      </g>
     </g>
    </g>
    <g id="ytick_3">
     <g id="line2d_19">
      <path clip-path="url(#p8e581e3ca5)" d="M 56.12 187.933465 
L 399.984 187.933465 
" style="fill:none;stroke:#b0b0b0;stroke-linecap:square;stroke-width:0.8;"/>
     </g>
     <g id="line2d_20">
      <g>
       <use style="stroke:#000000;stroke-width:0.8;" x="56.12" xlink:href="#m375aaf34ab" y="187.933465"/>
      </g>
     </g>
     <g id="text_9">
      <!-- 0.4 -->
      <g transform="translate(23.675 194.012215)scale(0.16 -0.16)">
       <use xlink:href="#DejaVuSans-30"/>
       <use x="63.623047" xlink:href="#DejaVuSans-2e"/>
       <use x="95.410156" xlink:href="#DejaVuSans-34"/>
      </g>
     </g>
    </g>
    <g id="ytick_4">
     <g id="line2d_21">
      <path clip-path="url(#p8e581e3ca5)" d="M 56.12 134.460198 
L 399.984 134.460198 
" style="fill:none;stroke:#b0b0b0;stroke-linecap:square;stroke-width:0.8;"/>
     </g>
     <g id="line2d_22">
      <g>
       <use style="stroke:#000000;stroke-width:0.8;" x="56.12" xlink:href="#m375aaf34ab" y="134.460198"/>
      </g>
     </g>
     <g id="text_10">
      <!-- 0.6 -->
      <g transform="translate(23.675 140.538948)scale(0.16 -0.16)">
       <use xlink:href="#DejaVuSans-30"/>
       <use x="63.623047" xlink:href="#DejaVuSans-2e"/>
       <use x="95.410156" xlink:href="#DejaVuSans-36"/>
      </g>
     </g>
    </g>
    <g id="ytick_5">
     <g id="line2d_23">
      <path clip-path="url(#p8e581e3ca5)" d="M 56.12 80.986931 
L 399.984 80.986931 
" style="fill:none;stroke:#b0b0b0;stroke-linecap:square;stroke-width:0.8;"/>
     </g>
     <g id="line2d_24">
      <g>
       <use style="stroke:#000000;stroke-width:0.8;" x="56.12" xlink:href="#m375aaf34ab" y="80.986931"/>
      </g>
     </g>
     <g id="text_11">
      <!-- 0.8 -->
      <g transform="translate(23.675 87.065681)scale(0.16 -0.16)">
       <use xlink:href="#DejaVuSans-30"/>
       <use x="63.623047" xlink:href="#DejaVuSans-2e"/>
       <use x="95.410156" xlink:href="#DejaVuSans-38"/>
      </g>
     </g>
    </g>
    <g id="ytick_6">
     <g id="line2d_25">
      <path clip-path="url(#p8e581e3ca5)" d="M 56.12 27.513663 
L 399.984 27.513663 
" style="fill:none;stroke:#b0b0b0;stroke-linecap:square;stroke-width:0.8;"/>
     </g>
     <g id="line2d_26">
      <g>
       <use style="stroke:#000000;stroke-width:0.8;" x="56.12" xlink:href="#m375aaf34ab" y="27.513663"/>
      </g>
     </g>
     <g id="text_12">
      <!-- 1.0 -->
      <g transform="translate(23.675 33.592413)scale(0.16 -0.16)">
       <use xlink:href="#DejaVuSans-31"/>
       <use x="63.623047" xlink:href="#DejaVuSans-2e"/>
       <use x="95.410156" xlink:href="#DejaVuSans-30"/>
      </g>
     </g>
    </g>
    <g id="text_13">
     <!-- Fraction of function,target pairs -->
     <defs>
      <path d="M 9.8125 72.90625 
L 51.703125 72.90625 
L 51.703125 64.59375 
L 19.671875 64.59375 
L 19.671875 43.109375 
L 48.578125 43.109375 
L 48.578125 34.8125 
L 19.671875 34.8125 
L 19.671875 0 
L 9.8125 0 
z
" id="DejaVuSans-46"/>
      <path d="M 41.109375 46.296875 
Q 39.59375 47.171875 37.8125 47.578125 
Q 36.03125 48 33.890625 48 
Q 26.265625 48 22.1875 43.046875 
Q 18.109375 38.09375 18.109375 28.8125 
L 18.109375 0 
L 9.078125 0 
L 9.078125 54.6875 
L 18.109375 54.6875 
L 18.109375 46.1875 
Q 20.953125 51.171875 25.484375 53.578125 
Q 30.03125 56 36.53125 56 
Q 37.453125 56 38.578125 55.875 
Q 39.703125 55.765625 41.0625 55.515625 
z
" id="DejaVuSans-72"/>
      <path d="M 48.78125 52.59375 
L 48.78125 44.1875 
Q 44.96875 46.296875 41.140625 47.34375 
Q 37.3125 48.390625 33.40625 48.390625 
Q 24.65625 48.390625 19.8125 42.84375 
Q 14.984375 37.3125 14.984375 27.296875 
Q 14.984375 17.28125 19.8125 11.734375 
Q 24.65625 6.203125 33.40625 6.203125 
Q 37.3125 6.203125 41.140625 7.25 
Q 44.96875 8.296875 48.78125 10.40625 
L 48.78125 2.09375 
Q 45.015625 0.34375 40.984375 -0.53125 
Q 36.96875 -1.421875 32.421875 -1.421875 
Q 20.0625 -1.421875 12.78125 6.34375 
Q 5.515625 14.109375 5.515625 27.296875 
Q 5.515625 40.671875 12.859375 48.328125 
Q 20.21875 56 33.015625 56 
Q 37.15625 56 41.109375 55.140625 
Q 45.0625 54.296875 48.78125 52.59375 
z
" id="DejaVuSans-63"/>
      <path d="M 18.3125 70.21875 
L 18.3125 54.6875 
L 36.8125 54.6875 
L 36.8125 47.703125 
L 18.3125 47.703125 
L 18.3125 18.015625 
Q 18.3125 11.328125 20.140625 9.421875 
Q 21.96875 7.515625 27.59375 7.515625 
L 36.8125 7.515625 
L 36.8125 0 
L 27.59375 0 
Q 17.1875 0 13.234375 3.875 
Q 9.28125 7.765625 9.28125 18.015625 
L 9.28125 47.703125 
L 2.6875 47.703125 
L 2.6875 54.6875 
L 9.28125 54.6875 
L 9.28125 70.21875 
z
" id="DejaVuSans-74"/>
      <path d="M 8.5 21.578125 
L 8.5 54.6875 
L 17.484375 54.6875 
L 17.484375 21.921875 
Q 17.484375 14.15625 20.5 10.265625 
Q 23.53125 6.390625 29.59375 6.390625 
Q 36.859375 6.390625 41.078125 11.03125 
Q 45.3125 15.671875 45.3125 23.6875 
L 45.3125 54.6875 
L 54.296875 54.6875 
L 54.296875 0 
L 45.3125 0 
L 45.3125 8.40625 
Q 42.046875 3.421875 37.71875 1 
Q 33.40625 -1.421875 27.6875 -1.421875 
Q 18.265625 -1.421875 13.375 4.4375 
Q 8.5 10.296875 8.5 21.578125 
z
M 31.109375 56 
z
" id="DejaVuSans-75"/>
      <path d="M 11.71875 12.40625 
L 22.015625 12.40625 
L 22.015625 4 
L 14.015625 -11.625 
L 7.71875 -11.625 
L 11.71875 4 
z
" id="DejaVuSans-2c"/>
      <path d="M 18.109375 8.203125 
L 18.109375 -20.796875 
L 9.078125 -20.796875 
L 9.078125 54.6875 
L 18.109375 54.6875 
L 18.109375 46.390625 
Q 20.953125 51.265625 25.265625 53.625 
Q 29.59375 56 35.59375 56 
Q 45.5625 56 51.78125 48.09375 
Q 58.015625 40.1875 58.015625 27.296875 
Q 58.015625 14.40625 51.78125 6.484375 
Q 45.5625 -1.421875 35.59375 -1.421875 
Q 29.59375 -1.421875 25.265625 0.953125 
Q 20.953125 3.328125 18.109375 8.203125 
z
M 48.6875 27.296875 
Q 48.6875 37.203125 44.609375 42.84375 
Q 40.53125 48.484375 33.40625 48.484375 
Q 26.265625 48.484375 22.1875 42.84375 
Q 18.109375 37.203125 18.109375 27.296875 
Q 18.109375 17.390625 22.1875 11.75 
Q 26.265625 6.109375 33.40625 6.109375 
Q 40.53125 6.109375 44.609375 11.75 
Q 48.6875 17.390625 48.6875 27.296875 
z
" id="DejaVuSans-70"/>
     </defs>
     <g transform="translate(16.139531 294.999375)rotate(-90)scale(0.17 -0.17)">
      <use xlink:href="#DejaVuSans-46"/>
      <use x="57.410156" xlink:href="#DejaVuSans-72"/>
      <use x="98.523438" xlink:href="#DejaVuSans-61"/>
      <use x="159.802734" xlink:href="#DejaVuSans-63"/>
      <use x="214.783203" xlink:href="#DejaVuSans-74"/>
      <use x="253.992188" xlink:href="#DejaVuSans-69"/>
      <use x="281.775391" xlink:href="#DejaVuSans-6f"/>
      <use x="342.957031" xlink:href="#DejaVuSans-6e"/>
      <use x="406.335938" xlink:href="#DejaVuSans-20"/>
      <use x="438.123047" xlink:href="#DejaVuSans-6f"/>
      <use x="499.304688" xlink:href="#DejaVuSans-66"/>
      <use x="534.509766" xlink:href="#DejaVuSans-20"/>
      <use x="566.296875" xlink:href="#DejaVuSans-66"/>
      <use x="601.501953" xlink:href="#DejaVuSans-75"/>
      <use x="664.880859" xlink:href="#DejaVuSans-6e"/>
      <use x="728.259766" xlink:href="#DejaVuSans-63"/>
      <use x="783.240234" xlink:href="#DejaVuSans-74"/>
      <use x="822.449219" xlink:href="#DejaVuSans-69"/>
      <use x="850.232422" xlink:href="#DejaVuSans-6f"/>
      <use x="911.414062" xlink:href="#DejaVuSans-6e"/>
      <use x="974.792969" xlink:href="#DejaVuSans-2c"/>
      <use x="1006.580078" xlink:href="#DejaVuSans-74"/>
      <use x="1045.789062" xlink:href="#DejaVuSans-61"/>
      <use x="1107.068359" xlink:href="#DejaVuSans-72"/>
      <use x="1148.166016" xlink:href="#DejaVuSans-67"/>
      <use x="1211.642578" xlink:href="#DejaVuSans-65"/>
      <use x="1273.166016" xlink:href="#DejaVuSans-74"/>
      <use x="1312.375" xlink:href="#DejaVuSans-20"/>
      <use x="1344.162109" xlink:href="#DejaVuSans-70"/>
      <use x="1407.638672" xlink:href="#DejaVuSans-61"/>
      <use x="1468.917969" xlink:href="#DejaVuSans-69"/>
      <use x="1496.701172" xlink:href="#DejaVuSans-72"/>
      <use x="1537.814453" xlink:href="#DejaVuSans-73"/>
     </g>
    </g>
   </g>
   <g id="line2d_27">
    <defs>
     <path d="M 0 1.5 
C 0.397805 1.5 0.77937 1.341951 1.06066 1.06066 
C 1.341951 0.77937 1.5 0.397805 1.5 0 
C 1.5 -0.397805 1.341951 -0.77937 1.06066 -1.06066 
C 0.77937 -1.341951 0.397805 -1.5 0 -1.5 
C -0.397805 -1.5 -0.77937 -1.341951 -1.06066 -1.06066 
C -1.341951 -0.77937 -1.5 -0.397805 -1.5 0 
C -1.5 0.397805 -1.341951 0.77937 -1.06066 1.06066 
C -0.77937 1.341951 -0.397805 1.5 0 1.5 
z
" id="ma8a69a6ac3" style="stroke:#f5deb3;"/>
    </defs>
    <g>
     <use style="fill:#f5deb3;stroke:#f5deb3;" x="183.507536" xlink:href="#ma8a69a6ac3" y="27.513663"/>
     <use style="fill:#f5deb3;stroke:#f5deb3;" x="183.507536" xlink:href="#ma8a69a6ac3" y="27.513663"/>
    </g>
   </g>
   <g id="line2d_28">
    <defs>
     <path d="M 0 1.5 
C 0.397805 1.5 0.77937 1.341951 1.06066 1.06066 
C 1.341951 0.77937 1.5 0.397805 1.5 0 
C 1.5 -0.397805 1.341951 -0.77937 1.06066 -1.06066 
C 0.77937 -1.341951 0.397805 -1.5 0 -1.5 
C -0.397805 -1.5 -0.77937 -1.341951 -1.06066 -1.06066 
C -1.341951 -0.77937 -1.5 -0.397805 -1.5 0 
C -1.5 0.397805 -1.341951 0.77937 -1.06066 1.06066 
C -0.77937 1.341951 -0.397805 1.5 0 1.5 
z
" id="mde7d174356" style="stroke:#000080;"/>
    </defs>
    <g>
     <use style="fill:#000080;stroke:#000080;" x="330.058501" xlink:href="#mde7d174356" y="169.060547"/>
     <use style="fill:#000080;stroke:#000080;" x="330.058501" xlink:href="#mde7d174356" y="169.060547"/>
    </g>
   </g>
   <g id="line2d_29">
    <path d="M 171.63014 294.88 
L 171.63014 294.355752 
L 174.432313 294.355752 
L 174.432313 293.831505 
L 176.076306 293.831505 
L 176.076306 293.307257 
L 176.612277 293.307257 
L 176.612277 292.258761 
L 177.085722 292.258761 
L 177.085722 291.734514 
L 177.55759 291.734514 
L 177.55759 291.210266 
L 177.977911 291.210266 
L 177.977911 290.686018 
L 178.275017 290.686018 
L 178.275017 290.161771 
L 179.525885 290.161771 
L 179.525885 289.113275 
L 179.766416 289.113275 
L 179.770971 287.540532 
L 180.762722 287.540532 
L 180.762722 286.492036 
L 181.003038 286.492036 
L 181.003038 285.967789 
L 181.559658 285.967789 
L 181.559658 285.443541 
L 181.674796 285.443541 
L 181.674796 284.919293 
L 182.09315 284.919293 
L 182.09315 284.395046 
L 182.634851 284.395046 
L 182.634851 283.870798 
L 183.35025 283.870798 
L 183.35025 282.822302 
L 183.470842 282.822302 
L 183.470842 281.773807 
L 183.830713 281.773807 
L 183.830713 281.249559 
L 184.026927 281.249559 
L 184.026927 280.201064 
L 184.142884 280.201064 
L 184.18623 278.104073 
L 184.444038 278.104073 
L 184.444038 277.579825 
L 184.799377 277.579825 
L 184.799377 277.055578 
L 185.575354 277.055578 
L 185.575354 276.007082 
L 187.246699 276.007082 
L 187.246699 275.482834 
L 187.391039 275.482834 
L 187.391039 274.958587 
L 188.015919 274.958587 
L 188.057371 273.910091 
L 188.147176 273.910091 
L 188.170752 271.8131 
L 188.545207 271.8131 
L 188.545207 271.288853 
L 189.530758 271.288853 
L 189.530758 270.764605 
L 190.439817 270.764605 
L 190.439817 270.240357 
L 191.437194 270.240357 
L 191.532379 268.667614 
L 192.031537 268.667614 
L 192.052901 267.619119 
L 192.355815 267.619119 
L 192.355815 267.094871 
L 192.640559 267.094871 
L 192.640559 266.570623 
L 192.833184 266.570623 
L 192.833184 266.046375 
L 193.132359 266.046375 
L 193.132359 265.522128 
L 193.328169 265.522128 
L 193.328169 264.99788 
L 193.774747 264.99788 
L 193.788293 263.949385 
L 193.962279 263.949385 
L 193.962279 263.425137 
L 194.583752 263.425137 
L 194.583752 262.900889 
L 194.872614 262.900889 
L 194.872614 262.376641 
L 195.039238 262.376641 
L 195.039238 261.328146 
L 195.42728 261.328146 
L 195.461817 260.279651 
L 195.546558 260.279651 
L 195.546558 259.231155 
L 195.700368 259.231155 
L 195.792665 255.037173 
L 196.261095 255.037173 
L 196.261095 254.512926 
L 196.59004 254.512926 
L 196.59004 253.988678 
L 198.996871 253.988678 
L 198.996871 253.46443 
L 199.137407 253.46443 
L 199.137407 252.940182 
L 199.717758 252.940182 
L 199.717758 251.891687 
L 200.103244 251.891687 
L 200.103244 251.367439 
L 201.099105 251.367439 
L 201.099105 250.843192 
L 201.757461 250.843192 
L 201.757461 249.270448 
L 202.500929 249.270448 
L 202.500929 248.221953 
L 204.636595 248.221953 
L 204.636595 247.697705 
L 205.431619 247.697705 
L 205.525805 245.076467 
L 206.436484 245.076467 
L 206.436484 244.552219 
L 206.654021 244.552219 
L 206.654021 244.027971 
L 207.20575 244.027971 
L 207.20575 242.979476 
L 207.347938 242.979476 
L 207.347938 242.455228 
L 207.924109 242.455228 
L 207.999317 241.406733 
L 208.867244 241.406733 
L 208.867244 240.882485 
L 209.027429 240.882485 
L 209.027429 240.358237 
L 209.347359 240.358237 
L 209.347359 239.83399 
L 209.580989 239.83399 
L 209.580989 239.309742 
L 210.053162 239.309742 
L 210.053162 238.785494 
L 211.366322 238.785494 
L 211.366322 238.261246 
L 211.622124 238.261246 
L 211.622124 236.688503 
L 212.392992 236.688503 
L 212.392992 236.164255 
L 212.923068 236.164255 
L 212.923068 235.11576 
L 213.239216 235.11576 
L 213.239216 234.591512 
L 213.664192 234.591512 
L 213.664192 233.543017 
L 214.778804 233.543017 
L 214.883859 231.970274 
L 215.074265 231.970274 
L 215.074265 231.446026 
L 216.093894 231.446026 
L 216.093894 230.921778 
L 216.416724 230.921778 
L 216.416724 230.397531 
L 217.046923 230.397531 
L 217.046923 229.349035 
L 217.252846 229.349035 
L 217.257559 227.776292 
L 218.656749 227.776292 
L 218.656749 227.252044 
L 219.020215 227.252044 
L 219.020215 226.727797 
L 220.621855 226.727797 
L 220.621855 226.203549 
L 222.744932 226.203549 
L 222.818644 223.58231 
L 223.218453 223.58231 
L 223.218453 223.058063 
L 223.935282 223.058063 
L 223.935282 222.533815 
L 225.308425 222.533815 
L 225.308425 222.009567 
L 227.078093 222.009567 
L 227.078093 221.485319 
L 227.680755 221.485319 
L 227.680755 220.961072 
L 230.630081 220.961072 
L 230.630081 219.912576 
L 230.904827 219.912576 
L 230.904827 219.388328 
L 231.964562 219.388328 
L 231.964562 218.864081 
L 234.55588 218.864081 
L 234.55588 218.339833 
L 234.729164 218.339833 
L 234.729164 217.815585 
L 234.915186 217.815585 
L 234.915186 216.242842 
L 235.390376 216.242842 
L 235.423455 215.194347 
L 235.61298 215.194347 
L 235.699795 212.573108 
L 236.76408 212.573108 
L 236.76408 212.04886 
L 238.031037 212.04886 
L 238.031037 210.476117 
L 239.431767 210.476117 
L 239.52634 209.427622 
L 240.100537 209.427622 
L 240.100537 207.330631 
L 240.549566 207.330631 
L 240.549566 206.282136 
L 241.297457 206.282136 
L 241.297457 205.757888 
L 242.121024 205.757888 
L 242.121024 204.709392 
L 242.319244 204.709392 
L 242.319244 204.185145 
L 244.102294 204.185145 
L 244.204967 202.612401 
L 245.923067 202.612401 
L 245.923067 202.088154 
L 246.533655 202.088154 
L 246.533655 201.039658 
L 247.493807 201.039658 
L 247.493807 200.515411 
L 248.23945 200.515411 
L 248.23945 199.991163 
L 250.94052 199.991163 
L 250.94052 198.41842 
L 252.137676 198.41842 
L 252.137676 197.894172 
L 254.159233 197.894172 
L 254.159233 197.369924 
L 254.915856 197.369924 
L 254.915856 196.321429 
L 255.39529 196.321429 
L 255.39529 195.797181 
L 257.984962 195.797181 
L 257.984962 195.272933 
L 260.191443 195.272933 
L 260.191443 194.748686 
L 261.002865 194.748686 
L 261.002865 193.70019 
L 261.501387 193.70019 
L 261.562612 191.603199 
L 261.691247 191.603199 
L 261.691247 191.078952 
L 264.157121 191.078952 
L 264.157121 190.554704 
L 264.734669 190.554704 
L 264.734669 188.981961 
L 267.437847 188.981961 
L 267.437847 188.457713 
L 267.608589 188.457713 
L 267.608589 187.933465 
L 269.386344 187.933465 
L 269.386344 187.409218 
L 269.857037 187.409218 
L 269.857037 186.360722 
L 270.723759 186.360722 
L 270.723759 185.836474 
L 271.039348 185.836474 
L 271.058353 184.787979 
L 272.131357 184.787979 
L 272.131357 184.263731 
L 273.199968 184.263731 
L 273.199968 183.739484 
L 273.592094 183.739484 
L 273.673625 182.690988 
L 275.740795 182.690988 
L 275.740795 182.16674 
L 278.370029 182.16674 
L 278.385577 181.118245 
L 279.028663 181.118245 
L 279.028663 180.593997 
L 280.8455 180.593997 
L 280.8455 180.06975 
L 281.602592 180.06975 
L 281.602592 179.545502 
L 282.435094 179.545502 
L 282.435094 179.021254 
L 283.962311 179.021254 
L 283.962311 178.497006 
L 286.363033 178.497006 
L 286.363033 177.972759 
L 288.176213 177.972759 
L 288.176213 177.448511 
L 289.12182 177.448511 
L 289.12182 176.924263 
L 292.144558 176.924263 
L 292.144558 176.400016 
L 292.648233 176.400016 
L 292.648233 175.875768 
L 294.094454 175.875768 
L 294.094454 175.35152 
L 294.88214 175.35152 
L 294.88214 174.827272 
L 297.243518 174.827272 
L 297.243518 174.303025 
L 297.632024 174.303025 
L 297.632024 173.254529 
L 300.772367 173.254529 
L 300.772367 172.206034 
L 305.726304 172.206034 
L 305.726304 171.681786 
L 309.568102 171.681786 
L 309.568102 171.157538 
L 310.01391 171.157538 
L 310.01391 170.633291 
L 311.208861 170.633291 
L 311.208861 170.109043 
L 312.706681 170.109043 
L 312.706681 169.584795 
L 330.058501 169.584795 
L 330.058501 169.060547 
L 333.429677 169.060547 
L 333.429677 169.060547 
" style="fill:none;stroke:#000080;stroke-linecap:square;stroke-width:1.5;"/>
   </g>
   <g id="line2d_30">
    <defs>
     <path d="M 0 6 
C 1.591219 6 3.117479 5.367802 4.242641 4.242641 
C 5.367802 3.117479 6 1.591219 6 0 
C 6 -1.591219 5.367802 -3.117479 4.242641 -4.242641 
C 3.117479 -5.367802 1.591219 -6 0 -6 
C -1.591219 -6 -3.117479 -5.367802 -4.242641 -4.242641 
C -5.367802 -3.117479 -6 -1.591219 -6 0 
C -6 1.591219 -5.367802 3.117479 -4.242641 4.242641 
C -3.117479 5.367802 -1.591219 6 0 6 
z
" id="m8f86ac6442" style="stroke:#000080;stroke-width:1.5;"/>
    </defs>
    <g>
     <use style="fill-opacity:0;stroke:#000080;stroke-width:1.5;" x="220.621855" xlink:href="#m8f86ac6442" y="226.727797"/>
     <use style="fill-opacity:0;stroke:#000080;stroke-width:1.5;" x="273.673625" xlink:href="#m8f86ac6442" y="183.215236"/>
     <use style="fill-opacity:0;stroke:#000080;stroke-width:1.5;" x="330.058501" xlink:href="#m8f86ac6442" y="169.060547"/>
     <use style="fill-opacity:0;stroke:#000080;stroke-width:1.5;" x="333.429677" xlink:href="#m8f86ac6442" y="169.060547"/>
    </g>
   </g>
   <g id="line2d_31">
    <path style="fill:none;stroke:#000080;stroke-linecap:square;stroke-width:1.5;"/>
    <g/>
   </g>
   <g id="line2d_32">
    <path clip-path="url(#p8e581e3ca5)" d="M 269.963 186.360722 
" style="fill:none;stroke:#000080;stroke-linecap:square;stroke-width:1.5;"/>
    <defs>
     <path d="M -12 12 
L 12 -12 
M -12 -12 
L 12 12 
" id="m64a9266160" style="stroke:#000080;stroke-width:3;"/>
    </defs>
    <g clip-path="url(#p8e581e3ca5)">
     <use style="fill:#000080;stroke:#000080;stroke-width:3;" x="269.963" xlink:href="#m64a9266160" y="186.360722"/>
    </g>
   </g>
   <g id="line2d_33">
    <defs>
     <path d="M 0 1.5 
C 0.397805 1.5 0.77937 1.341951 1.06066 1.06066 
C 1.341951 0.77937 1.5 0.397805 1.5 0 
C 1.5 -0.397805 1.341951 -0.77937 1.06066 -1.06066 
C 0.77937 -1.341951 0.397805 -1.5 0 -1.5 
C -0.397805 -1.5 -0.77937 -1.341951 -1.06066 -1.06066 
C -1.341951 -0.77937 -1.5 -0.397805 -1.5 0 
C -1.5 0.397805 -1.341951 0.77937 -1.06066 1.06066 
C -0.77937 1.341951 -0.397805 1.5 0 1.5 
z
" id="m8ff89ff1b8" style="stroke:#ff00ff;"/>
    </defs>
    <g>
     <use style="fill:#ff00ff;stroke:#ff00ff;" x="355.658707" xlink:href="#m8ff89ff1b8" y="95.665867"/>
     <use style="fill:#ff00ff;stroke:#ff00ff;" x="355.658707" xlink:href="#m8ff89ff1b8" y="95.665867"/>
    </g>
   </g>
   <g id="line2d_34">
    <path d="M 142.56085 294.88 
L 142.56085 294.355752 
L 143.232155 294.355752 
L 143.232155 293.831505 
L 143.351446 293.831505 
L 143.351446 292.258761 
L 144.318029 292.258761 
L 144.323137 291.210266 
L 144.746849 291.210266 
L 144.836303 290.161771 
L 145.233186 290.161771 
L 145.233186 289.637523 
L 146.032896 289.637523 
L 146.032896 289.113275 
L 146.614781 289.113275 
L 146.614781 288.589027 
L 147.302629 288.589027 
L 147.324089 287.540532 
L 148.517107 287.540532 
L 148.517107 287.016284 
L 149.322388 287.016284 
L 149.322388 285.967789 
L 149.466904 285.967789 
L 149.466904 284.919293 
L 150.932651 284.919293 
L 150.932651 284.395046 
L 151.355193 284.395046 
L 151.433067 281.773807 
L 152.357062 281.773807 
L 152.357062 281.249559 
L 153.778949 281.249559 
L 153.778949 280.725312 
L 154.007335 280.725312 
L 154.007335 280.201064 
L 154.769719 280.201064 
L 154.769719 279.676816 
L 154.913809 279.676816 
L 154.913809 279.152568 
L 155.029316 279.152568 
L 155.029316 278.628321 
L 156.102478 278.628321 
L 156.102478 278.104073 
L 156.831062 278.104073 
L 156.936878 277.055578 
L 157.163533 277.055578 
L 157.163533 276.53133 
L 157.339378 276.53133 
L 157.339378 276.007082 
L 158.233611 276.007082 
L 158.233611 274.434339 
L 158.902972 274.434339 
L 158.902972 273.910091 
L 160.047917 273.910091 
L 160.047917 273.385844 
L 161.633092 273.385844 
L 161.633092 272.861596 
L 161.783679 272.861596 
L 161.783679 272.337348 
L 162.189766 272.337348 
L 162.189766 271.8131 
L 162.600616 271.8131 
L 162.600616 271.288853 
L 165.811704 271.288853 
L 165.811704 270.764605 
L 165.982216 270.764605 
L 165.982216 270.240357 
L 166.396294 270.240357 
L 166.396294 269.191862 
L 168.329203 269.191862 
L 168.329203 268.667614 
L 169.124109 268.667614 
L 169.124109 268.143366 
L 170.150012 268.143366 
L 170.150012 267.619119 
L 173.309389 267.619119 
L 173.38406 266.570623 
L 197.102994 266.570623 
L 197.102994 266.046375 
L 197.982768 266.046375 
L 197.982768 265.522128 
L 198.718584 265.522128 
L 198.718584 264.99788 
L 199.447039 264.99788 
L 199.50789 263.425137 
L 199.714288 263.425137 
L 199.714288 262.900889 
L 199.830866 262.900889 
L 199.881685 261.852394 
L 200.001557 261.852394 
L 200.04707 260.803898 
L 200.133752 260.803898 
L 200.199372 259.231155 
L 200.381787 259.231155 
L 200.381787 258.706907 
L 201.485019 258.706907 
L 201.485019 258.18266 
L 202.63651 258.18266 
L 202.63651 257.658412 
L 208.420301 257.658412 
L 208.420301 256.609917 
L 209.536293 256.609917 
L 209.536293 256.085669 
L 210.120971 256.085669 
L 210.120971 255.561421 
L 210.471696 255.561421 
L 210.471696 254.512926 
L 211.58141 254.512926 
L 211.58141 253.46443 
L 221.334852 253.46443 
L 221.334852 252.940182 
L 221.604693 252.940182 
L 221.604693 251.891687 
L 221.817062 251.891687 
L 221.817062 250.843192 
L 221.965677 250.843192 
L 221.965677 249.794696 
L 222.115685 249.794696 
L 222.115685 249.270448 
L 224.226461 249.270448 
L 224.226461 248.746201 
L 224.454348 248.746201 
L 224.454348 247.697705 
L 224.704589 247.697705 
L 224.704589 247.173458 
L 225.032229 247.173458 
L 225.110269 246.124962 
L 225.18085 246.124962 
L 225.228176 244.552219 
L 225.333403 244.552219 
L 225.333403 243.503724 
L 225.480004 243.503724 
L 225.537714 241.93098 
L 225.780328 241.93098 
L 225.884114 240.358237 
L 225.895618 240.358237 
L 225.96705 236.164255 
L 226.00828 236.164255 
L 226.082643 234.591512 
L 226.178271 234.591512 
L 226.24876 233.018769 
L 228.48074 233.018769 
L 228.48074 232.494521 
L 228.607299 232.494521 
L 228.607299 231.970274 
L 233.682379 231.970274 
L 233.682379 231.446026 
L 233.940175 231.446026 
L 233.940175 230.397531 
L 234.116977 230.397531 
L 234.116977 229.873283 
L 234.275228 229.873283 
L 234.32519 227.776292 
L 234.514635 227.776292 
L 234.514635 226.727797 
L 235.033648 226.727797 
L 235.033648 226.203549 
L 235.481229 226.203549 
L 235.524783 224.106558 
L 235.636199 224.106558 
L 235.636199 223.58231 
L 235.907626 223.58231 
L 235.907626 223.058063 
L 237.316697 223.058063 
L 237.382251 222.009567 
L 238.790905 222.009567 
L 238.790905 221.485319 
L 241.718326 221.485319 
L 241.828898 218.339833 
L 241.880813 218.339833 
L 241.922162 216.242842 
L 242.824317 216.242842 
L 242.909781 215.194347 
L 244.009694 215.194347 
L 244.009694 214.670099 
L 244.721172 214.670099 
L 244.794153 213.097356 
L 244.8595 213.097356 
L 244.8595 212.04886 
L 246.021103 212.04886 
L 246.021103 210.476117 
L 246.775115 210.476117 
L 246.814311 209.427622 
L 247.076283 209.427622 
L 247.12142 207.854879 
L 248.756105 207.854879 
L 248.756105 207.330631 
L 249.374381 207.330631 
L 249.431277 205.23364 
L 249.551292 205.23364 
L 249.551292 204.709392 
L 250.33617 204.709392 
L 250.395461 203.136649 
L 253.305974 203.136649 
L 253.412222 198.41842 
L 253.438244 198.41842 
L 253.474852 197.369924 
L 253.923905 197.369924 
L 253.923905 195.797181 
L 256.692197 195.797181 
L 256.692197 194.748686 
L 258.355425 194.748686 
L 258.355425 193.70019 
L 258.533606 193.70019 
L 258.533606 193.175943 
L 260.428707 193.175943 
L 260.476098 189.506209 
L 262.812236 189.506209 
L 262.812236 188.981961 
L 263.161351 188.981961 
L 263.161351 187.933465 
L 265.239128 187.933465 
L 265.273137 185.836474 
L 265.384671 185.836474 
L 265.384671 184.787979 
L 266.519368 184.787979 
L 266.536807 183.215236 
L 266.980458 183.215236 
L 266.980458 182.690988 
L 269.002506 182.690988 
L 269.053065 177.972759 
L 269.440461 177.972759 
L 269.440461 177.448511 
L 271.508503 177.448511 
L 271.535418 174.303025 
L 272.674557 174.303025 
L 272.684225 173.254529 
L 274.440904 173.254529 
L 274.445288 171.681786 
L 275.242485 171.681786 
L 275.278483 165.915061 
L 276.948853 165.915061 
L 276.962732 163.293823 
L 278.060701 163.293823 
L 278.104903 157.527098 
L 281.333472 157.527098 
L 281.346231 153.333116 
L 282.551264 153.333116 
L 282.566564 150.18763 
L 282.87971 150.18763 
L 282.87971 149.663382 
L 283.737075 149.663382 
L 283.75756 144.420905 
L 286.191897 144.420905 
L 286.204363 141.275418 
L 288.913231 141.275418 
L 288.916947 138.65418 
L 292.008158 138.65418 
L 292.02017 135.508693 
L 292.696115 135.508693 
L 292.696115 134.984446 
L 294.148908 134.984446 
L 294.148908 134.460198 
L 297.980094 134.460198 
L 297.981598 132.887455 
L 298.230753 132.887455 
L 298.232951 131.314712 
L 298.850936 131.314712 
L 298.855765 129.217721 
L 299.296637 129.217721 
L 299.301189 127.12073 
L 299.616309 127.12073 
L 299.618877 125.023739 
L 300.608512 125.023739 
L 300.608512 124.499491 
L 301.020264 124.499491 
L 301.021465 122.4025 
L 301.430095 122.4025 
L 301.430095 121.878253 
L 304.859576 121.878253 
L 304.863586 120.829757 
L 305.189656 120.829757 
L 305.189656 120.30551 
L 306.544469 120.30551 
L 306.544469 119.781262 
L 307.667205 119.781262 
L 307.667205 119.257014 
L 308.445417 119.257014 
L 308.445417 118.732766 
L 308.698295 118.732766 
L 308.699933 117.160023 
L 308.883525 117.160023 
L 308.884132 115.58728 
L 309.143484 115.58728 
L 309.143484 115.063032 
L 309.970712 115.063032 
L 309.970712 114.538785 
L 312.136125 114.538785 
L 312.137067 113.490289 
L 314.218399 113.490289 
L 314.219683 112.441794 
L 314.563776 112.441794 
L 314.564342 110.869051 
L 314.873252 110.869051 
L 314.875464 108.77206 
L 315.466443 108.77206 
L 315.466443 108.247812 
L 315.647407 108.247812 
L 315.647407 107.723564 
L 317.233033 107.723564 
L 317.233033 107.199317 
L 319.308504 107.199317 
L 319.309528 106.150821 
L 322.483438 106.150821 
L 322.483438 105.626573 
L 322.750555 105.626573 
L 322.832408 104.05383 
L 324.354222 104.05383 
L 324.354721 103.005335 
L 325.754866 103.005335 
L 325.754866 102.481087 
L 327.048051 102.481087 
L 327.048051 101.956839 
L 328.192027 101.956839 
L 328.25223 100.908344 
L 331.426323 100.908344 
L 331.426323 100.384096 
L 332.367152 100.384096 
L 332.367152 99.859849 
L 333.258486 99.859849 
L 333.258486 99.335601 
L 333.429677 99.335601 
L 333.429677 99.335601 
" style="fill:none;stroke:#ff00ff;stroke-linecap:square;stroke-width:1.5;"/>
   </g>
   <g id="line2d_35">
    <defs>
     <path d="M -0 8.485281 
L 5.091169 0 
L 0 -8.485281 
L -5.091169 -0 
z
" id="mdc7dbf7a50" style="stroke:#ff00ff;stroke-linejoin:miter;stroke-width:1.5;"/>
    </defs>
    <g>
     <use style="fill-opacity:0;stroke:#ff00ff;stroke-linejoin:miter;stroke-width:1.5;" x="228.607299" xlink:href="#mdc7dbf7a50" y="232.494521"/>
     <use style="fill-opacity:0;stroke:#ff00ff;stroke-linejoin:miter;stroke-width:1.5;" x="278.104903" xlink:href="#mdc7dbf7a50" y="157.527098"/>
     <use style="fill-opacity:0;stroke:#ff00ff;stroke-linejoin:miter;stroke-width:1.5;" x="319.309528" xlink:href="#mdc7dbf7a50" y="106.150821"/>
     <use style="fill-opacity:0;stroke:#ff00ff;stroke-linejoin:miter;stroke-width:1.5;" x="333.258486" xlink:href="#mdc7dbf7a50" y="99.335601"/>
     <use style="fill-opacity:0;stroke:#ff00ff;stroke-linejoin:miter;stroke-width:1.5;" x="333.429677" xlink:href="#mdc7dbf7a50" y="99.335601"/>
    </g>
   </g>
   <g id="line2d_36">
    <path style="fill:none;stroke:#ff00ff;stroke-linecap:square;stroke-width:1.5;"/>
    <g/>
   </g>
   <g id="line2d_37">
    <path clip-path="url(#p8e581e3ca5)" d="M 293.814022 134.984446 
" style="fill:none;stroke:#ff00ff;stroke-linecap:square;stroke-width:1.5;"/>
    <defs>
     <path d="M -12 12 
L 12 -12 
M -12 -12 
L 12 12 
" id="m49e6379cba" style="stroke:#ff00ff;stroke-width:3;"/>
    </defs>
    <g clip-path="url(#p8e581e3ca5)">
     <use style="fill:#ff00ff;stroke:#ff00ff;stroke-width:3;" x="293.814022" xlink:href="#m49e6379cba" y="134.984446"/>
    </g>
   </g>
   <g id="line2d_38">
    <defs>
     <path d="M 0 1.5 
C 0.397805 1.5 0.77937 1.341951 1.06066 1.06066 
C 1.341951 0.77937 1.5 0.397805 1.5 0 
C 1.5 -0.397805 1.341951 -0.77937 1.06066 -1.06066 
C 0.77937 -1.341951 0.397805 -1.5 0 -1.5 
C -0.397805 -1.5 -0.77937 -1.341951 -1.06066 -1.06066 
C -1.341951 -0.77937 -1.5 -0.397805 -1.5 0 
C -1.5 0.397805 -1.341951 0.77937 -1.06066 1.06066 
C -0.77937 1.341951 -0.397805 1.5 0 1.5 
z
" id="mb55291c142" style="stroke:#ffa500;"/>
    </defs>
    <g>
     <use style="fill:#ffa500;stroke:#ffa500;" x="323.824708" xlink:href="#mb55291c142" y="252.940182"/>
     <use style="fill:#ffa500;stroke:#ffa500;" x="323.824708" xlink:href="#mb55291c142" y="252.940182"/>
    </g>
   </g>
   <g id="line2d_39">
    <path d="M 203.82396 294.88 
L 203.82396 294.355752 
L 204.790635 294.355752 
L 204.790635 293.831505 
L 205.002557 293.831505 
L 205.002557 292.783009 
L 205.436157 292.783009 
L 205.436157 292.258761 
L 206.429577 292.258761 
L 206.429577 291.734514 
L 206.826226 291.734514 
L 206.826226 291.210266 
L 206.983886 291.210266 
L 206.983886 290.686018 
L 207.158665 290.686018 
L 207.158665 290.161771 
L 207.31214 290.161771 
L 207.390589 288.589027 
L 208.651722 288.589027 
L 208.651722 288.06478 
L 209.299011 288.06478 
L 209.299011 287.540532 
L 209.481878 287.540532 
L 209.481878 287.016284 
L 209.596628 287.016284 
L 209.596628 286.492036 
L 210.308039 286.492036 
L 210.308039 285.967789 
L 211.183346 285.967789 
L 211.183346 284.395046 
L 211.984484 284.395046 
L 211.984484 283.870798 
L 212.463484 283.870798 
L 212.463484 283.34655 
L 212.783813 283.34655 
L 212.783813 281.773807 
L 213.151282 281.773807 
L 213.151282 281.249559 
L 213.799048 281.249559 
L 213.799048 280.725312 
L 214.459823 280.725312 
L 214.459823 280.201064 
L 214.605025 280.201064 
L 214.710118 279.152568 
L 215.722031 279.152568 
L 215.722031 278.628321 
L 216.051532 278.628321 
L 216.051532 277.055578 
L 216.309138 277.055578 
L 216.309138 276.53133 
L 217.096573 276.53133 
L 217.096573 276.007082 
L 217.348921 276.007082 
L 217.348921 274.958587 
L 217.771028 274.958587 
L 217.771028 274.434339 
L 218.768938 274.434339 
L 218.768938 273.910091 
L 219.211174 273.910091 
L 219.211174 273.385844 
L 219.381108 273.385844 
L 219.381108 272.337348 
L 219.708487 272.337348 
L 219.708487 271.8131 
L 220.673737 271.8131 
L 220.673737 270.764605 
L 221.031584 270.764605 
L 221.031584 269.716109 
L 221.437153 269.716109 
L 221.437153 269.191862 
L 225.081273 269.191862 
L 225.081273 268.667614 
L 225.395919 268.667614 
L 225.395919 268.143366 
L 226.486399 268.143366 
L 226.486399 267.619119 
L 255.946758 267.619119 
L 255.946758 267.094871 
L 256.383018 267.094871 
L 256.475235 266.046375 
L 256.644131 266.046375 
L 256.644131 265.522128 
L 257.16467 265.522128 
L 257.16467 264.99788 
L 257.37314 264.99788 
L 257.37314 264.473632 
L 258.115224 264.473632 
L 258.115224 263.949385 
L 267.1026 263.949385 
L 267.1026 263.425137 
L 267.225427 263.425137 
L 267.225427 262.900889 
L 274.514149 262.900889 
L 274.514149 262.376641 
L 278.8203 262.376641 
L 278.908086 260.803898 
L 282.383424 260.803898 
L 282.383424 260.279651 
L 282.533222 260.279651 
L 282.533222 259.755403 
L 290.52611 259.755403 
L 290.52611 259.231155 
L 292.354655 259.231155 
L 292.390543 258.18266 
L 294.069081 258.18266 
L 294.069081 257.658412 
L 295.745574 257.658412 
L 295.745574 257.134164 
L 298.576946 257.134164 
L 298.576946 256.085669 
L 300.964356 256.085669 
L 301.007544 255.037173 
L 309.017033 255.037173 
L 309.017033 254.512926 
L 318.993164 254.512926 
L 318.993164 253.988678 
L 319.387061 253.988678 
L 319.387061 253.46443 
L 323.824708 253.46443 
L 323.824708 252.940182 
L 333.429677 252.940182 
L 333.429677 252.940182 
" style="fill:none;stroke:#ffa500;stroke-linecap:square;stroke-width:1.5;"/>
   </g>
   <g id="line2d_40">
    <defs>
     <path d="M 0 -6 
L -1.347084 -1.854102 
L -5.706339 -1.854102 
L -2.179628 0.708204 
L -3.526712 4.854102 
L -0 2.291796 
L 3.526712 4.854102 
L 2.179628 0.708204 
L 5.706339 -1.854102 
L 1.347084 -1.854102 
z
" id="mbc21cb42d2" style="stroke:#ffa500;stroke-linejoin:bevel;stroke-width:1.5;"/>
    </defs>
    <g>
     <use style="fill-opacity:0;stroke:#ffa500;stroke-linejoin:bevel;stroke-width:1.5;" x="226.486399" xlink:href="#mbc21cb42d2" y="268.143366"/>
     <use style="fill-opacity:0;stroke:#ffa500;stroke-linejoin:bevel;stroke-width:1.5;" x="282.533222" xlink:href="#mbc21cb42d2" y="259.755403"/>
     <use style="fill-opacity:0;stroke:#ffa500;stroke-linejoin:bevel;stroke-width:1.5;" x="323.824708" xlink:href="#mbc21cb42d2" y="252.940182"/>
     <use style="fill-opacity:0;stroke:#ffa500;stroke-linejoin:bevel;stroke-width:1.5;" x="333.429677" xlink:href="#mbc21cb42d2" y="252.940182"/>
    </g>
   </g>
   <g id="line2d_41">
    <path style="fill:none;stroke:#ffa500;stroke-linecap:square;stroke-width:1.5;"/>
    <g/>
   </g>
   <g id="line2d_42">
    <path clip-path="url(#p8e581e3ca5)" d="M 254.210174 267.619119 
" style="fill:none;stroke:#ffa500;stroke-linecap:square;stroke-width:1.5;"/>
    <defs>
     <path d="M -12 12 
L 12 -12 
M -12 -12 
L 12 12 
" id="m1b367e3243" style="stroke:#ffa500;stroke-width:3;"/>
    </defs>
    <g clip-path="url(#p8e581e3ca5)">
     <use style="fill:#ffa500;stroke:#ffa500;stroke-width:3;" x="254.210174" xlink:href="#m1b367e3243" y="267.619119"/>
    </g>
   </g>
   <g id="line2d_43">
    <defs>
     <path d="M 0 1.5 
C 0.397805 1.5 0.77937 1.341951 1.06066 1.06066 
C 1.341951 0.77937 1.5 0.397805 1.5 0 
C 1.5 -0.397805 1.341951 -0.77937 1.06066 -1.06066 
C 0.77937 -1.341951 0.397805 -1.5 0 -1.5 
C -0.397805 -1.5 -0.77937 -1.341951 -1.06066 -1.06066 
C -1.341951 -0.77937 -1.5 -0.397805 -1.5 0 
C -1.5 0.397805 -1.341951 0.77937 -1.06066 1.06066 
C -0.77937 1.341951 -0.397805 1.5 0 1.5 
z
" id="me4229d6f8a" style="stroke:#6495ed;"/>
    </defs>
    <g>
     <use style="fill:#6495ed;stroke:#6495ed;" x="328.483172" xlink:href="#me4229d6f8a" y="116.635776"/>
     <use style="fill:#6495ed;stroke:#6495ed;" x="328.483172" xlink:href="#me4229d6f8a" y="116.635776"/>
    </g>
   </g>
   <g id="line2d_44">
    <path d="M 148.287463 294.88 
L 148.287463 294.355752 
L 149.272669 294.355752 
L 149.272669 293.831505 
L 151.005531 293.831505 
L 151.060852 292.783009 
L 152.069742 292.783009 
L 152.069742 292.258761 
L 152.636512 292.258761 
L 152.636512 291.734514 
L 153.949063 291.734514 
L 153.949063 291.210266 
L 154.372828 291.210266 
L 154.372828 290.161771 
L 154.730718 290.161771 
L 154.730718 289.637523 
L 155.255322 289.637523 
L 155.255322 289.113275 
L 155.40883 289.113275 
L 155.40883 287.540532 
L 156.895121 287.540532 
L 156.895121 287.016284 
L 157.781796 287.016284 
L 157.781796 286.492036 
L 157.953776 286.492036 
L 158.041427 284.919293 
L 158.79981 284.919293 
L 158.892026 283.34655 
L 159.574644 283.34655 
L 159.574644 282.822302 
L 160.338241 282.822302 
L 160.338241 281.773807 
L 160.456612 281.773807 
L 160.456612 280.725312 
L 161.221138 280.725312 
L 161.261254 278.628321 
L 162.037236 278.628321 
L 162.037236 277.579825 
L 163.282394 277.579825 
L 163.282394 277.055578 
L 163.417587 277.055578 
L 163.44954 276.007082 
L 163.676538 276.007082 
L 163.676538 275.482834 
L 164.81063 275.482834 
L 164.81063 274.434339 
L 166.232714 274.434339 
L 166.232714 273.910091 
L 166.526046 273.910091 
L 166.526046 273.385844 
L 167.742353 273.385844 
L 167.742353 272.861596 
L 167.906521 272.861596 
L 167.906521 272.337348 
L 168.622753 272.337348 
L 168.622753 271.8131 
L 169.177185 271.8131 
L 169.177185 271.288853 
L 170.298473 271.288853 
L 170.298473 270.764605 
L 171.506461 270.764605 
L 171.541139 268.143366 
L 172.952388 268.143366 
L 172.952388 267.619119 
L 174.180229 267.619119 
L 174.180229 267.094871 
L 174.956679 267.094871 
L 174.956679 266.570623 
L 178.63672 266.570623 
L 178.63672 266.046375 
L 182.29492 266.046375 
L 182.29492 264.99788 
L 183.558777 264.99788 
L 183.558777 264.473632 
L 184.247033 264.473632 
L 184.247033 263.949385 
L 185.836185 263.949385 
L 185.836185 263.425137 
L 188.188713 263.425137 
L 188.188713 262.900889 
L 189.30046 262.900889 
L 189.30046 262.376641 
L 190.108359 262.376641 
L 190.108359 261.852394 
L 192.132382 261.852394 
L 192.132382 261.328146 
L 254.242732 261.328146 
L 254.350702 253.46443 
L 254.35799 253.46443 
L 254.459751 248.746201 
L 254.479515 248.746201 
L 254.578198 244.552219 
L 266.143156 244.552219 
L 266.239302 234.591512 
L 266.255047 234.591512 
L 266.35558 227.252044 
L 273.129102 227.252044 
L 273.237538 214.145851 
L 273.254654 214.145851 
L 273.254654 213.621604 
L 278.075219 213.621604 
L 278.165607 206.282136 
L 281.908112 206.282136 
L 281.971269 199.991163 
L 285.045792 199.991163 
L 285.102915 194.224438 
L 287.692629 194.224438 
L 287.724843 187.409218 
L 290.000189 187.409218 
L 290.016317 183.215236 
L 292.014844 183.215236 
L 292.042471 177.448511 
L 293.830041 177.448511 
L 293.852375 173.254529 
L 295.471486 173.254529 
L 295.496174 169.060547 
L 296.96595 169.060547 
L 296.975398 166.439309 
L 298.338771 166.439309 
L 298.35837 162.245327 
L 299.615932 162.245327 
L 299.631216 160.148336 
L 300.802947 160.148336 
L 300.817614 156.478602 
L 301.912514 156.478602 
L 301.929497 154.381611 
L 302.953375 154.381611 
L 302.970823 150.711877 
L 303.942542 150.711877 
L 303.952703 148.614886 
L 304.866067 148.614886 
L 304.877838 144.945152 
L 305.748589 144.945152 
L 305.758055 142.323914 
L 306.589748 142.323914 
L 306.590376 141.275418 
L 307.389841 141.275418 
L 307.397294 138.65418 
L 308.156923 138.65418 
L 308.159569 137.605684 
L 308.889089 137.605684 
L 308.889089 137.081437 
L 309.586449 137.081437 
L 309.586449 136.557189 
L 310.260937 136.557189 
L 310.265677 135.508693 
L 310.909496 135.508693 
L 310.917426 133.411703 
L 311.540027 133.411703 
L 311.540027 132.887455 
L 312.144485 132.887455 
L 312.144485 132.363207 
L 312.724265 132.363207 
L 312.729308 131.314712 
L 313.286952 131.314712 
L 313.286952 130.790464 
L 314.36285 130.790464 
L 314.36285 130.266216 
L 314.876244 130.266216 
L 314.876244 129.741969 
L 315.374761 129.741969 
L 315.375153 128.693473 
L 315.861527 128.693473 
L 315.861527 128.169225 
L 316.329455 128.169225 
L 316.331976 127.12073 
L 316.792628 127.12073 
L 316.792628 126.596482 
L 317.238554 126.596482 
L 317.238554 126.072235 
L 317.669881 126.072235 
L 317.673915 124.499491 
L 318.094851 124.499491 
L 318.09732 122.4025 
L 318.510717 122.4025 
L 318.510717 121.878253 
L 319.308943 121.878253 
L 319.311777 120.829757 
L 321.162249 120.829757 
L 321.162249 120.30551 
L 322.832221 120.30551 
L 322.832221 119.781262 
L 324.93068 119.781262 
L 324.93068 119.257014 
L 325.485464 119.257014 
L 325.485464 118.732766 
L 325.756423 118.732766 
L 325.756423 118.208519 
L 326.021108 118.208519 
L 326.021108 117.684271 
L 326.79908 117.684271 
L 326.79908 117.160023 
L 328.483172 117.160023 
L 328.483172 116.635776 
L 333.429677 116.635776 
L 333.429677 116.635776 
" style="fill:none;stroke:#6495ed;stroke-linecap:square;stroke-width:1.5;"/>
   </g>
   <g id="line2d_45">
    <defs>
     <path d="M -0 6 
L 6 -6 
L -6 -6 
z
" id="m7e0991ab89" style="stroke:#6495ed;stroke-linejoin:miter;stroke-width:1.5;"/>
    </defs>
    <g>
     <use style="fill-opacity:0;stroke:#6495ed;stroke-linejoin:miter;stroke-width:1.5;" x="192.132382" xlink:href="#m7e0991ab89" y="261.852394"/>
     <use style="fill-opacity:0;stroke:#6495ed;stroke-linejoin:miter;stroke-width:1.5;" x="254.265438" xlink:href="#m7e0991ab89" y="259.755403"/>
     <use style="fill-opacity:0;stroke:#6495ed;stroke-linejoin:miter;stroke-width:1.5;" x="296.975398" xlink:href="#m7e0991ab89" y="166.439309"/>
     <use style="fill-opacity:0;stroke:#6495ed;stroke-linejoin:miter;stroke-width:1.5;" x="328.483172" xlink:href="#m7e0991ab89" y="116.635776"/>
     <use style="fill-opacity:0;stroke:#6495ed;stroke-linejoin:miter;stroke-width:1.5;" x="333.429677" xlink:href="#m7e0991ab89" y="116.635776"/>
    </g>
   </g>
   <g id="line2d_46">
    <path style="fill:none;stroke:#6495ed;stroke-linecap:square;stroke-width:1.5;"/>
    <g/>
   </g>
   <g id="line2d_47">
    <path clip-path="url(#p8e581e3ca5)" d="M 254.198341 261.328146 
" style="fill:none;stroke:#6495ed;stroke-linecap:square;stroke-width:1.5;"/>
    <defs>
     <path d="M -12 12 
L 12 -12 
M -12 -12 
L 12 12 
" id="m630c9c0acb" style="stroke:#6495ed;stroke-width:3;"/>
    </defs>
    <g clip-path="url(#p8e581e3ca5)">
     <use style="fill:#6495ed;stroke:#6495ed;stroke-width:3;" x="254.198341" xlink:href="#m630c9c0acb" y="261.328146"/>
    </g>
   </g>
   <g id="line2d_48">
    <defs>
     <path d="M 0 1.5 
C 0.397805 1.5 0.77937 1.341951 1.06066 1.06066 
C 1.341951 0.77937 1.5 0.397805 1.5 0 
C 1.5 -0.397805 1.341951 -0.77937 1.06066 -1.06066 
C 0.77937 -1.341951 0.397805 -1.5 0 -1.5 
C -0.397805 -1.5 -0.77937 -1.341951 -1.06066 -1.06066 
C -1.341951 -0.77937 -1.5 -0.397805 -1.5 0 
C -1.5 0.397805 -1.341951 0.77937 -1.06066 1.06066 
C -0.77937 1.341951 -0.397805 1.5 0 1.5 
z
" id="md51373a792" style="stroke:#ff0000;"/>
    </defs>
    <g>
     <use style="fill:#ff0000;stroke:#ff0000;" x="271.210529" xlink:href="#md51373a792" y="106.150821"/>
     <use style="fill:#ff0000;stroke:#ff0000;" x="271.210529" xlink:href="#md51373a792" y="106.150821"/>
    </g>
   </g>
   <g id="line2d_49">
    <path d="M 100.835088 294.88 
L 100.835088 294.355752 
L 103.164427 294.355752 
L 103.164427 292.783009 
L 103.822018 292.783009 
L 103.822018 292.258761 
L 104.246851 292.258761 
L 104.246851 291.210266 
L 104.610165 291.210266 
L 104.610165 290.686018 
L 105.215677 290.686018 
L 105.215677 290.161771 
L 105.991239 290.161771 
L 105.991239 289.637523 
L 106.226603 289.637523 
L 106.319855 288.06478 
L 106.596615 288.06478 
L 106.596615 286.492036 
L 107.53165 286.492036 
L 107.53165 285.967789 
L 107.704131 285.967789 
L 107.789728 284.919293 
L 107.832367 284.919293 
L 107.917329 282.822302 
L 108.582334 282.822302 
L 108.623056 280.201064 
L 108.865382 280.201064 
L 108.90544 279.152568 
L 109.610977 279.152568 
L 109.610977 278.104073 
L 109.990791 278.104073 
L 109.990791 277.579825 
L 110.472337 277.579825 
L 110.508826 276.007082 
L 111.327413 276.007082 
L 111.327413 274.958587 
L 111.465883 274.958587 
L 111.465883 274.434339 
L 111.603248 274.434339 
L 111.705557 273.385844 
L 112.306953 273.385844 
L 112.306953 272.861596 
L 113.511469 272.861596 
L 113.511469 271.8131 
L 114.464231 271.8131 
L 114.522062 269.716109 
L 114.637146 269.716109 
L 114.637146 269.191862 
L 114.751464 269.191862 
L 114.751464 267.619119 
L 115.117839 267.619119 
L 115.173518 266.046375 
L 115.747522 266.046375 
L 115.747522 265.522128 
L 116.250857 265.522128 
L 116.250857 264.99788 
L 116.535669 264.99788 
L 116.535669 264.473632 
L 117.313848 264.473632 
L 117.387321 263.425137 
L 117.557547 263.425137 
L 117.557547 262.376641 
L 117.797843 262.376641 
L 117.797843 261.852394 
L 118.384296 261.852394 
L 118.384296 261.328146 
L 119.457154 261.328146 
L 119.478809 259.755403 
L 119.736565 259.755403 
L 119.736565 258.706907 
L 121.727437 258.706907 
L 121.727437 258.18266 
L 121.841001 258.18266 
L 121.841001 257.658412 
L 122.470743 257.658412 
L 122.470743 257.134164 
L 123.817062 257.134164 
L 123.817062 256.609917 
L 124.428341 256.609917 
L 124.428341 256.085669 
L 140.68579 256.085669 
L 140.68579 255.037173 
L 141.226106 255.037173 
L 141.262751 253.46443 
L 141.432737 253.46443 
L 141.541134 251.891687 
L 141.702458 251.891687 
L 141.803263 250.318944 
L 142.032312 250.318944 
L 142.055633 249.270448 
L 142.327309 249.270448 
L 142.327309 248.746201 
L 142.48146 248.746201 
L 142.48146 247.697705 
L 142.611694 247.697705 
L 142.611694 247.173458 
L 143.029646 247.173458 
L 143.029646 246.64921 
L 143.459179 246.64921 
L 143.496726 245.600714 
L 143.982742 245.600714 
L 143.982742 244.552219 
L 144.920362 244.552219 
L 144.920362 244.027971 
L 150.338222 244.027971 
L 150.338222 243.503724 
L 150.71214 243.503724 
L 150.71214 242.979476 
L 150.908289 242.979476 
L 150.908289 241.93098 
L 151.143502 241.93098 
L 151.174393 240.882485 
L 151.300812 240.882485 
L 151.38232 239.309742 
L 151.571016 239.309742 
L 151.571016 238.785494 
L 151.717839 238.785494 
L 151.717839 238.261246 
L 152.06323 238.261246 
L 152.06323 237.212751 
L 152.18654 237.212751 
L 152.18654 236.688503 
L 152.52274 236.688503 
L 152.52274 236.164255 
L 157.389632 236.164255 
L 157.389632 235.640008 
L 157.999964 235.640008 
L 157.999964 235.11576 
L 159.193741 235.11576 
L 159.193741 234.067265 
L 159.447904 234.067265 
L 159.447904 233.018769 
L 159.583061 233.018769 
L 159.583061 232.494521 
L 160.02538 232.494521 
L 160.02538 231.970274 
L 161.00753 231.970274 
L 161.00753 231.446026 
L 162.593554 231.446026 
L 162.685135 230.397531 
L 162.884219 230.397531 
L 162.884219 228.824787 
L 163.618405 228.824787 
L 163.638358 227.252044 
L 163.757596 227.252044 
L 163.856332 225.679301 
L 163.902217 225.679301 
L 163.902217 225.155053 
L 164.031019 225.155053 
L 164.0813 223.58231 
L 164.194299 223.58231 
L 164.194299 223.058063 
L 164.309758 223.058063 
L 164.309758 222.533815 
L 166.745237 222.533815 
L 166.745237 222.009567 
L 166.968519 222.009567 
L 166.968519 221.485319 
L 167.111706 221.485319 
L 167.111706 219.912576 
L 167.430586 219.912576 
L 167.430586 219.388328 
L 167.731877 219.388328 
L 167.731877 218.339833 
L 169.567761 218.339833 
L 169.567761 217.815585 
L 169.745796 217.815585 
L 169.745796 216.76709 
L 172.775467 216.76709 
L 172.835941 215.718594 
L 172.896204 215.718594 
L 172.896204 215.194347 
L 173.724909 215.194347 
L 173.796881 213.097356 
L 174.108038 213.097356 
L 174.180229 211.524613 
L 174.233276 211.524613 
L 174.233276 211.000365 
L 176.846001 211.000365 
L 176.917578 209.427622 
L 177.004912 209.427622 
L 177.072787 206.282136 
L 177.151765 206.282136 
L 177.222083 204.709392 
L 179.927071 204.709392 
L 179.927071 204.185145 
L 180.254075 204.185145 
L 180.254075 203.136649 
L 181.415383 203.136649 
L 181.415383 202.088154 
L 181.746296 202.088154 
L 181.791483 201.039658 
L 181.873444 201.039658 
L 181.959028 199.466915 
L 182.02308 199.466915 
L 182.02308 198.942667 
L 182.253291 198.942667 
L 182.253291 198.41842 
L 182.900522 198.41842 
L 182.900522 197.894172 
L 184.628023 197.894172 
L 184.71611 196.845677 
L 184.885627 196.845677 
L 184.885627 196.321429 
L 186.539657 196.321429 
L 186.539657 194.748686 
L 187.058592 194.748686 
L 187.058592 194.224438 
L 187.270279 194.224438 
L 187.356324 192.651695 
L 189.947049 192.651695 
L 190.056189 190.554704 
L 190.85817 190.554704 
L 190.85817 190.030456 
L 193.237386 190.030456 
L 193.28254 188.457713 
L 193.428186 188.457713 
L 193.428186 187.933465 
L 193.825703 187.933465 
L 193.918304 183.739484 
L 193.94887 183.739484 
L 193.94887 183.215236 
L 199.80205 183.215236 
L 199.891993 177.972759 
L 199.916423 177.972759 
L 199.916423 177.448511 
L 201.137111 177.448511 
L 201.137111 176.400016 
L 202.213636 176.400016 
L 202.262821 174.827272 
L 202.898741 174.827272 
L 202.898741 174.303025 
L 205.30759 174.303025 
L 205.342214 173.254529 
L 205.580474 173.254529 
L 205.580474 172.730281 
L 206.830951 172.730281 
L 206.830951 172.206034 
L 208.529982 172.206034 
L 208.627905 165.390813 
L 208.648443 165.390813 
L 208.648443 164.866566 
L 208.861127 164.866566 
L 208.897916 162.769575 
L 209.640595 162.769575 
L 209.68628 159.624089 
L 211.27002 159.624089 
L 211.29274 157.527098 
L 212.2901 157.527098 
L 212.375006 154.381611 
L 215.478539 154.381611 
L 215.498534 153.333116 
L 216.448785 153.333116 
L 216.448785 152.808868 
L 217.401506 152.808868 
L 217.401506 152.28462 
L 220.672287 152.28462 
L 220.692986 149.663382 
L 223.746941 149.663382 
L 223.787596 145.993648 
L 223.884608 145.993648 
L 223.884608 145.4694 
L 224.214277 145.4694 
L 224.233876 143.372409 
L 224.94173 143.372409 
L 224.94173 142.848162 
L 225.414401 142.848162 
L 225.436434 141.799666 
L 226.955823 141.799666 
L 226.962276 140.751171 
L 228.917811 140.751171 
L 228.917923 139.702675 
L 229.823144 139.702675 
L 229.831443 138.65418 
L 231.700469 138.65418 
L 231.71913 135.508693 
L 231.992761 135.508693 
L 231.992761 134.984446 
L 232.76155 134.984446 
L 232.776824 132.887455 
L 235.769535 132.887455 
L 235.773602 130.266216 
L 237.118245 130.266216 
L 237.118245 129.741969 
L 237.899899 129.741969 
L 237.90815 128.169225 
L 240.173641 128.169225 
L 240.178675 126.596482 
L 241.233317 126.596482 
L 241.236004 125.023739 
L 241.845239 125.023739 
L 241.853844 122.926748 
L 243.682846 122.926748 
L 243.682846 122.4025 
L 244.550055 122.4025 
L 244.552707 120.829757 
L 246.250175 120.829757 
L 246.250175 120.30551 
L 246.588901 120.30551 
L 246.589744 119.257014 
L 247.325964 119.257014 
L 247.327721 118.208519 
L 247.759822 118.208519 
L 247.763898 116.111528 
L 248.787591 116.111528 
L 248.787591 115.58728 
L 251.251877 115.58728 
L 251.251877 115.063032 
L 252.149609 115.063032 
L 252.149609 114.538785 
L 253.99039 114.538785 
L 253.99039 114.014537 
L 254.916631 114.014537 
L 254.916631 113.490289 
L 255.376214 113.490289 
L 255.376214 112.966042 
L 256.909955 112.966042 
L 256.909955 112.441794 
L 257.162143 112.441794 
L 257.16215 111.393298 
L 258.55197 111.393298 
L 258.55197 110.869051 
L 259.267987 110.869051 
L 259.267987 110.344803 
L 260.503973 110.344803 
L 260.503973 109.820555 
L 260.835645 109.820555 
L 260.835645 109.296308 
L 262.15325 109.296308 
L 262.155346 108.247812 
L 265.131811 108.247812 
L 265.131811 107.723564 
L 269.174056 107.723564 
L 269.174056 107.199317 
L 270.558469 107.199317 
L 270.558469 106.675069 
L 271.210529 106.675069 
L 271.210529 106.150821 
L 333.429677 106.150821 
L 333.429677 106.150821 
" style="fill:none;stroke:#ff0000;stroke-linecap:square;stroke-width:1.5;"/>
   </g>
   <g id="line2d_50">
    <defs>
     <path d="M 0 -6 
L -5.196152 -3 
L -5.196152 3 
L -0 6 
L 5.196152 3 
L 5.196152 -3 
z
" id="mbcf4cf9ba8" style="stroke:#ff0000;stroke-linejoin:miter;stroke-width:1.5;"/>
    </defs>
    <g>
     <use style="fill-opacity:0;stroke:#ff0000;stroke-linejoin:miter;stroke-width:1.5;" x="152.52274" xlink:href="#mbcf4cf9ba8" y="236.688503"/>
     <use style="fill-opacity:0;stroke:#ff0000;stroke-linejoin:miter;stroke-width:1.5;" x="205.580474" xlink:href="#mbcf4cf9ba8" y="173.254529"/>
     <use style="fill-opacity:0;stroke:#ff0000;stroke-linejoin:miter;stroke-width:1.5;" x="265.131811" xlink:href="#mbcf4cf9ba8" y="107.723564"/>
     <use style="fill-opacity:0;stroke:#ff0000;stroke-linejoin:miter;stroke-width:1.5;" x="271.210529" xlink:href="#mbcf4cf9ba8" y="106.150821"/>
     <use style="fill-opacity:0;stroke:#ff0000;stroke-linejoin:miter;stroke-width:1.5;" x="333.429677" xlink:href="#mbcf4cf9ba8" y="106.150821"/>
    </g>
   </g>
   <g id="line2d_51">
    <path style="fill:none;stroke:#ff0000;stroke-linecap:square;stroke-width:1.5;"/>
    <g/>
   </g>
   <g id="line2d_52">
    <path clip-path="url(#p8e581e3ca5)" d="M 214.583189 154.381611 
" style="fill:none;stroke:#ff0000;stroke-linecap:square;stroke-width:1.5;"/>
    <defs>
     <path d="M -12 12 
L 12 -12 
M -12 -12 
L 12 12 
" id="mbebf27e150" style="stroke:#ff0000;stroke-width:3;"/>
    </defs>
    <g clip-path="url(#p8e581e3ca5)">
     <use style="fill:#ff0000;stroke:#ff0000;stroke-width:3;" x="214.583189" xlink:href="#mbebf27e150" y="154.381611"/>
    </g>
   </g>
   <g id="line2d_53">
    <path clip-path="url(#p8e581e3ca5)" d="M 56.12 294.88 
L 56.12 294.88 
L 56.12 294.88 
L 56.12 294.88 
L 399.984 294.88 
" style="fill:none;stroke:#9acd32;stroke-linecap:square;stroke-width:1.5;"/>
   </g>
   <g id="line2d_54">
    <defs>
     <path d="M 0 -6 
L -6 6 
L 6 6 
z
" id="m69375d2395" style="stroke:#9acd32;stroke-linejoin:miter;stroke-width:1.5;"/>
    </defs>
    <g clip-path="url(#p8e581e3ca5)">
     <use style="fill-opacity:0;stroke:#9acd32;stroke-linejoin:miter;stroke-width:1.5;" x="56.12" xlink:href="#m69375d2395" y="294.88"/>
    </g>
   </g>
   <g id="line2d_55">
    <path clip-path="url(#p8e581e3ca5)" style="fill:none;stroke:#9acd32;stroke-linecap:square;stroke-width:1.5;"/>
    <g clip-path="url(#p8e581e3ca5)">
     <use style="fill-opacity:0;stroke:#9acd32;stroke-linejoin:miter;stroke-width:1.5;" x="-1" xlink:href="#m69375d2395" y="562.246337"/>
     <use style="fill-opacity:0;stroke:#9acd32;stroke-linejoin:miter;stroke-width:1.5;" x="399.984" xlink:href="#m69375d2395" y="562.246337"/>
    </g>
   </g>
   <g id="line2d_56">
    <path d="M 333.429677 294.88 
L 363.933742 289.532673 
" style="fill:none;stroke:#9acd32;stroke-linecap:square;stroke-width:1.5;"/>
    <g>
     <use style="fill-opacity:0;stroke:#9acd32;stroke-linejoin:miter;stroke-width:1.5;" x="333.429677" xlink:href="#m69375d2395" y="294.88"/>
     <use style="fill-opacity:0;stroke:#9acd32;stroke-linejoin:miter;stroke-width:1.5;" x="363.933742" xlink:href="#m69375d2395" y="289.532673"/>
    </g>
   </g>
   <g id="line2d_57">
    <path d="M 333.429677 252.940182 
L 363.933742 246.754059 
" style="fill:none;stroke:#ffa500;stroke-linecap:square;stroke-width:1.5;"/>
    <g>
     <use style="fill-opacity:0;stroke:#ffa500;stroke-linejoin:bevel;stroke-width:1.5;" x="333.429677" xlink:href="#mbc21cb42d2" y="252.940182"/>
     <use style="fill-opacity:0;stroke:#ffa500;stroke-linejoin:bevel;stroke-width:1.5;" x="363.933742" xlink:href="#mbc21cb42d2" y="246.754059"/>
    </g>
   </g>
   <g id="line2d_58">
    <path d="M 333.429677 169.060547 
L 363.933742 203.975446 
" style="fill:none;stroke:#000080;stroke-linecap:square;stroke-width:1.5;"/>
    <g>
     <use style="fill-opacity:0;stroke:#000080;stroke-width:1.5;" x="333.429677" xlink:href="#m8f86ac6442" y="169.060547"/>
     <use style="fill-opacity:0;stroke:#000080;stroke-width:1.5;" x="363.933742" xlink:href="#m8f86ac6442" y="203.975446"/>
    </g>
   </g>
   <g id="line2d_59">
    <path d="M 333.429677 116.635776 
L 363.933742 161.196832 
" style="fill:none;stroke:#6495ed;stroke-linecap:square;stroke-width:1.5;"/>
    <g>
     <use style="fill-opacity:0;stroke:#6495ed;stroke-linejoin:miter;stroke-width:1.5;" x="333.429677" xlink:href="#m7e0991ab89" y="116.635776"/>
     <use style="fill-opacity:0;stroke:#6495ed;stroke-linejoin:miter;stroke-width:1.5;" x="363.933742" xlink:href="#m7e0991ab89" y="161.196832"/>
    </g>
   </g>
   <g id="line2d_60">
    <path d="M 333.429677 106.150821 
L 363.933742 118.418218 
" style="fill:none;stroke:#ff0000;stroke-linecap:square;stroke-width:1.5;"/>
    <g>
     <use style="fill-opacity:0;stroke:#ff0000;stroke-linejoin:miter;stroke-width:1.5;" x="333.429677" xlink:href="#mbcf4cf9ba8" y="106.150821"/>
     <use style="fill-opacity:0;stroke:#ff0000;stroke-linejoin:miter;stroke-width:1.5;" x="363.933742" xlink:href="#mbcf4cf9ba8" y="118.418218"/>
    </g>
   </g>
   <g id="line2d_61">
    <path d="M 333.429677 99.335601 
L 363.933742 75.639604 
" style="fill:none;stroke:#ff00ff;stroke-linecap:square;stroke-width:1.5;"/>
    <g>
     <use style="fill-opacity:0;stroke:#ff00ff;stroke-linejoin:miter;stroke-width:1.5;" x="333.429677" xlink:href="#mdc7dbf7a50" y="99.335601"/>
     <use style="fill-opacity:0;stroke:#ff00ff;stroke-linejoin:miter;stroke-width:1.5;" x="363.933742" xlink:href="#mdc7dbf7a50" y="75.639604"/>
    </g>
   </g>
   <g id="line2d_62">
    <path d="M 333.429677 294.88 
L 333.429677 27.513663 
" style="fill:none;stroke:#000000;stroke-linecap:square;stroke-width:1.5;"/>
   </g>
   <g id="patch_3">
    <path d="M 56.12 294.88 
L 56.12 24.84 
" style="fill:none;stroke:#000000;stroke-linecap:square;stroke-linejoin:miter;stroke-width:0.8;"/>
   </g>
   <g id="patch_4">
    <path d="M 399.984 294.88 
L 399.984 24.84 
" style="fill:none;stroke:#000000;stroke-linecap:square;stroke-linejoin:miter;stroke-width:0.8;"/>
   </g>
   <g id="patch_5">
    <path d="M 56.12 294.88 
L 399.984 294.88 
" style="fill:none;stroke:#000000;stroke-linecap:square;stroke-linejoin:miter;stroke-width:0.8;"/>
   </g>
   <g id="patch_6">
    <path d="M 56.12 24.84 
L 399.984 24.84 
" style="fill:none;stroke:#000000;stroke-linecap:square;stroke-linejoin:miter;stroke-width:0.8;"/>
   </g>
   <g id="text_14">
    <!-- gsa outpu -->
    <g transform="translate(369.479935 294.223611)scale(0.17 -0.17)">
     <use xlink:href="#DejaVuSans-67"/>
     <use x="63.476562" xlink:href="#DejaVuSans-73"/>
     <use x="115.576172" xlink:href="#DejaVuSans-61"/>
     <use x="176.855469" xlink:href="#DejaVuSans-20"/>
     <use x="208.642578" xlink:href="#DejaVuSans-6f"/>
     <use x="269.824219" xlink:href="#DejaVuSans-75"/>
     <use x="333.203125" xlink:href="#DejaVuSans-74"/>
     <use x="372.412109" xlink:href="#DejaVuSans-70"/>
     <use x="435.888672" xlink:href="#DejaVuSans-75"/>
    </g>
   </g>
   <g id="text_15">
    <!-- GA -->
    <defs>
     <path d="M 59.515625 10.40625 
L 59.515625 29.984375 
L 43.40625 29.984375 
L 43.40625 38.09375 
L 69.28125 38.09375 
L 69.28125 6.78125 
Q 63.578125 2.734375 56.6875 0.65625 
Q 49.8125 -1.421875 42 -1.421875 
Q 24.90625 -1.421875 15.25 8.5625 
Q 5.609375 18.5625 5.609375 36.375 
Q 5.609375 54.25 15.25 64.234375 
Q 24.90625 74.21875 42 74.21875 
Q 49.125 74.21875 55.546875 72.453125 
Q 61.96875 70.703125 67.390625 67.28125 
L 67.390625 56.78125 
Q 61.921875 61.421875 55.765625 63.765625 
Q 49.609375 66.109375 42.828125 66.109375 
Q 29.4375 66.109375 22.71875 58.640625 
Q 16.015625 51.171875 16.015625 36.375 
Q 16.015625 21.625 22.71875 14.15625 
Q 29.4375 6.6875 42.828125 6.6875 
Q 48.046875 6.6875 52.140625 7.59375 
Q 56.25 8.5 59.515625 10.40625 
z
" id="DejaVuSans-47"/>
     <path d="M 34.1875 63.1875 
L 20.796875 26.90625 
L 47.609375 26.90625 
z
M 28.609375 72.90625 
L 39.796875 72.90625 
L 67.578125 0 
L 57.328125 0 
L 50.6875 18.703125 
L 17.828125 18.703125 
L 11.1875 0 
L 0.78125 0 
z
" id="DejaVuSans-41"/>
    </defs>
    <g transform="translate(369.479935 251.444997)scale(0.17 -0.17)">
     <use xlink:href="#DejaVuSans-47"/>
     <use x="77.490234" xlink:href="#DejaVuSans-41"/>
    </g>
   </g>
   <g id="text_16">
    <!-- ALPS -->
    <defs>
     <path d="M 9.8125 72.90625 
L 19.671875 72.90625 
L 19.671875 8.296875 
L 55.171875 8.296875 
L 55.171875 0 
L 9.8125 0 
z
" id="DejaVuSans-4c"/>
     <path d="M 19.671875 64.796875 
L 19.671875 37.40625 
L 32.078125 37.40625 
Q 38.96875 37.40625 42.71875 40.96875 
Q 46.484375 44.53125 46.484375 51.125 
Q 46.484375 57.671875 42.71875 61.234375 
Q 38.96875 64.796875 32.078125 64.796875 
z
M 9.8125 72.90625 
L 32.078125 72.90625 
Q 44.34375 72.90625 50.609375 67.359375 
Q 56.890625 61.8125 56.890625 51.125 
Q 56.890625 40.328125 50.609375 34.8125 
Q 44.34375 29.296875 32.078125 29.296875 
L 19.671875 29.296875 
L 19.671875 0 
L 9.8125 0 
z
" id="DejaVuSans-50"/>
     <path d="M 53.515625 70.515625 
L 53.515625 60.890625 
Q 47.90625 63.578125 42.921875 64.890625 
Q 37.9375 66.21875 33.296875 66.21875 
Q 25.25 66.21875 20.875 63.09375 
Q 16.5 59.96875 16.5 54.203125 
Q 16.5 49.359375 19.40625 46.890625 
Q 22.3125 44.4375 30.421875 42.921875 
L 36.375 41.703125 
Q 47.40625 39.59375 52.65625 34.296875 
Q 57.90625 29 57.90625 20.125 
Q 57.90625 9.515625 50.796875 4.046875 
Q 43.703125 -1.421875 29.984375 -1.421875 
Q 24.8125 -1.421875 18.96875 -0.25 
Q 13.140625 0.921875 6.890625 3.21875 
L 6.890625 13.375 
Q 12.890625 10.015625 18.65625 8.296875 
Q 24.421875 6.59375 29.984375 6.59375 
Q 38.421875 6.59375 43.015625 9.90625 
Q 47.609375 13.234375 47.609375 19.390625 
Q 47.609375 24.75 44.3125 27.78125 
Q 41.015625 30.8125 33.5 32.328125 
L 27.484375 33.5 
Q 16.453125 35.6875 11.515625 40.375 
Q 6.59375 45.0625 6.59375 53.421875 
Q 6.59375 63.09375 13.40625 68.65625 
Q 20.21875 74.21875 32.171875 74.21875 
Q 37.3125 74.21875 42.625 73.28125 
Q 47.953125 72.359375 53.515625 70.515625 
z
" id="DejaVuSans-53"/>
    </defs>
    <g transform="translate(369.479935 208.666383)scale(0.17 -0.17)">
     <use xlink:href="#DejaVuSans-41"/>
     <use x="68.408203" xlink:href="#DejaVuSans-4c"/>
     <use x="124.121094" xlink:href="#DejaVuSans-50"/>
     <use x="184.423828" xlink:href="#DejaVuSans-53"/>
    </g>
   </g>
   <g id="text_17">
    <!-- PSO -->
    <defs>
     <path d="M 39.40625 66.21875 
Q 28.65625 66.21875 22.328125 58.203125 
Q 16.015625 50.203125 16.015625 36.375 
Q 16.015625 22.609375 22.328125 14.59375 
Q 28.65625 6.59375 39.40625 6.59375 
Q 50.140625 6.59375 56.421875 14.59375 
Q 62.703125 22.609375 62.703125 36.375 
Q 62.703125 50.203125 56.421875 58.203125 
Q 50.140625 66.21875 39.40625 66.21875 
z
M 39.40625 74.21875 
Q 54.734375 74.21875 63.90625 63.9375 
Q 73.09375 53.65625 73.09375 36.375 
Q 73.09375 19.140625 63.90625 8.859375 
Q 54.734375 -1.421875 39.40625 -1.421875 
Q 24.03125 -1.421875 14.8125 8.828125 
Q 5.609375 19.09375 5.609375 36.375 
Q 5.609375 53.65625 14.8125 63.9375 
Q 24.03125 74.21875 39.40625 74.21875 
z
" id="DejaVuSans-4f"/>
    </defs>
    <g transform="translate(369.479935 165.887769)scale(0.17 -0.17)">
     <use xlink:href="#DejaVuSans-50"/>
     <use x="60.302734" xlink:href="#DejaVuSans-53"/>
     <use x="123.779297" xlink:href="#DejaVuSans-4f"/>
    </g>
   </g>
   <g id="text_18">
    <!-- Rosenbroc -->
    <defs>
     <path d="M 44.390625 34.1875 
Q 47.5625 33.109375 50.5625 29.59375 
Q 53.5625 26.078125 56.59375 19.921875 
L 66.609375 0 
L 56 0 
L 46.6875 18.703125 
Q 43.0625 26.03125 39.671875 28.421875 
Q 36.28125 30.8125 30.421875 30.8125 
L 19.671875 30.8125 
L 19.671875 0 
L 9.8125 0 
L 9.8125 72.90625 
L 32.078125 72.90625 
Q 44.578125 72.90625 50.734375 67.671875 
Q 56.890625 62.453125 56.890625 51.90625 
Q 56.890625 45.015625 53.6875 40.46875 
Q 50.484375 35.9375 44.390625 34.1875 
z
M 19.671875 64.796875 
L 19.671875 38.921875 
L 32.078125 38.921875 
Q 39.203125 38.921875 42.84375 42.21875 
Q 46.484375 45.515625 46.484375 51.90625 
Q 46.484375 58.296875 42.84375 61.546875 
Q 39.203125 64.796875 32.078125 64.796875 
z
" id="DejaVuSans-52"/>
     <path d="M 48.6875 27.296875 
Q 48.6875 37.203125 44.609375 42.84375 
Q 40.53125 48.484375 33.40625 48.484375 
Q 26.265625 48.484375 22.1875 42.84375 
Q 18.109375 37.203125 18.109375 27.296875 
Q 18.109375 17.390625 22.1875 11.75 
Q 26.265625 6.109375 33.40625 6.109375 
Q 40.53125 6.109375 44.609375 11.75 
Q 48.6875 17.390625 48.6875 27.296875 
z
M 18.109375 46.390625 
Q 20.953125 51.265625 25.265625 53.625 
Q 29.59375 56 35.59375 56 
Q 45.5625 56 51.78125 48.09375 
Q 58.015625 40.1875 58.015625 27.296875 
Q 58.015625 14.40625 51.78125 6.484375 
Q 45.5625 -1.421875 35.59375 -1.421875 
Q 29.59375 -1.421875 25.265625 0.953125 
Q 20.953125 3.328125 18.109375 8.203125 
L 18.109375 0 
L 9.078125 0 
L 9.078125 75.984375 
L 18.109375 75.984375 
z
" id="DejaVuSans-62"/>
    </defs>
    <g transform="translate(369.479935 123.109155)scale(0.17 -0.17)">
     <use xlink:href="#DejaVuSans-52"/>
     <use x="69.419922" xlink:href="#DejaVuSans-6f"/>
     <use x="130.601562" xlink:href="#DejaVuSans-73"/>
     <use x="182.701172" xlink:href="#DejaVuSans-65"/>
     <use x="244.224609" xlink:href="#DejaVuSans-6e"/>
     <use x="307.603516" xlink:href="#DejaVuSans-62"/>
     <use x="371.080078" xlink:href="#DejaVuSans-72"/>
     <use x="412.162109" xlink:href="#DejaVuSans-6f"/>
     <use x="473.34375" xlink:href="#DejaVuSans-63"/>
    </g>
   </g>
   <g id="text_19">
    <!-- DASA -->
    <defs>
     <path d="M 19.671875 64.796875 
L 19.671875 8.109375 
L 31.59375 8.109375 
Q 46.6875 8.109375 53.6875 14.9375 
Q 60.6875 21.78125 60.6875 36.53125 
Q 60.6875 51.171875 53.6875 57.984375 
Q 46.6875 64.796875 31.59375 64.796875 
z
M 9.8125 72.90625 
L 30.078125 72.90625 
Q 51.265625 72.90625 61.171875 64.09375 
Q 71.09375 55.28125 71.09375 36.53125 
Q 71.09375 17.671875 61.125 8.828125 
Q 51.171875 0 30.078125 0 
L 9.8125 0 
z
" id="DejaVuSans-44"/>
    </defs>
    <g transform="translate(369.479935 80.330541)scale(0.17 -0.17)">
     <use xlink:href="#DejaVuSans-44"/>
     <use x="76.986328" xlink:href="#DejaVuSans-41"/>
     <use x="145.394531" xlink:href="#DejaVuSans-53"/>
     <use x="208.886719" xlink:href="#DejaVuSans-41"/>
    </g>
   </g>
   <g id="text_20">
    <!-- best 2009 -->
    <defs>
     <path d="M 10.984375 1.515625 
L 10.984375 10.5 
Q 14.703125 8.734375 18.5 7.8125 
Q 22.3125 6.890625 25.984375 6.890625 
Q 35.75 6.890625 40.890625 13.453125 
Q 46.046875 20.015625 46.78125 33.40625 
Q 43.953125 29.203125 39.59375 26.953125 
Q 35.25 24.703125 29.984375 24.703125 
Q 19.046875 24.703125 12.671875 31.3125 
Q 6.296875 37.9375 6.296875 49.421875 
Q 6.296875 60.640625 12.9375 67.421875 
Q 19.578125 74.21875 30.609375 74.21875 
Q 43.265625 74.21875 49.921875 64.515625 
Q 56.59375 54.828125 56.59375 36.375 
Q 56.59375 19.140625 48.40625 8.859375 
Q 40.234375 -1.421875 26.421875 -1.421875 
Q 22.703125 -1.421875 18.890625 -0.6875 
Q 15.09375 0.046875 10.984375 1.515625 
z
M 30.609375 32.421875 
Q 37.25 32.421875 41.125 36.953125 
Q 45.015625 41.5 45.015625 49.421875 
Q 45.015625 57.28125 41.125 61.84375 
Q 37.25 66.40625 30.609375 66.40625 
Q 23.96875 66.40625 20.09375 61.84375 
Q 16.21875 57.28125 16.21875 49.421875 
Q 16.21875 41.5 20.09375 36.953125 
Q 23.96875 32.421875 30.609375 32.421875 
z
" id="DejaVuSans-39"/>
    </defs>
    <g transform="translate(369.479935 37.551928)scale(0.17 -0.17)">
     <use xlink:href="#DejaVuSans-62"/>
     <use x="63.476562" xlink:href="#DejaVuSans-65"/>
     <use x="125" xlink:href="#DejaVuSans-73"/>
     <use x="177.099609" xlink:href="#DejaVuSans-74"/>
     <use x="216.308594" xlink:href="#DejaVuSans-20"/>
     <use x="248.095703" xlink:href="#DejaVuSans-32"/>
     <use x="311.71875" xlink:href="#DejaVuSans-30"/>
     <use x="375.341797" xlink:href="#DejaVuSans-30"/>
     <use x="438.964844" xlink:href="#DejaVuSans-39"/>
    </g>
   </g>
   <g id="text_21">
    <!-- bbob f13, 20-D -->
    <defs>
     <path d="M 40.578125 39.3125 
Q 47.65625 37.796875 51.625 33 
Q 55.609375 28.21875 55.609375 21.1875 
Q 55.609375 10.40625 48.1875 4.484375 
Q 40.765625 -1.421875 27.09375 -1.421875 
Q 22.515625 -1.421875 17.65625 -0.515625 
Q 12.796875 0.390625 7.625 2.203125 
L 7.625 11.71875 
Q 11.71875 9.328125 16.59375 8.109375 
Q 21.484375 6.890625 26.8125 6.890625 
Q 36.078125 6.890625 40.9375 10.546875 
Q 45.796875 14.203125 45.796875 21.1875 
Q 45.796875 27.640625 41.28125 31.265625 
Q 36.765625 34.90625 28.71875 34.90625 
L 20.21875 34.90625 
L 20.21875 43.015625 
L 29.109375 43.015625 
Q 36.375 43.015625 40.234375 45.921875 
Q 44.09375 48.828125 44.09375 54.296875 
Q 44.09375 59.90625 40.109375 62.90625 
Q 36.140625 65.921875 28.71875 65.921875 
Q 24.65625 65.921875 20.015625 65.03125 
Q 15.375 64.15625 9.8125 62.3125 
L 9.8125 71.09375 
Q 15.4375 72.65625 20.34375 73.4375 
Q 25.25 74.21875 29.59375 74.21875 
Q 40.828125 74.21875 47.359375 69.109375 
Q 53.90625 64.015625 53.90625 55.328125 
Q 53.90625 49.265625 50.4375 45.09375 
Q 46.96875 40.921875 40.578125 39.3125 
z
" id="DejaVuSans-33"/>
    </defs>
    <g transform="translate(59.55864 35.290806)scale(0.102 -0.102)">
     <use xlink:href="#DejaVuSans-62"/>
     <use x="63.476562" xlink:href="#DejaVuSans-62"/>
     <use x="126.953125" xlink:href="#DejaVuSans-6f"/>
     <use x="188.134766" xlink:href="#DejaVuSans-62"/>
     <use x="251.611328" xlink:href="#DejaVuSans-20"/>
     <use x="283.398438" xlink:href="#DejaVuSans-66"/>
     <use x="318.603516" xlink:href="#DejaVuSans-31"/>
     <use x="382.226562" xlink:href="#DejaVuSans-33"/>
     <use x="445.849609" xlink:href="#DejaVuSans-2c"/>
     <use x="477.636719" xlink:href="#DejaVuSans-20"/>
     <use x="509.423828" xlink:href="#DejaVuSans-32"/>
     <use x="573.046875" xlink:href="#DejaVuSans-30"/>
     <use x="636.669922" xlink:href="#DejaVuSans-2d"/>
     <use x="672.753906" xlink:href="#DejaVuSans-44"/>
    </g>
    <!-- 51 targets: 100..1e-08 -->
    <defs>
     <path d="M 10.796875 72.90625 
L 49.515625 72.90625 
L 49.515625 64.59375 
L 19.828125 64.59375 
L 19.828125 46.734375 
Q 21.96875 47.46875 24.109375 47.828125 
Q 26.265625 48.1875 28.421875 48.1875 
Q 40.625 48.1875 47.75 41.5 
Q 54.890625 34.8125 54.890625 23.390625 
Q 54.890625 11.625 47.5625 5.09375 
Q 40.234375 -1.421875 26.90625 -1.421875 
Q 22.3125 -1.421875 17.546875 -0.640625 
Q 12.796875 0.140625 7.71875 1.703125 
L 7.71875 11.625 
Q 12.109375 9.234375 16.796875 8.0625 
Q 21.484375 6.890625 26.703125 6.890625 
Q 35.15625 6.890625 40.078125 11.328125 
Q 45.015625 15.765625 45.015625 23.390625 
Q 45.015625 31 40.078125 35.4375 
Q 35.15625 39.890625 26.703125 39.890625 
Q 22.75 39.890625 18.8125 39.015625 
Q 14.890625 38.140625 10.796875 36.28125 
z
" id="DejaVuSans-35"/>
     <path d="M 11.71875 12.40625 
L 22.015625 12.40625 
L 22.015625 0 
L 11.71875 0 
z
M 11.71875 51.703125 
L 22.015625 51.703125 
L 22.015625 39.3125 
L 11.71875 39.3125 
z
" id="DejaVuSans-3a"/>
    </defs>
    <g transform="translate(59.55864 46.712575)scale(0.102 -0.102)">
     <use xlink:href="#DejaVuSans-35"/>
     <use x="63.623047" xlink:href="#DejaVuSans-31"/>
     <use x="127.246094" xlink:href="#DejaVuSans-20"/>
     <use x="159.033203" xlink:href="#DejaVuSans-74"/>
     <use x="198.242188" xlink:href="#DejaVuSans-61"/>
     <use x="259.521484" xlink:href="#DejaVuSans-72"/>
     <use x="300.619141" xlink:href="#DejaVuSans-67"/>
     <use x="364.095703" xlink:href="#DejaVuSans-65"/>
     <use x="425.619141" xlink:href="#DejaVuSans-74"/>
     <use x="464.828125" xlink:href="#DejaVuSans-73"/>
     <use x="516.927734" xlink:href="#DejaVuSans-3a"/>
     <use x="550.619141" xlink:href="#DejaVuSans-20"/>
     <use x="582.40625" xlink:href="#DejaVuSans-31"/>
     <use x="646.029297" xlink:href="#DejaVuSans-30"/>
     <use x="709.652344" xlink:href="#DejaVuSans-30"/>
     <use x="773.275391" xlink:href="#DejaVuSans-2e"/>
     <use x="805.0625" xlink:href="#DejaVuSans-2e"/>
     <use x="836.849609" xlink:href="#DejaVuSans-31"/>
     <use x="900.472656" xlink:href="#DejaVuSans-65"/>
     <use x="961.996094" xlink:href="#DejaVuSans-2d"/>
     <use x="998.080078" xlink:href="#DejaVuSans-30"/>
     <use x="1061.703125" xlink:href="#DejaVuSans-38"/>
    </g>
    <!-- 15 instances -->
    <g transform="translate(59.55864 58.134344)scale(0.102 -0.102)">
     <use xlink:href="#DejaVuSans-31"/>
     <use x="63.623047" xlink:href="#DejaVuSans-35"/>
     <use x="127.246094" xlink:href="#DejaVuSans-20"/>
     <use x="159.033203" xlink:href="#DejaVuSans-69"/>
     <use x="186.816406" xlink:href="#DejaVuSans-6e"/>
     <use x="250.195312" xlink:href="#DejaVuSans-73"/>
     <use x="302.294922" xlink:href="#DejaVuSans-74"/>
     <use x="341.503906" xlink:href="#DejaVuSans-61"/>
     <use x="402.783203" xlink:href="#DejaVuSans-6e"/>
     <use x="466.162109" xlink:href="#DejaVuSans-63"/>
     <use x="521.142578" xlink:href="#DejaVuSans-65"/>
     <use x="582.666016" xlink:href="#DejaVuSans-73"/>
    </g>
   </g>
   <g id="text_22">
    <!-- v-coco-version -->
    <g style="fill:#808080;" transform="translate(191.556688 290.099912)scale(0.1 -0.1)">
     <use xlink:href="#DejaVuSans-76"/>
     <use x="59.148438" xlink:href="#DejaVuSans-2d"/>
     <use x="95.232422" xlink:href="#DejaVuSans-63"/>
     <use x="150.212891" xlink:href="#DejaVuSans-6f"/>
     <use x="211.394531" xlink:href="#DejaVuSans-63"/>
     <use x="266.375" xlink:href="#DejaVuSans-6f"/>
     <use x="327.572266" xlink:href="#DejaVuSans-2d"/>
     <use x="363.625" xlink:href="#DejaVuSans-76"/>
     <use x="422.804688" xlink:href="#DejaVuSans-65"/>
     <use x="484.328125" xlink:href="#DejaVuSans-72"/>
     <use x="525.441406" xlink:href="#DejaVuSans-73"/>
     <use x="577.541016" xlink:href="#DejaVuSans-69"/>
     <use x="605.324219" xlink:href="#DejaVuSans-6f"/>
     <use x="666.505859" xlink:href="#DejaVuSans-6e"/>
    </g>
   </g>
   <g id="text_23">
    <!-- 13 Sharp ridge -->
    <defs>
     <path d="M 54.890625 33.015625 
L 54.890625 0 
L 45.90625 0 
L 45.90625 32.71875 
Q 45.90625 40.484375 42.875 44.328125 
Q 39.84375 48.1875 33.796875 48.1875 
Q 26.515625 48.1875 22.3125 43.546875 
Q 18.109375 38.921875 18.109375 30.90625 
L 18.109375 0 
L 9.078125 0 
L 9.078125 75.984375 
L 18.109375 75.984375 
L 18.109375 46.1875 
Q 21.34375 51.125 25.703125 53.5625 
Q 30.078125 56 35.796875 56 
Q 45.21875 56 50.046875 50.171875 
Q 54.890625 44.34375 54.890625 33.015625 
z
" id="DejaVuSans-68"/>
    </defs>
    <g transform="translate(153.95825 18.84)scale(0.2 -0.2)">
     <use xlink:href="#DejaVuSans-31"/>
     <use x="63.623047" xlink:href="#DejaVuSans-33"/>
     <use x="127.246094" xlink:href="#DejaVuSans-20"/>
     <use x="159.033203" xlink:href="#DejaVuSans-53"/>
     <use x="222.509766" xlink:href="#DejaVuSans-68"/>
     <use x="285.888672" xlink:href="#DejaVuSans-61"/>
     <use x="347.167969" xlink:href="#DejaVuSans-72"/>
     <use x="388.28125" xlink:href="#DejaVuSans-70"/>
     <use x="451.757812" xlink:href="#DejaVuSans-20"/>
     <use x="483.544922" xlink:href="#DejaVuSans-72"/>
     <use x="524.658203" xlink:href="#DejaVuSans-69"/>
     <use x="552.441406" xlink:href="#DejaVuSans-64"/>
     <use x="615.917969" xlink:href="#DejaVuSans-67"/>
     <use x="679.394531" xlink:href="#DejaVuSans-65"/>
    </g>
   </g>
  </g>
 </g>
 <defs>
  <clipPath id="p8e581e3ca5">
   <rect height="270.04" width="343.864" x="56.12" y="24.84"/>
  </clipPath>
 </defs>
</svg>
