<?xml version="1.0" encoding="utf-8" standalone="no"?>
<!DOCTYPE svg PUBLIC "-//W3C//DTD SVG 1.1//EN"
  "http://www.w3.org/Graphics/SVG/1.1/DTD/svg11.dtd">
<!-- Created with matplotlib (http://matplotlib.org/) -->
<svg height="345.6pt" version="1.1" viewBox="0 0 460.8 345.6" width="460.8pt" xmlns="http://www.w3.org/2000/svg" xmlns:xlink="http://www.w3.org/1999/xlink">
 <defs>
  <style type="text/css">
*{stroke-linecap:butt;stroke-linejoin:round;}
  </style>
 </defs>
 <g id="figure_1">
  <g id="patch_1">
   <path d="M 0 345.6 
L 460.8 345.6 
L 460.8 0 
L 0 0 
z
" style="fill:#ffffff;"/>
  </g>
  <g id="axes_1">
   <g id="patch_2">
    <path d="M 56.12 294.88 
L 399.984 294.88 
L 399.984 24.84 
L 56.12 24.84 
z
" style="fill:#ffffff;"/>
   </g>
   <g id="line2d_1">
    <path d="M 68.678884 294.88 
L 68.678884 27.513663 
L 333.429677 27.513663 
" style="fill:none;stroke:#f5deb3;stroke-linecap:square;stroke-width:6;"/>
   </g>
   <g id="line2d_2">
    <defs>
     <path d="M -0 7.778175 
L 7.778175 0 
L 0 -7.778175 
L -7.778175 -0 
z
" id="m16d3b0530b" style="stroke:#f5deb3;stroke-linejoin:miter;stroke-width:1.5;"/>
    </defs>
    <g>
     <use style="fill:#f5deb3;stroke:#f5deb3;stroke-linejoin:miter;stroke-width:1.5;" x="68.678884" xlink:href="#m16d3b0530b" y="294.88"/>
     <use style="fill:#f5deb3;stroke:#f5deb3;stroke-linejoin:miter;stroke-width:1.5;" x="68.678884" xlink:href="#m16d3b0530b" y="294.88"/>
     <use style="fill:#f5deb3;stroke:#f5deb3;stroke-linejoin:miter;stroke-width:1.5;" x="68.678884" xlink:href="#m16d3b0530b" y="27.513663"/>
     <use style="fill:#f5deb3;stroke:#f5deb3;stroke-linejoin:miter;stroke-width:1.5;" x="68.678884" xlink:href="#m16d3b0530b" y="27.513663"/>
     <use style="fill:#f5deb3;stroke:#f5deb3;stroke-linejoin:miter;stroke-width:1.5;" x="333.429677" xlink:href="#m16d3b0530b" y="27.513663"/>
    </g>
   </g>
   <g id="line2d_3">
    <path style="fill:none;stroke:#f5deb3;stroke-linecap:square;stroke-width:6;"/>
    <g/>
   </g>
   <g id="line2d_4">
    <path d="M 333.429677 27.513663 
L 363.933742 32.86099 
" style="fill:none;stroke:#f5deb3;stroke-linecap:square;stroke-width:6;"/>
    <g>
     <use style="fill:#f5deb3;stroke:#f5deb3;stroke-linejoin:miter;stroke-width:1.5;" x="333.429677" xlink:href="#m16d3b0530b" y="27.513663"/>
     <use style="fill:#f5deb3;stroke:#f5deb3;stroke-linejoin:miter;stroke-width:1.5;" x="363.933742" xlink:href="#m16d3b0530b" y="32.86099"/>
    </g>
   </g>
   <g id="matplotlib.axis_1">
    <g id="xtick_1">
     <g id="line2d_5">
      <path clip-path="url(#pc27d49a63f)" d="M 56.12 294.88 
L 56.12 24.84 
" style="fill:none;stroke:#b0b0b0;stroke-linecap:square;stroke-width:0.8;"/>
     </g>
     <g id="line2d_6">
      <defs>
       <path d="M 0 0 
L 0 3.5 
" id="ma1fce10d04" style="stroke:#000000;stroke-width:0.8;"/>
      </defs>
      <g>
       <use style="stroke:#000000;stroke-width:0.8;" x="56.12" xlink:href="#ma1fce10d04" y="294.88"/>
      </g>
     </g>
     <g id="text_1">
      <!-- 0 -->
      <defs>
       <path d="M 31.78125 66.40625 
Q 24.171875 66.40625 20.328125 58.90625 
Q 16.5 51.421875 16.5 36.375 
Q 16.5 21.390625 20.328125 13.890625 
Q 24.171875 6.390625 31.78125 6.390625 
Q 39.453125 6.390625 43.28125 13.890625 
Q 47.125 21.390625 47.125 36.375 
Q 47.125 51.421875 43.28125 58.90625 
Q 39.453125 66.40625 31.78125 66.40625 
z
M 31.78125 74.21875 
Q 44.046875 74.21875 50.515625 64.515625 
Q 56.984375 54.828125 56.984375 36.375 
Q 56.984375 17.96875 50.515625 8.265625 
Q 44.046875 -1.421875 31.78125 -1.421875 
Q 19.53125 -1.421875 13.0625 8.265625 
Q 6.59375 17.96875 6.59375 36.375 
Q 6.59375 54.828125 13.0625 64.515625 
Q 19.53125 74.21875 31.78125 74.21875 
z
" id="DejaVuSans-30"/>
      </defs>
      <g transform="translate(49.7575 317.076875)scale(0.2 -0.2)">
       <use xlink:href="#DejaVuSans-30"/>
      </g>
     </g>
    </g>
    <g id="xtick_2">
     <g id="line2d_7">
      <path clip-path="url(#pc27d49a63f)" d="M 135.351336 294.88 
L 135.351336 24.84 
" style="fill:none;stroke:#b0b0b0;stroke-linecap:square;stroke-width:0.8;"/>
     </g>
     <g id="line2d_8">
      <g>
       <use style="stroke:#000000;stroke-width:0.8;" x="135.351336" xlink:href="#ma1fce10d04" y="294.88"/>
      </g>
     </g>
     <g id="text_2">
      <!-- 2 -->
      <defs>
       <path d="M 19.1875 8.296875 
L 53.609375 8.296875 
L 53.609375 0 
L 7.328125 0 
L 7.328125 8.296875 
Q 12.9375 14.109375 22.625 23.890625 
Q 32.328125 33.6875 34.8125 36.53125 
Q 39.546875 41.84375 41.421875 45.53125 
Q 43.3125 49.21875 43.3125 52.78125 
Q 43.3125 58.59375 39.234375 62.25 
Q 35.15625 65.921875 28.609375 65.921875 
Q 23.96875 65.921875 18.8125 64.3125 
Q 13.671875 62.703125 7.8125 59.421875 
L 7.8125 69.390625 
Q 13.765625 71.78125 18.9375 73 
Q 24.125 74.21875 28.421875 74.21875 
Q 39.75 74.21875 46.484375 68.546875 
Q 53.21875 62.890625 53.21875 53.421875 
Q 53.21875 48.921875 51.53125 44.890625 
Q 49.859375 40.875 45.40625 35.40625 
Q 44.1875 33.984375 37.640625 27.21875 
Q 31.109375 20.453125 19.1875 8.296875 
z
" id="DejaVuSans-32"/>
      </defs>
      <g transform="translate(128.988836 317.076875)scale(0.2 -0.2)">
       <use xlink:href="#DejaVuSans-32"/>
      </g>
     </g>
    </g>
    <g id="xtick_3">
     <g id="line2d_9">
      <path clip-path="url(#pc27d49a63f)" d="M 214.582673 294.88 
L 214.582673 24.84 
" style="fill:none;stroke:#b0b0b0;stroke-linecap:square;stroke-width:0.8;"/>
     </g>
     <g id="line2d_10">
      <g>
       <use style="stroke:#000000;stroke-width:0.8;" x="214.582673" xlink:href="#ma1fce10d04" y="294.88"/>
      </g>
     </g>
     <g id="text_3">
      <!-- 4 -->
      <defs>
       <path d="M 37.796875 64.3125 
L 12.890625 25.390625 
L 37.796875 25.390625 
z
M 35.203125 72.90625 
L 47.609375 72.90625 
L 47.609375 25.390625 
L 58.015625 25.390625 
L 58.015625 17.1875 
L 47.609375 17.1875 
L 47.609375 0 
L 37.796875 0 
L 37.796875 17.1875 
L 4.890625 17.1875 
L 4.890625 26.703125 
z
" id="DejaVuSans-34"/>
      </defs>
      <g transform="translate(208.220173 317.076875)scale(0.2 -0.2)">
       <use xlink:href="#DejaVuSans-34"/>
      </g>
     </g>
    </g>
    <g id="xtick_4">
     <g id="line2d_11">
      <path clip-path="url(#pc27d49a63f)" d="M 293.814009 294.88 
L 293.814009 24.84 
" style="fill:none;stroke:#b0b0b0;stroke-linecap:square;stroke-width:0.8;"/>
     </g>
     <g id="line2d_12">
      <g>
       <use style="stroke:#000000;stroke-width:0.8;" x="293.814009" xlink:href="#ma1fce10d04" y="294.88"/>
      </g>
     </g>
     <g id="text_4">
      <!-- 6 -->
      <defs>
       <path d="M 33.015625 40.375 
Q 26.375 40.375 22.484375 35.828125 
Q 18.609375 31.296875 18.609375 23.390625 
Q 18.609375 15.53125 22.484375 10.953125 
Q 26.375 6.390625 33.015625 6.390625 
Q 39.65625 6.390625 43.53125 10.953125 
Q 47.40625 15.53125 47.40625 23.390625 
Q 47.40625 31.296875 43.53125 35.828125 
Q 39.65625 40.375 33.015625 40.375 
z
M 52.59375 71.296875 
L 52.59375 62.3125 
Q 48.875 64.0625 45.09375 64.984375 
Q 41.3125 65.921875 37.59375 65.921875 
Q 27.828125 65.921875 22.671875 59.328125 
Q 17.53125 52.734375 16.796875 39.40625 
Q 19.671875 43.65625 24.015625 45.921875 
Q 28.375 48.1875 33.59375 48.1875 
Q 44.578125 48.1875 50.953125 41.515625 
Q 57.328125 34.859375 57.328125 23.390625 
Q 57.328125 12.15625 50.6875 5.359375 
Q 44.046875 -1.421875 33.015625 -1.421875 
Q 20.359375 -1.421875 13.671875 8.265625 
Q 6.984375 17.96875 6.984375 36.375 
Q 6.984375 53.65625 15.1875 63.9375 
Q 23.390625 74.21875 37.203125 74.21875 
Q 40.921875 74.21875 44.703125 73.484375 
Q 48.484375 72.75 52.59375 71.296875 
z
" id="DejaVuSans-36"/>
      </defs>
      <g transform="translate(287.451509 317.076875)scale(0.2 -0.2)">
       <use xlink:href="#DejaVuSans-36"/>
      </g>
     </g>
    </g>
    <g id="xtick_5">
     <g id="line2d_13">
      <path clip-path="url(#pc27d49a63f)" d="M 373.045346 294.88 
L 373.045346 24.84 
" style="fill:none;stroke:#b0b0b0;stroke-linecap:square;stroke-width:0.8;"/>
     </g>
     <g id="line2d_14">
      <g>
       <use style="stroke:#000000;stroke-width:0.8;" x="373.045346" xlink:href="#ma1fce10d04" y="294.88"/>
      </g>
     </g>
     <g id="text_5">
      <!-- 8 -->
      <defs>
       <path d="M 31.78125 34.625 
Q 24.75 34.625 20.71875 30.859375 
Q 16.703125 27.09375 16.703125 20.515625 
Q 16.703125 13.921875 20.71875 10.15625 
Q 24.75 6.390625 31.78125 6.390625 
Q 38.8125 6.390625 42.859375 10.171875 
Q 46.921875 13.96875 46.921875 20.515625 
Q 46.921875 27.09375 42.890625 30.859375 
Q 38.875 34.625 31.78125 34.625 
z
M 21.921875 38.8125 
Q 15.578125 40.375 12.03125 44.71875 
Q 8.5 49.078125 8.5 55.328125 
Q 8.5 64.0625 14.71875 69.140625 
Q 20.953125 74.21875 31.78125 74.21875 
Q 42.671875 74.21875 48.875 69.140625 
Q 55.078125 64.0625 55.078125 55.328125 
Q 55.078125 49.078125 51.53125 44.71875 
Q 48 40.375 41.703125 38.8125 
Q 48.828125 37.15625 52.796875 32.3125 
Q 56.78125 27.484375 56.78125 20.515625 
Q 56.78125 9.90625 50.3125 4.234375 
Q 43.84375 -1.421875 31.78125 -1.421875 
Q 19.734375 -1.421875 13.25 4.234375 
Q 6.78125 9.90625 6.78125 20.515625 
Q 6.78125 27.484375 10.78125 32.3125 
Q 14.796875 37.15625 21.921875 38.8125 
z
M 18.3125 54.390625 
Q 18.3125 48.734375 21.84375 45.5625 
Q 25.390625 42.390625 31.78125 42.390625 
Q 38.140625 42.390625 41.71875 45.5625 
Q 45.3125 48.734375 45.3125 54.390625 
Q 45.3125 60.0625 41.71875 63.234375 
Q 38.140625 66.40625 31.78125 66.40625 
Q 25.390625 66.40625 21.84375 63.234375 
Q 18.3125 60.0625 18.3125 54.390625 
z
" id="DejaVuSans-38"/>
      </defs>
      <g transform="translate(366.682846 317.076875)scale(0.2 -0.2)">
       <use xlink:href="#DejaVuSans-38"/>
      </g>
     </g>
    </g>
    <g id="text_6">
     <!-- log10(# f-evals / dimension) -->
     <defs>
      <path d="M 9.421875 75.984375 
L 18.40625 75.984375 
L 18.40625 0 
L 9.421875 0 
z
" id="DejaVuSans-6c"/>
      <path d="M 30.609375 48.390625 
Q 23.390625 48.390625 19.1875 42.75 
Q 14.984375 37.109375 14.984375 27.296875 
Q 14.984375 17.484375 19.15625 11.84375 
Q 23.34375 6.203125 30.609375 6.203125 
Q 37.796875 6.203125 41.984375 11.859375 
Q 46.1875 17.53125 46.1875 27.296875 
Q 46.1875 37.015625 41.984375 42.703125 
Q 37.796875 48.390625 30.609375 48.390625 
z
M 30.609375 56 
Q 42.328125 56 49.015625 48.375 
Q 55.71875 40.765625 55.71875 27.296875 
Q 55.71875 13.875 49.015625 6.21875 
Q 42.328125 -1.421875 30.609375 -1.421875 
Q 18.84375 -1.421875 12.171875 6.21875 
Q 5.515625 13.875 5.515625 27.296875 
Q 5.515625 40.765625 12.171875 48.375 
Q 18.84375 56 30.609375 56 
z
" id="DejaVuSans-6f"/>
      <path d="M 45.40625 27.984375 
Q 45.40625 37.75 41.375 43.109375 
Q 37.359375 48.484375 30.078125 48.484375 
Q 22.859375 48.484375 18.828125 43.109375 
Q 14.796875 37.75 14.796875 27.984375 
Q 14.796875 18.265625 18.828125 12.890625 
Q 22.859375 7.515625 30.078125 7.515625 
Q 37.359375 7.515625 41.375 12.890625 
Q 45.40625 18.265625 45.40625 27.984375 
z
M 54.390625 6.78125 
Q 54.390625 -7.171875 48.1875 -13.984375 
Q 42 -20.796875 29.203125 -20.796875 
Q 24.46875 -20.796875 20.265625 -20.09375 
Q 16.0625 -19.390625 12.109375 -17.921875 
L 12.109375 -9.1875 
Q 16.0625 -11.328125 19.921875 -12.34375 
Q 23.78125 -13.375 27.78125 -13.375 
Q 36.625 -13.375 41.015625 -8.765625 
Q 45.40625 -4.15625 45.40625 5.171875 
L 45.40625 9.625 
Q 42.625 4.78125 38.28125 2.390625 
Q 33.9375 0 27.875 0 
Q 17.828125 0 11.671875 7.65625 
Q 5.515625 15.328125 5.515625 27.984375 
Q 5.515625 40.671875 11.671875 48.328125 
Q 17.828125 56 27.875 56 
Q 33.9375 56 38.28125 53.609375 
Q 42.625 51.21875 45.40625 46.390625 
L 45.40625 54.6875 
L 54.390625 54.6875 
z
" id="DejaVuSans-67"/>
      <path d="M 12.40625 8.296875 
L 28.515625 8.296875 
L 28.515625 63.921875 
L 10.984375 60.40625 
L 10.984375 69.390625 
L 28.421875 72.90625 
L 38.28125 72.90625 
L 38.28125 8.296875 
L 54.390625 8.296875 
L 54.390625 0 
L 12.40625 0 
z
" id="DejaVuSans-31"/>
      <path d="M 31 75.875 
Q 24.46875 64.65625 21.28125 53.65625 
Q 18.109375 42.671875 18.109375 31.390625 
Q 18.109375 20.125 21.3125 9.0625 
Q 24.515625 -2 31 -13.1875 
L 23.1875 -13.1875 
Q 15.875 -1.703125 12.234375 9.375 
Q 8.59375 20.453125 8.59375 31.390625 
Q 8.59375 42.28125 12.203125 53.3125 
Q 15.828125 64.359375 23.1875 75.875 
z
" id="DejaVuSans-28"/>
      <path d="M 51.125 44 
L 36.921875 44 
L 32.8125 27.6875 
L 47.125 27.6875 
z
M 43.796875 71.78125 
L 38.71875 51.515625 
L 52.984375 51.515625 
L 58.109375 71.78125 
L 65.921875 71.78125 
L 60.890625 51.515625 
L 76.125 51.515625 
L 76.125 44 
L 58.984375 44 
L 54.984375 27.6875 
L 70.515625 27.6875 
L 70.515625 20.21875 
L 53.078125 20.21875 
L 48 0 
L 40.1875 0 
L 45.21875 20.21875 
L 30.90625 20.21875 
L 25.875 0 
L 18.015625 0 
L 23.09375 20.21875 
L 7.71875 20.21875 
L 7.71875 27.6875 
L 24.90625 27.6875 
L 29 44 
L 13.28125 44 
L 13.28125 51.515625 
L 30.90625 51.515625 
L 35.890625 71.78125 
z
" id="DejaVuSans-23"/>
      <path id="DejaVuSans-20"/>
      <path d="M 37.109375 75.984375 
L 37.109375 68.5 
L 28.515625 68.5 
Q 23.6875 68.5 21.796875 66.546875 
Q 19.921875 64.59375 19.921875 59.515625 
L 19.921875 54.6875 
L 34.71875 54.6875 
L 34.71875 47.703125 
L 19.921875 47.703125 
L 19.921875 0 
L 10.890625 0 
L 10.890625 47.703125 
L 2.296875 47.703125 
L 2.296875 54.6875 
L 10.890625 54.6875 
L 10.890625 58.5 
Q 10.890625 67.625 15.140625 71.796875 
Q 19.390625 75.984375 28.609375 75.984375 
z
" id="DejaVuSans-66"/>
      <path d="M 4.890625 31.390625 
L 31.203125 31.390625 
L 31.203125 23.390625 
L 4.890625 23.390625 
z
" id="DejaVuSans-2d"/>
      <path d="M 56.203125 29.59375 
L 56.203125 25.203125 
L 14.890625 25.203125 
Q 15.484375 15.921875 20.484375 11.0625 
Q 25.484375 6.203125 34.421875 6.203125 
Q 39.59375 6.203125 44.453125 7.46875 
Q 49.3125 8.734375 54.109375 11.28125 
L 54.109375 2.78125 
Q 49.265625 0.734375 44.1875 -0.34375 
Q 39.109375 -1.421875 33.890625 -1.421875 
Q 20.796875 -1.421875 13.15625 6.1875 
Q 5.515625 13.8125 5.515625 26.8125 
Q 5.515625 40.234375 12.765625 48.109375 
Q 20.015625 56 32.328125 56 
Q 43.359375 56 49.78125 48.890625 
Q 56.203125 41.796875 56.203125 29.59375 
z
M 47.21875 32.234375 
Q 47.125 39.59375 43.09375 43.984375 
Q 39.0625 48.390625 32.421875 48.390625 
Q 24.90625 48.390625 20.390625 44.140625 
Q 15.875 39.890625 15.1875 32.171875 
z
" id="DejaVuSans-65"/>
      <path d="M 2.984375 54.6875 
L 12.5 54.6875 
L 29.59375 8.796875 
L 46.6875 54.6875 
L 56.203125 54.6875 
L 35.6875 0 
L 23.484375 0 
z
" id="DejaVuSans-76"/>
      <path d="M 34.28125 27.484375 
Q 23.390625 27.484375 19.1875 25 
Q 14.984375 22.515625 14.984375 16.5 
Q 14.984375 11.71875 18.140625 8.90625 
Q 21.296875 6.109375 26.703125 6.109375 
Q 34.1875 6.109375 38.703125 11.40625 
Q 43.21875 16.703125 43.21875 25.484375 
L 43.21875 27.484375 
z
M 52.203125 31.203125 
L 52.203125 0 
L 43.21875 0 
L 43.21875 8.296875 
Q 40.140625 3.328125 35.546875 0.953125 
Q 30.953125 -1.421875 24.3125 -1.421875 
Q 15.921875 -1.421875 10.953125 3.296875 
Q 6 8.015625 6 15.921875 
Q 6 25.140625 12.171875 29.828125 
Q 18.359375 34.515625 30.609375 34.515625 
L 43.21875 34.515625 
L 43.21875 35.40625 
Q 43.21875 41.609375 39.140625 45 
Q 35.0625 48.390625 27.6875 48.390625 
Q 23 48.390625 18.546875 47.265625 
Q 14.109375 46.140625 10.015625 43.890625 
L 10.015625 52.203125 
Q 14.9375 54.109375 19.578125 55.046875 
Q 24.21875 56 28.609375 56 
Q 40.484375 56 46.34375 49.84375 
Q 52.203125 43.703125 52.203125 31.203125 
z
" id="DejaVuSans-61"/>
      <path d="M 44.28125 53.078125 
L 44.28125 44.578125 
Q 40.484375 46.53125 36.375 47.5 
Q 32.28125 48.484375 27.875 48.484375 
Q 21.1875 48.484375 17.84375 46.4375 
Q 14.5 44.390625 14.5 40.28125 
Q 14.5 37.15625 16.890625 35.375 
Q 19.28125 33.59375 26.515625 31.984375 
L 29.59375 31.296875 
Q 39.15625 29.25 43.1875 25.515625 
Q 47.21875 21.78125 47.21875 15.09375 
Q 47.21875 7.46875 41.1875 3.015625 
Q 35.15625 -1.421875 24.609375 -1.421875 
Q 20.21875 -1.421875 15.453125 -0.5625 
Q 10.6875 0.296875 5.421875 2 
L 5.421875 11.28125 
Q 10.40625 8.6875 15.234375 7.390625 
Q 20.0625 6.109375 24.8125 6.109375 
Q 31.15625 6.109375 34.5625 8.28125 
Q 37.984375 10.453125 37.984375 14.40625 
Q 37.984375 18.0625 35.515625 20.015625 
Q 33.0625 21.96875 24.703125 23.78125 
L 21.578125 24.515625 
Q 13.234375 26.265625 9.515625 29.90625 
Q 5.8125 33.546875 5.8125 39.890625 
Q 5.8125 47.609375 11.28125 51.796875 
Q 16.75 56 26.8125 56 
Q 31.78125 56 36.171875 55.265625 
Q 40.578125 54.546875 44.28125 53.078125 
z
" id="DejaVuSans-73"/>
      <path d="M 25.390625 72.90625 
L 33.6875 72.90625 
L 8.296875 -9.28125 
L 0 -9.28125 
z
" id="DejaVuSans-2f"/>
      <path d="M 45.40625 46.390625 
L 45.40625 75.984375 
L 54.390625 75.984375 
L 54.390625 0 
L 45.40625 0 
L 45.40625 8.203125 
Q 42.578125 3.328125 38.25 0.953125 
Q 33.9375 -1.421875 27.875 -1.421875 
Q 17.96875 -1.421875 11.734375 6.484375 
Q 5.515625 14.40625 5.515625 27.296875 
Q 5.515625 40.1875 11.734375 48.09375 
Q 17.96875 56 27.875 56 
Q 33.9375 56 38.25 53.625 
Q 42.578125 51.265625 45.40625 46.390625 
z
M 14.796875 27.296875 
Q 14.796875 17.390625 18.875 11.75 
Q 22.953125 6.109375 30.078125 6.109375 
Q 37.203125 6.109375 41.296875 11.75 
Q 45.40625 17.390625 45.40625 27.296875 
Q 45.40625 37.203125 41.296875 42.84375 
Q 37.203125 48.484375 30.078125 48.484375 
Q 22.953125 48.484375 18.875 42.84375 
Q 14.796875 37.203125 14.796875 27.296875 
z
" id="DejaVuSans-64"/>
      <path d="M 9.421875 54.6875 
L 18.40625 54.6875 
L 18.40625 0 
L 9.421875 0 
z
M 9.421875 75.984375 
L 18.40625 75.984375 
L 18.40625 64.59375 
L 9.421875 64.59375 
z
" id="DejaVuSans-69"/>
      <path d="M 52 44.1875 
Q 55.375 50.25 60.0625 53.125 
Q 64.75 56 71.09375 56 
Q 79.640625 56 84.28125 50.015625 
Q 88.921875 44.046875 88.921875 33.015625 
L 88.921875 0 
L 79.890625 0 
L 79.890625 32.71875 
Q 79.890625 40.578125 77.09375 44.375 
Q 74.3125 48.1875 68.609375 48.1875 
Q 61.625 48.1875 57.5625 43.546875 
Q 53.515625 38.921875 53.515625 30.90625 
L 53.515625 0 
L 44.484375 0 
L 44.484375 32.71875 
Q 44.484375 40.625 41.703125 44.40625 
Q 38.921875 48.1875 33.109375 48.1875 
Q 26.21875 48.1875 22.15625 43.53125 
Q 18.109375 38.875 18.109375 30.90625 
L 18.109375 0 
L 9.078125 0 
L 9.078125 54.6875 
L 18.109375 54.6875 
L 18.109375 46.1875 
Q 21.1875 51.21875 25.484375 53.609375 
Q 29.78125 56 35.6875 56 
Q 41.65625 56 45.828125 52.96875 
Q 50 49.953125 52 44.1875 
z
" id="DejaVuSans-6d"/>
      <path d="M 54.890625 33.015625 
L 54.890625 0 
L 45.90625 0 
L 45.90625 32.71875 
Q 45.90625 40.484375 42.875 44.328125 
Q 39.84375 48.1875 33.796875 48.1875 
Q 26.515625 48.1875 22.3125 43.546875 
Q 18.109375 38.921875 18.109375 30.90625 
L 18.109375 0 
L 9.078125 0 
L 9.078125 54.6875 
L 18.109375 54.6875 
L 18.109375 46.1875 
Q 21.34375 51.125 25.703125 53.5625 
Q 30.078125 56 35.796875 56 
Q 45.21875 56 50.046875 50.171875 
Q 54.890625 44.34375 54.890625 33.015625 
z
" id="DejaVuSans-6e"/>
      <path d="M 8.015625 75.875 
L 15.828125 75.875 
Q 23.140625 64.359375 26.78125 53.3125 
Q 30.421875 42.28125 30.421875 31.390625 
Q 30.421875 20.453125 26.78125 9.375 
Q 23.140625 -1.703125 15.828125 -13.1875 
L 8.015625 -13.1875 
Q 14.5 -2 17.703125 9.0625 
Q 20.90625 20.125 20.90625 31.390625 
Q 20.90625 42.671875 17.703125 53.65625 
Q 14.5 64.65625 8.015625 75.875 
z
" id="DejaVuSans-29"/>
     </defs>
     <g transform="translate(107.211219 338.153594)scale(0.17 -0.17)">
      <use xlink:href="#DejaVuSans-6c"/>
      <use x="27.783203" xlink:href="#DejaVuSans-6f"/>
      <use x="88.964844" xlink:href="#DejaVuSans-67"/>
      <use x="152.441406" xlink:href="#DejaVuSans-31"/>
      <use x="216.064453" xlink:href="#DejaVuSans-30"/>
      <use x="279.6875" xlink:href="#DejaVuSans-28"/>
      <use x="318.701172" xlink:href="#DejaVuSans-23"/>
      <use x="402.490234" xlink:href="#DejaVuSans-20"/>
      <use x="434.277344" xlink:href="#DejaVuSans-66"/>
      <use x="469.404297" xlink:href="#DejaVuSans-2d"/>
      <use x="505.488281" xlink:href="#DejaVuSans-65"/>
      <use x="567.011719" xlink:href="#DejaVuSans-76"/>
      <use x="626.191406" xlink:href="#DejaVuSans-61"/>
      <use x="687.470703" xlink:href="#DejaVuSans-6c"/>
      <use x="715.253906" xlink:href="#DejaVuSans-73"/>
      <use x="767.353516" xlink:href="#DejaVuSans-20"/>
      <use x="799.140625" xlink:href="#DejaVuSans-2f"/>
      <use x="832.832031" xlink:href="#DejaVuSans-20"/>
      <use x="864.619141" xlink:href="#DejaVuSans-64"/>
      <use x="928.095703" xlink:href="#DejaVuSans-69"/>
      <use x="955.878906" xlink:href="#DejaVuSans-6d"/>
      <use x="1053.291016" xlink:href="#DejaVuSans-65"/>
      <use x="1114.814453" xlink:href="#DejaVuSans-6e"/>
      <use x="1178.193359" xlink:href="#DejaVuSans-73"/>
      <use x="1230.292969" xlink:href="#DejaVuSans-69"/>
      <use x="1258.076172" xlink:href="#DejaVuSans-6f"/>
      <use x="1319.257812" xlink:href="#DejaVuSans-6e"/>
      <use x="1382.636719" xlink:href="#DejaVuSans-29"/>
     </g>
    </g>
   </g>
   <g id="matplotlib.axis_2">
    <g id="ytick_1">
     <g id="line2d_15">
      <path clip-path="url(#pc27d49a63f)" d="M 56.12 294.88 
L 399.984 294.88 
" style="fill:none;stroke:#b0b0b0;stroke-linecap:square;stroke-width:0.8;"/>
     </g>
     <g id="line2d_16">
      <defs>
       <path d="M 0 0 
L -3.5 0 
" id="m9bc3006650" style="stroke:#000000;stroke-width:0.8;"/>
      </defs>
      <g>
       <use style="stroke:#000000;stroke-width:0.8;" x="56.12" xlink:href="#m9bc3006650" y="294.88"/>
      </g>
     </g>
     <g id="text_7">
      <!-- 0.0 -->
      <defs>
       <path d="M 10.6875 12.40625 
L 21 12.40625 
L 21 0 
L 10.6875 0 
z
" id="DejaVuSans-2e"/>
      </defs>
      <g transform="translate(23.675 300.95875)scale(0.16 -0.16)">
       <use xlink:href="#DejaVuSans-30"/>
       <use x="63.623047" xlink:href="#DejaVuSans-2e"/>
       <use x="95.410156" xlink:href="#DejaVuSans-30"/>
      </g>
     </g>
    </g>
    <g id="ytick_2">
     <g id="line2d_17">
      <path clip-path="url(#pc27d49a63f)" d="M 56.12 241.406733 
L 399.984 241.406733 
" style="fill:none;stroke:#b0b0b0;stroke-linecap:square;stroke-width:0.8;"/>
     </g>
     <g id="line2d_18">
      <g>
       <use style="stroke:#000000;stroke-width:0.8;" x="56.12" xlink:href="#m9bc3006650" y="241.406733"/>
      </g>
     </g>
     <g id="text_8">
      <!-- 0.2 -->
      <g transform="translate(23.675 247.485483)scale(0.16 -0.16)">
       <use xlink:href="#DejaVuSans-30"/>
       <use x="63.623047" xlink:href="#DejaVuSans-2e"/>
       <use x="95.410156" xlink:href="#DejaVuSans-32"/>
      </g>
     </g>
    </g>
    <g id="ytick_3">
     <g id="line2d_19">
      <path clip-path="url(#pc27d49a63f)" d="M 56.12 187.933465 
L 399.984 187.933465 
" style="fill:none;stroke:#b0b0b0;stroke-linecap:square;stroke-width:0.8;"/>
     </g>
     <g id="line2d_20">
      <g>
       <use style="stroke:#000000;stroke-width:0.8;" x="56.12" xlink:href="#m9bc3006650" y="187.933465"/>
      </g>
     </g>
     <g id="text_9">
      <!-- 0.4 -->
      <g transform="translate(23.675 194.012215)scale(0.16 -0.16)">
       <use xlink:href="#DejaVuSans-30"/>
       <use x="63.623047" xlink:href="#DejaVuSans-2e"/>
       <use x="95.410156" xlink:href="#DejaVuSans-34"/>
      </g>
     </g>
    </g>
    <g id="ytick_4">
     <g id="line2d_21">
      <path clip-path="url(#pc27d49a63f)" d="M 56.12 134.460198 
L 399.984 134.460198 
" style="fill:none;stroke:#b0b0b0;stroke-linecap:square;stroke-width:0.8;"/>
     </g>
     <g id="line2d_22">
      <g>
       <use style="stroke:#000000;stroke-width:0.8;" x="56.12" xlink:href="#m9bc3006650" y="134.460198"/>
      </g>
     </g>
     <g id="text_10">
      <!-- 0.6 -->
      <g transform="translate(23.675 140.538948)scale(0.16 -0.16)">
       <use xlink:href="#DejaVuSans-30"/>
       <use x="63.623047" xlink:href="#DejaVuSans-2e"/>
       <use x="95.410156" xlink:href="#DejaVuSans-36"/>
      </g>
     </g>
    </g>
    <g id="ytick_5">
     <g id="line2d_23">
      <path clip-path="url(#pc27d49a63f)" d="M 56.12 80.986931 
L 399.984 80.986931 
" style="fill:none;stroke:#b0b0b0;stroke-linecap:square;stroke-width:0.8;"/>
     </g>
     <g id="line2d_24">
      <g>
       <use style="stroke:#000000;stroke-width:0.8;" x="56.12" xlink:href="#m9bc3006650" y="80.986931"/>
      </g>
     </g>
     <g id="text_11">
      <!-- 0.8 -->
      <g transform="translate(23.675 87.065681)scale(0.16 -0.16)">
       <use xlink:href="#DejaVuSans-30"/>
       <use x="63.623047" xlink:href="#DejaVuSans-2e"/>
       <use x="95.410156" xlink:href="#DejaVuSans-38"/>
      </g>
     </g>
    </g>
    <g id="ytick_6">
     <g id="line2d_25">
      <path clip-path="url(#pc27d49a63f)" d="M 56.12 27.513663 
L 399.984 27.513663 
" style="fill:none;stroke:#b0b0b0;stroke-linecap:square;stroke-width:0.8;"/>
     </g>
     <g id="line2d_26">
      <g>
       <use style="stroke:#000000;stroke-width:0.8;" x="56.12" xlink:href="#m9bc3006650" y="27.513663"/>
      </g>
     </g>
     <g id="text_12">
      <!-- 1.0 -->
      <g transform="translate(23.675 33.592413)scale(0.16 -0.16)">
       <use xlink:href="#DejaVuSans-31"/>
       <use x="63.623047" xlink:href="#DejaVuSans-2e"/>
       <use x="95.410156" xlink:href="#DejaVuSans-30"/>
      </g>
     </g>
    </g>
    <g id="text_13">
     <!-- Fraction of function,target pairs -->
     <defs>
      <path d="M 9.8125 72.90625 
L 51.703125 72.90625 
L 51.703125 64.59375 
L 19.671875 64.59375 
L 19.671875 43.109375 
L 48.578125 43.109375 
L 48.578125 34.8125 
L 19.671875 34.8125 
L 19.671875 0 
L 9.8125 0 
z
" id="DejaVuSans-46"/>
      <path d="M 41.109375 46.296875 
Q 39.59375 47.171875 37.8125 47.578125 
Q 36.03125 48 33.890625 48 
Q 26.265625 48 22.1875 43.046875 
Q 18.109375 38.09375 18.109375 28.8125 
L 18.109375 0 
L 9.078125 0 
L 9.078125 54.6875 
L 18.109375 54.6875 
L 18.109375 46.1875 
Q 20.953125 51.171875 25.484375 53.578125 
Q 30.03125 56 36.53125 56 
Q 37.453125 56 38.578125 55.875 
Q 39.703125 55.765625 41.0625 55.515625 
z
" id="DejaVuSans-72"/>
      <path d="M 48.78125 52.59375 
L 48.78125 44.1875 
Q 44.96875 46.296875 41.140625 47.34375 
Q 37.3125 48.390625 33.40625 48.390625 
Q 24.65625 48.390625 19.8125 42.84375 
Q 14.984375 37.3125 14.984375 27.296875 
Q 14.984375 17.28125 19.8125 11.734375 
Q 24.65625 6.203125 33.40625 6.203125 
Q 37.3125 6.203125 41.140625 7.25 
Q 44.96875 8.296875 48.78125 10.40625 
L 48.78125 2.09375 
Q 45.015625 0.34375 40.984375 -0.53125 
Q 36.96875 -1.421875 32.421875 -1.421875 
Q 20.0625 -1.421875 12.78125 6.34375 
Q 5.515625 14.109375 5.515625 27.296875 
Q 5.515625 40.671875 12.859375 48.328125 
Q 20.21875 56 33.015625 56 
Q 37.15625 56 41.109375 55.140625 
Q 45.0625 54.296875 48.78125 52.59375 
z
" id="DejaVuSans-63"/>
      <path d="M 18.3125 70.21875 
L 18.3125 54.6875 
L 36.8125 54.6875 
L 36.8125 47.703125 
L 18.3125 47.703125 
L 18.3125 18.015625 
Q 18.3125 11.328125 20.140625 9.421875 
Q 21.96875 7.515625 27.59375 7.515625 
L 36.8125 7.515625 
L 36.8125 0 
L 27.59375 0 
Q 17.1875 0 13.234375 3.875 
Q 9.28125 7.765625 9.28125 18.015625 
L 9.28125 47.703125 
L 2.6875 47.703125 
L 2.6875 54.6875 
L 9.28125 54.6875 
L 9.28125 70.21875 
z
" id="DejaVuSans-74"/>
      <path d="M 8.5 21.578125 
L 8.5 54.6875 
L 17.484375 54.6875 
L 17.484375 21.921875 
Q 17.484375 14.15625 20.5 10.265625 
Q 23.53125 6.390625 29.59375 6.390625 
Q 36.859375 6.390625 41.078125 11.03125 
Q 45.3125 15.671875 45.3125 23.6875 
L 45.3125 54.6875 
L 54.296875 54.6875 
L 54.296875 0 
L 45.3125 0 
L 45.3125 8.40625 
Q 42.046875 3.421875 37.71875 1 
Q 33.40625 -1.421875 27.6875 -1.421875 
Q 18.265625 -1.421875 13.375 4.4375 
Q 8.5 10.296875 8.5 21.578125 
z
M 31.109375 56 
z
" id="DejaVuSans-75"/>
      <path d="M 11.71875 12.40625 
L 22.015625 12.40625 
L 22.015625 4 
L 14.015625 -11.625 
L 7.71875 -11.625 
L 11.71875 4 
z
" id="DejaVuSans-2c"/>
      <path d="M 18.109375 8.203125 
L 18.109375 -20.796875 
L 9.078125 -20.796875 
L 9.078125 54.6875 
L 18.109375 54.6875 
L 18.109375 46.390625 
Q 20.953125 51.265625 25.265625 53.625 
Q 29.59375 56 35.59375 56 
Q 45.5625 56 51.78125 48.09375 
Q 58.015625 40.1875 58.015625 27.296875 
Q 58.015625 14.40625 51.78125 6.484375 
Q 45.5625 -1.421875 35.59375 -1.421875 
Q 29.59375 -1.421875 25.265625 0.953125 
Q 20.953125 3.328125 18.109375 8.203125 
z
M 48.6875 27.296875 
Q 48.6875 37.203125 44.609375 42.84375 
Q 40.53125 48.484375 33.40625 48.484375 
Q 26.265625 48.484375 22.1875 42.84375 
Q 18.109375 37.203125 18.109375 27.296875 
Q 18.109375 17.390625 22.1875 11.75 
Q 26.265625 6.109375 33.40625 6.109375 
Q 40.53125 6.109375 44.609375 11.75 
Q 48.6875 17.390625 48.6875 27.296875 
z
" id="DejaVuSans-70"/>
     </defs>
     <g transform="translate(16.139531 294.999375)rotate(-90)scale(0.17 -0.17)">
      <use xlink:href="#DejaVuSans-46"/>
      <use x="57.410156" xlink:href="#DejaVuSans-72"/>
      <use x="98.523438" xlink:href="#DejaVuSans-61"/>
      <use x="159.802734" xlink:href="#DejaVuSans-63"/>
      <use x="214.783203" xlink:href="#DejaVuSans-74"/>
      <use x="253.992188" xlink:href="#DejaVuSans-69"/>
      <use x="281.775391" xlink:href="#DejaVuSans-6f"/>
      <use x="342.957031" xlink:href="#DejaVuSans-6e"/>
      <use x="406.335938" xlink:href="#DejaVuSans-20"/>
      <use x="438.123047" xlink:href="#DejaVuSans-6f"/>
      <use x="499.304688" xlink:href="#DejaVuSans-66"/>
      <use x="534.509766" xlink:href="#DejaVuSans-20"/>
      <use x="566.296875" xlink:href="#DejaVuSans-66"/>
      <use x="601.501953" xlink:href="#DejaVuSans-75"/>
      <use x="664.880859" xlink:href="#DejaVuSans-6e"/>
      <use x="728.259766" xlink:href="#DejaVuSans-63"/>
      <use x="783.240234" xlink:href="#DejaVuSans-74"/>
      <use x="822.449219" xlink:href="#DejaVuSans-69"/>
      <use x="850.232422" xlink:href="#DejaVuSans-6f"/>
      <use x="911.414062" xlink:href="#DejaVuSans-6e"/>
      <use x="974.792969" xlink:href="#DejaVuSans-2c"/>
      <use x="1006.580078" xlink:href="#DejaVuSans-74"/>
      <use x="1045.789062" xlink:href="#DejaVuSans-61"/>
      <use x="1107.068359" xlink:href="#DejaVuSans-72"/>
      <use x="1148.166016" xlink:href="#DejaVuSans-67"/>
      <use x="1211.642578" xlink:href="#DejaVuSans-65"/>
      <use x="1273.166016" xlink:href="#DejaVuSans-74"/>
      <use x="1312.375" xlink:href="#DejaVuSans-20"/>
      <use x="1344.162109" xlink:href="#DejaVuSans-70"/>
      <use x="1407.638672" xlink:href="#DejaVuSans-61"/>
      <use x="1468.917969" xlink:href="#DejaVuSans-69"/>
      <use x="1496.701172" xlink:href="#DejaVuSans-72"/>
      <use x="1537.814453" xlink:href="#DejaVuSans-73"/>
     </g>
    </g>
   </g>
   <g id="line2d_27">
    <defs>
     <path d="M 0 1.5 
C 0.397805 1.5 0.77937 1.341951 1.06066 1.06066 
C 1.341951 0.77937 1.5 0.397805 1.5 0 
C 1.5 -0.397805 1.341951 -0.77937 1.06066 -1.06066 
C 0.77937 -1.341951 0.397805 -1.5 0 -1.5 
C -0.397805 -1.5 -0.77937 -1.341951 -1.06066 -1.06066 
C -1.341951 -0.77937 -1.5 -0.397805 -1.5 0 
C -1.5 0.397805 -1.341951 0.77937 -1.06066 1.06066 
C -0.77937 1.341951 -0.397805 1.5 0 1.5 
z
" id="m432fdd1aa2" style="stroke:#f5deb3;"/>
    </defs>
    <g>
     <use style="fill:#f5deb3;stroke:#f5deb3;" x="68.678884" xlink:href="#m432fdd1aa2" y="27.513663"/>
     <use style="fill:#f5deb3;stroke:#f5deb3;" x="68.678884" xlink:href="#m432fdd1aa2" y="27.513663"/>
    </g>
   </g>
   <g id="line2d_28">
    <defs>
     <path d="M 0 1.5 
C 0.397805 1.5 0.77937 1.341951 1.06066 1.06066 
C 1.341951 0.77937 1.5 0.397805 1.5 0 
C 1.5 -0.397805 1.341951 -0.77937 1.06066 -1.06066 
C 0.77937 -1.341951 0.397805 -1.5 0 -1.5 
C -0.397805 -1.5 -0.77937 -1.341951 -1.06066 -1.06066 
C -1.341951 -0.77937 -1.5 -0.397805 -1.5 0 
C -1.5 0.397805 -1.341951 0.77937 -1.06066 1.06066 
C -0.77937 1.341951 -0.397805 1.5 0 1.5 
z
" id="m2f986f34d3" style="stroke:#000080;"/>
    </defs>
    <g>
     <use style="fill:#000080;stroke:#000080;" x="214.613013" xlink:href="#m2f986f34d3" y="27.513663"/>
     <use style="fill:#000080;stroke:#000080;" x="214.613013" xlink:href="#m2f986f34d3" y="27.513663"/>
    </g>
   </g>
   <g id="line2d_29">
    <path d="M 129.555493 294.88 
L 129.555493 294.355752 
L 130.464774 294.355752 
L 130.464774 293.307257 
L 132.083262 293.307257 
L 132.083262 292.783009 
L 133.614919 292.783009 
L 133.614919 292.258761 
L 134.037896 292.258761 
L 134.037896 291.734514 
L 135.582048 291.734514 
L 135.582048 291.210266 
L 135.914093 291.210266 
L 135.914093 290.161771 
L 137.680955 290.161771 
L 137.680955 289.637523 
L 138.405516 289.637523 
L 138.405516 289.113275 
L 139.111166 289.113275 
L 139.111166 288.589027 
L 139.865278 288.589027 
L 139.865278 288.06478 
L 140.036473 288.06478 
L 140.036473 287.540532 
L 141.164857 287.540532 
L 141.164857 287.016284 
L 141.480998 287.016284 
L 141.480998 286.492036 
L 142.026477 286.492036 
L 142.026477 285.967789 
L 144.55898 285.967789 
L 144.55898 284.919293 
L 146.929256 284.919293 
L 146.929256 284.395046 
L 147.084364 284.395046 
L 147.084364 283.870798 
L 147.238086 283.870798 
L 147.238086 283.34655 
L 148.250922 283.34655 
L 148.250922 282.822302 
L 148.844149 282.822302 
L 148.855925 281.773807 
L 150.358012 281.773807 
L 150.358012 281.249559 
L 150.915253 281.249559 
L 150.915253 280.201064 
L 151.370457 280.201064 
L 151.471871 278.104073 
L 152.350658 278.104073 
L 152.416188 277.055578 
L 152.797973 277.055578 
L 152.844717 276.007082 
L 153.514596 276.007082 
L 153.514596 274.958587 
L 153.806928 274.958587 
L 153.806928 274.434339 
L 154.195368 274.434339 
L 154.195368 273.910091 
L 154.428266 273.910091 
L 154.428266 273.385844 
L 155.611399 273.385844 
L 155.611399 272.337348 
L 156.081864 272.337348 
L 156.081864 271.8131 
L 156.552354 271.8131 
L 156.552354 271.288853 
L 158.386504 271.288853 
L 158.386504 270.764605 
L 159.018565 270.764605 
L 159.018565 270.240357 
L 159.826394 270.240357 
L 159.826394 269.716109 
L 160.098007 269.716109 
L 160.109232 268.667614 
L 160.407557 268.667614 
L 160.407557 268.143366 
L 161.030751 268.143366 
L 161.066489 266.046375 
L 161.609736 266.046375 
L 161.702972 264.99788 
L 161.970535 264.99788 
L 161.970535 263.949385 
L 162.251122 263.949385 
L 162.251122 263.425137 
L 162.504146 263.425137 
L 162.504146 262.900889 
L 163.027731 262.900889 
L 163.060415 261.852394 
L 163.915304 261.852394 
L 163.942265 259.755403 
L 165.16478 259.755403 
L 165.16478 259.231155 
L 165.911011 259.231155 
L 165.911011 258.706907 
L 166.114398 258.706907 
L 166.114398 257.658412 
L 166.334601 257.658412 
L 166.338152 254.512926 
L 166.829653 254.512926 
L 166.829653 252.940182 
L 167.685311 252.940182 
L 167.685311 252.415935 
L 167.863676 252.415935 
L 167.8929 250.843192 
L 168.704651 250.843192 
L 168.704651 249.794696 
L 168.88261 249.794696 
L 168.88261 249.270448 
L 169.267877 249.270448 
L 169.267877 248.221953 
L 169.456731 248.221953 
L 169.456731 247.697705 
L 169.665791 247.697705 
L 169.665791 247.173458 
L 170.563849 247.173458 
L 170.563849 246.64921 
L 170.720361 246.64921 
L 170.720361 245.600714 
L 171.283067 245.600714 
L 171.283067 244.027971 
L 171.423688 244.027971 
L 171.423688 243.503724 
L 171.921645 243.503724 
L 171.921645 242.455228 
L 172.414577 242.455228 
L 172.414577 241.93098 
L 172.556676 241.93098 
L 172.556676 240.882485 
L 172.726542 240.882485 
L 172.726542 240.358237 
L 172.878244 240.358237 
L 172.878244 239.83399 
L 173.183419 239.83399 
L 173.183419 239.309742 
L 173.364714 239.309742 
L 173.364714 238.785494 
L 173.51232 238.785494 
L 173.51232 237.736999 
L 173.786289 237.736999 
L 173.797802 236.164255 
L 174.366074 236.164255 
L 174.372754 234.067265 
L 174.647048 234.067265 
L 174.647048 233.543017 
L 174.779747 233.543017 
L 174.802777 231.970274 
L 175.053671 231.970274 
L 175.053671 231.446026 
L 175.212564 231.446026 
L 175.212564 230.921778 
L 175.884904 230.921778 
L 175.884904 230.397531 
L 176.113769 230.397531 
L 176.133474 229.349035 
L 176.256824 229.349035 
L 176.256824 227.776292 
L 176.640398 227.776292 
L 176.640398 227.252044 
L 176.768316 227.252044 
L 176.768316 226.727797 
L 176.894136 226.727797 
L 176.894136 226.203549 
L 177.135467 226.203549 
L 177.135467 225.155053 
L 177.270307 225.155053 
L 177.270307 224.630806 
L 177.602671 224.630806 
L 177.602671 224.106558 
L 177.716691 224.106558 
L 177.718891 222.009567 
L 178.086609 222.009567 
L 178.086609 221.485319 
L 178.199972 221.485319 
L 178.309052 219.912576 
L 178.422723 219.912576 
L 178.422723 218.864081 
L 178.747218 218.864081 
L 178.8371 217.291338 
L 179.188642 217.291338 
L 179.19268 215.718594 
L 179.720471 215.718594 
L 179.720471 215.194347 
L 179.913848 215.194347 
L 179.931906 213.621604 
L 180.026403 213.621604 
L 180.026403 212.573108 
L 180.345565 212.573108 
L 180.440327 211.000365 
L 180.626132 211.000365 
L 180.626132 210.476117 
L 180.817913 210.476117 
L 180.817913 208.903374 
L 181.014845 208.903374 
L 181.111419 206.806383 
L 181.305931 206.806383 
L 181.305931 206.282136 
L 181.505035 206.282136 
L 181.505035 205.23364 
L 181.866821 205.23364 
L 181.866821 204.709392 
L 182.148207 204.709392 
L 182.148207 204.185145 
L 182.326077 204.185145 
L 182.423113 203.136649 
L 182.592104 203.136649 
L 182.689028 201.563906 
L 182.944945 201.563906 
L 182.944945 201.039658 
L 183.209903 201.039658 
L 183.291226 199.991163 
L 183.364512 199.991163 
L 183.375069 198.41842 
L 183.619753 198.41842 
L 183.619753 197.369924 
L 183.799336 197.369924 
L 183.800366 196.321429 
L 183.9582 196.321429 
L 183.9582 195.272933 
L 184.115105 195.272933 
L 184.115105 194.224438 
L 184.362019 194.224438 
L 184.424191 193.175943 
L 184.505421 193.175943 
L 184.601263 187.933465 
L 184.747322 187.933465 
L 184.747322 186.88497 
L 185.063778 186.88497 
L 185.144193 184.263731 
L 185.365825 184.263731 
L 185.36982 183.215236 
L 185.518145 183.215236 
L 185.590207 182.16674 
L 185.735731 182.16674 
L 185.735731 181.642493 
L 185.887333 181.642493 
L 185.887333 181.118245 
L 186.023818 181.118245 
L 186.096501 180.06975 
L 186.177846 180.06975 
L 186.177846 179.021254 
L 186.664111 179.021254 
L 186.742823 177.972759 
L 186.798702 177.972759 
L 186.805837 176.924263 
L 187.018502 176.924263 
L 187.078176 175.875768 
L 187.136372 175.875768 
L 187.136372 175.35152 
L 187.416926 175.35152 
L 187.416926 174.303025 
L 187.613142 174.303025 
L 187.613142 173.254529 
L 187.752816 173.254529 
L 187.752816 172.730281 
L 187.877154 172.730281 
L 187.935143 170.633291 
L 188.076454 170.633291 
L 188.080268 168.5363 
L 188.381103 168.5363 
L 188.453336 166.439309 
L 188.508439 166.439309 
L 188.584625 165.390813 
L 188.941111 165.390813 
L 189.008945 163.293823 
L 189.364659 163.293823 
L 189.379555 160.672584 
L 189.609538 160.672584 
L 189.614863 159.624089 
L 189.896373 159.624089 
L 189.960729 158.051345 
L 190.074252 158.051345 
L 190.184366 157.00285 
L 190.415651 157.00285 
L 190.471811 155.954354 
L 190.579417 155.954354 
L 190.584798 154.381611 
L 190.798461 154.381611 
L 190.906776 152.28462 
L 190.955075 152.28462 
L 191.016612 150.711877 
L 191.119025 150.711877 
L 191.183668 149.139134 
L 191.237379 149.139134 
L 191.34314 147.566391 
L 191.660978 147.566391 
L 191.751207 145.993648 
L 191.815945 145.993648 
L 191.860633 144.945152 
L 191.968087 144.945152 
L 191.968087 144.420905 
L 192.1081 144.420905 
L 192.123816 143.372409 
L 192.272013 143.372409 
L 192.363328 142.323914 
L 192.665485 142.323914 
L 192.717377 139.702675 
L 192.951241 139.702675 
L 193.007857 136.557189 
L 193.097457 136.557189 
L 193.097457 136.032941 
L 193.247794 136.032941 
L 193.252401 134.460198 
L 193.440537 134.460198 
L 193.487069 132.887455 
L 193.719012 132.887455 
L 193.719012 132.363207 
L 193.861599 132.363207 
L 193.943304 131.314712 
L 193.985649 131.314712 
L 194.081077 129.217721 
L 194.132547 129.217721 
L 194.223234 127.644978 
L 194.304362 127.644978 
L 194.39568 125.547987 
L 194.442059 125.547987 
L 194.442059 125.023739 
L 194.658683 125.023739 
L 194.664707 123.975244 
L 194.785974 123.975244 
L 194.837549 121.878253 
L 195.006525 121.878253 
L 195.092598 119.257014 
L 195.183291 119.257014 
L 195.183291 118.208519 
L 195.475534 118.208519 
L 195.475534 117.684271 
L 195.601352 117.684271 
L 195.601352 116.111528 
L 195.934385 116.111528 
L 195.969063 115.063032 
L 196.250861 115.063032 
L 196.321994 112.441794 
L 196.367435 112.441794 
L 196.367435 111.917546 
L 196.485933 111.917546 
L 196.485933 111.393298 
L 196.647837 111.393298 
L 196.647837 110.869051 
L 196.759579 110.869051 
L 196.759579 110.344803 
L 196.876018 110.344803 
L 196.954686 108.247812 
L 197.07065 108.247812 
L 197.143576 106.675069 
L 197.449122 106.675069 
L 197.524987 105.102326 
L 197.560886 105.102326 
L 197.665721 103.005335 
L 197.817055 103.005335 
L 197.886211 100.908344 
L 198.034952 100.908344 
L 198.068006 99.859849 
L 198.204941 99.859849 
L 198.216972 98.287105 
L 198.39389 98.287105 
L 198.4974 96.190115 
L 198.625972 96.190115 
L 198.733719 94.093124 
L 199.013571 94.093124 
L 199.114698 90.947637 
L 199.250398 90.947637 
L 199.279944 88.850646 
L 199.477388 88.850646 
L 199.48763 86.753656 
L 199.681389 86.753656 
L 199.681389 86.229408 
L 199.840596 86.229408 
L 199.840596 85.70516 
L 200.002259 85.70516 
L 200.043065 84.132417 
L 200.347583 84.132417 
L 200.356436 83.083922 
L 200.476962 83.083922 
L 200.570253 82.035426 
L 200.634039 82.035426 
L 200.664491 80.986931 
L 200.943099 80.986931 
L 200.965893 78.88994 
L 201.067337 78.88994 
L 201.067337 78.365692 
L 201.186468 78.365692 
L 201.186468 77.841444 
L 201.47636 77.841444 
L 201.47636 77.317197 
L 201.685886 77.317197 
L 201.768968 75.744454 
L 201.917783 75.744454 
L 202.027083 73.123215 
L 202.175903 73.123215 
L 202.284636 71.550472 
L 202.367683 71.550472 
L 202.45747 70.501976 
L 202.505616 70.501976 
L 202.538303 69.453481 
L 202.998713 69.453481 
L 203.084603 68.404985 
L 203.275617 68.404985 
L 203.347168 65.259499 
L 203.50446 65.259499 
L 203.50446 63.686756 
L 203.865869 63.686756 
L 203.896313 61.589765 
L 204.223769 61.589765 
L 204.223769 61.065517 
L 204.425212 61.065517 
L 204.528837 59.492774 
L 204.770333 59.492774 
L 204.770333 58.444279 
L 204.888613 58.444279 
L 204.990318 56.347288 
L 205.035702 56.347288 
L 205.035702 55.82304 
L 205.291949 55.82304 
L 205.321816 54.250297 
L 205.575102 54.250297 
L 205.668725 53.201802 
L 205.765144 53.201802 
L 205.765144 52.677554 
L 205.894912 52.677554 
L 205.947995 50.580563 
L 206.056357 50.580563 
L 206.103736 48.483572 
L 206.785536 48.483572 
L 206.785536 47.959324 
L 206.920686 47.959324 
L 206.920686 47.435077 
L 207.042854 47.435077 
L 207.042854 46.910829 
L 207.233464 46.910829 
L 207.233464 45.338086 
L 207.390523 45.338086 
L 207.469461 42.192599 
L 207.591876 42.192599 
L 207.591876 41.144104 
L 207.735661 41.144104 
L 207.735661 40.619856 
L 207.901799 40.619856 
L 207.901799 39.571361 
L 208.063458 39.571361 
L 208.063458 38.522865 
L 208.284258 38.522865 
L 208.284258 37.998618 
L 208.556194 37.998618 
L 208.556194 37.47437 
L 208.711666 37.47437 
L 208.766215 36.425875 
L 208.88091 36.425875 
L 208.961602 35.377379 
L 209.058766 35.377379 
L 209.092177 33.804636 
L 209.335518 33.804636 
L 209.418119 32.756141 
L 209.600996 32.756141 
L 209.600996 32.231893 
L 210.034739 32.231893 
L 210.034739 31.707645 
L 210.374963 31.707645 
L 210.374963 31.183397 
L 210.559955 31.183397 
L 210.598983 30.134902 
L 210.857658 30.134902 
L 210.870899 29.086407 
L 211.074571 29.086407 
L 211.074571 28.562159 
L 211.205553 28.562159 
L 211.205553 28.037911 
L 214.613013 28.037911 
L 214.613013 27.513663 
L 333.429677 27.513663 
L 333.429677 27.513663 
" style="fill:none;stroke:#000080;stroke-linecap:square;stroke-width:1.5;"/>
   </g>
   <g id="line2d_30">
    <defs>
     <path d="M 0 6 
C 1.591219 6 3.117479 5.367802 4.242641 4.242641 
C 5.367802 3.117479 6 1.591219 6 0 
C 6 -1.591219 5.367802 -3.117479 4.242641 -4.242641 
C 3.117479 -5.367802 1.591219 -6 0 -6 
C -1.591219 -6 -3.117479 -5.367802 -4.242641 -4.242641 
C -5.367802 -3.117479 -6 -1.591219 -6 0 
C -6 1.591219 -5.367802 3.117479 -4.242641 4.242641 
C -3.117479 5.367802 -1.591219 6 0 6 
z
" id="mb188dfa540" style="stroke:#000080;stroke-width:1.5;"/>
    </defs>
    <g>
     <use style="fill-opacity:0;stroke:#000080;stroke-width:1.5;" x="183.800366" xlink:href="#mb188dfa540" y="196.321429"/>
     <use style="fill-opacity:0;stroke:#000080;stroke-width:1.5;" x="208.063458" xlink:href="#mb188dfa540" y="39.571361"/>
     <use style="fill-opacity:0;stroke:#000080;stroke-width:1.5;" x="214.613013" xlink:href="#mb188dfa540" y="27.513663"/>
     <use style="fill-opacity:0;stroke:#000080;stroke-width:1.5;" x="214.613013" xlink:href="#mb188dfa540" y="27.513663"/>
     <use style="fill-opacity:0;stroke:#000080;stroke-width:1.5;" x="333.429677" xlink:href="#mb188dfa540" y="27.513663"/>
    </g>
   </g>
   <g id="line2d_31">
    <path style="fill:none;stroke:#000080;stroke-linecap:square;stroke-width:1.5;"/>
    <g/>
   </g>
   <g id="line2d_32">
    <defs>
     <path d="M 0 1.5 
C 0.397805 1.5 0.77937 1.341951 1.06066 1.06066 
C 1.341951 0.77937 1.5 0.397805 1.5 0 
C 1.5 -0.397805 1.341951 -0.77937 1.06066 -1.06066 
C 0.77937 -1.341951 0.397805 -1.5 0 -1.5 
C -0.397805 -1.5 -0.77937 -1.341951 -1.06066 -1.06066 
C -1.341951 -0.77937 -1.5 -0.397805 -1.5 0 
C -1.5 0.397805 -1.341951 0.77937 -1.06066 1.06066 
C -0.77937 1.341951 -0.397805 1.5 0 1.5 
z
" id="m5d94c5582a" style="stroke:#ff00ff;"/>
    </defs>
    <g>
     <use style="fill:#ff00ff;stroke:#ff00ff;" x="172.663223" xlink:href="#m5d94c5582a" y="27.513663"/>
     <use style="fill:#ff00ff;stroke:#ff00ff;" x="172.663223" xlink:href="#m5d94c5582a" y="27.513663"/>
    </g>
   </g>
   <g id="line2d_33">
    <path d="M 109.971998 294.88 
L 109.971998 294.355752 
L 110.380773 294.355752 
L 110.380773 293.831505 
L 110.922988 293.831505 
L 110.922988 293.307257 
L 111.37947 293.307257 
L 111.37947 292.783009 
L 112.323362 292.783009 
L 112.323362 292.258761 
L 112.486598 292.258761 
L 112.486598 291.734514 
L 113.373153 291.734514 
L 113.373153 291.210266 
L 114.274924 291.210266 
L 114.347981 289.113275 
L 114.991898 289.113275 
L 114.991898 288.589027 
L 116.991789 288.589027 
L 116.991789 288.06478 
L 118.670192 288.06478 
L 118.670192 287.540532 
L 118.850704 287.540532 
L 118.929086 286.492036 
L 119.073713 286.492036 
L 119.073713 284.919293 
L 119.261023 284.919293 
L 119.261023 284.395046 
L 119.565158 284.395046 
L 119.565158 283.34655 
L 119.927379 283.34655 
L 120.032479 280.725312 
L 120.579038 280.725312 
L 120.67015 279.676816 
L 121.622674 279.676816 
L 121.622674 279.152568 
L 122.009953 279.152568 
L 122.009953 278.628321 
L 122.315455 278.628321 
L 122.315455 277.579825 
L 122.633652 277.579825 
L 122.633652 277.055578 
L 122.875159 277.055578 
L 122.875159 276.53133 
L 123.45162 276.53133 
L 123.45162 275.482834 
L 123.900947 275.482834 
L 123.900947 274.958587 
L 124.289821 274.958587 
L 124.289821 273.910091 
L 124.81354 273.910091 
L 124.81354 273.385844 
L 125.034321 273.385844 
L 125.143658 270.764605 
L 126.433127 270.764605 
L 126.440348 269.716109 
L 127.619177 269.716109 
L 127.619177 269.191862 
L 128.038748 269.191862 
L 128.038748 268.667614 
L 128.215478 268.667614 
L 128.215478 268.143366 
L 128.665388 268.143366 
L 128.665388 267.619119 
L 128.798098 267.619119 
L 128.854662 266.046375 
L 129.041877 266.046375 
L 129.041877 265.522128 
L 129.765056 265.522128 
L 129.776954 264.473632 
L 130.106808 264.473632 
L 130.106808 263.949385 
L 130.37885 263.949385 
L 130.37885 263.425137 
L 130.770596 263.425137 
L 130.832232 261.852394 
L 130.921492 261.852394 
L 130.977046 260.803898 
L 131.197483 260.803898 
L 131.301209 259.231155 
L 131.415131 259.231155 
L 131.415131 258.706907 
L 131.667398 258.706907 
L 131.667398 257.658412 
L 132.545096 257.658412 
L 132.545096 257.134164 
L 132.791423 257.134164 
L 132.791423 255.037173 
L 133.127524 255.037173 
L 133.127524 254.512926 
L 133.331883 254.512926 
L 133.331883 253.46443 
L 133.619677 253.46443 
L 133.619677 252.415935 
L 134.181213 252.415935 
L 134.245547 251.367439 
L 134.662436 251.367439 
L 134.662436 250.843192 
L 134.773996 250.843192 
L 134.773996 250.318944 
L 135.152334 250.318944 
L 135.20447 247.697705 
L 135.342732 247.697705 
L 135.342732 247.173458 
L 135.49696 247.173458 
L 135.514011 246.124962 
L 135.780365 246.124962 
L 135.780365 245.600714 
L 136.857672 245.600714 
L 136.857672 244.027971 
L 136.987225 244.027971 
L 136.987225 243.503724 
L 137.385423 243.503724 
L 137.385423 242.455228 
L 137.503486 242.455228 
L 137.503486 241.93098 
L 137.785817 241.93098 
L 137.785817 241.406733 
L 138.136912 241.406733 
L 138.195345 239.309742 
L 138.322479 239.309742 
L 138.322479 238.785494 
L 139.527819 238.785494 
L 139.632101 236.164255 
L 139.648862 236.164255 
L 139.648862 235.640008 
L 139.779038 235.640008 
L 139.779038 235.11576 
L 140.235149 235.11576 
L 140.241624 233.543017 
L 140.428356 233.543017 
L 140.428356 232.494521 
L 140.546427 232.494521 
L 140.546427 231.446026 
L 140.870908 231.446026 
L 140.870908 230.921778 
L 141.284092 230.921778 
L 141.284092 230.397531 
L 141.8387 230.397531 
L 141.89172 227.776292 
L 141.95044 227.776292 
L 141.95044 227.252044 
L 142.679252 227.252044 
L 142.690486 226.203549 
L 143.656723 226.203549 
L 143.656723 225.155053 
L 143.807354 225.155053 
L 143.901814 223.58231 
L 144.073656 223.58231 
L 144.073656 223.058063 
L 144.361396 223.058063 
L 144.361396 222.533815 
L 144.591691 222.533815 
L 144.591691 221.485319 
L 144.994192 221.485319 
L 145.026087 220.436824 
L 145.409079 220.436824 
L 145.409079 219.388328 
L 145.942496 219.388328 
L 145.942496 218.864081 
L 146.067539 218.864081 
L 146.083682 216.76709 
L 146.212283 216.76709 
L 146.212283 215.718594 
L 146.592416 215.718594 
L 146.594654 214.145851 
L 146.839045 214.145851 
L 146.929256 212.573108 
L 147.112613 212.573108 
L 147.158149 210.476117 
L 147.558405 210.476117 
L 147.579549 208.903374 
L 147.955763 208.903374 
L 147.955763 208.379126 
L 148.075256 208.379126 
L 148.075256 207.854879 
L 148.26108 207.854879 
L 148.299626 205.757888 
L 148.410724 205.757888 
L 148.410724 204.709392 
L 148.721988 204.709392 
L 148.721988 204.185145 
L 149.031606 204.185145 
L 149.031606 203.660897 
L 149.508512 203.660897 
L 149.508512 203.136649 
L 149.970715 203.136649 
L 149.970715 202.088154 
L 150.117203 202.088154 
L 150.117203 201.563906 
L 150.296771 201.563906 
L 150.309397 200.515411 
L 150.770166 200.515411 
L 150.770166 199.991163 
L 151.06948 199.991163 
L 151.090169 197.894172 
L 151.205229 197.894172 
L 151.205229 196.321429 
L 151.346708 196.321429 
L 151.346708 195.797181 
L 151.518994 195.797181 
L 151.518994 195.272933 
L 151.637909 195.272933 
L 151.68125 194.224438 
L 151.999608 194.224438 
L 152.095766 192.651695 
L 152.112011 192.651695 
L 152.159034 191.603199 
L 152.288092 191.603199 
L 152.288092 190.554704 
L 152.498942 190.554704 
L 152.595514 188.981961 
L 152.749537 188.981961 
L 152.749537 187.933465 
L 152.970295 187.933465 
L 152.970295 187.409218 
L 153.121013 187.409218 
L 153.194356 183.739484 
L 153.303786 183.739484 
L 153.303786 183.215236 
L 153.520581 183.215236 
L 153.605647 182.16674 
L 153.645795 182.16674 
L 153.645795 181.642493 
L 154.046558 181.642493 
L 154.130512 180.06975 
L 154.342903 180.06975 
L 154.342903 179.545502 
L 154.684639 179.545502 
L 154.785016 178.497006 
L 154.968909 178.497006 
L 154.970284 176.400016 
L 155.133157 176.400016 
L 155.224185 174.827272 
L 155.268843 174.827272 
L 155.268843 173.778777 
L 155.621995 173.778777 
L 155.717065 172.730281 
L 155.74075 172.730281 
L 155.74075 171.681786 
L 155.982313 171.681786 
L 155.990091 170.633291 
L 156.210298 170.633291 
L 156.210298 170.109043 
L 156.415082 170.109043 
L 156.497073 168.5363 
L 156.779147 168.5363 
L 156.887742 166.439309 
L 157.094391 166.439309 
L 157.094391 165.915061 
L 157.553727 165.915061 
L 157.553727 164.866566 
L 157.789969 164.866566 
L 157.789969 163.81807 
L 158.011491 163.81807 
L 158.104581 161.721079 
L 158.158366 161.721079 
L 158.216539 159.624089 
L 158.395522 159.624089 
L 158.395522 159.099841 
L 158.548106 159.099841 
L 158.626117 157.00285 
L 158.76124 157.00285 
L 158.839392 154.381611 
L 159.096641 154.381611 
L 159.194816 151.760373 
L 159.224912 151.760373 
L 159.224912 151.236125 
L 159.368215 151.236125 
L 159.395883 150.18763 
L 159.545155 150.18763 
L 159.545155 149.139134 
L 159.679552 149.139134 
L 159.76198 148.090639 
L 159.7911 148.090639 
L 159.7911 147.042143 
L 159.919472 147.042143 
L 159.919472 145.993648 
L 160.074514 145.993648 
L 160.074514 144.945152 
L 160.190646 144.945152 
L 160.292885 143.372409 
L 160.430601 143.372409 
L 160.529436 141.799666 
L 160.579138 141.799666 
L 160.596005 140.226923 
L 160.738211 140.226923 
L 160.738211 139.702675 
L 160.864613 139.702675 
L 160.864613 139.178427 
L 160.998814 139.178427 
L 161.109854 136.557189 
L 161.13486 136.557189 
L 161.147349 135.508693 
L 161.378201 135.508693 
L 161.428348 133.93595 
L 161.688088 133.93595 
L 161.781828 132.887455 
L 161.872297 132.887455 
L 161.952215 131.838959 
L 162.033588 131.838959 
L 162.122747 129.741969 
L 162.149948 129.741969 
L 162.241211 128.693473 
L 162.43656 128.693473 
L 162.43656 128.169225 
L 162.597085 128.169225 
L 162.674593 126.072235 
L 162.947477 126.072235 
L 163.023426 125.023739 
L 163.109326 125.023739 
L 163.176031 121.878253 
L 163.24843 121.878253 
L 163.27391 119.781262 
L 163.380515 119.781262 
L 163.380515 119.257014 
L 163.50992 119.257014 
L 163.619237 117.160023 
L 163.684827 117.160023 
L 163.736128 114.014537 
L 163.943081 114.014537 
L 164.03508 112.966042 
L 164.061854 112.966042 
L 164.159671 110.869051 
L 164.22966 110.869051 
L 164.278564 109.296308 
L 164.352058 109.296308 
L 164.402206 107.723564 
L 164.466467 107.723564 
L 164.513913 105.626573 
L 164.624115 105.626573 
L 164.624115 104.578078 
L 164.796653 104.578078 
L 164.796653 103.529583 
L 164.923581 103.529583 
L 165.025834 102.481087 
L 165.044221 102.481087 
L 165.133577 99.335601 
L 165.212617 99.335601 
L 165.296578 97.762858 
L 165.394394 97.762858 
L 165.478968 94.617371 
L 165.531896 94.617371 
L 165.531896 94.093124 
L 165.649837 94.093124 
L 165.700031 92.520381 
L 165.774315 92.520381 
L 165.808774 91.471885 
L 165.932112 91.471885 
L 166.015538 89.899142 
L 166.076941 89.899142 
L 166.076941 89.374894 
L 166.291924 89.374894 
L 166.317543 88.326399 
L 166.413273 88.326399 
L 166.504958 86.753656 
L 166.575153 86.753656 
L 166.651341 84.656665 
L 166.69244 84.656665 
L 166.760491 81.511178 
L 166.914344 81.511178 
L 167.017746 79.414188 
L 167.071598 79.414188 
L 167.135456 77.841444 
L 167.221357 77.841444 
L 167.286006 76.792949 
L 167.341036 76.792949 
L 167.363802 74.17171 
L 167.467872 74.17171 
L 167.558089 72.074719 
L 167.663624 72.074719 
L 167.684654 70.501976 
L 167.874722 70.501976 
L 167.940849 68.929233 
L 168.005435 68.929233 
L 168.013813 67.880738 
L 168.17989 67.880738 
L 168.17989 67.35649 
L 168.361437 67.35649 
L 168.433899 65.783747 
L 168.479113 65.783747 
L 168.479113 65.259499 
L 168.625862 65.259499 
L 168.73001 62.638261 
L 168.836603 62.638261 
L 168.941319 60.017022 
L 168.954745 60.017022 
L 169.04176 58.968526 
L 169.125921 58.968526 
L 169.137393 57.920031 
L 169.268476 57.920031 
L 169.370009 55.298792 
L 169.468577 55.298792 
L 169.570116 53.201802 
L 169.717224 53.201802 
L 169.788275 51.104811 
L 169.868871 51.104811 
L 169.973832 50.056315 
L 170.021487 50.056315 
L 170.114122 48.483572 
L 170.173329 48.483572 
L 170.277019 41.668352 
L 170.327786 41.668352 
L 170.382896 40.095609 
L 170.457406 40.095609 
L 170.524358 38.522865 
L 170.581063 38.522865 
L 170.675157 37.47437 
L 170.728617 37.47437 
L 170.819173 35.377379 
L 170.911978 35.377379 
L 170.940809 34.328884 
L 171.036205 34.328884 
L 171.130538 32.231893 
L 171.330954 32.231893 
L 171.330954 31.183397 
L 171.479617 31.183397 
L 171.534314 29.610654 
L 171.830015 29.610654 
L 171.830015 29.086407 
L 171.944733 29.086407 
L 171.944733 28.037911 
L 172.663223 28.037911 
L 172.663223 27.513663 
L 333.429677 27.513663 
L 333.429677 27.513663 
" style="fill:none;stroke:#ff00ff;stroke-linecap:square;stroke-width:1.5;"/>
   </g>
   <g id="line2d_34">
    <defs>
     <path d="M -0 8.485281 
L 5.091169 0 
L 0 -8.485281 
L -5.091169 -0 
z
" id="m40e6c5b47f" style="stroke:#ff00ff;stroke-linejoin:miter;stroke-width:1.5;"/>
    </defs>
    <g>
     <use style="fill-opacity:0;stroke:#ff00ff;stroke-linejoin:miter;stroke-width:1.5;" x="155.268843" xlink:href="#m40e6c5b47f" y="173.778777"/>
     <use style="fill-opacity:0;stroke:#ff00ff;stroke-linejoin:miter;stroke-width:1.5;" x="172.663223" xlink:href="#m40e6c5b47f" y="28.037911"/>
     <use style="fill-opacity:0;stroke:#ff00ff;stroke-linejoin:miter;stroke-width:1.5;" x="172.663223" xlink:href="#m40e6c5b47f" y="27.513663"/>
     <use style="fill-opacity:0;stroke:#ff00ff;stroke-linejoin:miter;stroke-width:1.5;" x="172.663223" xlink:href="#m40e6c5b47f" y="27.513663"/>
     <use style="fill-opacity:0;stroke:#ff00ff;stroke-linejoin:miter;stroke-width:1.5;" x="333.429677" xlink:href="#m40e6c5b47f" y="27.513663"/>
    </g>
   </g>
   <g id="line2d_35">
    <path style="fill:none;stroke:#ff00ff;stroke-linecap:square;stroke-width:1.5;"/>
    <g/>
   </g>
   <g id="line2d_36">
    <defs>
     <path d="M 0 1.5 
C 0.397805 1.5 0.77937 1.341951 1.06066 1.06066 
C 1.341951 0.77937 1.5 0.397805 1.5 0 
C 1.5 -0.397805 1.341951 -0.77937 1.06066 -1.06066 
C 0.77937 -1.341951 0.397805 -1.5 0 -1.5 
C -0.397805 -1.5 -0.77937 -1.341951 -1.06066 -1.06066 
C -1.341951 -0.77937 -1.5 -0.397805 -1.5 0 
C -1.5 0.397805 -1.341951 0.77937 -1.06066 1.06066 
C -0.77937 1.341951 -0.397805 1.5 0 1.5 
z
" id="madda7afe26" style="stroke:#ffa500;"/>
    </defs>
    <g>
     <use style="fill:#ffa500;stroke:#ffa500;" x="314.95541" xlink:href="#madda7afe26" y="174.303025"/>
     <use style="fill:#ffa500;stroke:#ffa500;" x="314.95541" xlink:href="#madda7afe26" y="174.303025"/>
    </g>
   </g>
   <g id="line2d_37">
    <path d="M 170.127233 294.88 
L 170.148874 293.307257 
L 170.312572 293.307257 
L 170.312572 291.734514 
L 170.910889 291.734514 
L 170.910889 291.210266 
L 174.208571 291.210266 
L 174.208571 290.161771 
L 174.970875 290.161771 
L 174.970875 289.637523 
L 175.563863 289.637523 
L 175.563863 288.589027 
L 177.266168 288.589027 
L 177.266168 288.06478 
L 178.38997 288.06478 
L 178.38997 287.540532 
L 178.829886 287.540532 
L 178.857697 285.967789 
L 179.260844 285.967789 
L 179.260844 284.395046 
L 182.009089 284.395046 
L 182.009089 283.870798 
L 182.648893 283.870798 
L 182.648893 283.34655 
L 182.85408 283.34655 
L 182.85408 282.822302 
L 183.046901 282.822302 
L 183.046901 282.298055 
L 183.347607 282.298055 
L 183.347607 281.773807 
L 183.721419 281.773807 
L 183.721419 281.249559 
L 184.595857 281.249559 
L 184.597823 279.152568 
L 186.911209 279.152568 
L 186.934824 276.007082 
L 187.232789 276.007082 
L 187.232789 275.482834 
L 187.38686 275.482834 
L 187.38686 274.958587 
L 187.715134 274.958587 
L 187.715134 274.434339 
L 188.932136 274.434339 
L 188.932136 273.910091 
L 190.022157 273.910091 
L 190.022157 272.861596 
L 190.772906 272.861596 
L 190.806685 271.8131 
L 190.978156 271.8131 
L 191.053464 270.240357 
L 191.203432 270.240357 
L 191.203432 269.716109 
L 192.373652 269.716109 
L 192.442949 268.667614 
L 192.829681 268.667614 
L 192.829681 268.143366 
L 193.876222 268.143366 
L 193.921592 266.046375 
L 194.079519 266.046375 
L 194.079519 265.522128 
L 194.927166 265.522128 
L 194.927166 264.99788 
L 195.261612 264.99788 
L 195.261612 264.473632 
L 195.403561 264.473632 
L 195.403561 263.425137 
L 195.708744 263.425137 
L 195.708744 262.376641 
L 196.199728 262.376641 
L 196.199728 261.852394 
L 196.542362 261.852394 
L 196.633681 258.706907 
L 197.707866 258.706907 
L 197.711651 257.658412 
L 197.998 257.658412 
L 197.998 257.134164 
L 198.873624 257.134164 
L 198.926705 256.085669 
L 199.866921 256.085669 
L 199.927012 253.988678 
L 200.149783 253.988678 
L 200.149783 253.46443 
L 200.59083 253.46443 
L 200.59083 252.940182 
L 200.91009 252.940182 
L 200.91009 251.891687 
L 201.784903 251.891687 
L 201.875705 249.794696 
L 202.041711 249.794696 
L 202.041711 249.270448 
L 202.167586 249.270448 
L 202.167586 248.746201 
L 202.478865 248.746201 
L 202.478865 248.221953 
L 202.672302 248.221953 
L 202.672302 247.173458 
L 202.928828 247.173458 
L 202.928828 246.64921 
L 204.295872 246.64921 
L 204.309319 244.552219 
L 204.714703 244.552219 
L 204.714703 244.027971 
L 205.064073 244.027971 
L 205.078726 242.455228 
L 205.186522 242.455228 
L 205.186522 241.93098 
L 205.299992 241.93098 
L 205.299992 241.406733 
L 205.799935 241.406733 
L 205.865167 239.83399 
L 206.263801 239.83399 
L 206.263801 239.309742 
L 206.501897 239.309742 
L 206.509669 238.261246 
L 206.648155 238.261246 
L 206.648155 237.736999 
L 207.146543 237.736999 
L 207.203967 236.688503 
L 207.260081 236.688503 
L 207.261331 235.640008 
L 207.832594 235.640008 
L 207.832594 235.11576 
L 207.959984 235.11576 
L 207.959984 234.591512 
L 208.168312 234.591512 
L 208.168312 233.543017 
L 209.058173 233.543017 
L 209.142054 231.970274 
L 209.65429 231.970274 
L 209.65429 231.446026 
L 210.22058 231.446026 
L 210.22058 230.921778 
L 210.742012 230.921778 
L 210.742012 230.397531 
L 210.90779 230.397531 
L 210.90779 229.349035 
L 211.214867 229.349035 
L 211.280186 227.252044 
L 211.811384 227.252044 
L 211.852365 223.58231 
L 212.320198 223.58231 
L 212.320198 223.058063 
L 213.251071 223.058063 
L 213.257715 222.009567 
L 213.836911 222.009567 
L 213.920568 220.436824 
L 214.59338 220.436824 
L 214.59338 219.912576 
L 215.302605 219.912576 
L 215.302605 219.388328 
L 215.432339 219.388328 
L 215.489926 216.76709 
L 215.562931 216.76709 
L 215.562931 215.718594 
L 215.839739 215.718594 
L 215.839739 214.145851 
L 216.2247 214.145851 
L 216.2247 213.621604 
L 218.422619 213.621604 
L 218.422619 213.097356 
L 218.869172 213.097356 
L 218.869172 212.573108 
L 219.298869 212.573108 
L 219.298869 211.524613 
L 220.381768 211.524613 
L 220.411496 209.427622 
L 221.953267 209.427622 
L 221.953267 208.379126 
L 222.670608 208.379126 
L 222.670608 206.806383 
L 223.759536 206.806383 
L 223.759536 205.757888 
L 226.581721 205.757888 
L 226.618963 203.660897 
L 226.972997 203.660897 
L 226.972997 203.136649 
L 227.362346 203.136649 
L 227.362346 202.612401 
L 255.904847 202.612401 
L 255.95629 201.563906 
L 256.0861 201.563906 
L 256.0861 201.039658 
L 256.263744 201.039658 
L 256.263744 200.515411 
L 256.82434 200.515411 
L 256.919957 198.41842 
L 257.011156 198.41842 
L 257.011156 197.894172 
L 257.347438 197.894172 
L 257.353673 195.272933 
L 267.099835 195.272933 
L 267.188168 194.224438 
L 267.288567 194.224438 
L 267.349113 193.175943 
L 267.41328 193.175943 
L 267.486897 191.078952 
L 267.538414 191.078952 
L 267.587672 190.030456 
L 267.773745 190.030456 
L 267.773745 189.506209 
L 268.684497 189.506209 
L 268.684497 188.981961 
L 274.020411 188.981961 
L 274.020411 188.457713 
L 278.544264 188.457713 
L 278.595911 187.409218 
L 278.672889 187.409218 
L 278.771168 185.312227 
L 279.37727 185.312227 
L 279.37727 184.787979 
L 282.389131 184.787979 
L 282.44675 183.739484 
L 282.958914 183.739484 
L 282.958914 183.215236 
L 285.443516 183.215236 
L 285.46596 182.16674 
L 285.921892 182.16674 
L 285.921892 181.642493 
L 288.036535 181.642493 
L 288.036535 181.118245 
L 288.165228 181.118245 
L 288.165228 180.593997 
L 292.281218 180.593997 
L 292.325848 179.545502 
L 297.185634 179.545502 
L 297.185634 179.021254 
L 298.553292 179.021254 
L 298.553292 178.497006 
L 300.985447 178.497006 
L 300.985447 177.972759 
L 303.145918 177.972759 
L 303.145918 177.448511 
L 305.011518 177.448511 
L 305.038334 176.400016 
L 307.507786 176.400016 
L 307.507786 175.875768 
L 309.716642 175.875768 
L 309.716642 175.35152 
L 312.233595 175.35152 
L 312.233595 174.827272 
L 314.95541 174.827272 
L 314.95541 174.303025 
L 333.429677 174.303025 
L 333.429677 174.303025 
" style="fill:none;stroke:#ffa500;stroke-linecap:square;stroke-width:1.5;"/>
   </g>
   <g id="line2d_38">
    <defs>
     <path d="M 0 -6 
L -1.347084 -1.854102 
L -5.706339 -1.854102 
L -2.179628 0.708204 
L -3.526712 4.854102 
L -0 2.291796 
L 3.526712 4.854102 
L 2.179628 0.708204 
L 5.706339 -1.854102 
L 1.347084 -1.854102 
z
" id="m23e9c5000d" style="stroke:#ffa500;stroke-linejoin:bevel;stroke-width:1.5;"/>
    </defs>
    <g>
     <use style="fill-opacity:0;stroke:#ffa500;stroke-linejoin:bevel;stroke-width:1.5;" x="267.538414" xlink:href="#m23e9c5000d" y="190.554704"/>
     <use style="fill-opacity:0;stroke:#ffa500;stroke-linejoin:bevel;stroke-width:1.5;" x="314.95541" xlink:href="#m23e9c5000d" y="174.303025"/>
     <use style="fill-opacity:0;stroke:#ffa500;stroke-linejoin:bevel;stroke-width:1.5;" x="314.95541" xlink:href="#m23e9c5000d" y="174.303025"/>
     <use style="fill-opacity:0;stroke:#ffa500;stroke-linejoin:bevel;stroke-width:1.5;" x="333.429677" xlink:href="#m23e9c5000d" y="174.303025"/>
    </g>
   </g>
   <g id="line2d_39">
    <path style="fill:none;stroke:#ffa500;stroke-linecap:square;stroke-width:1.5;"/>
    <g/>
   </g>
   <g id="line2d_40">
    <path clip-path="url(#pc27d49a63f)" d="M 254.198341 202.612401 
" style="fill:none;stroke:#ffa500;stroke-linecap:square;stroke-width:1.5;"/>
    <defs>
     <path d="M -12 12 
L 12 -12 
M -12 -12 
L 12 12 
" id="m4622e2f75a" style="stroke:#ffa500;stroke-width:3;"/>
    </defs>
    <g clip-path="url(#pc27d49a63f)">
     <use style="fill:#ffa500;stroke:#ffa500;stroke-width:3;" x="254.198341" xlink:href="#m4622e2f75a" y="202.612401"/>
    </g>
   </g>
   <g id="line2d_41">
    <defs>
     <path d="M 0 1.5 
C 0.397805 1.5 0.77937 1.341951 1.06066 1.06066 
C 1.341951 0.77937 1.5 0.397805 1.5 0 
C 1.5 -0.397805 1.341951 -0.77937 1.06066 -1.06066 
C 0.77937 -1.341951 0.397805 -1.5 0 -1.5 
C -0.397805 -1.5 -0.77937 -1.341951 -1.06066 -1.06066 
C -1.341951 -0.77937 -1.5 -0.397805 -1.5 0 
C -1.5 0.397805 -1.341951 0.77937 -1.06066 1.06066 
C -0.77937 1.341951 -0.397805 1.5 0 1.5 
z
" id="m462d6ce24c" style="stroke:#ff0000;"/>
    </defs>
    <g>
     <use style="fill:#ff0000;stroke:#ff0000;" x="122.324629" xlink:href="#m462d6ce24c" y="27.513663"/>
     <use style="fill:#ff0000;stroke:#ff0000;" x="122.324629" xlink:href="#m462d6ce24c" y="27.513663"/>
    </g>
   </g>
   <g id="line2d_42">
    <path d="M 84.893637 294.88 
L 84.893637 294.355752 
L 87.089762 294.355752 
L 87.089762 292.783009 
L 87.231366 292.783009 
L 87.231366 292.258761 
L 87.371815 292.258761 
L 87.371815 291.734514 
L 87.511126 291.734514 
L 87.580361 290.161771 
L 87.854548 290.161771 
L 87.854548 289.113275 
L 88.257806 289.113275 
L 88.257806 288.06478 
L 88.586781 288.06478 
L 88.586781 287.540532 
L 88.781188 287.540532 
L 88.845505 285.967789 
L 89.100397 285.967789 
L 89.100397 285.443541 
L 89.22644 285.443541 
L 89.289118 284.395046 
L 89.351567 284.395046 
L 89.351567 283.870798 
L 89.537568 283.870798 
L 89.537568 283.34655 
L 89.721579 283.34655 
L 89.721579 281.773807 
L 89.843168 281.773807 
L 89.843168 280.201064 
L 89.963905 280.201064 
L 89.963905 279.676816 
L 90.143435 279.676816 
L 90.143435 279.152568 
L 90.26209 279.152568 
L 90.26209 277.055578 
L 90.379932 277.055578 
L 90.379932 276.007082 
L 90.957331 276.007082 
L 91.014019 273.385844 
L 91.070521 273.385844 
L 91.070521 272.861596 
L 91.238922 272.861596 
L 91.238922 271.8131 
L 91.460924 271.8131 
L 91.515979 270.764605 
L 91.788645 270.764605 
L 91.842664 269.191862 
L 93.682323 269.191862 
L 93.682323 268.667614 
L 93.875097 268.667614 
L 93.875097 267.619119 
L 94.018273 267.619119 
L 94.018273 267.094871 
L 94.533287 267.094871 
L 94.579351 265.522128 
L 95.300079 265.522128 
L 95.388083 260.279651 
L 95.562754 260.279651 
L 95.606145 258.706907 
L 95.821478 258.706907 
L 95.906862 257.134164 
L 96.07637 257.134164 
L 96.07637 256.609917 
L 96.369048 256.609917 
L 96.369048 256.085669 
L 96.534084 256.085669 
L 96.534084 255.561421 
L 96.697552 255.561421 
L 96.697552 253.988678 
L 97.375467 253.988678 
L 97.375467 253.46443 
L 98.47362 253.46443 
L 98.583322 249.794696 
L 98.728512 249.794696 
L 98.836605 247.697705 
L 98.908292 247.697705 
L 98.944024 246.124962 
L 99.881757 246.124962 
L 99.982863 242.979476 
L 100.150064 242.979476 
L 100.150064 242.455228 
L 100.315656 242.455228 
L 100.348584 240.358237 
L 100.930759 240.358237 
L 100.930759 239.83399 
L 101.151945 239.83399 
L 101.151945 239.309742 
L 101.463072 239.309742 
L 101.463072 238.785494 
L 101.585964 238.785494 
L 101.677561 234.067265 
L 101.707985 234.067265 
L 101.798936 231.446026 
L 102.09868 231.446026 
L 102.09868 230.397531 
L 102.246616 230.397531 
L 102.305437 229.349035 
L 102.364056 229.349035 
L 102.364056 228.30054 
L 102.567666 228.30054 
L 102.596558 227.252044 
L 102.682942 227.252044 
L 102.768895 225.155053 
L 102.854421 225.155053 
L 102.882835 223.058063 
L 103.052343 223.058063 
L 103.108476 221.485319 
L 103.275786 221.485319 
L 103.386428 220.436824 
L 103.523738 220.436824 
L 103.632803 218.864081 
L 103.74118 218.864081 
L 103.848879 217.291338 
L 104.141622 217.291338 
L 104.16799 215.194347 
L 104.763552 215.194347 
L 104.839736 213.621604 
L 104.890339 213.621604 
L 104.9911 211.524613 
L 105.016198 211.524613 
L 105.04126 209.95187 
L 105.388344 209.95187 
L 105.461817 207.854879 
L 105.510625 207.854879 
L 105.510625 207.330631 
L 105.824547 207.330631 
L 105.824547 205.757888 
L 105.967524 205.757888 
L 105.991239 203.136649 
L 106.389463 203.136649 
L 106.412604 201.039658 
L 106.527841 201.039658 
L 106.573721 199.466915 
L 106.823895 199.466915 
L 106.868993 198.41842 
L 107.025911 198.41842 
L 107.070483 196.321429 
L 107.181411 196.321429 
L 107.181411 195.797181 
L 107.422964 195.797181 
L 107.488258 194.224438 
L 107.661173 194.224438 
L 107.746983 190.554704 
L 107.789728 190.554704 
L 107.896128 188.457713 
L 108.211437 188.457713 
L 108.253045 186.360722 
L 108.377268 186.360722 
L 108.418477 184.263731 
L 108.582334 184.263731 
L 108.683958 181.118245 
L 108.744646 181.118245 
L 108.744646 180.06975 
L 108.865382 180.06975 
L 108.965352 178.497006 
L 109.005179 178.497006 
L 109.064745 177.448511 
L 109.143848 177.448511 
L 109.222589 175.875768 
L 109.83987 175.875768 
L 109.934351 173.254529 
L 109.953185 173.254529 
L 110.047047 169.584795 
L 110.103119 169.584795 
L 110.196169 166.963557 
L 110.214719 166.963557 
L 110.270248 165.390813 
L 110.417457 165.390813 
L 110.417457 164.866566 
L 110.545239 164.866566 
L 110.635934 163.293823 
L 110.887367 163.293823 
L 110.958535 157.527098 
L 111.240299 157.527098 
L 111.344783 155.954354 
L 111.43137 155.954354 
L 111.534703 152.808868 
L 111.586138 152.808868 
L 111.586138 152.28462 
L 111.739525 152.28462 
L 111.739525 151.760373 
L 111.975443 151.760373 
L 112.042258 149.663382 
L 112.108815 149.663382 
L 112.208169 148.090639 
L 112.290529 148.090639 
L 112.388842 147.042143 
L 112.470344 147.042143 
L 112.470344 145.993648 
L 112.599948 145.993648 
L 112.696514 142.848162 
L 112.91975 142.848162 
L 112.967212 138.129932 
L 113.186985 138.129932 
L 113.202576 137.081437 
L 113.357716 137.081437 
L 113.465487 133.93595 
L 113.480828 133.93595 
L 113.542055 128.693473 
L 113.904913 128.693473 
L 113.904913 127.644978 
L 114.039036 127.644978 
L 114.068699 125.547987 
L 114.216255 125.547987 
L 114.216255 125.023739 
L 114.377117 125.023739 
L 114.377117 124.499491 
L 114.522062 124.499491 
L 114.622802 123.450996 
L 114.708684 123.450996 
L 114.765701 118.732766 
L 114.850873 118.732766 
L 114.850873 118.208519 
L 114.963785 118.208519 
L 115.061979 114.538785 
L 115.089931 114.538785 
L 115.145701 111.393298 
L 115.20129 111.393298 
L 115.298141 108.247812 
L 115.421868 108.247812 
L 115.462914 106.150821 
L 115.558307 106.150821 
L 115.626123 103.529583 
L 115.693673 103.529583 
L 115.693673 103.005335 
L 115.827982 103.005335 
L 115.827982 102.481087 
L 116.106663 102.481087 
L 116.198562 99.335601 
L 116.263905 99.335601 
L 116.276944 96.714362 
L 116.419724 96.714362 
L 116.471352 95.665867 
L 116.58695 95.665867 
L 116.638079 93.568876 
L 116.739884 93.568876 
L 116.815843 89.374894 
L 116.904041 89.374894 
L 116.954238 88.326399 
L 117.103955 88.326399 
L 117.203047 86.753656 
L 117.24006 86.753656 
L 117.350624 83.608169 
L 117.362865 83.608169 
L 117.460481 82.035426 
L 117.545444 82.035426 
L 117.654068 78.88994 
L 117.666096 78.88994 
L 117.762012 76.792949 
L 117.797843 76.792949 
L 117.797843 75.220206 
L 117.952254 75.220206 
L 118.058348 72.074719 
L 118.198797 72.074719 
L 118.268593 67.35649 
L 118.314968 67.35649 
L 118.407343 65.259499 
L 118.464827 65.259499 
L 118.487767 63.686756 
L 118.602009 63.686756 
L 118.602009 63.162508 
L 118.715498 63.162508 
L 118.715498 62.114013 
L 118.940255 62.114013 
L 118.995988 61.065517 
L 119.084787 61.065517 
L 119.173131 57.920031 
L 119.228116 57.920031 
L 119.228116 57.395783 
L 119.348469 57.395783 
L 119.457154 53.726049 
L 119.467985 53.726049 
L 119.565158 49.532068 
L 119.586677 49.532068 
L 119.60817 47.435077 
L 119.725902 47.435077 
L 119.725902 46.386581 
L 119.853425 46.386581 
L 119.94845 42.716847 
L 119.990516 42.716847 
L 120.063884 41.144104 
L 120.282131 41.144104 
L 120.302772 38.522865 
L 120.538389 38.522865 
L 120.629716 37.47437 
L 120.680244 37.47437 
L 120.680244 36.425875 
L 120.820939 36.425875 
L 120.850938 34.328884 
L 121.089072 34.328884 
L 121.089072 33.280388 
L 121.314231 33.280388 
L 121.314231 32.756141 
L 121.47878 32.756141 
L 121.47878 31.707645 
L 122.009953 31.707645 
L 122.009953 31.183397 
L 122.324629 31.183397 
L 122.324629 27.513663 
L 333.429677 27.513663 
L 333.429677 27.513663 
" style="fill:none;stroke:#ff0000;stroke-linecap:square;stroke-width:1.5;"/>
   </g>
   <g id="line2d_43">
    <defs>
     <path d="M 0 -6 
L -5.196152 -3 
L -5.196152 3 
L -0 6 
L 5.196152 3 
L 5.196152 -3 
z
" id="m826f854ef3" style="stroke:#ff0000;stroke-linejoin:miter;stroke-width:1.5;"/>
    </defs>
    <g>
     <use style="fill-opacity:0;stroke:#ff0000;stroke-linejoin:miter;stroke-width:1.5;" x="113.542055" xlink:href="#m826f854ef3" y="128.693473"/>
     <use style="fill-opacity:0;stroke:#ff0000;stroke-linejoin:miter;stroke-width:1.5;" x="122.324629" xlink:href="#m826f854ef3" y="31.183397"/>
     <use style="fill-opacity:0;stroke:#ff0000;stroke-linejoin:miter;stroke-width:1.5;" x="122.324629" xlink:href="#m826f854ef3" y="27.513663"/>
     <use style="fill-opacity:0;stroke:#ff0000;stroke-linejoin:miter;stroke-width:1.5;" x="122.324629" xlink:href="#m826f854ef3" y="27.513663"/>
     <use style="fill-opacity:0;stroke:#ff0000;stroke-linejoin:miter;stroke-width:1.5;" x="333.429677" xlink:href="#m826f854ef3" y="27.513663"/>
    </g>
   </g>
   <g id="line2d_44">
    <path style="fill:none;stroke:#ff0000;stroke-linecap:square;stroke-width:1.5;"/>
    <g/>
   </g>
   <g id="line2d_45">
    <path d="M 333.429677 174.303025 
L 363.933742 289.532673 
" style="fill:none;stroke:#ffa500;stroke-linecap:square;stroke-width:1.5;"/>
    <g>
     <use style="fill-opacity:0;stroke:#ffa500;stroke-linejoin:bevel;stroke-width:1.5;" x="333.429677" xlink:href="#m23e9c5000d" y="174.303025"/>
     <use style="fill-opacity:0;stroke:#ffa500;stroke-linejoin:bevel;stroke-width:1.5;" x="363.933742" xlink:href="#m23e9c5000d" y="289.532673"/>
    </g>
   </g>
   <g id="line2d_46">
    <path d="M 333.429677 27.513663 
L 363.933742 225.364752 
" style="fill:none;stroke:#000080;stroke-linecap:square;stroke-width:1.5;"/>
    <g>
     <use style="fill-opacity:0;stroke:#000080;stroke-width:1.5;" x="333.429677" xlink:href="#mb188dfa540" y="27.513663"/>
     <use style="fill-opacity:0;stroke:#000080;stroke-width:1.5;" x="363.933742" xlink:href="#mb188dfa540" y="225.364752"/>
    </g>
   </g>
   <g id="line2d_47">
    <path d="M 333.429677 27.513663 
L 363.933742 161.196832 
" style="fill:none;stroke:#ff00ff;stroke-linecap:square;stroke-width:1.5;"/>
    <g>
     <use style="fill-opacity:0;stroke:#ff00ff;stroke-linejoin:miter;stroke-width:1.5;" x="333.429677" xlink:href="#m40e6c5b47f" y="27.513663"/>
     <use style="fill-opacity:0;stroke:#ff00ff;stroke-linejoin:miter;stroke-width:1.5;" x="363.933742" xlink:href="#m40e6c5b47f" y="161.196832"/>
    </g>
   </g>
   <g id="line2d_48">
    <path d="M 333.429677 27.513663 
L 363.933742 97.028911 
" style="fill:none;stroke:#ff0000;stroke-linecap:square;stroke-width:1.5;"/>
    <g>
     <use style="fill-opacity:0;stroke:#ff0000;stroke-linejoin:miter;stroke-width:1.5;" x="333.429677" xlink:href="#m826f854ef3" y="27.513663"/>
     <use style="fill-opacity:0;stroke:#ff0000;stroke-linejoin:miter;stroke-width:1.5;" x="363.933742" xlink:href="#m826f854ef3" y="97.028911"/>
    </g>
   </g>
   <g id="line2d_49">
    <path d="M 333.429677 294.88 
L 333.429677 27.513663 
" style="fill:none;stroke:#000000;stroke-linecap:square;stroke-width:1.5;"/>
   </g>
   <g id="patch_3">
    <path d="M 56.12 294.88 
L 56.12 24.84 
" style="fill:none;stroke:#000000;stroke-linecap:square;stroke-linejoin:miter;stroke-width:0.8;"/>
   </g>
   <g id="patch_4">
    <path d="M 399.984 294.88 
L 399.984 24.84 
" style="fill:none;stroke:#000000;stroke-linecap:square;stroke-linejoin:miter;stroke-width:0.8;"/>
   </g>
   <g id="patch_5">
    <path d="M 56.12 294.88 
L 399.984 294.88 
" style="fill:none;stroke:#000000;stroke-linecap:square;stroke-linejoin:miter;stroke-width:0.8;"/>
   </g>
   <g id="patch_6">
    <path d="M 56.12 24.84 
L 399.984 24.84 
" style="fill:none;stroke:#000000;stroke-linecap:square;stroke-linejoin:miter;stroke-width:0.8;"/>
   </g>
   <g id="text_14">
    <!-- GA -->
    <defs>
     <path d="M 59.515625 10.40625 
L 59.515625 29.984375 
L 43.40625 29.984375 
L 43.40625 38.09375 
L 69.28125 38.09375 
L 69.28125 6.78125 
Q 63.578125 2.734375 56.6875 0.65625 
Q 49.8125 -1.421875 42 -1.421875 
Q 24.90625 -1.421875 15.25 8.5625 
Q 5.609375 18.5625 5.609375 36.375 
Q 5.609375 54.25 15.25 64.234375 
Q 24.90625 74.21875 42 74.21875 
Q 49.125 74.21875 55.546875 72.453125 
Q 61.96875 70.703125 67.390625 67.28125 
L 67.390625 56.78125 
Q 61.921875 61.421875 55.765625 63.765625 
Q 49.609375 66.109375 42.828125 66.109375 
Q 29.4375 66.109375 22.71875 58.640625 
Q 16.015625 51.171875 16.015625 36.375 
Q 16.015625 21.625 22.71875 14.15625 
Q 29.4375 6.6875 42.828125 6.6875 
Q 48.046875 6.6875 52.140625 7.59375 
Q 56.25 8.5 59.515625 10.40625 
z
" id="DejaVuSans-47"/>
     <path d="M 34.1875 63.1875 
L 20.796875 26.90625 
L 47.609375 26.90625 
z
M 28.609375 72.90625 
L 39.796875 72.90625 
L 67.578125 0 
L 57.328125 0 
L 50.6875 18.703125 
L 17.828125 18.703125 
L 11.1875 0 
L 0.78125 0 
z
" id="DejaVuSans-41"/>
    </defs>
    <g transform="translate(369.479935 294.223611)scale(0.17 -0.17)">
     <use xlink:href="#DejaVuSans-47"/>
     <use x="77.490234" xlink:href="#DejaVuSans-41"/>
    </g>
   </g>
   <g id="text_15">
    <!-- ALPS -->
    <defs>
     <path d="M 9.8125 72.90625 
L 19.671875 72.90625 
L 19.671875 8.296875 
L 55.171875 8.296875 
L 55.171875 0 
L 9.8125 0 
z
" id="DejaVuSans-4c"/>
     <path d="M 19.671875 64.796875 
L 19.671875 37.40625 
L 32.078125 37.40625 
Q 38.96875 37.40625 42.71875 40.96875 
Q 46.484375 44.53125 46.484375 51.125 
Q 46.484375 57.671875 42.71875 61.234375 
Q 38.96875 64.796875 32.078125 64.796875 
z
M 9.8125 72.90625 
L 32.078125 72.90625 
Q 44.34375 72.90625 50.609375 67.359375 
Q 56.890625 61.8125 56.890625 51.125 
Q 56.890625 40.328125 50.609375 34.8125 
Q 44.34375 29.296875 32.078125 29.296875 
L 19.671875 29.296875 
L 19.671875 0 
L 9.8125 0 
z
" id="DejaVuSans-50"/>
     <path d="M 53.515625 70.515625 
L 53.515625 60.890625 
Q 47.90625 63.578125 42.921875 64.890625 
Q 37.9375 66.21875 33.296875 66.21875 
Q 25.25 66.21875 20.875 63.09375 
Q 16.5 59.96875 16.5 54.203125 
Q 16.5 49.359375 19.40625 46.890625 
Q 22.3125 44.4375 30.421875 42.921875 
L 36.375 41.703125 
Q 47.40625 39.59375 52.65625 34.296875 
Q 57.90625 29 57.90625 20.125 
Q 57.90625 9.515625 50.796875 4.046875 
Q 43.703125 -1.421875 29.984375 -1.421875 
Q 24.8125 -1.421875 18.96875 -0.25 
Q 13.140625 0.921875 6.890625 3.21875 
L 6.890625 13.375 
Q 12.890625 10.015625 18.65625 8.296875 
Q 24.421875 6.59375 29.984375 6.59375 
Q 38.421875 6.59375 43.015625 9.90625 
Q 47.609375 13.234375 47.609375 19.390625 
Q 47.609375 24.75 44.3125 27.78125 
Q 41.015625 30.8125 33.5 32.328125 
L 27.484375 33.5 
Q 16.453125 35.6875 11.515625 40.375 
Q 6.59375 45.0625 6.59375 53.421875 
Q 6.59375 63.09375 13.40625 68.65625 
Q 20.21875 74.21875 32.171875 74.21875 
Q 37.3125 74.21875 42.625 73.28125 
Q 47.953125 72.359375 53.515625 70.515625 
z
" id="DejaVuSans-53"/>
    </defs>
    <g transform="translate(369.479935 230.05569)scale(0.17 -0.17)">
     <use xlink:href="#DejaVuSans-41"/>
     <use x="68.408203" xlink:href="#DejaVuSans-4c"/>
     <use x="124.121094" xlink:href="#DejaVuSans-50"/>
     <use x="184.423828" xlink:href="#DejaVuSans-53"/>
    </g>
   </g>
   <g id="text_16">
    <!-- DASA -->
    <defs>
     <path d="M 19.671875 64.796875 
L 19.671875 8.109375 
L 31.59375 8.109375 
Q 46.6875 8.109375 53.6875 14.9375 
Q 60.6875 21.78125 60.6875 36.53125 
Q 60.6875 51.171875 53.6875 57.984375 
Q 46.6875 64.796875 31.59375 64.796875 
z
M 9.8125 72.90625 
L 30.078125 72.90625 
Q 51.265625 72.90625 61.171875 64.09375 
Q 71.09375 55.28125 71.09375 36.53125 
Q 71.09375 17.671875 61.125 8.828125 
Q 51.171875 0 30.078125 0 
L 9.8125 0 
z
" id="DejaVuSans-44"/>
    </defs>
    <g transform="translate(369.479935 165.887769)scale(0.17 -0.17)">
     <use xlink:href="#DejaVuSans-44"/>
     <use x="76.986328" xlink:href="#DejaVuSans-41"/>
     <use x="145.394531" xlink:href="#DejaVuSans-53"/>
     <use x="208.886719" xlink:href="#DejaVuSans-41"/>
    </g>
   </g>
   <g id="text_17">
    <!-- Rosenbroc -->
    <defs>
     <path d="M 44.390625 34.1875 
Q 47.5625 33.109375 50.5625 29.59375 
Q 53.5625 26.078125 56.59375 19.921875 
L 66.609375 0 
L 56 0 
L 46.6875 18.703125 
Q 43.0625 26.03125 39.671875 28.421875 
Q 36.28125 30.8125 30.421875 30.8125 
L 19.671875 30.8125 
L 19.671875 0 
L 9.8125 0 
L 9.8125 72.90625 
L 32.078125 72.90625 
Q 44.578125 72.90625 50.734375 67.671875 
Q 56.890625 62.453125 56.890625 51.90625 
Q 56.890625 45.015625 53.6875 40.46875 
Q 50.484375 35.9375 44.390625 34.1875 
z
M 19.671875 64.796875 
L 19.671875 38.921875 
L 32.078125 38.921875 
Q 39.203125 38.921875 42.84375 42.21875 
Q 46.484375 45.515625 46.484375 51.90625 
Q 46.484375 58.296875 42.84375 61.546875 
Q 39.203125 64.796875 32.078125 64.796875 
z
" id="DejaVuSans-52"/>
     <path d="M 48.6875 27.296875 
Q 48.6875 37.203125 44.609375 42.84375 
Q 40.53125 48.484375 33.40625 48.484375 
Q 26.265625 48.484375 22.1875 42.84375 
Q 18.109375 37.203125 18.109375 27.296875 
Q 18.109375 17.390625 22.1875 11.75 
Q 26.265625 6.109375 33.40625 6.109375 
Q 40.53125 6.109375 44.609375 11.75 
Q 48.6875 17.390625 48.6875 27.296875 
z
M 18.109375 46.390625 
Q 20.953125 51.265625 25.265625 53.625 
Q 29.59375 56 35.59375 56 
Q 45.5625 56 51.78125 48.09375 
Q 58.015625 40.1875 58.015625 27.296875 
Q 58.015625 14.40625 51.78125 6.484375 
Q 45.5625 -1.421875 35.59375 -1.421875 
Q 29.59375 -1.421875 25.265625 0.953125 
Q 20.953125 3.328125 18.109375 8.203125 
L 18.109375 0 
L 9.078125 0 
L 9.078125 75.984375 
L 18.109375 75.984375 
z
" id="DejaVuSans-62"/>
    </defs>
    <g transform="translate(369.479935 101.719848)scale(0.17 -0.17)">
     <use xlink:href="#DejaVuSans-52"/>
     <use x="69.419922" xlink:href="#DejaVuSans-6f"/>
     <use x="130.601562" xlink:href="#DejaVuSans-73"/>
     <use x="182.701172" xlink:href="#DejaVuSans-65"/>
     <use x="244.224609" xlink:href="#DejaVuSans-6e"/>
     <use x="307.603516" xlink:href="#DejaVuSans-62"/>
     <use x="371.080078" xlink:href="#DejaVuSans-72"/>
     <use x="412.162109" xlink:href="#DejaVuSans-6f"/>
     <use x="473.34375" xlink:href="#DejaVuSans-63"/>
    </g>
   </g>
   <g id="text_18">
    <!-- best 2009 -->
    <defs>
     <path d="M 10.984375 1.515625 
L 10.984375 10.5 
Q 14.703125 8.734375 18.5 7.8125 
Q 22.3125 6.890625 25.984375 6.890625 
Q 35.75 6.890625 40.890625 13.453125 
Q 46.046875 20.015625 46.78125 33.40625 
Q 43.953125 29.203125 39.59375 26.953125 
Q 35.25 24.703125 29.984375 24.703125 
Q 19.046875 24.703125 12.671875 31.3125 
Q 6.296875 37.9375 6.296875 49.421875 
Q 6.296875 60.640625 12.9375 67.421875 
Q 19.578125 74.21875 30.609375 74.21875 
Q 43.265625 74.21875 49.921875 64.515625 
Q 56.59375 54.828125 56.59375 36.375 
Q 56.59375 19.140625 48.40625 8.859375 
Q 40.234375 -1.421875 26.421875 -1.421875 
Q 22.703125 -1.421875 18.890625 -0.6875 
Q 15.09375 0.046875 10.984375 1.515625 
z
M 30.609375 32.421875 
Q 37.25 32.421875 41.125 36.953125 
Q 45.015625 41.5 45.015625 49.421875 
Q 45.015625 57.28125 41.125 61.84375 
Q 37.25 66.40625 30.609375 66.40625 
Q 23.96875 66.40625 20.09375 61.84375 
Q 16.21875 57.28125 16.21875 49.421875 
Q 16.21875 41.5 20.09375 36.953125 
Q 23.96875 32.421875 30.609375 32.421875 
z
" id="DejaVuSans-39"/>
    </defs>
    <g transform="translate(369.479935 37.551928)scale(0.17 -0.17)">
     <use xlink:href="#DejaVuSans-62"/>
     <use x="63.476562" xlink:href="#DejaVuSans-65"/>
     <use x="125" xlink:href="#DejaVuSans-73"/>
     <use x="177.099609" xlink:href="#DejaVuSans-74"/>
     <use x="216.308594" xlink:href="#DejaVuSans-20"/>
     <use x="248.095703" xlink:href="#DejaVuSans-32"/>
     <use x="311.71875" xlink:href="#DejaVuSans-30"/>
     <use x="375.341797" xlink:href="#DejaVuSans-30"/>
     <use x="438.964844" xlink:href="#DejaVuSans-39"/>
    </g>
   </g>
   <g id="text_19">
    <!-- bbob f1, 40-D -->
    <g transform="translate(59.55864 35.290806)scale(0.102 -0.102)">
     <use xlink:href="#DejaVuSans-62"/>
     <use x="63.476562" xlink:href="#DejaVuSans-62"/>
     <use x="126.953125" xlink:href="#DejaVuSans-6f"/>
     <use x="188.134766" xlink:href="#DejaVuSans-62"/>
     <use x="251.611328" xlink:href="#DejaVuSans-20"/>
     <use x="283.398438" xlink:href="#DejaVuSans-66"/>
     <use x="318.603516" xlink:href="#DejaVuSans-31"/>
     <use x="382.226562" xlink:href="#DejaVuSans-2c"/>
     <use x="414.013672" xlink:href="#DejaVuSans-20"/>
     <use x="445.800781" xlink:href="#DejaVuSans-34"/>
     <use x="509.423828" xlink:href="#DejaVuSans-30"/>
     <use x="573.046875" xlink:href="#DejaVuSans-2d"/>
     <use x="609.130859" xlink:href="#DejaVuSans-44"/>
    </g>
    <!-- 51 targets: 100..1e-08 -->
    <defs>
     <path d="M 10.796875 72.90625 
L 49.515625 72.90625 
L 49.515625 64.59375 
L 19.828125 64.59375 
L 19.828125 46.734375 
Q 21.96875 47.46875 24.109375 47.828125 
Q 26.265625 48.1875 28.421875 48.1875 
Q 40.625 48.1875 47.75 41.5 
Q 54.890625 34.8125 54.890625 23.390625 
Q 54.890625 11.625 47.5625 5.09375 
Q 40.234375 -1.421875 26.90625 -1.421875 
Q 22.3125 -1.421875 17.546875 -0.640625 
Q 12.796875 0.140625 7.71875 1.703125 
L 7.71875 11.625 
Q 12.109375 9.234375 16.796875 8.0625 
Q 21.484375 6.890625 26.703125 6.890625 
Q 35.15625 6.890625 40.078125 11.328125 
Q 45.015625 15.765625 45.015625 23.390625 
Q 45.015625 31 40.078125 35.4375 
Q 35.15625 39.890625 26.703125 39.890625 
Q 22.75 39.890625 18.8125 39.015625 
Q 14.890625 38.140625 10.796875 36.28125 
z
" id="DejaVuSans-35"/>
     <path d="M 11.71875 12.40625 
L 22.015625 12.40625 
L 22.015625 0 
L 11.71875 0 
z
M 11.71875 51.703125 
L 22.015625 51.703125 
L 22.015625 39.3125 
L 11.71875 39.3125 
z
" id="DejaVuSans-3a"/>
    </defs>
    <g transform="translate(59.55864 46.712575)scale(0.102 -0.102)">
     <use xlink:href="#DejaVuSans-35"/>
     <use x="63.623047" xlink:href="#DejaVuSans-31"/>
     <use x="127.246094" xlink:href="#DejaVuSans-20"/>
     <use x="159.033203" xlink:href="#DejaVuSans-74"/>
     <use x="198.242188" xlink:href="#DejaVuSans-61"/>
     <use x="259.521484" xlink:href="#DejaVuSans-72"/>
     <use x="300.619141" xlink:href="#DejaVuSans-67"/>
     <use x="364.095703" xlink:href="#DejaVuSans-65"/>
     <use x="425.619141" xlink:href="#DejaVuSans-74"/>
     <use x="464.828125" xlink:href="#DejaVuSans-73"/>
     <use x="516.927734" xlink:href="#DejaVuSans-3a"/>
     <use x="550.619141" xlink:href="#DejaVuSans-20"/>
     <use x="582.40625" xlink:href="#DejaVuSans-31"/>
     <use x="646.029297" xlink:href="#DejaVuSans-30"/>
     <use x="709.652344" xlink:href="#DejaVuSans-30"/>
     <use x="773.275391" xlink:href="#DejaVuSans-2e"/>
     <use x="805.0625" xlink:href="#DejaVuSans-2e"/>
     <use x="836.849609" xlink:href="#DejaVuSans-31"/>
     <use x="900.472656" xlink:href="#DejaVuSans-65"/>
     <use x="961.996094" xlink:href="#DejaVuSans-2d"/>
     <use x="998.080078" xlink:href="#DejaVuSans-30"/>
     <use x="1061.703125" xlink:href="#DejaVuSans-38"/>
    </g>
    <!-- 15 instances -->
    <g transform="translate(59.55864 58.134344)scale(0.102 -0.102)">
     <use xlink:href="#DejaVuSans-31"/>
     <use x="63.623047" xlink:href="#DejaVuSans-35"/>
     <use x="127.246094" xlink:href="#DejaVuSans-20"/>
     <use x="159.033203" xlink:href="#DejaVuSans-69"/>
     <use x="186.816406" xlink:href="#DejaVuSans-6e"/>
     <use x="250.195312" xlink:href="#DejaVuSans-73"/>
     <use x="302.294922" xlink:href="#DejaVuSans-74"/>
     <use x="341.503906" xlink:href="#DejaVuSans-61"/>
     <use x="402.783203" xlink:href="#DejaVuSans-6e"/>
     <use x="466.162109" xlink:href="#DejaVuSans-63"/>
     <use x="521.142578" xlink:href="#DejaVuSans-65"/>
     <use x="582.666016" xlink:href="#DejaVuSans-73"/>
    </g>
   </g>
   <g id="text_20">
    <!-- v-coco-version -->
    <g style="fill:#808080;" transform="translate(191.556688 290.099912)scale(0.1 -0.1)">
     <use xlink:href="#DejaVuSans-76"/>
     <use x="59.148438" xlink:href="#DejaVuSans-2d"/>
     <use x="95.232422" xlink:href="#DejaVuSans-63"/>
     <use x="150.212891" xlink:href="#DejaVuSans-6f"/>
     <use x="211.394531" xlink:href="#DejaVuSans-63"/>
     <use x="266.375" xlink:href="#DejaVuSans-6f"/>
     <use x="327.572266" xlink:href="#DejaVuSans-2d"/>
     <use x="363.625" xlink:href="#DejaVuSans-76"/>
     <use x="422.804688" xlink:href="#DejaVuSans-65"/>
     <use x="484.328125" xlink:href="#DejaVuSans-72"/>
     <use x="525.441406" xlink:href="#DejaVuSans-73"/>
     <use x="577.541016" xlink:href="#DejaVuSans-69"/>
     <use x="605.324219" xlink:href="#DejaVuSans-6f"/>
     <use x="666.505859" xlink:href="#DejaVuSans-6e"/>
    </g>
   </g>
   <g id="text_21">
    <!-- 1 Sphere -->
    <defs>
     <path d="M 54.890625 33.015625 
L 54.890625 0 
L 45.90625 0 
L 45.90625 32.71875 
Q 45.90625 40.484375 42.875 44.328125 
Q 39.84375 48.1875 33.796875 48.1875 
Q 26.515625 48.1875 22.3125 43.546875 
Q 18.109375 38.921875 18.109375 30.90625 
L 18.109375 0 
L 9.078125 0 
L 9.078125 75.984375 
L 18.109375 75.984375 
L 18.109375 46.1875 
Q 21.34375 51.125 25.703125 53.5625 
Q 30.078125 56 35.796875 56 
Q 45.21875 56 50.046875 50.171875 
Q 54.890625 44.34375 54.890625 33.015625 
z
" id="DejaVuSans-68"/>
    </defs>
    <g transform="translate(183.062938 18.84)scale(0.2 -0.2)">
     <use xlink:href="#DejaVuSans-31"/>
     <use x="63.623047" xlink:href="#DejaVuSans-20"/>
     <use x="95.410156" xlink:href="#DejaVuSans-53"/>
     <use x="158.886719" xlink:href="#DejaVuSans-70"/>
     <use x="222.363281" xlink:href="#DejaVuSans-68"/>
     <use x="285.742188" xlink:href="#DejaVuSans-65"/>
     <use x="347.265625" xlink:href="#DejaVuSans-72"/>
     <use x="388.347656" xlink:href="#DejaVuSans-65"/>
    </g>
   </g>
  </g>
 </g>
 <defs>
  <clipPath id="pc27d49a63f">
   <rect height="270.04" width="343.864" x="56.12" y="24.84"/>
  </clipPath>
 </defs>
</svg>
