<?xml version="1.0" encoding="utf-8" standalone="no"?>
<!DOCTYPE svg PUBLIC "-//W3C//DTD SVG 1.1//EN"
  "http://www.w3.org/Graphics/SVG/1.1/DTD/svg11.dtd">
<!-- Created with matplotlib (http://matplotlib.org/) -->
<svg height="345.6pt" version="1.1" viewBox="0 0 460.8 345.6" width="460.8pt" xmlns="http://www.w3.org/2000/svg" xmlns:xlink="http://www.w3.org/1999/xlink">
 <defs>
  <style type="text/css">
*{stroke-linecap:butt;stroke-linejoin:round;}
  </style>
 </defs>
 <g id="figure_1">
  <g id="patch_1">
   <path d="M 0 345.6 
L 460.8 345.6 
L 460.8 0 
L 0 0 
z
" style="fill:#ffffff;"/>
  </g>
  <g id="axes_1">
   <g id="patch_2">
    <path d="M 56.12 294.88 
L 399.984 294.88 
L 399.984 24.84 
L 56.12 24.84 
z
" style="fill:#ffffff;"/>
   </g>
   <g id="line2d_1">
    <path d="M 110.833797 294.88 
L 110.833797 289.637523 
L 111.187819 289.637523 
L 111.187819 284.395046 
L 111.908367 284.395046 
L 111.908367 279.152568 
L 116.714489 279.152568 
L 116.714489 273.910091 
L 121.01006 273.910091 
L 121.01006 268.667614 
L 123.460207 268.667614 
L 123.460207 263.425137 
L 126.433127 263.425137 
L 126.433127 258.18266 
L 129.747193 258.18266 
L 129.747193 252.940182 
L 130.481907 252.940182 
L 130.481907 247.697705 
L 131.757741 247.697705 
L 131.757741 242.455228 
L 137.208725 242.455228 
L 137.208725 237.212751 
L 140.898972 237.212751 
L 140.898972 231.970274 
L 143.518145 231.970274 
L 143.518145 226.727797 
L 145.972683 226.727797 
L 145.972683 221.485319 
L 150.46734 221.485319 
L 150.46734 216.242842 
L 155.032056 216.242842 
L 155.032056 211.000365 
L 158.069014 211.000365 
L 158.069014 205.757888 
L 158.806414 205.757888 
L 158.806414 200.515411 
L 159.241013 200.515411 
L 159.241013 195.272933 
L 159.854371 195.272933 
L 159.854371 190.030456 
L 160.418582 190.030456 
L 160.418582 184.787979 
L 160.902646 184.787979 
L 160.902646 179.545502 
L 161.346903 179.545502 
L 161.346903 174.303025 
L 161.741053 174.303025 
L 161.741053 169.060547 
L 162.227688 169.060547 
L 162.227688 163.81807 
L 162.627073 163.81807 
L 162.627073 158.575593 
L 163.108469 158.575593 
L 163.108469 153.333116 
L 163.523309 153.333116 
L 163.523309 148.090639 
L 164.014768 148.090639 
L 164.014768 142.848162 
L 164.405385 142.848162 
L 164.405385 137.605684 
L 164.809078 137.605684 
L 164.809078 132.363207 
L 165.1351 132.363207 
L 165.1351 127.12073 
L 165.559413 127.12073 
L 165.559413 121.878253 
L 165.871649 121.878253 
L 165.871649 116.635776 
L 166.338152 116.635776 
L 166.338152 111.393298 
L 166.582157 111.393298 
L 166.582157 106.150821 
L 166.95619 106.150821 
L 166.95619 100.908344 
L 167.338356 100.908344 
L 167.338356 95.665867 
L 167.684654 95.665867 
L 167.684654 90.42339 
L 167.938908 90.42339 
L 167.938908 85.180912 
L 168.301345 85.180912 
L 168.301345 79.938435 
L 168.627727 79.938435 
L 168.627727 74.695958 
L 168.950474 74.695958 
L 168.950474 69.453481 
L 169.249297 69.453481 
L 169.249297 64.211004 
L 169.538302 64.211004 
L 169.538302 58.968526 
L 169.822531 58.968526 
L 169.822531 53.726049 
L 170.143182 53.726049 
L 170.143182 48.483572 
L 170.48366 48.483572 
L 170.48366 43.241095 
L 170.611561 43.241095 
L 170.611561 37.998618 
L 170.66798 37.998618 
L 170.66798 32.756141 
L 170.764896 32.756141 
L 170.764896 27.513663 
L 333.429677 27.513663 
" style="fill:none;stroke:#f5deb3;stroke-linecap:square;stroke-width:6;"/>
   </g>
   <g id="line2d_2">
    <defs>
     <path d="M -0 7.778175 
L 7.778175 0 
L 0 -7.778175 
L -7.778175 -0 
z
" id="m44d0eeb8da" style="stroke:#f5deb3;stroke-linejoin:miter;stroke-width:1.5;"/>
    </defs>
    <g>
     <use style="fill:#f5deb3;stroke:#f5deb3;stroke-linejoin:miter;stroke-width:1.5;" x="145.972683" xlink:href="#m44d0eeb8da" y="221.485319"/>
     <use style="fill:#f5deb3;stroke:#f5deb3;stroke-linejoin:miter;stroke-width:1.5;" x="167.684654" xlink:href="#m44d0eeb8da" y="95.665867"/>
     <use style="fill:#f5deb3;stroke:#f5deb3;stroke-linejoin:miter;stroke-width:1.5;" x="170.764896" xlink:href="#m44d0eeb8da" y="27.513663"/>
     <use style="fill:#f5deb3;stroke:#f5deb3;stroke-linejoin:miter;stroke-width:1.5;" x="170.764896" xlink:href="#m44d0eeb8da" y="27.513663"/>
     <use style="fill:#f5deb3;stroke:#f5deb3;stroke-linejoin:miter;stroke-width:1.5;" x="333.429677" xlink:href="#m44d0eeb8da" y="27.513663"/>
    </g>
   </g>
   <g id="line2d_3">
    <path style="fill:none;stroke:#f5deb3;stroke-linecap:square;stroke-width:6;"/>
    <g/>
   </g>
   <g id="line2d_4">
    <path d="M 333.429677 27.513663 
L 363.933742 32.86099 
" style="fill:none;stroke:#f5deb3;stroke-linecap:square;stroke-width:6;"/>
    <g>
     <use style="fill:#f5deb3;stroke:#f5deb3;stroke-linejoin:miter;stroke-width:1.5;" x="333.429677" xlink:href="#m44d0eeb8da" y="27.513663"/>
     <use style="fill:#f5deb3;stroke:#f5deb3;stroke-linejoin:miter;stroke-width:1.5;" x="363.933742" xlink:href="#m44d0eeb8da" y="32.86099"/>
    </g>
   </g>
   <g id="matplotlib.axis_1">
    <g id="xtick_1">
     <g id="line2d_5">
      <path clip-path="url(#p8a1c8b9339)" d="M 56.12 294.88 
L 56.12 24.84 
" style="fill:none;stroke:#b0b0b0;stroke-linecap:square;stroke-width:0.8;"/>
     </g>
     <g id="line2d_6">
      <defs>
       <path d="M 0 0 
L 0 3.5 
" id="ma2c511bc68" style="stroke:#000000;stroke-width:0.8;"/>
      </defs>
      <g>
       <use style="stroke:#000000;stroke-width:0.8;" x="56.12" xlink:href="#ma2c511bc68" y="294.88"/>
      </g>
     </g>
     <g id="text_1">
      <!-- 0 -->
      <defs>
       <path d="M 31.78125 66.40625 
Q 24.171875 66.40625 20.328125 58.90625 
Q 16.5 51.421875 16.5 36.375 
Q 16.5 21.390625 20.328125 13.890625 
Q 24.171875 6.390625 31.78125 6.390625 
Q 39.453125 6.390625 43.28125 13.890625 
Q 47.125 21.390625 47.125 36.375 
Q 47.125 51.421875 43.28125 58.90625 
Q 39.453125 66.40625 31.78125 66.40625 
z
M 31.78125 74.21875 
Q 44.046875 74.21875 50.515625 64.515625 
Q 56.984375 54.828125 56.984375 36.375 
Q 56.984375 17.96875 50.515625 8.265625 
Q 44.046875 -1.421875 31.78125 -1.421875 
Q 19.53125 -1.421875 13.0625 8.265625 
Q 6.59375 17.96875 6.59375 36.375 
Q 6.59375 54.828125 13.0625 64.515625 
Q 19.53125 74.21875 31.78125 74.21875 
z
" id="DejaVuSans-30"/>
      </defs>
      <g transform="translate(49.7575 317.076875)scale(0.2 -0.2)">
       <use xlink:href="#DejaVuSans-30"/>
      </g>
     </g>
    </g>
    <g id="xtick_2">
     <g id="line2d_7">
      <path clip-path="url(#p8a1c8b9339)" d="M 135.351336 294.88 
L 135.351336 24.84 
" style="fill:none;stroke:#b0b0b0;stroke-linecap:square;stroke-width:0.8;"/>
     </g>
     <g id="line2d_8">
      <g>
       <use style="stroke:#000000;stroke-width:0.8;" x="135.351336" xlink:href="#ma2c511bc68" y="294.88"/>
      </g>
     </g>
     <g id="text_2">
      <!-- 2 -->
      <defs>
       <path d="M 19.1875 8.296875 
L 53.609375 8.296875 
L 53.609375 0 
L 7.328125 0 
L 7.328125 8.296875 
Q 12.9375 14.109375 22.625 23.890625 
Q 32.328125 33.6875 34.8125 36.53125 
Q 39.546875 41.84375 41.421875 45.53125 
Q 43.3125 49.21875 43.3125 52.78125 
Q 43.3125 58.59375 39.234375 62.25 
Q 35.15625 65.921875 28.609375 65.921875 
Q 23.96875 65.921875 18.8125 64.3125 
Q 13.671875 62.703125 7.8125 59.421875 
L 7.8125 69.390625 
Q 13.765625 71.78125 18.9375 73 
Q 24.125 74.21875 28.421875 74.21875 
Q 39.75 74.21875 46.484375 68.546875 
Q 53.21875 62.890625 53.21875 53.421875 
Q 53.21875 48.921875 51.53125 44.890625 
Q 49.859375 40.875 45.40625 35.40625 
Q 44.1875 33.984375 37.640625 27.21875 
Q 31.109375 20.453125 19.1875 8.296875 
z
" id="DejaVuSans-32"/>
      </defs>
      <g transform="translate(128.988836 317.076875)scale(0.2 -0.2)">
       <use xlink:href="#DejaVuSans-32"/>
      </g>
     </g>
    </g>
    <g id="xtick_3">
     <g id="line2d_9">
      <path clip-path="url(#p8a1c8b9339)" d="M 214.582673 294.88 
L 214.582673 24.84 
" style="fill:none;stroke:#b0b0b0;stroke-linecap:square;stroke-width:0.8;"/>
     </g>
     <g id="line2d_10">
      <g>
       <use style="stroke:#000000;stroke-width:0.8;" x="214.582673" xlink:href="#ma2c511bc68" y="294.88"/>
      </g>
     </g>
     <g id="text_3">
      <!-- 4 -->
      <defs>
       <path d="M 37.796875 64.3125 
L 12.890625 25.390625 
L 37.796875 25.390625 
z
M 35.203125 72.90625 
L 47.609375 72.90625 
L 47.609375 25.390625 
L 58.015625 25.390625 
L 58.015625 17.1875 
L 47.609375 17.1875 
L 47.609375 0 
L 37.796875 0 
L 37.796875 17.1875 
L 4.890625 17.1875 
L 4.890625 26.703125 
z
" id="DejaVuSans-34"/>
      </defs>
      <g transform="translate(208.220173 317.076875)scale(0.2 -0.2)">
       <use xlink:href="#DejaVuSans-34"/>
      </g>
     </g>
    </g>
    <g id="xtick_4">
     <g id="line2d_11">
      <path clip-path="url(#p8a1c8b9339)" d="M 293.814009 294.88 
L 293.814009 24.84 
" style="fill:none;stroke:#b0b0b0;stroke-linecap:square;stroke-width:0.8;"/>
     </g>
     <g id="line2d_12">
      <g>
       <use style="stroke:#000000;stroke-width:0.8;" x="293.814009" xlink:href="#ma2c511bc68" y="294.88"/>
      </g>
     </g>
     <g id="text_4">
      <!-- 6 -->
      <defs>
       <path d="M 33.015625 40.375 
Q 26.375 40.375 22.484375 35.828125 
Q 18.609375 31.296875 18.609375 23.390625 
Q 18.609375 15.53125 22.484375 10.953125 
Q 26.375 6.390625 33.015625 6.390625 
Q 39.65625 6.390625 43.53125 10.953125 
Q 47.40625 15.53125 47.40625 23.390625 
Q 47.40625 31.296875 43.53125 35.828125 
Q 39.65625 40.375 33.015625 40.375 
z
M 52.59375 71.296875 
L 52.59375 62.3125 
Q 48.875 64.0625 45.09375 64.984375 
Q 41.3125 65.921875 37.59375 65.921875 
Q 27.828125 65.921875 22.671875 59.328125 
Q 17.53125 52.734375 16.796875 39.40625 
Q 19.671875 43.65625 24.015625 45.921875 
Q 28.375 48.1875 33.59375 48.1875 
Q 44.578125 48.1875 50.953125 41.515625 
Q 57.328125 34.859375 57.328125 23.390625 
Q 57.328125 12.15625 50.6875 5.359375 
Q 44.046875 -1.421875 33.015625 -1.421875 
Q 20.359375 -1.421875 13.671875 8.265625 
Q 6.984375 17.96875 6.984375 36.375 
Q 6.984375 53.65625 15.1875 63.9375 
Q 23.390625 74.21875 37.203125 74.21875 
Q 40.921875 74.21875 44.703125 73.484375 
Q 48.484375 72.75 52.59375 71.296875 
z
" id="DejaVuSans-36"/>
      </defs>
      <g transform="translate(287.451509 317.076875)scale(0.2 -0.2)">
       <use xlink:href="#DejaVuSans-36"/>
      </g>
     </g>
    </g>
    <g id="xtick_5">
     <g id="line2d_13">
      <path clip-path="url(#p8a1c8b9339)" d="M 373.045346 294.88 
L 373.045346 24.84 
" style="fill:none;stroke:#b0b0b0;stroke-linecap:square;stroke-width:0.8;"/>
     </g>
     <g id="line2d_14">
      <g>
       <use style="stroke:#000000;stroke-width:0.8;" x="373.045346" xlink:href="#ma2c511bc68" y="294.88"/>
      </g>
     </g>
     <g id="text_5">
      <!-- 8 -->
      <defs>
       <path d="M 31.78125 34.625 
Q 24.75 34.625 20.71875 30.859375 
Q 16.703125 27.09375 16.703125 20.515625 
Q 16.703125 13.921875 20.71875 10.15625 
Q 24.75 6.390625 31.78125 6.390625 
Q 38.8125 6.390625 42.859375 10.171875 
Q 46.921875 13.96875 46.921875 20.515625 
Q 46.921875 27.09375 42.890625 30.859375 
Q 38.875 34.625 31.78125 34.625 
z
M 21.921875 38.8125 
Q 15.578125 40.375 12.03125 44.71875 
Q 8.5 49.078125 8.5 55.328125 
Q 8.5 64.0625 14.71875 69.140625 
Q 20.953125 74.21875 31.78125 74.21875 
Q 42.671875 74.21875 48.875 69.140625 
Q 55.078125 64.0625 55.078125 55.328125 
Q 55.078125 49.078125 51.53125 44.71875 
Q 48 40.375 41.703125 38.8125 
Q 48.828125 37.15625 52.796875 32.3125 
Q 56.78125 27.484375 56.78125 20.515625 
Q 56.78125 9.90625 50.3125 4.234375 
Q 43.84375 -1.421875 31.78125 -1.421875 
Q 19.734375 -1.421875 13.25 4.234375 
Q 6.78125 9.90625 6.78125 20.515625 
Q 6.78125 27.484375 10.78125 32.3125 
Q 14.796875 37.15625 21.921875 38.8125 
z
M 18.3125 54.390625 
Q 18.3125 48.734375 21.84375 45.5625 
Q 25.390625 42.390625 31.78125 42.390625 
Q 38.140625 42.390625 41.71875 45.5625 
Q 45.3125 48.734375 45.3125 54.390625 
Q 45.3125 60.0625 41.71875 63.234375 
Q 38.140625 66.40625 31.78125 66.40625 
Q 25.390625 66.40625 21.84375 63.234375 
Q 18.3125 60.0625 18.3125 54.390625 
z
" id="DejaVuSans-38"/>
      </defs>
      <g transform="translate(366.682846 317.076875)scale(0.2 -0.2)">
       <use xlink:href="#DejaVuSans-38"/>
      </g>
     </g>
    </g>
    <g id="text_6">
     <!-- log10(# f-evals / dimension) -->
     <defs>
      <path d="M 9.421875 75.984375 
L 18.40625 75.984375 
L 18.40625 0 
L 9.421875 0 
z
" id="DejaVuSans-6c"/>
      <path d="M 30.609375 48.390625 
Q 23.390625 48.390625 19.1875 42.75 
Q 14.984375 37.109375 14.984375 27.296875 
Q 14.984375 17.484375 19.15625 11.84375 
Q 23.34375 6.203125 30.609375 6.203125 
Q 37.796875 6.203125 41.984375 11.859375 
Q 46.1875 17.53125 46.1875 27.296875 
Q 46.1875 37.015625 41.984375 42.703125 
Q 37.796875 48.390625 30.609375 48.390625 
z
M 30.609375 56 
Q 42.328125 56 49.015625 48.375 
Q 55.71875 40.765625 55.71875 27.296875 
Q 55.71875 13.875 49.015625 6.21875 
Q 42.328125 -1.421875 30.609375 -1.421875 
Q 18.84375 -1.421875 12.171875 6.21875 
Q 5.515625 13.875 5.515625 27.296875 
Q 5.515625 40.765625 12.171875 48.375 
Q 18.84375 56 30.609375 56 
z
" id="DejaVuSans-6f"/>
      <path d="M 45.40625 27.984375 
Q 45.40625 37.75 41.375 43.109375 
Q 37.359375 48.484375 30.078125 48.484375 
Q 22.859375 48.484375 18.828125 43.109375 
Q 14.796875 37.75 14.796875 27.984375 
Q 14.796875 18.265625 18.828125 12.890625 
Q 22.859375 7.515625 30.078125 7.515625 
Q 37.359375 7.515625 41.375 12.890625 
Q 45.40625 18.265625 45.40625 27.984375 
z
M 54.390625 6.78125 
Q 54.390625 -7.171875 48.1875 -13.984375 
Q 42 -20.796875 29.203125 -20.796875 
Q 24.46875 -20.796875 20.265625 -20.09375 
Q 16.0625 -19.390625 12.109375 -17.921875 
L 12.109375 -9.1875 
Q 16.0625 -11.328125 19.921875 -12.34375 
Q 23.78125 -13.375 27.78125 -13.375 
Q 36.625 -13.375 41.015625 -8.765625 
Q 45.40625 -4.15625 45.40625 5.171875 
L 45.40625 9.625 
Q 42.625 4.78125 38.28125 2.390625 
Q 33.9375 0 27.875 0 
Q 17.828125 0 11.671875 7.65625 
Q 5.515625 15.328125 5.515625 27.984375 
Q 5.515625 40.671875 11.671875 48.328125 
Q 17.828125 56 27.875 56 
Q 33.9375 56 38.28125 53.609375 
Q 42.625 51.21875 45.40625 46.390625 
L 45.40625 54.6875 
L 54.390625 54.6875 
z
" id="DejaVuSans-67"/>
      <path d="M 12.40625 8.296875 
L 28.515625 8.296875 
L 28.515625 63.921875 
L 10.984375 60.40625 
L 10.984375 69.390625 
L 28.421875 72.90625 
L 38.28125 72.90625 
L 38.28125 8.296875 
L 54.390625 8.296875 
L 54.390625 0 
L 12.40625 0 
z
" id="DejaVuSans-31"/>
      <path d="M 31 75.875 
Q 24.46875 64.65625 21.28125 53.65625 
Q 18.109375 42.671875 18.109375 31.390625 
Q 18.109375 20.125 21.3125 9.0625 
Q 24.515625 -2 31 -13.1875 
L 23.1875 -13.1875 
Q 15.875 -1.703125 12.234375 9.375 
Q 8.59375 20.453125 8.59375 31.390625 
Q 8.59375 42.28125 12.203125 53.3125 
Q 15.828125 64.359375 23.1875 75.875 
z
" id="DejaVuSans-28"/>
      <path d="M 51.125 44 
L 36.921875 44 
L 32.8125 27.6875 
L 47.125 27.6875 
z
M 43.796875 71.78125 
L 38.71875 51.515625 
L 52.984375 51.515625 
L 58.109375 71.78125 
L 65.921875 71.78125 
L 60.890625 51.515625 
L 76.125 51.515625 
L 76.125 44 
L 58.984375 44 
L 54.984375 27.6875 
L 70.515625 27.6875 
L 70.515625 20.21875 
L 53.078125 20.21875 
L 48 0 
L 40.1875 0 
L 45.21875 20.21875 
L 30.90625 20.21875 
L 25.875 0 
L 18.015625 0 
L 23.09375 20.21875 
L 7.71875 20.21875 
L 7.71875 27.6875 
L 24.90625 27.6875 
L 29 44 
L 13.28125 44 
L 13.28125 51.515625 
L 30.90625 51.515625 
L 35.890625 71.78125 
z
" id="DejaVuSans-23"/>
      <path id="DejaVuSans-20"/>
      <path d="M 37.109375 75.984375 
L 37.109375 68.5 
L 28.515625 68.5 
Q 23.6875 68.5 21.796875 66.546875 
Q 19.921875 64.59375 19.921875 59.515625 
L 19.921875 54.6875 
L 34.71875 54.6875 
L 34.71875 47.703125 
L 19.921875 47.703125 
L 19.921875 0 
L 10.890625 0 
L 10.890625 47.703125 
L 2.296875 47.703125 
L 2.296875 54.6875 
L 10.890625 54.6875 
L 10.890625 58.5 
Q 10.890625 67.625 15.140625 71.796875 
Q 19.390625 75.984375 28.609375 75.984375 
z
" id="DejaVuSans-66"/>
      <path d="M 4.890625 31.390625 
L 31.203125 31.390625 
L 31.203125 23.390625 
L 4.890625 23.390625 
z
" id="DejaVuSans-2d"/>
      <path d="M 56.203125 29.59375 
L 56.203125 25.203125 
L 14.890625 25.203125 
Q 15.484375 15.921875 20.484375 11.0625 
Q 25.484375 6.203125 34.421875 6.203125 
Q 39.59375 6.203125 44.453125 7.46875 
Q 49.3125 8.734375 54.109375 11.28125 
L 54.109375 2.78125 
Q 49.265625 0.734375 44.1875 -0.34375 
Q 39.109375 -1.421875 33.890625 -1.421875 
Q 20.796875 -1.421875 13.15625 6.1875 
Q 5.515625 13.8125 5.515625 26.8125 
Q 5.515625 40.234375 12.765625 48.109375 
Q 20.015625 56 32.328125 56 
Q 43.359375 56 49.78125 48.890625 
Q 56.203125 41.796875 56.203125 29.59375 
z
M 47.21875 32.234375 
Q 47.125 39.59375 43.09375 43.984375 
Q 39.0625 48.390625 32.421875 48.390625 
Q 24.90625 48.390625 20.390625 44.140625 
Q 15.875 39.890625 15.1875 32.171875 
z
" id="DejaVuSans-65"/>
      <path d="M 2.984375 54.6875 
L 12.5 54.6875 
L 29.59375 8.796875 
L 46.6875 54.6875 
L 56.203125 54.6875 
L 35.6875 0 
L 23.484375 0 
z
" id="DejaVuSans-76"/>
      <path d="M 34.28125 27.484375 
Q 23.390625 27.484375 19.1875 25 
Q 14.984375 22.515625 14.984375 16.5 
Q 14.984375 11.71875 18.140625 8.90625 
Q 21.296875 6.109375 26.703125 6.109375 
Q 34.1875 6.109375 38.703125 11.40625 
Q 43.21875 16.703125 43.21875 25.484375 
L 43.21875 27.484375 
z
M 52.203125 31.203125 
L 52.203125 0 
L 43.21875 0 
L 43.21875 8.296875 
Q 40.140625 3.328125 35.546875 0.953125 
Q 30.953125 -1.421875 24.3125 -1.421875 
Q 15.921875 -1.421875 10.953125 3.296875 
Q 6 8.015625 6 15.921875 
Q 6 25.140625 12.171875 29.828125 
Q 18.359375 34.515625 30.609375 34.515625 
L 43.21875 34.515625 
L 43.21875 35.40625 
Q 43.21875 41.609375 39.140625 45 
Q 35.0625 48.390625 27.6875 48.390625 
Q 23 48.390625 18.546875 47.265625 
Q 14.109375 46.140625 10.015625 43.890625 
L 10.015625 52.203125 
Q 14.9375 54.109375 19.578125 55.046875 
Q 24.21875 56 28.609375 56 
Q 40.484375 56 46.34375 49.84375 
Q 52.203125 43.703125 52.203125 31.203125 
z
" id="DejaVuSans-61"/>
      <path d="M 44.28125 53.078125 
L 44.28125 44.578125 
Q 40.484375 46.53125 36.375 47.5 
Q 32.28125 48.484375 27.875 48.484375 
Q 21.1875 48.484375 17.84375 46.4375 
Q 14.5 44.390625 14.5 40.28125 
Q 14.5 37.15625 16.890625 35.375 
Q 19.28125 33.59375 26.515625 31.984375 
L 29.59375 31.296875 
Q 39.15625 29.25 43.1875 25.515625 
Q 47.21875 21.78125 47.21875 15.09375 
Q 47.21875 7.46875 41.1875 3.015625 
Q 35.15625 -1.421875 24.609375 -1.421875 
Q 20.21875 -1.421875 15.453125 -0.5625 
Q 10.6875 0.296875 5.421875 2 
L 5.421875 11.28125 
Q 10.40625 8.6875 15.234375 7.390625 
Q 20.0625 6.109375 24.8125 6.109375 
Q 31.15625 6.109375 34.5625 8.28125 
Q 37.984375 10.453125 37.984375 14.40625 
Q 37.984375 18.0625 35.515625 20.015625 
Q 33.0625 21.96875 24.703125 23.78125 
L 21.578125 24.515625 
Q 13.234375 26.265625 9.515625 29.90625 
Q 5.8125 33.546875 5.8125 39.890625 
Q 5.8125 47.609375 11.28125 51.796875 
Q 16.75 56 26.8125 56 
Q 31.78125 56 36.171875 55.265625 
Q 40.578125 54.546875 44.28125 53.078125 
z
" id="DejaVuSans-73"/>
      <path d="M 25.390625 72.90625 
L 33.6875 72.90625 
L 8.296875 -9.28125 
L 0 -9.28125 
z
" id="DejaVuSans-2f"/>
      <path d="M 45.40625 46.390625 
L 45.40625 75.984375 
L 54.390625 75.984375 
L 54.390625 0 
L 45.40625 0 
L 45.40625 8.203125 
Q 42.578125 3.328125 38.25 0.953125 
Q 33.9375 -1.421875 27.875 -1.421875 
Q 17.96875 -1.421875 11.734375 6.484375 
Q 5.515625 14.40625 5.515625 27.296875 
Q 5.515625 40.1875 11.734375 48.09375 
Q 17.96875 56 27.875 56 
Q 33.9375 56 38.25 53.625 
Q 42.578125 51.265625 45.40625 46.390625 
z
M 14.796875 27.296875 
Q 14.796875 17.390625 18.875 11.75 
Q 22.953125 6.109375 30.078125 6.109375 
Q 37.203125 6.109375 41.296875 11.75 
Q 45.40625 17.390625 45.40625 27.296875 
Q 45.40625 37.203125 41.296875 42.84375 
Q 37.203125 48.484375 30.078125 48.484375 
Q 22.953125 48.484375 18.875 42.84375 
Q 14.796875 37.203125 14.796875 27.296875 
z
" id="DejaVuSans-64"/>
      <path d="M 9.421875 54.6875 
L 18.40625 54.6875 
L 18.40625 0 
L 9.421875 0 
z
M 9.421875 75.984375 
L 18.40625 75.984375 
L 18.40625 64.59375 
L 9.421875 64.59375 
z
" id="DejaVuSans-69"/>
      <path d="M 52 44.1875 
Q 55.375 50.25 60.0625 53.125 
Q 64.75 56 71.09375 56 
Q 79.640625 56 84.28125 50.015625 
Q 88.921875 44.046875 88.921875 33.015625 
L 88.921875 0 
L 79.890625 0 
L 79.890625 32.71875 
Q 79.890625 40.578125 77.09375 44.375 
Q 74.3125 48.1875 68.609375 48.1875 
Q 61.625 48.1875 57.5625 43.546875 
Q 53.515625 38.921875 53.515625 30.90625 
L 53.515625 0 
L 44.484375 0 
L 44.484375 32.71875 
Q 44.484375 40.625 41.703125 44.40625 
Q 38.921875 48.1875 33.109375 48.1875 
Q 26.21875 48.1875 22.15625 43.53125 
Q 18.109375 38.875 18.109375 30.90625 
L 18.109375 0 
L 9.078125 0 
L 9.078125 54.6875 
L 18.109375 54.6875 
L 18.109375 46.1875 
Q 21.1875 51.21875 25.484375 53.609375 
Q 29.78125 56 35.6875 56 
Q 41.65625 56 45.828125 52.96875 
Q 50 49.953125 52 44.1875 
z
" id="DejaVuSans-6d"/>
      <path d="M 54.890625 33.015625 
L 54.890625 0 
L 45.90625 0 
L 45.90625 32.71875 
Q 45.90625 40.484375 42.875 44.328125 
Q 39.84375 48.1875 33.796875 48.1875 
Q 26.515625 48.1875 22.3125 43.546875 
Q 18.109375 38.921875 18.109375 30.90625 
L 18.109375 0 
L 9.078125 0 
L 9.078125 54.6875 
L 18.109375 54.6875 
L 18.109375 46.1875 
Q 21.34375 51.125 25.703125 53.5625 
Q 30.078125 56 35.796875 56 
Q 45.21875 56 50.046875 50.171875 
Q 54.890625 44.34375 54.890625 33.015625 
z
" id="DejaVuSans-6e"/>
      <path d="M 8.015625 75.875 
L 15.828125 75.875 
Q 23.140625 64.359375 26.78125 53.3125 
Q 30.421875 42.28125 30.421875 31.390625 
Q 30.421875 20.453125 26.78125 9.375 
Q 23.140625 -1.703125 15.828125 -13.1875 
L 8.015625 -13.1875 
Q 14.5 -2 17.703125 9.0625 
Q 20.90625 20.125 20.90625 31.390625 
Q 20.90625 42.671875 17.703125 53.65625 
Q 14.5 64.65625 8.015625 75.875 
z
" id="DejaVuSans-29"/>
     </defs>
     <g transform="translate(107.211219 338.153594)scale(0.17 -0.17)">
      <use xlink:href="#DejaVuSans-6c"/>
      <use x="27.783203" xlink:href="#DejaVuSans-6f"/>
      <use x="88.964844" xlink:href="#DejaVuSans-67"/>
      <use x="152.441406" xlink:href="#DejaVuSans-31"/>
      <use x="216.064453" xlink:href="#DejaVuSans-30"/>
      <use x="279.6875" xlink:href="#DejaVuSans-28"/>
      <use x="318.701172" xlink:href="#DejaVuSans-23"/>
      <use x="402.490234" xlink:href="#DejaVuSans-20"/>
      <use x="434.277344" xlink:href="#DejaVuSans-66"/>
      <use x="469.404297" xlink:href="#DejaVuSans-2d"/>
      <use x="505.488281" xlink:href="#DejaVuSans-65"/>
      <use x="567.011719" xlink:href="#DejaVuSans-76"/>
      <use x="626.191406" xlink:href="#DejaVuSans-61"/>
      <use x="687.470703" xlink:href="#DejaVuSans-6c"/>
      <use x="715.253906" xlink:href="#DejaVuSans-73"/>
      <use x="767.353516" xlink:href="#DejaVuSans-20"/>
      <use x="799.140625" xlink:href="#DejaVuSans-2f"/>
      <use x="832.832031" xlink:href="#DejaVuSans-20"/>
      <use x="864.619141" xlink:href="#DejaVuSans-64"/>
      <use x="928.095703" xlink:href="#DejaVuSans-69"/>
      <use x="955.878906" xlink:href="#DejaVuSans-6d"/>
      <use x="1053.291016" xlink:href="#DejaVuSans-65"/>
      <use x="1114.814453" xlink:href="#DejaVuSans-6e"/>
      <use x="1178.193359" xlink:href="#DejaVuSans-73"/>
      <use x="1230.292969" xlink:href="#DejaVuSans-69"/>
      <use x="1258.076172" xlink:href="#DejaVuSans-6f"/>
      <use x="1319.257812" xlink:href="#DejaVuSans-6e"/>
      <use x="1382.636719" xlink:href="#DejaVuSans-29"/>
     </g>
    </g>
   </g>
   <g id="matplotlib.axis_2">
    <g id="ytick_1">
     <g id="line2d_15">
      <path clip-path="url(#p8a1c8b9339)" d="M 56.12 294.88 
L 399.984 294.88 
" style="fill:none;stroke:#b0b0b0;stroke-linecap:square;stroke-width:0.8;"/>
     </g>
     <g id="line2d_16">
      <defs>
       <path d="M 0 0 
L -3.5 0 
" id="m4bfe90640e" style="stroke:#000000;stroke-width:0.8;"/>
      </defs>
      <g>
       <use style="stroke:#000000;stroke-width:0.8;" x="56.12" xlink:href="#m4bfe90640e" y="294.88"/>
      </g>
     </g>
     <g id="text_7">
      <!-- 0.0 -->
      <defs>
       <path d="M 10.6875 12.40625 
L 21 12.40625 
L 21 0 
L 10.6875 0 
z
" id="DejaVuSans-2e"/>
      </defs>
      <g transform="translate(23.675 300.95875)scale(0.16 -0.16)">
       <use xlink:href="#DejaVuSans-30"/>
       <use x="63.623047" xlink:href="#DejaVuSans-2e"/>
       <use x="95.410156" xlink:href="#DejaVuSans-30"/>
      </g>
     </g>
    </g>
    <g id="ytick_2">
     <g id="line2d_17">
      <path clip-path="url(#p8a1c8b9339)" d="M 56.12 241.406733 
L 399.984 241.406733 
" style="fill:none;stroke:#b0b0b0;stroke-linecap:square;stroke-width:0.8;"/>
     </g>
     <g id="line2d_18">
      <g>
       <use style="stroke:#000000;stroke-width:0.8;" x="56.12" xlink:href="#m4bfe90640e" y="241.406733"/>
      </g>
     </g>
     <g id="text_8">
      <!-- 0.2 -->
      <g transform="translate(23.675 247.485483)scale(0.16 -0.16)">
       <use xlink:href="#DejaVuSans-30"/>
       <use x="63.623047" xlink:href="#DejaVuSans-2e"/>
       <use x="95.410156" xlink:href="#DejaVuSans-32"/>
      </g>
     </g>
    </g>
    <g id="ytick_3">
     <g id="line2d_19">
      <path clip-path="url(#p8a1c8b9339)" d="M 56.12 187.933465 
L 399.984 187.933465 
" style="fill:none;stroke:#b0b0b0;stroke-linecap:square;stroke-width:0.8;"/>
     </g>
     <g id="line2d_20">
      <g>
       <use style="stroke:#000000;stroke-width:0.8;" x="56.12" xlink:href="#m4bfe90640e" y="187.933465"/>
      </g>
     </g>
     <g id="text_9">
      <!-- 0.4 -->
      <g transform="translate(23.675 194.012215)scale(0.16 -0.16)">
       <use xlink:href="#DejaVuSans-30"/>
       <use x="63.623047" xlink:href="#DejaVuSans-2e"/>
       <use x="95.410156" xlink:href="#DejaVuSans-34"/>
      </g>
     </g>
    </g>
    <g id="ytick_4">
     <g id="line2d_21">
      <path clip-path="url(#p8a1c8b9339)" d="M 56.12 134.460198 
L 399.984 134.460198 
" style="fill:none;stroke:#b0b0b0;stroke-linecap:square;stroke-width:0.8;"/>
     </g>
     <g id="line2d_22">
      <g>
       <use style="stroke:#000000;stroke-width:0.8;" x="56.12" xlink:href="#m4bfe90640e" y="134.460198"/>
      </g>
     </g>
     <g id="text_10">
      <!-- 0.6 -->
      <g transform="translate(23.675 140.538948)scale(0.16 -0.16)">
       <use xlink:href="#DejaVuSans-30"/>
       <use x="63.623047" xlink:href="#DejaVuSans-2e"/>
       <use x="95.410156" xlink:href="#DejaVuSans-36"/>
      </g>
     </g>
    </g>
    <g id="ytick_5">
     <g id="line2d_23">
      <path clip-path="url(#p8a1c8b9339)" d="M 56.12 80.986931 
L 399.984 80.986931 
" style="fill:none;stroke:#b0b0b0;stroke-linecap:square;stroke-width:0.8;"/>
     </g>
     <g id="line2d_24">
      <g>
       <use style="stroke:#000000;stroke-width:0.8;" x="56.12" xlink:href="#m4bfe90640e" y="80.986931"/>
      </g>
     </g>
     <g id="text_11">
      <!-- 0.8 -->
      <g transform="translate(23.675 87.065681)scale(0.16 -0.16)">
       <use xlink:href="#DejaVuSans-30"/>
       <use x="63.623047" xlink:href="#DejaVuSans-2e"/>
       <use x="95.410156" xlink:href="#DejaVuSans-38"/>
      </g>
     </g>
    </g>
    <g id="ytick_6">
     <g id="line2d_25">
      <path clip-path="url(#p8a1c8b9339)" d="M 56.12 27.513663 
L 399.984 27.513663 
" style="fill:none;stroke:#b0b0b0;stroke-linecap:square;stroke-width:0.8;"/>
     </g>
     <g id="line2d_26">
      <g>
       <use style="stroke:#000000;stroke-width:0.8;" x="56.12" xlink:href="#m4bfe90640e" y="27.513663"/>
      </g>
     </g>
     <g id="text_12">
      <!-- 1.0 -->
      <g transform="translate(23.675 33.592413)scale(0.16 -0.16)">
       <use xlink:href="#DejaVuSans-31"/>
       <use x="63.623047" xlink:href="#DejaVuSans-2e"/>
       <use x="95.410156" xlink:href="#DejaVuSans-30"/>
      </g>
     </g>
    </g>
    <g id="text_13">
     <!-- Fraction of function,target pairs -->
     <defs>
      <path d="M 9.8125 72.90625 
L 51.703125 72.90625 
L 51.703125 64.59375 
L 19.671875 64.59375 
L 19.671875 43.109375 
L 48.578125 43.109375 
L 48.578125 34.8125 
L 19.671875 34.8125 
L 19.671875 0 
L 9.8125 0 
z
" id="DejaVuSans-46"/>
      <path d="M 41.109375 46.296875 
Q 39.59375 47.171875 37.8125 47.578125 
Q 36.03125 48 33.890625 48 
Q 26.265625 48 22.1875 43.046875 
Q 18.109375 38.09375 18.109375 28.8125 
L 18.109375 0 
L 9.078125 0 
L 9.078125 54.6875 
L 18.109375 54.6875 
L 18.109375 46.1875 
Q 20.953125 51.171875 25.484375 53.578125 
Q 30.03125 56 36.53125 56 
Q 37.453125 56 38.578125 55.875 
Q 39.703125 55.765625 41.0625 55.515625 
z
" id="DejaVuSans-72"/>
      <path d="M 48.78125 52.59375 
L 48.78125 44.1875 
Q 44.96875 46.296875 41.140625 47.34375 
Q 37.3125 48.390625 33.40625 48.390625 
Q 24.65625 48.390625 19.8125 42.84375 
Q 14.984375 37.3125 14.984375 27.296875 
Q 14.984375 17.28125 19.8125 11.734375 
Q 24.65625 6.203125 33.40625 6.203125 
Q 37.3125 6.203125 41.140625 7.25 
Q 44.96875 8.296875 48.78125 10.40625 
L 48.78125 2.09375 
Q 45.015625 0.34375 40.984375 -0.53125 
Q 36.96875 -1.421875 32.421875 -1.421875 
Q 20.0625 -1.421875 12.78125 6.34375 
Q 5.515625 14.109375 5.515625 27.296875 
Q 5.515625 40.671875 12.859375 48.328125 
Q 20.21875 56 33.015625 56 
Q 37.15625 56 41.109375 55.140625 
Q 45.0625 54.296875 48.78125 52.59375 
z
" id="DejaVuSans-63"/>
      <path d="M 18.3125 70.21875 
L 18.3125 54.6875 
L 36.8125 54.6875 
L 36.8125 47.703125 
L 18.3125 47.703125 
L 18.3125 18.015625 
Q 18.3125 11.328125 20.140625 9.421875 
Q 21.96875 7.515625 27.59375 7.515625 
L 36.8125 7.515625 
L 36.8125 0 
L 27.59375 0 
Q 17.1875 0 13.234375 3.875 
Q 9.28125 7.765625 9.28125 18.015625 
L 9.28125 47.703125 
L 2.6875 47.703125 
L 2.6875 54.6875 
L 9.28125 54.6875 
L 9.28125 70.21875 
z
" id="DejaVuSans-74"/>
      <path d="M 8.5 21.578125 
L 8.5 54.6875 
L 17.484375 54.6875 
L 17.484375 21.921875 
Q 17.484375 14.15625 20.5 10.265625 
Q 23.53125 6.390625 29.59375 6.390625 
Q 36.859375 6.390625 41.078125 11.03125 
Q 45.3125 15.671875 45.3125 23.6875 
L 45.3125 54.6875 
L 54.296875 54.6875 
L 54.296875 0 
L 45.3125 0 
L 45.3125 8.40625 
Q 42.046875 3.421875 37.71875 1 
Q 33.40625 -1.421875 27.6875 -1.421875 
Q 18.265625 -1.421875 13.375 4.4375 
Q 8.5 10.296875 8.5 21.578125 
z
M 31.109375 56 
z
" id="DejaVuSans-75"/>
      <path d="M 11.71875 12.40625 
L 22.015625 12.40625 
L 22.015625 4 
L 14.015625 -11.625 
L 7.71875 -11.625 
L 11.71875 4 
z
" id="DejaVuSans-2c"/>
      <path d="M 18.109375 8.203125 
L 18.109375 -20.796875 
L 9.078125 -20.796875 
L 9.078125 54.6875 
L 18.109375 54.6875 
L 18.109375 46.390625 
Q 20.953125 51.265625 25.265625 53.625 
Q 29.59375 56 35.59375 56 
Q 45.5625 56 51.78125 48.09375 
Q 58.015625 40.1875 58.015625 27.296875 
Q 58.015625 14.40625 51.78125 6.484375 
Q 45.5625 -1.421875 35.59375 -1.421875 
Q 29.59375 -1.421875 25.265625 0.953125 
Q 20.953125 3.328125 18.109375 8.203125 
z
M 48.6875 27.296875 
Q 48.6875 37.203125 44.609375 42.84375 
Q 40.53125 48.484375 33.40625 48.484375 
Q 26.265625 48.484375 22.1875 42.84375 
Q 18.109375 37.203125 18.109375 27.296875 
Q 18.109375 17.390625 22.1875 11.75 
Q 26.265625 6.109375 33.40625 6.109375 
Q 40.53125 6.109375 44.609375 11.75 
Q 48.6875 17.390625 48.6875 27.296875 
z
" id="DejaVuSans-70"/>
     </defs>
     <g transform="translate(16.139531 294.999375)rotate(-90)scale(0.17 -0.17)">
      <use xlink:href="#DejaVuSans-46"/>
      <use x="57.410156" xlink:href="#DejaVuSans-72"/>
      <use x="98.523438" xlink:href="#DejaVuSans-61"/>
      <use x="159.802734" xlink:href="#DejaVuSans-63"/>
      <use x="214.783203" xlink:href="#DejaVuSans-74"/>
      <use x="253.992188" xlink:href="#DejaVuSans-69"/>
      <use x="281.775391" xlink:href="#DejaVuSans-6f"/>
      <use x="342.957031" xlink:href="#DejaVuSans-6e"/>
      <use x="406.335938" xlink:href="#DejaVuSans-20"/>
      <use x="438.123047" xlink:href="#DejaVuSans-6f"/>
      <use x="499.304688" xlink:href="#DejaVuSans-66"/>
      <use x="534.509766" xlink:href="#DejaVuSans-20"/>
      <use x="566.296875" xlink:href="#DejaVuSans-66"/>
      <use x="601.501953" xlink:href="#DejaVuSans-75"/>
      <use x="664.880859" xlink:href="#DejaVuSans-6e"/>
      <use x="728.259766" xlink:href="#DejaVuSans-63"/>
      <use x="783.240234" xlink:href="#DejaVuSans-74"/>
      <use x="822.449219" xlink:href="#DejaVuSans-69"/>
      <use x="850.232422" xlink:href="#DejaVuSans-6f"/>
      <use x="911.414062" xlink:href="#DejaVuSans-6e"/>
      <use x="974.792969" xlink:href="#DejaVuSans-2c"/>
      <use x="1006.580078" xlink:href="#DejaVuSans-74"/>
      <use x="1045.789062" xlink:href="#DejaVuSans-61"/>
      <use x="1107.068359" xlink:href="#DejaVuSans-72"/>
      <use x="1148.166016" xlink:href="#DejaVuSans-67"/>
      <use x="1211.642578" xlink:href="#DejaVuSans-65"/>
      <use x="1273.166016" xlink:href="#DejaVuSans-74"/>
      <use x="1312.375" xlink:href="#DejaVuSans-20"/>
      <use x="1344.162109" xlink:href="#DejaVuSans-70"/>
      <use x="1407.638672" xlink:href="#DejaVuSans-61"/>
      <use x="1468.917969" xlink:href="#DejaVuSans-69"/>
      <use x="1496.701172" xlink:href="#DejaVuSans-72"/>
      <use x="1537.814453" xlink:href="#DejaVuSans-73"/>
     </g>
    </g>
   </g>
   <g id="line2d_27">
    <defs>
     <path d="M 0 1.5 
C 0.397805 1.5 0.77937 1.341951 1.06066 1.06066 
C 1.341951 0.77937 1.5 0.397805 1.5 0 
C 1.5 -0.397805 1.341951 -0.77937 1.06066 -1.06066 
C 0.77937 -1.341951 0.397805 -1.5 0 -1.5 
C -0.397805 -1.5 -0.77937 -1.341951 -1.06066 -1.06066 
C -1.341951 -0.77937 -1.5 -0.397805 -1.5 0 
C -1.5 0.397805 -1.341951 0.77937 -1.06066 1.06066 
C -0.77937 1.341951 -0.397805 1.5 0 1.5 
z
" id="m8d5c2eb3d2" style="stroke:#f5deb3;"/>
    </defs>
    <g>
     <use style="fill:#f5deb3;stroke:#f5deb3;" x="170.764896" xlink:href="#m8d5c2eb3d2" y="27.513663"/>
     <use style="fill:#f5deb3;stroke:#f5deb3;" x="170.764896" xlink:href="#m8d5c2eb3d2" y="27.513663"/>
    </g>
   </g>
   <g id="line2d_28">
    <defs>
     <path d="M 0 1.5 
C 0.397805 1.5 0.77937 1.341951 1.06066 1.06066 
C 1.341951 0.77937 1.5 0.397805 1.5 0 
C 1.5 -0.397805 1.341951 -0.77937 1.06066 -1.06066 
C 0.77937 -1.341951 0.397805 -1.5 0 -1.5 
C -0.397805 -1.5 -0.77937 -1.341951 -1.06066 -1.06066 
C -1.341951 -0.77937 -1.5 -0.397805 -1.5 0 
C -1.5 0.397805 -1.341951 0.77937 -1.06066 1.06066 
C -0.77937 1.341951 -0.397805 1.5 0 1.5 
z
" id="m9d7c46bd92" style="stroke:#000080;"/>
    </defs>
    <g>
     <use style="fill:#000080;stroke:#000080;" x="339.793576" xlink:href="#m9d7c46bd92" y="200.515411"/>
     <use style="fill:#000080;stroke:#000080;" x="339.793576" xlink:href="#m9d7c46bd92" y="200.515411"/>
    </g>
   </g>
   <g id="line2d_29">
    <path d="M 174.870387 294.88 
L 174.879035 293.307257 
L 176.648982 293.307257 
L 176.648982 292.783009 
L 185.552121 292.783009 
L 185.552121 292.258761 
L 187.208735 292.258761 
L 187.23827 290.686018 
L 187.403987 290.686018 
L 187.403987 289.637523 
L 189.03023 289.637523 
L 189.03023 289.113275 
L 193.009214 289.113275 
L 193.009214 288.589027 
L 195.087123 288.589027 
L 195.087123 288.06478 
L 195.826734 288.06478 
L 195.826734 287.540532 
L 196.67648 287.540532 
L 196.67648 287.016284 
L 197.06684 287.016284 
L 197.06684 286.492036 
L 197.812154 286.492036 
L 197.812154 285.967789 
L 200.931026 285.967789 
L 200.931026 285.443541 
L 201.801637 285.443541 
L 201.801637 284.919293 
L 202.912308 284.919293 
L 202.912308 283.34655 
L 206.139747 283.34655 
L 206.139747 282.298055 
L 207.6385 282.298055 
L 207.6385 281.249559 
L 208.750888 281.249559 
L 208.750888 280.725312 
L 208.903302 280.725312 
L 208.903302 279.676816 
L 209.898562 279.676816 
L 209.898562 279.152568 
L 210.046893 279.152568 
L 210.046893 278.104073 
L 210.184738 278.104073 
L 210.184738 277.579825 
L 211.965665 277.579825 
L 211.965665 277.055578 
L 216.714619 277.055578 
L 216.714619 276.53133 
L 217.921745 276.53133 
L 217.921745 276.007082 
L 218.174162 276.007082 
L 218.255794 274.958587 
L 219.193746 274.958587 
L 219.193746 274.434339 
L 220.270318 274.434339 
L 220.270318 273.910091 
L 220.997193 273.910091 
L 220.997193 272.861596 
L 223.006772 272.861596 
L 223.006772 272.337348 
L 223.154281 272.337348 
L 223.154281 271.288853 
L 223.435791 271.288853 
L 223.435791 270.764605 
L 223.67929 270.764605 
L 223.743305 269.716109 
L 224.598077 269.716109 
L 224.598077 269.191862 
L 225.824827 269.191862 
L 225.824827 268.143366 
L 225.997074 268.143366 
L 225.997074 267.619119 
L 227.227862 267.619119 
L 227.227862 267.094871 
L 227.821884 267.094871 
L 227.821884 266.570623 
L 228.770422 266.570623 
L 228.770422 266.046375 
L 228.96072 266.046375 
L 228.96072 265.522128 
L 229.565094 265.522128 
L 229.565094 264.99788 
L 231.076328 264.99788 
L 231.076328 264.473632 
L 231.373263 264.473632 
L 231.373263 263.949385 
L 232.909064 263.949385 
L 232.909064 263.425137 
L 233.079149 263.425137 
L 233.079149 262.376641 
L 233.73912 262.376641 
L 233.73912 261.852394 
L 234.375878 261.852394 
L 234.375878 261.328146 
L 234.561429 261.328146 
L 234.561429 260.803898 
L 235.418074 260.803898 
L 235.418074 259.231155 
L 235.751875 259.231155 
L 235.751875 258.18266 
L 236.898159 258.18266 
L 236.898159 257.658412 
L 237.445689 257.658412 
L 237.445689 257.134164 
L 240.667525 257.134164 
L 240.667525 256.609917 
L 242.944017 256.609917 
L 243.007769 255.561421 
L 243.765106 255.561421 
L 243.765106 254.512926 
L 246.578495 254.512926 
L 246.578495 253.988678 
L 246.958615 253.988678 
L 246.958615 253.46443 
L 247.336338 253.46443 
L 247.412273 252.415935 
L 247.748462 252.415935 
L 247.843152 250.843192 
L 248.461625 250.843192 
L 248.461625 250.318944 
L 248.975781 250.318944 
L 248.975781 249.794696 
L 249.185505 249.794696 
L 249.185505 248.746201 
L 249.35311 248.746201 
L 249.385741 246.124962 
L 250.188954 246.124962 
L 250.248981 244.552219 
L 251.112632 244.552219 
L 251.112632 243.503724 
L 251.236056 243.503724 
L 251.236056 242.979476 
L 252.385006 242.979476 
L 252.385006 242.455228 
L 252.665912 242.455228 
L 252.665912 241.93098 
L 253.072377 241.93098 
L 253.072377 241.406733 
L 254.076626 241.406733 
L 254.076626 240.882485 
L 254.393146 240.882485 
L 254.489922 239.83399 
L 256.044428 239.83399 
L 256.111146 238.785494 
L 256.159579 238.785494 
L 256.165849 237.736999 
L 257.177003 237.736999 
L 257.177003 237.212751 
L 257.407454 237.212751 
L 257.407454 236.164255 
L 257.662136 236.164255 
L 257.662136 235.640008 
L 257.816319 235.640008 
L 257.816319 234.591512 
L 258.840628 234.591512 
L 258.840628 234.067265 
L 259.580639 234.067265 
L 259.580639 233.543017 
L 260.476278 233.543017 
L 260.476278 233.018769 
L 260.655381 233.018769 
L 260.655381 232.494521 
L 260.868164 232.494521 
L 260.868164 231.970274 
L 261.581379 231.970274 
L 261.581379 230.921778 
L 261.930965 230.921778 
L 261.930965 230.397531 
L 262.334738 230.397531 
L 262.334738 229.349035 
L 263.255515 229.349035 
L 263.255515 228.824787 
L 263.693892 228.824787 
L 263.693892 227.776292 
L 263.833204 227.776292 
L 263.833204 226.727797 
L 264.319025 226.727797 
L 264.319025 225.679301 
L 264.920006 225.679301 
L 264.920006 224.106558 
L 265.044643 224.106558 
L 265.044643 223.58231 
L 265.564964 223.58231 
L 265.564964 223.058063 
L 265.693108 223.058063 
L 265.693108 222.533815 
L 266.0772 222.533815 
L 266.0772 222.009567 
L 266.650381 222.009567 
L 266.658305 220.436824 
L 266.874534 220.436824 
L 266.874534 219.912576 
L 267.744955 219.912576 
L 267.744955 219.388328 
L 267.900158 219.388328 
L 267.900158 218.864081 
L 268.338828 218.864081 
L 268.338828 217.815585 
L 268.908996 217.815585 
L 268.908996 216.76709 
L 269.267053 216.76709 
L 269.267053 215.194347 
L 269.555551 215.194347 
L 269.555551 214.145851 
L 279.416107 214.145851 
L 279.416107 213.097356 
L 279.604482 213.097356 
L 279.604482 212.573108 
L 280.413481 212.573108 
L 280.413481 212.04886 
L 280.684441 212.04886 
L 280.684441 211.524613 
L 281.54405 211.524613 
L 281.54405 211.000365 
L 287.375966 211.000365 
L 287.375966 210.476117 
L 288.2989 210.476117 
L 288.2989 209.95187 
L 292.841725 209.95187 
L 292.841725 209.427622 
L 293.642644 209.427622 
L 293.642644 208.903374 
L 297.041065 208.903374 
L 297.041065 207.854879 
L 303.007143 207.854879 
L 303.007143 207.330631 
L 303.162148 207.330631 
L 303.202006 206.282136 
L 316.443004 206.282136 
L 316.443004 205.757888 
L 317.571517 205.757888 
L 317.622336 204.709392 
L 318.667889 204.709392 
L 318.667889 204.185145 
L 324.571302 204.185145 
L 324.571302 203.136649 
L 325.953797 203.136649 
L 325.953797 202.612401 
L 328.424417 202.612401 
L 328.424417 202.088154 
L 333.429677 202.088154 
L 333.429677 202.088154 
" style="fill:none;stroke:#000080;stroke-linecap:square;stroke-width:1.5;"/>
   </g>
   <g id="line2d_30">
    <defs>
     <path d="M 0 6 
C 1.591219 6 3.117479 5.367802 4.242641 4.242641 
C 5.367802 3.117479 6 1.591219 6 0 
C 6 -1.591219 5.367802 -3.117479 4.242641 -4.242641 
C 3.117479 -5.367802 1.591219 -6 0 -6 
C -1.591219 -6 -3.117479 -5.367802 -4.242641 -4.242641 
C -5.367802 -3.117479 -6 -1.591219 -6 0 
C -6 1.591219 -5.367802 3.117479 -4.242641 4.242641 
C -3.117479 5.367802 -1.591219 6 0 6 
z
" id="m282a3e83d5" style="stroke:#000080;stroke-width:1.5;"/>
    </defs>
    <g>
     <use style="fill-opacity:0;stroke:#000080;stroke-width:1.5;" x="250.248981" xlink:href="#m282a3e83d5" y="245.076467"/>
     <use style="fill-opacity:0;stroke:#000080;stroke-width:1.5;" x="328.424417" xlink:href="#m282a3e83d5" y="202.088154"/>
     <use style="fill-opacity:0;stroke:#000080;stroke-width:1.5;" x="328.424417" xlink:href="#m282a3e83d5" y="202.088154"/>
     <use style="fill-opacity:0;stroke:#000080;stroke-width:1.5;" x="333.429677" xlink:href="#m282a3e83d5" y="202.088154"/>
    </g>
   </g>
   <g id="line2d_31">
    <path style="fill:none;stroke:#000080;stroke-linecap:square;stroke-width:1.5;"/>
    <g/>
   </g>
   <g id="line2d_32">
    <path clip-path="url(#p8a1c8b9339)" d="M 269.963 214.145851 
" style="fill:none;stroke:#000080;stroke-linecap:square;stroke-width:1.5;"/>
    <defs>
     <path d="M -12 12 
L 12 -12 
M -12 -12 
L 12 12 
" id="m6b617c9f86" style="stroke:#000080;stroke-width:3;"/>
    </defs>
    <g clip-path="url(#p8a1c8b9339)">
     <use style="fill:#000080;stroke:#000080;stroke-width:3;" x="269.963" xlink:href="#m6b617c9f86" y="214.145851"/>
    </g>
   </g>
   <g id="line2d_33">
    <defs>
     <path d="M 0 1.5 
C 0.397805 1.5 0.77937 1.341951 1.06066 1.06066 
C 1.341951 0.77937 1.5 0.397805 1.5 0 
C 1.5 -0.397805 1.341951 -0.77937 1.06066 -1.06066 
C 0.77937 -1.341951 0.397805 -1.5 0 -1.5 
C -0.397805 -1.5 -0.77937 -1.341951 -1.06066 -1.06066 
C -1.341951 -0.77937 -1.5 -0.397805 -1.5 0 
C -1.5 0.397805 -1.341951 0.77937 -1.06066 1.06066 
C -0.77937 1.341951 -0.397805 1.5 0 1.5 
z
" id="m228e9a32c0" style="stroke:#ff00ff;"/>
    </defs>
    <g>
     <use style="fill:#ff00ff;stroke:#ff00ff;" x="336.047583" xlink:href="#m228e9a32c0" y="27.513663"/>
     <use style="fill:#ff00ff;stroke:#ff00ff;" x="336.047583" xlink:href="#m228e9a32c0" y="27.513663"/>
    </g>
   </g>
   <g id="line2d_34">
    <path d="M 175.588772 294.88 
L 175.588772 293.307257 
L 177.809554 293.307257 
L 177.809554 292.783009 
L 183.523238 292.783009 
L 183.523238 292.258761 
L 187.031307 292.258761 
L 187.031307 291.734514 
L 188.608388 291.734514 
L 188.608388 291.210266 
L 195.10261 291.210266 
L 195.10261 290.686018 
L 195.62959 290.686018 
L 195.62959 289.637523 
L 197.346704 289.637523 
L 197.346704 289.113275 
L 197.727354 289.113275 
L 197.727354 288.589027 
L 198.10761 288.589027 
L 198.163997 287.016284 
L 198.528485 287.016284 
L 198.528485 286.492036 
L 201.553397 286.492036 
L 201.553397 285.967789 
L 207.076489 285.967789 
L 207.076489 285.443541 
L 207.432091 285.443541 
L 207.432091 284.919293 
L 208.131867 284.919293 
L 208.193834 283.34655 
L 210.345495 283.34655 
L 210.345495 282.822302 
L 212.491581 282.822302 
L 212.491581 281.773807 
L 213.753973 281.773807 
L 213.753973 281.249559 
L 214.284437 281.249559 
L 214.326662 279.152568 
L 214.809055 279.152568 
L 214.809055 278.628321 
L 214.999531 278.628321 
L 214.999531 277.579825 
L 218.196698 277.579825 
L 218.196698 276.007082 
L 218.721459 276.007082 
L 218.724772 274.958587 
L 222.002995 274.958587 
L 222.002995 274.434339 
L 223.170738 274.434339 
L 223.170738 273.385844 
L 223.483137 273.385844 
L 223.48688 272.337348 
L 225.140241 272.337348 
L 225.222337 271.288853 
L 226.226302 271.288853 
L 226.226302 270.764605 
L 227.269104 270.764605 
L 227.269104 270.240357 
L 227.402246 270.240357 
L 227.402246 269.716109 
L 227.965698 269.716109 
L 227.965698 269.191862 
L 228.544938 269.191862 
L 228.544938 268.667614 
L 228.846546 268.667614 
L 228.846546 267.619119 
L 229.520636 267.619119 
L 229.520636 267.094871 
L 229.660616 267.094871 
L 229.660616 266.570623 
L 230.519071 266.570623 
L 230.519071 266.046375 
L 231.136646 266.046375 
L 231.136646 265.522128 
L 231.679655 265.522128 
L 231.679655 264.99788 
L 232.444101 264.99788 
L 232.444101 263.425137 
L 232.713995 263.425137 
L 232.713995 262.900889 
L 233.032024 262.900889 
L 233.110211 261.852394 
L 233.218677 261.852394 
L 233.218677 261.328146 
L 233.384677 261.328146 
L 233.384677 260.803898 
L 234.261913 260.803898 
L 234.261913 260.279651 
L 234.685712 260.279651 
L 234.685712 259.755403 
L 235.643232 259.755403 
L 235.643232 258.706907 
L 236.949858 258.706907 
L 236.949858 257.658412 
L 237.534291 257.658412 
L 237.594665 256.609917 
L 238.0178 256.609917 
L 238.0178 256.085669 
L 238.306867 256.085669 
L 238.306867 255.561421 
L 238.718228 255.561421 
L 238.718228 254.512926 
L 238.853961 254.512926 
L 238.853961 252.940182 
L 239.57791 252.940182 
L 239.57791 252.415935 
L 241.440706 252.415935 
L 241.536289 251.367439 
L 241.640449 251.367439 
L 241.640449 250.843192 
L 242.355205 250.843192 
L 242.355205 250.318944 
L 242.533705 250.318944 
L 242.533705 249.794696 
L 242.789725 249.794696 
L 242.789725 248.746201 
L 243.077591 248.746201 
L 243.077591 248.221953 
L 243.23306 248.221953 
L 243.23306 247.697705 
L 243.560102 247.697705 
L 243.560102 247.173458 
L 244.544914 247.173458 
L 244.544914 246.124962 
L 245.243357 246.124962 
L 245.243357 245.600714 
L 245.368098 245.600714 
L 245.374075 244.027971 
L 246.020231 244.027971 
L 246.020231 242.979476 
L 246.137944 242.979476 
L 246.137944 242.455228 
L 246.278865 242.455228 
L 246.303452 241.406733 
L 247.001774 241.406733 
L 247.001774 240.882485 
L 247.814477 240.882485 
L 247.86405 239.309742 
L 248.088848 239.309742 
L 248.088848 238.785494 
L 248.289865 238.785494 
L 248.326124 237.212751 
L 249.058554 237.212751 
L 249.058554 236.688503 
L 249.385605 236.688503 
L 249.385605 236.164255 
L 249.500558 236.164255 
L 249.541755 235.11576 
L 249.769309 235.11576 
L 249.769309 234.591512 
L 250.116518 234.591512 
L 250.146363 233.543017 
L 250.277031 233.543017 
L 250.366507 231.970274 
L 250.454912 231.970274 
L 250.454912 230.921778 
L 250.733211 230.921778 
L 250.832261 229.873283 
L 251.816796 229.873283 
L 251.816796 228.824787 
L 251.970378 228.824787 
L 252.04246 227.776292 
L 252.105792 227.776292 
L 252.105792 226.727797 
L 252.484462 226.727797 
L 252.484462 226.203549 
L 252.607085 226.203549 
L 252.670021 224.630806 
L 253.069437 224.630806 
L 253.142923 223.058063 
L 253.250344 223.058063 
L 253.250344 222.533815 
L 253.500654 222.533815 
L 253.500654 222.009567 
L 253.83559 222.009567 
L 253.83559 221.485319 
L 254.132847 221.485319 
L 254.136162 220.436824 
L 254.393452 220.436824 
L 254.393452 219.912576 
L 254.691397 219.912576 
L 254.691397 219.388328 
L 255.082493 219.388328 
L 255.082493 218.864081 
L 255.350778 218.864081 
L 255.350778 218.339833 
L 255.532821 218.339833 
L 255.532821 217.815585 
L 255.697259 217.815585 
L 255.764039 216.242842 
L 255.835676 216.242842 
L 255.835676 215.718594 
L 256.505744 215.718594 
L 256.505744 215.194347 
L 256.763126 215.194347 
L 256.763126 213.621604 
L 256.906024 213.621604 
L 256.906024 212.573108 
L 257.05238 212.573108 
L 257.125906 211.524613 
L 257.195478 211.524613 
L 257.195478 211.000365 
L 257.318283 211.000365 
L 257.318283 210.476117 
L 257.901572 210.476117 
L 257.901572 209.95187 
L 258.332358 209.95187 
L 258.332358 208.903374 
L 258.682181 208.903374 
L 258.762798 207.854879 
L 258.82374 207.854879 
L 258.82374 206.806383 
L 259.123166 206.806383 
L 259.123166 205.757888 
L 259.319544 205.757888 
L 259.319544 205.23364 
L 259.886703 205.23364 
L 259.971717 203.660897 
L 260.198261 203.660897 
L 260.198261 203.136649 
L 260.808772 203.136649 
L 260.808772 202.612401 
L 261.18523 202.612401 
L 261.18523 202.088154 
L 261.491036 202.088154 
L 261.568083 199.991163 
L 262.353351 199.991163 
L 262.440003 197.894172 
L 262.605646 197.894172 
L 262.605646 197.369924 
L 262.805075 197.369924 
L 262.805075 196.845677 
L 263.196309 196.845677 
L 263.260362 195.797181 
L 263.361953 195.797181 
L 263.361953 194.224438 
L 264.214278 194.224438 
L 264.226818 192.651695 
L 264.845554 192.651695 
L 264.938808 190.030456 
L 264.967845 190.030456 
L 264.967845 188.457713 
L 265.107645 188.457713 
L 265.107645 187.933465 
L 265.329076 187.933465 
L 265.329076 186.360722 
L 265.475534 186.360722 
L 265.475534 185.836474 
L 265.912712 185.836474 
L 265.918324 184.787979 
L 266.463978 184.787979 
L 266.463978 184.263731 
L 266.778041 184.263731 
L 266.778041 183.739484 
L 266.963364 183.739484 
L 266.963364 182.16674 
L 267.121874 182.16674 
L 267.223651 180.593997 
L 267.835602 180.593997 
L 267.924894 179.021254 
L 268.134516 179.021254 
L 268.134516 178.497006 
L 268.373679 178.497006 
L 268.389737 177.448511 
L 268.667689 177.448511 
L 268.719951 176.400016 
L 268.782693 176.400016 
L 268.782693 175.875768 
L 268.915591 175.875768 
L 268.915591 175.35152 
L 269.184194 175.35152 
L 269.209791 173.778777 
L 269.486703 173.778777 
L 269.529613 171.681786 
L 269.913914 171.681786 
L 269.913914 171.157538 
L 270.039927 171.157538 
L 270.039927 170.633291 
L 270.316338 170.633291 
L 270.316338 169.584795 
L 270.4322 169.584795 
L 270.468873 168.5363 
L 270.556604 168.5363 
L 270.618305 167.487804 
L 271.136723 167.487804 
L 271.136723 166.439309 
L 271.474131 166.439309 
L 271.535955 164.866566 
L 271.847669 164.866566 
L 271.851965 163.293823 
L 272.089586 163.293823 
L 272.198328 160.148336 
L 272.40266 160.148336 
L 272.485618 158.575593 
L 272.548909 158.575593 
L 272.597858 156.478602 
L 273.45714 156.478602 
L 273.45714 155.954354 
L 273.779573 155.954354 
L 273.856887 153.857364 
L 274.684314 153.857364 
L 274.726268 152.28462 
L 274.805929 152.28462 
L 274.805929 151.236125 
L 275.204756 151.236125 
L 275.224434 149.663382 
L 275.613267 149.663382 
L 275.649444 147.566391 
L 275.887088 147.566391 
L 275.992336 145.4694 
L 276.138925 145.4694 
L 276.228037 143.896657 
L 276.302755 143.896657 
L 276.404097 141.275418 
L 276.588678 141.275418 
L 276.588678 140.751171 
L 276.728835 140.751171 
L 276.733428 137.605684 
L 276.916 137.605684 
L 276.955622 136.032941 
L 277.050871 136.032941 
L 277.050871 135.508693 
L 277.201457 135.508693 
L 277.201457 134.460198 
L 277.339652 134.460198 
L 277.421975 133.411703 
L 277.503502 133.411703 
L 277.56918 131.314712 
L 277.660877 131.314712 
L 277.716339 130.266216 
L 278.08288 130.266216 
L 278.08288 129.741969 
L 278.23013 129.741969 
L 278.253415 127.644978 
L 278.383278 127.644978 
L 278.383278 127.12073 
L 278.794718 127.12073 
L 278.808066 126.072235 
L 279.06932 126.072235 
L 279.06932 125.023739 
L 279.244138 125.023739 
L 279.349582 123.450996 
L 279.373309 123.450996 
L 279.373309 122.926748 
L 279.720946 122.926748 
L 279.787508 121.878253 
L 279.924916 121.878253 
L 279.926202 120.829757 
L 280.069394 120.829757 
L 280.069394 119.781262 
L 280.351752 119.781262 
L 280.427682 117.160023 
L 280.59962 117.160023 
L 280.59962 116.635776 
L 281.159078 116.635776 
L 281.176123 115.58728 
L 281.517475 115.58728 
L 281.549361 114.538785 
L 281.648023 114.538785 
L 281.755421 112.966042 
L 281.785659 112.966042 
L 281.785659 111.917546 
L 281.919866 111.917546 
L 281.935753 110.869051 
L 282.179913 110.869051 
L 282.254358 108.77206 
L 282.48755 108.77206 
L 282.546534 106.675069 
L 282.831999 106.675069 
L 282.875707 104.578078 
L 282.966471 104.578078 
L 283.025266 103.005335 
L 283.290006 103.005335 
L 283.392722 98.811353 
L 283.417932 98.811353 
L 283.442358 96.714362 
L 283.656096 96.714362 
L 283.747867 95.665867 
L 283.918789 95.665867 
L 283.943754 94.617371 
L 284.12094 94.617371 
L 284.12094 94.093124 
L 284.418253 94.093124 
L 284.503775 92.520381 
L 284.547404 92.520381 
L 284.556503 91.471885 
L 284.743332 91.471885 
L 284.757788 89.899142 
L 284.928536 89.899142 
L 284.993285 88.850646 
L 285.057961 88.850646 
L 285.057961 88.326399 
L 285.282803 88.326399 
L 285.282803 87.802151 
L 285.406655 87.802151 
L 285.406655 86.753656 
L 285.666501 86.753656 
L 285.727024 84.656665 
L 285.896041 84.656665 
L 285.896041 84.132417 
L 286.009198 84.132417 
L 286.02009 82.035426 
L 286.176801 82.035426 
L 286.228661 79.938435 
L 286.508509 79.938435 
L 286.516572 78.88994 
L 286.625008 78.88994 
L 286.625008 77.841444 
L 286.886415 77.841444 
L 286.886415 77.317197 
L 287.077081 77.317197 
L 287.077081 76.792949 
L 287.246888 76.792949 
L 287.246888 76.268701 
L 287.511069 76.268701 
L 287.511069 75.744454 
L 287.677585 75.744454 
L 287.742482 74.695958 
L 287.88151 74.695958 
L 287.88151 74.17171 
L 288.442873 74.17171 
L 288.442873 73.647463 
L 288.658316 73.647463 
L 288.683359 72.074719 
L 288.936269 72.074719 
L 288.936269 71.550472 
L 289.105432 71.550472 
L 289.118207 69.977729 
L 289.288046 69.977729 
L 289.288046 69.453481 
L 289.559173 69.453481 
L 289.559173 68.929233 
L 289.852729 68.929233 
L 289.852729 68.404985 
L 290.078562 68.404985 
L 290.10776 67.35649 
L 290.699327 67.35649 
L 290.699327 66.307995 
L 290.811447 66.307995 
L 290.824947 64.735251 
L 291.112593 64.735251 
L 291.129041 63.162508 
L 291.248341 63.162508 
L 291.336931 62.114013 
L 291.359936 62.114013 
L 291.359936 61.065517 
L 291.838563 61.065517 
L 291.838563 60.54127 
L 292.975481 60.54127 
L 292.975481 59.492774 
L 293.160425 59.492774 
L 293.160425 58.444279 
L 293.663834 58.444279 
L 293.663834 57.920031 
L 298.949797 57.920031 
L 298.949797 57.395783 
L 299.181565 57.395783 
L 299.181565 56.871536 
L 299.748457 56.871536 
L 299.748457 56.347288 
L 300.104602 56.347288 
L 300.104602 55.82304 
L 300.246417 55.82304 
L 300.263453 54.774545 
L 300.721101 54.774545 
L 300.721101 54.250297 
L 300.902673 54.250297 
L 300.939854 53.201802 
L 301.096655 53.201802 
L 301.153877 52.153306 
L 301.245945 52.153306 
L 301.306146 50.056315 
L 301.502702 50.056315 
L 301.502702 49.532068 
L 301.961736 49.532068 
L 301.961736 49.00782 
L 302.443568 49.00782 
L 302.443568 48.483572 
L 302.597 48.483572 
L 302.597 47.959324 
L 303.033216 47.959324 
L 303.033216 47.435077 
L 303.262705 47.435077 
L 303.364741 46.386581 
L 303.539797 46.386581 
L 303.602916 44.813838 
L 304.441777 44.813838 
L 304.441777 44.28959 
L 304.740506 44.28959 
L 304.740506 43.765343 
L 305.311276 43.765343 
L 305.311276 43.241095 
L 305.4644 43.241095 
L 305.4644 42.192599 
L 305.664595 42.192599 
L 305.664595 41.668352 
L 308.493533 41.668352 
L 308.493533 41.144104 
L 308.631773 41.144104 
L 308.631773 40.619856 
L 309.567993 40.619856 
L 309.567993 40.095609 
L 309.853698 40.095609 
L 309.904382 39.047113 
L 310.410299 39.047113 
L 310.485557 37.998618 
L 310.538721 37.998618 
L 310.589766 36.425875 
L 311.902053 36.425875 
L 311.902053 35.901627 
L 312.081883 35.901627 
L 312.081883 35.377379 
L 314.890277 35.377379 
L 314.890277 34.853131 
L 316.095856 34.853131 
L 316.095856 34.328884 
L 317.627605 34.328884 
L 317.627605 33.804636 
L 319.732505 33.804636 
L 319.732505 33.280388 
L 320.065437 33.280388 
L 320.065437 32.756141 
L 323.471544 32.756141 
L 323.471544 32.231893 
L 323.584978 32.231893 
L 323.610945 31.183397 
L 326.372604 31.183397 
L 326.372604 30.65915 
L 328.720976 30.65915 
L 328.804654 29.610654 
L 330.846234 29.610654 
L 330.846234 29.086407 
L 332.697866 29.086407 
L 332.697866 28.562159 
L 333.429677 28.562159 
L 333.429677 28.562159 
" style="fill:none;stroke:#ff00ff;stroke-linecap:square;stroke-width:1.5;"/>
   </g>
   <g id="line2d_35">
    <defs>
     <path d="M -0 8.485281 
L 5.091169 0 
L 0 -8.485281 
L -5.091169 -0 
z
" id="m2c5439133a" style="stroke:#ff00ff;stroke-linejoin:miter;stroke-width:1.5;"/>
    </defs>
    <g>
     <use style="fill-opacity:0;stroke:#ff00ff;stroke-linejoin:miter;stroke-width:1.5;" x="272.40266" xlink:href="#m2c5439133a" y="160.148336"/>
     <use style="fill-opacity:0;stroke:#ff00ff;stroke-linejoin:miter;stroke-width:1.5;" x="332.697866" xlink:href="#m2c5439133a" y="28.562159"/>
     <use style="fill-opacity:0;stroke:#ff00ff;stroke-linejoin:miter;stroke-width:1.5;" x="332.697866" xlink:href="#m2c5439133a" y="28.562159"/>
     <use style="fill-opacity:0;stroke:#ff00ff;stroke-linejoin:miter;stroke-width:1.5;" x="333.429677" xlink:href="#m2c5439133a" y="28.562159"/>
    </g>
   </g>
   <g id="line2d_36">
    <path style="fill:none;stroke:#ff00ff;stroke-linecap:square;stroke-width:1.5;"/>
    <g/>
   </g>
   <g id="line2d_37">
    <path clip-path="url(#p8a1c8b9339)" d="M 293.814019 57.920031 
" style="fill:none;stroke:#ff00ff;stroke-linecap:square;stroke-width:1.5;"/>
    <defs>
     <path d="M -12 12 
L 12 -12 
M -12 -12 
L 12 12 
" id="m7d460a53d0" style="stroke:#ff00ff;stroke-width:3;"/>
    </defs>
    <g clip-path="url(#p8a1c8b9339)">
     <use style="fill:#ff00ff;stroke:#ff00ff;stroke-width:3;" x="293.814019" xlink:href="#m7d460a53d0" y="57.920031"/>
    </g>
   </g>
   <g id="line2d_38">
    <defs>
     <path d="M 0 1.5 
C 0.397805 1.5 0.77937 1.341951 1.06066 1.06066 
C 1.341951 0.77937 1.5 0.397805 1.5 0 
C 1.5 -0.397805 1.341951 -0.77937 1.06066 -1.06066 
C 0.77937 -1.341951 0.397805 -1.5 0 -1.5 
C -0.397805 -1.5 -0.77937 -1.341951 -1.06066 -1.06066 
C -1.341951 -0.77937 -1.5 -0.397805 -1.5 0 
C -1.5 0.397805 -1.341951 0.77937 -1.06066 1.06066 
C -0.77937 1.341951 -0.397805 1.5 0 1.5 
z
" id="m4f2b514192" style="stroke:#ffa500;"/>
    </defs>
    <g>
     <use style="fill:#ffa500;stroke:#ffa500;" x="312.539021" xlink:href="#m4f2b514192" y="263.425137"/>
     <use style="fill:#ffa500;stroke:#ffa500;" x="312.539021" xlink:href="#m4f2b514192" y="263.425137"/>
    </g>
   </g>
   <g id="line2d_39">
    <path d="M 182.195744 294.88 
L 182.195744 294.355752 
L 183.878951 294.355752 
L 183.878951 293.831505 
L 186.094924 293.831505 
L 186.094924 293.307257 
L 189.983386 293.307257 
L 189.983386 292.783009 
L 195.789332 292.783009 
L 195.789332 291.734514 
L 196.126075 291.734514 
L 196.126075 289.637523 
L 207.356712 289.637523 
L 207.356712 288.589027 
L 216.985687 288.589027 
L 216.985687 287.540532 
L 219.614804 287.540532 
L 219.614804 287.016284 
L 221.611898 287.016284 
L 221.611898 286.492036 
L 221.632868 286.492036 
L 221.632868 285.967789 
L 222.765903 285.967789 
L 222.765903 285.443541 
L 223.335536 285.443541 
L 223.335536 284.919293 
L 224.264579 284.919293 
L 224.264579 284.395046 
L 225.048483 284.395046 
L 225.048483 283.34655 
L 227.379937 283.34655 
L 227.379937 282.822302 
L 227.835428 282.822302 
L 227.835428 281.773807 
L 228.870034 281.773807 
L 228.870034 281.249559 
L 229.166377 281.249559 
L 229.166377 280.725312 
L 231.812794 280.725312 
L 231.812794 279.676816 
L 233.943805 279.676816 
L 233.943805 279.152568 
L 234.247957 279.152568 
L 234.247957 278.628321 
L 241.764834 278.628321 
L 241.764834 278.104073 
L 247.408533 278.104073 
L 247.408533 277.579825 
L 249.731934 277.579825 
L 249.731934 276.007082 
L 257.845475 276.007082 
L 257.845475 275.482834 
L 258.305412 275.482834 
L 258.305412 274.958587 
L 261.492877 274.958587 
L 261.492877 274.434339 
L 264.041854 274.434339 
L 264.041854 273.910091 
L 268.693643 273.910091 
L 268.693643 273.385844 
L 271.128959 273.385844 
L 271.128959 272.861596 
L 274.858495 272.861596 
L 274.858495 271.288853 
L 276.595992 271.288853 
L 276.595992 270.764605 
L 277.046103 270.764605 
L 277.046103 270.240357 
L 289.269684 270.240357 
L 289.269684 269.716109 
L 291.377284 269.716109 
L 291.377284 269.191862 
L 294.368766 269.191862 
L 294.368766 268.667614 
L 296.487993 268.667614 
L 296.487993 268.143366 
L 299.208752 268.143366 
L 299.208752 267.619119 
L 301.557425 267.619119 
L 301.557425 267.094871 
L 305.156736 267.094871 
L 305.156736 266.570623 
L 305.468121 266.570623 
L 305.468121 266.046375 
L 306.851448 266.046375 
L 306.851448 264.99788 
L 312.333204 264.99788 
L 312.333204 263.949385 
L 312.539021 263.949385 
L 312.539021 263.425137 
L 333.429677 263.425137 
" style="fill:none;stroke:#ffa500;stroke-linecap:square;stroke-width:1.5;"/>
   </g>
   <g id="line2d_40">
    <defs>
     <path d="M 0 -6 
L -1.347084 -1.854102 
L -5.706339 -1.854102 
L -2.179628 0.708204 
L -3.526712 4.854102 
L -0 2.291796 
L 3.526712 4.854102 
L 2.179628 0.708204 
L 5.706339 -1.854102 
L 1.347084 -1.854102 
z
" id="mcd7187c1f2" style="stroke:#ffa500;stroke-linejoin:bevel;stroke-width:1.5;"/>
    </defs>
    <g>
     <use style="fill-opacity:0;stroke:#ffa500;stroke-linejoin:bevel;stroke-width:1.5;" x="241.764834" xlink:href="#mcd7187c1f2" y="278.628321"/>
     <use style="fill-opacity:0;stroke:#ffa500;stroke-linejoin:bevel;stroke-width:1.5;" x="306.851448" xlink:href="#mcd7187c1f2" y="266.046375"/>
     <use style="fill-opacity:0;stroke:#ffa500;stroke-linejoin:bevel;stroke-width:1.5;" x="312.539021" xlink:href="#mcd7187c1f2" y="263.425137"/>
     <use style="fill-opacity:0;stroke:#ffa500;stroke-linejoin:bevel;stroke-width:1.5;" x="333.429677" xlink:href="#mcd7187c1f2" y="263.425137"/>
    </g>
   </g>
   <g id="line2d_41">
    <path style="fill:none;stroke:#ffa500;stroke-linecap:square;stroke-width:1.5;"/>
    <g/>
   </g>
   <g id="line2d_42">
    <path clip-path="url(#p8a1c8b9339)" d="M 254.210174 276.007082 
" style="fill:none;stroke:#ffa500;stroke-linecap:square;stroke-width:1.5;"/>
    <defs>
     <path d="M -12 12 
L 12 -12 
M -12 -12 
L 12 12 
" id="md3aa780009" style="stroke:#ffa500;stroke-width:3;"/>
    </defs>
    <g clip-path="url(#p8a1c8b9339)">
     <use style="fill:#ffa500;stroke:#ffa500;stroke-width:3;" x="254.210174" xlink:href="#md3aa780009" y="276.007082"/>
    </g>
   </g>
   <g id="line2d_43">
    <defs>
     <path d="M 0 1.5 
C 0.397805 1.5 0.77937 1.341951 1.06066 1.06066 
C 1.341951 0.77937 1.5 0.397805 1.5 0 
C 1.5 -0.397805 1.341951 -0.77937 1.06066 -1.06066 
C 0.77937 -1.341951 0.397805 -1.5 0 -1.5 
C -0.397805 -1.5 -0.77937 -1.341951 -1.06066 -1.06066 
C -1.341951 -0.77937 -1.5 -0.397805 -1.5 0 
C -1.5 0.397805 -1.341951 0.77937 -1.06066 1.06066 
C -0.77937 1.341951 -0.397805 1.5 0 1.5 
z
" id="me6f369f7c6" style="stroke:#6495ed;"/>
    </defs>
    <g>
     <use style="fill:#6495ed;stroke:#6495ed;" x="326.775949" xlink:href="#me6f369f7c6" y="48.483572"/>
     <use style="fill:#6495ed;stroke:#6495ed;" x="326.775949" xlink:href="#me6f369f7c6" y="48.483572"/>
    </g>
   </g>
   <g id="line2d_44">
    <path d="M 147.864557 294.88 
L 147.864557 294.355752 
L 149.326207 294.355752 
L 149.326207 293.831505 
L 167.633349 293.831505 
L 167.633349 292.783009 
L 169.845717 292.783009 
L 169.845717 291.210266 
L 172.144555 291.210266 
L 172.144555 290.686018 
L 174.135145 290.686018 
L 174.135145 290.161771 
L 177.061367 290.161771 
L 177.061367 289.637523 
L 177.527965 289.637523 
L 177.527965 288.589027 
L 181.20895 288.589027 
L 181.20895 288.06478 
L 182.085189 288.06478 
L 182.085189 286.492036 
L 183.181375 286.492036 
L 183.181375 285.443541 
L 183.833796 285.443541 
L 183.833796 284.919293 
L 185.513019 284.919293 
L 185.513019 283.870798 
L 189.544774 283.870798 
L 189.544774 283.34655 
L 189.925066 283.34655 
L 189.925066 282.822302 
L 190.397416 282.822302 
L 190.397416 282.298055 
L 190.72719 282.298055 
L 190.72719 281.773807 
L 192.51569 281.773807 
L 192.51569 281.249559 
L 193.071798 281.249559 
L 193.071798 280.201064 
L 193.407876 280.201064 
L 193.407876 279.676816 
L 193.902571 279.676816 
L 193.902571 279.152568 
L 195.751334 279.152568 
L 195.751334 278.628321 
L 196.643323 278.628321 
L 196.643323 278.104073 
L 198.300174 278.104073 
L 198.300174 277.055578 
L 201.095337 277.055578 
L 201.095337 276.53133 
L 202.374243 276.53133 
L 202.44563 273.910091 
L 202.994496 273.910091 
L 202.994496 272.861596 
L 203.277276 272.861596 
L 203.277276 272.337348 
L 203.986211 272.337348 
L 203.986211 271.8131 
L 204.711726 271.8131 
L 204.818729 269.716109 
L 205.190532 269.716109 
L 205.190532 269.191862 
L 205.468332 269.191862 
L 205.468332 268.143366 
L 206.589801 268.143366 
L 206.589801 267.094871 
L 208.618661 267.094871 
L 208.618661 266.570623 
L 209.09123 266.570623 
L 209.09123 266.046375 
L 210.101896 266.046375 
L 210.201614 264.473632 
L 210.550062 264.473632 
L 210.550062 263.949385 
L 211.586428 263.949385 
L 211.586428 263.425137 
L 212.512842 263.425137 
L 212.570957 262.376641 
L 213.020653 262.376641 
L 213.020653 261.852394 
L 214.308228 261.852394 
L 214.308228 260.803898 
L 214.427215 260.803898 
L 214.427215 260.279651 
L 215.147012 260.279651 
L 215.147012 259.755403 
L 215.680679 259.755403 
L 215.708903 258.706907 
L 215.918641 258.706907 
L 216.026317 256.085669 
L 217.19537 256.085669 
L 217.236633 253.46443 
L 217.539696 253.46443 
L 217.623666 252.415935 
L 217.820416 252.415935 
L 217.820416 251.891687 
L 218.18484 251.891687 
L 218.18484 250.843192 
L 218.907584 250.843192 
L 218.907584 250.318944 
L 219.23515 250.318944 
L 219.23515 249.270448 
L 220.179156 249.270448 
L 220.179156 248.221953 
L 220.903498 248.221953 
L 220.903498 247.697705 
L 221.388396 247.697705 
L 221.388396 247.173458 
L 222.077109 247.173458 
L 222.077109 246.64921 
L 222.7399 246.64921 
L 222.7399 245.600714 
L 223.411606 245.600714 
L 223.411606 245.076467 
L 223.540271 245.076467 
L 223.540271 244.552219 
L 224.15594 244.552219 
L 224.15594 244.027971 
L 224.788025 244.027971 
L 224.788025 242.979476 
L 225.17769 242.979476 
L 225.17769 241.93098 
L 225.357471 241.93098 
L 225.357471 241.406733 
L 226.167218 241.406733 
L 226.167218 240.882485 
L 226.387233 240.882485 
L 226.471449 239.309742 
L 226.653715 239.309742 
L 226.653715 238.785494 
L 227.055733 238.785494 
L 227.055733 238.261246 
L 227.67525 238.261246 
L 227.67525 237.736999 
L 227.831724 237.736999 
L 227.831724 237.212751 
L 228.033221 237.212751 
L 228.033221 236.688503 
L 228.314098 236.688503 
L 228.314098 236.164255 
L 229.291557 236.164255 
L 229.393153 235.11576 
L 229.578845 235.11576 
L 229.578845 234.591512 
L 229.726346 234.591512 
L 229.818248 231.970274 
L 230.089854 231.970274 
L 230.089854 230.397531 
L 230.216284 230.397531 
L 230.216284 229.873283 
L 230.385107 229.873283 
L 230.385107 229.349035 
L 230.620126 229.349035 
L 230.620126 228.824787 
L 231.218257 228.824787 
L 231.218257 228.30054 
L 231.560138 228.30054 
L 231.560138 227.776292 
L 231.87846 227.776292 
L 231.87846 226.203549 
L 232.091948 226.203549 
L 232.091948 225.679301 
L 232.339299 225.679301 
L 232.339299 225.155053 
L 232.697014 225.155053 
L 232.697014 224.630806 
L 233.00999 224.630806 
L 233.00999 223.58231 
L 233.144347 223.58231 
L 233.144347 223.058063 
L 233.455566 223.058063 
L 233.532628 221.485319 
L 233.617401 221.485319 
L 233.617401 220.961072 
L 233.758886 220.961072 
L 233.785844 219.912576 
L 234.389676 219.912576 
L 234.389676 219.388328 
L 235.241038 219.388328 
L 235.241038 217.815585 
L 235.36654 217.815585 
L 235.423865 215.718594 
L 235.480054 215.718594 
L 235.480054 215.194347 
L 235.634073 215.194347 
L 235.634073 214.145851 
L 235.877836 214.145851 
L 235.877836 213.097356 
L 236.149338 213.097356 
L 236.149338 211.524613 
L 236.404528 211.524613 
L 236.503166 209.95187 
L 236.628589 209.95187 
L 236.628589 209.427622 
L 236.835663 209.427622 
L 236.921046 207.854879 
L 237.147007 207.854879 
L 237.147007 207.330631 
L 237.282033 207.330631 
L 237.370565 206.282136 
L 237.757334 206.282136 
L 237.757334 205.757888 
L 238.024277 205.757888 
L 238.024277 205.23364 
L 238.331613 205.23364 
L 238.383392 202.612401 
L 238.531279 202.612401 
L 238.584444 201.563906 
L 238.798066 201.563906 
L 238.798066 201.039658 
L 239.021002 201.039658 
L 239.021002 199.466915 
L 239.357045 199.466915 
L 239.357045 198.942667 
L 239.653625 198.942667 
L 239.653625 198.41842 
L 239.944549 198.41842 
L 239.944549 197.894172 
L 240.137742 197.894172 
L 240.137742 197.369924 
L 240.45823 197.369924 
L 240.45823 195.797181 
L 240.651028 195.797181 
L 240.651028 194.748686 
L 240.779164 194.748686 
L 240.779164 194.224438 
L 240.900466 194.224438 
L 240.900466 193.175943 
L 241.079696 193.175943 
L 241.079696 192.651695 
L 241.344407 192.651695 
L 241.390958 191.603199 
L 241.585601 191.603199 
L 241.686954 188.981961 
L 241.751557 188.981961 
L 241.853544 187.933465 
L 242.03714 187.933465 
L 242.090065 186.88497 
L 242.219453 186.88497 
L 242.219453 185.836474 
L 242.34558 185.836474 
L 242.440436 183.215236 
L 242.4714 183.215236 
L 242.4714 182.16674 
L 242.952073 182.16674 
L 242.952073 181.642493 
L 243.348473 181.642493 
L 243.389992 180.06975 
L 243.461366 180.06975 
L 243.556574 178.497006 
L 243.577064 178.497006 
L 243.645921 176.924263 
L 243.719534 176.924263 
L 243.719534 175.875768 
L 243.836798 175.875768 
L 243.862606 174.303025 
L 244.182825 174.303025 
L 244.200414 172.206034 
L 244.415738 172.206034 
L 244.415738 171.681786 
L 245.012549 171.681786 
L 245.063064 168.012052 
L 245.354885 168.012052 
L 245.464394 164.342318 
L 245.727429 164.342318 
L 245.727429 163.81807 
L 245.850384 163.81807 
L 245.918098 162.245327 
L 246.061625 162.245327 
L 246.061625 161.196832 
L 246.186156 161.196832 
L 246.261108 159.624089 
L 246.320906 159.624089 
L 246.320906 159.099841 
L 246.566998 159.099841 
L 246.66756 157.527098 
L 246.692782 157.527098 
L 246.700366 155.954354 
L 246.999931 155.954354 
L 247.018391 154.905859 
L 247.13302 154.905859 
L 247.13302 154.381611 
L 247.293715 154.381611 
L 247.293715 153.857364 
L 247.648439 153.857364 
L 247.725531 150.711877 
L 247.972332 150.711877 
L 248.006887 149.663382 
L 248.478883 149.663382 
L 248.511106 147.042143 
L 248.600071 147.042143 
L 248.692901 145.993648 
L 248.716401 145.993648 
L 248.716401 145.4694 
L 248.836826 145.4694 
L 248.836826 144.420905 
L 248.964753 144.420905 
L 249.004285 143.372409 
L 249.101804 143.372409 
L 249.15293 141.275418 
L 249.216744 141.275418 
L 249.300301 139.178427 
L 249.357749 139.178427 
L 249.357749 138.129932 
L 249.475933 138.129932 
L 249.554999 136.557189 
L 249.716436 136.557189 
L 249.790918 133.93595 
L 249.974903 133.93595 
L 250.072522 131.314712 
L 250.171656 131.314712 
L 250.230183 129.217721 
L 250.388613 129.217721 
L 250.479211 127.12073 
L 250.522915 127.12073 
L 250.622312 124.499491 
L 250.821766 124.499491 
L 250.896114 123.450996 
L 250.96512 123.450996 
L 250.96512 122.926748 
L 251.090066 122.926748 
L 251.090066 122.4025 
L 251.224658 122.4025 
L 251.266215 121.354005 
L 251.49783 121.354005 
L 251.586951 119.781262 
L 251.677505 119.781262 
L 251.697592 118.732766 
L 251.795868 118.732766 
L 251.795868 118.208519 
L 251.921437 118.208519 
L 251.921437 117.684271 
L 252.03617 117.684271 
L 252.099437 116.111528 
L 252.350302 116.111528 
L 252.413782 114.014537 
L 252.495122 114.014537 
L 252.506145 111.917546 
L 252.761555 111.917546 
L 252.841671 109.820555 
L 252.891101 109.820555 
L 252.95066 105.102326 
L 253.210977 105.102326 
L 253.319305 102.481087 
L 253.387568 102.481087 
L 253.412817 100.908344 
L 253.515402 100.908344 
L 253.515402 100.384096 
L 253.683409 100.384096 
L 253.752434 97.762858 
L 253.849571 97.762858 
L 253.944966 92.520381 
L 253.973664 92.520381 
L 254.072779 90.947637 
L 264.39473 90.947637 
L 264.460641 89.899142 
L 264.909555 89.899142 
L 264.909555 89.374894 
L 265.186475 89.374894 
L 265.186475 88.850646 
L 265.385744 88.850646 
L 265.489062 87.802151 
L 265.530948 87.802151 
L 265.530948 87.277903 
L 265.668455 87.277903 
L 265.735566 85.180912 
L 265.902337 85.180912 
L 266.011874 83.608169 
L 272.676512 83.608169 
L 272.679242 82.559674 
L 272.805019 82.559674 
L 272.805019 81.511178 
L 272.945266 81.511178 
L 273.015774 80.462683 
L 277.511077 80.462683 
L 277.587048 78.88994 
L 277.933213 78.88994 
L 277.986355 77.317197 
L 281.33347 77.317197 
L 281.375 76.268701 
L 281.459242 76.268701 
L 281.459242 75.744454 
L 281.597053 75.744454 
L 281.597053 75.220206 
L 281.716254 75.220206 
L 281.79594 72.598967 
L 284.732132 72.598967 
L 284.732132 72.074719 
L 284.947985 72.074719 
L 284.94822 70.501976 
L 287.631427 70.501976 
L 287.645547 69.453481 
L 289.864896 69.453481 
L 289.943386 66.832242 
L 293.763204 66.832242 
L 293.763204 65.783747 
L 295.411667 65.783747 
L 295.411667 65.259499 
L 296.798103 65.259499 
L 296.8776 62.638261 
L 298.310772 62.638261 
L 298.310772 62.114013 
L 299.513133 62.114013 
L 299.569867 60.54127 
L 300.756129 60.54127 
L 300.768513 57.920031 
L 301.821778 57.920031 
L 301.821778 57.395783 
L 302.869449 57.395783 
L 302.924455 55.82304 
L 304.74509 55.82304 
L 304.780799 54.774545 
L 307.322199 54.774545 
L 307.322199 54.250297 
L 308.130101 54.250297 
L 308.130101 53.726049 
L 308.85703 53.726049 
L 308.862917 52.677554 
L 309.560195 52.677554 
L 309.560195 52.153306 
L 310.870266 52.153306 
L 310.870266 51.629058 
L 312.686233 51.629058 
L 312.700047 50.580563 
L 314.831967 50.580563 
L 314.831967 50.056315 
L 316.315 50.056315 
L 316.315 49.532068 
L 316.749481 49.532068 
L 316.749481 49.00782 
L 326.775949 49.00782 
L 326.775949 48.483572 
L 333.429677 48.483572 
L 333.429677 48.483572 
" style="fill:none;stroke:#6495ed;stroke-linecap:square;stroke-width:1.5;"/>
   </g>
   <g id="line2d_45">
    <defs>
     <path d="M -0 6 
L 6 -6 
L -6 -6 
z
" id="m4ff2fa6a46" style="stroke:#6495ed;stroke-linejoin:miter;stroke-width:1.5;"/>
    </defs>
    <g>
     <use style="fill-opacity:0;stroke:#6495ed;stroke-linejoin:miter;stroke-width:1.5;" x="233.785844" xlink:href="#m4ff2fa6a46" y="220.436824"/>
     <use style="fill-opacity:0;stroke:#6495ed;stroke-linejoin:miter;stroke-width:1.5;" x="254.072779" xlink:href="#m4ff2fa6a46" y="91.471885"/>
     <use style="fill-opacity:0;stroke:#6495ed;stroke-linejoin:miter;stroke-width:1.5;" x="326.775949" xlink:href="#m4ff2fa6a46" y="48.483572"/>
     <use style="fill-opacity:0;stroke:#6495ed;stroke-linejoin:miter;stroke-width:1.5;" x="326.775949" xlink:href="#m4ff2fa6a46" y="48.483572"/>
     <use style="fill-opacity:0;stroke:#6495ed;stroke-linejoin:miter;stroke-width:1.5;" x="333.429677" xlink:href="#m4ff2fa6a46" y="48.483572"/>
    </g>
   </g>
   <g id="line2d_46">
    <path style="fill:none;stroke:#6495ed;stroke-linecap:square;stroke-width:1.5;"/>
    <g/>
   </g>
   <g id="line2d_47">
    <path clip-path="url(#p8a1c8b9339)" d="M 254.198341 90.947637 
" style="fill:none;stroke:#6495ed;stroke-linecap:square;stroke-width:1.5;"/>
    <defs>
     <path d="M -12 12 
L 12 -12 
M -12 -12 
L 12 12 
" id="me1ccb686c1" style="stroke:#6495ed;stroke-width:3;"/>
    </defs>
    <g clip-path="url(#p8a1c8b9339)">
     <use style="fill:#6495ed;stroke:#6495ed;stroke-width:3;" x="254.198341" xlink:href="#me1ccb686c1" y="90.947637"/>
    </g>
   </g>
   <g id="line2d_48">
    <defs>
     <path d="M 0 1.5 
C 0.397805 1.5 0.77937 1.341951 1.06066 1.06066 
C 1.341951 0.77937 1.5 0.397805 1.5 0 
C 1.5 -0.397805 1.341951 -0.77937 1.06066 -1.06066 
C 0.77937 -1.341951 0.397805 -1.5 0 -1.5 
C -0.397805 -1.5 -0.77937 -1.341951 -1.06066 -1.06066 
C -1.341951 -0.77937 -1.5 -0.397805 -1.5 0 
C -1.5 0.397805 -1.341951 0.77937 -1.06066 1.06066 
C -0.77937 1.341951 -0.397805 1.5 0 1.5 
z
" id="m44f43336ff" style="stroke:#ff0000;"/>
    </defs>
    <g>
     <use style="fill:#ff0000;stroke:#ff0000;" x="240.171173" xlink:href="#m44f43336ff" y="289.637523"/>
     <use style="fill:#ff0000;stroke:#ff0000;" x="240.171173" xlink:href="#m44f43336ff" y="289.637523"/>
    </g>
   </g>
   <g id="line2d_49">
    <path d="M 199.862469 294.88 
L 199.862469 293.831505 
L 210.708212 293.831505 
L 210.708212 293.307257 
L 220.676634 293.307257 
L 220.676634 292.783009 
L 224.26845 292.783009 
L 224.26845 291.734514 
L 232.287118 291.734514 
L 232.287118 291.210266 
L 236.120038 291.210266 
L 236.120038 290.686018 
L 236.585997 290.686018 
L 236.585997 290.161771 
L 240.171173 290.161771 
L 240.171173 289.637523 
L 333.429677 289.637523 
" style="fill:none;stroke:#ff0000;stroke-linecap:square;stroke-width:1.5;"/>
   </g>
   <g id="line2d_50">
    <defs>
     <path d="M 0 -6 
L -5.196152 -3 
L -5.196152 3 
L -0 6 
L 5.196152 3 
L 5.196152 -3 
z
" id="m49e12afa76" style="stroke:#ff0000;stroke-linejoin:miter;stroke-width:1.5;"/>
    </defs>
    <g>
     <use style="fill-opacity:0;stroke:#ff0000;stroke-linejoin:miter;stroke-width:1.5;" x="240.171173" xlink:href="#m49e12afa76" y="290.161771"/>
     <use style="fill-opacity:0;stroke:#ff0000;stroke-linejoin:miter;stroke-width:1.5;" x="240.171173" xlink:href="#m49e12afa76" y="289.637523"/>
     <use style="fill-opacity:0;stroke:#ff0000;stroke-linejoin:miter;stroke-width:1.5;" x="240.171173" xlink:href="#m49e12afa76" y="289.637523"/>
     <use style="fill-opacity:0;stroke:#ff0000;stroke-linejoin:miter;stroke-width:1.5;" x="333.429677" xlink:href="#m49e12afa76" y="289.637523"/>
    </g>
   </g>
   <g id="line2d_51">
    <path style="fill:none;stroke:#ff0000;stroke-linecap:square;stroke-width:1.5;"/>
    <g/>
   </g>
   <g id="line2d_52">
    <path clip-path="url(#p8a1c8b9339)" d="M 214.582759 293.307257 
" style="fill:none;stroke:#ff0000;stroke-linecap:square;stroke-width:1.5;"/>
    <defs>
     <path d="M -12 12 
L 12 -12 
M -12 -12 
L 12 12 
" id="mc81dc95baa" style="stroke:#ff0000;stroke-width:3;"/>
    </defs>
    <g clip-path="url(#p8a1c8b9339)">
     <use style="fill:#ff0000;stroke:#ff0000;stroke-width:3;" x="214.582759" xlink:href="#mc81dc95baa" y="293.307257"/>
    </g>
   </g>
   <g id="line2d_53">
    <path clip-path="url(#p8a1c8b9339)" d="M 56.12 294.88 
L 56.12 294.88 
L 56.12 294.88 
L 56.12 294.88 
L 399.984 294.88 
" style="fill:none;stroke:#9acd32;stroke-linecap:square;stroke-width:1.5;"/>
   </g>
   <g id="line2d_54">
    <defs>
     <path d="M 0 -6 
L -6 6 
L 6 6 
z
" id="m2f7d0e3f82" style="stroke:#9acd32;stroke-linejoin:miter;stroke-width:1.5;"/>
    </defs>
    <g clip-path="url(#p8a1c8b9339)">
     <use style="fill-opacity:0;stroke:#9acd32;stroke-linejoin:miter;stroke-width:1.5;" x="56.12" xlink:href="#m2f7d0e3f82" y="294.88"/>
    </g>
   </g>
   <g id="line2d_55">
    <path clip-path="url(#p8a1c8b9339)" style="fill:none;stroke:#9acd32;stroke-linecap:square;stroke-width:1.5;"/>
    <g clip-path="url(#p8a1c8b9339)">
     <use style="fill-opacity:0;stroke:#9acd32;stroke-linejoin:miter;stroke-width:1.5;" x="-1" xlink:href="#m2f7d0e3f82" y="562.246337"/>
     <use style="fill-opacity:0;stroke:#9acd32;stroke-linejoin:miter;stroke-width:1.5;" x="399.984" xlink:href="#m2f7d0e3f82" y="562.246337"/>
    </g>
   </g>
   <g id="line2d_56">
    <path d="M 333.429677 294.88 
L 363.933742 289.532673 
" style="fill:none;stroke:#9acd32;stroke-linecap:square;stroke-width:1.5;"/>
    <g>
     <use style="fill-opacity:0;stroke:#9acd32;stroke-linejoin:miter;stroke-width:1.5;" x="333.429677" xlink:href="#m2f7d0e3f82" y="294.88"/>
     <use style="fill-opacity:0;stroke:#9acd32;stroke-linejoin:miter;stroke-width:1.5;" x="363.933742" xlink:href="#m2f7d0e3f82" y="289.532673"/>
    </g>
   </g>
   <g id="line2d_57">
    <path d="M 333.429677 289.637523 
L 363.933742 246.754059 
" style="fill:none;stroke:#ff0000;stroke-linecap:square;stroke-width:1.5;"/>
    <g>
     <use style="fill-opacity:0;stroke:#ff0000;stroke-linejoin:miter;stroke-width:1.5;" x="333.429677" xlink:href="#m49e12afa76" y="289.637523"/>
     <use style="fill-opacity:0;stroke:#ff0000;stroke-linejoin:miter;stroke-width:1.5;" x="363.933742" xlink:href="#m49e12afa76" y="246.754059"/>
    </g>
   </g>
   <g id="line2d_58">
    <path d="M 333.429677 263.425137 
L 363.933742 203.975446 
" style="fill:none;stroke:#ffa500;stroke-linecap:square;stroke-width:1.5;"/>
    <g>
     <use style="fill-opacity:0;stroke:#ffa500;stroke-linejoin:bevel;stroke-width:1.5;" x="333.429677" xlink:href="#mcd7187c1f2" y="263.425137"/>
     <use style="fill-opacity:0;stroke:#ffa500;stroke-linejoin:bevel;stroke-width:1.5;" x="363.933742" xlink:href="#mcd7187c1f2" y="203.975446"/>
    </g>
   </g>
   <g id="line2d_59">
    <path d="M 333.429677 202.088154 
L 363.933742 161.196832 
" style="fill:none;stroke:#000080;stroke-linecap:square;stroke-width:1.5;"/>
    <g>
     <use style="fill-opacity:0;stroke:#000080;stroke-width:1.5;" x="333.429677" xlink:href="#m282a3e83d5" y="202.088154"/>
     <use style="fill-opacity:0;stroke:#000080;stroke-width:1.5;" x="363.933742" xlink:href="#m282a3e83d5" y="161.196832"/>
    </g>
   </g>
   <g id="line2d_60">
    <path d="M 333.429677 48.483572 
L 363.933742 118.418218 
" style="fill:none;stroke:#6495ed;stroke-linecap:square;stroke-width:1.5;"/>
    <g>
     <use style="fill-opacity:0;stroke:#6495ed;stroke-linejoin:miter;stroke-width:1.5;" x="333.429677" xlink:href="#m4ff2fa6a46" y="48.483572"/>
     <use style="fill-opacity:0;stroke:#6495ed;stroke-linejoin:miter;stroke-width:1.5;" x="363.933742" xlink:href="#m4ff2fa6a46" y="118.418218"/>
    </g>
   </g>
   <g id="line2d_61">
    <path d="M 333.429677 28.562159 
L 363.933742 75.639604 
" style="fill:none;stroke:#ff00ff;stroke-linecap:square;stroke-width:1.5;"/>
    <g>
     <use style="fill-opacity:0;stroke:#ff00ff;stroke-linejoin:miter;stroke-width:1.5;" x="333.429677" xlink:href="#m2c5439133a" y="28.562159"/>
     <use style="fill-opacity:0;stroke:#ff00ff;stroke-linejoin:miter;stroke-width:1.5;" x="363.933742" xlink:href="#m2c5439133a" y="75.639604"/>
    </g>
   </g>
   <g id="line2d_62">
    <path d="M 333.429677 294.88 
L 333.429677 27.513663 
" style="fill:none;stroke:#000000;stroke-linecap:square;stroke-width:1.5;"/>
   </g>
   <g id="patch_3">
    <path d="M 56.12 294.88 
L 56.12 24.84 
" style="fill:none;stroke:#000000;stroke-linecap:square;stroke-linejoin:miter;stroke-width:0.8;"/>
   </g>
   <g id="patch_4">
    <path d="M 399.984 294.88 
L 399.984 24.84 
" style="fill:none;stroke:#000000;stroke-linecap:square;stroke-linejoin:miter;stroke-width:0.8;"/>
   </g>
   <g id="patch_5">
    <path d="M 56.12 294.88 
L 399.984 294.88 
" style="fill:none;stroke:#000000;stroke-linecap:square;stroke-linejoin:miter;stroke-width:0.8;"/>
   </g>
   <g id="patch_6">
    <path d="M 56.12 24.84 
L 399.984 24.84 
" style="fill:none;stroke:#000000;stroke-linecap:square;stroke-linejoin:miter;stroke-width:0.8;"/>
   </g>
   <g id="text_14">
    <!-- gsa outpu -->
    <g transform="translate(369.479935 294.223611)scale(0.17 -0.17)">
     <use xlink:href="#DejaVuSans-67"/>
     <use x="63.476562" xlink:href="#DejaVuSans-73"/>
     <use x="115.576172" xlink:href="#DejaVuSans-61"/>
     <use x="176.855469" xlink:href="#DejaVuSans-20"/>
     <use x="208.642578" xlink:href="#DejaVuSans-6f"/>
     <use x="269.824219" xlink:href="#DejaVuSans-75"/>
     <use x="333.203125" xlink:href="#DejaVuSans-74"/>
     <use x="372.412109" xlink:href="#DejaVuSans-70"/>
     <use x="435.888672" xlink:href="#DejaVuSans-75"/>
    </g>
   </g>
   <g id="text_15">
    <!-- Rosenbroc -->
    <defs>
     <path d="M 44.390625 34.1875 
Q 47.5625 33.109375 50.5625 29.59375 
Q 53.5625 26.078125 56.59375 19.921875 
L 66.609375 0 
L 56 0 
L 46.6875 18.703125 
Q 43.0625 26.03125 39.671875 28.421875 
Q 36.28125 30.8125 30.421875 30.8125 
L 19.671875 30.8125 
L 19.671875 0 
L 9.8125 0 
L 9.8125 72.90625 
L 32.078125 72.90625 
Q 44.578125 72.90625 50.734375 67.671875 
Q 56.890625 62.453125 56.890625 51.90625 
Q 56.890625 45.015625 53.6875 40.46875 
Q 50.484375 35.9375 44.390625 34.1875 
z
M 19.671875 64.796875 
L 19.671875 38.921875 
L 32.078125 38.921875 
Q 39.203125 38.921875 42.84375 42.21875 
Q 46.484375 45.515625 46.484375 51.90625 
Q 46.484375 58.296875 42.84375 61.546875 
Q 39.203125 64.796875 32.078125 64.796875 
z
" id="DejaVuSans-52"/>
     <path d="M 48.6875 27.296875 
Q 48.6875 37.203125 44.609375 42.84375 
Q 40.53125 48.484375 33.40625 48.484375 
Q 26.265625 48.484375 22.1875 42.84375 
Q 18.109375 37.203125 18.109375 27.296875 
Q 18.109375 17.390625 22.1875 11.75 
Q 26.265625 6.109375 33.40625 6.109375 
Q 40.53125 6.109375 44.609375 11.75 
Q 48.6875 17.390625 48.6875 27.296875 
z
M 18.109375 46.390625 
Q 20.953125 51.265625 25.265625 53.625 
Q 29.59375 56 35.59375 56 
Q 45.5625 56 51.78125 48.09375 
Q 58.015625 40.1875 58.015625 27.296875 
Q 58.015625 14.40625 51.78125 6.484375 
Q 45.5625 -1.421875 35.59375 -1.421875 
Q 29.59375 -1.421875 25.265625 0.953125 
Q 20.953125 3.328125 18.109375 8.203125 
L 18.109375 0 
L 9.078125 0 
L 9.078125 75.984375 
L 18.109375 75.984375 
z
" id="DejaVuSans-62"/>
    </defs>
    <g transform="translate(369.479935 251.444997)scale(0.17 -0.17)">
     <use xlink:href="#DejaVuSans-52"/>
     <use x="69.419922" xlink:href="#DejaVuSans-6f"/>
     <use x="130.601562" xlink:href="#DejaVuSans-73"/>
     <use x="182.701172" xlink:href="#DejaVuSans-65"/>
     <use x="244.224609" xlink:href="#DejaVuSans-6e"/>
     <use x="307.603516" xlink:href="#DejaVuSans-62"/>
     <use x="371.080078" xlink:href="#DejaVuSans-72"/>
     <use x="412.162109" xlink:href="#DejaVuSans-6f"/>
     <use x="473.34375" xlink:href="#DejaVuSans-63"/>
    </g>
   </g>
   <g id="text_16">
    <!-- GA -->
    <defs>
     <path d="M 59.515625 10.40625 
L 59.515625 29.984375 
L 43.40625 29.984375 
L 43.40625 38.09375 
L 69.28125 38.09375 
L 69.28125 6.78125 
Q 63.578125 2.734375 56.6875 0.65625 
Q 49.8125 -1.421875 42 -1.421875 
Q 24.90625 -1.421875 15.25 8.5625 
Q 5.609375 18.5625 5.609375 36.375 
Q 5.609375 54.25 15.25 64.234375 
Q 24.90625 74.21875 42 74.21875 
Q 49.125 74.21875 55.546875 72.453125 
Q 61.96875 70.703125 67.390625 67.28125 
L 67.390625 56.78125 
Q 61.921875 61.421875 55.765625 63.765625 
Q 49.609375 66.109375 42.828125 66.109375 
Q 29.4375 66.109375 22.71875 58.640625 
Q 16.015625 51.171875 16.015625 36.375 
Q 16.015625 21.625 22.71875 14.15625 
Q 29.4375 6.6875 42.828125 6.6875 
Q 48.046875 6.6875 52.140625 7.59375 
Q 56.25 8.5 59.515625 10.40625 
z
" id="DejaVuSans-47"/>
     <path d="M 34.1875 63.1875 
L 20.796875 26.90625 
L 47.609375 26.90625 
z
M 28.609375 72.90625 
L 39.796875 72.90625 
L 67.578125 0 
L 57.328125 0 
L 50.6875 18.703125 
L 17.828125 18.703125 
L 11.1875 0 
L 0.78125 0 
z
" id="DejaVuSans-41"/>
    </defs>
    <g transform="translate(369.479935 208.666383)scale(0.17 -0.17)">
     <use xlink:href="#DejaVuSans-47"/>
     <use x="77.490234" xlink:href="#DejaVuSans-41"/>
    </g>
   </g>
   <g id="text_17">
    <!-- ALPS -->
    <defs>
     <path d="M 9.8125 72.90625 
L 19.671875 72.90625 
L 19.671875 8.296875 
L 55.171875 8.296875 
L 55.171875 0 
L 9.8125 0 
z
" id="DejaVuSans-4c"/>
     <path d="M 19.671875 64.796875 
L 19.671875 37.40625 
L 32.078125 37.40625 
Q 38.96875 37.40625 42.71875 40.96875 
Q 46.484375 44.53125 46.484375 51.125 
Q 46.484375 57.671875 42.71875 61.234375 
Q 38.96875 64.796875 32.078125 64.796875 
z
M 9.8125 72.90625 
L 32.078125 72.90625 
Q 44.34375 72.90625 50.609375 67.359375 
Q 56.890625 61.8125 56.890625 51.125 
Q 56.890625 40.328125 50.609375 34.8125 
Q 44.34375 29.296875 32.078125 29.296875 
L 19.671875 29.296875 
L 19.671875 0 
L 9.8125 0 
z
" id="DejaVuSans-50"/>
     <path d="M 53.515625 70.515625 
L 53.515625 60.890625 
Q 47.90625 63.578125 42.921875 64.890625 
Q 37.9375 66.21875 33.296875 66.21875 
Q 25.25 66.21875 20.875 63.09375 
Q 16.5 59.96875 16.5 54.203125 
Q 16.5 49.359375 19.40625 46.890625 
Q 22.3125 44.4375 30.421875 42.921875 
L 36.375 41.703125 
Q 47.40625 39.59375 52.65625 34.296875 
Q 57.90625 29 57.90625 20.125 
Q 57.90625 9.515625 50.796875 4.046875 
Q 43.703125 -1.421875 29.984375 -1.421875 
Q 24.8125 -1.421875 18.96875 -0.25 
Q 13.140625 0.921875 6.890625 3.21875 
L 6.890625 13.375 
Q 12.890625 10.015625 18.65625 8.296875 
Q 24.421875 6.59375 29.984375 6.59375 
Q 38.421875 6.59375 43.015625 9.90625 
Q 47.609375 13.234375 47.609375 19.390625 
Q 47.609375 24.75 44.3125 27.78125 
Q 41.015625 30.8125 33.5 32.328125 
L 27.484375 33.5 
Q 16.453125 35.6875 11.515625 40.375 
Q 6.59375 45.0625 6.59375 53.421875 
Q 6.59375 63.09375 13.40625 68.65625 
Q 20.21875 74.21875 32.171875 74.21875 
Q 37.3125 74.21875 42.625 73.28125 
Q 47.953125 72.359375 53.515625 70.515625 
z
" id="DejaVuSans-53"/>
    </defs>
    <g transform="translate(369.479935 165.887769)scale(0.17 -0.17)">
     <use xlink:href="#DejaVuSans-41"/>
     <use x="68.408203" xlink:href="#DejaVuSans-4c"/>
     <use x="124.121094" xlink:href="#DejaVuSans-50"/>
     <use x="184.423828" xlink:href="#DejaVuSans-53"/>
    </g>
   </g>
   <g id="text_18">
    <!-- PSO -->
    <defs>
     <path d="M 39.40625 66.21875 
Q 28.65625 66.21875 22.328125 58.203125 
Q 16.015625 50.203125 16.015625 36.375 
Q 16.015625 22.609375 22.328125 14.59375 
Q 28.65625 6.59375 39.40625 6.59375 
Q 50.140625 6.59375 56.421875 14.59375 
Q 62.703125 22.609375 62.703125 36.375 
Q 62.703125 50.203125 56.421875 58.203125 
Q 50.140625 66.21875 39.40625 66.21875 
z
M 39.40625 74.21875 
Q 54.734375 74.21875 63.90625 63.9375 
Q 73.09375 53.65625 73.09375 36.375 
Q 73.09375 19.140625 63.90625 8.859375 
Q 54.734375 -1.421875 39.40625 -1.421875 
Q 24.03125 -1.421875 14.8125 8.828125 
Q 5.609375 19.09375 5.609375 36.375 
Q 5.609375 53.65625 14.8125 63.9375 
Q 24.03125 74.21875 39.40625 74.21875 
z
" id="DejaVuSans-4f"/>
    </defs>
    <g transform="translate(369.479935 123.109155)scale(0.17 -0.17)">
     <use xlink:href="#DejaVuSans-50"/>
     <use x="60.302734" xlink:href="#DejaVuSans-53"/>
     <use x="123.779297" xlink:href="#DejaVuSans-4f"/>
    </g>
   </g>
   <g id="text_19">
    <!-- DASA -->
    <defs>
     <path d="M 19.671875 64.796875 
L 19.671875 8.109375 
L 31.59375 8.109375 
Q 46.6875 8.109375 53.6875 14.9375 
Q 60.6875 21.78125 60.6875 36.53125 
Q 60.6875 51.171875 53.6875 57.984375 
Q 46.6875 64.796875 31.59375 64.796875 
z
M 9.8125 72.90625 
L 30.078125 72.90625 
Q 51.265625 72.90625 61.171875 64.09375 
Q 71.09375 55.28125 71.09375 36.53125 
Q 71.09375 17.671875 61.125 8.828125 
Q 51.171875 0 30.078125 0 
L 9.8125 0 
z
" id="DejaVuSans-44"/>
    </defs>
    <g transform="translate(369.479935 80.330541)scale(0.17 -0.17)">
     <use xlink:href="#DejaVuSans-44"/>
     <use x="76.986328" xlink:href="#DejaVuSans-41"/>
     <use x="145.394531" xlink:href="#DejaVuSans-53"/>
     <use x="208.886719" xlink:href="#DejaVuSans-41"/>
    </g>
   </g>
   <g id="text_20">
    <!-- best 2009 -->
    <defs>
     <path d="M 10.984375 1.515625 
L 10.984375 10.5 
Q 14.703125 8.734375 18.5 7.8125 
Q 22.3125 6.890625 25.984375 6.890625 
Q 35.75 6.890625 40.890625 13.453125 
Q 46.046875 20.015625 46.78125 33.40625 
Q 43.953125 29.203125 39.59375 26.953125 
Q 35.25 24.703125 29.984375 24.703125 
Q 19.046875 24.703125 12.671875 31.3125 
Q 6.296875 37.9375 6.296875 49.421875 
Q 6.296875 60.640625 12.9375 67.421875 
Q 19.578125 74.21875 30.609375 74.21875 
Q 43.265625 74.21875 49.921875 64.515625 
Q 56.59375 54.828125 56.59375 36.375 
Q 56.59375 19.140625 48.40625 8.859375 
Q 40.234375 -1.421875 26.421875 -1.421875 
Q 22.703125 -1.421875 18.890625 -0.6875 
Q 15.09375 0.046875 10.984375 1.515625 
z
M 30.609375 32.421875 
Q 37.25 32.421875 41.125 36.953125 
Q 45.015625 41.5 45.015625 49.421875 
Q 45.015625 57.28125 41.125 61.84375 
Q 37.25 66.40625 30.609375 66.40625 
Q 23.96875 66.40625 20.09375 61.84375 
Q 16.21875 57.28125 16.21875 49.421875 
Q 16.21875 41.5 20.09375 36.953125 
Q 23.96875 32.421875 30.609375 32.421875 
z
" id="DejaVuSans-39"/>
    </defs>
    <g transform="translate(369.479935 37.551928)scale(0.17 -0.17)">
     <use xlink:href="#DejaVuSans-62"/>
     <use x="63.476562" xlink:href="#DejaVuSans-65"/>
     <use x="125" xlink:href="#DejaVuSans-73"/>
     <use x="177.099609" xlink:href="#DejaVuSans-74"/>
     <use x="216.308594" xlink:href="#DejaVuSans-20"/>
     <use x="248.095703" xlink:href="#DejaVuSans-32"/>
     <use x="311.71875" xlink:href="#DejaVuSans-30"/>
     <use x="375.341797" xlink:href="#DejaVuSans-30"/>
     <use x="438.964844" xlink:href="#DejaVuSans-39"/>
    </g>
   </g>
   <g id="text_21">
    <!-- bbob f11, 20-D -->
    <g transform="translate(59.55864 35.290806)scale(0.102 -0.102)">
     <use xlink:href="#DejaVuSans-62"/>
     <use x="63.476562" xlink:href="#DejaVuSans-62"/>
     <use x="126.953125" xlink:href="#DejaVuSans-6f"/>
     <use x="188.134766" xlink:href="#DejaVuSans-62"/>
     <use x="251.611328" xlink:href="#DejaVuSans-20"/>
     <use x="283.398438" xlink:href="#DejaVuSans-66"/>
     <use x="318.603516" xlink:href="#DejaVuSans-31"/>
     <use x="382.226562" xlink:href="#DejaVuSans-31"/>
     <use x="445.849609" xlink:href="#DejaVuSans-2c"/>
     <use x="477.636719" xlink:href="#DejaVuSans-20"/>
     <use x="509.423828" xlink:href="#DejaVuSans-32"/>
     <use x="573.046875" xlink:href="#DejaVuSans-30"/>
     <use x="636.669922" xlink:href="#DejaVuSans-2d"/>
     <use x="672.753906" xlink:href="#DejaVuSans-44"/>
    </g>
    <!-- 51 targets: 100..1e-08 -->
    <defs>
     <path d="M 10.796875 72.90625 
L 49.515625 72.90625 
L 49.515625 64.59375 
L 19.828125 64.59375 
L 19.828125 46.734375 
Q 21.96875 47.46875 24.109375 47.828125 
Q 26.265625 48.1875 28.421875 48.1875 
Q 40.625 48.1875 47.75 41.5 
Q 54.890625 34.8125 54.890625 23.390625 
Q 54.890625 11.625 47.5625 5.09375 
Q 40.234375 -1.421875 26.90625 -1.421875 
Q 22.3125 -1.421875 17.546875 -0.640625 
Q 12.796875 0.140625 7.71875 1.703125 
L 7.71875 11.625 
Q 12.109375 9.234375 16.796875 8.0625 
Q 21.484375 6.890625 26.703125 6.890625 
Q 35.15625 6.890625 40.078125 11.328125 
Q 45.015625 15.765625 45.015625 23.390625 
Q 45.015625 31 40.078125 35.4375 
Q 35.15625 39.890625 26.703125 39.890625 
Q 22.75 39.890625 18.8125 39.015625 
Q 14.890625 38.140625 10.796875 36.28125 
z
" id="DejaVuSans-35"/>
     <path d="M 11.71875 12.40625 
L 22.015625 12.40625 
L 22.015625 0 
L 11.71875 0 
z
M 11.71875 51.703125 
L 22.015625 51.703125 
L 22.015625 39.3125 
L 11.71875 39.3125 
z
" id="DejaVuSans-3a"/>
    </defs>
    <g transform="translate(59.55864 46.712575)scale(0.102 -0.102)">
     <use xlink:href="#DejaVuSans-35"/>
     <use x="63.623047" xlink:href="#DejaVuSans-31"/>
     <use x="127.246094" xlink:href="#DejaVuSans-20"/>
     <use x="159.033203" xlink:href="#DejaVuSans-74"/>
     <use x="198.242188" xlink:href="#DejaVuSans-61"/>
     <use x="259.521484" xlink:href="#DejaVuSans-72"/>
     <use x="300.619141" xlink:href="#DejaVuSans-67"/>
     <use x="364.095703" xlink:href="#DejaVuSans-65"/>
     <use x="425.619141" xlink:href="#DejaVuSans-74"/>
     <use x="464.828125" xlink:href="#DejaVuSans-73"/>
     <use x="516.927734" xlink:href="#DejaVuSans-3a"/>
     <use x="550.619141" xlink:href="#DejaVuSans-20"/>
     <use x="582.40625" xlink:href="#DejaVuSans-31"/>
     <use x="646.029297" xlink:href="#DejaVuSans-30"/>
     <use x="709.652344" xlink:href="#DejaVuSans-30"/>
     <use x="773.275391" xlink:href="#DejaVuSans-2e"/>
     <use x="805.0625" xlink:href="#DejaVuSans-2e"/>
     <use x="836.849609" xlink:href="#DejaVuSans-31"/>
     <use x="900.472656" xlink:href="#DejaVuSans-65"/>
     <use x="961.996094" xlink:href="#DejaVuSans-2d"/>
     <use x="998.080078" xlink:href="#DejaVuSans-30"/>
     <use x="1061.703125" xlink:href="#DejaVuSans-38"/>
    </g>
    <!-- 15 instances -->
    <g transform="translate(59.55864 58.134344)scale(0.102 -0.102)">
     <use xlink:href="#DejaVuSans-31"/>
     <use x="63.623047" xlink:href="#DejaVuSans-35"/>
     <use x="127.246094" xlink:href="#DejaVuSans-20"/>
     <use x="159.033203" xlink:href="#DejaVuSans-69"/>
     <use x="186.816406" xlink:href="#DejaVuSans-6e"/>
     <use x="250.195312" xlink:href="#DejaVuSans-73"/>
     <use x="302.294922" xlink:href="#DejaVuSans-74"/>
     <use x="341.503906" xlink:href="#DejaVuSans-61"/>
     <use x="402.783203" xlink:href="#DejaVuSans-6e"/>
     <use x="466.162109" xlink:href="#DejaVuSans-63"/>
     <use x="521.142578" xlink:href="#DejaVuSans-65"/>
     <use x="582.666016" xlink:href="#DejaVuSans-73"/>
    </g>
   </g>
   <g id="text_22">
    <!-- v-coco-version -->
    <g style="fill:#808080;" transform="translate(191.556688 290.099912)scale(0.1 -0.1)">
     <use xlink:href="#DejaVuSans-76"/>
     <use x="59.148438" xlink:href="#DejaVuSans-2d"/>
     <use x="95.232422" xlink:href="#DejaVuSans-63"/>
     <use x="150.212891" xlink:href="#DejaVuSans-6f"/>
     <use x="211.394531" xlink:href="#DejaVuSans-63"/>
     <use x="266.375" xlink:href="#DejaVuSans-6f"/>
     <use x="327.572266" xlink:href="#DejaVuSans-2d"/>
     <use x="363.625" xlink:href="#DejaVuSans-76"/>
     <use x="422.804688" xlink:href="#DejaVuSans-65"/>
     <use x="484.328125" xlink:href="#DejaVuSans-72"/>
     <use x="525.441406" xlink:href="#DejaVuSans-73"/>
     <use x="577.541016" xlink:href="#DejaVuSans-69"/>
     <use x="605.324219" xlink:href="#DejaVuSans-6f"/>
     <use x="666.505859" xlink:href="#DejaVuSans-6e"/>
    </g>
   </g>
   <g id="text_23">
    <!-- 11 Discus -->
    <g transform="translate(179.416063 18.84)scale(0.2 -0.2)">
     <use xlink:href="#DejaVuSans-31"/>
     <use x="63.623047" xlink:href="#DejaVuSans-31"/>
     <use x="127.246094" xlink:href="#DejaVuSans-20"/>
     <use x="159.033203" xlink:href="#DejaVuSans-44"/>
     <use x="236.035156" xlink:href="#DejaVuSans-69"/>
     <use x="263.818359" xlink:href="#DejaVuSans-73"/>
     <use x="315.917969" xlink:href="#DejaVuSans-63"/>
     <use x="370.898438" xlink:href="#DejaVuSans-75"/>
     <use x="434.277344" xlink:href="#DejaVuSans-73"/>
    </g>
   </g>
  </g>
 </g>
 <defs>
  <clipPath id="p8a1c8b9339">
   <rect height="270.04" width="343.864" x="56.12" y="24.84"/>
  </clipPath>
 </defs>
</svg>
