<?xml version="1.0" encoding="utf-8" standalone="no"?>
<!DOCTYPE svg PUBLIC "-//W3C//DTD SVG 1.1//EN"
  "http://www.w3.org/Graphics/SVG/1.1/DTD/svg11.dtd">
<!-- Created with matplotlib (http://matplotlib.org/) -->
<svg height="345.6pt" version="1.1" viewBox="0 0 460.8 345.6" width="460.8pt" xmlns="http://www.w3.org/2000/svg" xmlns:xlink="http://www.w3.org/1999/xlink">
 <defs>
  <style type="text/css">
*{stroke-linecap:butt;stroke-linejoin:round;}
  </style>
 </defs>
 <g id="figure_1">
  <g id="patch_1">
   <path d="M 0 345.6 
L 460.8 345.6 
L 460.8 0 
L 0 0 
z
" style="fill:#ffffff;"/>
  </g>
  <g id="axes_1">
   <g id="patch_2">
    <path d="M 56.12 294.88 
L 399.984 294.88 
L 399.984 24.84 
L 56.12 24.84 
z
" style="fill:#ffffff;"/>
   </g>
   <g id="line2d_1">
    <path d="M 95.388083 294.88 
L 95.388083 289.637523 
L 101.401295 289.637523 
L 101.401295 284.395046 
L 132.635994 284.395046 
L 132.635994 279.152568 
L 141.636916 279.152568 
L 141.636916 273.910091 
L 145.067707 273.910091 
L 145.067707 268.667614 
L 149.180499 268.667614 
L 149.180499 263.425137 
L 152.086012 263.425137 
L 152.086012 258.18266 
L 154.789186 258.18266 
L 154.789186 252.940182 
L 157.46117 252.940182 
L 157.46117 247.697705 
L 157.465928 247.697705 
L 157.465928 242.455228 
L 157.513443 242.455228 
L 157.513443 237.212751 
L 157.645788 237.212751 
L 157.645788 231.970274 
L 157.655203 231.970274 
L 157.655203 226.727797 
L 157.664612 226.727797 
L 157.664612 221.485319 
L 157.674016 221.485319 
L 157.674016 211.000365 
L 157.688113 211.000365 
L 157.688113 205.757888 
L 157.749065 205.757888 
L 157.749065 200.515411 
L 157.805137 200.515411 
L 157.805137 195.272933 
L 157.828447 195.272933 
L 157.828447 190.030456 
L 157.837762 190.030456 
L 157.837762 184.787979 
L 157.870325 184.787979 
L 157.870325 174.303025 
L 157.874972 174.303025 
L 157.874972 169.060547 
L 157.893546 169.060547 
L 157.893546 158.575593 
L 158.018404 158.575593 
L 158.018404 142.848162 
L 158.023011 142.848162 
L 158.023011 127.12073 
L 158.032221 127.12073 
L 158.032221 116.635776 
L 158.036825 116.635776 
L 158.036825 111.393298 
L 158.064419 111.393298 
L 158.064419 106.150821 
L 158.124054 106.150821 
L 158.124054 100.908344 
L 158.128633 100.908344 
L 158.128633 95.665867 
L 158.174354 95.665867 
L 158.174354 90.42339 
L 158.188047 90.42339 
L 158.188047 79.938435 
L 158.19717 79.938435 
L 158.19717 74.695958 
L 158.201729 74.695958 
L 158.201729 69.453481 
L 193.145822 69.453481 
L 193.145822 58.968526 
L 193.14642 58.968526 
L 193.14642 53.726049 
L 193.147018 53.726049 
L 193.147018 43.241095 
L 193.147616 43.241095 
L 193.147616 37.998618 
L 193.148214 37.998618 
L 193.148214 27.513663 
L 333.429677 27.513663 
" style="fill:none;stroke:#f5deb3;stroke-linecap:square;stroke-width:6;"/>
   </g>
   <g id="line2d_2">
    <defs>
     <path d="M -0 7.778175 
L 7.778175 0 
L 0 -7.778175 
L -7.778175 -0 
z
" id="med532906c5" style="stroke:#f5deb3;stroke-linejoin:miter;stroke-width:1.5;"/>
    </defs>
    <g>
     <use style="fill:#f5deb3;stroke:#f5deb3;stroke-linejoin:miter;stroke-width:1.5;" x="157.674016" xlink:href="#med532906c5" y="211.000365"/>
     <use style="fill:#f5deb3;stroke:#f5deb3;stroke-linejoin:miter;stroke-width:1.5;" x="158.128633" xlink:href="#med532906c5" y="95.665867"/>
     <use style="fill:#f5deb3;stroke:#f5deb3;stroke-linejoin:miter;stroke-width:1.5;" x="193.148214" xlink:href="#med532906c5" y="37.998618"/>
     <use style="fill:#f5deb3;stroke:#f5deb3;stroke-linejoin:miter;stroke-width:1.5;" x="193.148214" xlink:href="#med532906c5" y="27.513663"/>
     <use style="fill:#f5deb3;stroke:#f5deb3;stroke-linejoin:miter;stroke-width:1.5;" x="333.429677" xlink:href="#med532906c5" y="27.513663"/>
    </g>
   </g>
   <g id="line2d_3">
    <path style="fill:none;stroke:#f5deb3;stroke-linecap:square;stroke-width:6;"/>
    <g/>
   </g>
   <g id="line2d_4">
    <path d="M 333.429677 27.513663 
L 363.933742 32.86099 
" style="fill:none;stroke:#f5deb3;stroke-linecap:square;stroke-width:6;"/>
    <g>
     <use style="fill:#f5deb3;stroke:#f5deb3;stroke-linejoin:miter;stroke-width:1.5;" x="333.429677" xlink:href="#med532906c5" y="27.513663"/>
     <use style="fill:#f5deb3;stroke:#f5deb3;stroke-linejoin:miter;stroke-width:1.5;" x="363.933742" xlink:href="#med532906c5" y="32.86099"/>
    </g>
   </g>
   <g id="matplotlib.axis_1">
    <g id="xtick_1">
     <g id="line2d_5">
      <path clip-path="url(#pe1d8171a66)" d="M 56.12 294.88 
L 56.12 24.84 
" style="fill:none;stroke:#b0b0b0;stroke-linecap:square;stroke-width:0.8;"/>
     </g>
     <g id="line2d_6">
      <defs>
       <path d="M 0 0 
L 0 3.5 
" id="m3635b1c4f9" style="stroke:#000000;stroke-width:0.8;"/>
      </defs>
      <g>
       <use style="stroke:#000000;stroke-width:0.8;" x="56.12" xlink:href="#m3635b1c4f9" y="294.88"/>
      </g>
     </g>
     <g id="text_1">
      <!-- 0 -->
      <defs>
       <path d="M 31.78125 66.40625 
Q 24.171875 66.40625 20.328125 58.90625 
Q 16.5 51.421875 16.5 36.375 
Q 16.5 21.390625 20.328125 13.890625 
Q 24.171875 6.390625 31.78125 6.390625 
Q 39.453125 6.390625 43.28125 13.890625 
Q 47.125 21.390625 47.125 36.375 
Q 47.125 51.421875 43.28125 58.90625 
Q 39.453125 66.40625 31.78125 66.40625 
z
M 31.78125 74.21875 
Q 44.046875 74.21875 50.515625 64.515625 
Q 56.984375 54.828125 56.984375 36.375 
Q 56.984375 17.96875 50.515625 8.265625 
Q 44.046875 -1.421875 31.78125 -1.421875 
Q 19.53125 -1.421875 13.0625 8.265625 
Q 6.59375 17.96875 6.59375 36.375 
Q 6.59375 54.828125 13.0625 64.515625 
Q 19.53125 74.21875 31.78125 74.21875 
z
" id="DejaVuSans-30"/>
      </defs>
      <g transform="translate(49.7575 317.076875)scale(0.2 -0.2)">
       <use xlink:href="#DejaVuSans-30"/>
      </g>
     </g>
    </g>
    <g id="xtick_2">
     <g id="line2d_7">
      <path clip-path="url(#pe1d8171a66)" d="M 135.351336 294.88 
L 135.351336 24.84 
" style="fill:none;stroke:#b0b0b0;stroke-linecap:square;stroke-width:0.8;"/>
     </g>
     <g id="line2d_8">
      <g>
       <use style="stroke:#000000;stroke-width:0.8;" x="135.351336" xlink:href="#m3635b1c4f9" y="294.88"/>
      </g>
     </g>
     <g id="text_2">
      <!-- 2 -->
      <defs>
       <path d="M 19.1875 8.296875 
L 53.609375 8.296875 
L 53.609375 0 
L 7.328125 0 
L 7.328125 8.296875 
Q 12.9375 14.109375 22.625 23.890625 
Q 32.328125 33.6875 34.8125 36.53125 
Q 39.546875 41.84375 41.421875 45.53125 
Q 43.3125 49.21875 43.3125 52.78125 
Q 43.3125 58.59375 39.234375 62.25 
Q 35.15625 65.921875 28.609375 65.921875 
Q 23.96875 65.921875 18.8125 64.3125 
Q 13.671875 62.703125 7.8125 59.421875 
L 7.8125 69.390625 
Q 13.765625 71.78125 18.9375 73 
Q 24.125 74.21875 28.421875 74.21875 
Q 39.75 74.21875 46.484375 68.546875 
Q 53.21875 62.890625 53.21875 53.421875 
Q 53.21875 48.921875 51.53125 44.890625 
Q 49.859375 40.875 45.40625 35.40625 
Q 44.1875 33.984375 37.640625 27.21875 
Q 31.109375 20.453125 19.1875 8.296875 
z
" id="DejaVuSans-32"/>
      </defs>
      <g transform="translate(128.988836 317.076875)scale(0.2 -0.2)">
       <use xlink:href="#DejaVuSans-32"/>
      </g>
     </g>
    </g>
    <g id="xtick_3">
     <g id="line2d_9">
      <path clip-path="url(#pe1d8171a66)" d="M 214.582673 294.88 
L 214.582673 24.84 
" style="fill:none;stroke:#b0b0b0;stroke-linecap:square;stroke-width:0.8;"/>
     </g>
     <g id="line2d_10">
      <g>
       <use style="stroke:#000000;stroke-width:0.8;" x="214.582673" xlink:href="#m3635b1c4f9" y="294.88"/>
      </g>
     </g>
     <g id="text_3">
      <!-- 4 -->
      <defs>
       <path d="M 37.796875 64.3125 
L 12.890625 25.390625 
L 37.796875 25.390625 
z
M 35.203125 72.90625 
L 47.609375 72.90625 
L 47.609375 25.390625 
L 58.015625 25.390625 
L 58.015625 17.1875 
L 47.609375 17.1875 
L 47.609375 0 
L 37.796875 0 
L 37.796875 17.1875 
L 4.890625 17.1875 
L 4.890625 26.703125 
z
" id="DejaVuSans-34"/>
      </defs>
      <g transform="translate(208.220173 317.076875)scale(0.2 -0.2)">
       <use xlink:href="#DejaVuSans-34"/>
      </g>
     </g>
    </g>
    <g id="xtick_4">
     <g id="line2d_11">
      <path clip-path="url(#pe1d8171a66)" d="M 293.814009 294.88 
L 293.814009 24.84 
" style="fill:none;stroke:#b0b0b0;stroke-linecap:square;stroke-width:0.8;"/>
     </g>
     <g id="line2d_12">
      <g>
       <use style="stroke:#000000;stroke-width:0.8;" x="293.814009" xlink:href="#m3635b1c4f9" y="294.88"/>
      </g>
     </g>
     <g id="text_4">
      <!-- 6 -->
      <defs>
       <path d="M 33.015625 40.375 
Q 26.375 40.375 22.484375 35.828125 
Q 18.609375 31.296875 18.609375 23.390625 
Q 18.609375 15.53125 22.484375 10.953125 
Q 26.375 6.390625 33.015625 6.390625 
Q 39.65625 6.390625 43.53125 10.953125 
Q 47.40625 15.53125 47.40625 23.390625 
Q 47.40625 31.296875 43.53125 35.828125 
Q 39.65625 40.375 33.015625 40.375 
z
M 52.59375 71.296875 
L 52.59375 62.3125 
Q 48.875 64.0625 45.09375 64.984375 
Q 41.3125 65.921875 37.59375 65.921875 
Q 27.828125 65.921875 22.671875 59.328125 
Q 17.53125 52.734375 16.796875 39.40625 
Q 19.671875 43.65625 24.015625 45.921875 
Q 28.375 48.1875 33.59375 48.1875 
Q 44.578125 48.1875 50.953125 41.515625 
Q 57.328125 34.859375 57.328125 23.390625 
Q 57.328125 12.15625 50.6875 5.359375 
Q 44.046875 -1.421875 33.015625 -1.421875 
Q 20.359375 -1.421875 13.671875 8.265625 
Q 6.984375 17.96875 6.984375 36.375 
Q 6.984375 53.65625 15.1875 63.9375 
Q 23.390625 74.21875 37.203125 74.21875 
Q 40.921875 74.21875 44.703125 73.484375 
Q 48.484375 72.75 52.59375 71.296875 
z
" id="DejaVuSans-36"/>
      </defs>
      <g transform="translate(287.451509 317.076875)scale(0.2 -0.2)">
       <use xlink:href="#DejaVuSans-36"/>
      </g>
     </g>
    </g>
    <g id="xtick_5">
     <g id="line2d_13">
      <path clip-path="url(#pe1d8171a66)" d="M 373.045346 294.88 
L 373.045346 24.84 
" style="fill:none;stroke:#b0b0b0;stroke-linecap:square;stroke-width:0.8;"/>
     </g>
     <g id="line2d_14">
      <g>
       <use style="stroke:#000000;stroke-width:0.8;" x="373.045346" xlink:href="#m3635b1c4f9" y="294.88"/>
      </g>
     </g>
     <g id="text_5">
      <!-- 8 -->
      <defs>
       <path d="M 31.78125 34.625 
Q 24.75 34.625 20.71875 30.859375 
Q 16.703125 27.09375 16.703125 20.515625 
Q 16.703125 13.921875 20.71875 10.15625 
Q 24.75 6.390625 31.78125 6.390625 
Q 38.8125 6.390625 42.859375 10.171875 
Q 46.921875 13.96875 46.921875 20.515625 
Q 46.921875 27.09375 42.890625 30.859375 
Q 38.875 34.625 31.78125 34.625 
z
M 21.921875 38.8125 
Q 15.578125 40.375 12.03125 44.71875 
Q 8.5 49.078125 8.5 55.328125 
Q 8.5 64.0625 14.71875 69.140625 
Q 20.953125 74.21875 31.78125 74.21875 
Q 42.671875 74.21875 48.875 69.140625 
Q 55.078125 64.0625 55.078125 55.328125 
Q 55.078125 49.078125 51.53125 44.71875 
Q 48 40.375 41.703125 38.8125 
Q 48.828125 37.15625 52.796875 32.3125 
Q 56.78125 27.484375 56.78125 20.515625 
Q 56.78125 9.90625 50.3125 4.234375 
Q 43.84375 -1.421875 31.78125 -1.421875 
Q 19.734375 -1.421875 13.25 4.234375 
Q 6.78125 9.90625 6.78125 20.515625 
Q 6.78125 27.484375 10.78125 32.3125 
Q 14.796875 37.15625 21.921875 38.8125 
z
M 18.3125 54.390625 
Q 18.3125 48.734375 21.84375 45.5625 
Q 25.390625 42.390625 31.78125 42.390625 
Q 38.140625 42.390625 41.71875 45.5625 
Q 45.3125 48.734375 45.3125 54.390625 
Q 45.3125 60.0625 41.71875 63.234375 
Q 38.140625 66.40625 31.78125 66.40625 
Q 25.390625 66.40625 21.84375 63.234375 
Q 18.3125 60.0625 18.3125 54.390625 
z
" id="DejaVuSans-38"/>
      </defs>
      <g transform="translate(366.682846 317.076875)scale(0.2 -0.2)">
       <use xlink:href="#DejaVuSans-38"/>
      </g>
     </g>
    </g>
    <g id="text_6">
     <!-- log10(# f-evals / dimension) -->
     <defs>
      <path d="M 9.421875 75.984375 
L 18.40625 75.984375 
L 18.40625 0 
L 9.421875 0 
z
" id="DejaVuSans-6c"/>
      <path d="M 30.609375 48.390625 
Q 23.390625 48.390625 19.1875 42.75 
Q 14.984375 37.109375 14.984375 27.296875 
Q 14.984375 17.484375 19.15625 11.84375 
Q 23.34375 6.203125 30.609375 6.203125 
Q 37.796875 6.203125 41.984375 11.859375 
Q 46.1875 17.53125 46.1875 27.296875 
Q 46.1875 37.015625 41.984375 42.703125 
Q 37.796875 48.390625 30.609375 48.390625 
z
M 30.609375 56 
Q 42.328125 56 49.015625 48.375 
Q 55.71875 40.765625 55.71875 27.296875 
Q 55.71875 13.875 49.015625 6.21875 
Q 42.328125 -1.421875 30.609375 -1.421875 
Q 18.84375 -1.421875 12.171875 6.21875 
Q 5.515625 13.875 5.515625 27.296875 
Q 5.515625 40.765625 12.171875 48.375 
Q 18.84375 56 30.609375 56 
z
" id="DejaVuSans-6f"/>
      <path d="M 45.40625 27.984375 
Q 45.40625 37.75 41.375 43.109375 
Q 37.359375 48.484375 30.078125 48.484375 
Q 22.859375 48.484375 18.828125 43.109375 
Q 14.796875 37.75 14.796875 27.984375 
Q 14.796875 18.265625 18.828125 12.890625 
Q 22.859375 7.515625 30.078125 7.515625 
Q 37.359375 7.515625 41.375 12.890625 
Q 45.40625 18.265625 45.40625 27.984375 
z
M 54.390625 6.78125 
Q 54.390625 -7.171875 48.1875 -13.984375 
Q 42 -20.796875 29.203125 -20.796875 
Q 24.46875 -20.796875 20.265625 -20.09375 
Q 16.0625 -19.390625 12.109375 -17.921875 
L 12.109375 -9.1875 
Q 16.0625 -11.328125 19.921875 -12.34375 
Q 23.78125 -13.375 27.78125 -13.375 
Q 36.625 -13.375 41.015625 -8.765625 
Q 45.40625 -4.15625 45.40625 5.171875 
L 45.40625 9.625 
Q 42.625 4.78125 38.28125 2.390625 
Q 33.9375 0 27.875 0 
Q 17.828125 0 11.671875 7.65625 
Q 5.515625 15.328125 5.515625 27.984375 
Q 5.515625 40.671875 11.671875 48.328125 
Q 17.828125 56 27.875 56 
Q 33.9375 56 38.28125 53.609375 
Q 42.625 51.21875 45.40625 46.390625 
L 45.40625 54.6875 
L 54.390625 54.6875 
z
" id="DejaVuSans-67"/>
      <path d="M 12.40625 8.296875 
L 28.515625 8.296875 
L 28.515625 63.921875 
L 10.984375 60.40625 
L 10.984375 69.390625 
L 28.421875 72.90625 
L 38.28125 72.90625 
L 38.28125 8.296875 
L 54.390625 8.296875 
L 54.390625 0 
L 12.40625 0 
z
" id="DejaVuSans-31"/>
      <path d="M 31 75.875 
Q 24.46875 64.65625 21.28125 53.65625 
Q 18.109375 42.671875 18.109375 31.390625 
Q 18.109375 20.125 21.3125 9.0625 
Q 24.515625 -2 31 -13.1875 
L 23.1875 -13.1875 
Q 15.875 -1.703125 12.234375 9.375 
Q 8.59375 20.453125 8.59375 31.390625 
Q 8.59375 42.28125 12.203125 53.3125 
Q 15.828125 64.359375 23.1875 75.875 
z
" id="DejaVuSans-28"/>
      <path d="M 51.125 44 
L 36.921875 44 
L 32.8125 27.6875 
L 47.125 27.6875 
z
M 43.796875 71.78125 
L 38.71875 51.515625 
L 52.984375 51.515625 
L 58.109375 71.78125 
L 65.921875 71.78125 
L 60.890625 51.515625 
L 76.125 51.515625 
L 76.125 44 
L 58.984375 44 
L 54.984375 27.6875 
L 70.515625 27.6875 
L 70.515625 20.21875 
L 53.078125 20.21875 
L 48 0 
L 40.1875 0 
L 45.21875 20.21875 
L 30.90625 20.21875 
L 25.875 0 
L 18.015625 0 
L 23.09375 20.21875 
L 7.71875 20.21875 
L 7.71875 27.6875 
L 24.90625 27.6875 
L 29 44 
L 13.28125 44 
L 13.28125 51.515625 
L 30.90625 51.515625 
L 35.890625 71.78125 
z
" id="DejaVuSans-23"/>
      <path id="DejaVuSans-20"/>
      <path d="M 37.109375 75.984375 
L 37.109375 68.5 
L 28.515625 68.5 
Q 23.6875 68.5 21.796875 66.546875 
Q 19.921875 64.59375 19.921875 59.515625 
L 19.921875 54.6875 
L 34.71875 54.6875 
L 34.71875 47.703125 
L 19.921875 47.703125 
L 19.921875 0 
L 10.890625 0 
L 10.890625 47.703125 
L 2.296875 47.703125 
L 2.296875 54.6875 
L 10.890625 54.6875 
L 10.890625 58.5 
Q 10.890625 67.625 15.140625 71.796875 
Q 19.390625 75.984375 28.609375 75.984375 
z
" id="DejaVuSans-66"/>
      <path d="M 4.890625 31.390625 
L 31.203125 31.390625 
L 31.203125 23.390625 
L 4.890625 23.390625 
z
" id="DejaVuSans-2d"/>
      <path d="M 56.203125 29.59375 
L 56.203125 25.203125 
L 14.890625 25.203125 
Q 15.484375 15.921875 20.484375 11.0625 
Q 25.484375 6.203125 34.421875 6.203125 
Q 39.59375 6.203125 44.453125 7.46875 
Q 49.3125 8.734375 54.109375 11.28125 
L 54.109375 2.78125 
Q 49.265625 0.734375 44.1875 -0.34375 
Q 39.109375 -1.421875 33.890625 -1.421875 
Q 20.796875 -1.421875 13.15625 6.1875 
Q 5.515625 13.8125 5.515625 26.8125 
Q 5.515625 40.234375 12.765625 48.109375 
Q 20.015625 56 32.328125 56 
Q 43.359375 56 49.78125 48.890625 
Q 56.203125 41.796875 56.203125 29.59375 
z
M 47.21875 32.234375 
Q 47.125 39.59375 43.09375 43.984375 
Q 39.0625 48.390625 32.421875 48.390625 
Q 24.90625 48.390625 20.390625 44.140625 
Q 15.875 39.890625 15.1875 32.171875 
z
" id="DejaVuSans-65"/>
      <path d="M 2.984375 54.6875 
L 12.5 54.6875 
L 29.59375 8.796875 
L 46.6875 54.6875 
L 56.203125 54.6875 
L 35.6875 0 
L 23.484375 0 
z
" id="DejaVuSans-76"/>
      <path d="M 34.28125 27.484375 
Q 23.390625 27.484375 19.1875 25 
Q 14.984375 22.515625 14.984375 16.5 
Q 14.984375 11.71875 18.140625 8.90625 
Q 21.296875 6.109375 26.703125 6.109375 
Q 34.1875 6.109375 38.703125 11.40625 
Q 43.21875 16.703125 43.21875 25.484375 
L 43.21875 27.484375 
z
M 52.203125 31.203125 
L 52.203125 0 
L 43.21875 0 
L 43.21875 8.296875 
Q 40.140625 3.328125 35.546875 0.953125 
Q 30.953125 -1.421875 24.3125 -1.421875 
Q 15.921875 -1.421875 10.953125 3.296875 
Q 6 8.015625 6 15.921875 
Q 6 25.140625 12.171875 29.828125 
Q 18.359375 34.515625 30.609375 34.515625 
L 43.21875 34.515625 
L 43.21875 35.40625 
Q 43.21875 41.609375 39.140625 45 
Q 35.0625 48.390625 27.6875 48.390625 
Q 23 48.390625 18.546875 47.265625 
Q 14.109375 46.140625 10.015625 43.890625 
L 10.015625 52.203125 
Q 14.9375 54.109375 19.578125 55.046875 
Q 24.21875 56 28.609375 56 
Q 40.484375 56 46.34375 49.84375 
Q 52.203125 43.703125 52.203125 31.203125 
z
" id="DejaVuSans-61"/>
      <path d="M 44.28125 53.078125 
L 44.28125 44.578125 
Q 40.484375 46.53125 36.375 47.5 
Q 32.28125 48.484375 27.875 48.484375 
Q 21.1875 48.484375 17.84375 46.4375 
Q 14.5 44.390625 14.5 40.28125 
Q 14.5 37.15625 16.890625 35.375 
Q 19.28125 33.59375 26.515625 31.984375 
L 29.59375 31.296875 
Q 39.15625 29.25 43.1875 25.515625 
Q 47.21875 21.78125 47.21875 15.09375 
Q 47.21875 7.46875 41.1875 3.015625 
Q 35.15625 -1.421875 24.609375 -1.421875 
Q 20.21875 -1.421875 15.453125 -0.5625 
Q 10.6875 0.296875 5.421875 2 
L 5.421875 11.28125 
Q 10.40625 8.6875 15.234375 7.390625 
Q 20.0625 6.109375 24.8125 6.109375 
Q 31.15625 6.109375 34.5625 8.28125 
Q 37.984375 10.453125 37.984375 14.40625 
Q 37.984375 18.0625 35.515625 20.015625 
Q 33.0625 21.96875 24.703125 23.78125 
L 21.578125 24.515625 
Q 13.234375 26.265625 9.515625 29.90625 
Q 5.8125 33.546875 5.8125 39.890625 
Q 5.8125 47.609375 11.28125 51.796875 
Q 16.75 56 26.8125 56 
Q 31.78125 56 36.171875 55.265625 
Q 40.578125 54.546875 44.28125 53.078125 
z
" id="DejaVuSans-73"/>
      <path d="M 25.390625 72.90625 
L 33.6875 72.90625 
L 8.296875 -9.28125 
L 0 -9.28125 
z
" id="DejaVuSans-2f"/>
      <path d="M 45.40625 46.390625 
L 45.40625 75.984375 
L 54.390625 75.984375 
L 54.390625 0 
L 45.40625 0 
L 45.40625 8.203125 
Q 42.578125 3.328125 38.25 0.953125 
Q 33.9375 -1.421875 27.875 -1.421875 
Q 17.96875 -1.421875 11.734375 6.484375 
Q 5.515625 14.40625 5.515625 27.296875 
Q 5.515625 40.1875 11.734375 48.09375 
Q 17.96875 56 27.875 56 
Q 33.9375 56 38.25 53.625 
Q 42.578125 51.265625 45.40625 46.390625 
z
M 14.796875 27.296875 
Q 14.796875 17.390625 18.875 11.75 
Q 22.953125 6.109375 30.078125 6.109375 
Q 37.203125 6.109375 41.296875 11.75 
Q 45.40625 17.390625 45.40625 27.296875 
Q 45.40625 37.203125 41.296875 42.84375 
Q 37.203125 48.484375 30.078125 48.484375 
Q 22.953125 48.484375 18.875 42.84375 
Q 14.796875 37.203125 14.796875 27.296875 
z
" id="DejaVuSans-64"/>
      <path d="M 9.421875 54.6875 
L 18.40625 54.6875 
L 18.40625 0 
L 9.421875 0 
z
M 9.421875 75.984375 
L 18.40625 75.984375 
L 18.40625 64.59375 
L 9.421875 64.59375 
z
" id="DejaVuSans-69"/>
      <path d="M 52 44.1875 
Q 55.375 50.25 60.0625 53.125 
Q 64.75 56 71.09375 56 
Q 79.640625 56 84.28125 50.015625 
Q 88.921875 44.046875 88.921875 33.015625 
L 88.921875 0 
L 79.890625 0 
L 79.890625 32.71875 
Q 79.890625 40.578125 77.09375 44.375 
Q 74.3125 48.1875 68.609375 48.1875 
Q 61.625 48.1875 57.5625 43.546875 
Q 53.515625 38.921875 53.515625 30.90625 
L 53.515625 0 
L 44.484375 0 
L 44.484375 32.71875 
Q 44.484375 40.625 41.703125 44.40625 
Q 38.921875 48.1875 33.109375 48.1875 
Q 26.21875 48.1875 22.15625 43.53125 
Q 18.109375 38.875 18.109375 30.90625 
L 18.109375 0 
L 9.078125 0 
L 9.078125 54.6875 
L 18.109375 54.6875 
L 18.109375 46.1875 
Q 21.1875 51.21875 25.484375 53.609375 
Q 29.78125 56 35.6875 56 
Q 41.65625 56 45.828125 52.96875 
Q 50 49.953125 52 44.1875 
z
" id="DejaVuSans-6d"/>
      <path d="M 54.890625 33.015625 
L 54.890625 0 
L 45.90625 0 
L 45.90625 32.71875 
Q 45.90625 40.484375 42.875 44.328125 
Q 39.84375 48.1875 33.796875 48.1875 
Q 26.515625 48.1875 22.3125 43.546875 
Q 18.109375 38.921875 18.109375 30.90625 
L 18.109375 0 
L 9.078125 0 
L 9.078125 54.6875 
L 18.109375 54.6875 
L 18.109375 46.1875 
Q 21.34375 51.125 25.703125 53.5625 
Q 30.078125 56 35.796875 56 
Q 45.21875 56 50.046875 50.171875 
Q 54.890625 44.34375 54.890625 33.015625 
z
" id="DejaVuSans-6e"/>
      <path d="M 8.015625 75.875 
L 15.828125 75.875 
Q 23.140625 64.359375 26.78125 53.3125 
Q 30.421875 42.28125 30.421875 31.390625 
Q 30.421875 20.453125 26.78125 9.375 
Q 23.140625 -1.703125 15.828125 -13.1875 
L 8.015625 -13.1875 
Q 14.5 -2 17.703125 9.0625 
Q 20.90625 20.125 20.90625 31.390625 
Q 20.90625 42.671875 17.703125 53.65625 
Q 14.5 64.65625 8.015625 75.875 
z
" id="DejaVuSans-29"/>
     </defs>
     <g transform="translate(107.211219 338.153594)scale(0.17 -0.17)">
      <use xlink:href="#DejaVuSans-6c"/>
      <use x="27.783203" xlink:href="#DejaVuSans-6f"/>
      <use x="88.964844" xlink:href="#DejaVuSans-67"/>
      <use x="152.441406" xlink:href="#DejaVuSans-31"/>
      <use x="216.064453" xlink:href="#DejaVuSans-30"/>
      <use x="279.6875" xlink:href="#DejaVuSans-28"/>
      <use x="318.701172" xlink:href="#DejaVuSans-23"/>
      <use x="402.490234" xlink:href="#DejaVuSans-20"/>
      <use x="434.277344" xlink:href="#DejaVuSans-66"/>
      <use x="469.404297" xlink:href="#DejaVuSans-2d"/>
      <use x="505.488281" xlink:href="#DejaVuSans-65"/>
      <use x="567.011719" xlink:href="#DejaVuSans-76"/>
      <use x="626.191406" xlink:href="#DejaVuSans-61"/>
      <use x="687.470703" xlink:href="#DejaVuSans-6c"/>
      <use x="715.253906" xlink:href="#DejaVuSans-73"/>
      <use x="767.353516" xlink:href="#DejaVuSans-20"/>
      <use x="799.140625" xlink:href="#DejaVuSans-2f"/>
      <use x="832.832031" xlink:href="#DejaVuSans-20"/>
      <use x="864.619141" xlink:href="#DejaVuSans-64"/>
      <use x="928.095703" xlink:href="#DejaVuSans-69"/>
      <use x="955.878906" xlink:href="#DejaVuSans-6d"/>
      <use x="1053.291016" xlink:href="#DejaVuSans-65"/>
      <use x="1114.814453" xlink:href="#DejaVuSans-6e"/>
      <use x="1178.193359" xlink:href="#DejaVuSans-73"/>
      <use x="1230.292969" xlink:href="#DejaVuSans-69"/>
      <use x="1258.076172" xlink:href="#DejaVuSans-6f"/>
      <use x="1319.257812" xlink:href="#DejaVuSans-6e"/>
      <use x="1382.636719" xlink:href="#DejaVuSans-29"/>
     </g>
    </g>
   </g>
   <g id="matplotlib.axis_2">
    <g id="ytick_1">
     <g id="line2d_15">
      <path clip-path="url(#pe1d8171a66)" d="M 56.12 294.88 
L 399.984 294.88 
" style="fill:none;stroke:#b0b0b0;stroke-linecap:square;stroke-width:0.8;"/>
     </g>
     <g id="line2d_16">
      <defs>
       <path d="M 0 0 
L -3.5 0 
" id="m8424dff7db" style="stroke:#000000;stroke-width:0.8;"/>
      </defs>
      <g>
       <use style="stroke:#000000;stroke-width:0.8;" x="56.12" xlink:href="#m8424dff7db" y="294.88"/>
      </g>
     </g>
     <g id="text_7">
      <!-- 0.0 -->
      <defs>
       <path d="M 10.6875 12.40625 
L 21 12.40625 
L 21 0 
L 10.6875 0 
z
" id="DejaVuSans-2e"/>
      </defs>
      <g transform="translate(23.675 300.95875)scale(0.16 -0.16)">
       <use xlink:href="#DejaVuSans-30"/>
       <use x="63.623047" xlink:href="#DejaVuSans-2e"/>
       <use x="95.410156" xlink:href="#DejaVuSans-30"/>
      </g>
     </g>
    </g>
    <g id="ytick_2">
     <g id="line2d_17">
      <path clip-path="url(#pe1d8171a66)" d="M 56.12 241.406733 
L 399.984 241.406733 
" style="fill:none;stroke:#b0b0b0;stroke-linecap:square;stroke-width:0.8;"/>
     </g>
     <g id="line2d_18">
      <g>
       <use style="stroke:#000000;stroke-width:0.8;" x="56.12" xlink:href="#m8424dff7db" y="241.406733"/>
      </g>
     </g>
     <g id="text_8">
      <!-- 0.2 -->
      <g transform="translate(23.675 247.485483)scale(0.16 -0.16)">
       <use xlink:href="#DejaVuSans-30"/>
       <use x="63.623047" xlink:href="#DejaVuSans-2e"/>
       <use x="95.410156" xlink:href="#DejaVuSans-32"/>
      </g>
     </g>
    </g>
    <g id="ytick_3">
     <g id="line2d_19">
      <path clip-path="url(#pe1d8171a66)" d="M 56.12 187.933465 
L 399.984 187.933465 
" style="fill:none;stroke:#b0b0b0;stroke-linecap:square;stroke-width:0.8;"/>
     </g>
     <g id="line2d_20">
      <g>
       <use style="stroke:#000000;stroke-width:0.8;" x="56.12" xlink:href="#m8424dff7db" y="187.933465"/>
      </g>
     </g>
     <g id="text_9">
      <!-- 0.4 -->
      <g transform="translate(23.675 194.012215)scale(0.16 -0.16)">
       <use xlink:href="#DejaVuSans-30"/>
       <use x="63.623047" xlink:href="#DejaVuSans-2e"/>
       <use x="95.410156" xlink:href="#DejaVuSans-34"/>
      </g>
     </g>
    </g>
    <g id="ytick_4">
     <g id="line2d_21">
      <path clip-path="url(#pe1d8171a66)" d="M 56.12 134.460198 
L 399.984 134.460198 
" style="fill:none;stroke:#b0b0b0;stroke-linecap:square;stroke-width:0.8;"/>
     </g>
     <g id="line2d_22">
      <g>
       <use style="stroke:#000000;stroke-width:0.8;" x="56.12" xlink:href="#m8424dff7db" y="134.460198"/>
      </g>
     </g>
     <g id="text_10">
      <!-- 0.6 -->
      <g transform="translate(23.675 140.538948)scale(0.16 -0.16)">
       <use xlink:href="#DejaVuSans-30"/>
       <use x="63.623047" xlink:href="#DejaVuSans-2e"/>
       <use x="95.410156" xlink:href="#DejaVuSans-36"/>
      </g>
     </g>
    </g>
    <g id="ytick_5">
     <g id="line2d_23">
      <path clip-path="url(#pe1d8171a66)" d="M 56.12 80.986931 
L 399.984 80.986931 
" style="fill:none;stroke:#b0b0b0;stroke-linecap:square;stroke-width:0.8;"/>
     </g>
     <g id="line2d_24">
      <g>
       <use style="stroke:#000000;stroke-width:0.8;" x="56.12" xlink:href="#m8424dff7db" y="80.986931"/>
      </g>
     </g>
     <g id="text_11">
      <!-- 0.8 -->
      <g transform="translate(23.675 87.065681)scale(0.16 -0.16)">
       <use xlink:href="#DejaVuSans-30"/>
       <use x="63.623047" xlink:href="#DejaVuSans-2e"/>
       <use x="95.410156" xlink:href="#DejaVuSans-38"/>
      </g>
     </g>
    </g>
    <g id="ytick_6">
     <g id="line2d_25">
      <path clip-path="url(#pe1d8171a66)" d="M 56.12 27.513663 
L 399.984 27.513663 
" style="fill:none;stroke:#b0b0b0;stroke-linecap:square;stroke-width:0.8;"/>
     </g>
     <g id="line2d_26">
      <g>
       <use style="stroke:#000000;stroke-width:0.8;" x="56.12" xlink:href="#m8424dff7db" y="27.513663"/>
      </g>
     </g>
     <g id="text_12">
      <!-- 1.0 -->
      <g transform="translate(23.675 33.592413)scale(0.16 -0.16)">
       <use xlink:href="#DejaVuSans-31"/>
       <use x="63.623047" xlink:href="#DejaVuSans-2e"/>
       <use x="95.410156" xlink:href="#DejaVuSans-30"/>
      </g>
     </g>
    </g>
    <g id="text_13">
     <!-- Fraction of function,target pairs -->
     <defs>
      <path d="M 9.8125 72.90625 
L 51.703125 72.90625 
L 51.703125 64.59375 
L 19.671875 64.59375 
L 19.671875 43.109375 
L 48.578125 43.109375 
L 48.578125 34.8125 
L 19.671875 34.8125 
L 19.671875 0 
L 9.8125 0 
z
" id="DejaVuSans-46"/>
      <path d="M 41.109375 46.296875 
Q 39.59375 47.171875 37.8125 47.578125 
Q 36.03125 48 33.890625 48 
Q 26.265625 48 22.1875 43.046875 
Q 18.109375 38.09375 18.109375 28.8125 
L 18.109375 0 
L 9.078125 0 
L 9.078125 54.6875 
L 18.109375 54.6875 
L 18.109375 46.1875 
Q 20.953125 51.171875 25.484375 53.578125 
Q 30.03125 56 36.53125 56 
Q 37.453125 56 38.578125 55.875 
Q 39.703125 55.765625 41.0625 55.515625 
z
" id="DejaVuSans-72"/>
      <path d="M 48.78125 52.59375 
L 48.78125 44.1875 
Q 44.96875 46.296875 41.140625 47.34375 
Q 37.3125 48.390625 33.40625 48.390625 
Q 24.65625 48.390625 19.8125 42.84375 
Q 14.984375 37.3125 14.984375 27.296875 
Q 14.984375 17.28125 19.8125 11.734375 
Q 24.65625 6.203125 33.40625 6.203125 
Q 37.3125 6.203125 41.140625 7.25 
Q 44.96875 8.296875 48.78125 10.40625 
L 48.78125 2.09375 
Q 45.015625 0.34375 40.984375 -0.53125 
Q 36.96875 -1.421875 32.421875 -1.421875 
Q 20.0625 -1.421875 12.78125 6.34375 
Q 5.515625 14.109375 5.515625 27.296875 
Q 5.515625 40.671875 12.859375 48.328125 
Q 20.21875 56 33.015625 56 
Q 37.15625 56 41.109375 55.140625 
Q 45.0625 54.296875 48.78125 52.59375 
z
" id="DejaVuSans-63"/>
      <path d="M 18.3125 70.21875 
L 18.3125 54.6875 
L 36.8125 54.6875 
L 36.8125 47.703125 
L 18.3125 47.703125 
L 18.3125 18.015625 
Q 18.3125 11.328125 20.140625 9.421875 
Q 21.96875 7.515625 27.59375 7.515625 
L 36.8125 7.515625 
L 36.8125 0 
L 27.59375 0 
Q 17.1875 0 13.234375 3.875 
Q 9.28125 7.765625 9.28125 18.015625 
L 9.28125 47.703125 
L 2.6875 47.703125 
L 2.6875 54.6875 
L 9.28125 54.6875 
L 9.28125 70.21875 
z
" id="DejaVuSans-74"/>
      <path d="M 8.5 21.578125 
L 8.5 54.6875 
L 17.484375 54.6875 
L 17.484375 21.921875 
Q 17.484375 14.15625 20.5 10.265625 
Q 23.53125 6.390625 29.59375 6.390625 
Q 36.859375 6.390625 41.078125 11.03125 
Q 45.3125 15.671875 45.3125 23.6875 
L 45.3125 54.6875 
L 54.296875 54.6875 
L 54.296875 0 
L 45.3125 0 
L 45.3125 8.40625 
Q 42.046875 3.421875 37.71875 1 
Q 33.40625 -1.421875 27.6875 -1.421875 
Q 18.265625 -1.421875 13.375 4.4375 
Q 8.5 10.296875 8.5 21.578125 
z
M 31.109375 56 
z
" id="DejaVuSans-75"/>
      <path d="M 11.71875 12.40625 
L 22.015625 12.40625 
L 22.015625 4 
L 14.015625 -11.625 
L 7.71875 -11.625 
L 11.71875 4 
z
" id="DejaVuSans-2c"/>
      <path d="M 18.109375 8.203125 
L 18.109375 -20.796875 
L 9.078125 -20.796875 
L 9.078125 54.6875 
L 18.109375 54.6875 
L 18.109375 46.390625 
Q 20.953125 51.265625 25.265625 53.625 
Q 29.59375 56 35.59375 56 
Q 45.5625 56 51.78125 48.09375 
Q 58.015625 40.1875 58.015625 27.296875 
Q 58.015625 14.40625 51.78125 6.484375 
Q 45.5625 -1.421875 35.59375 -1.421875 
Q 29.59375 -1.421875 25.265625 0.953125 
Q 20.953125 3.328125 18.109375 8.203125 
z
M 48.6875 27.296875 
Q 48.6875 37.203125 44.609375 42.84375 
Q 40.53125 48.484375 33.40625 48.484375 
Q 26.265625 48.484375 22.1875 42.84375 
Q 18.109375 37.203125 18.109375 27.296875 
Q 18.109375 17.390625 22.1875 11.75 
Q 26.265625 6.109375 33.40625 6.109375 
Q 40.53125 6.109375 44.609375 11.75 
Q 48.6875 17.390625 48.6875 27.296875 
z
" id="DejaVuSans-70"/>
     </defs>
     <g transform="translate(16.139531 294.999375)rotate(-90)scale(0.17 -0.17)">
      <use xlink:href="#DejaVuSans-46"/>
      <use x="57.410156" xlink:href="#DejaVuSans-72"/>
      <use x="98.523438" xlink:href="#DejaVuSans-61"/>
      <use x="159.802734" xlink:href="#DejaVuSans-63"/>
      <use x="214.783203" xlink:href="#DejaVuSans-74"/>
      <use x="253.992188" xlink:href="#DejaVuSans-69"/>
      <use x="281.775391" xlink:href="#DejaVuSans-6f"/>
      <use x="342.957031" xlink:href="#DejaVuSans-6e"/>
      <use x="406.335938" xlink:href="#DejaVuSans-20"/>
      <use x="438.123047" xlink:href="#DejaVuSans-6f"/>
      <use x="499.304688" xlink:href="#DejaVuSans-66"/>
      <use x="534.509766" xlink:href="#DejaVuSans-20"/>
      <use x="566.296875" xlink:href="#DejaVuSans-66"/>
      <use x="601.501953" xlink:href="#DejaVuSans-75"/>
      <use x="664.880859" xlink:href="#DejaVuSans-6e"/>
      <use x="728.259766" xlink:href="#DejaVuSans-63"/>
      <use x="783.240234" xlink:href="#DejaVuSans-74"/>
      <use x="822.449219" xlink:href="#DejaVuSans-69"/>
      <use x="850.232422" xlink:href="#DejaVuSans-6f"/>
      <use x="911.414062" xlink:href="#DejaVuSans-6e"/>
      <use x="974.792969" xlink:href="#DejaVuSans-2c"/>
      <use x="1006.580078" xlink:href="#DejaVuSans-74"/>
      <use x="1045.789062" xlink:href="#DejaVuSans-61"/>
      <use x="1107.068359" xlink:href="#DejaVuSans-72"/>
      <use x="1148.166016" xlink:href="#DejaVuSans-67"/>
      <use x="1211.642578" xlink:href="#DejaVuSans-65"/>
      <use x="1273.166016" xlink:href="#DejaVuSans-74"/>
      <use x="1312.375" xlink:href="#DejaVuSans-20"/>
      <use x="1344.162109" xlink:href="#DejaVuSans-70"/>
      <use x="1407.638672" xlink:href="#DejaVuSans-61"/>
      <use x="1468.917969" xlink:href="#DejaVuSans-69"/>
      <use x="1496.701172" xlink:href="#DejaVuSans-72"/>
      <use x="1537.814453" xlink:href="#DejaVuSans-73"/>
     </g>
    </g>
   </g>
   <g id="line2d_27">
    <defs>
     <path d="M 0 1.5 
C 0.397805 1.5 0.77937 1.341951 1.06066 1.06066 
C 1.341951 0.77937 1.5 0.397805 1.5 0 
C 1.5 -0.397805 1.341951 -0.77937 1.06066 -1.06066 
C 0.77937 -1.341951 0.397805 -1.5 0 -1.5 
C -0.397805 -1.5 -0.77937 -1.341951 -1.06066 -1.06066 
C -1.341951 -0.77937 -1.5 -0.397805 -1.5 0 
C -1.5 0.397805 -1.341951 0.77937 -1.06066 1.06066 
C -0.77937 1.341951 -0.397805 1.5 0 1.5 
z
" id="m0a433c69c9" style="stroke:#f5deb3;"/>
    </defs>
    <g>
     <use style="fill:#f5deb3;stroke:#f5deb3;" x="193.148214" xlink:href="#m0a433c69c9" y="27.513663"/>
     <use style="fill:#f5deb3;stroke:#f5deb3;" x="193.148214" xlink:href="#m0a433c69c9" y="27.513663"/>
    </g>
   </g>
   <g id="line2d_28">
    <defs>
     <path d="M 0 1.5 
C 0.397805 1.5 0.77937 1.341951 1.06066 1.06066 
C 1.341951 0.77937 1.5 0.397805 1.5 0 
C 1.5 -0.397805 1.341951 -0.77937 1.06066 -1.06066 
C 0.77937 -1.341951 0.397805 -1.5 0 -1.5 
C -0.397805 -1.5 -0.77937 -1.341951 -1.06066 -1.06066 
C -1.341951 -0.77937 -1.5 -0.397805 -1.5 0 
C -1.5 0.397805 -1.341951 0.77937 -1.06066 1.06066 
C -0.77937 1.341951 -0.397805 1.5 0 1.5 
z
" id="m6e93d5d622" style="stroke:#000080;"/>
    </defs>
    <g>
     <use style="fill:#000080;stroke:#000080;" x="269.301119" xlink:href="#m6e93d5d622" y="27.513663"/>
     <use style="fill:#000080;stroke:#000080;" x="269.301119" xlink:href="#m6e93d5d622" y="27.513663"/>
    </g>
   </g>
   <g id="line2d_29">
    <path d="M 155.897825 294.88 
L 155.897825 293.831505 
L 156.958943 293.831505 
L 156.958943 293.307257 
L 159.559906 293.307257 
L 159.559906 292.783009 
L 160.688967 292.783009 
L 160.736244 290.161771 
L 161.689019 290.161771 
L 161.689019 289.637523 
L 163.991991 289.637523 
L 163.991991 288.589027 
L 164.124973 288.589027 
L 164.124973 287.540532 
L 167.153754 287.540532 
L 167.153754 287.016284 
L 168.482875 287.016284 
L 168.482875 286.492036 
L 169.37239 286.492036 
L 169.39619 285.443541 
L 170.181852 285.443541 
L 170.181852 284.395046 
L 172.859294 284.395046 
L 172.952388 280.201064 
L 173.584718 280.201064 
L 173.584718 279.676816 
L 175.553889 279.676816 
L 175.553889 279.152568 
L 175.6831 279.152568 
L 175.6831 278.628321 
L 176.807396 278.628321 
L 176.807396 278.104073 
L 177.188094 278.104073 
L 177.188094 277.055578 
L 178.517462 277.055578 
L 178.517462 276.53133 
L 179.892863 276.53133 
L 179.892863 276.007082 
L 180.21544 276.007082 
L 180.21544 274.958587 
L 180.588014 274.958587 
L 180.588014 274.434339 
L 182.793326 274.434339 
L 182.793326 273.910091 
L 182.968195 273.910091 
L 182.968195 273.385844 
L 183.198977 273.385844 
L 183.198977 272.861596 
L 184.175152 272.861596 
L 184.175152 272.337348 
L 185.726989 272.337348 
L 185.726989 271.8131 
L 186.076893 271.8131 
L 186.076893 270.764605 
L 186.944904 270.764605 
L 186.944904 269.716109 
L 187.444439 269.716109 
L 187.444439 269.191862 
L 187.971135 269.191862 
L 187.971135 268.143366 
L 188.290531 268.143366 
L 188.290531 267.619119 
L 188.51666 267.619119 
L 188.51666 267.094871 
L 188.935001 267.094871 
L 188.935001 266.570623 
L 190.201941 266.570623 
L 190.201941 266.046375 
L 190.386186 266.046375 
L 190.386186 264.99788 
L 190.784574 264.99788 
L 190.784574 263.949385 
L 192.841709 263.949385 
L 192.841709 263.425137 
L 193.445828 263.425137 
L 193.445828 262.900889 
L 194.338018 262.900889 
L 194.338018 262.376641 
L 197.412873 262.376641 
L 197.412873 261.852394 
L 197.598095 261.852394 
L 197.613787 260.803898 
L 200.955735 260.803898 
L 200.955735 260.279651 
L 204.038527 260.279651 
L 204.038527 259.755403 
L 205.318647 259.755403 
L 205.318647 259.231155 
L 206.073011 259.231155 
L 206.073011 258.706907 
L 206.675964 258.706907 
L 206.675964 258.18266 
L 214.932312 258.18266 
L 214.932312 257.134164 
L 215.103584 257.134164 
L 215.103584 256.609917 
L 215.737724 256.609917 
L 215.737724 255.037173 
L 216.77016 255.037173 
L 216.77016 254.512926 
L 217.494506 254.512926 
L 217.494506 253.46443 
L 218.128511 253.46443 
L 218.128511 252.415935 
L 218.312748 252.415935 
L 218.312748 251.891687 
L 222.130891 251.891687 
L 222.130891 251.367439 
L 223.460559 251.367439 
L 223.460559 250.843192 
L 223.953155 250.843192 
L 223.953155 250.318944 
L 224.295619 250.318944 
L 224.295619 249.794696 
L 224.614602 249.794696 
L 224.614602 248.746201 
L 227.355633 248.746201 
L 227.355633 248.221953 
L 228.618755 248.221953 
L 228.618755 247.697705 
L 228.755331 247.697705 
L 228.813737 246.124962 
L 228.909621 246.124962 
L 228.987255 245.076467 
L 229.347081 245.076467 
L 229.347081 244.027971 
L 229.611341 244.027971 
L 229.611341 242.979476 
L 229.878819 242.979476 
L 229.878819 242.455228 
L 230.153968 242.455228 
L 230.153968 241.93098 
L 230.302196 241.93098 
L 230.397154 234.591512 
L 230.542834 234.591512 
L 230.60898 233.543017 
L 230.78022 233.543017 
L 230.887462 231.970274 
L 230.993376 231.970274 
L 230.993376 231.446026 
L 231.20975 231.446026 
L 231.20975 230.397531 
L 231.334577 230.397531 
L 231.334577 229.873283 
L 231.804039 229.873283 
L 231.804039 229.349035 
L 231.960584 229.349035 
L 231.960584 228.30054 
L 232.361718 228.30054 
L 232.361718 227.776292 
L 232.728144 227.776292 
L 232.728144 227.252044 
L 232.861202 227.252044 
L 232.949872 225.679301 
L 234.027136 225.679301 
L 234.027136 225.155053 
L 234.725963 225.155053 
L 234.725963 224.630806 
L 235.298292 224.630806 
L 235.393969 222.009567 
L 235.543339 222.009567 
L 235.543339 221.485319 
L 235.673506 221.485319 
L 235.70534 219.912576 
L 235.882102 219.912576 
L 235.882102 218.339833 
L 236.368507 218.339833 
L 236.368507 217.815585 
L 236.687937 217.815585 
L 236.687937 216.76709 
L 237.314448 216.76709 
L 237.332616 215.718594 
L 237.449378 215.718594 
L 237.486275 214.670099 
L 237.847221 214.670099 
L 237.847221 214.145851 
L 237.964753 214.145851 
L 237.964753 213.621604 
L 238.227846 213.621604 
L 238.227846 213.097356 
L 238.537115 213.097356 
L 238.642396 212.04886 
L 239.014995 212.04886 
L 239.014995 211.524613 
L 239.583262 211.524613 
L 239.583262 211.000365 
L 239.872975 211.000365 
L 239.974503 209.95187 
L 240.025318 209.95187 
L 240.07438 206.806383 
L 240.248701 206.806383 
L 240.322393 205.757888 
L 240.396424 205.757888 
L 240.396424 204.709392 
L 240.561371 204.709392 
L 240.561371 204.185145 
L 240.697586 204.185145 
L 240.804722 202.612401 
L 240.884695 202.612401 
L 240.884695 202.088154 
L 241.020752 202.088154 
L 241.020752 201.039658 
L 241.430356 201.039658 
L 241.431801 199.466915 
L 241.626968 199.466915 
L 241.626968 197.894172 
L 241.865458 197.894172 
L 241.876623 196.321429 
L 241.977734 196.321429 
L 242.051088 193.70019 
L 242.39801 193.70019 
L 242.491967 191.078952 
L 242.604326 191.078952 
L 242.710019 187.409218 
L 242.717834 187.409218 
L 242.828665 185.312227 
L 242.942859 185.312227 
L 242.943818 183.739484 
L 243.320473 183.739484 
L 243.320473 182.690988 
L 243.444257 182.690988 
L 243.548284 181.642493 
L 243.570317 181.642493 
L 243.631889 177.972759 
L 243.683512 177.972759 
L 243.794077 172.206034 
L 243.858464 172.206034 
L 243.878536 169.060547 
L 243.987268 169.060547 
L 244.023515 165.390813 
L 244.117896 165.390813 
L 244.185673 163.81807 
L 244.303835 163.81807 
L 244.391098 162.245327 
L 244.415723 162.245327 
L 244.526496 157.00285 
L 244.561415 157.00285 
L 244.60525 154.905859 
L 244.681401 154.905859 
L 244.776387 151.236125 
L 244.808368 151.236125 
L 244.917328 148.090639 
L 244.931839 148.090639 
L 245.039642 145.993648 
L 245.06637 145.993648 
L 245.06637 145.4694 
L 245.223092 145.4694 
L 245.226918 143.896657 
L 245.336061 143.896657 
L 245.44609 141.275418 
L 245.466023 141.275418 
L 245.565312 136.032941 
L 245.60743 136.032941 
L 245.71008 130.790464 
L 245.737391 130.790464 
L 245.839802 129.217721 
L 245.868025 129.217721 
L 245.959252 127.644978 
L 245.98312 127.644978 
L 245.98312 127.12073 
L 246.188925 127.12073 
L 246.23217 123.975244 
L 246.437033 123.975244 
L 246.535025 121.354005 
L 246.664082 121.354005 
L 246.747401 119.257014 
L 246.80802 119.257014 
L 246.899668 116.635776 
L 247.004898 116.635776 
L 247.004898 116.111528 
L 247.149575 116.111528 
L 247.249685 115.063032 
L 247.466172 115.063032 
L 247.576171 110.344803 
L 247.660054 110.344803 
L 247.660054 109.296308 
L 247.896551 109.296308 
L 247.896551 108.247812 
L 248.37433 108.247812 
L 248.37433 106.150821 
L 248.692143 106.150821 
L 248.692143 105.102326 
L 248.835369 105.102326 
L 248.835369 104.05383 
L 249.169669 104.05383 
L 249.265135 103.005335 
L 249.336628 103.005335 
L 249.41103 101.956839 
L 249.501689 101.956839 
L 249.504198 100.908344 
L 249.811666 100.908344 
L 249.811666 99.859849 
L 250.425983 99.859849 
L 250.425983 99.335601 
L 250.668908 99.335601 
L 250.708088 97.762858 
L 250.843211 97.762858 
L 250.857716 96.190115 
L 250.989601 96.190115 
L 251.062321 94.617371 
L 251.326194 94.617371 
L 251.332922 93.044628 
L 251.568809 93.044628 
L 251.568809 92.520381 
L 251.736634 92.520381 
L 251.768189 89.374894 
L 251.932128 89.374894 
L 252.019521 85.180912 
L 252.521752 85.180912 
L 252.597108 84.132417 
L 252.757113 84.132417 
L 252.828113 82.559674 
L 252.963789 82.559674 
L 253.036742 80.986931 
L 253.241379 80.986931 
L 253.348776 79.414188 
L 253.592189 79.414188 
L 253.613616 77.841444 
L 253.824666 77.841444 
L 253.925295 74.695958 
L 254.188824 74.695958 
L 254.188824 74.17171 
L 254.501657 74.17171 
L 254.501657 73.647463 
L 254.777292 73.647463 
L 254.872483 71.550472 
L 254.930536 71.550472 
L 254.957061 69.977729 
L 255.129252 69.977729 
L 255.16582 68.404985 
L 255.336186 68.404985 
L 255.428727 67.35649 
L 255.457278 67.35649 
L 255.564244 64.211004 
L 255.576174 64.211004 
L 255.576174 63.686756 
L 256.226541 63.686756 
L 256.226541 63.162508 
L 256.376736 63.162508 
L 256.418825 61.065517 
L 256.53912 61.065517 
L 256.630238 57.920031 
L 256.683689 57.920031 
L 256.762815 56.871536 
L 256.803661 56.871536 
L 256.822741 55.298792 
L 256.944831 55.298792 
L 257.019759 50.056315 
L 257.108024 50.056315 
L 257.203744 48.483572 
L 257.278706 48.483572 
L 257.278706 47.959324 
L 257.443452 47.959324 
L 257.485772 46.910829 
L 257.626241 46.910829 
L 257.731966 44.28959 
L 257.774282 44.28959 
L 257.774282 43.765343 
L 257.996058 43.765343 
L 258.024746 42.192599 
L 258.173577 42.192599 
L 258.173577 41.668352 
L 258.349364 41.668352 
L 258.349364 40.619856 
L 258.555429 40.619856 
L 258.620589 39.047113 
L 258.754647 39.047113 
L 258.754647 37.998618 
L 259.275911 37.998618 
L 259.275911 36.425875 
L 259.763366 36.425875 
L 259.763366 35.377379 
L 260.152008 35.377379 
L 260.152008 34.853131 
L 260.371886 34.853131 
L 260.371886 33.804636 
L 260.628366 33.804636 
L 260.628366 33.280388 
L 260.849747 33.280388 
L 260.916067 30.65915 
L 261.008291 30.65915 
L 261.008291 30.134902 
L 261.540309 30.134902 
L 261.540309 29.086407 
L 267.532436 29.086407 
L 267.532436 28.562159 
L 269.301119 28.562159 
L 269.301119 27.513663 
L 333.429677 27.513663 
L 333.429677 27.513663 
" style="fill:none;stroke:#000080;stroke-linecap:square;stroke-width:1.5;"/>
   </g>
   <g id="line2d_30">
    <defs>
     <path d="M 0 6 
C 1.591219 6 3.117479 5.367802 4.242641 4.242641 
C 5.367802 3.117479 6 1.591219 6 0 
C 6 -1.591219 5.367802 -3.117479 4.242641 -4.242641 
C 3.117479 -5.367802 1.591219 -6 0 -6 
C -1.591219 -6 -3.117479 -5.367802 -4.242641 -4.242641 
C -5.367802 -3.117479 -6 -1.591219 -6 0 
C -6 1.591219 -5.367802 3.117479 -4.242641 4.242641 
C -3.117479 5.367802 -1.591219 6 0 6 
z
" id="m6379ae10e4" style="stroke:#000080;stroke-width:1.5;"/>
    </defs>
    <g>
     <use style="fill-opacity:0;stroke:#000080;stroke-width:1.5;" x="243.570317" xlink:href="#m6379ae10e4" y="181.642493"/>
     <use style="fill-opacity:0;stroke:#000080;stroke-width:1.5;" x="269.301119" xlink:href="#m6379ae10e4" y="28.562159"/>
     <use style="fill-opacity:0;stroke:#000080;stroke-width:1.5;" x="269.301119" xlink:href="#m6379ae10e4" y="27.513663"/>
     <use style="fill-opacity:0;stroke:#000080;stroke-width:1.5;" x="333.429677" xlink:href="#m6379ae10e4" y="27.513663"/>
    </g>
   </g>
   <g id="line2d_31">
    <path style="fill:none;stroke:#000080;stroke-linecap:square;stroke-width:1.5;"/>
    <g/>
   </g>
   <g id="line2d_32">
    <defs>
     <path d="M 0 1.5 
C 0.397805 1.5 0.77937 1.341951 1.06066 1.06066 
C 1.341951 0.77937 1.5 0.397805 1.5 0 
C 1.5 -0.397805 1.341951 -0.77937 1.06066 -1.06066 
C 0.77937 -1.341951 0.397805 -1.5 0 -1.5 
C -0.397805 -1.5 -0.77937 -1.341951 -1.06066 -1.06066 
C -1.341951 -0.77937 -1.5 -0.397805 -1.5 0 
C -1.5 0.397805 -1.341951 0.77937 -1.06066 1.06066 
C -0.77937 1.341951 -0.397805 1.5 0 1.5 
z
" id="m5da96f3ab0" style="stroke:#ff00ff;"/>
    </defs>
    <g>
     <use style="fill:#ff00ff;stroke:#ff00ff;" x="243.16341" xlink:href="#m5da96f3ab0" y="27.513663"/>
     <use style="fill:#ff00ff;stroke:#ff00ff;" x="243.16341" xlink:href="#m5da96f3ab0" y="27.513663"/>
    </g>
   </g>
   <g id="line2d_33">
    <path d="M 121.765375 294.88 
L 121.765375 294.355752 
L 122.759301 294.355752 
L 122.759301 292.783009 
L 125.252304 292.783009 
L 125.252304 292.258761 
L 128.741348 292.258761 
L 128.741348 291.734514 
L 129.017032 291.734514 
L 129.017032 291.210266 
L 129.458837 291.210266 
L 129.458837 290.686018 
L 129.675556 290.686018 
L 129.699468 289.637523 
L 132.474065 289.637523 
L 132.474065 289.113275 
L 132.876066 289.113275 
L 132.876066 288.06478 
L 133.481177 288.06478 
L 133.481177 287.016284 
L 134.268466 287.016284 
L 134.286778 285.443541 
L 134.59515 285.443541 
L 134.59515 284.919293 
L 135.265096 284.919293 
L 135.282379 283.34655 
L 135.607493 283.34655 
L 135.607493 282.298055 
L 135.72574 282.298055 
L 135.72574 281.773807 
L 136.754909 281.773807 
L 136.754909 281.249559 
L 136.8813 281.249559 
L 136.8813 280.725312 
L 137.514869 280.725312 
L 137.514869 280.201064 
L 138.257213 280.201064 
L 138.257213 279.676816 
L 138.73018 279.676816 
L 138.73018 279.152568 
L 139.409316 279.152568 
L 139.436475 277.579825 
L 140.257802 277.579825 
L 140.322361 276.007082 
L 141.672697 276.007082 
L 141.732168 274.434339 
L 142.464401 274.434339 
L 142.464401 273.910091 
L 142.679252 273.910091 
L 142.679252 272.337348 
L 143.046155 272.337348 
L 143.046155 271.288853 
L 143.715018 271.288853 
L 143.715018 269.716109 
L 143.831018 269.716109 
L 143.831018 269.191862 
L 144.721918 269.191862 
L 144.721918 268.143366 
L 146.321752 268.143366 
L 146.321752 267.619119 
L 146.61925 267.619119 
L 146.61925 266.570623 
L 146.902902 266.570623 
L 146.902902 265.522128 
L 147.396855 265.522128 
L 147.396855 264.99788 
L 147.558405 264.99788 
L 147.558405 264.473632 
L 148.585007 264.473632 
L 148.585007 263.949385 
L 148.893163 263.949385 
L 148.893163 263.425137 
L 149.226646 263.425137 
L 149.303282 262.376641 
L 149.54625 262.376641 
L 149.54625 261.852394 
L 149.793268 261.852394 
L 149.793268 261.328146 
L 150.556439 261.328146 
L 150.556439 260.803898 
L 150.838492 260.803898 
L 150.838492 260.279651 
L 152.318601 260.279651 
L 152.318601 259.231155 
L 153.127137 259.231155 
L 153.127137 258.706907 
L 154.160809 258.706907 
L 154.160809 257.658412 
L 154.361434 257.658412 
L 154.361434 257.134164 
L 154.649649 257.134164 
L 154.649649 256.609917 
L 156.612458 256.609917 
L 156.612458 256.085669 
L 156.811303 256.085669 
L 156.811303 255.561421 
L 157.842417 255.561421 
L 157.842417 255.037173 
L 158.133211 255.037173 
L 158.133211 254.512926 
L 158.718161 254.512926 
L 158.740266 253.46443 
L 158.911723 253.46443 
L 158.911723 247.697705 
L 159.206646 247.697705 
L 159.206646 246.64921 
L 159.433057 246.64921 
L 159.433057 246.124962 
L 159.744276 246.124962 
L 159.744276 245.600714 
L 160.281779 245.600714 
L 160.281779 245.076467 
L 160.997845 245.076467 
L 160.997845 244.027971 
L 161.411333 244.027971 
L 161.411333 242.979476 
L 161.54323 242.979476 
L 161.54323 241.93098 
L 162.09732 241.93098 
L 162.09732 241.406733 
L 162.574118 241.406733 
L 162.574118 240.358237 
L 163.202471 240.358237 
L 163.202471 239.83399 
L 163.755945 239.83399 
L 163.755945 239.309742 
L 164.008264 239.309742 
L 164.008264 238.785494 
L 164.352856 238.785494 
L 164.352856 238.261246 
L 164.656256 238.261246 
L 164.743749 237.212751 
L 164.79976 237.212751 
L 164.79976 236.688503 
L 165.055703 236.688503 
L 165.055703 235.640008 
L 165.289786 235.640008 
L 165.289786 235.11576 
L 165.698557 235.11576 
L 165.698557 233.543017 
L 165.859968 233.543017 
L 165.880403 231.446026 
L 166.759104 231.446026 
L 166.767419 229.873283 
L 167.159172 229.873283 
L 167.251018 228.824787 
L 167.739735 228.824787 
L 167.739735 226.203549 
L 168.492904 226.203549 
L 168.492904 225.679301 
L 169.025972 225.679301 
L 169.025972 225.155053 
L 169.716641 225.155053 
L 169.716641 224.630806 
L 170.035815 224.630806 
L 170.035815 224.106558 
L 171.226494 224.106558 
L 171.226494 223.058063 
L 171.915997 223.058063 
L 171.915997 222.533815 
L 173.26861 222.533815 
L 173.26861 222.009567 
L 173.84745 222.009567 
L 173.84745 221.485319 
L 174.717453 221.485319 
L 174.717453 220.961072 
L 176.303849 220.961072 
L 176.303849 220.436824 
L 177.12295 220.436824 
L 177.12295 219.388328 
L 177.382059 219.388328 
L 177.382059 218.339833 
L 177.668233 218.339833 
L 177.668233 217.291338 
L 189.989135 217.291338 
L 190.062271 216.242842 
L 191.338822 216.242842 
L 191.338822 215.718594 
L 191.454689 215.718594 
L 191.540916 214.145851 
L 191.826764 214.145851 
L 191.845481 211.524613 
L 192.011744 211.524613 
L 192.116833 209.427622 
L 192.153621 209.427622 
L 192.243358 207.330631 
L 192.350178 207.330631 
L 192.422065 206.282136 
L 192.467541 206.282136 
L 192.558755 199.466915 
L 192.583491 199.466915 
L 192.672249 194.748686 
L 192.797822 194.748686 
L 192.838056 193.175943 
L 192.91703 193.175943 
L 192.977534 190.554704 
L 193.062485 190.554704 
L 193.062485 190.030456 
L 193.188831 190.030456 
L 193.28165 187.409218 
L 193.380463 187.409218 
L 193.478711 185.836474 
L 193.744736 185.836474 
L 193.854139 182.16674 
L 193.948585 182.16674 
L 193.988496 180.593997 
L 194.306738 180.593997 
L 194.306738 178.497006 
L 194.434291 178.497006 
L 194.520093 175.875768 
L 194.571369 175.875768 
L 194.571369 174.827272 
L 194.696983 174.827272 
L 194.799426 173.254529 
L 194.842292 173.254529 
L 194.842292 172.206034 
L 195.020744 172.206034 
L 195.12768 170.633291 
L 195.259364 170.633291 
L 195.259364 170.109043 
L 201.931158 170.109043 
L 201.931158 169.584795 
L 207.815329 169.584795 
L 207.881238 166.963557 
L 208.407743 166.963557 
L 208.407743 166.439309 
L 216.504497 166.439309 
L 216.571298 163.293823 
L 216.625012 163.293823 
L 216.728597 162.245327 
L 216.750453 162.245327 
L 216.786213 160.148336 
L 216.946817 160.148336 
L 216.970644 158.575593 
L 217.066219 158.575593 
L 217.147488 156.478602 
L 217.267718 156.478602 
L 217.329133 154.905859 
L 217.439655 154.905859 
L 217.439655 154.381611 
L 217.599211 154.381611 
L 217.599211 153.857364 
L 217.851034 153.857364 
L 217.887136 152.28462 
L 218.469248 152.28462 
L 218.469248 151.760373 
L 219.18677 151.760373 
L 219.257979 143.896657 
L 219.411217 143.896657 
L 219.510469 142.848162 
L 219.529322 142.848162 
L 219.628668 141.275418 
L 219.680429 141.275418 
L 219.680429 140.226923 
L 219.8009 140.226923 
L 219.886437 138.65418 
L 220.001712 138.65418 
L 220.111105 137.605684 
L 222.322425 137.605684 
L 222.420344 135.508693 
L 222.434957 135.508693 
L 222.525734 132.887455 
L 222.567429 132.887455 
L 222.662784 131.314712 
L 222.685144 131.314712 
L 222.685144 130.790464 
L 222.922106 130.790464 
L 223.024582 128.693473 
L 223.041742 128.693473 
L 223.041742 128.169225 
L 223.15679 128.169225 
L 223.2047 126.072235 
L 226.762893 126.072235 
L 226.857648 122.4025 
L 226.949704 122.4025 
L 227.060774 114.538785 
L 227.140562 114.538785 
L 227.180317 112.966042 
L 227.322189 112.966042 
L 227.382226 110.344803 
L 227.446128 110.344803 
L 227.446128 109.820555 
L 230.596775 109.820555 
L 230.64649 101.432592 
L 230.726314 101.432592 
L 230.815015 95.665867 
L 230.8621 95.665867 
L 230.955819 91.471885 
L 231.096337 91.471885 
L 231.193903 84.656665 
L 231.209489 84.656665 
L 231.29385 81.511178 
L 231.329443 81.511178 
L 231.434553 78.365692 
L 233.210201 78.365692 
L 233.306369 74.17171 
L 233.359827 74.17171 
L 233.434586 71.026224 
L 233.483691 71.026224 
L 233.483691 70.501976 
L 236.261968 70.501976 
L 236.325679 61.065517 
L 236.383196 61.065517 
L 236.459635 57.395783 
L 240.880778 57.395783 
L 240.970089 49.532068 
L 241.002313 49.532068 
L 241.106396 41.144104 
L 241.122186 41.144104 
L 241.122186 40.619856 
L 242.980876 40.619856 
L 243.074274 28.562159 
L 243.125761 28.562159 
L 243.16341 27.513663 
L 333.429677 27.513663 
L 333.429677 27.513663 
" style="fill:none;stroke:#ff00ff;stroke-linecap:square;stroke-width:1.5;"/>
   </g>
   <g id="line2d_34">
    <defs>
     <path d="M -0 8.485281 
L 5.091169 0 
L 0 -8.485281 
L -5.091169 -0 
z
" id="m72d5d271a7" style="stroke:#ff00ff;stroke-linejoin:miter;stroke-width:1.5;"/>
    </defs>
    <g>
     <use style="fill-opacity:0;stroke:#ff00ff;stroke-linejoin:miter;stroke-width:1.5;" x="177.668233" xlink:href="#m72d5d271a7" y="218.339833"/>
     <use style="fill-opacity:0;stroke:#ff00ff;stroke-linejoin:miter;stroke-width:1.5;" x="230.955819" xlink:href="#m72d5d271a7" y="91.471885"/>
     <use style="fill-opacity:0;stroke:#ff00ff;stroke-linejoin:miter;stroke-width:1.5;" x="243.16341" xlink:href="#m72d5d271a7" y="27.513663"/>
     <use style="fill-opacity:0;stroke:#ff00ff;stroke-linejoin:miter;stroke-width:1.5;" x="243.16341" xlink:href="#m72d5d271a7" y="27.513663"/>
     <use style="fill-opacity:0;stroke:#ff00ff;stroke-linejoin:miter;stroke-width:1.5;" x="333.429677" xlink:href="#m72d5d271a7" y="27.513663"/>
    </g>
   </g>
   <g id="line2d_35">
    <path style="fill:none;stroke:#ff00ff;stroke-linecap:square;stroke-width:1.5;"/>
    <g/>
   </g>
   <g id="line2d_36">
    <defs>
     <path d="M 0 1.5 
C 0.397805 1.5 0.77937 1.341951 1.06066 1.06066 
C 1.341951 0.77937 1.5 0.397805 1.5 0 
C 1.5 -0.397805 1.341951 -0.77937 1.06066 -1.06066 
C 0.77937 -1.341951 0.397805 -1.5 0 -1.5 
C -0.397805 -1.5 -0.77937 -1.341951 -1.06066 -1.06066 
C -1.341951 -0.77937 -1.5 -0.397805 -1.5 0 
C -1.5 0.397805 -1.341951 0.77937 -1.06066 1.06066 
C -0.77937 1.341951 -0.397805 1.5 0 1.5 
z
" id="mc82fd233bc" style="stroke:#ffa500;"/>
    </defs>
    <g>
     <use style="fill:#ffa500;stroke:#ffa500;" x="323.226675" xlink:href="#mc82fd233bc" y="137.605684"/>
     <use style="fill:#ffa500;stroke:#ffa500;" x="323.226675" xlink:href="#mc82fd233bc" y="137.605684"/>
    </g>
   </g>
   <g id="line2d_37">
    <path d="M 175.560539 294.88 
L 175.560539 294.355752 
L 176.511129 294.355752 
L 176.511129 293.307257 
L 181.976208 293.307257 
L 181.976208 292.783009 
L 182.471566 292.783009 
L 182.471566 292.258761 
L 182.626585 292.258761 
L 182.626585 291.734514 
L 182.751792 291.734514 
L 182.751792 289.637523 
L 183.11668 289.637523 
L 183.11668 289.113275 
L 187.299709 289.113275 
L 187.299709 288.06478 
L 187.49186 288.06478 
L 187.595397 286.492036 
L 187.819378 286.492036 
L 187.819378 285.967789 
L 188.04933 285.967789 
L 188.04933 285.443541 
L 188.580726 285.443541 
L 188.580726 284.919293 
L 190.405133 284.919293 
L 190.405133 284.395046 
L 191.184003 284.395046 
L 191.184003 283.34655 
L 191.585505 283.34655 
L 191.585505 282.822302 
L 192.271069 282.822302 
L 192.271069 281.773807 
L 193.719302 281.773807 
L 193.719302 281.249559 
L 194.051596 281.249559 
L 194.072011 279.152568 
L 196.319881 279.152568 
L 196.366071 278.104073 
L 196.547639 278.104073 
L 196.547639 277.579825 
L 196.676236 277.579825 
L 196.676236 274.958587 
L 196.937782 274.958587 
L 196.937782 274.434339 
L 197.377833 274.434339 
L 197.377833 273.910091 
L 197.537966 273.910091 
L 197.537966 273.385844 
L 198.884982 273.385844 
L 198.983244 270.764605 
L 199.3841 270.764605 
L 199.3841 269.191862 
L 200.883408 269.191862 
L 200.883408 268.667614 
L 201.195649 268.667614 
L 201.195649 267.619119 
L 201.589682 267.619119 
L 201.589682 267.094871 
L 202.678833 267.094871 
L 202.788114 264.473632 
L 202.884824 264.473632 
L 202.922815 262.900889 
L 204.063278 262.900889 
L 204.063278 261.852394 
L 204.578685 261.852394 
L 204.578685 261.328146 
L 204.691255 261.328146 
L 204.70684 260.279651 
L 205.02671 260.279651 
L 205.02671 259.231155 
L 205.752645 259.231155 
L 205.752645 258.706907 
L 205.945864 258.706907 
L 206.049578 256.609917 
L 207.252706 256.609917 
L 207.252706 256.085669 
L 207.686346 256.085669 
L 207.686346 255.561421 
L 208.011043 255.561421 
L 208.051077 254.512926 
L 208.483937 254.512926 
L 208.483937 253.988678 
L 208.805615 253.988678 
L 208.816202 252.940182 
L 209.372414 252.940182 
L 209.372414 251.367439 
L 209.768867 251.367439 
L 209.824992 248.746201 
L 210.564085 248.746201 
L 210.564085 248.221953 
L 210.770809 248.221953 
L 210.83211 246.64921 
L 210.894685 246.64921 
L 210.91748 245.600714 
L 211.087171 245.600714 
L 211.087171 245.076467 
L 211.428641 245.076467 
L 211.530432 244.027971 
L 211.695637 244.027971 
L 211.695637 243.503724 
L 211.842735 243.503724 
L 211.891288 239.309742 
L 212.714432 239.309742 
L 212.714432 237.736999 
L 212.841307 237.736999 
L 212.854628 235.640008 
L 213.104662 235.640008 
L 213.104662 235.11576 
L 213.72461 235.11576 
L 213.72461 234.067265 
L 214.060932 234.067265 
L 214.060932 233.543017 
L 214.43893 233.543017 
L 214.43893 233.018769 
L 214.562015 233.018769 
L 214.644328 231.970274 
L 214.820343 231.970274 
L 214.877772 228.824787 
L 215.439134 228.824787 
L 215.513291 227.252044 
L 215.681002 227.252044 
L 215.777415 226.203549 
L 215.968477 226.203549 
L 215.968477 225.155053 
L 216.167642 225.155053 
L 216.242636 224.106558 
L 216.337049 224.106558 
L 216.422909 222.533815 
L 216.599477 222.533815 
L 216.599477 221.485319 
L 217.017453 221.485319 
L 217.018647 219.388328 
L 217.728664 219.388328 
L 217.728664 218.864081 
L 217.984403 218.864081 
L 217.984403 217.815585 
L 218.434623 217.815585 
L 218.434623 217.291338 
L 218.641196 217.291338 
L 218.673644 216.242842 
L 219.193351 216.242842 
L 219.193351 215.194347 
L 219.334899 215.194347 
L 219.434332 213.621604 
L 219.821341 213.621604 
L 219.821341 213.097356 
L 220.394353 213.097356 
L 220.429295 211.524613 
L 220.569574 211.524613 
L 220.569574 211.000365 
L 221.004657 211.000365 
L 221.095035 208.379126 
L 221.774186 208.379126 
L 221.774186 207.854879 
L 222.24049 207.854879 
L 222.24049 206.806383 
L 223.067819 206.806383 
L 223.067819 206.282136 
L 223.559886 206.282136 
L 223.559886 205.23364 
L 223.681875 205.23364 
L 223.743709 203.660897 
L 224.452603 203.660897 
L 224.452603 203.136649 
L 224.687146 203.136649 
L 224.767192 200.515411 
L 224.83265 200.515411 
L 224.83265 199.991163 
L 225.118245 199.991163 
L 225.118245 198.41842 
L 225.293337 198.41842 
L 225.293337 197.894172 
L 225.420267 197.894172 
L 225.420267 197.369924 
L 226.095777 197.369924 
L 226.139161 195.272933 
L 226.66821 195.272933 
L 226.66821 194.748686 
L 227.894854 194.748686 
L 227.894854 194.224438 
L 229.28702 194.224438 
L 229.28702 193.70019 
L 231.06389 193.70019 
L 231.06389 193.175943 
L 231.35101 193.175943 
L 231.35101 192.651695 
L 249.76429 192.651695 
L 249.76429 191.603199 
L 250.092585 191.603199 
L 250.092585 191.078952 
L 255.968837 191.078952 
L 255.968837 190.554704 
L 256.080175 190.554704 
L 256.176725 189.506209 
L 256.316663 189.506209 
L 256.316663 188.981961 
L 256.455457 188.981961 
L 256.477096 186.88497 
L 256.653987 186.88497 
L 256.653987 185.836474 
L 256.904172 185.836474 
L 256.988774 184.263731 
L 257.043968 184.263731 
L 257.13855 182.16674 
L 257.158551 182.16674 
L 257.158551 181.642493 
L 257.269685 181.642493 
L 257.341022 180.06975 
L 257.411265 180.06975 
L 257.494354 179.021254 
L 257.767502 179.021254 
L 257.838243 177.972759 
L 258.069481 177.972759 
L 258.069481 177.448511 
L 258.183215 177.448511 
L 258.24297 176.400016 
L 267.337541 176.400016 
L 267.337541 175.875768 
L 267.512466 175.875768 
L 267.512466 175.35152 
L 267.727962 175.35152 
L 267.727962 174.827272 
L 267.85066 174.827272 
L 267.85066 174.303025 
L 268.000813 174.303025 
L 268.039876 172.730281 
L 268.231394 172.730281 
L 268.264742 171.681786 
L 271.837054 171.681786 
L 271.837054 171.157538 
L 273.972335 171.157538 
L 274.040012 169.060547 
L 274.220241 169.060547 
L 274.238774 168.012052 
L 274.346177 168.012052 
L 274.346177 166.963557 
L 274.489251 166.963557 
L 274.556262 165.915061 
L 277.043312 165.915061 
L 277.043312 165.390813 
L 278.765812 165.390813 
L 278.870097 163.81807 
L 278.992481 163.81807 
L 279.034024 162.245327 
L 279.153077 162.245327 
L 279.153077 161.721079 
L 281.088436 161.721079 
L 281.088436 161.196832 
L 282.51812 161.196832 
L 282.618744 159.624089 
L 282.6471 159.624089 
L 282.678897 158.575593 
L 282.76274 158.575593 
L 282.76274 158.051345 
L 285.467112 158.051345 
L 285.467112 157.527098 
L 285.590602 157.527098 
L 285.651946 156.478602 
L 288.163118 156.478602 
L 288.247016 155.430107 
L 288.316808 155.430107 
L 288.316808 154.905859 
L 290.452881 154.905859 
L 290.526435 152.808868 
L 292.297 152.808868 
L 292.400288 151.760373 
L 292.42157 151.760373 
L 292.444877 150.711877 
L 294.213744 150.711877 
L 294.213744 150.18763 
L 295.771984 150.18763 
L 295.863403 148.614886 
L 297.21792 148.614886 
L 297.266992 147.566391 
L 298.612492 147.566391 
L 298.675162 146.517896 
L 301.012704 146.517896 
L 301.057501 145.4694 
L 302.114521 145.4694 
L 302.182999 144.420905 
L 303.132363 144.420905 
L 303.16141 143.372409 
L 304.15002 143.372409 
L 304.15002 142.848162 
L 305.091423 142.848162 
L 305.091423 142.323914 
L 305.932321 142.323914 
L 305.932321 141.799666 
L 306.770895 141.799666 
L 306.770895 141.275418 
L 308.337965 141.275418 
L 308.337965 140.751171 
L 312.271106 140.751171 
L 312.271106 140.226923 
L 313.409595 140.226923 
L 313.409595 139.702675 
L 313.935901 139.702675 
L 313.935901 139.178427 
L 318.600467 139.178427 
L 318.600467 138.65418 
L 321.923989 138.65418 
L 321.923989 138.129932 
L 323.226675 138.129932 
L 323.226675 137.605684 
L 333.429677 137.605684 
L 333.429677 137.605684 
" style="fill:none;stroke:#ffa500;stroke-linecap:square;stroke-width:1.5;"/>
   </g>
   <g id="line2d_38">
    <defs>
     <path d="M 0 -6 
L -1.347084 -1.854102 
L -5.706339 -1.854102 
L -2.179628 0.708204 
L -3.526712 4.854102 
L -0 2.291796 
L 3.526712 4.854102 
L 2.179628 0.708204 
L 5.706339 -1.854102 
L 1.347084 -1.854102 
z
" id="mfbb50f0f04" style="stroke:#ffa500;stroke-linejoin:bevel;stroke-width:1.5;"/>
    </defs>
    <g>
     <use style="fill-opacity:0;stroke:#ffa500;stroke-linejoin:bevel;stroke-width:1.5;" x="255.968837" xlink:href="#mfbb50f0f04" y="190.554704"/>
     <use style="fill-opacity:0;stroke:#ffa500;stroke-linejoin:bevel;stroke-width:1.5;" x="313.935901" xlink:href="#mfbb50f0f04" y="139.178427"/>
     <use style="fill-opacity:0;stroke:#ffa500;stroke-linejoin:bevel;stroke-width:1.5;" x="323.226675" xlink:href="#mfbb50f0f04" y="137.605684"/>
     <use style="fill-opacity:0;stroke:#ffa500;stroke-linejoin:bevel;stroke-width:1.5;" x="333.429677" xlink:href="#mfbb50f0f04" y="137.605684"/>
    </g>
   </g>
   <g id="line2d_39">
    <path style="fill:none;stroke:#ffa500;stroke-linecap:square;stroke-width:1.5;"/>
    <g/>
   </g>
   <g id="line2d_40">
    <path clip-path="url(#pe1d8171a66)" d="M 254.198341 191.078952 
" style="fill:none;stroke:#ffa500;stroke-linecap:square;stroke-width:1.5;"/>
    <defs>
     <path d="M -12 12 
L 12 -12 
M -12 -12 
L 12 12 
" id="m21e69ad6a6" style="stroke:#ffa500;stroke-width:3;"/>
    </defs>
    <g clip-path="url(#pe1d8171a66)">
     <use style="fill:#ffa500;stroke:#ffa500;stroke-width:3;" x="254.198341" xlink:href="#m21e69ad6a6" y="191.078952"/>
    </g>
   </g>
   <g id="line2d_41">
    <defs>
     <path d="M 0 1.5 
C 0.397805 1.5 0.77937 1.341951 1.06066 1.06066 
C 1.341951 0.77937 1.5 0.397805 1.5 0 
C 1.5 -0.397805 1.341951 -0.77937 1.06066 -1.06066 
C 0.77937 -1.341951 0.397805 -1.5 0 -1.5 
C -0.397805 -1.5 -0.77937 -1.341951 -1.06066 -1.06066 
C -1.341951 -0.77937 -1.5 -0.397805 -1.5 0 
C -1.5 0.397805 -1.341951 0.77937 -1.06066 1.06066 
C -0.77937 1.341951 -0.397805 1.5 0 1.5 
z
" id="me3b8e47676" style="stroke:#6495ed;"/>
    </defs>
    <g>
     <use style="fill:#6495ed;stroke:#6495ed;" x="298.350386" xlink:href="#me3b8e47676" y="252.940182"/>
     <use style="fill:#6495ed;stroke:#6495ed;" x="298.350386" xlink:href="#me3b8e47676" y="252.940182"/>
    </g>
   </g>
   <g id="line2d_42">
    <path d="M 116.380902 294.88 
L 116.380902 294.355752 
L 128.409739 294.355752 
L 128.409739 292.783009 
L 129.091459 292.783009 
L 129.091459 292.258761 
L 131.425941 292.258761 
L 131.425941 291.734514 
L 132.269486 291.734514 
L 132.269486 291.210266 
L 135.742566 291.210266 
L 135.742566 290.686018 
L 136.256182 290.686018 
L 136.256182 290.161771 
L 138.08195 290.161771 
L 138.08195 289.637523 
L 138.94094 289.637523 
L 138.94094 289.113275 
L 142.532539 289.113275 
L 142.532539 288.06478 
L 144.194991 288.06478 
L 144.194991 287.540532 
L 146.911691 287.540532 
L 146.911691 287.016284 
L 149.904387 287.016284 
L 149.904387 286.492036 
L 151.624551 286.492036 
L 151.691237 284.919293 
L 151.883176 284.919293 
L 151.883176 284.395046 
L 154.2356 284.395046 
L 154.2356 283.870798 
L 154.40128 283.870798 
L 154.40128 283.34655 
L 155.571607 283.34655 
L 155.571607 282.822302 
L 157.15869 282.822302 
L 157.15869 282.298055 
L 157.800471 282.298055 
L 157.800471 281.773807 
L 158.137787 281.773807 
L 158.137787 280.725312 
L 159.7109 280.725312 
L 159.7109 280.201064 
L 162.013509 280.201064 
L 162.013509 279.676816 
L 162.159006 279.676816 
L 162.159006 279.152568 
L 162.630597 279.152568 
L 162.630597 278.628321 
L 162.79893 278.628321 
L 162.79893 278.104073 
L 163.219507 278.104073 
L 163.219507 277.579825 
L 163.861254 277.579825 
L 163.861254 277.055578 
L 165.821953 277.055578 
L 165.821953 276.007082 
L 166.247 276.007082 
L 166.266981 274.434339 
L 166.411859 274.434339 
L 166.411859 273.910091 
L 166.77296 273.910091 
L 166.77296 273.385844 
L 168.881997 273.385844 
L 168.881997 272.861596 
L 169.197647 272.861596 
L 169.197647 272.337348 
L 170.353676 272.337348 
L 170.353676 271.288853 
L 171.804705 271.288853 
L 171.804705 270.240357 
L 174.035543 270.240357 
L 174.035543 269.716109 
L 175.107509 269.716109 
L 175.117745 268.667614 
L 176.378504 268.667614 
L 176.378504 268.143366 
L 177.341643 268.143366 
L 177.341643 267.619119 
L 178.770336 267.619119 
L 178.770336 267.094871 
L 181.048405 267.094871 
L 181.048405 266.570623 
L 181.839437 266.570623 
L 181.839437 266.046375 
L 182.364453 266.046375 
L 182.387941 263.949385 
L 188.330932 263.949385 
L 188.330932 263.425137 
L 191.692571 263.425137 
L 191.692571 262.900889 
L 201.343356 262.900889 
L 201.343356 262.376641 
L 254.328211 262.376641 
L 254.394728 261.328146 
L 254.456396 261.328146 
L 254.457582 260.279651 
L 254.568434 260.279651 
L 254.647261 258.706907 
L 266.253357 258.706907 
L 266.322809 256.085669 
L 266.433812 256.085669 
L 266.433812 255.561421 
L 278.149119 255.561421 
L 278.205031 254.512926 
L 285.0919 254.512926 
L 285.0919 253.988678 
L 287.719106 253.988678 
L 287.719106 253.46443 
L 298.350386 253.46443 
L 298.350386 252.940182 
L 333.429677 252.940182 
L 333.429677 252.940182 
" style="fill:none;stroke:#6495ed;stroke-linecap:square;stroke-width:1.5;"/>
   </g>
   <g id="line2d_43">
    <defs>
     <path d="M -0 6 
L 6 -6 
L -6 -6 
z
" id="m0284cd3073" style="stroke:#6495ed;stroke-linejoin:miter;stroke-width:1.5;"/>
    </defs>
    <g>
     <use style="fill-opacity:0;stroke:#6495ed;stroke-linejoin:miter;stroke-width:1.5;" x="166.411859" xlink:href="#m0284cd3073" y="274.434339"/>
     <use style="fill-opacity:0;stroke:#6495ed;stroke-linejoin:miter;stroke-width:1.5;" x="201.343356" xlink:href="#m0284cd3073" y="262.900889"/>
     <use style="fill-opacity:0;stroke:#6495ed;stroke-linejoin:miter;stroke-width:1.5;" x="278.205031" xlink:href="#m0284cd3073" y="254.512926"/>
     <use style="fill-opacity:0;stroke:#6495ed;stroke-linejoin:miter;stroke-width:1.5;" x="298.350386" xlink:href="#m0284cd3073" y="252.940182"/>
     <use style="fill-opacity:0;stroke:#6495ed;stroke-linejoin:miter;stroke-width:1.5;" x="333.429677" xlink:href="#m0284cd3073" y="252.940182"/>
    </g>
   </g>
   <g id="line2d_44">
    <path style="fill:none;stroke:#6495ed;stroke-linecap:square;stroke-width:1.5;"/>
    <g/>
   </g>
   <g id="line2d_45">
    <path clip-path="url(#pe1d8171a66)" d="M 254.198341 262.376641 
" style="fill:none;stroke:#6495ed;stroke-linecap:square;stroke-width:1.5;"/>
    <defs>
     <path d="M -12 12 
L 12 -12 
M -12 -12 
L 12 12 
" id="mfabcaf6ef3" style="stroke:#6495ed;stroke-width:3;"/>
    </defs>
    <g clip-path="url(#pe1d8171a66)">
     <use style="fill:#6495ed;stroke:#6495ed;stroke-width:3;" x="254.198341" xlink:href="#mfabcaf6ef3" y="262.376641"/>
    </g>
   </g>
   <g id="line2d_46">
    <defs>
     <path d="M 0 1.5 
C 0.397805 1.5 0.77937 1.341951 1.06066 1.06066 
C 1.341951 0.77937 1.5 0.397805 1.5 0 
C 1.5 -0.397805 1.341951 -0.77937 1.06066 -1.06066 
C 0.77937 -1.341951 0.397805 -1.5 0 -1.5 
C -0.397805 -1.5 -0.77937 -1.341951 -1.06066 -1.06066 
C -1.341951 -0.77937 -1.5 -0.397805 -1.5 0 
C -1.5 0.397805 -1.341951 0.77937 -1.06066 1.06066 
C -0.77937 1.341951 -0.397805 1.5 0 1.5 
z
" id="m1148e1c812" style="stroke:#ff0000;"/>
    </defs>
    <g>
     <use style="fill:#ff0000;stroke:#ff0000;" x="280.143251" xlink:href="#m1148e1c812" y="279.152568"/>
     <use style="fill:#ff0000;stroke:#ff0000;" x="280.143251" xlink:href="#m1148e1c812" y="279.152568"/>
    </g>
   </g>
   <g id="line2d_47">
    <path d="M 97.375467 294.88 
L 97.375467 294.355752 
L 174.50846 294.355752 
L 174.50846 293.831505 
L 174.603612 293.831505 
L 174.603612 292.258761 
L 184.478716 292.258761 
L 184.478716 291.210266 
L 184.507397 291.210266 
L 184.507397 290.686018 
L 192.569891 290.686018 
L 192.569891 290.161771 
L 207.61401 290.161771 
L 207.61401 289.113275 
L 214.422614 289.113275 
L 214.422614 288.589027 
L 216.191005 288.589027 
L 216.191005 288.06478 
L 216.924308 288.06478 
L 216.924308 287.540532 
L 222.275291 287.540532 
L 222.275291 287.016284 
L 223.374697 287.016284 
L 223.374697 286.492036 
L 227.944701 286.492036 
L 227.944701 285.967789 
L 239.166891 285.967789 
L 239.166891 285.443541 
L 242.864077 285.443541 
L 242.864077 284.919293 
L 245.904061 284.919293 
L 245.904061 284.395046 
L 245.904117 284.395046 
L 245.904117 283.870798 
L 248.48639 283.870798 
L 248.48639 283.34655 
L 252.716918 283.34655 
L 252.716918 282.822302 
L 256.109853 282.822302 
L 256.109853 282.298055 
L 258.841955 282.298055 
L 258.841955 281.773807 
L 260.667416 281.773807 
L 260.667416 281.249559 
L 262.472283 281.249559 
L 262.472283 280.725312 
L 266.274322 280.725312 
L 266.274322 280.201064 
L 279.757924 280.201064 
L 279.757924 279.676816 
L 280.143251 279.676816 
L 280.143251 279.152568 
L 333.429677 279.152568 
" style="fill:none;stroke:#ff0000;stroke-linecap:square;stroke-width:1.5;"/>
   </g>
   <g id="line2d_48">
    <defs>
     <path d="M 0 -6 
L -5.196152 -3 
L -5.196152 3 
L -0 6 
L 5.196152 3 
L 5.196152 -3 
z
" id="m7e75546f48" style="stroke:#ff0000;stroke-linejoin:miter;stroke-width:1.5;"/>
    </defs>
    <g>
     <use style="fill-opacity:0;stroke:#ff0000;stroke-linejoin:miter;stroke-width:1.5;" x="97.375467" xlink:href="#m7e75546f48" y="294.355752"/>
     <use style="fill-opacity:0;stroke:#ff0000;stroke-linejoin:miter;stroke-width:1.5;" x="216.924308" xlink:href="#m7e75546f48" y="288.06478"/>
     <use style="fill-opacity:0;stroke:#ff0000;stroke-linejoin:miter;stroke-width:1.5;" x="280.143251" xlink:href="#m7e75546f48" y="279.676816"/>
     <use style="fill-opacity:0;stroke:#ff0000;stroke-linejoin:miter;stroke-width:1.5;" x="280.143251" xlink:href="#m7e75546f48" y="279.152568"/>
     <use style="fill-opacity:0;stroke:#ff0000;stroke-linejoin:miter;stroke-width:1.5;" x="333.429677" xlink:href="#m7e75546f48" y="279.152568"/>
    </g>
   </g>
   <g id="line2d_49">
    <path style="fill:none;stroke:#ff0000;stroke-linecap:square;stroke-width:1.5;"/>
    <g/>
   </g>
   <g id="line2d_50">
    <path clip-path="url(#pe1d8171a66)" d="M 214.583361 288.589027 
" style="fill:none;stroke:#ff0000;stroke-linecap:square;stroke-width:1.5;"/>
    <defs>
     <path d="M -12 12 
L 12 -12 
M -12 -12 
L 12 12 
" id="m18173b9efc" style="stroke:#ff0000;stroke-width:3;"/>
    </defs>
    <g clip-path="url(#pe1d8171a66)">
     <use style="fill:#ff0000;stroke:#ff0000;stroke-width:3;" x="214.583361" xlink:href="#m18173b9efc" y="288.589027"/>
    </g>
   </g>
   <g id="line2d_51">
    <path clip-path="url(#pe1d8171a66)" d="M 56.12 294.88 
L 56.12 294.88 
L 56.12 294.88 
L 56.12 294.88 
L 399.984 294.88 
" style="fill:none;stroke:#9acd32;stroke-linecap:square;stroke-width:1.5;"/>
   </g>
   <g id="line2d_52">
    <defs>
     <path d="M 0 -6 
L -6 6 
L 6 6 
z
" id="m2a1b30c18c" style="stroke:#9acd32;stroke-linejoin:miter;stroke-width:1.5;"/>
    </defs>
    <g clip-path="url(#pe1d8171a66)">
     <use style="fill-opacity:0;stroke:#9acd32;stroke-linejoin:miter;stroke-width:1.5;" x="56.12" xlink:href="#m2a1b30c18c" y="294.88"/>
    </g>
   </g>
   <g id="line2d_53">
    <path clip-path="url(#pe1d8171a66)" style="fill:none;stroke:#9acd32;stroke-linecap:square;stroke-width:1.5;"/>
    <g clip-path="url(#pe1d8171a66)">
     <use style="fill-opacity:0;stroke:#9acd32;stroke-linejoin:miter;stroke-width:1.5;" x="-1" xlink:href="#m2a1b30c18c" y="562.246337"/>
     <use style="fill-opacity:0;stroke:#9acd32;stroke-linejoin:miter;stroke-width:1.5;" x="399.984" xlink:href="#m2a1b30c18c" y="562.246337"/>
    </g>
   </g>
   <g id="line2d_54">
    <path d="M 333.429677 294.88 
L 363.933742 289.532673 
" style="fill:none;stroke:#9acd32;stroke-linecap:square;stroke-width:1.5;"/>
    <g>
     <use style="fill-opacity:0;stroke:#9acd32;stroke-linejoin:miter;stroke-width:1.5;" x="333.429677" xlink:href="#m2a1b30c18c" y="294.88"/>
     <use style="fill-opacity:0;stroke:#9acd32;stroke-linejoin:miter;stroke-width:1.5;" x="363.933742" xlink:href="#m2a1b30c18c" y="289.532673"/>
    </g>
   </g>
   <g id="line2d_55">
    <path d="M 333.429677 279.152568 
L 363.933742 246.754059 
" style="fill:none;stroke:#ff0000;stroke-linecap:square;stroke-width:1.5;"/>
    <g>
     <use style="fill-opacity:0;stroke:#ff0000;stroke-linejoin:miter;stroke-width:1.5;" x="333.429677" xlink:href="#m7e75546f48" y="279.152568"/>
     <use style="fill-opacity:0;stroke:#ff0000;stroke-linejoin:miter;stroke-width:1.5;" x="363.933742" xlink:href="#m7e75546f48" y="246.754059"/>
    </g>
   </g>
   <g id="line2d_56">
    <path d="M 333.429677 252.940182 
L 363.933742 203.975446 
" style="fill:none;stroke:#6495ed;stroke-linecap:square;stroke-width:1.5;"/>
    <g>
     <use style="fill-opacity:0;stroke:#6495ed;stroke-linejoin:miter;stroke-width:1.5;" x="333.429677" xlink:href="#m0284cd3073" y="252.940182"/>
     <use style="fill-opacity:0;stroke:#6495ed;stroke-linejoin:miter;stroke-width:1.5;" x="363.933742" xlink:href="#m0284cd3073" y="203.975446"/>
    </g>
   </g>
   <g id="line2d_57">
    <path d="M 333.429677 137.605684 
L 363.933742 161.196832 
" style="fill:none;stroke:#ffa500;stroke-linecap:square;stroke-width:1.5;"/>
    <g>
     <use style="fill-opacity:0;stroke:#ffa500;stroke-linejoin:bevel;stroke-width:1.5;" x="333.429677" xlink:href="#mfbb50f0f04" y="137.605684"/>
     <use style="fill-opacity:0;stroke:#ffa500;stroke-linejoin:bevel;stroke-width:1.5;" x="363.933742" xlink:href="#mfbb50f0f04" y="161.196832"/>
    </g>
   </g>
   <g id="line2d_58">
    <path d="M 333.429677 27.513663 
L 363.933742 118.418218 
" style="fill:none;stroke:#000080;stroke-linecap:square;stroke-width:1.5;"/>
    <g>
     <use style="fill-opacity:0;stroke:#000080;stroke-width:1.5;" x="333.429677" xlink:href="#m6379ae10e4" y="27.513663"/>
     <use style="fill-opacity:0;stroke:#000080;stroke-width:1.5;" x="363.933742" xlink:href="#m6379ae10e4" y="118.418218"/>
    </g>
   </g>
   <g id="line2d_59">
    <path d="M 333.429677 27.513663 
L 363.933742 75.639604 
" style="fill:none;stroke:#ff00ff;stroke-linecap:square;stroke-width:1.5;"/>
    <g>
     <use style="fill-opacity:0;stroke:#ff00ff;stroke-linejoin:miter;stroke-width:1.5;" x="333.429677" xlink:href="#m72d5d271a7" y="27.513663"/>
     <use style="fill-opacity:0;stroke:#ff00ff;stroke-linejoin:miter;stroke-width:1.5;" x="363.933742" xlink:href="#m72d5d271a7" y="75.639604"/>
    </g>
   </g>
   <g id="line2d_60">
    <path d="M 333.429677 294.88 
L 333.429677 27.513663 
" style="fill:none;stroke:#000000;stroke-linecap:square;stroke-width:1.5;"/>
   </g>
   <g id="patch_3">
    <path d="M 56.12 294.88 
L 56.12 24.84 
" style="fill:none;stroke:#000000;stroke-linecap:square;stroke-linejoin:miter;stroke-width:0.8;"/>
   </g>
   <g id="patch_4">
    <path d="M 399.984 294.88 
L 399.984 24.84 
" style="fill:none;stroke:#000000;stroke-linecap:square;stroke-linejoin:miter;stroke-width:0.8;"/>
   </g>
   <g id="patch_5">
    <path d="M 56.12 294.88 
L 399.984 294.88 
" style="fill:none;stroke:#000000;stroke-linecap:square;stroke-linejoin:miter;stroke-width:0.8;"/>
   </g>
   <g id="patch_6">
    <path d="M 56.12 24.84 
L 399.984 24.84 
" style="fill:none;stroke:#000000;stroke-linecap:square;stroke-linejoin:miter;stroke-width:0.8;"/>
   </g>
   <g id="text_14">
    <!-- gsa outpu -->
    <g transform="translate(369.479935 294.223611)scale(0.17 -0.17)">
     <use xlink:href="#DejaVuSans-67"/>
     <use x="63.476562" xlink:href="#DejaVuSans-73"/>
     <use x="115.576172" xlink:href="#DejaVuSans-61"/>
     <use x="176.855469" xlink:href="#DejaVuSans-20"/>
     <use x="208.642578" xlink:href="#DejaVuSans-6f"/>
     <use x="269.824219" xlink:href="#DejaVuSans-75"/>
     <use x="333.203125" xlink:href="#DejaVuSans-74"/>
     <use x="372.412109" xlink:href="#DejaVuSans-70"/>
     <use x="435.888672" xlink:href="#DejaVuSans-75"/>
    </g>
   </g>
   <g id="text_15">
    <!-- Rosenbroc -->
    <defs>
     <path d="M 44.390625 34.1875 
Q 47.5625 33.109375 50.5625 29.59375 
Q 53.5625 26.078125 56.59375 19.921875 
L 66.609375 0 
L 56 0 
L 46.6875 18.703125 
Q 43.0625 26.03125 39.671875 28.421875 
Q 36.28125 30.8125 30.421875 30.8125 
L 19.671875 30.8125 
L 19.671875 0 
L 9.8125 0 
L 9.8125 72.90625 
L 32.078125 72.90625 
Q 44.578125 72.90625 50.734375 67.671875 
Q 56.890625 62.453125 56.890625 51.90625 
Q 56.890625 45.015625 53.6875 40.46875 
Q 50.484375 35.9375 44.390625 34.1875 
z
M 19.671875 64.796875 
L 19.671875 38.921875 
L 32.078125 38.921875 
Q 39.203125 38.921875 42.84375 42.21875 
Q 46.484375 45.515625 46.484375 51.90625 
Q 46.484375 58.296875 42.84375 61.546875 
Q 39.203125 64.796875 32.078125 64.796875 
z
" id="DejaVuSans-52"/>
     <path d="M 48.6875 27.296875 
Q 48.6875 37.203125 44.609375 42.84375 
Q 40.53125 48.484375 33.40625 48.484375 
Q 26.265625 48.484375 22.1875 42.84375 
Q 18.109375 37.203125 18.109375 27.296875 
Q 18.109375 17.390625 22.1875 11.75 
Q 26.265625 6.109375 33.40625 6.109375 
Q 40.53125 6.109375 44.609375 11.75 
Q 48.6875 17.390625 48.6875 27.296875 
z
M 18.109375 46.390625 
Q 20.953125 51.265625 25.265625 53.625 
Q 29.59375 56 35.59375 56 
Q 45.5625 56 51.78125 48.09375 
Q 58.015625 40.1875 58.015625 27.296875 
Q 58.015625 14.40625 51.78125 6.484375 
Q 45.5625 -1.421875 35.59375 -1.421875 
Q 29.59375 -1.421875 25.265625 0.953125 
Q 20.953125 3.328125 18.109375 8.203125 
L 18.109375 0 
L 9.078125 0 
L 9.078125 75.984375 
L 18.109375 75.984375 
z
" id="DejaVuSans-62"/>
    </defs>
    <g transform="translate(369.479935 251.444997)scale(0.17 -0.17)">
     <use xlink:href="#DejaVuSans-52"/>
     <use x="69.419922" xlink:href="#DejaVuSans-6f"/>
     <use x="130.601562" xlink:href="#DejaVuSans-73"/>
     <use x="182.701172" xlink:href="#DejaVuSans-65"/>
     <use x="244.224609" xlink:href="#DejaVuSans-6e"/>
     <use x="307.603516" xlink:href="#DejaVuSans-62"/>
     <use x="371.080078" xlink:href="#DejaVuSans-72"/>
     <use x="412.162109" xlink:href="#DejaVuSans-6f"/>
     <use x="473.34375" xlink:href="#DejaVuSans-63"/>
    </g>
   </g>
   <g id="text_16">
    <!-- PSO -->
    <defs>
     <path d="M 19.671875 64.796875 
L 19.671875 37.40625 
L 32.078125 37.40625 
Q 38.96875 37.40625 42.71875 40.96875 
Q 46.484375 44.53125 46.484375 51.125 
Q 46.484375 57.671875 42.71875 61.234375 
Q 38.96875 64.796875 32.078125 64.796875 
z
M 9.8125 72.90625 
L 32.078125 72.90625 
Q 44.34375 72.90625 50.609375 67.359375 
Q 56.890625 61.8125 56.890625 51.125 
Q 56.890625 40.328125 50.609375 34.8125 
Q 44.34375 29.296875 32.078125 29.296875 
L 19.671875 29.296875 
L 19.671875 0 
L 9.8125 0 
z
" id="DejaVuSans-50"/>
     <path d="M 53.515625 70.515625 
L 53.515625 60.890625 
Q 47.90625 63.578125 42.921875 64.890625 
Q 37.9375 66.21875 33.296875 66.21875 
Q 25.25 66.21875 20.875 63.09375 
Q 16.5 59.96875 16.5 54.203125 
Q 16.5 49.359375 19.40625 46.890625 
Q 22.3125 44.4375 30.421875 42.921875 
L 36.375 41.703125 
Q 47.40625 39.59375 52.65625 34.296875 
Q 57.90625 29 57.90625 20.125 
Q 57.90625 9.515625 50.796875 4.046875 
Q 43.703125 -1.421875 29.984375 -1.421875 
Q 24.8125 -1.421875 18.96875 -0.25 
Q 13.140625 0.921875 6.890625 3.21875 
L 6.890625 13.375 
Q 12.890625 10.015625 18.65625 8.296875 
Q 24.421875 6.59375 29.984375 6.59375 
Q 38.421875 6.59375 43.015625 9.90625 
Q 47.609375 13.234375 47.609375 19.390625 
Q 47.609375 24.75 44.3125 27.78125 
Q 41.015625 30.8125 33.5 32.328125 
L 27.484375 33.5 
Q 16.453125 35.6875 11.515625 40.375 
Q 6.59375 45.0625 6.59375 53.421875 
Q 6.59375 63.09375 13.40625 68.65625 
Q 20.21875 74.21875 32.171875 74.21875 
Q 37.3125 74.21875 42.625 73.28125 
Q 47.953125 72.359375 53.515625 70.515625 
z
" id="DejaVuSans-53"/>
     <path d="M 39.40625 66.21875 
Q 28.65625 66.21875 22.328125 58.203125 
Q 16.015625 50.203125 16.015625 36.375 
Q 16.015625 22.609375 22.328125 14.59375 
Q 28.65625 6.59375 39.40625 6.59375 
Q 50.140625 6.59375 56.421875 14.59375 
Q 62.703125 22.609375 62.703125 36.375 
Q 62.703125 50.203125 56.421875 58.203125 
Q 50.140625 66.21875 39.40625 66.21875 
z
M 39.40625 74.21875 
Q 54.734375 74.21875 63.90625 63.9375 
Q 73.09375 53.65625 73.09375 36.375 
Q 73.09375 19.140625 63.90625 8.859375 
Q 54.734375 -1.421875 39.40625 -1.421875 
Q 24.03125 -1.421875 14.8125 8.828125 
Q 5.609375 19.09375 5.609375 36.375 
Q 5.609375 53.65625 14.8125 63.9375 
Q 24.03125 74.21875 39.40625 74.21875 
z
" id="DejaVuSans-4f"/>
    </defs>
    <g transform="translate(369.479935 208.666383)scale(0.17 -0.17)">
     <use xlink:href="#DejaVuSans-50"/>
     <use x="60.302734" xlink:href="#DejaVuSans-53"/>
     <use x="123.779297" xlink:href="#DejaVuSans-4f"/>
    </g>
   </g>
   <g id="text_17">
    <!-- GA -->
    <defs>
     <path d="M 59.515625 10.40625 
L 59.515625 29.984375 
L 43.40625 29.984375 
L 43.40625 38.09375 
L 69.28125 38.09375 
L 69.28125 6.78125 
Q 63.578125 2.734375 56.6875 0.65625 
Q 49.8125 -1.421875 42 -1.421875 
Q 24.90625 -1.421875 15.25 8.5625 
Q 5.609375 18.5625 5.609375 36.375 
Q 5.609375 54.25 15.25 64.234375 
Q 24.90625 74.21875 42 74.21875 
Q 49.125 74.21875 55.546875 72.453125 
Q 61.96875 70.703125 67.390625 67.28125 
L 67.390625 56.78125 
Q 61.921875 61.421875 55.765625 63.765625 
Q 49.609375 66.109375 42.828125 66.109375 
Q 29.4375 66.109375 22.71875 58.640625 
Q 16.015625 51.171875 16.015625 36.375 
Q 16.015625 21.625 22.71875 14.15625 
Q 29.4375 6.6875 42.828125 6.6875 
Q 48.046875 6.6875 52.140625 7.59375 
Q 56.25 8.5 59.515625 10.40625 
z
" id="DejaVuSans-47"/>
     <path d="M 34.1875 63.1875 
L 20.796875 26.90625 
L 47.609375 26.90625 
z
M 28.609375 72.90625 
L 39.796875 72.90625 
L 67.578125 0 
L 57.328125 0 
L 50.6875 18.703125 
L 17.828125 18.703125 
L 11.1875 0 
L 0.78125 0 
z
" id="DejaVuSans-41"/>
    </defs>
    <g transform="translate(369.479935 165.887769)scale(0.17 -0.17)">
     <use xlink:href="#DejaVuSans-47"/>
     <use x="77.490234" xlink:href="#DejaVuSans-41"/>
    </g>
   </g>
   <g id="text_18">
    <!-- ALPS -->
    <defs>
     <path d="M 9.8125 72.90625 
L 19.671875 72.90625 
L 19.671875 8.296875 
L 55.171875 8.296875 
L 55.171875 0 
L 9.8125 0 
z
" id="DejaVuSans-4c"/>
    </defs>
    <g transform="translate(369.479935 123.109155)scale(0.17 -0.17)">
     <use xlink:href="#DejaVuSans-41"/>
     <use x="68.408203" xlink:href="#DejaVuSans-4c"/>
     <use x="124.121094" xlink:href="#DejaVuSans-50"/>
     <use x="184.423828" xlink:href="#DejaVuSans-53"/>
    </g>
   </g>
   <g id="text_19">
    <!-- DASA -->
    <defs>
     <path d="M 19.671875 64.796875 
L 19.671875 8.109375 
L 31.59375 8.109375 
Q 46.6875 8.109375 53.6875 14.9375 
Q 60.6875 21.78125 60.6875 36.53125 
Q 60.6875 51.171875 53.6875 57.984375 
Q 46.6875 64.796875 31.59375 64.796875 
z
M 9.8125 72.90625 
L 30.078125 72.90625 
Q 51.265625 72.90625 61.171875 64.09375 
Q 71.09375 55.28125 71.09375 36.53125 
Q 71.09375 17.671875 61.125 8.828125 
Q 51.171875 0 30.078125 0 
L 9.8125 0 
z
" id="DejaVuSans-44"/>
    </defs>
    <g transform="translate(369.479935 80.330541)scale(0.17 -0.17)">
     <use xlink:href="#DejaVuSans-44"/>
     <use x="76.986328" xlink:href="#DejaVuSans-41"/>
     <use x="145.394531" xlink:href="#DejaVuSans-53"/>
     <use x="208.886719" xlink:href="#DejaVuSans-41"/>
    </g>
   </g>
   <g id="text_20">
    <!-- best 2009 -->
    <defs>
     <path d="M 10.984375 1.515625 
L 10.984375 10.5 
Q 14.703125 8.734375 18.5 7.8125 
Q 22.3125 6.890625 25.984375 6.890625 
Q 35.75 6.890625 40.890625 13.453125 
Q 46.046875 20.015625 46.78125 33.40625 
Q 43.953125 29.203125 39.59375 26.953125 
Q 35.25 24.703125 29.984375 24.703125 
Q 19.046875 24.703125 12.671875 31.3125 
Q 6.296875 37.9375 6.296875 49.421875 
Q 6.296875 60.640625 12.9375 67.421875 
Q 19.578125 74.21875 30.609375 74.21875 
Q 43.265625 74.21875 49.921875 64.515625 
Q 56.59375 54.828125 56.59375 36.375 
Q 56.59375 19.140625 48.40625 8.859375 
Q 40.234375 -1.421875 26.421875 -1.421875 
Q 22.703125 -1.421875 18.890625 -0.6875 
Q 15.09375 0.046875 10.984375 1.515625 
z
M 30.609375 32.421875 
Q 37.25 32.421875 41.125 36.953125 
Q 45.015625 41.5 45.015625 49.421875 
Q 45.015625 57.28125 41.125 61.84375 
Q 37.25 66.40625 30.609375 66.40625 
Q 23.96875 66.40625 20.09375 61.84375 
Q 16.21875 57.28125 16.21875 49.421875 
Q 16.21875 41.5 20.09375 36.953125 
Q 23.96875 32.421875 30.609375 32.421875 
z
" id="DejaVuSans-39"/>
    </defs>
    <g transform="translate(369.479935 37.551928)scale(0.17 -0.17)">
     <use xlink:href="#DejaVuSans-62"/>
     <use x="63.476562" xlink:href="#DejaVuSans-65"/>
     <use x="125" xlink:href="#DejaVuSans-73"/>
     <use x="177.099609" xlink:href="#DejaVuSans-74"/>
     <use x="216.308594" xlink:href="#DejaVuSans-20"/>
     <use x="248.095703" xlink:href="#DejaVuSans-32"/>
     <use x="311.71875" xlink:href="#DejaVuSans-30"/>
     <use x="375.341797" xlink:href="#DejaVuSans-30"/>
     <use x="438.964844" xlink:href="#DejaVuSans-39"/>
    </g>
   </g>
   <g id="text_21">
    <!-- bbob f4, 10-D -->
    <g transform="translate(59.55864 35.290806)scale(0.102 -0.102)">
     <use xlink:href="#DejaVuSans-62"/>
     <use x="63.476562" xlink:href="#DejaVuSans-62"/>
     <use x="126.953125" xlink:href="#DejaVuSans-6f"/>
     <use x="188.134766" xlink:href="#DejaVuSans-62"/>
     <use x="251.611328" xlink:href="#DejaVuSans-20"/>
     <use x="283.398438" xlink:href="#DejaVuSans-66"/>
     <use x="318.603516" xlink:href="#DejaVuSans-34"/>
     <use x="382.226562" xlink:href="#DejaVuSans-2c"/>
     <use x="414.013672" xlink:href="#DejaVuSans-20"/>
     <use x="445.800781" xlink:href="#DejaVuSans-31"/>
     <use x="509.423828" xlink:href="#DejaVuSans-30"/>
     <use x="573.046875" xlink:href="#DejaVuSans-2d"/>
     <use x="609.130859" xlink:href="#DejaVuSans-44"/>
    </g>
    <!-- 51 targets: 100..1e-08 -->
    <defs>
     <path d="M 10.796875 72.90625 
L 49.515625 72.90625 
L 49.515625 64.59375 
L 19.828125 64.59375 
L 19.828125 46.734375 
Q 21.96875 47.46875 24.109375 47.828125 
Q 26.265625 48.1875 28.421875 48.1875 
Q 40.625 48.1875 47.75 41.5 
Q 54.890625 34.8125 54.890625 23.390625 
Q 54.890625 11.625 47.5625 5.09375 
Q 40.234375 -1.421875 26.90625 -1.421875 
Q 22.3125 -1.421875 17.546875 -0.640625 
Q 12.796875 0.140625 7.71875 1.703125 
L 7.71875 11.625 
Q 12.109375 9.234375 16.796875 8.0625 
Q 21.484375 6.890625 26.703125 6.890625 
Q 35.15625 6.890625 40.078125 11.328125 
Q 45.015625 15.765625 45.015625 23.390625 
Q 45.015625 31 40.078125 35.4375 
Q 35.15625 39.890625 26.703125 39.890625 
Q 22.75 39.890625 18.8125 39.015625 
Q 14.890625 38.140625 10.796875 36.28125 
z
" id="DejaVuSans-35"/>
     <path d="M 11.71875 12.40625 
L 22.015625 12.40625 
L 22.015625 0 
L 11.71875 0 
z
M 11.71875 51.703125 
L 22.015625 51.703125 
L 22.015625 39.3125 
L 11.71875 39.3125 
z
" id="DejaVuSans-3a"/>
    </defs>
    <g transform="translate(59.55864 46.712575)scale(0.102 -0.102)">
     <use xlink:href="#DejaVuSans-35"/>
     <use x="63.623047" xlink:href="#DejaVuSans-31"/>
     <use x="127.246094" xlink:href="#DejaVuSans-20"/>
     <use x="159.033203" xlink:href="#DejaVuSans-74"/>
     <use x="198.242188" xlink:href="#DejaVuSans-61"/>
     <use x="259.521484" xlink:href="#DejaVuSans-72"/>
     <use x="300.619141" xlink:href="#DejaVuSans-67"/>
     <use x="364.095703" xlink:href="#DejaVuSans-65"/>
     <use x="425.619141" xlink:href="#DejaVuSans-74"/>
     <use x="464.828125" xlink:href="#DejaVuSans-73"/>
     <use x="516.927734" xlink:href="#DejaVuSans-3a"/>
     <use x="550.619141" xlink:href="#DejaVuSans-20"/>
     <use x="582.40625" xlink:href="#DejaVuSans-31"/>
     <use x="646.029297" xlink:href="#DejaVuSans-30"/>
     <use x="709.652344" xlink:href="#DejaVuSans-30"/>
     <use x="773.275391" xlink:href="#DejaVuSans-2e"/>
     <use x="805.0625" xlink:href="#DejaVuSans-2e"/>
     <use x="836.849609" xlink:href="#DejaVuSans-31"/>
     <use x="900.472656" xlink:href="#DejaVuSans-65"/>
     <use x="961.996094" xlink:href="#DejaVuSans-2d"/>
     <use x="998.080078" xlink:href="#DejaVuSans-30"/>
     <use x="1061.703125" xlink:href="#DejaVuSans-38"/>
    </g>
    <!-- 15 instances -->
    <g transform="translate(59.55864 58.134344)scale(0.102 -0.102)">
     <use xlink:href="#DejaVuSans-31"/>
     <use x="63.623047" xlink:href="#DejaVuSans-35"/>
     <use x="127.246094" xlink:href="#DejaVuSans-20"/>
     <use x="159.033203" xlink:href="#DejaVuSans-69"/>
     <use x="186.816406" xlink:href="#DejaVuSans-6e"/>
     <use x="250.195312" xlink:href="#DejaVuSans-73"/>
     <use x="302.294922" xlink:href="#DejaVuSans-74"/>
     <use x="341.503906" xlink:href="#DejaVuSans-61"/>
     <use x="402.783203" xlink:href="#DejaVuSans-6e"/>
     <use x="466.162109" xlink:href="#DejaVuSans-63"/>
     <use x="521.142578" xlink:href="#DejaVuSans-65"/>
     <use x="582.666016" xlink:href="#DejaVuSans-73"/>
    </g>
   </g>
   <g id="text_22">
    <!-- v-coco-version -->
    <g style="fill:#808080;" transform="translate(191.556688 290.099912)scale(0.1 -0.1)">
     <use xlink:href="#DejaVuSans-76"/>
     <use x="59.148438" xlink:href="#DejaVuSans-2d"/>
     <use x="95.232422" xlink:href="#DejaVuSans-63"/>
     <use x="150.212891" xlink:href="#DejaVuSans-6f"/>
     <use x="211.394531" xlink:href="#DejaVuSans-63"/>
     <use x="266.375" xlink:href="#DejaVuSans-6f"/>
     <use x="327.572266" xlink:href="#DejaVuSans-2d"/>
     <use x="363.625" xlink:href="#DejaVuSans-76"/>
     <use x="422.804688" xlink:href="#DejaVuSans-65"/>
     <use x="484.328125" xlink:href="#DejaVuSans-72"/>
     <use x="525.441406" xlink:href="#DejaVuSans-73"/>
     <use x="577.541016" xlink:href="#DejaVuSans-69"/>
     <use x="605.324219" xlink:href="#DejaVuSans-6f"/>
     <use x="666.505859" xlink:href="#DejaVuSans-6e"/>
    </g>
   </g>
   <g id="text_23">
    <!-- 4 Skew Rastrigin-Bueche separ -->
    <defs>
     <path d="M 9.078125 75.984375 
L 18.109375 75.984375 
L 18.109375 31.109375 
L 44.921875 54.6875 
L 56.390625 54.6875 
L 27.390625 29.109375 
L 57.625 0 
L 45.90625 0 
L 18.109375 26.703125 
L 18.109375 0 
L 9.078125 0 
z
" id="DejaVuSans-6b"/>
     <path d="M 4.203125 54.6875 
L 13.1875 54.6875 
L 24.421875 12.015625 
L 35.59375 54.6875 
L 46.1875 54.6875 
L 57.421875 12.015625 
L 68.609375 54.6875 
L 77.59375 54.6875 
L 63.28125 0 
L 52.6875 0 
L 40.921875 44.828125 
L 29.109375 0 
L 18.5 0 
z
" id="DejaVuSans-77"/>
     <path d="M 19.671875 34.8125 
L 19.671875 8.109375 
L 35.5 8.109375 
Q 43.453125 8.109375 47.28125 11.40625 
Q 51.125 14.703125 51.125 21.484375 
Q 51.125 28.328125 47.28125 31.5625 
Q 43.453125 34.8125 35.5 34.8125 
z
M 19.671875 64.796875 
L 19.671875 42.828125 
L 34.28125 42.828125 
Q 41.5 42.828125 45.03125 45.53125 
Q 48.578125 48.25 48.578125 53.8125 
Q 48.578125 59.328125 45.03125 62.0625 
Q 41.5 64.796875 34.28125 64.796875 
z
M 9.8125 72.90625 
L 35.015625 72.90625 
Q 46.296875 72.90625 52.390625 68.21875 
Q 58.5 63.53125 58.5 54.890625 
Q 58.5 48.1875 55.375 44.234375 
Q 52.25 40.28125 46.1875 39.3125 
Q 53.46875 37.75 57.5 32.78125 
Q 61.53125 27.828125 61.53125 20.40625 
Q 61.53125 10.640625 54.890625 5.3125 
Q 48.25 0 35.984375 0 
L 9.8125 0 
z
" id="DejaVuSans-42"/>
     <path d="M 54.890625 33.015625 
L 54.890625 0 
L 45.90625 0 
L 45.90625 32.71875 
Q 45.90625 40.484375 42.875 44.328125 
Q 39.84375 48.1875 33.796875 48.1875 
Q 26.515625 48.1875 22.3125 43.546875 
Q 18.109375 38.921875 18.109375 30.90625 
L 18.109375 0 
L 9.078125 0 
L 9.078125 75.984375 
L 18.109375 75.984375 
L 18.109375 46.1875 
Q 21.34375 51.125 25.703125 53.5625 
Q 30.078125 56 35.796875 56 
Q 45.21875 56 50.046875 50.171875 
Q 54.890625 44.34375 54.890625 33.015625 
z
" id="DejaVuSans-68"/>
    </defs>
    <g transform="translate(72.2395 18.84)scale(0.2 -0.2)">
     <use xlink:href="#DejaVuSans-34"/>
     <use x="63.623047" xlink:href="#DejaVuSans-20"/>
     <use x="95.410156" xlink:href="#DejaVuSans-53"/>
     <use x="158.886719" xlink:href="#DejaVuSans-6b"/>
     <use x="216.75" xlink:href="#DejaVuSans-65"/>
     <use x="278.273438" xlink:href="#DejaVuSans-77"/>
     <use x="360.060547" xlink:href="#DejaVuSans-20"/>
     <use x="391.847656" xlink:href="#DejaVuSans-52"/>
     <use x="461.298828" xlink:href="#DejaVuSans-61"/>
     <use x="522.578125" xlink:href="#DejaVuSans-73"/>
     <use x="574.677734" xlink:href="#DejaVuSans-74"/>
     <use x="613.886719" xlink:href="#DejaVuSans-72"/>
     <use x="655" xlink:href="#DejaVuSans-69"/>
     <use x="682.783203" xlink:href="#DejaVuSans-67"/>
     <use x="746.259766" xlink:href="#DejaVuSans-69"/>
     <use x="774.042969" xlink:href="#DejaVuSans-6e"/>
     <use x="837.421875" xlink:href="#DejaVuSans-2d"/>
     <use x="873.458984" xlink:href="#DejaVuSans-42"/>
     <use x="942.0625" xlink:href="#DejaVuSans-75"/>
     <use x="1005.441406" xlink:href="#DejaVuSans-65"/>
     <use x="1066.964844" xlink:href="#DejaVuSans-63"/>
     <use x="1121.945312" xlink:href="#DejaVuSans-68"/>
     <use x="1185.324219" xlink:href="#DejaVuSans-65"/>
     <use x="1246.847656" xlink:href="#DejaVuSans-20"/>
     <use x="1278.634766" xlink:href="#DejaVuSans-73"/>
     <use x="1330.734375" xlink:href="#DejaVuSans-65"/>
     <use x="1392.257812" xlink:href="#DejaVuSans-70"/>
     <use x="1455.734375" xlink:href="#DejaVuSans-61"/>
     <use x="1517.013672" xlink:href="#DejaVuSans-72"/>
    </g>
   </g>
  </g>
 </g>
 <defs>
  <clipPath id="pe1d8171a66">
   <rect height="270.04" width="343.864" x="56.12" y="24.84"/>
  </clipPath>
 </defs>
</svg>
