<?xml version="1.0" encoding="utf-8" standalone="no"?>
<!DOCTYPE svg PUBLIC "-//W3C//DTD SVG 1.1//EN"
  "http://www.w3.org/Graphics/SVG/1.1/DTD/svg11.dtd">
<!-- Created with matplotlib (http://matplotlib.org/) -->
<svg height="333.7245pt" version="1.1" viewBox="0 0 378.52 333.7245" width="378.52pt" xmlns="http://www.w3.org/2000/svg" xmlns:xlink="http://www.w3.org/1999/xlink">
 <defs>
  <style type="text/css">
*{stroke-linecap:butt;stroke-linejoin:round;}
  </style>
 </defs>
 <g id="figure_1">
  <g id="patch_1">
   <path d="M 0 333.7245 
L 378.52 333.7245 
L 378.52 0 
L 0 0 
z
" style="fill:#ffffff;"/>
  </g>
  <g id="axes_1">
   <g id="patch_2">
    <path d="M 10.7 276.812 
L 367.82 276.812 
L 367.82 10.7 
L 10.7 10.7 
z
" style="fill:#ffffff;"/>
   </g>
   <g id="matplotlib.axis_1">
    <g id="xtick_1">
     <g id="line2d_1">
      <path clip-path="url(#p27850cf569)" d="M 10.610538 276.812 
L 10.610538 10.7 
" style="fill:none;stroke:#b0b0b0;stroke-linecap:square;stroke-width:0.8;"/>
     </g>
     <g id="line2d_2">
      <defs>
       <path d="M 0 0 
L 0 3.5 
" id="m96a9c76d85" style="stroke:#000000;stroke-width:0.8;"/>
      </defs>
      <g>
       <use style="stroke:#000000;stroke-width:0.8;" x="10.610538" xlink:href="#m96a9c76d85" y="276.812"/>
      </g>
     </g>
    </g>
    <g id="xtick_2">
     <g id="line2d_3">
      <path clip-path="url(#p27850cf569)" d="M 93.419793 276.812 
L 93.419793 10.7 
" style="fill:none;stroke:#b0b0b0;stroke-linecap:square;stroke-width:0.8;"/>
     </g>
     <g id="line2d_4">
      <g>
       <use style="stroke:#000000;stroke-width:0.8;" x="93.419793" xlink:href="#m96a9c76d85" y="276.812"/>
      </g>
     </g>
     <g id="text_1">
      <!-- -4 -->
      <defs>
       <path d="M 4.890625 31.390625 
L 31.203125 31.390625 
L 31.203125 23.390625 
L 4.890625 23.390625 
z
" id="DejaVuSans-2d"/>
       <path d="M 37.796875 64.3125 
L 12.890625 25.390625 
L 37.796875 25.390625 
z
M 35.203125 72.90625 
L 47.609375 72.90625 
L 47.609375 25.390625 
L 58.015625 25.390625 
L 58.015625 17.1875 
L 47.609375 17.1875 
L 47.609375 0 
L 37.796875 0 
L 37.796875 17.1875 
L 4.890625 17.1875 
L 4.890625 26.703125 
z
" id="DejaVuSans-34"/>
      </defs>
      <g transform="translate(83.449481 299.008875)scale(0.2 -0.2)">
       <use xlink:href="#DejaVuSans-2d"/>
       <use x="36.083984" xlink:href="#DejaVuSans-34"/>
      </g>
     </g>
    </g>
    <g id="xtick_3">
     <g id="line2d_5">
      <path clip-path="url(#p27850cf569)" d="M 176.229049 276.812 
L 176.229049 10.7 
" style="fill:none;stroke:#b0b0b0;stroke-linecap:square;stroke-width:0.8;"/>
     </g>
     <g id="line2d_6">
      <g>
       <use style="stroke:#000000;stroke-width:0.8;" x="176.229049" xlink:href="#m96a9c76d85" y="276.812"/>
      </g>
     </g>
     <g id="text_2">
      <!-- 0 -->
      <defs>
       <path d="M 31.78125 66.40625 
Q 24.171875 66.40625 20.328125 58.90625 
Q 16.5 51.421875 16.5 36.375 
Q 16.5 21.390625 20.328125 13.890625 
Q 24.171875 6.390625 31.78125 6.390625 
Q 39.453125 6.390625 43.28125 13.890625 
Q 47.125 21.390625 47.125 36.375 
Q 47.125 51.421875 43.28125 58.90625 
Q 39.453125 66.40625 31.78125 66.40625 
z
M 31.78125 74.21875 
Q 44.046875 74.21875 50.515625 64.515625 
Q 56.984375 54.828125 56.984375 36.375 
Q 56.984375 17.96875 50.515625 8.265625 
Q 44.046875 -1.421875 31.78125 -1.421875 
Q 19.53125 -1.421875 13.0625 8.265625 
Q 6.59375 17.96875 6.59375 36.375 
Q 6.59375 54.828125 13.0625 64.515625 
Q 19.53125 74.21875 31.78125 74.21875 
z
" id="DejaVuSans-30"/>
      </defs>
      <g transform="translate(169.866549 299.008875)scale(0.2 -0.2)">
       <use xlink:href="#DejaVuSans-30"/>
      </g>
     </g>
    </g>
    <g id="xtick_4">
     <g id="line2d_7">
      <path clip-path="url(#p27850cf569)" d="M 259.038304 276.812 
L 259.038304 10.7 
" style="fill:none;stroke:#b0b0b0;stroke-linecap:square;stroke-width:0.8;"/>
     </g>
     <g id="line2d_8">
      <g>
       <use style="stroke:#000000;stroke-width:0.8;" x="259.038304" xlink:href="#m96a9c76d85" y="276.812"/>
      </g>
     </g>
     <g id="text_3">
      <!-- 4 -->
      <g transform="translate(252.675804 299.008875)scale(0.2 -0.2)">
       <use xlink:href="#DejaVuSans-34"/>
      </g>
     </g>
    </g>
    <g id="xtick_5">
     <g id="line2d_9">
      <path clip-path="url(#p27850cf569)" d="M 341.84756 276.812 
L 341.84756 10.7 
" style="fill:none;stroke:#b0b0b0;stroke-linecap:square;stroke-width:0.8;"/>
     </g>
     <g id="line2d_10">
      <g>
       <use style="stroke:#000000;stroke-width:0.8;" x="341.84756" xlink:href="#m96a9c76d85" y="276.812"/>
      </g>
     </g>
     <g id="text_4">
      <!-- 8 -->
      <defs>
       <path d="M 31.78125 34.625 
Q 24.75 34.625 20.71875 30.859375 
Q 16.703125 27.09375 16.703125 20.515625 
Q 16.703125 13.921875 20.71875 10.15625 
Q 24.75 6.390625 31.78125 6.390625 
Q 38.8125 6.390625 42.859375 10.171875 
Q 46.921875 13.96875 46.921875 20.515625 
Q 46.921875 27.09375 42.890625 30.859375 
Q 38.875 34.625 31.78125 34.625 
z
M 21.921875 38.8125 
Q 15.578125 40.375 12.03125 44.71875 
Q 8.5 49.078125 8.5 55.328125 
Q 8.5 64.0625 14.71875 69.140625 
Q 20.953125 74.21875 31.78125 74.21875 
Q 42.671875 74.21875 48.875 69.140625 
Q 55.078125 64.0625 55.078125 55.328125 
Q 55.078125 49.078125 51.53125 44.71875 
Q 48 40.375 41.703125 38.8125 
Q 48.828125 37.15625 52.796875 32.3125 
Q 56.78125 27.484375 56.78125 20.515625 
Q 56.78125 9.90625 50.3125 4.234375 
Q 43.84375 -1.421875 31.78125 -1.421875 
Q 19.734375 -1.421875 13.25 4.234375 
Q 6.78125 9.90625 6.78125 20.515625 
Q 6.78125 27.484375 10.78125 32.3125 
Q 14.796875 37.15625 21.921875 38.8125 
z
M 18.3125 54.390625 
Q 18.3125 48.734375 21.84375 45.5625 
Q 25.390625 42.390625 31.78125 42.390625 
Q 38.140625 42.390625 41.71875 45.5625 
Q 45.3125 48.734375 45.3125 54.390625 
Q 45.3125 60.0625 41.71875 63.234375 
Q 38.140625 66.40625 31.78125 66.40625 
Q 25.390625 66.40625 21.84375 63.234375 
Q 18.3125 60.0625 18.3125 54.390625 
z
" id="DejaVuSans-38"/>
      </defs>
      <g transform="translate(335.48506 299.008875)scale(0.2 -0.2)">
       <use xlink:href="#DejaVuSans-38"/>
      </g>
     </g>
    </g>
    <g id="text_5">
     <!-- log10 of Df -->
     <defs>
      <path d="M 9.421875 75.984375 
L 18.40625 75.984375 
L 18.40625 0 
L 9.421875 0 
z
" id="DejaVuSans-6c"/>
      <path d="M 30.609375 48.390625 
Q 23.390625 48.390625 19.1875 42.75 
Q 14.984375 37.109375 14.984375 27.296875 
Q 14.984375 17.484375 19.15625 11.84375 
Q 23.34375 6.203125 30.609375 6.203125 
Q 37.796875 6.203125 41.984375 11.859375 
Q 46.1875 17.53125 46.1875 27.296875 
Q 46.1875 37.015625 41.984375 42.703125 
Q 37.796875 48.390625 30.609375 48.390625 
z
M 30.609375 56 
Q 42.328125 56 49.015625 48.375 
Q 55.71875 40.765625 55.71875 27.296875 
Q 55.71875 13.875 49.015625 6.21875 
Q 42.328125 -1.421875 30.609375 -1.421875 
Q 18.84375 -1.421875 12.171875 6.21875 
Q 5.515625 13.875 5.515625 27.296875 
Q 5.515625 40.765625 12.171875 48.375 
Q 18.84375 56 30.609375 56 
z
" id="DejaVuSans-6f"/>
      <path d="M 45.40625 27.984375 
Q 45.40625 37.75 41.375 43.109375 
Q 37.359375 48.484375 30.078125 48.484375 
Q 22.859375 48.484375 18.828125 43.109375 
Q 14.796875 37.75 14.796875 27.984375 
Q 14.796875 18.265625 18.828125 12.890625 
Q 22.859375 7.515625 30.078125 7.515625 
Q 37.359375 7.515625 41.375 12.890625 
Q 45.40625 18.265625 45.40625 27.984375 
z
M 54.390625 6.78125 
Q 54.390625 -7.171875 48.1875 -13.984375 
Q 42 -20.796875 29.203125 -20.796875 
Q 24.46875 -20.796875 20.265625 -20.09375 
Q 16.0625 -19.390625 12.109375 -17.921875 
L 12.109375 -9.1875 
Q 16.0625 -11.328125 19.921875 -12.34375 
Q 23.78125 -13.375 27.78125 -13.375 
Q 36.625 -13.375 41.015625 -8.765625 
Q 45.40625 -4.15625 45.40625 5.171875 
L 45.40625 9.625 
Q 42.625 4.78125 38.28125 2.390625 
Q 33.9375 0 27.875 0 
Q 17.828125 0 11.671875 7.65625 
Q 5.515625 15.328125 5.515625 27.984375 
Q 5.515625 40.671875 11.671875 48.328125 
Q 17.828125 56 27.875 56 
Q 33.9375 56 38.28125 53.609375 
Q 42.625 51.21875 45.40625 46.390625 
L 45.40625 54.6875 
L 54.390625 54.6875 
z
" id="DejaVuSans-67"/>
      <path d="M 12.40625 8.296875 
L 28.515625 8.296875 
L 28.515625 63.921875 
L 10.984375 60.40625 
L 10.984375 69.390625 
L 28.421875 72.90625 
L 38.28125 72.90625 
L 38.28125 8.296875 
L 54.390625 8.296875 
L 54.390625 0 
L 12.40625 0 
z
" id="DejaVuSans-31"/>
      <path id="DejaVuSans-20"/>
      <path d="M 37.109375 75.984375 
L 37.109375 68.5 
L 28.515625 68.5 
Q 23.6875 68.5 21.796875 66.546875 
Q 19.921875 64.59375 19.921875 59.515625 
L 19.921875 54.6875 
L 34.71875 54.6875 
L 34.71875 47.703125 
L 19.921875 47.703125 
L 19.921875 0 
L 10.890625 0 
L 10.890625 47.703125 
L 2.296875 47.703125 
L 2.296875 54.6875 
L 10.890625 54.6875 
L 10.890625 58.5 
Q 10.890625 67.625 15.140625 71.796875 
Q 19.390625 75.984375 28.609375 75.984375 
z
" id="DejaVuSans-66"/>
      <path d="M 19.671875 64.796875 
L 19.671875 8.109375 
L 31.59375 8.109375 
Q 46.6875 8.109375 53.6875 14.9375 
Q 60.6875 21.78125 60.6875 36.53125 
Q 60.6875 51.171875 53.6875 57.984375 
Q 46.6875 64.796875 31.59375 64.796875 
z
M 9.8125 72.90625 
L 30.078125 72.90625 
Q 51.265625 72.90625 61.171875 64.09375 
Q 71.09375 55.28125 71.09375 36.53125 
Q 71.09375 17.671875 61.125 8.828125 
Q 51.171875 0 30.078125 0 
L 9.8125 0 
z
" id="DejaVuSans-44"/>
     </defs>
     <g transform="translate(134.074063 322.365125)scale(0.2 -0.2)">
      <use xlink:href="#DejaVuSans-6c"/>
      <use x="27.783203" xlink:href="#DejaVuSans-6f"/>
      <use x="88.964844" xlink:href="#DejaVuSans-67"/>
      <use x="152.441406" xlink:href="#DejaVuSans-31"/>
      <use x="216.064453" xlink:href="#DejaVuSans-30"/>
      <use x="279.6875" xlink:href="#DejaVuSans-20"/>
      <use x="311.474609" xlink:href="#DejaVuSans-6f"/>
      <use x="372.65625" xlink:href="#DejaVuSans-66"/>
      <use x="407.861328" xlink:href="#DejaVuSans-20"/>
      <use x="439.648438" xlink:href="#DejaVuSans-44"/>
      <use x="516.650391" xlink:href="#DejaVuSans-66"/>
     </g>
    </g>
   </g>
   <g id="matplotlib.axis_2">
    <g id="ytick_1">
     <g id="line2d_11">
      <path clip-path="url(#p27850cf569)" d="M 10.7 276.812 
L 367.82 276.812 
" style="fill:none;stroke:#b0b0b0;stroke-linecap:square;stroke-width:0.8;"/>
     </g>
     <g id="line2d_12">
      <defs>
       <path d="M 0 0 
L -3.5 0 
" id="m1bbf91c7b5" style="stroke:#000000;stroke-width:0.8;"/>
      </defs>
      <g>
       <use style="stroke:#000000;stroke-width:0.8;" x="10.7" xlink:href="#m1bbf91c7b5" y="276.812"/>
      </g>
     </g>
    </g>
    <g id="ytick_2">
     <g id="line2d_13">
      <path clip-path="url(#p27850cf569)" d="M 10.7 224.116554 
L 367.82 224.116554 
" style="fill:none;stroke:#b0b0b0;stroke-linecap:square;stroke-width:0.8;"/>
     </g>
     <g id="line2d_14">
      <g>
       <use style="stroke:#000000;stroke-width:0.8;" x="10.7" xlink:href="#m1bbf91c7b5" y="224.116554"/>
      </g>
     </g>
    </g>
    <g id="ytick_3">
     <g id="line2d_15">
      <path clip-path="url(#p27850cf569)" d="M 10.7 171.421109 
L 367.82 171.421109 
" style="fill:none;stroke:#b0b0b0;stroke-linecap:square;stroke-width:0.8;"/>
     </g>
     <g id="line2d_16">
      <g>
       <use style="stroke:#000000;stroke-width:0.8;" x="10.7" xlink:href="#m1bbf91c7b5" y="171.421109"/>
      </g>
     </g>
    </g>
    <g id="ytick_4">
     <g id="line2d_17">
      <path clip-path="url(#p27850cf569)" d="M 10.7 118.725663 
L 367.82 118.725663 
" style="fill:none;stroke:#b0b0b0;stroke-linecap:square;stroke-width:0.8;"/>
     </g>
     <g id="line2d_18">
      <g>
       <use style="stroke:#000000;stroke-width:0.8;" x="10.7" xlink:href="#m1bbf91c7b5" y="118.725663"/>
      </g>
     </g>
    </g>
    <g id="ytick_5">
     <g id="line2d_19">
      <path clip-path="url(#p27850cf569)" d="M 10.7 66.030218 
L 367.82 66.030218 
" style="fill:none;stroke:#b0b0b0;stroke-linecap:square;stroke-width:0.8;"/>
     </g>
     <g id="line2d_20">
      <g>
       <use style="stroke:#000000;stroke-width:0.8;" x="10.7" xlink:href="#m1bbf91c7b5" y="66.030218"/>
      </g>
     </g>
    </g>
    <g id="ytick_6">
     <g id="line2d_21">
      <path clip-path="url(#p27850cf569)" d="M 10.7 13.334772 
L 367.82 13.334772 
" style="fill:none;stroke:#b0b0b0;stroke-linecap:square;stroke-width:0.8;"/>
     </g>
     <g id="line2d_22">
      <g>
       <use style="stroke:#000000;stroke-width:0.8;" x="10.7" xlink:href="#m1bbf91c7b5" y="13.334772"/>
      </g>
     </g>
    </g>
   </g>
   <g id="line2d_23">
    <path clip-path="url(#p27850cf569)" d="M 163.778445 276.812 
L 163.778445 265.833782 
L 188.532762 265.833782 
L 188.532762 265.101901 
L 188.653832 265.101901 
L 188.656628 263.638139 
L 188.909784 263.638139 
L 188.909784 262.906257 
L 189.136055 262.906257 
L 189.136055 262.174376 
L 189.404852 262.174376 
L 189.404852 261.442495 
L 189.609901 261.442495 
L 189.609901 260.710614 
L 189.764025 260.710614 
L 189.764025 259.978733 
L 190.563421 259.978733 
L 190.563421 259.246851 
L 191.199636 259.246851 
L 191.199636 258.51497 
L 192.223259 258.51497 
L 192.242722 257.051208 
L 192.932784 257.051208 
L 192.932784 256.319327 
L 193.145059 256.319327 
L 193.145059 255.587446 
L 194.340003 255.587446 
L 194.340003 254.855564 
L 198.306376 254.855564 
L 198.306376 254.123683 
L 198.563851 254.123683 
L 198.563851 253.391802 
L 198.693728 253.391802 
L 198.693728 252.659921 
L 199.11009 252.659921 
L 199.20606 251.196158 
L 199.443646 251.196158 
L 199.508009 249.732396 
L 199.663561 249.732396 
L 199.698923 248.268634 
L 199.838711 248.268634 
L 199.838711 247.536752 
L 200.007412 247.536752 
L 200.007412 246.804871 
L 200.619248 246.804871 
L 200.619248 246.07299 
L 201.270641 246.07299 
L 201.270641 245.341109 
L 202.707224 245.341109 
L 202.707224 244.609228 
L 203.113922 244.609228 
L 203.113922 243.877347 
L 203.807419 243.877347 
L 203.807419 243.145465 
L 204.880318 243.145465 
L 204.880318 242.413584 
L 206.068123 242.413584 
L 206.068123 241.681703 
L 206.715914 241.681703 
L 206.715914 240.949822 
L 206.961738 240.949822 
L 206.961738 240.217941 
L 207.375263 240.217941 
L 207.405654 238.754178 
L 207.598358 238.754178 
L 207.614713 237.290416 
L 207.798347 237.290416 
L 207.798347 236.558535 
L 208.075429 236.558535 
L 208.075429 235.826653 
L 208.320863 235.826653 
L 208.320863 235.094772 
L 208.460103 235.094772 
L 208.460103 234.362891 
L 208.646495 234.362891 
L 208.713011 231.435366 
L 208.914477 231.435366 
L 208.952027 229.971604 
L 209.240036 229.971604 
L 209.240036 229.239723 
L 209.565021 229.239723 
L 209.673088 226.312198 
L 210.015093 226.312198 
L 210.114332 223.384673 
L 210.163483 223.384673 
L 210.163483 222.652792 
L 210.50716 222.652792 
L 210.597536 221.18903 
L 211.032339 221.18903 
L 211.118501 219.725267 
L 211.3288 219.725267 
L 211.3288 218.993386 
L 211.462978 218.993386 
L 211.462978 218.261505 
L 211.676884 218.261505 
L 211.676884 217.529624 
L 212.122043 217.529624 
L 212.122043 216.797743 
L 212.288734 216.797743 
L 212.364605 214.602099 
L 212.697082 214.602099 
L 212.697082 213.870218 
L 212.880705 213.870218 
L 212.880705 213.138337 
L 213.208599 213.138337 
L 213.208599 212.406455 
L 214.141808 212.406455 
L 214.250008 210.942693 
L 214.345994 210.942693 
L 214.345994 210.210812 
L 214.561439 210.210812 
L 214.595534 208.74705 
L 214.675857 208.74705 
L 214.76616 206.551406 
L 214.925702 206.551406 
L 214.966969 204.355762 
L 215.06274 204.355762 
L 215.145795 202.160119 
L 215.219228 202.160119 
L 215.318579 197.03695 
L 215.366368 197.03695 
L 215.414258 195.573188 
L 215.535937 195.573188 
L 215.612003 192.645663 
L 215.65116 192.645663 
L 215.755222 190.45002 
L 215.825103 190.45002 
L 215.923894 187.522495 
L 215.981994 187.522495 
L 215.981994 186.790614 
L 216.663666 186.790614 
L 216.663666 186.058733 
L 217.235729 186.058733 
L 217.235729 185.326851 
L 217.72925 185.326851 
L 217.72925 184.59497 
L 217.878867 184.59497 
L 217.878867 183.863089 
L 218.009291 183.863089 
L 218.009291 183.131208 
L 218.462246 183.131208 
L 218.462246 182.399327 
L 218.621142 182.399327 
L 218.621142 181.667446 
L 219.498511 181.667446 
L 219.531394 169.225465 
L 219.755035 169.225465 
L 219.755035 168.493584 
L 219.96391 168.493584 
L 219.966869 167.029822 
L 223.246971 167.029822 
L 223.246971 166.297941 
L 223.705664 166.297941 
L 223.705664 165.566059 
L 225.081734 165.566059 
L 225.081734 164.834178 
L 225.413159 164.834178 
L 225.444823 163.370416 
L 225.526255 163.370416 
L 225.624536 161.174772 
L 225.783524 161.174772 
L 225.842116 159.71101 
L 226.09873 159.71101 
L 226.09873 158.979129 
L 226.417687 158.979129 
L 226.440463 157.515366 
L 226.750602 157.515366 
L 226.804421 154.587842 
L 226.948696 154.587842 
L 227.045789 153.124079 
L 227.716757 153.124079 
L 227.783056 149.464673 
L 227.895821 149.464673 
L 227.895821 148.732792 
L 228.289112 148.732792 
L 228.323171 147.26903 
L 228.650844 147.26903 
L 228.695975 145.073386 
L 228.838446 145.073386 
L 228.838446 144.341505 
L 229.203059 144.341505 
L 229.203059 143.609624 
L 229.50106 143.609624 
L 229.50106 142.877743 
L 229.665035 142.877743 
L 229.665035 142.145861 
L 231.116736 142.145861 
L 231.157632 140.682099 
L 231.854402 140.682099 
L 231.934012 138.486455 
L 232.35329 138.486455 
L 232.393658 137.022693 
L 232.641807 137.022693 
L 232.705266 134.82705 
L 232.959651 134.82705 
L 232.959651 134.095168 
L 233.421985 134.095168 
L 233.459423 131.899525 
L 233.586218 131.899525 
L 233.586218 131.167644 
L 233.734607 131.167644 
L 233.784306 129.703881 
L 233.878927 129.703881 
L 233.878927 128.972 
L 234.009004 128.972 
L 234.078931 126.044475 
L 234.197146 126.044475 
L 234.197146 125.312594 
L 234.319229 125.312594 
L 234.372469 123.11695 
L 234.460854 123.11695 
L 234.544115 120.921307 
L 234.630094 120.921307 
L 234.727514 119.457545 
L 234.805054 119.457545 
L 234.911204 115.798139 
L 234.96517 115.798139 
L 235.051057 112.870614 
L 235.112333 112.870614 
L 235.213021 111.406851 
L 235.330622 111.406851 
L 235.407729 109.211208 
L 235.512729 109.211208 
L 235.525578 107.747446 
L 235.714708 107.747446 
L 235.748372 106.283683 
L 235.87474 106.283683 
L 235.974813 104.08804 
L 236.099359 104.08804 
L 236.145821 101.160515 
L 236.268818 101.160515 
L 236.268818 100.428634 
L 236.429833 100.428634 
L 236.459229 98.964871 
L 236.751154 98.964871 
L 236.751154 98.23299 
L 237.453092 98.23299 
L 237.453092 97.501109 
L 239.541179 97.501109 
L 239.541179 96.769228 
L 239.909662 96.769228 
L 239.909662 96.037347 
L 243.051922 96.037347 
L 243.073029 94.573584 
L 243.221901 94.573584 
L 243.305281 93.109822 
L 243.48866 93.109822 
L 243.553053 90.914178 
L 243.654131 90.914178 
L 243.654131 90.182297 
L 244.205503 90.182297 
L 244.230373 88.718535 
L 244.420883 88.718535 
L 244.420883 87.986653 
L 244.651496 87.986653 
L 244.651496 87.254772 
L 244.868837 87.254772 
L 244.868837 86.522891 
L 244.993474 86.522891 
L 244.993474 85.79101 
L 245.667719 85.79101 
L 245.667719 85.059129 
L 249.999559 85.059129 
L 249.999559 84.327248 
L 250.422389 84.327248 
L 250.422389 83.595366 
L 251.320246 83.595366 
L 251.320246 82.863485 
L 251.654419 82.863485 
L 251.654419 82.131604 
L 257.067085 82.131604 
L 257.067085 81.399723 
L 259.43555 81.399723 
L 259.43555 80.667842 
L 260.521976 80.667842 
L 260.521976 79.93596 
L 264.481282 79.93596 
L 264.481282 69.689624 
L 267.262575 69.689624 
L 267.262575 68.957743 
L 267.648865 68.957743 
L 267.648865 68.225861 
L 268.220578 68.225861 
L 268.220578 67.49398 
L 268.351552 67.49398 
L 268.351552 66.762099 
L 269.192868 66.762099 
L 269.192868 66.030218 
L 271.11148 66.030218 
L 271.11148 65.298337 
L 271.318741 65.298337 
L 271.318741 64.566455 
L 272.812146 64.566455 
L 272.862183 63.102693 
L 273.049998 63.102693 
L 273.049998 62.370812 
L 273.857242 62.370812 
L 273.857242 61.638931 
L 273.99098 61.638931 
L 273.99098 60.90705 
L 275.661371 60.90705 
L 275.661371 60.175168 
L 275.958997 60.175168 
L 275.958997 59.443287 
L 276.416944 59.443287 
L 276.416944 58.711406 
L 276.537973 58.711406 
L 276.537973 57.979525 
L 277.545521 57.979525 
L 277.545521 57.247644 
L 278.104357 57.247644 
L 278.104357 56.515762 
L 282.119053 56.515762 
L 282.172196 55.052 
L 287.124398 55.052 
L 287.124398 54.320119 
L 289.681575 54.320119 
L 289.681575 53.588238 
L 289.848321 53.588238 
L 289.887327 52.124475 
L 290.012974 52.124475 
L 290.012974 51.392594 
L 290.510916 51.392594 
L 290.510916 50.660713 
L 290.65429 50.660713 
L 290.65429 49.928832 
L 291.047111 49.928832 
L 291.047111 49.19695 
L 293.980065 49.19695 
L 293.980065 48.465069 
L 295.282548 48.465069 
L 295.282548 47.733188 
L 295.490394 47.733188 
L 295.490394 47.001307 
L 295.830172 47.001307 
L 295.830172 46.269426 
L 299.391634 46.269426 
L 299.391634 45.537545 
L 300.356823 45.537545 
L 300.356823 44.805663 
L 303.798615 44.805663 
L 303.798615 44.073782 
L 304.984168 44.073782 
L 304.984168 43.341901 
L 305.167373 43.341901 
L 305.167373 42.61002 
L 306.603176 42.61002 
L 306.603176 41.878139 
L 306.76916 41.878139 
L 306.76916 41.146257 
L 307.437534 41.146257 
L 307.437534 40.414376 
L 307.842596 40.414376 
L 307.850769 38.950614 
L 307.970682 38.950614 
L 307.970682 38.218733 
L 308.298694 38.218733 
L 308.36835 36.75497 
L 309.004974 36.75497 
L 309.004974 36.023089 
L 309.421586 36.023089 
L 309.421586 35.291208 
L 309.55349 35.291208 
L 309.55349 34.559327 
L 309.770215 34.559327 
L 309.770215 33.827446 
L 309.907048 33.827446 
L 309.907048 33.095564 
L 310.109957 33.095564 
L 310.109957 32.363683 
L 310.395286 32.363683 
L 310.395286 31.631802 
L 310.648392 31.631802 
L 310.648392 30.899921 
L 311.354792 30.899921 
L 311.354792 30.16804 
L 311.560192 30.16804 
L 311.60522 28.704277 
L 311.910427 28.704277 
L 311.910427 27.972396 
L 312.53812 27.972396 
L 312.627881 26.508634 
L 312.742166 26.508634 
L 312.742166 25.776752 
L 313.462886 25.776752 
L 313.462886 25.044871 
L 314.712807 25.044871 
L 314.712807 24.31299 
L 341.002144 24.31299 
L 341.002144 23.581109 
L 343.320731 23.581109 
L 343.320731 22.849228 
L 343.68833 22.849228 
L 343.68833 22.117347 
L 343.819474 22.117347 
L 343.851573 20.653584 
L 344.912337 20.653584 
L 344.912337 19.921703 
L 345.561391 19.921703 
L 345.561391 19.189822 
L 346.055139 19.189822 
L 346.055139 18.457941 
L 347.012683 18.457941 
L 347.012683 17.726059 
L 348.869627 17.726059 
L 348.869627 16.994178 
L 349.443795 16.994178 
L 349.443795 16.262297 
L 350.840138 16.262297 
L 350.920773 14.798535 
L 352.398501 14.798535 
L 352.398501 14.066653 
L 353.15863 14.066653 
L 353.15863 13.334772 
L 353.15863 13.334772 
L 367.82 13.334772 
L 367.82 13.334772 
" style="fill:none;stroke:#ff0000;stroke-linecap:square;stroke-width:3;"/>
   </g>
   <g id="line2d_24">
    <path clip-path="url(#p27850cf569)" d="M 163.778445 276.812 
L 163.778445 265.833782 
L 192.345733 265.833782 
L 192.444001 264.37002 
L 192.879509 264.37002 
L 192.879509 263.638139 
L 194.030255 263.638139 
L 194.133725 262.174376 
L 194.231951 262.174376 
L 194.340003 260.710614 
L 194.391459 260.710614 
L 194.391459 259.978733 
L 194.608766 259.978733 
L 194.608766 259.246851 
L 195.474313 259.246851 
L 195.474313 258.51497 
L 195.85769 258.51497 
L 195.85769 257.783089 
L 196.05009 257.783089 
L 196.05009 257.051208 
L 196.440935 257.051208 
L 196.440935 256.319327 
L 196.655466 256.319327 
L 196.655466 255.587446 
L 197.862815 255.587446 
L 197.862815 254.855564 
L 198.306376 254.855564 
L 198.306376 254.123683 
L 198.563851 254.123683 
L 198.563851 253.391802 
L 199.11009 253.391802 
L 199.11009 252.659921 
L 199.443646 252.659921 
L 199.443646 251.92804 
L 199.698923 251.92804 
L 199.698923 251.196158 
L 200.230714 251.196158 
L 200.246815 249.732396 
L 200.841317 249.732396 
L 200.841317 249.000515 
L 201.014694 249.000515 
L 201.075802 247.536752 
L 202.267311 247.536752 
L 202.267311 246.804871 
L 202.863037 246.804871 
L 202.863037 246.07299 
L 203.082853 246.07299 
L 203.113922 244.609228 
L 203.807419 244.609228 
L 203.807419 243.877347 
L 204.880318 243.877347 
L 204.880318 243.145465 
L 206.715914 243.145465 
L 206.715914 242.413584 
L 206.961738 242.413584 
L 206.961738 241.681703 
L 207.269458 241.681703 
L 207.269458 240.949822 
L 207.798347 240.949822 
L 207.798347 240.217941 
L 208.320863 240.217941 
L 208.376485 238.754178 
L 208.460103 238.754178 
L 208.460103 238.022297 
L 208.646495 238.022297 
L 208.646495 237.290416 
L 209.114136 237.290416 
L 209.114136 236.558535 
L 210.015093 236.558535 
L 210.02423 235.094772 
L 210.441515 235.094772 
L 210.441515 234.362891 
L 210.740071 234.362891 
L 210.740071 233.63101 
L 211.181187 233.63101 
L 211.181187 232.899129 
L 211.3288 232.899129 
L 211.386055 230.703485 
L 211.462978 230.703485 
L 211.545194 229.239723 
L 211.876834 229.239723 
L 211.876834 228.507842 
L 212.040819 228.507842 
L 212.040819 227.77596 
L 212.29349 227.77596 
L 212.384149 224.116554 
L 212.428439 224.116554 
L 212.471486 222.652792 
L 212.696661 222.652792 
L 212.774408 221.18903 
L 212.812186 221.18903 
L 212.812186 220.457149 
L 213.203558 220.457149 
L 213.279308 218.993386 
L 213.330091 218.993386 
L 213.330091 218.261505 
L 213.583048 218.261505 
L 213.583048 217.529624 
L 214.013957 217.529624 
L 214.046442 216.065861 
L 214.141808 216.065861 
L 214.141808 215.33398 
L 214.561439 215.33398 
L 214.63219 213.870218 
L 214.675857 213.870218 
L 214.783799 211.674574 
L 214.966969 211.674574 
L 215.06274 210.210812 
L 215.145795 210.210812 
L 215.246039 207.283287 
L 215.301245 207.283287 
L 215.347303 205.819525 
L 215.415887 205.819525 
L 215.415887 205.087644 
L 215.535937 205.087644 
L 215.646282 201.428238 
L 215.65116 201.428238 
L 215.755222 198.500713 
L 215.892104 198.500713 
L 215.978608 192.645663 
L 216.031724 192.645663 
L 216.106679 190.45002 
L 216.157961 190.45002 
L 216.157961 189.718139 
L 216.663666 189.718139 
L 216.663666 188.986257 
L 217.293405 188.986257 
L 217.293405 188.254376 
L 217.656126 188.254376 
L 217.72925 186.790614 
L 217.878867 186.790614 
L 217.881565 185.326851 
L 218.149907 185.326851 
L 218.149907 184.59497 
L 218.462246 184.59497 
L 218.462246 183.863089 
L 218.621142 183.863089 
L 218.621142 183.131208 
L 219.498511 183.131208 
L 219.531394 170.689228 
L 219.728053 170.689228 
L 219.755035 169.225465 
L 219.966869 169.225465 
L 219.966869 168.493584 
L 221.07689 168.493584 
L 221.07689 167.761703 
L 221.609265 167.761703 
L 221.609265 167.029822 
L 223.462432 167.029822 
L 223.462432 166.297941 
L 225.526255 166.297941 
L 225.624536 164.834178 
L 226.09873 164.834178 
L 226.09873 164.102297 
L 226.440463 164.102297 
L 226.440463 163.370416 
L 226.664313 163.370416 
L 226.664313 162.638535 
L 226.82718 162.638535 
L 226.82718 161.906653 
L 226.948696 161.906653 
L 226.948696 161.174772 
L 227.43705 161.174772 
L 227.43705 160.442891 
L 227.716757 160.442891 
L 227.781614 158.247248 
L 227.895821 158.247248 
L 227.895821 157.515366 
L 228.076424 157.515366 
L 228.076424 156.783485 
L 228.212002 156.783485 
L 228.30099 154.587842 
L 228.323171 154.587842 
L 228.393537 153.124079 
L 228.650844 153.124079 
L 228.695975 150.928436 
L 228.764884 150.928436 
L 228.851852 148.732792 
L 229.203059 148.732792 
L 229.203059 148.000911 
L 229.50106 148.000911 
L 229.525471 146.537149 
L 229.665035 146.537149 
L 229.665035 145.805267 
L 230.056309 145.805267 
L 230.056309 145.073386 
L 231.157632 145.073386 
L 231.157632 144.341505 
L 231.500625 144.341505 
L 231.500625 143.609624 
L 231.878973 143.609624 
L 231.934012 142.145861 
L 232.705266 142.145861 
L 232.705266 141.41398 
L 233.421985 141.41398 
L 233.459423 139.218337 
L 233.586218 139.218337 
L 233.586218 138.486455 
L 233.734607 138.486455 
L 233.784306 137.022693 
L 234.009004 137.022693 
L 234.042999 135.558931 
L 234.144161 135.558931 
L 234.173634 134.095168 
L 234.319229 134.095168 
L 234.372469 131.899525 
L 234.460854 131.899525 
L 234.484413 130.435762 
L 234.612679 130.435762 
L 234.612679 129.703881 
L 234.756723 129.703881 
L 234.810935 127.508238 
L 235.050136 127.508238 
L 235.051057 126.044475 
L 235.197885 126.044475 
L 235.197885 125.312594 
L 235.330622 125.312594 
L 235.407729 123.848832 
L 235.512729 123.848832 
L 235.512729 123.11695 
L 235.662594 123.11695 
L 235.714708 121.653188 
L 235.843984 121.653188 
L 235.923293 119.457545 
L 236.099359 119.457545 
L 236.112005 117.993782 
L 236.214132 117.993782 
L 236.284657 115.066257 
L 236.367613 115.066257 
L 236.367613 114.334376 
L 236.550191 114.334376 
L 236.574004 112.870614 
L 236.668622 112.870614 
L 236.751154 111.406851 
L 237.093612 111.406851 
L 237.183801 109.943089 
L 237.511932 109.943089 
L 237.545799 108.479327 
L 237.800539 108.479327 
L 237.800539 107.747446 
L 238.2618 107.747446 
L 238.2618 107.015564 
L 238.417647 107.015564 
L 238.505707 105.551802 
L 238.889317 105.551802 
L 238.889317 104.819921 
L 239.517082 104.819921 
L 239.517082 104.08804 
L 239.91044 104.08804 
L 239.91044 103.356158 
L 241.309095 103.356158 
L 241.309095 102.624277 
L 243.051922 102.624277 
L 243.073029 101.160515 
L 243.48866 101.160515 
L 243.567153 98.964871 
L 243.777159 98.964871 
L 243.777159 98.23299 
L 244.195959 98.23299 
L 244.230373 96.037347 
L 244.398572 96.037347 
L 244.398572 95.305465 
L 244.518718 95.305465 
L 244.518718 94.573584 
L 244.651496 94.573584 
L 244.651496 93.841703 
L 244.868837 93.841703 
L 244.91358 92.377941 
L 245.476321 92.377941 
L 245.476321 91.646059 
L 246.144204 91.646059 
L 246.144204 90.914178 
L 246.391325 90.914178 
L 246.391325 90.182297 
L 247.41184 90.182297 
L 247.41184 89.450416 
L 262.014854 89.450416 
L 262.014854 88.718535 
L 264.481282 88.718535 
L 264.481282 77.740317 
L 267.262575 77.740317 
L 267.262575 77.008436 
L 267.648865 77.008436 
L 267.648865 76.276554 
L 268.220578 76.276554 
L 268.220578 75.544673 
L 269.192868 75.544673 
L 269.192868 74.812792 
L 271.11148 74.812792 
L 271.11148 74.080911 
L 271.318741 74.080911 
L 271.318741 73.34903 
L 272.812146 73.34903 
L 272.862183 71.885267 
L 272.934429 71.885267 
L 272.934429 71.153386 
L 273.049998 71.153386 
L 273.049998 70.421505 
L 273.857242 70.421505 
L 273.857242 69.689624 
L 273.99098 69.689624 
L 273.99098 68.957743 
L 276.11481 68.957743 
L 276.11481 68.225861 
L 276.416944 68.225861 
L 276.416944 67.49398 
L 276.537973 67.49398 
L 276.537973 66.762099 
L 276.662332 66.762099 
L 276.662332 66.030218 
L 277.545521 66.030218 
L 277.545521 65.298337 
L 278.104357 65.298337 
L 278.104357 64.566455 
L 282.172196 64.566455 
L 282.172196 63.834574 
L 284.915443 63.834574 
L 284.915443 63.102693 
L 285.874505 63.102693 
L 285.874505 62.370812 
L 287.233298 62.370812 
L 287.233298 61.638931 
L 287.774517 61.638931 
L 287.774517 60.90705 
L 288.749601 60.90705 
L 288.749601 60.175168 
L 289.034953 60.175168 
L 289.034953 59.443287 
L 290.510916 59.443287 
L 290.510916 58.711406 
L 291.047111 58.711406 
L 291.047111 57.979525 
L 291.382375 57.979525 
L 291.382375 57.247644 
L 292.827951 57.247644 
L 292.827951 56.515762 
L 293.229294 56.515762 
L 293.280064 55.052 
L 294.630613 55.052 
L 294.630613 54.320119 
L 295.206742 54.320119 
L 295.206742 53.588238 
L 295.510603 53.588238 
L 295.568074 51.392594 
L 297.08908 51.392594 
L 297.08908 50.660713 
L 298.143637 50.660713 
L 298.143637 49.928832 
L 299.093787 49.928832 
L 299.093787 49.19695 
L 300.450753 49.19695 
L 300.450753 48.465069 
L 305.167373 48.465069 
L 305.167373 47.733188 
L 306.603176 47.733188 
L 306.603176 47.001307 
L 307.26621 47.001307 
L 307.26621 46.269426 
L 307.970682 46.269426 
L 307.970682 45.537545 
L 308.36835 45.537545 
L 308.36835 44.805663 
L 310.453159 44.805663 
L 310.453159 44.073782 
L 310.751654 44.073782 
L 310.751654 43.341901 
L 310.8939 43.341901 
L 310.8939 42.61002 
L 311.038422 42.61002 
L 311.038422 41.878139 
L 311.60522 41.878139 
L 311.60522 41.146257 
L 312.193079 41.146257 
L 312.193079 40.414376 
L 312.315239 40.414376 
L 312.408267 38.950614 
L 313.473607 38.950614 
L 313.473607 38.218733 
L 314.135303 38.218733 
L 314.192763 36.75497 
L 314.356702 36.75497 
L 314.356702 36.023089 
L 314.902829 36.023089 
L 314.902829 35.291208 
L 315.060472 35.291208 
L 315.060472 34.559327 
L 315.287988 34.559327 
L 315.287988 33.827446 
L 316.085315 33.827446 
L 316.085315 33.095564 
L 316.232537 33.095564 
L 316.232537 32.363683 
L 316.412466 32.363683 
L 316.412466 31.631802 
L 316.953135 31.631802 
L 316.953135 30.899921 
L 317.785345 30.899921 
L 317.785345 30.16804 
L 318.660179 30.16804 
L 318.660179 29.436158 
L 319.0313 29.436158 
L 319.0313 28.704277 
L 319.15422 28.704277 
L 319.15422 27.972396 
L 320.172633 27.972396 
L 320.172633 27.240515 
L 320.842912 27.240515 
L 320.842912 26.508634 
L 324.606737 26.508634 
L 324.606737 25.776752 
L 328.99407 25.776752 
L 329.07608 24.31299 
L 341.002144 24.31299 
L 341.002144 23.581109 
L 343.320731 23.581109 
L 343.320731 22.849228 
L 343.68833 22.849228 
L 343.68833 22.117347 
L 343.819474 22.117347 
L 343.819474 21.385465 
L 344.912337 21.385465 
L 344.912337 20.653584 
L 345.561391 20.653584 
L 345.561391 19.921703 
L 346.235667 19.921703 
L 346.235667 19.189822 
L 349.636714 19.189822 
L 349.636714 18.457941 
L 350.920773 18.457941 
L 350.920773 17.726059 
L 351.611287 17.726059 
L 351.611287 16.994178 
L 353.175109 16.994178 
L 353.175109 16.262297 
L 353.453067 16.262297 
L 353.453067 15.530416 
L 353.800459 15.530416 
L 353.800459 14.798535 
L 354.26444 14.798535 
L 354.26444 14.066653 
L 358.103735 14.066653 
L 358.103735 13.334772 
L 358.103735 13.334772 
L 367.82 13.334772 
L 367.82 13.334772 
" style="fill:none;stroke:#00bfbf;stroke-linecap:square;stroke-width:1.5;"/>
   </g>
   <g id="line2d_25">
    <path clip-path="url(#p27850cf569)" d="M 163.778445 276.812 
L 163.778445 265.833782 
L 188.532762 265.833782 
L 188.532762 265.101901 
L 190.526781 265.101901 
L 190.526781 264.37002 
L 191.894372 264.37002 
L 191.894372 263.638139 
L 192.110791 263.638139 
L 192.110791 262.906257 
L 192.345733 262.906257 
L 192.345733 262.174376 
L 192.660476 262.174376 
L 192.660476 261.442495 
L 192.879509 261.442495 
L 192.879509 260.710614 
L 193.874232 260.710614 
L 193.874232 259.978733 
L 194.030255 259.978733 
L 194.133725 258.51497 
L 194.151326 258.51497 
L 194.231951 257.051208 
L 194.340003 257.051208 
L 194.340003 256.319327 
L 195.85769 256.319327 
L 195.85769 255.587446 
L 196.440935 255.587446 
L 196.440935 254.855564 
L 198.306376 254.855564 
L 198.306376 254.123683 
L 198.563851 254.123683 
L 198.563851 253.391802 
L 199.11009 253.391802 
L 199.11009 252.659921 
L 199.443646 252.659921 
L 199.443646 251.92804 
L 199.698923 251.92804 
L 199.698923 251.196158 
L 200.230714 251.196158 
L 200.246815 249.732396 
L 200.800959 249.732396 
L 200.841317 248.268634 
L 201.075802 248.268634 
L 201.075802 247.536752 
L 201.490476 247.536752 
L 201.490476 246.804871 
L 202.267311 246.804871 
L 202.267311 246.07299 
L 202.863037 246.07299 
L 202.863037 245.341109 
L 203.113922 245.341109 
L 203.113922 244.609228 
L 203.807419 244.609228 
L 203.807419 243.877347 
L 204.880318 243.877347 
L 204.880318 243.145465 
L 205.176854 243.145465 
L 205.176854 242.413584 
L 206.715914 242.413584 
L 206.715914 241.681703 
L 206.961738 241.681703 
L 206.961738 240.949822 
L 207.798347 240.949822 
L 207.798347 240.217941 
L 208.320863 240.217941 
L 208.376485 238.754178 
L 208.460103 238.754178 
L 208.460103 238.022297 
L 208.646495 238.022297 
L 208.646495 237.290416 
L 208.867475 237.290416 
L 208.867475 236.558535 
L 209.424295 236.558535 
L 209.424295 235.826653 
L 209.564042 235.826653 
L 209.564042 235.094772 
L 210.015093 235.094772 
L 210.114332 232.167248 
L 210.163483 232.167248 
L 210.163483 231.435366 
L 210.441515 231.435366 
L 210.441515 230.703485 
L 210.740071 230.703485 
L 210.740071 229.971604 
L 211.181187 229.971604 
L 211.181187 229.239723 
L 211.3288 229.239723 
L 211.386516 227.77596 
L 211.462978 227.77596 
L 211.545194 225.580317 
L 211.676884 225.580317 
L 211.676884 224.848436 
L 211.876834 224.848436 
L 211.876834 224.116554 
L 212.29349 224.116554 
L 212.384149 221.18903 
L 212.428439 221.18903 
L 212.471486 219.725267 
L 212.663742 219.725267 
L 212.774408 216.797743 
L 213.583048 216.797743 
L 213.583048 216.065861 
L 214.013957 216.065861 
L 214.013957 215.33398 
L 214.141808 215.33398 
L 214.250008 213.870218 
L 214.561439 213.870218 
L 214.63219 212.406455 
L 214.675857 212.406455 
L 214.783799 210.210812 
L 214.966969 210.210812 
L 215.06274 208.015168 
L 215.081544 208.015168 
L 215.145795 206.551406 
L 215.219228 206.551406 
L 215.301245 203.623881 
L 215.334661 203.623881 
L 215.407913 201.428238 
L 215.535937 201.428238 
L 215.646282 198.500713 
L 215.65116 198.500713 
L 215.755222 196.305069 
L 215.825103 196.305069 
L 215.926218 191.181901 
L 215.945732 191.181901 
L 216.033458 188.254376 
L 216.072947 188.254376 
L 216.072947 187.522495 
L 216.663666 187.522495 
L 216.663666 186.790614 
L 217.72925 186.790614 
L 217.72925 186.058733 
L 217.878867 186.058733 
L 217.881565 184.59497 
L 218.149907 184.59497 
L 218.149907 183.863089 
L 218.462246 183.863089 
L 218.462246 183.131208 
L 218.621142 183.131208 
L 218.621142 182.399327 
L 219.498511 182.399327 
L 219.531394 169.957347 
L 219.728053 169.957347 
L 219.755035 168.493584 
L 219.966869 168.493584 
L 219.966869 167.761703 
L 221.07689 167.761703 
L 221.07689 167.029822 
L 223.462432 167.029822 
L 223.462432 166.297941 
L 225.526255 166.297941 
L 225.624536 164.834178 
L 226.021141 164.834178 
L 226.09873 163.370416 
L 226.440463 163.370416 
L 226.440463 162.638535 
L 226.664313 162.638535 
L 226.664313 161.906653 
L 226.82718 161.906653 
L 226.82718 161.174772 
L 226.948696 161.174772 
L 226.952435 159.71101 
L 227.244425 159.71101 
L 227.244425 158.979129 
L 227.380461 158.979129 
L 227.380461 158.247248 
L 227.716757 158.247248 
L 227.781614 156.051604 
L 227.895821 156.051604 
L 227.895821 155.319723 
L 228.027262 155.319723 
L 228.076424 153.85596 
L 228.282818 153.85596 
L 228.323171 151.660317 
L 228.650844 151.660317 
L 228.74228 148.732792 
L 228.838446 148.732792 
L 228.917051 147.26903 
L 229.203059 147.26903 
L 229.203059 146.537149 
L 229.50106 146.537149 
L 229.50106 145.805267 
L 229.665035 145.805267 
L 229.665035 145.073386 
L 231.157632 145.073386 
L 231.157632 144.341505 
L 231.500625 144.341505 
L 231.500625 143.609624 
L 231.878973 143.609624 
L 231.934012 142.145861 
L 232.652 142.145861 
L 232.721153 139.950218 
L 233.421985 139.950218 
L 233.459423 137.754574 
L 233.586218 137.754574 
L 233.586218 137.022693 
L 233.734607 137.022693 
L 233.784306 135.558931 
L 234.009004 135.558931 
L 234.042999 134.095168 
L 234.144161 134.095168 
L 234.173634 132.631406 
L 234.319229 132.631406 
L 234.372469 130.435762 
L 234.460854 130.435762 
L 234.484413 128.972 
L 234.612679 128.972 
L 234.612679 128.240119 
L 234.756723 128.240119 
L 234.810935 126.044475 
L 235.050136 126.044475 
L 235.051057 124.580713 
L 235.197885 124.580713 
L 235.197885 123.848832 
L 235.330622 123.848832 
L 235.407729 121.653188 
L 235.512729 121.653188 
L 235.512729 120.921307 
L 235.662594 120.921307 
L 235.714708 119.457545 
L 235.891463 119.457545 
L 235.923293 117.993782 
L 236.099359 117.993782 
L 236.145821 115.066257 
L 236.214132 115.066257 
L 236.268818 112.870614 
L 236.483968 112.870614 
L 236.574004 111.406851 
L 236.662949 111.406851 
L 236.751154 109.943089 
L 237.093612 109.943089 
L 237.183801 108.479327 
L 237.511932 108.479327 
L 237.511932 107.747446 
L 238.2618 107.747446 
L 238.2618 107.015564 
L 238.417647 107.015564 
L 238.505707 105.551802 
L 238.889317 105.551802 
L 238.889317 104.819921 
L 239.268726 104.819921 
L 239.268726 104.08804 
L 239.517082 104.08804 
L 239.517082 103.356158 
L 239.909662 103.356158 
L 239.909662 102.624277 
L 240.689672 102.624277 
L 240.689672 101.892396 
L 241.919605 101.892396 
L 241.919605 101.160515 
L 243.051922 101.160515 
L 243.073029 99.696752 
L 243.305281 99.696752 
L 243.305281 98.964871 
L 243.48866 98.964871 
L 243.553053 96.769228 
L 244.195959 96.769228 
L 244.230373 94.573584 
L 244.398572 94.573584 
L 244.398572 93.841703 
L 244.518718 93.841703 
L 244.518718 93.109822 
L 244.651496 93.109822 
L 244.651496 92.377941 
L 244.868837 92.377941 
L 244.868837 91.646059 
L 245.476321 91.646059 
L 245.476321 90.914178 
L 246.144204 90.914178 
L 246.144204 90.182297 
L 247.41184 90.182297 
L 247.41184 89.450416 
L 252.916755 89.450416 
L 252.916755 88.718535 
L 257.067085 88.718535 
L 257.067085 87.986653 
L 260.697508 87.986653 
L 260.697508 87.254772 
L 262.014854 87.254772 
L 262.014854 86.522891 
L 262.279302 86.522891 
L 262.279302 85.79101 
L 264.481282 85.79101 
L 264.481282 74.812792 
L 267.262575 74.812792 
L 267.262575 74.080911 
L 267.648865 74.080911 
L 267.648865 73.34903 
L 268.220578 73.34903 
L 268.220578 72.617149 
L 269.192868 72.617149 
L 269.192868 71.885267 
L 271.11148 71.885267 
L 271.11148 71.153386 
L 271.318741 71.153386 
L 271.318741 70.421505 
L 272.085617 70.421505 
L 272.160759 68.957743 
L 272.812146 68.957743 
L 272.862183 67.49398 
L 272.934429 67.49398 
L 272.934429 66.762099 
L 273.049998 66.762099 
L 273.049998 66.030218 
L 273.857242 66.030218 
L 273.857242 65.298337 
L 273.99098 65.298337 
L 273.99098 64.566455 
L 276.11481 64.566455 
L 276.11481 63.834574 
L 276.416944 63.834574 
L 276.416944 63.102693 
L 276.537973 63.102693 
L 276.537973 62.370812 
L 277.545521 62.370812 
L 277.545521 61.638931 
L 278.104357 61.638931 
L 278.104357 60.90705 
L 281.515811 60.90705 
L 281.579956 59.443287 
L 282.172196 59.443287 
L 282.172196 58.711406 
L 283.073617 58.711406 
L 283.073617 57.979525 
L 287.233298 57.979525 
L 287.233298 57.247644 
L 287.774517 57.247644 
L 287.774517 56.515762 
L 289.798121 56.515762 
L 289.848321 55.052 
L 290.012974 55.052 
L 290.012974 54.320119 
L 290.510916 54.320119 
L 290.510916 53.588238 
L 291.047111 53.588238 
L 291.140549 52.124475 
L 293.280064 52.124475 
L 293.280064 51.392594 
L 294.542989 51.392594 
L 294.542989 50.660713 
L 295.206742 50.660713 
L 295.206742 49.928832 
L 295.490394 49.928832 
L 295.490394 49.19695 
L 295.692583 49.19695 
L 295.692583 48.465069 
L 297.08908 48.465069 
L 297.08908 47.733188 
L 299.093787 47.733188 
L 299.093787 47.001307 
L 299.473847 47.001307 
L 299.473847 46.269426 
L 305.167373 46.269426 
L 305.167373 45.537545 
L 306.603176 45.537545 
L 306.603176 44.805663 
L 307.497062 44.805663 
L 307.497062 44.073782 
L 307.970682 44.073782 
L 307.970682 43.341901 
L 308.086549 43.341901 
L 308.086549 42.61002 
L 308.205906 42.61002 
L 308.205906 41.878139 
L 308.36835 41.878139 
L 308.36835 41.146257 
L 308.630143 41.146257 
L 308.630143 40.414376 
L 309.907048 40.414376 
L 309.907048 39.682495 
L 310.395286 39.682495 
L 310.453159 38.218733 
L 310.8939 38.218733 
L 310.8939 37.486851 
L 311.038422 37.486851 
L 311.038422 36.75497 
L 311.60522 36.75497 
L 311.60522 36.023089 
L 312.315239 36.023089 
L 312.315239 35.291208 
L 312.487163 35.291208 
L 312.487163 34.559327 
L 313.473607 34.559327 
L 313.542197 33.095564 
L 313.756555 33.095564 
L 313.756555 32.363683 
L 313.871374 32.363683 
L 313.886214 30.899921 
L 314.192763 30.899921 
L 314.192763 30.16804 
L 314.697297 30.16804 
L 314.697297 29.436158 
L 314.902829 29.436158 
L 314.902829 28.704277 
L 315.062578 28.704277 
L 315.062578 27.972396 
L 316.232537 27.972396 
L 316.25393 26.508634 
L 316.412466 26.508634 
L 316.412466 25.776752 
L 316.953135 25.776752 
L 316.953135 25.044871 
L 326.345957 25.044871 
L 326.345957 24.31299 
L 341.002144 24.31299 
L 341.002144 23.581109 
L 343.320731 23.581109 
L 343.320731 22.849228 
L 343.68833 22.849228 
L 343.68833 22.117347 
L 343.819474 22.117347 
L 343.819474 21.385465 
L 344.912337 21.385465 
L 344.912337 20.653584 
L 345.561391 20.653584 
L 345.561391 19.921703 
L 346.235667 19.921703 
L 346.235667 19.189822 
L 349.636714 19.189822 
L 349.636714 18.457941 
L 350.920773 18.457941 
L 350.920773 17.726059 
L 351.611287 17.726059 
L 351.611287 16.994178 
L 352.372124 16.994178 
L 352.372124 16.262297 
L 353.453067 16.262297 
L 353.453067 15.530416 
L 353.800459 15.530416 
L 353.800459 14.798535 
L 354.26444 14.798535 
L 354.26444 14.066653 
L 358.103735 14.066653 
L 358.103735 13.334772 
L 358.103735 13.334772 
L 367.82 13.334772 
L 367.82 13.334772 
" style="fill:none;stroke:#bf00bf;stroke-linecap:square;stroke-width:1.5;"/>
   </g>
   <g id="line2d_26">
    <path clip-path="url(#p27850cf569)" d="M 163.778445 276.812 
L 163.778445 265.833782 
L 188.532762 265.833782 
L 188.532762 265.101901 
L 188.909784 265.101901 
L 188.909784 264.37002 
L 189.404852 264.37002 
L 189.404852 263.638139 
L 189.764025 263.638139 
L 189.764025 262.906257 
L 190.149725 262.906257 
L 190.149725 262.174376 
L 190.526781 262.174376 
L 190.526781 261.442495 
L 191.199636 261.442495 
L 191.199636 260.710614 
L 191.69705 260.710614 
L 191.69705 259.978733 
L 191.894372 259.978733 
L 191.894372 259.246851 
L 192.223259 259.246851 
L 192.242722 257.783089 
L 192.879509 257.783089 
L 192.879509 257.051208 
L 193.145059 257.051208 
L 193.145059 256.319327 
L 194.268085 256.319327 
L 194.340003 254.855564 
L 198.306376 254.855564 
L 198.306376 254.123683 
L 198.563851 254.123683 
L 198.563851 253.391802 
L 198.693728 253.391802 
L 198.693728 252.659921 
L 199.11009 252.659921 
L 199.11009 251.92804 
L 199.443646 251.92804 
L 199.443646 251.196158 
L 199.663561 251.196158 
L 199.698923 249.732396 
L 200.003244 249.732396 
L 200.007412 248.268634 
L 200.246815 248.268634 
L 200.246815 247.536752 
L 200.619248 247.536752 
L 200.619248 246.804871 
L 201.490476 246.804871 
L 201.490476 246.07299 
L 202.267311 246.07299 
L 202.267311 245.341109 
L 203.113922 245.341109 
L 203.113922 244.609228 
L 203.807419 244.609228 
L 203.807419 243.877347 
L 204.880318 243.877347 
L 204.880318 243.145465 
L 205.098837 243.145465 
L 205.098837 242.413584 
L 206.715914 242.413584 
L 206.715914 241.681703 
L 206.961738 241.681703 
L 206.961738 240.949822 
L 207.614713 240.949822 
L 207.614713 240.217941 
L 207.798347 240.217941 
L 207.798347 239.486059 
L 208.320863 239.486059 
L 208.320863 238.754178 
L 208.460103 238.754178 
L 208.460103 238.022297 
L 208.646495 238.022297 
L 208.713011 235.826653 
L 208.867475 235.826653 
L 208.952027 233.63101 
L 209.240036 233.63101 
L 209.240036 232.899129 
L 209.424295 232.899129 
L 209.424295 232.167248 
L 209.565021 232.167248 
L 209.673088 229.971604 
L 209.810743 229.971604 
L 209.810743 229.239723 
L 210.015093 229.239723 
L 210.114332 226.312198 
L 210.163483 226.312198 
L 210.163483 225.580317 
L 210.50716 225.580317 
L 210.50716 224.848436 
L 210.627332 224.848436 
L 210.707294 223.384673 
L 210.748735 223.384673 
L 210.748735 222.652792 
L 211.182356 222.652792 
L 211.182356 221.920911 
L 211.3288 221.920911 
L 211.3288 221.18903 
L 211.462978 221.18903 
L 211.545194 219.725267 
L 211.676884 219.725267 
L 211.676884 218.993386 
L 211.978079 218.993386 
L 211.978079 218.261505 
L 212.288734 218.261505 
L 212.364605 216.065861 
L 212.471486 216.065861 
L 212.471486 215.33398 
L 212.697082 215.33398 
L 212.697082 214.602099 
L 212.952694 214.602099 
L 212.952694 213.870218 
L 213.208599 213.870218 
L 213.208599 213.138337 
L 214.141808 213.138337 
L 214.250008 211.674574 
L 214.561439 211.674574 
L 214.595534 210.210812 
L 214.675857 210.210812 
L 214.783799 207.283287 
L 214.959817 207.283287 
L 215.06274 205.087644 
L 215.07213 205.087644 
L 215.145795 203.623881 
L 215.219228 203.623881 
L 215.318579 199.232594 
L 215.407913 199.232594 
L 215.407913 198.500713 
L 215.535937 198.500713 
L 215.646282 194.841307 
L 215.65116 194.841307 
L 215.755222 191.913782 
L 215.7707 191.913782 
L 215.848602 189.718139 
L 215.883741 189.718139 
L 215.923894 188.254376 
L 216.033458 188.254376 
L 216.033458 187.522495 
L 216.663666 187.522495 
L 216.663666 186.790614 
L 217.235729 186.790614 
L 217.235729 186.058733 
L 217.72925 186.058733 
L 217.72925 185.326851 
L 217.878867 185.326851 
L 217.925349 183.863089 
L 218.009291 183.863089 
L 218.009291 183.131208 
L 218.462246 183.131208 
L 218.462246 182.399327 
L 218.621142 182.399327 
L 218.621142 181.667446 
L 219.498511 181.667446 
L 219.531394 169.225465 
L 219.755035 169.225465 
L 219.755035 168.493584 
L 219.96391 168.493584 
L 219.966869 167.029822 
L 223.246971 167.029822 
L 223.246971 166.297941 
L 223.705664 166.297941 
L 223.705664 165.566059 
L 225.081734 165.566059 
L 225.081734 164.834178 
L 225.413159 164.834178 
L 225.413159 164.102297 
L 225.526255 164.102297 
L 225.624536 162.638535 
L 226.021141 162.638535 
L 226.09873 161.174772 
L 226.417687 161.174772 
L 226.440463 159.71101 
L 226.620868 159.71101 
L 226.620868 158.979129 
L 226.750602 158.979129 
L 226.804421 156.783485 
L 226.948696 156.783485 
L 227.045789 155.319723 
L 227.244425 155.319723 
L 227.244425 154.587842 
L 227.704816 154.587842 
L 227.781614 150.928436 
L 227.895821 150.928436 
L 227.895821 150.196554 
L 228.289112 150.196554 
L 228.323171 148.732792 
L 228.650844 148.732792 
L 228.695975 146.537149 
L 228.838446 146.537149 
L 228.838446 145.805267 
L 229.203059 145.805267 
L 229.203059 145.073386 
L 229.50106 145.073386 
L 229.50106 144.341505 
L 229.665035 144.341505 
L 229.665035 143.609624 
L 231.116736 143.609624 
L 231.157632 142.145861 
L 231.500625 142.145861 
L 231.500625 141.41398 
L 231.854402 141.41398 
L 231.934012 139.218337 
L 232.35329 139.218337 
L 232.393658 137.754574 
L 232.641807 137.754574 
L 232.705266 135.558931 
L 232.959651 135.558931 
L 232.959651 134.82705 
L 233.421985 134.82705 
L 233.459423 132.631406 
L 233.586218 132.631406 
L 233.586218 131.899525 
L 233.734607 131.899525 
L 233.784306 130.435762 
L 234.009004 130.435762 
L 234.042999 128.972 
L 234.173634 128.972 
L 234.173634 128.240119 
L 234.319229 128.240119 
L 234.372469 126.044475 
L 234.460854 126.044475 
L 234.544115 123.848832 
L 234.612679 123.848832 
L 234.713524 121.653188 
L 234.727514 121.653188 
L 234.837607 118.725663 
L 234.897248 118.725663 
L 234.96517 117.261901 
L 235.050136 117.261901 
L 235.112333 115.066257 
L 235.330622 115.066257 
L 235.407729 112.870614 
L 235.512729 112.870614 
L 235.525578 111.406851 
L 235.714708 111.406851 
L 235.714708 110.67497 
L 235.87474 110.67497 
L 235.974813 108.479327 
L 236.099359 108.479327 
L 236.145821 104.819921 
L 236.214132 104.819921 
L 236.268818 102.624277 
L 236.459229 102.624277 
L 236.459229 101.892396 
L 236.662949 101.892396 
L 236.751154 100.428634 
L 238.610559 100.428634 
L 238.610559 99.696752 
L 238.889317 99.696752 
L 238.889317 98.964871 
L 239.517082 98.964871 
L 239.541179 97.501109 
L 239.909662 97.501109 
L 239.909662 96.769228 
L 243.051922 96.769228 
L 243.073029 95.305465 
L 243.305281 95.305465 
L 243.305281 94.573584 
L 243.48866 94.573584 
L 243.553053 92.377941 
L 243.654131 92.377941 
L 243.654131 91.646059 
L 244.205503 91.646059 
L 244.230373 90.182297 
L 244.398572 90.182297 
L 244.398572 89.450416 
L 244.518718 89.450416 
L 244.518718 88.718535 
L 244.651496 88.718535 
L 244.651496 87.986653 
L 244.868837 87.986653 
L 244.868837 87.254772 
L 245.067146 87.254772 
L 245.067146 86.522891 
L 246.091156 86.522891 
L 246.091156 85.79101 
L 250.422389 85.79101 
L 250.422389 85.059129 
L 251.654419 85.059129 
L 251.654419 84.327248 
L 257.067085 84.327248 
L 257.161668 82.863485 
L 260.521976 82.863485 
L 260.521976 82.131604 
L 264.481282 82.131604 
L 264.481282 71.153386 
L 267.262575 71.153386 
L 267.262575 70.421505 
L 267.648865 70.421505 
L 267.648865 69.689624 
L 268.220578 69.689624 
L 268.220578 68.957743 
L 268.351552 68.957743 
L 268.351552 68.225861 
L 269.192868 68.225861 
L 269.192868 67.49398 
L 270.779119 67.49398 
L 270.779119 66.762099 
L 271.11148 66.762099 
L 271.11148 66.030218 
L 271.318741 66.030218 
L 271.318741 65.298337 
L 272.812146 65.298337 
L 272.862183 63.834574 
L 273.049998 63.834574 
L 273.049998 63.102693 
L 273.857242 63.102693 
L 273.857242 62.370812 
L 273.99098 62.370812 
L 273.99098 61.638931 
L 276.416944 61.638931 
L 276.416944 60.90705 
L 276.537973 60.90705 
L 276.537973 60.175168 
L 277.545521 60.175168 
L 277.545521 59.443287 
L 278.104357 59.443287 
L 278.104357 58.711406 
L 282.133946 58.711406 
L 282.172196 57.247644 
L 287.233298 57.247644 
L 287.233298 56.515762 
L 287.774517 56.515762 
L 287.774517 55.783881 
L 289.798121 55.783881 
L 289.88752 53.588238 
L 290.012974 53.588238 
L 290.012974 52.856356 
L 290.510916 52.856356 
L 290.510916 52.124475 
L 290.65429 52.124475 
L 290.65429 51.392594 
L 291.047111 51.392594 
L 291.047111 50.660713 
L 293.980065 50.660713 
L 293.980065 49.928832 
L 294.542989 49.928832 
L 294.542989 49.19695 
L 295.282548 49.19695 
L 295.282548 48.465069 
L 295.490394 48.465069 
L 295.490394 47.733188 
L 295.830172 47.733188 
L 295.830172 47.001307 
L 299.093787 47.001307 
L 299.093787 46.269426 
L 300.356823 46.269426 
L 300.356823 45.537545 
L 303.798615 45.537545 
L 303.798615 44.805663 
L 305.167373 44.805663 
L 305.167373 44.073782 
L 306.603176 44.073782 
L 306.603176 43.341901 
L 306.76916 43.341901 
L 306.76916 42.61002 
L 307.842596 42.61002 
L 307.850769 41.146257 
L 307.970682 41.146257 
L 307.970682 40.414376 
L 308.205906 40.414376 
L 308.298694 38.950614 
L 308.36835 38.950614 
L 308.36835 38.218733 
L 308.630143 38.218733 
L 308.630143 37.486851 
L 309.421586 37.486851 
L 309.421586 36.75497 
L 309.907048 36.75497 
L 309.907048 36.023089 
L 310.109957 36.023089 
L 310.109957 35.291208 
L 310.395286 35.291208 
L 310.395286 34.559327 
L 310.8939 34.559327 
L 310.8939 33.827446 
L 311.038422 33.827446 
L 311.038422 33.095564 
L 311.560192 33.095564 
L 311.60522 31.631802 
L 312.132045 31.631802 
L 312.132045 30.899921 
L 312.362049 30.899921 
L 312.438012 29.436158 
L 312.53812 29.436158 
L 312.53812 28.704277 
L 312.742166 28.704277 
L 312.742166 27.972396 
L 313.183854 27.972396 
L 313.183854 27.240515 
L 313.462886 27.240515 
L 313.462886 26.508634 
L 314.902829 26.508634 
L 314.902829 25.776752 
L 315.062578 25.776752 
L 315.062578 25.044871 
L 315.992674 25.044871 
L 315.992674 24.31299 
L 341.002144 24.31299 
L 341.002144 23.581109 
L 343.320731 23.581109 
L 343.320731 22.849228 
L 343.68833 22.849228 
L 343.68833 22.117347 
L 343.819474 22.117347 
L 343.819474 21.385465 
L 344.912337 21.385465 
L 344.912337 20.653584 
L 345.561391 20.653584 
L 345.561391 19.921703 
L 346.055139 19.921703 
L 346.055139 19.189822 
L 346.235667 19.189822 
L 346.235667 18.457941 
L 348.353375 18.457941 
L 348.353375 17.726059 
L 349.636714 17.726059 
L 349.636714 16.994178 
L 350.920773 16.994178 
L 350.920773 16.262297 
L 351.052931 16.262297 
L 351.052931 15.530416 
L 352.398501 15.530416 
L 352.398501 14.798535 
L 352.868473 14.798535 
L 352.868473 14.066653 
L 353.308061 14.066653 
L 353.308061 13.334772 
L 353.308061 13.334772 
L 367.82 13.334772 
L 367.82 13.334772 
" style="fill:none;stroke:#000000;stroke-linecap:square;stroke-width:1.5;"/>
   </g>
   <g id="patch_3">
    <path d="M 10.7 276.812 
L 10.7 10.7 
" style="fill:none;stroke:#000000;stroke-linecap:square;stroke-linejoin:miter;stroke-width:0.8;"/>
   </g>
   <g id="patch_4">
    <path d="M 367.82 276.812 
L 367.82 10.7 
" style="fill:none;stroke:#000000;stroke-linecap:square;stroke-linejoin:miter;stroke-width:0.8;"/>
   </g>
   <g id="patch_5">
    <path d="M 10.7 276.812 
L 367.82 276.812 
" style="fill:none;stroke:#000000;stroke-linecap:square;stroke-linejoin:miter;stroke-width:0.8;"/>
   </g>
   <g id="patch_6">
    <path d="M 10.7 10.7 
L 367.82 10.7 
" style="fill:none;stroke:#000000;stroke-linecap:square;stroke-linejoin:miter;stroke-width:0.8;"/>
   </g>
   <g id="text_6">
    <!-- {f1-f24}, 20-D -->
    <defs>
     <path d="M 51.125 -9.28125 
L 51.125 -16.3125 
L 48.09375 -16.3125 
Q 35.9375 -16.3125 31.8125 -12.6875 
Q 27.6875 -9.078125 27.6875 1.703125 
L 27.6875 13.375 
Q 27.6875 20.75 25.046875 23.578125 
Q 22.40625 26.421875 15.484375 26.421875 
L 12.5 26.421875 
L 12.5 33.40625 
L 15.484375 33.40625 
Q 22.46875 33.40625 25.078125 36.203125 
Q 27.6875 39.015625 27.6875 46.296875 
L 27.6875 58.015625 
Q 27.6875 68.796875 31.8125 72.390625 
Q 35.9375 75.984375 48.09375 75.984375 
L 51.125 75.984375 
L 51.125 69 
L 47.796875 69 
Q 40.921875 69 38.8125 66.84375 
Q 36.71875 64.703125 36.71875 57.8125 
L 36.71875 45.703125 
Q 36.71875 38.03125 34.5 34.5625 
Q 32.28125 31.109375 26.90625 29.890625 
Q 32.328125 28.5625 34.515625 25.09375 
Q 36.71875 21.625 36.71875 14.015625 
L 36.71875 1.90625 
Q 36.71875 -4.984375 38.8125 -7.125 
Q 40.921875 -9.28125 47.796875 -9.28125 
z
" id="DejaVuSans-7b"/>
     <path d="M 19.1875 8.296875 
L 53.609375 8.296875 
L 53.609375 0 
L 7.328125 0 
L 7.328125 8.296875 
Q 12.9375 14.109375 22.625 23.890625 
Q 32.328125 33.6875 34.8125 36.53125 
Q 39.546875 41.84375 41.421875 45.53125 
Q 43.3125 49.21875 43.3125 52.78125 
Q 43.3125 58.59375 39.234375 62.25 
Q 35.15625 65.921875 28.609375 65.921875 
Q 23.96875 65.921875 18.8125 64.3125 
Q 13.671875 62.703125 7.8125 59.421875 
L 7.8125 69.390625 
Q 13.765625 71.78125 18.9375 73 
Q 24.125 74.21875 28.421875 74.21875 
Q 39.75 74.21875 46.484375 68.546875 
Q 53.21875 62.890625 53.21875 53.421875 
Q 53.21875 48.921875 51.53125 44.890625 
Q 49.859375 40.875 45.40625 35.40625 
Q 44.1875 33.984375 37.640625 27.21875 
Q 31.109375 20.453125 19.1875 8.296875 
z
" id="DejaVuSans-32"/>
     <path d="M 12.5 -9.28125 
L 15.921875 -9.28125 
Q 22.75 -9.28125 24.828125 -7.171875 
Q 26.90625 -5.078125 26.90625 1.90625 
L 26.90625 14.015625 
Q 26.90625 21.625 29.09375 25.09375 
Q 31.296875 28.5625 36.71875 29.890625 
Q 31.296875 31.109375 29.09375 34.5625 
Q 26.90625 38.03125 26.90625 45.703125 
L 26.90625 57.8125 
Q 26.90625 64.75 24.828125 66.875 
Q 22.75 69 15.921875 69 
L 12.5 69 
L 12.5 75.984375 
L 15.578125 75.984375 
Q 27.734375 75.984375 31.8125 72.390625 
Q 35.890625 68.796875 35.890625 58.015625 
L 35.890625 46.296875 
Q 35.890625 39.015625 38.515625 36.203125 
Q 41.15625 33.40625 48.09375 33.40625 
L 51.125 33.40625 
L 51.125 26.421875 
L 48.09375 26.421875 
Q 41.15625 26.421875 38.515625 23.578125 
Q 35.890625 20.75 35.890625 13.375 
L 35.890625 1.703125 
Q 35.890625 -9.078125 31.8125 -12.6875 
Q 27.734375 -16.3125 15.578125 -16.3125 
L 12.5 -16.3125 
z
" id="DejaVuSans-7d"/>
     <path d="M 11.71875 12.40625 
L 22.015625 12.40625 
L 22.015625 4 
L 14.015625 -11.625 
L 7.71875 -11.625 
L 11.71875 4 
z
" id="DejaVuSans-2c"/>
    </defs>
    <g transform="translate(214.9776 271.48976)scale(0.2 -0.2)">
     <use xlink:href="#DejaVuSans-7b"/>
     <use x="63.623047" xlink:href="#DejaVuSans-66"/>
     <use x="98.828125" xlink:href="#DejaVuSans-31"/>
     <use x="162.451172" xlink:href="#DejaVuSans-2d"/>
     <use x="198.535156" xlink:href="#DejaVuSans-66"/>
     <use x="233.740234" xlink:href="#DejaVuSans-32"/>
     <use x="297.363281" xlink:href="#DejaVuSans-34"/>
     <use x="360.986328" xlink:href="#DejaVuSans-7d"/>
     <use x="424.609375" xlink:href="#DejaVuSans-2c"/>
     <use x="456.396484" xlink:href="#DejaVuSans-20"/>
     <use x="488.183594" xlink:href="#DejaVuSans-32"/>
     <use x="551.806641" xlink:href="#DejaVuSans-30"/>
     <use x="615.429688" xlink:href="#DejaVuSans-2d"/>
     <use x="651.513672" xlink:href="#DejaVuSans-44"/>
    </g>
   </g>
   <g id="text_7">
    <!-- v-coco-version -->
    <defs>
     <path d="M 2.984375 54.6875 
L 12.5 54.6875 
L 29.59375 8.796875 
L 46.6875 54.6875 
L 56.203125 54.6875 
L 35.6875 0 
L 23.484375 0 
z
" id="DejaVuSans-76"/>
     <path d="M 48.78125 52.59375 
L 48.78125 44.1875 
Q 44.96875 46.296875 41.140625 47.34375 
Q 37.3125 48.390625 33.40625 48.390625 
Q 24.65625 48.390625 19.8125 42.84375 
Q 14.984375 37.3125 14.984375 27.296875 
Q 14.984375 17.28125 19.8125 11.734375 
Q 24.65625 6.203125 33.40625 6.203125 
Q 37.3125 6.203125 41.140625 7.25 
Q 44.96875 8.296875 48.78125 10.40625 
L 48.78125 2.09375 
Q 45.015625 0.34375 40.984375 -0.53125 
Q 36.96875 -1.421875 32.421875 -1.421875 
Q 20.0625 -1.421875 12.78125 6.34375 
Q 5.515625 14.109375 5.515625 27.296875 
Q 5.515625 40.671875 12.859375 48.328125 
Q 20.21875 56 33.015625 56 
Q 37.15625 56 41.109375 55.140625 
Q 45.0625 54.296875 48.78125 52.59375 
z
" id="DejaVuSans-63"/>
     <path d="M 56.203125 29.59375 
L 56.203125 25.203125 
L 14.890625 25.203125 
Q 15.484375 15.921875 20.484375 11.0625 
Q 25.484375 6.203125 34.421875 6.203125 
Q 39.59375 6.203125 44.453125 7.46875 
Q 49.3125 8.734375 54.109375 11.28125 
L 54.109375 2.78125 
Q 49.265625 0.734375 44.1875 -0.34375 
Q 39.109375 -1.421875 33.890625 -1.421875 
Q 20.796875 -1.421875 13.15625 6.1875 
Q 5.515625 13.8125 5.515625 26.8125 
Q 5.515625 40.234375 12.765625 48.109375 
Q 20.015625 56 32.328125 56 
Q 43.359375 56 49.78125 48.890625 
Q 56.203125 41.796875 56.203125 29.59375 
z
M 47.21875 32.234375 
Q 47.125 39.59375 43.09375 43.984375 
Q 39.0625 48.390625 32.421875 48.390625 
Q 24.90625 48.390625 20.390625 44.140625 
Q 15.875 39.890625 15.1875 32.171875 
z
" id="DejaVuSans-65"/>
     <path d="M 41.109375 46.296875 
Q 39.59375 47.171875 37.8125 47.578125 
Q 36.03125 48 33.890625 48 
Q 26.265625 48 22.1875 43.046875 
Q 18.109375 38.09375 18.109375 28.8125 
L 18.109375 0 
L 9.078125 0 
L 9.078125 54.6875 
L 18.109375 54.6875 
L 18.109375 46.1875 
Q 20.953125 51.171875 25.484375 53.578125 
Q 30.03125 56 36.53125 56 
Q 37.453125 56 38.578125 55.875 
Q 39.703125 55.765625 41.0625 55.515625 
z
" id="DejaVuSans-72"/>
     <path d="M 44.28125 53.078125 
L 44.28125 44.578125 
Q 40.484375 46.53125 36.375 47.5 
Q 32.28125 48.484375 27.875 48.484375 
Q 21.1875 48.484375 17.84375 46.4375 
Q 14.5 44.390625 14.5 40.28125 
Q 14.5 37.15625 16.890625 35.375 
Q 19.28125 33.59375 26.515625 31.984375 
L 29.59375 31.296875 
Q 39.15625 29.25 43.1875 25.515625 
Q 47.21875 21.78125 47.21875 15.09375 
Q 47.21875 7.46875 41.1875 3.015625 
Q 35.15625 -1.421875 24.609375 -1.421875 
Q 20.21875 -1.421875 15.453125 -0.5625 
Q 10.6875 0.296875 5.421875 2 
L 5.421875 11.28125 
Q 10.40625 8.6875 15.234375 7.390625 
Q 20.0625 6.109375 24.8125 6.109375 
Q 31.15625 6.109375 34.5625 8.28125 
Q 37.984375 10.453125 37.984375 14.40625 
Q 37.984375 18.0625 35.515625 20.015625 
Q 33.0625 21.96875 24.703125 23.78125 
L 21.578125 24.515625 
Q 13.234375 26.265625 9.515625 29.90625 
Q 5.8125 33.546875 5.8125 39.890625 
Q 5.8125 47.609375 11.28125 51.796875 
Q 16.75 56 26.8125 56 
Q 31.78125 56 36.171875 55.265625 
Q 40.578125 54.546875 44.28125 53.078125 
z
" id="DejaVuSans-73"/>
     <path d="M 9.421875 54.6875 
L 18.40625 54.6875 
L 18.40625 0 
L 9.421875 0 
z
M 9.421875 75.984375 
L 18.40625 75.984375 
L 18.40625 64.59375 
L 9.421875 64.59375 
z
" id="DejaVuSans-69"/>
     <path d="M 54.890625 33.015625 
L 54.890625 0 
L 45.90625 0 
L 45.90625 32.71875 
Q 45.90625 40.484375 42.875 44.328125 
Q 39.84375 48.1875 33.796875 48.1875 
Q 26.515625 48.1875 22.3125 43.546875 
Q 18.109375 38.921875 18.109375 30.90625 
L 18.109375 0 
L 9.078125 0 
L 9.078125 54.6875 
L 18.109375 54.6875 
L 18.109375 46.1875 
Q 21.34375 51.125 25.703125 53.5625 
Q 30.078125 56 35.796875 56 
Q 45.21875 56 50.046875 50.171875 
Q 54.890625 44.34375 54.890625 33.015625 
z
" id="DejaVuSans-6e"/>
    </defs>
    <g style="fill:#808080;" transform="translate(152.764688 272.071193)scale(0.1 -0.1)">
     <use xlink:href="#DejaVuSans-76"/>
     <use x="59.148438" xlink:href="#DejaVuSans-2d"/>
     <use x="95.232422" xlink:href="#DejaVuSans-63"/>
     <use x="150.212891" xlink:href="#DejaVuSans-6f"/>
     <use x="211.394531" xlink:href="#DejaVuSans-63"/>
     <use x="266.375" xlink:href="#DejaVuSans-6f"/>
     <use x="327.572266" xlink:href="#DejaVuSans-2d"/>
     <use x="363.625" xlink:href="#DejaVuSans-76"/>
     <use x="422.804688" xlink:href="#DejaVuSans-65"/>
     <use x="484.328125" xlink:href="#DejaVuSans-72"/>
     <use x="525.441406" xlink:href="#DejaVuSans-73"/>
     <use x="577.541016" xlink:href="#DejaVuSans-69"/>
     <use x="605.324219" xlink:href="#DejaVuSans-6f"/>
     <use x="666.505859" xlink:href="#DejaVuSans-6e"/>
    </g>
   </g>
  </g>
 </g>
 <defs>
  <clipPath id="p27850cf569">
   <rect height="266.112" width="357.12" x="10.7" y="10.7"/>
  </clipPath>
 </defs>
</svg>
