<?xml version="1.0" encoding="utf-8" standalone="no"?>
<!DOCTYPE svg PUBLIC "-//W3C//DTD SVG 1.1//EN"
  "http://www.w3.org/Graphics/SVG/1.1/DTD/svg11.dtd">
<!-- Created with matplotlib (http://matplotlib.org/) -->
<svg height="333.7245pt" version="1.1" viewBox="0 0 378.52 333.7245" width="378.52pt" xmlns="http://www.w3.org/2000/svg" xmlns:xlink="http://www.w3.org/1999/xlink">
 <defs>
  <style type="text/css">
*{stroke-linecap:butt;stroke-linejoin:round;}
  </style>
 </defs>
 <g id="figure_1">
  <g id="patch_1">
   <path d="M 0 333.7245 
L 378.52 333.7245 
L 378.52 0 
L 0 0 
z
" style="fill:#ffffff;"/>
  </g>
  <g id="axes_1">
   <g id="patch_2">
    <path d="M 10.7 276.812 
L 367.82 276.812 
L 367.82 10.7 
L 10.7 10.7 
z
" style="fill:#ffffff;"/>
   </g>
   <g id="matplotlib.axis_1">
    <g id="xtick_1">
     <g id="line2d_1">
      <path clip-path="url(#p6ccbc9b11a)" d="M 10.609618 276.812 
L 10.609618 10.7 
" style="fill:none;stroke:#b0b0b0;stroke-linecap:square;stroke-width:0.8;"/>
     </g>
     <g id="line2d_2">
      <defs>
       <path d="M 0 0 
L 0 3.5 
" id="m418e25ae33" style="stroke:#000000;stroke-width:0.8;"/>
      </defs>
      <g>
       <use style="stroke:#000000;stroke-width:0.8;" x="10.609618" xlink:href="#m418e25ae33" y="276.812"/>
      </g>
     </g>
    </g>
    <g id="xtick_2">
     <g id="line2d_3">
      <path clip-path="url(#p6ccbc9b11a)" d="M 94.269693 276.812 
L 94.269693 10.7 
" style="fill:none;stroke:#b0b0b0;stroke-linecap:square;stroke-width:0.8;"/>
     </g>
     <g id="line2d_4">
      <g>
       <use style="stroke:#000000;stroke-width:0.8;" x="94.269693" xlink:href="#m418e25ae33" y="276.812"/>
      </g>
     </g>
     <g id="text_1">
      <!-- -4 -->
      <defs>
       <path d="M 4.890625 31.390625 
L 31.203125 31.390625 
L 31.203125 23.390625 
L 4.890625 23.390625 
z
" id="DejaVuSans-2d"/>
       <path d="M 37.796875 64.3125 
L 12.890625 25.390625 
L 37.796875 25.390625 
z
M 35.203125 72.90625 
L 47.609375 72.90625 
L 47.609375 25.390625 
L 58.015625 25.390625 
L 58.015625 17.1875 
L 47.609375 17.1875 
L 47.609375 0 
L 37.796875 0 
L 37.796875 17.1875 
L 4.890625 17.1875 
L 4.890625 26.703125 
z
" id="DejaVuSans-34"/>
      </defs>
      <g transform="translate(84.299381 299.008875)scale(0.2 -0.2)">
       <use xlink:href="#DejaVuSans-2d"/>
       <use x="36.083984" xlink:href="#DejaVuSans-34"/>
      </g>
     </g>
    </g>
    <g id="xtick_3">
     <g id="line2d_5">
      <path clip-path="url(#p6ccbc9b11a)" d="M 177.929768 276.812 
L 177.929768 10.7 
" style="fill:none;stroke:#b0b0b0;stroke-linecap:square;stroke-width:0.8;"/>
     </g>
     <g id="line2d_6">
      <g>
       <use style="stroke:#000000;stroke-width:0.8;" x="177.929768" xlink:href="#m418e25ae33" y="276.812"/>
      </g>
     </g>
     <g id="text_2">
      <!-- 0 -->
      <defs>
       <path d="M 31.78125 66.40625 
Q 24.171875 66.40625 20.328125 58.90625 
Q 16.5 51.421875 16.5 36.375 
Q 16.5 21.390625 20.328125 13.890625 
Q 24.171875 6.390625 31.78125 6.390625 
Q 39.453125 6.390625 43.28125 13.890625 
Q 47.125 21.390625 47.125 36.375 
Q 47.125 51.421875 43.28125 58.90625 
Q 39.453125 66.40625 31.78125 66.40625 
z
M 31.78125 74.21875 
Q 44.046875 74.21875 50.515625 64.515625 
Q 56.984375 54.828125 56.984375 36.375 
Q 56.984375 17.96875 50.515625 8.265625 
Q 44.046875 -1.421875 31.78125 -1.421875 
Q 19.53125 -1.421875 13.0625 8.265625 
Q 6.59375 17.96875 6.59375 36.375 
Q 6.59375 54.828125 13.0625 64.515625 
Q 19.53125 74.21875 31.78125 74.21875 
z
" id="DejaVuSans-30"/>
      </defs>
      <g transform="translate(171.567268 299.008875)scale(0.2 -0.2)">
       <use xlink:href="#DejaVuSans-30"/>
      </g>
     </g>
    </g>
    <g id="xtick_4">
     <g id="line2d_7">
      <path clip-path="url(#p6ccbc9b11a)" d="M 261.589843 276.812 
L 261.589843 10.7 
" style="fill:none;stroke:#b0b0b0;stroke-linecap:square;stroke-width:0.8;"/>
     </g>
     <g id="line2d_8">
      <g>
       <use style="stroke:#000000;stroke-width:0.8;" x="261.589843" xlink:href="#m418e25ae33" y="276.812"/>
      </g>
     </g>
     <g id="text_3">
      <!-- 4 -->
      <g transform="translate(255.227343 299.008875)scale(0.2 -0.2)">
       <use xlink:href="#DejaVuSans-34"/>
      </g>
     </g>
    </g>
    <g id="xtick_5">
     <g id="line2d_9">
      <path clip-path="url(#p6ccbc9b11a)" d="M 345.249918 276.812 
L 345.249918 10.7 
" style="fill:none;stroke:#b0b0b0;stroke-linecap:square;stroke-width:0.8;"/>
     </g>
     <g id="line2d_10">
      <g>
       <use style="stroke:#000000;stroke-width:0.8;" x="345.249918" xlink:href="#m418e25ae33" y="276.812"/>
      </g>
     </g>
     <g id="text_4">
      <!-- 8 -->
      <defs>
       <path d="M 31.78125 34.625 
Q 24.75 34.625 20.71875 30.859375 
Q 16.703125 27.09375 16.703125 20.515625 
Q 16.703125 13.921875 20.71875 10.15625 
Q 24.75 6.390625 31.78125 6.390625 
Q 38.8125 6.390625 42.859375 10.171875 
Q 46.921875 13.96875 46.921875 20.515625 
Q 46.921875 27.09375 42.890625 30.859375 
Q 38.875 34.625 31.78125 34.625 
z
M 21.921875 38.8125 
Q 15.578125 40.375 12.03125 44.71875 
Q 8.5 49.078125 8.5 55.328125 
Q 8.5 64.0625 14.71875 69.140625 
Q 20.953125 74.21875 31.78125 74.21875 
Q 42.671875 74.21875 48.875 69.140625 
Q 55.078125 64.0625 55.078125 55.328125 
Q 55.078125 49.078125 51.53125 44.71875 
Q 48 40.375 41.703125 38.8125 
Q 48.828125 37.15625 52.796875 32.3125 
Q 56.78125 27.484375 56.78125 20.515625 
Q 56.78125 9.90625 50.3125 4.234375 
Q 43.84375 -1.421875 31.78125 -1.421875 
Q 19.734375 -1.421875 13.25 4.234375 
Q 6.78125 9.90625 6.78125 20.515625 
Q 6.78125 27.484375 10.78125 32.3125 
Q 14.796875 37.15625 21.921875 38.8125 
z
M 18.3125 54.390625 
Q 18.3125 48.734375 21.84375 45.5625 
Q 25.390625 42.390625 31.78125 42.390625 
Q 38.140625 42.390625 41.71875 45.5625 
Q 45.3125 48.734375 45.3125 54.390625 
Q 45.3125 60.0625 41.71875 63.234375 
Q 38.140625 66.40625 31.78125 66.40625 
Q 25.390625 66.40625 21.84375 63.234375 
Q 18.3125 60.0625 18.3125 54.390625 
z
" id="DejaVuSans-38"/>
      </defs>
      <g transform="translate(338.887418 299.008875)scale(0.2 -0.2)">
       <use xlink:href="#DejaVuSans-38"/>
      </g>
     </g>
    </g>
    <g id="text_5">
     <!-- log10 of Df -->
     <defs>
      <path d="M 9.421875 75.984375 
L 18.40625 75.984375 
L 18.40625 0 
L 9.421875 0 
z
" id="DejaVuSans-6c"/>
      <path d="M 30.609375 48.390625 
Q 23.390625 48.390625 19.1875 42.75 
Q 14.984375 37.109375 14.984375 27.296875 
Q 14.984375 17.484375 19.15625 11.84375 
Q 23.34375 6.203125 30.609375 6.203125 
Q 37.796875 6.203125 41.984375 11.859375 
Q 46.1875 17.53125 46.1875 27.296875 
Q 46.1875 37.015625 41.984375 42.703125 
Q 37.796875 48.390625 30.609375 48.390625 
z
M 30.609375 56 
Q 42.328125 56 49.015625 48.375 
Q 55.71875 40.765625 55.71875 27.296875 
Q 55.71875 13.875 49.015625 6.21875 
Q 42.328125 -1.421875 30.609375 -1.421875 
Q 18.84375 -1.421875 12.171875 6.21875 
Q 5.515625 13.875 5.515625 27.296875 
Q 5.515625 40.765625 12.171875 48.375 
Q 18.84375 56 30.609375 56 
z
" id="DejaVuSans-6f"/>
      <path d="M 45.40625 27.984375 
Q 45.40625 37.75 41.375 43.109375 
Q 37.359375 48.484375 30.078125 48.484375 
Q 22.859375 48.484375 18.828125 43.109375 
Q 14.796875 37.75 14.796875 27.984375 
Q 14.796875 18.265625 18.828125 12.890625 
Q 22.859375 7.515625 30.078125 7.515625 
Q 37.359375 7.515625 41.375 12.890625 
Q 45.40625 18.265625 45.40625 27.984375 
z
M 54.390625 6.78125 
Q 54.390625 -7.171875 48.1875 -13.984375 
Q 42 -20.796875 29.203125 -20.796875 
Q 24.46875 -20.796875 20.265625 -20.09375 
Q 16.0625 -19.390625 12.109375 -17.921875 
L 12.109375 -9.1875 
Q 16.0625 -11.328125 19.921875 -12.34375 
Q 23.78125 -13.375 27.78125 -13.375 
Q 36.625 -13.375 41.015625 -8.765625 
Q 45.40625 -4.15625 45.40625 5.171875 
L 45.40625 9.625 
Q 42.625 4.78125 38.28125 2.390625 
Q 33.9375 0 27.875 0 
Q 17.828125 0 11.671875 7.65625 
Q 5.515625 15.328125 5.515625 27.984375 
Q 5.515625 40.671875 11.671875 48.328125 
Q 17.828125 56 27.875 56 
Q 33.9375 56 38.28125 53.609375 
Q 42.625 51.21875 45.40625 46.390625 
L 45.40625 54.6875 
L 54.390625 54.6875 
z
" id="DejaVuSans-67"/>
      <path d="M 12.40625 8.296875 
L 28.515625 8.296875 
L 28.515625 63.921875 
L 10.984375 60.40625 
L 10.984375 69.390625 
L 28.421875 72.90625 
L 38.28125 72.90625 
L 38.28125 8.296875 
L 54.390625 8.296875 
L 54.390625 0 
L 12.40625 0 
z
" id="DejaVuSans-31"/>
      <path id="DejaVuSans-20"/>
      <path d="M 37.109375 75.984375 
L 37.109375 68.5 
L 28.515625 68.5 
Q 23.6875 68.5 21.796875 66.546875 
Q 19.921875 64.59375 19.921875 59.515625 
L 19.921875 54.6875 
L 34.71875 54.6875 
L 34.71875 47.703125 
L 19.921875 47.703125 
L 19.921875 0 
L 10.890625 0 
L 10.890625 47.703125 
L 2.296875 47.703125 
L 2.296875 54.6875 
L 10.890625 54.6875 
L 10.890625 58.5 
Q 10.890625 67.625 15.140625 71.796875 
Q 19.390625 75.984375 28.609375 75.984375 
z
" id="DejaVuSans-66"/>
      <path d="M 19.671875 64.796875 
L 19.671875 8.109375 
L 31.59375 8.109375 
Q 46.6875 8.109375 53.6875 14.9375 
Q 60.6875 21.78125 60.6875 36.53125 
Q 60.6875 51.171875 53.6875 57.984375 
Q 46.6875 64.796875 31.59375 64.796875 
z
M 9.8125 72.90625 
L 30.078125 72.90625 
Q 51.265625 72.90625 61.171875 64.09375 
Q 71.09375 55.28125 71.09375 36.53125 
Q 71.09375 17.671875 61.125 8.828125 
Q 51.171875 0 30.078125 0 
L 9.8125 0 
z
" id="DejaVuSans-44"/>
     </defs>
     <g transform="translate(134.074063 322.365125)scale(0.2 -0.2)">
      <use xlink:href="#DejaVuSans-6c"/>
      <use x="27.783203" xlink:href="#DejaVuSans-6f"/>
      <use x="88.964844" xlink:href="#DejaVuSans-67"/>
      <use x="152.441406" xlink:href="#DejaVuSans-31"/>
      <use x="216.064453" xlink:href="#DejaVuSans-30"/>
      <use x="279.6875" xlink:href="#DejaVuSans-20"/>
      <use x="311.474609" xlink:href="#DejaVuSans-6f"/>
      <use x="372.65625" xlink:href="#DejaVuSans-66"/>
      <use x="407.861328" xlink:href="#DejaVuSans-20"/>
      <use x="439.648438" xlink:href="#DejaVuSans-44"/>
      <use x="516.650391" xlink:href="#DejaVuSans-66"/>
     </g>
    </g>
   </g>
   <g id="matplotlib.axis_2">
    <g id="ytick_1">
     <g id="line2d_11">
      <path clip-path="url(#p6ccbc9b11a)" d="M 10.7 276.812 
L 367.82 276.812 
" style="fill:none;stroke:#b0b0b0;stroke-linecap:square;stroke-width:0.8;"/>
     </g>
     <g id="line2d_12">
      <defs>
       <path d="M 0 0 
L -3.5 0 
" id="mf7ca89038b" style="stroke:#000000;stroke-width:0.8;"/>
      </defs>
      <g>
       <use style="stroke:#000000;stroke-width:0.8;" x="10.7" xlink:href="#mf7ca89038b" y="276.812"/>
      </g>
     </g>
    </g>
    <g id="ytick_2">
     <g id="line2d_13">
      <path clip-path="url(#p6ccbc9b11a)" d="M 10.7 224.116554 
L 367.82 224.116554 
" style="fill:none;stroke:#b0b0b0;stroke-linecap:square;stroke-width:0.8;"/>
     </g>
     <g id="line2d_14">
      <g>
       <use style="stroke:#000000;stroke-width:0.8;" x="10.7" xlink:href="#mf7ca89038b" y="224.116554"/>
      </g>
     </g>
    </g>
    <g id="ytick_3">
     <g id="line2d_15">
      <path clip-path="url(#p6ccbc9b11a)" d="M 10.7 171.421109 
L 367.82 171.421109 
" style="fill:none;stroke:#b0b0b0;stroke-linecap:square;stroke-width:0.8;"/>
     </g>
     <g id="line2d_16">
      <g>
       <use style="stroke:#000000;stroke-width:0.8;" x="10.7" xlink:href="#mf7ca89038b" y="171.421109"/>
      </g>
     </g>
    </g>
    <g id="ytick_4">
     <g id="line2d_17">
      <path clip-path="url(#p6ccbc9b11a)" d="M 10.7 118.725663 
L 367.82 118.725663 
" style="fill:none;stroke:#b0b0b0;stroke-linecap:square;stroke-width:0.8;"/>
     </g>
     <g id="line2d_18">
      <g>
       <use style="stroke:#000000;stroke-width:0.8;" x="10.7" xlink:href="#mf7ca89038b" y="118.725663"/>
      </g>
     </g>
    </g>
    <g id="ytick_5">
     <g id="line2d_19">
      <path clip-path="url(#p6ccbc9b11a)" d="M 10.7 66.030218 
L 367.82 66.030218 
" style="fill:none;stroke:#b0b0b0;stroke-linecap:square;stroke-width:0.8;"/>
     </g>
     <g id="line2d_20">
      <g>
       <use style="stroke:#000000;stroke-width:0.8;" x="10.7" xlink:href="#mf7ca89038b" y="66.030218"/>
      </g>
     </g>
    </g>
    <g id="ytick_6">
     <g id="line2d_21">
      <path clip-path="url(#p6ccbc9b11a)" d="M 10.7 13.334772 
L 367.82 13.334772 
" style="fill:none;stroke:#b0b0b0;stroke-linecap:square;stroke-width:0.8;"/>
     </g>
     <g id="line2d_22">
      <g>
       <use style="stroke:#000000;stroke-width:0.8;" x="10.7" xlink:href="#mf7ca89038b" y="13.334772"/>
      </g>
     </g>
    </g>
   </g>
   <g id="line2d_23">
    <path clip-path="url(#p6ccbc9b11a)" d="M 194.744382 276.812 
L 194.744382 273.29897 
L 195.977917 273.29897 
L 195.977917 269.785941 
L 197.422474 269.785941 
L 197.422474 266.272911 
L 199.105555 266.272911 
L 199.105555 262.759881 
L 199.611361 262.759881 
L 199.611361 259.246851 
L 199.929795 259.246851 
L 199.929795 255.733822 
L 200.730033 255.733822 
L 200.730033 252.220792 
L 200.896048 252.220792 
L 200.896048 248.707762 
L 201.104084 248.707762 
L 201.173995 241.681703 
L 202.319704 241.681703 
L 202.319704 238.168673 
L 204.469273 238.168673 
L 204.469273 234.655644 
L 205.456142 234.655644 
L 205.456142 231.142614 
L 209.119209 231.142614 
L 209.119209 227.629584 
L 209.377625 227.629584 
L 209.377625 224.116554 
L 209.72006 224.116554 
L 209.731002 217.090495 
L 209.859987 217.090495 
L 209.859987 213.577465 
L 210.124816 213.577465 
L 210.232433 206.551406 
L 210.474364 206.551406 
L 210.474364 203.038376 
L 211.998761 203.038376 
L 212.020726 196.012317 
L 212.365929 196.012317 
L 212.365929 192.499287 
L 212.766517 192.499287 
L 212.766517 188.986257 
L 212.994424 188.986257 
L 212.994424 185.473228 
L 213.462476 185.473228 
L 213.462476 181.960198 
L 213.84606 181.960198 
L 213.84606 178.447168 
L 214.646226 178.447168 
L 214.646226 174.934139 
L 214.865647 174.934139 
L 214.865647 171.421109 
L 215.729883 171.421109 
L 215.729883 167.908079 
L 217.17065 167.908079 
L 217.17065 164.39505 
L 217.653562 164.39505 
L 217.653562 160.88202 
L 217.9472 160.88202 
L 217.9472 157.36899 
L 218.55951 157.36899 
L 218.55951 150.342931 
L 218.789906 150.342931 
L 218.82439 143.316871 
L 218.977051 143.316871 
L 219.075952 136.290812 
L 219.128234 136.290812 
L 219.128234 132.777782 
L 219.372728 132.777782 
L 219.4169 122.238693 
L 220.20527 122.238693 
L 220.20527 118.725663 
L 220.466681 118.725663 
L 220.466681 115.212634 
L 220.586427 115.212634 
L 220.586427 111.699604 
L 221.216311 111.699604 
L 221.279362 97.647485 
L 221.361052 97.647485 
L 221.361052 94.134455 
L 222.138564 94.134455 
L 222.138564 90.621426 
L 222.649247 90.621426 
L 222.658693 83.595366 
L 223.505835 83.595366 
L 223.505835 80.082337 
L 223.765969 80.082337 
L 223.765969 76.569307 
L 224.414969 76.569307 
L 224.414969 73.056277 
L 224.931095 73.056277 
L 224.931095 69.543248 
L 225.125354 69.543248 
L 225.125354 66.030218 
L 262.172677 66.030218 
L 262.172677 62.517188 
L 264.514279 62.517188 
L 264.514279 59.004158 
L 277.654778 59.004158 
L 277.654778 55.491129 
L 278.677319 55.491129 
L 278.677319 51.978099 
L 280.023779 51.978099 
L 280.023779 48.465069 
L 281.853491 48.465069 
L 281.853491 44.95204 
L 283.074741 44.95204 
L 283.074741 41.43901 
L 286.113942 41.43901 
L 286.113942 37.92598 
L 290.306068 37.92598 
L 290.306068 34.41295 
L 291.069468 34.41295 
L 291.069468 30.899921 
L 291.9561 30.899921 
L 291.9561 27.386891 
L 294.595736 27.386891 
L 294.595736 23.873861 
L 294.862621 23.873861 
L 294.862621 20.360832 
L 300.960711 20.360832 
L 300.960711 16.847802 
L 301.303517 16.847802 
L 301.303517 13.334772 
L 301.303517 13.334772 
L 367.82 13.334772 
L 367.82 13.334772 
" style="fill:none;stroke:#ff0000;stroke-linecap:square;stroke-width:3;"/>
   </g>
   <g id="line2d_24">
    <path clip-path="url(#p6ccbc9b11a)" d="M 199.105555 276.812 
L 199.105555 273.29897 
L 201.104084 273.29897 
L 201.173995 266.272911 
L 204.211188 266.272911 
L 204.211188 262.759881 
L 204.469273 262.759881 
L 204.469273 259.246851 
L 205.824821 259.246851 
L 205.882269 252.220792 
L 206.539156 252.220792 
L 206.539156 248.707762 
L 207.102041 248.707762 
L 207.102041 245.194733 
L 207.559438 245.194733 
L 207.559438 241.681703 
L 208.240613 241.681703 
L 208.240613 238.168673 
L 209.119209 238.168673 
L 209.119209 234.655644 
L 209.299985 234.655644 
L 209.299985 231.142614 
L 211.013156 231.142614 
L 211.013156 227.629584 
L 213.219024 227.629584 
L 213.219024 224.116554 
L 213.462476 224.116554 
L 213.462476 220.603525 
L 214.163172 220.603525 
L 214.163172 217.090495 
L 214.646226 217.090495 
L 214.646226 213.577465 
L 215.729883 213.577465 
L 215.729883 210.064436 
L 218.029588 210.064436 
L 218.029588 206.551406 
L 218.433643 206.551406 
L 218.433643 203.038376 
L 218.55951 203.038376 
L 218.55951 196.012317 
L 218.728247 196.012317 
L 218.728247 192.499287 
L 219.117247 192.499287 
L 219.117247 188.986257 
L 219.353584 188.986257 
L 219.353584 185.473228 
L 220.4437 185.473228 
L 220.4437 160.88202 
L 220.586427 160.88202 
L 220.586427 157.36899 
L 221.224387 157.36899 
L 221.277907 150.342931 
L 221.361052 150.342931 
L 221.361052 143.316871 
L 221.937075 143.316871 
L 221.937075 139.803842 
L 222.347814 139.803842 
L 222.347814 136.290812 
L 222.658693 136.290812 
L 222.658693 132.777782 
L 222.798228 132.777782 
L 222.887201 125.751723 
L 223.036769 125.751723 
L 223.078423 118.725663 
L 223.46392 118.725663 
L 223.505835 111.699604 
L 223.656726 111.699604 
L 223.656726 108.186574 
L 224.414969 108.186574 
L 224.414969 104.673545 
L 225.432133 104.673545 
L 225.432133 101.160515 
L 225.964618 101.160515 
L 225.964618 97.647485 
L 226.232739 97.647485 
L 226.232739 94.134455 
L 226.604472 94.134455 
L 226.693198 87.108396 
L 228.319004 87.108396 
L 228.403106 76.569307 
L 231.494868 76.569307 
L 231.494868 73.056277 
L 233.154334 73.056277 
L 233.154334 69.543248 
L 234.942096 69.543248 
L 234.942096 66.030218 
L 264.514279 66.030218 
L 264.514279 62.517188 
L 277.654778 62.517188 
L 277.654778 59.004158 
L 283.074741 59.004158 
L 283.074741 55.491129 
L 283.204921 55.491129 
L 283.204921 51.978099 
L 286.113942 51.978099 
L 286.113942 48.465069 
L 291.069468 48.465069 
L 291.069468 44.95204 
L 296.379349 44.95204 
L 296.379349 41.43901 
L 310.689938 41.43901 
L 310.689938 37.92598 
L 315.065792 37.92598 
L 315.065792 34.41295 
L 315.241363 34.41295 
L 315.241363 30.899921 
L 316.575238 30.899921 
L 316.575238 27.386891 
L 318.477963 27.386891 
L 318.477963 23.873861 
L 319.560525 23.873861 
L 319.560525 20.360832 
L 323.611044 20.360832 
L 323.611044 16.847802 
L 325.576015 16.847802 
L 325.576015 13.334772 
L 325.576015 13.334772 
L 367.82 13.334772 
L 367.82 13.334772 
" style="fill:none;stroke:#00bfbf;stroke-linecap:square;stroke-width:1.5;"/>
   </g>
   <g id="line2d_25">
    <path clip-path="url(#p6ccbc9b11a)" d="M 199.105555 276.812 
L 199.105555 273.29897 
L 199.929795 273.29897 
L 199.929795 269.785941 
L 201.104084 269.785941 
L 201.173995 262.759881 
L 204.211188 262.759881 
L 204.211188 259.246851 
L 204.469273 259.246851 
L 204.469273 255.733822 
L 204.657113 255.733822 
L 204.657113 252.220792 
L 205.456142 252.220792 
L 205.456142 248.707762 
L 205.824821 248.707762 
L 205.882269 241.681703 
L 207.102041 241.681703 
L 207.102041 238.168673 
L 208.240613 238.168673 
L 208.240613 234.655644 
L 208.949654 234.655644 
L 208.949654 231.142614 
L 209.119209 231.142614 
L 209.119209 227.629584 
L 210.124816 227.629584 
L 210.124816 224.116554 
L 210.341744 224.116554 
L 210.341744 220.603525 
L 212.827609 220.603525 
L 212.827609 217.090495 
L 213.219024 217.090495 
L 213.248914 210.064436 
L 213.462476 210.064436 
L 213.462476 206.551406 
L 214.646226 206.551406 
L 214.646226 203.038376 
L 215.012836 203.038376 
L 215.040182 196.012317 
L 215.262443 196.012317 
L 215.262443 192.499287 
L 215.729883 192.499287 
L 215.729883 188.986257 
L 216.440964 188.986257 
L 216.440964 185.473228 
L 216.983006 185.473228 
L 216.983006 181.960198 
L 217.412305 181.960198 
L 217.412305 178.447168 
L 218.243445 178.447168 
L 218.243445 174.934139 
L 218.433643 174.934139 
L 218.433643 171.421109 
L 218.55951 171.421109 
L 218.55951 164.39505 
L 219.075952 164.39505 
L 219.075952 160.88202 
L 220.20527 160.88202 
L 220.20527 157.36899 
L 220.4437 157.36899 
L 220.474976 150.342931 
L 220.586427 150.342931 
L 220.586427 146.829901 
L 221.224387 146.829901 
L 221.277907 139.803842 
L 221.361052 139.803842 
L 221.361052 132.777782 
L 221.937075 132.777782 
L 221.937075 129.264752 
L 222.347814 129.264752 
L 222.347814 125.751723 
L 222.649247 125.751723 
L 222.658693 118.725663 
L 222.798228 118.725663 
L 222.798228 115.212634 
L 223.036769 115.212634 
L 223.078423 108.186574 
L 223.186997 108.186574 
L 223.186997 104.673545 
L 223.505835 104.673545 
L 223.505835 101.160515 
L 224.336059 101.160515 
L 224.414969 94.134455 
L 225.124564 94.134455 
L 225.125354 87.108396 
L 225.432133 87.108396 
L 225.432133 83.595366 
L 225.964618 83.595366 
L 226.013723 76.569307 
L 226.604472 76.569307 
L 226.693198 69.543248 
L 228.319004 69.543248 
L 228.319004 66.030218 
L 264.514279 66.030218 
L 264.514279 62.517188 
L 277.654778 62.517188 
L 277.654778 59.004158 
L 280.023779 59.004158 
L 280.023779 55.491129 
L 283.074741 55.491129 
L 283.074741 51.978099 
L 283.204921 51.978099 
L 283.204921 48.465069 
L 286.113942 48.465069 
L 286.113942 44.95204 
L 289.726354 44.95204 
L 289.726354 41.43901 
L 291.069468 41.43901 
L 291.069468 37.92598 
L 294.862621 37.92598 
L 294.862621 34.41295 
L 296.061371 34.41295 
L 296.061371 30.899921 
L 296.379349 30.899921 
L 296.379349 27.386891 
L 303.865112 27.386891 
L 303.865112 23.873861 
L 308.975717 23.873861 
L 308.975717 20.360832 
L 315.241363 20.360832 
L 315.241363 16.847802 
L 316.337361 16.847802 
L 316.337361 13.334772 
L 316.337361 13.334772 
L 367.82 13.334772 
L 367.82 13.334772 
" style="fill:none;stroke:#bf00bf;stroke-linecap:square;stroke-width:1.5;"/>
   </g>
   <g id="line2d_26">
    <path clip-path="url(#p6ccbc9b11a)" d="M 195.977917 276.812 
L 195.977917 273.29897 
L 197.422474 273.29897 
L 197.422474 269.785941 
L 199.105555 269.785941 
L 199.105555 266.272911 
L 199.929795 266.272911 
L 199.929795 262.759881 
L 201.104084 262.759881 
L 201.173995 255.733822 
L 202.319704 255.733822 
L 202.319704 252.220792 
L 202.504332 252.220792 
L 202.504332 248.707762 
L 204.469273 248.707762 
L 204.469273 245.194733 
L 205.456142 245.194733 
L 205.456142 241.681703 
L 205.882269 241.681703 
L 205.882269 238.168673 
L 206.629454 238.168673 
L 206.629454 234.655644 
L 208.949654 234.655644 
L 208.949654 231.142614 
L 209.119209 231.142614 
L 209.119209 227.629584 
L 209.377625 227.629584 
L 209.377625 224.116554 
L 209.72006 224.116554 
L 209.731002 217.090495 
L 210.124816 217.090495 
L 210.232433 210.064436 
L 210.341744 210.064436 
L 210.341744 206.551406 
L 210.474364 206.551406 
L 210.474364 203.038376 
L 211.998761 203.038376 
L 212.020726 196.012317 
L 212.365929 196.012317 
L 212.365929 192.499287 
L 213.462476 192.499287 
L 213.462476 188.986257 
L 213.84606 188.986257 
L 213.84606 185.473228 
L 214.190102 185.473228 
L 214.190102 181.960198 
L 214.646226 181.960198 
L 214.646226 178.447168 
L 214.865647 178.447168 
L 214.865647 174.934139 
L 215.729883 174.934139 
L 215.729883 171.421109 
L 216.417481 171.421109 
L 216.417481 167.908079 
L 217.653562 167.908079 
L 217.653562 164.39505 
L 218.55951 164.39505 
L 218.55951 157.36899 
L 218.789906 157.36899 
L 218.82439 150.342931 
L 218.977051 150.342931 
L 219.075952 143.316871 
L 220.20527 143.316871 
L 220.20527 139.803842 
L 220.466681 139.803842 
L 220.466681 136.290812 
L 220.586427 136.290812 
L 220.586427 132.777782 
L 221.084321 132.777782 
L 221.084321 129.264752 
L 221.216311 129.264752 
L 221.279362 115.212634 
L 221.361052 115.212634 
L 221.361052 108.186574 
L 222.138564 108.186574 
L 222.138564 104.673545 
L 222.649247 104.673545 
L 222.658693 97.647485 
L 222.798228 97.647485 
L 222.798228 94.134455 
L 223.078423 94.134455 
L 223.078423 90.621426 
L 223.505835 90.621426 
L 223.505835 87.108396 
L 223.782865 87.108396 
L 223.782865 83.595366 
L 224.414969 83.595366 
L 224.414969 80.082337 
L 225.124564 80.082337 
L 225.125354 73.056277 
L 225.476132 73.056277 
L 225.476132 69.543248 
L 228.319004 69.543248 
L 228.319004 66.030218 
L 262.172677 66.030218 
L 262.172677 62.517188 
L 264.514279 62.517188 
L 264.514279 59.004158 
L 277.654778 59.004158 
L 277.654778 55.491129 
L 278.677319 55.491129 
L 278.677319 51.978099 
L 280.023779 51.978099 
L 280.023779 48.465069 
L 281.853491 48.465069 
L 281.853491 44.95204 
L 283.074741 44.95204 
L 283.074741 41.43901 
L 286.113942 41.43901 
L 286.113942 37.92598 
L 291.069468 37.92598 
L 291.069468 34.41295 
L 291.9266 34.41295 
L 291.9561 27.386891 
L 294.862621 27.386891 
L 294.862621 23.873861 
L 295.54849 23.873861 
L 295.54849 20.360832 
L 301.303517 20.360832 
L 301.303517 16.847802 
L 308.975717 16.847802 
L 308.975717 13.334772 
L 308.975717 13.334772 
L 367.82 13.334772 
L 367.82 13.334772 
" style="fill:none;stroke:#000000;stroke-linecap:square;stroke-width:1.5;"/>
   </g>
   <g id="patch_3">
    <path d="M 10.7 276.812 
L 10.7 10.7 
" style="fill:none;stroke:#000000;stroke-linecap:square;stroke-linejoin:miter;stroke-width:0.8;"/>
   </g>
   <g id="patch_4">
    <path d="M 367.82 276.812 
L 367.82 10.7 
" style="fill:none;stroke:#000000;stroke-linecap:square;stroke-linejoin:miter;stroke-width:0.8;"/>
   </g>
   <g id="patch_5">
    <path d="M 10.7 276.812 
L 367.82 276.812 
" style="fill:none;stroke:#000000;stroke-linecap:square;stroke-linejoin:miter;stroke-width:0.8;"/>
   </g>
   <g id="patch_6">
    <path d="M 10.7 10.7 
L 367.82 10.7 
" style="fill:none;stroke:#000000;stroke-linecap:square;stroke-linejoin:miter;stroke-width:0.8;"/>
   </g>
   <g id="text_6">
    <!-- {f1-f5}, 5-D -->
    <defs>
     <path d="M 51.125 -9.28125 
L 51.125 -16.3125 
L 48.09375 -16.3125 
Q 35.9375 -16.3125 31.8125 -12.6875 
Q 27.6875 -9.078125 27.6875 1.703125 
L 27.6875 13.375 
Q 27.6875 20.75 25.046875 23.578125 
Q 22.40625 26.421875 15.484375 26.421875 
L 12.5 26.421875 
L 12.5 33.40625 
L 15.484375 33.40625 
Q 22.46875 33.40625 25.078125 36.203125 
Q 27.6875 39.015625 27.6875 46.296875 
L 27.6875 58.015625 
Q 27.6875 68.796875 31.8125 72.390625 
Q 35.9375 75.984375 48.09375 75.984375 
L 51.125 75.984375 
L 51.125 69 
L 47.796875 69 
Q 40.921875 69 38.8125 66.84375 
Q 36.71875 64.703125 36.71875 57.8125 
L 36.71875 45.703125 
Q 36.71875 38.03125 34.5 34.5625 
Q 32.28125 31.109375 26.90625 29.890625 
Q 32.328125 28.5625 34.515625 25.09375 
Q 36.71875 21.625 36.71875 14.015625 
L 36.71875 1.90625 
Q 36.71875 -4.984375 38.8125 -7.125 
Q 40.921875 -9.28125 47.796875 -9.28125 
z
" id="DejaVuSans-7b"/>
     <path d="M 10.796875 72.90625 
L 49.515625 72.90625 
L 49.515625 64.59375 
L 19.828125 64.59375 
L 19.828125 46.734375 
Q 21.96875 47.46875 24.109375 47.828125 
Q 26.265625 48.1875 28.421875 48.1875 
Q 40.625 48.1875 47.75 41.5 
Q 54.890625 34.8125 54.890625 23.390625 
Q 54.890625 11.625 47.5625 5.09375 
Q 40.234375 -1.421875 26.90625 -1.421875 
Q 22.3125 -1.421875 17.546875 -0.640625 
Q 12.796875 0.140625 7.71875 1.703125 
L 7.71875 11.625 
Q 12.109375 9.234375 16.796875 8.0625 
Q 21.484375 6.890625 26.703125 6.890625 
Q 35.15625 6.890625 40.078125 11.328125 
Q 45.015625 15.765625 45.015625 23.390625 
Q 45.015625 31 40.078125 35.4375 
Q 35.15625 39.890625 26.703125 39.890625 
Q 22.75 39.890625 18.8125 39.015625 
Q 14.890625 38.140625 10.796875 36.28125 
z
" id="DejaVuSans-35"/>
     <path d="M 12.5 -9.28125 
L 15.921875 -9.28125 
Q 22.75 -9.28125 24.828125 -7.171875 
Q 26.90625 -5.078125 26.90625 1.90625 
L 26.90625 14.015625 
Q 26.90625 21.625 29.09375 25.09375 
Q 31.296875 28.5625 36.71875 29.890625 
Q 31.296875 31.109375 29.09375 34.5625 
Q 26.90625 38.03125 26.90625 45.703125 
L 26.90625 57.8125 
Q 26.90625 64.75 24.828125 66.875 
Q 22.75 69 15.921875 69 
L 12.5 69 
L 12.5 75.984375 
L 15.578125 75.984375 
Q 27.734375 75.984375 31.8125 72.390625 
Q 35.890625 68.796875 35.890625 58.015625 
L 35.890625 46.296875 
Q 35.890625 39.015625 38.515625 36.203125 
Q 41.15625 33.40625 48.09375 33.40625 
L 51.125 33.40625 
L 51.125 26.421875 
L 48.09375 26.421875 
Q 41.15625 26.421875 38.515625 23.578125 
Q 35.890625 20.75 35.890625 13.375 
L 35.890625 1.703125 
Q 35.890625 -9.078125 31.8125 -12.6875 
Q 27.734375 -16.3125 15.578125 -16.3125 
L 12.5 -16.3125 
z
" id="DejaVuSans-7d"/>
     <path d="M 11.71875 12.40625 
L 22.015625 12.40625 
L 22.015625 4 
L 14.015625 -11.625 
L 7.71875 -11.625 
L 11.71875 4 
z
" id="DejaVuSans-2c"/>
    </defs>
    <g transform="translate(240.4276 271.48976)scale(0.2 -0.2)">
     <use xlink:href="#DejaVuSans-7b"/>
     <use x="63.623047" xlink:href="#DejaVuSans-66"/>
     <use x="98.828125" xlink:href="#DejaVuSans-31"/>
     <use x="162.451172" xlink:href="#DejaVuSans-2d"/>
     <use x="198.535156" xlink:href="#DejaVuSans-66"/>
     <use x="233.740234" xlink:href="#DejaVuSans-35"/>
     <use x="297.363281" xlink:href="#DejaVuSans-7d"/>
     <use x="360.986328" xlink:href="#DejaVuSans-2c"/>
     <use x="392.773438" xlink:href="#DejaVuSans-20"/>
     <use x="424.560547" xlink:href="#DejaVuSans-35"/>
     <use x="488.183594" xlink:href="#DejaVuSans-2d"/>
     <use x="524.267578" xlink:href="#DejaVuSans-44"/>
    </g>
   </g>
   <g id="text_7">
    <!-- v-coco-version -->
    <defs>
     <path d="M 2.984375 54.6875 
L 12.5 54.6875 
L 29.59375 8.796875 
L 46.6875 54.6875 
L 56.203125 54.6875 
L 35.6875 0 
L 23.484375 0 
z
" id="DejaVuSans-76"/>
     <path d="M 48.78125 52.59375 
L 48.78125 44.1875 
Q 44.96875 46.296875 41.140625 47.34375 
Q 37.3125 48.390625 33.40625 48.390625 
Q 24.65625 48.390625 19.8125 42.84375 
Q 14.984375 37.3125 14.984375 27.296875 
Q 14.984375 17.28125 19.8125 11.734375 
Q 24.65625 6.203125 33.40625 6.203125 
Q 37.3125 6.203125 41.140625 7.25 
Q 44.96875 8.296875 48.78125 10.40625 
L 48.78125 2.09375 
Q 45.015625 0.34375 40.984375 -0.53125 
Q 36.96875 -1.421875 32.421875 -1.421875 
Q 20.0625 -1.421875 12.78125 6.34375 
Q 5.515625 14.109375 5.515625 27.296875 
Q 5.515625 40.671875 12.859375 48.328125 
Q 20.21875 56 33.015625 56 
Q 37.15625 56 41.109375 55.140625 
Q 45.0625 54.296875 48.78125 52.59375 
z
" id="DejaVuSans-63"/>
     <path d="M 56.203125 29.59375 
L 56.203125 25.203125 
L 14.890625 25.203125 
Q 15.484375 15.921875 20.484375 11.0625 
Q 25.484375 6.203125 34.421875 6.203125 
Q 39.59375 6.203125 44.453125 7.46875 
Q 49.3125 8.734375 54.109375 11.28125 
L 54.109375 2.78125 
Q 49.265625 0.734375 44.1875 -0.34375 
Q 39.109375 -1.421875 33.890625 -1.421875 
Q 20.796875 -1.421875 13.15625 6.1875 
Q 5.515625 13.8125 5.515625 26.8125 
Q 5.515625 40.234375 12.765625 48.109375 
Q 20.015625 56 32.328125 56 
Q 43.359375 56 49.78125 48.890625 
Q 56.203125 41.796875 56.203125 29.59375 
z
M 47.21875 32.234375 
Q 47.125 39.59375 43.09375 43.984375 
Q 39.0625 48.390625 32.421875 48.390625 
Q 24.90625 48.390625 20.390625 44.140625 
Q 15.875 39.890625 15.1875 32.171875 
z
" id="DejaVuSans-65"/>
     <path d="M 41.109375 46.296875 
Q 39.59375 47.171875 37.8125 47.578125 
Q 36.03125 48 33.890625 48 
Q 26.265625 48 22.1875 43.046875 
Q 18.109375 38.09375 18.109375 28.8125 
L 18.109375 0 
L 9.078125 0 
L 9.078125 54.6875 
L 18.109375 54.6875 
L 18.109375 46.1875 
Q 20.953125 51.171875 25.484375 53.578125 
Q 30.03125 56 36.53125 56 
Q 37.453125 56 38.578125 55.875 
Q 39.703125 55.765625 41.0625 55.515625 
z
" id="DejaVuSans-72"/>
     <path d="M 44.28125 53.078125 
L 44.28125 44.578125 
Q 40.484375 46.53125 36.375 47.5 
Q 32.28125 48.484375 27.875 48.484375 
Q 21.1875 48.484375 17.84375 46.4375 
Q 14.5 44.390625 14.5 40.28125 
Q 14.5 37.15625 16.890625 35.375 
Q 19.28125 33.59375 26.515625 31.984375 
L 29.59375 31.296875 
Q 39.15625 29.25 43.1875 25.515625 
Q 47.21875 21.78125 47.21875 15.09375 
Q 47.21875 7.46875 41.1875 3.015625 
Q 35.15625 -1.421875 24.609375 -1.421875 
Q 20.21875 -1.421875 15.453125 -0.5625 
Q 10.6875 0.296875 5.421875 2 
L 5.421875 11.28125 
Q 10.40625 8.6875 15.234375 7.390625 
Q 20.0625 6.109375 24.8125 6.109375 
Q 31.15625 6.109375 34.5625 8.28125 
Q 37.984375 10.453125 37.984375 14.40625 
Q 37.984375 18.0625 35.515625 20.015625 
Q 33.0625 21.96875 24.703125 23.78125 
L 21.578125 24.515625 
Q 13.234375 26.265625 9.515625 29.90625 
Q 5.8125 33.546875 5.8125 39.890625 
Q 5.8125 47.609375 11.28125 51.796875 
Q 16.75 56 26.8125 56 
Q 31.78125 56 36.171875 55.265625 
Q 40.578125 54.546875 44.28125 53.078125 
z
" id="DejaVuSans-73"/>
     <path d="M 9.421875 54.6875 
L 18.40625 54.6875 
L 18.40625 0 
L 9.421875 0 
z
M 9.421875 75.984375 
L 18.40625 75.984375 
L 18.40625 64.59375 
L 9.421875 64.59375 
z
" id="DejaVuSans-69"/>
     <path d="M 54.890625 33.015625 
L 54.890625 0 
L 45.90625 0 
L 45.90625 32.71875 
Q 45.90625 40.484375 42.875 44.328125 
Q 39.84375 48.1875 33.796875 48.1875 
Q 26.515625 48.1875 22.3125 43.546875 
Q 18.109375 38.921875 18.109375 30.90625 
L 18.109375 0 
L 9.078125 0 
L 9.078125 54.6875 
L 18.109375 54.6875 
L 18.109375 46.1875 
Q 21.34375 51.125 25.703125 53.5625 
Q 30.078125 56 35.796875 56 
Q 45.21875 56 50.046875 50.171875 
Q 54.890625 44.34375 54.890625 33.015625 
z
" id="DejaVuSans-6e"/>
    </defs>
    <g style="fill:#808080;" transform="translate(152.764688 272.071193)scale(0.1 -0.1)">
     <use xlink:href="#DejaVuSans-76"/>
     <use x="59.148438" xlink:href="#DejaVuSans-2d"/>
     <use x="95.232422" xlink:href="#DejaVuSans-63"/>
     <use x="150.212891" xlink:href="#DejaVuSans-6f"/>
     <use x="211.394531" xlink:href="#DejaVuSans-63"/>
     <use x="266.375" xlink:href="#DejaVuSans-6f"/>
     <use x="327.572266" xlink:href="#DejaVuSans-2d"/>
     <use x="363.625" xlink:href="#DejaVuSans-76"/>
     <use x="422.804688" xlink:href="#DejaVuSans-65"/>
     <use x="484.328125" xlink:href="#DejaVuSans-72"/>
     <use x="525.441406" xlink:href="#DejaVuSans-73"/>
     <use x="577.541016" xlink:href="#DejaVuSans-69"/>
     <use x="605.324219" xlink:href="#DejaVuSans-6f"/>
     <use x="666.505859" xlink:href="#DejaVuSans-6e"/>
    </g>
   </g>
  </g>
 </g>
 <defs>
  <clipPath id="p6ccbc9b11a">
   <rect height="266.112" width="357.12" x="10.7" y="10.7"/>
  </clipPath>
 </defs>
</svg>
