<?xml version="1.0" encoding="utf-8" standalone="no"?>
<!DOCTYPE svg PUBLIC "-//W3C//DTD SVG 1.1//EN"
  "http://www.w3.org/Graphics/SVG/1.1/DTD/svg11.dtd">
<!-- Created with matplotlib (http://matplotlib.org/) -->
<svg height="333.7245pt" version="1.1" viewBox="0 0 378.52 333.7245" width="378.52pt" xmlns="http://www.w3.org/2000/svg" xmlns:xlink="http://www.w3.org/1999/xlink">
 <defs>
  <style type="text/css">
*{stroke-linecap:butt;stroke-linejoin:round;}
  </style>
 </defs>
 <g id="figure_1">
  <g id="patch_1">
   <path d="M 0 333.7245 
L 378.52 333.7245 
L 378.52 0 
L 0 0 
z
" style="fill:#ffffff;"/>
  </g>
  <g id="axes_1">
   <g id="patch_2">
    <path d="M 10.7 276.812 
L 367.82 276.812 
L 367.82 10.7 
L 10.7 10.7 
z
" style="fill:#ffffff;"/>
   </g>
   <g id="matplotlib.axis_1">
    <g id="xtick_1">
     <g id="line2d_1">
      <path clip-path="url(#p699f8d4985)" d="M 10.610538 276.812 
L 10.610538 10.7 
" style="fill:none;stroke:#b0b0b0;stroke-linecap:square;stroke-width:0.8;"/>
     </g>
     <g id="line2d_2">
      <defs>
       <path d="M 0 0 
L 0 3.5 
" id="m4cf89a06a3" style="stroke:#000000;stroke-width:0.8;"/>
      </defs>
      <g>
       <use style="stroke:#000000;stroke-width:0.8;" x="10.610538" xlink:href="#m4cf89a06a3" y="276.812"/>
      </g>
     </g>
    </g>
    <g id="xtick_2">
     <g id="line2d_3">
      <path clip-path="url(#p699f8d4985)" d="M 93.419793 276.812 
L 93.419793 10.7 
" style="fill:none;stroke:#b0b0b0;stroke-linecap:square;stroke-width:0.8;"/>
     </g>
     <g id="line2d_4">
      <g>
       <use style="stroke:#000000;stroke-width:0.8;" x="93.419793" xlink:href="#m4cf89a06a3" y="276.812"/>
      </g>
     </g>
     <g id="text_1">
      <!-- -4 -->
      <defs>
       <path d="M 4.890625 31.390625 
L 31.203125 31.390625 
L 31.203125 23.390625 
L 4.890625 23.390625 
z
" id="DejaVuSans-2d"/>
       <path d="M 37.796875 64.3125 
L 12.890625 25.390625 
L 37.796875 25.390625 
z
M 35.203125 72.90625 
L 47.609375 72.90625 
L 47.609375 25.390625 
L 58.015625 25.390625 
L 58.015625 17.1875 
L 47.609375 17.1875 
L 47.609375 0 
L 37.796875 0 
L 37.796875 17.1875 
L 4.890625 17.1875 
L 4.890625 26.703125 
z
" id="DejaVuSans-34"/>
      </defs>
      <g transform="translate(83.449481 299.008875)scale(0.2 -0.2)">
       <use xlink:href="#DejaVuSans-2d"/>
       <use x="36.083984" xlink:href="#DejaVuSans-34"/>
      </g>
     </g>
    </g>
    <g id="xtick_3">
     <g id="line2d_5">
      <path clip-path="url(#p699f8d4985)" d="M 176.229049 276.812 
L 176.229049 10.7 
" style="fill:none;stroke:#b0b0b0;stroke-linecap:square;stroke-width:0.8;"/>
     </g>
     <g id="line2d_6">
      <g>
       <use style="stroke:#000000;stroke-width:0.8;" x="176.229049" xlink:href="#m4cf89a06a3" y="276.812"/>
      </g>
     </g>
     <g id="text_2">
      <!-- 0 -->
      <defs>
       <path d="M 31.78125 66.40625 
Q 24.171875 66.40625 20.328125 58.90625 
Q 16.5 51.421875 16.5 36.375 
Q 16.5 21.390625 20.328125 13.890625 
Q 24.171875 6.390625 31.78125 6.390625 
Q 39.453125 6.390625 43.28125 13.890625 
Q 47.125 21.390625 47.125 36.375 
Q 47.125 51.421875 43.28125 58.90625 
Q 39.453125 66.40625 31.78125 66.40625 
z
M 31.78125 74.21875 
Q 44.046875 74.21875 50.515625 64.515625 
Q 56.984375 54.828125 56.984375 36.375 
Q 56.984375 17.96875 50.515625 8.265625 
Q 44.046875 -1.421875 31.78125 -1.421875 
Q 19.53125 -1.421875 13.0625 8.265625 
Q 6.59375 17.96875 6.59375 36.375 
Q 6.59375 54.828125 13.0625 64.515625 
Q 19.53125 74.21875 31.78125 74.21875 
z
" id="DejaVuSans-30"/>
      </defs>
      <g transform="translate(169.866549 299.008875)scale(0.2 -0.2)">
       <use xlink:href="#DejaVuSans-30"/>
      </g>
     </g>
    </g>
    <g id="xtick_4">
     <g id="line2d_7">
      <path clip-path="url(#p699f8d4985)" d="M 259.038304 276.812 
L 259.038304 10.7 
" style="fill:none;stroke:#b0b0b0;stroke-linecap:square;stroke-width:0.8;"/>
     </g>
     <g id="line2d_8">
      <g>
       <use style="stroke:#000000;stroke-width:0.8;" x="259.038304" xlink:href="#m4cf89a06a3" y="276.812"/>
      </g>
     </g>
     <g id="text_3">
      <!-- 4 -->
      <g transform="translate(252.675804 299.008875)scale(0.2 -0.2)">
       <use xlink:href="#DejaVuSans-34"/>
      </g>
     </g>
    </g>
    <g id="xtick_5">
     <g id="line2d_9">
      <path clip-path="url(#p699f8d4985)" d="M 341.84756 276.812 
L 341.84756 10.7 
" style="fill:none;stroke:#b0b0b0;stroke-linecap:square;stroke-width:0.8;"/>
     </g>
     <g id="line2d_10">
      <g>
       <use style="stroke:#000000;stroke-width:0.8;" x="341.84756" xlink:href="#m4cf89a06a3" y="276.812"/>
      </g>
     </g>
     <g id="text_4">
      <!-- 8 -->
      <defs>
       <path d="M 31.78125 34.625 
Q 24.75 34.625 20.71875 30.859375 
Q 16.703125 27.09375 16.703125 20.515625 
Q 16.703125 13.921875 20.71875 10.15625 
Q 24.75 6.390625 31.78125 6.390625 
Q 38.8125 6.390625 42.859375 10.171875 
Q 46.921875 13.96875 46.921875 20.515625 
Q 46.921875 27.09375 42.890625 30.859375 
Q 38.875 34.625 31.78125 34.625 
z
M 21.921875 38.8125 
Q 15.578125 40.375 12.03125 44.71875 
Q 8.5 49.078125 8.5 55.328125 
Q 8.5 64.0625 14.71875 69.140625 
Q 20.953125 74.21875 31.78125 74.21875 
Q 42.671875 74.21875 48.875 69.140625 
Q 55.078125 64.0625 55.078125 55.328125 
Q 55.078125 49.078125 51.53125 44.71875 
Q 48 40.375 41.703125 38.8125 
Q 48.828125 37.15625 52.796875 32.3125 
Q 56.78125 27.484375 56.78125 20.515625 
Q 56.78125 9.90625 50.3125 4.234375 
Q 43.84375 -1.421875 31.78125 -1.421875 
Q 19.734375 -1.421875 13.25 4.234375 
Q 6.78125 9.90625 6.78125 20.515625 
Q 6.78125 27.484375 10.78125 32.3125 
Q 14.796875 37.15625 21.921875 38.8125 
z
M 18.3125 54.390625 
Q 18.3125 48.734375 21.84375 45.5625 
Q 25.390625 42.390625 31.78125 42.390625 
Q 38.140625 42.390625 41.71875 45.5625 
Q 45.3125 48.734375 45.3125 54.390625 
Q 45.3125 60.0625 41.71875 63.234375 
Q 38.140625 66.40625 31.78125 66.40625 
Q 25.390625 66.40625 21.84375 63.234375 
Q 18.3125 60.0625 18.3125 54.390625 
z
" id="DejaVuSans-38"/>
      </defs>
      <g transform="translate(335.48506 299.008875)scale(0.2 -0.2)">
       <use xlink:href="#DejaVuSans-38"/>
      </g>
     </g>
    </g>
    <g id="text_5">
     <!-- log10 of Df -->
     <defs>
      <path d="M 9.421875 75.984375 
L 18.40625 75.984375 
L 18.40625 0 
L 9.421875 0 
z
" id="DejaVuSans-6c"/>
      <path d="M 30.609375 48.390625 
Q 23.390625 48.390625 19.1875 42.75 
Q 14.984375 37.109375 14.984375 27.296875 
Q 14.984375 17.484375 19.15625 11.84375 
Q 23.34375 6.203125 30.609375 6.203125 
Q 37.796875 6.203125 41.984375 11.859375 
Q 46.1875 17.53125 46.1875 27.296875 
Q 46.1875 37.015625 41.984375 42.703125 
Q 37.796875 48.390625 30.609375 48.390625 
z
M 30.609375 56 
Q 42.328125 56 49.015625 48.375 
Q 55.71875 40.765625 55.71875 27.296875 
Q 55.71875 13.875 49.015625 6.21875 
Q 42.328125 -1.421875 30.609375 -1.421875 
Q 18.84375 -1.421875 12.171875 6.21875 
Q 5.515625 13.875 5.515625 27.296875 
Q 5.515625 40.765625 12.171875 48.375 
Q 18.84375 56 30.609375 56 
z
" id="DejaVuSans-6f"/>
      <path d="M 45.40625 27.984375 
Q 45.40625 37.75 41.375 43.109375 
Q 37.359375 48.484375 30.078125 48.484375 
Q 22.859375 48.484375 18.828125 43.109375 
Q 14.796875 37.75 14.796875 27.984375 
Q 14.796875 18.265625 18.828125 12.890625 
Q 22.859375 7.515625 30.078125 7.515625 
Q 37.359375 7.515625 41.375 12.890625 
Q 45.40625 18.265625 45.40625 27.984375 
z
M 54.390625 6.78125 
Q 54.390625 -7.171875 48.1875 -13.984375 
Q 42 -20.796875 29.203125 -20.796875 
Q 24.46875 -20.796875 20.265625 -20.09375 
Q 16.0625 -19.390625 12.109375 -17.921875 
L 12.109375 -9.1875 
Q 16.0625 -11.328125 19.921875 -12.34375 
Q 23.78125 -13.375 27.78125 -13.375 
Q 36.625 -13.375 41.015625 -8.765625 
Q 45.40625 -4.15625 45.40625 5.171875 
L 45.40625 9.625 
Q 42.625 4.78125 38.28125 2.390625 
Q 33.9375 0 27.875 0 
Q 17.828125 0 11.671875 7.65625 
Q 5.515625 15.328125 5.515625 27.984375 
Q 5.515625 40.671875 11.671875 48.328125 
Q 17.828125 56 27.875 56 
Q 33.9375 56 38.28125 53.609375 
Q 42.625 51.21875 45.40625 46.390625 
L 45.40625 54.6875 
L 54.390625 54.6875 
z
" id="DejaVuSans-67"/>
      <path d="M 12.40625 8.296875 
L 28.515625 8.296875 
L 28.515625 63.921875 
L 10.984375 60.40625 
L 10.984375 69.390625 
L 28.421875 72.90625 
L 38.28125 72.90625 
L 38.28125 8.296875 
L 54.390625 8.296875 
L 54.390625 0 
L 12.40625 0 
z
" id="DejaVuSans-31"/>
      <path id="DejaVuSans-20"/>
      <path d="M 37.109375 75.984375 
L 37.109375 68.5 
L 28.515625 68.5 
Q 23.6875 68.5 21.796875 66.546875 
Q 19.921875 64.59375 19.921875 59.515625 
L 19.921875 54.6875 
L 34.71875 54.6875 
L 34.71875 47.703125 
L 19.921875 47.703125 
L 19.921875 0 
L 10.890625 0 
L 10.890625 47.703125 
L 2.296875 47.703125 
L 2.296875 54.6875 
L 10.890625 54.6875 
L 10.890625 58.5 
Q 10.890625 67.625 15.140625 71.796875 
Q 19.390625 75.984375 28.609375 75.984375 
z
" id="DejaVuSans-66"/>
      <path d="M 19.671875 64.796875 
L 19.671875 8.109375 
L 31.59375 8.109375 
Q 46.6875 8.109375 53.6875 14.9375 
Q 60.6875 21.78125 60.6875 36.53125 
Q 60.6875 51.171875 53.6875 57.984375 
Q 46.6875 64.796875 31.59375 64.796875 
z
M 9.8125 72.90625 
L 30.078125 72.90625 
Q 51.265625 72.90625 61.171875 64.09375 
Q 71.09375 55.28125 71.09375 36.53125 
Q 71.09375 17.671875 61.125 8.828125 
Q 51.171875 0 30.078125 0 
L 9.8125 0 
z
" id="DejaVuSans-44"/>
     </defs>
     <g transform="translate(134.074063 322.365125)scale(0.2 -0.2)">
      <use xlink:href="#DejaVuSans-6c"/>
      <use x="27.783203" xlink:href="#DejaVuSans-6f"/>
      <use x="88.964844" xlink:href="#DejaVuSans-67"/>
      <use x="152.441406" xlink:href="#DejaVuSans-31"/>
      <use x="216.064453" xlink:href="#DejaVuSans-30"/>
      <use x="279.6875" xlink:href="#DejaVuSans-20"/>
      <use x="311.474609" xlink:href="#DejaVuSans-6f"/>
      <use x="372.65625" xlink:href="#DejaVuSans-66"/>
      <use x="407.861328" xlink:href="#DejaVuSans-20"/>
      <use x="439.648438" xlink:href="#DejaVuSans-44"/>
      <use x="516.650391" xlink:href="#DejaVuSans-66"/>
     </g>
    </g>
   </g>
   <g id="matplotlib.axis_2">
    <g id="ytick_1">
     <g id="line2d_11">
      <path clip-path="url(#p699f8d4985)" d="M 10.7 276.812 
L 367.82 276.812 
" style="fill:none;stroke:#b0b0b0;stroke-linecap:square;stroke-width:0.8;"/>
     </g>
     <g id="line2d_12">
      <defs>
       <path d="M 0 0 
L -3.5 0 
" id="m6f6ebc76b7" style="stroke:#000000;stroke-width:0.8;"/>
      </defs>
      <g>
       <use style="stroke:#000000;stroke-width:0.8;" x="10.7" xlink:href="#m6f6ebc76b7" y="276.812"/>
      </g>
     </g>
    </g>
    <g id="ytick_2">
     <g id="line2d_13">
      <path clip-path="url(#p699f8d4985)" d="M 10.7 224.116554 
L 367.82 224.116554 
" style="fill:none;stroke:#b0b0b0;stroke-linecap:square;stroke-width:0.8;"/>
     </g>
     <g id="line2d_14">
      <g>
       <use style="stroke:#000000;stroke-width:0.8;" x="10.7" xlink:href="#m6f6ebc76b7" y="224.116554"/>
      </g>
     </g>
    </g>
    <g id="ytick_3">
     <g id="line2d_15">
      <path clip-path="url(#p699f8d4985)" d="M 10.7 171.421109 
L 367.82 171.421109 
" style="fill:none;stroke:#b0b0b0;stroke-linecap:square;stroke-width:0.8;"/>
     </g>
     <g id="line2d_16">
      <g>
       <use style="stroke:#000000;stroke-width:0.8;" x="10.7" xlink:href="#m6f6ebc76b7" y="171.421109"/>
      </g>
     </g>
    </g>
    <g id="ytick_4">
     <g id="line2d_17">
      <path clip-path="url(#p699f8d4985)" d="M 10.7 118.725663 
L 367.82 118.725663 
" style="fill:none;stroke:#b0b0b0;stroke-linecap:square;stroke-width:0.8;"/>
     </g>
     <g id="line2d_18">
      <g>
       <use style="stroke:#000000;stroke-width:0.8;" x="10.7" xlink:href="#m6f6ebc76b7" y="118.725663"/>
      </g>
     </g>
    </g>
    <g id="ytick_5">
     <g id="line2d_19">
      <path clip-path="url(#p699f8d4985)" d="M 10.7 66.030218 
L 367.82 66.030218 
" style="fill:none;stroke:#b0b0b0;stroke-linecap:square;stroke-width:0.8;"/>
     </g>
     <g id="line2d_20">
      <g>
       <use style="stroke:#000000;stroke-width:0.8;" x="10.7" xlink:href="#m6f6ebc76b7" y="66.030218"/>
      </g>
     </g>
    </g>
    <g id="ytick_6">
     <g id="line2d_21">
      <path clip-path="url(#p699f8d4985)" d="M 10.7 13.334772 
L 367.82 13.334772 
" style="fill:none;stroke:#b0b0b0;stroke-linecap:square;stroke-width:0.8;"/>
     </g>
     <g id="line2d_22">
      <g>
       <use style="stroke:#000000;stroke-width:0.8;" x="10.7" xlink:href="#m6f6ebc76b7" y="13.334772"/>
      </g>
     </g>
    </g>
   </g>
   <g id="line2d_23">
    <path clip-path="url(#p699f8d4985)" d="M 219.531394 276.812 
L 219.531394 272.420713 
L 219.531394 272.420713 
L 219.531394 268.029426 
L 219.531394 268.029426 
L 219.531394 263.638139 
L 219.531394 263.638139 
L 219.531394 259.246851 
L 219.531394 259.246851 
L 219.531394 254.855564 
L 219.531394 254.855564 
L 219.531394 250.464277 
L 219.531394 250.464277 
L 219.531394 246.07299 
L 219.531394 246.07299 
L 219.531394 241.681703 
L 219.531394 241.681703 
L 219.531394 237.290416 
L 219.531394 237.290416 
L 219.531394 232.899129 
L 219.531394 232.899129 
L 219.531394 228.507842 
L 219.531394 228.507842 
L 219.531394 224.116554 
L 219.531394 224.116554 
L 219.531394 219.725267 
L 219.531394 219.725267 
L 219.531394 215.33398 
L 219.531394 215.33398 
L 219.531394 210.942693 
L 227.783056 210.942693 
L 227.783056 206.551406 
L 231.116736 206.551406 
L 231.116736 202.160119 
L 231.854402 202.160119 
L 231.854402 197.768832 
L 232.393658 197.768832 
L 232.393658 193.377545 
L 233.459423 193.377545 
L 233.459423 188.986257 
L 233.586218 188.986257 
L 233.586218 184.59497 
L 233.878927 184.59497 
L 233.878927 180.203683 
L 234.078931 180.203683 
L 234.078931 175.812396 
L 234.544115 175.812396 
L 234.544115 171.421109 
L 234.96517 171.421109 
L 234.96517 167.029822 
L 235.525578 167.029822 
L 235.525578 162.638535 
L 236.108091 162.638535 
L 236.108091 158.247248 
L 236.459229 158.247248 
L 236.459229 153.85596 
L 239.541179 153.85596 
L 239.541179 149.464673 
L 239.909662 149.464673 
L 239.909662 145.073386 
L 267.262575 145.073386 
L 267.262575 140.682099 
L 267.648865 140.682099 
L 267.648865 136.290812 
L 268.220578 136.290812 
L 268.220578 131.899525 
L 269.192868 131.899525 
L 269.192868 127.508238 
L 271.11148 127.508238 
L 271.11148 123.11695 
L 271.318741 123.11695 
L 271.318741 118.725663 
L 272.812146 118.725663 
L 272.812146 114.334376 
L 272.862183 114.334376 
L 272.862183 109.943089 
L 273.049998 109.943089 
L 273.049998 105.551802 
L 273.857242 105.551802 
L 273.857242 101.160515 
L 273.99098 101.160515 
L 273.99098 96.769228 
L 275.661371 96.769228 
L 275.661371 92.377941 
L 275.958997 92.377941 
L 275.958997 87.986653 
L 276.416944 87.986653 
L 276.416944 83.595366 
L 276.537973 83.595366 
L 276.537973 79.204079 
L 277.545521 79.204079 
L 277.545521 74.812792 
L 278.104357 74.812792 
L 278.104357 70.421505 
L 282.172196 70.421505 
L 282.172196 66.030218 
L 287.124398 66.030218 
L 287.124398 61.638931 
L 289.681575 61.638931 
L 289.681575 57.247644 
L 289.848321 57.247644 
L 289.848321 52.856356 
L 289.887327 52.856356 
L 289.887327 48.465069 
L 290.012974 48.465069 
L 290.012974 44.073782 
L 290.510916 44.073782 
L 290.510916 39.682495 
L 290.65429 39.682495 
L 290.65429 35.291208 
L 291.047111 35.291208 
L 291.047111 30.899921 
L 293.980065 30.899921 
L 293.980065 26.508634 
L 295.282548 26.508634 
L 295.282548 22.117347 
L 295.490394 22.117347 
L 295.490394 17.726059 
L 295.830172 17.726059 
L 295.830172 13.334772 
L 295.830172 13.334772 
L 295.830172 13.334772 
L 367.82 13.334772 
" style="fill:none;stroke:#ff0000;stroke-linecap:square;stroke-width:3;"/>
   </g>
   <g id="line2d_24">
    <path clip-path="url(#p699f8d4985)" d="M 219.531394 276.812 
L 219.531394 272.420713 
L 219.531394 272.420713 
L 219.531394 268.029426 
L 219.531394 268.029426 
L 219.531394 263.638139 
L 219.531394 263.638139 
L 219.531394 259.246851 
L 219.531394 259.246851 
L 219.531394 254.855564 
L 219.531394 254.855564 
L 219.531394 250.464277 
L 219.531394 250.464277 
L 219.531394 246.07299 
L 219.531394 246.07299 
L 219.531394 241.681703 
L 219.531394 241.681703 
L 219.531394 237.290416 
L 219.531394 237.290416 
L 219.531394 232.899129 
L 219.531394 232.899129 
L 219.531394 228.507842 
L 219.531394 228.507842 
L 219.531394 224.116554 
L 219.531394 224.116554 
L 219.531394 219.725267 
L 219.531394 219.725267 
L 219.531394 215.33398 
L 219.531394 215.33398 
L 219.531394 210.942693 
L 231.500625 210.942693 
L 231.500625 206.551406 
L 233.459423 206.551406 
L 233.459423 202.160119 
L 233.586218 202.160119 
L 233.586218 197.768832 
L 234.173634 197.768832 
L 234.173634 193.377545 
L 234.810935 193.377545 
L 234.810935 188.986257 
L 236.257619 188.986257 
L 236.257619 184.59497 
L 236.284657 184.59497 
L 236.284657 180.203683 
L 236.668622 180.203683 
L 236.668622 175.812396 
L 237.183801 175.812396 
L 237.183801 171.421109 
L 238.2618 171.421109 
L 238.2618 167.029822 
L 238.505707 167.029822 
L 238.505707 162.638535 
L 239.91044 162.638535 
L 239.91044 158.247248 
L 241.309095 158.247248 
L 241.309095 153.85596 
L 243.567153 153.85596 
L 243.567153 149.464673 
L 243.777159 149.464673 
L 243.777159 145.073386 
L 267.262575 145.073386 
L 267.262575 140.682099 
L 267.648865 140.682099 
L 267.648865 136.290812 
L 268.220578 136.290812 
L 268.220578 131.899525 
L 269.192868 131.899525 
L 269.192868 127.508238 
L 271.11148 127.508238 
L 271.11148 123.11695 
L 271.318741 123.11695 
L 271.318741 118.725663 
L 272.812146 118.725663 
L 272.812146 114.334376 
L 272.862183 114.334376 
L 272.862183 109.943089 
L 273.049998 109.943089 
L 273.049998 105.551802 
L 273.857242 105.551802 
L 273.857242 101.160515 
L 273.99098 101.160515 
L 273.99098 96.769228 
L 276.416944 96.769228 
L 276.416944 92.377941 
L 276.537973 92.377941 
L 276.537973 87.986653 
L 277.545521 87.986653 
L 277.545521 83.595366 
L 278.104357 83.595366 
L 278.104357 79.204079 
L 282.172196 79.204079 
L 282.172196 74.812792 
L 287.233298 74.812792 
L 287.233298 70.421505 
L 287.774517 70.421505 
L 287.774517 66.030218 
L 290.510916 66.030218 
L 290.510916 61.638931 
L 291.047111 61.638931 
L 291.047111 57.247644 
L 293.229294 57.247644 
L 293.229294 52.856356 
L 293.280064 52.856356 
L 293.280064 48.465069 
L 294.630613 48.465069 
L 294.630613 44.073782 
L 295.206742 44.073782 
L 295.206742 39.682495 
L 295.510603 39.682495 
L 295.510603 35.291208 
L 295.531729 35.291208 
L 295.531729 30.899921 
L 295.568074 30.899921 
L 295.568074 26.508634 
L 297.08908 26.508634 
L 297.08908 22.117347 
L 298.143637 22.117347 
L 298.143637 17.726059 
L 300.450753 17.726059 
L 300.450753 13.334772 
L 300.450753 13.334772 
L 300.450753 13.334772 
L 367.82 13.334772 
" style="fill:none;stroke:#00bfbf;stroke-linecap:square;stroke-width:1.5;"/>
   </g>
   <g id="line2d_25">
    <path clip-path="url(#p699f8d4985)" d="M 219.531394 276.812 
L 219.531394 272.420713 
L 219.531394 272.420713 
L 219.531394 268.029426 
L 219.531394 268.029426 
L 219.531394 263.638139 
L 219.531394 263.638139 
L 219.531394 259.246851 
L 219.531394 259.246851 
L 219.531394 254.855564 
L 219.531394 254.855564 
L 219.531394 250.464277 
L 219.531394 250.464277 
L 219.531394 246.07299 
L 219.531394 246.07299 
L 219.531394 241.681703 
L 219.531394 241.681703 
L 219.531394 237.290416 
L 219.531394 237.290416 
L 219.531394 232.899129 
L 219.531394 232.899129 
L 219.531394 228.507842 
L 219.531394 228.507842 
L 219.531394 224.116554 
L 219.531394 224.116554 
L 219.531394 219.725267 
L 219.531394 219.725267 
L 219.531394 215.33398 
L 219.531394 215.33398 
L 219.531394 210.942693 
L 231.500625 210.942693 
L 231.500625 206.551406 
L 232.721153 206.551406 
L 232.721153 202.160119 
L 233.459423 202.160119 
L 233.459423 197.768832 
L 233.586218 197.768832 
L 233.586218 193.377545 
L 234.173634 193.377545 
L 234.173634 188.986257 
L 234.810935 188.986257 
L 234.810935 184.59497 
L 236.108091 184.59497 
L 236.108091 180.203683 
L 236.257619 180.203683 
L 236.257619 175.812396 
L 237.183801 175.812396 
L 237.183801 171.421109 
L 238.2618 171.421109 
L 238.2618 167.029822 
L 238.505707 167.029822 
L 238.505707 162.638535 
L 239.268726 162.638535 
L 239.268726 158.247248 
L 239.909662 158.247248 
L 239.909662 153.85596 
L 240.689672 153.85596 
L 240.689672 149.464673 
L 241.919605 149.464673 
L 241.919605 145.073386 
L 267.262575 145.073386 
L 267.262575 140.682099 
L 267.648865 140.682099 
L 267.648865 136.290812 
L 268.220578 136.290812 
L 268.220578 131.899525 
L 269.192868 131.899525 
L 269.192868 127.508238 
L 271.11148 127.508238 
L 271.11148 123.11695 
L 271.318741 123.11695 
L 271.318741 118.725663 
L 272.812146 118.725663 
L 272.812146 114.334376 
L 272.862183 114.334376 
L 272.862183 109.943089 
L 273.049998 109.943089 
L 273.049998 105.551802 
L 273.857242 105.551802 
L 273.857242 101.160515 
L 273.99098 101.160515 
L 273.99098 96.769228 
L 276.416944 96.769228 
L 276.416944 92.377941 
L 276.537973 92.377941 
L 276.537973 87.986653 
L 277.545521 87.986653 
L 277.545521 83.595366 
L 278.104357 83.595366 
L 278.104357 79.204079 
L 282.172196 79.204079 
L 282.172196 74.812792 
L 287.233298 74.812792 
L 287.233298 70.421505 
L 287.774517 70.421505 
L 287.774517 66.030218 
L 289.798121 66.030218 
L 289.798121 61.638931 
L 289.848321 61.638931 
L 289.848321 57.247644 
L 290.012974 57.247644 
L 290.012974 52.856356 
L 290.510916 52.856356 
L 290.510916 48.465069 
L 291.047111 48.465069 
L 291.047111 44.073782 
L 293.280064 44.073782 
L 293.280064 39.682495 
L 294.542989 39.682495 
L 294.542989 35.291208 
L 295.206742 35.291208 
L 295.206742 30.899921 
L 295.490394 30.899921 
L 295.490394 26.508634 
L 295.692583 26.508634 
L 295.692583 22.117347 
L 297.08908 22.117347 
L 297.08908 17.726059 
L 299.473847 17.726059 
L 299.473847 13.334772 
L 299.473847 13.334772 
L 299.473847 13.334772 
L 367.82 13.334772 
" style="fill:none;stroke:#bf00bf;stroke-linecap:square;stroke-width:1.5;"/>
   </g>
   <g id="line2d_26">
    <path clip-path="url(#p699f8d4985)" d="M 219.531394 276.812 
L 219.531394 272.420713 
L 219.531394 272.420713 
L 219.531394 268.029426 
L 219.531394 268.029426 
L 219.531394 263.638139 
L 219.531394 263.638139 
L 219.531394 259.246851 
L 219.531394 259.246851 
L 219.531394 254.855564 
L 219.531394 254.855564 
L 219.531394 250.464277 
L 219.531394 250.464277 
L 219.531394 246.07299 
L 219.531394 246.07299 
L 219.531394 241.681703 
L 219.531394 241.681703 
L 219.531394 237.290416 
L 219.531394 237.290416 
L 219.531394 232.899129 
L 219.531394 232.899129 
L 219.531394 228.507842 
L 219.531394 228.507842 
L 219.531394 224.116554 
L 219.531394 224.116554 
L 219.531394 219.725267 
L 219.531394 219.725267 
L 219.531394 215.33398 
L 219.531394 215.33398 
L 219.531394 210.942693 
L 231.116736 210.942693 
L 231.116736 206.551406 
L 231.500625 206.551406 
L 231.500625 202.160119 
L 231.854402 202.160119 
L 231.854402 197.768832 
L 232.393658 197.768832 
L 232.393658 193.377545 
L 233.459423 193.377545 
L 233.459423 188.986257 
L 233.586218 188.986257 
L 233.586218 184.59497 
L 234.173634 184.59497 
L 234.173634 180.203683 
L 234.544115 180.203683 
L 234.544115 175.812396 
L 234.96517 175.812396 
L 234.96517 171.421109 
L 235.525578 171.421109 
L 235.525578 167.029822 
L 236.108091 167.029822 
L 236.108091 162.638535 
L 236.257619 162.638535 
L 236.257619 158.247248 
L 236.459229 158.247248 
L 236.459229 153.85596 
L 239.541179 153.85596 
L 239.541179 149.464673 
L 239.909662 149.464673 
L 239.909662 145.073386 
L 267.262575 145.073386 
L 267.262575 140.682099 
L 267.648865 140.682099 
L 267.648865 136.290812 
L 268.220578 136.290812 
L 268.220578 131.899525 
L 269.192868 131.899525 
L 269.192868 127.508238 
L 271.11148 127.508238 
L 271.11148 123.11695 
L 271.318741 123.11695 
L 271.318741 118.725663 
L 272.812146 118.725663 
L 272.812146 114.334376 
L 272.862183 114.334376 
L 272.862183 109.943089 
L 273.049998 109.943089 
L 273.049998 105.551802 
L 273.857242 105.551802 
L 273.857242 101.160515 
L 273.99098 101.160515 
L 273.99098 96.769228 
L 276.416944 96.769228 
L 276.416944 92.377941 
L 276.537973 92.377941 
L 276.537973 87.986653 
L 277.545521 87.986653 
L 277.545521 83.595366 
L 278.104357 83.595366 
L 278.104357 79.204079 
L 282.172196 79.204079 
L 282.172196 74.812792 
L 287.233298 74.812792 
L 287.233298 70.421505 
L 287.774517 70.421505 
L 287.774517 66.030218 
L 289.798121 66.030218 
L 289.798121 61.638931 
L 289.848321 61.638931 
L 289.848321 57.247644 
L 289.88752 57.247644 
L 289.88752 52.856356 
L 290.012974 52.856356 
L 290.012974 48.465069 
L 290.510916 48.465069 
L 290.510916 44.073782 
L 290.65429 44.073782 
L 290.65429 39.682495 
L 291.047111 39.682495 
L 291.047111 35.291208 
L 293.980065 35.291208 
L 293.980065 30.899921 
L 294.542989 30.899921 
L 294.542989 26.508634 
L 295.282548 26.508634 
L 295.282548 22.117347 
L 295.490394 22.117347 
L 295.490394 17.726059 
L 295.830172 17.726059 
L 295.830172 13.334772 
L 295.830172 13.334772 
L 295.830172 13.334772 
L 367.82 13.334772 
" style="fill:none;stroke:#000000;stroke-linecap:square;stroke-width:1.5;"/>
   </g>
   <g id="patch_3">
    <path d="M 10.7 276.812 
L 10.7 10.7 
" style="fill:none;stroke:#000000;stroke-linecap:square;stroke-linejoin:miter;stroke-width:0.8;"/>
   </g>
   <g id="patch_4">
    <path d="M 367.82 276.812 
L 367.82 10.7 
" style="fill:none;stroke:#000000;stroke-linecap:square;stroke-linejoin:miter;stroke-width:0.8;"/>
   </g>
   <g id="patch_5">
    <path d="M 10.7 276.812 
L 367.82 276.812 
" style="fill:none;stroke:#000000;stroke-linecap:square;stroke-linejoin:miter;stroke-width:0.8;"/>
   </g>
   <g id="patch_6">
    <path d="M 10.7 10.7 
L 367.82 10.7 
" style="fill:none;stroke:#000000;stroke-linecap:square;stroke-linejoin:miter;stroke-width:0.8;"/>
   </g>
   <g id="text_6">
    <!-- {f6-f9}, 20-D -->
    <defs>
     <path d="M 51.125 -9.28125 
L 51.125 -16.3125 
L 48.09375 -16.3125 
Q 35.9375 -16.3125 31.8125 -12.6875 
Q 27.6875 -9.078125 27.6875 1.703125 
L 27.6875 13.375 
Q 27.6875 20.75 25.046875 23.578125 
Q 22.40625 26.421875 15.484375 26.421875 
L 12.5 26.421875 
L 12.5 33.40625 
L 15.484375 33.40625 
Q 22.46875 33.40625 25.078125 36.203125 
Q 27.6875 39.015625 27.6875 46.296875 
L 27.6875 58.015625 
Q 27.6875 68.796875 31.8125 72.390625 
Q 35.9375 75.984375 48.09375 75.984375 
L 51.125 75.984375 
L 51.125 69 
L 47.796875 69 
Q 40.921875 69 38.8125 66.84375 
Q 36.71875 64.703125 36.71875 57.8125 
L 36.71875 45.703125 
Q 36.71875 38.03125 34.5 34.5625 
Q 32.28125 31.109375 26.90625 29.890625 
Q 32.328125 28.5625 34.515625 25.09375 
Q 36.71875 21.625 36.71875 14.015625 
L 36.71875 1.90625 
Q 36.71875 -4.984375 38.8125 -7.125 
Q 40.921875 -9.28125 47.796875 -9.28125 
z
" id="DejaVuSans-7b"/>
     <path d="M 33.015625 40.375 
Q 26.375 40.375 22.484375 35.828125 
Q 18.609375 31.296875 18.609375 23.390625 
Q 18.609375 15.53125 22.484375 10.953125 
Q 26.375 6.390625 33.015625 6.390625 
Q 39.65625 6.390625 43.53125 10.953125 
Q 47.40625 15.53125 47.40625 23.390625 
Q 47.40625 31.296875 43.53125 35.828125 
Q 39.65625 40.375 33.015625 40.375 
z
M 52.59375 71.296875 
L 52.59375 62.3125 
Q 48.875 64.0625 45.09375 64.984375 
Q 41.3125 65.921875 37.59375 65.921875 
Q 27.828125 65.921875 22.671875 59.328125 
Q 17.53125 52.734375 16.796875 39.40625 
Q 19.671875 43.65625 24.015625 45.921875 
Q 28.375 48.1875 33.59375 48.1875 
Q 44.578125 48.1875 50.953125 41.515625 
Q 57.328125 34.859375 57.328125 23.390625 
Q 57.328125 12.15625 50.6875 5.359375 
Q 44.046875 -1.421875 33.015625 -1.421875 
Q 20.359375 -1.421875 13.671875 8.265625 
Q 6.984375 17.96875 6.984375 36.375 
Q 6.984375 53.65625 15.1875 63.9375 
Q 23.390625 74.21875 37.203125 74.21875 
Q 40.921875 74.21875 44.703125 73.484375 
Q 48.484375 72.75 52.59375 71.296875 
z
" id="DejaVuSans-36"/>
     <path d="M 10.984375 1.515625 
L 10.984375 10.5 
Q 14.703125 8.734375 18.5 7.8125 
Q 22.3125 6.890625 25.984375 6.890625 
Q 35.75 6.890625 40.890625 13.453125 
Q 46.046875 20.015625 46.78125 33.40625 
Q 43.953125 29.203125 39.59375 26.953125 
Q 35.25 24.703125 29.984375 24.703125 
Q 19.046875 24.703125 12.671875 31.3125 
Q 6.296875 37.9375 6.296875 49.421875 
Q 6.296875 60.640625 12.9375 67.421875 
Q 19.578125 74.21875 30.609375 74.21875 
Q 43.265625 74.21875 49.921875 64.515625 
Q 56.59375 54.828125 56.59375 36.375 
Q 56.59375 19.140625 48.40625 8.859375 
Q 40.234375 -1.421875 26.421875 -1.421875 
Q 22.703125 -1.421875 18.890625 -0.6875 
Q 15.09375 0.046875 10.984375 1.515625 
z
M 30.609375 32.421875 
Q 37.25 32.421875 41.125 36.953125 
Q 45.015625 41.5 45.015625 49.421875 
Q 45.015625 57.28125 41.125 61.84375 
Q 37.25 66.40625 30.609375 66.40625 
Q 23.96875 66.40625 20.09375 61.84375 
Q 16.21875 57.28125 16.21875 49.421875 
Q 16.21875 41.5 20.09375 36.953125 
Q 23.96875 32.421875 30.609375 32.421875 
z
" id="DejaVuSans-39"/>
     <path d="M 12.5 -9.28125 
L 15.921875 -9.28125 
Q 22.75 -9.28125 24.828125 -7.171875 
Q 26.90625 -5.078125 26.90625 1.90625 
L 26.90625 14.015625 
Q 26.90625 21.625 29.09375 25.09375 
Q 31.296875 28.5625 36.71875 29.890625 
Q 31.296875 31.109375 29.09375 34.5625 
Q 26.90625 38.03125 26.90625 45.703125 
L 26.90625 57.8125 
Q 26.90625 64.75 24.828125 66.875 
Q 22.75 69 15.921875 69 
L 12.5 69 
L 12.5 75.984375 
L 15.578125 75.984375 
Q 27.734375 75.984375 31.8125 72.390625 
Q 35.890625 68.796875 35.890625 58.015625 
L 35.890625 46.296875 
Q 35.890625 39.015625 38.515625 36.203125 
Q 41.15625 33.40625 48.09375 33.40625 
L 51.125 33.40625 
L 51.125 26.421875 
L 48.09375 26.421875 
Q 41.15625 26.421875 38.515625 23.578125 
Q 35.890625 20.75 35.890625 13.375 
L 35.890625 1.703125 
Q 35.890625 -9.078125 31.8125 -12.6875 
Q 27.734375 -16.3125 15.578125 -16.3125 
L 12.5 -16.3125 
z
" id="DejaVuSans-7d"/>
     <path d="M 11.71875 12.40625 
L 22.015625 12.40625 
L 22.015625 4 
L 14.015625 -11.625 
L 7.71875 -11.625 
L 11.71875 4 
z
" id="DejaVuSans-2c"/>
     <path d="M 19.1875 8.296875 
L 53.609375 8.296875 
L 53.609375 0 
L 7.328125 0 
L 7.328125 8.296875 
Q 12.9375 14.109375 22.625 23.890625 
Q 32.328125 33.6875 34.8125 36.53125 
Q 39.546875 41.84375 41.421875 45.53125 
Q 43.3125 49.21875 43.3125 52.78125 
Q 43.3125 58.59375 39.234375 62.25 
Q 35.15625 65.921875 28.609375 65.921875 
Q 23.96875 65.921875 18.8125 64.3125 
Q 13.671875 62.703125 7.8125 59.421875 
L 7.8125 69.390625 
Q 13.765625 71.78125 18.9375 73 
Q 24.125 74.21875 28.421875 74.21875 
Q 39.75 74.21875 46.484375 68.546875 
Q 53.21875 62.890625 53.21875 53.421875 
Q 53.21875 48.921875 51.53125 44.890625 
Q 49.859375 40.875 45.40625 35.40625 
Q 44.1875 33.984375 37.640625 27.21875 
Q 31.109375 20.453125 19.1875 8.296875 
z
" id="DejaVuSans-32"/>
    </defs>
    <g transform="translate(227.7026 271.48976)scale(0.2 -0.2)">
     <use xlink:href="#DejaVuSans-7b"/>
     <use x="63.623047" xlink:href="#DejaVuSans-66"/>
     <use x="98.828125" xlink:href="#DejaVuSans-36"/>
     <use x="162.451172" xlink:href="#DejaVuSans-2d"/>
     <use x="198.535156" xlink:href="#DejaVuSans-66"/>
     <use x="233.740234" xlink:href="#DejaVuSans-39"/>
     <use x="297.363281" xlink:href="#DejaVuSans-7d"/>
     <use x="360.986328" xlink:href="#DejaVuSans-2c"/>
     <use x="392.773438" xlink:href="#DejaVuSans-20"/>
     <use x="424.560547" xlink:href="#DejaVuSans-32"/>
     <use x="488.183594" xlink:href="#DejaVuSans-30"/>
     <use x="551.806641" xlink:href="#DejaVuSans-2d"/>
     <use x="587.890625" xlink:href="#DejaVuSans-44"/>
    </g>
   </g>
   <g id="text_7">
    <!-- v-coco-version -->
    <defs>
     <path d="M 2.984375 54.6875 
L 12.5 54.6875 
L 29.59375 8.796875 
L 46.6875 54.6875 
L 56.203125 54.6875 
L 35.6875 0 
L 23.484375 0 
z
" id="DejaVuSans-76"/>
     <path d="M 48.78125 52.59375 
L 48.78125 44.1875 
Q 44.96875 46.296875 41.140625 47.34375 
Q 37.3125 48.390625 33.40625 48.390625 
Q 24.65625 48.390625 19.8125 42.84375 
Q 14.984375 37.3125 14.984375 27.296875 
Q 14.984375 17.28125 19.8125 11.734375 
Q 24.65625 6.203125 33.40625 6.203125 
Q 37.3125 6.203125 41.140625 7.25 
Q 44.96875 8.296875 48.78125 10.40625 
L 48.78125 2.09375 
Q 45.015625 0.34375 40.984375 -0.53125 
Q 36.96875 -1.421875 32.421875 -1.421875 
Q 20.0625 -1.421875 12.78125 6.34375 
Q 5.515625 14.109375 5.515625 27.296875 
Q 5.515625 40.671875 12.859375 48.328125 
Q 20.21875 56 33.015625 56 
Q 37.15625 56 41.109375 55.140625 
Q 45.0625 54.296875 48.78125 52.59375 
z
" id="DejaVuSans-63"/>
     <path d="M 56.203125 29.59375 
L 56.203125 25.203125 
L 14.890625 25.203125 
Q 15.484375 15.921875 20.484375 11.0625 
Q 25.484375 6.203125 34.421875 6.203125 
Q 39.59375 6.203125 44.453125 7.46875 
Q 49.3125 8.734375 54.109375 11.28125 
L 54.109375 2.78125 
Q 49.265625 0.734375 44.1875 -0.34375 
Q 39.109375 -1.421875 33.890625 -1.421875 
Q 20.796875 -1.421875 13.15625 6.1875 
Q 5.515625 13.8125 5.515625 26.8125 
Q 5.515625 40.234375 12.765625 48.109375 
Q 20.015625 56 32.328125 56 
Q 43.359375 56 49.78125 48.890625 
Q 56.203125 41.796875 56.203125 29.59375 
z
M 47.21875 32.234375 
Q 47.125 39.59375 43.09375 43.984375 
Q 39.0625 48.390625 32.421875 48.390625 
Q 24.90625 48.390625 20.390625 44.140625 
Q 15.875 39.890625 15.1875 32.171875 
z
" id="DejaVuSans-65"/>
     <path d="M 41.109375 46.296875 
Q 39.59375 47.171875 37.8125 47.578125 
Q 36.03125 48 33.890625 48 
Q 26.265625 48 22.1875 43.046875 
Q 18.109375 38.09375 18.109375 28.8125 
L 18.109375 0 
L 9.078125 0 
L 9.078125 54.6875 
L 18.109375 54.6875 
L 18.109375 46.1875 
Q 20.953125 51.171875 25.484375 53.578125 
Q 30.03125 56 36.53125 56 
Q 37.453125 56 38.578125 55.875 
Q 39.703125 55.765625 41.0625 55.515625 
z
" id="DejaVuSans-72"/>
     <path d="M 44.28125 53.078125 
L 44.28125 44.578125 
Q 40.484375 46.53125 36.375 47.5 
Q 32.28125 48.484375 27.875 48.484375 
Q 21.1875 48.484375 17.84375 46.4375 
Q 14.5 44.390625 14.5 40.28125 
Q 14.5 37.15625 16.890625 35.375 
Q 19.28125 33.59375 26.515625 31.984375 
L 29.59375 31.296875 
Q 39.15625 29.25 43.1875 25.515625 
Q 47.21875 21.78125 47.21875 15.09375 
Q 47.21875 7.46875 41.1875 3.015625 
Q 35.15625 -1.421875 24.609375 -1.421875 
Q 20.21875 -1.421875 15.453125 -0.5625 
Q 10.6875 0.296875 5.421875 2 
L 5.421875 11.28125 
Q 10.40625 8.6875 15.234375 7.390625 
Q 20.0625 6.109375 24.8125 6.109375 
Q 31.15625 6.109375 34.5625 8.28125 
Q 37.984375 10.453125 37.984375 14.40625 
Q 37.984375 18.0625 35.515625 20.015625 
Q 33.0625 21.96875 24.703125 23.78125 
L 21.578125 24.515625 
Q 13.234375 26.265625 9.515625 29.90625 
Q 5.8125 33.546875 5.8125 39.890625 
Q 5.8125 47.609375 11.28125 51.796875 
Q 16.75 56 26.8125 56 
Q 31.78125 56 36.171875 55.265625 
Q 40.578125 54.546875 44.28125 53.078125 
z
" id="DejaVuSans-73"/>
     <path d="M 9.421875 54.6875 
L 18.40625 54.6875 
L 18.40625 0 
L 9.421875 0 
z
M 9.421875 75.984375 
L 18.40625 75.984375 
L 18.40625 64.59375 
L 9.421875 64.59375 
z
" id="DejaVuSans-69"/>
     <path d="M 54.890625 33.015625 
L 54.890625 0 
L 45.90625 0 
L 45.90625 32.71875 
Q 45.90625 40.484375 42.875 44.328125 
Q 39.84375 48.1875 33.796875 48.1875 
Q 26.515625 48.1875 22.3125 43.546875 
Q 18.109375 38.921875 18.109375 30.90625 
L 18.109375 0 
L 9.078125 0 
L 9.078125 54.6875 
L 18.109375 54.6875 
L 18.109375 46.1875 
Q 21.34375 51.125 25.703125 53.5625 
Q 30.078125 56 35.796875 56 
Q 45.21875 56 50.046875 50.171875 
Q 54.890625 44.34375 54.890625 33.015625 
z
" id="DejaVuSans-6e"/>
    </defs>
    <g style="fill:#808080;" transform="translate(152.764688 272.071193)scale(0.1 -0.1)">
     <use xlink:href="#DejaVuSans-76"/>
     <use x="59.148438" xlink:href="#DejaVuSans-2d"/>
     <use x="95.232422" xlink:href="#DejaVuSans-63"/>
     <use x="150.212891" xlink:href="#DejaVuSans-6f"/>
     <use x="211.394531" xlink:href="#DejaVuSans-63"/>
     <use x="266.375" xlink:href="#DejaVuSans-6f"/>
     <use x="327.572266" xlink:href="#DejaVuSans-2d"/>
     <use x="363.625" xlink:href="#DejaVuSans-76"/>
     <use x="422.804688" xlink:href="#DejaVuSans-65"/>
     <use x="484.328125" xlink:href="#DejaVuSans-72"/>
     <use x="525.441406" xlink:href="#DejaVuSans-73"/>
     <use x="577.541016" xlink:href="#DejaVuSans-69"/>
     <use x="605.324219" xlink:href="#DejaVuSans-6f"/>
     <use x="666.505859" xlink:href="#DejaVuSans-6e"/>
    </g>
   </g>
  </g>
 </g>
 <defs>
  <clipPath id="p699f8d4985">
   <rect height="266.112" width="357.12" x="10.7" y="10.7"/>
  </clipPath>
 </defs>
</svg>
