<?xml version="1.0" encoding="utf-8" standalone="no"?>
<!DOCTYPE svg PUBLIC "-//W3C//DTD SVG 1.1//EN"
  "http://www.w3.org/Graphics/SVG/1.1/DTD/svg11.dtd">
<!-- Created with matplotlib (http://matplotlib.org/) -->
<svg height="345.6pt" version="1.1" viewBox="0 0 460.8 345.6" width="460.8pt" xmlns="http://www.w3.org/2000/svg" xmlns:xlink="http://www.w3.org/1999/xlink">
 <defs>
  <style type="text/css">
*{stroke-linecap:butt;stroke-linejoin:round;}
  </style>
 </defs>
 <g id="figure_1">
  <g id="patch_1">
   <path d="M 0 345.6 
L 460.8 345.6 
L 460.8 0 
L 0 0 
z
" style="fill:#ffffff;"/>
  </g>
  <g id="axes_1">
   <g id="patch_2">
    <path d="M 56.12 294.88 
L 399.984 294.88 
L 399.984 6.845228 
L 56.12 6.845228 
z
" style="fill:#ffffff;"/>
   </g>
   <g id="line2d_1">
    <path d="M 16.504332 294.88 
L 16.504332 288.356207 
L 28.429836 288.356207 
L 28.429836 287.424237 
L 35.405809 287.424237 
L 35.405809 286.492266 
L 40.355341 286.492266 
L 40.355341 286.026281 
L 52.280845 286.026281 
L 52.280845 285.560296 
L 56.12 285.560296 
L 56.12 285.327303 
L 57.759799 285.327303 
L 57.759799 284.861318 
L 59.256818 284.861318 
L 59.256818 284.628326 
L 64.20635 284.628326 
L 64.20635 284.16234 
L 66.232791 284.16234 
L 66.232791 283.929348 
L 67.16301 283.929348 
L 67.16301 283.696355 
L 68.045504 283.696355 
L 68.045504 272.279718 
L 69.685303 272.279718 
L 69.685303 271.114755 
L 70.45009 271.114755 
L 70.45009 261.096073 
L 72.559446 261.096073 
L 72.559446 260.86308 
L 73.208764 260.86308 
L 73.208764 260.630088 
L 75.021477 260.630088 
L 75.021477 259.698117 
L 75.585622 259.698117 
L 75.585622 258.99914 
L 76.131854 258.99914 
L 76.131854 258.533154 
L 76.661276 258.533154 
L 76.661276 258.300162 
L 78.629691 258.300162 
L 78.629691 258.067169 
L 79.971009 258.067169 
L 79.971009 257.834177 
L 81.215276 257.834177 
L 81.215276 257.601184 
L 82.375594 257.601184 
L 82.375594 257.368191 
L 82.745606 257.368191 
L 82.745606 257.135199 
L 84.484951 257.135199 
L 84.484951 256.902206 
L 85.759969 256.902206 
L 85.759969 256.203228 
L 87.511126 256.203228 
L 87.511126 255.970236 
L 88.057358 255.970236 
L 88.057358 255.737243 
L 88.586781 255.737243 
L 88.586781 255.504251 
L 89.351567 255.504251 
L 89.351567 255.271258 
L 90.0838 255.271258 
L 90.0838 255.038265 
L 90.786137 255.038265 
L 90.786137 254.805273 
L 91.238922 254.805273 
L 91.238922 254.339288 
L 91.460924 254.339288 
L 91.460924 254.106295 
L 92.321346 254.106295 
L 92.321346 253.873302 
L 92.939552 253.873302 
L 92.939552 253.64031 
L 93.339683 253.64031 
L 93.339683 253.407317 
L 93.536312 253.407317 
L 93.536312 253.174325 
L 95.388083 253.174325 
L 95.388083 252.475347 
L 96.07637 252.475347 
L 96.07637 252.242354 
L 96.899726 252.242354 
L 96.899726 252.009362 
L 97.989992 252.009362 
L 97.989992 251.776369 
L 98.872486 251.776369 
L 98.872486 251.543376 
L 99.156871 251.543376 
L 99.156871 251.310384 
L 99.574823 251.310384 
L 99.574823 251.077391 
L 99.847922 251.077391 
L 99.847922 250.844399 
L 100.24961 250.844399 
L 100.24961 250.611406 
L 100.512285 250.611406 
L 100.512285 250.378413 
L 100.642134 250.378413 
L 100.642134 250.145421 
L 101.025901 250.145421 
L 101.025901 249.912428 
L 101.401295 249.912428 
L 101.401295 249.679436 
L 101.647083 249.679436 
L 101.647083 249.446443 
L 102.364056 249.446443 
L 102.364056 249.21345 
L 102.4807 249.21345 
L 102.4807 248.980458 
L 102.939523 248.980458 
L 102.939523 248.747465 
L 103.164427 248.747465 
L 103.164427 248.514473 
L 103.275786 248.514473 
L 103.275786 248.048487 
L 104.035746 248.048487 
L 104.035746 247.815495 
L 104.35144 247.815495 
L 104.35144 247.582502 
L 105.066285 247.582502 
L 105.066285 247.116517 
L 105.848459 247.116517 
L 105.943777 246.650532 
L 106.319855 246.650532 
L 106.412604 245.252576 
L 106.504855 245.252576 
L 106.504855 245.019584 
L 106.687887 245.019584 
L 106.778678 243.621628 
L 106.868993 243.621628 
L 106.958836 240.592724 
L 107.048212 240.592724 
L 107.137126 236.63185 
L 107.225583 236.63185 
L 107.313588 234.534917 
L 107.661173 234.534917 
L 107.661173 234.301924 
L 107.832367 234.301924 
L 107.917329 233.835939 
L 108.086006 233.835939 
L 108.086006 233.602946 
L 109.064745 233.602946 
L 109.064745 233.369954 
L 109.915496 233.369954 
L 109.915496 233.136961 
L 110.065758 233.136961 
L 110.065758 232.903968 
L 110.362401 232.903968 
L 110.362401 232.670976 
L 110.654016 232.670976 
L 110.654016 232.204991 
L 111.082375 232.204991 
L 111.082375 231.971998 
L 111.362135 231.971998 
L 111.43137 231.27302 
L 111.773426 231.27302 
L 111.773426 231.040027 
L 111.908367 231.040027 
L 111.908367 230.807035 
L 112.042258 230.807035 
L 112.042258 230.574042 
L 112.567638 230.574042 
L 112.567638 230.34105 
L 112.696514 230.34105 
L 112.696514 230.108057 
L 113.014543 230.108057 
L 113.014543 229.875064 
L 113.140126 229.875064 
L 113.140126 229.642072 
L 113.63349 229.642072 
L 113.63349 229.409079 
L 114.289561 229.409079 
L 114.289561 228.943094 
L 114.464231 228.943094 
L 114.464231 228.710101 
L 115.801204 228.710101 
L 115.801204 228.477109 
L 116.01427 228.477109 
L 116.067126 228.011124 
L 116.739884 228.011124 
L 116.841089 227.312146 
L 116.941702 227.312146 
L 116.941702 227.079153 
L 117.387321 227.079153 
L 117.436129 226.613168 
L 118.338108 226.613168 
L 118.338108 226.147183 
L 119.018231 226.147183 
L 119.06263 225.681198 
L 119.239092 225.681198 
L 119.239092 225.448205 
L 120.095232 225.448205 
L 120.178549 224.98222 
L 120.54856 224.98222 
L 120.629716 224.516235 
L 120.790886 224.516235 
L 120.870909 224.050249 
L 121.108768 224.050249 
L 121.187329 223.351272 
L 121.613118 223.351272 
L 121.613118 223.118279 
L 121.841001 223.118279 
L 121.878689 222.652294 
L 121.991263 222.652294 
L 121.991263 222.419301 
L 122.723495 222.419301 
L 122.830691 221.720323 
L 123.322292 221.720323 
L 123.322292 221.487331 
L 123.562923 221.487331 
L 123.597026 221.021346 
L 123.934387 221.021346 
L 123.934387 220.788353 
L 124.133674 220.788353 
L 124.133674 220.55536 
L 124.493143 220.55536 
L 124.493143 220.322368 
L 125.065631 220.322368 
L 125.096884 219.856383 
L 125.221332 219.856383 
L 125.221332 219.62339 
L 125.406332 219.62339 
L 125.46756 218.924412 
L 125.860313 218.924412 
L 125.860313 218.458427 
L 126.12706 218.458427 
L 126.12706 218.225434 
L 126.447567 218.225434 
L 126.447567 217.759449 
L 126.762212 217.759449 
L 126.762212 217.526457 
L 127.071205 217.526457 
L 127.071205 217.293464 
L 127.209843 217.293464 
L 127.264987 216.827479 
L 127.402078 216.827479 
L 127.429366 216.361494 
L 127.646123 216.361494 
L 127.646123 216.128501 
L 127.886754 216.128501 
L 127.886754 215.895508 
L 128.202449 215.895508 
L 128.202449 215.662516 
L 128.563584 215.662516 
L 128.665388 214.963538 
L 128.766593 214.963538 
L 128.867207 214.497553 
L 128.892269 214.497553 
L 128.892269 214.26456 
L 129.091459 214.26456 
L 129.165565 213.798575 
L 129.675556 213.798575 
L 129.675556 213.565582 
L 129.86593 213.565582 
L 129.960332 213.099597 
L 130.332847 213.099597 
L 130.332847 212.866605 
L 130.720002 212.866605 
L 130.787428 212.400619 
L 130.832232 212.400619 
L 130.832232 212.167627 
L 131.164597 212.167627 
L 131.252153 211.235656 
L 131.360976 211.235656 
L 131.447542 210.536679 
L 131.768338 210.536679 
L 131.789513 210.070693 
L 132.062446 210.070693 
L 132.062446 209.837701 
L 132.269486 209.837701 
L 132.331116 209.371716 
L 132.392525 209.371716 
L 132.392525 209.138723 
L 132.635994 209.138723 
L 132.736431 208.439745 
L 132.994857 208.439745 
L 133.093227 207.740767 
L 133.268888 207.740767 
L 133.268888 207.507775 
L 133.461986 207.507775 
L 133.461986 207.274782 
L 133.614919 207.274782 
L 133.709817 206.808797 
L 133.823007 206.808797 
L 133.916767 206.342812 
L 133.935458 206.342812 
L 133.935458 206.109819 
L 134.047178 206.109819 
L 134.158178 205.643834 
L 134.396248 205.643834 
L 134.396248 205.410841 
L 134.613119 205.410841 
L 134.720537 204.944856 
L 134.738376 204.944856 
L 134.756195 204.478871 
L 134.862727 204.478871 
L 134.862727 204.245878 
L 135.161034 204.245878 
L 135.230479 203.779893 
L 135.316892 203.779893 
L 135.334123 203.313908 
L 135.488428 203.313908 
L 135.590534 202.61493 
L 135.742566 202.61493 
L 135.742566 202.381938 
L 135.993005 202.381938 
L 136.059178 201.449967 
L 136.174371 201.449967 
L 136.190765 200.983982 
L 136.288798 200.983982 
L 136.288798 200.750989 
L 136.402469 200.750989 
L 136.434809 200.285004 
L 136.627583 200.285004 
L 136.627583 200.052012 
L 136.739045 200.052012 
L 136.754909 199.353034 
L 137.037994 199.353034 
L 137.13133 198.654056 
L 137.193273 198.654056 
L 137.208725 197.722086 
L 137.347164 197.722086 
L 137.454074 196.790115 
L 137.499691 196.790115 
L 137.60566 196.091137 
L 137.665922 196.091137 
L 137.665922 195.858145 
L 137.875194 195.858145 
L 137.964108 195.159167 
L 138.008393 195.159167 
L 138.02313 194.693182 
L 138.213564 194.693182 
L 138.300751 193.062234 
L 138.34418 193.062234 
L 138.445088 191.664278 
L 138.488154 191.664278 
L 138.488154 191.431285 
L 138.73018 191.431285 
L 138.73018 191.198293 
L 138.94094 191.198293 
L 138.94094 190.9653 
L 139.052299 190.9653 
L 139.093873 190.266322 
L 139.217997 190.266322 
L 139.300252 189.800337 
L 139.422901 189.800337 
L 139.504184 189.334352 
L 139.571627 189.334352 
L 139.67899 188.635374 
L 139.745754 188.635374 
L 139.798978 187.936396 
L 139.878508 187.936396 
L 139.983979 187.237419 
L 140.023364 187.237419 
L 140.114914 186.305448 
L 140.140982 186.305448 
L 140.244861 185.60647 
L 140.296566 185.60647 
L 140.399513 184.441507 
L 140.412338 184.441507 
L 140.514596 182.810559 
L 140.527335 182.810559 
L 140.628914 182.344574 
L 140.75505 182.344574 
L 140.75505 181.878589 
L 141.016963 181.878589 
L 141.1157 181.412604 
L 141.420651 181.412604 
L 141.468945 180.713626 
L 141.541134 180.713626 
L 141.636916 180.247641 
L 141.885837 180.247641 
L 141.932845 179.548663 
L 142.304354 179.548663 
L 142.384563 178.849685 
L 142.690486 178.849685 
L 142.690486 178.616692 
L 143.10107 178.616692 
L 143.133935 178.150707 
L 143.480644 178.150707 
L 143.555565 177.684722 
L 143.736167 177.684722 
L 143.736167 177.451729 
L 143.883488 177.451729 
L 143.883488 177.218737 
L 144.174398 177.218737 
L 144.26687 176.752752 
L 144.37922 176.752752 
L 144.37922 176.519759 
L 144.490842 176.519759 
L 144.490842 176.286766 
L 144.721918 176.286766 
L 144.721918 176.053774 
L 144.870965 176.053774 
L 144.890741 175.587789 
L 144.999103 175.587789 
L 145.067707 175.121803 
L 145.145778 175.121803 
L 145.145778 174.888811 
L 145.262224 174.888811 
L 145.262224 174.655818 
L 145.425852 174.655818 
L 145.425852 174.189833 
L 145.597425 174.189833 
L 145.597425 173.95684 
L 145.795455 173.95684 
L 145.851619 173.490855 
L 146.25798 173.490855 
L 146.267105 173.02487 
L 146.520654 173.02487 
L 146.538623 172.325892 
L 146.717284 172.325892 
L 146.717284 172.0929 
L 147.051711 172.0929 
L 147.051711 171.859907 
L 147.311216 171.859907 
L 147.319799 171.393922 
L 147.52452 171.393922 
L 147.52452 171.160929 
L 147.68488 171.160929 
L 147.743586 170.694944 
L 148.009432 170.694944 
L 148.009432 170.461951 
L 148.165356 170.461951 
L 148.165356 170.228959 
L 148.529109 170.228959 
L 148.529109 169.995966 
L 148.696263 169.995966 
L 148.696263 169.762974 
L 148.940085 169.762974 
L 148.963498 169.296988 
L 149.095575 169.296988 
L 149.195895 168.598011 
L 149.455539 168.598011 
L 149.531165 168.132025 
L 149.867427 168.132025 
L 149.867427 167.899033 
L 150.197243 167.899033 
L 150.219007 167.433048 
L 150.327419 167.433048 
L 150.327419 167.200055 
L 150.44231 167.200055 
L 150.44231 166.967062 
L 150.761387 166.967062 
L 150.803487 166.501077 
L 150.887379 166.501077 
L 150.963923 166.035092 
L 151.026297 166.035092 
L 151.088446 165.569107 
L 151.157238 165.569107 
L 151.170963 165.103122 
L 151.449949 165.103122 
L 151.449949 164.870129 
L 151.804012 164.870129 
L 151.804012 164.637136 
L 151.942311 164.637136 
L 151.968527 164.171151 
L 152.086012 164.171151 
L 152.086012 163.938159 
L 152.299338 163.938159 
L 152.299338 163.705166 
L 152.535418 163.705166 
L 152.617602 163.239181 
L 152.667983 163.239181 
L 152.737015 162.773196 
L 152.805772 162.773196 
L 152.880468 162.30721 
L 152.917695 162.30721 
L 153.01041 161.841225 
L 153.078085 161.841225 
L 153.145495 161.142247 
L 153.23091 161.142247 
L 153.303786 160.210277 
L 153.376355 160.210277 
L 153.376355 159.977284 
L 153.651735 159.977284 
L 153.681403 159.511299 
L 153.969481 159.511299 
L 153.986962 159.045314 
L 154.469373 159.045314 
L 154.469373 158.812321 
L 154.716768 158.812321 
L 154.789186 158.346336 
L 154.828055 158.346336 
L 154.922086 157.880351 
L 155.010118 157.880351 
L 155.010118 157.647358 
L 155.195706 157.647358 
L 155.298551 156.948381 
L 155.411511 156.948381 
L 155.411511 156.715388 
L 155.60875 156.715388 
L 155.619347 156.249403 
L 156.089597 156.249403 
L 156.089597 156.01641 
L 156.396105 156.01641 
L 156.396105 155.783418 
L 156.527248 155.783418 
L 156.562386 155.317432 
L 156.781623 155.317432 
L 156.781623 155.08444 
L 157.046923 155.08444 
L 157.046923 154.851447 
L 157.332186 154.851447 
L 157.442122 152.288529 
L 157.46117 152.288529 
L 157.565557 149.72561 
L 157.579743 149.72561 
L 157.688113 141.803862 
L 157.749065 141.803862 
L 157.837762 140.405906 
L 157.870325 140.405906 
L 157.902826 139.00795 
L 158.018404 139.00795 
L 158.128633 135.746054 
L 158.174354 135.746054 
L 158.201729 134.581091 
L 158.482077 134.581091 
L 158.504488 133.882113 
L 158.75793 133.882113 
L 158.75793 133.649121 
L 158.946683 133.649121 
L 159.012043 133.183135 
L 159.352233 133.183135 
L 159.407575 132.71715 
L 159.509279 132.71715 
L 159.593575 132.251165 
L 159.656527 132.251165 
L 159.727596 131.78518 
L 159.844014 131.78518 
L 159.844014 131.552187 
L 159.980218 131.552187 
L 160.021279 131.086202 
L 160.281779 131.086202 
L 160.281779 130.853209 
L 160.410565 130.853209 
L 160.470603 130.154232 
L 160.574175 130.154232 
L 160.673179 129.688246 
L 160.700798 129.688246 
L 160.810834 128.756276 
L 160.818667 128.756276 
L 160.920171 128.057298 
L 160.959052 128.057298 
L 161.024949 126.892335 
L 161.179012 126.892335 
L 161.286041 125.727372 
L 161.35829 125.727372 
L 161.392408 125.261387 
L 161.475524 125.261387 
L 161.558239 123.863431 
L 161.61441 123.863431 
L 161.674123 122.698468 
L 161.752183 122.698468 
L 161.863087 121.999491 
L 161.903574 121.999491 
L 161.980602 120.834528 
L 162.03906 120.834528 
L 162.13726 119.669565 
L 162.166249 119.669565 
L 162.245717 118.504602 
L 162.292504 118.504602 
L 162.364235 117.572631 
L 162.435669 117.572631 
L 162.545809 116.174676 
L 162.644688 116.174676 
L 162.753502 115.009713 
L 162.767493 115.009713 
L 162.767493 114.77672 
L 162.917177 114.77672 
L 163.010504 113.84475 
L 163.141 113.84475 
L 163.222912 112.912779 
L 163.294266 112.912779 
L 163.378828 112.213801 
L 163.412537 112.213801 
L 163.519962 106.854972 
L 163.563413 106.854972 
L 163.616741 106.388986 
L 163.693111 106.388986 
L 163.782333 105.457016 
L 163.854691 105.457016 
L 163.956137 104.991031 
L 164.134663 104.991031 
L 164.183032 104.05906 
L 164.330522 104.05906 
L 164.359231 103.593075 
L 164.502064 103.593075 
L 164.587197 103.12709 
L 164.66252 103.12709 
L 164.66252 102.894097 
L 165.27166 102.894097 
L 165.295824 102.195119 
L 165.502843 102.195119 
L 165.603943 101.496142 
L 165.630606 101.496142 
L 165.713293 101.030156 
L 165.775049 101.030156 
L 165.868729 100.564171 
L 166.23843 100.564171 
L 166.23843 100.331179 
L 166.459882 100.331179 
L 166.459882 100.098186 
L 166.736912 100.098186 
L 166.842073 99.399208 
L 166.888911 99.399208 
L 166.888911 99.166216 
L 167.096762 99.166216 
L 167.16188 98.70023 
L 167.253712 98.70023 
L 167.283317 98.234245 
L 167.435917 98.234245 
L 167.435917 98.001253 
L 167.560735 98.001253 
L 167.671514 97.302275 
L 167.870174 97.302275 
L 167.947966 96.83629 
L 167.98673 96.83629 
L 168.074274 96.370304 
L 168.189459 96.370304 
L 168.189459 96.137312 
L 168.301345 96.137312 
L 168.409989 95.438334 
L 168.522956 95.438334 
L 168.60782 94.506364 
L 168.642643 94.506364 
L 168.724447 94.040378 
L 168.852566 94.040378 
L 168.904038 92.875415 
L 169.047829 92.875415 
L 169.047829 92.642423 
L 169.207268 92.642423 
L 169.207268 92.40943 
L 169.592468 92.40943 
L 169.592468 92.176438 
L 169.996815 92.176438 
L 169.996815 91.943445 
L 170.322153 91.943445 
L 170.398609 91.244467 
L 170.438949 91.244467 
L 170.4479 90.778482 
L 170.645877 90.778482 
L 170.645877 90.545489 
L 170.784653 90.545489 
L 170.784653 90.312497 
L 170.991825 90.312497 
L 170.991825 90.079504 
L 171.292655 90.079504 
L 171.292655 89.846512 
L 171.632228 89.846512 
L 171.734261 89.380526 
L 171.752936 89.380526 
L 171.752936 89.147534 
L 171.915997 89.147534 
L 172.022491 88.215563 
L 172.11412 88.215563 
L 172.122241 87.749578 
L 172.257705 87.749578 
L 172.257705 87.516586 
L 172.565086 87.516586 
L 172.565086 87.283593 
L 173.816206 87.283593 
L 173.816206 87.0506 
L 174.021007 87.0506 
L 174.021007 86.817608 
L 174.708723 86.817608 
L 174.708723 86.584615 
L 175.045966 86.584615 
L 175.045966 86.351623 
L 175.236716 86.351623 
L 175.236716 86.11863 
L 175.428726 86.11863 
L 175.517269 84.953667 
L 175.560539 84.953667 
L 175.57217 84.487682 
L 175.984115 84.487682 
L 176.040782 83.555711 
L 176.346775 83.555711 
L 176.413338 82.856734 
L 176.935233 82.856734 
L 176.935233 82.623741 
L 177.072787 82.623741 
L 177.151765 81.924763 
L 177.884502 81.924763 
L 177.884502 81.691771 
L 178.551021 81.691771 
L 178.551021 81.458778 
L 180.097097 81.458778 
L 180.170998 80.7598 
L 180.28631 80.7598 
L 180.28631 80.526808 
L 180.399599 80.526808 
L 180.432189 80.060822 
L 181.184394 80.060822 
L 181.184394 79.82783 
L 181.333582 79.82783 
L 181.418931 79.361845 
L 181.467344 79.361845 
L 181.467344 79.128852 
L 181.869413 79.128852 
L 181.877474 78.662867 
L 182.086895 78.662867 
L 182.086895 78.429874 
L 182.263426 78.429874 
L 182.334207 77.963889 
L 182.424786 77.963889 
L 182.424786 77.730896 
L 182.539282 77.730896 
L 182.539282 77.497904 
L 182.814055 77.497904 
L 182.814055 77.264911 
L 182.975757 77.264911 
L 182.975757 77.031919 
L 183.504394 77.031919 
L 183.504394 76.798926 
L 184.088294 76.798926 
L 184.088294 76.565933 
L 184.389402 76.565933 
L 184.389402 76.332941 
L 184.836256 76.332941 
L 184.836256 76.099948 
L 184.94931 76.099948 
L 184.94931 75.866956 
L 185.25099 75.866956 
L 185.25099 75.633963 
L 186.31339 75.633963 
L 186.31339 75.40097 
L 187.055184 75.40097 
L 187.142732 74.934985 
L 187.212958 74.934985 
L 187.212958 74.701993 
L 187.366787 74.701993 
L 187.366787 74.469 
L 188.301631 74.469 
L 188.301631 74.236007 
L 188.47277 74.236007 
L 188.47277 74.003015 
L 188.74758 74.003015 
L 188.74758 73.770022 
L 189.038585 73.770022 
L 189.038585 73.53703 
L 189.267147 73.53703 
L 189.267147 73.304037 
L 189.771482 73.304037 
L 189.771482 73.071044 
L 190.052252 73.071044 
L 190.052252 72.838052 
L 190.626047 72.838052 
L 190.626047 72.605059 
L 191.460627 72.605059 
L 191.460627 72.372067 
L 191.623446 72.372067 
L 191.623446 72.139074 
L 191.73612 72.139074 
L 191.840965 71.673089 
L 191.959919 71.673089 
L 192.048758 71.207104 
L 192.138408 71.207104 
L 192.201076 70.741118 
L 192.393971 70.741118 
L 192.393971 70.508126 
L 192.919454 70.508126 
L 192.989609 70.042141 
L 193.145822 70.042141 
L 193.148214 68.1782 
L 193.586315 68.1782 
L 193.586315 67.945207 
L 193.813913 67.945207 
L 193.813913 67.712215 
L 194.549885 67.712215 
L 194.549885 67.479222 
L 194.767886 67.479222 
L 194.878563 67.013237 
L 195.055572 67.013237 
L 195.055572 66.780244 
L 195.414703 66.780244 
L 195.414703 66.547252 
L 196.205612 66.547252 
L 196.205612 66.314259 
L 196.480761 66.314259 
L 196.563827 65.848274 
L 197.585162 65.848274 
L 197.585162 65.615281 
L 197.700754 65.615281 
L 197.700754 65.382289 
L 197.825601 65.382289 
L 197.885643 64.916303 
L 197.956334 64.916303 
L 197.956334 64.683311 
L 198.092811 64.683311 
L 198.112988 64.217326 
L 198.226879 64.217326 
L 198.288201 63.75134 
L 198.490606 63.75134 
L 198.565407 63.285355 
L 199.424424 63.285355 
L 199.424424 63.052363 
L 199.662766 63.052363 
L 199.662766 62.81937 
L 199.796158 62.81937 
L 199.796158 62.586377 
L 199.945049 62.586377 
L 199.945049 62.353385 
L 200.061881 62.353385 
L 200.061881 62.120392 
L 200.186268 62.120392 
L 200.282923 61.654407 
L 200.377073 61.654407 
L 200.46993 61.188422 
L 201.098351 61.188422 
L 201.098351 60.955429 
L 202.630652 60.955429 
L 202.630652 60.722437 
L 202.803133 60.722437 
L 202.88788 60.023459 
L 202.953282 60.023459 
L 203.048735 59.557474 
L 204.667697 59.557474 
L 204.776951 58.858496 
L 207.13481 58.858496 
L 207.229508 57.926525 
L 207.266662 57.926525 
L 207.361687 57.227548 
L 207.381047 57.227548 
L 207.422572 56.761562 
L 207.65575 56.761562 
L 207.65575 56.52857 
L 208.552713 56.52857 
L 208.656214 55.596599 
L 208.689446 55.596599 
L 208.762716 54.897622 
L 208.802967 54.897622 
L 208.891092 53.965651 
L 208.914548 53.965651 
L 208.968041 53.266673 
L 209.102945 53.266673 
L 209.195434 52.567696 
L 209.269632 52.567696 
L 209.376839 51.868718 
L 209.414053 51.868718 
L 209.514594 51.16974 
L 209.557042 51.16974 
L 209.609267 50.703755 
L 209.675528 50.703755 
L 209.766363 50.004777 
L 209.813418 50.004777 
L 209.902401 49.305799 
L 209.93444 49.305799 
L 210.026838 48.606821 
L 210.084363 48.606821 
L 210.177294 47.907844 
L 210.2259 47.907844 
L 210.318954 47.208866 
L 210.377929 47.208866 
L 210.479559 46.276895 
L 210.510324 46.276895 
L 210.616162 45.577918 
L 210.639761 45.577918 
L 210.743518 44.87894 
L 210.779825 44.87894 
L 210.867163 44.179962 
L 210.914499 44.179962 
L 210.914499 43.946969 
L 211.426368 43.946969 
L 211.426368 43.713977 
L 211.843945 43.713977 
L 211.843945 43.480984 
L 214.368173 43.480984 
L 214.368173 43.247992 
L 223.513468 43.247992 
L 223.513468 43.014999 
L 225.063974 43.014999 
L 225.138099 42.549014 
L 226.618365 42.549014 
L 226.729125 41.850036 
L 226.806996 41.850036 
L 226.914285 41.151058 
L 226.963197 41.151058 
L 227.051108 40.45208 
L 227.097805 40.45208 
L 227.177504 39.753103 
L 227.214946 39.753103 
L 227.312176 39.054125 
L 227.347524 39.054125 
L 227.416043 38.355147 
L 227.459482 38.355147 
L 227.564084 37.423177 
L 227.599806 37.423177 
L 227.676978 36.724199 
L 227.730024 36.724199 
L 227.823757 36.025221 
L 227.861092 36.025221 
L 227.861092 35.792228 
L 232.971983 35.792228 
L 232.971983 35.559236 
L 240.532917 35.559236 
L 240.532917 35.326243 
L 241.238635 35.326243 
L 241.238635 35.093251 
L 243.912886 35.093251 
L 243.912886 34.860258 
L 244.024012 34.860258 
L 244.024012 34.627265 
L 244.221351 34.627265 
L 244.314748 34.16128 
L 244.418791 34.16128 
L 244.504719 33.22931 
L 244.544869 33.22931 
L 244.647564 32.064347 
L 244.67012 32.064347 
L 244.751081 31.132376 
L 244.781681 31.132376 
L 244.877891 29.967413 
L 244.89604 29.967413 
L 245.002863 28.80245 
L 245.024781 28.80245 
L 245.120199 27.637487 
L 245.146861 27.637487 
L 245.210507 26.705517 
L 252.473948 26.705517 
L 252.473948 26.472524 
L 253.917165 26.472524 
L 253.917165 26.239532 
L 254.327972 26.239532 
L 254.327972 26.006539 
L 254.954987 26.006539 
L 254.954987 25.773547 
L 255.96522 25.773547 
L 255.96522 25.540554 
L 258.04981 25.540554 
L 258.04981 25.307561 
L 259.543945 25.307561 
L 259.654356 23.676613 
L 259.659681 23.676613 
L 259.75496 22.045665 
L 259.77361 22.045665 
L 259.874325 19.948732 
L 259.89156 19.948732 
L 259.935867 19.016761 
L 273.932112 19.016761 
L 273.932112 18.783769 
L 281.80427 18.783769 
L 281.80427 18.550776 
L 303.322892 18.550776 
L 303.322892 18.317783 
L 328.422345 18.317783 
L 328.429739 9.697057 
L 333.429677 9.697057 
L 333.429677 9.697057 
" style="fill:none;stroke:#f5deb3;stroke-linecap:square;stroke-width:6;"/>
   </g>
   <g id="line2d_2">
    <defs>
     <path d="M -0 7.778175 
L 7.778175 0 
L 0 -7.778175 
L -7.778175 -0 
z
" id="m4aeed5c4b7" style="stroke:#f5deb3;stroke-linejoin:miter;stroke-width:1.5;"/>
    </defs>
    <g>
     <use style="fill:#f5deb3;stroke:#f5deb3;stroke-linejoin:miter;stroke-width:1.5;" x="85.759969" xlink:href="#m4aeed5c4b7" y="256.902206"/>
     <use style="fill:#f5deb3;stroke:#f5deb3;stroke-linejoin:miter;stroke-width:1.5;" x="134.396248" xlink:href="#m4aeed5c4b7" y="205.410841"/>
     <use style="fill:#f5deb3;stroke:#f5deb3;stroke-linejoin:miter;stroke-width:1.5;" x="165.523706" xlink:href="#m4aeed5c4b7" y="101.729134"/>
     <use style="fill:#f5deb3;stroke:#f5deb3;stroke-linejoin:miter;stroke-width:1.5;" x="259.935867" xlink:href="#m4aeed5c4b7" y="19.249754"/>
     <use style="fill:#f5deb3;stroke:#f5deb3;stroke-linejoin:miter;stroke-width:1.5;" x="328.429739" xlink:href="#m4aeed5c4b7" y="9.697057"/>
     <use style="fill:#f5deb3;stroke:#f5deb3;stroke-linejoin:miter;stroke-width:1.5;" x="333.429677" xlink:href="#m4aeed5c4b7" y="9.697057"/>
    </g>
   </g>
   <g id="line2d_3">
    <path style="fill:none;stroke:#f5deb3;stroke-linecap:square;stroke-width:6;"/>
    <g/>
   </g>
   <g id="line2d_4">
    <path d="M 333.429677 9.697057 
L 363.933742 15.400716 
" style="fill:none;stroke:#f5deb3;stroke-linecap:square;stroke-width:6;"/>
    <g>
     <use style="fill:#f5deb3;stroke:#f5deb3;stroke-linejoin:miter;stroke-width:1.5;" x="333.429677" xlink:href="#m4aeed5c4b7" y="9.697057"/>
     <use style="fill:#f5deb3;stroke:#f5deb3;stroke-linejoin:miter;stroke-width:1.5;" x="363.933742" xlink:href="#m4aeed5c4b7" y="15.400716"/>
    </g>
   </g>
   <g id="matplotlib.axis_1">
    <g id="xtick_1">
     <g id="line2d_5">
      <path clip-path="url(#p26cb28ef2e)" d="M 56.12 294.88 
L 56.12 6.845228 
" style="fill:none;stroke:#b0b0b0;stroke-linecap:square;stroke-width:0.8;"/>
     </g>
     <g id="line2d_6">
      <defs>
       <path d="M 0 0 
L 0 3.5 
" id="md44f590751" style="stroke:#000000;stroke-width:0.8;"/>
      </defs>
      <g>
       <use style="stroke:#000000;stroke-width:0.8;" x="56.12" xlink:href="#md44f590751" y="294.88"/>
      </g>
     </g>
     <g id="text_1">
      <!-- 0 -->
      <defs>
       <path d="M 31.78125 66.40625 
Q 24.171875 66.40625 20.328125 58.90625 
Q 16.5 51.421875 16.5 36.375 
Q 16.5 21.390625 20.328125 13.890625 
Q 24.171875 6.390625 31.78125 6.390625 
Q 39.453125 6.390625 43.28125 13.890625 
Q 47.125 21.390625 47.125 36.375 
Q 47.125 51.421875 43.28125 58.90625 
Q 39.453125 66.40625 31.78125 66.40625 
z
M 31.78125 74.21875 
Q 44.046875 74.21875 50.515625 64.515625 
Q 56.984375 54.828125 56.984375 36.375 
Q 56.984375 17.96875 50.515625 8.265625 
Q 44.046875 -1.421875 31.78125 -1.421875 
Q 19.53125 -1.421875 13.0625 8.265625 
Q 6.59375 17.96875 6.59375 36.375 
Q 6.59375 54.828125 13.0625 64.515625 
Q 19.53125 74.21875 31.78125 74.21875 
z
" id="DejaVuSans-30"/>
      </defs>
      <g transform="translate(49.7575 317.076875)scale(0.2 -0.2)">
       <use xlink:href="#DejaVuSans-30"/>
      </g>
     </g>
    </g>
    <g id="xtick_2">
     <g id="line2d_7">
      <path clip-path="url(#p26cb28ef2e)" d="M 135.351336 294.88 
L 135.351336 6.845228 
" style="fill:none;stroke:#b0b0b0;stroke-linecap:square;stroke-width:0.8;"/>
     </g>
     <g id="line2d_8">
      <g>
       <use style="stroke:#000000;stroke-width:0.8;" x="135.351336" xlink:href="#md44f590751" y="294.88"/>
      </g>
     </g>
     <g id="text_2">
      <!-- 2 -->
      <defs>
       <path d="M 19.1875 8.296875 
L 53.609375 8.296875 
L 53.609375 0 
L 7.328125 0 
L 7.328125 8.296875 
Q 12.9375 14.109375 22.625 23.890625 
Q 32.328125 33.6875 34.8125 36.53125 
Q 39.546875 41.84375 41.421875 45.53125 
Q 43.3125 49.21875 43.3125 52.78125 
Q 43.3125 58.59375 39.234375 62.25 
Q 35.15625 65.921875 28.609375 65.921875 
Q 23.96875 65.921875 18.8125 64.3125 
Q 13.671875 62.703125 7.8125 59.421875 
L 7.8125 69.390625 
Q 13.765625 71.78125 18.9375 73 
Q 24.125 74.21875 28.421875 74.21875 
Q 39.75 74.21875 46.484375 68.546875 
Q 53.21875 62.890625 53.21875 53.421875 
Q 53.21875 48.921875 51.53125 44.890625 
Q 49.859375 40.875 45.40625 35.40625 
Q 44.1875 33.984375 37.640625 27.21875 
Q 31.109375 20.453125 19.1875 8.296875 
z
" id="DejaVuSans-32"/>
      </defs>
      <g transform="translate(128.988836 317.076875)scale(0.2 -0.2)">
       <use xlink:href="#DejaVuSans-32"/>
      </g>
     </g>
    </g>
    <g id="xtick_3">
     <g id="line2d_9">
      <path clip-path="url(#p26cb28ef2e)" d="M 214.582673 294.88 
L 214.582673 6.845228 
" style="fill:none;stroke:#b0b0b0;stroke-linecap:square;stroke-width:0.8;"/>
     </g>
     <g id="line2d_10">
      <g>
       <use style="stroke:#000000;stroke-width:0.8;" x="214.582673" xlink:href="#md44f590751" y="294.88"/>
      </g>
     </g>
     <g id="text_3">
      <!-- 4 -->
      <defs>
       <path d="M 37.796875 64.3125 
L 12.890625 25.390625 
L 37.796875 25.390625 
z
M 35.203125 72.90625 
L 47.609375 72.90625 
L 47.609375 25.390625 
L 58.015625 25.390625 
L 58.015625 17.1875 
L 47.609375 17.1875 
L 47.609375 0 
L 37.796875 0 
L 37.796875 17.1875 
L 4.890625 17.1875 
L 4.890625 26.703125 
z
" id="DejaVuSans-34"/>
      </defs>
      <g transform="translate(208.220173 317.076875)scale(0.2 -0.2)">
       <use xlink:href="#DejaVuSans-34"/>
      </g>
     </g>
    </g>
    <g id="xtick_4">
     <g id="line2d_11">
      <path clip-path="url(#p26cb28ef2e)" d="M 293.814009 294.88 
L 293.814009 6.845228 
" style="fill:none;stroke:#b0b0b0;stroke-linecap:square;stroke-width:0.8;"/>
     </g>
     <g id="line2d_12">
      <g>
       <use style="stroke:#000000;stroke-width:0.8;" x="293.814009" xlink:href="#md44f590751" y="294.88"/>
      </g>
     </g>
     <g id="text_4">
      <!-- 6 -->
      <defs>
       <path d="M 33.015625 40.375 
Q 26.375 40.375 22.484375 35.828125 
Q 18.609375 31.296875 18.609375 23.390625 
Q 18.609375 15.53125 22.484375 10.953125 
Q 26.375 6.390625 33.015625 6.390625 
Q 39.65625 6.390625 43.53125 10.953125 
Q 47.40625 15.53125 47.40625 23.390625 
Q 47.40625 31.296875 43.53125 35.828125 
Q 39.65625 40.375 33.015625 40.375 
z
M 52.59375 71.296875 
L 52.59375 62.3125 
Q 48.875 64.0625 45.09375 64.984375 
Q 41.3125 65.921875 37.59375 65.921875 
Q 27.828125 65.921875 22.671875 59.328125 
Q 17.53125 52.734375 16.796875 39.40625 
Q 19.671875 43.65625 24.015625 45.921875 
Q 28.375 48.1875 33.59375 48.1875 
Q 44.578125 48.1875 50.953125 41.515625 
Q 57.328125 34.859375 57.328125 23.390625 
Q 57.328125 12.15625 50.6875 5.359375 
Q 44.046875 -1.421875 33.015625 -1.421875 
Q 20.359375 -1.421875 13.671875 8.265625 
Q 6.984375 17.96875 6.984375 36.375 
Q 6.984375 53.65625 15.1875 63.9375 
Q 23.390625 74.21875 37.203125 74.21875 
Q 40.921875 74.21875 44.703125 73.484375 
Q 48.484375 72.75 52.59375 71.296875 
z
" id="DejaVuSans-36"/>
      </defs>
      <g transform="translate(287.451509 317.076875)scale(0.2 -0.2)">
       <use xlink:href="#DejaVuSans-36"/>
      </g>
     </g>
    </g>
    <g id="xtick_5">
     <g id="line2d_13">
      <path clip-path="url(#p26cb28ef2e)" d="M 373.045346 294.88 
L 373.045346 6.845228 
" style="fill:none;stroke:#b0b0b0;stroke-linecap:square;stroke-width:0.8;"/>
     </g>
     <g id="line2d_14">
      <g>
       <use style="stroke:#000000;stroke-width:0.8;" x="373.045346" xlink:href="#md44f590751" y="294.88"/>
      </g>
     </g>
     <g id="text_5">
      <!-- 8 -->
      <defs>
       <path d="M 31.78125 34.625 
Q 24.75 34.625 20.71875 30.859375 
Q 16.703125 27.09375 16.703125 20.515625 
Q 16.703125 13.921875 20.71875 10.15625 
Q 24.75 6.390625 31.78125 6.390625 
Q 38.8125 6.390625 42.859375 10.171875 
Q 46.921875 13.96875 46.921875 20.515625 
Q 46.921875 27.09375 42.890625 30.859375 
Q 38.875 34.625 31.78125 34.625 
z
M 21.921875 38.8125 
Q 15.578125 40.375 12.03125 44.71875 
Q 8.5 49.078125 8.5 55.328125 
Q 8.5 64.0625 14.71875 69.140625 
Q 20.953125 74.21875 31.78125 74.21875 
Q 42.671875 74.21875 48.875 69.140625 
Q 55.078125 64.0625 55.078125 55.328125 
Q 55.078125 49.078125 51.53125 44.71875 
Q 48 40.375 41.703125 38.8125 
Q 48.828125 37.15625 52.796875 32.3125 
Q 56.78125 27.484375 56.78125 20.515625 
Q 56.78125 9.90625 50.3125 4.234375 
Q 43.84375 -1.421875 31.78125 -1.421875 
Q 19.734375 -1.421875 13.25 4.234375 
Q 6.78125 9.90625 6.78125 20.515625 
Q 6.78125 27.484375 10.78125 32.3125 
Q 14.796875 37.15625 21.921875 38.8125 
z
M 18.3125 54.390625 
Q 18.3125 48.734375 21.84375 45.5625 
Q 25.390625 42.390625 31.78125 42.390625 
Q 38.140625 42.390625 41.71875 45.5625 
Q 45.3125 48.734375 45.3125 54.390625 
Q 45.3125 60.0625 41.71875 63.234375 
Q 38.140625 66.40625 31.78125 66.40625 
Q 25.390625 66.40625 21.84375 63.234375 
Q 18.3125 60.0625 18.3125 54.390625 
z
" id="DejaVuSans-38"/>
      </defs>
      <g transform="translate(366.682846 317.076875)scale(0.2 -0.2)">
       <use xlink:href="#DejaVuSans-38"/>
      </g>
     </g>
    </g>
    <g id="text_6">
     <!-- log10(# f-evals / dimension) -->
     <defs>
      <path d="M 9.421875 75.984375 
L 18.40625 75.984375 
L 18.40625 0 
L 9.421875 0 
z
" id="DejaVuSans-6c"/>
      <path d="M 30.609375 48.390625 
Q 23.390625 48.390625 19.1875 42.75 
Q 14.984375 37.109375 14.984375 27.296875 
Q 14.984375 17.484375 19.15625 11.84375 
Q 23.34375 6.203125 30.609375 6.203125 
Q 37.796875 6.203125 41.984375 11.859375 
Q 46.1875 17.53125 46.1875 27.296875 
Q 46.1875 37.015625 41.984375 42.703125 
Q 37.796875 48.390625 30.609375 48.390625 
z
M 30.609375 56 
Q 42.328125 56 49.015625 48.375 
Q 55.71875 40.765625 55.71875 27.296875 
Q 55.71875 13.875 49.015625 6.21875 
Q 42.328125 -1.421875 30.609375 -1.421875 
Q 18.84375 -1.421875 12.171875 6.21875 
Q 5.515625 13.875 5.515625 27.296875 
Q 5.515625 40.765625 12.171875 48.375 
Q 18.84375 56 30.609375 56 
z
" id="DejaVuSans-6f"/>
      <path d="M 45.40625 27.984375 
Q 45.40625 37.75 41.375 43.109375 
Q 37.359375 48.484375 30.078125 48.484375 
Q 22.859375 48.484375 18.828125 43.109375 
Q 14.796875 37.75 14.796875 27.984375 
Q 14.796875 18.265625 18.828125 12.890625 
Q 22.859375 7.515625 30.078125 7.515625 
Q 37.359375 7.515625 41.375 12.890625 
Q 45.40625 18.265625 45.40625 27.984375 
z
M 54.390625 6.78125 
Q 54.390625 -7.171875 48.1875 -13.984375 
Q 42 -20.796875 29.203125 -20.796875 
Q 24.46875 -20.796875 20.265625 -20.09375 
Q 16.0625 -19.390625 12.109375 -17.921875 
L 12.109375 -9.1875 
Q 16.0625 -11.328125 19.921875 -12.34375 
Q 23.78125 -13.375 27.78125 -13.375 
Q 36.625 -13.375 41.015625 -8.765625 
Q 45.40625 -4.15625 45.40625 5.171875 
L 45.40625 9.625 
Q 42.625 4.78125 38.28125 2.390625 
Q 33.9375 0 27.875 0 
Q 17.828125 0 11.671875 7.65625 
Q 5.515625 15.328125 5.515625 27.984375 
Q 5.515625 40.671875 11.671875 48.328125 
Q 17.828125 56 27.875 56 
Q 33.9375 56 38.28125 53.609375 
Q 42.625 51.21875 45.40625 46.390625 
L 45.40625 54.6875 
L 54.390625 54.6875 
z
" id="DejaVuSans-67"/>
      <path d="M 12.40625 8.296875 
L 28.515625 8.296875 
L 28.515625 63.921875 
L 10.984375 60.40625 
L 10.984375 69.390625 
L 28.421875 72.90625 
L 38.28125 72.90625 
L 38.28125 8.296875 
L 54.390625 8.296875 
L 54.390625 0 
L 12.40625 0 
z
" id="DejaVuSans-31"/>
      <path d="M 31 75.875 
Q 24.46875 64.65625 21.28125 53.65625 
Q 18.109375 42.671875 18.109375 31.390625 
Q 18.109375 20.125 21.3125 9.0625 
Q 24.515625 -2 31 -13.1875 
L 23.1875 -13.1875 
Q 15.875 -1.703125 12.234375 9.375 
Q 8.59375 20.453125 8.59375 31.390625 
Q 8.59375 42.28125 12.203125 53.3125 
Q 15.828125 64.359375 23.1875 75.875 
z
" id="DejaVuSans-28"/>
      <path d="M 51.125 44 
L 36.921875 44 
L 32.8125 27.6875 
L 47.125 27.6875 
z
M 43.796875 71.78125 
L 38.71875 51.515625 
L 52.984375 51.515625 
L 58.109375 71.78125 
L 65.921875 71.78125 
L 60.890625 51.515625 
L 76.125 51.515625 
L 76.125 44 
L 58.984375 44 
L 54.984375 27.6875 
L 70.515625 27.6875 
L 70.515625 20.21875 
L 53.078125 20.21875 
L 48 0 
L 40.1875 0 
L 45.21875 20.21875 
L 30.90625 20.21875 
L 25.875 0 
L 18.015625 0 
L 23.09375 20.21875 
L 7.71875 20.21875 
L 7.71875 27.6875 
L 24.90625 27.6875 
L 29 44 
L 13.28125 44 
L 13.28125 51.515625 
L 30.90625 51.515625 
L 35.890625 71.78125 
z
" id="DejaVuSans-23"/>
      <path id="DejaVuSans-20"/>
      <path d="M 37.109375 75.984375 
L 37.109375 68.5 
L 28.515625 68.5 
Q 23.6875 68.5 21.796875 66.546875 
Q 19.921875 64.59375 19.921875 59.515625 
L 19.921875 54.6875 
L 34.71875 54.6875 
L 34.71875 47.703125 
L 19.921875 47.703125 
L 19.921875 0 
L 10.890625 0 
L 10.890625 47.703125 
L 2.296875 47.703125 
L 2.296875 54.6875 
L 10.890625 54.6875 
L 10.890625 58.5 
Q 10.890625 67.625 15.140625 71.796875 
Q 19.390625 75.984375 28.609375 75.984375 
z
" id="DejaVuSans-66"/>
      <path d="M 4.890625 31.390625 
L 31.203125 31.390625 
L 31.203125 23.390625 
L 4.890625 23.390625 
z
" id="DejaVuSans-2d"/>
      <path d="M 56.203125 29.59375 
L 56.203125 25.203125 
L 14.890625 25.203125 
Q 15.484375 15.921875 20.484375 11.0625 
Q 25.484375 6.203125 34.421875 6.203125 
Q 39.59375 6.203125 44.453125 7.46875 
Q 49.3125 8.734375 54.109375 11.28125 
L 54.109375 2.78125 
Q 49.265625 0.734375 44.1875 -0.34375 
Q 39.109375 -1.421875 33.890625 -1.421875 
Q 20.796875 -1.421875 13.15625 6.1875 
Q 5.515625 13.8125 5.515625 26.8125 
Q 5.515625 40.234375 12.765625 48.109375 
Q 20.015625 56 32.328125 56 
Q 43.359375 56 49.78125 48.890625 
Q 56.203125 41.796875 56.203125 29.59375 
z
M 47.21875 32.234375 
Q 47.125 39.59375 43.09375 43.984375 
Q 39.0625 48.390625 32.421875 48.390625 
Q 24.90625 48.390625 20.390625 44.140625 
Q 15.875 39.890625 15.1875 32.171875 
z
" id="DejaVuSans-65"/>
      <path d="M 2.984375 54.6875 
L 12.5 54.6875 
L 29.59375 8.796875 
L 46.6875 54.6875 
L 56.203125 54.6875 
L 35.6875 0 
L 23.484375 0 
z
" id="DejaVuSans-76"/>
      <path d="M 34.28125 27.484375 
Q 23.390625 27.484375 19.1875 25 
Q 14.984375 22.515625 14.984375 16.5 
Q 14.984375 11.71875 18.140625 8.90625 
Q 21.296875 6.109375 26.703125 6.109375 
Q 34.1875 6.109375 38.703125 11.40625 
Q 43.21875 16.703125 43.21875 25.484375 
L 43.21875 27.484375 
z
M 52.203125 31.203125 
L 52.203125 0 
L 43.21875 0 
L 43.21875 8.296875 
Q 40.140625 3.328125 35.546875 0.953125 
Q 30.953125 -1.421875 24.3125 -1.421875 
Q 15.921875 -1.421875 10.953125 3.296875 
Q 6 8.015625 6 15.921875 
Q 6 25.140625 12.171875 29.828125 
Q 18.359375 34.515625 30.609375 34.515625 
L 43.21875 34.515625 
L 43.21875 35.40625 
Q 43.21875 41.609375 39.140625 45 
Q 35.0625 48.390625 27.6875 48.390625 
Q 23 48.390625 18.546875 47.265625 
Q 14.109375 46.140625 10.015625 43.890625 
L 10.015625 52.203125 
Q 14.9375 54.109375 19.578125 55.046875 
Q 24.21875 56 28.609375 56 
Q 40.484375 56 46.34375 49.84375 
Q 52.203125 43.703125 52.203125 31.203125 
z
" id="DejaVuSans-61"/>
      <path d="M 44.28125 53.078125 
L 44.28125 44.578125 
Q 40.484375 46.53125 36.375 47.5 
Q 32.28125 48.484375 27.875 48.484375 
Q 21.1875 48.484375 17.84375 46.4375 
Q 14.5 44.390625 14.5 40.28125 
Q 14.5 37.15625 16.890625 35.375 
Q 19.28125 33.59375 26.515625 31.984375 
L 29.59375 31.296875 
Q 39.15625 29.25 43.1875 25.515625 
Q 47.21875 21.78125 47.21875 15.09375 
Q 47.21875 7.46875 41.1875 3.015625 
Q 35.15625 -1.421875 24.609375 -1.421875 
Q 20.21875 -1.421875 15.453125 -0.5625 
Q 10.6875 0.296875 5.421875 2 
L 5.421875 11.28125 
Q 10.40625 8.6875 15.234375 7.390625 
Q 20.0625 6.109375 24.8125 6.109375 
Q 31.15625 6.109375 34.5625 8.28125 
Q 37.984375 10.453125 37.984375 14.40625 
Q 37.984375 18.0625 35.515625 20.015625 
Q 33.0625 21.96875 24.703125 23.78125 
L 21.578125 24.515625 
Q 13.234375 26.265625 9.515625 29.90625 
Q 5.8125 33.546875 5.8125 39.890625 
Q 5.8125 47.609375 11.28125 51.796875 
Q 16.75 56 26.8125 56 
Q 31.78125 56 36.171875 55.265625 
Q 40.578125 54.546875 44.28125 53.078125 
z
" id="DejaVuSans-73"/>
      <path d="M 25.390625 72.90625 
L 33.6875 72.90625 
L 8.296875 -9.28125 
L 0 -9.28125 
z
" id="DejaVuSans-2f"/>
      <path d="M 45.40625 46.390625 
L 45.40625 75.984375 
L 54.390625 75.984375 
L 54.390625 0 
L 45.40625 0 
L 45.40625 8.203125 
Q 42.578125 3.328125 38.25 0.953125 
Q 33.9375 -1.421875 27.875 -1.421875 
Q 17.96875 -1.421875 11.734375 6.484375 
Q 5.515625 14.40625 5.515625 27.296875 
Q 5.515625 40.1875 11.734375 48.09375 
Q 17.96875 56 27.875 56 
Q 33.9375 56 38.25 53.625 
Q 42.578125 51.265625 45.40625 46.390625 
z
M 14.796875 27.296875 
Q 14.796875 17.390625 18.875 11.75 
Q 22.953125 6.109375 30.078125 6.109375 
Q 37.203125 6.109375 41.296875 11.75 
Q 45.40625 17.390625 45.40625 27.296875 
Q 45.40625 37.203125 41.296875 42.84375 
Q 37.203125 48.484375 30.078125 48.484375 
Q 22.953125 48.484375 18.875 42.84375 
Q 14.796875 37.203125 14.796875 27.296875 
z
" id="DejaVuSans-64"/>
      <path d="M 9.421875 54.6875 
L 18.40625 54.6875 
L 18.40625 0 
L 9.421875 0 
z
M 9.421875 75.984375 
L 18.40625 75.984375 
L 18.40625 64.59375 
L 9.421875 64.59375 
z
" id="DejaVuSans-69"/>
      <path d="M 52 44.1875 
Q 55.375 50.25 60.0625 53.125 
Q 64.75 56 71.09375 56 
Q 79.640625 56 84.28125 50.015625 
Q 88.921875 44.046875 88.921875 33.015625 
L 88.921875 0 
L 79.890625 0 
L 79.890625 32.71875 
Q 79.890625 40.578125 77.09375 44.375 
Q 74.3125 48.1875 68.609375 48.1875 
Q 61.625 48.1875 57.5625 43.546875 
Q 53.515625 38.921875 53.515625 30.90625 
L 53.515625 0 
L 44.484375 0 
L 44.484375 32.71875 
Q 44.484375 40.625 41.703125 44.40625 
Q 38.921875 48.1875 33.109375 48.1875 
Q 26.21875 48.1875 22.15625 43.53125 
Q 18.109375 38.875 18.109375 30.90625 
L 18.109375 0 
L 9.078125 0 
L 9.078125 54.6875 
L 18.109375 54.6875 
L 18.109375 46.1875 
Q 21.1875 51.21875 25.484375 53.609375 
Q 29.78125 56 35.6875 56 
Q 41.65625 56 45.828125 52.96875 
Q 50 49.953125 52 44.1875 
z
" id="DejaVuSans-6d"/>
      <path d="M 54.890625 33.015625 
L 54.890625 0 
L 45.90625 0 
L 45.90625 32.71875 
Q 45.90625 40.484375 42.875 44.328125 
Q 39.84375 48.1875 33.796875 48.1875 
Q 26.515625 48.1875 22.3125 43.546875 
Q 18.109375 38.921875 18.109375 30.90625 
L 18.109375 0 
L 9.078125 0 
L 9.078125 54.6875 
L 18.109375 54.6875 
L 18.109375 46.1875 
Q 21.34375 51.125 25.703125 53.5625 
Q 30.078125 56 35.796875 56 
Q 45.21875 56 50.046875 50.171875 
Q 54.890625 44.34375 54.890625 33.015625 
z
" id="DejaVuSans-6e"/>
      <path d="M 8.015625 75.875 
L 15.828125 75.875 
Q 23.140625 64.359375 26.78125 53.3125 
Q 30.421875 42.28125 30.421875 31.390625 
Q 30.421875 20.453125 26.78125 9.375 
Q 23.140625 -1.703125 15.828125 -13.1875 
L 8.015625 -13.1875 
Q 14.5 -2 17.703125 9.0625 
Q 20.90625 20.125 20.90625 31.390625 
Q 20.90625 42.671875 17.703125 53.65625 
Q 14.5 64.65625 8.015625 75.875 
z
" id="DejaVuSans-29"/>
     </defs>
     <g transform="translate(107.211219 338.153594)scale(0.17 -0.17)">
      <use xlink:href="#DejaVuSans-6c"/>
      <use x="27.783203" xlink:href="#DejaVuSans-6f"/>
      <use x="88.964844" xlink:href="#DejaVuSans-67"/>
      <use x="152.441406" xlink:href="#DejaVuSans-31"/>
      <use x="216.064453" xlink:href="#DejaVuSans-30"/>
      <use x="279.6875" xlink:href="#DejaVuSans-28"/>
      <use x="318.701172" xlink:href="#DejaVuSans-23"/>
      <use x="402.490234" xlink:href="#DejaVuSans-20"/>
      <use x="434.277344" xlink:href="#DejaVuSans-66"/>
      <use x="469.404297" xlink:href="#DejaVuSans-2d"/>
      <use x="505.488281" xlink:href="#DejaVuSans-65"/>
      <use x="567.011719" xlink:href="#DejaVuSans-76"/>
      <use x="626.191406" xlink:href="#DejaVuSans-61"/>
      <use x="687.470703" xlink:href="#DejaVuSans-6c"/>
      <use x="715.253906" xlink:href="#DejaVuSans-73"/>
      <use x="767.353516" xlink:href="#DejaVuSans-20"/>
      <use x="799.140625" xlink:href="#DejaVuSans-2f"/>
      <use x="832.832031" xlink:href="#DejaVuSans-20"/>
      <use x="864.619141" xlink:href="#DejaVuSans-64"/>
      <use x="928.095703" xlink:href="#DejaVuSans-69"/>
      <use x="955.878906" xlink:href="#DejaVuSans-6d"/>
      <use x="1053.291016" xlink:href="#DejaVuSans-65"/>
      <use x="1114.814453" xlink:href="#DejaVuSans-6e"/>
      <use x="1178.193359" xlink:href="#DejaVuSans-73"/>
      <use x="1230.292969" xlink:href="#DejaVuSans-69"/>
      <use x="1258.076172" xlink:href="#DejaVuSans-6f"/>
      <use x="1319.257812" xlink:href="#DejaVuSans-6e"/>
      <use x="1382.636719" xlink:href="#DejaVuSans-29"/>
     </g>
    </g>
   </g>
   <g id="matplotlib.axis_2">
    <g id="ytick_1">
     <g id="line2d_15">
      <path clip-path="url(#p26cb28ef2e)" d="M 56.12 294.88 
L 399.984 294.88 
" style="fill:none;stroke:#b0b0b0;stroke-linecap:square;stroke-width:0.8;"/>
     </g>
     <g id="line2d_16">
      <defs>
       <path d="M 0 0 
L -3.5 0 
" id="m3280aa45e6" style="stroke:#000000;stroke-width:0.8;"/>
      </defs>
      <g>
       <use style="stroke:#000000;stroke-width:0.8;" x="56.12" xlink:href="#m3280aa45e6" y="294.88"/>
      </g>
     </g>
     <g id="text_7">
      <!-- 0.0 -->
      <defs>
       <path d="M 10.6875 12.40625 
L 21 12.40625 
L 21 0 
L 10.6875 0 
z
" id="DejaVuSans-2e"/>
      </defs>
      <g transform="translate(23.675 300.95875)scale(0.16 -0.16)">
       <use xlink:href="#DejaVuSans-30"/>
       <use x="63.623047" xlink:href="#DejaVuSans-2e"/>
       <use x="95.410156" xlink:href="#DejaVuSans-30"/>
      </g>
     </g>
    </g>
    <g id="ytick_2">
     <g id="line2d_17">
      <path clip-path="url(#p26cb28ef2e)" d="M 56.12 237.843411 
L 399.984 237.843411 
" style="fill:none;stroke:#b0b0b0;stroke-linecap:square;stroke-width:0.8;"/>
     </g>
     <g id="line2d_18">
      <g>
       <use style="stroke:#000000;stroke-width:0.8;" x="56.12" xlink:href="#m3280aa45e6" y="237.843411"/>
      </g>
     </g>
     <g id="text_8">
      <!-- 0.2 -->
      <g transform="translate(23.675 243.922161)scale(0.16 -0.16)">
       <use xlink:href="#DejaVuSans-30"/>
       <use x="63.623047" xlink:href="#DejaVuSans-2e"/>
       <use x="95.410156" xlink:href="#DejaVuSans-32"/>
      </g>
     </g>
    </g>
    <g id="ytick_3">
     <g id="line2d_19">
      <path clip-path="url(#p26cb28ef2e)" d="M 56.12 180.806823 
L 399.984 180.806823 
" style="fill:none;stroke:#b0b0b0;stroke-linecap:square;stroke-width:0.8;"/>
     </g>
     <g id="line2d_20">
      <g>
       <use style="stroke:#000000;stroke-width:0.8;" x="56.12" xlink:href="#m3280aa45e6" y="180.806823"/>
      </g>
     </g>
     <g id="text_9">
      <!-- 0.4 -->
      <g transform="translate(23.675 186.885573)scale(0.16 -0.16)">
       <use xlink:href="#DejaVuSans-30"/>
       <use x="63.623047" xlink:href="#DejaVuSans-2e"/>
       <use x="95.410156" xlink:href="#DejaVuSans-34"/>
      </g>
     </g>
    </g>
    <g id="ytick_4">
     <g id="line2d_21">
      <path clip-path="url(#p26cb28ef2e)" d="M 56.12 123.770234 
L 399.984 123.770234 
" style="fill:none;stroke:#b0b0b0;stroke-linecap:square;stroke-width:0.8;"/>
     </g>
     <g id="line2d_22">
      <g>
       <use style="stroke:#000000;stroke-width:0.8;" x="56.12" xlink:href="#m3280aa45e6" y="123.770234"/>
      </g>
     </g>
     <g id="text_10">
      <!-- 0.6 -->
      <g transform="translate(23.675 129.848984)scale(0.16 -0.16)">
       <use xlink:href="#DejaVuSans-30"/>
       <use x="63.623047" xlink:href="#DejaVuSans-2e"/>
       <use x="95.410156" xlink:href="#DejaVuSans-36"/>
      </g>
     </g>
    </g>
    <g id="ytick_5">
     <g id="line2d_23">
      <path clip-path="url(#p26cb28ef2e)" d="M 56.12 66.733646 
L 399.984 66.733646 
" style="fill:none;stroke:#b0b0b0;stroke-linecap:square;stroke-width:0.8;"/>
     </g>
     <g id="line2d_24">
      <g>
       <use style="stroke:#000000;stroke-width:0.8;" x="56.12" xlink:href="#m3280aa45e6" y="66.733646"/>
      </g>
     </g>
     <g id="text_11">
      <!-- 0.8 -->
      <g transform="translate(23.675 72.812396)scale(0.16 -0.16)">
       <use xlink:href="#DejaVuSans-30"/>
       <use x="63.623047" xlink:href="#DejaVuSans-2e"/>
       <use x="95.410156" xlink:href="#DejaVuSans-38"/>
      </g>
     </g>
    </g>
    <g id="ytick_6">
     <g id="line2d_25">
      <path clip-path="url(#p26cb28ef2e)" d="M 56.12 9.697057 
L 399.984 9.697057 
" style="fill:none;stroke:#b0b0b0;stroke-linecap:square;stroke-width:0.8;"/>
     </g>
     <g id="line2d_26">
      <g>
       <use style="stroke:#000000;stroke-width:0.8;" x="56.12" xlink:href="#m3280aa45e6" y="9.697057"/>
      </g>
     </g>
     <g id="text_12">
      <!-- 1.0 -->
      <g transform="translate(23.675 15.775807)scale(0.16 -0.16)">
       <use xlink:href="#DejaVuSans-31"/>
       <use x="63.623047" xlink:href="#DejaVuSans-2e"/>
       <use x="95.410156" xlink:href="#DejaVuSans-30"/>
      </g>
     </g>
    </g>
    <g id="text_13">
     <!-- Fraction of function,target pairs -->
     <defs>
      <path d="M 9.8125 72.90625 
L 51.703125 72.90625 
L 51.703125 64.59375 
L 19.671875 64.59375 
L 19.671875 43.109375 
L 48.578125 43.109375 
L 48.578125 34.8125 
L 19.671875 34.8125 
L 19.671875 0 
L 9.8125 0 
z
" id="DejaVuSans-46"/>
      <path d="M 41.109375 46.296875 
Q 39.59375 47.171875 37.8125 47.578125 
Q 36.03125 48 33.890625 48 
Q 26.265625 48 22.1875 43.046875 
Q 18.109375 38.09375 18.109375 28.8125 
L 18.109375 0 
L 9.078125 0 
L 9.078125 54.6875 
L 18.109375 54.6875 
L 18.109375 46.1875 
Q 20.953125 51.171875 25.484375 53.578125 
Q 30.03125 56 36.53125 56 
Q 37.453125 56 38.578125 55.875 
Q 39.703125 55.765625 41.0625 55.515625 
z
" id="DejaVuSans-72"/>
      <path d="M 48.78125 52.59375 
L 48.78125 44.1875 
Q 44.96875 46.296875 41.140625 47.34375 
Q 37.3125 48.390625 33.40625 48.390625 
Q 24.65625 48.390625 19.8125 42.84375 
Q 14.984375 37.3125 14.984375 27.296875 
Q 14.984375 17.28125 19.8125 11.734375 
Q 24.65625 6.203125 33.40625 6.203125 
Q 37.3125 6.203125 41.140625 7.25 
Q 44.96875 8.296875 48.78125 10.40625 
L 48.78125 2.09375 
Q 45.015625 0.34375 40.984375 -0.53125 
Q 36.96875 -1.421875 32.421875 -1.421875 
Q 20.0625 -1.421875 12.78125 6.34375 
Q 5.515625 14.109375 5.515625 27.296875 
Q 5.515625 40.671875 12.859375 48.328125 
Q 20.21875 56 33.015625 56 
Q 37.15625 56 41.109375 55.140625 
Q 45.0625 54.296875 48.78125 52.59375 
z
" id="DejaVuSans-63"/>
      <path d="M 18.3125 70.21875 
L 18.3125 54.6875 
L 36.8125 54.6875 
L 36.8125 47.703125 
L 18.3125 47.703125 
L 18.3125 18.015625 
Q 18.3125 11.328125 20.140625 9.421875 
Q 21.96875 7.515625 27.59375 7.515625 
L 36.8125 7.515625 
L 36.8125 0 
L 27.59375 0 
Q 17.1875 0 13.234375 3.875 
Q 9.28125 7.765625 9.28125 18.015625 
L 9.28125 47.703125 
L 2.6875 47.703125 
L 2.6875 54.6875 
L 9.28125 54.6875 
L 9.28125 70.21875 
z
" id="DejaVuSans-74"/>
      <path d="M 8.5 21.578125 
L 8.5 54.6875 
L 17.484375 54.6875 
L 17.484375 21.921875 
Q 17.484375 14.15625 20.5 10.265625 
Q 23.53125 6.390625 29.59375 6.390625 
Q 36.859375 6.390625 41.078125 11.03125 
Q 45.3125 15.671875 45.3125 23.6875 
L 45.3125 54.6875 
L 54.296875 54.6875 
L 54.296875 0 
L 45.3125 0 
L 45.3125 8.40625 
Q 42.046875 3.421875 37.71875 1 
Q 33.40625 -1.421875 27.6875 -1.421875 
Q 18.265625 -1.421875 13.375 4.4375 
Q 8.5 10.296875 8.5 21.578125 
z
M 31.109375 56 
z
" id="DejaVuSans-75"/>
      <path d="M 11.71875 12.40625 
L 22.015625 12.40625 
L 22.015625 4 
L 14.015625 -11.625 
L 7.71875 -11.625 
L 11.71875 4 
z
" id="DejaVuSans-2c"/>
      <path d="M 18.109375 8.203125 
L 18.109375 -20.796875 
L 9.078125 -20.796875 
L 9.078125 54.6875 
L 18.109375 54.6875 
L 18.109375 46.390625 
Q 20.953125 51.265625 25.265625 53.625 
Q 29.59375 56 35.59375 56 
Q 45.5625 56 51.78125 48.09375 
Q 58.015625 40.1875 58.015625 27.296875 
Q 58.015625 14.40625 51.78125 6.484375 
Q 45.5625 -1.421875 35.59375 -1.421875 
Q 29.59375 -1.421875 25.265625 0.953125 
Q 20.953125 3.328125 18.109375 8.203125 
z
M 48.6875 27.296875 
Q 48.6875 37.203125 44.609375 42.84375 
Q 40.53125 48.484375 33.40625 48.484375 
Q 26.265625 48.484375 22.1875 42.84375 
Q 18.109375 37.203125 18.109375 27.296875 
Q 18.109375 17.390625 22.1875 11.75 
Q 26.265625 6.109375 33.40625 6.109375 
Q 40.53125 6.109375 44.609375 11.75 
Q 48.6875 17.390625 48.6875 27.296875 
z
" id="DejaVuSans-70"/>
     </defs>
     <g transform="translate(16.139531 286.001989)rotate(-90)scale(0.17 -0.17)">
      <use xlink:href="#DejaVuSans-46"/>
      <use x="57.410156" xlink:href="#DejaVuSans-72"/>
      <use x="98.523438" xlink:href="#DejaVuSans-61"/>
      <use x="159.802734" xlink:href="#DejaVuSans-63"/>
      <use x="214.783203" xlink:href="#DejaVuSans-74"/>
      <use x="253.992188" xlink:href="#DejaVuSans-69"/>
      <use x="281.775391" xlink:href="#DejaVuSans-6f"/>
      <use x="342.957031" xlink:href="#DejaVuSans-6e"/>
      <use x="406.335938" xlink:href="#DejaVuSans-20"/>
      <use x="438.123047" xlink:href="#DejaVuSans-6f"/>
      <use x="499.304688" xlink:href="#DejaVuSans-66"/>
      <use x="534.509766" xlink:href="#DejaVuSans-20"/>
      <use x="566.296875" xlink:href="#DejaVuSans-66"/>
      <use x="601.501953" xlink:href="#DejaVuSans-75"/>
      <use x="664.880859" xlink:href="#DejaVuSans-6e"/>
      <use x="728.259766" xlink:href="#DejaVuSans-63"/>
      <use x="783.240234" xlink:href="#DejaVuSans-74"/>
      <use x="822.449219" xlink:href="#DejaVuSans-69"/>
      <use x="850.232422" xlink:href="#DejaVuSans-6f"/>
      <use x="911.414062" xlink:href="#DejaVuSans-6e"/>
      <use x="974.792969" xlink:href="#DejaVuSans-2c"/>
      <use x="1006.580078" xlink:href="#DejaVuSans-74"/>
      <use x="1045.789062" xlink:href="#DejaVuSans-61"/>
      <use x="1107.068359" xlink:href="#DejaVuSans-72"/>
      <use x="1148.166016" xlink:href="#DejaVuSans-67"/>
      <use x="1211.642578" xlink:href="#DejaVuSans-65"/>
      <use x="1273.166016" xlink:href="#DejaVuSans-74"/>
      <use x="1312.375" xlink:href="#DejaVuSans-20"/>
      <use x="1344.162109" xlink:href="#DejaVuSans-70"/>
      <use x="1407.638672" xlink:href="#DejaVuSans-61"/>
      <use x="1468.917969" xlink:href="#DejaVuSans-69"/>
      <use x="1496.701172" xlink:href="#DejaVuSans-72"/>
      <use x="1537.814453" xlink:href="#DejaVuSans-73"/>
     </g>
    </g>
   </g>
   <g id="line2d_27">
    <defs>
     <path d="M 0 1.5 
C 0.397805 1.5 0.77937 1.341951 1.06066 1.06066 
C 1.341951 0.77937 1.5 0.397805 1.5 0 
C 1.5 -0.397805 1.341951 -0.77937 1.06066 -1.06066 
C 0.77937 -1.341951 0.397805 -1.5 0 -1.5 
C -0.397805 -1.5 -0.77937 -1.341951 -1.06066 -1.06066 
C -1.341951 -0.77937 -1.5 -0.397805 -1.5 0 
C -1.5 0.397805 -1.341951 0.77937 -1.06066 1.06066 
C -0.77937 1.341951 -0.397805 1.5 0 1.5 
z
" id="m1eaa285acc" style="stroke:#f5deb3;"/>
    </defs>
    <g>
     <use style="fill:#f5deb3;stroke:#f5deb3;" x="328.429739" xlink:href="#m1eaa285acc" y="9.697057"/>
     <use style="fill:#f5deb3;stroke:#f5deb3;" x="328.429739" xlink:href="#m1eaa285acc" y="9.697057"/>
    </g>
   </g>
   <g id="line2d_28">
    <defs>
     <path d="M 0 1.5 
C 0.397805 1.5 0.77937 1.341951 1.06066 1.06066 
C 1.341951 0.77937 1.5 0.397805 1.5 0 
C 1.5 -0.397805 1.341951 -0.77937 1.06066 -1.06066 
C 0.77937 -1.341951 0.397805 -1.5 0 -1.5 
C -0.397805 -1.5 -0.77937 -1.341951 -1.06066 -1.06066 
C -1.341951 -0.77937 -1.5 -0.397805 -1.5 0 
C -1.5 0.397805 -1.341951 0.77937 -1.06066 1.06066 
C -0.77937 1.341951 -0.397805 1.5 0 1.5 
z
" id="mb037b7dadb" style="stroke:#000080;"/>
    </defs>
    <g>
     <use style="fill:#000080;stroke:#000080;" x="153.47264" xlink:href="#mb037b7dadb" y="280.667451"/>
     <use style="fill:#000080;stroke:#000080;" x="153.47264" xlink:href="#mb037b7dadb" y="280.667451"/>
    </g>
   </g>
   <g id="line2d_29">
    <path d="M 16.504332 294.88 
L 16.504332 286.562164 
L 28.429836 286.562164 
L 28.429836 286.026281 
L 40.355341 285.933084 
L 40.355341 285.723391 
L 47.331314 285.700092 
L 47.331314 285.536997 
L 49.983455 285.536997 
L 49.983455 285.4205 
L 52.280845 285.4205 
L 52.280845 285.304004 
L 61.90896 285.210807 
L 61.90896 285.140909 
L 65.249388 285.094311 
L 65.249388 285.024413 
L 68.045504 284.931216 
L 68.045504 284.79142 
L 71.182322 284.698223 
L 71.182322 284.674924 
L 73.834464 284.605026 
L 73.834464 284.558428 
L 78.158295 284.48853 
L 78.158295 284.372034 
L 79.088515 284.302136 
L 79.088515 284.255537 
L 80.810437 284.208939 
L 80.810437 284.022545 
L 83.462579 283.929348 
L 83.462579 283.85945 
L 86.36371 283.766253 
L 86.36371 283.696355 
L 88.586781 283.673056 
L 88.586781 283.55656 
L 90.0838 283.486662 
L 90.0838 283.440063 
L 91.238922 283.346866 
L 91.238922 283.276969 
L 92.529893 283.23037 
L 92.529893 283.137173 
L 93.536312 283.043976 
L 93.536312 282.950779 
L 97.218344 282.857582 
L 97.218344 282.834283 
L 97.989992 282.741086 
L 97.989992 282.717786 
L 99.436631 282.647888 
L 99.436631 282.531392 
L 102.4807 282.461494 
L 102.4807 282.414896 
L 104.865056 282.321699 
L 104.865056 282.2984 
L 105.75261 282.228502 
L 105.75261 282.181903 
L 109.763911 282.088706 
L 109.763911 282.065407 
L 112.175115 281.97221 
L 112.175115 281.948911 
L 115.854718 281.855714 
L 115.854718 281.832414 
L 118.4763 281.762517 
L 118.4763 281.715918 
L 120.261464 281.622721 
L 120.261464 281.599422 
L 122.972587 281.506225 
L 123.043099 281.459626 
L 126.2443 281.366429 
L 126.2443 281.34313 
L 129.017032 281.249933 
L 129.017032 281.226634 
L 131.957983 281.133437 
L 131.957983 281.110137 
L 137.193273 281.01694 
L 137.193273 280.993641 
L 142.119602 280.900444 
L 142.119602 280.877145 
L 146.276225 280.783948 
L 146.276225 280.760648 
L 333.429677 280.667451 
L 333.429677 280.667451 
" style="fill:none;stroke:#000080;stroke-linecap:square;stroke-width:1.5;"/>
   </g>
   <g id="line2d_30">
    <defs>
     <path d="M 0 6 
C 1.591219 6 3.117479 5.367802 4.242641 4.242641 
C 5.367802 3.117479 6 1.591219 6 0 
C 6 -1.591219 5.367802 -3.117479 4.242641 -4.242641 
C 3.117479 -5.367802 1.591219 -6 0 -6 
C -1.591219 -6 -3.117479 -5.367802 -4.242641 -4.242641 
C -5.367802 -3.117479 -6 -1.591219 -6 0 
C -6 1.591219 -5.367802 3.117479 -4.242641 4.242641 
C -3.117479 5.367802 -1.591219 6 0 6 
z
" id="m50a7662eb1" style="stroke:#000080;stroke-width:1.5;"/>
    </defs>
    <g>
     <use style="fill-opacity:0;stroke:#000080;stroke-width:1.5;" x="97.989992" xlink:href="#m50a7662eb1" y="282.741086"/>
     <use style="fill-opacity:0;stroke:#000080;stroke-width:1.5;" x="146.276225" xlink:href="#m50a7662eb1" y="280.760648"/>
     <use style="fill-opacity:0;stroke:#000080;stroke-width:1.5;" x="153.47264" xlink:href="#m50a7662eb1" y="280.690751"/>
     <use style="fill-opacity:0;stroke:#000080;stroke-width:1.5;" x="153.47264" xlink:href="#m50a7662eb1" y="280.667451"/>
     <use style="fill-opacity:0;stroke:#000080;stroke-width:1.5;" x="153.47264" xlink:href="#m50a7662eb1" y="280.667451"/>
     <use style="fill-opacity:0;stroke:#000080;stroke-width:1.5;" x="333.429677" xlink:href="#m50a7662eb1" y="280.667451"/>
    </g>
   </g>
   <g id="line2d_31">
    <path style="fill:none;stroke:#000080;stroke-linecap:square;stroke-width:1.5;"/>
    <g/>
   </g>
   <g id="line2d_32">
    <path clip-path="url(#p26cb28ef2e)" d="M 80.395842 284.208939 
" style="fill:none;stroke:#000080;stroke-linecap:square;stroke-width:1.5;"/>
    <defs>
     <path d="M -12 12 
L 12 -12 
M -12 -12 
L 12 12 
" id="m692b59b670" style="stroke:#000080;stroke-width:3;"/>
    </defs>
    <g clip-path="url(#p26cb28ef2e)">
     <use style="fill:#000080;stroke:#000080;stroke-width:3;" x="80.395842" xlink:href="#m692b59b670" y="284.208939"/>
    </g>
   </g>
   <g id="line2d_33">
    <defs>
     <path d="M 0 1.5 
C 0.397805 1.5 0.77937 1.341951 1.06066 1.06066 
C 1.341951 0.77937 1.5 0.397805 1.5 0 
C 1.5 -0.397805 1.341951 -0.77937 1.06066 -1.06066 
C 0.77937 -1.341951 0.397805 -1.5 0 -1.5 
C -0.397805 -1.5 -0.77937 -1.341951 -1.06066 -1.06066 
C -1.341951 -0.77937 -1.5 -0.397805 -1.5 0 
C -1.5 0.397805 -1.341951 0.77937 -1.06066 1.06066 
C -0.77937 1.341951 -0.397805 1.5 0 1.5 
z
" id="m2b9eb6509e" style="stroke:#ff00ff;"/>
    </defs>
    <g>
     <use style="fill:#ff00ff;stroke:#ff00ff;" x="150.305791" xlink:href="#m2b9eb6509e" y="281.832414"/>
     <use style="fill:#ff00ff;stroke:#ff00ff;" x="150.305791" xlink:href="#m2b9eb6509e" y="281.832414"/>
    </g>
   </g>
   <g id="line2d_34">
    <path d="M 16.504332 294.88 
L 16.504332 287.028149 
L 28.429836 287.028149 
L 28.429836 286.70196 
L 35.405809 286.70196 
L 35.405809 286.492266 
L 40.355341 286.492266 
L 40.355341 286.119478 
L 47.331314 286.04958 
L 47.331314 286.002982 
L 52.280845 285.909785 
L 52.280845 285.793289 
L 54.307286 285.793289 
L 54.307286 285.653493 
L 57.759799 285.560296 
L 57.759799 285.536997 
L 60.633942 285.490398 
L 60.633942 285.4205 
L 64.20635 285.327303 
L 64.20635 285.210807 
L 71.182322 285.164209 
L 71.182322 285.094311 
L 73.834464 285.001114 
L 73.834464 284.931216 
L 76.131854 284.838019 
L 76.131854 284.79142 
L 78.158295 284.744822 
L 78.158295 284.628326 
L 79.535419 284.581727 
L 79.535419 284.48853 
L 80.810437 284.48853 
L 80.810437 284.372034 
L 85.134268 284.278837 
L 85.134268 284.255537 
L 88.057358 284.16234 
L 88.057358 284.139041 
L 91.014019 284.045844 
L 91.014019 283.999246 
L 92.529893 283.929348 
L 92.529893 283.789552 
L 94.67111 283.696355 
L 94.67111 283.673056 
L 96.738177 283.603158 
L 96.738177 283.55656 
L 98.872486 283.463363 
L 98.872486 283.416764 
L 101.151945 283.323567 
L 101.151945 283.300268 
L 104.35144 283.253669 
L 104.35144 283.183771 
L 108.169728 283.090574 
L 108.169728 283.043976 
L 108.418477 283.020677 
L 108.418477 282.92748 
L 112.306953 282.834283 
L 112.306953 282.810983 
L 116.067126 282.717786 
L 116.067126 282.694487 
L 116.535669 282.60129 
L 116.535669 282.577991 
L 120.178549 282.484794 
L 120.178549 282.461494 
L 124.622019 282.368297 
L 124.622019 282.344998 
L 130.147598 282.251801 
L 130.147598 282.228502 
L 133.709817 282.135305 
L 133.709817 282.112005 
L 138.373071 282.018808 
L 138.430709 281.948911 
L 150.305791 281.855714 
L 150.305791 281.832414 
L 333.429677 281.832414 
L 333.429677 281.832414 
" style="fill:none;stroke:#ff00ff;stroke-linecap:square;stroke-width:1.5;"/>
   </g>
   <g id="line2d_35">
    <defs>
     <path d="M -0 8.485281 
L 5.091169 0 
L 0 -8.485281 
L -5.091169 -0 
z
" id="m7e991d625f" style="stroke:#ff00ff;stroke-linejoin:miter;stroke-width:1.5;"/>
    </defs>
    <g>
     <use style="fill-opacity:0;stroke:#ff00ff;stroke-linejoin:miter;stroke-width:1.5;" x="121.765375" xlink:href="#m7e991d625f" y="282.438195"/>
     <use style="fill-opacity:0;stroke:#ff00ff;stroke-linejoin:miter;stroke-width:1.5;" x="150.305791" xlink:href="#m7e991d625f" y="281.855714"/>
     <use style="fill-opacity:0;stroke:#ff00ff;stroke-linejoin:miter;stroke-width:1.5;" x="150.305791" xlink:href="#m7e991d625f" y="281.832414"/>
     <use style="fill-opacity:0;stroke:#ff00ff;stroke-linejoin:miter;stroke-width:1.5;" x="150.305791" xlink:href="#m7e991d625f" y="281.832414"/>
     <use style="fill-opacity:0;stroke:#ff00ff;stroke-linejoin:miter;stroke-width:1.5;" x="150.305791" xlink:href="#m7e991d625f" y="281.832414"/>
     <use style="fill-opacity:0;stroke:#ff00ff;stroke-linejoin:miter;stroke-width:1.5;" x="333.429677" xlink:href="#m7e991d625f" y="281.832414"/>
    </g>
   </g>
   <g id="line2d_36">
    <path style="fill:none;stroke:#ff00ff;stroke-linecap:square;stroke-width:1.5;"/>
    <g/>
   </g>
   <g id="line2d_37">
    <path clip-path="url(#p26cb28ef2e)" d="M 80.395842 284.48853 
" style="fill:none;stroke:#ff00ff;stroke-linecap:square;stroke-width:1.5;"/>
    <defs>
     <path d="M -12 12 
L 12 -12 
M -12 -12 
L 12 12 
" id="m1896aa8d9a" style="stroke:#ff00ff;stroke-width:3;"/>
    </defs>
    <g clip-path="url(#p26cb28ef2e)">
     <use style="fill:#ff00ff;stroke:#ff00ff;stroke-width:3;" x="80.395842" xlink:href="#m1896aa8d9a" y="284.48853"/>
    </g>
   </g>
   <g id="line2d_38">
    <path d="M 333.429677 281.832414 
L 363.933742 289.176341 
" style="fill:none;stroke:#ff00ff;stroke-linecap:square;stroke-width:1.5;"/>
    <g>
     <use style="fill-opacity:0;stroke:#ff00ff;stroke-linejoin:miter;stroke-width:1.5;" x="333.429677" xlink:href="#m7e991d625f" y="281.832414"/>
     <use style="fill-opacity:0;stroke:#ff00ff;stroke-linejoin:miter;stroke-width:1.5;" x="363.933742" xlink:href="#m7e991d625f" y="289.176341"/>
    </g>
   </g>
   <g id="line2d_39">
    <path d="M 333.429677 280.667451 
L 363.933742 152.288529 
" style="fill:none;stroke:#000080;stroke-linecap:square;stroke-width:1.5;"/>
    <g>
     <use style="fill-opacity:0;stroke:#000080;stroke-width:1.5;" x="333.429677" xlink:href="#m50a7662eb1" y="280.667451"/>
     <use style="fill-opacity:0;stroke:#000080;stroke-width:1.5;" x="363.933742" xlink:href="#m50a7662eb1" y="152.288529"/>
    </g>
   </g>
   <g id="line2d_40">
    <path d="M 333.429677 294.88 
L 333.429677 9.697057 
" style="fill:none;stroke:#000000;stroke-linecap:square;stroke-width:1.5;"/>
   </g>
   <g id="patch_3">
    <path d="M 56.12 294.88 
L 56.12 6.845228 
" style="fill:none;stroke:#000000;stroke-linecap:square;stroke-linejoin:miter;stroke-width:0.8;"/>
   </g>
   <g id="patch_4">
    <path d="M 399.984 294.88 
L 399.984 6.845228 
" style="fill:none;stroke:#000000;stroke-linecap:square;stroke-linejoin:miter;stroke-width:0.8;"/>
   </g>
   <g id="patch_5">
    <path d="M 56.12 294.88 
L 399.984 294.88 
" style="fill:none;stroke:#000000;stroke-linecap:square;stroke-linejoin:miter;stroke-width:0.8;"/>
   </g>
   <g id="patch_6">
    <path d="M 56.12 6.845228 
L 399.984 6.845228 
" style="fill:none;stroke:#000000;stroke-linecap:square;stroke-linejoin:miter;stroke-width:0.8;"/>
   </g>
   <g id="text_14">
    <!-- gsa solve -->
    <g transform="translate(369.479935 293.867279)scale(0.17 -0.17)">
     <use xlink:href="#DejaVuSans-67"/>
     <use x="63.476562" xlink:href="#DejaVuSans-73"/>
     <use x="115.576172" xlink:href="#DejaVuSans-61"/>
     <use x="176.855469" xlink:href="#DejaVuSans-20"/>
     <use x="208.642578" xlink:href="#DejaVuSans-73"/>
     <use x="260.742188" xlink:href="#DejaVuSans-6f"/>
     <use x="321.923828" xlink:href="#DejaVuSans-6c"/>
     <use x="349.707031" xlink:href="#DejaVuSans-76"/>
     <use x="408.886719" xlink:href="#DejaVuSans-65"/>
    </g>
   </g>
   <g id="text_15">
    <!-- gsa outpu -->
    <g transform="translate(369.479935 156.979466)scale(0.17 -0.17)">
     <use xlink:href="#DejaVuSans-67"/>
     <use x="63.476562" xlink:href="#DejaVuSans-73"/>
     <use x="115.576172" xlink:href="#DejaVuSans-61"/>
     <use x="176.855469" xlink:href="#DejaVuSans-20"/>
     <use x="208.642578" xlink:href="#DejaVuSans-6f"/>
     <use x="269.824219" xlink:href="#DejaVuSans-75"/>
     <use x="333.203125" xlink:href="#DejaVuSans-74"/>
     <use x="372.412109" xlink:href="#DejaVuSans-70"/>
     <use x="435.888672" xlink:href="#DejaVuSans-75"/>
    </g>
   </g>
   <g id="text_16">
    <!-- best 2009 -->
    <defs>
     <path d="M 48.6875 27.296875 
Q 48.6875 37.203125 44.609375 42.84375 
Q 40.53125 48.484375 33.40625 48.484375 
Q 26.265625 48.484375 22.1875 42.84375 
Q 18.109375 37.203125 18.109375 27.296875 
Q 18.109375 17.390625 22.1875 11.75 
Q 26.265625 6.109375 33.40625 6.109375 
Q 40.53125 6.109375 44.609375 11.75 
Q 48.6875 17.390625 48.6875 27.296875 
z
M 18.109375 46.390625 
Q 20.953125 51.265625 25.265625 53.625 
Q 29.59375 56 35.59375 56 
Q 45.5625 56 51.78125 48.09375 
Q 58.015625 40.1875 58.015625 27.296875 
Q 58.015625 14.40625 51.78125 6.484375 
Q 45.5625 -1.421875 35.59375 -1.421875 
Q 29.59375 -1.421875 25.265625 0.953125 
Q 20.953125 3.328125 18.109375 8.203125 
L 18.109375 0 
L 9.078125 0 
L 9.078125 75.984375 
L 18.109375 75.984375 
z
" id="DejaVuSans-62"/>
     <path d="M 10.984375 1.515625 
L 10.984375 10.5 
Q 14.703125 8.734375 18.5 7.8125 
Q 22.3125 6.890625 25.984375 6.890625 
Q 35.75 6.890625 40.890625 13.453125 
Q 46.046875 20.015625 46.78125 33.40625 
Q 43.953125 29.203125 39.59375 26.953125 
Q 35.25 24.703125 29.984375 24.703125 
Q 19.046875 24.703125 12.671875 31.3125 
Q 6.296875 37.9375 6.296875 49.421875 
Q 6.296875 60.640625 12.9375 67.421875 
Q 19.578125 74.21875 30.609375 74.21875 
Q 43.265625 74.21875 49.921875 64.515625 
Q 56.59375 54.828125 56.59375 36.375 
Q 56.59375 19.140625 48.40625 8.859375 
Q 40.234375 -1.421875 26.421875 -1.421875 
Q 22.703125 -1.421875 18.890625 -0.6875 
Q 15.09375 0.046875 10.984375 1.515625 
z
M 30.609375 32.421875 
Q 37.25 32.421875 41.125 36.953125 
Q 45.015625 41.5 45.015625 49.421875 
Q 45.015625 57.28125 41.125 61.84375 
Q 37.25 66.40625 30.609375 66.40625 
Q 23.96875 66.40625 20.09375 61.84375 
Q 16.21875 57.28125 16.21875 49.421875 
Q 16.21875 41.5 20.09375 36.953125 
Q 23.96875 32.421875 30.609375 32.421875 
z
" id="DejaVuSans-39"/>
    </defs>
    <g transform="translate(369.479935 20.091654)scale(0.17 -0.17)">
     <use xlink:href="#DejaVuSans-62"/>
     <use x="63.476562" xlink:href="#DejaVuSans-65"/>
     <use x="125" xlink:href="#DejaVuSans-73"/>
     <use x="177.099609" xlink:href="#DejaVuSans-74"/>
     <use x="216.308594" xlink:href="#DejaVuSans-20"/>
     <use x="248.095703" xlink:href="#DejaVuSans-32"/>
     <use x="311.71875" xlink:href="#DejaVuSans-30"/>
     <use x="375.341797" xlink:href="#DejaVuSans-30"/>
     <use x="438.964844" xlink:href="#DejaVuSans-39"/>
    </g>
   </g>
   <g id="text_17">
    <!-- bbob f1-f24, 10-D -->
    <defs>
     <path d="M 19.671875 64.796875 
L 19.671875 8.109375 
L 31.59375 8.109375 
Q 46.6875 8.109375 53.6875 14.9375 
Q 60.6875 21.78125 60.6875 36.53125 
Q 60.6875 51.171875 53.6875 57.984375 
Q 46.6875 64.796875 31.59375 64.796875 
z
M 9.8125 72.90625 
L 30.078125 72.90625 
Q 51.265625 72.90625 61.171875 64.09375 
Q 71.09375 55.28125 71.09375 36.53125 
Q 71.09375 17.671875 61.125 8.828125 
Q 51.171875 0 30.078125 0 
L 9.8125 0 
z
" id="DejaVuSans-44"/>
    </defs>
    <g transform="translate(59.55864 17.475982)scale(0.102 -0.102)">
     <use xlink:href="#DejaVuSans-62"/>
     <use x="63.476562" xlink:href="#DejaVuSans-62"/>
     <use x="126.953125" xlink:href="#DejaVuSans-6f"/>
     <use x="188.134766" xlink:href="#DejaVuSans-62"/>
     <use x="251.611328" xlink:href="#DejaVuSans-20"/>
     <use x="283.398438" xlink:href="#DejaVuSans-66"/>
     <use x="318.603516" xlink:href="#DejaVuSans-31"/>
     <use x="382.226562" xlink:href="#DejaVuSans-2d"/>
     <use x="418.310547" xlink:href="#DejaVuSans-66"/>
     <use x="453.515625" xlink:href="#DejaVuSans-32"/>
     <use x="517.138672" xlink:href="#DejaVuSans-34"/>
     <use x="580.761719" xlink:href="#DejaVuSans-2c"/>
     <use x="612.548828" xlink:href="#DejaVuSans-20"/>
     <use x="644.335938" xlink:href="#DejaVuSans-31"/>
     <use x="707.958984" xlink:href="#DejaVuSans-30"/>
     <use x="771.582031" xlink:href="#DejaVuSans-2d"/>
     <use x="807.666016" xlink:href="#DejaVuSans-44"/>
    </g>
    <!-- 51 targets: 100..1e-08 -->
    <defs>
     <path d="M 10.796875 72.90625 
L 49.515625 72.90625 
L 49.515625 64.59375 
L 19.828125 64.59375 
L 19.828125 46.734375 
Q 21.96875 47.46875 24.109375 47.828125 
Q 26.265625 48.1875 28.421875 48.1875 
Q 40.625 48.1875 47.75 41.5 
Q 54.890625 34.8125 54.890625 23.390625 
Q 54.890625 11.625 47.5625 5.09375 
Q 40.234375 -1.421875 26.90625 -1.421875 
Q 22.3125 -1.421875 17.546875 -0.640625 
Q 12.796875 0.140625 7.71875 1.703125 
L 7.71875 11.625 
Q 12.109375 9.234375 16.796875 8.0625 
Q 21.484375 6.890625 26.703125 6.890625 
Q 35.15625 6.890625 40.078125 11.328125 
Q 45.015625 15.765625 45.015625 23.390625 
Q 45.015625 31 40.078125 35.4375 
Q 35.15625 39.890625 26.703125 39.890625 
Q 22.75 39.890625 18.8125 39.015625 
Q 14.890625 38.140625 10.796875 36.28125 
z
" id="DejaVuSans-35"/>
     <path d="M 11.71875 12.40625 
L 22.015625 12.40625 
L 22.015625 0 
L 11.71875 0 
z
M 11.71875 51.703125 
L 22.015625 51.703125 
L 22.015625 39.3125 
L 11.71875 39.3125 
z
" id="DejaVuSans-3a"/>
    </defs>
    <g transform="translate(59.55864 28.89775)scale(0.102 -0.102)">
     <use xlink:href="#DejaVuSans-35"/>
     <use x="63.623047" xlink:href="#DejaVuSans-31"/>
     <use x="127.246094" xlink:href="#DejaVuSans-20"/>
     <use x="159.033203" xlink:href="#DejaVuSans-74"/>
     <use x="198.242188" xlink:href="#DejaVuSans-61"/>
     <use x="259.521484" xlink:href="#DejaVuSans-72"/>
     <use x="300.619141" xlink:href="#DejaVuSans-67"/>
     <use x="364.095703" xlink:href="#DejaVuSans-65"/>
     <use x="425.619141" xlink:href="#DejaVuSans-74"/>
     <use x="464.828125" xlink:href="#DejaVuSans-73"/>
     <use x="516.927734" xlink:href="#DejaVuSans-3a"/>
     <use x="550.619141" xlink:href="#DejaVuSans-20"/>
     <use x="582.40625" xlink:href="#DejaVuSans-31"/>
     <use x="646.029297" xlink:href="#DejaVuSans-30"/>
     <use x="709.652344" xlink:href="#DejaVuSans-30"/>
     <use x="773.275391" xlink:href="#DejaVuSans-2e"/>
     <use x="805.0625" xlink:href="#DejaVuSans-2e"/>
     <use x="836.849609" xlink:href="#DejaVuSans-31"/>
     <use x="900.472656" xlink:href="#DejaVuSans-65"/>
     <use x="961.996094" xlink:href="#DejaVuSans-2d"/>
     <use x="998.080078" xlink:href="#DejaVuSans-30"/>
     <use x="1061.703125" xlink:href="#DejaVuSans-38"/>
    </g>
    <!-- 15 instances -->
    <g transform="translate(59.55864 40.319519)scale(0.102 -0.102)">
     <use xlink:href="#DejaVuSans-31"/>
     <use x="63.623047" xlink:href="#DejaVuSans-35"/>
     <use x="127.246094" xlink:href="#DejaVuSans-20"/>
     <use x="159.033203" xlink:href="#DejaVuSans-69"/>
     <use x="186.816406" xlink:href="#DejaVuSans-6e"/>
     <use x="250.195312" xlink:href="#DejaVuSans-73"/>
     <use x="302.294922" xlink:href="#DejaVuSans-74"/>
     <use x="341.503906" xlink:href="#DejaVuSans-61"/>
     <use x="402.783203" xlink:href="#DejaVuSans-6e"/>
     <use x="466.162109" xlink:href="#DejaVuSans-63"/>
     <use x="521.142578" xlink:href="#DejaVuSans-65"/>
     <use x="582.666016" xlink:href="#DejaVuSans-73"/>
    </g>
   </g>
   <g id="text_18">
    <!-- v-coco-version -->
    <g style="fill:#808080;" transform="translate(191.556688 289.919965)scale(0.1 -0.1)">
     <use xlink:href="#DejaVuSans-76"/>
     <use x="59.148438" xlink:href="#DejaVuSans-2d"/>
     <use x="95.232422" xlink:href="#DejaVuSans-63"/>
     <use x="150.212891" xlink:href="#DejaVuSans-6f"/>
     <use x="211.394531" xlink:href="#DejaVuSans-63"/>
     <use x="266.375" xlink:href="#DejaVuSans-6f"/>
     <use x="327.572266" xlink:href="#DejaVuSans-2d"/>
     <use x="363.625" xlink:href="#DejaVuSans-76"/>
     <use x="422.804688" xlink:href="#DejaVuSans-65"/>
     <use x="484.328125" xlink:href="#DejaVuSans-72"/>
     <use x="525.441406" xlink:href="#DejaVuSans-73"/>
     <use x="577.541016" xlink:href="#DejaVuSans-69"/>
     <use x="605.324219" xlink:href="#DejaVuSans-6f"/>
     <use x="666.505859" xlink:href="#DejaVuSans-6e"/>
    </g>
   </g>
  </g>
 </g>
 <defs>
  <clipPath id="p26cb28ef2e">
   <rect height="288.034772" width="343.864" x="56.12" y="6.845228"/>
  </clipPath>
 </defs>
</svg>
