<?xml version="1.0" encoding="utf-8" standalone="no"?>
<!DOCTYPE svg PUBLIC "-//W3C//DTD SVG 1.1//EN"
  "http://www.w3.org/Graphics/SVG/1.1/DTD/svg11.dtd">
<!-- Created with matplotlib (http://matplotlib.org/) -->
<svg height="345.6pt" version="1.1" viewBox="0 0 460.8 345.6" width="460.8pt" xmlns="http://www.w3.org/2000/svg" xmlns:xlink="http://www.w3.org/1999/xlink">
 <defs>
  <style type="text/css">
*{stroke-linecap:butt;stroke-linejoin:round;}
  </style>
 </defs>
 <g id="figure_1">
  <g id="patch_1">
   <path d="M 0 345.6 
L 460.8 345.6 
L 460.8 0 
L 0 0 
z
" style="fill:#ffffff;"/>
  </g>
  <g id="axes_1">
   <g id="patch_2">
    <path d="M 56.12 294.88 
L 399.984 294.88 
L 399.984 6.845228 
L 56.12 6.845228 
z
" style="fill:#ffffff;"/>
   </g>
   <g id="line2d_1">
    <path d="M 44.194496 294.88 
L 44.194496 281.832414 
L 56.12 281.832414 
L 56.12 277.638548 
L 63.095973 277.638548 
L 63.095973 274.143659 
L 68.045504 274.143659 
L 68.045504 260.630088 
L 71.884659 260.630088 
L 71.884659 257.601184 
L 75.021477 257.601184 
L 75.021477 247.116517 
L 77.673619 247.116517 
L 77.673619 246.184547 
L 79.971009 246.184547 
L 79.971009 245.252576 
L 81.99745 245.252576 
L 81.99745 244.320606 
L 83.810164 244.320606 
L 83.810164 243.388635 
L 85.449963 243.388635 
L 85.449963 242.456665 
L 86.946982 242.456665 
L 86.946982 241.058709 
L 88.324106 241.058709 
L 88.324106 240.126739 
L 89.599124 240.126739 
L 89.599124 238.728783 
L 90.786137 238.728783 
L 90.786137 236.63185 
L 91.896513 236.63185 
L 91.896513 235.69988 
L 92.939552 235.69988 
L 92.939552 235.233894 
L 93.922955 235.233894 
L 93.922955 232.903968 
L 94.853174 232.903968 
L 94.853174 230.574042 
L 95.735668 230.574042 
L 95.735668 229.176087 
L 96.575096 229.176087 
L 96.575096 227.778131 
L 97.375467 227.778131 
L 97.375467 227.079153 
L 98.140254 227.079153 
L 98.140254 226.147183 
L 98.872486 226.147183 
L 98.872486 224.749227 
L 99.574823 224.749227 
L 99.574823 222.885286 
L 100.24961 222.885286 
L 100.24961 220.55536 
L 100.898928 220.55536 
L 100.898928 218.458427 
L 101.524628 218.458427 
L 101.524628 215.895508 
L 102.128369 215.895508 
L 102.128369 214.730545 
L 102.711641 214.730545 
L 102.711641 213.099597 
L 103.275786 213.099597 
L 103.275786 211.934634 
L 103.822018 211.934634 
L 103.822018 211.235656 
L 104.35144 211.235656 
L 104.35144 210.536679 
L 105.363783 210.536679 
L 105.363783 209.138723 
L 106.319855 209.138723 
L 106.319855 208.439745 
L 106.778678 208.439745 
L 106.778678 206.808797 
L 107.225583 206.808797 
L 107.225583 206.342812 
L 107.661173 206.342812 
L 107.661173 204.478871 
L 108.086006 204.478871 
L 108.086006 203.779893 
L 108.500601 203.779893 
L 108.500601 202.381938 
L 108.90544 202.381938 
L 108.90544 201.449967 
L 109.300972 201.449967 
L 109.300972 200.052012 
L 109.687614 200.052012 
L 109.687614 199.353034 
L 110.065758 199.353034 
L 110.065758 196.557123 
L 110.43577 196.557123 
L 110.43577 195.858145 
L 110.797991 195.858145 
L 110.797991 195.159167 
L 111.152743 195.159167 
L 111.152743 194.460189 
L 111.500328 194.460189 
L 111.500328 193.062234 
L 111.841029 193.062234 
L 111.841029 191.897271 
L 112.175115 191.897271 
L 112.175115 191.664278 
L 112.502836 191.664278 
L 112.502836 191.198293 
L 112.824432 191.198293 
L 112.824432 190.499315 
L 113.140126 190.499315 
L 113.140126 189.800337 
L 113.450132 189.800337 
L 113.450132 188.868367 
L 113.754651 188.868367 
L 113.754651 188.402382 
L 114.053874 188.402382 
L 114.053874 187.703404 
L 114.347981 187.703404 
L 114.347981 187.004426 
L 114.637146 187.004426 
L 114.637146 186.305448 
L 114.92153 186.305448 
L 114.92153 185.140485 
L 115.20129 185.140485 
L 115.20129 183.975522 
L 115.476574 183.975522 
L 115.476574 183.276544 
L 115.747522 183.276544 
L 115.747522 182.577567 
L 116.01427 182.577567 
L 116.01427 181.645596 
L 116.276944 181.645596 
L 116.276944 180.946618 
L 116.535669 180.946618 
L 116.535669 179.548663 
L 116.790561 179.548663 
L 116.790561 178.616692 
L 117.041731 178.616692 
L 117.041731 178.150707 
L 117.289287 178.150707 
L 117.289287 177.218737 
L 117.533332 177.218737 
L 117.533332 176.985744 
L 117.773963 176.985744 
L 117.773963 176.286766 
L 118.011276 176.286766 
L 118.011276 175.121803 
L 118.245359 175.121803 
L 118.245359 173.723848 
L 118.4763 173.723848 
L 118.4763 173.02487 
L 118.704183 173.02487 
L 118.704183 172.0929 
L 118.929086 172.0929 
L 118.929086 171.393922 
L 119.151088 171.393922 
L 119.151088 170.461951 
L 119.370261 170.461951 
L 119.370261 169.762974 
L 119.586677 169.762974 
L 119.586677 168.132025 
L 119.800405 168.132025 
L 119.800405 165.569107 
L 120.01151 165.569107 
L 120.01151 164.870129 
L 120.220057 164.870129 
L 120.220057 164.404144 
L 120.426105 164.404144 
L 120.426105 163.472173 
L 120.629716 163.472173 
L 120.629716 163.006188 
L 120.830944 163.006188 
L 120.830944 161.841225 
L 121.029847 161.841225 
L 121.029847 160.909255 
L 121.226476 160.909255 
L 121.226476 159.977284 
L 121.420883 159.977284 
L 121.420883 158.346336 
L 121.613118 158.346336 
L 121.613118 156.948381 
L 121.803229 156.948381 
L 121.803229 155.550425 
L 121.991263 155.550425 
L 121.991263 153.919477 
L 122.177263 153.919477 
L 122.177263 152.521521 
L 122.361274 152.521521 
L 122.361274 150.890573 
L 122.543338 150.890573 
L 122.543338 149.958603 
L 122.723495 149.958603 
L 122.723495 148.560647 
L 122.901785 148.560647 
L 122.901785 148.094662 
L 123.078247 148.094662 
L 123.078247 147.162691 
L 123.252917 147.162691 
L 123.252917 146.230721 
L 123.425832 146.230721 
L 123.425832 145.065758 
L 123.597026 145.065758 
L 123.597026 144.133788 
L 123.766534 144.133788 
L 123.766534 143.43481 
L 123.934387 143.43481 
L 123.934387 142.735832 
L 124.100619 142.735832 
L 124.100619 142.036854 
L 124.26526 142.036854 
L 124.26526 141.337876 
L 124.428341 141.337876 
L 124.428341 140.871891 
L 124.58989 140.871891 
L 124.58989 140.405906 
L 124.749936 140.405906 
L 124.749936 139.939921 
L 125.065631 139.939921 
L 125.065631 139.473936 
L 125.375637 139.473936 
L 125.375637 137.842987 
L 125.52857 137.842987 
L 125.52857 137.609995 
L 125.680156 137.609995 
L 125.680156 136.678024 
L 125.979378 136.678024 
L 125.979378 135.979047 
L 126.273486 135.979047 
L 126.273486 135.280069 
L 126.418675 135.280069 
L 126.418675 135.047076 
L 126.56265 135.047076 
L 126.56265 134.581091 
L 126.70543 134.581091 
L 126.70543 134.348098 
L 126.847034 134.348098 
L 126.847034 134.115106 
L 127.126794 134.115106 
L 127.126794 133.649121 
L 127.264987 133.649121 
L 127.264987 133.183135 
L 127.402078 133.183135 
L 127.402078 132.950143 
L 127.538086 132.950143 
L 127.538086 132.484158 
L 127.673027 132.484158 
L 127.673027 132.251165 
L 127.939774 132.251165 
L 127.939774 131.78518 
L 128.202449 131.78518 
L 128.202449 131.552187 
L 128.332297 131.552187 
L 128.332297 130.620217 
L 128.461173 130.620217 
L 128.461173 130.387224 
L 128.589091 130.387224 
L 128.589091 130.154232 
L 128.716065 130.154232 
L 128.716065 129.921239 
L 129.091459 129.921239 
L 129.091459 129.455254 
L 129.458837 129.455254 
L 129.458837 129.222261 
L 129.93678 129.222261 
L 129.93678 128.989269 
L 130.170864 128.989269 
L 130.170864 128.756276 
L 130.742506 128.756276 
L 130.742506 128.523283 
L 131.076592 128.523283 
L 131.076592 128.057298 
L 131.512181 128.057298 
L 131.512181 127.824306 
L 132.041604 127.824306 
L 132.145561 127.35832 
L 132.35161 127.35832 
L 132.35161 127.125328 
L 132.55522 127.125328 
L 132.55522 126.892335 
L 132.955351 126.892335 
L 133.053947 126.193357 
L 133.249459 126.193357 
L 133.249459 125.960365 
L 133.538623 125.960365 
L 133.538623 125.727372 
L 133.916767 125.727372 
L 133.916767 125.49438 
L 134.102767 125.49438 
L 134.195019 125.028394 
L 134.286778 125.028394 
L 134.286778 124.329417 
L 134.559157 124.329417 
L 134.559157 123.863431 
L 134.738376 123.863431 
L 134.738376 123.397446 
L 134.915747 123.397446 
L 135.003752 122.931461 
L 135.091308 122.931461 
L 135.091308 122.698468 
L 135.351336 122.698468 
L 135.351336 122.465476 
L 135.522531 122.465476 
L 135.522531 122.232483 
L 135.692038 122.232483 
L 135.692038 121.533505 
L 135.859892 121.533505 
L 135.859892 121.300513 
L 136.026124 121.300513 
L 136.108641 120.601535 
L 136.272498 120.601535 
L 136.353845 119.902557 
L 136.595604 119.902557 
L 136.675441 119.436572 
L 136.754909 119.436572 
L 136.834012 114.310735 
L 136.912753 114.310735 
L 136.991135 113.84475 
L 137.069162 113.84475 
L 137.069162 113.611757 
L 137.224162 113.611757 
L 137.301141 112.679787 
L 137.454074 112.679787 
L 137.530034 111.747816 
L 137.680955 111.747816 
L 137.680955 111.281831 
L 137.904883 111.281831 
L 137.978882 110.815846 
L 138.052565 110.815846 
L 138.125933 110.116868 
L 138.34418 110.116868 
L 138.34418 109.883875 
L 138.488154 109.883875 
L 138.559692 109.184898 
L 138.630934 109.184898 
L 138.701882 108.252927 
L 138.772539 108.252927 
L 138.772539 108.019935 
L 138.912987 108.019935 
L 138.912987 107.786942 
L 139.121534 107.786942 
L 139.190491 106.854972 
L 139.259174 106.854972 
L 139.327583 106.388986 
L 139.395721 106.388986 
L 139.395721 105.690009 
L 139.531193 105.690009 
L 139.598531 105.224023 
L 139.732422 105.224023 
L 139.798978 104.292053 
L 140.06266 104.292053 
L 140.127953 103.360082 
L 140.257802 103.360082 
L 140.322361 102.661105 
L 140.386678 102.661105 
L 140.386678 102.428112 
L 140.514596 102.428112 
L 140.5782 101.729134 
L 140.83029 101.729134 
L 140.89274 100.331179 
L 140.954964 100.331179 
L 141.016963 99.632201 
L 141.07874 99.632201 
L 141.140296 98.70023 
L 141.201633 98.70023 
L 141.262751 98.234245 
L 141.323654 98.234245 
L 141.323654 97.76826 
L 141.444815 97.76826 
L 141.505077 97.302275 
L 141.565129 97.302275 
L 141.624972 96.83629 
L 141.684608 96.83629 
L 141.744038 95.671327 
L 141.803263 95.671327 
L 141.803263 95.205341 
L 141.921105 95.205341 
L 141.979724 94.506364 
L 142.096368 94.506364 
L 142.096368 94.273371 
L 142.212226 94.273371 
L 142.269864 93.341401 
L 142.327309 93.341401 
L 142.384563 92.875415 
L 142.441628 92.875415 
L 142.498503 92.40943 
L 142.555192 92.40943 
L 142.611694 91.943445 
L 142.668011 91.943445 
L 142.724144 91.011475 
L 142.780095 91.011475 
L 142.780095 90.778482 
L 142.891454 90.778482 
L 142.946864 90.312497 
L 143.057152 90.312497 
L 143.057152 90.079504 
L 143.329818 90.079504 
L 143.437686 89.380526 
L 143.491367 89.380526 
L 143.59823 87.516586 
L 143.651414 87.516586 
L 143.75729 85.885637 
L 143.809985 85.885637 
L 143.914893 84.720674 
L 143.967108 84.720674 
L 144.071065 83.322719 
L 144.225833 83.322719 
L 144.277114 82.856734 
L 144.531253 82.856734 
L 144.581633 82.390748 
L 144.681953 82.390748 
L 144.681953 81.924763 
L 144.880856 81.924763 
L 144.880856 81.458778 
L 145.028538 81.458778 
L 145.028538 81.225785 
L 145.223496 81.225785 
L 145.320153 80.060822 
L 145.368278 80.060822 
L 145.464127 79.128852 
L 145.654238 79.128852 
L 145.748512 75.40097 
L 145.795455 75.40097 
L 145.88896 73.770022 
L 145.935523 73.770022 
L 145.98196 71.906081 
L 146.074459 71.906081 
L 146.166464 69.576155 
L 146.212283 69.576155 
L 146.212283 69.343163 
L 146.349011 69.343163 
L 146.439563 68.877178 
L 146.574504 68.877178 
L 146.61925 68.411192 
L 146.708395 68.411192 
L 146.752794 67.712215 
L 146.841251 67.712215 
L 146.88531 67.013237 
L 146.97309 67.013237 
L 146.97309 66.780244 
L 147.103926 66.780244 
L 147.103926 66.547252 
L 147.362651 66.547252 
L 147.362651 66.314259 
L 147.490569 66.314259 
L 147.490569 66.081266 
L 147.617542 66.081266 
L 147.65966 65.382289 
L 147.827105 65.382289 
L 147.868713 64.916303 
L 149.072341 64.916303 
L 149.149666 62.81937 
L 149.188199 62.81937 
L 149.226646 61.8874 
L 149.303282 61.8874 
L 149.379579 60.023459 
L 149.417601 60.023459 
L 149.493393 57.46054 
L 149.643984 57.46054 
L 149.718788 56.994555 
L 149.756068 56.994555 
L 149.830387 55.596599 
L 149.867427 55.596599 
L 149.904387 54.198644 
L 150.413659 54.198644 
L 150.449465 53.499666 
L 150.627387 53.499666 
L 150.627387 53.266673 
L 150.977803 53.266673 
L 151.012456 52.567696 
L 151.150371 52.567696 
L 151.150371 52.334703 
L 151.389095 52.334703 
L 151.389095 52.10171 
L 151.889756 52.10171 
L 151.955424 51.635725 
L 152.020842 51.635725 
L 152.118505 50.936747 
L 152.183306 50.936747 
L 152.280054 50.23777 
L 152.312182 50.23777 
L 152.40821 48.606821 
L 152.4401 48.606821 
L 152.535418 47.674851 
L 152.567074 47.674851 
L 152.567074 47.208866 
L 152.818244 47.208866 
L 152.911496 46.043903 
L 152.942468 46.043903 
L 153.03505 45.111932 
L 153.065801 45.111932 
L 153.157724 44.412955 
L 153.188256 44.412955 
L 153.279528 43.480984 
L 153.309845 43.480984 
L 153.340109 42.549014 
L 154.733507 42.549014 
L 154.733507 42.316021 
L 156.048314 42.316021 
L 156.048314 42.083029 
L 156.657399 42.083029 
L 156.657399 41.850036 
L 157.48495 41.850036 
L 157.48495 41.617043 
L 157.767776 41.617043 
L 157.837762 41.151058 
L 157.953776 41.151058 
L 157.953776 40.918066 
L 158.137787 40.918066 
L 158.137787 40.685073 
L 158.297198 40.685073 
L 158.297198 40.45208 
L 159.543047 40.45208 
L 159.543047 40.219088 
L 159.95965 40.219088 
L 160.062243 39.753103 
L 160.386491 39.753103 
L 160.386491 39.52011 
L 161.075171 39.52011 
L 161.075171 39.287117 
L 163.600094 39.287117 
L 163.600094 39.054125 
L 163.749342 39.054125 
L 163.782333 38.58814 
L 163.930015 38.58814 
L 163.930015 38.355147 
L 164.060232 38.355147 
L 164.14112 37.656169 
L 164.189471 37.656169 
L 164.22163 37.190184 
L 164.349667 37.190184 
L 164.349667 36.957191 
L 164.460923 36.957191 
L 164.476758 36.491206 
L 164.821493 36.491206 
L 164.883437 35.792228 
L 165.022001 35.792228 
L 165.022001 35.559236 
L 165.310909 35.559236 
L 165.386138 34.860258 
L 165.535617 34.860258 
L 165.535617 34.627265 
L 165.654272 34.627265 
L 165.654272 34.394273 
L 166.335311 34.394273 
L 166.335311 34.16128 
L 166.448594 34.16128 
L 166.547109 33.22931 
L 166.617133 33.22931 
L 166.617133 32.996317 
L 166.77019 32.996317 
L 166.866886 32.297339 
L 167.085885 32.297339 
L 167.09948 31.831354 
L 167.5951 31.831354 
L 167.5951 31.598362 
L 167.98673 31.598362 
L 167.98673 31.365369 
L 168.179252 31.365369 
L 168.179252 31.132376 
L 168.382262 31.132376 
L 168.382262 30.899384 
L 168.657545 30.899384 
L 168.657545 30.666391 
L 168.891796 30.666391 
L 168.977302 30.200406 
L 169.398568 30.200406 
L 169.505247 29.268436 
L 169.51706 29.268436 
L 169.552448 28.569458 
L 169.763266 28.569458 
L 169.763266 28.336465 
L 170.188667 28.336465 
L 170.211365 27.87048 
L 170.313136 27.87048 
L 170.313136 27.637487 
L 170.791234 27.637487 
L 170.867822 27.171502 
L 171.170808 27.171502 
L 171.170808 26.93851 
L 171.309687 26.93851 
L 171.309687 26.705517 
L 171.489623 26.705517 
L 171.489623 26.472524 
L 171.730108 26.472524 
L 171.730108 26.239532 
L 171.987748 26.239532 
L 171.987748 26.006539 
L 172.251662 26.006539 
L 172.251662 25.773547 
L 172.894263 25.773547 
L 172.894263 25.540554 
L 173.14473 25.540554 
L 173.14473 25.307561 
L 173.306547 25.307561 
L 173.316019 24.841576 
L 173.429271 24.841576 
L 173.448074 24.375591 
L 173.838266 24.375591 
L 173.838266 24.142598 
L 174.300474 24.142598 
L 174.336206 23.676613 
L 175.583793 23.676613 
L 175.583793 23.443621 
L 175.716075 23.443621 
L 175.748988 22.977635 
L 178.125315 22.977635 
L 178.182498 22.51165 
L 178.374099 22.51165 
L 178.374099 22.278658 
L 178.549624 22.278658 
L 178.549624 22.045665 
L 179.394707 22.045665 
L 179.474328 21.57968 
L 179.553583 21.57968 
L 179.625914 21.113695 
L 180.200215 21.113695 
L 180.200215 20.880702 
L 180.495936 20.880702 
L 180.495936 20.647709 
L 180.737521 20.647709 
L 180.737521 20.414717 
L 181.018174 20.414717 
L 181.10871 19.948732 
L 181.216728 19.948732 
L 181.306228 19.482746 
L 181.359706 19.482746 
L 181.359706 19.249754 
L 181.477953 19.249754 
L 181.536773 18.783769 
L 189.248403 18.783769 
L 189.248403 18.550776 
L 190.704114 18.550776 
L 190.704114 18.317783 
L 196.203109 18.317783 
L 196.203109 18.084791 
L 199.891387 18.084791 
L 199.891387 17.851798 
L 210.603157 17.851798 
L 210.603157 17.618806 
L 213.801299 17.618806 
L 213.818395 17.15282 
L 217.159193 17.15282 
L 217.159193 16.919828 
L 217.283166 16.919828 
L 217.319157 16.453843 
L 217.407712 16.453843 
L 217.483463 15.987857 
L 217.639013 15.987857 
L 217.639013 15.754865 
L 217.800307 15.754865 
L 217.849469 15.28888 
L 218.226654 15.28888 
L 218.230134 9.697057 
L 333.429677 9.697057 
L 333.429677 9.697057 
" style="fill:none;stroke:#f5deb3;stroke-linecap:square;stroke-width:6;"/>
   </g>
   <g id="line2d_2">
    <defs>
     <path d="M -0 7.778175 
L 7.778175 0 
L 0 -7.778175 
L -7.778175 -0 
z
" id="m9ee4ba8d74" style="stroke:#f5deb3;stroke-linejoin:miter;stroke-width:1.5;"/>
    </defs>
    <g>
     <use style="fill:#f5deb3;stroke:#f5deb3;stroke-linejoin:miter;stroke-width:1.5;" x="111.152743" xlink:href="#m9ee4ba8d74" y="194.460189"/>
     <use style="fill:#f5deb3;stroke:#f5deb3;stroke-linejoin:miter;stroke-width:1.5;" x="145.654238" xlink:href="#m9ee4ba8d74" y="78.895859"/>
     <use style="fill:#f5deb3;stroke:#f5deb3;stroke-linejoin:miter;stroke-width:1.5;" x="181.536773" xlink:href="#m9ee4ba8d74" y="19.016761"/>
     <use style="fill:#f5deb3;stroke:#f5deb3;stroke-linejoin:miter;stroke-width:1.5;" x="218.230134" xlink:href="#m9ee4ba8d74" y="9.697057"/>
     <use style="fill:#f5deb3;stroke:#f5deb3;stroke-linejoin:miter;stroke-width:1.5;" x="218.230134" xlink:href="#m9ee4ba8d74" y="9.697057"/>
     <use style="fill:#f5deb3;stroke:#f5deb3;stroke-linejoin:miter;stroke-width:1.5;" x="333.429677" xlink:href="#m9ee4ba8d74" y="9.697057"/>
    </g>
   </g>
   <g id="line2d_3">
    <path style="fill:none;stroke:#f5deb3;stroke-linecap:square;stroke-width:6;"/>
    <g/>
   </g>
   <g id="line2d_4">
    <path d="M 333.429677 9.697057 
L 363.933742 15.400716 
" style="fill:none;stroke:#f5deb3;stroke-linecap:square;stroke-width:6;"/>
    <g>
     <use style="fill:#f5deb3;stroke:#f5deb3;stroke-linejoin:miter;stroke-width:1.5;" x="333.429677" xlink:href="#m9ee4ba8d74" y="9.697057"/>
     <use style="fill:#f5deb3;stroke:#f5deb3;stroke-linejoin:miter;stroke-width:1.5;" x="363.933742" xlink:href="#m9ee4ba8d74" y="15.400716"/>
    </g>
   </g>
   <g id="matplotlib.axis_1">
    <g id="xtick_1">
     <g id="line2d_5">
      <path clip-path="url(#pd2d01bd5f2)" d="M 56.12 294.88 
L 56.12 6.845228 
" style="fill:none;stroke:#b0b0b0;stroke-linecap:square;stroke-width:0.8;"/>
     </g>
     <g id="line2d_6">
      <defs>
       <path d="M 0 0 
L 0 3.5 
" id="m1d47a5d161" style="stroke:#000000;stroke-width:0.8;"/>
      </defs>
      <g>
       <use style="stroke:#000000;stroke-width:0.8;" x="56.12" xlink:href="#m1d47a5d161" y="294.88"/>
      </g>
     </g>
     <g id="text_1">
      <!-- 0 -->
      <defs>
       <path d="M 31.78125 66.40625 
Q 24.171875 66.40625 20.328125 58.90625 
Q 16.5 51.421875 16.5 36.375 
Q 16.5 21.390625 20.328125 13.890625 
Q 24.171875 6.390625 31.78125 6.390625 
Q 39.453125 6.390625 43.28125 13.890625 
Q 47.125 21.390625 47.125 36.375 
Q 47.125 51.421875 43.28125 58.90625 
Q 39.453125 66.40625 31.78125 66.40625 
z
M 31.78125 74.21875 
Q 44.046875 74.21875 50.515625 64.515625 
Q 56.984375 54.828125 56.984375 36.375 
Q 56.984375 17.96875 50.515625 8.265625 
Q 44.046875 -1.421875 31.78125 -1.421875 
Q 19.53125 -1.421875 13.0625 8.265625 
Q 6.59375 17.96875 6.59375 36.375 
Q 6.59375 54.828125 13.0625 64.515625 
Q 19.53125 74.21875 31.78125 74.21875 
z
" id="DejaVuSans-30"/>
      </defs>
      <g transform="translate(49.7575 317.076875)scale(0.2 -0.2)">
       <use xlink:href="#DejaVuSans-30"/>
      </g>
     </g>
    </g>
    <g id="xtick_2">
     <g id="line2d_7">
      <path clip-path="url(#pd2d01bd5f2)" d="M 135.351336 294.88 
L 135.351336 6.845228 
" style="fill:none;stroke:#b0b0b0;stroke-linecap:square;stroke-width:0.8;"/>
     </g>
     <g id="line2d_8">
      <g>
       <use style="stroke:#000000;stroke-width:0.8;" x="135.351336" xlink:href="#m1d47a5d161" y="294.88"/>
      </g>
     </g>
     <g id="text_2">
      <!-- 2 -->
      <defs>
       <path d="M 19.1875 8.296875 
L 53.609375 8.296875 
L 53.609375 0 
L 7.328125 0 
L 7.328125 8.296875 
Q 12.9375 14.109375 22.625 23.890625 
Q 32.328125 33.6875 34.8125 36.53125 
Q 39.546875 41.84375 41.421875 45.53125 
Q 43.3125 49.21875 43.3125 52.78125 
Q 43.3125 58.59375 39.234375 62.25 
Q 35.15625 65.921875 28.609375 65.921875 
Q 23.96875 65.921875 18.8125 64.3125 
Q 13.671875 62.703125 7.8125 59.421875 
L 7.8125 69.390625 
Q 13.765625 71.78125 18.9375 73 
Q 24.125 74.21875 28.421875 74.21875 
Q 39.75 74.21875 46.484375 68.546875 
Q 53.21875 62.890625 53.21875 53.421875 
Q 53.21875 48.921875 51.53125 44.890625 
Q 49.859375 40.875 45.40625 35.40625 
Q 44.1875 33.984375 37.640625 27.21875 
Q 31.109375 20.453125 19.1875 8.296875 
z
" id="DejaVuSans-32"/>
      </defs>
      <g transform="translate(128.988836 317.076875)scale(0.2 -0.2)">
       <use xlink:href="#DejaVuSans-32"/>
      </g>
     </g>
    </g>
    <g id="xtick_3">
     <g id="line2d_9">
      <path clip-path="url(#pd2d01bd5f2)" d="M 214.582673 294.88 
L 214.582673 6.845228 
" style="fill:none;stroke:#b0b0b0;stroke-linecap:square;stroke-width:0.8;"/>
     </g>
     <g id="line2d_10">
      <g>
       <use style="stroke:#000000;stroke-width:0.8;" x="214.582673" xlink:href="#m1d47a5d161" y="294.88"/>
      </g>
     </g>
     <g id="text_3">
      <!-- 4 -->
      <defs>
       <path d="M 37.796875 64.3125 
L 12.890625 25.390625 
L 37.796875 25.390625 
z
M 35.203125 72.90625 
L 47.609375 72.90625 
L 47.609375 25.390625 
L 58.015625 25.390625 
L 58.015625 17.1875 
L 47.609375 17.1875 
L 47.609375 0 
L 37.796875 0 
L 37.796875 17.1875 
L 4.890625 17.1875 
L 4.890625 26.703125 
z
" id="DejaVuSans-34"/>
      </defs>
      <g transform="translate(208.220173 317.076875)scale(0.2 -0.2)">
       <use xlink:href="#DejaVuSans-34"/>
      </g>
     </g>
    </g>
    <g id="xtick_4">
     <g id="line2d_11">
      <path clip-path="url(#pd2d01bd5f2)" d="M 293.814009 294.88 
L 293.814009 6.845228 
" style="fill:none;stroke:#b0b0b0;stroke-linecap:square;stroke-width:0.8;"/>
     </g>
     <g id="line2d_12">
      <g>
       <use style="stroke:#000000;stroke-width:0.8;" x="293.814009" xlink:href="#m1d47a5d161" y="294.88"/>
      </g>
     </g>
     <g id="text_4">
      <!-- 6 -->
      <defs>
       <path d="M 33.015625 40.375 
Q 26.375 40.375 22.484375 35.828125 
Q 18.609375 31.296875 18.609375 23.390625 
Q 18.609375 15.53125 22.484375 10.953125 
Q 26.375 6.390625 33.015625 6.390625 
Q 39.65625 6.390625 43.53125 10.953125 
Q 47.40625 15.53125 47.40625 23.390625 
Q 47.40625 31.296875 43.53125 35.828125 
Q 39.65625 40.375 33.015625 40.375 
z
M 52.59375 71.296875 
L 52.59375 62.3125 
Q 48.875 64.0625 45.09375 64.984375 
Q 41.3125 65.921875 37.59375 65.921875 
Q 27.828125 65.921875 22.671875 59.328125 
Q 17.53125 52.734375 16.796875 39.40625 
Q 19.671875 43.65625 24.015625 45.921875 
Q 28.375 48.1875 33.59375 48.1875 
Q 44.578125 48.1875 50.953125 41.515625 
Q 57.328125 34.859375 57.328125 23.390625 
Q 57.328125 12.15625 50.6875 5.359375 
Q 44.046875 -1.421875 33.015625 -1.421875 
Q 20.359375 -1.421875 13.671875 8.265625 
Q 6.984375 17.96875 6.984375 36.375 
Q 6.984375 53.65625 15.1875 63.9375 
Q 23.390625 74.21875 37.203125 74.21875 
Q 40.921875 74.21875 44.703125 73.484375 
Q 48.484375 72.75 52.59375 71.296875 
z
" id="DejaVuSans-36"/>
      </defs>
      <g transform="translate(287.451509 317.076875)scale(0.2 -0.2)">
       <use xlink:href="#DejaVuSans-36"/>
      </g>
     </g>
    </g>
    <g id="xtick_5">
     <g id="line2d_13">
      <path clip-path="url(#pd2d01bd5f2)" d="M 373.045346 294.88 
L 373.045346 6.845228 
" style="fill:none;stroke:#b0b0b0;stroke-linecap:square;stroke-width:0.8;"/>
     </g>
     <g id="line2d_14">
      <g>
       <use style="stroke:#000000;stroke-width:0.8;" x="373.045346" xlink:href="#m1d47a5d161" y="294.88"/>
      </g>
     </g>
     <g id="text_5">
      <!-- 8 -->
      <defs>
       <path d="M 31.78125 34.625 
Q 24.75 34.625 20.71875 30.859375 
Q 16.703125 27.09375 16.703125 20.515625 
Q 16.703125 13.921875 20.71875 10.15625 
Q 24.75 6.390625 31.78125 6.390625 
Q 38.8125 6.390625 42.859375 10.171875 
Q 46.921875 13.96875 46.921875 20.515625 
Q 46.921875 27.09375 42.890625 30.859375 
Q 38.875 34.625 31.78125 34.625 
z
M 21.921875 38.8125 
Q 15.578125 40.375 12.03125 44.71875 
Q 8.5 49.078125 8.5 55.328125 
Q 8.5 64.0625 14.71875 69.140625 
Q 20.953125 74.21875 31.78125 74.21875 
Q 42.671875 74.21875 48.875 69.140625 
Q 55.078125 64.0625 55.078125 55.328125 
Q 55.078125 49.078125 51.53125 44.71875 
Q 48 40.375 41.703125 38.8125 
Q 48.828125 37.15625 52.796875 32.3125 
Q 56.78125 27.484375 56.78125 20.515625 
Q 56.78125 9.90625 50.3125 4.234375 
Q 43.84375 -1.421875 31.78125 -1.421875 
Q 19.734375 -1.421875 13.25 4.234375 
Q 6.78125 9.90625 6.78125 20.515625 
Q 6.78125 27.484375 10.78125 32.3125 
Q 14.796875 37.15625 21.921875 38.8125 
z
M 18.3125 54.390625 
Q 18.3125 48.734375 21.84375 45.5625 
Q 25.390625 42.390625 31.78125 42.390625 
Q 38.140625 42.390625 41.71875 45.5625 
Q 45.3125 48.734375 45.3125 54.390625 
Q 45.3125 60.0625 41.71875 63.234375 
Q 38.140625 66.40625 31.78125 66.40625 
Q 25.390625 66.40625 21.84375 63.234375 
Q 18.3125 60.0625 18.3125 54.390625 
z
" id="DejaVuSans-38"/>
      </defs>
      <g transform="translate(366.682846 317.076875)scale(0.2 -0.2)">
       <use xlink:href="#DejaVuSans-38"/>
      </g>
     </g>
    </g>
    <g id="text_6">
     <!-- log10(# f-evals / dimension) -->
     <defs>
      <path d="M 9.421875 75.984375 
L 18.40625 75.984375 
L 18.40625 0 
L 9.421875 0 
z
" id="DejaVuSans-6c"/>
      <path d="M 30.609375 48.390625 
Q 23.390625 48.390625 19.1875 42.75 
Q 14.984375 37.109375 14.984375 27.296875 
Q 14.984375 17.484375 19.15625 11.84375 
Q 23.34375 6.203125 30.609375 6.203125 
Q 37.796875 6.203125 41.984375 11.859375 
Q 46.1875 17.53125 46.1875 27.296875 
Q 46.1875 37.015625 41.984375 42.703125 
Q 37.796875 48.390625 30.609375 48.390625 
z
M 30.609375 56 
Q 42.328125 56 49.015625 48.375 
Q 55.71875 40.765625 55.71875 27.296875 
Q 55.71875 13.875 49.015625 6.21875 
Q 42.328125 -1.421875 30.609375 -1.421875 
Q 18.84375 -1.421875 12.171875 6.21875 
Q 5.515625 13.875 5.515625 27.296875 
Q 5.515625 40.765625 12.171875 48.375 
Q 18.84375 56 30.609375 56 
z
" id="DejaVuSans-6f"/>
      <path d="M 45.40625 27.984375 
Q 45.40625 37.75 41.375 43.109375 
Q 37.359375 48.484375 30.078125 48.484375 
Q 22.859375 48.484375 18.828125 43.109375 
Q 14.796875 37.75 14.796875 27.984375 
Q 14.796875 18.265625 18.828125 12.890625 
Q 22.859375 7.515625 30.078125 7.515625 
Q 37.359375 7.515625 41.375 12.890625 
Q 45.40625 18.265625 45.40625 27.984375 
z
M 54.390625 6.78125 
Q 54.390625 -7.171875 48.1875 -13.984375 
Q 42 -20.796875 29.203125 -20.796875 
Q 24.46875 -20.796875 20.265625 -20.09375 
Q 16.0625 -19.390625 12.109375 -17.921875 
L 12.109375 -9.1875 
Q 16.0625 -11.328125 19.921875 -12.34375 
Q 23.78125 -13.375 27.78125 -13.375 
Q 36.625 -13.375 41.015625 -8.765625 
Q 45.40625 -4.15625 45.40625 5.171875 
L 45.40625 9.625 
Q 42.625 4.78125 38.28125 2.390625 
Q 33.9375 0 27.875 0 
Q 17.828125 0 11.671875 7.65625 
Q 5.515625 15.328125 5.515625 27.984375 
Q 5.515625 40.671875 11.671875 48.328125 
Q 17.828125 56 27.875 56 
Q 33.9375 56 38.28125 53.609375 
Q 42.625 51.21875 45.40625 46.390625 
L 45.40625 54.6875 
L 54.390625 54.6875 
z
" id="DejaVuSans-67"/>
      <path d="M 12.40625 8.296875 
L 28.515625 8.296875 
L 28.515625 63.921875 
L 10.984375 60.40625 
L 10.984375 69.390625 
L 28.421875 72.90625 
L 38.28125 72.90625 
L 38.28125 8.296875 
L 54.390625 8.296875 
L 54.390625 0 
L 12.40625 0 
z
" id="DejaVuSans-31"/>
      <path d="M 31 75.875 
Q 24.46875 64.65625 21.28125 53.65625 
Q 18.109375 42.671875 18.109375 31.390625 
Q 18.109375 20.125 21.3125 9.0625 
Q 24.515625 -2 31 -13.1875 
L 23.1875 -13.1875 
Q 15.875 -1.703125 12.234375 9.375 
Q 8.59375 20.453125 8.59375 31.390625 
Q 8.59375 42.28125 12.203125 53.3125 
Q 15.828125 64.359375 23.1875 75.875 
z
" id="DejaVuSans-28"/>
      <path d="M 51.125 44 
L 36.921875 44 
L 32.8125 27.6875 
L 47.125 27.6875 
z
M 43.796875 71.78125 
L 38.71875 51.515625 
L 52.984375 51.515625 
L 58.109375 71.78125 
L 65.921875 71.78125 
L 60.890625 51.515625 
L 76.125 51.515625 
L 76.125 44 
L 58.984375 44 
L 54.984375 27.6875 
L 70.515625 27.6875 
L 70.515625 20.21875 
L 53.078125 20.21875 
L 48 0 
L 40.1875 0 
L 45.21875 20.21875 
L 30.90625 20.21875 
L 25.875 0 
L 18.015625 0 
L 23.09375 20.21875 
L 7.71875 20.21875 
L 7.71875 27.6875 
L 24.90625 27.6875 
L 29 44 
L 13.28125 44 
L 13.28125 51.515625 
L 30.90625 51.515625 
L 35.890625 71.78125 
z
" id="DejaVuSans-23"/>
      <path id="DejaVuSans-20"/>
      <path d="M 37.109375 75.984375 
L 37.109375 68.5 
L 28.515625 68.5 
Q 23.6875 68.5 21.796875 66.546875 
Q 19.921875 64.59375 19.921875 59.515625 
L 19.921875 54.6875 
L 34.71875 54.6875 
L 34.71875 47.703125 
L 19.921875 47.703125 
L 19.921875 0 
L 10.890625 0 
L 10.890625 47.703125 
L 2.296875 47.703125 
L 2.296875 54.6875 
L 10.890625 54.6875 
L 10.890625 58.5 
Q 10.890625 67.625 15.140625 71.796875 
Q 19.390625 75.984375 28.609375 75.984375 
z
" id="DejaVuSans-66"/>
      <path d="M 4.890625 31.390625 
L 31.203125 31.390625 
L 31.203125 23.390625 
L 4.890625 23.390625 
z
" id="DejaVuSans-2d"/>
      <path d="M 56.203125 29.59375 
L 56.203125 25.203125 
L 14.890625 25.203125 
Q 15.484375 15.921875 20.484375 11.0625 
Q 25.484375 6.203125 34.421875 6.203125 
Q 39.59375 6.203125 44.453125 7.46875 
Q 49.3125 8.734375 54.109375 11.28125 
L 54.109375 2.78125 
Q 49.265625 0.734375 44.1875 -0.34375 
Q 39.109375 -1.421875 33.890625 -1.421875 
Q 20.796875 -1.421875 13.15625 6.1875 
Q 5.515625 13.8125 5.515625 26.8125 
Q 5.515625 40.234375 12.765625 48.109375 
Q 20.015625 56 32.328125 56 
Q 43.359375 56 49.78125 48.890625 
Q 56.203125 41.796875 56.203125 29.59375 
z
M 47.21875 32.234375 
Q 47.125 39.59375 43.09375 43.984375 
Q 39.0625 48.390625 32.421875 48.390625 
Q 24.90625 48.390625 20.390625 44.140625 
Q 15.875 39.890625 15.1875 32.171875 
z
" id="DejaVuSans-65"/>
      <path d="M 2.984375 54.6875 
L 12.5 54.6875 
L 29.59375 8.796875 
L 46.6875 54.6875 
L 56.203125 54.6875 
L 35.6875 0 
L 23.484375 0 
z
" id="DejaVuSans-76"/>
      <path d="M 34.28125 27.484375 
Q 23.390625 27.484375 19.1875 25 
Q 14.984375 22.515625 14.984375 16.5 
Q 14.984375 11.71875 18.140625 8.90625 
Q 21.296875 6.109375 26.703125 6.109375 
Q 34.1875 6.109375 38.703125 11.40625 
Q 43.21875 16.703125 43.21875 25.484375 
L 43.21875 27.484375 
z
M 52.203125 31.203125 
L 52.203125 0 
L 43.21875 0 
L 43.21875 8.296875 
Q 40.140625 3.328125 35.546875 0.953125 
Q 30.953125 -1.421875 24.3125 -1.421875 
Q 15.921875 -1.421875 10.953125 3.296875 
Q 6 8.015625 6 15.921875 
Q 6 25.140625 12.171875 29.828125 
Q 18.359375 34.515625 30.609375 34.515625 
L 43.21875 34.515625 
L 43.21875 35.40625 
Q 43.21875 41.609375 39.140625 45 
Q 35.0625 48.390625 27.6875 48.390625 
Q 23 48.390625 18.546875 47.265625 
Q 14.109375 46.140625 10.015625 43.890625 
L 10.015625 52.203125 
Q 14.9375 54.109375 19.578125 55.046875 
Q 24.21875 56 28.609375 56 
Q 40.484375 56 46.34375 49.84375 
Q 52.203125 43.703125 52.203125 31.203125 
z
" id="DejaVuSans-61"/>
      <path d="M 44.28125 53.078125 
L 44.28125 44.578125 
Q 40.484375 46.53125 36.375 47.5 
Q 32.28125 48.484375 27.875 48.484375 
Q 21.1875 48.484375 17.84375 46.4375 
Q 14.5 44.390625 14.5 40.28125 
Q 14.5 37.15625 16.890625 35.375 
Q 19.28125 33.59375 26.515625 31.984375 
L 29.59375 31.296875 
Q 39.15625 29.25 43.1875 25.515625 
Q 47.21875 21.78125 47.21875 15.09375 
Q 47.21875 7.46875 41.1875 3.015625 
Q 35.15625 -1.421875 24.609375 -1.421875 
Q 20.21875 -1.421875 15.453125 -0.5625 
Q 10.6875 0.296875 5.421875 2 
L 5.421875 11.28125 
Q 10.40625 8.6875 15.234375 7.390625 
Q 20.0625 6.109375 24.8125 6.109375 
Q 31.15625 6.109375 34.5625 8.28125 
Q 37.984375 10.453125 37.984375 14.40625 
Q 37.984375 18.0625 35.515625 20.015625 
Q 33.0625 21.96875 24.703125 23.78125 
L 21.578125 24.515625 
Q 13.234375 26.265625 9.515625 29.90625 
Q 5.8125 33.546875 5.8125 39.890625 
Q 5.8125 47.609375 11.28125 51.796875 
Q 16.75 56 26.8125 56 
Q 31.78125 56 36.171875 55.265625 
Q 40.578125 54.546875 44.28125 53.078125 
z
" id="DejaVuSans-73"/>
      <path d="M 25.390625 72.90625 
L 33.6875 72.90625 
L 8.296875 -9.28125 
L 0 -9.28125 
z
" id="DejaVuSans-2f"/>
      <path d="M 45.40625 46.390625 
L 45.40625 75.984375 
L 54.390625 75.984375 
L 54.390625 0 
L 45.40625 0 
L 45.40625 8.203125 
Q 42.578125 3.328125 38.25 0.953125 
Q 33.9375 -1.421875 27.875 -1.421875 
Q 17.96875 -1.421875 11.734375 6.484375 
Q 5.515625 14.40625 5.515625 27.296875 
Q 5.515625 40.1875 11.734375 48.09375 
Q 17.96875 56 27.875 56 
Q 33.9375 56 38.25 53.625 
Q 42.578125 51.265625 45.40625 46.390625 
z
M 14.796875 27.296875 
Q 14.796875 17.390625 18.875 11.75 
Q 22.953125 6.109375 30.078125 6.109375 
Q 37.203125 6.109375 41.296875 11.75 
Q 45.40625 17.390625 45.40625 27.296875 
Q 45.40625 37.203125 41.296875 42.84375 
Q 37.203125 48.484375 30.078125 48.484375 
Q 22.953125 48.484375 18.875 42.84375 
Q 14.796875 37.203125 14.796875 27.296875 
z
" id="DejaVuSans-64"/>
      <path d="M 9.421875 54.6875 
L 18.40625 54.6875 
L 18.40625 0 
L 9.421875 0 
z
M 9.421875 75.984375 
L 18.40625 75.984375 
L 18.40625 64.59375 
L 9.421875 64.59375 
z
" id="DejaVuSans-69"/>
      <path d="M 52 44.1875 
Q 55.375 50.25 60.0625 53.125 
Q 64.75 56 71.09375 56 
Q 79.640625 56 84.28125 50.015625 
Q 88.921875 44.046875 88.921875 33.015625 
L 88.921875 0 
L 79.890625 0 
L 79.890625 32.71875 
Q 79.890625 40.578125 77.09375 44.375 
Q 74.3125 48.1875 68.609375 48.1875 
Q 61.625 48.1875 57.5625 43.546875 
Q 53.515625 38.921875 53.515625 30.90625 
L 53.515625 0 
L 44.484375 0 
L 44.484375 32.71875 
Q 44.484375 40.625 41.703125 44.40625 
Q 38.921875 48.1875 33.109375 48.1875 
Q 26.21875 48.1875 22.15625 43.53125 
Q 18.109375 38.875 18.109375 30.90625 
L 18.109375 0 
L 9.078125 0 
L 9.078125 54.6875 
L 18.109375 54.6875 
L 18.109375 46.1875 
Q 21.1875 51.21875 25.484375 53.609375 
Q 29.78125 56 35.6875 56 
Q 41.65625 56 45.828125 52.96875 
Q 50 49.953125 52 44.1875 
z
" id="DejaVuSans-6d"/>
      <path d="M 54.890625 33.015625 
L 54.890625 0 
L 45.90625 0 
L 45.90625 32.71875 
Q 45.90625 40.484375 42.875 44.328125 
Q 39.84375 48.1875 33.796875 48.1875 
Q 26.515625 48.1875 22.3125 43.546875 
Q 18.109375 38.921875 18.109375 30.90625 
L 18.109375 0 
L 9.078125 0 
L 9.078125 54.6875 
L 18.109375 54.6875 
L 18.109375 46.1875 
Q 21.34375 51.125 25.703125 53.5625 
Q 30.078125 56 35.796875 56 
Q 45.21875 56 50.046875 50.171875 
Q 54.890625 44.34375 54.890625 33.015625 
z
" id="DejaVuSans-6e"/>
      <path d="M 8.015625 75.875 
L 15.828125 75.875 
Q 23.140625 64.359375 26.78125 53.3125 
Q 30.421875 42.28125 30.421875 31.390625 
Q 30.421875 20.453125 26.78125 9.375 
Q 23.140625 -1.703125 15.828125 -13.1875 
L 8.015625 -13.1875 
Q 14.5 -2 17.703125 9.0625 
Q 20.90625 20.125 20.90625 31.390625 
Q 20.90625 42.671875 17.703125 53.65625 
Q 14.5 64.65625 8.015625 75.875 
z
" id="DejaVuSans-29"/>
     </defs>
     <g transform="translate(107.211219 338.153594)scale(0.17 -0.17)">
      <use xlink:href="#DejaVuSans-6c"/>
      <use x="27.783203" xlink:href="#DejaVuSans-6f"/>
      <use x="88.964844" xlink:href="#DejaVuSans-67"/>
      <use x="152.441406" xlink:href="#DejaVuSans-31"/>
      <use x="216.064453" xlink:href="#DejaVuSans-30"/>
      <use x="279.6875" xlink:href="#DejaVuSans-28"/>
      <use x="318.701172" xlink:href="#DejaVuSans-23"/>
      <use x="402.490234" xlink:href="#DejaVuSans-20"/>
      <use x="434.277344" xlink:href="#DejaVuSans-66"/>
      <use x="469.404297" xlink:href="#DejaVuSans-2d"/>
      <use x="505.488281" xlink:href="#DejaVuSans-65"/>
      <use x="567.011719" xlink:href="#DejaVuSans-76"/>
      <use x="626.191406" xlink:href="#DejaVuSans-61"/>
      <use x="687.470703" xlink:href="#DejaVuSans-6c"/>
      <use x="715.253906" xlink:href="#DejaVuSans-73"/>
      <use x="767.353516" xlink:href="#DejaVuSans-20"/>
      <use x="799.140625" xlink:href="#DejaVuSans-2f"/>
      <use x="832.832031" xlink:href="#DejaVuSans-20"/>
      <use x="864.619141" xlink:href="#DejaVuSans-64"/>
      <use x="928.095703" xlink:href="#DejaVuSans-69"/>
      <use x="955.878906" xlink:href="#DejaVuSans-6d"/>
      <use x="1053.291016" xlink:href="#DejaVuSans-65"/>
      <use x="1114.814453" xlink:href="#DejaVuSans-6e"/>
      <use x="1178.193359" xlink:href="#DejaVuSans-73"/>
      <use x="1230.292969" xlink:href="#DejaVuSans-69"/>
      <use x="1258.076172" xlink:href="#DejaVuSans-6f"/>
      <use x="1319.257812" xlink:href="#DejaVuSans-6e"/>
      <use x="1382.636719" xlink:href="#DejaVuSans-29"/>
     </g>
    </g>
   </g>
   <g id="matplotlib.axis_2">
    <g id="ytick_1">
     <g id="line2d_15">
      <path clip-path="url(#pd2d01bd5f2)" d="M 56.12 294.88 
L 399.984 294.88 
" style="fill:none;stroke:#b0b0b0;stroke-linecap:square;stroke-width:0.8;"/>
     </g>
     <g id="line2d_16">
      <defs>
       <path d="M 0 0 
L -3.5 0 
" id="ma898bd1399" style="stroke:#000000;stroke-width:0.8;"/>
      </defs>
      <g>
       <use style="stroke:#000000;stroke-width:0.8;" x="56.12" xlink:href="#ma898bd1399" y="294.88"/>
      </g>
     </g>
     <g id="text_7">
      <!-- 0.0 -->
      <defs>
       <path d="M 10.6875 12.40625 
L 21 12.40625 
L 21 0 
L 10.6875 0 
z
" id="DejaVuSans-2e"/>
      </defs>
      <g transform="translate(23.675 300.95875)scale(0.16 -0.16)">
       <use xlink:href="#DejaVuSans-30"/>
       <use x="63.623047" xlink:href="#DejaVuSans-2e"/>
       <use x="95.410156" xlink:href="#DejaVuSans-30"/>
      </g>
     </g>
    </g>
    <g id="ytick_2">
     <g id="line2d_17">
      <path clip-path="url(#pd2d01bd5f2)" d="M 56.12 237.843411 
L 399.984 237.843411 
" style="fill:none;stroke:#b0b0b0;stroke-linecap:square;stroke-width:0.8;"/>
     </g>
     <g id="line2d_18">
      <g>
       <use style="stroke:#000000;stroke-width:0.8;" x="56.12" xlink:href="#ma898bd1399" y="237.843411"/>
      </g>
     </g>
     <g id="text_8">
      <!-- 0.2 -->
      <g transform="translate(23.675 243.922161)scale(0.16 -0.16)">
       <use xlink:href="#DejaVuSans-30"/>
       <use x="63.623047" xlink:href="#DejaVuSans-2e"/>
       <use x="95.410156" xlink:href="#DejaVuSans-32"/>
      </g>
     </g>
    </g>
    <g id="ytick_3">
     <g id="line2d_19">
      <path clip-path="url(#pd2d01bd5f2)" d="M 56.12 180.806823 
L 399.984 180.806823 
" style="fill:none;stroke:#b0b0b0;stroke-linecap:square;stroke-width:0.8;"/>
     </g>
     <g id="line2d_20">
      <g>
       <use style="stroke:#000000;stroke-width:0.8;" x="56.12" xlink:href="#ma898bd1399" y="180.806823"/>
      </g>
     </g>
     <g id="text_9">
      <!-- 0.4 -->
      <g transform="translate(23.675 186.885573)scale(0.16 -0.16)">
       <use xlink:href="#DejaVuSans-30"/>
       <use x="63.623047" xlink:href="#DejaVuSans-2e"/>
       <use x="95.410156" xlink:href="#DejaVuSans-34"/>
      </g>
     </g>
    </g>
    <g id="ytick_4">
     <g id="line2d_21">
      <path clip-path="url(#pd2d01bd5f2)" d="M 56.12 123.770234 
L 399.984 123.770234 
" style="fill:none;stroke:#b0b0b0;stroke-linecap:square;stroke-width:0.8;"/>
     </g>
     <g id="line2d_22">
      <g>
       <use style="stroke:#000000;stroke-width:0.8;" x="56.12" xlink:href="#ma898bd1399" y="123.770234"/>
      </g>
     </g>
     <g id="text_10">
      <!-- 0.6 -->
      <g transform="translate(23.675 129.848984)scale(0.16 -0.16)">
       <use xlink:href="#DejaVuSans-30"/>
       <use x="63.623047" xlink:href="#DejaVuSans-2e"/>
       <use x="95.410156" xlink:href="#DejaVuSans-36"/>
      </g>
     </g>
    </g>
    <g id="ytick_5">
     <g id="line2d_23">
      <path clip-path="url(#pd2d01bd5f2)" d="M 56.12 66.733646 
L 399.984 66.733646 
" style="fill:none;stroke:#b0b0b0;stroke-linecap:square;stroke-width:0.8;"/>
     </g>
     <g id="line2d_24">
      <g>
       <use style="stroke:#000000;stroke-width:0.8;" x="56.12" xlink:href="#ma898bd1399" y="66.733646"/>
      </g>
     </g>
     <g id="text_11">
      <!-- 0.8 -->
      <g transform="translate(23.675 72.812396)scale(0.16 -0.16)">
       <use xlink:href="#DejaVuSans-30"/>
       <use x="63.623047" xlink:href="#DejaVuSans-2e"/>
       <use x="95.410156" xlink:href="#DejaVuSans-38"/>
      </g>
     </g>
    </g>
    <g id="ytick_6">
     <g id="line2d_25">
      <path clip-path="url(#pd2d01bd5f2)" d="M 56.12 9.697057 
L 399.984 9.697057 
" style="fill:none;stroke:#b0b0b0;stroke-linecap:square;stroke-width:0.8;"/>
     </g>
     <g id="line2d_26">
      <g>
       <use style="stroke:#000000;stroke-width:0.8;" x="56.12" xlink:href="#ma898bd1399" y="9.697057"/>
      </g>
     </g>
     <g id="text_12">
      <!-- 1.0 -->
      <g transform="translate(23.675 15.775807)scale(0.16 -0.16)">
       <use xlink:href="#DejaVuSans-31"/>
       <use x="63.623047" xlink:href="#DejaVuSans-2e"/>
       <use x="95.410156" xlink:href="#DejaVuSans-30"/>
      </g>
     </g>
    </g>
    <g id="text_13">
     <!-- Fraction of function,target pairs -->
     <defs>
      <path d="M 9.8125 72.90625 
L 51.703125 72.90625 
L 51.703125 64.59375 
L 19.671875 64.59375 
L 19.671875 43.109375 
L 48.578125 43.109375 
L 48.578125 34.8125 
L 19.671875 34.8125 
L 19.671875 0 
L 9.8125 0 
z
" id="DejaVuSans-46"/>
      <path d="M 41.109375 46.296875 
Q 39.59375 47.171875 37.8125 47.578125 
Q 36.03125 48 33.890625 48 
Q 26.265625 48 22.1875 43.046875 
Q 18.109375 38.09375 18.109375 28.8125 
L 18.109375 0 
L 9.078125 0 
L 9.078125 54.6875 
L 18.109375 54.6875 
L 18.109375 46.1875 
Q 20.953125 51.171875 25.484375 53.578125 
Q 30.03125 56 36.53125 56 
Q 37.453125 56 38.578125 55.875 
Q 39.703125 55.765625 41.0625 55.515625 
z
" id="DejaVuSans-72"/>
      <path d="M 48.78125 52.59375 
L 48.78125 44.1875 
Q 44.96875 46.296875 41.140625 47.34375 
Q 37.3125 48.390625 33.40625 48.390625 
Q 24.65625 48.390625 19.8125 42.84375 
Q 14.984375 37.3125 14.984375 27.296875 
Q 14.984375 17.28125 19.8125 11.734375 
Q 24.65625 6.203125 33.40625 6.203125 
Q 37.3125 6.203125 41.140625 7.25 
Q 44.96875 8.296875 48.78125 10.40625 
L 48.78125 2.09375 
Q 45.015625 0.34375 40.984375 -0.53125 
Q 36.96875 -1.421875 32.421875 -1.421875 
Q 20.0625 -1.421875 12.78125 6.34375 
Q 5.515625 14.109375 5.515625 27.296875 
Q 5.515625 40.671875 12.859375 48.328125 
Q 20.21875 56 33.015625 56 
Q 37.15625 56 41.109375 55.140625 
Q 45.0625 54.296875 48.78125 52.59375 
z
" id="DejaVuSans-63"/>
      <path d="M 18.3125 70.21875 
L 18.3125 54.6875 
L 36.8125 54.6875 
L 36.8125 47.703125 
L 18.3125 47.703125 
L 18.3125 18.015625 
Q 18.3125 11.328125 20.140625 9.421875 
Q 21.96875 7.515625 27.59375 7.515625 
L 36.8125 7.515625 
L 36.8125 0 
L 27.59375 0 
Q 17.1875 0 13.234375 3.875 
Q 9.28125 7.765625 9.28125 18.015625 
L 9.28125 47.703125 
L 2.6875 47.703125 
L 2.6875 54.6875 
L 9.28125 54.6875 
L 9.28125 70.21875 
z
" id="DejaVuSans-74"/>
      <path d="M 8.5 21.578125 
L 8.5 54.6875 
L 17.484375 54.6875 
L 17.484375 21.921875 
Q 17.484375 14.15625 20.5 10.265625 
Q 23.53125 6.390625 29.59375 6.390625 
Q 36.859375 6.390625 41.078125 11.03125 
Q 45.3125 15.671875 45.3125 23.6875 
L 45.3125 54.6875 
L 54.296875 54.6875 
L 54.296875 0 
L 45.3125 0 
L 45.3125 8.40625 
Q 42.046875 3.421875 37.71875 1 
Q 33.40625 -1.421875 27.6875 -1.421875 
Q 18.265625 -1.421875 13.375 4.4375 
Q 8.5 10.296875 8.5 21.578125 
z
M 31.109375 56 
z
" id="DejaVuSans-75"/>
      <path d="M 11.71875 12.40625 
L 22.015625 12.40625 
L 22.015625 4 
L 14.015625 -11.625 
L 7.71875 -11.625 
L 11.71875 4 
z
" id="DejaVuSans-2c"/>
      <path d="M 18.109375 8.203125 
L 18.109375 -20.796875 
L 9.078125 -20.796875 
L 9.078125 54.6875 
L 18.109375 54.6875 
L 18.109375 46.390625 
Q 20.953125 51.265625 25.265625 53.625 
Q 29.59375 56 35.59375 56 
Q 45.5625 56 51.78125 48.09375 
Q 58.015625 40.1875 58.015625 27.296875 
Q 58.015625 14.40625 51.78125 6.484375 
Q 45.5625 -1.421875 35.59375 -1.421875 
Q 29.59375 -1.421875 25.265625 0.953125 
Q 20.953125 3.328125 18.109375 8.203125 
z
M 48.6875 27.296875 
Q 48.6875 37.203125 44.609375 42.84375 
Q 40.53125 48.484375 33.40625 48.484375 
Q 26.265625 48.484375 22.1875 42.84375 
Q 18.109375 37.203125 18.109375 27.296875 
Q 18.109375 17.390625 22.1875 11.75 
Q 26.265625 6.109375 33.40625 6.109375 
Q 40.53125 6.109375 44.609375 11.75 
Q 48.6875 17.390625 48.6875 27.296875 
z
" id="DejaVuSans-70"/>
     </defs>
     <g transform="translate(16.139531 286.001989)rotate(-90)scale(0.17 -0.17)">
      <use xlink:href="#DejaVuSans-46"/>
      <use x="57.410156" xlink:href="#DejaVuSans-72"/>
      <use x="98.523438" xlink:href="#DejaVuSans-61"/>
      <use x="159.802734" xlink:href="#DejaVuSans-63"/>
      <use x="214.783203" xlink:href="#DejaVuSans-74"/>
      <use x="253.992188" xlink:href="#DejaVuSans-69"/>
      <use x="281.775391" xlink:href="#DejaVuSans-6f"/>
      <use x="342.957031" xlink:href="#DejaVuSans-6e"/>
      <use x="406.335938" xlink:href="#DejaVuSans-20"/>
      <use x="438.123047" xlink:href="#DejaVuSans-6f"/>
      <use x="499.304688" xlink:href="#DejaVuSans-66"/>
      <use x="534.509766" xlink:href="#DejaVuSans-20"/>
      <use x="566.296875" xlink:href="#DejaVuSans-66"/>
      <use x="601.501953" xlink:href="#DejaVuSans-75"/>
      <use x="664.880859" xlink:href="#DejaVuSans-6e"/>
      <use x="728.259766" xlink:href="#DejaVuSans-63"/>
      <use x="783.240234" xlink:href="#DejaVuSans-74"/>
      <use x="822.449219" xlink:href="#DejaVuSans-69"/>
      <use x="850.232422" xlink:href="#DejaVuSans-6f"/>
      <use x="911.414062" xlink:href="#DejaVuSans-6e"/>
      <use x="974.792969" xlink:href="#DejaVuSans-2c"/>
      <use x="1006.580078" xlink:href="#DejaVuSans-74"/>
      <use x="1045.789062" xlink:href="#DejaVuSans-61"/>
      <use x="1107.068359" xlink:href="#DejaVuSans-72"/>
      <use x="1148.166016" xlink:href="#DejaVuSans-67"/>
      <use x="1211.642578" xlink:href="#DejaVuSans-65"/>
      <use x="1273.166016" xlink:href="#DejaVuSans-74"/>
      <use x="1312.375" xlink:href="#DejaVuSans-20"/>
      <use x="1344.162109" xlink:href="#DejaVuSans-70"/>
      <use x="1407.638672" xlink:href="#DejaVuSans-61"/>
      <use x="1468.917969" xlink:href="#DejaVuSans-69"/>
      <use x="1496.701172" xlink:href="#DejaVuSans-72"/>
      <use x="1537.814453" xlink:href="#DejaVuSans-73"/>
     </g>
    </g>
   </g>
   <g id="line2d_27">
    <defs>
     <path d="M 0 1.5 
C 0.397805 1.5 0.77937 1.341951 1.06066 1.06066 
C 1.341951 0.77937 1.5 0.397805 1.5 0 
C 1.5 -0.397805 1.341951 -0.77937 1.06066 -1.06066 
C 0.77937 -1.341951 0.397805 -1.5 0 -1.5 
C -0.397805 -1.5 -0.77937 -1.341951 -1.06066 -1.06066 
C -1.341951 -0.77937 -1.5 -0.397805 -1.5 0 
C -1.5 0.397805 -1.341951 0.77937 -1.06066 1.06066 
C -0.77937 1.341951 -0.397805 1.5 0 1.5 
z
" id="m5befc9ee85" style="stroke:#f5deb3;"/>
    </defs>
    <g>
     <use style="fill:#f5deb3;stroke:#f5deb3;" x="218.230134" xlink:href="#m5befc9ee85" y="9.697057"/>
     <use style="fill:#f5deb3;stroke:#f5deb3;" x="218.230134" xlink:href="#m5befc9ee85" y="9.697057"/>
    </g>
   </g>
   <g id="line2d_28">
    <defs>
     <path d="M 0 1.5 
C 0.397805 1.5 0.77937 1.341951 1.06066 1.06066 
C 1.341951 0.77937 1.5 0.397805 1.5 0 
C 1.5 -0.397805 1.341951 -0.77937 1.06066 -1.06066 
C 0.77937 -1.341951 0.397805 -1.5 0 -1.5 
C -0.397805 -1.5 -0.77937 -1.341951 -1.06066 -1.06066 
C -1.341951 -0.77937 -1.5 -0.397805 -1.5 0 
C -1.5 0.397805 -1.341951 0.77937 -1.06066 1.06066 
C -0.77937 1.341951 -0.397805 1.5 0 1.5 
z
" id="mb3654a6947" style="stroke:#000080;"/>
    </defs>
    <g>
     <use style="fill:#000080;stroke:#000080;" x="160.939622" xlink:href="#mb3654a6947" y="242.456665"/>
     <use style="fill:#000080;stroke:#000080;" x="160.939622" xlink:href="#mb3654a6947" y="242.456665"/>
    </g>
   </g>
   <g id="line2d_29">
    <path d="M 44.194496 294.88 
L 44.194496 279.083102 
L 56.12 279.083102 
L 56.12 276.962869 
L 63.095973 276.962869 
L 63.095973 274.959133 
L 68.045504 274.959133 
L 68.045504 273.537878 
L 71.884659 273.537878 
L 71.884659 272.605907 
L 75.021477 272.605907 
L 75.021477 271.417645 
L 77.673619 271.417645 
L 77.673619 270.112887 
L 79.971009 270.112887 
L 79.971009 268.947924 
L 81.99745 268.947924 
L 81.99745 268.179048 
L 83.810164 268.179048 
L 83.810164 266.920888 
L 85.449963 266.920888 
L 85.449963 266.408304 
L 86.946982 266.408304 
L 86.946982 265.476334 
L 88.324106 265.476334 
L 88.324106 265.220042 
L 89.599124 265.220042 
L 89.599124 265.056947 
L 90.786137 265.056947 
L 90.786137 264.288072 
L 91.896513 264.288072 
L 91.896513 263.635692 
L 92.939552 263.635692 
L 92.939552 263.053211 
L 93.922955 263.053211 
L 93.922955 262.610525 
L 94.853174 262.610525 
L 94.853174 261.864949 
L 95.735668 261.864949 
L 95.735668 261.748452 
L 96.575096 261.748452 
L 96.575096 260.932978 
L 97.375467 260.932978 
L 97.375467 260.699986 
L 98.872486 260.606788 
L 98.872486 260.164103 
L 99.574823 260.164103 
L 99.574823 259.674818 
L 100.24961 259.674818 
L 100.24961 259.162234 
L 100.898928 259.162234 
L 100.898928 258.97584 
L 101.524628 258.97584 
L 101.524628 258.603052 
L 102.128369 258.603052 
L 102.128369 258.416658 
L 102.711641 258.416658 
L 102.711641 258.090468 
L 104.35144 257.997271 
L 104.35144 257.694381 
L 104.865056 257.694381 
L 104.865056 257.344892 
L 105.363783 257.344892 
L 105.363783 257.111899 
L 106.319855 257.111899 
L 106.319855 256.902206 
L 107.225583 256.809009 
L 107.225583 256.412922 
L 107.661173 256.412922 
L 107.661173 256.226528 
L 108.500601 256.203228 
L 108.500601 256.063433 
L 108.90544 256.063433 
L 108.90544 255.853739 
L 109.300972 255.853739 
L 109.300972 255.550849 
L 109.687614 255.550849 
L 109.687614 255.387754 
L 110.065758 255.387754 
L 110.065758 255.178061 
L 110.797991 255.084864 
L 110.797991 254.665477 
L 111.152743 254.665477 
L 111.152743 254.525682 
L 111.841029 254.455784 
L 111.841029 254.26939 
L 112.175115 254.26939 
L 112.175115 254.129594 
L 112.502836 254.129594 
L 112.502836 253.966499 
L 113.140126 253.896602 
L 113.140126 253.850003 
L 113.754651 253.826704 
L 113.754651 253.453916 
L 114.637146 253.407317 
L 114.637146 253.290821 
L 114.92153 253.290821 
L 114.92153 253.174325 
L 115.476574 253.104427 
L 115.476574 253.034529 
L 115.747522 253.034529 
L 115.747522 252.778237 
L 116.276944 252.731639 
L 116.276944 252.498646 
L 117.041731 252.498646 
L 117.041731 252.38215 
L 117.773963 252.288953 
L 117.773963 252.242354 
L 118.4763 252.149157 
L 118.4763 251.986062 
L 119.151088 251.892865 
L 119.151088 251.822967 
L 119.370261 251.822967 
L 119.370261 251.659873 
L 119.586677 251.659873 
L 119.586677 251.543376 
L 120.01151 251.496778 
L 120.01151 251.403581 
L 120.220057 251.403581 
L 120.220057 251.287084 
L 120.426105 251.287084 
L 120.426105 251.12399 
L 121.029847 251.077391 
L 121.029847 251.007493 
L 121.420883 250.914296 
L 121.420883 250.774501 
L 121.803229 250.727902 
L 121.803229 250.611406 
L 122.177263 250.541508 
L 122.177263 250.308516 
L 122.723495 250.285216 
L 122.723495 250.192019 
L 123.252917 250.122121 
L 123.252917 250.075523 
L 123.425832 250.075523 
L 123.425832 249.935727 
L 123.766534 249.84253 
L 123.766534 249.726034 
L 124.26526 249.702735 
L 124.26526 249.562939 
L 124.58989 249.493041 
L 124.58989 249.423144 
L 125.065631 249.329947 
L 125.065631 249.260049 
L 125.221332 249.260049 
L 125.221332 249.027056 
L 125.979378 248.933859 
L 125.979378 248.887261 
L 126.56265 248.794064 
L 126.56265 248.630969 
L 127.126794 248.561071 
L 127.126794 248.467874 
L 127.264987 248.467874 
L 127.264987 248.351378 
L 127.673027 248.304779 
L 127.673027 248.234881 
L 127.806917 248.234881 
L 127.806917 248.095086 
L 128.202449 248.048487 
L 128.202449 247.95529 
L 128.716065 247.885393 
L 128.716065 247.838794 
L 128.967235 247.768896 
L 128.967235 247.698998 
L 129.337247 247.698998 
L 129.337247 247.582502 
L 129.93678 247.489305 
L 129.93678 247.396108 
L 130.05422 247.396108 
L 130.05422 247.256312 
L 130.516123 247.209714 
L 130.516123 247.116517 
L 130.854591 247.02332 
L 130.854591 246.930123 
L 131.076592 246.836926 
L 131.076592 246.673831 
L 131.937015 246.580634 
L 132.041604 246.440838 
L 132.656129 246.347641 
L 132.656129 246.324342 
L 132.955351 246.254444 
L 133.053947 246.114649 
L 133.633941 246.021452 
L 133.728734 245.928255 
L 133.823007 245.928255 
L 133.823007 245.788459 
L 134.286778 245.695262 
L 134.378051 245.625364 
L 134.559157 245.555467 
L 134.648999 245.43897 
L 135.351336 245.345773 
L 135.437146 245.252576 
L 135.859892 245.182678 
L 135.943208 245.112781 
L 136.190765 245.066182 
L 136.190765 244.972985 
L 136.912753 244.903087 
L 136.912753 244.856489 
L 137.530034 244.763292 
L 137.60566 244.646795 
L 138.271738 244.600197 
L 138.271738 244.530299 
L 138.842906 244.460401 
L 138.912987 244.320606 
L 139.531193 244.227409 
L 139.531193 244.134212 
L 140.127953 244.041015 
L 140.127953 244.017715 
L 140.704707 243.924518 
L 140.704707 243.901219 
L 141.262751 243.808022 
L 141.262751 243.738124 
L 142.269864 243.668226 
L 142.327309 243.598329 
L 143.491367 243.505132 
L 143.59823 243.458533 
L 144.071065 243.365336 
L 144.071065 243.342037 
L 145.126293 243.24884 
L 145.174963 243.132343 
L 146.439563 243.039146 
L 146.439563 243.015847 
L 147.190601 242.945949 
L 147.190601 242.899351 
L 148.91664 242.806154 
L 148.91664 242.782855 
L 150.088005 242.689658 
L 150.088005 242.666358 
L 153.065801 242.573161 
L 153.065801 242.549862 
L 333.429677 242.456665 
L 333.429677 242.456665 
" style="fill:none;stroke:#000080;stroke-linecap:square;stroke-width:1.5;"/>
   </g>
   <g id="line2d_30">
    <defs>
     <path d="M 0 6 
C 1.591219 6 3.117479 5.367802 4.242641 4.242641 
C 5.367802 3.117479 6 1.591219 6 0 
C 6 -1.591219 5.367802 -3.117479 4.242641 -4.242641 
C 3.117479 -5.367802 1.591219 -6 0 -6 
C -1.591219 -6 -3.117479 -5.367802 -4.242641 -4.242641 
C -5.367802 -3.117479 -6 -1.591219 -6 0 
C -6 1.591219 -5.367802 3.117479 -4.242641 4.242641 
C -3.117479 5.367802 -1.591219 6 0 6 
z
" id="m5686c352b7" style="stroke:#000080;stroke-width:1.5;"/>
    </defs>
    <g>
     <use style="fill-opacity:0;stroke:#000080;stroke-width:1.5;" x="108.500601" xlink:href="#m5686c352b7" y="256.063433"/>
     <use style="fill-opacity:0;stroke:#000080;stroke-width:1.5;" x="160.939622" xlink:href="#m5686c352b7" y="242.479964"/>
     <use style="fill-opacity:0;stroke:#000080;stroke-width:1.5;" x="160.939622" xlink:href="#m5686c352b7" y="242.456665"/>
     <use style="fill-opacity:0;stroke:#000080;stroke-width:1.5;" x="160.939622" xlink:href="#m5686c352b7" y="242.456665"/>
     <use style="fill-opacity:0;stroke:#000080;stroke-width:1.5;" x="160.939622" xlink:href="#m5686c352b7" y="242.456665"/>
     <use style="fill-opacity:0;stroke:#000080;stroke-width:1.5;" x="333.429677" xlink:href="#m5686c352b7" y="242.456665"/>
    </g>
   </g>
   <g id="line2d_31">
    <path style="fill:none;stroke:#000080;stroke-linecap:square;stroke-width:1.5;"/>
    <g/>
   </g>
   <g id="line2d_32">
    <path clip-path="url(#pd2d01bd5f2)" d="M 81.99745 268.179048 
" style="fill:none;stroke:#000080;stroke-linecap:square;stroke-width:1.5;"/>
    <defs>
     <path d="M -12 12 
L 12 -12 
M -12 -12 
L 12 12 
" id="m00b79ba6c9" style="stroke:#000080;stroke-width:3;"/>
    </defs>
    <g clip-path="url(#pd2d01bd5f2)">
     <use style="fill:#000080;stroke:#000080;stroke-width:3;" x="81.99745" xlink:href="#m00b79ba6c9" y="268.179048"/>
    </g>
   </g>
   <g id="line2d_33">
    <defs>
     <path d="M 0 1.5 
C 0.397805 1.5 0.77937 1.341951 1.06066 1.06066 
C 1.341951 0.77937 1.5 0.397805 1.5 0 
C 1.5 -0.397805 1.341951 -0.77937 1.06066 -1.06066 
C 0.77937 -1.341951 0.397805 -1.5 0 -1.5 
C -0.397805 -1.5 -0.77937 -1.341951 -1.06066 -1.06066 
C -1.341951 -0.77937 -1.5 -0.397805 -1.5 0 
C -1.5 0.397805 -1.341951 0.77937 -1.06066 1.06066 
C -0.77937 1.341951 -0.397805 1.5 0 1.5 
z
" id="m77c04dcfc1" style="stroke:#ff00ff;"/>
    </defs>
    <g>
     <use style="fill:#ff00ff;stroke:#ff00ff;" x="159.897799" xlink:href="#m77c04dcfc1" y="245.485569"/>
     <use style="fill:#ff00ff;stroke:#ff00ff;" x="159.897799" xlink:href="#m77c04dcfc1" y="245.485569"/>
    </g>
   </g>
   <g id="line2d_34">
    <path d="M 44.194496 294.88 
L 44.194496 279.642284 
L 56.12 279.642284 
L 56.12 277.265759 
L 63.095973 277.265759 
L 63.095973 275.215425 
L 68.045504 275.215425 
L 68.045504 273.561177 
L 71.884659 273.561177 
L 71.884659 271.837032 
L 75.021477 271.837032 
L 75.021477 270.811864 
L 77.673619 270.811864 
L 77.673619 270.182784 
L 79.971009 270.182784 
L 79.971009 268.761529 
L 81.99745 268.761529 
L 81.99745 267.573267 
L 83.810164 267.573267 
L 83.810164 266.22191 
L 85.449963 266.22191 
L 85.449963 265.569531 
L 86.946982 265.569531 
L 86.946982 265.173443 
L 88.324106 265.173443 
L 88.324106 264.567663 
L 89.599124 264.567663 
L 89.599124 263.985181 
L 90.786137 263.985181 
L 90.786137 263.449298 
L 91.896513 263.449298 
L 91.896513 263.239605 
L 92.939552 263.239605 
L 92.939552 262.913415 
L 93.922955 262.913415 
L 93.922955 262.14454 
L 94.853174 262.14454 
L 94.853174 261.375664 
L 95.735668 261.375664 
L 95.735668 261.072774 
L 96.575096 261.072774 
L 96.575096 260.839781 
L 97.375467 260.839781 
L 97.375467 260.443694 
L 98.140254 260.443694 
L 98.140254 260.047606 
L 98.872486 260.047606 
L 98.872486 259.907811 
L 100.24961 259.814614 
L 100.24961 259.558322 
L 100.898928 259.558322 
L 100.898928 259.162234 
L 101.524628 259.162234 
L 101.524628 258.67295 
L 102.711641 258.579753 
L 102.711641 258.509855 
L 103.275786 258.509855 
L 103.275786 258.253563 
L 104.35144 258.160366 
L 104.35144 257.973972 
L 105.363783 257.950673 
L 105.363783 257.74098 
L 105.848459 257.74098 
L 105.848459 257.531286 
L 106.319855 257.531286 
L 106.319855 257.158498 
L 106.778678 257.158498 
L 106.778678 256.972104 
L 107.661173 256.948805 
L 107.661173 256.645914 
L 108.086006 256.645914 
L 108.086006 256.529418 
L 108.500601 256.529418 
L 108.500601 256.412922 
L 109.687614 256.319725 
L 109.687614 256.133331 
L 110.065758 256.133331 
L 110.065758 255.83044 
L 110.43577 255.83044 
L 110.43577 255.667345 
L 111.152743 255.667345 
L 111.152743 255.52755 
L 111.500328 255.52755 
L 111.500328 255.364455 
L 112.175115 255.294557 
L 112.175115 255.247959 
L 112.824432 255.178061 
L 112.824432 255.038265 
L 113.140126 255.038265 
L 113.140126 254.805273 
L 114.053874 254.735375 
L 114.053874 254.618879 
L 114.92153 254.525682 
L 114.92153 254.502382 
L 115.476574 254.432485 
L 115.476574 254.24609 
L 115.747522 254.24609 
L 115.747522 254.082996 
L 116.276944 253.989799 
L 116.276944 253.966499 
L 116.790561 253.966499 
L 116.790561 253.850003 
L 117.041731 253.850003 
L 117.041731 253.663609 
L 117.773963 253.570412 
L 117.773963 253.407317 
L 118.011276 253.407317 
L 118.011276 253.151025 
L 118.245359 253.151025 
L 118.245359 253.034529 
L 119.586677 252.941332 
L 119.586677 252.871434 
L 120.01151 252.778237 
L 120.01151 252.428748 
L 120.220057 252.428748 
L 120.220057 252.312252 
L 120.830944 252.265653 
L 120.830944 252.195756 
L 121.420883 252.125858 
L 121.420883 252.079259 
L 121.613118 252.079259 
L 121.613118 251.892865 
L 121.803229 251.892865 
L 121.803229 251.706471 
L 122.361274 251.636573 
L 122.361274 251.589975 
L 122.723495 251.543376 
L 122.723495 251.450179 
L 123.252917 251.42688 
L 123.252917 251.333683 
L 123.425832 251.333683 
L 123.425832 251.147289 
L 123.934387 251.077391 
L 123.934387 251.030793 
L 124.26526 250.937596 
L 124.26526 250.821099 
L 124.908508 250.727902 
L 124.908508 250.401713 
L 125.52857 250.308516 
L 125.52857 250.285216 
L 126.12706 250.215319 
L 126.12706 250.005625 
L 126.847034 249.935727 
L 126.847034 249.889129 
L 127.538086 249.819231 
L 127.538086 249.772633 
L 128.202449 249.679436 
L 128.202449 249.632837 
L 128.842109 249.562939 
L 128.842109 249.516341 
L 129.337247 249.423144 
L 129.337247 249.376545 
L 129.818533 249.306647 
L 129.818533 249.143553 
L 130.286722 249.050356 
L 130.286722 248.980458 
L 130.742506 248.957158 
L 130.742506 248.863961 
L 130.854591 248.863961 
L 130.854591 248.654268 
L 131.831786 248.561071 
L 131.831786 248.491173 
L 132.756449 248.397976 
L 132.856187 248.234881 
L 133.633941 248.211582 
L 133.633941 248.025188 
L 134.378051 248.001889 
L 134.468842 247.862093 
L 135.178422 247.838794 
L 135.265096 247.675699 
L 136.108641 247.582502 
L 136.108641 247.559203 
L 136.675441 247.466006 
L 136.754909 247.396108 
L 137.377778 247.34951 
L 137.454074 247.256312 
L 138.416318 247.163115 
L 138.488154 247.116517 
L 139.190491 247.02332 
L 139.190491 247.000021 
L 139.395721 246.953422 
L 139.395721 246.883524 
L 140.641569 246.813627 
L 140.641569 246.767028 
L 141.201633 246.673831 
L 141.201633 246.650532 
L 141.744038 246.557335 
L 141.744038 246.534035 
L 142.212226 246.440838 
L 142.269864 246.370941 
L 143.651414 246.277744 
L 143.704433 246.231145 
L 145.271892 246.137948 
L 145.320153 246.091349 
L 145.98196 245.998152 
L 145.98196 245.974853 
L 147.91022 245.881656 
L 147.91022 245.858357 
L 149.341473 245.76516 
L 149.341473 245.741861 
L 150.977803 245.648664 
L 150.977803 245.625364 
L 156.074128 245.532167 
L 156.074128 245.508868 
L 333.429677 245.485569 
L 333.429677 245.485569 
" style="fill:none;stroke:#ff00ff;stroke-linecap:square;stroke-width:1.5;"/>
   </g>
   <g id="line2d_35">
    <defs>
     <path d="M -0 8.485281 
L 5.091169 0 
L 0 -8.485281 
L -5.091169 -0 
z
" id="mf01dfdd8bc" style="stroke:#ff00ff;stroke-linejoin:miter;stroke-width:1.5;"/>
    </defs>
    <g>
     <use style="fill-opacity:0;stroke:#ff00ff;stroke-linejoin:miter;stroke-width:1.5;" x="129.818533" xlink:href="#mf01dfdd8bc" y="249.143553"/>
     <use style="fill-opacity:0;stroke:#ff00ff;stroke-linejoin:miter;stroke-width:1.5;" x="159.897799" xlink:href="#mf01dfdd8bc" y="245.508868"/>
     <use style="fill-opacity:0;stroke:#ff00ff;stroke-linejoin:miter;stroke-width:1.5;" x="159.897799" xlink:href="#mf01dfdd8bc" y="245.485569"/>
     <use style="fill-opacity:0;stroke:#ff00ff;stroke-linejoin:miter;stroke-width:1.5;" x="159.897799" xlink:href="#mf01dfdd8bc" y="245.485569"/>
     <use style="fill-opacity:0;stroke:#ff00ff;stroke-linejoin:miter;stroke-width:1.5;" x="333.429677" xlink:href="#mf01dfdd8bc" y="245.485569"/>
    </g>
   </g>
   <g id="line2d_36">
    <path style="fill:none;stroke:#ff00ff;stroke-linecap:square;stroke-width:1.5;"/>
    <g/>
   </g>
   <g id="line2d_37">
    <path clip-path="url(#pd2d01bd5f2)" d="M 81.99745 267.573267 
" style="fill:none;stroke:#ff00ff;stroke-linecap:square;stroke-width:1.5;"/>
    <defs>
     <path d="M -12 12 
L 12 -12 
M -12 -12 
L 12 12 
" id="m8a27791a2e" style="stroke:#ff00ff;stroke-width:3;"/>
    </defs>
    <g clip-path="url(#pd2d01bd5f2)">
     <use style="fill:#ff00ff;stroke:#ff00ff;stroke-width:3;" x="81.99745" xlink:href="#m8a27791a2e" y="267.573267"/>
    </g>
   </g>
   <g id="line2d_38">
    <path d="M 333.429677 245.485569 
L 363.933742 289.176341 
" style="fill:none;stroke:#ff00ff;stroke-linecap:square;stroke-width:1.5;"/>
    <g>
     <use style="fill-opacity:0;stroke:#ff00ff;stroke-linejoin:miter;stroke-width:1.5;" x="333.429677" xlink:href="#mf01dfdd8bc" y="245.485569"/>
     <use style="fill-opacity:0;stroke:#ff00ff;stroke-linejoin:miter;stroke-width:1.5;" x="363.933742" xlink:href="#mf01dfdd8bc" y="289.176341"/>
    </g>
   </g>
   <g id="line2d_39">
    <path d="M 333.429677 242.456665 
L 363.933742 152.288529 
" style="fill:none;stroke:#000080;stroke-linecap:square;stroke-width:1.5;"/>
    <g>
     <use style="fill-opacity:0;stroke:#000080;stroke-width:1.5;" x="333.429677" xlink:href="#m5686c352b7" y="242.456665"/>
     <use style="fill-opacity:0;stroke:#000080;stroke-width:1.5;" x="363.933742" xlink:href="#m5686c352b7" y="152.288529"/>
    </g>
   </g>
   <g id="line2d_40">
    <path d="M 333.429677 294.88 
L 333.429677 9.697057 
" style="fill:none;stroke:#000000;stroke-linecap:square;stroke-width:1.5;"/>
   </g>
   <g id="patch_3">
    <path d="M 56.12 294.88 
L 56.12 6.845228 
" style="fill:none;stroke:#000000;stroke-linecap:square;stroke-linejoin:miter;stroke-width:0.8;"/>
   </g>
   <g id="patch_4">
    <path d="M 399.984 294.88 
L 399.984 6.845228 
" style="fill:none;stroke:#000000;stroke-linecap:square;stroke-linejoin:miter;stroke-width:0.8;"/>
   </g>
   <g id="patch_5">
    <path d="M 56.12 294.88 
L 399.984 294.88 
" style="fill:none;stroke:#000000;stroke-linecap:square;stroke-linejoin:miter;stroke-width:0.8;"/>
   </g>
   <g id="patch_6">
    <path d="M 56.12 6.845228 
L 399.984 6.845228 
" style="fill:none;stroke:#000000;stroke-linecap:square;stroke-linejoin:miter;stroke-width:0.8;"/>
   </g>
   <g id="text_14">
    <!-- gsa solve -->
    <g transform="translate(369.479935 293.867279)scale(0.17 -0.17)">
     <use xlink:href="#DejaVuSans-67"/>
     <use x="63.476562" xlink:href="#DejaVuSans-73"/>
     <use x="115.576172" xlink:href="#DejaVuSans-61"/>
     <use x="176.855469" xlink:href="#DejaVuSans-20"/>
     <use x="208.642578" xlink:href="#DejaVuSans-73"/>
     <use x="260.742188" xlink:href="#DejaVuSans-6f"/>
     <use x="321.923828" xlink:href="#DejaVuSans-6c"/>
     <use x="349.707031" xlink:href="#DejaVuSans-76"/>
     <use x="408.886719" xlink:href="#DejaVuSans-65"/>
    </g>
   </g>
   <g id="text_15">
    <!-- gsa outpu -->
    <g transform="translate(369.479935 156.979466)scale(0.17 -0.17)">
     <use xlink:href="#DejaVuSans-67"/>
     <use x="63.476562" xlink:href="#DejaVuSans-73"/>
     <use x="115.576172" xlink:href="#DejaVuSans-61"/>
     <use x="176.855469" xlink:href="#DejaVuSans-20"/>
     <use x="208.642578" xlink:href="#DejaVuSans-6f"/>
     <use x="269.824219" xlink:href="#DejaVuSans-75"/>
     <use x="333.203125" xlink:href="#DejaVuSans-74"/>
     <use x="372.412109" xlink:href="#DejaVuSans-70"/>
     <use x="435.888672" xlink:href="#DejaVuSans-75"/>
    </g>
   </g>
   <g id="text_16">
    <!-- best 2009 -->
    <defs>
     <path d="M 48.6875 27.296875 
Q 48.6875 37.203125 44.609375 42.84375 
Q 40.53125 48.484375 33.40625 48.484375 
Q 26.265625 48.484375 22.1875 42.84375 
Q 18.109375 37.203125 18.109375 27.296875 
Q 18.109375 17.390625 22.1875 11.75 
Q 26.265625 6.109375 33.40625 6.109375 
Q 40.53125 6.109375 44.609375 11.75 
Q 48.6875 17.390625 48.6875 27.296875 
z
M 18.109375 46.390625 
Q 20.953125 51.265625 25.265625 53.625 
Q 29.59375 56 35.59375 56 
Q 45.5625 56 51.78125 48.09375 
Q 58.015625 40.1875 58.015625 27.296875 
Q 58.015625 14.40625 51.78125 6.484375 
Q 45.5625 -1.421875 35.59375 -1.421875 
Q 29.59375 -1.421875 25.265625 0.953125 
Q 20.953125 3.328125 18.109375 8.203125 
L 18.109375 0 
L 9.078125 0 
L 9.078125 75.984375 
L 18.109375 75.984375 
z
" id="DejaVuSans-62"/>
     <path d="M 10.984375 1.515625 
L 10.984375 10.5 
Q 14.703125 8.734375 18.5 7.8125 
Q 22.3125 6.890625 25.984375 6.890625 
Q 35.75 6.890625 40.890625 13.453125 
Q 46.046875 20.015625 46.78125 33.40625 
Q 43.953125 29.203125 39.59375 26.953125 
Q 35.25 24.703125 29.984375 24.703125 
Q 19.046875 24.703125 12.671875 31.3125 
Q 6.296875 37.9375 6.296875 49.421875 
Q 6.296875 60.640625 12.9375 67.421875 
Q 19.578125 74.21875 30.609375 74.21875 
Q 43.265625 74.21875 49.921875 64.515625 
Q 56.59375 54.828125 56.59375 36.375 
Q 56.59375 19.140625 48.40625 8.859375 
Q 40.234375 -1.421875 26.421875 -1.421875 
Q 22.703125 -1.421875 18.890625 -0.6875 
Q 15.09375 0.046875 10.984375 1.515625 
z
M 30.609375 32.421875 
Q 37.25 32.421875 41.125 36.953125 
Q 45.015625 41.5 45.015625 49.421875 
Q 45.015625 57.28125 41.125 61.84375 
Q 37.25 66.40625 30.609375 66.40625 
Q 23.96875 66.40625 20.09375 61.84375 
Q 16.21875 57.28125 16.21875 49.421875 
Q 16.21875 41.5 20.09375 36.953125 
Q 23.96875 32.421875 30.609375 32.421875 
z
" id="DejaVuSans-39"/>
    </defs>
    <g transform="translate(369.479935 20.091654)scale(0.17 -0.17)">
     <use xlink:href="#DejaVuSans-62"/>
     <use x="63.476562" xlink:href="#DejaVuSans-65"/>
     <use x="125" xlink:href="#DejaVuSans-73"/>
     <use x="177.099609" xlink:href="#DejaVuSans-74"/>
     <use x="216.308594" xlink:href="#DejaVuSans-20"/>
     <use x="248.095703" xlink:href="#DejaVuSans-32"/>
     <use x="311.71875" xlink:href="#DejaVuSans-30"/>
     <use x="375.341797" xlink:href="#DejaVuSans-30"/>
     <use x="438.964844" xlink:href="#DejaVuSans-39"/>
    </g>
   </g>
   <g id="text_17">
    <!-- bbob f1-f24, 2-D -->
    <defs>
     <path d="M 19.671875 64.796875 
L 19.671875 8.109375 
L 31.59375 8.109375 
Q 46.6875 8.109375 53.6875 14.9375 
Q 60.6875 21.78125 60.6875 36.53125 
Q 60.6875 51.171875 53.6875 57.984375 
Q 46.6875 64.796875 31.59375 64.796875 
z
M 9.8125 72.90625 
L 30.078125 72.90625 
Q 51.265625 72.90625 61.171875 64.09375 
Q 71.09375 55.28125 71.09375 36.53125 
Q 71.09375 17.671875 61.125 8.828125 
Q 51.171875 0 30.078125 0 
L 9.8125 0 
z
" id="DejaVuSans-44"/>
    </defs>
    <g transform="translate(59.55864 17.475982)scale(0.102 -0.102)">
     <use xlink:href="#DejaVuSans-62"/>
     <use x="63.476562" xlink:href="#DejaVuSans-62"/>
     <use x="126.953125" xlink:href="#DejaVuSans-6f"/>
     <use x="188.134766" xlink:href="#DejaVuSans-62"/>
     <use x="251.611328" xlink:href="#DejaVuSans-20"/>
     <use x="283.398438" xlink:href="#DejaVuSans-66"/>
     <use x="318.603516" xlink:href="#DejaVuSans-31"/>
     <use x="382.226562" xlink:href="#DejaVuSans-2d"/>
     <use x="418.310547" xlink:href="#DejaVuSans-66"/>
     <use x="453.515625" xlink:href="#DejaVuSans-32"/>
     <use x="517.138672" xlink:href="#DejaVuSans-34"/>
     <use x="580.761719" xlink:href="#DejaVuSans-2c"/>
     <use x="612.548828" xlink:href="#DejaVuSans-20"/>
     <use x="644.335938" xlink:href="#DejaVuSans-32"/>
     <use x="707.958984" xlink:href="#DejaVuSans-2d"/>
     <use x="744.042969" xlink:href="#DejaVuSans-44"/>
    </g>
    <!-- 51 targets: 100..1e-08 -->
    <defs>
     <path d="M 10.796875 72.90625 
L 49.515625 72.90625 
L 49.515625 64.59375 
L 19.828125 64.59375 
L 19.828125 46.734375 
Q 21.96875 47.46875 24.109375 47.828125 
Q 26.265625 48.1875 28.421875 48.1875 
Q 40.625 48.1875 47.75 41.5 
Q 54.890625 34.8125 54.890625 23.390625 
Q 54.890625 11.625 47.5625 5.09375 
Q 40.234375 -1.421875 26.90625 -1.421875 
Q 22.3125 -1.421875 17.546875 -0.640625 
Q 12.796875 0.140625 7.71875 1.703125 
L 7.71875 11.625 
Q 12.109375 9.234375 16.796875 8.0625 
Q 21.484375 6.890625 26.703125 6.890625 
Q 35.15625 6.890625 40.078125 11.328125 
Q 45.015625 15.765625 45.015625 23.390625 
Q 45.015625 31 40.078125 35.4375 
Q 35.15625 39.890625 26.703125 39.890625 
Q 22.75 39.890625 18.8125 39.015625 
Q 14.890625 38.140625 10.796875 36.28125 
z
" id="DejaVuSans-35"/>
     <path d="M 11.71875 12.40625 
L 22.015625 12.40625 
L 22.015625 0 
L 11.71875 0 
z
M 11.71875 51.703125 
L 22.015625 51.703125 
L 22.015625 39.3125 
L 11.71875 39.3125 
z
" id="DejaVuSans-3a"/>
    </defs>
    <g transform="translate(59.55864 28.89775)scale(0.102 -0.102)">
     <use xlink:href="#DejaVuSans-35"/>
     <use x="63.623047" xlink:href="#DejaVuSans-31"/>
     <use x="127.246094" xlink:href="#DejaVuSans-20"/>
     <use x="159.033203" xlink:href="#DejaVuSans-74"/>
     <use x="198.242188" xlink:href="#DejaVuSans-61"/>
     <use x="259.521484" xlink:href="#DejaVuSans-72"/>
     <use x="300.619141" xlink:href="#DejaVuSans-67"/>
     <use x="364.095703" xlink:href="#DejaVuSans-65"/>
     <use x="425.619141" xlink:href="#DejaVuSans-74"/>
     <use x="464.828125" xlink:href="#DejaVuSans-73"/>
     <use x="516.927734" xlink:href="#DejaVuSans-3a"/>
     <use x="550.619141" xlink:href="#DejaVuSans-20"/>
     <use x="582.40625" xlink:href="#DejaVuSans-31"/>
     <use x="646.029297" xlink:href="#DejaVuSans-30"/>
     <use x="709.652344" xlink:href="#DejaVuSans-30"/>
     <use x="773.275391" xlink:href="#DejaVuSans-2e"/>
     <use x="805.0625" xlink:href="#DejaVuSans-2e"/>
     <use x="836.849609" xlink:href="#DejaVuSans-31"/>
     <use x="900.472656" xlink:href="#DejaVuSans-65"/>
     <use x="961.996094" xlink:href="#DejaVuSans-2d"/>
     <use x="998.080078" xlink:href="#DejaVuSans-30"/>
     <use x="1061.703125" xlink:href="#DejaVuSans-38"/>
    </g>
    <!-- 15 instances -->
    <g transform="translate(59.55864 40.319519)scale(0.102 -0.102)">
     <use xlink:href="#DejaVuSans-31"/>
     <use x="63.623047" xlink:href="#DejaVuSans-35"/>
     <use x="127.246094" xlink:href="#DejaVuSans-20"/>
     <use x="159.033203" xlink:href="#DejaVuSans-69"/>
     <use x="186.816406" xlink:href="#DejaVuSans-6e"/>
     <use x="250.195312" xlink:href="#DejaVuSans-73"/>
     <use x="302.294922" xlink:href="#DejaVuSans-74"/>
     <use x="341.503906" xlink:href="#DejaVuSans-61"/>
     <use x="402.783203" xlink:href="#DejaVuSans-6e"/>
     <use x="466.162109" xlink:href="#DejaVuSans-63"/>
     <use x="521.142578" xlink:href="#DejaVuSans-65"/>
     <use x="582.666016" xlink:href="#DejaVuSans-73"/>
    </g>
   </g>
   <g id="text_18">
    <!-- v-coco-version -->
    <g style="fill:#808080;" transform="translate(191.556688 289.919965)scale(0.1 -0.1)">
     <use xlink:href="#DejaVuSans-76"/>
     <use x="59.148438" xlink:href="#DejaVuSans-2d"/>
     <use x="95.232422" xlink:href="#DejaVuSans-63"/>
     <use x="150.212891" xlink:href="#DejaVuSans-6f"/>
     <use x="211.394531" xlink:href="#DejaVuSans-63"/>
     <use x="266.375" xlink:href="#DejaVuSans-6f"/>
     <use x="327.572266" xlink:href="#DejaVuSans-2d"/>
     <use x="363.625" xlink:href="#DejaVuSans-76"/>
     <use x="422.804688" xlink:href="#DejaVuSans-65"/>
     <use x="484.328125" xlink:href="#DejaVuSans-72"/>
     <use x="525.441406" xlink:href="#DejaVuSans-73"/>
     <use x="577.541016" xlink:href="#DejaVuSans-69"/>
     <use x="605.324219" xlink:href="#DejaVuSans-6f"/>
     <use x="666.505859" xlink:href="#DejaVuSans-6e"/>
    </g>
   </g>
  </g>
 </g>
 <defs>
  <clipPath id="pd2d01bd5f2">
   <rect height="288.034772" width="343.864" x="56.12" y="6.845228"/>
  </clipPath>
 </defs>
</svg>
