<?xml version="1.0" encoding="utf-8" standalone="no"?>
<!DOCTYPE svg PUBLIC "-//W3C//DTD SVG 1.1//EN"
  "http://www.w3.org/Graphics/SVG/1.1/DTD/svg11.dtd">
<!-- Created with matplotlib (http://matplotlib.org/) -->
<svg height="345.6pt" version="1.1" viewBox="0 0 460.8 345.6" width="460.8pt" xmlns="http://www.w3.org/2000/svg" xmlns:xlink="http://www.w3.org/1999/xlink">
 <defs>
  <style type="text/css">
*{stroke-linecap:butt;stroke-linejoin:round;}
  </style>
 </defs>
 <g id="figure_1">
  <g id="patch_1">
   <path d="M 0 345.6 
L 460.8 345.6 
L 460.8 0 
L 0 0 
z
" style="fill:#ffffff;"/>
  </g>
  <g id="axes_1">
   <g id="patch_2">
    <path d="M 56.12 294.88 
L 399.984 294.88 
L 399.984 24.84 
L 56.12 24.84 
z
" style="fill:#ffffff;"/>
   </g>
   <g id="line2d_1">
    <path d="M 95.388083 294.88 
L 95.388083 289.637523 
L 101.401295 289.637523 
L 101.401295 284.395046 
L 132.635994 284.395046 
L 132.635994 279.152568 
L 141.636916 279.152568 
L 141.636916 273.910091 
L 145.067707 273.910091 
L 145.067707 268.667614 
L 149.180499 268.667614 
L 149.180499 263.425137 
L 152.086012 263.425137 
L 152.086012 258.18266 
L 154.789186 258.18266 
L 154.789186 252.940182 
L 157.46117 252.940182 
L 157.46117 247.697705 
L 157.465928 247.697705 
L 157.465928 242.455228 
L 157.513443 242.455228 
L 157.513443 237.212751 
L 157.645788 237.212751 
L 157.645788 231.970274 
L 157.655203 231.970274 
L 157.655203 226.727797 
L 157.664612 226.727797 
L 157.664612 221.485319 
L 157.674016 221.485319 
L 157.674016 211.000365 
L 157.688113 211.000365 
L 157.688113 205.757888 
L 157.749065 205.757888 
L 157.749065 200.515411 
L 157.805137 200.515411 
L 157.805137 195.272933 
L 157.828447 195.272933 
L 157.828447 190.030456 
L 157.837762 190.030456 
L 157.837762 184.787979 
L 157.870325 184.787979 
L 157.870325 174.303025 
L 157.874972 174.303025 
L 157.874972 169.060547 
L 157.893546 169.060547 
L 157.893546 158.575593 
L 158.018404 158.575593 
L 158.018404 142.848162 
L 158.023011 142.848162 
L 158.023011 127.12073 
L 158.032221 127.12073 
L 158.032221 116.635776 
L 158.036825 116.635776 
L 158.036825 111.393298 
L 158.064419 111.393298 
L 158.064419 106.150821 
L 158.124054 106.150821 
L 158.124054 100.908344 
L 158.128633 100.908344 
L 158.128633 95.665867 
L 158.174354 95.665867 
L 158.174354 90.42339 
L 158.188047 90.42339 
L 158.188047 79.938435 
L 158.19717 79.938435 
L 158.19717 74.695958 
L 158.201729 74.695958 
L 158.201729 69.453481 
L 193.145822 69.453481 
L 193.145822 58.968526 
L 193.14642 58.968526 
L 193.14642 53.726049 
L 193.147018 53.726049 
L 193.147018 43.241095 
L 193.147616 43.241095 
L 193.147616 37.998618 
L 193.148214 37.998618 
L 193.148214 27.513663 
L 333.429677 27.513663 
" style="fill:none;stroke:#f5deb3;stroke-linecap:square;stroke-width:6;"/>
   </g>
   <g id="line2d_2">
    <defs>
     <path d="M -0 7.778175 
L 7.778175 0 
L 0 -7.778175 
L -7.778175 -0 
z
" id="m198be43629" style="stroke:#f5deb3;stroke-linejoin:miter;stroke-width:1.5;"/>
    </defs>
    <g>
     <use style="fill:#f5deb3;stroke:#f5deb3;stroke-linejoin:miter;stroke-width:1.5;" x="157.874972" xlink:href="#m198be43629" y="169.060547"/>
     <use style="fill:#f5deb3;stroke:#f5deb3;stroke-linejoin:miter;stroke-width:1.5;" x="193.145822" xlink:href="#m198be43629" y="58.968526"/>
     <use style="fill:#f5deb3;stroke:#f5deb3;stroke-linejoin:miter;stroke-width:1.5;" x="193.148214" xlink:href="#m198be43629" y="27.513663"/>
     <use style="fill:#f5deb3;stroke:#f5deb3;stroke-linejoin:miter;stroke-width:1.5;" x="193.148214" xlink:href="#m198be43629" y="27.513663"/>
     <use style="fill:#f5deb3;stroke:#f5deb3;stroke-linejoin:miter;stroke-width:1.5;" x="333.429677" xlink:href="#m198be43629" y="27.513663"/>
    </g>
   </g>
   <g id="line2d_3">
    <path style="fill:none;stroke:#f5deb3;stroke-linecap:square;stroke-width:6;"/>
    <g/>
   </g>
   <g id="line2d_4">
    <path d="M 333.429677 27.513663 
L 363.933742 32.86099 
" style="fill:none;stroke:#f5deb3;stroke-linecap:square;stroke-width:6;"/>
    <g>
     <use style="fill:#f5deb3;stroke:#f5deb3;stroke-linejoin:miter;stroke-width:1.5;" x="333.429677" xlink:href="#m198be43629" y="27.513663"/>
     <use style="fill:#f5deb3;stroke:#f5deb3;stroke-linejoin:miter;stroke-width:1.5;" x="363.933742" xlink:href="#m198be43629" y="32.86099"/>
    </g>
   </g>
   <g id="matplotlib.axis_1">
    <g id="xtick_1">
     <g id="line2d_5">
      <path clip-path="url(#pdd3ea25af7)" d="M 56.12 294.88 
L 56.12 24.84 
" style="fill:none;stroke:#b0b0b0;stroke-linecap:square;stroke-width:0.8;"/>
     </g>
     <g id="line2d_6">
      <defs>
       <path d="M 0 0 
L 0 3.5 
" id="md4d4812056" style="stroke:#000000;stroke-width:0.8;"/>
      </defs>
      <g>
       <use style="stroke:#000000;stroke-width:0.8;" x="56.12" xlink:href="#md4d4812056" y="294.88"/>
      </g>
     </g>
     <g id="text_1">
      <!-- 0 -->
      <defs>
       <path d="M 31.78125 66.40625 
Q 24.171875 66.40625 20.328125 58.90625 
Q 16.5 51.421875 16.5 36.375 
Q 16.5 21.390625 20.328125 13.890625 
Q 24.171875 6.390625 31.78125 6.390625 
Q 39.453125 6.390625 43.28125 13.890625 
Q 47.125 21.390625 47.125 36.375 
Q 47.125 51.421875 43.28125 58.90625 
Q 39.453125 66.40625 31.78125 66.40625 
z
M 31.78125 74.21875 
Q 44.046875 74.21875 50.515625 64.515625 
Q 56.984375 54.828125 56.984375 36.375 
Q 56.984375 17.96875 50.515625 8.265625 
Q 44.046875 -1.421875 31.78125 -1.421875 
Q 19.53125 -1.421875 13.0625 8.265625 
Q 6.59375 17.96875 6.59375 36.375 
Q 6.59375 54.828125 13.0625 64.515625 
Q 19.53125 74.21875 31.78125 74.21875 
z
" id="DejaVuSans-30"/>
      </defs>
      <g transform="translate(49.7575 317.076875)scale(0.2 -0.2)">
       <use xlink:href="#DejaVuSans-30"/>
      </g>
     </g>
    </g>
    <g id="xtick_2">
     <g id="line2d_7">
      <path clip-path="url(#pdd3ea25af7)" d="M 135.351336 294.88 
L 135.351336 24.84 
" style="fill:none;stroke:#b0b0b0;stroke-linecap:square;stroke-width:0.8;"/>
     </g>
     <g id="line2d_8">
      <g>
       <use style="stroke:#000000;stroke-width:0.8;" x="135.351336" xlink:href="#md4d4812056" y="294.88"/>
      </g>
     </g>
     <g id="text_2">
      <!-- 2 -->
      <defs>
       <path d="M 19.1875 8.296875 
L 53.609375 8.296875 
L 53.609375 0 
L 7.328125 0 
L 7.328125 8.296875 
Q 12.9375 14.109375 22.625 23.890625 
Q 32.328125 33.6875 34.8125 36.53125 
Q 39.546875 41.84375 41.421875 45.53125 
Q 43.3125 49.21875 43.3125 52.78125 
Q 43.3125 58.59375 39.234375 62.25 
Q 35.15625 65.921875 28.609375 65.921875 
Q 23.96875 65.921875 18.8125 64.3125 
Q 13.671875 62.703125 7.8125 59.421875 
L 7.8125 69.390625 
Q 13.765625 71.78125 18.9375 73 
Q 24.125 74.21875 28.421875 74.21875 
Q 39.75 74.21875 46.484375 68.546875 
Q 53.21875 62.890625 53.21875 53.421875 
Q 53.21875 48.921875 51.53125 44.890625 
Q 49.859375 40.875 45.40625 35.40625 
Q 44.1875 33.984375 37.640625 27.21875 
Q 31.109375 20.453125 19.1875 8.296875 
z
" id="DejaVuSans-32"/>
      </defs>
      <g transform="translate(128.988836 317.076875)scale(0.2 -0.2)">
       <use xlink:href="#DejaVuSans-32"/>
      </g>
     </g>
    </g>
    <g id="xtick_3">
     <g id="line2d_9">
      <path clip-path="url(#pdd3ea25af7)" d="M 214.582673 294.88 
L 214.582673 24.84 
" style="fill:none;stroke:#b0b0b0;stroke-linecap:square;stroke-width:0.8;"/>
     </g>
     <g id="line2d_10">
      <g>
       <use style="stroke:#000000;stroke-width:0.8;" x="214.582673" xlink:href="#md4d4812056" y="294.88"/>
      </g>
     </g>
     <g id="text_3">
      <!-- 4 -->
      <defs>
       <path d="M 37.796875 64.3125 
L 12.890625 25.390625 
L 37.796875 25.390625 
z
M 35.203125 72.90625 
L 47.609375 72.90625 
L 47.609375 25.390625 
L 58.015625 25.390625 
L 58.015625 17.1875 
L 47.609375 17.1875 
L 47.609375 0 
L 37.796875 0 
L 37.796875 17.1875 
L 4.890625 17.1875 
L 4.890625 26.703125 
z
" id="DejaVuSans-34"/>
      </defs>
      <g transform="translate(208.220173 317.076875)scale(0.2 -0.2)">
       <use xlink:href="#DejaVuSans-34"/>
      </g>
     </g>
    </g>
    <g id="xtick_4">
     <g id="line2d_11">
      <path clip-path="url(#pdd3ea25af7)" d="M 293.814009 294.88 
L 293.814009 24.84 
" style="fill:none;stroke:#b0b0b0;stroke-linecap:square;stroke-width:0.8;"/>
     </g>
     <g id="line2d_12">
      <g>
       <use style="stroke:#000000;stroke-width:0.8;" x="293.814009" xlink:href="#md4d4812056" y="294.88"/>
      </g>
     </g>
     <g id="text_4">
      <!-- 6 -->
      <defs>
       <path d="M 33.015625 40.375 
Q 26.375 40.375 22.484375 35.828125 
Q 18.609375 31.296875 18.609375 23.390625 
Q 18.609375 15.53125 22.484375 10.953125 
Q 26.375 6.390625 33.015625 6.390625 
Q 39.65625 6.390625 43.53125 10.953125 
Q 47.40625 15.53125 47.40625 23.390625 
Q 47.40625 31.296875 43.53125 35.828125 
Q 39.65625 40.375 33.015625 40.375 
z
M 52.59375 71.296875 
L 52.59375 62.3125 
Q 48.875 64.0625 45.09375 64.984375 
Q 41.3125 65.921875 37.59375 65.921875 
Q 27.828125 65.921875 22.671875 59.328125 
Q 17.53125 52.734375 16.796875 39.40625 
Q 19.671875 43.65625 24.015625 45.921875 
Q 28.375 48.1875 33.59375 48.1875 
Q 44.578125 48.1875 50.953125 41.515625 
Q 57.328125 34.859375 57.328125 23.390625 
Q 57.328125 12.15625 50.6875 5.359375 
Q 44.046875 -1.421875 33.015625 -1.421875 
Q 20.359375 -1.421875 13.671875 8.265625 
Q 6.984375 17.96875 6.984375 36.375 
Q 6.984375 53.65625 15.1875 63.9375 
Q 23.390625 74.21875 37.203125 74.21875 
Q 40.921875 74.21875 44.703125 73.484375 
Q 48.484375 72.75 52.59375 71.296875 
z
" id="DejaVuSans-36"/>
      </defs>
      <g transform="translate(287.451509 317.076875)scale(0.2 -0.2)">
       <use xlink:href="#DejaVuSans-36"/>
      </g>
     </g>
    </g>
    <g id="xtick_5">
     <g id="line2d_13">
      <path clip-path="url(#pdd3ea25af7)" d="M 373.045346 294.88 
L 373.045346 24.84 
" style="fill:none;stroke:#b0b0b0;stroke-linecap:square;stroke-width:0.8;"/>
     </g>
     <g id="line2d_14">
      <g>
       <use style="stroke:#000000;stroke-width:0.8;" x="373.045346" xlink:href="#md4d4812056" y="294.88"/>
      </g>
     </g>
     <g id="text_5">
      <!-- 8 -->
      <defs>
       <path d="M 31.78125 34.625 
Q 24.75 34.625 20.71875 30.859375 
Q 16.703125 27.09375 16.703125 20.515625 
Q 16.703125 13.921875 20.71875 10.15625 
Q 24.75 6.390625 31.78125 6.390625 
Q 38.8125 6.390625 42.859375 10.171875 
Q 46.921875 13.96875 46.921875 20.515625 
Q 46.921875 27.09375 42.890625 30.859375 
Q 38.875 34.625 31.78125 34.625 
z
M 21.921875 38.8125 
Q 15.578125 40.375 12.03125 44.71875 
Q 8.5 49.078125 8.5 55.328125 
Q 8.5 64.0625 14.71875 69.140625 
Q 20.953125 74.21875 31.78125 74.21875 
Q 42.671875 74.21875 48.875 69.140625 
Q 55.078125 64.0625 55.078125 55.328125 
Q 55.078125 49.078125 51.53125 44.71875 
Q 48 40.375 41.703125 38.8125 
Q 48.828125 37.15625 52.796875 32.3125 
Q 56.78125 27.484375 56.78125 20.515625 
Q 56.78125 9.90625 50.3125 4.234375 
Q 43.84375 -1.421875 31.78125 -1.421875 
Q 19.734375 -1.421875 13.25 4.234375 
Q 6.78125 9.90625 6.78125 20.515625 
Q 6.78125 27.484375 10.78125 32.3125 
Q 14.796875 37.15625 21.921875 38.8125 
z
M 18.3125 54.390625 
Q 18.3125 48.734375 21.84375 45.5625 
Q 25.390625 42.390625 31.78125 42.390625 
Q 38.140625 42.390625 41.71875 45.5625 
Q 45.3125 48.734375 45.3125 54.390625 
Q 45.3125 60.0625 41.71875 63.234375 
Q 38.140625 66.40625 31.78125 66.40625 
Q 25.390625 66.40625 21.84375 63.234375 
Q 18.3125 60.0625 18.3125 54.390625 
z
" id="DejaVuSans-38"/>
      </defs>
      <g transform="translate(366.682846 317.076875)scale(0.2 -0.2)">
       <use xlink:href="#DejaVuSans-38"/>
      </g>
     </g>
    </g>
    <g id="text_6">
     <!-- log10(# f-evals / dimension) -->
     <defs>
      <path d="M 9.421875 75.984375 
L 18.40625 75.984375 
L 18.40625 0 
L 9.421875 0 
z
" id="DejaVuSans-6c"/>
      <path d="M 30.609375 48.390625 
Q 23.390625 48.390625 19.1875 42.75 
Q 14.984375 37.109375 14.984375 27.296875 
Q 14.984375 17.484375 19.15625 11.84375 
Q 23.34375 6.203125 30.609375 6.203125 
Q 37.796875 6.203125 41.984375 11.859375 
Q 46.1875 17.53125 46.1875 27.296875 
Q 46.1875 37.015625 41.984375 42.703125 
Q 37.796875 48.390625 30.609375 48.390625 
z
M 30.609375 56 
Q 42.328125 56 49.015625 48.375 
Q 55.71875 40.765625 55.71875 27.296875 
Q 55.71875 13.875 49.015625 6.21875 
Q 42.328125 -1.421875 30.609375 -1.421875 
Q 18.84375 -1.421875 12.171875 6.21875 
Q 5.515625 13.875 5.515625 27.296875 
Q 5.515625 40.765625 12.171875 48.375 
Q 18.84375 56 30.609375 56 
z
" id="DejaVuSans-6f"/>
      <path d="M 45.40625 27.984375 
Q 45.40625 37.75 41.375 43.109375 
Q 37.359375 48.484375 30.078125 48.484375 
Q 22.859375 48.484375 18.828125 43.109375 
Q 14.796875 37.75 14.796875 27.984375 
Q 14.796875 18.265625 18.828125 12.890625 
Q 22.859375 7.515625 30.078125 7.515625 
Q 37.359375 7.515625 41.375 12.890625 
Q 45.40625 18.265625 45.40625 27.984375 
z
M 54.390625 6.78125 
Q 54.390625 -7.171875 48.1875 -13.984375 
Q 42 -20.796875 29.203125 -20.796875 
Q 24.46875 -20.796875 20.265625 -20.09375 
Q 16.0625 -19.390625 12.109375 -17.921875 
L 12.109375 -9.1875 
Q 16.0625 -11.328125 19.921875 -12.34375 
Q 23.78125 -13.375 27.78125 -13.375 
Q 36.625 -13.375 41.015625 -8.765625 
Q 45.40625 -4.15625 45.40625 5.171875 
L 45.40625 9.625 
Q 42.625 4.78125 38.28125 2.390625 
Q 33.9375 0 27.875 0 
Q 17.828125 0 11.671875 7.65625 
Q 5.515625 15.328125 5.515625 27.984375 
Q 5.515625 40.671875 11.671875 48.328125 
Q 17.828125 56 27.875 56 
Q 33.9375 56 38.28125 53.609375 
Q 42.625 51.21875 45.40625 46.390625 
L 45.40625 54.6875 
L 54.390625 54.6875 
z
" id="DejaVuSans-67"/>
      <path d="M 12.40625 8.296875 
L 28.515625 8.296875 
L 28.515625 63.921875 
L 10.984375 60.40625 
L 10.984375 69.390625 
L 28.421875 72.90625 
L 38.28125 72.90625 
L 38.28125 8.296875 
L 54.390625 8.296875 
L 54.390625 0 
L 12.40625 0 
z
" id="DejaVuSans-31"/>
      <path d="M 31 75.875 
Q 24.46875 64.65625 21.28125 53.65625 
Q 18.109375 42.671875 18.109375 31.390625 
Q 18.109375 20.125 21.3125 9.0625 
Q 24.515625 -2 31 -13.1875 
L 23.1875 -13.1875 
Q 15.875 -1.703125 12.234375 9.375 
Q 8.59375 20.453125 8.59375 31.390625 
Q 8.59375 42.28125 12.203125 53.3125 
Q 15.828125 64.359375 23.1875 75.875 
z
" id="DejaVuSans-28"/>
      <path d="M 51.125 44 
L 36.921875 44 
L 32.8125 27.6875 
L 47.125 27.6875 
z
M 43.796875 71.78125 
L 38.71875 51.515625 
L 52.984375 51.515625 
L 58.109375 71.78125 
L 65.921875 71.78125 
L 60.890625 51.515625 
L 76.125 51.515625 
L 76.125 44 
L 58.984375 44 
L 54.984375 27.6875 
L 70.515625 27.6875 
L 70.515625 20.21875 
L 53.078125 20.21875 
L 48 0 
L 40.1875 0 
L 45.21875 20.21875 
L 30.90625 20.21875 
L 25.875 0 
L 18.015625 0 
L 23.09375 20.21875 
L 7.71875 20.21875 
L 7.71875 27.6875 
L 24.90625 27.6875 
L 29 44 
L 13.28125 44 
L 13.28125 51.515625 
L 30.90625 51.515625 
L 35.890625 71.78125 
z
" id="DejaVuSans-23"/>
      <path id="DejaVuSans-20"/>
      <path d="M 37.109375 75.984375 
L 37.109375 68.5 
L 28.515625 68.5 
Q 23.6875 68.5 21.796875 66.546875 
Q 19.921875 64.59375 19.921875 59.515625 
L 19.921875 54.6875 
L 34.71875 54.6875 
L 34.71875 47.703125 
L 19.921875 47.703125 
L 19.921875 0 
L 10.890625 0 
L 10.890625 47.703125 
L 2.296875 47.703125 
L 2.296875 54.6875 
L 10.890625 54.6875 
L 10.890625 58.5 
Q 10.890625 67.625 15.140625 71.796875 
Q 19.390625 75.984375 28.609375 75.984375 
z
" id="DejaVuSans-66"/>
      <path d="M 4.890625 31.390625 
L 31.203125 31.390625 
L 31.203125 23.390625 
L 4.890625 23.390625 
z
" id="DejaVuSans-2d"/>
      <path d="M 56.203125 29.59375 
L 56.203125 25.203125 
L 14.890625 25.203125 
Q 15.484375 15.921875 20.484375 11.0625 
Q 25.484375 6.203125 34.421875 6.203125 
Q 39.59375 6.203125 44.453125 7.46875 
Q 49.3125 8.734375 54.109375 11.28125 
L 54.109375 2.78125 
Q 49.265625 0.734375 44.1875 -0.34375 
Q 39.109375 -1.421875 33.890625 -1.421875 
Q 20.796875 -1.421875 13.15625 6.1875 
Q 5.515625 13.8125 5.515625 26.8125 
Q 5.515625 40.234375 12.765625 48.109375 
Q 20.015625 56 32.328125 56 
Q 43.359375 56 49.78125 48.890625 
Q 56.203125 41.796875 56.203125 29.59375 
z
M 47.21875 32.234375 
Q 47.125 39.59375 43.09375 43.984375 
Q 39.0625 48.390625 32.421875 48.390625 
Q 24.90625 48.390625 20.390625 44.140625 
Q 15.875 39.890625 15.1875 32.171875 
z
" id="DejaVuSans-65"/>
      <path d="M 2.984375 54.6875 
L 12.5 54.6875 
L 29.59375 8.796875 
L 46.6875 54.6875 
L 56.203125 54.6875 
L 35.6875 0 
L 23.484375 0 
z
" id="DejaVuSans-76"/>
      <path d="M 34.28125 27.484375 
Q 23.390625 27.484375 19.1875 25 
Q 14.984375 22.515625 14.984375 16.5 
Q 14.984375 11.71875 18.140625 8.90625 
Q 21.296875 6.109375 26.703125 6.109375 
Q 34.1875 6.109375 38.703125 11.40625 
Q 43.21875 16.703125 43.21875 25.484375 
L 43.21875 27.484375 
z
M 52.203125 31.203125 
L 52.203125 0 
L 43.21875 0 
L 43.21875 8.296875 
Q 40.140625 3.328125 35.546875 0.953125 
Q 30.953125 -1.421875 24.3125 -1.421875 
Q 15.921875 -1.421875 10.953125 3.296875 
Q 6 8.015625 6 15.921875 
Q 6 25.140625 12.171875 29.828125 
Q 18.359375 34.515625 30.609375 34.515625 
L 43.21875 34.515625 
L 43.21875 35.40625 
Q 43.21875 41.609375 39.140625 45 
Q 35.0625 48.390625 27.6875 48.390625 
Q 23 48.390625 18.546875 47.265625 
Q 14.109375 46.140625 10.015625 43.890625 
L 10.015625 52.203125 
Q 14.9375 54.109375 19.578125 55.046875 
Q 24.21875 56 28.609375 56 
Q 40.484375 56 46.34375 49.84375 
Q 52.203125 43.703125 52.203125 31.203125 
z
" id="DejaVuSans-61"/>
      <path d="M 44.28125 53.078125 
L 44.28125 44.578125 
Q 40.484375 46.53125 36.375 47.5 
Q 32.28125 48.484375 27.875 48.484375 
Q 21.1875 48.484375 17.84375 46.4375 
Q 14.5 44.390625 14.5 40.28125 
Q 14.5 37.15625 16.890625 35.375 
Q 19.28125 33.59375 26.515625 31.984375 
L 29.59375 31.296875 
Q 39.15625 29.25 43.1875 25.515625 
Q 47.21875 21.78125 47.21875 15.09375 
Q 47.21875 7.46875 41.1875 3.015625 
Q 35.15625 -1.421875 24.609375 -1.421875 
Q 20.21875 -1.421875 15.453125 -0.5625 
Q 10.6875 0.296875 5.421875 2 
L 5.421875 11.28125 
Q 10.40625 8.6875 15.234375 7.390625 
Q 20.0625 6.109375 24.8125 6.109375 
Q 31.15625 6.109375 34.5625 8.28125 
Q 37.984375 10.453125 37.984375 14.40625 
Q 37.984375 18.0625 35.515625 20.015625 
Q 33.0625 21.96875 24.703125 23.78125 
L 21.578125 24.515625 
Q 13.234375 26.265625 9.515625 29.90625 
Q 5.8125 33.546875 5.8125 39.890625 
Q 5.8125 47.609375 11.28125 51.796875 
Q 16.75 56 26.8125 56 
Q 31.78125 56 36.171875 55.265625 
Q 40.578125 54.546875 44.28125 53.078125 
z
" id="DejaVuSans-73"/>
      <path d="M 25.390625 72.90625 
L 33.6875 72.90625 
L 8.296875 -9.28125 
L 0 -9.28125 
z
" id="DejaVuSans-2f"/>
      <path d="M 45.40625 46.390625 
L 45.40625 75.984375 
L 54.390625 75.984375 
L 54.390625 0 
L 45.40625 0 
L 45.40625 8.203125 
Q 42.578125 3.328125 38.25 0.953125 
Q 33.9375 -1.421875 27.875 -1.421875 
Q 17.96875 -1.421875 11.734375 6.484375 
Q 5.515625 14.40625 5.515625 27.296875 
Q 5.515625 40.1875 11.734375 48.09375 
Q 17.96875 56 27.875 56 
Q 33.9375 56 38.25 53.625 
Q 42.578125 51.265625 45.40625 46.390625 
z
M 14.796875 27.296875 
Q 14.796875 17.390625 18.875 11.75 
Q 22.953125 6.109375 30.078125 6.109375 
Q 37.203125 6.109375 41.296875 11.75 
Q 45.40625 17.390625 45.40625 27.296875 
Q 45.40625 37.203125 41.296875 42.84375 
Q 37.203125 48.484375 30.078125 48.484375 
Q 22.953125 48.484375 18.875 42.84375 
Q 14.796875 37.203125 14.796875 27.296875 
z
" id="DejaVuSans-64"/>
      <path d="M 9.421875 54.6875 
L 18.40625 54.6875 
L 18.40625 0 
L 9.421875 0 
z
M 9.421875 75.984375 
L 18.40625 75.984375 
L 18.40625 64.59375 
L 9.421875 64.59375 
z
" id="DejaVuSans-69"/>
      <path d="M 52 44.1875 
Q 55.375 50.25 60.0625 53.125 
Q 64.75 56 71.09375 56 
Q 79.640625 56 84.28125 50.015625 
Q 88.921875 44.046875 88.921875 33.015625 
L 88.921875 0 
L 79.890625 0 
L 79.890625 32.71875 
Q 79.890625 40.578125 77.09375 44.375 
Q 74.3125 48.1875 68.609375 48.1875 
Q 61.625 48.1875 57.5625 43.546875 
Q 53.515625 38.921875 53.515625 30.90625 
L 53.515625 0 
L 44.484375 0 
L 44.484375 32.71875 
Q 44.484375 40.625 41.703125 44.40625 
Q 38.921875 48.1875 33.109375 48.1875 
Q 26.21875 48.1875 22.15625 43.53125 
Q 18.109375 38.875 18.109375 30.90625 
L 18.109375 0 
L 9.078125 0 
L 9.078125 54.6875 
L 18.109375 54.6875 
L 18.109375 46.1875 
Q 21.1875 51.21875 25.484375 53.609375 
Q 29.78125 56 35.6875 56 
Q 41.65625 56 45.828125 52.96875 
Q 50 49.953125 52 44.1875 
z
" id="DejaVuSans-6d"/>
      <path d="M 54.890625 33.015625 
L 54.890625 0 
L 45.90625 0 
L 45.90625 32.71875 
Q 45.90625 40.484375 42.875 44.328125 
Q 39.84375 48.1875 33.796875 48.1875 
Q 26.515625 48.1875 22.3125 43.546875 
Q 18.109375 38.921875 18.109375 30.90625 
L 18.109375 0 
L 9.078125 0 
L 9.078125 54.6875 
L 18.109375 54.6875 
L 18.109375 46.1875 
Q 21.34375 51.125 25.703125 53.5625 
Q 30.078125 56 35.796875 56 
Q 45.21875 56 50.046875 50.171875 
Q 54.890625 44.34375 54.890625 33.015625 
z
" id="DejaVuSans-6e"/>
      <path d="M 8.015625 75.875 
L 15.828125 75.875 
Q 23.140625 64.359375 26.78125 53.3125 
Q 30.421875 42.28125 30.421875 31.390625 
Q 30.421875 20.453125 26.78125 9.375 
Q 23.140625 -1.703125 15.828125 -13.1875 
L 8.015625 -13.1875 
Q 14.5 -2 17.703125 9.0625 
Q 20.90625 20.125 20.90625 31.390625 
Q 20.90625 42.671875 17.703125 53.65625 
Q 14.5 64.65625 8.015625 75.875 
z
" id="DejaVuSans-29"/>
     </defs>
     <g transform="translate(107.211219 338.153594)scale(0.17 -0.17)">
      <use xlink:href="#DejaVuSans-6c"/>
      <use x="27.783203" xlink:href="#DejaVuSans-6f"/>
      <use x="88.964844" xlink:href="#DejaVuSans-67"/>
      <use x="152.441406" xlink:href="#DejaVuSans-31"/>
      <use x="216.064453" xlink:href="#DejaVuSans-30"/>
      <use x="279.6875" xlink:href="#DejaVuSans-28"/>
      <use x="318.701172" xlink:href="#DejaVuSans-23"/>
      <use x="402.490234" xlink:href="#DejaVuSans-20"/>
      <use x="434.277344" xlink:href="#DejaVuSans-66"/>
      <use x="469.404297" xlink:href="#DejaVuSans-2d"/>
      <use x="505.488281" xlink:href="#DejaVuSans-65"/>
      <use x="567.011719" xlink:href="#DejaVuSans-76"/>
      <use x="626.191406" xlink:href="#DejaVuSans-61"/>
      <use x="687.470703" xlink:href="#DejaVuSans-6c"/>
      <use x="715.253906" xlink:href="#DejaVuSans-73"/>
      <use x="767.353516" xlink:href="#DejaVuSans-20"/>
      <use x="799.140625" xlink:href="#DejaVuSans-2f"/>
      <use x="832.832031" xlink:href="#DejaVuSans-20"/>
      <use x="864.619141" xlink:href="#DejaVuSans-64"/>
      <use x="928.095703" xlink:href="#DejaVuSans-69"/>
      <use x="955.878906" xlink:href="#DejaVuSans-6d"/>
      <use x="1053.291016" xlink:href="#DejaVuSans-65"/>
      <use x="1114.814453" xlink:href="#DejaVuSans-6e"/>
      <use x="1178.193359" xlink:href="#DejaVuSans-73"/>
      <use x="1230.292969" xlink:href="#DejaVuSans-69"/>
      <use x="1258.076172" xlink:href="#DejaVuSans-6f"/>
      <use x="1319.257812" xlink:href="#DejaVuSans-6e"/>
      <use x="1382.636719" xlink:href="#DejaVuSans-29"/>
     </g>
    </g>
   </g>
   <g id="matplotlib.axis_2">
    <g id="ytick_1">
     <g id="line2d_15">
      <path clip-path="url(#pdd3ea25af7)" d="M 56.12 294.88 
L 399.984 294.88 
" style="fill:none;stroke:#b0b0b0;stroke-linecap:square;stroke-width:0.8;"/>
     </g>
     <g id="line2d_16">
      <defs>
       <path d="M 0 0 
L -3.5 0 
" id="m5c31919664" style="stroke:#000000;stroke-width:0.8;"/>
      </defs>
      <g>
       <use style="stroke:#000000;stroke-width:0.8;" x="56.12" xlink:href="#m5c31919664" y="294.88"/>
      </g>
     </g>
     <g id="text_7">
      <!-- 0.0 -->
      <defs>
       <path d="M 10.6875 12.40625 
L 21 12.40625 
L 21 0 
L 10.6875 0 
z
" id="DejaVuSans-2e"/>
      </defs>
      <g transform="translate(23.675 300.95875)scale(0.16 -0.16)">
       <use xlink:href="#DejaVuSans-30"/>
       <use x="63.623047" xlink:href="#DejaVuSans-2e"/>
       <use x="95.410156" xlink:href="#DejaVuSans-30"/>
      </g>
     </g>
    </g>
    <g id="ytick_2">
     <g id="line2d_17">
      <path clip-path="url(#pdd3ea25af7)" d="M 56.12 241.406733 
L 399.984 241.406733 
" style="fill:none;stroke:#b0b0b0;stroke-linecap:square;stroke-width:0.8;"/>
     </g>
     <g id="line2d_18">
      <g>
       <use style="stroke:#000000;stroke-width:0.8;" x="56.12" xlink:href="#m5c31919664" y="241.406733"/>
      </g>
     </g>
     <g id="text_8">
      <!-- 0.2 -->
      <g transform="translate(23.675 247.485483)scale(0.16 -0.16)">
       <use xlink:href="#DejaVuSans-30"/>
       <use x="63.623047" xlink:href="#DejaVuSans-2e"/>
       <use x="95.410156" xlink:href="#DejaVuSans-32"/>
      </g>
     </g>
    </g>
    <g id="ytick_3">
     <g id="line2d_19">
      <path clip-path="url(#pdd3ea25af7)" d="M 56.12 187.933465 
L 399.984 187.933465 
" style="fill:none;stroke:#b0b0b0;stroke-linecap:square;stroke-width:0.8;"/>
     </g>
     <g id="line2d_20">
      <g>
       <use style="stroke:#000000;stroke-width:0.8;" x="56.12" xlink:href="#m5c31919664" y="187.933465"/>
      </g>
     </g>
     <g id="text_9">
      <!-- 0.4 -->
      <g transform="translate(23.675 194.012215)scale(0.16 -0.16)">
       <use xlink:href="#DejaVuSans-30"/>
       <use x="63.623047" xlink:href="#DejaVuSans-2e"/>
       <use x="95.410156" xlink:href="#DejaVuSans-34"/>
      </g>
     </g>
    </g>
    <g id="ytick_4">
     <g id="line2d_21">
      <path clip-path="url(#pdd3ea25af7)" d="M 56.12 134.460198 
L 399.984 134.460198 
" style="fill:none;stroke:#b0b0b0;stroke-linecap:square;stroke-width:0.8;"/>
     </g>
     <g id="line2d_22">
      <g>
       <use style="stroke:#000000;stroke-width:0.8;" x="56.12" xlink:href="#m5c31919664" y="134.460198"/>
      </g>
     </g>
     <g id="text_10">
      <!-- 0.6 -->
      <g transform="translate(23.675 140.538948)scale(0.16 -0.16)">
       <use xlink:href="#DejaVuSans-30"/>
       <use x="63.623047" xlink:href="#DejaVuSans-2e"/>
       <use x="95.410156" xlink:href="#DejaVuSans-36"/>
      </g>
     </g>
    </g>
    <g id="ytick_5">
     <g id="line2d_23">
      <path clip-path="url(#pdd3ea25af7)" d="M 56.12 80.986931 
L 399.984 80.986931 
" style="fill:none;stroke:#b0b0b0;stroke-linecap:square;stroke-width:0.8;"/>
     </g>
     <g id="line2d_24">
      <g>
       <use style="stroke:#000000;stroke-width:0.8;" x="56.12" xlink:href="#m5c31919664" y="80.986931"/>
      </g>
     </g>
     <g id="text_11">
      <!-- 0.8 -->
      <g transform="translate(23.675 87.065681)scale(0.16 -0.16)">
       <use xlink:href="#DejaVuSans-30"/>
       <use x="63.623047" xlink:href="#DejaVuSans-2e"/>
       <use x="95.410156" xlink:href="#DejaVuSans-38"/>
      </g>
     </g>
    </g>
    <g id="ytick_6">
     <g id="line2d_25">
      <path clip-path="url(#pdd3ea25af7)" d="M 56.12 27.513663 
L 399.984 27.513663 
" style="fill:none;stroke:#b0b0b0;stroke-linecap:square;stroke-width:0.8;"/>
     </g>
     <g id="line2d_26">
      <g>
       <use style="stroke:#000000;stroke-width:0.8;" x="56.12" xlink:href="#m5c31919664" y="27.513663"/>
      </g>
     </g>
     <g id="text_12">
      <!-- 1.0 -->
      <g transform="translate(23.675 33.592413)scale(0.16 -0.16)">
       <use xlink:href="#DejaVuSans-31"/>
       <use x="63.623047" xlink:href="#DejaVuSans-2e"/>
       <use x="95.410156" xlink:href="#DejaVuSans-30"/>
      </g>
     </g>
    </g>
    <g id="text_13">
     <!-- Fraction of function,target pairs -->
     <defs>
      <path d="M 9.8125 72.90625 
L 51.703125 72.90625 
L 51.703125 64.59375 
L 19.671875 64.59375 
L 19.671875 43.109375 
L 48.578125 43.109375 
L 48.578125 34.8125 
L 19.671875 34.8125 
L 19.671875 0 
L 9.8125 0 
z
" id="DejaVuSans-46"/>
      <path d="M 41.109375 46.296875 
Q 39.59375 47.171875 37.8125 47.578125 
Q 36.03125 48 33.890625 48 
Q 26.265625 48 22.1875 43.046875 
Q 18.109375 38.09375 18.109375 28.8125 
L 18.109375 0 
L 9.078125 0 
L 9.078125 54.6875 
L 18.109375 54.6875 
L 18.109375 46.1875 
Q 20.953125 51.171875 25.484375 53.578125 
Q 30.03125 56 36.53125 56 
Q 37.453125 56 38.578125 55.875 
Q 39.703125 55.765625 41.0625 55.515625 
z
" id="DejaVuSans-72"/>
      <path d="M 48.78125 52.59375 
L 48.78125 44.1875 
Q 44.96875 46.296875 41.140625 47.34375 
Q 37.3125 48.390625 33.40625 48.390625 
Q 24.65625 48.390625 19.8125 42.84375 
Q 14.984375 37.3125 14.984375 27.296875 
Q 14.984375 17.28125 19.8125 11.734375 
Q 24.65625 6.203125 33.40625 6.203125 
Q 37.3125 6.203125 41.140625 7.25 
Q 44.96875 8.296875 48.78125 10.40625 
L 48.78125 2.09375 
Q 45.015625 0.34375 40.984375 -0.53125 
Q 36.96875 -1.421875 32.421875 -1.421875 
Q 20.0625 -1.421875 12.78125 6.34375 
Q 5.515625 14.109375 5.515625 27.296875 
Q 5.515625 40.671875 12.859375 48.328125 
Q 20.21875 56 33.015625 56 
Q 37.15625 56 41.109375 55.140625 
Q 45.0625 54.296875 48.78125 52.59375 
z
" id="DejaVuSans-63"/>
      <path d="M 18.3125 70.21875 
L 18.3125 54.6875 
L 36.8125 54.6875 
L 36.8125 47.703125 
L 18.3125 47.703125 
L 18.3125 18.015625 
Q 18.3125 11.328125 20.140625 9.421875 
Q 21.96875 7.515625 27.59375 7.515625 
L 36.8125 7.515625 
L 36.8125 0 
L 27.59375 0 
Q 17.1875 0 13.234375 3.875 
Q 9.28125 7.765625 9.28125 18.015625 
L 9.28125 47.703125 
L 2.6875 47.703125 
L 2.6875 54.6875 
L 9.28125 54.6875 
L 9.28125 70.21875 
z
" id="DejaVuSans-74"/>
      <path d="M 8.5 21.578125 
L 8.5 54.6875 
L 17.484375 54.6875 
L 17.484375 21.921875 
Q 17.484375 14.15625 20.5 10.265625 
Q 23.53125 6.390625 29.59375 6.390625 
Q 36.859375 6.390625 41.078125 11.03125 
Q 45.3125 15.671875 45.3125 23.6875 
L 45.3125 54.6875 
L 54.296875 54.6875 
L 54.296875 0 
L 45.3125 0 
L 45.3125 8.40625 
Q 42.046875 3.421875 37.71875 1 
Q 33.40625 -1.421875 27.6875 -1.421875 
Q 18.265625 -1.421875 13.375 4.4375 
Q 8.5 10.296875 8.5 21.578125 
z
M 31.109375 56 
z
" id="DejaVuSans-75"/>
      <path d="M 11.71875 12.40625 
L 22.015625 12.40625 
L 22.015625 4 
L 14.015625 -11.625 
L 7.71875 -11.625 
L 11.71875 4 
z
" id="DejaVuSans-2c"/>
      <path d="M 18.109375 8.203125 
L 18.109375 -20.796875 
L 9.078125 -20.796875 
L 9.078125 54.6875 
L 18.109375 54.6875 
L 18.109375 46.390625 
Q 20.953125 51.265625 25.265625 53.625 
Q 29.59375 56 35.59375 56 
Q 45.5625 56 51.78125 48.09375 
Q 58.015625 40.1875 58.015625 27.296875 
Q 58.015625 14.40625 51.78125 6.484375 
Q 45.5625 -1.421875 35.59375 -1.421875 
Q 29.59375 -1.421875 25.265625 0.953125 
Q 20.953125 3.328125 18.109375 8.203125 
z
M 48.6875 27.296875 
Q 48.6875 37.203125 44.609375 42.84375 
Q 40.53125 48.484375 33.40625 48.484375 
Q 26.265625 48.484375 22.1875 42.84375 
Q 18.109375 37.203125 18.109375 27.296875 
Q 18.109375 17.390625 22.1875 11.75 
Q 26.265625 6.109375 33.40625 6.109375 
Q 40.53125 6.109375 44.609375 11.75 
Q 48.6875 17.390625 48.6875 27.296875 
z
" id="DejaVuSans-70"/>
     </defs>
     <g transform="translate(16.139531 294.999375)rotate(-90)scale(0.17 -0.17)">
      <use xlink:href="#DejaVuSans-46"/>
      <use x="57.410156" xlink:href="#DejaVuSans-72"/>
      <use x="98.523438" xlink:href="#DejaVuSans-61"/>
      <use x="159.802734" xlink:href="#DejaVuSans-63"/>
      <use x="214.783203" xlink:href="#DejaVuSans-74"/>
      <use x="253.992188" xlink:href="#DejaVuSans-69"/>
      <use x="281.775391" xlink:href="#DejaVuSans-6f"/>
      <use x="342.957031" xlink:href="#DejaVuSans-6e"/>
      <use x="406.335938" xlink:href="#DejaVuSans-20"/>
      <use x="438.123047" xlink:href="#DejaVuSans-6f"/>
      <use x="499.304688" xlink:href="#DejaVuSans-66"/>
      <use x="534.509766" xlink:href="#DejaVuSans-20"/>
      <use x="566.296875" xlink:href="#DejaVuSans-66"/>
      <use x="601.501953" xlink:href="#DejaVuSans-75"/>
      <use x="664.880859" xlink:href="#DejaVuSans-6e"/>
      <use x="728.259766" xlink:href="#DejaVuSans-63"/>
      <use x="783.240234" xlink:href="#DejaVuSans-74"/>
      <use x="822.449219" xlink:href="#DejaVuSans-69"/>
      <use x="850.232422" xlink:href="#DejaVuSans-6f"/>
      <use x="911.414062" xlink:href="#DejaVuSans-6e"/>
      <use x="974.792969" xlink:href="#DejaVuSans-2c"/>
      <use x="1006.580078" xlink:href="#DejaVuSans-74"/>
      <use x="1045.789062" xlink:href="#DejaVuSans-61"/>
      <use x="1107.068359" xlink:href="#DejaVuSans-72"/>
      <use x="1148.166016" xlink:href="#DejaVuSans-67"/>
      <use x="1211.642578" xlink:href="#DejaVuSans-65"/>
      <use x="1273.166016" xlink:href="#DejaVuSans-74"/>
      <use x="1312.375" xlink:href="#DejaVuSans-20"/>
      <use x="1344.162109" xlink:href="#DejaVuSans-70"/>
      <use x="1407.638672" xlink:href="#DejaVuSans-61"/>
      <use x="1468.917969" xlink:href="#DejaVuSans-69"/>
      <use x="1496.701172" xlink:href="#DejaVuSans-72"/>
      <use x="1537.814453" xlink:href="#DejaVuSans-73"/>
     </g>
    </g>
   </g>
   <g id="line2d_27">
    <defs>
     <path d="M 0 1.5 
C 0.397805 1.5 0.77937 1.341951 1.06066 1.06066 
C 1.341951 0.77937 1.5 0.397805 1.5 0 
C 1.5 -0.397805 1.341951 -0.77937 1.06066 -1.06066 
C 0.77937 -1.341951 0.397805 -1.5 0 -1.5 
C -0.397805 -1.5 -0.77937 -1.341951 -1.06066 -1.06066 
C -1.341951 -0.77937 -1.5 -0.397805 -1.5 0 
C -1.5 0.397805 -1.341951 0.77937 -1.06066 1.06066 
C -0.77937 1.341951 -0.397805 1.5 0 1.5 
z
" id="mc99e5e528d" style="stroke:#f5deb3;"/>
    </defs>
    <g>
     <use style="fill:#f5deb3;stroke:#f5deb3;" x="193.148214" xlink:href="#mc99e5e528d" y="27.513663"/>
     <use style="fill:#f5deb3;stroke:#f5deb3;" x="193.148214" xlink:href="#mc99e5e528d" y="27.513663"/>
    </g>
   </g>
   <g id="line2d_28">
    <path clip-path="url(#pdd3ea25af7)" d="M 56.12 294.88 
L 56.12 294.88 
L 56.12 294.88 
L 56.12 294.88 
L 399.984 294.88 
" style="fill:none;stroke:#000080;stroke-linecap:square;stroke-width:1.5;"/>
   </g>
   <g id="line2d_29">
    <defs>
     <path d="M 0 6 
C 1.591219 6 3.117479 5.367802 4.242641 4.242641 
C 5.367802 3.117479 6 1.591219 6 0 
C 6 -1.591219 5.367802 -3.117479 4.242641 -4.242641 
C 3.117479 -5.367802 1.591219 -6 0 -6 
C -1.591219 -6 -3.117479 -5.367802 -4.242641 -4.242641 
C -5.367802 -3.117479 -6 -1.591219 -6 0 
C -6 1.591219 -5.367802 3.117479 -4.242641 4.242641 
C -3.117479 5.367802 -1.591219 6 0 6 
z
" id="m603aa080a4" style="stroke:#000080;stroke-width:1.5;"/>
    </defs>
    <g clip-path="url(#pdd3ea25af7)">
     <use style="fill-opacity:0;stroke:#000080;stroke-width:1.5;" x="56.12" xlink:href="#m603aa080a4" y="294.88"/>
    </g>
   </g>
   <g id="line2d_30">
    <path clip-path="url(#pdd3ea25af7)" style="fill:none;stroke:#000080;stroke-linecap:square;stroke-width:1.5;"/>
    <g clip-path="url(#pdd3ea25af7)">
     <use style="fill-opacity:0;stroke:#000080;stroke-width:1.5;" x="-1" xlink:href="#m603aa080a4" y="562.246337"/>
     <use style="fill-opacity:0;stroke:#000080;stroke-width:1.5;" x="399.984" xlink:href="#m603aa080a4" y="562.246337"/>
    </g>
   </g>
   <g id="line2d_31">
    <defs>
     <path d="M 0 1.5 
C 0.397805 1.5 0.77937 1.341951 1.06066 1.06066 
C 1.341951 0.77937 1.5 0.397805 1.5 0 
C 1.5 -0.397805 1.341951 -0.77937 1.06066 -1.06066 
C 0.77937 -1.341951 0.397805 -1.5 0 -1.5 
C -0.397805 -1.5 -0.77937 -1.341951 -1.06066 -1.06066 
C -1.341951 -0.77937 -1.5 -0.397805 -1.5 0 
C -1.5 0.397805 -1.341951 0.77937 -1.06066 1.06066 
C -0.77937 1.341951 -0.397805 1.5 0 1.5 
z
" id="mf3ff020d52" style="stroke:#ff00ff;"/>
    </defs>
    <g>
     <use style="fill:#ff00ff;stroke:#ff00ff;" x="269.301119" xlink:href="#mf3ff020d52" y="27.513663"/>
     <use style="fill:#ff00ff;stroke:#ff00ff;" x="269.301119" xlink:href="#mf3ff020d52" y="27.513663"/>
    </g>
   </g>
   <g id="line2d_32">
    <path d="M 154.711185 294.88 
L 154.711185 294.355752 
L 154.844686 294.355752 
L 154.844686 293.307257 
L 156.006931 293.307257 
L 156.006931 292.258761 
L 156.958943 292.258761 
L 156.958943 291.734514 
L 157.53715 291.734514 
L 157.53715 291.210266 
L 158.902972 291.210266 
L 158.902972 290.686018 
L 159.559906 290.686018 
L 159.559906 290.161771 
L 160.736244 290.161771 
L 160.736244 289.637523 
L 163.991991 289.637523 
L 163.991991 288.589027 
L 167.153754 288.589027 
L 167.188941 287.016284 
L 168.022831 287.016284 
L 168.022831 286.492036 
L 168.707127 286.492036 
L 168.707127 285.967789 
L 169.39619 285.967789 
L 169.39619 284.919293 
L 170.181852 284.919293 
L 170.181852 284.395046 
L 172.21738 284.395046 
L 172.21738 283.870798 
L 172.865127 283.870798 
L 172.865127 282.822302 
L 175.127975 282.822302 
L 175.127975 282.298055 
L 175.6831 282.298055 
L 175.6831 280.725312 
L 176.085982 280.725312 
L 176.085982 279.676816 
L 176.603675 279.676816 
L 176.656781 278.628321 
L 178.517462 278.628321 
L 178.517462 277.579825 
L 179.892863 277.579825 
L 179.892863 277.055578 
L 180.295148 277.055578 
L 180.295148 276.53133 
L 180.588014 276.53133 
L 180.588014 276.007082 
L 182.612249 276.007082 
L 182.612249 274.434339 
L 183.198977 274.434339 
L 183.198977 273.910091 
L 184.175152 273.910091 
L 184.175152 272.861596 
L 185.726989 272.861596 
L 185.726989 272.337348 
L 186.076893 272.337348 
L 186.076893 271.8131 
L 186.638593 271.8131 
L 186.638593 271.288853 
L 186.944904 271.288853 
L 186.944904 270.764605 
L 187.444439 270.764605 
L 187.444439 270.240357 
L 187.718004 270.240357 
L 187.718004 269.716109 
L 187.971135 269.716109 
L 187.971135 268.143366 
L 188.935001 268.143366 
L 188.935001 267.619119 
L 189.716088 267.619119 
L 189.716088 266.570623 
L 191.501477 266.570623 
L 191.501477 266.046375 
L 192.841709 266.046375 
L 192.841709 265.522128 
L 193.445828 265.522128 
L 193.445828 264.99788 
L 194.338018 264.99788 
L 194.338018 264.473632 
L 196.49012 264.473632 
L 196.49012 263.949385 
L 197.412873 263.949385 
L 197.412873 263.425137 
L 197.598095 263.425137 
L 197.598095 262.900889 
L 198.744737 262.900889 
L 198.744737 261.852394 
L 200.583262 261.852394 
L 200.583262 260.803898 
L 204.038527 260.803898 
L 204.038527 260.279651 
L 206.675964 260.279651 
L 206.675964 259.755403 
L 207.360116 259.755403 
L 207.360116 259.231155 
L 208.570047 259.231155 
L 208.570047 258.706907 
L 208.958262 258.706907 
L 208.958262 258.18266 
L 212.93093 258.18266 
L 212.93093 257.658412 
L 213.12752 257.658412 
L 213.12752 257.134164 
L 214.999279 257.134164 
L 214.999279 256.085669 
L 215.737724 256.085669 
L 215.737724 254.512926 
L 216.347766 254.512926 
L 216.347766 253.988678 
L 216.77016 253.988678 
L 216.77016 253.46443 
L 221.085252 253.46443 
L 221.085252 252.940182 
L 222.130891 252.940182 
L 222.130891 252.415935 
L 222.487199 252.415935 
L 222.487199 251.367439 
L 222.721739 251.367439 
L 222.721739 250.318944 
L 224.295619 250.318944 
L 224.295619 249.794696 
L 224.614602 249.794696 
L 224.614602 249.270448 
L 228.472646 249.270448 
L 228.472646 248.746201 
L 228.635107 248.746201 
L 228.635107 247.697705 
L 228.813737 247.697705 
L 228.909621 246.124962 
L 228.987255 246.124962 
L 228.987255 245.076467 
L 229.350217 245.076467 
L 229.350217 244.552219 
L 229.748985 244.552219 
L 229.833995 242.455228 
L 229.878819 242.455228 
L 229.878819 241.93098 
L 230.064372 241.93098 
L 230.153968 240.882485 
L 230.345612 240.882485 
L 230.397154 237.736999 
L 230.542834 237.736999 
L 230.60898 235.11576 
L 230.993376 235.11576 
L 230.993376 234.591512 
L 231.744371 234.591512 
L 231.804039 233.018769 
L 231.965596 233.018769 
L 231.965596 232.494521 
L 232.356453 232.494521 
L 232.4388 230.921778 
L 232.728144 230.921778 
L 232.728144 230.397531 
L 232.861202 230.397531 
L 232.949872 229.349035 
L 233.636255 229.349035 
L 233.636255 228.824787 
L 234.120072 228.824787 
L 234.120072 227.776292 
L 234.725963 227.776292 
L 234.725963 226.203549 
L 234.964616 226.203549 
L 235.048814 222.533815 
L 235.34684 222.533815 
L 235.34684 222.009567 
L 235.543339 222.009567 
L 235.543339 221.485319 
L 235.673506 221.485319 
L 235.70534 220.436824 
L 235.933261 220.436824 
L 235.933261 219.912576 
L 236.749523 219.912576 
L 236.85696 218.864081 
L 237.036194 218.864081 
L 237.036194 218.339833 
L 237.332616 218.339833 
L 237.332616 217.815585 
L 237.847755 217.815585 
L 237.89788 215.718594 
L 238.007089 215.718594 
L 238.007089 215.194347 
L 238.227846 215.194347 
L 238.227846 214.670099 
L 238.537115 214.670099 
L 238.642396 213.097356 
L 238.940733 213.097356 
L 238.940733 212.573108 
L 239.281628 212.573108 
L 239.281628 212.04886 
L 239.583262 212.04886 
L 239.583262 211.524613 
L 239.74966 211.524613 
L 239.74966 211.000365 
L 240.025318 211.000365 
L 240.07438 208.903374 
L 240.248701 208.903374 
L 240.359352 206.282136 
L 240.396424 206.282136 
L 240.396424 205.757888 
L 240.697586 205.757888 
L 240.804722 204.185145 
L 240.84511 204.185145 
L 240.902665 202.088154 
L 241.020752 202.088154 
L 241.09494 201.039658 
L 241.157027 201.039658 
L 241.157027 199.991163 
L 241.431801 199.991163 
L 241.431801 197.894172 
L 241.58107 197.894172 
L 241.58107 197.369924 
L 241.865458 197.369924 
L 241.876623 196.321429 
L 241.977734 196.321429 
L 242.05649 191.603199 
L 242.200389 191.603199 
L 242.200389 191.078952 
L 242.491967 191.078952 
L 242.491967 187.409218 
L 242.611683 187.409218 
L 242.710019 184.263731 
L 242.732615 184.263731 
L 242.732615 183.739484 
L 242.942859 183.739484 
L 243.005889 181.118245 
L 243.082516 181.118245 
L 243.176116 178.497006 
L 243.216326 178.497006 
L 243.320473 177.448511 
L 243.444257 177.448511 
L 243.483526 175.875768 
L 243.570317 175.875768 
L 243.631889 174.303025 
L 243.683512 174.303025 
L 243.794077 169.060547 
L 243.858464 169.060547 
L 243.967884 164.866566 
L 243.987268 164.866566 
L 243.99692 163.81807 
L 244.117896 163.81807 
L 244.208565 161.721079 
L 244.233729 161.721079 
L 244.342625 158.575593 
L 244.366955 158.575593 
L 244.439221 155.954354 
L 244.526496 155.954354 
L 244.590099 154.381611 
L 244.681401 154.381611 
L 244.785131 150.711877 
L 244.857886 150.711877 
L 244.933461 147.566391 
L 245.179382 147.566391 
L 245.245224 145.993648 
L 245.390661 145.993648 
L 245.487559 144.945152 
L 245.519415 144.945152 
L 245.619842 142.848162 
L 245.669483 142.848162 
L 245.745267 137.081437 
L 245.82724 137.081437 
L 245.933237 133.411703 
L 245.98312 133.411703 
L 246.083449 131.314712 
L 246.188925 131.314712 
L 246.214256 130.266216 
L 246.437033 130.266216 
L 246.535025 127.12073 
L 246.621322 127.12073 
L 246.664082 125.023739 
L 246.747401 125.023739 
L 246.747401 123.975244 
L 246.899668 123.975244 
L 247.00968 121.878253 
L 247.171332 121.878253 
L 247.265936 119.781262 
L 247.466172 119.781262 
L 247.560236 117.684271 
L 247.660054 117.684271 
L 247.660054 116.635776 
L 247.896551 116.635776 
L 247.896551 115.58728 
L 248.37433 115.58728 
L 248.37433 115.063032 
L 248.692143 115.063032 
L 248.782771 112.966042 
L 248.82197 112.966042 
L 248.82197 112.441794 
L 248.99132 112.441794 
L 248.99132 111.393298 
L 249.169669 111.393298 
L 249.265135 110.344803 
L 249.336628 110.344803 
L 249.364518 107.723564 
L 249.504198 107.723564 
L 249.59104 106.675069 
L 249.811666 106.675069 
L 249.811666 106.150821 
L 250.107475 106.150821 
L 250.167296 104.578078 
L 250.425983 104.578078 
L 250.429111 102.481087 
L 250.668908 102.481087 
L 250.708088 100.908344 
L 250.989601 100.908344 
L 251.062321 99.335601 
L 251.259073 99.335601 
L 251.345944 97.23861 
L 251.397528 97.23861 
L 251.479009 96.190115 
L 251.564518 96.190115 
L 251.564518 95.665867 
L 251.704684 95.665867 
L 251.768189 93.568876 
L 251.932128 93.568876 
L 252.019521 90.947637 
L 252.150036 90.947637 
L 252.150036 90.42339 
L 252.597108 90.42339 
L 252.597108 89.374894 
L 253.028696 89.374894 
L 253.036742 87.802151 
L 253.160211 87.802151 
L 253.241379 86.229408 
L 253.527017 86.229408 
L 253.592189 85.180912 
L 253.824666 85.180912 
L 253.824666 84.656665 
L 254.13605 84.656665 
L 254.13605 84.132417 
L 254.501657 84.132417 
L 254.501657 83.608169 
L 254.777292 83.608169 
L 254.872483 82.035426 
L 254.930536 82.035426 
L 254.930536 79.938435 
L 255.16582 79.938435 
L 255.16582 79.414188 
L 255.428727 79.414188 
L 255.483004 77.841444 
L 255.564244 77.841444 
L 255.564244 77.317197 
L 256.016564 77.317197 
L 256.016564 76.268701 
L 256.226541 76.268701 
L 256.226541 75.220206 
L 256.418825 75.220206 
L 256.452257 69.977729 
L 256.56301 69.977729 
L 256.580725 67.880738 
L 256.683689 67.880738 
L 256.692041 64.735251 
L 256.803661 64.735251 
L 256.860542 62.638261 
L 256.969848 62.638261 
L 257.010674 60.017022 
L 257.098971 60.017022 
L 257.200623 56.871536 
L 257.242174 56.871536 
L 257.242174 55.82304 
L 257.356952 55.82304 
L 257.443452 53.726049 
L 257.485772 53.726049 
L 257.570128 52.677554 
L 257.626241 52.677554 
L 257.731966 50.056315 
L 257.745369 50.056315 
L 257.851661 46.910829 
L 258.024746 46.910829 
L 258.024746 46.386581 
L 258.173577 46.386581 
L 258.173577 45.862334 
L 258.349364 45.862334 
L 258.442175 44.28959 
L 258.620589 44.28959 
L 258.672175 42.716847 
L 258.74 42.716847 
L 258.754647 41.144104 
L 258.855741 41.144104 
L 258.891521 40.095609 
L 259.201001 40.095609 
L 259.227043 39.047113 
L 259.505821 39.047113 
L 259.505821 37.998618 
L 259.921773 37.998618 
L 259.921773 36.425875 
L 260.137371 36.425875 
L 260.152008 34.328884 
L 260.371886 34.328884 
L 260.371886 33.280388 
L 260.890188 33.280388 
L 260.916067 31.183397 
L 261.164137 31.183397 
L 261.164137 30.65915 
L 261.540309 30.65915 
L 261.54196 29.086407 
L 261.856423 29.086407 
L 261.856423 28.562159 
L 267.658483 28.562159 
L 267.658483 28.037911 
L 269.301119 28.037911 
L 269.301119 27.513663 
L 333.429677 27.513663 
L 333.429677 27.513663 
" style="fill:none;stroke:#ff00ff;stroke-linecap:square;stroke-width:1.5;"/>
   </g>
   <g id="line2d_33">
    <defs>
     <path d="M -0 8.485281 
L 5.091169 0 
L 0 -8.485281 
L -5.091169 -0 
z
" id="m84bf7445de" style="stroke:#ff00ff;stroke-linejoin:miter;stroke-width:1.5;"/>
    </defs>
    <g>
     <use style="fill-opacity:0;stroke:#ff00ff;stroke-linejoin:miter;stroke-width:1.5;" x="208.958262" xlink:href="#m84bf7445de" y="258.18266"/>
     <use style="fill-opacity:0;stroke:#ff00ff;stroke-linejoin:miter;stroke-width:1.5;" x="258.855741" xlink:href="#m84bf7445de" y="40.619856"/>
     <use style="fill-opacity:0;stroke:#ff00ff;stroke-linejoin:miter;stroke-width:1.5;" x="269.301119" xlink:href="#m84bf7445de" y="27.513663"/>
     <use style="fill-opacity:0;stroke:#ff00ff;stroke-linejoin:miter;stroke-width:1.5;" x="333.429677" xlink:href="#m84bf7445de" y="27.513663"/>
    </g>
   </g>
   <g id="line2d_34">
    <path style="fill:none;stroke:#ff00ff;stroke-linecap:square;stroke-width:1.5;"/>
    <g/>
   </g>
   <g id="line2d_35">
    <defs>
     <path d="M 0 1.5 
C 0.397805 1.5 0.77937 1.341951 1.06066 1.06066 
C 1.341951 0.77937 1.5 0.397805 1.5 0 
C 1.5 -0.397805 1.341951 -0.77937 1.06066 -1.06066 
C 0.77937 -1.341951 0.397805 -1.5 0 -1.5 
C -0.397805 -1.5 -0.77937 -1.341951 -1.06066 -1.06066 
C -1.341951 -0.77937 -1.5 -0.397805 -1.5 0 
C -1.5 0.397805 -1.341951 0.77937 -1.06066 1.06066 
C -0.77937 1.341951 -0.397805 1.5 0 1.5 
z
" id="mb3b1ad7520" style="stroke:#ffa500;"/>
    </defs>
    <g>
     <use style="fill:#ffa500;stroke:#ffa500;" x="243.148733" xlink:href="#mb3b1ad7520" y="27.513663"/>
     <use style="fill:#ffa500;stroke:#ffa500;" x="243.148733" xlink:href="#mb3b1ad7520" y="27.513663"/>
    </g>
   </g>
   <g id="line2d_36">
    <path d="M 121.765375 294.88 
L 121.765375 294.355752 
L 127.319955 294.355752 
L 127.319955 293.831505 
L 129.017032 293.831505 
L 129.017032 293.307257 
L 129.458837 293.307257 
L 129.458837 292.783009 
L 129.675556 292.783009 
L 129.675556 292.258761 
L 131.120651 292.258761 
L 131.120651 291.734514 
L 132.186969 291.734514 
L 132.186969 290.161771 
L 132.474065 290.161771 
L 132.474065 289.637523 
L 132.836286 289.637523 
L 132.836286 289.113275 
L 133.073598 289.113275 
L 133.073598 288.589027 
L 133.481177 288.589027 
L 133.481177 288.06478 
L 133.860572 288.06478 
L 133.860572 287.540532 
L 134.286778 287.540532 
L 134.323346 285.443541 
L 134.648999 285.443541 
L 134.648999 284.395046 
L 135.265096 284.395046 
L 135.282379 283.34655 
L 135.488428 283.34655 
L 135.488428 282.822302 
L 135.607493 282.822302 
L 135.692038 281.773807 
L 136.141538 281.773807 
L 136.141538 280.725312 
L 136.707272 280.725312 
L 136.786594 279.676816 
L 137.514869 279.676816 
L 137.514869 279.152568 
L 137.875194 279.152568 
L 137.875194 278.628321 
L 138.73018 278.628321 
L 138.73018 278.104073 
L 139.038418 278.104073 
L 139.038418 277.579825 
L 139.409316 277.579825 
L 139.436475 275.482834 
L 139.878508 275.482834 
L 139.878508 274.958587 
L 140.127953 274.958587 
L 140.127953 273.385844 
L 140.257802 273.385844 
L 140.322361 272.337348 
L 141.456884 272.337348 
L 141.456884 271.8131 
L 142.679252 271.8131 
L 142.679252 271.288853 
L 143.046155 271.288853 
L 143.046155 270.764605 
L 143.831018 270.764605 
L 143.831018 269.716109 
L 144.721918 269.716109 
L 144.721918 269.191862 
L 145.300865 269.191862 
L 145.300865 268.667614 
L 145.511852 268.667614 
L 145.511852 267.619119 
L 146.61925 267.619119 
L 146.61925 267.094871 
L 147.396855 267.094871 
L 147.396855 266.046375 
L 147.566865 266.046375 
L 147.566865 265.522128 
L 149.54625 265.522128 
L 149.54625 264.99788 
L 149.793268 264.99788 
L 149.793268 263.425137 
L 150.556439 263.425137 
L 150.556439 262.900889 
L 151.177822 262.900889 
L 151.253087 260.803898 
L 152.318601 260.803898 
L 152.318601 259.755403 
L 152.46557 259.755403 
L 152.46557 259.231155 
L 152.855606 259.231155 
L 152.855606 258.706907 
L 154.361434 258.706907 
L 154.361434 258.18266 
L 154.649649 258.18266 
L 154.677647 257.134164 
L 155.793268 257.134164 
L 155.798511 256.085669 
L 156.319989 256.085669 
L 156.319989 255.037173 
L 156.612458 255.037173 
L 156.612458 254.512926 
L 157.842417 254.512926 
L 157.842417 253.46443 
L 158.133211 253.46443 
L 158.133211 252.940182 
L 158.718161 252.940182 
L 158.740266 251.891687 
L 158.911723 251.891687 
L 158.911723 247.173458 
L 159.206646 247.173458 
L 159.206646 246.64921 
L 159.601982 246.64921 
L 159.601982 245.600714 
L 160.281779 245.600714 
L 160.386491 243.503724 
L 161.848341 243.503724 
L 161.848341 242.979476 
L 163.610084 242.979476 
L 163.610084 241.93098 
L 164.008264 241.93098 
L 164.008264 241.406733 
L 164.343288 241.406733 
L 164.352856 240.358237 
L 164.612342 240.358237 
L 164.612342 239.309742 
L 164.743749 239.309742 
L 164.79976 238.261246 
L 165.289786 238.261246 
L 165.289786 237.212751 
L 165.698557 237.212751 
L 165.698557 236.688503 
L 166.982208 236.688503 
L 166.982208 236.164255 
L 167.159172 236.164255 
L 167.159172 235.640008 
L 167.406573 235.640008 
L 167.406573 235.11576 
L 167.739735 235.11576 
L 167.739735 233.543017 
L 168.227684 233.543017 
L 168.227684 231.970274 
L 168.492904 231.970274 
L 168.492904 229.349035 
L 169.716641 229.349035 
L 169.716641 228.30054 
L 170.035815 228.30054 
L 170.035815 225.679301 
L 171.548486 225.679301 
L 171.548486 225.155053 
L 171.915997 225.155053 
L 171.915997 224.106558 
L 173.26861 224.106558 
L 173.26861 223.58231 
L 174.717453 223.58231 
L 174.717453 222.533815 
L 176.810487 222.533815 
L 176.810487 222.009567 
L 177.12295 222.009567 
L 177.12295 221.485319 
L 177.382059 221.485319 
L 177.382059 220.961072 
L 189.511931 220.961072 
L 189.511931 220.436824 
L 189.989135 220.436824 
L 189.989135 219.912576 
L 190.835953 219.912576 
L 190.835953 219.388328 
L 191.338822 219.388328 
L 191.394536 217.815585 
L 191.454689 217.815585 
L 191.561914 215.718594 
L 191.826764 215.718594 
L 191.929134 213.621604 
L 192.011744 213.621604 
L 192.083147 211.524613 
L 192.153621 211.524613 
L 192.153621 209.427622 
L 192.350178 209.427622 
L 192.350178 208.903374 
L 192.467541 208.903374 
L 192.540179 202.612401 
L 192.583491 202.612401 
L 192.6661 198.41842 
L 192.779503 198.41842 
L 192.855705 194.748686 
L 192.935204 194.748686 
L 193.022773 189.506209 
L 193.062485 189.506209 
L 193.062485 188.981961 
L 193.188831 188.981961 
L 193.28165 187.409218 
L 193.316625 187.409218 
L 193.380463 184.787979 
L 193.478711 184.787979 
L 193.478711 184.263731 
L 193.722194 184.263731 
L 193.773594 182.16674 
L 193.854139 182.16674 
L 193.925736 180.593997 
L 193.988496 180.593997 
L 193.988496 180.06975 
L 194.230536 180.06975 
L 194.306738 178.497006 
L 194.434291 178.497006 
L 194.467556 176.924263 
L 194.571369 176.924263 
L 194.674013 174.827272 
L 194.696983 174.827272 
L 194.799426 173.254529 
L 194.842292 173.254529 
L 194.842292 172.730281 
L 195.020744 172.730281 
L 195.020744 171.681786 
L 195.936674 171.681786 
L 195.936674 171.157538 
L 196.194093 171.157538 
L 196.194093 170.633291 
L 207.815329 170.633291 
L 207.815329 170.109043 
L 208.407743 170.109043 
L 208.407743 169.584795 
L 216.504497 169.584795 
L 216.573751 164.342318 
L 216.625012 164.342318 
L 216.728597 162.245327 
L 216.898763 162.245327 
L 216.970644 160.672584 
L 217.066219 160.672584 
L 217.147488 159.624089 
L 217.192931 159.624089 
L 217.192931 159.099841 
L 217.439655 159.099841 
L 217.439655 158.575593 
L 217.675275 158.575593 
L 217.675275 158.051345 
L 217.851034 158.051345 
L 217.851034 157.527098 
L 218.469248 157.527098 
L 218.469248 157.00285 
L 219.18677 157.00285 
L 219.293342 151.760373 
L 219.331374 151.760373 
L 219.331374 150.711877 
L 219.529322 150.711877 
L 219.529322 150.18763 
L 219.760837 150.18763 
L 219.760837 149.139134 
L 219.886437 149.139134 
L 219.944234 148.090639 
L 220.086634 148.090639 
L 220.111105 145.4694 
L 222.112575 145.4694 
L 222.203629 144.420905 
L 222.322425 144.420905 
L 222.389442 137.605684 
L 222.434957 137.605684 
L 222.496433 134.460198 
L 222.662784 134.460198 
L 222.725812 131.838959 
L 222.775898 131.838959 
L 222.775898 131.314712 
L 222.922106 131.314712 
L 223.024582 128.693473 
L 223.041742 128.693473 
L 223.067083 127.12073 
L 223.15679 127.12073 
L 223.177264 126.072235 
L 226.762893 126.072235 
L 226.857648 117.160023 
L 226.910587 117.160023 
L 226.990739 114.538785 
L 227.102626 114.538785 
L 227.207926 112.441794 
L 227.322189 112.441794 
L 227.329654 111.393298 
L 230.596775 111.393298 
L 230.631875 106.150821 
L 230.73614 106.150821 
L 230.822983 101.956839 
L 230.848001 101.956839 
L 230.955819 96.714362 
L 231.096337 96.714362 
L 231.20543 92.520381 
L 231.209489 92.520381 
L 231.278602 88.326399 
L 231.345231 88.326399 
L 231.424213 85.180912 
L 233.187928 85.180912 
L 233.286656 79.414188 
L 233.306369 79.414188 
L 233.392837 72.598967 
L 233.427971 72.598967 
L 233.53706 68.404985 
L 233.576635 68.404985 
L 233.576635 67.35649 
L 236.261968 67.35649 
L 236.364773 58.444279 
L 236.383196 58.444279 
L 236.459635 54.250297 
L 240.871784 54.250297 
L 240.970089 42.716847 
L 241.002313 42.716847 
L 241.085246 40.095609 
L 241.122186 40.095609 
L 241.12785 37.998618 
L 242.980876 37.998618 
L 243.084223 28.562159 
L 243.125761 28.562159 
L 243.148733 27.513663 
L 333.429677 27.513663 
L 333.429677 27.513663 
" style="fill:none;stroke:#ffa500;stroke-linecap:square;stroke-width:1.5;"/>
   </g>
   <g id="line2d_37">
    <defs>
     <path d="M 0 -6 
L -1.347084 -1.854102 
L -5.706339 -1.854102 
L -2.179628 0.708204 
L -3.526712 4.854102 
L -0 2.291796 
L 3.526712 4.854102 
L 2.179628 0.708204 
L 5.706339 -1.854102 
L 1.347084 -1.854102 
z
" id="m282e29262c" style="stroke:#ffa500;stroke-linejoin:bevel;stroke-width:1.5;"/>
    </defs>
    <g>
     <use style="fill-opacity:0;stroke:#ffa500;stroke-linejoin:bevel;stroke-width:1.5;" x="158.133211" xlink:href="#m282e29262c" y="252.940182"/>
     <use style="fill-opacity:0;stroke:#ffa500;stroke-linejoin:bevel;stroke-width:1.5;" x="219.529322" xlink:href="#m282e29262c" y="150.711877"/>
     <use style="fill-opacity:0;stroke:#ffa500;stroke-linejoin:bevel;stroke-width:1.5;" x="243.002064" xlink:href="#m282e29262c" y="32.231893"/>
     <use style="fill-opacity:0;stroke:#ffa500;stroke-linejoin:bevel;stroke-width:1.5;" x="243.148733" xlink:href="#m282e29262c" y="27.513663"/>
     <use style="fill-opacity:0;stroke:#ffa500;stroke-linejoin:bevel;stroke-width:1.5;" x="333.429677" xlink:href="#m282e29262c" y="27.513663"/>
    </g>
   </g>
   <g id="line2d_38">
    <path style="fill:none;stroke:#ffa500;stroke-linecap:square;stroke-width:1.5;"/>
    <g/>
   </g>
   <g id="line2d_39">
    <defs>
     <path d="M 0 1.5 
C 0.397805 1.5 0.77937 1.341951 1.06066 1.06066 
C 1.341951 0.77937 1.5 0.397805 1.5 0 
C 1.5 -0.397805 1.341951 -0.77937 1.06066 -1.06066 
C 0.77937 -1.341951 0.397805 -1.5 0 -1.5 
C -0.397805 -1.5 -0.77937 -1.341951 -1.06066 -1.06066 
C -1.341951 -0.77937 -1.5 -0.397805 -1.5 0 
C -1.5 0.397805 -1.341951 0.77937 -1.06066 1.06066 
C -0.77937 1.341951 -0.397805 1.5 0 1.5 
z
" id="m4564e063ab" style="stroke:#6495ed;"/>
    </defs>
    <g>
     <use style="fill:#6495ed;stroke:#6495ed;" x="321.595124" xlink:href="#m4564e063ab" y="137.605684"/>
     <use style="fill:#6495ed;stroke:#6495ed;" x="321.595124" xlink:href="#m4564e063ab" y="137.605684"/>
    </g>
   </g>
   <g id="line2d_40">
    <path d="M 173.986435 294.88 
L 173.986435 294.355752 
L 175.560539 294.355752 
L 175.560539 293.831505 
L 176.511129 293.831505 
L 176.511129 293.307257 
L 180.379513 293.307257 
L 180.379513 292.783009 
L 181.953297 292.783009 
L 182.056157 291.734514 
L 182.324114 291.734514 
L 182.324114 290.686018 
L 182.471566 290.686018 
L 182.471566 290.161771 
L 182.626585 290.161771 
L 182.626585 289.637523 
L 187.093488 289.637523 
L 187.093488 289.113275 
L 187.298868 289.113275 
L 187.385188 287.540532 
L 187.433606 287.540532 
L 187.49186 286.492036 
L 188.04933 286.492036 
L 188.04933 285.967789 
L 188.881441 285.967789 
L 188.951799 284.395046 
L 191.256247 284.395046 
L 191.256247 283.870798 
L 191.585505 283.870798 
L 191.585505 283.34655 
L 191.770492 283.34655 
L 191.770492 282.822302 
L 192.24651 282.822302 
L 192.24651 281.249559 
L 193.719302 281.249559 
L 193.719302 280.725312 
L 193.886251 280.725312 
L 193.886251 280.201064 
L 194.051596 280.201064 
L 194.072011 279.152568 
L 194.30562 279.152568 
L 194.30562 278.628321 
L 195.382172 278.628321 
L 195.382172 277.579825 
L 196.547639 277.579825 
L 196.554018 276.007082 
L 196.910893 276.007082 
L 196.937782 274.434339 
L 197.377833 274.434339 
L 197.377833 273.910091 
L 197.537966 273.910091 
L 197.537966 273.385844 
L 197.72002 273.385844 
L 197.72002 272.861596 
L 197.877014 272.861596 
L 197.877014 272.337348 
L 198.884982 272.337348 
L 198.983244 270.240357 
L 199.239069 270.240357 
L 199.239069 269.716109 
L 199.3841 269.716109 
L 199.3841 269.191862 
L 200.867379 269.191862 
L 200.867379 268.667614 
L 200.986476 268.667614 
L 200.986476 267.619119 
L 201.144251 267.619119 
L 201.144251 267.094871 
L 201.589682 267.094871 
L 201.589682 265.522128 
L 202.678833 265.522128 
L 202.788114 263.425137 
L 204.478689 263.425137 
L 204.578685 261.852394 
L 204.605744 261.852394 
L 204.70684 260.279651 
L 205.02671 260.279651 
L 205.02671 259.755403 
L 205.945864 259.755403 
L 206.049578 257.658412 
L 206.103736 257.658412 
L 206.103736 257.134164 
L 207.029449 257.134164 
L 207.029449 256.609917 
L 207.184869 256.609917 
L 207.184869 256.085669 
L 207.517261 256.085669 
L 207.517261 255.561421 
L 208.069928 255.561421 
L 208.069928 254.512926 
L 208.805615 254.512926 
L 208.816202 252.940182 
L 209.116897 252.940182 
L 209.116897 252.415935 
L 209.372414 252.415935 
L 209.372414 251.891687 
L 209.6297 251.891687 
L 209.722603 250.843192 
L 209.768867 250.843192 
L 209.824992 249.794696 
L 209.967544 249.794696 
L 209.967544 249.270448 
L 210.436264 249.270448 
L 210.436264 248.746201 
L 210.770809 248.746201 
L 210.83211 247.697705 
L 210.894685 247.697705 
L 210.975503 246.64921 
L 211.087171 246.64921 
L 211.087171 246.124962 
L 211.428641 246.124962 
L 211.530432 244.552219 
L 211.610575 244.552219 
L 211.695637 243.503724 
L 211.794651 243.503724 
L 211.891288 239.309742 
L 211.908782 239.309742 
L 211.908782 238.785494 
L 212.799183 238.785494 
L 212.799183 238.261246 
L 213.089845 238.261246 
L 213.1933 236.164255 
L 213.719184 236.164255 
L 213.759478 232.494521 
L 213.832598 232.494521 
L 213.832598 231.970274 
L 214.060932 231.970274 
L 214.060932 231.446026 
L 214.323343 231.446026 
L 214.323343 230.921778 
L 214.43893 230.921778 
L 214.43893 230.397531 
L 214.874051 230.397531 
L 214.877772 227.776292 
L 215.439134 227.776292 
L 215.513291 226.203549 
L 215.681002 226.203549 
L 215.681002 225.155053 
L 215.968477 225.155053 
L 215.968477 224.630806 
L 216.167642 224.630806 
L 216.242636 223.058063 
L 216.314661 223.058063 
L 216.423837 221.485319 
L 216.599477 221.485319 
L 216.599477 220.961072 
L 217.018647 220.961072 
L 217.018647 220.436824 
L 217.728664 220.436824 
L 217.789601 218.864081 
L 217.984403 218.864081 
L 217.984403 218.339833 
L 218.473228 218.339833 
L 218.473228 217.815585 
L 218.641196 217.815585 
L 218.641196 217.291338 
L 219.019683 217.291338 
L 219.019683 216.76709 
L 219.334899 216.76709 
L 219.370625 214.670099 
L 219.984753 214.670099 
L 219.984753 214.145851 
L 220.429295 214.145851 
L 220.496772 213.097356 
L 221.027858 213.097356 
L 221.115173 211.524613 
L 221.146098 211.524613 
L 221.146098 211.000365 
L 222.235859 211.000365 
L 222.24049 209.95187 
L 222.713482 209.95187 
L 222.776432 207.854879 
L 223.520224 207.854879 
L 223.559886 204.709392 
L 224.316835 204.709392 
L 224.316835 204.185145 
L 224.687146 204.185145 
L 224.75005 202.088154 
L 225.420267 202.088154 
L 225.420267 201.563906 
L 226.104145 201.563906 
L 226.111541 199.466915 
L 228.952886 199.466915 
L 228.952886 198.942667 
L 229.327157 198.942667 
L 229.327157 197.894172 
L 230.506666 197.894172 
L 230.506666 196.845677 
L 231.35101 196.845677 
L 231.35101 195.797181 
L 237.835245 195.797181 
L 237.835245 195.272933 
L 249.76429 195.272933 
L 249.76429 193.70019 
L 250.092585 193.70019 
L 250.092585 193.175943 
L 255.950247 193.175943 
L 255.956244 192.127447 
L 256.230501 192.127447 
L 256.340271 191.078952 
L 256.394069 191.078952 
L 256.394069 190.554704 
L 256.543159 190.554704 
L 256.631194 188.981961 
L 256.692785 188.981961 
L 256.758027 187.409218 
L 256.904172 187.409218 
L 256.904172 186.88497 
L 257.044726 186.88497 
L 257.13855 184.263731 
L 257.158551 184.263731 
L 257.267108 183.215236 
L 257.341022 183.215236 
L 257.411265 182.16674 
L 257.574173 182.16674 
L 257.574173 181.642493 
L 257.695416 181.642493 
L 257.695416 181.118245 
L 257.838243 181.118245 
L 257.838243 180.593997 
L 258.069481 180.593997 
L 258.069481 180.06975 
L 258.183215 180.06975 
L 258.183215 179.545502 
L 259.818432 179.545502 
L 259.818432 179.021254 
L 264.04927 179.021254 
L 264.04927 178.497006 
L 264.193152 178.497006 
L 264.193152 177.448511 
L 267.256713 177.448511 
L 267.33617 174.827272 
L 267.442612 174.827272 
L 267.515545 173.778777 
L 267.611035 173.778777 
L 267.611035 173.254529 
L 267.726559 173.254529 
L 267.727962 171.681786 
L 267.85066 171.681786 
L 267.961083 170.109043 
L 268.03565 170.109043 
L 268.03565 169.584795 
L 268.168064 169.584795 
L 268.264742 167.487804 
L 271.744923 167.487804 
L 271.744923 166.963557 
L 273.99013 166.963557 
L 273.99013 166.439309 
L 274.346177 166.439309 
L 274.39766 164.342318 
L 278.838503 164.342318 
L 278.870097 163.293823 
L 278.992481 163.293823 
L 279.101802 162.245327 
L 281.088436 162.245327 
L 281.14202 161.196832 
L 282.464042 161.196832 
L 282.564645 159.099841 
L 282.580885 159.099841 
L 282.680701 155.954354 
L 282.76274 155.954354 
L 282.777079 154.905859 
L 285.555426 154.905859 
L 285.555426 154.381611 
L 285.673999 154.381611 
L 285.673999 153.857364 
L 287.147587 153.857364 
L 287.147587 153.333116 
L 288.163118 153.333116 
L 288.247016 150.18763 
L 288.316808 150.18763 
L 288.316808 149.663382 
L 292.356507 149.663382 
L 292.410804 148.614886 
L 294.213744 148.614886 
L 294.213744 148.090639 
L 295.771984 148.090639 
L 295.789582 146.517896 
L 297.250936 146.517896 
L 297.326659 144.945152 
L 299.853458 144.945152 
L 299.92561 142.848162 
L 301.036855 142.848162 
L 301.086357 141.799666 
L 302.109245 141.799666 
L 302.109245 141.275418 
L 303.167174 141.275418 
L 303.179658 140.226923 
L 305.962272 140.226923 
L 305.962272 139.702675 
L 306.770895 139.702675 
L 306.770895 139.178427 
L 313.967764 139.178427 
L 313.967764 138.65418 
L 316.446493 138.65418 
L 316.446493 138.129932 
L 321.595124 138.129932 
L 321.595124 137.605684 
L 333.429677 137.605684 
L 333.429677 137.605684 
" style="fill:none;stroke:#6495ed;stroke-linecap:square;stroke-width:1.5;"/>
   </g>
   <g id="line2d_41">
    <defs>
     <path d="M -0 6 
L 6 -6 
L -6 -6 
z
" id="mce8d311f59" style="stroke:#6495ed;stroke-linejoin:miter;stroke-width:1.5;"/>
    </defs>
    <g>
     <use style="fill-opacity:0;stroke:#6495ed;stroke-linejoin:miter;stroke-width:1.5;" x="217.018647" xlink:href="#mce8d311f59" y="220.961072"/>
     <use style="fill-opacity:0;stroke:#6495ed;stroke-linejoin:miter;stroke-width:1.5;" x="282.464042" xlink:href="#mce8d311f59" y="161.196832"/>
     <use style="fill-opacity:0;stroke:#6495ed;stroke-linejoin:miter;stroke-width:1.5;" x="321.595124" xlink:href="#mce8d311f59" y="137.605684"/>
     <use style="fill-opacity:0;stroke:#6495ed;stroke-linejoin:miter;stroke-width:1.5;" x="333.429677" xlink:href="#mce8d311f59" y="137.605684"/>
    </g>
   </g>
   <g id="line2d_42">
    <path style="fill:none;stroke:#6495ed;stroke-linecap:square;stroke-width:1.5;"/>
    <g/>
   </g>
   <g id="line2d_43">
    <path clip-path="url(#pdd3ea25af7)" d="M 254.198341 193.175943 
" style="fill:none;stroke:#6495ed;stroke-linecap:square;stroke-width:1.5;"/>
    <defs>
     <path d="M -12 12 
L 12 -12 
M -12 -12 
L 12 12 
" id="m52e4d838c3" style="stroke:#6495ed;stroke-width:3;"/>
    </defs>
    <g clip-path="url(#pdd3ea25af7)">
     <use style="fill:#6495ed;stroke:#6495ed;stroke-width:3;" x="254.198341" xlink:href="#m52e4d838c3" y="193.175943"/>
    </g>
   </g>
   <g id="line2d_44">
    <defs>
     <path d="M 0 1.5 
C 0.397805 1.5 0.77937 1.341951 1.06066 1.06066 
C 1.341951 0.77937 1.5 0.397805 1.5 0 
C 1.5 -0.397805 1.341951 -0.77937 1.06066 -1.06066 
C 0.77937 -1.341951 0.397805 -1.5 0 -1.5 
C -0.397805 -1.5 -0.77937 -1.341951 -1.06066 -1.06066 
C -1.341951 -0.77937 -1.5 -0.397805 -1.5 0 
C -1.5 0.397805 -1.341951 0.77937 -1.06066 1.06066 
C -0.77937 1.341951 -0.397805 1.5 0 1.5 
z
" id="m44a5edf6a7" style="stroke:#ff0000;"/>
    </defs>
    <g>
     <use style="fill:#ff0000;stroke:#ff0000;" x="287.719106" xlink:href="#m44a5edf6a7" y="252.940182"/>
     <use style="fill:#ff0000;stroke:#ff0000;" x="287.719106" xlink:href="#m44a5edf6a7" y="252.940182"/>
    </g>
   </g>
   <g id="line2d_45">
    <path d="M 116.380902 294.88 
L 116.380902 294.355752 
L 128.409739 294.355752 
L 128.409739 293.831505 
L 128.766593 293.831505 
L 128.766593 292.783009 
L 130.424729 292.783009 
L 130.424729 292.258761 
L 132.269486 292.258761 
L 132.269486 291.210266 
L 136.256182 291.210266 
L 136.256182 290.686018 
L 137.022388 290.686018 
L 137.022388 290.161771 
L 138.94094 290.161771 
L 138.94094 289.637523 
L 142.532539 289.637523 
L 142.532539 289.113275 
L 143.841525 289.113275 
L 143.841525 288.589027 
L 146.312656 288.589027 
L 146.312656 287.540532 
L 151.624551 287.540532 
L 151.624551 286.492036 
L 151.691237 286.492036 
L 151.691237 285.967789 
L 151.883176 285.967789 
L 151.883176 285.443541 
L 152.079506 285.443541 
L 152.079506 284.919293 
L 153.145495 284.919293 
L 153.145495 283.870798 
L 153.358242 283.870798 
L 153.358242 283.34655 
L 154.321496 283.34655 
L 154.321496 282.822302 
L 156.192375 282.822302 
L 156.192375 281.773807 
L 157.800471 281.773807 
L 157.800471 280.725312 
L 158.137787 280.725312 
L 158.137787 279.676816 
L 159.072822 279.676816 
L 159.072822 279.152568 
L 160.196737 279.152568 
L 160.196737 278.628321 
L 162.242113 278.628321 
L 162.242113 277.579825 
L 162.630597 277.579825 
L 162.630597 277.055578 
L 163.673221 277.055578 
L 163.673221 276.53133 
L 166.002507 276.53133 
L 166.002507 274.958587 
L 166.247 274.958587 
L 166.247 274.434339 
L 166.77296 274.434339 
L 166.77296 273.910091 
L 168.881997 273.910091 
L 168.881997 273.385844 
L 171.149342 273.385844 
L 171.149342 272.861596 
L 171.804705 272.861596 
L 171.804705 272.337348 
L 174.371863 272.337348 
L 174.371863 271.288853 
L 175.013395 271.288853 
L 175.013395 270.764605 
L 175.117745 270.764605 
L 175.117745 269.716109 
L 176.378504 269.716109 
L 176.378504 269.191862 
L 177.341643 269.191862 
L 177.341643 268.667614 
L 180.760879 268.667614 
L 180.760879 268.143366 
L 182.005947 268.143366 
L 182.005947 267.619119 
L 182.070963 267.619119 
L 182.070963 266.570623 
L 182.150474 266.570623 
L 182.150474 266.046375 
L 182.387941 266.046375 
L 182.387941 264.99788 
L 190.126546 264.99788 
L 190.126546 264.473632 
L 191.692571 264.473632 
L 191.692571 263.949385 
L 191.709484 263.949385 
L 191.709484 263.425137 
L 201.343356 263.425137 
L 201.343356 262.376641 
L 254.301792 262.376641 
L 254.301792 261.328146 
L 254.461158 261.328146 
L 254.461158 260.803898 
L 254.568434 260.803898 
L 254.568434 260.279651 
L 266.205144 260.279651 
L 266.205144 259.755403 
L 266.238623 259.755403 
L 266.238623 259.231155 
L 266.253357 259.231155 
L 266.253357 258.706907 
L 266.253954 258.706907 
L 266.253954 258.18266 
L 273.196826 258.18266 
L 273.196826 256.609917 
L 273.232716 256.609917 
L 273.232716 255.561421 
L 273.250764 255.561421 
L 273.250764 255.037173 
L 278.106834 255.037173 
L 278.106834 254.512926 
L 278.122157 254.512926 
L 278.122157 253.988678 
L 285.0919 253.988678 
L 285.0919 253.46443 
L 287.719106 253.46443 
L 287.719106 252.940182 
L 333.429677 252.940182 
" style="fill:none;stroke:#ff0000;stroke-linecap:square;stroke-width:1.5;"/>
   </g>
   <g id="line2d_46">
    <defs>
     <path d="M 0 -6 
L -5.196152 -3 
L -5.196152 3 
L -0 6 
L 5.196152 3 
L 5.196152 -3 
z
" id="mc65f36d3ed" style="stroke:#ff0000;stroke-linejoin:miter;stroke-width:1.5;"/>
    </defs>
    <g>
     <use style="fill-opacity:0;stroke:#ff0000;stroke-linejoin:miter;stroke-width:1.5;" x="156.192375" xlink:href="#mc65f36d3ed" y="281.773807"/>
     <use style="fill-opacity:0;stroke:#ff0000;stroke-linejoin:miter;stroke-width:1.5;" x="201.343356" xlink:href="#mc65f36d3ed" y="263.425137"/>
     <use style="fill-opacity:0;stroke:#ff0000;stroke-linejoin:miter;stroke-width:1.5;" x="287.719106" xlink:href="#mc65f36d3ed" y="253.46443"/>
     <use style="fill-opacity:0;stroke:#ff0000;stroke-linejoin:miter;stroke-width:1.5;" x="287.719106" xlink:href="#mc65f36d3ed" y="252.940182"/>
     <use style="fill-opacity:0;stroke:#ff0000;stroke-linejoin:miter;stroke-width:1.5;" x="333.429677" xlink:href="#mc65f36d3ed" y="252.940182"/>
    </g>
   </g>
   <g id="line2d_47">
    <path style="fill:none;stroke:#ff0000;stroke-linecap:square;stroke-width:1.5;"/>
    <g/>
   </g>
   <g id="line2d_48">
    <path clip-path="url(#pdd3ea25af7)" d="M 254.198341 262.376641 
" style="fill:none;stroke:#ff0000;stroke-linecap:square;stroke-width:1.5;"/>
    <defs>
     <path d="M -12 12 
L 12 -12 
M -12 -12 
L 12 12 
" id="mdf9bee83d4" style="stroke:#ff0000;stroke-width:3;"/>
    </defs>
    <g clip-path="url(#pdd3ea25af7)">
     <use style="fill:#ff0000;stroke:#ff0000;stroke-width:3;" x="254.198341" xlink:href="#mdf9bee83d4" y="262.376641"/>
    </g>
   </g>
   <g id="line2d_49">
    <defs>
     <path d="M 0 1.5 
C 0.397805 1.5 0.77937 1.341951 1.06066 1.06066 
C 1.341951 0.77937 1.5 0.397805 1.5 0 
C 1.5 -0.397805 1.341951 -0.77937 1.06066 -1.06066 
C 0.77937 -1.341951 0.397805 -1.5 0 -1.5 
C -0.397805 -1.5 -0.77937 -1.341951 -1.06066 -1.06066 
C -1.341951 -0.77937 -1.5 -0.397805 -1.5 0 
C -1.5 0.397805 -1.341951 0.77937 -1.06066 1.06066 
C -0.77937 1.341951 -0.397805 1.5 0 1.5 
z
" id="md224737439" style="stroke:#9acd32;"/>
    </defs>
    <g>
     <use style="fill:#9acd32;stroke:#9acd32;" x="272.620505" xlink:href="#md224737439" y="279.152568"/>
     <use style="fill:#9acd32;stroke:#9acd32;" x="272.620505" xlink:href="#md224737439" y="279.152568"/>
    </g>
   </g>
   <g id="line2d_50">
    <path d="M 174.50846 294.88 
L 174.50846 294.355752 
L 181.452008 294.355752 
L 181.452008 293.831505 
L 184.507397 293.831505 
L 184.507397 293.307257 
L 188.972394 293.307257 
L 188.972394 292.258761 
L 192.569891 292.258761 
L 192.569891 291.734514 
L 207.61401 291.734514 
L 207.61401 291.210266 
L 214.603478 291.210266 
L 214.603478 290.686018 
L 216.181601 290.686018 
L 216.181601 290.161771 
L 216.190065 290.161771 
L 216.190065 289.637523 
L 217.345405 289.637523 
L 217.345405 289.113275 
L 218.805656 289.113275 
L 218.805656 288.589027 
L 227.33072 288.589027 
L 227.33072 288.06478 
L 227.949053 288.06478 
L 227.949053 287.540532 
L 230.78163 287.540532 
L 230.78163 287.016284 
L 238.666558 287.016284 
L 238.666558 286.492036 
L 238.850498 286.492036 
L 238.850498 285.967789 
L 240.702374 285.967789 
L 240.702374 285.443541 
L 242.864808 285.443541 
L 242.864808 284.919293 
L 244.111558 284.919293 
L 244.111558 284.395046 
L 248.486414 284.395046 
L 248.486414 283.870798 
L 254.496873 283.870798 
L 254.496873 283.34655 
L 254.497008 283.34655 
L 254.497008 282.822302 
L 254.497143 282.822302 
L 254.497143 282.298055 
L 256.109792 282.298055 
L 256.109792 281.773807 
L 261.374261 281.773807 
L 261.374261 281.249559 
L 262.390379 281.249559 
L 262.390379 280.725312 
L 269.331438 280.725312 
L 269.331438 280.201064 
L 270.083425 280.201064 
L 270.083425 279.676816 
L 272.620505 279.676816 
L 272.620505 279.152568 
L 333.429677 279.152568 
" style="fill:none;stroke:#9acd32;stroke-linecap:square;stroke-width:1.5;"/>
   </g>
   <g id="line2d_51">
    <defs>
     <path d="M 0 -6 
L -6 6 
L 6 6 
z
" id="mafeb53a388" style="stroke:#9acd32;stroke-linejoin:miter;stroke-width:1.5;"/>
    </defs>
    <g>
     <use style="fill-opacity:0;stroke:#9acd32;stroke-linejoin:miter;stroke-width:1.5;" x="262.390379" xlink:href="#mafeb53a388" y="280.725312"/>
     <use style="fill-opacity:0;stroke:#9acd32;stroke-linejoin:miter;stroke-width:1.5;" x="272.620505" xlink:href="#mafeb53a388" y="279.152568"/>
     <use style="fill-opacity:0;stroke:#9acd32;stroke-linejoin:miter;stroke-width:1.5;" x="272.620505" xlink:href="#mafeb53a388" y="279.152568"/>
     <use style="fill-opacity:0;stroke:#9acd32;stroke-linejoin:miter;stroke-width:1.5;" x="333.429677" xlink:href="#mafeb53a388" y="279.152568"/>
    </g>
   </g>
   <g id="line2d_52">
    <path style="fill:none;stroke:#9acd32;stroke-linecap:square;stroke-width:1.5;"/>
    <g/>
   </g>
   <g id="line2d_53">
    <path clip-path="url(#pdd3ea25af7)" d="M 214.583361 291.210266 
" style="fill:none;stroke:#9acd32;stroke-linecap:square;stroke-width:1.5;"/>
    <defs>
     <path d="M -12 12 
L 12 -12 
M -12 -12 
L 12 12 
" id="m17ddc5c7c4" style="stroke:#9acd32;stroke-width:3;"/>
    </defs>
    <g clip-path="url(#pdd3ea25af7)">
     <use style="fill:#9acd32;stroke:#9acd32;stroke-width:3;" x="214.583361" xlink:href="#m17ddc5c7c4" y="291.210266"/>
    </g>
   </g>
   <g id="line2d_54">
    <path clip-path="url(#pdd3ea25af7)" d="M 56.12 294.88 
L 56.12 294.88 
L 56.12 294.88 
L 56.12 294.88 
L 399.984 294.88 
" style="fill:none;stroke:#00bfbf;stroke-linecap:square;stroke-width:1.5;"/>
   </g>
   <g id="line2d_55">
    <defs>
     <path d="M 0 -6 
L -5.706339 -1.854102 
L -3.526712 4.854102 
L 3.526712 4.854102 
L 5.706339 -1.854102 
z
" id="m691fb86233" style="stroke:#00bfbf;stroke-linejoin:miter;stroke-width:1.5;"/>
    </defs>
    <g clip-path="url(#pdd3ea25af7)">
     <use style="fill-opacity:0;stroke:#00bfbf;stroke-linejoin:miter;stroke-width:1.5;" x="56.12" xlink:href="#m691fb86233" y="294.88"/>
    </g>
   </g>
   <g id="line2d_56">
    <path clip-path="url(#pdd3ea25af7)" style="fill:none;stroke:#00bfbf;stroke-linecap:square;stroke-width:1.5;"/>
    <g clip-path="url(#pdd3ea25af7)">
     <use style="fill-opacity:0;stroke:#00bfbf;stroke-linejoin:miter;stroke-width:1.5;" x="-1" xlink:href="#m691fb86233" y="562.246337"/>
     <use style="fill-opacity:0;stroke:#00bfbf;stroke-linejoin:miter;stroke-width:1.5;" x="399.984" xlink:href="#m691fb86233" y="562.246337"/>
    </g>
   </g>
   <g id="line2d_57">
    <path d="M 333.429677 294.88 
L 363.933742 289.532673 
" style="fill:none;stroke:#00bfbf;stroke-linecap:square;stroke-width:1.5;"/>
    <g>
     <use style="fill-opacity:0;stroke:#00bfbf;stroke-linejoin:miter;stroke-width:1.5;" x="333.429677" xlink:href="#m691fb86233" y="294.88"/>
     <use style="fill-opacity:0;stroke:#00bfbf;stroke-linejoin:miter;stroke-width:1.5;" x="363.933742" xlink:href="#m691fb86233" y="289.532673"/>
    </g>
   </g>
   <g id="line2d_58">
    <path d="M 333.429677 294.88 
L 363.933742 252.86529 
" style="fill:none;stroke:#000080;stroke-linecap:square;stroke-width:1.5;"/>
    <g>
     <use style="fill-opacity:0;stroke:#000080;stroke-width:1.5;" x="333.429677" xlink:href="#m603aa080a4" y="294.88"/>
     <use style="fill-opacity:0;stroke:#000080;stroke-width:1.5;" x="363.933742" xlink:href="#m603aa080a4" y="252.86529"/>
    </g>
   </g>
   <g id="line2d_59">
    <path d="M 333.429677 279.152568 
L 363.933742 216.197907 
" style="fill:none;stroke:#9acd32;stroke-linecap:square;stroke-width:1.5;"/>
    <g>
     <use style="fill-opacity:0;stroke:#9acd32;stroke-linejoin:miter;stroke-width:1.5;" x="333.429677" xlink:href="#mafeb53a388" y="279.152568"/>
     <use style="fill-opacity:0;stroke:#9acd32;stroke-linejoin:miter;stroke-width:1.5;" x="363.933742" xlink:href="#mafeb53a388" y="216.197907"/>
    </g>
   </g>
   <g id="line2d_60">
    <path d="M 333.429677 252.940182 
L 363.933742 179.530523 
" style="fill:none;stroke:#ff0000;stroke-linecap:square;stroke-width:1.5;"/>
    <g>
     <use style="fill-opacity:0;stroke:#ff0000;stroke-linejoin:miter;stroke-width:1.5;" x="333.429677" xlink:href="#mc65f36d3ed" y="252.940182"/>
     <use style="fill-opacity:0;stroke:#ff0000;stroke-linejoin:miter;stroke-width:1.5;" x="363.933742" xlink:href="#mc65f36d3ed" y="179.530523"/>
    </g>
   </g>
   <g id="line2d_61">
    <path d="M 333.429677 137.605684 
L 363.933742 142.86314 
" style="fill:none;stroke:#6495ed;stroke-linecap:square;stroke-width:1.5;"/>
    <g>
     <use style="fill-opacity:0;stroke:#6495ed;stroke-linejoin:miter;stroke-width:1.5;" x="333.429677" xlink:href="#mce8d311f59" y="137.605684"/>
     <use style="fill-opacity:0;stroke:#6495ed;stroke-linejoin:miter;stroke-width:1.5;" x="363.933742" xlink:href="#mce8d311f59" y="142.86314"/>
    </g>
   </g>
   <g id="line2d_62">
    <path d="M 333.429677 27.513663 
L 363.933742 106.195757 
" style="fill:none;stroke:#ff00ff;stroke-linecap:square;stroke-width:1.5;"/>
    <g>
     <use style="fill-opacity:0;stroke:#ff00ff;stroke-linejoin:miter;stroke-width:1.5;" x="333.429677" xlink:href="#m84bf7445de" y="27.513663"/>
     <use style="fill-opacity:0;stroke:#ff00ff;stroke-linejoin:miter;stroke-width:1.5;" x="363.933742" xlink:href="#m84bf7445de" y="106.195757"/>
    </g>
   </g>
   <g id="line2d_63">
    <path d="M 333.429677 27.513663 
L 363.933742 69.528373 
" style="fill:none;stroke:#ffa500;stroke-linecap:square;stroke-width:1.5;"/>
    <g>
     <use style="fill-opacity:0;stroke:#ffa500;stroke-linejoin:bevel;stroke-width:1.5;" x="333.429677" xlink:href="#m282e29262c" y="27.513663"/>
     <use style="fill-opacity:0;stroke:#ffa500;stroke-linejoin:bevel;stroke-width:1.5;" x="363.933742" xlink:href="#m282e29262c" y="69.528373"/>
    </g>
   </g>
   <g id="line2d_64">
    <path d="M 333.429677 294.88 
L 333.429677 27.513663 
" style="fill:none;stroke:#000000;stroke-linecap:square;stroke-width:1.5;"/>
   </g>
   <g id="patch_3">
    <path d="M 56.12 294.88 
L 56.12 24.84 
" style="fill:none;stroke:#000000;stroke-linecap:square;stroke-linejoin:miter;stroke-width:0.8;"/>
   </g>
   <g id="patch_4">
    <path d="M 399.984 294.88 
L 399.984 24.84 
" style="fill:none;stroke:#000000;stroke-linecap:square;stroke-linejoin:miter;stroke-width:0.8;"/>
   </g>
   <g id="patch_5">
    <path d="M 56.12 294.88 
L 399.984 294.88 
" style="fill:none;stroke:#000000;stroke-linecap:square;stroke-linejoin:miter;stroke-width:0.8;"/>
   </g>
   <g id="patch_6">
    <path d="M 56.12 24.84 
L 399.984 24.84 
" style="fill:none;stroke:#000000;stroke-linecap:square;stroke-linejoin:miter;stroke-width:0.8;"/>
   </g>
   <g id="text_14">
    <!-- hybrid -->
    <defs>
     <path d="M 54.890625 33.015625 
L 54.890625 0 
L 45.90625 0 
L 45.90625 32.71875 
Q 45.90625 40.484375 42.875 44.328125 
Q 39.84375 48.1875 33.796875 48.1875 
Q 26.515625 48.1875 22.3125 43.546875 
Q 18.109375 38.921875 18.109375 30.90625 
L 18.109375 0 
L 9.078125 0 
L 9.078125 75.984375 
L 18.109375 75.984375 
L 18.109375 46.1875 
Q 21.34375 51.125 25.703125 53.5625 
Q 30.078125 56 35.796875 56 
Q 45.21875 56 50.046875 50.171875 
Q 54.890625 44.34375 54.890625 33.015625 
z
" id="DejaVuSans-68"/>
     <path d="M 32.171875 -5.078125 
Q 28.375 -14.84375 24.75 -17.8125 
Q 21.140625 -20.796875 15.09375 -20.796875 
L 7.90625 -20.796875 
L 7.90625 -13.28125 
L 13.1875 -13.28125 
Q 16.890625 -13.28125 18.9375 -11.515625 
Q 21 -9.765625 23.484375 -3.21875 
L 25.09375 0.875 
L 2.984375 54.6875 
L 12.5 54.6875 
L 29.59375 11.921875 
L 46.6875 54.6875 
L 56.203125 54.6875 
z
" id="DejaVuSans-79"/>
     <path d="M 48.6875 27.296875 
Q 48.6875 37.203125 44.609375 42.84375 
Q 40.53125 48.484375 33.40625 48.484375 
Q 26.265625 48.484375 22.1875 42.84375 
Q 18.109375 37.203125 18.109375 27.296875 
Q 18.109375 17.390625 22.1875 11.75 
Q 26.265625 6.109375 33.40625 6.109375 
Q 40.53125 6.109375 44.609375 11.75 
Q 48.6875 17.390625 48.6875 27.296875 
z
M 18.109375 46.390625 
Q 20.953125 51.265625 25.265625 53.625 
Q 29.59375 56 35.59375 56 
Q 45.5625 56 51.78125 48.09375 
Q 58.015625 40.1875 58.015625 27.296875 
Q 58.015625 14.40625 51.78125 6.484375 
Q 45.5625 -1.421875 35.59375 -1.421875 
Q 29.59375 -1.421875 25.265625 0.953125 
Q 20.953125 3.328125 18.109375 8.203125 
L 18.109375 0 
L 9.078125 0 
L 9.078125 75.984375 
L 18.109375 75.984375 
z
" id="DejaVuSans-62"/>
    </defs>
    <g transform="translate(369.479935 294.223611)scale(0.17 -0.17)">
     <use xlink:href="#DejaVuSans-68"/>
     <use x="63.378906" xlink:href="#DejaVuSans-79"/>
     <use x="122.558594" xlink:href="#DejaVuSans-62"/>
     <use x="186.035156" xlink:href="#DejaVuSans-72"/>
     <use x="227.148438" xlink:href="#DejaVuSans-69"/>
     <use x="254.931641" xlink:href="#DejaVuSans-64"/>
    </g>
   </g>
   <g id="text_15">
    <!-- 2hybrid -->
    <g transform="translate(369.479935 257.556227)scale(0.17 -0.17)">
     <use xlink:href="#DejaVuSans-32"/>
     <use x="63.623047" xlink:href="#DejaVuSans-68"/>
     <use x="127.001953" xlink:href="#DejaVuSans-79"/>
     <use x="186.181641" xlink:href="#DejaVuSans-62"/>
     <use x="249.658203" xlink:href="#DejaVuSans-72"/>
     <use x="290.771484" xlink:href="#DejaVuSans-69"/>
     <use x="318.554688" xlink:href="#DejaVuSans-64"/>
    </g>
   </g>
   <g id="text_16">
    <!-- Rosenbroc -->
    <defs>
     <path d="M 44.390625 34.1875 
Q 47.5625 33.109375 50.5625 29.59375 
Q 53.5625 26.078125 56.59375 19.921875 
L 66.609375 0 
L 56 0 
L 46.6875 18.703125 
Q 43.0625 26.03125 39.671875 28.421875 
Q 36.28125 30.8125 30.421875 30.8125 
L 19.671875 30.8125 
L 19.671875 0 
L 9.8125 0 
L 9.8125 72.90625 
L 32.078125 72.90625 
Q 44.578125 72.90625 50.734375 67.671875 
Q 56.890625 62.453125 56.890625 51.90625 
Q 56.890625 45.015625 53.6875 40.46875 
Q 50.484375 35.9375 44.390625 34.1875 
z
M 19.671875 64.796875 
L 19.671875 38.921875 
L 32.078125 38.921875 
Q 39.203125 38.921875 42.84375 42.21875 
Q 46.484375 45.515625 46.484375 51.90625 
Q 46.484375 58.296875 42.84375 61.546875 
Q 39.203125 64.796875 32.078125 64.796875 
z
" id="DejaVuSans-52"/>
    </defs>
    <g transform="translate(369.479935 220.888844)scale(0.17 -0.17)">
     <use xlink:href="#DejaVuSans-52"/>
     <use x="69.419922" xlink:href="#DejaVuSans-6f"/>
     <use x="130.601562" xlink:href="#DejaVuSans-73"/>
     <use x="182.701172" xlink:href="#DejaVuSans-65"/>
     <use x="244.224609" xlink:href="#DejaVuSans-6e"/>
     <use x="307.603516" xlink:href="#DejaVuSans-62"/>
     <use x="371.080078" xlink:href="#DejaVuSans-72"/>
     <use x="412.162109" xlink:href="#DejaVuSans-6f"/>
     <use x="473.34375" xlink:href="#DejaVuSans-63"/>
    </g>
   </g>
   <g id="text_17">
    <!-- PSO -->
    <defs>
     <path d="M 19.671875 64.796875 
L 19.671875 37.40625 
L 32.078125 37.40625 
Q 38.96875 37.40625 42.71875 40.96875 
Q 46.484375 44.53125 46.484375 51.125 
Q 46.484375 57.671875 42.71875 61.234375 
Q 38.96875 64.796875 32.078125 64.796875 
z
M 9.8125 72.90625 
L 32.078125 72.90625 
Q 44.34375 72.90625 50.609375 67.359375 
Q 56.890625 61.8125 56.890625 51.125 
Q 56.890625 40.328125 50.609375 34.8125 
Q 44.34375 29.296875 32.078125 29.296875 
L 19.671875 29.296875 
L 19.671875 0 
L 9.8125 0 
z
" id="DejaVuSans-50"/>
     <path d="M 53.515625 70.515625 
L 53.515625 60.890625 
Q 47.90625 63.578125 42.921875 64.890625 
Q 37.9375 66.21875 33.296875 66.21875 
Q 25.25 66.21875 20.875 63.09375 
Q 16.5 59.96875 16.5 54.203125 
Q 16.5 49.359375 19.40625 46.890625 
Q 22.3125 44.4375 30.421875 42.921875 
L 36.375 41.703125 
Q 47.40625 39.59375 52.65625 34.296875 
Q 57.90625 29 57.90625 20.125 
Q 57.90625 9.515625 50.796875 4.046875 
Q 43.703125 -1.421875 29.984375 -1.421875 
Q 24.8125 -1.421875 18.96875 -0.25 
Q 13.140625 0.921875 6.890625 3.21875 
L 6.890625 13.375 
Q 12.890625 10.015625 18.65625 8.296875 
Q 24.421875 6.59375 29.984375 6.59375 
Q 38.421875 6.59375 43.015625 9.90625 
Q 47.609375 13.234375 47.609375 19.390625 
Q 47.609375 24.75 44.3125 27.78125 
Q 41.015625 30.8125 33.5 32.328125 
L 27.484375 33.5 
Q 16.453125 35.6875 11.515625 40.375 
Q 6.59375 45.0625 6.59375 53.421875 
Q 6.59375 63.09375 13.40625 68.65625 
Q 20.21875 74.21875 32.171875 74.21875 
Q 37.3125 74.21875 42.625 73.28125 
Q 47.953125 72.359375 53.515625 70.515625 
z
" id="DejaVuSans-53"/>
     <path d="M 39.40625 66.21875 
Q 28.65625 66.21875 22.328125 58.203125 
Q 16.015625 50.203125 16.015625 36.375 
Q 16.015625 22.609375 22.328125 14.59375 
Q 28.65625 6.59375 39.40625 6.59375 
Q 50.140625 6.59375 56.421875 14.59375 
Q 62.703125 22.609375 62.703125 36.375 
Q 62.703125 50.203125 56.421875 58.203125 
Q 50.140625 66.21875 39.40625 66.21875 
z
M 39.40625 74.21875 
Q 54.734375 74.21875 63.90625 63.9375 
Q 73.09375 53.65625 73.09375 36.375 
Q 73.09375 19.140625 63.90625 8.859375 
Q 54.734375 -1.421875 39.40625 -1.421875 
Q 24.03125 -1.421875 14.8125 8.828125 
Q 5.609375 19.09375 5.609375 36.375 
Q 5.609375 53.65625 14.8125 63.9375 
Q 24.03125 74.21875 39.40625 74.21875 
z
" id="DejaVuSans-4f"/>
    </defs>
    <g transform="translate(369.479935 184.221461)scale(0.17 -0.17)">
     <use xlink:href="#DejaVuSans-50"/>
     <use x="60.302734" xlink:href="#DejaVuSans-53"/>
     <use x="123.779297" xlink:href="#DejaVuSans-4f"/>
    </g>
   </g>
   <g id="text_18">
    <!-- GA -->
    <defs>
     <path d="M 59.515625 10.40625 
L 59.515625 29.984375 
L 43.40625 29.984375 
L 43.40625 38.09375 
L 69.28125 38.09375 
L 69.28125 6.78125 
Q 63.578125 2.734375 56.6875 0.65625 
Q 49.8125 -1.421875 42 -1.421875 
Q 24.90625 -1.421875 15.25 8.5625 
Q 5.609375 18.5625 5.609375 36.375 
Q 5.609375 54.25 15.25 64.234375 
Q 24.90625 74.21875 42 74.21875 
Q 49.125 74.21875 55.546875 72.453125 
Q 61.96875 70.703125 67.390625 67.28125 
L 67.390625 56.78125 
Q 61.921875 61.421875 55.765625 63.765625 
Q 49.609375 66.109375 42.828125 66.109375 
Q 29.4375 66.109375 22.71875 58.640625 
Q 16.015625 51.171875 16.015625 36.375 
Q 16.015625 21.625 22.71875 14.15625 
Q 29.4375 6.6875 42.828125 6.6875 
Q 48.046875 6.6875 52.140625 7.59375 
Q 56.25 8.5 59.515625 10.40625 
z
" id="DejaVuSans-47"/>
     <path d="M 34.1875 63.1875 
L 20.796875 26.90625 
L 47.609375 26.90625 
z
M 28.609375 72.90625 
L 39.796875 72.90625 
L 67.578125 0 
L 57.328125 0 
L 50.6875 18.703125 
L 17.828125 18.703125 
L 11.1875 0 
L 0.78125 0 
z
" id="DejaVuSans-41"/>
    </defs>
    <g transform="translate(369.479935 147.554078)scale(0.17 -0.17)">
     <use xlink:href="#DejaVuSans-47"/>
     <use x="77.490234" xlink:href="#DejaVuSans-41"/>
    </g>
   </g>
   <g id="text_19">
    <!-- ALPS -->
    <defs>
     <path d="M 9.8125 72.90625 
L 19.671875 72.90625 
L 19.671875 8.296875 
L 55.171875 8.296875 
L 55.171875 0 
L 9.8125 0 
z
" id="DejaVuSans-4c"/>
    </defs>
    <g transform="translate(369.479935 110.886694)scale(0.17 -0.17)">
     <use xlink:href="#DejaVuSans-41"/>
     <use x="68.408203" xlink:href="#DejaVuSans-4c"/>
     <use x="124.121094" xlink:href="#DejaVuSans-50"/>
     <use x="184.423828" xlink:href="#DejaVuSans-53"/>
    </g>
   </g>
   <g id="text_20">
    <!-- DASA -->
    <defs>
     <path d="M 19.671875 64.796875 
L 19.671875 8.109375 
L 31.59375 8.109375 
Q 46.6875 8.109375 53.6875 14.9375 
Q 60.6875 21.78125 60.6875 36.53125 
Q 60.6875 51.171875 53.6875 57.984375 
Q 46.6875 64.796875 31.59375 64.796875 
z
M 9.8125 72.90625 
L 30.078125 72.90625 
Q 51.265625 72.90625 61.171875 64.09375 
Q 71.09375 55.28125 71.09375 36.53125 
Q 71.09375 17.671875 61.125 8.828125 
Q 51.171875 0 30.078125 0 
L 9.8125 0 
z
" id="DejaVuSans-44"/>
    </defs>
    <g transform="translate(369.479935 74.219311)scale(0.17 -0.17)">
     <use xlink:href="#DejaVuSans-44"/>
     <use x="76.986328" xlink:href="#DejaVuSans-41"/>
     <use x="145.394531" xlink:href="#DejaVuSans-53"/>
     <use x="208.886719" xlink:href="#DejaVuSans-41"/>
    </g>
   </g>
   <g id="text_21">
    <!-- best 2009 -->
    <defs>
     <path d="M 10.984375 1.515625 
L 10.984375 10.5 
Q 14.703125 8.734375 18.5 7.8125 
Q 22.3125 6.890625 25.984375 6.890625 
Q 35.75 6.890625 40.890625 13.453125 
Q 46.046875 20.015625 46.78125 33.40625 
Q 43.953125 29.203125 39.59375 26.953125 
Q 35.25 24.703125 29.984375 24.703125 
Q 19.046875 24.703125 12.671875 31.3125 
Q 6.296875 37.9375 6.296875 49.421875 
Q 6.296875 60.640625 12.9375 67.421875 
Q 19.578125 74.21875 30.609375 74.21875 
Q 43.265625 74.21875 49.921875 64.515625 
Q 56.59375 54.828125 56.59375 36.375 
Q 56.59375 19.140625 48.40625 8.859375 
Q 40.234375 -1.421875 26.421875 -1.421875 
Q 22.703125 -1.421875 18.890625 -0.6875 
Q 15.09375 0.046875 10.984375 1.515625 
z
M 30.609375 32.421875 
Q 37.25 32.421875 41.125 36.953125 
Q 45.015625 41.5 45.015625 49.421875 
Q 45.015625 57.28125 41.125 61.84375 
Q 37.25 66.40625 30.609375 66.40625 
Q 23.96875 66.40625 20.09375 61.84375 
Q 16.21875 57.28125 16.21875 49.421875 
Q 16.21875 41.5 20.09375 36.953125 
Q 23.96875 32.421875 30.609375 32.421875 
z
" id="DejaVuSans-39"/>
    </defs>
    <g transform="translate(369.479935 37.551928)scale(0.17 -0.17)">
     <use xlink:href="#DejaVuSans-62"/>
     <use x="63.476562" xlink:href="#DejaVuSans-65"/>
     <use x="125" xlink:href="#DejaVuSans-73"/>
     <use x="177.099609" xlink:href="#DejaVuSans-74"/>
     <use x="216.308594" xlink:href="#DejaVuSans-20"/>
     <use x="248.095703" xlink:href="#DejaVuSans-32"/>
     <use x="311.71875" xlink:href="#DejaVuSans-30"/>
     <use x="375.341797" xlink:href="#DejaVuSans-30"/>
     <use x="438.964844" xlink:href="#DejaVuSans-39"/>
    </g>
   </g>
   <g id="text_22">
    <!-- bbob f4, 10-D -->
    <g transform="translate(59.55864 35.290806)scale(0.102 -0.102)">
     <use xlink:href="#DejaVuSans-62"/>
     <use x="63.476562" xlink:href="#DejaVuSans-62"/>
     <use x="126.953125" xlink:href="#DejaVuSans-6f"/>
     <use x="188.134766" xlink:href="#DejaVuSans-62"/>
     <use x="251.611328" xlink:href="#DejaVuSans-20"/>
     <use x="283.398438" xlink:href="#DejaVuSans-66"/>
     <use x="318.603516" xlink:href="#DejaVuSans-34"/>
     <use x="382.226562" xlink:href="#DejaVuSans-2c"/>
     <use x="414.013672" xlink:href="#DejaVuSans-20"/>
     <use x="445.800781" xlink:href="#DejaVuSans-31"/>
     <use x="509.423828" xlink:href="#DejaVuSans-30"/>
     <use x="573.046875" xlink:href="#DejaVuSans-2d"/>
     <use x="609.130859" xlink:href="#DejaVuSans-44"/>
    </g>
    <!-- 51 targets: 100..1e-08 -->
    <defs>
     <path d="M 10.796875 72.90625 
L 49.515625 72.90625 
L 49.515625 64.59375 
L 19.828125 64.59375 
L 19.828125 46.734375 
Q 21.96875 47.46875 24.109375 47.828125 
Q 26.265625 48.1875 28.421875 48.1875 
Q 40.625 48.1875 47.75 41.5 
Q 54.890625 34.8125 54.890625 23.390625 
Q 54.890625 11.625 47.5625 5.09375 
Q 40.234375 -1.421875 26.90625 -1.421875 
Q 22.3125 -1.421875 17.546875 -0.640625 
Q 12.796875 0.140625 7.71875 1.703125 
L 7.71875 11.625 
Q 12.109375 9.234375 16.796875 8.0625 
Q 21.484375 6.890625 26.703125 6.890625 
Q 35.15625 6.890625 40.078125 11.328125 
Q 45.015625 15.765625 45.015625 23.390625 
Q 45.015625 31 40.078125 35.4375 
Q 35.15625 39.890625 26.703125 39.890625 
Q 22.75 39.890625 18.8125 39.015625 
Q 14.890625 38.140625 10.796875 36.28125 
z
" id="DejaVuSans-35"/>
     <path d="M 11.71875 12.40625 
L 22.015625 12.40625 
L 22.015625 0 
L 11.71875 0 
z
M 11.71875 51.703125 
L 22.015625 51.703125 
L 22.015625 39.3125 
L 11.71875 39.3125 
z
" id="DejaVuSans-3a"/>
    </defs>
    <g transform="translate(59.55864 46.712575)scale(0.102 -0.102)">
     <use xlink:href="#DejaVuSans-35"/>
     <use x="63.623047" xlink:href="#DejaVuSans-31"/>
     <use x="127.246094" xlink:href="#DejaVuSans-20"/>
     <use x="159.033203" xlink:href="#DejaVuSans-74"/>
     <use x="198.242188" xlink:href="#DejaVuSans-61"/>
     <use x="259.521484" xlink:href="#DejaVuSans-72"/>
     <use x="300.619141" xlink:href="#DejaVuSans-67"/>
     <use x="364.095703" xlink:href="#DejaVuSans-65"/>
     <use x="425.619141" xlink:href="#DejaVuSans-74"/>
     <use x="464.828125" xlink:href="#DejaVuSans-73"/>
     <use x="516.927734" xlink:href="#DejaVuSans-3a"/>
     <use x="550.619141" xlink:href="#DejaVuSans-20"/>
     <use x="582.40625" xlink:href="#DejaVuSans-31"/>
     <use x="646.029297" xlink:href="#DejaVuSans-30"/>
     <use x="709.652344" xlink:href="#DejaVuSans-30"/>
     <use x="773.275391" xlink:href="#DejaVuSans-2e"/>
     <use x="805.0625" xlink:href="#DejaVuSans-2e"/>
     <use x="836.849609" xlink:href="#DejaVuSans-31"/>
     <use x="900.472656" xlink:href="#DejaVuSans-65"/>
     <use x="961.996094" xlink:href="#DejaVuSans-2d"/>
     <use x="998.080078" xlink:href="#DejaVuSans-30"/>
     <use x="1061.703125" xlink:href="#DejaVuSans-38"/>
    </g>
    <!-- 15 instances -->
    <g transform="translate(59.55864 58.134344)scale(0.102 -0.102)">
     <use xlink:href="#DejaVuSans-31"/>
     <use x="63.623047" xlink:href="#DejaVuSans-35"/>
     <use x="127.246094" xlink:href="#DejaVuSans-20"/>
     <use x="159.033203" xlink:href="#DejaVuSans-69"/>
     <use x="186.816406" xlink:href="#DejaVuSans-6e"/>
     <use x="250.195312" xlink:href="#DejaVuSans-73"/>
     <use x="302.294922" xlink:href="#DejaVuSans-74"/>
     <use x="341.503906" xlink:href="#DejaVuSans-61"/>
     <use x="402.783203" xlink:href="#DejaVuSans-6e"/>
     <use x="466.162109" xlink:href="#DejaVuSans-63"/>
     <use x="521.142578" xlink:href="#DejaVuSans-65"/>
     <use x="582.666016" xlink:href="#DejaVuSans-73"/>
    </g>
   </g>
   <g id="text_23">
    <!-- v-coco-version -->
    <g style="fill:#808080;" transform="translate(191.556688 290.099912)scale(0.1 -0.1)">
     <use xlink:href="#DejaVuSans-76"/>
     <use x="59.148438" xlink:href="#DejaVuSans-2d"/>
     <use x="95.232422" xlink:href="#DejaVuSans-63"/>
     <use x="150.212891" xlink:href="#DejaVuSans-6f"/>
     <use x="211.394531" xlink:href="#DejaVuSans-63"/>
     <use x="266.375" xlink:href="#DejaVuSans-6f"/>
     <use x="327.572266" xlink:href="#DejaVuSans-2d"/>
     <use x="363.625" xlink:href="#DejaVuSans-76"/>
     <use x="422.804688" xlink:href="#DejaVuSans-65"/>
     <use x="484.328125" xlink:href="#DejaVuSans-72"/>
     <use x="525.441406" xlink:href="#DejaVuSans-73"/>
     <use x="577.541016" xlink:href="#DejaVuSans-69"/>
     <use x="605.324219" xlink:href="#DejaVuSans-6f"/>
     <use x="666.505859" xlink:href="#DejaVuSans-6e"/>
    </g>
   </g>
   <g id="text_24">
    <!-- 4 Skew Rastrigin-Bueche separ -->
    <defs>
     <path d="M 9.078125 75.984375 
L 18.109375 75.984375 
L 18.109375 31.109375 
L 44.921875 54.6875 
L 56.390625 54.6875 
L 27.390625 29.109375 
L 57.625 0 
L 45.90625 0 
L 18.109375 26.703125 
L 18.109375 0 
L 9.078125 0 
z
" id="DejaVuSans-6b"/>
     <path d="M 4.203125 54.6875 
L 13.1875 54.6875 
L 24.421875 12.015625 
L 35.59375 54.6875 
L 46.1875 54.6875 
L 57.421875 12.015625 
L 68.609375 54.6875 
L 77.59375 54.6875 
L 63.28125 0 
L 52.6875 0 
L 40.921875 44.828125 
L 29.109375 0 
L 18.5 0 
z
" id="DejaVuSans-77"/>
     <path d="M 19.671875 34.8125 
L 19.671875 8.109375 
L 35.5 8.109375 
Q 43.453125 8.109375 47.28125 11.40625 
Q 51.125 14.703125 51.125 21.484375 
Q 51.125 28.328125 47.28125 31.5625 
Q 43.453125 34.8125 35.5 34.8125 
z
M 19.671875 64.796875 
L 19.671875 42.828125 
L 34.28125 42.828125 
Q 41.5 42.828125 45.03125 45.53125 
Q 48.578125 48.25 48.578125 53.8125 
Q 48.578125 59.328125 45.03125 62.0625 
Q 41.5 64.796875 34.28125 64.796875 
z
M 9.8125 72.90625 
L 35.015625 72.90625 
Q 46.296875 72.90625 52.390625 68.21875 
Q 58.5 63.53125 58.5 54.890625 
Q 58.5 48.1875 55.375 44.234375 
Q 52.25 40.28125 46.1875 39.3125 
Q 53.46875 37.75 57.5 32.78125 
Q 61.53125 27.828125 61.53125 20.40625 
Q 61.53125 10.640625 54.890625 5.3125 
Q 48.25 0 35.984375 0 
L 9.8125 0 
z
" id="DejaVuSans-42"/>
    </defs>
    <g transform="translate(72.2395 18.84)scale(0.2 -0.2)">
     <use xlink:href="#DejaVuSans-34"/>
     <use x="63.623047" xlink:href="#DejaVuSans-20"/>
     <use x="95.410156" xlink:href="#DejaVuSans-53"/>
     <use x="158.886719" xlink:href="#DejaVuSans-6b"/>
     <use x="216.75" xlink:href="#DejaVuSans-65"/>
     <use x="278.273438" xlink:href="#DejaVuSans-77"/>
     <use x="360.060547" xlink:href="#DejaVuSans-20"/>
     <use x="391.847656" xlink:href="#DejaVuSans-52"/>
     <use x="461.298828" xlink:href="#DejaVuSans-61"/>
     <use x="522.578125" xlink:href="#DejaVuSans-73"/>
     <use x="574.677734" xlink:href="#DejaVuSans-74"/>
     <use x="613.886719" xlink:href="#DejaVuSans-72"/>
     <use x="655" xlink:href="#DejaVuSans-69"/>
     <use x="682.783203" xlink:href="#DejaVuSans-67"/>
     <use x="746.259766" xlink:href="#DejaVuSans-69"/>
     <use x="774.042969" xlink:href="#DejaVuSans-6e"/>
     <use x="837.421875" xlink:href="#DejaVuSans-2d"/>
     <use x="873.458984" xlink:href="#DejaVuSans-42"/>
     <use x="942.0625" xlink:href="#DejaVuSans-75"/>
     <use x="1005.441406" xlink:href="#DejaVuSans-65"/>
     <use x="1066.964844" xlink:href="#DejaVuSans-63"/>
     <use x="1121.945312" xlink:href="#DejaVuSans-68"/>
     <use x="1185.324219" xlink:href="#DejaVuSans-65"/>
     <use x="1246.847656" xlink:href="#DejaVuSans-20"/>
     <use x="1278.634766" xlink:href="#DejaVuSans-73"/>
     <use x="1330.734375" xlink:href="#DejaVuSans-65"/>
     <use x="1392.257812" xlink:href="#DejaVuSans-70"/>
     <use x="1455.734375" xlink:href="#DejaVuSans-61"/>
     <use x="1517.013672" xlink:href="#DejaVuSans-72"/>
    </g>
   </g>
  </g>
 </g>
 <defs>
  <clipPath id="pdd3ea25af7">
   <rect height="270.04" width="343.864" x="56.12" y="24.84"/>
  </clipPath>
 </defs>
</svg>
