<?xml version="1.0" encoding="utf-8" standalone="no"?>
<!DOCTYPE svg PUBLIC "-//W3C//DTD SVG 1.1//EN"
  "http://www.w3.org/Graphics/SVG/1.1/DTD/svg11.dtd">
<!-- Created with matplotlib (http://matplotlib.org/) -->
<svg height="345.6pt" version="1.1" viewBox="0 0 460.8 345.6" width="460.8pt" xmlns="http://www.w3.org/2000/svg" xmlns:xlink="http://www.w3.org/1999/xlink">
 <defs>
  <style type="text/css">
*{stroke-linecap:butt;stroke-linejoin:round;}
  </style>
 </defs>
 <g id="figure_1">
  <g id="patch_1">
   <path d="M 0 345.6 
L 460.8 345.6 
L 460.8 0 
L 0 0 
z
" style="fill:#ffffff;"/>
  </g>
  <g id="axes_1">
   <g id="patch_2">
    <path d="M 56.12 294.88 
L 399.984 294.88 
L 399.984 24.84 
L 56.12 24.84 
z
" style="fill:#ffffff;"/>
   </g>
   <g id="line2d_1">
    <path d="M 66.704187 294.88 
L 66.704187 289.637523 
L 67.609915 289.637523 
L 67.609915 284.395046 
L 68.470338 284.395046 
L 68.470338 27.513663 
L 333.429677 27.513663 
" style="fill:none;stroke:#f5deb3;stroke-linecap:square;stroke-width:6;"/>
   </g>
   <g id="line2d_2">
    <defs>
     <path d="M -0 7.778175 
L 7.778175 0 
L 0 -7.778175 
L -7.778175 -0 
z
" id="m39d4fe1bc8" style="stroke:#f5deb3;stroke-linejoin:miter;stroke-width:1.5;"/>
    </defs>
    <g>
     <use style="fill:#f5deb3;stroke:#f5deb3;stroke-linejoin:miter;stroke-width:1.5;" x="67.609915" xlink:href="#m39d4fe1bc8" y="284.395046"/>
     <use style="fill:#f5deb3;stroke:#f5deb3;stroke-linejoin:miter;stroke-width:1.5;" x="68.470338" xlink:href="#m39d4fe1bc8" y="284.395046"/>
     <use style="fill:#f5deb3;stroke:#f5deb3;stroke-linejoin:miter;stroke-width:1.5;" x="68.470338" xlink:href="#m39d4fe1bc8" y="27.513663"/>
     <use style="fill:#f5deb3;stroke:#f5deb3;stroke-linejoin:miter;stroke-width:1.5;" x="68.470338" xlink:href="#m39d4fe1bc8" y="27.513663"/>
     <use style="fill:#f5deb3;stroke:#f5deb3;stroke-linejoin:miter;stroke-width:1.5;" x="333.429677" xlink:href="#m39d4fe1bc8" y="27.513663"/>
    </g>
   </g>
   <g id="line2d_3">
    <path style="fill:none;stroke:#f5deb3;stroke-linecap:square;stroke-width:6;"/>
    <g/>
   </g>
   <g id="line2d_4">
    <path d="M 333.429677 27.513663 
L 363.933742 32.86099 
" style="fill:none;stroke:#f5deb3;stroke-linecap:square;stroke-width:6;"/>
    <g>
     <use style="fill:#f5deb3;stroke:#f5deb3;stroke-linejoin:miter;stroke-width:1.5;" x="333.429677" xlink:href="#m39d4fe1bc8" y="27.513663"/>
     <use style="fill:#f5deb3;stroke:#f5deb3;stroke-linejoin:miter;stroke-width:1.5;" x="363.933742" xlink:href="#m39d4fe1bc8" y="32.86099"/>
    </g>
   </g>
   <g id="matplotlib.axis_1">
    <g id="xtick_1">
     <g id="line2d_5">
      <path clip-path="url(#pe490ed5980)" d="M 56.12 294.88 
L 56.12 24.84 
" style="fill:none;stroke:#b0b0b0;stroke-linecap:square;stroke-width:0.8;"/>
     </g>
     <g id="line2d_6">
      <defs>
       <path d="M 0 0 
L 0 3.5 
" id="mcb2e1370c8" style="stroke:#000000;stroke-width:0.8;"/>
      </defs>
      <g>
       <use style="stroke:#000000;stroke-width:0.8;" x="56.12" xlink:href="#mcb2e1370c8" y="294.88"/>
      </g>
     </g>
     <g id="text_1">
      <!-- 0 -->
      <defs>
       <path d="M 31.78125 66.40625 
Q 24.171875 66.40625 20.328125 58.90625 
Q 16.5 51.421875 16.5 36.375 
Q 16.5 21.390625 20.328125 13.890625 
Q 24.171875 6.390625 31.78125 6.390625 
Q 39.453125 6.390625 43.28125 13.890625 
Q 47.125 21.390625 47.125 36.375 
Q 47.125 51.421875 43.28125 58.90625 
Q 39.453125 66.40625 31.78125 66.40625 
z
M 31.78125 74.21875 
Q 44.046875 74.21875 50.515625 64.515625 
Q 56.984375 54.828125 56.984375 36.375 
Q 56.984375 17.96875 50.515625 8.265625 
Q 44.046875 -1.421875 31.78125 -1.421875 
Q 19.53125 -1.421875 13.0625 8.265625 
Q 6.59375 17.96875 6.59375 36.375 
Q 6.59375 54.828125 13.0625 64.515625 
Q 19.53125 74.21875 31.78125 74.21875 
z
" id="DejaVuSans-30"/>
      </defs>
      <g transform="translate(49.7575 317.076875)scale(0.2 -0.2)">
       <use xlink:href="#DejaVuSans-30"/>
      </g>
     </g>
    </g>
    <g id="xtick_2">
     <g id="line2d_7">
      <path clip-path="url(#pe490ed5980)" d="M 135.351336 294.88 
L 135.351336 24.84 
" style="fill:none;stroke:#b0b0b0;stroke-linecap:square;stroke-width:0.8;"/>
     </g>
     <g id="line2d_8">
      <g>
       <use style="stroke:#000000;stroke-width:0.8;" x="135.351336" xlink:href="#mcb2e1370c8" y="294.88"/>
      </g>
     </g>
     <g id="text_2">
      <!-- 2 -->
      <defs>
       <path d="M 19.1875 8.296875 
L 53.609375 8.296875 
L 53.609375 0 
L 7.328125 0 
L 7.328125 8.296875 
Q 12.9375 14.109375 22.625 23.890625 
Q 32.328125 33.6875 34.8125 36.53125 
Q 39.546875 41.84375 41.421875 45.53125 
Q 43.3125 49.21875 43.3125 52.78125 
Q 43.3125 58.59375 39.234375 62.25 
Q 35.15625 65.921875 28.609375 65.921875 
Q 23.96875 65.921875 18.8125 64.3125 
Q 13.671875 62.703125 7.8125 59.421875 
L 7.8125 69.390625 
Q 13.765625 71.78125 18.9375 73 
Q 24.125 74.21875 28.421875 74.21875 
Q 39.75 74.21875 46.484375 68.546875 
Q 53.21875 62.890625 53.21875 53.421875 
Q 53.21875 48.921875 51.53125 44.890625 
Q 49.859375 40.875 45.40625 35.40625 
Q 44.1875 33.984375 37.640625 27.21875 
Q 31.109375 20.453125 19.1875 8.296875 
z
" id="DejaVuSans-32"/>
      </defs>
      <g transform="translate(128.988836 317.076875)scale(0.2 -0.2)">
       <use xlink:href="#DejaVuSans-32"/>
      </g>
     </g>
    </g>
    <g id="xtick_3">
     <g id="line2d_9">
      <path clip-path="url(#pe490ed5980)" d="M 214.582673 294.88 
L 214.582673 24.84 
" style="fill:none;stroke:#b0b0b0;stroke-linecap:square;stroke-width:0.8;"/>
     </g>
     <g id="line2d_10">
      <g>
       <use style="stroke:#000000;stroke-width:0.8;" x="214.582673" xlink:href="#mcb2e1370c8" y="294.88"/>
      </g>
     </g>
     <g id="text_3">
      <!-- 4 -->
      <defs>
       <path d="M 37.796875 64.3125 
L 12.890625 25.390625 
L 37.796875 25.390625 
z
M 35.203125 72.90625 
L 47.609375 72.90625 
L 47.609375 25.390625 
L 58.015625 25.390625 
L 58.015625 17.1875 
L 47.609375 17.1875 
L 47.609375 0 
L 37.796875 0 
L 37.796875 17.1875 
L 4.890625 17.1875 
L 4.890625 26.703125 
z
" id="DejaVuSans-34"/>
      </defs>
      <g transform="translate(208.220173 317.076875)scale(0.2 -0.2)">
       <use xlink:href="#DejaVuSans-34"/>
      </g>
     </g>
    </g>
    <g id="xtick_4">
     <g id="line2d_11">
      <path clip-path="url(#pe490ed5980)" d="M 293.814009 294.88 
L 293.814009 24.84 
" style="fill:none;stroke:#b0b0b0;stroke-linecap:square;stroke-width:0.8;"/>
     </g>
     <g id="line2d_12">
      <g>
       <use style="stroke:#000000;stroke-width:0.8;" x="293.814009" xlink:href="#mcb2e1370c8" y="294.88"/>
      </g>
     </g>
     <g id="text_4">
      <!-- 6 -->
      <defs>
       <path d="M 33.015625 40.375 
Q 26.375 40.375 22.484375 35.828125 
Q 18.609375 31.296875 18.609375 23.390625 
Q 18.609375 15.53125 22.484375 10.953125 
Q 26.375 6.390625 33.015625 6.390625 
Q 39.65625 6.390625 43.53125 10.953125 
Q 47.40625 15.53125 47.40625 23.390625 
Q 47.40625 31.296875 43.53125 35.828125 
Q 39.65625 40.375 33.015625 40.375 
z
M 52.59375 71.296875 
L 52.59375 62.3125 
Q 48.875 64.0625 45.09375 64.984375 
Q 41.3125 65.921875 37.59375 65.921875 
Q 27.828125 65.921875 22.671875 59.328125 
Q 17.53125 52.734375 16.796875 39.40625 
Q 19.671875 43.65625 24.015625 45.921875 
Q 28.375 48.1875 33.59375 48.1875 
Q 44.578125 48.1875 50.953125 41.515625 
Q 57.328125 34.859375 57.328125 23.390625 
Q 57.328125 12.15625 50.6875 5.359375 
Q 44.046875 -1.421875 33.015625 -1.421875 
Q 20.359375 -1.421875 13.671875 8.265625 
Q 6.984375 17.96875 6.984375 36.375 
Q 6.984375 53.65625 15.1875 63.9375 
Q 23.390625 74.21875 37.203125 74.21875 
Q 40.921875 74.21875 44.703125 73.484375 
Q 48.484375 72.75 52.59375 71.296875 
z
" id="DejaVuSans-36"/>
      </defs>
      <g transform="translate(287.451509 317.076875)scale(0.2 -0.2)">
       <use xlink:href="#DejaVuSans-36"/>
      </g>
     </g>
    </g>
    <g id="xtick_5">
     <g id="line2d_13">
      <path clip-path="url(#pe490ed5980)" d="M 373.045346 294.88 
L 373.045346 24.84 
" style="fill:none;stroke:#b0b0b0;stroke-linecap:square;stroke-width:0.8;"/>
     </g>
     <g id="line2d_14">
      <g>
       <use style="stroke:#000000;stroke-width:0.8;" x="373.045346" xlink:href="#mcb2e1370c8" y="294.88"/>
      </g>
     </g>
     <g id="text_5">
      <!-- 8 -->
      <defs>
       <path d="M 31.78125 34.625 
Q 24.75 34.625 20.71875 30.859375 
Q 16.703125 27.09375 16.703125 20.515625 
Q 16.703125 13.921875 20.71875 10.15625 
Q 24.75 6.390625 31.78125 6.390625 
Q 38.8125 6.390625 42.859375 10.171875 
Q 46.921875 13.96875 46.921875 20.515625 
Q 46.921875 27.09375 42.890625 30.859375 
Q 38.875 34.625 31.78125 34.625 
z
M 21.921875 38.8125 
Q 15.578125 40.375 12.03125 44.71875 
Q 8.5 49.078125 8.5 55.328125 
Q 8.5 64.0625 14.71875 69.140625 
Q 20.953125 74.21875 31.78125 74.21875 
Q 42.671875 74.21875 48.875 69.140625 
Q 55.078125 64.0625 55.078125 55.328125 
Q 55.078125 49.078125 51.53125 44.71875 
Q 48 40.375 41.703125 38.8125 
Q 48.828125 37.15625 52.796875 32.3125 
Q 56.78125 27.484375 56.78125 20.515625 
Q 56.78125 9.90625 50.3125 4.234375 
Q 43.84375 -1.421875 31.78125 -1.421875 
Q 19.734375 -1.421875 13.25 4.234375 
Q 6.78125 9.90625 6.78125 20.515625 
Q 6.78125 27.484375 10.78125 32.3125 
Q 14.796875 37.15625 21.921875 38.8125 
z
M 18.3125 54.390625 
Q 18.3125 48.734375 21.84375 45.5625 
Q 25.390625 42.390625 31.78125 42.390625 
Q 38.140625 42.390625 41.71875 45.5625 
Q 45.3125 48.734375 45.3125 54.390625 
Q 45.3125 60.0625 41.71875 63.234375 
Q 38.140625 66.40625 31.78125 66.40625 
Q 25.390625 66.40625 21.84375 63.234375 
Q 18.3125 60.0625 18.3125 54.390625 
z
" id="DejaVuSans-38"/>
      </defs>
      <g transform="translate(366.682846 317.076875)scale(0.2 -0.2)">
       <use xlink:href="#DejaVuSans-38"/>
      </g>
     </g>
    </g>
    <g id="text_6">
     <!-- log10(# f-evals / dimension) -->
     <defs>
      <path d="M 9.421875 75.984375 
L 18.40625 75.984375 
L 18.40625 0 
L 9.421875 0 
z
" id="DejaVuSans-6c"/>
      <path d="M 30.609375 48.390625 
Q 23.390625 48.390625 19.1875 42.75 
Q 14.984375 37.109375 14.984375 27.296875 
Q 14.984375 17.484375 19.15625 11.84375 
Q 23.34375 6.203125 30.609375 6.203125 
Q 37.796875 6.203125 41.984375 11.859375 
Q 46.1875 17.53125 46.1875 27.296875 
Q 46.1875 37.015625 41.984375 42.703125 
Q 37.796875 48.390625 30.609375 48.390625 
z
M 30.609375 56 
Q 42.328125 56 49.015625 48.375 
Q 55.71875 40.765625 55.71875 27.296875 
Q 55.71875 13.875 49.015625 6.21875 
Q 42.328125 -1.421875 30.609375 -1.421875 
Q 18.84375 -1.421875 12.171875 6.21875 
Q 5.515625 13.875 5.515625 27.296875 
Q 5.515625 40.765625 12.171875 48.375 
Q 18.84375 56 30.609375 56 
z
" id="DejaVuSans-6f"/>
      <path d="M 45.40625 27.984375 
Q 45.40625 37.75 41.375 43.109375 
Q 37.359375 48.484375 30.078125 48.484375 
Q 22.859375 48.484375 18.828125 43.109375 
Q 14.796875 37.75 14.796875 27.984375 
Q 14.796875 18.265625 18.828125 12.890625 
Q 22.859375 7.515625 30.078125 7.515625 
Q 37.359375 7.515625 41.375 12.890625 
Q 45.40625 18.265625 45.40625 27.984375 
z
M 54.390625 6.78125 
Q 54.390625 -7.171875 48.1875 -13.984375 
Q 42 -20.796875 29.203125 -20.796875 
Q 24.46875 -20.796875 20.265625 -20.09375 
Q 16.0625 -19.390625 12.109375 -17.921875 
L 12.109375 -9.1875 
Q 16.0625 -11.328125 19.921875 -12.34375 
Q 23.78125 -13.375 27.78125 -13.375 
Q 36.625 -13.375 41.015625 -8.765625 
Q 45.40625 -4.15625 45.40625 5.171875 
L 45.40625 9.625 
Q 42.625 4.78125 38.28125 2.390625 
Q 33.9375 0 27.875 0 
Q 17.828125 0 11.671875 7.65625 
Q 5.515625 15.328125 5.515625 27.984375 
Q 5.515625 40.671875 11.671875 48.328125 
Q 17.828125 56 27.875 56 
Q 33.9375 56 38.28125 53.609375 
Q 42.625 51.21875 45.40625 46.390625 
L 45.40625 54.6875 
L 54.390625 54.6875 
z
" id="DejaVuSans-67"/>
      <path d="M 12.40625 8.296875 
L 28.515625 8.296875 
L 28.515625 63.921875 
L 10.984375 60.40625 
L 10.984375 69.390625 
L 28.421875 72.90625 
L 38.28125 72.90625 
L 38.28125 8.296875 
L 54.390625 8.296875 
L 54.390625 0 
L 12.40625 0 
z
" id="DejaVuSans-31"/>
      <path d="M 31 75.875 
Q 24.46875 64.65625 21.28125 53.65625 
Q 18.109375 42.671875 18.109375 31.390625 
Q 18.109375 20.125 21.3125 9.0625 
Q 24.515625 -2 31 -13.1875 
L 23.1875 -13.1875 
Q 15.875 -1.703125 12.234375 9.375 
Q 8.59375 20.453125 8.59375 31.390625 
Q 8.59375 42.28125 12.203125 53.3125 
Q 15.828125 64.359375 23.1875 75.875 
z
" id="DejaVuSans-28"/>
      <path d="M 51.125 44 
L 36.921875 44 
L 32.8125 27.6875 
L 47.125 27.6875 
z
M 43.796875 71.78125 
L 38.71875 51.515625 
L 52.984375 51.515625 
L 58.109375 71.78125 
L 65.921875 71.78125 
L 60.890625 51.515625 
L 76.125 51.515625 
L 76.125 44 
L 58.984375 44 
L 54.984375 27.6875 
L 70.515625 27.6875 
L 70.515625 20.21875 
L 53.078125 20.21875 
L 48 0 
L 40.1875 0 
L 45.21875 20.21875 
L 30.90625 20.21875 
L 25.875 0 
L 18.015625 0 
L 23.09375 20.21875 
L 7.71875 20.21875 
L 7.71875 27.6875 
L 24.90625 27.6875 
L 29 44 
L 13.28125 44 
L 13.28125 51.515625 
L 30.90625 51.515625 
L 35.890625 71.78125 
z
" id="DejaVuSans-23"/>
      <path id="DejaVuSans-20"/>
      <path d="M 37.109375 75.984375 
L 37.109375 68.5 
L 28.515625 68.5 
Q 23.6875 68.5 21.796875 66.546875 
Q 19.921875 64.59375 19.921875 59.515625 
L 19.921875 54.6875 
L 34.71875 54.6875 
L 34.71875 47.703125 
L 19.921875 47.703125 
L 19.921875 0 
L 10.890625 0 
L 10.890625 47.703125 
L 2.296875 47.703125 
L 2.296875 54.6875 
L 10.890625 54.6875 
L 10.890625 58.5 
Q 10.890625 67.625 15.140625 71.796875 
Q 19.390625 75.984375 28.609375 75.984375 
z
" id="DejaVuSans-66"/>
      <path d="M 4.890625 31.390625 
L 31.203125 31.390625 
L 31.203125 23.390625 
L 4.890625 23.390625 
z
" id="DejaVuSans-2d"/>
      <path d="M 56.203125 29.59375 
L 56.203125 25.203125 
L 14.890625 25.203125 
Q 15.484375 15.921875 20.484375 11.0625 
Q 25.484375 6.203125 34.421875 6.203125 
Q 39.59375 6.203125 44.453125 7.46875 
Q 49.3125 8.734375 54.109375 11.28125 
L 54.109375 2.78125 
Q 49.265625 0.734375 44.1875 -0.34375 
Q 39.109375 -1.421875 33.890625 -1.421875 
Q 20.796875 -1.421875 13.15625 6.1875 
Q 5.515625 13.8125 5.515625 26.8125 
Q 5.515625 40.234375 12.765625 48.109375 
Q 20.015625 56 32.328125 56 
Q 43.359375 56 49.78125 48.890625 
Q 56.203125 41.796875 56.203125 29.59375 
z
M 47.21875 32.234375 
Q 47.125 39.59375 43.09375 43.984375 
Q 39.0625 48.390625 32.421875 48.390625 
Q 24.90625 48.390625 20.390625 44.140625 
Q 15.875 39.890625 15.1875 32.171875 
z
" id="DejaVuSans-65"/>
      <path d="M 2.984375 54.6875 
L 12.5 54.6875 
L 29.59375 8.796875 
L 46.6875 54.6875 
L 56.203125 54.6875 
L 35.6875 0 
L 23.484375 0 
z
" id="DejaVuSans-76"/>
      <path d="M 34.28125 27.484375 
Q 23.390625 27.484375 19.1875 25 
Q 14.984375 22.515625 14.984375 16.5 
Q 14.984375 11.71875 18.140625 8.90625 
Q 21.296875 6.109375 26.703125 6.109375 
Q 34.1875 6.109375 38.703125 11.40625 
Q 43.21875 16.703125 43.21875 25.484375 
L 43.21875 27.484375 
z
M 52.203125 31.203125 
L 52.203125 0 
L 43.21875 0 
L 43.21875 8.296875 
Q 40.140625 3.328125 35.546875 0.953125 
Q 30.953125 -1.421875 24.3125 -1.421875 
Q 15.921875 -1.421875 10.953125 3.296875 
Q 6 8.015625 6 15.921875 
Q 6 25.140625 12.171875 29.828125 
Q 18.359375 34.515625 30.609375 34.515625 
L 43.21875 34.515625 
L 43.21875 35.40625 
Q 43.21875 41.609375 39.140625 45 
Q 35.0625 48.390625 27.6875 48.390625 
Q 23 48.390625 18.546875 47.265625 
Q 14.109375 46.140625 10.015625 43.890625 
L 10.015625 52.203125 
Q 14.9375 54.109375 19.578125 55.046875 
Q 24.21875 56 28.609375 56 
Q 40.484375 56 46.34375 49.84375 
Q 52.203125 43.703125 52.203125 31.203125 
z
" id="DejaVuSans-61"/>
      <path d="M 44.28125 53.078125 
L 44.28125 44.578125 
Q 40.484375 46.53125 36.375 47.5 
Q 32.28125 48.484375 27.875 48.484375 
Q 21.1875 48.484375 17.84375 46.4375 
Q 14.5 44.390625 14.5 40.28125 
Q 14.5 37.15625 16.890625 35.375 
Q 19.28125 33.59375 26.515625 31.984375 
L 29.59375 31.296875 
Q 39.15625 29.25 43.1875 25.515625 
Q 47.21875 21.78125 47.21875 15.09375 
Q 47.21875 7.46875 41.1875 3.015625 
Q 35.15625 -1.421875 24.609375 -1.421875 
Q 20.21875 -1.421875 15.453125 -0.5625 
Q 10.6875 0.296875 5.421875 2 
L 5.421875 11.28125 
Q 10.40625 8.6875 15.234375 7.390625 
Q 20.0625 6.109375 24.8125 6.109375 
Q 31.15625 6.109375 34.5625 8.28125 
Q 37.984375 10.453125 37.984375 14.40625 
Q 37.984375 18.0625 35.515625 20.015625 
Q 33.0625 21.96875 24.703125 23.78125 
L 21.578125 24.515625 
Q 13.234375 26.265625 9.515625 29.90625 
Q 5.8125 33.546875 5.8125 39.890625 
Q 5.8125 47.609375 11.28125 51.796875 
Q 16.75 56 26.8125 56 
Q 31.78125 56 36.171875 55.265625 
Q 40.578125 54.546875 44.28125 53.078125 
z
" id="DejaVuSans-73"/>
      <path d="M 25.390625 72.90625 
L 33.6875 72.90625 
L 8.296875 -9.28125 
L 0 -9.28125 
z
" id="DejaVuSans-2f"/>
      <path d="M 45.40625 46.390625 
L 45.40625 75.984375 
L 54.390625 75.984375 
L 54.390625 0 
L 45.40625 0 
L 45.40625 8.203125 
Q 42.578125 3.328125 38.25 0.953125 
Q 33.9375 -1.421875 27.875 -1.421875 
Q 17.96875 -1.421875 11.734375 6.484375 
Q 5.515625 14.40625 5.515625 27.296875 
Q 5.515625 40.1875 11.734375 48.09375 
Q 17.96875 56 27.875 56 
Q 33.9375 56 38.25 53.625 
Q 42.578125 51.265625 45.40625 46.390625 
z
M 14.796875 27.296875 
Q 14.796875 17.390625 18.875 11.75 
Q 22.953125 6.109375 30.078125 6.109375 
Q 37.203125 6.109375 41.296875 11.75 
Q 45.40625 17.390625 45.40625 27.296875 
Q 45.40625 37.203125 41.296875 42.84375 
Q 37.203125 48.484375 30.078125 48.484375 
Q 22.953125 48.484375 18.875 42.84375 
Q 14.796875 37.203125 14.796875 27.296875 
z
" id="DejaVuSans-64"/>
      <path d="M 9.421875 54.6875 
L 18.40625 54.6875 
L 18.40625 0 
L 9.421875 0 
z
M 9.421875 75.984375 
L 18.40625 75.984375 
L 18.40625 64.59375 
L 9.421875 64.59375 
z
" id="DejaVuSans-69"/>
      <path d="M 52 44.1875 
Q 55.375 50.25 60.0625 53.125 
Q 64.75 56 71.09375 56 
Q 79.640625 56 84.28125 50.015625 
Q 88.921875 44.046875 88.921875 33.015625 
L 88.921875 0 
L 79.890625 0 
L 79.890625 32.71875 
Q 79.890625 40.578125 77.09375 44.375 
Q 74.3125 48.1875 68.609375 48.1875 
Q 61.625 48.1875 57.5625 43.546875 
Q 53.515625 38.921875 53.515625 30.90625 
L 53.515625 0 
L 44.484375 0 
L 44.484375 32.71875 
Q 44.484375 40.625 41.703125 44.40625 
Q 38.921875 48.1875 33.109375 48.1875 
Q 26.21875 48.1875 22.15625 43.53125 
Q 18.109375 38.875 18.109375 30.90625 
L 18.109375 0 
L 9.078125 0 
L 9.078125 54.6875 
L 18.109375 54.6875 
L 18.109375 46.1875 
Q 21.1875 51.21875 25.484375 53.609375 
Q 29.78125 56 35.6875 56 
Q 41.65625 56 45.828125 52.96875 
Q 50 49.953125 52 44.1875 
z
" id="DejaVuSans-6d"/>
      <path d="M 54.890625 33.015625 
L 54.890625 0 
L 45.90625 0 
L 45.90625 32.71875 
Q 45.90625 40.484375 42.875 44.328125 
Q 39.84375 48.1875 33.796875 48.1875 
Q 26.515625 48.1875 22.3125 43.546875 
Q 18.109375 38.921875 18.109375 30.90625 
L 18.109375 0 
L 9.078125 0 
L 9.078125 54.6875 
L 18.109375 54.6875 
L 18.109375 46.1875 
Q 21.34375 51.125 25.703125 53.5625 
Q 30.078125 56 35.796875 56 
Q 45.21875 56 50.046875 50.171875 
Q 54.890625 44.34375 54.890625 33.015625 
z
" id="DejaVuSans-6e"/>
      <path d="M 8.015625 75.875 
L 15.828125 75.875 
Q 23.140625 64.359375 26.78125 53.3125 
Q 30.421875 42.28125 30.421875 31.390625 
Q 30.421875 20.453125 26.78125 9.375 
Q 23.140625 -1.703125 15.828125 -13.1875 
L 8.015625 -13.1875 
Q 14.5 -2 17.703125 9.0625 
Q 20.90625 20.125 20.90625 31.390625 
Q 20.90625 42.671875 17.703125 53.65625 
Q 14.5 64.65625 8.015625 75.875 
z
" id="DejaVuSans-29"/>
     </defs>
     <g transform="translate(107.211219 338.153594)scale(0.17 -0.17)">
      <use xlink:href="#DejaVuSans-6c"/>
      <use x="27.783203" xlink:href="#DejaVuSans-6f"/>
      <use x="88.964844" xlink:href="#DejaVuSans-67"/>
      <use x="152.441406" xlink:href="#DejaVuSans-31"/>
      <use x="216.064453" xlink:href="#DejaVuSans-30"/>
      <use x="279.6875" xlink:href="#DejaVuSans-28"/>
      <use x="318.701172" xlink:href="#DejaVuSans-23"/>
      <use x="402.490234" xlink:href="#DejaVuSans-20"/>
      <use x="434.277344" xlink:href="#DejaVuSans-66"/>
      <use x="469.404297" xlink:href="#DejaVuSans-2d"/>
      <use x="505.488281" xlink:href="#DejaVuSans-65"/>
      <use x="567.011719" xlink:href="#DejaVuSans-76"/>
      <use x="626.191406" xlink:href="#DejaVuSans-61"/>
      <use x="687.470703" xlink:href="#DejaVuSans-6c"/>
      <use x="715.253906" xlink:href="#DejaVuSans-73"/>
      <use x="767.353516" xlink:href="#DejaVuSans-20"/>
      <use x="799.140625" xlink:href="#DejaVuSans-2f"/>
      <use x="832.832031" xlink:href="#DejaVuSans-20"/>
      <use x="864.619141" xlink:href="#DejaVuSans-64"/>
      <use x="928.095703" xlink:href="#DejaVuSans-69"/>
      <use x="955.878906" xlink:href="#DejaVuSans-6d"/>
      <use x="1053.291016" xlink:href="#DejaVuSans-65"/>
      <use x="1114.814453" xlink:href="#DejaVuSans-6e"/>
      <use x="1178.193359" xlink:href="#DejaVuSans-73"/>
      <use x="1230.292969" xlink:href="#DejaVuSans-69"/>
      <use x="1258.076172" xlink:href="#DejaVuSans-6f"/>
      <use x="1319.257812" xlink:href="#DejaVuSans-6e"/>
      <use x="1382.636719" xlink:href="#DejaVuSans-29"/>
     </g>
    </g>
   </g>
   <g id="matplotlib.axis_2">
    <g id="ytick_1">
     <g id="line2d_15">
      <path clip-path="url(#pe490ed5980)" d="M 56.12 294.88 
L 399.984 294.88 
" style="fill:none;stroke:#b0b0b0;stroke-linecap:square;stroke-width:0.8;"/>
     </g>
     <g id="line2d_16">
      <defs>
       <path d="M 0 0 
L -3.5 0 
" id="mce63a4f7d1" style="stroke:#000000;stroke-width:0.8;"/>
      </defs>
      <g>
       <use style="stroke:#000000;stroke-width:0.8;" x="56.12" xlink:href="#mce63a4f7d1" y="294.88"/>
      </g>
     </g>
     <g id="text_7">
      <!-- 0.0 -->
      <defs>
       <path d="M 10.6875 12.40625 
L 21 12.40625 
L 21 0 
L 10.6875 0 
z
" id="DejaVuSans-2e"/>
      </defs>
      <g transform="translate(23.675 300.95875)scale(0.16 -0.16)">
       <use xlink:href="#DejaVuSans-30"/>
       <use x="63.623047" xlink:href="#DejaVuSans-2e"/>
       <use x="95.410156" xlink:href="#DejaVuSans-30"/>
      </g>
     </g>
    </g>
    <g id="ytick_2">
     <g id="line2d_17">
      <path clip-path="url(#pe490ed5980)" d="M 56.12 241.406733 
L 399.984 241.406733 
" style="fill:none;stroke:#b0b0b0;stroke-linecap:square;stroke-width:0.8;"/>
     </g>
     <g id="line2d_18">
      <g>
       <use style="stroke:#000000;stroke-width:0.8;" x="56.12" xlink:href="#mce63a4f7d1" y="241.406733"/>
      </g>
     </g>
     <g id="text_8">
      <!-- 0.2 -->
      <g transform="translate(23.675 247.485483)scale(0.16 -0.16)">
       <use xlink:href="#DejaVuSans-30"/>
       <use x="63.623047" xlink:href="#DejaVuSans-2e"/>
       <use x="95.410156" xlink:href="#DejaVuSans-32"/>
      </g>
     </g>
    </g>
    <g id="ytick_3">
     <g id="line2d_19">
      <path clip-path="url(#pe490ed5980)" d="M 56.12 187.933465 
L 399.984 187.933465 
" style="fill:none;stroke:#b0b0b0;stroke-linecap:square;stroke-width:0.8;"/>
     </g>
     <g id="line2d_20">
      <g>
       <use style="stroke:#000000;stroke-width:0.8;" x="56.12" xlink:href="#mce63a4f7d1" y="187.933465"/>
      </g>
     </g>
     <g id="text_9">
      <!-- 0.4 -->
      <g transform="translate(23.675 194.012215)scale(0.16 -0.16)">
       <use xlink:href="#DejaVuSans-30"/>
       <use x="63.623047" xlink:href="#DejaVuSans-2e"/>
       <use x="95.410156" xlink:href="#DejaVuSans-34"/>
      </g>
     </g>
    </g>
    <g id="ytick_4">
     <g id="line2d_21">
      <path clip-path="url(#pe490ed5980)" d="M 56.12 134.460198 
L 399.984 134.460198 
" style="fill:none;stroke:#b0b0b0;stroke-linecap:square;stroke-width:0.8;"/>
     </g>
     <g id="line2d_22">
      <g>
       <use style="stroke:#000000;stroke-width:0.8;" x="56.12" xlink:href="#mce63a4f7d1" y="134.460198"/>
      </g>
     </g>
     <g id="text_10">
      <!-- 0.6 -->
      <g transform="translate(23.675 140.538948)scale(0.16 -0.16)">
       <use xlink:href="#DejaVuSans-30"/>
       <use x="63.623047" xlink:href="#DejaVuSans-2e"/>
       <use x="95.410156" xlink:href="#DejaVuSans-36"/>
      </g>
     </g>
    </g>
    <g id="ytick_5">
     <g id="line2d_23">
      <path clip-path="url(#pe490ed5980)" d="M 56.12 80.986931 
L 399.984 80.986931 
" style="fill:none;stroke:#b0b0b0;stroke-linecap:square;stroke-width:0.8;"/>
     </g>
     <g id="line2d_24">
      <g>
       <use style="stroke:#000000;stroke-width:0.8;" x="56.12" xlink:href="#mce63a4f7d1" y="80.986931"/>
      </g>
     </g>
     <g id="text_11">
      <!-- 0.8 -->
      <g transform="translate(23.675 87.065681)scale(0.16 -0.16)">
       <use xlink:href="#DejaVuSans-30"/>
       <use x="63.623047" xlink:href="#DejaVuSans-2e"/>
       <use x="95.410156" xlink:href="#DejaVuSans-38"/>
      </g>
     </g>
    </g>
    <g id="ytick_6">
     <g id="line2d_25">
      <path clip-path="url(#pe490ed5980)" d="M 56.12 27.513663 
L 399.984 27.513663 
" style="fill:none;stroke:#b0b0b0;stroke-linecap:square;stroke-width:0.8;"/>
     </g>
     <g id="line2d_26">
      <g>
       <use style="stroke:#000000;stroke-width:0.8;" x="56.12" xlink:href="#mce63a4f7d1" y="27.513663"/>
      </g>
     </g>
     <g id="text_12">
      <!-- 1.0 -->
      <g transform="translate(23.675 33.592413)scale(0.16 -0.16)">
       <use xlink:href="#DejaVuSans-31"/>
       <use x="63.623047" xlink:href="#DejaVuSans-2e"/>
       <use x="95.410156" xlink:href="#DejaVuSans-30"/>
      </g>
     </g>
    </g>
    <g id="text_13">
     <!-- Fraction of function,target pairs -->
     <defs>
      <path d="M 9.8125 72.90625 
L 51.703125 72.90625 
L 51.703125 64.59375 
L 19.671875 64.59375 
L 19.671875 43.109375 
L 48.578125 43.109375 
L 48.578125 34.8125 
L 19.671875 34.8125 
L 19.671875 0 
L 9.8125 0 
z
" id="DejaVuSans-46"/>
      <path d="M 41.109375 46.296875 
Q 39.59375 47.171875 37.8125 47.578125 
Q 36.03125 48 33.890625 48 
Q 26.265625 48 22.1875 43.046875 
Q 18.109375 38.09375 18.109375 28.8125 
L 18.109375 0 
L 9.078125 0 
L 9.078125 54.6875 
L 18.109375 54.6875 
L 18.109375 46.1875 
Q 20.953125 51.171875 25.484375 53.578125 
Q 30.03125 56 36.53125 56 
Q 37.453125 56 38.578125 55.875 
Q 39.703125 55.765625 41.0625 55.515625 
z
" id="DejaVuSans-72"/>
      <path d="M 48.78125 52.59375 
L 48.78125 44.1875 
Q 44.96875 46.296875 41.140625 47.34375 
Q 37.3125 48.390625 33.40625 48.390625 
Q 24.65625 48.390625 19.8125 42.84375 
Q 14.984375 37.3125 14.984375 27.296875 
Q 14.984375 17.28125 19.8125 11.734375 
Q 24.65625 6.203125 33.40625 6.203125 
Q 37.3125 6.203125 41.140625 7.25 
Q 44.96875 8.296875 48.78125 10.40625 
L 48.78125 2.09375 
Q 45.015625 0.34375 40.984375 -0.53125 
Q 36.96875 -1.421875 32.421875 -1.421875 
Q 20.0625 -1.421875 12.78125 6.34375 
Q 5.515625 14.109375 5.515625 27.296875 
Q 5.515625 40.671875 12.859375 48.328125 
Q 20.21875 56 33.015625 56 
Q 37.15625 56 41.109375 55.140625 
Q 45.0625 54.296875 48.78125 52.59375 
z
" id="DejaVuSans-63"/>
      <path d="M 18.3125 70.21875 
L 18.3125 54.6875 
L 36.8125 54.6875 
L 36.8125 47.703125 
L 18.3125 47.703125 
L 18.3125 18.015625 
Q 18.3125 11.328125 20.140625 9.421875 
Q 21.96875 7.515625 27.59375 7.515625 
L 36.8125 7.515625 
L 36.8125 0 
L 27.59375 0 
Q 17.1875 0 13.234375 3.875 
Q 9.28125 7.765625 9.28125 18.015625 
L 9.28125 47.703125 
L 2.6875 47.703125 
L 2.6875 54.6875 
L 9.28125 54.6875 
L 9.28125 70.21875 
z
" id="DejaVuSans-74"/>
      <path d="M 8.5 21.578125 
L 8.5 54.6875 
L 17.484375 54.6875 
L 17.484375 21.921875 
Q 17.484375 14.15625 20.5 10.265625 
Q 23.53125 6.390625 29.59375 6.390625 
Q 36.859375 6.390625 41.078125 11.03125 
Q 45.3125 15.671875 45.3125 23.6875 
L 45.3125 54.6875 
L 54.296875 54.6875 
L 54.296875 0 
L 45.3125 0 
L 45.3125 8.40625 
Q 42.046875 3.421875 37.71875 1 
Q 33.40625 -1.421875 27.6875 -1.421875 
Q 18.265625 -1.421875 13.375 4.4375 
Q 8.5 10.296875 8.5 21.578125 
z
M 31.109375 56 
z
" id="DejaVuSans-75"/>
      <path d="M 11.71875 12.40625 
L 22.015625 12.40625 
L 22.015625 4 
L 14.015625 -11.625 
L 7.71875 -11.625 
L 11.71875 4 
z
" id="DejaVuSans-2c"/>
      <path d="M 18.109375 8.203125 
L 18.109375 -20.796875 
L 9.078125 -20.796875 
L 9.078125 54.6875 
L 18.109375 54.6875 
L 18.109375 46.390625 
Q 20.953125 51.265625 25.265625 53.625 
Q 29.59375 56 35.59375 56 
Q 45.5625 56 51.78125 48.09375 
Q 58.015625 40.1875 58.015625 27.296875 
Q 58.015625 14.40625 51.78125 6.484375 
Q 45.5625 -1.421875 35.59375 -1.421875 
Q 29.59375 -1.421875 25.265625 0.953125 
Q 20.953125 3.328125 18.109375 8.203125 
z
M 48.6875 27.296875 
Q 48.6875 37.203125 44.609375 42.84375 
Q 40.53125 48.484375 33.40625 48.484375 
Q 26.265625 48.484375 22.1875 42.84375 
Q 18.109375 37.203125 18.109375 27.296875 
Q 18.109375 17.390625 22.1875 11.75 
Q 26.265625 6.109375 33.40625 6.109375 
Q 40.53125 6.109375 44.609375 11.75 
Q 48.6875 17.390625 48.6875 27.296875 
z
" id="DejaVuSans-70"/>
     </defs>
     <g transform="translate(16.139531 294.999375)rotate(-90)scale(0.17 -0.17)">
      <use xlink:href="#DejaVuSans-46"/>
      <use x="57.410156" xlink:href="#DejaVuSans-72"/>
      <use x="98.523438" xlink:href="#DejaVuSans-61"/>
      <use x="159.802734" xlink:href="#DejaVuSans-63"/>
      <use x="214.783203" xlink:href="#DejaVuSans-74"/>
      <use x="253.992188" xlink:href="#DejaVuSans-69"/>
      <use x="281.775391" xlink:href="#DejaVuSans-6f"/>
      <use x="342.957031" xlink:href="#DejaVuSans-6e"/>
      <use x="406.335938" xlink:href="#DejaVuSans-20"/>
      <use x="438.123047" xlink:href="#DejaVuSans-6f"/>
      <use x="499.304688" xlink:href="#DejaVuSans-66"/>
      <use x="534.509766" xlink:href="#DejaVuSans-20"/>
      <use x="566.296875" xlink:href="#DejaVuSans-66"/>
      <use x="601.501953" xlink:href="#DejaVuSans-75"/>
      <use x="664.880859" xlink:href="#DejaVuSans-6e"/>
      <use x="728.259766" xlink:href="#DejaVuSans-63"/>
      <use x="783.240234" xlink:href="#DejaVuSans-74"/>
      <use x="822.449219" xlink:href="#DejaVuSans-69"/>
      <use x="850.232422" xlink:href="#DejaVuSans-6f"/>
      <use x="911.414062" xlink:href="#DejaVuSans-6e"/>
      <use x="974.792969" xlink:href="#DejaVuSans-2c"/>
      <use x="1006.580078" xlink:href="#DejaVuSans-74"/>
      <use x="1045.789062" xlink:href="#DejaVuSans-61"/>
      <use x="1107.068359" xlink:href="#DejaVuSans-72"/>
      <use x="1148.166016" xlink:href="#DejaVuSans-67"/>
      <use x="1211.642578" xlink:href="#DejaVuSans-65"/>
      <use x="1273.166016" xlink:href="#DejaVuSans-74"/>
      <use x="1312.375" xlink:href="#DejaVuSans-20"/>
      <use x="1344.162109" xlink:href="#DejaVuSans-70"/>
      <use x="1407.638672" xlink:href="#DejaVuSans-61"/>
      <use x="1468.917969" xlink:href="#DejaVuSans-69"/>
      <use x="1496.701172" xlink:href="#DejaVuSans-72"/>
      <use x="1537.814453" xlink:href="#DejaVuSans-73"/>
     </g>
    </g>
   </g>
   <g id="line2d_27">
    <defs>
     <path d="M 0 1.5 
C 0.397805 1.5 0.77937 1.341951 1.06066 1.06066 
C 1.341951 0.77937 1.5 0.397805 1.5 0 
C 1.5 -0.397805 1.341951 -0.77937 1.06066 -1.06066 
C 0.77937 -1.341951 0.397805 -1.5 0 -1.5 
C -0.397805 -1.5 -0.77937 -1.341951 -1.06066 -1.06066 
C -1.341951 -0.77937 -1.5 -0.397805 -1.5 0 
C -1.5 0.397805 -1.341951 0.77937 -1.06066 1.06066 
C -0.77937 1.341951 -0.397805 1.5 0 1.5 
z
" id="ma4a0db52a8" style="stroke:#f5deb3;"/>
    </defs>
    <g>
     <use style="fill:#f5deb3;stroke:#f5deb3;" x="68.470338" xlink:href="#ma4a0db52a8" y="27.513663"/>
     <use style="fill:#f5deb3;stroke:#f5deb3;" x="68.470338" xlink:href="#ma4a0db52a8" y="27.513663"/>
    </g>
   </g>
   <g id="line2d_28">
    <path clip-path="url(#pe490ed5980)" d="M 56.12 294.88 
L 56.12 294.88 
L 56.12 294.88 
L 56.12 294.88 
L 399.984 294.88 
" style="fill:none;stroke:#000080;stroke-linecap:square;stroke-width:1.5;"/>
   </g>
   <g id="line2d_29">
    <defs>
     <path d="M 0 6 
C 1.591219 6 3.117479 5.367802 4.242641 4.242641 
C 5.367802 3.117479 6 1.591219 6 0 
C 6 -1.591219 5.367802 -3.117479 4.242641 -4.242641 
C 3.117479 -5.367802 1.591219 -6 0 -6 
C -1.591219 -6 -3.117479 -5.367802 -4.242641 -4.242641 
C -5.367802 -3.117479 -6 -1.591219 -6 0 
C -6 1.591219 -5.367802 3.117479 -4.242641 4.242641 
C -3.117479 5.367802 -1.591219 6 0 6 
z
" id="mc1724f54ee" style="stroke:#000080;stroke-width:1.5;"/>
    </defs>
    <g clip-path="url(#pe490ed5980)">
     <use style="fill-opacity:0;stroke:#000080;stroke-width:1.5;" x="56.12" xlink:href="#mc1724f54ee" y="294.88"/>
    </g>
   </g>
   <g id="line2d_30">
    <path clip-path="url(#pe490ed5980)" style="fill:none;stroke:#000080;stroke-linecap:square;stroke-width:1.5;"/>
    <g clip-path="url(#pe490ed5980)">
     <use style="fill-opacity:0;stroke:#000080;stroke-width:1.5;" x="-1" xlink:href="#mc1724f54ee" y="562.246337"/>
     <use style="fill-opacity:0;stroke:#000080;stroke-width:1.5;" x="399.984" xlink:href="#mc1724f54ee" y="562.246337"/>
    </g>
   </g>
   <g id="line2d_31">
    <defs>
     <path d="M 0 1.5 
C 0.397805 1.5 0.77937 1.341951 1.06066 1.06066 
C 1.341951 0.77937 1.5 0.397805 1.5 0 
C 1.5 -0.397805 1.341951 -0.77937 1.06066 -1.06066 
C 0.77937 -1.341951 0.397805 -1.5 0 -1.5 
C -0.397805 -1.5 -0.77937 -1.341951 -1.06066 -1.06066 
C -1.341951 -0.77937 -1.5 -0.397805 -1.5 0 
C -1.5 0.397805 -1.341951 0.77937 -1.06066 1.06066 
C -0.77937 1.341951 -0.397805 1.5 0 1.5 
z
" id="m5cdc491aa4" style="stroke:#ff00ff;"/>
    </defs>
    <g>
     <use style="fill:#ff00ff;stroke:#ff00ff;" x="173.524953" xlink:href="#m5cdc491aa4" y="27.513663"/>
     <use style="fill:#ff00ff;stroke:#ff00ff;" x="173.524953" xlink:href="#m5cdc491aa4" y="27.513663"/>
    </g>
   </g>
   <g id="line2d_32">
    <path d="M 117.24006 294.88 
L 117.24006 294.355752 
L 128.627282 294.355752 
L 128.627282 293.831505 
L 133.181282 293.831505 
L 133.181282 293.307257 
L 133.356051 293.307257 
L 133.356051 292.783009 
L 133.605401 292.783009 
L 133.605401 291.734514 
L 134.24096 291.734514 
L 134.24096 290.686018 
L 135.926577 290.686018 
L 135.926577 290.161771 
L 136.651529 290.161771 
L 136.651529 289.637523 
L 137.808205 289.637523 
L 137.808205 289.113275 
L 137.934521 289.113275 
L 137.934521 288.589027 
L 138.687716 288.589027 
L 138.687716 288.06478 
L 140.290112 288.06478 
L 140.290112 287.540532 
L 140.698403 287.540532 
L 140.698403 287.016284 
L 140.905203 287.016284 
L 140.905203 286.492036 
L 142.746546 286.492036 
L 142.746546 285.967789 
L 144.008766 285.967789 
L 144.008766 285.443541 
L 144.148623 285.443541 
L 144.148623 284.919293 
L 144.287352 284.919293 
L 144.287352 284.395046 
L 144.611791 284.395046 
L 144.611791 283.34655 
L 145.673134 283.34655 
L 145.673134 282.822302 
L 145.972683 282.822302 
L 145.972683 282.298055 
L 147.306923 282.298055 
L 147.306923 281.249559 
L 147.587999 281.249559 
L 147.587999 280.201064 
L 147.743586 280.201064 
L 147.743586 279.152568 
L 148.846112 279.152568 
L 148.846112 278.104073 
L 149.512289 278.104073 
L 149.512289 276.53133 
L 149.647732 276.53133 
L 149.662715 275.482834 
L 149.922837 275.482834 
L 149.996441 273.910091 
L 150.044115 273.910091 
L 150.044115 273.385844 
L 151.067755 273.385844 
L 151.067755 272.861596 
L 152.846273 272.861596 
L 152.923891 271.288853 
L 153.062728 271.288853 
L 153.102629 269.716109 
L 153.215688 269.716109 
L 153.23091 268.667614 
L 153.849545 268.667614 
L 153.951981 267.619119 
L 154.186735 267.619119 
L 154.186735 267.094871 
L 154.324352 267.094871 
L 154.324352 266.570623 
L 154.783626 266.570623 
L 154.836372 265.522128 
L 154.927601 265.522128 
L 154.927601 264.99788 
L 155.064911 264.99788 
L 155.064911 264.473632 
L 155.73812 264.473632 
L 155.73812 263.949385 
L 155.936871 263.949385 
L 156.027635 262.376641 
L 156.071548 262.376641 
L 156.071548 261.328146 
L 156.562386 261.328146 
L 156.589944 260.279651 
L 156.692272 260.279651 
L 156.791522 255.561421 
L 156.900039 255.561421 
L 156.91724 252.415935 
L 157.298588 252.415935 
L 157.403963 250.318944 
L 157.494453 250.318944 
L 157.527671 248.746201 
L 158.156081 248.746201 
L 158.247257 246.64921 
L 158.353775 246.64921 
L 158.353775 246.124962 
L 158.896405 246.124962 
L 158.896405 245.076467 
L 159.139864 245.076467 
L 159.139864 244.027971 
L 159.435179 244.027971 
L 159.513503 242.455228 
L 159.606184 242.455228 
L 159.639763 240.358237 
L 160.086775 240.358237 
L 160.094944 239.309742 
L 160.247408 239.309742 
L 160.291875 235.640008 
L 160.372432 235.640008 
L 160.460611 233.018769 
L 160.771616 233.018769 
L 160.832366 229.873283 
L 160.959052 229.873283 
L 161.065524 228.30054 
L 161.117552 228.30054 
L 161.117552 226.727797 
L 161.320302 226.727797 
L 161.405658 222.009567 
L 161.466099 222.009567 
L 161.505648 218.864081 
L 161.681572 218.864081 
L 161.681572 218.339833 
L 161.918272 218.339833 
L 161.97145 204.709392 
L 162.035412 204.709392 
L 162.133633 202.612401 
L 162.485497 202.612401 
L 162.55997 194.748686 
L 162.641167 194.748686 
L 162.641167 193.70019 
L 162.861633 193.70019 
L 162.861633 193.175943 
L 163.063852 193.175943 
L 163.063852 191.603199 
L 163.228019 191.603199 
L 163.309518 188.457713 
L 163.351813 188.457713 
L 163.377141 186.88497 
L 163.615077 186.88497 
L 163.615077 185.836474 
L 163.810326 185.836474 
L 163.871094 182.690988 
L 164.144348 182.690988 
L 164.168536 171.157538 
L 164.346477 171.157538 
L 164.346477 170.109043 
L 164.671912 170.109043 
L 164.712552 161.721079 
L 164.877253 161.721079 
L 164.905065 160.672584 
L 165.165541 160.672584 
L 165.224745 144.420905 
L 165.289786 144.420905 
L 165.289786 143.896657 
L 165.407144 143.896657 
L 165.429621 142.323914 
L 165.682332 142.323914 
L 165.682332 135.508693 
L 165.851203 135.508693 
L 165.880403 132.363207 
L 166.117995 132.363207 
L 166.155363 130.266216 
L 166.544302 130.266216 
L 166.593357 118.208519 
L 166.745237 118.208519 
L 166.745237 115.063032 
L 167.012284 115.063032 
L 167.085885 108.77206 
L 167.214608 108.77206 
L 167.2308 101.956839 
L 167.429253 101.956839 
L 167.429253 101.432592 
L 167.637301 101.432592 
L 167.637301 100.908344 
L 167.862376 100.908344 
L 167.863676 97.762858 
L 168.02927 97.762858 
L 168.02927 97.23861 
L 168.256932 97.23861 
L 168.310214 82.035426 
L 168.475349 82.035426 
L 168.475349 81.511178 
L 168.83046 81.511178 
L 168.83046 80.986931 
L 169.062384 80.986931 
L 169.139808 72.074719 
L 169.262485 72.074719 
L 169.26608 69.977729 
L 169.440133 69.977729 
L 169.512336 42.716847 
L 169.871185 42.716847 
L 169.871185 42.192599 
L 170.168214 42.192599 
L 170.168214 39.047113 
L 170.723113 39.047113 
L 170.723113 38.522865 
L 171.082628 38.522865 
L 171.082628 37.47437 
L 171.223287 37.47437 
L 171.223287 34.853131 
L 172.916567 34.853131 
L 172.916567 33.280388 
L 173.524953 33.280388 
L 173.524953 27.513663 
L 333.429677 27.513663 
L 333.429677 27.513663 
" style="fill:none;stroke:#ff00ff;stroke-linecap:square;stroke-width:1.5;"/>
   </g>
   <g id="line2d_33">
    <defs>
     <path d="M -0 8.485281 
L 5.091169 0 
L 0 -8.485281 
L -5.091169 -0 
z
" id="mf695159171" style="stroke:#ff00ff;stroke-linejoin:miter;stroke-width:1.5;"/>
    </defs>
    <g>
     <use style="fill-opacity:0;stroke:#ff00ff;stroke-linejoin:miter;stroke-width:1.5;" x="168.256932" xlink:href="#mf695159171" y="91.471885"/>
     <use style="fill-opacity:0;stroke:#ff00ff;stroke-linejoin:miter;stroke-width:1.5;" x="173.524953" xlink:href="#mf695159171" y="33.280388"/>
     <use style="fill-opacity:0;stroke:#ff00ff;stroke-linejoin:miter;stroke-width:1.5;" x="173.524953" xlink:href="#mf695159171" y="27.513663"/>
     <use style="fill-opacity:0;stroke:#ff00ff;stroke-linejoin:miter;stroke-width:1.5;" x="173.524953" xlink:href="#mf695159171" y="27.513663"/>
     <use style="fill-opacity:0;stroke:#ff00ff;stroke-linejoin:miter;stroke-width:1.5;" x="333.429677" xlink:href="#mf695159171" y="27.513663"/>
    </g>
   </g>
   <g id="line2d_34">
    <path style="fill:none;stroke:#ff00ff;stroke-linecap:square;stroke-width:1.5;"/>
    <g/>
   </g>
   <g id="line2d_35">
    <defs>
     <path d="M 0 1.5 
C 0.397805 1.5 0.77937 1.341951 1.06066 1.06066 
C 1.341951 0.77937 1.5 0.397805 1.5 0 
C 1.5 -0.397805 1.341951 -0.77937 1.06066 -1.06066 
C 0.77937 -1.341951 0.397805 -1.5 0 -1.5 
C -0.397805 -1.5 -0.77937 -1.341951 -1.06066 -1.06066 
C -1.341951 -0.77937 -1.5 -0.397805 -1.5 0 
C -1.5 0.397805 -1.341951 0.77937 -1.06066 1.06066 
C -0.77937 1.341951 -0.397805 1.5 0 1.5 
z
" id="mc4777b2851" style="stroke:#ffa500;"/>
    </defs>
    <g>
     <use style="fill:#ffa500;stroke:#ffa500;" x="146.0005" xlink:href="#mc4777b2851" y="27.513663"/>
     <use style="fill:#ffa500;stroke:#ffa500;" x="146.0005" xlink:href="#mc4777b2851" y="27.513663"/>
    </g>
   </g>
   <g id="line2d_36">
    <path d="M 104.141622 294.88 
L 104.141622 294.355752 
L 108.377268 294.355752 
L 108.377268 293.831505 
L 110.869529 293.831505 
L 110.905186 292.783009 
L 112.141997 292.783009 
L 112.141997 292.258761 
L 112.983003 292.258761 
L 112.983003 291.734514 
L 113.140126 291.734514 
L 113.140126 291.210266 
L 113.874965 291.210266 
L 113.874965 289.637523 
L 114.024185 289.637523 
L 114.024185 289.113275 
L 114.406204 289.113275 
L 114.406204 288.589027 
L 114.779925 288.589027 
L 114.865028 286.492036 
L 115.531106 286.492036 
L 115.531106 285.967789 
L 116.638079 285.967789 
L 116.689057 284.919293 
L 117.116373 284.919293 
L 117.190692 282.298055 
L 117.484799 282.298055 
L 117.484799 281.773807 
L 117.916743 281.773807 
L 117.916743 280.725312 
L 118.128716 280.725312 
L 118.175468 278.104073 
L 118.636134 278.104073 
L 118.636134 277.579825 
L 118.88434 277.579825 
L 118.88434 276.53133 
L 119.282926 276.53133 
L 119.304801 274.958587 
L 119.864009 274.958587 
L 119.864009 273.910091 
L 120.095232 273.910091 
L 120.116099 271.8131 
L 120.426105 271.8131 
L 120.426105 271.288853 
L 120.568885 271.288853 
L 120.589186 270.240357 
L 120.850938 270.240357 
L 120.850938 269.716109 
L 121.206914 269.716109 
L 121.206914 269.191862 
L 121.651309 269.191862 
L 121.651309 268.667614 
L 122.065904 268.667614 
L 122.065904 268.143366 
L 122.214223 268.143366 
L 122.214223 267.094871 
L 122.866275 267.094871 
L 122.866275 264.99788 
L 123.148328 264.99788 
L 123.200702 262.900889 
L 123.28764 262.900889 
L 123.356875 258.18266 
L 123.545846 258.18266 
L 123.545846 257.658412 
L 123.833872 257.658412 
L 123.833872 257.134164 
L 123.967762 257.134164 
L 123.967762 255.037173 
L 124.232458 255.037173 
L 124.232458 254.512926 
L 124.845254 254.512926 
L 124.845254 252.415935 
L 125.252304 252.415935 
L 125.314081 250.318944 
L 125.498092 250.318944 
L 125.498092 249.270448 
L 125.710313 249.270448 
L 125.710313 248.746201 
L 125.845372 248.746201 
L 125.845372 247.697705 
L 126.097625 247.697705 
L 126.18578 245.076467 
L 126.215065 245.076467 
L 126.273486 241.406733 
L 126.591301 241.406733 
L 126.64846 238.785494 
L 127.015436 238.785494 
L 127.099022 236.688503 
L 127.140664 236.688503 
L 127.140664 234.591512 
L 127.442993 234.591512 
L 127.551628 231.970274 
L 127.578679 231.970274 
L 127.578679 231.446026 
L 127.699888 231.446026 
L 127.713303 229.873283 
L 127.846882 229.873283 
L 127.886754 227.252044 
L 127.966223 227.252044 
L 127.966223 226.727797 
L 128.176361 226.727797 
L 128.228497 225.155053 
L 128.319357 225.155053 
L 128.383964 220.961072 
L 128.665388 220.961072 
L 128.741348 219.388328 
L 128.791802 219.388328 
L 128.842109 216.76709 
L 129.004597 216.76709 
L 129.004597 216.242842 
L 129.202498 216.242842 
L 129.202498 214.670099 
L 129.385986 214.670099 
L 129.495146 208.379126 
L 129.555493 208.379126 
L 129.663587 206.282136 
L 130.042512 206.282136 
L 130.147598 204.185145 
L 130.170864 204.185145 
L 130.263612 201.563906 
L 130.43618 201.563906 
L 130.49332 197.369924 
L 130.561639 197.369924 
L 130.618365 195.272933 
L 130.753748 195.272933 
L 130.843415 186.88497 
L 130.921492 186.88497 
L 130.999217 183.739484 
L 131.098635 183.739484 
L 131.197483 177.972759 
L 131.371821 177.972759 
L 131.382659 176.400016 
L 131.608688 176.400016 
L 131.672726 172.730281 
L 131.768338 172.730281 
L 131.831786 170.633291 
L 131.884481 170.633291 
L 131.884481 169.584795 
L 132.072857 169.584795 
L 132.11444 168.5363 
L 132.207635 168.5363 
L 132.290054 166.439309 
L 132.412946 166.439309 
L 132.474065 162.769575 
L 132.524832 162.769575 
L 132.55522 161.196832 
L 132.736431 161.196832 
L 132.826326 160.148336 
L 132.984989 160.148336 
L 133.024427 158.051345 
L 133.220273 158.051345 
L 133.317366 155.430107 
L 133.413915 155.430107 
L 133.433159 153.857364 
L 133.567274 153.857364 
L 133.662434 150.18763 
L 133.709817 150.18763 
L 133.804194 148.090639 
L 133.869951 148.090639 
L 133.944796 144.945152 
L 133.982096 144.945152 
L 134.028608 143.896657 
L 134.139727 143.896657 
L 134.167395 138.129932 
L 134.378051 138.129932 
L 134.459785 132.887455 
L 134.505025 132.887455 
L 134.604137 128.169225 
L 134.640036 128.169225 
L 134.729459 126.072235 
L 134.773996 126.072235 
L 134.78289 125.023739 
L 134.915747 125.023739 
L 135.012527 119.257014 
L 135.047586 119.257014 
L 135.047586 118.208519 
L 135.161034 118.208519 
L 135.23914 116.111528 
L 135.27374 116.111528 
L 135.334123 115.063032 
L 135.411448 115.063032 
L 135.514011 111.917546 
L 135.599016 111.917546 
L 135.683602 109.296308 
L 135.792947 109.296308 
L 135.9016 107.723564 
L 135.959823 107.723564 
L 136.059178 104.578078 
L 136.125097 104.578078 
L 136.207142 103.005335 
L 136.248019 103.005335 
L 136.321352 100.384096 
L 136.378174 100.384096 
L 136.467089 98.811353 
L 136.491259 98.811353 
L 136.491259 98.287105 
L 136.707272 98.287105 
L 136.818221 96.190115 
L 136.936305 96.190115 
L 137.01458 94.617371 
L 137.069162 94.617371 
L 137.146836 90.947637 
L 137.193273 90.947637 
L 137.270391 85.70516 
L 137.400702 85.70516 
L 137.400702 84.656665 
L 137.522453 84.656665 
L 137.530034 80.986931 
L 137.740955 80.986931 
L 137.808205 79.938435 
L 137.867763 79.938435 
L 137.867763 78.88994 
L 138.037854 78.88994 
L 138.067264 77.317197 
L 138.169805 77.317197 
L 138.235403 76.268701 
L 138.300751 76.268701 
L 138.380287 74.695958 
L 138.416318 74.695958 
L 138.416318 74.17171 
L 138.765486 74.17171 
L 138.793679 72.074719 
L 138.989748 72.074719 
L 139.04536 69.453481 
L 139.135347 69.453481 
L 139.224867 67.35649 
L 139.361685 67.35649 
L 139.422901 65.259499 
L 139.598531 65.259499 
L 139.705727 62.114013 
L 139.977406 62.114013 
L 139.977406 61.065517 
L 140.127953 61.065517 
L 140.23191 54.250297 
L 140.244861 54.250297 
L 140.244861 53.726049 
L 140.393096 53.726049 
L 140.489088 50.580563 
L 140.622583 50.580563 
L 140.717306 49.532068 
L 140.736189 49.532068 
L 140.736189 48.483572 
L 141.103389 48.483572 
L 141.195509 45.338086 
L 141.287138 45.338086 
L 141.317573 41.668352 
L 141.408556 41.668352 
L 141.408556 41.144104 
L 141.559134 41.144104 
L 141.595077 40.095609 
L 141.944577 40.095609 
L 142.014801 37.998618 
L 142.165976 37.998618 
L 142.252593 36.425875 
L 142.287118 36.425875 
L 142.287118 35.901627 
L 142.470089 35.901627 
L 142.577815 33.804636 
L 142.594763 33.804636 
L 142.594763 33.280388 
L 143.002096 33.280388 
L 143.002096 32.756141 
L 143.432309 32.756141 
L 143.432309 31.707645 
L 143.74145 31.707645 
L 143.815246 30.134902 
L 144.153781 30.134902 
L 144.153781 29.086407 
L 145.673134 29.086407 
L 145.673134 28.562159 
L 145.837596 28.562159 
L 145.837596 28.037911 
L 146.0005 28.037911 
L 146.0005 27.513663 
L 333.429677 27.513663 
L 333.429677 27.513663 
" style="fill:none;stroke:#ffa500;stroke-linecap:square;stroke-width:1.5;"/>
   </g>
   <g id="line2d_37">
    <defs>
     <path d="M 0 -6 
L -1.347084 -1.854102 
L -5.706339 -1.854102 
L -2.179628 0.708204 
L -3.526712 4.854102 
L -0 2.291796 
L 3.526712 4.854102 
L 2.179628 0.708204 
L 5.706339 -1.854102 
L 1.347084 -1.854102 
z
" id="m8c97fd098b" style="stroke:#ffa500;stroke-linejoin:bevel;stroke-width:1.5;"/>
    </defs>
    <g>
     <use style="fill-opacity:0;stroke:#ffa500;stroke-linejoin:bevel;stroke-width:1.5;" x="133.926115" xlink:href="#m8c97fd098b" y="145.993648"/>
     <use style="fill-opacity:0;stroke:#ffa500;stroke-linejoin:bevel;stroke-width:1.5;" x="146.0005" xlink:href="#m8c97fd098b" y="28.037911"/>
     <use style="fill-opacity:0;stroke:#ffa500;stroke-linejoin:bevel;stroke-width:1.5;" x="146.0005" xlink:href="#m8c97fd098b" y="27.513663"/>
     <use style="fill-opacity:0;stroke:#ffa500;stroke-linejoin:bevel;stroke-width:1.5;" x="146.0005" xlink:href="#m8c97fd098b" y="27.513663"/>
     <use style="fill-opacity:0;stroke:#ffa500;stroke-linejoin:bevel;stroke-width:1.5;" x="333.429677" xlink:href="#m8c97fd098b" y="27.513663"/>
    </g>
   </g>
   <g id="line2d_38">
    <path style="fill:none;stroke:#ffa500;stroke-linecap:square;stroke-width:1.5;"/>
    <g/>
   </g>
   <g id="line2d_39">
    <defs>
     <path d="M 0 1.5 
C 0.397805 1.5 0.77937 1.341951 1.06066 1.06066 
C 1.341951 0.77937 1.5 0.397805 1.5 0 
C 1.5 -0.397805 1.341951 -0.77937 1.06066 -1.06066 
C 0.77937 -1.341951 0.397805 -1.5 0 -1.5 
C -0.397805 -1.5 -0.77937 -1.341951 -1.06066 -1.06066 
C -1.341951 -0.77937 -1.5 -0.397805 -1.5 0 
C -1.5 0.397805 -1.341951 0.77937 -1.06066 1.06066 
C -0.77937 1.341951 -0.397805 1.5 0 1.5 
z
" id="m988d4c4d3c" style="stroke:#6495ed;"/>
    </defs>
    <g>
     <use style="fill:#6495ed;stroke:#6495ed;" x="296.449975" xlink:href="#m988d4c4d3c" y="48.483572"/>
     <use style="fill:#6495ed;stroke:#6495ed;" x="296.449975" xlink:href="#m988d4c4d3c" y="48.483572"/>
    </g>
   </g>
   <g id="line2d_40">
    <path d="M 170.020914 294.88 
L 170.020914 294.355752 
L 171.671864 294.355752 
L 171.671864 293.831505 
L 174.581633 293.831505 
L 174.581633 292.783009 
L 175.235869 292.783009 
L 175.235869 292.258761 
L 176.236061 292.258761 
L 176.346775 291.210266 
L 176.360267 291.210266 
L 176.360267 290.161771 
L 176.53549 290.161771 
L 176.53549 289.637523 
L 179.44385 289.637523 
L 179.44385 289.113275 
L 181.692844 289.113275 
L 181.692844 288.589027 
L 184.080192 288.589027 
L 184.080192 288.06478 
L 184.247534 288.06478 
L 184.247534 287.540532 
L 184.772639 287.540532 
L 184.814429 284.919293 
L 185.239629 284.919293 
L 185.239629 284.395046 
L 188.08388 284.395046 
L 188.08388 282.822302 
L 189.050731 282.822302 
L 189.050731 282.298055 
L 190.561182 282.298055 
L 190.56153 280.201064 
L 190.970862 280.201064 
L 191.00544 279.152568 
L 191.08282 279.152568 
L 191.08282 278.628321 
L 192.863306 278.628321 
L 192.863306 278.104073 
L 193.403752 278.104073 
L 193.403752 277.579825 
L 193.808159 277.579825 
L 193.808159 277.055578 
L 194.079944 277.055578 
L 194.079944 276.53133 
L 194.308415 276.53133 
L 194.308415 276.007082 
L 194.888025 276.007082 
L 194.902882 274.958587 
L 195.184354 274.958587 
L 195.184354 274.434339 
L 195.414703 274.434339 
L 195.503849 272.337348 
L 196.712004 272.337348 
L 196.736779 271.288853 
L 196.879629 271.288853 
L 196.879629 270.240357 
L 197.823323 270.240357 
L 197.823323 269.716109 
L 198.342232 269.716109 
L 198.342232 269.191862 
L 198.647923 269.191862 
L 198.647923 268.667614 
L 199.588073 268.667614 
L 199.588073 268.143366 
L 200.241198 268.143366 
L 200.241198 266.570623 
L 201.218484 266.570623 
L 201.239608 263.949385 
L 202.492072 263.949385 
L 202.523138 262.900889 
L 203.142992 262.900889 
L 203.142992 262.376641 
L 203.290382 262.376641 
L 203.290382 261.328146 
L 203.776145 261.328146 
L 203.776145 260.803898 
L 203.976812 260.803898 
L 204.013104 259.755403 
L 204.219214 259.755403 
L 204.219214 259.231155 
L 204.492302 259.231155 
L 204.492302 258.706907 
L 204.617109 258.706907 
L 204.617109 258.18266 
L 204.94406 258.18266 
L 204.963932 256.609917 
L 205.816625 256.609917 
L 205.816625 256.085669 
L 206.0716 256.085669 
L 206.0716 255.561421 
L 206.556092 255.561421 
L 206.556092 255.037173 
L 206.905707 255.037173 
L 206.905707 254.512926 
L 207.33798 254.512926 
L 207.33798 253.46443 
L 207.524134 253.46443 
L 207.524134 252.940182 
L 207.778064 252.940182 
L 207.778064 252.415935 
L 208.189718 252.415935 
L 208.189718 251.891687 
L 208.639088 251.891687 
L 208.738448 249.794696 
L 209.466598 249.794696 
L 209.502694 248.221953 
L 209.687423 248.221953 
L 209.687423 247.697705 
L 210.295461 247.697705 
L 210.295461 247.173458 
L 210.978579 247.173458 
L 211.043478 246.124962 
L 211.13706 246.124962 
L 211.230449 244.027971 
L 211.347956 244.027971 
L 211.347956 243.503724 
L 211.776433 243.503724 
L 211.776433 242.979476 
L 212.128548 242.979476 
L 212.128548 241.93098 
L 212.447714 241.93098 
L 212.447714 241.406733 
L 212.739441 241.406733 
L 212.739441 240.882485 
L 213.142305 240.882485 
L 213.218648 238.261246 
L 213.828374 238.261246 
L 213.916768 237.212751 
L 215.045315 237.212751 
L 215.046655 234.591512 
L 215.753161 234.591512 
L 215.753161 232.494521 
L 215.907096 232.494521 
L 215.907096 231.970274 
L 216.182071 231.970274 
L 216.182071 230.921778 
L 216.743019 230.921778 
L 216.747192 229.349035 
L 217.322752 229.349035 
L 217.384775 228.30054 
L 217.47932 228.30054 
L 217.47932 227.252044 
L 217.756442 227.252044 
L 217.756442 226.727797 
L 217.954517 226.727797 
L 217.954517 225.679301 
L 218.0734 225.679301 
L 218.0734 224.630806 
L 218.302356 224.630806 
L 218.341881 223.058063 
L 219.421415 223.058063 
L 219.421415 222.533815 
L 219.793467 222.533815 
L 219.793467 221.485319 
L 219.909617 221.485319 
L 219.909617 220.436824 
L 220.131991 220.436824 
L 220.217824 218.339833 
L 220.58269 218.339833 
L 220.652048 217.291338 
L 220.992689 217.291338 
L 220.992689 216.76709 
L 221.165824 216.76709 
L 221.165824 216.242842 
L 221.401538 216.242842 
L 221.435305 215.194347 
L 221.844779 215.194347 
L 221.896817 214.145851 
L 222.093461 214.145851 
L 222.093461 213.097356 
L 222.500017 213.097356 
L 222.609077 210.476117 
L 222.972258 210.476117 
L 223.001815 209.427622 
L 223.339311 209.427622 
L 223.441087 206.282136 
L 224.040752 206.282136 
L 224.073091 204.709392 
L 224.203068 204.709392 
L 224.203068 203.660897 
L 224.439947 203.660897 
L 224.511684 202.612401 
L 224.786837 202.612401 
L 224.845446 201.563906 
L 225.067389 201.563906 
L 225.167278 198.942667 
L 225.257434 198.942667 
L 225.257434 198.41842 
L 225.373789 198.41842 
L 225.397296 197.369924 
L 225.607654 197.369924 
L 225.716088 196.321429 
L 226.028858 196.321429 
L 226.102119 194.224438 
L 226.354759 194.224438 
L 226.405286 191.603199 
L 226.695376 191.603199 
L 226.749411 190.030456 
L 227.290325 190.030456 
L 227.290325 189.506209 
L 227.58547 189.506209 
L 227.692122 186.88497 
L 227.832242 186.88497 
L 227.836343 185.836474 
L 228.005644 185.836474 
L 228.091145 184.787979 
L 228.224679 184.787979 
L 228.224679 184.263731 
L 228.408293 184.263731 
L 228.408293 183.215236 
L 228.642251 183.215236 
L 228.738941 181.642493 
L 228.809787 181.642493 
L 228.915418 180.06975 
L 228.927754 180.06975 
L 228.927754 179.545502 
L 229.168846 179.545502 
L 229.168846 179.021254 
L 229.437288 179.021254 
L 229.437288 178.497006 
L 229.732838 178.497006 
L 229.798542 176.400016 
L 230.029567 176.400016 
L 230.086745 175.35152 
L 230.182757 175.35152 
L 230.210701 173.778777 
L 230.691913 173.778777 
L 230.714226 171.157538 
L 230.899929 171.157538 
L 230.899929 170.633291 
L 231.138256 170.633291 
L 231.219533 169.060547 
L 231.636418 169.060547 
L 231.691338 167.487804 
L 231.860161 167.487804 
L 231.884976 165.915061 
L 231.979872 165.915061 
L 232.08041 163.81807 
L 232.154701 163.81807 
L 232.263401 162.769575 
L 232.715255 162.769575 
L 232.799696 160.148336 
L 232.914933 160.148336 
L 232.914933 159.624089 
L 233.116305 159.624089 
L 233.124799 158.051345 
L 233.317288 158.051345 
L 233.317288 157.527098 
L 233.518411 157.527098 
L 233.578489 154.905859 
L 233.632958 154.905859 
L 233.632958 154.381611 
L 233.761454 154.381611 
L 233.761454 153.857364 
L 233.925816 153.857364 
L 233.98034 151.236125 
L 234.040912 151.236125 
L 234.040912 150.711877 
L 234.326309 150.711877 
L 234.350321 149.663382 
L 234.471855 149.663382 
L 234.471855 148.614886 
L 234.5849 148.614886 
L 234.5849 148.090639 
L 234.772853 148.090639 
L 234.772853 146.517896 
L 235.021012 146.517896 
L 235.021012 145.993648 
L 235.149164 145.993648 
L 235.149164 145.4694 
L 235.293078 145.4694 
L 235.293078 143.896657 
L 235.546213 143.896657 
L 235.642372 142.323914 
L 235.773853 142.323914 
L 235.802771 140.751171 
L 235.973007 140.751171 
L 236.017093 138.65418 
L 236.147422 138.65418 
L 236.161589 137.081437 
L 236.266481 137.081437 
L 236.266481 136.557189 
L 236.677936 136.557189 
L 236.677936 135.508693 
L 236.829597 135.508693 
L 236.829597 134.984446 
L 236.98735 134.984446 
L 237.077384 132.887455 
L 237.171255 132.887455 
L 237.216441 131.838959 
L 237.315779 131.838959 
L 237.315779 131.314712 
L 237.640196 131.314712 
L 237.685943 128.169225 
L 237.870947 128.169225 
L 237.958276 126.072235 
L 237.996636 126.072235 
L 237.996636 125.547987 
L 238.356582 125.547987 
L 238.356582 123.975244 
L 238.57361 123.975244 
L 238.662972 122.4025 
L 238.729584 122.4025 
L 238.729584 121.878253 
L 238.874076 121.878253 
L 238.923289 120.30551 
L 239.03351 120.30551 
L 239.03351 119.781262 
L 239.198414 119.781262 
L 239.198414 118.732766 
L 239.365705 118.732766 
L 239.424886 116.635776 
L 239.625153 116.635776 
L 239.735549 112.441794 
L 239.776673 112.441794 
L 239.776673 111.917546 
L 239.984981 111.917546 
L 239.984981 110.869051 
L 240.190854 110.869051 
L 240.249281 109.820555 
L 240.434871 109.820555 
L 240.435254 108.77206 
L 240.584048 108.77206 
L 240.584048 107.723564 
L 240.828727 107.723564 
L 240.840175 106.675069 
L 240.959284 106.675069 
L 240.959284 105.626573 
L 241.208462 105.626573 
L 241.253537 104.578078 
L 241.348983 104.578078 
L 241.459115 103.005335 
L 241.632094 103.005335 
L 241.732535 99.335601 
L 241.857035 99.335601 
L 241.948392 96.190115 
L 241.990664 96.190115 
L 242.048195 95.141619 
L 242.34707 95.141619 
L 242.37261 93.568876 
L 242.623217 93.568876 
L 242.635789 91.471885 
L 242.8263 91.471885 
L 242.827416 89.899142 
L 243.242316 89.899142 
L 243.298264 87.802151 
L 243.369697 87.802151 
L 243.412759 85.70516 
L 243.523121 85.70516 
L 243.548348 84.656665 
L 243.636371 84.656665 
L 243.705356 81.511178 
L 243.754818 81.511178 
L 243.754818 80.986931 
L 243.967089 80.986931 
L 243.976503 79.414188 
L 244.104584 79.414188 
L 244.213038 77.841444 
L 244.385879 77.841444 
L 244.490841 76.792949 
L 244.718321 76.792949 
L 244.718321 76.268701 
L 244.939532 76.268701 
L 245.037943 74.695958 
L 245.128435 74.695958 
L 245.18849 72.598967 
L 245.255875 72.598967 
L 245.255875 72.074719 
L 245.460549 72.074719 
L 245.553472 69.453481 
L 245.669808 69.453481 
L 245.72101 66.307995 
L 245.810902 66.307995 
L 245.905761 64.211004 
L 245.962348 64.211004 
L 245.962348 63.686756 
L 246.153797 63.686756 
L 246.153797 63.162508 
L 246.621669 63.162508 
L 246.621669 62.638261 
L 246.77534 62.638261 
L 246.77534 62.114013 
L 246.921375 62.114013 
L 246.975064 61.065517 
L 247.138142 61.065517 
L 247.138142 60.54127 
L 247.408087 60.54127 
L 247.49363 59.492774 
L 247.542589 59.492774 
L 247.542589 58.444279 
L 248.645022 58.444279 
L 248.645022 56.347288 
L 262.80183 56.347288 
L 262.803077 55.298792 
L 263.35673 55.298792 
L 263.35673 54.774545 
L 270.963107 54.774545 
L 270.963107 54.250297 
L 271.150435 54.250297 
L 271.150435 53.726049 
L 271.448908 53.726049 
L 271.448908 53.201802 
L 276.474884 53.201802 
L 276.474884 52.677554 
L 280.643658 52.677554 
L 280.750626 51.629058 
L 283.9964 51.629058 
L 283.9964 51.104811 
L 286.940037 51.104811 
L 286.940037 50.580563 
L 289.381832 50.580563 
L 289.381832 50.056315 
L 291.433213 50.056315 
L 291.433213 49.532068 
L 293.287893 49.532068 
L 293.287893 49.00782 
L 296.449975 49.00782 
L 296.449975 48.483572 
L 333.429677 48.483572 
L 333.429677 48.483572 
" style="fill:none;stroke:#6495ed;stroke-linecap:square;stroke-width:1.5;"/>
   </g>
   <g id="line2d_41">
    <defs>
     <path d="M -0 6 
L 6 -6 
L -6 -6 
z
" id="mee5fb8e7bb" style="stroke:#6495ed;stroke-linejoin:miter;stroke-width:1.5;"/>
    </defs>
    <g>
     <use style="fill-opacity:0;stroke:#6495ed;stroke-linejoin:miter;stroke-width:1.5;" x="227.290325" xlink:href="#mee5fb8e7bb" y="189.506209"/>
     <use style="fill-opacity:0;stroke:#6495ed;stroke-linejoin:miter;stroke-width:1.5;" x="296.449975" xlink:href="#mee5fb8e7bb" y="49.00782"/>
     <use style="fill-opacity:0;stroke:#6495ed;stroke-linejoin:miter;stroke-width:1.5;" x="296.449975" xlink:href="#mee5fb8e7bb" y="48.483572"/>
     <use style="fill-opacity:0;stroke:#6495ed;stroke-linejoin:miter;stroke-width:1.5;" x="333.429677" xlink:href="#mee5fb8e7bb" y="48.483572"/>
    </g>
   </g>
   <g id="line2d_42">
    <path style="fill:none;stroke:#6495ed;stroke-linecap:square;stroke-width:1.5;"/>
    <g/>
   </g>
   <g id="line2d_43">
    <path clip-path="url(#pe490ed5980)" d="M 254.210174 56.347288 
" style="fill:none;stroke:#6495ed;stroke-linecap:square;stroke-width:1.5;"/>
    <defs>
     <path d="M -12 12 
L 12 -12 
M -12 -12 
L 12 12 
" id="md7468a1d6e" style="stroke:#6495ed;stroke-width:3;"/>
    </defs>
    <g clip-path="url(#pe490ed5980)">
     <use style="fill:#6495ed;stroke:#6495ed;stroke-width:3;" x="254.210174" xlink:href="#md7468a1d6e" y="56.347288"/>
    </g>
   </g>
   <g id="line2d_44">
    <defs>
     <path d="M 0 1.5 
C 0.397805 1.5 0.77937 1.341951 1.06066 1.06066 
C 1.341951 0.77937 1.5 0.397805 1.5 0 
C 1.5 -0.397805 1.341951 -0.77937 1.06066 -1.06066 
C 0.77937 -1.341951 0.397805 -1.5 0 -1.5 
C -0.397805 -1.5 -0.77937 -1.341951 -1.06066 -1.06066 
C -1.341951 -0.77937 -1.5 -0.397805 -1.5 0 
C -1.5 0.397805 -1.341951 0.77937 -1.06066 1.06066 
C -0.77937 1.341951 -0.397805 1.5 0 1.5 
z
" id="m3883872f01" style="stroke:#ff0000;"/>
    </defs>
    <g>
     <use style="fill:#ff0000;stroke:#ff0000;" x="287.678072" xlink:href="#m3883872f01" y="27.513663"/>
     <use style="fill:#ff0000;stroke:#ff0000;" x="287.678072" xlink:href="#m3883872f01" y="27.513663"/>
    </g>
   </g>
   <g id="line2d_45">
    <path d="M 81.805215 294.88 
L 81.805215 294.355752 
L 88.191249 294.355752 
L 88.191249 293.831505 
L 92.216118 293.831505 
L 92.321346 292.783009 
L 93.04046 292.783009 
L 93.140781 291.210266 
L 95.47564 291.210266 
L 95.47564 290.686018 
L 95.821478 290.686018 
L 95.821478 290.161771 
L 96.244223 290.161771 
L 96.244223 289.637523 
L 96.65683 289.637523 
L 96.65683 289.113275 
L 97.218344 289.113275 
L 97.218344 288.06478 
L 97.531168 288.06478 
L 97.531168 287.540532 
L 99.086214 287.540532 
L 99.086214 287.016284 
L 99.505866 287.016284 
L 99.505866 286.492036 
L 99.643505 286.492036 
L 99.643505 285.967789 
L 99.982863 285.967789 
L 99.982863 285.443541 
L 100.577332 285.443541 
L 100.577332 284.919293 
L 101.768673 284.919293 
L 101.768673 283.870798 
L 101.949461 283.870798 
L 101.949461 283.34655 
L 102.128369 283.34655 
L 102.128369 281.773807 
L 102.82596 281.773807 
L 102.82596 281.249559 
L 103.875699 281.249559 
L 103.982562 279.676816 
L 105.991239 279.676816 
L 106.085771 278.628321 
L 107.704131 278.628321 
L 107.789728 277.055578 
L 107.8749 277.055578 
L 107.8749 276.53133 
L 109.340029 276.53133 
L 109.340029 275.482834 
L 109.456673 275.482834 
L 109.533998 274.434339 
L 109.725805 274.434339 
L 109.763911 272.337348 
L 110.545239 272.337348 
L 110.545239 271.8131 
L 110.833797 271.8131 
L 110.869529 270.764605 
L 111.152743 270.764605 
L 111.257757 268.143366 
L 111.29262 268.143366 
L 111.29262 267.619119 
L 111.500328 267.619119 
L 111.500328 267.094871 
L 112.208169 267.094871 
L 112.274088 266.046375 
L 112.437789 266.046375 
L 112.502836 264.473632 
L 112.792542 264.473632 
L 112.792542 263.949385 
L 113.388576 263.949385 
L 113.388576 262.900889 
L 113.511469 262.900889 
L 113.511469 261.852394 
L 113.694177 261.852394 
L 113.694177 261.328146 
L 113.844966 261.328146 
L 113.844966 259.755403 
L 114.493171 259.755403 
L 114.550905 258.706907 
L 114.637146 258.706907 
L 114.722956 255.561421 
L 114.751464 255.561421 
L 114.751464 255.037173 
L 114.949712 255.037173 
L 114.949712 254.512926 
L 115.801204 254.512926 
L 115.827982 250.318944 
L 116.815843 250.318944 
L 116.891469 232.494521 
L 117.338374 232.494521 
L 117.338374 230.921778 
L 117.821689 230.921778 
L 117.916743 228.30054 
L 117.987691 228.30054 
L 117.987691 227.776292 
L 118.314968 227.776292 
L 118.314968 227.252044 
L 118.726806 227.252044 
L 118.817002 226.203549 
L 118.973716 226.203549 
L 118.973716 225.155053 
L 119.239092 225.155053 
L 119.239092 222.533815 
L 119.500437 222.533815 
L 119.60817 220.436824 
L 119.672487 220.436824 
L 119.672487 219.912576 
L 119.821632 219.912576 
L 119.821632 213.097356 
L 120.446575 213.097356 
L 120.528212 203.136649 
L 120.568885 203.136649 
L 120.568885 202.088154 
L 120.750735 202.088154 
L 120.750735 191.603199 
L 121.246016 191.603199 
L 121.323954 184.263731 
L 121.498035 184.263731 
L 121.498035 183.739484 
L 122.009953 183.739484 
L 122.084514 171.681786 
L 122.741407 171.681786 
L 122.741407 158.051345 
L 123.833872 158.051345 
L 123.833872 156.478602 
L 124.765859 156.478602 
L 124.765859 155.954354 
L 125.390991 155.954354 
L 125.482833 154.905859 
L 125.994204 154.905859 
L 125.994204 153.333116 
L 126.548307 153.333116 
L 126.576981 136.557189 
L 254.200861 136.557189 
L 254.208669 82.559674 
L 266.126258 82.559674 
L 266.12901 53.201802 
L 273.101091 53.201802 
L 273.103262 38.522865 
L 278.050649 38.522865 
L 278.051933 32.756141 
L 281.889682 32.756141 
L 281.890096 29.610654 
L 285.026649 29.610654 
L 285.027045 28.037911 
L 287.678072 28.037911 
L 287.678072 27.513663 
L 333.429677 27.513663 
L 333.429677 27.513663 
" style="fill:none;stroke:#ff0000;stroke-linecap:square;stroke-width:1.5;"/>
   </g>
   <g id="line2d_46">
    <defs>
     <path d="M 0 -6 
L -5.196152 -3 
L -5.196152 3 
L -0 6 
L 5.196152 3 
L 5.196152 -3 
z
" id="m30c29c963c" style="stroke:#ff0000;stroke-linejoin:miter;stroke-width:1.5;"/>
    </defs>
    <g>
     <use style="fill-opacity:0;stroke:#ff0000;stroke-linejoin:miter;stroke-width:1.5;" x="126.576981" xlink:href="#m30c29c963c" y="152.808868"/>
     <use style="fill-opacity:0;stroke:#ff0000;stroke-linejoin:miter;stroke-width:1.5;" x="266.126787" xlink:href="#m30c29c963c" y="78.88994"/>
     <use style="fill-opacity:0;stroke:#ff0000;stroke-linejoin:miter;stroke-width:1.5;" x="287.678072" xlink:href="#m30c29c963c" y="27.513663"/>
     <use style="fill-opacity:0;stroke:#ff0000;stroke-linejoin:miter;stroke-width:1.5;" x="287.678072" xlink:href="#m30c29c963c" y="27.513663"/>
     <use style="fill-opacity:0;stroke:#ff0000;stroke-linejoin:miter;stroke-width:1.5;" x="333.429677" xlink:href="#m30c29c963c" y="27.513663"/>
    </g>
   </g>
   <g id="line2d_47">
    <path style="fill:none;stroke:#ff0000;stroke-linecap:square;stroke-width:1.5;"/>
    <g/>
   </g>
   <g id="line2d_48">
    <path clip-path="url(#pe490ed5980)" d="M 254.198341 136.557189 
" style="fill:none;stroke:#ff0000;stroke-linecap:square;stroke-width:1.5;"/>
    <defs>
     <path d="M -12 12 
L 12 -12 
M -12 -12 
L 12 12 
" id="md3f78a3008" style="stroke:#ff0000;stroke-width:3;"/>
    </defs>
    <g clip-path="url(#pe490ed5980)">
     <use style="fill:#ff0000;stroke:#ff0000;stroke-width:3;" x="254.198341" xlink:href="#md3f78a3008" y="136.557189"/>
    </g>
   </g>
   <g id="line2d_49">
    <defs>
     <path d="M 0 1.5 
C 0.397805 1.5 0.77937 1.341951 1.06066 1.06066 
C 1.341951 0.77937 1.5 0.397805 1.5 0 
C 1.5 -0.397805 1.341951 -0.77937 1.06066 -1.06066 
C 0.77937 -1.341951 0.397805 -1.5 0 -1.5 
C -0.397805 -1.5 -0.77937 -1.341951 -1.06066 -1.06066 
C -1.341951 -0.77937 -1.5 -0.397805 -1.5 0 
C -1.5 0.397805 -1.341951 0.77937 -1.06066 1.06066 
C -0.77937 1.341951 -0.397805 1.5 0 1.5 
z
" id="mcd7d2713b2" style="stroke:#9acd32;"/>
    </defs>
    <g>
     <use style="fill:#9acd32;stroke:#9acd32;" x="93.922955" xlink:href="#mcd7d2713b2" y="27.513663"/>
     <use style="fill:#9acd32;stroke:#9acd32;" x="93.922955" xlink:href="#mcd7d2713b2" y="27.513663"/>
    </g>
   </g>
   <g id="line2d_50">
    <path d="M 87.922418 294.88 
L 87.922418 293.831505 
L 88.845505 293.831505 
L 88.845505 292.783009 
L 89.351567 292.783009 
L 89.351567 291.734514 
L 89.721579 291.734514 
L 89.721579 289.637523 
L 89.843168 289.637523 
L 89.843168 288.589027 
L 89.963905 288.589027 
L 89.963905 287.540532 
L 90.321112 287.540532 
L 90.321112 287.016284 
L 90.671054 287.016284 
L 90.671054 286.492036 
L 90.786137 286.492036 
L 90.786137 285.443541 
L 90.900455 285.443541 
L 90.900455 284.395046 
L 91.126838 284.395046 
L 91.126838 282.298055 
L 91.238922 282.298055 
L 91.238922 281.773807 
L 91.350281 281.773807 
L 91.350281 279.152568 
L 91.460924 279.152568 
L 91.460924 278.628321 
L 91.680097 278.628321 
L 91.680097 278.104073 
L 91.788645 278.104073 
L 91.788645 276.007082 
L 91.896513 276.007082 
L 91.896513 274.434339 
L 92.003709 274.434339 
L 92.003709 250.318944 
L 92.216118 250.318944 
L 92.216118 249.794696 
L 92.321346 249.794696 
L 92.321346 248.746201 
L 92.529893 248.746201 
L 92.529893 235.640008 
L 92.735942 235.640008 
L 92.735942 235.11576 
L 92.838048 235.11576 
L 92.838048 219.388328 
L 92.939552 219.388328 
L 92.939552 218.864081 
L 93.04046 218.864081 
L 93.04046 216.76709 
L 93.240519 216.76709 
L 93.240519 201.563906 
L 93.339683 201.563906 
L 93.339683 176.924263 
L 93.438278 176.924263 
L 93.438278 157.00285 
L 93.536312 157.00285 
L 93.536312 138.129932 
L 93.730719 138.129932 
L 93.730719 74.695958 
L 93.827106 74.695958 
L 93.827106 63.162508 
L 93.922955 63.162508 
L 93.922955 27.513663 
L 333.429677 27.513663 
" style="fill:none;stroke:#9acd32;stroke-linecap:square;stroke-width:1.5;"/>
   </g>
   <g id="line2d_51">
    <defs>
     <path d="M 0 -6 
L -6 6 
L 6 6 
z
" id="m0e09337e49" style="stroke:#9acd32;stroke-linejoin:miter;stroke-width:1.5;"/>
    </defs>
    <g>
     <use style="fill-opacity:0;stroke:#9acd32;stroke-linejoin:miter;stroke-width:1.5;" x="93.240519" xlink:href="#m0e09337e49" y="216.76709"/>
     <use style="fill-opacity:0;stroke:#9acd32;stroke-linejoin:miter;stroke-width:1.5;" x="93.922955" xlink:href="#m0e09337e49" y="63.162508"/>
     <use style="fill-opacity:0;stroke:#9acd32;stroke-linejoin:miter;stroke-width:1.5;" x="93.922955" xlink:href="#m0e09337e49" y="27.513663"/>
     <use style="fill-opacity:0;stroke:#9acd32;stroke-linejoin:miter;stroke-width:1.5;" x="93.922955" xlink:href="#m0e09337e49" y="27.513663"/>
     <use style="fill-opacity:0;stroke:#9acd32;stroke-linejoin:miter;stroke-width:1.5;" x="333.429677" xlink:href="#m0e09337e49" y="27.513663"/>
    </g>
   </g>
   <g id="line2d_52">
    <path style="fill:none;stroke:#9acd32;stroke-linecap:square;stroke-width:1.5;"/>
    <g/>
   </g>
   <g id="line2d_53">
    <path clip-path="url(#pe490ed5980)" d="M 56.12 294.88 
L 56.12 294.88 
L 56.12 294.88 
L 56.12 294.88 
L 399.984 294.88 
" style="fill:none;stroke:#00bfbf;stroke-linecap:square;stroke-width:1.5;"/>
   </g>
   <g id="line2d_54">
    <defs>
     <path d="M 0 -6 
L -5.706339 -1.854102 
L -3.526712 4.854102 
L 3.526712 4.854102 
L 5.706339 -1.854102 
z
" id="m5d5c94ceba" style="stroke:#00bfbf;stroke-linejoin:miter;stroke-width:1.5;"/>
    </defs>
    <g clip-path="url(#pe490ed5980)">
     <use style="fill-opacity:0;stroke:#00bfbf;stroke-linejoin:miter;stroke-width:1.5;" x="56.12" xlink:href="#m5d5c94ceba" y="294.88"/>
    </g>
   </g>
   <g id="line2d_55">
    <path clip-path="url(#pe490ed5980)" style="fill:none;stroke:#00bfbf;stroke-linecap:square;stroke-width:1.5;"/>
    <g clip-path="url(#pe490ed5980)">
     <use style="fill-opacity:0;stroke:#00bfbf;stroke-linejoin:miter;stroke-width:1.5;" x="-1" xlink:href="#m5d5c94ceba" y="562.246337"/>
     <use style="fill-opacity:0;stroke:#00bfbf;stroke-linejoin:miter;stroke-width:1.5;" x="399.984" xlink:href="#m5d5c94ceba" y="562.246337"/>
    </g>
   </g>
   <g id="line2d_56">
    <path d="M 333.429677 294.88 
L 363.933742 289.532673 
" style="fill:none;stroke:#00bfbf;stroke-linecap:square;stroke-width:1.5;"/>
    <g>
     <use style="fill-opacity:0;stroke:#00bfbf;stroke-linejoin:miter;stroke-width:1.5;" x="333.429677" xlink:href="#m5d5c94ceba" y="294.88"/>
     <use style="fill-opacity:0;stroke:#00bfbf;stroke-linejoin:miter;stroke-width:1.5;" x="363.933742" xlink:href="#m5d5c94ceba" y="289.532673"/>
    </g>
   </g>
   <g id="line2d_57">
    <path d="M 333.429677 294.88 
L 363.933742 252.86529 
" style="fill:none;stroke:#000080;stroke-linecap:square;stroke-width:1.5;"/>
    <g>
     <use style="fill-opacity:0;stroke:#000080;stroke-width:1.5;" x="333.429677" xlink:href="#mc1724f54ee" y="294.88"/>
     <use style="fill-opacity:0;stroke:#000080;stroke-width:1.5;" x="363.933742" xlink:href="#mc1724f54ee" y="252.86529"/>
    </g>
   </g>
   <g id="line2d_58">
    <path d="M 333.429677 48.483572 
L 363.933742 216.197907 
" style="fill:none;stroke:#6495ed;stroke-linecap:square;stroke-width:1.5;"/>
    <g>
     <use style="fill-opacity:0;stroke:#6495ed;stroke-linejoin:miter;stroke-width:1.5;" x="333.429677" xlink:href="#mee5fb8e7bb" y="48.483572"/>
     <use style="fill-opacity:0;stroke:#6495ed;stroke-linejoin:miter;stroke-width:1.5;" x="363.933742" xlink:href="#mee5fb8e7bb" y="216.197907"/>
    </g>
   </g>
   <g id="line2d_59">
    <path d="M 333.429677 27.513663 
L 363.933742 179.530523 
" style="fill:none;stroke:#ff0000;stroke-linecap:square;stroke-width:1.5;"/>
    <g>
     <use style="fill-opacity:0;stroke:#ff0000;stroke-linejoin:miter;stroke-width:1.5;" x="333.429677" xlink:href="#m30c29c963c" y="27.513663"/>
     <use style="fill-opacity:0;stroke:#ff0000;stroke-linejoin:miter;stroke-width:1.5;" x="363.933742" xlink:href="#m30c29c963c" y="179.530523"/>
    </g>
   </g>
   <g id="line2d_60">
    <path d="M 333.429677 27.513663 
L 363.933742 142.86314 
" style="fill:none;stroke:#ff00ff;stroke-linecap:square;stroke-width:1.5;"/>
    <g>
     <use style="fill-opacity:0;stroke:#ff00ff;stroke-linejoin:miter;stroke-width:1.5;" x="333.429677" xlink:href="#mf695159171" y="27.513663"/>
     <use style="fill-opacity:0;stroke:#ff00ff;stroke-linejoin:miter;stroke-width:1.5;" x="363.933742" xlink:href="#mf695159171" y="142.86314"/>
    </g>
   </g>
   <g id="line2d_61">
    <path d="M 333.429677 27.513663 
L 363.933742 106.195757 
" style="fill:none;stroke:#ffa500;stroke-linecap:square;stroke-width:1.5;"/>
    <g>
     <use style="fill-opacity:0;stroke:#ffa500;stroke-linejoin:bevel;stroke-width:1.5;" x="333.429677" xlink:href="#m8c97fd098b" y="27.513663"/>
     <use style="fill-opacity:0;stroke:#ffa500;stroke-linejoin:bevel;stroke-width:1.5;" x="363.933742" xlink:href="#m8c97fd098b" y="106.195757"/>
    </g>
   </g>
   <g id="line2d_62">
    <path d="M 333.429677 27.513663 
L 363.933742 69.528373 
" style="fill:none;stroke:#9acd32;stroke-linecap:square;stroke-width:1.5;"/>
    <g>
     <use style="fill-opacity:0;stroke:#9acd32;stroke-linejoin:miter;stroke-width:1.5;" x="333.429677" xlink:href="#m0e09337e49" y="27.513663"/>
     <use style="fill-opacity:0;stroke:#9acd32;stroke-linejoin:miter;stroke-width:1.5;" x="363.933742" xlink:href="#m0e09337e49" y="69.528373"/>
    </g>
   </g>
   <g id="line2d_63">
    <path d="M 333.429677 294.88 
L 333.429677 27.513663 
" style="fill:none;stroke:#000000;stroke-linecap:square;stroke-width:1.5;"/>
   </g>
   <g id="patch_3">
    <path d="M 56.12 294.88 
L 56.12 24.84 
" style="fill:none;stroke:#000000;stroke-linecap:square;stroke-linejoin:miter;stroke-width:0.8;"/>
   </g>
   <g id="patch_4">
    <path d="M 399.984 294.88 
L 399.984 24.84 
" style="fill:none;stroke:#000000;stroke-linecap:square;stroke-linejoin:miter;stroke-width:0.8;"/>
   </g>
   <g id="patch_5">
    <path d="M 56.12 294.88 
L 399.984 294.88 
" style="fill:none;stroke:#000000;stroke-linecap:square;stroke-linejoin:miter;stroke-width:0.8;"/>
   </g>
   <g id="patch_6">
    <path d="M 56.12 24.84 
L 399.984 24.84 
" style="fill:none;stroke:#000000;stroke-linecap:square;stroke-linejoin:miter;stroke-width:0.8;"/>
   </g>
   <g id="text_14">
    <!-- hybrid -->
    <defs>
     <path d="M 54.890625 33.015625 
L 54.890625 0 
L 45.90625 0 
L 45.90625 32.71875 
Q 45.90625 40.484375 42.875 44.328125 
Q 39.84375 48.1875 33.796875 48.1875 
Q 26.515625 48.1875 22.3125 43.546875 
Q 18.109375 38.921875 18.109375 30.90625 
L 18.109375 0 
L 9.078125 0 
L 9.078125 75.984375 
L 18.109375 75.984375 
L 18.109375 46.1875 
Q 21.34375 51.125 25.703125 53.5625 
Q 30.078125 56 35.796875 56 
Q 45.21875 56 50.046875 50.171875 
Q 54.890625 44.34375 54.890625 33.015625 
z
" id="DejaVuSans-68"/>
     <path d="M 32.171875 -5.078125 
Q 28.375 -14.84375 24.75 -17.8125 
Q 21.140625 -20.796875 15.09375 -20.796875 
L 7.90625 -20.796875 
L 7.90625 -13.28125 
L 13.1875 -13.28125 
Q 16.890625 -13.28125 18.9375 -11.515625 
Q 21 -9.765625 23.484375 -3.21875 
L 25.09375 0.875 
L 2.984375 54.6875 
L 12.5 54.6875 
L 29.59375 11.921875 
L 46.6875 54.6875 
L 56.203125 54.6875 
z
" id="DejaVuSans-79"/>
     <path d="M 48.6875 27.296875 
Q 48.6875 37.203125 44.609375 42.84375 
Q 40.53125 48.484375 33.40625 48.484375 
Q 26.265625 48.484375 22.1875 42.84375 
Q 18.109375 37.203125 18.109375 27.296875 
Q 18.109375 17.390625 22.1875 11.75 
Q 26.265625 6.109375 33.40625 6.109375 
Q 40.53125 6.109375 44.609375 11.75 
Q 48.6875 17.390625 48.6875 27.296875 
z
M 18.109375 46.390625 
Q 20.953125 51.265625 25.265625 53.625 
Q 29.59375 56 35.59375 56 
Q 45.5625 56 51.78125 48.09375 
Q 58.015625 40.1875 58.015625 27.296875 
Q 58.015625 14.40625 51.78125 6.484375 
Q 45.5625 -1.421875 35.59375 -1.421875 
Q 29.59375 -1.421875 25.265625 0.953125 
Q 20.953125 3.328125 18.109375 8.203125 
L 18.109375 0 
L 9.078125 0 
L 9.078125 75.984375 
L 18.109375 75.984375 
z
" id="DejaVuSans-62"/>
    </defs>
    <g transform="translate(369.479935 294.223611)scale(0.17 -0.17)">
     <use xlink:href="#DejaVuSans-68"/>
     <use x="63.378906" xlink:href="#DejaVuSans-79"/>
     <use x="122.558594" xlink:href="#DejaVuSans-62"/>
     <use x="186.035156" xlink:href="#DejaVuSans-72"/>
     <use x="227.148438" xlink:href="#DejaVuSans-69"/>
     <use x="254.931641" xlink:href="#DejaVuSans-64"/>
    </g>
   </g>
   <g id="text_15">
    <!-- 2hybrid -->
    <g transform="translate(369.479935 257.556227)scale(0.17 -0.17)">
     <use xlink:href="#DejaVuSans-32"/>
     <use x="63.623047" xlink:href="#DejaVuSans-68"/>
     <use x="127.001953" xlink:href="#DejaVuSans-79"/>
     <use x="186.181641" xlink:href="#DejaVuSans-62"/>
     <use x="249.658203" xlink:href="#DejaVuSans-72"/>
     <use x="290.771484" xlink:href="#DejaVuSans-69"/>
     <use x="318.554688" xlink:href="#DejaVuSans-64"/>
    </g>
   </g>
   <g id="text_16">
    <!-- GA -->
    <defs>
     <path d="M 59.515625 10.40625 
L 59.515625 29.984375 
L 43.40625 29.984375 
L 43.40625 38.09375 
L 69.28125 38.09375 
L 69.28125 6.78125 
Q 63.578125 2.734375 56.6875 0.65625 
Q 49.8125 -1.421875 42 -1.421875 
Q 24.90625 -1.421875 15.25 8.5625 
Q 5.609375 18.5625 5.609375 36.375 
Q 5.609375 54.25 15.25 64.234375 
Q 24.90625 74.21875 42 74.21875 
Q 49.125 74.21875 55.546875 72.453125 
Q 61.96875 70.703125 67.390625 67.28125 
L 67.390625 56.78125 
Q 61.921875 61.421875 55.765625 63.765625 
Q 49.609375 66.109375 42.828125 66.109375 
Q 29.4375 66.109375 22.71875 58.640625 
Q 16.015625 51.171875 16.015625 36.375 
Q 16.015625 21.625 22.71875 14.15625 
Q 29.4375 6.6875 42.828125 6.6875 
Q 48.046875 6.6875 52.140625 7.59375 
Q 56.25 8.5 59.515625 10.40625 
z
" id="DejaVuSans-47"/>
     <path d="M 34.1875 63.1875 
L 20.796875 26.90625 
L 47.609375 26.90625 
z
M 28.609375 72.90625 
L 39.796875 72.90625 
L 67.578125 0 
L 57.328125 0 
L 50.6875 18.703125 
L 17.828125 18.703125 
L 11.1875 0 
L 0.78125 0 
z
" id="DejaVuSans-41"/>
    </defs>
    <g transform="translate(369.479935 220.888844)scale(0.17 -0.17)">
     <use xlink:href="#DejaVuSans-47"/>
     <use x="77.490234" xlink:href="#DejaVuSans-41"/>
    </g>
   </g>
   <g id="text_17">
    <!-- PSO -->
    <defs>
     <path d="M 19.671875 64.796875 
L 19.671875 37.40625 
L 32.078125 37.40625 
Q 38.96875 37.40625 42.71875 40.96875 
Q 46.484375 44.53125 46.484375 51.125 
Q 46.484375 57.671875 42.71875 61.234375 
Q 38.96875 64.796875 32.078125 64.796875 
z
M 9.8125 72.90625 
L 32.078125 72.90625 
Q 44.34375 72.90625 50.609375 67.359375 
Q 56.890625 61.8125 56.890625 51.125 
Q 56.890625 40.328125 50.609375 34.8125 
Q 44.34375 29.296875 32.078125 29.296875 
L 19.671875 29.296875 
L 19.671875 0 
L 9.8125 0 
z
" id="DejaVuSans-50"/>
     <path d="M 53.515625 70.515625 
L 53.515625 60.890625 
Q 47.90625 63.578125 42.921875 64.890625 
Q 37.9375 66.21875 33.296875 66.21875 
Q 25.25 66.21875 20.875 63.09375 
Q 16.5 59.96875 16.5 54.203125 
Q 16.5 49.359375 19.40625 46.890625 
Q 22.3125 44.4375 30.421875 42.921875 
L 36.375 41.703125 
Q 47.40625 39.59375 52.65625 34.296875 
Q 57.90625 29 57.90625 20.125 
Q 57.90625 9.515625 50.796875 4.046875 
Q 43.703125 -1.421875 29.984375 -1.421875 
Q 24.8125 -1.421875 18.96875 -0.25 
Q 13.140625 0.921875 6.890625 3.21875 
L 6.890625 13.375 
Q 12.890625 10.015625 18.65625 8.296875 
Q 24.421875 6.59375 29.984375 6.59375 
Q 38.421875 6.59375 43.015625 9.90625 
Q 47.609375 13.234375 47.609375 19.390625 
Q 47.609375 24.75 44.3125 27.78125 
Q 41.015625 30.8125 33.5 32.328125 
L 27.484375 33.5 
Q 16.453125 35.6875 11.515625 40.375 
Q 6.59375 45.0625 6.59375 53.421875 
Q 6.59375 63.09375 13.40625 68.65625 
Q 20.21875 74.21875 32.171875 74.21875 
Q 37.3125 74.21875 42.625 73.28125 
Q 47.953125 72.359375 53.515625 70.515625 
z
" id="DejaVuSans-53"/>
     <path d="M 39.40625 66.21875 
Q 28.65625 66.21875 22.328125 58.203125 
Q 16.015625 50.203125 16.015625 36.375 
Q 16.015625 22.609375 22.328125 14.59375 
Q 28.65625 6.59375 39.40625 6.59375 
Q 50.140625 6.59375 56.421875 14.59375 
Q 62.703125 22.609375 62.703125 36.375 
Q 62.703125 50.203125 56.421875 58.203125 
Q 50.140625 66.21875 39.40625 66.21875 
z
M 39.40625 74.21875 
Q 54.734375 74.21875 63.90625 63.9375 
Q 73.09375 53.65625 73.09375 36.375 
Q 73.09375 19.140625 63.90625 8.859375 
Q 54.734375 -1.421875 39.40625 -1.421875 
Q 24.03125 -1.421875 14.8125 8.828125 
Q 5.609375 19.09375 5.609375 36.375 
Q 5.609375 53.65625 14.8125 63.9375 
Q 24.03125 74.21875 39.40625 74.21875 
z
" id="DejaVuSans-4f"/>
    </defs>
    <g transform="translate(369.479935 184.221461)scale(0.17 -0.17)">
     <use xlink:href="#DejaVuSans-50"/>
     <use x="60.302734" xlink:href="#DejaVuSans-53"/>
     <use x="123.779297" xlink:href="#DejaVuSans-4f"/>
    </g>
   </g>
   <g id="text_18">
    <!-- ALPS -->
    <defs>
     <path d="M 9.8125 72.90625 
L 19.671875 72.90625 
L 19.671875 8.296875 
L 55.171875 8.296875 
L 55.171875 0 
L 9.8125 0 
z
" id="DejaVuSans-4c"/>
    </defs>
    <g transform="translate(369.479935 147.554078)scale(0.17 -0.17)">
     <use xlink:href="#DejaVuSans-41"/>
     <use x="68.408203" xlink:href="#DejaVuSans-4c"/>
     <use x="124.121094" xlink:href="#DejaVuSans-50"/>
     <use x="184.423828" xlink:href="#DejaVuSans-53"/>
    </g>
   </g>
   <g id="text_19">
    <!-- DASA -->
    <defs>
     <path d="M 19.671875 64.796875 
L 19.671875 8.109375 
L 31.59375 8.109375 
Q 46.6875 8.109375 53.6875 14.9375 
Q 60.6875 21.78125 60.6875 36.53125 
Q 60.6875 51.171875 53.6875 57.984375 
Q 46.6875 64.796875 31.59375 64.796875 
z
M 9.8125 72.90625 
L 30.078125 72.90625 
Q 51.265625 72.90625 61.171875 64.09375 
Q 71.09375 55.28125 71.09375 36.53125 
Q 71.09375 17.671875 61.125 8.828125 
Q 51.171875 0 30.078125 0 
L 9.8125 0 
z
" id="DejaVuSans-44"/>
    </defs>
    <g transform="translate(369.479935 110.886694)scale(0.17 -0.17)">
     <use xlink:href="#DejaVuSans-44"/>
     <use x="76.986328" xlink:href="#DejaVuSans-41"/>
     <use x="145.394531" xlink:href="#DejaVuSans-53"/>
     <use x="208.886719" xlink:href="#DejaVuSans-41"/>
    </g>
   </g>
   <g id="text_20">
    <!-- Rosenbroc -->
    <defs>
     <path d="M 44.390625 34.1875 
Q 47.5625 33.109375 50.5625 29.59375 
Q 53.5625 26.078125 56.59375 19.921875 
L 66.609375 0 
L 56 0 
L 46.6875 18.703125 
Q 43.0625 26.03125 39.671875 28.421875 
Q 36.28125 30.8125 30.421875 30.8125 
L 19.671875 30.8125 
L 19.671875 0 
L 9.8125 0 
L 9.8125 72.90625 
L 32.078125 72.90625 
Q 44.578125 72.90625 50.734375 67.671875 
Q 56.890625 62.453125 56.890625 51.90625 
Q 56.890625 45.015625 53.6875 40.46875 
Q 50.484375 35.9375 44.390625 34.1875 
z
M 19.671875 64.796875 
L 19.671875 38.921875 
L 32.078125 38.921875 
Q 39.203125 38.921875 42.84375 42.21875 
Q 46.484375 45.515625 46.484375 51.90625 
Q 46.484375 58.296875 42.84375 61.546875 
Q 39.203125 64.796875 32.078125 64.796875 
z
" id="DejaVuSans-52"/>
    </defs>
    <g transform="translate(369.479935 74.219311)scale(0.17 -0.17)">
     <use xlink:href="#DejaVuSans-52"/>
     <use x="69.419922" xlink:href="#DejaVuSans-6f"/>
     <use x="130.601562" xlink:href="#DejaVuSans-73"/>
     <use x="182.701172" xlink:href="#DejaVuSans-65"/>
     <use x="244.224609" xlink:href="#DejaVuSans-6e"/>
     <use x="307.603516" xlink:href="#DejaVuSans-62"/>
     <use x="371.080078" xlink:href="#DejaVuSans-72"/>
     <use x="412.162109" xlink:href="#DejaVuSans-6f"/>
     <use x="473.34375" xlink:href="#DejaVuSans-63"/>
    </g>
   </g>
   <g id="text_21">
    <!-- best 2009 -->
    <defs>
     <path d="M 10.984375 1.515625 
L 10.984375 10.5 
Q 14.703125 8.734375 18.5 7.8125 
Q 22.3125 6.890625 25.984375 6.890625 
Q 35.75 6.890625 40.890625 13.453125 
Q 46.046875 20.015625 46.78125 33.40625 
Q 43.953125 29.203125 39.59375 26.953125 
Q 35.25 24.703125 29.984375 24.703125 
Q 19.046875 24.703125 12.671875 31.3125 
Q 6.296875 37.9375 6.296875 49.421875 
Q 6.296875 60.640625 12.9375 67.421875 
Q 19.578125 74.21875 30.609375 74.21875 
Q 43.265625 74.21875 49.921875 64.515625 
Q 56.59375 54.828125 56.59375 36.375 
Q 56.59375 19.140625 48.40625 8.859375 
Q 40.234375 -1.421875 26.421875 -1.421875 
Q 22.703125 -1.421875 18.890625 -0.6875 
Q 15.09375 0.046875 10.984375 1.515625 
z
M 30.609375 32.421875 
Q 37.25 32.421875 41.125 36.953125 
Q 45.015625 41.5 45.015625 49.421875 
Q 45.015625 57.28125 41.125 61.84375 
Q 37.25 66.40625 30.609375 66.40625 
Q 23.96875 66.40625 20.09375 61.84375 
Q 16.21875 57.28125 16.21875 49.421875 
Q 16.21875 41.5 20.09375 36.953125 
Q 23.96875 32.421875 30.609375 32.421875 
z
" id="DejaVuSans-39"/>
    </defs>
    <g transform="translate(369.479935 37.551928)scale(0.17 -0.17)">
     <use xlink:href="#DejaVuSans-62"/>
     <use x="63.476562" xlink:href="#DejaVuSans-65"/>
     <use x="125" xlink:href="#DejaVuSans-73"/>
     <use x="177.099609" xlink:href="#DejaVuSans-74"/>
     <use x="216.308594" xlink:href="#DejaVuSans-20"/>
     <use x="248.095703" xlink:href="#DejaVuSans-32"/>
     <use x="311.71875" xlink:href="#DejaVuSans-30"/>
     <use x="375.341797" xlink:href="#DejaVuSans-30"/>
     <use x="438.964844" xlink:href="#DejaVuSans-39"/>
    </g>
   </g>
   <g id="text_22">
    <!-- bbob f5, 20-D -->
    <defs>
     <path d="M 10.796875 72.90625 
L 49.515625 72.90625 
L 49.515625 64.59375 
L 19.828125 64.59375 
L 19.828125 46.734375 
Q 21.96875 47.46875 24.109375 47.828125 
Q 26.265625 48.1875 28.421875 48.1875 
Q 40.625 48.1875 47.75 41.5 
Q 54.890625 34.8125 54.890625 23.390625 
Q 54.890625 11.625 47.5625 5.09375 
Q 40.234375 -1.421875 26.90625 -1.421875 
Q 22.3125 -1.421875 17.546875 -0.640625 
Q 12.796875 0.140625 7.71875 1.703125 
L 7.71875 11.625 
Q 12.109375 9.234375 16.796875 8.0625 
Q 21.484375 6.890625 26.703125 6.890625 
Q 35.15625 6.890625 40.078125 11.328125 
Q 45.015625 15.765625 45.015625 23.390625 
Q 45.015625 31 40.078125 35.4375 
Q 35.15625 39.890625 26.703125 39.890625 
Q 22.75 39.890625 18.8125 39.015625 
Q 14.890625 38.140625 10.796875 36.28125 
z
" id="DejaVuSans-35"/>
    </defs>
    <g transform="translate(59.55864 35.290806)scale(0.102 -0.102)">
     <use xlink:href="#DejaVuSans-62"/>
     <use x="63.476562" xlink:href="#DejaVuSans-62"/>
     <use x="126.953125" xlink:href="#DejaVuSans-6f"/>
     <use x="188.134766" xlink:href="#DejaVuSans-62"/>
     <use x="251.611328" xlink:href="#DejaVuSans-20"/>
     <use x="283.398438" xlink:href="#DejaVuSans-66"/>
     <use x="318.603516" xlink:href="#DejaVuSans-35"/>
     <use x="382.226562" xlink:href="#DejaVuSans-2c"/>
     <use x="414.013672" xlink:href="#DejaVuSans-20"/>
     <use x="445.800781" xlink:href="#DejaVuSans-32"/>
     <use x="509.423828" xlink:href="#DejaVuSans-30"/>
     <use x="573.046875" xlink:href="#DejaVuSans-2d"/>
     <use x="609.130859" xlink:href="#DejaVuSans-44"/>
    </g>
    <!-- 51 targets: 100..1e-08 -->
    <defs>
     <path d="M 11.71875 12.40625 
L 22.015625 12.40625 
L 22.015625 0 
L 11.71875 0 
z
M 11.71875 51.703125 
L 22.015625 51.703125 
L 22.015625 39.3125 
L 11.71875 39.3125 
z
" id="DejaVuSans-3a"/>
    </defs>
    <g transform="translate(59.55864 46.712575)scale(0.102 -0.102)">
     <use xlink:href="#DejaVuSans-35"/>
     <use x="63.623047" xlink:href="#DejaVuSans-31"/>
     <use x="127.246094" xlink:href="#DejaVuSans-20"/>
     <use x="159.033203" xlink:href="#DejaVuSans-74"/>
     <use x="198.242188" xlink:href="#DejaVuSans-61"/>
     <use x="259.521484" xlink:href="#DejaVuSans-72"/>
     <use x="300.619141" xlink:href="#DejaVuSans-67"/>
     <use x="364.095703" xlink:href="#DejaVuSans-65"/>
     <use x="425.619141" xlink:href="#DejaVuSans-74"/>
     <use x="464.828125" xlink:href="#DejaVuSans-73"/>
     <use x="516.927734" xlink:href="#DejaVuSans-3a"/>
     <use x="550.619141" xlink:href="#DejaVuSans-20"/>
     <use x="582.40625" xlink:href="#DejaVuSans-31"/>
     <use x="646.029297" xlink:href="#DejaVuSans-30"/>
     <use x="709.652344" xlink:href="#DejaVuSans-30"/>
     <use x="773.275391" xlink:href="#DejaVuSans-2e"/>
     <use x="805.0625" xlink:href="#DejaVuSans-2e"/>
     <use x="836.849609" xlink:href="#DejaVuSans-31"/>
     <use x="900.472656" xlink:href="#DejaVuSans-65"/>
     <use x="961.996094" xlink:href="#DejaVuSans-2d"/>
     <use x="998.080078" xlink:href="#DejaVuSans-30"/>
     <use x="1061.703125" xlink:href="#DejaVuSans-38"/>
    </g>
    <!-- 15 instances -->
    <g transform="translate(59.55864 58.134344)scale(0.102 -0.102)">
     <use xlink:href="#DejaVuSans-31"/>
     <use x="63.623047" xlink:href="#DejaVuSans-35"/>
     <use x="127.246094" xlink:href="#DejaVuSans-20"/>
     <use x="159.033203" xlink:href="#DejaVuSans-69"/>
     <use x="186.816406" xlink:href="#DejaVuSans-6e"/>
     <use x="250.195312" xlink:href="#DejaVuSans-73"/>
     <use x="302.294922" xlink:href="#DejaVuSans-74"/>
     <use x="341.503906" xlink:href="#DejaVuSans-61"/>
     <use x="402.783203" xlink:href="#DejaVuSans-6e"/>
     <use x="466.162109" xlink:href="#DejaVuSans-63"/>
     <use x="521.142578" xlink:href="#DejaVuSans-65"/>
     <use x="582.666016" xlink:href="#DejaVuSans-73"/>
    </g>
   </g>
   <g id="text_23">
    <!-- v-coco-version -->
    <g style="fill:#808080;" transform="translate(191.556688 290.099912)scale(0.1 -0.1)">
     <use xlink:href="#DejaVuSans-76"/>
     <use x="59.148438" xlink:href="#DejaVuSans-2d"/>
     <use x="95.232422" xlink:href="#DejaVuSans-63"/>
     <use x="150.212891" xlink:href="#DejaVuSans-6f"/>
     <use x="211.394531" xlink:href="#DejaVuSans-63"/>
     <use x="266.375" xlink:href="#DejaVuSans-6f"/>
     <use x="327.572266" xlink:href="#DejaVuSans-2d"/>
     <use x="363.625" xlink:href="#DejaVuSans-76"/>
     <use x="422.804688" xlink:href="#DejaVuSans-65"/>
     <use x="484.328125" xlink:href="#DejaVuSans-72"/>
     <use x="525.441406" xlink:href="#DejaVuSans-73"/>
     <use x="577.541016" xlink:href="#DejaVuSans-69"/>
     <use x="605.324219" xlink:href="#DejaVuSans-6f"/>
     <use x="666.505859" xlink:href="#DejaVuSans-6e"/>
    </g>
   </g>
   <g id="text_24">
    <!-- 5 Linear slope -->
    <g transform="translate(157.64575 18.84)scale(0.2 -0.2)">
     <use xlink:href="#DejaVuSans-35"/>
     <use x="63.623047" xlink:href="#DejaVuSans-20"/>
     <use x="95.410156" xlink:href="#DejaVuSans-4c"/>
     <use x="151.123047" xlink:href="#DejaVuSans-69"/>
     <use x="178.90625" xlink:href="#DejaVuSans-6e"/>
     <use x="242.285156" xlink:href="#DejaVuSans-65"/>
     <use x="303.808594" xlink:href="#DejaVuSans-61"/>
     <use x="365.087891" xlink:href="#DejaVuSans-72"/>
     <use x="406.201172" xlink:href="#DejaVuSans-20"/>
     <use x="437.988281" xlink:href="#DejaVuSans-73"/>
     <use x="490.087891" xlink:href="#DejaVuSans-6c"/>
     <use x="517.871094" xlink:href="#DejaVuSans-6f"/>
     <use x="579.052734" xlink:href="#DejaVuSans-70"/>
     <use x="642.529297" xlink:href="#DejaVuSans-65"/>
    </g>
   </g>
  </g>
 </g>
 <defs>
  <clipPath id="pe490ed5980">
   <rect height="270.04" width="343.864" x="56.12" y="24.84"/>
  </clipPath>
 </defs>
</svg>
