<?xml version="1.0" encoding="utf-8" standalone="no"?>
<!DOCTYPE svg PUBLIC "-//W3C//DTD SVG 1.1//EN"
  "http://www.w3.org/Graphics/SVG/1.1/DTD/svg11.dtd">
<!-- Created with matplotlib (http://matplotlib.org/) -->
<svg height="345.6pt" version="1.1" viewBox="0 0 460.8 345.6" width="460.8pt" xmlns="http://www.w3.org/2000/svg" xmlns:xlink="http://www.w3.org/1999/xlink">
 <defs>
  <style type="text/css">
*{stroke-linecap:butt;stroke-linejoin:round;}
  </style>
 </defs>
 <g id="figure_1">
  <g id="patch_1">
   <path d="M 0 345.6 
L 460.8 345.6 
L 460.8 0 
L 0 0 
z
" style="fill:#ffffff;"/>
  </g>
  <g id="axes_1">
   <g id="patch_2">
    <path d="M 56.12 294.88 
L 399.984 294.88 
L 399.984 24.84 
L 56.12 24.84 
z
" style="fill:#ffffff;"/>
   </g>
   <g id="line2d_1">
    <path d="M 4.578827 294.88 
L 4.578827 289.637523 
L 53.323884 289.637523 
L 53.323884 284.395046 
L 77.300936 284.395046 
L 77.300936 279.152568 
L 81.610808 279.152568 
L 81.610808 273.910091 
L 86.730565 273.910091 
L 86.730565 268.667614 
L 91.014019 268.667614 
L 91.014019 263.425137 
L 94.440787 263.425137 
L 94.440787 258.18266 
L 97.297085 258.18266 
L 97.297085 252.940182 
L 99.711914 252.940182 
L 99.711914 247.697705 
L 101.979409 247.697705 
L 101.979409 242.455228 
L 103.164427 242.455228 
L 103.164427 237.212751 
L 104.16799 237.212751 
L 104.16799 231.970274 
L 105.04126 231.970274 
L 105.04126 226.727797 
L 105.75261 226.727797 
L 105.75261 221.485319 
L 106.435713 221.485319 
L 106.435713 216.242842 
L 107.159283 216.242842 
L 107.159283 211.000365 
L 108.065011 211.000365 
L 108.065011 205.757888 
L 109.281409 205.757888 
L 109.281409 200.515411 
L 110.654016 200.515411 
L 110.654016 195.272933 
L 111.857888 195.272933 
L 111.857888 190.030456 
L 113.218153 190.030456 
L 113.218153 184.787979 
L 114.92153 184.787979 
L 114.92153 179.545502 
L 117.496945 179.545502 
L 117.496945 174.303025 
L 120.385092 174.303025 
L 120.385092 169.060547 
L 122.696591 169.060547 
L 122.696591 163.81807 
L 125.120287 163.81807 
L 125.120287 158.575593 
L 128.998375 158.575593 
L 128.998375 153.333116 
L 130.413271 153.333116 
L 130.413271 148.090639 
L 131.533674 148.090639 
L 131.533674 142.848162 
L 132.686286 142.848162 
L 132.686286 137.605684 
L 133.648193 137.605684 
L 133.648193 132.363207 
L 134.666912 132.363207 
L 134.666912 127.12073 
L 135.70047 127.12073 
L 135.70047 121.878253 
L 136.663489 121.878253 
L 136.663489 116.635776 
L 137.594337 116.635776 
L 137.594337 111.393298 
L 138.577531 111.393298 
L 138.577531 106.150821 
L 139.765732 106.150821 
L 139.765732 100.908344 
L 169.190428 100.908344 
L 169.190428 95.665867 
L 172.175442 95.665867 
L 172.175442 90.42339 
L 173.706406 90.42339 
L 173.706406 85.180912 
L 175.284075 85.180912 
L 175.284075 79.938435 
L 176.353919 79.938435 
L 176.353919 74.695958 
L 177.721456 74.695958 
L 177.721456 69.453481 
L 179.461083 69.453481 
L 179.461083 64.211004 
L 180.7839 64.211004 
L 180.7839 58.968526 
L 181.273764 58.968526 
L 181.273764 53.726049 
L 181.771511 53.726049 
L 181.771511 48.483572 
L 182.214947 48.483572 
L 182.214947 43.241095 
L 182.696166 43.241095 
L 182.696166 37.998618 
L 183.145048 37.998618 
L 183.145048 32.756141 
L 183.616631 32.756141 
L 183.616631 27.513663 
L 333.429677 27.513663 
" style="fill:none;stroke:#f5deb3;stroke-linecap:square;stroke-width:6;"/>
   </g>
   <g id="line2d_2">
    <defs>
     <path d="M -0 7.778175 
L 7.778175 0 
L 0 -7.778175 
L -7.778175 -0 
z
" id="m28d0ada06f" style="stroke:#f5deb3;stroke-linejoin:miter;stroke-width:1.5;"/>
    </defs>
    <g>
     <use style="fill:#f5deb3;stroke:#f5deb3;stroke-linejoin:miter;stroke-width:1.5;" x="105.75261" xlink:href="#m28d0ada06f" y="226.727797"/>
     <use style="fill:#f5deb3;stroke:#f5deb3;stroke-linejoin:miter;stroke-width:1.5;" x="139.765732" xlink:href="#m28d0ada06f" y="106.150821"/>
     <use style="fill:#f5deb3;stroke:#f5deb3;stroke-linejoin:miter;stroke-width:1.5;" x="183.616631" xlink:href="#m28d0ada06f" y="32.756141"/>
     <use style="fill:#f5deb3;stroke:#f5deb3;stroke-linejoin:miter;stroke-width:1.5;" x="183.616631" xlink:href="#m28d0ada06f" y="27.513663"/>
     <use style="fill:#f5deb3;stroke:#f5deb3;stroke-linejoin:miter;stroke-width:1.5;" x="183.616631" xlink:href="#m28d0ada06f" y="27.513663"/>
     <use style="fill:#f5deb3;stroke:#f5deb3;stroke-linejoin:miter;stroke-width:1.5;" x="333.429677" xlink:href="#m28d0ada06f" y="27.513663"/>
    </g>
   </g>
   <g id="line2d_3">
    <path style="fill:none;stroke:#f5deb3;stroke-linecap:square;stroke-width:6;"/>
    <g/>
   </g>
   <g id="line2d_4">
    <path d="M 333.429677 27.513663 
L 363.933742 32.86099 
" style="fill:none;stroke:#f5deb3;stroke-linecap:square;stroke-width:6;"/>
    <g>
     <use style="fill:#f5deb3;stroke:#f5deb3;stroke-linejoin:miter;stroke-width:1.5;" x="333.429677" xlink:href="#m28d0ada06f" y="27.513663"/>
     <use style="fill:#f5deb3;stroke:#f5deb3;stroke-linejoin:miter;stroke-width:1.5;" x="363.933742" xlink:href="#m28d0ada06f" y="32.86099"/>
    </g>
   </g>
   <g id="matplotlib.axis_1">
    <g id="xtick_1">
     <g id="line2d_5">
      <path clip-path="url(#p750f890722)" d="M 56.12 294.88 
L 56.12 24.84 
" style="fill:none;stroke:#b0b0b0;stroke-linecap:square;stroke-width:0.8;"/>
     </g>
     <g id="line2d_6">
      <defs>
       <path d="M 0 0 
L 0 3.5 
" id="mec51acaa34" style="stroke:#000000;stroke-width:0.8;"/>
      </defs>
      <g>
       <use style="stroke:#000000;stroke-width:0.8;" x="56.12" xlink:href="#mec51acaa34" y="294.88"/>
      </g>
     </g>
     <g id="text_1">
      <!-- 0 -->
      <defs>
       <path d="M 31.78125 66.40625 
Q 24.171875 66.40625 20.328125 58.90625 
Q 16.5 51.421875 16.5 36.375 
Q 16.5 21.390625 20.328125 13.890625 
Q 24.171875 6.390625 31.78125 6.390625 
Q 39.453125 6.390625 43.28125 13.890625 
Q 47.125 21.390625 47.125 36.375 
Q 47.125 51.421875 43.28125 58.90625 
Q 39.453125 66.40625 31.78125 66.40625 
z
M 31.78125 74.21875 
Q 44.046875 74.21875 50.515625 64.515625 
Q 56.984375 54.828125 56.984375 36.375 
Q 56.984375 17.96875 50.515625 8.265625 
Q 44.046875 -1.421875 31.78125 -1.421875 
Q 19.53125 -1.421875 13.0625 8.265625 
Q 6.59375 17.96875 6.59375 36.375 
Q 6.59375 54.828125 13.0625 64.515625 
Q 19.53125 74.21875 31.78125 74.21875 
z
" id="DejaVuSans-30"/>
      </defs>
      <g transform="translate(49.7575 317.076875)scale(0.2 -0.2)">
       <use xlink:href="#DejaVuSans-30"/>
      </g>
     </g>
    </g>
    <g id="xtick_2">
     <g id="line2d_7">
      <path clip-path="url(#p750f890722)" d="M 135.351336 294.88 
L 135.351336 24.84 
" style="fill:none;stroke:#b0b0b0;stroke-linecap:square;stroke-width:0.8;"/>
     </g>
     <g id="line2d_8">
      <g>
       <use style="stroke:#000000;stroke-width:0.8;" x="135.351336" xlink:href="#mec51acaa34" y="294.88"/>
      </g>
     </g>
     <g id="text_2">
      <!-- 2 -->
      <defs>
       <path d="M 19.1875 8.296875 
L 53.609375 8.296875 
L 53.609375 0 
L 7.328125 0 
L 7.328125 8.296875 
Q 12.9375 14.109375 22.625 23.890625 
Q 32.328125 33.6875 34.8125 36.53125 
Q 39.546875 41.84375 41.421875 45.53125 
Q 43.3125 49.21875 43.3125 52.78125 
Q 43.3125 58.59375 39.234375 62.25 
Q 35.15625 65.921875 28.609375 65.921875 
Q 23.96875 65.921875 18.8125 64.3125 
Q 13.671875 62.703125 7.8125 59.421875 
L 7.8125 69.390625 
Q 13.765625 71.78125 18.9375 73 
Q 24.125 74.21875 28.421875 74.21875 
Q 39.75 74.21875 46.484375 68.546875 
Q 53.21875 62.890625 53.21875 53.421875 
Q 53.21875 48.921875 51.53125 44.890625 
Q 49.859375 40.875 45.40625 35.40625 
Q 44.1875 33.984375 37.640625 27.21875 
Q 31.109375 20.453125 19.1875 8.296875 
z
" id="DejaVuSans-32"/>
      </defs>
      <g transform="translate(128.988836 317.076875)scale(0.2 -0.2)">
       <use xlink:href="#DejaVuSans-32"/>
      </g>
     </g>
    </g>
    <g id="xtick_3">
     <g id="line2d_9">
      <path clip-path="url(#p750f890722)" d="M 214.582673 294.88 
L 214.582673 24.84 
" style="fill:none;stroke:#b0b0b0;stroke-linecap:square;stroke-width:0.8;"/>
     </g>
     <g id="line2d_10">
      <g>
       <use style="stroke:#000000;stroke-width:0.8;" x="214.582673" xlink:href="#mec51acaa34" y="294.88"/>
      </g>
     </g>
     <g id="text_3">
      <!-- 4 -->
      <defs>
       <path d="M 37.796875 64.3125 
L 12.890625 25.390625 
L 37.796875 25.390625 
z
M 35.203125 72.90625 
L 47.609375 72.90625 
L 47.609375 25.390625 
L 58.015625 25.390625 
L 58.015625 17.1875 
L 47.609375 17.1875 
L 47.609375 0 
L 37.796875 0 
L 37.796875 17.1875 
L 4.890625 17.1875 
L 4.890625 26.703125 
z
" id="DejaVuSans-34"/>
      </defs>
      <g transform="translate(208.220173 317.076875)scale(0.2 -0.2)">
       <use xlink:href="#DejaVuSans-34"/>
      </g>
     </g>
    </g>
    <g id="xtick_4">
     <g id="line2d_11">
      <path clip-path="url(#p750f890722)" d="M 293.814009 294.88 
L 293.814009 24.84 
" style="fill:none;stroke:#b0b0b0;stroke-linecap:square;stroke-width:0.8;"/>
     </g>
     <g id="line2d_12">
      <g>
       <use style="stroke:#000000;stroke-width:0.8;" x="293.814009" xlink:href="#mec51acaa34" y="294.88"/>
      </g>
     </g>
     <g id="text_4">
      <!-- 6 -->
      <defs>
       <path d="M 33.015625 40.375 
Q 26.375 40.375 22.484375 35.828125 
Q 18.609375 31.296875 18.609375 23.390625 
Q 18.609375 15.53125 22.484375 10.953125 
Q 26.375 6.390625 33.015625 6.390625 
Q 39.65625 6.390625 43.53125 10.953125 
Q 47.40625 15.53125 47.40625 23.390625 
Q 47.40625 31.296875 43.53125 35.828125 
Q 39.65625 40.375 33.015625 40.375 
z
M 52.59375 71.296875 
L 52.59375 62.3125 
Q 48.875 64.0625 45.09375 64.984375 
Q 41.3125 65.921875 37.59375 65.921875 
Q 27.828125 65.921875 22.671875 59.328125 
Q 17.53125 52.734375 16.796875 39.40625 
Q 19.671875 43.65625 24.015625 45.921875 
Q 28.375 48.1875 33.59375 48.1875 
Q 44.578125 48.1875 50.953125 41.515625 
Q 57.328125 34.859375 57.328125 23.390625 
Q 57.328125 12.15625 50.6875 5.359375 
Q 44.046875 -1.421875 33.015625 -1.421875 
Q 20.359375 -1.421875 13.671875 8.265625 
Q 6.984375 17.96875 6.984375 36.375 
Q 6.984375 53.65625 15.1875 63.9375 
Q 23.390625 74.21875 37.203125 74.21875 
Q 40.921875 74.21875 44.703125 73.484375 
Q 48.484375 72.75 52.59375 71.296875 
z
" id="DejaVuSans-36"/>
      </defs>
      <g transform="translate(287.451509 317.076875)scale(0.2 -0.2)">
       <use xlink:href="#DejaVuSans-36"/>
      </g>
     </g>
    </g>
    <g id="xtick_5">
     <g id="line2d_13">
      <path clip-path="url(#p750f890722)" d="M 373.045346 294.88 
L 373.045346 24.84 
" style="fill:none;stroke:#b0b0b0;stroke-linecap:square;stroke-width:0.8;"/>
     </g>
     <g id="line2d_14">
      <g>
       <use style="stroke:#000000;stroke-width:0.8;" x="373.045346" xlink:href="#mec51acaa34" y="294.88"/>
      </g>
     </g>
     <g id="text_5">
      <!-- 8 -->
      <defs>
       <path d="M 31.78125 34.625 
Q 24.75 34.625 20.71875 30.859375 
Q 16.703125 27.09375 16.703125 20.515625 
Q 16.703125 13.921875 20.71875 10.15625 
Q 24.75 6.390625 31.78125 6.390625 
Q 38.8125 6.390625 42.859375 10.171875 
Q 46.921875 13.96875 46.921875 20.515625 
Q 46.921875 27.09375 42.890625 30.859375 
Q 38.875 34.625 31.78125 34.625 
z
M 21.921875 38.8125 
Q 15.578125 40.375 12.03125 44.71875 
Q 8.5 49.078125 8.5 55.328125 
Q 8.5 64.0625 14.71875 69.140625 
Q 20.953125 74.21875 31.78125 74.21875 
Q 42.671875 74.21875 48.875 69.140625 
Q 55.078125 64.0625 55.078125 55.328125 
Q 55.078125 49.078125 51.53125 44.71875 
Q 48 40.375 41.703125 38.8125 
Q 48.828125 37.15625 52.796875 32.3125 
Q 56.78125 27.484375 56.78125 20.515625 
Q 56.78125 9.90625 50.3125 4.234375 
Q 43.84375 -1.421875 31.78125 -1.421875 
Q 19.734375 -1.421875 13.25 4.234375 
Q 6.78125 9.90625 6.78125 20.515625 
Q 6.78125 27.484375 10.78125 32.3125 
Q 14.796875 37.15625 21.921875 38.8125 
z
M 18.3125 54.390625 
Q 18.3125 48.734375 21.84375 45.5625 
Q 25.390625 42.390625 31.78125 42.390625 
Q 38.140625 42.390625 41.71875 45.5625 
Q 45.3125 48.734375 45.3125 54.390625 
Q 45.3125 60.0625 41.71875 63.234375 
Q 38.140625 66.40625 31.78125 66.40625 
Q 25.390625 66.40625 21.84375 63.234375 
Q 18.3125 60.0625 18.3125 54.390625 
z
" id="DejaVuSans-38"/>
      </defs>
      <g transform="translate(366.682846 317.076875)scale(0.2 -0.2)">
       <use xlink:href="#DejaVuSans-38"/>
      </g>
     </g>
    </g>
    <g id="text_6">
     <!-- log10(# f-evals / dimension) -->
     <defs>
      <path d="M 9.421875 75.984375 
L 18.40625 75.984375 
L 18.40625 0 
L 9.421875 0 
z
" id="DejaVuSans-6c"/>
      <path d="M 30.609375 48.390625 
Q 23.390625 48.390625 19.1875 42.75 
Q 14.984375 37.109375 14.984375 27.296875 
Q 14.984375 17.484375 19.15625 11.84375 
Q 23.34375 6.203125 30.609375 6.203125 
Q 37.796875 6.203125 41.984375 11.859375 
Q 46.1875 17.53125 46.1875 27.296875 
Q 46.1875 37.015625 41.984375 42.703125 
Q 37.796875 48.390625 30.609375 48.390625 
z
M 30.609375 56 
Q 42.328125 56 49.015625 48.375 
Q 55.71875 40.765625 55.71875 27.296875 
Q 55.71875 13.875 49.015625 6.21875 
Q 42.328125 -1.421875 30.609375 -1.421875 
Q 18.84375 -1.421875 12.171875 6.21875 
Q 5.515625 13.875 5.515625 27.296875 
Q 5.515625 40.765625 12.171875 48.375 
Q 18.84375 56 30.609375 56 
z
" id="DejaVuSans-6f"/>
      <path d="M 45.40625 27.984375 
Q 45.40625 37.75 41.375 43.109375 
Q 37.359375 48.484375 30.078125 48.484375 
Q 22.859375 48.484375 18.828125 43.109375 
Q 14.796875 37.75 14.796875 27.984375 
Q 14.796875 18.265625 18.828125 12.890625 
Q 22.859375 7.515625 30.078125 7.515625 
Q 37.359375 7.515625 41.375 12.890625 
Q 45.40625 18.265625 45.40625 27.984375 
z
M 54.390625 6.78125 
Q 54.390625 -7.171875 48.1875 -13.984375 
Q 42 -20.796875 29.203125 -20.796875 
Q 24.46875 -20.796875 20.265625 -20.09375 
Q 16.0625 -19.390625 12.109375 -17.921875 
L 12.109375 -9.1875 
Q 16.0625 -11.328125 19.921875 -12.34375 
Q 23.78125 -13.375 27.78125 -13.375 
Q 36.625 -13.375 41.015625 -8.765625 
Q 45.40625 -4.15625 45.40625 5.171875 
L 45.40625 9.625 
Q 42.625 4.78125 38.28125 2.390625 
Q 33.9375 0 27.875 0 
Q 17.828125 0 11.671875 7.65625 
Q 5.515625 15.328125 5.515625 27.984375 
Q 5.515625 40.671875 11.671875 48.328125 
Q 17.828125 56 27.875 56 
Q 33.9375 56 38.28125 53.609375 
Q 42.625 51.21875 45.40625 46.390625 
L 45.40625 54.6875 
L 54.390625 54.6875 
z
" id="DejaVuSans-67"/>
      <path d="M 12.40625 8.296875 
L 28.515625 8.296875 
L 28.515625 63.921875 
L 10.984375 60.40625 
L 10.984375 69.390625 
L 28.421875 72.90625 
L 38.28125 72.90625 
L 38.28125 8.296875 
L 54.390625 8.296875 
L 54.390625 0 
L 12.40625 0 
z
" id="DejaVuSans-31"/>
      <path d="M 31 75.875 
Q 24.46875 64.65625 21.28125 53.65625 
Q 18.109375 42.671875 18.109375 31.390625 
Q 18.109375 20.125 21.3125 9.0625 
Q 24.515625 -2 31 -13.1875 
L 23.1875 -13.1875 
Q 15.875 -1.703125 12.234375 9.375 
Q 8.59375 20.453125 8.59375 31.390625 
Q 8.59375 42.28125 12.203125 53.3125 
Q 15.828125 64.359375 23.1875 75.875 
z
" id="DejaVuSans-28"/>
      <path d="M 51.125 44 
L 36.921875 44 
L 32.8125 27.6875 
L 47.125 27.6875 
z
M 43.796875 71.78125 
L 38.71875 51.515625 
L 52.984375 51.515625 
L 58.109375 71.78125 
L 65.921875 71.78125 
L 60.890625 51.515625 
L 76.125 51.515625 
L 76.125 44 
L 58.984375 44 
L 54.984375 27.6875 
L 70.515625 27.6875 
L 70.515625 20.21875 
L 53.078125 20.21875 
L 48 0 
L 40.1875 0 
L 45.21875 20.21875 
L 30.90625 20.21875 
L 25.875 0 
L 18.015625 0 
L 23.09375 20.21875 
L 7.71875 20.21875 
L 7.71875 27.6875 
L 24.90625 27.6875 
L 29 44 
L 13.28125 44 
L 13.28125 51.515625 
L 30.90625 51.515625 
L 35.890625 71.78125 
z
" id="DejaVuSans-23"/>
      <path id="DejaVuSans-20"/>
      <path d="M 37.109375 75.984375 
L 37.109375 68.5 
L 28.515625 68.5 
Q 23.6875 68.5 21.796875 66.546875 
Q 19.921875 64.59375 19.921875 59.515625 
L 19.921875 54.6875 
L 34.71875 54.6875 
L 34.71875 47.703125 
L 19.921875 47.703125 
L 19.921875 0 
L 10.890625 0 
L 10.890625 47.703125 
L 2.296875 47.703125 
L 2.296875 54.6875 
L 10.890625 54.6875 
L 10.890625 58.5 
Q 10.890625 67.625 15.140625 71.796875 
Q 19.390625 75.984375 28.609375 75.984375 
z
" id="DejaVuSans-66"/>
      <path d="M 4.890625 31.390625 
L 31.203125 31.390625 
L 31.203125 23.390625 
L 4.890625 23.390625 
z
" id="DejaVuSans-2d"/>
      <path d="M 56.203125 29.59375 
L 56.203125 25.203125 
L 14.890625 25.203125 
Q 15.484375 15.921875 20.484375 11.0625 
Q 25.484375 6.203125 34.421875 6.203125 
Q 39.59375 6.203125 44.453125 7.46875 
Q 49.3125 8.734375 54.109375 11.28125 
L 54.109375 2.78125 
Q 49.265625 0.734375 44.1875 -0.34375 
Q 39.109375 -1.421875 33.890625 -1.421875 
Q 20.796875 -1.421875 13.15625 6.1875 
Q 5.515625 13.8125 5.515625 26.8125 
Q 5.515625 40.234375 12.765625 48.109375 
Q 20.015625 56 32.328125 56 
Q 43.359375 56 49.78125 48.890625 
Q 56.203125 41.796875 56.203125 29.59375 
z
M 47.21875 32.234375 
Q 47.125 39.59375 43.09375 43.984375 
Q 39.0625 48.390625 32.421875 48.390625 
Q 24.90625 48.390625 20.390625 44.140625 
Q 15.875 39.890625 15.1875 32.171875 
z
" id="DejaVuSans-65"/>
      <path d="M 2.984375 54.6875 
L 12.5 54.6875 
L 29.59375 8.796875 
L 46.6875 54.6875 
L 56.203125 54.6875 
L 35.6875 0 
L 23.484375 0 
z
" id="DejaVuSans-76"/>
      <path d="M 34.28125 27.484375 
Q 23.390625 27.484375 19.1875 25 
Q 14.984375 22.515625 14.984375 16.5 
Q 14.984375 11.71875 18.140625 8.90625 
Q 21.296875 6.109375 26.703125 6.109375 
Q 34.1875 6.109375 38.703125 11.40625 
Q 43.21875 16.703125 43.21875 25.484375 
L 43.21875 27.484375 
z
M 52.203125 31.203125 
L 52.203125 0 
L 43.21875 0 
L 43.21875 8.296875 
Q 40.140625 3.328125 35.546875 0.953125 
Q 30.953125 -1.421875 24.3125 -1.421875 
Q 15.921875 -1.421875 10.953125 3.296875 
Q 6 8.015625 6 15.921875 
Q 6 25.140625 12.171875 29.828125 
Q 18.359375 34.515625 30.609375 34.515625 
L 43.21875 34.515625 
L 43.21875 35.40625 
Q 43.21875 41.609375 39.140625 45 
Q 35.0625 48.390625 27.6875 48.390625 
Q 23 48.390625 18.546875 47.265625 
Q 14.109375 46.140625 10.015625 43.890625 
L 10.015625 52.203125 
Q 14.9375 54.109375 19.578125 55.046875 
Q 24.21875 56 28.609375 56 
Q 40.484375 56 46.34375 49.84375 
Q 52.203125 43.703125 52.203125 31.203125 
z
" id="DejaVuSans-61"/>
      <path d="M 44.28125 53.078125 
L 44.28125 44.578125 
Q 40.484375 46.53125 36.375 47.5 
Q 32.28125 48.484375 27.875 48.484375 
Q 21.1875 48.484375 17.84375 46.4375 
Q 14.5 44.390625 14.5 40.28125 
Q 14.5 37.15625 16.890625 35.375 
Q 19.28125 33.59375 26.515625 31.984375 
L 29.59375 31.296875 
Q 39.15625 29.25 43.1875 25.515625 
Q 47.21875 21.78125 47.21875 15.09375 
Q 47.21875 7.46875 41.1875 3.015625 
Q 35.15625 -1.421875 24.609375 -1.421875 
Q 20.21875 -1.421875 15.453125 -0.5625 
Q 10.6875 0.296875 5.421875 2 
L 5.421875 11.28125 
Q 10.40625 8.6875 15.234375 7.390625 
Q 20.0625 6.109375 24.8125 6.109375 
Q 31.15625 6.109375 34.5625 8.28125 
Q 37.984375 10.453125 37.984375 14.40625 
Q 37.984375 18.0625 35.515625 20.015625 
Q 33.0625 21.96875 24.703125 23.78125 
L 21.578125 24.515625 
Q 13.234375 26.265625 9.515625 29.90625 
Q 5.8125 33.546875 5.8125 39.890625 
Q 5.8125 47.609375 11.28125 51.796875 
Q 16.75 56 26.8125 56 
Q 31.78125 56 36.171875 55.265625 
Q 40.578125 54.546875 44.28125 53.078125 
z
" id="DejaVuSans-73"/>
      <path d="M 25.390625 72.90625 
L 33.6875 72.90625 
L 8.296875 -9.28125 
L 0 -9.28125 
z
" id="DejaVuSans-2f"/>
      <path d="M 45.40625 46.390625 
L 45.40625 75.984375 
L 54.390625 75.984375 
L 54.390625 0 
L 45.40625 0 
L 45.40625 8.203125 
Q 42.578125 3.328125 38.25 0.953125 
Q 33.9375 -1.421875 27.875 -1.421875 
Q 17.96875 -1.421875 11.734375 6.484375 
Q 5.515625 14.40625 5.515625 27.296875 
Q 5.515625 40.1875 11.734375 48.09375 
Q 17.96875 56 27.875 56 
Q 33.9375 56 38.25 53.625 
Q 42.578125 51.265625 45.40625 46.390625 
z
M 14.796875 27.296875 
Q 14.796875 17.390625 18.875 11.75 
Q 22.953125 6.109375 30.078125 6.109375 
Q 37.203125 6.109375 41.296875 11.75 
Q 45.40625 17.390625 45.40625 27.296875 
Q 45.40625 37.203125 41.296875 42.84375 
Q 37.203125 48.484375 30.078125 48.484375 
Q 22.953125 48.484375 18.875 42.84375 
Q 14.796875 37.203125 14.796875 27.296875 
z
" id="DejaVuSans-64"/>
      <path d="M 9.421875 54.6875 
L 18.40625 54.6875 
L 18.40625 0 
L 9.421875 0 
z
M 9.421875 75.984375 
L 18.40625 75.984375 
L 18.40625 64.59375 
L 9.421875 64.59375 
z
" id="DejaVuSans-69"/>
      <path d="M 52 44.1875 
Q 55.375 50.25 60.0625 53.125 
Q 64.75 56 71.09375 56 
Q 79.640625 56 84.28125 50.015625 
Q 88.921875 44.046875 88.921875 33.015625 
L 88.921875 0 
L 79.890625 0 
L 79.890625 32.71875 
Q 79.890625 40.578125 77.09375 44.375 
Q 74.3125 48.1875 68.609375 48.1875 
Q 61.625 48.1875 57.5625 43.546875 
Q 53.515625 38.921875 53.515625 30.90625 
L 53.515625 0 
L 44.484375 0 
L 44.484375 32.71875 
Q 44.484375 40.625 41.703125 44.40625 
Q 38.921875 48.1875 33.109375 48.1875 
Q 26.21875 48.1875 22.15625 43.53125 
Q 18.109375 38.875 18.109375 30.90625 
L 18.109375 0 
L 9.078125 0 
L 9.078125 54.6875 
L 18.109375 54.6875 
L 18.109375 46.1875 
Q 21.1875 51.21875 25.484375 53.609375 
Q 29.78125 56 35.6875 56 
Q 41.65625 56 45.828125 52.96875 
Q 50 49.953125 52 44.1875 
z
" id="DejaVuSans-6d"/>
      <path d="M 54.890625 33.015625 
L 54.890625 0 
L 45.90625 0 
L 45.90625 32.71875 
Q 45.90625 40.484375 42.875 44.328125 
Q 39.84375 48.1875 33.796875 48.1875 
Q 26.515625 48.1875 22.3125 43.546875 
Q 18.109375 38.921875 18.109375 30.90625 
L 18.109375 0 
L 9.078125 0 
L 9.078125 54.6875 
L 18.109375 54.6875 
L 18.109375 46.1875 
Q 21.34375 51.125 25.703125 53.5625 
Q 30.078125 56 35.796875 56 
Q 45.21875 56 50.046875 50.171875 
Q 54.890625 44.34375 54.890625 33.015625 
z
" id="DejaVuSans-6e"/>
      <path d="M 8.015625 75.875 
L 15.828125 75.875 
Q 23.140625 64.359375 26.78125 53.3125 
Q 30.421875 42.28125 30.421875 31.390625 
Q 30.421875 20.453125 26.78125 9.375 
Q 23.140625 -1.703125 15.828125 -13.1875 
L 8.015625 -13.1875 
Q 14.5 -2 17.703125 9.0625 
Q 20.90625 20.125 20.90625 31.390625 
Q 20.90625 42.671875 17.703125 53.65625 
Q 14.5 64.65625 8.015625 75.875 
z
" id="DejaVuSans-29"/>
     </defs>
     <g transform="translate(107.211219 338.153594)scale(0.17 -0.17)">
      <use xlink:href="#DejaVuSans-6c"/>
      <use x="27.783203" xlink:href="#DejaVuSans-6f"/>
      <use x="88.964844" xlink:href="#DejaVuSans-67"/>
      <use x="152.441406" xlink:href="#DejaVuSans-31"/>
      <use x="216.064453" xlink:href="#DejaVuSans-30"/>
      <use x="279.6875" xlink:href="#DejaVuSans-28"/>
      <use x="318.701172" xlink:href="#DejaVuSans-23"/>
      <use x="402.490234" xlink:href="#DejaVuSans-20"/>
      <use x="434.277344" xlink:href="#DejaVuSans-66"/>
      <use x="469.404297" xlink:href="#DejaVuSans-2d"/>
      <use x="505.488281" xlink:href="#DejaVuSans-65"/>
      <use x="567.011719" xlink:href="#DejaVuSans-76"/>
      <use x="626.191406" xlink:href="#DejaVuSans-61"/>
      <use x="687.470703" xlink:href="#DejaVuSans-6c"/>
      <use x="715.253906" xlink:href="#DejaVuSans-73"/>
      <use x="767.353516" xlink:href="#DejaVuSans-20"/>
      <use x="799.140625" xlink:href="#DejaVuSans-2f"/>
      <use x="832.832031" xlink:href="#DejaVuSans-20"/>
      <use x="864.619141" xlink:href="#DejaVuSans-64"/>
      <use x="928.095703" xlink:href="#DejaVuSans-69"/>
      <use x="955.878906" xlink:href="#DejaVuSans-6d"/>
      <use x="1053.291016" xlink:href="#DejaVuSans-65"/>
      <use x="1114.814453" xlink:href="#DejaVuSans-6e"/>
      <use x="1178.193359" xlink:href="#DejaVuSans-73"/>
      <use x="1230.292969" xlink:href="#DejaVuSans-69"/>
      <use x="1258.076172" xlink:href="#DejaVuSans-6f"/>
      <use x="1319.257812" xlink:href="#DejaVuSans-6e"/>
      <use x="1382.636719" xlink:href="#DejaVuSans-29"/>
     </g>
    </g>
   </g>
   <g id="matplotlib.axis_2">
    <g id="ytick_1">
     <g id="line2d_15">
      <path clip-path="url(#p750f890722)" d="M 56.12 294.88 
L 399.984 294.88 
" style="fill:none;stroke:#b0b0b0;stroke-linecap:square;stroke-width:0.8;"/>
     </g>
     <g id="line2d_16">
      <defs>
       <path d="M 0 0 
L -3.5 0 
" id="mdd3b30e99f" style="stroke:#000000;stroke-width:0.8;"/>
      </defs>
      <g>
       <use style="stroke:#000000;stroke-width:0.8;" x="56.12" xlink:href="#mdd3b30e99f" y="294.88"/>
      </g>
     </g>
     <g id="text_7">
      <!-- 0.0 -->
      <defs>
       <path d="M 10.6875 12.40625 
L 21 12.40625 
L 21 0 
L 10.6875 0 
z
" id="DejaVuSans-2e"/>
      </defs>
      <g transform="translate(23.675 300.95875)scale(0.16 -0.16)">
       <use xlink:href="#DejaVuSans-30"/>
       <use x="63.623047" xlink:href="#DejaVuSans-2e"/>
       <use x="95.410156" xlink:href="#DejaVuSans-30"/>
      </g>
     </g>
    </g>
    <g id="ytick_2">
     <g id="line2d_17">
      <path clip-path="url(#p750f890722)" d="M 56.12 241.406733 
L 399.984 241.406733 
" style="fill:none;stroke:#b0b0b0;stroke-linecap:square;stroke-width:0.8;"/>
     </g>
     <g id="line2d_18">
      <g>
       <use style="stroke:#000000;stroke-width:0.8;" x="56.12" xlink:href="#mdd3b30e99f" y="241.406733"/>
      </g>
     </g>
     <g id="text_8">
      <!-- 0.2 -->
      <g transform="translate(23.675 247.485483)scale(0.16 -0.16)">
       <use xlink:href="#DejaVuSans-30"/>
       <use x="63.623047" xlink:href="#DejaVuSans-2e"/>
       <use x="95.410156" xlink:href="#DejaVuSans-32"/>
      </g>
     </g>
    </g>
    <g id="ytick_3">
     <g id="line2d_19">
      <path clip-path="url(#p750f890722)" d="M 56.12 187.933465 
L 399.984 187.933465 
" style="fill:none;stroke:#b0b0b0;stroke-linecap:square;stroke-width:0.8;"/>
     </g>
     <g id="line2d_20">
      <g>
       <use style="stroke:#000000;stroke-width:0.8;" x="56.12" xlink:href="#mdd3b30e99f" y="187.933465"/>
      </g>
     </g>
     <g id="text_9">
      <!-- 0.4 -->
      <g transform="translate(23.675 194.012215)scale(0.16 -0.16)">
       <use xlink:href="#DejaVuSans-30"/>
       <use x="63.623047" xlink:href="#DejaVuSans-2e"/>
       <use x="95.410156" xlink:href="#DejaVuSans-34"/>
      </g>
     </g>
    </g>
    <g id="ytick_4">
     <g id="line2d_21">
      <path clip-path="url(#p750f890722)" d="M 56.12 134.460198 
L 399.984 134.460198 
" style="fill:none;stroke:#b0b0b0;stroke-linecap:square;stroke-width:0.8;"/>
     </g>
     <g id="line2d_22">
      <g>
       <use style="stroke:#000000;stroke-width:0.8;" x="56.12" xlink:href="#mdd3b30e99f" y="134.460198"/>
      </g>
     </g>
     <g id="text_10">
      <!-- 0.6 -->
      <g transform="translate(23.675 140.538948)scale(0.16 -0.16)">
       <use xlink:href="#DejaVuSans-30"/>
       <use x="63.623047" xlink:href="#DejaVuSans-2e"/>
       <use x="95.410156" xlink:href="#DejaVuSans-36"/>
      </g>
     </g>
    </g>
    <g id="ytick_5">
     <g id="line2d_23">
      <path clip-path="url(#p750f890722)" d="M 56.12 80.986931 
L 399.984 80.986931 
" style="fill:none;stroke:#b0b0b0;stroke-linecap:square;stroke-width:0.8;"/>
     </g>
     <g id="line2d_24">
      <g>
       <use style="stroke:#000000;stroke-width:0.8;" x="56.12" xlink:href="#mdd3b30e99f" y="80.986931"/>
      </g>
     </g>
     <g id="text_11">
      <!-- 0.8 -->
      <g transform="translate(23.675 87.065681)scale(0.16 -0.16)">
       <use xlink:href="#DejaVuSans-30"/>
       <use x="63.623047" xlink:href="#DejaVuSans-2e"/>
       <use x="95.410156" xlink:href="#DejaVuSans-38"/>
      </g>
     </g>
    </g>
    <g id="ytick_6">
     <g id="line2d_25">
      <path clip-path="url(#p750f890722)" d="M 56.12 27.513663 
L 399.984 27.513663 
" style="fill:none;stroke:#b0b0b0;stroke-linecap:square;stroke-width:0.8;"/>
     </g>
     <g id="line2d_26">
      <g>
       <use style="stroke:#000000;stroke-width:0.8;" x="56.12" xlink:href="#mdd3b30e99f" y="27.513663"/>
      </g>
     </g>
     <g id="text_12">
      <!-- 1.0 -->
      <g transform="translate(23.675 33.592413)scale(0.16 -0.16)">
       <use xlink:href="#DejaVuSans-31"/>
       <use x="63.623047" xlink:href="#DejaVuSans-2e"/>
       <use x="95.410156" xlink:href="#DejaVuSans-30"/>
      </g>
     </g>
    </g>
    <g id="text_13">
     <!-- Fraction of function,target pairs -->
     <defs>
      <path d="M 9.8125 72.90625 
L 51.703125 72.90625 
L 51.703125 64.59375 
L 19.671875 64.59375 
L 19.671875 43.109375 
L 48.578125 43.109375 
L 48.578125 34.8125 
L 19.671875 34.8125 
L 19.671875 0 
L 9.8125 0 
z
" id="DejaVuSans-46"/>
      <path d="M 41.109375 46.296875 
Q 39.59375 47.171875 37.8125 47.578125 
Q 36.03125 48 33.890625 48 
Q 26.265625 48 22.1875 43.046875 
Q 18.109375 38.09375 18.109375 28.8125 
L 18.109375 0 
L 9.078125 0 
L 9.078125 54.6875 
L 18.109375 54.6875 
L 18.109375 46.1875 
Q 20.953125 51.171875 25.484375 53.578125 
Q 30.03125 56 36.53125 56 
Q 37.453125 56 38.578125 55.875 
Q 39.703125 55.765625 41.0625 55.515625 
z
" id="DejaVuSans-72"/>
      <path d="M 48.78125 52.59375 
L 48.78125 44.1875 
Q 44.96875 46.296875 41.140625 47.34375 
Q 37.3125 48.390625 33.40625 48.390625 
Q 24.65625 48.390625 19.8125 42.84375 
Q 14.984375 37.3125 14.984375 27.296875 
Q 14.984375 17.28125 19.8125 11.734375 
Q 24.65625 6.203125 33.40625 6.203125 
Q 37.3125 6.203125 41.140625 7.25 
Q 44.96875 8.296875 48.78125 10.40625 
L 48.78125 2.09375 
Q 45.015625 0.34375 40.984375 -0.53125 
Q 36.96875 -1.421875 32.421875 -1.421875 
Q 20.0625 -1.421875 12.78125 6.34375 
Q 5.515625 14.109375 5.515625 27.296875 
Q 5.515625 40.671875 12.859375 48.328125 
Q 20.21875 56 33.015625 56 
Q 37.15625 56 41.109375 55.140625 
Q 45.0625 54.296875 48.78125 52.59375 
z
" id="DejaVuSans-63"/>
      <path d="M 18.3125 70.21875 
L 18.3125 54.6875 
L 36.8125 54.6875 
L 36.8125 47.703125 
L 18.3125 47.703125 
L 18.3125 18.015625 
Q 18.3125 11.328125 20.140625 9.421875 
Q 21.96875 7.515625 27.59375 7.515625 
L 36.8125 7.515625 
L 36.8125 0 
L 27.59375 0 
Q 17.1875 0 13.234375 3.875 
Q 9.28125 7.765625 9.28125 18.015625 
L 9.28125 47.703125 
L 2.6875 47.703125 
L 2.6875 54.6875 
L 9.28125 54.6875 
L 9.28125 70.21875 
z
" id="DejaVuSans-74"/>
      <path d="M 8.5 21.578125 
L 8.5 54.6875 
L 17.484375 54.6875 
L 17.484375 21.921875 
Q 17.484375 14.15625 20.5 10.265625 
Q 23.53125 6.390625 29.59375 6.390625 
Q 36.859375 6.390625 41.078125 11.03125 
Q 45.3125 15.671875 45.3125 23.6875 
L 45.3125 54.6875 
L 54.296875 54.6875 
L 54.296875 0 
L 45.3125 0 
L 45.3125 8.40625 
Q 42.046875 3.421875 37.71875 1 
Q 33.40625 -1.421875 27.6875 -1.421875 
Q 18.265625 -1.421875 13.375 4.4375 
Q 8.5 10.296875 8.5 21.578125 
z
M 31.109375 56 
z
" id="DejaVuSans-75"/>
      <path d="M 11.71875 12.40625 
L 22.015625 12.40625 
L 22.015625 4 
L 14.015625 -11.625 
L 7.71875 -11.625 
L 11.71875 4 
z
" id="DejaVuSans-2c"/>
      <path d="M 18.109375 8.203125 
L 18.109375 -20.796875 
L 9.078125 -20.796875 
L 9.078125 54.6875 
L 18.109375 54.6875 
L 18.109375 46.390625 
Q 20.953125 51.265625 25.265625 53.625 
Q 29.59375 56 35.59375 56 
Q 45.5625 56 51.78125 48.09375 
Q 58.015625 40.1875 58.015625 27.296875 
Q 58.015625 14.40625 51.78125 6.484375 
Q 45.5625 -1.421875 35.59375 -1.421875 
Q 29.59375 -1.421875 25.265625 0.953125 
Q 20.953125 3.328125 18.109375 8.203125 
z
M 48.6875 27.296875 
Q 48.6875 37.203125 44.609375 42.84375 
Q 40.53125 48.484375 33.40625 48.484375 
Q 26.265625 48.484375 22.1875 42.84375 
Q 18.109375 37.203125 18.109375 27.296875 
Q 18.109375 17.390625 22.1875 11.75 
Q 26.265625 6.109375 33.40625 6.109375 
Q 40.53125 6.109375 44.609375 11.75 
Q 48.6875 17.390625 48.6875 27.296875 
z
" id="DejaVuSans-70"/>
     </defs>
     <g transform="translate(16.139531 294.999375)rotate(-90)scale(0.17 -0.17)">
      <use xlink:href="#DejaVuSans-46"/>
      <use x="57.410156" xlink:href="#DejaVuSans-72"/>
      <use x="98.523438" xlink:href="#DejaVuSans-61"/>
      <use x="159.802734" xlink:href="#DejaVuSans-63"/>
      <use x="214.783203" xlink:href="#DejaVuSans-74"/>
      <use x="253.992188" xlink:href="#DejaVuSans-69"/>
      <use x="281.775391" xlink:href="#DejaVuSans-6f"/>
      <use x="342.957031" xlink:href="#DejaVuSans-6e"/>
      <use x="406.335938" xlink:href="#DejaVuSans-20"/>
      <use x="438.123047" xlink:href="#DejaVuSans-6f"/>
      <use x="499.304688" xlink:href="#DejaVuSans-66"/>
      <use x="534.509766" xlink:href="#DejaVuSans-20"/>
      <use x="566.296875" xlink:href="#DejaVuSans-66"/>
      <use x="601.501953" xlink:href="#DejaVuSans-75"/>
      <use x="664.880859" xlink:href="#DejaVuSans-6e"/>
      <use x="728.259766" xlink:href="#DejaVuSans-63"/>
      <use x="783.240234" xlink:href="#DejaVuSans-74"/>
      <use x="822.449219" xlink:href="#DejaVuSans-69"/>
      <use x="850.232422" xlink:href="#DejaVuSans-6f"/>
      <use x="911.414062" xlink:href="#DejaVuSans-6e"/>
      <use x="974.792969" xlink:href="#DejaVuSans-2c"/>
      <use x="1006.580078" xlink:href="#DejaVuSans-74"/>
      <use x="1045.789062" xlink:href="#DejaVuSans-61"/>
      <use x="1107.068359" xlink:href="#DejaVuSans-72"/>
      <use x="1148.166016" xlink:href="#DejaVuSans-67"/>
      <use x="1211.642578" xlink:href="#DejaVuSans-65"/>
      <use x="1273.166016" xlink:href="#DejaVuSans-74"/>
      <use x="1312.375" xlink:href="#DejaVuSans-20"/>
      <use x="1344.162109" xlink:href="#DejaVuSans-70"/>
      <use x="1407.638672" xlink:href="#DejaVuSans-61"/>
      <use x="1468.917969" xlink:href="#DejaVuSans-69"/>
      <use x="1496.701172" xlink:href="#DejaVuSans-72"/>
      <use x="1537.814453" xlink:href="#DejaVuSans-73"/>
     </g>
    </g>
   </g>
   <g id="line2d_27">
    <defs>
     <path d="M 0 1.5 
C 0.397805 1.5 0.77937 1.341951 1.06066 1.06066 
C 1.341951 0.77937 1.5 0.397805 1.5 0 
C 1.5 -0.397805 1.341951 -0.77937 1.06066 -1.06066 
C 0.77937 -1.341951 0.397805 -1.5 0 -1.5 
C -0.397805 -1.5 -0.77937 -1.341951 -1.06066 -1.06066 
C -1.341951 -0.77937 -1.5 -0.397805 -1.5 0 
C -1.5 0.397805 -1.341951 0.77937 -1.06066 1.06066 
C -0.77937 1.341951 -0.397805 1.5 0 1.5 
z
" id="md20de9d2c4" style="stroke:#f5deb3;"/>
    </defs>
    <g>
     <use style="fill:#f5deb3;stroke:#f5deb3;" x="183.616631" xlink:href="#md20de9d2c4" y="27.513663"/>
     <use style="fill:#f5deb3;stroke:#f5deb3;" x="183.616631" xlink:href="#md20de9d2c4" y="27.513663"/>
    </g>
   </g>
   <g id="line2d_28">
    <defs>
     <path d="M 0 1.5 
C 0.397805 1.5 0.77937 1.341951 1.06066 1.06066 
C 1.341951 0.77937 1.5 0.397805 1.5 0 
C 1.5 -0.397805 1.341951 -0.77937 1.06066 -1.06066 
C 0.77937 -1.341951 0.397805 -1.5 0 -1.5 
C -0.397805 -1.5 -0.77937 -1.341951 -1.06066 -1.06066 
C -1.341951 -0.77937 -1.5 -0.397805 -1.5 0 
C -1.5 0.397805 -1.341951 0.77937 -1.06066 1.06066 
C -0.77937 1.341951 -0.397805 1.5 0 1.5 
z
" id="mfb8972334a" style="stroke:#ff00ff;"/>
    </defs>
    <g>
     <use style="fill:#ff00ff;stroke:#ff00ff;" x="281.010718" xlink:href="#mfb8972334a" y="142.848162"/>
     <use style="fill:#ff00ff;stroke:#ff00ff;" x="281.010718" xlink:href="#mfb8972334a" y="142.848162"/>
    </g>
   </g>
   <g id="line2d_29">
    <path d="M -1 293.831505 
L 11.5548 293.831505 
L 11.5548 293.307257 
L 35.405809 293.307257 
L 35.405809 292.783009 
L 46.599081 292.783009 
L 46.599081 291.734514 
L 67.16301 291.734514 
L 67.16301 291.210266 
L 72.225361 291.210266 
L 72.225361 290.686018 
L 74.877503 290.686018 
L 74.877503 290.161771 
L 81.901601 290.161771 
L 81.901601 289.637523 
L 89.100397 289.637523 
L 89.100397 289.113275 
L 99.814021 289.113275 
L 99.814021 288.06478 
L 104.712575 288.06478 
L 104.712575 287.540532 
L 106.981223 287.540532 
L 106.981223 287.016284 
L 110.009564 287.016284 
L 110.009564 286.492036 
L 112.158564 286.492036 
L 112.158564 285.443541 
L 112.792542 285.443541 
L 112.872157 284.395046 
L 117.928588 284.395046 
L 117.928588 283.870798 
L 118.544983 283.870798 
L 118.544983 282.822302 
L 118.794497 282.822302 
L 118.794497 282.298055 
L 121.382177 282.298055 
L 121.382177 281.773807 
L 121.670373 281.773807 
L 121.670373 281.249559 
L 122.177263 281.249559 
L 122.177263 280.725312 
L 124.87691 280.725312 
L 124.87691 280.201064 
L 125.979378 280.201064 
L 125.979378 279.676816 
L 126.676968 279.676816 
L 126.676968 279.152568 
L 130.544585 279.152568 
L 130.635346 277.579825 
L 131.060041 277.579825 
L 131.060041 276.53133 
L 132.300328 276.53133 
L 132.300328 276.007082 
L 134.346161 276.007082 
L 134.346161 275.482834 
L 135.556566 275.482834 
L 135.556566 274.958587 
L 136.329481 274.958587 
L 136.329481 274.434339 
L 137.662162 274.434339 
L 137.662162 273.910091 
L 140.244861 273.910091 
L 140.244861 273.385844 
L 141.213874 273.385844 
L 141.213874 272.861596 
L 143.324407 272.861596 
L 143.324407 271.8131 
L 143.907047 271.8131 
L 143.907047 271.288853 
L 144.724413 271.288853 
L 144.724413 270.764605 
L 145.684934 270.764605 
L 145.684934 270.240357 
L 146.088291 270.240357 
L 146.088291 269.716109 
L 147.5224 269.716109 
L 147.5224 269.191862 
L 148.175565 269.191862 
L 148.175565 268.667614 
L 150.777187 268.667614 
L 150.799983 267.094871 
L 151.961977 267.094871 
L 151.961977 266.570623 
L 154.28862 266.570623 
L 154.28862 265.522128 
L 155.074482 265.522128 
L 155.074482 264.99788 
L 155.523735 264.99788 
L 155.523735 264.473632 
L 156.473147 264.473632 
L 156.473147 263.425137 
L 158.391013 263.425137 
L 158.391013 262.900889 
L 159.47121 262.900889 
L 159.47121 260.803898 
L 159.80668 260.803898 
L 159.80668 260.279651 
L 160.026405 260.279651 
L 160.026405 259.755403 
L 160.970699 259.755403 
L 160.970699 258.706907 
L 161.706691 258.706907 
L 161.706691 258.18266 
L 163.377984 258.18266 
L 163.377984 256.609917 
L 163.627553 256.609917 
L 163.627553 256.085669 
L 164.191885 256.085669 
L 164.191885 255.561421 
L 164.626469 255.561421 
L 164.706306 253.988678 
L 165.605426 253.988678 
L 165.677905 252.940182 
L 166.362993 252.940182 
L 166.362993 252.415935 
L 166.567446 252.415935 
L 166.567446 251.891687 
L 167.253712 251.891687 
L 167.253712 251.367439 
L 168.681734 251.367439 
L 168.681734 250.843192 
L 169.065415 250.843192 
L 169.078139 248.746201 
L 169.832389 248.746201 
L 169.832389 248.221953 
L 170.391315 248.221953 
L 170.391315 247.697705 
L 170.556069 247.697705 
L 170.562182 246.124962 
L 171.091789 246.124962 
L 171.091789 245.600714 
L 171.214195 245.600714 
L 171.286263 244.552219 
L 171.540614 244.552219 
L 171.610808 242.979476 
L 172.090241 242.979476 
L 172.090241 242.455228 
L 172.566075 242.455228 
L 172.566075 241.93098 
L 173.466388 241.93098 
L 173.466388 241.406733 
L 173.805626 241.406733 
L 173.805626 239.83399 
L 173.946774 239.83399 
L 173.946774 238.785494 
L 174.380766 238.785494 
L 174.380766 237.212751 
L 174.763215 237.212751 
L 174.763215 236.164255 
L 175.609502 236.164255 
L 175.609502 235.640008 
L 175.721016 235.640008 
L 175.721016 234.591512 
L 176.009233 234.591512 
L 176.118999 232.494521 
L 176.121412 232.494521 
L 176.121412 231.970274 
L 176.25882 231.970274 
L 176.25882 231.446026 
L 176.495394 231.446026 
L 176.495394 230.921778 
L 176.640008 230.921778 
L 176.640008 230.397531 
L 177.467073 230.397531 
L 177.467073 229.873283 
L 177.601933 229.873283 
L 177.601933 228.30054 
L 177.835423 228.30054 
L 177.851071 227.252044 
L 177.961655 227.252044 
L 177.961655 226.203549 
L 178.177859 226.203549 
L 178.177859 225.679301 
L 178.643669 225.679301 
L 178.643669 225.155053 
L 178.863871 225.155053 
L 178.960993 223.058063 
L 179.07045 223.058063 
L 179.177869 222.009567 
L 179.289306 222.009567 
L 179.289306 221.485319 
L 179.597018 221.485319 
L 179.597018 220.961072 
L 180.315648 220.961072 
L 180.332345 219.912576 
L 180.538615 219.912576 
L 180.631703 217.291338 
L 180.8378 217.291338 
L 180.8378 216.76709 
L 181.032389 216.76709 
L 181.032389 216.242842 
L 181.480604 216.242842 
L 181.568452 214.670099 
L 181.949285 214.670099 
L 181.949285 214.145851 
L 182.666498 214.145851 
L 182.666498 213.621604 
L 183.024566 213.621604 
L 183.024566 213.097356 
L 183.193912 213.097356 
L 183.203242 211.524613 
L 183.865109 211.524613 
L 183.865109 211.000365 
L 184.265332 211.000365 
L 184.265332 210.476117 
L 184.431884 210.476117 
L 184.431884 209.95187 
L 184.663801 209.95187 
L 184.739037 208.903374 
L 184.898914 208.903374 
L 184.898914 208.379126 
L 185.037927 208.379126 
L 185.037927 206.806383 
L 185.218309 206.806383 
L 185.218309 206.282136 
L 185.431504 206.282136 
L 185.493435 204.709392 
L 185.871366 204.709392 
L 185.871366 204.185145 
L 186.310943 204.185145 
L 186.310943 203.136649 
L 186.777498 203.136649 
L 186.777498 202.088154 
L 187.20599 202.088154 
L 187.20599 201.039658 
L 187.680861 201.039658 
L 187.680861 200.515411 
L 187.801027 200.515411 
L 187.801027 199.991163 
L 188.382286 199.991163 
L 188.382286 199.466915 
L 188.698275 199.466915 
L 188.698275 198.942667 
L 189.300086 198.942667 
L 189.300086 198.41842 
L 189.705134 198.41842 
L 189.705134 197.894172 
L 190.952018 197.894172 
L 190.952018 197.369924 
L 191.330682 197.369924 
L 191.330682 196.845677 
L 191.635041 196.845677 
L 191.635041 195.797181 
L 192.053538 195.797181 
L 192.053538 195.272933 
L 193.00243 195.272933 
L 193.00243 194.748686 
L 193.619804 194.748686 
L 193.619804 194.224438 
L 193.897992 194.224438 
L 193.897992 193.70019 
L 194.244148 193.70019 
L 194.244148 193.175943 
L 195.418241 193.175943 
L 195.418241 191.078952 
L 195.65959 191.078952 
L 195.65959 190.554704 
L 195.799971 190.554704 
L 195.799971 190.030456 
L 196.513249 190.030456 
L 196.513249 189.506209 
L 196.70544 189.506209 
L 196.70544 188.981961 
L 196.944618 188.981961 
L 196.944618 188.457713 
L 197.091942 188.457713 
L 197.091942 187.933465 
L 198.723882 187.933465 
L 198.723882 187.409218 
L 198.93963 187.409218 
L 198.93963 186.360722 
L 199.100741 186.360722 
L 199.100741 185.836474 
L 199.306722 185.836474 
L 199.306722 185.312227 
L 200.683797 185.312227 
L 200.683797 184.263731 
L 200.951936 184.263731 
L 200.951936 182.690988 
L 201.706989 182.690988 
L 201.706989 181.642493 
L 201.882455 181.642493 
L 201.909879 180.593997 
L 202.35832 180.593997 
L 202.35832 180.06975 
L 203.174491 180.06975 
L 203.174491 179.545502 
L 204.635599 179.545502 
L 204.656979 178.497006 
L 206.691689 178.497006 
L 206.691689 177.972759 
L 207.964787 177.972759 
L 207.964787 176.924263 
L 208.295915 176.924263 
L 208.295915 176.400016 
L 209.329274 176.400016 
L 209.343569 175.35152 
L 212.064784 175.35152 
L 212.144415 172.730281 
L 212.208328 172.730281 
L 212.224467 171.681786 
L 213.822396 171.681786 
L 213.822396 171.157538 
L 214.588263 171.157538 
L 214.588263 170.109043 
L 215.897137 170.109043 
L 215.897137 169.584795 
L 216.172819 169.584795 
L 216.172819 169.060547 
L 219.632164 169.060547 
L 219.632164 168.012052 
L 223.821117 168.012052 
L 223.821117 167.487804 
L 224.399105 167.487804 
L 224.399105 166.439309 
L 225.789322 166.439309 
L 225.789322 164.342318 
L 226.499013 164.342318 
L 226.499013 163.81807 
L 228.002391 163.81807 
L 228.002391 163.293823 
L 228.717846 163.293823 
L 228.717846 162.769575 
L 229.04952 162.769575 
L 229.04952 161.721079 
L 230.320454 161.721079 
L 230.320454 161.196832 
L 230.607844 161.196832 
L 230.607844 160.672584 
L 232.938525 160.672584 
L 232.938525 160.148336 
L 234.478812 160.148336 
L 234.478812 159.624089 
L 235.124822 159.624089 
L 235.124822 158.575593 
L 237.343423 158.575593 
L 237.343423 157.527098 
L 238.731729 157.527098 
L 238.731729 157.00285 
L 240.48026 157.00285 
L 240.48026 156.478602 
L 241.184523 156.478602 
L 241.251201 154.905859 
L 242.713868 154.905859 
L 242.713868 154.381611 
L 244.244218 154.381611 
L 244.244218 153.857364 
L 244.80115 153.857364 
L 244.80115 153.333116 
L 246.054963 153.333116 
L 246.054963 152.28462 
L 247.050894 152.28462 
L 247.050894 151.760373 
L 247.498652 151.760373 
L 247.498652 151.236125 
L 247.682443 151.236125 
L 247.682443 150.711877 
L 248.038653 150.711877 
L 248.038653 150.18763 
L 249.390565 150.18763 
L 249.390565 149.663382 
L 252.454281 149.663382 
L 252.454281 148.614886 
L 252.754334 148.614886 
L 252.754334 147.042143 
L 254.220689 147.042143 
L 254.220689 145.993648 
L 267.711572 145.993648 
L 267.719973 144.945152 
L 268.160223 144.945152 
L 268.160223 143.896657 
L 276.729363 143.896657 
L 276.729363 143.372409 
L 281.010718 143.372409 
L 281.010718 142.848162 
L 333.429677 142.848162 
L 333.429677 142.848162 
" style="fill:none;stroke:#ff00ff;stroke-linecap:square;stroke-width:1.5;"/>
   </g>
   <g id="line2d_30">
    <defs>
     <path d="M -0 8.485281 
L 5.091169 0 
L 0 -8.485281 
L -5.091169 -0 
z
" id="m88abe3fe0d" style="stroke:#ff00ff;stroke-linejoin:miter;stroke-width:1.5;"/>
    </defs>
    <g>
     <use style="fill-opacity:0;stroke:#ff00ff;stroke-linejoin:miter;stroke-width:1.5;" x="137.662162" xlink:href="#m88abe3fe0d" y="273.910091"/>
     <use style="fill-opacity:0;stroke:#ff00ff;stroke-linejoin:miter;stroke-width:1.5;" x="186.310943" xlink:href="#m88abe3fe0d" y="203.136649"/>
     <use style="fill-opacity:0;stroke:#ff00ff;stroke-linejoin:miter;stroke-width:1.5;" x="254.220689" xlink:href="#m88abe3fe0d" y="147.042143"/>
     <use style="fill-opacity:0;stroke:#ff00ff;stroke-linejoin:miter;stroke-width:1.5;" x="281.010718" xlink:href="#m88abe3fe0d" y="142.848162"/>
     <use style="fill-opacity:0;stroke:#ff00ff;stroke-linejoin:miter;stroke-width:1.5;" x="333.429677" xlink:href="#m88abe3fe0d" y="142.848162"/>
    </g>
   </g>
   <g id="line2d_31">
    <path style="fill:none;stroke:#ff00ff;stroke-linecap:square;stroke-width:1.5;"/>
    <g/>
   </g>
   <g id="line2d_32">
    <path clip-path="url(#p750f890722)" d="M 258.037496 145.993648 
" style="fill:none;stroke:#ff00ff;stroke-linecap:square;stroke-width:1.5;"/>
    <defs>
     <path d="M -12 12 
L 12 -12 
M -12 -12 
L 12 12 
" id="m24a10abfb1" style="stroke:#ff00ff;stroke-width:3;"/>
    </defs>
    <g clip-path="url(#p750f890722)">
     <use style="fill:#ff00ff;stroke:#ff00ff;stroke-width:3;" x="258.037496" xlink:href="#m24a10abfb1" y="145.993648"/>
    </g>
   </g>
   <g id="line2d_33">
    <defs>
     <path d="M 0 1.5 
C 0.397805 1.5 0.77937 1.341951 1.06066 1.06066 
C 1.341951 0.77937 1.5 0.397805 1.5 0 
C 1.5 -0.397805 1.341951 -0.77937 1.06066 -1.06066 
C 0.77937 -1.341951 0.397805 -1.5 0 -1.5 
C -0.397805 -1.5 -0.77937 -1.341951 -1.06066 -1.06066 
C -1.341951 -0.77937 -1.5 -0.397805 -1.5 0 
C -1.5 0.397805 -1.341951 0.77937 -1.06066 1.06066 
C -0.77937 1.341951 -0.397805 1.5 0 1.5 
z
" id="mf9efaa9c58" style="stroke:#ffa500;"/>
    </defs>
    <g>
     <use style="fill:#ffa500;stroke:#ffa500;" x="304.575601" xlink:href="#mf9efaa9c58" y="100.908344"/>
     <use style="fill:#ffa500;stroke:#ffa500;" x="304.575601" xlink:href="#mf9efaa9c58" y="100.908344"/>
    </g>
   </g>
   <g id="line2d_34">
    <path d="M 65.748115 294.88 
L 65.748115 294.355752 
L 72.887168 294.355752 
L 72.887168 293.307257 
L 78.745549 293.307257 
L 78.745549 292.783009 
L 79.754593 292.783009 
L 79.754593 292.258761 
L 80.604388 292.258761 
L 80.604388 291.734514 
L 81.014047 291.734514 
L 81.014047 291.210266 
L 82.281835 291.210266 
L 82.281835 290.161771 
L 82.745606 290.161771 
L 82.745606 289.637523 
L 85.759969 289.637523 
L 85.759969 289.113275 
L 89.351567 289.113275 
L 89.351567 288.589027 
L 89.782481 288.589027 
L 89.782481 288.06478 
L 93.240519 288.06478 
L 93.240519 287.540532 
L 94.39435 287.540532 
L 94.39435 286.492036 
L 96.738177 286.492036 
L 96.738177 285.967789 
L 99.121579 285.967789 
L 99.121579 284.919293 
L 100.414251 284.919293 
L 100.414251 284.395046 
L 101.089038 284.395046 
L 101.089038 283.870798 
L 103.164427 283.870798 
L 103.164427 283.34655 
L 105.24045 283.34655 
L 105.265187 281.773807 
L 105.559295 281.773807 
L 105.559295 280.725312 
L 107.917329 280.725312 
L 107.917329 280.201064 
L 111.43137 280.201064 
L 111.43137 279.676816 
L 111.941938 279.676816 
L 111.941938 279.152568 
L 116.146108 279.152568 
L 116.146108 278.628321 
L 117.545444 278.628321 
L 117.545444 277.055578 
L 117.928588 277.055578 
L 117.928588 276.007082 
L 118.658847 276.007082 
L 118.658847 275.482834 
L 119.040445 275.482834 
L 119.040445 273.910091 
L 119.271978 273.910091 
L 119.271978 273.385844 
L 121.641769 273.385844 
L 121.641769 272.337348 
L 121.944447 272.337348 
L 121.944447 271.8131 
L 122.669646 271.8131 
L 122.669646 271.288853 
L 123.425832 271.288853 
L 123.434432 270.240357 
L 125.28322 270.240357 
L 125.375637 269.191862 
L 127.085119 269.191862 
L 127.085119 267.619119 
L 127.531311 267.619119 
L 127.531311 265.522128 
L 129.140898 265.522128 
L 129.140898 264.473632 
L 129.711412 264.473632 
L 129.711412 263.425137 
L 130.199901 263.425137 
L 130.199901 262.900889 
L 130.430456 262.900889 
L 130.487615 261.328146 
L 130.954846 261.328146 
L 130.954846 260.803898 
L 131.333835 260.803898 
L 131.333835 260.279651 
L 133.176402 260.279651 
L 133.176402 259.755403 
L 133.633941 259.755403 
L 133.633941 258.706907 
L 133.968118 258.706907 
L 134.005368 257.134164 
L 134.102767 257.134164 
L 134.102767 256.085669 
L 134.24096 256.085669 
L 134.24096 255.561421 
L 134.5276 255.561421 
L 134.635553 253.46443 
L 134.671387 253.46443 
L 134.671387 252.940182 
L 135.338428 252.940182 
L 135.338428 252.415935 
L 135.479891 252.415935 
L 135.479891 251.367439 
L 136.42673 251.367439 
L 136.42673 250.843192 
L 136.971573 250.843192 
L 136.983313 249.270448 
L 137.274238 249.270448 
L 137.274238 248.221953 
L 137.684711 248.221953 
L 137.684711 247.173458 
L 138.078279 247.173458 
L 138.173456 246.124962 
L 138.570397 246.124962 
L 138.652249 244.552219 
L 138.814794 244.552219 
L 138.814794 243.503724 
L 139.028001 243.503724 
L 139.028001 242.979476 
L 139.618681 242.979476 
L 139.618681 242.455228 
L 139.951088 242.455228 
L 139.957672 240.882485 
L 140.409132 240.882485 
L 140.409132 240.358237 
L 140.562321 240.358237 
L 140.606745 239.309742 
L 140.714157 239.309742 
L 140.751908 237.212751 
L 140.920768 237.212751 
L 140.920768 236.164255 
L 141.38737 236.164255 
L 141.38737 235.640008 
L 141.618997 235.640008 
L 141.69056 234.067265 
L 142.131207 234.067265 
L 142.131207 233.543017 
L 142.606052 233.543017 
L 142.673632 231.446026 
L 143.02414 231.446026 
L 143.106552 229.873283 
L 143.662031 229.873283 
L 143.701786 228.824787 
L 144.940081 228.824787 
L 144.940081 228.30054 
L 145.233186 228.30054 
L 145.32738 226.727797 
L 145.425852 226.727797 
L 145.442608 225.679301 
L 145.578446 225.679301 
L 145.623488 224.630806 
L 145.851619 224.630806 
L 145.851619 224.106558 
L 146.019019 224.106558 
L 146.019019 223.58231 
L 146.578984 223.58231 
L 146.578984 223.058063 
L 146.953379 223.058063 
L 146.957761 222.009567 
L 147.445905 222.009567 
L 147.445905 221.485319 
L 147.837516 221.485319 
L 147.914366 219.912576 
L 148.064988 219.912576 
L 148.064988 219.388328 
L 148.855925 219.388328 
L 148.855925 217.815585 
L 149.570735 217.815585 
L 149.570735 216.76709 
L 149.761653 216.76709 
L 149.761653 216.242842 
L 149.924681 216.242842 
L 149.924681 215.194347 
L 150.383165 215.194347 
L 150.383165 214.670099 
L 150.703331 214.670099 
L 150.703331 214.145851 
L 151.377237 214.145851 
L 151.377237 213.621604 
L 151.997974 213.621604 
L 151.997974 212.573108 
L 152.24142 212.573108 
L 152.336239 211.524613 
L 152.633362 211.524613 
L 152.633362 211.000365 
L 152.889782 211.000365 
L 152.889782 210.476117 
L 153.737633 210.476117 
L 153.802513 208.379126 
L 153.864216 208.379126 
L 153.864216 207.854879 
L 154.39275 207.854879 
L 154.39275 206.806383 
L 154.679046 206.806383 
L 154.754408 205.23364 
L 154.869602 205.23364 
L 154.869602 204.185145 
L 155.150857 204.185145 
L 155.150857 203.136649 
L 155.632584 203.136649 
L 155.722331 201.563906 
L 155.896522 201.563906 
L 155.896522 201.039658 
L 156.562386 201.039658 
L 156.562386 200.515411 
L 156.714653 200.515411 
L 156.714653 199.991163 
L 157.237221 199.991163 
L 157.237221 198.41842 
L 157.531227 198.41842 
L 157.557277 196.845677 
L 158.286995 196.845677 
L 158.286995 195.797181 
L 160.135734 195.797181 
L 160.135734 194.748686 
L 160.375445 194.748686 
L 160.375445 194.224438 
L 160.663304 194.224438 
L 160.663304 193.175943 
L 160.980399 193.175943 
L 160.980399 192.127447 
L 161.891622 192.127447 
L 161.969619 190.554704 
L 162.927572 190.554704 
L 162.927572 190.030456 
L 164.364011 190.030456 
L 164.364011 189.506209 
L 165.305631 189.506209 
L 165.413141 188.457713 
L 167.418584 188.457713 
L 167.418584 186.88497 
L 168.668714 186.88497 
L 168.668714 185.836474 
L 168.899754 185.836474 
L 168.97852 184.787979 
L 169.483373 184.787979 
L 169.483373 183.739484 
L 170.034669 183.739484 
L 170.034669 183.215236 
L 171.037286 183.215236 
L 171.037286 182.690988 
L 171.403594 182.690988 
L 171.403594 182.16674 
L 171.525385 182.16674 
L 171.525385 181.642493 
L 172.265256 181.642493 
L 172.265256 181.118245 
L 172.911236 181.118245 
L 172.911236 180.06975 
L 173.594504 180.06975 
L 173.594504 179.545502 
L 176.04159 179.545502 
L 176.126238 178.497006 
L 176.600546 178.497006 
L 176.600546 177.972759 
L 177.12257 177.972759 
L 177.12257 176.924263 
L 178.447335 176.924263 
L 178.447335 175.875768 
L 178.683569 175.875768 
L 178.683569 175.35152 
L 179.038229 175.35152 
L 179.038229 174.303025 
L 179.5888 174.303025 
L 179.5888 173.778777 
L 180.046265 173.778777 
L 180.046265 173.254529 
L 182.815691 173.254529 
L 182.87365 172.206034 
L 183.38351 172.206034 
L 183.38351 171.681786 
L 183.872288 171.681786 
L 183.872288 171.157538 
L 184.087788 171.157538 
L 184.087788 170.633291 
L 184.902536 170.633291 
L 184.924733 169.060547 
L 185.649951 169.060547 
L 185.649951 168.5363 
L 189.111897 168.5363 
L 189.111897 167.487804 
L 189.429918 167.487804 
L 189.429918 166.439309 
L 190.087296 166.439309 
L 190.087296 165.915061 
L 190.225522 165.915061 
L 190.292015 164.866566 
L 192.362076 164.866566 
L 192.362076 164.342318 
L 193.022923 164.342318 
L 193.022923 163.81807 
L 196.694859 163.81807 
L 196.694859 163.293823 
L 197.628427 163.293823 
L 197.628427 162.769575 
L 198.262677 162.769575 
L 198.262677 161.721079 
L 198.400502 161.721079 
L 198.400502 160.672584 
L 199.447869 160.672584 
L 199.447869 160.148336 
L 199.984684 160.148336 
L 200.079277 158.575593 
L 203.096011 158.575593 
L 203.096011 158.051345 
L 205.490746 158.051345 
L 205.545453 157.00285 
L 205.678037 157.00285 
L 205.678037 156.478602 
L 206.167759 156.478602 
L 206.167759 155.430107 
L 206.77484 155.430107 
L 206.77484 154.905859 
L 207.871139 154.905859 
L 207.871139 153.857364 
L 208.29827 153.857364 
L 208.29827 153.333116 
L 213.703981 153.333116 
L 213.703981 152.808868 
L 214.271391 152.808868 
L 214.346078 150.711877 
L 214.481166 150.711877 
L 214.481166 150.18763 
L 215.43283 150.18763 
L 215.43283 149.663382 
L 215.570567 149.663382 
L 215.570567 148.090639 
L 219.041836 148.090639 
L 219.041836 147.566391 
L 222.175545 147.566391 
L 222.175545 147.042143 
L 222.335531 147.042143 
L 222.403835 144.945152 
L 222.558774 144.945152 
L 222.558774 144.420905 
L 222.854956 144.420905 
L 222.854956 143.896657 
L 223.01149 143.896657 
L 223.01149 143.372409 
L 224.685592 143.372409 
L 224.685592 142.848162 
L 230.434443 142.848162 
L 230.434443 142.323914 
L 230.926167 142.323914 
L 230.992465 141.275418 
L 232.192376 141.275418 
L 232.192376 140.751171 
L 232.376694 140.751171 
L 232.376694 140.226923 
L 232.806975 140.226923 
L 232.806975 139.702675 
L 233.391165 139.702675 
L 233.391165 139.178427 
L 233.811634 139.178427 
L 233.811634 138.65418 
L 234.351766 138.65418 
L 234.351766 137.605684 
L 236.663152 137.605684 
L 236.663152 136.557189 
L 239.176739 136.557189 
L 239.176739 135.508693 
L 241.168717 135.508693 
L 241.168717 134.984446 
L 241.921687 134.984446 
L 241.933422 132.887455 
L 242.639461 132.887455 
L 242.639461 132.363207 
L 245.354417 132.363207 
L 245.354417 131.838959 
L 246.68244 131.838959 
L 246.68244 130.790464 
L 247.496875 130.790464 
L 247.496875 130.266216 
L 247.959468 130.266216 
L 247.959468 129.741969 
L 248.810814 129.741969 
L 248.810814 129.217721 
L 248.959581 129.217721 
L 248.959581 128.693473 
L 250.010674 128.693473 
L 250.010674 128.169225 
L 251.45922 128.169225 
L 251.45922 127.644978 
L 251.879274 127.644978 
L 251.879274 127.12073 
L 255.093047 127.12073 
L 255.093047 126.596482 
L 256.477014 126.596482 
L 256.477014 126.072235 
L 256.613893 126.072235 
L 256.613893 125.547987 
L 257.514208 125.547987 
L 257.583418 123.975244 
L 258.040162 123.975244 
L 258.040162 123.450996 
L 259.337975 123.450996 
L 259.337975 122.926748 
L 260.104578 122.926748 
L 260.104578 121.878253 
L 265.630647 121.878253 
L 265.630647 120.829757 
L 266.075841 120.829757 
L 266.157944 119.781262 
L 266.517219 119.781262 
L 266.517219 119.257014 
L 267.101103 119.257014 
L 267.101103 118.732766 
L 267.47896 118.732766 
L 267.47896 117.684271 
L 267.935936 117.684271 
L 267.935936 117.160023 
L 269.640613 117.160023 
L 269.640613 116.635776 
L 272.690989 116.635776 
L 272.772458 115.58728 
L 274.480427 115.58728 
L 274.517915 113.490289 
L 275.522055 113.490289 
L 275.522055 112.441794 
L 275.871878 112.441794 
L 275.871878 111.393298 
L 281.519595 111.393298 
L 281.519595 110.869051 
L 283.255912 110.869051 
L 283.255912 110.344803 
L 283.55642 110.344803 
L 283.55642 109.820555 
L 283.70499 109.820555 
L 283.70499 108.77206 
L 284.552094 108.77206 
L 284.552094 107.199317 
L 285.540061 107.199317 
L 285.540061 106.150821 
L 290.227043 106.150821 
L 290.227043 105.626573 
L 290.986782 105.626573 
L 290.986782 105.102326 
L 291.401684 105.102326 
L 291.401684 104.578078 
L 292.281233 104.578078 
L 292.34687 102.481087 
L 293.003092 102.481087 
L 293.003092 101.432592 
L 304.575601 101.432592 
L 304.575601 100.908344 
L 333.429677 100.908344 
L 333.429677 100.908344 
" style="fill:none;stroke:#ffa500;stroke-linecap:square;stroke-width:1.5;"/>
   </g>
   <g id="line2d_35">
    <defs>
     <path d="M 0 -6 
L -1.347084 -1.854102 
L -5.706339 -1.854102 
L -2.179628 0.708204 
L -3.526712 4.854102 
L -0 2.291796 
L 3.526712 4.854102 
L 2.179628 0.708204 
L 5.706339 -1.854102 
L 1.347084 -1.854102 
z
" id="m867a21f811" style="stroke:#ffa500;stroke-linejoin:bevel;stroke-width:1.5;"/>
    </defs>
    <g>
     <use style="fill-opacity:0;stroke:#ffa500;stroke-linejoin:bevel;stroke-width:1.5;" x="150.383165" xlink:href="#m867a21f811" y="215.194347"/>
     <use style="fill-opacity:0;stroke:#ffa500;stroke-linejoin:bevel;stroke-width:1.5;" x="215.570567" xlink:href="#m867a21f811" y="148.090639"/>
     <use style="fill-opacity:0;stroke:#ffa500;stroke-linejoin:bevel;stroke-width:1.5;" x="304.575601" xlink:href="#m867a21f811" y="100.908344"/>
     <use style="fill-opacity:0;stroke:#ffa500;stroke-linejoin:bevel;stroke-width:1.5;" x="304.575601" xlink:href="#m867a21f811" y="100.908344"/>
     <use style="fill-opacity:0;stroke:#ffa500;stroke-linejoin:bevel;stroke-width:1.5;" x="333.429677" xlink:href="#m867a21f811" y="100.908344"/>
    </g>
   </g>
   <g id="line2d_36">
    <path style="fill:none;stroke:#ffa500;stroke-linecap:square;stroke-width:1.5;"/>
    <g/>
   </g>
   <g id="line2d_37">
    <path clip-path="url(#p750f890722)" d="M 293.814018 101.432592 
" style="fill:none;stroke:#ffa500;stroke-linecap:square;stroke-width:1.5;"/>
    <defs>
     <path d="M -12 12 
L 12 -12 
M -12 -12 
L 12 12 
" id="m85299d22a9" style="stroke:#ffa500;stroke-width:3;"/>
    </defs>
    <g clip-path="url(#p750f890722)">
     <use style="fill:#ffa500;stroke:#ffa500;stroke-width:3;" x="293.814018" xlink:href="#m85299d22a9" y="101.432592"/>
    </g>
   </g>
   <g id="line2d_38">
    <defs>
     <path d="M 0 1.5 
C 0.397805 1.5 0.77937 1.341951 1.06066 1.06066 
C 1.341951 0.77937 1.5 0.397805 1.5 0 
C 1.5 -0.397805 1.341951 -0.77937 1.06066 -1.06066 
C 0.77937 -1.341951 0.397805 -1.5 0 -1.5 
C -0.397805 -1.5 -0.77937 -1.341951 -1.06066 -1.06066 
C -1.341951 -0.77937 -1.5 -0.397805 -1.5 0 
C -1.5 0.397805 -1.341951 0.77937 -1.06066 1.06066 
C -0.77937 1.341951 -0.397805 1.5 0 1.5 
z
" id="m6449a34242" style="stroke:#6495ed;"/>
    </defs>
    <g>
     <use style="fill:#6495ed;stroke:#6495ed;" x="303.054794" xlink:href="#m6449a34242" y="200.515411"/>
     <use style="fill:#6495ed;stroke:#6495ed;" x="303.054794" xlink:href="#m6449a34242" y="200.515411"/>
    </g>
   </g>
   <g id="line2d_39">
    <path d="M 11.5548 294.88 
L 11.5548 294.355752 
L 30.456278 294.355752 
L 30.456278 293.831505 
L 50.587197 293.831505 
L 50.587197 292.783009 
L 59.61157 292.783009 
L 59.61157 292.258761 
L 72.055853 292.258761 
L 72.055853 291.210266 
L 73.987397 291.210266 
L 73.987397 290.686018 
L 81.99745 290.686018 
L 81.99745 290.161771 
L 84.731326 290.161771 
L 84.731326 289.637523 
L 99.540379 289.637523 
L 99.540379 289.113275 
L 101.798936 289.113275 
L 101.798936 288.589027 
L 102.246616 288.589027 
L 102.246616 288.06478 
L 112.856263 288.06478 
L 112.856263 287.540532 
L 116.497108 287.540532 
L 116.497108 287.016284 
L 122.103104 287.016284 
L 122.103104 286.492036 
L 127.099022 286.492036 
L 127.099022 285.967789 
L 127.565159 285.967789 
L 127.565159 285.443541 
L 144.571569 285.443541 
L 144.571569 284.395046 
L 152.99345 284.395046 
L 152.99345 283.870798 
L 158.145793 283.870798 
L 158.145793 282.298055 
L 159.779666 282.298055 
L 159.779666 281.773807 
L 160.227157 281.773807 
L 160.227157 281.249559 
L 163.202471 281.249559 
L 163.202471 280.725312 
L 163.948795 280.725312 
L 164.028583 279.152568 
L 168.929716 279.152568 
L 168.929716 278.104073 
L 170.102712 278.104073 
L 170.102712 277.579825 
L 172.0938 277.579825 
L 172.0938 277.055578 
L 174.23911 277.055578 
L 174.23911 276.007082 
L 174.694308 276.007082 
L 174.694308 275.482834 
L 174.973025 275.482834 
L 174.988497 274.434339 
L 175.295895 274.434339 
L 175.295895 273.910091 
L 176.090011 273.910091 
L 176.090011 273.385844 
L 179.169112 273.385844 
L 179.169112 272.337348 
L 179.357423 272.337348 
L 179.357423 271.288853 
L 179.97922 271.288853 
L 179.97922 270.764605 
L 182.089169 270.764605 
L 182.089169 270.240357 
L 182.744678 270.240357 
L 182.744678 269.716109 
L 182.872835 269.716109 
L 182.872835 268.667614 
L 185.023069 268.667614 
L 185.023069 268.143366 
L 186.932035 268.143366 
L 187.000346 266.046375 
L 189.035168 266.046375 
L 189.035168 263.949385 
L 189.208787 263.949385 
L 189.208787 263.425137 
L 189.44828 263.425137 
L 189.44828 262.900889 
L 190.78526 262.900889 
L 190.78526 262.376641 
L 190.898769 262.376641 
L 190.898769 261.328146 
L 192.374278 261.328146 
L 192.374278 260.803898 
L 193.202547 260.803898 
L 193.202547 260.279651 
L 193.333346 260.279651 
L 193.333346 259.755403 
L 193.888829 259.755403 
L 193.957145 257.658412 
L 195.586956 257.658412 
L 195.586956 257.134164 
L 196.58147 257.134164 
L 196.59518 255.561421 
L 197.369062 255.561421 
L 197.369062 255.037173 
L 197.710504 255.037173 
L 197.710504 253.988678 
L 198.084621 253.988678 
L 198.084621 252.940182 
L 198.898366 252.940182 
L 198.898366 251.891687 
L 199.067071 251.891687 
L 199.067071 251.367439 
L 199.50355 251.367439 
L 199.50355 250.843192 
L 199.970712 250.843192 
L 199.970712 249.794696 
L 200.162119 249.794696 
L 200.162119 249.270448 
L 200.524839 249.270448 
L 200.524839 248.221953 
L 201.214369 248.221953 
L 201.214369 247.697705 
L 202.660265 247.697705 
L 202.721223 245.600714 
L 203.554422 245.600714 
L 203.554422 244.552219 
L 203.895993 244.552219 
L 203.895993 244.027971 
L 204.344918 244.027971 
L 204.354118 242.979476 
L 204.469942 242.979476 
L 204.469942 241.93098 
L 205.142651 241.93098 
L 205.142651 241.406733 
L 205.887855 241.406733 
L 205.973908 240.358237 
L 206.070331 240.358237 
L 206.070331 239.83399 
L 206.709439 239.83399 
L 206.720108 238.261246 
L 207.252838 238.261246 
L 207.349444 236.688503 
L 208.152631 236.688503 
L 208.152631 236.164255 
L 208.450797 236.164255 
L 208.470505 234.591512 
L 209.105665 234.591512 
L 209.144827 233.018769 
L 209.86357 233.018769 
L 209.86357 232.494521 
L 211.133802 232.494521 
L 211.133802 231.970274 
L 211.419597 231.970274 
L 211.419597 230.921778 
L 212.17462 230.921778 
L 212.17462 230.397531 
L 212.308126 230.397531 
L 212.327359 228.824787 
L 213.719591 228.824787 
L 213.742279 227.776292 
L 214.206668 227.776292 
L 214.206668 226.203549 
L 214.588908 226.203549 
L 214.588908 225.679301 
L 214.813767 225.679301 
L 214.885127 224.630806 
L 215.058834 224.630806 
L 215.058834 223.58231 
L 215.475721 223.58231 
L 215.475721 223.058063 
L 216.510497 223.058063 
L 216.510497 222.533815 
L 216.99997 222.533815 
L 217.03335 221.485319 
L 217.385762 221.485319 
L 217.385762 220.961072 
L 218.579559 220.961072 
L 218.579559 219.912576 
L 219.098732 219.912576 
L 219.098732 219.388328 
L 220.375503 219.388328 
L 220.375503 218.864081 
L 220.805515 218.864081 
L 220.805515 218.339833 
L 224.243617 218.339833 
L 224.243617 217.815585 
L 226.335654 217.815585 
L 226.335654 216.76709 
L 255.564415 216.76709 
L 255.564415 216.242842 
L 255.838707 216.242842 
L 255.865856 215.194347 
L 256.341607 215.194347 
L 256.341607 214.670099 
L 256.45314 214.670099 
L 256.45314 214.145851 
L 256.576081 214.145851 
L 256.576081 213.621604 
L 266.862323 213.621604 
L 266.963571 212.573108 
L 267.048489 212.573108 
L 267.08642 211.000365 
L 267.353759 211.000365 
L 267.353759 209.95187 
L 267.569659 209.95187 
L 267.569659 208.903374 
L 271.074368 208.903374 
L 271.074368 208.379126 
L 273.497518 208.379126 
L 273.539964 207.330631 
L 274.199463 207.330631 
L 274.199463 206.806383 
L 276.553051 206.806383 
L 276.553051 206.282136 
L 278.38051 206.282136 
L 278.38051 205.757888 
L 280.702058 205.757888 
L 280.702058 204.709392 
L 282.363725 204.709392 
L 282.363725 204.185145 
L 285.445139 204.185145 
L 285.445139 203.660897 
L 286.838433 203.660897 
L 286.838433 203.136649 
L 288.018242 203.136649 
L 288.018242 202.612401 
L 289.242966 202.612401 
L 289.242966 202.088154 
L 297.093659 202.088154 
L 297.200392 201.039658 
L 303.054794 201.039658 
L 303.054794 200.515411 
L 333.429677 200.515411 
L 333.429677 200.515411 
" style="fill:none;stroke:#6495ed;stroke-linecap:square;stroke-width:1.5;"/>
   </g>
   <g id="line2d_40">
    <defs>
     <path d="M -0 6 
L 6 -6 
L -6 -6 
z
" id="m1ae998bcbe" style="stroke:#6495ed;stroke-linejoin:miter;stroke-width:1.5;"/>
    </defs>
    <g>
     <use style="fill-opacity:0;stroke:#6495ed;stroke-linejoin:miter;stroke-width:1.5;" x="59.61157" xlink:href="#m1ae998bcbe" y="292.783009"/>
     <use style="fill-opacity:0;stroke:#6495ed;stroke-linejoin:miter;stroke-width:1.5;" x="144.571569" xlink:href="#m1ae998bcbe" y="285.443541"/>
     <use style="fill-opacity:0;stroke:#6495ed;stroke-linejoin:miter;stroke-width:1.5;" x="202.721223" xlink:href="#m1ae998bcbe" y="245.600714"/>
     <use style="fill-opacity:0;stroke:#6495ed;stroke-linejoin:miter;stroke-width:1.5;" x="256.576081" xlink:href="#m1ae998bcbe" y="213.621604"/>
     <use style="fill-opacity:0;stroke:#6495ed;stroke-linejoin:miter;stroke-width:1.5;" x="303.054794" xlink:href="#m1ae998bcbe" y="200.515411"/>
     <use style="fill-opacity:0;stroke:#6495ed;stroke-linejoin:miter;stroke-width:1.5;" x="333.429677" xlink:href="#m1ae998bcbe" y="200.515411"/>
    </g>
   </g>
   <g id="line2d_41">
    <path style="fill:none;stroke:#6495ed;stroke-linecap:square;stroke-width:1.5;"/>
    <g/>
   </g>
   <g id="line2d_42">
    <path clip-path="url(#p750f890722)" d="M 254.198341 216.76709 
" style="fill:none;stroke:#6495ed;stroke-linecap:square;stroke-width:1.5;"/>
    <defs>
     <path d="M -12 12 
L 12 -12 
M -12 -12 
L 12 12 
" id="mf96f0345a1" style="stroke:#6495ed;stroke-width:3;"/>
    </defs>
    <g clip-path="url(#p750f890722)">
     <use style="fill:#6495ed;stroke:#6495ed;stroke-width:3;" x="254.198341" xlink:href="#mf96f0345a1" y="216.76709"/>
    </g>
   </g>
   <g id="line2d_43">
    <defs>
     <path d="M 0 1.5 
C 0.397805 1.5 0.77937 1.341951 1.06066 1.06066 
C 1.341951 0.77937 1.5 0.397805 1.5 0 
C 1.5 -0.397805 1.341951 -0.77937 1.06066 -1.06066 
C 0.77937 -1.341951 0.397805 -1.5 0 -1.5 
C -0.397805 -1.5 -0.77937 -1.341951 -1.06066 -1.06066 
C -1.341951 -0.77937 -1.5 -0.397805 -1.5 0 
C -1.5 0.397805 -1.341951 0.77937 -1.06066 1.06066 
C -0.77937 1.341951 -0.397805 1.5 0 1.5 
z
" id="m3024694569" style="stroke:#9acd32;"/>
    </defs>
    <g>
     <use style="fill:#9acd32;stroke:#9acd32;" x="241.558712" xlink:href="#m3024694569" y="127.12073"/>
     <use style="fill:#9acd32;stroke:#9acd32;" x="241.558712" xlink:href="#m3024694569" y="127.12073"/>
    </g>
   </g>
   <g id="line2d_44">
    <path d="M 51.170468 294.88 
L 51.170468 294.355752 
L 77.426063 294.355752 
L 77.426063 293.831505 
L 77.796074 293.831505 
L 77.796074 293.307257 
L 78.395608 293.307257 
L 78.395608 292.783009 
L 80.184737 292.783009 
L 80.184737 292.258761 
L 81.414179 292.258761 
L 81.414179 291.734514 
L 82.187561 291.734514 
L 82.187561 291.210266 
L 83.197203 291.210266 
L 83.197203 290.161771 
L 83.374574 290.161771 
L 83.374574 288.589027 
L 83.550136 288.589027 
L 83.550136 288.06478 
L 84.484951 288.06478 
L 84.484951 287.016284 
L 84.731326 287.016284 
L 84.731326 286.492036 
L 85.37158 286.492036 
L 85.449963 284.919293 
L 85.836605 284.919293 
L 85.836605 284.395046 
L 86.139782 284.395046 
L 86.139782 283.34655 
L 86.803007 283.34655 
L 86.803007 282.822302 
L 87.089762 282.822302 
L 87.089762 281.773807 
L 87.854548 281.773807 
L 87.854548 281.249559 
L 88.455945 281.249559 
L 88.455945 279.152568 
L 88.781188 279.152568 
L 88.781188 278.104073 
L 88.909583 278.104073 
L 88.973423 277.055578 
L 89.100397 277.055578 
L 89.100397 276.53133 
L 89.475791 276.53133 
L 89.475791 275.482834 
L 90.143435 275.482834 
L 90.143435 274.958587 
L 90.957331 274.958587 
L 90.957331 274.434339 
L 91.294692 274.434339 
L 91.294692 273.910091 
L 91.460924 273.910091 
L 91.460924 272.861596 
L 92.425936 272.861596 
L 92.477993 271.8131 
L 92.633226 271.8131 
L 92.633226 270.764605 
L 92.78707 270.764605 
L 92.78707 269.716109 
L 93.04046 269.716109 
L 93.04046 269.191862 
L 93.730719 269.191862 
L 93.730719 268.667614 
L 94.018273 268.667614 
L 94.018273 268.143366 
L 94.440787 268.143366 
L 94.440787 267.619119 
L 94.625292 267.619119 
L 94.625292 267.094871 
L 94.943488 267.094871 
L 94.943488 266.570623 
L 95.122707 266.570623 
L 95.122707 266.046375 
L 96.160501 266.046375 
L 96.160501 265.522128 
L 96.575096 265.522128 
L 96.65683 262.376641 
L 96.819141 262.376641 
L 96.819141 261.852394 
L 97.8003 261.852394 
L 97.876428 260.803898 
L 97.914366 260.803898 
L 97.914366 259.755403 
L 98.252095 259.755403 
L 98.252095 259.231155 
L 98.363214 259.231155 
L 98.363214 258.706907 
L 99.015266 258.706907 
L 99.121579 257.134164 
L 99.156871 257.134164 
L 99.156871 256.609917 
L 99.677744 256.609917 
L 99.780053 255.561421 
L 99.949227 255.561421 
L 100.016433 254.512926 
L 100.216492 254.512926 
L 100.315656 252.415935 
L 100.835088 252.415935 
L 100.930759 250.843192 
L 100.994246 250.843192 
L 100.994246 249.794696 
L 101.214622 249.794696 
L 101.308212 248.746201 
L 101.370323 248.746201 
L 101.370323 247.173458 
L 101.585964 247.173458 
L 101.647083 245.600714 
L 102.039148 245.600714 
L 102.039148 244.027971 
L 102.187595 244.027971 
L 102.187595 243.503724 
L 102.393291 243.503724 
L 102.422477 241.406733 
L 102.509738 241.406733 
L 102.509738 240.882485 
L 102.82596 240.882485 
L 102.82596 240.358237 
L 103.659961 240.358237 
L 103.659961 239.83399 
L 103.822018 239.83399 
L 103.822018 239.309742 
L 104.141622 239.309742 
L 104.141622 238.785494 
L 104.273058 238.785494 
L 104.273058 238.261246 
L 104.429467 238.261246 
L 104.507141 236.164255 
L 104.584467 236.164255 
L 104.635824 234.067265 
L 104.865056 234.067265 
L 104.890339 231.970274 
L 105.141143 231.970274 
L 105.166024 230.921778 
L 105.339187 230.921778 
L 105.43736 228.824787 
L 105.583578 228.824787 
L 105.583578 227.776292 
L 105.919997 227.776292 
L 105.919997 226.727797 
L 106.062187 226.727797 
L 106.156331 225.679301 
L 106.249964 225.679301 
L 106.249964 224.630806 
L 106.527841 224.630806 
L 106.596615 222.533815 
L 107.137126 222.533815 
L 107.137126 221.485319 
L 107.269642 221.485319 
L 107.269642 219.388328 
L 107.401145 219.388328 
L 107.401145 218.864081 
L 107.639653 218.864081 
L 107.639653 218.339833 
L 107.917329 218.339833 
L 107.917329 217.291338 
L 108.253045 217.291338 
L 108.33596 214.145851 
L 108.439045 214.145851 
L 108.439045 213.621604 
L 108.744646 213.621604 
L 108.80512 212.573108 
L 108.925434 212.573108 
L 109.025057 211.524613 
L 109.261825 211.524613 
L 109.261825 210.476117 
L 109.417879 210.476117 
L 109.417879 209.95187 
L 109.725805 209.95187 
L 109.725805 209.427622 
L 109.83987 209.427622 
L 109.83987 208.379126 
L 110.028316 208.379126 
L 110.028316 207.854879 
L 110.251758 207.854879 
L 110.251758 207.330631 
L 110.815903 207.330631 
L 110.815903 206.806383 
L 110.976281 206.806383 
L 110.976281 205.23364 
L 111.152743 205.23364 
L 111.152743 204.709392 
L 111.310025 204.709392 
L 111.310025 204.185145 
L 111.620342 204.185145 
L 111.620342 203.660897 
L 111.908367 203.660897 
L 112.008883 201.563906 
L 112.648299 201.563906 
L 112.664386 200.515411 
L 113.186985 200.515411 
L 113.186985 199.991163 
L 113.979555 199.991163 
L 113.979555 199.466915 
L 114.289561 199.466915 
L 114.289561 198.41842 
L 114.963785 198.41842 
L 115.047985 197.369924 
L 115.325713 197.369924 
L 115.366988 195.797181 
L 115.693673 195.797181 
L 115.693673 195.272933 
L 115.841355 195.272933 
L 115.921378 193.175943 
L 117.079092 193.175943 
L 117.079092 191.603199 
L 117.203047 191.603199 
L 117.203047 191.078952 
L 117.629989 191.078952 
L 117.629989 190.554704 
L 117.80977 190.554704 
L 117.80977 190.030456 
L 120.609463 190.030456 
L 120.609463 189.506209 
L 120.740683 189.506209 
L 120.790886 188.457713 
L 121.459503 188.457713 
L 121.54608 185.312227 
L 123.892577 185.312227 
L 123.892577 184.787979 
L 125.344886 184.787979 
L 125.413998 183.739484 
L 125.596949 183.739484 
L 125.596949 182.690988 
L 127.008452 182.690988 
L 127.008452 182.16674 
L 127.126794 182.16674 
L 127.126794 181.642493 
L 127.35422 181.642493 
L 127.35422 181.118245 
L 128.898528 181.118245 
L 128.898528 179.545502 
L 130.781819 179.545502 
L 130.804243 178.497006 
L 131.810662 178.497006 
L 131.810662 177.972759 
L 132.761449 177.972759 
L 132.761449 177.448511 
L 133.562502 177.448511 
L 133.562502 176.924263 
L 134.48242 176.924263 
L 134.48242 175.875768 
L 134.778444 175.875768 
L 134.778444 175.35152 
L 135.501224 175.35152 
L 135.501224 174.303025 
L 138.373071 174.303025 
L 138.373071 173.254529 
L 138.744311 173.254529 
L 138.80424 171.681786 
L 139.14225 171.681786 
L 139.14225 171.157538 
L 141.216933 171.157538 
L 141.216933 170.633291 
L 141.532127 170.633291 
L 141.532127 169.584795 
L 142.687678 169.584795 
L 142.687678 169.060547 
L 144.969617 169.060547 
L 144.969617 168.012052 
L 147.218676 168.012052 
L 147.218676 167.487804 
L 147.964031 167.487804 
L 147.964031 166.963557 
L 148.6705 166.963557 
L 148.6705 166.439309 
L 150.572427 166.439309 
L 150.604361 164.866566 
L 150.808742 164.866566 
L 150.808742 163.81807 
L 151.372152 163.81807 
L 151.372152 163.293823 
L 155.965449 163.293823 
L 155.965449 162.769575 
L 157.852888 162.769575 
L 157.852888 162.245327 
L 157.988429 162.245327 
L 157.988429 160.672584 
L 159.898832 160.672584 
L 159.924628 159.099841 
L 160.402544 159.099841 
L 160.402544 158.575593 
L 161.158869 158.575593 
L 161.158869 158.051345 
L 163.170909 158.051345 
L 163.170909 157.527098 
L 163.988735 157.527098 
L 163.988735 157.00285 
L 164.498112 157.00285 
L 164.498112 156.478602 
L 164.843974 156.478602 
L 164.843974 155.954354 
L 167.608299 155.954354 
L 167.608299 155.430107 
L 167.879268 155.430107 
L 167.879268 154.905859 
L 168.817551 154.905859 
L 168.817551 154.381611 
L 169.409266 154.381611 
L 169.409266 153.857364 
L 169.567172 153.857364 
L 169.567172 153.333116 
L 170.26176 153.333116 
L 170.26176 152.808868 
L 171.197603 152.808868 
L 171.197603 152.28462 
L 174.448722 152.28462 
L 174.448722 151.760373 
L 176.57941 151.760373 
L 176.57941 150.711877 
L 177.57608 150.711877 
L 177.57608 150.18763 
L 177.864887 150.18763 
L 177.864887 149.663382 
L 178.244825 149.663382 
L 178.244825 148.614886 
L 178.481382 148.614886 
L 178.481382 147.566391 
L 179.606217 147.566391 
L 179.606217 146.517896 
L 183.055773 146.517896 
L 183.055773 145.993648 
L 185.361124 145.993648 
L 185.361124 145.4694 
L 187.620153 145.4694 
L 187.620153 144.945152 
L 187.785108 144.945152 
L 187.816932 143.896657 
L 192.127782 143.896657 
L 192.127782 143.372409 
L 192.906723 143.372409 
L 192.982516 141.799666 
L 196.579756 141.799666 
L 196.579756 140.751171 
L 196.915457 140.751171 
L 196.915457 140.226923 
L 197.350218 140.226923 
L 197.350218 139.702675 
L 197.489711 139.702675 
L 197.489711 139.178427 
L 197.684567 139.178427 
L 197.684567 138.129932 
L 200.752642 138.129932 
L 200.752642 137.605684 
L 202.229694 137.605684 
L 202.229694 137.081437 
L 205.186596 137.081437 
L 205.186596 136.557189 
L 207.270216 136.557189 
L 207.34296 134.460198 
L 209.272092 134.460198 
L 209.272092 133.411703 
L 210.672455 133.411703 
L 210.672455 132.363207 
L 223.23758 132.363207 
L 223.23758 131.838959 
L 224.831322 131.838959 
L 224.831322 131.314712 
L 225.771665 131.314712 
L 225.771665 130.790464 
L 230.883877 130.790464 
L 230.883877 130.266216 
L 232.276894 130.266216 
L 232.384613 128.693473 
L 232.996677 128.693473 
L 232.996677 128.169225 
L 238.069389 128.169225 
L 238.069389 127.644978 
L 241.558712 127.644978 
L 241.558712 127.12073 
L 333.429677 127.12073 
L 333.429677 127.12073 
" style="fill:none;stroke:#9acd32;stroke-linecap:square;stroke-width:1.5;"/>
   </g>
   <g id="line2d_45">
    <defs>
     <path d="M 0 -6 
L -6 6 
L 6 6 
z
" id="m6779535d4b" style="stroke:#9acd32;stroke-linejoin:miter;stroke-width:1.5;"/>
    </defs>
    <g>
     <use style="fill-opacity:0;stroke:#9acd32;stroke-linejoin:miter;stroke-width:1.5;" x="106.596615" xlink:href="#m6779535d4b" y="223.058063"/>
     <use style="fill-opacity:0;stroke:#9acd32;stroke-linejoin:miter;stroke-width:1.5;" x="151.372152" xlink:href="#m6779535d4b" y="163.293823"/>
     <use style="fill-opacity:0;stroke:#9acd32;stroke-linejoin:miter;stroke-width:1.5;" x="210.672455" xlink:href="#m6779535d4b" y="133.411703"/>
     <use style="fill-opacity:0;stroke:#9acd32;stroke-linejoin:miter;stroke-width:1.5;" x="241.558712" xlink:href="#m6779535d4b" y="127.12073"/>
     <use style="fill-opacity:0;stroke:#9acd32;stroke-linejoin:miter;stroke-width:1.5;" x="241.558712" xlink:href="#m6779535d4b" y="127.12073"/>
     <use style="fill-opacity:0;stroke:#9acd32;stroke-linejoin:miter;stroke-width:1.5;" x="333.429677" xlink:href="#m6779535d4b" y="127.12073"/>
    </g>
   </g>
   <g id="line2d_46">
    <path style="fill:none;stroke:#9acd32;stroke-linecap:square;stroke-width:1.5;"/>
    <g/>
   </g>
   <g id="line2d_47">
    <path clip-path="url(#p750f890722)" d="M 214.582716 132.363207 
" style="fill:none;stroke:#9acd32;stroke-linecap:square;stroke-width:1.5;"/>
    <defs>
     <path d="M -12 12 
L 12 -12 
M -12 -12 
L 12 12 
" id="m187a6e0780" style="stroke:#9acd32;stroke-width:3;"/>
    </defs>
    <g clip-path="url(#p750f890722)">
     <use style="fill:#9acd32;stroke:#9acd32;stroke-width:3;" x="214.582716" xlink:href="#m187a6e0780" y="132.363207"/>
    </g>
   </g>
   <g id="line2d_48">
    <path d="M 333.429677 200.515411 
L 363.933742 289.532673 
" style="fill:none;stroke:#6495ed;stroke-linecap:square;stroke-width:1.5;"/>
    <g>
     <use style="fill-opacity:0;stroke:#6495ed;stroke-linejoin:miter;stroke-width:1.5;" x="333.429677" xlink:href="#m1ae998bcbe" y="200.515411"/>
     <use style="fill-opacity:0;stroke:#6495ed;stroke-linejoin:miter;stroke-width:1.5;" x="363.933742" xlink:href="#m1ae998bcbe" y="289.532673"/>
    </g>
   </g>
   <g id="line2d_49">
    <path d="M 333.429677 142.848162 
L 363.933742 225.364752 
" style="fill:none;stroke:#ff00ff;stroke-linecap:square;stroke-width:1.5;"/>
    <g>
     <use style="fill-opacity:0;stroke:#ff00ff;stroke-linejoin:miter;stroke-width:1.5;" x="333.429677" xlink:href="#m88abe3fe0d" y="142.848162"/>
     <use style="fill-opacity:0;stroke:#ff00ff;stroke-linejoin:miter;stroke-width:1.5;" x="363.933742" xlink:href="#m88abe3fe0d" y="225.364752"/>
    </g>
   </g>
   <g id="line2d_50">
    <path d="M 333.429677 127.12073 
L 363.933742 161.196832 
" style="fill:none;stroke:#9acd32;stroke-linecap:square;stroke-width:1.5;"/>
    <g>
     <use style="fill-opacity:0;stroke:#9acd32;stroke-linejoin:miter;stroke-width:1.5;" x="333.429677" xlink:href="#m6779535d4b" y="127.12073"/>
     <use style="fill-opacity:0;stroke:#9acd32;stroke-linejoin:miter;stroke-width:1.5;" x="363.933742" xlink:href="#m6779535d4b" y="161.196832"/>
    </g>
   </g>
   <g id="line2d_51">
    <path d="M 333.429677 100.908344 
L 363.933742 97.028911 
" style="fill:none;stroke:#ffa500;stroke-linecap:square;stroke-width:1.5;"/>
    <g>
     <use style="fill-opacity:0;stroke:#ffa500;stroke-linejoin:bevel;stroke-width:1.5;" x="333.429677" xlink:href="#m867a21f811" y="100.908344"/>
     <use style="fill-opacity:0;stroke:#ffa500;stroke-linejoin:bevel;stroke-width:1.5;" x="363.933742" xlink:href="#m867a21f811" y="97.028911"/>
    </g>
   </g>
   <g id="line2d_52">
    <path d="M 333.429677 294.88 
L 333.429677 27.513663 
" style="fill:none;stroke:#000000;stroke-linecap:square;stroke-width:1.5;"/>
   </g>
   <g id="patch_3">
    <path d="M 56.12 294.88 
L 56.12 24.84 
" style="fill:none;stroke:#000000;stroke-linecap:square;stroke-linejoin:miter;stroke-width:0.8;"/>
   </g>
   <g id="patch_4">
    <path d="M 399.984 294.88 
L 399.984 24.84 
" style="fill:none;stroke:#000000;stroke-linecap:square;stroke-linejoin:miter;stroke-width:0.8;"/>
   </g>
   <g id="patch_5">
    <path d="M 56.12 294.88 
L 399.984 294.88 
" style="fill:none;stroke:#000000;stroke-linecap:square;stroke-linejoin:miter;stroke-width:0.8;"/>
   </g>
   <g id="patch_6">
    <path d="M 56.12 24.84 
L 399.984 24.84 
" style="fill:none;stroke:#000000;stroke-linecap:square;stroke-linejoin:miter;stroke-width:0.8;"/>
   </g>
   <g id="text_14">
    <!-- GA -->
    <defs>
     <path d="M 59.515625 10.40625 
L 59.515625 29.984375 
L 43.40625 29.984375 
L 43.40625 38.09375 
L 69.28125 38.09375 
L 69.28125 6.78125 
Q 63.578125 2.734375 56.6875 0.65625 
Q 49.8125 -1.421875 42 -1.421875 
Q 24.90625 -1.421875 15.25 8.5625 
Q 5.609375 18.5625 5.609375 36.375 
Q 5.609375 54.25 15.25 64.234375 
Q 24.90625 74.21875 42 74.21875 
Q 49.125 74.21875 55.546875 72.453125 
Q 61.96875 70.703125 67.390625 67.28125 
L 67.390625 56.78125 
Q 61.921875 61.421875 55.765625 63.765625 
Q 49.609375 66.109375 42.828125 66.109375 
Q 29.4375 66.109375 22.71875 58.640625 
Q 16.015625 51.171875 16.015625 36.375 
Q 16.015625 21.625 22.71875 14.15625 
Q 29.4375 6.6875 42.828125 6.6875 
Q 48.046875 6.6875 52.140625 7.59375 
Q 56.25 8.5 59.515625 10.40625 
z
" id="DejaVuSans-47"/>
     <path d="M 34.1875 63.1875 
L 20.796875 26.90625 
L 47.609375 26.90625 
z
M 28.609375 72.90625 
L 39.796875 72.90625 
L 67.578125 0 
L 57.328125 0 
L 50.6875 18.703125 
L 17.828125 18.703125 
L 11.1875 0 
L 0.78125 0 
z
" id="DejaVuSans-41"/>
    </defs>
    <g transform="translate(369.479935 294.223611)scale(0.17 -0.17)">
     <use xlink:href="#DejaVuSans-47"/>
     <use x="77.490234" xlink:href="#DejaVuSans-41"/>
    </g>
   </g>
   <g id="text_15">
    <!-- ALPS -->
    <defs>
     <path d="M 9.8125 72.90625 
L 19.671875 72.90625 
L 19.671875 8.296875 
L 55.171875 8.296875 
L 55.171875 0 
L 9.8125 0 
z
" id="DejaVuSans-4c"/>
     <path d="M 19.671875 64.796875 
L 19.671875 37.40625 
L 32.078125 37.40625 
Q 38.96875 37.40625 42.71875 40.96875 
Q 46.484375 44.53125 46.484375 51.125 
Q 46.484375 57.671875 42.71875 61.234375 
Q 38.96875 64.796875 32.078125 64.796875 
z
M 9.8125 72.90625 
L 32.078125 72.90625 
Q 44.34375 72.90625 50.609375 67.359375 
Q 56.890625 61.8125 56.890625 51.125 
Q 56.890625 40.328125 50.609375 34.8125 
Q 44.34375 29.296875 32.078125 29.296875 
L 19.671875 29.296875 
L 19.671875 0 
L 9.8125 0 
z
" id="DejaVuSans-50"/>
     <path d="M 53.515625 70.515625 
L 53.515625 60.890625 
Q 47.90625 63.578125 42.921875 64.890625 
Q 37.9375 66.21875 33.296875 66.21875 
Q 25.25 66.21875 20.875 63.09375 
Q 16.5 59.96875 16.5 54.203125 
Q 16.5 49.359375 19.40625 46.890625 
Q 22.3125 44.4375 30.421875 42.921875 
L 36.375 41.703125 
Q 47.40625 39.59375 52.65625 34.296875 
Q 57.90625 29 57.90625 20.125 
Q 57.90625 9.515625 50.796875 4.046875 
Q 43.703125 -1.421875 29.984375 -1.421875 
Q 24.8125 -1.421875 18.96875 -0.25 
Q 13.140625 0.921875 6.890625 3.21875 
L 6.890625 13.375 
Q 12.890625 10.015625 18.65625 8.296875 
Q 24.421875 6.59375 29.984375 6.59375 
Q 38.421875 6.59375 43.015625 9.90625 
Q 47.609375 13.234375 47.609375 19.390625 
Q 47.609375 24.75 44.3125 27.78125 
Q 41.015625 30.8125 33.5 32.328125 
L 27.484375 33.5 
Q 16.453125 35.6875 11.515625 40.375 
Q 6.59375 45.0625 6.59375 53.421875 
Q 6.59375 63.09375 13.40625 68.65625 
Q 20.21875 74.21875 32.171875 74.21875 
Q 37.3125 74.21875 42.625 73.28125 
Q 47.953125 72.359375 53.515625 70.515625 
z
" id="DejaVuSans-53"/>
    </defs>
    <g transform="translate(369.479935 230.05569)scale(0.17 -0.17)">
     <use xlink:href="#DejaVuSans-41"/>
     <use x="68.408203" xlink:href="#DejaVuSans-4c"/>
     <use x="124.121094" xlink:href="#DejaVuSans-50"/>
     <use x="184.423828" xlink:href="#DejaVuSans-53"/>
    </g>
   </g>
   <g id="text_16">
    <!-- Rosenbroc -->
    <defs>
     <path d="M 44.390625 34.1875 
Q 47.5625 33.109375 50.5625 29.59375 
Q 53.5625 26.078125 56.59375 19.921875 
L 66.609375 0 
L 56 0 
L 46.6875 18.703125 
Q 43.0625 26.03125 39.671875 28.421875 
Q 36.28125 30.8125 30.421875 30.8125 
L 19.671875 30.8125 
L 19.671875 0 
L 9.8125 0 
L 9.8125 72.90625 
L 32.078125 72.90625 
Q 44.578125 72.90625 50.734375 67.671875 
Q 56.890625 62.453125 56.890625 51.90625 
Q 56.890625 45.015625 53.6875 40.46875 
Q 50.484375 35.9375 44.390625 34.1875 
z
M 19.671875 64.796875 
L 19.671875 38.921875 
L 32.078125 38.921875 
Q 39.203125 38.921875 42.84375 42.21875 
Q 46.484375 45.515625 46.484375 51.90625 
Q 46.484375 58.296875 42.84375 61.546875 
Q 39.203125 64.796875 32.078125 64.796875 
z
" id="DejaVuSans-52"/>
     <path d="M 48.6875 27.296875 
Q 48.6875 37.203125 44.609375 42.84375 
Q 40.53125 48.484375 33.40625 48.484375 
Q 26.265625 48.484375 22.1875 42.84375 
Q 18.109375 37.203125 18.109375 27.296875 
Q 18.109375 17.390625 22.1875 11.75 
Q 26.265625 6.109375 33.40625 6.109375 
Q 40.53125 6.109375 44.609375 11.75 
Q 48.6875 17.390625 48.6875 27.296875 
z
M 18.109375 46.390625 
Q 20.953125 51.265625 25.265625 53.625 
Q 29.59375 56 35.59375 56 
Q 45.5625 56 51.78125 48.09375 
Q 58.015625 40.1875 58.015625 27.296875 
Q 58.015625 14.40625 51.78125 6.484375 
Q 45.5625 -1.421875 35.59375 -1.421875 
Q 29.59375 -1.421875 25.265625 0.953125 
Q 20.953125 3.328125 18.109375 8.203125 
L 18.109375 0 
L 9.078125 0 
L 9.078125 75.984375 
L 18.109375 75.984375 
z
" id="DejaVuSans-62"/>
    </defs>
    <g transform="translate(369.479935 165.887769)scale(0.17 -0.17)">
     <use xlink:href="#DejaVuSans-52"/>
     <use x="69.419922" xlink:href="#DejaVuSans-6f"/>
     <use x="130.601562" xlink:href="#DejaVuSans-73"/>
     <use x="182.701172" xlink:href="#DejaVuSans-65"/>
     <use x="244.224609" xlink:href="#DejaVuSans-6e"/>
     <use x="307.603516" xlink:href="#DejaVuSans-62"/>
     <use x="371.080078" xlink:href="#DejaVuSans-72"/>
     <use x="412.162109" xlink:href="#DejaVuSans-6f"/>
     <use x="473.34375" xlink:href="#DejaVuSans-63"/>
    </g>
   </g>
   <g id="text_17">
    <!-- DASA -->
    <defs>
     <path d="M 19.671875 64.796875 
L 19.671875 8.109375 
L 31.59375 8.109375 
Q 46.6875 8.109375 53.6875 14.9375 
Q 60.6875 21.78125 60.6875 36.53125 
Q 60.6875 51.171875 53.6875 57.984375 
Q 46.6875 64.796875 31.59375 64.796875 
z
M 9.8125 72.90625 
L 30.078125 72.90625 
Q 51.265625 72.90625 61.171875 64.09375 
Q 71.09375 55.28125 71.09375 36.53125 
Q 71.09375 17.671875 61.125 8.828125 
Q 51.171875 0 30.078125 0 
L 9.8125 0 
z
" id="DejaVuSans-44"/>
    </defs>
    <g transform="translate(369.479935 101.719848)scale(0.17 -0.17)">
     <use xlink:href="#DejaVuSans-44"/>
     <use x="76.986328" xlink:href="#DejaVuSans-41"/>
     <use x="145.394531" xlink:href="#DejaVuSans-53"/>
     <use x="208.886719" xlink:href="#DejaVuSans-41"/>
    </g>
   </g>
   <g id="text_18">
    <!-- best 2009 -->
    <defs>
     <path d="M 10.984375 1.515625 
L 10.984375 10.5 
Q 14.703125 8.734375 18.5 7.8125 
Q 22.3125 6.890625 25.984375 6.890625 
Q 35.75 6.890625 40.890625 13.453125 
Q 46.046875 20.015625 46.78125 33.40625 
Q 43.953125 29.203125 39.59375 26.953125 
Q 35.25 24.703125 29.984375 24.703125 
Q 19.046875 24.703125 12.671875 31.3125 
Q 6.296875 37.9375 6.296875 49.421875 
Q 6.296875 60.640625 12.9375 67.421875 
Q 19.578125 74.21875 30.609375 74.21875 
Q 43.265625 74.21875 49.921875 64.515625 
Q 56.59375 54.828125 56.59375 36.375 
Q 56.59375 19.140625 48.40625 8.859375 
Q 40.234375 -1.421875 26.421875 -1.421875 
Q 22.703125 -1.421875 18.890625 -0.6875 
Q 15.09375 0.046875 10.984375 1.515625 
z
M 30.609375 32.421875 
Q 37.25 32.421875 41.125 36.953125 
Q 45.015625 41.5 45.015625 49.421875 
Q 45.015625 57.28125 41.125 61.84375 
Q 37.25 66.40625 30.609375 66.40625 
Q 23.96875 66.40625 20.09375 61.84375 
Q 16.21875 57.28125 16.21875 49.421875 
Q 16.21875 41.5 20.09375 36.953125 
Q 23.96875 32.421875 30.609375 32.421875 
z
" id="DejaVuSans-39"/>
    </defs>
    <g transform="translate(369.479935 37.551928)scale(0.17 -0.17)">
     <use xlink:href="#DejaVuSans-62"/>
     <use x="63.476562" xlink:href="#DejaVuSans-65"/>
     <use x="125" xlink:href="#DejaVuSans-73"/>
     <use x="177.099609" xlink:href="#DejaVuSans-74"/>
     <use x="216.308594" xlink:href="#DejaVuSans-20"/>
     <use x="248.095703" xlink:href="#DejaVuSans-32"/>
     <use x="311.71875" xlink:href="#DejaVuSans-30"/>
     <use x="375.341797" xlink:href="#DejaVuSans-30"/>
     <use x="438.964844" xlink:href="#DejaVuSans-39"/>
    </g>
   </g>
   <g id="text_19">
    <!-- bbob f14, 40-D -->
    <g transform="translate(59.55864 35.290806)scale(0.102 -0.102)">
     <use xlink:href="#DejaVuSans-62"/>
     <use x="63.476562" xlink:href="#DejaVuSans-62"/>
     <use x="126.953125" xlink:href="#DejaVuSans-6f"/>
     <use x="188.134766" xlink:href="#DejaVuSans-62"/>
     <use x="251.611328" xlink:href="#DejaVuSans-20"/>
     <use x="283.398438" xlink:href="#DejaVuSans-66"/>
     <use x="318.603516" xlink:href="#DejaVuSans-31"/>
     <use x="382.226562" xlink:href="#DejaVuSans-34"/>
     <use x="445.849609" xlink:href="#DejaVuSans-2c"/>
     <use x="477.636719" xlink:href="#DejaVuSans-20"/>
     <use x="509.423828" xlink:href="#DejaVuSans-34"/>
     <use x="573.046875" xlink:href="#DejaVuSans-30"/>
     <use x="636.669922" xlink:href="#DejaVuSans-2d"/>
     <use x="672.753906" xlink:href="#DejaVuSans-44"/>
    </g>
    <!-- 51 targets: 100..1e-08 -->
    <defs>
     <path d="M 10.796875 72.90625 
L 49.515625 72.90625 
L 49.515625 64.59375 
L 19.828125 64.59375 
L 19.828125 46.734375 
Q 21.96875 47.46875 24.109375 47.828125 
Q 26.265625 48.1875 28.421875 48.1875 
Q 40.625 48.1875 47.75 41.5 
Q 54.890625 34.8125 54.890625 23.390625 
Q 54.890625 11.625 47.5625 5.09375 
Q 40.234375 -1.421875 26.90625 -1.421875 
Q 22.3125 -1.421875 17.546875 -0.640625 
Q 12.796875 0.140625 7.71875 1.703125 
L 7.71875 11.625 
Q 12.109375 9.234375 16.796875 8.0625 
Q 21.484375 6.890625 26.703125 6.890625 
Q 35.15625 6.890625 40.078125 11.328125 
Q 45.015625 15.765625 45.015625 23.390625 
Q 45.015625 31 40.078125 35.4375 
Q 35.15625 39.890625 26.703125 39.890625 
Q 22.75 39.890625 18.8125 39.015625 
Q 14.890625 38.140625 10.796875 36.28125 
z
" id="DejaVuSans-35"/>
     <path d="M 11.71875 12.40625 
L 22.015625 12.40625 
L 22.015625 0 
L 11.71875 0 
z
M 11.71875 51.703125 
L 22.015625 51.703125 
L 22.015625 39.3125 
L 11.71875 39.3125 
z
" id="DejaVuSans-3a"/>
    </defs>
    <g transform="translate(59.55864 46.712575)scale(0.102 -0.102)">
     <use xlink:href="#DejaVuSans-35"/>
     <use x="63.623047" xlink:href="#DejaVuSans-31"/>
     <use x="127.246094" xlink:href="#DejaVuSans-20"/>
     <use x="159.033203" xlink:href="#DejaVuSans-74"/>
     <use x="198.242188" xlink:href="#DejaVuSans-61"/>
     <use x="259.521484" xlink:href="#DejaVuSans-72"/>
     <use x="300.619141" xlink:href="#DejaVuSans-67"/>
     <use x="364.095703" xlink:href="#DejaVuSans-65"/>
     <use x="425.619141" xlink:href="#DejaVuSans-74"/>
     <use x="464.828125" xlink:href="#DejaVuSans-73"/>
     <use x="516.927734" xlink:href="#DejaVuSans-3a"/>
     <use x="550.619141" xlink:href="#DejaVuSans-20"/>
     <use x="582.40625" xlink:href="#DejaVuSans-31"/>
     <use x="646.029297" xlink:href="#DejaVuSans-30"/>
     <use x="709.652344" xlink:href="#DejaVuSans-30"/>
     <use x="773.275391" xlink:href="#DejaVuSans-2e"/>
     <use x="805.0625" xlink:href="#DejaVuSans-2e"/>
     <use x="836.849609" xlink:href="#DejaVuSans-31"/>
     <use x="900.472656" xlink:href="#DejaVuSans-65"/>
     <use x="961.996094" xlink:href="#DejaVuSans-2d"/>
     <use x="998.080078" xlink:href="#DejaVuSans-30"/>
     <use x="1061.703125" xlink:href="#DejaVuSans-38"/>
    </g>
    <!-- 15 instances -->
    <g transform="translate(59.55864 58.134344)scale(0.102 -0.102)">
     <use xlink:href="#DejaVuSans-31"/>
     <use x="63.623047" xlink:href="#DejaVuSans-35"/>
     <use x="127.246094" xlink:href="#DejaVuSans-20"/>
     <use x="159.033203" xlink:href="#DejaVuSans-69"/>
     <use x="186.816406" xlink:href="#DejaVuSans-6e"/>
     <use x="250.195312" xlink:href="#DejaVuSans-73"/>
     <use x="302.294922" xlink:href="#DejaVuSans-74"/>
     <use x="341.503906" xlink:href="#DejaVuSans-61"/>
     <use x="402.783203" xlink:href="#DejaVuSans-6e"/>
     <use x="466.162109" xlink:href="#DejaVuSans-63"/>
     <use x="521.142578" xlink:href="#DejaVuSans-65"/>
     <use x="582.666016" xlink:href="#DejaVuSans-73"/>
    </g>
   </g>
   <g id="text_20">
    <!-- v-coco-version -->
    <g style="fill:#808080;" transform="translate(191.556688 290.099912)scale(0.1 -0.1)">
     <use xlink:href="#DejaVuSans-76"/>
     <use x="59.148438" xlink:href="#DejaVuSans-2d"/>
     <use x="95.232422" xlink:href="#DejaVuSans-63"/>
     <use x="150.212891" xlink:href="#DejaVuSans-6f"/>
     <use x="211.394531" xlink:href="#DejaVuSans-63"/>
     <use x="266.375" xlink:href="#DejaVuSans-6f"/>
     <use x="327.572266" xlink:href="#DejaVuSans-2d"/>
     <use x="363.625" xlink:href="#DejaVuSans-76"/>
     <use x="422.804688" xlink:href="#DejaVuSans-65"/>
     <use x="484.328125" xlink:href="#DejaVuSans-72"/>
     <use x="525.441406" xlink:href="#DejaVuSans-73"/>
     <use x="577.541016" xlink:href="#DejaVuSans-69"/>
     <use x="605.324219" xlink:href="#DejaVuSans-6f"/>
     <use x="666.505859" xlink:href="#DejaVuSans-6e"/>
    </g>
   </g>
   <g id="text_21">
    <!-- 14 Sum of different powers -->
    <defs>
     <path d="M 4.203125 54.6875 
L 13.1875 54.6875 
L 24.421875 12.015625 
L 35.59375 54.6875 
L 46.1875 54.6875 
L 57.421875 12.015625 
L 68.609375 54.6875 
L 77.59375 54.6875 
L 63.28125 0 
L 52.6875 0 
L 40.921875 44.828125 
L 29.109375 0 
L 18.5 0 
z
" id="DejaVuSans-77"/>
    </defs>
    <g transform="translate(91.591063 18.84)scale(0.2 -0.2)">
     <use xlink:href="#DejaVuSans-31"/>
     <use x="63.623047" xlink:href="#DejaVuSans-34"/>
     <use x="127.246094" xlink:href="#DejaVuSans-20"/>
     <use x="159.033203" xlink:href="#DejaVuSans-53"/>
     <use x="222.509766" xlink:href="#DejaVuSans-75"/>
     <use x="285.888672" xlink:href="#DejaVuSans-6d"/>
     <use x="383.300781" xlink:href="#DejaVuSans-20"/>
     <use x="415.087891" xlink:href="#DejaVuSans-6f"/>
     <use x="476.269531" xlink:href="#DejaVuSans-66"/>
     <use x="511.474609" xlink:href="#DejaVuSans-20"/>
     <use x="543.261719" xlink:href="#DejaVuSans-64"/>
     <use x="606.738281" xlink:href="#DejaVuSans-69"/>
     <use x="634.521484" xlink:href="#DejaVuSans-66"/>
     <use x="669.726562" xlink:href="#DejaVuSans-66"/>
     <use x="704.931641" xlink:href="#DejaVuSans-65"/>
     <use x="766.455078" xlink:href="#DejaVuSans-72"/>
     <use x="807.537109" xlink:href="#DejaVuSans-65"/>
     <use x="869.060547" xlink:href="#DejaVuSans-6e"/>
     <use x="932.439453" xlink:href="#DejaVuSans-74"/>
     <use x="971.648438" xlink:href="#DejaVuSans-20"/>
     <use x="1003.435547" xlink:href="#DejaVuSans-70"/>
     <use x="1066.912109" xlink:href="#DejaVuSans-6f"/>
     <use x="1128.09375" xlink:href="#DejaVuSans-77"/>
     <use x="1209.880859" xlink:href="#DejaVuSans-65"/>
     <use x="1271.404297" xlink:href="#DejaVuSans-72"/>
     <use x="1312.517578" xlink:href="#DejaVuSans-73"/>
    </g>
   </g>
  </g>
 </g>
 <defs>
  <clipPath id="p750f890722">
   <rect height="270.04" width="343.864" x="56.12" y="24.84"/>
  </clipPath>
 </defs>
</svg>
