<?xml version="1.0" encoding="utf-8" standalone="no"?>
<!DOCTYPE svg PUBLIC "-//W3C//DTD SVG 1.1//EN"
  "http://www.w3.org/Graphics/SVG/1.1/DTD/svg11.dtd">
<!-- Created with matplotlib (http://matplotlib.org/) -->
<svg height="345.6pt" version="1.1" viewBox="0 0 460.8 345.6" width="460.8pt" xmlns="http://www.w3.org/2000/svg" xmlns:xlink="http://www.w3.org/1999/xlink">
 <defs>
  <style type="text/css">
*{stroke-linecap:butt;stroke-linejoin:round;}
  </style>
 </defs>
 <g id="figure_1">
  <g id="patch_1">
   <path d="M 0 345.6 
L 460.8 345.6 
L 460.8 0 
L 0 0 
z
" style="fill:#ffffff;"/>
  </g>
  <g id="axes_1">
   <g id="patch_2">
    <path d="M 56.12 294.88 
L 399.984 294.88 
L 399.984 24.84 
L 56.12 24.84 
z
" style="fill:#ffffff;"/>
   </g>
   <g id="line2d_1">
    <path d="M -1 289.637523 
L 79.971009 289.637523 
L 79.971009 284.395046 
L 91.070521 284.395046 
L 91.070521 279.152568 
L 94.853174 279.152568 
L 94.853174 273.910091 
L 107.313588 273.910091 
L 107.313588 268.667614 
L 112.24116 268.667614 
L 112.24116 263.425137 
L 127.333669 263.425137 
L 127.333669 258.18266 
L 129.983852 258.18266 
L 129.983852 252.940182 
L 134.268466 252.940182 
L 134.268466 247.697705 
L 151.407712 247.697705 
L 151.407712 242.455228 
L 163.998502 242.455228 
L 163.998502 237.212751 
L 190.817474 237.212751 
L 190.817474 231.970274 
L 190.83373 231.970274 
L 190.83373 226.727797 
L 190.83715 226.727797 
L 190.83715 221.485319 
L 190.840398 221.485319 
L 190.840398 216.242842 
L 190.853216 216.242842 
L 190.853216 211.000365 
L 190.859536 211.000365 
L 190.859536 205.757888 
L 190.870121 205.757888 
L 190.870121 200.515411 
L 190.878311 200.515411 
L 190.878311 195.272933 
L 190.888373 195.272933 
L 190.888373 190.030456 
L 190.903028 190.030456 
L 190.903028 184.787979 
L 190.909671 184.787979 
L 190.909671 179.545502 
L 190.920054 179.545502 
L 190.920054 174.303025 
L 190.941313 174.303025 
L 190.941313 169.060547 
L 190.94828 169.060547 
L 190.94828 163.81807 
L 190.956433 163.81807 
L 190.956433 158.575593 
L 190.976799 158.575593 
L 190.976799 153.333116 
L 190.982735 153.333116 
L 190.982735 148.090639 
L 190.992058 148.090639 
L 190.992058 142.848162 
L 191.00544 142.848162 
L 191.00544 137.605684 
L 191.015428 137.605684 
L 191.015428 132.363207 
L 191.026255 132.363207 
L 191.026255 127.12073 
L 191.032512 127.12073 
L 191.032512 121.878253 
L 191.047383 121.878253 
L 191.047383 116.635776 
L 191.054477 116.635776 
L 191.054477 111.393298 
L 191.058529 111.393298 
L 191.058529 106.150821 
L 191.072028 106.150821 
L 191.072028 100.908344 
L 191.078268 100.908344 
L 191.078268 95.665867 
L 191.081977 95.665867 
L 191.081977 90.42339 
L 191.09091 90.42339 
L 191.09091 85.180912 
L 191.099501 85.180912 
L 191.099501 79.938435 
L 191.104384 79.938435 
L 191.104384 74.695958 
L 191.113978 74.695958 
L 191.113978 69.453481 
L 191.122221 69.453481 
L 191.122221 64.211004 
L 191.133822 64.211004 
L 191.133822 58.968526 
L 191.141216 58.968526 
L 191.141216 53.726049 
L 191.148102 53.726049 
L 191.148102 48.483572 
L 191.167572 48.483572 
L 191.167572 43.241095 
L 191.172771 43.241095 
L 191.172771 37.998618 
L 191.177969 37.998618 
L 191.177969 32.756141 
L 191.200418 32.756141 
L 191.200418 27.513663 
L 333.429677 27.513663 
" style="fill:none;stroke:#f5deb3;stroke-linecap:square;stroke-width:6;"/>
   </g>
   <g id="line2d_2">
    <defs>
     <path d="M -0 7.778175 
L 7.778175 0 
L 0 -7.778175 
L -7.778175 -0 
z
" id="m067ab897a1" style="stroke:#f5deb3;stroke-linejoin:miter;stroke-width:1.5;"/>
    </defs>
    <g>
     <use style="fill:#f5deb3;stroke:#f5deb3;stroke-linejoin:miter;stroke-width:1.5;" x="112.24116" xlink:href="#m067ab897a1" y="268.667614"/>
     <use style="fill:#f5deb3;stroke:#f5deb3;stroke-linejoin:miter;stroke-width:1.5;" x="190.956433" xlink:href="#m067ab897a1" y="163.81807"/>
     <use style="fill:#f5deb3;stroke:#f5deb3;stroke-linejoin:miter;stroke-width:1.5;" x="191.133822" xlink:href="#m067ab897a1" y="58.968526"/>
     <use style="fill:#f5deb3;stroke:#f5deb3;stroke-linejoin:miter;stroke-width:1.5;" x="191.200418" xlink:href="#m067ab897a1" y="27.513663"/>
     <use style="fill:#f5deb3;stroke:#f5deb3;stroke-linejoin:miter;stroke-width:1.5;" x="191.200418" xlink:href="#m067ab897a1" y="27.513663"/>
     <use style="fill:#f5deb3;stroke:#f5deb3;stroke-linejoin:miter;stroke-width:1.5;" x="333.429677" xlink:href="#m067ab897a1" y="27.513663"/>
    </g>
   </g>
   <g id="line2d_3">
    <path style="fill:none;stroke:#f5deb3;stroke-linecap:square;stroke-width:6;"/>
    <g/>
   </g>
   <g id="line2d_4">
    <path d="M 333.429677 27.513663 
L 363.933742 32.86099 
" style="fill:none;stroke:#f5deb3;stroke-linecap:square;stroke-width:6;"/>
    <g>
     <use style="fill:#f5deb3;stroke:#f5deb3;stroke-linejoin:miter;stroke-width:1.5;" x="333.429677" xlink:href="#m067ab897a1" y="27.513663"/>
     <use style="fill:#f5deb3;stroke:#f5deb3;stroke-linejoin:miter;stroke-width:1.5;" x="363.933742" xlink:href="#m067ab897a1" y="32.86099"/>
    </g>
   </g>
   <g id="matplotlib.axis_1">
    <g id="xtick_1">
     <g id="line2d_5">
      <path clip-path="url(#p507904f506)" d="M 56.12 294.88 
L 56.12 24.84 
" style="fill:none;stroke:#b0b0b0;stroke-linecap:square;stroke-width:0.8;"/>
     </g>
     <g id="line2d_6">
      <defs>
       <path d="M 0 0 
L 0 3.5 
" id="m01375e4d62" style="stroke:#000000;stroke-width:0.8;"/>
      </defs>
      <g>
       <use style="stroke:#000000;stroke-width:0.8;" x="56.12" xlink:href="#m01375e4d62" y="294.88"/>
      </g>
     </g>
     <g id="text_1">
      <!-- 0 -->
      <defs>
       <path d="M 31.78125 66.40625 
Q 24.171875 66.40625 20.328125 58.90625 
Q 16.5 51.421875 16.5 36.375 
Q 16.5 21.390625 20.328125 13.890625 
Q 24.171875 6.390625 31.78125 6.390625 
Q 39.453125 6.390625 43.28125 13.890625 
Q 47.125 21.390625 47.125 36.375 
Q 47.125 51.421875 43.28125 58.90625 
Q 39.453125 66.40625 31.78125 66.40625 
z
M 31.78125 74.21875 
Q 44.046875 74.21875 50.515625 64.515625 
Q 56.984375 54.828125 56.984375 36.375 
Q 56.984375 17.96875 50.515625 8.265625 
Q 44.046875 -1.421875 31.78125 -1.421875 
Q 19.53125 -1.421875 13.0625 8.265625 
Q 6.59375 17.96875 6.59375 36.375 
Q 6.59375 54.828125 13.0625 64.515625 
Q 19.53125 74.21875 31.78125 74.21875 
z
" id="DejaVuSans-30"/>
      </defs>
      <g transform="translate(49.7575 317.076875)scale(0.2 -0.2)">
       <use xlink:href="#DejaVuSans-30"/>
      </g>
     </g>
    </g>
    <g id="xtick_2">
     <g id="line2d_7">
      <path clip-path="url(#p507904f506)" d="M 135.351336 294.88 
L 135.351336 24.84 
" style="fill:none;stroke:#b0b0b0;stroke-linecap:square;stroke-width:0.8;"/>
     </g>
     <g id="line2d_8">
      <g>
       <use style="stroke:#000000;stroke-width:0.8;" x="135.351336" xlink:href="#m01375e4d62" y="294.88"/>
      </g>
     </g>
     <g id="text_2">
      <!-- 2 -->
      <defs>
       <path d="M 19.1875 8.296875 
L 53.609375 8.296875 
L 53.609375 0 
L 7.328125 0 
L 7.328125 8.296875 
Q 12.9375 14.109375 22.625 23.890625 
Q 32.328125 33.6875 34.8125 36.53125 
Q 39.546875 41.84375 41.421875 45.53125 
Q 43.3125 49.21875 43.3125 52.78125 
Q 43.3125 58.59375 39.234375 62.25 
Q 35.15625 65.921875 28.609375 65.921875 
Q 23.96875 65.921875 18.8125 64.3125 
Q 13.671875 62.703125 7.8125 59.421875 
L 7.8125 69.390625 
Q 13.765625 71.78125 18.9375 73 
Q 24.125 74.21875 28.421875 74.21875 
Q 39.75 74.21875 46.484375 68.546875 
Q 53.21875 62.890625 53.21875 53.421875 
Q 53.21875 48.921875 51.53125 44.890625 
Q 49.859375 40.875 45.40625 35.40625 
Q 44.1875 33.984375 37.640625 27.21875 
Q 31.109375 20.453125 19.1875 8.296875 
z
" id="DejaVuSans-32"/>
      </defs>
      <g transform="translate(128.988836 317.076875)scale(0.2 -0.2)">
       <use xlink:href="#DejaVuSans-32"/>
      </g>
     </g>
    </g>
    <g id="xtick_3">
     <g id="line2d_9">
      <path clip-path="url(#p507904f506)" d="M 214.582673 294.88 
L 214.582673 24.84 
" style="fill:none;stroke:#b0b0b0;stroke-linecap:square;stroke-width:0.8;"/>
     </g>
     <g id="line2d_10">
      <g>
       <use style="stroke:#000000;stroke-width:0.8;" x="214.582673" xlink:href="#m01375e4d62" y="294.88"/>
      </g>
     </g>
     <g id="text_3">
      <!-- 4 -->
      <defs>
       <path d="M 37.796875 64.3125 
L 12.890625 25.390625 
L 37.796875 25.390625 
z
M 35.203125 72.90625 
L 47.609375 72.90625 
L 47.609375 25.390625 
L 58.015625 25.390625 
L 58.015625 17.1875 
L 47.609375 17.1875 
L 47.609375 0 
L 37.796875 0 
L 37.796875 17.1875 
L 4.890625 17.1875 
L 4.890625 26.703125 
z
" id="DejaVuSans-34"/>
      </defs>
      <g transform="translate(208.220173 317.076875)scale(0.2 -0.2)">
       <use xlink:href="#DejaVuSans-34"/>
      </g>
     </g>
    </g>
    <g id="xtick_4">
     <g id="line2d_11">
      <path clip-path="url(#p507904f506)" d="M 293.814009 294.88 
L 293.814009 24.84 
" style="fill:none;stroke:#b0b0b0;stroke-linecap:square;stroke-width:0.8;"/>
     </g>
     <g id="line2d_12">
      <g>
       <use style="stroke:#000000;stroke-width:0.8;" x="293.814009" xlink:href="#m01375e4d62" y="294.88"/>
      </g>
     </g>
     <g id="text_4">
      <!-- 6 -->
      <defs>
       <path d="M 33.015625 40.375 
Q 26.375 40.375 22.484375 35.828125 
Q 18.609375 31.296875 18.609375 23.390625 
Q 18.609375 15.53125 22.484375 10.953125 
Q 26.375 6.390625 33.015625 6.390625 
Q 39.65625 6.390625 43.53125 10.953125 
Q 47.40625 15.53125 47.40625 23.390625 
Q 47.40625 31.296875 43.53125 35.828125 
Q 39.65625 40.375 33.015625 40.375 
z
M 52.59375 71.296875 
L 52.59375 62.3125 
Q 48.875 64.0625 45.09375 64.984375 
Q 41.3125 65.921875 37.59375 65.921875 
Q 27.828125 65.921875 22.671875 59.328125 
Q 17.53125 52.734375 16.796875 39.40625 
Q 19.671875 43.65625 24.015625 45.921875 
Q 28.375 48.1875 33.59375 48.1875 
Q 44.578125 48.1875 50.953125 41.515625 
Q 57.328125 34.859375 57.328125 23.390625 
Q 57.328125 12.15625 50.6875 5.359375 
Q 44.046875 -1.421875 33.015625 -1.421875 
Q 20.359375 -1.421875 13.671875 8.265625 
Q 6.984375 17.96875 6.984375 36.375 
Q 6.984375 53.65625 15.1875 63.9375 
Q 23.390625 74.21875 37.203125 74.21875 
Q 40.921875 74.21875 44.703125 73.484375 
Q 48.484375 72.75 52.59375 71.296875 
z
" id="DejaVuSans-36"/>
      </defs>
      <g transform="translate(287.451509 317.076875)scale(0.2 -0.2)">
       <use xlink:href="#DejaVuSans-36"/>
      </g>
     </g>
    </g>
    <g id="xtick_5">
     <g id="line2d_13">
      <path clip-path="url(#p507904f506)" d="M 373.045346 294.88 
L 373.045346 24.84 
" style="fill:none;stroke:#b0b0b0;stroke-linecap:square;stroke-width:0.8;"/>
     </g>
     <g id="line2d_14">
      <g>
       <use style="stroke:#000000;stroke-width:0.8;" x="373.045346" xlink:href="#m01375e4d62" y="294.88"/>
      </g>
     </g>
     <g id="text_5">
      <!-- 8 -->
      <defs>
       <path d="M 31.78125 34.625 
Q 24.75 34.625 20.71875 30.859375 
Q 16.703125 27.09375 16.703125 20.515625 
Q 16.703125 13.921875 20.71875 10.15625 
Q 24.75 6.390625 31.78125 6.390625 
Q 38.8125 6.390625 42.859375 10.171875 
Q 46.921875 13.96875 46.921875 20.515625 
Q 46.921875 27.09375 42.890625 30.859375 
Q 38.875 34.625 31.78125 34.625 
z
M 21.921875 38.8125 
Q 15.578125 40.375 12.03125 44.71875 
Q 8.5 49.078125 8.5 55.328125 
Q 8.5 64.0625 14.71875 69.140625 
Q 20.953125 74.21875 31.78125 74.21875 
Q 42.671875 74.21875 48.875 69.140625 
Q 55.078125 64.0625 55.078125 55.328125 
Q 55.078125 49.078125 51.53125 44.71875 
Q 48 40.375 41.703125 38.8125 
Q 48.828125 37.15625 52.796875 32.3125 
Q 56.78125 27.484375 56.78125 20.515625 
Q 56.78125 9.90625 50.3125 4.234375 
Q 43.84375 -1.421875 31.78125 -1.421875 
Q 19.734375 -1.421875 13.25 4.234375 
Q 6.78125 9.90625 6.78125 20.515625 
Q 6.78125 27.484375 10.78125 32.3125 
Q 14.796875 37.15625 21.921875 38.8125 
z
M 18.3125 54.390625 
Q 18.3125 48.734375 21.84375 45.5625 
Q 25.390625 42.390625 31.78125 42.390625 
Q 38.140625 42.390625 41.71875 45.5625 
Q 45.3125 48.734375 45.3125 54.390625 
Q 45.3125 60.0625 41.71875 63.234375 
Q 38.140625 66.40625 31.78125 66.40625 
Q 25.390625 66.40625 21.84375 63.234375 
Q 18.3125 60.0625 18.3125 54.390625 
z
" id="DejaVuSans-38"/>
      </defs>
      <g transform="translate(366.682846 317.076875)scale(0.2 -0.2)">
       <use xlink:href="#DejaVuSans-38"/>
      </g>
     </g>
    </g>
    <g id="text_6">
     <!-- log10(# f-evals / dimension) -->
     <defs>
      <path d="M 9.421875 75.984375 
L 18.40625 75.984375 
L 18.40625 0 
L 9.421875 0 
z
" id="DejaVuSans-6c"/>
      <path d="M 30.609375 48.390625 
Q 23.390625 48.390625 19.1875 42.75 
Q 14.984375 37.109375 14.984375 27.296875 
Q 14.984375 17.484375 19.15625 11.84375 
Q 23.34375 6.203125 30.609375 6.203125 
Q 37.796875 6.203125 41.984375 11.859375 
Q 46.1875 17.53125 46.1875 27.296875 
Q 46.1875 37.015625 41.984375 42.703125 
Q 37.796875 48.390625 30.609375 48.390625 
z
M 30.609375 56 
Q 42.328125 56 49.015625 48.375 
Q 55.71875 40.765625 55.71875 27.296875 
Q 55.71875 13.875 49.015625 6.21875 
Q 42.328125 -1.421875 30.609375 -1.421875 
Q 18.84375 -1.421875 12.171875 6.21875 
Q 5.515625 13.875 5.515625 27.296875 
Q 5.515625 40.765625 12.171875 48.375 
Q 18.84375 56 30.609375 56 
z
" id="DejaVuSans-6f"/>
      <path d="M 45.40625 27.984375 
Q 45.40625 37.75 41.375 43.109375 
Q 37.359375 48.484375 30.078125 48.484375 
Q 22.859375 48.484375 18.828125 43.109375 
Q 14.796875 37.75 14.796875 27.984375 
Q 14.796875 18.265625 18.828125 12.890625 
Q 22.859375 7.515625 30.078125 7.515625 
Q 37.359375 7.515625 41.375 12.890625 
Q 45.40625 18.265625 45.40625 27.984375 
z
M 54.390625 6.78125 
Q 54.390625 -7.171875 48.1875 -13.984375 
Q 42 -20.796875 29.203125 -20.796875 
Q 24.46875 -20.796875 20.265625 -20.09375 
Q 16.0625 -19.390625 12.109375 -17.921875 
L 12.109375 -9.1875 
Q 16.0625 -11.328125 19.921875 -12.34375 
Q 23.78125 -13.375 27.78125 -13.375 
Q 36.625 -13.375 41.015625 -8.765625 
Q 45.40625 -4.15625 45.40625 5.171875 
L 45.40625 9.625 
Q 42.625 4.78125 38.28125 2.390625 
Q 33.9375 0 27.875 0 
Q 17.828125 0 11.671875 7.65625 
Q 5.515625 15.328125 5.515625 27.984375 
Q 5.515625 40.671875 11.671875 48.328125 
Q 17.828125 56 27.875 56 
Q 33.9375 56 38.28125 53.609375 
Q 42.625 51.21875 45.40625 46.390625 
L 45.40625 54.6875 
L 54.390625 54.6875 
z
" id="DejaVuSans-67"/>
      <path d="M 12.40625 8.296875 
L 28.515625 8.296875 
L 28.515625 63.921875 
L 10.984375 60.40625 
L 10.984375 69.390625 
L 28.421875 72.90625 
L 38.28125 72.90625 
L 38.28125 8.296875 
L 54.390625 8.296875 
L 54.390625 0 
L 12.40625 0 
z
" id="DejaVuSans-31"/>
      <path d="M 31 75.875 
Q 24.46875 64.65625 21.28125 53.65625 
Q 18.109375 42.671875 18.109375 31.390625 
Q 18.109375 20.125 21.3125 9.0625 
Q 24.515625 -2 31 -13.1875 
L 23.1875 -13.1875 
Q 15.875 -1.703125 12.234375 9.375 
Q 8.59375 20.453125 8.59375 31.390625 
Q 8.59375 42.28125 12.203125 53.3125 
Q 15.828125 64.359375 23.1875 75.875 
z
" id="DejaVuSans-28"/>
      <path d="M 51.125 44 
L 36.921875 44 
L 32.8125 27.6875 
L 47.125 27.6875 
z
M 43.796875 71.78125 
L 38.71875 51.515625 
L 52.984375 51.515625 
L 58.109375 71.78125 
L 65.921875 71.78125 
L 60.890625 51.515625 
L 76.125 51.515625 
L 76.125 44 
L 58.984375 44 
L 54.984375 27.6875 
L 70.515625 27.6875 
L 70.515625 20.21875 
L 53.078125 20.21875 
L 48 0 
L 40.1875 0 
L 45.21875 20.21875 
L 30.90625 20.21875 
L 25.875 0 
L 18.015625 0 
L 23.09375 20.21875 
L 7.71875 20.21875 
L 7.71875 27.6875 
L 24.90625 27.6875 
L 29 44 
L 13.28125 44 
L 13.28125 51.515625 
L 30.90625 51.515625 
L 35.890625 71.78125 
z
" id="DejaVuSans-23"/>
      <path id="DejaVuSans-20"/>
      <path d="M 37.109375 75.984375 
L 37.109375 68.5 
L 28.515625 68.5 
Q 23.6875 68.5 21.796875 66.546875 
Q 19.921875 64.59375 19.921875 59.515625 
L 19.921875 54.6875 
L 34.71875 54.6875 
L 34.71875 47.703125 
L 19.921875 47.703125 
L 19.921875 0 
L 10.890625 0 
L 10.890625 47.703125 
L 2.296875 47.703125 
L 2.296875 54.6875 
L 10.890625 54.6875 
L 10.890625 58.5 
Q 10.890625 67.625 15.140625 71.796875 
Q 19.390625 75.984375 28.609375 75.984375 
z
" id="DejaVuSans-66"/>
      <path d="M 4.890625 31.390625 
L 31.203125 31.390625 
L 31.203125 23.390625 
L 4.890625 23.390625 
z
" id="DejaVuSans-2d"/>
      <path d="M 56.203125 29.59375 
L 56.203125 25.203125 
L 14.890625 25.203125 
Q 15.484375 15.921875 20.484375 11.0625 
Q 25.484375 6.203125 34.421875 6.203125 
Q 39.59375 6.203125 44.453125 7.46875 
Q 49.3125 8.734375 54.109375 11.28125 
L 54.109375 2.78125 
Q 49.265625 0.734375 44.1875 -0.34375 
Q 39.109375 -1.421875 33.890625 -1.421875 
Q 20.796875 -1.421875 13.15625 6.1875 
Q 5.515625 13.8125 5.515625 26.8125 
Q 5.515625 40.234375 12.765625 48.109375 
Q 20.015625 56 32.328125 56 
Q 43.359375 56 49.78125 48.890625 
Q 56.203125 41.796875 56.203125 29.59375 
z
M 47.21875 32.234375 
Q 47.125 39.59375 43.09375 43.984375 
Q 39.0625 48.390625 32.421875 48.390625 
Q 24.90625 48.390625 20.390625 44.140625 
Q 15.875 39.890625 15.1875 32.171875 
z
" id="DejaVuSans-65"/>
      <path d="M 2.984375 54.6875 
L 12.5 54.6875 
L 29.59375 8.796875 
L 46.6875 54.6875 
L 56.203125 54.6875 
L 35.6875 0 
L 23.484375 0 
z
" id="DejaVuSans-76"/>
      <path d="M 34.28125 27.484375 
Q 23.390625 27.484375 19.1875 25 
Q 14.984375 22.515625 14.984375 16.5 
Q 14.984375 11.71875 18.140625 8.90625 
Q 21.296875 6.109375 26.703125 6.109375 
Q 34.1875 6.109375 38.703125 11.40625 
Q 43.21875 16.703125 43.21875 25.484375 
L 43.21875 27.484375 
z
M 52.203125 31.203125 
L 52.203125 0 
L 43.21875 0 
L 43.21875 8.296875 
Q 40.140625 3.328125 35.546875 0.953125 
Q 30.953125 -1.421875 24.3125 -1.421875 
Q 15.921875 -1.421875 10.953125 3.296875 
Q 6 8.015625 6 15.921875 
Q 6 25.140625 12.171875 29.828125 
Q 18.359375 34.515625 30.609375 34.515625 
L 43.21875 34.515625 
L 43.21875 35.40625 
Q 43.21875 41.609375 39.140625 45 
Q 35.0625 48.390625 27.6875 48.390625 
Q 23 48.390625 18.546875 47.265625 
Q 14.109375 46.140625 10.015625 43.890625 
L 10.015625 52.203125 
Q 14.9375 54.109375 19.578125 55.046875 
Q 24.21875 56 28.609375 56 
Q 40.484375 56 46.34375 49.84375 
Q 52.203125 43.703125 52.203125 31.203125 
z
" id="DejaVuSans-61"/>
      <path d="M 44.28125 53.078125 
L 44.28125 44.578125 
Q 40.484375 46.53125 36.375 47.5 
Q 32.28125 48.484375 27.875 48.484375 
Q 21.1875 48.484375 17.84375 46.4375 
Q 14.5 44.390625 14.5 40.28125 
Q 14.5 37.15625 16.890625 35.375 
Q 19.28125 33.59375 26.515625 31.984375 
L 29.59375 31.296875 
Q 39.15625 29.25 43.1875 25.515625 
Q 47.21875 21.78125 47.21875 15.09375 
Q 47.21875 7.46875 41.1875 3.015625 
Q 35.15625 -1.421875 24.609375 -1.421875 
Q 20.21875 -1.421875 15.453125 -0.5625 
Q 10.6875 0.296875 5.421875 2 
L 5.421875 11.28125 
Q 10.40625 8.6875 15.234375 7.390625 
Q 20.0625 6.109375 24.8125 6.109375 
Q 31.15625 6.109375 34.5625 8.28125 
Q 37.984375 10.453125 37.984375 14.40625 
Q 37.984375 18.0625 35.515625 20.015625 
Q 33.0625 21.96875 24.703125 23.78125 
L 21.578125 24.515625 
Q 13.234375 26.265625 9.515625 29.90625 
Q 5.8125 33.546875 5.8125 39.890625 
Q 5.8125 47.609375 11.28125 51.796875 
Q 16.75 56 26.8125 56 
Q 31.78125 56 36.171875 55.265625 
Q 40.578125 54.546875 44.28125 53.078125 
z
" id="DejaVuSans-73"/>
      <path d="M 25.390625 72.90625 
L 33.6875 72.90625 
L 8.296875 -9.28125 
L 0 -9.28125 
z
" id="DejaVuSans-2f"/>
      <path d="M 45.40625 46.390625 
L 45.40625 75.984375 
L 54.390625 75.984375 
L 54.390625 0 
L 45.40625 0 
L 45.40625 8.203125 
Q 42.578125 3.328125 38.25 0.953125 
Q 33.9375 -1.421875 27.875 -1.421875 
Q 17.96875 -1.421875 11.734375 6.484375 
Q 5.515625 14.40625 5.515625 27.296875 
Q 5.515625 40.1875 11.734375 48.09375 
Q 17.96875 56 27.875 56 
Q 33.9375 56 38.25 53.625 
Q 42.578125 51.265625 45.40625 46.390625 
z
M 14.796875 27.296875 
Q 14.796875 17.390625 18.875 11.75 
Q 22.953125 6.109375 30.078125 6.109375 
Q 37.203125 6.109375 41.296875 11.75 
Q 45.40625 17.390625 45.40625 27.296875 
Q 45.40625 37.203125 41.296875 42.84375 
Q 37.203125 48.484375 30.078125 48.484375 
Q 22.953125 48.484375 18.875 42.84375 
Q 14.796875 37.203125 14.796875 27.296875 
z
" id="DejaVuSans-64"/>
      <path d="M 9.421875 54.6875 
L 18.40625 54.6875 
L 18.40625 0 
L 9.421875 0 
z
M 9.421875 75.984375 
L 18.40625 75.984375 
L 18.40625 64.59375 
L 9.421875 64.59375 
z
" id="DejaVuSans-69"/>
      <path d="M 52 44.1875 
Q 55.375 50.25 60.0625 53.125 
Q 64.75 56 71.09375 56 
Q 79.640625 56 84.28125 50.015625 
Q 88.921875 44.046875 88.921875 33.015625 
L 88.921875 0 
L 79.890625 0 
L 79.890625 32.71875 
Q 79.890625 40.578125 77.09375 44.375 
Q 74.3125 48.1875 68.609375 48.1875 
Q 61.625 48.1875 57.5625 43.546875 
Q 53.515625 38.921875 53.515625 30.90625 
L 53.515625 0 
L 44.484375 0 
L 44.484375 32.71875 
Q 44.484375 40.625 41.703125 44.40625 
Q 38.921875 48.1875 33.109375 48.1875 
Q 26.21875 48.1875 22.15625 43.53125 
Q 18.109375 38.875 18.109375 30.90625 
L 18.109375 0 
L 9.078125 0 
L 9.078125 54.6875 
L 18.109375 54.6875 
L 18.109375 46.1875 
Q 21.1875 51.21875 25.484375 53.609375 
Q 29.78125 56 35.6875 56 
Q 41.65625 56 45.828125 52.96875 
Q 50 49.953125 52 44.1875 
z
" id="DejaVuSans-6d"/>
      <path d="M 54.890625 33.015625 
L 54.890625 0 
L 45.90625 0 
L 45.90625 32.71875 
Q 45.90625 40.484375 42.875 44.328125 
Q 39.84375 48.1875 33.796875 48.1875 
Q 26.515625 48.1875 22.3125 43.546875 
Q 18.109375 38.921875 18.109375 30.90625 
L 18.109375 0 
L 9.078125 0 
L 9.078125 54.6875 
L 18.109375 54.6875 
L 18.109375 46.1875 
Q 21.34375 51.125 25.703125 53.5625 
Q 30.078125 56 35.796875 56 
Q 45.21875 56 50.046875 50.171875 
Q 54.890625 44.34375 54.890625 33.015625 
z
" id="DejaVuSans-6e"/>
      <path d="M 8.015625 75.875 
L 15.828125 75.875 
Q 23.140625 64.359375 26.78125 53.3125 
Q 30.421875 42.28125 30.421875 31.390625 
Q 30.421875 20.453125 26.78125 9.375 
Q 23.140625 -1.703125 15.828125 -13.1875 
L 8.015625 -13.1875 
Q 14.5 -2 17.703125 9.0625 
Q 20.90625 20.125 20.90625 31.390625 
Q 20.90625 42.671875 17.703125 53.65625 
Q 14.5 64.65625 8.015625 75.875 
z
" id="DejaVuSans-29"/>
     </defs>
     <g transform="translate(107.211219 338.153594)scale(0.17 -0.17)">
      <use xlink:href="#DejaVuSans-6c"/>
      <use x="27.783203" xlink:href="#DejaVuSans-6f"/>
      <use x="88.964844" xlink:href="#DejaVuSans-67"/>
      <use x="152.441406" xlink:href="#DejaVuSans-31"/>
      <use x="216.064453" xlink:href="#DejaVuSans-30"/>
      <use x="279.6875" xlink:href="#DejaVuSans-28"/>
      <use x="318.701172" xlink:href="#DejaVuSans-23"/>
      <use x="402.490234" xlink:href="#DejaVuSans-20"/>
      <use x="434.277344" xlink:href="#DejaVuSans-66"/>
      <use x="469.404297" xlink:href="#DejaVuSans-2d"/>
      <use x="505.488281" xlink:href="#DejaVuSans-65"/>
      <use x="567.011719" xlink:href="#DejaVuSans-76"/>
      <use x="626.191406" xlink:href="#DejaVuSans-61"/>
      <use x="687.470703" xlink:href="#DejaVuSans-6c"/>
      <use x="715.253906" xlink:href="#DejaVuSans-73"/>
      <use x="767.353516" xlink:href="#DejaVuSans-20"/>
      <use x="799.140625" xlink:href="#DejaVuSans-2f"/>
      <use x="832.832031" xlink:href="#DejaVuSans-20"/>
      <use x="864.619141" xlink:href="#DejaVuSans-64"/>
      <use x="928.095703" xlink:href="#DejaVuSans-69"/>
      <use x="955.878906" xlink:href="#DejaVuSans-6d"/>
      <use x="1053.291016" xlink:href="#DejaVuSans-65"/>
      <use x="1114.814453" xlink:href="#DejaVuSans-6e"/>
      <use x="1178.193359" xlink:href="#DejaVuSans-73"/>
      <use x="1230.292969" xlink:href="#DejaVuSans-69"/>
      <use x="1258.076172" xlink:href="#DejaVuSans-6f"/>
      <use x="1319.257812" xlink:href="#DejaVuSans-6e"/>
      <use x="1382.636719" xlink:href="#DejaVuSans-29"/>
     </g>
    </g>
   </g>
   <g id="matplotlib.axis_2">
    <g id="ytick_1">
     <g id="line2d_15">
      <path clip-path="url(#p507904f506)" d="M 56.12 294.88 
L 399.984 294.88 
" style="fill:none;stroke:#b0b0b0;stroke-linecap:square;stroke-width:0.8;"/>
     </g>
     <g id="line2d_16">
      <defs>
       <path d="M 0 0 
L -3.5 0 
" id="m1a1a76a6f8" style="stroke:#000000;stroke-width:0.8;"/>
      </defs>
      <g>
       <use style="stroke:#000000;stroke-width:0.8;" x="56.12" xlink:href="#m1a1a76a6f8" y="294.88"/>
      </g>
     </g>
     <g id="text_7">
      <!-- 0.0 -->
      <defs>
       <path d="M 10.6875 12.40625 
L 21 12.40625 
L 21 0 
L 10.6875 0 
z
" id="DejaVuSans-2e"/>
      </defs>
      <g transform="translate(23.675 300.95875)scale(0.16 -0.16)">
       <use xlink:href="#DejaVuSans-30"/>
       <use x="63.623047" xlink:href="#DejaVuSans-2e"/>
       <use x="95.410156" xlink:href="#DejaVuSans-30"/>
      </g>
     </g>
    </g>
    <g id="ytick_2">
     <g id="line2d_17">
      <path clip-path="url(#p507904f506)" d="M 56.12 241.406733 
L 399.984 241.406733 
" style="fill:none;stroke:#b0b0b0;stroke-linecap:square;stroke-width:0.8;"/>
     </g>
     <g id="line2d_18">
      <g>
       <use style="stroke:#000000;stroke-width:0.8;" x="56.12" xlink:href="#m1a1a76a6f8" y="241.406733"/>
      </g>
     </g>
     <g id="text_8">
      <!-- 0.2 -->
      <g transform="translate(23.675 247.485483)scale(0.16 -0.16)">
       <use xlink:href="#DejaVuSans-30"/>
       <use x="63.623047" xlink:href="#DejaVuSans-2e"/>
       <use x="95.410156" xlink:href="#DejaVuSans-32"/>
      </g>
     </g>
    </g>
    <g id="ytick_3">
     <g id="line2d_19">
      <path clip-path="url(#p507904f506)" d="M 56.12 187.933465 
L 399.984 187.933465 
" style="fill:none;stroke:#b0b0b0;stroke-linecap:square;stroke-width:0.8;"/>
     </g>
     <g id="line2d_20">
      <g>
       <use style="stroke:#000000;stroke-width:0.8;" x="56.12" xlink:href="#m1a1a76a6f8" y="187.933465"/>
      </g>
     </g>
     <g id="text_9">
      <!-- 0.4 -->
      <g transform="translate(23.675 194.012215)scale(0.16 -0.16)">
       <use xlink:href="#DejaVuSans-30"/>
       <use x="63.623047" xlink:href="#DejaVuSans-2e"/>
       <use x="95.410156" xlink:href="#DejaVuSans-34"/>
      </g>
     </g>
    </g>
    <g id="ytick_4">
     <g id="line2d_21">
      <path clip-path="url(#p507904f506)" d="M 56.12 134.460198 
L 399.984 134.460198 
" style="fill:none;stroke:#b0b0b0;stroke-linecap:square;stroke-width:0.8;"/>
     </g>
     <g id="line2d_22">
      <g>
       <use style="stroke:#000000;stroke-width:0.8;" x="56.12" xlink:href="#m1a1a76a6f8" y="134.460198"/>
      </g>
     </g>
     <g id="text_10">
      <!-- 0.6 -->
      <g transform="translate(23.675 140.538948)scale(0.16 -0.16)">
       <use xlink:href="#DejaVuSans-30"/>
       <use x="63.623047" xlink:href="#DejaVuSans-2e"/>
       <use x="95.410156" xlink:href="#DejaVuSans-36"/>
      </g>
     </g>
    </g>
    <g id="ytick_5">
     <g id="line2d_23">
      <path clip-path="url(#p507904f506)" d="M 56.12 80.986931 
L 399.984 80.986931 
" style="fill:none;stroke:#b0b0b0;stroke-linecap:square;stroke-width:0.8;"/>
     </g>
     <g id="line2d_24">
      <g>
       <use style="stroke:#000000;stroke-width:0.8;" x="56.12" xlink:href="#m1a1a76a6f8" y="80.986931"/>
      </g>
     </g>
     <g id="text_11">
      <!-- 0.8 -->
      <g transform="translate(23.675 87.065681)scale(0.16 -0.16)">
       <use xlink:href="#DejaVuSans-30"/>
       <use x="63.623047" xlink:href="#DejaVuSans-2e"/>
       <use x="95.410156" xlink:href="#DejaVuSans-38"/>
      </g>
     </g>
    </g>
    <g id="ytick_6">
     <g id="line2d_25">
      <path clip-path="url(#p507904f506)" d="M 56.12 27.513663 
L 399.984 27.513663 
" style="fill:none;stroke:#b0b0b0;stroke-linecap:square;stroke-width:0.8;"/>
     </g>
     <g id="line2d_26">
      <g>
       <use style="stroke:#000000;stroke-width:0.8;" x="56.12" xlink:href="#m1a1a76a6f8" y="27.513663"/>
      </g>
     </g>
     <g id="text_12">
      <!-- 1.0 -->
      <g transform="translate(23.675 33.592413)scale(0.16 -0.16)">
       <use xlink:href="#DejaVuSans-31"/>
       <use x="63.623047" xlink:href="#DejaVuSans-2e"/>
       <use x="95.410156" xlink:href="#DejaVuSans-30"/>
      </g>
     </g>
    </g>
    <g id="text_13">
     <!-- Fraction of function,target pairs -->
     <defs>
      <path d="M 9.8125 72.90625 
L 51.703125 72.90625 
L 51.703125 64.59375 
L 19.671875 64.59375 
L 19.671875 43.109375 
L 48.578125 43.109375 
L 48.578125 34.8125 
L 19.671875 34.8125 
L 19.671875 0 
L 9.8125 0 
z
" id="DejaVuSans-46"/>
      <path d="M 41.109375 46.296875 
Q 39.59375 47.171875 37.8125 47.578125 
Q 36.03125 48 33.890625 48 
Q 26.265625 48 22.1875 43.046875 
Q 18.109375 38.09375 18.109375 28.8125 
L 18.109375 0 
L 9.078125 0 
L 9.078125 54.6875 
L 18.109375 54.6875 
L 18.109375 46.1875 
Q 20.953125 51.171875 25.484375 53.578125 
Q 30.03125 56 36.53125 56 
Q 37.453125 56 38.578125 55.875 
Q 39.703125 55.765625 41.0625 55.515625 
z
" id="DejaVuSans-72"/>
      <path d="M 48.78125 52.59375 
L 48.78125 44.1875 
Q 44.96875 46.296875 41.140625 47.34375 
Q 37.3125 48.390625 33.40625 48.390625 
Q 24.65625 48.390625 19.8125 42.84375 
Q 14.984375 37.3125 14.984375 27.296875 
Q 14.984375 17.28125 19.8125 11.734375 
Q 24.65625 6.203125 33.40625 6.203125 
Q 37.3125 6.203125 41.140625 7.25 
Q 44.96875 8.296875 48.78125 10.40625 
L 48.78125 2.09375 
Q 45.015625 0.34375 40.984375 -0.53125 
Q 36.96875 -1.421875 32.421875 -1.421875 
Q 20.0625 -1.421875 12.78125 6.34375 
Q 5.515625 14.109375 5.515625 27.296875 
Q 5.515625 40.671875 12.859375 48.328125 
Q 20.21875 56 33.015625 56 
Q 37.15625 56 41.109375 55.140625 
Q 45.0625 54.296875 48.78125 52.59375 
z
" id="DejaVuSans-63"/>
      <path d="M 18.3125 70.21875 
L 18.3125 54.6875 
L 36.8125 54.6875 
L 36.8125 47.703125 
L 18.3125 47.703125 
L 18.3125 18.015625 
Q 18.3125 11.328125 20.140625 9.421875 
Q 21.96875 7.515625 27.59375 7.515625 
L 36.8125 7.515625 
L 36.8125 0 
L 27.59375 0 
Q 17.1875 0 13.234375 3.875 
Q 9.28125 7.765625 9.28125 18.015625 
L 9.28125 47.703125 
L 2.6875 47.703125 
L 2.6875 54.6875 
L 9.28125 54.6875 
L 9.28125 70.21875 
z
" id="DejaVuSans-74"/>
      <path d="M 8.5 21.578125 
L 8.5 54.6875 
L 17.484375 54.6875 
L 17.484375 21.921875 
Q 17.484375 14.15625 20.5 10.265625 
Q 23.53125 6.390625 29.59375 6.390625 
Q 36.859375 6.390625 41.078125 11.03125 
Q 45.3125 15.671875 45.3125 23.6875 
L 45.3125 54.6875 
L 54.296875 54.6875 
L 54.296875 0 
L 45.3125 0 
L 45.3125 8.40625 
Q 42.046875 3.421875 37.71875 1 
Q 33.40625 -1.421875 27.6875 -1.421875 
Q 18.265625 -1.421875 13.375 4.4375 
Q 8.5 10.296875 8.5 21.578125 
z
M 31.109375 56 
z
" id="DejaVuSans-75"/>
      <path d="M 11.71875 12.40625 
L 22.015625 12.40625 
L 22.015625 4 
L 14.015625 -11.625 
L 7.71875 -11.625 
L 11.71875 4 
z
" id="DejaVuSans-2c"/>
      <path d="M 18.109375 8.203125 
L 18.109375 -20.796875 
L 9.078125 -20.796875 
L 9.078125 54.6875 
L 18.109375 54.6875 
L 18.109375 46.390625 
Q 20.953125 51.265625 25.265625 53.625 
Q 29.59375 56 35.59375 56 
Q 45.5625 56 51.78125 48.09375 
Q 58.015625 40.1875 58.015625 27.296875 
Q 58.015625 14.40625 51.78125 6.484375 
Q 45.5625 -1.421875 35.59375 -1.421875 
Q 29.59375 -1.421875 25.265625 0.953125 
Q 20.953125 3.328125 18.109375 8.203125 
z
M 48.6875 27.296875 
Q 48.6875 37.203125 44.609375 42.84375 
Q 40.53125 48.484375 33.40625 48.484375 
Q 26.265625 48.484375 22.1875 42.84375 
Q 18.109375 37.203125 18.109375 27.296875 
Q 18.109375 17.390625 22.1875 11.75 
Q 26.265625 6.109375 33.40625 6.109375 
Q 40.53125 6.109375 44.609375 11.75 
Q 48.6875 17.390625 48.6875 27.296875 
z
" id="DejaVuSans-70"/>
     </defs>
     <g transform="translate(16.139531 294.999375)rotate(-90)scale(0.17 -0.17)">
      <use xlink:href="#DejaVuSans-46"/>
      <use x="57.410156" xlink:href="#DejaVuSans-72"/>
      <use x="98.523438" xlink:href="#DejaVuSans-61"/>
      <use x="159.802734" xlink:href="#DejaVuSans-63"/>
      <use x="214.783203" xlink:href="#DejaVuSans-74"/>
      <use x="253.992188" xlink:href="#DejaVuSans-69"/>
      <use x="281.775391" xlink:href="#DejaVuSans-6f"/>
      <use x="342.957031" xlink:href="#DejaVuSans-6e"/>
      <use x="406.335938" xlink:href="#DejaVuSans-20"/>
      <use x="438.123047" xlink:href="#DejaVuSans-6f"/>
      <use x="499.304688" xlink:href="#DejaVuSans-66"/>
      <use x="534.509766" xlink:href="#DejaVuSans-20"/>
      <use x="566.296875" xlink:href="#DejaVuSans-66"/>
      <use x="601.501953" xlink:href="#DejaVuSans-75"/>
      <use x="664.880859" xlink:href="#DejaVuSans-6e"/>
      <use x="728.259766" xlink:href="#DejaVuSans-63"/>
      <use x="783.240234" xlink:href="#DejaVuSans-74"/>
      <use x="822.449219" xlink:href="#DejaVuSans-69"/>
      <use x="850.232422" xlink:href="#DejaVuSans-6f"/>
      <use x="911.414062" xlink:href="#DejaVuSans-6e"/>
      <use x="974.792969" xlink:href="#DejaVuSans-2c"/>
      <use x="1006.580078" xlink:href="#DejaVuSans-74"/>
      <use x="1045.789062" xlink:href="#DejaVuSans-61"/>
      <use x="1107.068359" xlink:href="#DejaVuSans-72"/>
      <use x="1148.166016" xlink:href="#DejaVuSans-67"/>
      <use x="1211.642578" xlink:href="#DejaVuSans-65"/>
      <use x="1273.166016" xlink:href="#DejaVuSans-74"/>
      <use x="1312.375" xlink:href="#DejaVuSans-20"/>
      <use x="1344.162109" xlink:href="#DejaVuSans-70"/>
      <use x="1407.638672" xlink:href="#DejaVuSans-61"/>
      <use x="1468.917969" xlink:href="#DejaVuSans-69"/>
      <use x="1496.701172" xlink:href="#DejaVuSans-72"/>
      <use x="1537.814453" xlink:href="#DejaVuSans-73"/>
     </g>
    </g>
   </g>
   <g id="line2d_27">
    <defs>
     <path d="M 0 1.5 
C 0.397805 1.5 0.77937 1.341951 1.06066 1.06066 
C 1.341951 0.77937 1.5 0.397805 1.5 0 
C 1.5 -0.397805 1.341951 -0.77937 1.06066 -1.06066 
C 0.77937 -1.341951 0.397805 -1.5 0 -1.5 
C -0.397805 -1.5 -0.77937 -1.341951 -1.06066 -1.06066 
C -1.341951 -0.77937 -1.5 -0.397805 -1.5 0 
C -1.5 0.397805 -1.341951 0.77937 -1.06066 1.06066 
C -0.77937 1.341951 -0.397805 1.5 0 1.5 
z
" id="m9b229aa606" style="stroke:#f5deb3;"/>
    </defs>
    <g>
     <use style="fill:#f5deb3;stroke:#f5deb3;" x="191.200418" xlink:href="#m9b229aa606" y="27.513663"/>
     <use style="fill:#f5deb3;stroke:#f5deb3;" x="191.200418" xlink:href="#m9b229aa606" y="27.513663"/>
    </g>
   </g>
   <g id="line2d_28">
    <defs>
     <path d="M 0 1.5 
C 0.397805 1.5 0.77937 1.341951 1.06066 1.06066 
C 1.341951 0.77937 1.5 0.397805 1.5 0 
C 1.5 -0.397805 1.341951 -0.77937 1.06066 -1.06066 
C 0.77937 -1.341951 0.397805 -1.5 0 -1.5 
C -0.397805 -1.5 -0.77937 -1.341951 -1.06066 -1.06066 
C -1.341951 -0.77937 -1.5 -0.397805 -1.5 0 
C -1.5 0.397805 -1.341951 0.77937 -1.06066 1.06066 
C -0.77937 1.341951 -0.397805 1.5 0 1.5 
z
" id="maec8eb4554" style="stroke:#ff00ff;"/>
    </defs>
    <g>
     <use style="fill:#ff00ff;stroke:#ff00ff;" x="238.609581" xlink:href="#maec8eb4554" y="27.513663"/>
     <use style="fill:#ff00ff;stroke:#ff00ff;" x="238.609581" xlink:href="#maec8eb4554" y="27.513663"/>
    </g>
   </g>
   <g id="line2d_29">
    <path d="M -1 289.637523 
L 136.861612 289.637523 
L 136.861612 289.113275 
L 137.073054 289.113275 
L 137.139085 287.016284 
L 140.280425 287.016284 
L 140.315916 285.443541 
L 142.01188 285.443541 
L 142.01188 284.395046 
L 144.739374 284.395046 
L 144.739374 283.870798 
L 146.988406 283.870798 
L 146.988406 282.822302 
L 147.833352 282.822302 
L 147.833352 282.298055 
L 148.167398 282.298055 
L 148.167398 281.773807 
L 149.155452 281.773807 
L 149.155452 281.249559 
L 149.536823 281.249559 
L 149.536823 280.725312 
L 149.756068 280.725312 
L 149.756068 279.676816 
L 150.033125 279.676816 
L 150.044115 278.628321 
L 151.40602 278.628321 
L 151.40602 278.104073 
L 152.280054 278.104073 
L 152.280054 277.579825 
L 152.96257 277.579825 
L 152.96257 277.055578 
L 153.373338 277.055578 
L 153.459133 276.007082 
L 155.309341 276.007082 
L 155.309341 275.482834 
L 155.635231 275.482834 
L 155.635231 274.958587 
L 156.00952 274.958587 
L 156.065097 273.385844 
L 158.039126 273.385844 
L 158.089675 270.764605 
L 158.402282 270.764605 
L 158.423672 269.191862 
L 159.10205 269.191862 
L 159.10205 268.143366 
L 160.634635 268.143366 
L 160.634635 267.094871 
L 160.795158 267.094871 
L 160.795158 266.570623 
L 161.051044 266.570623 
L 161.051044 265.522128 
L 161.330757 265.522128 
L 161.348801 264.473632 
L 161.969619 264.473632 
L 161.969619 263.949385 
L 162.47661 263.949385 
L 162.47661 263.425137 
L 163.090464 263.425137 
L 163.090464 262.376641 
L 163.623395 262.376641 
L 163.623395 261.852394 
L 164.406179 261.852394 
L 164.406179 261.328146 
L 165.367362 261.328146 
L 165.439352 259.755403 
L 165.655011 259.755403 
L 165.671999 258.18266 
L 166.059626 258.18266 
L 166.059626 257.658412 
L 166.561137 257.658412 
L 166.561137 257.134164 
L 166.960301 257.134164 
L 167.017064 255.037173 
L 167.639277 255.037173 
L 167.639277 254.512926 
L 167.879268 254.512926 
L 167.879268 253.988678 
L 168.276615 253.988678 
L 168.276615 253.46443 
L 168.410619 253.46443 
L 168.410619 252.940182 
L 169.786532 252.940182 
L 169.838185 251.891687 
L 170.185828 251.891687 
L 170.196615 250.843192 
L 170.720361 250.843192 
L 170.720361 250.318944 
L 171.062131 250.318944 
L 171.062131 249.794696 
L 172.540835 249.794696 
L 172.540835 249.270448 
L 172.857835 249.270448 
L 172.857835 248.221953 
L 173.180079 248.221953 
L 173.180079 247.697705 
L 173.327851 247.697705 
L 173.327851 247.173458 
L 174.910135 247.173458 
L 174.910135 246.124962 
L 175.031831 246.124962 
L 175.031831 245.076467 
L 175.201111 245.076467 
L 175.201111 244.552219 
L 175.461774 244.552219 
L 175.461774 243.503724 
L 176.507983 243.503724 
L 176.507983 242.979476 
L 176.971257 242.979476 
L 176.971257 242.455228 
L 177.364482 242.455228 
L 177.364482 240.882485 
L 177.699086 240.882485 
L 177.699086 240.358237 
L 178.509762 240.358237 
L 178.509762 239.83399 
L 178.848432 239.83399 
L 178.848432 239.309742 
L 179.494176 239.309742 
L 179.494176 238.785494 
L 180.109223 238.785494 
L 180.109223 237.736999 
L 181.482666 237.736999 
L 181.573727 236.164255 
L 181.949858 236.164255 
L 181.949858 235.640008 
L 182.480462 235.640008 
L 182.480462 235.11576 
L 183.268409 235.11576 
L 183.268409 234.591512 
L 183.927056 234.591512 
L 183.927056 234.067265 
L 184.094115 234.067265 
L 184.094115 233.018769 
L 185.341601 233.018769 
L 185.341601 232.494521 
L 186.43816 232.494521 
L 186.43816 231.446026 
L 187.190779 231.446026 
L 187.190779 229.873283 
L 187.989305 229.873283 
L 187.989305 229.349035 
L 188.362553 229.349035 
L 188.362553 228.824787 
L 189.045039 228.824787 
L 189.045039 228.30054 
L 190.211696 228.30054 
L 190.211696 227.252044 
L 191.202092 227.252044 
L 191.25825 225.679301 
L 191.572731 225.679301 
L 191.572731 225.155053 
L 191.778265 225.155053 
L 191.778265 224.630806 
L 192.392565 224.630806 
L 192.392565 224.106558 
L 192.591523 224.106558 
L 192.591523 223.58231 
L 192.741121 223.58231 
L 192.741121 223.058063 
L 192.883207 223.058063 
L 192.883207 222.533815 
L 193.031656 222.533815 
L 193.031656 222.009567 
L 193.413029 222.009567 
L 193.413029 221.485319 
L 193.926308 221.485319 
L 193.926308 220.961072 
L 194.055568 220.961072 
L 194.055568 220.436824 
L 194.58994 220.436824 
L 194.634291 219.388328 
L 194.842698 219.388328 
L 194.842698 218.339833 
L 195.036291 218.339833 
L 195.068146 216.76709 
L 195.155774 216.76709 
L 195.155774 215.718594 
L 195.901167 215.718594 
L 195.951542 214.670099 
L 196.501196 214.670099 
L 196.501196 213.621604 
L 196.847947 213.621604 
L 196.847947 213.097356 
L 197.04206 213.097356 
L 197.04206 212.573108 
L 197.229881 212.573108 
L 197.229881 212.04886 
L 197.825259 212.04886 
L 197.935972 209.95187 
L 197.959499 209.95187 
L 197.959499 209.427622 
L 198.217862 209.427622 
L 198.294078 207.854879 
L 198.572608 207.854879 
L 198.58035 206.282136 
L 198.959905 206.282136 
L 198.959905 205.757888 
L 199.463204 205.757888 
L 199.555344 204.185145 
L 199.625871 204.185145 
L 199.649964 203.136649 
L 199.817884 203.136649 
L 199.817884 202.612401 
L 200.171465 202.612401 
L 200.199571 201.563906 
L 200.320704 201.563906 
L 200.356927 200.515411 
L 200.607603 200.515411 
L 200.607603 199.991163 
L 201.097786 199.991163 
L 201.097786 199.466915 
L 201.304129 199.466915 
L 201.306362 197.894172 
L 201.660381 197.894172 
L 201.660381 197.369924 
L 201.83623 197.369924 
L 201.83623 196.845677 
L 202.036629 196.845677 
L 202.036629 195.797181 
L 202.429511 195.797181 
L 202.429511 194.748686 
L 202.541594 194.748686 
L 202.541594 193.70019 
L 202.708191 193.70019 
L 202.788285 192.651695 
L 202.842921 192.651695 
L 202.842921 192.127447 
L 203.16397 192.127447 
L 203.255522 190.030456 
L 203.569032 190.030456 
L 203.670711 187.933465 
L 203.948904 187.933465 
L 204.024867 185.836474 
L 204.151284 185.836474 
L 204.251471 183.739484 
L 204.264952 183.739484 
L 204.264952 182.690988 
L 204.377874 182.690988 
L 204.451351 180.593997 
L 204.574915 180.593997 
L 204.574915 180.06975 
L 204.746427 180.06975 
L 204.840868 179.021254 
L 204.950687 179.021254 
L 205.060183 177.448511 
L 205.107175 177.448511 
L 205.107175 176.924263 
L 205.26654 176.924263 
L 205.341036 175.875768 
L 205.426347 175.875768 
L 205.484543 173.778777 
L 205.581707 173.778777 
L 205.581707 172.730281 
L 205.796065 172.730281 
L 205.807816 171.681786 
L 205.918058 171.681786 
L 205.98646 170.633291 
L 206.097539 170.633291 
L 206.135039 169.584795 
L 206.265545 169.584795 
L 206.265545 169.060547 
L 206.503341 169.060547 
L 206.613672 168.012052 
L 206.960322 168.012052 
L 207.012894 166.439309 
L 207.176933 166.439309 
L 207.176933 165.390813 
L 207.313912 165.390813 
L 207.38327 163.81807 
L 207.434046 163.81807 
L 207.434046 163.293823 
L 207.589551 163.293823 
L 207.613946 161.721079 
L 207.83425 161.721079 
L 207.83425 160.672584 
L 207.950754 160.672584 
L 208.047304 159.099841 
L 208.117594 159.099841 
L 208.117594 158.575593 
L 208.438077 158.575593 
L 208.453254 157.00285 
L 208.551125 157.00285 
L 208.551125 156.478602 
L 208.770436 156.478602 
L 208.770436 155.954354 
L 209.273556 155.954354 
L 209.315084 154.381611 
L 209.509685 154.381611 
L 209.560268 152.28462 
L 209.647874 152.28462 
L 209.700338 151.236125 
L 209.919387 151.236125 
L 209.919387 150.18763 
L 210.030537 150.18763 
L 210.030537 149.663382 
L 210.189736 149.663382 
L 210.189736 149.139134 
L 210.402077 149.139134 
L 210.425862 148.090639 
L 210.533471 148.090639 
L 210.554738 146.517896 
L 210.660087 146.517896 
L 210.660087 145.993648 
L 210.819535 145.993648 
L 210.9286 144.420905 
L 210.951935 144.420905 
L 210.95321 143.372409 
L 211.070667 143.372409 
L 211.070667 142.848162 
L 211.186648 142.848162 
L 211.186648 142.323914 
L 211.469873 142.323914 
L 211.469873 141.799666 
L 211.627641 141.799666 
L 211.716278 140.226923 
L 212.014023 140.226923 
L 212.051635 138.129932 
L 212.173136 138.129932 
L 212.173136 137.605684 
L 212.342309 137.605684 
L 212.342309 137.081437 
L 212.543086 137.081437 
L 212.596514 134.984446 
L 212.654924 134.984446 
L 212.758486 133.411703 
L 212.94456 133.411703 
L 213.053215 132.363207 
L 213.127426 132.363207 
L 213.221535 130.266216 
L 213.326286 130.266216 
L 213.422445 128.693473 
L 213.447871 128.693473 
L 213.447871 128.169225 
L 213.569105 128.169225 
L 213.569105 127.644978 
L 213.718822 127.644978 
L 213.72045 125.547987 
L 213.874824 125.547987 
L 213.874824 125.023739 
L 214.162825 125.023739 
L 214.266003 123.975244 
L 214.299923 123.975244 
L 214.299923 123.450996 
L 214.570453 123.450996 
L 214.659793 121.878253 
L 214.821404 121.878253 
L 214.890071 120.829757 
L 214.961916 120.829757 
L 215.061637 119.781262 
L 215.092606 119.781262 
L 215.13102 116.635776 
L 215.236272 116.635776 
L 215.316459 113.490289 
L 215.473843 113.490289 
L 215.583924 111.917546 
L 215.616155 111.917546 
L 215.632511 110.344803 
L 215.937297 110.344803 
L 215.999917 109.296308 
L 216.051018 109.296308 
L 216.158853 106.675069 
L 216.191318 106.675069 
L 216.201853 105.626573 
L 216.487179 105.626573 
L 216.524257 103.005335 
L 216.692223 103.005335 
L 216.791812 101.432592 
L 216.834091 101.432592 
L 216.883568 97.762858 
L 217.049532 97.762858 
L 217.088023 96.190115 
L 217.162785 96.190115 
L 217.162785 95.141619 
L 217.27526 95.141619 
L 217.374356 93.568876 
L 217.388393 93.568876 
L 217.388393 93.044628 
L 217.536907 93.044628 
L 217.61577 91.471885 
L 217.714938 91.471885 
L 217.714938 90.947637 
L 218.07189 90.947637 
L 218.07189 89.899142 
L 218.233996 89.899142 
L 218.317007 88.850646 
L 218.349173 88.850646 
L 218.448543 86.753656 
L 218.537331 86.753656 
L 218.563595 85.180912 
L 218.999964 85.180912 
L 219.064292 84.132417 
L 219.169614 84.132417 
L 219.253979 82.035426 
L 219.377918 82.035426 
L 219.377918 80.986931 
L 219.523481 80.986931 
L 219.523481 80.462683 
L 219.753864 80.462683 
L 219.753864 79.414188 
L 220.071884 79.414188 
L 220.071884 78.365692 
L 220.264074 78.365692 
L 220.293882 77.317197 
L 220.460927 77.317197 
L 220.535038 75.744454 
L 220.846598 75.744454 
L 220.914873 74.17171 
L 221.188955 74.17171 
L 221.252969 72.598967 
L 221.407093 72.598967 
L 221.414845 71.550472 
L 221.553369 71.550472 
L 221.663391 68.404985 
L 221.806494 68.404985 
L 221.879432 66.832242 
L 221.924995 66.832242 
L 221.992149 64.211004 
L 222.048065 64.211004 
L 222.089291 62.638261 
L 222.228552 62.638261 
L 222.228552 62.114013 
L 222.416771 62.114013 
L 222.416771 61.589765 
L 222.556284 61.589765 
L 222.556284 61.065517 
L 222.673592 61.065517 
L 222.774241 59.492774 
L 223.539632 59.492774 
L 223.556516 57.395783 
L 223.791651 57.395783 
L 223.791651 56.347288 
L 224.050356 56.347288 
L 224.125931 55.298792 
L 224.462779 55.298792 
L 224.462779 53.726049 
L 224.799715 53.726049 
L 224.907539 52.153306 
L 225.128897 52.153306 
L 225.128897 51.629058 
L 225.633944 51.629058 
L 225.636252 50.580563 
L 227.229037 50.580563 
L 227.229037 50.056315 
L 228.092048 50.056315 
L 228.092048 49.532068 
L 228.505192 49.532068 
L 228.571398 47.959324 
L 228.934872 47.959324 
L 229.02401 46.386581 
L 229.48681 46.386581 
L 229.48681 45.862334 
L 229.635261 45.862334 
L 229.635261 45.338086 
L 230.40897 45.338086 
L 230.40897 44.813838 
L 230.718049 44.813838 
L 230.718049 43.765343 
L 232.04358 43.765343 
L 232.108404 42.192599 
L 232.31131 42.192599 
L 232.39934 41.144104 
L 232.559452 41.144104 
L 232.559452 40.095609 
L 232.817739 40.095609 
L 232.817739 39.571361 
L 232.932264 39.571361 
L 233.017255 37.998618 
L 233.28786 37.998618 
L 233.28786 37.47437 
L 233.417395 37.47437 
L 233.417395 36.950122 
L 233.677574 36.950122 
L 233.677574 36.425875 
L 234.031831 36.425875 
L 234.031831 35.377379 
L 234.150981 35.377379 
L 234.150981 34.853131 
L 234.426418 34.853131 
L 234.426418 34.328884 
L 234.560487 34.328884 
L 234.560487 33.804636 
L 234.778705 33.804636 
L 234.778705 33.280388 
L 235.144517 33.280388 
L 235.22319 32.231893 
L 235.510579 32.231893 
L 235.510579 31.707645 
L 237.328901 31.707645 
L 237.328901 31.183397 
L 237.669797 31.183397 
L 237.669797 30.65915 
L 238.007773 30.65915 
L 238.007773 29.610654 
L 238.609581 29.610654 
L 238.609581 27.513663 
L 333.429677 27.513663 
L 333.429677 27.513663 
" style="fill:none;stroke:#ff00ff;stroke-linecap:square;stroke-width:1.5;"/>
   </g>
   <g id="line2d_30">
    <defs>
     <path d="M -0 8.485281 
L 5.091169 0 
L 0 -8.485281 
L -5.091169 -0 
z
" id="mbc81a469f2" style="stroke:#ff00ff;stroke-linejoin:miter;stroke-width:1.5;"/>
    </defs>
    <g>
     <use style="fill-opacity:0;stroke:#ff00ff;stroke-linejoin:miter;stroke-width:1.5;" x="147.833352" xlink:href="#mbc81a469f2" y="282.822302"/>
     <use style="fill-opacity:0;stroke:#ff00ff;stroke-linejoin:miter;stroke-width:1.5;" x="203.569032" xlink:href="#mbc81a469f2" y="189.506209"/>
     <use style="fill-opacity:0;stroke:#ff00ff;stroke-linejoin:miter;stroke-width:1.5;" x="225.128897" xlink:href="#mbc81a469f2" y="52.153306"/>
     <use style="fill-opacity:0;stroke:#ff00ff;stroke-linejoin:miter;stroke-width:1.5;" x="238.609581" xlink:href="#mbc81a469f2" y="27.513663"/>
     <use style="fill-opacity:0;stroke:#ff00ff;stroke-linejoin:miter;stroke-width:1.5;" x="238.609581" xlink:href="#mbc81a469f2" y="27.513663"/>
     <use style="fill-opacity:0;stroke:#ff00ff;stroke-linejoin:miter;stroke-width:1.5;" x="333.429677" xlink:href="#mbc81a469f2" y="27.513663"/>
    </g>
   </g>
   <g id="line2d_31">
    <path style="fill:none;stroke:#ff00ff;stroke-linecap:square;stroke-width:1.5;"/>
    <g/>
   </g>
   <g id="line2d_32">
    <defs>
     <path d="M 0 1.5 
C 0.397805 1.5 0.77937 1.341951 1.06066 1.06066 
C 1.341951 0.77937 1.5 0.397805 1.5 0 
C 1.5 -0.397805 1.341951 -0.77937 1.06066 -1.06066 
C 0.77937 -1.341951 0.397805 -1.5 0 -1.5 
C -0.397805 -1.5 -0.77937 -1.341951 -1.06066 -1.06066 
C -1.341951 -0.77937 -1.5 -0.397805 -1.5 0 
C -1.5 0.397805 -1.341951 0.77937 -1.06066 1.06066 
C -0.77937 1.341951 -0.397805 1.5 0 1.5 
z
" id="m96e1a68020" style="stroke:#ffa500;"/>
    </defs>
    <g>
     <use style="fill:#ffa500;stroke:#ffa500;" x="267.964702" xlink:href="#m96e1a68020" y="27.513663"/>
     <use style="fill:#ffa500;stroke:#ffa500;" x="267.964702" xlink:href="#m96e1a68020" y="27.513663"/>
    </g>
   </g>
   <g id="line2d_33">
    <path d="M -1 289.637523 
L 104.035746 289.637523 
L 104.035746 288.589027 
L 106.481839 288.589027 
L 106.481839 288.06478 
L 108.065011 288.06478 
L 108.065011 287.016284 
L 109.83987 287.016284 
L 109.83987 286.492036 
L 111.500328 286.492036 
L 111.500328 285.443541 
L 111.807261 285.443541 
L 111.807261 284.919293 
L 112.888036 284.919293 
L 112.888036 283.34655 
L 113.465487 283.34655 
L 113.465487 282.822302 
L 116.040718 282.822302 
L 116.040718 282.298055 
L 116.289973 282.298055 
L 116.289973 281.773807 
L 116.701777 281.773807 
L 116.701777 281.249559 
L 116.979281 281.249559 
L 117.079092 280.201064 
L 118.187136 280.201064 
L 118.23373 279.152568 
L 118.533555 279.152568 
L 118.533555 278.628321 
L 118.895538 278.628321 
L 118.895538 278.104073 
L 119.261023 278.104073 
L 119.359368 276.007082 
L 120.282131 276.007082 
L 120.282131 274.434339 
L 121.138271 274.434339 
L 121.138271 273.910091 
L 121.916296 273.910091 
L 121.916296 273.385844 
L 124.04262 273.385844 
L 124.108889 272.337348 
L 124.232458 272.337348 
L 124.232458 271.8131 
L 125.057809 271.8131 
L 125.057809 271.288853 
L 125.596949 271.288853 
L 125.596949 270.240357 
L 125.822935 270.240357 
L 125.822935 269.716109 
L 127.008452 269.716109 
L 127.008452 269.191862 
L 127.625918 269.191862 
L 127.625918 268.667614 
L 128.454753 268.667614 
L 128.454753 267.619119 
L 130.674904 267.619119 
L 130.674904 266.046375 
L 133.220273 266.046375 
L 133.220273 265.522128 
L 136.659503 265.522128 
L 136.659503 264.473632 
L 137.564107 264.473632 
L 137.564107 263.425137 
L 138.427112 263.425137 
L 138.427112 262.900889 
L 138.740779 262.900889 
L 138.740779 262.376641 
L 138.961875 262.376641 
L 138.961875 261.328146 
L 139.675645 261.328146 
L 139.675645 260.279651 
L 140.688944 260.279651 
L 140.688944 259.755403 
L 142.00896 259.755403 
L 142.00896 258.18266 
L 145.656601 258.18266 
L 145.656601 257.658412 
L 146.907297 257.658412 
L 146.907297 256.609917 
L 151.68125 256.609917 
L 151.68125 256.085669 
L 152.154176 256.085669 
L 152.154176 255.561421 
L 153.027354 255.561421 
L 153.027354 255.037173 
L 154.873751 255.037173 
L 154.873751 254.512926 
L 157.100467 254.512926 
L 157.100467 253.46443 
L 161.894381 253.46443 
L 161.894381 252.415935 
L 162.14723 252.415935 
L 162.14723 251.891687 
L 162.814627 251.891687 
L 162.814627 251.367439 
L 163.446179 251.367439 
L 163.446179 250.843192 
L 165.615058 250.843192 
L 165.615058 249.794696 
L 166.899226 249.794696 
L 166.899226 248.746201 
L 167.233497 248.746201 
L 167.233497 248.221953 
L 167.954432 248.221953 
L 168.052429 247.173458 
L 168.604085 247.173458 
L 168.684213 246.124962 
L 169.617139 246.124962 
L 169.617139 245.600714 
L 170.36492 245.600714 
L 170.4479 242.979476 
L 171.305431 242.979476 
L 171.305431 242.455228 
L 172.338074 242.455228 
L 172.338074 241.93098 
L 172.711347 241.93098 
L 172.711347 241.406733 
L 173.157636 241.406733 
L 173.157636 240.882485 
L 173.899243 240.882485 
L 173.899243 239.83399 
L 174.241354 239.83399 
L 174.241354 238.261246 
L 174.36741 238.261246 
L 174.36741 237.736999 
L 174.685566 237.736999 
L 174.685566 236.688503 
L 174.842248 236.688503 
L 174.842248 236.164255 
L 174.996657 236.164255 
L 174.996657 235.640008 
L 175.947588 235.640008 
L 175.947588 235.11576 
L 176.17803 235.11576 
L 176.17803 234.591512 
L 176.36463 234.591512 
L 176.36463 234.067265 
L 176.936768 234.067265 
L 176.936768 233.543017 
L 178.085174 233.543017 
L 178.152143 232.494521 
L 178.356094 232.494521 
L 178.356094 231.970274 
L 178.608549 231.970274 
L 178.608549 230.921778 
L 178.958605 230.921778 
L 178.958605 230.397531 
L 180.017747 230.397531 
L 180.017747 229.873283 
L 180.46378 229.873283 
L 180.46378 229.349035 
L 181.431638 229.349035 
L 181.431638 228.824787 
L 182.076086 228.824787 
L 182.076086 228.30054 
L 182.460717 228.30054 
L 182.460717 227.776292 
L 192.032813 227.776292 
L 192.032813 226.727797 
L 192.169929 226.727797 
L 192.169929 226.203549 
L 192.376936 226.203549 
L 192.434692 225.155053 
L 192.634244 225.155053 
L 192.634244 224.106558 
L 200.689199 224.106558 
L 200.794584 219.912576 
L 201.051762 219.912576 
L 201.051762 219.388328 
L 202.449374 219.388328 
L 202.449374 218.864081 
L 202.617034 218.864081 
L 202.617034 218.339833 
L 202.804156 218.339833 
L 202.804156 217.815585 
L 203.082673 217.815585 
L 203.082673 217.291338 
L 209.367465 217.291338 
L 209.393305 215.718594 
L 209.490555 215.718594 
L 209.490555 215.194347 
L 209.664941 215.194347 
L 209.761753 213.621604 
L 209.797577 213.621604 
L 209.896472 211.000365 
L 209.960287 211.000365 
L 210.065694 209.427622 
L 210.100947 209.427622 
L 210.100947 208.903374 
L 210.224847 208.903374 
L 210.257232 207.330631 
L 210.412384 207.330631 
L 210.482616 206.282136 
L 210.588733 206.282136 
L 210.66187 204.185145 
L 210.70444 204.185145 
L 210.70444 203.136649 
L 210.874741 203.136649 
L 210.952041 200.515411 
L 211.093389 200.515411 
L 211.093389 199.466915 
L 211.270229 199.466915 
L 211.319071 198.41842 
L 211.491816 198.41842 
L 211.491816 197.894172 
L 211.937748 197.894172 
L 211.937748 197.369924 
L 216.281531 197.369924 
L 216.281531 196.845677 
L 219.897304 196.845677 
L 219.897304 196.321429 
L 220.040624 196.321429 
L 220.078479 195.272933 
L 220.210755 195.272933 
L 220.270132 191.603199 
L 220.411036 191.603199 
L 220.455547 190.554704 
L 220.568754 190.554704 
L 220.615193 187.933465 
L 220.68807 187.933465 
L 220.780632 184.787979 
L 220.864133 184.787979 
L 220.864133 183.739484 
L 222.752987 183.739484 
L 222.752987 183.215236 
L 228.98666 183.215236 
L 229.051765 181.118245 
L 229.135428 181.118245 
L 229.173359 179.545502 
L 229.269225 179.545502 
L 229.351165 176.924263 
L 229.503623 176.924263 
L 229.603007 174.827272 
L 229.647271 174.827272 
L 229.647271 174.303025 
L 231.674447 174.303025 
L 231.779646 170.109043 
L 231.819808 170.109043 
L 231.873376 167.487804 
L 231.98211 167.487804 
L 232.084951 163.81807 
L 232.126938 163.81807 
L 232.212255 162.245327 
L 232.276064 162.245327 
L 232.276064 161.721079 
L 233.341404 161.721079 
L 233.441875 158.051345 
L 233.502191 158.051345 
L 233.602784 153.333116 
L 233.624342 153.333116 
L 233.735362 150.18763 
L 233.765234 150.18763 
L 233.822406 146.517896 
L 233.877034 146.517896 
L 233.907445 144.420905 
L 238.999373 144.420905 
L 238.999373 143.372409 
L 239.271543 143.372409 
L 239.359012 138.129932 
L 239.416651 138.129932 
L 239.500244 134.460198 
L 239.587285 134.460198 
L 239.640337 131.314712 
L 239.724379 131.314712 
L 239.724379 130.266216 
L 245.659333 130.266216 
L 245.755591 121.878253 
L 245.771357 121.878253 
L 245.878995 115.063032 
L 245.88516 115.063032 
L 245.89232 112.966042 
L 249.323431 112.966042 
L 249.323431 112.441794 
L 252.068008 112.441794 
L 252.176503 100.384096 
L 252.181645 100.384096 
L 252.21041 95.665867 
L 253.541447 95.665867 
L 253.632909 90.42339 
L 253.657294 90.42339 
L 253.694941 84.656665 
L 254.4859 84.656665 
L 254.556454 75.220206 
L 254.603243 75.220206 
L 254.655397 71.026224 
L 261.518495 71.026224 
L 261.609643 56.871536 
L 261.745264 56.871536 
L 261.848503 40.095609 
L 267.905756 40.095609 
L 267.964702 27.513663 
L 333.429677 27.513663 
L 333.429677 27.513663 
" style="fill:none;stroke:#ffa500;stroke-linecap:square;stroke-width:1.5;"/>
   </g>
   <g id="line2d_34">
    <defs>
     <path d="M 0 -6 
L -1.347084 -1.854102 
L -5.706339 -1.854102 
L -2.179628 0.708204 
L -3.526712 4.854102 
L -0 2.291796 
L 3.526712 4.854102 
L 2.179628 0.708204 
L 5.706339 -1.854102 
L 1.347084 -1.854102 
z
" id="m4330d527d5" style="stroke:#ffa500;stroke-linejoin:bevel;stroke-width:1.5;"/>
    </defs>
    <g>
     <use style="fill-opacity:0;stroke:#ffa500;stroke-linejoin:bevel;stroke-width:1.5;" x="118.895538" xlink:href="#m4330d527d5" y="278.104073"/>
     <use style="fill-opacity:0;stroke:#ffa500;stroke-linejoin:bevel;stroke-width:1.5;" x="200.794584" xlink:href="#m4330d527d5" y="220.961072"/>
     <use style="fill-opacity:0;stroke:#ffa500;stroke-linejoin:bevel;stroke-width:1.5;" x="252.200969" xlink:href="#m4330d527d5" y="99.335601"/>
     <use style="fill-opacity:0;stroke:#ffa500;stroke-linejoin:bevel;stroke-width:1.5;" x="267.964702" xlink:href="#m4330d527d5" y="27.513663"/>
     <use style="fill-opacity:0;stroke:#ffa500;stroke-linejoin:bevel;stroke-width:1.5;" x="267.964702" xlink:href="#m4330d527d5" y="27.513663"/>
     <use style="fill-opacity:0;stroke:#ffa500;stroke-linejoin:bevel;stroke-width:1.5;" x="333.429677" xlink:href="#m4330d527d5" y="27.513663"/>
    </g>
   </g>
   <g id="line2d_35">
    <path style="fill:none;stroke:#ffa500;stroke-linecap:square;stroke-width:1.5;"/>
    <g/>
   </g>
   <g id="line2d_36">
    <defs>
     <path d="M 0 1.5 
C 0.397805 1.5 0.77937 1.341951 1.06066 1.06066 
C 1.341951 0.77937 1.5 0.397805 1.5 0 
C 1.5 -0.397805 1.341951 -0.77937 1.06066 -1.06066 
C 0.77937 -1.341951 0.397805 -1.5 0 -1.5 
C -0.397805 -1.5 -0.77937 -1.341951 -1.06066 -1.06066 
C -1.341951 -0.77937 -1.5 -0.397805 -1.5 0 
C -1.5 0.397805 -1.341951 0.77937 -1.06066 1.06066 
C -0.77937 1.341951 -0.397805 1.5 0 1.5 
z
" id="m330a07b621" style="stroke:#6495ed;"/>
    </defs>
    <g>
     <use style="fill:#6495ed;stroke:#6495ed;" x="331.436474" xlink:href="#m330a07b621" y="195.272933"/>
     <use style="fill:#6495ed;stroke:#6495ed;" x="331.436474" xlink:href="#m330a07b621" y="195.272933"/>
    </g>
   </g>
   <g id="line2d_37">
    <path d="M -1 289.637523 
L 171.22596 289.637523 
L 171.22596 289.113275 
L 175.123287 289.113275 
L 175.123287 288.589027 
L 176.027442 288.589027 
L 176.027442 288.06478 
L 176.569616 288.06478 
L 176.650932 285.967789 
L 176.754365 285.967789 
L 176.754365 285.443541 
L 178.112065 285.443541 
L 178.112065 284.919293 
L 178.609246 284.919293 
L 178.609246 284.395046 
L 181.160403 284.395046 
L 181.160403 283.870798 
L 182.250756 283.870798 
L 182.351857 282.298055 
L 182.57691 282.298055 
L 182.57691 281.773807 
L 182.813783 281.773807 
L 182.869303 280.725312 
L 183.329892 280.725312 
L 183.329892 280.201064 
L 183.573129 280.201064 
L 183.573129 279.676816 
L 186.794377 279.676816 
L 186.89724 278.104073 
L 186.914646 278.104073 
L 186.924523 277.055578 
L 187.052414 277.055578 
L 187.122372 276.007082 
L 187.706521 276.007082 
L 187.706521 274.958587 
L 189.109061 274.958587 
L 189.109061 273.910091 
L 189.451987 273.910091 
L 189.451987 273.385844 
L 190.807713 273.385844 
L 190.807713 272.861596 
L 191.028961 272.861596 
L 191.028961 272.337348 
L 191.410917 272.337348 
L 191.410917 271.8131 
L 192.041106 271.8131 
L 192.041106 271.288853 
L 192.424715 271.288853 
L 192.495205 269.716109 
L 192.686077 269.716109 
L 192.686077 269.191862 
L 193.551155 269.191862 
L 193.551155 268.143366 
L 193.881667 268.143366 
L 193.881667 267.619119 
L 194.164849 267.619119 
L 194.178654 266.570623 
L 194.986518 266.570623 
L 194.986518 264.99788 
L 195.260026 264.99788 
L 195.260026 264.473632 
L 195.454628 264.473632 
L 195.510887 263.425137 
L 196.595058 263.425137 
L 196.595058 262.900889 
L 196.845414 262.900889 
L 196.870239 261.852394 
L 197.206397 261.852394 
L 197.206397 261.328146 
L 198.14388 261.328146 
L 198.14388 260.803898 
L 198.39918 260.803898 
L 198.39918 259.755403 
L 198.818766 259.755403 
L 198.903395 258.18266 
L 199.87572 258.18266 
L 199.964275 256.085669 
L 200.85573 256.085669 
L 200.85573 255.037173 
L 201.820342 255.037173 
L 201.820342 254.512926 
L 201.971938 254.512926 
L 201.971938 253.988678 
L 202.506484 253.988678 
L 202.506484 252.940182 
L 203.508063 252.940182 
L 203.509127 251.891687 
L 205.019438 251.891687 
L 205.019438 250.843192 
L 205.421513 250.843192 
L 205.421513 249.794696 
L 207.350689 249.794696 
L 207.350689 249.270448 
L 210.246222 249.270448 
L 210.246222 248.746201 
L 211.829363 248.746201 
L 211.829363 246.64921 
L 212.472628 246.64921 
L 212.472628 246.124962 
L 254.847683 246.124962 
L 254.916016 244.552219 
L 254.961851 244.552219 
L 255.009226 241.93098 
L 255.157926 241.93098 
L 255.17998 239.83399 
L 255.407342 239.83399 
L 255.449053 237.736999 
L 255.605271 237.736999 
L 255.605271 237.212751 
L 255.833772 237.212751 
L 255.833772 236.164255 
L 266.545019 236.164255 
L 266.545019 235.640008 
L 266.841688 235.640008 
L 266.862589 234.067265 
L 266.960986 234.067265 
L 266.960986 233.543017 
L 273.358105 233.543017 
L 273.433293 230.921778 
L 273.526905 230.921778 
L 273.595822 229.873283 
L 273.662413 229.873283 
L 273.662413 229.349035 
L 273.817756 229.349035 
L 273.817756 228.30054 
L 278.202301 228.30054 
L 278.308808 227.252044 
L 278.473011 227.252044 
L 278.473011 226.727797 
L 282.042757 226.727797 
L 282.137197 224.106558 
L 282.322852 224.106558 
L 282.322852 223.58231 
L 285.163152 223.58231 
L 285.163152 223.058063 
L 287.817869 223.058063 
L 287.891791 219.912576 
L 290.110257 219.912576 
L 290.187989 218.339833 
L 292.117094 218.339833 
L 292.117094 217.815585 
L 292.243952 217.815585 
L 292.243952 217.291338 
L 293.984728 217.291338 
L 293.984728 216.76709 
L 295.571342 216.76709 
L 295.571342 216.242842 
L 297.015763 216.242842 
L 297.09321 214.670099 
L 297.13314 214.670099 
L 297.13314 214.145851 
L 298.391702 214.145851 
L 298.427455 212.573108 
L 299.759355 212.573108 
L 299.759355 212.04886 
L 300.876252 212.04886 
L 300.935986 211.000365 
L 301.968193 211.000365 
L 302.037274 209.427622 
L 302.992169 209.427622 
L 302.992169 208.903374 
L 303.998721 208.903374 
L 303.998721 208.379126 
L 304.972389 208.379126 
L 304.972389 207.854879 
L 305.791719 207.854879 
L 305.797697 206.282136 
L 306.640607 206.282136 
L 306.640607 205.23364 
L 308.200411 205.23364 
L 308.200411 204.709392 
L 308.919847 204.709392 
L 308.919847 204.185145 
L 310.293628 204.185145 
L 310.293628 203.660897 
L 310.941459 203.660897 
L 310.941459 203.136649 
L 312.160822 203.136649 
L 312.182694 201.563906 
L 312.751698 201.563906 
L 312.772581 200.515411 
L 314.399654 200.515411 
L 314.399654 199.991163 
L 314.893305 199.991163 
L 314.893305 199.466915 
L 316.353067 199.466915 
L 316.353067 198.942667 
L 317.691141 198.942667 
L 317.691141 198.41842 
L 318.114472 198.41842 
L 318.116355 197.369924 
L 318.933587 197.369924 
L 318.933587 196.845677 
L 324.087275 196.845677 
L 324.087275 196.321429 
L 325.240573 196.321429 
L 325.240573 195.797181 
L 331.436474 195.797181 
L 331.436474 195.272933 
L 333.429677 195.272933 
L 333.429677 195.272933 
" style="fill:none;stroke:#6495ed;stroke-linecap:square;stroke-width:1.5;"/>
   </g>
   <g id="line2d_38">
    <defs>
     <path d="M -0 6 
L 6 -6 
L -6 -6 
z
" id="m2a8195e206" style="stroke:#6495ed;stroke-linejoin:miter;stroke-width:1.5;"/>
    </defs>
    <g>
     <use style="fill-opacity:0;stroke:#6495ed;stroke-linejoin:miter;stroke-width:1.5;" x="212.472628" xlink:href="#m2a8195e206" y="246.64921"/>
     <use style="fill-opacity:0;stroke:#6495ed;stroke-linejoin:miter;stroke-width:1.5;" x="298.427455" xlink:href="#m2a8195e206" y="212.573108"/>
     <use style="fill-opacity:0;stroke:#6495ed;stroke-linejoin:miter;stroke-width:1.5;" x="331.436474" xlink:href="#m2a8195e206" y="195.272933"/>
     <use style="fill-opacity:0;stroke:#6495ed;stroke-linejoin:miter;stroke-width:1.5;" x="333.429677" xlink:href="#m2a8195e206" y="195.272933"/>
    </g>
   </g>
   <g id="line2d_39">
    <path style="fill:none;stroke:#6495ed;stroke-linecap:square;stroke-width:1.5;"/>
    <g/>
   </g>
   <g id="line2d_40">
    <path clip-path="url(#p507904f506)" d="M 254.198341 246.124962 
" style="fill:none;stroke:#6495ed;stroke-linecap:square;stroke-width:1.5;"/>
    <defs>
     <path d="M -12 12 
L 12 -12 
M -12 -12 
L 12 12 
" id="m94e243923b" style="stroke:#6495ed;stroke-width:3;"/>
    </defs>
    <g clip-path="url(#p507904f506)">
     <use style="fill:#6495ed;stroke:#6495ed;stroke-width:3;" x="254.198341" xlink:href="#m94e243923b" y="246.124962"/>
    </g>
   </g>
   <g id="line2d_41">
    <defs>
     <path d="M 0 1.5 
C 0.397805 1.5 0.77937 1.341951 1.06066 1.06066 
C 1.341951 0.77937 1.5 0.397805 1.5 0 
C 1.5 -0.397805 1.341951 -0.77937 1.06066 -1.06066 
C 0.77937 -1.341951 0.397805 -1.5 0 -1.5 
C -0.397805 -1.5 -0.77937 -1.341951 -1.06066 -1.06066 
C -1.341951 -0.77937 -1.5 -0.397805 -1.5 0 
C -1.5 0.397805 -1.341951 0.77937 -1.06066 1.06066 
C -0.77937 1.341951 -0.397805 1.5 0 1.5 
z
" id="mef044424ab" style="stroke:#9acd32;"/>
    </defs>
    <g>
     <use style="fill:#9acd32;stroke:#9acd32;" x="239.646652" xlink:href="#mef044424ab" y="27.513663"/>
     <use style="fill:#9acd32;stroke:#9acd32;" x="239.646652" xlink:href="#mef044424ab" y="27.513663"/>
    </g>
   </g>
   <g id="line2d_42">
    <path d="M -1 289.637523 
L 86.730565 289.637523 
L 86.730565 289.113275 
L 86.946982 289.113275 
L 86.946982 288.589027 
L 87.649319 288.589027 
L 87.649319 288.06478 
L 88.390151 288.06478 
L 88.390151 287.540532 
L 88.521487 287.540532 
L 88.521487 287.016284 
L 88.845505 287.016284 
L 88.845505 286.492036 
L 89.100397 286.492036 
L 89.100397 285.443541 
L 89.289118 285.443541 
L 89.289118 284.919293 
L 89.475791 284.919293 
L 89.475791 284.395046 
L 89.599124 284.395046 
L 89.599124 283.34655 
L 90.202865 283.34655 
L 90.202865 282.822302 
L 90.321112 282.822302 
L 90.321112 282.298055 
L 90.438552 282.298055 
L 90.496972 279.676816 
L 90.613222 279.676816 
L 90.613222 278.628321 
L 90.728691 278.628321 
L 90.728691 278.104073 
L 91.350281 278.104073 
L 91.350281 277.579825 
L 91.734457 277.579825 
L 91.734457 277.055578 
L 91.950195 277.055578 
L 91.950195 274.958587 
L 92.477993 274.958587 
L 92.529893 273.385844 
L 92.68466 273.385844 
L 92.68466 272.337348 
L 93.536312 272.337348 
L 93.536312 271.288853 
L 93.97068 271.288853 
L 93.97068 270.764605 
L 95.255907 270.764605 
L 95.255907 269.716109 
L 95.821478 269.716109 
L 95.821478 269.191862 
L 96.492973 269.191862 
L 96.492973 267.094871 
L 98.65607 267.094871 
L 98.65607 266.570623 
L 98.836605 266.570623 
L 98.872486 264.99788 
L 99.711914 264.99788 
L 99.711914 264.473632 
L 100.609763 264.473632 
L 100.609763 263.425137 
L 101.057499 263.425137 
L 101.057499 262.900889 
L 101.677561 262.900889 
L 101.677561 262.376641 
L 102.158007 262.376641 
L 102.158007 261.852394 
L 102.451613 261.852394 
L 102.451613 261.328146 
L 103.523738 261.328146 
L 103.523738 260.803898 
L 104.115214 260.803898 
L 104.115214 260.279651 
L 105.339187 260.279651 
L 105.339187 259.755403 
L 105.486238 259.755403 
L 105.486238 258.706907 
L 105.704484 258.706907 
L 105.704484 258.18266 
L 106.156331 258.18266 
L 106.156331 257.658412 
L 107.959654 257.658412 
L 107.959654 257.134164 
L 109.744868 257.134164 
L 109.744868 256.609917 
L 110.270248 256.609917 
L 110.270248 256.085669 
L 110.690123 256.085669 
L 110.690123 254.512926 
L 113.108816 254.512926 
L 113.108816 253.988678 
L 114.493171 253.988678 
L 114.493171 252.940182 
L 114.794138 252.940182 
L 114.794138 252.415935 
L 118.163792 252.415935 
L 118.163792 250.843192 
L 120.199315 250.843192 
L 120.199315 249.794696 
L 121.236249 249.794696 
L 121.236249 249.270448 
L 121.784313 249.270448 
L 121.784313 248.221953 
L 122.848492 248.221953 
L 122.848492 247.697705 
L 124.908508 247.697705 
L 124.908508 247.173458 
L 125.298657 247.173458 
L 125.298657 246.124962 
L 126.338973 246.124962 
L 126.338973 245.076467 
L 126.790532 245.076467 
L 126.790532 244.552219 
L 127.326813 244.552219 
L 127.326813 244.027971 
L 128.377514 244.027971 
L 128.377514 243.503724 
L 128.627282 243.503724 
L 128.627282 242.979476 
L 129.705441 242.979476 
L 129.705441 241.93098 
L 131.431344 241.93098 
L 131.431344 241.406733 
L 131.54441 241.406733 
L 131.54441 240.882485 
L 131.699338 240.882485 
L 131.699338 240.358237 
L 131.837062 240.358237 
L 131.837062 239.83399 
L 132.686286 239.83399 
L 132.686286 239.309742 
L 133.053947 239.309742 
L 133.053947 238.261246 
L 140.193 238.261246 
L 140.193 237.736999 
L 140.312692 237.736999 
L 140.312692 237.212751 
L 140.67001 237.212751 
L 140.67001 236.688503 
L 142.827511 236.688503 
L 142.827511 236.164255 
L 142.968978 236.164255 
L 143.051654 235.11576 
L 143.648758 235.11576 
L 143.648758 234.067265 
L 143.998361 234.067265 
L 143.998361 233.543017 
L 144.495898 233.543017 
L 144.495898 232.494521 
L 145.736756 232.494521 
L 145.736756 231.446026 
L 145.972683 231.446026 
L 145.972683 230.397531 
L 146.24885 230.397531 
L 146.24885 229.873283 
L 148.171482 229.873283 
L 148.171482 229.349035 
L 152.066487 229.349035 
L 152.066487 228.824787 
L 153.900839 228.824787 
L 153.900839 228.30054 
L 154.147831 228.30054 
L 154.225551 227.252044 
L 154.314354 227.252044 
L 154.365708 225.679301 
L 154.465125 225.679301 
L 154.465125 225.155053 
L 154.709788 225.155053 
L 154.754408 223.58231 
L 154.931736 223.58231 
L 154.931736 223.058063 
L 155.093607 223.058063 
L 155.16582 222.009567 
L 155.240438 222.009567 
L 155.318777 219.388328 
L 155.394078 219.388328 
L 155.482404 217.291338 
L 155.521071 217.291338 
L 155.598146 215.718594 
L 155.680156 215.718594 
L 155.684114 213.097356 
L 155.837783 213.097356 
L 155.862608 211.524613 
L 156.049605 211.524613 
L 156.103766 208.903374 
L 156.200058 208.903374 
L 156.308542 206.806383 
L 156.361895 206.806383 
L 156.469366 204.709392 
L 156.653659 204.709392 
L 156.659893 202.612401 
L 156.842166 202.612401 
L 156.902498 201.563906 
L 156.977309 201.563906 
L 157.057889 199.466915 
L 157.190146 199.466915 
L 157.190146 198.942667 
L 157.595097 198.942667 
L 157.66226 197.894172 
L 159.801488 197.894172 
L 159.801488 197.369924 
L 159.978162 197.369924 
L 159.978162 196.321429 
L 160.154057 196.321429 
L 160.20384 195.272933 
L 164.228054 195.272933 
L 164.228054 194.748686 
L 164.391074 194.748686 
L 164.391074 194.224438 
L 168.468448 194.224438 
L 168.564193 192.127447 
L 168.585397 192.127447 
L 168.661889 190.554704 
L 168.752863 190.554704 
L 168.781849 189.506209 
L 168.94193 189.506209 
L 168.94193 188.457713 
L 169.134979 188.457713 
L 169.228896 186.360722 
L 169.266679 186.360722 
L 169.316928 185.312227 
L 169.405701 185.312227 
L 169.459693 184.263731 
L 169.521192 184.263731 
L 169.610681 182.690988 
L 169.655838 182.690988 
L 169.713722 181.118245 
L 169.774321 181.118245 
L 169.87639 179.545502 
L 174.846147 179.545502 
L 174.940316 178.497006 
L 174.983341 178.497006 
L 175.058377 176.924263 
L 175.104523 176.924263 
L 175.208323 173.254529 
L 175.263795 173.254529 
L 175.314452 171.157538 
L 175.375464 171.157538 
L 175.472219 168.5363 
L 175.515186 168.5363 
L 175.601213 165.915061 
L 175.664937 165.915061 
L 175.771578 163.81807 
L 175.786759 163.81807 
L 175.786759 163.293823 
L 180.130583 163.293823 
L 180.130583 162.769575 
L 180.706121 162.769575 
L 180.796164 160.148336 
L 180.827094 160.148336 
L 180.924725 157.00285 
L 180.961497 157.00285 
L 181.056257 154.381611 
L 181.083408 154.381611 
L 181.144191 153.333116 
L 181.237952 153.333116 
L 181.249898 151.760373 
L 182.940887 151.760373 
L 183.015138 149.663382 
L 189.75237 149.663382 
L 189.859309 144.945152 
L 189.916409 144.945152 
L 190.015163 142.848162 
L 190.03094 142.848162 
L 190.132426 136.557189 
L 195.205724 136.557189 
L 195.300969 134.460198 
L 195.319955 134.460198 
L 195.407363 131.314712 
L 195.48389 131.314712 
L 195.488327 130.266216 
L 197.281338 130.266216 
L 197.387184 124.499491 
L 197.39723 124.499491 
L 197.491104 117.160023 
L 197.510607 117.160023 
L 197.510607 116.635776 
L 197.705916 116.635776 
L 197.81375 109.296308 
L 197.823892 109.296308 
L 197.929632 103.005335 
L 197.935859 103.005335 
L 197.992134 98.811353 
L 204.409292 98.811353 
L 204.519189 86.229408 
L 204.539481 86.229408 
L 204.5843 82.035426 
L 211.788732 82.035426 
L 211.888119 73.123215 
L 211.901595 73.123215 
L 211.951938 66.832242 
L 212.386298 66.832242 
L 212.489444 62.114013 
L 212.666323 62.114013 
L 212.666323 61.589765 
L 213.086232 61.589765 
L 213.145438 60.54127 
L 213.237449 60.54127 
L 213.237449 60.017022 
L 213.787881 60.017022 
L 213.787881 59.492774 
L 213.94759 59.492774 
L 213.94759 58.968526 
L 214.399023 58.968526 
L 214.506891 55.298792 
L 215.120143 55.298792 
L 215.166896 53.726049 
L 215.975935 53.726049 
L 216.03636 51.104811 
L 216.691234 51.104811 
L 216.691234 50.580563 
L 217.355513 50.580563 
L 217.384447 49.00782 
L 217.958158 49.00782 
L 217.989414 47.959324 
L 218.52427 47.959324 
L 218.568065 46.386581 
L 218.686695 46.386581 
L 218.686695 45.862334 
L 220.40334 45.862334 
L 220.479836 43.241095 
L 220.922879 43.241095 
L 220.988569 40.619856 
L 223.715856 40.619856 
L 223.737874 39.047113 
L 224.04455 39.047113 
L 224.04455 38.522865 
L 224.180111 38.522865 
L 224.211377 36.950122 
L 224.407004 36.950122 
L 224.447003 35.377379 
L 224.833574 35.377379 
L 224.873021 34.328884 
L 225.065494 34.328884 
L 225.088866 33.280388 
L 225.485688 33.280388 
L 225.485688 32.756141 
L 226.32418 32.756141 
L 226.32418 32.231893 
L 226.725431 32.231893 
L 226.736703 31.183397 
L 227.107403 31.183397 
L 227.107403 30.65915 
L 228.57916 30.65915 
L 228.57916 30.134902 
L 228.920073 30.134902 
L 228.920073 29.610654 
L 230.736308 29.610654 
L 230.736308 29.086407 
L 230.97635 29.086407 
L 230.97635 28.562159 
L 233.275122 28.562159 
L 233.275122 28.037911 
L 239.646652 28.037911 
L 239.646652 27.513663 
L 333.429677 27.513663 
L 333.429677 27.513663 
" style="fill:none;stroke:#9acd32;stroke-linecap:square;stroke-width:1.5;"/>
   </g>
   <g id="line2d_43">
    <defs>
     <path d="M 0 -6 
L -6 6 
L 6 6 
z
" id="m55c3970dc3" style="stroke:#9acd32;stroke-linejoin:miter;stroke-width:1.5;"/>
    </defs>
    <g>
     <use style="fill-opacity:0;stroke:#9acd32;stroke-linejoin:miter;stroke-width:1.5;" x="96.492973" xlink:href="#m55c3970dc3" y="267.094871"/>
     <use style="fill-opacity:0;stroke:#9acd32;stroke-linejoin:miter;stroke-width:1.5;" x="168.468448" xlink:href="#m55c3970dc3" y="193.70019"/>
     <use style="fill-opacity:0;stroke:#9acd32;stroke-linejoin:miter;stroke-width:1.5;" x="214.469221" xlink:href="#m55c3970dc3" y="56.347288"/>
     <use style="fill-opacity:0;stroke:#9acd32;stroke-linejoin:miter;stroke-width:1.5;" x="239.646652" xlink:href="#m55c3970dc3" y="28.037911"/>
     <use style="fill-opacity:0;stroke:#9acd32;stroke-linejoin:miter;stroke-width:1.5;" x="239.646652" xlink:href="#m55c3970dc3" y="27.513663"/>
     <use style="fill-opacity:0;stroke:#9acd32;stroke-linejoin:miter;stroke-width:1.5;" x="333.429677" xlink:href="#m55c3970dc3" y="27.513663"/>
    </g>
   </g>
   <g id="line2d_44">
    <path style="fill:none;stroke:#9acd32;stroke-linecap:square;stroke-width:1.5;"/>
    <g/>
   </g>
   <g id="line2d_45">
    <path clip-path="url(#p507904f506)" d="M 211.795662 81.511178 
" style="fill:none;stroke:#9acd32;stroke-linecap:square;stroke-width:1.5;"/>
    <defs>
     <path d="M -12 12 
L 12 -12 
M -12 -12 
L 12 12 
" id="m7c22abf7c2" style="stroke:#9acd32;stroke-width:3;"/>
    </defs>
    <g clip-path="url(#p507904f506)">
     <use style="fill:#9acd32;stroke:#9acd32;stroke-width:3;" x="211.795662" xlink:href="#m7c22abf7c2" y="81.511178"/>
    </g>
   </g>
   <g id="line2d_46">
    <path d="M 333.429677 195.272933 
L 363.933742 289.532673 
" style="fill:none;stroke:#6495ed;stroke-linecap:square;stroke-width:1.5;"/>
    <g>
     <use style="fill-opacity:0;stroke:#6495ed;stroke-linejoin:miter;stroke-width:1.5;" x="333.429677" xlink:href="#m2a8195e206" y="195.272933"/>
     <use style="fill-opacity:0;stroke:#6495ed;stroke-linejoin:miter;stroke-width:1.5;" x="363.933742" xlink:href="#m2a8195e206" y="289.532673"/>
    </g>
   </g>
   <g id="line2d_47">
    <path d="M 333.429677 27.513663 
L 363.933742 225.364752 
" style="fill:none;stroke:#ffa500;stroke-linecap:square;stroke-width:1.5;"/>
    <g>
     <use style="fill-opacity:0;stroke:#ffa500;stroke-linejoin:bevel;stroke-width:1.5;" x="333.429677" xlink:href="#m4330d527d5" y="27.513663"/>
     <use style="fill-opacity:0;stroke:#ffa500;stroke-linejoin:bevel;stroke-width:1.5;" x="363.933742" xlink:href="#m4330d527d5" y="225.364752"/>
    </g>
   </g>
   <g id="line2d_48">
    <path d="M 333.429677 27.513663 
L 363.933742 161.196832 
" style="fill:none;stroke:#9acd32;stroke-linecap:square;stroke-width:1.5;"/>
    <g>
     <use style="fill-opacity:0;stroke:#9acd32;stroke-linejoin:miter;stroke-width:1.5;" x="333.429677" xlink:href="#m55c3970dc3" y="27.513663"/>
     <use style="fill-opacity:0;stroke:#9acd32;stroke-linejoin:miter;stroke-width:1.5;" x="363.933742" xlink:href="#m55c3970dc3" y="161.196832"/>
    </g>
   </g>
   <g id="line2d_49">
    <path d="M 333.429677 27.513663 
L 363.933742 97.028911 
" style="fill:none;stroke:#ff00ff;stroke-linecap:square;stroke-width:1.5;"/>
    <g>
     <use style="fill-opacity:0;stroke:#ff00ff;stroke-linejoin:miter;stroke-width:1.5;" x="333.429677" xlink:href="#mbc81a469f2" y="27.513663"/>
     <use style="fill-opacity:0;stroke:#ff00ff;stroke-linejoin:miter;stroke-width:1.5;" x="363.933742" xlink:href="#mbc81a469f2" y="97.028911"/>
    </g>
   </g>
   <g id="line2d_50">
    <path d="M 333.429677 294.88 
L 333.429677 27.513663 
" style="fill:none;stroke:#000000;stroke-linecap:square;stroke-width:1.5;"/>
   </g>
   <g id="patch_3">
    <path d="M 56.12 294.88 
L 56.12 24.84 
" style="fill:none;stroke:#000000;stroke-linecap:square;stroke-linejoin:miter;stroke-width:0.8;"/>
   </g>
   <g id="patch_4">
    <path d="M 399.984 294.88 
L 399.984 24.84 
" style="fill:none;stroke:#000000;stroke-linecap:square;stroke-linejoin:miter;stroke-width:0.8;"/>
   </g>
   <g id="patch_5">
    <path d="M 56.12 294.88 
L 399.984 294.88 
" style="fill:none;stroke:#000000;stroke-linecap:square;stroke-linejoin:miter;stroke-width:0.8;"/>
   </g>
   <g id="patch_6">
    <path d="M 56.12 24.84 
L 399.984 24.84 
" style="fill:none;stroke:#000000;stroke-linecap:square;stroke-linejoin:miter;stroke-width:0.8;"/>
   </g>
   <g id="text_14">
    <!-- GA -->
    <defs>
     <path d="M 59.515625 10.40625 
L 59.515625 29.984375 
L 43.40625 29.984375 
L 43.40625 38.09375 
L 69.28125 38.09375 
L 69.28125 6.78125 
Q 63.578125 2.734375 56.6875 0.65625 
Q 49.8125 -1.421875 42 -1.421875 
Q 24.90625 -1.421875 15.25 8.5625 
Q 5.609375 18.5625 5.609375 36.375 
Q 5.609375 54.25 15.25 64.234375 
Q 24.90625 74.21875 42 74.21875 
Q 49.125 74.21875 55.546875 72.453125 
Q 61.96875 70.703125 67.390625 67.28125 
L 67.390625 56.78125 
Q 61.921875 61.421875 55.765625 63.765625 
Q 49.609375 66.109375 42.828125 66.109375 
Q 29.4375 66.109375 22.71875 58.640625 
Q 16.015625 51.171875 16.015625 36.375 
Q 16.015625 21.625 22.71875 14.15625 
Q 29.4375 6.6875 42.828125 6.6875 
Q 48.046875 6.6875 52.140625 7.59375 
Q 56.25 8.5 59.515625 10.40625 
z
" id="DejaVuSans-47"/>
     <path d="M 34.1875 63.1875 
L 20.796875 26.90625 
L 47.609375 26.90625 
z
M 28.609375 72.90625 
L 39.796875 72.90625 
L 67.578125 0 
L 57.328125 0 
L 50.6875 18.703125 
L 17.828125 18.703125 
L 11.1875 0 
L 0.78125 0 
z
" id="DejaVuSans-41"/>
    </defs>
    <g transform="translate(369.479935 294.223611)scale(0.17 -0.17)">
     <use xlink:href="#DejaVuSans-47"/>
     <use x="77.490234" xlink:href="#DejaVuSans-41"/>
    </g>
   </g>
   <g id="text_15">
    <!-- DASA -->
    <defs>
     <path d="M 19.671875 64.796875 
L 19.671875 8.109375 
L 31.59375 8.109375 
Q 46.6875 8.109375 53.6875 14.9375 
Q 60.6875 21.78125 60.6875 36.53125 
Q 60.6875 51.171875 53.6875 57.984375 
Q 46.6875 64.796875 31.59375 64.796875 
z
M 9.8125 72.90625 
L 30.078125 72.90625 
Q 51.265625 72.90625 61.171875 64.09375 
Q 71.09375 55.28125 71.09375 36.53125 
Q 71.09375 17.671875 61.125 8.828125 
Q 51.171875 0 30.078125 0 
L 9.8125 0 
z
" id="DejaVuSans-44"/>
     <path d="M 53.515625 70.515625 
L 53.515625 60.890625 
Q 47.90625 63.578125 42.921875 64.890625 
Q 37.9375 66.21875 33.296875 66.21875 
Q 25.25 66.21875 20.875 63.09375 
Q 16.5 59.96875 16.5 54.203125 
Q 16.5 49.359375 19.40625 46.890625 
Q 22.3125 44.4375 30.421875 42.921875 
L 36.375 41.703125 
Q 47.40625 39.59375 52.65625 34.296875 
Q 57.90625 29 57.90625 20.125 
Q 57.90625 9.515625 50.796875 4.046875 
Q 43.703125 -1.421875 29.984375 -1.421875 
Q 24.8125 -1.421875 18.96875 -0.25 
Q 13.140625 0.921875 6.890625 3.21875 
L 6.890625 13.375 
Q 12.890625 10.015625 18.65625 8.296875 
Q 24.421875 6.59375 29.984375 6.59375 
Q 38.421875 6.59375 43.015625 9.90625 
Q 47.609375 13.234375 47.609375 19.390625 
Q 47.609375 24.75 44.3125 27.78125 
Q 41.015625 30.8125 33.5 32.328125 
L 27.484375 33.5 
Q 16.453125 35.6875 11.515625 40.375 
Q 6.59375 45.0625 6.59375 53.421875 
Q 6.59375 63.09375 13.40625 68.65625 
Q 20.21875 74.21875 32.171875 74.21875 
Q 37.3125 74.21875 42.625 73.28125 
Q 47.953125 72.359375 53.515625 70.515625 
z
" id="DejaVuSans-53"/>
    </defs>
    <g transform="translate(369.479935 230.05569)scale(0.17 -0.17)">
     <use xlink:href="#DejaVuSans-44"/>
     <use x="76.986328" xlink:href="#DejaVuSans-41"/>
     <use x="145.394531" xlink:href="#DejaVuSans-53"/>
     <use x="208.886719" xlink:href="#DejaVuSans-41"/>
    </g>
   </g>
   <g id="text_16">
    <!-- Rosenbroc -->
    <defs>
     <path d="M 44.390625 34.1875 
Q 47.5625 33.109375 50.5625 29.59375 
Q 53.5625 26.078125 56.59375 19.921875 
L 66.609375 0 
L 56 0 
L 46.6875 18.703125 
Q 43.0625 26.03125 39.671875 28.421875 
Q 36.28125 30.8125 30.421875 30.8125 
L 19.671875 30.8125 
L 19.671875 0 
L 9.8125 0 
L 9.8125 72.90625 
L 32.078125 72.90625 
Q 44.578125 72.90625 50.734375 67.671875 
Q 56.890625 62.453125 56.890625 51.90625 
Q 56.890625 45.015625 53.6875 40.46875 
Q 50.484375 35.9375 44.390625 34.1875 
z
M 19.671875 64.796875 
L 19.671875 38.921875 
L 32.078125 38.921875 
Q 39.203125 38.921875 42.84375 42.21875 
Q 46.484375 45.515625 46.484375 51.90625 
Q 46.484375 58.296875 42.84375 61.546875 
Q 39.203125 64.796875 32.078125 64.796875 
z
" id="DejaVuSans-52"/>
     <path d="M 48.6875 27.296875 
Q 48.6875 37.203125 44.609375 42.84375 
Q 40.53125 48.484375 33.40625 48.484375 
Q 26.265625 48.484375 22.1875 42.84375 
Q 18.109375 37.203125 18.109375 27.296875 
Q 18.109375 17.390625 22.1875 11.75 
Q 26.265625 6.109375 33.40625 6.109375 
Q 40.53125 6.109375 44.609375 11.75 
Q 48.6875 17.390625 48.6875 27.296875 
z
M 18.109375 46.390625 
Q 20.953125 51.265625 25.265625 53.625 
Q 29.59375 56 35.59375 56 
Q 45.5625 56 51.78125 48.09375 
Q 58.015625 40.1875 58.015625 27.296875 
Q 58.015625 14.40625 51.78125 6.484375 
Q 45.5625 -1.421875 35.59375 -1.421875 
Q 29.59375 -1.421875 25.265625 0.953125 
Q 20.953125 3.328125 18.109375 8.203125 
L 18.109375 0 
L 9.078125 0 
L 9.078125 75.984375 
L 18.109375 75.984375 
z
" id="DejaVuSans-62"/>
    </defs>
    <g transform="translate(369.479935 165.887769)scale(0.17 -0.17)">
     <use xlink:href="#DejaVuSans-52"/>
     <use x="69.419922" xlink:href="#DejaVuSans-6f"/>
     <use x="130.601562" xlink:href="#DejaVuSans-73"/>
     <use x="182.701172" xlink:href="#DejaVuSans-65"/>
     <use x="244.224609" xlink:href="#DejaVuSans-6e"/>
     <use x="307.603516" xlink:href="#DejaVuSans-62"/>
     <use x="371.080078" xlink:href="#DejaVuSans-72"/>
     <use x="412.162109" xlink:href="#DejaVuSans-6f"/>
     <use x="473.34375" xlink:href="#DejaVuSans-63"/>
    </g>
   </g>
   <g id="text_17">
    <!-- ALPS -->
    <defs>
     <path d="M 9.8125 72.90625 
L 19.671875 72.90625 
L 19.671875 8.296875 
L 55.171875 8.296875 
L 55.171875 0 
L 9.8125 0 
z
" id="DejaVuSans-4c"/>
     <path d="M 19.671875 64.796875 
L 19.671875 37.40625 
L 32.078125 37.40625 
Q 38.96875 37.40625 42.71875 40.96875 
Q 46.484375 44.53125 46.484375 51.125 
Q 46.484375 57.671875 42.71875 61.234375 
Q 38.96875 64.796875 32.078125 64.796875 
z
M 9.8125 72.90625 
L 32.078125 72.90625 
Q 44.34375 72.90625 50.609375 67.359375 
Q 56.890625 61.8125 56.890625 51.125 
Q 56.890625 40.328125 50.609375 34.8125 
Q 44.34375 29.296875 32.078125 29.296875 
L 19.671875 29.296875 
L 19.671875 0 
L 9.8125 0 
z
" id="DejaVuSans-50"/>
    </defs>
    <g transform="translate(369.479935 101.719848)scale(0.17 -0.17)">
     <use xlink:href="#DejaVuSans-41"/>
     <use x="68.408203" xlink:href="#DejaVuSans-4c"/>
     <use x="124.121094" xlink:href="#DejaVuSans-50"/>
     <use x="184.423828" xlink:href="#DejaVuSans-53"/>
    </g>
   </g>
   <g id="text_18">
    <!-- best 2009 -->
    <defs>
     <path d="M 10.984375 1.515625 
L 10.984375 10.5 
Q 14.703125 8.734375 18.5 7.8125 
Q 22.3125 6.890625 25.984375 6.890625 
Q 35.75 6.890625 40.890625 13.453125 
Q 46.046875 20.015625 46.78125 33.40625 
Q 43.953125 29.203125 39.59375 26.953125 
Q 35.25 24.703125 29.984375 24.703125 
Q 19.046875 24.703125 12.671875 31.3125 
Q 6.296875 37.9375 6.296875 49.421875 
Q 6.296875 60.640625 12.9375 67.421875 
Q 19.578125 74.21875 30.609375 74.21875 
Q 43.265625 74.21875 49.921875 64.515625 
Q 56.59375 54.828125 56.59375 36.375 
Q 56.59375 19.140625 48.40625 8.859375 
Q 40.234375 -1.421875 26.421875 -1.421875 
Q 22.703125 -1.421875 18.890625 -0.6875 
Q 15.09375 0.046875 10.984375 1.515625 
z
M 30.609375 32.421875 
Q 37.25 32.421875 41.125 36.953125 
Q 45.015625 41.5 45.015625 49.421875 
Q 45.015625 57.28125 41.125 61.84375 
Q 37.25 66.40625 30.609375 66.40625 
Q 23.96875 66.40625 20.09375 61.84375 
Q 16.21875 57.28125 16.21875 49.421875 
Q 16.21875 41.5 20.09375 36.953125 
Q 23.96875 32.421875 30.609375 32.421875 
z
" id="DejaVuSans-39"/>
    </defs>
    <g transform="translate(369.479935 37.551928)scale(0.17 -0.17)">
     <use xlink:href="#DejaVuSans-62"/>
     <use x="63.476562" xlink:href="#DejaVuSans-65"/>
     <use x="125" xlink:href="#DejaVuSans-73"/>
     <use x="177.099609" xlink:href="#DejaVuSans-74"/>
     <use x="216.308594" xlink:href="#DejaVuSans-20"/>
     <use x="248.095703" xlink:href="#DejaVuSans-32"/>
     <use x="311.71875" xlink:href="#DejaVuSans-30"/>
     <use x="375.341797" xlink:href="#DejaVuSans-30"/>
     <use x="438.964844" xlink:href="#DejaVuSans-39"/>
    </g>
   </g>
   <g id="text_19">
    <!-- bbob f21, 40-D -->
    <g transform="translate(59.55864 35.290806)scale(0.102 -0.102)">
     <use xlink:href="#DejaVuSans-62"/>
     <use x="63.476562" xlink:href="#DejaVuSans-62"/>
     <use x="126.953125" xlink:href="#DejaVuSans-6f"/>
     <use x="188.134766" xlink:href="#DejaVuSans-62"/>
     <use x="251.611328" xlink:href="#DejaVuSans-20"/>
     <use x="283.398438" xlink:href="#DejaVuSans-66"/>
     <use x="318.603516" xlink:href="#DejaVuSans-32"/>
     <use x="382.226562" xlink:href="#DejaVuSans-31"/>
     <use x="445.849609" xlink:href="#DejaVuSans-2c"/>
     <use x="477.636719" xlink:href="#DejaVuSans-20"/>
     <use x="509.423828" xlink:href="#DejaVuSans-34"/>
     <use x="573.046875" xlink:href="#DejaVuSans-30"/>
     <use x="636.669922" xlink:href="#DejaVuSans-2d"/>
     <use x="672.753906" xlink:href="#DejaVuSans-44"/>
    </g>
    <!-- 51 targets: 100..1e-08 -->
    <defs>
     <path d="M 10.796875 72.90625 
L 49.515625 72.90625 
L 49.515625 64.59375 
L 19.828125 64.59375 
L 19.828125 46.734375 
Q 21.96875 47.46875 24.109375 47.828125 
Q 26.265625 48.1875 28.421875 48.1875 
Q 40.625 48.1875 47.75 41.5 
Q 54.890625 34.8125 54.890625 23.390625 
Q 54.890625 11.625 47.5625 5.09375 
Q 40.234375 -1.421875 26.90625 -1.421875 
Q 22.3125 -1.421875 17.546875 -0.640625 
Q 12.796875 0.140625 7.71875 1.703125 
L 7.71875 11.625 
Q 12.109375 9.234375 16.796875 8.0625 
Q 21.484375 6.890625 26.703125 6.890625 
Q 35.15625 6.890625 40.078125 11.328125 
Q 45.015625 15.765625 45.015625 23.390625 
Q 45.015625 31 40.078125 35.4375 
Q 35.15625 39.890625 26.703125 39.890625 
Q 22.75 39.890625 18.8125 39.015625 
Q 14.890625 38.140625 10.796875 36.28125 
z
" id="DejaVuSans-35"/>
     <path d="M 11.71875 12.40625 
L 22.015625 12.40625 
L 22.015625 0 
L 11.71875 0 
z
M 11.71875 51.703125 
L 22.015625 51.703125 
L 22.015625 39.3125 
L 11.71875 39.3125 
z
" id="DejaVuSans-3a"/>
    </defs>
    <g transform="translate(59.55864 46.712575)scale(0.102 -0.102)">
     <use xlink:href="#DejaVuSans-35"/>
     <use x="63.623047" xlink:href="#DejaVuSans-31"/>
     <use x="127.246094" xlink:href="#DejaVuSans-20"/>
     <use x="159.033203" xlink:href="#DejaVuSans-74"/>
     <use x="198.242188" xlink:href="#DejaVuSans-61"/>
     <use x="259.521484" xlink:href="#DejaVuSans-72"/>
     <use x="300.619141" xlink:href="#DejaVuSans-67"/>
     <use x="364.095703" xlink:href="#DejaVuSans-65"/>
     <use x="425.619141" xlink:href="#DejaVuSans-74"/>
     <use x="464.828125" xlink:href="#DejaVuSans-73"/>
     <use x="516.927734" xlink:href="#DejaVuSans-3a"/>
     <use x="550.619141" xlink:href="#DejaVuSans-20"/>
     <use x="582.40625" xlink:href="#DejaVuSans-31"/>
     <use x="646.029297" xlink:href="#DejaVuSans-30"/>
     <use x="709.652344" xlink:href="#DejaVuSans-30"/>
     <use x="773.275391" xlink:href="#DejaVuSans-2e"/>
     <use x="805.0625" xlink:href="#DejaVuSans-2e"/>
     <use x="836.849609" xlink:href="#DejaVuSans-31"/>
     <use x="900.472656" xlink:href="#DejaVuSans-65"/>
     <use x="961.996094" xlink:href="#DejaVuSans-2d"/>
     <use x="998.080078" xlink:href="#DejaVuSans-30"/>
     <use x="1061.703125" xlink:href="#DejaVuSans-38"/>
    </g>
    <!-- 15 instances -->
    <g transform="translate(59.55864 58.134344)scale(0.102 -0.102)">
     <use xlink:href="#DejaVuSans-31"/>
     <use x="63.623047" xlink:href="#DejaVuSans-35"/>
     <use x="127.246094" xlink:href="#DejaVuSans-20"/>
     <use x="159.033203" xlink:href="#DejaVuSans-69"/>
     <use x="186.816406" xlink:href="#DejaVuSans-6e"/>
     <use x="250.195312" xlink:href="#DejaVuSans-73"/>
     <use x="302.294922" xlink:href="#DejaVuSans-74"/>
     <use x="341.503906" xlink:href="#DejaVuSans-61"/>
     <use x="402.783203" xlink:href="#DejaVuSans-6e"/>
     <use x="466.162109" xlink:href="#DejaVuSans-63"/>
     <use x="521.142578" xlink:href="#DejaVuSans-65"/>
     <use x="582.666016" xlink:href="#DejaVuSans-73"/>
    </g>
   </g>
   <g id="text_20">
    <!-- v-coco-version -->
    <g style="fill:#808080;" transform="translate(191.556688 290.099912)scale(0.1 -0.1)">
     <use xlink:href="#DejaVuSans-76"/>
     <use x="59.148438" xlink:href="#DejaVuSans-2d"/>
     <use x="95.232422" xlink:href="#DejaVuSans-63"/>
     <use x="150.212891" xlink:href="#DejaVuSans-6f"/>
     <use x="211.394531" xlink:href="#DejaVuSans-63"/>
     <use x="266.375" xlink:href="#DejaVuSans-6f"/>
     <use x="327.572266" xlink:href="#DejaVuSans-2d"/>
     <use x="363.625" xlink:href="#DejaVuSans-76"/>
     <use x="422.804688" xlink:href="#DejaVuSans-65"/>
     <use x="484.328125" xlink:href="#DejaVuSans-72"/>
     <use x="525.441406" xlink:href="#DejaVuSans-73"/>
     <use x="577.541016" xlink:href="#DejaVuSans-69"/>
     <use x="605.324219" xlink:href="#DejaVuSans-6f"/>
     <use x="666.505859" xlink:href="#DejaVuSans-6e"/>
    </g>
   </g>
   <g id="text_21">
    <!-- 21 Gallagher 101 peaks -->
    <defs>
     <path d="M 54.890625 33.015625 
L 54.890625 0 
L 45.90625 0 
L 45.90625 32.71875 
Q 45.90625 40.484375 42.875 44.328125 
Q 39.84375 48.1875 33.796875 48.1875 
Q 26.515625 48.1875 22.3125 43.546875 
Q 18.109375 38.921875 18.109375 30.90625 
L 18.109375 0 
L 9.078125 0 
L 9.078125 75.984375 
L 18.109375 75.984375 
L 18.109375 46.1875 
Q 21.34375 51.125 25.703125 53.5625 
Q 30.078125 56 35.796875 56 
Q 45.21875 56 50.046875 50.171875 
Q 54.890625 44.34375 54.890625 33.015625 
z
" id="DejaVuSans-68"/>
     <path d="M 9.078125 75.984375 
L 18.109375 75.984375 
L 18.109375 31.109375 
L 44.921875 54.6875 
L 56.390625 54.6875 
L 27.390625 29.109375 
L 57.625 0 
L 45.90625 0 
L 18.109375 26.703125 
L 18.109375 0 
L 9.078125 0 
z
" id="DejaVuSans-6b"/>
    </defs>
    <g transform="translate(108.5645 18.84)scale(0.2 -0.2)">
     <use xlink:href="#DejaVuSans-32"/>
     <use x="63.623047" xlink:href="#DejaVuSans-31"/>
     <use x="127.246094" xlink:href="#DejaVuSans-20"/>
     <use x="159.033203" xlink:href="#DejaVuSans-47"/>
     <use x="236.523438" xlink:href="#DejaVuSans-61"/>
     <use x="297.802734" xlink:href="#DejaVuSans-6c"/>
     <use x="325.585938" xlink:href="#DejaVuSans-6c"/>
     <use x="353.369141" xlink:href="#DejaVuSans-61"/>
     <use x="414.648438" xlink:href="#DejaVuSans-67"/>
     <use x="478.125" xlink:href="#DejaVuSans-68"/>
     <use x="541.503906" xlink:href="#DejaVuSans-65"/>
     <use x="603.027344" xlink:href="#DejaVuSans-72"/>
     <use x="644.140625" xlink:href="#DejaVuSans-20"/>
     <use x="675.927734" xlink:href="#DejaVuSans-31"/>
     <use x="739.550781" xlink:href="#DejaVuSans-30"/>
     <use x="803.173828" xlink:href="#DejaVuSans-31"/>
     <use x="866.796875" xlink:href="#DejaVuSans-20"/>
     <use x="898.583984" xlink:href="#DejaVuSans-70"/>
     <use x="962.060547" xlink:href="#DejaVuSans-65"/>
     <use x="1023.583984" xlink:href="#DejaVuSans-61"/>
     <use x="1084.863281" xlink:href="#DejaVuSans-6b"/>
     <use x="1142.773438" xlink:href="#DejaVuSans-73"/>
    </g>
   </g>
  </g>
 </g>
 <defs>
  <clipPath id="p507904f506">
   <rect height="270.04" width="343.864" x="56.12" y="24.84"/>
  </clipPath>
 </defs>
</svg>
