<?xml version="1.0" encoding="utf-8" standalone="no"?>
<!DOCTYPE svg PUBLIC "-//W3C//DTD SVG 1.1//EN"
  "http://www.w3.org/Graphics/SVG/1.1/DTD/svg11.dtd">
<!-- Created with matplotlib (http://matplotlib.org/) -->
<svg height="345.6pt" version="1.1" viewBox="0 0 460.8 345.6" width="460.8pt" xmlns="http://www.w3.org/2000/svg" xmlns:xlink="http://www.w3.org/1999/xlink">
 <defs>
  <style type="text/css">
*{stroke-linecap:butt;stroke-linejoin:round;}
  </style>
 </defs>
 <g id="figure_1">
  <g id="patch_1">
   <path d="M 0 345.6 
L 460.8 345.6 
L 460.8 0 
L 0 0 
z
" style="fill:#ffffff;"/>
  </g>
  <g id="axes_1">
   <g id="patch_2">
    <path d="M 56.12 294.88 
L 399.984 294.88 
L 399.984 24.84 
L 56.12 24.84 
z
" style="fill:#ffffff;"/>
   </g>
   <g id="line2d_1">
    <path d="M -1 289.637523 
L 79.971009 289.637523 
L 79.971009 284.395046 
L 86.289391 284.395046 
L 86.289391 279.152568 
L 105.04126 279.152568 
L 105.04126 273.910091 
L 117.190692 273.910091 
L 117.190692 268.667614 
L 130.91036 268.667614 
L 130.91036 263.425137 
L 147.210042 263.425137 
L 147.210042 258.18266 
L 147.772864 258.18266 
L 147.772864 252.940182 
L 152.858715 252.940182 
L 152.858715 247.697705 
L 172.865127 247.697705 
L 172.865127 242.455228 
L 172.885527 242.455228 
L 172.885527 237.212751 
L 217.314791 237.212751 
L 217.314791 231.970274 
L 222.885193 231.970274 
L 222.885193 226.727797 
L 222.886281 226.727797 
L 222.886281 221.485319 
L 222.888298 221.485319 
L 222.888298 216.242842 
L 222.893314 216.242842 
L 222.893314 211.000365 
L 222.895914 211.000365 
L 222.895914 205.757888 
L 222.89931 205.757888 
L 222.89931 200.515411 
L 222.902784 200.515411 
L 222.902784 195.272933 
L 222.907398 195.272933 
L 222.907398 190.030456 
L 222.914661 190.030456 
L 222.914661 184.787979 
L 222.916278 184.787979 
L 222.916278 179.545502 
L 222.920278 179.545502 
L 222.920278 174.303025 
L 222.93029 174.303025 
L 222.93029 169.060547 
L 222.932276 169.060547 
L 222.932276 163.81807 
L 222.93614 163.81807 
L 222.93614 158.575593 
L 222.94564 158.575593 
L 222.94564 153.333116 
L 222.94773 153.333116 
L 222.94773 148.090639 
L 222.951538 148.090639 
L 222.951538 142.848162 
L 222.956139 142.848162 
L 222.956139 137.605684 
L 222.960395 137.605684 
L 222.960395 132.363207 
L 222.966156 132.363207 
L 222.966156 127.12073 
L 222.969643 127.12073 
L 222.969643 121.878253 
L 222.979098 121.878253 
L 222.979098 116.635776 
L 222.983454 116.635776 
L 222.983454 111.393298 
L 222.985724 111.393298 
L 222.985724 106.150821 
L 222.99815 106.150821 
L 222.99815 100.908344 
L 223.002211 100.908344 
L 223.002211 95.665867 
L 223.004004 95.665867 
L 223.004004 90.42339 
L 223.011806 90.42339 
L 223.011806 85.180912 
L 223.017181 85.180912 
L 223.017181 79.938435 
L 223.019473 79.938435 
L 223.019473 74.695958 
L 223.02632 74.695958 
L 223.02632 69.453481 
L 223.031085 69.453481 
L 223.031085 64.211004 
L 223.038164 64.211004 
L 223.038164 58.968526 
L 223.041874 58.968526 
L 223.041874 53.726049 
L 223.04482 53.726049 
L 223.04482 48.483572 
L 223.052945 48.483572 
L 223.052945 43.241095 
L 223.054864 43.241095 
L 223.054864 37.998618 
L 223.056914 37.998618 
L 223.056914 32.756141 
L 223.064036 32.756141 
L 223.064036 27.513663 
L 333.429677 27.513663 
" style="fill:none;stroke:#f5deb3;stroke-linecap:square;stroke-width:6;"/>
   </g>
   <g id="line2d_2">
    <defs>
     <path d="M -0 7.778175 
L 7.778175 0 
L 0 -7.778175 
L -7.778175 -0 
z
" id="m5a585b7b8e" style="stroke:#f5deb3;stroke-linejoin:miter;stroke-width:1.5;"/>
    </defs>
    <g>
     <use style="fill:#f5deb3;stroke:#f5deb3;stroke-linejoin:miter;stroke-width:1.5;" x="79.971009" xlink:href="#m5a585b7b8e" y="289.637523"/>
     <use style="fill:#f5deb3;stroke:#f5deb3;stroke-linejoin:miter;stroke-width:1.5;" x="152.858715" xlink:href="#m5a585b7b8e" y="252.940182"/>
     <use style="fill:#f5deb3;stroke:#f5deb3;stroke-linejoin:miter;stroke-width:1.5;" x="222.93614" xlink:href="#m5a585b7b8e" y="163.81807"/>
     <use style="fill:#f5deb3;stroke:#f5deb3;stroke-linejoin:miter;stroke-width:1.5;" x="223.064036" xlink:href="#m5a585b7b8e" y="32.756141"/>
     <use style="fill:#f5deb3;stroke:#f5deb3;stroke-linejoin:miter;stroke-width:1.5;" x="223.064036" xlink:href="#m5a585b7b8e" y="27.513663"/>
     <use style="fill:#f5deb3;stroke:#f5deb3;stroke-linejoin:miter;stroke-width:1.5;" x="333.429677" xlink:href="#m5a585b7b8e" y="27.513663"/>
    </g>
   </g>
   <g id="line2d_3">
    <path style="fill:none;stroke:#f5deb3;stroke-linecap:square;stroke-width:6;"/>
    <g/>
   </g>
   <g id="line2d_4">
    <path d="M 333.429677 27.513663 
L 363.933742 32.86099 
" style="fill:none;stroke:#f5deb3;stroke-linecap:square;stroke-width:6;"/>
    <g>
     <use style="fill:#f5deb3;stroke:#f5deb3;stroke-linejoin:miter;stroke-width:1.5;" x="333.429677" xlink:href="#m5a585b7b8e" y="27.513663"/>
     <use style="fill:#f5deb3;stroke:#f5deb3;stroke-linejoin:miter;stroke-width:1.5;" x="363.933742" xlink:href="#m5a585b7b8e" y="32.86099"/>
    </g>
   </g>
   <g id="matplotlib.axis_1">
    <g id="xtick_1">
     <g id="line2d_5">
      <path clip-path="url(#pe4cb2f79c5)" d="M 56.12 294.88 
L 56.12 24.84 
" style="fill:none;stroke:#b0b0b0;stroke-linecap:square;stroke-width:0.8;"/>
     </g>
     <g id="line2d_6">
      <defs>
       <path d="M 0 0 
L 0 3.5 
" id="mab12173749" style="stroke:#000000;stroke-width:0.8;"/>
      </defs>
      <g>
       <use style="stroke:#000000;stroke-width:0.8;" x="56.12" xlink:href="#mab12173749" y="294.88"/>
      </g>
     </g>
     <g id="text_1">
      <!-- 0 -->
      <defs>
       <path d="M 31.78125 66.40625 
Q 24.171875 66.40625 20.328125 58.90625 
Q 16.5 51.421875 16.5 36.375 
Q 16.5 21.390625 20.328125 13.890625 
Q 24.171875 6.390625 31.78125 6.390625 
Q 39.453125 6.390625 43.28125 13.890625 
Q 47.125 21.390625 47.125 36.375 
Q 47.125 51.421875 43.28125 58.90625 
Q 39.453125 66.40625 31.78125 66.40625 
z
M 31.78125 74.21875 
Q 44.046875 74.21875 50.515625 64.515625 
Q 56.984375 54.828125 56.984375 36.375 
Q 56.984375 17.96875 50.515625 8.265625 
Q 44.046875 -1.421875 31.78125 -1.421875 
Q 19.53125 -1.421875 13.0625 8.265625 
Q 6.59375 17.96875 6.59375 36.375 
Q 6.59375 54.828125 13.0625 64.515625 
Q 19.53125 74.21875 31.78125 74.21875 
z
" id="DejaVuSans-30"/>
      </defs>
      <g transform="translate(49.7575 317.076875)scale(0.2 -0.2)">
       <use xlink:href="#DejaVuSans-30"/>
      </g>
     </g>
    </g>
    <g id="xtick_2">
     <g id="line2d_7">
      <path clip-path="url(#pe4cb2f79c5)" d="M 135.351336 294.88 
L 135.351336 24.84 
" style="fill:none;stroke:#b0b0b0;stroke-linecap:square;stroke-width:0.8;"/>
     </g>
     <g id="line2d_8">
      <g>
       <use style="stroke:#000000;stroke-width:0.8;" x="135.351336" xlink:href="#mab12173749" y="294.88"/>
      </g>
     </g>
     <g id="text_2">
      <!-- 2 -->
      <defs>
       <path d="M 19.1875 8.296875 
L 53.609375 8.296875 
L 53.609375 0 
L 7.328125 0 
L 7.328125 8.296875 
Q 12.9375 14.109375 22.625 23.890625 
Q 32.328125 33.6875 34.8125 36.53125 
Q 39.546875 41.84375 41.421875 45.53125 
Q 43.3125 49.21875 43.3125 52.78125 
Q 43.3125 58.59375 39.234375 62.25 
Q 35.15625 65.921875 28.609375 65.921875 
Q 23.96875 65.921875 18.8125 64.3125 
Q 13.671875 62.703125 7.8125 59.421875 
L 7.8125 69.390625 
Q 13.765625 71.78125 18.9375 73 
Q 24.125 74.21875 28.421875 74.21875 
Q 39.75 74.21875 46.484375 68.546875 
Q 53.21875 62.890625 53.21875 53.421875 
Q 53.21875 48.921875 51.53125 44.890625 
Q 49.859375 40.875 45.40625 35.40625 
Q 44.1875 33.984375 37.640625 27.21875 
Q 31.109375 20.453125 19.1875 8.296875 
z
" id="DejaVuSans-32"/>
      </defs>
      <g transform="translate(128.988836 317.076875)scale(0.2 -0.2)">
       <use xlink:href="#DejaVuSans-32"/>
      </g>
     </g>
    </g>
    <g id="xtick_3">
     <g id="line2d_9">
      <path clip-path="url(#pe4cb2f79c5)" d="M 214.582673 294.88 
L 214.582673 24.84 
" style="fill:none;stroke:#b0b0b0;stroke-linecap:square;stroke-width:0.8;"/>
     </g>
     <g id="line2d_10">
      <g>
       <use style="stroke:#000000;stroke-width:0.8;" x="214.582673" xlink:href="#mab12173749" y="294.88"/>
      </g>
     </g>
     <g id="text_3">
      <!-- 4 -->
      <defs>
       <path d="M 37.796875 64.3125 
L 12.890625 25.390625 
L 37.796875 25.390625 
z
M 35.203125 72.90625 
L 47.609375 72.90625 
L 47.609375 25.390625 
L 58.015625 25.390625 
L 58.015625 17.1875 
L 47.609375 17.1875 
L 47.609375 0 
L 37.796875 0 
L 37.796875 17.1875 
L 4.890625 17.1875 
L 4.890625 26.703125 
z
" id="DejaVuSans-34"/>
      </defs>
      <g transform="translate(208.220173 317.076875)scale(0.2 -0.2)">
       <use xlink:href="#DejaVuSans-34"/>
      </g>
     </g>
    </g>
    <g id="xtick_4">
     <g id="line2d_11">
      <path clip-path="url(#pe4cb2f79c5)" d="M 293.814009 294.88 
L 293.814009 24.84 
" style="fill:none;stroke:#b0b0b0;stroke-linecap:square;stroke-width:0.8;"/>
     </g>
     <g id="line2d_12">
      <g>
       <use style="stroke:#000000;stroke-width:0.8;" x="293.814009" xlink:href="#mab12173749" y="294.88"/>
      </g>
     </g>
     <g id="text_4">
      <!-- 6 -->
      <defs>
       <path d="M 33.015625 40.375 
Q 26.375 40.375 22.484375 35.828125 
Q 18.609375 31.296875 18.609375 23.390625 
Q 18.609375 15.53125 22.484375 10.953125 
Q 26.375 6.390625 33.015625 6.390625 
Q 39.65625 6.390625 43.53125 10.953125 
Q 47.40625 15.53125 47.40625 23.390625 
Q 47.40625 31.296875 43.53125 35.828125 
Q 39.65625 40.375 33.015625 40.375 
z
M 52.59375 71.296875 
L 52.59375 62.3125 
Q 48.875 64.0625 45.09375 64.984375 
Q 41.3125 65.921875 37.59375 65.921875 
Q 27.828125 65.921875 22.671875 59.328125 
Q 17.53125 52.734375 16.796875 39.40625 
Q 19.671875 43.65625 24.015625 45.921875 
Q 28.375 48.1875 33.59375 48.1875 
Q 44.578125 48.1875 50.953125 41.515625 
Q 57.328125 34.859375 57.328125 23.390625 
Q 57.328125 12.15625 50.6875 5.359375 
Q 44.046875 -1.421875 33.015625 -1.421875 
Q 20.359375 -1.421875 13.671875 8.265625 
Q 6.984375 17.96875 6.984375 36.375 
Q 6.984375 53.65625 15.1875 63.9375 
Q 23.390625 74.21875 37.203125 74.21875 
Q 40.921875 74.21875 44.703125 73.484375 
Q 48.484375 72.75 52.59375 71.296875 
z
" id="DejaVuSans-36"/>
      </defs>
      <g transform="translate(287.451509 317.076875)scale(0.2 -0.2)">
       <use xlink:href="#DejaVuSans-36"/>
      </g>
     </g>
    </g>
    <g id="xtick_5">
     <g id="line2d_13">
      <path clip-path="url(#pe4cb2f79c5)" d="M 373.045346 294.88 
L 373.045346 24.84 
" style="fill:none;stroke:#b0b0b0;stroke-linecap:square;stroke-width:0.8;"/>
     </g>
     <g id="line2d_14">
      <g>
       <use style="stroke:#000000;stroke-width:0.8;" x="373.045346" xlink:href="#mab12173749" y="294.88"/>
      </g>
     </g>
     <g id="text_5">
      <!-- 8 -->
      <defs>
       <path d="M 31.78125 34.625 
Q 24.75 34.625 20.71875 30.859375 
Q 16.703125 27.09375 16.703125 20.515625 
Q 16.703125 13.921875 20.71875 10.15625 
Q 24.75 6.390625 31.78125 6.390625 
Q 38.8125 6.390625 42.859375 10.171875 
Q 46.921875 13.96875 46.921875 20.515625 
Q 46.921875 27.09375 42.890625 30.859375 
Q 38.875 34.625 31.78125 34.625 
z
M 21.921875 38.8125 
Q 15.578125 40.375 12.03125 44.71875 
Q 8.5 49.078125 8.5 55.328125 
Q 8.5 64.0625 14.71875 69.140625 
Q 20.953125 74.21875 31.78125 74.21875 
Q 42.671875 74.21875 48.875 69.140625 
Q 55.078125 64.0625 55.078125 55.328125 
Q 55.078125 49.078125 51.53125 44.71875 
Q 48 40.375 41.703125 38.8125 
Q 48.828125 37.15625 52.796875 32.3125 
Q 56.78125 27.484375 56.78125 20.515625 
Q 56.78125 9.90625 50.3125 4.234375 
Q 43.84375 -1.421875 31.78125 -1.421875 
Q 19.734375 -1.421875 13.25 4.234375 
Q 6.78125 9.90625 6.78125 20.515625 
Q 6.78125 27.484375 10.78125 32.3125 
Q 14.796875 37.15625 21.921875 38.8125 
z
M 18.3125 54.390625 
Q 18.3125 48.734375 21.84375 45.5625 
Q 25.390625 42.390625 31.78125 42.390625 
Q 38.140625 42.390625 41.71875 45.5625 
Q 45.3125 48.734375 45.3125 54.390625 
Q 45.3125 60.0625 41.71875 63.234375 
Q 38.140625 66.40625 31.78125 66.40625 
Q 25.390625 66.40625 21.84375 63.234375 
Q 18.3125 60.0625 18.3125 54.390625 
z
" id="DejaVuSans-38"/>
      </defs>
      <g transform="translate(366.682846 317.076875)scale(0.2 -0.2)">
       <use xlink:href="#DejaVuSans-38"/>
      </g>
     </g>
    </g>
    <g id="text_6">
     <!-- log10(# f-evals / dimension) -->
     <defs>
      <path d="M 9.421875 75.984375 
L 18.40625 75.984375 
L 18.40625 0 
L 9.421875 0 
z
" id="DejaVuSans-6c"/>
      <path d="M 30.609375 48.390625 
Q 23.390625 48.390625 19.1875 42.75 
Q 14.984375 37.109375 14.984375 27.296875 
Q 14.984375 17.484375 19.15625 11.84375 
Q 23.34375 6.203125 30.609375 6.203125 
Q 37.796875 6.203125 41.984375 11.859375 
Q 46.1875 17.53125 46.1875 27.296875 
Q 46.1875 37.015625 41.984375 42.703125 
Q 37.796875 48.390625 30.609375 48.390625 
z
M 30.609375 56 
Q 42.328125 56 49.015625 48.375 
Q 55.71875 40.765625 55.71875 27.296875 
Q 55.71875 13.875 49.015625 6.21875 
Q 42.328125 -1.421875 30.609375 -1.421875 
Q 18.84375 -1.421875 12.171875 6.21875 
Q 5.515625 13.875 5.515625 27.296875 
Q 5.515625 40.765625 12.171875 48.375 
Q 18.84375 56 30.609375 56 
z
" id="DejaVuSans-6f"/>
      <path d="M 45.40625 27.984375 
Q 45.40625 37.75 41.375 43.109375 
Q 37.359375 48.484375 30.078125 48.484375 
Q 22.859375 48.484375 18.828125 43.109375 
Q 14.796875 37.75 14.796875 27.984375 
Q 14.796875 18.265625 18.828125 12.890625 
Q 22.859375 7.515625 30.078125 7.515625 
Q 37.359375 7.515625 41.375 12.890625 
Q 45.40625 18.265625 45.40625 27.984375 
z
M 54.390625 6.78125 
Q 54.390625 -7.171875 48.1875 -13.984375 
Q 42 -20.796875 29.203125 -20.796875 
Q 24.46875 -20.796875 20.265625 -20.09375 
Q 16.0625 -19.390625 12.109375 -17.921875 
L 12.109375 -9.1875 
Q 16.0625 -11.328125 19.921875 -12.34375 
Q 23.78125 -13.375 27.78125 -13.375 
Q 36.625 -13.375 41.015625 -8.765625 
Q 45.40625 -4.15625 45.40625 5.171875 
L 45.40625 9.625 
Q 42.625 4.78125 38.28125 2.390625 
Q 33.9375 0 27.875 0 
Q 17.828125 0 11.671875 7.65625 
Q 5.515625 15.328125 5.515625 27.984375 
Q 5.515625 40.671875 11.671875 48.328125 
Q 17.828125 56 27.875 56 
Q 33.9375 56 38.28125 53.609375 
Q 42.625 51.21875 45.40625 46.390625 
L 45.40625 54.6875 
L 54.390625 54.6875 
z
" id="DejaVuSans-67"/>
      <path d="M 12.40625 8.296875 
L 28.515625 8.296875 
L 28.515625 63.921875 
L 10.984375 60.40625 
L 10.984375 69.390625 
L 28.421875 72.90625 
L 38.28125 72.90625 
L 38.28125 8.296875 
L 54.390625 8.296875 
L 54.390625 0 
L 12.40625 0 
z
" id="DejaVuSans-31"/>
      <path d="M 31 75.875 
Q 24.46875 64.65625 21.28125 53.65625 
Q 18.109375 42.671875 18.109375 31.390625 
Q 18.109375 20.125 21.3125 9.0625 
Q 24.515625 -2 31 -13.1875 
L 23.1875 -13.1875 
Q 15.875 -1.703125 12.234375 9.375 
Q 8.59375 20.453125 8.59375 31.390625 
Q 8.59375 42.28125 12.203125 53.3125 
Q 15.828125 64.359375 23.1875 75.875 
z
" id="DejaVuSans-28"/>
      <path d="M 51.125 44 
L 36.921875 44 
L 32.8125 27.6875 
L 47.125 27.6875 
z
M 43.796875 71.78125 
L 38.71875 51.515625 
L 52.984375 51.515625 
L 58.109375 71.78125 
L 65.921875 71.78125 
L 60.890625 51.515625 
L 76.125 51.515625 
L 76.125 44 
L 58.984375 44 
L 54.984375 27.6875 
L 70.515625 27.6875 
L 70.515625 20.21875 
L 53.078125 20.21875 
L 48 0 
L 40.1875 0 
L 45.21875 20.21875 
L 30.90625 20.21875 
L 25.875 0 
L 18.015625 0 
L 23.09375 20.21875 
L 7.71875 20.21875 
L 7.71875 27.6875 
L 24.90625 27.6875 
L 29 44 
L 13.28125 44 
L 13.28125 51.515625 
L 30.90625 51.515625 
L 35.890625 71.78125 
z
" id="DejaVuSans-23"/>
      <path id="DejaVuSans-20"/>
      <path d="M 37.109375 75.984375 
L 37.109375 68.5 
L 28.515625 68.5 
Q 23.6875 68.5 21.796875 66.546875 
Q 19.921875 64.59375 19.921875 59.515625 
L 19.921875 54.6875 
L 34.71875 54.6875 
L 34.71875 47.703125 
L 19.921875 47.703125 
L 19.921875 0 
L 10.890625 0 
L 10.890625 47.703125 
L 2.296875 47.703125 
L 2.296875 54.6875 
L 10.890625 54.6875 
L 10.890625 58.5 
Q 10.890625 67.625 15.140625 71.796875 
Q 19.390625 75.984375 28.609375 75.984375 
z
" id="DejaVuSans-66"/>
      <path d="M 4.890625 31.390625 
L 31.203125 31.390625 
L 31.203125 23.390625 
L 4.890625 23.390625 
z
" id="DejaVuSans-2d"/>
      <path d="M 56.203125 29.59375 
L 56.203125 25.203125 
L 14.890625 25.203125 
Q 15.484375 15.921875 20.484375 11.0625 
Q 25.484375 6.203125 34.421875 6.203125 
Q 39.59375 6.203125 44.453125 7.46875 
Q 49.3125 8.734375 54.109375 11.28125 
L 54.109375 2.78125 
Q 49.265625 0.734375 44.1875 -0.34375 
Q 39.109375 -1.421875 33.890625 -1.421875 
Q 20.796875 -1.421875 13.15625 6.1875 
Q 5.515625 13.8125 5.515625 26.8125 
Q 5.515625 40.234375 12.765625 48.109375 
Q 20.015625 56 32.328125 56 
Q 43.359375 56 49.78125 48.890625 
Q 56.203125 41.796875 56.203125 29.59375 
z
M 47.21875 32.234375 
Q 47.125 39.59375 43.09375 43.984375 
Q 39.0625 48.390625 32.421875 48.390625 
Q 24.90625 48.390625 20.390625 44.140625 
Q 15.875 39.890625 15.1875 32.171875 
z
" id="DejaVuSans-65"/>
      <path d="M 2.984375 54.6875 
L 12.5 54.6875 
L 29.59375 8.796875 
L 46.6875 54.6875 
L 56.203125 54.6875 
L 35.6875 0 
L 23.484375 0 
z
" id="DejaVuSans-76"/>
      <path d="M 34.28125 27.484375 
Q 23.390625 27.484375 19.1875 25 
Q 14.984375 22.515625 14.984375 16.5 
Q 14.984375 11.71875 18.140625 8.90625 
Q 21.296875 6.109375 26.703125 6.109375 
Q 34.1875 6.109375 38.703125 11.40625 
Q 43.21875 16.703125 43.21875 25.484375 
L 43.21875 27.484375 
z
M 52.203125 31.203125 
L 52.203125 0 
L 43.21875 0 
L 43.21875 8.296875 
Q 40.140625 3.328125 35.546875 0.953125 
Q 30.953125 -1.421875 24.3125 -1.421875 
Q 15.921875 -1.421875 10.953125 3.296875 
Q 6 8.015625 6 15.921875 
Q 6 25.140625 12.171875 29.828125 
Q 18.359375 34.515625 30.609375 34.515625 
L 43.21875 34.515625 
L 43.21875 35.40625 
Q 43.21875 41.609375 39.140625 45 
Q 35.0625 48.390625 27.6875 48.390625 
Q 23 48.390625 18.546875 47.265625 
Q 14.109375 46.140625 10.015625 43.890625 
L 10.015625 52.203125 
Q 14.9375 54.109375 19.578125 55.046875 
Q 24.21875 56 28.609375 56 
Q 40.484375 56 46.34375 49.84375 
Q 52.203125 43.703125 52.203125 31.203125 
z
" id="DejaVuSans-61"/>
      <path d="M 44.28125 53.078125 
L 44.28125 44.578125 
Q 40.484375 46.53125 36.375 47.5 
Q 32.28125 48.484375 27.875 48.484375 
Q 21.1875 48.484375 17.84375 46.4375 
Q 14.5 44.390625 14.5 40.28125 
Q 14.5 37.15625 16.890625 35.375 
Q 19.28125 33.59375 26.515625 31.984375 
L 29.59375 31.296875 
Q 39.15625 29.25 43.1875 25.515625 
Q 47.21875 21.78125 47.21875 15.09375 
Q 47.21875 7.46875 41.1875 3.015625 
Q 35.15625 -1.421875 24.609375 -1.421875 
Q 20.21875 -1.421875 15.453125 -0.5625 
Q 10.6875 0.296875 5.421875 2 
L 5.421875 11.28125 
Q 10.40625 8.6875 15.234375 7.390625 
Q 20.0625 6.109375 24.8125 6.109375 
Q 31.15625 6.109375 34.5625 8.28125 
Q 37.984375 10.453125 37.984375 14.40625 
Q 37.984375 18.0625 35.515625 20.015625 
Q 33.0625 21.96875 24.703125 23.78125 
L 21.578125 24.515625 
Q 13.234375 26.265625 9.515625 29.90625 
Q 5.8125 33.546875 5.8125 39.890625 
Q 5.8125 47.609375 11.28125 51.796875 
Q 16.75 56 26.8125 56 
Q 31.78125 56 36.171875 55.265625 
Q 40.578125 54.546875 44.28125 53.078125 
z
" id="DejaVuSans-73"/>
      <path d="M 25.390625 72.90625 
L 33.6875 72.90625 
L 8.296875 -9.28125 
L 0 -9.28125 
z
" id="DejaVuSans-2f"/>
      <path d="M 45.40625 46.390625 
L 45.40625 75.984375 
L 54.390625 75.984375 
L 54.390625 0 
L 45.40625 0 
L 45.40625 8.203125 
Q 42.578125 3.328125 38.25 0.953125 
Q 33.9375 -1.421875 27.875 -1.421875 
Q 17.96875 -1.421875 11.734375 6.484375 
Q 5.515625 14.40625 5.515625 27.296875 
Q 5.515625 40.1875 11.734375 48.09375 
Q 17.96875 56 27.875 56 
Q 33.9375 56 38.25 53.625 
Q 42.578125 51.265625 45.40625 46.390625 
z
M 14.796875 27.296875 
Q 14.796875 17.390625 18.875 11.75 
Q 22.953125 6.109375 30.078125 6.109375 
Q 37.203125 6.109375 41.296875 11.75 
Q 45.40625 17.390625 45.40625 27.296875 
Q 45.40625 37.203125 41.296875 42.84375 
Q 37.203125 48.484375 30.078125 48.484375 
Q 22.953125 48.484375 18.875 42.84375 
Q 14.796875 37.203125 14.796875 27.296875 
z
" id="DejaVuSans-64"/>
      <path d="M 9.421875 54.6875 
L 18.40625 54.6875 
L 18.40625 0 
L 9.421875 0 
z
M 9.421875 75.984375 
L 18.40625 75.984375 
L 18.40625 64.59375 
L 9.421875 64.59375 
z
" id="DejaVuSans-69"/>
      <path d="M 52 44.1875 
Q 55.375 50.25 60.0625 53.125 
Q 64.75 56 71.09375 56 
Q 79.640625 56 84.28125 50.015625 
Q 88.921875 44.046875 88.921875 33.015625 
L 88.921875 0 
L 79.890625 0 
L 79.890625 32.71875 
Q 79.890625 40.578125 77.09375 44.375 
Q 74.3125 48.1875 68.609375 48.1875 
Q 61.625 48.1875 57.5625 43.546875 
Q 53.515625 38.921875 53.515625 30.90625 
L 53.515625 0 
L 44.484375 0 
L 44.484375 32.71875 
Q 44.484375 40.625 41.703125 44.40625 
Q 38.921875 48.1875 33.109375 48.1875 
Q 26.21875 48.1875 22.15625 43.53125 
Q 18.109375 38.875 18.109375 30.90625 
L 18.109375 0 
L 9.078125 0 
L 9.078125 54.6875 
L 18.109375 54.6875 
L 18.109375 46.1875 
Q 21.1875 51.21875 25.484375 53.609375 
Q 29.78125 56 35.6875 56 
Q 41.65625 56 45.828125 52.96875 
Q 50 49.953125 52 44.1875 
z
" id="DejaVuSans-6d"/>
      <path d="M 54.890625 33.015625 
L 54.890625 0 
L 45.90625 0 
L 45.90625 32.71875 
Q 45.90625 40.484375 42.875 44.328125 
Q 39.84375 48.1875 33.796875 48.1875 
Q 26.515625 48.1875 22.3125 43.546875 
Q 18.109375 38.921875 18.109375 30.90625 
L 18.109375 0 
L 9.078125 0 
L 9.078125 54.6875 
L 18.109375 54.6875 
L 18.109375 46.1875 
Q 21.34375 51.125 25.703125 53.5625 
Q 30.078125 56 35.796875 56 
Q 45.21875 56 50.046875 50.171875 
Q 54.890625 44.34375 54.890625 33.015625 
z
" id="DejaVuSans-6e"/>
      <path d="M 8.015625 75.875 
L 15.828125 75.875 
Q 23.140625 64.359375 26.78125 53.3125 
Q 30.421875 42.28125 30.421875 31.390625 
Q 30.421875 20.453125 26.78125 9.375 
Q 23.140625 -1.703125 15.828125 -13.1875 
L 8.015625 -13.1875 
Q 14.5 -2 17.703125 9.0625 
Q 20.90625 20.125 20.90625 31.390625 
Q 20.90625 42.671875 17.703125 53.65625 
Q 14.5 64.65625 8.015625 75.875 
z
" id="DejaVuSans-29"/>
     </defs>
     <g transform="translate(107.211219 338.153594)scale(0.17 -0.17)">
      <use xlink:href="#DejaVuSans-6c"/>
      <use x="27.783203" xlink:href="#DejaVuSans-6f"/>
      <use x="88.964844" xlink:href="#DejaVuSans-67"/>
      <use x="152.441406" xlink:href="#DejaVuSans-31"/>
      <use x="216.064453" xlink:href="#DejaVuSans-30"/>
      <use x="279.6875" xlink:href="#DejaVuSans-28"/>
      <use x="318.701172" xlink:href="#DejaVuSans-23"/>
      <use x="402.490234" xlink:href="#DejaVuSans-20"/>
      <use x="434.277344" xlink:href="#DejaVuSans-66"/>
      <use x="469.404297" xlink:href="#DejaVuSans-2d"/>
      <use x="505.488281" xlink:href="#DejaVuSans-65"/>
      <use x="567.011719" xlink:href="#DejaVuSans-76"/>
      <use x="626.191406" xlink:href="#DejaVuSans-61"/>
      <use x="687.470703" xlink:href="#DejaVuSans-6c"/>
      <use x="715.253906" xlink:href="#DejaVuSans-73"/>
      <use x="767.353516" xlink:href="#DejaVuSans-20"/>
      <use x="799.140625" xlink:href="#DejaVuSans-2f"/>
      <use x="832.832031" xlink:href="#DejaVuSans-20"/>
      <use x="864.619141" xlink:href="#DejaVuSans-64"/>
      <use x="928.095703" xlink:href="#DejaVuSans-69"/>
      <use x="955.878906" xlink:href="#DejaVuSans-6d"/>
      <use x="1053.291016" xlink:href="#DejaVuSans-65"/>
      <use x="1114.814453" xlink:href="#DejaVuSans-6e"/>
      <use x="1178.193359" xlink:href="#DejaVuSans-73"/>
      <use x="1230.292969" xlink:href="#DejaVuSans-69"/>
      <use x="1258.076172" xlink:href="#DejaVuSans-6f"/>
      <use x="1319.257812" xlink:href="#DejaVuSans-6e"/>
      <use x="1382.636719" xlink:href="#DejaVuSans-29"/>
     </g>
    </g>
   </g>
   <g id="matplotlib.axis_2">
    <g id="ytick_1">
     <g id="line2d_15">
      <path clip-path="url(#pe4cb2f79c5)" d="M 56.12 294.88 
L 399.984 294.88 
" style="fill:none;stroke:#b0b0b0;stroke-linecap:square;stroke-width:0.8;"/>
     </g>
     <g id="line2d_16">
      <defs>
       <path d="M 0 0 
L -3.5 0 
" id="me5e68698ad" style="stroke:#000000;stroke-width:0.8;"/>
      </defs>
      <g>
       <use style="stroke:#000000;stroke-width:0.8;" x="56.12" xlink:href="#me5e68698ad" y="294.88"/>
      </g>
     </g>
     <g id="text_7">
      <!-- 0.0 -->
      <defs>
       <path d="M 10.6875 12.40625 
L 21 12.40625 
L 21 0 
L 10.6875 0 
z
" id="DejaVuSans-2e"/>
      </defs>
      <g transform="translate(23.675 300.95875)scale(0.16 -0.16)">
       <use xlink:href="#DejaVuSans-30"/>
       <use x="63.623047" xlink:href="#DejaVuSans-2e"/>
       <use x="95.410156" xlink:href="#DejaVuSans-30"/>
      </g>
     </g>
    </g>
    <g id="ytick_2">
     <g id="line2d_17">
      <path clip-path="url(#pe4cb2f79c5)" d="M 56.12 241.406733 
L 399.984 241.406733 
" style="fill:none;stroke:#b0b0b0;stroke-linecap:square;stroke-width:0.8;"/>
     </g>
     <g id="line2d_18">
      <g>
       <use style="stroke:#000000;stroke-width:0.8;" x="56.12" xlink:href="#me5e68698ad" y="241.406733"/>
      </g>
     </g>
     <g id="text_8">
      <!-- 0.2 -->
      <g transform="translate(23.675 247.485483)scale(0.16 -0.16)">
       <use xlink:href="#DejaVuSans-30"/>
       <use x="63.623047" xlink:href="#DejaVuSans-2e"/>
       <use x="95.410156" xlink:href="#DejaVuSans-32"/>
      </g>
     </g>
    </g>
    <g id="ytick_3">
     <g id="line2d_19">
      <path clip-path="url(#pe4cb2f79c5)" d="M 56.12 187.933465 
L 399.984 187.933465 
" style="fill:none;stroke:#b0b0b0;stroke-linecap:square;stroke-width:0.8;"/>
     </g>
     <g id="line2d_20">
      <g>
       <use style="stroke:#000000;stroke-width:0.8;" x="56.12" xlink:href="#me5e68698ad" y="187.933465"/>
      </g>
     </g>
     <g id="text_9">
      <!-- 0.4 -->
      <g transform="translate(23.675 194.012215)scale(0.16 -0.16)">
       <use xlink:href="#DejaVuSans-30"/>
       <use x="63.623047" xlink:href="#DejaVuSans-2e"/>
       <use x="95.410156" xlink:href="#DejaVuSans-34"/>
      </g>
     </g>
    </g>
    <g id="ytick_4">
     <g id="line2d_21">
      <path clip-path="url(#pe4cb2f79c5)" d="M 56.12 134.460198 
L 399.984 134.460198 
" style="fill:none;stroke:#b0b0b0;stroke-linecap:square;stroke-width:0.8;"/>
     </g>
     <g id="line2d_22">
      <g>
       <use style="stroke:#000000;stroke-width:0.8;" x="56.12" xlink:href="#me5e68698ad" y="134.460198"/>
      </g>
     </g>
     <g id="text_10">
      <!-- 0.6 -->
      <g transform="translate(23.675 140.538948)scale(0.16 -0.16)">
       <use xlink:href="#DejaVuSans-30"/>
       <use x="63.623047" xlink:href="#DejaVuSans-2e"/>
       <use x="95.410156" xlink:href="#DejaVuSans-36"/>
      </g>
     </g>
    </g>
    <g id="ytick_5">
     <g id="line2d_23">
      <path clip-path="url(#pe4cb2f79c5)" d="M 56.12 80.986931 
L 399.984 80.986931 
" style="fill:none;stroke:#b0b0b0;stroke-linecap:square;stroke-width:0.8;"/>
     </g>
     <g id="line2d_24">
      <g>
       <use style="stroke:#000000;stroke-width:0.8;" x="56.12" xlink:href="#me5e68698ad" y="80.986931"/>
      </g>
     </g>
     <g id="text_11">
      <!-- 0.8 -->
      <g transform="translate(23.675 87.065681)scale(0.16 -0.16)">
       <use xlink:href="#DejaVuSans-30"/>
       <use x="63.623047" xlink:href="#DejaVuSans-2e"/>
       <use x="95.410156" xlink:href="#DejaVuSans-38"/>
      </g>
     </g>
    </g>
    <g id="ytick_6">
     <g id="line2d_25">
      <path clip-path="url(#pe4cb2f79c5)" d="M 56.12 27.513663 
L 399.984 27.513663 
" style="fill:none;stroke:#b0b0b0;stroke-linecap:square;stroke-width:0.8;"/>
     </g>
     <g id="line2d_26">
      <g>
       <use style="stroke:#000000;stroke-width:0.8;" x="56.12" xlink:href="#me5e68698ad" y="27.513663"/>
      </g>
     </g>
     <g id="text_12">
      <!-- 1.0 -->
      <g transform="translate(23.675 33.592413)scale(0.16 -0.16)">
       <use xlink:href="#DejaVuSans-31"/>
       <use x="63.623047" xlink:href="#DejaVuSans-2e"/>
       <use x="95.410156" xlink:href="#DejaVuSans-30"/>
      </g>
     </g>
    </g>
    <g id="text_13">
     <!-- Fraction of function,target pairs -->
     <defs>
      <path d="M 9.8125 72.90625 
L 51.703125 72.90625 
L 51.703125 64.59375 
L 19.671875 64.59375 
L 19.671875 43.109375 
L 48.578125 43.109375 
L 48.578125 34.8125 
L 19.671875 34.8125 
L 19.671875 0 
L 9.8125 0 
z
" id="DejaVuSans-46"/>
      <path d="M 41.109375 46.296875 
Q 39.59375 47.171875 37.8125 47.578125 
Q 36.03125 48 33.890625 48 
Q 26.265625 48 22.1875 43.046875 
Q 18.109375 38.09375 18.109375 28.8125 
L 18.109375 0 
L 9.078125 0 
L 9.078125 54.6875 
L 18.109375 54.6875 
L 18.109375 46.1875 
Q 20.953125 51.171875 25.484375 53.578125 
Q 30.03125 56 36.53125 56 
Q 37.453125 56 38.578125 55.875 
Q 39.703125 55.765625 41.0625 55.515625 
z
" id="DejaVuSans-72"/>
      <path d="M 48.78125 52.59375 
L 48.78125 44.1875 
Q 44.96875 46.296875 41.140625 47.34375 
Q 37.3125 48.390625 33.40625 48.390625 
Q 24.65625 48.390625 19.8125 42.84375 
Q 14.984375 37.3125 14.984375 27.296875 
Q 14.984375 17.28125 19.8125 11.734375 
Q 24.65625 6.203125 33.40625 6.203125 
Q 37.3125 6.203125 41.140625 7.25 
Q 44.96875 8.296875 48.78125 10.40625 
L 48.78125 2.09375 
Q 45.015625 0.34375 40.984375 -0.53125 
Q 36.96875 -1.421875 32.421875 -1.421875 
Q 20.0625 -1.421875 12.78125 6.34375 
Q 5.515625 14.109375 5.515625 27.296875 
Q 5.515625 40.671875 12.859375 48.328125 
Q 20.21875 56 33.015625 56 
Q 37.15625 56 41.109375 55.140625 
Q 45.0625 54.296875 48.78125 52.59375 
z
" id="DejaVuSans-63"/>
      <path d="M 18.3125 70.21875 
L 18.3125 54.6875 
L 36.8125 54.6875 
L 36.8125 47.703125 
L 18.3125 47.703125 
L 18.3125 18.015625 
Q 18.3125 11.328125 20.140625 9.421875 
Q 21.96875 7.515625 27.59375 7.515625 
L 36.8125 7.515625 
L 36.8125 0 
L 27.59375 0 
Q 17.1875 0 13.234375 3.875 
Q 9.28125 7.765625 9.28125 18.015625 
L 9.28125 47.703125 
L 2.6875 47.703125 
L 2.6875 54.6875 
L 9.28125 54.6875 
L 9.28125 70.21875 
z
" id="DejaVuSans-74"/>
      <path d="M 8.5 21.578125 
L 8.5 54.6875 
L 17.484375 54.6875 
L 17.484375 21.921875 
Q 17.484375 14.15625 20.5 10.265625 
Q 23.53125 6.390625 29.59375 6.390625 
Q 36.859375 6.390625 41.078125 11.03125 
Q 45.3125 15.671875 45.3125 23.6875 
L 45.3125 54.6875 
L 54.296875 54.6875 
L 54.296875 0 
L 45.3125 0 
L 45.3125 8.40625 
Q 42.046875 3.421875 37.71875 1 
Q 33.40625 -1.421875 27.6875 -1.421875 
Q 18.265625 -1.421875 13.375 4.4375 
Q 8.5 10.296875 8.5 21.578125 
z
M 31.109375 56 
z
" id="DejaVuSans-75"/>
      <path d="M 11.71875 12.40625 
L 22.015625 12.40625 
L 22.015625 4 
L 14.015625 -11.625 
L 7.71875 -11.625 
L 11.71875 4 
z
" id="DejaVuSans-2c"/>
      <path d="M 18.109375 8.203125 
L 18.109375 -20.796875 
L 9.078125 -20.796875 
L 9.078125 54.6875 
L 18.109375 54.6875 
L 18.109375 46.390625 
Q 20.953125 51.265625 25.265625 53.625 
Q 29.59375 56 35.59375 56 
Q 45.5625 56 51.78125 48.09375 
Q 58.015625 40.1875 58.015625 27.296875 
Q 58.015625 14.40625 51.78125 6.484375 
Q 45.5625 -1.421875 35.59375 -1.421875 
Q 29.59375 -1.421875 25.265625 0.953125 
Q 20.953125 3.328125 18.109375 8.203125 
z
M 48.6875 27.296875 
Q 48.6875 37.203125 44.609375 42.84375 
Q 40.53125 48.484375 33.40625 48.484375 
Q 26.265625 48.484375 22.1875 42.84375 
Q 18.109375 37.203125 18.109375 27.296875 
Q 18.109375 17.390625 22.1875 11.75 
Q 26.265625 6.109375 33.40625 6.109375 
Q 40.53125 6.109375 44.609375 11.75 
Q 48.6875 17.390625 48.6875 27.296875 
z
" id="DejaVuSans-70"/>
     </defs>
     <g transform="translate(16.139531 294.999375)rotate(-90)scale(0.17 -0.17)">
      <use xlink:href="#DejaVuSans-46"/>
      <use x="57.410156" xlink:href="#DejaVuSans-72"/>
      <use x="98.523438" xlink:href="#DejaVuSans-61"/>
      <use x="159.802734" xlink:href="#DejaVuSans-63"/>
      <use x="214.783203" xlink:href="#DejaVuSans-74"/>
      <use x="253.992188" xlink:href="#DejaVuSans-69"/>
      <use x="281.775391" xlink:href="#DejaVuSans-6f"/>
      <use x="342.957031" xlink:href="#DejaVuSans-6e"/>
      <use x="406.335938" xlink:href="#DejaVuSans-20"/>
      <use x="438.123047" xlink:href="#DejaVuSans-6f"/>
      <use x="499.304688" xlink:href="#DejaVuSans-66"/>
      <use x="534.509766" xlink:href="#DejaVuSans-20"/>
      <use x="566.296875" xlink:href="#DejaVuSans-66"/>
      <use x="601.501953" xlink:href="#DejaVuSans-75"/>
      <use x="664.880859" xlink:href="#DejaVuSans-6e"/>
      <use x="728.259766" xlink:href="#DejaVuSans-63"/>
      <use x="783.240234" xlink:href="#DejaVuSans-74"/>
      <use x="822.449219" xlink:href="#DejaVuSans-69"/>
      <use x="850.232422" xlink:href="#DejaVuSans-6f"/>
      <use x="911.414062" xlink:href="#DejaVuSans-6e"/>
      <use x="974.792969" xlink:href="#DejaVuSans-2c"/>
      <use x="1006.580078" xlink:href="#DejaVuSans-74"/>
      <use x="1045.789062" xlink:href="#DejaVuSans-61"/>
      <use x="1107.068359" xlink:href="#DejaVuSans-72"/>
      <use x="1148.166016" xlink:href="#DejaVuSans-67"/>
      <use x="1211.642578" xlink:href="#DejaVuSans-65"/>
      <use x="1273.166016" xlink:href="#DejaVuSans-74"/>
      <use x="1312.375" xlink:href="#DejaVuSans-20"/>
      <use x="1344.162109" xlink:href="#DejaVuSans-70"/>
      <use x="1407.638672" xlink:href="#DejaVuSans-61"/>
      <use x="1468.917969" xlink:href="#DejaVuSans-69"/>
      <use x="1496.701172" xlink:href="#DejaVuSans-72"/>
      <use x="1537.814453" xlink:href="#DejaVuSans-73"/>
     </g>
    </g>
   </g>
   <g id="line2d_27">
    <defs>
     <path d="M 0 1.5 
C 0.397805 1.5 0.77937 1.341951 1.06066 1.06066 
C 1.341951 0.77937 1.5 0.397805 1.5 0 
C 1.5 -0.397805 1.341951 -0.77937 1.06066 -1.06066 
C 0.77937 -1.341951 0.397805 -1.5 0 -1.5 
C -0.397805 -1.5 -0.77937 -1.341951 -1.06066 -1.06066 
C -1.341951 -0.77937 -1.5 -0.397805 -1.5 0 
C -1.5 0.397805 -1.341951 0.77937 -1.06066 1.06066 
C -0.77937 1.341951 -0.397805 1.5 0 1.5 
z
" id="m67169032d3" style="stroke:#f5deb3;"/>
    </defs>
    <g>
     <use style="fill:#f5deb3;stroke:#f5deb3;" x="223.064036" xlink:href="#m67169032d3" y="27.513663"/>
     <use style="fill:#f5deb3;stroke:#f5deb3;" x="223.064036" xlink:href="#m67169032d3" y="27.513663"/>
    </g>
   </g>
   <g id="line2d_28">
    <defs>
     <path d="M 0 1.5 
C 0.397805 1.5 0.77937 1.341951 1.06066 1.06066 
C 1.341951 0.77937 1.5 0.397805 1.5 0 
C 1.5 -0.397805 1.341951 -0.77937 1.06066 -1.06066 
C 0.77937 -1.341951 0.397805 -1.5 0 -1.5 
C -0.397805 -1.5 -0.77937 -1.341951 -1.06066 -1.06066 
C -1.341951 -0.77937 -1.5 -0.397805 -1.5 0 
C -1.5 0.397805 -1.341951 0.77937 -1.06066 1.06066 
C -0.77937 1.341951 -0.397805 1.5 0 1.5 
z
" id="m3b939c9a3d" style="stroke:#ff00ff;"/>
    </defs>
    <g>
     <use style="fill:#ff00ff;stroke:#ff00ff;" x="332.274898" xlink:href="#m3b939c9a3d" y="163.81807"/>
     <use style="fill:#ff00ff;stroke:#ff00ff;" x="332.274898" xlink:href="#m3b939c9a3d" y="163.81807"/>
    </g>
   </g>
   <g id="line2d_29">
    <path d="M -1 289.637523 
L 137.639584 289.637523 
L 137.639584 289.113275 
L 139.135347 289.113275 
L 139.135347 288.06478 
L 141.219991 288.06478 
L 141.219991 287.540532 
L 143.144876 287.540532 
L 143.144876 287.016284 
L 143.340635 287.016284 
L 143.340635 285.967789 
L 144.893211 285.967789 
L 144.893211 285.443541 
L 145.418666 285.443541 
L 145.418666 284.919293 
L 146.852277 284.919293 
L 146.852277 284.395046 
L 149.111047 284.395046 
L 149.111047 283.870798 
L 149.538709 283.870798 
L 149.538709 282.822302 
L 150.023961 282.822302 
L 150.023961 282.298055 
L 150.215382 282.298055 
L 150.215382 281.773807 
L 151.922622 281.773807 
L 151.94559 280.725312 
L 152.276838 280.725312 
L 152.30255 279.676816 
L 154.34005 279.676816 
L 154.34005 278.104073 
L 154.644044 278.104073 
L 154.644044 277.579825 
L 154.791965 277.579825 
L 154.791965 277.055578 
L 155.126345 277.055578 
L 155.138605 275.482834 
L 156.533528 275.482834 
L 156.533528 274.434339 
L 157.281764 274.434339 
L 157.287774 272.861596 
L 157.564374 272.861596 
L 157.671666 271.8131 
L 158.39214 271.8131 
L 158.39214 271.288853 
L 158.700456 271.288853 
L 158.746893 270.240357 
L 159.122588 270.240357 
L 159.122588 269.716109 
L 159.435179 269.716109 
L 159.435179 269.191862 
L 160.336228 269.191862 
L 160.336228 268.667614 
L 161.377253 268.667614 
L 161.377253 268.143366 
L 161.605061 268.143366 
L 161.605061 267.619119 
L 162.505921 267.619119 
L 162.505921 267.094871 
L 163.085317 267.094871 
L 163.085317 266.570623 
L 163.826771 266.570623 
L 163.826771 266.046375 
L 164.649989 266.046375 
L 164.649989 265.522128 
L 164.914326 265.522128 
L 164.914326 264.99788 
L 165.162499 264.99788 
L 165.162499 264.473632 
L 165.33803 264.473632 
L 165.386889 262.900889 
L 165.635046 262.900889 
L 165.635046 262.376641 
L 166.777807 262.376641 
L 166.777807 261.852394 
L 168.181166 261.852394 
L 168.280422 260.803898 
L 169.440726 260.803898 
L 169.440726 260.279651 
L 170.209096 260.279651 
L 170.209096 259.231155 
L 170.476961 259.231155 
L 170.476961 258.706907 
L 170.889641 258.706907 
L 170.889641 258.18266 
L 173.118889 258.18266 
L 173.118889 257.658412 
L 174.086774 257.658412 
L 174.086774 257.134164 
L 174.440297 257.134164 
L 174.462901 255.561421 
L 174.599658 255.561421 
L 174.599658 255.037173 
L 176.700782 255.037173 
L 176.700782 253.988678 
L 177.574232 253.988678 
L 177.574232 253.46443 
L 179.041963 253.46443 
L 179.041963 252.415935 
L 179.366752 252.415935 
L 179.366752 251.367439 
L 180.006518 251.367439 
L 180.006518 250.843192 
L 181.250793 250.843192 
L 181.250793 250.318944 
L 183.651978 250.318944 
L 183.651978 249.794696 
L 185.015636 249.794696 
L 185.015636 249.270448 
L 187.518839 249.270448 
L 187.518839 248.746201 
L 191.882532 248.746201 
L 191.882532 247.697705 
L 194.885457 247.697705 
L 194.885457 247.173458 
L 196.540152 247.173458 
L 196.540152 246.124962 
L 196.816447 246.124962 
L 196.816447 245.076467 
L 197.609404 245.076467 
L 197.609404 244.027971 
L 197.755743 244.027971 
L 197.755743 243.503724 
L 198.582204 243.503724 
L 198.682964 241.406733 
L 206.422528 241.406733 
L 206.422528 240.882485 
L 206.795481 240.882485 
L 206.795481 240.358237 
L 207.396533 240.358237 
L 207.396533 239.83399 
L 219.877712 239.83399 
L 219.877712 239.309742 
L 227.71774 239.309742 
L 227.71774 238.785494 
L 236.534812 238.785494 
L 236.534812 237.736999 
L 240.405113 237.736999 
L 240.405113 237.212751 
L 241.341556 237.212751 
L 241.341556 236.688503 
L 241.861484 236.688503 
L 241.861484 236.164255 
L 243.343615 236.164255 
L 243.343615 235.11576 
L 243.780693 235.11576 
L 243.780693 234.591512 
L 244.994441 234.591512 
L 244.994441 234.067265 
L 245.418943 234.067265 
L 245.418943 233.543017 
L 245.801508 233.543017 
L 245.801508 232.494521 
L 246.963488 232.494521 
L 246.963488 231.970274 
L 247.075489 231.970274 
L 247.075489 231.446026 
L 247.649717 231.446026 
L 247.649717 230.921778 
L 248.294612 230.921778 
L 248.294612 229.349035 
L 249.788545 229.349035 
L 249.788545 228.30054 
L 251.084665 228.30054 
L 251.084665 227.776292 
L 254.34152 227.776292 
L 254.34152 227.252044 
L 254.651396 227.252044 
L 254.651396 226.727797 
L 255.059516 226.727797 
L 255.059516 226.203549 
L 255.668223 226.203549 
L 255.668223 225.679301 
L 257.497433 225.679301 
L 257.497433 225.155053 
L 263.313185 225.155053 
L 263.313185 224.630806 
L 263.709927 224.630806 
L 263.709927 224.106558 
L 264.648959 224.106558 
L 264.648959 223.58231 
L 264.78554 223.58231 
L 264.823257 222.533815 
L 265.340667 222.533815 
L 265.340667 222.009567 
L 265.541463 222.009567 
L 265.647052 219.912576 
L 266.300605 219.912576 
L 266.300605 219.388328 
L 267.49998 219.388328 
L 267.49998 218.339833 
L 267.67977 218.339833 
L 267.67977 217.815585 
L 268.353119 217.815585 
L 268.353119 217.291338 
L 268.819116 217.291338 
L 268.819116 216.242842 
L 269.695088 216.242842 
L 269.695088 215.718594 
L 272.948064 215.718594 
L 272.948064 215.194347 
L 273.282974 215.194347 
L 273.282974 214.145851 
L 273.707373 214.145851 
L 273.707373 213.097356 
L 273.99922 213.097356 
L 273.99922 212.573108 
L 274.135281 212.573108 
L 274.135281 212.04886 
L 274.261393 212.04886 
L 274.261393 211.524613 
L 275.638056 211.524613 
L 275.638056 210.476117 
L 275.974155 210.476117 
L 275.974155 209.427622 
L 276.181147 209.427622 
L 276.181147 208.903374 
L 276.760829 208.903374 
L 276.760829 207.854879 
L 279.044501 207.854879 
L 279.044501 207.330631 
L 279.221877 207.330631 
L 279.221877 206.806383 
L 280.154575 206.806383 
L 280.154575 206.282136 
L 280.784737 206.282136 
L 280.784737 205.757888 
L 280.922155 205.757888 
L 280.922155 204.709392 
L 281.036253 204.709392 
L 281.036253 204.185145 
L 283.628448 204.185145 
L 283.628448 203.660897 
L 283.851776 203.660897 
L 283.862354 202.612401 
L 284.024705 202.612401 
L 284.128743 200.515411 
L 284.17159 200.515411 
L 284.17159 199.466915 
L 284.364458 199.466915 
L 284.408008 198.41842 
L 285.049269 198.41842 
L 285.155285 197.369924 
L 285.171879 197.369924 
L 285.27919 196.321429 
L 285.620995 196.321429 
L 285.620995 195.797181 
L 287.05992 195.797181 
L 287.133407 194.748686 
L 287.315791 194.748686 
L 287.315791 194.224438 
L 287.446632 194.224438 
L 287.446632 193.175943 
L 287.728153 193.175943 
L 287.728153 192.651695 
L 288.301026 192.651695 
L 288.301026 192.127447 
L 288.49157 192.127447 
L 288.49157 191.078952 
L 288.775636 191.078952 
L 288.775636 190.554704 
L 292.658288 190.554704 
L 292.665758 189.506209 
L 292.810536 189.506209 
L 292.83223 188.457713 
L 293.337618 188.457713 
L 293.42544 187.409218 
L 293.468756 187.409218 
L 293.468756 186.88497 
L 293.747421 186.88497 
L 293.747421 186.360722 
L 294.908319 186.360722 
L 294.908319 185.836474 
L 295.11984 185.836474 
L 295.11984 185.312227 
L 295.533902 185.312227 
L 295.533902 184.787979 
L 296.980413 184.787979 
L 296.980413 184.263731 
L 297.220117 184.263731 
L 297.220117 183.739484 
L 297.343014 183.739484 
L 297.377518 182.690988 
L 298.94781 182.690988 
L 298.94781 182.16674 
L 299.090561 182.16674 
L 299.090561 181.642493 
L 299.845273 181.642493 
L 299.845273 181.118245 
L 300.429871 181.118245 
L 300.429871 180.06975 
L 300.560585 180.06975 
L 300.560585 179.021254 
L 301.671454 179.021254 
L 301.671454 178.497006 
L 303.404105 178.497006 
L 303.404105 177.972759 
L 304.445864 177.972759 
L 304.445864 177.448511 
L 305.268186 177.448511 
L 305.378278 176.400016 
L 305.470139 176.400016 
L 305.470139 175.875768 
L 305.599941 175.875768 
L 305.599941 175.35152 
L 306.585787 175.35152 
L 306.585787 174.827272 
L 308.124381 174.827272 
L 308.124381 174.303025 
L 309.884631 174.303025 
L 309.884631 173.778777 
L 310.258985 173.778777 
L 310.258985 173.254529 
L 311.022978 173.254529 
L 311.117564 171.681786 
L 311.819045 171.681786 
L 311.838036 170.633291 
L 312.60117 170.633291 
L 312.60117 170.109043 
L 314.602145 170.109043 
L 314.618301 169.060547 
L 315.266805 169.060547 
L 315.266805 168.5363 
L 318.581817 168.5363 
L 318.581817 168.012052 
L 320.508771 168.012052 
L 320.508771 167.487804 
L 321.847693 167.487804 
L 321.862181 166.439309 
L 322.290821 166.439309 
L 322.290821 165.915061 
L 322.660802 165.915061 
L 322.660802 165.390813 
L 324.231612 165.390813 
L 324.231612 164.866566 
L 325.257586 164.866566 
L 325.257586 164.342318 
L 332.274898 164.342318 
L 332.274898 163.81807 
L 333.429677 163.81807 
L 333.429677 163.81807 
" style="fill:none;stroke:#ff00ff;stroke-linecap:square;stroke-width:1.5;"/>
   </g>
   <g id="line2d_30">
    <defs>
     <path d="M -0 8.485281 
L 5.091169 0 
L 0 -8.485281 
L -5.091169 -0 
z
" id="m7ca4c3892c" style="stroke:#ff00ff;stroke-linejoin:miter;stroke-width:1.5;"/>
    </defs>
    <g>
     <use style="fill-opacity:0;stroke:#ff00ff;stroke-linejoin:miter;stroke-width:1.5;" x="145.418666" xlink:href="#m7ca4c3892c" y="285.443541"/>
     <use style="fill-opacity:0;stroke:#ff00ff;stroke-linejoin:miter;stroke-width:1.5;" x="245.801508" xlink:href="#m7ca4c3892c" y="232.494521"/>
     <use style="fill-opacity:0;stroke:#ff00ff;stroke-linejoin:miter;stroke-width:1.5;" x="298.94781" xlink:href="#m7ca4c3892c" y="182.690988"/>
     <use style="fill-opacity:0;stroke:#ff00ff;stroke-linejoin:miter;stroke-width:1.5;" x="332.274898" xlink:href="#m7ca4c3892c" y="163.81807"/>
     <use style="fill-opacity:0;stroke:#ff00ff;stroke-linejoin:miter;stroke-width:1.5;" x="333.429677" xlink:href="#m7ca4c3892c" y="163.81807"/>
    </g>
   </g>
   <g id="line2d_31">
    <path style="fill:none;stroke:#ff00ff;stroke-linecap:square;stroke-width:1.5;"/>
    <g/>
   </g>
   <g id="line2d_32">
    <path clip-path="url(#pe4cb2f79c5)" d="M 258.037496 225.155053 
" style="fill:none;stroke:#ff00ff;stroke-linecap:square;stroke-width:1.5;"/>
    <defs>
     <path d="M -12 12 
L 12 -12 
M -12 -12 
L 12 12 
" id="m4d1c835ee6" style="stroke:#ff00ff;stroke-width:3;"/>
    </defs>
    <g clip-path="url(#pe4cb2f79c5)">
     <use style="fill:#ff00ff;stroke:#ff00ff;stroke-width:3;" x="258.037496" xlink:href="#m4d1c835ee6" y="225.155053"/>
    </g>
   </g>
   <g id="line2d_33">
    <defs>
     <path d="M 0 1.5 
C 0.397805 1.5 0.77937 1.341951 1.06066 1.06066 
C 1.341951 0.77937 1.5 0.397805 1.5 0 
C 1.5 -0.397805 1.341951 -0.77937 1.06066 -1.06066 
C 0.77937 -1.341951 0.397805 -1.5 0 -1.5 
C -0.397805 -1.5 -0.77937 -1.341951 -1.06066 -1.06066 
C -1.341951 -0.77937 -1.5 -0.397805 -1.5 0 
C -1.5 0.397805 -1.341951 0.77937 -1.06066 1.06066 
C -0.77937 1.341951 -0.397805 1.5 0 1.5 
z
" id="m5aa8cb87df" style="stroke:#ffa500;"/>
    </defs>
    <g>
     <use style="fill:#ffa500;stroke:#ffa500;" x="322.372355" xlink:href="#m5aa8cb87df" y="27.513663"/>
     <use style="fill:#ffa500;stroke:#ffa500;" x="322.372355" xlink:href="#m5aa8cb87df" y="27.513663"/>
    </g>
   </g>
   <g id="line2d_34">
    <path d="M -1 289.637523 
L 107.025911 289.637523 
L 107.025911 289.113275 
L 112.696514 289.113275 
L 112.696514 288.589027 
L 113.814914 288.589027 
L 113.874965 287.016284 
L 116.689057 287.016284 
L 116.689057 284.919293 
L 117.605876 284.919293 
L 117.605876 284.395046 
L 119.051541 284.395046 
L 119.106916 281.773807 
L 121.049611 281.773807 
L 121.079215 279.676816 
L 121.925684 279.676816 
L 121.925684 278.628321 
L 124.557701 278.628321 
L 124.557701 277.579825 
L 124.781768 277.579825 
L 124.837331 276.53133 
L 125.46756 276.53133 
L 125.46756 276.007082 
L 126.433127 276.007082 
L 126.461994 274.434339 
L 127.043343 274.434339 
L 127.043343 273.910091 
L 127.558394 273.910091 
L 127.558394 273.385844 
L 128.293446 273.385844 
L 128.293446 272.861596 
L 128.798098 272.861596 
L 128.798098 272.337348 
L 129.227077 272.337348 
L 129.312825 271.288853 
L 130.49332 271.288853 
L 130.49332 270.240357 
L 132.423148 270.240357 
L 132.423148 269.716109 
L 134.236371 269.716109 
L 134.236371 269.191862 
L 135.385712 269.191862 
L 135.385712 268.143366 
L 141.369189 268.143366 
L 141.369189 267.619119 
L 178.407587 267.619119 
L 178.430462 266.570623 
L 179.015809 266.570623 
L 179.015809 266.046375 
L 179.317053 266.046375 
L 179.411657 263.949385 
L 179.475652 263.949385 
L 179.475652 263.425137 
L 179.727647 263.425137 
L 179.727647 262.900889 
L 179.922557 262.900889 
L 180.019671 261.328146 
L 180.193551 261.328146 
L 180.193551 260.803898 
L 180.312495 260.803898 
L 180.404617 258.706907 
L 180.657369 258.706907 
L 180.657369 257.658412 
L 189.843373 257.658412 
L 189.843373 257.134164 
L 191.159182 257.134164 
L 191.257916 253.46443 
L 191.531886 253.46443 
L 191.63651 252.415935 
L 191.742935 252.415935 
L 191.742935 250.843192 
L 197.897332 250.843192 
L 197.897332 250.318944 
L 198.035514 250.318944 
L 198.035514 249.794696 
L 198.38485 249.794696 
L 198.38485 249.270448 
L 200.136741 249.270448 
L 200.194211 247.173458 
L 205.753938 247.173458 
L 205.753938 246.64921 
L 215.659521 246.64921 
L 215.659521 246.124962 
L 223.665114 246.124962 
L 223.76375 243.503724 
L 223.92069 243.503724 
L 223.92069 242.979476 
L 224.141657 242.979476 
L 224.141657 242.455228 
L 224.375118 242.455228 
L 224.375118 241.406733 
L 224.534903 241.406733 
L 224.534903 240.882485 
L 224.764693 240.882485 
L 224.764693 240.358237 
L 225.214989 240.358237 
L 225.214989 239.309742 
L 226.391607 239.309742 
L 226.391607 238.785494 
L 226.541973 238.785494 
L 226.541973 238.261246 
L 228.337879 238.261246 
L 228.337879 237.212751 
L 228.975521 237.212751 
L 228.975521 236.688503 
L 229.374866 236.688503 
L 229.374866 236.164255 
L 230.448081 236.164255 
L 230.448081 235.11576 
L 230.660078 235.11576 
L 230.660078 234.591512 
L 230.961265 234.591512 
L 230.961265 234.067265 
L 231.148113 234.067265 
L 231.148113 232.494521 
L 231.461295 232.494521 
L 231.496623 230.921778 
L 232.266048 230.921778 
L 232.266048 229.873283 
L 232.393231 229.873283 
L 232.393231 229.349035 
L 232.526803 229.349035 
L 232.526803 227.776292 
L 232.941292 227.776292 
L 232.941292 226.727797 
L 234.507638 226.727797 
L 234.514527 222.533815 
L 240.546608 222.533815 
L 240.646367 221.485319 
L 240.674512 221.485319 
L 240.714368 220.436824 
L 240.803645 220.436824 
L 240.845092 218.864081 
L 240.932365 218.864081 
L 240.932365 218.339833 
L 241.079512 218.339833 
L 241.18729 216.76709 
L 241.351633 216.76709 
L 241.411699 215.718594 
L 241.769326 215.718594 
L 241.875039 214.670099 
L 242.064738 214.670099 
L 242.138277 213.621604 
L 242.266358 213.621604 
L 242.266358 213.097356 
L 242.629732 213.097356 
L 242.74067 211.524613 
L 242.969678 211.524613 
L 242.969678 211.000365 
L 243.115714 211.000365 
L 243.207732 209.95187 
L 243.634488 209.95187 
L 243.634488 208.903374 
L 243.751858 208.903374 
L 243.751858 207.854879 
L 244.166565 207.854879 
L 244.166565 206.806383 
L 244.455612 206.806383 
L 244.455612 205.757888 
L 250.28801 205.757888 
L 250.28801 205.23364 
L 250.404048 205.23364 
L 250.404048 204.709392 
L 250.852842 204.709392 
L 250.961159 203.660897 
L 251.190717 203.660897 
L 251.190717 203.136649 
L 251.329909 203.136649 
L 251.439675 202.088154 
L 251.485618 202.088154 
L 251.581984 201.039658 
L 251.641312 201.039658 
L 251.689109 199.466915 
L 251.845664 199.466915 
L 251.886882 197.369924 
L 252.088958 197.369924 
L 252.158653 196.321429 
L 252.249453 196.321429 
L 252.249453 195.797181 
L 252.427656 195.797181 
L 252.427656 194.748686 
L 252.769624 194.748686 
L 252.880257 193.70019 
L 256.546619 193.70019 
L 256.632303 192.651695 
L 256.836572 192.651695 
L 256.836572 192.127447 
L 256.961978 192.127447 
L 256.961978 191.603199 
L 257.162903 191.603199 
L 257.269332 188.981961 
L 257.277674 188.981961 
L 257.369069 183.739484 
L 257.396264 183.739484 
L 257.428853 181.118245 
L 257.511544 181.118245 
L 257.558078 179.021254 
L 257.678366 179.021254 
L 257.764366 176.924263 
L 257.815409 176.924263 
L 257.913038 174.827272 
L 257.942483 174.827272 
L 258.000438 173.254529 
L 258.053905 173.254529 
L 258.053905 172.730281 
L 258.189328 172.730281 
L 258.258536 171.157538 
L 258.333035 171.157538 
L 258.399124 170.109043 
L 258.476976 170.109043 
L 258.561158 168.5363 
L 258.694765 168.5363 
L 258.804518 165.915061 
L 258.914887 165.915061 
L 258.963181 163.81807 
L 259.115967 163.81807 
L 259.115967 163.293823 
L 269.72472 163.293823 
L 269.828205 157.527098 
L 269.915408 157.527098 
L 269.995386 154.381611 
L 270.053372 154.381611 
L 270.078615 152.808868 
L 270.201784 152.808868 
L 270.306615 150.18763 
L 270.492711 150.18763 
L 270.492711 149.663382 
L 270.628018 149.663382 
L 270.628018 149.139134 
L 272.213379 149.139134 
L 272.287488 147.566391 
L 272.38121 147.566391 
L 272.479322 145.4694 
L 272.586341 145.4694 
L 272.674059 142.323914 
L 272.701824 142.323914 
L 272.790737 139.178427 
L 272.851533 139.178427 
L 272.946953 137.605684 
L 275.109322 137.605684 
L 275.202813 132.363207 
L 275.227868 132.363207 
L 275.316935 128.693473 
L 275.344902 128.693473 
L 275.438356 123.975244 
L 275.461433 123.975244 
L 275.510955 121.354005 
L 275.598107 121.354005 
L 275.616998 120.30551 
L 282.987514 120.30551 
L 283.098058 110.869051 
L 283.118766 110.869051 
L 283.227098 103.005335 
L 283.241368 103.005335 
L 283.34618 97.23861 
L 283.354695 97.23861 
L 283.432564 91.996133 
L 283.468566 91.996133 
L 283.477612 90.947637 
L 294.111314 90.947637 
L 294.204088 86.753656 
L 294.24655 86.753656 
L 294.24655 86.229408 
L 294.59193 86.229408 
L 294.629798 83.608169 
L 294.706933 83.608169 
L 294.75204 80.986931 
L 295.137928 80.986931 
L 295.220529 76.792949 
L 295.310575 76.792949 
L 295.310575 76.268701 
L 295.753804 76.268701 
L 295.847058 70.501976 
L 295.874577 70.501976 
L 295.940188 66.307995 
L 297.626299 66.307995 
L 297.693169 64.211004 
L 298.173947 64.211004 
L 298.202795 61.589765 
L 298.814387 61.589765 
L 298.925382 57.395783 
L 298.940222 57.395783 
L 298.940222 56.871536 
L 301.16489 56.871536 
L 301.274075 50.056315 
L 301.277695 50.056315 
L 301.31075 48.483572 
L 305.886912 48.483572 
L 305.886912 47.959324 
L 306.143856 47.959324 
L 306.173149 46.386581 
L 306.411577 46.386581 
L 306.480518 44.813838 
L 306.698345 44.813838 
L 306.779931 41.668352 
L 306.82035 41.668352 
L 306.826366 40.619856 
L 307.739649 40.619856 
L 307.778847 38.522865 
L 308.036693 38.522865 
L 308.104105 37.47437 
L 308.422972 37.47437 
L 308.487684 35.377379 
L 309.809961 35.377379 
L 309.908456 31.707645 
L 313.235354 31.707645 
L 313.235354 31.183397 
L 314.108015 31.183397 
L 314.108015 30.65915 
L 314.556365 30.65915 
L 314.556365 30.134902 
L 315.584898 30.134902 
L 315.584898 29.610654 
L 318.182884 29.610654 
L 318.199069 28.562159 
L 319.063813 28.562159 
L 319.063813 28.037911 
L 322.372355 28.037911 
L 322.372355 27.513663 
L 333.429677 27.513663 
L 333.429677 27.513663 
" style="fill:none;stroke:#ffa500;stroke-linecap:square;stroke-width:1.5;"/>
   </g>
   <g id="line2d_35">
    <defs>
     <path d="M 0 -6 
L -1.347084 -1.854102 
L -5.706339 -1.854102 
L -2.179628 0.708204 
L -3.526712 4.854102 
L -0 2.291796 
L 3.526712 4.854102 
L 2.179628 0.708204 
L 5.706339 -1.854102 
L 1.347084 -1.854102 
z
" id="m0a36758eed" style="stroke:#ffa500;stroke-linejoin:bevel;stroke-width:1.5;"/>
    </defs>
    <g>
     <use style="fill-opacity:0;stroke:#ffa500;stroke-linejoin:bevel;stroke-width:1.5;" x="141.369189" xlink:href="#m0a36758eed" y="268.143366"/>
     <use style="fill-opacity:0;stroke:#ffa500;stroke-linejoin:bevel;stroke-width:1.5;" x="215.659521" xlink:href="#m0a36758eed" y="246.64921"/>
     <use style="fill-opacity:0;stroke:#ffa500;stroke-linejoin:bevel;stroke-width:1.5;" x="275.38491" xlink:href="#m0a36758eed" y="126.596482"/>
     <use style="fill-opacity:0;stroke:#ffa500;stroke-linejoin:bevel;stroke-width:1.5;" x="322.372355" xlink:href="#m0a36758eed" y="28.037911"/>
     <use style="fill-opacity:0;stroke:#ffa500;stroke-linejoin:bevel;stroke-width:1.5;" x="322.372355" xlink:href="#m0a36758eed" y="27.513663"/>
     <use style="fill-opacity:0;stroke:#ffa500;stroke-linejoin:bevel;stroke-width:1.5;" x="333.429677" xlink:href="#m0a36758eed" y="27.513663"/>
    </g>
   </g>
   <g id="line2d_36">
    <path style="fill:none;stroke:#ffa500;stroke-linecap:square;stroke-width:1.5;"/>
    <g/>
   </g>
   <g id="line2d_37">
    <path clip-path="url(#pe4cb2f79c5)" d="M 293.81402 90.947637 
" style="fill:none;stroke:#ffa500;stroke-linecap:square;stroke-width:1.5;"/>
    <defs>
     <path d="M -12 12 
L 12 -12 
M -12 -12 
L 12 12 
" id="m55dbbfff1f" style="stroke:#ffa500;stroke-width:3;"/>
    </defs>
    <g clip-path="url(#pe4cb2f79c5)">
     <use style="fill:#ffa500;stroke:#ffa500;stroke-width:3;" x="293.81402" xlink:href="#m55dbbfff1f" y="90.947637"/>
    </g>
   </g>
   <g id="line2d_38">
    <defs>
     <path d="M 0 1.5 
C 0.397805 1.5 0.77937 1.341951 1.06066 1.06066 
C 1.341951 0.77937 1.5 0.397805 1.5 0 
C 1.5 -0.397805 1.341951 -0.77937 1.06066 -1.06066 
C 0.77937 -1.341951 0.397805 -1.5 0 -1.5 
C -0.397805 -1.5 -0.77937 -1.341951 -1.06066 -1.06066 
C -1.341951 -0.77937 -1.5 -0.397805 -1.5 0 
C -1.5 0.397805 -1.341951 0.77937 -1.06066 1.06066 
C -0.77937 1.341951 -0.397805 1.5 0 1.5 
z
" id="m36c70fa534" style="stroke:#6495ed;"/>
    </defs>
    <g>
     <use style="fill:#6495ed;stroke:#6495ed;" x="293.904221" xlink:href="#m36c70fa534" y="237.212751"/>
     <use style="fill:#6495ed;stroke:#6495ed;" x="293.904221" xlink:href="#m36c70fa534" y="237.212751"/>
    </g>
   </g>
   <g id="line2d_39">
    <path d="M -1 289.637523 
L 166.516208 289.637523 
L 166.516208 289.113275 
L 170.643112 289.113275 
L 170.643112 288.589027 
L 174.972165 288.589027 
L 175.017684 287.540532 
L 175.220195 287.540532 
L 175.32625 285.443541 
L 176.288719 285.443541 
L 176.288719 284.919293 
L 178.861127 284.919293 
L 178.861127 284.395046 
L 179.576301 284.395046 
L 179.576301 283.870798 
L 180.873843 283.870798 
L 180.873843 281.773807 
L 181.956163 281.773807 
L 181.956163 281.249559 
L 182.567787 281.249559 
L 182.567787 280.201064 
L 183.05201 280.201064 
L 183.05201 279.676816 
L 183.395373 279.676816 
L 183.395373 278.628321 
L 184.034546 278.628321 
L 184.034546 278.104073 
L 185.124899 278.104073 
L 185.124899 277.579825 
L 186.961834 277.579825 
L 186.961834 276.53133 
L 187.320699 276.53133 
L 187.320699 275.482834 
L 188.042492 275.482834 
L 188.042492 274.958587 
L 188.952372 274.958587 
L 188.977919 272.861596 
L 190.321466 272.861596 
L 190.321466 272.337348 
L 190.745594 272.337348 
L 190.745594 271.288853 
L 191.1617 271.288853 
L 191.1617 270.764605 
L 191.287426 270.764605 
L 191.287426 270.240357 
L 191.651521 270.240357 
L 191.651521 269.716109 
L 192.374591 269.716109 
L 192.408648 268.143366 
L 192.609272 268.143366 
L 192.648564 266.570623 
L 193.741992 266.570623 
L 193.741992 266.046375 
L 194.030873 266.046375 
L 194.030873 265.522128 
L 194.292756 265.522128 
L 194.292756 264.99788 
L 194.465202 264.99788 
L 194.465202 263.949385 
L 194.864768 263.949385 
L 194.864768 263.425137 
L 195.010819 263.425137 
L 195.010819 262.376641 
L 195.32101 262.376641 
L 195.412738 259.755403 
L 196.690236 259.755403 
L 196.733138 258.18266 
L 197.500626 258.18266 
L 197.500626 257.134164 
L 198.824894 257.134164 
L 198.851208 255.037173 
L 199.961659 255.037173 
L 199.961659 253.988678 
L 200.93616 253.988678 
L 200.93616 252.940182 
L 202.70862 252.940182 
L 202.70862 251.891687 
L 202.860613 251.891687 
L 202.860613 251.367439 
L 203.509045 251.367439 
L 203.514366 249.794696 
L 203.765582 249.794696 
L 203.765582 249.270448 
L 203.884302 249.270448 
L 203.884302 248.746201 
L 205.087617 248.746201 
L 205.087617 248.221953 
L 206.91256 248.221953 
L 206.91256 247.697705 
L 207.832658 247.697705 
L 207.832658 247.173458 
L 208.448217 247.173458 
L 208.531999 246.124962 
L 211.280186 246.124962 
L 211.280186 245.076467 
L 212.078571 245.076467 
L 212.078571 244.552219 
L 254.633792 244.552219 
L 254.633792 244.027971 
L 255.038453 244.027971 
L 255.038453 243.503724 
L 255.362536 243.503724 
L 255.406272 241.93098 
L 255.977535 241.93098 
L 255.977535 240.882485 
L 266.464682 240.882485 
L 266.464682 240.358237 
L 266.715788 240.358237 
L 266.715788 239.83399 
L 273.384438 239.83399 
L 273.384438 239.309742 
L 273.511957 239.309742 
L 273.511957 238.785494 
L 278.273999 238.785494 
L 278.359376 237.736999 
L 293.904221 237.736999 
L 293.904221 237.212751 
L 333.429677 237.212751 
L 333.429677 237.212751 
" style="fill:none;stroke:#6495ed;stroke-linecap:square;stroke-width:1.5;"/>
   </g>
   <g id="line2d_40">
    <defs>
     <path d="M -0 6 
L 6 -6 
L -6 -6 
z
" id="m5e3d5da559" style="stroke:#6495ed;stroke-linejoin:miter;stroke-width:1.5;"/>
    </defs>
    <g>
     <use style="fill-opacity:0;stroke:#6495ed;stroke-linejoin:miter;stroke-width:1.5;" x="190.745594" xlink:href="#m5e3d5da559" y="271.288853"/>
     <use style="fill-opacity:0;stroke:#6495ed;stroke-linejoin:miter;stroke-width:1.5;" x="255.977535" xlink:href="#m5e3d5da559" y="241.93098"/>
     <use style="fill-opacity:0;stroke:#6495ed;stroke-linejoin:miter;stroke-width:1.5;" x="293.904221" xlink:href="#m5e3d5da559" y="237.212751"/>
     <use style="fill-opacity:0;stroke:#6495ed;stroke-linejoin:miter;stroke-width:1.5;" x="333.429677" xlink:href="#m5e3d5da559" y="237.212751"/>
    </g>
   </g>
   <g id="line2d_41">
    <path style="fill:none;stroke:#6495ed;stroke-linecap:square;stroke-width:1.5;"/>
    <g/>
   </g>
   <g id="line2d_42">
    <path clip-path="url(#pe4cb2f79c5)" d="M 254.198341 244.552219 
" style="fill:none;stroke:#6495ed;stroke-linecap:square;stroke-width:1.5;"/>
    <defs>
     <path d="M -12 12 
L 12 -12 
M -12 -12 
L 12 12 
" id="mdfa552037a" style="stroke:#6495ed;stroke-width:3;"/>
    </defs>
    <g clip-path="url(#pe4cb2f79c5)">
     <use style="fill:#6495ed;stroke:#6495ed;stroke-width:3;" x="254.198341" xlink:href="#mdfa552037a" y="244.552219"/>
    </g>
   </g>
   <g id="line2d_43">
    <defs>
     <path d="M 0 1.5 
C 0.397805 1.5 0.77937 1.341951 1.06066 1.06066 
C 1.341951 0.77937 1.5 0.397805 1.5 0 
C 1.5 -0.397805 1.341951 -0.77937 1.06066 -1.06066 
C 0.77937 -1.341951 0.397805 -1.5 0 -1.5 
C -0.397805 -1.5 -0.77937 -1.341951 -1.06066 -1.06066 
C -1.341951 -0.77937 -1.5 -0.397805 -1.5 0 
C -1.5 0.397805 -1.341951 0.77937 -1.06066 1.06066 
C -0.77937 1.341951 -0.397805 1.5 0 1.5 
z
" id="medb9715f33" style="stroke:#9acd32;"/>
    </defs>
    <g>
     <use style="fill:#9acd32;stroke:#9acd32;" x="287.188455" xlink:href="#medb9715f33" y="27.513663"/>
     <use style="fill:#9acd32;stroke:#9acd32;" x="287.188455" xlink:href="#medb9715f33" y="27.513663"/>
    </g>
   </g>
   <g id="line2d_44">
    <path d="M -1 289.637523 
L 86.803007 289.637523 
L 86.875145 288.06478 
L 88.057358 288.06478 
L 88.057358 287.540532 
L 88.191249 287.540532 
L 88.191249 286.492036 
L 88.455945 286.492036 
L 88.455945 285.967789 
L 88.586781 285.967789 
L 88.586781 285.443541 
L 88.716629 285.443541 
L 88.716629 284.395046 
L 88.973423 284.395046 
L 88.973423 283.870798 
L 89.903642 283.870798 
L 89.903642 282.822302 
L 90.143435 282.822302 
L 90.143435 282.298055 
L 90.26209 282.298055 
L 90.321112 280.201064 
L 90.555195 280.201064 
L 90.555195 279.676816 
L 90.728691 279.676816 
L 90.786137 278.628321 
L 90.900455 278.628321 
L 90.900455 277.579825 
L 91.126838 277.579825 
L 91.182972 275.482834 
L 91.570859 275.482834 
L 91.570859 274.958587 
L 91.896513 274.958587 
L 91.950195 273.385844 
L 92.216118 273.385844 
L 92.216118 272.861596 
L 92.939552 272.861596 
L 92.939552 272.337348 
L 93.63379 272.337348 
L 93.63379 271.8131 
L 94.065734 271.8131 
L 94.160267 270.764605 
L 94.625292 270.764605 
L 94.625292 270.240357 
L 94.762383 270.240357 
L 94.762383 269.716109 
L 95.033331 269.716109 
L 95.033331 268.667614 
L 95.300079 268.667614 
L 95.300079 267.619119 
L 95.735668 267.619119 
L 95.735668 266.570623 
L 96.034149 266.570623 
L 96.07637 264.99788 
L 96.202413 264.99788 
L 96.244223 263.425137 
L 96.65683 263.425137 
L 96.65683 262.900889 
L 97.492375 262.900889 
L 97.492375 262.376641 
L 97.838406 262.376641 
L 97.838406 261.852394 
L 98.027681 261.852394 
L 98.027681 261.328146 
L 98.400095 261.328146 
L 98.400095 260.803898 
L 101.524628 260.803898 
L 101.524628 260.279651 
L 132.984989 260.279651 
L 132.984989 259.231155 
L 137.545186 259.231155 
L 137.545186 258.18266 
L 142.142805 258.18266 
L 142.142805 257.658412 
L 142.35596 257.658412 
L 142.35596 257.134164 
L 142.507019 257.134164 
L 142.507019 256.085669 
L 146.650503 256.085669 
L 146.650503 255.561421 
L 148.432857 255.561421 
L 148.505096 253.988678 
L 148.622836 253.988678 
L 148.674466 252.940182 
L 148.749649 252.940182 
L 148.859848 251.367439 
L 148.98688 251.367439 
L 148.98688 250.843192 
L 149.18435 250.843192 
L 149.18435 250.318944 
L 150.215382 250.318944 
L 150.215382 249.794696 
L 150.497685 249.794696 
L 150.497685 249.270448 
L 151.833741 249.270448 
L 151.88153 248.221953 
L 152.030633 248.221953 
L 152.030633 247.173458 
L 152.146075 247.173458 
L 152.146075 246.64921 
L 159.060901 246.64921 
L 159.118266 243.503724 
L 161.417952 243.503724 
L 161.417952 242.979476 
L 163.036338 242.979476 
L 163.09561 241.406733 
L 163.382202 241.406733 
L 163.397376 240.358237 
L 177.140775 240.358237 
L 177.140775 239.83399 
L 180.882385 239.83399 
L 180.907679 238.785494 
L 200.957349 238.785494 
L 201.067432 237.212751 
L 201.111155 237.212751 
L 201.111155 236.688503 
L 201.307385 236.688503 
L 201.406934 233.543017 
L 201.437343 233.543017 
L 201.437343 232.494521 
L 201.550462 232.494521 
L 201.550462 231.970274 
L 201.700897 231.970274 
L 201.803174 229.349035 
L 201.880475 229.349035 
L 201.93699 228.30054 
L 202.056861 228.30054 
L 202.131525 226.203549 
L 202.254457 226.203549 
L 202.360508 224.630806 
L 202.482516 224.630806 
L 202.579745 223.058063 
L 202.671872 223.058063 
L 202.746573 221.485319 
L 213.9694 221.485319 
L 213.9694 220.961072 
L 214.605841 220.961072 
L 214.605841 220.436824 
L 214.841584 220.436824 
L 214.841584 219.912576 
L 218.075893 219.912576 
L 218.075893 219.388328 
L 218.599902 219.388328 
L 218.618521 218.339833 
L 218.741567 218.339833 
L 218.846929 216.76709 
L 218.869306 216.76709 
L 218.869306 216.242842 
L 219.12531 216.242842 
L 219.12531 215.718594 
L 219.311094 215.718594 
L 219.40735 214.145851 
L 219.483866 214.145851 
L 219.533323 213.097356 
L 219.603821 213.097356 
L 219.708136 211.000365 
L 219.847491 211.000365 
L 219.946124 209.427622 
L 220.950112 209.427622 
L 220.950112 208.903374 
L 221.06806 208.903374 
L 221.06806 208.379126 
L 226.7099 208.379126 
L 226.749432 207.330631 
L 227.048857 207.330631 
L 227.048857 206.806383 
L 227.542854 206.806383 
L 227.542854 206.282136 
L 227.676697 206.282136 
L 227.740417 204.185145 
L 228.085829 204.185145 
L 228.118135 203.136649 
L 228.241585 203.136649 
L 228.241585 202.612401 
L 228.377897 202.612401 
L 228.483732 200.515411 
L 228.60905 200.515411 
L 228.659549 199.466915 
L 228.784785 199.466915 
L 228.863471 198.41842 
L 229.117216 198.41842 
L 229.134135 197.369924 
L 229.232716 197.369924 
L 229.232716 196.845677 
L 230.388574 196.845677 
L 230.388574 196.321429 
L 232.159394 196.321429 
L 232.256643 195.272933 
L 232.887925 195.272933 
L 232.887925 194.748686 
L 233.092311 194.748686 
L 233.092311 194.224438 
L 233.22955 194.224438 
L 233.22955 193.70019 
L 233.362412 193.70019 
L 233.362412 193.175943 
L 233.684491 193.175943 
L 233.69404 192.127447 
L 233.829476 192.127447 
L 233.881139 191.078952 
L 234.004241 191.078952 
L 234.097674 188.457713 
L 234.155904 188.457713 
L 234.159351 187.409218 
L 234.274844 187.409218 
L 234.274844 186.88497 
L 234.433271 186.88497 
L 234.526123 184.787979 
L 234.594634 184.787979 
L 234.624622 183.215236 
L 234.864503 183.215236 
L 234.864503 182.690988 
L 235.12348 182.690988 
L 235.12348 182.16674 
L 237.521007 182.16674 
L 237.630385 181.118245 
L 237.685505 181.118245 
L 237.77037 180.06975 
L 237.819328 180.06975 
L 237.902483 178.497006 
L 237.99133 178.497006 
L 238.088708 176.924263 
L 238.107907 176.924263 
L 238.209925 175.35152 
L 238.234647 175.35152 
L 238.261223 173.778777 
L 238.413863 173.778777 
L 238.519203 172.206034 
L 238.753349 172.206034 
L 238.753349 171.681786 
L 239.050605 171.681786 
L 239.107435 170.109043 
L 239.548991 170.109043 
L 239.548991 169.584795 
L 239.801321 169.584795 
L 239.801321 169.060547 
L 240.359352 169.060547 
L 240.359352 168.5363 
L 240.751736 168.5363 
L 240.751736 168.012052 
L 241.366574 168.012052 
L 241.445319 166.439309 
L 241.6267 166.439309 
L 241.629272 165.390813 
L 241.795101 165.390813 
L 241.813373 164.342318 
L 241.920353 164.342318 
L 242.004265 162.245327 
L 242.066331 162.245327 
L 242.066331 161.721079 
L 242.340833 161.721079 
L 242.340833 161.196832 
L 242.900793 161.196832 
L 242.900793 160.672584 
L 243.602253 160.672584 
L 243.693384 159.624089 
L 243.753468 159.624089 
L 243.753468 159.099841 
L 243.867649 159.099841 
L 243.868237 158.051345 
L 244.11329 158.051345 
L 244.173838 156.478602 
L 244.24385 156.478602 
L 244.24385 155.954354 
L 244.554086 155.954354 
L 244.554553 154.905859 
L 244.719433 154.905859 
L 244.763991 153.857364 
L 244.837451 153.857364 
L 244.940534 152.28462 
L 245.078265 152.28462 
L 245.094598 151.236125 
L 245.241974 151.236125 
L 245.279121 150.18763 
L 245.809789 150.18763 
L 245.809789 149.663382 
L 246.057614 149.663382 
L 246.057614 149.139134 
L 246.407456 149.139134 
L 246.407456 148.614886 
L 246.525991 148.614886 
L 246.569076 147.042143 
L 246.648966 147.042143 
L 246.648966 146.517896 
L 246.793322 146.517896 
L 246.8646 144.945152 
L 246.955621 144.945152 
L 247.039134 143.372409 
L 247.163694 143.372409 
L 247.252822 141.799666 
L 247.569242 141.799666 
L 247.569242 141.275418 
L 247.731163 141.275418 
L 247.733838 140.226923 
L 247.94475 140.226923 
L 247.94475 139.702675 
L 248.520538 139.702675 
L 248.530682 138.65418 
L 248.659978 138.65418 
L 248.659978 138.129932 
L 248.84015 138.129932 
L 248.918473 136.032941 
L 248.987541 136.032941 
L 249.072604 134.460198 
L 249.456481 134.460198 
L 249.562952 132.887455 
L 249.886146 132.887455 
L 249.886146 132.363207 
L 250.009637 132.363207 
L 250.11221 131.314712 
L 250.133866 131.314712 
L 250.133866 130.790464 
L 250.544534 130.790464 
L 250.544534 130.266216 
L 250.780384 130.266216 
L 250.850293 129.217721 
L 250.91133 129.217721 
L 250.91133 128.693473 
L 251.034707 128.693473 
L 251.104586 127.644978 
L 251.175444 127.644978 
L 251.197268 126.596482 
L 251.373103 126.596482 
L 251.433024 125.023739 
L 251.541168 125.023739 
L 251.541168 124.499491 
L 252.132754 124.499491 
L 252.222148 123.450996 
L 252.321607 123.450996 
L 252.344507 122.4025 
L 252.608194 122.4025 
L 252.679016 120.829757 
L 252.760335 120.829757 
L 252.772194 119.781262 
L 253.023544 119.781262 
L 253.025989 118.732766 
L 253.47762 118.732766 
L 253.58735 117.684271 
L 253.701999 117.684271 
L 253.701999 117.160023 
L 253.900473 117.160023 
L 253.983436 115.063032 
L 254.137323 115.063032 
L 254.157728 114.014537 
L 254.57718 114.014537 
L 254.57718 113.490289 
L 254.719311 113.490289 
L 254.719311 112.966042 
L 254.895976 112.966042 
L 254.895976 112.441794 
L 255.045976 112.441794 
L 255.045976 111.917546 
L 255.29987 111.917546 
L 255.29987 111.393298 
L 255.422944 111.393298 
L 255.456639 110.344803 
L 255.683585 110.344803 
L 255.731783 109.296308 
L 256.30189 109.296308 
L 256.398509 106.675069 
L 256.440519 106.675069 
L 256.440519 106.150821 
L 256.634147 106.150821 
L 256.634147 105.626573 
L 256.83345 105.626573 
L 256.90351 104.578078 
L 257.003269 104.578078 
L 257.113704 103.005335 
L 257.282421 103.005335 
L 257.389694 100.908344 
L 257.558145 100.908344 
L 257.58973 99.859849 
L 257.803174 99.859849 
L 257.803174 99.335601 
L 258.081467 99.335601 
L 258.172201 98.287105 
L 258.203937 98.287105 
L 258.282709 96.190115 
L 258.334384 96.190115 
L 258.334384 95.665867 
L 258.511071 95.665867 
L 258.511071 95.141619 
L 258.709087 95.141619 
L 258.709087 94.617371 
L 258.983275 94.617371 
L 259.052816 93.044628 
L 259.247024 93.044628 
L 259.247024 92.520381 
L 259.406904 92.520381 
L 259.434062 90.947637 
L 259.717289 90.947637 
L 259.758102 89.899142 
L 259.947281 89.899142 
L 259.947281 89.374894 
L 260.172436 89.374894 
L 260.172436 88.850646 
L 260.429546 88.850646 
L 260.457263 87.802151 
L 260.547923 87.802151 
L 260.547923 87.277903 
L 260.752515 87.277903 
L 260.796448 86.229408 
L 261.003247 86.229408 
L 261.003247 85.70516 
L 261.150799 85.70516 
L 261.150799 85.180912 
L 261.451891 85.180912 
L 261.451891 84.656665 
L 261.582947 84.656665 
L 261.582947 84.132417 
L 261.854788 84.132417 
L 261.886324 83.083922 
L 262.089441 83.083922 
L 262.19213 82.035426 
L 262.237118 82.035426 
L 262.320611 80.986931 
L 262.459182 80.986931 
L 262.459182 80.462683 
L 262.608002 80.462683 
L 262.608002 79.938435 
L 262.833762 79.938435 
L 262.848694 78.88994 
L 263.13384 78.88994 
L 263.150523 77.841444 
L 263.365225 77.841444 
L 263.365225 77.317197 
L 263.754887 77.317197 
L 263.819595 76.268701 
L 264.036598 76.268701 
L 264.036598 75.744454 
L 264.157142 75.744454 
L 264.17312 74.695958 
L 264.441314 74.695958 
L 264.456838 73.647463 
L 264.6479 73.647463 
L 264.6479 73.123215 
L 264.813529 73.123215 
L 264.823663 72.074719 
L 264.93386 72.074719 
L 265.002252 70.501976 
L 265.256073 70.501976 
L 265.295748 69.453481 
L 265.413601 69.453481 
L 265.476425 68.404985 
L 265.690874 68.404985 
L 265.705029 67.35649 
L 265.965816 67.35649 
L 265.965816 66.832242 
L 266.247785 66.832242 
L 266.247785 66.307995 
L 266.403892 66.307995 
L 266.496382 65.259499 
L 266.552499 65.259499 
L 266.591467 64.211004 
L 267.074516 64.211004 
L 267.074516 63.686756 
L 267.438981 63.686756 
L 267.484895 62.114013 
L 267.67492 62.114013 
L 267.76331 60.54127 
L 268.115477 60.54127 
L 268.177871 59.492774 
L 268.599162 59.492774 
L 268.628972 58.444279 
L 268.771997 58.444279 
L 268.771997 57.920031 
L 269.063512 57.920031 
L 269.063512 57.395783 
L 269.213996 57.395783 
L 269.231491 56.347288 
L 269.823651 56.347288 
L 269.823651 55.82304 
L 269.943355 55.82304 
L 269.993323 54.774545 
L 270.125815 54.774545 
L 270.188532 53.201802 
L 270.333757 53.201802 
L 270.333757 52.677554 
L 270.471602 52.677554 
L 270.471602 52.153306 
L 270.961138 52.153306 
L 270.961138 51.629058 
L 271.20636 51.629058 
L 271.21618 50.580563 
L 271.335067 50.580563 
L 271.335067 50.056315 
L 271.564176 50.056315 
L 271.564176 49.532068 
L 271.94883 49.532068 
L 272.003646 47.959324 
L 272.436211 47.959324 
L 272.436211 47.435077 
L 272.552738 47.435077 
L 272.552738 46.910829 
L 272.701134 46.910829 
L 272.74559 45.862334 
L 273.357896 45.862334 
L 273.417296 44.28959 
L 273.557857 44.28959 
L 273.557857 43.765343 
L 274.082632 43.765343 
L 274.12389 42.716847 
L 274.845682 42.716847 
L 274.845682 42.192599 
L 274.970213 42.192599 
L 274.970213 41.668352 
L 275.142389 41.668352 
L 275.219571 40.619856 
L 275.323481 40.619856 
L 275.323481 40.095609 
L 275.952168 40.095609 
L 275.952168 39.571361 
L 276.682897 39.571361 
L 276.682897 39.047113 
L 276.880911 39.047113 
L 276.880911 38.522865 
L 277.095341 38.522865 
L 277.095341 37.998618 
L 277.854362 37.998618 
L 277.854362 37.47437 
L 278.538829 37.47437 
L 278.538829 36.950122 
L 278.834803 36.950122 
L 278.834803 36.425875 
L 279.151184 36.425875 
L 279.188821 35.377379 
L 280.287908 35.377379 
L 280.287908 34.853131 
L 280.436017 34.853131 
L 280.436017 34.328884 
L 280.570974 34.328884 
L 280.570974 33.804636 
L 280.91703 33.804636 
L 280.91703 33.280388 
L 281.171753 33.280388 
L 281.171753 32.756141 
L 281.426865 32.756141 
L 281.475721 31.707645 
L 282.128745 31.707645 
L 282.128745 31.183397 
L 282.836573 31.183397 
L 282.836573 30.65915 
L 283.209099 30.65915 
L 283.209099 30.134902 
L 284.209624 30.134902 
L 284.209624 29.610654 
L 285.3358 29.610654 
L 285.372004 28.562159 
L 285.60031 28.562159 
L 285.60031 28.037911 
L 287.188455 28.037911 
L 287.188455 27.513663 
L 333.429677 27.513663 
L 333.429677 27.513663 
" style="fill:none;stroke:#9acd32;stroke-linecap:square;stroke-width:1.5;"/>
   </g>
   <g id="line2d_45">
    <defs>
     <path d="M 0 -6 
L -6 6 
L 6 6 
z
" id="m3de5e53c00" style="stroke:#9acd32;stroke-linejoin:miter;stroke-width:1.5;"/>
    </defs>
    <g>
     <use style="fill-opacity:0;stroke:#9acd32;stroke-linejoin:miter;stroke-width:1.5;" x="88.716629" xlink:href="#m3de5e53c00" y="284.395046"/>
     <use style="fill-opacity:0;stroke:#9acd32;stroke-linejoin:miter;stroke-width:1.5;" x="163.070724" xlink:href="#m3de5e53c00" y="241.93098"/>
     <use style="fill-opacity:0;stroke:#9acd32;stroke-linejoin:miter;stroke-width:1.5;" x="238.118271" xlink:href="#m3de5e53c00" y="175.875768"/>
     <use style="fill-opacity:0;stroke:#9acd32;stroke-linejoin:miter;stroke-width:1.5;" x="272.74559" xlink:href="#m3de5e53c00" y="45.862334"/>
     <use style="fill-opacity:0;stroke:#9acd32;stroke-linejoin:miter;stroke-width:1.5;" x="287.188455" xlink:href="#m3de5e53c00" y="27.513663"/>
     <use style="fill-opacity:0;stroke:#9acd32;stroke-linejoin:miter;stroke-width:1.5;" x="333.429677" xlink:href="#m3de5e53c00" y="27.513663"/>
    </g>
   </g>
   <g id="line2d_46">
    <path style="fill:none;stroke:#9acd32;stroke-linecap:square;stroke-width:1.5;"/>
    <g/>
   </g>
   <g id="line2d_47">
    <path clip-path="url(#pe4cb2f79c5)" d="M 212.203489 221.485319 
" style="fill:none;stroke:#9acd32;stroke-linecap:square;stroke-width:1.5;"/>
    <defs>
     <path d="M -12 12 
L 12 -12 
M -12 -12 
L 12 12 
" id="m30f3b8df2e" style="stroke:#9acd32;stroke-width:3;"/>
    </defs>
    <g clip-path="url(#pe4cb2f79c5)">
     <use style="fill:#9acd32;stroke:#9acd32;stroke-width:3;" x="212.203489" xlink:href="#m30f3b8df2e" y="221.485319"/>
    </g>
   </g>
   <g id="line2d_48">
    <path d="M 333.429677 237.212751 
L 363.933742 289.532673 
" style="fill:none;stroke:#6495ed;stroke-linecap:square;stroke-width:1.5;"/>
    <g>
     <use style="fill-opacity:0;stroke:#6495ed;stroke-linejoin:miter;stroke-width:1.5;" x="333.429677" xlink:href="#m5e3d5da559" y="237.212751"/>
     <use style="fill-opacity:0;stroke:#6495ed;stroke-linejoin:miter;stroke-width:1.5;" x="363.933742" xlink:href="#m5e3d5da559" y="289.532673"/>
    </g>
   </g>
   <g id="line2d_49">
    <path d="M 333.429677 163.81807 
L 363.933742 225.364752 
" style="fill:none;stroke:#ff00ff;stroke-linecap:square;stroke-width:1.5;"/>
    <g>
     <use style="fill-opacity:0;stroke:#ff00ff;stroke-linejoin:miter;stroke-width:1.5;" x="333.429677" xlink:href="#m7ca4c3892c" y="163.81807"/>
     <use style="fill-opacity:0;stroke:#ff00ff;stroke-linejoin:miter;stroke-width:1.5;" x="363.933742" xlink:href="#m7ca4c3892c" y="225.364752"/>
    </g>
   </g>
   <g id="line2d_50">
    <path d="M 333.429677 27.513663 
L 363.933742 161.196832 
" style="fill:none;stroke:#ffa500;stroke-linecap:square;stroke-width:1.5;"/>
    <g>
     <use style="fill-opacity:0;stroke:#ffa500;stroke-linejoin:bevel;stroke-width:1.5;" x="333.429677" xlink:href="#m0a36758eed" y="27.513663"/>
     <use style="fill-opacity:0;stroke:#ffa500;stroke-linejoin:bevel;stroke-width:1.5;" x="363.933742" xlink:href="#m0a36758eed" y="161.196832"/>
    </g>
   </g>
   <g id="line2d_51">
    <path d="M 333.429677 27.513663 
L 363.933742 97.028911 
" style="fill:none;stroke:#9acd32;stroke-linecap:square;stroke-width:1.5;"/>
    <g>
     <use style="fill-opacity:0;stroke:#9acd32;stroke-linejoin:miter;stroke-width:1.5;" x="333.429677" xlink:href="#m3de5e53c00" y="27.513663"/>
     <use style="fill-opacity:0;stroke:#9acd32;stroke-linejoin:miter;stroke-width:1.5;" x="363.933742" xlink:href="#m3de5e53c00" y="97.028911"/>
    </g>
   </g>
   <g id="line2d_52">
    <path d="M 333.429677 294.88 
L 333.429677 27.513663 
" style="fill:none;stroke:#000000;stroke-linecap:square;stroke-width:1.5;"/>
   </g>
   <g id="patch_3">
    <path d="M 56.12 294.88 
L 56.12 24.84 
" style="fill:none;stroke:#000000;stroke-linecap:square;stroke-linejoin:miter;stroke-width:0.8;"/>
   </g>
   <g id="patch_4">
    <path d="M 399.984 294.88 
L 399.984 24.84 
" style="fill:none;stroke:#000000;stroke-linecap:square;stroke-linejoin:miter;stroke-width:0.8;"/>
   </g>
   <g id="patch_5">
    <path d="M 56.12 294.88 
L 399.984 294.88 
" style="fill:none;stroke:#000000;stroke-linecap:square;stroke-linejoin:miter;stroke-width:0.8;"/>
   </g>
   <g id="patch_6">
    <path d="M 56.12 24.84 
L 399.984 24.84 
" style="fill:none;stroke:#000000;stroke-linecap:square;stroke-linejoin:miter;stroke-width:0.8;"/>
   </g>
   <g id="text_14">
    <!-- GA -->
    <defs>
     <path d="M 59.515625 10.40625 
L 59.515625 29.984375 
L 43.40625 29.984375 
L 43.40625 38.09375 
L 69.28125 38.09375 
L 69.28125 6.78125 
Q 63.578125 2.734375 56.6875 0.65625 
Q 49.8125 -1.421875 42 -1.421875 
Q 24.90625 -1.421875 15.25 8.5625 
Q 5.609375 18.5625 5.609375 36.375 
Q 5.609375 54.25 15.25 64.234375 
Q 24.90625 74.21875 42 74.21875 
Q 49.125 74.21875 55.546875 72.453125 
Q 61.96875 70.703125 67.390625 67.28125 
L 67.390625 56.78125 
Q 61.921875 61.421875 55.765625 63.765625 
Q 49.609375 66.109375 42.828125 66.109375 
Q 29.4375 66.109375 22.71875 58.640625 
Q 16.015625 51.171875 16.015625 36.375 
Q 16.015625 21.625 22.71875 14.15625 
Q 29.4375 6.6875 42.828125 6.6875 
Q 48.046875 6.6875 52.140625 7.59375 
Q 56.25 8.5 59.515625 10.40625 
z
" id="DejaVuSans-47"/>
     <path d="M 34.1875 63.1875 
L 20.796875 26.90625 
L 47.609375 26.90625 
z
M 28.609375 72.90625 
L 39.796875 72.90625 
L 67.578125 0 
L 57.328125 0 
L 50.6875 18.703125 
L 17.828125 18.703125 
L 11.1875 0 
L 0.78125 0 
z
" id="DejaVuSans-41"/>
    </defs>
    <g transform="translate(369.479935 294.223611)scale(0.17 -0.17)">
     <use xlink:href="#DejaVuSans-47"/>
     <use x="77.490234" xlink:href="#DejaVuSans-41"/>
    </g>
   </g>
   <g id="text_15">
    <!-- ALPS -->
    <defs>
     <path d="M 9.8125 72.90625 
L 19.671875 72.90625 
L 19.671875 8.296875 
L 55.171875 8.296875 
L 55.171875 0 
L 9.8125 0 
z
" id="DejaVuSans-4c"/>
     <path d="M 19.671875 64.796875 
L 19.671875 37.40625 
L 32.078125 37.40625 
Q 38.96875 37.40625 42.71875 40.96875 
Q 46.484375 44.53125 46.484375 51.125 
Q 46.484375 57.671875 42.71875 61.234375 
Q 38.96875 64.796875 32.078125 64.796875 
z
M 9.8125 72.90625 
L 32.078125 72.90625 
Q 44.34375 72.90625 50.609375 67.359375 
Q 56.890625 61.8125 56.890625 51.125 
Q 56.890625 40.328125 50.609375 34.8125 
Q 44.34375 29.296875 32.078125 29.296875 
L 19.671875 29.296875 
L 19.671875 0 
L 9.8125 0 
z
" id="DejaVuSans-50"/>
     <path d="M 53.515625 70.515625 
L 53.515625 60.890625 
Q 47.90625 63.578125 42.921875 64.890625 
Q 37.9375 66.21875 33.296875 66.21875 
Q 25.25 66.21875 20.875 63.09375 
Q 16.5 59.96875 16.5 54.203125 
Q 16.5 49.359375 19.40625 46.890625 
Q 22.3125 44.4375 30.421875 42.921875 
L 36.375 41.703125 
Q 47.40625 39.59375 52.65625 34.296875 
Q 57.90625 29 57.90625 20.125 
Q 57.90625 9.515625 50.796875 4.046875 
Q 43.703125 -1.421875 29.984375 -1.421875 
Q 24.8125 -1.421875 18.96875 -0.25 
Q 13.140625 0.921875 6.890625 3.21875 
L 6.890625 13.375 
Q 12.890625 10.015625 18.65625 8.296875 
Q 24.421875 6.59375 29.984375 6.59375 
Q 38.421875 6.59375 43.015625 9.90625 
Q 47.609375 13.234375 47.609375 19.390625 
Q 47.609375 24.75 44.3125 27.78125 
Q 41.015625 30.8125 33.5 32.328125 
L 27.484375 33.5 
Q 16.453125 35.6875 11.515625 40.375 
Q 6.59375 45.0625 6.59375 53.421875 
Q 6.59375 63.09375 13.40625 68.65625 
Q 20.21875 74.21875 32.171875 74.21875 
Q 37.3125 74.21875 42.625 73.28125 
Q 47.953125 72.359375 53.515625 70.515625 
z
" id="DejaVuSans-53"/>
    </defs>
    <g transform="translate(369.479935 230.05569)scale(0.17 -0.17)">
     <use xlink:href="#DejaVuSans-41"/>
     <use x="68.408203" xlink:href="#DejaVuSans-4c"/>
     <use x="124.121094" xlink:href="#DejaVuSans-50"/>
     <use x="184.423828" xlink:href="#DejaVuSans-53"/>
    </g>
   </g>
   <g id="text_16">
    <!-- DASA -->
    <defs>
     <path d="M 19.671875 64.796875 
L 19.671875 8.109375 
L 31.59375 8.109375 
Q 46.6875 8.109375 53.6875 14.9375 
Q 60.6875 21.78125 60.6875 36.53125 
Q 60.6875 51.171875 53.6875 57.984375 
Q 46.6875 64.796875 31.59375 64.796875 
z
M 9.8125 72.90625 
L 30.078125 72.90625 
Q 51.265625 72.90625 61.171875 64.09375 
Q 71.09375 55.28125 71.09375 36.53125 
Q 71.09375 17.671875 61.125 8.828125 
Q 51.171875 0 30.078125 0 
L 9.8125 0 
z
" id="DejaVuSans-44"/>
    </defs>
    <g transform="translate(369.479935 165.887769)scale(0.17 -0.17)">
     <use xlink:href="#DejaVuSans-44"/>
     <use x="76.986328" xlink:href="#DejaVuSans-41"/>
     <use x="145.394531" xlink:href="#DejaVuSans-53"/>
     <use x="208.886719" xlink:href="#DejaVuSans-41"/>
    </g>
   </g>
   <g id="text_17">
    <!-- Rosenbroc -->
    <defs>
     <path d="M 44.390625 34.1875 
Q 47.5625 33.109375 50.5625 29.59375 
Q 53.5625 26.078125 56.59375 19.921875 
L 66.609375 0 
L 56 0 
L 46.6875 18.703125 
Q 43.0625 26.03125 39.671875 28.421875 
Q 36.28125 30.8125 30.421875 30.8125 
L 19.671875 30.8125 
L 19.671875 0 
L 9.8125 0 
L 9.8125 72.90625 
L 32.078125 72.90625 
Q 44.578125 72.90625 50.734375 67.671875 
Q 56.890625 62.453125 56.890625 51.90625 
Q 56.890625 45.015625 53.6875 40.46875 
Q 50.484375 35.9375 44.390625 34.1875 
z
M 19.671875 64.796875 
L 19.671875 38.921875 
L 32.078125 38.921875 
Q 39.203125 38.921875 42.84375 42.21875 
Q 46.484375 45.515625 46.484375 51.90625 
Q 46.484375 58.296875 42.84375 61.546875 
Q 39.203125 64.796875 32.078125 64.796875 
z
" id="DejaVuSans-52"/>
     <path d="M 48.6875 27.296875 
Q 48.6875 37.203125 44.609375 42.84375 
Q 40.53125 48.484375 33.40625 48.484375 
Q 26.265625 48.484375 22.1875 42.84375 
Q 18.109375 37.203125 18.109375 27.296875 
Q 18.109375 17.390625 22.1875 11.75 
Q 26.265625 6.109375 33.40625 6.109375 
Q 40.53125 6.109375 44.609375 11.75 
Q 48.6875 17.390625 48.6875 27.296875 
z
M 18.109375 46.390625 
Q 20.953125 51.265625 25.265625 53.625 
Q 29.59375 56 35.59375 56 
Q 45.5625 56 51.78125 48.09375 
Q 58.015625 40.1875 58.015625 27.296875 
Q 58.015625 14.40625 51.78125 6.484375 
Q 45.5625 -1.421875 35.59375 -1.421875 
Q 29.59375 -1.421875 25.265625 0.953125 
Q 20.953125 3.328125 18.109375 8.203125 
L 18.109375 0 
L 9.078125 0 
L 9.078125 75.984375 
L 18.109375 75.984375 
z
" id="DejaVuSans-62"/>
    </defs>
    <g transform="translate(369.479935 101.719848)scale(0.17 -0.17)">
     <use xlink:href="#DejaVuSans-52"/>
     <use x="69.419922" xlink:href="#DejaVuSans-6f"/>
     <use x="130.601562" xlink:href="#DejaVuSans-73"/>
     <use x="182.701172" xlink:href="#DejaVuSans-65"/>
     <use x="244.224609" xlink:href="#DejaVuSans-6e"/>
     <use x="307.603516" xlink:href="#DejaVuSans-62"/>
     <use x="371.080078" xlink:href="#DejaVuSans-72"/>
     <use x="412.162109" xlink:href="#DejaVuSans-6f"/>
     <use x="473.34375" xlink:href="#DejaVuSans-63"/>
    </g>
   </g>
   <g id="text_18">
    <!-- best 2009 -->
    <defs>
     <path d="M 10.984375 1.515625 
L 10.984375 10.5 
Q 14.703125 8.734375 18.5 7.8125 
Q 22.3125 6.890625 25.984375 6.890625 
Q 35.75 6.890625 40.890625 13.453125 
Q 46.046875 20.015625 46.78125 33.40625 
Q 43.953125 29.203125 39.59375 26.953125 
Q 35.25 24.703125 29.984375 24.703125 
Q 19.046875 24.703125 12.671875 31.3125 
Q 6.296875 37.9375 6.296875 49.421875 
Q 6.296875 60.640625 12.9375 67.421875 
Q 19.578125 74.21875 30.609375 74.21875 
Q 43.265625 74.21875 49.921875 64.515625 
Q 56.59375 54.828125 56.59375 36.375 
Q 56.59375 19.140625 48.40625 8.859375 
Q 40.234375 -1.421875 26.421875 -1.421875 
Q 22.703125 -1.421875 18.890625 -0.6875 
Q 15.09375 0.046875 10.984375 1.515625 
z
M 30.609375 32.421875 
Q 37.25 32.421875 41.125 36.953125 
Q 45.015625 41.5 45.015625 49.421875 
Q 45.015625 57.28125 41.125 61.84375 
Q 37.25 66.40625 30.609375 66.40625 
Q 23.96875 66.40625 20.09375 61.84375 
Q 16.21875 57.28125 16.21875 49.421875 
Q 16.21875 41.5 20.09375 36.953125 
Q 23.96875 32.421875 30.609375 32.421875 
z
" id="DejaVuSans-39"/>
    </defs>
    <g transform="translate(369.479935 37.551928)scale(0.17 -0.17)">
     <use xlink:href="#DejaVuSans-62"/>
     <use x="63.476562" xlink:href="#DejaVuSans-65"/>
     <use x="125" xlink:href="#DejaVuSans-73"/>
     <use x="177.099609" xlink:href="#DejaVuSans-74"/>
     <use x="216.308594" xlink:href="#DejaVuSans-20"/>
     <use x="248.095703" xlink:href="#DejaVuSans-32"/>
     <use x="311.71875" xlink:href="#DejaVuSans-30"/>
     <use x="375.341797" xlink:href="#DejaVuSans-30"/>
     <use x="438.964844" xlink:href="#DejaVuSans-39"/>
    </g>
   </g>
   <g id="text_19">
    <!-- bbob f22, 40-D -->
    <g transform="translate(59.55864 35.290806)scale(0.102 -0.102)">
     <use xlink:href="#DejaVuSans-62"/>
     <use x="63.476562" xlink:href="#DejaVuSans-62"/>
     <use x="126.953125" xlink:href="#DejaVuSans-6f"/>
     <use x="188.134766" xlink:href="#DejaVuSans-62"/>
     <use x="251.611328" xlink:href="#DejaVuSans-20"/>
     <use x="283.398438" xlink:href="#DejaVuSans-66"/>
     <use x="318.603516" xlink:href="#DejaVuSans-32"/>
     <use x="382.226562" xlink:href="#DejaVuSans-32"/>
     <use x="445.849609" xlink:href="#DejaVuSans-2c"/>
     <use x="477.636719" xlink:href="#DejaVuSans-20"/>
     <use x="509.423828" xlink:href="#DejaVuSans-34"/>
     <use x="573.046875" xlink:href="#DejaVuSans-30"/>
     <use x="636.669922" xlink:href="#DejaVuSans-2d"/>
     <use x="672.753906" xlink:href="#DejaVuSans-44"/>
    </g>
    <!-- 51 targets: 100..1e-08 -->
    <defs>
     <path d="M 10.796875 72.90625 
L 49.515625 72.90625 
L 49.515625 64.59375 
L 19.828125 64.59375 
L 19.828125 46.734375 
Q 21.96875 47.46875 24.109375 47.828125 
Q 26.265625 48.1875 28.421875 48.1875 
Q 40.625 48.1875 47.75 41.5 
Q 54.890625 34.8125 54.890625 23.390625 
Q 54.890625 11.625 47.5625 5.09375 
Q 40.234375 -1.421875 26.90625 -1.421875 
Q 22.3125 -1.421875 17.546875 -0.640625 
Q 12.796875 0.140625 7.71875 1.703125 
L 7.71875 11.625 
Q 12.109375 9.234375 16.796875 8.0625 
Q 21.484375 6.890625 26.703125 6.890625 
Q 35.15625 6.890625 40.078125 11.328125 
Q 45.015625 15.765625 45.015625 23.390625 
Q 45.015625 31 40.078125 35.4375 
Q 35.15625 39.890625 26.703125 39.890625 
Q 22.75 39.890625 18.8125 39.015625 
Q 14.890625 38.140625 10.796875 36.28125 
z
" id="DejaVuSans-35"/>
     <path d="M 11.71875 12.40625 
L 22.015625 12.40625 
L 22.015625 0 
L 11.71875 0 
z
M 11.71875 51.703125 
L 22.015625 51.703125 
L 22.015625 39.3125 
L 11.71875 39.3125 
z
" id="DejaVuSans-3a"/>
    </defs>
    <g transform="translate(59.55864 46.712575)scale(0.102 -0.102)">
     <use xlink:href="#DejaVuSans-35"/>
     <use x="63.623047" xlink:href="#DejaVuSans-31"/>
     <use x="127.246094" xlink:href="#DejaVuSans-20"/>
     <use x="159.033203" xlink:href="#DejaVuSans-74"/>
     <use x="198.242188" xlink:href="#DejaVuSans-61"/>
     <use x="259.521484" xlink:href="#DejaVuSans-72"/>
     <use x="300.619141" xlink:href="#DejaVuSans-67"/>
     <use x="364.095703" xlink:href="#DejaVuSans-65"/>
     <use x="425.619141" xlink:href="#DejaVuSans-74"/>
     <use x="464.828125" xlink:href="#DejaVuSans-73"/>
     <use x="516.927734" xlink:href="#DejaVuSans-3a"/>
     <use x="550.619141" xlink:href="#DejaVuSans-20"/>
     <use x="582.40625" xlink:href="#DejaVuSans-31"/>
     <use x="646.029297" xlink:href="#DejaVuSans-30"/>
     <use x="709.652344" xlink:href="#DejaVuSans-30"/>
     <use x="773.275391" xlink:href="#DejaVuSans-2e"/>
     <use x="805.0625" xlink:href="#DejaVuSans-2e"/>
     <use x="836.849609" xlink:href="#DejaVuSans-31"/>
     <use x="900.472656" xlink:href="#DejaVuSans-65"/>
     <use x="961.996094" xlink:href="#DejaVuSans-2d"/>
     <use x="998.080078" xlink:href="#DejaVuSans-30"/>
     <use x="1061.703125" xlink:href="#DejaVuSans-38"/>
    </g>
    <!-- 15 instances -->
    <g transform="translate(59.55864 58.134344)scale(0.102 -0.102)">
     <use xlink:href="#DejaVuSans-31"/>
     <use x="63.623047" xlink:href="#DejaVuSans-35"/>
     <use x="127.246094" xlink:href="#DejaVuSans-20"/>
     <use x="159.033203" xlink:href="#DejaVuSans-69"/>
     <use x="186.816406" xlink:href="#DejaVuSans-6e"/>
     <use x="250.195312" xlink:href="#DejaVuSans-73"/>
     <use x="302.294922" xlink:href="#DejaVuSans-74"/>
     <use x="341.503906" xlink:href="#DejaVuSans-61"/>
     <use x="402.783203" xlink:href="#DejaVuSans-6e"/>
     <use x="466.162109" xlink:href="#DejaVuSans-63"/>
     <use x="521.142578" xlink:href="#DejaVuSans-65"/>
     <use x="582.666016" xlink:href="#DejaVuSans-73"/>
    </g>
   </g>
   <g id="text_20">
    <!-- v-coco-version -->
    <g style="fill:#808080;" transform="translate(191.556688 290.099912)scale(0.1 -0.1)">
     <use xlink:href="#DejaVuSans-76"/>
     <use x="59.148438" xlink:href="#DejaVuSans-2d"/>
     <use x="95.232422" xlink:href="#DejaVuSans-63"/>
     <use x="150.212891" xlink:href="#DejaVuSans-6f"/>
     <use x="211.394531" xlink:href="#DejaVuSans-63"/>
     <use x="266.375" xlink:href="#DejaVuSans-6f"/>
     <use x="327.572266" xlink:href="#DejaVuSans-2d"/>
     <use x="363.625" xlink:href="#DejaVuSans-76"/>
     <use x="422.804688" xlink:href="#DejaVuSans-65"/>
     <use x="484.328125" xlink:href="#DejaVuSans-72"/>
     <use x="525.441406" xlink:href="#DejaVuSans-73"/>
     <use x="577.541016" xlink:href="#DejaVuSans-69"/>
     <use x="605.324219" xlink:href="#DejaVuSans-6f"/>
     <use x="666.505859" xlink:href="#DejaVuSans-6e"/>
    </g>
   </g>
   <g id="text_21">
    <!-- 22 Gallagher 21 peaks -->
    <defs>
     <path d="M 54.890625 33.015625 
L 54.890625 0 
L 45.90625 0 
L 45.90625 32.71875 
Q 45.90625 40.484375 42.875 44.328125 
Q 39.84375 48.1875 33.796875 48.1875 
Q 26.515625 48.1875 22.3125 43.546875 
Q 18.109375 38.921875 18.109375 30.90625 
L 18.109375 0 
L 9.078125 0 
L 9.078125 75.984375 
L 18.109375 75.984375 
L 18.109375 46.1875 
Q 21.34375 51.125 25.703125 53.5625 
Q 30.078125 56 35.796875 56 
Q 45.21875 56 50.046875 50.171875 
Q 54.890625 44.34375 54.890625 33.015625 
z
" id="DejaVuSans-68"/>
     <path d="M 9.078125 75.984375 
L 18.109375 75.984375 
L 18.109375 31.109375 
L 44.921875 54.6875 
L 56.390625 54.6875 
L 27.390625 29.109375 
L 57.625 0 
L 45.90625 0 
L 18.109375 26.703125 
L 18.109375 0 
L 9.078125 0 
z
" id="DejaVuSans-6b"/>
    </defs>
    <g transform="translate(114.927 18.84)scale(0.2 -0.2)">
     <use xlink:href="#DejaVuSans-32"/>
     <use x="63.623047" xlink:href="#DejaVuSans-32"/>
     <use x="127.246094" xlink:href="#DejaVuSans-20"/>
     <use x="159.033203" xlink:href="#DejaVuSans-47"/>
     <use x="236.523438" xlink:href="#DejaVuSans-61"/>
     <use x="297.802734" xlink:href="#DejaVuSans-6c"/>
     <use x="325.585938" xlink:href="#DejaVuSans-6c"/>
     <use x="353.369141" xlink:href="#DejaVuSans-61"/>
     <use x="414.648438" xlink:href="#DejaVuSans-67"/>
     <use x="478.125" xlink:href="#DejaVuSans-68"/>
     <use x="541.503906" xlink:href="#DejaVuSans-65"/>
     <use x="603.027344" xlink:href="#DejaVuSans-72"/>
     <use x="644.140625" xlink:href="#DejaVuSans-20"/>
     <use x="675.927734" xlink:href="#DejaVuSans-32"/>
     <use x="739.550781" xlink:href="#DejaVuSans-31"/>
     <use x="803.173828" xlink:href="#DejaVuSans-20"/>
     <use x="834.960938" xlink:href="#DejaVuSans-70"/>
     <use x="898.4375" xlink:href="#DejaVuSans-65"/>
     <use x="959.960938" xlink:href="#DejaVuSans-61"/>
     <use x="1021.240234" xlink:href="#DejaVuSans-6b"/>
     <use x="1079.150391" xlink:href="#DejaVuSans-73"/>
    </g>
   </g>
  </g>
 </g>
 <defs>
  <clipPath id="pe4cb2f79c5">
   <rect height="270.04" width="343.864" x="56.12" y="24.84"/>
  </clipPath>
 </defs>
</svg>
