<?xml version="1.0" encoding="utf-8" standalone="no"?>
<!DOCTYPE svg PUBLIC "-//W3C//DTD SVG 1.1//EN"
  "http://www.w3.org/Graphics/SVG/1.1/DTD/svg11.dtd">
<!-- Created with matplotlib (http://matplotlib.org/) -->
<svg height="345.6pt" version="1.1" viewBox="0 0 460.8 345.6" width="460.8pt" xmlns="http://www.w3.org/2000/svg" xmlns:xlink="http://www.w3.org/1999/xlink">
 <defs>
  <style type="text/css">
*{stroke-linecap:butt;stroke-linejoin:round;}
  </style>
 </defs>
 <g id="figure_1">
  <g id="patch_1">
   <path d="M 0 345.6 
L 460.8 345.6 
L 460.8 0 
L 0 0 
z
" style="fill:#ffffff;"/>
  </g>
  <g id="axes_1">
   <g id="patch_2">
    <path d="M 56.12 294.88 
L 399.984 294.88 
L 399.984 24.84 
L 56.12 24.84 
z
" style="fill:#ffffff;"/>
   </g>
   <g id="line2d_1">
    <path d="M 23.480305 294.88 
L 23.480305 289.637523 
L 38.057951 289.637523 
L 38.057951 284.395046 
L 86.36371 284.395046 
L 86.36371 279.152568 
L 99.711914 279.152568 
L 99.711914 273.910091 
L 108.90544 273.910091 
L 108.90544 268.667614 
L 115.229017 268.667614 
L 115.229017 263.425137 
L 120.528212 263.425137 
L 120.528212 258.18266 
L 124.908508 258.18266 
L 124.908508 252.940182 
L 130.089296 252.940182 
L 130.089296 247.697705 
L 133.700351 247.697705 
L 133.700351 242.455228 
L 147.155983 242.455228 
L 147.155983 237.212751 
L 153.276494 237.212751 
L 153.276494 231.970274 
L 155.861303 231.970274 
L 155.861303 226.727797 
L 159.277452 226.727797 
L 159.277452 221.485319 
L 173.326431 221.485319 
L 173.326431 216.242842 
L 174.585151 216.242842 
L 174.585151 211.000365 
L 176.232065 211.000365 
L 176.232065 205.757888 
L 177.506455 205.757888 
L 177.506455 200.515411 
L 178.845342 200.515411 
L 178.845342 195.272933 
L 179.950912 195.272933 
L 179.950912 190.030456 
L 181.093654 190.030456 
L 181.093654 184.787979 
L 182.373405 184.787979 
L 182.373405 179.545502 
L 184.263578 179.545502 
L 184.263578 174.303025 
L 194.186397 174.303025 
L 194.186397 169.060547 
L 195.134342 169.060547 
L 195.134342 163.81807 
L 195.912501 163.81807 
L 195.912501 158.575593 
L 197.023928 158.575593 
L 197.023928 153.333116 
L 198.283321 153.333116 
L 198.283321 148.090639 
L 200.476571 148.090639 
L 200.476571 142.848162 
L 201.185156 142.848162 
L 201.185156 137.605684 
L 202.578362 137.605684 
L 202.578362 132.363207 
L 203.381184 132.363207 
L 203.381184 127.12073 
L 204.604669 127.12073 
L 204.604669 121.878253 
L 204.89881 121.878253 
L 204.89881 116.635776 
L 207.082343 116.635776 
L 207.082343 111.393298 
L 207.250993 111.393298 
L 207.250993 106.150821 
L 207.367837 106.150821 
L 207.367837 100.908344 
L 207.464258 100.908344 
L 207.464258 95.665867 
L 207.537095 95.665867 
L 207.537095 90.42339 
L 207.629352 90.42339 
L 207.629352 85.180912 
L 207.745967 85.180912 
L 207.745967 79.938435 
L 207.910422 79.938435 
L 207.910422 74.695958 
L 208.169748 74.695958 
L 208.169748 69.453481 
L 208.925786 69.453481 
L 208.925786 64.211004 
L 209.106138 64.211004 
L 209.106138 58.968526 
L 209.23046 58.968526 
L 209.23046 53.726049 
L 209.368921 53.726049 
L 209.368921 48.483572 
L 209.461617 48.483572 
L 209.461617 43.241095 
L 209.566141 43.241095 
L 209.566141 37.998618 
L 209.657326 37.998618 
L 209.657326 32.756141 
L 209.752245 32.756141 
L 209.752245 27.513663 
L 333.429677 27.513663 
" style="fill:none;stroke:#f5deb3;stroke-linecap:square;stroke-width:6;"/>
   </g>
   <g id="line2d_2">
    <defs>
     <path d="M -0 7.778175 
L 7.778175 0 
L 0 -7.778175 
L -7.778175 -0 
z
" id="m70b902e817" style="stroke:#f5deb3;stroke-linejoin:miter;stroke-width:1.5;"/>
    </defs>
    <g>
     <use style="fill:#f5deb3;stroke:#f5deb3;stroke-linejoin:miter;stroke-width:1.5;" x="108.90544" xlink:href="#m70b902e817" y="268.667614"/>
     <use style="fill:#f5deb3;stroke:#f5deb3;stroke-linejoin:miter;stroke-width:1.5;" x="182.373405" xlink:href="#m70b902e817" y="179.545502"/>
     <use style="fill:#f5deb3;stroke:#f5deb3;stroke-linejoin:miter;stroke-width:1.5;" x="207.745967" xlink:href="#m70b902e817" y="79.938435"/>
     <use style="fill:#f5deb3;stroke:#f5deb3;stroke-linejoin:miter;stroke-width:1.5;" x="209.752245" xlink:href="#m70b902e817" y="32.756141"/>
     <use style="fill:#f5deb3;stroke:#f5deb3;stroke-linejoin:miter;stroke-width:1.5;" x="209.752245" xlink:href="#m70b902e817" y="27.513663"/>
     <use style="fill:#f5deb3;stroke:#f5deb3;stroke-linejoin:miter;stroke-width:1.5;" x="333.429677" xlink:href="#m70b902e817" y="27.513663"/>
    </g>
   </g>
   <g id="line2d_3">
    <path style="fill:none;stroke:#f5deb3;stroke-linecap:square;stroke-width:6;"/>
    <g/>
   </g>
   <g id="line2d_4">
    <path d="M 333.429677 27.513663 
L 363.933742 32.86099 
" style="fill:none;stroke:#f5deb3;stroke-linecap:square;stroke-width:6;"/>
    <g>
     <use style="fill:#f5deb3;stroke:#f5deb3;stroke-linejoin:miter;stroke-width:1.5;" x="333.429677" xlink:href="#m70b902e817" y="27.513663"/>
     <use style="fill:#f5deb3;stroke:#f5deb3;stroke-linejoin:miter;stroke-width:1.5;" x="363.933742" xlink:href="#m70b902e817" y="32.86099"/>
    </g>
   </g>
   <g id="matplotlib.axis_1">
    <g id="xtick_1">
     <g id="line2d_5">
      <path clip-path="url(#pe3fcef2764)" d="M 56.12 294.88 
L 56.12 24.84 
" style="fill:none;stroke:#b0b0b0;stroke-linecap:square;stroke-width:0.8;"/>
     </g>
     <g id="line2d_6">
      <defs>
       <path d="M 0 0 
L 0 3.5 
" id="m144b5249a3" style="stroke:#000000;stroke-width:0.8;"/>
      </defs>
      <g>
       <use style="stroke:#000000;stroke-width:0.8;" x="56.12" xlink:href="#m144b5249a3" y="294.88"/>
      </g>
     </g>
     <g id="text_1">
      <!-- 0 -->
      <defs>
       <path d="M 31.78125 66.40625 
Q 24.171875 66.40625 20.328125 58.90625 
Q 16.5 51.421875 16.5 36.375 
Q 16.5 21.390625 20.328125 13.890625 
Q 24.171875 6.390625 31.78125 6.390625 
Q 39.453125 6.390625 43.28125 13.890625 
Q 47.125 21.390625 47.125 36.375 
Q 47.125 51.421875 43.28125 58.90625 
Q 39.453125 66.40625 31.78125 66.40625 
z
M 31.78125 74.21875 
Q 44.046875 74.21875 50.515625 64.515625 
Q 56.984375 54.828125 56.984375 36.375 
Q 56.984375 17.96875 50.515625 8.265625 
Q 44.046875 -1.421875 31.78125 -1.421875 
Q 19.53125 -1.421875 13.0625 8.265625 
Q 6.59375 17.96875 6.59375 36.375 
Q 6.59375 54.828125 13.0625 64.515625 
Q 19.53125 74.21875 31.78125 74.21875 
z
" id="DejaVuSans-30"/>
      </defs>
      <g transform="translate(49.7575 317.076875)scale(0.2 -0.2)">
       <use xlink:href="#DejaVuSans-30"/>
      </g>
     </g>
    </g>
    <g id="xtick_2">
     <g id="line2d_7">
      <path clip-path="url(#pe3fcef2764)" d="M 135.351336 294.88 
L 135.351336 24.84 
" style="fill:none;stroke:#b0b0b0;stroke-linecap:square;stroke-width:0.8;"/>
     </g>
     <g id="line2d_8">
      <g>
       <use style="stroke:#000000;stroke-width:0.8;" x="135.351336" xlink:href="#m144b5249a3" y="294.88"/>
      </g>
     </g>
     <g id="text_2">
      <!-- 2 -->
      <defs>
       <path d="M 19.1875 8.296875 
L 53.609375 8.296875 
L 53.609375 0 
L 7.328125 0 
L 7.328125 8.296875 
Q 12.9375 14.109375 22.625 23.890625 
Q 32.328125 33.6875 34.8125 36.53125 
Q 39.546875 41.84375 41.421875 45.53125 
Q 43.3125 49.21875 43.3125 52.78125 
Q 43.3125 58.59375 39.234375 62.25 
Q 35.15625 65.921875 28.609375 65.921875 
Q 23.96875 65.921875 18.8125 64.3125 
Q 13.671875 62.703125 7.8125 59.421875 
L 7.8125 69.390625 
Q 13.765625 71.78125 18.9375 73 
Q 24.125 74.21875 28.421875 74.21875 
Q 39.75 74.21875 46.484375 68.546875 
Q 53.21875 62.890625 53.21875 53.421875 
Q 53.21875 48.921875 51.53125 44.890625 
Q 49.859375 40.875 45.40625 35.40625 
Q 44.1875 33.984375 37.640625 27.21875 
Q 31.109375 20.453125 19.1875 8.296875 
z
" id="DejaVuSans-32"/>
      </defs>
      <g transform="translate(128.988836 317.076875)scale(0.2 -0.2)">
       <use xlink:href="#DejaVuSans-32"/>
      </g>
     </g>
    </g>
    <g id="xtick_3">
     <g id="line2d_9">
      <path clip-path="url(#pe3fcef2764)" d="M 214.582673 294.88 
L 214.582673 24.84 
" style="fill:none;stroke:#b0b0b0;stroke-linecap:square;stroke-width:0.8;"/>
     </g>
     <g id="line2d_10">
      <g>
       <use style="stroke:#000000;stroke-width:0.8;" x="214.582673" xlink:href="#m144b5249a3" y="294.88"/>
      </g>
     </g>
     <g id="text_3">
      <!-- 4 -->
      <defs>
       <path d="M 37.796875 64.3125 
L 12.890625 25.390625 
L 37.796875 25.390625 
z
M 35.203125 72.90625 
L 47.609375 72.90625 
L 47.609375 25.390625 
L 58.015625 25.390625 
L 58.015625 17.1875 
L 47.609375 17.1875 
L 47.609375 0 
L 37.796875 0 
L 37.796875 17.1875 
L 4.890625 17.1875 
L 4.890625 26.703125 
z
" id="DejaVuSans-34"/>
      </defs>
      <g transform="translate(208.220173 317.076875)scale(0.2 -0.2)">
       <use xlink:href="#DejaVuSans-34"/>
      </g>
     </g>
    </g>
    <g id="xtick_4">
     <g id="line2d_11">
      <path clip-path="url(#pe3fcef2764)" d="M 293.814009 294.88 
L 293.814009 24.84 
" style="fill:none;stroke:#b0b0b0;stroke-linecap:square;stroke-width:0.8;"/>
     </g>
     <g id="line2d_12">
      <g>
       <use style="stroke:#000000;stroke-width:0.8;" x="293.814009" xlink:href="#m144b5249a3" y="294.88"/>
      </g>
     </g>
     <g id="text_4">
      <!-- 6 -->
      <defs>
       <path d="M 33.015625 40.375 
Q 26.375 40.375 22.484375 35.828125 
Q 18.609375 31.296875 18.609375 23.390625 
Q 18.609375 15.53125 22.484375 10.953125 
Q 26.375 6.390625 33.015625 6.390625 
Q 39.65625 6.390625 43.53125 10.953125 
Q 47.40625 15.53125 47.40625 23.390625 
Q 47.40625 31.296875 43.53125 35.828125 
Q 39.65625 40.375 33.015625 40.375 
z
M 52.59375 71.296875 
L 52.59375 62.3125 
Q 48.875 64.0625 45.09375 64.984375 
Q 41.3125 65.921875 37.59375 65.921875 
Q 27.828125 65.921875 22.671875 59.328125 
Q 17.53125 52.734375 16.796875 39.40625 
Q 19.671875 43.65625 24.015625 45.921875 
Q 28.375 48.1875 33.59375 48.1875 
Q 44.578125 48.1875 50.953125 41.515625 
Q 57.328125 34.859375 57.328125 23.390625 
Q 57.328125 12.15625 50.6875 5.359375 
Q 44.046875 -1.421875 33.015625 -1.421875 
Q 20.359375 -1.421875 13.671875 8.265625 
Q 6.984375 17.96875 6.984375 36.375 
Q 6.984375 53.65625 15.1875 63.9375 
Q 23.390625 74.21875 37.203125 74.21875 
Q 40.921875 74.21875 44.703125 73.484375 
Q 48.484375 72.75 52.59375 71.296875 
z
" id="DejaVuSans-36"/>
      </defs>
      <g transform="translate(287.451509 317.076875)scale(0.2 -0.2)">
       <use xlink:href="#DejaVuSans-36"/>
      </g>
     </g>
    </g>
    <g id="xtick_5">
     <g id="line2d_13">
      <path clip-path="url(#pe3fcef2764)" d="M 373.045346 294.88 
L 373.045346 24.84 
" style="fill:none;stroke:#b0b0b0;stroke-linecap:square;stroke-width:0.8;"/>
     </g>
     <g id="line2d_14">
      <g>
       <use style="stroke:#000000;stroke-width:0.8;" x="373.045346" xlink:href="#m144b5249a3" y="294.88"/>
      </g>
     </g>
     <g id="text_5">
      <!-- 8 -->
      <defs>
       <path d="M 31.78125 34.625 
Q 24.75 34.625 20.71875 30.859375 
Q 16.703125 27.09375 16.703125 20.515625 
Q 16.703125 13.921875 20.71875 10.15625 
Q 24.75 6.390625 31.78125 6.390625 
Q 38.8125 6.390625 42.859375 10.171875 
Q 46.921875 13.96875 46.921875 20.515625 
Q 46.921875 27.09375 42.890625 30.859375 
Q 38.875 34.625 31.78125 34.625 
z
M 21.921875 38.8125 
Q 15.578125 40.375 12.03125 44.71875 
Q 8.5 49.078125 8.5 55.328125 
Q 8.5 64.0625 14.71875 69.140625 
Q 20.953125 74.21875 31.78125 74.21875 
Q 42.671875 74.21875 48.875 69.140625 
Q 55.078125 64.0625 55.078125 55.328125 
Q 55.078125 49.078125 51.53125 44.71875 
Q 48 40.375 41.703125 38.8125 
Q 48.828125 37.15625 52.796875 32.3125 
Q 56.78125 27.484375 56.78125 20.515625 
Q 56.78125 9.90625 50.3125 4.234375 
Q 43.84375 -1.421875 31.78125 -1.421875 
Q 19.734375 -1.421875 13.25 4.234375 
Q 6.78125 9.90625 6.78125 20.515625 
Q 6.78125 27.484375 10.78125 32.3125 
Q 14.796875 37.15625 21.921875 38.8125 
z
M 18.3125 54.390625 
Q 18.3125 48.734375 21.84375 45.5625 
Q 25.390625 42.390625 31.78125 42.390625 
Q 38.140625 42.390625 41.71875 45.5625 
Q 45.3125 48.734375 45.3125 54.390625 
Q 45.3125 60.0625 41.71875 63.234375 
Q 38.140625 66.40625 31.78125 66.40625 
Q 25.390625 66.40625 21.84375 63.234375 
Q 18.3125 60.0625 18.3125 54.390625 
z
" id="DejaVuSans-38"/>
      </defs>
      <g transform="translate(366.682846 317.076875)scale(0.2 -0.2)">
       <use xlink:href="#DejaVuSans-38"/>
      </g>
     </g>
    </g>
    <g id="text_6">
     <!-- log10(# f-evals / dimension) -->
     <defs>
      <path d="M 9.421875 75.984375 
L 18.40625 75.984375 
L 18.40625 0 
L 9.421875 0 
z
" id="DejaVuSans-6c"/>
      <path d="M 30.609375 48.390625 
Q 23.390625 48.390625 19.1875 42.75 
Q 14.984375 37.109375 14.984375 27.296875 
Q 14.984375 17.484375 19.15625 11.84375 
Q 23.34375 6.203125 30.609375 6.203125 
Q 37.796875 6.203125 41.984375 11.859375 
Q 46.1875 17.53125 46.1875 27.296875 
Q 46.1875 37.015625 41.984375 42.703125 
Q 37.796875 48.390625 30.609375 48.390625 
z
M 30.609375 56 
Q 42.328125 56 49.015625 48.375 
Q 55.71875 40.765625 55.71875 27.296875 
Q 55.71875 13.875 49.015625 6.21875 
Q 42.328125 -1.421875 30.609375 -1.421875 
Q 18.84375 -1.421875 12.171875 6.21875 
Q 5.515625 13.875 5.515625 27.296875 
Q 5.515625 40.765625 12.171875 48.375 
Q 18.84375 56 30.609375 56 
z
" id="DejaVuSans-6f"/>
      <path d="M 45.40625 27.984375 
Q 45.40625 37.75 41.375 43.109375 
Q 37.359375 48.484375 30.078125 48.484375 
Q 22.859375 48.484375 18.828125 43.109375 
Q 14.796875 37.75 14.796875 27.984375 
Q 14.796875 18.265625 18.828125 12.890625 
Q 22.859375 7.515625 30.078125 7.515625 
Q 37.359375 7.515625 41.375 12.890625 
Q 45.40625 18.265625 45.40625 27.984375 
z
M 54.390625 6.78125 
Q 54.390625 -7.171875 48.1875 -13.984375 
Q 42 -20.796875 29.203125 -20.796875 
Q 24.46875 -20.796875 20.265625 -20.09375 
Q 16.0625 -19.390625 12.109375 -17.921875 
L 12.109375 -9.1875 
Q 16.0625 -11.328125 19.921875 -12.34375 
Q 23.78125 -13.375 27.78125 -13.375 
Q 36.625 -13.375 41.015625 -8.765625 
Q 45.40625 -4.15625 45.40625 5.171875 
L 45.40625 9.625 
Q 42.625 4.78125 38.28125 2.390625 
Q 33.9375 0 27.875 0 
Q 17.828125 0 11.671875 7.65625 
Q 5.515625 15.328125 5.515625 27.984375 
Q 5.515625 40.671875 11.671875 48.328125 
Q 17.828125 56 27.875 56 
Q 33.9375 56 38.28125 53.609375 
Q 42.625 51.21875 45.40625 46.390625 
L 45.40625 54.6875 
L 54.390625 54.6875 
z
" id="DejaVuSans-67"/>
      <path d="M 12.40625 8.296875 
L 28.515625 8.296875 
L 28.515625 63.921875 
L 10.984375 60.40625 
L 10.984375 69.390625 
L 28.421875 72.90625 
L 38.28125 72.90625 
L 38.28125 8.296875 
L 54.390625 8.296875 
L 54.390625 0 
L 12.40625 0 
z
" id="DejaVuSans-31"/>
      <path d="M 31 75.875 
Q 24.46875 64.65625 21.28125 53.65625 
Q 18.109375 42.671875 18.109375 31.390625 
Q 18.109375 20.125 21.3125 9.0625 
Q 24.515625 -2 31 -13.1875 
L 23.1875 -13.1875 
Q 15.875 -1.703125 12.234375 9.375 
Q 8.59375 20.453125 8.59375 31.390625 
Q 8.59375 42.28125 12.203125 53.3125 
Q 15.828125 64.359375 23.1875 75.875 
z
" id="DejaVuSans-28"/>
      <path d="M 51.125 44 
L 36.921875 44 
L 32.8125 27.6875 
L 47.125 27.6875 
z
M 43.796875 71.78125 
L 38.71875 51.515625 
L 52.984375 51.515625 
L 58.109375 71.78125 
L 65.921875 71.78125 
L 60.890625 51.515625 
L 76.125 51.515625 
L 76.125 44 
L 58.984375 44 
L 54.984375 27.6875 
L 70.515625 27.6875 
L 70.515625 20.21875 
L 53.078125 20.21875 
L 48 0 
L 40.1875 0 
L 45.21875 20.21875 
L 30.90625 20.21875 
L 25.875 0 
L 18.015625 0 
L 23.09375 20.21875 
L 7.71875 20.21875 
L 7.71875 27.6875 
L 24.90625 27.6875 
L 29 44 
L 13.28125 44 
L 13.28125 51.515625 
L 30.90625 51.515625 
L 35.890625 71.78125 
z
" id="DejaVuSans-23"/>
      <path id="DejaVuSans-20"/>
      <path d="M 37.109375 75.984375 
L 37.109375 68.5 
L 28.515625 68.5 
Q 23.6875 68.5 21.796875 66.546875 
Q 19.921875 64.59375 19.921875 59.515625 
L 19.921875 54.6875 
L 34.71875 54.6875 
L 34.71875 47.703125 
L 19.921875 47.703125 
L 19.921875 0 
L 10.890625 0 
L 10.890625 47.703125 
L 2.296875 47.703125 
L 2.296875 54.6875 
L 10.890625 54.6875 
L 10.890625 58.5 
Q 10.890625 67.625 15.140625 71.796875 
Q 19.390625 75.984375 28.609375 75.984375 
z
" id="DejaVuSans-66"/>
      <path d="M 4.890625 31.390625 
L 31.203125 31.390625 
L 31.203125 23.390625 
L 4.890625 23.390625 
z
" id="DejaVuSans-2d"/>
      <path d="M 56.203125 29.59375 
L 56.203125 25.203125 
L 14.890625 25.203125 
Q 15.484375 15.921875 20.484375 11.0625 
Q 25.484375 6.203125 34.421875 6.203125 
Q 39.59375 6.203125 44.453125 7.46875 
Q 49.3125 8.734375 54.109375 11.28125 
L 54.109375 2.78125 
Q 49.265625 0.734375 44.1875 -0.34375 
Q 39.109375 -1.421875 33.890625 -1.421875 
Q 20.796875 -1.421875 13.15625 6.1875 
Q 5.515625 13.8125 5.515625 26.8125 
Q 5.515625 40.234375 12.765625 48.109375 
Q 20.015625 56 32.328125 56 
Q 43.359375 56 49.78125 48.890625 
Q 56.203125 41.796875 56.203125 29.59375 
z
M 47.21875 32.234375 
Q 47.125 39.59375 43.09375 43.984375 
Q 39.0625 48.390625 32.421875 48.390625 
Q 24.90625 48.390625 20.390625 44.140625 
Q 15.875 39.890625 15.1875 32.171875 
z
" id="DejaVuSans-65"/>
      <path d="M 2.984375 54.6875 
L 12.5 54.6875 
L 29.59375 8.796875 
L 46.6875 54.6875 
L 56.203125 54.6875 
L 35.6875 0 
L 23.484375 0 
z
" id="DejaVuSans-76"/>
      <path d="M 34.28125 27.484375 
Q 23.390625 27.484375 19.1875 25 
Q 14.984375 22.515625 14.984375 16.5 
Q 14.984375 11.71875 18.140625 8.90625 
Q 21.296875 6.109375 26.703125 6.109375 
Q 34.1875 6.109375 38.703125 11.40625 
Q 43.21875 16.703125 43.21875 25.484375 
L 43.21875 27.484375 
z
M 52.203125 31.203125 
L 52.203125 0 
L 43.21875 0 
L 43.21875 8.296875 
Q 40.140625 3.328125 35.546875 0.953125 
Q 30.953125 -1.421875 24.3125 -1.421875 
Q 15.921875 -1.421875 10.953125 3.296875 
Q 6 8.015625 6 15.921875 
Q 6 25.140625 12.171875 29.828125 
Q 18.359375 34.515625 30.609375 34.515625 
L 43.21875 34.515625 
L 43.21875 35.40625 
Q 43.21875 41.609375 39.140625 45 
Q 35.0625 48.390625 27.6875 48.390625 
Q 23 48.390625 18.546875 47.265625 
Q 14.109375 46.140625 10.015625 43.890625 
L 10.015625 52.203125 
Q 14.9375 54.109375 19.578125 55.046875 
Q 24.21875 56 28.609375 56 
Q 40.484375 56 46.34375 49.84375 
Q 52.203125 43.703125 52.203125 31.203125 
z
" id="DejaVuSans-61"/>
      <path d="M 44.28125 53.078125 
L 44.28125 44.578125 
Q 40.484375 46.53125 36.375 47.5 
Q 32.28125 48.484375 27.875 48.484375 
Q 21.1875 48.484375 17.84375 46.4375 
Q 14.5 44.390625 14.5 40.28125 
Q 14.5 37.15625 16.890625 35.375 
Q 19.28125 33.59375 26.515625 31.984375 
L 29.59375 31.296875 
Q 39.15625 29.25 43.1875 25.515625 
Q 47.21875 21.78125 47.21875 15.09375 
Q 47.21875 7.46875 41.1875 3.015625 
Q 35.15625 -1.421875 24.609375 -1.421875 
Q 20.21875 -1.421875 15.453125 -0.5625 
Q 10.6875 0.296875 5.421875 2 
L 5.421875 11.28125 
Q 10.40625 8.6875 15.234375 7.390625 
Q 20.0625 6.109375 24.8125 6.109375 
Q 31.15625 6.109375 34.5625 8.28125 
Q 37.984375 10.453125 37.984375 14.40625 
Q 37.984375 18.0625 35.515625 20.015625 
Q 33.0625 21.96875 24.703125 23.78125 
L 21.578125 24.515625 
Q 13.234375 26.265625 9.515625 29.90625 
Q 5.8125 33.546875 5.8125 39.890625 
Q 5.8125 47.609375 11.28125 51.796875 
Q 16.75 56 26.8125 56 
Q 31.78125 56 36.171875 55.265625 
Q 40.578125 54.546875 44.28125 53.078125 
z
" id="DejaVuSans-73"/>
      <path d="M 25.390625 72.90625 
L 33.6875 72.90625 
L 8.296875 -9.28125 
L 0 -9.28125 
z
" id="DejaVuSans-2f"/>
      <path d="M 45.40625 46.390625 
L 45.40625 75.984375 
L 54.390625 75.984375 
L 54.390625 0 
L 45.40625 0 
L 45.40625 8.203125 
Q 42.578125 3.328125 38.25 0.953125 
Q 33.9375 -1.421875 27.875 -1.421875 
Q 17.96875 -1.421875 11.734375 6.484375 
Q 5.515625 14.40625 5.515625 27.296875 
Q 5.515625 40.1875 11.734375 48.09375 
Q 17.96875 56 27.875 56 
Q 33.9375 56 38.25 53.625 
Q 42.578125 51.265625 45.40625 46.390625 
z
M 14.796875 27.296875 
Q 14.796875 17.390625 18.875 11.75 
Q 22.953125 6.109375 30.078125 6.109375 
Q 37.203125 6.109375 41.296875 11.75 
Q 45.40625 17.390625 45.40625 27.296875 
Q 45.40625 37.203125 41.296875 42.84375 
Q 37.203125 48.484375 30.078125 48.484375 
Q 22.953125 48.484375 18.875 42.84375 
Q 14.796875 37.203125 14.796875 27.296875 
z
" id="DejaVuSans-64"/>
      <path d="M 9.421875 54.6875 
L 18.40625 54.6875 
L 18.40625 0 
L 9.421875 0 
z
M 9.421875 75.984375 
L 18.40625 75.984375 
L 18.40625 64.59375 
L 9.421875 64.59375 
z
" id="DejaVuSans-69"/>
      <path d="M 52 44.1875 
Q 55.375 50.25 60.0625 53.125 
Q 64.75 56 71.09375 56 
Q 79.640625 56 84.28125 50.015625 
Q 88.921875 44.046875 88.921875 33.015625 
L 88.921875 0 
L 79.890625 0 
L 79.890625 32.71875 
Q 79.890625 40.578125 77.09375 44.375 
Q 74.3125 48.1875 68.609375 48.1875 
Q 61.625 48.1875 57.5625 43.546875 
Q 53.515625 38.921875 53.515625 30.90625 
L 53.515625 0 
L 44.484375 0 
L 44.484375 32.71875 
Q 44.484375 40.625 41.703125 44.40625 
Q 38.921875 48.1875 33.109375 48.1875 
Q 26.21875 48.1875 22.15625 43.53125 
Q 18.109375 38.875 18.109375 30.90625 
L 18.109375 0 
L 9.078125 0 
L 9.078125 54.6875 
L 18.109375 54.6875 
L 18.109375 46.1875 
Q 21.1875 51.21875 25.484375 53.609375 
Q 29.78125 56 35.6875 56 
Q 41.65625 56 45.828125 52.96875 
Q 50 49.953125 52 44.1875 
z
" id="DejaVuSans-6d"/>
      <path d="M 54.890625 33.015625 
L 54.890625 0 
L 45.90625 0 
L 45.90625 32.71875 
Q 45.90625 40.484375 42.875 44.328125 
Q 39.84375 48.1875 33.796875 48.1875 
Q 26.515625 48.1875 22.3125 43.546875 
Q 18.109375 38.921875 18.109375 30.90625 
L 18.109375 0 
L 9.078125 0 
L 9.078125 54.6875 
L 18.109375 54.6875 
L 18.109375 46.1875 
Q 21.34375 51.125 25.703125 53.5625 
Q 30.078125 56 35.796875 56 
Q 45.21875 56 50.046875 50.171875 
Q 54.890625 44.34375 54.890625 33.015625 
z
" id="DejaVuSans-6e"/>
      <path d="M 8.015625 75.875 
L 15.828125 75.875 
Q 23.140625 64.359375 26.78125 53.3125 
Q 30.421875 42.28125 30.421875 31.390625 
Q 30.421875 20.453125 26.78125 9.375 
Q 23.140625 -1.703125 15.828125 -13.1875 
L 8.015625 -13.1875 
Q 14.5 -2 17.703125 9.0625 
Q 20.90625 20.125 20.90625 31.390625 
Q 20.90625 42.671875 17.703125 53.65625 
Q 14.5 64.65625 8.015625 75.875 
z
" id="DejaVuSans-29"/>
     </defs>
     <g transform="translate(107.211219 338.153594)scale(0.17 -0.17)">
      <use xlink:href="#DejaVuSans-6c"/>
      <use x="27.783203" xlink:href="#DejaVuSans-6f"/>
      <use x="88.964844" xlink:href="#DejaVuSans-67"/>
      <use x="152.441406" xlink:href="#DejaVuSans-31"/>
      <use x="216.064453" xlink:href="#DejaVuSans-30"/>
      <use x="279.6875" xlink:href="#DejaVuSans-28"/>
      <use x="318.701172" xlink:href="#DejaVuSans-23"/>
      <use x="402.490234" xlink:href="#DejaVuSans-20"/>
      <use x="434.277344" xlink:href="#DejaVuSans-66"/>
      <use x="469.404297" xlink:href="#DejaVuSans-2d"/>
      <use x="505.488281" xlink:href="#DejaVuSans-65"/>
      <use x="567.011719" xlink:href="#DejaVuSans-76"/>
      <use x="626.191406" xlink:href="#DejaVuSans-61"/>
      <use x="687.470703" xlink:href="#DejaVuSans-6c"/>
      <use x="715.253906" xlink:href="#DejaVuSans-73"/>
      <use x="767.353516" xlink:href="#DejaVuSans-20"/>
      <use x="799.140625" xlink:href="#DejaVuSans-2f"/>
      <use x="832.832031" xlink:href="#DejaVuSans-20"/>
      <use x="864.619141" xlink:href="#DejaVuSans-64"/>
      <use x="928.095703" xlink:href="#DejaVuSans-69"/>
      <use x="955.878906" xlink:href="#DejaVuSans-6d"/>
      <use x="1053.291016" xlink:href="#DejaVuSans-65"/>
      <use x="1114.814453" xlink:href="#DejaVuSans-6e"/>
      <use x="1178.193359" xlink:href="#DejaVuSans-73"/>
      <use x="1230.292969" xlink:href="#DejaVuSans-69"/>
      <use x="1258.076172" xlink:href="#DejaVuSans-6f"/>
      <use x="1319.257812" xlink:href="#DejaVuSans-6e"/>
      <use x="1382.636719" xlink:href="#DejaVuSans-29"/>
     </g>
    </g>
   </g>
   <g id="matplotlib.axis_2">
    <g id="ytick_1">
     <g id="line2d_15">
      <path clip-path="url(#pe3fcef2764)" d="M 56.12 294.88 
L 399.984 294.88 
" style="fill:none;stroke:#b0b0b0;stroke-linecap:square;stroke-width:0.8;"/>
     </g>
     <g id="line2d_16">
      <defs>
       <path d="M 0 0 
L -3.5 0 
" id="m343976353f" style="stroke:#000000;stroke-width:0.8;"/>
      </defs>
      <g>
       <use style="stroke:#000000;stroke-width:0.8;" x="56.12" xlink:href="#m343976353f" y="294.88"/>
      </g>
     </g>
     <g id="text_7">
      <!-- 0.0 -->
      <defs>
       <path d="M 10.6875 12.40625 
L 21 12.40625 
L 21 0 
L 10.6875 0 
z
" id="DejaVuSans-2e"/>
      </defs>
      <g transform="translate(23.675 300.95875)scale(0.16 -0.16)">
       <use xlink:href="#DejaVuSans-30"/>
       <use x="63.623047" xlink:href="#DejaVuSans-2e"/>
       <use x="95.410156" xlink:href="#DejaVuSans-30"/>
      </g>
     </g>
    </g>
    <g id="ytick_2">
     <g id="line2d_17">
      <path clip-path="url(#pe3fcef2764)" d="M 56.12 241.406733 
L 399.984 241.406733 
" style="fill:none;stroke:#b0b0b0;stroke-linecap:square;stroke-width:0.8;"/>
     </g>
     <g id="line2d_18">
      <g>
       <use style="stroke:#000000;stroke-width:0.8;" x="56.12" xlink:href="#m343976353f" y="241.406733"/>
      </g>
     </g>
     <g id="text_8">
      <!-- 0.2 -->
      <g transform="translate(23.675 247.485483)scale(0.16 -0.16)">
       <use xlink:href="#DejaVuSans-30"/>
       <use x="63.623047" xlink:href="#DejaVuSans-2e"/>
       <use x="95.410156" xlink:href="#DejaVuSans-32"/>
      </g>
     </g>
    </g>
    <g id="ytick_3">
     <g id="line2d_19">
      <path clip-path="url(#pe3fcef2764)" d="M 56.12 187.933465 
L 399.984 187.933465 
" style="fill:none;stroke:#b0b0b0;stroke-linecap:square;stroke-width:0.8;"/>
     </g>
     <g id="line2d_20">
      <g>
       <use style="stroke:#000000;stroke-width:0.8;" x="56.12" xlink:href="#m343976353f" y="187.933465"/>
      </g>
     </g>
     <g id="text_9">
      <!-- 0.4 -->
      <g transform="translate(23.675 194.012215)scale(0.16 -0.16)">
       <use xlink:href="#DejaVuSans-30"/>
       <use x="63.623047" xlink:href="#DejaVuSans-2e"/>
       <use x="95.410156" xlink:href="#DejaVuSans-34"/>
      </g>
     </g>
    </g>
    <g id="ytick_4">
     <g id="line2d_21">
      <path clip-path="url(#pe3fcef2764)" d="M 56.12 134.460198 
L 399.984 134.460198 
" style="fill:none;stroke:#b0b0b0;stroke-linecap:square;stroke-width:0.8;"/>
     </g>
     <g id="line2d_22">
      <g>
       <use style="stroke:#000000;stroke-width:0.8;" x="56.12" xlink:href="#m343976353f" y="134.460198"/>
      </g>
     </g>
     <g id="text_10">
      <!-- 0.6 -->
      <g transform="translate(23.675 140.538948)scale(0.16 -0.16)">
       <use xlink:href="#DejaVuSans-30"/>
       <use x="63.623047" xlink:href="#DejaVuSans-2e"/>
       <use x="95.410156" xlink:href="#DejaVuSans-36"/>
      </g>
     </g>
    </g>
    <g id="ytick_5">
     <g id="line2d_23">
      <path clip-path="url(#pe3fcef2764)" d="M 56.12 80.986931 
L 399.984 80.986931 
" style="fill:none;stroke:#b0b0b0;stroke-linecap:square;stroke-width:0.8;"/>
     </g>
     <g id="line2d_24">
      <g>
       <use style="stroke:#000000;stroke-width:0.8;" x="56.12" xlink:href="#m343976353f" y="80.986931"/>
      </g>
     </g>
     <g id="text_11">
      <!-- 0.8 -->
      <g transform="translate(23.675 87.065681)scale(0.16 -0.16)">
       <use xlink:href="#DejaVuSans-30"/>
       <use x="63.623047" xlink:href="#DejaVuSans-2e"/>
       <use x="95.410156" xlink:href="#DejaVuSans-38"/>
      </g>
     </g>
    </g>
    <g id="ytick_6">
     <g id="line2d_25">
      <path clip-path="url(#pe3fcef2764)" d="M 56.12 27.513663 
L 399.984 27.513663 
" style="fill:none;stroke:#b0b0b0;stroke-linecap:square;stroke-width:0.8;"/>
     </g>
     <g id="line2d_26">
      <g>
       <use style="stroke:#000000;stroke-width:0.8;" x="56.12" xlink:href="#m343976353f" y="27.513663"/>
      </g>
     </g>
     <g id="text_12">
      <!-- 1.0 -->
      <g transform="translate(23.675 33.592413)scale(0.16 -0.16)">
       <use xlink:href="#DejaVuSans-31"/>
       <use x="63.623047" xlink:href="#DejaVuSans-2e"/>
       <use x="95.410156" xlink:href="#DejaVuSans-30"/>
      </g>
     </g>
    </g>
    <g id="text_13">
     <!-- Fraction of function,target pairs -->
     <defs>
      <path d="M 9.8125 72.90625 
L 51.703125 72.90625 
L 51.703125 64.59375 
L 19.671875 64.59375 
L 19.671875 43.109375 
L 48.578125 43.109375 
L 48.578125 34.8125 
L 19.671875 34.8125 
L 19.671875 0 
L 9.8125 0 
z
" id="DejaVuSans-46"/>
      <path d="M 41.109375 46.296875 
Q 39.59375 47.171875 37.8125 47.578125 
Q 36.03125 48 33.890625 48 
Q 26.265625 48 22.1875 43.046875 
Q 18.109375 38.09375 18.109375 28.8125 
L 18.109375 0 
L 9.078125 0 
L 9.078125 54.6875 
L 18.109375 54.6875 
L 18.109375 46.1875 
Q 20.953125 51.171875 25.484375 53.578125 
Q 30.03125 56 36.53125 56 
Q 37.453125 56 38.578125 55.875 
Q 39.703125 55.765625 41.0625 55.515625 
z
" id="DejaVuSans-72"/>
      <path d="M 48.78125 52.59375 
L 48.78125 44.1875 
Q 44.96875 46.296875 41.140625 47.34375 
Q 37.3125 48.390625 33.40625 48.390625 
Q 24.65625 48.390625 19.8125 42.84375 
Q 14.984375 37.3125 14.984375 27.296875 
Q 14.984375 17.28125 19.8125 11.734375 
Q 24.65625 6.203125 33.40625 6.203125 
Q 37.3125 6.203125 41.140625 7.25 
Q 44.96875 8.296875 48.78125 10.40625 
L 48.78125 2.09375 
Q 45.015625 0.34375 40.984375 -0.53125 
Q 36.96875 -1.421875 32.421875 -1.421875 
Q 20.0625 -1.421875 12.78125 6.34375 
Q 5.515625 14.109375 5.515625 27.296875 
Q 5.515625 40.671875 12.859375 48.328125 
Q 20.21875 56 33.015625 56 
Q 37.15625 56 41.109375 55.140625 
Q 45.0625 54.296875 48.78125 52.59375 
z
" id="DejaVuSans-63"/>
      <path d="M 18.3125 70.21875 
L 18.3125 54.6875 
L 36.8125 54.6875 
L 36.8125 47.703125 
L 18.3125 47.703125 
L 18.3125 18.015625 
Q 18.3125 11.328125 20.140625 9.421875 
Q 21.96875 7.515625 27.59375 7.515625 
L 36.8125 7.515625 
L 36.8125 0 
L 27.59375 0 
Q 17.1875 0 13.234375 3.875 
Q 9.28125 7.765625 9.28125 18.015625 
L 9.28125 47.703125 
L 2.6875 47.703125 
L 2.6875 54.6875 
L 9.28125 54.6875 
L 9.28125 70.21875 
z
" id="DejaVuSans-74"/>
      <path d="M 8.5 21.578125 
L 8.5 54.6875 
L 17.484375 54.6875 
L 17.484375 21.921875 
Q 17.484375 14.15625 20.5 10.265625 
Q 23.53125 6.390625 29.59375 6.390625 
Q 36.859375 6.390625 41.078125 11.03125 
Q 45.3125 15.671875 45.3125 23.6875 
L 45.3125 54.6875 
L 54.296875 54.6875 
L 54.296875 0 
L 45.3125 0 
L 45.3125 8.40625 
Q 42.046875 3.421875 37.71875 1 
Q 33.40625 -1.421875 27.6875 -1.421875 
Q 18.265625 -1.421875 13.375 4.4375 
Q 8.5 10.296875 8.5 21.578125 
z
M 31.109375 56 
z
" id="DejaVuSans-75"/>
      <path d="M 11.71875 12.40625 
L 22.015625 12.40625 
L 22.015625 4 
L 14.015625 -11.625 
L 7.71875 -11.625 
L 11.71875 4 
z
" id="DejaVuSans-2c"/>
      <path d="M 18.109375 8.203125 
L 18.109375 -20.796875 
L 9.078125 -20.796875 
L 9.078125 54.6875 
L 18.109375 54.6875 
L 18.109375 46.390625 
Q 20.953125 51.265625 25.265625 53.625 
Q 29.59375 56 35.59375 56 
Q 45.5625 56 51.78125 48.09375 
Q 58.015625 40.1875 58.015625 27.296875 
Q 58.015625 14.40625 51.78125 6.484375 
Q 45.5625 -1.421875 35.59375 -1.421875 
Q 29.59375 -1.421875 25.265625 0.953125 
Q 20.953125 3.328125 18.109375 8.203125 
z
M 48.6875 27.296875 
Q 48.6875 37.203125 44.609375 42.84375 
Q 40.53125 48.484375 33.40625 48.484375 
Q 26.265625 48.484375 22.1875 42.84375 
Q 18.109375 37.203125 18.109375 27.296875 
Q 18.109375 17.390625 22.1875 11.75 
Q 26.265625 6.109375 33.40625 6.109375 
Q 40.53125 6.109375 44.609375 11.75 
Q 48.6875 17.390625 48.6875 27.296875 
z
" id="DejaVuSans-70"/>
     </defs>
     <g transform="translate(16.139531 294.999375)rotate(-90)scale(0.17 -0.17)">
      <use xlink:href="#DejaVuSans-46"/>
      <use x="57.410156" xlink:href="#DejaVuSans-72"/>
      <use x="98.523438" xlink:href="#DejaVuSans-61"/>
      <use x="159.802734" xlink:href="#DejaVuSans-63"/>
      <use x="214.783203" xlink:href="#DejaVuSans-74"/>
      <use x="253.992188" xlink:href="#DejaVuSans-69"/>
      <use x="281.775391" xlink:href="#DejaVuSans-6f"/>
      <use x="342.957031" xlink:href="#DejaVuSans-6e"/>
      <use x="406.335938" xlink:href="#DejaVuSans-20"/>
      <use x="438.123047" xlink:href="#DejaVuSans-6f"/>
      <use x="499.304688" xlink:href="#DejaVuSans-66"/>
      <use x="534.509766" xlink:href="#DejaVuSans-20"/>
      <use x="566.296875" xlink:href="#DejaVuSans-66"/>
      <use x="601.501953" xlink:href="#DejaVuSans-75"/>
      <use x="664.880859" xlink:href="#DejaVuSans-6e"/>
      <use x="728.259766" xlink:href="#DejaVuSans-63"/>
      <use x="783.240234" xlink:href="#DejaVuSans-74"/>
      <use x="822.449219" xlink:href="#DejaVuSans-69"/>
      <use x="850.232422" xlink:href="#DejaVuSans-6f"/>
      <use x="911.414062" xlink:href="#DejaVuSans-6e"/>
      <use x="974.792969" xlink:href="#DejaVuSans-2c"/>
      <use x="1006.580078" xlink:href="#DejaVuSans-74"/>
      <use x="1045.789062" xlink:href="#DejaVuSans-61"/>
      <use x="1107.068359" xlink:href="#DejaVuSans-72"/>
      <use x="1148.166016" xlink:href="#DejaVuSans-67"/>
      <use x="1211.642578" xlink:href="#DejaVuSans-65"/>
      <use x="1273.166016" xlink:href="#DejaVuSans-74"/>
      <use x="1312.375" xlink:href="#DejaVuSans-20"/>
      <use x="1344.162109" xlink:href="#DejaVuSans-70"/>
      <use x="1407.638672" xlink:href="#DejaVuSans-61"/>
      <use x="1468.917969" xlink:href="#DejaVuSans-69"/>
      <use x="1496.701172" xlink:href="#DejaVuSans-72"/>
      <use x="1537.814453" xlink:href="#DejaVuSans-73"/>
     </g>
    </g>
   </g>
   <g id="line2d_27">
    <defs>
     <path d="M 0 1.5 
C 0.397805 1.5 0.77937 1.341951 1.06066 1.06066 
C 1.341951 0.77937 1.5 0.397805 1.5 0 
C 1.5 -0.397805 1.341951 -0.77937 1.06066 -1.06066 
C 0.77937 -1.341951 0.397805 -1.5 0 -1.5 
C -0.397805 -1.5 -0.77937 -1.341951 -1.06066 -1.06066 
C -1.341951 -0.77937 -1.5 -0.397805 -1.5 0 
C -1.5 0.397805 -1.341951 0.77937 -1.06066 1.06066 
C -0.77937 1.341951 -0.397805 1.5 0 1.5 
z
" id="m7a41b1d7e9" style="stroke:#f5deb3;"/>
    </defs>
    <g>
     <use style="fill:#f5deb3;stroke:#f5deb3;" x="209.752245" xlink:href="#m7a41b1d7e9" y="27.513663"/>
     <use style="fill:#f5deb3;stroke:#f5deb3;" x="209.752245" xlink:href="#m7a41b1d7e9" y="27.513663"/>
    </g>
   </g>
   <g id="line2d_28">
    <defs>
     <path d="M 0 1.5 
C 0.397805 1.5 0.77937 1.341951 1.06066 1.06066 
C 1.341951 0.77937 1.5 0.397805 1.5 0 
C 1.5 -0.397805 1.341951 -0.77937 1.06066 -1.06066 
C 0.77937 -1.341951 0.397805 -1.5 0 -1.5 
C -0.397805 -1.5 -0.77937 -1.341951 -1.06066 -1.06066 
C -1.341951 -0.77937 -1.5 -0.397805 -1.5 0 
C -1.5 0.397805 -1.341951 0.77937 -1.06066 1.06066 
C -0.77937 1.341951 -0.397805 1.5 0 1.5 
z
" id="mdac6810484" style="stroke:#000080;"/>
    </defs>
    <g>
     <use style="fill:#000080;stroke:#000080;" x="338.121836" xlink:href="#mdac6810484" y="216.242842"/>
     <use style="fill:#000080;stroke:#000080;" x="338.121836" xlink:href="#mdac6810484" y="216.242842"/>
    </g>
   </g>
   <g id="line2d_29">
    <path d="M 4.578827 294.88 
L 4.578827 292.783009 
L 16.504332 292.783009 
L 16.504332 290.686018 
L 28.429836 290.686018 
L 28.429836 290.161771 
L 44.194496 290.161771 
L 44.194496 289.637523 
L 47.331314 289.637523 
L 47.331314 288.06478 
L 57.759799 288.06478 
L 57.759799 287.540532 
L 63.095973 287.540532 
L 63.095973 287.016284 
L 64.735772 287.016284 
L 64.735772 286.492036 
L 72.225361 286.492036 
L 72.225361 285.443541 
L 92.110241 285.443541 
L 92.110241 284.919293 
L 109.222589 284.919293 
L 109.222589 283.870798 
L 109.572531 283.870798 
L 109.649338 282.822302 
L 110.177599 282.822302 
L 110.177599 282.298055 
L 115.089931 282.298055 
L 115.089931 281.773807 
L 121.420883 281.773807 
L 121.420883 281.249559 
L 125.390991 281.249559 
L 125.390991 280.201064 
L 133.633941 280.201064 
L 133.633941 279.676816 
L 135.454257 279.676816 
L 135.454257 278.628321 
L 137.770876 278.628321 
L 137.770876 278.104073 
L 138.147883 278.104073 
L 138.147883 277.579825 
L 139.20425 277.579825 
L 139.20425 277.055578 
L 140.134469 277.055578 
L 140.134469 276.53133 
L 142.125406 276.53133 
L 142.131207 275.482834 
L 143.281056 275.482834 
L 143.281056 274.434339 
L 145.611646 274.434339 
L 145.611646 273.910091 
L 147.388311 273.910091 
L 147.388311 273.385844 
L 149.504733 273.385844 
L 149.504733 272.861596 
L 149.885917 272.861596 
L 149.885917 272.337348 
L 150.149991 272.337348 
L 150.149991 271.8131 
L 152.069742 271.8131 
L 152.069742 271.288853 
L 154.355734 271.288853 
L 154.355734 270.764605 
L 155.637877 270.764605 
L 155.637877 269.716109 
L 156.076707 269.716109 
L 156.076707 268.667614 
L 158.8745 268.667614 
L 158.8745 268.143366 
L 160.21094 268.143366 
L 160.21094 267.619119 
L 161.023014 267.619119 
L 161.023014 267.094871 
L 161.475524 267.094871 
L 161.475524 266.570623 
L 162.066394 266.570623 
L 162.066394 266.046375 
L 163.163223 266.046375 
L 163.163223 265.522128 
L 163.336599 265.522128 
L 163.336599 264.99788 
L 163.701392 264.99788 
L 163.701392 264.473632 
L 164.264949 264.473632 
L 164.264949 263.425137 
L 165.312417 263.425137 
L 165.359094 262.376641 
L 167.51304 262.376641 
L 167.51304 261.852394 
L 168.464055 261.852394 
L 168.464055 260.803898 
L 170.549398 260.803898 
L 170.549398 260.279651 
L 172.662732 260.279651 
L 172.662732 258.18266 
L 173.290434 258.18266 
L 173.290434 257.658412 
L 174.481935 257.658412 
L 174.481935 257.134164 
L 174.747103 257.134164 
L 174.747103 256.609917 
L 175.558877 256.609917 
L 175.558877 256.085669 
L 176.859107 256.085669 
L 176.859107 255.037173 
L 177.289109 255.037173 
L 177.289109 254.512926 
L 177.983687 254.512926 
L 177.983687 252.940182 
L 180.212903 252.940182 
L 180.212903 252.415935 
L 182.649168 252.415935 
L 182.649168 251.891687 
L 183.088266 251.891687 
L 183.088266 251.367439 
L 183.995907 251.367439 
L 183.995907 250.843192 
L 184.304622 250.843192 
L 184.304622 250.318944 
L 187.38477 250.318944 
L 187.38477 249.794696 
L 189.035547 249.794696 
L 189.035547 249.270448 
L 191.092932 249.270448 
L 191.092932 248.746201 
L 200.425523 248.746201 
L 200.425523 247.173458 
L 201.811941 247.173458 
L 201.811941 246.64921 
L 212.846637 246.64921 
L 212.846637 246.124962 
L 213.214364 246.124962 
L 213.214364 245.076467 
L 214.313996 245.076467 
L 214.313996 244.552219 
L 220.659905 244.552219 
L 220.659905 244.027971 
L 223.93738 244.027971 
L 223.93738 243.503724 
L 224.904565 243.503724 
L 224.904565 242.979476 
L 225.884783 242.979476 
L 225.884783 242.455228 
L 227.263918 242.455228 
L 227.263918 241.93098 
L 233.858357 241.93098 
L 233.858357 241.406733 
L 235.940894 241.406733 
L 235.940894 240.882485 
L 240.707708 240.882485 
L 240.707708 240.358237 
L 247.490822 240.358237 
L 247.490822 239.83399 
L 247.815624 239.83399 
L 247.815624 239.309742 
L 248.277223 239.309742 
L 248.277223 238.785494 
L 251.281877 238.785494 
L 251.353669 237.736999 
L 252.443939 237.736999 
L 252.443939 236.164255 
L 253.596404 236.164255 
L 253.596404 235.640008 
L 259.407438 235.640008 
L 259.407438 235.11576 
L 259.881523 235.11576 
L 259.881523 234.591512 
L 264.721836 234.591512 
L 264.721836 234.067265 
L 269.621928 234.067265 
L 269.621928 233.018769 
L 270.118195 233.018769 
L 270.118195 231.970274 
L 270.391237 231.970274 
L 270.391237 231.446026 
L 274.302851 231.446026 
L 274.302851 230.921778 
L 277.575864 230.921778 
L 277.575864 229.349035 
L 282.008854 229.349035 
L 282.008854 228.824787 
L 289.005781 228.824787 
L 289.005781 228.30054 
L 290.418183 228.30054 
L 290.418183 227.776292 
L 290.94816 227.776292 
L 290.94816 226.727797 
L 291.719132 226.727797 
L 291.719132 226.203549 
L 293.874289 226.203549 
L 293.874289 225.679301 
L 298.602118 225.679301 
L 298.602118 225.155053 
L 299.42211 225.155053 
L 299.42211 224.630806 
L 304.133238 224.630806 
L 304.133238 224.106558 
L 306.866228 224.106558 
L 306.866228 223.58231 
L 308.771062 223.58231 
L 308.771062 222.533815 
L 310.510537 222.533815 
L 310.510537 222.009567 
L 311.501737 222.009567 
L 311.501737 221.485319 
L 311.812224 221.485319 
L 311.812224 220.961072 
L 313.474768 220.961072 
L 313.474768 220.436824 
L 314.813869 220.436824 
L 314.813869 219.912576 
L 315.590589 219.912576 
L 315.590589 219.388328 
L 318.237597 219.388328 
L 318.237597 218.864081 
L 322.657171 218.864081 
L 322.657171 218.339833 
L 322.78157 218.339833 
L 322.78157 217.815585 
L 323.28619 217.815585 
L 323.28619 217.291338 
L 326.271825 217.291338 
L 326.271825 216.76709 
L 333.429677 216.76709 
L 333.429677 216.76709 
" style="fill:none;stroke:#000080;stroke-linecap:square;stroke-width:1.5;"/>
   </g>
   <g id="line2d_30">
    <defs>
     <path d="M 0 6 
C 1.591219 6 3.117479 5.367802 4.242641 4.242641 
C 5.367802 3.117479 6 1.591219 6 0 
C 6 -1.591219 5.367802 -3.117479 4.242641 -4.242641 
C 3.117479 -5.367802 1.591219 -6 0 -6 
C -1.591219 -6 -3.117479 -5.367802 -4.242641 -4.242641 
C -5.367802 -3.117479 -6 -1.591219 -6 0 
C -6 1.591219 -5.367802 3.117479 -4.242641 4.242641 
C -3.117479 5.367802 -1.591219 6 0 6 
z
" id="m24855f296e" style="stroke:#000080;stroke-width:1.5;"/>
    </defs>
    <g>
     <use style="fill-opacity:0;stroke:#000080;stroke-width:1.5;" x="72.225361" xlink:href="#m24855f296e" y="285.443541"/>
     <use style="fill-opacity:0;stroke:#000080;stroke-width:1.5;" x="152.069742" xlink:href="#m24855f296e" y="271.288853"/>
     <use style="fill-opacity:0;stroke:#000080;stroke-width:1.5;" x="214.313996" xlink:href="#m24855f296e" y="244.552219"/>
     <use style="fill-opacity:0;stroke:#000080;stroke-width:1.5;" x="293.874289" xlink:href="#m24855f296e" y="226.203549"/>
     <use style="fill-opacity:0;stroke:#000080;stroke-width:1.5;" x="326.271825" xlink:href="#m24855f296e" y="216.76709"/>
     <use style="fill-opacity:0;stroke:#000080;stroke-width:1.5;" x="333.429677" xlink:href="#m24855f296e" y="216.76709"/>
    </g>
   </g>
   <g id="line2d_31">
    <path style="fill:none;stroke:#000080;stroke-linecap:square;stroke-width:1.5;"/>
    <g/>
   </g>
   <g id="line2d_32">
    <path clip-path="url(#pe3fcef2764)" d="M 269.963 233.018769 
" style="fill:none;stroke:#000080;stroke-linecap:square;stroke-width:1.5;"/>
    <defs>
     <path d="M -12 12 
L 12 -12 
M -12 -12 
L 12 12 
" id="meb43b93a7b" style="stroke:#000080;stroke-width:3;"/>
    </defs>
    <g clip-path="url(#pe3fcef2764)">
     <use style="fill:#000080;stroke:#000080;stroke-width:3;" x="269.963" xlink:href="#meb43b93a7b" y="233.018769"/>
    </g>
   </g>
   <g id="line2d_33">
    <defs>
     <path d="M 0 1.5 
C 0.397805 1.5 0.77937 1.341951 1.06066 1.06066 
C 1.341951 0.77937 1.5 0.397805 1.5 0 
C 1.5 -0.397805 1.341951 -0.77937 1.06066 -1.06066 
C 0.77937 -1.341951 0.397805 -1.5 0 -1.5 
C -0.397805 -1.5 -0.77937 -1.341951 -1.06066 -1.06066 
C -1.341951 -0.77937 -1.5 -0.397805 -1.5 0 
C -1.5 0.397805 -1.341951 0.77937 -1.06066 1.06066 
C -0.77937 1.341951 -0.397805 1.5 0 1.5 
z
" id="m304b39befc" style="stroke:#ff00ff;"/>
    </defs>
    <g>
     <use style="fill:#ff00ff;stroke:#ff00ff;" x="360.461107" xlink:href="#m304b39befc" y="258.18266"/>
     <use style="fill:#ff00ff;stroke:#ff00ff;" x="360.461107" xlink:href="#m304b39befc" y="258.18266"/>
    </g>
   </g>
   <g id="line2d_34">
    <path d="M 4.578827 294.88 
L 4.578827 292.783009 
L 44.194496 292.783009 
L 44.194496 292.258761 
L 63.660117 292.258761 
L 63.660117 291.734514 
L 64.20635 291.734514 
L 64.20635 291.210266 
L 66.232791 291.210266 
L 66.232791 290.686018 
L 73.208764 290.686018 
L 73.208764 289.113275 
L 76.131854 289.113275 
L 76.131854 288.589027 
L 78.158295 288.589027 
L 78.158295 287.540532 
L 78.629691 287.540532 
L 78.629691 287.016284 
L 85.292839 287.016284 
L 85.292839 286.492036 
L 101.585964 286.492036 
L 101.585964 284.919293 
L 105.704484 284.919293 
L 105.704484 284.395046 
L 106.132843 284.395046 
L 106.132843 283.870798 
L 121.632224 283.870798 
L 121.632224 283.34655 
L 122.121674 283.34655 
L 122.121674 282.822302 
L 126.519584 282.822302 
L 126.519584 282.298055 
L 127.873474 282.298055 
L 127.873474 281.249559 
L 134.82729 281.249559 
L 134.82729 279.676816 
L 152.267185 279.676816 
L 152.267185 279.152568 
L 167.347735 279.152568 
L 167.347735 278.104073 
L 167.481169 278.104073 
L 167.481169 277.579825 
L 171.064289 277.579825 
L 171.064289 277.055578 
L 175.215532 277.055578 
L 175.215532 276.53133 
L 257.525138 276.53133 
L 257.525138 275.482834 
L 273.743335 275.482834 
L 273.743335 274.958587 
L 293.814261 274.958587 
L 293.814261 274.434339 
L 293.815057 274.434339 
L 293.815057 273.910091 
L 293.815134 273.910091 
L 293.815134 273.385844 
L 293.827728 273.385844 
L 293.827728 272.861596 
L 293.831465 272.861596 
L 293.831465 272.337348 
L 294.536482 272.337348 
L 294.536482 271.8131 
L 296.983995 271.8131 
L 296.983995 271.288853 
L 302.530393 271.288853 
L 302.530393 270.764605 
L 305.740039 270.764605 
L 305.740039 270.240357 
L 306.756429 270.240357 
L 306.756429 269.191862 
L 306.756429 269.191862 
L 306.756429 268.667614 
L 313.400067 268.667614 
L 313.400067 268.143366 
L 313.400067 268.143366 
L 313.400067 267.619119 
L 313.532734 267.619119 
L 313.532734 267.094871 
L 313.532734 267.094871 
L 313.532734 266.570623 
L 317.665182 266.570623 
L 317.665182 266.046375 
L 318.281566 266.046375 
L 318.281566 265.522128 
L 318.281567 265.522128 
L 318.281567 264.99788 
L 320.291379 264.99788 
L 320.291379 264.473632 
L 325.054472 264.473632 
L 325.054472 263.949385 
L 327.588803 263.949385 
L 327.588803 263.425137 
L 327.589872 263.425137 
L 327.589872 262.900889 
L 327.648151 262.900889 
L 327.648151 262.376641 
L 331.848204 262.376641 
L 331.848204 261.852394 
L 333.429677 261.852394 
" style="fill:none;stroke:#ff00ff;stroke-linecap:square;stroke-width:1.5;"/>
   </g>
   <g id="line2d_35">
    <defs>
     <path d="M -0 8.485281 
L 5.091169 0 
L 0 -8.485281 
L -5.091169 -0 
z
" id="md5d17c731d" style="stroke:#ff00ff;stroke-linejoin:miter;stroke-width:1.5;"/>
    </defs>
    <g>
     <use style="fill-opacity:0;stroke:#ff00ff;stroke-linejoin:miter;stroke-width:1.5;" x="106.132843" xlink:href="#md5d17c731d" y="283.870798"/>
     <use style="fill-opacity:0;stroke:#ff00ff;stroke-linejoin:miter;stroke-width:1.5;" x="175.215532" xlink:href="#md5d17c731d" y="277.055578"/>
     <use style="fill-opacity:0;stroke:#ff00ff;stroke-linejoin:miter;stroke-width:1.5;" x="175.215532" xlink:href="#md5d17c731d" y="276.53133"/>
     <use style="fill-opacity:0;stroke:#ff00ff;stroke-linejoin:miter;stroke-width:1.5;" x="331.848204" xlink:href="#md5d17c731d" y="261.852394"/>
     <use style="fill-opacity:0;stroke:#ff00ff;stroke-linejoin:miter;stroke-width:1.5;" x="331.848204" xlink:href="#md5d17c731d" y="261.852394"/>
     <use style="fill-opacity:0;stroke:#ff00ff;stroke-linejoin:miter;stroke-width:1.5;" x="333.429677" xlink:href="#md5d17c731d" y="261.852394"/>
    </g>
   </g>
   <g id="line2d_36">
    <path style="fill:none;stroke:#ff00ff;stroke-linecap:square;stroke-width:1.5;"/>
    <g/>
   </g>
   <g id="line2d_37">
    <path clip-path="url(#pe3fcef2764)" d="M 293.814019 274.958587 
" style="fill:none;stroke:#ff00ff;stroke-linecap:square;stroke-width:1.5;"/>
    <defs>
     <path d="M -12 12 
L 12 -12 
M -12 -12 
L 12 12 
" id="m98ca56725c" style="stroke:#ff00ff;stroke-width:3;"/>
    </defs>
    <g clip-path="url(#pe3fcef2764)">
     <use style="fill:#ff00ff;stroke:#ff00ff;stroke-width:3;" x="293.814019" xlink:href="#m98ca56725c" y="274.958587"/>
    </g>
   </g>
   <g id="line2d_38">
    <defs>
     <path d="M 0 1.5 
C 0.397805 1.5 0.77937 1.341951 1.06066 1.06066 
C 1.341951 0.77937 1.5 0.397805 1.5 0 
C 1.5 -0.397805 1.341951 -0.77937 1.06066 -1.06066 
C 0.77937 -1.341951 0.397805 -1.5 0 -1.5 
C -0.397805 -1.5 -0.77937 -1.341951 -1.06066 -1.06066 
C -1.341951 -0.77937 -1.5 -0.397805 -1.5 0 
C -1.5 0.397805 -1.341951 0.77937 -1.06066 1.06066 
C -0.77937 1.341951 -0.397805 1.5 0 1.5 
z
" id="ma7d588f29f" style="stroke:#ffa500;"/>
    </defs>
    <g>
     <use style="fill:#ffa500;stroke:#ffa500;" x="297.338667" xlink:href="#ma7d588f29f" y="231.970274"/>
     <use style="fill:#ffa500;stroke:#ffa500;" x="297.338667" xlink:href="#ma7d588f29f" y="231.970274"/>
    </g>
   </g>
   <g id="line2d_39">
    <path d="M 4.578827 294.88 
L 4.578827 293.831505 
L 16.504332 293.831505 
L 16.504332 292.783009 
L 23.480305 292.783009 
L 23.480305 292.258761 
L 35.405809 292.258761 
L 35.405809 291.734514 
L 42.381782 291.734514 
L 42.381782 291.210266 
L 48.708438 291.210266 
L 48.708438 290.686018 
L 56.959428 290.686018 
L 56.959428 290.161771 
L 67.609915 290.161771 
L 67.609915 288.589027 
L 71.884659 288.589027 
L 71.884659 287.016284 
L 76.920001 287.016284 
L 76.920001 284.919293 
L 86.946982 284.919293 
L 86.946982 284.395046 
L 98.510265 284.395046 
L 98.510265 283.870798 
L 108.744646 283.870798 
L 108.744646 282.822302 
L 111.603248 282.822302 
L 111.603248 282.298055 
L 116.509971 282.298055 
L 116.509971 281.773807 
L 121.708436 281.773807 
L 121.708436 281.249559 
L 124.670099 281.249559 
L 124.670099 280.201064 
L 127.415727 280.201064 
L 127.415727 278.628321 
L 139.598531 278.628321 
L 139.598531 278.104073 
L 156.115349 278.104073 
L 156.115349 277.579825 
L 159.3309 277.579825 
L 159.3309 277.055578 
L 165.498369 277.055578 
L 165.498369 276.53133 
L 167.016381 276.53133 
L 167.016381 276.007082 
L 167.426586 276.007082 
L 167.426586 275.482834 
L 169.269674 275.482834 
L 169.269674 274.434339 
L 170.658037 274.434339 
L 170.658037 273.910091 
L 177.34389 273.910091 
L 177.34389 273.385844 
L 180.236985 273.385844 
L 180.236985 272.861596 
L 180.955121 272.861596 
L 181.064708 271.8131 
L 181.272869 271.8131 
L 181.272869 271.288853 
L 181.47206 271.288853 
L 181.47206 269.191862 
L 182.024222 269.191862 
L 182.024222 268.667614 
L 186.72915 268.667614 
L 186.72915 268.143366 
L 187.373063 268.143366 
L 187.373063 267.619119 
L 188.32658 267.619119 
L 188.32658 267.094871 
L 189.850981 267.094871 
L 189.850981 266.570623 
L 191.72703 266.570623 
L 191.72703 266.046375 
L 192.865434 266.046375 
L 192.865434 264.473632 
L 193.213572 264.473632 
L 193.213572 263.949385 
L 193.555097 263.949385 
L 193.555097 263.425137 
L 195.044595 263.425137 
L 195.044595 262.900889 
L 195.341158 262.900889 
L 195.341158 261.328146 
L 195.68154 261.328146 
L 195.68154 260.803898 
L 195.864054 260.803898 
L 195.964367 259.231155 
L 197.79687 259.231155 
L 197.79687 258.706907 
L 198.352841 258.706907 
L 198.352841 258.18266 
L 198.484248 258.18266 
L 198.484248 257.658412 
L 200.416314 257.658412 
L 200.416314 257.134164 
L 201.428383 257.134164 
L 201.460874 255.561421 
L 202.367246 255.561421 
L 202.448416 253.988678 
L 203.787104 253.988678 
L 203.787104 252.940182 
L 205.21027 252.940182 
L 205.21027 252.415935 
L 205.904601 252.415935 
L 205.944585 250.843192 
L 206.846873 250.843192 
L 206.871535 248.746201 
L 208.002974 248.746201 
L 208.002974 248.221953 
L 208.301988 248.221953 
L 208.301988 247.697705 
L 210.84879 247.697705 
L 210.84879 246.124962 
L 212.030045 246.124962 
L 212.030045 245.600714 
L 214.455577 245.600714 
L 214.455577 244.552219 
L 215.051762 244.552219 
L 215.051762 242.979476 
L 215.872812 242.979476 
L 215.872812 242.455228 
L 217.584767 242.455228 
L 217.584767 241.93098 
L 218.343332 241.93098 
L 218.343332 241.406733 
L 221.742611 241.406733 
L 221.742611 240.882485 
L 221.924237 240.882485 
L 221.924237 240.358237 
L 227.270914 240.358237 
L 227.270914 239.83399 
L 231.370961 239.83399 
L 231.370961 238.785494 
L 255.43699 238.785494 
L 255.43699 238.261246 
L 255.748536 238.261246 
L 255.748536 237.212751 
L 256.013608 237.212751 
L 256.013608 236.688503 
L 256.144336 236.688503 
L 256.226602 235.640008 
L 267.070938 235.640008 
L 267.070938 235.11576 
L 267.404864 235.11576 
L 267.404864 234.591512 
L 268.277525 234.591512 
L 268.277525 234.067265 
L 278.937121 234.067265 
L 278.937121 233.543017 
L 279.41946 233.543017 
L 279.41946 233.018769 
L 290.54766 233.018769 
L 290.54766 232.494521 
L 297.338667 232.494521 
L 297.338667 231.970274 
L 333.429677 231.970274 
L 333.429677 231.970274 
" style="fill:none;stroke:#ffa500;stroke-linecap:square;stroke-width:1.5;"/>
   </g>
   <g id="line2d_40">
    <defs>
     <path d="M 0 -6 
L -1.347084 -1.854102 
L -5.706339 -1.854102 
L -2.179628 0.708204 
L -3.526712 4.854102 
L -0 2.291796 
L 3.526712 4.854102 
L 2.179628 0.708204 
L 5.706339 -1.854102 
L 1.347084 -1.854102 
z
" id="m95cc3edbc4" style="stroke:#ffa500;stroke-linejoin:bevel;stroke-width:1.5;"/>
    </defs>
    <g>
     <use style="fill-opacity:0;stroke:#ffa500;stroke-linejoin:bevel;stroke-width:1.5;" x="127.415727" xlink:href="#m95cc3edbc4" y="280.201064"/>
     <use style="fill-opacity:0;stroke:#ffa500;stroke-linejoin:bevel;stroke-width:1.5;" x="202.448416" xlink:href="#m95cc3edbc4" y="253.988678"/>
     <use style="fill-opacity:0;stroke:#ffa500;stroke-linejoin:bevel;stroke-width:1.5;" x="255.748536" xlink:href="#m95cc3edbc4" y="237.212751"/>
     <use style="fill-opacity:0;stroke:#ffa500;stroke-linejoin:bevel;stroke-width:1.5;" x="297.338667" xlink:href="#m95cc3edbc4" y="231.970274"/>
     <use style="fill-opacity:0;stroke:#ffa500;stroke-linejoin:bevel;stroke-width:1.5;" x="333.429677" xlink:href="#m95cc3edbc4" y="231.970274"/>
    </g>
   </g>
   <g id="line2d_41">
    <path style="fill:none;stroke:#ffa500;stroke-linecap:square;stroke-width:1.5;"/>
    <g/>
   </g>
   <g id="line2d_42">
    <path clip-path="url(#pe3fcef2764)" d="M 254.210174 238.785494 
" style="fill:none;stroke:#ffa500;stroke-linecap:square;stroke-width:1.5;"/>
    <defs>
     <path d="M -12 12 
L 12 -12 
M -12 -12 
L 12 12 
" id="mf2d93ac61f" style="stroke:#ffa500;stroke-width:3;"/>
    </defs>
    <g clip-path="url(#pe3fcef2764)">
     <use style="fill:#ffa500;stroke:#ffa500;stroke-width:3;" x="254.210174" xlink:href="#mf2d93ac61f" y="238.785494"/>
    </g>
   </g>
   <g id="line2d_43">
    <defs>
     <path d="M 0 1.5 
C 0.397805 1.5 0.77937 1.341951 1.06066 1.06066 
C 1.341951 0.77937 1.5 0.397805 1.5 0 
C 1.5 -0.397805 1.341951 -0.77937 1.06066 -1.06066 
C 0.77937 -1.341951 0.397805 -1.5 0 -1.5 
C -0.397805 -1.5 -0.77937 -1.341951 -1.06066 -1.06066 
C -1.341951 -0.77937 -1.5 -0.397805 -1.5 0 
C -1.5 0.397805 -1.341951 0.77937 -1.06066 1.06066 
C -0.77937 1.341951 -0.397805 1.5 0 1.5 
z
" id="m9916d6fb0d" style="stroke:#6495ed;"/>
    </defs>
    <g>
     <use style="fill:#6495ed;stroke:#6495ed;" x="281.909765" xlink:href="#m9916d6fb0d" y="242.455228"/>
     <use style="fill:#6495ed;stroke:#6495ed;" x="281.909765" xlink:href="#m9916d6fb0d" y="242.455228"/>
    </g>
   </g>
   <g id="line2d_44">
    <path d="M 4.578827 294.88 
L 4.578827 293.307257 
L 23.480305 293.307257 
L 23.480305 292.783009 
L 42.381782 292.783009 
L 42.381782 292.258761 
L 47.331314 292.258761 
L 47.331314 290.161771 
L 57.759799 290.161771 
L 57.759799 289.113275 
L 59.256818 289.113275 
L 59.256818 288.589027 
L 71.537074 288.589027 
L 71.537074 288.06478 
L 72.225361 288.06478 
L 72.225361 287.540532 
L 76.398601 287.540532 
L 76.398601 287.016284 
L 77.426063 287.016284 
L 77.426063 285.967789 
L 82.187561 285.967789 
L 82.187561 283.870798 
L 85.134268 283.870798 
L 85.134268 283.34655 
L 89.843168 283.34655 
L 89.843168 282.822302 
L 90.321112 282.822302 
L 90.321112 282.298055 
L 90.438552 282.298055 
L 90.438552 281.773807 
L 93.827106 281.773807 
L 93.827106 281.249559 
L 96.899726 281.249559 
L 96.899726 280.201064 
L 97.914366 280.201064 
L 97.914366 279.676816 
L 99.015266 279.676816 
L 99.015266 279.152568 
L 101.025901 279.152568 
L 101.025901 278.628321 
L 102.711641 278.628321 
L 102.711641 278.104073 
L 107.003582 278.104073 
L 107.003582 277.579825 
L 109.915496 277.579825 
L 109.915496 276.53133 
L 111.152743 276.53133 
L 111.152743 274.958587 
L 112.567638 274.958587 
L 112.567638 273.910091 
L 123.867442 273.910091 
L 123.867442 273.385844 
L 126.533951 273.385844 
L 126.533951 272.861596 
L 129.32504 272.861596 
L 129.32504 272.337348 
L 130.22889 272.337348 
L 130.3098 269.716109 
L 132.55522 269.716109 
L 132.55522 269.191862 
L 134.195019 269.191862 
L 134.195019 267.619119 
L 136.001291 267.619119 
L 136.001291 267.094871 
L 139.658911 267.094871 
L 139.658911 266.046375 
L 142.498503 266.046375 
L 142.498503 264.99788 
L 142.93026 264.99788 
L 142.93026 264.473632 
L 151.893046 264.473632 
L 151.893046 262.900889 
L 152.471932 262.900889 
L 152.471932 262.376641 
L 160.550329 262.376641 
L 160.550329 261.328146 
L 161.820659 261.328146 
L 161.820659 260.279651 
L 162.177107 260.279651 
L 162.177107 259.231155 
L 166.693832 259.231155 
L 166.693832 258.706907 
L 167.079083 258.706907 
L 167.079083 258.18266 
L 167.426586 258.18266 
L 167.426586 257.134164 
L 168.152428 257.134164 
L 168.152428 256.609917 
L 172.204253 256.609917 
L 172.204253 256.085669 
L 173.426449 256.085669 
L 173.426449 255.561421 
L 182.341494 255.561421 
L 182.341494 255.037173 
L 182.57691 255.037173 
L 182.57691 253.46443 
L 183.927567 253.46443 
L 183.927567 252.415935 
L 195.677152 252.415935 
L 195.677152 250.843192 
L 254.215563 250.843192 
L 254.313733 247.697705 
L 254.344246 247.697705 
L 254.344246 246.124962 
L 254.470204 246.124962 
L 254.470204 245.600714 
L 266.176948 245.600714 
L 266.268053 243.503724 
L 278.075922 243.503724 
L 278.075922 242.979476 
L 281.909765 242.979476 
L 281.909765 242.455228 
L 333.429677 242.455228 
L 333.429677 242.455228 
" style="fill:none;stroke:#6495ed;stroke-linecap:square;stroke-width:1.5;"/>
   </g>
   <g id="line2d_45">
    <defs>
     <path d="M -0 6 
L 6 -6 
L -6 -6 
z
" id="m48fc6bc316" style="stroke:#6495ed;stroke-linejoin:miter;stroke-width:1.5;"/>
    </defs>
    <g>
     <use style="fill-opacity:0;stroke:#6495ed;stroke-linejoin:miter;stroke-width:1.5;" x="59.256818" xlink:href="#m48fc6bc316" y="289.113275"/>
     <use style="fill-opacity:0;stroke:#6495ed;stroke-linejoin:miter;stroke-width:1.5;" x="130.3098" xlink:href="#m48fc6bc316" y="269.716109"/>
     <use style="fill-opacity:0;stroke:#6495ed;stroke-linejoin:miter;stroke-width:1.5;" x="195.677152" xlink:href="#m48fc6bc316" y="252.415935"/>
     <use style="fill-opacity:0;stroke:#6495ed;stroke-linejoin:miter;stroke-width:1.5;" x="266.268053" xlink:href="#m48fc6bc316" y="243.503724"/>
     <use style="fill-opacity:0;stroke:#6495ed;stroke-linejoin:miter;stroke-width:1.5;" x="281.909765" xlink:href="#m48fc6bc316" y="242.455228"/>
     <use style="fill-opacity:0;stroke:#6495ed;stroke-linejoin:miter;stroke-width:1.5;" x="333.429677" xlink:href="#m48fc6bc316" y="242.455228"/>
    </g>
   </g>
   <g id="line2d_46">
    <path style="fill:none;stroke:#6495ed;stroke-linecap:square;stroke-width:1.5;"/>
    <g/>
   </g>
   <g id="line2d_47">
    <path clip-path="url(#pe3fcef2764)" d="M 254.198341 250.843192 
" style="fill:none;stroke:#6495ed;stroke-linecap:square;stroke-width:1.5;"/>
    <defs>
     <path d="M -12 12 
L 12 -12 
M -12 -12 
L 12 12 
" id="m25bd3e65af" style="stroke:#6495ed;stroke-width:3;"/>
    </defs>
    <g clip-path="url(#pe3fcef2764)">
     <use style="fill:#6495ed;stroke:#6495ed;stroke-width:3;" x="254.198341" xlink:href="#m25bd3e65af" y="250.843192"/>
    </g>
   </g>
   <g id="line2d_48">
    <defs>
     <path d="M 0 1.5 
C 0.397805 1.5 0.77937 1.341951 1.06066 1.06066 
C 1.341951 0.77937 1.5 0.397805 1.5 0 
C 1.5 -0.397805 1.341951 -0.77937 1.06066 -1.06066 
C 0.77937 -1.341951 0.397805 -1.5 0 -1.5 
C -0.397805 -1.5 -0.77937 -1.341951 -1.06066 -1.06066 
C -1.341951 -0.77937 -1.5 -0.397805 -1.5 0 
C -1.5 0.397805 -1.341951 0.77937 -1.06066 1.06066 
C -0.77937 1.341951 -0.397805 1.5 0 1.5 
z
" id="m8646a63a03" style="stroke:#ff0000;"/>
    </defs>
    <g>
     <use style="fill:#ff0000;stroke:#ff0000;" x="261.175157" xlink:href="#m8646a63a03" y="279.152568"/>
     <use style="fill:#ff0000;stroke:#ff0000;" x="261.175157" xlink:href="#m8646a63a03" y="279.152568"/>
    </g>
   </g>
   <g id="line2d_49">
    <path d="M 4.578827 294.88 
L 4.578827 291.210266 
L 45.834294 291.210266 
L 45.834294 289.637523 
L 65.748115 289.637523 
L 65.748115 289.113275 
L 87.78641 289.113275 
L 87.78641 288.06478 
L 95.033331 288.06478 
L 95.033331 287.540532 
L 214.583705 287.540532 
L 214.583705 287.016284 
L 214.592563 287.016284 
L 214.592563 286.492036 
L 214.593594 286.492036 
L 214.593594 285.967789 
L 214.59411 285.967789 
L 214.59411 285.443541 
L 214.599268 285.443541 
L 214.599268 284.919293 
L 226.508306 284.919293 
L 226.508306 284.395046 
L 226.508736 284.395046 
L 226.508736 283.870798 
L 226.743514 283.870798 
L 226.743514 283.34655 
L 226.800781 283.34655 
L 226.800781 282.822302 
L 233.484265 282.822302 
L 233.484265 282.298055 
L 233.48524 282.298055 
L 233.48524 281.773807 
L 238.436219 281.773807 
L 238.436219 281.249559 
L 242.276226 281.249559 
L 242.276226 280.725312 
L 245.409898 280.725312 
L 245.409898 280.201064 
L 245.410271 280.201064 
L 245.410271 279.676816 
L 261.175157 279.676816 
L 261.175157 279.152568 
L 333.429677 279.152568 
" style="fill:none;stroke:#ff0000;stroke-linecap:square;stroke-width:1.5;"/>
   </g>
   <g id="line2d_50">
    <defs>
     <path d="M 0 -6 
L -5.196152 -3 
L -5.196152 3 
L -0 6 
L 5.196152 3 
L 5.196152 -3 
z
" id="mbb362b6fca" style="stroke:#ff0000;stroke-linejoin:miter;stroke-width:1.5;"/>
    </defs>
    <g>
     <use style="fill-opacity:0;stroke:#ff0000;stroke-linejoin:miter;stroke-width:1.5;" x="95.033331" xlink:href="#mbb362b6fca" y="288.06478"/>
     <use style="fill-opacity:0;stroke:#ff0000;stroke-linejoin:miter;stroke-width:1.5;" x="95.033331" xlink:href="#mbb362b6fca" y="287.540532"/>
     <use style="fill-opacity:0;stroke:#ff0000;stroke-linejoin:miter;stroke-width:1.5;" x="261.175157" xlink:href="#mbb362b6fca" y="279.676816"/>
     <use style="fill-opacity:0;stroke:#ff0000;stroke-linejoin:miter;stroke-width:1.5;" x="261.175157" xlink:href="#mbb362b6fca" y="279.152568"/>
     <use style="fill-opacity:0;stroke:#ff0000;stroke-linejoin:miter;stroke-width:1.5;" x="261.175157" xlink:href="#mbb362b6fca" y="279.152568"/>
     <use style="fill-opacity:0;stroke:#ff0000;stroke-linejoin:miter;stroke-width:1.5;" x="333.429677" xlink:href="#mbb362b6fca" y="279.152568"/>
    </g>
   </g>
   <g id="line2d_51">
    <path style="fill:none;stroke:#ff0000;stroke-linecap:square;stroke-width:1.5;"/>
    <g/>
   </g>
   <g id="line2d_52">
    <path clip-path="url(#pe3fcef2764)" d="M 214.582759 287.540532 
" style="fill:none;stroke:#ff0000;stroke-linecap:square;stroke-width:1.5;"/>
    <defs>
     <path d="M -12 12 
L 12 -12 
M -12 -12 
L 12 12 
" id="m1164d19625" style="stroke:#ff0000;stroke-width:3;"/>
    </defs>
    <g clip-path="url(#pe3fcef2764)">
     <use style="fill:#ff0000;stroke:#ff0000;stroke-width:3;" x="214.582759" xlink:href="#m1164d19625" y="287.540532"/>
    </g>
   </g>
   <g id="line2d_53">
    <defs>
     <path d="M 0 1.5 
C 0.397805 1.5 0.77937 1.341951 1.06066 1.06066 
C 1.341951 0.77937 1.5 0.397805 1.5 0 
C 1.5 -0.397805 1.341951 -0.77937 1.06066 -1.06066 
C 0.77937 -1.341951 0.397805 -1.5 0 -1.5 
C -0.397805 -1.5 -0.77937 -1.341951 -1.06066 -1.06066 
C -1.341951 -0.77937 -1.5 -0.397805 -1.5 0 
C -1.5 0.397805 -1.341951 0.77937 -1.06066 1.06066 
C -0.77937 1.341951 -0.397805 1.5 0 1.5 
z
" id="m7ff46696e0" style="stroke:#9acd32;"/>
    </defs>
    <g>
     <use style="fill:#9acd32;stroke:#9acd32;" x="147.494816" xlink:href="#m7ff46696e0" y="279.152568"/>
     <use style="fill:#9acd32;stroke:#9acd32;" x="147.494816" xlink:href="#m7ff46696e0" y="279.152568"/>
    </g>
   </g>
   <g id="line2d_54">
    <path d="M 4.578827 294.88 
L 4.578827 289.113275 
L 16.504332 289.113275 
L 16.504332 288.589027 
L 38.057951 288.589027 
L 38.057951 288.06478 
L 42.381782 288.06478 
L 42.381782 287.016284 
L 80.395842 287.016284 
L 80.395842 285.443541 
L 82.92767 285.443541 
L 82.92767 284.919293 
L 92.216118 284.919293 
L 92.216118 283.870798 
L 99.156871 283.870798 
L 99.156871 283.34655 
L 104.088765 283.34655 
L 104.088765 282.822302 
L 122.954914 282.822302 
L 122.954914 282.298055 
L 126.790532 282.298055 
L 126.790532 281.773807 
L 132.575449 281.773807 
L 132.575449 281.249559 
L 134.139727 281.249559 
L 134.139727 280.725312 
L 139.818895 280.725312 
L 139.818895 280.201064 
L 140.861543 280.201064 
L 140.861543 279.676816 
L 147.494816 279.676816 
L 147.494816 279.152568 
L 333.429677 279.152568 
" style="fill:none;stroke:#9acd32;stroke-linecap:square;stroke-width:1.5;"/>
   </g>
   <g id="line2d_55">
    <defs>
     <path d="M 0 -6 
L -6 6 
L 6 6 
z
" id="mbec0f8810b" style="stroke:#9acd32;stroke-linejoin:miter;stroke-width:1.5;"/>
    </defs>
    <g>
     <use style="fill-opacity:0;stroke:#9acd32;stroke-linejoin:miter;stroke-width:1.5;" x="104.088765" xlink:href="#mbec0f8810b" y="282.822302"/>
     <use style="fill-opacity:0;stroke:#9acd32;stroke-linejoin:miter;stroke-width:1.5;" x="147.494816" xlink:href="#mbec0f8810b" y="279.676816"/>
     <use style="fill-opacity:0;stroke:#9acd32;stroke-linejoin:miter;stroke-width:1.5;" x="147.494816" xlink:href="#mbec0f8810b" y="279.152568"/>
     <use style="fill-opacity:0;stroke:#9acd32;stroke-linejoin:miter;stroke-width:1.5;" x="147.494816" xlink:href="#mbec0f8810b" y="279.152568"/>
     <use style="fill-opacity:0;stroke:#9acd32;stroke-linejoin:miter;stroke-width:1.5;" x="333.429677" xlink:href="#mbec0f8810b" y="279.152568"/>
    </g>
   </g>
   <g id="line2d_56">
    <path style="fill:none;stroke:#9acd32;stroke-linecap:square;stroke-width:1.5;"/>
    <g/>
   </g>
   <g id="line2d_57">
    <path clip-path="url(#pe3fcef2764)" d="M 80.184737 287.016284 
" style="fill:none;stroke:#9acd32;stroke-linecap:square;stroke-width:1.5;"/>
    <defs>
     <path d="M -12 12 
L 12 -12 
M -12 -12 
L 12 12 
" id="m3f02656589" style="stroke:#9acd32;stroke-width:3;"/>
    </defs>
    <g clip-path="url(#pe3fcef2764)">
     <use style="fill:#9acd32;stroke:#9acd32;stroke-width:3;" x="80.184737" xlink:href="#m3f02656589" y="287.016284"/>
    </g>
   </g>
   <g id="line2d_58">
    <path d="M 333.429677 279.152568 
L 363.933742 289.532673 
" style="fill:none;stroke:#ff0000;stroke-linecap:square;stroke-width:1.5;"/>
    <g>
     <use style="fill-opacity:0;stroke:#ff0000;stroke-linejoin:miter;stroke-width:1.5;" x="333.429677" xlink:href="#mbb362b6fca" y="279.152568"/>
     <use style="fill-opacity:0;stroke:#ff0000;stroke-linejoin:miter;stroke-width:1.5;" x="363.933742" xlink:href="#mbb362b6fca" y="289.532673"/>
    </g>
   </g>
   <g id="line2d_59">
    <path d="M 333.429677 279.152568 
L 363.933742 246.754059 
" style="fill:none;stroke:#9acd32;stroke-linecap:square;stroke-width:1.5;"/>
    <g>
     <use style="fill-opacity:0;stroke:#9acd32;stroke-linejoin:miter;stroke-width:1.5;" x="333.429677" xlink:href="#mbec0f8810b" y="279.152568"/>
     <use style="fill-opacity:0;stroke:#9acd32;stroke-linejoin:miter;stroke-width:1.5;" x="363.933742" xlink:href="#mbec0f8810b" y="246.754059"/>
    </g>
   </g>
   <g id="line2d_60">
    <path d="M 333.429677 261.852394 
L 363.933742 203.975446 
" style="fill:none;stroke:#ff00ff;stroke-linecap:square;stroke-width:1.5;"/>
    <g>
     <use style="fill-opacity:0;stroke:#ff00ff;stroke-linejoin:miter;stroke-width:1.5;" x="333.429677" xlink:href="#md5d17c731d" y="261.852394"/>
     <use style="fill-opacity:0;stroke:#ff00ff;stroke-linejoin:miter;stroke-width:1.5;" x="363.933742" xlink:href="#md5d17c731d" y="203.975446"/>
    </g>
   </g>
   <g id="line2d_61">
    <path d="M 333.429677 242.455228 
L 363.933742 161.196832 
" style="fill:none;stroke:#6495ed;stroke-linecap:square;stroke-width:1.5;"/>
    <g>
     <use style="fill-opacity:0;stroke:#6495ed;stroke-linejoin:miter;stroke-width:1.5;" x="333.429677" xlink:href="#m48fc6bc316" y="242.455228"/>
     <use style="fill-opacity:0;stroke:#6495ed;stroke-linejoin:miter;stroke-width:1.5;" x="363.933742" xlink:href="#m48fc6bc316" y="161.196832"/>
    </g>
   </g>
   <g id="line2d_62">
    <path d="M 333.429677 231.970274 
L 363.933742 118.418218 
" style="fill:none;stroke:#ffa500;stroke-linecap:square;stroke-width:1.5;"/>
    <g>
     <use style="fill-opacity:0;stroke:#ffa500;stroke-linejoin:bevel;stroke-width:1.5;" x="333.429677" xlink:href="#m95cc3edbc4" y="231.970274"/>
     <use style="fill-opacity:0;stroke:#ffa500;stroke-linejoin:bevel;stroke-width:1.5;" x="363.933742" xlink:href="#m95cc3edbc4" y="118.418218"/>
    </g>
   </g>
   <g id="line2d_63">
    <path d="M 333.429677 216.76709 
L 363.933742 75.639604 
" style="fill:none;stroke:#000080;stroke-linecap:square;stroke-width:1.5;"/>
    <g>
     <use style="fill-opacity:0;stroke:#000080;stroke-width:1.5;" x="333.429677" xlink:href="#m24855f296e" y="216.76709"/>
     <use style="fill-opacity:0;stroke:#000080;stroke-width:1.5;" x="363.933742" xlink:href="#m24855f296e" y="75.639604"/>
    </g>
   </g>
   <g id="line2d_64">
    <path d="M 333.429677 294.88 
L 333.429677 27.513663 
" style="fill:none;stroke:#000000;stroke-linecap:square;stroke-width:1.5;"/>
   </g>
   <g id="patch_3">
    <path d="M 56.12 294.88 
L 56.12 24.84 
" style="fill:none;stroke:#000000;stroke-linecap:square;stroke-linejoin:miter;stroke-width:0.8;"/>
   </g>
   <g id="patch_4">
    <path d="M 399.984 294.88 
L 399.984 24.84 
" style="fill:none;stroke:#000000;stroke-linecap:square;stroke-linejoin:miter;stroke-width:0.8;"/>
   </g>
   <g id="patch_5">
    <path d="M 56.12 294.88 
L 399.984 294.88 
" style="fill:none;stroke:#000000;stroke-linecap:square;stroke-linejoin:miter;stroke-width:0.8;"/>
   </g>
   <g id="patch_6">
    <path d="M 56.12 24.84 
L 399.984 24.84 
" style="fill:none;stroke:#000000;stroke-linecap:square;stroke-linejoin:miter;stroke-width:0.8;"/>
   </g>
   <g id="text_14">
    <!-- Rosenbroc -->
    <defs>
     <path d="M 44.390625 34.1875 
Q 47.5625 33.109375 50.5625 29.59375 
Q 53.5625 26.078125 56.59375 19.921875 
L 66.609375 0 
L 56 0 
L 46.6875 18.703125 
Q 43.0625 26.03125 39.671875 28.421875 
Q 36.28125 30.8125 30.421875 30.8125 
L 19.671875 30.8125 
L 19.671875 0 
L 9.8125 0 
L 9.8125 72.90625 
L 32.078125 72.90625 
Q 44.578125 72.90625 50.734375 67.671875 
Q 56.890625 62.453125 56.890625 51.90625 
Q 56.890625 45.015625 53.6875 40.46875 
Q 50.484375 35.9375 44.390625 34.1875 
z
M 19.671875 64.796875 
L 19.671875 38.921875 
L 32.078125 38.921875 
Q 39.203125 38.921875 42.84375 42.21875 
Q 46.484375 45.515625 46.484375 51.90625 
Q 46.484375 58.296875 42.84375 61.546875 
Q 39.203125 64.796875 32.078125 64.796875 
z
" id="DejaVuSans-52"/>
     <path d="M 48.6875 27.296875 
Q 48.6875 37.203125 44.609375 42.84375 
Q 40.53125 48.484375 33.40625 48.484375 
Q 26.265625 48.484375 22.1875 42.84375 
Q 18.109375 37.203125 18.109375 27.296875 
Q 18.109375 17.390625 22.1875 11.75 
Q 26.265625 6.109375 33.40625 6.109375 
Q 40.53125 6.109375 44.609375 11.75 
Q 48.6875 17.390625 48.6875 27.296875 
z
M 18.109375 46.390625 
Q 20.953125 51.265625 25.265625 53.625 
Q 29.59375 56 35.59375 56 
Q 45.5625 56 51.78125 48.09375 
Q 58.015625 40.1875 58.015625 27.296875 
Q 58.015625 14.40625 51.78125 6.484375 
Q 45.5625 -1.421875 35.59375 -1.421875 
Q 29.59375 -1.421875 25.265625 0.953125 
Q 20.953125 3.328125 18.109375 8.203125 
L 18.109375 0 
L 9.078125 0 
L 9.078125 75.984375 
L 18.109375 75.984375 
z
" id="DejaVuSans-62"/>
    </defs>
    <g transform="translate(369.479935 294.223611)scale(0.17 -0.17)">
     <use xlink:href="#DejaVuSans-52"/>
     <use x="69.419922" xlink:href="#DejaVuSans-6f"/>
     <use x="130.601562" xlink:href="#DejaVuSans-73"/>
     <use x="182.701172" xlink:href="#DejaVuSans-65"/>
     <use x="244.224609" xlink:href="#DejaVuSans-6e"/>
     <use x="307.603516" xlink:href="#DejaVuSans-62"/>
     <use x="371.080078" xlink:href="#DejaVuSans-72"/>
     <use x="412.162109" xlink:href="#DejaVuSans-6f"/>
     <use x="473.34375" xlink:href="#DejaVuSans-63"/>
    </g>
   </g>
   <g id="text_15">
    <!-- gsa solve -->
    <g transform="translate(369.479935 251.444997)scale(0.17 -0.17)">
     <use xlink:href="#DejaVuSans-67"/>
     <use x="63.476562" xlink:href="#DejaVuSans-73"/>
     <use x="115.576172" xlink:href="#DejaVuSans-61"/>
     <use x="176.855469" xlink:href="#DejaVuSans-20"/>
     <use x="208.642578" xlink:href="#DejaVuSans-73"/>
     <use x="260.742188" xlink:href="#DejaVuSans-6f"/>
     <use x="321.923828" xlink:href="#DejaVuSans-6c"/>
     <use x="349.707031" xlink:href="#DejaVuSans-76"/>
     <use x="408.886719" xlink:href="#DejaVuSans-65"/>
    </g>
   </g>
   <g id="text_16">
    <!-- DASA -->
    <defs>
     <path d="M 19.671875 64.796875 
L 19.671875 8.109375 
L 31.59375 8.109375 
Q 46.6875 8.109375 53.6875 14.9375 
Q 60.6875 21.78125 60.6875 36.53125 
Q 60.6875 51.171875 53.6875 57.984375 
Q 46.6875 64.796875 31.59375 64.796875 
z
M 9.8125 72.90625 
L 30.078125 72.90625 
Q 51.265625 72.90625 61.171875 64.09375 
Q 71.09375 55.28125 71.09375 36.53125 
Q 71.09375 17.671875 61.125 8.828125 
Q 51.171875 0 30.078125 0 
L 9.8125 0 
z
" id="DejaVuSans-44"/>
     <path d="M 34.1875 63.1875 
L 20.796875 26.90625 
L 47.609375 26.90625 
z
M 28.609375 72.90625 
L 39.796875 72.90625 
L 67.578125 0 
L 57.328125 0 
L 50.6875 18.703125 
L 17.828125 18.703125 
L 11.1875 0 
L 0.78125 0 
z
" id="DejaVuSans-41"/>
     <path d="M 53.515625 70.515625 
L 53.515625 60.890625 
Q 47.90625 63.578125 42.921875 64.890625 
Q 37.9375 66.21875 33.296875 66.21875 
Q 25.25 66.21875 20.875 63.09375 
Q 16.5 59.96875 16.5 54.203125 
Q 16.5 49.359375 19.40625 46.890625 
Q 22.3125 44.4375 30.421875 42.921875 
L 36.375 41.703125 
Q 47.40625 39.59375 52.65625 34.296875 
Q 57.90625 29 57.90625 20.125 
Q 57.90625 9.515625 50.796875 4.046875 
Q 43.703125 -1.421875 29.984375 -1.421875 
Q 24.8125 -1.421875 18.96875 -0.25 
Q 13.140625 0.921875 6.890625 3.21875 
L 6.890625 13.375 
Q 12.890625 10.015625 18.65625 8.296875 
Q 24.421875 6.59375 29.984375 6.59375 
Q 38.421875 6.59375 43.015625 9.90625 
Q 47.609375 13.234375 47.609375 19.390625 
Q 47.609375 24.75 44.3125 27.78125 
Q 41.015625 30.8125 33.5 32.328125 
L 27.484375 33.5 
Q 16.453125 35.6875 11.515625 40.375 
Q 6.59375 45.0625 6.59375 53.421875 
Q 6.59375 63.09375 13.40625 68.65625 
Q 20.21875 74.21875 32.171875 74.21875 
Q 37.3125 74.21875 42.625 73.28125 
Q 47.953125 72.359375 53.515625 70.515625 
z
" id="DejaVuSans-53"/>
    </defs>
    <g transform="translate(369.479935 208.666383)scale(0.17 -0.17)">
     <use xlink:href="#DejaVuSans-44"/>
     <use x="76.986328" xlink:href="#DejaVuSans-41"/>
     <use x="145.394531" xlink:href="#DejaVuSans-53"/>
     <use x="208.886719" xlink:href="#DejaVuSans-41"/>
    </g>
   </g>
   <g id="text_17">
    <!-- PSO -->
    <defs>
     <path d="M 19.671875 64.796875 
L 19.671875 37.40625 
L 32.078125 37.40625 
Q 38.96875 37.40625 42.71875 40.96875 
Q 46.484375 44.53125 46.484375 51.125 
Q 46.484375 57.671875 42.71875 61.234375 
Q 38.96875 64.796875 32.078125 64.796875 
z
M 9.8125 72.90625 
L 32.078125 72.90625 
Q 44.34375 72.90625 50.609375 67.359375 
Q 56.890625 61.8125 56.890625 51.125 
Q 56.890625 40.328125 50.609375 34.8125 
Q 44.34375 29.296875 32.078125 29.296875 
L 19.671875 29.296875 
L 19.671875 0 
L 9.8125 0 
z
" id="DejaVuSans-50"/>
     <path d="M 39.40625 66.21875 
Q 28.65625 66.21875 22.328125 58.203125 
Q 16.015625 50.203125 16.015625 36.375 
Q 16.015625 22.609375 22.328125 14.59375 
Q 28.65625 6.59375 39.40625 6.59375 
Q 50.140625 6.59375 56.421875 14.59375 
Q 62.703125 22.609375 62.703125 36.375 
Q 62.703125 50.203125 56.421875 58.203125 
Q 50.140625 66.21875 39.40625 66.21875 
z
M 39.40625 74.21875 
Q 54.734375 74.21875 63.90625 63.9375 
Q 73.09375 53.65625 73.09375 36.375 
Q 73.09375 19.140625 63.90625 8.859375 
Q 54.734375 -1.421875 39.40625 -1.421875 
Q 24.03125 -1.421875 14.8125 8.828125 
Q 5.609375 19.09375 5.609375 36.375 
Q 5.609375 53.65625 14.8125 63.9375 
Q 24.03125 74.21875 39.40625 74.21875 
z
" id="DejaVuSans-4f"/>
    </defs>
    <g transform="translate(369.479935 165.887769)scale(0.17 -0.17)">
     <use xlink:href="#DejaVuSans-50"/>
     <use x="60.302734" xlink:href="#DejaVuSans-53"/>
     <use x="123.779297" xlink:href="#DejaVuSans-4f"/>
    </g>
   </g>
   <g id="text_18">
    <!-- GA -->
    <defs>
     <path d="M 59.515625 10.40625 
L 59.515625 29.984375 
L 43.40625 29.984375 
L 43.40625 38.09375 
L 69.28125 38.09375 
L 69.28125 6.78125 
Q 63.578125 2.734375 56.6875 0.65625 
Q 49.8125 -1.421875 42 -1.421875 
Q 24.90625 -1.421875 15.25 8.5625 
Q 5.609375 18.5625 5.609375 36.375 
Q 5.609375 54.25 15.25 64.234375 
Q 24.90625 74.21875 42 74.21875 
Q 49.125 74.21875 55.546875 72.453125 
Q 61.96875 70.703125 67.390625 67.28125 
L 67.390625 56.78125 
Q 61.921875 61.421875 55.765625 63.765625 
Q 49.609375 66.109375 42.828125 66.109375 
Q 29.4375 66.109375 22.71875 58.640625 
Q 16.015625 51.171875 16.015625 36.375 
Q 16.015625 21.625 22.71875 14.15625 
Q 29.4375 6.6875 42.828125 6.6875 
Q 48.046875 6.6875 52.140625 7.59375 
Q 56.25 8.5 59.515625 10.40625 
z
" id="DejaVuSans-47"/>
    </defs>
    <g transform="translate(369.479935 123.109155)scale(0.17 -0.17)">
     <use xlink:href="#DejaVuSans-47"/>
     <use x="77.490234" xlink:href="#DejaVuSans-41"/>
    </g>
   </g>
   <g id="text_19">
    <!-- ALPS -->
    <defs>
     <path d="M 9.8125 72.90625 
L 19.671875 72.90625 
L 19.671875 8.296875 
L 55.171875 8.296875 
L 55.171875 0 
L 9.8125 0 
z
" id="DejaVuSans-4c"/>
    </defs>
    <g transform="translate(369.479935 80.330541)scale(0.17 -0.17)">
     <use xlink:href="#DejaVuSans-41"/>
     <use x="68.408203" xlink:href="#DejaVuSans-4c"/>
     <use x="124.121094" xlink:href="#DejaVuSans-50"/>
     <use x="184.423828" xlink:href="#DejaVuSans-53"/>
    </g>
   </g>
   <g id="text_20">
    <!-- best 2009 -->
    <defs>
     <path d="M 10.984375 1.515625 
L 10.984375 10.5 
Q 14.703125 8.734375 18.5 7.8125 
Q 22.3125 6.890625 25.984375 6.890625 
Q 35.75 6.890625 40.890625 13.453125 
Q 46.046875 20.015625 46.78125 33.40625 
Q 43.953125 29.203125 39.59375 26.953125 
Q 35.25 24.703125 29.984375 24.703125 
Q 19.046875 24.703125 12.671875 31.3125 
Q 6.296875 37.9375 6.296875 49.421875 
Q 6.296875 60.640625 12.9375 67.421875 
Q 19.578125 74.21875 30.609375 74.21875 
Q 43.265625 74.21875 49.921875 64.515625 
Q 56.59375 54.828125 56.59375 36.375 
Q 56.59375 19.140625 48.40625 8.859375 
Q 40.234375 -1.421875 26.421875 -1.421875 
Q 22.703125 -1.421875 18.890625 -0.6875 
Q 15.09375 0.046875 10.984375 1.515625 
z
M 30.609375 32.421875 
Q 37.25 32.421875 41.125 36.953125 
Q 45.015625 41.5 45.015625 49.421875 
Q 45.015625 57.28125 41.125 61.84375 
Q 37.25 66.40625 30.609375 66.40625 
Q 23.96875 66.40625 20.09375 61.84375 
Q 16.21875 57.28125 16.21875 49.421875 
Q 16.21875 41.5 20.09375 36.953125 
Q 23.96875 32.421875 30.609375 32.421875 
z
" id="DejaVuSans-39"/>
    </defs>
    <g transform="translate(369.479935 37.551928)scale(0.17 -0.17)">
     <use xlink:href="#DejaVuSans-62"/>
     <use x="63.476562" xlink:href="#DejaVuSans-65"/>
     <use x="125" xlink:href="#DejaVuSans-73"/>
     <use x="177.099609" xlink:href="#DejaVuSans-74"/>
     <use x="216.308594" xlink:href="#DejaVuSans-20"/>
     <use x="248.095703" xlink:href="#DejaVuSans-32"/>
     <use x="311.71875" xlink:href="#DejaVuSans-30"/>
     <use x="375.341797" xlink:href="#DejaVuSans-30"/>
     <use x="438.964844" xlink:href="#DejaVuSans-39"/>
    </g>
   </g>
   <g id="text_21">
    <!-- bbob f18, 20-D -->
    <g transform="translate(59.55864 35.290806)scale(0.102 -0.102)">
     <use xlink:href="#DejaVuSans-62"/>
     <use x="63.476562" xlink:href="#DejaVuSans-62"/>
     <use x="126.953125" xlink:href="#DejaVuSans-6f"/>
     <use x="188.134766" xlink:href="#DejaVuSans-62"/>
     <use x="251.611328" xlink:href="#DejaVuSans-20"/>
     <use x="283.398438" xlink:href="#DejaVuSans-66"/>
     <use x="318.603516" xlink:href="#DejaVuSans-31"/>
     <use x="382.226562" xlink:href="#DejaVuSans-38"/>
     <use x="445.849609" xlink:href="#DejaVuSans-2c"/>
     <use x="477.636719" xlink:href="#DejaVuSans-20"/>
     <use x="509.423828" xlink:href="#DejaVuSans-32"/>
     <use x="573.046875" xlink:href="#DejaVuSans-30"/>
     <use x="636.669922" xlink:href="#DejaVuSans-2d"/>
     <use x="672.753906" xlink:href="#DejaVuSans-44"/>
    </g>
    <!-- 51 targets: 100..1e-08 -->
    <defs>
     <path d="M 10.796875 72.90625 
L 49.515625 72.90625 
L 49.515625 64.59375 
L 19.828125 64.59375 
L 19.828125 46.734375 
Q 21.96875 47.46875 24.109375 47.828125 
Q 26.265625 48.1875 28.421875 48.1875 
Q 40.625 48.1875 47.75 41.5 
Q 54.890625 34.8125 54.890625 23.390625 
Q 54.890625 11.625 47.5625 5.09375 
Q 40.234375 -1.421875 26.90625 -1.421875 
Q 22.3125 -1.421875 17.546875 -0.640625 
Q 12.796875 0.140625 7.71875 1.703125 
L 7.71875 11.625 
Q 12.109375 9.234375 16.796875 8.0625 
Q 21.484375 6.890625 26.703125 6.890625 
Q 35.15625 6.890625 40.078125 11.328125 
Q 45.015625 15.765625 45.015625 23.390625 
Q 45.015625 31 40.078125 35.4375 
Q 35.15625 39.890625 26.703125 39.890625 
Q 22.75 39.890625 18.8125 39.015625 
Q 14.890625 38.140625 10.796875 36.28125 
z
" id="DejaVuSans-35"/>
     <path d="M 11.71875 12.40625 
L 22.015625 12.40625 
L 22.015625 0 
L 11.71875 0 
z
M 11.71875 51.703125 
L 22.015625 51.703125 
L 22.015625 39.3125 
L 11.71875 39.3125 
z
" id="DejaVuSans-3a"/>
    </defs>
    <g transform="translate(59.55864 46.712575)scale(0.102 -0.102)">
     <use xlink:href="#DejaVuSans-35"/>
     <use x="63.623047" xlink:href="#DejaVuSans-31"/>
     <use x="127.246094" xlink:href="#DejaVuSans-20"/>
     <use x="159.033203" xlink:href="#DejaVuSans-74"/>
     <use x="198.242188" xlink:href="#DejaVuSans-61"/>
     <use x="259.521484" xlink:href="#DejaVuSans-72"/>
     <use x="300.619141" xlink:href="#DejaVuSans-67"/>
     <use x="364.095703" xlink:href="#DejaVuSans-65"/>
     <use x="425.619141" xlink:href="#DejaVuSans-74"/>
     <use x="464.828125" xlink:href="#DejaVuSans-73"/>
     <use x="516.927734" xlink:href="#DejaVuSans-3a"/>
     <use x="550.619141" xlink:href="#DejaVuSans-20"/>
     <use x="582.40625" xlink:href="#DejaVuSans-31"/>
     <use x="646.029297" xlink:href="#DejaVuSans-30"/>
     <use x="709.652344" xlink:href="#DejaVuSans-30"/>
     <use x="773.275391" xlink:href="#DejaVuSans-2e"/>
     <use x="805.0625" xlink:href="#DejaVuSans-2e"/>
     <use x="836.849609" xlink:href="#DejaVuSans-31"/>
     <use x="900.472656" xlink:href="#DejaVuSans-65"/>
     <use x="961.996094" xlink:href="#DejaVuSans-2d"/>
     <use x="998.080078" xlink:href="#DejaVuSans-30"/>
     <use x="1061.703125" xlink:href="#DejaVuSans-38"/>
    </g>
    <!-- 15 instances -->
    <g transform="translate(59.55864 58.134344)scale(0.102 -0.102)">
     <use xlink:href="#DejaVuSans-31"/>
     <use x="63.623047" xlink:href="#DejaVuSans-35"/>
     <use x="127.246094" xlink:href="#DejaVuSans-20"/>
     <use x="159.033203" xlink:href="#DejaVuSans-69"/>
     <use x="186.816406" xlink:href="#DejaVuSans-6e"/>
     <use x="250.195312" xlink:href="#DejaVuSans-73"/>
     <use x="302.294922" xlink:href="#DejaVuSans-74"/>
     <use x="341.503906" xlink:href="#DejaVuSans-61"/>
     <use x="402.783203" xlink:href="#DejaVuSans-6e"/>
     <use x="466.162109" xlink:href="#DejaVuSans-63"/>
     <use x="521.142578" xlink:href="#DejaVuSans-65"/>
     <use x="582.666016" xlink:href="#DejaVuSans-73"/>
    </g>
   </g>
   <g id="text_22">
    <!-- v-coco-version -->
    <g style="fill:#808080;" transform="translate(191.556688 290.099912)scale(0.1 -0.1)">
     <use xlink:href="#DejaVuSans-76"/>
     <use x="59.148438" xlink:href="#DejaVuSans-2d"/>
     <use x="95.232422" xlink:href="#DejaVuSans-63"/>
     <use x="150.212891" xlink:href="#DejaVuSans-6f"/>
     <use x="211.394531" xlink:href="#DejaVuSans-63"/>
     <use x="266.375" xlink:href="#DejaVuSans-6f"/>
     <use x="327.572266" xlink:href="#DejaVuSans-2d"/>
     <use x="363.625" xlink:href="#DejaVuSans-76"/>
     <use x="422.804688" xlink:href="#DejaVuSans-65"/>
     <use x="484.328125" xlink:href="#DejaVuSans-72"/>
     <use x="525.441406" xlink:href="#DejaVuSans-73"/>
     <use x="577.541016" xlink:href="#DejaVuSans-69"/>
     <use x="605.324219" xlink:href="#DejaVuSans-6f"/>
     <use x="666.505859" xlink:href="#DejaVuSans-6e"/>
    </g>
   </g>
   <g id="text_23">
    <!-- 18 Schaffer F7, condition 1000 -->
    <defs>
     <path d="M 54.890625 33.015625 
L 54.890625 0 
L 45.90625 0 
L 45.90625 32.71875 
Q 45.90625 40.484375 42.875 44.328125 
Q 39.84375 48.1875 33.796875 48.1875 
Q 26.515625 48.1875 22.3125 43.546875 
Q 18.109375 38.921875 18.109375 30.90625 
L 18.109375 0 
L 9.078125 0 
L 9.078125 75.984375 
L 18.109375 75.984375 
L 18.109375 46.1875 
Q 21.34375 51.125 25.703125 53.5625 
Q 30.078125 56 35.796875 56 
Q 45.21875 56 50.046875 50.171875 
Q 54.890625 44.34375 54.890625 33.015625 
z
" id="DejaVuSans-68"/>
     <path d="M 8.203125 72.90625 
L 55.078125 72.90625 
L 55.078125 68.703125 
L 28.609375 0 
L 18.3125 0 
L 43.21875 64.59375 
L 8.203125 64.59375 
z
" id="DejaVuSans-37"/>
    </defs>
    <g transform="translate(74.019188 18.84)scale(0.2 -0.2)">
     <use xlink:href="#DejaVuSans-31"/>
     <use x="63.623047" xlink:href="#DejaVuSans-38"/>
     <use x="127.246094" xlink:href="#DejaVuSans-20"/>
     <use x="159.033203" xlink:href="#DejaVuSans-53"/>
     <use x="222.509766" xlink:href="#DejaVuSans-63"/>
     <use x="277.490234" xlink:href="#DejaVuSans-68"/>
     <use x="340.869141" xlink:href="#DejaVuSans-61"/>
     <use x="402.148438" xlink:href="#DejaVuSans-66"/>
     <use x="437.353516" xlink:href="#DejaVuSans-66"/>
     <use x="472.558594" xlink:href="#DejaVuSans-65"/>
     <use x="534.082031" xlink:href="#DejaVuSans-72"/>
     <use x="575.195312" xlink:href="#DejaVuSans-20"/>
     <use x="606.982422" xlink:href="#DejaVuSans-46"/>
     <use x="664.501953" xlink:href="#DejaVuSans-37"/>
     <use x="728.125" xlink:href="#DejaVuSans-2c"/>
     <use x="759.912109" xlink:href="#DejaVuSans-20"/>
     <use x="791.699219" xlink:href="#DejaVuSans-63"/>
     <use x="846.679688" xlink:href="#DejaVuSans-6f"/>
     <use x="907.861328" xlink:href="#DejaVuSans-6e"/>
     <use x="971.240234" xlink:href="#DejaVuSans-64"/>
     <use x="1034.716797" xlink:href="#DejaVuSans-69"/>
     <use x="1062.5" xlink:href="#DejaVuSans-74"/>
     <use x="1101.708984" xlink:href="#DejaVuSans-69"/>
     <use x="1129.492188" xlink:href="#DejaVuSans-6f"/>
     <use x="1190.673828" xlink:href="#DejaVuSans-6e"/>
     <use x="1254.052734" xlink:href="#DejaVuSans-20"/>
     <use x="1285.839844" xlink:href="#DejaVuSans-31"/>
     <use x="1349.462891" xlink:href="#DejaVuSans-30"/>
     <use x="1413.085938" xlink:href="#DejaVuSans-30"/>
     <use x="1476.708984" xlink:href="#DejaVuSans-30"/>
    </g>
   </g>
  </g>
 </g>
 <defs>
  <clipPath id="pe3fcef2764">
   <rect height="270.04" width="343.864" x="56.12" y="24.84"/>
  </clipPath>
 </defs>
</svg>
