<?xml version="1.0" encoding="utf-8" standalone="no"?>
<!DOCTYPE svg PUBLIC "-//W3C//DTD SVG 1.1//EN"
  "http://www.w3.org/Graphics/SVG/1.1/DTD/svg11.dtd">
<!-- Created with matplotlib (http://matplotlib.org/) -->
<svg height="345.6pt" version="1.1" viewBox="0 0 460.8 345.6" width="460.8pt" xmlns="http://www.w3.org/2000/svg" xmlns:xlink="http://www.w3.org/1999/xlink">
 <defs>
  <style type="text/css">
*{stroke-linecap:butt;stroke-linejoin:round;}
  </style>
 </defs>
 <g id="figure_1">
  <g id="patch_1">
   <path d="M 0 345.6 
L 460.8 345.6 
L 460.8 0 
L 0 0 
z
" style="fill:#ffffff;"/>
  </g>
  <g id="axes_1">
   <g id="patch_2">
    <path d="M 56.12 294.88 
L 399.984 294.88 
L 399.984 24.84 
L 56.12 24.84 
z
" style="fill:#ffffff;"/>
   </g>
   <g id="line2d_1">
    <path d="M 44.194496 294.88 
L 44.194496 268.667614 
L 56.12 268.667614 
L 56.12 263.425137 
L 63.095973 263.425137 
L 63.095973 258.18266 
L 71.884659 258.18266 
L 71.884659 252.940182 
L 79.971009 252.940182 
L 79.971009 247.697705 
L 102.711641 247.697705 
L 102.711641 242.455228 
L 111.841029 242.455228 
L 111.841029 237.212751 
L 117.289287 237.212751 
L 117.289287 231.970274 
L 124.26526 231.970274 
L 124.26526 226.727797 
L 125.52857 226.727797 
L 125.52857 221.485319 
L 129.091459 221.485319 
L 129.091459 216.242842 
L 132.955351 216.242842 
L 132.955351 211.000365 
L 134.286778 211.000365 
L 134.286778 200.515411 
L 135.091308 200.515411 
L 135.091308 195.272933 
L 137.530034 195.272933 
L 137.530034 190.030456 
L 140.89274 190.030456 
L 140.89274 184.787979 
L 141.140296 184.787979 
L 141.140296 174.303025 
L 141.744038 174.303025 
L 141.744038 158.575593 
L 141.921105 158.575593 
L 141.921105 153.333116 
L 142.269864 153.333116 
L 142.269864 142.848162 
L 142.668011 142.848162 
L 142.668011 137.605684 
L 142.724144 137.605684 
L 142.724144 132.363207 
L 143.437686 132.363207 
L 143.437686 127.12073 
L 143.491367 127.12073 
L 143.491367 121.878253 
L 143.544882 121.878253 
L 143.544882 116.635776 
L 143.59823 116.635776 
L 143.59823 111.393298 
L 143.651414 111.393298 
L 143.651414 100.908344 
L 143.704433 100.908344 
L 143.704433 90.42339 
L 143.75729 90.42339 
L 143.75729 79.938435 
L 143.809985 79.938435 
L 143.809985 74.695958 
L 143.862519 74.695958 
L 143.862519 69.453481 
L 143.914893 69.453481 
L 143.914893 58.968526 
L 143.967108 58.968526 
L 143.967108 53.726049 
L 144.019165 53.726049 
L 144.019165 48.483572 
L 144.071065 48.483572 
L 144.071065 32.756141 
L 144.225833 32.756141 
L 144.225833 27.513663 
L 333.429677 27.513663 
" style="fill:none;stroke:#f5deb3;stroke-linecap:square;stroke-width:6;"/>
   </g>
   <g id="line2d_2">
    <defs>
     <path d="M -0 7.778175 
L 7.778175 0 
L 0 -7.778175 
L -7.778175 -0 
z
" id="mc9e06a4bf0" style="stroke:#f5deb3;stroke-linejoin:miter;stroke-width:1.5;"/>
    </defs>
    <g>
     <use style="fill:#f5deb3;stroke:#f5deb3;stroke-linejoin:miter;stroke-width:1.5;" x="102.711641" xlink:href="#mc9e06a4bf0" y="247.697705"/>
     <use style="fill:#f5deb3;stroke:#f5deb3;stroke-linejoin:miter;stroke-width:1.5;" x="141.744038" xlink:href="#mc9e06a4bf0" y="174.303025"/>
     <use style="fill:#f5deb3;stroke:#f5deb3;stroke-linejoin:miter;stroke-width:1.5;" x="144.225833" xlink:href="#mc9e06a4bf0" y="32.756141"/>
     <use style="fill:#f5deb3;stroke:#f5deb3;stroke-linejoin:miter;stroke-width:1.5;" x="144.225833" xlink:href="#mc9e06a4bf0" y="27.513663"/>
     <use style="fill:#f5deb3;stroke:#f5deb3;stroke-linejoin:miter;stroke-width:1.5;" x="144.225833" xlink:href="#mc9e06a4bf0" y="27.513663"/>
     <use style="fill:#f5deb3;stroke:#f5deb3;stroke-linejoin:miter;stroke-width:1.5;" x="333.429677" xlink:href="#mc9e06a4bf0" y="27.513663"/>
    </g>
   </g>
   <g id="line2d_3">
    <path style="fill:none;stroke:#f5deb3;stroke-linecap:square;stroke-width:6;"/>
    <g/>
   </g>
   <g id="line2d_4">
    <path d="M 333.429677 27.513663 
L 363.933742 32.86099 
" style="fill:none;stroke:#f5deb3;stroke-linecap:square;stroke-width:6;"/>
    <g>
     <use style="fill:#f5deb3;stroke:#f5deb3;stroke-linejoin:miter;stroke-width:1.5;" x="333.429677" xlink:href="#mc9e06a4bf0" y="27.513663"/>
     <use style="fill:#f5deb3;stroke:#f5deb3;stroke-linejoin:miter;stroke-width:1.5;" x="363.933742" xlink:href="#mc9e06a4bf0" y="32.86099"/>
    </g>
   </g>
   <g id="matplotlib.axis_1">
    <g id="xtick_1">
     <g id="line2d_5">
      <path clip-path="url(#pfd01b17c04)" d="M 56.12 294.88 
L 56.12 24.84 
" style="fill:none;stroke:#b0b0b0;stroke-linecap:square;stroke-width:0.8;"/>
     </g>
     <g id="line2d_6">
      <defs>
       <path d="M 0 0 
L 0 3.5 
" id="mfcfba297b9" style="stroke:#000000;stroke-width:0.8;"/>
      </defs>
      <g>
       <use style="stroke:#000000;stroke-width:0.8;" x="56.12" xlink:href="#mfcfba297b9" y="294.88"/>
      </g>
     </g>
     <g id="text_1">
      <!-- 0 -->
      <defs>
       <path d="M 31.78125 66.40625 
Q 24.171875 66.40625 20.328125 58.90625 
Q 16.5 51.421875 16.5 36.375 
Q 16.5 21.390625 20.328125 13.890625 
Q 24.171875 6.390625 31.78125 6.390625 
Q 39.453125 6.390625 43.28125 13.890625 
Q 47.125 21.390625 47.125 36.375 
Q 47.125 51.421875 43.28125 58.90625 
Q 39.453125 66.40625 31.78125 66.40625 
z
M 31.78125 74.21875 
Q 44.046875 74.21875 50.515625 64.515625 
Q 56.984375 54.828125 56.984375 36.375 
Q 56.984375 17.96875 50.515625 8.265625 
Q 44.046875 -1.421875 31.78125 -1.421875 
Q 19.53125 -1.421875 13.0625 8.265625 
Q 6.59375 17.96875 6.59375 36.375 
Q 6.59375 54.828125 13.0625 64.515625 
Q 19.53125 74.21875 31.78125 74.21875 
z
" id="DejaVuSans-30"/>
      </defs>
      <g transform="translate(49.7575 317.076875)scale(0.2 -0.2)">
       <use xlink:href="#DejaVuSans-30"/>
      </g>
     </g>
    </g>
    <g id="xtick_2">
     <g id="line2d_7">
      <path clip-path="url(#pfd01b17c04)" d="M 135.351336 294.88 
L 135.351336 24.84 
" style="fill:none;stroke:#b0b0b0;stroke-linecap:square;stroke-width:0.8;"/>
     </g>
     <g id="line2d_8">
      <g>
       <use style="stroke:#000000;stroke-width:0.8;" x="135.351336" xlink:href="#mfcfba297b9" y="294.88"/>
      </g>
     </g>
     <g id="text_2">
      <!-- 2 -->
      <defs>
       <path d="M 19.1875 8.296875 
L 53.609375 8.296875 
L 53.609375 0 
L 7.328125 0 
L 7.328125 8.296875 
Q 12.9375 14.109375 22.625 23.890625 
Q 32.328125 33.6875 34.8125 36.53125 
Q 39.546875 41.84375 41.421875 45.53125 
Q 43.3125 49.21875 43.3125 52.78125 
Q 43.3125 58.59375 39.234375 62.25 
Q 35.15625 65.921875 28.609375 65.921875 
Q 23.96875 65.921875 18.8125 64.3125 
Q 13.671875 62.703125 7.8125 59.421875 
L 7.8125 69.390625 
Q 13.765625 71.78125 18.9375 73 
Q 24.125 74.21875 28.421875 74.21875 
Q 39.75 74.21875 46.484375 68.546875 
Q 53.21875 62.890625 53.21875 53.421875 
Q 53.21875 48.921875 51.53125 44.890625 
Q 49.859375 40.875 45.40625 35.40625 
Q 44.1875 33.984375 37.640625 27.21875 
Q 31.109375 20.453125 19.1875 8.296875 
z
" id="DejaVuSans-32"/>
      </defs>
      <g transform="translate(128.988836 317.076875)scale(0.2 -0.2)">
       <use xlink:href="#DejaVuSans-32"/>
      </g>
     </g>
    </g>
    <g id="xtick_3">
     <g id="line2d_9">
      <path clip-path="url(#pfd01b17c04)" d="M 214.582673 294.88 
L 214.582673 24.84 
" style="fill:none;stroke:#b0b0b0;stroke-linecap:square;stroke-width:0.8;"/>
     </g>
     <g id="line2d_10">
      <g>
       <use style="stroke:#000000;stroke-width:0.8;" x="214.582673" xlink:href="#mfcfba297b9" y="294.88"/>
      </g>
     </g>
     <g id="text_3">
      <!-- 4 -->
      <defs>
       <path d="M 37.796875 64.3125 
L 12.890625 25.390625 
L 37.796875 25.390625 
z
M 35.203125 72.90625 
L 47.609375 72.90625 
L 47.609375 25.390625 
L 58.015625 25.390625 
L 58.015625 17.1875 
L 47.609375 17.1875 
L 47.609375 0 
L 37.796875 0 
L 37.796875 17.1875 
L 4.890625 17.1875 
L 4.890625 26.703125 
z
" id="DejaVuSans-34"/>
      </defs>
      <g transform="translate(208.220173 317.076875)scale(0.2 -0.2)">
       <use xlink:href="#DejaVuSans-34"/>
      </g>
     </g>
    </g>
    <g id="xtick_4">
     <g id="line2d_11">
      <path clip-path="url(#pfd01b17c04)" d="M 293.814009 294.88 
L 293.814009 24.84 
" style="fill:none;stroke:#b0b0b0;stroke-linecap:square;stroke-width:0.8;"/>
     </g>
     <g id="line2d_12">
      <g>
       <use style="stroke:#000000;stroke-width:0.8;" x="293.814009" xlink:href="#mfcfba297b9" y="294.88"/>
      </g>
     </g>
     <g id="text_4">
      <!-- 6 -->
      <defs>
       <path d="M 33.015625 40.375 
Q 26.375 40.375 22.484375 35.828125 
Q 18.609375 31.296875 18.609375 23.390625 
Q 18.609375 15.53125 22.484375 10.953125 
Q 26.375 6.390625 33.015625 6.390625 
Q 39.65625 6.390625 43.53125 10.953125 
Q 47.40625 15.53125 47.40625 23.390625 
Q 47.40625 31.296875 43.53125 35.828125 
Q 39.65625 40.375 33.015625 40.375 
z
M 52.59375 71.296875 
L 52.59375 62.3125 
Q 48.875 64.0625 45.09375 64.984375 
Q 41.3125 65.921875 37.59375 65.921875 
Q 27.828125 65.921875 22.671875 59.328125 
Q 17.53125 52.734375 16.796875 39.40625 
Q 19.671875 43.65625 24.015625 45.921875 
Q 28.375 48.1875 33.59375 48.1875 
Q 44.578125 48.1875 50.953125 41.515625 
Q 57.328125 34.859375 57.328125 23.390625 
Q 57.328125 12.15625 50.6875 5.359375 
Q 44.046875 -1.421875 33.015625 -1.421875 
Q 20.359375 -1.421875 13.671875 8.265625 
Q 6.984375 17.96875 6.984375 36.375 
Q 6.984375 53.65625 15.1875 63.9375 
Q 23.390625 74.21875 37.203125 74.21875 
Q 40.921875 74.21875 44.703125 73.484375 
Q 48.484375 72.75 52.59375 71.296875 
z
" id="DejaVuSans-36"/>
      </defs>
      <g transform="translate(287.451509 317.076875)scale(0.2 -0.2)">
       <use xlink:href="#DejaVuSans-36"/>
      </g>
     </g>
    </g>
    <g id="xtick_5">
     <g id="line2d_13">
      <path clip-path="url(#pfd01b17c04)" d="M 373.045346 294.88 
L 373.045346 24.84 
" style="fill:none;stroke:#b0b0b0;stroke-linecap:square;stroke-width:0.8;"/>
     </g>
     <g id="line2d_14">
      <g>
       <use style="stroke:#000000;stroke-width:0.8;" x="373.045346" xlink:href="#mfcfba297b9" y="294.88"/>
      </g>
     </g>
     <g id="text_5">
      <!-- 8 -->
      <defs>
       <path d="M 31.78125 34.625 
Q 24.75 34.625 20.71875 30.859375 
Q 16.703125 27.09375 16.703125 20.515625 
Q 16.703125 13.921875 20.71875 10.15625 
Q 24.75 6.390625 31.78125 6.390625 
Q 38.8125 6.390625 42.859375 10.171875 
Q 46.921875 13.96875 46.921875 20.515625 
Q 46.921875 27.09375 42.890625 30.859375 
Q 38.875 34.625 31.78125 34.625 
z
M 21.921875 38.8125 
Q 15.578125 40.375 12.03125 44.71875 
Q 8.5 49.078125 8.5 55.328125 
Q 8.5 64.0625 14.71875 69.140625 
Q 20.953125 74.21875 31.78125 74.21875 
Q 42.671875 74.21875 48.875 69.140625 
Q 55.078125 64.0625 55.078125 55.328125 
Q 55.078125 49.078125 51.53125 44.71875 
Q 48 40.375 41.703125 38.8125 
Q 48.828125 37.15625 52.796875 32.3125 
Q 56.78125 27.484375 56.78125 20.515625 
Q 56.78125 9.90625 50.3125 4.234375 
Q 43.84375 -1.421875 31.78125 -1.421875 
Q 19.734375 -1.421875 13.25 4.234375 
Q 6.78125 9.90625 6.78125 20.515625 
Q 6.78125 27.484375 10.78125 32.3125 
Q 14.796875 37.15625 21.921875 38.8125 
z
M 18.3125 54.390625 
Q 18.3125 48.734375 21.84375 45.5625 
Q 25.390625 42.390625 31.78125 42.390625 
Q 38.140625 42.390625 41.71875 45.5625 
Q 45.3125 48.734375 45.3125 54.390625 
Q 45.3125 60.0625 41.71875 63.234375 
Q 38.140625 66.40625 31.78125 66.40625 
Q 25.390625 66.40625 21.84375 63.234375 
Q 18.3125 60.0625 18.3125 54.390625 
z
" id="DejaVuSans-38"/>
      </defs>
      <g transform="translate(366.682846 317.076875)scale(0.2 -0.2)">
       <use xlink:href="#DejaVuSans-38"/>
      </g>
     </g>
    </g>
    <g id="text_6">
     <!-- log10(# f-evals / dimension) -->
     <defs>
      <path d="M 9.421875 75.984375 
L 18.40625 75.984375 
L 18.40625 0 
L 9.421875 0 
z
" id="DejaVuSans-6c"/>
      <path d="M 30.609375 48.390625 
Q 23.390625 48.390625 19.1875 42.75 
Q 14.984375 37.109375 14.984375 27.296875 
Q 14.984375 17.484375 19.15625 11.84375 
Q 23.34375 6.203125 30.609375 6.203125 
Q 37.796875 6.203125 41.984375 11.859375 
Q 46.1875 17.53125 46.1875 27.296875 
Q 46.1875 37.015625 41.984375 42.703125 
Q 37.796875 48.390625 30.609375 48.390625 
z
M 30.609375 56 
Q 42.328125 56 49.015625 48.375 
Q 55.71875 40.765625 55.71875 27.296875 
Q 55.71875 13.875 49.015625 6.21875 
Q 42.328125 -1.421875 30.609375 -1.421875 
Q 18.84375 -1.421875 12.171875 6.21875 
Q 5.515625 13.875 5.515625 27.296875 
Q 5.515625 40.765625 12.171875 48.375 
Q 18.84375 56 30.609375 56 
z
" id="DejaVuSans-6f"/>
      <path d="M 45.40625 27.984375 
Q 45.40625 37.75 41.375 43.109375 
Q 37.359375 48.484375 30.078125 48.484375 
Q 22.859375 48.484375 18.828125 43.109375 
Q 14.796875 37.75 14.796875 27.984375 
Q 14.796875 18.265625 18.828125 12.890625 
Q 22.859375 7.515625 30.078125 7.515625 
Q 37.359375 7.515625 41.375 12.890625 
Q 45.40625 18.265625 45.40625 27.984375 
z
M 54.390625 6.78125 
Q 54.390625 -7.171875 48.1875 -13.984375 
Q 42 -20.796875 29.203125 -20.796875 
Q 24.46875 -20.796875 20.265625 -20.09375 
Q 16.0625 -19.390625 12.109375 -17.921875 
L 12.109375 -9.1875 
Q 16.0625 -11.328125 19.921875 -12.34375 
Q 23.78125 -13.375 27.78125 -13.375 
Q 36.625 -13.375 41.015625 -8.765625 
Q 45.40625 -4.15625 45.40625 5.171875 
L 45.40625 9.625 
Q 42.625 4.78125 38.28125 2.390625 
Q 33.9375 0 27.875 0 
Q 17.828125 0 11.671875 7.65625 
Q 5.515625 15.328125 5.515625 27.984375 
Q 5.515625 40.671875 11.671875 48.328125 
Q 17.828125 56 27.875 56 
Q 33.9375 56 38.28125 53.609375 
Q 42.625 51.21875 45.40625 46.390625 
L 45.40625 54.6875 
L 54.390625 54.6875 
z
" id="DejaVuSans-67"/>
      <path d="M 12.40625 8.296875 
L 28.515625 8.296875 
L 28.515625 63.921875 
L 10.984375 60.40625 
L 10.984375 69.390625 
L 28.421875 72.90625 
L 38.28125 72.90625 
L 38.28125 8.296875 
L 54.390625 8.296875 
L 54.390625 0 
L 12.40625 0 
z
" id="DejaVuSans-31"/>
      <path d="M 31 75.875 
Q 24.46875 64.65625 21.28125 53.65625 
Q 18.109375 42.671875 18.109375 31.390625 
Q 18.109375 20.125 21.3125 9.0625 
Q 24.515625 -2 31 -13.1875 
L 23.1875 -13.1875 
Q 15.875 -1.703125 12.234375 9.375 
Q 8.59375 20.453125 8.59375 31.390625 
Q 8.59375 42.28125 12.203125 53.3125 
Q 15.828125 64.359375 23.1875 75.875 
z
" id="DejaVuSans-28"/>
      <path d="M 51.125 44 
L 36.921875 44 
L 32.8125 27.6875 
L 47.125 27.6875 
z
M 43.796875 71.78125 
L 38.71875 51.515625 
L 52.984375 51.515625 
L 58.109375 71.78125 
L 65.921875 71.78125 
L 60.890625 51.515625 
L 76.125 51.515625 
L 76.125 44 
L 58.984375 44 
L 54.984375 27.6875 
L 70.515625 27.6875 
L 70.515625 20.21875 
L 53.078125 20.21875 
L 48 0 
L 40.1875 0 
L 45.21875 20.21875 
L 30.90625 20.21875 
L 25.875 0 
L 18.015625 0 
L 23.09375 20.21875 
L 7.71875 20.21875 
L 7.71875 27.6875 
L 24.90625 27.6875 
L 29 44 
L 13.28125 44 
L 13.28125 51.515625 
L 30.90625 51.515625 
L 35.890625 71.78125 
z
" id="DejaVuSans-23"/>
      <path id="DejaVuSans-20"/>
      <path d="M 37.109375 75.984375 
L 37.109375 68.5 
L 28.515625 68.5 
Q 23.6875 68.5 21.796875 66.546875 
Q 19.921875 64.59375 19.921875 59.515625 
L 19.921875 54.6875 
L 34.71875 54.6875 
L 34.71875 47.703125 
L 19.921875 47.703125 
L 19.921875 0 
L 10.890625 0 
L 10.890625 47.703125 
L 2.296875 47.703125 
L 2.296875 54.6875 
L 10.890625 54.6875 
L 10.890625 58.5 
Q 10.890625 67.625 15.140625 71.796875 
Q 19.390625 75.984375 28.609375 75.984375 
z
" id="DejaVuSans-66"/>
      <path d="M 4.890625 31.390625 
L 31.203125 31.390625 
L 31.203125 23.390625 
L 4.890625 23.390625 
z
" id="DejaVuSans-2d"/>
      <path d="M 56.203125 29.59375 
L 56.203125 25.203125 
L 14.890625 25.203125 
Q 15.484375 15.921875 20.484375 11.0625 
Q 25.484375 6.203125 34.421875 6.203125 
Q 39.59375 6.203125 44.453125 7.46875 
Q 49.3125 8.734375 54.109375 11.28125 
L 54.109375 2.78125 
Q 49.265625 0.734375 44.1875 -0.34375 
Q 39.109375 -1.421875 33.890625 -1.421875 
Q 20.796875 -1.421875 13.15625 6.1875 
Q 5.515625 13.8125 5.515625 26.8125 
Q 5.515625 40.234375 12.765625 48.109375 
Q 20.015625 56 32.328125 56 
Q 43.359375 56 49.78125 48.890625 
Q 56.203125 41.796875 56.203125 29.59375 
z
M 47.21875 32.234375 
Q 47.125 39.59375 43.09375 43.984375 
Q 39.0625 48.390625 32.421875 48.390625 
Q 24.90625 48.390625 20.390625 44.140625 
Q 15.875 39.890625 15.1875 32.171875 
z
" id="DejaVuSans-65"/>
      <path d="M 2.984375 54.6875 
L 12.5 54.6875 
L 29.59375 8.796875 
L 46.6875 54.6875 
L 56.203125 54.6875 
L 35.6875 0 
L 23.484375 0 
z
" id="DejaVuSans-76"/>
      <path d="M 34.28125 27.484375 
Q 23.390625 27.484375 19.1875 25 
Q 14.984375 22.515625 14.984375 16.5 
Q 14.984375 11.71875 18.140625 8.90625 
Q 21.296875 6.109375 26.703125 6.109375 
Q 34.1875 6.109375 38.703125 11.40625 
Q 43.21875 16.703125 43.21875 25.484375 
L 43.21875 27.484375 
z
M 52.203125 31.203125 
L 52.203125 0 
L 43.21875 0 
L 43.21875 8.296875 
Q 40.140625 3.328125 35.546875 0.953125 
Q 30.953125 -1.421875 24.3125 -1.421875 
Q 15.921875 -1.421875 10.953125 3.296875 
Q 6 8.015625 6 15.921875 
Q 6 25.140625 12.171875 29.828125 
Q 18.359375 34.515625 30.609375 34.515625 
L 43.21875 34.515625 
L 43.21875 35.40625 
Q 43.21875 41.609375 39.140625 45 
Q 35.0625 48.390625 27.6875 48.390625 
Q 23 48.390625 18.546875 47.265625 
Q 14.109375 46.140625 10.015625 43.890625 
L 10.015625 52.203125 
Q 14.9375 54.109375 19.578125 55.046875 
Q 24.21875 56 28.609375 56 
Q 40.484375 56 46.34375 49.84375 
Q 52.203125 43.703125 52.203125 31.203125 
z
" id="DejaVuSans-61"/>
      <path d="M 44.28125 53.078125 
L 44.28125 44.578125 
Q 40.484375 46.53125 36.375 47.5 
Q 32.28125 48.484375 27.875 48.484375 
Q 21.1875 48.484375 17.84375 46.4375 
Q 14.5 44.390625 14.5 40.28125 
Q 14.5 37.15625 16.890625 35.375 
Q 19.28125 33.59375 26.515625 31.984375 
L 29.59375 31.296875 
Q 39.15625 29.25 43.1875 25.515625 
Q 47.21875 21.78125 47.21875 15.09375 
Q 47.21875 7.46875 41.1875 3.015625 
Q 35.15625 -1.421875 24.609375 -1.421875 
Q 20.21875 -1.421875 15.453125 -0.5625 
Q 10.6875 0.296875 5.421875 2 
L 5.421875 11.28125 
Q 10.40625 8.6875 15.234375 7.390625 
Q 20.0625 6.109375 24.8125 6.109375 
Q 31.15625 6.109375 34.5625 8.28125 
Q 37.984375 10.453125 37.984375 14.40625 
Q 37.984375 18.0625 35.515625 20.015625 
Q 33.0625 21.96875 24.703125 23.78125 
L 21.578125 24.515625 
Q 13.234375 26.265625 9.515625 29.90625 
Q 5.8125 33.546875 5.8125 39.890625 
Q 5.8125 47.609375 11.28125 51.796875 
Q 16.75 56 26.8125 56 
Q 31.78125 56 36.171875 55.265625 
Q 40.578125 54.546875 44.28125 53.078125 
z
" id="DejaVuSans-73"/>
      <path d="M 25.390625 72.90625 
L 33.6875 72.90625 
L 8.296875 -9.28125 
L 0 -9.28125 
z
" id="DejaVuSans-2f"/>
      <path d="M 45.40625 46.390625 
L 45.40625 75.984375 
L 54.390625 75.984375 
L 54.390625 0 
L 45.40625 0 
L 45.40625 8.203125 
Q 42.578125 3.328125 38.25 0.953125 
Q 33.9375 -1.421875 27.875 -1.421875 
Q 17.96875 -1.421875 11.734375 6.484375 
Q 5.515625 14.40625 5.515625 27.296875 
Q 5.515625 40.1875 11.734375 48.09375 
Q 17.96875 56 27.875 56 
Q 33.9375 56 38.25 53.625 
Q 42.578125 51.265625 45.40625 46.390625 
z
M 14.796875 27.296875 
Q 14.796875 17.390625 18.875 11.75 
Q 22.953125 6.109375 30.078125 6.109375 
Q 37.203125 6.109375 41.296875 11.75 
Q 45.40625 17.390625 45.40625 27.296875 
Q 45.40625 37.203125 41.296875 42.84375 
Q 37.203125 48.484375 30.078125 48.484375 
Q 22.953125 48.484375 18.875 42.84375 
Q 14.796875 37.203125 14.796875 27.296875 
z
" id="DejaVuSans-64"/>
      <path d="M 9.421875 54.6875 
L 18.40625 54.6875 
L 18.40625 0 
L 9.421875 0 
z
M 9.421875 75.984375 
L 18.40625 75.984375 
L 18.40625 64.59375 
L 9.421875 64.59375 
z
" id="DejaVuSans-69"/>
      <path d="M 52 44.1875 
Q 55.375 50.25 60.0625 53.125 
Q 64.75 56 71.09375 56 
Q 79.640625 56 84.28125 50.015625 
Q 88.921875 44.046875 88.921875 33.015625 
L 88.921875 0 
L 79.890625 0 
L 79.890625 32.71875 
Q 79.890625 40.578125 77.09375 44.375 
Q 74.3125 48.1875 68.609375 48.1875 
Q 61.625 48.1875 57.5625 43.546875 
Q 53.515625 38.921875 53.515625 30.90625 
L 53.515625 0 
L 44.484375 0 
L 44.484375 32.71875 
Q 44.484375 40.625 41.703125 44.40625 
Q 38.921875 48.1875 33.109375 48.1875 
Q 26.21875 48.1875 22.15625 43.53125 
Q 18.109375 38.875 18.109375 30.90625 
L 18.109375 0 
L 9.078125 0 
L 9.078125 54.6875 
L 18.109375 54.6875 
L 18.109375 46.1875 
Q 21.1875 51.21875 25.484375 53.609375 
Q 29.78125 56 35.6875 56 
Q 41.65625 56 45.828125 52.96875 
Q 50 49.953125 52 44.1875 
z
" id="DejaVuSans-6d"/>
      <path d="M 54.890625 33.015625 
L 54.890625 0 
L 45.90625 0 
L 45.90625 32.71875 
Q 45.90625 40.484375 42.875 44.328125 
Q 39.84375 48.1875 33.796875 48.1875 
Q 26.515625 48.1875 22.3125 43.546875 
Q 18.109375 38.921875 18.109375 30.90625 
L 18.109375 0 
L 9.078125 0 
L 9.078125 54.6875 
L 18.109375 54.6875 
L 18.109375 46.1875 
Q 21.34375 51.125 25.703125 53.5625 
Q 30.078125 56 35.796875 56 
Q 45.21875 56 50.046875 50.171875 
Q 54.890625 44.34375 54.890625 33.015625 
z
" id="DejaVuSans-6e"/>
      <path d="M 8.015625 75.875 
L 15.828125 75.875 
Q 23.140625 64.359375 26.78125 53.3125 
Q 30.421875 42.28125 30.421875 31.390625 
Q 30.421875 20.453125 26.78125 9.375 
Q 23.140625 -1.703125 15.828125 -13.1875 
L 8.015625 -13.1875 
Q 14.5 -2 17.703125 9.0625 
Q 20.90625 20.125 20.90625 31.390625 
Q 20.90625 42.671875 17.703125 53.65625 
Q 14.5 64.65625 8.015625 75.875 
z
" id="DejaVuSans-29"/>
     </defs>
     <g transform="translate(107.211219 338.153594)scale(0.17 -0.17)">
      <use xlink:href="#DejaVuSans-6c"/>
      <use x="27.783203" xlink:href="#DejaVuSans-6f"/>
      <use x="88.964844" xlink:href="#DejaVuSans-67"/>
      <use x="152.441406" xlink:href="#DejaVuSans-31"/>
      <use x="216.064453" xlink:href="#DejaVuSans-30"/>
      <use x="279.6875" xlink:href="#DejaVuSans-28"/>
      <use x="318.701172" xlink:href="#DejaVuSans-23"/>
      <use x="402.490234" xlink:href="#DejaVuSans-20"/>
      <use x="434.277344" xlink:href="#DejaVuSans-66"/>
      <use x="469.404297" xlink:href="#DejaVuSans-2d"/>
      <use x="505.488281" xlink:href="#DejaVuSans-65"/>
      <use x="567.011719" xlink:href="#DejaVuSans-76"/>
      <use x="626.191406" xlink:href="#DejaVuSans-61"/>
      <use x="687.470703" xlink:href="#DejaVuSans-6c"/>
      <use x="715.253906" xlink:href="#DejaVuSans-73"/>
      <use x="767.353516" xlink:href="#DejaVuSans-20"/>
      <use x="799.140625" xlink:href="#DejaVuSans-2f"/>
      <use x="832.832031" xlink:href="#DejaVuSans-20"/>
      <use x="864.619141" xlink:href="#DejaVuSans-64"/>
      <use x="928.095703" xlink:href="#DejaVuSans-69"/>
      <use x="955.878906" xlink:href="#DejaVuSans-6d"/>
      <use x="1053.291016" xlink:href="#DejaVuSans-65"/>
      <use x="1114.814453" xlink:href="#DejaVuSans-6e"/>
      <use x="1178.193359" xlink:href="#DejaVuSans-73"/>
      <use x="1230.292969" xlink:href="#DejaVuSans-69"/>
      <use x="1258.076172" xlink:href="#DejaVuSans-6f"/>
      <use x="1319.257812" xlink:href="#DejaVuSans-6e"/>
      <use x="1382.636719" xlink:href="#DejaVuSans-29"/>
     </g>
    </g>
   </g>
   <g id="matplotlib.axis_2">
    <g id="ytick_1">
     <g id="line2d_15">
      <path clip-path="url(#pfd01b17c04)" d="M 56.12 294.88 
L 399.984 294.88 
" style="fill:none;stroke:#b0b0b0;stroke-linecap:square;stroke-width:0.8;"/>
     </g>
     <g id="line2d_16">
      <defs>
       <path d="M 0 0 
L -3.5 0 
" id="mbca4f785f6" style="stroke:#000000;stroke-width:0.8;"/>
      </defs>
      <g>
       <use style="stroke:#000000;stroke-width:0.8;" x="56.12" xlink:href="#mbca4f785f6" y="294.88"/>
      </g>
     </g>
     <g id="text_7">
      <!-- 0.0 -->
      <defs>
       <path d="M 10.6875 12.40625 
L 21 12.40625 
L 21 0 
L 10.6875 0 
z
" id="DejaVuSans-2e"/>
      </defs>
      <g transform="translate(23.675 300.95875)scale(0.16 -0.16)">
       <use xlink:href="#DejaVuSans-30"/>
       <use x="63.623047" xlink:href="#DejaVuSans-2e"/>
       <use x="95.410156" xlink:href="#DejaVuSans-30"/>
      </g>
     </g>
    </g>
    <g id="ytick_2">
     <g id="line2d_17">
      <path clip-path="url(#pfd01b17c04)" d="M 56.12 241.406733 
L 399.984 241.406733 
" style="fill:none;stroke:#b0b0b0;stroke-linecap:square;stroke-width:0.8;"/>
     </g>
     <g id="line2d_18">
      <g>
       <use style="stroke:#000000;stroke-width:0.8;" x="56.12" xlink:href="#mbca4f785f6" y="241.406733"/>
      </g>
     </g>
     <g id="text_8">
      <!-- 0.2 -->
      <g transform="translate(23.675 247.485483)scale(0.16 -0.16)">
       <use xlink:href="#DejaVuSans-30"/>
       <use x="63.623047" xlink:href="#DejaVuSans-2e"/>
       <use x="95.410156" xlink:href="#DejaVuSans-32"/>
      </g>
     </g>
    </g>
    <g id="ytick_3">
     <g id="line2d_19">
      <path clip-path="url(#pfd01b17c04)" d="M 56.12 187.933465 
L 399.984 187.933465 
" style="fill:none;stroke:#b0b0b0;stroke-linecap:square;stroke-width:0.8;"/>
     </g>
     <g id="line2d_20">
      <g>
       <use style="stroke:#000000;stroke-width:0.8;" x="56.12" xlink:href="#mbca4f785f6" y="187.933465"/>
      </g>
     </g>
     <g id="text_9">
      <!-- 0.4 -->
      <g transform="translate(23.675 194.012215)scale(0.16 -0.16)">
       <use xlink:href="#DejaVuSans-30"/>
       <use x="63.623047" xlink:href="#DejaVuSans-2e"/>
       <use x="95.410156" xlink:href="#DejaVuSans-34"/>
      </g>
     </g>
    </g>
    <g id="ytick_4">
     <g id="line2d_21">
      <path clip-path="url(#pfd01b17c04)" d="M 56.12 134.460198 
L 399.984 134.460198 
" style="fill:none;stroke:#b0b0b0;stroke-linecap:square;stroke-width:0.8;"/>
     </g>
     <g id="line2d_22">
      <g>
       <use style="stroke:#000000;stroke-width:0.8;" x="56.12" xlink:href="#mbca4f785f6" y="134.460198"/>
      </g>
     </g>
     <g id="text_10">
      <!-- 0.6 -->
      <g transform="translate(23.675 140.538948)scale(0.16 -0.16)">
       <use xlink:href="#DejaVuSans-30"/>
       <use x="63.623047" xlink:href="#DejaVuSans-2e"/>
       <use x="95.410156" xlink:href="#DejaVuSans-36"/>
      </g>
     </g>
    </g>
    <g id="ytick_5">
     <g id="line2d_23">
      <path clip-path="url(#pfd01b17c04)" d="M 56.12 80.986931 
L 399.984 80.986931 
" style="fill:none;stroke:#b0b0b0;stroke-linecap:square;stroke-width:0.8;"/>
     </g>
     <g id="line2d_24">
      <g>
       <use style="stroke:#000000;stroke-width:0.8;" x="56.12" xlink:href="#mbca4f785f6" y="80.986931"/>
      </g>
     </g>
     <g id="text_11">
      <!-- 0.8 -->
      <g transform="translate(23.675 87.065681)scale(0.16 -0.16)">
       <use xlink:href="#DejaVuSans-30"/>
       <use x="63.623047" xlink:href="#DejaVuSans-2e"/>
       <use x="95.410156" xlink:href="#DejaVuSans-38"/>
      </g>
     </g>
    </g>
    <g id="ytick_6">
     <g id="line2d_25">
      <path clip-path="url(#pfd01b17c04)" d="M 56.12 27.513663 
L 399.984 27.513663 
" style="fill:none;stroke:#b0b0b0;stroke-linecap:square;stroke-width:0.8;"/>
     </g>
     <g id="line2d_26">
      <g>
       <use style="stroke:#000000;stroke-width:0.8;" x="56.12" xlink:href="#mbca4f785f6" y="27.513663"/>
      </g>
     </g>
     <g id="text_12">
      <!-- 1.0 -->
      <g transform="translate(23.675 33.592413)scale(0.16 -0.16)">
       <use xlink:href="#DejaVuSans-31"/>
       <use x="63.623047" xlink:href="#DejaVuSans-2e"/>
       <use x="95.410156" xlink:href="#DejaVuSans-30"/>
      </g>
     </g>
    </g>
    <g id="text_13">
     <!-- Fraction of function,target pairs -->
     <defs>
      <path d="M 9.8125 72.90625 
L 51.703125 72.90625 
L 51.703125 64.59375 
L 19.671875 64.59375 
L 19.671875 43.109375 
L 48.578125 43.109375 
L 48.578125 34.8125 
L 19.671875 34.8125 
L 19.671875 0 
L 9.8125 0 
z
" id="DejaVuSans-46"/>
      <path d="M 41.109375 46.296875 
Q 39.59375 47.171875 37.8125 47.578125 
Q 36.03125 48 33.890625 48 
Q 26.265625 48 22.1875 43.046875 
Q 18.109375 38.09375 18.109375 28.8125 
L 18.109375 0 
L 9.078125 0 
L 9.078125 54.6875 
L 18.109375 54.6875 
L 18.109375 46.1875 
Q 20.953125 51.171875 25.484375 53.578125 
Q 30.03125 56 36.53125 56 
Q 37.453125 56 38.578125 55.875 
Q 39.703125 55.765625 41.0625 55.515625 
z
" id="DejaVuSans-72"/>
      <path d="M 48.78125 52.59375 
L 48.78125 44.1875 
Q 44.96875 46.296875 41.140625 47.34375 
Q 37.3125 48.390625 33.40625 48.390625 
Q 24.65625 48.390625 19.8125 42.84375 
Q 14.984375 37.3125 14.984375 27.296875 
Q 14.984375 17.28125 19.8125 11.734375 
Q 24.65625 6.203125 33.40625 6.203125 
Q 37.3125 6.203125 41.140625 7.25 
Q 44.96875 8.296875 48.78125 10.40625 
L 48.78125 2.09375 
Q 45.015625 0.34375 40.984375 -0.53125 
Q 36.96875 -1.421875 32.421875 -1.421875 
Q 20.0625 -1.421875 12.78125 6.34375 
Q 5.515625 14.109375 5.515625 27.296875 
Q 5.515625 40.671875 12.859375 48.328125 
Q 20.21875 56 33.015625 56 
Q 37.15625 56 41.109375 55.140625 
Q 45.0625 54.296875 48.78125 52.59375 
z
" id="DejaVuSans-63"/>
      <path d="M 18.3125 70.21875 
L 18.3125 54.6875 
L 36.8125 54.6875 
L 36.8125 47.703125 
L 18.3125 47.703125 
L 18.3125 18.015625 
Q 18.3125 11.328125 20.140625 9.421875 
Q 21.96875 7.515625 27.59375 7.515625 
L 36.8125 7.515625 
L 36.8125 0 
L 27.59375 0 
Q 17.1875 0 13.234375 3.875 
Q 9.28125 7.765625 9.28125 18.015625 
L 9.28125 47.703125 
L 2.6875 47.703125 
L 2.6875 54.6875 
L 9.28125 54.6875 
L 9.28125 70.21875 
z
" id="DejaVuSans-74"/>
      <path d="M 8.5 21.578125 
L 8.5 54.6875 
L 17.484375 54.6875 
L 17.484375 21.921875 
Q 17.484375 14.15625 20.5 10.265625 
Q 23.53125 6.390625 29.59375 6.390625 
Q 36.859375 6.390625 41.078125 11.03125 
Q 45.3125 15.671875 45.3125 23.6875 
L 45.3125 54.6875 
L 54.296875 54.6875 
L 54.296875 0 
L 45.3125 0 
L 45.3125 8.40625 
Q 42.046875 3.421875 37.71875 1 
Q 33.40625 -1.421875 27.6875 -1.421875 
Q 18.265625 -1.421875 13.375 4.4375 
Q 8.5 10.296875 8.5 21.578125 
z
M 31.109375 56 
z
" id="DejaVuSans-75"/>
      <path d="M 11.71875 12.40625 
L 22.015625 12.40625 
L 22.015625 4 
L 14.015625 -11.625 
L 7.71875 -11.625 
L 11.71875 4 
z
" id="DejaVuSans-2c"/>
      <path d="M 18.109375 8.203125 
L 18.109375 -20.796875 
L 9.078125 -20.796875 
L 9.078125 54.6875 
L 18.109375 54.6875 
L 18.109375 46.390625 
Q 20.953125 51.265625 25.265625 53.625 
Q 29.59375 56 35.59375 56 
Q 45.5625 56 51.78125 48.09375 
Q 58.015625 40.1875 58.015625 27.296875 
Q 58.015625 14.40625 51.78125 6.484375 
Q 45.5625 -1.421875 35.59375 -1.421875 
Q 29.59375 -1.421875 25.265625 0.953125 
Q 20.953125 3.328125 18.109375 8.203125 
z
M 48.6875 27.296875 
Q 48.6875 37.203125 44.609375 42.84375 
Q 40.53125 48.484375 33.40625 48.484375 
Q 26.265625 48.484375 22.1875 42.84375 
Q 18.109375 37.203125 18.109375 27.296875 
Q 18.109375 17.390625 22.1875 11.75 
Q 26.265625 6.109375 33.40625 6.109375 
Q 40.53125 6.109375 44.609375 11.75 
Q 48.6875 17.390625 48.6875 27.296875 
z
" id="DejaVuSans-70"/>
     </defs>
     <g transform="translate(16.139531 294.999375)rotate(-90)scale(0.17 -0.17)">
      <use xlink:href="#DejaVuSans-46"/>
      <use x="57.410156" xlink:href="#DejaVuSans-72"/>
      <use x="98.523438" xlink:href="#DejaVuSans-61"/>
      <use x="159.802734" xlink:href="#DejaVuSans-63"/>
      <use x="214.783203" xlink:href="#DejaVuSans-74"/>
      <use x="253.992188" xlink:href="#DejaVuSans-69"/>
      <use x="281.775391" xlink:href="#DejaVuSans-6f"/>
      <use x="342.957031" xlink:href="#DejaVuSans-6e"/>
      <use x="406.335938" xlink:href="#DejaVuSans-20"/>
      <use x="438.123047" xlink:href="#DejaVuSans-6f"/>
      <use x="499.304688" xlink:href="#DejaVuSans-66"/>
      <use x="534.509766" xlink:href="#DejaVuSans-20"/>
      <use x="566.296875" xlink:href="#DejaVuSans-66"/>
      <use x="601.501953" xlink:href="#DejaVuSans-75"/>
      <use x="664.880859" xlink:href="#DejaVuSans-6e"/>
      <use x="728.259766" xlink:href="#DejaVuSans-63"/>
      <use x="783.240234" xlink:href="#DejaVuSans-74"/>
      <use x="822.449219" xlink:href="#DejaVuSans-69"/>
      <use x="850.232422" xlink:href="#DejaVuSans-6f"/>
      <use x="911.414062" xlink:href="#DejaVuSans-6e"/>
      <use x="974.792969" xlink:href="#DejaVuSans-2c"/>
      <use x="1006.580078" xlink:href="#DejaVuSans-74"/>
      <use x="1045.789062" xlink:href="#DejaVuSans-61"/>
      <use x="1107.068359" xlink:href="#DejaVuSans-72"/>
      <use x="1148.166016" xlink:href="#DejaVuSans-67"/>
      <use x="1211.642578" xlink:href="#DejaVuSans-65"/>
      <use x="1273.166016" xlink:href="#DejaVuSans-74"/>
      <use x="1312.375" xlink:href="#DejaVuSans-20"/>
      <use x="1344.162109" xlink:href="#DejaVuSans-70"/>
      <use x="1407.638672" xlink:href="#DejaVuSans-61"/>
      <use x="1468.917969" xlink:href="#DejaVuSans-69"/>
      <use x="1496.701172" xlink:href="#DejaVuSans-72"/>
      <use x="1537.814453" xlink:href="#DejaVuSans-73"/>
     </g>
    </g>
   </g>
   <g id="line2d_27">
    <defs>
     <path d="M 0 1.5 
C 0.397805 1.5 0.77937 1.341951 1.06066 1.06066 
C 1.341951 0.77937 1.5 0.397805 1.5 0 
C 1.5 -0.397805 1.341951 -0.77937 1.06066 -1.06066 
C 0.77937 -1.341951 0.397805 -1.5 0 -1.5 
C -0.397805 -1.5 -0.77937 -1.341951 -1.06066 -1.06066 
C -1.341951 -0.77937 -1.5 -0.397805 -1.5 0 
C -1.5 0.397805 -1.341951 0.77937 -1.06066 1.06066 
C -0.77937 1.341951 -0.397805 1.5 0 1.5 
z
" id="m1aabf84826" style="stroke:#f5deb3;"/>
    </defs>
    <g>
     <use style="fill:#f5deb3;stroke:#f5deb3;" x="144.225833" xlink:href="#m1aabf84826" y="27.513663"/>
     <use style="fill:#f5deb3;stroke:#f5deb3;" x="144.225833" xlink:href="#m1aabf84826" y="27.513663"/>
    </g>
   </g>
   <g id="line2d_28">
    <defs>
     <path d="M 0 1.5 
C 0.397805 1.5 0.77937 1.341951 1.06066 1.06066 
C 1.341951 0.77937 1.5 0.397805 1.5 0 
C 1.5 -0.397805 1.341951 -0.77937 1.06066 -1.06066 
C 0.77937 -1.341951 0.397805 -1.5 0 -1.5 
C -0.397805 -1.5 -0.77937 -1.341951 -1.06066 -1.06066 
C -1.341951 -0.77937 -1.5 -0.397805 -1.5 0 
C -1.5 0.397805 -1.341951 0.77937 -1.06066 1.06066 
C -0.77937 1.341951 -0.397805 1.5 0 1.5 
z
" id="mf7fcc3ad10" style="stroke:#000080;"/>
    </defs>
    <g>
     <use style="fill:#000080;stroke:#000080;" x="192.934598" xlink:href="#mf7fcc3ad10" y="27.513663"/>
     <use style="fill:#000080;stroke:#000080;" x="192.934598" xlink:href="#mf7fcc3ad10" y="27.513663"/>
    </g>
   </g>
   <g id="line2d_29">
    <path d="M 44.194496 294.88 
L 44.194496 265.522128 
L 56.12 265.522128 
L 56.12 259.231155 
L 63.095973 259.231155 
L 63.095973 255.561421 
L 68.045504 255.561421 
L 68.045504 252.940182 
L 71.884659 252.940182 
L 71.884659 251.891687 
L 79.971009 251.891687 
L 79.971009 250.843192 
L 85.449963 250.843192 
L 85.449963 250.318944 
L 90.786137 250.318944 
L 90.786137 248.746201 
L 91.896513 248.746201 
L 91.896513 243.503724 
L 95.735668 243.503724 
L 95.735668 242.455228 
L 100.898928 242.455228 
L 100.898928 241.93098 
L 103.275786 241.93098 
L 103.275786 241.406733 
L 103.822018 241.406733 
L 103.822018 240.882485 
L 107.661173 240.882485 
L 107.661173 239.83399 
L 108.086006 239.83399 
L 108.086006 238.261246 
L 109.300972 238.261246 
L 109.300972 236.164255 
L 109.687614 236.164255 
L 109.687614 234.591512 
L 111.152743 234.591512 
L 111.152743 234.067265 
L 112.175115 234.067265 
L 112.175115 233.018769 
L 116.790561 233.018769 
L 116.790561 231.446026 
L 121.226476 231.446026 
L 121.226476 229.873283 
L 126.12706 229.873283 
L 126.12706 228.824787 
L 128.202449 228.824787 
L 128.202449 227.252044 
L 128.332297 227.252044 
L 128.332297 223.058063 
L 129.93678 223.058063 
L 129.93678 222.533815 
L 130.286722 222.533815 
L 130.286722 220.961072 
L 131.512181 220.961072 
L 131.512181 220.436824 
L 133.728734 220.436824 
L 133.728734 216.242842 
L 134.915747 216.242842 
L 134.915747 214.145851 
L 135.776169 214.145851 
L 135.776169 212.573108 
L 139.395721 212.573108 
L 139.395721 207.854879 
L 139.665607 207.854879 
L 139.665607 206.806383 
L 141.016963 206.806383 
L 141.07874 205.757888 
L 141.803263 205.757888 
L 141.803263 205.23364 
L 142.498503 205.23364 
L 142.498503 204.709392 
L 142.946864 204.709392 
L 142.946864 203.660897 
L 143.166738 203.660897 
L 143.166738 203.136649 
L 148.600945 203.136649 
L 148.600945 201.563906 
L 148.838258 201.563906 
L 148.838258 200.515411 
L 149.303282 200.515411 
L 149.303282 199.991163 
L 151.253087 199.991163 
L 151.253087 198.41842 
L 151.456697 198.41842 
L 151.456697 194.748686 
L 151.889756 194.748686 
L 151.955424 191.078952 
L 152.312182 191.078952 
L 152.312182 188.981961 
L 153.490634 188.981961 
L 153.490634 186.360722 
L 154.166574 186.360722 
L 154.166574 185.836474 
L 154.844686 185.836474 
L 154.844686 184.787979 
L 156.151337 184.787979 
L 156.151337 183.215236 
L 158.744684 183.215236 
L 158.744684 181.118245 
L 159.007694 181.118245 
L 159.007694 179.021254 
L 159.458502 179.021254 
L 159.458502 177.448511 
L 162.303282 177.448511 
L 162.303282 173.254529 
L 162.552891 173.254529 
L 162.552891 171.157538 
L 163.649987 171.157538 
L 163.649987 166.439309 
L 164.476758 166.439309 
L 164.476758 165.390813 
L 168.39487 165.390813 
L 168.482875 160.672584 
L 169.564229 160.672584 
L 169.564229 158.051345 
L 169.704964 158.051345 
L 169.716641 155.430107 
L 170.346926 155.430107 
L 170.346926 153.333116 
L 171.009158 153.333116 
L 171.009158 152.808868 
L 171.915997 152.808868 
L 171.915997 152.28462 
L 172.201223 152.28462 
L 172.201223 149.139134 
L 172.491734 149.139134 
L 172.491734 147.566391 
L 172.903964 147.566391 
L 172.903964 146.517896 
L 173.551126 146.517896 
L 173.551126 143.896657 
L 174.075453 143.896657 
L 174.1568 140.751171 
L 175.052815 140.751171 
L 175.052815 136.557189 
L 175.189227 136.557189 
L 175.282386 134.460198 
L 175.467206 134.460198 
L 175.558877 129.217721 
L 175.822811 129.217721 
L 175.822811 125.547987 
L 176.638057 125.547987 
L 176.638057 123.975244 
L 176.947505 123.975244 
L 176.947505 121.354005 
L 177.446232 121.354005 
L 177.550189 120.30551 
L 177.894664 120.30551 
L 177.894664 119.781262 
L 178.010376 119.781262 
L 178.010376 117.160023 
L 178.161077 117.160023 
L 178.246602 112.441794 
L 178.324629 112.441794 
L 178.324629 110.869051 
L 178.451551 110.869051 
L 178.451551 110.344803 
L 178.902238 110.344803 
L 179.004587 105.626573 
L 179.938029 105.626573 
L 179.938029 104.578078 
L 180.072819 104.578078 
L 180.072819 103.005335 
L 180.345565 103.005335 
L 180.345565 101.956839 
L 180.902806 101.956839 
L 180.902806 99.859849 
L 181.513269 99.859849 
L 181.513269 97.23861 
L 181.64798 97.23861 
L 181.64798 96.190115 
L 182.068686 96.190115 
L 182.068686 95.141619 
L 182.317381 95.141619 
L 182.412513 92.520381 
L 182.716738 92.520381 
L 182.815146 88.326399 
L 182.912994 88.326399 
L 182.96171 82.559674 
L 183.394056 82.559674 
L 183.420391 77.317197 
L 183.556689 77.317197 
L 183.645226 75.220206 
L 183.790066 75.220206 
L 183.790066 73.647463 
L 184.081205 73.647463 
L 184.081205 72.074719 
L 184.352549 72.074719 
L 184.352549 66.832242 
L 184.491579 66.832242 
L 184.491579 66.307995 
L 184.629495 66.307995 
L 184.629495 65.783747 
L 185.079795 65.783747 
L 185.089351 64.211004 
L 185.317108 64.211004 
L 185.401745 59.492774 
L 185.527926 59.492774 
L 185.527926 57.920031 
L 185.869084 57.920031 
L 185.869084 56.871536 
L 186.014542 56.871536 
L 186.014542 56.347288 
L 186.601887 56.347288 
L 186.601887 55.298792 
L 186.819233 55.298792 
L 186.819233 54.250297 
L 187.971943 54.250297 
L 188.000197 45.338086 
L 188.196689 45.338086 
L 188.196689 44.813838 
L 188.430341 44.813838 
L 188.430341 43.765343 
L 188.718981 43.765343 
L 188.718981 40.619856 
L 189.090145 40.619856 
L 189.090145 39.571361 
L 189.334456 39.571361 
L 189.390346 35.901627 
L 189.597413 35.901627 
L 189.597413 34.853131 
L 190.810625 34.853131 
L 190.885815 30.65915 
L 191.363385 30.65915 
L 191.363385 30.134902 
L 192.505451 30.134902 
L 192.613745 28.037911 
L 192.934598 28.037911 
L 192.934598 27.513663 
L 333.429677 27.513663 
L 333.429677 27.513663 
" style="fill:none;stroke:#000080;stroke-linecap:square;stroke-width:1.5;"/>
   </g>
   <g id="line2d_30">
    <defs>
     <path d="M 0 6 
C 1.591219 6 3.117479 5.367802 4.242641 4.242641 
C 5.367802 3.117479 6 1.591219 6 0 
C 6 -1.591219 5.367802 -3.117479 4.242641 -4.242641 
C 3.117479 -5.367802 1.591219 -6 0 -6 
C -1.591219 -6 -3.117479 -5.367802 -4.242641 -4.242641 
C -5.367802 -3.117479 -6 -1.591219 -6 0 
C -6 1.591219 -5.367802 3.117479 -4.242641 4.242641 
C -3.117479 5.367802 -1.591219 6 0 6 
z
" id="me5b11c9a3b" style="stroke:#000080;stroke-width:1.5;"/>
    </defs>
    <g>
     <use style="fill-opacity:0;stroke:#000080;stroke-width:1.5;" x="121.226476" xlink:href="#me5b11c9a3b" y="231.446026"/>
     <use style="fill-opacity:0;stroke:#000080;stroke-width:1.5;" x="171.009158" xlink:href="#me5b11c9a3b" y="152.808868"/>
     <use style="fill-opacity:0;stroke:#000080;stroke-width:1.5;" x="192.613745" xlink:href="#me5b11c9a3b" y="28.562159"/>
     <use style="fill-opacity:0;stroke:#000080;stroke-width:1.5;" x="192.934598" xlink:href="#me5b11c9a3b" y="27.513663"/>
     <use style="fill-opacity:0;stroke:#000080;stroke-width:1.5;" x="192.934598" xlink:href="#me5b11c9a3b" y="27.513663"/>
     <use style="fill-opacity:0;stroke:#000080;stroke-width:1.5;" x="333.429677" xlink:href="#me5b11c9a3b" y="27.513663"/>
    </g>
   </g>
   <g id="line2d_31">
    <path style="fill:none;stroke:#000080;stroke-linecap:square;stroke-width:1.5;"/>
    <g/>
   </g>
   <g id="line2d_32">
    <defs>
     <path d="M 0 1.5 
C 0.397805 1.5 0.77937 1.341951 1.06066 1.06066 
C 1.341951 0.77937 1.5 0.397805 1.5 0 
C 1.5 -0.397805 1.341951 -0.77937 1.06066 -1.06066 
C 0.77937 -1.341951 0.397805 -1.5 0 -1.5 
C -0.397805 -1.5 -0.77937 -1.341951 -1.06066 -1.06066 
C -1.341951 -0.77937 -1.5 -0.397805 -1.5 0 
C -1.5 0.397805 -1.341951 0.77937 -1.06066 1.06066 
C -0.77937 1.341951 -0.397805 1.5 0 1.5 
z
" id="m099500af86" style="stroke:#ff00ff;"/>
    </defs>
    <g>
     <use style="fill:#ff00ff;stroke:#ff00ff;" x="249.301033" xlink:href="#m099500af86" y="27.513663"/>
     <use style="fill:#ff00ff;stroke:#ff00ff;" x="249.301033" xlink:href="#m099500af86" y="27.513663"/>
    </g>
   </g>
   <g id="line2d_33">
    <path d="M 44.194496 294.88 
L 44.194496 265.522128 
L 102.128369 265.522128 
L 102.128369 263.949385 
L 103.822018 263.949385 
L 103.822018 261.328146 
L 104.35144 261.328146 
L 104.35144 259.755403 
L 104.865056 259.755403 
L 104.865056 258.706907 
L 105.363783 258.706907 
L 105.363783 253.46443 
L 106.319855 253.46443 
L 106.319855 252.940182 
L 107.225583 252.940182 
L 107.225583 252.415935 
L 114.347981 252.415935 
L 114.347981 251.891687 
L 115.20129 251.891687 
L 115.20129 250.843192 
L 116.01427 250.843192 
L 116.01427 250.318944 
L 117.289287 250.318944 
L 117.289287 249.794696 
L 117.533332 249.794696 
L 117.533332 249.270448 
L 117.773963 249.270448 
L 117.773963 248.746201 
L 119.370261 248.746201 
L 119.370261 248.221953 
L 127.126794 248.221953 
L 127.126794 247.173458 
L 130.965949 247.173458 
L 130.965949 246.64921 
L 135.351336 246.64921 
L 135.351336 245.600714 
L 142.946864 245.600714 
L 142.946864 244.552219 
L 144.174398 244.552219 
L 144.174398 242.979476 
L 145.559445 242.979476 
L 145.559445 241.406733 
L 146.841251 241.406733 
L 146.841251 240.358237 
L 148.116269 240.358237 
L 148.116269 239.309742 
L 148.838258 239.309742 
L 148.838258 238.261246 
L 150.485197 238.261246 
L 150.485197 237.736999 
L 150.627387 237.736999 
L 150.627387 236.164255 
L 151.524035 236.164255 
L 151.524035 235.640008 
L 151.724483 235.640008 
L 151.724483 232.494521 
L 151.889756 232.494521 
L 151.889756 231.970274 
L 152.118505 231.970274 
L 152.118505 231.446026 
L 152.503704 231.446026 
L 152.503704 230.921778 
L 154.395594 230.921778 
L 154.395594 230.397531 
L 155.603448 230.397531 
L 155.603448 229.349035 
L 155.761776 229.349035 
L 155.761776 228.824787 
L 156.75685 228.824787 
L 156.75685 228.30054 
L 157.532411 228.30054 
L 157.532411 226.727797 
L 160.14388 226.727797 
L 160.14388 222.009567 
L 160.346292 222.009567 
L 160.346292 220.436824 
L 160.74411 220.436824 
L 160.74411 219.912576 
L 161.362085 219.912576 
L 161.362085 219.388328 
L 161.995235 219.388328 
L 161.995235 218.864081 
L 162.267327 218.864081 
L 162.267327 218.339833 
L 164.539953 218.339833 
L 164.539953 217.815585 
L 164.759326 217.815585 
L 164.759326 217.291338 
L 164.960555 217.291338 
L 164.991305 215.718594 
L 165.129006 215.718594 
L 165.129006 210.476117 
L 166.589158 210.476117 
L 166.589158 209.95187 
L 166.825511 209.95187 
L 166.880655 208.903374 
L 167.502423 208.903374 
L 167.555442 206.282136 
L 170.391877 206.282136 
L 170.391877 205.757888 
L 172.708895 205.757888 
L 172.708895 205.23364 
L 173.597764 205.23364 
L 173.597764 204.709392 
L 173.810687 204.709392 
L 173.810687 204.185145 
L 174.06639 204.185145 
L 174.06639 203.660897 
L 174.210818 203.660897 
L 174.291529 199.991163 
L 175.583793 199.991163 
L 175.583793 198.41842 
L 176.058553 198.41842 
L 176.074693 197.369924 
L 176.551973 197.369924 
L 176.551973 196.845677 
L 176.909127 196.845677 
L 176.909127 193.175943 
L 178.067942 193.175943 
L 178.067942 192.651695 
L 179.052143 192.651695 
L 179.052143 192.127447 
L 181.240641 192.127447 
L 181.240641 191.603199 
L 183.197911 191.603199 
L 183.197911 191.078952 
L 183.61403 191.078952 
L 183.61403 190.554704 
L 183.75397 190.554704 
L 183.779761 187.933465 
L 183.887661 187.933465 
L 183.90302 186.88497 
L 184.146921 186.88497 
L 184.146921 186.360722 
L 184.382436 186.360722 
L 184.382436 185.836474 
L 184.521226 185.836474 
L 184.521226 185.312227 
L 184.814915 185.312227 
L 184.814915 184.263731 
L 184.964712 184.263731 
L 184.964712 183.739484 
L 185.108446 183.739484 
L 185.108446 182.690988 
L 185.293523 182.690988 
L 185.293523 182.16674 
L 185.6208 182.16674 
L 185.671667 181.118245 
L 186.055231 181.118245 
L 186.127331 179.021254 
L 186.203608 179.021254 
L 186.203608 176.924263 
L 186.395047 176.924263 
L 186.439264 175.875768 
L 186.888207 175.875768 
L 186.888207 175.35152 
L 187.063703 175.35152 
L 187.063703 174.303025 
L 187.212113 174.303025 
L 187.308947 166.439309 
L 187.690924 166.439309 
L 187.699135 164.342318 
L 187.870654 164.342318 
L 187.927449 161.721079 
L 188.02035 161.721079 
L 188.02035 160.148336 
L 188.160766 160.148336 
L 188.160766 159.624089 
L 188.930416 159.624089 
L 188.930416 156.478602 
L 190.721338 156.478602 
L 190.721338 155.954354 
L 191.021688 155.954354 
L 191.021688 155.430107 
L 191.518578 155.430107 
L 191.518578 154.905859 
L 191.685411 154.905859 
L 191.685411 151.760373 
L 191.818368 151.760373 
L 191.918218 146.517896 
L 191.975931 146.517896 
L 191.98873 144.420905 
L 192.113023 144.420905 
L 192.113023 143.896657 
L 204.038527 143.896657 
L 204.038527 143.372409 
L 204.155621 143.372409 
L 204.226439 140.751171 
L 204.31885 140.751171 
L 204.412322 134.460198 
L 207.488441 134.460198 
L 207.588195 126.072235 
L 207.71817 126.072235 
L 207.71817 123.975244 
L 207.943606 123.975244 
L 208.040762 119.257014 
L 208.057111 119.257014 
L 208.167375 114.538785 
L 208.19109 114.538785 
L 208.298022 109.296308 
L 208.315367 109.296308 
L 208.345061 106.150821 
L 208.487861 106.150821 
L 208.507465 103.005335 
L 208.69623 103.005335 
L 208.704706 101.432592 
L 208.900909 101.432592 
L 208.912873 100.384096 
L 215.642705 100.384096 
L 215.696006 98.287105 
L 215.905184 98.287105 
L 215.905184 97.762858 
L 216.051137 97.762858 
L 216.126797 89.899142 
L 216.223254 89.899142 
L 216.31295 88.326399 
L 216.344816 88.326399 
L 216.454727 79.414188 
L 216.476317 79.414188 
L 216.477087 78.365692 
L 216.63891 78.365692 
L 216.737859 73.647463 
L 216.775765 73.647463 
L 216.775765 72.074719 
L 221.245553 72.074719 
L 221.320728 66.307995 
L 221.392102 66.307995 
L 221.43259 64.735251 
L 221.551189 64.735251 
L 221.655294 56.871536 
L 236.021869 56.871536 
L 236.021869 55.82304 
L 239.989009 55.82304 
L 239.989009 54.774545 
L 240.156567 54.774545 
L 240.261894 53.201802 
L 240.307857 53.201802 
L 240.398457 50.580563 
L 240.463181 50.580563 
L 240.571593 46.910829 
L 240.611622 46.910829 
L 240.620146 44.813838 
L 248.998793 44.813838 
L 249.059783 39.571361 
L 249.12749 39.571361 
L 249.22907 32.756141 
L 249.243418 32.756141 
L 249.301033 27.513663 
L 333.429677 27.513663 
L 333.429677 27.513663 
" style="fill:none;stroke:#ff00ff;stroke-linecap:square;stroke-width:1.5;"/>
   </g>
   <g id="line2d_34">
    <defs>
     <path d="M -0 8.485281 
L 5.091169 0 
L 0 -8.485281 
L -5.091169 -0 
z
" id="m62a57649fe" style="stroke:#ff00ff;stroke-linejoin:miter;stroke-width:1.5;"/>
    </defs>
    <g>
     <use style="fill-opacity:0;stroke:#ff00ff;stroke-linejoin:miter;stroke-width:1.5;" x="116.01427" xlink:href="#m62a57649fe" y="250.843192"/>
     <use style="fill-opacity:0;stroke:#ff00ff;stroke-linejoin:miter;stroke-width:1.5;" x="162.267327" xlink:href="#m62a57649fe" y="218.864081"/>
     <use style="fill-opacity:0;stroke:#ff00ff;stroke-linejoin:miter;stroke-width:1.5;" x="208.167375" xlink:href="#m62a57649fe" y="117.684271"/>
     <use style="fill-opacity:0;stroke:#ff00ff;stroke-linejoin:miter;stroke-width:1.5;" x="249.301033" xlink:href="#m62a57649fe" y="28.037911"/>
     <use style="fill-opacity:0;stroke:#ff00ff;stroke-linejoin:miter;stroke-width:1.5;" x="249.301033" xlink:href="#m62a57649fe" y="27.513663"/>
     <use style="fill-opacity:0;stroke:#ff00ff;stroke-linejoin:miter;stroke-width:1.5;" x="333.429677" xlink:href="#m62a57649fe" y="27.513663"/>
    </g>
   </g>
   <g id="line2d_35">
    <path style="fill:none;stroke:#ff00ff;stroke-linecap:square;stroke-width:1.5;"/>
    <g/>
   </g>
   <g id="line2d_36">
    <defs>
     <path d="M 0 1.5 
C 0.397805 1.5 0.77937 1.341951 1.06066 1.06066 
C 1.341951 0.77937 1.5 0.397805 1.5 0 
C 1.5 -0.397805 1.341951 -0.77937 1.06066 -1.06066 
C 0.77937 -1.341951 0.397805 -1.5 0 -1.5 
C -0.397805 -1.5 -0.77937 -1.341951 -1.06066 -1.06066 
C -1.341951 -0.77937 -1.5 -0.397805 -1.5 0 
C -1.5 0.397805 -1.341951 0.77937 -1.06066 1.06066 
C -0.77937 1.341951 -0.397805 1.5 0 1.5 
z
" id="m37ae7c2f7c" style="stroke:#ffa500;"/>
    </defs>
    <g>
     <use style="fill:#ffa500;stroke:#ffa500;" x="266.956185" xlink:href="#m37ae7c2f7c" y="27.513663"/>
     <use style="fill:#ffa500;stroke:#ffa500;" x="266.956185" xlink:href="#m37ae7c2f7c" y="27.513663"/>
    </g>
   </g>
   <g id="line2d_37">
    <path d="M 44.194496 294.88 
L 44.194496 268.667614 
L 56.12 268.667614 
L 56.12 260.279651 
L 63.095973 260.279651 
L 63.095973 258.706907 
L 68.045504 258.706907 
L 68.045504 255.561421 
L 71.884659 255.561421 
L 71.884659 252.415935 
L 75.021477 252.415935 
L 75.021477 251.367439 
L 77.673619 251.367439 
L 77.673619 250.318944 
L 81.99745 250.318944 
L 81.99745 247.697705 
L 85.449963 247.697705 
L 85.449963 246.64921 
L 86.946982 246.64921 
L 86.946982 246.124962 
L 93.922955 246.124962 
L 93.922955 245.600714 
L 95.735668 245.600714 
L 95.735668 244.552219 
L 100.24961 244.552219 
L 100.24961 241.406733 
L 101.524628 241.406733 
L 101.524628 239.83399 
L 104.865056 239.83399 
L 104.865056 236.688503 
L 105.363783 236.688503 
L 105.363783 235.11576 
L 107.661173 235.11576 
L 107.661173 230.397531 
L 108.086006 230.397531 
L 108.086006 229.349035 
L 108.500601 229.349035 
L 108.500601 228.30054 
L 109.687614 228.30054 
L 109.687614 227.776292 
L 110.065758 227.776292 
L 110.065758 214.670099 
L 114.347981 214.670099 
L 114.347981 213.097356 
L 115.747522 213.097356 
L 115.747522 209.95187 
L 116.276944 209.95187 
L 116.276944 208.379126 
L 121.803229 208.379126 
L 121.803229 207.854879 
L 123.425832 207.854879 
L 123.425832 206.282136 
L 123.766534 206.282136 
L 123.766534 205.757888 
L 123.934387 205.757888 
L 123.934387 202.612401 
L 124.428341 202.612401 
L 124.428341 200.515411 
L 126.70543 200.515411 
L 126.70543 193.70019 
L 127.806917 193.70019 
L 127.806917 186.88497 
L 129.818533 186.88497 
L 129.818533 186.360722 
L 130.401805 186.360722 
L 130.401805 185.836474 
L 130.742506 185.836474 
L 130.742506 184.787979 
L 131.076592 184.787979 
L 131.076592 183.215236 
L 136.754909 183.215236 
L 136.754909 182.690988 
L 138.701882 182.690988 
L 138.701882 181.642493 
L 141.505077 181.642493 
L 141.505077 181.118245 
L 144.480724 181.118245 
L 144.480724 180.06975 
L 148.27935 180.06975 
L 148.27935 179.021254 
L 149.568853 179.021254 
L 149.568853 175.875768 
L 152.053458 175.875768 
L 152.053458 173.778777 
L 153.370319 173.778777 
L 153.370319 173.254529 
L 154.480696 173.254529 
L 154.480696 168.012052 
L 155.282353 168.012052 
L 155.282353 166.963557 
L 159.116105 166.963557 
L 159.116105 165.390813 
L 163.110182 165.390813 
L 163.110182 164.866566 
L 164.317747 164.866566 
L 164.317747 164.342318 
L 165.475981 164.342318 
L 165.475981 163.293823 
L 166.163975 163.293823 
L 166.163975 162.245327 
L 166.756332 162.245327 
L 166.756332 160.672584 
L 167.922074 160.672584 
L 167.922074 159.624089 
L 171.330954 159.624089 
L 171.330954 158.051345 
L 171.542189 158.051345 
L 171.542189 155.430107 
L 175.087019 155.430107 
L 175.087019 152.808868 
L 176.708169 152.808868 
L 176.708169 151.760373 
L 177.843794 151.760373 
L 177.843794 151.236125 
L 179.899323 151.236125 
L 179.899323 148.614886 
L 181.132773 148.614886 
L 181.132773 142.323914 
L 181.525025 142.323914 
L 181.525025 140.751171 
L 182.255544 140.751171 
L 182.255544 140.226923 
L 182.534849 140.226923 
L 182.534849 138.65418 
L 182.864139 138.65418 
L 182.864139 138.129932 
L 185.45794 138.129932 
L 185.537236 136.557189 
L 191.393211 136.557189 
L 191.393211 132.363207 
L 192.154255 132.363207 
L 192.154255 128.169225 
L 194.765164 128.169225 
L 194.784207 122.926748 
L 196.451666 122.926748 
L 196.451666 122.4025 
L 196.640638 122.4025 
L 196.640638 120.30551 
L 196.79856 120.30551 
L 196.79856 119.781262 
L 197.924196 119.781262 
L 197.924196 118.208519 
L 198.061827 118.208519 
L 198.061827 115.58728 
L 199.133395 115.58728 
L 199.133395 111.917546 
L 200.800431 111.917546 
L 200.800431 110.344803 
L 201.030784 110.344803 
L 201.030784 109.820555 
L 201.158898 109.820555 
L 201.158898 106.150821 
L 201.981693 106.150821 
L 201.981693 104.05383 
L 202.23569 104.05383 
L 202.23569 101.432592 
L 202.908239 101.432592 
L 202.908239 99.859849 
L 203.615798 99.859849 
L 203.615798 98.811353 
L 204.878258 98.811353 
L 204.878258 97.762858 
L 205.222576 97.762858 
L 205.222576 96.714362 
L 205.548508 96.714362 
L 205.548508 93.044628 
L 206.604716 93.044628 
L 206.627952 86.229408 
L 206.878806 86.229408 
L 206.878806 85.180912 
L 207.310827 85.180912 
L 207.310827 84.132417 
L 207.867517 84.132417 
L 207.867517 82.559674 
L 208.285622 82.559674 
L 208.354947 78.88994 
L 208.484183 78.88994 
L 208.484183 76.792949 
L 209.324136 76.792949 
L 209.366125 69.977729 
L 209.44052 69.977729 
L 209.44052 68.929233 
L 210.375073 68.929233 
L 210.375073 68.404985 
L 211.367567 68.404985 
L 211.367567 65.783747 
L 211.769343 65.783747 
L 211.769343 65.259499 
L 212.134202 65.259499 
L 212.134202 63.162508 
L 212.434074 63.162508 
L 212.434074 60.54127 
L 213.966146 60.54127 
L 213.966146 60.017022 
L 214.727443 60.017022 
L 214.727443 58.968526 
L 215.155418 58.968526 
L 215.155418 57.920031 
L 216.27089 57.920031 
L 216.27089 57.395783 
L 218.032057 57.395783 
L 218.032057 56.871536 
L 218.476795 56.871536 
L 218.57325 55.82304 
L 219.978216 55.82304 
L 219.978216 55.298792 
L 221.941464 55.298792 
L 221.94539 54.250297 
L 254.315024 54.250297 
L 254.315024 53.726049 
L 254.547643 53.726049 
L 254.547643 51.629058 
L 254.837358 51.629058 
L 254.942057 50.580563 
L 254.987556 50.580563 
L 255.065439 48.483572 
L 255.107675 48.483572 
L 255.11934 45.862334 
L 255.347841 45.862334 
L 255.455887 41.144104 
L 255.464281 41.144104 
L 255.520295 39.047113 
L 255.594063 39.047113 
L 255.667674 37.998618 
L 255.727281 37.998618 
L 255.751271 36.950122 
L 255.947978 36.950122 
L 255.947978 36.425875 
L 256.276701 36.425875 
L 256.276701 35.901627 
L 256.416859 35.901627 
L 256.491784 34.853131 
L 256.745583 34.853131 
L 256.746102 33.804636 
L 266.316064 33.804636 
L 266.316064 33.280388 
L 266.498586 33.280388 
L 266.575011 31.707645 
L 266.636367 31.707645 
L 266.642337 30.134902 
L 266.759671 30.134902 
L 266.848727 28.562159 
L 266.894398 28.562159 
L 266.956185 27.513663 
L 333.429677 27.513663 
L 333.429677 27.513663 
" style="fill:none;stroke:#ffa500;stroke-linecap:square;stroke-width:1.5;"/>
   </g>
   <g id="line2d_38">
    <defs>
     <path d="M 0 -6 
L -1.347084 -1.854102 
L -5.706339 -1.854102 
L -2.179628 0.708204 
L -3.526712 4.854102 
L -0 2.291796 
L 3.526712 4.854102 
L 2.179628 0.708204 
L 5.706339 -1.854102 
L 1.347084 -1.854102 
z
" id="m2a58a23677" style="stroke:#ffa500;stroke-linejoin:bevel;stroke-width:1.5;"/>
    </defs>
    <g>
     <use style="fill-opacity:0;stroke:#ffa500;stroke-linejoin:bevel;stroke-width:1.5;" x="121.803229" xlink:href="#m2a58a23677" y="208.379126"/>
     <use style="fill-opacity:0;stroke:#ffa500;stroke-linejoin:bevel;stroke-width:1.5;" x="192.154255" xlink:href="#m2a58a23677" y="132.363207"/>
     <use style="fill-opacity:0;stroke:#ffa500;stroke-linejoin:bevel;stroke-width:1.5;" x="218.57325" xlink:href="#m2a58a23677" y="56.347288"/>
     <use style="fill-opacity:0;stroke:#ffa500;stroke-linejoin:bevel;stroke-width:1.5;" x="266.956185" xlink:href="#m2a58a23677" y="27.513663"/>
     <use style="fill-opacity:0;stroke:#ffa500;stroke-linejoin:bevel;stroke-width:1.5;" x="266.956185" xlink:href="#m2a58a23677" y="27.513663"/>
     <use style="fill-opacity:0;stroke:#ffa500;stroke-linejoin:bevel;stroke-width:1.5;" x="333.429677" xlink:href="#m2a58a23677" y="27.513663"/>
    </g>
   </g>
   <g id="line2d_39">
    <path style="fill:none;stroke:#ffa500;stroke-linecap:square;stroke-width:1.5;"/>
    <g/>
   </g>
   <g id="line2d_40">
    <path clip-path="url(#pfd01b17c04)" d="M 254.304682 54.250297 
" style="fill:none;stroke:#ffa500;stroke-linecap:square;stroke-width:1.5;"/>
    <defs>
     <path d="M -12 12 
L 12 -12 
M -12 -12 
L 12 12 
" id="m010b9d7a9a" style="stroke:#ffa500;stroke-width:3;"/>
    </defs>
    <g clip-path="url(#pfd01b17c04)">
     <use style="fill:#ffa500;stroke:#ffa500;stroke-width:3;" x="254.304682" xlink:href="#m010b9d7a9a" y="54.250297"/>
    </g>
   </g>
   <g id="line2d_41">
    <defs>
     <path d="M 0 1.5 
C 0.397805 1.5 0.77937 1.341951 1.06066 1.06066 
C 1.341951 0.77937 1.5 0.397805 1.5 0 
C 1.5 -0.397805 1.341951 -0.77937 1.06066 -1.06066 
C 0.77937 -1.341951 0.397805 -1.5 0 -1.5 
C -0.397805 -1.5 -0.77937 -1.341951 -1.06066 -1.06066 
C -1.341951 -0.77937 -1.5 -0.397805 -1.5 0 
C -1.5 0.397805 -1.341951 0.77937 -1.06066 1.06066 
C -0.77937 1.341951 -0.397805 1.5 0 1.5 
z
" id="m4b5371fedd" style="stroke:#6495ed;"/>
    </defs>
    <g>
     <use style="fill:#6495ed;stroke:#6495ed;" x="266.206488" xlink:href="#m4b5371fedd" y="27.513663"/>
     <use style="fill:#6495ed;stroke:#6495ed;" x="266.206488" xlink:href="#m4b5371fedd" y="27.513663"/>
    </g>
   </g>
   <g id="line2d_42">
    <path d="M 44.194496 294.88 
L 44.194496 262.900889 
L 56.12 262.900889 
L 56.12 259.755403 
L 63.095973 259.755403 
L 63.095973 257.658412 
L 75.021477 257.658412 
L 75.021477 255.561421 
L 77.673619 255.561421 
L 77.673619 250.843192 
L 79.971009 250.843192 
L 79.971009 249.794696 
L 81.99745 249.794696 
L 81.99745 249.270448 
L 83.810164 249.270448 
L 83.810164 248.746201 
L 85.449963 248.746201 
L 85.449963 248.221953 
L 86.946982 248.221953 
L 86.946982 247.173458 
L 88.324106 247.173458 
L 88.324106 246.124962 
L 91.896513 246.124962 
L 91.896513 244.027971 
L 94.853174 244.027971 
L 94.853174 242.455228 
L 100.898928 242.455228 
L 100.898928 241.406733 
L 102.128369 241.406733 
L 102.128369 240.882485 
L 102.711641 240.882485 
L 102.711641 230.397531 
L 103.275786 230.397531 
L 103.275786 229.873283 
L 107.661173 229.873283 
L 107.661173 227.776292 
L 110.43577 227.776292 
L 110.43577 225.679301 
L 114.053874 225.679301 
L 114.053874 220.961072 
L 115.747522 220.961072 
L 115.747522 219.912576 
L 118.704183 219.912576 
L 118.704183 218.864081 
L 118.929086 218.864081 
L 118.929086 216.76709 
L 119.800405 216.76709 
L 119.800405 215.718594 
L 121.029847 215.718594 
L 121.029847 214.145851 
L 121.420883 214.145851 
L 121.420883 212.573108 
L 124.908508 212.573108 
L 124.908508 212.04886 
L 125.680156 212.04886 
L 125.680156 210.476117 
L 126.12706 210.476117 
L 126.12706 204.185145 
L 126.56265 204.185145 
L 126.56265 193.70019 
L 127.538086 193.70019 
L 127.538086 192.651695 
L 127.806917 192.651695 
L 127.806917 191.078952 
L 127.939774 191.078952 
L 127.939774 190.554704 
L 128.967235 190.554704 
L 128.967235 187.933465 
L 129.699468 187.933465 
L 129.699468 184.787979 
L 130.286722 184.787979 
L 130.286722 181.118245 
L 132.453716 181.118245 
L 132.453716 177.972759 
L 133.823007 177.972759 
L 133.823007 176.400016 
L 134.915747 176.400016 
L 134.915747 175.35152 
L 138.271738 175.35152 
L 138.271738 174.827272 
L 139.997117 174.827272 
L 139.997117 172.730281 
L 140.704707 172.730281 
L 140.704707 166.963557 
L 141.979724 166.963557 
L 141.979724 162.245327 
L 142.668011 162.245327 
L 142.668011 161.196832 
L 143.967108 161.196832 
L 143.967108 160.148336 
L 144.225833 160.148336 
L 144.225833 159.099841 
L 144.430047 159.099841 
L 144.430047 153.857364 
L 145.126293 153.857364 
L 145.126293 153.333116 
L 147.532997 153.333116 
L 147.532997 152.808868 
L 148.640725 152.808868 
L 148.640725 150.711877 
L 149.341473 150.711877 
L 149.341473 149.663382 
L 151.28719 149.663382 
L 151.28719 149.139134 
L 152.150936 149.139134 
L 152.215616 142.848162 
L 152.567074 142.848162 
L 152.567074 140.751171 
L 152.880468 140.751171 
L 152.880468 139.702675 
L 153.127137 139.702675 
L 153.127137 139.178427 
L 153.610112 139.178427 
L 153.610112 134.460198 
L 154.649649 134.460198 
L 154.649649 131.314712 
L 155.282353 131.314712 
L 155.282353 128.693473 
L 155.99657 128.693473 
L 155.99657 128.169225 
L 156.456757 128.169225 
L 156.456757 123.450996 
L 157.317795 123.450996 
L 157.317795 121.878253 
L 157.814465 121.878253 
L 157.814465 119.257014 
L 158.43267 119.257014 
L 158.522396 110.869051 
L 159.500826 110.869051 
L 159.500826 110.344803 
L 160.041774 110.344803 
L 160.041774 107.723564 
L 160.665279 107.723564 
L 160.665279 107.199317 
L 160.939622 107.199317 
L 160.939622 105.626573 
L 161.190511 105.626573 
L 161.266977 101.956839 
L 161.681572 101.956839 
L 161.681572 97.762858 
L 162.374969 97.762858 
L 162.374969 94.617371 
L 162.693915 94.617371 
L 162.693915 93.568876 
L 162.989808 93.568876 
L 163.075876 87.802151 
L 163.263722 87.802151 
L 163.263722 85.70516 
L 164.092633 85.70516 
L 164.092633 84.656665 
L 164.349667 84.656665 
L 164.349667 83.608169 
L 164.728158 83.608169 
L 164.728158 78.365692 
L 165.083228 78.365692 
L 165.144238 77.317197 
L 166.448594 77.317197 
L 166.448594 74.695958 
L 166.811698 74.695958 
L 166.811698 72.074719 
L 166.990415 72.074719 
L 166.990415 71.026224 
L 168.230229 71.026224 
L 168.230229 67.35649 
L 169.159109 67.35649 
L 169.159109 64.735251 
L 169.434201 64.735251 
L 169.434201 64.211004 
L 169.85614 64.211004 
L 169.85614 62.638261 
L 170.33567 62.638261 
L 170.33567 61.589765 
L 170.503742 61.589765 
L 170.503742 60.017022 
L 171.192247 60.017022 
L 171.299044 56.347288 
L 171.320324 56.347288 
L 171.320324 55.82304 
L 171.458006 55.82304 
L 171.458006 53.201802 
L 172.610525 53.201802 
L 172.610525 52.153306 
L 172.942714 52.153306 
L 172.942714 51.629058 
L 174.318349 51.629058 
L 174.318349 48.483572 
L 175.265486 48.483572 
L 175.307706 43.241095 
L 175.937021 43.241095 
L 175.937021 40.095609 
L 176.575493 40.095609 
L 176.575493 39.571361 
L 254.198943 39.571361 
L 254.306392 29.610654 
L 254.325701 29.610654 
L 254.372516 28.037911 
L 266.206488 28.037911 
L 266.206488 27.513663 
L 333.429677 27.513663 
L 333.429677 27.513663 
" style="fill:none;stroke:#6495ed;stroke-linecap:square;stroke-width:1.5;"/>
   </g>
   <g id="line2d_43">
    <defs>
     <path d="M -0 6 
L 6 -6 
L -6 -6 
z
" id="mede6b32fa5" style="stroke:#6495ed;stroke-linejoin:miter;stroke-width:1.5;"/>
    </defs>
    <g>
     <use style="fill-opacity:0;stroke:#6495ed;stroke-linejoin:miter;stroke-width:1.5;" x="110.43577" xlink:href="#mede6b32fa5" y="225.679301"/>
     <use style="fill-opacity:0;stroke:#6495ed;stroke-linejoin:miter;stroke-width:1.5;" x="158.43267" xlink:href="#mede6b32fa5" y="119.257014"/>
     <use style="fill-opacity:0;stroke:#6495ed;stroke-linejoin:miter;stroke-width:1.5;" x="176.575493" xlink:href="#mede6b32fa5" y="40.095609"/>
     <use style="fill-opacity:0;stroke:#6495ed;stroke-linejoin:miter;stroke-width:1.5;" x="266.206488" xlink:href="#mede6b32fa5" y="28.037911"/>
     <use style="fill-opacity:0;stroke:#6495ed;stroke-linejoin:miter;stroke-width:1.5;" x="266.206488" xlink:href="#mede6b32fa5" y="27.513663"/>
     <use style="fill-opacity:0;stroke:#6495ed;stroke-linejoin:miter;stroke-width:1.5;" x="333.429677" xlink:href="#mede6b32fa5" y="27.513663"/>
    </g>
   </g>
   <g id="line2d_44">
    <path style="fill:none;stroke:#6495ed;stroke-linecap:square;stroke-width:1.5;"/>
    <g/>
   </g>
   <g id="line2d_45">
    <path clip-path="url(#pfd01b17c04)" d="M 254.198341 39.571361 
" style="fill:none;stroke:#6495ed;stroke-linecap:square;stroke-width:1.5;"/>
    <defs>
     <path d="M -12 12 
L 12 -12 
M -12 -12 
L 12 12 
" id="m65b81c7db2" style="stroke:#6495ed;stroke-width:3;"/>
    </defs>
    <g clip-path="url(#pfd01b17c04)">
     <use style="fill:#6495ed;stroke:#6495ed;stroke-width:3;" x="254.198341" xlink:href="#m65b81c7db2" y="39.571361"/>
    </g>
   </g>
   <g id="line2d_46">
    <defs>
     <path d="M 0 1.5 
C 0.397805 1.5 0.77937 1.341951 1.06066 1.06066 
C 1.341951 0.77937 1.5 0.397805 1.5 0 
C 1.5 -0.397805 1.341951 -0.77937 1.06066 -1.06066 
C 0.77937 -1.341951 0.397805 -1.5 0 -1.5 
C -0.397805 -1.5 -0.77937 -1.341951 -1.06066 -1.06066 
C -1.341951 -0.77937 -1.5 -0.397805 -1.5 0 
C -1.5 0.397805 -1.341951 0.77937 -1.06066 1.06066 
C -0.77937 1.341951 -0.397805 1.5 0 1.5 
z
" id="mb20be7e349" style="stroke:#ff0000;"/>
    </defs>
    <g>
     <use style="fill:#ff0000;stroke:#ff0000;" x="180.798923" xlink:href="#mb20be7e349" y="27.513663"/>
     <use style="fill:#ff0000;stroke:#ff0000;" x="180.798923" xlink:href="#mb20be7e349" y="27.513663"/>
    </g>
   </g>
   <g id="line2d_47">
    <path d="M 44.194496 294.88 
L 44.194496 266.046375 
L 56.12 266.046375 
L 56.12 264.99788 
L 63.095973 264.99788 
L 63.095973 264.473632 
L 68.045504 264.473632 
L 68.045504 258.706907 
L 71.884659 258.706907 
L 71.884659 255.561421 
L 75.021477 255.561421 
L 75.021477 254.512926 
L 77.673619 254.512926 
L 77.673619 252.415935 
L 79.971009 252.415935 
L 79.971009 250.318944 
L 81.99745 250.318944 
L 81.99745 249.270448 
L 83.810164 249.270448 
L 83.810164 248.746201 
L 85.449963 248.746201 
L 85.449963 248.221953 
L 86.946982 248.221953 
L 86.946982 247.697705 
L 88.324106 247.697705 
L 88.324106 247.173458 
L 90.786137 247.173458 
L 90.786137 246.64921 
L 91.896513 246.64921 
L 91.896513 246.124962 
L 92.939552 246.124962 
L 92.939552 245.600714 
L 95.735668 245.600714 
L 95.735668 244.552219 
L 99.574823 244.552219 
L 99.574823 243.503724 
L 100.24961 243.503724 
L 100.24961 241.406733 
L 101.524628 241.406733 
L 101.524628 240.358237 
L 105.363783 240.358237 
L 105.363783 236.164255 
L 106.778678 236.164255 
L 106.778678 235.640008 
L 107.661173 235.640008 
L 107.661173 231.970274 
L 109.300972 231.970274 
L 109.300972 230.397531 
L 110.065758 230.397531 
L 110.065758 227.776292 
L 111.500328 227.776292 
L 111.500328 225.679301 
L 113.450132 225.679301 
L 113.450132 224.106558 
L 115.20129 224.106558 
L 115.20129 222.009567 
L 115.476574 222.009567 
L 115.476574 221.485319 
L 115.747522 221.485319 
L 115.747522 219.912576 
L 117.773963 219.912576 
L 117.773963 218.339833 
L 129.579573 218.339833 
L 129.579573 217.815585 
L 129.93678 217.815585 
L 129.93678 214.670099 
L 130.170864 214.670099 
L 130.170864 214.145851 
L 131.076592 214.145851 
L 131.076592 213.621604 
L 131.725909 213.621604 
L 131.725909 213.097356 
L 132.248894 213.097356 
L 132.35161 211.000365 
L 132.453716 211.000365 
L 132.453716 209.95187 
L 132.955351 209.95187 
L 132.955351 208.903374 
L 133.249459 208.903374 
L 133.346388 206.282136 
L 133.728734 206.282136 
L 133.823007 198.942667 
L 134.010019 198.942667 
L 134.010019 197.894172 
L 134.468842 197.894172 
L 134.468842 197.369924 
L 134.82729 197.369924 
L 134.82729 196.845677 
L 135.003752 196.845677 
L 135.003752 194.748686 
L 135.178422 194.748686 
L 135.178422 192.651695 
L 135.437146 192.651695 
L 135.437146 191.078952 
L 136.026124 191.078952 
L 136.026124 188.981961 
L 136.515394 188.981961 
L 136.515394 187.933465 
L 136.675441 187.933465 
L 136.675441 185.836474 
L 136.912753 185.836474 
L 136.912753 185.312227 
L 137.069162 185.312227 
L 137.069162 179.021254 
L 137.680955 179.021254 
L 137.680955 175.35152 
L 139.598531 175.35152 
L 139.598531 174.827272 
L 144.480724 174.827272 
L 144.531253 171.681786 
L 144.731895 171.681786 
L 144.731895 167.487804 
L 145.320153 167.487804 
L 145.320153 166.963557 
L 145.98196 166.963557 
L 145.98196 166.439309 
L 146.25798 166.439309 
L 146.25798 165.390813 
L 146.752794 165.390813 
L 146.752794 164.866566 
L 147.233775 164.866566 
L 147.233775 163.81807 
L 147.448035 163.81807 
L 147.532997 162.769575 
L 147.701674 162.769575 
L 147.701674 159.624089 
L 148.955697 159.624089 
L 148.955697 159.099841 
L 149.417601 159.099841 
L 149.417601 158.575593 
L 150.305791 158.575593 
L 150.413659 151.236125 
L 150.803487 151.236125 
L 150.803487 150.711877 
L 151.150371 150.711877 
L 151.150371 150.18763 
L 151.355193 150.18763 
L 151.456697 148.614886 
L 151.524035 148.614886 
L 151.524035 147.042143 
L 151.724483 147.042143 
L 151.823837 144.945152 
L 154.480696 144.945152 
L 154.480696 143.372409 
L 154.621605 143.372409 
L 154.677647 137.605684 
L 154.733507 137.605684 
L 154.733507 134.460198 
L 154.844686 134.460198 
L 154.844686 128.169225 
L 155.064911 128.169225 
L 155.064911 127.12073 
L 155.201134 127.12073 
L 155.255322 125.023739 
L 155.390052 125.023739 
L 155.44365 123.450996 
L 155.523735 123.450996 
L 155.523735 120.829757 
L 155.656386 120.829757 
L 155.682795 117.160023 
L 155.866525 117.160023 
L 155.918661 115.58728 
L 155.99657 115.58728 
L 156.099903 113.490289 
L 156.151337 113.490289 
L 156.176997 105.626573 
L 156.279255 105.626573 
L 156.380909 99.335601 
L 156.431512 99.335601 
L 156.431512 94.617371 
L 157.124751 94.617371 
L 157.173215 90.42339 
L 157.389632 90.42339 
L 157.389632 88.850646 
L 157.532411 88.850646 
L 157.626944 87.277903 
L 157.697504 87.277903 
L 157.697504 83.608169 
L 158.500008 83.608169 
L 158.544754 78.365692 
L 158.722584 78.365692 
L 158.832801 75.744454 
L 158.85476 75.744454 
L 158.876691 74.695958 
L 158.985929 74.695958 
L 159.029431 71.550472 
L 164.649989 71.550472 
L 164.696933 67.880738 
L 164.867972 67.880738 
L 164.929749 65.783747 
L 165.00666 65.783747 
L 165.052642 62.114013 
L 165.189854 62.114013 
L 165.280725 57.920031 
L 165.310909 57.920031 
L 165.310909 54.774545 
L 169.798153 54.774545 
L 169.90239 52.677554 
L 169.925468 52.677554 
L 169.960028 45.338086 
L 170.074727 45.338086 
L 170.165939 41.668352 
L 170.188667 41.668352 
L 170.290572 37.998618 
L 180.508408 37.998618 
L 180.60166 35.901627 
L 180.675899 35.901627 
L 180.762108 31.707645 
L 180.792793 31.707645 
L 180.798923 27.513663 
L 333.429677 27.513663 
L 333.429677 27.513663 
" style="fill:none;stroke:#ff0000;stroke-linecap:square;stroke-width:1.5;"/>
   </g>
   <g id="line2d_48">
    <defs>
     <path d="M 0 -6 
L -5.196152 -3 
L -5.196152 3 
L -0 6 
L 5.196152 3 
L 5.196152 -3 
z
" id="m1e7f6cba72" style="stroke:#ff0000;stroke-linejoin:miter;stroke-width:1.5;"/>
    </defs>
    <g>
     <use style="fill-opacity:0;stroke:#ff0000;stroke-linejoin:miter;stroke-width:1.5;" x="63.095973" xlink:href="#m1e7f6cba72" y="264.473632"/>
     <use style="fill-opacity:0;stroke:#ff0000;stroke-linejoin:miter;stroke-width:1.5;" x="135.437146" xlink:href="#m1e7f6cba72" y="192.651695"/>
     <use style="fill-opacity:0;stroke:#ff0000;stroke-linejoin:miter;stroke-width:1.5;" x="158.544754" xlink:href="#m1e7f6cba72" y="81.511178"/>
     <use style="fill-opacity:0;stroke:#ff0000;stroke-linejoin:miter;stroke-width:1.5;" x="180.798923" xlink:href="#m1e7f6cba72" y="30.65915"/>
     <use style="fill-opacity:0;stroke:#ff0000;stroke-linejoin:miter;stroke-width:1.5;" x="180.798923" xlink:href="#m1e7f6cba72" y="27.513663"/>
     <use style="fill-opacity:0;stroke:#ff0000;stroke-linejoin:miter;stroke-width:1.5;" x="333.429677" xlink:href="#m1e7f6cba72" y="27.513663"/>
    </g>
   </g>
   <g id="line2d_49">
    <path style="fill:none;stroke:#ff0000;stroke-linecap:square;stroke-width:1.5;"/>
    <g/>
   </g>
   <g id="line2d_50">
    <defs>
     <path d="M 0 1.5 
C 0.397805 1.5 0.77937 1.341951 1.06066 1.06066 
C 1.341951 0.77937 1.5 0.397805 1.5 0 
C 1.5 -0.397805 1.341951 -0.77937 1.06066 -1.06066 
C 0.77937 -1.341951 0.397805 -1.5 0 -1.5 
C -0.397805 -1.5 -0.77937 -1.341951 -1.06066 -1.06066 
C -1.341951 -0.77937 -1.5 -0.397805 -1.5 0 
C -1.5 0.397805 -1.341951 0.77937 -1.06066 1.06066 
C -0.77937 1.341951 -0.397805 1.5 0 1.5 
z
" id="m4c795e03ae" style="stroke:#9acd32;"/>
    </defs>
    <g>
     <use style="fill:#9acd32;stroke:#9acd32;" x="139.46359" xlink:href="#m4c795e03ae" y="231.970274"/>
     <use style="fill:#9acd32;stroke:#9acd32;" x="139.46359" xlink:href="#m4c795e03ae" y="231.970274"/>
    </g>
   </g>
   <g id="line2d_51">
    <path d="M 44.194496 294.88 
L 44.194496 268.143366 
L 56.12 268.143366 
L 56.12 264.99788 
L 63.095973 264.99788 
L 63.095973 258.18266 
L 68.045504 258.18266 
L 68.045504 256.085669 
L 71.884659 256.085669 
L 71.884659 253.988678 
L 75.021477 253.988678 
L 75.021477 252.415935 
L 79.971009 252.415935 
L 79.971009 250.843192 
L 81.99745 250.843192 
L 81.99745 249.794696 
L 85.449963 249.794696 
L 85.449963 248.221953 
L 86.946982 248.221953 
L 86.946982 247.697705 
L 89.599124 247.697705 
L 89.599124 246.124962 
L 93.922955 246.124962 
L 93.922955 245.600714 
L 98.140254 245.600714 
L 98.140254 245.076467 
L 106.778678 245.076467 
L 106.778678 243.503724 
L 108.086006 243.503724 
L 108.086006 242.979476 
L 109.300972 242.979476 
L 109.300972 242.455228 
L 110.43577 242.455228 
L 110.43577 241.93098 
L 113.450132 241.93098 
L 113.450132 240.882485 
L 117.533332 240.882485 
L 117.533332 240.358237 
L 118.245359 240.358237 
L 118.245359 239.309742 
L 119.586677 239.309742 
L 119.586677 238.785494 
L 120.220057 238.785494 
L 120.220057 237.212751 
L 121.991263 237.212751 
L 121.991263 235.640008 
L 123.078247 235.640008 
L 123.078247 235.11576 
L 127.673027 235.11576 
L 127.673027 234.591512 
L 128.842109 234.591512 
L 128.842109 234.067265 
L 129.93678 234.067265 
L 129.93678 233.543017 
L 133.728734 233.543017 
L 133.728734 232.494521 
L 139.46359 232.494521 
L 139.46359 231.970274 
L 333.429677 231.970274 
" style="fill:none;stroke:#9acd32;stroke-linecap:square;stroke-width:1.5;"/>
   </g>
   <g id="line2d_52">
    <defs>
     <path d="M 0 -6 
L -6 6 
L 6 6 
z
" id="m68fd92c0ce" style="stroke:#9acd32;stroke-linejoin:miter;stroke-width:1.5;"/>
    </defs>
    <g>
     <use style="fill-opacity:0;stroke:#9acd32;stroke-linejoin:miter;stroke-width:1.5;" x="75.021477" xlink:href="#m68fd92c0ce" y="253.988678"/>
     <use style="fill-opacity:0;stroke:#9acd32;stroke-linejoin:miter;stroke-width:1.5;" x="139.46359" xlink:href="#m68fd92c0ce" y="232.494521"/>
     <use style="fill-opacity:0;stroke:#9acd32;stroke-linejoin:miter;stroke-width:1.5;" x="139.46359" xlink:href="#m68fd92c0ce" y="232.494521"/>
     <use style="fill-opacity:0;stroke:#9acd32;stroke-linejoin:miter;stroke-width:1.5;" x="139.46359" xlink:href="#m68fd92c0ce" y="231.970274"/>
     <use style="fill-opacity:0;stroke:#9acd32;stroke-linejoin:miter;stroke-width:1.5;" x="139.46359" xlink:href="#m68fd92c0ce" y="231.970274"/>
     <use style="fill-opacity:0;stroke:#9acd32;stroke-linejoin:miter;stroke-width:1.5;" x="333.429677" xlink:href="#m68fd92c0ce" y="231.970274"/>
    </g>
   </g>
   <g id="line2d_53">
    <path style="fill:none;stroke:#9acd32;stroke-linecap:square;stroke-width:1.5;"/>
    <g/>
   </g>
   <g id="line2d_54">
    <path clip-path="url(#pfd01b17c04)" d="M 81.99745 249.794696 
" style="fill:none;stroke:#9acd32;stroke-linecap:square;stroke-width:1.5;"/>
    <defs>
     <path d="M -12 12 
L 12 -12 
M -12 -12 
L 12 12 
" id="m1710859396" style="stroke:#9acd32;stroke-width:3;"/>
    </defs>
    <g clip-path="url(#pfd01b17c04)">
     <use style="fill:#9acd32;stroke:#9acd32;stroke-width:3;" x="81.99745" xlink:href="#m1710859396" y="249.794696"/>
    </g>
   </g>
   <g id="line2d_55">
    <path d="M 333.429677 231.970274 
L 363.933742 289.532673 
" style="fill:none;stroke:#9acd32;stroke-linecap:square;stroke-width:1.5;"/>
    <g>
     <use style="fill-opacity:0;stroke:#9acd32;stroke-linejoin:miter;stroke-width:1.5;" x="333.429677" xlink:href="#m68fd92c0ce" y="231.970274"/>
     <use style="fill-opacity:0;stroke:#9acd32;stroke-linejoin:miter;stroke-width:1.5;" x="363.933742" xlink:href="#m68fd92c0ce" y="289.532673"/>
    </g>
   </g>
   <g id="line2d_56">
    <path d="M 333.429677 27.513663 
L 363.933742 246.754059 
" style="fill:none;stroke:#ffa500;stroke-linecap:square;stroke-width:1.5;"/>
    <g>
     <use style="fill-opacity:0;stroke:#ffa500;stroke-linejoin:bevel;stroke-width:1.5;" x="333.429677" xlink:href="#m2a58a23677" y="27.513663"/>
     <use style="fill-opacity:0;stroke:#ffa500;stroke-linejoin:bevel;stroke-width:1.5;" x="363.933742" xlink:href="#m2a58a23677" y="246.754059"/>
    </g>
   </g>
   <g id="line2d_57">
    <path d="M 333.429677 27.513663 
L 363.933742 203.975446 
" style="fill:none;stroke:#6495ed;stroke-linecap:square;stroke-width:1.5;"/>
    <g>
     <use style="fill-opacity:0;stroke:#6495ed;stroke-linejoin:miter;stroke-width:1.5;" x="333.429677" xlink:href="#mede6b32fa5" y="27.513663"/>
     <use style="fill-opacity:0;stroke:#6495ed;stroke-linejoin:miter;stroke-width:1.5;" x="363.933742" xlink:href="#mede6b32fa5" y="203.975446"/>
    </g>
   </g>
   <g id="line2d_58">
    <path d="M 333.429677 27.513663 
L 363.933742 161.196832 
" style="fill:none;stroke:#ff00ff;stroke-linecap:square;stroke-width:1.5;"/>
    <g>
     <use style="fill-opacity:0;stroke:#ff00ff;stroke-linejoin:miter;stroke-width:1.5;" x="333.429677" xlink:href="#m62a57649fe" y="27.513663"/>
     <use style="fill-opacity:0;stroke:#ff00ff;stroke-linejoin:miter;stroke-width:1.5;" x="363.933742" xlink:href="#m62a57649fe" y="161.196832"/>
    </g>
   </g>
   <g id="line2d_59">
    <path d="M 333.429677 27.513663 
L 363.933742 118.418218 
" style="fill:none;stroke:#000080;stroke-linecap:square;stroke-width:1.5;"/>
    <g>
     <use style="fill-opacity:0;stroke:#000080;stroke-width:1.5;" x="333.429677" xlink:href="#me5b11c9a3b" y="27.513663"/>
     <use style="fill-opacity:0;stroke:#000080;stroke-width:1.5;" x="363.933742" xlink:href="#me5b11c9a3b" y="118.418218"/>
    </g>
   </g>
   <g id="line2d_60">
    <path d="M 333.429677 27.513663 
L 363.933742 75.639604 
" style="fill:none;stroke:#ff0000;stroke-linecap:square;stroke-width:1.5;"/>
    <g>
     <use style="fill-opacity:0;stroke:#ff0000;stroke-linejoin:miter;stroke-width:1.5;" x="333.429677" xlink:href="#m1e7f6cba72" y="27.513663"/>
     <use style="fill-opacity:0;stroke:#ff0000;stroke-linejoin:miter;stroke-width:1.5;" x="363.933742" xlink:href="#m1e7f6cba72" y="75.639604"/>
    </g>
   </g>
   <g id="line2d_61">
    <path d="M 333.429677 294.88 
L 333.429677 27.513663 
" style="fill:none;stroke:#000000;stroke-linecap:square;stroke-width:1.5;"/>
   </g>
   <g id="patch_3">
    <path d="M 56.12 294.88 
L 56.12 24.84 
" style="fill:none;stroke:#000000;stroke-linecap:square;stroke-linejoin:miter;stroke-width:0.8;"/>
   </g>
   <g id="patch_4">
    <path d="M 399.984 294.88 
L 399.984 24.84 
" style="fill:none;stroke:#000000;stroke-linecap:square;stroke-linejoin:miter;stroke-width:0.8;"/>
   </g>
   <g id="patch_5">
    <path d="M 56.12 294.88 
L 399.984 294.88 
" style="fill:none;stroke:#000000;stroke-linecap:square;stroke-linejoin:miter;stroke-width:0.8;"/>
   </g>
   <g id="patch_6">
    <path d="M 56.12 24.84 
L 399.984 24.84 
" style="fill:none;stroke:#000000;stroke-linecap:square;stroke-linejoin:miter;stroke-width:0.8;"/>
   </g>
   <g id="text_14">
    <!-- gsa solve -->
    <g transform="translate(369.479935 294.223611)scale(0.17 -0.17)">
     <use xlink:href="#DejaVuSans-67"/>
     <use x="63.476562" xlink:href="#DejaVuSans-73"/>
     <use x="115.576172" xlink:href="#DejaVuSans-61"/>
     <use x="176.855469" xlink:href="#DejaVuSans-20"/>
     <use x="208.642578" xlink:href="#DejaVuSans-73"/>
     <use x="260.742188" xlink:href="#DejaVuSans-6f"/>
     <use x="321.923828" xlink:href="#DejaVuSans-6c"/>
     <use x="349.707031" xlink:href="#DejaVuSans-76"/>
     <use x="408.886719" xlink:href="#DejaVuSans-65"/>
    </g>
   </g>
   <g id="text_15">
    <!-- GA -->
    <defs>
     <path d="M 59.515625 10.40625 
L 59.515625 29.984375 
L 43.40625 29.984375 
L 43.40625 38.09375 
L 69.28125 38.09375 
L 69.28125 6.78125 
Q 63.578125 2.734375 56.6875 0.65625 
Q 49.8125 -1.421875 42 -1.421875 
Q 24.90625 -1.421875 15.25 8.5625 
Q 5.609375 18.5625 5.609375 36.375 
Q 5.609375 54.25 15.25 64.234375 
Q 24.90625 74.21875 42 74.21875 
Q 49.125 74.21875 55.546875 72.453125 
Q 61.96875 70.703125 67.390625 67.28125 
L 67.390625 56.78125 
Q 61.921875 61.421875 55.765625 63.765625 
Q 49.609375 66.109375 42.828125 66.109375 
Q 29.4375 66.109375 22.71875 58.640625 
Q 16.015625 51.171875 16.015625 36.375 
Q 16.015625 21.625 22.71875 14.15625 
Q 29.4375 6.6875 42.828125 6.6875 
Q 48.046875 6.6875 52.140625 7.59375 
Q 56.25 8.5 59.515625 10.40625 
z
" id="DejaVuSans-47"/>
     <path d="M 34.1875 63.1875 
L 20.796875 26.90625 
L 47.609375 26.90625 
z
M 28.609375 72.90625 
L 39.796875 72.90625 
L 67.578125 0 
L 57.328125 0 
L 50.6875 18.703125 
L 17.828125 18.703125 
L 11.1875 0 
L 0.78125 0 
z
" id="DejaVuSans-41"/>
    </defs>
    <g transform="translate(369.479935 251.444997)scale(0.17 -0.17)">
     <use xlink:href="#DejaVuSans-47"/>
     <use x="77.490234" xlink:href="#DejaVuSans-41"/>
    </g>
   </g>
   <g id="text_16">
    <!-- PSO -->
    <defs>
     <path d="M 19.671875 64.796875 
L 19.671875 37.40625 
L 32.078125 37.40625 
Q 38.96875 37.40625 42.71875 40.96875 
Q 46.484375 44.53125 46.484375 51.125 
Q 46.484375 57.671875 42.71875 61.234375 
Q 38.96875 64.796875 32.078125 64.796875 
z
M 9.8125 72.90625 
L 32.078125 72.90625 
Q 44.34375 72.90625 50.609375 67.359375 
Q 56.890625 61.8125 56.890625 51.125 
Q 56.890625 40.328125 50.609375 34.8125 
Q 44.34375 29.296875 32.078125 29.296875 
L 19.671875 29.296875 
L 19.671875 0 
L 9.8125 0 
z
" id="DejaVuSans-50"/>
     <path d="M 53.515625 70.515625 
L 53.515625 60.890625 
Q 47.90625 63.578125 42.921875 64.890625 
Q 37.9375 66.21875 33.296875 66.21875 
Q 25.25 66.21875 20.875 63.09375 
Q 16.5 59.96875 16.5 54.203125 
Q 16.5 49.359375 19.40625 46.890625 
Q 22.3125 44.4375 30.421875 42.921875 
L 36.375 41.703125 
Q 47.40625 39.59375 52.65625 34.296875 
Q 57.90625 29 57.90625 20.125 
Q 57.90625 9.515625 50.796875 4.046875 
Q 43.703125 -1.421875 29.984375 -1.421875 
Q 24.8125 -1.421875 18.96875 -0.25 
Q 13.140625 0.921875 6.890625 3.21875 
L 6.890625 13.375 
Q 12.890625 10.015625 18.65625 8.296875 
Q 24.421875 6.59375 29.984375 6.59375 
Q 38.421875 6.59375 43.015625 9.90625 
Q 47.609375 13.234375 47.609375 19.390625 
Q 47.609375 24.75 44.3125 27.78125 
Q 41.015625 30.8125 33.5 32.328125 
L 27.484375 33.5 
Q 16.453125 35.6875 11.515625 40.375 
Q 6.59375 45.0625 6.59375 53.421875 
Q 6.59375 63.09375 13.40625 68.65625 
Q 20.21875 74.21875 32.171875 74.21875 
Q 37.3125 74.21875 42.625 73.28125 
Q 47.953125 72.359375 53.515625 70.515625 
z
" id="DejaVuSans-53"/>
     <path d="M 39.40625 66.21875 
Q 28.65625 66.21875 22.328125 58.203125 
Q 16.015625 50.203125 16.015625 36.375 
Q 16.015625 22.609375 22.328125 14.59375 
Q 28.65625 6.59375 39.40625 6.59375 
Q 50.140625 6.59375 56.421875 14.59375 
Q 62.703125 22.609375 62.703125 36.375 
Q 62.703125 50.203125 56.421875 58.203125 
Q 50.140625 66.21875 39.40625 66.21875 
z
M 39.40625 74.21875 
Q 54.734375 74.21875 63.90625 63.9375 
Q 73.09375 53.65625 73.09375 36.375 
Q 73.09375 19.140625 63.90625 8.859375 
Q 54.734375 -1.421875 39.40625 -1.421875 
Q 24.03125 -1.421875 14.8125 8.828125 
Q 5.609375 19.09375 5.609375 36.375 
Q 5.609375 53.65625 14.8125 63.9375 
Q 24.03125 74.21875 39.40625 74.21875 
z
" id="DejaVuSans-4f"/>
    </defs>
    <g transform="translate(369.479935 208.666383)scale(0.17 -0.17)">
     <use xlink:href="#DejaVuSans-50"/>
     <use x="60.302734" xlink:href="#DejaVuSans-53"/>
     <use x="123.779297" xlink:href="#DejaVuSans-4f"/>
    </g>
   </g>
   <g id="text_17">
    <!-- DASA -->
    <defs>
     <path d="M 19.671875 64.796875 
L 19.671875 8.109375 
L 31.59375 8.109375 
Q 46.6875 8.109375 53.6875 14.9375 
Q 60.6875 21.78125 60.6875 36.53125 
Q 60.6875 51.171875 53.6875 57.984375 
Q 46.6875 64.796875 31.59375 64.796875 
z
M 9.8125 72.90625 
L 30.078125 72.90625 
Q 51.265625 72.90625 61.171875 64.09375 
Q 71.09375 55.28125 71.09375 36.53125 
Q 71.09375 17.671875 61.125 8.828125 
Q 51.171875 0 30.078125 0 
L 9.8125 0 
z
" id="DejaVuSans-44"/>
    </defs>
    <g transform="translate(369.479935 165.887769)scale(0.17 -0.17)">
     <use xlink:href="#DejaVuSans-44"/>
     <use x="76.986328" xlink:href="#DejaVuSans-41"/>
     <use x="145.394531" xlink:href="#DejaVuSans-53"/>
     <use x="208.886719" xlink:href="#DejaVuSans-41"/>
    </g>
   </g>
   <g id="text_18">
    <!-- ALPS -->
    <defs>
     <path d="M 9.8125 72.90625 
L 19.671875 72.90625 
L 19.671875 8.296875 
L 55.171875 8.296875 
L 55.171875 0 
L 9.8125 0 
z
" id="DejaVuSans-4c"/>
    </defs>
    <g transform="translate(369.479935 123.109155)scale(0.17 -0.17)">
     <use xlink:href="#DejaVuSans-41"/>
     <use x="68.408203" xlink:href="#DejaVuSans-4c"/>
     <use x="124.121094" xlink:href="#DejaVuSans-50"/>
     <use x="184.423828" xlink:href="#DejaVuSans-53"/>
    </g>
   </g>
   <g id="text_19">
    <!-- Rosenbroc -->
    <defs>
     <path d="M 44.390625 34.1875 
Q 47.5625 33.109375 50.5625 29.59375 
Q 53.5625 26.078125 56.59375 19.921875 
L 66.609375 0 
L 56 0 
L 46.6875 18.703125 
Q 43.0625 26.03125 39.671875 28.421875 
Q 36.28125 30.8125 30.421875 30.8125 
L 19.671875 30.8125 
L 19.671875 0 
L 9.8125 0 
L 9.8125 72.90625 
L 32.078125 72.90625 
Q 44.578125 72.90625 50.734375 67.671875 
Q 56.890625 62.453125 56.890625 51.90625 
Q 56.890625 45.015625 53.6875 40.46875 
Q 50.484375 35.9375 44.390625 34.1875 
z
M 19.671875 64.796875 
L 19.671875 38.921875 
L 32.078125 38.921875 
Q 39.203125 38.921875 42.84375 42.21875 
Q 46.484375 45.515625 46.484375 51.90625 
Q 46.484375 58.296875 42.84375 61.546875 
Q 39.203125 64.796875 32.078125 64.796875 
z
" id="DejaVuSans-52"/>
     <path d="M 48.6875 27.296875 
Q 48.6875 37.203125 44.609375 42.84375 
Q 40.53125 48.484375 33.40625 48.484375 
Q 26.265625 48.484375 22.1875 42.84375 
Q 18.109375 37.203125 18.109375 27.296875 
Q 18.109375 17.390625 22.1875 11.75 
Q 26.265625 6.109375 33.40625 6.109375 
Q 40.53125 6.109375 44.609375 11.75 
Q 48.6875 17.390625 48.6875 27.296875 
z
M 18.109375 46.390625 
Q 20.953125 51.265625 25.265625 53.625 
Q 29.59375 56 35.59375 56 
Q 45.5625 56 51.78125 48.09375 
Q 58.015625 40.1875 58.015625 27.296875 
Q 58.015625 14.40625 51.78125 6.484375 
Q 45.5625 -1.421875 35.59375 -1.421875 
Q 29.59375 -1.421875 25.265625 0.953125 
Q 20.953125 3.328125 18.109375 8.203125 
L 18.109375 0 
L 9.078125 0 
L 9.078125 75.984375 
L 18.109375 75.984375 
z
" id="DejaVuSans-62"/>
    </defs>
    <g transform="translate(369.479935 80.330541)scale(0.17 -0.17)">
     <use xlink:href="#DejaVuSans-52"/>
     <use x="69.419922" xlink:href="#DejaVuSans-6f"/>
     <use x="130.601562" xlink:href="#DejaVuSans-73"/>
     <use x="182.701172" xlink:href="#DejaVuSans-65"/>
     <use x="244.224609" xlink:href="#DejaVuSans-6e"/>
     <use x="307.603516" xlink:href="#DejaVuSans-62"/>
     <use x="371.080078" xlink:href="#DejaVuSans-72"/>
     <use x="412.162109" xlink:href="#DejaVuSans-6f"/>
     <use x="473.34375" xlink:href="#DejaVuSans-63"/>
    </g>
   </g>
   <g id="text_20">
    <!-- best 2009 -->
    <defs>
     <path d="M 10.984375 1.515625 
L 10.984375 10.5 
Q 14.703125 8.734375 18.5 7.8125 
Q 22.3125 6.890625 25.984375 6.890625 
Q 35.75 6.890625 40.890625 13.453125 
Q 46.046875 20.015625 46.78125 33.40625 
Q 43.953125 29.203125 39.59375 26.953125 
Q 35.25 24.703125 29.984375 24.703125 
Q 19.046875 24.703125 12.671875 31.3125 
Q 6.296875 37.9375 6.296875 49.421875 
Q 6.296875 60.640625 12.9375 67.421875 
Q 19.578125 74.21875 30.609375 74.21875 
Q 43.265625 74.21875 49.921875 64.515625 
Q 56.59375 54.828125 56.59375 36.375 
Q 56.59375 19.140625 48.40625 8.859375 
Q 40.234375 -1.421875 26.421875 -1.421875 
Q 22.703125 -1.421875 18.890625 -0.6875 
Q 15.09375 0.046875 10.984375 1.515625 
z
M 30.609375 32.421875 
Q 37.25 32.421875 41.125 36.953125 
Q 45.015625 41.5 45.015625 49.421875 
Q 45.015625 57.28125 41.125 61.84375 
Q 37.25 66.40625 30.609375 66.40625 
Q 23.96875 66.40625 20.09375 61.84375 
Q 16.21875 57.28125 16.21875 49.421875 
Q 16.21875 41.5 20.09375 36.953125 
Q 23.96875 32.421875 30.609375 32.421875 
z
" id="DejaVuSans-39"/>
    </defs>
    <g transform="translate(369.479935 37.551928)scale(0.17 -0.17)">
     <use xlink:href="#DejaVuSans-62"/>
     <use x="63.476562" xlink:href="#DejaVuSans-65"/>
     <use x="125" xlink:href="#DejaVuSans-73"/>
     <use x="177.099609" xlink:href="#DejaVuSans-74"/>
     <use x="216.308594" xlink:href="#DejaVuSans-20"/>
     <use x="248.095703" xlink:href="#DejaVuSans-32"/>
     <use x="311.71875" xlink:href="#DejaVuSans-30"/>
     <use x="375.341797" xlink:href="#DejaVuSans-30"/>
     <use x="438.964844" xlink:href="#DejaVuSans-39"/>
    </g>
   </g>
   <g id="text_21">
    <!-- bbob f21, 2-D -->
    <g transform="translate(59.55864 35.290806)scale(0.102 -0.102)">
     <use xlink:href="#DejaVuSans-62"/>
     <use x="63.476562" xlink:href="#DejaVuSans-62"/>
     <use x="126.953125" xlink:href="#DejaVuSans-6f"/>
     <use x="188.134766" xlink:href="#DejaVuSans-62"/>
     <use x="251.611328" xlink:href="#DejaVuSans-20"/>
     <use x="283.398438" xlink:href="#DejaVuSans-66"/>
     <use x="318.603516" xlink:href="#DejaVuSans-32"/>
     <use x="382.226562" xlink:href="#DejaVuSans-31"/>
     <use x="445.849609" xlink:href="#DejaVuSans-2c"/>
     <use x="477.636719" xlink:href="#DejaVuSans-20"/>
     <use x="509.423828" xlink:href="#DejaVuSans-32"/>
     <use x="573.046875" xlink:href="#DejaVuSans-2d"/>
     <use x="609.130859" xlink:href="#DejaVuSans-44"/>
    </g>
    <!-- 51 targets: 100..1e-08 -->
    <defs>
     <path d="M 10.796875 72.90625 
L 49.515625 72.90625 
L 49.515625 64.59375 
L 19.828125 64.59375 
L 19.828125 46.734375 
Q 21.96875 47.46875 24.109375 47.828125 
Q 26.265625 48.1875 28.421875 48.1875 
Q 40.625 48.1875 47.75 41.5 
Q 54.890625 34.8125 54.890625 23.390625 
Q 54.890625 11.625 47.5625 5.09375 
Q 40.234375 -1.421875 26.90625 -1.421875 
Q 22.3125 -1.421875 17.546875 -0.640625 
Q 12.796875 0.140625 7.71875 1.703125 
L 7.71875 11.625 
Q 12.109375 9.234375 16.796875 8.0625 
Q 21.484375 6.890625 26.703125 6.890625 
Q 35.15625 6.890625 40.078125 11.328125 
Q 45.015625 15.765625 45.015625 23.390625 
Q 45.015625 31 40.078125 35.4375 
Q 35.15625 39.890625 26.703125 39.890625 
Q 22.75 39.890625 18.8125 39.015625 
Q 14.890625 38.140625 10.796875 36.28125 
z
" id="DejaVuSans-35"/>
     <path d="M 11.71875 12.40625 
L 22.015625 12.40625 
L 22.015625 0 
L 11.71875 0 
z
M 11.71875 51.703125 
L 22.015625 51.703125 
L 22.015625 39.3125 
L 11.71875 39.3125 
z
" id="DejaVuSans-3a"/>
    </defs>
    <g transform="translate(59.55864 46.712575)scale(0.102 -0.102)">
     <use xlink:href="#DejaVuSans-35"/>
     <use x="63.623047" xlink:href="#DejaVuSans-31"/>
     <use x="127.246094" xlink:href="#DejaVuSans-20"/>
     <use x="159.033203" xlink:href="#DejaVuSans-74"/>
     <use x="198.242188" xlink:href="#DejaVuSans-61"/>
     <use x="259.521484" xlink:href="#DejaVuSans-72"/>
     <use x="300.619141" xlink:href="#DejaVuSans-67"/>
     <use x="364.095703" xlink:href="#DejaVuSans-65"/>
     <use x="425.619141" xlink:href="#DejaVuSans-74"/>
     <use x="464.828125" xlink:href="#DejaVuSans-73"/>
     <use x="516.927734" xlink:href="#DejaVuSans-3a"/>
     <use x="550.619141" xlink:href="#DejaVuSans-20"/>
     <use x="582.40625" xlink:href="#DejaVuSans-31"/>
     <use x="646.029297" xlink:href="#DejaVuSans-30"/>
     <use x="709.652344" xlink:href="#DejaVuSans-30"/>
     <use x="773.275391" xlink:href="#DejaVuSans-2e"/>
     <use x="805.0625" xlink:href="#DejaVuSans-2e"/>
     <use x="836.849609" xlink:href="#DejaVuSans-31"/>
     <use x="900.472656" xlink:href="#DejaVuSans-65"/>
     <use x="961.996094" xlink:href="#DejaVuSans-2d"/>
     <use x="998.080078" xlink:href="#DejaVuSans-30"/>
     <use x="1061.703125" xlink:href="#DejaVuSans-38"/>
    </g>
    <!-- 15 instances -->
    <g transform="translate(59.55864 58.134344)scale(0.102 -0.102)">
     <use xlink:href="#DejaVuSans-31"/>
     <use x="63.623047" xlink:href="#DejaVuSans-35"/>
     <use x="127.246094" xlink:href="#DejaVuSans-20"/>
     <use x="159.033203" xlink:href="#DejaVuSans-69"/>
     <use x="186.816406" xlink:href="#DejaVuSans-6e"/>
     <use x="250.195312" xlink:href="#DejaVuSans-73"/>
     <use x="302.294922" xlink:href="#DejaVuSans-74"/>
     <use x="341.503906" xlink:href="#DejaVuSans-61"/>
     <use x="402.783203" xlink:href="#DejaVuSans-6e"/>
     <use x="466.162109" xlink:href="#DejaVuSans-63"/>
     <use x="521.142578" xlink:href="#DejaVuSans-65"/>
     <use x="582.666016" xlink:href="#DejaVuSans-73"/>
    </g>
   </g>
   <g id="text_22">
    <!-- v-coco-version -->
    <g style="fill:#808080;" transform="translate(191.556688 290.099912)scale(0.1 -0.1)">
     <use xlink:href="#DejaVuSans-76"/>
     <use x="59.148438" xlink:href="#DejaVuSans-2d"/>
     <use x="95.232422" xlink:href="#DejaVuSans-63"/>
     <use x="150.212891" xlink:href="#DejaVuSans-6f"/>
     <use x="211.394531" xlink:href="#DejaVuSans-63"/>
     <use x="266.375" xlink:href="#DejaVuSans-6f"/>
     <use x="327.572266" xlink:href="#DejaVuSans-2d"/>
     <use x="363.625" xlink:href="#DejaVuSans-76"/>
     <use x="422.804688" xlink:href="#DejaVuSans-65"/>
     <use x="484.328125" xlink:href="#DejaVuSans-72"/>
     <use x="525.441406" xlink:href="#DejaVuSans-73"/>
     <use x="577.541016" xlink:href="#DejaVuSans-69"/>
     <use x="605.324219" xlink:href="#DejaVuSans-6f"/>
     <use x="666.505859" xlink:href="#DejaVuSans-6e"/>
    </g>
   </g>
   <g id="text_23">
    <!-- 21 Gallagher 101 peaks -->
    <defs>
     <path d="M 54.890625 33.015625 
L 54.890625 0 
L 45.90625 0 
L 45.90625 32.71875 
Q 45.90625 40.484375 42.875 44.328125 
Q 39.84375 48.1875 33.796875 48.1875 
Q 26.515625 48.1875 22.3125 43.546875 
Q 18.109375 38.921875 18.109375 30.90625 
L 18.109375 0 
L 9.078125 0 
L 9.078125 75.984375 
L 18.109375 75.984375 
L 18.109375 46.1875 
Q 21.34375 51.125 25.703125 53.5625 
Q 30.078125 56 35.796875 56 
Q 45.21875 56 50.046875 50.171875 
Q 54.890625 44.34375 54.890625 33.015625 
z
" id="DejaVuSans-68"/>
     <path d="M 9.078125 75.984375 
L 18.109375 75.984375 
L 18.109375 31.109375 
L 44.921875 54.6875 
L 56.390625 54.6875 
L 27.390625 29.109375 
L 57.625 0 
L 45.90625 0 
L 18.109375 26.703125 
L 18.109375 0 
L 9.078125 0 
z
" id="DejaVuSans-6b"/>
    </defs>
    <g transform="translate(108.5645 18.84)scale(0.2 -0.2)">
     <use xlink:href="#DejaVuSans-32"/>
     <use x="63.623047" xlink:href="#DejaVuSans-31"/>
     <use x="127.246094" xlink:href="#DejaVuSans-20"/>
     <use x="159.033203" xlink:href="#DejaVuSans-47"/>
     <use x="236.523438" xlink:href="#DejaVuSans-61"/>
     <use x="297.802734" xlink:href="#DejaVuSans-6c"/>
     <use x="325.585938" xlink:href="#DejaVuSans-6c"/>
     <use x="353.369141" xlink:href="#DejaVuSans-61"/>
     <use x="414.648438" xlink:href="#DejaVuSans-67"/>
     <use x="478.125" xlink:href="#DejaVuSans-68"/>
     <use x="541.503906" xlink:href="#DejaVuSans-65"/>
     <use x="603.027344" xlink:href="#DejaVuSans-72"/>
     <use x="644.140625" xlink:href="#DejaVuSans-20"/>
     <use x="675.927734" xlink:href="#DejaVuSans-31"/>
     <use x="739.550781" xlink:href="#DejaVuSans-30"/>
     <use x="803.173828" xlink:href="#DejaVuSans-31"/>
     <use x="866.796875" xlink:href="#DejaVuSans-20"/>
     <use x="898.583984" xlink:href="#DejaVuSans-70"/>
     <use x="962.060547" xlink:href="#DejaVuSans-65"/>
     <use x="1023.583984" xlink:href="#DejaVuSans-61"/>
     <use x="1084.863281" xlink:href="#DejaVuSans-6b"/>
     <use x="1142.773438" xlink:href="#DejaVuSans-73"/>
    </g>
   </g>
  </g>
 </g>
 <defs>
  <clipPath id="pfd01b17c04">
   <rect height="270.04" width="343.864" x="56.12" y="24.84"/>
  </clipPath>
 </defs>
</svg>
