<?xml version="1.0" encoding="utf-8" standalone="no"?>
<!DOCTYPE svg PUBLIC "-//W3C//DTD SVG 1.1//EN"
  "http://www.w3.org/Graphics/SVG/1.1/DTD/svg11.dtd">
<!-- Created with matplotlib (http://matplotlib.org/) -->
<svg height="345.6pt" version="1.1" viewBox="0 0 460.8 345.6" width="460.8pt" xmlns="http://www.w3.org/2000/svg" xmlns:xlink="http://www.w3.org/1999/xlink">
 <defs>
  <style type="text/css">
*{stroke-linecap:butt;stroke-linejoin:round;}
  </style>
 </defs>
 <g id="figure_1">
  <g id="patch_1">
   <path d="M 0 345.6 
L 460.8 345.6 
L 460.8 0 
L 0 0 
z
" style="fill:#ffffff;"/>
  </g>
  <g id="axes_1">
   <g id="patch_2">
    <path d="M 56.12 294.88 
L 399.984 294.88 
L 399.984 24.84 
L 56.12 24.84 
z
" style="fill:#ffffff;"/>
   </g>
   <g id="line2d_1">
    <path d="M 64.20635 294.88 
L 64.20635 289.637523 
L 67.16301 289.637523 
L 67.16301 284.395046 
L 68.045504 284.395046 
L 68.045504 27.513663 
L 333.429677 27.513663 
" style="fill:none;stroke:#f5deb3;stroke-linecap:square;stroke-width:6;"/>
   </g>
   <g id="line2d_2">
    <defs>
     <path d="M -0 7.778175 
L 7.778175 0 
L 0 -7.778175 
L -7.778175 -0 
z
" id="mdcc3670e9a" style="stroke:#f5deb3;stroke-linejoin:miter;stroke-width:1.5;"/>
    </defs>
    <g>
     <use style="fill:#f5deb3;stroke:#f5deb3;stroke-linejoin:miter;stroke-width:1.5;" x="67.16301" xlink:href="#mdcc3670e9a" y="284.395046"/>
     <use style="fill:#f5deb3;stroke:#f5deb3;stroke-linejoin:miter;stroke-width:1.5;" x="68.045504" xlink:href="#mdcc3670e9a" y="284.395046"/>
     <use style="fill:#f5deb3;stroke:#f5deb3;stroke-linejoin:miter;stroke-width:1.5;" x="68.045504" xlink:href="#mdcc3670e9a" y="27.513663"/>
     <use style="fill:#f5deb3;stroke:#f5deb3;stroke-linejoin:miter;stroke-width:1.5;" x="68.045504" xlink:href="#mdcc3670e9a" y="27.513663"/>
     <use style="fill:#f5deb3;stroke:#f5deb3;stroke-linejoin:miter;stroke-width:1.5;" x="333.429677" xlink:href="#mdcc3670e9a" y="27.513663"/>
    </g>
   </g>
   <g id="line2d_3">
    <path style="fill:none;stroke:#f5deb3;stroke-linecap:square;stroke-width:6;"/>
    <g/>
   </g>
   <g id="line2d_4">
    <path d="M 333.429677 27.513663 
L 363.933742 32.86099 
" style="fill:none;stroke:#f5deb3;stroke-linecap:square;stroke-width:6;"/>
    <g>
     <use style="fill:#f5deb3;stroke:#f5deb3;stroke-linejoin:miter;stroke-width:1.5;" x="333.429677" xlink:href="#mdcc3670e9a" y="27.513663"/>
     <use style="fill:#f5deb3;stroke:#f5deb3;stroke-linejoin:miter;stroke-width:1.5;" x="363.933742" xlink:href="#mdcc3670e9a" y="32.86099"/>
    </g>
   </g>
   <g id="matplotlib.axis_1">
    <g id="xtick_1">
     <g id="line2d_5">
      <path clip-path="url(#peb3aad94ce)" d="M 56.12 294.88 
L 56.12 24.84 
" style="fill:none;stroke:#b0b0b0;stroke-linecap:square;stroke-width:0.8;"/>
     </g>
     <g id="line2d_6">
      <defs>
       <path d="M 0 0 
L 0 3.5 
" id="m9da98c8fff" style="stroke:#000000;stroke-width:0.8;"/>
      </defs>
      <g>
       <use style="stroke:#000000;stroke-width:0.8;" x="56.12" xlink:href="#m9da98c8fff" y="294.88"/>
      </g>
     </g>
     <g id="text_1">
      <!-- 0 -->
      <defs>
       <path d="M 31.78125 66.40625 
Q 24.171875 66.40625 20.328125 58.90625 
Q 16.5 51.421875 16.5 36.375 
Q 16.5 21.390625 20.328125 13.890625 
Q 24.171875 6.390625 31.78125 6.390625 
Q 39.453125 6.390625 43.28125 13.890625 
Q 47.125 21.390625 47.125 36.375 
Q 47.125 51.421875 43.28125 58.90625 
Q 39.453125 66.40625 31.78125 66.40625 
z
M 31.78125 74.21875 
Q 44.046875 74.21875 50.515625 64.515625 
Q 56.984375 54.828125 56.984375 36.375 
Q 56.984375 17.96875 50.515625 8.265625 
Q 44.046875 -1.421875 31.78125 -1.421875 
Q 19.53125 -1.421875 13.0625 8.265625 
Q 6.59375 17.96875 6.59375 36.375 
Q 6.59375 54.828125 13.0625 64.515625 
Q 19.53125 74.21875 31.78125 74.21875 
z
" id="DejaVuSans-30"/>
      </defs>
      <g transform="translate(49.7575 317.076875)scale(0.2 -0.2)">
       <use xlink:href="#DejaVuSans-30"/>
      </g>
     </g>
    </g>
    <g id="xtick_2">
     <g id="line2d_7">
      <path clip-path="url(#peb3aad94ce)" d="M 135.351336 294.88 
L 135.351336 24.84 
" style="fill:none;stroke:#b0b0b0;stroke-linecap:square;stroke-width:0.8;"/>
     </g>
     <g id="line2d_8">
      <g>
       <use style="stroke:#000000;stroke-width:0.8;" x="135.351336" xlink:href="#m9da98c8fff" y="294.88"/>
      </g>
     </g>
     <g id="text_2">
      <!-- 2 -->
      <defs>
       <path d="M 19.1875 8.296875 
L 53.609375 8.296875 
L 53.609375 0 
L 7.328125 0 
L 7.328125 8.296875 
Q 12.9375 14.109375 22.625 23.890625 
Q 32.328125 33.6875 34.8125 36.53125 
Q 39.546875 41.84375 41.421875 45.53125 
Q 43.3125 49.21875 43.3125 52.78125 
Q 43.3125 58.59375 39.234375 62.25 
Q 35.15625 65.921875 28.609375 65.921875 
Q 23.96875 65.921875 18.8125 64.3125 
Q 13.671875 62.703125 7.8125 59.421875 
L 7.8125 69.390625 
Q 13.765625 71.78125 18.9375 73 
Q 24.125 74.21875 28.421875 74.21875 
Q 39.75 74.21875 46.484375 68.546875 
Q 53.21875 62.890625 53.21875 53.421875 
Q 53.21875 48.921875 51.53125 44.890625 
Q 49.859375 40.875 45.40625 35.40625 
Q 44.1875 33.984375 37.640625 27.21875 
Q 31.109375 20.453125 19.1875 8.296875 
z
" id="DejaVuSans-32"/>
      </defs>
      <g transform="translate(128.988836 317.076875)scale(0.2 -0.2)">
       <use xlink:href="#DejaVuSans-32"/>
      </g>
     </g>
    </g>
    <g id="xtick_3">
     <g id="line2d_9">
      <path clip-path="url(#peb3aad94ce)" d="M 214.582673 294.88 
L 214.582673 24.84 
" style="fill:none;stroke:#b0b0b0;stroke-linecap:square;stroke-width:0.8;"/>
     </g>
     <g id="line2d_10">
      <g>
       <use style="stroke:#000000;stroke-width:0.8;" x="214.582673" xlink:href="#m9da98c8fff" y="294.88"/>
      </g>
     </g>
     <g id="text_3">
      <!-- 4 -->
      <defs>
       <path d="M 37.796875 64.3125 
L 12.890625 25.390625 
L 37.796875 25.390625 
z
M 35.203125 72.90625 
L 47.609375 72.90625 
L 47.609375 25.390625 
L 58.015625 25.390625 
L 58.015625 17.1875 
L 47.609375 17.1875 
L 47.609375 0 
L 37.796875 0 
L 37.796875 17.1875 
L 4.890625 17.1875 
L 4.890625 26.703125 
z
" id="DejaVuSans-34"/>
      </defs>
      <g transform="translate(208.220173 317.076875)scale(0.2 -0.2)">
       <use xlink:href="#DejaVuSans-34"/>
      </g>
     </g>
    </g>
    <g id="xtick_4">
     <g id="line2d_11">
      <path clip-path="url(#peb3aad94ce)" d="M 293.814009 294.88 
L 293.814009 24.84 
" style="fill:none;stroke:#b0b0b0;stroke-linecap:square;stroke-width:0.8;"/>
     </g>
     <g id="line2d_12">
      <g>
       <use style="stroke:#000000;stroke-width:0.8;" x="293.814009" xlink:href="#m9da98c8fff" y="294.88"/>
      </g>
     </g>
     <g id="text_4">
      <!-- 6 -->
      <defs>
       <path d="M 33.015625 40.375 
Q 26.375 40.375 22.484375 35.828125 
Q 18.609375 31.296875 18.609375 23.390625 
Q 18.609375 15.53125 22.484375 10.953125 
Q 26.375 6.390625 33.015625 6.390625 
Q 39.65625 6.390625 43.53125 10.953125 
Q 47.40625 15.53125 47.40625 23.390625 
Q 47.40625 31.296875 43.53125 35.828125 
Q 39.65625 40.375 33.015625 40.375 
z
M 52.59375 71.296875 
L 52.59375 62.3125 
Q 48.875 64.0625 45.09375 64.984375 
Q 41.3125 65.921875 37.59375 65.921875 
Q 27.828125 65.921875 22.671875 59.328125 
Q 17.53125 52.734375 16.796875 39.40625 
Q 19.671875 43.65625 24.015625 45.921875 
Q 28.375 48.1875 33.59375 48.1875 
Q 44.578125 48.1875 50.953125 41.515625 
Q 57.328125 34.859375 57.328125 23.390625 
Q 57.328125 12.15625 50.6875 5.359375 
Q 44.046875 -1.421875 33.015625 -1.421875 
Q 20.359375 -1.421875 13.671875 8.265625 
Q 6.984375 17.96875 6.984375 36.375 
Q 6.984375 53.65625 15.1875 63.9375 
Q 23.390625 74.21875 37.203125 74.21875 
Q 40.921875 74.21875 44.703125 73.484375 
Q 48.484375 72.75 52.59375 71.296875 
z
" id="DejaVuSans-36"/>
      </defs>
      <g transform="translate(287.451509 317.076875)scale(0.2 -0.2)">
       <use xlink:href="#DejaVuSans-36"/>
      </g>
     </g>
    </g>
    <g id="xtick_5">
     <g id="line2d_13">
      <path clip-path="url(#peb3aad94ce)" d="M 373.045346 294.88 
L 373.045346 24.84 
" style="fill:none;stroke:#b0b0b0;stroke-linecap:square;stroke-width:0.8;"/>
     </g>
     <g id="line2d_14">
      <g>
       <use style="stroke:#000000;stroke-width:0.8;" x="373.045346" xlink:href="#m9da98c8fff" y="294.88"/>
      </g>
     </g>
     <g id="text_5">
      <!-- 8 -->
      <defs>
       <path d="M 31.78125 34.625 
Q 24.75 34.625 20.71875 30.859375 
Q 16.703125 27.09375 16.703125 20.515625 
Q 16.703125 13.921875 20.71875 10.15625 
Q 24.75 6.390625 31.78125 6.390625 
Q 38.8125 6.390625 42.859375 10.171875 
Q 46.921875 13.96875 46.921875 20.515625 
Q 46.921875 27.09375 42.890625 30.859375 
Q 38.875 34.625 31.78125 34.625 
z
M 21.921875 38.8125 
Q 15.578125 40.375 12.03125 44.71875 
Q 8.5 49.078125 8.5 55.328125 
Q 8.5 64.0625 14.71875 69.140625 
Q 20.953125 74.21875 31.78125 74.21875 
Q 42.671875 74.21875 48.875 69.140625 
Q 55.078125 64.0625 55.078125 55.328125 
Q 55.078125 49.078125 51.53125 44.71875 
Q 48 40.375 41.703125 38.8125 
Q 48.828125 37.15625 52.796875 32.3125 
Q 56.78125 27.484375 56.78125 20.515625 
Q 56.78125 9.90625 50.3125 4.234375 
Q 43.84375 -1.421875 31.78125 -1.421875 
Q 19.734375 -1.421875 13.25 4.234375 
Q 6.78125 9.90625 6.78125 20.515625 
Q 6.78125 27.484375 10.78125 32.3125 
Q 14.796875 37.15625 21.921875 38.8125 
z
M 18.3125 54.390625 
Q 18.3125 48.734375 21.84375 45.5625 
Q 25.390625 42.390625 31.78125 42.390625 
Q 38.140625 42.390625 41.71875 45.5625 
Q 45.3125 48.734375 45.3125 54.390625 
Q 45.3125 60.0625 41.71875 63.234375 
Q 38.140625 66.40625 31.78125 66.40625 
Q 25.390625 66.40625 21.84375 63.234375 
Q 18.3125 60.0625 18.3125 54.390625 
z
" id="DejaVuSans-38"/>
      </defs>
      <g transform="translate(366.682846 317.076875)scale(0.2 -0.2)">
       <use xlink:href="#DejaVuSans-38"/>
      </g>
     </g>
    </g>
    <g id="text_6">
     <!-- log10(# f-evals / dimension) -->
     <defs>
      <path d="M 9.421875 75.984375 
L 18.40625 75.984375 
L 18.40625 0 
L 9.421875 0 
z
" id="DejaVuSans-6c"/>
      <path d="M 30.609375 48.390625 
Q 23.390625 48.390625 19.1875 42.75 
Q 14.984375 37.109375 14.984375 27.296875 
Q 14.984375 17.484375 19.15625 11.84375 
Q 23.34375 6.203125 30.609375 6.203125 
Q 37.796875 6.203125 41.984375 11.859375 
Q 46.1875 17.53125 46.1875 27.296875 
Q 46.1875 37.015625 41.984375 42.703125 
Q 37.796875 48.390625 30.609375 48.390625 
z
M 30.609375 56 
Q 42.328125 56 49.015625 48.375 
Q 55.71875 40.765625 55.71875 27.296875 
Q 55.71875 13.875 49.015625 6.21875 
Q 42.328125 -1.421875 30.609375 -1.421875 
Q 18.84375 -1.421875 12.171875 6.21875 
Q 5.515625 13.875 5.515625 27.296875 
Q 5.515625 40.765625 12.171875 48.375 
Q 18.84375 56 30.609375 56 
z
" id="DejaVuSans-6f"/>
      <path d="M 45.40625 27.984375 
Q 45.40625 37.75 41.375 43.109375 
Q 37.359375 48.484375 30.078125 48.484375 
Q 22.859375 48.484375 18.828125 43.109375 
Q 14.796875 37.75 14.796875 27.984375 
Q 14.796875 18.265625 18.828125 12.890625 
Q 22.859375 7.515625 30.078125 7.515625 
Q 37.359375 7.515625 41.375 12.890625 
Q 45.40625 18.265625 45.40625 27.984375 
z
M 54.390625 6.78125 
Q 54.390625 -7.171875 48.1875 -13.984375 
Q 42 -20.796875 29.203125 -20.796875 
Q 24.46875 -20.796875 20.265625 -20.09375 
Q 16.0625 -19.390625 12.109375 -17.921875 
L 12.109375 -9.1875 
Q 16.0625 -11.328125 19.921875 -12.34375 
Q 23.78125 -13.375 27.78125 -13.375 
Q 36.625 -13.375 41.015625 -8.765625 
Q 45.40625 -4.15625 45.40625 5.171875 
L 45.40625 9.625 
Q 42.625 4.78125 38.28125 2.390625 
Q 33.9375 0 27.875 0 
Q 17.828125 0 11.671875 7.65625 
Q 5.515625 15.328125 5.515625 27.984375 
Q 5.515625 40.671875 11.671875 48.328125 
Q 17.828125 56 27.875 56 
Q 33.9375 56 38.28125 53.609375 
Q 42.625 51.21875 45.40625 46.390625 
L 45.40625 54.6875 
L 54.390625 54.6875 
z
" id="DejaVuSans-67"/>
      <path d="M 12.40625 8.296875 
L 28.515625 8.296875 
L 28.515625 63.921875 
L 10.984375 60.40625 
L 10.984375 69.390625 
L 28.421875 72.90625 
L 38.28125 72.90625 
L 38.28125 8.296875 
L 54.390625 8.296875 
L 54.390625 0 
L 12.40625 0 
z
" id="DejaVuSans-31"/>
      <path d="M 31 75.875 
Q 24.46875 64.65625 21.28125 53.65625 
Q 18.109375 42.671875 18.109375 31.390625 
Q 18.109375 20.125 21.3125 9.0625 
Q 24.515625 -2 31 -13.1875 
L 23.1875 -13.1875 
Q 15.875 -1.703125 12.234375 9.375 
Q 8.59375 20.453125 8.59375 31.390625 
Q 8.59375 42.28125 12.203125 53.3125 
Q 15.828125 64.359375 23.1875 75.875 
z
" id="DejaVuSans-28"/>
      <path d="M 51.125 44 
L 36.921875 44 
L 32.8125 27.6875 
L 47.125 27.6875 
z
M 43.796875 71.78125 
L 38.71875 51.515625 
L 52.984375 51.515625 
L 58.109375 71.78125 
L 65.921875 71.78125 
L 60.890625 51.515625 
L 76.125 51.515625 
L 76.125 44 
L 58.984375 44 
L 54.984375 27.6875 
L 70.515625 27.6875 
L 70.515625 20.21875 
L 53.078125 20.21875 
L 48 0 
L 40.1875 0 
L 45.21875 20.21875 
L 30.90625 20.21875 
L 25.875 0 
L 18.015625 0 
L 23.09375 20.21875 
L 7.71875 20.21875 
L 7.71875 27.6875 
L 24.90625 27.6875 
L 29 44 
L 13.28125 44 
L 13.28125 51.515625 
L 30.90625 51.515625 
L 35.890625 71.78125 
z
" id="DejaVuSans-23"/>
      <path id="DejaVuSans-20"/>
      <path d="M 37.109375 75.984375 
L 37.109375 68.5 
L 28.515625 68.5 
Q 23.6875 68.5 21.796875 66.546875 
Q 19.921875 64.59375 19.921875 59.515625 
L 19.921875 54.6875 
L 34.71875 54.6875 
L 34.71875 47.703125 
L 19.921875 47.703125 
L 19.921875 0 
L 10.890625 0 
L 10.890625 47.703125 
L 2.296875 47.703125 
L 2.296875 54.6875 
L 10.890625 54.6875 
L 10.890625 58.5 
Q 10.890625 67.625 15.140625 71.796875 
Q 19.390625 75.984375 28.609375 75.984375 
z
" id="DejaVuSans-66"/>
      <path d="M 4.890625 31.390625 
L 31.203125 31.390625 
L 31.203125 23.390625 
L 4.890625 23.390625 
z
" id="DejaVuSans-2d"/>
      <path d="M 56.203125 29.59375 
L 56.203125 25.203125 
L 14.890625 25.203125 
Q 15.484375 15.921875 20.484375 11.0625 
Q 25.484375 6.203125 34.421875 6.203125 
Q 39.59375 6.203125 44.453125 7.46875 
Q 49.3125 8.734375 54.109375 11.28125 
L 54.109375 2.78125 
Q 49.265625 0.734375 44.1875 -0.34375 
Q 39.109375 -1.421875 33.890625 -1.421875 
Q 20.796875 -1.421875 13.15625 6.1875 
Q 5.515625 13.8125 5.515625 26.8125 
Q 5.515625 40.234375 12.765625 48.109375 
Q 20.015625 56 32.328125 56 
Q 43.359375 56 49.78125 48.890625 
Q 56.203125 41.796875 56.203125 29.59375 
z
M 47.21875 32.234375 
Q 47.125 39.59375 43.09375 43.984375 
Q 39.0625 48.390625 32.421875 48.390625 
Q 24.90625 48.390625 20.390625 44.140625 
Q 15.875 39.890625 15.1875 32.171875 
z
" id="DejaVuSans-65"/>
      <path d="M 2.984375 54.6875 
L 12.5 54.6875 
L 29.59375 8.796875 
L 46.6875 54.6875 
L 56.203125 54.6875 
L 35.6875 0 
L 23.484375 0 
z
" id="DejaVuSans-76"/>
      <path d="M 34.28125 27.484375 
Q 23.390625 27.484375 19.1875 25 
Q 14.984375 22.515625 14.984375 16.5 
Q 14.984375 11.71875 18.140625 8.90625 
Q 21.296875 6.109375 26.703125 6.109375 
Q 34.1875 6.109375 38.703125 11.40625 
Q 43.21875 16.703125 43.21875 25.484375 
L 43.21875 27.484375 
z
M 52.203125 31.203125 
L 52.203125 0 
L 43.21875 0 
L 43.21875 8.296875 
Q 40.140625 3.328125 35.546875 0.953125 
Q 30.953125 -1.421875 24.3125 -1.421875 
Q 15.921875 -1.421875 10.953125 3.296875 
Q 6 8.015625 6 15.921875 
Q 6 25.140625 12.171875 29.828125 
Q 18.359375 34.515625 30.609375 34.515625 
L 43.21875 34.515625 
L 43.21875 35.40625 
Q 43.21875 41.609375 39.140625 45 
Q 35.0625 48.390625 27.6875 48.390625 
Q 23 48.390625 18.546875 47.265625 
Q 14.109375 46.140625 10.015625 43.890625 
L 10.015625 52.203125 
Q 14.9375 54.109375 19.578125 55.046875 
Q 24.21875 56 28.609375 56 
Q 40.484375 56 46.34375 49.84375 
Q 52.203125 43.703125 52.203125 31.203125 
z
" id="DejaVuSans-61"/>
      <path d="M 44.28125 53.078125 
L 44.28125 44.578125 
Q 40.484375 46.53125 36.375 47.5 
Q 32.28125 48.484375 27.875 48.484375 
Q 21.1875 48.484375 17.84375 46.4375 
Q 14.5 44.390625 14.5 40.28125 
Q 14.5 37.15625 16.890625 35.375 
Q 19.28125 33.59375 26.515625 31.984375 
L 29.59375 31.296875 
Q 39.15625 29.25 43.1875 25.515625 
Q 47.21875 21.78125 47.21875 15.09375 
Q 47.21875 7.46875 41.1875 3.015625 
Q 35.15625 -1.421875 24.609375 -1.421875 
Q 20.21875 -1.421875 15.453125 -0.5625 
Q 10.6875 0.296875 5.421875 2 
L 5.421875 11.28125 
Q 10.40625 8.6875 15.234375 7.390625 
Q 20.0625 6.109375 24.8125 6.109375 
Q 31.15625 6.109375 34.5625 8.28125 
Q 37.984375 10.453125 37.984375 14.40625 
Q 37.984375 18.0625 35.515625 20.015625 
Q 33.0625 21.96875 24.703125 23.78125 
L 21.578125 24.515625 
Q 13.234375 26.265625 9.515625 29.90625 
Q 5.8125 33.546875 5.8125 39.890625 
Q 5.8125 47.609375 11.28125 51.796875 
Q 16.75 56 26.8125 56 
Q 31.78125 56 36.171875 55.265625 
Q 40.578125 54.546875 44.28125 53.078125 
z
" id="DejaVuSans-73"/>
      <path d="M 25.390625 72.90625 
L 33.6875 72.90625 
L 8.296875 -9.28125 
L 0 -9.28125 
z
" id="DejaVuSans-2f"/>
      <path d="M 45.40625 46.390625 
L 45.40625 75.984375 
L 54.390625 75.984375 
L 54.390625 0 
L 45.40625 0 
L 45.40625 8.203125 
Q 42.578125 3.328125 38.25 0.953125 
Q 33.9375 -1.421875 27.875 -1.421875 
Q 17.96875 -1.421875 11.734375 6.484375 
Q 5.515625 14.40625 5.515625 27.296875 
Q 5.515625 40.1875 11.734375 48.09375 
Q 17.96875 56 27.875 56 
Q 33.9375 56 38.25 53.625 
Q 42.578125 51.265625 45.40625 46.390625 
z
M 14.796875 27.296875 
Q 14.796875 17.390625 18.875 11.75 
Q 22.953125 6.109375 30.078125 6.109375 
Q 37.203125 6.109375 41.296875 11.75 
Q 45.40625 17.390625 45.40625 27.296875 
Q 45.40625 37.203125 41.296875 42.84375 
Q 37.203125 48.484375 30.078125 48.484375 
Q 22.953125 48.484375 18.875 42.84375 
Q 14.796875 37.203125 14.796875 27.296875 
z
" id="DejaVuSans-64"/>
      <path d="M 9.421875 54.6875 
L 18.40625 54.6875 
L 18.40625 0 
L 9.421875 0 
z
M 9.421875 75.984375 
L 18.40625 75.984375 
L 18.40625 64.59375 
L 9.421875 64.59375 
z
" id="DejaVuSans-69"/>
      <path d="M 52 44.1875 
Q 55.375 50.25 60.0625 53.125 
Q 64.75 56 71.09375 56 
Q 79.640625 56 84.28125 50.015625 
Q 88.921875 44.046875 88.921875 33.015625 
L 88.921875 0 
L 79.890625 0 
L 79.890625 32.71875 
Q 79.890625 40.578125 77.09375 44.375 
Q 74.3125 48.1875 68.609375 48.1875 
Q 61.625 48.1875 57.5625 43.546875 
Q 53.515625 38.921875 53.515625 30.90625 
L 53.515625 0 
L 44.484375 0 
L 44.484375 32.71875 
Q 44.484375 40.625 41.703125 44.40625 
Q 38.921875 48.1875 33.109375 48.1875 
Q 26.21875 48.1875 22.15625 43.53125 
Q 18.109375 38.875 18.109375 30.90625 
L 18.109375 0 
L 9.078125 0 
L 9.078125 54.6875 
L 18.109375 54.6875 
L 18.109375 46.1875 
Q 21.1875 51.21875 25.484375 53.609375 
Q 29.78125 56 35.6875 56 
Q 41.65625 56 45.828125 52.96875 
Q 50 49.953125 52 44.1875 
z
" id="DejaVuSans-6d"/>
      <path d="M 54.890625 33.015625 
L 54.890625 0 
L 45.90625 0 
L 45.90625 32.71875 
Q 45.90625 40.484375 42.875 44.328125 
Q 39.84375 48.1875 33.796875 48.1875 
Q 26.515625 48.1875 22.3125 43.546875 
Q 18.109375 38.921875 18.109375 30.90625 
L 18.109375 0 
L 9.078125 0 
L 9.078125 54.6875 
L 18.109375 54.6875 
L 18.109375 46.1875 
Q 21.34375 51.125 25.703125 53.5625 
Q 30.078125 56 35.796875 56 
Q 45.21875 56 50.046875 50.171875 
Q 54.890625 44.34375 54.890625 33.015625 
z
" id="DejaVuSans-6e"/>
      <path d="M 8.015625 75.875 
L 15.828125 75.875 
Q 23.140625 64.359375 26.78125 53.3125 
Q 30.421875 42.28125 30.421875 31.390625 
Q 30.421875 20.453125 26.78125 9.375 
Q 23.140625 -1.703125 15.828125 -13.1875 
L 8.015625 -13.1875 
Q 14.5 -2 17.703125 9.0625 
Q 20.90625 20.125 20.90625 31.390625 
Q 20.90625 42.671875 17.703125 53.65625 
Q 14.5 64.65625 8.015625 75.875 
z
" id="DejaVuSans-29"/>
     </defs>
     <g transform="translate(107.211219 338.153594)scale(0.17 -0.17)">
      <use xlink:href="#DejaVuSans-6c"/>
      <use x="27.783203" xlink:href="#DejaVuSans-6f"/>
      <use x="88.964844" xlink:href="#DejaVuSans-67"/>
      <use x="152.441406" xlink:href="#DejaVuSans-31"/>
      <use x="216.064453" xlink:href="#DejaVuSans-30"/>
      <use x="279.6875" xlink:href="#DejaVuSans-28"/>
      <use x="318.701172" xlink:href="#DejaVuSans-23"/>
      <use x="402.490234" xlink:href="#DejaVuSans-20"/>
      <use x="434.277344" xlink:href="#DejaVuSans-66"/>
      <use x="469.404297" xlink:href="#DejaVuSans-2d"/>
      <use x="505.488281" xlink:href="#DejaVuSans-65"/>
      <use x="567.011719" xlink:href="#DejaVuSans-76"/>
      <use x="626.191406" xlink:href="#DejaVuSans-61"/>
      <use x="687.470703" xlink:href="#DejaVuSans-6c"/>
      <use x="715.253906" xlink:href="#DejaVuSans-73"/>
      <use x="767.353516" xlink:href="#DejaVuSans-20"/>
      <use x="799.140625" xlink:href="#DejaVuSans-2f"/>
      <use x="832.832031" xlink:href="#DejaVuSans-20"/>
      <use x="864.619141" xlink:href="#DejaVuSans-64"/>
      <use x="928.095703" xlink:href="#DejaVuSans-69"/>
      <use x="955.878906" xlink:href="#DejaVuSans-6d"/>
      <use x="1053.291016" xlink:href="#DejaVuSans-65"/>
      <use x="1114.814453" xlink:href="#DejaVuSans-6e"/>
      <use x="1178.193359" xlink:href="#DejaVuSans-73"/>
      <use x="1230.292969" xlink:href="#DejaVuSans-69"/>
      <use x="1258.076172" xlink:href="#DejaVuSans-6f"/>
      <use x="1319.257812" xlink:href="#DejaVuSans-6e"/>
      <use x="1382.636719" xlink:href="#DejaVuSans-29"/>
     </g>
    </g>
   </g>
   <g id="matplotlib.axis_2">
    <g id="ytick_1">
     <g id="line2d_15">
      <path clip-path="url(#peb3aad94ce)" d="M 56.12 294.88 
L 399.984 294.88 
" style="fill:none;stroke:#b0b0b0;stroke-linecap:square;stroke-width:0.8;"/>
     </g>
     <g id="line2d_16">
      <defs>
       <path d="M 0 0 
L -3.5 0 
" id="m506c7ee515" style="stroke:#000000;stroke-width:0.8;"/>
      </defs>
      <g>
       <use style="stroke:#000000;stroke-width:0.8;" x="56.12" xlink:href="#m506c7ee515" y="294.88"/>
      </g>
     </g>
     <g id="text_7">
      <!-- 0.0 -->
      <defs>
       <path d="M 10.6875 12.40625 
L 21 12.40625 
L 21 0 
L 10.6875 0 
z
" id="DejaVuSans-2e"/>
      </defs>
      <g transform="translate(23.675 300.95875)scale(0.16 -0.16)">
       <use xlink:href="#DejaVuSans-30"/>
       <use x="63.623047" xlink:href="#DejaVuSans-2e"/>
       <use x="95.410156" xlink:href="#DejaVuSans-30"/>
      </g>
     </g>
    </g>
    <g id="ytick_2">
     <g id="line2d_17">
      <path clip-path="url(#peb3aad94ce)" d="M 56.12 241.406733 
L 399.984 241.406733 
" style="fill:none;stroke:#b0b0b0;stroke-linecap:square;stroke-width:0.8;"/>
     </g>
     <g id="line2d_18">
      <g>
       <use style="stroke:#000000;stroke-width:0.8;" x="56.12" xlink:href="#m506c7ee515" y="241.406733"/>
      </g>
     </g>
     <g id="text_8">
      <!-- 0.2 -->
      <g transform="translate(23.675 247.485483)scale(0.16 -0.16)">
       <use xlink:href="#DejaVuSans-30"/>
       <use x="63.623047" xlink:href="#DejaVuSans-2e"/>
       <use x="95.410156" xlink:href="#DejaVuSans-32"/>
      </g>
     </g>
    </g>
    <g id="ytick_3">
     <g id="line2d_19">
      <path clip-path="url(#peb3aad94ce)" d="M 56.12 187.933465 
L 399.984 187.933465 
" style="fill:none;stroke:#b0b0b0;stroke-linecap:square;stroke-width:0.8;"/>
     </g>
     <g id="line2d_20">
      <g>
       <use style="stroke:#000000;stroke-width:0.8;" x="56.12" xlink:href="#m506c7ee515" y="187.933465"/>
      </g>
     </g>
     <g id="text_9">
      <!-- 0.4 -->
      <g transform="translate(23.675 194.012215)scale(0.16 -0.16)">
       <use xlink:href="#DejaVuSans-30"/>
       <use x="63.623047" xlink:href="#DejaVuSans-2e"/>
       <use x="95.410156" xlink:href="#DejaVuSans-34"/>
      </g>
     </g>
    </g>
    <g id="ytick_4">
     <g id="line2d_21">
      <path clip-path="url(#peb3aad94ce)" d="M 56.12 134.460198 
L 399.984 134.460198 
" style="fill:none;stroke:#b0b0b0;stroke-linecap:square;stroke-width:0.8;"/>
     </g>
     <g id="line2d_22">
      <g>
       <use style="stroke:#000000;stroke-width:0.8;" x="56.12" xlink:href="#m506c7ee515" y="134.460198"/>
      </g>
     </g>
     <g id="text_10">
      <!-- 0.6 -->
      <g transform="translate(23.675 140.538948)scale(0.16 -0.16)">
       <use xlink:href="#DejaVuSans-30"/>
       <use x="63.623047" xlink:href="#DejaVuSans-2e"/>
       <use x="95.410156" xlink:href="#DejaVuSans-36"/>
      </g>
     </g>
    </g>
    <g id="ytick_5">
     <g id="line2d_23">
      <path clip-path="url(#peb3aad94ce)" d="M 56.12 80.986931 
L 399.984 80.986931 
" style="fill:none;stroke:#b0b0b0;stroke-linecap:square;stroke-width:0.8;"/>
     </g>
     <g id="line2d_24">
      <g>
       <use style="stroke:#000000;stroke-width:0.8;" x="56.12" xlink:href="#m506c7ee515" y="80.986931"/>
      </g>
     </g>
     <g id="text_11">
      <!-- 0.8 -->
      <g transform="translate(23.675 87.065681)scale(0.16 -0.16)">
       <use xlink:href="#DejaVuSans-30"/>
       <use x="63.623047" xlink:href="#DejaVuSans-2e"/>
       <use x="95.410156" xlink:href="#DejaVuSans-38"/>
      </g>
     </g>
    </g>
    <g id="ytick_6">
     <g id="line2d_25">
      <path clip-path="url(#peb3aad94ce)" d="M 56.12 27.513663 
L 399.984 27.513663 
" style="fill:none;stroke:#b0b0b0;stroke-linecap:square;stroke-width:0.8;"/>
     </g>
     <g id="line2d_26">
      <g>
       <use style="stroke:#000000;stroke-width:0.8;" x="56.12" xlink:href="#m506c7ee515" y="27.513663"/>
      </g>
     </g>
     <g id="text_12">
      <!-- 1.0 -->
      <g transform="translate(23.675 33.592413)scale(0.16 -0.16)">
       <use xlink:href="#DejaVuSans-31"/>
       <use x="63.623047" xlink:href="#DejaVuSans-2e"/>
       <use x="95.410156" xlink:href="#DejaVuSans-30"/>
      </g>
     </g>
    </g>
    <g id="text_13">
     <!-- Fraction of function,target pairs -->
     <defs>
      <path d="M 9.8125 72.90625 
L 51.703125 72.90625 
L 51.703125 64.59375 
L 19.671875 64.59375 
L 19.671875 43.109375 
L 48.578125 43.109375 
L 48.578125 34.8125 
L 19.671875 34.8125 
L 19.671875 0 
L 9.8125 0 
z
" id="DejaVuSans-46"/>
      <path d="M 41.109375 46.296875 
Q 39.59375 47.171875 37.8125 47.578125 
Q 36.03125 48 33.890625 48 
Q 26.265625 48 22.1875 43.046875 
Q 18.109375 38.09375 18.109375 28.8125 
L 18.109375 0 
L 9.078125 0 
L 9.078125 54.6875 
L 18.109375 54.6875 
L 18.109375 46.1875 
Q 20.953125 51.171875 25.484375 53.578125 
Q 30.03125 56 36.53125 56 
Q 37.453125 56 38.578125 55.875 
Q 39.703125 55.765625 41.0625 55.515625 
z
" id="DejaVuSans-72"/>
      <path d="M 48.78125 52.59375 
L 48.78125 44.1875 
Q 44.96875 46.296875 41.140625 47.34375 
Q 37.3125 48.390625 33.40625 48.390625 
Q 24.65625 48.390625 19.8125 42.84375 
Q 14.984375 37.3125 14.984375 27.296875 
Q 14.984375 17.28125 19.8125 11.734375 
Q 24.65625 6.203125 33.40625 6.203125 
Q 37.3125 6.203125 41.140625 7.25 
Q 44.96875 8.296875 48.78125 10.40625 
L 48.78125 2.09375 
Q 45.015625 0.34375 40.984375 -0.53125 
Q 36.96875 -1.421875 32.421875 -1.421875 
Q 20.0625 -1.421875 12.78125 6.34375 
Q 5.515625 14.109375 5.515625 27.296875 
Q 5.515625 40.671875 12.859375 48.328125 
Q 20.21875 56 33.015625 56 
Q 37.15625 56 41.109375 55.140625 
Q 45.0625 54.296875 48.78125 52.59375 
z
" id="DejaVuSans-63"/>
      <path d="M 18.3125 70.21875 
L 18.3125 54.6875 
L 36.8125 54.6875 
L 36.8125 47.703125 
L 18.3125 47.703125 
L 18.3125 18.015625 
Q 18.3125 11.328125 20.140625 9.421875 
Q 21.96875 7.515625 27.59375 7.515625 
L 36.8125 7.515625 
L 36.8125 0 
L 27.59375 0 
Q 17.1875 0 13.234375 3.875 
Q 9.28125 7.765625 9.28125 18.015625 
L 9.28125 47.703125 
L 2.6875 47.703125 
L 2.6875 54.6875 
L 9.28125 54.6875 
L 9.28125 70.21875 
z
" id="DejaVuSans-74"/>
      <path d="M 8.5 21.578125 
L 8.5 54.6875 
L 17.484375 54.6875 
L 17.484375 21.921875 
Q 17.484375 14.15625 20.5 10.265625 
Q 23.53125 6.390625 29.59375 6.390625 
Q 36.859375 6.390625 41.078125 11.03125 
Q 45.3125 15.671875 45.3125 23.6875 
L 45.3125 54.6875 
L 54.296875 54.6875 
L 54.296875 0 
L 45.3125 0 
L 45.3125 8.40625 
Q 42.046875 3.421875 37.71875 1 
Q 33.40625 -1.421875 27.6875 -1.421875 
Q 18.265625 -1.421875 13.375 4.4375 
Q 8.5 10.296875 8.5 21.578125 
z
M 31.109375 56 
z
" id="DejaVuSans-75"/>
      <path d="M 11.71875 12.40625 
L 22.015625 12.40625 
L 22.015625 4 
L 14.015625 -11.625 
L 7.71875 -11.625 
L 11.71875 4 
z
" id="DejaVuSans-2c"/>
      <path d="M 18.109375 8.203125 
L 18.109375 -20.796875 
L 9.078125 -20.796875 
L 9.078125 54.6875 
L 18.109375 54.6875 
L 18.109375 46.390625 
Q 20.953125 51.265625 25.265625 53.625 
Q 29.59375 56 35.59375 56 
Q 45.5625 56 51.78125 48.09375 
Q 58.015625 40.1875 58.015625 27.296875 
Q 58.015625 14.40625 51.78125 6.484375 
Q 45.5625 -1.421875 35.59375 -1.421875 
Q 29.59375 -1.421875 25.265625 0.953125 
Q 20.953125 3.328125 18.109375 8.203125 
z
M 48.6875 27.296875 
Q 48.6875 37.203125 44.609375 42.84375 
Q 40.53125 48.484375 33.40625 48.484375 
Q 26.265625 48.484375 22.1875 42.84375 
Q 18.109375 37.203125 18.109375 27.296875 
Q 18.109375 17.390625 22.1875 11.75 
Q 26.265625 6.109375 33.40625 6.109375 
Q 40.53125 6.109375 44.609375 11.75 
Q 48.6875 17.390625 48.6875 27.296875 
z
" id="DejaVuSans-70"/>
     </defs>
     <g transform="translate(16.139531 294.999375)rotate(-90)scale(0.17 -0.17)">
      <use xlink:href="#DejaVuSans-46"/>
      <use x="57.410156" xlink:href="#DejaVuSans-72"/>
      <use x="98.523438" xlink:href="#DejaVuSans-61"/>
      <use x="159.802734" xlink:href="#DejaVuSans-63"/>
      <use x="214.783203" xlink:href="#DejaVuSans-74"/>
      <use x="253.992188" xlink:href="#DejaVuSans-69"/>
      <use x="281.775391" xlink:href="#DejaVuSans-6f"/>
      <use x="342.957031" xlink:href="#DejaVuSans-6e"/>
      <use x="406.335938" xlink:href="#DejaVuSans-20"/>
      <use x="438.123047" xlink:href="#DejaVuSans-6f"/>
      <use x="499.304688" xlink:href="#DejaVuSans-66"/>
      <use x="534.509766" xlink:href="#DejaVuSans-20"/>
      <use x="566.296875" xlink:href="#DejaVuSans-66"/>
      <use x="601.501953" xlink:href="#DejaVuSans-75"/>
      <use x="664.880859" xlink:href="#DejaVuSans-6e"/>
      <use x="728.259766" xlink:href="#DejaVuSans-63"/>
      <use x="783.240234" xlink:href="#DejaVuSans-74"/>
      <use x="822.449219" xlink:href="#DejaVuSans-69"/>
      <use x="850.232422" xlink:href="#DejaVuSans-6f"/>
      <use x="911.414062" xlink:href="#DejaVuSans-6e"/>
      <use x="974.792969" xlink:href="#DejaVuSans-2c"/>
      <use x="1006.580078" xlink:href="#DejaVuSans-74"/>
      <use x="1045.789062" xlink:href="#DejaVuSans-61"/>
      <use x="1107.068359" xlink:href="#DejaVuSans-72"/>
      <use x="1148.166016" xlink:href="#DejaVuSans-67"/>
      <use x="1211.642578" xlink:href="#DejaVuSans-65"/>
      <use x="1273.166016" xlink:href="#DejaVuSans-74"/>
      <use x="1312.375" xlink:href="#DejaVuSans-20"/>
      <use x="1344.162109" xlink:href="#DejaVuSans-70"/>
      <use x="1407.638672" xlink:href="#DejaVuSans-61"/>
      <use x="1468.917969" xlink:href="#DejaVuSans-69"/>
      <use x="1496.701172" xlink:href="#DejaVuSans-72"/>
      <use x="1537.814453" xlink:href="#DejaVuSans-73"/>
     </g>
    </g>
   </g>
   <g id="line2d_27">
    <defs>
     <path d="M 0 1.5 
C 0.397805 1.5 0.77937 1.341951 1.06066 1.06066 
C 1.341951 0.77937 1.5 0.397805 1.5 0 
C 1.5 -0.397805 1.341951 -0.77937 1.06066 -1.06066 
C 0.77937 -1.341951 0.397805 -1.5 0 -1.5 
C -0.397805 -1.5 -0.77937 -1.341951 -1.06066 -1.06066 
C -1.341951 -0.77937 -1.5 -0.397805 -1.5 0 
C -1.5 0.397805 -1.341951 0.77937 -1.06066 1.06066 
C -0.77937 1.341951 -0.397805 1.5 0 1.5 
z
" id="m58eeb718f0" style="stroke:#f5deb3;"/>
    </defs>
    <g>
     <use style="fill:#f5deb3;stroke:#f5deb3;" x="68.045504" xlink:href="#m58eeb718f0" y="27.513663"/>
     <use style="fill:#f5deb3;stroke:#f5deb3;" x="68.045504" xlink:href="#m58eeb718f0" y="27.513663"/>
    </g>
   </g>
   <g id="line2d_28">
    <defs>
     <path d="M 0 1.5 
C 0.397805 1.5 0.77937 1.341951 1.06066 1.06066 
C 1.341951 0.77937 1.5 0.397805 1.5 0 
C 1.5 -0.397805 1.341951 -0.77937 1.06066 -1.06066 
C 0.77937 -1.341951 0.397805 -1.5 0 -1.5 
C -0.397805 -1.5 -0.77937 -1.341951 -1.06066 -1.06066 
C -1.341951 -0.77937 -1.5 -0.397805 -1.5 0 
C -1.5 0.397805 -1.341951 0.77937 -1.06066 1.06066 
C -0.77937 1.341951 -0.397805 1.5 0 1.5 
z
" id="me7f7528312" style="stroke:#000080;"/>
    </defs>
    <g>
     <use style="fill:#000080;stroke:#000080;" x="171.400949" xlink:href="#me7f7528312" y="27.513663"/>
     <use style="fill:#000080;stroke:#000080;" x="171.400949" xlink:href="#me7f7528312" y="27.513663"/>
    </g>
   </g>
   <g id="line2d_29">
    <path d="M 16.504332 294.88 
L 16.504332 294.355752 
L 81.610808 294.355752 
L 81.610808 293.831505 
L 87.78641 293.831505 
L 87.78641 292.783009 
L 91.238922 292.783009 
L 91.238922 291.734514 
L 97.989992 291.734514 
L 97.989992 290.686018 
L 107.401145 290.686018 
L 107.401145 290.161771 
L 112.632197 290.161771 
L 112.632197 289.637523 
L 119.457154 289.637523 
L 119.457154 289.113275 
L 122.795033 289.113275 
L 122.795033 288.06478 
L 124.87691 288.06478 
L 124.87691 287.540532 
L 125.890157 287.540532 
L 125.890157 287.016284 
L 126.18578 287.016284 
L 126.18578 286.492036 
L 127.319955 286.492036 
L 127.319955 285.967789 
L 128.435475 285.967789 
L 128.435475 285.443541 
L 128.690745 285.443541 
L 128.690745 284.919293 
L 129.239353 284.919293 
L 129.312825 283.870798 
L 130.355864 283.870798 
L 130.355864 283.34655 
L 133.268888 283.34655 
L 133.268888 282.298055 
L 134.648999 282.298055 
L 134.648999 281.773807 
L 135.65827 281.773807 
L 135.65827 281.249559 
L 136.125097 281.249559 
L 136.125097 280.201064 
L 136.515394 280.201064 
L 136.515394 279.676816 
L 137.115809 279.676816 
L 137.115809 279.152568 
L 140.514596 279.152568 
L 140.514596 278.628321 
L 142.177551 278.628321 
L 142.177551 277.579825 
L 143.318994 277.579825 
L 143.318994 277.055578 
L 144.246364 277.055578 
L 144.246364 276.53133 
L 144.791634 276.53133 
L 144.791634 275.482834 
L 145.568948 275.482834 
L 145.568948 274.958587 
L 146.19397 274.958587 
L 146.19397 273.385844 
L 147.095235 273.385844 
L 147.199244 271.8131 
L 147.625974 271.8131 
L 147.625974 269.716109 
L 147.802092 269.716109 
L 147.852082 268.667614 
L 148.327974 268.667614 
L 148.327974 268.143366 
L 149.955998 268.143366 
L 149.955998 267.619119 
L 150.189982 267.619119 
L 150.189982 267.094871 
L 150.44231 267.094871 
L 150.44231 266.570623 
L 150.662751 266.570623 
L 150.71214 264.99788 
L 151.530755 264.99788 
L 151.530755 263.949385 
L 151.975075 263.949385 
L 151.975075 262.900889 
L 152.4401 262.900889 
L 152.4401 262.376641 
L 152.667983 262.376641 
L 152.768303 259.755403 
L 152.805772 259.755403 
L 152.805772 259.231155 
L 153.39445 259.231155 
L 153.39445 258.706907 
L 153.981137 258.706907 
L 153.981137 243.503724 
L 154.195368 243.503724 
L 154.298632 241.406733 
L 154.367132 241.406733 
L 154.367132 240.882485 
L 154.531556 240.882485 
L 154.531556 238.785494 
L 154.778065 238.785494 
L 154.778065 238.261246 
L 155.075849 238.261246 
L 155.075849 237.736999 
L 156.022461 237.736999 
L 156.079286 236.164255 
L 156.212857 236.164255 
L 156.314902 234.067265 
L 156.350476 234.067265 
L 156.350476 233.018769 
L 156.914784 233.018769 
L 156.914784 231.970274 
L 157.389632 231.970274 
L 157.389632 231.446026 
L 157.589193 231.446026 
L 157.62223 218.339833 
L 157.800471 218.339833 
L 157.800471 217.815585 
L 158.17892 217.815585 
L 158.269975 216.76709 
L 158.414669 216.76709 
L 158.414669 215.194347 
L 158.881074 215.194347 
L 158.964137 205.757888 
L 159.094477 205.757888 
L 159.103132 203.660897 
L 159.292435 203.660897 
L 159.399072 201.039658 
L 159.441543 201.039658 
L 159.441543 199.466915 
L 159.601982 199.466915 
L 159.631374 191.603199 
L 159.765102 191.603199 
L 159.765102 190.554704 
L 160.078602 190.554704 
L 160.078602 177.972759 
L 160.196737 177.972759 
L 160.285818 171.157538 
L 160.390505 171.157538 
L 160.402544 169.584795 
L 160.502537 169.584795 
L 160.597988 168.012052 
L 160.853871 168.012052 
L 160.927954 166.439309 
L 161.434016 166.439309 
L 161.520691 141.799666 
L 161.576983 141.799666 
L 161.576983 138.129932 
L 161.991578 138.129932 
L 162.093685 118.208519 
L 162.270925 118.208519 
L 162.270925 117.160023 
L 162.665803 117.160023 
L 162.686891 116.111528 
L 162.809396 116.111528 
L 162.809396 113.490289 
L 163.22972 113.490289 
L 163.22972 107.199317 
L 163.372078 107.199317 
L 163.372078 103.005335 
L 163.746039 103.005335 
L 163.746039 99.335601 
L 163.952874 99.335601 
L 163.952874 97.762858 
L 164.87416 97.762858 
L 164.87416 89.899142 
L 165.730961 89.899142 
L 165.821953 66.832242 
L 166.195514 66.832242 
L 166.195514 65.259499 
L 166.349512 65.259499 
L 166.383548 58.444279 
L 167.576604 58.444279 
L 167.576604 48.483572 
L 167.692534 48.483572 
L 167.718772 41.144104 
L 168.387306 41.144104 
L 168.42761 39.571361 
L 169.851508 39.571361 
L 169.851508 37.998618 
L 170.008295 37.998618 
L 170.008295 33.280388 
L 171.400949 33.280388 
L 171.400949 27.513663 
L 333.429677 27.513663 
L 333.429677 27.513663 
" style="fill:none;stroke:#000080;stroke-linecap:square;stroke-width:1.5;"/>
   </g>
   <g id="line2d_30">
    <defs>
     <path d="M 0 6 
C 1.591219 6 3.117479 5.367802 4.242641 4.242641 
C 5.367802 3.117479 6 1.591219 6 0 
C 6 -1.591219 5.367802 -3.117479 4.242641 -4.242641 
C 3.117479 -5.367802 1.591219 -6 0 -6 
C -1.591219 -6 -3.117479 -5.367802 -4.242641 -4.242641 
C -5.367802 -3.117479 -6 -1.591219 -6 0 
C -6 1.591219 -5.367802 3.117479 -4.242641 4.242641 
C -3.117479 5.367802 -1.591219 6 0 6 
z
" id="m348f87ca23" style="stroke:#000080;stroke-width:1.5;"/>
    </defs>
    <g>
     <use style="fill-opacity:0;stroke:#000080;stroke-width:1.5;" x="97.989992" xlink:href="#m348f87ca23" y="291.734514"/>
     <use style="fill-opacity:0;stroke:#000080;stroke-width:1.5;" x="153.39445" xlink:href="#m348f87ca23" y="258.706907"/>
     <use style="fill-opacity:0;stroke:#000080;stroke-width:1.5;" x="168.42761" xlink:href="#m348f87ca23" y="40.095609"/>
     <use style="fill-opacity:0;stroke:#000080;stroke-width:1.5;" x="171.400949" xlink:href="#m348f87ca23" y="27.513663"/>
     <use style="fill-opacity:0;stroke:#000080;stroke-width:1.5;" x="171.400949" xlink:href="#m348f87ca23" y="27.513663"/>
     <use style="fill-opacity:0;stroke:#000080;stroke-width:1.5;" x="333.429677" xlink:href="#m348f87ca23" y="27.513663"/>
    </g>
   </g>
   <g id="line2d_31">
    <path style="fill:none;stroke:#000080;stroke-linecap:square;stroke-width:1.5;"/>
    <g/>
   </g>
   <g id="line2d_32">
    <defs>
     <path d="M 0 1.5 
C 0.397805 1.5 0.77937 1.341951 1.06066 1.06066 
C 1.341951 0.77937 1.5 0.397805 1.5 0 
C 1.5 -0.397805 1.341951 -0.77937 1.06066 -1.06066 
C 0.77937 -1.341951 0.397805 -1.5 0 -1.5 
C -0.397805 -1.5 -0.77937 -1.341951 -1.06066 -1.06066 
C -1.341951 -0.77937 -1.5 -0.397805 -1.5 0 
C -1.5 0.397805 -1.341951 0.77937 -1.06066 1.06066 
C -0.77937 1.341951 -0.397805 1.5 0 1.5 
z
" id="mebf7100edb" style="stroke:#ff00ff;"/>
    </defs>
    <g>
     <use style="fill:#ff00ff;stroke:#ff00ff;" x="142.746546" xlink:href="#mebf7100edb" y="27.513663"/>
     <use style="fill:#ff00ff;stroke:#ff00ff;" x="142.746546" xlink:href="#mebf7100edb" y="27.513663"/>
    </g>
   </g>
   <g id="line2d_33">
    <path d="M 93.339683 294.88 
L 93.339683 294.355752 
L 97.375467 294.355752 
L 97.375467 293.831505 
L 97.685473 293.831505 
L 97.685473 293.307257 
L 101.524628 293.307257 
L 101.524628 292.783009 
L 102.711641 292.783009 
L 102.711641 291.734514 
L 102.939523 291.734514 
L 102.939523 291.210266 
L 104.661446 291.210266 
L 104.661446 290.686018 
L 106.132843 290.686018 
L 106.132843 290.161771 
L 110.94077 290.161771 
L 111.011718 287.016284 
L 111.29262 287.016284 
L 111.29262 285.967789 
L 111.500328 285.967789 
L 111.500328 285.443541 
L 113.994444 285.443541 
L 113.994444 284.919293 
L 114.80834 284.919293 
L 114.80834 284.395046 
L 115.145701 284.395046 
L 115.145701 283.870798 
L 115.311933 283.870798 
L 115.311933 283.34655 
L 115.531106 283.34655 
L 115.531106 282.822302 
L 116.380902 282.822302 
L 116.432646 279.676816 
L 116.638079 279.676816 
L 116.638079 279.152568 
L 117.869282 279.152568 
L 117.964074 274.958587 
L 118.011276 274.958587 
L 118.011276 274.434339 
L 118.198797 274.434339 
L 118.198797 273.385844 
L 119.672487 273.385844 
L 119.757871 271.8131 
L 120.507839 271.8131 
L 120.54856 270.764605 
L 121.536482 270.764605 
L 121.536482 270.240357 
L 121.803229 270.240357 
L 121.878689 266.046375 
L 121.916296 266.046375 
L 121.916296 264.99788 
L 123.252917 264.99788 
L 123.252917 264.473632 
L 123.425832 264.473632 
L 123.425832 263.949385 
L 123.597026 263.949385 
L 123.597026 262.900889 
L 123.867442 262.900889 
L 123.867442 261.852394 
L 124.100619 261.852394 
L 124.100619 261.328146 
L 124.298 261.328146 
L 124.298 260.803898 
L 124.845254 260.803898 
L 124.940047 254.512926 
L 125.740418 254.512926 
L 125.830417 249.794696 
L 125.860313 249.794696 
L 125.860313 249.270448 
L 126.009016 249.270448 
L 126.009016 248.221953 
L 126.619904 248.221953 
L 126.70543 244.552219 
L 126.790532 244.552219 
L 126.790532 244.027971 
L 126.931441 244.027971 
L 126.931441 243.503724 
L 127.209843 243.503724 
L 127.292493 240.882485 
L 127.483812 240.882485 
L 127.592189 238.261246 
L 127.619177 238.261246 
L 127.726708 233.018769 
L 127.860183 233.018769 
L 127.939774 231.970274 
L 128.018998 231.970274 
L 128.018998 231.446026 
L 128.176361 231.446026 
L 128.254506 227.776292 
L 128.306406 227.776292 
L 128.306406 225.679301 
L 128.435475 225.679301 
L 128.461173 224.630806 
L 128.967235 224.630806 
L 129.066686 220.436824 
L 129.091459 220.436824 
L 129.140898 217.291338 
L 129.239353 217.291338 
L 129.239353 216.76709 
L 129.627631 216.76709 
L 129.675556 212.573108 
L 129.747193 212.573108 
L 129.771006 206.806383 
L 129.913196 206.806383 
L 129.913196 202.088154 
L 130.447623 202.088154 
L 130.538896 193.70019 
L 130.742506 193.70019 
L 130.742506 191.603199 
L 130.899221 191.603199 
L 130.899221 191.078952 
L 131.05452 191.078952 
L 131.120651 186.360722 
L 131.186528 186.360722 
L 131.230306 182.690988 
L 131.533674 182.690988 
L 131.533674 181.642493 
L 131.768338 181.642493 
L 131.873955 174.303025 
L 131.91602 174.303025 
L 132.020737 172.730281 
L 132.207635 172.730281 
L 132.207635 172.206034 
L 132.392525 172.206034 
L 132.49439 162.245327 
L 132.51469 162.245327 
L 132.615836 159.624089 
L 132.736431 159.624089 
L 132.836286 157.00285 
L 133.014576 157.00285 
L 133.073598 148.614886 
L 133.132418 148.614886 
L 133.230007 147.042143 
L 133.288296 147.042143 
L 133.288296 145.4694 
L 133.461986 145.4694 
L 133.538623 143.372409 
L 133.576813 143.372409 
L 133.652941 133.411703 
L 133.709817 133.411703 
L 133.709817 132.363207 
L 134.065728 132.363207 
L 134.158178 127.12073 
L 134.250133 127.12073 
L 134.323346 125.023739 
L 134.378051 125.023739 
L 134.378051 123.975244 
L 134.523088 123.975244 
L 134.523088 123.450996 
L 134.702681 123.450996 
L 134.773996 117.684271 
L 134.915747 117.684271 
L 134.915747 117.160023 
L 135.213144 117.160023 
L 135.316892 112.966042 
L 135.420019 112.966042 
L 135.505488 109.820555 
L 135.539557 109.820555 
L 135.539557 109.296308 
L 135.72574 109.296308 
L 135.809707 101.956839 
L 135.84318 101.956839 
L 135.876587 98.287105 
L 135.976422 98.287105 
L 136.042659 96.714362 
L 136.108641 96.714362 
L 136.108641 96.190115 
L 136.223505 96.190115 
L 136.321352 86.229408 
L 136.386277 86.229408 
L 136.402469 82.035426 
L 136.547523 82.035426 
L 136.547523 81.511178 
L 136.707272 81.511178 
L 136.754909 77.841444 
L 136.865552 77.841444 
L 136.865552 77.317197 
L 137.006769 77.317197 
L 137.100274 75.744454 
L 137.208725 75.744454 
L 137.270391 70.501976 
L 137.347164 70.501976 
L 137.362478 69.453481 
L 137.469293 69.453481 
L 137.530034 67.880738 
L 137.620745 67.880738 
L 137.680955 64.735251 
L 137.770876 64.735251 
L 137.770876 64.211004 
L 137.934521 64.211004 
L 137.934521 63.686756 
L 138.08195 63.686756 
L 138.155193 57.920031 
L 138.502486 57.920031 
L 138.602473 54.774545 
L 138.73018 54.774545 
L 138.73018 54.250297 
L 138.898994 54.250297 
L 138.99671 51.629058 
L 139.107709 51.629058 
L 139.107709 50.580563 
L 139.313923 50.580563 
L 139.35487 46.386581 
L 139.436475 46.386581 
L 139.436475 45.338086 
L 139.652212 45.338086 
L 139.759075 43.241095 
L 139.891727 43.241095 
L 139.931324 41.668352 
L 140.023364 41.668352 
L 140.023364 41.144104 
L 140.167011 41.144104 
L 140.193 39.047113 
L 140.540066 39.047113 
L 140.540066 36.950122 
L 140.654215 36.950122 
L 140.654215 35.377379 
L 140.930101 35.377379 
L 141.029336 33.280388 
L 141.323654 33.280388 
L 141.360092 31.183397 
L 141.61302 31.183397 
L 141.648851 30.134902 
L 142.003116 30.134902 
L 142.003116 29.086407 
L 142.746546 29.086407 
L 142.746546 27.513663 
L 333.429677 27.513663 
L 333.429677 27.513663 
" style="fill:none;stroke:#ff00ff;stroke-linecap:square;stroke-width:1.5;"/>
   </g>
   <g id="line2d_34">
    <defs>
     <path d="M -0 8.485281 
L 5.091169 0 
L 0 -8.485281 
L -5.091169 -0 
z
" id="m5083a7c877" style="stroke:#ff00ff;stroke-linejoin:miter;stroke-width:1.5;"/>
    </defs>
    <g>
     <use style="fill-opacity:0;stroke:#ff00ff;stroke-linejoin:miter;stroke-width:1.5;" x="136.321352" xlink:href="#m5083a7c877" y="87.277903"/>
     <use style="fill-opacity:0;stroke:#ff00ff;stroke-linejoin:miter;stroke-width:1.5;" x="142.746546" xlink:href="#m5083a7c877" y="29.086407"/>
     <use style="fill-opacity:0;stroke:#ff00ff;stroke-linejoin:miter;stroke-width:1.5;" x="142.746546" xlink:href="#m5083a7c877" y="27.513663"/>
     <use style="fill-opacity:0;stroke:#ff00ff;stroke-linejoin:miter;stroke-width:1.5;" x="142.746546" xlink:href="#m5083a7c877" y="27.513663"/>
     <use style="fill-opacity:0;stroke:#ff00ff;stroke-linejoin:miter;stroke-width:1.5;" x="333.429677" xlink:href="#m5083a7c877" y="27.513663"/>
    </g>
   </g>
   <g id="line2d_35">
    <path style="fill:none;stroke:#ff00ff;stroke-linecap:square;stroke-width:1.5;"/>
    <g/>
   </g>
   <g id="line2d_36">
    <defs>
     <path d="M 0 1.5 
C 0.397805 1.5 0.77937 1.341951 1.06066 1.06066 
C 1.341951 0.77937 1.5 0.397805 1.5 0 
C 1.5 -0.397805 1.341951 -0.77937 1.06066 -1.06066 
C 0.77937 -1.341951 0.397805 -1.5 0 -1.5 
C -0.397805 -1.5 -0.77937 -1.341951 -1.06066 -1.06066 
C -1.341951 -0.77937 -1.5 -0.397805 -1.5 0 
C -1.5 0.397805 -1.341951 0.77937 -1.06066 1.06066 
C -0.77937 1.341951 -0.397805 1.5 0 1.5 
z
" id="m2b347fdf51" style="stroke:#ffa500;"/>
    </defs>
    <g>
     <use style="fill:#ffa500;stroke:#ffa500;" x="300.407055" xlink:href="#m2b347fdf51" y="37.998618"/>
     <use style="fill:#ffa500;stroke:#ffa500;" x="300.407055" xlink:href="#m2b347fdf51" y="37.998618"/>
    </g>
   </g>
   <g id="line2d_37">
    <path d="M 16.504332 294.88 
L 16.504332 294.355752 
L 57.759799 294.355752 
L 57.759799 293.831505 
L 84.484951 293.831505 
L 84.484951 292.258761 
L 85.449963 292.258761 
L 85.449963 291.734514 
L 90.0838 291.734514 
L 90.0838 290.686018 
L 98.583322 290.686018 
L 98.583322 290.161771 
L 103.275786 290.161771 
L 103.275786 289.637523 
L 107.917329 289.637523 
L 107.917329 289.113275 
L 113.2648 289.113275 
L 113.2648 288.06478 
L 136.499308 288.06478 
L 136.499308 287.540532 
L 139.785688 287.540532 
L 139.785688 287.016284 
L 163.436093 287.016284 
L 163.436093 285.967789 
L 163.576761 285.967789 
L 163.576761 285.443541 
L 164.040762 285.443541 
L 164.137892 283.34655 
L 166.158234 283.34655 
L 166.158234 282.822302 
L 168.617777 282.822302 
L 168.617777 282.298055 
L 175.076765 282.298055 
L 175.160329 280.725312 
L 175.635173 280.725312 
L 175.704541 279.676816 
L 176.7749 279.676816 
L 176.7749 279.152568 
L 182.083482 279.152568 
L 182.083482 278.628321 
L 182.716738 278.628321 
L 182.778036 277.055578 
L 183.304213 277.055578 
L 183.3814 276.007082 
L 184.363514 276.007082 
L 184.363514 274.958587 
L 185.13038 274.958587 
L 185.13038 273.910091 
L 187.063703 273.910091 
L 187.063703 272.861596 
L 187.324055 272.861596 
L 187.324055 272.337348 
L 188.613448 272.337348 
L 188.613448 271.8131 
L 188.888337 271.8131 
L 188.888337 270.764605 
L 189.22363 270.764605 
L 189.22363 270.240357 
L 189.569457 270.240357 
L 189.569457 269.716109 
L 190.413548 269.716109 
L 190.413548 269.191862 
L 190.770846 269.191862 
L 190.790747 268.143366 
L 190.993244 268.143366 
L 191.015597 266.570623 
L 191.918218 266.570623 
L 191.918218 266.046375 
L 192.873335 266.046375 
L 192.873335 264.99788 
L 193.920591 264.99788 
L 193.920591 263.425137 
L 194.156815 263.425137 
L 194.156815 262.376641 
L 194.968102 262.376641 
L 194.968102 261.852394 
L 195.646407 261.852394 
L 195.749535 260.803898 
L 196.546166 260.803898 
L 196.546166 259.755403 
L 196.713705 259.755403 
L 196.729739 257.658412 
L 197.508286 257.658412 
L 197.508286 256.085669 
L 198.199703 256.085669 
L 198.199703 254.512926 
L 198.843372 254.512926 
L 198.843372 253.988678 
L 199.166725 253.988678 
L 199.166725 253.46443 
L 200.506231 253.46443 
L 200.506231 252.940182 
L 200.859359 252.940182 
L 200.859359 252.415935 
L 201.075733 252.415935 
L 201.136359 251.367439 
L 201.295006 251.367439 
L 201.295006 250.843192 
L 201.771052 250.843192 
L 201.771052 250.318944 
L 202.750509 250.318944 
L 202.858997 249.270448 
L 203.125588 249.270448 
L 203.125588 247.697705 
L 203.565279 247.697705 
L 203.565279 247.173458 
L 203.754852 247.173458 
L 203.754852 246.64921 
L 204.087994 246.64921 
L 204.087994 246.124962 
L 204.377485 246.124962 
L 204.451738 244.552219 
L 204.490447 244.552219 
L 204.566987 242.979476 
L 204.689114 242.979476 
L 204.689114 242.455228 
L 205.327783 242.455228 
L 205.327783 241.93098 
L 205.802873 241.93098 
L 205.802873 240.882485 
L 206.104581 240.882485 
L 206.198105 239.309742 
L 206.865608 239.309742 
L 206.865608 238.785494 
L 207.172434 238.785494 
L 207.275084 237.736999 
L 207.34047 237.736999 
L 207.449158 236.164255 
L 207.511033 236.164255 
L 207.511033 234.067265 
L 207.790069 234.067265 
L 207.790069 233.543017 
L 208.96828 233.543017 
L 208.96828 232.494521 
L 209.177777 232.494521 
L 209.229755 231.446026 
L 209.633829 231.446026 
L 209.633829 230.921778 
L 209.79002 230.921778 
L 209.79002 229.873283 
L 210.602941 229.873283 
L 210.602941 228.824787 
L 211.524884 228.824787 
L 211.524884 228.30054 
L 211.791211 228.30054 
L 211.860479 225.679301 
L 212.106012 225.679301 
L 212.106012 224.630806 
L 212.770724 224.630806 
L 212.770724 223.58231 
L 213.017827 223.58231 
L 213.017827 223.058063 
L 213.314298 223.058063 
L 213.314298 222.009567 
L 213.728408 222.009567 
L 213.728408 221.485319 
L 214.024004 221.485319 
L 214.056143 219.388328 
L 214.593508 219.388328 
L 214.673789 217.815585 
L 214.810499 217.815585 
L 214.810499 217.291338 
L 215.137102 217.291338 
L 215.14826 215.194347 
L 215.42374 215.194347 
L 215.437169 214.145851 
L 215.549111 214.145851 
L 215.549111 213.097356 
L 215.948147 213.097356 
L 215.948147 211.524613 
L 216.252007 211.524613 
L 216.252007 211.000365 
L 216.365924 211.000365 
L 216.393821 209.95187 
L 216.621039 209.95187 
L 216.621039 209.427622 
L 217.019693 209.427622 
L 217.019693 208.379126 
L 217.761162 208.379126 
L 217.833382 206.806383 
L 218.107497 206.806383 
L 218.107497 206.282136 
L 218.499556 206.282136 
L 218.573933 204.709392 
L 218.827717 204.709392 
L 218.827717 203.660897 
L 219.1736 203.660897 
L 219.1736 203.136649 
L 219.349511 203.136649 
L 219.349511 202.612401 
L 219.832249 202.612401 
L 219.896167 199.991163 
L 220.491403 199.991163 
L 220.491403 199.466915 
L 220.621734 199.466915 
L 220.621734 198.942667 
L 220.917016 198.942667 
L 220.980831 196.321429 
L 221.044765 196.321429 
L 221.044765 195.797181 
L 221.354885 195.797181 
L 221.368576 194.748686 
L 221.501776 194.748686 
L 221.501776 194.224438 
L 221.740738 194.224438 
L 221.740738 193.70019 
L 222.126564 193.70019 
L 222.126564 193.175943 
L 222.308924 193.175943 
L 222.308924 191.078952 
L 222.696635 191.078952 
L 222.72399 188.981961 
L 222.808887 188.981961 
L 222.818803 187.409218 
L 223.372942 187.409218 
L 223.382126 185.836474 
L 223.552328 185.836474 
L 223.552328 185.312227 
L 223.742396 185.312227 
L 223.742396 184.787979 
L 224.091019 184.787979 
L 224.091019 184.263731 
L 224.540498 184.263731 
L 224.540498 183.739484 
L 224.723447 183.739484 
L 224.832934 179.545502 
L 224.90211 179.545502 
L 224.90211 179.021254 
L 225.111062 179.021254 
L 225.205411 177.972759 
L 225.374937 177.972759 
L 225.374937 177.448511 
L 225.486669 177.448511 
L 225.486669 176.924263 
L 225.598224 176.924263 
L 225.636455 175.875768 
L 225.881304 175.875768 
L 225.95404 174.827272 
L 226.184452 174.827272 
L 226.24352 172.206034 
L 226.4023 172.206034 
L 226.462351 171.157538 
L 226.611782 171.157538 
L 226.611782 170.633291 
L 226.874498 170.633291 
L 226.981786 169.584795 
L 227.055608 169.584795 
L 227.055608 169.060547 
L 227.326865 169.060547 
L 227.349326 167.487804 
L 227.46884 167.487804 
L 227.46884 166.963557 
L 227.759405 166.963557 
L 227.842793 164.866566 
L 227.917061 164.866566 
L 227.965896 163.81807 
L 228.154779 163.81807 
L 228.154779 162.769575 
L 228.640807 162.769575 
L 228.640807 162.245327 
L 228.793864 162.245327 
L 228.794692 161.196832 
L 228.919643 161.196832 
L 229.020962 160.148336 
L 229.061724 160.148336 
L 229.160958 159.099841 
L 229.289216 159.099841 
L 229.376668 157.00285 
L 229.52356 157.00285 
L 229.52356 156.478602 
L 229.644995 156.478602 
L 229.754257 152.28462 
L 230.082902 152.28462 
L 230.082902 151.760373 
L 230.351874 151.760373 
L 230.388437 150.18763 
L 230.590262 150.18763 
L 230.590262 149.139134 
L 230.844057 149.139134 
L 230.891596 148.090639 
L 231.035613 148.090639 
L 231.111024 147.042143 
L 231.196065 147.042143 
L 231.196065 145.4694 
L 231.371642 145.4694 
L 231.41626 142.323914 
L 231.680483 142.323914 
L 231.680483 141.799666 
L 232.10031 141.799666 
L 232.187909 140.226923 
L 232.285212 140.226923 
L 232.285212 139.702675 
L 232.451349 139.702675 
L 232.507587 138.65418 
L 232.592719 138.65418 
L 232.667271 137.081437 
L 232.754251 137.081437 
L 232.76143 136.032941 
L 233.232795 136.032941 
L 233.283987 134.460198 
L 233.471069 134.460198 
L 233.471069 133.93595 
L 233.803079 133.93595 
L 233.850359 131.314712 
L 234.036969 131.314712 
L 234.117474 129.741969 
L 234.194193 129.741969 
L 234.194193 129.217721 
L 234.438277 129.217721 
L 234.438277 128.169225 
L 234.613925 128.169225 
L 234.719933 125.547987 
L 234.736205 125.547987 
L 234.836587 123.975244 
L 234.850366 123.975244 
L 234.850366 122.926748 
L 234.990276 122.926748 
L 234.990276 122.4025 
L 235.169352 122.4025 
L 235.266522 119.781262 
L 235.426119 119.781262 
L 235.521395 117.684271 
L 235.565 117.684271 
L 235.671183 115.58728 
L 236.106723 115.58728 
L 236.106723 114.538785 
L 236.273725 114.538785 
L 236.273725 114.014537 
L 236.638355 114.014537 
L 236.638355 113.490289 
L 236.783075 113.490289 
L 236.783075 112.966042 
L 237.025274 112.966042 
L 237.060668 110.344803 
L 237.144967 110.344803 
L 237.172065 108.77206 
L 237.333762 108.77206 
L 237.404367 107.723564 
L 237.481775 107.723564 
L 237.481775 107.199317 
L 237.789403 107.199317 
L 237.842013 106.150821 
L 237.993018 106.150821 
L 238.040919 105.102326 
L 238.133345 105.102326 
L 238.226366 104.05383 
L 238.401651 104.05383 
L 238.438455 102.481087 
L 238.738883 102.481087 
L 238.773413 100.908344 
L 238.909634 100.908344 
L 239.013789 98.811353 
L 239.073154 98.811353 
L 239.080944 97.23861 
L 239.19469 97.23861 
L 239.226553 95.665867 
L 239.396175 95.665867 
L 239.428398 92.520381 
L 239.696304 92.520381 
L 239.784727 90.42339 
L 239.890056 90.42339 
L 239.919514 88.850646 
L 240.196834 88.850646 
L 240.196834 87.802151 
L 240.46322 87.802151 
L 240.531014 84.656665 
L 240.826145 84.656665 
L 240.840586 83.608169 
L 241.02756 83.608169 
L 241.02756 83.083922 
L 241.228071 83.083922 
L 241.304102 82.035426 
L 241.546037 82.035426 
L 241.624324 79.938435 
L 241.664012 79.938435 
L 241.768857 78.88994 
L 241.911377 78.88994 
L 241.911377 78.365692 
L 242.038884 78.365692 
L 242.038884 77.841444 
L 242.186285 77.841444 
L 242.289414 75.744454 
L 242.33792 75.744454 
L 242.33792 75.220206 
L 242.466297 75.220206 
L 242.466297 74.695958 
L 242.628948 74.695958 
L 242.660702 73.647463 
L 242.788873 73.647463 
L 242.880792 72.598967 
L 242.948649 72.598967 
L 242.948649 72.074719 
L 243.199281 72.074719 
L 243.202965 71.026224 
L 243.339662 71.026224 
L 243.368486 69.977729 
L 243.490516 69.977729 
L 243.543044 68.404985 
L 243.694762 68.404985 
L 243.716038 66.832242 
L 243.948384 66.832242 
L 244.059313 64.211004 
L 244.220552 64.211004 
L 244.220552 63.686756 
L 244.382242 63.686756 
L 244.382242 63.162508 
L 244.532412 63.162508 
L 244.541944 61.589765 
L 244.714007 61.589765 
L 244.714007 60.54127 
L 244.848675 60.54127 
L 244.904547 58.968526 
L 244.991555 58.968526 
L 245.079529 56.871536 
L 245.603546 56.871536 
L 245.691698 55.298792 
L 245.82335 55.298792 
L 245.82335 54.774545 
L 246.012079 54.774545 
L 246.017671 53.726049 
L 246.325488 53.726049 
L 246.325488 53.201802 
L 246.582795 53.201802 
L 246.582795 52.677554 
L 246.805773 52.677554 
L 246.86097 51.629058 
L 247.303915 51.629058 
L 247.357027 50.056315 
L 247.570684 50.056315 
L 247.58201 48.483572 
L 247.72612 48.483572 
L 247.72612 47.435077 
L 248.764377 47.435077 
L 248.764377 46.910829 
L 262.513079 46.910829 
L 262.579102 45.862334 
L 262.683592 45.862334 
L 262.683592 45.338086 
L 262.893219 45.338086 
L 262.893219 44.813838 
L 263.019693 44.813838 
L 263.019693 44.28959 
L 263.62051 44.28959 
L 263.62051 43.765343 
L 270.778692 43.765343 
L 270.778692 43.241095 
L 270.97017 43.241095 
L 270.97017 42.716847 
L 271.200705 42.716847 
L 271.200705 42.192599 
L 271.312276 42.192599 
L 271.312276 41.668352 
L 276.567186 41.668352 
L 276.576893 40.619856 
L 280.902408 40.619856 
L 280.902408 40.095609 
L 284.207551 40.095609 
L 284.207551 39.571361 
L 286.846208 39.571361 
L 286.846208 39.047113 
L 295.012576 39.047113 
L 295.012576 38.522865 
L 300.407055 38.522865 
L 300.407055 37.998618 
L 333.429677 37.998618 
L 333.429677 37.998618 
" style="fill:none;stroke:#ffa500;stroke-linecap:square;stroke-width:1.5;"/>
   </g>
   <g id="line2d_38">
    <defs>
     <path d="M 0 -6 
L -1.347084 -1.854102 
L -5.706339 -1.854102 
L -2.179628 0.708204 
L -3.526712 4.854102 
L -0 2.291796 
L 3.526712 4.854102 
L 2.179628 0.708204 
L 5.706339 -1.854102 
L 1.347084 -1.854102 
z
" id="m866fff68d0" style="stroke:#ffa500;stroke-linejoin:bevel;stroke-width:1.5;"/>
    </defs>
    <g>
     <use style="fill-opacity:0;stroke:#ffa500;stroke-linejoin:bevel;stroke-width:1.5;" x="113.2648" xlink:href="#m866fff68d0" y="289.113275"/>
     <use style="fill-opacity:0;stroke:#ffa500;stroke-linejoin:bevel;stroke-width:1.5;" x="207.511033" xlink:href="#m866fff68d0" y="236.164255"/>
     <use style="fill-opacity:0;stroke:#ffa500;stroke-linejoin:bevel;stroke-width:1.5;" x="239.696304" xlink:href="#m866fff68d0" y="91.471885"/>
     <use style="fill-opacity:0;stroke:#ffa500;stroke-linejoin:bevel;stroke-width:1.5;" x="300.407055" xlink:href="#m866fff68d0" y="38.522865"/>
     <use style="fill-opacity:0;stroke:#ffa500;stroke-linejoin:bevel;stroke-width:1.5;" x="300.407055" xlink:href="#m866fff68d0" y="37.998618"/>
     <use style="fill-opacity:0;stroke:#ffa500;stroke-linejoin:bevel;stroke-width:1.5;" x="333.429677" xlink:href="#m866fff68d0" y="37.998618"/>
    </g>
   </g>
   <g id="line2d_39">
    <path style="fill:none;stroke:#ffa500;stroke-linecap:square;stroke-width:1.5;"/>
    <g/>
   </g>
   <g id="line2d_40">
    <path clip-path="url(#peb3aad94ce)" d="M 254.198341 46.910829 
" style="fill:none;stroke:#ffa500;stroke-linecap:square;stroke-width:1.5;"/>
    <defs>
     <path d="M -12 12 
L 12 -12 
M -12 -12 
L 12 12 
" id="m118cb2b847" style="stroke:#ffa500;stroke-width:3;"/>
    </defs>
    <g clip-path="url(#peb3aad94ce)">
     <use style="fill:#ffa500;stroke:#ffa500;stroke-width:3;" x="254.198341" xlink:href="#m118cb2b847" y="46.910829"/>
    </g>
   </g>
   <g id="line2d_41">
    <defs>
     <path d="M 0 1.5 
C 0.397805 1.5 0.77937 1.341951 1.06066 1.06066 
C 1.341951 0.77937 1.5 0.397805 1.5 0 
C 1.5 -0.397805 1.341951 -0.77937 1.06066 -1.06066 
C 0.77937 -1.341951 0.397805 -1.5 0 -1.5 
C -0.397805 -1.5 -0.77937 -1.341951 -1.06066 -1.06066 
C -1.341951 -0.77937 -1.5 -0.397805 -1.5 0 
C -1.5 0.397805 -1.341951 0.77937 -1.06066 1.06066 
C -0.77937 1.341951 -0.397805 1.5 0 1.5 
z
" id="mab6bb5bf48" style="stroke:#6495ed;"/>
    </defs>
    <g>
     <use style="fill:#6495ed;stroke:#6495ed;" x="133.17152" xlink:href="#mab6bb5bf48" y="27.513663"/>
     <use style="fill:#6495ed;stroke:#6495ed;" x="133.17152" xlink:href="#mab6bb5bf48" y="27.513663"/>
    </g>
   </g>
   <g id="line2d_42">
    <path d="M 63.095973 294.88 
L 63.095973 294.355752 
L 80.395842 294.355752 
L 80.395842 293.307257 
L 82.745606 293.307257 
L 82.745606 292.783009 
L 83.107827 292.783009 
L 83.107827 291.734514 
L 85.449963 291.734514 
L 85.449963 291.210266 
L 85.759969 291.210266 
L 85.759969 290.686018 
L 88.324106 290.686018 
L 88.324106 290.161771 
L 88.586781 290.161771 
L 88.586781 289.637523 
L 92.110241 289.637523 
L 92.110241 289.113275 
L 92.321346 289.113275 
L 92.321346 288.589027 
L 92.529893 288.589027 
L 92.529893 288.06478 
L 92.735942 288.06478 
L 92.735942 287.540532 
L 92.939552 287.540532 
L 92.939552 285.443541 
L 93.339683 285.443541 
L 93.339683 281.773807 
L 93.536312 281.773807 
L 93.536312 281.249559 
L 93.922955 281.249559 
L 93.922955 280.201064 
L 94.301099 280.201064 
L 94.301099 279.676816 
L 94.67111 279.676816 
L 94.67111 279.152568 
L 99.436631 279.152568 
L 99.436631 278.628321 
L 99.574823 278.628321 
L 99.574823 278.104073 
L 99.711914 278.104073 
L 99.711914 277.579825 
L 101.277072 277.579825 
L 101.277072 277.055578 
L 102.939523 277.055578 
L 102.939523 276.007082 
L 103.275786 276.007082 
L 103.275786 275.482834 
L 104.035746 275.482834 
L 104.141622 273.385844 
L 104.455397 273.385844 
L 104.55873 272.337348 
L 104.661446 272.337348 
L 104.763552 271.288853 
L 106.778678 271.288853 
L 106.778678 270.764605 
L 107.574933 270.764605 
L 107.574933 269.716109 
L 108.086006 269.716109 
L 108.086006 268.143366 
L 108.253045 268.143366 
L 108.33596 250.843192 
L 108.418477 250.843192 
L 108.418477 249.794696 
L 109.143848 249.794696 
L 109.143848 249.270448 
L 109.456673 249.270448 
L 109.456673 238.785494 
L 109.83987 238.785494 
L 109.83987 238.261246 
L 110.869529 238.261246 
L 110.869529 235.640008 
L 111.152743 235.640008 
L 111.152743 233.018769 
L 111.841029 233.018769 
L 111.841029 231.970274 
L 111.975443 231.970274 
L 111.975443 231.446026 
L 112.372496 231.446026 
L 112.372496 230.397531 
L 113.450132 230.397531 
L 113.511469 227.252044 
L 113.572587 227.252044 
L 113.63349 208.379126 
L 113.694177 208.379126 
L 113.754651 206.282136 
L 114.053874 206.282136 
L 114.053874 194.748686 
L 114.637146 194.748686 
L 114.637146 183.215236 
L 114.751464 183.215236 
L 114.80834 172.206034 
L 115.801204 172.206034 
L 115.908066 159.624089 
L 115.96125 159.624089 
L 116.067126 155.430107 
L 116.172355 155.430107 
L 116.172355 139.178427 
L 117.338374 139.178427 
L 117.338374 137.081437 
L 117.821689 137.081437 
L 117.916743 119.257014 
L 118.058348 119.257014 
L 118.058348 118.732766 
L 118.338108 118.732766 
L 118.338108 117.160023 
L 118.522119 117.160023 
L 118.567816 107.723564 
L 118.704183 107.723564 
L 118.704183 105.102326 
L 119.629636 105.102326 
L 119.629636 104.05383 
L 119.757871 104.05383 
L 119.757871 103.005335 
L 119.885158 103.005335 
L 119.885158 102.481087 
L 120.01151 102.481087 
L 120.01151 101.956839 
L 120.750735 101.956839 
L 120.750735 99.859849 
L 121.420883 99.859849 
L 121.420883 82.559674 
L 122.214223 82.559674 
L 122.214223 82.035426 
L 122.759301 82.035426 
L 122.866275 67.880738 
L 124.001073 67.880738 
L 124.001073 55.298792 
L 124.133674 55.298792 
L 124.133674 54.774545 
L 125.830417 54.774545 
L 125.830417 52.677554 
L 126.591301 52.677554 
L 126.591301 51.629058 
L 127.699888 51.629058 
L 127.699888 42.716847 
L 128.842109 42.716847 
L 128.842109 41.144104 
L 131.55514 41.144104 
L 131.55514 40.619856 
L 132.37208 40.619856 
L 132.37208 40.095609 
L 133.17152 40.095609 
L 133.17152 27.513663 
L 333.429677 27.513663 
L 333.429677 27.513663 
" style="fill:none;stroke:#6495ed;stroke-linecap:square;stroke-width:1.5;"/>
   </g>
   <g id="line2d_43">
    <defs>
     <path d="M -0 6 
L 6 -6 
L -6 -6 
z
" id="m0b0e4aa854" style="stroke:#6495ed;stroke-linejoin:miter;stroke-width:1.5;"/>
    </defs>
    <g>
     <use style="fill-opacity:0;stroke:#6495ed;stroke-linejoin:miter;stroke-width:1.5;" x="106.778678" xlink:href="#m0b0e4aa854" y="270.764605"/>
     <use style="fill-opacity:0;stroke:#6495ed;stroke-linejoin:miter;stroke-width:1.5;" x="128.842109" xlink:href="#m0b0e4aa854" y="41.144104"/>
     <use style="fill-opacity:0;stroke:#6495ed;stroke-linejoin:miter;stroke-width:1.5;" x="133.17152" xlink:href="#m0b0e4aa854" y="40.095609"/>
     <use style="fill-opacity:0;stroke:#6495ed;stroke-linejoin:miter;stroke-width:1.5;" x="133.17152" xlink:href="#m0b0e4aa854" y="27.513663"/>
     <use style="fill-opacity:0;stroke:#6495ed;stroke-linejoin:miter;stroke-width:1.5;" x="333.429677" xlink:href="#m0b0e4aa854" y="27.513663"/>
    </g>
   </g>
   <g id="line2d_44">
    <path style="fill:none;stroke:#6495ed;stroke-linecap:square;stroke-width:1.5;"/>
    <g/>
   </g>
   <g id="line2d_45">
    <defs>
     <path d="M 0 1.5 
C 0.397805 1.5 0.77937 1.341951 1.06066 1.06066 
C 1.341951 0.77937 1.5 0.397805 1.5 0 
C 1.5 -0.397805 1.341951 -0.77937 1.06066 -1.06066 
C 0.77937 -1.341951 0.397805 -1.5 0 -1.5 
C -0.397805 -1.5 -0.77937 -1.341951 -1.06066 -1.06066 
C -1.341951 -0.77937 -1.5 -0.397805 -1.5 0 
C -1.5 0.397805 -1.341951 0.77937 -1.06066 1.06066 
C -0.77937 1.341951 -0.397805 1.5 0 1.5 
z
" id="m7d328439e5" style="stroke:#ff0000;"/>
    </defs>
    <g>
     <use style="fill:#ff0000;stroke:#ff0000;" x="94.113066" xlink:href="#m7d328439e5" y="27.513663"/>
     <use style="fill:#ff0000;stroke:#ff0000;" x="94.113066" xlink:href="#m7d328439e5" y="27.513663"/>
    </g>
   </g>
   <g id="line2d_46">
    <path d="M 84.150865 294.88 
L 84.150865 294.355752 
L 86.946982 294.355752 
L 86.946982 291.734514 
L 87.78641 291.734514 
L 87.78641 291.210266 
L 88.057358 291.210266 
L 88.057358 290.161771 
L 89.100397 290.161771 
L 89.100397 288.06478 
L 89.351567 288.06478 
L 89.351567 283.34655 
L 89.843168 283.34655 
L 89.843168 281.249559 
L 90.786137 281.249559 
L 90.786137 280.201064 
L 91.014019 280.201064 
L 91.014019 276.53133 
L 91.238922 276.53133 
L 91.238922 275.482834 
L 91.460924 275.482834 
L 91.460924 274.434339 
L 91.680097 274.434339 
L 91.680097 272.337348 
L 92.110241 272.337348 
L 92.110241 249.794696 
L 92.321346 249.794696 
L 92.321346 247.697705 
L 92.735942 247.697705 
L 92.735942 246.64921 
L 92.939552 246.64921 
L 92.939552 233.543017 
L 93.140781 233.543017 
L 93.140781 180.593997 
L 93.339683 180.593997 
L 93.339683 179.545502 
L 93.536312 179.545502 
L 93.536312 138.65418 
L 93.730719 138.65418 
L 93.730719 107.199317 
L 94.113066 107.199317 
L 94.113066 27.513663 
L 333.429677 27.513663 
" style="fill:none;stroke:#ff0000;stroke-linecap:square;stroke-width:1.5;"/>
   </g>
   <g id="line2d_47">
    <defs>
     <path d="M 0 -6 
L -5.196152 -3 
L -5.196152 3 
L -0 6 
L 5.196152 3 
L 5.196152 -3 
z
" id="m84725ffe37" style="stroke:#ff0000;stroke-linejoin:miter;stroke-width:1.5;"/>
    </defs>
    <g>
     <use style="fill-opacity:0;stroke:#ff0000;stroke-linejoin:miter;stroke-width:1.5;" x="94.113066" xlink:href="#m84725ffe37" y="107.199317"/>
     <use style="fill-opacity:0;stroke:#ff0000;stroke-linejoin:miter;stroke-width:1.5;" x="94.113066" xlink:href="#m84725ffe37" y="107.199317"/>
     <use style="fill-opacity:0;stroke:#ff0000;stroke-linejoin:miter;stroke-width:1.5;" x="94.113066" xlink:href="#m84725ffe37" y="27.513663"/>
     <use style="fill-opacity:0;stroke:#ff0000;stroke-linejoin:miter;stroke-width:1.5;" x="94.113066" xlink:href="#m84725ffe37" y="27.513663"/>
     <use style="fill-opacity:0;stroke:#ff0000;stroke-linejoin:miter;stroke-width:1.5;" x="333.429677" xlink:href="#m84725ffe37" y="27.513663"/>
    </g>
   </g>
   <g id="line2d_48">
    <path style="fill:none;stroke:#ff0000;stroke-linecap:square;stroke-width:1.5;"/>
    <g/>
   </g>
   <g id="line2d_49">
    <defs>
     <path d="M 0 1.5 
C 0.397805 1.5 0.77937 1.341951 1.06066 1.06066 
C 1.341951 0.77937 1.5 0.397805 1.5 0 
C 1.5 -0.397805 1.341951 -0.77937 1.06066 -1.06066 
C 0.77937 -1.341951 0.397805 -1.5 0 -1.5 
C -0.397805 -1.5 -0.77937 -1.341951 -1.06066 -1.06066 
C -1.341951 -0.77937 -1.5 -0.397805 -1.5 0 
C -1.5 0.397805 -1.341951 0.77937 -1.06066 1.06066 
C -0.77937 1.341951 -0.397805 1.5 0 1.5 
z
" id="meec5ec878a" style="stroke:#9acd32;"/>
    </defs>
    <g>
     <use style="fill:#9acd32;stroke:#9acd32;" x="111.500328" xlink:href="#meec5ec878a" y="289.637523"/>
     <use style="fill:#9acd32;stroke:#9acd32;" x="111.500328" xlink:href="#meec5ec878a" y="289.637523"/>
    </g>
   </g>
   <g id="line2d_50">
    <path d="M 40.355341 294.88 
L 40.355341 294.355752 
L 63.095973 294.355752 
L 63.095973 293.307257 
L 64.20635 293.307257 
L 64.20635 291.734514 
L 93.140781 291.734514 
L 93.140781 291.210266 
L 95.388083 291.210266 
L 95.388083 290.686018 
L 111.500328 290.686018 
L 111.500328 289.637523 
L 333.429677 289.637523 
" style="fill:none;stroke:#9acd32;stroke-linecap:square;stroke-width:1.5;"/>
   </g>
   <g id="line2d_51">
    <defs>
     <path d="M 0 -6 
L -6 6 
L 6 6 
z
" id="mcd2436c230" style="stroke:#9acd32;stroke-linejoin:miter;stroke-width:1.5;"/>
    </defs>
    <g>
     <use style="fill-opacity:0;stroke:#9acd32;stroke-linejoin:miter;stroke-width:1.5;" x="111.500328" xlink:href="#mcd2436c230" y="290.686018"/>
     <use style="fill-opacity:0;stroke:#9acd32;stroke-linejoin:miter;stroke-width:1.5;" x="111.500328" xlink:href="#mcd2436c230" y="290.686018"/>
     <use style="fill-opacity:0;stroke:#9acd32;stroke-linejoin:miter;stroke-width:1.5;" x="111.500328" xlink:href="#mcd2436c230" y="289.637523"/>
     <use style="fill-opacity:0;stroke:#9acd32;stroke-linejoin:miter;stroke-width:1.5;" x="111.500328" xlink:href="#mcd2436c230" y="289.637523"/>
     <use style="fill-opacity:0;stroke:#9acd32;stroke-linejoin:miter;stroke-width:1.5;" x="111.500328" xlink:href="#mcd2436c230" y="289.637523"/>
     <use style="fill-opacity:0;stroke:#9acd32;stroke-linejoin:miter;stroke-width:1.5;" x="333.429677" xlink:href="#mcd2436c230" y="289.637523"/>
    </g>
   </g>
   <g id="line2d_52">
    <path style="fill:none;stroke:#9acd32;stroke-linecap:square;stroke-width:1.5;"/>
    <g/>
   </g>
   <g id="line2d_53">
    <path clip-path="url(#peb3aad94ce)" d="M 80.395842 291.734514 
" style="fill:none;stroke:#9acd32;stroke-linecap:square;stroke-width:1.5;"/>
    <defs>
     <path d="M -12 12 
L 12 -12 
M -12 -12 
L 12 12 
" id="m809bfcc875" style="stroke:#9acd32;stroke-width:3;"/>
    </defs>
    <g clip-path="url(#peb3aad94ce)">
     <use style="fill:#9acd32;stroke:#9acd32;stroke-width:3;" x="80.395842" xlink:href="#m809bfcc875" y="291.734514"/>
    </g>
   </g>
   <g id="line2d_54">
    <path d="M 333.429677 289.637523 
L 363.933742 289.532673 
" style="fill:none;stroke:#9acd32;stroke-linecap:square;stroke-width:1.5;"/>
    <g>
     <use style="fill-opacity:0;stroke:#9acd32;stroke-linejoin:miter;stroke-width:1.5;" x="333.429677" xlink:href="#mcd2436c230" y="289.637523"/>
     <use style="fill-opacity:0;stroke:#9acd32;stroke-linejoin:miter;stroke-width:1.5;" x="363.933742" xlink:href="#mcd2436c230" y="289.532673"/>
    </g>
   </g>
   <g id="line2d_55">
    <path d="M 333.429677 37.998618 
L 363.933742 246.754059 
" style="fill:none;stroke:#ffa500;stroke-linecap:square;stroke-width:1.5;"/>
    <g>
     <use style="fill-opacity:0;stroke:#ffa500;stroke-linejoin:bevel;stroke-width:1.5;" x="333.429677" xlink:href="#m866fff68d0" y="37.998618"/>
     <use style="fill-opacity:0;stroke:#ffa500;stroke-linejoin:bevel;stroke-width:1.5;" x="363.933742" xlink:href="#m866fff68d0" y="246.754059"/>
    </g>
   </g>
   <g id="line2d_56">
    <path d="M 333.429677 27.513663 
L 363.933742 203.975446 
" style="fill:none;stroke:#000080;stroke-linecap:square;stroke-width:1.5;"/>
    <g>
     <use style="fill-opacity:0;stroke:#000080;stroke-width:1.5;" x="333.429677" xlink:href="#m348f87ca23" y="27.513663"/>
     <use style="fill-opacity:0;stroke:#000080;stroke-width:1.5;" x="363.933742" xlink:href="#m348f87ca23" y="203.975446"/>
    </g>
   </g>
   <g id="line2d_57">
    <path d="M 333.429677 27.513663 
L 363.933742 161.196832 
" style="fill:none;stroke:#ff00ff;stroke-linecap:square;stroke-width:1.5;"/>
    <g>
     <use style="fill-opacity:0;stroke:#ff00ff;stroke-linejoin:miter;stroke-width:1.5;" x="333.429677" xlink:href="#m5083a7c877" y="27.513663"/>
     <use style="fill-opacity:0;stroke:#ff00ff;stroke-linejoin:miter;stroke-width:1.5;" x="363.933742" xlink:href="#m5083a7c877" y="161.196832"/>
    </g>
   </g>
   <g id="line2d_58">
    <path d="M 333.429677 27.513663 
L 363.933742 118.418218 
" style="fill:none;stroke:#6495ed;stroke-linecap:square;stroke-width:1.5;"/>
    <g>
     <use style="fill-opacity:0;stroke:#6495ed;stroke-linejoin:miter;stroke-width:1.5;" x="333.429677" xlink:href="#m0b0e4aa854" y="27.513663"/>
     <use style="fill-opacity:0;stroke:#6495ed;stroke-linejoin:miter;stroke-width:1.5;" x="363.933742" xlink:href="#m0b0e4aa854" y="118.418218"/>
    </g>
   </g>
   <g id="line2d_59">
    <path d="M 333.429677 27.513663 
L 363.933742 75.639604 
" style="fill:none;stroke:#ff0000;stroke-linecap:square;stroke-width:1.5;"/>
    <g>
     <use style="fill-opacity:0;stroke:#ff0000;stroke-linejoin:miter;stroke-width:1.5;" x="333.429677" xlink:href="#m84725ffe37" y="27.513663"/>
     <use style="fill-opacity:0;stroke:#ff0000;stroke-linejoin:miter;stroke-width:1.5;" x="363.933742" xlink:href="#m84725ffe37" y="75.639604"/>
    </g>
   </g>
   <g id="line2d_60">
    <path d="M 333.429677 294.88 
L 333.429677 27.513663 
" style="fill:none;stroke:#000000;stroke-linecap:square;stroke-width:1.5;"/>
   </g>
   <g id="patch_3">
    <path d="M 56.12 294.88 
L 56.12 24.84 
" style="fill:none;stroke:#000000;stroke-linecap:square;stroke-linejoin:miter;stroke-width:0.8;"/>
   </g>
   <g id="patch_4">
    <path d="M 399.984 294.88 
L 399.984 24.84 
" style="fill:none;stroke:#000000;stroke-linecap:square;stroke-linejoin:miter;stroke-width:0.8;"/>
   </g>
   <g id="patch_5">
    <path d="M 56.12 294.88 
L 399.984 294.88 
" style="fill:none;stroke:#000000;stroke-linecap:square;stroke-linejoin:miter;stroke-width:0.8;"/>
   </g>
   <g id="patch_6">
    <path d="M 56.12 24.84 
L 399.984 24.84 
" style="fill:none;stroke:#000000;stroke-linecap:square;stroke-linejoin:miter;stroke-width:0.8;"/>
   </g>
   <g id="text_14">
    <!-- gsa solve -->
    <g transform="translate(369.479935 294.223611)scale(0.17 -0.17)">
     <use xlink:href="#DejaVuSans-67"/>
     <use x="63.476562" xlink:href="#DejaVuSans-73"/>
     <use x="115.576172" xlink:href="#DejaVuSans-61"/>
     <use x="176.855469" xlink:href="#DejaVuSans-20"/>
     <use x="208.642578" xlink:href="#DejaVuSans-73"/>
     <use x="260.742188" xlink:href="#DejaVuSans-6f"/>
     <use x="321.923828" xlink:href="#DejaVuSans-6c"/>
     <use x="349.707031" xlink:href="#DejaVuSans-76"/>
     <use x="408.886719" xlink:href="#DejaVuSans-65"/>
    </g>
   </g>
   <g id="text_15">
    <!-- GA -->
    <defs>
     <path d="M 59.515625 10.40625 
L 59.515625 29.984375 
L 43.40625 29.984375 
L 43.40625 38.09375 
L 69.28125 38.09375 
L 69.28125 6.78125 
Q 63.578125 2.734375 56.6875 0.65625 
Q 49.8125 -1.421875 42 -1.421875 
Q 24.90625 -1.421875 15.25 8.5625 
Q 5.609375 18.5625 5.609375 36.375 
Q 5.609375 54.25 15.25 64.234375 
Q 24.90625 74.21875 42 74.21875 
Q 49.125 74.21875 55.546875 72.453125 
Q 61.96875 70.703125 67.390625 67.28125 
L 67.390625 56.78125 
Q 61.921875 61.421875 55.765625 63.765625 
Q 49.609375 66.109375 42.828125 66.109375 
Q 29.4375 66.109375 22.71875 58.640625 
Q 16.015625 51.171875 16.015625 36.375 
Q 16.015625 21.625 22.71875 14.15625 
Q 29.4375 6.6875 42.828125 6.6875 
Q 48.046875 6.6875 52.140625 7.59375 
Q 56.25 8.5 59.515625 10.40625 
z
" id="DejaVuSans-47"/>
     <path d="M 34.1875 63.1875 
L 20.796875 26.90625 
L 47.609375 26.90625 
z
M 28.609375 72.90625 
L 39.796875 72.90625 
L 67.578125 0 
L 57.328125 0 
L 50.6875 18.703125 
L 17.828125 18.703125 
L 11.1875 0 
L 0.78125 0 
z
" id="DejaVuSans-41"/>
    </defs>
    <g transform="translate(369.479935 251.444997)scale(0.17 -0.17)">
     <use xlink:href="#DejaVuSans-47"/>
     <use x="77.490234" xlink:href="#DejaVuSans-41"/>
    </g>
   </g>
   <g id="text_16">
    <!-- ALPS -->
    <defs>
     <path d="M 9.8125 72.90625 
L 19.671875 72.90625 
L 19.671875 8.296875 
L 55.171875 8.296875 
L 55.171875 0 
L 9.8125 0 
z
" id="DejaVuSans-4c"/>
     <path d="M 19.671875 64.796875 
L 19.671875 37.40625 
L 32.078125 37.40625 
Q 38.96875 37.40625 42.71875 40.96875 
Q 46.484375 44.53125 46.484375 51.125 
Q 46.484375 57.671875 42.71875 61.234375 
Q 38.96875 64.796875 32.078125 64.796875 
z
M 9.8125 72.90625 
L 32.078125 72.90625 
Q 44.34375 72.90625 50.609375 67.359375 
Q 56.890625 61.8125 56.890625 51.125 
Q 56.890625 40.328125 50.609375 34.8125 
Q 44.34375 29.296875 32.078125 29.296875 
L 19.671875 29.296875 
L 19.671875 0 
L 9.8125 0 
z
" id="DejaVuSans-50"/>
     <path d="M 53.515625 70.515625 
L 53.515625 60.890625 
Q 47.90625 63.578125 42.921875 64.890625 
Q 37.9375 66.21875 33.296875 66.21875 
Q 25.25 66.21875 20.875 63.09375 
Q 16.5 59.96875 16.5 54.203125 
Q 16.5 49.359375 19.40625 46.890625 
Q 22.3125 44.4375 30.421875 42.921875 
L 36.375 41.703125 
Q 47.40625 39.59375 52.65625 34.296875 
Q 57.90625 29 57.90625 20.125 
Q 57.90625 9.515625 50.796875 4.046875 
Q 43.703125 -1.421875 29.984375 -1.421875 
Q 24.8125 -1.421875 18.96875 -0.25 
Q 13.140625 0.921875 6.890625 3.21875 
L 6.890625 13.375 
Q 12.890625 10.015625 18.65625 8.296875 
Q 24.421875 6.59375 29.984375 6.59375 
Q 38.421875 6.59375 43.015625 9.90625 
Q 47.609375 13.234375 47.609375 19.390625 
Q 47.609375 24.75 44.3125 27.78125 
Q 41.015625 30.8125 33.5 32.328125 
L 27.484375 33.5 
Q 16.453125 35.6875 11.515625 40.375 
Q 6.59375 45.0625 6.59375 53.421875 
Q 6.59375 63.09375 13.40625 68.65625 
Q 20.21875 74.21875 32.171875 74.21875 
Q 37.3125 74.21875 42.625 73.28125 
Q 47.953125 72.359375 53.515625 70.515625 
z
" id="DejaVuSans-53"/>
    </defs>
    <g transform="translate(369.479935 208.666383)scale(0.17 -0.17)">
     <use xlink:href="#DejaVuSans-41"/>
     <use x="68.408203" xlink:href="#DejaVuSans-4c"/>
     <use x="124.121094" xlink:href="#DejaVuSans-50"/>
     <use x="184.423828" xlink:href="#DejaVuSans-53"/>
    </g>
   </g>
   <g id="text_17">
    <!-- DASA -->
    <defs>
     <path d="M 19.671875 64.796875 
L 19.671875 8.109375 
L 31.59375 8.109375 
Q 46.6875 8.109375 53.6875 14.9375 
Q 60.6875 21.78125 60.6875 36.53125 
Q 60.6875 51.171875 53.6875 57.984375 
Q 46.6875 64.796875 31.59375 64.796875 
z
M 9.8125 72.90625 
L 30.078125 72.90625 
Q 51.265625 72.90625 61.171875 64.09375 
Q 71.09375 55.28125 71.09375 36.53125 
Q 71.09375 17.671875 61.125 8.828125 
Q 51.171875 0 30.078125 0 
L 9.8125 0 
z
" id="DejaVuSans-44"/>
    </defs>
    <g transform="translate(369.479935 165.887769)scale(0.17 -0.17)">
     <use xlink:href="#DejaVuSans-44"/>
     <use x="76.986328" xlink:href="#DejaVuSans-41"/>
     <use x="145.394531" xlink:href="#DejaVuSans-53"/>
     <use x="208.886719" xlink:href="#DejaVuSans-41"/>
    </g>
   </g>
   <g id="text_18">
    <!-- PSO -->
    <defs>
     <path d="M 39.40625 66.21875 
Q 28.65625 66.21875 22.328125 58.203125 
Q 16.015625 50.203125 16.015625 36.375 
Q 16.015625 22.609375 22.328125 14.59375 
Q 28.65625 6.59375 39.40625 6.59375 
Q 50.140625 6.59375 56.421875 14.59375 
Q 62.703125 22.609375 62.703125 36.375 
Q 62.703125 50.203125 56.421875 58.203125 
Q 50.140625 66.21875 39.40625 66.21875 
z
M 39.40625 74.21875 
Q 54.734375 74.21875 63.90625 63.9375 
Q 73.09375 53.65625 73.09375 36.375 
Q 73.09375 19.140625 63.90625 8.859375 
Q 54.734375 -1.421875 39.40625 -1.421875 
Q 24.03125 -1.421875 14.8125 8.828125 
Q 5.609375 19.09375 5.609375 36.375 
Q 5.609375 53.65625 14.8125 63.9375 
Q 24.03125 74.21875 39.40625 74.21875 
z
" id="DejaVuSans-4f"/>
    </defs>
    <g transform="translate(369.479935 123.109155)scale(0.17 -0.17)">
     <use xlink:href="#DejaVuSans-50"/>
     <use x="60.302734" xlink:href="#DejaVuSans-53"/>
     <use x="123.779297" xlink:href="#DejaVuSans-4f"/>
    </g>
   </g>
   <g id="text_19">
    <!-- Rosenbroc -->
    <defs>
     <path d="M 44.390625 34.1875 
Q 47.5625 33.109375 50.5625 29.59375 
Q 53.5625 26.078125 56.59375 19.921875 
L 66.609375 0 
L 56 0 
L 46.6875 18.703125 
Q 43.0625 26.03125 39.671875 28.421875 
Q 36.28125 30.8125 30.421875 30.8125 
L 19.671875 30.8125 
L 19.671875 0 
L 9.8125 0 
L 9.8125 72.90625 
L 32.078125 72.90625 
Q 44.578125 72.90625 50.734375 67.671875 
Q 56.890625 62.453125 56.890625 51.90625 
Q 56.890625 45.015625 53.6875 40.46875 
Q 50.484375 35.9375 44.390625 34.1875 
z
M 19.671875 64.796875 
L 19.671875 38.921875 
L 32.078125 38.921875 
Q 39.203125 38.921875 42.84375 42.21875 
Q 46.484375 45.515625 46.484375 51.90625 
Q 46.484375 58.296875 42.84375 61.546875 
Q 39.203125 64.796875 32.078125 64.796875 
z
" id="DejaVuSans-52"/>
     <path d="M 48.6875 27.296875 
Q 48.6875 37.203125 44.609375 42.84375 
Q 40.53125 48.484375 33.40625 48.484375 
Q 26.265625 48.484375 22.1875 42.84375 
Q 18.109375 37.203125 18.109375 27.296875 
Q 18.109375 17.390625 22.1875 11.75 
Q 26.265625 6.109375 33.40625 6.109375 
Q 40.53125 6.109375 44.609375 11.75 
Q 48.6875 17.390625 48.6875 27.296875 
z
M 18.109375 46.390625 
Q 20.953125 51.265625 25.265625 53.625 
Q 29.59375 56 35.59375 56 
Q 45.5625 56 51.78125 48.09375 
Q 58.015625 40.1875 58.015625 27.296875 
Q 58.015625 14.40625 51.78125 6.484375 
Q 45.5625 -1.421875 35.59375 -1.421875 
Q 29.59375 -1.421875 25.265625 0.953125 
Q 20.953125 3.328125 18.109375 8.203125 
L 18.109375 0 
L 9.078125 0 
L 9.078125 75.984375 
L 18.109375 75.984375 
z
" id="DejaVuSans-62"/>
    </defs>
    <g transform="translate(369.479935 80.330541)scale(0.17 -0.17)">
     <use xlink:href="#DejaVuSans-52"/>
     <use x="69.419922" xlink:href="#DejaVuSans-6f"/>
     <use x="130.601562" xlink:href="#DejaVuSans-73"/>
     <use x="182.701172" xlink:href="#DejaVuSans-65"/>
     <use x="244.224609" xlink:href="#DejaVuSans-6e"/>
     <use x="307.603516" xlink:href="#DejaVuSans-62"/>
     <use x="371.080078" xlink:href="#DejaVuSans-72"/>
     <use x="412.162109" xlink:href="#DejaVuSans-6f"/>
     <use x="473.34375" xlink:href="#DejaVuSans-63"/>
    </g>
   </g>
   <g id="text_20">
    <!-- best 2009 -->
    <defs>
     <path d="M 10.984375 1.515625 
L 10.984375 10.5 
Q 14.703125 8.734375 18.5 7.8125 
Q 22.3125 6.890625 25.984375 6.890625 
Q 35.75 6.890625 40.890625 13.453125 
Q 46.046875 20.015625 46.78125 33.40625 
Q 43.953125 29.203125 39.59375 26.953125 
Q 35.25 24.703125 29.984375 24.703125 
Q 19.046875 24.703125 12.671875 31.3125 
Q 6.296875 37.9375 6.296875 49.421875 
Q 6.296875 60.640625 12.9375 67.421875 
Q 19.578125 74.21875 30.609375 74.21875 
Q 43.265625 74.21875 49.921875 64.515625 
Q 56.59375 54.828125 56.59375 36.375 
Q 56.59375 19.140625 48.40625 8.859375 
Q 40.234375 -1.421875 26.421875 -1.421875 
Q 22.703125 -1.421875 18.890625 -0.6875 
Q 15.09375 0.046875 10.984375 1.515625 
z
M 30.609375 32.421875 
Q 37.25 32.421875 41.125 36.953125 
Q 45.015625 41.5 45.015625 49.421875 
Q 45.015625 57.28125 41.125 61.84375 
Q 37.25 66.40625 30.609375 66.40625 
Q 23.96875 66.40625 20.09375 61.84375 
Q 16.21875 57.28125 16.21875 49.421875 
Q 16.21875 41.5 20.09375 36.953125 
Q 23.96875 32.421875 30.609375 32.421875 
z
" id="DejaVuSans-39"/>
    </defs>
    <g transform="translate(369.479935 37.551928)scale(0.17 -0.17)">
     <use xlink:href="#DejaVuSans-62"/>
     <use x="63.476562" xlink:href="#DejaVuSans-65"/>
     <use x="125" xlink:href="#DejaVuSans-73"/>
     <use x="177.099609" xlink:href="#DejaVuSans-74"/>
     <use x="216.308594" xlink:href="#DejaVuSans-20"/>
     <use x="248.095703" xlink:href="#DejaVuSans-32"/>
     <use x="311.71875" xlink:href="#DejaVuSans-30"/>
     <use x="375.341797" xlink:href="#DejaVuSans-30"/>
     <use x="438.964844" xlink:href="#DejaVuSans-39"/>
    </g>
   </g>
   <g id="text_21">
    <!-- bbob f5, 10-D -->
    <defs>
     <path d="M 10.796875 72.90625 
L 49.515625 72.90625 
L 49.515625 64.59375 
L 19.828125 64.59375 
L 19.828125 46.734375 
Q 21.96875 47.46875 24.109375 47.828125 
Q 26.265625 48.1875 28.421875 48.1875 
Q 40.625 48.1875 47.75 41.5 
Q 54.890625 34.8125 54.890625 23.390625 
Q 54.890625 11.625 47.5625 5.09375 
Q 40.234375 -1.421875 26.90625 -1.421875 
Q 22.3125 -1.421875 17.546875 -0.640625 
Q 12.796875 0.140625 7.71875 1.703125 
L 7.71875 11.625 
Q 12.109375 9.234375 16.796875 8.0625 
Q 21.484375 6.890625 26.703125 6.890625 
Q 35.15625 6.890625 40.078125 11.328125 
Q 45.015625 15.765625 45.015625 23.390625 
Q 45.015625 31 40.078125 35.4375 
Q 35.15625 39.890625 26.703125 39.890625 
Q 22.75 39.890625 18.8125 39.015625 
Q 14.890625 38.140625 10.796875 36.28125 
z
" id="DejaVuSans-35"/>
    </defs>
    <g transform="translate(59.55864 35.290806)scale(0.102 -0.102)">
     <use xlink:href="#DejaVuSans-62"/>
     <use x="63.476562" xlink:href="#DejaVuSans-62"/>
     <use x="126.953125" xlink:href="#DejaVuSans-6f"/>
     <use x="188.134766" xlink:href="#DejaVuSans-62"/>
     <use x="251.611328" xlink:href="#DejaVuSans-20"/>
     <use x="283.398438" xlink:href="#DejaVuSans-66"/>
     <use x="318.603516" xlink:href="#DejaVuSans-35"/>
     <use x="382.226562" xlink:href="#DejaVuSans-2c"/>
     <use x="414.013672" xlink:href="#DejaVuSans-20"/>
     <use x="445.800781" xlink:href="#DejaVuSans-31"/>
     <use x="509.423828" xlink:href="#DejaVuSans-30"/>
     <use x="573.046875" xlink:href="#DejaVuSans-2d"/>
     <use x="609.130859" xlink:href="#DejaVuSans-44"/>
    </g>
    <!-- 51 targets: 100..1e-08 -->
    <defs>
     <path d="M 11.71875 12.40625 
L 22.015625 12.40625 
L 22.015625 0 
L 11.71875 0 
z
M 11.71875 51.703125 
L 22.015625 51.703125 
L 22.015625 39.3125 
L 11.71875 39.3125 
z
" id="DejaVuSans-3a"/>
    </defs>
    <g transform="translate(59.55864 46.712575)scale(0.102 -0.102)">
     <use xlink:href="#DejaVuSans-35"/>
     <use x="63.623047" xlink:href="#DejaVuSans-31"/>
     <use x="127.246094" xlink:href="#DejaVuSans-20"/>
     <use x="159.033203" xlink:href="#DejaVuSans-74"/>
     <use x="198.242188" xlink:href="#DejaVuSans-61"/>
     <use x="259.521484" xlink:href="#DejaVuSans-72"/>
     <use x="300.619141" xlink:href="#DejaVuSans-67"/>
     <use x="364.095703" xlink:href="#DejaVuSans-65"/>
     <use x="425.619141" xlink:href="#DejaVuSans-74"/>
     <use x="464.828125" xlink:href="#DejaVuSans-73"/>
     <use x="516.927734" xlink:href="#DejaVuSans-3a"/>
     <use x="550.619141" xlink:href="#DejaVuSans-20"/>
     <use x="582.40625" xlink:href="#DejaVuSans-31"/>
     <use x="646.029297" xlink:href="#DejaVuSans-30"/>
     <use x="709.652344" xlink:href="#DejaVuSans-30"/>
     <use x="773.275391" xlink:href="#DejaVuSans-2e"/>
     <use x="805.0625" xlink:href="#DejaVuSans-2e"/>
     <use x="836.849609" xlink:href="#DejaVuSans-31"/>
     <use x="900.472656" xlink:href="#DejaVuSans-65"/>
     <use x="961.996094" xlink:href="#DejaVuSans-2d"/>
     <use x="998.080078" xlink:href="#DejaVuSans-30"/>
     <use x="1061.703125" xlink:href="#DejaVuSans-38"/>
    </g>
    <!-- 15 instances -->
    <g transform="translate(59.55864 58.134344)scale(0.102 -0.102)">
     <use xlink:href="#DejaVuSans-31"/>
     <use x="63.623047" xlink:href="#DejaVuSans-35"/>
     <use x="127.246094" xlink:href="#DejaVuSans-20"/>
     <use x="159.033203" xlink:href="#DejaVuSans-69"/>
     <use x="186.816406" xlink:href="#DejaVuSans-6e"/>
     <use x="250.195312" xlink:href="#DejaVuSans-73"/>
     <use x="302.294922" xlink:href="#DejaVuSans-74"/>
     <use x="341.503906" xlink:href="#DejaVuSans-61"/>
     <use x="402.783203" xlink:href="#DejaVuSans-6e"/>
     <use x="466.162109" xlink:href="#DejaVuSans-63"/>
     <use x="521.142578" xlink:href="#DejaVuSans-65"/>
     <use x="582.666016" xlink:href="#DejaVuSans-73"/>
    </g>
   </g>
   <g id="text_22">
    <!-- v-coco-version -->
    <g style="fill:#808080;" transform="translate(191.556688 290.099912)scale(0.1 -0.1)">
     <use xlink:href="#DejaVuSans-76"/>
     <use x="59.148438" xlink:href="#DejaVuSans-2d"/>
     <use x="95.232422" xlink:href="#DejaVuSans-63"/>
     <use x="150.212891" xlink:href="#DejaVuSans-6f"/>
     <use x="211.394531" xlink:href="#DejaVuSans-63"/>
     <use x="266.375" xlink:href="#DejaVuSans-6f"/>
     <use x="327.572266" xlink:href="#DejaVuSans-2d"/>
     <use x="363.625" xlink:href="#DejaVuSans-76"/>
     <use x="422.804688" xlink:href="#DejaVuSans-65"/>
     <use x="484.328125" xlink:href="#DejaVuSans-72"/>
     <use x="525.441406" xlink:href="#DejaVuSans-73"/>
     <use x="577.541016" xlink:href="#DejaVuSans-69"/>
     <use x="605.324219" xlink:href="#DejaVuSans-6f"/>
     <use x="666.505859" xlink:href="#DejaVuSans-6e"/>
    </g>
   </g>
   <g id="text_23">
    <!-- 5 Linear slope -->
    <g transform="translate(157.64575 18.84)scale(0.2 -0.2)">
     <use xlink:href="#DejaVuSans-35"/>
     <use x="63.623047" xlink:href="#DejaVuSans-20"/>
     <use x="95.410156" xlink:href="#DejaVuSans-4c"/>
     <use x="151.123047" xlink:href="#DejaVuSans-69"/>
     <use x="178.90625" xlink:href="#DejaVuSans-6e"/>
     <use x="242.285156" xlink:href="#DejaVuSans-65"/>
     <use x="303.808594" xlink:href="#DejaVuSans-61"/>
     <use x="365.087891" xlink:href="#DejaVuSans-72"/>
     <use x="406.201172" xlink:href="#DejaVuSans-20"/>
     <use x="437.988281" xlink:href="#DejaVuSans-73"/>
     <use x="490.087891" xlink:href="#DejaVuSans-6c"/>
     <use x="517.871094" xlink:href="#DejaVuSans-6f"/>
     <use x="579.052734" xlink:href="#DejaVuSans-70"/>
     <use x="642.529297" xlink:href="#DejaVuSans-65"/>
    </g>
   </g>
  </g>
 </g>
 <defs>
  <clipPath id="peb3aad94ce">
   <rect height="270.04" width="343.864" x="56.12" y="24.84"/>
  </clipPath>
 </defs>
</svg>
