<?xml version="1.0" encoding="utf-8" standalone="no"?>
<!DOCTYPE svg PUBLIC "-//W3C//DTD SVG 1.1//EN"
  "http://www.w3.org/Graphics/SVG/1.1/DTD/svg11.dtd">
<!-- Created with matplotlib (http://matplotlib.org/) -->
<svg height="345.6pt" version="1.1" viewBox="0 0 460.8 345.6" width="460.8pt" xmlns="http://www.w3.org/2000/svg" xmlns:xlink="http://www.w3.org/1999/xlink">
 <defs>
  <style type="text/css">
*{stroke-linecap:butt;stroke-linejoin:round;}
  </style>
 </defs>
 <g id="figure_1">
  <g id="patch_1">
   <path d="M 0 345.6 
L 460.8 345.6 
L 460.8 0 
L 0 0 
z
" style="fill:#ffffff;"/>
  </g>
  <g id="axes_1">
   <g id="patch_2">
    <path d="M 56.12 294.88 
L 399.984 294.88 
L 399.984 24.84 
L 56.12 24.84 
z
" style="fill:#ffffff;"/>
   </g>
   <g id="line2d_1">
    <path d="M 75.021477 294.88 
L 75.021477 284.395046 
L 75.585622 284.395046 
L 75.585622 268.667614 
L 76.131854 268.667614 
L 76.131854 258.18266 
L 79.971009 258.18266 
L 79.971009 252.940182 
L 99.156871 252.940182 
L 99.156871 247.697705 
L 111.362135 247.697705 
L 111.362135 242.455228 
L 182.424786 242.455228 
L 182.424786 237.212751 
L 199.424424 237.212751 
L 199.424424 231.970274 
L 207.65575 231.970274 
L 207.65575 226.727797 
L 211.843945 226.727797 
L 211.843945 221.485319 
L 223.513468 221.485319 
L 223.513468 216.242842 
L 243.912886 216.242842 
L 243.912886 211.000365 
L 244.024012 211.000365 
L 244.024012 205.757888 
L 244.221351 205.757888 
L 244.221351 200.515411 
L 244.314748 200.515411 
L 244.314748 195.272933 
L 244.418791 195.272933 
L 244.418791 190.030456 
L 244.448199 190.030456 
L 244.448199 184.787979 
L 244.487544 184.787979 
L 244.487544 179.545502 
L 244.504719 179.545502 
L 244.504719 174.303025 
L 244.544869 174.303025 
L 244.544869 169.060547 
L 244.581165 169.060547 
L 244.581165 163.81807 
L 244.603026 163.81807 
L 244.603026 158.575593 
L 244.628851 158.575593 
L 244.628851 153.333116 
L 244.647564 153.333116 
L 244.647564 148.090639 
L 244.67012 148.090639 
L 244.67012 142.848162 
L 244.703165 142.848162 
L 244.703165 137.605684 
L 244.720754 137.605684 
L 244.720754 132.363207 
L 244.751081 132.363207 
L 244.751081 127.12073 
L 244.781681 127.12073 
L 244.781681 121.878253 
L 244.802695 121.878253 
L 244.802695 116.635776 
L 244.822675 116.635776 
L 244.822675 111.393298 
L 244.854955 111.393298 
L 244.854955 106.150821 
L 244.877891 106.150821 
L 244.877891 100.908344 
L 244.89604 100.908344 
L 244.89604 95.665867 
L 244.92255 95.665867 
L 244.92255 90.42339 
L 244.949549 90.42339 
L 244.949549 85.180912 
L 244.982768 85.180912 
L 244.982768 79.938435 
L 245.002863 79.938435 
L 245.002863 74.695958 
L 245.024781 74.695958 
L 245.024781 69.453481 
L 245.055631 69.453481 
L 245.055631 64.211004 
L 245.069237 64.211004 
L 245.069237 58.968526 
L 245.098752 58.968526 
L 245.098752 53.726049 
L 245.120199 53.726049 
L 245.120199 48.483572 
L 245.146861 48.483572 
L 245.146861 43.241095 
L 245.168015 43.241095 
L 245.168015 37.998618 
L 245.189434 37.998618 
L 245.189434 32.756141 
L 245.210507 32.756141 
L 245.210507 27.513663 
L 333.429677 27.513663 
" style="fill:none;stroke:#f5deb3;stroke-linecap:square;stroke-width:6;"/>
   </g>
   <g id="line2d_2">
    <defs>
     <path d="M -0 7.778175 
L 7.778175 0 
L 0 -7.778175 
L -7.778175 -0 
z
" id="m2d441999eb" style="stroke:#f5deb3;stroke-linejoin:miter;stroke-width:1.5;"/>
    </defs>
    <g>
     <use style="fill:#f5deb3;stroke:#f5deb3;stroke-linejoin:miter;stroke-width:1.5;" x="199.424424" xlink:href="#m2d441999eb" y="231.970274"/>
     <use style="fill:#f5deb3;stroke:#f5deb3;stroke-linejoin:miter;stroke-width:1.5;" x="244.802695" xlink:href="#m2d441999eb" y="116.635776"/>
     <use style="fill:#f5deb3;stroke:#f5deb3;stroke-linejoin:miter;stroke-width:1.5;" x="245.210507" xlink:href="#m2d441999eb" y="27.513663"/>
     <use style="fill:#f5deb3;stroke:#f5deb3;stroke-linejoin:miter;stroke-width:1.5;" x="245.210507" xlink:href="#m2d441999eb" y="27.513663"/>
     <use style="fill:#f5deb3;stroke:#f5deb3;stroke-linejoin:miter;stroke-width:1.5;" x="333.429677" xlink:href="#m2d441999eb" y="27.513663"/>
    </g>
   </g>
   <g id="line2d_3">
    <path style="fill:none;stroke:#f5deb3;stroke-linecap:square;stroke-width:6;"/>
    <g/>
   </g>
   <g id="line2d_4">
    <path d="M 333.429677 27.513663 
L 363.933742 32.86099 
" style="fill:none;stroke:#f5deb3;stroke-linecap:square;stroke-width:6;"/>
    <g>
     <use style="fill:#f5deb3;stroke:#f5deb3;stroke-linejoin:miter;stroke-width:1.5;" x="333.429677" xlink:href="#m2d441999eb" y="27.513663"/>
     <use style="fill:#f5deb3;stroke:#f5deb3;stroke-linejoin:miter;stroke-width:1.5;" x="363.933742" xlink:href="#m2d441999eb" y="32.86099"/>
    </g>
   </g>
   <g id="matplotlib.axis_1">
    <g id="xtick_1">
     <g id="line2d_5">
      <path clip-path="url(#p5d033f1c29)" d="M 56.12 294.88 
L 56.12 24.84 
" style="fill:none;stroke:#b0b0b0;stroke-linecap:square;stroke-width:0.8;"/>
     </g>
     <g id="line2d_6">
      <defs>
       <path d="M 0 0 
L 0 3.5 
" id="m015f2f74c0" style="stroke:#000000;stroke-width:0.8;"/>
      </defs>
      <g>
       <use style="stroke:#000000;stroke-width:0.8;" x="56.12" xlink:href="#m015f2f74c0" y="294.88"/>
      </g>
     </g>
     <g id="text_1">
      <!-- 0 -->
      <defs>
       <path d="M 31.78125 66.40625 
Q 24.171875 66.40625 20.328125 58.90625 
Q 16.5 51.421875 16.5 36.375 
Q 16.5 21.390625 20.328125 13.890625 
Q 24.171875 6.390625 31.78125 6.390625 
Q 39.453125 6.390625 43.28125 13.890625 
Q 47.125 21.390625 47.125 36.375 
Q 47.125 51.421875 43.28125 58.90625 
Q 39.453125 66.40625 31.78125 66.40625 
z
M 31.78125 74.21875 
Q 44.046875 74.21875 50.515625 64.515625 
Q 56.984375 54.828125 56.984375 36.375 
Q 56.984375 17.96875 50.515625 8.265625 
Q 44.046875 -1.421875 31.78125 -1.421875 
Q 19.53125 -1.421875 13.0625 8.265625 
Q 6.59375 17.96875 6.59375 36.375 
Q 6.59375 54.828125 13.0625 64.515625 
Q 19.53125 74.21875 31.78125 74.21875 
z
" id="DejaVuSans-30"/>
      </defs>
      <g transform="translate(49.7575 317.076875)scale(0.2 -0.2)">
       <use xlink:href="#DejaVuSans-30"/>
      </g>
     </g>
    </g>
    <g id="xtick_2">
     <g id="line2d_7">
      <path clip-path="url(#p5d033f1c29)" d="M 135.351336 294.88 
L 135.351336 24.84 
" style="fill:none;stroke:#b0b0b0;stroke-linecap:square;stroke-width:0.8;"/>
     </g>
     <g id="line2d_8">
      <g>
       <use style="stroke:#000000;stroke-width:0.8;" x="135.351336" xlink:href="#m015f2f74c0" y="294.88"/>
      </g>
     </g>
     <g id="text_2">
      <!-- 2 -->
      <defs>
       <path d="M 19.1875 8.296875 
L 53.609375 8.296875 
L 53.609375 0 
L 7.328125 0 
L 7.328125 8.296875 
Q 12.9375 14.109375 22.625 23.890625 
Q 32.328125 33.6875 34.8125 36.53125 
Q 39.546875 41.84375 41.421875 45.53125 
Q 43.3125 49.21875 43.3125 52.78125 
Q 43.3125 58.59375 39.234375 62.25 
Q 35.15625 65.921875 28.609375 65.921875 
Q 23.96875 65.921875 18.8125 64.3125 
Q 13.671875 62.703125 7.8125 59.421875 
L 7.8125 69.390625 
Q 13.765625 71.78125 18.9375 73 
Q 24.125 74.21875 28.421875 74.21875 
Q 39.75 74.21875 46.484375 68.546875 
Q 53.21875 62.890625 53.21875 53.421875 
Q 53.21875 48.921875 51.53125 44.890625 
Q 49.859375 40.875 45.40625 35.40625 
Q 44.1875 33.984375 37.640625 27.21875 
Q 31.109375 20.453125 19.1875 8.296875 
z
" id="DejaVuSans-32"/>
      </defs>
      <g transform="translate(128.988836 317.076875)scale(0.2 -0.2)">
       <use xlink:href="#DejaVuSans-32"/>
      </g>
     </g>
    </g>
    <g id="xtick_3">
     <g id="line2d_9">
      <path clip-path="url(#p5d033f1c29)" d="M 214.582673 294.88 
L 214.582673 24.84 
" style="fill:none;stroke:#b0b0b0;stroke-linecap:square;stroke-width:0.8;"/>
     </g>
     <g id="line2d_10">
      <g>
       <use style="stroke:#000000;stroke-width:0.8;" x="214.582673" xlink:href="#m015f2f74c0" y="294.88"/>
      </g>
     </g>
     <g id="text_3">
      <!-- 4 -->
      <defs>
       <path d="M 37.796875 64.3125 
L 12.890625 25.390625 
L 37.796875 25.390625 
z
M 35.203125 72.90625 
L 47.609375 72.90625 
L 47.609375 25.390625 
L 58.015625 25.390625 
L 58.015625 17.1875 
L 47.609375 17.1875 
L 47.609375 0 
L 37.796875 0 
L 37.796875 17.1875 
L 4.890625 17.1875 
L 4.890625 26.703125 
z
" id="DejaVuSans-34"/>
      </defs>
      <g transform="translate(208.220173 317.076875)scale(0.2 -0.2)">
       <use xlink:href="#DejaVuSans-34"/>
      </g>
     </g>
    </g>
    <g id="xtick_4">
     <g id="line2d_11">
      <path clip-path="url(#p5d033f1c29)" d="M 293.814009 294.88 
L 293.814009 24.84 
" style="fill:none;stroke:#b0b0b0;stroke-linecap:square;stroke-width:0.8;"/>
     </g>
     <g id="line2d_12">
      <g>
       <use style="stroke:#000000;stroke-width:0.8;" x="293.814009" xlink:href="#m015f2f74c0" y="294.88"/>
      </g>
     </g>
     <g id="text_4">
      <!-- 6 -->
      <defs>
       <path d="M 33.015625 40.375 
Q 26.375 40.375 22.484375 35.828125 
Q 18.609375 31.296875 18.609375 23.390625 
Q 18.609375 15.53125 22.484375 10.953125 
Q 26.375 6.390625 33.015625 6.390625 
Q 39.65625 6.390625 43.53125 10.953125 
Q 47.40625 15.53125 47.40625 23.390625 
Q 47.40625 31.296875 43.53125 35.828125 
Q 39.65625 40.375 33.015625 40.375 
z
M 52.59375 71.296875 
L 52.59375 62.3125 
Q 48.875 64.0625 45.09375 64.984375 
Q 41.3125 65.921875 37.59375 65.921875 
Q 27.828125 65.921875 22.671875 59.328125 
Q 17.53125 52.734375 16.796875 39.40625 
Q 19.671875 43.65625 24.015625 45.921875 
Q 28.375 48.1875 33.59375 48.1875 
Q 44.578125 48.1875 50.953125 41.515625 
Q 57.328125 34.859375 57.328125 23.390625 
Q 57.328125 12.15625 50.6875 5.359375 
Q 44.046875 -1.421875 33.015625 -1.421875 
Q 20.359375 -1.421875 13.671875 8.265625 
Q 6.984375 17.96875 6.984375 36.375 
Q 6.984375 53.65625 15.1875 63.9375 
Q 23.390625 74.21875 37.203125 74.21875 
Q 40.921875 74.21875 44.703125 73.484375 
Q 48.484375 72.75 52.59375 71.296875 
z
" id="DejaVuSans-36"/>
      </defs>
      <g transform="translate(287.451509 317.076875)scale(0.2 -0.2)">
       <use xlink:href="#DejaVuSans-36"/>
      </g>
     </g>
    </g>
    <g id="xtick_5">
     <g id="line2d_13">
      <path clip-path="url(#p5d033f1c29)" d="M 373.045346 294.88 
L 373.045346 24.84 
" style="fill:none;stroke:#b0b0b0;stroke-linecap:square;stroke-width:0.8;"/>
     </g>
     <g id="line2d_14">
      <g>
       <use style="stroke:#000000;stroke-width:0.8;" x="373.045346" xlink:href="#m015f2f74c0" y="294.88"/>
      </g>
     </g>
     <g id="text_5">
      <!-- 8 -->
      <defs>
       <path d="M 31.78125 34.625 
Q 24.75 34.625 20.71875 30.859375 
Q 16.703125 27.09375 16.703125 20.515625 
Q 16.703125 13.921875 20.71875 10.15625 
Q 24.75 6.390625 31.78125 6.390625 
Q 38.8125 6.390625 42.859375 10.171875 
Q 46.921875 13.96875 46.921875 20.515625 
Q 46.921875 27.09375 42.890625 30.859375 
Q 38.875 34.625 31.78125 34.625 
z
M 21.921875 38.8125 
Q 15.578125 40.375 12.03125 44.71875 
Q 8.5 49.078125 8.5 55.328125 
Q 8.5 64.0625 14.71875 69.140625 
Q 20.953125 74.21875 31.78125 74.21875 
Q 42.671875 74.21875 48.875 69.140625 
Q 55.078125 64.0625 55.078125 55.328125 
Q 55.078125 49.078125 51.53125 44.71875 
Q 48 40.375 41.703125 38.8125 
Q 48.828125 37.15625 52.796875 32.3125 
Q 56.78125 27.484375 56.78125 20.515625 
Q 56.78125 9.90625 50.3125 4.234375 
Q 43.84375 -1.421875 31.78125 -1.421875 
Q 19.734375 -1.421875 13.25 4.234375 
Q 6.78125 9.90625 6.78125 20.515625 
Q 6.78125 27.484375 10.78125 32.3125 
Q 14.796875 37.15625 21.921875 38.8125 
z
M 18.3125 54.390625 
Q 18.3125 48.734375 21.84375 45.5625 
Q 25.390625 42.390625 31.78125 42.390625 
Q 38.140625 42.390625 41.71875 45.5625 
Q 45.3125 48.734375 45.3125 54.390625 
Q 45.3125 60.0625 41.71875 63.234375 
Q 38.140625 66.40625 31.78125 66.40625 
Q 25.390625 66.40625 21.84375 63.234375 
Q 18.3125 60.0625 18.3125 54.390625 
z
" id="DejaVuSans-38"/>
      </defs>
      <g transform="translate(366.682846 317.076875)scale(0.2 -0.2)">
       <use xlink:href="#DejaVuSans-38"/>
      </g>
     </g>
    </g>
    <g id="text_6">
     <!-- log10(# f-evals / dimension) -->
     <defs>
      <path d="M 9.421875 75.984375 
L 18.40625 75.984375 
L 18.40625 0 
L 9.421875 0 
z
" id="DejaVuSans-6c"/>
      <path d="M 30.609375 48.390625 
Q 23.390625 48.390625 19.1875 42.75 
Q 14.984375 37.109375 14.984375 27.296875 
Q 14.984375 17.484375 19.15625 11.84375 
Q 23.34375 6.203125 30.609375 6.203125 
Q 37.796875 6.203125 41.984375 11.859375 
Q 46.1875 17.53125 46.1875 27.296875 
Q 46.1875 37.015625 41.984375 42.703125 
Q 37.796875 48.390625 30.609375 48.390625 
z
M 30.609375 56 
Q 42.328125 56 49.015625 48.375 
Q 55.71875 40.765625 55.71875 27.296875 
Q 55.71875 13.875 49.015625 6.21875 
Q 42.328125 -1.421875 30.609375 -1.421875 
Q 18.84375 -1.421875 12.171875 6.21875 
Q 5.515625 13.875 5.515625 27.296875 
Q 5.515625 40.765625 12.171875 48.375 
Q 18.84375 56 30.609375 56 
z
" id="DejaVuSans-6f"/>
      <path d="M 45.40625 27.984375 
Q 45.40625 37.75 41.375 43.109375 
Q 37.359375 48.484375 30.078125 48.484375 
Q 22.859375 48.484375 18.828125 43.109375 
Q 14.796875 37.75 14.796875 27.984375 
Q 14.796875 18.265625 18.828125 12.890625 
Q 22.859375 7.515625 30.078125 7.515625 
Q 37.359375 7.515625 41.375 12.890625 
Q 45.40625 18.265625 45.40625 27.984375 
z
M 54.390625 6.78125 
Q 54.390625 -7.171875 48.1875 -13.984375 
Q 42 -20.796875 29.203125 -20.796875 
Q 24.46875 -20.796875 20.265625 -20.09375 
Q 16.0625 -19.390625 12.109375 -17.921875 
L 12.109375 -9.1875 
Q 16.0625 -11.328125 19.921875 -12.34375 
Q 23.78125 -13.375 27.78125 -13.375 
Q 36.625 -13.375 41.015625 -8.765625 
Q 45.40625 -4.15625 45.40625 5.171875 
L 45.40625 9.625 
Q 42.625 4.78125 38.28125 2.390625 
Q 33.9375 0 27.875 0 
Q 17.828125 0 11.671875 7.65625 
Q 5.515625 15.328125 5.515625 27.984375 
Q 5.515625 40.671875 11.671875 48.328125 
Q 17.828125 56 27.875 56 
Q 33.9375 56 38.28125 53.609375 
Q 42.625 51.21875 45.40625 46.390625 
L 45.40625 54.6875 
L 54.390625 54.6875 
z
" id="DejaVuSans-67"/>
      <path d="M 12.40625 8.296875 
L 28.515625 8.296875 
L 28.515625 63.921875 
L 10.984375 60.40625 
L 10.984375 69.390625 
L 28.421875 72.90625 
L 38.28125 72.90625 
L 38.28125 8.296875 
L 54.390625 8.296875 
L 54.390625 0 
L 12.40625 0 
z
" id="DejaVuSans-31"/>
      <path d="M 31 75.875 
Q 24.46875 64.65625 21.28125 53.65625 
Q 18.109375 42.671875 18.109375 31.390625 
Q 18.109375 20.125 21.3125 9.0625 
Q 24.515625 -2 31 -13.1875 
L 23.1875 -13.1875 
Q 15.875 -1.703125 12.234375 9.375 
Q 8.59375 20.453125 8.59375 31.390625 
Q 8.59375 42.28125 12.203125 53.3125 
Q 15.828125 64.359375 23.1875 75.875 
z
" id="DejaVuSans-28"/>
      <path d="M 51.125 44 
L 36.921875 44 
L 32.8125 27.6875 
L 47.125 27.6875 
z
M 43.796875 71.78125 
L 38.71875 51.515625 
L 52.984375 51.515625 
L 58.109375 71.78125 
L 65.921875 71.78125 
L 60.890625 51.515625 
L 76.125 51.515625 
L 76.125 44 
L 58.984375 44 
L 54.984375 27.6875 
L 70.515625 27.6875 
L 70.515625 20.21875 
L 53.078125 20.21875 
L 48 0 
L 40.1875 0 
L 45.21875 20.21875 
L 30.90625 20.21875 
L 25.875 0 
L 18.015625 0 
L 23.09375 20.21875 
L 7.71875 20.21875 
L 7.71875 27.6875 
L 24.90625 27.6875 
L 29 44 
L 13.28125 44 
L 13.28125 51.515625 
L 30.90625 51.515625 
L 35.890625 71.78125 
z
" id="DejaVuSans-23"/>
      <path id="DejaVuSans-20"/>
      <path d="M 37.109375 75.984375 
L 37.109375 68.5 
L 28.515625 68.5 
Q 23.6875 68.5 21.796875 66.546875 
Q 19.921875 64.59375 19.921875 59.515625 
L 19.921875 54.6875 
L 34.71875 54.6875 
L 34.71875 47.703125 
L 19.921875 47.703125 
L 19.921875 0 
L 10.890625 0 
L 10.890625 47.703125 
L 2.296875 47.703125 
L 2.296875 54.6875 
L 10.890625 54.6875 
L 10.890625 58.5 
Q 10.890625 67.625 15.140625 71.796875 
Q 19.390625 75.984375 28.609375 75.984375 
z
" id="DejaVuSans-66"/>
      <path d="M 4.890625 31.390625 
L 31.203125 31.390625 
L 31.203125 23.390625 
L 4.890625 23.390625 
z
" id="DejaVuSans-2d"/>
      <path d="M 56.203125 29.59375 
L 56.203125 25.203125 
L 14.890625 25.203125 
Q 15.484375 15.921875 20.484375 11.0625 
Q 25.484375 6.203125 34.421875 6.203125 
Q 39.59375 6.203125 44.453125 7.46875 
Q 49.3125 8.734375 54.109375 11.28125 
L 54.109375 2.78125 
Q 49.265625 0.734375 44.1875 -0.34375 
Q 39.109375 -1.421875 33.890625 -1.421875 
Q 20.796875 -1.421875 13.15625 6.1875 
Q 5.515625 13.8125 5.515625 26.8125 
Q 5.515625 40.234375 12.765625 48.109375 
Q 20.015625 56 32.328125 56 
Q 43.359375 56 49.78125 48.890625 
Q 56.203125 41.796875 56.203125 29.59375 
z
M 47.21875 32.234375 
Q 47.125 39.59375 43.09375 43.984375 
Q 39.0625 48.390625 32.421875 48.390625 
Q 24.90625 48.390625 20.390625 44.140625 
Q 15.875 39.890625 15.1875 32.171875 
z
" id="DejaVuSans-65"/>
      <path d="M 2.984375 54.6875 
L 12.5 54.6875 
L 29.59375 8.796875 
L 46.6875 54.6875 
L 56.203125 54.6875 
L 35.6875 0 
L 23.484375 0 
z
" id="DejaVuSans-76"/>
      <path d="M 34.28125 27.484375 
Q 23.390625 27.484375 19.1875 25 
Q 14.984375 22.515625 14.984375 16.5 
Q 14.984375 11.71875 18.140625 8.90625 
Q 21.296875 6.109375 26.703125 6.109375 
Q 34.1875 6.109375 38.703125 11.40625 
Q 43.21875 16.703125 43.21875 25.484375 
L 43.21875 27.484375 
z
M 52.203125 31.203125 
L 52.203125 0 
L 43.21875 0 
L 43.21875 8.296875 
Q 40.140625 3.328125 35.546875 0.953125 
Q 30.953125 -1.421875 24.3125 -1.421875 
Q 15.921875 -1.421875 10.953125 3.296875 
Q 6 8.015625 6 15.921875 
Q 6 25.140625 12.171875 29.828125 
Q 18.359375 34.515625 30.609375 34.515625 
L 43.21875 34.515625 
L 43.21875 35.40625 
Q 43.21875 41.609375 39.140625 45 
Q 35.0625 48.390625 27.6875 48.390625 
Q 23 48.390625 18.546875 47.265625 
Q 14.109375 46.140625 10.015625 43.890625 
L 10.015625 52.203125 
Q 14.9375 54.109375 19.578125 55.046875 
Q 24.21875 56 28.609375 56 
Q 40.484375 56 46.34375 49.84375 
Q 52.203125 43.703125 52.203125 31.203125 
z
" id="DejaVuSans-61"/>
      <path d="M 44.28125 53.078125 
L 44.28125 44.578125 
Q 40.484375 46.53125 36.375 47.5 
Q 32.28125 48.484375 27.875 48.484375 
Q 21.1875 48.484375 17.84375 46.4375 
Q 14.5 44.390625 14.5 40.28125 
Q 14.5 37.15625 16.890625 35.375 
Q 19.28125 33.59375 26.515625 31.984375 
L 29.59375 31.296875 
Q 39.15625 29.25 43.1875 25.515625 
Q 47.21875 21.78125 47.21875 15.09375 
Q 47.21875 7.46875 41.1875 3.015625 
Q 35.15625 -1.421875 24.609375 -1.421875 
Q 20.21875 -1.421875 15.453125 -0.5625 
Q 10.6875 0.296875 5.421875 2 
L 5.421875 11.28125 
Q 10.40625 8.6875 15.234375 7.390625 
Q 20.0625 6.109375 24.8125 6.109375 
Q 31.15625 6.109375 34.5625 8.28125 
Q 37.984375 10.453125 37.984375 14.40625 
Q 37.984375 18.0625 35.515625 20.015625 
Q 33.0625 21.96875 24.703125 23.78125 
L 21.578125 24.515625 
Q 13.234375 26.265625 9.515625 29.90625 
Q 5.8125 33.546875 5.8125 39.890625 
Q 5.8125 47.609375 11.28125 51.796875 
Q 16.75 56 26.8125 56 
Q 31.78125 56 36.171875 55.265625 
Q 40.578125 54.546875 44.28125 53.078125 
z
" id="DejaVuSans-73"/>
      <path d="M 25.390625 72.90625 
L 33.6875 72.90625 
L 8.296875 -9.28125 
L 0 -9.28125 
z
" id="DejaVuSans-2f"/>
      <path d="M 45.40625 46.390625 
L 45.40625 75.984375 
L 54.390625 75.984375 
L 54.390625 0 
L 45.40625 0 
L 45.40625 8.203125 
Q 42.578125 3.328125 38.25 0.953125 
Q 33.9375 -1.421875 27.875 -1.421875 
Q 17.96875 -1.421875 11.734375 6.484375 
Q 5.515625 14.40625 5.515625 27.296875 
Q 5.515625 40.1875 11.734375 48.09375 
Q 17.96875 56 27.875 56 
Q 33.9375 56 38.25 53.625 
Q 42.578125 51.265625 45.40625 46.390625 
z
M 14.796875 27.296875 
Q 14.796875 17.390625 18.875 11.75 
Q 22.953125 6.109375 30.078125 6.109375 
Q 37.203125 6.109375 41.296875 11.75 
Q 45.40625 17.390625 45.40625 27.296875 
Q 45.40625 37.203125 41.296875 42.84375 
Q 37.203125 48.484375 30.078125 48.484375 
Q 22.953125 48.484375 18.875 42.84375 
Q 14.796875 37.203125 14.796875 27.296875 
z
" id="DejaVuSans-64"/>
      <path d="M 9.421875 54.6875 
L 18.40625 54.6875 
L 18.40625 0 
L 9.421875 0 
z
M 9.421875 75.984375 
L 18.40625 75.984375 
L 18.40625 64.59375 
L 9.421875 64.59375 
z
" id="DejaVuSans-69"/>
      <path d="M 52 44.1875 
Q 55.375 50.25 60.0625 53.125 
Q 64.75 56 71.09375 56 
Q 79.640625 56 84.28125 50.015625 
Q 88.921875 44.046875 88.921875 33.015625 
L 88.921875 0 
L 79.890625 0 
L 79.890625 32.71875 
Q 79.890625 40.578125 77.09375 44.375 
Q 74.3125 48.1875 68.609375 48.1875 
Q 61.625 48.1875 57.5625 43.546875 
Q 53.515625 38.921875 53.515625 30.90625 
L 53.515625 0 
L 44.484375 0 
L 44.484375 32.71875 
Q 44.484375 40.625 41.703125 44.40625 
Q 38.921875 48.1875 33.109375 48.1875 
Q 26.21875 48.1875 22.15625 43.53125 
Q 18.109375 38.875 18.109375 30.90625 
L 18.109375 0 
L 9.078125 0 
L 9.078125 54.6875 
L 18.109375 54.6875 
L 18.109375 46.1875 
Q 21.1875 51.21875 25.484375 53.609375 
Q 29.78125 56 35.6875 56 
Q 41.65625 56 45.828125 52.96875 
Q 50 49.953125 52 44.1875 
z
" id="DejaVuSans-6d"/>
      <path d="M 54.890625 33.015625 
L 54.890625 0 
L 45.90625 0 
L 45.90625 32.71875 
Q 45.90625 40.484375 42.875 44.328125 
Q 39.84375 48.1875 33.796875 48.1875 
Q 26.515625 48.1875 22.3125 43.546875 
Q 18.109375 38.921875 18.109375 30.90625 
L 18.109375 0 
L 9.078125 0 
L 9.078125 54.6875 
L 18.109375 54.6875 
L 18.109375 46.1875 
Q 21.34375 51.125 25.703125 53.5625 
Q 30.078125 56 35.796875 56 
Q 45.21875 56 50.046875 50.171875 
Q 54.890625 44.34375 54.890625 33.015625 
z
" id="DejaVuSans-6e"/>
      <path d="M 8.015625 75.875 
L 15.828125 75.875 
Q 23.140625 64.359375 26.78125 53.3125 
Q 30.421875 42.28125 30.421875 31.390625 
Q 30.421875 20.453125 26.78125 9.375 
Q 23.140625 -1.703125 15.828125 -13.1875 
L 8.015625 -13.1875 
Q 14.5 -2 17.703125 9.0625 
Q 20.90625 20.125 20.90625 31.390625 
Q 20.90625 42.671875 17.703125 53.65625 
Q 14.5 64.65625 8.015625 75.875 
z
" id="DejaVuSans-29"/>
     </defs>
     <g transform="translate(107.211219 338.153594)scale(0.17 -0.17)">
      <use xlink:href="#DejaVuSans-6c"/>
      <use x="27.783203" xlink:href="#DejaVuSans-6f"/>
      <use x="88.964844" xlink:href="#DejaVuSans-67"/>
      <use x="152.441406" xlink:href="#DejaVuSans-31"/>
      <use x="216.064453" xlink:href="#DejaVuSans-30"/>
      <use x="279.6875" xlink:href="#DejaVuSans-28"/>
      <use x="318.701172" xlink:href="#DejaVuSans-23"/>
      <use x="402.490234" xlink:href="#DejaVuSans-20"/>
      <use x="434.277344" xlink:href="#DejaVuSans-66"/>
      <use x="469.404297" xlink:href="#DejaVuSans-2d"/>
      <use x="505.488281" xlink:href="#DejaVuSans-65"/>
      <use x="567.011719" xlink:href="#DejaVuSans-76"/>
      <use x="626.191406" xlink:href="#DejaVuSans-61"/>
      <use x="687.470703" xlink:href="#DejaVuSans-6c"/>
      <use x="715.253906" xlink:href="#DejaVuSans-73"/>
      <use x="767.353516" xlink:href="#DejaVuSans-20"/>
      <use x="799.140625" xlink:href="#DejaVuSans-2f"/>
      <use x="832.832031" xlink:href="#DejaVuSans-20"/>
      <use x="864.619141" xlink:href="#DejaVuSans-64"/>
      <use x="928.095703" xlink:href="#DejaVuSans-69"/>
      <use x="955.878906" xlink:href="#DejaVuSans-6d"/>
      <use x="1053.291016" xlink:href="#DejaVuSans-65"/>
      <use x="1114.814453" xlink:href="#DejaVuSans-6e"/>
      <use x="1178.193359" xlink:href="#DejaVuSans-73"/>
      <use x="1230.292969" xlink:href="#DejaVuSans-69"/>
      <use x="1258.076172" xlink:href="#DejaVuSans-6f"/>
      <use x="1319.257812" xlink:href="#DejaVuSans-6e"/>
      <use x="1382.636719" xlink:href="#DejaVuSans-29"/>
     </g>
    </g>
   </g>
   <g id="matplotlib.axis_2">
    <g id="ytick_1">
     <g id="line2d_15">
      <path clip-path="url(#p5d033f1c29)" d="M 56.12 294.88 
L 399.984 294.88 
" style="fill:none;stroke:#b0b0b0;stroke-linecap:square;stroke-width:0.8;"/>
     </g>
     <g id="line2d_16">
      <defs>
       <path d="M 0 0 
L -3.5 0 
" id="mde07a2f679" style="stroke:#000000;stroke-width:0.8;"/>
      </defs>
      <g>
       <use style="stroke:#000000;stroke-width:0.8;" x="56.12" xlink:href="#mde07a2f679" y="294.88"/>
      </g>
     </g>
     <g id="text_7">
      <!-- 0.0 -->
      <defs>
       <path d="M 10.6875 12.40625 
L 21 12.40625 
L 21 0 
L 10.6875 0 
z
" id="DejaVuSans-2e"/>
      </defs>
      <g transform="translate(23.675 300.95875)scale(0.16 -0.16)">
       <use xlink:href="#DejaVuSans-30"/>
       <use x="63.623047" xlink:href="#DejaVuSans-2e"/>
       <use x="95.410156" xlink:href="#DejaVuSans-30"/>
      </g>
     </g>
    </g>
    <g id="ytick_2">
     <g id="line2d_17">
      <path clip-path="url(#p5d033f1c29)" d="M 56.12 241.406733 
L 399.984 241.406733 
" style="fill:none;stroke:#b0b0b0;stroke-linecap:square;stroke-width:0.8;"/>
     </g>
     <g id="line2d_18">
      <g>
       <use style="stroke:#000000;stroke-width:0.8;" x="56.12" xlink:href="#mde07a2f679" y="241.406733"/>
      </g>
     </g>
     <g id="text_8">
      <!-- 0.2 -->
      <g transform="translate(23.675 247.485483)scale(0.16 -0.16)">
       <use xlink:href="#DejaVuSans-30"/>
       <use x="63.623047" xlink:href="#DejaVuSans-2e"/>
       <use x="95.410156" xlink:href="#DejaVuSans-32"/>
      </g>
     </g>
    </g>
    <g id="ytick_3">
     <g id="line2d_19">
      <path clip-path="url(#p5d033f1c29)" d="M 56.12 187.933465 
L 399.984 187.933465 
" style="fill:none;stroke:#b0b0b0;stroke-linecap:square;stroke-width:0.8;"/>
     </g>
     <g id="line2d_20">
      <g>
       <use style="stroke:#000000;stroke-width:0.8;" x="56.12" xlink:href="#mde07a2f679" y="187.933465"/>
      </g>
     </g>
     <g id="text_9">
      <!-- 0.4 -->
      <g transform="translate(23.675 194.012215)scale(0.16 -0.16)">
       <use xlink:href="#DejaVuSans-30"/>
       <use x="63.623047" xlink:href="#DejaVuSans-2e"/>
       <use x="95.410156" xlink:href="#DejaVuSans-34"/>
      </g>
     </g>
    </g>
    <g id="ytick_4">
     <g id="line2d_21">
      <path clip-path="url(#p5d033f1c29)" d="M 56.12 134.460198 
L 399.984 134.460198 
" style="fill:none;stroke:#b0b0b0;stroke-linecap:square;stroke-width:0.8;"/>
     </g>
     <g id="line2d_22">
      <g>
       <use style="stroke:#000000;stroke-width:0.8;" x="56.12" xlink:href="#mde07a2f679" y="134.460198"/>
      </g>
     </g>
     <g id="text_10">
      <!-- 0.6 -->
      <g transform="translate(23.675 140.538948)scale(0.16 -0.16)">
       <use xlink:href="#DejaVuSans-30"/>
       <use x="63.623047" xlink:href="#DejaVuSans-2e"/>
       <use x="95.410156" xlink:href="#DejaVuSans-36"/>
      </g>
     </g>
    </g>
    <g id="ytick_5">
     <g id="line2d_23">
      <path clip-path="url(#p5d033f1c29)" d="M 56.12 80.986931 
L 399.984 80.986931 
" style="fill:none;stroke:#b0b0b0;stroke-linecap:square;stroke-width:0.8;"/>
     </g>
     <g id="line2d_24">
      <g>
       <use style="stroke:#000000;stroke-width:0.8;" x="56.12" xlink:href="#mde07a2f679" y="80.986931"/>
      </g>
     </g>
     <g id="text_11">
      <!-- 0.8 -->
      <g transform="translate(23.675 87.065681)scale(0.16 -0.16)">
       <use xlink:href="#DejaVuSans-30"/>
       <use x="63.623047" xlink:href="#DejaVuSans-2e"/>
       <use x="95.410156" xlink:href="#DejaVuSans-38"/>
      </g>
     </g>
    </g>
    <g id="ytick_6">
     <g id="line2d_25">
      <path clip-path="url(#p5d033f1c29)" d="M 56.12 27.513663 
L 399.984 27.513663 
" style="fill:none;stroke:#b0b0b0;stroke-linecap:square;stroke-width:0.8;"/>
     </g>
     <g id="line2d_26">
      <g>
       <use style="stroke:#000000;stroke-width:0.8;" x="56.12" xlink:href="#mde07a2f679" y="27.513663"/>
      </g>
     </g>
     <g id="text_12">
      <!-- 1.0 -->
      <g transform="translate(23.675 33.592413)scale(0.16 -0.16)">
       <use xlink:href="#DejaVuSans-31"/>
       <use x="63.623047" xlink:href="#DejaVuSans-2e"/>
       <use x="95.410156" xlink:href="#DejaVuSans-30"/>
      </g>
     </g>
    </g>
    <g id="text_13">
     <!-- Fraction of function,target pairs -->
     <defs>
      <path d="M 9.8125 72.90625 
L 51.703125 72.90625 
L 51.703125 64.59375 
L 19.671875 64.59375 
L 19.671875 43.109375 
L 48.578125 43.109375 
L 48.578125 34.8125 
L 19.671875 34.8125 
L 19.671875 0 
L 9.8125 0 
z
" id="DejaVuSans-46"/>
      <path d="M 41.109375 46.296875 
Q 39.59375 47.171875 37.8125 47.578125 
Q 36.03125 48 33.890625 48 
Q 26.265625 48 22.1875 43.046875 
Q 18.109375 38.09375 18.109375 28.8125 
L 18.109375 0 
L 9.078125 0 
L 9.078125 54.6875 
L 18.109375 54.6875 
L 18.109375 46.1875 
Q 20.953125 51.171875 25.484375 53.578125 
Q 30.03125 56 36.53125 56 
Q 37.453125 56 38.578125 55.875 
Q 39.703125 55.765625 41.0625 55.515625 
z
" id="DejaVuSans-72"/>
      <path d="M 48.78125 52.59375 
L 48.78125 44.1875 
Q 44.96875 46.296875 41.140625 47.34375 
Q 37.3125 48.390625 33.40625 48.390625 
Q 24.65625 48.390625 19.8125 42.84375 
Q 14.984375 37.3125 14.984375 27.296875 
Q 14.984375 17.28125 19.8125 11.734375 
Q 24.65625 6.203125 33.40625 6.203125 
Q 37.3125 6.203125 41.140625 7.25 
Q 44.96875 8.296875 48.78125 10.40625 
L 48.78125 2.09375 
Q 45.015625 0.34375 40.984375 -0.53125 
Q 36.96875 -1.421875 32.421875 -1.421875 
Q 20.0625 -1.421875 12.78125 6.34375 
Q 5.515625 14.109375 5.515625 27.296875 
Q 5.515625 40.671875 12.859375 48.328125 
Q 20.21875 56 33.015625 56 
Q 37.15625 56 41.109375 55.140625 
Q 45.0625 54.296875 48.78125 52.59375 
z
" id="DejaVuSans-63"/>
      <path d="M 18.3125 70.21875 
L 18.3125 54.6875 
L 36.8125 54.6875 
L 36.8125 47.703125 
L 18.3125 47.703125 
L 18.3125 18.015625 
Q 18.3125 11.328125 20.140625 9.421875 
Q 21.96875 7.515625 27.59375 7.515625 
L 36.8125 7.515625 
L 36.8125 0 
L 27.59375 0 
Q 17.1875 0 13.234375 3.875 
Q 9.28125 7.765625 9.28125 18.015625 
L 9.28125 47.703125 
L 2.6875 47.703125 
L 2.6875 54.6875 
L 9.28125 54.6875 
L 9.28125 70.21875 
z
" id="DejaVuSans-74"/>
      <path d="M 8.5 21.578125 
L 8.5 54.6875 
L 17.484375 54.6875 
L 17.484375 21.921875 
Q 17.484375 14.15625 20.5 10.265625 
Q 23.53125 6.390625 29.59375 6.390625 
Q 36.859375 6.390625 41.078125 11.03125 
Q 45.3125 15.671875 45.3125 23.6875 
L 45.3125 54.6875 
L 54.296875 54.6875 
L 54.296875 0 
L 45.3125 0 
L 45.3125 8.40625 
Q 42.046875 3.421875 37.71875 1 
Q 33.40625 -1.421875 27.6875 -1.421875 
Q 18.265625 -1.421875 13.375 4.4375 
Q 8.5 10.296875 8.5 21.578125 
z
M 31.109375 56 
z
" id="DejaVuSans-75"/>
      <path d="M 11.71875 12.40625 
L 22.015625 12.40625 
L 22.015625 4 
L 14.015625 -11.625 
L 7.71875 -11.625 
L 11.71875 4 
z
" id="DejaVuSans-2c"/>
      <path d="M 18.109375 8.203125 
L 18.109375 -20.796875 
L 9.078125 -20.796875 
L 9.078125 54.6875 
L 18.109375 54.6875 
L 18.109375 46.390625 
Q 20.953125 51.265625 25.265625 53.625 
Q 29.59375 56 35.59375 56 
Q 45.5625 56 51.78125 48.09375 
Q 58.015625 40.1875 58.015625 27.296875 
Q 58.015625 14.40625 51.78125 6.484375 
Q 45.5625 -1.421875 35.59375 -1.421875 
Q 29.59375 -1.421875 25.265625 0.953125 
Q 20.953125 3.328125 18.109375 8.203125 
z
M 48.6875 27.296875 
Q 48.6875 37.203125 44.609375 42.84375 
Q 40.53125 48.484375 33.40625 48.484375 
Q 26.265625 48.484375 22.1875 42.84375 
Q 18.109375 37.203125 18.109375 27.296875 
Q 18.109375 17.390625 22.1875 11.75 
Q 26.265625 6.109375 33.40625 6.109375 
Q 40.53125 6.109375 44.609375 11.75 
Q 48.6875 17.390625 48.6875 27.296875 
z
" id="DejaVuSans-70"/>
     </defs>
     <g transform="translate(16.139531 294.999375)rotate(-90)scale(0.17 -0.17)">
      <use xlink:href="#DejaVuSans-46"/>
      <use x="57.410156" xlink:href="#DejaVuSans-72"/>
      <use x="98.523438" xlink:href="#DejaVuSans-61"/>
      <use x="159.802734" xlink:href="#DejaVuSans-63"/>
      <use x="214.783203" xlink:href="#DejaVuSans-74"/>
      <use x="253.992188" xlink:href="#DejaVuSans-69"/>
      <use x="281.775391" xlink:href="#DejaVuSans-6f"/>
      <use x="342.957031" xlink:href="#DejaVuSans-6e"/>
      <use x="406.335938" xlink:href="#DejaVuSans-20"/>
      <use x="438.123047" xlink:href="#DejaVuSans-6f"/>
      <use x="499.304688" xlink:href="#DejaVuSans-66"/>
      <use x="534.509766" xlink:href="#DejaVuSans-20"/>
      <use x="566.296875" xlink:href="#DejaVuSans-66"/>
      <use x="601.501953" xlink:href="#DejaVuSans-75"/>
      <use x="664.880859" xlink:href="#DejaVuSans-6e"/>
      <use x="728.259766" xlink:href="#DejaVuSans-63"/>
      <use x="783.240234" xlink:href="#DejaVuSans-74"/>
      <use x="822.449219" xlink:href="#DejaVuSans-69"/>
      <use x="850.232422" xlink:href="#DejaVuSans-6f"/>
      <use x="911.414062" xlink:href="#DejaVuSans-6e"/>
      <use x="974.792969" xlink:href="#DejaVuSans-2c"/>
      <use x="1006.580078" xlink:href="#DejaVuSans-74"/>
      <use x="1045.789062" xlink:href="#DejaVuSans-61"/>
      <use x="1107.068359" xlink:href="#DejaVuSans-72"/>
      <use x="1148.166016" xlink:href="#DejaVuSans-67"/>
      <use x="1211.642578" xlink:href="#DejaVuSans-65"/>
      <use x="1273.166016" xlink:href="#DejaVuSans-74"/>
      <use x="1312.375" xlink:href="#DejaVuSans-20"/>
      <use x="1344.162109" xlink:href="#DejaVuSans-70"/>
      <use x="1407.638672" xlink:href="#DejaVuSans-61"/>
      <use x="1468.917969" xlink:href="#DejaVuSans-69"/>
      <use x="1496.701172" xlink:href="#DejaVuSans-72"/>
      <use x="1537.814453" xlink:href="#DejaVuSans-73"/>
     </g>
    </g>
   </g>
   <g id="line2d_27">
    <defs>
     <path d="M 0 1.5 
C 0.397805 1.5 0.77937 1.341951 1.06066 1.06066 
C 1.341951 0.77937 1.5 0.397805 1.5 0 
C 1.5 -0.397805 1.341951 -0.77937 1.06066 -1.06066 
C 0.77937 -1.341951 0.397805 -1.5 0 -1.5 
C -0.397805 -1.5 -0.77937 -1.341951 -1.06066 -1.06066 
C -1.341951 -0.77937 -1.5 -0.397805 -1.5 0 
C -1.5 0.397805 -1.341951 0.77937 -1.06066 1.06066 
C -0.77937 1.341951 -0.397805 1.5 0 1.5 
z
" id="m6eed771efe" style="stroke:#f5deb3;"/>
    </defs>
    <g>
     <use style="fill:#f5deb3;stroke:#f5deb3;" x="245.210507" xlink:href="#m6eed771efe" y="27.513663"/>
     <use style="fill:#f5deb3;stroke:#f5deb3;" x="245.210507" xlink:href="#m6eed771efe" y="27.513663"/>
    </g>
   </g>
   <g id="line2d_28">
    <defs>
     <path d="M 0 1.5 
C 0.397805 1.5 0.77937 1.341951 1.06066 1.06066 
C 1.341951 0.77937 1.5 0.397805 1.5 0 
C 1.5 -0.397805 1.341951 -0.77937 1.06066 -1.06066 
C 0.77937 -1.341951 0.397805 -1.5 0 -1.5 
C -0.397805 -1.5 -0.77937 -1.341951 -1.06066 -1.06066 
C -1.341951 -0.77937 -1.5 -0.397805 -1.5 0 
C -1.5 0.397805 -1.341951 0.77937 -1.06066 1.06066 
C -0.77937 1.341951 -0.397805 1.5 0 1.5 
z
" id="m7c04e50923" style="stroke:#000080;"/>
    </defs>
    <g>
     <use style="fill:#000080;stroke:#000080;" x="316.24414" xlink:href="#m7c04e50923" y="27.513663"/>
     <use style="fill:#000080;stroke:#000080;" x="316.24414" xlink:href="#m7c04e50923" y="27.513663"/>
    </g>
   </g>
   <g id="line2d_29">
    <path d="M 130.286722 294.88 
L 130.286722 292.258761 
L 134.359835 292.258761 
L 134.359835 291.210266 
L 139.395721 291.210266 
L 139.46359 288.589027 
L 140.309468 288.589027 
L 140.309468 285.967789 
L 141.140296 285.967789 
L 141.177124 282.298055 
L 142.858122 282.298055 
L 142.858122 281.249559 
L 143.199478 281.249559 
L 143.199478 277.579825 
L 144.631866 277.579825 
L 144.631866 277.055578 
L 145.184681 277.055578 
L 145.184681 274.958587 
L 145.473683 274.958587 
L 145.473683 273.910091 
L 146.565541 273.910091 
L 146.565541 272.861596 
L 147.259627 272.861596 
L 147.259627 270.764605 
L 147.532997 270.764605 
L 147.566865 269.716109 
L 148.311781 269.716109 
L 148.392593 264.99788 
L 149.508512 264.99788 
L 149.508512 264.473632 
L 150.139069 264.473632 
L 150.139069 263.425137 
L 150.44231 263.425137 
L 150.44231 259.755403 
L 151.449949 259.755403 
L 151.449949 258.18266 
L 151.948869 258.18266 
L 152.001243 256.609917 
L 152.718216 256.609917 
L 152.718216 256.085669 
L 152.892886 256.085669 
L 152.892886 255.561421 
L 153.47264 255.561421 
L 153.47264 255.037173 
L 154.056712 255.037173 
L 154.056712 253.988678 
L 156.063807 253.988678 
L 156.063807 253.46443 
L 156.421403 253.46443 
L 156.421403 252.940182 
L 161.539475 252.940182 
L 161.539475 251.891687 
L 163.772442 251.891687 
L 163.772442 251.367439 
L 164.298566 251.367439 
L 164.298566 249.794696 
L 165.274682 249.794696 
L 165.274682 249.270448 
L 165.722129 249.270448 
L 165.722129 248.746201 
L 166.850348 248.746201 
L 166.850348 247.697705 
L 171.371289 247.697705 
L 171.371289 247.173458 
L 172.699084 247.173458 
L 172.699084 246.64921 
L 174.643981 246.64921 
L 174.643981 245.600714 
L 175.567186 245.600714 
L 175.580473 244.552219 
L 176.686387 244.552219 
L 176.686387 243.503724 
L 178.462788 243.503724 
L 178.462788 242.979476 
L 180.693175 242.979476 
L 180.693175 241.93098 
L 182.554786 241.93098 
L 182.554786 241.406733 
L 184.250544 241.406733 
L 184.250544 240.882485 
L 184.472777 240.882485 
L 184.472777 239.83399 
L 185.113217 239.83399 
L 185.113217 238.261246 
L 185.522337 238.261246 
L 185.522337 237.212751 
L 187.503487 237.212751 
L 187.503487 236.688503 
L 188.015516 236.688503 
L 188.015516 236.164255 
L 189.700751 236.164255 
L 189.700751 235.640008 
L 190.35878 235.640008 
L 190.35878 235.11576 
L 193.474017 235.11576 
L 193.474017 234.591512 
L 199.543596 234.591512 
L 199.543596 234.067265 
L 200.30858 234.067265 
L 200.30858 233.543017 
L 201.780106 233.543017 
L 201.780106 232.494521 
L 202.240626 232.494521 
L 202.240626 231.970274 
L 215.93336 231.970274 
L 215.93336 230.921778 
L 216.719786 230.921778 
L 216.719786 229.873283 
L 217.581154 229.873283 
L 217.581154 229.349035 
L 218.037969 229.349035 
L 218.037969 228.824787 
L 218.571613 228.824787 
L 218.571613 227.252044 
L 220.696061 227.252044 
L 220.696061 226.727797 
L 229.301214 226.727797 
L 229.301214 226.203549 
L 229.464331 226.203549 
L 229.464331 225.679301 
L 231.537997 225.679301 
L 231.537997 225.155053 
L 232.245568 225.155053 
L 232.245568 224.106558 
L 234.677769 224.106558 
L 234.677769 223.58231 
L 239.253354 223.58231 
L 239.253354 223.058063 
L 239.38694 223.058063 
L 239.48971 219.912576 
L 239.669985 219.912576 
L 239.746153 217.815585 
L 239.84847 217.815585 
L 239.949591 215.718594 
L 240.127552 215.718594 
L 240.152714 214.670099 
L 240.387326 214.670099 
L 240.436402 213.097356 
L 240.546047 213.097356 
L 240.630749 212.04886 
L 240.667279 212.04886 
L 240.763075 209.95187 
L 243.708822 209.95187 
L 243.708822 208.903374 
L 243.908099 208.903374 
L 243.968258 207.854879 
L 246.35773 207.854879 
L 246.35773 207.330631 
L 254.174944 207.330631 
L 254.174944 206.806383 
L 256.411883 206.806383 
L 256.489555 205.23364 
L 256.62867 205.23364 
L 256.737866 202.612401 
L 256.865729 202.612401 
L 256.926899 201.039658 
L 256.987662 201.039658 
L 257.024899 199.991163 
L 257.178312 199.991163 
L 257.238325 198.41842 
L 257.293473 198.41842 
L 257.362035 197.369924 
L 257.416703 197.369924 
L 257.416703 196.845677 
L 257.661334 196.845677 
L 257.661334 196.321429 
L 257.933208 196.321429 
L 257.933208 194.748686 
L 258.610207 194.748686 
L 258.610207 193.70019 
L 259.059484 193.70019 
L 259.059484 192.651695 
L 259.541675 192.651695 
L 259.541675 192.127447 
L 260.13664 192.127447 
L 260.152264 191.078952 
L 264.27867 191.078952 
L 264.361812 188.981961 
L 264.40761 188.981961 
L 264.423029 187.409218 
L 264.561647 187.409218 
L 264.660733 184.787979 
L 264.687612 184.787979 
L 264.687612 183.739484 
L 264.85723 183.739484 
L 264.85723 183.215236 
L 264.970223 183.215236 
L 265.072863 177.972759 
L 265.131333 177.972759 
L 265.174703 176.924263 
L 265.264499 176.924263 
L 265.276169 175.875768 
L 265.388429 175.875768 
L 265.491119 172.206034 
L 265.508442 172.206034 
L 265.607894 166.439309 
L 265.633325 166.439309 
L 265.734787 161.721079 
L 265.748974 161.721079 
L 265.748974 160.672584 
L 265.894331 160.672584 
L 265.894331 160.148336 
L 266.071601 160.148336 
L 266.071601 158.575593 
L 266.587894 158.575593 
L 266.587894 157.00285 
L 266.890252 157.00285 
L 266.890252 155.954354 
L 267.29803 155.954354 
L 267.29803 155.430107 
L 267.484376 155.430107 
L 267.484376 154.905859 
L 268.00955 154.905859 
L 268.00955 153.857364 
L 268.142019 153.857364 
L 268.142019 152.28462 
L 268.493679 152.28462 
L 268.493679 151.760373 
L 268.616213 151.760373 
L 268.682441 150.18763 
L 268.793385 150.18763 
L 268.892965 144.945152 
L 268.911791 144.945152 
L 268.998394 138.65418 
L 269.035563 138.65418 
L 269.091065 136.032941 
L 269.191094 136.032941 
L 269.191094 135.508693 
L 269.392207 135.508693 
L 269.473938 133.93595 
L 269.516813 133.93595 
L 269.54337 132.887455 
L 269.781179 132.887455 
L 269.834476 130.790464 
L 274.070729 130.790464 
L 274.070729 129.217721 
L 274.483019 129.217721 
L 274.543616 123.975244 
L 274.59579 123.975244 
L 274.636114 122.926748 
L 274.759746 122.926748 
L 274.796466 120.829757 
L 274.892368 120.829757 
L 274.892368 120.30551 
L 275.216396 120.30551 
L 275.216396 119.781262 
L 275.387307 119.781262 
L 275.427353 118.732766 
L 275.797865 118.732766 
L 275.885413 117.684271 
L 275.997192 117.684271 
L 275.997192 117.160023 
L 277.226034 117.160023 
L 277.290732 111.917546 
L 277.419528 111.917546 
L 277.523255 107.723564 
L 277.62643 107.723564 
L 277.714988 104.578078 
L 277.747249 104.578078 
L 277.747249 104.05383 
L 277.924052 104.05383 
L 277.924052 103.529583 
L 278.187794 103.529583 
L 278.187794 103.005335 
L 278.455705 103.005335 
L 278.455705 102.481087 
L 279.924116 102.481087 
L 280.012886 100.908344 
L 281.241511 100.908344 
L 281.241511 100.384096 
L 281.541243 100.384096 
L 281.541243 99.859849 
L 283.270667 99.859849 
L 283.349081 97.23861 
L 283.38838 97.23861 
L 283.392391 96.190115 
L 285.420849 96.190115 
L 285.511202 94.093124 
L 285.581407 94.093124 
L 285.679512 93.044628 
L 287.177521 93.044628 
L 287.279199 88.326399 
L 287.355675 88.326399 
L 287.402054 86.229408 
L 287.50387 86.229408 
L 287.583083 81.511178 
L 287.811332 81.511178 
L 287.811332 80.986931 
L 288.278641 80.986931 
L 288.278641 80.462683 
L 288.427159 80.462683 
L 288.532445 71.550472 
L 288.557829 71.550472 
L 288.574959 69.453481 
L 288.717031 69.453481 
L 288.804084 68.404985 
L 289.050302 68.404985 
L 289.050302 67.880738 
L 290.50667 67.880738 
L 290.510692 66.307995 
L 290.925337 66.307995 
L 290.925337 65.783747 
L 291.643373 65.783747 
L 291.69253 63.686756 
L 291.769459 63.686756 
L 291.867683 62.114013 
L 292.274026 62.114013 
L 292.274026 61.589765 
L 292.441687 61.589765 
L 292.441687 61.065517 
L 292.859835 61.065517 
L 292.859835 60.017022 
L 293.641254 60.017022 
L 293.641254 59.492774 
L 294.545418 59.492774 
L 294.58077 57.395783 
L 295.667228 57.395783 
L 295.772569 54.250297 
L 295.813719 54.250297 
L 295.813719 53.726049 
L 296.666117 53.726049 
L 296.767126 51.104811 
L 296.788403 51.104811 
L 296.886592 47.959324 
L 296.960049 47.959324 
L 297.029043 46.910829 
L 297.304061 46.910829 
L 297.396568 45.338086 
L 297.417074 45.338086 
L 297.478902 41.668352 
L 297.764899 41.668352 
L 297.834284 40.619856 
L 298.55692 40.619856 
L 298.55692 40.095609 
L 298.758502 40.095609 
L 298.758502 39.571361 
L 298.919051 39.571361 
L 298.919051 39.047113 
L 299.041184 39.047113 
L 299.041184 38.522865 
L 299.373732 38.522865 
L 299.386425 36.950122 
L 300.177629 36.950122 
L 300.177629 36.425875 
L 300.675005 36.425875 
L 300.675005 35.901627 
L 302.088585 35.901627 
L 302.088585 35.377379 
L 302.745224 35.377379 
L 302.844497 32.756141 
L 303.061091 32.756141 
L 303.061091 32.231893 
L 303.286246 32.231893 
L 303.286246 31.707645 
L 304.40689 31.707645 
L 304.44486 30.65915 
L 304.747591 30.65915 
L 304.747591 30.134902 
L 306.702798 30.134902 
L 306.702798 29.610654 
L 307.279355 29.610654 
L 307.335293 28.562159 
L 308.806563 28.562159 
L 308.806563 28.037911 
L 316.24414 28.037911 
L 316.24414 27.513663 
L 333.429677 27.513663 
L 333.429677 27.513663 
" style="fill:none;stroke:#000080;stroke-linecap:square;stroke-width:1.5;"/>
   </g>
   <g id="line2d_30">
    <defs>
     <path d="M 0 6 
C 1.591219 6 3.117479 5.367802 4.242641 4.242641 
C 5.367802 3.117479 6 1.591219 6 0 
C 6 -1.591219 5.367802 -3.117479 4.242641 -4.242641 
C 3.117479 -5.367802 1.591219 -6 0 -6 
C -1.591219 -6 -3.117479 -5.367802 -4.242641 -4.242641 
C -5.367802 -3.117479 -6 -1.591219 -6 0 
C -6 1.591219 -5.367802 3.117479 -4.242641 4.242641 
C -3.117479 5.367802 -1.591219 6 0 6 
z
" id="ma7745285a0" style="stroke:#000080;stroke-width:1.5;"/>
    </defs>
    <g>
     <use style="fill-opacity:0;stroke:#000080;stroke-width:1.5;" x="188.015516" xlink:href="#ma7745285a0" y="236.688503"/>
     <use style="fill-opacity:0;stroke:#000080;stroke-width:1.5;" x="256.737866" xlink:href="#ma7745285a0" y="203.660897"/>
     <use style="fill-opacity:0;stroke:#000080;stroke-width:1.5;" x="296.691767" xlink:href="#ma7745285a0" y="52.677554"/>
     <use style="fill-opacity:0;stroke:#000080;stroke-width:1.5;" x="316.24414" xlink:href="#ma7745285a0" y="27.513663"/>
     <use style="fill-opacity:0;stroke:#000080;stroke-width:1.5;" x="333.429677" xlink:href="#ma7745285a0" y="27.513663"/>
    </g>
   </g>
   <g id="line2d_31">
    <path style="fill:none;stroke:#000080;stroke-linecap:square;stroke-width:1.5;"/>
    <g/>
   </g>
   <g id="line2d_32">
    <path clip-path="url(#p5d033f1c29)" d="M 281.888505 99.859849 
" style="fill:none;stroke:#000080;stroke-linecap:square;stroke-width:1.5;"/>
    <defs>
     <path d="M -12 12 
L 12 -12 
M -12 -12 
L 12 12 
" id="mddd0ef55ce" style="stroke:#000080;stroke-width:3;"/>
    </defs>
    <g clip-path="url(#p5d033f1c29)">
     <use style="fill:#000080;stroke:#000080;stroke-width:3;" x="281.888505" xlink:href="#mddd0ef55ce" y="99.859849"/>
    </g>
   </g>
   <g id="line2d_33">
    <defs>
     <path d="M 0 1.5 
C 0.397805 1.5 0.77937 1.341951 1.06066 1.06066 
C 1.341951 0.77937 1.5 0.397805 1.5 0 
C 1.5 -0.397805 1.341951 -0.77937 1.06066 -1.06066 
C 0.77937 -1.341951 0.397805 -1.5 0 -1.5 
C -0.397805 -1.5 -0.77937 -1.341951 -1.06066 -1.06066 
C -1.341951 -0.77937 -1.5 -0.397805 -1.5 0 
C -1.5 0.397805 -1.341951 0.77937 -1.06066 1.06066 
C -0.77937 1.341951 -0.397805 1.5 0 1.5 
z
" id="m877578e46d" style="stroke:#ff00ff;"/>
    </defs>
    <g>
     <use style="fill:#ff00ff;stroke:#ff00ff;" x="370.197704" xlink:href="#m877578e46d" y="27.513663"/>
     <use style="fill:#ff00ff;stroke:#ff00ff;" x="370.197704" xlink:href="#m877578e46d" y="27.513663"/>
    </g>
   </g>
   <g id="line2d_34">
    <path d="M 120.053422 294.88 
L 120.053422 292.258761 
L 120.750735 292.258761 
L 120.750735 291.734514 
L 125.77047 291.734514 
L 125.77047 291.210266 
L 126.70543 291.210266 
L 126.70543 290.161771 
L 127.015436 290.161771 
L 127.015436 289.637523 
L 128.383964 289.637523 
L 128.383964 287.540532 
L 129.091459 287.540532 
L 129.091459 286.492036 
L 130.65231 286.492036 
L 130.65231 285.443541 
L 131.142638 285.443541 
L 131.142638 284.395046 
L 131.295765 284.395046 
L 131.295765 283.870798 
L 131.55514 283.870798 
L 131.55514 282.298055 
L 131.725909 282.298055 
L 131.789513 281.249559 
L 131.895 281.249559 
L 131.895 279.676816 
L 132.020737 279.676816 
L 132.083262 276.53133 
L 132.412946 276.53133 
L 132.412946 273.910091 
L 132.975116 273.910091 
L 133.034273 272.861596 
L 133.307682 272.861596 
L 133.307682 272.337348 
L 133.595877 272.337348 
L 133.595877 270.764605 
L 133.935458 270.764605 
L 133.935458 269.716109 
L 134.286778 269.716109 
L 134.286778 269.191862 
L 134.468842 269.191862 
L 134.468842 268.143366 
L 134.880419 268.143366 
L 134.986187 264.473632 
L 135.265096 264.473632 
L 135.351336 257.658412 
L 135.759376 257.658412 
L 135.759376 256.609917 
L 136.975487 256.609917 
L 136.975487 256.085669 
L 137.740955 256.085669 
L 137.755922 255.037173 
L 138.286251 255.037173 
L 138.286251 254.512926 
L 139.450038 254.512926 
L 139.450038 253.988678 
L 140.101866 253.988678 
L 140.101866 253.46443 
L 140.21895 253.46443 
L 140.21895 252.415935 
L 140.552786 252.415935 
L 140.5782 250.843192 
L 140.942537 250.843192 
L 140.942537 249.794696 
L 141.189383 249.794696 
L 141.189383 249.270448 
L 141.862285 249.270448 
L 141.862285 248.746201 
L 142.315836 248.746201 
L 142.315836 248.221953 
L 142.441628 248.221953 
L 142.441628 247.697705 
L 145.435429 247.697705 
L 145.435429 246.64921 
L 146.902902 246.64921 
L 146.902902 245.076467 
L 148.537105 245.076467 
L 148.537105 244.552219 
L 148.88533 244.552219 
L 148.88533 244.027971 
L 152.567074 244.027971 
L 152.567074 242.979476 
L 153.38842 242.979476 
L 153.38842 242.455228 
L 165.857047 242.455228 
L 165.857047 241.93098 
L 184.896257 241.93098 
L 184.896257 240.882485 
L 196.233126 240.882485 
L 196.233126 240.358237 
L 202.317306 240.358237 
L 202.317306 238.785494 
L 202.91163 238.785494 
L 202.91163 238.261246 
L 203.275617 238.261246 
L 203.275617 237.736999 
L 205.074615 237.736999 
L 205.074615 237.212751 
L 205.861526 237.212751 
L 205.861526 236.688503 
L 210.571907 236.688503 
L 210.571907 236.164255 
L 212.782572 236.164255 
L 212.782572 234.591512 
L 222.247764 234.591512 
L 222.247764 234.067265 
L 235.36474 234.067265 
L 235.36474 233.018769 
L 236.231539 233.018769 
L 236.231539 232.494521 
L 243.085503 232.494521 
L 243.085503 231.970274 
L 244.207488 231.970274 
L 244.207488 230.397531 
L 247.413217 230.397531 
L 247.413217 229.349035 
L 247.677279 229.349035 
L 247.677279 228.824787 
L 248.404281 228.824787 
L 248.404281 228.30054 
L 252.410747 228.30054 
L 252.410747 227.776292 
L 258.033889 227.776292 
L 258.033889 226.203549 
L 261.527909 226.203549 
L 261.527909 225.155053 
L 265.821364 225.155053 
L 265.822441 223.058063 
L 271.269687 223.058063 
L 271.269687 222.533815 
L 274.973235 222.533815 
L 274.973235 222.009567 
L 275.432156 222.009567 
L 275.432156 221.485319 
L 276.213605 221.485319 
L 276.213605 220.961072 
L 279.964218 220.961072 
L 279.964218 220.436824 
L 283.54069 220.436824 
L 283.54069 218.339833 
L 288.751618 218.339833 
L 288.765513 201.039658 
L 300.172189 201.039658 
L 300.172189 200.515411 
L 303.39407 200.515411 
L 303.399664 187.933465 
L 308.489096 187.933465 
L 308.489096 187.409218 
L 311.187809 187.409218 
L 311.191539 174.303025 
L 316.532251 174.303025 
L 316.534916 162.769575 
L 319.874906 162.769575 
L 319.874906 162.245327 
L 320.603944 162.245327 
L 320.606109 155.430107 
L 323.894181 155.430107 
L 323.895847 146.517896 
L 326.65503 146.517896 
L 326.656477 140.226923 
L 329.033468 140.226923 
L 329.034766 130.266216 
L 331.123 130.266216 
L 331.123638 127.12073 
L 332.98551 127.12073 
L 332.986521 118.732766 
L 333.429677 118.732766 
L 333.429677 118.732766 
" style="fill:none;stroke:#ff00ff;stroke-linecap:square;stroke-width:1.5;"/>
   </g>
   <g id="line2d_35">
    <defs>
     <path d="M -0 8.485281 
L 5.091169 0 
L 0 -8.485281 
L -5.091169 -0 
z
" id="mf10783c3ee" style="stroke:#ff00ff;stroke-linejoin:miter;stroke-width:1.5;"/>
    </defs>
    <g>
     <use style="fill-opacity:0;stroke:#ff00ff;stroke-linejoin:miter;stroke-width:1.5;" x="184.896257" xlink:href="#mf10783c3ee" y="240.882485"/>
     <use style="fill-opacity:0;stroke:#ff00ff;stroke-linejoin:miter;stroke-width:1.5;" x="258.033889" xlink:href="#mf10783c3ee" y="227.776292"/>
     <use style="fill-opacity:0;stroke:#ff00ff;stroke-linejoin:miter;stroke-width:1.5;" x="316.534916" xlink:href="#mf10783c3ee" y="162.769575"/>
     <use style="fill-opacity:0;stroke:#ff00ff;stroke-linejoin:miter;stroke-width:1.5;" x="332.986521" xlink:href="#mf10783c3ee" y="118.732766"/>
     <use style="fill-opacity:0;stroke:#ff00ff;stroke-linejoin:miter;stroke-width:1.5;" x="333.429677" xlink:href="#mf10783c3ee" y="118.732766"/>
    </g>
   </g>
   <g id="line2d_36">
    <path style="fill:none;stroke:#ff00ff;stroke-linecap:square;stroke-width:1.5;"/>
    <g/>
   </g>
   <g id="line2d_37">
    <path clip-path="url(#p5d033f1c29)" d="M 293.814036 201.039658 
" style="fill:none;stroke:#ff00ff;stroke-linecap:square;stroke-width:1.5;"/>
    <defs>
     <path d="M -12 12 
L 12 -12 
M -12 -12 
L 12 12 
" id="m6b3864d5b4" style="stroke:#ff00ff;stroke-width:3;"/>
    </defs>
    <g clip-path="url(#p5d033f1c29)">
     <use style="fill:#ff00ff;stroke:#ff00ff;stroke-width:3;" x="293.814036" xlink:href="#m6b3864d5b4" y="201.039658"/>
    </g>
   </g>
   <g id="line2d_38">
    <defs>
     <path d="M 0 1.5 
C 0.397805 1.5 0.77937 1.341951 1.06066 1.06066 
C 1.341951 0.77937 1.5 0.397805 1.5 0 
C 1.5 -0.397805 1.341951 -0.77937 1.06066 -1.06066 
C 0.77937 -1.341951 0.397805 -1.5 0 -1.5 
C -0.397805 -1.5 -0.77937 -1.341951 -1.06066 -1.06066 
C -1.341951 -0.77937 -1.5 -0.397805 -1.5 0 
C -1.5 0.397805 -1.341951 0.77937 -1.06066 1.06066 
C -0.77937 1.341951 -0.397805 1.5 0 1.5 
z
" id="m41fc7f626d" style="stroke:#ffa500;"/>
    </defs>
    <g>
     <use style="fill:#ffa500;stroke:#ffa500;" x="320.878909" xlink:href="#m41fc7f626d" y="111.393298"/>
     <use style="fill:#ffa500;stroke:#ffa500;" x="320.878909" xlink:href="#m41fc7f626d" y="111.393298"/>
    </g>
   </g>
   <g id="line2d_39">
    <path d="M 163.375453 294.88 
L 163.375453 294.355752 
L 163.606755 294.355752 
L 163.606755 293.307257 
L 170.570514 293.307257 
L 170.570514 291.210266 
L 172.50762 291.210266 
L 172.50762 290.161771 
L 172.948519 290.161771 
L 172.948519 287.016284 
L 175.040827 287.016284 
L 175.051103 282.298055 
L 175.212988 282.298055 
L 175.248568 279.676816 
L 175.437098 279.676816 
L 175.545573 276.53133 
L 175.582133 276.53133 
L 175.582133 276.007082 
L 175.724309 276.007082 
L 175.724309 275.482834 
L 175.888166 275.482834 
L 175.888166 273.910091 
L 176.311806 273.910091 
L 176.311806 273.385844 
L 176.471764 273.385844 
L 176.471764 270.764605 
L 176.584892 270.764605 
L 176.584892 269.716109 
L 177.037739 269.716109 
L 177.037739 267.094871 
L 178.235223 267.094871 
L 178.235223 266.570623 
L 178.539842 266.570623 
L 178.578938 262.376641 
L 179.062994 262.376641 
L 179.062994 259.755403 
L 179.210166 259.755403 
L 179.210166 259.231155 
L 179.816457 259.231155 
L 179.819053 258.18266 
L 180.200215 258.18266 
L 180.200215 257.658412 
L 180.336753 257.658412 
L 180.336753 256.609917 
L 181.972773 256.609917 
L 182.035634 255.037173 
L 183.021065 255.037173 
L 183.021065 253.988678 
L 183.146652 253.988678 
L 183.146652 252.940182 
L 187.713084 252.940182 
L 187.713084 252.415935 
L 189.788938 252.415935 
L 189.788938 251.891687 
L 190.30948 251.891687 
L 190.30948 251.367439 
L 190.608034 251.367439 
L 190.608034 249.794696 
L 191.246231 249.794696 
L 191.246231 249.270448 
L 192.137774 249.270448 
L 192.137774 248.746201 
L 192.947309 248.746201 
L 192.947309 248.221953 
L 194.303942 248.221953 
L 194.303942 247.697705 
L 196.52947 247.697705 
L 196.52947 247.173458 
L 196.6738 247.173458 
L 196.6738 246.64921 
L 197.415673 246.64921 
L 197.49993 245.076467 
L 198.971738 245.076467 
L 198.971738 244.552219 
L 199.181471 244.552219 
L 199.203356 243.503724 
L 199.757512 243.503724 
L 199.757512 242.979476 
L 200.873106 242.979476 
L 200.873106 242.455228 
L 201.179158 242.455228 
L 201.179158 241.406733 
L 201.931876 241.406733 
L 201.931876 240.882485 
L 202.688796 240.882485 
L 202.708706 239.83399 
L 203.892791 239.83399 
L 203.892791 238.261246 
L 204.085144 238.261246 
L 204.089577 237.212751 
L 204.390868 237.212751 
L 204.390868 236.688503 
L 204.744065 236.688503 
L 204.744065 236.164255 
L 205.844094 236.164255 
L 205.915425 234.067265 
L 206.719496 234.067265 
L 206.719496 233.543017 
L 207.361163 233.543017 
L 207.361163 232.494521 
L 208.125608 232.494521 
L 208.125608 231.970274 
L 208.468234 231.970274 
L 208.473879 230.921778 
L 208.633133 230.921778 
L 208.633133 229.873283 
L 208.909524 229.873283 
L 208.909524 228.824787 
L 209.218009 228.824787 
L 209.249236 227.776292 
L 209.795248 227.776292 
L 209.795248 227.252044 
L 210.006422 227.252044 
L 210.026838 226.203549 
L 210.784116 226.203549 
L 210.784116 225.155053 
L 211.997585 225.155053 
L 211.997585 224.630806 
L 212.488375 224.630806 
L 212.488375 223.58231 
L 212.60303 223.58231 
L 212.60303 222.533815 
L 212.77512 222.533815 
L 212.77512 222.009567 
L 213.172958 222.009567 
L 213.175385 220.961072 
L 213.722983 220.961072 
L 213.818934 219.388328 
L 213.900934 219.388328 
L 213.900934 218.864081 
L 214.690894 218.864081 
L 214.690894 217.815585 
L 216.121134 217.815585 
L 216.121134 216.76709 
L 216.313883 216.76709 
L 216.370266 214.145851 
L 216.46753 214.145851 
L 216.46753 213.097356 
L 216.98651 213.097356 
L 217.021783 211.000365 
L 217.265657 211.000365 
L 217.265657 210.476117 
L 218.027973 210.476117 
L 218.027973 209.95187 
L 218.151176 209.95187 
L 218.192514 207.854879 
L 218.465404 207.854879 
L 218.465404 207.330631 
L 218.632089 207.330631 
L 218.632089 206.806383 
L 218.750515 206.806383 
L 218.750515 205.757888 
L 219.099659 205.757888 
L 219.207296 204.709392 
L 219.436668 204.709392 
L 219.436668 203.660897 
L 219.757271 203.660897 
L 219.867592 200.515411 
L 220.462089 200.515411 
L 220.462089 198.942667 
L 221.738128 198.942667 
L 221.738128 197.894172 
L 221.862537 197.894172 
L 221.862537 197.369924 
L 222.462186 197.369924 
L 222.462186 196.321429 
L 222.756223 196.321429 
L 222.756223 195.272933 
L 222.904402 195.272933 
L 222.904402 194.748686 
L 223.84865 194.748686 
L 223.84865 194.224438 
L 224.30667 194.224438 
L 224.30667 193.70019 
L 225.630753 193.70019 
L 225.671532 192.651695 
L 226.59724 192.651695 
L 226.59724 192.127447 
L 226.939304 192.127447 
L 226.939304 191.603199 
L 227.371921 191.603199 
L 227.371921 191.078952 
L 227.793208 191.078952 
L 227.793208 190.030456 
L 228.558536 190.030456 
L 228.558536 188.981961 
L 229.347518 188.981961 
L 229.347518 188.457713 
L 230.807981 188.457713 
L 230.807981 187.933465 
L 246.940143 187.933465 
L 246.940143 187.409218 
L 247.057142 187.409218 
L 247.057142 186.88497 
L 247.343015 186.88497 
L 247.343015 186.360722 
L 248.241749 186.360722 
L 248.241749 185.312227 
L 250.717905 185.312227 
L 250.717905 184.787979 
L 251.309006 184.787979 
L 251.309006 183.739484 
L 251.547687 183.739484 
L 251.547687 183.215236 
L 252.335105 183.215236 
L 252.335105 182.690988 
L 255.495071 182.690988 
L 255.580938 181.118245 
L 255.630623 181.118245 
L 255.630623 180.06975 
L 255.761737 180.06975 
L 255.777268 179.021254 
L 255.918035 179.021254 
L 255.918035 178.497006 
L 256.206681 178.497006 
L 256.261615 175.875768 
L 256.45271 175.875768 
L 256.503179 174.827272 
L 256.622365 174.827272 
L 256.622365 173.778777 
L 256.75383 173.778777 
L 256.835055 170.633291 
L 256.949861 170.633291 
L 256.949861 170.109043 
L 257.198513 170.109043 
L 257.198513 169.584795 
L 257.407768 169.584795 
L 257.450731 168.5363 
L 257.556107 168.5363 
L 257.556107 168.012052 
L 258.130618 168.012052 
L 258.130618 166.963557 
L 262.874692 166.963557 
L 262.921127 165.390813 
L 263.035388 165.390813 
L 263.035388 164.866566 
L 264.830615 164.866566 
L 264.849515 163.81807 
L 265.217438 163.81807 
L 265.217438 163.293823 
L 266.790351 163.293823 
L 266.854886 162.245327 
L 266.923296 162.245327 
L 266.973831 160.672584 
L 267.133454 160.672584 
L 267.214094 159.624089 
L 267.248375 159.624089 
L 267.293836 158.575593 
L 267.432714 158.575593 
L 267.432714 158.051345 
L 267.554552 158.051345 
L 267.554552 157.527098 
L 267.668465 157.527098 
L 267.689245 156.478602 
L 267.803287 156.478602 
L 267.884513 154.381611 
L 267.960472 154.381611 
L 267.960472 153.857364 
L 271.003253 153.857364 
L 271.003253 153.333116 
L 271.16934 153.333116 
L 271.16934 152.808868 
L 271.33394 152.808868 
L 271.33394 152.28462 
L 272.103778 152.28462 
L 272.103778 151.760373 
L 272.260837 151.760373 
L 272.260837 151.236125 
L 273.692355 151.236125 
L 273.728101 150.18763 
L 273.914673 150.18763 
L 273.998205 148.614886 
L 274.112755 148.614886 
L 274.114464 147.566391 
L 274.253625 147.566391 
L 274.345755 146.517896 
L 274.402063 146.517896 
L 274.454599 145.4694 
L 276.50136 145.4694 
L 276.50136 144.420905 
L 278.952196 144.420905 
L 279.035157 142.323914 
L 281.297826 142.323914 
L 281.348157 141.275418 
L 282.349787 141.275418 
L 282.349787 140.751171 
L 282.590031 140.751171 
L 282.681618 139.178427 
L 282.750151 139.178427 
L 282.750151 138.65418 
L 284.250198 138.65418 
L 284.250198 138.129932 
L 285.603545 138.129932 
L 285.632453 137.081437 
L 285.716045 137.081437 
L 285.716045 136.557189 
L 288.133114 136.557189 
L 288.222522 133.93595 
L 288.297298 133.93595 
L 288.297298 133.411703 
L 290.339481 133.411703 
L 290.339481 132.887455 
L 292.394558 132.887455 
L 292.446419 131.314712 
L 294.106326 131.314712 
L 294.197355 129.217721 
L 295.719755 129.217721 
L 295.818852 128.169225 
L 295.850822 128.169225 
L 295.850822 127.644978 
L 297.218087 127.644978 
L 297.218087 127.12073 
L 299.832302 127.12073 
L 299.853162 125.547987 
L 301.023608 125.547987 
L 301.035354 123.975244 
L 302.174287 123.975244 
L 302.174287 123.450996 
L 303.169928 123.450996 
L 303.201333 122.4025 
L 304.131567 122.4025 
L 304.160135 120.829757 
L 305.078153 120.829757 
L 305.087985 119.781262 
L 305.917595 119.781262 
L 305.917595 119.257014 
L 306.71876 119.257014 
L 306.71876 118.732766 
L 307.541281 118.732766 
L 307.541281 117.684271 
L 308.6858 117.684271 
L 308.6858 117.160023 
L 309.721281 117.160023 
L 309.721281 116.635776 
L 310.401909 116.635776 
L 310.401909 116.111528 
L 311.666365 116.111528 
L 311.672809 114.538785 
L 312.271593 114.538785 
L 312.271593 114.014537 
L 313.393072 114.014537 
L 313.393072 113.490289 
L 316.418796 113.490289 
L 316.418796 112.966042 
L 318.995298 112.966042 
L 318.995298 112.441794 
L 320.533358 112.441794 
L 320.533358 111.917546 
L 320.878909 111.917546 
L 320.878909 111.393298 
L 333.429677 111.393298 
L 333.429677 111.393298 
" style="fill:none;stroke:#ffa500;stroke-linecap:square;stroke-width:1.5;"/>
   </g>
   <g id="line2d_40">
    <defs>
     <path d="M 0 -6 
L -1.347084 -1.854102 
L -5.706339 -1.854102 
L -2.179628 0.708204 
L -3.526712 4.854102 
L -0 2.291796 
L 3.526712 4.854102 
L 2.179628 0.708204 
L 5.706339 -1.854102 
L 1.347084 -1.854102 
z
" id="m863799dc5b" style="stroke:#ffa500;stroke-linejoin:bevel;stroke-width:1.5;"/>
    </defs>
    <g>
     <use style="fill-opacity:0;stroke:#ffa500;stroke-linejoin:bevel;stroke-width:1.5;" x="221.738128" xlink:href="#m863799dc5b" y="198.942667"/>
     <use style="fill-opacity:0;stroke:#ffa500;stroke-linejoin:bevel;stroke-width:1.5;" x="292.408325" xlink:href="#m863799dc5b" y="132.363207"/>
     <use style="fill-opacity:0;stroke:#ffa500;stroke-linejoin:bevel;stroke-width:1.5;" x="320.878909" xlink:href="#m863799dc5b" y="111.393298"/>
     <use style="fill-opacity:0;stroke:#ffa500;stroke-linejoin:bevel;stroke-width:1.5;" x="333.429677" xlink:href="#m863799dc5b" y="111.393298"/>
    </g>
   </g>
   <g id="line2d_41">
    <path style="fill:none;stroke:#ffa500;stroke-linecap:square;stroke-width:1.5;"/>
    <g/>
   </g>
   <g id="line2d_42">
    <path clip-path="url(#p5d033f1c29)" d="M 254.198341 182.690988 
" style="fill:none;stroke:#ffa500;stroke-linecap:square;stroke-width:1.5;"/>
    <defs>
     <path d="M -12 12 
L 12 -12 
M -12 -12 
L 12 12 
" id="m8dd5f00906" style="stroke:#ffa500;stroke-width:3;"/>
    </defs>
    <g clip-path="url(#p5d033f1c29)">
     <use style="fill:#ffa500;stroke:#ffa500;stroke-width:3;" x="254.198341" xlink:href="#m8dd5f00906" y="182.690988"/>
    </g>
   </g>
   <g id="line2d_43">
    <defs>
     <path d="M 0 1.5 
C 0.397805 1.5 0.77937 1.341951 1.06066 1.06066 
C 1.341951 0.77937 1.5 0.397805 1.5 0 
C 1.5 -0.397805 1.341951 -0.77937 1.06066 -1.06066 
C 0.77937 -1.341951 0.397805 -1.5 0 -1.5 
C -0.397805 -1.5 -0.77937 -1.341951 -1.06066 -1.06066 
C -1.341951 -0.77937 -1.5 -0.397805 -1.5 0 
C -1.5 0.397805 -1.341951 0.77937 -1.06066 1.06066 
C -0.77937 1.341951 -0.397805 1.5 0 1.5 
z
" id="m6a7a1b5668" style="stroke:#6495ed;"/>
    </defs>
    <g>
     <use style="fill:#6495ed;stroke:#6495ed;" x="304.87039" xlink:href="#m6a7a1b5668" y="221.485319"/>
     <use style="fill:#6495ed;stroke:#6495ed;" x="304.87039" xlink:href="#m6a7a1b5668" y="221.485319"/>
    </g>
   </g>
   <g id="line2d_44">
    <path d="M 99.015266 294.88 
L 99.015266 290.161771 
L 102.939523 290.161771 
L 102.939523 288.06478 
L 104.455397 288.06478 
L 104.455397 285.967789 
L 107.917329 285.967789 
L 107.917329 284.919293 
L 110.508826 284.919293 
L 110.508826 283.870798 
L 110.869529 283.870798 
L 110.94077 279.676816 
L 111.29262 279.676816 
L 111.362135 278.628321 
L 113.014543 278.628321 
L 113.014543 277.055578 
L 114.406204 277.055578 
L 114.406204 276.007082 
L 114.80834 276.007082 
L 114.80834 274.434339 
L 115.693673 274.434339 
L 115.801204 267.094871 
L 116.172355 267.094871 
L 116.276944 264.473632 
L 116.891469 264.473632 
L 116.891469 263.949385 
L 118.105292 263.949385 
L 118.105292 262.900889 
L 120.261464 262.900889 
L 120.261464 262.376641 
L 121.148094 262.376641 
L 121.148094 260.279651 
L 122.759301 260.279651 
L 122.759301 259.231155 
L 123.007879 259.231155 
L 123.007879 258.706907 
L 125.28322 258.706907 
L 125.28322 257.658412 
L 125.46756 257.658412 
L 125.46756 256.609917 
L 127.126794 256.609917 
L 127.126794 256.085669 
L 127.483812 256.085669 
L 127.483812 255.037173 
L 128.538038 255.037173 
L 128.538038 253.988678 
L 129.699468 253.988678 
L 129.699468 253.46443 
L 130.629687 253.46443 
L 130.629687 252.415935 
L 136.611601 252.415935 
L 136.611601 251.891687 
L 137.484499 251.891687 
L 137.484499 251.367439 
L 142.645506 251.367439 
L 142.645506 250.318944 
L 145.786077 250.318944 
L 145.786077 249.270448 
L 146.637116 249.270448 
L 146.66388 247.173458 
L 149.371964 247.173458 
L 149.371964 246.64921 
L 150.584853 246.64921 
L 150.584853 246.124962 
L 153.285596 246.124962 
L 153.285596 245.600714 
L 153.430582 245.600714 
L 153.430582 245.076467 
L 156.263955 245.076467 
L 156.263955 244.027971 
L 158.540285 244.027971 
L 158.540285 243.503724 
L 160.601953 243.503724 
L 160.601953 242.979476 
L 161.411333 242.979476 
L 161.498122 241.406733 
L 163.341672 241.406733 
L 163.341672 240.882485 
L 165.772114 240.882485 
L 165.772114 239.83399 
L 170.454611 239.83399 
L 170.454611 238.785494 
L 176.228868 238.785494 
L 176.228868 238.261246 
L 181.678291 238.261246 
L 181.678291 236.688503 
L 186.206294 236.688503 
L 186.206294 236.164255 
L 190.758483 236.164255 
L 190.758483 235.640008 
L 193.359801 235.640008 
L 193.359801 235.11576 
L 203.002255 235.11576 
L 203.002255 234.591512 
L 214.421919 234.591512 
L 214.421919 234.067265 
L 216.42971 234.067265 
L 216.42971 233.543017 
L 254.374679 233.543017 
L 254.450615 231.446026 
L 254.525847 231.446026 
L 254.525847 230.921778 
L 254.692291 230.921778 
L 254.692291 229.873283 
L 266.216168 229.873283 
L 266.288378 228.30054 
L 273.1785 228.30054 
L 273.184321 226.727797 
L 278.112766 226.727797 
L 278.131813 225.679301 
L 287.702767 225.679301 
L 287.702767 225.155053 
L 290.006592 225.155053 
L 290.006592 224.106558 
L 295.476896 224.106558 
L 295.476896 223.058063 
L 296.971992 223.058063 
L 296.971992 222.533815 
L 301.916235 222.533815 
L 301.916235 222.009567 
L 304.87039 222.009567 
L 304.87039 221.485319 
L 333.429677 221.485319 
L 333.429677 221.485319 
" style="fill:none;stroke:#6495ed;stroke-linecap:square;stroke-width:1.5;"/>
   </g>
   <g id="line2d_45">
    <defs>
     <path d="M -0 6 
L 6 -6 
L -6 -6 
z
" id="m3519d5a4c1" style="stroke:#6495ed;stroke-linejoin:miter;stroke-width:1.5;"/>
    </defs>
    <g>
     <use style="fill-opacity:0;stroke:#6495ed;stroke-linejoin:miter;stroke-width:1.5;" x="165.772114" xlink:href="#m3519d5a4c1" y="240.882485"/>
     <use style="fill-opacity:0;stroke:#6495ed;stroke-linejoin:miter;stroke-width:1.5;" x="216.42971" xlink:href="#m3519d5a4c1" y="233.543017"/>
     <use style="fill-opacity:0;stroke:#6495ed;stroke-linejoin:miter;stroke-width:1.5;" x="301.916235" xlink:href="#m3519d5a4c1" y="222.009567"/>
     <use style="fill-opacity:0;stroke:#6495ed;stroke-linejoin:miter;stroke-width:1.5;" x="304.87039" xlink:href="#m3519d5a4c1" y="221.485319"/>
     <use style="fill-opacity:0;stroke:#6495ed;stroke-linejoin:miter;stroke-width:1.5;" x="333.429677" xlink:href="#m3519d5a4c1" y="221.485319"/>
    </g>
   </g>
   <g id="line2d_46">
    <path style="fill:none;stroke:#6495ed;stroke-linecap:square;stroke-width:1.5;"/>
    <g/>
   </g>
   <g id="line2d_47">
    <path clip-path="url(#p5d033f1c29)" d="M 254.198341 233.543017 
" style="fill:none;stroke:#6495ed;stroke-linecap:square;stroke-width:1.5;"/>
    <defs>
     <path d="M -12 12 
L 12 -12 
M -12 -12 
L 12 12 
" id="m289d15a877" style="stroke:#6495ed;stroke-width:3;"/>
    </defs>
    <g clip-path="url(#p5d033f1c29)">
     <use style="fill:#6495ed;stroke:#6495ed;stroke-width:3;" x="254.198341" xlink:href="#m289d15a877" y="233.543017"/>
    </g>
   </g>
   <g id="line2d_48">
    <defs>
     <path d="M 0 1.5 
C 0.397805 1.5 0.77937 1.341951 1.06066 1.06066 
C 1.341951 0.77937 1.5 0.397805 1.5 0 
C 1.5 -0.397805 1.341951 -0.77937 1.06066 -1.06066 
C 0.77937 -1.341951 0.397805 -1.5 0 -1.5 
C -0.397805 -1.5 -0.77937 -1.341951 -1.06066 -1.06066 
C -1.341951 -0.77937 -1.5 -0.397805 -1.5 0 
C -1.5 0.397805 -1.341951 0.77937 -1.06066 1.06066 
C -0.77937 1.341951 -0.397805 1.5 0 1.5 
z
" id="mbef21de9a0" style="stroke:#ff0000;"/>
    </defs>
    <g>
     <use style="fill:#ff0000;stroke:#ff0000;" x="253.11536" xlink:href="#mbef21de9a0" y="231.970274"/>
     <use style="fill:#ff0000;stroke:#ff0000;" x="253.11536" xlink:href="#mbef21de9a0" y="231.970274"/>
    </g>
   </g>
   <g id="line2d_49">
    <path d="M 85.759969 294.88 
L 85.759969 293.831505 
L 86.36371 293.831505 
L 86.36371 293.307257 
L 88.057358 293.307257 
L 88.057358 292.783009 
L 89.599124 292.783009 
L 89.599124 289.113275 
L 90.321112 289.113275 
L 90.321112 287.016284 
L 90.555195 287.016284 
L 90.555195 284.919293 
L 92.529893 284.919293 
L 92.529893 284.395046 
L 92.735942 284.395046 
L 92.735942 283.870798 
L 92.939552 283.870798 
L 92.939552 282.298055 
L 93.339683 282.298055 
L 93.339683 278.104073 
L 94.853174 278.104073 
L 94.853174 275.482834 
L 95.211622 275.482834 
L 95.211622 271.288853 
L 95.388083 271.288853 
L 95.388083 269.191862 
L 95.906862 269.191862 
L 95.906862 260.803898 
L 96.410455 260.803898 
L 96.410455 260.279651 
L 96.899726 260.279651 
L 96.899726 259.755403 
L 97.375467 259.755403 
L 97.375467 256.609917 
L 98.728512 256.609917 
L 98.728512 256.085669 
L 99.015266 256.085669 
L 99.015266 255.037173 
L 99.297319 255.037173 
L 99.297319 254.512926 
L 100.116753 254.512926 
L 100.116753 253.988678 
L 100.381449 253.988678 
L 100.381449 251.891687 
L 100.77101 251.891687 
L 100.77101 251.367439 
L 101.277072 251.367439 
L 101.277072 250.843192 
L 101.401295 250.843192 
L 101.401295 249.794696 
L 102.364056 249.794696 
L 102.364056 249.270448 
L 103.496364 249.270448 
L 103.496364 247.173458 
L 105.265187 247.173458 
L 105.265187 246.64921 
L 106.958836 246.64921 
L 106.958836 246.124962 
L 107.225583 246.124962 
L 107.225583 245.600714 
L 147.465061 245.600714 
L 147.465061 245.076467 
L 150.044115 245.076467 
L 150.044115 244.552219 
L 151.856829 244.552219 
L 151.856829 244.027971 
L 171.243592 244.027971 
L 171.243592 243.503724 
L 178.313302 243.503724 
L 178.313302 241.93098 
L 178.382565 241.93098 
L 178.382565 241.406733 
L 180.833213 241.406733 
L 180.833213 240.882485 
L 181.324073 240.882485 
L 181.324073 240.358237 
L 182.747414 240.358237 
L 182.747414 239.83399 
L 193.508018 239.83399 
L 193.508018 238.261246 
L 198.360794 238.261246 
L 198.360794 237.212751 
L 201.242411 237.212751 
L 201.242411 236.688503 
L 209.28064 236.688503 
L 209.28064 235.11576 
L 211.044112 235.11576 
L 211.044112 234.067265 
L 223.321255 234.067265 
L 223.321255 233.543017 
L 223.321772 233.543017 
L 223.321772 233.018769 
L 231.427057 233.018769 
L 231.427057 232.494521 
L 253.11536 232.494521 
L 253.11536 231.970274 
L 333.429677 231.970274 
" style="fill:none;stroke:#ff0000;stroke-linecap:square;stroke-width:1.5;"/>
   </g>
   <g id="line2d_50">
    <defs>
     <path d="M 0 -6 
L -5.196152 -3 
L -5.196152 3 
L -0 6 
L 5.196152 3 
L 5.196152 -3 
z
" id="m8083289cbe" style="stroke:#ff0000;stroke-linejoin:miter;stroke-width:1.5;"/>
    </defs>
    <g>
     <use style="fill-opacity:0;stroke:#ff0000;stroke-linejoin:miter;stroke-width:1.5;" x="107.225583" xlink:href="#m8083289cbe" y="246.124962"/>
     <use style="fill-opacity:0;stroke:#ff0000;stroke-linejoin:miter;stroke-width:1.5;" x="182.747414" xlink:href="#m8083289cbe" y="240.358237"/>
     <use style="fill-opacity:0;stroke:#ff0000;stroke-linejoin:miter;stroke-width:1.5;" x="253.11536" xlink:href="#m8083289cbe" y="232.494521"/>
     <use style="fill-opacity:0;stroke:#ff0000;stroke-linejoin:miter;stroke-width:1.5;" x="253.11536" xlink:href="#m8083289cbe" y="231.970274"/>
     <use style="fill-opacity:0;stroke:#ff0000;stroke-linejoin:miter;stroke-width:1.5;" x="333.429677" xlink:href="#m8083289cbe" y="231.970274"/>
    </g>
   </g>
   <g id="line2d_51">
    <path style="fill:none;stroke:#ff0000;stroke-linecap:square;stroke-width:1.5;"/>
    <g/>
   </g>
   <g id="line2d_52">
    <path clip-path="url(#p5d033f1c29)" d="M 214.583533 234.067265 
" style="fill:none;stroke:#ff0000;stroke-linecap:square;stroke-width:1.5;"/>
    <defs>
     <path d="M -12 12 
L 12 -12 
M -12 -12 
L 12 12 
" id="m889bef178e" style="stroke:#ff0000;stroke-width:3;"/>
    </defs>
    <g clip-path="url(#p5d033f1c29)">
     <use style="fill:#ff0000;stroke:#ff0000;stroke-width:3;" x="214.583533" xlink:href="#m889bef178e" y="234.067265"/>
    </g>
   </g>
   <g id="line2d_53">
    <path clip-path="url(#p5d033f1c29)" d="M 56.12 294.88 
L 56.12 294.88 
L 56.12 294.88 
L 56.12 294.88 
L 399.984 294.88 
" style="fill:none;stroke:#9acd32;stroke-linecap:square;stroke-width:1.5;"/>
   </g>
   <g id="line2d_54">
    <defs>
     <path d="M 0 -6 
L -6 6 
L 6 6 
z
" id="me1d524127a" style="stroke:#9acd32;stroke-linejoin:miter;stroke-width:1.5;"/>
    </defs>
    <g clip-path="url(#p5d033f1c29)">
     <use style="fill-opacity:0;stroke:#9acd32;stroke-linejoin:miter;stroke-width:1.5;" x="56.12" xlink:href="#me1d524127a" y="294.88"/>
    </g>
   </g>
   <g id="line2d_55">
    <path clip-path="url(#p5d033f1c29)" style="fill:none;stroke:#9acd32;stroke-linecap:square;stroke-width:1.5;"/>
    <g clip-path="url(#p5d033f1c29)">
     <use style="fill-opacity:0;stroke:#9acd32;stroke-linejoin:miter;stroke-width:1.5;" x="-1" xlink:href="#me1d524127a" y="562.246337"/>
     <use style="fill-opacity:0;stroke:#9acd32;stroke-linejoin:miter;stroke-width:1.5;" x="399.984" xlink:href="#me1d524127a" y="562.246337"/>
    </g>
   </g>
   <g id="line2d_56">
    <path d="M 333.429677 294.88 
L 363.933742 289.532673 
" style="fill:none;stroke:#9acd32;stroke-linecap:square;stroke-width:1.5;"/>
    <g>
     <use style="fill-opacity:0;stroke:#9acd32;stroke-linejoin:miter;stroke-width:1.5;" x="333.429677" xlink:href="#me1d524127a" y="294.88"/>
     <use style="fill-opacity:0;stroke:#9acd32;stroke-linejoin:miter;stroke-width:1.5;" x="363.933742" xlink:href="#me1d524127a" y="289.532673"/>
    </g>
   </g>
   <g id="line2d_57">
    <path d="M 333.429677 231.970274 
L 363.933742 246.754059 
" style="fill:none;stroke:#ff0000;stroke-linecap:square;stroke-width:1.5;"/>
    <g>
     <use style="fill-opacity:0;stroke:#ff0000;stroke-linejoin:miter;stroke-width:1.5;" x="333.429677" xlink:href="#m8083289cbe" y="231.970274"/>
     <use style="fill-opacity:0;stroke:#ff0000;stroke-linejoin:miter;stroke-width:1.5;" x="363.933742" xlink:href="#m8083289cbe" y="246.754059"/>
    </g>
   </g>
   <g id="line2d_58">
    <path d="M 333.429677 221.485319 
L 363.933742 203.975446 
" style="fill:none;stroke:#6495ed;stroke-linecap:square;stroke-width:1.5;"/>
    <g>
     <use style="fill-opacity:0;stroke:#6495ed;stroke-linejoin:miter;stroke-width:1.5;" x="333.429677" xlink:href="#m3519d5a4c1" y="221.485319"/>
     <use style="fill-opacity:0;stroke:#6495ed;stroke-linejoin:miter;stroke-width:1.5;" x="363.933742" xlink:href="#m3519d5a4c1" y="203.975446"/>
    </g>
   </g>
   <g id="line2d_59">
    <path d="M 333.429677 118.732766 
L 363.933742 161.196832 
" style="fill:none;stroke:#ff00ff;stroke-linecap:square;stroke-width:1.5;"/>
    <g>
     <use style="fill-opacity:0;stroke:#ff00ff;stroke-linejoin:miter;stroke-width:1.5;" x="333.429677" xlink:href="#mf10783c3ee" y="118.732766"/>
     <use style="fill-opacity:0;stroke:#ff00ff;stroke-linejoin:miter;stroke-width:1.5;" x="363.933742" xlink:href="#mf10783c3ee" y="161.196832"/>
    </g>
   </g>
   <g id="line2d_60">
    <path d="M 333.429677 111.393298 
L 363.933742 118.418218 
" style="fill:none;stroke:#ffa500;stroke-linecap:square;stroke-width:1.5;"/>
    <g>
     <use style="fill-opacity:0;stroke:#ffa500;stroke-linejoin:bevel;stroke-width:1.5;" x="333.429677" xlink:href="#m863799dc5b" y="111.393298"/>
     <use style="fill-opacity:0;stroke:#ffa500;stroke-linejoin:bevel;stroke-width:1.5;" x="363.933742" xlink:href="#m863799dc5b" y="118.418218"/>
    </g>
   </g>
   <g id="line2d_61">
    <path d="M 333.429677 27.513663 
L 363.933742 75.639604 
" style="fill:none;stroke:#000080;stroke-linecap:square;stroke-width:1.5;"/>
    <g>
     <use style="fill-opacity:0;stroke:#000080;stroke-width:1.5;" x="333.429677" xlink:href="#ma7745285a0" y="27.513663"/>
     <use style="fill-opacity:0;stroke:#000080;stroke-width:1.5;" x="363.933742" xlink:href="#ma7745285a0" y="75.639604"/>
    </g>
   </g>
   <g id="line2d_62">
    <path d="M 333.429677 294.88 
L 333.429677 27.513663 
" style="fill:none;stroke:#000000;stroke-linecap:square;stroke-width:1.5;"/>
   </g>
   <g id="patch_3">
    <path d="M 56.12 294.88 
L 56.12 24.84 
" style="fill:none;stroke:#000000;stroke-linecap:square;stroke-linejoin:miter;stroke-width:0.8;"/>
   </g>
   <g id="patch_4">
    <path d="M 399.984 294.88 
L 399.984 24.84 
" style="fill:none;stroke:#000000;stroke-linecap:square;stroke-linejoin:miter;stroke-width:0.8;"/>
   </g>
   <g id="patch_5">
    <path d="M 56.12 294.88 
L 399.984 294.88 
" style="fill:none;stroke:#000000;stroke-linecap:square;stroke-linejoin:miter;stroke-width:0.8;"/>
   </g>
   <g id="patch_6">
    <path d="M 56.12 24.84 
L 399.984 24.84 
" style="fill:none;stroke:#000000;stroke-linecap:square;stroke-linejoin:miter;stroke-width:0.8;"/>
   </g>
   <g id="text_14">
    <!-- gsa solve -->
    <g transform="translate(369.479935 294.223611)scale(0.17 -0.17)">
     <use xlink:href="#DejaVuSans-67"/>
     <use x="63.476562" xlink:href="#DejaVuSans-73"/>
     <use x="115.576172" xlink:href="#DejaVuSans-61"/>
     <use x="176.855469" xlink:href="#DejaVuSans-20"/>
     <use x="208.642578" xlink:href="#DejaVuSans-73"/>
     <use x="260.742188" xlink:href="#DejaVuSans-6f"/>
     <use x="321.923828" xlink:href="#DejaVuSans-6c"/>
     <use x="349.707031" xlink:href="#DejaVuSans-76"/>
     <use x="408.886719" xlink:href="#DejaVuSans-65"/>
    </g>
   </g>
   <g id="text_15">
    <!-- Rosenbroc -->
    <defs>
     <path d="M 44.390625 34.1875 
Q 47.5625 33.109375 50.5625 29.59375 
Q 53.5625 26.078125 56.59375 19.921875 
L 66.609375 0 
L 56 0 
L 46.6875 18.703125 
Q 43.0625 26.03125 39.671875 28.421875 
Q 36.28125 30.8125 30.421875 30.8125 
L 19.671875 30.8125 
L 19.671875 0 
L 9.8125 0 
L 9.8125 72.90625 
L 32.078125 72.90625 
Q 44.578125 72.90625 50.734375 67.671875 
Q 56.890625 62.453125 56.890625 51.90625 
Q 56.890625 45.015625 53.6875 40.46875 
Q 50.484375 35.9375 44.390625 34.1875 
z
M 19.671875 64.796875 
L 19.671875 38.921875 
L 32.078125 38.921875 
Q 39.203125 38.921875 42.84375 42.21875 
Q 46.484375 45.515625 46.484375 51.90625 
Q 46.484375 58.296875 42.84375 61.546875 
Q 39.203125 64.796875 32.078125 64.796875 
z
" id="DejaVuSans-52"/>
     <path d="M 48.6875 27.296875 
Q 48.6875 37.203125 44.609375 42.84375 
Q 40.53125 48.484375 33.40625 48.484375 
Q 26.265625 48.484375 22.1875 42.84375 
Q 18.109375 37.203125 18.109375 27.296875 
Q 18.109375 17.390625 22.1875 11.75 
Q 26.265625 6.109375 33.40625 6.109375 
Q 40.53125 6.109375 44.609375 11.75 
Q 48.6875 17.390625 48.6875 27.296875 
z
M 18.109375 46.390625 
Q 20.953125 51.265625 25.265625 53.625 
Q 29.59375 56 35.59375 56 
Q 45.5625 56 51.78125 48.09375 
Q 58.015625 40.1875 58.015625 27.296875 
Q 58.015625 14.40625 51.78125 6.484375 
Q 45.5625 -1.421875 35.59375 -1.421875 
Q 29.59375 -1.421875 25.265625 0.953125 
Q 20.953125 3.328125 18.109375 8.203125 
L 18.109375 0 
L 9.078125 0 
L 9.078125 75.984375 
L 18.109375 75.984375 
z
" id="DejaVuSans-62"/>
    </defs>
    <g transform="translate(369.479935 251.444997)scale(0.17 -0.17)">
     <use xlink:href="#DejaVuSans-52"/>
     <use x="69.419922" xlink:href="#DejaVuSans-6f"/>
     <use x="130.601562" xlink:href="#DejaVuSans-73"/>
     <use x="182.701172" xlink:href="#DejaVuSans-65"/>
     <use x="244.224609" xlink:href="#DejaVuSans-6e"/>
     <use x="307.603516" xlink:href="#DejaVuSans-62"/>
     <use x="371.080078" xlink:href="#DejaVuSans-72"/>
     <use x="412.162109" xlink:href="#DejaVuSans-6f"/>
     <use x="473.34375" xlink:href="#DejaVuSans-63"/>
    </g>
   </g>
   <g id="text_16">
    <!-- PSO -->
    <defs>
     <path d="M 19.671875 64.796875 
L 19.671875 37.40625 
L 32.078125 37.40625 
Q 38.96875 37.40625 42.71875 40.96875 
Q 46.484375 44.53125 46.484375 51.125 
Q 46.484375 57.671875 42.71875 61.234375 
Q 38.96875 64.796875 32.078125 64.796875 
z
M 9.8125 72.90625 
L 32.078125 72.90625 
Q 44.34375 72.90625 50.609375 67.359375 
Q 56.890625 61.8125 56.890625 51.125 
Q 56.890625 40.328125 50.609375 34.8125 
Q 44.34375 29.296875 32.078125 29.296875 
L 19.671875 29.296875 
L 19.671875 0 
L 9.8125 0 
z
" id="DejaVuSans-50"/>
     <path d="M 53.515625 70.515625 
L 53.515625 60.890625 
Q 47.90625 63.578125 42.921875 64.890625 
Q 37.9375 66.21875 33.296875 66.21875 
Q 25.25 66.21875 20.875 63.09375 
Q 16.5 59.96875 16.5 54.203125 
Q 16.5 49.359375 19.40625 46.890625 
Q 22.3125 44.4375 30.421875 42.921875 
L 36.375 41.703125 
Q 47.40625 39.59375 52.65625 34.296875 
Q 57.90625 29 57.90625 20.125 
Q 57.90625 9.515625 50.796875 4.046875 
Q 43.703125 -1.421875 29.984375 -1.421875 
Q 24.8125 -1.421875 18.96875 -0.25 
Q 13.140625 0.921875 6.890625 3.21875 
L 6.890625 13.375 
Q 12.890625 10.015625 18.65625 8.296875 
Q 24.421875 6.59375 29.984375 6.59375 
Q 38.421875 6.59375 43.015625 9.90625 
Q 47.609375 13.234375 47.609375 19.390625 
Q 47.609375 24.75 44.3125 27.78125 
Q 41.015625 30.8125 33.5 32.328125 
L 27.484375 33.5 
Q 16.453125 35.6875 11.515625 40.375 
Q 6.59375 45.0625 6.59375 53.421875 
Q 6.59375 63.09375 13.40625 68.65625 
Q 20.21875 74.21875 32.171875 74.21875 
Q 37.3125 74.21875 42.625 73.28125 
Q 47.953125 72.359375 53.515625 70.515625 
z
" id="DejaVuSans-53"/>
     <path d="M 39.40625 66.21875 
Q 28.65625 66.21875 22.328125 58.203125 
Q 16.015625 50.203125 16.015625 36.375 
Q 16.015625 22.609375 22.328125 14.59375 
Q 28.65625 6.59375 39.40625 6.59375 
Q 50.140625 6.59375 56.421875 14.59375 
Q 62.703125 22.609375 62.703125 36.375 
Q 62.703125 50.203125 56.421875 58.203125 
Q 50.140625 66.21875 39.40625 66.21875 
z
M 39.40625 74.21875 
Q 54.734375 74.21875 63.90625 63.9375 
Q 73.09375 53.65625 73.09375 36.375 
Q 73.09375 19.140625 63.90625 8.859375 
Q 54.734375 -1.421875 39.40625 -1.421875 
Q 24.03125 -1.421875 14.8125 8.828125 
Q 5.609375 19.09375 5.609375 36.375 
Q 5.609375 53.65625 14.8125 63.9375 
Q 24.03125 74.21875 39.40625 74.21875 
z
" id="DejaVuSans-4f"/>
    </defs>
    <g transform="translate(369.479935 208.666383)scale(0.17 -0.17)">
     <use xlink:href="#DejaVuSans-50"/>
     <use x="60.302734" xlink:href="#DejaVuSans-53"/>
     <use x="123.779297" xlink:href="#DejaVuSans-4f"/>
    </g>
   </g>
   <g id="text_17">
    <!-- DASA -->
    <defs>
     <path d="M 19.671875 64.796875 
L 19.671875 8.109375 
L 31.59375 8.109375 
Q 46.6875 8.109375 53.6875 14.9375 
Q 60.6875 21.78125 60.6875 36.53125 
Q 60.6875 51.171875 53.6875 57.984375 
Q 46.6875 64.796875 31.59375 64.796875 
z
M 9.8125 72.90625 
L 30.078125 72.90625 
Q 51.265625 72.90625 61.171875 64.09375 
Q 71.09375 55.28125 71.09375 36.53125 
Q 71.09375 17.671875 61.125 8.828125 
Q 51.171875 0 30.078125 0 
L 9.8125 0 
z
" id="DejaVuSans-44"/>
     <path d="M 34.1875 63.1875 
L 20.796875 26.90625 
L 47.609375 26.90625 
z
M 28.609375 72.90625 
L 39.796875 72.90625 
L 67.578125 0 
L 57.328125 0 
L 50.6875 18.703125 
L 17.828125 18.703125 
L 11.1875 0 
L 0.78125 0 
z
" id="DejaVuSans-41"/>
    </defs>
    <g transform="translate(369.479935 165.887769)scale(0.17 -0.17)">
     <use xlink:href="#DejaVuSans-44"/>
     <use x="76.986328" xlink:href="#DejaVuSans-41"/>
     <use x="145.394531" xlink:href="#DejaVuSans-53"/>
     <use x="208.886719" xlink:href="#DejaVuSans-41"/>
    </g>
   </g>
   <g id="text_18">
    <!-- GA -->
    <defs>
     <path d="M 59.515625 10.40625 
L 59.515625 29.984375 
L 43.40625 29.984375 
L 43.40625 38.09375 
L 69.28125 38.09375 
L 69.28125 6.78125 
Q 63.578125 2.734375 56.6875 0.65625 
Q 49.8125 -1.421875 42 -1.421875 
Q 24.90625 -1.421875 15.25 8.5625 
Q 5.609375 18.5625 5.609375 36.375 
Q 5.609375 54.25 15.25 64.234375 
Q 24.90625 74.21875 42 74.21875 
Q 49.125 74.21875 55.546875 72.453125 
Q 61.96875 70.703125 67.390625 67.28125 
L 67.390625 56.78125 
Q 61.921875 61.421875 55.765625 63.765625 
Q 49.609375 66.109375 42.828125 66.109375 
Q 29.4375 66.109375 22.71875 58.640625 
Q 16.015625 51.171875 16.015625 36.375 
Q 16.015625 21.625 22.71875 14.15625 
Q 29.4375 6.6875 42.828125 6.6875 
Q 48.046875 6.6875 52.140625 7.59375 
Q 56.25 8.5 59.515625 10.40625 
z
" id="DejaVuSans-47"/>
    </defs>
    <g transform="translate(369.479935 123.109155)scale(0.17 -0.17)">
     <use xlink:href="#DejaVuSans-47"/>
     <use x="77.490234" xlink:href="#DejaVuSans-41"/>
    </g>
   </g>
   <g id="text_19">
    <!-- ALPS -->
    <defs>
     <path d="M 9.8125 72.90625 
L 19.671875 72.90625 
L 19.671875 8.296875 
L 55.171875 8.296875 
L 55.171875 0 
L 9.8125 0 
z
" id="DejaVuSans-4c"/>
    </defs>
    <g transform="translate(369.479935 80.330541)scale(0.17 -0.17)">
     <use xlink:href="#DejaVuSans-41"/>
     <use x="68.408203" xlink:href="#DejaVuSans-4c"/>
     <use x="124.121094" xlink:href="#DejaVuSans-50"/>
     <use x="184.423828" xlink:href="#DejaVuSans-53"/>
    </g>
   </g>
   <g id="text_20">
    <!-- best 2009 -->
    <defs>
     <path d="M 10.984375 1.515625 
L 10.984375 10.5 
Q 14.703125 8.734375 18.5 7.8125 
Q 22.3125 6.890625 25.984375 6.890625 
Q 35.75 6.890625 40.890625 13.453125 
Q 46.046875 20.015625 46.78125 33.40625 
Q 43.953125 29.203125 39.59375 26.953125 
Q 35.25 24.703125 29.984375 24.703125 
Q 19.046875 24.703125 12.671875 31.3125 
Q 6.296875 37.9375 6.296875 49.421875 
Q 6.296875 60.640625 12.9375 67.421875 
Q 19.578125 74.21875 30.609375 74.21875 
Q 43.265625 74.21875 49.921875 64.515625 
Q 56.59375 54.828125 56.59375 36.375 
Q 56.59375 19.140625 48.40625 8.859375 
Q 40.234375 -1.421875 26.421875 -1.421875 
Q 22.703125 -1.421875 18.890625 -0.6875 
Q 15.09375 0.046875 10.984375 1.515625 
z
M 30.609375 32.421875 
Q 37.25 32.421875 41.125 36.953125 
Q 45.015625 41.5 45.015625 49.421875 
Q 45.015625 57.28125 41.125 61.84375 
Q 37.25 66.40625 30.609375 66.40625 
Q 23.96875 66.40625 20.09375 61.84375 
Q 16.21875 57.28125 16.21875 49.421875 
Q 16.21875 41.5 20.09375 36.953125 
Q 23.96875 32.421875 30.609375 32.421875 
z
" id="DejaVuSans-39"/>
    </defs>
    <g transform="translate(369.479935 37.551928)scale(0.17 -0.17)">
     <use xlink:href="#DejaVuSans-62"/>
     <use x="63.476562" xlink:href="#DejaVuSans-65"/>
     <use x="125" xlink:href="#DejaVuSans-73"/>
     <use x="177.099609" xlink:href="#DejaVuSans-74"/>
     <use x="216.308594" xlink:href="#DejaVuSans-20"/>
     <use x="248.095703" xlink:href="#DejaVuSans-32"/>
     <use x="311.71875" xlink:href="#DejaVuSans-30"/>
     <use x="375.341797" xlink:href="#DejaVuSans-30"/>
     <use x="438.964844" xlink:href="#DejaVuSans-39"/>
    </g>
   </g>
   <g id="text_21">
    <!-- bbob f20, 10-D -->
    <g transform="translate(59.55864 35.290806)scale(0.102 -0.102)">
     <use xlink:href="#DejaVuSans-62"/>
     <use x="63.476562" xlink:href="#DejaVuSans-62"/>
     <use x="126.953125" xlink:href="#DejaVuSans-6f"/>
     <use x="188.134766" xlink:href="#DejaVuSans-62"/>
     <use x="251.611328" xlink:href="#DejaVuSans-20"/>
     <use x="283.398438" xlink:href="#DejaVuSans-66"/>
     <use x="318.603516" xlink:href="#DejaVuSans-32"/>
     <use x="382.226562" xlink:href="#DejaVuSans-30"/>
     <use x="445.849609" xlink:href="#DejaVuSans-2c"/>
     <use x="477.636719" xlink:href="#DejaVuSans-20"/>
     <use x="509.423828" xlink:href="#DejaVuSans-31"/>
     <use x="573.046875" xlink:href="#DejaVuSans-30"/>
     <use x="636.669922" xlink:href="#DejaVuSans-2d"/>
     <use x="672.753906" xlink:href="#DejaVuSans-44"/>
    </g>
    <!-- 51 targets: 100..1e-08 -->
    <defs>
     <path d="M 10.796875 72.90625 
L 49.515625 72.90625 
L 49.515625 64.59375 
L 19.828125 64.59375 
L 19.828125 46.734375 
Q 21.96875 47.46875 24.109375 47.828125 
Q 26.265625 48.1875 28.421875 48.1875 
Q 40.625 48.1875 47.75 41.5 
Q 54.890625 34.8125 54.890625 23.390625 
Q 54.890625 11.625 47.5625 5.09375 
Q 40.234375 -1.421875 26.90625 -1.421875 
Q 22.3125 -1.421875 17.546875 -0.640625 
Q 12.796875 0.140625 7.71875 1.703125 
L 7.71875 11.625 
Q 12.109375 9.234375 16.796875 8.0625 
Q 21.484375 6.890625 26.703125 6.890625 
Q 35.15625 6.890625 40.078125 11.328125 
Q 45.015625 15.765625 45.015625 23.390625 
Q 45.015625 31 40.078125 35.4375 
Q 35.15625 39.890625 26.703125 39.890625 
Q 22.75 39.890625 18.8125 39.015625 
Q 14.890625 38.140625 10.796875 36.28125 
z
" id="DejaVuSans-35"/>
     <path d="M 11.71875 12.40625 
L 22.015625 12.40625 
L 22.015625 0 
L 11.71875 0 
z
M 11.71875 51.703125 
L 22.015625 51.703125 
L 22.015625 39.3125 
L 11.71875 39.3125 
z
" id="DejaVuSans-3a"/>
    </defs>
    <g transform="translate(59.55864 46.712575)scale(0.102 -0.102)">
     <use xlink:href="#DejaVuSans-35"/>
     <use x="63.623047" xlink:href="#DejaVuSans-31"/>
     <use x="127.246094" xlink:href="#DejaVuSans-20"/>
     <use x="159.033203" xlink:href="#DejaVuSans-74"/>
     <use x="198.242188" xlink:href="#DejaVuSans-61"/>
     <use x="259.521484" xlink:href="#DejaVuSans-72"/>
     <use x="300.619141" xlink:href="#DejaVuSans-67"/>
     <use x="364.095703" xlink:href="#DejaVuSans-65"/>
     <use x="425.619141" xlink:href="#DejaVuSans-74"/>
     <use x="464.828125" xlink:href="#DejaVuSans-73"/>
     <use x="516.927734" xlink:href="#DejaVuSans-3a"/>
     <use x="550.619141" xlink:href="#DejaVuSans-20"/>
     <use x="582.40625" xlink:href="#DejaVuSans-31"/>
     <use x="646.029297" xlink:href="#DejaVuSans-30"/>
     <use x="709.652344" xlink:href="#DejaVuSans-30"/>
     <use x="773.275391" xlink:href="#DejaVuSans-2e"/>
     <use x="805.0625" xlink:href="#DejaVuSans-2e"/>
     <use x="836.849609" xlink:href="#DejaVuSans-31"/>
     <use x="900.472656" xlink:href="#DejaVuSans-65"/>
     <use x="961.996094" xlink:href="#DejaVuSans-2d"/>
     <use x="998.080078" xlink:href="#DejaVuSans-30"/>
     <use x="1061.703125" xlink:href="#DejaVuSans-38"/>
    </g>
    <!-- 15 instances -->
    <g transform="translate(59.55864 58.134344)scale(0.102 -0.102)">
     <use xlink:href="#DejaVuSans-31"/>
     <use x="63.623047" xlink:href="#DejaVuSans-35"/>
     <use x="127.246094" xlink:href="#DejaVuSans-20"/>
     <use x="159.033203" xlink:href="#DejaVuSans-69"/>
     <use x="186.816406" xlink:href="#DejaVuSans-6e"/>
     <use x="250.195312" xlink:href="#DejaVuSans-73"/>
     <use x="302.294922" xlink:href="#DejaVuSans-74"/>
     <use x="341.503906" xlink:href="#DejaVuSans-61"/>
     <use x="402.783203" xlink:href="#DejaVuSans-6e"/>
     <use x="466.162109" xlink:href="#DejaVuSans-63"/>
     <use x="521.142578" xlink:href="#DejaVuSans-65"/>
     <use x="582.666016" xlink:href="#DejaVuSans-73"/>
    </g>
   </g>
   <g id="text_22">
    <!-- v-coco-version -->
    <g style="fill:#808080;" transform="translate(191.556688 290.099912)scale(0.1 -0.1)">
     <use xlink:href="#DejaVuSans-76"/>
     <use x="59.148438" xlink:href="#DejaVuSans-2d"/>
     <use x="95.232422" xlink:href="#DejaVuSans-63"/>
     <use x="150.212891" xlink:href="#DejaVuSans-6f"/>
     <use x="211.394531" xlink:href="#DejaVuSans-63"/>
     <use x="266.375" xlink:href="#DejaVuSans-6f"/>
     <use x="327.572266" xlink:href="#DejaVuSans-2d"/>
     <use x="363.625" xlink:href="#DejaVuSans-76"/>
     <use x="422.804688" xlink:href="#DejaVuSans-65"/>
     <use x="484.328125" xlink:href="#DejaVuSans-72"/>
     <use x="525.441406" xlink:href="#DejaVuSans-73"/>
     <use x="577.541016" xlink:href="#DejaVuSans-69"/>
     <use x="605.324219" xlink:href="#DejaVuSans-6f"/>
     <use x="666.505859" xlink:href="#DejaVuSans-6e"/>
    </g>
   </g>
   <g id="text_23">
    <!-- 20 Schwefel x*sin(x) -->
    <defs>
     <path d="M 54.890625 33.015625 
L 54.890625 0 
L 45.90625 0 
L 45.90625 32.71875 
Q 45.90625 40.484375 42.875 44.328125 
Q 39.84375 48.1875 33.796875 48.1875 
Q 26.515625 48.1875 22.3125 43.546875 
Q 18.109375 38.921875 18.109375 30.90625 
L 18.109375 0 
L 9.078125 0 
L 9.078125 75.984375 
L 18.109375 75.984375 
L 18.109375 46.1875 
Q 21.34375 51.125 25.703125 53.5625 
Q 30.078125 56 35.796875 56 
Q 45.21875 56 50.046875 50.171875 
Q 54.890625 44.34375 54.890625 33.015625 
z
" id="DejaVuSans-68"/>
     <path d="M 4.203125 54.6875 
L 13.1875 54.6875 
L 24.421875 12.015625 
L 35.59375 54.6875 
L 46.1875 54.6875 
L 57.421875 12.015625 
L 68.609375 54.6875 
L 77.59375 54.6875 
L 63.28125 0 
L 52.6875 0 
L 40.921875 44.828125 
L 29.109375 0 
L 18.5 0 
z
" id="DejaVuSans-77"/>
     <path d="M 54.890625 54.6875 
L 35.109375 28.078125 
L 55.90625 0 
L 45.3125 0 
L 29.390625 21.484375 
L 13.484375 0 
L 2.875 0 
L 24.125 28.609375 
L 4.6875 54.6875 
L 15.28125 54.6875 
L 29.78125 35.203125 
L 44.28125 54.6875 
z
" id="DejaVuSans-78"/>
     <path d="M 47.015625 60.890625 
L 29.5 51.421875 
L 47.015625 41.890625 
L 44.1875 37.109375 
L 27.78125 47.015625 
L 27.78125 28.609375 
L 22.21875 28.609375 
L 22.21875 47.015625 
L 5.8125 37.109375 
L 2.984375 41.890625 
L 20.515625 51.421875 
L 2.984375 60.890625 
L 5.8125 65.71875 
L 22.21875 55.8125 
L 22.21875 74.21875 
L 27.78125 74.21875 
L 27.78125 55.8125 
L 44.1875 65.71875 
z
" id="DejaVuSans-2a"/>
    </defs>
    <g transform="translate(125.037938 18.84)scale(0.2 -0.2)">
     <use xlink:href="#DejaVuSans-32"/>
     <use x="63.623047" xlink:href="#DejaVuSans-30"/>
     <use x="127.246094" xlink:href="#DejaVuSans-20"/>
     <use x="159.033203" xlink:href="#DejaVuSans-53"/>
     <use x="222.509766" xlink:href="#DejaVuSans-63"/>
     <use x="277.490234" xlink:href="#DejaVuSans-68"/>
     <use x="340.869141" xlink:href="#DejaVuSans-77"/>
     <use x="422.65625" xlink:href="#DejaVuSans-65"/>
     <use x="484.179688" xlink:href="#DejaVuSans-66"/>
     <use x="519.384766" xlink:href="#DejaVuSans-65"/>
     <use x="580.908203" xlink:href="#DejaVuSans-6c"/>
     <use x="608.691406" xlink:href="#DejaVuSans-20"/>
     <use x="640.478516" xlink:href="#DejaVuSans-78"/>
     <use x="699.658203" xlink:href="#DejaVuSans-2a"/>
     <use x="749.658203" xlink:href="#DejaVuSans-73"/>
     <use x="801.757812" xlink:href="#DejaVuSans-69"/>
     <use x="829.541016" xlink:href="#DejaVuSans-6e"/>
     <use x="892.919922" xlink:href="#DejaVuSans-28"/>
     <use x="931.933594" xlink:href="#DejaVuSans-78"/>
     <use x="991.113281" xlink:href="#DejaVuSans-29"/>
    </g>
   </g>
  </g>
 </g>
 <defs>
  <clipPath id="p5d033f1c29">
   <rect height="270.04" width="343.864" x="56.12" y="24.84"/>
  </clipPath>
 </defs>
</svg>
