<?xml version="1.0" encoding="utf-8" standalone="no"?>
<!DOCTYPE svg PUBLIC "-//W3C//DTD SVG 1.1//EN"
  "http://www.w3.org/Graphics/SVG/1.1/DTD/svg11.dtd">
<!-- Created with matplotlib (http://matplotlib.org/) -->
<svg height="345.6pt" version="1.1" viewBox="0 0 460.8 345.6" width="460.8pt" xmlns="http://www.w3.org/2000/svg" xmlns:xlink="http://www.w3.org/1999/xlink">
 <defs>
  <style type="text/css">
*{stroke-linecap:butt;stroke-linejoin:round;}
  </style>
 </defs>
 <g id="figure_1">
  <g id="patch_1">
   <path d="M 0 345.6 
L 460.8 345.6 
L 460.8 0 
L 0 0 
z
" style="fill:#ffffff;"/>
  </g>
  <g id="axes_1">
   <g id="patch_2">
    <path d="M 56.12 294.88 
L 399.984 294.88 
L 399.984 24.84 
L 56.12 24.84 
z
" style="fill:#ffffff;"/>
   </g>
   <g id="line2d_1">
    <path d="M 95.388083 294.88 
L 95.388083 289.637523 
L 101.401295 289.637523 
L 101.401295 284.395046 
L 132.635994 284.395046 
L 132.635994 279.152568 
L 141.636916 279.152568 
L 141.636916 273.910091 
L 145.067707 273.910091 
L 145.067707 268.667614 
L 149.180499 268.667614 
L 149.180499 263.425137 
L 152.086012 263.425137 
L 152.086012 258.18266 
L 154.789186 258.18266 
L 154.789186 252.940182 
L 157.46117 252.940182 
L 157.46117 247.697705 
L 157.465928 247.697705 
L 157.465928 242.455228 
L 157.513443 242.455228 
L 157.513443 237.212751 
L 157.645788 237.212751 
L 157.645788 231.970274 
L 157.655203 231.970274 
L 157.655203 226.727797 
L 157.664612 226.727797 
L 157.664612 221.485319 
L 157.674016 221.485319 
L 157.674016 211.000365 
L 157.688113 211.000365 
L 157.688113 205.757888 
L 157.749065 205.757888 
L 157.749065 200.515411 
L 157.805137 200.515411 
L 157.805137 195.272933 
L 157.828447 195.272933 
L 157.828447 190.030456 
L 157.837762 190.030456 
L 157.837762 184.787979 
L 157.870325 184.787979 
L 157.870325 174.303025 
L 157.874972 174.303025 
L 157.874972 169.060547 
L 157.893546 169.060547 
L 157.893546 158.575593 
L 158.018404 158.575593 
L 158.018404 142.848162 
L 158.023011 142.848162 
L 158.023011 127.12073 
L 158.032221 127.12073 
L 158.032221 116.635776 
L 158.036825 116.635776 
L 158.036825 111.393298 
L 158.064419 111.393298 
L 158.064419 106.150821 
L 158.124054 106.150821 
L 158.124054 100.908344 
L 158.128633 100.908344 
L 158.128633 95.665867 
L 158.174354 95.665867 
L 158.174354 90.42339 
L 158.188047 90.42339 
L 158.188047 79.938435 
L 158.19717 79.938435 
L 158.19717 74.695958 
L 158.201729 74.695958 
L 158.201729 69.453481 
L 193.145822 69.453481 
L 193.145822 58.968526 
L 193.14642 58.968526 
L 193.14642 53.726049 
L 193.147018 53.726049 
L 193.147018 43.241095 
L 193.147616 43.241095 
L 193.147616 37.998618 
L 193.148214 37.998618 
L 193.148214 27.513663 
L 333.429677 27.513663 
" style="fill:none;stroke:#f5deb3;stroke-linecap:square;stroke-width:6;"/>
   </g>
   <g id="line2d_2">
    <defs>
     <path d="M -0 7.778175 
L 7.778175 0 
L 0 -7.778175 
L -7.778175 -0 
z
" id="m2ce6f46522" style="stroke:#f5deb3;stroke-linejoin:miter;stroke-width:1.5;"/>
    </defs>
    <g>
     <use style="fill:#f5deb3;stroke:#f5deb3;stroke-linejoin:miter;stroke-width:1.5;" x="157.893546" xlink:href="#m2ce6f46522" y="169.060547"/>
     <use style="fill:#f5deb3;stroke:#f5deb3;stroke-linejoin:miter;stroke-width:1.5;" x="193.147616" xlink:href="#m2ce6f46522" y="43.241095"/>
     <use style="fill:#f5deb3;stroke:#f5deb3;stroke-linejoin:miter;stroke-width:1.5;" x="193.148214" xlink:href="#m2ce6f46522" y="27.513663"/>
     <use style="fill:#f5deb3;stroke:#f5deb3;stroke-linejoin:miter;stroke-width:1.5;" x="193.148214" xlink:href="#m2ce6f46522" y="27.513663"/>
     <use style="fill:#f5deb3;stroke:#f5deb3;stroke-linejoin:miter;stroke-width:1.5;" x="333.429677" xlink:href="#m2ce6f46522" y="27.513663"/>
    </g>
   </g>
   <g id="line2d_3">
    <path style="fill:none;stroke:#f5deb3;stroke-linecap:square;stroke-width:6;"/>
    <g/>
   </g>
   <g id="line2d_4">
    <path d="M 333.429677 27.513663 
L 363.933742 32.86099 
" style="fill:none;stroke:#f5deb3;stroke-linecap:square;stroke-width:6;"/>
    <g>
     <use style="fill:#f5deb3;stroke:#f5deb3;stroke-linejoin:miter;stroke-width:1.5;" x="333.429677" xlink:href="#m2ce6f46522" y="27.513663"/>
     <use style="fill:#f5deb3;stroke:#f5deb3;stroke-linejoin:miter;stroke-width:1.5;" x="363.933742" xlink:href="#m2ce6f46522" y="32.86099"/>
    </g>
   </g>
   <g id="matplotlib.axis_1">
    <g id="xtick_1">
     <g id="line2d_5">
      <path clip-path="url(#p3a0f0564fc)" d="M 56.12 294.88 
L 56.12 24.84 
" style="fill:none;stroke:#b0b0b0;stroke-linecap:square;stroke-width:0.8;"/>
     </g>
     <g id="line2d_6">
      <defs>
       <path d="M 0 0 
L 0 3.5 
" id="m3a2a0fa793" style="stroke:#000000;stroke-width:0.8;"/>
      </defs>
      <g>
       <use style="stroke:#000000;stroke-width:0.8;" x="56.12" xlink:href="#m3a2a0fa793" y="294.88"/>
      </g>
     </g>
     <g id="text_1">
      <!-- 0 -->
      <defs>
       <path d="M 31.78125 66.40625 
Q 24.171875 66.40625 20.328125 58.90625 
Q 16.5 51.421875 16.5 36.375 
Q 16.5 21.390625 20.328125 13.890625 
Q 24.171875 6.390625 31.78125 6.390625 
Q 39.453125 6.390625 43.28125 13.890625 
Q 47.125 21.390625 47.125 36.375 
Q 47.125 51.421875 43.28125 58.90625 
Q 39.453125 66.40625 31.78125 66.40625 
z
M 31.78125 74.21875 
Q 44.046875 74.21875 50.515625 64.515625 
Q 56.984375 54.828125 56.984375 36.375 
Q 56.984375 17.96875 50.515625 8.265625 
Q 44.046875 -1.421875 31.78125 -1.421875 
Q 19.53125 -1.421875 13.0625 8.265625 
Q 6.59375 17.96875 6.59375 36.375 
Q 6.59375 54.828125 13.0625 64.515625 
Q 19.53125 74.21875 31.78125 74.21875 
z
" id="DejaVuSans-30"/>
      </defs>
      <g transform="translate(49.7575 317.076875)scale(0.2 -0.2)">
       <use xlink:href="#DejaVuSans-30"/>
      </g>
     </g>
    </g>
    <g id="xtick_2">
     <g id="line2d_7">
      <path clip-path="url(#p3a0f0564fc)" d="M 135.351336 294.88 
L 135.351336 24.84 
" style="fill:none;stroke:#b0b0b0;stroke-linecap:square;stroke-width:0.8;"/>
     </g>
     <g id="line2d_8">
      <g>
       <use style="stroke:#000000;stroke-width:0.8;" x="135.351336" xlink:href="#m3a2a0fa793" y="294.88"/>
      </g>
     </g>
     <g id="text_2">
      <!-- 2 -->
      <defs>
       <path d="M 19.1875 8.296875 
L 53.609375 8.296875 
L 53.609375 0 
L 7.328125 0 
L 7.328125 8.296875 
Q 12.9375 14.109375 22.625 23.890625 
Q 32.328125 33.6875 34.8125 36.53125 
Q 39.546875 41.84375 41.421875 45.53125 
Q 43.3125 49.21875 43.3125 52.78125 
Q 43.3125 58.59375 39.234375 62.25 
Q 35.15625 65.921875 28.609375 65.921875 
Q 23.96875 65.921875 18.8125 64.3125 
Q 13.671875 62.703125 7.8125 59.421875 
L 7.8125 69.390625 
Q 13.765625 71.78125 18.9375 73 
Q 24.125 74.21875 28.421875 74.21875 
Q 39.75 74.21875 46.484375 68.546875 
Q 53.21875 62.890625 53.21875 53.421875 
Q 53.21875 48.921875 51.53125 44.890625 
Q 49.859375 40.875 45.40625 35.40625 
Q 44.1875 33.984375 37.640625 27.21875 
Q 31.109375 20.453125 19.1875 8.296875 
z
" id="DejaVuSans-32"/>
      </defs>
      <g transform="translate(128.988836 317.076875)scale(0.2 -0.2)">
       <use xlink:href="#DejaVuSans-32"/>
      </g>
     </g>
    </g>
    <g id="xtick_3">
     <g id="line2d_9">
      <path clip-path="url(#p3a0f0564fc)" d="M 214.582673 294.88 
L 214.582673 24.84 
" style="fill:none;stroke:#b0b0b0;stroke-linecap:square;stroke-width:0.8;"/>
     </g>
     <g id="line2d_10">
      <g>
       <use style="stroke:#000000;stroke-width:0.8;" x="214.582673" xlink:href="#m3a2a0fa793" y="294.88"/>
      </g>
     </g>
     <g id="text_3">
      <!-- 4 -->
      <defs>
       <path d="M 37.796875 64.3125 
L 12.890625 25.390625 
L 37.796875 25.390625 
z
M 35.203125 72.90625 
L 47.609375 72.90625 
L 47.609375 25.390625 
L 58.015625 25.390625 
L 58.015625 17.1875 
L 47.609375 17.1875 
L 47.609375 0 
L 37.796875 0 
L 37.796875 17.1875 
L 4.890625 17.1875 
L 4.890625 26.703125 
z
" id="DejaVuSans-34"/>
      </defs>
      <g transform="translate(208.220173 317.076875)scale(0.2 -0.2)">
       <use xlink:href="#DejaVuSans-34"/>
      </g>
     </g>
    </g>
    <g id="xtick_4">
     <g id="line2d_11">
      <path clip-path="url(#p3a0f0564fc)" d="M 293.814009 294.88 
L 293.814009 24.84 
" style="fill:none;stroke:#b0b0b0;stroke-linecap:square;stroke-width:0.8;"/>
     </g>
     <g id="line2d_12">
      <g>
       <use style="stroke:#000000;stroke-width:0.8;" x="293.814009" xlink:href="#m3a2a0fa793" y="294.88"/>
      </g>
     </g>
     <g id="text_4">
      <!-- 6 -->
      <defs>
       <path d="M 33.015625 40.375 
Q 26.375 40.375 22.484375 35.828125 
Q 18.609375 31.296875 18.609375 23.390625 
Q 18.609375 15.53125 22.484375 10.953125 
Q 26.375 6.390625 33.015625 6.390625 
Q 39.65625 6.390625 43.53125 10.953125 
Q 47.40625 15.53125 47.40625 23.390625 
Q 47.40625 31.296875 43.53125 35.828125 
Q 39.65625 40.375 33.015625 40.375 
z
M 52.59375 71.296875 
L 52.59375 62.3125 
Q 48.875 64.0625 45.09375 64.984375 
Q 41.3125 65.921875 37.59375 65.921875 
Q 27.828125 65.921875 22.671875 59.328125 
Q 17.53125 52.734375 16.796875 39.40625 
Q 19.671875 43.65625 24.015625 45.921875 
Q 28.375 48.1875 33.59375 48.1875 
Q 44.578125 48.1875 50.953125 41.515625 
Q 57.328125 34.859375 57.328125 23.390625 
Q 57.328125 12.15625 50.6875 5.359375 
Q 44.046875 -1.421875 33.015625 -1.421875 
Q 20.359375 -1.421875 13.671875 8.265625 
Q 6.984375 17.96875 6.984375 36.375 
Q 6.984375 53.65625 15.1875 63.9375 
Q 23.390625 74.21875 37.203125 74.21875 
Q 40.921875 74.21875 44.703125 73.484375 
Q 48.484375 72.75 52.59375 71.296875 
z
" id="DejaVuSans-36"/>
      </defs>
      <g transform="translate(287.451509 317.076875)scale(0.2 -0.2)">
       <use xlink:href="#DejaVuSans-36"/>
      </g>
     </g>
    </g>
    <g id="xtick_5">
     <g id="line2d_13">
      <path clip-path="url(#p3a0f0564fc)" d="M 373.045346 294.88 
L 373.045346 24.84 
" style="fill:none;stroke:#b0b0b0;stroke-linecap:square;stroke-width:0.8;"/>
     </g>
     <g id="line2d_14">
      <g>
       <use style="stroke:#000000;stroke-width:0.8;" x="373.045346" xlink:href="#m3a2a0fa793" y="294.88"/>
      </g>
     </g>
     <g id="text_5">
      <!-- 8 -->
      <defs>
       <path d="M 31.78125 34.625 
Q 24.75 34.625 20.71875 30.859375 
Q 16.703125 27.09375 16.703125 20.515625 
Q 16.703125 13.921875 20.71875 10.15625 
Q 24.75 6.390625 31.78125 6.390625 
Q 38.8125 6.390625 42.859375 10.171875 
Q 46.921875 13.96875 46.921875 20.515625 
Q 46.921875 27.09375 42.890625 30.859375 
Q 38.875 34.625 31.78125 34.625 
z
M 21.921875 38.8125 
Q 15.578125 40.375 12.03125 44.71875 
Q 8.5 49.078125 8.5 55.328125 
Q 8.5 64.0625 14.71875 69.140625 
Q 20.953125 74.21875 31.78125 74.21875 
Q 42.671875 74.21875 48.875 69.140625 
Q 55.078125 64.0625 55.078125 55.328125 
Q 55.078125 49.078125 51.53125 44.71875 
Q 48 40.375 41.703125 38.8125 
Q 48.828125 37.15625 52.796875 32.3125 
Q 56.78125 27.484375 56.78125 20.515625 
Q 56.78125 9.90625 50.3125 4.234375 
Q 43.84375 -1.421875 31.78125 -1.421875 
Q 19.734375 -1.421875 13.25 4.234375 
Q 6.78125 9.90625 6.78125 20.515625 
Q 6.78125 27.484375 10.78125 32.3125 
Q 14.796875 37.15625 21.921875 38.8125 
z
M 18.3125 54.390625 
Q 18.3125 48.734375 21.84375 45.5625 
Q 25.390625 42.390625 31.78125 42.390625 
Q 38.140625 42.390625 41.71875 45.5625 
Q 45.3125 48.734375 45.3125 54.390625 
Q 45.3125 60.0625 41.71875 63.234375 
Q 38.140625 66.40625 31.78125 66.40625 
Q 25.390625 66.40625 21.84375 63.234375 
Q 18.3125 60.0625 18.3125 54.390625 
z
" id="DejaVuSans-38"/>
      </defs>
      <g transform="translate(366.682846 317.076875)scale(0.2 -0.2)">
       <use xlink:href="#DejaVuSans-38"/>
      </g>
     </g>
    </g>
    <g id="text_6">
     <!-- log10(# f-evals / dimension) -->
     <defs>
      <path d="M 9.421875 75.984375 
L 18.40625 75.984375 
L 18.40625 0 
L 9.421875 0 
z
" id="DejaVuSans-6c"/>
      <path d="M 30.609375 48.390625 
Q 23.390625 48.390625 19.1875 42.75 
Q 14.984375 37.109375 14.984375 27.296875 
Q 14.984375 17.484375 19.15625 11.84375 
Q 23.34375 6.203125 30.609375 6.203125 
Q 37.796875 6.203125 41.984375 11.859375 
Q 46.1875 17.53125 46.1875 27.296875 
Q 46.1875 37.015625 41.984375 42.703125 
Q 37.796875 48.390625 30.609375 48.390625 
z
M 30.609375 56 
Q 42.328125 56 49.015625 48.375 
Q 55.71875 40.765625 55.71875 27.296875 
Q 55.71875 13.875 49.015625 6.21875 
Q 42.328125 -1.421875 30.609375 -1.421875 
Q 18.84375 -1.421875 12.171875 6.21875 
Q 5.515625 13.875 5.515625 27.296875 
Q 5.515625 40.765625 12.171875 48.375 
Q 18.84375 56 30.609375 56 
z
" id="DejaVuSans-6f"/>
      <path d="M 45.40625 27.984375 
Q 45.40625 37.75 41.375 43.109375 
Q 37.359375 48.484375 30.078125 48.484375 
Q 22.859375 48.484375 18.828125 43.109375 
Q 14.796875 37.75 14.796875 27.984375 
Q 14.796875 18.265625 18.828125 12.890625 
Q 22.859375 7.515625 30.078125 7.515625 
Q 37.359375 7.515625 41.375 12.890625 
Q 45.40625 18.265625 45.40625 27.984375 
z
M 54.390625 6.78125 
Q 54.390625 -7.171875 48.1875 -13.984375 
Q 42 -20.796875 29.203125 -20.796875 
Q 24.46875 -20.796875 20.265625 -20.09375 
Q 16.0625 -19.390625 12.109375 -17.921875 
L 12.109375 -9.1875 
Q 16.0625 -11.328125 19.921875 -12.34375 
Q 23.78125 -13.375 27.78125 -13.375 
Q 36.625 -13.375 41.015625 -8.765625 
Q 45.40625 -4.15625 45.40625 5.171875 
L 45.40625 9.625 
Q 42.625 4.78125 38.28125 2.390625 
Q 33.9375 0 27.875 0 
Q 17.828125 0 11.671875 7.65625 
Q 5.515625 15.328125 5.515625 27.984375 
Q 5.515625 40.671875 11.671875 48.328125 
Q 17.828125 56 27.875 56 
Q 33.9375 56 38.28125 53.609375 
Q 42.625 51.21875 45.40625 46.390625 
L 45.40625 54.6875 
L 54.390625 54.6875 
z
" id="DejaVuSans-67"/>
      <path d="M 12.40625 8.296875 
L 28.515625 8.296875 
L 28.515625 63.921875 
L 10.984375 60.40625 
L 10.984375 69.390625 
L 28.421875 72.90625 
L 38.28125 72.90625 
L 38.28125 8.296875 
L 54.390625 8.296875 
L 54.390625 0 
L 12.40625 0 
z
" id="DejaVuSans-31"/>
      <path d="M 31 75.875 
Q 24.46875 64.65625 21.28125 53.65625 
Q 18.109375 42.671875 18.109375 31.390625 
Q 18.109375 20.125 21.3125 9.0625 
Q 24.515625 -2 31 -13.1875 
L 23.1875 -13.1875 
Q 15.875 -1.703125 12.234375 9.375 
Q 8.59375 20.453125 8.59375 31.390625 
Q 8.59375 42.28125 12.203125 53.3125 
Q 15.828125 64.359375 23.1875 75.875 
z
" id="DejaVuSans-28"/>
      <path d="M 51.125 44 
L 36.921875 44 
L 32.8125 27.6875 
L 47.125 27.6875 
z
M 43.796875 71.78125 
L 38.71875 51.515625 
L 52.984375 51.515625 
L 58.109375 71.78125 
L 65.921875 71.78125 
L 60.890625 51.515625 
L 76.125 51.515625 
L 76.125 44 
L 58.984375 44 
L 54.984375 27.6875 
L 70.515625 27.6875 
L 70.515625 20.21875 
L 53.078125 20.21875 
L 48 0 
L 40.1875 0 
L 45.21875 20.21875 
L 30.90625 20.21875 
L 25.875 0 
L 18.015625 0 
L 23.09375 20.21875 
L 7.71875 20.21875 
L 7.71875 27.6875 
L 24.90625 27.6875 
L 29 44 
L 13.28125 44 
L 13.28125 51.515625 
L 30.90625 51.515625 
L 35.890625 71.78125 
z
" id="DejaVuSans-23"/>
      <path id="DejaVuSans-20"/>
      <path d="M 37.109375 75.984375 
L 37.109375 68.5 
L 28.515625 68.5 
Q 23.6875 68.5 21.796875 66.546875 
Q 19.921875 64.59375 19.921875 59.515625 
L 19.921875 54.6875 
L 34.71875 54.6875 
L 34.71875 47.703125 
L 19.921875 47.703125 
L 19.921875 0 
L 10.890625 0 
L 10.890625 47.703125 
L 2.296875 47.703125 
L 2.296875 54.6875 
L 10.890625 54.6875 
L 10.890625 58.5 
Q 10.890625 67.625 15.140625 71.796875 
Q 19.390625 75.984375 28.609375 75.984375 
z
" id="DejaVuSans-66"/>
      <path d="M 4.890625 31.390625 
L 31.203125 31.390625 
L 31.203125 23.390625 
L 4.890625 23.390625 
z
" id="DejaVuSans-2d"/>
      <path d="M 56.203125 29.59375 
L 56.203125 25.203125 
L 14.890625 25.203125 
Q 15.484375 15.921875 20.484375 11.0625 
Q 25.484375 6.203125 34.421875 6.203125 
Q 39.59375 6.203125 44.453125 7.46875 
Q 49.3125 8.734375 54.109375 11.28125 
L 54.109375 2.78125 
Q 49.265625 0.734375 44.1875 -0.34375 
Q 39.109375 -1.421875 33.890625 -1.421875 
Q 20.796875 -1.421875 13.15625 6.1875 
Q 5.515625 13.8125 5.515625 26.8125 
Q 5.515625 40.234375 12.765625 48.109375 
Q 20.015625 56 32.328125 56 
Q 43.359375 56 49.78125 48.890625 
Q 56.203125 41.796875 56.203125 29.59375 
z
M 47.21875 32.234375 
Q 47.125 39.59375 43.09375 43.984375 
Q 39.0625 48.390625 32.421875 48.390625 
Q 24.90625 48.390625 20.390625 44.140625 
Q 15.875 39.890625 15.1875 32.171875 
z
" id="DejaVuSans-65"/>
      <path d="M 2.984375 54.6875 
L 12.5 54.6875 
L 29.59375 8.796875 
L 46.6875 54.6875 
L 56.203125 54.6875 
L 35.6875 0 
L 23.484375 0 
z
" id="DejaVuSans-76"/>
      <path d="M 34.28125 27.484375 
Q 23.390625 27.484375 19.1875 25 
Q 14.984375 22.515625 14.984375 16.5 
Q 14.984375 11.71875 18.140625 8.90625 
Q 21.296875 6.109375 26.703125 6.109375 
Q 34.1875 6.109375 38.703125 11.40625 
Q 43.21875 16.703125 43.21875 25.484375 
L 43.21875 27.484375 
z
M 52.203125 31.203125 
L 52.203125 0 
L 43.21875 0 
L 43.21875 8.296875 
Q 40.140625 3.328125 35.546875 0.953125 
Q 30.953125 -1.421875 24.3125 -1.421875 
Q 15.921875 -1.421875 10.953125 3.296875 
Q 6 8.015625 6 15.921875 
Q 6 25.140625 12.171875 29.828125 
Q 18.359375 34.515625 30.609375 34.515625 
L 43.21875 34.515625 
L 43.21875 35.40625 
Q 43.21875 41.609375 39.140625 45 
Q 35.0625 48.390625 27.6875 48.390625 
Q 23 48.390625 18.546875 47.265625 
Q 14.109375 46.140625 10.015625 43.890625 
L 10.015625 52.203125 
Q 14.9375 54.109375 19.578125 55.046875 
Q 24.21875 56 28.609375 56 
Q 40.484375 56 46.34375 49.84375 
Q 52.203125 43.703125 52.203125 31.203125 
z
" id="DejaVuSans-61"/>
      <path d="M 44.28125 53.078125 
L 44.28125 44.578125 
Q 40.484375 46.53125 36.375 47.5 
Q 32.28125 48.484375 27.875 48.484375 
Q 21.1875 48.484375 17.84375 46.4375 
Q 14.5 44.390625 14.5 40.28125 
Q 14.5 37.15625 16.890625 35.375 
Q 19.28125 33.59375 26.515625 31.984375 
L 29.59375 31.296875 
Q 39.15625 29.25 43.1875 25.515625 
Q 47.21875 21.78125 47.21875 15.09375 
Q 47.21875 7.46875 41.1875 3.015625 
Q 35.15625 -1.421875 24.609375 -1.421875 
Q 20.21875 -1.421875 15.453125 -0.5625 
Q 10.6875 0.296875 5.421875 2 
L 5.421875 11.28125 
Q 10.40625 8.6875 15.234375 7.390625 
Q 20.0625 6.109375 24.8125 6.109375 
Q 31.15625 6.109375 34.5625 8.28125 
Q 37.984375 10.453125 37.984375 14.40625 
Q 37.984375 18.0625 35.515625 20.015625 
Q 33.0625 21.96875 24.703125 23.78125 
L 21.578125 24.515625 
Q 13.234375 26.265625 9.515625 29.90625 
Q 5.8125 33.546875 5.8125 39.890625 
Q 5.8125 47.609375 11.28125 51.796875 
Q 16.75 56 26.8125 56 
Q 31.78125 56 36.171875 55.265625 
Q 40.578125 54.546875 44.28125 53.078125 
z
" id="DejaVuSans-73"/>
      <path d="M 25.390625 72.90625 
L 33.6875 72.90625 
L 8.296875 -9.28125 
L 0 -9.28125 
z
" id="DejaVuSans-2f"/>
      <path d="M 45.40625 46.390625 
L 45.40625 75.984375 
L 54.390625 75.984375 
L 54.390625 0 
L 45.40625 0 
L 45.40625 8.203125 
Q 42.578125 3.328125 38.25 0.953125 
Q 33.9375 -1.421875 27.875 -1.421875 
Q 17.96875 -1.421875 11.734375 6.484375 
Q 5.515625 14.40625 5.515625 27.296875 
Q 5.515625 40.1875 11.734375 48.09375 
Q 17.96875 56 27.875 56 
Q 33.9375 56 38.25 53.625 
Q 42.578125 51.265625 45.40625 46.390625 
z
M 14.796875 27.296875 
Q 14.796875 17.390625 18.875 11.75 
Q 22.953125 6.109375 30.078125 6.109375 
Q 37.203125 6.109375 41.296875 11.75 
Q 45.40625 17.390625 45.40625 27.296875 
Q 45.40625 37.203125 41.296875 42.84375 
Q 37.203125 48.484375 30.078125 48.484375 
Q 22.953125 48.484375 18.875 42.84375 
Q 14.796875 37.203125 14.796875 27.296875 
z
" id="DejaVuSans-64"/>
      <path d="M 9.421875 54.6875 
L 18.40625 54.6875 
L 18.40625 0 
L 9.421875 0 
z
M 9.421875 75.984375 
L 18.40625 75.984375 
L 18.40625 64.59375 
L 9.421875 64.59375 
z
" id="DejaVuSans-69"/>
      <path d="M 52 44.1875 
Q 55.375 50.25 60.0625 53.125 
Q 64.75 56 71.09375 56 
Q 79.640625 56 84.28125 50.015625 
Q 88.921875 44.046875 88.921875 33.015625 
L 88.921875 0 
L 79.890625 0 
L 79.890625 32.71875 
Q 79.890625 40.578125 77.09375 44.375 
Q 74.3125 48.1875 68.609375 48.1875 
Q 61.625 48.1875 57.5625 43.546875 
Q 53.515625 38.921875 53.515625 30.90625 
L 53.515625 0 
L 44.484375 0 
L 44.484375 32.71875 
Q 44.484375 40.625 41.703125 44.40625 
Q 38.921875 48.1875 33.109375 48.1875 
Q 26.21875 48.1875 22.15625 43.53125 
Q 18.109375 38.875 18.109375 30.90625 
L 18.109375 0 
L 9.078125 0 
L 9.078125 54.6875 
L 18.109375 54.6875 
L 18.109375 46.1875 
Q 21.1875 51.21875 25.484375 53.609375 
Q 29.78125 56 35.6875 56 
Q 41.65625 56 45.828125 52.96875 
Q 50 49.953125 52 44.1875 
z
" id="DejaVuSans-6d"/>
      <path d="M 54.890625 33.015625 
L 54.890625 0 
L 45.90625 0 
L 45.90625 32.71875 
Q 45.90625 40.484375 42.875 44.328125 
Q 39.84375 48.1875 33.796875 48.1875 
Q 26.515625 48.1875 22.3125 43.546875 
Q 18.109375 38.921875 18.109375 30.90625 
L 18.109375 0 
L 9.078125 0 
L 9.078125 54.6875 
L 18.109375 54.6875 
L 18.109375 46.1875 
Q 21.34375 51.125 25.703125 53.5625 
Q 30.078125 56 35.796875 56 
Q 45.21875 56 50.046875 50.171875 
Q 54.890625 44.34375 54.890625 33.015625 
z
" id="DejaVuSans-6e"/>
      <path d="M 8.015625 75.875 
L 15.828125 75.875 
Q 23.140625 64.359375 26.78125 53.3125 
Q 30.421875 42.28125 30.421875 31.390625 
Q 30.421875 20.453125 26.78125 9.375 
Q 23.140625 -1.703125 15.828125 -13.1875 
L 8.015625 -13.1875 
Q 14.5 -2 17.703125 9.0625 
Q 20.90625 20.125 20.90625 31.390625 
Q 20.90625 42.671875 17.703125 53.65625 
Q 14.5 64.65625 8.015625 75.875 
z
" id="DejaVuSans-29"/>
     </defs>
     <g transform="translate(107.211219 338.153594)scale(0.17 -0.17)">
      <use xlink:href="#DejaVuSans-6c"/>
      <use x="27.783203" xlink:href="#DejaVuSans-6f"/>
      <use x="88.964844" xlink:href="#DejaVuSans-67"/>
      <use x="152.441406" xlink:href="#DejaVuSans-31"/>
      <use x="216.064453" xlink:href="#DejaVuSans-30"/>
      <use x="279.6875" xlink:href="#DejaVuSans-28"/>
      <use x="318.701172" xlink:href="#DejaVuSans-23"/>
      <use x="402.490234" xlink:href="#DejaVuSans-20"/>
      <use x="434.277344" xlink:href="#DejaVuSans-66"/>
      <use x="469.404297" xlink:href="#DejaVuSans-2d"/>
      <use x="505.488281" xlink:href="#DejaVuSans-65"/>
      <use x="567.011719" xlink:href="#DejaVuSans-76"/>
      <use x="626.191406" xlink:href="#DejaVuSans-61"/>
      <use x="687.470703" xlink:href="#DejaVuSans-6c"/>
      <use x="715.253906" xlink:href="#DejaVuSans-73"/>
      <use x="767.353516" xlink:href="#DejaVuSans-20"/>
      <use x="799.140625" xlink:href="#DejaVuSans-2f"/>
      <use x="832.832031" xlink:href="#DejaVuSans-20"/>
      <use x="864.619141" xlink:href="#DejaVuSans-64"/>
      <use x="928.095703" xlink:href="#DejaVuSans-69"/>
      <use x="955.878906" xlink:href="#DejaVuSans-6d"/>
      <use x="1053.291016" xlink:href="#DejaVuSans-65"/>
      <use x="1114.814453" xlink:href="#DejaVuSans-6e"/>
      <use x="1178.193359" xlink:href="#DejaVuSans-73"/>
      <use x="1230.292969" xlink:href="#DejaVuSans-69"/>
      <use x="1258.076172" xlink:href="#DejaVuSans-6f"/>
      <use x="1319.257812" xlink:href="#DejaVuSans-6e"/>
      <use x="1382.636719" xlink:href="#DejaVuSans-29"/>
     </g>
    </g>
   </g>
   <g id="matplotlib.axis_2">
    <g id="ytick_1">
     <g id="line2d_15">
      <path clip-path="url(#p3a0f0564fc)" d="M 56.12 294.88 
L 399.984 294.88 
" style="fill:none;stroke:#b0b0b0;stroke-linecap:square;stroke-width:0.8;"/>
     </g>
     <g id="line2d_16">
      <defs>
       <path d="M 0 0 
L -3.5 0 
" id="mf789614d98" style="stroke:#000000;stroke-width:0.8;"/>
      </defs>
      <g>
       <use style="stroke:#000000;stroke-width:0.8;" x="56.12" xlink:href="#mf789614d98" y="294.88"/>
      </g>
     </g>
     <g id="text_7">
      <!-- 0.0 -->
      <defs>
       <path d="M 10.6875 12.40625 
L 21 12.40625 
L 21 0 
L 10.6875 0 
z
" id="DejaVuSans-2e"/>
      </defs>
      <g transform="translate(23.675 300.95875)scale(0.16 -0.16)">
       <use xlink:href="#DejaVuSans-30"/>
       <use x="63.623047" xlink:href="#DejaVuSans-2e"/>
       <use x="95.410156" xlink:href="#DejaVuSans-30"/>
      </g>
     </g>
    </g>
    <g id="ytick_2">
     <g id="line2d_17">
      <path clip-path="url(#p3a0f0564fc)" d="M 56.12 241.406733 
L 399.984 241.406733 
" style="fill:none;stroke:#b0b0b0;stroke-linecap:square;stroke-width:0.8;"/>
     </g>
     <g id="line2d_18">
      <g>
       <use style="stroke:#000000;stroke-width:0.8;" x="56.12" xlink:href="#mf789614d98" y="241.406733"/>
      </g>
     </g>
     <g id="text_8">
      <!-- 0.2 -->
      <g transform="translate(23.675 247.485483)scale(0.16 -0.16)">
       <use xlink:href="#DejaVuSans-30"/>
       <use x="63.623047" xlink:href="#DejaVuSans-2e"/>
       <use x="95.410156" xlink:href="#DejaVuSans-32"/>
      </g>
     </g>
    </g>
    <g id="ytick_3">
     <g id="line2d_19">
      <path clip-path="url(#p3a0f0564fc)" d="M 56.12 187.933465 
L 399.984 187.933465 
" style="fill:none;stroke:#b0b0b0;stroke-linecap:square;stroke-width:0.8;"/>
     </g>
     <g id="line2d_20">
      <g>
       <use style="stroke:#000000;stroke-width:0.8;" x="56.12" xlink:href="#mf789614d98" y="187.933465"/>
      </g>
     </g>
     <g id="text_9">
      <!-- 0.4 -->
      <g transform="translate(23.675 194.012215)scale(0.16 -0.16)">
       <use xlink:href="#DejaVuSans-30"/>
       <use x="63.623047" xlink:href="#DejaVuSans-2e"/>
       <use x="95.410156" xlink:href="#DejaVuSans-34"/>
      </g>
     </g>
    </g>
    <g id="ytick_4">
     <g id="line2d_21">
      <path clip-path="url(#p3a0f0564fc)" d="M 56.12 134.460198 
L 399.984 134.460198 
" style="fill:none;stroke:#b0b0b0;stroke-linecap:square;stroke-width:0.8;"/>
     </g>
     <g id="line2d_22">
      <g>
       <use style="stroke:#000000;stroke-width:0.8;" x="56.12" xlink:href="#mf789614d98" y="134.460198"/>
      </g>
     </g>
     <g id="text_10">
      <!-- 0.6 -->
      <g transform="translate(23.675 140.538948)scale(0.16 -0.16)">
       <use xlink:href="#DejaVuSans-30"/>
       <use x="63.623047" xlink:href="#DejaVuSans-2e"/>
       <use x="95.410156" xlink:href="#DejaVuSans-36"/>
      </g>
     </g>
    </g>
    <g id="ytick_5">
     <g id="line2d_23">
      <path clip-path="url(#p3a0f0564fc)" d="M 56.12 80.986931 
L 399.984 80.986931 
" style="fill:none;stroke:#b0b0b0;stroke-linecap:square;stroke-width:0.8;"/>
     </g>
     <g id="line2d_24">
      <g>
       <use style="stroke:#000000;stroke-width:0.8;" x="56.12" xlink:href="#mf789614d98" y="80.986931"/>
      </g>
     </g>
     <g id="text_11">
      <!-- 0.8 -->
      <g transform="translate(23.675 87.065681)scale(0.16 -0.16)">
       <use xlink:href="#DejaVuSans-30"/>
       <use x="63.623047" xlink:href="#DejaVuSans-2e"/>
       <use x="95.410156" xlink:href="#DejaVuSans-38"/>
      </g>
     </g>
    </g>
    <g id="ytick_6">
     <g id="line2d_25">
      <path clip-path="url(#p3a0f0564fc)" d="M 56.12 27.513663 
L 399.984 27.513663 
" style="fill:none;stroke:#b0b0b0;stroke-linecap:square;stroke-width:0.8;"/>
     </g>
     <g id="line2d_26">
      <g>
       <use style="stroke:#000000;stroke-width:0.8;" x="56.12" xlink:href="#mf789614d98" y="27.513663"/>
      </g>
     </g>
     <g id="text_12">
      <!-- 1.0 -->
      <g transform="translate(23.675 33.592413)scale(0.16 -0.16)">
       <use xlink:href="#DejaVuSans-31"/>
       <use x="63.623047" xlink:href="#DejaVuSans-2e"/>
       <use x="95.410156" xlink:href="#DejaVuSans-30"/>
      </g>
     </g>
    </g>
    <g id="text_13">
     <!-- Fraction of function,target pairs -->
     <defs>
      <path d="M 9.8125 72.90625 
L 51.703125 72.90625 
L 51.703125 64.59375 
L 19.671875 64.59375 
L 19.671875 43.109375 
L 48.578125 43.109375 
L 48.578125 34.8125 
L 19.671875 34.8125 
L 19.671875 0 
L 9.8125 0 
z
" id="DejaVuSans-46"/>
      <path d="M 41.109375 46.296875 
Q 39.59375 47.171875 37.8125 47.578125 
Q 36.03125 48 33.890625 48 
Q 26.265625 48 22.1875 43.046875 
Q 18.109375 38.09375 18.109375 28.8125 
L 18.109375 0 
L 9.078125 0 
L 9.078125 54.6875 
L 18.109375 54.6875 
L 18.109375 46.1875 
Q 20.953125 51.171875 25.484375 53.578125 
Q 30.03125 56 36.53125 56 
Q 37.453125 56 38.578125 55.875 
Q 39.703125 55.765625 41.0625 55.515625 
z
" id="DejaVuSans-72"/>
      <path d="M 48.78125 52.59375 
L 48.78125 44.1875 
Q 44.96875 46.296875 41.140625 47.34375 
Q 37.3125 48.390625 33.40625 48.390625 
Q 24.65625 48.390625 19.8125 42.84375 
Q 14.984375 37.3125 14.984375 27.296875 
Q 14.984375 17.28125 19.8125 11.734375 
Q 24.65625 6.203125 33.40625 6.203125 
Q 37.3125 6.203125 41.140625 7.25 
Q 44.96875 8.296875 48.78125 10.40625 
L 48.78125 2.09375 
Q 45.015625 0.34375 40.984375 -0.53125 
Q 36.96875 -1.421875 32.421875 -1.421875 
Q 20.0625 -1.421875 12.78125 6.34375 
Q 5.515625 14.109375 5.515625 27.296875 
Q 5.515625 40.671875 12.859375 48.328125 
Q 20.21875 56 33.015625 56 
Q 37.15625 56 41.109375 55.140625 
Q 45.0625 54.296875 48.78125 52.59375 
z
" id="DejaVuSans-63"/>
      <path d="M 18.3125 70.21875 
L 18.3125 54.6875 
L 36.8125 54.6875 
L 36.8125 47.703125 
L 18.3125 47.703125 
L 18.3125 18.015625 
Q 18.3125 11.328125 20.140625 9.421875 
Q 21.96875 7.515625 27.59375 7.515625 
L 36.8125 7.515625 
L 36.8125 0 
L 27.59375 0 
Q 17.1875 0 13.234375 3.875 
Q 9.28125 7.765625 9.28125 18.015625 
L 9.28125 47.703125 
L 2.6875 47.703125 
L 2.6875 54.6875 
L 9.28125 54.6875 
L 9.28125 70.21875 
z
" id="DejaVuSans-74"/>
      <path d="M 8.5 21.578125 
L 8.5 54.6875 
L 17.484375 54.6875 
L 17.484375 21.921875 
Q 17.484375 14.15625 20.5 10.265625 
Q 23.53125 6.390625 29.59375 6.390625 
Q 36.859375 6.390625 41.078125 11.03125 
Q 45.3125 15.671875 45.3125 23.6875 
L 45.3125 54.6875 
L 54.296875 54.6875 
L 54.296875 0 
L 45.3125 0 
L 45.3125 8.40625 
Q 42.046875 3.421875 37.71875 1 
Q 33.40625 -1.421875 27.6875 -1.421875 
Q 18.265625 -1.421875 13.375 4.4375 
Q 8.5 10.296875 8.5 21.578125 
z
M 31.109375 56 
z
" id="DejaVuSans-75"/>
      <path d="M 11.71875 12.40625 
L 22.015625 12.40625 
L 22.015625 4 
L 14.015625 -11.625 
L 7.71875 -11.625 
L 11.71875 4 
z
" id="DejaVuSans-2c"/>
      <path d="M 18.109375 8.203125 
L 18.109375 -20.796875 
L 9.078125 -20.796875 
L 9.078125 54.6875 
L 18.109375 54.6875 
L 18.109375 46.390625 
Q 20.953125 51.265625 25.265625 53.625 
Q 29.59375 56 35.59375 56 
Q 45.5625 56 51.78125 48.09375 
Q 58.015625 40.1875 58.015625 27.296875 
Q 58.015625 14.40625 51.78125 6.484375 
Q 45.5625 -1.421875 35.59375 -1.421875 
Q 29.59375 -1.421875 25.265625 0.953125 
Q 20.953125 3.328125 18.109375 8.203125 
z
M 48.6875 27.296875 
Q 48.6875 37.203125 44.609375 42.84375 
Q 40.53125 48.484375 33.40625 48.484375 
Q 26.265625 48.484375 22.1875 42.84375 
Q 18.109375 37.203125 18.109375 27.296875 
Q 18.109375 17.390625 22.1875 11.75 
Q 26.265625 6.109375 33.40625 6.109375 
Q 40.53125 6.109375 44.609375 11.75 
Q 48.6875 17.390625 48.6875 27.296875 
z
" id="DejaVuSans-70"/>
     </defs>
     <g transform="translate(16.139531 294.999375)rotate(-90)scale(0.17 -0.17)">
      <use xlink:href="#DejaVuSans-46"/>
      <use x="57.410156" xlink:href="#DejaVuSans-72"/>
      <use x="98.523438" xlink:href="#DejaVuSans-61"/>
      <use x="159.802734" xlink:href="#DejaVuSans-63"/>
      <use x="214.783203" xlink:href="#DejaVuSans-74"/>
      <use x="253.992188" xlink:href="#DejaVuSans-69"/>
      <use x="281.775391" xlink:href="#DejaVuSans-6f"/>
      <use x="342.957031" xlink:href="#DejaVuSans-6e"/>
      <use x="406.335938" xlink:href="#DejaVuSans-20"/>
      <use x="438.123047" xlink:href="#DejaVuSans-6f"/>
      <use x="499.304688" xlink:href="#DejaVuSans-66"/>
      <use x="534.509766" xlink:href="#DejaVuSans-20"/>
      <use x="566.296875" xlink:href="#DejaVuSans-66"/>
      <use x="601.501953" xlink:href="#DejaVuSans-75"/>
      <use x="664.880859" xlink:href="#DejaVuSans-6e"/>
      <use x="728.259766" xlink:href="#DejaVuSans-63"/>
      <use x="783.240234" xlink:href="#DejaVuSans-74"/>
      <use x="822.449219" xlink:href="#DejaVuSans-69"/>
      <use x="850.232422" xlink:href="#DejaVuSans-6f"/>
      <use x="911.414062" xlink:href="#DejaVuSans-6e"/>
      <use x="974.792969" xlink:href="#DejaVuSans-2c"/>
      <use x="1006.580078" xlink:href="#DejaVuSans-74"/>
      <use x="1045.789062" xlink:href="#DejaVuSans-61"/>
      <use x="1107.068359" xlink:href="#DejaVuSans-72"/>
      <use x="1148.166016" xlink:href="#DejaVuSans-67"/>
      <use x="1211.642578" xlink:href="#DejaVuSans-65"/>
      <use x="1273.166016" xlink:href="#DejaVuSans-74"/>
      <use x="1312.375" xlink:href="#DejaVuSans-20"/>
      <use x="1344.162109" xlink:href="#DejaVuSans-70"/>
      <use x="1407.638672" xlink:href="#DejaVuSans-61"/>
      <use x="1468.917969" xlink:href="#DejaVuSans-69"/>
      <use x="1496.701172" xlink:href="#DejaVuSans-72"/>
      <use x="1537.814453" xlink:href="#DejaVuSans-73"/>
     </g>
    </g>
   </g>
   <g id="line2d_27">
    <defs>
     <path d="M 0 1.5 
C 0.397805 1.5 0.77937 1.341951 1.06066 1.06066 
C 1.341951 0.77937 1.5 0.397805 1.5 0 
C 1.5 -0.397805 1.341951 -0.77937 1.06066 -1.06066 
C 0.77937 -1.341951 0.397805 -1.5 0 -1.5 
C -0.397805 -1.5 -0.77937 -1.341951 -1.06066 -1.06066 
C -1.341951 -0.77937 -1.5 -0.397805 -1.5 0 
C -1.5 0.397805 -1.341951 0.77937 -1.06066 1.06066 
C -0.77937 1.341951 -0.397805 1.5 0 1.5 
z
" id="m7dc5addf94" style="stroke:#f5deb3;"/>
    </defs>
    <g>
     <use style="fill:#f5deb3;stroke:#f5deb3;" x="193.148214" xlink:href="#m7dc5addf94" y="27.513663"/>
     <use style="fill:#f5deb3;stroke:#f5deb3;" x="193.148214" xlink:href="#m7dc5addf94" y="27.513663"/>
    </g>
   </g>
   <g id="line2d_28">
    <defs>
     <path d="M 0 1.5 
C 0.397805 1.5 0.77937 1.341951 1.06066 1.06066 
C 1.341951 0.77937 1.5 0.397805 1.5 0 
C 1.5 -0.397805 1.341951 -0.77937 1.06066 -1.06066 
C 0.77937 -1.341951 0.397805 -1.5 0 -1.5 
C -0.397805 -1.5 -0.77937 -1.341951 -1.06066 -1.06066 
C -1.341951 -0.77937 -1.5 -0.397805 -1.5 0 
C -1.5 0.397805 -1.341951 0.77937 -1.06066 1.06066 
C -0.77937 1.341951 -0.397805 1.5 0 1.5 
z
" id="m82b406db2c" style="stroke:#000080;"/>
    </defs>
    <g>
     <use style="fill:#000080;stroke:#000080;" x="269.301119" xlink:href="#m82b406db2c" y="27.513663"/>
     <use style="fill:#000080;stroke:#000080;" x="269.301119" xlink:href="#m82b406db2c" y="27.513663"/>
    </g>
   </g>
   <g id="line2d_29">
    <path d="M 154.844686 294.88 
L 154.844686 293.831505 
L 155.320124 293.831505 
L 155.320124 293.307257 
L 156.006931 293.307257 
L 156.006931 292.783009 
L 156.642432 292.783009 
L 156.642432 292.258761 
L 159.559906 292.258761 
L 159.576749 291.210266 
L 160.688967 291.210266 
L 160.688967 290.686018 
L 161.689019 290.686018 
L 161.689019 290.161771 
L 161.969619 290.161771 
L 161.969619 289.637523 
L 163.991991 289.637523 
L 163.991991 288.589027 
L 165.012798 288.589027 
L 165.012798 287.016284 
L 168.022831 287.016284 
L 168.022831 286.492036 
L 168.482875 286.492036 
L 168.482875 285.967789 
L 168.707127 285.967789 
L 168.707127 285.443541 
L 169.173571 285.443541 
L 169.173571 284.919293 
L 169.39619 284.919293 
L 169.39619 284.395046 
L 172.859294 284.395046 
L 172.952388 281.249559 
L 175.553889 281.249559 
L 175.553889 280.725312 
L 175.6831 280.725312 
L 175.6831 278.628321 
L 176.656781 278.628321 
L 176.656781 277.579825 
L 176.807396 277.579825 
L 176.807396 277.055578 
L 178.517462 277.055578 
L 178.517462 276.53133 
L 179.142812 276.53133 
L 179.142812 276.007082 
L 179.892863 276.007082 
L 179.892863 274.958587 
L 180.21544 274.958587 
L 180.21544 273.910091 
L 181.047197 273.910091 
L 181.047197 273.385844 
L 181.454368 273.385844 
L 181.454368 272.861596 
L 181.845206 272.861596 
L 181.845206 272.337348 
L 183.198977 272.337348 
L 183.198977 271.8131 
L 186.352492 271.8131 
L 186.352492 271.288853 
L 187.444439 271.288853 
L 187.444439 270.240357 
L 187.718004 270.240357 
L 187.718004 269.191862 
L 187.971135 269.191862 
L 187.971135 268.667614 
L 188.290531 268.667614 
L 188.290531 268.143366 
L 188.537 268.143366 
L 188.537 267.619119 
L 188.935001 267.619119 
L 188.935001 267.094871 
L 189.716088 267.094871 
L 189.716088 266.570623 
L 190.386186 266.570623 
L 190.386186 266.046375 
L 190.784574 266.046375 
L 190.784574 265.522128 
L 191.898938 265.522128 
L 191.898938 264.99788 
L 193.445828 264.99788 
L 193.445828 264.473632 
L 194.338018 264.473632 
L 194.338018 263.949385 
L 195.897982 263.949385 
L 195.897982 262.900889 
L 196.49012 262.900889 
L 196.49012 261.852394 
L 197.412873 261.852394 
L 197.412873 261.328146 
L 197.598095 261.328146 
L 197.613787 260.279651 
L 200.583262 260.279651 
L 200.583262 259.755403 
L 205.318647 259.755403 
L 205.318647 259.231155 
L 206.073011 259.231155 
L 206.073011 258.706907 
L 206.675964 258.706907 
L 206.675964 258.18266 
L 213.12752 258.18266 
L 213.12752 257.658412 
L 214.999279 257.658412 
L 214.999279 257.134164 
L 215.737724 257.134164 
L 215.737724 256.609917 
L 216.77016 256.609917 
L 216.77016 256.085669 
L 216.910639 256.085669 
L 216.910639 254.512926 
L 217.494506 254.512926 
L 217.494506 253.988678 
L 218.128511 253.988678 
L 218.128511 253.46443 
L 218.312748 253.46443 
L 218.312748 252.940182 
L 218.778984 252.940182 
L 218.778984 252.415935 
L 222.721739 252.415935 
L 222.721739 251.367439 
L 223.460559 251.367439 
L 223.460559 250.318944 
L 228.437616 250.318944 
L 228.472646 248.221953 
L 228.572199 248.221953 
L 228.635107 246.124962 
L 228.755331 246.124962 
L 228.813737 245.076467 
L 228.987255 245.076467 
L 228.987255 244.027971 
L 229.381328 244.027971 
L 229.381328 243.503724 
L 229.611341 243.503724 
L 229.611341 242.455228 
L 229.833995 242.455228 
L 229.878819 241.406733 
L 229.951788 241.406733 
L 229.951788 240.358237 
L 230.345612 240.358237 
L 230.345612 236.164255 
L 230.60898 236.164255 
L 230.60898 235.11576 
L 230.78022 235.11576 
L 230.823518 234.067265 
L 231.37028 234.067265 
L 231.37028 233.543017 
L 231.804039 233.543017 
L 231.804039 232.494521 
L 231.958077 232.494521 
L 232.040041 231.446026 
L 232.356453 231.446026 
L 232.356453 230.921778 
L 232.861202 230.921778 
L 232.949872 228.824787 
L 233.605019 228.824787 
L 233.605019 228.30054 
L 234.027136 228.30054 
L 234.120072 226.203549 
L 234.725323 226.203549 
L 234.725963 222.533815 
L 235.048814 222.533815 
L 235.048814 221.485319 
L 235.301852 221.485319 
L 235.393969 219.388328 
L 235.673506 219.388328 
L 235.673506 218.864081 
L 235.882102 218.864081 
L 235.992697 216.76709 
L 236.368507 216.76709 
L 236.368507 215.194347 
L 236.687937 215.194347 
L 236.687937 214.670099 
L 237.036194 214.670099 
L 237.036194 214.145851 
L 237.302233 214.145851 
L 237.332616 212.573108 
L 237.766436 212.573108 
L 237.865369 210.476117 
L 237.89788 210.476117 
L 238.007089 208.379126 
L 238.642396 208.379126 
L 238.642396 207.854879 
L 238.940733 207.854879 
L 239.035109 205.757888 
L 239.281628 205.757888 
L 239.281628 205.23364 
L 239.74966 205.23364 
L 239.74966 204.709392 
L 239.974503 204.709392 
L 240.07438 201.563906 
L 240.161975 201.563906 
L 240.248701 200.515411 
L 240.322393 200.515411 
L 240.396424 198.942667 
L 240.561371 198.942667 
L 240.561371 197.894172 
L 240.697586 197.894172 
L 240.759882 196.321429 
L 240.84511 196.321429 
L 240.902665 195.272933 
L 241.020752 195.272933 
L 241.020752 193.70019 
L 241.254633 193.70019 
L 241.254633 192.651695 
L 241.430356 192.651695 
L 241.431801 191.603199 
L 241.626968 191.603199 
L 241.626968 188.981961 
L 241.876623 188.981961 
L 241.977734 186.360722 
L 242.000193 186.360722 
L 242.05649 185.312227 
L 242.200389 185.312227 
L 242.262889 182.690988 
L 242.39801 182.690988 
L 242.491967 179.545502 
L 242.611683 179.545502 
L 242.717834 175.35152 
L 242.732615 175.35152 
L 242.783663 173.778777 
L 242.943818 173.778777 
L 243.005889 172.730281 
L 243.176116 172.730281 
L 243.256377 171.681786 
L 243.320473 171.681786 
L 243.320473 170.633291 
L 243.444257 170.633291 
L 243.444257 169.584795 
L 243.570317 169.584795 
L 243.570317 167.487804 
L 243.683512 167.487804 
L 243.794077 159.624089 
L 243.858464 159.624089 
L 243.967884 155.430107 
L 243.987268 155.430107 
L 244.023515 153.333116 
L 244.117896 153.333116 
L 244.225222 149.139134 
L 244.233729 149.139134 
L 244.342625 145.993648 
L 244.368052 145.993648 
L 244.431149 143.372409 
L 244.483913 143.372409 
L 244.526496 141.799666 
L 244.60525 141.799666 
L 244.686785 140.751171 
L 244.726483 140.751171 
L 244.819945 137.081437 
L 245.039642 137.081437 
L 245.139726 134.984446 
L 245.245224 134.984446 
L 245.342597 133.411703 
L 245.390661 133.411703 
L 245.487559 130.790464 
L 245.519415 130.790464 
L 245.619842 126.596482 
L 245.683487 126.596482 
L 245.76421 122.4025 
L 245.799903 122.4025 
L 245.868025 119.781262 
L 245.916901 119.781262 
L 246.009088 116.635776 
L 246.188925 116.635776 
L 246.214256 115.58728 
L 246.414868 115.58728 
L 246.479822 112.966042 
L 246.664082 112.966042 
L 246.747401 111.917546 
L 246.84011 111.917546 
L 246.870798 110.344803 
L 247.000376 110.344803 
L 247.000376 109.820555 
L 247.152193 109.820555 
L 247.249685 107.723564 
L 247.387369 107.723564 
L 247.493731 106.150821 
L 247.560236 106.150821 
L 247.660054 103.005335 
L 247.910368 103.005335 
L 247.910368 102.481087 
L 248.731573 102.481087 
L 248.835369 100.384096 
L 249.190259 100.384096 
L 249.190259 99.859849 
L 249.343154 99.859849 
L 249.41103 98.287105 
L 249.475379 98.287105 
L 249.554346 95.665867 
L 249.59104 95.665867 
L 249.59104 95.141619 
L 250.107475 95.141619 
L 250.167296 93.044628 
L 250.425983 93.044628 
L 250.425983 92.520381 
L 250.694131 92.520381 
L 250.694131 91.996133 
L 250.843211 91.996133 
L 250.857716 90.947637 
L 251.062321 90.947637 
L 251.062321 89.899142 
L 251.259073 89.899142 
L 251.345944 87.802151 
L 251.397528 87.802151 
L 251.41044 86.753656 
L 251.736634 86.753656 
L 251.768189 85.180912 
L 251.932128 85.180912 
L 251.986331 82.559674 
L 252.187689 82.559674 
L 252.187689 81.511178 
L 252.654304 81.511178 
L 252.757113 78.88994 
L 252.828113 78.88994 
L 252.828113 77.841444 
L 253.028696 77.841444 
L 253.028696 77.317197 
L 253.160211 77.317197 
L 253.241379 75.744454 
L 253.527017 75.744454 
L 253.592189 74.695958 
L 253.824666 74.695958 
L 253.925295 72.598967 
L 254.074191 72.598967 
L 254.13605 71.026224 
L 254.188824 71.026224 
L 254.188824 70.501976 
L 254.851526 70.501976 
L 254.957061 67.35649 
L 254.97868 67.35649 
L 255.04614 66.307995 
L 255.129252 66.307995 
L 255.129252 65.783747 
L 255.336186 65.783747 
L 255.336186 64.735251 
L 255.483004 64.735251 
L 255.576174 62.638261 
L 255.672412 62.638261 
L 255.672412 62.114013 
L 255.886355 62.114013 
L 255.886355 61.589765 
L 256.016564 61.589765 
L 256.016564 60.54127 
L 256.226541 60.54127 
L 256.226541 60.017022 
L 256.418825 60.017022 
L 256.452257 58.968526 
L 256.580725 58.968526 
L 256.683689 56.871536 
L 256.692041 56.871536 
L 256.762815 55.82304 
L 256.860542 55.82304 
L 256.969848 54.774545 
L 256.982731 54.774545 
L 257.019759 52.153306 
L 257.098971 52.153306 
L 257.200623 49.532068 
L 257.278577 49.532068 
L 257.356952 47.435077 
L 257.425049 47.435077 
L 257.485772 45.338086 
L 257.570128 45.338086 
L 257.570128 44.813838 
L 257.709436 44.813838 
L 257.774282 41.144104 
L 257.86953 41.144104 
L 257.944462 39.047113 
L 258.024746 39.047113 
L 258.024746 38.522865 
L 258.173577 38.522865 
L 258.173577 37.998618 
L 258.349364 37.998618 
L 258.442175 36.425875 
L 258.620589 36.425875 
L 258.620589 35.377379 
L 259.58776 35.377379 
L 259.58776 34.853131 
L 259.763366 34.853131 
L 259.763366 33.804636 
L 260.152008 33.804636 
L 260.152008 32.756141 
L 260.628366 32.756141 
L 260.628366 32.231893 
L 260.890188 32.231893 
L 260.916067 31.183397 
L 261.164137 31.183397 
L 261.164137 30.65915 
L 261.540309 30.65915 
L 261.54196 29.086407 
L 261.778937 29.086407 
L 261.778937 28.562159 
L 267.653447 28.562159 
L 267.653447 28.037911 
L 269.301119 28.037911 
L 269.301119 27.513663 
L 333.429677 27.513663 
L 333.429677 27.513663 
" style="fill:none;stroke:#000080;stroke-linecap:square;stroke-width:1.5;"/>
   </g>
   <g id="line2d_30">
    <defs>
     <path d="M 0 6 
C 1.591219 6 3.117479 5.367802 4.242641 4.242641 
C 5.367802 3.117479 6 1.591219 6 0 
C 6 -1.591219 5.367802 -3.117479 4.242641 -4.242641 
C 3.117479 -5.367802 1.591219 -6 0 -6 
C -1.591219 -6 -3.117479 -5.367802 -4.242641 -4.242641 
C -5.367802 -3.117479 -6 -1.591219 -6 0 
C -6 1.591219 -5.367802 3.117479 -4.242641 4.242641 
C -3.117479 5.367802 -1.591219 6 0 6 
z
" id="me282e1aa7a" style="stroke:#000080;stroke-width:1.5;"/>
    </defs>
    <g>
     <use style="fill-opacity:0;stroke:#000080;stroke-width:1.5;" x="242.491967" xlink:href="#me282e1aa7a" y="179.545502"/>
     <use style="fill-opacity:0;stroke:#000080;stroke-width:1.5;" x="269.301119" xlink:href="#me282e1aa7a" y="28.037911"/>
     <use style="fill-opacity:0;stroke:#000080;stroke-width:1.5;" x="269.301119" xlink:href="#me282e1aa7a" y="27.513663"/>
     <use style="fill-opacity:0;stroke:#000080;stroke-width:1.5;" x="333.429677" xlink:href="#me282e1aa7a" y="27.513663"/>
    </g>
   </g>
   <g id="line2d_31">
    <path style="fill:none;stroke:#000080;stroke-linecap:square;stroke-width:1.5;"/>
    <g/>
   </g>
   <g id="line2d_32">
    <defs>
     <path d="M 0 1.5 
C 0.397805 1.5 0.77937 1.341951 1.06066 1.06066 
C 1.341951 0.77937 1.5 0.397805 1.5 0 
C 1.5 -0.397805 1.341951 -0.77937 1.06066 -1.06066 
C 0.77937 -1.341951 0.397805 -1.5 0 -1.5 
C -0.397805 -1.5 -0.77937 -1.341951 -1.06066 -1.06066 
C -1.341951 -0.77937 -1.5 -0.397805 -1.5 0 
C -1.5 0.397805 -1.341951 0.77937 -1.06066 1.06066 
C -0.77937 1.341951 -0.397805 1.5 0 1.5 
z
" id="m7eefb54643" style="stroke:#ff00ff;"/>
    </defs>
    <g>
     <use style="fill:#ff00ff;stroke:#ff00ff;" x="243.16341" xlink:href="#m7eefb54643" y="27.513663"/>
     <use style="fill:#ff00ff;stroke:#ff00ff;" x="243.16341" xlink:href="#m7eefb54643" y="27.513663"/>
    </g>
   </g>
   <g id="line2d_33">
    <path d="M 121.765375 294.88 
L 121.765375 294.355752 
L 122.759301 294.355752 
L 122.759301 293.307257 
L 125.252304 293.307257 
L 125.252304 292.783009 
L 127.886754 292.783009 
L 127.886754 291.734514 
L 129.017032 291.734514 
L 129.017032 291.210266 
L 131.120651 291.210266 
L 131.120651 289.637523 
L 131.576579 289.637523 
L 131.576579 289.113275 
L 132.041604 289.113275 
L 132.062446 288.06478 
L 132.474065 288.06478 
L 132.474065 287.540532 
L 132.836286 287.540532 
L 132.836286 287.016284 
L 133.073598 287.016284 
L 133.073598 285.443541 
L 133.481177 285.443541 
L 133.481177 284.919293 
L 135.282379 284.919293 
L 135.282379 284.395046 
L 135.488428 284.395046 
L 135.488428 283.870798 
L 135.607493 283.870798 
L 135.692038 282.298055 
L 135.72574 282.298055 
L 135.72574 281.249559 
L 136.141538 281.249559 
L 136.141538 280.725312 
L 136.386277 280.725312 
L 136.386277 280.201064 
L 136.707272 280.201064 
L 136.754909 278.628321 
L 136.8813 278.628321 
L 136.8813 278.104073 
L 138.73018 278.104073 
L 138.73018 277.579825 
L 139.038418 277.579825 
L 139.038418 277.055578 
L 139.409316 277.055578 
L 139.409316 276.007082 
L 139.878508 276.007082 
L 139.878508 274.958587 
L 140.257802 274.958587 
L 140.322361 273.385844 
L 141.732168 273.385844 
L 141.732168 272.861596 
L 142.258352 272.861596 
L 142.258352 272.337348 
L 142.768919 272.337348 
L 142.768919 271.8131 
L 143.046155 271.8131 
L 143.046155 271.288853 
L 143.64079 271.288853 
L 143.715018 269.716109 
L 145.425852 269.716109 
L 145.511852 268.143366 
L 145.720284 268.143366 
L 145.720284 267.619119 
L 146.321752 267.619119 
L 146.321752 267.094871 
L 146.61925 267.094871 
L 146.61925 266.570623 
L 146.902902 266.570623 
L 146.95557 264.99788 
L 147.396855 264.99788 
L 147.396855 263.949385 
L 147.566865 263.949385 
L 147.566865 263.425137 
L 148.585007 263.425137 
L 148.585007 262.900889 
L 148.869653 262.900889 
L 148.869653 261.852394 
L 149.226646 261.852394 
L 149.226646 261.328146 
L 149.793268 261.328146 
L 149.793268 260.803898 
L 150.838492 260.803898 
L 150.838492 260.279651 
L 151.177822 260.279651 
L 151.177822 259.755403 
L 152.086012 259.755403 
L 152.086012 259.231155 
L 152.46557 259.231155 
L 152.46557 258.706907 
L 152.855606 258.706907 
L 152.855606 258.18266 
L 153.127137 258.18266 
L 153.127137 257.658412 
L 154.160809 257.658412 
L 154.160809 256.609917 
L 154.361434 256.609917 
L 154.361434 256.085669 
L 155.52906 256.085669 
L 155.52906 255.561421 
L 156.319989 255.561421 
L 156.319989 255.037173 
L 158.133211 255.037173 
L 158.133211 253.46443 
L 158.740266 253.46443 
L 158.740266 252.940182 
L 158.911723 252.940182 
L 158.911723 249.270448 
L 159.433057 249.270448 
L 159.433057 248.746201 
L 159.601982 248.746201 
L 159.601982 248.221953 
L 160.208911 248.221953 
L 160.281779 246.64921 
L 160.787314 246.64921 
L 160.787314 246.124962 
L 161.032685 246.124962 
L 161.055872 243.503724 
L 161.54323 243.503724 
L 161.54323 242.979476 
L 162.09732 242.979476 
L 162.09732 242.455228 
L 163.202471 242.455228 
L 163.202471 241.93098 
L 163.610084 241.93098 
L 163.610084 240.882485 
L 164.612342 240.882485 
L 164.612342 240.358237 
L 164.743749 240.358237 
L 164.79976 237.212751 
L 165.055703 237.212751 
L 165.055703 236.164255 
L 165.289786 236.164255 
L 165.289786 235.640008 
L 165.698557 235.640008 
L 165.698557 234.591512 
L 165.859968 234.591512 
L 165.859968 234.067265 
L 166.759104 234.067265 
L 166.767419 232.494521 
L 166.982208 232.494521 
L 166.982208 231.970274 
L 167.159172 231.970274 
L 167.159172 231.446026 
L 168.227684 231.446026 
L 168.227684 230.397531 
L 168.492904 230.397531 
L 168.492904 229.873283 
L 169.025972 229.873283 
L 169.025972 228.824787 
L 169.716641 228.824787 
L 169.716641 227.776292 
L 170.035815 227.776292 
L 170.035815 225.679301 
L 170.378404 225.679301 
L 170.378404 225.155053 
L 171.226494 225.155053 
L 171.226494 224.630806 
L 171.915997 224.630806 
L 171.915997 224.106558 
L 172.467877 224.106558 
L 172.467877 223.58231 
L 173.26861 223.58231 
L 173.26861 222.533815 
L 173.84745 222.533815 
L 173.84745 221.485319 
L 174.717453 221.485319 
L 174.717453 220.436824 
L 176.303849 220.436824 
L 176.303849 219.912576 
L 176.810487 219.912576 
L 176.810487 218.864081 
L 177.12295 218.864081 
L 177.12295 218.339833 
L 177.382059 218.339833 
L 177.382059 216.76709 
L 189.511931 216.76709 
L 189.511931 216.242842 
L 189.899804 216.242842 
L 189.989135 215.194347 
L 191.394536 215.194347 
L 191.454689 212.573108 
L 191.561914 212.573108 
L 191.561914 212.04886 
L 191.826764 212.04886 
L 191.929134 209.95187 
L 192.116833 209.95187 
L 192.153621 208.379126 
L 192.350178 208.379126 
L 192.422065 207.330631 
L 192.467541 207.330631 
L 192.558755 200.515411 
L 192.583491 200.515411 
L 192.672249 197.369924 
L 192.779503 197.369924 
L 192.814292 195.272933 
L 192.935204 195.272933 
L 193.022773 192.127447 
L 193.062485 192.127447 
L 193.062485 191.078952 
L 193.478711 191.078952 
L 193.547795 188.457713 
L 193.744736 188.457713 
L 193.744736 187.933465 
L 193.89885 187.933465 
L 193.988496 184.263731 
L 194.434291 184.263731 
L 194.467556 182.690988 
L 194.674013 182.690988 
L 194.745011 180.06975 
L 194.799426 180.06975 
L 194.893159 179.021254 
L 195.020744 179.021254 
L 195.12768 177.972759 
L 196.108714 177.972759 
L 196.194093 175.875768 
L 201.931158 175.875768 
L 201.931158 174.827272 
L 207.881238 174.827272 
L 207.881238 174.303025 
L 208.507954 174.303025 
L 208.507954 173.778777 
L 216.504497 173.778777 
L 216.573751 170.633291 
L 216.625012 170.633291 
L 216.653102 169.060547 
L 216.770463 169.060547 
L 216.786213 168.012052 
L 216.915296 168.012052 
L 216.915296 167.487804 
L 217.040585 167.487804 
L 217.040585 166.439309 
L 217.439655 166.439309 
L 217.488695 165.390813 
L 217.675275 165.390813 
L 217.675275 164.866566 
L 217.799308 164.866566 
L 217.887136 162.769575 
L 217.921036 162.769575 
L 217.921036 161.721079 
L 218.469248 161.721079 
L 218.469248 160.672584 
L 219.18677 160.672584 
L 219.293342 154.905859 
L 219.310996 154.905859 
L 219.411217 152.808868 
L 219.428231 152.808868 
L 219.428231 152.28462 
L 219.601058 152.28462 
L 219.680429 151.236125 
L 219.8009 151.236125 
L 219.886437 149.663382 
L 219.944234 149.663382 
L 219.944234 148.090639 
L 220.086634 148.090639 
L 220.09825 147.042143 
L 222.112575 147.042143 
L 222.112575 146.517896 
L 222.322425 146.517896 
L 222.389442 142.323914 
L 222.434957 142.323914 
L 222.525734 137.081437 
L 222.567429 137.081437 
L 222.662784 134.984446 
L 222.685144 134.984446 
L 222.685144 134.460198 
L 222.907266 134.460198 
L 222.932487 132.363207 
L 223.041742 132.363207 
L 223.067083 130.790464 
L 223.177264 130.790464 
L 223.177264 130.266216 
L 226.778736 130.266216 
L 226.845842 124.499491 
L 226.910587 124.499491 
L 226.990739 120.30551 
L 227.04252 120.30551 
L 227.140562 117.684271 
L 227.322189 117.684271 
L 227.322189 116.635776 
L 230.596775 116.635776 
L 230.703006 111.393298 
L 230.726314 111.393298 
L 230.815015 105.626573 
L 230.848001 105.626573 
L 230.955819 101.432592 
L 231.096337 101.432592 
L 231.20543 91.471885 
L 231.21937 91.471885 
L 231.329443 88.326399 
L 231.345231 88.326399 
L 231.434553 83.083922 
L 233.189911 83.083922 
L 233.221676 77.841444 
L 233.306369 77.841444 
L 233.403846 72.074719 
L 233.427971 72.074719 
L 233.483691 70.501976 
L 236.261968 70.501976 
L 236.364773 61.065517 
L 236.383196 61.065517 
L 236.446315 57.395783 
L 240.871784 57.395783 
L 240.978475 48.483572 
L 241.002313 48.483572 
L 241.106396 45.338086 
L 241.122186 45.338086 
L 241.12785 43.765343 
L 242.980876 43.765343 
L 243.087997 29.610654 
L 243.109741 29.610654 
L 243.16341 27.513663 
L 333.429677 27.513663 
L 333.429677 27.513663 
" style="fill:none;stroke:#ff00ff;stroke-linecap:square;stroke-width:1.5;"/>
   </g>
   <g id="line2d_34">
    <defs>
     <path d="M -0 8.485281 
L 5.091169 0 
L 0 -8.485281 
L -5.091169 -0 
z
" id="mf9e5e35731" style="stroke:#ff00ff;stroke-linejoin:miter;stroke-width:1.5;"/>
    </defs>
    <g>
     <use style="fill-opacity:0;stroke:#ff00ff;stroke-linejoin:miter;stroke-width:1.5;" x="163.610084" xlink:href="#mf9e5e35731" y="241.93098"/>
     <use style="fill-opacity:0;stroke:#ff00ff;stroke-linejoin:miter;stroke-width:1.5;" x="217.488695" xlink:href="#mf9e5e35731" y="165.390813"/>
     <use style="fill-opacity:0;stroke:#ff00ff;stroke-linejoin:miter;stroke-width:1.5;" x="243.16341" xlink:href="#mf9e5e35731" y="28.562159"/>
     <use style="fill-opacity:0;stroke:#ff00ff;stroke-linejoin:miter;stroke-width:1.5;" x="243.16341" xlink:href="#mf9e5e35731" y="27.513663"/>
     <use style="fill-opacity:0;stroke:#ff00ff;stroke-linejoin:miter;stroke-width:1.5;" x="333.429677" xlink:href="#mf9e5e35731" y="27.513663"/>
    </g>
   </g>
   <g id="line2d_35">
    <path style="fill:none;stroke:#ff00ff;stroke-linecap:square;stroke-width:1.5;"/>
    <g/>
   </g>
   <g id="line2d_36">
    <defs>
     <path d="M 0 1.5 
C 0.397805 1.5 0.77937 1.341951 1.06066 1.06066 
C 1.341951 0.77937 1.5 0.397805 1.5 0 
C 1.5 -0.397805 1.341951 -0.77937 1.06066 -1.06066 
C 0.77937 -1.341951 0.397805 -1.5 0 -1.5 
C -0.397805 -1.5 -0.77937 -1.341951 -1.06066 -1.06066 
C -1.341951 -0.77937 -1.5 -0.397805 -1.5 0 
C -1.5 0.397805 -1.341951 0.77937 -1.06066 1.06066 
C -0.77937 1.341951 -0.397805 1.5 0 1.5 
z
" id="m9af2344854" style="stroke:#ffa500;"/>
    </defs>
    <g>
     <use style="fill:#ffa500;stroke:#ffa500;" x="320.536355" xlink:href="#m9af2344854" y="137.605684"/>
     <use style="fill:#ffa500;stroke:#ffa500;" x="320.536355" xlink:href="#m9af2344854" y="137.605684"/>
    </g>
   </g>
   <g id="line2d_37">
    <path d="M 180.379513 294.88 
L 180.379513 294.355752 
L 181.953297 294.355752 
L 181.953297 293.831505 
L 182.324114 293.831505 
L 182.324114 292.783009 
L 182.471566 292.783009 
L 182.471566 292.258761 
L 182.626585 292.258761 
L 182.626585 291.210266 
L 182.751792 291.210266 
L 182.751792 290.686018 
L 183.220289 290.686018 
L 183.220289 289.637523 
L 186.081402 289.637523 
L 186.081402 289.113275 
L 187.093488 289.113275 
L 187.093488 288.589027 
L 187.385188 288.589027 
L 187.49186 286.492036 
L 187.595397 286.492036 
L 187.595397 285.967789 
L 188.04933 285.967789 
L 188.04933 285.443541 
L 188.951799 285.443541 
L 188.951799 284.395046 
L 190.298192 284.395046 
L 190.298192 283.870798 
L 191.256247 283.870798 
L 191.364712 282.298055 
L 191.585505 282.298055 
L 191.585505 281.773807 
L 191.770492 281.773807 
L 191.770492 281.249559 
L 193.202547 281.249559 
L 193.202547 280.725312 
L 193.886251 280.725312 
L 193.973113 278.628321 
L 194.072011 278.628321 
L 194.072011 278.104073 
L 194.188368 278.104073 
L 194.188368 277.579825 
L 194.522302 277.579825 
L 194.522302 276.007082 
L 195.382172 276.007082 
L 195.382172 275.482834 
L 196.319881 275.482834 
L 196.366071 274.434339 
L 196.547639 274.434339 
L 196.547639 273.910091 
L 197.72002 273.910091 
L 197.72002 273.385844 
L 197.877014 273.385844 
L 197.877014 272.861596 
L 198.912381 272.861596 
L 198.983244 270.764605 
L 199.239069 270.764605 
L 199.239069 270.240357 
L 200.868143 270.240357 
L 200.932547 268.667614 
L 200.986855 268.667614 
L 200.986855 268.143366 
L 201.144251 268.143366 
L 201.195649 266.570623 
L 201.952681 266.570623 
L 201.952681 266.046375 
L 202.689827 266.046375 
L 202.714537 263.949385 
L 202.922815 263.949385 
L 202.922815 262.900889 
L 204.324473 262.900889 
L 204.324473 262.376641 
L 204.478689 262.376641 
L 204.478689 261.852394 
L 204.691255 261.852394 
L 204.691255 261.328146 
L 205.17419 261.328146 
L 205.17419 260.803898 
L 205.752645 260.803898 
L 205.752645 260.279651 
L 205.937619 260.279651 
L 206.007148 258.706907 
L 206.103736 258.706907 
L 206.103736 258.18266 
L 207.029449 258.18266 
L 207.029449 256.609917 
L 207.517261 256.609917 
L 207.517261 256.085669 
L 207.686346 256.085669 
L 207.686346 255.561421 
L 208.069928 255.561421 
L 208.069928 255.037173 
L 208.599792 255.037173 
L 208.599792 254.512926 
L 208.816202 254.512926 
L 208.816202 253.988678 
L 209.372414 253.988678 
L 209.372414 253.46443 
L 209.489398 253.46443 
L 209.489398 251.891687 
L 209.81024 251.891687 
L 209.824992 250.843192 
L 209.934666 250.843192 
L 209.934666 250.318944 
L 210.105802 250.318944 
L 210.105802 248.746201 
L 210.436264 248.746201 
L 210.436264 248.221953 
L 210.755342 248.221953 
L 210.770809 247.173458 
L 210.92727 247.173458 
L 211.030159 245.600714 
L 211.087171 245.600714 
L 211.087171 244.027971 
L 211.428641 244.027971 
L 211.513372 242.979476 
L 211.695637 242.979476 
L 211.804157 240.358237 
L 211.825981 240.358237 
L 211.908782 237.736999 
L 212.239605 237.736999 
L 212.239605 237.212751 
L 212.714432 237.212751 
L 212.799183 236.164255 
L 212.841307 236.164255 
L 212.841307 235.640008 
L 213.301142 235.640008 
L 213.301142 234.591512 
L 213.72461 234.591512 
L 213.769402 230.921778 
L 214.43893 230.921778 
L 214.43893 230.397531 
L 214.874051 230.397531 
L 214.877772 228.824787 
L 215.112596 228.824787 
L 215.151923 227.252044 
L 215.968477 227.252044 
L 215.968477 226.727797 
L 216.167642 226.727797 
L 216.242636 225.155053 
L 216.337049 225.155053 
L 216.423837 223.058063 
L 217.017453 223.058063 
L 217.074408 221.485319 
L 217.728664 221.485319 
L 217.789601 220.436824 
L 217.984403 220.436824 
L 217.990755 218.339833 
L 218.434623 218.339833 
L 218.473228 217.291338 
L 218.641196 217.291338 
L 218.641196 216.242842 
L 219.019683 216.242842 
L 219.019683 215.718594 
L 219.193351 215.718594 
L 219.193351 214.670099 
L 219.821341 214.670099 
L 219.821341 214.145851 
L 220.429295 214.145851 
L 220.534673 213.097356 
L 221.017563 213.097356 
L 221.027858 212.04886 
L 221.195487 212.04886 
L 221.195487 211.524613 
L 222.235859 211.524613 
L 222.24049 208.379126 
L 222.596826 208.379126 
L 222.596826 207.854879 
L 222.978068 207.854879 
L 223.067819 206.282136 
L 223.221682 206.282136 
L 223.221682 205.23364 
L 223.520224 205.23364 
L 223.559886 201.039658 
L 223.681875 201.039658 
L 223.721066 198.41842 
L 224.687146 198.41842 
L 224.687146 197.894172 
L 224.83265 197.894172 
L 224.83265 197.369924 
L 225.118245 197.369924 
L 225.142849 195.272933 
L 225.293337 195.272933 
L 225.293337 194.748686 
L 226.111541 194.748686 
L 226.111541 192.651695 
L 226.543325 192.651695 
L 226.543325 192.127447 
L 226.66821 192.127447 
L 226.66821 191.603199 
L 227.894854 191.603199 
L 227.894854 190.554704 
L 228.346713 190.554704 
L 228.346713 190.030456 
L 228.952886 190.030456 
L 228.952886 189.506209 
L 229.327157 189.506209 
L 229.327157 188.981961 
L 231.06389 188.981961 
L 231.06389 188.457713 
L 231.35101 188.457713 
L 231.35101 187.933465 
L 237.835245 187.933465 
L 237.835245 187.409218 
L 249.76429 187.409218 
L 249.76429 186.88497 
L 255.924853 186.88497 
L 255.924853 186.360722 
L 256.477096 186.360722 
L 256.477096 185.836474 
L 256.69341 185.836474 
L 256.69341 184.787979 
L 256.807446 184.787979 
L 256.895187 183.739484 
L 256.988774 183.739484 
L 257.054333 182.690988 
L 257.114996 182.690988 
L 257.158551 181.642493 
L 257.341022 181.642493 
L 257.411265 179.545502 
L 257.655551 179.545502 
L 257.695416 177.972759 
L 257.767502 177.972759 
L 257.838243 176.400016 
L 264.193152 176.400016 
L 264.193152 175.35152 
L 266.966215 175.35152 
L 266.966215 174.827272 
L 267.169912 174.827272 
L 267.224168 173.778777 
L 267.33617 173.778777 
L 267.343023 172.206034 
L 267.451247 172.206034 
L 267.451247 171.681786 
L 267.726559 171.681786 
L 267.805199 168.012052 
L 267.85066 168.012052 
L 267.939143 166.963557 
L 268.03565 166.963557 
L 268.03565 166.439309 
L 268.168064 166.439309 
L 268.168064 165.915061 
L 271.744923 165.915061 
L 271.744923 164.866566 
L 273.949572 164.866566 
L 273.99013 162.769575 
L 274.238774 162.769575 
L 274.270066 161.721079 
L 274.39766 161.721079 
L 274.489251 160.672584 
L 274.556262 160.672584 
L 274.556262 160.148336 
L 278.666188 160.148336 
L 278.666188 159.624089 
L 278.890453 159.624089 
L 278.992481 157.00285 
L 279.034024 157.00285 
L 279.034024 156.478602 
L 281.088436 156.478602 
L 281.088436 155.954354 
L 282.580885 155.954354 
L 282.678897 154.905859 
L 282.777079 154.905859 
L 282.777079 153.857364 
L 284.405523 153.857364 
L 284.405523 153.333116 
L 285.506264 153.333116 
L 285.506264 152.808868 
L 285.756902 152.808868 
L 285.768951 151.760373 
L 288.174849 151.760373 
L 288.174849 151.236125 
L 290.526435 151.236125 
L 290.535567 150.18763 
L 292.343069 150.18763 
L 292.356507 149.139134 
L 292.492455 149.139134 
L 292.492455 148.614886 
L 294.183003 148.614886 
L 294.264032 147.042143 
L 295.802776 147.042143 
L 295.863403 145.993648 
L 297.284581 145.993648 
L 297.285353 144.420905 
L 301.046582 144.420905 
L 301.046582 143.896657 
L 302.101066 143.896657 
L 302.125929 142.323914 
L 303.155781 142.323914 
L 303.179658 141.275418 
L 305.057377 141.275418 
L 305.057377 140.751171 
L 307.552486 140.751171 
L 307.552486 140.226923 
L 308.319039 140.226923 
L 308.319039 139.702675 
L 310.408661 139.702675 
L 310.408661 139.178427 
L 311.051908 139.178427 
L 311.051908 138.65418 
L 312.271106 138.65418 
L 312.271106 138.129932 
L 320.536355 138.129932 
L 320.536355 137.605684 
L 333.429677 137.605684 
L 333.429677 137.605684 
" style="fill:none;stroke:#ffa500;stroke-linecap:square;stroke-width:1.5;"/>
   </g>
   <g id="line2d_38">
    <defs>
     <path d="M 0 -6 
L -1.347084 -1.854102 
L -5.706339 -1.854102 
L -2.179628 0.708204 
L -3.526712 4.854102 
L -0 2.291796 
L 3.526712 4.854102 
L 2.179628 0.708204 
L 5.706339 -1.854102 
L 1.347084 -1.854102 
z
" id="m1f7f791127" style="stroke:#ffa500;stroke-linejoin:bevel;stroke-width:1.5;"/>
    </defs>
    <g>
     <use style="fill-opacity:0;stroke:#ffa500;stroke-linejoin:bevel;stroke-width:1.5;" x="223.520224" xlink:href="#m1f7f791127" y="205.23364"/>
     <use style="fill-opacity:0;stroke:#ffa500;stroke-linejoin:bevel;stroke-width:1.5;" x="284.405523" xlink:href="#m1f7f791127" y="153.857364"/>
     <use style="fill-opacity:0;stroke:#ffa500;stroke-linejoin:bevel;stroke-width:1.5;" x="320.536355" xlink:href="#m1f7f791127" y="137.605684"/>
     <use style="fill-opacity:0;stroke:#ffa500;stroke-linejoin:bevel;stroke-width:1.5;" x="333.429677" xlink:href="#m1f7f791127" y="137.605684"/>
    </g>
   </g>
   <g id="line2d_39">
    <path style="fill:none;stroke:#ffa500;stroke-linecap:square;stroke-width:1.5;"/>
    <g/>
   </g>
   <g id="line2d_40">
    <path clip-path="url(#p3a0f0564fc)" d="M 254.198341 186.88497 
" style="fill:none;stroke:#ffa500;stroke-linecap:square;stroke-width:1.5;"/>
    <defs>
     <path d="M -12 12 
L 12 -12 
M -12 -12 
L 12 12 
" id="m639595df06" style="stroke:#ffa500;stroke-width:3;"/>
    </defs>
    <g clip-path="url(#p3a0f0564fc)">
     <use style="fill:#ffa500;stroke:#ffa500;stroke-width:3;" x="254.198341" xlink:href="#m639595df06" y="186.88497"/>
    </g>
   </g>
   <g id="line2d_41">
    <defs>
     <path d="M 0 1.5 
C 0.397805 1.5 0.77937 1.341951 1.06066 1.06066 
C 1.341951 0.77937 1.5 0.397805 1.5 0 
C 1.5 -0.397805 1.341951 -0.77937 1.06066 -1.06066 
C 0.77937 -1.341951 0.397805 -1.5 0 -1.5 
C -0.397805 -1.5 -0.77937 -1.341951 -1.06066 -1.06066 
C -1.341951 -0.77937 -1.5 -0.397805 -1.5 0 
C -1.5 0.397805 -1.341951 0.77937 -1.06066 1.06066 
C -0.77937 1.341951 -0.397805 1.5 0 1.5 
z
" id="ma6aa38ba52" style="stroke:#6495ed;"/>
    </defs>
    <g>
     <use style="fill:#6495ed;stroke:#6495ed;" x="293.843169" xlink:href="#ma6aa38ba52" y="252.940182"/>
     <use style="fill:#6495ed;stroke:#6495ed;" x="293.843169" xlink:href="#ma6aa38ba52" y="252.940182"/>
    </g>
   </g>
   <g id="line2d_42">
    <path d="M 128.409739 294.88 
L 128.409739 294.355752 
L 128.716065 294.355752 
L 128.716065 293.831505 
L 128.766593 293.831505 
L 128.766593 293.307257 
L 129.091459 293.307257 
L 129.091459 292.258761 
L 132.269486 292.258761 
L 132.269486 291.734514 
L 132.895922 291.734514 
L 132.895922 291.210266 
L 135.471351 291.210266 
L 135.471351 290.686018 
L 137.022388 290.686018 
L 137.022388 290.161771 
L 138.94094 290.161771 
L 138.94094 289.637523 
L 143.841525 289.637523 
L 143.841525 289.113275 
L 144.781692 289.113275 
L 144.781692 288.589027 
L 146.911691 288.589027 
L 146.911691 288.06478 
L 149.904387 288.06478 
L 149.904387 287.016284 
L 149.98542 287.016284 
L 149.98542 286.492036 
L 151.691237 286.492036 
L 151.691237 285.967789 
L 152.079506 285.967789 
L 152.079506 285.443541 
L 153.145495 285.443541 
L 153.145495 284.919293 
L 154.40128 284.919293 
L 154.40128 283.34655 
L 155.571607 283.34655 
L 155.571607 282.298055 
L 156.192375 282.298055 
L 156.192375 281.773807 
L 157.800471 281.773807 
L 157.800471 280.725312 
L 158.137787 280.725312 
L 158.137787 280.201064 
L 159.823283 280.201064 
L 159.823283 279.152568 
L 160.196737 279.152568 
L 160.196737 278.628321 
L 162.630597 278.628321 
L 162.630597 278.104073 
L 162.79893 278.104073 
L 162.79893 276.53133 
L 163.219507 276.53133 
L 163.219507 275.482834 
L 165.821953 275.482834 
L 165.821953 274.958587 
L 166.002507 274.958587 
L 166.002507 274.434339 
L 166.247 274.434339 
L 166.247 273.910091 
L 166.411859 273.910091 
L 166.411859 273.385844 
L 166.77296 273.385844 
L 166.77296 272.861596 
L 168.881997 272.861596 
L 168.881997 271.8131 
L 169.197647 271.8131 
L 169.197647 271.288853 
L 170.193209 271.288853 
L 170.193209 270.764605 
L 171.804705 270.764605 
L 171.804705 270.240357 
L 173.86947 270.240357 
L 173.86947 269.191862 
L 174.035543 269.191862 
L 174.035543 268.667614 
L 175.107509 268.667614 
L 175.107509 267.619119 
L 178.770336 267.619119 
L 178.770336 266.570623 
L 179.985647 266.570623 
L 179.985647 266.046375 
L 180.760879 266.046375 
L 180.760879 265.522128 
L 182.005947 265.522128 
L 182.005947 264.99788 
L 182.070963 264.99788 
L 182.070963 264.473632 
L 184.058906 264.473632 
L 184.058906 263.949385 
L 188.330932 263.949385 
L 188.330932 263.425137 
L 191.692571 263.425137 
L 191.692571 262.900889 
L 191.709484 262.900889 
L 191.709484 261.852394 
L 201.343356 261.852394 
L 201.343356 261.328146 
L 254.301792 261.328146 
L 254.301792 260.803898 
L 254.359005 260.803898 
L 254.359005 260.279651 
L 254.456396 260.279651 
L 254.456396 259.755403 
L 254.460802 259.755403 
L 254.460802 259.231155 
L 254.48774 259.231155 
L 254.48774 257.134164 
L 254.647261 257.134164 
L 254.647261 256.609917 
L 266.222319 256.609917 
L 266.222319 256.085669 
L 273.185942 256.085669 
L 273.185942 255.561421 
L 273.186667 255.561421 
L 273.186667 254.512926 
L 273.307082 254.512926 
L 273.307082 253.46443 
L 293.843169 253.46443 
L 293.843169 252.940182 
L 333.429677 252.940182 
" style="fill:none;stroke:#6495ed;stroke-linecap:square;stroke-width:1.5;"/>
   </g>
   <g id="line2d_43">
    <defs>
     <path d="M -0 6 
L 6 -6 
L -6 -6 
z
" id="m345fae925e" style="stroke:#6495ed;stroke-linejoin:miter;stroke-width:1.5;"/>
    </defs>
    <g>
     <use style="fill-opacity:0;stroke:#6495ed;stroke-linejoin:miter;stroke-width:1.5;" x="166.77296" xlink:href="#m345fae925e" y="273.385844"/>
     <use style="fill-opacity:0;stroke:#6495ed;stroke-linejoin:miter;stroke-width:1.5;" x="201.343356" xlink:href="#m345fae925e" y="261.852394"/>
     <use style="fill-opacity:0;stroke:#6495ed;stroke-linejoin:miter;stroke-width:1.5;" x="273.307082" xlink:href="#m345fae925e" y="253.46443"/>
     <use style="fill-opacity:0;stroke:#6495ed;stroke-linejoin:miter;stroke-width:1.5;" x="293.843169" xlink:href="#m345fae925e" y="252.940182"/>
     <use style="fill-opacity:0;stroke:#6495ed;stroke-linejoin:miter;stroke-width:1.5;" x="333.429677" xlink:href="#m345fae925e" y="252.940182"/>
    </g>
   </g>
   <g id="line2d_44">
    <path style="fill:none;stroke:#6495ed;stroke-linecap:square;stroke-width:1.5;"/>
    <g/>
   </g>
   <g id="line2d_45">
    <path clip-path="url(#p3a0f0564fc)" d="M 254.198341 261.328146 
" style="fill:none;stroke:#6495ed;stroke-linecap:square;stroke-width:1.5;"/>
    <defs>
     <path d="M -12 12 
L 12 -12 
M -12 -12 
L 12 12 
" id="me055db3661" style="stroke:#6495ed;stroke-width:3;"/>
    </defs>
    <g clip-path="url(#p3a0f0564fc)">
     <use style="fill:#6495ed;stroke:#6495ed;stroke-width:3;" x="254.198341" xlink:href="#me055db3661" y="261.328146"/>
    </g>
   </g>
   <g id="line2d_46">
    <defs>
     <path d="M 0 1.5 
C 0.397805 1.5 0.77937 1.341951 1.06066 1.06066 
C 1.341951 0.77937 1.5 0.397805 1.5 0 
C 1.5 -0.397805 1.341951 -0.77937 1.06066 -1.06066 
C 0.77937 -1.341951 0.397805 -1.5 0 -1.5 
C -0.397805 -1.5 -0.77937 -1.341951 -1.06066 -1.06066 
C -1.341951 -0.77937 -1.5 -0.397805 -1.5 0 
C -1.5 0.397805 -1.341951 0.77937 -1.06066 1.06066 
C -0.77937 1.341951 -0.397805 1.5 0 1.5 
z
" id="m934ea04b1b" style="stroke:#ff0000;"/>
    </defs>
    <g>
     <use style="fill:#ff0000;stroke:#ff0000;" x="272.020471" xlink:href="#m934ea04b1b" y="279.152568"/>
     <use style="fill:#ff0000;stroke:#ff0000;" x="272.020471" xlink:href="#m934ea04b1b" y="279.152568"/>
    </g>
   </g>
   <g id="line2d_47">
    <path d="M 97.375467 294.88 
L 97.375467 294.355752 
L 164.508384 294.355752 
L 164.508384 293.831505 
L 174.50846 293.831505 
L 174.50846 292.783009 
L 174.603612 292.783009 
L 174.603612 292.258761 
L 181.452008 292.258761 
L 181.452008 291.734514 
L 184.507397 291.734514 
L 184.507397 290.686018 
L 192.569891 290.686018 
L 192.569891 290.161771 
L 207.61401 290.161771 
L 207.61401 289.637523 
L 217.344819 289.637523 
L 217.344819 289.113275 
L 222.275071 289.113275 
L 222.275071 288.589027 
L 226.42842 288.589027 
L 226.42842 288.06478 
L 226.428679 288.06478 
L 226.428679 287.016284 
L 227.944859 287.016284 
L 227.944859 286.492036 
L 227.949369 286.492036 
L 227.949369 285.967789 
L 234.45834 285.967789 
L 234.45834 285.443541 
L 239.167921 285.443541 
L 239.167921 284.919293 
L 239.170023 284.919293 
L 239.170023 284.395046 
L 245.903755 284.395046 
L 245.903755 283.870798 
L 245.904479 283.870798 
L 245.904479 283.34655 
L 249.394888 283.34655 
L 249.394888 282.822302 
L 250.731191 282.822302 
L 250.731191 282.298055 
L 250.731527 282.298055 
L 250.731527 281.773807 
L 252.717012 281.773807 
L 252.717012 281.249559 
L 253.43158 281.249559 
L 253.43158 280.725312 
L 253.431688 280.725312 
L 253.431688 280.201064 
L 265.399316 280.201064 
L 265.399316 279.676816 
L 272.020471 279.676816 
L 272.020471 279.152568 
L 333.429677 279.152568 
" style="fill:none;stroke:#ff0000;stroke-linecap:square;stroke-width:1.5;"/>
   </g>
   <g id="line2d_48">
    <defs>
     <path d="M 0 -6 
L -5.196152 -3 
L -5.196152 3 
L -0 6 
L 5.196152 3 
L 5.196152 -3 
z
" id="m17771208cc" style="stroke:#ff0000;stroke-linejoin:miter;stroke-width:1.5;"/>
    </defs>
    <g>
     <use style="fill-opacity:0;stroke:#ff0000;stroke-linejoin:miter;stroke-width:1.5;" x="97.375467" xlink:href="#m17771208cc" y="294.355752"/>
     <use style="fill-opacity:0;stroke:#ff0000;stroke-linejoin:miter;stroke-width:1.5;" x="227.949369" xlink:href="#m17771208cc" y="286.492036"/>
     <use style="fill-opacity:0;stroke:#ff0000;stroke-linejoin:miter;stroke-width:1.5;" x="272.020471" xlink:href="#m17771208cc" y="279.676816"/>
     <use style="fill-opacity:0;stroke:#ff0000;stroke-linejoin:miter;stroke-width:1.5;" x="272.020471" xlink:href="#m17771208cc" y="279.152568"/>
     <use style="fill-opacity:0;stroke:#ff0000;stroke-linejoin:miter;stroke-width:1.5;" x="333.429677" xlink:href="#m17771208cc" y="279.152568"/>
    </g>
   </g>
   <g id="line2d_49">
    <path style="fill:none;stroke:#ff0000;stroke-linecap:square;stroke-width:1.5;"/>
    <g/>
   </g>
   <g id="line2d_50">
    <path clip-path="url(#p3a0f0564fc)" d="M 214.583361 289.637523 
" style="fill:none;stroke:#ff0000;stroke-linecap:square;stroke-width:1.5;"/>
    <defs>
     <path d="M -12 12 
L 12 -12 
M -12 -12 
L 12 12 
" id="mf7fea955cf" style="stroke:#ff0000;stroke-width:3;"/>
    </defs>
    <g clip-path="url(#p3a0f0564fc)">
     <use style="fill:#ff0000;stroke:#ff0000;stroke-width:3;" x="214.583361" xlink:href="#mf7fea955cf" y="289.637523"/>
    </g>
   </g>
   <g id="line2d_51">
    <path clip-path="url(#p3a0f0564fc)" d="M 56.12 294.88 
L 56.12 294.88 
L 56.12 294.88 
L 56.12 294.88 
L 399.984 294.88 
" style="fill:none;stroke:#9acd32;stroke-linecap:square;stroke-width:1.5;"/>
   </g>
   <g id="line2d_52">
    <defs>
     <path d="M 0 -6 
L -6 6 
L 6 6 
z
" id="m0fada7e520" style="stroke:#9acd32;stroke-linejoin:miter;stroke-width:1.5;"/>
    </defs>
    <g clip-path="url(#p3a0f0564fc)">
     <use style="fill-opacity:0;stroke:#9acd32;stroke-linejoin:miter;stroke-width:1.5;" x="56.12" xlink:href="#m0fada7e520" y="294.88"/>
    </g>
   </g>
   <g id="line2d_53">
    <path clip-path="url(#p3a0f0564fc)" style="fill:none;stroke:#9acd32;stroke-linecap:square;stroke-width:1.5;"/>
    <g clip-path="url(#p3a0f0564fc)">
     <use style="fill-opacity:0;stroke:#9acd32;stroke-linejoin:miter;stroke-width:1.5;" x="-1" xlink:href="#m0fada7e520" y="562.246337"/>
     <use style="fill-opacity:0;stroke:#9acd32;stroke-linejoin:miter;stroke-width:1.5;" x="399.984" xlink:href="#m0fada7e520" y="562.246337"/>
    </g>
   </g>
   <g id="line2d_54">
    <path d="M 333.429677 294.88 
L 363.933742 289.532673 
" style="fill:none;stroke:#9acd32;stroke-linecap:square;stroke-width:1.5;"/>
    <g>
     <use style="fill-opacity:0;stroke:#9acd32;stroke-linejoin:miter;stroke-width:1.5;" x="333.429677" xlink:href="#m0fada7e520" y="294.88"/>
     <use style="fill-opacity:0;stroke:#9acd32;stroke-linejoin:miter;stroke-width:1.5;" x="363.933742" xlink:href="#m0fada7e520" y="289.532673"/>
    </g>
   </g>
   <g id="line2d_55">
    <path d="M 333.429677 279.152568 
L 363.933742 246.754059 
" style="fill:none;stroke:#ff0000;stroke-linecap:square;stroke-width:1.5;"/>
    <g>
     <use style="fill-opacity:0;stroke:#ff0000;stroke-linejoin:miter;stroke-width:1.5;" x="333.429677" xlink:href="#m17771208cc" y="279.152568"/>
     <use style="fill-opacity:0;stroke:#ff0000;stroke-linejoin:miter;stroke-width:1.5;" x="363.933742" xlink:href="#m17771208cc" y="246.754059"/>
    </g>
   </g>
   <g id="line2d_56">
    <path d="M 333.429677 252.940182 
L 363.933742 203.975446 
" style="fill:none;stroke:#6495ed;stroke-linecap:square;stroke-width:1.5;"/>
    <g>
     <use style="fill-opacity:0;stroke:#6495ed;stroke-linejoin:miter;stroke-width:1.5;" x="333.429677" xlink:href="#m345fae925e" y="252.940182"/>
     <use style="fill-opacity:0;stroke:#6495ed;stroke-linejoin:miter;stroke-width:1.5;" x="363.933742" xlink:href="#m345fae925e" y="203.975446"/>
    </g>
   </g>
   <g id="line2d_57">
    <path d="M 333.429677 137.605684 
L 363.933742 161.196832 
" style="fill:none;stroke:#ffa500;stroke-linecap:square;stroke-width:1.5;"/>
    <g>
     <use style="fill-opacity:0;stroke:#ffa500;stroke-linejoin:bevel;stroke-width:1.5;" x="333.429677" xlink:href="#m1f7f791127" y="137.605684"/>
     <use style="fill-opacity:0;stroke:#ffa500;stroke-linejoin:bevel;stroke-width:1.5;" x="363.933742" xlink:href="#m1f7f791127" y="161.196832"/>
    </g>
   </g>
   <g id="line2d_58">
    <path d="M 333.429677 27.513663 
L 363.933742 118.418218 
" style="fill:none;stroke:#000080;stroke-linecap:square;stroke-width:1.5;"/>
    <g>
     <use style="fill-opacity:0;stroke:#000080;stroke-width:1.5;" x="333.429677" xlink:href="#me282e1aa7a" y="27.513663"/>
     <use style="fill-opacity:0;stroke:#000080;stroke-width:1.5;" x="363.933742" xlink:href="#me282e1aa7a" y="118.418218"/>
    </g>
   </g>
   <g id="line2d_59">
    <path d="M 333.429677 27.513663 
L 363.933742 75.639604 
" style="fill:none;stroke:#ff00ff;stroke-linecap:square;stroke-width:1.5;"/>
    <g>
     <use style="fill-opacity:0;stroke:#ff00ff;stroke-linejoin:miter;stroke-width:1.5;" x="333.429677" xlink:href="#mf9e5e35731" y="27.513663"/>
     <use style="fill-opacity:0;stroke:#ff00ff;stroke-linejoin:miter;stroke-width:1.5;" x="363.933742" xlink:href="#mf9e5e35731" y="75.639604"/>
    </g>
   </g>
   <g id="line2d_60">
    <path d="M 333.429677 294.88 
L 333.429677 27.513663 
" style="fill:none;stroke:#000000;stroke-linecap:square;stroke-width:1.5;"/>
   </g>
   <g id="patch_3">
    <path d="M 56.12 294.88 
L 56.12 24.84 
" style="fill:none;stroke:#000000;stroke-linecap:square;stroke-linejoin:miter;stroke-width:0.8;"/>
   </g>
   <g id="patch_4">
    <path d="M 399.984 294.88 
L 399.984 24.84 
" style="fill:none;stroke:#000000;stroke-linecap:square;stroke-linejoin:miter;stroke-width:0.8;"/>
   </g>
   <g id="patch_5">
    <path d="M 56.12 294.88 
L 399.984 294.88 
" style="fill:none;stroke:#000000;stroke-linecap:square;stroke-linejoin:miter;stroke-width:0.8;"/>
   </g>
   <g id="patch_6">
    <path d="M 56.12 24.84 
L 399.984 24.84 
" style="fill:none;stroke:#000000;stroke-linecap:square;stroke-linejoin:miter;stroke-width:0.8;"/>
   </g>
   <g id="text_14">
    <!-- gsa solve -->
    <g transform="translate(369.479935 294.223611)scale(0.17 -0.17)">
     <use xlink:href="#DejaVuSans-67"/>
     <use x="63.476562" xlink:href="#DejaVuSans-73"/>
     <use x="115.576172" xlink:href="#DejaVuSans-61"/>
     <use x="176.855469" xlink:href="#DejaVuSans-20"/>
     <use x="208.642578" xlink:href="#DejaVuSans-73"/>
     <use x="260.742188" xlink:href="#DejaVuSans-6f"/>
     <use x="321.923828" xlink:href="#DejaVuSans-6c"/>
     <use x="349.707031" xlink:href="#DejaVuSans-76"/>
     <use x="408.886719" xlink:href="#DejaVuSans-65"/>
    </g>
   </g>
   <g id="text_15">
    <!-- Rosenbroc -->
    <defs>
     <path d="M 44.390625 34.1875 
Q 47.5625 33.109375 50.5625 29.59375 
Q 53.5625 26.078125 56.59375 19.921875 
L 66.609375 0 
L 56 0 
L 46.6875 18.703125 
Q 43.0625 26.03125 39.671875 28.421875 
Q 36.28125 30.8125 30.421875 30.8125 
L 19.671875 30.8125 
L 19.671875 0 
L 9.8125 0 
L 9.8125 72.90625 
L 32.078125 72.90625 
Q 44.578125 72.90625 50.734375 67.671875 
Q 56.890625 62.453125 56.890625 51.90625 
Q 56.890625 45.015625 53.6875 40.46875 
Q 50.484375 35.9375 44.390625 34.1875 
z
M 19.671875 64.796875 
L 19.671875 38.921875 
L 32.078125 38.921875 
Q 39.203125 38.921875 42.84375 42.21875 
Q 46.484375 45.515625 46.484375 51.90625 
Q 46.484375 58.296875 42.84375 61.546875 
Q 39.203125 64.796875 32.078125 64.796875 
z
" id="DejaVuSans-52"/>
     <path d="M 48.6875 27.296875 
Q 48.6875 37.203125 44.609375 42.84375 
Q 40.53125 48.484375 33.40625 48.484375 
Q 26.265625 48.484375 22.1875 42.84375 
Q 18.109375 37.203125 18.109375 27.296875 
Q 18.109375 17.390625 22.1875 11.75 
Q 26.265625 6.109375 33.40625 6.109375 
Q 40.53125 6.109375 44.609375 11.75 
Q 48.6875 17.390625 48.6875 27.296875 
z
M 18.109375 46.390625 
Q 20.953125 51.265625 25.265625 53.625 
Q 29.59375 56 35.59375 56 
Q 45.5625 56 51.78125 48.09375 
Q 58.015625 40.1875 58.015625 27.296875 
Q 58.015625 14.40625 51.78125 6.484375 
Q 45.5625 -1.421875 35.59375 -1.421875 
Q 29.59375 -1.421875 25.265625 0.953125 
Q 20.953125 3.328125 18.109375 8.203125 
L 18.109375 0 
L 9.078125 0 
L 9.078125 75.984375 
L 18.109375 75.984375 
z
" id="DejaVuSans-62"/>
    </defs>
    <g transform="translate(369.479935 251.444997)scale(0.17 -0.17)">
     <use xlink:href="#DejaVuSans-52"/>
     <use x="69.419922" xlink:href="#DejaVuSans-6f"/>
     <use x="130.601562" xlink:href="#DejaVuSans-73"/>
     <use x="182.701172" xlink:href="#DejaVuSans-65"/>
     <use x="244.224609" xlink:href="#DejaVuSans-6e"/>
     <use x="307.603516" xlink:href="#DejaVuSans-62"/>
     <use x="371.080078" xlink:href="#DejaVuSans-72"/>
     <use x="412.162109" xlink:href="#DejaVuSans-6f"/>
     <use x="473.34375" xlink:href="#DejaVuSans-63"/>
    </g>
   </g>
   <g id="text_16">
    <!-- PSO -->
    <defs>
     <path d="M 19.671875 64.796875 
L 19.671875 37.40625 
L 32.078125 37.40625 
Q 38.96875 37.40625 42.71875 40.96875 
Q 46.484375 44.53125 46.484375 51.125 
Q 46.484375 57.671875 42.71875 61.234375 
Q 38.96875 64.796875 32.078125 64.796875 
z
M 9.8125 72.90625 
L 32.078125 72.90625 
Q 44.34375 72.90625 50.609375 67.359375 
Q 56.890625 61.8125 56.890625 51.125 
Q 56.890625 40.328125 50.609375 34.8125 
Q 44.34375 29.296875 32.078125 29.296875 
L 19.671875 29.296875 
L 19.671875 0 
L 9.8125 0 
z
" id="DejaVuSans-50"/>
     <path d="M 53.515625 70.515625 
L 53.515625 60.890625 
Q 47.90625 63.578125 42.921875 64.890625 
Q 37.9375 66.21875 33.296875 66.21875 
Q 25.25 66.21875 20.875 63.09375 
Q 16.5 59.96875 16.5 54.203125 
Q 16.5 49.359375 19.40625 46.890625 
Q 22.3125 44.4375 30.421875 42.921875 
L 36.375 41.703125 
Q 47.40625 39.59375 52.65625 34.296875 
Q 57.90625 29 57.90625 20.125 
Q 57.90625 9.515625 50.796875 4.046875 
Q 43.703125 -1.421875 29.984375 -1.421875 
Q 24.8125 -1.421875 18.96875 -0.25 
Q 13.140625 0.921875 6.890625 3.21875 
L 6.890625 13.375 
Q 12.890625 10.015625 18.65625 8.296875 
Q 24.421875 6.59375 29.984375 6.59375 
Q 38.421875 6.59375 43.015625 9.90625 
Q 47.609375 13.234375 47.609375 19.390625 
Q 47.609375 24.75 44.3125 27.78125 
Q 41.015625 30.8125 33.5 32.328125 
L 27.484375 33.5 
Q 16.453125 35.6875 11.515625 40.375 
Q 6.59375 45.0625 6.59375 53.421875 
Q 6.59375 63.09375 13.40625 68.65625 
Q 20.21875 74.21875 32.171875 74.21875 
Q 37.3125 74.21875 42.625 73.28125 
Q 47.953125 72.359375 53.515625 70.515625 
z
" id="DejaVuSans-53"/>
     <path d="M 39.40625 66.21875 
Q 28.65625 66.21875 22.328125 58.203125 
Q 16.015625 50.203125 16.015625 36.375 
Q 16.015625 22.609375 22.328125 14.59375 
Q 28.65625 6.59375 39.40625 6.59375 
Q 50.140625 6.59375 56.421875 14.59375 
Q 62.703125 22.609375 62.703125 36.375 
Q 62.703125 50.203125 56.421875 58.203125 
Q 50.140625 66.21875 39.40625 66.21875 
z
M 39.40625 74.21875 
Q 54.734375 74.21875 63.90625 63.9375 
Q 73.09375 53.65625 73.09375 36.375 
Q 73.09375 19.140625 63.90625 8.859375 
Q 54.734375 -1.421875 39.40625 -1.421875 
Q 24.03125 -1.421875 14.8125 8.828125 
Q 5.609375 19.09375 5.609375 36.375 
Q 5.609375 53.65625 14.8125 63.9375 
Q 24.03125 74.21875 39.40625 74.21875 
z
" id="DejaVuSans-4f"/>
    </defs>
    <g transform="translate(369.479935 208.666383)scale(0.17 -0.17)">
     <use xlink:href="#DejaVuSans-50"/>
     <use x="60.302734" xlink:href="#DejaVuSans-53"/>
     <use x="123.779297" xlink:href="#DejaVuSans-4f"/>
    </g>
   </g>
   <g id="text_17">
    <!-- GA -->
    <defs>
     <path d="M 59.515625 10.40625 
L 59.515625 29.984375 
L 43.40625 29.984375 
L 43.40625 38.09375 
L 69.28125 38.09375 
L 69.28125 6.78125 
Q 63.578125 2.734375 56.6875 0.65625 
Q 49.8125 -1.421875 42 -1.421875 
Q 24.90625 -1.421875 15.25 8.5625 
Q 5.609375 18.5625 5.609375 36.375 
Q 5.609375 54.25 15.25 64.234375 
Q 24.90625 74.21875 42 74.21875 
Q 49.125 74.21875 55.546875 72.453125 
Q 61.96875 70.703125 67.390625 67.28125 
L 67.390625 56.78125 
Q 61.921875 61.421875 55.765625 63.765625 
Q 49.609375 66.109375 42.828125 66.109375 
Q 29.4375 66.109375 22.71875 58.640625 
Q 16.015625 51.171875 16.015625 36.375 
Q 16.015625 21.625 22.71875 14.15625 
Q 29.4375 6.6875 42.828125 6.6875 
Q 48.046875 6.6875 52.140625 7.59375 
Q 56.25 8.5 59.515625 10.40625 
z
" id="DejaVuSans-47"/>
     <path d="M 34.1875 63.1875 
L 20.796875 26.90625 
L 47.609375 26.90625 
z
M 28.609375 72.90625 
L 39.796875 72.90625 
L 67.578125 0 
L 57.328125 0 
L 50.6875 18.703125 
L 17.828125 18.703125 
L 11.1875 0 
L 0.78125 0 
z
" id="DejaVuSans-41"/>
    </defs>
    <g transform="translate(369.479935 165.887769)scale(0.17 -0.17)">
     <use xlink:href="#DejaVuSans-47"/>
     <use x="77.490234" xlink:href="#DejaVuSans-41"/>
    </g>
   </g>
   <g id="text_18">
    <!-- ALPS -->
    <defs>
     <path d="M 9.8125 72.90625 
L 19.671875 72.90625 
L 19.671875 8.296875 
L 55.171875 8.296875 
L 55.171875 0 
L 9.8125 0 
z
" id="DejaVuSans-4c"/>
    </defs>
    <g transform="translate(369.479935 123.109155)scale(0.17 -0.17)">
     <use xlink:href="#DejaVuSans-41"/>
     <use x="68.408203" xlink:href="#DejaVuSans-4c"/>
     <use x="124.121094" xlink:href="#DejaVuSans-50"/>
     <use x="184.423828" xlink:href="#DejaVuSans-53"/>
    </g>
   </g>
   <g id="text_19">
    <!-- DASA -->
    <defs>
     <path d="M 19.671875 64.796875 
L 19.671875 8.109375 
L 31.59375 8.109375 
Q 46.6875 8.109375 53.6875 14.9375 
Q 60.6875 21.78125 60.6875 36.53125 
Q 60.6875 51.171875 53.6875 57.984375 
Q 46.6875 64.796875 31.59375 64.796875 
z
M 9.8125 72.90625 
L 30.078125 72.90625 
Q 51.265625 72.90625 61.171875 64.09375 
Q 71.09375 55.28125 71.09375 36.53125 
Q 71.09375 17.671875 61.125 8.828125 
Q 51.171875 0 30.078125 0 
L 9.8125 0 
z
" id="DejaVuSans-44"/>
    </defs>
    <g transform="translate(369.479935 80.330541)scale(0.17 -0.17)">
     <use xlink:href="#DejaVuSans-44"/>
     <use x="76.986328" xlink:href="#DejaVuSans-41"/>
     <use x="145.394531" xlink:href="#DejaVuSans-53"/>
     <use x="208.886719" xlink:href="#DejaVuSans-41"/>
    </g>
   </g>
   <g id="text_20">
    <!-- best 2009 -->
    <defs>
     <path d="M 10.984375 1.515625 
L 10.984375 10.5 
Q 14.703125 8.734375 18.5 7.8125 
Q 22.3125 6.890625 25.984375 6.890625 
Q 35.75 6.890625 40.890625 13.453125 
Q 46.046875 20.015625 46.78125 33.40625 
Q 43.953125 29.203125 39.59375 26.953125 
Q 35.25 24.703125 29.984375 24.703125 
Q 19.046875 24.703125 12.671875 31.3125 
Q 6.296875 37.9375 6.296875 49.421875 
Q 6.296875 60.640625 12.9375 67.421875 
Q 19.578125 74.21875 30.609375 74.21875 
Q 43.265625 74.21875 49.921875 64.515625 
Q 56.59375 54.828125 56.59375 36.375 
Q 56.59375 19.140625 48.40625 8.859375 
Q 40.234375 -1.421875 26.421875 -1.421875 
Q 22.703125 -1.421875 18.890625 -0.6875 
Q 15.09375 0.046875 10.984375 1.515625 
z
M 30.609375 32.421875 
Q 37.25 32.421875 41.125 36.953125 
Q 45.015625 41.5 45.015625 49.421875 
Q 45.015625 57.28125 41.125 61.84375 
Q 37.25 66.40625 30.609375 66.40625 
Q 23.96875 66.40625 20.09375 61.84375 
Q 16.21875 57.28125 16.21875 49.421875 
Q 16.21875 41.5 20.09375 36.953125 
Q 23.96875 32.421875 30.609375 32.421875 
z
" id="DejaVuSans-39"/>
    </defs>
    <g transform="translate(369.479935 37.551928)scale(0.17 -0.17)">
     <use xlink:href="#DejaVuSans-62"/>
     <use x="63.476562" xlink:href="#DejaVuSans-65"/>
     <use x="125" xlink:href="#DejaVuSans-73"/>
     <use x="177.099609" xlink:href="#DejaVuSans-74"/>
     <use x="216.308594" xlink:href="#DejaVuSans-20"/>
     <use x="248.095703" xlink:href="#DejaVuSans-32"/>
     <use x="311.71875" xlink:href="#DejaVuSans-30"/>
     <use x="375.341797" xlink:href="#DejaVuSans-30"/>
     <use x="438.964844" xlink:href="#DejaVuSans-39"/>
    </g>
   </g>
   <g id="text_21">
    <!-- bbob f4, 10-D -->
    <g transform="translate(59.55864 35.290806)scale(0.102 -0.102)">
     <use xlink:href="#DejaVuSans-62"/>
     <use x="63.476562" xlink:href="#DejaVuSans-62"/>
     <use x="126.953125" xlink:href="#DejaVuSans-6f"/>
     <use x="188.134766" xlink:href="#DejaVuSans-62"/>
     <use x="251.611328" xlink:href="#DejaVuSans-20"/>
     <use x="283.398438" xlink:href="#DejaVuSans-66"/>
     <use x="318.603516" xlink:href="#DejaVuSans-34"/>
     <use x="382.226562" xlink:href="#DejaVuSans-2c"/>
     <use x="414.013672" xlink:href="#DejaVuSans-20"/>
     <use x="445.800781" xlink:href="#DejaVuSans-31"/>
     <use x="509.423828" xlink:href="#DejaVuSans-30"/>
     <use x="573.046875" xlink:href="#DejaVuSans-2d"/>
     <use x="609.130859" xlink:href="#DejaVuSans-44"/>
    </g>
    <!-- 51 targets: 100..1e-08 -->
    <defs>
     <path d="M 10.796875 72.90625 
L 49.515625 72.90625 
L 49.515625 64.59375 
L 19.828125 64.59375 
L 19.828125 46.734375 
Q 21.96875 47.46875 24.109375 47.828125 
Q 26.265625 48.1875 28.421875 48.1875 
Q 40.625 48.1875 47.75 41.5 
Q 54.890625 34.8125 54.890625 23.390625 
Q 54.890625 11.625 47.5625 5.09375 
Q 40.234375 -1.421875 26.90625 -1.421875 
Q 22.3125 -1.421875 17.546875 -0.640625 
Q 12.796875 0.140625 7.71875 1.703125 
L 7.71875 11.625 
Q 12.109375 9.234375 16.796875 8.0625 
Q 21.484375 6.890625 26.703125 6.890625 
Q 35.15625 6.890625 40.078125 11.328125 
Q 45.015625 15.765625 45.015625 23.390625 
Q 45.015625 31 40.078125 35.4375 
Q 35.15625 39.890625 26.703125 39.890625 
Q 22.75 39.890625 18.8125 39.015625 
Q 14.890625 38.140625 10.796875 36.28125 
z
" id="DejaVuSans-35"/>
     <path d="M 11.71875 12.40625 
L 22.015625 12.40625 
L 22.015625 0 
L 11.71875 0 
z
M 11.71875 51.703125 
L 22.015625 51.703125 
L 22.015625 39.3125 
L 11.71875 39.3125 
z
" id="DejaVuSans-3a"/>
    </defs>
    <g transform="translate(59.55864 46.712575)scale(0.102 -0.102)">
     <use xlink:href="#DejaVuSans-35"/>
     <use x="63.623047" xlink:href="#DejaVuSans-31"/>
     <use x="127.246094" xlink:href="#DejaVuSans-20"/>
     <use x="159.033203" xlink:href="#DejaVuSans-74"/>
     <use x="198.242188" xlink:href="#DejaVuSans-61"/>
     <use x="259.521484" xlink:href="#DejaVuSans-72"/>
     <use x="300.619141" xlink:href="#DejaVuSans-67"/>
     <use x="364.095703" xlink:href="#DejaVuSans-65"/>
     <use x="425.619141" xlink:href="#DejaVuSans-74"/>
     <use x="464.828125" xlink:href="#DejaVuSans-73"/>
     <use x="516.927734" xlink:href="#DejaVuSans-3a"/>
     <use x="550.619141" xlink:href="#DejaVuSans-20"/>
     <use x="582.40625" xlink:href="#DejaVuSans-31"/>
     <use x="646.029297" xlink:href="#DejaVuSans-30"/>
     <use x="709.652344" xlink:href="#DejaVuSans-30"/>
     <use x="773.275391" xlink:href="#DejaVuSans-2e"/>
     <use x="805.0625" xlink:href="#DejaVuSans-2e"/>
     <use x="836.849609" xlink:href="#DejaVuSans-31"/>
     <use x="900.472656" xlink:href="#DejaVuSans-65"/>
     <use x="961.996094" xlink:href="#DejaVuSans-2d"/>
     <use x="998.080078" xlink:href="#DejaVuSans-30"/>
     <use x="1061.703125" xlink:href="#DejaVuSans-38"/>
    </g>
    <!-- 15 instances -->
    <g transform="translate(59.55864 58.134344)scale(0.102 -0.102)">
     <use xlink:href="#DejaVuSans-31"/>
     <use x="63.623047" xlink:href="#DejaVuSans-35"/>
     <use x="127.246094" xlink:href="#DejaVuSans-20"/>
     <use x="159.033203" xlink:href="#DejaVuSans-69"/>
     <use x="186.816406" xlink:href="#DejaVuSans-6e"/>
     <use x="250.195312" xlink:href="#DejaVuSans-73"/>
     <use x="302.294922" xlink:href="#DejaVuSans-74"/>
     <use x="341.503906" xlink:href="#DejaVuSans-61"/>
     <use x="402.783203" xlink:href="#DejaVuSans-6e"/>
     <use x="466.162109" xlink:href="#DejaVuSans-63"/>
     <use x="521.142578" xlink:href="#DejaVuSans-65"/>
     <use x="582.666016" xlink:href="#DejaVuSans-73"/>
    </g>
   </g>
   <g id="text_22">
    <!-- v-coco-version -->
    <g style="fill:#808080;" transform="translate(191.556688 290.099912)scale(0.1 -0.1)">
     <use xlink:href="#DejaVuSans-76"/>
     <use x="59.148438" xlink:href="#DejaVuSans-2d"/>
     <use x="95.232422" xlink:href="#DejaVuSans-63"/>
     <use x="150.212891" xlink:href="#DejaVuSans-6f"/>
     <use x="211.394531" xlink:href="#DejaVuSans-63"/>
     <use x="266.375" xlink:href="#DejaVuSans-6f"/>
     <use x="327.572266" xlink:href="#DejaVuSans-2d"/>
     <use x="363.625" xlink:href="#DejaVuSans-76"/>
     <use x="422.804688" xlink:href="#DejaVuSans-65"/>
     <use x="484.328125" xlink:href="#DejaVuSans-72"/>
     <use x="525.441406" xlink:href="#DejaVuSans-73"/>
     <use x="577.541016" xlink:href="#DejaVuSans-69"/>
     <use x="605.324219" xlink:href="#DejaVuSans-6f"/>
     <use x="666.505859" xlink:href="#DejaVuSans-6e"/>
    </g>
   </g>
   <g id="text_23">
    <!-- 4 Skew Rastrigin-Bueche separ -->
    <defs>
     <path d="M 9.078125 75.984375 
L 18.109375 75.984375 
L 18.109375 31.109375 
L 44.921875 54.6875 
L 56.390625 54.6875 
L 27.390625 29.109375 
L 57.625 0 
L 45.90625 0 
L 18.109375 26.703125 
L 18.109375 0 
L 9.078125 0 
z
" id="DejaVuSans-6b"/>
     <path d="M 4.203125 54.6875 
L 13.1875 54.6875 
L 24.421875 12.015625 
L 35.59375 54.6875 
L 46.1875 54.6875 
L 57.421875 12.015625 
L 68.609375 54.6875 
L 77.59375 54.6875 
L 63.28125 0 
L 52.6875 0 
L 40.921875 44.828125 
L 29.109375 0 
L 18.5 0 
z
" id="DejaVuSans-77"/>
     <path d="M 19.671875 34.8125 
L 19.671875 8.109375 
L 35.5 8.109375 
Q 43.453125 8.109375 47.28125 11.40625 
Q 51.125 14.703125 51.125 21.484375 
Q 51.125 28.328125 47.28125 31.5625 
Q 43.453125 34.8125 35.5 34.8125 
z
M 19.671875 64.796875 
L 19.671875 42.828125 
L 34.28125 42.828125 
Q 41.5 42.828125 45.03125 45.53125 
Q 48.578125 48.25 48.578125 53.8125 
Q 48.578125 59.328125 45.03125 62.0625 
Q 41.5 64.796875 34.28125 64.796875 
z
M 9.8125 72.90625 
L 35.015625 72.90625 
Q 46.296875 72.90625 52.390625 68.21875 
Q 58.5 63.53125 58.5 54.890625 
Q 58.5 48.1875 55.375 44.234375 
Q 52.25 40.28125 46.1875 39.3125 
Q 53.46875 37.75 57.5 32.78125 
Q 61.53125 27.828125 61.53125 20.40625 
Q 61.53125 10.640625 54.890625 5.3125 
Q 48.25 0 35.984375 0 
L 9.8125 0 
z
" id="DejaVuSans-42"/>
     <path d="M 54.890625 33.015625 
L 54.890625 0 
L 45.90625 0 
L 45.90625 32.71875 
Q 45.90625 40.484375 42.875 44.328125 
Q 39.84375 48.1875 33.796875 48.1875 
Q 26.515625 48.1875 22.3125 43.546875 
Q 18.109375 38.921875 18.109375 30.90625 
L 18.109375 0 
L 9.078125 0 
L 9.078125 75.984375 
L 18.109375 75.984375 
L 18.109375 46.1875 
Q 21.34375 51.125 25.703125 53.5625 
Q 30.078125 56 35.796875 56 
Q 45.21875 56 50.046875 50.171875 
Q 54.890625 44.34375 54.890625 33.015625 
z
" id="DejaVuSans-68"/>
    </defs>
    <g transform="translate(72.2395 18.84)scale(0.2 -0.2)">
     <use xlink:href="#DejaVuSans-34"/>
     <use x="63.623047" xlink:href="#DejaVuSans-20"/>
     <use x="95.410156" xlink:href="#DejaVuSans-53"/>
     <use x="158.886719" xlink:href="#DejaVuSans-6b"/>
     <use x="216.75" xlink:href="#DejaVuSans-65"/>
     <use x="278.273438" xlink:href="#DejaVuSans-77"/>
     <use x="360.060547" xlink:href="#DejaVuSans-20"/>
     <use x="391.847656" xlink:href="#DejaVuSans-52"/>
     <use x="461.298828" xlink:href="#DejaVuSans-61"/>
     <use x="522.578125" xlink:href="#DejaVuSans-73"/>
     <use x="574.677734" xlink:href="#DejaVuSans-74"/>
     <use x="613.886719" xlink:href="#DejaVuSans-72"/>
     <use x="655" xlink:href="#DejaVuSans-69"/>
     <use x="682.783203" xlink:href="#DejaVuSans-67"/>
     <use x="746.259766" xlink:href="#DejaVuSans-69"/>
     <use x="774.042969" xlink:href="#DejaVuSans-6e"/>
     <use x="837.421875" xlink:href="#DejaVuSans-2d"/>
     <use x="873.458984" xlink:href="#DejaVuSans-42"/>
     <use x="942.0625" xlink:href="#DejaVuSans-75"/>
     <use x="1005.441406" xlink:href="#DejaVuSans-65"/>
     <use x="1066.964844" xlink:href="#DejaVuSans-63"/>
     <use x="1121.945312" xlink:href="#DejaVuSans-68"/>
     <use x="1185.324219" xlink:href="#DejaVuSans-65"/>
     <use x="1246.847656" xlink:href="#DejaVuSans-20"/>
     <use x="1278.634766" xlink:href="#DejaVuSans-73"/>
     <use x="1330.734375" xlink:href="#DejaVuSans-65"/>
     <use x="1392.257812" xlink:href="#DejaVuSans-70"/>
     <use x="1455.734375" xlink:href="#DejaVuSans-61"/>
     <use x="1517.013672" xlink:href="#DejaVuSans-72"/>
    </g>
   </g>
  </g>
 </g>
 <defs>
  <clipPath id="p3a0f0564fc">
   <rect height="270.04" width="343.864" x="56.12" y="24.84"/>
  </clipPath>
 </defs>
</svg>
