<?xml version="1.0" encoding="utf-8" standalone="no"?>
<!DOCTYPE svg PUBLIC "-//W3C//DTD SVG 1.1//EN"
  "http://www.w3.org/Graphics/SVG/1.1/DTD/svg11.dtd">
<!-- Created with matplotlib (http://matplotlib.org/) -->
<svg height="345.6pt" version="1.1" viewBox="0 0 460.8 345.6" width="460.8pt" xmlns="http://www.w3.org/2000/svg" xmlns:xlink="http://www.w3.org/1999/xlink">
 <defs>
  <style type="text/css">
*{stroke-linecap:butt;stroke-linejoin:round;}
  </style>
 </defs>
 <g id="figure_1">
  <g id="patch_1">
   <path d="M 0 345.6 
L 460.8 345.6 
L 460.8 0 
L 0 0 
z
" style="fill:#ffffff;"/>
  </g>
  <g id="axes_1">
   <g id="patch_2">
    <path d="M 56.12 294.88 
L 399.984 294.88 
L 399.984 24.84 
L 56.12 24.84 
z
" style="fill:#ffffff;"/>
   </g>
   <g id="line2d_1">
    <path d="M 56.12 294.88 
L 56.12 268.667614 
L 63.095973 268.667614 
L 63.095973 263.425137 
L 71.884659 263.425137 
L 71.884659 258.18266 
L 75.021477 258.18266 
L 75.021477 252.940182 
L 89.599124 252.940182 
L 89.599124 247.697705 
L 96.575096 247.697705 
L 96.575096 237.212751 
L 106.778678 237.212751 
L 106.778678 231.970274 
L 109.300972 231.970274 
L 109.300972 226.727797 
L 110.065758 226.727797 
L 110.065758 216.242842 
L 114.637146 216.242842 
L 114.637146 211.000365 
L 119.586677 211.000365 
L 119.586677 205.757888 
L 119.800405 205.757888 
L 119.800405 195.272933 
L 134.286778 195.272933 
L 134.286778 190.030456 
L 134.738376 190.030456 
L 134.738376 184.787979 
L 135.859892 184.787979 
L 135.859892 179.545502 
L 136.595604 179.545502 
L 136.595604 174.303025 
L 136.754909 174.303025 
L 136.754909 74.695958 
L 137.224162 74.695958 
L 137.224162 69.453481 
L 137.680955 69.453481 
L 137.680955 64.211004 
L 138.125933 64.211004 
L 138.125933 58.968526 
L 138.559692 58.968526 
L 138.559692 53.726049 
L 138.701882 53.726049 
L 138.701882 48.483572 
L 139.190491 48.483572 
L 139.190491 43.241095 
L 139.395721 43.241095 
L 139.395721 37.998618 
L 139.598531 37.998618 
L 139.598531 32.756141 
L 139.732422 32.756141 
L 139.732422 27.513663 
L 333.429677 27.513663 
" style="fill:none;stroke:#f5deb3;stroke-linecap:square;stroke-width:6;"/>
   </g>
   <g id="line2d_2">
    <defs>
     <path d="M -0 7.778175 
L 7.778175 0 
L 0 -7.778175 
L -7.778175 -0 
z
" id="m0854afb94d" style="stroke:#f5deb3;stroke-linejoin:miter;stroke-width:1.5;"/>
    </defs>
    <g>
     <use style="fill:#f5deb3;stroke:#f5deb3;stroke-linejoin:miter;stroke-width:1.5;" x="119.800405" xlink:href="#m0854afb94d" y="205.757888"/>
     <use style="fill:#f5deb3;stroke:#f5deb3;stroke-linejoin:miter;stroke-width:1.5;" x="139.190491" xlink:href="#m0854afb94d" y="48.483572"/>
     <use style="fill:#f5deb3;stroke:#f5deb3;stroke-linejoin:miter;stroke-width:1.5;" x="139.732422" xlink:href="#m0854afb94d" y="27.513663"/>
     <use style="fill:#f5deb3;stroke:#f5deb3;stroke-linejoin:miter;stroke-width:1.5;" x="139.732422" xlink:href="#m0854afb94d" y="27.513663"/>
     <use style="fill:#f5deb3;stroke:#f5deb3;stroke-linejoin:miter;stroke-width:1.5;" x="333.429677" xlink:href="#m0854afb94d" y="27.513663"/>
    </g>
   </g>
   <g id="line2d_3">
    <path style="fill:none;stroke:#f5deb3;stroke-linecap:square;stroke-width:6;"/>
    <g/>
   </g>
   <g id="line2d_4">
    <path d="M 333.429677 27.513663 
L 363.933742 32.86099 
" style="fill:none;stroke:#f5deb3;stroke-linecap:square;stroke-width:6;"/>
    <g>
     <use style="fill:#f5deb3;stroke:#f5deb3;stroke-linejoin:miter;stroke-width:1.5;" x="333.429677" xlink:href="#m0854afb94d" y="27.513663"/>
     <use style="fill:#f5deb3;stroke:#f5deb3;stroke-linejoin:miter;stroke-width:1.5;" x="363.933742" xlink:href="#m0854afb94d" y="32.86099"/>
    </g>
   </g>
   <g id="matplotlib.axis_1">
    <g id="xtick_1">
     <g id="line2d_5">
      <path clip-path="url(#p35c42608f2)" d="M 56.12 294.88 
L 56.12 24.84 
" style="fill:none;stroke:#b0b0b0;stroke-linecap:square;stroke-width:0.8;"/>
     </g>
     <g id="line2d_6">
      <defs>
       <path d="M 0 0 
L 0 3.5 
" id="m6ad7e8b5e7" style="stroke:#000000;stroke-width:0.8;"/>
      </defs>
      <g>
       <use style="stroke:#000000;stroke-width:0.8;" x="56.12" xlink:href="#m6ad7e8b5e7" y="294.88"/>
      </g>
     </g>
     <g id="text_1">
      <!-- 0 -->
      <defs>
       <path d="M 31.78125 66.40625 
Q 24.171875 66.40625 20.328125 58.90625 
Q 16.5 51.421875 16.5 36.375 
Q 16.5 21.390625 20.328125 13.890625 
Q 24.171875 6.390625 31.78125 6.390625 
Q 39.453125 6.390625 43.28125 13.890625 
Q 47.125 21.390625 47.125 36.375 
Q 47.125 51.421875 43.28125 58.90625 
Q 39.453125 66.40625 31.78125 66.40625 
z
M 31.78125 74.21875 
Q 44.046875 74.21875 50.515625 64.515625 
Q 56.984375 54.828125 56.984375 36.375 
Q 56.984375 17.96875 50.515625 8.265625 
Q 44.046875 -1.421875 31.78125 -1.421875 
Q 19.53125 -1.421875 13.0625 8.265625 
Q 6.59375 17.96875 6.59375 36.375 
Q 6.59375 54.828125 13.0625 64.515625 
Q 19.53125 74.21875 31.78125 74.21875 
z
" id="DejaVuSans-30"/>
      </defs>
      <g transform="translate(49.7575 317.076875)scale(0.2 -0.2)">
       <use xlink:href="#DejaVuSans-30"/>
      </g>
     </g>
    </g>
    <g id="xtick_2">
     <g id="line2d_7">
      <path clip-path="url(#p35c42608f2)" d="M 135.351336 294.88 
L 135.351336 24.84 
" style="fill:none;stroke:#b0b0b0;stroke-linecap:square;stroke-width:0.8;"/>
     </g>
     <g id="line2d_8">
      <g>
       <use style="stroke:#000000;stroke-width:0.8;" x="135.351336" xlink:href="#m6ad7e8b5e7" y="294.88"/>
      </g>
     </g>
     <g id="text_2">
      <!-- 2 -->
      <defs>
       <path d="M 19.1875 8.296875 
L 53.609375 8.296875 
L 53.609375 0 
L 7.328125 0 
L 7.328125 8.296875 
Q 12.9375 14.109375 22.625 23.890625 
Q 32.328125 33.6875 34.8125 36.53125 
Q 39.546875 41.84375 41.421875 45.53125 
Q 43.3125 49.21875 43.3125 52.78125 
Q 43.3125 58.59375 39.234375 62.25 
Q 35.15625 65.921875 28.609375 65.921875 
Q 23.96875 65.921875 18.8125 64.3125 
Q 13.671875 62.703125 7.8125 59.421875 
L 7.8125 69.390625 
Q 13.765625 71.78125 18.9375 73 
Q 24.125 74.21875 28.421875 74.21875 
Q 39.75 74.21875 46.484375 68.546875 
Q 53.21875 62.890625 53.21875 53.421875 
Q 53.21875 48.921875 51.53125 44.890625 
Q 49.859375 40.875 45.40625 35.40625 
Q 44.1875 33.984375 37.640625 27.21875 
Q 31.109375 20.453125 19.1875 8.296875 
z
" id="DejaVuSans-32"/>
      </defs>
      <g transform="translate(128.988836 317.076875)scale(0.2 -0.2)">
       <use xlink:href="#DejaVuSans-32"/>
      </g>
     </g>
    </g>
    <g id="xtick_3">
     <g id="line2d_9">
      <path clip-path="url(#p35c42608f2)" d="M 214.582673 294.88 
L 214.582673 24.84 
" style="fill:none;stroke:#b0b0b0;stroke-linecap:square;stroke-width:0.8;"/>
     </g>
     <g id="line2d_10">
      <g>
       <use style="stroke:#000000;stroke-width:0.8;" x="214.582673" xlink:href="#m6ad7e8b5e7" y="294.88"/>
      </g>
     </g>
     <g id="text_3">
      <!-- 4 -->
      <defs>
       <path d="M 37.796875 64.3125 
L 12.890625 25.390625 
L 37.796875 25.390625 
z
M 35.203125 72.90625 
L 47.609375 72.90625 
L 47.609375 25.390625 
L 58.015625 25.390625 
L 58.015625 17.1875 
L 47.609375 17.1875 
L 47.609375 0 
L 37.796875 0 
L 37.796875 17.1875 
L 4.890625 17.1875 
L 4.890625 26.703125 
z
" id="DejaVuSans-34"/>
      </defs>
      <g transform="translate(208.220173 317.076875)scale(0.2 -0.2)">
       <use xlink:href="#DejaVuSans-34"/>
      </g>
     </g>
    </g>
    <g id="xtick_4">
     <g id="line2d_11">
      <path clip-path="url(#p35c42608f2)" d="M 293.814009 294.88 
L 293.814009 24.84 
" style="fill:none;stroke:#b0b0b0;stroke-linecap:square;stroke-width:0.8;"/>
     </g>
     <g id="line2d_12">
      <g>
       <use style="stroke:#000000;stroke-width:0.8;" x="293.814009" xlink:href="#m6ad7e8b5e7" y="294.88"/>
      </g>
     </g>
     <g id="text_4">
      <!-- 6 -->
      <defs>
       <path d="M 33.015625 40.375 
Q 26.375 40.375 22.484375 35.828125 
Q 18.609375 31.296875 18.609375 23.390625 
Q 18.609375 15.53125 22.484375 10.953125 
Q 26.375 6.390625 33.015625 6.390625 
Q 39.65625 6.390625 43.53125 10.953125 
Q 47.40625 15.53125 47.40625 23.390625 
Q 47.40625 31.296875 43.53125 35.828125 
Q 39.65625 40.375 33.015625 40.375 
z
M 52.59375 71.296875 
L 52.59375 62.3125 
Q 48.875 64.0625 45.09375 64.984375 
Q 41.3125 65.921875 37.59375 65.921875 
Q 27.828125 65.921875 22.671875 59.328125 
Q 17.53125 52.734375 16.796875 39.40625 
Q 19.671875 43.65625 24.015625 45.921875 
Q 28.375 48.1875 33.59375 48.1875 
Q 44.578125 48.1875 50.953125 41.515625 
Q 57.328125 34.859375 57.328125 23.390625 
Q 57.328125 12.15625 50.6875 5.359375 
Q 44.046875 -1.421875 33.015625 -1.421875 
Q 20.359375 -1.421875 13.671875 8.265625 
Q 6.984375 17.96875 6.984375 36.375 
Q 6.984375 53.65625 15.1875 63.9375 
Q 23.390625 74.21875 37.203125 74.21875 
Q 40.921875 74.21875 44.703125 73.484375 
Q 48.484375 72.75 52.59375 71.296875 
z
" id="DejaVuSans-36"/>
      </defs>
      <g transform="translate(287.451509 317.076875)scale(0.2 -0.2)">
       <use xlink:href="#DejaVuSans-36"/>
      </g>
     </g>
    </g>
    <g id="xtick_5">
     <g id="line2d_13">
      <path clip-path="url(#p35c42608f2)" d="M 373.045346 294.88 
L 373.045346 24.84 
" style="fill:none;stroke:#b0b0b0;stroke-linecap:square;stroke-width:0.8;"/>
     </g>
     <g id="line2d_14">
      <g>
       <use style="stroke:#000000;stroke-width:0.8;" x="373.045346" xlink:href="#m6ad7e8b5e7" y="294.88"/>
      </g>
     </g>
     <g id="text_5">
      <!-- 8 -->
      <defs>
       <path d="M 31.78125 34.625 
Q 24.75 34.625 20.71875 30.859375 
Q 16.703125 27.09375 16.703125 20.515625 
Q 16.703125 13.921875 20.71875 10.15625 
Q 24.75 6.390625 31.78125 6.390625 
Q 38.8125 6.390625 42.859375 10.171875 
Q 46.921875 13.96875 46.921875 20.515625 
Q 46.921875 27.09375 42.890625 30.859375 
Q 38.875 34.625 31.78125 34.625 
z
M 21.921875 38.8125 
Q 15.578125 40.375 12.03125 44.71875 
Q 8.5 49.078125 8.5 55.328125 
Q 8.5 64.0625 14.71875 69.140625 
Q 20.953125 74.21875 31.78125 74.21875 
Q 42.671875 74.21875 48.875 69.140625 
Q 55.078125 64.0625 55.078125 55.328125 
Q 55.078125 49.078125 51.53125 44.71875 
Q 48 40.375 41.703125 38.8125 
Q 48.828125 37.15625 52.796875 32.3125 
Q 56.78125 27.484375 56.78125 20.515625 
Q 56.78125 9.90625 50.3125 4.234375 
Q 43.84375 -1.421875 31.78125 -1.421875 
Q 19.734375 -1.421875 13.25 4.234375 
Q 6.78125 9.90625 6.78125 20.515625 
Q 6.78125 27.484375 10.78125 32.3125 
Q 14.796875 37.15625 21.921875 38.8125 
z
M 18.3125 54.390625 
Q 18.3125 48.734375 21.84375 45.5625 
Q 25.390625 42.390625 31.78125 42.390625 
Q 38.140625 42.390625 41.71875 45.5625 
Q 45.3125 48.734375 45.3125 54.390625 
Q 45.3125 60.0625 41.71875 63.234375 
Q 38.140625 66.40625 31.78125 66.40625 
Q 25.390625 66.40625 21.84375 63.234375 
Q 18.3125 60.0625 18.3125 54.390625 
z
" id="DejaVuSans-38"/>
      </defs>
      <g transform="translate(366.682846 317.076875)scale(0.2 -0.2)">
       <use xlink:href="#DejaVuSans-38"/>
      </g>
     </g>
    </g>
    <g id="text_6">
     <!-- log10(# f-evals / dimension) -->
     <defs>
      <path d="M 9.421875 75.984375 
L 18.40625 75.984375 
L 18.40625 0 
L 9.421875 0 
z
" id="DejaVuSans-6c"/>
      <path d="M 30.609375 48.390625 
Q 23.390625 48.390625 19.1875 42.75 
Q 14.984375 37.109375 14.984375 27.296875 
Q 14.984375 17.484375 19.15625 11.84375 
Q 23.34375 6.203125 30.609375 6.203125 
Q 37.796875 6.203125 41.984375 11.859375 
Q 46.1875 17.53125 46.1875 27.296875 
Q 46.1875 37.015625 41.984375 42.703125 
Q 37.796875 48.390625 30.609375 48.390625 
z
M 30.609375 56 
Q 42.328125 56 49.015625 48.375 
Q 55.71875 40.765625 55.71875 27.296875 
Q 55.71875 13.875 49.015625 6.21875 
Q 42.328125 -1.421875 30.609375 -1.421875 
Q 18.84375 -1.421875 12.171875 6.21875 
Q 5.515625 13.875 5.515625 27.296875 
Q 5.515625 40.765625 12.171875 48.375 
Q 18.84375 56 30.609375 56 
z
" id="DejaVuSans-6f"/>
      <path d="M 45.40625 27.984375 
Q 45.40625 37.75 41.375 43.109375 
Q 37.359375 48.484375 30.078125 48.484375 
Q 22.859375 48.484375 18.828125 43.109375 
Q 14.796875 37.75 14.796875 27.984375 
Q 14.796875 18.265625 18.828125 12.890625 
Q 22.859375 7.515625 30.078125 7.515625 
Q 37.359375 7.515625 41.375 12.890625 
Q 45.40625 18.265625 45.40625 27.984375 
z
M 54.390625 6.78125 
Q 54.390625 -7.171875 48.1875 -13.984375 
Q 42 -20.796875 29.203125 -20.796875 
Q 24.46875 -20.796875 20.265625 -20.09375 
Q 16.0625 -19.390625 12.109375 -17.921875 
L 12.109375 -9.1875 
Q 16.0625 -11.328125 19.921875 -12.34375 
Q 23.78125 -13.375 27.78125 -13.375 
Q 36.625 -13.375 41.015625 -8.765625 
Q 45.40625 -4.15625 45.40625 5.171875 
L 45.40625 9.625 
Q 42.625 4.78125 38.28125 2.390625 
Q 33.9375 0 27.875 0 
Q 17.828125 0 11.671875 7.65625 
Q 5.515625 15.328125 5.515625 27.984375 
Q 5.515625 40.671875 11.671875 48.328125 
Q 17.828125 56 27.875 56 
Q 33.9375 56 38.28125 53.609375 
Q 42.625 51.21875 45.40625 46.390625 
L 45.40625 54.6875 
L 54.390625 54.6875 
z
" id="DejaVuSans-67"/>
      <path d="M 12.40625 8.296875 
L 28.515625 8.296875 
L 28.515625 63.921875 
L 10.984375 60.40625 
L 10.984375 69.390625 
L 28.421875 72.90625 
L 38.28125 72.90625 
L 38.28125 8.296875 
L 54.390625 8.296875 
L 54.390625 0 
L 12.40625 0 
z
" id="DejaVuSans-31"/>
      <path d="M 31 75.875 
Q 24.46875 64.65625 21.28125 53.65625 
Q 18.109375 42.671875 18.109375 31.390625 
Q 18.109375 20.125 21.3125 9.0625 
Q 24.515625 -2 31 -13.1875 
L 23.1875 -13.1875 
Q 15.875 -1.703125 12.234375 9.375 
Q 8.59375 20.453125 8.59375 31.390625 
Q 8.59375 42.28125 12.203125 53.3125 
Q 15.828125 64.359375 23.1875 75.875 
z
" id="DejaVuSans-28"/>
      <path d="M 51.125 44 
L 36.921875 44 
L 32.8125 27.6875 
L 47.125 27.6875 
z
M 43.796875 71.78125 
L 38.71875 51.515625 
L 52.984375 51.515625 
L 58.109375 71.78125 
L 65.921875 71.78125 
L 60.890625 51.515625 
L 76.125 51.515625 
L 76.125 44 
L 58.984375 44 
L 54.984375 27.6875 
L 70.515625 27.6875 
L 70.515625 20.21875 
L 53.078125 20.21875 
L 48 0 
L 40.1875 0 
L 45.21875 20.21875 
L 30.90625 20.21875 
L 25.875 0 
L 18.015625 0 
L 23.09375 20.21875 
L 7.71875 20.21875 
L 7.71875 27.6875 
L 24.90625 27.6875 
L 29 44 
L 13.28125 44 
L 13.28125 51.515625 
L 30.90625 51.515625 
L 35.890625 71.78125 
z
" id="DejaVuSans-23"/>
      <path id="DejaVuSans-20"/>
      <path d="M 37.109375 75.984375 
L 37.109375 68.5 
L 28.515625 68.5 
Q 23.6875 68.5 21.796875 66.546875 
Q 19.921875 64.59375 19.921875 59.515625 
L 19.921875 54.6875 
L 34.71875 54.6875 
L 34.71875 47.703125 
L 19.921875 47.703125 
L 19.921875 0 
L 10.890625 0 
L 10.890625 47.703125 
L 2.296875 47.703125 
L 2.296875 54.6875 
L 10.890625 54.6875 
L 10.890625 58.5 
Q 10.890625 67.625 15.140625 71.796875 
Q 19.390625 75.984375 28.609375 75.984375 
z
" id="DejaVuSans-66"/>
      <path d="M 4.890625 31.390625 
L 31.203125 31.390625 
L 31.203125 23.390625 
L 4.890625 23.390625 
z
" id="DejaVuSans-2d"/>
      <path d="M 56.203125 29.59375 
L 56.203125 25.203125 
L 14.890625 25.203125 
Q 15.484375 15.921875 20.484375 11.0625 
Q 25.484375 6.203125 34.421875 6.203125 
Q 39.59375 6.203125 44.453125 7.46875 
Q 49.3125 8.734375 54.109375 11.28125 
L 54.109375 2.78125 
Q 49.265625 0.734375 44.1875 -0.34375 
Q 39.109375 -1.421875 33.890625 -1.421875 
Q 20.796875 -1.421875 13.15625 6.1875 
Q 5.515625 13.8125 5.515625 26.8125 
Q 5.515625 40.234375 12.765625 48.109375 
Q 20.015625 56 32.328125 56 
Q 43.359375 56 49.78125 48.890625 
Q 56.203125 41.796875 56.203125 29.59375 
z
M 47.21875 32.234375 
Q 47.125 39.59375 43.09375 43.984375 
Q 39.0625 48.390625 32.421875 48.390625 
Q 24.90625 48.390625 20.390625 44.140625 
Q 15.875 39.890625 15.1875 32.171875 
z
" id="DejaVuSans-65"/>
      <path d="M 2.984375 54.6875 
L 12.5 54.6875 
L 29.59375 8.796875 
L 46.6875 54.6875 
L 56.203125 54.6875 
L 35.6875 0 
L 23.484375 0 
z
" id="DejaVuSans-76"/>
      <path d="M 34.28125 27.484375 
Q 23.390625 27.484375 19.1875 25 
Q 14.984375 22.515625 14.984375 16.5 
Q 14.984375 11.71875 18.140625 8.90625 
Q 21.296875 6.109375 26.703125 6.109375 
Q 34.1875 6.109375 38.703125 11.40625 
Q 43.21875 16.703125 43.21875 25.484375 
L 43.21875 27.484375 
z
M 52.203125 31.203125 
L 52.203125 0 
L 43.21875 0 
L 43.21875 8.296875 
Q 40.140625 3.328125 35.546875 0.953125 
Q 30.953125 -1.421875 24.3125 -1.421875 
Q 15.921875 -1.421875 10.953125 3.296875 
Q 6 8.015625 6 15.921875 
Q 6 25.140625 12.171875 29.828125 
Q 18.359375 34.515625 30.609375 34.515625 
L 43.21875 34.515625 
L 43.21875 35.40625 
Q 43.21875 41.609375 39.140625 45 
Q 35.0625 48.390625 27.6875 48.390625 
Q 23 48.390625 18.546875 47.265625 
Q 14.109375 46.140625 10.015625 43.890625 
L 10.015625 52.203125 
Q 14.9375 54.109375 19.578125 55.046875 
Q 24.21875 56 28.609375 56 
Q 40.484375 56 46.34375 49.84375 
Q 52.203125 43.703125 52.203125 31.203125 
z
" id="DejaVuSans-61"/>
      <path d="M 44.28125 53.078125 
L 44.28125 44.578125 
Q 40.484375 46.53125 36.375 47.5 
Q 32.28125 48.484375 27.875 48.484375 
Q 21.1875 48.484375 17.84375 46.4375 
Q 14.5 44.390625 14.5 40.28125 
Q 14.5 37.15625 16.890625 35.375 
Q 19.28125 33.59375 26.515625 31.984375 
L 29.59375 31.296875 
Q 39.15625 29.25 43.1875 25.515625 
Q 47.21875 21.78125 47.21875 15.09375 
Q 47.21875 7.46875 41.1875 3.015625 
Q 35.15625 -1.421875 24.609375 -1.421875 
Q 20.21875 -1.421875 15.453125 -0.5625 
Q 10.6875 0.296875 5.421875 2 
L 5.421875 11.28125 
Q 10.40625 8.6875 15.234375 7.390625 
Q 20.0625 6.109375 24.8125 6.109375 
Q 31.15625 6.109375 34.5625 8.28125 
Q 37.984375 10.453125 37.984375 14.40625 
Q 37.984375 18.0625 35.515625 20.015625 
Q 33.0625 21.96875 24.703125 23.78125 
L 21.578125 24.515625 
Q 13.234375 26.265625 9.515625 29.90625 
Q 5.8125 33.546875 5.8125 39.890625 
Q 5.8125 47.609375 11.28125 51.796875 
Q 16.75 56 26.8125 56 
Q 31.78125 56 36.171875 55.265625 
Q 40.578125 54.546875 44.28125 53.078125 
z
" id="DejaVuSans-73"/>
      <path d="M 25.390625 72.90625 
L 33.6875 72.90625 
L 8.296875 -9.28125 
L 0 -9.28125 
z
" id="DejaVuSans-2f"/>
      <path d="M 45.40625 46.390625 
L 45.40625 75.984375 
L 54.390625 75.984375 
L 54.390625 0 
L 45.40625 0 
L 45.40625 8.203125 
Q 42.578125 3.328125 38.25 0.953125 
Q 33.9375 -1.421875 27.875 -1.421875 
Q 17.96875 -1.421875 11.734375 6.484375 
Q 5.515625 14.40625 5.515625 27.296875 
Q 5.515625 40.1875 11.734375 48.09375 
Q 17.96875 56 27.875 56 
Q 33.9375 56 38.25 53.625 
Q 42.578125 51.265625 45.40625 46.390625 
z
M 14.796875 27.296875 
Q 14.796875 17.390625 18.875 11.75 
Q 22.953125 6.109375 30.078125 6.109375 
Q 37.203125 6.109375 41.296875 11.75 
Q 45.40625 17.390625 45.40625 27.296875 
Q 45.40625 37.203125 41.296875 42.84375 
Q 37.203125 48.484375 30.078125 48.484375 
Q 22.953125 48.484375 18.875 42.84375 
Q 14.796875 37.203125 14.796875 27.296875 
z
" id="DejaVuSans-64"/>
      <path d="M 9.421875 54.6875 
L 18.40625 54.6875 
L 18.40625 0 
L 9.421875 0 
z
M 9.421875 75.984375 
L 18.40625 75.984375 
L 18.40625 64.59375 
L 9.421875 64.59375 
z
" id="DejaVuSans-69"/>
      <path d="M 52 44.1875 
Q 55.375 50.25 60.0625 53.125 
Q 64.75 56 71.09375 56 
Q 79.640625 56 84.28125 50.015625 
Q 88.921875 44.046875 88.921875 33.015625 
L 88.921875 0 
L 79.890625 0 
L 79.890625 32.71875 
Q 79.890625 40.578125 77.09375 44.375 
Q 74.3125 48.1875 68.609375 48.1875 
Q 61.625 48.1875 57.5625 43.546875 
Q 53.515625 38.921875 53.515625 30.90625 
L 53.515625 0 
L 44.484375 0 
L 44.484375 32.71875 
Q 44.484375 40.625 41.703125 44.40625 
Q 38.921875 48.1875 33.109375 48.1875 
Q 26.21875 48.1875 22.15625 43.53125 
Q 18.109375 38.875 18.109375 30.90625 
L 18.109375 0 
L 9.078125 0 
L 9.078125 54.6875 
L 18.109375 54.6875 
L 18.109375 46.1875 
Q 21.1875 51.21875 25.484375 53.609375 
Q 29.78125 56 35.6875 56 
Q 41.65625 56 45.828125 52.96875 
Q 50 49.953125 52 44.1875 
z
" id="DejaVuSans-6d"/>
      <path d="M 54.890625 33.015625 
L 54.890625 0 
L 45.90625 0 
L 45.90625 32.71875 
Q 45.90625 40.484375 42.875 44.328125 
Q 39.84375 48.1875 33.796875 48.1875 
Q 26.515625 48.1875 22.3125 43.546875 
Q 18.109375 38.921875 18.109375 30.90625 
L 18.109375 0 
L 9.078125 0 
L 9.078125 54.6875 
L 18.109375 54.6875 
L 18.109375 46.1875 
Q 21.34375 51.125 25.703125 53.5625 
Q 30.078125 56 35.796875 56 
Q 45.21875 56 50.046875 50.171875 
Q 54.890625 44.34375 54.890625 33.015625 
z
" id="DejaVuSans-6e"/>
      <path d="M 8.015625 75.875 
L 15.828125 75.875 
Q 23.140625 64.359375 26.78125 53.3125 
Q 30.421875 42.28125 30.421875 31.390625 
Q 30.421875 20.453125 26.78125 9.375 
Q 23.140625 -1.703125 15.828125 -13.1875 
L 8.015625 -13.1875 
Q 14.5 -2 17.703125 9.0625 
Q 20.90625 20.125 20.90625 31.390625 
Q 20.90625 42.671875 17.703125 53.65625 
Q 14.5 64.65625 8.015625 75.875 
z
" id="DejaVuSans-29"/>
     </defs>
     <g transform="translate(107.211219 338.153594)scale(0.17 -0.17)">
      <use xlink:href="#DejaVuSans-6c"/>
      <use x="27.783203" xlink:href="#DejaVuSans-6f"/>
      <use x="88.964844" xlink:href="#DejaVuSans-67"/>
      <use x="152.441406" xlink:href="#DejaVuSans-31"/>
      <use x="216.064453" xlink:href="#DejaVuSans-30"/>
      <use x="279.6875" xlink:href="#DejaVuSans-28"/>
      <use x="318.701172" xlink:href="#DejaVuSans-23"/>
      <use x="402.490234" xlink:href="#DejaVuSans-20"/>
      <use x="434.277344" xlink:href="#DejaVuSans-66"/>
      <use x="469.404297" xlink:href="#DejaVuSans-2d"/>
      <use x="505.488281" xlink:href="#DejaVuSans-65"/>
      <use x="567.011719" xlink:href="#DejaVuSans-76"/>
      <use x="626.191406" xlink:href="#DejaVuSans-61"/>
      <use x="687.470703" xlink:href="#DejaVuSans-6c"/>
      <use x="715.253906" xlink:href="#DejaVuSans-73"/>
      <use x="767.353516" xlink:href="#DejaVuSans-20"/>
      <use x="799.140625" xlink:href="#DejaVuSans-2f"/>
      <use x="832.832031" xlink:href="#DejaVuSans-20"/>
      <use x="864.619141" xlink:href="#DejaVuSans-64"/>
      <use x="928.095703" xlink:href="#DejaVuSans-69"/>
      <use x="955.878906" xlink:href="#DejaVuSans-6d"/>
      <use x="1053.291016" xlink:href="#DejaVuSans-65"/>
      <use x="1114.814453" xlink:href="#DejaVuSans-6e"/>
      <use x="1178.193359" xlink:href="#DejaVuSans-73"/>
      <use x="1230.292969" xlink:href="#DejaVuSans-69"/>
      <use x="1258.076172" xlink:href="#DejaVuSans-6f"/>
      <use x="1319.257812" xlink:href="#DejaVuSans-6e"/>
      <use x="1382.636719" xlink:href="#DejaVuSans-29"/>
     </g>
    </g>
   </g>
   <g id="matplotlib.axis_2">
    <g id="ytick_1">
     <g id="line2d_15">
      <path clip-path="url(#p35c42608f2)" d="M 56.12 294.88 
L 399.984 294.88 
" style="fill:none;stroke:#b0b0b0;stroke-linecap:square;stroke-width:0.8;"/>
     </g>
     <g id="line2d_16">
      <defs>
       <path d="M 0 0 
L -3.5 0 
" id="m146facf833" style="stroke:#000000;stroke-width:0.8;"/>
      </defs>
      <g>
       <use style="stroke:#000000;stroke-width:0.8;" x="56.12" xlink:href="#m146facf833" y="294.88"/>
      </g>
     </g>
     <g id="text_7">
      <!-- 0.0 -->
      <defs>
       <path d="M 10.6875 12.40625 
L 21 12.40625 
L 21 0 
L 10.6875 0 
z
" id="DejaVuSans-2e"/>
      </defs>
      <g transform="translate(23.675 300.95875)scale(0.16 -0.16)">
       <use xlink:href="#DejaVuSans-30"/>
       <use x="63.623047" xlink:href="#DejaVuSans-2e"/>
       <use x="95.410156" xlink:href="#DejaVuSans-30"/>
      </g>
     </g>
    </g>
    <g id="ytick_2">
     <g id="line2d_17">
      <path clip-path="url(#p35c42608f2)" d="M 56.12 241.406733 
L 399.984 241.406733 
" style="fill:none;stroke:#b0b0b0;stroke-linecap:square;stroke-width:0.8;"/>
     </g>
     <g id="line2d_18">
      <g>
       <use style="stroke:#000000;stroke-width:0.8;" x="56.12" xlink:href="#m146facf833" y="241.406733"/>
      </g>
     </g>
     <g id="text_8">
      <!-- 0.2 -->
      <g transform="translate(23.675 247.485483)scale(0.16 -0.16)">
       <use xlink:href="#DejaVuSans-30"/>
       <use x="63.623047" xlink:href="#DejaVuSans-2e"/>
       <use x="95.410156" xlink:href="#DejaVuSans-32"/>
      </g>
     </g>
    </g>
    <g id="ytick_3">
     <g id="line2d_19">
      <path clip-path="url(#p35c42608f2)" d="M 56.12 187.933465 
L 399.984 187.933465 
" style="fill:none;stroke:#b0b0b0;stroke-linecap:square;stroke-width:0.8;"/>
     </g>
     <g id="line2d_20">
      <g>
       <use style="stroke:#000000;stroke-width:0.8;" x="56.12" xlink:href="#m146facf833" y="187.933465"/>
      </g>
     </g>
     <g id="text_9">
      <!-- 0.4 -->
      <g transform="translate(23.675 194.012215)scale(0.16 -0.16)">
       <use xlink:href="#DejaVuSans-30"/>
       <use x="63.623047" xlink:href="#DejaVuSans-2e"/>
       <use x="95.410156" xlink:href="#DejaVuSans-34"/>
      </g>
     </g>
    </g>
    <g id="ytick_4">
     <g id="line2d_21">
      <path clip-path="url(#p35c42608f2)" d="M 56.12 134.460198 
L 399.984 134.460198 
" style="fill:none;stroke:#b0b0b0;stroke-linecap:square;stroke-width:0.8;"/>
     </g>
     <g id="line2d_22">
      <g>
       <use style="stroke:#000000;stroke-width:0.8;" x="56.12" xlink:href="#m146facf833" y="134.460198"/>
      </g>
     </g>
     <g id="text_10">
      <!-- 0.6 -->
      <g transform="translate(23.675 140.538948)scale(0.16 -0.16)">
       <use xlink:href="#DejaVuSans-30"/>
       <use x="63.623047" xlink:href="#DejaVuSans-2e"/>
       <use x="95.410156" xlink:href="#DejaVuSans-36"/>
      </g>
     </g>
    </g>
    <g id="ytick_5">
     <g id="line2d_23">
      <path clip-path="url(#p35c42608f2)" d="M 56.12 80.986931 
L 399.984 80.986931 
" style="fill:none;stroke:#b0b0b0;stroke-linecap:square;stroke-width:0.8;"/>
     </g>
     <g id="line2d_24">
      <g>
       <use style="stroke:#000000;stroke-width:0.8;" x="56.12" xlink:href="#m146facf833" y="80.986931"/>
      </g>
     </g>
     <g id="text_11">
      <!-- 0.8 -->
      <g transform="translate(23.675 87.065681)scale(0.16 -0.16)">
       <use xlink:href="#DejaVuSans-30"/>
       <use x="63.623047" xlink:href="#DejaVuSans-2e"/>
       <use x="95.410156" xlink:href="#DejaVuSans-38"/>
      </g>
     </g>
    </g>
    <g id="ytick_6">
     <g id="line2d_25">
      <path clip-path="url(#p35c42608f2)" d="M 56.12 27.513663 
L 399.984 27.513663 
" style="fill:none;stroke:#b0b0b0;stroke-linecap:square;stroke-width:0.8;"/>
     </g>
     <g id="line2d_26">
      <g>
       <use style="stroke:#000000;stroke-width:0.8;" x="56.12" xlink:href="#m146facf833" y="27.513663"/>
      </g>
     </g>
     <g id="text_12">
      <!-- 1.0 -->
      <g transform="translate(23.675 33.592413)scale(0.16 -0.16)">
       <use xlink:href="#DejaVuSans-31"/>
       <use x="63.623047" xlink:href="#DejaVuSans-2e"/>
       <use x="95.410156" xlink:href="#DejaVuSans-30"/>
      </g>
     </g>
    </g>
    <g id="text_13">
     <!-- Fraction of function,target pairs -->
     <defs>
      <path d="M 9.8125 72.90625 
L 51.703125 72.90625 
L 51.703125 64.59375 
L 19.671875 64.59375 
L 19.671875 43.109375 
L 48.578125 43.109375 
L 48.578125 34.8125 
L 19.671875 34.8125 
L 19.671875 0 
L 9.8125 0 
z
" id="DejaVuSans-46"/>
      <path d="M 41.109375 46.296875 
Q 39.59375 47.171875 37.8125 47.578125 
Q 36.03125 48 33.890625 48 
Q 26.265625 48 22.1875 43.046875 
Q 18.109375 38.09375 18.109375 28.8125 
L 18.109375 0 
L 9.078125 0 
L 9.078125 54.6875 
L 18.109375 54.6875 
L 18.109375 46.1875 
Q 20.953125 51.171875 25.484375 53.578125 
Q 30.03125 56 36.53125 56 
Q 37.453125 56 38.578125 55.875 
Q 39.703125 55.765625 41.0625 55.515625 
z
" id="DejaVuSans-72"/>
      <path d="M 48.78125 52.59375 
L 48.78125 44.1875 
Q 44.96875 46.296875 41.140625 47.34375 
Q 37.3125 48.390625 33.40625 48.390625 
Q 24.65625 48.390625 19.8125 42.84375 
Q 14.984375 37.3125 14.984375 27.296875 
Q 14.984375 17.28125 19.8125 11.734375 
Q 24.65625 6.203125 33.40625 6.203125 
Q 37.3125 6.203125 41.140625 7.25 
Q 44.96875 8.296875 48.78125 10.40625 
L 48.78125 2.09375 
Q 45.015625 0.34375 40.984375 -0.53125 
Q 36.96875 -1.421875 32.421875 -1.421875 
Q 20.0625 -1.421875 12.78125 6.34375 
Q 5.515625 14.109375 5.515625 27.296875 
Q 5.515625 40.671875 12.859375 48.328125 
Q 20.21875 56 33.015625 56 
Q 37.15625 56 41.109375 55.140625 
Q 45.0625 54.296875 48.78125 52.59375 
z
" id="DejaVuSans-63"/>
      <path d="M 18.3125 70.21875 
L 18.3125 54.6875 
L 36.8125 54.6875 
L 36.8125 47.703125 
L 18.3125 47.703125 
L 18.3125 18.015625 
Q 18.3125 11.328125 20.140625 9.421875 
Q 21.96875 7.515625 27.59375 7.515625 
L 36.8125 7.515625 
L 36.8125 0 
L 27.59375 0 
Q 17.1875 0 13.234375 3.875 
Q 9.28125 7.765625 9.28125 18.015625 
L 9.28125 47.703125 
L 2.6875 47.703125 
L 2.6875 54.6875 
L 9.28125 54.6875 
L 9.28125 70.21875 
z
" id="DejaVuSans-74"/>
      <path d="M 8.5 21.578125 
L 8.5 54.6875 
L 17.484375 54.6875 
L 17.484375 21.921875 
Q 17.484375 14.15625 20.5 10.265625 
Q 23.53125 6.390625 29.59375 6.390625 
Q 36.859375 6.390625 41.078125 11.03125 
Q 45.3125 15.671875 45.3125 23.6875 
L 45.3125 54.6875 
L 54.296875 54.6875 
L 54.296875 0 
L 45.3125 0 
L 45.3125 8.40625 
Q 42.046875 3.421875 37.71875 1 
Q 33.40625 -1.421875 27.6875 -1.421875 
Q 18.265625 -1.421875 13.375 4.4375 
Q 8.5 10.296875 8.5 21.578125 
z
M 31.109375 56 
z
" id="DejaVuSans-75"/>
      <path d="M 11.71875 12.40625 
L 22.015625 12.40625 
L 22.015625 4 
L 14.015625 -11.625 
L 7.71875 -11.625 
L 11.71875 4 
z
" id="DejaVuSans-2c"/>
      <path d="M 18.109375 8.203125 
L 18.109375 -20.796875 
L 9.078125 -20.796875 
L 9.078125 54.6875 
L 18.109375 54.6875 
L 18.109375 46.390625 
Q 20.953125 51.265625 25.265625 53.625 
Q 29.59375 56 35.59375 56 
Q 45.5625 56 51.78125 48.09375 
Q 58.015625 40.1875 58.015625 27.296875 
Q 58.015625 14.40625 51.78125 6.484375 
Q 45.5625 -1.421875 35.59375 -1.421875 
Q 29.59375 -1.421875 25.265625 0.953125 
Q 20.953125 3.328125 18.109375 8.203125 
z
M 48.6875 27.296875 
Q 48.6875 37.203125 44.609375 42.84375 
Q 40.53125 48.484375 33.40625 48.484375 
Q 26.265625 48.484375 22.1875 42.84375 
Q 18.109375 37.203125 18.109375 27.296875 
Q 18.109375 17.390625 22.1875 11.75 
Q 26.265625 6.109375 33.40625 6.109375 
Q 40.53125 6.109375 44.609375 11.75 
Q 48.6875 17.390625 48.6875 27.296875 
z
" id="DejaVuSans-70"/>
     </defs>
     <g transform="translate(16.139531 294.999375)rotate(-90)scale(0.17 -0.17)">
      <use xlink:href="#DejaVuSans-46"/>
      <use x="57.410156" xlink:href="#DejaVuSans-72"/>
      <use x="98.523438" xlink:href="#DejaVuSans-61"/>
      <use x="159.802734" xlink:href="#DejaVuSans-63"/>
      <use x="214.783203" xlink:href="#DejaVuSans-74"/>
      <use x="253.992188" xlink:href="#DejaVuSans-69"/>
      <use x="281.775391" xlink:href="#DejaVuSans-6f"/>
      <use x="342.957031" xlink:href="#DejaVuSans-6e"/>
      <use x="406.335938" xlink:href="#DejaVuSans-20"/>
      <use x="438.123047" xlink:href="#DejaVuSans-6f"/>
      <use x="499.304688" xlink:href="#DejaVuSans-66"/>
      <use x="534.509766" xlink:href="#DejaVuSans-20"/>
      <use x="566.296875" xlink:href="#DejaVuSans-66"/>
      <use x="601.501953" xlink:href="#DejaVuSans-75"/>
      <use x="664.880859" xlink:href="#DejaVuSans-6e"/>
      <use x="728.259766" xlink:href="#DejaVuSans-63"/>
      <use x="783.240234" xlink:href="#DejaVuSans-74"/>
      <use x="822.449219" xlink:href="#DejaVuSans-69"/>
      <use x="850.232422" xlink:href="#DejaVuSans-6f"/>
      <use x="911.414062" xlink:href="#DejaVuSans-6e"/>
      <use x="974.792969" xlink:href="#DejaVuSans-2c"/>
      <use x="1006.580078" xlink:href="#DejaVuSans-74"/>
      <use x="1045.789062" xlink:href="#DejaVuSans-61"/>
      <use x="1107.068359" xlink:href="#DejaVuSans-72"/>
      <use x="1148.166016" xlink:href="#DejaVuSans-67"/>
      <use x="1211.642578" xlink:href="#DejaVuSans-65"/>
      <use x="1273.166016" xlink:href="#DejaVuSans-74"/>
      <use x="1312.375" xlink:href="#DejaVuSans-20"/>
      <use x="1344.162109" xlink:href="#DejaVuSans-70"/>
      <use x="1407.638672" xlink:href="#DejaVuSans-61"/>
      <use x="1468.917969" xlink:href="#DejaVuSans-69"/>
      <use x="1496.701172" xlink:href="#DejaVuSans-72"/>
      <use x="1537.814453" xlink:href="#DejaVuSans-73"/>
     </g>
    </g>
   </g>
   <g id="line2d_27">
    <defs>
     <path d="M 0 1.5 
C 0.397805 1.5 0.77937 1.341951 1.06066 1.06066 
C 1.341951 0.77937 1.5 0.397805 1.5 0 
C 1.5 -0.397805 1.341951 -0.77937 1.06066 -1.06066 
C 0.77937 -1.341951 0.397805 -1.5 0 -1.5 
C -0.397805 -1.5 -0.77937 -1.341951 -1.06066 -1.06066 
C -1.341951 -0.77937 -1.5 -0.397805 -1.5 0 
C -1.5 0.397805 -1.341951 0.77937 -1.06066 1.06066 
C -0.77937 1.341951 -0.397805 1.5 0 1.5 
z
" id="m3822b9a8dd" style="stroke:#f5deb3;"/>
    </defs>
    <g>
     <use style="fill:#f5deb3;stroke:#f5deb3;" x="139.732422" xlink:href="#m3822b9a8dd" y="27.513663"/>
     <use style="fill:#f5deb3;stroke:#f5deb3;" x="139.732422" xlink:href="#m3822b9a8dd" y="27.513663"/>
    </g>
   </g>
   <g id="line2d_28">
    <defs>
     <path d="M 0 1.5 
C 0.397805 1.5 0.77937 1.341951 1.06066 1.06066 
C 1.341951 0.77937 1.5 0.397805 1.5 0 
C 1.5 -0.397805 1.341951 -0.77937 1.06066 -1.06066 
C 0.77937 -1.341951 0.397805 -1.5 0 -1.5 
C -0.397805 -1.5 -0.77937 -1.341951 -1.06066 -1.06066 
C -1.341951 -0.77937 -1.5 -0.397805 -1.5 0 
C -1.5 0.397805 -1.341951 0.77937 -1.06066 1.06066 
C -0.77937 1.341951 -0.397805 1.5 0 1.5 
z
" id="mf22864c01a" style="stroke:#000080;"/>
    </defs>
    <g>
     <use style="fill:#000080;stroke:#000080;" x="196.228127" xlink:href="#mf22864c01a" y="27.513663"/>
     <use style="fill:#000080;stroke:#000080;" x="196.228127" xlink:href="#mf22864c01a" y="27.513663"/>
    </g>
   </g>
   <g id="line2d_29">
    <path d="M 44.194496 294.88 
L 44.194496 286.492036 
L 56.12 286.492036 
L 56.12 281.773807 
L 63.095973 281.773807 
L 63.095973 274.958587 
L 68.045504 274.958587 
L 68.045504 274.434339 
L 71.884659 274.434339 
L 71.884659 273.385844 
L 75.021477 273.385844 
L 75.021477 271.8131 
L 77.673619 271.8131 
L 77.673619 266.570623 
L 79.971009 266.570623 
L 79.971009 264.473632 
L 83.810164 264.473632 
L 83.810164 262.900889 
L 85.449963 262.900889 
L 85.449963 261.328146 
L 86.946982 261.328146 
L 86.946982 260.279651 
L 89.599124 260.279651 
L 89.599124 259.231155 
L 90.786137 259.231155 
L 90.786137 258.706907 
L 93.922955 258.706907 
L 93.922955 257.134164 
L 96.575096 257.134164 
L 96.575096 253.988678 
L 97.375467 253.988678 
L 97.375467 250.318944 
L 98.140254 250.318944 
L 98.140254 246.64921 
L 100.24961 246.64921 
L 100.24961 245.076467 
L 104.35144 245.076467 
L 104.35144 244.027971 
L 104.865056 244.027971 
L 104.865056 243.503724 
L 105.848459 243.503724 
L 105.848459 240.358237 
L 107.661173 240.358237 
L 107.661173 238.785494 
L 115.747522 238.785494 
L 115.747522 237.736999 
L 117.533332 237.736999 
L 117.533332 236.164255 
L 123.425832 236.164255 
L 123.425832 235.640008 
L 124.58989 235.640008 
L 124.58989 235.11576 
L 126.70543 235.11576 
L 126.70543 233.543017 
L 126.987483 233.543017 
L 126.987483 233.018769 
L 127.806917 233.018769 
L 127.806917 232.494521 
L 130.05422 232.494521 
L 130.05422 231.446026 
L 133.538623 231.446026 
L 133.538623 228.30054 
L 136.434809 228.30054 
L 136.434809 227.252044 
L 136.675441 227.252044 
L 136.675441 226.203549 
L 136.912753 226.203549 
L 136.912753 225.679301 
L 137.530034 225.679301 
L 137.530034 225.155053 
L 138.271738 225.155053 
L 138.271738 223.58231 
L 139.190491 223.58231 
L 139.190491 222.009567 
L 140.89274 222.009567 
L 140.89274 220.961072 
L 141.262751 220.961072 
L 141.262751 219.912576 
L 142.038145 219.912576 
L 142.038145 218.339833 
L 151.115996 218.339833 
L 151.115996 217.815585 
L 152.183306 217.815585 
L 152.183306 216.76709 
L 152.849384 216.76709 
L 152.849384 208.903374 
L 156.632447 208.903374 
L 156.632447 207.854879 
L 156.978533 207.854879 
L 156.978533 207.330631 
L 157.124751 207.330631 
L 157.124751 206.282136 
L 159.479677 206.282136 
L 159.479677 205.757888 
L 161.774421 205.757888 
L 161.792931 203.660897 
L 162.086411 203.660897 
L 162.086411 201.039658 
L 162.392845 201.039658 
L 162.392845 197.369924 
L 164.060232 197.369924 
L 164.060232 196.845677 
L 165.174662 196.845677 
L 165.174662 196.321429 
L 165.742729 196.321429 
L 165.742729 195.797181 
L 165.990915 195.797181 
L 165.990915 195.272933 
L 166.866886 195.272933 
L 166.866886 188.457713 
L 167.045034 188.457713 
L 167.045034 186.88497 
L 169.315136 186.88497 
L 169.315136 186.360722 
L 170.188667 186.360722 
L 170.188667 182.690988 
L 170.358175 182.690988 
L 170.358175 182.16674 
L 171.04161 182.16674 
L 171.04161 180.593997 
L 171.21366 180.593997 
L 171.21366 178.497006 
L 172.855404 178.497006 
L 172.855404 177.448511 
L 173.699926 177.448511 
L 173.699926 175.35152 
L 174.984201 175.35152 
L 174.984201 163.81807 
L 175.641792 163.81807 
L 175.641792 161.721079 
L 176.026228 161.721079 
L 176.026228 154.381611 
L 176.362647 154.381611 
L 176.362647 148.090639 
L 177.311643 148.090639 
L 177.311643 147.566391 
L 177.453678 147.566391 
L 177.527965 142.323914 
L 177.712292 142.323914 
L 177.712292 141.799666 
L 177.829233 141.799666 
L 177.829233 141.275418 
L 177.952618 141.275418 
L 178.031986 122.926748 
L 178.388207 122.926748 
L 178.388207 108.77206 
L 178.626292 108.77206 
L 178.626292 108.247812 
L 178.984166 108.247812 
L 178.997783 100.384096 
L 179.776176 100.384096 
L 179.776176 94.093124 
L 180.762108 94.093124 
L 180.762108 93.568876 
L 181.048405 93.568876 
L 181.048405 92.520381 
L 182.062992 92.520381 
L 182.062992 86.229408 
L 183.504394 86.229408 
L 183.572346 83.608169 
L 184.091332 83.608169 
L 184.091332 83.083922 
L 184.39736 83.083922 
L 184.39736 73.123215 
L 184.521226 73.123215 
L 184.575445 72.074719 
L 185.108446 72.074719 
L 185.122754 49.00782 
L 185.772954 49.00782 
L 185.772954 48.483572 
L 185.910118 48.483572 
L 185.910118 47.959324 
L 186.028116 47.959324 
L 186.028116 47.435077 
L 186.645576 47.435077 
L 186.645576 46.386581 
L 186.832186 46.386581 
L 186.832186 45.862334 
L 187.135948 45.862334 
L 187.148666 43.765343 
L 187.41776 43.765343 
L 187.459428 42.192599 
L 188.00423 42.192599 
L 188.012292 41.144104 
L 188.668623 41.144104 
L 188.668623 38.522865 
L 189.188286 38.522865 
L 189.225884 34.853131 
L 189.479395 34.853131 
L 189.479395 34.328884 
L 190.930092 34.328884 
L 190.930092 32.231893 
L 191.462606 32.231893 
L 191.502135 30.65915 
L 192.718297 30.65915 
L 192.718297 29.610654 
L 193.646257 29.610654 
L 193.646257 29.086407 
L 194.512913 29.086407 
L 194.512913 28.562159 
L 196.228127 28.562159 
L 196.228127 27.513663 
L 333.429677 27.513663 
L 333.429677 27.513663 
" style="fill:none;stroke:#000080;stroke-linecap:square;stroke-width:1.5;"/>
   </g>
   <g id="line2d_30">
    <defs>
     <path d="M 0 6 
C 1.591219 6 3.117479 5.367802 4.242641 4.242641 
C 5.367802 3.117479 6 1.591219 6 0 
C 6 -1.591219 5.367802 -3.117479 4.242641 -4.242641 
C 3.117479 -5.367802 1.591219 -6 0 -6 
C -1.591219 -6 -3.117479 -5.367802 -4.242641 -4.242641 
C -5.367802 -3.117479 -6 -1.591219 -6 0 
C -6 1.591219 -5.367802 3.117479 -4.242641 4.242641 
C -3.117479 5.367802 -1.591219 6 0 6 
z
" id="m78400b223c" style="stroke:#000080;stroke-width:1.5;"/>
    </defs>
    <g>
     <use style="fill-opacity:0;stroke:#000080;stroke-width:1.5;" x="77.673619" xlink:href="#m78400b223c" y="266.570623"/>
     <use style="fill-opacity:0;stroke:#000080;stroke-width:1.5;" x="164.060232" xlink:href="#m78400b223c" y="197.369924"/>
     <use style="fill-opacity:0;stroke:#000080;stroke-width:1.5;" x="179.776176" xlink:href="#m78400b223c" y="100.384096"/>
     <use style="fill-opacity:0;stroke:#000080;stroke-width:1.5;" x="196.228127" xlink:href="#m78400b223c" y="27.513663"/>
     <use style="fill-opacity:0;stroke:#000080;stroke-width:1.5;" x="196.228127" xlink:href="#m78400b223c" y="27.513663"/>
     <use style="fill-opacity:0;stroke:#000080;stroke-width:1.5;" x="333.429677" xlink:href="#m78400b223c" y="27.513663"/>
    </g>
   </g>
   <g id="line2d_31">
    <path style="fill:none;stroke:#000080;stroke-linecap:square;stroke-width:1.5;"/>
    <g/>
   </g>
   <g id="line2d_32">
    <defs>
     <path d="M 0 1.5 
C 0.397805 1.5 0.77937 1.341951 1.06066 1.06066 
C 1.341951 0.77937 1.5 0.397805 1.5 0 
C 1.5 -0.397805 1.341951 -0.77937 1.06066 -1.06066 
C 0.77937 -1.341951 0.397805 -1.5 0 -1.5 
C -0.397805 -1.5 -0.77937 -1.341951 -1.06066 -1.06066 
C -1.341951 -0.77937 -1.5 -0.397805 -1.5 0 
C -1.5 0.397805 -1.341951 0.77937 -1.06066 1.06066 
C -0.77937 1.341951 -0.397805 1.5 0 1.5 
z
" id="m8d0b6fd5a4" style="stroke:#ff00ff;"/>
    </defs>
    <g>
     <use style="fill:#ff00ff;stroke:#ff00ff;" x="256.985014" xlink:href="#m8d0b6fd5a4" y="27.513663"/>
     <use style="fill:#ff00ff;stroke:#ff00ff;" x="256.985014" xlink:href="#m8d0b6fd5a4" y="27.513663"/>
    </g>
   </g>
   <g id="line2d_33">
    <path d="M 44.194496 294.88 
L 44.194496 287.540532 
L 75.021477 287.540532 
L 75.021477 287.016284 
L 104.35144 287.016284 
L 104.35144 286.492036 
L 105.363783 286.492036 
L 105.363783 283.870798 
L 107.225583 283.870798 
L 107.225583 283.34655 
L 107.661173 283.34655 
L 107.661173 282.822302 
L 108.90544 282.822302 
L 108.90544 281.249559 
L 109.300972 281.249559 
L 109.300972 280.725312 
L 113.754651 280.725312 
L 113.754651 280.201064 
L 115.747522 280.201064 
L 115.747522 279.152568 
L 119.586677 279.152568 
L 119.586677 278.104073 
L 122.543338 278.104073 
L 122.543338 277.055578 
L 123.078247 277.055578 
L 123.078247 274.434339 
L 127.264987 274.434339 
L 127.264987 272.337348 
L 134.648999 272.337348 
L 134.648999 270.764605 
L 140.641569 270.764605 
L 140.641569 269.716109 
L 145.368278 269.716109 
L 145.368278 268.667614 
L 146.074459 268.667614 
L 146.074459 268.143366 
L 150.305791 268.143366 
L 150.305791 266.046375 
L 150.768411 266.046375 
L 150.838492 262.900889 
L 151.115996 262.900889 
L 151.218916 260.803898 
L 151.955424 260.803898 
L 151.955424 259.755403 
L 152.150936 259.755403 
L 152.150936 258.706907 
L 152.693117 258.706907 
L 152.693117 257.134164 
L 157.674016 257.134164 
L 157.674016 256.085669 
L 161.829891 256.085669 
L 161.829891 255.561421 
L 164.867972 255.561421 
L 164.867972 255.037173 
L 165.669046 255.037173 
L 165.669046 253.988678 
L 165.830733 253.988678 
L 165.830733 253.46443 
L 166.292637 253.46443 
L 166.292637 250.318944 
L 169.207268 250.318944 
L 169.207268 249.794696 
L 169.350942 249.794696 
L 169.350942 249.270448 
L 173.363298 249.270448 
L 173.363298 246.124962 
L 176.598981 246.124962 
L 176.677043 244.027971 
L 176.793477 244.027971 
L 176.793477 243.503724 
L 178.25371 243.503724 
L 178.331705 240.882485 
L 178.74411 240.882485 
L 178.74411 239.83399 
L 178.874842 239.83399 
L 178.874842 239.309742 
L 179.065706 239.309742 
L 179.065706 238.261246 
L 180.111137 238.261246 
L 180.111137 237.736999 
L 182.136869 237.736999 
L 182.136869 237.212751 
L 182.983317 237.212751 
L 182.983317 236.688503 
L 183.107035 236.688503 
L 183.107035 236.164255 
L 183.293612 236.164255 
L 183.320102 233.018769 
L 184.61968 233.018769 
L 184.61968 232.494521 
L 185.213093 232.494521 
L 185.213093 231.970274 
L 185.513951 231.970274 
L 185.513951 230.921778 
L 186.221507 230.921778 
L 186.221507 230.397531 
L 186.978319 230.397531 
L 187.042397 228.824787 
L 189.2409 228.824787 
L 189.2409 228.30054 
L 192.418321 228.30054 
L 192.418321 226.203549 
L 193.276309 226.203549 
L 193.276309 225.155053 
L 200.520262 225.155053 
L 200.520262 224.106558 
L 201.544956 224.106558 
L 201.59261 222.533815 
L 202.133122 222.533815 
L 202.219814 220.436824 
L 202.290261 220.436824 
L 202.30256 211.524613 
L 202.607202 211.524613 
L 202.664049 209.95187 
L 203.162383 209.95187 
L 203.162383 207.330631 
L 203.674279 207.330631 
L 203.716392 201.563906 
L 206.545802 201.563906 
L 206.545802 199.991163 
L 209.163402 199.991163 
L 209.163402 198.942667 
L 215.378624 198.942667 
L 215.378624 196.321429 
L 215.5795 196.321429 
L 215.5795 193.175943 
L 217.290517 193.175943 
L 217.375563 178.497006 
L 218.076349 178.497006 
L 218.076349 177.972759 
L 218.532272 177.972759 
L 218.560284 174.303025 
L 224.71457 174.303025 
L 224.775091 162.245327 
L 224.969974 162.245327 
L 224.973736 160.148336 
L 226.407233 160.148336 
L 226.495269 152.28462 
L 227.214368 152.28462 
L 227.214368 151.760373 
L 228.697483 151.760373 
L 228.697483 150.18763 
L 228.985915 150.18763 
L 229.059128 137.081437 
L 232.022131 137.081437 
L 232.031806 135.508693 
L 233.92604 135.508693 
L 233.979894 127.12073 
L 235.236455 127.12073 
L 235.286882 111.917546 
L 235.430626 111.917546 
L 235.430626 110.344803 
L 236.612603 110.344803 
L 236.648903 103.005335 
L 237.153634 103.005335 
L 237.246976 93.568876 
L 237.270692 93.568876 
L 237.271613 91.996133 
L 239.56394 91.996133 
L 239.56394 90.947637 
L 239.688549 90.947637 
L 239.745635 76.792949 
L 241.815175 76.792949 
L 241.815175 75.744454 
L 245.480193 75.744454 
L 245.514855 64.211004 
L 247.985434 64.211004 
L 248.035724 56.871536 
L 253.532347 56.871536 
L 253.538784 47.959324 
L 255.291423 47.959324 
L 255.318366 37.47437 
L 256.96913 37.47437 
L 256.985014 27.513663 
L 333.429677 27.513663 
L 333.429677 27.513663 
" style="fill:none;stroke:#ff00ff;stroke-linecap:square;stroke-width:1.5;"/>
   </g>
   <g id="line2d_34">
    <defs>
     <path d="M -0 8.485281 
L 5.091169 0 
L 0 -8.485281 
L -5.091169 -0 
z
" id="m9d140424fd" style="stroke:#ff00ff;stroke-linejoin:miter;stroke-width:1.5;"/>
    </defs>
    <g>
     <use style="fill-opacity:0;stroke:#ff00ff;stroke-linejoin:miter;stroke-width:1.5;" x="152.693117" xlink:href="#m9d140424fd" y="258.706907"/>
     <use style="fill-opacity:0;stroke:#ff00ff;stroke-linejoin:miter;stroke-width:1.5;" x="209.163402" xlink:href="#m9d140424fd" y="199.991163"/>
     <use style="fill-opacity:0;stroke:#ff00ff;stroke-linejoin:miter;stroke-width:1.5;" x="253.538784" xlink:href="#m9d140424fd" y="51.104811"/>
     <use style="fill-opacity:0;stroke:#ff00ff;stroke-linejoin:miter;stroke-width:1.5;" x="256.985014" xlink:href="#m9d140424fd" y="27.513663"/>
     <use style="fill-opacity:0;stroke:#ff00ff;stroke-linejoin:miter;stroke-width:1.5;" x="256.985014" xlink:href="#m9d140424fd" y="27.513663"/>
     <use style="fill-opacity:0;stroke:#ff00ff;stroke-linejoin:miter;stroke-width:1.5;" x="333.429677" xlink:href="#m9d140424fd" y="27.513663"/>
    </g>
   </g>
   <g id="line2d_35">
    <path style="fill:none;stroke:#ff00ff;stroke-linecap:square;stroke-width:1.5;"/>
    <g/>
   </g>
   <g id="line2d_36">
    <defs>
     <path d="M 0 1.5 
C 0.397805 1.5 0.77937 1.341951 1.06066 1.06066 
C 1.341951 0.77937 1.5 0.397805 1.5 0 
C 1.5 -0.397805 1.341951 -0.77937 1.06066 -1.06066 
C 0.77937 -1.341951 0.397805 -1.5 0 -1.5 
C -0.397805 -1.5 -0.77937 -1.341951 -1.06066 -1.06066 
C -1.341951 -0.77937 -1.5 -0.397805 -1.5 0 
C -1.5 0.397805 -1.341951 0.77937 -1.06066 1.06066 
C -0.77937 1.341951 -0.397805 1.5 0 1.5 
z
" id="mbfac293076" style="stroke:#ffa500;"/>
    </defs>
    <g>
     <use style="fill:#ffa500;stroke:#ffa500;" x="256.134853" xlink:href="#mbfac293076" y="27.513663"/>
     <use style="fill:#ffa500;stroke:#ffa500;" x="256.134853" xlink:href="#mbfac293076" y="27.513663"/>
    </g>
   </g>
   <g id="line2d_37">
    <path d="M 44.194496 294.88 
L 44.194496 286.492036 
L 56.12 286.492036 
L 56.12 283.870798 
L 63.095973 283.870798 
L 63.095973 276.007082 
L 68.045504 276.007082 
L 68.045504 267.094871 
L 71.884659 267.094871 
L 71.884659 266.570623 
L 75.021477 266.570623 
L 75.021477 266.046375 
L 77.673619 266.046375 
L 77.673619 264.99788 
L 85.449963 264.99788 
L 85.449963 263.425137 
L 86.946982 263.425137 
L 86.946982 261.852394 
L 88.324106 261.852394 
L 88.324106 253.988678 
L 89.599124 253.988678 
L 89.599124 252.415935 
L 96.575096 252.415935 
L 96.575096 251.891687 
L 98.140254 251.891687 
L 98.140254 246.124962 
L 98.872486 246.124962 
L 98.872486 242.979476 
L 102.711641 242.979476 
L 102.711641 242.455228 
L 103.275786 242.455228 
L 103.275786 241.93098 
L 103.822018 241.93098 
L 103.822018 238.785494 
L 107.225583 238.785494 
L 107.225583 236.164255 
L 109.300972 236.164255 
L 109.300972 235.11576 
L 110.43577 235.11576 
L 110.43577 233.543017 
L 111.841029 233.543017 
L 111.841029 233.018769 
L 119.800405 233.018769 
L 119.800405 232.494521 
L 120.830944 232.494521 
L 120.830944 231.446026 
L 123.252917 231.446026 
L 123.252917 230.921778 
L 125.680156 230.921778 
L 125.680156 230.397531 
L 129.214792 230.397531 
L 129.214792 228.824787 
L 132.856187 228.824787 
L 132.856187 227.776292 
L 134.648999 227.776292 
L 134.648999 226.727797 
L 135.943208 226.727797 
L 135.943208 225.679301 
L 137.377778 225.679301 
L 137.377778 225.155053 
L 144.531253 225.155053 
L 144.531253 224.106558 
L 146.929256 224.106558 
L 146.929256 220.961072 
L 149.072341 220.961072 
L 149.072341 218.864081 
L 150.341822 218.864081 
L 150.341822 216.76709 
L 153.157724 216.76709 
L 153.157724 215.194347 
L 156.151337 215.194347 
L 156.151337 214.145851 
L 160.265613 214.145851 
L 160.265613 212.573108 
L 161.094448 212.573108 
L 161.094448 211.524613 
L 162.446359 211.524613 
L 162.446359 208.379126 
L 165.595046 208.379126 
L 165.595046 207.854879 
L 169.207268 207.854879 
L 169.207268 205.757888 
L 170.086155 205.757888 
L 170.086155 204.709392 
L 170.867822 204.709392 
L 170.867822 204.185145 
L 171.833627 204.185145 
L 171.833627 203.136649 
L 173.259112 203.136649 
L 173.259112 202.612401 
L 174.093563 202.612401 
L 174.093563 202.088154 
L 174.416332 202.088154 
L 174.416332 195.797181 
L 176.034315 195.797181 
L 176.034315 194.748686 
L 176.354713 194.748686 
L 176.354713 194.224438 
L 177.069743 194.224438 
L 177.069743 193.175943 
L 177.865614 193.175943 
L 177.865614 191.603199 
L 178.082303 191.603199 
L 178.082303 191.078952 
L 178.950077 191.078952 
L 178.950077 190.030456 
L 179.153607 190.030456 
L 179.153607 189.506209 
L 181.054445 189.506209 
L 181.054445 188.457713 
L 181.47206 188.457713 
L 181.47206 185.836474 
L 185.036729 185.836474 
L 185.036729 176.924263 
L 185.382973 176.924263 
L 185.382973 175.35152 
L 187.707341 175.35152 
L 187.707341 173.778777 
L 189.252154 173.778777 
L 189.252154 165.390813 
L 190.004218 165.390813 
L 190.004218 164.866566 
L 191.616911 164.866566 
L 191.616911 164.342318 
L 195.877072 164.342318 
L 195.877072 163.293823 
L 196.404716 163.293823 
L 196.404716 158.051345 
L 196.902241 158.051345 
L 196.902241 157.00285 
L 198.725288 157.00285 
L 198.725288 151.236125 
L 200.704335 151.236125 
L 200.788927 148.090639 
L 200.899804 148.090639 
L 200.899804 139.702675 
L 201.209503 139.702675 
L 201.209503 131.314712 
L 202.342908 131.314712 
L 202.342908 130.266216 
L 202.921798 130.266216 
L 202.921798 128.693473 
L 204.482093 128.693473 
L 204.482093 124.499491 
L 206.253753 124.499491 
L 206.253753 117.160023 
L 206.838374 117.160023 
L 206.838374 109.820555 
L 207.384185 109.820555 
L 207.384185 98.811353 
L 208.043279 98.811353 
L 208.043279 91.471885 
L 209.761127 91.471885 
L 209.828167 79.414188 
L 209.90624 79.414188 
L 209.90624 72.074719 
L 210.425533 72.074719 
L 210.425533 71.026224 
L 210.568431 71.026224 
L 210.568431 70.501976 
L 210.737065 70.501976 
L 210.830398 67.35649 
L 211.038828 67.35649 
L 211.038828 66.832242 
L 211.179887 66.832242 
L 211.234316 64.735251 
L 211.574751 64.735251 
L 211.677925 54.250297 
L 211.736894 54.250297 
L 211.747041 53.201802 
L 212.286266 53.201802 
L 212.292164 50.056315 
L 212.717308 50.056315 
L 212.717308 49.00782 
L 212.995955 49.00782 
L 212.995955 47.959324 
L 213.418993 47.959324 
L 213.418993 46.910829 
L 213.920613 46.910829 
L 213.920613 45.862334 
L 214.132961 45.862334 
L 214.243864 44.28959 
L 214.246496 44.28959 
L 214.246496 43.241095 
L 215.155418 43.241095 
L 215.155418 41.144104 
L 215.859718 41.144104 
L 215.859718 37.998618 
L 216.560873 37.998618 
L 216.560873 36.425875 
L 216.675511 36.425875 
L 216.675511 35.901627 
L 218.541842 35.901627 
L 218.650842 34.328884 
L 219.773947 34.328884 
L 219.816518 32.231893 
L 220.298973 32.231893 
L 220.298973 31.707645 
L 221.811977 31.707645 
L 221.811977 30.65915 
L 222.210809 30.65915 
L 222.210809 29.610654 
L 223.660369 29.610654 
L 223.660369 29.086407 
L 228.120975 29.086407 
L 228.120975 28.037911 
L 256.134853 28.037911 
L 256.134853 27.513663 
L 333.429677 27.513663 
L 333.429677 27.513663 
" style="fill:none;stroke:#ffa500;stroke-linecap:square;stroke-width:1.5;"/>
   </g>
   <g id="line2d_38">
    <defs>
     <path d="M 0 -6 
L -1.347084 -1.854102 
L -5.706339 -1.854102 
L -2.179628 0.708204 
L -3.526712 4.854102 
L -0 2.291796 
L 3.526712 4.854102 
L 2.179628 0.708204 
L 5.706339 -1.854102 
L 1.347084 -1.854102 
z
" id="md8f4e0062e" style="stroke:#ffa500;stroke-linejoin:bevel;stroke-width:1.5;"/>
    </defs>
    <g>
     <use style="fill-opacity:0;stroke:#ffa500;stroke-linejoin:bevel;stroke-width:1.5;" x="103.822018" xlink:href="#md8f4e0062e" y="241.93098"/>
     <use style="fill-opacity:0;stroke:#ffa500;stroke-linejoin:bevel;stroke-width:1.5;" x="162.446359" xlink:href="#md8f4e0062e" y="208.379126"/>
     <use style="fill-opacity:0;stroke:#ffa500;stroke-linejoin:bevel;stroke-width:1.5;" x="209.761127" xlink:href="#md8f4e0062e" y="88.850646"/>
     <use style="fill-opacity:0;stroke:#ffa500;stroke-linejoin:bevel;stroke-width:1.5;" x="256.134853" xlink:href="#md8f4e0062e" y="28.037911"/>
     <use style="fill-opacity:0;stroke:#ffa500;stroke-linejoin:bevel;stroke-width:1.5;" x="256.134853" xlink:href="#md8f4e0062e" y="27.513663"/>
     <use style="fill-opacity:0;stroke:#ffa500;stroke-linejoin:bevel;stroke-width:1.5;" x="333.429677" xlink:href="#md8f4e0062e" y="27.513663"/>
    </g>
   </g>
   <g id="line2d_39">
    <path style="fill:none;stroke:#ffa500;stroke-linecap:square;stroke-width:1.5;"/>
    <g/>
   </g>
   <g id="line2d_40">
    <path clip-path="url(#p35c42608f2)" d="M 254.304682 28.037911 
" style="fill:none;stroke:#ffa500;stroke-linecap:square;stroke-width:1.5;"/>
    <defs>
     <path d="M -12 12 
L 12 -12 
M -12 -12 
L 12 12 
" id="m562210b2ac" style="stroke:#ffa500;stroke-width:3;"/>
    </defs>
    <g clip-path="url(#p35c42608f2)">
     <use style="fill:#ffa500;stroke:#ffa500;stroke-width:3;" x="254.304682" xlink:href="#m562210b2ac" y="28.037911"/>
    </g>
   </g>
   <g id="line2d_41">
    <defs>
     <path d="M 0 1.5 
C 0.397805 1.5 0.77937 1.341951 1.06066 1.06066 
C 1.341951 0.77937 1.5 0.397805 1.5 0 
C 1.5 -0.397805 1.341951 -0.77937 1.06066 -1.06066 
C 0.77937 -1.341951 0.397805 -1.5 0 -1.5 
C -0.397805 -1.5 -0.77937 -1.341951 -1.06066 -1.06066 
C -1.341951 -0.77937 -1.5 -0.397805 -1.5 0 
C -1.5 0.397805 -1.341951 0.77937 -1.06066 1.06066 
C -0.77937 1.341951 -0.397805 1.5 0 1.5 
z
" id="me55f125d58" style="stroke:#6495ed;"/>
    </defs>
    <g>
     <use style="fill:#6495ed;stroke:#6495ed;" x="179.756651" xlink:href="#me55f125d58" y="27.513663"/>
     <use style="fill:#6495ed;stroke:#6495ed;" x="179.756651" xlink:href="#me55f125d58" y="27.513663"/>
    </g>
   </g>
   <g id="line2d_42">
    <path d="M 44.194496 294.88 
L 44.194496 289.637523 
L 56.12 289.637523 
L 56.12 285.967789 
L 63.095973 285.967789 
L 63.095973 283.870798 
L 68.045504 283.870798 
L 68.045504 276.007082 
L 71.884659 276.007082 
L 71.884659 271.8131 
L 75.021477 271.8131 
L 75.021477 267.094871 
L 77.673619 267.094871 
L 77.673619 266.046375 
L 79.971009 266.046375 
L 79.971009 265.522128 
L 83.810164 265.522128 
L 83.810164 264.473632 
L 85.449963 264.473632 
L 85.449963 262.900889 
L 86.946982 262.900889 
L 86.946982 259.231155 
L 89.599124 259.231155 
L 89.599124 258.706907 
L 91.896513 258.706907 
L 91.896513 258.18266 
L 94.853174 258.18266 
L 94.853174 257.134164 
L 98.872486 257.134164 
L 98.872486 256.085669 
L 100.898928 256.085669 
L 100.898928 254.512926 
L 102.711641 254.512926 
L 102.711641 253.46443 
L 103.275786 253.46443 
L 103.275786 252.940182 
L 106.319855 252.940182 
L 106.319855 250.843192 
L 107.225583 250.843192 
L 107.225583 248.221953 
L 107.661173 248.221953 
L 107.661173 246.124962 
L 109.300972 246.124962 
L 109.300972 244.552219 
L 110.43577 244.552219 
L 110.43577 244.027971 
L 112.175115 244.027971 
L 112.175115 241.406733 
L 118.011276 241.406733 
L 118.011276 240.882485 
L 118.929086 240.882485 
L 118.929086 239.83399 
L 119.151088 239.83399 
L 119.151088 238.261246 
L 119.800405 238.261246 
L 119.800405 237.736999 
L 120.830944 237.736999 
L 120.830944 236.688503 
L 121.991263 236.688503 
L 121.991263 235.11576 
L 123.078247 235.11576 
L 123.078247 234.067265 
L 123.425832 234.067265 
L 123.425832 233.543017 
L 125.52857 233.543017 
L 125.52857 231.446026 
L 125.680156 231.446026 
L 125.680156 230.921778 
L 126.56265 230.921778 
L 126.56265 228.824787 
L 127.673027 228.824787 
L 127.673027 228.30054 
L 129.214792 228.30054 
L 129.214792 226.203549 
L 130.05422 226.203549 
L 130.05422 224.106558 
L 134.738376 224.106558 
L 134.738376 221.485319 
L 135.522531 221.485319 
L 135.522531 218.864081 
L 136.595604 218.864081 
L 136.595604 215.718594 
L 138.19899 215.718594 
L 138.19899 214.670099 
L 140.704707 214.670099 
L 140.704707 214.145851 
L 143.166738 214.145851 
L 143.166738 212.573108 
L 143.704433 212.573108 
L 143.704433 212.04886 
L 144.122809 212.04886 
L 144.122809 205.757888 
L 145.077485 205.757888 
L 145.077485 205.23364 
L 145.511852 205.23364 
L 145.511852 204.185145 
L 145.654238 204.185145 
L 145.654238 195.272933 
L 147.103926 195.272933 
L 147.103926 193.70019 
L 147.233775 193.70019 
L 147.233775 191.603199 
L 148.561073 191.603199 
L 148.561073 191.078952 
L 148.759517 191.078952 
L 148.759517 190.554704 
L 149.341473 190.554704 
L 149.341473 181.642493 
L 149.681426 181.642493 
L 149.681426 180.06975 
L 150.627387 180.06975 
L 150.627387 169.060547 
L 151.389095 169.060547 
L 151.389095 168.5363 
L 152.503704 168.5363 
L 152.503704 167.487804 
L 152.818244 167.487804 
L 152.818244 162.769575 
L 155.336287 162.769575 
L 155.336287 158.575593 
L 155.840397 158.575593 
L 155.840397 150.18763 
L 156.099903 150.18763 
L 156.099903 148.090639 
L 157.650496 148.090639 
L 157.650496 145.993648 
L 158.046028 145.993648 
L 158.137787 142.848162 
L 159.05114 142.848162 
L 159.05114 139.702675 
L 159.309541 139.702675 
L 159.309541 131.838959 
L 159.437301 131.838959 
L 159.437301 131.314712 
L 159.773426 131.314712 
L 159.773426 129.217721 
L 160.52645 129.217721 
L 160.52645 116.635776 
L 160.842144 116.635776 
L 160.861684 115.063032 
L 161.531964 115.063032 
L 161.58822 95.141619 
L 163.178591 95.141619 
L 163.178591 85.70516 
L 163.716287 85.70516 
L 163.765845 69.977729 
L 163.930015 69.977729 
L 163.930015 68.929233 
L 164.539953 68.929233 
L 164.539953 60.54127 
L 165.757427 60.54127 
L 165.757427 59.492774 
L 166.335311 59.492774 
L 166.335311 55.82304 
L 166.645063 55.82304 
L 166.645063 55.298792 
L 166.880655 55.298792 
L 166.880655 54.250297 
L 167.234845 54.250297 
L 167.234845 53.726049 
L 167.973818 53.726049 
L 167.973818 53.201802 
L 168.632701 53.201802 
L 168.632701 52.153306 
L 168.818166 52.153306 
L 168.818166 50.580563 
L 169.086617 50.580563 
L 169.086617 49.532068 
L 169.243299 49.532068 
L 169.243299 47.959324 
L 170.143182 47.959324 
L 170.234033 46.910829 
L 171.009158 46.910829 
L 171.009158 46.386581 
L 171.256405 46.386581 
L 171.267074 44.813838 
L 172.099898 44.813838 
L 172.191117 39.047113 
L 172.728502 39.047113 
L 172.728502 37.998618 
L 173.551126 37.998618 
L 173.551126 36.950122 
L 173.727683 36.950122 
L 173.727683 35.377379 
L 174.165815 35.377379 
L 174.165815 33.804636 
L 174.487243 33.804636 
L 174.487243 33.280388 
L 175.542245 33.280388 
L 175.542245 32.756141 
L 176.235262 32.756141 
L 176.235262 32.231893 
L 176.86296 32.231893 
L 176.86296 31.707645 
L 177.077354 31.707645 
L 177.077354 31.183397 
L 177.609312 31.183397 
L 177.609312 29.086407 
L 179.354757 29.086407 
L 179.354757 28.562159 
L 179.756651 28.562159 
L 179.756651 27.513663 
L 333.429677 27.513663 
L 333.429677 27.513663 
" style="fill:none;stroke:#6495ed;stroke-linecap:square;stroke-width:1.5;"/>
   </g>
   <g id="line2d_43">
    <defs>
     <path d="M -0 6 
L 6 -6 
L -6 -6 
z
" id="m34613c118b" style="stroke:#6495ed;stroke-linejoin:miter;stroke-width:1.5;"/>
    </defs>
    <g>
     <use style="fill-opacity:0;stroke:#6495ed;stroke-linejoin:miter;stroke-width:1.5;" x="129.214792" xlink:href="#m34613c118b" y="226.203549"/>
     <use style="fill-opacity:0;stroke:#6495ed;stroke-linejoin:miter;stroke-width:1.5;" x="161.58822" xlink:href="#m34613c118b" y="104.578078"/>
     <use style="fill-opacity:0;stroke:#6495ed;stroke-linejoin:miter;stroke-width:1.5;" x="179.756651" xlink:href="#m34613c118b" y="28.562159"/>
     <use style="fill-opacity:0;stroke:#6495ed;stroke-linejoin:miter;stroke-width:1.5;" x="179.756651" xlink:href="#m34613c118b" y="27.513663"/>
     <use style="fill-opacity:0;stroke:#6495ed;stroke-linejoin:miter;stroke-width:1.5;" x="179.756651" xlink:href="#m34613c118b" y="27.513663"/>
     <use style="fill-opacity:0;stroke:#6495ed;stroke-linejoin:miter;stroke-width:1.5;" x="333.429677" xlink:href="#m34613c118b" y="27.513663"/>
    </g>
   </g>
   <g id="line2d_44">
    <path style="fill:none;stroke:#6495ed;stroke-linecap:square;stroke-width:1.5;"/>
    <g/>
   </g>
   <g id="line2d_45">
    <defs>
     <path d="M 0 1.5 
C 0.397805 1.5 0.77937 1.341951 1.06066 1.06066 
C 1.341951 0.77937 1.5 0.397805 1.5 0 
C 1.5 -0.397805 1.341951 -0.77937 1.06066 -1.06066 
C 0.77937 -1.341951 0.397805 -1.5 0 -1.5 
C -0.397805 -1.5 -0.77937 -1.341951 -1.06066 -1.06066 
C -1.341951 -0.77937 -1.5 -0.397805 -1.5 0 
C -1.5 0.397805 -1.341951 0.77937 -1.06066 1.06066 
C -0.77937 1.341951 -0.397805 1.5 0 1.5 
z
" id="med1c898490" style="stroke:#ff0000;"/>
    </defs>
    <g>
     <use style="fill:#ff0000;stroke:#ff0000;" x="255.385056" xlink:href="#med1c898490" y="27.513663"/>
     <use style="fill:#ff0000;stroke:#ff0000;" x="255.385056" xlink:href="#med1c898490" y="27.513663"/>
    </g>
   </g>
   <g id="line2d_46">
    <path d="M 44.194496 294.88 
L 44.194496 289.637523 
L 79.971009 289.637523 
L 79.971009 289.113275 
L 83.810164 289.113275 
L 83.810164 285.967789 
L 91.896513 285.967789 
L 91.896513 285.443541 
L 98.872486 285.443541 
L 98.872486 283.870798 
L 113.450132 283.870798 
L 113.450132 281.249559 
L 114.637146 281.249559 
L 114.637146 280.725312 
L 116.276944 280.725312 
L 116.276944 279.676816 
L 117.289287 279.676816 
L 117.289287 277.055578 
L 118.011276 277.055578 
L 118.011276 276.53133 
L 120.01151 276.53133 
L 120.01151 275.482834 
L 125.375637 275.482834 
L 125.375637 274.958587 
L 130.516123 274.958587 
L 130.516123 274.434339 
L 132.145561 274.434339 
L 132.145561 272.337348 
L 132.55522 272.337348 
L 132.656129 265.522128 
L 134.010019 265.522128 
L 134.010019 264.99788 
L 136.675441 264.99788 
L 136.675441 264.473632 
L 138.052565 264.473632 
L 138.052565 263.425137 
L 141.384341 263.425137 
L 141.384341 260.803898 
L 141.862285 260.803898 
L 141.862285 260.279651 
L 141.979724 260.279651 
L 141.979724 258.706907 
L 144.831345 258.706907 
L 144.831345 254.512926 
L 151.724483 254.512926 
L 151.724483 252.415935 
L 152.567074 252.415935 
L 152.567074 251.891687 
L 154.108839 251.891687 
L 154.108839 250.843192 
L 162.159006 250.843192 
L 162.159006 249.794696 
L 169.54066 249.794696 
L 169.623008 243.503724 
L 172.281855 243.503724 
L 172.281855 242.979476 
L 172.971719 242.979476 
L 172.971719 242.455228 
L 173.259112 242.455228 
L 173.353853 239.309742 
L 176.32294 239.309742 
L 176.32294 238.261246 
L 177.887406 238.261246 
L 177.887406 237.212751 
L 179.480947 237.212751 
L 179.57334 224.106558 
L 179.593074 224.106558 
L 179.684868 217.291338 
L 180.969692 217.291338 
L 181.066519 206.282136 
L 181.180797 206.282136 
L 181.26452 202.612401 
L 182.606732 202.612401 
L 182.650819 200.515411 
L 184.091332 200.515411 
L 184.091332 198.41842 
L 185.307678 198.41842 
L 185.307678 193.70019 
L 185.772954 193.70019 
L 185.772954 191.078952 
L 187.254282 191.078952 
L 187.254282 190.030456 
L 190.260746 190.030456 
L 190.260746 189.506209 
L 191.1027 189.506209 
L 191.116165 186.88497 
L 193.049258 186.88497 
L 193.049258 186.360722 
L 193.305962 186.360722 
L 193.314848 184.787979 
L 193.479884 184.787979 
L 193.479884 184.263731 
L 197.124365 184.263731 
L 197.124365 183.739484 
L 197.472045 183.739484 
L 197.472045 183.215236 
L 197.62716 183.215236 
L 197.675491 181.642493 
L 199.542359 181.642493 
L 199.641048 178.497006 
L 199.675866 178.497006 
L 199.739175 177.448511 
L 199.941826 177.448511 
L 200.044266 174.303025 
L 200.072281 174.303025 
L 200.134151 171.157538 
L 200.324349 171.157538 
L 200.424544 168.012052 
L 200.506621 168.012052 
L 200.580545 164.866566 
L 200.656086 164.866566 
L 200.661883 163.81807 
L 200.811926 163.81807 
L 200.817671 162.769575 
L 201.100611 162.769575 
L 201.190778 161.721079 
L 201.32143 161.721079 
L 201.32143 161.196832 
L 201.563301 161.196832 
L 201.5981 160.148336 
L 201.789156 160.148336 
L 201.830725 159.099841 
L 201.918951 159.099841 
L 201.918951 158.575593 
L 202.274436 158.575593 
L 202.274436 158.051345 
L 205.125965 158.051345 
L 205.201813 157.00285 
L 205.548508 157.00285 
L 205.548508 156.478602 
L 207.509217 156.478602 
L 207.509217 155.954354 
L 208.607586 155.954354 
L 208.699863 154.381611 
L 208.803689 154.381611 
L 208.887738 151.236125 
L 208.926025 151.236125 
L 209.034438 148.614886 
L 209.041562 148.614886 
L 209.149252 145.4694 
L 209.161045 145.4694 
L 209.251581 142.848162 
L 209.272677 142.848162 
L 209.355637 140.751171 
L 209.396387 140.751171 
L 209.405687 139.178427 
L 209.58375 139.178427 
L 209.644607 137.605684 
L 209.722375 137.605684 
L 209.722375 137.081437 
L 209.864419 137.081437 
L 209.943454 136.032941 
L 210.126099 136.032941 
L 210.126099 135.508693 
L 212.33437 135.508693 
L 212.33437 134.984446 
L 212.506049 134.984446 
L 212.506049 134.460198 
L 213.797698 134.460198 
L 213.797698 133.93595 
L 214.51026 133.93595 
L 214.613614 131.838959 
L 214.684738 131.838959 
L 214.793852 127.644978 
L 214.815931 127.644978 
L 214.912407 125.547987 
L 214.933492 125.547987 
L 215.041881 122.4025 
L 215.107089 122.4025 
L 215.200291 119.257014 
L 215.227656 119.257014 
L 215.250014 117.684271 
L 215.565693 117.684271 
L 215.565693 117.160023 
L 217.472558 117.160023 
L 217.472558 116.635776 
L 218.83793 116.635776 
L 218.928378 115.063032 
L 219.096615 115.063032 
L 219.170569 114.014537 
L 219.221229 114.014537 
L 219.329938 111.917546 
L 219.380782 111.917546 
L 219.480081 109.296308 
L 219.509823 109.296308 
L 219.586529 107.199317 
L 219.636621 107.199317 
L 219.698713 105.626573 
L 219.761219 105.626573 
L 219.761219 105.102326 
L 221.289299 105.102326 
L 221.289299 104.578078 
L 222.528662 104.578078 
L 222.634578 100.908344 
L 222.666334 100.908344 
L 222.774081 97.762858 
L 222.779424 97.762858 
L 222.882219 94.617371 
L 222.970145 94.617371 
L 222.978068 93.568876 
L 223.150413 93.568876 
L 223.150413 93.044628 
L 225.425306 93.044628 
L 225.529884 89.899142 
L 225.540353 89.899142 
L 225.633831 86.229408 
L 225.659606 86.229408 
L 225.767265 84.132417 
L 225.843435 84.132417 
L 225.953507 80.986931 
L 227.957279 80.986931 
L 228.064487 77.841444 
L 228.081767 77.841444 
L 228.190545 74.695958 
L 228.214321 74.695958 
L 228.317622 72.074719 
L 229.78422 72.074719 
L 229.78422 71.550472 
L 229.931142 71.550472 
L 229.931142 71.026224 
L 230.055835 71.026224 
L 230.143456 69.453481 
L 230.191093 69.453481 
L 230.262821 67.880738 
L 230.30737 67.880738 
L 230.359715 66.832242 
L 231.918802 66.832242 
L 232.006827 65.783747 
L 232.177208 65.783747 
L 232.252531 64.211004 
L 232.34653 64.211004 
L 232.381724 63.162508 
L 232.465593 63.162508 
L 232.465593 62.638261 
L 233.796998 62.638261 
L 233.902828 60.54127 
L 233.930231 60.54127 
L 233.991313 57.395783 
L 234.048572 57.395783 
L 234.100385 54.774545 
L 235.286107 54.774545 
L 235.384728 53.726049 
L 235.417305 53.726049 
L 235.498863 51.629058 
L 235.579274 51.629058 
L 235.588918 50.056315 
L 236.833516 50.056315 
L 236.941041 46.910829 
L 237.02504 46.910829 
L 237.113508 45.862334 
L 237.150622 45.862334 
L 237.237757 44.813838 
L 238.054467 44.813838 
L 238.084341 43.765343 
L 238.218354 43.765343 
L 238.312824 41.668352 
L 238.36386 41.668352 
L 238.369906 40.619856 
L 239.416296 40.619856 
L 239.416296 40.095609 
L 239.563336 40.095609 
L 239.563336 39.571361 
L 240.574441 39.571361 
L 240.664408 38.522865 
L 240.777382 38.522865 
L 240.777382 37.998618 
L 241.66255 37.998618 
L 241.75145 36.950122 
L 242.623993 36.950122 
L 242.623993 36.425875 
L 242.781225 36.425875 
L 242.792246 35.377379 
L 243.713475 35.377379 
L 243.713475 34.853131 
L 244.511155 34.853131 
L 244.533498 33.804636 
L 244.6653 33.804636 
L 244.683854 32.756141 
L 245.463908 32.756141 
L 245.463908 32.231893 
L 246.960331 32.231893 
L 246.960331 31.707645 
L 249.887937 31.707645 
L 249.920729 30.65915 
L 250.430117 30.65915 
L 250.514829 29.086407 
L 252.869202 29.086407 
L 252.869202 28.562159 
L 254.43915 28.562159 
L 254.43915 28.037911 
L 255.385056 28.037911 
L 255.385056 27.513663 
L 333.429677 27.513663 
L 333.429677 27.513663 
" style="fill:none;stroke:#ff0000;stroke-linecap:square;stroke-width:1.5;"/>
   </g>
   <g id="line2d_47">
    <defs>
     <path d="M 0 -6 
L -5.196152 -3 
L -5.196152 3 
L -0 6 
L 5.196152 3 
L 5.196152 -3 
z
" id="m836f739e4c" style="stroke:#ff0000;stroke-linejoin:miter;stroke-width:1.5;"/>
    </defs>
    <g>
     <use style="fill-opacity:0;stroke:#ff0000;stroke-linejoin:miter;stroke-width:1.5;" x="98.872486" xlink:href="#m836f739e4c" y="283.870798"/>
     <use style="fill-opacity:0;stroke:#ff0000;stroke-linejoin:miter;stroke-width:1.5;" x="176.32294" xlink:href="#m836f739e4c" y="239.309742"/>
     <use style="fill-opacity:0;stroke:#ff0000;stroke-linejoin:miter;stroke-width:1.5;" x="214.933492" xlink:href="#m836f739e4c" y="125.547987"/>
     <use style="fill-opacity:0;stroke:#ff0000;stroke-linejoin:miter;stroke-width:1.5;" x="255.385056" xlink:href="#m836f739e4c" y="28.037911"/>
     <use style="fill-opacity:0;stroke:#ff0000;stroke-linejoin:miter;stroke-width:1.5;" x="255.385056" xlink:href="#m836f739e4c" y="27.513663"/>
     <use style="fill-opacity:0;stroke:#ff0000;stroke-linejoin:miter;stroke-width:1.5;" x="333.429677" xlink:href="#m836f739e4c" y="27.513663"/>
    </g>
   </g>
   <g id="line2d_48">
    <path style="fill:none;stroke:#ff0000;stroke-linecap:square;stroke-width:1.5;"/>
    <g/>
   </g>
   <g id="line2d_49">
    <path clip-path="url(#p35c42608f2)" d="M 193.462277 184.787979 
" style="fill:none;stroke:#ff0000;stroke-linecap:square;stroke-width:1.5;"/>
    <defs>
     <path d="M -12 12 
L 12 -12 
M -12 -12 
L 12 12 
" id="mac1d2af062" style="stroke:#ff0000;stroke-width:3;"/>
    </defs>
    <g clip-path="url(#p35c42608f2)">
     <use style="fill:#ff0000;stroke:#ff0000;stroke-width:3;" x="193.462277" xlink:href="#mac1d2af062" y="184.787979"/>
    </g>
   </g>
   <g id="line2d_50">
    <defs>
     <path d="M 0 1.5 
C 0.397805 1.5 0.77937 1.341951 1.06066 1.06066 
C 1.341951 0.77937 1.5 0.397805 1.5 0 
C 1.5 -0.397805 1.341951 -0.77937 1.06066 -1.06066 
C 0.77937 -1.341951 0.397805 -1.5 0 -1.5 
C -0.397805 -1.5 -0.77937 -1.341951 -1.06066 -1.06066 
C -1.341951 -0.77937 -1.5 -0.397805 -1.5 0 
C -1.5 0.397805 -1.341951 0.77937 -1.06066 1.06066 
C -0.77937 1.341951 -0.397805 1.5 0 1.5 
z
" id="m0241828011" style="stroke:#9acd32;"/>
    </defs>
    <g>
     <use style="fill:#9acd32;stroke:#9acd32;" x="153.279528" xlink:href="#m0241828011" y="231.970274"/>
     <use style="fill:#9acd32;stroke:#9acd32;" x="153.279528" xlink:href="#m0241828011" y="231.970274"/>
    </g>
   </g>
   <g id="line2d_51">
    <path d="M 44.194496 294.88 
L 44.194496 287.540532 
L 56.12 287.540532 
L 56.12 284.919293 
L 63.095973 284.919293 
L 63.095973 283.870798 
L 68.045504 283.870798 
L 68.045504 282.298055 
L 71.884659 282.298055 
L 71.884659 278.104073 
L 75.021477 278.104073 
L 75.021477 269.716109 
L 77.673619 269.716109 
L 77.673619 267.619119 
L 81.99745 267.619119 
L 81.99745 263.949385 
L 83.810164 263.949385 
L 83.810164 260.803898 
L 85.449963 260.803898 
L 85.449963 260.279651 
L 88.324106 260.279651 
L 88.324106 259.755403 
L 89.599124 259.755403 
L 89.599124 259.231155 
L 90.786137 259.231155 
L 90.786137 258.18266 
L 91.896513 258.18266 
L 91.896513 257.658412 
L 92.939552 257.658412 
L 92.939552 257.134164 
L 93.922955 257.134164 
L 93.922955 255.037173 
L 97.375467 255.037173 
L 97.375467 253.988678 
L 98.140254 253.988678 
L 98.140254 253.46443 
L 98.872486 253.46443 
L 98.872486 252.940182 
L 100.898928 252.940182 
L 100.898928 249.794696 
L 102.128369 249.794696 
L 102.128369 249.270448 
L 103.275786 249.270448 
L 103.275786 248.746201 
L 105.848459 248.746201 
L 105.848459 246.124962 
L 109.687614 246.124962 
L 109.687614 245.600714 
L 117.773963 245.600714 
L 117.773963 245.076467 
L 121.613118 245.076467 
L 121.613118 243.503724 
L 124.749936 243.503724 
L 124.749936 242.455228 
L 126.12706 242.455228 
L 126.12706 241.93098 
L 128.589091 241.93098 
L 128.589091 241.406733 
L 129.699468 241.406733 
L 129.699468 240.882485 
L 131.725909 240.882485 
L 131.725909 240.358237 
L 134.378051 240.358237 
L 134.378051 239.83399 
L 135.178422 239.83399 
L 135.178422 239.309742 
L 136.675441 239.309742 
L 136.675441 237.736999 
L 137.377778 237.736999 
L 137.377778 237.212751 
L 138.052565 237.212751 
L 138.052565 236.688503 
L 139.327583 236.688503 
L 139.327583 236.164255 
L 142.154395 236.164255 
L 142.154395 235.640008 
L 144.122809 235.640008 
L 144.122809 235.11576 
L 144.581633 235.11576 
L 144.581633 234.591512 
L 146.708395 234.591512 
L 146.708395 234.067265 
L 147.103926 234.067265 
L 147.103926 233.543017 
L 149.303282 233.543017 
L 149.303282 233.018769 
L 151.856829 233.018769 
L 151.856829 232.494521 
L 153.279528 232.494521 
L 153.279528 231.970274 
L 333.429677 231.970274 
" style="fill:none;stroke:#9acd32;stroke-linecap:square;stroke-width:1.5;"/>
   </g>
   <g id="line2d_52">
    <defs>
     <path d="M 0 -6 
L -6 6 
L 6 6 
z
" id="mfb97ef3c0f" style="stroke:#9acd32;stroke-linejoin:miter;stroke-width:1.5;"/>
    </defs>
    <g>
     <use style="fill-opacity:0;stroke:#9acd32;stroke-linejoin:miter;stroke-width:1.5;" x="77.673619" xlink:href="#mfb97ef3c0f" y="267.619119"/>
     <use style="fill-opacity:0;stroke:#9acd32;stroke-linejoin:miter;stroke-width:1.5;" x="137.377778" xlink:href="#mfb97ef3c0f" y="237.736999"/>
     <use style="fill-opacity:0;stroke:#9acd32;stroke-linejoin:miter;stroke-width:1.5;" x="153.279528" xlink:href="#mfb97ef3c0f" y="232.494521"/>
     <use style="fill-opacity:0;stroke:#9acd32;stroke-linejoin:miter;stroke-width:1.5;" x="153.279528" xlink:href="#mfb97ef3c0f" y="231.970274"/>
     <use style="fill-opacity:0;stroke:#9acd32;stroke-linejoin:miter;stroke-width:1.5;" x="153.279528" xlink:href="#mfb97ef3c0f" y="231.970274"/>
     <use style="fill-opacity:0;stroke:#9acd32;stroke-linejoin:miter;stroke-width:1.5;" x="333.429677" xlink:href="#mfb97ef3c0f" y="231.970274"/>
    </g>
   </g>
   <g id="line2d_53">
    <path style="fill:none;stroke:#9acd32;stroke-linecap:square;stroke-width:1.5;"/>
    <g/>
   </g>
   <g id="line2d_54">
    <path clip-path="url(#p35c42608f2)" d="M 81.99745 263.949385 
" style="fill:none;stroke:#9acd32;stroke-linecap:square;stroke-width:1.5;"/>
    <defs>
     <path d="M -12 12 
L 12 -12 
M -12 -12 
L 12 12 
" id="mcb15f2c416" style="stroke:#9acd32;stroke-width:3;"/>
    </defs>
    <g clip-path="url(#p35c42608f2)">
     <use style="fill:#9acd32;stroke:#9acd32;stroke-width:3;" x="81.99745" xlink:href="#mcb15f2c416" y="263.949385"/>
    </g>
   </g>
   <g id="line2d_55">
    <path d="M 333.429677 231.970274 
L 363.933742 289.532673 
" style="fill:none;stroke:#9acd32;stroke-linecap:square;stroke-width:1.5;"/>
    <g>
     <use style="fill-opacity:0;stroke:#9acd32;stroke-linejoin:miter;stroke-width:1.5;" x="333.429677" xlink:href="#mfb97ef3c0f" y="231.970274"/>
     <use style="fill-opacity:0;stroke:#9acd32;stroke-linejoin:miter;stroke-width:1.5;" x="363.933742" xlink:href="#mfb97ef3c0f" y="289.532673"/>
    </g>
   </g>
   <g id="line2d_56">
    <path d="M 333.429677 27.513663 
L 363.933742 246.754059 
" style="fill:none;stroke:#ff00ff;stroke-linecap:square;stroke-width:1.5;"/>
    <g>
     <use style="fill-opacity:0;stroke:#ff00ff;stroke-linejoin:miter;stroke-width:1.5;" x="333.429677" xlink:href="#m9d140424fd" y="27.513663"/>
     <use style="fill-opacity:0;stroke:#ff00ff;stroke-linejoin:miter;stroke-width:1.5;" x="363.933742" xlink:href="#m9d140424fd" y="246.754059"/>
    </g>
   </g>
   <g id="line2d_57">
    <path d="M 333.429677 27.513663 
L 363.933742 203.975446 
" style="fill:none;stroke:#ffa500;stroke-linecap:square;stroke-width:1.5;"/>
    <g>
     <use style="fill-opacity:0;stroke:#ffa500;stroke-linejoin:bevel;stroke-width:1.5;" x="333.429677" xlink:href="#md8f4e0062e" y="27.513663"/>
     <use style="fill-opacity:0;stroke:#ffa500;stroke-linejoin:bevel;stroke-width:1.5;" x="363.933742" xlink:href="#md8f4e0062e" y="203.975446"/>
    </g>
   </g>
   <g id="line2d_58">
    <path d="M 333.429677 27.513663 
L 363.933742 161.196832 
" style="fill:none;stroke:#ff0000;stroke-linecap:square;stroke-width:1.5;"/>
    <g>
     <use style="fill-opacity:0;stroke:#ff0000;stroke-linejoin:miter;stroke-width:1.5;" x="333.429677" xlink:href="#m836f739e4c" y="27.513663"/>
     <use style="fill-opacity:0;stroke:#ff0000;stroke-linejoin:miter;stroke-width:1.5;" x="363.933742" xlink:href="#m836f739e4c" y="161.196832"/>
    </g>
   </g>
   <g id="line2d_59">
    <path d="M 333.429677 27.513663 
L 363.933742 118.418218 
" style="fill:none;stroke:#000080;stroke-linecap:square;stroke-width:1.5;"/>
    <g>
     <use style="fill-opacity:0;stroke:#000080;stroke-width:1.5;" x="333.429677" xlink:href="#m78400b223c" y="27.513663"/>
     <use style="fill-opacity:0;stroke:#000080;stroke-width:1.5;" x="363.933742" xlink:href="#m78400b223c" y="118.418218"/>
    </g>
   </g>
   <g id="line2d_60">
    <path d="M 333.429677 27.513663 
L 363.933742 75.639604 
" style="fill:none;stroke:#6495ed;stroke-linecap:square;stroke-width:1.5;"/>
    <g>
     <use style="fill-opacity:0;stroke:#6495ed;stroke-linejoin:miter;stroke-width:1.5;" x="333.429677" xlink:href="#m34613c118b" y="27.513663"/>
     <use style="fill-opacity:0;stroke:#6495ed;stroke-linejoin:miter;stroke-width:1.5;" x="363.933742" xlink:href="#m34613c118b" y="75.639604"/>
    </g>
   </g>
   <g id="line2d_61">
    <path d="M 333.429677 294.88 
L 333.429677 27.513663 
" style="fill:none;stroke:#000000;stroke-linecap:square;stroke-width:1.5;"/>
   </g>
   <g id="patch_3">
    <path d="M 56.12 294.88 
L 56.12 24.84 
" style="fill:none;stroke:#000000;stroke-linecap:square;stroke-linejoin:miter;stroke-width:0.8;"/>
   </g>
   <g id="patch_4">
    <path d="M 399.984 294.88 
L 399.984 24.84 
" style="fill:none;stroke:#000000;stroke-linecap:square;stroke-linejoin:miter;stroke-width:0.8;"/>
   </g>
   <g id="patch_5">
    <path d="M 56.12 294.88 
L 399.984 294.88 
" style="fill:none;stroke:#000000;stroke-linecap:square;stroke-linejoin:miter;stroke-width:0.8;"/>
   </g>
   <g id="patch_6">
    <path d="M 56.12 24.84 
L 399.984 24.84 
" style="fill:none;stroke:#000000;stroke-linecap:square;stroke-linejoin:miter;stroke-width:0.8;"/>
   </g>
   <g id="text_14">
    <!-- gsa solve -->
    <g transform="translate(369.479935 294.223611)scale(0.17 -0.17)">
     <use xlink:href="#DejaVuSans-67"/>
     <use x="63.476562" xlink:href="#DejaVuSans-73"/>
     <use x="115.576172" xlink:href="#DejaVuSans-61"/>
     <use x="176.855469" xlink:href="#DejaVuSans-20"/>
     <use x="208.642578" xlink:href="#DejaVuSans-73"/>
     <use x="260.742188" xlink:href="#DejaVuSans-6f"/>
     <use x="321.923828" xlink:href="#DejaVuSans-6c"/>
     <use x="349.707031" xlink:href="#DejaVuSans-76"/>
     <use x="408.886719" xlink:href="#DejaVuSans-65"/>
    </g>
   </g>
   <g id="text_15">
    <!-- DASA -->
    <defs>
     <path d="M 19.671875 64.796875 
L 19.671875 8.109375 
L 31.59375 8.109375 
Q 46.6875 8.109375 53.6875 14.9375 
Q 60.6875 21.78125 60.6875 36.53125 
Q 60.6875 51.171875 53.6875 57.984375 
Q 46.6875 64.796875 31.59375 64.796875 
z
M 9.8125 72.90625 
L 30.078125 72.90625 
Q 51.265625 72.90625 61.171875 64.09375 
Q 71.09375 55.28125 71.09375 36.53125 
Q 71.09375 17.671875 61.125 8.828125 
Q 51.171875 0 30.078125 0 
L 9.8125 0 
z
" id="DejaVuSans-44"/>
     <path d="M 34.1875 63.1875 
L 20.796875 26.90625 
L 47.609375 26.90625 
z
M 28.609375 72.90625 
L 39.796875 72.90625 
L 67.578125 0 
L 57.328125 0 
L 50.6875 18.703125 
L 17.828125 18.703125 
L 11.1875 0 
L 0.78125 0 
z
" id="DejaVuSans-41"/>
     <path d="M 53.515625 70.515625 
L 53.515625 60.890625 
Q 47.90625 63.578125 42.921875 64.890625 
Q 37.9375 66.21875 33.296875 66.21875 
Q 25.25 66.21875 20.875 63.09375 
Q 16.5 59.96875 16.5 54.203125 
Q 16.5 49.359375 19.40625 46.890625 
Q 22.3125 44.4375 30.421875 42.921875 
L 36.375 41.703125 
Q 47.40625 39.59375 52.65625 34.296875 
Q 57.90625 29 57.90625 20.125 
Q 57.90625 9.515625 50.796875 4.046875 
Q 43.703125 -1.421875 29.984375 -1.421875 
Q 24.8125 -1.421875 18.96875 -0.25 
Q 13.140625 0.921875 6.890625 3.21875 
L 6.890625 13.375 
Q 12.890625 10.015625 18.65625 8.296875 
Q 24.421875 6.59375 29.984375 6.59375 
Q 38.421875 6.59375 43.015625 9.90625 
Q 47.609375 13.234375 47.609375 19.390625 
Q 47.609375 24.75 44.3125 27.78125 
Q 41.015625 30.8125 33.5 32.328125 
L 27.484375 33.5 
Q 16.453125 35.6875 11.515625 40.375 
Q 6.59375 45.0625 6.59375 53.421875 
Q 6.59375 63.09375 13.40625 68.65625 
Q 20.21875 74.21875 32.171875 74.21875 
Q 37.3125 74.21875 42.625 73.28125 
Q 47.953125 72.359375 53.515625 70.515625 
z
" id="DejaVuSans-53"/>
    </defs>
    <g transform="translate(369.479935 251.444997)scale(0.17 -0.17)">
     <use xlink:href="#DejaVuSans-44"/>
     <use x="76.986328" xlink:href="#DejaVuSans-41"/>
     <use x="145.394531" xlink:href="#DejaVuSans-53"/>
     <use x="208.886719" xlink:href="#DejaVuSans-41"/>
    </g>
   </g>
   <g id="text_16">
    <!-- GA -->
    <defs>
     <path d="M 59.515625 10.40625 
L 59.515625 29.984375 
L 43.40625 29.984375 
L 43.40625 38.09375 
L 69.28125 38.09375 
L 69.28125 6.78125 
Q 63.578125 2.734375 56.6875 0.65625 
Q 49.8125 -1.421875 42 -1.421875 
Q 24.90625 -1.421875 15.25 8.5625 
Q 5.609375 18.5625 5.609375 36.375 
Q 5.609375 54.25 15.25 64.234375 
Q 24.90625 74.21875 42 74.21875 
Q 49.125 74.21875 55.546875 72.453125 
Q 61.96875 70.703125 67.390625 67.28125 
L 67.390625 56.78125 
Q 61.921875 61.421875 55.765625 63.765625 
Q 49.609375 66.109375 42.828125 66.109375 
Q 29.4375 66.109375 22.71875 58.640625 
Q 16.015625 51.171875 16.015625 36.375 
Q 16.015625 21.625 22.71875 14.15625 
Q 29.4375 6.6875 42.828125 6.6875 
Q 48.046875 6.6875 52.140625 7.59375 
Q 56.25 8.5 59.515625 10.40625 
z
" id="DejaVuSans-47"/>
    </defs>
    <g transform="translate(369.479935 208.666383)scale(0.17 -0.17)">
     <use xlink:href="#DejaVuSans-47"/>
     <use x="77.490234" xlink:href="#DejaVuSans-41"/>
    </g>
   </g>
   <g id="text_17">
    <!-- Rosenbroc -->
    <defs>
     <path d="M 44.390625 34.1875 
Q 47.5625 33.109375 50.5625 29.59375 
Q 53.5625 26.078125 56.59375 19.921875 
L 66.609375 0 
L 56 0 
L 46.6875 18.703125 
Q 43.0625 26.03125 39.671875 28.421875 
Q 36.28125 30.8125 30.421875 30.8125 
L 19.671875 30.8125 
L 19.671875 0 
L 9.8125 0 
L 9.8125 72.90625 
L 32.078125 72.90625 
Q 44.578125 72.90625 50.734375 67.671875 
Q 56.890625 62.453125 56.890625 51.90625 
Q 56.890625 45.015625 53.6875 40.46875 
Q 50.484375 35.9375 44.390625 34.1875 
z
M 19.671875 64.796875 
L 19.671875 38.921875 
L 32.078125 38.921875 
Q 39.203125 38.921875 42.84375 42.21875 
Q 46.484375 45.515625 46.484375 51.90625 
Q 46.484375 58.296875 42.84375 61.546875 
Q 39.203125 64.796875 32.078125 64.796875 
z
" id="DejaVuSans-52"/>
     <path d="M 48.6875 27.296875 
Q 48.6875 37.203125 44.609375 42.84375 
Q 40.53125 48.484375 33.40625 48.484375 
Q 26.265625 48.484375 22.1875 42.84375 
Q 18.109375 37.203125 18.109375 27.296875 
Q 18.109375 17.390625 22.1875 11.75 
Q 26.265625 6.109375 33.40625 6.109375 
Q 40.53125 6.109375 44.609375 11.75 
Q 48.6875 17.390625 48.6875 27.296875 
z
M 18.109375 46.390625 
Q 20.953125 51.265625 25.265625 53.625 
Q 29.59375 56 35.59375 56 
Q 45.5625 56 51.78125 48.09375 
Q 58.015625 40.1875 58.015625 27.296875 
Q 58.015625 14.40625 51.78125 6.484375 
Q 45.5625 -1.421875 35.59375 -1.421875 
Q 29.59375 -1.421875 25.265625 0.953125 
Q 20.953125 3.328125 18.109375 8.203125 
L 18.109375 0 
L 9.078125 0 
L 9.078125 75.984375 
L 18.109375 75.984375 
z
" id="DejaVuSans-62"/>
    </defs>
    <g transform="translate(369.479935 165.887769)scale(0.17 -0.17)">
     <use xlink:href="#DejaVuSans-52"/>
     <use x="69.419922" xlink:href="#DejaVuSans-6f"/>
     <use x="130.601562" xlink:href="#DejaVuSans-73"/>
     <use x="182.701172" xlink:href="#DejaVuSans-65"/>
     <use x="244.224609" xlink:href="#DejaVuSans-6e"/>
     <use x="307.603516" xlink:href="#DejaVuSans-62"/>
     <use x="371.080078" xlink:href="#DejaVuSans-72"/>
     <use x="412.162109" xlink:href="#DejaVuSans-6f"/>
     <use x="473.34375" xlink:href="#DejaVuSans-63"/>
    </g>
   </g>
   <g id="text_18">
    <!-- ALPS -->
    <defs>
     <path d="M 9.8125 72.90625 
L 19.671875 72.90625 
L 19.671875 8.296875 
L 55.171875 8.296875 
L 55.171875 0 
L 9.8125 0 
z
" id="DejaVuSans-4c"/>
     <path d="M 19.671875 64.796875 
L 19.671875 37.40625 
L 32.078125 37.40625 
Q 38.96875 37.40625 42.71875 40.96875 
Q 46.484375 44.53125 46.484375 51.125 
Q 46.484375 57.671875 42.71875 61.234375 
Q 38.96875 64.796875 32.078125 64.796875 
z
M 9.8125 72.90625 
L 32.078125 72.90625 
Q 44.34375 72.90625 50.609375 67.359375 
Q 56.890625 61.8125 56.890625 51.125 
Q 56.890625 40.328125 50.609375 34.8125 
Q 44.34375 29.296875 32.078125 29.296875 
L 19.671875 29.296875 
L 19.671875 0 
L 9.8125 0 
z
" id="DejaVuSans-50"/>
    </defs>
    <g transform="translate(369.479935 123.109155)scale(0.17 -0.17)">
     <use xlink:href="#DejaVuSans-41"/>
     <use x="68.408203" xlink:href="#DejaVuSans-4c"/>
     <use x="124.121094" xlink:href="#DejaVuSans-50"/>
     <use x="184.423828" xlink:href="#DejaVuSans-53"/>
    </g>
   </g>
   <g id="text_19">
    <!-- PSO -->
    <defs>
     <path d="M 39.40625 66.21875 
Q 28.65625 66.21875 22.328125 58.203125 
Q 16.015625 50.203125 16.015625 36.375 
Q 16.015625 22.609375 22.328125 14.59375 
Q 28.65625 6.59375 39.40625 6.59375 
Q 50.140625 6.59375 56.421875 14.59375 
Q 62.703125 22.609375 62.703125 36.375 
Q 62.703125 50.203125 56.421875 58.203125 
Q 50.140625 66.21875 39.40625 66.21875 
z
M 39.40625 74.21875 
Q 54.734375 74.21875 63.90625 63.9375 
Q 73.09375 53.65625 73.09375 36.375 
Q 73.09375 19.140625 63.90625 8.859375 
Q 54.734375 -1.421875 39.40625 -1.421875 
Q 24.03125 -1.421875 14.8125 8.828125 
Q 5.609375 19.09375 5.609375 36.375 
Q 5.609375 53.65625 14.8125 63.9375 
Q 24.03125 74.21875 39.40625 74.21875 
z
" id="DejaVuSans-4f"/>
    </defs>
    <g transform="translate(369.479935 80.330541)scale(0.17 -0.17)">
     <use xlink:href="#DejaVuSans-50"/>
     <use x="60.302734" xlink:href="#DejaVuSans-53"/>
     <use x="123.779297" xlink:href="#DejaVuSans-4f"/>
    </g>
   </g>
   <g id="text_20">
    <!-- best 2009 -->
    <defs>
     <path d="M 10.984375 1.515625 
L 10.984375 10.5 
Q 14.703125 8.734375 18.5 7.8125 
Q 22.3125 6.890625 25.984375 6.890625 
Q 35.75 6.890625 40.890625 13.453125 
Q 46.046875 20.015625 46.78125 33.40625 
Q 43.953125 29.203125 39.59375 26.953125 
Q 35.25 24.703125 29.984375 24.703125 
Q 19.046875 24.703125 12.671875 31.3125 
Q 6.296875 37.9375 6.296875 49.421875 
Q 6.296875 60.640625 12.9375 67.421875 
Q 19.578125 74.21875 30.609375 74.21875 
Q 43.265625 74.21875 49.921875 64.515625 
Q 56.59375 54.828125 56.59375 36.375 
Q 56.59375 19.140625 48.40625 8.859375 
Q 40.234375 -1.421875 26.421875 -1.421875 
Q 22.703125 -1.421875 18.890625 -0.6875 
Q 15.09375 0.046875 10.984375 1.515625 
z
M 30.609375 32.421875 
Q 37.25 32.421875 41.125 36.953125 
Q 45.015625 41.5 45.015625 49.421875 
Q 45.015625 57.28125 41.125 61.84375 
Q 37.25 66.40625 30.609375 66.40625 
Q 23.96875 66.40625 20.09375 61.84375 
Q 16.21875 57.28125 16.21875 49.421875 
Q 16.21875 41.5 20.09375 36.953125 
Q 23.96875 32.421875 30.609375 32.421875 
z
" id="DejaVuSans-39"/>
    </defs>
    <g transform="translate(369.479935 37.551928)scale(0.17 -0.17)">
     <use xlink:href="#DejaVuSans-62"/>
     <use x="63.476562" xlink:href="#DejaVuSans-65"/>
     <use x="125" xlink:href="#DejaVuSans-73"/>
     <use x="177.099609" xlink:href="#DejaVuSans-74"/>
     <use x="216.308594" xlink:href="#DejaVuSans-20"/>
     <use x="248.095703" xlink:href="#DejaVuSans-32"/>
     <use x="311.71875" xlink:href="#DejaVuSans-30"/>
     <use x="375.341797" xlink:href="#DejaVuSans-30"/>
     <use x="438.964844" xlink:href="#DejaVuSans-39"/>
    </g>
   </g>
   <g id="text_21">
    <!-- bbob f7, 2-D -->
    <defs>
     <path d="M 8.203125 72.90625 
L 55.078125 72.90625 
L 55.078125 68.703125 
L 28.609375 0 
L 18.3125 0 
L 43.21875 64.59375 
L 8.203125 64.59375 
z
" id="DejaVuSans-37"/>
    </defs>
    <g transform="translate(59.55864 35.290806)scale(0.102 -0.102)">
     <use xlink:href="#DejaVuSans-62"/>
     <use x="63.476562" xlink:href="#DejaVuSans-62"/>
     <use x="126.953125" xlink:href="#DejaVuSans-6f"/>
     <use x="188.134766" xlink:href="#DejaVuSans-62"/>
     <use x="251.611328" xlink:href="#DejaVuSans-20"/>
     <use x="283.398438" xlink:href="#DejaVuSans-66"/>
     <use x="318.603516" xlink:href="#DejaVuSans-37"/>
     <use x="382.226562" xlink:href="#DejaVuSans-2c"/>
     <use x="414.013672" xlink:href="#DejaVuSans-20"/>
     <use x="445.800781" xlink:href="#DejaVuSans-32"/>
     <use x="509.423828" xlink:href="#DejaVuSans-2d"/>
     <use x="545.507812" xlink:href="#DejaVuSans-44"/>
    </g>
    <!-- 51 targets: 100..1e-08 -->
    <defs>
     <path d="M 10.796875 72.90625 
L 49.515625 72.90625 
L 49.515625 64.59375 
L 19.828125 64.59375 
L 19.828125 46.734375 
Q 21.96875 47.46875 24.109375 47.828125 
Q 26.265625 48.1875 28.421875 48.1875 
Q 40.625 48.1875 47.75 41.5 
Q 54.890625 34.8125 54.890625 23.390625 
Q 54.890625 11.625 47.5625 5.09375 
Q 40.234375 -1.421875 26.90625 -1.421875 
Q 22.3125 -1.421875 17.546875 -0.640625 
Q 12.796875 0.140625 7.71875 1.703125 
L 7.71875 11.625 
Q 12.109375 9.234375 16.796875 8.0625 
Q 21.484375 6.890625 26.703125 6.890625 
Q 35.15625 6.890625 40.078125 11.328125 
Q 45.015625 15.765625 45.015625 23.390625 
Q 45.015625 31 40.078125 35.4375 
Q 35.15625 39.890625 26.703125 39.890625 
Q 22.75 39.890625 18.8125 39.015625 
Q 14.890625 38.140625 10.796875 36.28125 
z
" id="DejaVuSans-35"/>
     <path d="M 11.71875 12.40625 
L 22.015625 12.40625 
L 22.015625 0 
L 11.71875 0 
z
M 11.71875 51.703125 
L 22.015625 51.703125 
L 22.015625 39.3125 
L 11.71875 39.3125 
z
" id="DejaVuSans-3a"/>
    </defs>
    <g transform="translate(59.55864 46.712575)scale(0.102 -0.102)">
     <use xlink:href="#DejaVuSans-35"/>
     <use x="63.623047" xlink:href="#DejaVuSans-31"/>
     <use x="127.246094" xlink:href="#DejaVuSans-20"/>
     <use x="159.033203" xlink:href="#DejaVuSans-74"/>
     <use x="198.242188" xlink:href="#DejaVuSans-61"/>
     <use x="259.521484" xlink:href="#DejaVuSans-72"/>
     <use x="300.619141" xlink:href="#DejaVuSans-67"/>
     <use x="364.095703" xlink:href="#DejaVuSans-65"/>
     <use x="425.619141" xlink:href="#DejaVuSans-74"/>
     <use x="464.828125" xlink:href="#DejaVuSans-73"/>
     <use x="516.927734" xlink:href="#DejaVuSans-3a"/>
     <use x="550.619141" xlink:href="#DejaVuSans-20"/>
     <use x="582.40625" xlink:href="#DejaVuSans-31"/>
     <use x="646.029297" xlink:href="#DejaVuSans-30"/>
     <use x="709.652344" xlink:href="#DejaVuSans-30"/>
     <use x="773.275391" xlink:href="#DejaVuSans-2e"/>
     <use x="805.0625" xlink:href="#DejaVuSans-2e"/>
     <use x="836.849609" xlink:href="#DejaVuSans-31"/>
     <use x="900.472656" xlink:href="#DejaVuSans-65"/>
     <use x="961.996094" xlink:href="#DejaVuSans-2d"/>
     <use x="998.080078" xlink:href="#DejaVuSans-30"/>
     <use x="1061.703125" xlink:href="#DejaVuSans-38"/>
    </g>
    <!-- 15 instances -->
    <g transform="translate(59.55864 58.134344)scale(0.102 -0.102)">
     <use xlink:href="#DejaVuSans-31"/>
     <use x="63.623047" xlink:href="#DejaVuSans-35"/>
     <use x="127.246094" xlink:href="#DejaVuSans-20"/>
     <use x="159.033203" xlink:href="#DejaVuSans-69"/>
     <use x="186.816406" xlink:href="#DejaVuSans-6e"/>
     <use x="250.195312" xlink:href="#DejaVuSans-73"/>
     <use x="302.294922" xlink:href="#DejaVuSans-74"/>
     <use x="341.503906" xlink:href="#DejaVuSans-61"/>
     <use x="402.783203" xlink:href="#DejaVuSans-6e"/>
     <use x="466.162109" xlink:href="#DejaVuSans-63"/>
     <use x="521.142578" xlink:href="#DejaVuSans-65"/>
     <use x="582.666016" xlink:href="#DejaVuSans-73"/>
    </g>
   </g>
   <g id="text_22">
    <!-- v-coco-version -->
    <g style="fill:#808080;" transform="translate(191.556688 290.099912)scale(0.1 -0.1)">
     <use xlink:href="#DejaVuSans-76"/>
     <use x="59.148438" xlink:href="#DejaVuSans-2d"/>
     <use x="95.232422" xlink:href="#DejaVuSans-63"/>
     <use x="150.212891" xlink:href="#DejaVuSans-6f"/>
     <use x="211.394531" xlink:href="#DejaVuSans-63"/>
     <use x="266.375" xlink:href="#DejaVuSans-6f"/>
     <use x="327.572266" xlink:href="#DejaVuSans-2d"/>
     <use x="363.625" xlink:href="#DejaVuSans-76"/>
     <use x="422.804688" xlink:href="#DejaVuSans-65"/>
     <use x="484.328125" xlink:href="#DejaVuSans-72"/>
     <use x="525.441406" xlink:href="#DejaVuSans-73"/>
     <use x="577.541016" xlink:href="#DejaVuSans-69"/>
     <use x="605.324219" xlink:href="#DejaVuSans-6f"/>
     <use x="666.505859" xlink:href="#DejaVuSans-6e"/>
    </g>
   </g>
   <g id="text_23">
    <!-- 7 Step-ellipsoid -->
    <g transform="translate(150.842625 18.84)scale(0.2 -0.2)">
     <use xlink:href="#DejaVuSans-37"/>
     <use x="63.623047" xlink:href="#DejaVuSans-20"/>
     <use x="95.410156" xlink:href="#DejaVuSans-53"/>
     <use x="158.886719" xlink:href="#DejaVuSans-74"/>
     <use x="198.095703" xlink:href="#DejaVuSans-65"/>
     <use x="259.619141" xlink:href="#DejaVuSans-70"/>
     <use x="323.095703" xlink:href="#DejaVuSans-2d"/>
     <use x="359.179688" xlink:href="#DejaVuSans-65"/>
     <use x="420.703125" xlink:href="#DejaVuSans-6c"/>
     <use x="448.486328" xlink:href="#DejaVuSans-6c"/>
     <use x="476.269531" xlink:href="#DejaVuSans-69"/>
     <use x="504.052734" xlink:href="#DejaVuSans-70"/>
     <use x="567.529297" xlink:href="#DejaVuSans-73"/>
     <use x="619.628906" xlink:href="#DejaVuSans-6f"/>
     <use x="680.810547" xlink:href="#DejaVuSans-69"/>
     <use x="708.59375" xlink:href="#DejaVuSans-64"/>
    </g>
   </g>
  </g>
 </g>
 <defs>
  <clipPath id="p35c42608f2">
   <rect height="270.04" width="343.864" x="56.12" y="24.84"/>
  </clipPath>
 </defs>
</svg>
