<?xml version="1.0" encoding="utf-8" standalone="no"?>
<!DOCTYPE svg PUBLIC "-//W3C//DTD SVG 1.1//EN"
  "http://www.w3.org/Graphics/SVG/1.1/DTD/svg11.dtd">
<!-- Created with matplotlib (http://matplotlib.org/) -->
<svg height="345.6pt" version="1.1" viewBox="0 0 460.8 345.6" width="460.8pt" xmlns="http://www.w3.org/2000/svg" xmlns:xlink="http://www.w3.org/1999/xlink">
 <defs>
  <style type="text/css">
*{stroke-linecap:butt;stroke-linejoin:round;}
  </style>
 </defs>
 <g id="figure_1">
  <g id="patch_1">
   <path d="M 0 345.6 
L 460.8 345.6 
L 460.8 0 
L 0 0 
z
" style="fill:#ffffff;"/>
  </g>
  <g id="axes_1">
   <g id="patch_2">
    <path d="M 56.12 294.88 
L 399.984 294.88 
L 399.984 24.84 
L 56.12 24.84 
z
" style="fill:#ffffff;"/>
   </g>
   <g id="line2d_1">
    <path d="M 59.256818 294.88 
L 59.256818 289.637523 
L 69.685303 289.637523 
L 69.685303 284.395046 
L 75.021477 284.395046 
L 75.021477 279.152568 
L 79.971009 279.152568 
L 79.971009 273.910091 
L 83.107827 273.910091 
L 83.107827 263.425137 
L 84.484951 263.425137 
L 84.484951 258.18266 
L 97.059773 258.18266 
L 97.059773 252.940182 
L 112.567638 252.940182 
L 112.567638 247.697705 
L 119.586677 247.697705 
L 119.586677 242.455228 
L 127.886754 242.455228 
L 127.886754 237.212751 
L 130.674904 237.212751 
L 130.674904 231.970274 
L 132.269486 231.970274 
L 132.269486 226.727797 
L 148.034145 226.727797 
L 148.034145 221.485319 
L 148.489069 221.485319 
L 148.489069 216.242842 
L 149.992768 216.242842 
L 149.992768 211.000365 
L 150.356213 211.000365 
L 150.356213 205.757888 
L 150.75436 205.757888 
L 150.75436 200.515411 
L 151.348405 200.515411 
L 151.348405 195.272933 
L 152.655401 195.272933 
L 152.655401 190.030456 
L 153.681403 190.030456 
L 153.681403 184.787979 
L 154.672051 184.787979 
L 154.672051 179.545502 
L 154.960655 179.545502 
L 154.960655 174.303025 
L 155.05944 174.303025 
L 155.05944 74.695958 
L 155.081315 74.695958 
L 155.081315 69.453481 
L 155.201134 69.453481 
L 155.201134 64.211004 
L 155.244498 64.211004 
L 155.244498 58.968526 
L 155.330901 58.968526 
L 155.330901 53.726049 
L 155.693346 53.726049 
L 155.693346 48.483572 
L 156.233314 48.483572 
L 156.233314 43.241095 
L 156.406229 43.241095 
L 156.406229 37.998618 
L 156.527248 37.998618 
L 156.527248 32.756141 
L 156.786573 32.756141 
L 156.786573 27.513663 
L 333.429677 27.513663 
" style="fill:none;stroke:#f5deb3;stroke-linecap:square;stroke-width:6;"/>
   </g>
   <g id="line2d_2">
    <defs>
     <path d="M -0 7.778175 
L 7.778175 0 
L 0 -7.778175 
L -7.778175 -0 
z
" id="m3a7494ad79" style="stroke:#f5deb3;stroke-linejoin:miter;stroke-width:1.5;"/>
    </defs>
    <g>
     <use style="fill:#f5deb3;stroke:#f5deb3;stroke-linejoin:miter;stroke-width:1.5;" x="153.681403" xlink:href="#m3a7494ad79" y="190.030456"/>
     <use style="fill:#f5deb3;stroke:#f5deb3;stroke-linejoin:miter;stroke-width:1.5;" x="156.786573" xlink:href="#m3a7494ad79" y="32.756141"/>
     <use style="fill:#f5deb3;stroke:#f5deb3;stroke-linejoin:miter;stroke-width:1.5;" x="156.786573" xlink:href="#m3a7494ad79" y="27.513663"/>
     <use style="fill:#f5deb3;stroke:#f5deb3;stroke-linejoin:miter;stroke-width:1.5;" x="156.786573" xlink:href="#m3a7494ad79" y="27.513663"/>
     <use style="fill:#f5deb3;stroke:#f5deb3;stroke-linejoin:miter;stroke-width:1.5;" x="333.429677" xlink:href="#m3a7494ad79" y="27.513663"/>
    </g>
   </g>
   <g id="line2d_3">
    <path style="fill:none;stroke:#f5deb3;stroke-linecap:square;stroke-width:6;"/>
    <g/>
   </g>
   <g id="line2d_4">
    <path d="M 333.429677 27.513663 
L 363.933742 32.86099 
" style="fill:none;stroke:#f5deb3;stroke-linecap:square;stroke-width:6;"/>
    <g>
     <use style="fill:#f5deb3;stroke:#f5deb3;stroke-linejoin:miter;stroke-width:1.5;" x="333.429677" xlink:href="#m3a7494ad79" y="27.513663"/>
     <use style="fill:#f5deb3;stroke:#f5deb3;stroke-linejoin:miter;stroke-width:1.5;" x="363.933742" xlink:href="#m3a7494ad79" y="32.86099"/>
    </g>
   </g>
   <g id="matplotlib.axis_1">
    <g id="xtick_1">
     <g id="line2d_5">
      <path clip-path="url(#p8c8c3765e5)" d="M 56.12 294.88 
L 56.12 24.84 
" style="fill:none;stroke:#b0b0b0;stroke-linecap:square;stroke-width:0.8;"/>
     </g>
     <g id="line2d_6">
      <defs>
       <path d="M 0 0 
L 0 3.5 
" id="ma2ccf6134d" style="stroke:#000000;stroke-width:0.8;"/>
      </defs>
      <g>
       <use style="stroke:#000000;stroke-width:0.8;" x="56.12" xlink:href="#ma2ccf6134d" y="294.88"/>
      </g>
     </g>
     <g id="text_1">
      <!-- 0 -->
      <defs>
       <path d="M 31.78125 66.40625 
Q 24.171875 66.40625 20.328125 58.90625 
Q 16.5 51.421875 16.5 36.375 
Q 16.5 21.390625 20.328125 13.890625 
Q 24.171875 6.390625 31.78125 6.390625 
Q 39.453125 6.390625 43.28125 13.890625 
Q 47.125 21.390625 47.125 36.375 
Q 47.125 51.421875 43.28125 58.90625 
Q 39.453125 66.40625 31.78125 66.40625 
z
M 31.78125 74.21875 
Q 44.046875 74.21875 50.515625 64.515625 
Q 56.984375 54.828125 56.984375 36.375 
Q 56.984375 17.96875 50.515625 8.265625 
Q 44.046875 -1.421875 31.78125 -1.421875 
Q 19.53125 -1.421875 13.0625 8.265625 
Q 6.59375 17.96875 6.59375 36.375 
Q 6.59375 54.828125 13.0625 64.515625 
Q 19.53125 74.21875 31.78125 74.21875 
z
" id="DejaVuSans-30"/>
      </defs>
      <g transform="translate(49.7575 317.076875)scale(0.2 -0.2)">
       <use xlink:href="#DejaVuSans-30"/>
      </g>
     </g>
    </g>
    <g id="xtick_2">
     <g id="line2d_7">
      <path clip-path="url(#p8c8c3765e5)" d="M 135.351336 294.88 
L 135.351336 24.84 
" style="fill:none;stroke:#b0b0b0;stroke-linecap:square;stroke-width:0.8;"/>
     </g>
     <g id="line2d_8">
      <g>
       <use style="stroke:#000000;stroke-width:0.8;" x="135.351336" xlink:href="#ma2ccf6134d" y="294.88"/>
      </g>
     </g>
     <g id="text_2">
      <!-- 2 -->
      <defs>
       <path d="M 19.1875 8.296875 
L 53.609375 8.296875 
L 53.609375 0 
L 7.328125 0 
L 7.328125 8.296875 
Q 12.9375 14.109375 22.625 23.890625 
Q 32.328125 33.6875 34.8125 36.53125 
Q 39.546875 41.84375 41.421875 45.53125 
Q 43.3125 49.21875 43.3125 52.78125 
Q 43.3125 58.59375 39.234375 62.25 
Q 35.15625 65.921875 28.609375 65.921875 
Q 23.96875 65.921875 18.8125 64.3125 
Q 13.671875 62.703125 7.8125 59.421875 
L 7.8125 69.390625 
Q 13.765625 71.78125 18.9375 73 
Q 24.125 74.21875 28.421875 74.21875 
Q 39.75 74.21875 46.484375 68.546875 
Q 53.21875 62.890625 53.21875 53.421875 
Q 53.21875 48.921875 51.53125 44.890625 
Q 49.859375 40.875 45.40625 35.40625 
Q 44.1875 33.984375 37.640625 27.21875 
Q 31.109375 20.453125 19.1875 8.296875 
z
" id="DejaVuSans-32"/>
      </defs>
      <g transform="translate(128.988836 317.076875)scale(0.2 -0.2)">
       <use xlink:href="#DejaVuSans-32"/>
      </g>
     </g>
    </g>
    <g id="xtick_3">
     <g id="line2d_9">
      <path clip-path="url(#p8c8c3765e5)" d="M 214.582673 294.88 
L 214.582673 24.84 
" style="fill:none;stroke:#b0b0b0;stroke-linecap:square;stroke-width:0.8;"/>
     </g>
     <g id="line2d_10">
      <g>
       <use style="stroke:#000000;stroke-width:0.8;" x="214.582673" xlink:href="#ma2ccf6134d" y="294.88"/>
      </g>
     </g>
     <g id="text_3">
      <!-- 4 -->
      <defs>
       <path d="M 37.796875 64.3125 
L 12.890625 25.390625 
L 37.796875 25.390625 
z
M 35.203125 72.90625 
L 47.609375 72.90625 
L 47.609375 25.390625 
L 58.015625 25.390625 
L 58.015625 17.1875 
L 47.609375 17.1875 
L 47.609375 0 
L 37.796875 0 
L 37.796875 17.1875 
L 4.890625 17.1875 
L 4.890625 26.703125 
z
" id="DejaVuSans-34"/>
      </defs>
      <g transform="translate(208.220173 317.076875)scale(0.2 -0.2)">
       <use xlink:href="#DejaVuSans-34"/>
      </g>
     </g>
    </g>
    <g id="xtick_4">
     <g id="line2d_11">
      <path clip-path="url(#p8c8c3765e5)" d="M 293.814009 294.88 
L 293.814009 24.84 
" style="fill:none;stroke:#b0b0b0;stroke-linecap:square;stroke-width:0.8;"/>
     </g>
     <g id="line2d_12">
      <g>
       <use style="stroke:#000000;stroke-width:0.8;" x="293.814009" xlink:href="#ma2ccf6134d" y="294.88"/>
      </g>
     </g>
     <g id="text_4">
      <!-- 6 -->
      <defs>
       <path d="M 33.015625 40.375 
Q 26.375 40.375 22.484375 35.828125 
Q 18.609375 31.296875 18.609375 23.390625 
Q 18.609375 15.53125 22.484375 10.953125 
Q 26.375 6.390625 33.015625 6.390625 
Q 39.65625 6.390625 43.53125 10.953125 
Q 47.40625 15.53125 47.40625 23.390625 
Q 47.40625 31.296875 43.53125 35.828125 
Q 39.65625 40.375 33.015625 40.375 
z
M 52.59375 71.296875 
L 52.59375 62.3125 
Q 48.875 64.0625 45.09375 64.984375 
Q 41.3125 65.921875 37.59375 65.921875 
Q 27.828125 65.921875 22.671875 59.328125 
Q 17.53125 52.734375 16.796875 39.40625 
Q 19.671875 43.65625 24.015625 45.921875 
Q 28.375 48.1875 33.59375 48.1875 
Q 44.578125 48.1875 50.953125 41.515625 
Q 57.328125 34.859375 57.328125 23.390625 
Q 57.328125 12.15625 50.6875 5.359375 
Q 44.046875 -1.421875 33.015625 -1.421875 
Q 20.359375 -1.421875 13.671875 8.265625 
Q 6.984375 17.96875 6.984375 36.375 
Q 6.984375 53.65625 15.1875 63.9375 
Q 23.390625 74.21875 37.203125 74.21875 
Q 40.921875 74.21875 44.703125 73.484375 
Q 48.484375 72.75 52.59375 71.296875 
z
" id="DejaVuSans-36"/>
      </defs>
      <g transform="translate(287.451509 317.076875)scale(0.2 -0.2)">
       <use xlink:href="#DejaVuSans-36"/>
      </g>
     </g>
    </g>
    <g id="xtick_5">
     <g id="line2d_13">
      <path clip-path="url(#p8c8c3765e5)" d="M 373.045346 294.88 
L 373.045346 24.84 
" style="fill:none;stroke:#b0b0b0;stroke-linecap:square;stroke-width:0.8;"/>
     </g>
     <g id="line2d_14">
      <g>
       <use style="stroke:#000000;stroke-width:0.8;" x="373.045346" xlink:href="#ma2ccf6134d" y="294.88"/>
      </g>
     </g>
     <g id="text_5">
      <!-- 8 -->
      <defs>
       <path d="M 31.78125 34.625 
Q 24.75 34.625 20.71875 30.859375 
Q 16.703125 27.09375 16.703125 20.515625 
Q 16.703125 13.921875 20.71875 10.15625 
Q 24.75 6.390625 31.78125 6.390625 
Q 38.8125 6.390625 42.859375 10.171875 
Q 46.921875 13.96875 46.921875 20.515625 
Q 46.921875 27.09375 42.890625 30.859375 
Q 38.875 34.625 31.78125 34.625 
z
M 21.921875 38.8125 
Q 15.578125 40.375 12.03125 44.71875 
Q 8.5 49.078125 8.5 55.328125 
Q 8.5 64.0625 14.71875 69.140625 
Q 20.953125 74.21875 31.78125 74.21875 
Q 42.671875 74.21875 48.875 69.140625 
Q 55.078125 64.0625 55.078125 55.328125 
Q 55.078125 49.078125 51.53125 44.71875 
Q 48 40.375 41.703125 38.8125 
Q 48.828125 37.15625 52.796875 32.3125 
Q 56.78125 27.484375 56.78125 20.515625 
Q 56.78125 9.90625 50.3125 4.234375 
Q 43.84375 -1.421875 31.78125 -1.421875 
Q 19.734375 -1.421875 13.25 4.234375 
Q 6.78125 9.90625 6.78125 20.515625 
Q 6.78125 27.484375 10.78125 32.3125 
Q 14.796875 37.15625 21.921875 38.8125 
z
M 18.3125 54.390625 
Q 18.3125 48.734375 21.84375 45.5625 
Q 25.390625 42.390625 31.78125 42.390625 
Q 38.140625 42.390625 41.71875 45.5625 
Q 45.3125 48.734375 45.3125 54.390625 
Q 45.3125 60.0625 41.71875 63.234375 
Q 38.140625 66.40625 31.78125 66.40625 
Q 25.390625 66.40625 21.84375 63.234375 
Q 18.3125 60.0625 18.3125 54.390625 
z
" id="DejaVuSans-38"/>
      </defs>
      <g transform="translate(366.682846 317.076875)scale(0.2 -0.2)">
       <use xlink:href="#DejaVuSans-38"/>
      </g>
     </g>
    </g>
    <g id="text_6">
     <!-- log10(# f-evals / dimension) -->
     <defs>
      <path d="M 9.421875 75.984375 
L 18.40625 75.984375 
L 18.40625 0 
L 9.421875 0 
z
" id="DejaVuSans-6c"/>
      <path d="M 30.609375 48.390625 
Q 23.390625 48.390625 19.1875 42.75 
Q 14.984375 37.109375 14.984375 27.296875 
Q 14.984375 17.484375 19.15625 11.84375 
Q 23.34375 6.203125 30.609375 6.203125 
Q 37.796875 6.203125 41.984375 11.859375 
Q 46.1875 17.53125 46.1875 27.296875 
Q 46.1875 37.015625 41.984375 42.703125 
Q 37.796875 48.390625 30.609375 48.390625 
z
M 30.609375 56 
Q 42.328125 56 49.015625 48.375 
Q 55.71875 40.765625 55.71875 27.296875 
Q 55.71875 13.875 49.015625 6.21875 
Q 42.328125 -1.421875 30.609375 -1.421875 
Q 18.84375 -1.421875 12.171875 6.21875 
Q 5.515625 13.875 5.515625 27.296875 
Q 5.515625 40.765625 12.171875 48.375 
Q 18.84375 56 30.609375 56 
z
" id="DejaVuSans-6f"/>
      <path d="M 45.40625 27.984375 
Q 45.40625 37.75 41.375 43.109375 
Q 37.359375 48.484375 30.078125 48.484375 
Q 22.859375 48.484375 18.828125 43.109375 
Q 14.796875 37.75 14.796875 27.984375 
Q 14.796875 18.265625 18.828125 12.890625 
Q 22.859375 7.515625 30.078125 7.515625 
Q 37.359375 7.515625 41.375 12.890625 
Q 45.40625 18.265625 45.40625 27.984375 
z
M 54.390625 6.78125 
Q 54.390625 -7.171875 48.1875 -13.984375 
Q 42 -20.796875 29.203125 -20.796875 
Q 24.46875 -20.796875 20.265625 -20.09375 
Q 16.0625 -19.390625 12.109375 -17.921875 
L 12.109375 -9.1875 
Q 16.0625 -11.328125 19.921875 -12.34375 
Q 23.78125 -13.375 27.78125 -13.375 
Q 36.625 -13.375 41.015625 -8.765625 
Q 45.40625 -4.15625 45.40625 5.171875 
L 45.40625 9.625 
Q 42.625 4.78125 38.28125 2.390625 
Q 33.9375 0 27.875 0 
Q 17.828125 0 11.671875 7.65625 
Q 5.515625 15.328125 5.515625 27.984375 
Q 5.515625 40.671875 11.671875 48.328125 
Q 17.828125 56 27.875 56 
Q 33.9375 56 38.28125 53.609375 
Q 42.625 51.21875 45.40625 46.390625 
L 45.40625 54.6875 
L 54.390625 54.6875 
z
" id="DejaVuSans-67"/>
      <path d="M 12.40625 8.296875 
L 28.515625 8.296875 
L 28.515625 63.921875 
L 10.984375 60.40625 
L 10.984375 69.390625 
L 28.421875 72.90625 
L 38.28125 72.90625 
L 38.28125 8.296875 
L 54.390625 8.296875 
L 54.390625 0 
L 12.40625 0 
z
" id="DejaVuSans-31"/>
      <path d="M 31 75.875 
Q 24.46875 64.65625 21.28125 53.65625 
Q 18.109375 42.671875 18.109375 31.390625 
Q 18.109375 20.125 21.3125 9.0625 
Q 24.515625 -2 31 -13.1875 
L 23.1875 -13.1875 
Q 15.875 -1.703125 12.234375 9.375 
Q 8.59375 20.453125 8.59375 31.390625 
Q 8.59375 42.28125 12.203125 53.3125 
Q 15.828125 64.359375 23.1875 75.875 
z
" id="DejaVuSans-28"/>
      <path d="M 51.125 44 
L 36.921875 44 
L 32.8125 27.6875 
L 47.125 27.6875 
z
M 43.796875 71.78125 
L 38.71875 51.515625 
L 52.984375 51.515625 
L 58.109375 71.78125 
L 65.921875 71.78125 
L 60.890625 51.515625 
L 76.125 51.515625 
L 76.125 44 
L 58.984375 44 
L 54.984375 27.6875 
L 70.515625 27.6875 
L 70.515625 20.21875 
L 53.078125 20.21875 
L 48 0 
L 40.1875 0 
L 45.21875 20.21875 
L 30.90625 20.21875 
L 25.875 0 
L 18.015625 0 
L 23.09375 20.21875 
L 7.71875 20.21875 
L 7.71875 27.6875 
L 24.90625 27.6875 
L 29 44 
L 13.28125 44 
L 13.28125 51.515625 
L 30.90625 51.515625 
L 35.890625 71.78125 
z
" id="DejaVuSans-23"/>
      <path id="DejaVuSans-20"/>
      <path d="M 37.109375 75.984375 
L 37.109375 68.5 
L 28.515625 68.5 
Q 23.6875 68.5 21.796875 66.546875 
Q 19.921875 64.59375 19.921875 59.515625 
L 19.921875 54.6875 
L 34.71875 54.6875 
L 34.71875 47.703125 
L 19.921875 47.703125 
L 19.921875 0 
L 10.890625 0 
L 10.890625 47.703125 
L 2.296875 47.703125 
L 2.296875 54.6875 
L 10.890625 54.6875 
L 10.890625 58.5 
Q 10.890625 67.625 15.140625 71.796875 
Q 19.390625 75.984375 28.609375 75.984375 
z
" id="DejaVuSans-66"/>
      <path d="M 4.890625 31.390625 
L 31.203125 31.390625 
L 31.203125 23.390625 
L 4.890625 23.390625 
z
" id="DejaVuSans-2d"/>
      <path d="M 56.203125 29.59375 
L 56.203125 25.203125 
L 14.890625 25.203125 
Q 15.484375 15.921875 20.484375 11.0625 
Q 25.484375 6.203125 34.421875 6.203125 
Q 39.59375 6.203125 44.453125 7.46875 
Q 49.3125 8.734375 54.109375 11.28125 
L 54.109375 2.78125 
Q 49.265625 0.734375 44.1875 -0.34375 
Q 39.109375 -1.421875 33.890625 -1.421875 
Q 20.796875 -1.421875 13.15625 6.1875 
Q 5.515625 13.8125 5.515625 26.8125 
Q 5.515625 40.234375 12.765625 48.109375 
Q 20.015625 56 32.328125 56 
Q 43.359375 56 49.78125 48.890625 
Q 56.203125 41.796875 56.203125 29.59375 
z
M 47.21875 32.234375 
Q 47.125 39.59375 43.09375 43.984375 
Q 39.0625 48.390625 32.421875 48.390625 
Q 24.90625 48.390625 20.390625 44.140625 
Q 15.875 39.890625 15.1875 32.171875 
z
" id="DejaVuSans-65"/>
      <path d="M 2.984375 54.6875 
L 12.5 54.6875 
L 29.59375 8.796875 
L 46.6875 54.6875 
L 56.203125 54.6875 
L 35.6875 0 
L 23.484375 0 
z
" id="DejaVuSans-76"/>
      <path d="M 34.28125 27.484375 
Q 23.390625 27.484375 19.1875 25 
Q 14.984375 22.515625 14.984375 16.5 
Q 14.984375 11.71875 18.140625 8.90625 
Q 21.296875 6.109375 26.703125 6.109375 
Q 34.1875 6.109375 38.703125 11.40625 
Q 43.21875 16.703125 43.21875 25.484375 
L 43.21875 27.484375 
z
M 52.203125 31.203125 
L 52.203125 0 
L 43.21875 0 
L 43.21875 8.296875 
Q 40.140625 3.328125 35.546875 0.953125 
Q 30.953125 -1.421875 24.3125 -1.421875 
Q 15.921875 -1.421875 10.953125 3.296875 
Q 6 8.015625 6 15.921875 
Q 6 25.140625 12.171875 29.828125 
Q 18.359375 34.515625 30.609375 34.515625 
L 43.21875 34.515625 
L 43.21875 35.40625 
Q 43.21875 41.609375 39.140625 45 
Q 35.0625 48.390625 27.6875 48.390625 
Q 23 48.390625 18.546875 47.265625 
Q 14.109375 46.140625 10.015625 43.890625 
L 10.015625 52.203125 
Q 14.9375 54.109375 19.578125 55.046875 
Q 24.21875 56 28.609375 56 
Q 40.484375 56 46.34375 49.84375 
Q 52.203125 43.703125 52.203125 31.203125 
z
" id="DejaVuSans-61"/>
      <path d="M 44.28125 53.078125 
L 44.28125 44.578125 
Q 40.484375 46.53125 36.375 47.5 
Q 32.28125 48.484375 27.875 48.484375 
Q 21.1875 48.484375 17.84375 46.4375 
Q 14.5 44.390625 14.5 40.28125 
Q 14.5 37.15625 16.890625 35.375 
Q 19.28125 33.59375 26.515625 31.984375 
L 29.59375 31.296875 
Q 39.15625 29.25 43.1875 25.515625 
Q 47.21875 21.78125 47.21875 15.09375 
Q 47.21875 7.46875 41.1875 3.015625 
Q 35.15625 -1.421875 24.609375 -1.421875 
Q 20.21875 -1.421875 15.453125 -0.5625 
Q 10.6875 0.296875 5.421875 2 
L 5.421875 11.28125 
Q 10.40625 8.6875 15.234375 7.390625 
Q 20.0625 6.109375 24.8125 6.109375 
Q 31.15625 6.109375 34.5625 8.28125 
Q 37.984375 10.453125 37.984375 14.40625 
Q 37.984375 18.0625 35.515625 20.015625 
Q 33.0625 21.96875 24.703125 23.78125 
L 21.578125 24.515625 
Q 13.234375 26.265625 9.515625 29.90625 
Q 5.8125 33.546875 5.8125 39.890625 
Q 5.8125 47.609375 11.28125 51.796875 
Q 16.75 56 26.8125 56 
Q 31.78125 56 36.171875 55.265625 
Q 40.578125 54.546875 44.28125 53.078125 
z
" id="DejaVuSans-73"/>
      <path d="M 25.390625 72.90625 
L 33.6875 72.90625 
L 8.296875 -9.28125 
L 0 -9.28125 
z
" id="DejaVuSans-2f"/>
      <path d="M 45.40625 46.390625 
L 45.40625 75.984375 
L 54.390625 75.984375 
L 54.390625 0 
L 45.40625 0 
L 45.40625 8.203125 
Q 42.578125 3.328125 38.25 0.953125 
Q 33.9375 -1.421875 27.875 -1.421875 
Q 17.96875 -1.421875 11.734375 6.484375 
Q 5.515625 14.40625 5.515625 27.296875 
Q 5.515625 40.1875 11.734375 48.09375 
Q 17.96875 56 27.875 56 
Q 33.9375 56 38.25 53.625 
Q 42.578125 51.265625 45.40625 46.390625 
z
M 14.796875 27.296875 
Q 14.796875 17.390625 18.875 11.75 
Q 22.953125 6.109375 30.078125 6.109375 
Q 37.203125 6.109375 41.296875 11.75 
Q 45.40625 17.390625 45.40625 27.296875 
Q 45.40625 37.203125 41.296875 42.84375 
Q 37.203125 48.484375 30.078125 48.484375 
Q 22.953125 48.484375 18.875 42.84375 
Q 14.796875 37.203125 14.796875 27.296875 
z
" id="DejaVuSans-64"/>
      <path d="M 9.421875 54.6875 
L 18.40625 54.6875 
L 18.40625 0 
L 9.421875 0 
z
M 9.421875 75.984375 
L 18.40625 75.984375 
L 18.40625 64.59375 
L 9.421875 64.59375 
z
" id="DejaVuSans-69"/>
      <path d="M 52 44.1875 
Q 55.375 50.25 60.0625 53.125 
Q 64.75 56 71.09375 56 
Q 79.640625 56 84.28125 50.015625 
Q 88.921875 44.046875 88.921875 33.015625 
L 88.921875 0 
L 79.890625 0 
L 79.890625 32.71875 
Q 79.890625 40.578125 77.09375 44.375 
Q 74.3125 48.1875 68.609375 48.1875 
Q 61.625 48.1875 57.5625 43.546875 
Q 53.515625 38.921875 53.515625 30.90625 
L 53.515625 0 
L 44.484375 0 
L 44.484375 32.71875 
Q 44.484375 40.625 41.703125 44.40625 
Q 38.921875 48.1875 33.109375 48.1875 
Q 26.21875 48.1875 22.15625 43.53125 
Q 18.109375 38.875 18.109375 30.90625 
L 18.109375 0 
L 9.078125 0 
L 9.078125 54.6875 
L 18.109375 54.6875 
L 18.109375 46.1875 
Q 21.1875 51.21875 25.484375 53.609375 
Q 29.78125 56 35.6875 56 
Q 41.65625 56 45.828125 52.96875 
Q 50 49.953125 52 44.1875 
z
" id="DejaVuSans-6d"/>
      <path d="M 54.890625 33.015625 
L 54.890625 0 
L 45.90625 0 
L 45.90625 32.71875 
Q 45.90625 40.484375 42.875 44.328125 
Q 39.84375 48.1875 33.796875 48.1875 
Q 26.515625 48.1875 22.3125 43.546875 
Q 18.109375 38.921875 18.109375 30.90625 
L 18.109375 0 
L 9.078125 0 
L 9.078125 54.6875 
L 18.109375 54.6875 
L 18.109375 46.1875 
Q 21.34375 51.125 25.703125 53.5625 
Q 30.078125 56 35.796875 56 
Q 45.21875 56 50.046875 50.171875 
Q 54.890625 44.34375 54.890625 33.015625 
z
" id="DejaVuSans-6e"/>
      <path d="M 8.015625 75.875 
L 15.828125 75.875 
Q 23.140625 64.359375 26.78125 53.3125 
Q 30.421875 42.28125 30.421875 31.390625 
Q 30.421875 20.453125 26.78125 9.375 
Q 23.140625 -1.703125 15.828125 -13.1875 
L 8.015625 -13.1875 
Q 14.5 -2 17.703125 9.0625 
Q 20.90625 20.125 20.90625 31.390625 
Q 20.90625 42.671875 17.703125 53.65625 
Q 14.5 64.65625 8.015625 75.875 
z
" id="DejaVuSans-29"/>
     </defs>
     <g transform="translate(107.211219 338.153594)scale(0.17 -0.17)">
      <use xlink:href="#DejaVuSans-6c"/>
      <use x="27.783203" xlink:href="#DejaVuSans-6f"/>
      <use x="88.964844" xlink:href="#DejaVuSans-67"/>
      <use x="152.441406" xlink:href="#DejaVuSans-31"/>
      <use x="216.064453" xlink:href="#DejaVuSans-30"/>
      <use x="279.6875" xlink:href="#DejaVuSans-28"/>
      <use x="318.701172" xlink:href="#DejaVuSans-23"/>
      <use x="402.490234" xlink:href="#DejaVuSans-20"/>
      <use x="434.277344" xlink:href="#DejaVuSans-66"/>
      <use x="469.404297" xlink:href="#DejaVuSans-2d"/>
      <use x="505.488281" xlink:href="#DejaVuSans-65"/>
      <use x="567.011719" xlink:href="#DejaVuSans-76"/>
      <use x="626.191406" xlink:href="#DejaVuSans-61"/>
      <use x="687.470703" xlink:href="#DejaVuSans-6c"/>
      <use x="715.253906" xlink:href="#DejaVuSans-73"/>
      <use x="767.353516" xlink:href="#DejaVuSans-20"/>
      <use x="799.140625" xlink:href="#DejaVuSans-2f"/>
      <use x="832.832031" xlink:href="#DejaVuSans-20"/>
      <use x="864.619141" xlink:href="#DejaVuSans-64"/>
      <use x="928.095703" xlink:href="#DejaVuSans-69"/>
      <use x="955.878906" xlink:href="#DejaVuSans-6d"/>
      <use x="1053.291016" xlink:href="#DejaVuSans-65"/>
      <use x="1114.814453" xlink:href="#DejaVuSans-6e"/>
      <use x="1178.193359" xlink:href="#DejaVuSans-73"/>
      <use x="1230.292969" xlink:href="#DejaVuSans-69"/>
      <use x="1258.076172" xlink:href="#DejaVuSans-6f"/>
      <use x="1319.257812" xlink:href="#DejaVuSans-6e"/>
      <use x="1382.636719" xlink:href="#DejaVuSans-29"/>
     </g>
    </g>
   </g>
   <g id="matplotlib.axis_2">
    <g id="ytick_1">
     <g id="line2d_15">
      <path clip-path="url(#p8c8c3765e5)" d="M 56.12 294.88 
L 399.984 294.88 
" style="fill:none;stroke:#b0b0b0;stroke-linecap:square;stroke-width:0.8;"/>
     </g>
     <g id="line2d_16">
      <defs>
       <path d="M 0 0 
L -3.5 0 
" id="m98dac249e0" style="stroke:#000000;stroke-width:0.8;"/>
      </defs>
      <g>
       <use style="stroke:#000000;stroke-width:0.8;" x="56.12" xlink:href="#m98dac249e0" y="294.88"/>
      </g>
     </g>
     <g id="text_7">
      <!-- 0.0 -->
      <defs>
       <path d="M 10.6875 12.40625 
L 21 12.40625 
L 21 0 
L 10.6875 0 
z
" id="DejaVuSans-2e"/>
      </defs>
      <g transform="translate(23.675 300.95875)scale(0.16 -0.16)">
       <use xlink:href="#DejaVuSans-30"/>
       <use x="63.623047" xlink:href="#DejaVuSans-2e"/>
       <use x="95.410156" xlink:href="#DejaVuSans-30"/>
      </g>
     </g>
    </g>
    <g id="ytick_2">
     <g id="line2d_17">
      <path clip-path="url(#p8c8c3765e5)" d="M 56.12 241.406733 
L 399.984 241.406733 
" style="fill:none;stroke:#b0b0b0;stroke-linecap:square;stroke-width:0.8;"/>
     </g>
     <g id="line2d_18">
      <g>
       <use style="stroke:#000000;stroke-width:0.8;" x="56.12" xlink:href="#m98dac249e0" y="241.406733"/>
      </g>
     </g>
     <g id="text_8">
      <!-- 0.2 -->
      <g transform="translate(23.675 247.485483)scale(0.16 -0.16)">
       <use xlink:href="#DejaVuSans-30"/>
       <use x="63.623047" xlink:href="#DejaVuSans-2e"/>
       <use x="95.410156" xlink:href="#DejaVuSans-32"/>
      </g>
     </g>
    </g>
    <g id="ytick_3">
     <g id="line2d_19">
      <path clip-path="url(#p8c8c3765e5)" d="M 56.12 187.933465 
L 399.984 187.933465 
" style="fill:none;stroke:#b0b0b0;stroke-linecap:square;stroke-width:0.8;"/>
     </g>
     <g id="line2d_20">
      <g>
       <use style="stroke:#000000;stroke-width:0.8;" x="56.12" xlink:href="#m98dac249e0" y="187.933465"/>
      </g>
     </g>
     <g id="text_9">
      <!-- 0.4 -->
      <g transform="translate(23.675 194.012215)scale(0.16 -0.16)">
       <use xlink:href="#DejaVuSans-30"/>
       <use x="63.623047" xlink:href="#DejaVuSans-2e"/>
       <use x="95.410156" xlink:href="#DejaVuSans-34"/>
      </g>
     </g>
    </g>
    <g id="ytick_4">
     <g id="line2d_21">
      <path clip-path="url(#p8c8c3765e5)" d="M 56.12 134.460198 
L 399.984 134.460198 
" style="fill:none;stroke:#b0b0b0;stroke-linecap:square;stroke-width:0.8;"/>
     </g>
     <g id="line2d_22">
      <g>
       <use style="stroke:#000000;stroke-width:0.8;" x="56.12" xlink:href="#m98dac249e0" y="134.460198"/>
      </g>
     </g>
     <g id="text_10">
      <!-- 0.6 -->
      <g transform="translate(23.675 140.538948)scale(0.16 -0.16)">
       <use xlink:href="#DejaVuSans-30"/>
       <use x="63.623047" xlink:href="#DejaVuSans-2e"/>
       <use x="95.410156" xlink:href="#DejaVuSans-36"/>
      </g>
     </g>
    </g>
    <g id="ytick_5">
     <g id="line2d_23">
      <path clip-path="url(#p8c8c3765e5)" d="M 56.12 80.986931 
L 399.984 80.986931 
" style="fill:none;stroke:#b0b0b0;stroke-linecap:square;stroke-width:0.8;"/>
     </g>
     <g id="line2d_24">
      <g>
       <use style="stroke:#000000;stroke-width:0.8;" x="56.12" xlink:href="#m98dac249e0" y="80.986931"/>
      </g>
     </g>
     <g id="text_11">
      <!-- 0.8 -->
      <g transform="translate(23.675 87.065681)scale(0.16 -0.16)">
       <use xlink:href="#DejaVuSans-30"/>
       <use x="63.623047" xlink:href="#DejaVuSans-2e"/>
       <use x="95.410156" xlink:href="#DejaVuSans-38"/>
      </g>
     </g>
    </g>
    <g id="ytick_6">
     <g id="line2d_25">
      <path clip-path="url(#p8c8c3765e5)" d="M 56.12 27.513663 
L 399.984 27.513663 
" style="fill:none;stroke:#b0b0b0;stroke-linecap:square;stroke-width:0.8;"/>
     </g>
     <g id="line2d_26">
      <g>
       <use style="stroke:#000000;stroke-width:0.8;" x="56.12" xlink:href="#m98dac249e0" y="27.513663"/>
      </g>
     </g>
     <g id="text_12">
      <!-- 1.0 -->
      <g transform="translate(23.675 33.592413)scale(0.16 -0.16)">
       <use xlink:href="#DejaVuSans-31"/>
       <use x="63.623047" xlink:href="#DejaVuSans-2e"/>
       <use x="95.410156" xlink:href="#DejaVuSans-30"/>
      </g>
     </g>
    </g>
    <g id="text_13">
     <!-- Fraction of function,target pairs -->
     <defs>
      <path d="M 9.8125 72.90625 
L 51.703125 72.90625 
L 51.703125 64.59375 
L 19.671875 64.59375 
L 19.671875 43.109375 
L 48.578125 43.109375 
L 48.578125 34.8125 
L 19.671875 34.8125 
L 19.671875 0 
L 9.8125 0 
z
" id="DejaVuSans-46"/>
      <path d="M 41.109375 46.296875 
Q 39.59375 47.171875 37.8125 47.578125 
Q 36.03125 48 33.890625 48 
Q 26.265625 48 22.1875 43.046875 
Q 18.109375 38.09375 18.109375 28.8125 
L 18.109375 0 
L 9.078125 0 
L 9.078125 54.6875 
L 18.109375 54.6875 
L 18.109375 46.1875 
Q 20.953125 51.171875 25.484375 53.578125 
Q 30.03125 56 36.53125 56 
Q 37.453125 56 38.578125 55.875 
Q 39.703125 55.765625 41.0625 55.515625 
z
" id="DejaVuSans-72"/>
      <path d="M 48.78125 52.59375 
L 48.78125 44.1875 
Q 44.96875 46.296875 41.140625 47.34375 
Q 37.3125 48.390625 33.40625 48.390625 
Q 24.65625 48.390625 19.8125 42.84375 
Q 14.984375 37.3125 14.984375 27.296875 
Q 14.984375 17.28125 19.8125 11.734375 
Q 24.65625 6.203125 33.40625 6.203125 
Q 37.3125 6.203125 41.140625 7.25 
Q 44.96875 8.296875 48.78125 10.40625 
L 48.78125 2.09375 
Q 45.015625 0.34375 40.984375 -0.53125 
Q 36.96875 -1.421875 32.421875 -1.421875 
Q 20.0625 -1.421875 12.78125 6.34375 
Q 5.515625 14.109375 5.515625 27.296875 
Q 5.515625 40.671875 12.859375 48.328125 
Q 20.21875 56 33.015625 56 
Q 37.15625 56 41.109375 55.140625 
Q 45.0625 54.296875 48.78125 52.59375 
z
" id="DejaVuSans-63"/>
      <path d="M 18.3125 70.21875 
L 18.3125 54.6875 
L 36.8125 54.6875 
L 36.8125 47.703125 
L 18.3125 47.703125 
L 18.3125 18.015625 
Q 18.3125 11.328125 20.140625 9.421875 
Q 21.96875 7.515625 27.59375 7.515625 
L 36.8125 7.515625 
L 36.8125 0 
L 27.59375 0 
Q 17.1875 0 13.234375 3.875 
Q 9.28125 7.765625 9.28125 18.015625 
L 9.28125 47.703125 
L 2.6875 47.703125 
L 2.6875 54.6875 
L 9.28125 54.6875 
L 9.28125 70.21875 
z
" id="DejaVuSans-74"/>
      <path d="M 8.5 21.578125 
L 8.5 54.6875 
L 17.484375 54.6875 
L 17.484375 21.921875 
Q 17.484375 14.15625 20.5 10.265625 
Q 23.53125 6.390625 29.59375 6.390625 
Q 36.859375 6.390625 41.078125 11.03125 
Q 45.3125 15.671875 45.3125 23.6875 
L 45.3125 54.6875 
L 54.296875 54.6875 
L 54.296875 0 
L 45.3125 0 
L 45.3125 8.40625 
Q 42.046875 3.421875 37.71875 1 
Q 33.40625 -1.421875 27.6875 -1.421875 
Q 18.265625 -1.421875 13.375 4.4375 
Q 8.5 10.296875 8.5 21.578125 
z
M 31.109375 56 
z
" id="DejaVuSans-75"/>
      <path d="M 11.71875 12.40625 
L 22.015625 12.40625 
L 22.015625 4 
L 14.015625 -11.625 
L 7.71875 -11.625 
L 11.71875 4 
z
" id="DejaVuSans-2c"/>
      <path d="M 18.109375 8.203125 
L 18.109375 -20.796875 
L 9.078125 -20.796875 
L 9.078125 54.6875 
L 18.109375 54.6875 
L 18.109375 46.390625 
Q 20.953125 51.265625 25.265625 53.625 
Q 29.59375 56 35.59375 56 
Q 45.5625 56 51.78125 48.09375 
Q 58.015625 40.1875 58.015625 27.296875 
Q 58.015625 14.40625 51.78125 6.484375 
Q 45.5625 -1.421875 35.59375 -1.421875 
Q 29.59375 -1.421875 25.265625 0.953125 
Q 20.953125 3.328125 18.109375 8.203125 
z
M 48.6875 27.296875 
Q 48.6875 37.203125 44.609375 42.84375 
Q 40.53125 48.484375 33.40625 48.484375 
Q 26.265625 48.484375 22.1875 42.84375 
Q 18.109375 37.203125 18.109375 27.296875 
Q 18.109375 17.390625 22.1875 11.75 
Q 26.265625 6.109375 33.40625 6.109375 
Q 40.53125 6.109375 44.609375 11.75 
Q 48.6875 17.390625 48.6875 27.296875 
z
" id="DejaVuSans-70"/>
     </defs>
     <g transform="translate(16.139531 294.999375)rotate(-90)scale(0.17 -0.17)">
      <use xlink:href="#DejaVuSans-46"/>
      <use x="57.410156" xlink:href="#DejaVuSans-72"/>
      <use x="98.523438" xlink:href="#DejaVuSans-61"/>
      <use x="159.802734" xlink:href="#DejaVuSans-63"/>
      <use x="214.783203" xlink:href="#DejaVuSans-74"/>
      <use x="253.992188" xlink:href="#DejaVuSans-69"/>
      <use x="281.775391" xlink:href="#DejaVuSans-6f"/>
      <use x="342.957031" xlink:href="#DejaVuSans-6e"/>
      <use x="406.335938" xlink:href="#DejaVuSans-20"/>
      <use x="438.123047" xlink:href="#DejaVuSans-6f"/>
      <use x="499.304688" xlink:href="#DejaVuSans-66"/>
      <use x="534.509766" xlink:href="#DejaVuSans-20"/>
      <use x="566.296875" xlink:href="#DejaVuSans-66"/>
      <use x="601.501953" xlink:href="#DejaVuSans-75"/>
      <use x="664.880859" xlink:href="#DejaVuSans-6e"/>
      <use x="728.259766" xlink:href="#DejaVuSans-63"/>
      <use x="783.240234" xlink:href="#DejaVuSans-74"/>
      <use x="822.449219" xlink:href="#DejaVuSans-69"/>
      <use x="850.232422" xlink:href="#DejaVuSans-6f"/>
      <use x="911.414062" xlink:href="#DejaVuSans-6e"/>
      <use x="974.792969" xlink:href="#DejaVuSans-2c"/>
      <use x="1006.580078" xlink:href="#DejaVuSans-74"/>
      <use x="1045.789062" xlink:href="#DejaVuSans-61"/>
      <use x="1107.068359" xlink:href="#DejaVuSans-72"/>
      <use x="1148.166016" xlink:href="#DejaVuSans-67"/>
      <use x="1211.642578" xlink:href="#DejaVuSans-65"/>
      <use x="1273.166016" xlink:href="#DejaVuSans-74"/>
      <use x="1312.375" xlink:href="#DejaVuSans-20"/>
      <use x="1344.162109" xlink:href="#DejaVuSans-70"/>
      <use x="1407.638672" xlink:href="#DejaVuSans-61"/>
      <use x="1468.917969" xlink:href="#DejaVuSans-69"/>
      <use x="1496.701172" xlink:href="#DejaVuSans-72"/>
      <use x="1537.814453" xlink:href="#DejaVuSans-73"/>
     </g>
    </g>
   </g>
   <g id="line2d_27">
    <defs>
     <path d="M 0 1.5 
C 0.397805 1.5 0.77937 1.341951 1.06066 1.06066 
C 1.341951 0.77937 1.5 0.397805 1.5 0 
C 1.5 -0.397805 1.341951 -0.77937 1.06066 -1.06066 
C 0.77937 -1.341951 0.397805 -1.5 0 -1.5 
C -0.397805 -1.5 -0.77937 -1.341951 -1.06066 -1.06066 
C -1.341951 -0.77937 -1.5 -0.397805 -1.5 0 
C -1.5 0.397805 -1.341951 0.77937 -1.06066 1.06066 
C -0.77937 1.341951 -0.397805 1.5 0 1.5 
z
" id="m45f7727b33" style="stroke:#f5deb3;"/>
    </defs>
    <g>
     <use style="fill:#f5deb3;stroke:#f5deb3;" x="156.786573" xlink:href="#m45f7727b33" y="27.513663"/>
     <use style="fill:#f5deb3;stroke:#f5deb3;" x="156.786573" xlink:href="#m45f7727b33" y="27.513663"/>
    </g>
   </g>
   <g id="line2d_28">
    <defs>
     <path d="M 0 1.5 
C 0.397805 1.5 0.77937 1.341951 1.06066 1.06066 
C 1.341951 0.77937 1.5 0.397805 1.5 0 
C 1.5 -0.397805 1.341951 -0.77937 1.06066 -1.06066 
C 0.77937 -1.341951 0.397805 -1.5 0 -1.5 
C -0.397805 -1.5 -0.77937 -1.341951 -1.06066 -1.06066 
C -1.341951 -0.77937 -1.5 -0.397805 -1.5 0 
C -1.5 0.397805 -1.341951 0.77937 -1.06066 1.06066 
C -0.77937 1.341951 -0.397805 1.5 0 1.5 
z
" id="m5e5d453837" style="stroke:#000080;"/>
    </defs>
    <g>
     <use style="fill:#000080;stroke:#000080;" x="201.849849" xlink:href="#m5e5d453837" y="27.513663"/>
     <use style="fill:#000080;stroke:#000080;" x="201.849849" xlink:href="#m5e5d453837" y="27.513663"/>
    </g>
   </g>
   <g id="line2d_29">
    <path d="M 28.429836 294.88 
L 28.429836 294.355752 
L 52.280845 294.355752 
L 52.280845 293.831505 
L 56.12 293.831505 
L 56.12 292.258761 
L 66.232791 292.258761 
L 66.232791 291.734514 
L 68.045504 291.734514 
L 68.045504 290.686018 
L 71.182322 290.686018 
L 71.182322 289.113275 
L 72.559446 289.113275 
L 72.559446 288.589027 
L 73.834464 288.589027 
L 73.834464 288.06478 
L 75.021477 288.06478 
L 75.021477 287.016284 
L 77.174892 287.016284 
L 77.174892 285.443541 
L 79.971009 285.443541 
L 79.971009 284.919293 
L 83.810164 284.919293 
L 83.810164 284.395046 
L 84.484951 284.395046 
L 84.484951 283.870798 
L 89.599124 283.870798 
L 89.599124 281.773807 
L 97.059773 281.773807 
L 97.059773 281.249559 
L 100.24961 281.249559 
L 100.24961 279.152568 
L 108.001874 279.152568 
L 108.001874 278.628321 
L 108.985277 278.628321 
L 108.985277 278.104073 
L 112.042258 278.104073 
L 112.042258 277.579825 
L 113.572587 277.579825 
L 113.572587 277.055578 
L 113.694177 277.055578 
L 113.694177 273.910091 
L 116.484234 273.910091 
L 116.484234 273.385844 
L 121.226476 273.385844 
L 121.226476 272.861596 
L 121.459503 272.861596 
L 121.459503 272.337348 
L 121.689415 272.337348 
L 121.689415 271.8131 
L 121.991263 271.8131 
L 121.991263 271.288853 
L 123.631061 271.288853 
L 123.631061 270.764605 
L 129.983852 270.764605 
L 129.983852 269.716109 
L 132.876066 269.716109 
L 132.876066 268.143366 
L 133.614919 268.143366 
L 133.614919 266.046375 
L 136.450957 266.046375 
L 136.450957 265.522128 
L 137.146836 265.522128 
L 137.146836 264.473632 
L 141.909357 264.473632 
L 141.909357 263.949385 
L 142.555192 263.949385 
L 142.555192 263.425137 
L 143.523496 263.425137 
L 143.523496 262.900889 
L 145.291213 262.900889 
L 145.291213 262.376641 
L 148.456971 262.376641 
L 148.456971 261.852394 
L 149.54625 261.852394 
L 149.54625 261.328146 
L 149.933898 261.328146 
L 149.933898 259.231155 
L 153.078085 259.231155 
L 153.102629 257.658412 
L 153.466638 257.658412 
L 153.466638 257.134164 
L 156.161606 257.134164 
L 156.161606 256.609917 
L 156.487003 256.609917 
L 156.487003 255.561421 
L 156.944236 255.561421 
L 156.944236 255.037173 
L 157.15869 255.037173 
L 157.15869 253.988678 
L 159.228133 253.988678 
L 159.262457 251.891687 
L 159.885402 251.891687 
L 159.910187 248.746201 
L 160.049964 248.746201 
L 160.049964 248.221953 
L 161.711339 248.221953 
L 161.792931 242.455228 
L 161.852029 242.455228 
L 161.940297 240.882485 
L 163.874373 240.882485 
L 163.874373 240.358237 
L 164.593487 240.358237 
L 164.593487 239.309742 
L 165.935748 239.309742 
L 165.935748 238.785494 
L 167.781583 238.785494 
L 167.781583 237.736999 
L 168.362068 237.736999 
L 168.362068 237.212751 
L 168.687311 237.212751 
L 168.687311 236.688503 
L 169.604221 236.688503 
L 169.604221 236.164255 
L 170.767093 236.164255 
L 170.819721 231.970274 
L 170.898361 231.970274 
L 170.898361 231.446026 
L 171.019982 231.446026 
L 171.019982 230.921778 
L 172.142527 230.921778 
L 172.187073 229.349035 
L 172.255691 229.349035 
L 172.255691 228.824787 
L 172.618416 228.824787 
L 172.618416 228.30054 
L 173.3784 228.30054 
L 173.3784 225.679301 
L 173.74801 225.679301 
L 173.74801 225.155053 
L 174.573714 225.155053 
L 174.608883 222.009567 
L 174.884222 222.009567 
L 174.884222 221.485319 
L 175.806433 221.485319 
L 175.871851 220.436824 
L 177.011788 220.436824 
L 177.011788 219.388328 
L 178.060757 219.388328 
L 178.060757 217.815585 
L 178.277856 217.815585 
L 178.286369 216.76709 
L 178.620728 216.76709 
L 178.620728 216.242842 
L 178.784123 216.242842 
L 178.784123 215.718594 
L 178.94052 215.718594 
L 179.041285 214.670099 
L 179.625914 214.670099 
L 179.730583 213.621604 
L 179.847579 213.621604 
L 179.847579 213.097356 
L 180.458466 213.097356 
L 180.458466 212.573108 
L 180.672194 212.573108 
L 180.672194 212.04886 
L 181.045989 212.04886 
L 181.111118 209.427622 
L 181.19997 209.427622 
L 181.19997 208.379126 
L 181.96132 208.379126 
L 181.96132 207.330631 
L 182.114172 207.330631 
L 182.114172 206.806383 
L 182.575804 206.806383 
L 182.575804 206.282136 
L 182.815146 206.282136 
L 182.880439 205.23364 
L 182.964952 205.23364 
L 182.964952 203.660897 
L 183.262833 203.660897 
L 183.262833 202.612401 
L 183.520099 202.612401 
L 183.520099 202.088154 
L 183.974516 202.088154 
L 184.027435 199.466915 
L 184.583318 199.466915 
L 184.689242 198.41842 
L 184.808119 198.41842 
L 184.808119 197.369924 
L 185.30013 197.369924 
L 185.30013 196.321429 
L 185.412999 196.321429 
L 185.412999 195.272933 
L 185.859038 195.272933 
L 185.859038 194.748686 
L 186.084108 194.748686 
L 186.084108 184.263731 
L 186.334729 184.263731 
L 186.334729 179.021254 
L 186.628987 179.021254 
L 186.628987 177.972759 
L 187.192681 177.972759 
L 187.192681 177.448511 
L 187.434439 177.448511 
L 187.502657 168.012052 
L 188.021156 168.012052 
L 188.099926 166.439309 
L 188.152773 166.439309 
L 188.152773 156.478602 
L 188.538563 156.478602 
L 188.538563 155.954354 
L 188.986109 155.954354 
L 189.081814 143.372409 
L 189.127202 143.372409 
L 189.137775 131.838959 
L 189.258153 131.838959 
L 189.258153 131.314712 
L 189.590796 131.314712 
L 189.608436 129.741969 
L 190.027893 129.741969 
L 190.027893 128.169225 
L 190.508626 128.169225 
L 190.572647 125.023739 
L 191.357414 125.023739 
L 191.417035 122.926748 
L 191.74326 122.926748 
L 191.761419 116.635776 
L 191.880279 116.635776 
L 191.880279 109.820555 
L 192.224439 109.820555 
L 192.224439 109.296308 
L 192.575456 109.296308 
L 192.64333 100.908344 
L 192.99685 100.908344 
L 193.02458 99.335601 
L 193.365707 99.335601 
L 193.365707 98.811353 
L 193.712937 98.811353 
L 193.712937 93.568876 
L 194.064642 93.568876 
L 194.173162 90.947637 
L 194.434846 90.947637 
L 194.445941 88.326399 
L 194.568617 88.326399 
L 194.568617 80.986931 
L 194.694797 80.986931 
L 194.771151 78.365692 
L 194.868826 78.365692 
L 194.868826 77.841444 
L 195.153246 77.841444 
L 195.153246 76.792949 
L 195.459203 76.792949 
L 195.459203 76.268701 
L 195.889825 76.268701 
L 195.889825 74.695958 
L 196.186076 74.695958 
L 196.227127 67.880738 
L 196.402241 67.880738 
L 196.435866 57.920031 
L 197.023451 57.920031 
L 197.023451 55.298792 
L 197.430133 55.298792 
L 197.430133 54.774545 
L 198.018626 54.774545 
L 198.018626 54.250297 
L 198.307264 54.250297 
L 198.307264 53.201802 
L 199.3841 53.201802 
L 199.385765 51.629058 
L 199.888558 51.629058 
L 199.888558 45.862334 
L 200.64758 45.862334 
L 200.657632 35.377379 
L 200.923035 35.377379 
L 200.923035 33.280388 
L 201.384903 33.280388 
L 201.416737 30.65915 
L 201.619678 30.65915 
L 201.619678 29.086407 
L 201.849128 29.086407 
L 201.849849 27.513663 
L 333.429677 27.513663 
L 333.429677 27.513663 
" style="fill:none;stroke:#000080;stroke-linecap:square;stroke-width:1.5;"/>
   </g>
   <g id="line2d_30">
    <defs>
     <path d="M 0 6 
C 1.591219 6 3.117479 5.367802 4.242641 4.242641 
C 5.367802 3.117479 6 1.591219 6 0 
C 6 -1.591219 5.367802 -3.117479 4.242641 -4.242641 
C 3.117479 -5.367802 1.591219 -6 0 -6 
C -1.591219 -6 -3.117479 -5.367802 -4.242641 -4.242641 
C -5.367802 -3.117479 -6 -1.591219 -6 0 
C -6 1.591219 -5.367802 3.117479 -4.242641 4.242641 
C -3.117479 5.367802 -1.591219 6 0 6 
z
" id="m870b904663" style="stroke:#000080;stroke-width:1.5;"/>
    </defs>
    <g>
     <use style="fill-opacity:0;stroke:#000080;stroke-width:1.5;" x="75.021477" xlink:href="#m870b904663" y="288.06478"/>
     <use style="fill-opacity:0;stroke:#000080;stroke-width:1.5;" x="174.573714" xlink:href="#m870b904663" y="225.155053"/>
     <use style="fill-opacity:0;stroke:#000080;stroke-width:1.5;" x="190.027893" xlink:href="#m870b904663" y="129.741969"/>
     <use style="fill-opacity:0;stroke:#000080;stroke-width:1.5;" x="201.849849" xlink:href="#m870b904663" y="28.562159"/>
     <use style="fill-opacity:0;stroke:#000080;stroke-width:1.5;" x="201.849849" xlink:href="#m870b904663" y="27.513663"/>
     <use style="fill-opacity:0;stroke:#000080;stroke-width:1.5;" x="333.429677" xlink:href="#m870b904663" y="27.513663"/>
    </g>
   </g>
   <g id="line2d_31">
    <path style="fill:none;stroke:#000080;stroke-linecap:square;stroke-width:1.5;"/>
    <g/>
   </g>
   <g id="line2d_32">
    <defs>
     <path d="M 0 1.5 
C 0.397805 1.5 0.77937 1.341951 1.06066 1.06066 
C 1.341951 0.77937 1.5 0.397805 1.5 0 
C 1.5 -0.397805 1.341951 -0.77937 1.06066 -1.06066 
C 0.77937 -1.341951 0.397805 -1.5 0 -1.5 
C -0.397805 -1.5 -0.77937 -1.341951 -1.06066 -1.06066 
C -1.341951 -0.77937 -1.5 -0.397805 -1.5 0 
C -1.5 0.397805 -1.341951 0.77937 -1.06066 1.06066 
C -0.77937 1.341951 -0.397805 1.5 0 1.5 
z
" id="mc1ceef5cdd" style="stroke:#ff00ff;"/>
    </defs>
    <g>
     <use style="fill:#ff00ff;stroke:#ff00ff;" x="359.403928" xlink:href="#mc1ceef5cdd" y="174.303025"/>
     <use style="fill:#ff00ff;stroke:#ff00ff;" x="359.403928" xlink:href="#mc1ceef5cdd" y="174.303025"/>
    </g>
   </g>
   <g id="line2d_33">
    <path d="M 93.922955 294.88 
L 93.922955 294.355752 
L 115.531106 294.355752 
L 115.639654 293.307257 
L 118.058348 293.307257 
L 118.152108 292.258761 
L 118.704183 292.258761 
L 118.704183 291.210266 
L 120.178549 291.210266 
L 120.178549 290.686018 
L 121.069353 290.686018 
L 121.069353 290.161771 
L 121.304503 290.161771 
L 121.304503 289.637523 
L 125.619682 289.637523 
L 125.619682 289.113275 
L 127.292493 289.113275 
L 127.292493 288.06478 
L 130.263612 288.06478 
L 130.263612 287.016284 
L 130.764982 287.016284 
L 130.764982 286.492036 
L 131.382659 286.492036 
L 131.382659 285.967789 
L 132.595654 285.967789 
L 132.595654 284.919293 
L 133.42354 284.919293 
L 133.42354 282.822302 
L 133.652941 282.822302 
L 133.652941 280.725312 
L 134.756195 280.725312 
L 134.756195 279.676816 
L 135.178422 279.676816 
L 135.178422 278.628321 
L 135.959823 278.628321 
L 135.959823 278.104073 
L 139.46359 278.104073 
L 139.46359 277.579825 
L 139.625393 277.579825 
L 139.625393 277.055578 
L 141.1157 277.055578 
L 141.1157 275.482834 
L 142.441628 275.482834 
L 142.441628 274.958587 
L 142.577815 274.958587 
L 142.668011 272.861596 
L 142.802425 272.861596 
L 142.802425 271.8131 
L 145.174963 271.8131 
L 145.174963 270.240357 
L 146.19397 270.240357 
L 146.19397 269.716109 
L 146.502667 269.716109 
L 146.502667 269.191862 
L 147.48207 269.191862 
L 147.48207 268.667614 
L 150.327419 268.667614 
L 150.327419 268.143366 
L 150.456617 268.143366 
L 150.456617 267.619119 
L 152.693117 267.619119 
L 152.693117 267.094871 
L 154.971659 267.094871 
L 154.971659 266.570623 
L 157.795804 266.570623 
L 157.795804 264.99788 
L 164.631176 264.99788 
L 164.631176 263.949385 
L 172.360109 263.949385 
L 172.443987 262.376641 
L 172.642065 262.376641 
L 172.642065 261.328146 
L 172.779375 261.328146 
L 172.779375 260.803898 
L 172.896204 260.803898 
L 172.896204 259.755403 
L 174.818403 259.755403 
L 174.818403 259.231155 
L 175.032259 259.231155 
L 175.032259 258.18266 
L 176.437048 258.18266 
L 176.522135 257.134164 
L 176.622437 257.134164 
L 176.634934 256.085669 
L 176.746998 256.085669 
L 176.746998 255.561421 
L 178.861127 255.561421 
L 178.861127 255.037173 
L 179.087385 255.037173 
L 179.144162 252.940182 
L 184.387412 252.940182 
L 184.387412 252.415935 
L 185.129427 252.415935 
L 185.129427 251.891687 
L 186.437498 251.891687 
L 186.437498 249.794696 
L 190.483509 249.794696 
L 190.483509 249.270448 
L 193.188831 249.270448 
L 193.188831 248.221953 
L 195.157504 248.221953 
L 195.174522 244.552219 
L 200.479696 244.552219 
L 200.479696 243.503724 
L 201.637942 243.503724 
L 201.710807 241.406733 
L 203.184422 241.406733 
L 203.184422 240.882485 
L 204.059473 240.882485 
L 204.059473 240.358237 
L 211.922844 240.358237 
L 211.922844 239.83399 
L 214.765787 239.83399 
L 214.772935 238.261246 
L 214.908525 238.261246 
L 214.932143 236.164255 
L 218.024452 236.164255 
L 218.083229 233.543017 
L 218.178699 233.543017 
L 218.24641 232.494521 
L 227.515068 232.494521 
L 227.515068 231.970274 
L 230.916049 231.970274 
L 230.916049 230.397531 
L 232.88022 230.397531 
L 232.88022 229.349035 
L 233.403903 229.349035 
L 233.403903 228.30054 
L 235.248623 228.30054 
L 235.248623 226.727797 
L 236.759292 226.727797 
L 236.775782 222.009567 
L 237.690794 222.009567 
L 237.726864 220.436824 
L 244.412077 220.436824 
L 244.431453 219.388328 
L 245.03806 219.388328 
L 245.03806 218.339833 
L 246.219071 218.339833 
L 246.219071 217.815585 
L 247.58527 217.815585 
L 247.587089 216.242842 
L 250.959368 216.242842 
L 250.959368 215.718594 
L 254.288533 215.718594 
L 254.288533 215.194347 
L 257.34737 215.194347 
L 257.381206 212.573108 
L 262.252638 212.573108 
L 262.266422 211.524613 
L 264.152635 211.524613 
L 264.152635 211.000365 
L 267.269901 211.000365 
L 267.269901 210.476117 
L 271.430592 210.476117 
L 271.430592 209.95187 
L 272.355877 209.95187 
L 272.421372 206.282136 
L 275.651338 206.282136 
L 275.651338 205.757888 
L 282.195404 205.757888 
L 282.195404 204.709392 
L 283.47973 204.709392 
L 283.481844 201.039658 
L 283.646199 201.039658 
L 283.649753 198.41842 
L 284.459804 198.41842 
L 284.466743 196.321429 
L 286.743423 196.321429 
L 286.743423 194.748686 
L 290.330743 194.748686 
L 290.374121 193.70019 
L 293.109124 193.70019 
L 293.109124 193.175943 
L 294.696863 193.175943 
L 294.726454 192.127447 
L 297.940796 192.127447 
L 297.940796 191.078952 
L 298.207859 191.078952 
L 298.207859 190.554704 
L 298.796044 190.554704 
L 298.796044 190.030456 
L 298.942245 190.030456 
L 298.942245 189.506209 
L 299.07414 189.506209 
L 299.087518 187.933465 
L 300.141553 187.933465 
L 300.141553 187.409218 
L 302.343258 187.409218 
L 302.343258 186.88497 
L 303.166428 186.88497 
L 303.166428 186.360722 
L 307.078658 186.360722 
L 307.078658 185.836474 
L 308.95683 185.836474 
L 308.95683 185.312227 
L 312.422457 185.312227 
L 312.422457 184.787979 
L 312.679395 184.787979 
L 312.763669 183.739484 
L 315.094097 183.739484 
L 315.094097 183.215236 
L 320.70349 183.215236 
L 320.70349 182.690988 
L 324.992279 182.690988 
L 324.992279 182.16674 
L 325.117325 182.16674 
L 325.117325 181.642493 
L 327.14206 181.642493 
L 327.14206 181.118245 
L 328.937761 181.118245 
L 328.972921 180.06975 
L 333.429677 180.06975 
L 333.429677 180.06975 
" style="fill:none;stroke:#ff00ff;stroke-linecap:square;stroke-width:1.5;"/>
   </g>
   <g id="line2d_34">
    <defs>
     <path d="M -0 8.485281 
L 5.091169 0 
L 0 -8.485281 
L -5.091169 -0 
z
" id="m1b8be3eda5" style="stroke:#ff00ff;stroke-linejoin:miter;stroke-width:1.5;"/>
    </defs>
    <g>
     <use style="fill-opacity:0;stroke:#ff00ff;stroke-linejoin:miter;stroke-width:1.5;" x="186.437498" xlink:href="#m1b8be3eda5" y="251.891687"/>
     <use style="fill-opacity:0;stroke:#ff00ff;stroke-linejoin:miter;stroke-width:1.5;" x="267.269901" xlink:href="#m1b8be3eda5" y="210.476117"/>
     <use style="fill-opacity:0;stroke:#ff00ff;stroke-linejoin:miter;stroke-width:1.5;" x="328.972921" xlink:href="#m1b8be3eda5" y="180.593997"/>
     <use style="fill-opacity:0;stroke:#ff00ff;stroke-linejoin:miter;stroke-width:1.5;" x="328.972921" xlink:href="#m1b8be3eda5" y="180.06975"/>
     <use style="fill-opacity:0;stroke:#ff00ff;stroke-linejoin:miter;stroke-width:1.5;" x="333.429677" xlink:href="#m1b8be3eda5" y="180.06975"/>
    </g>
   </g>
   <g id="line2d_35">
    <path style="fill:none;stroke:#ff00ff;stroke-linecap:square;stroke-width:1.5;"/>
    <g/>
   </g>
   <g id="line2d_36">
    <path clip-path="url(#p8c8c3765e5)" d="M 289.776035 194.748686 
" style="fill:none;stroke:#ff00ff;stroke-linecap:square;stroke-width:1.5;"/>
    <defs>
     <path d="M -12 12 
L 12 -12 
M -12 -12 
L 12 12 
" id="m40dd1729f5" style="stroke:#ff00ff;stroke-width:3;"/>
    </defs>
    <g clip-path="url(#p8c8c3765e5)">
     <use style="fill:#ff00ff;stroke:#ff00ff;stroke-width:3;" x="289.776035" xlink:href="#m40dd1729f5" y="194.748686"/>
    </g>
   </g>
   <g id="line2d_37">
    <defs>
     <path d="M 0 1.5 
C 0.397805 1.5 0.77937 1.341951 1.06066 1.06066 
C 1.341951 0.77937 1.5 0.397805 1.5 0 
C 1.5 -0.397805 1.341951 -0.77937 1.06066 -1.06066 
C 0.77937 -1.341951 0.397805 -1.5 0 -1.5 
C -0.397805 -1.5 -0.77937 -1.341951 -1.06066 -1.06066 
C -1.341951 -0.77937 -1.5 -0.397805 -1.5 0 
C -1.5 0.397805 -1.341951 0.77937 -1.06066 1.06066 
C -0.77937 1.341951 -0.397805 1.5 0 1.5 
z
" id="mf8dc40a7bc" style="stroke:#ffa500;"/>
    </defs>
    <g>
     <use style="fill:#ffa500;stroke:#ffa500;" x="295.667227" xlink:href="#mf8dc40a7bc" y="27.513663"/>
     <use style="fill:#ffa500;stroke:#ffa500;" x="295.667227" xlink:href="#mf8dc40a7bc" y="27.513663"/>
    </g>
   </g>
   <g id="line2d_38">
    <path d="M 28.429836 294.88 
L 28.429836 294.355752 
L 40.355341 294.355752 
L 40.355341 292.783009 
L 47.331314 292.783009 
L 47.331314 292.258761 
L 56.12 292.258761 
L 56.12 290.161771 
L 61.90896 290.161771 
L 61.90896 287.540532 
L 68.045504 287.540532 
L 68.045504 281.773807 
L 72.559446 281.773807 
L 72.559446 280.725312 
L 83.107827 280.725312 
L 83.107827 279.152568 
L 86.946982 279.152568 
L 86.946982 278.104073 
L 93.536312 278.104073 
L 93.536312 277.579825 
L 97.989992 277.579825 
L 97.989992 277.055578 
L 99.436631 277.055578 
L 99.436631 276.53133 
L 103.164427 276.53133 
L 103.164427 276.007082 
L 104.865056 276.007082 
L 104.865056 275.482834 
L 106.226603 275.482834 
L 106.226603 274.958587 
L 109.915496 274.958587 
L 109.915496 274.434339 
L 113.694177 274.434339 
L 113.694177 273.910091 
L 116.067126 273.910091 
L 116.067126 271.8131 
L 128.254506 271.8131 
L 128.254506 271.288853 
L 130.3098 271.288853 
L 130.3098 270.240357 
L 132.35161 270.240357 
L 132.35161 269.716109 
L 134.286778 269.716109 
L 134.286778 269.191862 
L 136.770759 269.191862 
L 136.770759 268.667614 
L 137.60566 268.667614 
L 137.60566 267.619119 
L 154.310068 267.619119 
L 154.310068 266.570623 
L 157.149 266.570623 
L 157.207059 265.522128 
L 158.064419 265.522128 
L 158.064419 264.473632 
L 160.049964 264.473632 
L 160.049964 262.900889 
L 160.56623 262.900889 
L 160.56623 258.706907 
L 164.536799 258.706907 
L 164.536799 257.134164 
L 164.911239 257.134164 
L 164.911239 256.609917 
L 170.630388 256.609917 
L 170.630388 255.561421 
L 171.897498 255.561421 
L 171.897498 255.037173 
L 173.177216 255.037173 
L 173.18485 253.46443 
L 173.803325 253.46443 
L 173.803325 252.940182 
L 174.059137 252.940182 
L 174.059137 251.367439 
L 174.218008 251.367439 
L 174.218008 250.318944 
L 175.472219 250.318944 
L 175.472219 249.794696 
L 178.292043 249.794696 
L 178.292043 249.270448 
L 180.538304 249.270448 
L 180.538304 248.746201 
L 182.882612 248.746201 
L 182.882612 248.221953 
L 183.626515 248.221953 
L 183.626515 247.697705 
L 184.025403 247.697705 
L 184.025403 246.64921 
L 185.785802 246.64921 
L 185.785802 246.124962 
L 187.412753 246.124962 
L 187.412753 244.552219 
L 187.613555 244.552219 
L 187.613555 244.027971 
L 188.670951 244.027971 
L 188.670951 241.93098 
L 189.225133 241.93098 
L 189.28063 240.358237 
L 189.656853 240.358237 
L 189.656853 239.83399 
L 189.95029 239.83399 
L 189.95029 238.261246 
L 190.073716 238.261246 
L 190.110857 236.164255 
L 190.698599 236.164255 
L 190.698599 235.11576 
L 191.780855 235.11576 
L 191.780855 234.067265 
L 192.946099 234.067265 
L 192.946099 232.494521 
L 195.152182 232.494521 
L 195.152182 230.921778 
L 196.080496 230.921778 
L 196.080496 230.397531 
L 196.997652 230.397531 
L 196.997652 229.873283 
L 197.913773 229.873283 
L 197.913773 229.349035 
L 198.233555 229.349035 
L 198.233555 227.776292 
L 198.764596 227.776292 
L 198.764596 227.252044 
L 200.103044 227.252044 
L 200.103044 226.727797 
L 200.432769 226.727797 
L 200.432769 225.679301 
L 200.759367 225.679301 
L 200.759367 225.155053 
L 201.355979 225.155053 
L 201.355979 224.630806 
L 201.890192 224.630806 
L 201.964148 223.058063 
L 202.895009 223.058063 
L 202.895009 222.533815 
L 203.358404 222.533815 
L 203.358404 222.009567 
L 203.768405 222.009567 
L 203.768405 221.485319 
L 204.024549 221.485319 
L 204.103818 220.436824 
L 204.552816 220.436824 
L 204.552816 218.864081 
L 205.023412 218.864081 
L 205.023412 218.339833 
L 205.278806 218.339833 
L 205.278806 217.815585 
L 205.479141 217.815585 
L 205.563045 214.670099 
L 206.202026 214.670099 
L 206.202026 214.145851 
L 207.039321 214.145851 
L 207.039321 212.573108 
L 207.977736 212.573108 
L 207.977736 212.04886 
L 208.651843 212.04886 
L 208.651843 210.476117 
L 208.948001 210.476117 
L 209.000914 209.427622 
L 209.335577 209.427622 
L 209.335577 208.903374 
L 210.064911 208.903374 
L 210.064911 207.854879 
L 210.282764 207.854879 
L 210.29822 206.806383 
L 211.193091 206.806383 
L 211.193091 206.282136 
L 211.890684 206.282136 
L 211.946925 201.039658 
L 212.481573 201.039658 
L 212.481573 200.515411 
L 212.670265 200.515411 
L 212.69985 193.175943 
L 212.929036 193.175943 
L 212.929036 184.787979 
L 213.347049 184.787979 
L 213.382136 181.642493 
L 214.499891 181.642493 
L 214.499891 180.593997 
L 214.822888 180.593997 
L 214.899744 174.827272 
L 215.672284 174.827272 
L 215.742228 172.730281 
L 216.212459 172.730281 
L 216.212459 172.206034 
L 216.427083 172.206034 
L 216.427083 171.681786 
L 217.194262 171.681786 
L 217.194262 171.157538 
L 217.980167 171.157538 
L 217.980167 169.584795 
L 218.378831 169.584795 
L 218.378831 168.5363 
L 218.546079 168.5363 
L 218.546079 167.487804 
L 219.823244 167.487804 
L 219.823244 166.963557 
L 220.131057 166.963557 
L 220.131057 157.527098 
L 220.688703 157.527098 
L 220.688703 157.00285 
L 221.174036 157.00285 
L 221.174036 155.954354 
L 221.459951 155.954354 
L 221.497978 154.905859 
L 221.615443 154.905859 
L 221.615443 152.28462 
L 222.01791 152.28462 
L 222.01791 142.323914 
L 223.70538 142.323914 
L 223.70538 140.751171 
L 232.012763 140.751171 
L 232.012763 132.363207 
L 235.25328 132.363207 
L 235.25328 129.217721 
L 244.210717 129.217721 
L 244.222703 127.644978 
L 254.876569 127.644978 
L 254.876569 127.12073 
L 255.010482 127.12073 
L 255.010482 126.596482 
L 255.222294 126.596482 
L 255.292537 125.023739 
L 255.557139 125.023739 
L 255.557139 124.499491 
L 255.724022 124.499491 
L 255.7607 113.490289 
L 255.845833 113.490289 
L 255.925973 108.77206 
L 256.184453 108.77206 
L 256.184453 108.247812 
L 256.336974 108.247812 
L 256.336974 107.723564 
L 256.450129 107.723564 
L 256.48704 102.481087 
L 256.653211 102.481087 
L 256.726387 94.617371 
L 258.440615 94.617371 
L 258.440615 91.471885 
L 259.19144 91.471885 
L 259.19144 89.899142 
L 261.097409 89.899142 
L 261.097409 89.374894 
L 261.891355 89.374894 
L 261.895646 88.326399 
L 265.918297 88.326399 
L 265.918297 87.802151 
L 266.916051 87.802151 
L 267.001868 78.88994 
L 267.02843 78.88994 
L 267.043817 73.647463 
L 267.20958 73.647463 
L 267.20958 72.074719 
L 267.340114 72.074719 
L 267.439537 68.404985 
L 267.467899 68.404985 
L 267.467899 65.783747 
L 267.593747 65.783747 
L 267.593747 65.259499 
L 268.407257 65.259499 
L 268.407257 63.686756 
L 268.831969 63.686756 
L 268.831969 62.114013 
L 273.675902 62.114013 
L 273.744426 52.677554 
L 273.824515 52.677554 
L 273.824515 52.153306 
L 273.943222 52.153306 
L 274.030382 49.00782 
L 274.973477 49.00782 
L 274.973477 48.483572 
L 276.105544 48.483572 
L 276.105544 47.959324 
L 278.500918 47.959324 
L 278.592164 45.338086 
L 278.635935 45.338086 
L 278.703247 43.765343 
L 278.754682 43.765343 
L 278.769381 42.192599 
L 279.262805 42.192599 
L 279.262805 40.619856 
L 279.490091 40.619856 
L 279.490091 40.095609 
L 282.264928 40.095609 
L 282.35529 38.522865 
L 282.427687 38.522865 
L 282.480969 36.425875 
L 282.879746 36.425875 
L 282.879746 35.377379 
L 285.38499 35.377379 
L 285.487602 34.328884 
L 285.522293 34.328884 
L 285.522293 33.804636 
L 285.86681 33.804636 
L 285.86681 33.280388 
L 287.967605 33.280388 
L 288.032522 30.65915 
L 288.160951 30.65915 
L 288.160951 30.134902 
L 288.411181 30.134902 
L 288.411181 29.610654 
L 290.312351 29.610654 
L 290.340519 28.562159 
L 292.334634 28.562159 
L 292.334634 28.037911 
L 295.667227 28.037911 
L 295.667227 27.513663 
L 333.429677 27.513663 
L 333.429677 27.513663 
" style="fill:none;stroke:#ffa500;stroke-linecap:square;stroke-width:1.5;"/>
   </g>
   <g id="line2d_39">
    <defs>
     <path d="M 0 -6 
L -1.347084 -1.854102 
L -5.706339 -1.854102 
L -2.179628 0.708204 
L -3.526712 4.854102 
L -0 2.291796 
L 3.526712 4.854102 
L 2.179628 0.708204 
L 5.706339 -1.854102 
L 1.347084 -1.854102 
z
" id="md5935398c9" style="stroke:#ffa500;stroke-linejoin:bevel;stroke-width:1.5;"/>
    </defs>
    <g>
     <use style="fill-opacity:0;stroke:#ffa500;stroke-linejoin:bevel;stroke-width:1.5;" x="106.226603" xlink:href="#md5935398c9" y="275.482834"/>
     <use style="fill-opacity:0;stroke:#ffa500;stroke-linejoin:bevel;stroke-width:1.5;" x="190.698599" xlink:href="#md5935398c9" y="235.11576"/>
     <use style="fill-opacity:0;stroke:#ffa500;stroke-linejoin:bevel;stroke-width:1.5;" x="223.70538" xlink:href="#md5935398c9" y="140.751171"/>
     <use style="fill-opacity:0;stroke:#ffa500;stroke-linejoin:bevel;stroke-width:1.5;" x="295.667227" xlink:href="#md5935398c9" y="28.037911"/>
     <use style="fill-opacity:0;stroke:#ffa500;stroke-linejoin:bevel;stroke-width:1.5;" x="295.667227" xlink:href="#md5935398c9" y="27.513663"/>
     <use style="fill-opacity:0;stroke:#ffa500;stroke-linejoin:bevel;stroke-width:1.5;" x="333.429677" xlink:href="#md5935398c9" y="27.513663"/>
    </g>
   </g>
   <g id="line2d_40">
    <path style="fill:none;stroke:#ffa500;stroke-linecap:square;stroke-width:1.5;"/>
    <g/>
   </g>
   <g id="line2d_41">
    <path clip-path="url(#p8c8c3765e5)" d="M 254.270861 127.644978 
" style="fill:none;stroke:#ffa500;stroke-linecap:square;stroke-width:1.5;"/>
    <defs>
     <path d="M -12 12 
L 12 -12 
M -12 -12 
L 12 12 
" id="m6a60f839d9" style="stroke:#ffa500;stroke-width:3;"/>
    </defs>
    <g clip-path="url(#p8c8c3765e5)">
     <use style="fill:#ffa500;stroke:#ffa500;stroke-width:3;" x="254.270861" xlink:href="#m6a60f839d9" y="127.644978"/>
    </g>
   </g>
   <g id="line2d_42">
    <defs>
     <path d="M 0 1.5 
C 0.397805 1.5 0.77937 1.341951 1.06066 1.06066 
C 1.341951 0.77937 1.5 0.397805 1.5 0 
C 1.5 -0.397805 1.341951 -0.77937 1.06066 -1.06066 
C 0.77937 -1.341951 0.397805 -1.5 0 -1.5 
C -0.397805 -1.5 -0.77937 -1.341951 -1.06066 -1.06066 
C -1.341951 -0.77937 -1.5 -0.397805 -1.5 0 
C -1.5 0.397805 -1.341951 0.77937 -1.06066 1.06066 
C -0.77937 1.341951 -0.397805 1.5 0 1.5 
z
" id="m209a223dc9" style="stroke:#6495ed;"/>
    </defs>
    <g>
     <use style="fill:#6495ed;stroke:#6495ed;" x="296.995362" xlink:href="#m209a223dc9" y="27.513663"/>
     <use style="fill:#6495ed;stroke:#6495ed;" x="296.995362" xlink:href="#m209a223dc9" y="27.513663"/>
    </g>
   </g>
   <g id="line2d_43">
    <path d="M 47.331314 294.88 
L 47.331314 293.831505 
L 59.256818 293.831505 
L 59.256818 291.734514 
L 66.232791 291.734514 
L 66.232791 291.210266 
L 76.131854 291.210266 
L 76.131854 289.637523 
L 78.158295 289.637523 
L 78.158295 289.113275 
L 83.107827 289.113275 
L 83.107827 288.589027 
L 85.134268 288.589027 
L 85.134268 288.06478 
L 86.36371 288.06478 
L 86.36371 287.016284 
L 89.599124 287.016284 
L 89.599124 285.443541 
L 92.321346 285.443541 
L 92.321346 284.919293 
L 93.140781 284.919293 
L 93.140781 284.395046 
L 99.156871 284.395046 
L 99.156871 283.34655 
L 100.24961 283.34655 
L 100.24961 281.249559 
L 102.246616 281.249559 
L 102.246616 280.201064 
L 104.455397 280.201064 
L 104.455397 279.676816 
L 106.226603 279.676816 
L 106.226603 279.152568 
L 106.412604 279.152568 
L 106.412604 278.104073 
L 106.596615 278.104073 
L 106.596615 277.579825 
L 108.663681 277.579825 
L 108.663681 275.482834 
L 109.143848 275.482834 
L 109.143848 274.958587 
L 111.362135 274.958587 
L 111.362135 272.861596 
L 112.306953 272.861596 
L 112.306953 272.337348 
L 112.437789 272.337348 
L 112.437789 271.8131 
L 112.824432 271.8131 
L 112.824432 271.288853 
L 113.694177 271.288853 
L 113.694177 269.716109 
L 114.172121 269.716109 
L 114.172121 269.191862 
L 116.790561 269.191862 
L 116.790561 268.667614 
L 117.581728 268.667614 
L 117.581728 268.143366 
L 117.869282 268.143366 
L 117.869282 267.619119 
L 119.586677 267.619119 
L 119.672487 265.522128 
L 119.842834 265.522128 
L 119.842834 264.99788 
L 120.750735 264.99788 
L 120.750735 264.473632 
L 121.382177 264.473632 
L 121.382177 263.949385 
L 122.065904 263.949385 
L 122.065904 262.900889 
L 123.425832 262.900889 
L 123.425832 262.376641 
L 124.100619 262.376641 
L 124.100619 261.328146 
L 124.363294 261.328146 
L 124.363294 259.755403 
L 125.680156 259.755403 
L 125.680156 258.706907 
L 127.833571 258.706907 
L 127.833571 256.085669 
L 128.512455 256.085669 
L 128.512455 255.561421 
L 130.809845 255.561421 
L 130.809845 251.891687 
L 131.120651 251.891687 
L 131.120651 251.367439 
L 132.186969 251.367439 
L 132.186969 250.843192 
L 133.112834 250.843192 
L 133.112834 250.318944 
L 133.614919 250.318944 
L 133.614919 249.794696 
L 137.875194 249.794696 
L 137.875194 248.746201 
L 138.08195 248.746201 
L 138.08195 248.221953 
L 138.772539 248.221953 
L 138.772539 247.697705 
L 139.544682 247.697705 
L 139.544682 245.600714 
L 139.67899 245.600714 
L 139.67899 244.552219 
L 142.712932 244.552219 
L 142.712932 243.503724 
L 142.824725 243.503724 
L 142.824725 242.455228 
L 144.979451 242.455228 
L 144.979451 241.93098 
L 145.194393 241.93098 
L 145.194393 241.406733 
L 146.788232 241.406733 
L 146.788232 240.358237 
L 148.521108 240.358237 
L 148.521108 239.309742 
L 149.500954 239.309742 
L 149.500954 238.785494 
L 151.239427 238.785494 
L 151.239427 238.261246 
L 152.604984 238.261246 
L 152.604984 237.736999 
L 154.548476 237.736999 
L 154.548476 236.688503 
L 154.816958 236.688503 
L 154.816958 236.164255 
L 155.103162 236.164255 
L 155.135881 233.543017 
L 155.788023 233.543017 
L 155.798511 232.494521 
L 157.598639 232.494521 
L 157.598639 231.446026 
L 158.055226 231.446026 
L 158.055226 230.921778 
L 160.382475 230.921778 
L 160.382475 230.397531 
L 162.367814 230.397531 
L 162.367814 229.873283 
L 162.847718 229.873283 
L 162.847718 228.824787 
L 163.130734 228.824787 
L 163.130734 227.776292 
L 163.415904 227.776292 
L 163.415904 226.727797 
L 165.350069 226.727797 
L 165.350069 226.203549 
L 166.411859 226.203549 
L 166.434475 224.630806 
L 166.924643 224.630806 
L 166.924643 223.058063 
L 167.927256 223.058063 
L 167.927256 222.533815 
L 168.572927 222.533815 
L 168.572927 222.009567 
L 169.257691 222.009567 
L 169.353327 220.436824 
L 171.145046 220.436824 
L 171.145046 219.912576 
L 172.981376 219.912576 
L 172.981376 218.864081 
L 173.291382 218.864081 
L 173.291382 217.815585 
L 173.810687 217.815585 
L 173.810687 212.04886 
L 174.42166 212.04886 
L 174.42166 211.000365 
L 175.395194 211.000365 
L 175.395194 210.476117 
L 176.18244 210.476117 
L 176.27836 209.427622 
L 177.160854 209.427622 
L 177.160854 208.903374 
L 177.413429 208.903374 
L 177.413429 208.379126 
L 180.669724 208.379126 
L 180.669724 207.854879 
L 183.339149 207.854879 
L 183.339149 199.466915 
L 183.933698 199.466915 
L 183.933698 198.942667 
L 187.005688 198.942667 
L 187.005688 197.894172 
L 187.916105 197.894172 
L 187.916105 196.845677 
L 188.762248 196.845677 
L 188.762248 195.272933 
L 189.465326 195.272933 
L 189.465326 194.748686 
L 192.350178 194.748686 
L 192.350178 193.70019 
L 194.489143 193.70019 
L 194.489143 187.409218 
L 194.885052 187.409218 
L 194.885052 185.836474 
L 195.099941 185.836474 
L 195.099941 185.312227 
L 207.929175 185.312227 
L 207.980262 183.739484 
L 226.839937 183.739484 
L 226.845674 172.206034 
L 233.337631 172.206034 
L 233.342026 164.866566 
L 242.510948 164.866566 
L 242.510948 164.342318 
L 246.725048 164.342318 
L 246.825803 150.711877 
L 246.846231 150.711877 
L 246.846231 149.663382 
L 252.832938 149.663382 
L 252.912658 148.090639 
L 252.951511 148.090639 
L 252.951511 147.566391 
L 254.231755 147.566391 
L 254.335569 143.372409 
L 254.35372 143.372409 
L 254.436351 133.93595 
L 254.475978 133.93595 
L 254.559373 125.023739 
L 254.593371 125.023739 
L 254.593371 124.499491 
L 254.725294 124.499491 
L 254.744039 113.490289 
L 257.390898 113.490289 
L 257.39187 108.247812 
L 258.678581 108.247812 
L 258.68293 100.908344 
L 262.795417 100.908344 
L 262.84701 94.617371 
L 265.454685 94.617371 
L 265.511723 91.471885 
L 266.167027 91.471885 
L 266.277349 82.035426 
L 266.305308 82.035426 
L 266.395471 75.744454 
L 267.79407 75.744454 
L 267.794601 74.695958 
L 268.50939 74.695958 
L 268.511846 69.977729 
L 270.955586 69.977729 
L 270.975089 63.686756 
L 272.667252 63.686756 
L 272.667252 63.162508 
L 273.122044 63.162508 
L 273.227212 58.444279 
L 273.277269 58.444279 
L 273.283647 57.395783 
L 274.231118 57.395783 
L 274.231484 54.774545 
L 276.478228 54.774545 
L 276.484551 52.153306 
L 278.066022 52.153306 
L 278.119549 46.910829 
L 278.182609 46.910829 
L 278.185699 45.338086 
L 278.904722 45.338086 
L 278.904722 43.765343 
L 279.284748 43.765343 
L 279.284748 42.716847 
L 280.633304 42.716847 
L 280.643295 41.144104 
L 281.944392 41.144104 
L 281.946353 39.571361 
L 282.576396 39.571361 
L 282.576396 39.047113 
L 282.882753 39.047113 
L 282.882753 38.522865 
L 283.994008 38.522865 
L 283.994008 36.950122 
L 285.076643 36.950122 
L 285.076643 36.425875 
L 285.60027 36.425875 
L 285.60027 35.901627 
L 285.857802 35.901627 
L 285.858698 33.804636 
L 286.797319 33.804636 
L 286.797319 33.280388 
L 287.690899 33.280388 
L 287.753739 31.707645 
L 288.171606 31.707645 
L 288.171606 31.183397 
L 290.024732 31.183397 
L 290.024732 30.65915 
L 290.407856 30.65915 
L 290.407856 30.134902 
L 291.320666 30.134902 
L 291.320666 29.610654 
L 293.202667 29.610654 
L 293.202667 29.086407 
L 293.867437 29.086407 
L 293.867437 28.562159 
L 296.964712 28.562159 
L 296.995362 27.513663 
L 333.429677 27.513663 
L 333.429677 27.513663 
" style="fill:none;stroke:#6495ed;stroke-linecap:square;stroke-width:1.5;"/>
   </g>
   <g id="line2d_44">
    <defs>
     <path d="M -0 6 
L 6 -6 
L -6 -6 
z
" id="m64c3b01adf" style="stroke:#6495ed;stroke-linejoin:miter;stroke-width:1.5;"/>
    </defs>
    <g>
     <use style="fill-opacity:0;stroke:#6495ed;stroke-linejoin:miter;stroke-width:1.5;" x="102.246616" xlink:href="#m64c3b01adf" y="280.201064"/>
     <use style="fill-opacity:0;stroke:#6495ed;stroke-linejoin:miter;stroke-width:1.5;" x="189.465326" xlink:href="#m64c3b01adf" y="195.272933"/>
     <use style="fill-opacity:0;stroke:#6495ed;stroke-linejoin:miter;stroke-width:1.5;" x="246.728873" xlink:href="#m64c3b01adf" y="162.769575"/>
     <use style="fill-opacity:0;stroke:#6495ed;stroke-linejoin:miter;stroke-width:1.5;" x="273.283647" xlink:href="#m64c3b01adf" y="57.395783"/>
     <use style="fill-opacity:0;stroke:#6495ed;stroke-linejoin:miter;stroke-width:1.5;" x="296.995362" xlink:href="#m64c3b01adf" y="27.513663"/>
     <use style="fill-opacity:0;stroke:#6495ed;stroke-linejoin:miter;stroke-width:1.5;" x="333.429677" xlink:href="#m64c3b01adf" y="27.513663"/>
    </g>
   </g>
   <g id="line2d_45">
    <path style="fill:none;stroke:#6495ed;stroke-linecap:square;stroke-width:1.5;"/>
    <g/>
   </g>
   <g id="line2d_46">
    <path clip-path="url(#p8c8c3765e5)" d="M 254.198341 147.566391 
" style="fill:none;stroke:#6495ed;stroke-linecap:square;stroke-width:1.5;"/>
    <defs>
     <path d="M -12 12 
L 12 -12 
M -12 -12 
L 12 12 
" id="m8ab182428b" style="stroke:#6495ed;stroke-width:3;"/>
    </defs>
    <g clip-path="url(#p8c8c3765e5)">
     <use style="fill:#6495ed;stroke:#6495ed;stroke-width:3;" x="254.198341" xlink:href="#m8ab182428b" y="147.566391"/>
    </g>
   </g>
   <g id="line2d_47">
    <defs>
     <path d="M 0 1.5 
C 0.397805 1.5 0.77937 1.341951 1.06066 1.06066 
C 1.341951 0.77937 1.5 0.397805 1.5 0 
C 1.5 -0.397805 1.341951 -0.77937 1.06066 -1.06066 
C 0.77937 -1.341951 0.397805 -1.5 0 -1.5 
C -0.397805 -1.5 -0.77937 -1.341951 -1.06066 -1.06066 
C -1.341951 -0.77937 -1.5 -0.397805 -1.5 0 
C -1.5 0.397805 -1.341951 0.77937 -1.06066 1.06066 
C -0.77937 1.341951 -0.397805 1.5 0 1.5 
z
" id="m915024afdb" style="stroke:#ff0000;"/>
    </defs>
    <g>
     <use style="fill:#ff0000;stroke:#ff0000;" x="265.599267" xlink:href="#m915024afdb" y="237.212751"/>
     <use style="fill:#ff0000;stroke:#ff0000;" x="265.599267" xlink:href="#m915024afdb" y="237.212751"/>
    </g>
   </g>
   <g id="line2d_48">
    <path d="M 113.077449 294.88 
L 113.077449 292.783009 
L 116.484234 292.783009 
L 116.484234 291.734514 
L 147.155983 291.734514 
L 147.190601 289.113275 
L 147.328378 289.113275 
L 147.413932 285.967789 
L 147.448035 285.967789 
L 147.448035 285.443541 
L 147.617542 285.443541 
L 147.617542 283.870798 
L 150.16818 283.870798 
L 150.16818 283.34655 
L 151.93575 283.34655 
L 151.93575 282.822302 
L 152.503704 282.822302 
L 152.503704 281.773807 
L 152.630211 281.773807 
L 152.630211 280.725312 
L 154.378522 280.725312 
L 154.378522 280.201064 
L 156.068968 280.201064 
L 156.068968 278.104073 
L 157.149 278.104073 
L 157.149 277.579825 
L 158.85476 277.579825 
L 158.85476 277.055578 
L 160.486577 277.055578 
L 160.486577 276.53133 
L 162.238508 276.53133 
L 162.238508 275.482834 
L 165.819025 275.482834 
L 165.819025 274.958587 
L 168.336793 274.958587 
L 168.412507 273.910091 
L 169.324692 273.910091 
L 169.424706 272.337348 
L 169.448434 272.337348 
L 169.448434 271.8131 
L 169.613617 271.8131 
L 169.613617 271.288853 
L 170.470259 271.288853 
L 170.568293 269.716109 
L 175.852251 269.716109 
L 175.852251 268.667614 
L 175.972759 268.667614 
L 175.972759 267.094871 
L 179.780078 267.094871 
L 179.780078 266.046375 
L 188.813102 266.046375 
L 188.905181 263.949385 
L 190.388292 263.949385 
L 190.388292 263.425137 
L 195.213814 263.425137 
L 195.213814 262.900889 
L 195.694954 262.900889 
L 195.694954 262.376641 
L 195.818287 262.376641 
L 195.859202 261.328146 
L 196.273067 261.328146 
L 196.273067 260.803898 
L 199.701626 260.803898 
L 199.701626 260.279651 
L 200.085472 260.279651 
L 200.085472 259.231155 
L 203.637589 259.231155 
L 203.741288 258.18266 
L 203.815437 258.18266 
L 203.815437 257.658412 
L 203.997832 257.658412 
L 204.001015 256.609917 
L 205.986177 256.609917 
L 205.986177 256.085669 
L 208.706643 256.085669 
L 208.706643 255.561421 
L 208.841682 255.561421 
L 208.841682 255.037173 
L 209.83565 255.037173 
L 209.83565 254.512926 
L 211.339961 254.512926 
L 211.339961 253.988678 
L 213.426355 253.988678 
L 213.492471 252.940182 
L 215.524696 252.940182 
L 215.524696 252.415935 
L 219.514733 252.415935 
L 219.584342 251.367439 
L 220.856548 251.367439 
L 220.856548 250.843192 
L 222.431904 250.843192 
L 222.431904 250.318944 
L 224.348074 250.318944 
L 224.348074 249.794696 
L 225.338974 249.794696 
L 225.338974 249.270448 
L 226.258451 249.270448 
L 226.258451 248.746201 
L 227.982169 248.746201 
L 228.062522 247.697705 
L 231.325932 247.697705 
L 231.325932 247.173458 
L 233.714409 247.173458 
L 233.714409 246.64921 
L 233.953686 246.64921 
L 234.053289 245.600714 
L 235.2249 245.600714 
L 235.2249 245.076467 
L 237.129059 245.076467 
L 237.134163 244.027971 
L 237.411078 244.027971 
L 237.411078 243.503724 
L 238.444861 243.503724 
L 238.48093 242.455228 
L 242.023635 242.455228 
L 242.045964 241.406733 
L 243.07388 241.406733 
L 243.07388 240.882485 
L 247.522794 240.882485 
L 247.522794 240.358237 
L 248.254635 240.358237 
L 248.254635 239.83399 
L 248.388275 239.83399 
L 248.388275 239.309742 
L 253.526086 239.309742 
L 253.526086 238.785494 
L 253.958563 238.785494 
L 253.958563 238.261246 
L 257.378117 238.261246 
L 257.378117 237.736999 
L 265.599267 237.736999 
L 265.599267 237.212751 
L 333.429677 237.212751 
L 333.429677 237.212751 
" style="fill:none;stroke:#ff0000;stroke-linecap:square;stroke-width:1.5;"/>
   </g>
   <g id="line2d_49">
    <defs>
     <path d="M 0 -6 
L -5.196152 -3 
L -5.196152 3 
L -0 6 
L 5.196152 3 
L 5.196152 -3 
z
" id="med4dc6be1e" style="stroke:#ff0000;stroke-linejoin:miter;stroke-width:1.5;"/>
    </defs>
    <g>
     <use style="fill-opacity:0;stroke:#ff0000;stroke-linejoin:miter;stroke-width:1.5;" x="165.819025" xlink:href="#med4dc6be1e" y="274.958587"/>
     <use style="fill-opacity:0;stroke:#ff0000;stroke-linejoin:miter;stroke-width:1.5;" x="220.856548" xlink:href="#med4dc6be1e" y="251.367439"/>
     <use style="fill-opacity:0;stroke:#ff0000;stroke-linejoin:miter;stroke-width:1.5;" x="265.599267" xlink:href="#med4dc6be1e" y="237.736999"/>
     <use style="fill-opacity:0;stroke:#ff0000;stroke-linejoin:miter;stroke-width:1.5;" x="265.599267" xlink:href="#med4dc6be1e" y="237.212751"/>
     <use style="fill-opacity:0;stroke:#ff0000;stroke-linejoin:miter;stroke-width:1.5;" x="333.429677" xlink:href="#med4dc6be1e" y="237.212751"/>
    </g>
   </g>
   <g id="line2d_50">
    <path style="fill:none;stroke:#ff0000;stroke-linecap:square;stroke-width:1.5;"/>
    <g/>
   </g>
   <g id="line2d_51">
    <path clip-path="url(#p8c8c3765e5)" d="M 194.310092 263.425137 
" style="fill:none;stroke:#ff0000;stroke-linecap:square;stroke-width:1.5;"/>
    <defs>
     <path d="M -12 12 
L 12 -12 
M -12 -12 
L 12 12 
" id="medfbdfe864" style="stroke:#ff0000;stroke-width:3;"/>
    </defs>
    <g clip-path="url(#p8c8c3765e5)">
     <use style="fill:#ff0000;stroke:#ff0000;stroke-width:3;" x="194.310092" xlink:href="#medfbdfe864" y="263.425137"/>
    </g>
   </g>
   <g id="line2d_52">
    <defs>
     <path d="M 0 1.5 
C 0.397805 1.5 0.77937 1.341951 1.06066 1.06066 
C 1.341951 0.77937 1.5 0.397805 1.5 0 
C 1.5 -0.397805 1.341951 -0.77937 1.06066 -1.06066 
C 0.77937 -1.341951 0.397805 -1.5 0 -1.5 
C -0.397805 -1.5 -0.77937 -1.341951 -1.06066 -1.06066 
C -1.341951 -0.77937 -1.5 -0.397805 -1.5 0 
C -1.5 0.397805 -1.341951 0.77937 -1.06066 1.06066 
C -0.77937 1.341951 -0.397805 1.5 0 1.5 
z
" id="mc720d630e3" style="stroke:#9acd32;"/>
    </defs>
    <g>
     <use style="fill:#9acd32;stroke:#9acd32;" x="161.718772" xlink:href="#mc720d630e3" y="242.455228"/>
     <use style="fill:#9acd32;stroke:#9acd32;" x="161.718772" xlink:href="#mc720d630e3" y="242.455228"/>
    </g>
   </g>
   <g id="line2d_53">
    <path d="M 28.429836 294.88 
L 28.429836 290.686018 
L 40.355341 290.686018 
L 40.355341 290.161771 
L 56.12 290.161771 
L 56.12 288.06478 
L 59.256818 288.06478 
L 59.256818 287.016284 
L 64.20635 287.016284 
L 64.20635 285.967789 
L 66.232791 285.967789 
L 66.232791 285.443541 
L 78.158295 285.443541 
L 78.158295 284.395046 
L 79.971009 284.395046 
L 79.971009 283.870798 
L 81.610808 283.870798 
L 81.610808 282.298055 
L 84.484951 282.298055 
L 84.484951 281.249559 
L 86.36371 281.249559 
L 86.36371 280.725312 
L 91.460924 280.725312 
L 91.460924 279.152568 
L 93.140781 279.152568 
L 93.140781 278.104073 
L 93.536312 278.104073 
L 93.536312 277.579825 
L 94.67111 277.579825 
L 94.67111 276.53133 
L 99.982863 276.53133 
L 99.982863 275.482834 
L 101.025901 275.482834 
L 101.025901 273.385844 
L 104.865056 273.385844 
L 104.865056 272.861596 
L 105.656224 272.861596 
L 105.656224 271.288853 
L 106.226603 271.288853 
L 106.226603 270.764605 
L 108.001874 270.764605 
L 108.001874 270.240357 
L 108.663681 270.240357 
L 108.663681 269.191862 
L 109.300972 269.191862 
L 109.300972 268.143366 
L 109.763911 268.143366 
L 109.763911 267.619119 
L 111.222824 267.619119 
L 111.222824 267.094871 
L 111.773426 267.094871 
L 111.773426 266.570623 
L 112.306953 266.570623 
L 112.306953 265.522128 
L 113.934809 265.522128 
L 113.934809 264.99788 
L 114.406204 264.99788 
L 114.406204 264.473632 
L 114.865028 264.473632 
L 114.865028 262.376641 
L 116.689057 262.376641 
L 116.689057 261.328146 
L 117.091528 261.328146 
L 117.091528 260.803898 
L 119.06263 260.803898 
L 119.06263 259.755403 
L 120.507839 259.755403 
L 120.507839 259.231155 
L 120.830944 259.231155 
L 120.830944 258.18266 
L 122.140223 258.18266 
L 122.140223 257.658412 
L 122.434331 257.658412 
L 122.434331 257.134164 
L 123.900947 257.134164 
L 123.900947 256.085669 
L 126.273486 256.085669 
L 126.273486 255.561421 
L 127.673027 255.561421 
L 127.673027 255.037173 
L 128.766593 255.037173 
L 128.766593 253.988678 
L 130.584352 253.988678 
L 130.584352 253.46443 
L 131.512181 253.46443 
L 131.512181 252.940182 
L 131.683376 252.940182 
L 131.683376 252.415935 
L 132.55522 252.415935 
L 132.55522 251.891687 
L 133.879324 251.891687 
L 133.879324 251.367439 
L 134.176608 251.367439 
L 134.176608 250.318944 
L 136.223505 250.318944 
L 136.223505 249.270448 
L 136.353845 249.270448 
L 136.353845 247.173458 
L 137.665922 247.173458 
L 137.665922 246.64921 
L 138.286251 246.64921 
L 138.286251 246.124962 
L 140.023364 246.124962 
L 140.023364 245.076467 
L 143.502083 245.076467 
L 143.502083 244.552219 
L 151.883176 244.552219 
L 151.883176 244.027971 
L 152.642811 244.027971 
L 152.642811 243.503724 
L 157.692809 243.503724 
L 157.692809 242.979476 
L 161.718772 242.979476 
L 161.718772 242.455228 
L 333.429677 242.455228 
" style="fill:none;stroke:#9acd32;stroke-linecap:square;stroke-width:1.5;"/>
   </g>
   <g id="line2d_54">
    <defs>
     <path d="M 0 -6 
L -6 6 
L 6 6 
z
" id="m3c7c7331ef" style="stroke:#9acd32;stroke-linejoin:miter;stroke-width:1.5;"/>
    </defs>
    <g>
     <use style="fill-opacity:0;stroke:#9acd32;stroke-linejoin:miter;stroke-width:1.5;" x="64.20635" xlink:href="#m3c7c7331ef" y="285.967789"/>
     <use style="fill-opacity:0;stroke:#9acd32;stroke-linejoin:miter;stroke-width:1.5;" x="119.06263" xlink:href="#m3c7c7331ef" y="259.755403"/>
     <use style="fill-opacity:0;stroke:#9acd32;stroke-linejoin:miter;stroke-width:1.5;" x="161.718772" xlink:href="#m3c7c7331ef" y="242.979476"/>
     <use style="fill-opacity:0;stroke:#9acd32;stroke-linejoin:miter;stroke-width:1.5;" x="161.718772" xlink:href="#m3c7c7331ef" y="242.455228"/>
     <use style="fill-opacity:0;stroke:#9acd32;stroke-linejoin:miter;stroke-width:1.5;" x="161.718772" xlink:href="#m3c7c7331ef" y="242.455228"/>
     <use style="fill-opacity:0;stroke:#9acd32;stroke-linejoin:miter;stroke-width:1.5;" x="333.429677" xlink:href="#m3c7c7331ef" y="242.455228"/>
    </g>
   </g>
   <g id="line2d_55">
    <path style="fill:none;stroke:#9acd32;stroke-linecap:square;stroke-width:1.5;"/>
    <g/>
   </g>
   <g id="line2d_56">
    <path clip-path="url(#p8c8c3765e5)" d="M 80.810437 283.870798 
" style="fill:none;stroke:#9acd32;stroke-linecap:square;stroke-width:1.5;"/>
    <defs>
     <path d="M -12 12 
L 12 -12 
M -12 -12 
L 12 12 
" id="m155aad5793" style="stroke:#9acd32;stroke-width:3;"/>
    </defs>
    <g clip-path="url(#p8c8c3765e5)">
     <use style="fill:#9acd32;stroke:#9acd32;stroke-width:3;" x="80.810437" xlink:href="#m155aad5793" y="283.870798"/>
    </g>
   </g>
   <g id="line2d_57">
    <path d="M 333.429677 242.455228 
L 363.933742 289.532673 
" style="fill:none;stroke:#9acd32;stroke-linecap:square;stroke-width:1.5;"/>
    <g>
     <use style="fill-opacity:0;stroke:#9acd32;stroke-linejoin:miter;stroke-width:1.5;" x="333.429677" xlink:href="#m3c7c7331ef" y="242.455228"/>
     <use style="fill-opacity:0;stroke:#9acd32;stroke-linejoin:miter;stroke-width:1.5;" x="363.933742" xlink:href="#m3c7c7331ef" y="289.532673"/>
    </g>
   </g>
   <g id="line2d_58">
    <path d="M 333.429677 237.212751 
L 363.933742 246.754059 
" style="fill:none;stroke:#ff0000;stroke-linecap:square;stroke-width:1.5;"/>
    <g>
     <use style="fill-opacity:0;stroke:#ff0000;stroke-linejoin:miter;stroke-width:1.5;" x="333.429677" xlink:href="#med4dc6be1e" y="237.212751"/>
     <use style="fill-opacity:0;stroke:#ff0000;stroke-linejoin:miter;stroke-width:1.5;" x="363.933742" xlink:href="#med4dc6be1e" y="246.754059"/>
    </g>
   </g>
   <g id="line2d_59">
    <path d="M 333.429677 180.06975 
L 363.933742 203.975446 
" style="fill:none;stroke:#ff00ff;stroke-linecap:square;stroke-width:1.5;"/>
    <g>
     <use style="fill-opacity:0;stroke:#ff00ff;stroke-linejoin:miter;stroke-width:1.5;" x="333.429677" xlink:href="#m1b8be3eda5" y="180.06975"/>
     <use style="fill-opacity:0;stroke:#ff00ff;stroke-linejoin:miter;stroke-width:1.5;" x="363.933742" xlink:href="#m1b8be3eda5" y="203.975446"/>
    </g>
   </g>
   <g id="line2d_60">
    <path d="M 333.429677 27.513663 
L 363.933742 161.196832 
" style="fill:none;stroke:#6495ed;stroke-linecap:square;stroke-width:1.5;"/>
    <g>
     <use style="fill-opacity:0;stroke:#6495ed;stroke-linejoin:miter;stroke-width:1.5;" x="333.429677" xlink:href="#m64c3b01adf" y="27.513663"/>
     <use style="fill-opacity:0;stroke:#6495ed;stroke-linejoin:miter;stroke-width:1.5;" x="363.933742" xlink:href="#m64c3b01adf" y="161.196832"/>
    </g>
   </g>
   <g id="line2d_61">
    <path d="M 333.429677 27.513663 
L 363.933742 118.418218 
" style="fill:none;stroke:#ffa500;stroke-linecap:square;stroke-width:1.5;"/>
    <g>
     <use style="fill-opacity:0;stroke:#ffa500;stroke-linejoin:bevel;stroke-width:1.5;" x="333.429677" xlink:href="#md5935398c9" y="27.513663"/>
     <use style="fill-opacity:0;stroke:#ffa500;stroke-linejoin:bevel;stroke-width:1.5;" x="363.933742" xlink:href="#md5935398c9" y="118.418218"/>
    </g>
   </g>
   <g id="line2d_62">
    <path d="M 333.429677 27.513663 
L 363.933742 75.639604 
" style="fill:none;stroke:#000080;stroke-linecap:square;stroke-width:1.5;"/>
    <g>
     <use style="fill-opacity:0;stroke:#000080;stroke-width:1.5;" x="333.429677" xlink:href="#m870b904663" y="27.513663"/>
     <use style="fill-opacity:0;stroke:#000080;stroke-width:1.5;" x="363.933742" xlink:href="#m870b904663" y="75.639604"/>
    </g>
   </g>
   <g id="line2d_63">
    <path d="M 333.429677 294.88 
L 333.429677 27.513663 
" style="fill:none;stroke:#000000;stroke-linecap:square;stroke-width:1.5;"/>
   </g>
   <g id="patch_3">
    <path d="M 56.12 294.88 
L 56.12 24.84 
" style="fill:none;stroke:#000000;stroke-linecap:square;stroke-linejoin:miter;stroke-width:0.8;"/>
   </g>
   <g id="patch_4">
    <path d="M 399.984 294.88 
L 399.984 24.84 
" style="fill:none;stroke:#000000;stroke-linecap:square;stroke-linejoin:miter;stroke-width:0.8;"/>
   </g>
   <g id="patch_5">
    <path d="M 56.12 294.88 
L 399.984 294.88 
" style="fill:none;stroke:#000000;stroke-linecap:square;stroke-linejoin:miter;stroke-width:0.8;"/>
   </g>
   <g id="patch_6">
    <path d="M 56.12 24.84 
L 399.984 24.84 
" style="fill:none;stroke:#000000;stroke-linecap:square;stroke-linejoin:miter;stroke-width:0.8;"/>
   </g>
   <g id="text_14">
    <!-- gsa solve -->
    <g transform="translate(369.479935 294.223611)scale(0.17 -0.17)">
     <use xlink:href="#DejaVuSans-67"/>
     <use x="63.476562" xlink:href="#DejaVuSans-73"/>
     <use x="115.576172" xlink:href="#DejaVuSans-61"/>
     <use x="176.855469" xlink:href="#DejaVuSans-20"/>
     <use x="208.642578" xlink:href="#DejaVuSans-73"/>
     <use x="260.742188" xlink:href="#DejaVuSans-6f"/>
     <use x="321.923828" xlink:href="#DejaVuSans-6c"/>
     <use x="349.707031" xlink:href="#DejaVuSans-76"/>
     <use x="408.886719" xlink:href="#DejaVuSans-65"/>
    </g>
   </g>
   <g id="text_15">
    <!-- Rosenbroc -->
    <defs>
     <path d="M 44.390625 34.1875 
Q 47.5625 33.109375 50.5625 29.59375 
Q 53.5625 26.078125 56.59375 19.921875 
L 66.609375 0 
L 56 0 
L 46.6875 18.703125 
Q 43.0625 26.03125 39.671875 28.421875 
Q 36.28125 30.8125 30.421875 30.8125 
L 19.671875 30.8125 
L 19.671875 0 
L 9.8125 0 
L 9.8125 72.90625 
L 32.078125 72.90625 
Q 44.578125 72.90625 50.734375 67.671875 
Q 56.890625 62.453125 56.890625 51.90625 
Q 56.890625 45.015625 53.6875 40.46875 
Q 50.484375 35.9375 44.390625 34.1875 
z
M 19.671875 64.796875 
L 19.671875 38.921875 
L 32.078125 38.921875 
Q 39.203125 38.921875 42.84375 42.21875 
Q 46.484375 45.515625 46.484375 51.90625 
Q 46.484375 58.296875 42.84375 61.546875 
Q 39.203125 64.796875 32.078125 64.796875 
z
" id="DejaVuSans-52"/>
     <path d="M 48.6875 27.296875 
Q 48.6875 37.203125 44.609375 42.84375 
Q 40.53125 48.484375 33.40625 48.484375 
Q 26.265625 48.484375 22.1875 42.84375 
Q 18.109375 37.203125 18.109375 27.296875 
Q 18.109375 17.390625 22.1875 11.75 
Q 26.265625 6.109375 33.40625 6.109375 
Q 40.53125 6.109375 44.609375 11.75 
Q 48.6875 17.390625 48.6875 27.296875 
z
M 18.109375 46.390625 
Q 20.953125 51.265625 25.265625 53.625 
Q 29.59375 56 35.59375 56 
Q 45.5625 56 51.78125 48.09375 
Q 58.015625 40.1875 58.015625 27.296875 
Q 58.015625 14.40625 51.78125 6.484375 
Q 45.5625 -1.421875 35.59375 -1.421875 
Q 29.59375 -1.421875 25.265625 0.953125 
Q 20.953125 3.328125 18.109375 8.203125 
L 18.109375 0 
L 9.078125 0 
L 9.078125 75.984375 
L 18.109375 75.984375 
z
" id="DejaVuSans-62"/>
    </defs>
    <g transform="translate(369.479935 251.444997)scale(0.17 -0.17)">
     <use xlink:href="#DejaVuSans-52"/>
     <use x="69.419922" xlink:href="#DejaVuSans-6f"/>
     <use x="130.601562" xlink:href="#DejaVuSans-73"/>
     <use x="182.701172" xlink:href="#DejaVuSans-65"/>
     <use x="244.224609" xlink:href="#DejaVuSans-6e"/>
     <use x="307.603516" xlink:href="#DejaVuSans-62"/>
     <use x="371.080078" xlink:href="#DejaVuSans-72"/>
     <use x="412.162109" xlink:href="#DejaVuSans-6f"/>
     <use x="473.34375" xlink:href="#DejaVuSans-63"/>
    </g>
   </g>
   <g id="text_16">
    <!-- DASA -->
    <defs>
     <path d="M 19.671875 64.796875 
L 19.671875 8.109375 
L 31.59375 8.109375 
Q 46.6875 8.109375 53.6875 14.9375 
Q 60.6875 21.78125 60.6875 36.53125 
Q 60.6875 51.171875 53.6875 57.984375 
Q 46.6875 64.796875 31.59375 64.796875 
z
M 9.8125 72.90625 
L 30.078125 72.90625 
Q 51.265625 72.90625 61.171875 64.09375 
Q 71.09375 55.28125 71.09375 36.53125 
Q 71.09375 17.671875 61.125 8.828125 
Q 51.171875 0 30.078125 0 
L 9.8125 0 
z
" id="DejaVuSans-44"/>
     <path d="M 34.1875 63.1875 
L 20.796875 26.90625 
L 47.609375 26.90625 
z
M 28.609375 72.90625 
L 39.796875 72.90625 
L 67.578125 0 
L 57.328125 0 
L 50.6875 18.703125 
L 17.828125 18.703125 
L 11.1875 0 
L 0.78125 0 
z
" id="DejaVuSans-41"/>
     <path d="M 53.515625 70.515625 
L 53.515625 60.890625 
Q 47.90625 63.578125 42.921875 64.890625 
Q 37.9375 66.21875 33.296875 66.21875 
Q 25.25 66.21875 20.875 63.09375 
Q 16.5 59.96875 16.5 54.203125 
Q 16.5 49.359375 19.40625 46.890625 
Q 22.3125 44.4375 30.421875 42.921875 
L 36.375 41.703125 
Q 47.40625 39.59375 52.65625 34.296875 
Q 57.90625 29 57.90625 20.125 
Q 57.90625 9.515625 50.796875 4.046875 
Q 43.703125 -1.421875 29.984375 -1.421875 
Q 24.8125 -1.421875 18.96875 -0.25 
Q 13.140625 0.921875 6.890625 3.21875 
L 6.890625 13.375 
Q 12.890625 10.015625 18.65625 8.296875 
Q 24.421875 6.59375 29.984375 6.59375 
Q 38.421875 6.59375 43.015625 9.90625 
Q 47.609375 13.234375 47.609375 19.390625 
Q 47.609375 24.75 44.3125 27.78125 
Q 41.015625 30.8125 33.5 32.328125 
L 27.484375 33.5 
Q 16.453125 35.6875 11.515625 40.375 
Q 6.59375 45.0625 6.59375 53.421875 
Q 6.59375 63.09375 13.40625 68.65625 
Q 20.21875 74.21875 32.171875 74.21875 
Q 37.3125 74.21875 42.625 73.28125 
Q 47.953125 72.359375 53.515625 70.515625 
z
" id="DejaVuSans-53"/>
    </defs>
    <g transform="translate(369.479935 208.666383)scale(0.17 -0.17)">
     <use xlink:href="#DejaVuSans-44"/>
     <use x="76.986328" xlink:href="#DejaVuSans-41"/>
     <use x="145.394531" xlink:href="#DejaVuSans-53"/>
     <use x="208.886719" xlink:href="#DejaVuSans-41"/>
    </g>
   </g>
   <g id="text_17">
    <!-- PSO -->
    <defs>
     <path d="M 19.671875 64.796875 
L 19.671875 37.40625 
L 32.078125 37.40625 
Q 38.96875 37.40625 42.71875 40.96875 
Q 46.484375 44.53125 46.484375 51.125 
Q 46.484375 57.671875 42.71875 61.234375 
Q 38.96875 64.796875 32.078125 64.796875 
z
M 9.8125 72.90625 
L 32.078125 72.90625 
Q 44.34375 72.90625 50.609375 67.359375 
Q 56.890625 61.8125 56.890625 51.125 
Q 56.890625 40.328125 50.609375 34.8125 
Q 44.34375 29.296875 32.078125 29.296875 
L 19.671875 29.296875 
L 19.671875 0 
L 9.8125 0 
z
" id="DejaVuSans-50"/>
     <path d="M 39.40625 66.21875 
Q 28.65625 66.21875 22.328125 58.203125 
Q 16.015625 50.203125 16.015625 36.375 
Q 16.015625 22.609375 22.328125 14.59375 
Q 28.65625 6.59375 39.40625 6.59375 
Q 50.140625 6.59375 56.421875 14.59375 
Q 62.703125 22.609375 62.703125 36.375 
Q 62.703125 50.203125 56.421875 58.203125 
Q 50.140625 66.21875 39.40625 66.21875 
z
M 39.40625 74.21875 
Q 54.734375 74.21875 63.90625 63.9375 
Q 73.09375 53.65625 73.09375 36.375 
Q 73.09375 19.140625 63.90625 8.859375 
Q 54.734375 -1.421875 39.40625 -1.421875 
Q 24.03125 -1.421875 14.8125 8.828125 
Q 5.609375 19.09375 5.609375 36.375 
Q 5.609375 53.65625 14.8125 63.9375 
Q 24.03125 74.21875 39.40625 74.21875 
z
" id="DejaVuSans-4f"/>
    </defs>
    <g transform="translate(369.479935 165.887769)scale(0.17 -0.17)">
     <use xlink:href="#DejaVuSans-50"/>
     <use x="60.302734" xlink:href="#DejaVuSans-53"/>
     <use x="123.779297" xlink:href="#DejaVuSans-4f"/>
    </g>
   </g>
   <g id="text_18">
    <!-- GA -->
    <defs>
     <path d="M 59.515625 10.40625 
L 59.515625 29.984375 
L 43.40625 29.984375 
L 43.40625 38.09375 
L 69.28125 38.09375 
L 69.28125 6.78125 
Q 63.578125 2.734375 56.6875 0.65625 
Q 49.8125 -1.421875 42 -1.421875 
Q 24.90625 -1.421875 15.25 8.5625 
Q 5.609375 18.5625 5.609375 36.375 
Q 5.609375 54.25 15.25 64.234375 
Q 24.90625 74.21875 42 74.21875 
Q 49.125 74.21875 55.546875 72.453125 
Q 61.96875 70.703125 67.390625 67.28125 
L 67.390625 56.78125 
Q 61.921875 61.421875 55.765625 63.765625 
Q 49.609375 66.109375 42.828125 66.109375 
Q 29.4375 66.109375 22.71875 58.640625 
Q 16.015625 51.171875 16.015625 36.375 
Q 16.015625 21.625 22.71875 14.15625 
Q 29.4375 6.6875 42.828125 6.6875 
Q 48.046875 6.6875 52.140625 7.59375 
Q 56.25 8.5 59.515625 10.40625 
z
" id="DejaVuSans-47"/>
    </defs>
    <g transform="translate(369.479935 123.109155)scale(0.17 -0.17)">
     <use xlink:href="#DejaVuSans-47"/>
     <use x="77.490234" xlink:href="#DejaVuSans-41"/>
    </g>
   </g>
   <g id="text_19">
    <!-- ALPS -->
    <defs>
     <path d="M 9.8125 72.90625 
L 19.671875 72.90625 
L 19.671875 8.296875 
L 55.171875 8.296875 
L 55.171875 0 
L 9.8125 0 
z
" id="DejaVuSans-4c"/>
    </defs>
    <g transform="translate(369.479935 80.330541)scale(0.17 -0.17)">
     <use xlink:href="#DejaVuSans-41"/>
     <use x="68.408203" xlink:href="#DejaVuSans-4c"/>
     <use x="124.121094" xlink:href="#DejaVuSans-50"/>
     <use x="184.423828" xlink:href="#DejaVuSans-53"/>
    </g>
   </g>
   <g id="text_20">
    <!-- best 2009 -->
    <defs>
     <path d="M 10.984375 1.515625 
L 10.984375 10.5 
Q 14.703125 8.734375 18.5 7.8125 
Q 22.3125 6.890625 25.984375 6.890625 
Q 35.75 6.890625 40.890625 13.453125 
Q 46.046875 20.015625 46.78125 33.40625 
Q 43.953125 29.203125 39.59375 26.953125 
Q 35.25 24.703125 29.984375 24.703125 
Q 19.046875 24.703125 12.671875 31.3125 
Q 6.296875 37.9375 6.296875 49.421875 
Q 6.296875 60.640625 12.9375 67.421875 
Q 19.578125 74.21875 30.609375 74.21875 
Q 43.265625 74.21875 49.921875 64.515625 
Q 56.59375 54.828125 56.59375 36.375 
Q 56.59375 19.140625 48.40625 8.859375 
Q 40.234375 -1.421875 26.421875 -1.421875 
Q 22.703125 -1.421875 18.890625 -0.6875 
Q 15.09375 0.046875 10.984375 1.515625 
z
M 30.609375 32.421875 
Q 37.25 32.421875 41.125 36.953125 
Q 45.015625 41.5 45.015625 49.421875 
Q 45.015625 57.28125 41.125 61.84375 
Q 37.25 66.40625 30.609375 66.40625 
Q 23.96875 66.40625 20.09375 61.84375 
Q 16.21875 57.28125 16.21875 49.421875 
Q 16.21875 41.5 20.09375 36.953125 
Q 23.96875 32.421875 30.609375 32.421875 
z
" id="DejaVuSans-39"/>
    </defs>
    <g transform="translate(369.479935 37.551928)scale(0.17 -0.17)">
     <use xlink:href="#DejaVuSans-62"/>
     <use x="63.476562" xlink:href="#DejaVuSans-65"/>
     <use x="125" xlink:href="#DejaVuSans-73"/>
     <use x="177.099609" xlink:href="#DejaVuSans-74"/>
     <use x="216.308594" xlink:href="#DejaVuSans-20"/>
     <use x="248.095703" xlink:href="#DejaVuSans-32"/>
     <use x="311.71875" xlink:href="#DejaVuSans-30"/>
     <use x="375.341797" xlink:href="#DejaVuSans-30"/>
     <use x="438.964844" xlink:href="#DejaVuSans-39"/>
    </g>
   </g>
   <g id="text_21">
    <!-- bbob f7, 5-D -->
    <defs>
     <path d="M 8.203125 72.90625 
L 55.078125 72.90625 
L 55.078125 68.703125 
L 28.609375 0 
L 18.3125 0 
L 43.21875 64.59375 
L 8.203125 64.59375 
z
" id="DejaVuSans-37"/>
     <path d="M 10.796875 72.90625 
L 49.515625 72.90625 
L 49.515625 64.59375 
L 19.828125 64.59375 
L 19.828125 46.734375 
Q 21.96875 47.46875 24.109375 47.828125 
Q 26.265625 48.1875 28.421875 48.1875 
Q 40.625 48.1875 47.75 41.5 
Q 54.890625 34.8125 54.890625 23.390625 
Q 54.890625 11.625 47.5625 5.09375 
Q 40.234375 -1.421875 26.90625 -1.421875 
Q 22.3125 -1.421875 17.546875 -0.640625 
Q 12.796875 0.140625 7.71875 1.703125 
L 7.71875 11.625 
Q 12.109375 9.234375 16.796875 8.0625 
Q 21.484375 6.890625 26.703125 6.890625 
Q 35.15625 6.890625 40.078125 11.328125 
Q 45.015625 15.765625 45.015625 23.390625 
Q 45.015625 31 40.078125 35.4375 
Q 35.15625 39.890625 26.703125 39.890625 
Q 22.75 39.890625 18.8125 39.015625 
Q 14.890625 38.140625 10.796875 36.28125 
z
" id="DejaVuSans-35"/>
    </defs>
    <g transform="translate(59.55864 35.290806)scale(0.102 -0.102)">
     <use xlink:href="#DejaVuSans-62"/>
     <use x="63.476562" xlink:href="#DejaVuSans-62"/>
     <use x="126.953125" xlink:href="#DejaVuSans-6f"/>
     <use x="188.134766" xlink:href="#DejaVuSans-62"/>
     <use x="251.611328" xlink:href="#DejaVuSans-20"/>
     <use x="283.398438" xlink:href="#DejaVuSans-66"/>
     <use x="318.603516" xlink:href="#DejaVuSans-37"/>
     <use x="382.226562" xlink:href="#DejaVuSans-2c"/>
     <use x="414.013672" xlink:href="#DejaVuSans-20"/>
     <use x="445.800781" xlink:href="#DejaVuSans-35"/>
     <use x="509.423828" xlink:href="#DejaVuSans-2d"/>
     <use x="545.507812" xlink:href="#DejaVuSans-44"/>
    </g>
    <!-- 51 targets: 100..1e-08 -->
    <defs>
     <path d="M 11.71875 12.40625 
L 22.015625 12.40625 
L 22.015625 0 
L 11.71875 0 
z
M 11.71875 51.703125 
L 22.015625 51.703125 
L 22.015625 39.3125 
L 11.71875 39.3125 
z
" id="DejaVuSans-3a"/>
    </defs>
    <g transform="translate(59.55864 46.712575)scale(0.102 -0.102)">
     <use xlink:href="#DejaVuSans-35"/>
     <use x="63.623047" xlink:href="#DejaVuSans-31"/>
     <use x="127.246094" xlink:href="#DejaVuSans-20"/>
     <use x="159.033203" xlink:href="#DejaVuSans-74"/>
     <use x="198.242188" xlink:href="#DejaVuSans-61"/>
     <use x="259.521484" xlink:href="#DejaVuSans-72"/>
     <use x="300.619141" xlink:href="#DejaVuSans-67"/>
     <use x="364.095703" xlink:href="#DejaVuSans-65"/>
     <use x="425.619141" xlink:href="#DejaVuSans-74"/>
     <use x="464.828125" xlink:href="#DejaVuSans-73"/>
     <use x="516.927734" xlink:href="#DejaVuSans-3a"/>
     <use x="550.619141" xlink:href="#DejaVuSans-20"/>
     <use x="582.40625" xlink:href="#DejaVuSans-31"/>
     <use x="646.029297" xlink:href="#DejaVuSans-30"/>
     <use x="709.652344" xlink:href="#DejaVuSans-30"/>
     <use x="773.275391" xlink:href="#DejaVuSans-2e"/>
     <use x="805.0625" xlink:href="#DejaVuSans-2e"/>
     <use x="836.849609" xlink:href="#DejaVuSans-31"/>
     <use x="900.472656" xlink:href="#DejaVuSans-65"/>
     <use x="961.996094" xlink:href="#DejaVuSans-2d"/>
     <use x="998.080078" xlink:href="#DejaVuSans-30"/>
     <use x="1061.703125" xlink:href="#DejaVuSans-38"/>
    </g>
    <!-- 15 instances -->
    <g transform="translate(59.55864 58.134344)scale(0.102 -0.102)">
     <use xlink:href="#DejaVuSans-31"/>
     <use x="63.623047" xlink:href="#DejaVuSans-35"/>
     <use x="127.246094" xlink:href="#DejaVuSans-20"/>
     <use x="159.033203" xlink:href="#DejaVuSans-69"/>
     <use x="186.816406" xlink:href="#DejaVuSans-6e"/>
     <use x="250.195312" xlink:href="#DejaVuSans-73"/>
     <use x="302.294922" xlink:href="#DejaVuSans-74"/>
     <use x="341.503906" xlink:href="#DejaVuSans-61"/>
     <use x="402.783203" xlink:href="#DejaVuSans-6e"/>
     <use x="466.162109" xlink:href="#DejaVuSans-63"/>
     <use x="521.142578" xlink:href="#DejaVuSans-65"/>
     <use x="582.666016" xlink:href="#DejaVuSans-73"/>
    </g>
   </g>
   <g id="text_22">
    <!-- v-coco-version -->
    <g style="fill:#808080;" transform="translate(191.556688 290.099912)scale(0.1 -0.1)">
     <use xlink:href="#DejaVuSans-76"/>
     <use x="59.148438" xlink:href="#DejaVuSans-2d"/>
     <use x="95.232422" xlink:href="#DejaVuSans-63"/>
     <use x="150.212891" xlink:href="#DejaVuSans-6f"/>
     <use x="211.394531" xlink:href="#DejaVuSans-63"/>
     <use x="266.375" xlink:href="#DejaVuSans-6f"/>
     <use x="327.572266" xlink:href="#DejaVuSans-2d"/>
     <use x="363.625" xlink:href="#DejaVuSans-76"/>
     <use x="422.804688" xlink:href="#DejaVuSans-65"/>
     <use x="484.328125" xlink:href="#DejaVuSans-72"/>
     <use x="525.441406" xlink:href="#DejaVuSans-73"/>
     <use x="577.541016" xlink:href="#DejaVuSans-69"/>
     <use x="605.324219" xlink:href="#DejaVuSans-6f"/>
     <use x="666.505859" xlink:href="#DejaVuSans-6e"/>
    </g>
   </g>
   <g id="text_23">
    <!-- 7 Step-ellipsoid -->
    <g transform="translate(150.842625 18.84)scale(0.2 -0.2)">
     <use xlink:href="#DejaVuSans-37"/>
     <use x="63.623047" xlink:href="#DejaVuSans-20"/>
     <use x="95.410156" xlink:href="#DejaVuSans-53"/>
     <use x="158.886719" xlink:href="#DejaVuSans-74"/>
     <use x="198.095703" xlink:href="#DejaVuSans-65"/>
     <use x="259.619141" xlink:href="#DejaVuSans-70"/>
     <use x="323.095703" xlink:href="#DejaVuSans-2d"/>
     <use x="359.179688" xlink:href="#DejaVuSans-65"/>
     <use x="420.703125" xlink:href="#DejaVuSans-6c"/>
     <use x="448.486328" xlink:href="#DejaVuSans-6c"/>
     <use x="476.269531" xlink:href="#DejaVuSans-69"/>
     <use x="504.052734" xlink:href="#DejaVuSans-70"/>
     <use x="567.529297" xlink:href="#DejaVuSans-73"/>
     <use x="619.628906" xlink:href="#DejaVuSans-6f"/>
     <use x="680.810547" xlink:href="#DejaVuSans-69"/>
     <use x="708.59375" xlink:href="#DejaVuSans-64"/>
    </g>
   </g>
  </g>
 </g>
 <defs>
  <clipPath id="p8c8c3765e5">
   <rect height="270.04" width="343.864" x="56.12" y="24.84"/>
  </clipPath>
 </defs>
</svg>
