<?xml version="1.0" encoding="utf-8" standalone="no"?>
<!DOCTYPE svg PUBLIC "-//W3C//DTD SVG 1.1//EN"
  "http://www.w3.org/Graphics/SVG/1.1/DTD/svg11.dtd">
<!-- Created with matplotlib (http://matplotlib.org/) -->
<svg height="345.6pt" version="1.1" viewBox="0 0 460.8 345.6" width="460.8pt" xmlns="http://www.w3.org/2000/svg" xmlns:xlink="http://www.w3.org/1999/xlink">
 <defs>
  <style type="text/css">
*{stroke-linecap:butt;stroke-linejoin:round;}
  </style>
 </defs>
 <g id="figure_1">
  <g id="patch_1">
   <path d="M 0 345.6 
L 460.8 345.6 
L 460.8 0 
L 0 0 
z
" style="fill:#ffffff;"/>
  </g>
  <g id="axes_1">
   <g id="patch_2">
    <path d="M 56.12 294.88 
L 399.984 294.88 
L 399.984 24.84 
L 56.12 24.84 
z
" style="fill:#ffffff;"/>
   </g>
   <g id="line2d_1">
    <path d="M 16.504332 294.88 
L 16.504332 289.637523 
L 40.355341 289.637523 
L 40.355341 284.395046 
L 75.021477 284.395046 
L 75.021477 279.152568 
L 82.375594 279.152568 
L 82.375594 273.910091 
L 85.759969 273.910091 
L 85.759969 268.667614 
L 100.24961 268.667614 
L 100.24961 263.425137 
L 127.646123 263.425137 
L 127.646123 258.18266 
L 130.832232 258.18266 
L 130.832232 252.940182 
L 132.736431 252.940182 
L 132.736431 247.697705 
L 141.885837 247.697705 
L 141.885837 242.455228 
L 149.195895 242.455228 
L 149.195895 237.212751 
L 160.574175 237.212751 
L 160.574175 231.970274 
L 160.673179 231.970274 
L 160.673179 226.727797 
L 160.700798 226.727797 
L 160.700798 221.485319 
L 160.728373 221.485319 
L 160.728373 216.242842 
L 160.810834 216.242842 
L 160.810834 211.000365 
L 160.857778 211.000365 
L 160.857778 205.757888 
L 160.920171 205.757888 
L 160.920171 200.515411 
L 160.959052 200.515411 
L 160.959052 195.272933 
L 161.024949 195.272933 
L 161.024949 190.030456 
L 161.179012 190.030456 
L 161.179012 184.787979 
L 161.228787 184.787979 
L 161.228787 179.545502 
L 161.286041 179.545502 
L 161.286041 174.303025 
L 161.54323 174.303025 
L 161.54323 169.060547 
L 161.625622 169.060547 
L 161.625622 163.81807 
L 161.674123 163.81807 
L 161.674123 158.575593 
L 161.980602 158.575593 
L 161.980602 153.333116 
L 162.068215 153.333116 
L 162.068215 148.090639 
L 162.180725 148.090639 
L 162.180725 142.848162 
L 162.353495 142.848162 
L 162.353495 137.605684 
L 162.538725 137.605684 
L 162.538725 132.363207 
L 162.683378 132.363207 
L 162.683378 127.12073 
L 162.767493 127.12073 
L 162.767493 121.878253 
L 163.010504 121.878253 
L 163.010504 116.635776 
L 163.209287 116.635776 
L 163.209287 111.393298 
L 163.294266 111.393298 
L 163.294266 106.150821 
L 163.616741 106.150821 
L 163.616741 100.908344 
L 163.742736 100.908344 
L 163.742736 95.665867 
L 163.854691 95.665867 
L 163.854691 90.42339 
L 165.289786 90.42339 
L 165.289786 85.180912 
L 165.523706 85.180912 
L 165.523706 79.938435 
L 165.603943 79.938435 
L 165.603943 74.695958 
L 170.369416 74.695958 
L 170.369416 69.453481 
L 170.4479 69.453481 
L 170.4479 64.211004 
L 177.072787 64.211004 
L 177.072787 58.968526 
L 177.11384 58.968526 
L 177.11384 53.726049 
L 177.151765 53.726049 
L 177.151765 48.483572 
L 181.333582 48.483572 
L 181.333582 43.241095 
L 181.418931 43.241095 
L 181.418931 37.998618 
L 181.467344 37.998618 
L 181.467344 32.756141 
L 184.94931 32.756141 
L 184.94931 27.513663 
L 333.429677 27.513663 
" style="fill:none;stroke:#f5deb3;stroke-linecap:square;stroke-width:6;"/>
   </g>
   <g id="line2d_2">
    <defs>
     <path d="M -0 7.778175 
L 7.778175 0 
L 0 -7.778175 
L -7.778175 -0 
z
" id="md545d61adb" style="stroke:#f5deb3;stroke-linejoin:miter;stroke-width:1.5;"/>
    </defs>
    <g>
     <use style="fill:#f5deb3;stroke:#f5deb3;stroke-linejoin:miter;stroke-width:1.5;" x="82.375594" xlink:href="#md545d61adb" y="273.910091"/>
     <use style="fill:#f5deb3;stroke:#f5deb3;stroke-linejoin:miter;stroke-width:1.5;" x="160.810834" xlink:href="#md545d61adb" y="216.242842"/>
     <use style="fill:#f5deb3;stroke:#f5deb3;stroke-linejoin:miter;stroke-width:1.5;" x="165.603943" xlink:href="#md545d61adb" y="79.938435"/>
     <use style="fill:#f5deb3;stroke:#f5deb3;stroke-linejoin:miter;stroke-width:1.5;" x="184.94931" xlink:href="#md545d61adb" y="32.756141"/>
     <use style="fill:#f5deb3;stroke:#f5deb3;stroke-linejoin:miter;stroke-width:1.5;" x="184.94931" xlink:href="#md545d61adb" y="27.513663"/>
     <use style="fill:#f5deb3;stroke:#f5deb3;stroke-linejoin:miter;stroke-width:1.5;" x="333.429677" xlink:href="#md545d61adb" y="27.513663"/>
    </g>
   </g>
   <g id="line2d_3">
    <path style="fill:none;stroke:#f5deb3;stroke-linecap:square;stroke-width:6;"/>
    <g/>
   </g>
   <g id="line2d_4">
    <path d="M 333.429677 27.513663 
L 363.933742 32.86099 
" style="fill:none;stroke:#f5deb3;stroke-linecap:square;stroke-width:6;"/>
    <g>
     <use style="fill:#f5deb3;stroke:#f5deb3;stroke-linejoin:miter;stroke-width:1.5;" x="333.429677" xlink:href="#md545d61adb" y="27.513663"/>
     <use style="fill:#f5deb3;stroke:#f5deb3;stroke-linejoin:miter;stroke-width:1.5;" x="363.933742" xlink:href="#md545d61adb" y="32.86099"/>
    </g>
   </g>
   <g id="matplotlib.axis_1">
    <g id="xtick_1">
     <g id="line2d_5">
      <path clip-path="url(#p2097a0a032)" d="M 56.12 294.88 
L 56.12 24.84 
" style="fill:none;stroke:#b0b0b0;stroke-linecap:square;stroke-width:0.8;"/>
     </g>
     <g id="line2d_6">
      <defs>
       <path d="M 0 0 
L 0 3.5 
" id="mb27b376708" style="stroke:#000000;stroke-width:0.8;"/>
      </defs>
      <g>
       <use style="stroke:#000000;stroke-width:0.8;" x="56.12" xlink:href="#mb27b376708" y="294.88"/>
      </g>
     </g>
     <g id="text_1">
      <!-- 0 -->
      <defs>
       <path d="M 31.78125 66.40625 
Q 24.171875 66.40625 20.328125 58.90625 
Q 16.5 51.421875 16.5 36.375 
Q 16.5 21.390625 20.328125 13.890625 
Q 24.171875 6.390625 31.78125 6.390625 
Q 39.453125 6.390625 43.28125 13.890625 
Q 47.125 21.390625 47.125 36.375 
Q 47.125 51.421875 43.28125 58.90625 
Q 39.453125 66.40625 31.78125 66.40625 
z
M 31.78125 74.21875 
Q 44.046875 74.21875 50.515625 64.515625 
Q 56.984375 54.828125 56.984375 36.375 
Q 56.984375 17.96875 50.515625 8.265625 
Q 44.046875 -1.421875 31.78125 -1.421875 
Q 19.53125 -1.421875 13.0625 8.265625 
Q 6.59375 17.96875 6.59375 36.375 
Q 6.59375 54.828125 13.0625 64.515625 
Q 19.53125 74.21875 31.78125 74.21875 
z
" id="DejaVuSans-30"/>
      </defs>
      <g transform="translate(49.7575 317.076875)scale(0.2 -0.2)">
       <use xlink:href="#DejaVuSans-30"/>
      </g>
     </g>
    </g>
    <g id="xtick_2">
     <g id="line2d_7">
      <path clip-path="url(#p2097a0a032)" d="M 135.351336 294.88 
L 135.351336 24.84 
" style="fill:none;stroke:#b0b0b0;stroke-linecap:square;stroke-width:0.8;"/>
     </g>
     <g id="line2d_8">
      <g>
       <use style="stroke:#000000;stroke-width:0.8;" x="135.351336" xlink:href="#mb27b376708" y="294.88"/>
      </g>
     </g>
     <g id="text_2">
      <!-- 2 -->
      <defs>
       <path d="M 19.1875 8.296875 
L 53.609375 8.296875 
L 53.609375 0 
L 7.328125 0 
L 7.328125 8.296875 
Q 12.9375 14.109375 22.625 23.890625 
Q 32.328125 33.6875 34.8125 36.53125 
Q 39.546875 41.84375 41.421875 45.53125 
Q 43.3125 49.21875 43.3125 52.78125 
Q 43.3125 58.59375 39.234375 62.25 
Q 35.15625 65.921875 28.609375 65.921875 
Q 23.96875 65.921875 18.8125 64.3125 
Q 13.671875 62.703125 7.8125 59.421875 
L 7.8125 69.390625 
Q 13.765625 71.78125 18.9375 73 
Q 24.125 74.21875 28.421875 74.21875 
Q 39.75 74.21875 46.484375 68.546875 
Q 53.21875 62.890625 53.21875 53.421875 
Q 53.21875 48.921875 51.53125 44.890625 
Q 49.859375 40.875 45.40625 35.40625 
Q 44.1875 33.984375 37.640625 27.21875 
Q 31.109375 20.453125 19.1875 8.296875 
z
" id="DejaVuSans-32"/>
      </defs>
      <g transform="translate(128.988836 317.076875)scale(0.2 -0.2)">
       <use xlink:href="#DejaVuSans-32"/>
      </g>
     </g>
    </g>
    <g id="xtick_3">
     <g id="line2d_9">
      <path clip-path="url(#p2097a0a032)" d="M 214.582673 294.88 
L 214.582673 24.84 
" style="fill:none;stroke:#b0b0b0;stroke-linecap:square;stroke-width:0.8;"/>
     </g>
     <g id="line2d_10">
      <g>
       <use style="stroke:#000000;stroke-width:0.8;" x="214.582673" xlink:href="#mb27b376708" y="294.88"/>
      </g>
     </g>
     <g id="text_3">
      <!-- 4 -->
      <defs>
       <path d="M 37.796875 64.3125 
L 12.890625 25.390625 
L 37.796875 25.390625 
z
M 35.203125 72.90625 
L 47.609375 72.90625 
L 47.609375 25.390625 
L 58.015625 25.390625 
L 58.015625 17.1875 
L 47.609375 17.1875 
L 47.609375 0 
L 37.796875 0 
L 37.796875 17.1875 
L 4.890625 17.1875 
L 4.890625 26.703125 
z
" id="DejaVuSans-34"/>
      </defs>
      <g transform="translate(208.220173 317.076875)scale(0.2 -0.2)">
       <use xlink:href="#DejaVuSans-34"/>
      </g>
     </g>
    </g>
    <g id="xtick_4">
     <g id="line2d_11">
      <path clip-path="url(#p2097a0a032)" d="M 293.814009 294.88 
L 293.814009 24.84 
" style="fill:none;stroke:#b0b0b0;stroke-linecap:square;stroke-width:0.8;"/>
     </g>
     <g id="line2d_12">
      <g>
       <use style="stroke:#000000;stroke-width:0.8;" x="293.814009" xlink:href="#mb27b376708" y="294.88"/>
      </g>
     </g>
     <g id="text_4">
      <!-- 6 -->
      <defs>
       <path d="M 33.015625 40.375 
Q 26.375 40.375 22.484375 35.828125 
Q 18.609375 31.296875 18.609375 23.390625 
Q 18.609375 15.53125 22.484375 10.953125 
Q 26.375 6.390625 33.015625 6.390625 
Q 39.65625 6.390625 43.53125 10.953125 
Q 47.40625 15.53125 47.40625 23.390625 
Q 47.40625 31.296875 43.53125 35.828125 
Q 39.65625 40.375 33.015625 40.375 
z
M 52.59375 71.296875 
L 52.59375 62.3125 
Q 48.875 64.0625 45.09375 64.984375 
Q 41.3125 65.921875 37.59375 65.921875 
Q 27.828125 65.921875 22.671875 59.328125 
Q 17.53125 52.734375 16.796875 39.40625 
Q 19.671875 43.65625 24.015625 45.921875 
Q 28.375 48.1875 33.59375 48.1875 
Q 44.578125 48.1875 50.953125 41.515625 
Q 57.328125 34.859375 57.328125 23.390625 
Q 57.328125 12.15625 50.6875 5.359375 
Q 44.046875 -1.421875 33.015625 -1.421875 
Q 20.359375 -1.421875 13.671875 8.265625 
Q 6.984375 17.96875 6.984375 36.375 
Q 6.984375 53.65625 15.1875 63.9375 
Q 23.390625 74.21875 37.203125 74.21875 
Q 40.921875 74.21875 44.703125 73.484375 
Q 48.484375 72.75 52.59375 71.296875 
z
" id="DejaVuSans-36"/>
      </defs>
      <g transform="translate(287.451509 317.076875)scale(0.2 -0.2)">
       <use xlink:href="#DejaVuSans-36"/>
      </g>
     </g>
    </g>
    <g id="xtick_5">
     <g id="line2d_13">
      <path clip-path="url(#p2097a0a032)" d="M 373.045346 294.88 
L 373.045346 24.84 
" style="fill:none;stroke:#b0b0b0;stroke-linecap:square;stroke-width:0.8;"/>
     </g>
     <g id="line2d_14">
      <g>
       <use style="stroke:#000000;stroke-width:0.8;" x="373.045346" xlink:href="#mb27b376708" y="294.88"/>
      </g>
     </g>
     <g id="text_5">
      <!-- 8 -->
      <defs>
       <path d="M 31.78125 34.625 
Q 24.75 34.625 20.71875 30.859375 
Q 16.703125 27.09375 16.703125 20.515625 
Q 16.703125 13.921875 20.71875 10.15625 
Q 24.75 6.390625 31.78125 6.390625 
Q 38.8125 6.390625 42.859375 10.171875 
Q 46.921875 13.96875 46.921875 20.515625 
Q 46.921875 27.09375 42.890625 30.859375 
Q 38.875 34.625 31.78125 34.625 
z
M 21.921875 38.8125 
Q 15.578125 40.375 12.03125 44.71875 
Q 8.5 49.078125 8.5 55.328125 
Q 8.5 64.0625 14.71875 69.140625 
Q 20.953125 74.21875 31.78125 74.21875 
Q 42.671875 74.21875 48.875 69.140625 
Q 55.078125 64.0625 55.078125 55.328125 
Q 55.078125 49.078125 51.53125 44.71875 
Q 48 40.375 41.703125 38.8125 
Q 48.828125 37.15625 52.796875 32.3125 
Q 56.78125 27.484375 56.78125 20.515625 
Q 56.78125 9.90625 50.3125 4.234375 
Q 43.84375 -1.421875 31.78125 -1.421875 
Q 19.734375 -1.421875 13.25 4.234375 
Q 6.78125 9.90625 6.78125 20.515625 
Q 6.78125 27.484375 10.78125 32.3125 
Q 14.796875 37.15625 21.921875 38.8125 
z
M 18.3125 54.390625 
Q 18.3125 48.734375 21.84375 45.5625 
Q 25.390625 42.390625 31.78125 42.390625 
Q 38.140625 42.390625 41.71875 45.5625 
Q 45.3125 48.734375 45.3125 54.390625 
Q 45.3125 60.0625 41.71875 63.234375 
Q 38.140625 66.40625 31.78125 66.40625 
Q 25.390625 66.40625 21.84375 63.234375 
Q 18.3125 60.0625 18.3125 54.390625 
z
" id="DejaVuSans-38"/>
      </defs>
      <g transform="translate(366.682846 317.076875)scale(0.2 -0.2)">
       <use xlink:href="#DejaVuSans-38"/>
      </g>
     </g>
    </g>
    <g id="text_6">
     <!-- log10(# f-evals / dimension) -->
     <defs>
      <path d="M 9.421875 75.984375 
L 18.40625 75.984375 
L 18.40625 0 
L 9.421875 0 
z
" id="DejaVuSans-6c"/>
      <path d="M 30.609375 48.390625 
Q 23.390625 48.390625 19.1875 42.75 
Q 14.984375 37.109375 14.984375 27.296875 
Q 14.984375 17.484375 19.15625 11.84375 
Q 23.34375 6.203125 30.609375 6.203125 
Q 37.796875 6.203125 41.984375 11.859375 
Q 46.1875 17.53125 46.1875 27.296875 
Q 46.1875 37.015625 41.984375 42.703125 
Q 37.796875 48.390625 30.609375 48.390625 
z
M 30.609375 56 
Q 42.328125 56 49.015625 48.375 
Q 55.71875 40.765625 55.71875 27.296875 
Q 55.71875 13.875 49.015625 6.21875 
Q 42.328125 -1.421875 30.609375 -1.421875 
Q 18.84375 -1.421875 12.171875 6.21875 
Q 5.515625 13.875 5.515625 27.296875 
Q 5.515625 40.765625 12.171875 48.375 
Q 18.84375 56 30.609375 56 
z
" id="DejaVuSans-6f"/>
      <path d="M 45.40625 27.984375 
Q 45.40625 37.75 41.375 43.109375 
Q 37.359375 48.484375 30.078125 48.484375 
Q 22.859375 48.484375 18.828125 43.109375 
Q 14.796875 37.75 14.796875 27.984375 
Q 14.796875 18.265625 18.828125 12.890625 
Q 22.859375 7.515625 30.078125 7.515625 
Q 37.359375 7.515625 41.375 12.890625 
Q 45.40625 18.265625 45.40625 27.984375 
z
M 54.390625 6.78125 
Q 54.390625 -7.171875 48.1875 -13.984375 
Q 42 -20.796875 29.203125 -20.796875 
Q 24.46875 -20.796875 20.265625 -20.09375 
Q 16.0625 -19.390625 12.109375 -17.921875 
L 12.109375 -9.1875 
Q 16.0625 -11.328125 19.921875 -12.34375 
Q 23.78125 -13.375 27.78125 -13.375 
Q 36.625 -13.375 41.015625 -8.765625 
Q 45.40625 -4.15625 45.40625 5.171875 
L 45.40625 9.625 
Q 42.625 4.78125 38.28125 2.390625 
Q 33.9375 0 27.875 0 
Q 17.828125 0 11.671875 7.65625 
Q 5.515625 15.328125 5.515625 27.984375 
Q 5.515625 40.671875 11.671875 48.328125 
Q 17.828125 56 27.875 56 
Q 33.9375 56 38.28125 53.609375 
Q 42.625 51.21875 45.40625 46.390625 
L 45.40625 54.6875 
L 54.390625 54.6875 
z
" id="DejaVuSans-67"/>
      <path d="M 12.40625 8.296875 
L 28.515625 8.296875 
L 28.515625 63.921875 
L 10.984375 60.40625 
L 10.984375 69.390625 
L 28.421875 72.90625 
L 38.28125 72.90625 
L 38.28125 8.296875 
L 54.390625 8.296875 
L 54.390625 0 
L 12.40625 0 
z
" id="DejaVuSans-31"/>
      <path d="M 31 75.875 
Q 24.46875 64.65625 21.28125 53.65625 
Q 18.109375 42.671875 18.109375 31.390625 
Q 18.109375 20.125 21.3125 9.0625 
Q 24.515625 -2 31 -13.1875 
L 23.1875 -13.1875 
Q 15.875 -1.703125 12.234375 9.375 
Q 8.59375 20.453125 8.59375 31.390625 
Q 8.59375 42.28125 12.203125 53.3125 
Q 15.828125 64.359375 23.1875 75.875 
z
" id="DejaVuSans-28"/>
      <path d="M 51.125 44 
L 36.921875 44 
L 32.8125 27.6875 
L 47.125 27.6875 
z
M 43.796875 71.78125 
L 38.71875 51.515625 
L 52.984375 51.515625 
L 58.109375 71.78125 
L 65.921875 71.78125 
L 60.890625 51.515625 
L 76.125 51.515625 
L 76.125 44 
L 58.984375 44 
L 54.984375 27.6875 
L 70.515625 27.6875 
L 70.515625 20.21875 
L 53.078125 20.21875 
L 48 0 
L 40.1875 0 
L 45.21875 20.21875 
L 30.90625 20.21875 
L 25.875 0 
L 18.015625 0 
L 23.09375 20.21875 
L 7.71875 20.21875 
L 7.71875 27.6875 
L 24.90625 27.6875 
L 29 44 
L 13.28125 44 
L 13.28125 51.515625 
L 30.90625 51.515625 
L 35.890625 71.78125 
z
" id="DejaVuSans-23"/>
      <path id="DejaVuSans-20"/>
      <path d="M 37.109375 75.984375 
L 37.109375 68.5 
L 28.515625 68.5 
Q 23.6875 68.5 21.796875 66.546875 
Q 19.921875 64.59375 19.921875 59.515625 
L 19.921875 54.6875 
L 34.71875 54.6875 
L 34.71875 47.703125 
L 19.921875 47.703125 
L 19.921875 0 
L 10.890625 0 
L 10.890625 47.703125 
L 2.296875 47.703125 
L 2.296875 54.6875 
L 10.890625 54.6875 
L 10.890625 58.5 
Q 10.890625 67.625 15.140625 71.796875 
Q 19.390625 75.984375 28.609375 75.984375 
z
" id="DejaVuSans-66"/>
      <path d="M 4.890625 31.390625 
L 31.203125 31.390625 
L 31.203125 23.390625 
L 4.890625 23.390625 
z
" id="DejaVuSans-2d"/>
      <path d="M 56.203125 29.59375 
L 56.203125 25.203125 
L 14.890625 25.203125 
Q 15.484375 15.921875 20.484375 11.0625 
Q 25.484375 6.203125 34.421875 6.203125 
Q 39.59375 6.203125 44.453125 7.46875 
Q 49.3125 8.734375 54.109375 11.28125 
L 54.109375 2.78125 
Q 49.265625 0.734375 44.1875 -0.34375 
Q 39.109375 -1.421875 33.890625 -1.421875 
Q 20.796875 -1.421875 13.15625 6.1875 
Q 5.515625 13.8125 5.515625 26.8125 
Q 5.515625 40.234375 12.765625 48.109375 
Q 20.015625 56 32.328125 56 
Q 43.359375 56 49.78125 48.890625 
Q 56.203125 41.796875 56.203125 29.59375 
z
M 47.21875 32.234375 
Q 47.125 39.59375 43.09375 43.984375 
Q 39.0625 48.390625 32.421875 48.390625 
Q 24.90625 48.390625 20.390625 44.140625 
Q 15.875 39.890625 15.1875 32.171875 
z
" id="DejaVuSans-65"/>
      <path d="M 2.984375 54.6875 
L 12.5 54.6875 
L 29.59375 8.796875 
L 46.6875 54.6875 
L 56.203125 54.6875 
L 35.6875 0 
L 23.484375 0 
z
" id="DejaVuSans-76"/>
      <path d="M 34.28125 27.484375 
Q 23.390625 27.484375 19.1875 25 
Q 14.984375 22.515625 14.984375 16.5 
Q 14.984375 11.71875 18.140625 8.90625 
Q 21.296875 6.109375 26.703125 6.109375 
Q 34.1875 6.109375 38.703125 11.40625 
Q 43.21875 16.703125 43.21875 25.484375 
L 43.21875 27.484375 
z
M 52.203125 31.203125 
L 52.203125 0 
L 43.21875 0 
L 43.21875 8.296875 
Q 40.140625 3.328125 35.546875 0.953125 
Q 30.953125 -1.421875 24.3125 -1.421875 
Q 15.921875 -1.421875 10.953125 3.296875 
Q 6 8.015625 6 15.921875 
Q 6 25.140625 12.171875 29.828125 
Q 18.359375 34.515625 30.609375 34.515625 
L 43.21875 34.515625 
L 43.21875 35.40625 
Q 43.21875 41.609375 39.140625 45 
Q 35.0625 48.390625 27.6875 48.390625 
Q 23 48.390625 18.546875 47.265625 
Q 14.109375 46.140625 10.015625 43.890625 
L 10.015625 52.203125 
Q 14.9375 54.109375 19.578125 55.046875 
Q 24.21875 56 28.609375 56 
Q 40.484375 56 46.34375 49.84375 
Q 52.203125 43.703125 52.203125 31.203125 
z
" id="DejaVuSans-61"/>
      <path d="M 44.28125 53.078125 
L 44.28125 44.578125 
Q 40.484375 46.53125 36.375 47.5 
Q 32.28125 48.484375 27.875 48.484375 
Q 21.1875 48.484375 17.84375 46.4375 
Q 14.5 44.390625 14.5 40.28125 
Q 14.5 37.15625 16.890625 35.375 
Q 19.28125 33.59375 26.515625 31.984375 
L 29.59375 31.296875 
Q 39.15625 29.25 43.1875 25.515625 
Q 47.21875 21.78125 47.21875 15.09375 
Q 47.21875 7.46875 41.1875 3.015625 
Q 35.15625 -1.421875 24.609375 -1.421875 
Q 20.21875 -1.421875 15.453125 -0.5625 
Q 10.6875 0.296875 5.421875 2 
L 5.421875 11.28125 
Q 10.40625 8.6875 15.234375 7.390625 
Q 20.0625 6.109375 24.8125 6.109375 
Q 31.15625 6.109375 34.5625 8.28125 
Q 37.984375 10.453125 37.984375 14.40625 
Q 37.984375 18.0625 35.515625 20.015625 
Q 33.0625 21.96875 24.703125 23.78125 
L 21.578125 24.515625 
Q 13.234375 26.265625 9.515625 29.90625 
Q 5.8125 33.546875 5.8125 39.890625 
Q 5.8125 47.609375 11.28125 51.796875 
Q 16.75 56 26.8125 56 
Q 31.78125 56 36.171875 55.265625 
Q 40.578125 54.546875 44.28125 53.078125 
z
" id="DejaVuSans-73"/>
      <path d="M 25.390625 72.90625 
L 33.6875 72.90625 
L 8.296875 -9.28125 
L 0 -9.28125 
z
" id="DejaVuSans-2f"/>
      <path d="M 45.40625 46.390625 
L 45.40625 75.984375 
L 54.390625 75.984375 
L 54.390625 0 
L 45.40625 0 
L 45.40625 8.203125 
Q 42.578125 3.328125 38.25 0.953125 
Q 33.9375 -1.421875 27.875 -1.421875 
Q 17.96875 -1.421875 11.734375 6.484375 
Q 5.515625 14.40625 5.515625 27.296875 
Q 5.515625 40.1875 11.734375 48.09375 
Q 17.96875 56 27.875 56 
Q 33.9375 56 38.25 53.625 
Q 42.578125 51.265625 45.40625 46.390625 
z
M 14.796875 27.296875 
Q 14.796875 17.390625 18.875 11.75 
Q 22.953125 6.109375 30.078125 6.109375 
Q 37.203125 6.109375 41.296875 11.75 
Q 45.40625 17.390625 45.40625 27.296875 
Q 45.40625 37.203125 41.296875 42.84375 
Q 37.203125 48.484375 30.078125 48.484375 
Q 22.953125 48.484375 18.875 42.84375 
Q 14.796875 37.203125 14.796875 27.296875 
z
" id="DejaVuSans-64"/>
      <path d="M 9.421875 54.6875 
L 18.40625 54.6875 
L 18.40625 0 
L 9.421875 0 
z
M 9.421875 75.984375 
L 18.40625 75.984375 
L 18.40625 64.59375 
L 9.421875 64.59375 
z
" id="DejaVuSans-69"/>
      <path d="M 52 44.1875 
Q 55.375 50.25 60.0625 53.125 
Q 64.75 56 71.09375 56 
Q 79.640625 56 84.28125 50.015625 
Q 88.921875 44.046875 88.921875 33.015625 
L 88.921875 0 
L 79.890625 0 
L 79.890625 32.71875 
Q 79.890625 40.578125 77.09375 44.375 
Q 74.3125 48.1875 68.609375 48.1875 
Q 61.625 48.1875 57.5625 43.546875 
Q 53.515625 38.921875 53.515625 30.90625 
L 53.515625 0 
L 44.484375 0 
L 44.484375 32.71875 
Q 44.484375 40.625 41.703125 44.40625 
Q 38.921875 48.1875 33.109375 48.1875 
Q 26.21875 48.1875 22.15625 43.53125 
Q 18.109375 38.875 18.109375 30.90625 
L 18.109375 0 
L 9.078125 0 
L 9.078125 54.6875 
L 18.109375 54.6875 
L 18.109375 46.1875 
Q 21.1875 51.21875 25.484375 53.609375 
Q 29.78125 56 35.6875 56 
Q 41.65625 56 45.828125 52.96875 
Q 50 49.953125 52 44.1875 
z
" id="DejaVuSans-6d"/>
      <path d="M 54.890625 33.015625 
L 54.890625 0 
L 45.90625 0 
L 45.90625 32.71875 
Q 45.90625 40.484375 42.875 44.328125 
Q 39.84375 48.1875 33.796875 48.1875 
Q 26.515625 48.1875 22.3125 43.546875 
Q 18.109375 38.921875 18.109375 30.90625 
L 18.109375 0 
L 9.078125 0 
L 9.078125 54.6875 
L 18.109375 54.6875 
L 18.109375 46.1875 
Q 21.34375 51.125 25.703125 53.5625 
Q 30.078125 56 35.796875 56 
Q 45.21875 56 50.046875 50.171875 
Q 54.890625 44.34375 54.890625 33.015625 
z
" id="DejaVuSans-6e"/>
      <path d="M 8.015625 75.875 
L 15.828125 75.875 
Q 23.140625 64.359375 26.78125 53.3125 
Q 30.421875 42.28125 30.421875 31.390625 
Q 30.421875 20.453125 26.78125 9.375 
Q 23.140625 -1.703125 15.828125 -13.1875 
L 8.015625 -13.1875 
Q 14.5 -2 17.703125 9.0625 
Q 20.90625 20.125 20.90625 31.390625 
Q 20.90625 42.671875 17.703125 53.65625 
Q 14.5 64.65625 8.015625 75.875 
z
" id="DejaVuSans-29"/>
     </defs>
     <g transform="translate(107.211219 338.153594)scale(0.17 -0.17)">
      <use xlink:href="#DejaVuSans-6c"/>
      <use x="27.783203" xlink:href="#DejaVuSans-6f"/>
      <use x="88.964844" xlink:href="#DejaVuSans-67"/>
      <use x="152.441406" xlink:href="#DejaVuSans-31"/>
      <use x="216.064453" xlink:href="#DejaVuSans-30"/>
      <use x="279.6875" xlink:href="#DejaVuSans-28"/>
      <use x="318.701172" xlink:href="#DejaVuSans-23"/>
      <use x="402.490234" xlink:href="#DejaVuSans-20"/>
      <use x="434.277344" xlink:href="#DejaVuSans-66"/>
      <use x="469.404297" xlink:href="#DejaVuSans-2d"/>
      <use x="505.488281" xlink:href="#DejaVuSans-65"/>
      <use x="567.011719" xlink:href="#DejaVuSans-76"/>
      <use x="626.191406" xlink:href="#DejaVuSans-61"/>
      <use x="687.470703" xlink:href="#DejaVuSans-6c"/>
      <use x="715.253906" xlink:href="#DejaVuSans-73"/>
      <use x="767.353516" xlink:href="#DejaVuSans-20"/>
      <use x="799.140625" xlink:href="#DejaVuSans-2f"/>
      <use x="832.832031" xlink:href="#DejaVuSans-20"/>
      <use x="864.619141" xlink:href="#DejaVuSans-64"/>
      <use x="928.095703" xlink:href="#DejaVuSans-69"/>
      <use x="955.878906" xlink:href="#DejaVuSans-6d"/>
      <use x="1053.291016" xlink:href="#DejaVuSans-65"/>
      <use x="1114.814453" xlink:href="#DejaVuSans-6e"/>
      <use x="1178.193359" xlink:href="#DejaVuSans-73"/>
      <use x="1230.292969" xlink:href="#DejaVuSans-69"/>
      <use x="1258.076172" xlink:href="#DejaVuSans-6f"/>
      <use x="1319.257812" xlink:href="#DejaVuSans-6e"/>
      <use x="1382.636719" xlink:href="#DejaVuSans-29"/>
     </g>
    </g>
   </g>
   <g id="matplotlib.axis_2">
    <g id="ytick_1">
     <g id="line2d_15">
      <path clip-path="url(#p2097a0a032)" d="M 56.12 294.88 
L 399.984 294.88 
" style="fill:none;stroke:#b0b0b0;stroke-linecap:square;stroke-width:0.8;"/>
     </g>
     <g id="line2d_16">
      <defs>
       <path d="M 0 0 
L -3.5 0 
" id="m4fae1a3353" style="stroke:#000000;stroke-width:0.8;"/>
      </defs>
      <g>
       <use style="stroke:#000000;stroke-width:0.8;" x="56.12" xlink:href="#m4fae1a3353" y="294.88"/>
      </g>
     </g>
     <g id="text_7">
      <!-- 0.0 -->
      <defs>
       <path d="M 10.6875 12.40625 
L 21 12.40625 
L 21 0 
L 10.6875 0 
z
" id="DejaVuSans-2e"/>
      </defs>
      <g transform="translate(23.675 300.95875)scale(0.16 -0.16)">
       <use xlink:href="#DejaVuSans-30"/>
       <use x="63.623047" xlink:href="#DejaVuSans-2e"/>
       <use x="95.410156" xlink:href="#DejaVuSans-30"/>
      </g>
     </g>
    </g>
    <g id="ytick_2">
     <g id="line2d_17">
      <path clip-path="url(#p2097a0a032)" d="M 56.12 241.406733 
L 399.984 241.406733 
" style="fill:none;stroke:#b0b0b0;stroke-linecap:square;stroke-width:0.8;"/>
     </g>
     <g id="line2d_18">
      <g>
       <use style="stroke:#000000;stroke-width:0.8;" x="56.12" xlink:href="#m4fae1a3353" y="241.406733"/>
      </g>
     </g>
     <g id="text_8">
      <!-- 0.2 -->
      <g transform="translate(23.675 247.485483)scale(0.16 -0.16)">
       <use xlink:href="#DejaVuSans-30"/>
       <use x="63.623047" xlink:href="#DejaVuSans-2e"/>
       <use x="95.410156" xlink:href="#DejaVuSans-32"/>
      </g>
     </g>
    </g>
    <g id="ytick_3">
     <g id="line2d_19">
      <path clip-path="url(#p2097a0a032)" d="M 56.12 187.933465 
L 399.984 187.933465 
" style="fill:none;stroke:#b0b0b0;stroke-linecap:square;stroke-width:0.8;"/>
     </g>
     <g id="line2d_20">
      <g>
       <use style="stroke:#000000;stroke-width:0.8;" x="56.12" xlink:href="#m4fae1a3353" y="187.933465"/>
      </g>
     </g>
     <g id="text_9">
      <!-- 0.4 -->
      <g transform="translate(23.675 194.012215)scale(0.16 -0.16)">
       <use xlink:href="#DejaVuSans-30"/>
       <use x="63.623047" xlink:href="#DejaVuSans-2e"/>
       <use x="95.410156" xlink:href="#DejaVuSans-34"/>
      </g>
     </g>
    </g>
    <g id="ytick_4">
     <g id="line2d_21">
      <path clip-path="url(#p2097a0a032)" d="M 56.12 134.460198 
L 399.984 134.460198 
" style="fill:none;stroke:#b0b0b0;stroke-linecap:square;stroke-width:0.8;"/>
     </g>
     <g id="line2d_22">
      <g>
       <use style="stroke:#000000;stroke-width:0.8;" x="56.12" xlink:href="#m4fae1a3353" y="134.460198"/>
      </g>
     </g>
     <g id="text_10">
      <!-- 0.6 -->
      <g transform="translate(23.675 140.538948)scale(0.16 -0.16)">
       <use xlink:href="#DejaVuSans-30"/>
       <use x="63.623047" xlink:href="#DejaVuSans-2e"/>
       <use x="95.410156" xlink:href="#DejaVuSans-36"/>
      </g>
     </g>
    </g>
    <g id="ytick_5">
     <g id="line2d_23">
      <path clip-path="url(#p2097a0a032)" d="M 56.12 80.986931 
L 399.984 80.986931 
" style="fill:none;stroke:#b0b0b0;stroke-linecap:square;stroke-width:0.8;"/>
     </g>
     <g id="line2d_24">
      <g>
       <use style="stroke:#000000;stroke-width:0.8;" x="56.12" xlink:href="#m4fae1a3353" y="80.986931"/>
      </g>
     </g>
     <g id="text_11">
      <!-- 0.8 -->
      <g transform="translate(23.675 87.065681)scale(0.16 -0.16)">
       <use xlink:href="#DejaVuSans-30"/>
       <use x="63.623047" xlink:href="#DejaVuSans-2e"/>
       <use x="95.410156" xlink:href="#DejaVuSans-38"/>
      </g>
     </g>
    </g>
    <g id="ytick_6">
     <g id="line2d_25">
      <path clip-path="url(#p2097a0a032)" d="M 56.12 27.513663 
L 399.984 27.513663 
" style="fill:none;stroke:#b0b0b0;stroke-linecap:square;stroke-width:0.8;"/>
     </g>
     <g id="line2d_26">
      <g>
       <use style="stroke:#000000;stroke-width:0.8;" x="56.12" xlink:href="#m4fae1a3353" y="27.513663"/>
      </g>
     </g>
     <g id="text_12">
      <!-- 1.0 -->
      <g transform="translate(23.675 33.592413)scale(0.16 -0.16)">
       <use xlink:href="#DejaVuSans-31"/>
       <use x="63.623047" xlink:href="#DejaVuSans-2e"/>
       <use x="95.410156" xlink:href="#DejaVuSans-30"/>
      </g>
     </g>
    </g>
    <g id="text_13">
     <!-- Fraction of function,target pairs -->
     <defs>
      <path d="M 9.8125 72.90625 
L 51.703125 72.90625 
L 51.703125 64.59375 
L 19.671875 64.59375 
L 19.671875 43.109375 
L 48.578125 43.109375 
L 48.578125 34.8125 
L 19.671875 34.8125 
L 19.671875 0 
L 9.8125 0 
z
" id="DejaVuSans-46"/>
      <path d="M 41.109375 46.296875 
Q 39.59375 47.171875 37.8125 47.578125 
Q 36.03125 48 33.890625 48 
Q 26.265625 48 22.1875 43.046875 
Q 18.109375 38.09375 18.109375 28.8125 
L 18.109375 0 
L 9.078125 0 
L 9.078125 54.6875 
L 18.109375 54.6875 
L 18.109375 46.1875 
Q 20.953125 51.171875 25.484375 53.578125 
Q 30.03125 56 36.53125 56 
Q 37.453125 56 38.578125 55.875 
Q 39.703125 55.765625 41.0625 55.515625 
z
" id="DejaVuSans-72"/>
      <path d="M 48.78125 52.59375 
L 48.78125 44.1875 
Q 44.96875 46.296875 41.140625 47.34375 
Q 37.3125 48.390625 33.40625 48.390625 
Q 24.65625 48.390625 19.8125 42.84375 
Q 14.984375 37.3125 14.984375 27.296875 
Q 14.984375 17.28125 19.8125 11.734375 
Q 24.65625 6.203125 33.40625 6.203125 
Q 37.3125 6.203125 41.140625 7.25 
Q 44.96875 8.296875 48.78125 10.40625 
L 48.78125 2.09375 
Q 45.015625 0.34375 40.984375 -0.53125 
Q 36.96875 -1.421875 32.421875 -1.421875 
Q 20.0625 -1.421875 12.78125 6.34375 
Q 5.515625 14.109375 5.515625 27.296875 
Q 5.515625 40.671875 12.859375 48.328125 
Q 20.21875 56 33.015625 56 
Q 37.15625 56 41.109375 55.140625 
Q 45.0625 54.296875 48.78125 52.59375 
z
" id="DejaVuSans-63"/>
      <path d="M 18.3125 70.21875 
L 18.3125 54.6875 
L 36.8125 54.6875 
L 36.8125 47.703125 
L 18.3125 47.703125 
L 18.3125 18.015625 
Q 18.3125 11.328125 20.140625 9.421875 
Q 21.96875 7.515625 27.59375 7.515625 
L 36.8125 7.515625 
L 36.8125 0 
L 27.59375 0 
Q 17.1875 0 13.234375 3.875 
Q 9.28125 7.765625 9.28125 18.015625 
L 9.28125 47.703125 
L 2.6875 47.703125 
L 2.6875 54.6875 
L 9.28125 54.6875 
L 9.28125 70.21875 
z
" id="DejaVuSans-74"/>
      <path d="M 8.5 21.578125 
L 8.5 54.6875 
L 17.484375 54.6875 
L 17.484375 21.921875 
Q 17.484375 14.15625 20.5 10.265625 
Q 23.53125 6.390625 29.59375 6.390625 
Q 36.859375 6.390625 41.078125 11.03125 
Q 45.3125 15.671875 45.3125 23.6875 
L 45.3125 54.6875 
L 54.296875 54.6875 
L 54.296875 0 
L 45.3125 0 
L 45.3125 8.40625 
Q 42.046875 3.421875 37.71875 1 
Q 33.40625 -1.421875 27.6875 -1.421875 
Q 18.265625 -1.421875 13.375 4.4375 
Q 8.5 10.296875 8.5 21.578125 
z
M 31.109375 56 
z
" id="DejaVuSans-75"/>
      <path d="M 11.71875 12.40625 
L 22.015625 12.40625 
L 22.015625 4 
L 14.015625 -11.625 
L 7.71875 -11.625 
L 11.71875 4 
z
" id="DejaVuSans-2c"/>
      <path d="M 18.109375 8.203125 
L 18.109375 -20.796875 
L 9.078125 -20.796875 
L 9.078125 54.6875 
L 18.109375 54.6875 
L 18.109375 46.390625 
Q 20.953125 51.265625 25.265625 53.625 
Q 29.59375 56 35.59375 56 
Q 45.5625 56 51.78125 48.09375 
Q 58.015625 40.1875 58.015625 27.296875 
Q 58.015625 14.40625 51.78125 6.484375 
Q 45.5625 -1.421875 35.59375 -1.421875 
Q 29.59375 -1.421875 25.265625 0.953125 
Q 20.953125 3.328125 18.109375 8.203125 
z
M 48.6875 27.296875 
Q 48.6875 37.203125 44.609375 42.84375 
Q 40.53125 48.484375 33.40625 48.484375 
Q 26.265625 48.484375 22.1875 42.84375 
Q 18.109375 37.203125 18.109375 27.296875 
Q 18.109375 17.390625 22.1875 11.75 
Q 26.265625 6.109375 33.40625 6.109375 
Q 40.53125 6.109375 44.609375 11.75 
Q 48.6875 17.390625 48.6875 27.296875 
z
" id="DejaVuSans-70"/>
     </defs>
     <g transform="translate(16.139531 294.999375)rotate(-90)scale(0.17 -0.17)">
      <use xlink:href="#DejaVuSans-46"/>
      <use x="57.410156" xlink:href="#DejaVuSans-72"/>
      <use x="98.523438" xlink:href="#DejaVuSans-61"/>
      <use x="159.802734" xlink:href="#DejaVuSans-63"/>
      <use x="214.783203" xlink:href="#DejaVuSans-74"/>
      <use x="253.992188" xlink:href="#DejaVuSans-69"/>
      <use x="281.775391" xlink:href="#DejaVuSans-6f"/>
      <use x="342.957031" xlink:href="#DejaVuSans-6e"/>
      <use x="406.335938" xlink:href="#DejaVuSans-20"/>
      <use x="438.123047" xlink:href="#DejaVuSans-6f"/>
      <use x="499.304688" xlink:href="#DejaVuSans-66"/>
      <use x="534.509766" xlink:href="#DejaVuSans-20"/>
      <use x="566.296875" xlink:href="#DejaVuSans-66"/>
      <use x="601.501953" xlink:href="#DejaVuSans-75"/>
      <use x="664.880859" xlink:href="#DejaVuSans-6e"/>
      <use x="728.259766" xlink:href="#DejaVuSans-63"/>
      <use x="783.240234" xlink:href="#DejaVuSans-74"/>
      <use x="822.449219" xlink:href="#DejaVuSans-69"/>
      <use x="850.232422" xlink:href="#DejaVuSans-6f"/>
      <use x="911.414062" xlink:href="#DejaVuSans-6e"/>
      <use x="974.792969" xlink:href="#DejaVuSans-2c"/>
      <use x="1006.580078" xlink:href="#DejaVuSans-74"/>
      <use x="1045.789062" xlink:href="#DejaVuSans-61"/>
      <use x="1107.068359" xlink:href="#DejaVuSans-72"/>
      <use x="1148.166016" xlink:href="#DejaVuSans-67"/>
      <use x="1211.642578" xlink:href="#DejaVuSans-65"/>
      <use x="1273.166016" xlink:href="#DejaVuSans-74"/>
      <use x="1312.375" xlink:href="#DejaVuSans-20"/>
      <use x="1344.162109" xlink:href="#DejaVuSans-70"/>
      <use x="1407.638672" xlink:href="#DejaVuSans-61"/>
      <use x="1468.917969" xlink:href="#DejaVuSans-69"/>
      <use x="1496.701172" xlink:href="#DejaVuSans-72"/>
      <use x="1537.814453" xlink:href="#DejaVuSans-73"/>
     </g>
    </g>
   </g>
   <g id="line2d_27">
    <defs>
     <path d="M 0 1.5 
C 0.397805 1.5 0.77937 1.341951 1.06066 1.06066 
C 1.341951 0.77937 1.5 0.397805 1.5 0 
C 1.5 -0.397805 1.341951 -0.77937 1.06066 -1.06066 
C 0.77937 -1.341951 0.397805 -1.5 0 -1.5 
C -0.397805 -1.5 -0.77937 -1.341951 -1.06066 -1.06066 
C -1.341951 -0.77937 -1.5 -0.397805 -1.5 0 
C -1.5 0.397805 -1.341951 0.77937 -1.06066 1.06066 
C -0.77937 1.341951 -0.397805 1.5 0 1.5 
z
" id="ma4e9555f4c" style="stroke:#f5deb3;"/>
    </defs>
    <g>
     <use style="fill:#f5deb3;stroke:#f5deb3;" x="184.94931" xlink:href="#ma4e9555f4c" y="27.513663"/>
     <use style="fill:#f5deb3;stroke:#f5deb3;" x="184.94931" xlink:href="#ma4e9555f4c" y="27.513663"/>
    </g>
   </g>
   <g id="line2d_28">
    <defs>
     <path d="M 0 1.5 
C 0.397805 1.5 0.77937 1.341951 1.06066 1.06066 
C 1.341951 0.77937 1.5 0.397805 1.5 0 
C 1.5 -0.397805 1.341951 -0.77937 1.06066 -1.06066 
C 0.77937 -1.341951 0.397805 -1.5 0 -1.5 
C -0.397805 -1.5 -0.77937 -1.341951 -1.06066 -1.06066 
C -1.341951 -0.77937 -1.5 -0.397805 -1.5 0 
C -1.5 0.397805 -1.341951 0.77937 -1.06066 1.06066 
C -0.77937 1.341951 -0.397805 1.5 0 1.5 
z
" id="m87c7d64611" style="stroke:#000080;"/>
    </defs>
    <g>
     <use style="fill:#000080;stroke:#000080;" x="282.53939" xlink:href="#m87c7d64611" y="27.513663"/>
     <use style="fill:#000080;stroke:#000080;" x="282.53939" xlink:href="#m87c7d64611" y="27.513663"/>
    </g>
   </g>
   <g id="line2d_29">
    <path d="M 16.504332 294.88 
L 16.504332 289.113275 
L 78.158295 289.113275 
L 78.158295 288.589027 
L 91.896513 288.589027 
L 91.896513 288.06478 
L 94.853174 288.06478 
L 94.853174 287.540532 
L 99.297319 287.540532 
L 99.297319 287.016284 
L 101.025901 287.016284 
L 101.025901 286.492036 
L 101.277072 286.492036 
L 101.277072 285.967789 
L 104.55873 285.967789 
L 104.55873 285.443541 
L 111.082375 285.443541 
L 111.082375 284.919293 
L 111.362135 284.919293 
L 111.362135 284.395046 
L 113.077449 284.395046 
L 113.077449 283.870798 
L 116.689057 283.870798 
L 116.689057 283.34655 
L 117.869282 283.34655 
L 117.869282 281.773807 
L 119.239092 281.773807 
L 119.239092 280.725312 
L 119.543611 280.725312 
L 119.543611 279.676816 
L 120.750735 279.676816 
L 120.750735 279.152568 
L 129.091459 279.152568 
L 129.091459 278.104073 
L 129.86593 278.104073 
L 129.86593 277.579825 
L 130.921492 277.579825 
L 130.921492 277.055578 
L 131.142638 277.055578 
L 131.142638 276.53133 
L 131.425941 276.53133 
L 131.425941 276.007082 
L 131.597991 276.007082 
L 131.597991 274.958587 
L 132.35161 274.958587 
L 132.35161 274.434339 
L 132.474065 274.434339 
L 132.474065 273.385844 
L 133.034273 273.385844 
L 133.073598 271.8131 
L 133.671921 271.8131 
L 133.671921 271.288853 
L 134.195019 271.288853 
L 134.195019 270.240357 
L 134.986187 270.240357 
L 134.986187 269.716109 
L 136.272498 269.716109 
L 136.288798 268.667614 
L 136.675441 268.667614 
L 136.675441 268.143366 
L 137.904883 268.143366 
L 137.904883 267.619119 
L 140.704707 267.619119 
L 140.704707 267.094871 
L 144.651919 267.094871 
L 144.651919 266.570623 
L 145.795455 266.570623 
L 145.795455 265.522128 
L 146.330843 265.522128 
L 146.330843 264.99788 
L 148.656612 264.99788 
L 148.656612 263.949385 
L 182.074378 263.949385 
L 182.074378 262.900889 
L 182.785683 262.900889 
L 182.785683 262.376641 
L 183.097385 262.376641 
L 183.097385 261.852394 
L 184.221431 261.852394 
L 184.221431 261.328146 
L 184.824619 261.328146 
L 184.824619 260.803898 
L 187.056036 260.803898 
L 187.056036 260.279651 
L 187.546605 260.279651 
L 187.593745 259.231155 
L 188.152773 259.231155 
L 188.171152 257.658412 
L 188.299253 257.658412 
L 188.299253 257.134164 
L 188.418537 257.134164 
L 188.527615 255.037173 
L 188.583845 255.037173 
L 188.629009 253.46443 
L 189.075754 253.46443 
L 189.126446 252.415935 
L 189.261901 252.415935 
L 189.261901 251.891687 
L 189.376204 251.891687 
L 189.464585 250.318944 
L 189.858585 250.318944 
L 189.930835 249.270448 
L 190.000628 249.270448 
L 190.100865 248.221953 
L 190.400223 248.221953 
L 190.400223 247.697705 
L 190.540666 247.697705 
L 190.540666 247.173458 
L 190.854412 247.173458 
L 190.854412 246.64921 
L 191.008826 246.64921 
L 191.008826 246.124962 
L 191.35675 246.124962 
L 191.35675 245.600714 
L 191.885428 245.600714 
L 191.885428 244.552219 
L 195.649509 244.552219 
L 195.649509 244.027971 
L 196.44673 244.027971 
L 196.44673 242.979476 
L 200.410042 242.979476 
L 200.410042 242.455228 
L 200.575109 242.455228 
L 200.575109 241.93098 
L 201.899184 241.93098 
L 201.899184 241.406733 
L 203.009673 241.406733 
L 203.091734 240.358237 
L 203.131279 240.358237 
L 203.202433 236.688503 
L 203.30878 236.688503 
L 203.317391 235.640008 
L 203.729006 235.640008 
L 203.792581 233.543017 
L 203.896954 233.543017 
L 203.896954 232.494521 
L 204.192168 232.494521 
L 204.192168 231.970274 
L 204.804004 231.970274 
L 204.8837 230.397531 
L 204.916321 230.397531 
L 204.982279 228.824787 
L 205.095233 228.824787 
L 205.110755 226.203549 
L 215.830941 226.203549 
L 215.89339 222.533815 
L 216.071188 222.533815 
L 216.071188 221.485319 
L 218.74106 221.485319 
L 218.74106 220.436824 
L 220.12046 220.436824 
L 220.200083 216.76709 
L 220.270194 216.76709 
L 220.362413 212.04886 
L 220.394843 212.04886 
L 220.454263 211.000365 
L 220.523957 211.000365 
L 220.523957 210.476117 
L 224.656326 210.476117 
L 224.71371 208.903374 
L 227.055525 208.903374 
L 227.102875 207.330631 
L 227.403716 207.330631 
L 227.403716 206.806383 
L 227.780989 206.806383 
L 227.780989 205.757888 
L 234.273256 205.757888 
L 234.273256 204.709392 
L 237.773856 204.709392 
L 237.873991 196.321429 
L 237.900764 196.321429 
L 237.984897 191.603199 
L 243.716386 191.603199 
L 243.716386 191.078952 
L 252.496831 191.078952 
L 252.598411 174.827272 
L 252.613246 174.827272 
L 252.621337 173.778777 
L 254.969717 173.778777 
L 255.078799 153.333116 
L 255.081986 153.333116 
L 255.169674 141.275418 
L 259.004259 141.275418 
L 259.103073 128.693473 
L 259.284209 128.693473 
L 259.363372 112.966042 
L 266.999538 112.966042 
L 267.038972 95.141619 
L 268.021681 95.141619 
L 268.070647 84.132417 
L 273.364318 84.132417 
L 273.364318 83.083922 
L 275.865208 83.083922 
L 275.909097 69.977729 
L 277.63145 69.977729 
L 277.66038 59.492774 
L 282.240366 59.492774 
L 282.262322 45.338086 
L 282.506966 45.338086 
L 282.53939 27.513663 
L 333.429677 27.513663 
L 333.429677 27.513663 
" style="fill:none;stroke:#000080;stroke-linecap:square;stroke-width:1.5;"/>
   </g>
   <g id="line2d_30">
    <defs>
     <path d="M 0 6 
C 1.591219 6 3.117479 5.367802 4.242641 4.242641 
C 5.367802 3.117479 6 1.591219 6 0 
C 6 -1.591219 5.367802 -3.117479 4.242641 -4.242641 
C 3.117479 -5.367802 1.591219 -6 0 -6 
C -1.591219 -6 -3.117479 -5.367802 -4.242641 -4.242641 
C -5.367802 -3.117479 -6 -1.591219 -6 0 
C -6 1.591219 -5.367802 3.117479 -4.242641 4.242641 
C -3.117479 5.367802 -1.591219 6 0 6 
z
" id="m80ec547e90" style="stroke:#000080;stroke-width:1.5;"/>
    </defs>
    <g>
     <use style="fill-opacity:0;stroke:#000080;stroke-width:1.5;" x="119.543611" xlink:href="#m80ec547e90" y="280.725312"/>
     <use style="fill-opacity:0;stroke:#000080;stroke-width:1.5;" x="188.171152" xlink:href="#m80ec547e90" y="257.658412"/>
     <use style="fill-opacity:0;stroke:#000080;stroke-width:1.5;" x="252.528616" xlink:href="#m80ec547e90" y="184.787979"/>
     <use style="fill-opacity:0;stroke:#000080;stroke-width:1.5;" x="282.254418" xlink:href="#m80ec547e90" y="51.629058"/>
     <use style="fill-opacity:0;stroke:#000080;stroke-width:1.5;" x="282.53939" xlink:href="#m80ec547e90" y="27.513663"/>
     <use style="fill-opacity:0;stroke:#000080;stroke-width:1.5;" x="333.429677" xlink:href="#m80ec547e90" y="27.513663"/>
    </g>
   </g>
   <g id="line2d_31">
    <path style="fill:none;stroke:#000080;stroke-linecap:square;stroke-width:1.5;"/>
    <g/>
   </g>
   <g id="line2d_32">
    <defs>
     <path d="M 0 1.5 
C 0.397805 1.5 0.77937 1.341951 1.06066 1.06066 
C 1.341951 0.77937 1.5 0.397805 1.5 0 
C 1.5 -0.397805 1.341951 -0.77937 1.06066 -1.06066 
C 0.77937 -1.341951 0.397805 -1.5 0 -1.5 
C -0.397805 -1.5 -0.77937 -1.341951 -1.06066 -1.06066 
C -1.341951 -0.77937 -1.5 -0.397805 -1.5 0 
C -1.5 0.397805 -1.341951 0.77937 -1.06066 1.06066 
C -0.77937 1.341951 -0.397805 1.5 0 1.5 
z
" id="m80255bf5e5" style="stroke:#ff00ff;"/>
    </defs>
    <g>
     <use style="fill:#ff00ff;stroke:#ff00ff;" x="299.901506" xlink:href="#m80255bf5e5" y="27.513663"/>
     <use style="fill:#ff00ff;stroke:#ff00ff;" x="299.901506" xlink:href="#m80255bf5e5" y="27.513663"/>
    </g>
   </g>
   <g id="line2d_33">
    <path d="M 16.504332 294.88 
L 16.504332 289.637523 
L 40.355341 289.637523 
L 40.355341 289.113275 
L 69.685303 289.113275 
L 69.685303 288.589027 
L 76.131854 288.589027 
L 76.131854 288.06478 
L 79.535419 288.06478 
L 79.535419 287.540532 
L 84.484951 287.540532 
L 84.484951 286.492036 
L 85.449963 286.492036 
L 85.449963 285.443541 
L 90.321112 285.443541 
L 90.321112 282.822302 
L 92.321346 282.822302 
L 92.321346 282.298055 
L 93.140781 282.298055 
L 93.140781 281.249559 
L 93.536312 281.249559 
L 93.536312 279.676816 
L 100.77101 279.676816 
L 100.77101 279.152568 
L 110.362401 279.152568 
L 110.362401 278.104073 
L 121.651309 278.104073 
L 121.651309 277.579825 
L 127.374747 277.579825 
L 127.374747 277.055578 
L 127.646123 277.055578 
L 127.646123 276.53133 
L 144.460471 276.53133 
L 144.460471 276.007082 
L 146.28534 276.007082 
L 146.28534 274.958587 
L 154.332916 274.958587 
L 154.332916 273.910091 
L 160.673179 273.910091 
L 160.673179 273.385844 
L 163.058696 273.385844 
L 163.058696 272.337348 
L 163.848126 272.337348 
L 163.848126 271.8131 
L 164.037515 271.8131 
L 164.037515 271.288853 
L 164.505224 271.288853 
L 164.505224 270.764605 
L 167.483827 270.764605 
L 167.483827 270.240357 
L 167.666254 270.240357 
L 167.666254 269.716109 
L 170.445663 269.716109 
L 170.445663 269.191862 
L 175.956524 269.191862 
L 175.956524 268.667614 
L 176.108537 268.667614 
L 176.108537 268.143366 
L 177.112321 268.143366 
L 177.112321 267.619119 
L 178.205318 267.619119 
L 178.205318 267.094871 
L 178.497855 267.094871 
L 178.497855 265.522128 
L 179.317387 265.522128 
L 179.317387 264.99788 
L 181.4142 264.99788 
L 181.4142 263.949385 
L 182.402465 263.949385 
L 182.402465 263.425137 
L 182.997347 263.425137 
L 182.997347 262.376641 
L 183.213898 262.376641 
L 183.303153 261.328146 
L 183.659765 261.328146 
L 183.659765 260.803898 
L 184.017271 260.803898 
L 184.017271 258.706907 
L 184.365507 258.706907 
L 184.365507 258.18266 
L 186.124633 258.18266 
L 186.124633 257.658412 
L 186.991154 257.658412 
L 187.071367 256.609917 
L 187.698314 256.609917 
L 187.698314 254.512926 
L 187.816932 254.512926 
L 187.816932 253.988678 
L 189.530389 253.988678 
L 189.530389 253.46443 
L 190.534402 253.46443 
L 190.534402 252.940182 
L 190.776339 252.940182 
L 190.851678 250.843192 
L 191.00544 250.843192 
L 191.00544 248.746201 
L 191.315555 248.746201 
L 191.315555 247.697705 
L 191.717284 247.697705 
L 191.717284 247.173458 
L 192.365831 247.173458 
L 192.365831 246.64921 
L 192.554422 246.64921 
L 192.554422 246.124962 
L 192.838665 246.124962 
L 192.838665 245.600714 
L 193.881094 245.600714 
L 193.881094 242.979476 
L 194.440395 242.979476 
L 194.440395 242.455228 
L 195.013234 242.455228 
L 195.038435 240.882485 
L 197.360052 240.882485 
L 197.360052 240.358237 
L 197.763519 240.358237 
L 197.763519 238.785494 
L 197.881556 238.785494 
L 197.983896 237.212751 
L 198.103575 237.212751 
L 198.103575 236.688503 
L 198.51864 236.688503 
L 198.51864 235.11576 
L 198.898687 235.11576 
L 198.898687 234.067265 
L 199.894215 234.067265 
L 199.894215 231.970274 
L 200.188254 231.970274 
L 200.188254 230.921778 
L 200.373537 230.921778 
L 200.433944 229.349035 
L 200.846749 229.349035 
L 200.922274 225.679301 
L 200.983822 225.679301 
L 201.094583 223.58231 
L 201.157396 223.58231 
L 201.157396 223.058063 
L 202.568507 223.058063 
L 202.676083 220.436824 
L 202.760431 220.436824 
L 202.763167 218.339833 
L 202.916037 218.339833 
L 202.916037 217.815585 
L 203.207432 217.815585 
L 203.207432 216.76709 
L 203.553524 216.76709 
L 203.553524 215.718594 
L 204.297906 215.718594 
L 204.297906 215.194347 
L 204.852532 215.194347 
L 204.852532 214.670099 
L 205.405095 214.670099 
L 205.452545 213.097356 
L 205.685253 213.097356 
L 205.685253 211.524613 
L 205.860098 211.524613 
L 205.860098 211.000365 
L 206.038273 211.000365 
L 206.038273 209.95187 
L 206.469325 209.95187 
L 206.544155 205.757888 
L 207.26561 205.757888 
L 207.288759 204.709392 
L 207.803087 204.709392 
L 207.861416 203.136649 
L 208.054849 203.136649 
L 208.054849 201.563906 
L 208.181608 201.563906 
L 208.288599 198.942667 
L 208.546117 198.942667 
L 208.650386 196.321429 
L 209.646212 196.321429 
L 209.659044 192.651695 
L 210.024371 192.651695 
L 210.024371 192.127447 
L 210.170625 192.127447 
L 210.170625 191.603199 
L 210.755987 191.603199 
L 210.755987 191.078952 
L 210.881249 191.078952 
L 210.971259 187.933465 
L 211.215913 187.933465 
L 211.314182 185.836474 
L 211.379385 185.836474 
L 211.379385 185.312227 
L 211.585404 185.312227 
L 211.585404 184.263731 
L 211.808201 184.263731 
L 211.808201 183.739484 
L 211.924451 183.739484 
L 211.988185 181.642493 
L 212.509737 181.642493 
L 212.509737 181.118245 
L 212.67238 181.118245 
L 212.67238 180.593997 
L 212.790402 180.593997 
L 212.802617 177.448511 
L 213.730577 177.448511 
L 213.750813 174.827272 
L 213.900755 174.827272 
L 213.900755 173.778777 
L 214.047981 173.778777 
L 214.047981 172.206034 
L 214.187445 172.206034 
L 214.187445 171.681786 
L 214.307442 171.681786 
L 214.307442 171.157538 
L 214.575101 171.157538 
L 214.63764 165.390813 
L 214.833574 165.390813 
L 214.847641 163.293823 
L 215.08371 163.293823 
L 215.092063 161.196832 
L 215.463834 161.196832 
L 215.515735 157.527098 
L 216.03296 157.527098 
L 216.03296 157.00285 
L 216.523873 157.00285 
L 216.523873 156.478602 
L 216.857359 156.478602 
L 216.884621 153.857364 
L 216.989502 153.857364 
L 217.075599 149.663382 
L 217.423327 149.663382 
L 217.423327 149.139134 
L 217.722215 149.139134 
L 217.767883 148.090639 
L 217.846907 148.090639 
L 217.846907 147.042143 
L 217.964202 147.042143 
L 217.964202 146.517896 
L 218.436686 146.517896 
L 218.540065 141.799666 
L 218.600515 141.799666 
L 218.600515 140.751171 
L 219.025664 140.751171 
L 219.025664 140.226923 
L 219.416414 140.226923 
L 219.416414 139.702675 
L 219.65649 139.702675 
L 219.65649 139.178427 
L 219.803059 139.178427 
L 219.82502 138.129932 
L 220.426478 138.129932 
L 220.426478 137.081437 
L 220.666369 137.081437 
L 220.666369 136.032941 
L 220.836823 136.032941 
L 220.923206 134.460198 
L 220.979526 134.460198 
L 221.049964 132.363207 
L 221.344436 132.363207 
L 221.344436 131.838959 
L 221.571487 131.838959 
L 221.571487 131.314712 
L 221.897435 131.314712 
L 221.912274 129.741969 
L 222.04603 129.741969 
L 222.04603 127.644978 
L 222.192136 127.644978 
L 222.192136 127.12073 
L 222.44313 127.12073 
L 222.532239 125.023739 
L 222.669345 125.023739 
L 222.723132 123.975244 
L 222.868832 123.975244 
L 222.868832 123.450996 
L 223.188432 123.450996 
L 223.203449 122.4025 
L 224.123164 122.4025 
L 224.127314 121.354005 
L 224.472561 121.354005 
L 224.472561 120.30551 
L 224.900032 120.30551 
L 224.900032 119.781262 
L 225.10341 119.781262 
L 225.175878 118.732766 
L 225.399544 118.732766 
L 225.458987 117.160023 
L 225.887816 117.160023 
L 225.887816 116.635776 
L 226.196019 116.635776 
L 226.196019 116.111528 
L 226.380648 116.111528 
L 226.380648 115.063032 
L 226.776026 115.063032 
L 226.776026 114.538785 
L 226.939723 114.538785 
L 227.007459 112.441794 
L 227.395793 112.441794 
L 227.395793 111.917546 
L 227.793926 111.917546 
L 227.793926 111.393298 
L 229.137717 111.393298 
L 229.137717 110.869051 
L 230.002977 110.869051 
L 230.002977 110.344803 
L 230.223772 110.344803 
L 230.223772 109.296308 
L 254.555211 109.296308 
L 254.555211 108.77206 
L 254.838966 108.77206 
L 254.91579 105.626573 
L 254.959004 105.626573 
L 255.062854 103.005335 
L 255.194713 103.005335 
L 255.204599 100.384096 
L 255.346698 100.384096 
L 255.444417 96.714362 
L 255.524532 96.714362 
L 255.60361 95.665867 
L 255.682706 95.665867 
L 255.768319 94.093124 
L 255.837452 94.093124 
L 255.934654 89.899142 
L 256.023947 89.899142 
L 256.060609 87.277903 
L 256.161843 87.277903 
L 256.25612 84.132417 
L 256.338174 84.132417 
L 256.37719 82.035426 
L 256.45941 82.035426 
L 256.45941 81.511178 
L 256.649466 81.511178 
L 256.759361 78.365692 
L 256.764845 78.365692 
L 256.854277 75.220206 
L 257.077358 75.220206 
L 257.155277 72.598967 
L 257.233306 72.598967 
L 257.233306 72.074719 
L 257.380091 72.074719 
L 257.380091 71.550472 
L 257.580464 71.550472 
L 257.580464 70.501976 
L 257.802281 70.501976 
L 257.802281 69.977729 
L 257.969174 69.977729 
L 258.012855 68.404985 
L 266.303206 68.404985 
L 266.303206 67.880738 
L 266.486309 67.880738 
L 266.58354 65.783747 
L 266.677092 65.783747 
L 266.771522 64.735251 
L 266.800609 64.735251 
L 266.882558 61.589765 
L 266.924273 61.589765 
L 267.007589 60.54127 
L 267.085851 60.54127 
L 267.183482 57.920031 
L 267.219543 57.920031 
L 267.328336 56.347288 
L 267.392654 56.347288 
L 267.456582 54.250297 
L 267.559981 54.250297 
L 267.670864 51.629058 
L 267.788167 51.629058 
L 267.89788 50.580563 
L 268.112364 50.580563 
L 268.112364 49.532068 
L 271.10271 49.532068 
L 271.10271 49.00782 
L 273.482256 49.00782 
L 273.5343 47.959324 
L 273.694256 47.959324 
L 273.694256 47.435077 
L 273.955532 47.435077 
L 273.955532 46.910829 
L 274.070664 46.910829 
L 274.113972 45.338086 
L 274.19085 45.338086 
L 274.19085 44.813838 
L 276.573669 44.813838 
L 276.573669 44.28959 
L 278.263311 44.28959 
L 278.263311 43.765343 
L 278.726221 43.765343 
L 278.782571 41.668352 
L 278.837575 41.668352 
L 278.840241 39.571361 
L 279.085145 39.571361 
L 279.085145 39.047113 
L 282.389495 39.047113 
L 282.477561 37.998618 
L 282.514072 37.998618 
L 282.615908 35.901627 
L 282.722069 35.901627 
L 282.722069 35.377379 
L 285.481136 35.377379 
L 285.554798 33.804636 
L 288.132291 33.804636 
L 288.133844 32.231893 
L 290.345371 32.231893 
L 290.42189 31.183397 
L 292.30542 31.183397 
L 292.351637 29.610654 
L 295.744631 29.610654 
L 295.744631 28.562159 
L 299.850815 28.562159 
L 299.901506 27.513663 
L 333.429677 27.513663 
L 333.429677 27.513663 
" style="fill:none;stroke:#ff00ff;stroke-linecap:square;stroke-width:1.5;"/>
   </g>
   <g id="line2d_34">
    <defs>
     <path d="M -0 8.485281 
L 5.091169 0 
L 0 -8.485281 
L -5.091169 -0 
z
" id="md62a193778" style="stroke:#ff00ff;stroke-linejoin:miter;stroke-width:1.5;"/>
    </defs>
    <g>
     <use style="fill-opacity:0;stroke:#ff00ff;stroke-linejoin:miter;stroke-width:1.5;" x="127.646123" xlink:href="#md62a193778" y="277.055578"/>
     <use style="fill-opacity:0;stroke:#ff00ff;stroke-linejoin:miter;stroke-width:1.5;" x="202.568507" xlink:href="#md62a193778" y="223.058063"/>
     <use style="fill-opacity:0;stroke:#ff00ff;stroke-linejoin:miter;stroke-width:1.5;" x="256.37719" xlink:href="#md62a193778" y="82.035426"/>
     <use style="fill-opacity:0;stroke:#ff00ff;stroke-linejoin:miter;stroke-width:1.5;" x="299.901506" xlink:href="#md62a193778" y="28.037911"/>
     <use style="fill-opacity:0;stroke:#ff00ff;stroke-linejoin:miter;stroke-width:1.5;" x="299.901506" xlink:href="#md62a193778" y="27.513663"/>
     <use style="fill-opacity:0;stroke:#ff00ff;stroke-linejoin:miter;stroke-width:1.5;" x="333.429677" xlink:href="#md62a193778" y="27.513663"/>
    </g>
   </g>
   <g id="line2d_35">
    <path style="fill:none;stroke:#ff00ff;stroke-linecap:square;stroke-width:1.5;"/>
    <g/>
   </g>
   <g id="line2d_36">
    <path clip-path="url(#p2097a0a032)" d="M 254.198341 109.296308 
" style="fill:none;stroke:#ff00ff;stroke-linecap:square;stroke-width:1.5;"/>
    <defs>
     <path d="M -12 12 
L 12 -12 
M -12 -12 
L 12 12 
" id="m619136e600" style="stroke:#ff00ff;stroke-width:3;"/>
    </defs>
    <g clip-path="url(#p2097a0a032)">
     <use style="fill:#ff00ff;stroke:#ff00ff;stroke-width:3;" x="254.198341" xlink:href="#m619136e600" y="109.296308"/>
    </g>
   </g>
   <g id="line2d_37">
    <defs>
     <path d="M 0 1.5 
C 0.397805 1.5 0.77937 1.341951 1.06066 1.06066 
C 1.341951 0.77937 1.5 0.397805 1.5 0 
C 1.5 -0.397805 1.341951 -0.77937 1.06066 -1.06066 
C 0.77937 -1.341951 0.397805 -1.5 0 -1.5 
C -0.397805 -1.5 -0.77937 -1.341951 -1.06066 -1.06066 
C -1.341951 -0.77937 -1.5 -0.397805 -1.5 0 
C -1.5 0.397805 -1.341951 0.77937 -1.06066 1.06066 
C -0.77937 1.341951 -0.397805 1.5 0 1.5 
z
" id="mb4a76c5603" style="stroke:#ffa500;"/>
    </defs>
    <g>
     <use style="fill:#ffa500;stroke:#ffa500;" x="242.18466" xlink:href="#mb4a76c5603" y="27.513663"/>
     <use style="fill:#ffa500;stroke:#ffa500;" x="242.18466" xlink:href="#mb4a76c5603" y="27.513663"/>
    </g>
   </g>
   <g id="line2d_38">
    <path d="M 16.504332 294.88 
L 16.504332 289.637523 
L 67.16301 289.637523 
L 67.16301 289.113275 
L 75.021477 289.113275 
L 75.021477 287.540532 
L 77.174892 287.540532 
L 77.174892 287.016284 
L 79.971009 287.016284 
L 79.971009 286.492036 
L 81.610808 286.492036 
L 81.610808 285.967789 
L 83.810164 285.967789 
L 83.810164 284.919293 
L 84.150865 284.919293 
L 84.150865 283.870798 
L 84.812673 283.870798 
L 84.812673 283.34655 
L 85.449963 283.34655 
L 85.449963 282.822302 
L 85.759969 282.822302 
L 85.759969 282.298055 
L 86.36371 282.298055 
L 86.36371 281.249559 
L 87.231366 281.249559 
L 87.231366 280.725312 
L 87.78641 280.725312 
L 87.78641 279.676816 
L 88.586781 279.676816 
L 88.586781 279.152568 
L 89.100397 279.152568 
L 89.100397 278.104073 
L 89.351567 278.104073 
L 89.351567 277.055578 
L 90.321112 277.055578 
L 90.321112 276.53133 
L 90.555195 276.53133 
L 90.555195 276.007082 
L 90.786137 276.007082 
L 90.786137 274.958587 
L 91.238922 274.958587 
L 91.238922 274.434339 
L 91.460924 274.434339 
L 91.460924 273.385844 
L 92.110241 273.385844 
L 92.110241 272.337348 
L 94.487099 272.337348 
L 94.487099 270.764605 
L 95.562754 270.764605 
L 95.562754 270.240357 
L 95.735668 270.240357 
L 95.735668 269.191862 
L 96.575096 269.191862 
L 96.575096 268.143366 
L 97.218344 268.143366 
L 97.218344 267.619119 
L 97.531168 267.619119 
L 97.531168 267.094871 
L 97.838406 267.094871 
L 97.838406 266.570623 
L 99.297319 266.570623 
L 99.297319 266.046375 
L 100.898928 266.046375 
L 100.898928 265.522128 
L 106.778678 265.522128 
L 106.778678 263.949385 
L 117.533332 263.949385 
L 117.533332 263.425137 
L 133.034273 263.425137 
L 133.034273 262.900889 
L 133.614919 262.900889 
L 133.614919 262.376641 
L 133.728734 262.376641 
L 133.728734 261.852394 
L 134.378051 261.852394 
L 134.378051 261.328146 
L 134.59515 261.328146 
L 134.631068 259.231155 
L 135.282379 259.231155 
L 135.316892 256.609917 
L 135.522531 256.609917 
L 135.522531 256.085669 
L 135.692038 256.085669 
L 135.692038 255.561421 
L 135.84318 255.561421 
L 135.84318 255.037173 
L 136.190765 255.037173 
L 136.190765 254.512926 
L 136.337607 254.512926 
L 136.337607 253.988678 
L 136.499308 253.988678 
L 136.563565 252.940182 
L 137.022388 252.940182 
L 137.022388 251.891687 
L 137.224162 251.891687 
L 137.224162 251.367439 
L 137.347164 251.367439 
L 137.454074 249.270448 
L 137.499691 249.270448 
L 137.499691 248.746201 
L 137.904883 248.746201 
L 138.008393 246.64921 
L 138.242676 246.64921 
L 138.242676 246.124962 
L 138.401914 246.124962 
L 138.416318 244.027971 
L 138.968847 244.027971 
L 139.066168 241.93098 
L 139.135347 241.93098 
L 139.135347 241.406733 
L 139.259174 241.406733 
L 139.259174 240.882485 
L 139.382115 240.882485 
L 139.450038 238.785494 
L 139.785688 238.785494 
L 139.785688 238.261246 
L 139.918135 238.261246 
L 139.918135 237.212751 
L 140.036473 237.212751 
L 140.036473 236.688503 
L 140.501847 236.688503 
L 140.501847 236.164255 
L 140.704707 236.164255 
L 140.780167 233.543017 
L 140.855297 233.543017 
L 140.855297 233.018769 
L 140.967381 233.018769 
L 141.054056 230.397531 
L 141.128003 230.397531 
L 141.128003 229.873283 
L 141.262751 229.873283 
L 141.31149 227.776292 
L 141.396453 227.776292 
L 141.408556 225.679301 
L 141.589091 225.679301 
L 141.660779 224.106558 
L 142.026477 224.106558 
L 142.131207 223.058063 
L 142.142805 223.058063 
L 142.165976 220.436824 
L 142.281368 220.436824 
L 142.281368 219.912576 
L 142.43023 219.912576 
L 142.43023 218.864081 
L 143.736167 218.864081 
L 143.736167 218.339833 
L 155.026574 218.339833 
L 155.043015 216.242842 
L 155.271546 216.242842 
L 155.271546 215.718594 
L 155.497081 215.718594 
L 155.497081 215.194347 
L 165.015866 215.194347 
L 165.104606 209.427622 
L 165.138147 209.427622 
L 165.138147 208.903374 
L 165.319954 208.903374 
L 165.359094 206.806383 
L 165.449078 206.806383 
L 165.449078 206.282136 
L 165.657227 206.282136 
L 165.754489 204.185145 
L 165.842433 204.185145 
L 165.909554 202.612401 
L 166.507771 202.612401 
L 166.617133 201.563906 
L 167.763287 201.563906 
L 167.763287 201.039658 
L 171.362805 201.039658 
L 171.47066 197.894172 
L 171.504357 197.894172 
L 171.537989 196.845677 
L 171.615513 196.845677 
L 171.678114 195.797181 
L 171.784016 195.797181 
L 171.846008 193.70019 
L 172.026573 193.70019 
L 172.103963 191.078952 
L 172.265759 191.078952 
L 172.3521 188.981961 
L 172.565086 188.981961 
L 172.624331 187.409218 
L 172.781329 187.409218 
L 172.781329 186.88497 
L 179.909653 186.88497 
L 179.909653 186.360722 
L 182.647517 186.360722 
L 182.728796 181.642493 
L 182.762732 181.642493 
L 182.839116 179.021254 
L 182.876094 179.021254 
L 182.985476 174.827272 
L 183.051203 174.827272 
L 183.089876 172.206034 
L 184.203337 172.206034 
L 184.203337 171.681786 
L 185.244364 171.681786 
L 185.32559 169.584795 
L 185.359478 169.584795 
L 185.405497 166.439309 
L 185.502763 166.439309 
L 185.610608 163.293823 
L 185.638389 163.293823 
L 185.731591 157.527098 
L 185.750906 157.527098 
L 185.805057 156.478602 
L 185.896451 156.478602 
L 185.904653 154.905859 
L 186.132727 154.905859 
L 186.196444 150.18763 
L 186.267063 150.18763 
L 186.31161 145.993648 
L 186.390619 145.993648 
L 186.493056 140.751171 
L 186.501858 140.751171 
L 186.501858 139.702675 
L 192.474384 139.702675 
L 192.474384 138.65418 
L 196.944498 138.65418 
L 197.038244 132.887455 
L 197.067793 132.887455 
L 197.176967 127.644978 
L 197.180752 127.644978 
L 197.2195 125.023739 
L 199.903909 125.023739 
L 199.988904 120.30551 
L 200.028237 120.30551 
L 200.124187 112.441794 
L 201.949096 112.441794 
L 202.058108 103.005335 
L 202.075202 103.005335 
L 202.117506 100.908344 
L 203.007987 100.908344 
L 203.007987 100.384096 
L 204.856167 100.384096 
L 204.960321 90.42339 
L 204.973258 90.42339 
L 205.024611 86.229408 
L 207.794154 86.229408 
L 207.794154 84.656665 
L 214.122715 84.656665 
L 214.186741 65.783747 
L 214.763914 65.783747 
L 214.811347 62.638261 
L 215.530559 62.638261 
L 215.530559 62.114013 
L 215.925724 62.114013 
L 216.005105 58.968526 
L 217.093153 58.968526 
L 217.127318 55.82304 
L 217.476048 55.82304 
L 217.564091 54.250297 
L 217.5995 54.250297 
L 217.650821 50.056315 
L 217.871937 50.056315 
L 217.871937 49.532068 
L 219.864934 49.532068 
L 219.924822 45.338086 
L 220.710768 45.338086 
L 220.755293 42.192599 
L 221.338047 42.192599 
L 221.367532 40.095609 
L 222.378181 40.095609 
L 222.392502 38.522865 
L 226.289583 38.522865 
L 226.311524 35.377379 
L 226.62879 35.377379 
L 226.62879 34.853131 
L 226.797694 34.853131 
L 226.797694 34.328884 
L 226.985133 34.328884 
L 226.987811 33.280388 
L 227.819214 33.280388 
L 227.819214 32.756141 
L 228.063544 32.756141 
L 228.063544 32.231893 
L 229.34905 32.231893 
L 229.377542 31.183397 
L 233.340638 31.183397 
L 233.340638 30.65915 
L 233.561056 30.65915 
L 233.561056 30.134902 
L 233.982736 30.134902 
L 233.982736 29.610654 
L 234.369942 29.610654 
L 234.369942 29.086407 
L 236.06072 29.086407 
L 236.06072 28.562159 
L 238.484361 28.562159 
L 238.484361 28.037911 
L 242.18466 28.037911 
L 242.18466 27.513663 
L 333.429677 27.513663 
L 333.429677 27.513663 
" style="fill:none;stroke:#ffa500;stroke-linecap:square;stroke-width:1.5;"/>
   </g>
   <g id="line2d_39">
    <defs>
     <path d="M 0 -6 
L -1.347084 -1.854102 
L -5.706339 -1.854102 
L -2.179628 0.708204 
L -3.526712 4.854102 
L -0 2.291796 
L 3.526712 4.854102 
L 2.179628 0.708204 
L 5.706339 -1.854102 
L 1.347084 -1.854102 
z
" id="m3a9418ca76" style="stroke:#ffa500;stroke-linejoin:bevel;stroke-width:1.5;"/>
    </defs>
    <g>
     <use style="fill-opacity:0;stroke:#ffa500;stroke-linejoin:bevel;stroke-width:1.5;" x="95.735668" xlink:href="#m3a9418ca76" y="270.240357"/>
     <use style="fill-opacity:0;stroke:#ffa500;stroke-linejoin:bevel;stroke-width:1.5;" x="155.497081" xlink:href="#m3a9418ca76" y="215.718594"/>
     <use style="fill-opacity:0;stroke:#ffa500;stroke-linejoin:bevel;stroke-width:1.5;" x="199.967996" xlink:href="#m3a9418ca76" y="122.926748"/>
     <use style="fill-opacity:0;stroke:#ffa500;stroke-linejoin:bevel;stroke-width:1.5;" x="242.18466" xlink:href="#m3a9418ca76" y="28.037911"/>
     <use style="fill-opacity:0;stroke:#ffa500;stroke-linejoin:bevel;stroke-width:1.5;" x="242.18466" xlink:href="#m3a9418ca76" y="27.513663"/>
     <use style="fill-opacity:0;stroke:#ffa500;stroke-linejoin:bevel;stroke-width:1.5;" x="333.429677" xlink:href="#m3a9418ca76" y="27.513663"/>
    </g>
   </g>
   <g id="line2d_40">
    <path style="fill:none;stroke:#ffa500;stroke-linecap:square;stroke-width:1.5;"/>
    <g/>
   </g>
   <g id="line2d_41">
    <path clip-path="url(#p2097a0a032)" d="M 214.583361 65.783747 
" style="fill:none;stroke:#ffa500;stroke-linecap:square;stroke-width:1.5;"/>
    <defs>
     <path d="M -12 12 
L 12 -12 
M -12 -12 
L 12 12 
" id="m3928632030" style="stroke:#ffa500;stroke-width:3;"/>
    </defs>
    <g clip-path="url(#p2097a0a032)">
     <use style="fill:#ffa500;stroke:#ffa500;stroke-width:3;" x="214.583361" xlink:href="#m3928632030" y="65.783747"/>
    </g>
   </g>
   <g id="line2d_42">
    <defs>
     <path d="M 0 1.5 
C 0.397805 1.5 0.77937 1.341951 1.06066 1.06066 
C 1.341951 0.77937 1.5 0.397805 1.5 0 
C 1.5 -0.397805 1.341951 -0.77937 1.06066 -1.06066 
C 0.77937 -1.341951 0.397805 -1.5 0 -1.5 
C -0.397805 -1.5 -0.77937 -1.341951 -1.06066 -1.06066 
C -1.341951 -0.77937 -1.5 -0.397805 -1.5 0 
C -1.5 0.397805 -1.341951 0.77937 -1.06066 1.06066 
C -0.77937 1.341951 -0.397805 1.5 0 1.5 
z
" id="m11b4ee2a4e" style="stroke:#6495ed;"/>
    </defs>
    <g>
     <use style="fill:#6495ed;stroke:#6495ed;" x="143.704433" xlink:href="#m11b4ee2a4e" y="273.910091"/>
     <use style="fill:#6495ed;stroke:#6495ed;" x="143.704433" xlink:href="#m11b4ee2a4e" y="273.910091"/>
    </g>
   </g>
   <g id="line2d_43">
    <path d="M 16.504332 294.88 
L 16.504332 289.637523 
L 47.331314 289.637523 
L 47.331314 288.06478 
L 61.90896 288.06478 
L 61.90896 287.540532 
L 65.249388 287.540532 
L 65.249388 287.016284 
L 75.585622 287.016284 
L 75.585622 284.919293 
L 90.555195 284.919293 
L 90.555195 284.395046 
L 103.71415 284.395046 
L 103.71415 283.870798 
L 106.778678 283.870798 
L 106.778678 282.822302 
L 110.1404 282.822302 
L 110.1404 281.773807 
L 117.726106 281.773807 
L 117.726106 280.201064 
L 119.370261 280.201064 
L 119.370261 279.676816 
L 119.586677 279.676816 
L 119.586677 279.152568 
L 124.034319 279.152568 
L 124.034319 278.104073 
L 125.498092 278.104073 
L 125.498092 277.579825 
L 130.720002 277.579825 
L 130.720002 277.055578 
L 139.272877 277.055578 
L 139.272877 276.53133 
L 141.384341 276.53133 
L 141.384341 276.007082 
L 141.874065 276.007082 
L 141.874065 274.958587 
L 142.407412 274.958587 
L 142.407412 274.434339 
L 143.704433 274.434339 
L 143.704433 273.910091 
L 333.429677 273.910091 
" style="fill:none;stroke:#6495ed;stroke-linecap:square;stroke-width:1.5;"/>
   </g>
   <g id="line2d_44">
    <defs>
     <path d="M -0 6 
L 6 -6 
L -6 -6 
z
" id="m9414590c5b" style="stroke:#6495ed;stroke-linejoin:miter;stroke-width:1.5;"/>
    </defs>
    <g>
     <use style="fill-opacity:0;stroke:#6495ed;stroke-linejoin:miter;stroke-width:1.5;" x="61.90896" xlink:href="#m9414590c5b" y="287.540532"/>
     <use style="fill-opacity:0;stroke:#6495ed;stroke-linejoin:miter;stroke-width:1.5;" x="143.704433" xlink:href="#m9414590c5b" y="274.434339"/>
     <use style="fill-opacity:0;stroke:#6495ed;stroke-linejoin:miter;stroke-width:1.5;" x="143.704433" xlink:href="#m9414590c5b" y="274.434339"/>
     <use style="fill-opacity:0;stroke:#6495ed;stroke-linejoin:miter;stroke-width:1.5;" x="143.704433" xlink:href="#m9414590c5b" y="273.910091"/>
     <use style="fill-opacity:0;stroke:#6495ed;stroke-linejoin:miter;stroke-width:1.5;" x="143.704433" xlink:href="#m9414590c5b" y="273.910091"/>
     <use style="fill-opacity:0;stroke:#6495ed;stroke-linejoin:miter;stroke-width:1.5;" x="333.429677" xlink:href="#m9414590c5b" y="273.910091"/>
    </g>
   </g>
   <g id="line2d_45">
    <path style="fill:none;stroke:#6495ed;stroke-linecap:square;stroke-width:1.5;"/>
    <g/>
   </g>
   <g id="line2d_46">
    <path clip-path="url(#p2097a0a032)" d="M 80.395842 284.919293 
" style="fill:none;stroke:#6495ed;stroke-linecap:square;stroke-width:1.5;"/>
    <defs>
     <path d="M -12 12 
L 12 -12 
M -12 -12 
L 12 12 
" id="mb337f49719" style="stroke:#6495ed;stroke-width:3;"/>
    </defs>
    <g clip-path="url(#p2097a0a032)">
     <use style="fill:#6495ed;stroke:#6495ed;stroke-width:3;" x="80.395842" xlink:href="#mb337f49719" y="284.919293"/>
    </g>
   </g>
   <g id="line2d_47">
    <path d="M 333.429677 273.910091 
L 363.933742 289.532673 
" style="fill:none;stroke:#6495ed;stroke-linecap:square;stroke-width:1.5;"/>
    <g>
     <use style="fill-opacity:0;stroke:#6495ed;stroke-linejoin:miter;stroke-width:1.5;" x="333.429677" xlink:href="#m9414590c5b" y="273.910091"/>
     <use style="fill-opacity:0;stroke:#6495ed;stroke-linejoin:miter;stroke-width:1.5;" x="363.933742" xlink:href="#m9414590c5b" y="289.532673"/>
    </g>
   </g>
   <g id="line2d_48">
    <path d="M 333.429677 27.513663 
L 363.933742 225.364752 
" style="fill:none;stroke:#ff00ff;stroke-linecap:square;stroke-width:1.5;"/>
    <g>
     <use style="fill-opacity:0;stroke:#ff00ff;stroke-linejoin:miter;stroke-width:1.5;" x="333.429677" xlink:href="#md62a193778" y="27.513663"/>
     <use style="fill-opacity:0;stroke:#ff00ff;stroke-linejoin:miter;stroke-width:1.5;" x="363.933742" xlink:href="#md62a193778" y="225.364752"/>
    </g>
   </g>
   <g id="line2d_49">
    <path d="M 333.429677 27.513663 
L 363.933742 161.196832 
" style="fill:none;stroke:#000080;stroke-linecap:square;stroke-width:1.5;"/>
    <g>
     <use style="fill-opacity:0;stroke:#000080;stroke-width:1.5;" x="333.429677" xlink:href="#m80ec547e90" y="27.513663"/>
     <use style="fill-opacity:0;stroke:#000080;stroke-width:1.5;" x="363.933742" xlink:href="#m80ec547e90" y="161.196832"/>
    </g>
   </g>
   <g id="line2d_50">
    <path d="M 333.429677 27.513663 
L 363.933742 97.028911 
" style="fill:none;stroke:#ffa500;stroke-linecap:square;stroke-width:1.5;"/>
    <g>
     <use style="fill-opacity:0;stroke:#ffa500;stroke-linejoin:bevel;stroke-width:1.5;" x="333.429677" xlink:href="#m3a9418ca76" y="27.513663"/>
     <use style="fill-opacity:0;stroke:#ffa500;stroke-linejoin:bevel;stroke-width:1.5;" x="363.933742" xlink:href="#m3a9418ca76" y="97.028911"/>
    </g>
   </g>
   <g id="line2d_51">
    <path d="M 333.429677 294.88 
L 333.429677 27.513663 
" style="fill:none;stroke:#000000;stroke-linecap:square;stroke-width:1.5;"/>
   </g>
   <g id="patch_3">
    <path d="M 56.12 294.88 
L 56.12 24.84 
" style="fill:none;stroke:#000000;stroke-linecap:square;stroke-linejoin:miter;stroke-width:0.8;"/>
   </g>
   <g id="patch_4">
    <path d="M 399.984 294.88 
L 399.984 24.84 
" style="fill:none;stroke:#000000;stroke-linecap:square;stroke-linejoin:miter;stroke-width:0.8;"/>
   </g>
   <g id="patch_5">
    <path d="M 56.12 294.88 
L 399.984 294.88 
" style="fill:none;stroke:#000000;stroke-linecap:square;stroke-linejoin:miter;stroke-width:0.8;"/>
   </g>
   <g id="patch_6">
    <path d="M 56.12 24.84 
L 399.984 24.84 
" style="fill:none;stroke:#000000;stroke-linecap:square;stroke-linejoin:miter;stroke-width:0.8;"/>
   </g>
   <g id="text_14">
    <!-- hybrid -->
    <defs>
     <path d="M 54.890625 33.015625 
L 54.890625 0 
L 45.90625 0 
L 45.90625 32.71875 
Q 45.90625 40.484375 42.875 44.328125 
Q 39.84375 48.1875 33.796875 48.1875 
Q 26.515625 48.1875 22.3125 43.546875 
Q 18.109375 38.921875 18.109375 30.90625 
L 18.109375 0 
L 9.078125 0 
L 9.078125 75.984375 
L 18.109375 75.984375 
L 18.109375 46.1875 
Q 21.34375 51.125 25.703125 53.5625 
Q 30.078125 56 35.796875 56 
Q 45.21875 56 50.046875 50.171875 
Q 54.890625 44.34375 54.890625 33.015625 
z
" id="DejaVuSans-68"/>
     <path d="M 32.171875 -5.078125 
Q 28.375 -14.84375 24.75 -17.8125 
Q 21.140625 -20.796875 15.09375 -20.796875 
L 7.90625 -20.796875 
L 7.90625 -13.28125 
L 13.1875 -13.28125 
Q 16.890625 -13.28125 18.9375 -11.515625 
Q 21 -9.765625 23.484375 -3.21875 
L 25.09375 0.875 
L 2.984375 54.6875 
L 12.5 54.6875 
L 29.59375 11.921875 
L 46.6875 54.6875 
L 56.203125 54.6875 
z
" id="DejaVuSans-79"/>
     <path d="M 48.6875 27.296875 
Q 48.6875 37.203125 44.609375 42.84375 
Q 40.53125 48.484375 33.40625 48.484375 
Q 26.265625 48.484375 22.1875 42.84375 
Q 18.109375 37.203125 18.109375 27.296875 
Q 18.109375 17.390625 22.1875 11.75 
Q 26.265625 6.109375 33.40625 6.109375 
Q 40.53125 6.109375 44.609375 11.75 
Q 48.6875 17.390625 48.6875 27.296875 
z
M 18.109375 46.390625 
Q 20.953125 51.265625 25.265625 53.625 
Q 29.59375 56 35.59375 56 
Q 45.5625 56 51.78125 48.09375 
Q 58.015625 40.1875 58.015625 27.296875 
Q 58.015625 14.40625 51.78125 6.484375 
Q 45.5625 -1.421875 35.59375 -1.421875 
Q 29.59375 -1.421875 25.265625 0.953125 
Q 20.953125 3.328125 18.109375 8.203125 
L 18.109375 0 
L 9.078125 0 
L 9.078125 75.984375 
L 18.109375 75.984375 
z
" id="DejaVuSans-62"/>
    </defs>
    <g transform="translate(369.479935 294.223611)scale(0.17 -0.17)">
     <use xlink:href="#DejaVuSans-68"/>
     <use x="63.378906" xlink:href="#DejaVuSans-79"/>
     <use x="122.558594" xlink:href="#DejaVuSans-62"/>
     <use x="186.035156" xlink:href="#DejaVuSans-72"/>
     <use x="227.148438" xlink:href="#DejaVuSans-69"/>
     <use x="254.931641" xlink:href="#DejaVuSans-64"/>
    </g>
   </g>
   <g id="text_15">
    <!-- GA -->
    <defs>
     <path d="M 59.515625 10.40625 
L 59.515625 29.984375 
L 43.40625 29.984375 
L 43.40625 38.09375 
L 69.28125 38.09375 
L 69.28125 6.78125 
Q 63.578125 2.734375 56.6875 0.65625 
Q 49.8125 -1.421875 42 -1.421875 
Q 24.90625 -1.421875 15.25 8.5625 
Q 5.609375 18.5625 5.609375 36.375 
Q 5.609375 54.25 15.25 64.234375 
Q 24.90625 74.21875 42 74.21875 
Q 49.125 74.21875 55.546875 72.453125 
Q 61.96875 70.703125 67.390625 67.28125 
L 67.390625 56.78125 
Q 61.921875 61.421875 55.765625 63.765625 
Q 49.609375 66.109375 42.828125 66.109375 
Q 29.4375 66.109375 22.71875 58.640625 
Q 16.015625 51.171875 16.015625 36.375 
Q 16.015625 21.625 22.71875 14.15625 
Q 29.4375 6.6875 42.828125 6.6875 
Q 48.046875 6.6875 52.140625 7.59375 
Q 56.25 8.5 59.515625 10.40625 
z
" id="DejaVuSans-47"/>
     <path d="M 34.1875 63.1875 
L 20.796875 26.90625 
L 47.609375 26.90625 
z
M 28.609375 72.90625 
L 39.796875 72.90625 
L 67.578125 0 
L 57.328125 0 
L 50.6875 18.703125 
L 17.828125 18.703125 
L 11.1875 0 
L 0.78125 0 
z
" id="DejaVuSans-41"/>
    </defs>
    <g transform="translate(369.479935 230.05569)scale(0.17 -0.17)">
     <use xlink:href="#DejaVuSans-47"/>
     <use x="77.490234" xlink:href="#DejaVuSans-41"/>
    </g>
   </g>
   <g id="text_16">
    <!-- DASA -->
    <defs>
     <path d="M 19.671875 64.796875 
L 19.671875 8.109375 
L 31.59375 8.109375 
Q 46.6875 8.109375 53.6875 14.9375 
Q 60.6875 21.78125 60.6875 36.53125 
Q 60.6875 51.171875 53.6875 57.984375 
Q 46.6875 64.796875 31.59375 64.796875 
z
M 9.8125 72.90625 
L 30.078125 72.90625 
Q 51.265625 72.90625 61.171875 64.09375 
Q 71.09375 55.28125 71.09375 36.53125 
Q 71.09375 17.671875 61.125 8.828125 
Q 51.171875 0 30.078125 0 
L 9.8125 0 
z
" id="DejaVuSans-44"/>
     <path d="M 53.515625 70.515625 
L 53.515625 60.890625 
Q 47.90625 63.578125 42.921875 64.890625 
Q 37.9375 66.21875 33.296875 66.21875 
Q 25.25 66.21875 20.875 63.09375 
Q 16.5 59.96875 16.5 54.203125 
Q 16.5 49.359375 19.40625 46.890625 
Q 22.3125 44.4375 30.421875 42.921875 
L 36.375 41.703125 
Q 47.40625 39.59375 52.65625 34.296875 
Q 57.90625 29 57.90625 20.125 
Q 57.90625 9.515625 50.796875 4.046875 
Q 43.703125 -1.421875 29.984375 -1.421875 
Q 24.8125 -1.421875 18.96875 -0.25 
Q 13.140625 0.921875 6.890625 3.21875 
L 6.890625 13.375 
Q 12.890625 10.015625 18.65625 8.296875 
Q 24.421875 6.59375 29.984375 6.59375 
Q 38.421875 6.59375 43.015625 9.90625 
Q 47.609375 13.234375 47.609375 19.390625 
Q 47.609375 24.75 44.3125 27.78125 
Q 41.015625 30.8125 33.5 32.328125 
L 27.484375 33.5 
Q 16.453125 35.6875 11.515625 40.375 
Q 6.59375 45.0625 6.59375 53.421875 
Q 6.59375 63.09375 13.40625 68.65625 
Q 20.21875 74.21875 32.171875 74.21875 
Q 37.3125 74.21875 42.625 73.28125 
Q 47.953125 72.359375 53.515625 70.515625 
z
" id="DejaVuSans-53"/>
    </defs>
    <g transform="translate(369.479935 165.887769)scale(0.17 -0.17)">
     <use xlink:href="#DejaVuSans-44"/>
     <use x="76.986328" xlink:href="#DejaVuSans-41"/>
     <use x="145.394531" xlink:href="#DejaVuSans-53"/>
     <use x="208.886719" xlink:href="#DejaVuSans-41"/>
    </g>
   </g>
   <g id="text_17">
    <!-- Rosenbroc -->
    <defs>
     <path d="M 44.390625 34.1875 
Q 47.5625 33.109375 50.5625 29.59375 
Q 53.5625 26.078125 56.59375 19.921875 
L 66.609375 0 
L 56 0 
L 46.6875 18.703125 
Q 43.0625 26.03125 39.671875 28.421875 
Q 36.28125 30.8125 30.421875 30.8125 
L 19.671875 30.8125 
L 19.671875 0 
L 9.8125 0 
L 9.8125 72.90625 
L 32.078125 72.90625 
Q 44.578125 72.90625 50.734375 67.671875 
Q 56.890625 62.453125 56.890625 51.90625 
Q 56.890625 45.015625 53.6875 40.46875 
Q 50.484375 35.9375 44.390625 34.1875 
z
M 19.671875 64.796875 
L 19.671875 38.921875 
L 32.078125 38.921875 
Q 39.203125 38.921875 42.84375 42.21875 
Q 46.484375 45.515625 46.484375 51.90625 
Q 46.484375 58.296875 42.84375 61.546875 
Q 39.203125 64.796875 32.078125 64.796875 
z
" id="DejaVuSans-52"/>
    </defs>
    <g transform="translate(369.479935 101.719848)scale(0.17 -0.17)">
     <use xlink:href="#DejaVuSans-52"/>
     <use x="69.419922" xlink:href="#DejaVuSans-6f"/>
     <use x="130.601562" xlink:href="#DejaVuSans-73"/>
     <use x="182.701172" xlink:href="#DejaVuSans-65"/>
     <use x="244.224609" xlink:href="#DejaVuSans-6e"/>
     <use x="307.603516" xlink:href="#DejaVuSans-62"/>
     <use x="371.080078" xlink:href="#DejaVuSans-72"/>
     <use x="412.162109" xlink:href="#DejaVuSans-6f"/>
     <use x="473.34375" xlink:href="#DejaVuSans-63"/>
    </g>
   </g>
   <g id="text_18">
    <!-- best 2009 -->
    <defs>
     <path d="M 10.984375 1.515625 
L 10.984375 10.5 
Q 14.703125 8.734375 18.5 7.8125 
Q 22.3125 6.890625 25.984375 6.890625 
Q 35.75 6.890625 40.890625 13.453125 
Q 46.046875 20.015625 46.78125 33.40625 
Q 43.953125 29.203125 39.59375 26.953125 
Q 35.25 24.703125 29.984375 24.703125 
Q 19.046875 24.703125 12.671875 31.3125 
Q 6.296875 37.9375 6.296875 49.421875 
Q 6.296875 60.640625 12.9375 67.421875 
Q 19.578125 74.21875 30.609375 74.21875 
Q 43.265625 74.21875 49.921875 64.515625 
Q 56.59375 54.828125 56.59375 36.375 
Q 56.59375 19.140625 48.40625 8.859375 
Q 40.234375 -1.421875 26.421875 -1.421875 
Q 22.703125 -1.421875 18.890625 -0.6875 
Q 15.09375 0.046875 10.984375 1.515625 
z
M 30.609375 32.421875 
Q 37.25 32.421875 41.125 36.953125 
Q 45.015625 41.5 45.015625 49.421875 
Q 45.015625 57.28125 41.125 61.84375 
Q 37.25 66.40625 30.609375 66.40625 
Q 23.96875 66.40625 20.09375 61.84375 
Q 16.21875 57.28125 16.21875 49.421875 
Q 16.21875 41.5 20.09375 36.953125 
Q 23.96875 32.421875 30.609375 32.421875 
z
" id="DejaVuSans-39"/>
    </defs>
    <g transform="translate(369.479935 37.551928)scale(0.17 -0.17)">
     <use xlink:href="#DejaVuSans-62"/>
     <use x="63.476562" xlink:href="#DejaVuSans-65"/>
     <use x="125" xlink:href="#DejaVuSans-73"/>
     <use x="177.099609" xlink:href="#DejaVuSans-74"/>
     <use x="216.308594" xlink:href="#DejaVuSans-20"/>
     <use x="248.095703" xlink:href="#DejaVuSans-32"/>
     <use x="311.71875" xlink:href="#DejaVuSans-30"/>
     <use x="375.341797" xlink:href="#DejaVuSans-30"/>
     <use x="438.964844" xlink:href="#DejaVuSans-39"/>
    </g>
   </g>
   <g id="text_19">
    <!-- bbob f21, 10-D -->
    <g transform="translate(59.55864 35.290806)scale(0.102 -0.102)">
     <use xlink:href="#DejaVuSans-62"/>
     <use x="63.476562" xlink:href="#DejaVuSans-62"/>
     <use x="126.953125" xlink:href="#DejaVuSans-6f"/>
     <use x="188.134766" xlink:href="#DejaVuSans-62"/>
     <use x="251.611328" xlink:href="#DejaVuSans-20"/>
     <use x="283.398438" xlink:href="#DejaVuSans-66"/>
     <use x="318.603516" xlink:href="#DejaVuSans-32"/>
     <use x="382.226562" xlink:href="#DejaVuSans-31"/>
     <use x="445.849609" xlink:href="#DejaVuSans-2c"/>
     <use x="477.636719" xlink:href="#DejaVuSans-20"/>
     <use x="509.423828" xlink:href="#DejaVuSans-31"/>
     <use x="573.046875" xlink:href="#DejaVuSans-30"/>
     <use x="636.669922" xlink:href="#DejaVuSans-2d"/>
     <use x="672.753906" xlink:href="#DejaVuSans-44"/>
    </g>
    <!-- 51 targets: 100..1e-08 -->
    <defs>
     <path d="M 10.796875 72.90625 
L 49.515625 72.90625 
L 49.515625 64.59375 
L 19.828125 64.59375 
L 19.828125 46.734375 
Q 21.96875 47.46875 24.109375 47.828125 
Q 26.265625 48.1875 28.421875 48.1875 
Q 40.625 48.1875 47.75 41.5 
Q 54.890625 34.8125 54.890625 23.390625 
Q 54.890625 11.625 47.5625 5.09375 
Q 40.234375 -1.421875 26.90625 -1.421875 
Q 22.3125 -1.421875 17.546875 -0.640625 
Q 12.796875 0.140625 7.71875 1.703125 
L 7.71875 11.625 
Q 12.109375 9.234375 16.796875 8.0625 
Q 21.484375 6.890625 26.703125 6.890625 
Q 35.15625 6.890625 40.078125 11.328125 
Q 45.015625 15.765625 45.015625 23.390625 
Q 45.015625 31 40.078125 35.4375 
Q 35.15625 39.890625 26.703125 39.890625 
Q 22.75 39.890625 18.8125 39.015625 
Q 14.890625 38.140625 10.796875 36.28125 
z
" id="DejaVuSans-35"/>
     <path d="M 11.71875 12.40625 
L 22.015625 12.40625 
L 22.015625 0 
L 11.71875 0 
z
M 11.71875 51.703125 
L 22.015625 51.703125 
L 22.015625 39.3125 
L 11.71875 39.3125 
z
" id="DejaVuSans-3a"/>
    </defs>
    <g transform="translate(59.55864 46.712575)scale(0.102 -0.102)">
     <use xlink:href="#DejaVuSans-35"/>
     <use x="63.623047" xlink:href="#DejaVuSans-31"/>
     <use x="127.246094" xlink:href="#DejaVuSans-20"/>
     <use x="159.033203" xlink:href="#DejaVuSans-74"/>
     <use x="198.242188" xlink:href="#DejaVuSans-61"/>
     <use x="259.521484" xlink:href="#DejaVuSans-72"/>
     <use x="300.619141" xlink:href="#DejaVuSans-67"/>
     <use x="364.095703" xlink:href="#DejaVuSans-65"/>
     <use x="425.619141" xlink:href="#DejaVuSans-74"/>
     <use x="464.828125" xlink:href="#DejaVuSans-73"/>
     <use x="516.927734" xlink:href="#DejaVuSans-3a"/>
     <use x="550.619141" xlink:href="#DejaVuSans-20"/>
     <use x="582.40625" xlink:href="#DejaVuSans-31"/>
     <use x="646.029297" xlink:href="#DejaVuSans-30"/>
     <use x="709.652344" xlink:href="#DejaVuSans-30"/>
     <use x="773.275391" xlink:href="#DejaVuSans-2e"/>
     <use x="805.0625" xlink:href="#DejaVuSans-2e"/>
     <use x="836.849609" xlink:href="#DejaVuSans-31"/>
     <use x="900.472656" xlink:href="#DejaVuSans-65"/>
     <use x="961.996094" xlink:href="#DejaVuSans-2d"/>
     <use x="998.080078" xlink:href="#DejaVuSans-30"/>
     <use x="1061.703125" xlink:href="#DejaVuSans-38"/>
    </g>
    <!-- 15 instances -->
    <g transform="translate(59.55864 58.134344)scale(0.102 -0.102)">
     <use xlink:href="#DejaVuSans-31"/>
     <use x="63.623047" xlink:href="#DejaVuSans-35"/>
     <use x="127.246094" xlink:href="#DejaVuSans-20"/>
     <use x="159.033203" xlink:href="#DejaVuSans-69"/>
     <use x="186.816406" xlink:href="#DejaVuSans-6e"/>
     <use x="250.195312" xlink:href="#DejaVuSans-73"/>
     <use x="302.294922" xlink:href="#DejaVuSans-74"/>
     <use x="341.503906" xlink:href="#DejaVuSans-61"/>
     <use x="402.783203" xlink:href="#DejaVuSans-6e"/>
     <use x="466.162109" xlink:href="#DejaVuSans-63"/>
     <use x="521.142578" xlink:href="#DejaVuSans-65"/>
     <use x="582.666016" xlink:href="#DejaVuSans-73"/>
    </g>
   </g>
   <g id="text_20">
    <!-- v-coco-version -->
    <g style="fill:#808080;" transform="translate(191.556688 290.099912)scale(0.1 -0.1)">
     <use xlink:href="#DejaVuSans-76"/>
     <use x="59.148438" xlink:href="#DejaVuSans-2d"/>
     <use x="95.232422" xlink:href="#DejaVuSans-63"/>
     <use x="150.212891" xlink:href="#DejaVuSans-6f"/>
     <use x="211.394531" xlink:href="#DejaVuSans-63"/>
     <use x="266.375" xlink:href="#DejaVuSans-6f"/>
     <use x="327.572266" xlink:href="#DejaVuSans-2d"/>
     <use x="363.625" xlink:href="#DejaVuSans-76"/>
     <use x="422.804688" xlink:href="#DejaVuSans-65"/>
     <use x="484.328125" xlink:href="#DejaVuSans-72"/>
     <use x="525.441406" xlink:href="#DejaVuSans-73"/>
     <use x="577.541016" xlink:href="#DejaVuSans-69"/>
     <use x="605.324219" xlink:href="#DejaVuSans-6f"/>
     <use x="666.505859" xlink:href="#DejaVuSans-6e"/>
    </g>
   </g>
   <g id="text_21">
    <!-- 21 Gallagher 101 peaks -->
    <defs>
     <path d="M 9.078125 75.984375 
L 18.109375 75.984375 
L 18.109375 31.109375 
L 44.921875 54.6875 
L 56.390625 54.6875 
L 27.390625 29.109375 
L 57.625 0 
L 45.90625 0 
L 18.109375 26.703125 
L 18.109375 0 
L 9.078125 0 
z
" id="DejaVuSans-6b"/>
    </defs>
    <g transform="translate(108.5645 18.84)scale(0.2 -0.2)">
     <use xlink:href="#DejaVuSans-32"/>
     <use x="63.623047" xlink:href="#DejaVuSans-31"/>
     <use x="127.246094" xlink:href="#DejaVuSans-20"/>
     <use x="159.033203" xlink:href="#DejaVuSans-47"/>
     <use x="236.523438" xlink:href="#DejaVuSans-61"/>
     <use x="297.802734" xlink:href="#DejaVuSans-6c"/>
     <use x="325.585938" xlink:href="#DejaVuSans-6c"/>
     <use x="353.369141" xlink:href="#DejaVuSans-61"/>
     <use x="414.648438" xlink:href="#DejaVuSans-67"/>
     <use x="478.125" xlink:href="#DejaVuSans-68"/>
     <use x="541.503906" xlink:href="#DejaVuSans-65"/>
     <use x="603.027344" xlink:href="#DejaVuSans-72"/>
     <use x="644.140625" xlink:href="#DejaVuSans-20"/>
     <use x="675.927734" xlink:href="#DejaVuSans-31"/>
     <use x="739.550781" xlink:href="#DejaVuSans-30"/>
     <use x="803.173828" xlink:href="#DejaVuSans-31"/>
     <use x="866.796875" xlink:href="#DejaVuSans-20"/>
     <use x="898.583984" xlink:href="#DejaVuSans-70"/>
     <use x="962.060547" xlink:href="#DejaVuSans-65"/>
     <use x="1023.583984" xlink:href="#DejaVuSans-61"/>
     <use x="1084.863281" xlink:href="#DejaVuSans-6b"/>
     <use x="1142.773438" xlink:href="#DejaVuSans-73"/>
    </g>
   </g>
  </g>
 </g>
 <defs>
  <clipPath id="p2097a0a032">
   <rect height="270.04" width="343.864" x="56.12" y="24.84"/>
  </clipPath>
 </defs>
</svg>
