<?xml version="1.0" encoding="utf-8" standalone="no"?>
<!DOCTYPE svg PUBLIC "-//W3C//DTD SVG 1.1//EN"
  "http://www.w3.org/Graphics/SVG/1.1/DTD/svg11.dtd">
<!-- Created with matplotlib (http://matplotlib.org/) -->
<svg height="345.6pt" version="1.1" viewBox="0 0 460.8 345.6" width="460.8pt" xmlns="http://www.w3.org/2000/svg" xmlns:xlink="http://www.w3.org/1999/xlink">
 <defs>
  <style type="text/css">
*{stroke-linecap:butt;stroke-linejoin:round;}
  </style>
 </defs>
 <g id="figure_1">
  <g id="patch_1">
   <path d="M 0 345.6 
L 460.8 345.6 
L 460.8 0 
L 0 0 
z
" style="fill:#ffffff;"/>
  </g>
  <g id="axes_1">
   <g id="patch_2">
    <path d="M 56.12 294.88 
L 399.984 294.88 
L 399.984 24.84 
L 56.12 24.84 
z
" style="fill:#ffffff;"/>
   </g>
   <g id="line2d_1">
    <path d="M 100.512285 294.88 
L 100.512285 289.637523 
L 107.917329 289.637523 
L 107.917329 284.395046 
L 109.915496 284.395046 
L 109.915496 279.152568 
L 111.43137 279.152568 
L 111.43137 273.910091 
L 113.014543 273.910091 
L 113.014543 268.667614 
L 116.067126 268.667614 
L 116.067126 263.425137 
L 120.54856 263.425137 
L 120.54856 258.18266 
L 129.86593 258.18266 
L 129.86593 252.940182 
L 131.789513 252.940182 
L 131.789513 247.697705 
L 132.994857 247.697705 
L 132.994857 242.455228 
L 133.935458 242.455228 
L 133.935458 237.212751 
L 134.738376 237.212751 
L 134.738376 231.970274 
L 135.488428 231.970274 
L 135.488428 226.727797 
L 136.174371 226.727797 
L 136.174371 221.485319 
L 136.754909 221.485319 
L 136.754909 216.242842 
L 137.208725 216.242842 
L 137.208725 211.000365 
L 137.60566 211.000365 
L 137.60566 205.757888 
L 138.02313 205.757888 
L 138.02313 200.515411 
L 138.300751 200.515411 
L 138.300751 195.272933 
L 138.488154 195.272933 
L 138.488154 190.030456 
L 138.73018 190.030456 
L 138.73018 184.787979 
L 138.94094 184.787979 
L 138.94094 179.545502 
L 139.093873 179.545502 
L 139.093873 174.303025 
L 139.217997 174.303025 
L 139.217997 169.060547 
L 139.300252 169.060547 
L 139.300252 163.81807 
L 139.422901 163.81807 
L 139.422901 158.575593 
L 139.504184 158.575593 
L 139.504184 153.333116 
L 139.625393 153.333116 
L 139.625393 148.090639 
L 139.67899 148.090639 
L 139.67899 142.848162 
L 139.745754 142.848162 
L 139.745754 137.605684 
L 139.798978 137.605684 
L 139.798978 132.363207 
L 139.878508 132.363207 
L 139.878508 127.12073 
L 139.983979 127.12073 
L 139.983979 121.878253 
L 140.023364 121.878253 
L 140.023364 116.635776 
L 140.049571 116.635776 
L 140.049571 111.393298 
L 140.06266 111.393298 
L 140.06266 106.150821 
L 140.114914 106.150821 
L 140.114914 100.908344 
L 140.140982 100.908344 
L 140.140982 95.665867 
L 140.18001 95.665867 
L 140.18001 90.42339 
L 140.244861 90.42339 
L 140.244861 85.180912 
L 140.296566 85.180912 
L 140.296566 79.938435 
L 140.322361 79.938435 
L 140.322361 74.695958 
L 140.348116 74.695958 
L 140.348116 69.453481 
L 140.399513 69.453481 
L 140.399513 64.211004 
L 140.412338 64.211004 
L 140.412338 58.968526 
L 140.425153 58.968526 
L 140.425153 53.726049 
L 140.450756 53.726049 
L 140.450756 48.483572 
L 140.489088 48.483572 
L 140.489088 43.241095 
L 140.501847 43.241095 
L 140.501847 37.998618 
L 140.514596 37.998618 
L 140.514596 32.756141 
L 140.527335 32.756141 
L 140.527335 27.513663 
L 333.429677 27.513663 
" style="fill:none;stroke:#f5deb3;stroke-linecap:square;stroke-width:6;"/>
   </g>
   <g id="line2d_2">
    <defs>
     <path d="M -0 7.778175 
L 7.778175 0 
L 0 -7.778175 
L -7.778175 -0 
z
" id="mfccb484ff1" style="stroke:#f5deb3;stroke-linejoin:miter;stroke-width:1.5;"/>
    </defs>
    <g>
     <use style="fill:#f5deb3;stroke:#f5deb3;stroke-linejoin:miter;stroke-width:1.5;" x="140.06266" xlink:href="#mfccb484ff1" y="106.150821"/>
     <use style="fill:#f5deb3;stroke:#f5deb3;stroke-linejoin:miter;stroke-width:1.5;" x="140.527335" xlink:href="#mfccb484ff1" y="32.756141"/>
     <use style="fill:#f5deb3;stroke:#f5deb3;stroke-linejoin:miter;stroke-width:1.5;" x="140.527335" xlink:href="#mfccb484ff1" y="27.513663"/>
     <use style="fill:#f5deb3;stroke:#f5deb3;stroke-linejoin:miter;stroke-width:1.5;" x="140.527335" xlink:href="#mfccb484ff1" y="27.513663"/>
     <use style="fill:#f5deb3;stroke:#f5deb3;stroke-linejoin:miter;stroke-width:1.5;" x="333.429677" xlink:href="#mfccb484ff1" y="27.513663"/>
    </g>
   </g>
   <g id="line2d_3">
    <path style="fill:none;stroke:#f5deb3;stroke-linecap:square;stroke-width:6;"/>
    <g/>
   </g>
   <g id="line2d_4">
    <path d="M 333.429677 27.513663 
L 363.933742 32.86099 
" style="fill:none;stroke:#f5deb3;stroke-linecap:square;stroke-width:6;"/>
    <g>
     <use style="fill:#f5deb3;stroke:#f5deb3;stroke-linejoin:miter;stroke-width:1.5;" x="333.429677" xlink:href="#mfccb484ff1" y="27.513663"/>
     <use style="fill:#f5deb3;stroke:#f5deb3;stroke-linejoin:miter;stroke-width:1.5;" x="363.933742" xlink:href="#mfccb484ff1" y="32.86099"/>
    </g>
   </g>
   <g id="matplotlib.axis_1">
    <g id="xtick_1">
     <g id="line2d_5">
      <path clip-path="url(#pc0b077d2e6)" d="M 56.12 294.88 
L 56.12 24.84 
" style="fill:none;stroke:#b0b0b0;stroke-linecap:square;stroke-width:0.8;"/>
     </g>
     <g id="line2d_6">
      <defs>
       <path d="M 0 0 
L 0 3.5 
" id="m2ada741093" style="stroke:#000000;stroke-width:0.8;"/>
      </defs>
      <g>
       <use style="stroke:#000000;stroke-width:0.8;" x="56.12" xlink:href="#m2ada741093" y="294.88"/>
      </g>
     </g>
     <g id="text_1">
      <!-- 0 -->
      <defs>
       <path d="M 31.78125 66.40625 
Q 24.171875 66.40625 20.328125 58.90625 
Q 16.5 51.421875 16.5 36.375 
Q 16.5 21.390625 20.328125 13.890625 
Q 24.171875 6.390625 31.78125 6.390625 
Q 39.453125 6.390625 43.28125 13.890625 
Q 47.125 21.390625 47.125 36.375 
Q 47.125 51.421875 43.28125 58.90625 
Q 39.453125 66.40625 31.78125 66.40625 
z
M 31.78125 74.21875 
Q 44.046875 74.21875 50.515625 64.515625 
Q 56.984375 54.828125 56.984375 36.375 
Q 56.984375 17.96875 50.515625 8.265625 
Q 44.046875 -1.421875 31.78125 -1.421875 
Q 19.53125 -1.421875 13.0625 8.265625 
Q 6.59375 17.96875 6.59375 36.375 
Q 6.59375 54.828125 13.0625 64.515625 
Q 19.53125 74.21875 31.78125 74.21875 
z
" id="DejaVuSans-30"/>
      </defs>
      <g transform="translate(49.7575 317.076875)scale(0.2 -0.2)">
       <use xlink:href="#DejaVuSans-30"/>
      </g>
     </g>
    </g>
    <g id="xtick_2">
     <g id="line2d_7">
      <path clip-path="url(#pc0b077d2e6)" d="M 135.351336 294.88 
L 135.351336 24.84 
" style="fill:none;stroke:#b0b0b0;stroke-linecap:square;stroke-width:0.8;"/>
     </g>
     <g id="line2d_8">
      <g>
       <use style="stroke:#000000;stroke-width:0.8;" x="135.351336" xlink:href="#m2ada741093" y="294.88"/>
      </g>
     </g>
     <g id="text_2">
      <!-- 2 -->
      <defs>
       <path d="M 19.1875 8.296875 
L 53.609375 8.296875 
L 53.609375 0 
L 7.328125 0 
L 7.328125 8.296875 
Q 12.9375 14.109375 22.625 23.890625 
Q 32.328125 33.6875 34.8125 36.53125 
Q 39.546875 41.84375 41.421875 45.53125 
Q 43.3125 49.21875 43.3125 52.78125 
Q 43.3125 58.59375 39.234375 62.25 
Q 35.15625 65.921875 28.609375 65.921875 
Q 23.96875 65.921875 18.8125 64.3125 
Q 13.671875 62.703125 7.8125 59.421875 
L 7.8125 69.390625 
Q 13.765625 71.78125 18.9375 73 
Q 24.125 74.21875 28.421875 74.21875 
Q 39.75 74.21875 46.484375 68.546875 
Q 53.21875 62.890625 53.21875 53.421875 
Q 53.21875 48.921875 51.53125 44.890625 
Q 49.859375 40.875 45.40625 35.40625 
Q 44.1875 33.984375 37.640625 27.21875 
Q 31.109375 20.453125 19.1875 8.296875 
z
" id="DejaVuSans-32"/>
      </defs>
      <g transform="translate(128.988836 317.076875)scale(0.2 -0.2)">
       <use xlink:href="#DejaVuSans-32"/>
      </g>
     </g>
    </g>
    <g id="xtick_3">
     <g id="line2d_9">
      <path clip-path="url(#pc0b077d2e6)" d="M 214.582673 294.88 
L 214.582673 24.84 
" style="fill:none;stroke:#b0b0b0;stroke-linecap:square;stroke-width:0.8;"/>
     </g>
     <g id="line2d_10">
      <g>
       <use style="stroke:#000000;stroke-width:0.8;" x="214.582673" xlink:href="#m2ada741093" y="294.88"/>
      </g>
     </g>
     <g id="text_3">
      <!-- 4 -->
      <defs>
       <path d="M 37.796875 64.3125 
L 12.890625 25.390625 
L 37.796875 25.390625 
z
M 35.203125 72.90625 
L 47.609375 72.90625 
L 47.609375 25.390625 
L 58.015625 25.390625 
L 58.015625 17.1875 
L 47.609375 17.1875 
L 47.609375 0 
L 37.796875 0 
L 37.796875 17.1875 
L 4.890625 17.1875 
L 4.890625 26.703125 
z
" id="DejaVuSans-34"/>
      </defs>
      <g transform="translate(208.220173 317.076875)scale(0.2 -0.2)">
       <use xlink:href="#DejaVuSans-34"/>
      </g>
     </g>
    </g>
    <g id="xtick_4">
     <g id="line2d_11">
      <path clip-path="url(#pc0b077d2e6)" d="M 293.814009 294.88 
L 293.814009 24.84 
" style="fill:none;stroke:#b0b0b0;stroke-linecap:square;stroke-width:0.8;"/>
     </g>
     <g id="line2d_12">
      <g>
       <use style="stroke:#000000;stroke-width:0.8;" x="293.814009" xlink:href="#m2ada741093" y="294.88"/>
      </g>
     </g>
     <g id="text_4">
      <!-- 6 -->
      <defs>
       <path d="M 33.015625 40.375 
Q 26.375 40.375 22.484375 35.828125 
Q 18.609375 31.296875 18.609375 23.390625 
Q 18.609375 15.53125 22.484375 10.953125 
Q 26.375 6.390625 33.015625 6.390625 
Q 39.65625 6.390625 43.53125 10.953125 
Q 47.40625 15.53125 47.40625 23.390625 
Q 47.40625 31.296875 43.53125 35.828125 
Q 39.65625 40.375 33.015625 40.375 
z
M 52.59375 71.296875 
L 52.59375 62.3125 
Q 48.875 64.0625 45.09375 64.984375 
Q 41.3125 65.921875 37.59375 65.921875 
Q 27.828125 65.921875 22.671875 59.328125 
Q 17.53125 52.734375 16.796875 39.40625 
Q 19.671875 43.65625 24.015625 45.921875 
Q 28.375 48.1875 33.59375 48.1875 
Q 44.578125 48.1875 50.953125 41.515625 
Q 57.328125 34.859375 57.328125 23.390625 
Q 57.328125 12.15625 50.6875 5.359375 
Q 44.046875 -1.421875 33.015625 -1.421875 
Q 20.359375 -1.421875 13.671875 8.265625 
Q 6.984375 17.96875 6.984375 36.375 
Q 6.984375 53.65625 15.1875 63.9375 
Q 23.390625 74.21875 37.203125 74.21875 
Q 40.921875 74.21875 44.703125 73.484375 
Q 48.484375 72.75 52.59375 71.296875 
z
" id="DejaVuSans-36"/>
      </defs>
      <g transform="translate(287.451509 317.076875)scale(0.2 -0.2)">
       <use xlink:href="#DejaVuSans-36"/>
      </g>
     </g>
    </g>
    <g id="xtick_5">
     <g id="line2d_13">
      <path clip-path="url(#pc0b077d2e6)" d="M 373.045346 294.88 
L 373.045346 24.84 
" style="fill:none;stroke:#b0b0b0;stroke-linecap:square;stroke-width:0.8;"/>
     </g>
     <g id="line2d_14">
      <g>
       <use style="stroke:#000000;stroke-width:0.8;" x="373.045346" xlink:href="#m2ada741093" y="294.88"/>
      </g>
     </g>
     <g id="text_5">
      <!-- 8 -->
      <defs>
       <path d="M 31.78125 34.625 
Q 24.75 34.625 20.71875 30.859375 
Q 16.703125 27.09375 16.703125 20.515625 
Q 16.703125 13.921875 20.71875 10.15625 
Q 24.75 6.390625 31.78125 6.390625 
Q 38.8125 6.390625 42.859375 10.171875 
Q 46.921875 13.96875 46.921875 20.515625 
Q 46.921875 27.09375 42.890625 30.859375 
Q 38.875 34.625 31.78125 34.625 
z
M 21.921875 38.8125 
Q 15.578125 40.375 12.03125 44.71875 
Q 8.5 49.078125 8.5 55.328125 
Q 8.5 64.0625 14.71875 69.140625 
Q 20.953125 74.21875 31.78125 74.21875 
Q 42.671875 74.21875 48.875 69.140625 
Q 55.078125 64.0625 55.078125 55.328125 
Q 55.078125 49.078125 51.53125 44.71875 
Q 48 40.375 41.703125 38.8125 
Q 48.828125 37.15625 52.796875 32.3125 
Q 56.78125 27.484375 56.78125 20.515625 
Q 56.78125 9.90625 50.3125 4.234375 
Q 43.84375 -1.421875 31.78125 -1.421875 
Q 19.734375 -1.421875 13.25 4.234375 
Q 6.78125 9.90625 6.78125 20.515625 
Q 6.78125 27.484375 10.78125 32.3125 
Q 14.796875 37.15625 21.921875 38.8125 
z
M 18.3125 54.390625 
Q 18.3125 48.734375 21.84375 45.5625 
Q 25.390625 42.390625 31.78125 42.390625 
Q 38.140625 42.390625 41.71875 45.5625 
Q 45.3125 48.734375 45.3125 54.390625 
Q 45.3125 60.0625 41.71875 63.234375 
Q 38.140625 66.40625 31.78125 66.40625 
Q 25.390625 66.40625 21.84375 63.234375 
Q 18.3125 60.0625 18.3125 54.390625 
z
" id="DejaVuSans-38"/>
      </defs>
      <g transform="translate(366.682846 317.076875)scale(0.2 -0.2)">
       <use xlink:href="#DejaVuSans-38"/>
      </g>
     </g>
    </g>
    <g id="text_6">
     <!-- log10(# f-evals / dimension) -->
     <defs>
      <path d="M 9.421875 75.984375 
L 18.40625 75.984375 
L 18.40625 0 
L 9.421875 0 
z
" id="DejaVuSans-6c"/>
      <path d="M 30.609375 48.390625 
Q 23.390625 48.390625 19.1875 42.75 
Q 14.984375 37.109375 14.984375 27.296875 
Q 14.984375 17.484375 19.15625 11.84375 
Q 23.34375 6.203125 30.609375 6.203125 
Q 37.796875 6.203125 41.984375 11.859375 
Q 46.1875 17.53125 46.1875 27.296875 
Q 46.1875 37.015625 41.984375 42.703125 
Q 37.796875 48.390625 30.609375 48.390625 
z
M 30.609375 56 
Q 42.328125 56 49.015625 48.375 
Q 55.71875 40.765625 55.71875 27.296875 
Q 55.71875 13.875 49.015625 6.21875 
Q 42.328125 -1.421875 30.609375 -1.421875 
Q 18.84375 -1.421875 12.171875 6.21875 
Q 5.515625 13.875 5.515625 27.296875 
Q 5.515625 40.765625 12.171875 48.375 
Q 18.84375 56 30.609375 56 
z
" id="DejaVuSans-6f"/>
      <path d="M 45.40625 27.984375 
Q 45.40625 37.75 41.375 43.109375 
Q 37.359375 48.484375 30.078125 48.484375 
Q 22.859375 48.484375 18.828125 43.109375 
Q 14.796875 37.75 14.796875 27.984375 
Q 14.796875 18.265625 18.828125 12.890625 
Q 22.859375 7.515625 30.078125 7.515625 
Q 37.359375 7.515625 41.375 12.890625 
Q 45.40625 18.265625 45.40625 27.984375 
z
M 54.390625 6.78125 
Q 54.390625 -7.171875 48.1875 -13.984375 
Q 42 -20.796875 29.203125 -20.796875 
Q 24.46875 -20.796875 20.265625 -20.09375 
Q 16.0625 -19.390625 12.109375 -17.921875 
L 12.109375 -9.1875 
Q 16.0625 -11.328125 19.921875 -12.34375 
Q 23.78125 -13.375 27.78125 -13.375 
Q 36.625 -13.375 41.015625 -8.765625 
Q 45.40625 -4.15625 45.40625 5.171875 
L 45.40625 9.625 
Q 42.625 4.78125 38.28125 2.390625 
Q 33.9375 0 27.875 0 
Q 17.828125 0 11.671875 7.65625 
Q 5.515625 15.328125 5.515625 27.984375 
Q 5.515625 40.671875 11.671875 48.328125 
Q 17.828125 56 27.875 56 
Q 33.9375 56 38.28125 53.609375 
Q 42.625 51.21875 45.40625 46.390625 
L 45.40625 54.6875 
L 54.390625 54.6875 
z
" id="DejaVuSans-67"/>
      <path d="M 12.40625 8.296875 
L 28.515625 8.296875 
L 28.515625 63.921875 
L 10.984375 60.40625 
L 10.984375 69.390625 
L 28.421875 72.90625 
L 38.28125 72.90625 
L 38.28125 8.296875 
L 54.390625 8.296875 
L 54.390625 0 
L 12.40625 0 
z
" id="DejaVuSans-31"/>
      <path d="M 31 75.875 
Q 24.46875 64.65625 21.28125 53.65625 
Q 18.109375 42.671875 18.109375 31.390625 
Q 18.109375 20.125 21.3125 9.0625 
Q 24.515625 -2 31 -13.1875 
L 23.1875 -13.1875 
Q 15.875 -1.703125 12.234375 9.375 
Q 8.59375 20.453125 8.59375 31.390625 
Q 8.59375 42.28125 12.203125 53.3125 
Q 15.828125 64.359375 23.1875 75.875 
z
" id="DejaVuSans-28"/>
      <path d="M 51.125 44 
L 36.921875 44 
L 32.8125 27.6875 
L 47.125 27.6875 
z
M 43.796875 71.78125 
L 38.71875 51.515625 
L 52.984375 51.515625 
L 58.109375 71.78125 
L 65.921875 71.78125 
L 60.890625 51.515625 
L 76.125 51.515625 
L 76.125 44 
L 58.984375 44 
L 54.984375 27.6875 
L 70.515625 27.6875 
L 70.515625 20.21875 
L 53.078125 20.21875 
L 48 0 
L 40.1875 0 
L 45.21875 20.21875 
L 30.90625 20.21875 
L 25.875 0 
L 18.015625 0 
L 23.09375 20.21875 
L 7.71875 20.21875 
L 7.71875 27.6875 
L 24.90625 27.6875 
L 29 44 
L 13.28125 44 
L 13.28125 51.515625 
L 30.90625 51.515625 
L 35.890625 71.78125 
z
" id="DejaVuSans-23"/>
      <path id="DejaVuSans-20"/>
      <path d="M 37.109375 75.984375 
L 37.109375 68.5 
L 28.515625 68.5 
Q 23.6875 68.5 21.796875 66.546875 
Q 19.921875 64.59375 19.921875 59.515625 
L 19.921875 54.6875 
L 34.71875 54.6875 
L 34.71875 47.703125 
L 19.921875 47.703125 
L 19.921875 0 
L 10.890625 0 
L 10.890625 47.703125 
L 2.296875 47.703125 
L 2.296875 54.6875 
L 10.890625 54.6875 
L 10.890625 58.5 
Q 10.890625 67.625 15.140625 71.796875 
Q 19.390625 75.984375 28.609375 75.984375 
z
" id="DejaVuSans-66"/>
      <path d="M 4.890625 31.390625 
L 31.203125 31.390625 
L 31.203125 23.390625 
L 4.890625 23.390625 
z
" id="DejaVuSans-2d"/>
      <path d="M 56.203125 29.59375 
L 56.203125 25.203125 
L 14.890625 25.203125 
Q 15.484375 15.921875 20.484375 11.0625 
Q 25.484375 6.203125 34.421875 6.203125 
Q 39.59375 6.203125 44.453125 7.46875 
Q 49.3125 8.734375 54.109375 11.28125 
L 54.109375 2.78125 
Q 49.265625 0.734375 44.1875 -0.34375 
Q 39.109375 -1.421875 33.890625 -1.421875 
Q 20.796875 -1.421875 13.15625 6.1875 
Q 5.515625 13.8125 5.515625 26.8125 
Q 5.515625 40.234375 12.765625 48.109375 
Q 20.015625 56 32.328125 56 
Q 43.359375 56 49.78125 48.890625 
Q 56.203125 41.796875 56.203125 29.59375 
z
M 47.21875 32.234375 
Q 47.125 39.59375 43.09375 43.984375 
Q 39.0625 48.390625 32.421875 48.390625 
Q 24.90625 48.390625 20.390625 44.140625 
Q 15.875 39.890625 15.1875 32.171875 
z
" id="DejaVuSans-65"/>
      <path d="M 2.984375 54.6875 
L 12.5 54.6875 
L 29.59375 8.796875 
L 46.6875 54.6875 
L 56.203125 54.6875 
L 35.6875 0 
L 23.484375 0 
z
" id="DejaVuSans-76"/>
      <path d="M 34.28125 27.484375 
Q 23.390625 27.484375 19.1875 25 
Q 14.984375 22.515625 14.984375 16.5 
Q 14.984375 11.71875 18.140625 8.90625 
Q 21.296875 6.109375 26.703125 6.109375 
Q 34.1875 6.109375 38.703125 11.40625 
Q 43.21875 16.703125 43.21875 25.484375 
L 43.21875 27.484375 
z
M 52.203125 31.203125 
L 52.203125 0 
L 43.21875 0 
L 43.21875 8.296875 
Q 40.140625 3.328125 35.546875 0.953125 
Q 30.953125 -1.421875 24.3125 -1.421875 
Q 15.921875 -1.421875 10.953125 3.296875 
Q 6 8.015625 6 15.921875 
Q 6 25.140625 12.171875 29.828125 
Q 18.359375 34.515625 30.609375 34.515625 
L 43.21875 34.515625 
L 43.21875 35.40625 
Q 43.21875 41.609375 39.140625 45 
Q 35.0625 48.390625 27.6875 48.390625 
Q 23 48.390625 18.546875 47.265625 
Q 14.109375 46.140625 10.015625 43.890625 
L 10.015625 52.203125 
Q 14.9375 54.109375 19.578125 55.046875 
Q 24.21875 56 28.609375 56 
Q 40.484375 56 46.34375 49.84375 
Q 52.203125 43.703125 52.203125 31.203125 
z
" id="DejaVuSans-61"/>
      <path d="M 44.28125 53.078125 
L 44.28125 44.578125 
Q 40.484375 46.53125 36.375 47.5 
Q 32.28125 48.484375 27.875 48.484375 
Q 21.1875 48.484375 17.84375 46.4375 
Q 14.5 44.390625 14.5 40.28125 
Q 14.5 37.15625 16.890625 35.375 
Q 19.28125 33.59375 26.515625 31.984375 
L 29.59375 31.296875 
Q 39.15625 29.25 43.1875 25.515625 
Q 47.21875 21.78125 47.21875 15.09375 
Q 47.21875 7.46875 41.1875 3.015625 
Q 35.15625 -1.421875 24.609375 -1.421875 
Q 20.21875 -1.421875 15.453125 -0.5625 
Q 10.6875 0.296875 5.421875 2 
L 5.421875 11.28125 
Q 10.40625 8.6875 15.234375 7.390625 
Q 20.0625 6.109375 24.8125 6.109375 
Q 31.15625 6.109375 34.5625 8.28125 
Q 37.984375 10.453125 37.984375 14.40625 
Q 37.984375 18.0625 35.515625 20.015625 
Q 33.0625 21.96875 24.703125 23.78125 
L 21.578125 24.515625 
Q 13.234375 26.265625 9.515625 29.90625 
Q 5.8125 33.546875 5.8125 39.890625 
Q 5.8125 47.609375 11.28125 51.796875 
Q 16.75 56 26.8125 56 
Q 31.78125 56 36.171875 55.265625 
Q 40.578125 54.546875 44.28125 53.078125 
z
" id="DejaVuSans-73"/>
      <path d="M 25.390625 72.90625 
L 33.6875 72.90625 
L 8.296875 -9.28125 
L 0 -9.28125 
z
" id="DejaVuSans-2f"/>
      <path d="M 45.40625 46.390625 
L 45.40625 75.984375 
L 54.390625 75.984375 
L 54.390625 0 
L 45.40625 0 
L 45.40625 8.203125 
Q 42.578125 3.328125 38.25 0.953125 
Q 33.9375 -1.421875 27.875 -1.421875 
Q 17.96875 -1.421875 11.734375 6.484375 
Q 5.515625 14.40625 5.515625 27.296875 
Q 5.515625 40.1875 11.734375 48.09375 
Q 17.96875 56 27.875 56 
Q 33.9375 56 38.25 53.625 
Q 42.578125 51.265625 45.40625 46.390625 
z
M 14.796875 27.296875 
Q 14.796875 17.390625 18.875 11.75 
Q 22.953125 6.109375 30.078125 6.109375 
Q 37.203125 6.109375 41.296875 11.75 
Q 45.40625 17.390625 45.40625 27.296875 
Q 45.40625 37.203125 41.296875 42.84375 
Q 37.203125 48.484375 30.078125 48.484375 
Q 22.953125 48.484375 18.875 42.84375 
Q 14.796875 37.203125 14.796875 27.296875 
z
" id="DejaVuSans-64"/>
      <path d="M 9.421875 54.6875 
L 18.40625 54.6875 
L 18.40625 0 
L 9.421875 0 
z
M 9.421875 75.984375 
L 18.40625 75.984375 
L 18.40625 64.59375 
L 9.421875 64.59375 
z
" id="DejaVuSans-69"/>
      <path d="M 52 44.1875 
Q 55.375 50.25 60.0625 53.125 
Q 64.75 56 71.09375 56 
Q 79.640625 56 84.28125 50.015625 
Q 88.921875 44.046875 88.921875 33.015625 
L 88.921875 0 
L 79.890625 0 
L 79.890625 32.71875 
Q 79.890625 40.578125 77.09375 44.375 
Q 74.3125 48.1875 68.609375 48.1875 
Q 61.625 48.1875 57.5625 43.546875 
Q 53.515625 38.921875 53.515625 30.90625 
L 53.515625 0 
L 44.484375 0 
L 44.484375 32.71875 
Q 44.484375 40.625 41.703125 44.40625 
Q 38.921875 48.1875 33.109375 48.1875 
Q 26.21875 48.1875 22.15625 43.53125 
Q 18.109375 38.875 18.109375 30.90625 
L 18.109375 0 
L 9.078125 0 
L 9.078125 54.6875 
L 18.109375 54.6875 
L 18.109375 46.1875 
Q 21.1875 51.21875 25.484375 53.609375 
Q 29.78125 56 35.6875 56 
Q 41.65625 56 45.828125 52.96875 
Q 50 49.953125 52 44.1875 
z
" id="DejaVuSans-6d"/>
      <path d="M 54.890625 33.015625 
L 54.890625 0 
L 45.90625 0 
L 45.90625 32.71875 
Q 45.90625 40.484375 42.875 44.328125 
Q 39.84375 48.1875 33.796875 48.1875 
Q 26.515625 48.1875 22.3125 43.546875 
Q 18.109375 38.921875 18.109375 30.90625 
L 18.109375 0 
L 9.078125 0 
L 9.078125 54.6875 
L 18.109375 54.6875 
L 18.109375 46.1875 
Q 21.34375 51.125 25.703125 53.5625 
Q 30.078125 56 35.796875 56 
Q 45.21875 56 50.046875 50.171875 
Q 54.890625 44.34375 54.890625 33.015625 
z
" id="DejaVuSans-6e"/>
      <path d="M 8.015625 75.875 
L 15.828125 75.875 
Q 23.140625 64.359375 26.78125 53.3125 
Q 30.421875 42.28125 30.421875 31.390625 
Q 30.421875 20.453125 26.78125 9.375 
Q 23.140625 -1.703125 15.828125 -13.1875 
L 8.015625 -13.1875 
Q 14.5 -2 17.703125 9.0625 
Q 20.90625 20.125 20.90625 31.390625 
Q 20.90625 42.671875 17.703125 53.65625 
Q 14.5 64.65625 8.015625 75.875 
z
" id="DejaVuSans-29"/>
     </defs>
     <g transform="translate(107.211219 338.153594)scale(0.17 -0.17)">
      <use xlink:href="#DejaVuSans-6c"/>
      <use x="27.783203" xlink:href="#DejaVuSans-6f"/>
      <use x="88.964844" xlink:href="#DejaVuSans-67"/>
      <use x="152.441406" xlink:href="#DejaVuSans-31"/>
      <use x="216.064453" xlink:href="#DejaVuSans-30"/>
      <use x="279.6875" xlink:href="#DejaVuSans-28"/>
      <use x="318.701172" xlink:href="#DejaVuSans-23"/>
      <use x="402.490234" xlink:href="#DejaVuSans-20"/>
      <use x="434.277344" xlink:href="#DejaVuSans-66"/>
      <use x="469.404297" xlink:href="#DejaVuSans-2d"/>
      <use x="505.488281" xlink:href="#DejaVuSans-65"/>
      <use x="567.011719" xlink:href="#DejaVuSans-76"/>
      <use x="626.191406" xlink:href="#DejaVuSans-61"/>
      <use x="687.470703" xlink:href="#DejaVuSans-6c"/>
      <use x="715.253906" xlink:href="#DejaVuSans-73"/>
      <use x="767.353516" xlink:href="#DejaVuSans-20"/>
      <use x="799.140625" xlink:href="#DejaVuSans-2f"/>
      <use x="832.832031" xlink:href="#DejaVuSans-20"/>
      <use x="864.619141" xlink:href="#DejaVuSans-64"/>
      <use x="928.095703" xlink:href="#DejaVuSans-69"/>
      <use x="955.878906" xlink:href="#DejaVuSans-6d"/>
      <use x="1053.291016" xlink:href="#DejaVuSans-65"/>
      <use x="1114.814453" xlink:href="#DejaVuSans-6e"/>
      <use x="1178.193359" xlink:href="#DejaVuSans-73"/>
      <use x="1230.292969" xlink:href="#DejaVuSans-69"/>
      <use x="1258.076172" xlink:href="#DejaVuSans-6f"/>
      <use x="1319.257812" xlink:href="#DejaVuSans-6e"/>
      <use x="1382.636719" xlink:href="#DejaVuSans-29"/>
     </g>
    </g>
   </g>
   <g id="matplotlib.axis_2">
    <g id="ytick_1">
     <g id="line2d_15">
      <path clip-path="url(#pc0b077d2e6)" d="M 56.12 294.88 
L 399.984 294.88 
" style="fill:none;stroke:#b0b0b0;stroke-linecap:square;stroke-width:0.8;"/>
     </g>
     <g id="line2d_16">
      <defs>
       <path d="M 0 0 
L -3.5 0 
" id="m200116acaa" style="stroke:#000000;stroke-width:0.8;"/>
      </defs>
      <g>
       <use style="stroke:#000000;stroke-width:0.8;" x="56.12" xlink:href="#m200116acaa" y="294.88"/>
      </g>
     </g>
     <g id="text_7">
      <!-- 0.0 -->
      <defs>
       <path d="M 10.6875 12.40625 
L 21 12.40625 
L 21 0 
L 10.6875 0 
z
" id="DejaVuSans-2e"/>
      </defs>
      <g transform="translate(23.675 300.95875)scale(0.16 -0.16)">
       <use xlink:href="#DejaVuSans-30"/>
       <use x="63.623047" xlink:href="#DejaVuSans-2e"/>
       <use x="95.410156" xlink:href="#DejaVuSans-30"/>
      </g>
     </g>
    </g>
    <g id="ytick_2">
     <g id="line2d_17">
      <path clip-path="url(#pc0b077d2e6)" d="M 56.12 241.406733 
L 399.984 241.406733 
" style="fill:none;stroke:#b0b0b0;stroke-linecap:square;stroke-width:0.8;"/>
     </g>
     <g id="line2d_18">
      <g>
       <use style="stroke:#000000;stroke-width:0.8;" x="56.12" xlink:href="#m200116acaa" y="241.406733"/>
      </g>
     </g>
     <g id="text_8">
      <!-- 0.2 -->
      <g transform="translate(23.675 247.485483)scale(0.16 -0.16)">
       <use xlink:href="#DejaVuSans-30"/>
       <use x="63.623047" xlink:href="#DejaVuSans-2e"/>
       <use x="95.410156" xlink:href="#DejaVuSans-32"/>
      </g>
     </g>
    </g>
    <g id="ytick_3">
     <g id="line2d_19">
      <path clip-path="url(#pc0b077d2e6)" d="M 56.12 187.933465 
L 399.984 187.933465 
" style="fill:none;stroke:#b0b0b0;stroke-linecap:square;stroke-width:0.8;"/>
     </g>
     <g id="line2d_20">
      <g>
       <use style="stroke:#000000;stroke-width:0.8;" x="56.12" xlink:href="#m200116acaa" y="187.933465"/>
      </g>
     </g>
     <g id="text_9">
      <!-- 0.4 -->
      <g transform="translate(23.675 194.012215)scale(0.16 -0.16)">
       <use xlink:href="#DejaVuSans-30"/>
       <use x="63.623047" xlink:href="#DejaVuSans-2e"/>
       <use x="95.410156" xlink:href="#DejaVuSans-34"/>
      </g>
     </g>
    </g>
    <g id="ytick_4">
     <g id="line2d_21">
      <path clip-path="url(#pc0b077d2e6)" d="M 56.12 134.460198 
L 399.984 134.460198 
" style="fill:none;stroke:#b0b0b0;stroke-linecap:square;stroke-width:0.8;"/>
     </g>
     <g id="line2d_22">
      <g>
       <use style="stroke:#000000;stroke-width:0.8;" x="56.12" xlink:href="#m200116acaa" y="134.460198"/>
      </g>
     </g>
     <g id="text_10">
      <!-- 0.6 -->
      <g transform="translate(23.675 140.538948)scale(0.16 -0.16)">
       <use xlink:href="#DejaVuSans-30"/>
       <use x="63.623047" xlink:href="#DejaVuSans-2e"/>
       <use x="95.410156" xlink:href="#DejaVuSans-36"/>
      </g>
     </g>
    </g>
    <g id="ytick_5">
     <g id="line2d_23">
      <path clip-path="url(#pc0b077d2e6)" d="M 56.12 80.986931 
L 399.984 80.986931 
" style="fill:none;stroke:#b0b0b0;stroke-linecap:square;stroke-width:0.8;"/>
     </g>
     <g id="line2d_24">
      <g>
       <use style="stroke:#000000;stroke-width:0.8;" x="56.12" xlink:href="#m200116acaa" y="80.986931"/>
      </g>
     </g>
     <g id="text_11">
      <!-- 0.8 -->
      <g transform="translate(23.675 87.065681)scale(0.16 -0.16)">
       <use xlink:href="#DejaVuSans-30"/>
       <use x="63.623047" xlink:href="#DejaVuSans-2e"/>
       <use x="95.410156" xlink:href="#DejaVuSans-38"/>
      </g>
     </g>
    </g>
    <g id="ytick_6">
     <g id="line2d_25">
      <path clip-path="url(#pc0b077d2e6)" d="M 56.12 27.513663 
L 399.984 27.513663 
" style="fill:none;stroke:#b0b0b0;stroke-linecap:square;stroke-width:0.8;"/>
     </g>
     <g id="line2d_26">
      <g>
       <use style="stroke:#000000;stroke-width:0.8;" x="56.12" xlink:href="#m200116acaa" y="27.513663"/>
      </g>
     </g>
     <g id="text_12">
      <!-- 1.0 -->
      <g transform="translate(23.675 33.592413)scale(0.16 -0.16)">
       <use xlink:href="#DejaVuSans-31"/>
       <use x="63.623047" xlink:href="#DejaVuSans-2e"/>
       <use x="95.410156" xlink:href="#DejaVuSans-30"/>
      </g>
     </g>
    </g>
    <g id="text_13">
     <!-- Fraction of function,target pairs -->
     <defs>
      <path d="M 9.8125 72.90625 
L 51.703125 72.90625 
L 51.703125 64.59375 
L 19.671875 64.59375 
L 19.671875 43.109375 
L 48.578125 43.109375 
L 48.578125 34.8125 
L 19.671875 34.8125 
L 19.671875 0 
L 9.8125 0 
z
" id="DejaVuSans-46"/>
      <path d="M 41.109375 46.296875 
Q 39.59375 47.171875 37.8125 47.578125 
Q 36.03125 48 33.890625 48 
Q 26.265625 48 22.1875 43.046875 
Q 18.109375 38.09375 18.109375 28.8125 
L 18.109375 0 
L 9.078125 0 
L 9.078125 54.6875 
L 18.109375 54.6875 
L 18.109375 46.1875 
Q 20.953125 51.171875 25.484375 53.578125 
Q 30.03125 56 36.53125 56 
Q 37.453125 56 38.578125 55.875 
Q 39.703125 55.765625 41.0625 55.515625 
z
" id="DejaVuSans-72"/>
      <path d="M 48.78125 52.59375 
L 48.78125 44.1875 
Q 44.96875 46.296875 41.140625 47.34375 
Q 37.3125 48.390625 33.40625 48.390625 
Q 24.65625 48.390625 19.8125 42.84375 
Q 14.984375 37.3125 14.984375 27.296875 
Q 14.984375 17.28125 19.8125 11.734375 
Q 24.65625 6.203125 33.40625 6.203125 
Q 37.3125 6.203125 41.140625 7.25 
Q 44.96875 8.296875 48.78125 10.40625 
L 48.78125 2.09375 
Q 45.015625 0.34375 40.984375 -0.53125 
Q 36.96875 -1.421875 32.421875 -1.421875 
Q 20.0625 -1.421875 12.78125 6.34375 
Q 5.515625 14.109375 5.515625 27.296875 
Q 5.515625 40.671875 12.859375 48.328125 
Q 20.21875 56 33.015625 56 
Q 37.15625 56 41.109375 55.140625 
Q 45.0625 54.296875 48.78125 52.59375 
z
" id="DejaVuSans-63"/>
      <path d="M 18.3125 70.21875 
L 18.3125 54.6875 
L 36.8125 54.6875 
L 36.8125 47.703125 
L 18.3125 47.703125 
L 18.3125 18.015625 
Q 18.3125 11.328125 20.140625 9.421875 
Q 21.96875 7.515625 27.59375 7.515625 
L 36.8125 7.515625 
L 36.8125 0 
L 27.59375 0 
Q 17.1875 0 13.234375 3.875 
Q 9.28125 7.765625 9.28125 18.015625 
L 9.28125 47.703125 
L 2.6875 47.703125 
L 2.6875 54.6875 
L 9.28125 54.6875 
L 9.28125 70.21875 
z
" id="DejaVuSans-74"/>
      <path d="M 8.5 21.578125 
L 8.5 54.6875 
L 17.484375 54.6875 
L 17.484375 21.921875 
Q 17.484375 14.15625 20.5 10.265625 
Q 23.53125 6.390625 29.59375 6.390625 
Q 36.859375 6.390625 41.078125 11.03125 
Q 45.3125 15.671875 45.3125 23.6875 
L 45.3125 54.6875 
L 54.296875 54.6875 
L 54.296875 0 
L 45.3125 0 
L 45.3125 8.40625 
Q 42.046875 3.421875 37.71875 1 
Q 33.40625 -1.421875 27.6875 -1.421875 
Q 18.265625 -1.421875 13.375 4.4375 
Q 8.5 10.296875 8.5 21.578125 
z
M 31.109375 56 
z
" id="DejaVuSans-75"/>
      <path d="M 11.71875 12.40625 
L 22.015625 12.40625 
L 22.015625 4 
L 14.015625 -11.625 
L 7.71875 -11.625 
L 11.71875 4 
z
" id="DejaVuSans-2c"/>
      <path d="M 18.109375 8.203125 
L 18.109375 -20.796875 
L 9.078125 -20.796875 
L 9.078125 54.6875 
L 18.109375 54.6875 
L 18.109375 46.390625 
Q 20.953125 51.265625 25.265625 53.625 
Q 29.59375 56 35.59375 56 
Q 45.5625 56 51.78125 48.09375 
Q 58.015625 40.1875 58.015625 27.296875 
Q 58.015625 14.40625 51.78125 6.484375 
Q 45.5625 -1.421875 35.59375 -1.421875 
Q 29.59375 -1.421875 25.265625 0.953125 
Q 20.953125 3.328125 18.109375 8.203125 
z
M 48.6875 27.296875 
Q 48.6875 37.203125 44.609375 42.84375 
Q 40.53125 48.484375 33.40625 48.484375 
Q 26.265625 48.484375 22.1875 42.84375 
Q 18.109375 37.203125 18.109375 27.296875 
Q 18.109375 17.390625 22.1875 11.75 
Q 26.265625 6.109375 33.40625 6.109375 
Q 40.53125 6.109375 44.609375 11.75 
Q 48.6875 17.390625 48.6875 27.296875 
z
" id="DejaVuSans-70"/>
     </defs>
     <g transform="translate(16.139531 294.999375)rotate(-90)scale(0.17 -0.17)">
      <use xlink:href="#DejaVuSans-46"/>
      <use x="57.410156" xlink:href="#DejaVuSans-72"/>
      <use x="98.523438" xlink:href="#DejaVuSans-61"/>
      <use x="159.802734" xlink:href="#DejaVuSans-63"/>
      <use x="214.783203" xlink:href="#DejaVuSans-74"/>
      <use x="253.992188" xlink:href="#DejaVuSans-69"/>
      <use x="281.775391" xlink:href="#DejaVuSans-6f"/>
      <use x="342.957031" xlink:href="#DejaVuSans-6e"/>
      <use x="406.335938" xlink:href="#DejaVuSans-20"/>
      <use x="438.123047" xlink:href="#DejaVuSans-6f"/>
      <use x="499.304688" xlink:href="#DejaVuSans-66"/>
      <use x="534.509766" xlink:href="#DejaVuSans-20"/>
      <use x="566.296875" xlink:href="#DejaVuSans-66"/>
      <use x="601.501953" xlink:href="#DejaVuSans-75"/>
      <use x="664.880859" xlink:href="#DejaVuSans-6e"/>
      <use x="728.259766" xlink:href="#DejaVuSans-63"/>
      <use x="783.240234" xlink:href="#DejaVuSans-74"/>
      <use x="822.449219" xlink:href="#DejaVuSans-69"/>
      <use x="850.232422" xlink:href="#DejaVuSans-6f"/>
      <use x="911.414062" xlink:href="#DejaVuSans-6e"/>
      <use x="974.792969" xlink:href="#DejaVuSans-2c"/>
      <use x="1006.580078" xlink:href="#DejaVuSans-74"/>
      <use x="1045.789062" xlink:href="#DejaVuSans-61"/>
      <use x="1107.068359" xlink:href="#DejaVuSans-72"/>
      <use x="1148.166016" xlink:href="#DejaVuSans-67"/>
      <use x="1211.642578" xlink:href="#DejaVuSans-65"/>
      <use x="1273.166016" xlink:href="#DejaVuSans-74"/>
      <use x="1312.375" xlink:href="#DejaVuSans-20"/>
      <use x="1344.162109" xlink:href="#DejaVuSans-70"/>
      <use x="1407.638672" xlink:href="#DejaVuSans-61"/>
      <use x="1468.917969" xlink:href="#DejaVuSans-69"/>
      <use x="1496.701172" xlink:href="#DejaVuSans-72"/>
      <use x="1537.814453" xlink:href="#DejaVuSans-73"/>
     </g>
    </g>
   </g>
   <g id="line2d_27">
    <defs>
     <path d="M 0 1.5 
C 0.397805 1.5 0.77937 1.341951 1.06066 1.06066 
C 1.341951 0.77937 1.5 0.397805 1.5 0 
C 1.5 -0.397805 1.341951 -0.77937 1.06066 -1.06066 
C 0.77937 -1.341951 0.397805 -1.5 0 -1.5 
C -0.397805 -1.5 -0.77937 -1.341951 -1.06066 -1.06066 
C -1.341951 -0.77937 -1.5 -0.397805 -1.5 0 
C -1.5 0.397805 -1.341951 0.77937 -1.06066 1.06066 
C -0.77937 1.341951 -0.397805 1.5 0 1.5 
z
" id="me5092f1800" style="stroke:#f5deb3;"/>
    </defs>
    <g>
     <use style="fill:#f5deb3;stroke:#f5deb3;" x="140.527335" xlink:href="#me5092f1800" y="27.513663"/>
     <use style="fill:#f5deb3;stroke:#f5deb3;" x="140.527335" xlink:href="#me5092f1800" y="27.513663"/>
    </g>
   </g>
   <g id="line2d_28">
    <defs>
     <path d="M 0 1.5 
C 0.397805 1.5 0.77937 1.341951 1.06066 1.06066 
C 1.341951 0.77937 1.5 0.397805 1.5 0 
C 1.5 -0.397805 1.341951 -0.77937 1.06066 -1.06066 
C 0.77937 -1.341951 0.397805 -1.5 0 -1.5 
C -0.397805 -1.5 -0.77937 -1.341951 -1.06066 -1.06066 
C -1.341951 -0.77937 -1.5 -0.397805 -1.5 0 
C -1.5 0.397805 -1.341951 0.77937 -1.06066 1.06066 
C -0.77937 1.341951 -0.397805 1.5 0 1.5 
z
" id="m270f8afe58" style="stroke:#000080;"/>
    </defs>
    <g>
     <use style="fill:#000080;stroke:#000080;" x="274.870884" xlink:href="#m270f8afe58" y="27.513663"/>
     <use style="fill:#000080;stroke:#000080;" x="274.870884" xlink:href="#m270f8afe58" y="27.513663"/>
    </g>
   </g>
   <g id="line2d_29">
    <path d="M 136.802415 294.88 
L 136.802415 294.355752 
L 138.096623 294.355752 
L 138.096623 293.831505 
L 138.228126 293.831505 
L 138.228126 292.258761 
L 138.531113 292.258761 
L 138.531113 291.734514 
L 138.884989 291.734514 
L 138.884989 291.210266 
L 138.99671 291.210266 
L 138.99671 290.686018 
L 139.759075 290.686018 
L 139.812259 289.637523 
L 140.917656 289.637523 
L 140.917656 289.113275 
L 141.517104 289.113275 
L 141.60106 287.540532 
L 141.815083 287.540532 
L 141.815083 287.016284 
L 142.373128 287.016284 
L 142.373128 286.492036 
L 142.521201 286.492036 
L 142.521201 285.967789 
L 143.523496 285.967789 
L 143.523496 285.443541 
L 144.019165 285.443541 
L 144.029558 282.822302 
L 144.409735 282.822302 
L 144.409735 282.298055 
L 144.811501 282.298055 
L 144.811501 280.725312 
L 145.223496 280.725312 
L 145.320153 279.676816 
L 145.377887 279.676816 
L 145.377887 279.152568 
L 145.682575 279.152568 
L 145.682575 278.628321 
L 145.935523 278.628321 
L 145.98196 277.579825 
L 146.403399 277.579825 
L 146.448592 276.007082 
L 146.61925 276.007082 
L 146.6817 274.434339 
L 146.788232 274.434339 
L 146.788232 273.910091 
L 146.946803 273.910091 
L 146.946803 273.385844 
L 147.129974 273.385844 
L 147.129974 272.861596 
L 147.294037 272.861596 
L 147.371208 271.288853 
L 147.710064 271.288853 
L 147.710064 270.764605 
L 148.001186 270.764605 
L 148.001186 270.240357 
L 148.40871 270.240357 
L 148.416763 269.191862 
L 148.624824 269.191862 
L 148.624824 267.619119 
L 149.064589 267.619119 
L 149.064589 267.094871 
L 149.341473 267.094871 
L 149.341473 266.046375 
L 149.651479 266.046375 
L 149.651479 265.522128 
L 150.189982 265.522128 
L 150.189982 264.99788 
L 150.313003 264.99788 
L 150.313003 263.949385 
L 150.641541 263.949385 
L 150.676877 261.852394 
L 152.183306 261.852394 
L 152.183306 261.328146 
L 152.655401 261.328146 
L 152.655401 260.279651 
L 153.817224 260.279651 
L 153.817224 259.231155 
L 154.7558 259.231155 
L 154.7558 258.706907 
L 155.053966 258.706907 
L 155.053966 258.18266 
L 155.184844 258.18266 
L 155.184844 257.658412 
L 155.390052 257.658412 
L 155.390052 257.134164 
L 156.037977 257.134164 
L 156.110202 256.085669 
L 156.983427 256.085669 
L 156.983427 255.561421 
L 157.423053 255.561421 
L 157.423053 255.037173 
L 157.819127 255.037173 
L 157.819127 254.512926 
L 158.660553 254.512926 
L 158.660553 253.988678 
L 159.914314 253.988678 
L 159.914314 253.46443 
L 160.920171 253.46443 
L 160.920171 251.891687 
L 162.03906 251.891687 
L 162.082774 250.843192 
L 162.581189 250.843192 
L 162.581189 250.318944 
L 163.236526 250.318944 
L 163.236526 249.794696 
L 165.695608 249.794696 
L 165.695608 248.746201 
L 166.23843 248.746201 
L 166.23843 248.221953 
L 166.614338 248.221953 
L 166.614338 247.173458 
L 169.341401 247.173458 
L 169.341401 246.64921 
L 170.040398 246.64921 
L 170.040398 245.600714 
L 172.571019 245.600714 
L 172.571019 244.552219 
L 180.322896 244.552219 
L 180.322896 244.027971 
L 186.843405 244.027971 
L 186.843405 242.979476 
L 187.344178 242.979476 
L 187.344178 242.455228 
L 187.658044 242.455228 
L 187.658044 241.406733 
L 194.155687 241.406733 
L 194.155687 240.882485 
L 200.853246 240.882485 
L 200.853246 240.358237 
L 204.270044 240.358237 
L 204.270044 239.83399 
L 204.521659 239.83399 
L 204.521659 239.309742 
L 207.10853 239.309742 
L 207.10853 238.261246 
L 207.380263 238.261246 
L 207.380263 237.736999 
L 207.548104 237.736999 
L 207.548104 237.212751 
L 208.529982 237.212751 
L 208.573463 235.640008 
L 208.936777 235.640008 
L 208.959455 234.067265 
L 209.31853 234.067265 
L 209.31853 233.543017 
L 209.667288 233.543017 
L 209.667288 233.018769 
L 211.325413 233.018769 
L 211.325413 231.446026 
L 212.148478 231.446026 
L 212.148478 230.921778 
L 213.081587 230.921778 
L 213.081587 229.873283 
L 214.30884 229.873283 
L 214.30884 229.349035 
L 217.39559 229.349035 
L 217.39559 228.824787 
L 218.00881 228.824787 
L 218.00881 227.252044 
L 220.167283 227.252044 
L 220.167283 226.727797 
L 220.404045 226.727797 
L 220.432234 225.679301 
L 221.925416 225.679301 
L 221.925416 225.155053 
L 222.425362 225.155053 
L 222.425362 224.630806 
L 222.930793 224.630806 
L 222.930793 224.106558 
L 224.576146 224.106558 
L 224.576146 223.58231 
L 224.795629 223.58231 
L 224.795629 222.533815 
L 225.094914 222.533815 
L 225.094914 222.009567 
L 225.395506 222.009567 
L 225.395506 220.961072 
L 225.527881 220.961072 
L 225.527881 219.912576 
L 225.692832 219.912576 
L 225.692832 219.388328 
L 226.433346 219.388328 
L 226.433346 218.864081 
L 227.536069 218.864081 
L 227.539796 217.291338 
L 228.328846 217.291338 
L 228.328846 216.76709 
L 228.538059 216.76709 
L 228.538059 215.718594 
L 228.754274 215.718594 
L 228.754274 215.194347 
L 229.989843 215.194347 
L 230.097013 213.097356 
L 230.538888 213.097356 
L 230.538888 212.573108 
L 230.711026 212.573108 
L 230.711026 211.524613 
L 231.149558 211.524613 
L 231.149558 210.476117 
L 231.43003 210.476117 
L 231.43003 209.95187 
L 231.73339 209.95187 
L 231.73339 209.427622 
L 232.025814 209.427622 
L 232.025814 208.903374 
L 232.755328 208.903374 
L 232.755328 208.379126 
L 233.218066 208.379126 
L 233.218066 207.854879 
L 233.335895 207.854879 
L 233.335895 207.330631 
L 235.721512 207.330631 
L 235.721512 206.806383 
L 236.119275 206.806383 
L 236.139536 205.757888 
L 237.169334 205.757888 
L 237.169334 205.23364 
L 237.46076 205.23364 
L 237.46076 204.185145 
L 237.742721 204.185145 
L 237.742721 203.660897 
L 238.110307 203.660897 
L 238.110307 202.612401 
L 238.242901 202.612401 
L 238.242901 201.563906 
L 238.942404 201.563906 
L 238.942404 201.039658 
L 239.591427 201.039658 
L 239.591427 200.515411 
L 239.753723 200.515411 
L 239.753723 199.991163 
L 240.143798 199.991163 
L 240.143798 199.466915 
L 240.51711 199.466915 
L 240.51711 198.942667 
L 240.753042 198.942667 
L 240.753681 197.894172 
L 241.68083 197.894172 
L 241.68083 197.369924 
L 241.801777 197.369924 
L 241.801777 196.845677 
L 242.131869 196.845677 
L 242.131869 196.321429 
L 242.440964 196.321429 
L 242.519634 194.224438 
L 242.574665 194.224438 
L 242.666723 193.175943 
L 243.143598 193.175943 
L 243.143598 192.651695 
L 243.330993 192.651695 
L 243.330993 192.127447 
L 243.470468 192.127447 
L 243.541637 190.030456 
L 243.923956 190.030456 
L 243.923956 189.506209 
L 244.346957 189.506209 
L 244.346957 188.981961 
L 244.518888 188.981961 
L 244.518888 188.457713 
L 244.760284 188.457713 
L 244.825048 186.88497 
L 245.111448 186.88497 
L 245.111448 185.836474 
L 245.24146 185.836474 
L 245.24146 185.312227 
L 245.491498 185.312227 
L 245.586242 183.739484 
L 245.62729 183.739484 
L 245.633377 182.690988 
L 246.038418 182.690988 
L 246.038418 182.16674 
L 246.186102 182.16674 
L 246.186102 181.642493 
L 246.431548 181.642493 
L 246.431548 181.118245 
L 246.732591 181.118245 
L 246.799453 179.021254 
L 246.891962 179.021254 
L 247.000297 177.972759 
L 247.224699 177.972759 
L 247.224699 177.448511 
L 247.618592 177.448511 
L 247.618592 176.400016 
L 247.850332 176.400016 
L 247.850332 175.875768 
L 248.31231 175.875768 
L 248.416661 174.303025 
L 248.551275 174.303025 
L 248.551275 173.778777 
L 248.681003 173.778777 
L 248.726182 172.206034 
L 248.999654 172.206034 
L 248.999654 170.633291 
L 249.158442 170.633291 
L 249.158442 170.109043 
L 249.293987 170.109043 
L 249.37675 168.5363 
L 249.65882 168.5363 
L 249.717943 167.487804 
L 250.024193 167.487804 
L 250.084829 165.390813 
L 250.153938 165.390813 
L 250.153938 164.342318 
L 250.710216 164.342318 
L 250.710216 163.81807 
L 251.02994 163.81807 
L 251.06387 162.245327 
L 251.158792 162.245327 
L 251.158792 161.196832 
L 251.300537 161.196832 
L 251.300537 160.672584 
L 251.452168 160.672584 
L 251.452168 160.148336 
L 251.794285 160.148336 
L 251.794285 159.099841 
L 251.980656 159.099841 
L 251.980656 158.575593 
L 252.457375 158.575593 
L 252.457375 157.527098 
L 252.571616 157.527098 
L 252.571616 157.00285 
L 252.689256 157.00285 
L 252.689256 156.478602 
L 252.889969 156.478602 
L 252.947145 155.430107 
L 253.015524 155.430107 
L 253.015524 154.905859 
L 253.258105 154.905859 
L 253.258105 154.381611 
L 253.427406 154.381611 
L 253.427406 153.857364 
L 253.601739 153.857364 
L 253.601739 153.333116 
L 253.752814 153.333116 
L 253.768344 152.28462 
L 254.027807 152.28462 
L 254.027946 150.18763 
L 254.239497 150.18763 
L 254.239497 149.663382 
L 254.445868 149.663382 
L 254.503567 147.566391 
L 254.725945 147.566391 
L 254.835617 146.517896 
L 255.000304 146.517896 
L 255.000304 145.993648 
L 255.169577 145.993648 
L 255.22338 143.896657 
L 255.342031 143.896657 
L 255.342031 142.848162 
L 255.521346 142.848162 
L 255.579461 141.275418 
L 255.673312 141.275418 
L 255.673312 140.751171 
L 255.792424 140.751171 
L 255.792424 139.702675 
L 256.019087 139.702675 
L 256.07706 138.129932 
L 256.222458 138.129932 
L 256.258379 137.081437 
L 256.344554 137.081437 
L 256.344554 136.557189 
L 256.539286 136.557189 
L 256.548533 134.460198 
L 256.653688 134.460198 
L 256.701921 131.838959 
L 256.900672 131.838959 
L 256.900672 131.314712 
L 257.023745 131.314712 
L 257.023745 130.790464 
L 257.266173 130.790464 
L 257.289218 128.693473 
L 257.408896 128.693473 
L 257.45402 125.023739 
L 257.601906 125.023739 
L 257.601906 124.499491 
L 257.743815 124.499491 
L 257.743815 123.975244 
L 258.155269 123.975244 
L 258.250109 122.4025 
L 258.269878 122.4025 
L 258.269878 121.878253 
L 258.498869 121.878253 
L 258.590333 119.781262 
L 258.643551 119.781262 
L 258.742722 117.684271 
L 259.032199 117.684271 
L 259.094092 116.111528 
L 259.163848 116.111528 
L 259.163848 115.063032 
L 259.331536 115.063032 
L 259.37313 113.490289 
L 259.568014 113.490289 
L 259.568014 112.966042 
L 260.276963 112.966042 
L 260.312043 111.917546 
L 260.388114 111.917546 
L 260.396265 110.869051 
L 260.60748 110.869051 
L 260.61087 109.820555 
L 260.885663 109.820555 
L 260.897614 108.247812 
L 261.152301 108.247812 
L 261.223747 105.102326 
L 261.493974 105.102326 
L 261.543588 104.05383 
L 261.815585 104.05383 
L 261.815585 103.529583 
L 261.949259 103.529583 
L 261.971919 102.481087 
L 262.071497 102.481087 
L 262.177147 100.384096 
L 262.259488 100.384096 
L 262.355943 99.335601 
L 262.391437 99.335601 
L 262.485382 96.190115 
L 262.5112 96.190115 
L 262.5112 95.141619 
L 262.678548 95.141619 
L 262.751394 94.093124 
L 262.950604 94.093124 
L 263.045761 89.899142 
L 263.137294 89.899142 
L 263.221715 87.277903 
L 263.522135 87.277903 
L 263.595588 84.656665 
L 263.635478 84.656665 
L 263.705331 82.035426 
L 263.755721 82.035426 
L 263.755721 81.511178 
L 263.869395 81.511178 
L 263.869395 80.986931 
L 264.05286 80.986931 
L 264.131419 78.365692 
L 264.198974 78.365692 
L 264.207063 77.317197 
L 264.458129 77.317197 
L 264.556889 75.744454 
L 264.59247 75.744454 
L 264.59247 74.695958 
L 264.709994 74.695958 
L 264.820912 72.598967 
L 264.979328 72.598967 
L 265.090356 69.453481 
L 265.269381 69.453481 
L 265.269381 68.404985 
L 265.55435 68.404985 
L 265.55435 67.880738 
L 265.791571 67.880738 
L 265.791571 67.35649 
L 265.906863 67.35649 
L 265.960573 64.735251 
L 266.099725 64.735251 
L 266.099725 64.211004 
L 266.314456 64.211004 
L 266.316098 61.589765 
L 266.564215 61.589765 
L 266.567493 60.54127 
L 266.725207 60.54127 
L 266.725207 60.017022 
L 267.026161 60.017022 
L 267.078129 58.968526 
L 267.413985 58.968526 
L 267.455563 57.920031 
L 267.525547 57.920031 
L 267.598596 56.871536 
L 267.753295 56.871536 
L 267.850178 55.82304 
L 267.936658 55.82304 
L 267.948252 54.774545 
L 268.395011 54.774545 
L 268.400566 52.677554 
L 268.824015 52.677554 
L 268.824015 52.153306 
L 268.956519 52.153306 
L 268.956519 51.104811 
L 269.655852 51.104811 
L 269.655852 50.580563 
L 269.790816 50.580563 
L 269.790816 49.532068 
L 269.980485 49.532068 
L 270.046167 47.435077 
L 270.397016 47.435077 
L 270.451024 44.813838 
L 270.747706 44.813838 
L 270.747706 44.28959 
L 271.480864 44.28959 
L 271.480864 43.241095 
L 271.675905 43.241095 
L 271.675905 42.192599 
L 271.79313 42.192599 
L 271.867164 40.095609 
L 272.092071 40.095609 
L 272.136058 37.47437 
L 272.444599 37.47437 
L 272.444599 36.950122 
L 272.749196 36.950122 
L 272.749196 36.425875 
L 272.972757 36.425875 
L 273.058828 33.280388 
L 273.35737 33.280388 
L 273.35737 32.756141 
L 273.579017 32.756141 
L 273.65638 30.134902 
L 273.835954 30.134902 
L 273.835954 29.086407 
L 274.090972 29.086407 
L 274.090972 28.562159 
L 274.348001 28.562159 
L 274.348001 28.037911 
L 274.870884 28.037911 
L 274.870884 27.513663 
L 333.429677 27.513663 
L 333.429677 27.513663 
" style="fill:none;stroke:#000080;stroke-linecap:square;stroke-width:1.5;"/>
   </g>
   <g id="line2d_30">
    <defs>
     <path d="M 0 6 
C 1.591219 6 3.117479 5.367802 4.242641 4.242641 
C 5.367802 3.117479 6 1.591219 6 0 
C 6 -1.591219 5.367802 -3.117479 4.242641 -4.242641 
C 3.117479 -5.367802 1.591219 -6 0 -6 
C -1.591219 -6 -3.117479 -5.367802 -4.242641 -4.242641 
C -5.367802 -3.117479 -6 -1.591219 -6 0 
C -6 1.591219 -5.367802 3.117479 -4.242641 4.242641 
C -3.117479 5.367802 -1.591219 6 0 6 
z
" id="mc0e6b84852" style="stroke:#000080;stroke-width:1.5;"/>
    </defs>
    <g>
     <use style="fill-opacity:0;stroke:#000080;stroke-width:1.5;" x="235.721512" xlink:href="#mc0e6b84852" y="206.806383"/>
     <use style="fill-opacity:0;stroke:#000080;stroke-width:1.5;" x="264.820912" xlink:href="#mc0e6b84852" y="73.647463"/>
     <use style="fill-opacity:0;stroke:#000080;stroke-width:1.5;" x="274.870884" xlink:href="#mc0e6b84852" y="27.513663"/>
     <use style="fill-opacity:0;stroke:#000080;stroke-width:1.5;" x="274.870884" xlink:href="#mc0e6b84852" y="27.513663"/>
     <use style="fill-opacity:0;stroke:#000080;stroke-width:1.5;" x="333.429677" xlink:href="#mc0e6b84852" y="27.513663"/>
    </g>
   </g>
   <g id="line2d_31">
    <path style="fill:none;stroke:#000080;stroke-linecap:square;stroke-width:1.5;"/>
    <g/>
   </g>
   <g id="line2d_32">
    <defs>
     <path d="M 0 1.5 
C 0.397805 1.5 0.77937 1.341951 1.06066 1.06066 
C 1.341951 0.77937 1.5 0.397805 1.5 0 
C 1.5 -0.397805 1.341951 -0.77937 1.06066 -1.06066 
C 0.77937 -1.341951 0.397805 -1.5 0 -1.5 
C -0.397805 -1.5 -0.77937 -1.341951 -1.06066 -1.06066 
C -1.341951 -0.77937 -1.5 -0.397805 -1.5 0 
C -1.5 0.397805 -1.341951 0.77937 -1.06066 1.06066 
C -0.77937 1.341951 -0.397805 1.5 0 1.5 
z
" id="mc0ada2ca58" style="stroke:#ff00ff;"/>
    </defs>
    <g>
     <use style="fill:#ff00ff;stroke:#ff00ff;" x="292.182091" xlink:href="#mc0ada2ca58" y="252.940182"/>
     <use style="fill:#ff00ff;stroke:#ff00ff;" x="292.182091" xlink:href="#mc0ada2ca58" y="252.940182"/>
    </g>
   </g>
   <g id="line2d_33">
    <path d="M 188.919715 294.88 
L 188.919715 294.355752 
L 192.083147 294.355752 
L 192.083147 293.831505 
L 193.020965 293.831505 
L 193.020965 292.783009 
L 193.342662 292.783009 
L 193.342662 291.734514 
L 193.977102 291.734514 
L 193.977102 290.686018 
L 194.024906 290.686018 
L 194.024906 290.161771 
L 194.031725 290.161771 
L 194.031725 289.637523 
L 194.173162 289.637523 
L 194.173162 289.113275 
L 194.677297 289.113275 
L 194.677297 288.589027 
L 195.286848 288.589027 
L 195.286848 287.540532 
L 196.289516 287.540532 
L 196.289516 287.016284 
L 196.750608 287.016284 
L 196.750608 285.967789 
L 196.765153 285.967789 
L 196.765153 285.443541 
L 197.429667 285.443541 
L 197.429667 284.395046 
L 197.57823 284.395046 
L 197.57823 283.870798 
L 197.622088 283.870798 
L 197.622088 283.34655 
L 198.515138 283.34655 
L 198.515138 282.822302 
L 199.29271 282.822302 
L 199.29271 281.773807 
L 199.571613 281.773807 
L 199.571613 281.249559 
L 199.871574 281.249559 
L 199.871574 280.725312 
L 200.019415 280.725312 
L 200.019415 280.201064 
L 201.006561 280.201064 
L 201.006561 279.676816 
L 201.117554 279.676816 
L 201.117554 279.152568 
L 201.130719 279.152568 
L 201.130719 278.104073 
L 201.237553 278.104073 
L 201.237553 277.579825 
L 202.228636 277.579825 
L 202.228636 276.53133 
L 202.672302 276.53133 
L 202.672302 276.007082 
L 202.682613 276.007082 
L 202.682613 275.482834 
L 202.741266 275.482834 
L 202.741266 274.958587 
L 202.788455 274.958587 
L 202.788455 274.434339 
L 202.870216 274.434339 
L 202.870216 272.861596 
L 203.738703 272.861596 
L 203.738703 271.288853 
L 204.261269 271.288853 
L 204.261269 270.240357 
L 204.338834 270.240357 
L 204.338834 269.716109 
L 204.622942 269.716109 
L 204.622942 269.191862 
L 205.901467 269.191862 
L 205.901467 268.667614 
L 206.163058 268.667614 
L 206.163058 268.143366 
L 206.170073 268.143366 
L 206.170073 267.619119 
L 206.419902 267.619119 
L 206.419902 267.094871 
L 207.276925 267.094871 
L 207.276925 266.046375 
L 207.85404 266.046375 
L 207.85404 263.949385 
L 208.174618 263.949385 
L 208.174618 263.425137 
L 208.935344 263.425137 
L 208.935344 262.900889 
L 211.254579 262.900889 
L 211.254579 261.852394 
L 211.793639 261.852394 
L 211.793639 261.328146 
L 212.855959 261.328146 
L 212.855959 260.803898 
L 212.883518 260.803898 
L 212.883518 259.755403 
L 220.911658 259.755403 
L 220.911658 258.706907 
L 255.344767 258.706907 
L 255.344767 258.18266 
L 255.607067 258.18266 
L 255.607067 257.658412 
L 255.688134 257.658412 
L 255.688134 257.134164 
L 256.018964 257.134164 
L 256.018964 256.609917 
L 256.243583 256.609917 
L 256.243583 256.085669 
L 267.058228 256.085669 
L 267.058228 255.561421 
L 282.290767 255.561421 
L 282.290767 255.037173 
L 285.361191 255.037173 
L 285.361191 254.512926 
L 287.909568 254.512926 
L 287.909568 253.988678 
L 287.949649 253.988678 
L 287.949649 253.46443 
L 292.182091 253.46443 
L 292.182091 252.940182 
L 333.429677 252.940182 
" style="fill:none;stroke:#ff00ff;stroke-linecap:square;stroke-width:1.5;"/>
   </g>
   <g id="line2d_34">
    <defs>
     <path d="M -0 8.485281 
L 5.091169 0 
L 0 -8.485281 
L -5.091169 -0 
z
" id="m5f968853b3" style="stroke:#ff00ff;stroke-linejoin:miter;stroke-width:1.5;"/>
    </defs>
    <g>
     <use style="fill-opacity:0;stroke:#ff00ff;stroke-linejoin:miter;stroke-width:1.5;" x="256.243583" xlink:href="#m5f968853b3" y="256.085669"/>
     <use style="fill-opacity:0;stroke:#ff00ff;stroke-linejoin:miter;stroke-width:1.5;" x="292.182091" xlink:href="#m5f968853b3" y="252.940182"/>
     <use style="fill-opacity:0;stroke:#ff00ff;stroke-linejoin:miter;stroke-width:1.5;" x="292.182091" xlink:href="#m5f968853b3" y="252.940182"/>
     <use style="fill-opacity:0;stroke:#ff00ff;stroke-linejoin:miter;stroke-width:1.5;" x="333.429677" xlink:href="#m5f968853b3" y="252.940182"/>
    </g>
   </g>
   <g id="line2d_35">
    <path style="fill:none;stroke:#ff00ff;stroke-linecap:square;stroke-width:1.5;"/>
    <g/>
   </g>
   <g id="line2d_36">
    <path clip-path="url(#pc0b077d2e6)" d="M 254.198341 258.706907 
" style="fill:none;stroke:#ff00ff;stroke-linecap:square;stroke-width:1.5;"/>
    <defs>
     <path d="M -12 12 
L 12 -12 
M -12 -12 
L 12 12 
" id="mf9b2aaa747" style="stroke:#ff00ff;stroke-width:3;"/>
    </defs>
    <g clip-path="url(#pc0b077d2e6)">
     <use style="fill:#ff00ff;stroke:#ff00ff;stroke-width:3;" x="254.198341" xlink:href="#mf9b2aaa747" y="258.706907"/>
    </g>
   </g>
   <g id="line2d_37">
    <defs>
     <path d="M 0 1.5 
C 0.397805 1.5 0.77937 1.341951 1.06066 1.06066 
C 1.341951 0.77937 1.5 0.397805 1.5 0 
C 1.5 -0.397805 1.341951 -0.77937 1.06066 -1.06066 
C 0.77937 -1.341951 0.397805 -1.5 0 -1.5 
C -0.397805 -1.5 -0.77937 -1.341951 -1.06066 -1.06066 
C -1.341951 -0.77937 -1.5 -0.397805 -1.5 0 
C -1.5 0.397805 -1.341951 0.77937 -1.06066 1.06066 
C -0.77937 1.341951 -0.397805 1.5 0 1.5 
z
" id="m690c974541" style="stroke:#ffa500;"/>
    </defs>
    <g>
     <use style="fill:#ffa500;stroke:#ffa500;" x="290.520202" xlink:href="#m690c974541" y="27.513663"/>
     <use style="fill:#ffa500;stroke:#ffa500;" x="290.520202" xlink:href="#m690c974541" y="27.513663"/>
    </g>
   </g>
   <g id="line2d_38">
    <path d="M 96.575096 294.88 
L 96.575096 294.355752 
L 96.899726 294.355752 
L 96.899726 293.307257 
L 98.872486 293.307257 
L 98.872486 292.783009 
L 99.156871 292.783009 
L 99.156871 292.258761 
L 99.982863 292.258761 
L 99.982863 291.210266 
L 100.642134 291.210266 
L 100.642134 290.686018 
L 101.151945 290.686018 
L 101.151945 290.161771 
L 101.401295 290.161771 
L 101.401295 288.589027 
L 101.647083 288.589027 
L 101.647083 288.06478 
L 101.889409 288.06478 
L 101.889409 287.540532 
L 102.009304 287.540532 
L 102.009304 285.967789 
L 102.128369 285.967789 
L 102.128369 285.443541 
L 102.246616 285.443541 
L 102.246616 284.395046 
L 102.364056 284.395046 
L 102.364056 283.870798 
L 102.82596 283.870798 
L 102.82596 283.34655 
L 103.052343 283.34655 
L 103.052343 282.822302 
L 103.275786 282.822302 
L 103.386428 281.249559 
L 103.71415 281.249559 
L 103.71415 280.725312 
L 104.035746 280.725312 
L 104.035746 280.201064 
L 104.246851 280.201064 
L 104.35144 279.152568 
L 104.55873 279.152568 
L 104.55873 278.628321 
L 105.066285 278.628321 
L 105.066285 278.104073 
L 105.363783 278.104073 
L 105.363783 277.579825 
L 105.848459 277.579825 
L 105.943777 276.007082 
L 106.132843 276.007082 
L 106.226603 274.434339 
L 106.504855 274.434339 
L 106.504855 273.910091 
L 106.958836 273.910091 
L 106.958836 273.385844 
L 107.137126 273.385844 
L 107.137126 272.861596 
L 107.401145 272.861596 
L 107.401145 270.764605 
L 107.917329 270.764605 
L 107.917329 269.716109 
L 108.744646 269.716109 
L 108.825231 268.143366 
L 109.533998 268.143366 
L 109.533998 267.619119 
L 110.508826 267.619119 
L 110.508826 266.570623 
L 111.500328 266.570623 
L 111.500328 266.046375 
L 111.705557 266.046375 
L 111.705557 265.522128 
L 112.502836 265.522128 
L 112.502836 264.99788 
L 113.202576 264.99788 
L 113.202576 264.473632 
L 114.230941 264.473632 
L 114.230941 263.949385 
L 114.347981 263.949385 
L 114.347981 263.425137 
L 115.421868 263.425137 
L 115.476574 261.852394 
L 115.96125 261.852394 
L 115.96125 261.328146 
L 117.387321 261.328146 
L 117.387321 260.279651 
L 118.88434 260.279651 
L 118.88434 259.755403 
L 120.095232 259.755403 
L 120.095232 259.231155 
L 121.727437 259.231155 
L 121.727437 258.706907 
L 135.675162 258.706907 
L 135.675162 258.18266 
L 137.845453 258.18266 
L 137.845453 257.134164 
L 144.531253 257.134164 
L 144.531253 256.085669 
L 146.538623 256.085669 
L 146.538623 255.561421 
L 151.074654 255.561421 
L 151.074654 255.037173 
L 163.81855 255.037173 
L 163.81855 254.512926 
L 164.678171 254.512926 
L 164.678171 253.988678 
L 166.340993 253.988678 
L 166.340993 253.46443 
L 168.550458 253.46443 
L 168.60782 252.415935 
L 168.825544 252.415935 
L 168.825544 251.891687 
L 170.800004 251.891687 
L 170.800004 251.367439 
L 171.738412 251.367439 
L 171.765374 250.318944 
L 172.110058 250.318944 
L 172.110058 249.794696 
L 174.079076 249.794696 
L 174.079076 249.270448 
L 174.497855 249.270448 
L 174.497855 248.221953 
L 175.775272 248.221953 
L 175.775272 247.697705 
L 177.477485 247.697705 
L 177.477485 247.173458 
L 177.682932 247.173458 
L 177.682932 246.64921 
L 177.985852 246.64921 
L 177.985852 245.600714 
L 179.809967 245.600714 
L 179.87347 244.027971 
L 182.115307 244.027971 
L 182.115307 243.503724 
L 182.77585 243.503724 
L 182.831492 241.406733 
L 182.888041 241.406733 
L 182.969275 235.640008 
L 184.34856 235.640008 
L 184.34856 235.11576 
L 185.57071 235.11576 
L 185.57071 234.591512 
L 186.483368 234.591512 
L 186.483368 234.067265 
L 187.493521 234.067265 
L 187.493521 233.543017 
L 188.540908 233.543017 
L 188.540908 232.494521 
L 189.356834 232.494521 
L 189.356834 231.446026 
L 190.179925 231.446026 
L 190.179925 229.873283 
L 190.503048 229.873283 
L 190.608034 228.824787 
L 192.030899 228.824787 
L 192.030899 228.30054 
L 192.313808 228.30054 
L 192.313808 227.252044 
L 194.113334 227.252044 
L 194.113334 226.727797 
L 194.530581 226.727797 
L 194.530581 225.679301 
L 194.713371 225.679301 
L 194.713371 225.155053 
L 194.945492 225.155053 
L 194.956801 223.58231 
L 195.304267 223.58231 
L 195.304267 222.533815 
L 195.617419 222.533815 
L 195.617419 222.009567 
L 195.848982 222.009567 
L 195.848982 221.485319 
L 196.090579 221.485319 
L 196.090579 220.961072 
L 196.717594 220.961072 
L 196.717594 220.436824 
L 197.219028 220.436824 
L 197.219028 219.912576 
L 197.365201 219.912576 
L 197.365201 217.815585 
L 198.026284 217.815585 
L 198.026284 217.291338 
L 198.351074 217.291338 
L 198.351074 216.76709 
L 198.554055 216.76709 
L 198.554055 216.242842 
L 198.723126 216.242842 
L 198.758122 215.194347 
L 199.351606 215.194347 
L 199.351606 214.670099 
L 199.559258 214.670099 
L 199.620124 212.573108 
L 199.997742 212.573108 
L 199.997742 212.04886 
L 200.130166 212.04886 
L 200.186268 210.476117 
L 201.403789 210.476117 
L 201.403789 209.95187 
L 201.61456 209.95187 
L 201.61456 209.427622 
L 201.798925 209.427622 
L 201.798925 208.903374 
L 202.18908 208.903374 
L 202.18908 207.854879 
L 202.518976 207.854879 
L 202.615827 205.23364 
L 203.108837 205.23364 
L 203.205433 203.136649 
L 203.360717 203.136649 
L 203.360717 202.612401 
L 203.493319 202.612401 
L 203.493319 202.088154 
L 203.682386 202.088154 
L 203.691461 201.039658 
L 204.236802 201.039658 
L 204.236802 200.515411 
L 204.948277 200.515411 
L 205.041395 197.369924 
L 205.130436 197.369924 
L 205.209825 194.748686 
L 205.249234 194.748686 
L 205.249234 194.224438 
L 205.805739 194.224438 
L 205.805739 193.70019 
L 206.267149 193.70019 
L 206.283322 191.603199 
L 206.463534 191.603199 
L 206.510082 190.030456 
L 207.545773 190.030456 
L 207.646226 188.457713 
L 208.010791 188.457713 
L 208.010791 186.88497 
L 208.332694 186.88497 
L 208.419317 185.836474 
L 208.458413 185.836474 
L 208.514321 183.739484 
L 208.708822 183.739484 
L 208.765129 182.16674 
L 209.075954 182.16674 
L 209.075954 181.118245 
L 209.259788 181.118245 
L 209.259788 180.593997 
L 209.379167 180.593997 
L 209.379167 180.06975 
L 209.653546 180.06975 
L 209.653546 179.545502 
L 209.795475 179.545502 
L 209.795475 178.497006 
L 210.148377 178.497006 
L 210.148377 177.972759 
L 210.283869 177.972759 
L 210.283869 177.448511 
L 210.60771 177.448511 
L 210.60771 176.924263 
L 210.942371 176.924263 
L 210.942371 176.400016 
L 211.183032 176.400016 
L 211.183032 175.35152 
L 211.432981 175.35152 
L 211.443102 173.254529 
L 211.871561 173.254529 
L 211.925455 172.206034 
L 212.324171 172.206034 
L 212.42452 170.633291 
L 212.664688 170.633291 
L 212.752172 169.060547 
L 212.791166 169.060547 
L 212.825308 168.012052 
L 213.056224 168.012052 
L 213.056224 167.487804 
L 213.479819 167.487804 
L 213.541892 165.915061 
L 213.729312 165.915061 
L 213.729312 165.390813 
L 213.966324 165.390813 
L 213.966324 164.866566 
L 214.243864 164.866566 
L 214.243864 164.342318 
L 214.61619 164.342318 
L 214.628377 161.721079 
L 214.818646 161.721079 
L 214.818646 161.196832 
L 215.27416 161.196832 
L 215.27416 160.672584 
L 215.513942 160.672584 
L 215.513942 160.148336 
L 215.8351 160.148336 
L 215.8351 159.624089 
L 215.952914 159.624089 
L 215.952914 159.099841 
L 216.143775 159.099841 
L 216.143775 158.575593 
L 217.009984 158.575593 
L 217.110244 157.527098 
L 217.501913 157.527098 
L 217.501913 157.00285 
L 217.652117 157.00285 
L 217.652117 156.478602 
L 218.005567 156.478602 
L 218.005567 155.954354 
L 218.164175 155.954354 
L 218.164175 155.430107 
L 218.313025 155.430107 
L 218.313025 154.905859 
L 218.768196 154.905859 
L 218.768196 154.381611 
L 219.438873 154.381611 
L 219.438873 153.857364 
L 219.690021 153.857364 
L 219.690021 153.333116 
L 220.431744 153.333116 
L 220.525906 151.760373 
L 221.140693 151.760373 
L 221.140693 151.236125 
L 221.277411 151.236125 
L 221.277411 150.711877 
L 221.472867 150.711877 
L 221.561169 149.663382 
L 221.796486 149.663382 
L 221.907329 147.566391 
L 222.274301 147.566391 
L 222.383977 144.945152 
L 222.394906 144.945152 
L 222.441822 142.323914 
L 222.848093 142.323914 
L 222.941169 140.751171 
L 223.014151 140.751171 
L 223.030374 139.702675 
L 223.350115 139.702675 
L 223.350115 138.65418 
L 223.701228 138.65418 
L 223.701228 138.129932 
L 223.816189 138.129932 
L 223.820815 137.081437 
L 224.051869 137.081437 
L 224.117728 136.032941 
L 224.485918 136.032941 
L 224.485918 134.984446 
L 224.709222 134.984446 
L 224.804084 133.411703 
L 225.200307 133.411703 
L 225.200307 132.363207 
L 225.368596 132.363207 
L 225.368596 131.838959 
L 225.726983 131.838959 
L 225.761966 129.741969 
L 225.995744 129.741969 
L 225.995744 129.217721 
L 226.289322 129.217721 
L 226.339694 128.169225 
L 226.432482 128.169225 
L 226.528467 127.12073 
L 227.170801 127.12073 
L 227.170801 126.596482 
L 227.881913 126.596482 
L 227.881913 126.072235 
L 228.50569 126.072235 
L 228.551662 125.023739 
L 228.732442 125.023739 
L 228.732442 124.499491 
L 229.107123 124.499491 
L 229.169804 122.926748 
L 229.312546 122.926748 
L 229.411947 121.878253 
L 230.049044 121.878253 
L 230.049044 121.354005 
L 230.490499 121.354005 
L 230.557457 119.781262 
L 230.819903 119.781262 
L 230.868711 116.111528 
L 231.132669 116.111528 
L 231.23539 114.538785 
L 231.642227 114.538785 
L 231.642227 114.014537 
L 231.918362 114.014537 
L 231.918362 113.490289 
L 232.162785 113.490289 
L 232.162785 112.966042 
L 232.35431 112.966042 
L 232.424045 111.393298 
L 232.659692 111.393298 
L 232.763882 110.344803 
L 232.794593 110.344803 
L 232.886159 109.296308 
L 233.256173 109.296308 
L 233.338614 108.247812 
L 233.406784 108.247812 
L 233.406784 107.723564 
L 235.47344 107.723564 
L 235.47344 107.199317 
L 236.296386 107.199317 
L 236.296386 106.675069 
L 236.44675 106.675069 
L 236.517188 102.481087 
L 236.623071 102.481087 
L 236.623071 101.432592 
L 237.071147 101.432592 
L 237.071147 100.908344 
L 237.272947 100.908344 
L 237.272947 100.384096 
L 237.476501 100.384096 
L 237.476501 99.859849 
L 237.602815 99.859849 
L 237.602815 99.335601 
L 237.973988 99.335601 
L 238.064709 98.287105 
L 238.145421 98.287105 
L 238.145421 97.762858 
L 238.263026 97.762858 
L 238.281782 96.714362 
L 238.671437 96.714362 
L 238.671437 96.190115 
L 240.109651 96.190115 
L 240.109651 95.665867 
L 240.223446 95.665867 
L 240.223446 95.141619 
L 240.724339 95.141619 
L 240.757139 91.471885 
L 240.933565 91.471885 
L 240.959247 90.42339 
L 241.494955 90.42339 
L 241.494955 89.899142 
L 242.057988 89.899142 
L 242.057988 89.374894 
L 242.185732 89.374894 
L 242.205745 88.326399 
L 243.719297 88.326399 
L 243.719297 87.802151 
L 244.144983 87.802151 
L 244.149704 86.753656 
L 244.32208 86.753656 
L 244.32208 86.229408 
L 244.629331 86.229408 
L 244.629331 85.70516 
L 244.777547 85.70516 
L 244.860285 83.608169 
L 245.1544 83.608169 
L 245.24065 82.559674 
L 246.014709 82.559674 
L 246.014709 82.035426 
L 246.954749 82.035426 
L 246.993028 75.220206 
L 247.334787 75.220206 
L 247.334787 74.695958 
L 247.698278 74.695958 
L 247.698278 74.17171 
L 247.96456 74.17171 
L 247.96456 73.647463 
L 249.41721 73.647463 
L 249.427701 70.501976 
L 249.88734 70.501976 
L 249.88734 69.977729 
L 250.041596 69.977729 
L 250.08142 68.929233 
L 250.232653 68.929233 
L 250.317349 67.880738 
L 251.399957 67.880738 
L 251.399957 67.35649 
L 251.549975 67.35649 
L 251.549995 66.307995 
L 252.215956 66.307995 
L 252.222712 65.259499 
L 253.450764 65.259499 
L 253.457285 63.162508 
L 253.734477 63.162508 
L 253.734477 62.638261 
L 255.088196 62.638261 
L 255.164779 60.017022 
L 255.537414 60.017022 
L 255.537414 59.492774 
L 256.713935 59.492774 
L 256.718365 57.395783 
L 256.847214 57.395783 
L 256.847214 56.871536 
L 257.21319 56.871536 
L 257.250979 55.82304 
L 258.137557 55.82304 
L 258.137557 55.298792 
L 258.599727 55.298792 
L 258.599727 54.774545 
L 259.456703 54.774545 
L 259.46129 53.726049 
L 260.678434 53.726049 
L 260.683899 49.532068 
L 261.107026 49.532068 
L 261.107026 49.00782 
L 261.820281 49.00782 
L 261.919178 45.338086 
L 262.892358 45.338086 
L 262.893292 43.765343 
L 263.061771 43.765343 
L 263.061771 43.241095 
L 263.292271 43.241095 
L 263.292271 42.716847 
L 263.90206 42.716847 
L 263.90206 42.192599 
L 264.150658 42.192599 
L 264.150658 41.668352 
L 264.850302 41.668352 
L 264.854803 40.095609 
L 265.744543 40.095609 
L 265.754495 39.047113 
L 266.612127 39.047113 
L 266.612478 37.998618 
L 267.428225 37.998618 
L 267.428225 37.47437 
L 268.20751 37.47437 
L 268.209766 36.425875 
L 268.365895 36.425875 
L 268.365895 35.901627 
L 268.955417 35.901627 
L 268.955417 35.377379 
L 269.140492 35.377379 
L 269.140492 34.853131 
L 270.355676 34.853131 
L 270.356221 33.804636 
L 272.263034 33.804636 
L 272.263034 33.280388 
L 273.427932 33.280388 
L 273.428506 32.231893 
L 275.542213 32.231893 
L 275.542213 31.707645 
L 279.123277 31.707645 
L 279.123277 31.183397 
L 279.9132 31.183397 
L 279.9132 30.65915 
L 283.395878 30.65915 
L 283.395878 30.134902 
L 285.189966 30.134902 
L 285.189966 29.610654 
L 285.748816 29.610654 
L 285.748816 29.086407 
L 286.021257 29.086407 
L 286.021257 28.562159 
L 288.299398 28.562159 
L 288.299398 28.037911 
L 290.520202 28.037911 
L 290.520202 27.513663 
L 333.429677 27.513663 
L 333.429677 27.513663 
" style="fill:none;stroke:#ffa500;stroke-linecap:square;stroke-width:1.5;"/>
   </g>
   <g id="line2d_39">
    <defs>
     <path d="M 0 -6 
L -1.347084 -1.854102 
L -5.706339 -1.854102 
L -2.179628 0.708204 
L -3.526712 4.854102 
L -0 2.291796 
L 3.526712 4.854102 
L 2.179628 0.708204 
L 5.706339 -1.854102 
L 1.347084 -1.854102 
z
" id="maab16642c5" style="stroke:#ffa500;stroke-linejoin:bevel;stroke-width:1.5;"/>
    </defs>
    <g>
     <use style="fill-opacity:0;stroke:#ffa500;stroke-linejoin:bevel;stroke-width:1.5;" x="198.758122" xlink:href="#maab16642c5" y="215.718594"/>
     <use style="fill-opacity:0;stroke:#ffa500;stroke-linejoin:bevel;stroke-width:1.5;" x="231.23539" xlink:href="#maab16642c5" y="115.58728"/>
     <use style="fill-opacity:0;stroke:#ffa500;stroke-linejoin:bevel;stroke-width:1.5;" x="290.520202" xlink:href="#maab16642c5" y="28.037911"/>
     <use style="fill-opacity:0;stroke:#ffa500;stroke-linejoin:bevel;stroke-width:1.5;" x="290.520202" xlink:href="#maab16642c5" y="27.513663"/>
     <use style="fill-opacity:0;stroke:#ffa500;stroke-linejoin:bevel;stroke-width:1.5;" x="333.429677" xlink:href="#maab16642c5" y="27.513663"/>
    </g>
   </g>
   <g id="line2d_40">
    <path style="fill:none;stroke:#ffa500;stroke-linecap:square;stroke-width:1.5;"/>
    <g/>
   </g>
   <g id="line2d_41">
    <path clip-path="url(#pc0b077d2e6)" d="M 214.582845 164.342318 
" style="fill:none;stroke:#ffa500;stroke-linecap:square;stroke-width:1.5;"/>
    <defs>
     <path d="M -12 12 
L 12 -12 
M -12 -12 
L 12 12 
" id="m86d2d5d7eb" style="stroke:#ffa500;stroke-width:3;"/>
    </defs>
    <g clip-path="url(#pc0b077d2e6)">
     <use style="fill:#ffa500;stroke:#ffa500;stroke-width:3;" x="214.582845" xlink:href="#m86d2d5d7eb" y="164.342318"/>
    </g>
   </g>
   <g id="line2d_42">
    <path clip-path="url(#pc0b077d2e6)" d="M 56.12 294.88 
L 56.12 294.88 
L 56.12 294.88 
L 56.12 294.88 
L 399.984 294.88 
" style="fill:none;stroke:#6495ed;stroke-linecap:square;stroke-width:1.5;"/>
   </g>
   <g id="line2d_43">
    <defs>
     <path d="M -0 6 
L 6 -6 
L -6 -6 
z
" id="mab99897c3f" style="stroke:#6495ed;stroke-linejoin:miter;stroke-width:1.5;"/>
    </defs>
    <g clip-path="url(#pc0b077d2e6)">
     <use style="fill-opacity:0;stroke:#6495ed;stroke-linejoin:miter;stroke-width:1.5;" x="56.12" xlink:href="#mab99897c3f" y="294.88"/>
    </g>
   </g>
   <g id="line2d_44">
    <path clip-path="url(#pc0b077d2e6)" style="fill:none;stroke:#6495ed;stroke-linecap:square;stroke-width:1.5;"/>
    <g clip-path="url(#pc0b077d2e6)">
     <use style="fill-opacity:0;stroke:#6495ed;stroke-linejoin:miter;stroke-width:1.5;" x="-1" xlink:href="#mab99897c3f" y="562.246337"/>
     <use style="fill-opacity:0;stroke:#6495ed;stroke-linejoin:miter;stroke-width:1.5;" x="399.984" xlink:href="#mab99897c3f" y="562.246337"/>
    </g>
   </g>
   <g id="line2d_45">
    <path d="M 333.429677 294.88 
L 363.933742 289.532673 
" style="fill:none;stroke:#6495ed;stroke-linecap:square;stroke-width:1.5;"/>
    <g>
     <use style="fill-opacity:0;stroke:#6495ed;stroke-linejoin:miter;stroke-width:1.5;" x="333.429677" xlink:href="#mab99897c3f" y="294.88"/>
     <use style="fill-opacity:0;stroke:#6495ed;stroke-linejoin:miter;stroke-width:1.5;" x="363.933742" xlink:href="#mab99897c3f" y="289.532673"/>
    </g>
   </g>
   <g id="line2d_46">
    <path d="M 333.429677 252.940182 
L 363.933742 225.364752 
" style="fill:none;stroke:#ff00ff;stroke-linecap:square;stroke-width:1.5;"/>
    <g>
     <use style="fill-opacity:0;stroke:#ff00ff;stroke-linejoin:miter;stroke-width:1.5;" x="333.429677" xlink:href="#m5f968853b3" y="252.940182"/>
     <use style="fill-opacity:0;stroke:#ff00ff;stroke-linejoin:miter;stroke-width:1.5;" x="363.933742" xlink:href="#m5f968853b3" y="225.364752"/>
    </g>
   </g>
   <g id="line2d_47">
    <path d="M 333.429677 27.513663 
L 363.933742 161.196832 
" style="fill:none;stroke:#ffa500;stroke-linecap:square;stroke-width:1.5;"/>
    <g>
     <use style="fill-opacity:0;stroke:#ffa500;stroke-linejoin:bevel;stroke-width:1.5;" x="333.429677" xlink:href="#maab16642c5" y="27.513663"/>
     <use style="fill-opacity:0;stroke:#ffa500;stroke-linejoin:bevel;stroke-width:1.5;" x="363.933742" xlink:href="#maab16642c5" y="161.196832"/>
    </g>
   </g>
   <g id="line2d_48">
    <path d="M 333.429677 27.513663 
L 363.933742 97.028911 
" style="fill:none;stroke:#000080;stroke-linecap:square;stroke-width:1.5;"/>
    <g>
     <use style="fill-opacity:0;stroke:#000080;stroke-width:1.5;" x="333.429677" xlink:href="#mc0e6b84852" y="27.513663"/>
     <use style="fill-opacity:0;stroke:#000080;stroke-width:1.5;" x="363.933742" xlink:href="#mc0e6b84852" y="97.028911"/>
    </g>
   </g>
   <g id="line2d_49">
    <path d="M 333.429677 294.88 
L 333.429677 27.513663 
" style="fill:none;stroke:#000000;stroke-linecap:square;stroke-width:1.5;"/>
   </g>
   <g id="patch_3">
    <path d="M 56.12 294.88 
L 56.12 24.84 
" style="fill:none;stroke:#000000;stroke-linecap:square;stroke-linejoin:miter;stroke-width:0.8;"/>
   </g>
   <g id="patch_4">
    <path d="M 399.984 294.88 
L 399.984 24.84 
" style="fill:none;stroke:#000000;stroke-linecap:square;stroke-linejoin:miter;stroke-width:0.8;"/>
   </g>
   <g id="patch_5">
    <path d="M 56.12 294.88 
L 399.984 294.88 
" style="fill:none;stroke:#000000;stroke-linecap:square;stroke-linejoin:miter;stroke-width:0.8;"/>
   </g>
   <g id="patch_6">
    <path d="M 56.12 24.84 
L 399.984 24.84 
" style="fill:none;stroke:#000000;stroke-linecap:square;stroke-linejoin:miter;stroke-width:0.8;"/>
   </g>
   <g id="text_14">
    <!-- hybrid -->
    <defs>
     <path d="M 54.890625 33.015625 
L 54.890625 0 
L 45.90625 0 
L 45.90625 32.71875 
Q 45.90625 40.484375 42.875 44.328125 
Q 39.84375 48.1875 33.796875 48.1875 
Q 26.515625 48.1875 22.3125 43.546875 
Q 18.109375 38.921875 18.109375 30.90625 
L 18.109375 0 
L 9.078125 0 
L 9.078125 75.984375 
L 18.109375 75.984375 
L 18.109375 46.1875 
Q 21.34375 51.125 25.703125 53.5625 
Q 30.078125 56 35.796875 56 
Q 45.21875 56 50.046875 50.171875 
Q 54.890625 44.34375 54.890625 33.015625 
z
" id="DejaVuSans-68"/>
     <path d="M 32.171875 -5.078125 
Q 28.375 -14.84375 24.75 -17.8125 
Q 21.140625 -20.796875 15.09375 -20.796875 
L 7.90625 -20.796875 
L 7.90625 -13.28125 
L 13.1875 -13.28125 
Q 16.890625 -13.28125 18.9375 -11.515625 
Q 21 -9.765625 23.484375 -3.21875 
L 25.09375 0.875 
L 2.984375 54.6875 
L 12.5 54.6875 
L 29.59375 11.921875 
L 46.6875 54.6875 
L 56.203125 54.6875 
z
" id="DejaVuSans-79"/>
     <path d="M 48.6875 27.296875 
Q 48.6875 37.203125 44.609375 42.84375 
Q 40.53125 48.484375 33.40625 48.484375 
Q 26.265625 48.484375 22.1875 42.84375 
Q 18.109375 37.203125 18.109375 27.296875 
Q 18.109375 17.390625 22.1875 11.75 
Q 26.265625 6.109375 33.40625 6.109375 
Q 40.53125 6.109375 44.609375 11.75 
Q 48.6875 17.390625 48.6875 27.296875 
z
M 18.109375 46.390625 
Q 20.953125 51.265625 25.265625 53.625 
Q 29.59375 56 35.59375 56 
Q 45.5625 56 51.78125 48.09375 
Q 58.015625 40.1875 58.015625 27.296875 
Q 58.015625 14.40625 51.78125 6.484375 
Q 45.5625 -1.421875 35.59375 -1.421875 
Q 29.59375 -1.421875 25.265625 0.953125 
Q 20.953125 3.328125 18.109375 8.203125 
L 18.109375 0 
L 9.078125 0 
L 9.078125 75.984375 
L 18.109375 75.984375 
z
" id="DejaVuSans-62"/>
    </defs>
    <g transform="translate(369.479935 294.223611)scale(0.17 -0.17)">
     <use xlink:href="#DejaVuSans-68"/>
     <use x="63.378906" xlink:href="#DejaVuSans-79"/>
     <use x="122.558594" xlink:href="#DejaVuSans-62"/>
     <use x="186.035156" xlink:href="#DejaVuSans-72"/>
     <use x="227.148438" xlink:href="#DejaVuSans-69"/>
     <use x="254.931641" xlink:href="#DejaVuSans-64"/>
    </g>
   </g>
   <g id="text_15">
    <!-- GA -->
    <defs>
     <path d="M 59.515625 10.40625 
L 59.515625 29.984375 
L 43.40625 29.984375 
L 43.40625 38.09375 
L 69.28125 38.09375 
L 69.28125 6.78125 
Q 63.578125 2.734375 56.6875 0.65625 
Q 49.8125 -1.421875 42 -1.421875 
Q 24.90625 -1.421875 15.25 8.5625 
Q 5.609375 18.5625 5.609375 36.375 
Q 5.609375 54.25 15.25 64.234375 
Q 24.90625 74.21875 42 74.21875 
Q 49.125 74.21875 55.546875 72.453125 
Q 61.96875 70.703125 67.390625 67.28125 
L 67.390625 56.78125 
Q 61.921875 61.421875 55.765625 63.765625 
Q 49.609375 66.109375 42.828125 66.109375 
Q 29.4375 66.109375 22.71875 58.640625 
Q 16.015625 51.171875 16.015625 36.375 
Q 16.015625 21.625 22.71875 14.15625 
Q 29.4375 6.6875 42.828125 6.6875 
Q 48.046875 6.6875 52.140625 7.59375 
Q 56.25 8.5 59.515625 10.40625 
z
" id="DejaVuSans-47"/>
     <path d="M 34.1875 63.1875 
L 20.796875 26.90625 
L 47.609375 26.90625 
z
M 28.609375 72.90625 
L 39.796875 72.90625 
L 67.578125 0 
L 57.328125 0 
L 50.6875 18.703125 
L 17.828125 18.703125 
L 11.1875 0 
L 0.78125 0 
z
" id="DejaVuSans-41"/>
    </defs>
    <g transform="translate(369.479935 230.05569)scale(0.17 -0.17)">
     <use xlink:href="#DejaVuSans-47"/>
     <use x="77.490234" xlink:href="#DejaVuSans-41"/>
    </g>
   </g>
   <g id="text_16">
    <!-- Rosenbroc -->
    <defs>
     <path d="M 44.390625 34.1875 
Q 47.5625 33.109375 50.5625 29.59375 
Q 53.5625 26.078125 56.59375 19.921875 
L 66.609375 0 
L 56 0 
L 46.6875 18.703125 
Q 43.0625 26.03125 39.671875 28.421875 
Q 36.28125 30.8125 30.421875 30.8125 
L 19.671875 30.8125 
L 19.671875 0 
L 9.8125 0 
L 9.8125 72.90625 
L 32.078125 72.90625 
Q 44.578125 72.90625 50.734375 67.671875 
Q 56.890625 62.453125 56.890625 51.90625 
Q 56.890625 45.015625 53.6875 40.46875 
Q 50.484375 35.9375 44.390625 34.1875 
z
M 19.671875 64.796875 
L 19.671875 38.921875 
L 32.078125 38.921875 
Q 39.203125 38.921875 42.84375 42.21875 
Q 46.484375 45.515625 46.484375 51.90625 
Q 46.484375 58.296875 42.84375 61.546875 
Q 39.203125 64.796875 32.078125 64.796875 
z
" id="DejaVuSans-52"/>
    </defs>
    <g transform="translate(369.479935 165.887769)scale(0.17 -0.17)">
     <use xlink:href="#DejaVuSans-52"/>
     <use x="69.419922" xlink:href="#DejaVuSans-6f"/>
     <use x="130.601562" xlink:href="#DejaVuSans-73"/>
     <use x="182.701172" xlink:href="#DejaVuSans-65"/>
     <use x="244.224609" xlink:href="#DejaVuSans-6e"/>
     <use x="307.603516" xlink:href="#DejaVuSans-62"/>
     <use x="371.080078" xlink:href="#DejaVuSans-72"/>
     <use x="412.162109" xlink:href="#DejaVuSans-6f"/>
     <use x="473.34375" xlink:href="#DejaVuSans-63"/>
    </g>
   </g>
   <g id="text_17">
    <!-- DASA -->
    <defs>
     <path d="M 19.671875 64.796875 
L 19.671875 8.109375 
L 31.59375 8.109375 
Q 46.6875 8.109375 53.6875 14.9375 
Q 60.6875 21.78125 60.6875 36.53125 
Q 60.6875 51.171875 53.6875 57.984375 
Q 46.6875 64.796875 31.59375 64.796875 
z
M 9.8125 72.90625 
L 30.078125 72.90625 
Q 51.265625 72.90625 61.171875 64.09375 
Q 71.09375 55.28125 71.09375 36.53125 
Q 71.09375 17.671875 61.125 8.828125 
Q 51.171875 0 30.078125 0 
L 9.8125 0 
z
" id="DejaVuSans-44"/>
     <path d="M 53.515625 70.515625 
L 53.515625 60.890625 
Q 47.90625 63.578125 42.921875 64.890625 
Q 37.9375 66.21875 33.296875 66.21875 
Q 25.25 66.21875 20.875 63.09375 
Q 16.5 59.96875 16.5 54.203125 
Q 16.5 49.359375 19.40625 46.890625 
Q 22.3125 44.4375 30.421875 42.921875 
L 36.375 41.703125 
Q 47.40625 39.59375 52.65625 34.296875 
Q 57.90625 29 57.90625 20.125 
Q 57.90625 9.515625 50.796875 4.046875 
Q 43.703125 -1.421875 29.984375 -1.421875 
Q 24.8125 -1.421875 18.96875 -0.25 
Q 13.140625 0.921875 6.890625 3.21875 
L 6.890625 13.375 
Q 12.890625 10.015625 18.65625 8.296875 
Q 24.421875 6.59375 29.984375 6.59375 
Q 38.421875 6.59375 43.015625 9.90625 
Q 47.609375 13.234375 47.609375 19.390625 
Q 47.609375 24.75 44.3125 27.78125 
Q 41.015625 30.8125 33.5 32.328125 
L 27.484375 33.5 
Q 16.453125 35.6875 11.515625 40.375 
Q 6.59375 45.0625 6.59375 53.421875 
Q 6.59375 63.09375 13.40625 68.65625 
Q 20.21875 74.21875 32.171875 74.21875 
Q 37.3125 74.21875 42.625 73.28125 
Q 47.953125 72.359375 53.515625 70.515625 
z
" id="DejaVuSans-53"/>
    </defs>
    <g transform="translate(369.479935 101.719848)scale(0.17 -0.17)">
     <use xlink:href="#DejaVuSans-44"/>
     <use x="76.986328" xlink:href="#DejaVuSans-41"/>
     <use x="145.394531" xlink:href="#DejaVuSans-53"/>
     <use x="208.886719" xlink:href="#DejaVuSans-41"/>
    </g>
   </g>
   <g id="text_18">
    <!-- best 2009 -->
    <defs>
     <path d="M 10.984375 1.515625 
L 10.984375 10.5 
Q 14.703125 8.734375 18.5 7.8125 
Q 22.3125 6.890625 25.984375 6.890625 
Q 35.75 6.890625 40.890625 13.453125 
Q 46.046875 20.015625 46.78125 33.40625 
Q 43.953125 29.203125 39.59375 26.953125 
Q 35.25 24.703125 29.984375 24.703125 
Q 19.046875 24.703125 12.671875 31.3125 
Q 6.296875 37.9375 6.296875 49.421875 
Q 6.296875 60.640625 12.9375 67.421875 
Q 19.578125 74.21875 30.609375 74.21875 
Q 43.265625 74.21875 49.921875 64.515625 
Q 56.59375 54.828125 56.59375 36.375 
Q 56.59375 19.140625 48.40625 8.859375 
Q 40.234375 -1.421875 26.421875 -1.421875 
Q 22.703125 -1.421875 18.890625 -0.6875 
Q 15.09375 0.046875 10.984375 1.515625 
z
M 30.609375 32.421875 
Q 37.25 32.421875 41.125 36.953125 
Q 45.015625 41.5 45.015625 49.421875 
Q 45.015625 57.28125 41.125 61.84375 
Q 37.25 66.40625 30.609375 66.40625 
Q 23.96875 66.40625 20.09375 61.84375 
Q 16.21875 57.28125 16.21875 49.421875 
Q 16.21875 41.5 20.09375 36.953125 
Q 23.96875 32.421875 30.609375 32.421875 
z
" id="DejaVuSans-39"/>
    </defs>
    <g transform="translate(369.479935 37.551928)scale(0.17 -0.17)">
     <use xlink:href="#DejaVuSans-62"/>
     <use x="63.476562" xlink:href="#DejaVuSans-65"/>
     <use x="125" xlink:href="#DejaVuSans-73"/>
     <use x="177.099609" xlink:href="#DejaVuSans-74"/>
     <use x="216.308594" xlink:href="#DejaVuSans-20"/>
     <use x="248.095703" xlink:href="#DejaVuSans-32"/>
     <use x="311.71875" xlink:href="#DejaVuSans-30"/>
     <use x="375.341797" xlink:href="#DejaVuSans-30"/>
     <use x="438.964844" xlink:href="#DejaVuSans-39"/>
    </g>
   </g>
   <g id="text_19">
    <!-- bbob f8, 10-D -->
    <g transform="translate(59.55864 35.290806)scale(0.102 -0.102)">
     <use xlink:href="#DejaVuSans-62"/>
     <use x="63.476562" xlink:href="#DejaVuSans-62"/>
     <use x="126.953125" xlink:href="#DejaVuSans-6f"/>
     <use x="188.134766" xlink:href="#DejaVuSans-62"/>
     <use x="251.611328" xlink:href="#DejaVuSans-20"/>
     <use x="283.398438" xlink:href="#DejaVuSans-66"/>
     <use x="318.603516" xlink:href="#DejaVuSans-38"/>
     <use x="382.226562" xlink:href="#DejaVuSans-2c"/>
     <use x="414.013672" xlink:href="#DejaVuSans-20"/>
     <use x="445.800781" xlink:href="#DejaVuSans-31"/>
     <use x="509.423828" xlink:href="#DejaVuSans-30"/>
     <use x="573.046875" xlink:href="#DejaVuSans-2d"/>
     <use x="609.130859" xlink:href="#DejaVuSans-44"/>
    </g>
    <!-- 51 targets: 100..1e-08 -->
    <defs>
     <path d="M 10.796875 72.90625 
L 49.515625 72.90625 
L 49.515625 64.59375 
L 19.828125 64.59375 
L 19.828125 46.734375 
Q 21.96875 47.46875 24.109375 47.828125 
Q 26.265625 48.1875 28.421875 48.1875 
Q 40.625 48.1875 47.75 41.5 
Q 54.890625 34.8125 54.890625 23.390625 
Q 54.890625 11.625 47.5625 5.09375 
Q 40.234375 -1.421875 26.90625 -1.421875 
Q 22.3125 -1.421875 17.546875 -0.640625 
Q 12.796875 0.140625 7.71875 1.703125 
L 7.71875 11.625 
Q 12.109375 9.234375 16.796875 8.0625 
Q 21.484375 6.890625 26.703125 6.890625 
Q 35.15625 6.890625 40.078125 11.328125 
Q 45.015625 15.765625 45.015625 23.390625 
Q 45.015625 31 40.078125 35.4375 
Q 35.15625 39.890625 26.703125 39.890625 
Q 22.75 39.890625 18.8125 39.015625 
Q 14.890625 38.140625 10.796875 36.28125 
z
" id="DejaVuSans-35"/>
     <path d="M 11.71875 12.40625 
L 22.015625 12.40625 
L 22.015625 0 
L 11.71875 0 
z
M 11.71875 51.703125 
L 22.015625 51.703125 
L 22.015625 39.3125 
L 11.71875 39.3125 
z
" id="DejaVuSans-3a"/>
    </defs>
    <g transform="translate(59.55864 46.712575)scale(0.102 -0.102)">
     <use xlink:href="#DejaVuSans-35"/>
     <use x="63.623047" xlink:href="#DejaVuSans-31"/>
     <use x="127.246094" xlink:href="#DejaVuSans-20"/>
     <use x="159.033203" xlink:href="#DejaVuSans-74"/>
     <use x="198.242188" xlink:href="#DejaVuSans-61"/>
     <use x="259.521484" xlink:href="#DejaVuSans-72"/>
     <use x="300.619141" xlink:href="#DejaVuSans-67"/>
     <use x="364.095703" xlink:href="#DejaVuSans-65"/>
     <use x="425.619141" xlink:href="#DejaVuSans-74"/>
     <use x="464.828125" xlink:href="#DejaVuSans-73"/>
     <use x="516.927734" xlink:href="#DejaVuSans-3a"/>
     <use x="550.619141" xlink:href="#DejaVuSans-20"/>
     <use x="582.40625" xlink:href="#DejaVuSans-31"/>
     <use x="646.029297" xlink:href="#DejaVuSans-30"/>
     <use x="709.652344" xlink:href="#DejaVuSans-30"/>
     <use x="773.275391" xlink:href="#DejaVuSans-2e"/>
     <use x="805.0625" xlink:href="#DejaVuSans-2e"/>
     <use x="836.849609" xlink:href="#DejaVuSans-31"/>
     <use x="900.472656" xlink:href="#DejaVuSans-65"/>
     <use x="961.996094" xlink:href="#DejaVuSans-2d"/>
     <use x="998.080078" xlink:href="#DejaVuSans-30"/>
     <use x="1061.703125" xlink:href="#DejaVuSans-38"/>
    </g>
    <!-- 15 instances -->
    <g transform="translate(59.55864 58.134344)scale(0.102 -0.102)">
     <use xlink:href="#DejaVuSans-31"/>
     <use x="63.623047" xlink:href="#DejaVuSans-35"/>
     <use x="127.246094" xlink:href="#DejaVuSans-20"/>
     <use x="159.033203" xlink:href="#DejaVuSans-69"/>
     <use x="186.816406" xlink:href="#DejaVuSans-6e"/>
     <use x="250.195312" xlink:href="#DejaVuSans-73"/>
     <use x="302.294922" xlink:href="#DejaVuSans-74"/>
     <use x="341.503906" xlink:href="#DejaVuSans-61"/>
     <use x="402.783203" xlink:href="#DejaVuSans-6e"/>
     <use x="466.162109" xlink:href="#DejaVuSans-63"/>
     <use x="521.142578" xlink:href="#DejaVuSans-65"/>
     <use x="582.666016" xlink:href="#DejaVuSans-73"/>
    </g>
   </g>
   <g id="text_20">
    <!-- v-coco-version -->
    <g style="fill:#808080;" transform="translate(191.556688 290.099912)scale(0.1 -0.1)">
     <use xlink:href="#DejaVuSans-76"/>
     <use x="59.148438" xlink:href="#DejaVuSans-2d"/>
     <use x="95.232422" xlink:href="#DejaVuSans-63"/>
     <use x="150.212891" xlink:href="#DejaVuSans-6f"/>
     <use x="211.394531" xlink:href="#DejaVuSans-63"/>
     <use x="266.375" xlink:href="#DejaVuSans-6f"/>
     <use x="327.572266" xlink:href="#DejaVuSans-2d"/>
     <use x="363.625" xlink:href="#DejaVuSans-76"/>
     <use x="422.804688" xlink:href="#DejaVuSans-65"/>
     <use x="484.328125" xlink:href="#DejaVuSans-72"/>
     <use x="525.441406" xlink:href="#DejaVuSans-73"/>
     <use x="577.541016" xlink:href="#DejaVuSans-69"/>
     <use x="605.324219" xlink:href="#DejaVuSans-6f"/>
     <use x="666.505859" xlink:href="#DejaVuSans-6e"/>
    </g>
   </g>
   <g id="text_21">
    <!-- 8 Rosenbrock original -->
    <defs>
     <path d="M 9.078125 75.984375 
L 18.109375 75.984375 
L 18.109375 31.109375 
L 44.921875 54.6875 
L 56.390625 54.6875 
L 27.390625 29.109375 
L 57.625 0 
L 45.90625 0 
L 18.109375 26.703125 
L 18.109375 0 
L 9.078125 0 
z
" id="DejaVuSans-6b"/>
    </defs>
    <g transform="translate(119.330125 18.84)scale(0.2 -0.2)">
     <use xlink:href="#DejaVuSans-38"/>
     <use x="63.623047" xlink:href="#DejaVuSans-20"/>
     <use x="95.410156" xlink:href="#DejaVuSans-52"/>
     <use x="164.830078" xlink:href="#DejaVuSans-6f"/>
     <use x="226.011719" xlink:href="#DejaVuSans-73"/>
     <use x="278.111328" xlink:href="#DejaVuSans-65"/>
     <use x="339.634766" xlink:href="#DejaVuSans-6e"/>
     <use x="403.013672" xlink:href="#DejaVuSans-62"/>
     <use x="466.490234" xlink:href="#DejaVuSans-72"/>
     <use x="507.572266" xlink:href="#DejaVuSans-6f"/>
     <use x="568.753906" xlink:href="#DejaVuSans-63"/>
     <use x="623.734375" xlink:href="#DejaVuSans-6b"/>
     <use x="681.644531" xlink:href="#DejaVuSans-20"/>
     <use x="713.431641" xlink:href="#DejaVuSans-6f"/>
     <use x="774.613281" xlink:href="#DejaVuSans-72"/>
     <use x="815.726562" xlink:href="#DejaVuSans-69"/>
     <use x="843.509766" xlink:href="#DejaVuSans-67"/>
     <use x="906.986328" xlink:href="#DejaVuSans-69"/>
     <use x="934.769531" xlink:href="#DejaVuSans-6e"/>
     <use x="998.148438" xlink:href="#DejaVuSans-61"/>
     <use x="1059.427734" xlink:href="#DejaVuSans-6c"/>
    </g>
   </g>
  </g>
 </g>
 <defs>
  <clipPath id="pc0b077d2e6">
   <rect height="270.04" width="343.864" x="56.12" y="24.84"/>
  </clipPath>
 </defs>
</svg>
