<?xml version="1.0" encoding="utf-8" standalone="no"?>
<!DOCTYPE svg PUBLIC "-//W3C//DTD SVG 1.1//EN"
  "http://www.w3.org/Graphics/SVG/1.1/DTD/svg11.dtd">
<!-- Created with matplotlib (http://matplotlib.org/) -->
<svg height="345.6pt" version="1.1" viewBox="0 0 460.8 345.6" width="460.8pt" xmlns="http://www.w3.org/2000/svg" xmlns:xlink="http://www.w3.org/1999/xlink">
 <defs>
  <style type="text/css">
*{stroke-linecap:butt;stroke-linejoin:round;}
  </style>
 </defs>
 <g id="figure_1">
  <g id="patch_1">
   <path d="M 0 345.6 
L 460.8 345.6 
L 460.8 0 
L 0 0 
z
" style="fill:#ffffff;"/>
  </g>
  <g id="axes_1">
   <g id="patch_2">
    <path d="M 56.12 294.88 
L 399.984 294.88 
L 399.984 24.84 
L 56.12 24.84 
z
" style="fill:#ffffff;"/>
   </g>
   <g id="line2d_1">
    <path d="M 28.429836 294.88 
L 28.429836 289.637523 
L 40.355341 289.637523 
L 40.355341 284.395046 
L 56.12 284.395046 
L 56.12 279.152568 
L 76.131854 279.152568 
L 76.131854 273.910091 
L 94.301099 273.910091 
L 94.301099 268.667614 
L 110.797991 268.667614 
L 110.797991 263.425137 
L 117.964074 263.425137 
L 117.964074 258.18266 
L 128.409739 258.18266 
L 128.409739 252.940182 
L 129.842248 252.940182 
L 129.842248 247.697705 
L 130.720002 247.697705 
L 130.720002 242.455228 
L 138.828856 242.455228 
L 138.828856 237.212751 
L 142.509856 237.212751 
L 142.509856 231.970274 
L 148.585007 231.970274 
L 148.585007 226.727797 
L 160.107191 226.727797 
L 160.107191 221.485319 
L 162.777978 221.485319 
L 162.777978 216.242842 
L 164.121742 216.242842 
L 164.121742 211.000365 
L 167.760672 211.000365 
L 167.760672 205.757888 
L 171.23077 205.757888 
L 171.23077 200.515411 
L 172.049011 200.515411 
L 172.049011 195.272933 
L 183.408808 195.272933 
L 183.408808 190.030456 
L 187.170687 190.030456 
L 187.170687 184.787979 
L 187.275328 184.787979 
L 187.275328 179.545502 
L 187.365951 179.545502 
L 187.365951 174.303025 
L 187.441107 174.303025 
L 187.441107 169.060547 
L 187.545777 169.060547 
L 187.545777 163.81807 
L 187.648167 163.81807 
L 187.648167 158.575593 
L 188.831557 158.575593 
L 188.831557 153.333116 
L 188.891401 153.333116 
L 188.891401 148.090639 
L 188.93882 148.090639 
L 188.93882 142.848162 
L 189.089387 142.848162 
L 189.089387 137.605684 
L 189.170963 137.605684 
L 189.170963 132.363207 
L 189.208599 132.363207 
L 189.208599 127.12073 
L 189.306069 127.12073 
L 189.306069 121.878253 
L 189.38216 121.878253 
L 189.38216 116.635776 
L 189.457917 116.635776 
L 189.457917 111.393298 
L 189.511192 111.393298 
L 189.511192 106.150821 
L 189.577554 106.150821 
L 189.577554 100.908344 
L 189.643662 100.908344 
L 189.643662 95.665867 
L 189.727035 95.665867 
L 189.727035 90.42339 
L 189.754737 90.42339 
L 189.754737 85.180912 
L 189.825973 85.180912 
L 189.825973 79.938435 
L 189.89547 79.938435 
L 189.89547 74.695958 
L 189.969004 74.695958 
L 189.969004 69.453481 
L 190.029327 69.453481 
L 190.029327 64.211004 
L 190.116564 64.211004 
L 190.116564 58.968526 
L 190.164996 58.968526 
L 190.164996 53.726049 
L 190.216129 53.726049 
L 190.216129 48.483572 
L 190.269939 48.483572 
L 190.269939 43.241095 
L 190.292545 43.241095 
L 190.292545 37.998618 
L 190.337669 37.998618 
L 190.337669 32.756141 
L 190.3911 32.756141 
L 190.3911 27.513663 
L 333.429677 27.513663 
" style="fill:none;stroke:#f5deb3;stroke-linecap:square;stroke-width:6;"/>
   </g>
   <g id="line2d_2">
    <defs>
     <path d="M -0 7.778175 
L 7.778175 0 
L 0 -7.778175 
L -7.778175 -0 
z
" id="m1562eb1570" style="stroke:#f5deb3;stroke-linejoin:miter;stroke-width:1.5;"/>
    </defs>
    <g>
     <use style="fill:#f5deb3;stroke:#f5deb3;stroke-linejoin:miter;stroke-width:1.5;" x="117.964074" xlink:href="#m1562eb1570" y="258.18266"/>
     <use style="fill:#f5deb3;stroke:#f5deb3;stroke-linejoin:miter;stroke-width:1.5;" x="171.23077" xlink:href="#m1562eb1570" y="205.757888"/>
     <use style="fill:#f5deb3;stroke:#f5deb3;stroke-linejoin:miter;stroke-width:1.5;" x="189.457917" xlink:href="#m1562eb1570" y="111.393298"/>
     <use style="fill:#f5deb3;stroke:#f5deb3;stroke-linejoin:miter;stroke-width:1.5;" x="190.3911" xlink:href="#m1562eb1570" y="32.756141"/>
     <use style="fill:#f5deb3;stroke:#f5deb3;stroke-linejoin:miter;stroke-width:1.5;" x="190.3911" xlink:href="#m1562eb1570" y="27.513663"/>
     <use style="fill:#f5deb3;stroke:#f5deb3;stroke-linejoin:miter;stroke-width:1.5;" x="333.429677" xlink:href="#m1562eb1570" y="27.513663"/>
    </g>
   </g>
   <g id="line2d_3">
    <path style="fill:none;stroke:#f5deb3;stroke-linecap:square;stroke-width:6;"/>
    <g/>
   </g>
   <g id="line2d_4">
    <path d="M 333.429677 27.513663 
L 363.933742 32.86099 
" style="fill:none;stroke:#f5deb3;stroke-linecap:square;stroke-width:6;"/>
    <g>
     <use style="fill:#f5deb3;stroke:#f5deb3;stroke-linejoin:miter;stroke-width:1.5;" x="333.429677" xlink:href="#m1562eb1570" y="27.513663"/>
     <use style="fill:#f5deb3;stroke:#f5deb3;stroke-linejoin:miter;stroke-width:1.5;" x="363.933742" xlink:href="#m1562eb1570" y="32.86099"/>
    </g>
   </g>
   <g id="matplotlib.axis_1">
    <g id="xtick_1">
     <g id="line2d_5">
      <path clip-path="url(#p1fef61beab)" d="M 56.12 294.88 
L 56.12 24.84 
" style="fill:none;stroke:#b0b0b0;stroke-linecap:square;stroke-width:0.8;"/>
     </g>
     <g id="line2d_6">
      <defs>
       <path d="M 0 0 
L 0 3.5 
" id="mbbd1a037a5" style="stroke:#000000;stroke-width:0.8;"/>
      </defs>
      <g>
       <use style="stroke:#000000;stroke-width:0.8;" x="56.12" xlink:href="#mbbd1a037a5" y="294.88"/>
      </g>
     </g>
     <g id="text_1">
      <!-- 0 -->
      <defs>
       <path d="M 31.78125 66.40625 
Q 24.171875 66.40625 20.328125 58.90625 
Q 16.5 51.421875 16.5 36.375 
Q 16.5 21.390625 20.328125 13.890625 
Q 24.171875 6.390625 31.78125 6.390625 
Q 39.453125 6.390625 43.28125 13.890625 
Q 47.125 21.390625 47.125 36.375 
Q 47.125 51.421875 43.28125 58.90625 
Q 39.453125 66.40625 31.78125 66.40625 
z
M 31.78125 74.21875 
Q 44.046875 74.21875 50.515625 64.515625 
Q 56.984375 54.828125 56.984375 36.375 
Q 56.984375 17.96875 50.515625 8.265625 
Q 44.046875 -1.421875 31.78125 -1.421875 
Q 19.53125 -1.421875 13.0625 8.265625 
Q 6.59375 17.96875 6.59375 36.375 
Q 6.59375 54.828125 13.0625 64.515625 
Q 19.53125 74.21875 31.78125 74.21875 
z
" id="DejaVuSans-30"/>
      </defs>
      <g transform="translate(49.7575 317.076875)scale(0.2 -0.2)">
       <use xlink:href="#DejaVuSans-30"/>
      </g>
     </g>
    </g>
    <g id="xtick_2">
     <g id="line2d_7">
      <path clip-path="url(#p1fef61beab)" d="M 135.351336 294.88 
L 135.351336 24.84 
" style="fill:none;stroke:#b0b0b0;stroke-linecap:square;stroke-width:0.8;"/>
     </g>
     <g id="line2d_8">
      <g>
       <use style="stroke:#000000;stroke-width:0.8;" x="135.351336" xlink:href="#mbbd1a037a5" y="294.88"/>
      </g>
     </g>
     <g id="text_2">
      <!-- 2 -->
      <defs>
       <path d="M 19.1875 8.296875 
L 53.609375 8.296875 
L 53.609375 0 
L 7.328125 0 
L 7.328125 8.296875 
Q 12.9375 14.109375 22.625 23.890625 
Q 32.328125 33.6875 34.8125 36.53125 
Q 39.546875 41.84375 41.421875 45.53125 
Q 43.3125 49.21875 43.3125 52.78125 
Q 43.3125 58.59375 39.234375 62.25 
Q 35.15625 65.921875 28.609375 65.921875 
Q 23.96875 65.921875 18.8125 64.3125 
Q 13.671875 62.703125 7.8125 59.421875 
L 7.8125 69.390625 
Q 13.765625 71.78125 18.9375 73 
Q 24.125 74.21875 28.421875 74.21875 
Q 39.75 74.21875 46.484375 68.546875 
Q 53.21875 62.890625 53.21875 53.421875 
Q 53.21875 48.921875 51.53125 44.890625 
Q 49.859375 40.875 45.40625 35.40625 
Q 44.1875 33.984375 37.640625 27.21875 
Q 31.109375 20.453125 19.1875 8.296875 
z
" id="DejaVuSans-32"/>
      </defs>
      <g transform="translate(128.988836 317.076875)scale(0.2 -0.2)">
       <use xlink:href="#DejaVuSans-32"/>
      </g>
     </g>
    </g>
    <g id="xtick_3">
     <g id="line2d_9">
      <path clip-path="url(#p1fef61beab)" d="M 214.582673 294.88 
L 214.582673 24.84 
" style="fill:none;stroke:#b0b0b0;stroke-linecap:square;stroke-width:0.8;"/>
     </g>
     <g id="line2d_10">
      <g>
       <use style="stroke:#000000;stroke-width:0.8;" x="214.582673" xlink:href="#mbbd1a037a5" y="294.88"/>
      </g>
     </g>
     <g id="text_3">
      <!-- 4 -->
      <defs>
       <path d="M 37.796875 64.3125 
L 12.890625 25.390625 
L 37.796875 25.390625 
z
M 35.203125 72.90625 
L 47.609375 72.90625 
L 47.609375 25.390625 
L 58.015625 25.390625 
L 58.015625 17.1875 
L 47.609375 17.1875 
L 47.609375 0 
L 37.796875 0 
L 37.796875 17.1875 
L 4.890625 17.1875 
L 4.890625 26.703125 
z
" id="DejaVuSans-34"/>
      </defs>
      <g transform="translate(208.220173 317.076875)scale(0.2 -0.2)">
       <use xlink:href="#DejaVuSans-34"/>
      </g>
     </g>
    </g>
    <g id="xtick_4">
     <g id="line2d_11">
      <path clip-path="url(#p1fef61beab)" d="M 293.814009 294.88 
L 293.814009 24.84 
" style="fill:none;stroke:#b0b0b0;stroke-linecap:square;stroke-width:0.8;"/>
     </g>
     <g id="line2d_12">
      <g>
       <use style="stroke:#000000;stroke-width:0.8;" x="293.814009" xlink:href="#mbbd1a037a5" y="294.88"/>
      </g>
     </g>
     <g id="text_4">
      <!-- 6 -->
      <defs>
       <path d="M 33.015625 40.375 
Q 26.375 40.375 22.484375 35.828125 
Q 18.609375 31.296875 18.609375 23.390625 
Q 18.609375 15.53125 22.484375 10.953125 
Q 26.375 6.390625 33.015625 6.390625 
Q 39.65625 6.390625 43.53125 10.953125 
Q 47.40625 15.53125 47.40625 23.390625 
Q 47.40625 31.296875 43.53125 35.828125 
Q 39.65625 40.375 33.015625 40.375 
z
M 52.59375 71.296875 
L 52.59375 62.3125 
Q 48.875 64.0625 45.09375 64.984375 
Q 41.3125 65.921875 37.59375 65.921875 
Q 27.828125 65.921875 22.671875 59.328125 
Q 17.53125 52.734375 16.796875 39.40625 
Q 19.671875 43.65625 24.015625 45.921875 
Q 28.375 48.1875 33.59375 48.1875 
Q 44.578125 48.1875 50.953125 41.515625 
Q 57.328125 34.859375 57.328125 23.390625 
Q 57.328125 12.15625 50.6875 5.359375 
Q 44.046875 -1.421875 33.015625 -1.421875 
Q 20.359375 -1.421875 13.671875 8.265625 
Q 6.984375 17.96875 6.984375 36.375 
Q 6.984375 53.65625 15.1875 63.9375 
Q 23.390625 74.21875 37.203125 74.21875 
Q 40.921875 74.21875 44.703125 73.484375 
Q 48.484375 72.75 52.59375 71.296875 
z
" id="DejaVuSans-36"/>
      </defs>
      <g transform="translate(287.451509 317.076875)scale(0.2 -0.2)">
       <use xlink:href="#DejaVuSans-36"/>
      </g>
     </g>
    </g>
    <g id="xtick_5">
     <g id="line2d_13">
      <path clip-path="url(#p1fef61beab)" d="M 373.045346 294.88 
L 373.045346 24.84 
" style="fill:none;stroke:#b0b0b0;stroke-linecap:square;stroke-width:0.8;"/>
     </g>
     <g id="line2d_14">
      <g>
       <use style="stroke:#000000;stroke-width:0.8;" x="373.045346" xlink:href="#mbbd1a037a5" y="294.88"/>
      </g>
     </g>
     <g id="text_5">
      <!-- 8 -->
      <defs>
       <path d="M 31.78125 34.625 
Q 24.75 34.625 20.71875 30.859375 
Q 16.703125 27.09375 16.703125 20.515625 
Q 16.703125 13.921875 20.71875 10.15625 
Q 24.75 6.390625 31.78125 6.390625 
Q 38.8125 6.390625 42.859375 10.171875 
Q 46.921875 13.96875 46.921875 20.515625 
Q 46.921875 27.09375 42.890625 30.859375 
Q 38.875 34.625 31.78125 34.625 
z
M 21.921875 38.8125 
Q 15.578125 40.375 12.03125 44.71875 
Q 8.5 49.078125 8.5 55.328125 
Q 8.5 64.0625 14.71875 69.140625 
Q 20.953125 74.21875 31.78125 74.21875 
Q 42.671875 74.21875 48.875 69.140625 
Q 55.078125 64.0625 55.078125 55.328125 
Q 55.078125 49.078125 51.53125 44.71875 
Q 48 40.375 41.703125 38.8125 
Q 48.828125 37.15625 52.796875 32.3125 
Q 56.78125 27.484375 56.78125 20.515625 
Q 56.78125 9.90625 50.3125 4.234375 
Q 43.84375 -1.421875 31.78125 -1.421875 
Q 19.734375 -1.421875 13.25 4.234375 
Q 6.78125 9.90625 6.78125 20.515625 
Q 6.78125 27.484375 10.78125 32.3125 
Q 14.796875 37.15625 21.921875 38.8125 
z
M 18.3125 54.390625 
Q 18.3125 48.734375 21.84375 45.5625 
Q 25.390625 42.390625 31.78125 42.390625 
Q 38.140625 42.390625 41.71875 45.5625 
Q 45.3125 48.734375 45.3125 54.390625 
Q 45.3125 60.0625 41.71875 63.234375 
Q 38.140625 66.40625 31.78125 66.40625 
Q 25.390625 66.40625 21.84375 63.234375 
Q 18.3125 60.0625 18.3125 54.390625 
z
" id="DejaVuSans-38"/>
      </defs>
      <g transform="translate(366.682846 317.076875)scale(0.2 -0.2)">
       <use xlink:href="#DejaVuSans-38"/>
      </g>
     </g>
    </g>
    <g id="text_6">
     <!-- log10(# f-evals / dimension) -->
     <defs>
      <path d="M 9.421875 75.984375 
L 18.40625 75.984375 
L 18.40625 0 
L 9.421875 0 
z
" id="DejaVuSans-6c"/>
      <path d="M 30.609375 48.390625 
Q 23.390625 48.390625 19.1875 42.75 
Q 14.984375 37.109375 14.984375 27.296875 
Q 14.984375 17.484375 19.15625 11.84375 
Q 23.34375 6.203125 30.609375 6.203125 
Q 37.796875 6.203125 41.984375 11.859375 
Q 46.1875 17.53125 46.1875 27.296875 
Q 46.1875 37.015625 41.984375 42.703125 
Q 37.796875 48.390625 30.609375 48.390625 
z
M 30.609375 56 
Q 42.328125 56 49.015625 48.375 
Q 55.71875 40.765625 55.71875 27.296875 
Q 55.71875 13.875 49.015625 6.21875 
Q 42.328125 -1.421875 30.609375 -1.421875 
Q 18.84375 -1.421875 12.171875 6.21875 
Q 5.515625 13.875 5.515625 27.296875 
Q 5.515625 40.765625 12.171875 48.375 
Q 18.84375 56 30.609375 56 
z
" id="DejaVuSans-6f"/>
      <path d="M 45.40625 27.984375 
Q 45.40625 37.75 41.375 43.109375 
Q 37.359375 48.484375 30.078125 48.484375 
Q 22.859375 48.484375 18.828125 43.109375 
Q 14.796875 37.75 14.796875 27.984375 
Q 14.796875 18.265625 18.828125 12.890625 
Q 22.859375 7.515625 30.078125 7.515625 
Q 37.359375 7.515625 41.375 12.890625 
Q 45.40625 18.265625 45.40625 27.984375 
z
M 54.390625 6.78125 
Q 54.390625 -7.171875 48.1875 -13.984375 
Q 42 -20.796875 29.203125 -20.796875 
Q 24.46875 -20.796875 20.265625 -20.09375 
Q 16.0625 -19.390625 12.109375 -17.921875 
L 12.109375 -9.1875 
Q 16.0625 -11.328125 19.921875 -12.34375 
Q 23.78125 -13.375 27.78125 -13.375 
Q 36.625 -13.375 41.015625 -8.765625 
Q 45.40625 -4.15625 45.40625 5.171875 
L 45.40625 9.625 
Q 42.625 4.78125 38.28125 2.390625 
Q 33.9375 0 27.875 0 
Q 17.828125 0 11.671875 7.65625 
Q 5.515625 15.328125 5.515625 27.984375 
Q 5.515625 40.671875 11.671875 48.328125 
Q 17.828125 56 27.875 56 
Q 33.9375 56 38.28125 53.609375 
Q 42.625 51.21875 45.40625 46.390625 
L 45.40625 54.6875 
L 54.390625 54.6875 
z
" id="DejaVuSans-67"/>
      <path d="M 12.40625 8.296875 
L 28.515625 8.296875 
L 28.515625 63.921875 
L 10.984375 60.40625 
L 10.984375 69.390625 
L 28.421875 72.90625 
L 38.28125 72.90625 
L 38.28125 8.296875 
L 54.390625 8.296875 
L 54.390625 0 
L 12.40625 0 
z
" id="DejaVuSans-31"/>
      <path d="M 31 75.875 
Q 24.46875 64.65625 21.28125 53.65625 
Q 18.109375 42.671875 18.109375 31.390625 
Q 18.109375 20.125 21.3125 9.0625 
Q 24.515625 -2 31 -13.1875 
L 23.1875 -13.1875 
Q 15.875 -1.703125 12.234375 9.375 
Q 8.59375 20.453125 8.59375 31.390625 
Q 8.59375 42.28125 12.203125 53.3125 
Q 15.828125 64.359375 23.1875 75.875 
z
" id="DejaVuSans-28"/>
      <path d="M 51.125 44 
L 36.921875 44 
L 32.8125 27.6875 
L 47.125 27.6875 
z
M 43.796875 71.78125 
L 38.71875 51.515625 
L 52.984375 51.515625 
L 58.109375 71.78125 
L 65.921875 71.78125 
L 60.890625 51.515625 
L 76.125 51.515625 
L 76.125 44 
L 58.984375 44 
L 54.984375 27.6875 
L 70.515625 27.6875 
L 70.515625 20.21875 
L 53.078125 20.21875 
L 48 0 
L 40.1875 0 
L 45.21875 20.21875 
L 30.90625 20.21875 
L 25.875 0 
L 18.015625 0 
L 23.09375 20.21875 
L 7.71875 20.21875 
L 7.71875 27.6875 
L 24.90625 27.6875 
L 29 44 
L 13.28125 44 
L 13.28125 51.515625 
L 30.90625 51.515625 
L 35.890625 71.78125 
z
" id="DejaVuSans-23"/>
      <path id="DejaVuSans-20"/>
      <path d="M 37.109375 75.984375 
L 37.109375 68.5 
L 28.515625 68.5 
Q 23.6875 68.5 21.796875 66.546875 
Q 19.921875 64.59375 19.921875 59.515625 
L 19.921875 54.6875 
L 34.71875 54.6875 
L 34.71875 47.703125 
L 19.921875 47.703125 
L 19.921875 0 
L 10.890625 0 
L 10.890625 47.703125 
L 2.296875 47.703125 
L 2.296875 54.6875 
L 10.890625 54.6875 
L 10.890625 58.5 
Q 10.890625 67.625 15.140625 71.796875 
Q 19.390625 75.984375 28.609375 75.984375 
z
" id="DejaVuSans-66"/>
      <path d="M 4.890625 31.390625 
L 31.203125 31.390625 
L 31.203125 23.390625 
L 4.890625 23.390625 
z
" id="DejaVuSans-2d"/>
      <path d="M 56.203125 29.59375 
L 56.203125 25.203125 
L 14.890625 25.203125 
Q 15.484375 15.921875 20.484375 11.0625 
Q 25.484375 6.203125 34.421875 6.203125 
Q 39.59375 6.203125 44.453125 7.46875 
Q 49.3125 8.734375 54.109375 11.28125 
L 54.109375 2.78125 
Q 49.265625 0.734375 44.1875 -0.34375 
Q 39.109375 -1.421875 33.890625 -1.421875 
Q 20.796875 -1.421875 13.15625 6.1875 
Q 5.515625 13.8125 5.515625 26.8125 
Q 5.515625 40.234375 12.765625 48.109375 
Q 20.015625 56 32.328125 56 
Q 43.359375 56 49.78125 48.890625 
Q 56.203125 41.796875 56.203125 29.59375 
z
M 47.21875 32.234375 
Q 47.125 39.59375 43.09375 43.984375 
Q 39.0625 48.390625 32.421875 48.390625 
Q 24.90625 48.390625 20.390625 44.140625 
Q 15.875 39.890625 15.1875 32.171875 
z
" id="DejaVuSans-65"/>
      <path d="M 2.984375 54.6875 
L 12.5 54.6875 
L 29.59375 8.796875 
L 46.6875 54.6875 
L 56.203125 54.6875 
L 35.6875 0 
L 23.484375 0 
z
" id="DejaVuSans-76"/>
      <path d="M 34.28125 27.484375 
Q 23.390625 27.484375 19.1875 25 
Q 14.984375 22.515625 14.984375 16.5 
Q 14.984375 11.71875 18.140625 8.90625 
Q 21.296875 6.109375 26.703125 6.109375 
Q 34.1875 6.109375 38.703125 11.40625 
Q 43.21875 16.703125 43.21875 25.484375 
L 43.21875 27.484375 
z
M 52.203125 31.203125 
L 52.203125 0 
L 43.21875 0 
L 43.21875 8.296875 
Q 40.140625 3.328125 35.546875 0.953125 
Q 30.953125 -1.421875 24.3125 -1.421875 
Q 15.921875 -1.421875 10.953125 3.296875 
Q 6 8.015625 6 15.921875 
Q 6 25.140625 12.171875 29.828125 
Q 18.359375 34.515625 30.609375 34.515625 
L 43.21875 34.515625 
L 43.21875 35.40625 
Q 43.21875 41.609375 39.140625 45 
Q 35.0625 48.390625 27.6875 48.390625 
Q 23 48.390625 18.546875 47.265625 
Q 14.109375 46.140625 10.015625 43.890625 
L 10.015625 52.203125 
Q 14.9375 54.109375 19.578125 55.046875 
Q 24.21875 56 28.609375 56 
Q 40.484375 56 46.34375 49.84375 
Q 52.203125 43.703125 52.203125 31.203125 
z
" id="DejaVuSans-61"/>
      <path d="M 44.28125 53.078125 
L 44.28125 44.578125 
Q 40.484375 46.53125 36.375 47.5 
Q 32.28125 48.484375 27.875 48.484375 
Q 21.1875 48.484375 17.84375 46.4375 
Q 14.5 44.390625 14.5 40.28125 
Q 14.5 37.15625 16.890625 35.375 
Q 19.28125 33.59375 26.515625 31.984375 
L 29.59375 31.296875 
Q 39.15625 29.25 43.1875 25.515625 
Q 47.21875 21.78125 47.21875 15.09375 
Q 47.21875 7.46875 41.1875 3.015625 
Q 35.15625 -1.421875 24.609375 -1.421875 
Q 20.21875 -1.421875 15.453125 -0.5625 
Q 10.6875 0.296875 5.421875 2 
L 5.421875 11.28125 
Q 10.40625 8.6875 15.234375 7.390625 
Q 20.0625 6.109375 24.8125 6.109375 
Q 31.15625 6.109375 34.5625 8.28125 
Q 37.984375 10.453125 37.984375 14.40625 
Q 37.984375 18.0625 35.515625 20.015625 
Q 33.0625 21.96875 24.703125 23.78125 
L 21.578125 24.515625 
Q 13.234375 26.265625 9.515625 29.90625 
Q 5.8125 33.546875 5.8125 39.890625 
Q 5.8125 47.609375 11.28125 51.796875 
Q 16.75 56 26.8125 56 
Q 31.78125 56 36.171875 55.265625 
Q 40.578125 54.546875 44.28125 53.078125 
z
" id="DejaVuSans-73"/>
      <path d="M 25.390625 72.90625 
L 33.6875 72.90625 
L 8.296875 -9.28125 
L 0 -9.28125 
z
" id="DejaVuSans-2f"/>
      <path d="M 45.40625 46.390625 
L 45.40625 75.984375 
L 54.390625 75.984375 
L 54.390625 0 
L 45.40625 0 
L 45.40625 8.203125 
Q 42.578125 3.328125 38.25 0.953125 
Q 33.9375 -1.421875 27.875 -1.421875 
Q 17.96875 -1.421875 11.734375 6.484375 
Q 5.515625 14.40625 5.515625 27.296875 
Q 5.515625 40.1875 11.734375 48.09375 
Q 17.96875 56 27.875 56 
Q 33.9375 56 38.25 53.625 
Q 42.578125 51.265625 45.40625 46.390625 
z
M 14.796875 27.296875 
Q 14.796875 17.390625 18.875 11.75 
Q 22.953125 6.109375 30.078125 6.109375 
Q 37.203125 6.109375 41.296875 11.75 
Q 45.40625 17.390625 45.40625 27.296875 
Q 45.40625 37.203125 41.296875 42.84375 
Q 37.203125 48.484375 30.078125 48.484375 
Q 22.953125 48.484375 18.875 42.84375 
Q 14.796875 37.203125 14.796875 27.296875 
z
" id="DejaVuSans-64"/>
      <path d="M 9.421875 54.6875 
L 18.40625 54.6875 
L 18.40625 0 
L 9.421875 0 
z
M 9.421875 75.984375 
L 18.40625 75.984375 
L 18.40625 64.59375 
L 9.421875 64.59375 
z
" id="DejaVuSans-69"/>
      <path d="M 52 44.1875 
Q 55.375 50.25 60.0625 53.125 
Q 64.75 56 71.09375 56 
Q 79.640625 56 84.28125 50.015625 
Q 88.921875 44.046875 88.921875 33.015625 
L 88.921875 0 
L 79.890625 0 
L 79.890625 32.71875 
Q 79.890625 40.578125 77.09375 44.375 
Q 74.3125 48.1875 68.609375 48.1875 
Q 61.625 48.1875 57.5625 43.546875 
Q 53.515625 38.921875 53.515625 30.90625 
L 53.515625 0 
L 44.484375 0 
L 44.484375 32.71875 
Q 44.484375 40.625 41.703125 44.40625 
Q 38.921875 48.1875 33.109375 48.1875 
Q 26.21875 48.1875 22.15625 43.53125 
Q 18.109375 38.875 18.109375 30.90625 
L 18.109375 0 
L 9.078125 0 
L 9.078125 54.6875 
L 18.109375 54.6875 
L 18.109375 46.1875 
Q 21.1875 51.21875 25.484375 53.609375 
Q 29.78125 56 35.6875 56 
Q 41.65625 56 45.828125 52.96875 
Q 50 49.953125 52 44.1875 
z
" id="DejaVuSans-6d"/>
      <path d="M 54.890625 33.015625 
L 54.890625 0 
L 45.90625 0 
L 45.90625 32.71875 
Q 45.90625 40.484375 42.875 44.328125 
Q 39.84375 48.1875 33.796875 48.1875 
Q 26.515625 48.1875 22.3125 43.546875 
Q 18.109375 38.921875 18.109375 30.90625 
L 18.109375 0 
L 9.078125 0 
L 9.078125 54.6875 
L 18.109375 54.6875 
L 18.109375 46.1875 
Q 21.34375 51.125 25.703125 53.5625 
Q 30.078125 56 35.796875 56 
Q 45.21875 56 50.046875 50.171875 
Q 54.890625 44.34375 54.890625 33.015625 
z
" id="DejaVuSans-6e"/>
      <path d="M 8.015625 75.875 
L 15.828125 75.875 
Q 23.140625 64.359375 26.78125 53.3125 
Q 30.421875 42.28125 30.421875 31.390625 
Q 30.421875 20.453125 26.78125 9.375 
Q 23.140625 -1.703125 15.828125 -13.1875 
L 8.015625 -13.1875 
Q 14.5 -2 17.703125 9.0625 
Q 20.90625 20.125 20.90625 31.390625 
Q 20.90625 42.671875 17.703125 53.65625 
Q 14.5 64.65625 8.015625 75.875 
z
" id="DejaVuSans-29"/>
     </defs>
     <g transform="translate(107.211219 338.153594)scale(0.17 -0.17)">
      <use xlink:href="#DejaVuSans-6c"/>
      <use x="27.783203" xlink:href="#DejaVuSans-6f"/>
      <use x="88.964844" xlink:href="#DejaVuSans-67"/>
      <use x="152.441406" xlink:href="#DejaVuSans-31"/>
      <use x="216.064453" xlink:href="#DejaVuSans-30"/>
      <use x="279.6875" xlink:href="#DejaVuSans-28"/>
      <use x="318.701172" xlink:href="#DejaVuSans-23"/>
      <use x="402.490234" xlink:href="#DejaVuSans-20"/>
      <use x="434.277344" xlink:href="#DejaVuSans-66"/>
      <use x="469.404297" xlink:href="#DejaVuSans-2d"/>
      <use x="505.488281" xlink:href="#DejaVuSans-65"/>
      <use x="567.011719" xlink:href="#DejaVuSans-76"/>
      <use x="626.191406" xlink:href="#DejaVuSans-61"/>
      <use x="687.470703" xlink:href="#DejaVuSans-6c"/>
      <use x="715.253906" xlink:href="#DejaVuSans-73"/>
      <use x="767.353516" xlink:href="#DejaVuSans-20"/>
      <use x="799.140625" xlink:href="#DejaVuSans-2f"/>
      <use x="832.832031" xlink:href="#DejaVuSans-20"/>
      <use x="864.619141" xlink:href="#DejaVuSans-64"/>
      <use x="928.095703" xlink:href="#DejaVuSans-69"/>
      <use x="955.878906" xlink:href="#DejaVuSans-6d"/>
      <use x="1053.291016" xlink:href="#DejaVuSans-65"/>
      <use x="1114.814453" xlink:href="#DejaVuSans-6e"/>
      <use x="1178.193359" xlink:href="#DejaVuSans-73"/>
      <use x="1230.292969" xlink:href="#DejaVuSans-69"/>
      <use x="1258.076172" xlink:href="#DejaVuSans-6f"/>
      <use x="1319.257812" xlink:href="#DejaVuSans-6e"/>
      <use x="1382.636719" xlink:href="#DejaVuSans-29"/>
     </g>
    </g>
   </g>
   <g id="matplotlib.axis_2">
    <g id="ytick_1">
     <g id="line2d_15">
      <path clip-path="url(#p1fef61beab)" d="M 56.12 294.88 
L 399.984 294.88 
" style="fill:none;stroke:#b0b0b0;stroke-linecap:square;stroke-width:0.8;"/>
     </g>
     <g id="line2d_16">
      <defs>
       <path d="M 0 0 
L -3.5 0 
" id="mf57438bf15" style="stroke:#000000;stroke-width:0.8;"/>
      </defs>
      <g>
       <use style="stroke:#000000;stroke-width:0.8;" x="56.12" xlink:href="#mf57438bf15" y="294.88"/>
      </g>
     </g>
     <g id="text_7">
      <!-- 0.0 -->
      <defs>
       <path d="M 10.6875 12.40625 
L 21 12.40625 
L 21 0 
L 10.6875 0 
z
" id="DejaVuSans-2e"/>
      </defs>
      <g transform="translate(23.675 300.95875)scale(0.16 -0.16)">
       <use xlink:href="#DejaVuSans-30"/>
       <use x="63.623047" xlink:href="#DejaVuSans-2e"/>
       <use x="95.410156" xlink:href="#DejaVuSans-30"/>
      </g>
     </g>
    </g>
    <g id="ytick_2">
     <g id="line2d_17">
      <path clip-path="url(#p1fef61beab)" d="M 56.12 241.406733 
L 399.984 241.406733 
" style="fill:none;stroke:#b0b0b0;stroke-linecap:square;stroke-width:0.8;"/>
     </g>
     <g id="line2d_18">
      <g>
       <use style="stroke:#000000;stroke-width:0.8;" x="56.12" xlink:href="#mf57438bf15" y="241.406733"/>
      </g>
     </g>
     <g id="text_8">
      <!-- 0.2 -->
      <g transform="translate(23.675 247.485483)scale(0.16 -0.16)">
       <use xlink:href="#DejaVuSans-30"/>
       <use x="63.623047" xlink:href="#DejaVuSans-2e"/>
       <use x="95.410156" xlink:href="#DejaVuSans-32"/>
      </g>
     </g>
    </g>
    <g id="ytick_3">
     <g id="line2d_19">
      <path clip-path="url(#p1fef61beab)" d="M 56.12 187.933465 
L 399.984 187.933465 
" style="fill:none;stroke:#b0b0b0;stroke-linecap:square;stroke-width:0.8;"/>
     </g>
     <g id="line2d_20">
      <g>
       <use style="stroke:#000000;stroke-width:0.8;" x="56.12" xlink:href="#mf57438bf15" y="187.933465"/>
      </g>
     </g>
     <g id="text_9">
      <!-- 0.4 -->
      <g transform="translate(23.675 194.012215)scale(0.16 -0.16)">
       <use xlink:href="#DejaVuSans-30"/>
       <use x="63.623047" xlink:href="#DejaVuSans-2e"/>
       <use x="95.410156" xlink:href="#DejaVuSans-34"/>
      </g>
     </g>
    </g>
    <g id="ytick_4">
     <g id="line2d_21">
      <path clip-path="url(#p1fef61beab)" d="M 56.12 134.460198 
L 399.984 134.460198 
" style="fill:none;stroke:#b0b0b0;stroke-linecap:square;stroke-width:0.8;"/>
     </g>
     <g id="line2d_22">
      <g>
       <use style="stroke:#000000;stroke-width:0.8;" x="56.12" xlink:href="#mf57438bf15" y="134.460198"/>
      </g>
     </g>
     <g id="text_10">
      <!-- 0.6 -->
      <g transform="translate(23.675 140.538948)scale(0.16 -0.16)">
       <use xlink:href="#DejaVuSans-30"/>
       <use x="63.623047" xlink:href="#DejaVuSans-2e"/>
       <use x="95.410156" xlink:href="#DejaVuSans-36"/>
      </g>
     </g>
    </g>
    <g id="ytick_5">
     <g id="line2d_23">
      <path clip-path="url(#p1fef61beab)" d="M 56.12 80.986931 
L 399.984 80.986931 
" style="fill:none;stroke:#b0b0b0;stroke-linecap:square;stroke-width:0.8;"/>
     </g>
     <g id="line2d_24">
      <g>
       <use style="stroke:#000000;stroke-width:0.8;" x="56.12" xlink:href="#mf57438bf15" y="80.986931"/>
      </g>
     </g>
     <g id="text_11">
      <!-- 0.8 -->
      <g transform="translate(23.675 87.065681)scale(0.16 -0.16)">
       <use xlink:href="#DejaVuSans-30"/>
       <use x="63.623047" xlink:href="#DejaVuSans-2e"/>
       <use x="95.410156" xlink:href="#DejaVuSans-38"/>
      </g>
     </g>
    </g>
    <g id="ytick_6">
     <g id="line2d_25">
      <path clip-path="url(#p1fef61beab)" d="M 56.12 27.513663 
L 399.984 27.513663 
" style="fill:none;stroke:#b0b0b0;stroke-linecap:square;stroke-width:0.8;"/>
     </g>
     <g id="line2d_26">
      <g>
       <use style="stroke:#000000;stroke-width:0.8;" x="56.12" xlink:href="#mf57438bf15" y="27.513663"/>
      </g>
     </g>
     <g id="text_12">
      <!-- 1.0 -->
      <g transform="translate(23.675 33.592413)scale(0.16 -0.16)">
       <use xlink:href="#DejaVuSans-31"/>
       <use x="63.623047" xlink:href="#DejaVuSans-2e"/>
       <use x="95.410156" xlink:href="#DejaVuSans-30"/>
      </g>
     </g>
    </g>
    <g id="text_13">
     <!-- Fraction of function,target pairs -->
     <defs>
      <path d="M 9.8125 72.90625 
L 51.703125 72.90625 
L 51.703125 64.59375 
L 19.671875 64.59375 
L 19.671875 43.109375 
L 48.578125 43.109375 
L 48.578125 34.8125 
L 19.671875 34.8125 
L 19.671875 0 
L 9.8125 0 
z
" id="DejaVuSans-46"/>
      <path d="M 41.109375 46.296875 
Q 39.59375 47.171875 37.8125 47.578125 
Q 36.03125 48 33.890625 48 
Q 26.265625 48 22.1875 43.046875 
Q 18.109375 38.09375 18.109375 28.8125 
L 18.109375 0 
L 9.078125 0 
L 9.078125 54.6875 
L 18.109375 54.6875 
L 18.109375 46.1875 
Q 20.953125 51.171875 25.484375 53.578125 
Q 30.03125 56 36.53125 56 
Q 37.453125 56 38.578125 55.875 
Q 39.703125 55.765625 41.0625 55.515625 
z
" id="DejaVuSans-72"/>
      <path d="M 48.78125 52.59375 
L 48.78125 44.1875 
Q 44.96875 46.296875 41.140625 47.34375 
Q 37.3125 48.390625 33.40625 48.390625 
Q 24.65625 48.390625 19.8125 42.84375 
Q 14.984375 37.3125 14.984375 27.296875 
Q 14.984375 17.28125 19.8125 11.734375 
Q 24.65625 6.203125 33.40625 6.203125 
Q 37.3125 6.203125 41.140625 7.25 
Q 44.96875 8.296875 48.78125 10.40625 
L 48.78125 2.09375 
Q 45.015625 0.34375 40.984375 -0.53125 
Q 36.96875 -1.421875 32.421875 -1.421875 
Q 20.0625 -1.421875 12.78125 6.34375 
Q 5.515625 14.109375 5.515625 27.296875 
Q 5.515625 40.671875 12.859375 48.328125 
Q 20.21875 56 33.015625 56 
Q 37.15625 56 41.109375 55.140625 
Q 45.0625 54.296875 48.78125 52.59375 
z
" id="DejaVuSans-63"/>
      <path d="M 18.3125 70.21875 
L 18.3125 54.6875 
L 36.8125 54.6875 
L 36.8125 47.703125 
L 18.3125 47.703125 
L 18.3125 18.015625 
Q 18.3125 11.328125 20.140625 9.421875 
Q 21.96875 7.515625 27.59375 7.515625 
L 36.8125 7.515625 
L 36.8125 0 
L 27.59375 0 
Q 17.1875 0 13.234375 3.875 
Q 9.28125 7.765625 9.28125 18.015625 
L 9.28125 47.703125 
L 2.6875 47.703125 
L 2.6875 54.6875 
L 9.28125 54.6875 
L 9.28125 70.21875 
z
" id="DejaVuSans-74"/>
      <path d="M 8.5 21.578125 
L 8.5 54.6875 
L 17.484375 54.6875 
L 17.484375 21.921875 
Q 17.484375 14.15625 20.5 10.265625 
Q 23.53125 6.390625 29.59375 6.390625 
Q 36.859375 6.390625 41.078125 11.03125 
Q 45.3125 15.671875 45.3125 23.6875 
L 45.3125 54.6875 
L 54.296875 54.6875 
L 54.296875 0 
L 45.3125 0 
L 45.3125 8.40625 
Q 42.046875 3.421875 37.71875 1 
Q 33.40625 -1.421875 27.6875 -1.421875 
Q 18.265625 -1.421875 13.375 4.4375 
Q 8.5 10.296875 8.5 21.578125 
z
M 31.109375 56 
z
" id="DejaVuSans-75"/>
      <path d="M 11.71875 12.40625 
L 22.015625 12.40625 
L 22.015625 4 
L 14.015625 -11.625 
L 7.71875 -11.625 
L 11.71875 4 
z
" id="DejaVuSans-2c"/>
      <path d="M 18.109375 8.203125 
L 18.109375 -20.796875 
L 9.078125 -20.796875 
L 9.078125 54.6875 
L 18.109375 54.6875 
L 18.109375 46.390625 
Q 20.953125 51.265625 25.265625 53.625 
Q 29.59375 56 35.59375 56 
Q 45.5625 56 51.78125 48.09375 
Q 58.015625 40.1875 58.015625 27.296875 
Q 58.015625 14.40625 51.78125 6.484375 
Q 45.5625 -1.421875 35.59375 -1.421875 
Q 29.59375 -1.421875 25.265625 0.953125 
Q 20.953125 3.328125 18.109375 8.203125 
z
M 48.6875 27.296875 
Q 48.6875 37.203125 44.609375 42.84375 
Q 40.53125 48.484375 33.40625 48.484375 
Q 26.265625 48.484375 22.1875 42.84375 
Q 18.109375 37.203125 18.109375 27.296875 
Q 18.109375 17.390625 22.1875 11.75 
Q 26.265625 6.109375 33.40625 6.109375 
Q 40.53125 6.109375 44.609375 11.75 
Q 48.6875 17.390625 48.6875 27.296875 
z
" id="DejaVuSans-70"/>
     </defs>
     <g transform="translate(16.139531 294.999375)rotate(-90)scale(0.17 -0.17)">
      <use xlink:href="#DejaVuSans-46"/>
      <use x="57.410156" xlink:href="#DejaVuSans-72"/>
      <use x="98.523438" xlink:href="#DejaVuSans-61"/>
      <use x="159.802734" xlink:href="#DejaVuSans-63"/>
      <use x="214.783203" xlink:href="#DejaVuSans-74"/>
      <use x="253.992188" xlink:href="#DejaVuSans-69"/>
      <use x="281.775391" xlink:href="#DejaVuSans-6f"/>
      <use x="342.957031" xlink:href="#DejaVuSans-6e"/>
      <use x="406.335938" xlink:href="#DejaVuSans-20"/>
      <use x="438.123047" xlink:href="#DejaVuSans-6f"/>
      <use x="499.304688" xlink:href="#DejaVuSans-66"/>
      <use x="534.509766" xlink:href="#DejaVuSans-20"/>
      <use x="566.296875" xlink:href="#DejaVuSans-66"/>
      <use x="601.501953" xlink:href="#DejaVuSans-75"/>
      <use x="664.880859" xlink:href="#DejaVuSans-6e"/>
      <use x="728.259766" xlink:href="#DejaVuSans-63"/>
      <use x="783.240234" xlink:href="#DejaVuSans-74"/>
      <use x="822.449219" xlink:href="#DejaVuSans-69"/>
      <use x="850.232422" xlink:href="#DejaVuSans-6f"/>
      <use x="911.414062" xlink:href="#DejaVuSans-6e"/>
      <use x="974.792969" xlink:href="#DejaVuSans-2c"/>
      <use x="1006.580078" xlink:href="#DejaVuSans-74"/>
      <use x="1045.789062" xlink:href="#DejaVuSans-61"/>
      <use x="1107.068359" xlink:href="#DejaVuSans-72"/>
      <use x="1148.166016" xlink:href="#DejaVuSans-67"/>
      <use x="1211.642578" xlink:href="#DejaVuSans-65"/>
      <use x="1273.166016" xlink:href="#DejaVuSans-74"/>
      <use x="1312.375" xlink:href="#DejaVuSans-20"/>
      <use x="1344.162109" xlink:href="#DejaVuSans-70"/>
      <use x="1407.638672" xlink:href="#DejaVuSans-61"/>
      <use x="1468.917969" xlink:href="#DejaVuSans-69"/>
      <use x="1496.701172" xlink:href="#DejaVuSans-72"/>
      <use x="1537.814453" xlink:href="#DejaVuSans-73"/>
     </g>
    </g>
   </g>
   <g id="line2d_27">
    <defs>
     <path d="M 0 1.5 
C 0.397805 1.5 0.77937 1.341951 1.06066 1.06066 
C 1.341951 0.77937 1.5 0.397805 1.5 0 
C 1.5 -0.397805 1.341951 -0.77937 1.06066 -1.06066 
C 0.77937 -1.341951 0.397805 -1.5 0 -1.5 
C -0.397805 -1.5 -0.77937 -1.341951 -1.06066 -1.06066 
C -1.341951 -0.77937 -1.5 -0.397805 -1.5 0 
C -1.5 0.397805 -1.341951 0.77937 -1.06066 1.06066 
C -0.77937 1.341951 -0.397805 1.5 0 1.5 
z
" id="m8967fff4d5" style="stroke:#f5deb3;"/>
    </defs>
    <g>
     <use style="fill:#f5deb3;stroke:#f5deb3;" x="190.3911" xlink:href="#m8967fff4d5" y="27.513663"/>
     <use style="fill:#f5deb3;stroke:#f5deb3;" x="190.3911" xlink:href="#m8967fff4d5" y="27.513663"/>
    </g>
   </g>
   <g id="line2d_28">
    <defs>
     <path d="M 0 1.5 
C 0.397805 1.5 0.77937 1.341951 1.06066 1.06066 
C 1.341951 0.77937 1.5 0.397805 1.5 0 
C 1.5 -0.397805 1.341951 -0.77937 1.06066 -1.06066 
C 0.77937 -1.341951 0.397805 -1.5 0 -1.5 
C -0.397805 -1.5 -0.77937 -1.341951 -1.06066 -1.06066 
C -1.341951 -0.77937 -1.5 -0.397805 -1.5 0 
C -1.5 0.397805 -1.341951 0.77937 -1.06066 1.06066 
C -0.77937 1.341951 -0.397805 1.5 0 1.5 
z
" id="m694253234f" style="stroke:#000080;"/>
    </defs>
    <g>
     <use style="fill:#000080;stroke:#000080;" x="360.312454" xlink:href="#m694253234f" y="169.060547"/>
     <use style="fill:#000080;stroke:#000080;" x="360.312454" xlink:href="#m694253234f" y="169.060547"/>
    </g>
   </g>
   <g id="line2d_29">
    <path d="M 28.429836 294.88 
L 28.429836 289.113275 
L 40.355341 289.113275 
L 40.355341 288.06478 
L 47.331314 288.06478 
L 47.331314 287.540532 
L 52.280845 287.540532 
L 52.280845 287.016284 
L 56.12 287.016284 
L 56.12 285.443541 
L 66.232791 285.443541 
L 66.232791 284.919293 
L 76.131854 284.919293 
L 76.131854 284.395046 
L 78.158295 284.395046 
L 78.158295 283.870798 
L 79.088515 283.870798 
L 79.088515 283.34655 
L 82.375594 283.34655 
L 82.375594 282.298055 
L 89.100397 282.298055 
L 89.100397 280.725312 
L 89.599124 280.725312 
L 89.599124 279.676816 
L 90.0838 279.676816 
L 90.0838 277.579825 
L 90.555195 277.579825 
L 90.555195 277.055578 
L 93.922955 277.055578 
L 93.922955 276.53133 
L 95.735668 276.53133 
L 95.735668 276.007082 
L 98.872486 276.007082 
L 98.872486 275.482834 
L 100.24961 275.482834 
L 100.24961 274.958587 
L 101.277072 274.958587 
L 101.277072 274.434339 
L 101.768673 274.434339 
L 101.768673 273.910091 
L 106.596615 273.910091 
L 106.596615 273.385844 
L 107.488258 273.385844 
L 107.488258 272.337348 
L 108.169728 272.337348 
L 108.169728 271.288853 
L 111.908367 271.288853 
L 111.908367 270.240357 
L 114.977847 270.240357 
L 114.977847 269.716109 
L 115.421868 269.716109 
L 115.421868 269.191862 
L 115.96125 269.191862 
L 115.96125 268.143366 
L 118.058348 268.143366 
L 118.058348 267.619119 
L 118.338108 267.619119 
L 118.338108 267.094871 
L 120.261464 267.094871 
L 120.261464 266.046375 
L 120.750735 266.046375 
L 120.750735 264.99788 
L 123.425832 264.99788 
L 123.425832 264.473632 
L 125.619682 264.473632 
L 125.619682 263.949385 
L 125.860313 263.949385 
L 125.860313 262.900889 
L 130.124301 262.900889 
L 130.124301 262.376641 
L 133.652941 262.376641 
L 133.652941 261.852394 
L 134.862727 261.852394 
L 134.862727 261.328146 
L 146.175638 261.328146 
L 146.175638 260.803898 
L 148.067042 260.803898 
L 148.067042 260.279651 
L 150.513729 260.279651 
L 150.513729 259.755403 
L 151.443198 259.755403 
L 151.443198 258.706907 
L 156.396105 258.706907 
L 156.396105 258.18266 
L 170.231767 258.18266 
L 170.231767 257.658412 
L 170.718709 257.658412 
L 170.718709 257.134164 
L 172.463898 257.134164 
L 172.463898 256.085669 
L 184.626551 256.085669 
L 184.626551 255.561421 
L 184.903018 255.561421 
L 184.916533 254.512926 
L 197.348812 254.512926 
L 197.348812 253.46443 
L 202.919426 253.46443 
L 202.919426 252.940182 
L 203.899515 252.940182 
L 203.899515 251.367439 
L 210.604458 251.367439 
L 210.604458 250.843192 
L 211.411686 250.843192 
L 211.411686 250.318944 
L 212.03653 250.318944 
L 212.03653 249.794696 
L 223.448128 249.794696 
L 223.530352 247.173458 
L 224.547055 247.173458 
L 224.613258 246.124962 
L 226.870961 246.124962 
L 226.882244 243.503724 
L 229.029211 243.503724 
L 229.036937 242.455228 
L 229.814486 242.455228 
L 229.814486 241.93098 
L 230.668862 241.93098 
L 230.668862 241.406733 
L 233.256928 241.406733 
L 233.353356 238.785494 
L 235.801242 238.785494 
L 235.801242 237.736999 
L 236.004045 237.736999 
L 236.004045 237.212751 
L 238.811452 237.212751 
L 238.811452 236.688503 
L 239.089599 236.688503 
L 239.127979 233.543017 
L 241.61689 233.543017 
L 241.61689 232.494521 
L 241.728842 232.494521 
L 241.768077 231.446026 
L 244.414265 231.446026 
L 244.414265 230.397531 
L 245.849308 230.397531 
L 245.849308 229.873283 
L 246.144938 229.873283 
L 246.144938 229.349035 
L 248.804512 229.349035 
L 248.813126 228.30054 
L 249.879204 228.30054 
L 249.879204 227.252044 
L 250.751299 227.252044 
L 250.752686 225.679301 
L 251.700049 225.679301 
L 251.700049 225.155053 
L 258.714559 225.155053 
L 258.764032 222.533815 
L 262.613623 222.533815 
L 262.613623 222.009567 
L 265.023743 222.009567 
L 265.032782 219.388328 
L 269.398793 219.388328 
L 269.403159 217.291338 
L 270.477047 217.291338 
L 270.477047 215.718594 
L 271.750538 215.718594 
L 271.752436 213.621604 
L 271.968189 213.621604 
L 271.968189 213.097356 
L 272.313691 213.097356 
L 272.334089 211.000365 
L 272.782742 211.000365 
L 272.782742 209.95187 
L 274.404243 209.95187 
L 274.405285 208.379126 
L 276.527826 208.379126 
L 276.527826 207.854879 
L 278.225424 207.854879 
L 278.225424 206.806383 
L 282.343578 206.806383 
L 282.348872 203.136649 
L 284.402202 203.136649 
L 284.402202 201.563906 
L 284.67065 201.563906 
L 284.693338 199.466915 
L 287.440976 199.466915 
L 287.440976 198.942667 
L 287.677868 198.942667 
L 287.677868 198.41842 
L 287.864814 198.41842 
L 287.864814 197.894172 
L 288.717301 197.894172 
L 288.717301 197.369924 
L 292.635066 197.369924 
L 292.635066 196.845677 
L 293.30779 196.845677 
L 293.30779 196.321429 
L 295.241145 196.321429 
L 295.241145 195.797181 
L 295.970428 195.797181 
L 295.970428 195.272933 
L 296.414517 195.272933 
L 296.414517 194.748686 
L 296.772348 194.748686 
L 296.772944 193.175943 
L 298.073385 193.175943 
L 298.154371 192.127447 
L 298.648732 192.127447 
L 298.648732 191.603199 
L 299.603726 191.603199 
L 299.653521 190.030456 
L 300.971607 190.030456 
L 300.971653 188.981961 
L 301.669356 188.981961 
L 301.776625 187.933465 
L 302.943863 187.933465 
L 303.004935 185.836474 
L 306.849183 185.836474 
L 306.851513 184.787979 
L 307.282998 184.787979 
L 307.282998 184.263731 
L 308.90572 184.263731 
L 308.905854 183.215236 
L 309.671541 183.215236 
L 309.687928 181.642493 
L 310.111698 181.642493 
L 310.111699 180.593997 
L 310.951586 180.593997 
L 310.951586 180.06975 
L 315.434033 180.06975 
L 315.445733 179.021254 
L 315.794089 179.021254 
L 315.794089 178.497006 
L 320.461939 178.497006 
L 320.467705 176.924263 
L 323.186278 176.924263 
L 323.186278 176.400016 
L 323.734746 176.400016 
L 323.734746 175.875768 
L 326.250929 175.875768 
L 326.250929 175.35152 
L 328.65977 175.35152 
L 328.65977 174.827272 
L 333.429677 174.827272 
L 333.429677 174.827272 
" style="fill:none;stroke:#000080;stroke-linecap:square;stroke-width:1.5;"/>
   </g>
   <g id="line2d_30">
    <defs>
     <path d="M 0 6 
C 1.591219 6 3.117479 5.367802 4.242641 4.242641 
C 5.367802 3.117479 6 1.591219 6 0 
C 6 -1.591219 5.367802 -3.117479 4.242641 -4.242641 
C 3.117479 -5.367802 1.591219 -6 0 -6 
C -1.591219 -6 -3.117479 -5.367802 -4.242641 -4.242641 
C -5.367802 -3.117479 -6 -1.591219 -6 0 
C -6 1.591219 -5.367802 3.117479 -4.242641 4.242641 
C -3.117479 5.367802 -1.591219 6 0 6 
z
" id="mfba65d839d" style="stroke:#000080;stroke-width:1.5;"/>
    </defs>
    <g>
     <use style="fill-opacity:0;stroke:#000080;stroke-width:1.5;" x="93.922955" xlink:href="#mfba65d839d" y="276.53133"/>
     <use style="fill-opacity:0;stroke:#000080;stroke-width:1.5;" x="172.463898" xlink:href="#mfba65d839d" y="256.085669"/>
     <use style="fill-opacity:0;stroke:#000080;stroke-width:1.5;" x="245.849308" xlink:href="#mfba65d839d" y="230.397531"/>
     <use style="fill-opacity:0;stroke:#000080;stroke-width:1.5;" x="307.282998" xlink:href="#mfba65d839d" y="184.263731"/>
     <use style="fill-opacity:0;stroke:#000080;stroke-width:1.5;" x="328.65977" xlink:href="#mfba65d839d" y="174.827272"/>
     <use style="fill-opacity:0;stroke:#000080;stroke-width:1.5;" x="333.429677" xlink:href="#mfba65d839d" y="174.827272"/>
    </g>
   </g>
   <g id="line2d_31">
    <path style="fill:none;stroke:#000080;stroke-linecap:square;stroke-width:1.5;"/>
    <g/>
   </g>
   <g id="line2d_32">
    <path clip-path="url(#p1fef61beab)" d="M 293.814075 196.321429 
" style="fill:none;stroke:#000080;stroke-linecap:square;stroke-width:1.5;"/>
    <defs>
     <path d="M -12 12 
L 12 -12 
M -12 -12 
L 12 12 
" id="mf2ba0bcbae" style="stroke:#000080;stroke-width:3;"/>
    </defs>
    <g clip-path="url(#p1fef61beab)">
     <use style="fill:#000080;stroke:#000080;stroke-width:3;" x="293.814075" xlink:href="#mf2ba0bcbae" y="196.321429"/>
    </g>
   </g>
   <g id="line2d_33">
    <defs>
     <path d="M 0 1.5 
C 0.397805 1.5 0.77937 1.341951 1.06066 1.06066 
C 1.341951 0.77937 1.5 0.397805 1.5 0 
C 1.5 -0.397805 1.341951 -0.77937 1.06066 -1.06066 
C 0.77937 -1.341951 0.397805 -1.5 0 -1.5 
C -0.397805 -1.5 -0.77937 -1.341951 -1.06066 -1.06066 
C -1.341951 -0.77937 -1.5 -0.397805 -1.5 0 
C -1.5 0.397805 -1.341951 0.77937 -1.06066 1.06066 
C -0.77937 1.341951 -0.397805 1.5 0 1.5 
z
" id="md4efb33b79" style="stroke:#ff00ff;"/>
    </defs>
    <g>
     <use style="fill:#ff00ff;stroke:#ff00ff;" x="327.212403" xlink:href="#md4efb33b79" y="32.756141"/>
     <use style="fill:#ff00ff;stroke:#ff00ff;" x="327.212403" xlink:href="#md4efb33b79" y="32.756141"/>
    </g>
   </g>
   <g id="line2d_34">
    <path d="M 28.429836 294.88 
L 28.429836 291.734514 
L 40.355341 291.734514 
L 40.355341 282.822302 
L 47.331314 282.822302 
L 47.331314 280.725312 
L 52.280845 280.725312 
L 52.280845 279.676816 
L 56.12 279.676816 
L 56.12 279.152568 
L 59.256818 279.152568 
L 59.256818 278.628321 
L 61.90896 278.628321 
L 61.90896 278.104073 
L 68.045504 278.104073 
L 68.045504 277.579825 
L 71.182322 277.579825 
L 71.182322 277.055578 
L 73.834464 277.055578 
L 73.834464 276.53133 
L 75.021477 276.53133 
L 75.021477 276.007082 
L 79.088515 276.007082 
L 79.088515 275.482834 
L 79.971009 275.482834 
L 79.971009 274.958587 
L 82.375594 274.958587 
L 82.375594 274.434339 
L 87.511126 274.434339 
L 87.511126 273.385844 
L 93.140781 273.385844 
L 93.140781 272.861596 
L 93.536312 272.861596 
L 93.536312 272.337348 
L 93.922955 272.337348 
L 93.922955 271.288853 
L 94.301099 271.288853 
L 94.301099 270.240357 
L 102.939523 270.240357 
L 102.939523 269.191862 
L 114.522062 269.191862 
L 114.522062 268.143366 
L 117.091528 268.143366 
L 117.091528 267.619119 
L 117.581728 267.619119 
L 117.581728 267.094871 
L 119.06263 267.094871 
L 119.06263 264.99788 
L 121.689415 264.99788 
L 121.689415 263.949385 
L 124.940047 263.949385 
L 124.940047 262.376641 
L 138.488154 262.376641 
L 138.488154 261.852394 
L 143.351446 261.852394 
L 143.351446 261.328146 
L 148.132647 261.328146 
L 148.132647 258.706907 
L 149.226646 258.706907 
L 149.226646 258.18266 
L 153.951981 258.18266 
L 153.951981 257.134164 
L 161.976942 257.134164 
L 161.976942 256.085669 
L 166.825511 256.085669 
L 166.825511 255.561421 
L 168.60284 255.561421 
L 168.60284 255.037173 
L 172.618416 255.037173 
L 172.697121 253.988678 
L 179.163046 253.988678 
L 179.163046 252.940182 
L 179.87347 252.940182 
L 179.87347 251.891687 
L 185.249097 251.891687 
L 185.249097 249.794696 
L 189.428248 249.794696 
L 189.428248 249.270448 
L 190.782515 249.270448 
L 190.782515 247.697705 
L 191.472497 247.697705 
L 191.472497 247.173458 
L 199.259624 247.173458 
L 199.259624 246.124962 
L 200.783173 246.124962 
L 200.783173 245.076467 
L 202.756668 245.076467 
L 202.756668 243.503724 
L 204.041067 243.503724 
L 204.041067 242.979476 
L 204.919338 242.979476 
L 204.919338 241.406733 
L 205.889495 241.406733 
L 205.889495 240.358237 
L 212.529716 240.358237 
L 212.529716 239.309742 
L 215.363012 239.309742 
L 215.363012 238.785494 
L 217.734968 238.785494 
L 217.734968 237.736999 
L 221.079474 237.736999 
L 221.079474 237.212751 
L 221.491991 237.212751 
L 221.491991 236.164255 
L 222.242033 236.164255 
L 222.242033 235.640008 
L 223.42468 235.640008 
L 223.42468 235.11576 
L 224.049785 235.11576 
L 224.049785 234.591512 
L 224.572103 234.591512 
L 224.572103 234.067265 
L 224.763003 234.067265 
L 224.763003 233.543017 
L 225.105183 233.543017 
L 225.105183 233.018769 
L 225.247394 233.018769 
L 225.247394 232.494521 
L 225.37264 232.494521 
L 225.37264 230.921778 
L 225.778937 230.921778 
L 225.809783 229.873283 
L 226.028239 229.873283 
L 226.091987 224.106558 
L 226.46856 224.106558 
L 226.46856 223.58231 
L 226.750938 223.58231 
L 226.750938 222.533815 
L 226.974253 222.533815 
L 227.037266 220.961072 
L 227.603439 220.961072 
L 227.690877 218.339833 
L 227.829733 218.339833 
L 227.842474 216.242842 
L 228.075406 216.242842 
L 228.075406 215.718594 
L 228.508907 215.718594 
L 228.508907 215.194347 
L 229.797299 215.194347 
L 229.797299 213.621604 
L 229.908495 213.621604 
L 229.908495 213.097356 
L 230.157308 213.097356 
L 230.266348 212.04886 
L 230.409707 212.04886 
L 230.471037 208.903374 
L 231.161968 208.903374 
L 231.161968 207.330631 
L 231.560074 207.330631 
L 231.560074 206.806383 
L 232.074497 206.806383 
L 232.133034 205.757888 
L 232.225095 205.757888 
L 232.225095 204.709392 
L 232.489611 204.709392 
L 232.489611 203.660897 
L 232.813088 203.660897 
L 232.813088 202.088154 
L 233.374724 202.088154 
L 233.374724 201.563906 
L 233.868203 201.563906 
L 233.891406 200.515411 
L 234.05118 200.515411 
L 234.05118 199.466915 
L 234.175913 199.466915 
L 234.175913 198.942667 
L 234.288259 198.942667 
L 234.288259 198.41842 
L 234.846233 198.41842 
L 234.864662 195.272933 
L 235.006661 195.272933 
L 235.006661 194.748686 
L 235.120612 194.748686 
L 235.159885 193.70019 
L 235.26466 193.70019 
L 235.26466 193.175943 
L 236.142583 193.175943 
L 236.179594 192.127447 
L 236.552394 192.127447 
L 236.552394 191.603199 
L 237.329819 191.603199 
L 237.329819 189.506209 
L 237.555986 189.506209 
L 237.63898 185.836474 
L 237.718436 185.836474 
L 237.718436 185.312227 
L 238.87395 185.312227 
L 238.87395 184.263731 
L 239.759538 184.263731 
L 239.759538 183.739484 
L 240.515091 183.739484 
L 240.515091 183.215236 
L 240.900764 183.215236 
L 240.900764 182.16674 
L 241.977909 182.16674 
L 241.977909 181.118245 
L 242.152187 181.118245 
L 242.152187 180.593997 
L 243.724864 180.593997 
L 243.724864 179.545502 
L 244.673352 179.545502 
L 244.673352 178.497006 
L 257.316826 178.497006 
L 257.316826 177.972759 
L 257.66599 177.972759 
L 257.772325 175.875768 
L 257.804918 175.875768 
L 257.804918 175.35152 
L 258.120265 175.35152 
L 258.120265 174.303025 
L 258.376578 174.303025 
L 258.376578 173.778777 
L 258.73445 173.778777 
L 258.73445 173.254529 
L 258.857198 173.254529 
L 258.956414 171.681786 
L 259.013027 171.681786 
L 259.013027 171.157538 
L 259.130427 171.157538 
L 259.194272 169.584795 
L 259.298042 169.584795 
L 259.372914 168.012052 
L 259.42655 168.012052 
L 259.532769 166.963557 
L 259.802962 166.963557 
L 259.838402 164.342318 
L 260.088462 164.342318 
L 260.165697 162.769575 
L 260.42733 162.769575 
L 260.42733 161.721079 
L 260.778652 161.721079 
L 260.786209 160.672584 
L 261.125222 160.672584 
L 261.125222 160.148336 
L 261.708374 160.148336 
L 261.708374 159.624089 
L 262.054134 159.624089 
L 262.05834 158.051345 
L 262.903989 158.051345 
L 262.903989 157.527098 
L 263.900033 157.527098 
L 263.900033 157.00285 
L 267.872317 157.00285 
L 267.953535 154.905859 
L 268.053976 154.905859 
L 268.14322 153.857364 
L 268.166734 153.857364 
L 268.191483 152.808868 
L 268.281688 152.808868 
L 268.281688 152.28462 
L 268.572509 152.28462 
L 268.572509 151.760373 
L 268.774739 151.760373 
L 268.777305 150.711877 
L 268.892921 150.711877 
L 268.999049 148.614886 
L 269.022571 148.614886 
L 269.022571 147.566391 
L 269.191648 147.566391 
L 269.191648 147.042143 
L 269.460834 147.042143 
L 269.510872 144.945152 
L 269.651164 144.945152 
L 269.651164 144.420905 
L 269.823226 144.420905 
L 269.823226 143.896657 
L 270.08747 143.896657 
L 270.15495 142.848162 
L 270.244699 142.848162 
L 270.320413 140.751171 
L 270.527003 140.751171 
L 270.527003 139.702675 
L 270.862296 139.702675 
L 270.951207 138.129932 
L 271.048838 138.129932 
L 271.048838 137.605684 
L 271.675992 137.605684 
L 271.675992 137.081437 
L 274.553405 137.081437 
L 274.639906 135.508693 
L 274.792319 135.508693 
L 274.842839 133.93595 
L 274.935241 133.93595 
L 274.935241 133.411703 
L 275.090569 133.411703 
L 275.158386 131.838959 
L 275.220452 131.838959 
L 275.225967 130.266216 
L 275.337553 130.266216 
L 275.415958 129.217721 
L 275.44879 129.217721 
L 275.44879 128.693473 
L 275.574636 128.693473 
L 275.574636 127.644978 
L 275.909872 127.644978 
L 275.909872 127.12073 
L 276.41906 127.12073 
L 276.483477 125.023739 
L 276.554317 125.023739 
L 276.554317 124.499491 
L 278.936116 124.499491 
L 278.936116 123.975244 
L 279.148333 123.975244 
L 279.234114 122.4025 
L 279.459312 122.4025 
L 279.459312 121.878253 
L 279.580218 121.878253 
L 279.680356 119.257014 
L 279.935841 119.257014 
L 279.993662 117.160023 
L 280.177192 117.160023 
L 280.214764 116.111528 
L 280.421642 116.111528 
L 280.423089 114.538785 
L 280.612527 114.538785 
L 280.66303 113.490289 
L 282.856498 113.490289 
L 282.963976 111.393298 
L 282.982656 111.393298 
L 283.040287 109.820555 
L 283.109659 109.820555 
L 283.218904 107.723564 
L 283.42718 107.723564 
L 283.42718 106.675069 
L 283.567742 106.675069 
L 283.567742 105.626573 
L 283.696221 105.626573 
L 283.730906 104.05383 
L 283.981563 104.05383 
L 283.981563 103.005335 
L 285.859687 103.005335 
L 285.902582 101.956839 
L 286.083678 101.956839 
L 286.152359 100.384096 
L 286.214489 100.384096 
L 286.214489 99.859849 
L 286.36805 99.859849 
L 286.393625 98.287105 
L 286.494966 98.287105 
L 286.521 97.23861 
L 288.3534 97.23861 
L 288.3534 96.714362 
L 288.598398 96.714362 
L 288.664385 95.141619 
L 288.77619 95.141619 
L 288.77619 94.617371 
L 288.912744 94.617371 
L 289.007007 93.044628 
L 289.217027 93.044628 
L 289.281445 91.471885 
L 290.819255 91.471885 
L 290.844258 90.42339 
L 290.978256 90.42339 
L 291.069014 89.374894 
L 291.125626 89.374894 
L 291.125626 88.850646 
L 292.577043 88.850646 
L 292.638212 87.802151 
L 292.854653 87.802151 
L 292.948422 86.229408 
L 293.079465 86.229408 
L 293.079465 85.70516 
L 293.276538 85.70516 
L 293.276538 85.180912 
L 294.340091 85.180912 
L 294.340091 84.656665 
L 294.476166 84.656665 
L 294.526962 83.083922 
L 294.590859 83.083922 
L 294.675649 81.511178 
L 294.843632 81.511178 
L 294.94844 80.462683 
L 296.109515 80.462683 
L 296.109515 79.938435 
L 296.231728 79.938435 
L 296.302422 78.88994 
L 297.558683 78.88994 
L 297.612273 77.841444 
L 297.670171 77.841444 
L 297.711136 76.268701 
L 297.783042 76.268701 
L 297.824584 75.220206 
L 298.823622 75.220206 
L 298.924866 73.123215 
L 298.998393 73.123215 
L 299.071968 71.550472 
L 299.141382 71.550472 
L 299.241999 70.501976 
L 300.232148 70.501976 
L 300.328688 67.880738 
L 301.295276 67.880738 
L 301.392583 66.832242 
L 301.435036 66.832242 
L 301.460558 65.259499 
L 302.349218 65.259499 
L 302.416452 63.162508 
L 302.491281 63.162508 
L 302.534159 62.114013 
L 302.630153 62.114013 
L 302.659723 61.065517 
L 303.47501 61.065517 
L 303.585345 58.968526 
L 303.648478 58.968526 
L 303.648478 58.444279 
L 304.358055 58.444279 
L 304.433824 56.347288 
L 304.537603 56.347288 
L 304.611189 54.774545 
L 305.290056 54.774545 
L 305.391802 52.153306 
L 305.403405 52.153306 
L 305.413234 51.104811 
L 306.203578 51.104811 
L 306.29724 49.00782 
L 306.363685 49.00782 
L 306.363685 48.483572 
L 307.114177 48.483572 
L 307.165315 47.435077 
L 307.76363 47.435077 
L 307.76363 46.910829 
L 307.89349 46.910829 
L 307.932326 45.862334 
L 308.557125 45.862334 
L 308.56417 44.813838 
L 309.971193 44.813838 
L 309.971193 44.28959 
L 310.600295 44.28959 
L 310.600295 43.765343 
L 311.83419 43.765343 
L 311.846451 42.716847 
L 312.441787 42.716847 
L 312.49268 41.668352 
L 313.005755 41.668352 
L 313.005755 41.144104 
L 313.149309 41.144104 
L 313.149309 40.619856 
L 314.625872 40.619856 
L 314.625872 40.095609 
L 316.099371 40.095609 
L 316.099371 39.571361 
L 316.660368 39.571361 
L 316.660368 39.047113 
L 317.899895 39.047113 
L 317.901107 37.998618 
L 318.747298 37.998618 
L 318.787625 36.950122 
L 319.515142 36.950122 
L 319.539963 35.901627 
L 319.96565 35.901627 
L 320.000564 34.853131 
L 321.714581 34.853131 
L 321.714581 34.328884 
L 325.176533 34.328884 
L 325.176533 33.804636 
L 325.393226 33.804636 
L 325.393226 33.280388 
L 327.212403 33.280388 
L 327.212403 32.756141 
L 333.429677 32.756141 
L 333.429677 32.756141 
" style="fill:none;stroke:#ff00ff;stroke-linecap:square;stroke-width:1.5;"/>
   </g>
   <g id="line2d_35">
    <defs>
     <path d="M -0 8.485281 
L 5.091169 0 
L 0 -8.485281 
L -5.091169 -0 
z
" id="m03fc954047" style="stroke:#ff00ff;stroke-linejoin:miter;stroke-width:1.5;"/>
    </defs>
    <g>
     <use style="fill-opacity:0;stroke:#ff00ff;stroke-linejoin:miter;stroke-width:1.5;" x="79.971009" xlink:href="#m03fc954047" y="274.958587"/>
     <use style="fill-opacity:0;stroke:#ff00ff;stroke-linejoin:miter;stroke-width:1.5;" x="191.472497" xlink:href="#m03fc954047" y="247.697705"/>
     <use style="fill-opacity:0;stroke:#ff00ff;stroke-linejoin:miter;stroke-width:1.5;" x="244.673352" xlink:href="#m03fc954047" y="179.545502"/>
     <use style="fill-opacity:0;stroke:#ff00ff;stroke-linejoin:miter;stroke-width:1.5;" x="291.125626" xlink:href="#m03fc954047" y="88.850646"/>
     <use style="fill-opacity:0;stroke:#ff00ff;stroke-linejoin:miter;stroke-width:1.5;" x="327.212403" xlink:href="#m03fc954047" y="32.756141"/>
     <use style="fill-opacity:0;stroke:#ff00ff;stroke-linejoin:miter;stroke-width:1.5;" x="333.429677" xlink:href="#m03fc954047" y="32.756141"/>
    </g>
   </g>
   <g id="line2d_36">
    <path style="fill:none;stroke:#ff00ff;stroke-linecap:square;stroke-width:1.5;"/>
    <g/>
   </g>
   <g id="line2d_37">
    <path clip-path="url(#p1fef61beab)" d="M 254.270861 178.497006 
" style="fill:none;stroke:#ff00ff;stroke-linecap:square;stroke-width:1.5;"/>
    <defs>
     <path d="M -12 12 
L 12 -12 
M -12 -12 
L 12 12 
" id="m13d03f397f" style="stroke:#ff00ff;stroke-width:3;"/>
    </defs>
    <g clip-path="url(#p1fef61beab)">
     <use style="fill:#ff00ff;stroke:#ff00ff;stroke-width:3;" x="254.270861" xlink:href="#m13d03f397f" y="178.497006"/>
    </g>
   </g>
   <g id="line2d_38">
    <defs>
     <path d="M 0 1.5 
C 0.397805 1.5 0.77937 1.341951 1.06066 1.06066 
C 1.341951 0.77937 1.5 0.397805 1.5 0 
C 1.5 -0.397805 1.341951 -0.77937 1.06066 -1.06066 
C 0.77937 -1.341951 0.397805 -1.5 0 -1.5 
C -0.397805 -1.5 -0.77937 -1.341951 -1.06066 -1.06066 
C -1.341951 -0.77937 -1.5 -0.397805 -1.5 0 
C -1.5 0.397805 -1.341951 0.77937 -1.06066 1.06066 
C -0.77937 1.341951 -0.397805 1.5 0 1.5 
z
" id="m7816144c29" style="stroke:#ffa500;"/>
    </defs>
    <g>
     <use style="fill:#ffa500;stroke:#ffa500;" x="289.224348" xlink:href="#m7816144c29" y="221.485319"/>
     <use style="fill:#ffa500;stroke:#ffa500;" x="289.224348" xlink:href="#m7816144c29" y="221.485319"/>
    </g>
   </g>
   <g id="line2d_39">
    <path d="M 28.429836 294.88 
L 28.429836 290.686018 
L 40.355341 290.686018 
L 40.355341 288.589027 
L 47.331314 288.589027 
L 47.331314 287.540532 
L 52.280845 287.540532 
L 52.280845 286.492036 
L 61.90896 286.492036 
L 61.90896 285.967789 
L 64.20635 285.967789 
L 64.20635 285.443541 
L 66.232791 285.443541 
L 66.232791 284.395046 
L 68.045504 284.395046 
L 68.045504 283.870798 
L 71.182322 283.870798 
L 71.182322 281.773807 
L 72.559446 281.773807 
L 72.559446 281.249559 
L 75.021477 281.249559 
L 75.021477 280.725312 
L 79.971009 280.725312 
L 79.971009 279.676816 
L 83.810164 279.676816 
L 83.810164 279.152568 
L 85.134268 279.152568 
L 85.134268 278.628321 
L 91.460924 278.628321 
L 91.460924 278.104073 
L 92.735942 278.104073 
L 92.735942 277.579825 
L 98.583322 277.579825 
L 98.583322 277.055578 
L 99.711914 277.055578 
L 99.711914 276.53133 
L 134.862727 276.53133 
L 134.862727 276.007082 
L 135.316892 276.007082 
L 135.385712 273.910091 
L 137.484499 273.910091 
L 137.484499 273.385844 
L 139.97083 273.385844 
L 139.97083 271.8131 
L 145.057923 271.8131 
L 145.057923 271.288853 
L 145.406682 271.288853 
L 145.406682 270.240357 
L 145.935523 270.240357 
L 145.935523 269.191862 
L 149.272669 269.191862 
L 149.364347 267.094871 
L 149.606459 267.094871 
L 149.606459 266.570623 
L 159.382055 266.570623 
L 159.382055 266.046375 
L 164.082919 266.046375 
L 164.082919 264.99788 
L 171.290524 264.99788 
L 171.290524 263.425137 
L 171.430557 263.425137 
L 171.430557 262.900889 
L 173.26861 262.900889 
L 173.295175 261.852394 
L 177.726953 261.852394 
L 177.726953 261.328146 
L 177.89031 261.328146 
L 177.89031 260.279651 
L 181.274062 260.279651 
L 181.274062 259.755403 
L 181.527375 259.755403 
L 181.527375 258.706907 
L 181.954444 258.706907 
L 181.954444 258.18266 
L 183.746742 258.18266 
L 183.746742 257.658412 
L 189.78094 257.658412 
L 189.78094 257.134164 
L 193.085908 257.134164 
L 193.085908 256.609917 
L 195.400544 256.609917 
L 195.400544 255.561421 
L 195.818287 255.561421 
L 195.818287 255.037173 
L 197.994278 255.037173 
L 197.994278 254.512926 
L 201.499379 254.512926 
L 201.499379 253.988678 
L 205.232059 253.988678 
L 205.237984 251.367439 
L 209.452346 251.367439 
L 209.452346 250.318944 
L 216.509728 250.318944 
L 216.603302 248.746201 
L 216.934216 248.746201 
L 216.934216 248.221953 
L 222.461751 248.221953 
L 222.465886 246.124962 
L 225.763134 246.124962 
L 225.763134 245.600714 
L 230.89673 245.600714 
L 230.898996 244.027971 
L 232.99082 244.027971 
L 232.991056 242.979476 
L 236.530885 242.979476 
L 236.532038 241.93098 
L 237.287666 241.93098 
L 237.287666 241.406733 
L 238.96619 241.406733 
L 238.96619 240.882485 
L 240.768559 240.882485 
L 240.769084 239.309742 
L 244.165093 239.309742 
L 244.165093 238.785494 
L 247.000951 238.785494 
L 247.001996 236.688503 
L 249.434034 236.688503 
L 249.435033 235.11576 
L 249.796074 235.11576 
L 249.796074 234.591512 
L 251.566483 234.591512 
L 251.566483 234.067265 
L 255.171251 234.067265 
L 255.171251 233.543017 
L 258.149663 233.543017 
L 258.149663 233.018769 
L 260.687923 233.018769 
L 260.688112 231.970274 
L 262.89957 231.970274 
L 262.899674 230.921778 
L 264.063869 230.921778 
L 264.063869 230.397531 
L 264.858711 230.397531 
L 264.858841 229.349035 
L 265.7604 229.349035 
L 265.760488 228.30054 
L 267.433606 228.30054 
L 267.433702 227.252044 
L 270.359113 227.252044 
L 270.359127 226.203549 
L 271.654137 226.203549 
L 271.654137 225.679301 
L 272.858853 225.679301 
L 272.858853 225.155053 
L 273.984313 225.155053 
L 273.984379 224.106558 
L 283.397646 224.106558 
L 283.397646 223.58231 
L 284.016821 223.58231 
L 284.016821 223.058063 
L 284.614396 223.058063 
L 284.61442 222.009567 
L 289.224348 222.009567 
L 289.224348 221.485319 
L 333.429677 221.485319 
L 333.429677 221.485319 
" style="fill:none;stroke:#ffa500;stroke-linecap:square;stroke-width:1.5;"/>
   </g>
   <g id="line2d_40">
    <defs>
     <path d="M 0 -6 
L -1.347084 -1.854102 
L -5.706339 -1.854102 
L -2.179628 0.708204 
L -3.526712 4.854102 
L -0 2.291796 
L 3.526712 4.854102 
L 2.179628 0.708204 
L 5.706339 -1.854102 
L 1.347084 -1.854102 
z
" id="m84c5a79e21" style="stroke:#ffa500;stroke-linejoin:bevel;stroke-width:1.5;"/>
    </defs>
    <g>
     <use style="fill-opacity:0;stroke:#ffa500;stroke-linejoin:bevel;stroke-width:1.5;" x="75.021477" xlink:href="#m84c5a79e21" y="281.249559"/>
     <use style="fill-opacity:0;stroke:#ffa500;stroke-linejoin:bevel;stroke-width:1.5;" x="159.382055" xlink:href="#m84c5a79e21" y="266.570623"/>
     <use style="fill-opacity:0;stroke:#ffa500;stroke-linejoin:bevel;stroke-width:1.5;" x="222.465886" xlink:href="#m84c5a79e21" y="246.64921"/>
     <use style="fill-opacity:0;stroke:#ffa500;stroke-linejoin:bevel;stroke-width:1.5;" x="289.224348" xlink:href="#m84c5a79e21" y="222.009567"/>
     <use style="fill-opacity:0;stroke:#ffa500;stroke-linejoin:bevel;stroke-width:1.5;" x="289.224348" xlink:href="#m84c5a79e21" y="221.485319"/>
     <use style="fill-opacity:0;stroke:#ffa500;stroke-linejoin:bevel;stroke-width:1.5;" x="333.429677" xlink:href="#m84c5a79e21" y="221.485319"/>
    </g>
   </g>
   <g id="line2d_41">
    <path style="fill:none;stroke:#ffa500;stroke-linecap:square;stroke-width:1.5;"/>
    <g/>
   </g>
   <g id="line2d_42">
    <path clip-path="url(#p1fef61beab)" d="M 214.583705 250.318944 
" style="fill:none;stroke:#ffa500;stroke-linecap:square;stroke-width:1.5;"/>
    <defs>
     <path d="M -12 12 
L 12 -12 
M -12 -12 
L 12 12 
" id="m0cb16062cf" style="stroke:#ffa500;stroke-width:3;"/>
    </defs>
    <g clip-path="url(#p1fef61beab)">
     <use style="fill:#ffa500;stroke:#ffa500;stroke-width:3;" x="214.583705" xlink:href="#m0cb16062cf" y="250.318944"/>
    </g>
   </g>
   <g id="line2d_43">
    <defs>
     <path d="M 0 1.5 
C 0.397805 1.5 0.77937 1.341951 1.06066 1.06066 
C 1.341951 0.77937 1.5 0.397805 1.5 0 
C 1.5 -0.397805 1.341951 -0.77937 1.06066 -1.06066 
C 0.77937 -1.341951 0.397805 -1.5 0 -1.5 
C -0.397805 -1.5 -0.77937 -1.341951 -1.06066 -1.06066 
C -1.341951 -0.77937 -1.5 -0.397805 -1.5 0 
C -1.5 0.397805 -1.341951 0.77937 -1.06066 1.06066 
C -0.77937 1.341951 -0.397805 1.5 0 1.5 
z
" id="m3b63c3d243" style="stroke:#6495ed;"/>
    </defs>
    <g>
     <use style="fill:#6495ed;stroke:#6495ed;" x="123.007879" xlink:href="#m3b63c3d243" y="268.667614"/>
     <use style="fill:#6495ed;stroke:#6495ed;" x="123.007879" xlink:href="#m3b63c3d243" y="268.667614"/>
    </g>
   </g>
   <g id="line2d_44">
    <path d="M 28.429836 294.88 
L 28.429836 289.637523 
L 40.355341 289.637523 
L 40.355341 286.492036 
L 47.331314 286.492036 
L 47.331314 283.870798 
L 52.280845 283.870798 
L 52.280845 283.34655 
L 56.12 283.34655 
L 56.12 281.249559 
L 59.256818 281.249559 
L 59.256818 279.152568 
L 61.90896 279.152568 
L 61.90896 278.628321 
L 64.20635 278.628321 
L 64.20635 277.579825 
L 72.559446 277.579825 
L 72.559446 277.055578 
L 77.174892 277.055578 
L 77.174892 276.53133 
L 78.158295 276.53133 
L 78.158295 276.007082 
L 89.100397 276.007082 
L 89.100397 274.958587 
L 91.014019 274.958587 
L 91.014019 274.434339 
L 96.07637 274.434339 
L 96.07637 273.910091 
L 101.277072 273.910091 
L 101.277072 273.385844 
L 105.265187 273.385844 
L 105.265187 272.861596 
L 109.915496 272.861596 
L 109.915496 271.8131 
L 112.824432 271.8131 
L 112.824432 270.764605 
L 121.148094 270.764605 
L 121.148094 270.240357 
L 121.459503 270.240357 
L 121.459503 269.716109 
L 123.007879 269.716109 
L 123.007879 268.667614 
L 333.429677 268.667614 
" style="fill:none;stroke:#6495ed;stroke-linecap:square;stroke-width:1.5;"/>
   </g>
   <g id="line2d_45">
    <defs>
     <path d="M -0 6 
L 6 -6 
L -6 -6 
z
" id="mf720b9a446" style="stroke:#6495ed;stroke-linejoin:miter;stroke-width:1.5;"/>
    </defs>
    <g>
     <use style="fill-opacity:0;stroke:#6495ed;stroke-linejoin:miter;stroke-width:1.5;" x="78.158295" xlink:href="#mf720b9a446" y="276.007082"/>
     <use style="fill-opacity:0;stroke:#6495ed;stroke-linejoin:miter;stroke-width:1.5;" x="123.007879" xlink:href="#mf720b9a446" y="269.716109"/>
     <use style="fill-opacity:0;stroke:#6495ed;stroke-linejoin:miter;stroke-width:1.5;" x="123.007879" xlink:href="#mf720b9a446" y="269.716109"/>
     <use style="fill-opacity:0;stroke:#6495ed;stroke-linejoin:miter;stroke-width:1.5;" x="123.007879" xlink:href="#mf720b9a446" y="268.667614"/>
     <use style="fill-opacity:0;stroke:#6495ed;stroke-linejoin:miter;stroke-width:1.5;" x="123.007879" xlink:href="#mf720b9a446" y="268.667614"/>
     <use style="fill-opacity:0;stroke:#6495ed;stroke-linejoin:miter;stroke-width:1.5;" x="333.429677" xlink:href="#mf720b9a446" y="268.667614"/>
    </g>
   </g>
   <g id="line2d_46">
    <path style="fill:none;stroke:#6495ed;stroke-linecap:square;stroke-width:1.5;"/>
    <g/>
   </g>
   <g id="line2d_47">
    <path clip-path="url(#p1fef61beab)" d="M 80.810437 276.007082 
" style="fill:none;stroke:#6495ed;stroke-linecap:square;stroke-width:1.5;"/>
    <defs>
     <path d="M -12 12 
L 12 -12 
M -12 -12 
L 12 12 
" id="m1fd131ba82" style="stroke:#6495ed;stroke-width:3;"/>
    </defs>
    <g clip-path="url(#p1fef61beab)">
     <use style="fill:#6495ed;stroke:#6495ed;stroke-width:3;" x="80.810437" xlink:href="#m1fd131ba82" y="276.007082"/>
    </g>
   </g>
   <g id="line2d_48">
    <path d="M 333.429677 268.667614 
L 363.933742 289.532673 
" style="fill:none;stroke:#6495ed;stroke-linecap:square;stroke-width:1.5;"/>
    <g>
     <use style="fill-opacity:0;stroke:#6495ed;stroke-linejoin:miter;stroke-width:1.5;" x="333.429677" xlink:href="#mf720b9a446" y="268.667614"/>
     <use style="fill-opacity:0;stroke:#6495ed;stroke-linejoin:miter;stroke-width:1.5;" x="363.933742" xlink:href="#mf720b9a446" y="289.532673"/>
    </g>
   </g>
   <g id="line2d_49">
    <path d="M 333.429677 221.485319 
L 363.933742 225.364752 
" style="fill:none;stroke:#ffa500;stroke-linecap:square;stroke-width:1.5;"/>
    <g>
     <use style="fill-opacity:0;stroke:#ffa500;stroke-linejoin:bevel;stroke-width:1.5;" x="333.429677" xlink:href="#m84c5a79e21" y="221.485319"/>
     <use style="fill-opacity:0;stroke:#ffa500;stroke-linejoin:bevel;stroke-width:1.5;" x="363.933742" xlink:href="#m84c5a79e21" y="225.364752"/>
    </g>
   </g>
   <g id="line2d_50">
    <path d="M 333.429677 174.827272 
L 363.933742 161.196832 
" style="fill:none;stroke:#000080;stroke-linecap:square;stroke-width:1.5;"/>
    <g>
     <use style="fill-opacity:0;stroke:#000080;stroke-width:1.5;" x="333.429677" xlink:href="#mfba65d839d" y="174.827272"/>
     <use style="fill-opacity:0;stroke:#000080;stroke-width:1.5;" x="363.933742" xlink:href="#mfba65d839d" y="161.196832"/>
    </g>
   </g>
   <g id="line2d_51">
    <path d="M 333.429677 32.756141 
L 363.933742 97.028911 
" style="fill:none;stroke:#ff00ff;stroke-linecap:square;stroke-width:1.5;"/>
    <g>
     <use style="fill-opacity:0;stroke:#ff00ff;stroke-linejoin:miter;stroke-width:1.5;" x="333.429677" xlink:href="#m03fc954047" y="32.756141"/>
     <use style="fill-opacity:0;stroke:#ff00ff;stroke-linejoin:miter;stroke-width:1.5;" x="363.933742" xlink:href="#m03fc954047" y="97.028911"/>
    </g>
   </g>
   <g id="line2d_52">
    <path d="M 333.429677 294.88 
L 333.429677 27.513663 
" style="fill:none;stroke:#000000;stroke-linecap:square;stroke-width:1.5;"/>
   </g>
   <g id="patch_3">
    <path d="M 56.12 294.88 
L 56.12 24.84 
" style="fill:none;stroke:#000000;stroke-linecap:square;stroke-linejoin:miter;stroke-width:0.8;"/>
   </g>
   <g id="patch_4">
    <path d="M 399.984 294.88 
L 399.984 24.84 
" style="fill:none;stroke:#000000;stroke-linecap:square;stroke-linejoin:miter;stroke-width:0.8;"/>
   </g>
   <g id="patch_5">
    <path d="M 56.12 294.88 
L 399.984 294.88 
" style="fill:none;stroke:#000000;stroke-linecap:square;stroke-linejoin:miter;stroke-width:0.8;"/>
   </g>
   <g id="patch_6">
    <path d="M 56.12 24.84 
L 399.984 24.84 
" style="fill:none;stroke:#000000;stroke-linecap:square;stroke-linejoin:miter;stroke-width:0.8;"/>
   </g>
   <g id="text_14">
    <!-- hybrid -->
    <defs>
     <path d="M 54.890625 33.015625 
L 54.890625 0 
L 45.90625 0 
L 45.90625 32.71875 
Q 45.90625 40.484375 42.875 44.328125 
Q 39.84375 48.1875 33.796875 48.1875 
Q 26.515625 48.1875 22.3125 43.546875 
Q 18.109375 38.921875 18.109375 30.90625 
L 18.109375 0 
L 9.078125 0 
L 9.078125 75.984375 
L 18.109375 75.984375 
L 18.109375 46.1875 
Q 21.34375 51.125 25.703125 53.5625 
Q 30.078125 56 35.796875 56 
Q 45.21875 56 50.046875 50.171875 
Q 54.890625 44.34375 54.890625 33.015625 
z
" id="DejaVuSans-68"/>
     <path d="M 32.171875 -5.078125 
Q 28.375 -14.84375 24.75 -17.8125 
Q 21.140625 -20.796875 15.09375 -20.796875 
L 7.90625 -20.796875 
L 7.90625 -13.28125 
L 13.1875 -13.28125 
Q 16.890625 -13.28125 18.9375 -11.515625 
Q 21 -9.765625 23.484375 -3.21875 
L 25.09375 0.875 
L 2.984375 54.6875 
L 12.5 54.6875 
L 29.59375 11.921875 
L 46.6875 54.6875 
L 56.203125 54.6875 
z
" id="DejaVuSans-79"/>
     <path d="M 48.6875 27.296875 
Q 48.6875 37.203125 44.609375 42.84375 
Q 40.53125 48.484375 33.40625 48.484375 
Q 26.265625 48.484375 22.1875 42.84375 
Q 18.109375 37.203125 18.109375 27.296875 
Q 18.109375 17.390625 22.1875 11.75 
Q 26.265625 6.109375 33.40625 6.109375 
Q 40.53125 6.109375 44.609375 11.75 
Q 48.6875 17.390625 48.6875 27.296875 
z
M 18.109375 46.390625 
Q 20.953125 51.265625 25.265625 53.625 
Q 29.59375 56 35.59375 56 
Q 45.5625 56 51.78125 48.09375 
Q 58.015625 40.1875 58.015625 27.296875 
Q 58.015625 14.40625 51.78125 6.484375 
Q 45.5625 -1.421875 35.59375 -1.421875 
Q 29.59375 -1.421875 25.265625 0.953125 
Q 20.953125 3.328125 18.109375 8.203125 
L 18.109375 0 
L 9.078125 0 
L 9.078125 75.984375 
L 18.109375 75.984375 
z
" id="DejaVuSans-62"/>
    </defs>
    <g transform="translate(369.479935 294.223611)scale(0.17 -0.17)">
     <use xlink:href="#DejaVuSans-68"/>
     <use x="63.378906" xlink:href="#DejaVuSans-79"/>
     <use x="122.558594" xlink:href="#DejaVuSans-62"/>
     <use x="186.035156" xlink:href="#DejaVuSans-72"/>
     <use x="227.148438" xlink:href="#DejaVuSans-69"/>
     <use x="254.931641" xlink:href="#DejaVuSans-64"/>
    </g>
   </g>
   <g id="text_15">
    <!-- Rosenbroc -->
    <defs>
     <path d="M 44.390625 34.1875 
Q 47.5625 33.109375 50.5625 29.59375 
Q 53.5625 26.078125 56.59375 19.921875 
L 66.609375 0 
L 56 0 
L 46.6875 18.703125 
Q 43.0625 26.03125 39.671875 28.421875 
Q 36.28125 30.8125 30.421875 30.8125 
L 19.671875 30.8125 
L 19.671875 0 
L 9.8125 0 
L 9.8125 72.90625 
L 32.078125 72.90625 
Q 44.578125 72.90625 50.734375 67.671875 
Q 56.890625 62.453125 56.890625 51.90625 
Q 56.890625 45.015625 53.6875 40.46875 
Q 50.484375 35.9375 44.390625 34.1875 
z
M 19.671875 64.796875 
L 19.671875 38.921875 
L 32.078125 38.921875 
Q 39.203125 38.921875 42.84375 42.21875 
Q 46.484375 45.515625 46.484375 51.90625 
Q 46.484375 58.296875 42.84375 61.546875 
Q 39.203125 64.796875 32.078125 64.796875 
z
" id="DejaVuSans-52"/>
    </defs>
    <g transform="translate(369.479935 230.05569)scale(0.17 -0.17)">
     <use xlink:href="#DejaVuSans-52"/>
     <use x="69.419922" xlink:href="#DejaVuSans-6f"/>
     <use x="130.601562" xlink:href="#DejaVuSans-73"/>
     <use x="182.701172" xlink:href="#DejaVuSans-65"/>
     <use x="244.224609" xlink:href="#DejaVuSans-6e"/>
     <use x="307.603516" xlink:href="#DejaVuSans-62"/>
     <use x="371.080078" xlink:href="#DejaVuSans-72"/>
     <use x="412.162109" xlink:href="#DejaVuSans-6f"/>
     <use x="473.34375" xlink:href="#DejaVuSans-63"/>
    </g>
   </g>
   <g id="text_16">
    <!-- DASA -->
    <defs>
     <path d="M 19.671875 64.796875 
L 19.671875 8.109375 
L 31.59375 8.109375 
Q 46.6875 8.109375 53.6875 14.9375 
Q 60.6875 21.78125 60.6875 36.53125 
Q 60.6875 51.171875 53.6875 57.984375 
Q 46.6875 64.796875 31.59375 64.796875 
z
M 9.8125 72.90625 
L 30.078125 72.90625 
Q 51.265625 72.90625 61.171875 64.09375 
Q 71.09375 55.28125 71.09375 36.53125 
Q 71.09375 17.671875 61.125 8.828125 
Q 51.171875 0 30.078125 0 
L 9.8125 0 
z
" id="DejaVuSans-44"/>
     <path d="M 34.1875 63.1875 
L 20.796875 26.90625 
L 47.609375 26.90625 
z
M 28.609375 72.90625 
L 39.796875 72.90625 
L 67.578125 0 
L 57.328125 0 
L 50.6875 18.703125 
L 17.828125 18.703125 
L 11.1875 0 
L 0.78125 0 
z
" id="DejaVuSans-41"/>
     <path d="M 53.515625 70.515625 
L 53.515625 60.890625 
Q 47.90625 63.578125 42.921875 64.890625 
Q 37.9375 66.21875 33.296875 66.21875 
Q 25.25 66.21875 20.875 63.09375 
Q 16.5 59.96875 16.5 54.203125 
Q 16.5 49.359375 19.40625 46.890625 
Q 22.3125 44.4375 30.421875 42.921875 
L 36.375 41.703125 
Q 47.40625 39.59375 52.65625 34.296875 
Q 57.90625 29 57.90625 20.125 
Q 57.90625 9.515625 50.796875 4.046875 
Q 43.703125 -1.421875 29.984375 -1.421875 
Q 24.8125 -1.421875 18.96875 -0.25 
Q 13.140625 0.921875 6.890625 3.21875 
L 6.890625 13.375 
Q 12.890625 10.015625 18.65625 8.296875 
Q 24.421875 6.59375 29.984375 6.59375 
Q 38.421875 6.59375 43.015625 9.90625 
Q 47.609375 13.234375 47.609375 19.390625 
Q 47.609375 24.75 44.3125 27.78125 
Q 41.015625 30.8125 33.5 32.328125 
L 27.484375 33.5 
Q 16.453125 35.6875 11.515625 40.375 
Q 6.59375 45.0625 6.59375 53.421875 
Q 6.59375 63.09375 13.40625 68.65625 
Q 20.21875 74.21875 32.171875 74.21875 
Q 37.3125 74.21875 42.625 73.28125 
Q 47.953125 72.359375 53.515625 70.515625 
z
" id="DejaVuSans-53"/>
    </defs>
    <g transform="translate(369.479935 165.887769)scale(0.17 -0.17)">
     <use xlink:href="#DejaVuSans-44"/>
     <use x="76.986328" xlink:href="#DejaVuSans-41"/>
     <use x="145.394531" xlink:href="#DejaVuSans-53"/>
     <use x="208.886719" xlink:href="#DejaVuSans-41"/>
    </g>
   </g>
   <g id="text_17">
    <!-- GA -->
    <defs>
     <path d="M 59.515625 10.40625 
L 59.515625 29.984375 
L 43.40625 29.984375 
L 43.40625 38.09375 
L 69.28125 38.09375 
L 69.28125 6.78125 
Q 63.578125 2.734375 56.6875 0.65625 
Q 49.8125 -1.421875 42 -1.421875 
Q 24.90625 -1.421875 15.25 8.5625 
Q 5.609375 18.5625 5.609375 36.375 
Q 5.609375 54.25 15.25 64.234375 
Q 24.90625 74.21875 42 74.21875 
Q 49.125 74.21875 55.546875 72.453125 
Q 61.96875 70.703125 67.390625 67.28125 
L 67.390625 56.78125 
Q 61.921875 61.421875 55.765625 63.765625 
Q 49.609375 66.109375 42.828125 66.109375 
Q 29.4375 66.109375 22.71875 58.640625 
Q 16.015625 51.171875 16.015625 36.375 
Q 16.015625 21.625 22.71875 14.15625 
Q 29.4375 6.6875 42.828125 6.6875 
Q 48.046875 6.6875 52.140625 7.59375 
Q 56.25 8.5 59.515625 10.40625 
z
" id="DejaVuSans-47"/>
    </defs>
    <g transform="translate(369.479935 101.719848)scale(0.17 -0.17)">
     <use xlink:href="#DejaVuSans-47"/>
     <use x="77.490234" xlink:href="#DejaVuSans-41"/>
    </g>
   </g>
   <g id="text_18">
    <!-- best 2009 -->
    <defs>
     <path d="M 10.984375 1.515625 
L 10.984375 10.5 
Q 14.703125 8.734375 18.5 7.8125 
Q 22.3125 6.890625 25.984375 6.890625 
Q 35.75 6.890625 40.890625 13.453125 
Q 46.046875 20.015625 46.78125 33.40625 
Q 43.953125 29.203125 39.59375 26.953125 
Q 35.25 24.703125 29.984375 24.703125 
Q 19.046875 24.703125 12.671875 31.3125 
Q 6.296875 37.9375 6.296875 49.421875 
Q 6.296875 60.640625 12.9375 67.421875 
Q 19.578125 74.21875 30.609375 74.21875 
Q 43.265625 74.21875 49.921875 64.515625 
Q 56.59375 54.828125 56.59375 36.375 
Q 56.59375 19.140625 48.40625 8.859375 
Q 40.234375 -1.421875 26.421875 -1.421875 
Q 22.703125 -1.421875 18.890625 -0.6875 
Q 15.09375 0.046875 10.984375 1.515625 
z
M 30.609375 32.421875 
Q 37.25 32.421875 41.125 36.953125 
Q 45.015625 41.5 45.015625 49.421875 
Q 45.015625 57.28125 41.125 61.84375 
Q 37.25 66.40625 30.609375 66.40625 
Q 23.96875 66.40625 20.09375 61.84375 
Q 16.21875 57.28125 16.21875 49.421875 
Q 16.21875 41.5 20.09375 36.953125 
Q 23.96875 32.421875 30.609375 32.421875 
z
" id="DejaVuSans-39"/>
    </defs>
    <g transform="translate(369.479935 37.551928)scale(0.17 -0.17)">
     <use xlink:href="#DejaVuSans-62"/>
     <use x="63.476562" xlink:href="#DejaVuSans-65"/>
     <use x="125" xlink:href="#DejaVuSans-73"/>
     <use x="177.099609" xlink:href="#DejaVuSans-74"/>
     <use x="216.308594" xlink:href="#DejaVuSans-20"/>
     <use x="248.095703" xlink:href="#DejaVuSans-32"/>
     <use x="311.71875" xlink:href="#DejaVuSans-30"/>
     <use x="375.341797" xlink:href="#DejaVuSans-30"/>
     <use x="438.964844" xlink:href="#DejaVuSans-39"/>
    </g>
   </g>
   <g id="text_19">
    <!-- bbob f16, 5-D -->
    <defs>
     <path d="M 10.796875 72.90625 
L 49.515625 72.90625 
L 49.515625 64.59375 
L 19.828125 64.59375 
L 19.828125 46.734375 
Q 21.96875 47.46875 24.109375 47.828125 
Q 26.265625 48.1875 28.421875 48.1875 
Q 40.625 48.1875 47.75 41.5 
Q 54.890625 34.8125 54.890625 23.390625 
Q 54.890625 11.625 47.5625 5.09375 
Q 40.234375 -1.421875 26.90625 -1.421875 
Q 22.3125 -1.421875 17.546875 -0.640625 
Q 12.796875 0.140625 7.71875 1.703125 
L 7.71875 11.625 
Q 12.109375 9.234375 16.796875 8.0625 
Q 21.484375 6.890625 26.703125 6.890625 
Q 35.15625 6.890625 40.078125 11.328125 
Q 45.015625 15.765625 45.015625 23.390625 
Q 45.015625 31 40.078125 35.4375 
Q 35.15625 39.890625 26.703125 39.890625 
Q 22.75 39.890625 18.8125 39.015625 
Q 14.890625 38.140625 10.796875 36.28125 
z
" id="DejaVuSans-35"/>
    </defs>
    <g transform="translate(59.55864 35.290806)scale(0.102 -0.102)">
     <use xlink:href="#DejaVuSans-62"/>
     <use x="63.476562" xlink:href="#DejaVuSans-62"/>
     <use x="126.953125" xlink:href="#DejaVuSans-6f"/>
     <use x="188.134766" xlink:href="#DejaVuSans-62"/>
     <use x="251.611328" xlink:href="#DejaVuSans-20"/>
     <use x="283.398438" xlink:href="#DejaVuSans-66"/>
     <use x="318.603516" xlink:href="#DejaVuSans-31"/>
     <use x="382.226562" xlink:href="#DejaVuSans-36"/>
     <use x="445.849609" xlink:href="#DejaVuSans-2c"/>
     <use x="477.636719" xlink:href="#DejaVuSans-20"/>
     <use x="509.423828" xlink:href="#DejaVuSans-35"/>
     <use x="573.046875" xlink:href="#DejaVuSans-2d"/>
     <use x="609.130859" xlink:href="#DejaVuSans-44"/>
    </g>
    <!-- 51 targets: 100..1e-08 -->
    <defs>
     <path d="M 11.71875 12.40625 
L 22.015625 12.40625 
L 22.015625 0 
L 11.71875 0 
z
M 11.71875 51.703125 
L 22.015625 51.703125 
L 22.015625 39.3125 
L 11.71875 39.3125 
z
" id="DejaVuSans-3a"/>
    </defs>
    <g transform="translate(59.55864 46.712575)scale(0.102 -0.102)">
     <use xlink:href="#DejaVuSans-35"/>
     <use x="63.623047" xlink:href="#DejaVuSans-31"/>
     <use x="127.246094" xlink:href="#DejaVuSans-20"/>
     <use x="159.033203" xlink:href="#DejaVuSans-74"/>
     <use x="198.242188" xlink:href="#DejaVuSans-61"/>
     <use x="259.521484" xlink:href="#DejaVuSans-72"/>
     <use x="300.619141" xlink:href="#DejaVuSans-67"/>
     <use x="364.095703" xlink:href="#DejaVuSans-65"/>
     <use x="425.619141" xlink:href="#DejaVuSans-74"/>
     <use x="464.828125" xlink:href="#DejaVuSans-73"/>
     <use x="516.927734" xlink:href="#DejaVuSans-3a"/>
     <use x="550.619141" xlink:href="#DejaVuSans-20"/>
     <use x="582.40625" xlink:href="#DejaVuSans-31"/>
     <use x="646.029297" xlink:href="#DejaVuSans-30"/>
     <use x="709.652344" xlink:href="#DejaVuSans-30"/>
     <use x="773.275391" xlink:href="#DejaVuSans-2e"/>
     <use x="805.0625" xlink:href="#DejaVuSans-2e"/>
     <use x="836.849609" xlink:href="#DejaVuSans-31"/>
     <use x="900.472656" xlink:href="#DejaVuSans-65"/>
     <use x="961.996094" xlink:href="#DejaVuSans-2d"/>
     <use x="998.080078" xlink:href="#DejaVuSans-30"/>
     <use x="1061.703125" xlink:href="#DejaVuSans-38"/>
    </g>
    <!-- 15 instances -->
    <g transform="translate(59.55864 58.134344)scale(0.102 -0.102)">
     <use xlink:href="#DejaVuSans-31"/>
     <use x="63.623047" xlink:href="#DejaVuSans-35"/>
     <use x="127.246094" xlink:href="#DejaVuSans-20"/>
     <use x="159.033203" xlink:href="#DejaVuSans-69"/>
     <use x="186.816406" xlink:href="#DejaVuSans-6e"/>
     <use x="250.195312" xlink:href="#DejaVuSans-73"/>
     <use x="302.294922" xlink:href="#DejaVuSans-74"/>
     <use x="341.503906" xlink:href="#DejaVuSans-61"/>
     <use x="402.783203" xlink:href="#DejaVuSans-6e"/>
     <use x="466.162109" xlink:href="#DejaVuSans-63"/>
     <use x="521.142578" xlink:href="#DejaVuSans-65"/>
     <use x="582.666016" xlink:href="#DejaVuSans-73"/>
    </g>
   </g>
   <g id="text_20">
    <!-- v-coco-version -->
    <g style="fill:#808080;" transform="translate(191.556688 290.099912)scale(0.1 -0.1)">
     <use xlink:href="#DejaVuSans-76"/>
     <use x="59.148438" xlink:href="#DejaVuSans-2d"/>
     <use x="95.232422" xlink:href="#DejaVuSans-63"/>
     <use x="150.212891" xlink:href="#DejaVuSans-6f"/>
     <use x="211.394531" xlink:href="#DejaVuSans-63"/>
     <use x="266.375" xlink:href="#DejaVuSans-6f"/>
     <use x="327.572266" xlink:href="#DejaVuSans-2d"/>
     <use x="363.625" xlink:href="#DejaVuSans-76"/>
     <use x="422.804688" xlink:href="#DejaVuSans-65"/>
     <use x="484.328125" xlink:href="#DejaVuSans-72"/>
     <use x="525.441406" xlink:href="#DejaVuSans-73"/>
     <use x="577.541016" xlink:href="#DejaVuSans-69"/>
     <use x="605.324219" xlink:href="#DejaVuSans-6f"/>
     <use x="666.505859" xlink:href="#DejaVuSans-6e"/>
    </g>
   </g>
   <g id="text_21">
    <!-- 16 Weierstrass -->
    <defs>
     <path d="M 3.328125 72.90625 
L 13.28125 72.90625 
L 28.609375 11.28125 
L 43.890625 72.90625 
L 54.984375 72.90625 
L 70.3125 11.28125 
L 85.59375 72.90625 
L 95.609375 72.90625 
L 77.296875 0 
L 64.890625 0 
L 49.515625 63.28125 
L 33.984375 0 
L 21.578125 0 
z
" id="DejaVuSans-57"/>
    </defs>
    <g transform="translate(153.286375 18.84)scale(0.2 -0.2)">
     <use xlink:href="#DejaVuSans-31"/>
     <use x="63.623047" xlink:href="#DejaVuSans-36"/>
     <use x="127.246094" xlink:href="#DejaVuSans-20"/>
     <use x="159.033203" xlink:href="#DejaVuSans-57"/>
     <use x="257.832031" xlink:href="#DejaVuSans-65"/>
     <use x="319.355469" xlink:href="#DejaVuSans-69"/>
     <use x="347.138672" xlink:href="#DejaVuSans-65"/>
     <use x="408.662109" xlink:href="#DejaVuSans-72"/>
     <use x="449.775391" xlink:href="#DejaVuSans-73"/>
     <use x="501.875" xlink:href="#DejaVuSans-74"/>
     <use x="541.083984" xlink:href="#DejaVuSans-72"/>
     <use x="582.197266" xlink:href="#DejaVuSans-61"/>
     <use x="643.476562" xlink:href="#DejaVuSans-73"/>
     <use x="695.576172" xlink:href="#DejaVuSans-73"/>
    </g>
   </g>
  </g>
 </g>
 <defs>
  <clipPath id="p1fef61beab">
   <rect height="270.04" width="343.864" x="56.12" y="24.84"/>
  </clipPath>
 </defs>
</svg>
