<?xml version="1.0" encoding="utf-8" standalone="no"?>
<!DOCTYPE svg PUBLIC "-//W3C//DTD SVG 1.1//EN"
  "http://www.w3.org/Graphics/SVG/1.1/DTD/svg11.dtd">
<!-- Created with matplotlib (http://matplotlib.org/) -->
<svg height="345.6pt" version="1.1" viewBox="0 0 460.8 345.6" width="460.8pt" xmlns="http://www.w3.org/2000/svg" xmlns:xlink="http://www.w3.org/1999/xlink">
 <defs>
  <style type="text/css">
*{stroke-linecap:butt;stroke-linejoin:round;}
  </style>
 </defs>
 <g id="figure_1">
  <g id="patch_1">
   <path d="M 0 345.6 
L 460.8 345.6 
L 460.8 0 
L 0 0 
z
" style="fill:#ffffff;"/>
  </g>
  <g id="axes_1">
   <g id="patch_2">
    <path d="M 56.12 294.88 
L 399.984 294.88 
L 399.984 24.84 
L 56.12 24.84 
z
" style="fill:#ffffff;"/>
   </g>
   <g id="line2d_1">
    <path d="M 44.194496 294.88 
L 44.194496 221.485319 
L 98.140254 221.485319 
L 98.140254 216.242842 
L 100.24961 216.242842 
L 100.24961 211.000365 
L 106.778678 211.000365 
L 106.778678 205.757888 
L 107.661173 205.757888 
L 107.661173 200.515411 
L 113.754651 200.515411 
L 113.754651 195.272933 
L 114.053874 195.272933 
L 114.053874 190.030456 
L 136.675441 190.030456 
L 136.675441 184.787979 
L 136.834012 184.787979 
L 136.834012 179.545502 
L 136.912753 179.545502 
L 136.912753 174.303025 
L 137.224162 174.303025 
L 137.224162 169.060547 
L 137.301141 169.060547 
L 137.301141 163.81807 
L 137.530034 163.81807 
L 137.530034 158.575593 
L 137.904883 158.575593 
L 137.904883 153.333116 
L 137.978882 153.333116 
L 137.978882 148.090639 
L 138.125933 148.090639 
L 138.125933 142.848162 
L 138.34418 142.848162 
L 138.34418 137.605684 
L 138.488154 137.605684 
L 138.488154 132.363207 
L 138.630934 132.363207 
L 138.630934 121.878253 
L 138.912987 121.878253 
L 138.912987 116.635776 
L 139.121534 116.635776 
L 139.121534 111.393298 
L 139.327583 111.393298 
L 139.327583 106.150821 
L 139.395721 106.150821 
L 139.395721 100.908344 
L 139.798978 100.908344 
L 139.798978 90.42339 
L 140.06266 90.42339 
L 140.06266 85.180912 
L 140.127953 85.180912 
L 140.127953 79.938435 
L 140.322361 79.938435 
L 140.322361 74.695958 
L 140.386678 74.695958 
L 140.386678 69.453481 
L 140.514596 69.453481 
L 140.514596 64.211004 
L 140.83029 64.211004 
L 140.83029 58.968526 
L 140.89274 58.968526 
L 140.89274 53.726049 
L 140.954964 53.726049 
L 140.954964 43.241095 
L 141.016963 43.241095 
L 141.016963 37.998618 
L 141.201633 37.998618 
L 141.201633 32.756141 
L 141.262751 32.756141 
L 141.262751 27.513663 
L 333.429677 27.513663 
" style="fill:none;stroke:#f5deb3;stroke-linecap:square;stroke-width:6;"/>
   </g>
   <g id="line2d_2">
    <defs>
     <path d="M -0 7.778175 
L 7.778175 0 
L 0 -7.778175 
L -7.778175 -0 
z
" id="mdd90bee70d" style="stroke:#f5deb3;stroke-linejoin:miter;stroke-width:1.5;"/>
    </defs>
    <g>
     <use style="fill:#f5deb3;stroke:#f5deb3;stroke-linejoin:miter;stroke-width:1.5;" x="114.053874" xlink:href="#mdd90bee70d" y="190.030456"/>
     <use style="fill:#f5deb3;stroke:#f5deb3;stroke-linejoin:miter;stroke-width:1.5;" x="140.89274" xlink:href="#mdd90bee70d" y="58.968526"/>
     <use style="fill:#f5deb3;stroke:#f5deb3;stroke-linejoin:miter;stroke-width:1.5;" x="141.262751" xlink:href="#mdd90bee70d" y="27.513663"/>
     <use style="fill:#f5deb3;stroke:#f5deb3;stroke-linejoin:miter;stroke-width:1.5;" x="141.262751" xlink:href="#mdd90bee70d" y="27.513663"/>
     <use style="fill:#f5deb3;stroke:#f5deb3;stroke-linejoin:miter;stroke-width:1.5;" x="333.429677" xlink:href="#mdd90bee70d" y="27.513663"/>
    </g>
   </g>
   <g id="line2d_3">
    <path style="fill:none;stroke:#f5deb3;stroke-linecap:square;stroke-width:6;"/>
    <g/>
   </g>
   <g id="line2d_4">
    <path d="M 333.429677 27.513663 
L 363.933742 32.86099 
" style="fill:none;stroke:#f5deb3;stroke-linecap:square;stroke-width:6;"/>
    <g>
     <use style="fill:#f5deb3;stroke:#f5deb3;stroke-linejoin:miter;stroke-width:1.5;" x="333.429677" xlink:href="#mdd90bee70d" y="27.513663"/>
     <use style="fill:#f5deb3;stroke:#f5deb3;stroke-linejoin:miter;stroke-width:1.5;" x="363.933742" xlink:href="#mdd90bee70d" y="32.86099"/>
    </g>
   </g>
   <g id="matplotlib.axis_1">
    <g id="xtick_1">
     <g id="line2d_5">
      <path clip-path="url(#p0e74cee2f0)" d="M 56.12 294.88 
L 56.12 24.84 
" style="fill:none;stroke:#b0b0b0;stroke-linecap:square;stroke-width:0.8;"/>
     </g>
     <g id="line2d_6">
      <defs>
       <path d="M 0 0 
L 0 3.5 
" id="mcb75e9c482" style="stroke:#000000;stroke-width:0.8;"/>
      </defs>
      <g>
       <use style="stroke:#000000;stroke-width:0.8;" x="56.12" xlink:href="#mcb75e9c482" y="294.88"/>
      </g>
     </g>
     <g id="text_1">
      <!-- 0 -->
      <defs>
       <path d="M 31.78125 66.40625 
Q 24.171875 66.40625 20.328125 58.90625 
Q 16.5 51.421875 16.5 36.375 
Q 16.5 21.390625 20.328125 13.890625 
Q 24.171875 6.390625 31.78125 6.390625 
Q 39.453125 6.390625 43.28125 13.890625 
Q 47.125 21.390625 47.125 36.375 
Q 47.125 51.421875 43.28125 58.90625 
Q 39.453125 66.40625 31.78125 66.40625 
z
M 31.78125 74.21875 
Q 44.046875 74.21875 50.515625 64.515625 
Q 56.984375 54.828125 56.984375 36.375 
Q 56.984375 17.96875 50.515625 8.265625 
Q 44.046875 -1.421875 31.78125 -1.421875 
Q 19.53125 -1.421875 13.0625 8.265625 
Q 6.59375 17.96875 6.59375 36.375 
Q 6.59375 54.828125 13.0625 64.515625 
Q 19.53125 74.21875 31.78125 74.21875 
z
" id="DejaVuSans-30"/>
      </defs>
      <g transform="translate(49.7575 317.076875)scale(0.2 -0.2)">
       <use xlink:href="#DejaVuSans-30"/>
      </g>
     </g>
    </g>
    <g id="xtick_2">
     <g id="line2d_7">
      <path clip-path="url(#p0e74cee2f0)" d="M 135.351336 294.88 
L 135.351336 24.84 
" style="fill:none;stroke:#b0b0b0;stroke-linecap:square;stroke-width:0.8;"/>
     </g>
     <g id="line2d_8">
      <g>
       <use style="stroke:#000000;stroke-width:0.8;" x="135.351336" xlink:href="#mcb75e9c482" y="294.88"/>
      </g>
     </g>
     <g id="text_2">
      <!-- 2 -->
      <defs>
       <path d="M 19.1875 8.296875 
L 53.609375 8.296875 
L 53.609375 0 
L 7.328125 0 
L 7.328125 8.296875 
Q 12.9375 14.109375 22.625 23.890625 
Q 32.328125 33.6875 34.8125 36.53125 
Q 39.546875 41.84375 41.421875 45.53125 
Q 43.3125 49.21875 43.3125 52.78125 
Q 43.3125 58.59375 39.234375 62.25 
Q 35.15625 65.921875 28.609375 65.921875 
Q 23.96875 65.921875 18.8125 64.3125 
Q 13.671875 62.703125 7.8125 59.421875 
L 7.8125 69.390625 
Q 13.765625 71.78125 18.9375 73 
Q 24.125 74.21875 28.421875 74.21875 
Q 39.75 74.21875 46.484375 68.546875 
Q 53.21875 62.890625 53.21875 53.421875 
Q 53.21875 48.921875 51.53125 44.890625 
Q 49.859375 40.875 45.40625 35.40625 
Q 44.1875 33.984375 37.640625 27.21875 
Q 31.109375 20.453125 19.1875 8.296875 
z
" id="DejaVuSans-32"/>
      </defs>
      <g transform="translate(128.988836 317.076875)scale(0.2 -0.2)">
       <use xlink:href="#DejaVuSans-32"/>
      </g>
     </g>
    </g>
    <g id="xtick_3">
     <g id="line2d_9">
      <path clip-path="url(#p0e74cee2f0)" d="M 214.582673 294.88 
L 214.582673 24.84 
" style="fill:none;stroke:#b0b0b0;stroke-linecap:square;stroke-width:0.8;"/>
     </g>
     <g id="line2d_10">
      <g>
       <use style="stroke:#000000;stroke-width:0.8;" x="214.582673" xlink:href="#mcb75e9c482" y="294.88"/>
      </g>
     </g>
     <g id="text_3">
      <!-- 4 -->
      <defs>
       <path d="M 37.796875 64.3125 
L 12.890625 25.390625 
L 37.796875 25.390625 
z
M 35.203125 72.90625 
L 47.609375 72.90625 
L 47.609375 25.390625 
L 58.015625 25.390625 
L 58.015625 17.1875 
L 47.609375 17.1875 
L 47.609375 0 
L 37.796875 0 
L 37.796875 17.1875 
L 4.890625 17.1875 
L 4.890625 26.703125 
z
" id="DejaVuSans-34"/>
      </defs>
      <g transform="translate(208.220173 317.076875)scale(0.2 -0.2)">
       <use xlink:href="#DejaVuSans-34"/>
      </g>
     </g>
    </g>
    <g id="xtick_4">
     <g id="line2d_11">
      <path clip-path="url(#p0e74cee2f0)" d="M 293.814009 294.88 
L 293.814009 24.84 
" style="fill:none;stroke:#b0b0b0;stroke-linecap:square;stroke-width:0.8;"/>
     </g>
     <g id="line2d_12">
      <g>
       <use style="stroke:#000000;stroke-width:0.8;" x="293.814009" xlink:href="#mcb75e9c482" y="294.88"/>
      </g>
     </g>
     <g id="text_4">
      <!-- 6 -->
      <defs>
       <path d="M 33.015625 40.375 
Q 26.375 40.375 22.484375 35.828125 
Q 18.609375 31.296875 18.609375 23.390625 
Q 18.609375 15.53125 22.484375 10.953125 
Q 26.375 6.390625 33.015625 6.390625 
Q 39.65625 6.390625 43.53125 10.953125 
Q 47.40625 15.53125 47.40625 23.390625 
Q 47.40625 31.296875 43.53125 35.828125 
Q 39.65625 40.375 33.015625 40.375 
z
M 52.59375 71.296875 
L 52.59375 62.3125 
Q 48.875 64.0625 45.09375 64.984375 
Q 41.3125 65.921875 37.59375 65.921875 
Q 27.828125 65.921875 22.671875 59.328125 
Q 17.53125 52.734375 16.796875 39.40625 
Q 19.671875 43.65625 24.015625 45.921875 
Q 28.375 48.1875 33.59375 48.1875 
Q 44.578125 48.1875 50.953125 41.515625 
Q 57.328125 34.859375 57.328125 23.390625 
Q 57.328125 12.15625 50.6875 5.359375 
Q 44.046875 -1.421875 33.015625 -1.421875 
Q 20.359375 -1.421875 13.671875 8.265625 
Q 6.984375 17.96875 6.984375 36.375 
Q 6.984375 53.65625 15.1875 63.9375 
Q 23.390625 74.21875 37.203125 74.21875 
Q 40.921875 74.21875 44.703125 73.484375 
Q 48.484375 72.75 52.59375 71.296875 
z
" id="DejaVuSans-36"/>
      </defs>
      <g transform="translate(287.451509 317.076875)scale(0.2 -0.2)">
       <use xlink:href="#DejaVuSans-36"/>
      </g>
     </g>
    </g>
    <g id="xtick_5">
     <g id="line2d_13">
      <path clip-path="url(#p0e74cee2f0)" d="M 373.045346 294.88 
L 373.045346 24.84 
" style="fill:none;stroke:#b0b0b0;stroke-linecap:square;stroke-width:0.8;"/>
     </g>
     <g id="line2d_14">
      <g>
       <use style="stroke:#000000;stroke-width:0.8;" x="373.045346" xlink:href="#mcb75e9c482" y="294.88"/>
      </g>
     </g>
     <g id="text_5">
      <!-- 8 -->
      <defs>
       <path d="M 31.78125 34.625 
Q 24.75 34.625 20.71875 30.859375 
Q 16.703125 27.09375 16.703125 20.515625 
Q 16.703125 13.921875 20.71875 10.15625 
Q 24.75 6.390625 31.78125 6.390625 
Q 38.8125 6.390625 42.859375 10.171875 
Q 46.921875 13.96875 46.921875 20.515625 
Q 46.921875 27.09375 42.890625 30.859375 
Q 38.875 34.625 31.78125 34.625 
z
M 21.921875 38.8125 
Q 15.578125 40.375 12.03125 44.71875 
Q 8.5 49.078125 8.5 55.328125 
Q 8.5 64.0625 14.71875 69.140625 
Q 20.953125 74.21875 31.78125 74.21875 
Q 42.671875 74.21875 48.875 69.140625 
Q 55.078125 64.0625 55.078125 55.328125 
Q 55.078125 49.078125 51.53125 44.71875 
Q 48 40.375 41.703125 38.8125 
Q 48.828125 37.15625 52.796875 32.3125 
Q 56.78125 27.484375 56.78125 20.515625 
Q 56.78125 9.90625 50.3125 4.234375 
Q 43.84375 -1.421875 31.78125 -1.421875 
Q 19.734375 -1.421875 13.25 4.234375 
Q 6.78125 9.90625 6.78125 20.515625 
Q 6.78125 27.484375 10.78125 32.3125 
Q 14.796875 37.15625 21.921875 38.8125 
z
M 18.3125 54.390625 
Q 18.3125 48.734375 21.84375 45.5625 
Q 25.390625 42.390625 31.78125 42.390625 
Q 38.140625 42.390625 41.71875 45.5625 
Q 45.3125 48.734375 45.3125 54.390625 
Q 45.3125 60.0625 41.71875 63.234375 
Q 38.140625 66.40625 31.78125 66.40625 
Q 25.390625 66.40625 21.84375 63.234375 
Q 18.3125 60.0625 18.3125 54.390625 
z
" id="DejaVuSans-38"/>
      </defs>
      <g transform="translate(366.682846 317.076875)scale(0.2 -0.2)">
       <use xlink:href="#DejaVuSans-38"/>
      </g>
     </g>
    </g>
    <g id="text_6">
     <!-- log10(# f-evals / dimension) -->
     <defs>
      <path d="M 9.421875 75.984375 
L 18.40625 75.984375 
L 18.40625 0 
L 9.421875 0 
z
" id="DejaVuSans-6c"/>
      <path d="M 30.609375 48.390625 
Q 23.390625 48.390625 19.1875 42.75 
Q 14.984375 37.109375 14.984375 27.296875 
Q 14.984375 17.484375 19.15625 11.84375 
Q 23.34375 6.203125 30.609375 6.203125 
Q 37.796875 6.203125 41.984375 11.859375 
Q 46.1875 17.53125 46.1875 27.296875 
Q 46.1875 37.015625 41.984375 42.703125 
Q 37.796875 48.390625 30.609375 48.390625 
z
M 30.609375 56 
Q 42.328125 56 49.015625 48.375 
Q 55.71875 40.765625 55.71875 27.296875 
Q 55.71875 13.875 49.015625 6.21875 
Q 42.328125 -1.421875 30.609375 -1.421875 
Q 18.84375 -1.421875 12.171875 6.21875 
Q 5.515625 13.875 5.515625 27.296875 
Q 5.515625 40.765625 12.171875 48.375 
Q 18.84375 56 30.609375 56 
z
" id="DejaVuSans-6f"/>
      <path d="M 45.40625 27.984375 
Q 45.40625 37.75 41.375 43.109375 
Q 37.359375 48.484375 30.078125 48.484375 
Q 22.859375 48.484375 18.828125 43.109375 
Q 14.796875 37.75 14.796875 27.984375 
Q 14.796875 18.265625 18.828125 12.890625 
Q 22.859375 7.515625 30.078125 7.515625 
Q 37.359375 7.515625 41.375 12.890625 
Q 45.40625 18.265625 45.40625 27.984375 
z
M 54.390625 6.78125 
Q 54.390625 -7.171875 48.1875 -13.984375 
Q 42 -20.796875 29.203125 -20.796875 
Q 24.46875 -20.796875 20.265625 -20.09375 
Q 16.0625 -19.390625 12.109375 -17.921875 
L 12.109375 -9.1875 
Q 16.0625 -11.328125 19.921875 -12.34375 
Q 23.78125 -13.375 27.78125 -13.375 
Q 36.625 -13.375 41.015625 -8.765625 
Q 45.40625 -4.15625 45.40625 5.171875 
L 45.40625 9.625 
Q 42.625 4.78125 38.28125 2.390625 
Q 33.9375 0 27.875 0 
Q 17.828125 0 11.671875 7.65625 
Q 5.515625 15.328125 5.515625 27.984375 
Q 5.515625 40.671875 11.671875 48.328125 
Q 17.828125 56 27.875 56 
Q 33.9375 56 38.28125 53.609375 
Q 42.625 51.21875 45.40625 46.390625 
L 45.40625 54.6875 
L 54.390625 54.6875 
z
" id="DejaVuSans-67"/>
      <path d="M 12.40625 8.296875 
L 28.515625 8.296875 
L 28.515625 63.921875 
L 10.984375 60.40625 
L 10.984375 69.390625 
L 28.421875 72.90625 
L 38.28125 72.90625 
L 38.28125 8.296875 
L 54.390625 8.296875 
L 54.390625 0 
L 12.40625 0 
z
" id="DejaVuSans-31"/>
      <path d="M 31 75.875 
Q 24.46875 64.65625 21.28125 53.65625 
Q 18.109375 42.671875 18.109375 31.390625 
Q 18.109375 20.125 21.3125 9.0625 
Q 24.515625 -2 31 -13.1875 
L 23.1875 -13.1875 
Q 15.875 -1.703125 12.234375 9.375 
Q 8.59375 20.453125 8.59375 31.390625 
Q 8.59375 42.28125 12.203125 53.3125 
Q 15.828125 64.359375 23.1875 75.875 
z
" id="DejaVuSans-28"/>
      <path d="M 51.125 44 
L 36.921875 44 
L 32.8125 27.6875 
L 47.125 27.6875 
z
M 43.796875 71.78125 
L 38.71875 51.515625 
L 52.984375 51.515625 
L 58.109375 71.78125 
L 65.921875 71.78125 
L 60.890625 51.515625 
L 76.125 51.515625 
L 76.125 44 
L 58.984375 44 
L 54.984375 27.6875 
L 70.515625 27.6875 
L 70.515625 20.21875 
L 53.078125 20.21875 
L 48 0 
L 40.1875 0 
L 45.21875 20.21875 
L 30.90625 20.21875 
L 25.875 0 
L 18.015625 0 
L 23.09375 20.21875 
L 7.71875 20.21875 
L 7.71875 27.6875 
L 24.90625 27.6875 
L 29 44 
L 13.28125 44 
L 13.28125 51.515625 
L 30.90625 51.515625 
L 35.890625 71.78125 
z
" id="DejaVuSans-23"/>
      <path id="DejaVuSans-20"/>
      <path d="M 37.109375 75.984375 
L 37.109375 68.5 
L 28.515625 68.5 
Q 23.6875 68.5 21.796875 66.546875 
Q 19.921875 64.59375 19.921875 59.515625 
L 19.921875 54.6875 
L 34.71875 54.6875 
L 34.71875 47.703125 
L 19.921875 47.703125 
L 19.921875 0 
L 10.890625 0 
L 10.890625 47.703125 
L 2.296875 47.703125 
L 2.296875 54.6875 
L 10.890625 54.6875 
L 10.890625 58.5 
Q 10.890625 67.625 15.140625 71.796875 
Q 19.390625 75.984375 28.609375 75.984375 
z
" id="DejaVuSans-66"/>
      <path d="M 4.890625 31.390625 
L 31.203125 31.390625 
L 31.203125 23.390625 
L 4.890625 23.390625 
z
" id="DejaVuSans-2d"/>
      <path d="M 56.203125 29.59375 
L 56.203125 25.203125 
L 14.890625 25.203125 
Q 15.484375 15.921875 20.484375 11.0625 
Q 25.484375 6.203125 34.421875 6.203125 
Q 39.59375 6.203125 44.453125 7.46875 
Q 49.3125 8.734375 54.109375 11.28125 
L 54.109375 2.78125 
Q 49.265625 0.734375 44.1875 -0.34375 
Q 39.109375 -1.421875 33.890625 -1.421875 
Q 20.796875 -1.421875 13.15625 6.1875 
Q 5.515625 13.8125 5.515625 26.8125 
Q 5.515625 40.234375 12.765625 48.109375 
Q 20.015625 56 32.328125 56 
Q 43.359375 56 49.78125 48.890625 
Q 56.203125 41.796875 56.203125 29.59375 
z
M 47.21875 32.234375 
Q 47.125 39.59375 43.09375 43.984375 
Q 39.0625 48.390625 32.421875 48.390625 
Q 24.90625 48.390625 20.390625 44.140625 
Q 15.875 39.890625 15.1875 32.171875 
z
" id="DejaVuSans-65"/>
      <path d="M 2.984375 54.6875 
L 12.5 54.6875 
L 29.59375 8.796875 
L 46.6875 54.6875 
L 56.203125 54.6875 
L 35.6875 0 
L 23.484375 0 
z
" id="DejaVuSans-76"/>
      <path d="M 34.28125 27.484375 
Q 23.390625 27.484375 19.1875 25 
Q 14.984375 22.515625 14.984375 16.5 
Q 14.984375 11.71875 18.140625 8.90625 
Q 21.296875 6.109375 26.703125 6.109375 
Q 34.1875 6.109375 38.703125 11.40625 
Q 43.21875 16.703125 43.21875 25.484375 
L 43.21875 27.484375 
z
M 52.203125 31.203125 
L 52.203125 0 
L 43.21875 0 
L 43.21875 8.296875 
Q 40.140625 3.328125 35.546875 0.953125 
Q 30.953125 -1.421875 24.3125 -1.421875 
Q 15.921875 -1.421875 10.953125 3.296875 
Q 6 8.015625 6 15.921875 
Q 6 25.140625 12.171875 29.828125 
Q 18.359375 34.515625 30.609375 34.515625 
L 43.21875 34.515625 
L 43.21875 35.40625 
Q 43.21875 41.609375 39.140625 45 
Q 35.0625 48.390625 27.6875 48.390625 
Q 23 48.390625 18.546875 47.265625 
Q 14.109375 46.140625 10.015625 43.890625 
L 10.015625 52.203125 
Q 14.9375 54.109375 19.578125 55.046875 
Q 24.21875 56 28.609375 56 
Q 40.484375 56 46.34375 49.84375 
Q 52.203125 43.703125 52.203125 31.203125 
z
" id="DejaVuSans-61"/>
      <path d="M 44.28125 53.078125 
L 44.28125 44.578125 
Q 40.484375 46.53125 36.375 47.5 
Q 32.28125 48.484375 27.875 48.484375 
Q 21.1875 48.484375 17.84375 46.4375 
Q 14.5 44.390625 14.5 40.28125 
Q 14.5 37.15625 16.890625 35.375 
Q 19.28125 33.59375 26.515625 31.984375 
L 29.59375 31.296875 
Q 39.15625 29.25 43.1875 25.515625 
Q 47.21875 21.78125 47.21875 15.09375 
Q 47.21875 7.46875 41.1875 3.015625 
Q 35.15625 -1.421875 24.609375 -1.421875 
Q 20.21875 -1.421875 15.453125 -0.5625 
Q 10.6875 0.296875 5.421875 2 
L 5.421875 11.28125 
Q 10.40625 8.6875 15.234375 7.390625 
Q 20.0625 6.109375 24.8125 6.109375 
Q 31.15625 6.109375 34.5625 8.28125 
Q 37.984375 10.453125 37.984375 14.40625 
Q 37.984375 18.0625 35.515625 20.015625 
Q 33.0625 21.96875 24.703125 23.78125 
L 21.578125 24.515625 
Q 13.234375 26.265625 9.515625 29.90625 
Q 5.8125 33.546875 5.8125 39.890625 
Q 5.8125 47.609375 11.28125 51.796875 
Q 16.75 56 26.8125 56 
Q 31.78125 56 36.171875 55.265625 
Q 40.578125 54.546875 44.28125 53.078125 
z
" id="DejaVuSans-73"/>
      <path d="M 25.390625 72.90625 
L 33.6875 72.90625 
L 8.296875 -9.28125 
L 0 -9.28125 
z
" id="DejaVuSans-2f"/>
      <path d="M 45.40625 46.390625 
L 45.40625 75.984375 
L 54.390625 75.984375 
L 54.390625 0 
L 45.40625 0 
L 45.40625 8.203125 
Q 42.578125 3.328125 38.25 0.953125 
Q 33.9375 -1.421875 27.875 -1.421875 
Q 17.96875 -1.421875 11.734375 6.484375 
Q 5.515625 14.40625 5.515625 27.296875 
Q 5.515625 40.1875 11.734375 48.09375 
Q 17.96875 56 27.875 56 
Q 33.9375 56 38.25 53.625 
Q 42.578125 51.265625 45.40625 46.390625 
z
M 14.796875 27.296875 
Q 14.796875 17.390625 18.875 11.75 
Q 22.953125 6.109375 30.078125 6.109375 
Q 37.203125 6.109375 41.296875 11.75 
Q 45.40625 17.390625 45.40625 27.296875 
Q 45.40625 37.203125 41.296875 42.84375 
Q 37.203125 48.484375 30.078125 48.484375 
Q 22.953125 48.484375 18.875 42.84375 
Q 14.796875 37.203125 14.796875 27.296875 
z
" id="DejaVuSans-64"/>
      <path d="M 9.421875 54.6875 
L 18.40625 54.6875 
L 18.40625 0 
L 9.421875 0 
z
M 9.421875 75.984375 
L 18.40625 75.984375 
L 18.40625 64.59375 
L 9.421875 64.59375 
z
" id="DejaVuSans-69"/>
      <path d="M 52 44.1875 
Q 55.375 50.25 60.0625 53.125 
Q 64.75 56 71.09375 56 
Q 79.640625 56 84.28125 50.015625 
Q 88.921875 44.046875 88.921875 33.015625 
L 88.921875 0 
L 79.890625 0 
L 79.890625 32.71875 
Q 79.890625 40.578125 77.09375 44.375 
Q 74.3125 48.1875 68.609375 48.1875 
Q 61.625 48.1875 57.5625 43.546875 
Q 53.515625 38.921875 53.515625 30.90625 
L 53.515625 0 
L 44.484375 0 
L 44.484375 32.71875 
Q 44.484375 40.625 41.703125 44.40625 
Q 38.921875 48.1875 33.109375 48.1875 
Q 26.21875 48.1875 22.15625 43.53125 
Q 18.109375 38.875 18.109375 30.90625 
L 18.109375 0 
L 9.078125 0 
L 9.078125 54.6875 
L 18.109375 54.6875 
L 18.109375 46.1875 
Q 21.1875 51.21875 25.484375 53.609375 
Q 29.78125 56 35.6875 56 
Q 41.65625 56 45.828125 52.96875 
Q 50 49.953125 52 44.1875 
z
" id="DejaVuSans-6d"/>
      <path d="M 54.890625 33.015625 
L 54.890625 0 
L 45.90625 0 
L 45.90625 32.71875 
Q 45.90625 40.484375 42.875 44.328125 
Q 39.84375 48.1875 33.796875 48.1875 
Q 26.515625 48.1875 22.3125 43.546875 
Q 18.109375 38.921875 18.109375 30.90625 
L 18.109375 0 
L 9.078125 0 
L 9.078125 54.6875 
L 18.109375 54.6875 
L 18.109375 46.1875 
Q 21.34375 51.125 25.703125 53.5625 
Q 30.078125 56 35.796875 56 
Q 45.21875 56 50.046875 50.171875 
Q 54.890625 44.34375 54.890625 33.015625 
z
" id="DejaVuSans-6e"/>
      <path d="M 8.015625 75.875 
L 15.828125 75.875 
Q 23.140625 64.359375 26.78125 53.3125 
Q 30.421875 42.28125 30.421875 31.390625 
Q 30.421875 20.453125 26.78125 9.375 
Q 23.140625 -1.703125 15.828125 -13.1875 
L 8.015625 -13.1875 
Q 14.5 -2 17.703125 9.0625 
Q 20.90625 20.125 20.90625 31.390625 
Q 20.90625 42.671875 17.703125 53.65625 
Q 14.5 64.65625 8.015625 75.875 
z
" id="DejaVuSans-29"/>
     </defs>
     <g transform="translate(107.211219 338.153594)scale(0.17 -0.17)">
      <use xlink:href="#DejaVuSans-6c"/>
      <use x="27.783203" xlink:href="#DejaVuSans-6f"/>
      <use x="88.964844" xlink:href="#DejaVuSans-67"/>
      <use x="152.441406" xlink:href="#DejaVuSans-31"/>
      <use x="216.064453" xlink:href="#DejaVuSans-30"/>
      <use x="279.6875" xlink:href="#DejaVuSans-28"/>
      <use x="318.701172" xlink:href="#DejaVuSans-23"/>
      <use x="402.490234" xlink:href="#DejaVuSans-20"/>
      <use x="434.277344" xlink:href="#DejaVuSans-66"/>
      <use x="469.404297" xlink:href="#DejaVuSans-2d"/>
      <use x="505.488281" xlink:href="#DejaVuSans-65"/>
      <use x="567.011719" xlink:href="#DejaVuSans-76"/>
      <use x="626.191406" xlink:href="#DejaVuSans-61"/>
      <use x="687.470703" xlink:href="#DejaVuSans-6c"/>
      <use x="715.253906" xlink:href="#DejaVuSans-73"/>
      <use x="767.353516" xlink:href="#DejaVuSans-20"/>
      <use x="799.140625" xlink:href="#DejaVuSans-2f"/>
      <use x="832.832031" xlink:href="#DejaVuSans-20"/>
      <use x="864.619141" xlink:href="#DejaVuSans-64"/>
      <use x="928.095703" xlink:href="#DejaVuSans-69"/>
      <use x="955.878906" xlink:href="#DejaVuSans-6d"/>
      <use x="1053.291016" xlink:href="#DejaVuSans-65"/>
      <use x="1114.814453" xlink:href="#DejaVuSans-6e"/>
      <use x="1178.193359" xlink:href="#DejaVuSans-73"/>
      <use x="1230.292969" xlink:href="#DejaVuSans-69"/>
      <use x="1258.076172" xlink:href="#DejaVuSans-6f"/>
      <use x="1319.257812" xlink:href="#DejaVuSans-6e"/>
      <use x="1382.636719" xlink:href="#DejaVuSans-29"/>
     </g>
    </g>
   </g>
   <g id="matplotlib.axis_2">
    <g id="ytick_1">
     <g id="line2d_15">
      <path clip-path="url(#p0e74cee2f0)" d="M 56.12 294.88 
L 399.984 294.88 
" style="fill:none;stroke:#b0b0b0;stroke-linecap:square;stroke-width:0.8;"/>
     </g>
     <g id="line2d_16">
      <defs>
       <path d="M 0 0 
L -3.5 0 
" id="mfa2bf8cc0e" style="stroke:#000000;stroke-width:0.8;"/>
      </defs>
      <g>
       <use style="stroke:#000000;stroke-width:0.8;" x="56.12" xlink:href="#mfa2bf8cc0e" y="294.88"/>
      </g>
     </g>
     <g id="text_7">
      <!-- 0.0 -->
      <defs>
       <path d="M 10.6875 12.40625 
L 21 12.40625 
L 21 0 
L 10.6875 0 
z
" id="DejaVuSans-2e"/>
      </defs>
      <g transform="translate(23.675 300.95875)scale(0.16 -0.16)">
       <use xlink:href="#DejaVuSans-30"/>
       <use x="63.623047" xlink:href="#DejaVuSans-2e"/>
       <use x="95.410156" xlink:href="#DejaVuSans-30"/>
      </g>
     </g>
    </g>
    <g id="ytick_2">
     <g id="line2d_17">
      <path clip-path="url(#p0e74cee2f0)" d="M 56.12 241.406733 
L 399.984 241.406733 
" style="fill:none;stroke:#b0b0b0;stroke-linecap:square;stroke-width:0.8;"/>
     </g>
     <g id="line2d_18">
      <g>
       <use style="stroke:#000000;stroke-width:0.8;" x="56.12" xlink:href="#mfa2bf8cc0e" y="241.406733"/>
      </g>
     </g>
     <g id="text_8">
      <!-- 0.2 -->
      <g transform="translate(23.675 247.485483)scale(0.16 -0.16)">
       <use xlink:href="#DejaVuSans-30"/>
       <use x="63.623047" xlink:href="#DejaVuSans-2e"/>
       <use x="95.410156" xlink:href="#DejaVuSans-32"/>
      </g>
     </g>
    </g>
    <g id="ytick_3">
     <g id="line2d_19">
      <path clip-path="url(#p0e74cee2f0)" d="M 56.12 187.933465 
L 399.984 187.933465 
" style="fill:none;stroke:#b0b0b0;stroke-linecap:square;stroke-width:0.8;"/>
     </g>
     <g id="line2d_20">
      <g>
       <use style="stroke:#000000;stroke-width:0.8;" x="56.12" xlink:href="#mfa2bf8cc0e" y="187.933465"/>
      </g>
     </g>
     <g id="text_9">
      <!-- 0.4 -->
      <g transform="translate(23.675 194.012215)scale(0.16 -0.16)">
       <use xlink:href="#DejaVuSans-30"/>
       <use x="63.623047" xlink:href="#DejaVuSans-2e"/>
       <use x="95.410156" xlink:href="#DejaVuSans-34"/>
      </g>
     </g>
    </g>
    <g id="ytick_4">
     <g id="line2d_21">
      <path clip-path="url(#p0e74cee2f0)" d="M 56.12 134.460198 
L 399.984 134.460198 
" style="fill:none;stroke:#b0b0b0;stroke-linecap:square;stroke-width:0.8;"/>
     </g>
     <g id="line2d_22">
      <g>
       <use style="stroke:#000000;stroke-width:0.8;" x="56.12" xlink:href="#mfa2bf8cc0e" y="134.460198"/>
      </g>
     </g>
     <g id="text_10">
      <!-- 0.6 -->
      <g transform="translate(23.675 140.538948)scale(0.16 -0.16)">
       <use xlink:href="#DejaVuSans-30"/>
       <use x="63.623047" xlink:href="#DejaVuSans-2e"/>
       <use x="95.410156" xlink:href="#DejaVuSans-36"/>
      </g>
     </g>
    </g>
    <g id="ytick_5">
     <g id="line2d_23">
      <path clip-path="url(#p0e74cee2f0)" d="M 56.12 80.986931 
L 399.984 80.986931 
" style="fill:none;stroke:#b0b0b0;stroke-linecap:square;stroke-width:0.8;"/>
     </g>
     <g id="line2d_24">
      <g>
       <use style="stroke:#000000;stroke-width:0.8;" x="56.12" xlink:href="#mfa2bf8cc0e" y="80.986931"/>
      </g>
     </g>
     <g id="text_11">
      <!-- 0.8 -->
      <g transform="translate(23.675 87.065681)scale(0.16 -0.16)">
       <use xlink:href="#DejaVuSans-30"/>
       <use x="63.623047" xlink:href="#DejaVuSans-2e"/>
       <use x="95.410156" xlink:href="#DejaVuSans-38"/>
      </g>
     </g>
    </g>
    <g id="ytick_6">
     <g id="line2d_25">
      <path clip-path="url(#p0e74cee2f0)" d="M 56.12 27.513663 
L 399.984 27.513663 
" style="fill:none;stroke:#b0b0b0;stroke-linecap:square;stroke-width:0.8;"/>
     </g>
     <g id="line2d_26">
      <g>
       <use style="stroke:#000000;stroke-width:0.8;" x="56.12" xlink:href="#mfa2bf8cc0e" y="27.513663"/>
      </g>
     </g>
     <g id="text_12">
      <!-- 1.0 -->
      <g transform="translate(23.675 33.592413)scale(0.16 -0.16)">
       <use xlink:href="#DejaVuSans-31"/>
       <use x="63.623047" xlink:href="#DejaVuSans-2e"/>
       <use x="95.410156" xlink:href="#DejaVuSans-30"/>
      </g>
     </g>
    </g>
    <g id="text_13">
     <!-- Fraction of function,target pairs -->
     <defs>
      <path d="M 9.8125 72.90625 
L 51.703125 72.90625 
L 51.703125 64.59375 
L 19.671875 64.59375 
L 19.671875 43.109375 
L 48.578125 43.109375 
L 48.578125 34.8125 
L 19.671875 34.8125 
L 19.671875 0 
L 9.8125 0 
z
" id="DejaVuSans-46"/>
      <path d="M 41.109375 46.296875 
Q 39.59375 47.171875 37.8125 47.578125 
Q 36.03125 48 33.890625 48 
Q 26.265625 48 22.1875 43.046875 
Q 18.109375 38.09375 18.109375 28.8125 
L 18.109375 0 
L 9.078125 0 
L 9.078125 54.6875 
L 18.109375 54.6875 
L 18.109375 46.1875 
Q 20.953125 51.171875 25.484375 53.578125 
Q 30.03125 56 36.53125 56 
Q 37.453125 56 38.578125 55.875 
Q 39.703125 55.765625 41.0625 55.515625 
z
" id="DejaVuSans-72"/>
      <path d="M 48.78125 52.59375 
L 48.78125 44.1875 
Q 44.96875 46.296875 41.140625 47.34375 
Q 37.3125 48.390625 33.40625 48.390625 
Q 24.65625 48.390625 19.8125 42.84375 
Q 14.984375 37.3125 14.984375 27.296875 
Q 14.984375 17.28125 19.8125 11.734375 
Q 24.65625 6.203125 33.40625 6.203125 
Q 37.3125 6.203125 41.140625 7.25 
Q 44.96875 8.296875 48.78125 10.40625 
L 48.78125 2.09375 
Q 45.015625 0.34375 40.984375 -0.53125 
Q 36.96875 -1.421875 32.421875 -1.421875 
Q 20.0625 -1.421875 12.78125 6.34375 
Q 5.515625 14.109375 5.515625 27.296875 
Q 5.515625 40.671875 12.859375 48.328125 
Q 20.21875 56 33.015625 56 
Q 37.15625 56 41.109375 55.140625 
Q 45.0625 54.296875 48.78125 52.59375 
z
" id="DejaVuSans-63"/>
      <path d="M 18.3125 70.21875 
L 18.3125 54.6875 
L 36.8125 54.6875 
L 36.8125 47.703125 
L 18.3125 47.703125 
L 18.3125 18.015625 
Q 18.3125 11.328125 20.140625 9.421875 
Q 21.96875 7.515625 27.59375 7.515625 
L 36.8125 7.515625 
L 36.8125 0 
L 27.59375 0 
Q 17.1875 0 13.234375 3.875 
Q 9.28125 7.765625 9.28125 18.015625 
L 9.28125 47.703125 
L 2.6875 47.703125 
L 2.6875 54.6875 
L 9.28125 54.6875 
L 9.28125 70.21875 
z
" id="DejaVuSans-74"/>
      <path d="M 8.5 21.578125 
L 8.5 54.6875 
L 17.484375 54.6875 
L 17.484375 21.921875 
Q 17.484375 14.15625 20.5 10.265625 
Q 23.53125 6.390625 29.59375 6.390625 
Q 36.859375 6.390625 41.078125 11.03125 
Q 45.3125 15.671875 45.3125 23.6875 
L 45.3125 54.6875 
L 54.296875 54.6875 
L 54.296875 0 
L 45.3125 0 
L 45.3125 8.40625 
Q 42.046875 3.421875 37.71875 1 
Q 33.40625 -1.421875 27.6875 -1.421875 
Q 18.265625 -1.421875 13.375 4.4375 
Q 8.5 10.296875 8.5 21.578125 
z
M 31.109375 56 
z
" id="DejaVuSans-75"/>
      <path d="M 11.71875 12.40625 
L 22.015625 12.40625 
L 22.015625 4 
L 14.015625 -11.625 
L 7.71875 -11.625 
L 11.71875 4 
z
" id="DejaVuSans-2c"/>
      <path d="M 18.109375 8.203125 
L 18.109375 -20.796875 
L 9.078125 -20.796875 
L 9.078125 54.6875 
L 18.109375 54.6875 
L 18.109375 46.390625 
Q 20.953125 51.265625 25.265625 53.625 
Q 29.59375 56 35.59375 56 
Q 45.5625 56 51.78125 48.09375 
Q 58.015625 40.1875 58.015625 27.296875 
Q 58.015625 14.40625 51.78125 6.484375 
Q 45.5625 -1.421875 35.59375 -1.421875 
Q 29.59375 -1.421875 25.265625 0.953125 
Q 20.953125 3.328125 18.109375 8.203125 
z
M 48.6875 27.296875 
Q 48.6875 37.203125 44.609375 42.84375 
Q 40.53125 48.484375 33.40625 48.484375 
Q 26.265625 48.484375 22.1875 42.84375 
Q 18.109375 37.203125 18.109375 27.296875 
Q 18.109375 17.390625 22.1875 11.75 
Q 26.265625 6.109375 33.40625 6.109375 
Q 40.53125 6.109375 44.609375 11.75 
Q 48.6875 17.390625 48.6875 27.296875 
z
" id="DejaVuSans-70"/>
     </defs>
     <g transform="translate(16.139531 294.999375)rotate(-90)scale(0.17 -0.17)">
      <use xlink:href="#DejaVuSans-46"/>
      <use x="57.410156" xlink:href="#DejaVuSans-72"/>
      <use x="98.523438" xlink:href="#DejaVuSans-61"/>
      <use x="159.802734" xlink:href="#DejaVuSans-63"/>
      <use x="214.783203" xlink:href="#DejaVuSans-74"/>
      <use x="253.992188" xlink:href="#DejaVuSans-69"/>
      <use x="281.775391" xlink:href="#DejaVuSans-6f"/>
      <use x="342.957031" xlink:href="#DejaVuSans-6e"/>
      <use x="406.335938" xlink:href="#DejaVuSans-20"/>
      <use x="438.123047" xlink:href="#DejaVuSans-6f"/>
      <use x="499.304688" xlink:href="#DejaVuSans-66"/>
      <use x="534.509766" xlink:href="#DejaVuSans-20"/>
      <use x="566.296875" xlink:href="#DejaVuSans-66"/>
      <use x="601.501953" xlink:href="#DejaVuSans-75"/>
      <use x="664.880859" xlink:href="#DejaVuSans-6e"/>
      <use x="728.259766" xlink:href="#DejaVuSans-63"/>
      <use x="783.240234" xlink:href="#DejaVuSans-74"/>
      <use x="822.449219" xlink:href="#DejaVuSans-69"/>
      <use x="850.232422" xlink:href="#DejaVuSans-6f"/>
      <use x="911.414062" xlink:href="#DejaVuSans-6e"/>
      <use x="974.792969" xlink:href="#DejaVuSans-2c"/>
      <use x="1006.580078" xlink:href="#DejaVuSans-74"/>
      <use x="1045.789062" xlink:href="#DejaVuSans-61"/>
      <use x="1107.068359" xlink:href="#DejaVuSans-72"/>
      <use x="1148.166016" xlink:href="#DejaVuSans-67"/>
      <use x="1211.642578" xlink:href="#DejaVuSans-65"/>
      <use x="1273.166016" xlink:href="#DejaVuSans-74"/>
      <use x="1312.375" xlink:href="#DejaVuSans-20"/>
      <use x="1344.162109" xlink:href="#DejaVuSans-70"/>
      <use x="1407.638672" xlink:href="#DejaVuSans-61"/>
      <use x="1468.917969" xlink:href="#DejaVuSans-69"/>
      <use x="1496.701172" xlink:href="#DejaVuSans-72"/>
      <use x="1537.814453" xlink:href="#DejaVuSans-73"/>
     </g>
    </g>
   </g>
   <g id="line2d_27">
    <defs>
     <path d="M 0 1.5 
C 0.397805 1.5 0.77937 1.341951 1.06066 1.06066 
C 1.341951 0.77937 1.5 0.397805 1.5 0 
C 1.5 -0.397805 1.341951 -0.77937 1.06066 -1.06066 
C 0.77937 -1.341951 0.397805 -1.5 0 -1.5 
C -0.397805 -1.5 -0.77937 -1.341951 -1.06066 -1.06066 
C -1.341951 -0.77937 -1.5 -0.397805 -1.5 0 
C -1.5 0.397805 -1.341951 0.77937 -1.06066 1.06066 
C -0.77937 1.341951 -0.397805 1.5 0 1.5 
z
" id="m9e3068b130" style="stroke:#f5deb3;"/>
    </defs>
    <g>
     <use style="fill:#f5deb3;stroke:#f5deb3;" x="141.262751" xlink:href="#m9e3068b130" y="27.513663"/>
     <use style="fill:#f5deb3;stroke:#f5deb3;" x="141.262751" xlink:href="#m9e3068b130" y="27.513663"/>
    </g>
   </g>
   <g id="line2d_28">
    <defs>
     <path d="M 0 1.5 
C 0.397805 1.5 0.77937 1.341951 1.06066 1.06066 
C 1.341951 0.77937 1.5 0.397805 1.5 0 
C 1.5 -0.397805 1.341951 -0.77937 1.06066 -1.06066 
C 0.77937 -1.341951 0.397805 -1.5 0 -1.5 
C -0.397805 -1.5 -0.77937 -1.341951 -1.06066 -1.06066 
C -1.341951 -0.77937 -1.5 -0.397805 -1.5 0 
C -1.5 0.397805 -1.341951 0.77937 -1.06066 1.06066 
C -0.77937 1.341951 -0.397805 1.5 0 1.5 
z
" id="mdad4ed1f81" style="stroke:#000080;"/>
    </defs>
    <g>
     <use style="fill:#000080;stroke:#000080;" x="257.552851" xlink:href="#mdad4ed1f81" y="27.513663"/>
     <use style="fill:#000080;stroke:#000080;" x="257.552851" xlink:href="#mdad4ed1f81" y="27.513663"/>
    </g>
   </g>
   <g id="line2d_29">
    <path d="M 44.194496 294.88 
L 44.194496 268.667614 
L 56.12 268.667614 
L 56.12 267.619119 
L 77.673619 267.619119 
L 77.673619 266.046375 
L 85.449963 266.046375 
L 85.449963 264.473632 
L 86.946982 264.473632 
L 86.946982 263.425137 
L 103.822018 263.425137 
L 103.822018 261.852394 
L 107.661173 261.852394 
L 107.661173 260.279651 
L 109.687614 260.279651 
L 109.687614 256.609917 
L 110.43577 256.609917 
L 110.43577 255.561421 
L 111.500328 255.561421 
L 111.500328 255.037173 
L 113.450132 255.037173 
L 113.450132 252.415935 
L 115.20129 252.415935 
L 115.20129 245.076467 
L 115.476574 245.076467 
L 115.476574 243.503724 
L 116.535669 243.503724 
L 116.535669 242.455228 
L 118.011276 242.455228 
L 118.011276 240.882485 
L 118.704183 240.882485 
L 118.704183 239.83399 
L 120.629716 239.83399 
L 120.629716 239.309742 
L 121.029847 239.309742 
L 121.029847 237.212751 
L 121.991263 237.212751 
L 121.991263 236.688503 
L 122.177263 236.688503 
L 122.177263 235.640008 
L 122.361274 235.640008 
L 122.361274 234.591512 
L 124.908508 234.591512 
L 124.908508 234.067265 
L 127.264987 234.067265 
L 127.264987 233.543017 
L 128.716065 233.543017 
L 128.716065 233.018769 
L 129.214792 233.018769 
L 129.214792 228.30054 
L 130.170864 228.30054 
L 130.170864 227.776292 
L 130.965949 227.776292 
L 130.965949 227.252044 
L 131.186528 227.252044 
L 131.186528 226.727797 
L 137.377778 226.727797 
L 137.377778 225.679301 
L 140.704707 225.679301 
L 140.704707 225.155053 
L 143.002096 225.155053 
L 143.002096 223.058063 
L 144.122809 223.058063 
L 144.122809 222.533815 
L 147.868713 222.533815 
L 147.868713 222.009567 
L 148.400654 222.009567 
L 148.400654 220.961072 
L 148.640725 220.961072 
L 148.640725 218.864081 
L 150.124495 218.864081 
L 150.124495 217.291338 
L 153.370319 217.291338 
L 153.370319 216.242842 
L 155.866525 216.242842 
L 155.866525 215.718594 
L 166.71469 215.718594 
L 166.71469 214.670099 
L 167.382528 214.670099 
L 167.382528 213.621604 
L 167.502423 213.621604 
L 167.502423 213.097356 
L 168.255662 213.097356 
L 168.255662 212.573108 
L 168.818166 212.573108 
L 168.818166 212.04886 
L 169.09872 212.04886 
L 169.09872 211.524613 
L 170.051848 211.524613 
L 170.051848 211.000365 
L 170.976645 211.000365 
L 170.976645 209.95187 
L 171.267074 209.95187 
L 171.267074 209.427622 
L 173.010316 209.427622 
L 173.010316 208.903374 
L 173.476241 208.903374 
L 173.476241 208.379126 
L 173.755396 208.379126 
L 173.755396 207.854879 
L 176.591156 207.854879 
L 176.598981 204.185145 
L 176.832113 204.185145 
L 176.832113 203.660897 
L 177.475998 203.660897 
L 177.475998 203.136649 
L 177.930908 203.136649 
L 177.930908 202.088154 
L 178.096652 202.088154 
L 178.096652 201.563906 
L 178.409348 201.563906 
L 178.514662 198.41842 
L 179.241061 198.41842 
L 179.241061 197.894172 
L 180.008765 197.894172 
L 180.008765 197.369924 
L 180.97576 197.369924 
L 180.97576 193.175943 
L 181.26452 193.175943 
L 181.26452 192.127447 
L 181.448467 192.127447 
L 181.477953 186.88497 
L 183.892782 186.88497 
L 183.923478 185.836474 
L 184.437094 185.836474 
L 184.437094 185.312227 
L 189.707326 185.312227 
L 189.707326 182.16674 
L 189.856412 182.16674 
L 189.856412 181.642493 
L 190.503048 181.642493 
L 190.603875 175.875768 
L 191.035217 175.875768 
L 191.035217 175.35152 
L 191.698427 175.35152 
L 191.698427 174.827272 
L 193.925736 174.827272 
L 193.925736 173.778777 
L 194.568066 173.778777 
L 194.623042 171.157538 
L 194.69425 171.157538 
L 194.69425 166.963557 
L 195.366935 166.963557 
L 195.366935 166.439309 
L 196.728282 166.439309 
L 196.728282 165.915061 
L 198.457257 165.915061 
L 198.457257 164.866566 
L 199.251237 164.866566 
L 199.339092 162.769575 
L 199.366194 162.769575 
L 199.422348 160.148336 
L 201.044016 160.148336 
L 201.044016 159.099841 
L 202.281471 159.099841 
L 202.281471 158.575593 
L 203.698588 158.575593 
L 203.747102 157.00285 
L 204.401443 157.00285 
L 204.401443 155.954354 
L 204.787291 155.954354 
L 204.855561 152.28462 
L 205.602234 152.28462 
L 205.602234 151.760373 
L 206.488063 151.760373 
L 206.488063 151.236125 
L 207.87133 151.236125 
L 207.980262 143.372409 
L 207.994145 143.372409 
L 208.091018 140.751171 
L 208.804893 140.751171 
L 208.804893 139.702675 
L 208.95349 139.702675 
L 208.998772 138.65418 
L 210.645386 138.65418 
L 210.645386 136.557189 
L 210.766084 136.557189 
L 210.766084 135.508693 
L 211.652444 135.508693 
L 211.652444 134.984446 
L 214.59901 134.984446 
L 214.59901 133.93595 
L 215.364656 133.93595 
L 215.364656 133.411703 
L 215.633806 133.411703 
L 215.633806 132.887455 
L 216.740894 132.887455 
L 216.740894 132.363207 
L 217.96505 132.363207 
L 217.972822 131.314712 
L 219.691044 131.314712 
L 219.691044 130.266216 
L 219.847586 130.266216 
L 219.847586 129.741969 
L 224.368349 129.741969 
L 224.385875 128.169225 
L 225.102103 128.169225 
L 225.102103 127.644978 
L 225.855055 127.644978 
L 225.855055 127.12073 
L 227.259718 127.12073 
L 227.272478 125.547987 
L 227.422815 125.547987 
L 227.422815 125.023739 
L 227.688307 125.023739 
L 227.688307 124.499491 
L 227.92958 124.499491 
L 227.92958 121.878253 
L 228.554106 121.878253 
L 228.625754 116.635776 
L 229.380964 116.635776 
L 229.380964 116.111528 
L 230.017996 116.111528 
L 230.017996 115.58728 
L 230.130567 115.58728 
L 230.130567 115.063032 
L 230.423895 115.063032 
L 230.449911 114.014537 
L 230.976731 114.014537 
L 230.976731 113.490289 
L 233.059145 113.490289 
L 233.059145 112.966042 
L 233.47698 112.966042 
L 233.47698 112.441794 
L 233.834969 112.441794 
L 233.834969 111.917546 
L 234.02358 111.917546 
L 234.02358 110.869051 
L 234.170789 110.869051 
L 234.170789 109.820555 
L 234.449287 109.820555 
L 234.550922 106.150821 
L 234.809848 106.150821 
L 234.809848 105.102326 
L 235.303916 105.102326 
L 235.303916 104.05383 
L 235.602614 104.05383 
L 235.602614 103.529583 
L 237.003553 103.529583 
L 237.003553 103.005335 
L 237.339814 103.005335 
L 237.339814 101.432592 
L 237.486321 101.432592 
L 237.486321 100.908344 
L 237.609043 100.908344 
L 237.712741 94.093124 
L 237.792171 94.093124 
L 237.869014 91.996133 
L 237.942417 91.996133 
L 237.952815 86.229408 
L 238.062819 86.229408 
L 238.127085 83.608169 
L 238.309575 83.608169 
L 238.309575 83.083922 
L 238.450663 83.083922 
L 238.450663 82.035426 
L 238.759618 82.035426 
L 238.759618 81.511178 
L 239.787829 81.511178 
L 239.787829 79.938435 
L 240.623745 79.938435 
L 240.623745 78.88994 
L 242.217348 78.88994 
L 242.225286 76.268701 
L 242.329176 76.268701 
L 242.401733 69.453481 
L 242.824267 69.453481 
L 242.838424 68.404985 
L 243.94982 68.404985 
L 243.94982 67.35649 
L 244.304783 67.35649 
L 244.358361 58.444279 
L 244.65227 58.444279 
L 244.65227 57.920031 
L 245.815314 57.920031 
L 245.874167 56.871536 
L 246.34087 56.871536 
L 246.34087 56.347288 
L 246.971595 56.347288 
L 246.971595 54.250297 
L 247.145506 54.250297 
L 247.155742 48.483572 
L 247.257387 48.483572 
L 247.323835 46.386581 
L 247.563323 46.386581 
L 247.563323 42.716847 
L 248.538585 42.716847 
L 248.559013 40.619856 
L 249.32366 40.619856 
L 249.385332 36.950122 
L 249.871904 36.950122 
L 249.871904 36.425875 
L 250.330344 36.425875 
L 250.330344 35.901627 
L 250.745159 35.901627 
L 250.745159 35.377379 
L 250.909138 35.377379 
L 250.909138 34.328884 
L 252.109483 34.328884 
L 252.109483 33.804636 
L 253.419128 33.804636 
L 253.419128 33.280388 
L 253.779683 33.280388 
L 253.784707 31.707645 
L 254.134306 31.707645 
L 254.134306 31.183397 
L 254.764594 31.183397 
L 254.764594 30.134902 
L 255.12203 30.134902 
L 255.12203 29.610654 
L 255.861663 29.610654 
L 255.861663 29.086407 
L 257.148046 29.086407 
L 257.148046 28.562159 
L 257.325407 28.562159 
L 257.325407 28.037911 
L 257.552851 28.037911 
L 257.552851 27.513663 
L 333.429677 27.513663 
L 333.429677 27.513663 
" style="fill:none;stroke:#000080;stroke-linecap:square;stroke-width:1.5;"/>
   </g>
   <g id="line2d_30">
    <defs>
     <path d="M 0 6 
C 1.591219 6 3.117479 5.367802 4.242641 4.242641 
C 5.367802 3.117479 6 1.591219 6 0 
C 6 -1.591219 5.367802 -3.117479 4.242641 -4.242641 
C 3.117479 -5.367802 1.591219 -6 0 -6 
C -1.591219 -6 -3.117479 -5.367802 -4.242641 -4.242641 
C -5.367802 -3.117479 -6 -1.591219 -6 0 
C -6 1.591219 -5.367802 3.117479 -4.242641 4.242641 
C -3.117479 5.367802 -1.591219 6 0 6 
z
" id="mb03793f05a" style="stroke:#000080;stroke-width:1.5;"/>
    </defs>
    <g>
     <use style="fill-opacity:0;stroke:#000080;stroke-width:1.5;" x="140.704707" xlink:href="#mb03793f05a" y="225.679301"/>
     <use style="fill-opacity:0;stroke:#000080;stroke-width:1.5;" x="191.698427" xlink:href="#mb03793f05a" y="174.827272"/>
     <use style="fill-opacity:0;stroke:#000080;stroke-width:1.5;" x="244.358361" xlink:href="#mb03793f05a" y="60.017022"/>
     <use style="fill-opacity:0;stroke:#000080;stroke-width:1.5;" x="257.552851" xlink:href="#mb03793f05a" y="27.513663"/>
     <use style="fill-opacity:0;stroke:#000080;stroke-width:1.5;" x="257.552851" xlink:href="#mb03793f05a" y="27.513663"/>
     <use style="fill-opacity:0;stroke:#000080;stroke-width:1.5;" x="333.429677" xlink:href="#mb03793f05a" y="27.513663"/>
    </g>
   </g>
   <g id="line2d_31">
    <path style="fill:none;stroke:#000080;stroke-linecap:square;stroke-width:1.5;"/>
    <g/>
   </g>
   <g id="line2d_32">
    <defs>
     <path d="M 0 1.5 
C 0.397805 1.5 0.77937 1.341951 1.06066 1.06066 
C 1.341951 0.77937 1.5 0.397805 1.5 0 
C 1.5 -0.397805 1.341951 -0.77937 1.06066 -1.06066 
C 0.77937 -1.341951 0.397805 -1.5 0 -1.5 
C -0.397805 -1.5 -0.77937 -1.341951 -1.06066 -1.06066 
C -1.341951 -0.77937 -1.5 -0.397805 -1.5 0 
C -1.5 0.397805 -1.341951 0.77937 -1.06066 1.06066 
C -0.77937 1.341951 -0.397805 1.5 0 1.5 
z
" id="m33e5346013" style="stroke:#ff00ff;"/>
    </defs>
    <g>
     <use style="fill:#ff00ff;stroke:#ff00ff;" x="326.204542" xlink:href="#m33e5346013" y="27.513663"/>
     <use style="fill:#ff00ff;stroke:#ff00ff;" x="326.204542" xlink:href="#m33e5346013" y="27.513663"/>
    </g>
   </g>
   <g id="line2d_33">
    <path d="M 44.194496 294.88 
L 44.194496 272.861596 
L 56.12 272.861596 
L 56.12 268.143366 
L 63.095973 268.143366 
L 63.095973 266.570623 
L 68.045504 266.570623 
L 68.045504 263.949385 
L 75.021477 263.949385 
L 75.021477 262.376641 
L 77.673619 262.376641 
L 77.673619 259.231155 
L 79.971009 259.231155 
L 79.971009 257.658412 
L 83.810164 257.658412 
L 83.810164 256.085669 
L 86.946982 256.085669 
L 86.946982 254.512926 
L 88.324106 254.512926 
L 88.324106 252.940182 
L 90.786137 252.940182 
L 90.786137 248.221953 
L 92.939552 248.221953 
L 92.939552 247.173458 
L 93.922955 247.173458 
L 93.922955 246.124962 
L 94.853174 246.124962 
L 94.853174 245.600714 
L 95.735668 245.600714 
L 95.735668 245.076467 
L 97.375467 245.076467 
L 97.375467 244.552219 
L 100.24961 244.552219 
L 100.24961 244.027971 
L 100.898928 244.027971 
L 100.898928 241.93098 
L 101.524628 241.93098 
L 101.524628 240.882485 
L 105.363783 240.882485 
L 105.363783 238.785494 
L 108.086006 238.785494 
L 108.086006 235.11576 
L 108.500601 235.11576 
L 108.500601 233.543017 
L 109.687614 233.543017 
L 109.687614 229.873283 
L 112.175115 229.873283 
L 112.175115 229.349035 
L 120.830944 229.349035 
L 120.830944 228.824787 
L 121.991263 228.824787 
L 121.991263 227.776292 
L 125.979378 227.776292 
L 125.979378 225.155053 
L 130.05422 225.155053 
L 130.05422 224.630806 
L 130.170864 224.630806 
L 130.170864 223.58231 
L 132.55522 223.58231 
L 132.55522 222.533815 
L 140.5782 222.533815 
L 140.5782 221.485319 
L 140.704707 221.485319 
L 140.704707 220.961072 
L 141.262751 220.961072 
L 141.262751 220.436824 
L 141.921105 220.436824 
L 141.921105 217.815585 
L 143.491367 217.815585 
L 143.491367 215.194347 
L 143.75729 215.194347 
L 143.75729 214.670099 
L 144.480724 214.670099 
L 144.480724 213.621604 
L 145.223496 213.621604 
L 145.223496 212.573108 
L 146.61925 212.573108 
L 146.61925 212.04886 
L 150.088005 212.04886 
L 150.088005 211.524613 
L 150.233501 211.524613 
L 150.233501 209.427622 
L 152.755795 209.427622 
L 152.755795 208.903374 
L 158.744684 208.903374 
L 158.744684 204.709392 
L 164.602917 204.709392 
L 164.602917 203.660897 
L 166.206969 203.660897 
L 166.206969 203.136649 
L 166.908161 203.136649 
L 166.908161 202.088154 
L 168.595366 202.088154 
L 168.60782 197.894172 
L 173.096846 197.894172 
L 173.135164 194.224438 
L 177.281591 194.224438 
L 177.37159 190.554704 
L 178.146781 190.554704 
L 178.146781 187.933465 
L 178.507661 187.933465 
L 178.507661 186.88497 
L 183.213898 186.88497 
L 183.213898 184.787979 
L 184.853697 184.787979 
L 184.853697 183.739484 
L 186.505378 183.739484 
L 186.505378 183.215236 
L 188.465706 183.215236 
L 188.465706 182.16674 
L 188.811563 182.16674 
L 188.838473 172.206034 
L 190.278419 172.206034 
L 190.348931 165.390813 
L 190.741984 165.390813 
L 190.741984 164.866566 
L 191.863533 164.866566 
L 191.863533 162.245327 
L 195.181963 162.245327 
L 195.181963 160.148336 
L 195.343264 160.148336 
L 195.343264 157.00285 
L 195.62001 157.00285 
L 195.62001 155.430107 
L 196.178054 155.430107 
L 196.178054 154.905859 
L 197.117244 154.905859 
L 197.117244 154.381611 
L 197.287334 154.381611 
L 197.287334 153.857364 
L 197.409139 153.857364 
L 197.409139 152.808868 
L 199.162931 152.808868 
L 199.162931 151.760373 
L 201.365997 151.760373 
L 201.365997 151.236125 
L 201.864989 151.236125 
L 201.864989 148.090639 
L 204.534622 148.090639 
L 204.534622 142.323914 
L 206.850514 142.323914 
L 206.850514 134.984446 
L 206.968761 134.984446 
L 206.968761 134.460198 
L 207.577858 134.460198 
L 207.577858 132.363207 
L 208.715598 132.363207 
L 208.715598 131.838959 
L 209.418467 131.838959 
L 209.418467 131.314712 
L 210.026613 131.314712 
L 210.026613 129.217721 
L 211.031428 129.217721 
L 211.031428 123.450996 
L 212.769003 123.450996 
L 212.769003 122.4025 
L 213.362755 122.4025 
L 213.362755 121.354005 
L 214.186741 121.354005 
L 214.186741 120.829757 
L 217.428868 120.829757 
L 217.428868 120.30551 
L 218.696281 120.30551 
L 218.696281 116.635776 
L 221.895411 116.635776 
L 221.895411 116.111528 
L 223.249982 116.111528 
L 223.249982 114.538785 
L 227.461517 114.538785 
L 227.461517 113.490289 
L 229.188438 113.490289 
L 229.188438 111.393298 
L 229.335406 111.393298 
L 229.335406 106.675069 
L 231.762635 106.675069 
L 231.762635 105.626573 
L 232.087253 105.626573 
L 232.087253 104.578078 
L 232.38906 104.578078 
L 232.38906 102.481087 
L 235.338192 102.481087 
L 235.338192 101.956839 
L 254.509161 101.956839 
L 254.509161 100.908344 
L 254.755269 100.908344 
L 254.755269 99.859849 
L 254.988706 99.859849 
L 255.080074 98.811353 
L 255.232714 98.811353 
L 255.232714 97.23861 
L 255.362399 97.23861 
L 255.406641 93.568876 
L 255.569138 93.568876 
L 255.642302 90.42339 
L 255.778524 90.42339 
L 255.778524 88.850646 
L 256.349884 88.850646 
L 256.349884 88.326399 
L 257.585594 88.326399 
L 257.585594 87.802151 
L 257.845941 87.802151 
L 257.925923 84.656665 
L 258.483197 84.656665 
L 258.548724 82.559674 
L 266.504813 82.559674 
L 266.504813 82.035426 
L 266.767172 82.035426 
L 266.789987 80.986931 
L 266.911992 80.986931 
L 266.982884 78.365692 
L 267.210468 78.365692 
L 267.210468 77.841444 
L 267.948731 77.841444 
L 267.948731 76.792949 
L 268.091767 76.792949 
L 268.091767 76.268701 
L 268.445987 76.268701 
L 268.48274 74.17171 
L 268.659213 74.17171 
L 268.659213 72.598967 
L 273.566005 72.598967 
L 273.663685 71.026224 
L 273.711599 71.026224 
L 273.711599 69.453481 
L 273.865847 69.453481 
L 273.915252 68.404985 
L 274.05663 68.404985 
L 274.05663 67.880738 
L 274.370713 67.880738 
L 274.370713 67.35649 
L 274.7146 67.35649 
L 274.740139 65.783747 
L 274.862997 65.783747 
L 274.862997 64.735251 
L 278.392434 64.735251 
L 278.392434 64.211004 
L 278.536156 64.211004 
L 278.536156 61.589765 
L 279.318806 61.589765 
L 279.318806 61.065517 
L 279.58673 61.065517 
L 279.58673 60.54127 
L 280.538071 60.54127 
L 280.538071 60.017022 
L 282.270819 60.017022 
L 282.270819 58.968526 
L 283.149041 58.968526 
L 283.149041 58.444279 
L 285.386239 58.444279 
L 285.386239 57.920031 
L 285.723792 57.920031 
L 285.774833 55.298792 
L 287.938948 55.298792 
L 288.002243 54.250297 
L 288.292581 54.250297 
L 288.336552 53.201802 
L 288.513498 53.201802 
L 288.616055 52.153306 
L 290.217021 52.153306 
L 290.272479 51.104811 
L 290.527191 51.104811 
L 290.527191 50.056315 
L 290.721351 50.056315 
L 290.721351 49.532068 
L 292.504644 49.532068 
L 292.504644 49.00782 
L 292.677829 49.00782 
L 292.75839 47.959324 
L 294.073547 47.959324 
L 294.073547 47.435077 
L 294.278067 47.435077 
L 294.278067 46.910829 
L 294.434366 46.910829 
L 294.507125 45.338086 
L 295.699475 45.338086 
L 295.699475 44.813838 
L 295.885651 44.813838 
L 295.885651 44.28959 
L 296.028066 44.28959 
L 296.028066 43.765343 
L 297.184927 43.765343 
L 297.184927 42.716847 
L 297.381758 42.716847 
L 297.381758 41.668352 
L 298.518004 41.668352 
L 298.552257 40.619856 
L 298.831045 40.619856 
L 298.887422 39.571361 
L 299.818875 39.571361 
L 299.818875 39.047113 
L 300.078024 39.047113 
L 300.078024 37.998618 
L 302.304933 37.998618 
L 302.304933 37.47437 
L 303.353957 37.47437 
L 303.353957 36.950122 
L 304.118419 36.950122 
L 304.118419 36.425875 
L 304.23279 36.425875 
L 304.298491 34.853131 
L 304.361594 34.853131 
L 304.361594 34.328884 
L 306.104782 34.328884 
L 306.104782 33.280388 
L 306.931968 33.280388 
L 306.967196 32.231893 
L 307.663461 32.231893 
L 307.663461 31.707645 
L 309.028067 31.707645 
L 309.028067 31.183397 
L 312.291537 31.183397 
L 312.291537 30.65915 
L 313.43554 30.65915 
L 313.43554 30.134902 
L 313.553467 30.134902 
L 313.553467 29.610654 
L 315.643671 29.610654 
L 315.643671 29.086407 
L 318.636742 29.086407 
L 318.636742 28.562159 
L 321.016537 28.562159 
L 321.016537 28.037911 
L 326.204542 28.037911 
L 326.204542 27.513663 
L 333.429677 27.513663 
L 333.429677 27.513663 
" style="fill:none;stroke:#ff00ff;stroke-linecap:square;stroke-width:1.5;"/>
   </g>
   <g id="line2d_34">
    <defs>
     <path d="M -0 8.485281 
L 5.091169 0 
L 0 -8.485281 
L -5.091169 -0 
z
" id="m0a380253e8" style="stroke:#ff00ff;stroke-linejoin:miter;stroke-width:1.5;"/>
    </defs>
    <g>
     <use style="fill-opacity:0;stroke:#ff00ff;stroke-linejoin:miter;stroke-width:1.5;" x="101.524628" xlink:href="#m0a380253e8" y="241.93098"/>
     <use style="fill-opacity:0;stroke:#ff00ff;stroke-linejoin:miter;stroke-width:1.5;" x="158.744684" xlink:href="#m0a380253e8" y="208.903374"/>
     <use style="fill-opacity:0;stroke:#ff00ff;stroke-linejoin:miter;stroke-width:1.5;" x="218.696281" xlink:href="#m0a380253e8" y="120.30551"/>
     <use style="fill-opacity:0;stroke:#ff00ff;stroke-linejoin:miter;stroke-width:1.5;" x="268.659213" xlink:href="#m0a380253e8" y="74.17171"/>
     <use style="fill-opacity:0;stroke:#ff00ff;stroke-linejoin:miter;stroke-width:1.5;" x="326.204542" xlink:href="#m0a380253e8" y="27.513663"/>
     <use style="fill-opacity:0;stroke:#ff00ff;stroke-linejoin:miter;stroke-width:1.5;" x="333.429677" xlink:href="#m0a380253e8" y="27.513663"/>
    </g>
   </g>
   <g id="line2d_35">
    <path style="fill:none;stroke:#ff00ff;stroke-linecap:square;stroke-width:1.5;"/>
    <g/>
   </g>
   <g id="line2d_36">
    <path clip-path="url(#p0e74cee2f0)" d="M 254.304682 101.956839 
" style="fill:none;stroke:#ff00ff;stroke-linecap:square;stroke-width:1.5;"/>
    <defs>
     <path d="M -12 12 
L 12 -12 
M -12 -12 
L 12 12 
" id="m246ba02222" style="stroke:#ff00ff;stroke-width:3;"/>
    </defs>
    <g clip-path="url(#p0e74cee2f0)">
     <use style="fill:#ff00ff;stroke:#ff00ff;stroke-width:3;" x="254.304682" xlink:href="#m246ba02222" y="101.956839"/>
    </g>
   </g>
   <g id="line2d_37">
    <defs>
     <path d="M 0 1.5 
C 0.397805 1.5 0.77937 1.341951 1.06066 1.06066 
C 1.341951 0.77937 1.5 0.397805 1.5 0 
C 1.5 -0.397805 1.341951 -0.77937 1.06066 -1.06066 
C 0.77937 -1.341951 0.397805 -1.5 0 -1.5 
C -0.397805 -1.5 -0.77937 -1.341951 -1.06066 -1.06066 
C -1.341951 -0.77937 -1.5 -0.397805 -1.5 0 
C -1.5 0.397805 -1.341951 0.77937 -1.06066 1.06066 
C -0.77937 1.341951 -0.397805 1.5 0 1.5 
z
" id="m0934e2181b" style="stroke:#ffa500;"/>
    </defs>
    <g>
     <use style="fill:#ffa500;stroke:#ffa500;" x="232.699775" xlink:href="#m0934e2181b" y="27.513663"/>
     <use style="fill:#ffa500;stroke:#ffa500;" x="232.699775" xlink:href="#m0934e2181b" y="27.513663"/>
    </g>
   </g>
   <g id="line2d_38">
    <path d="M 44.194496 294.88 
L 44.194496 273.910091 
L 56.12 273.910091 
L 56.12 268.143366 
L 63.095973 268.143366 
L 63.095973 264.473632 
L 68.045504 264.473632 
L 68.045504 263.949385 
L 75.021477 263.949385 
L 75.021477 263.425137 
L 79.971009 263.425137 
L 79.971009 261.328146 
L 81.99745 261.328146 
L 81.99745 260.803898 
L 83.810164 260.803898 
L 83.810164 260.279651 
L 85.449963 260.279651 
L 85.449963 259.755403 
L 92.939552 259.755403 
L 92.939552 257.134164 
L 93.922955 257.134164 
L 93.922955 253.46443 
L 94.853174 253.46443 
L 94.853174 252.415935 
L 97.375467 252.415935 
L 97.375467 251.891687 
L 103.822018 251.891687 
L 103.822018 251.367439 
L 104.35144 251.367439 
L 104.35144 248.746201 
L 119.586677 248.746201 
L 119.586677 246.64921 
L 119.800405 246.64921 
L 119.800405 244.552219 
L 120.426105 244.552219 
L 120.426105 242.455228 
L 120.629716 242.455228 
L 120.629716 241.93098 
L 120.830944 241.93098 
L 120.830944 240.358237 
L 121.226476 240.358237 
L 121.226476 238.261246 
L 124.749936 238.261246 
L 124.749936 237.736999 
L 131.186528 237.736999 
L 131.186528 237.212751 
L 131.512181 237.212751 
L 131.512181 236.688503 
L 132.145561 236.688503 
L 132.248894 233.543017 
L 132.453716 233.543017 
L 132.453716 231.970274 
L 133.442774 231.970274 
L 133.442774 228.824787 
L 133.728734 228.824787 
L 133.728734 228.30054 
L 133.916767 228.30054 
L 133.916767 227.776292 
L 134.102767 227.776292 
L 134.102767 227.252044 
L 134.286778 227.252044 
L 134.286778 226.727797 
L 134.82729 226.727797 
L 134.82729 225.679301 
L 135.091308 225.679301 
L 135.091308 225.155053 
L 139.327583 225.155053 
L 139.327583 223.58231 
L 141.565129 223.58231 
L 141.565129 222.533815 
L 142.441628 222.533815 
L 142.441628 222.009567 
L 142.555192 222.009567 
L 142.555192 221.485319 
L 143.329818 221.485319 
L 143.329818 220.961072 
L 143.651414 220.961072 
L 143.75729 217.815585 
L 143.862519 217.815585 
L 143.914893 216.76709 
L 144.019165 216.76709 
L 144.122809 214.145851 
L 144.480724 214.145851 
L 144.581633 211.524613 
L 144.731895 211.524613 
L 144.731895 211.000365 
L 144.979451 211.000365 
L 144.979451 208.379126 
L 147.785396 208.379126 
L 147.785396 207.854879 
L 148.116269 207.854879 
L 148.116269 207.330631 
L 148.48105 207.330631 
L 148.48105 206.806383 
L 150.873426 206.806383 
L 150.873426 205.757888 
L 151.047038 205.757888 
L 151.047038 204.709392 
L 151.321225 204.709392 
L 151.422929 202.088154 
L 151.691237 202.088154 
L 151.790783 201.039658 
L 151.988164 201.039658 
L 151.988164 199.991163 
L 152.598671 199.991163 
L 152.598671 199.466915 
L 152.942468 199.466915 
L 152.942468 198.942667 
L 157.341774 198.942667 
L 157.341774 195.797181 
L 157.626944 195.797181 
L 157.626944 194.224438 
L 157.861027 194.224438 
L 157.861027 193.70019 
L 164.790438 193.70019 
L 164.790438 193.175943 
L 165.189854 193.175943 
L 165.189854 192.651695 
L 165.801448 192.651695 
L 165.801448 191.603199 
L 168.707127 191.603199 
L 168.707127 191.078952 
L 170.725315 191.078952 
L 170.725315 190.554704 
L 176.259219 190.554704 
L 176.32294 185.312227 
L 176.378504 185.312227 
L 176.378504 184.787979 
L 176.677043 184.787979 
L 176.677043 184.263731 
L 176.801211 184.263731 
L 176.878363 180.06975 
L 176.932164 180.06975 
L 176.993446 177.448511 
L 177.498289 177.448511 
L 177.498289 176.924263 
L 178.060757 176.924263 
L 178.060757 175.875768 
L 178.702619 175.875768 
L 178.80616 174.303025 
L 178.867986 174.303025 
L 178.950077 166.963557 
L 179.126608 166.963557 
L 179.200753 162.245327 
L 179.281275 162.245327 
L 179.301347 160.148336 
L 179.427927 160.148336 
L 179.494176 156.478602 
L 179.76967 156.478602 
L 179.847579 154.905859 
L 184.060934 154.905859 
L 184.157009 150.18763 
L 184.187237 150.18763 
L 184.217412 145.993648 
L 184.347563 145.993648 
L 184.347563 144.420905 
L 184.516288 144.420905 
L 184.516288 143.896657 
L 184.629495 143.896657 
L 184.658905 141.275418 
L 187.123221 141.275418 
L 187.144427 139.702675 
L 187.329926 139.702675 
L 187.413588 133.411703 
L 187.6251 133.411703 
L 187.6251 132.887455 
L 187.756498 132.887455 
L 187.756498 131.314712 
L 188.398845 131.314712 
L 188.449997 129.741969 
L 189.878122 129.741969 
L 189.910635 128.693473 
L 190.913076 128.693473 
L 190.913076 128.169225 
L 191.567815 128.169225 
L 191.567815 126.072235 
L 191.756881 126.072235 
L 191.853865 119.257014 
L 191.869976 119.257014 
L 191.869976 117.684271 
L 192.058954 117.684271 
L 192.058954 116.635776 
L 193.9828 116.635776 
L 194.090704 111.393298 
L 194.096364 111.393298 
L 194.118987 106.675069 
L 194.429851 106.675069 
L 194.540512 99.859849 
L 194.548783 99.859849 
L 194.650465 84.132417 
L 194.661422 84.132417 
L 194.69425 80.986931 
L 196.00671 80.986931 
L 196.110224 77.317197 
L 196.122806 77.317197 
L 196.200605 73.123215 
L 196.235625 73.123215 
L 196.235625 72.598967 
L 197.924196 72.598967 
L 198.030337 63.162508 
L 200.609638 63.162508 
L 200.609638 62.638261 
L 200.806179 62.638261 
L 200.806179 62.114013 
L 201.119435 62.114013 
L 201.119435 61.589765 
L 203.935012 61.589765 
L 203.935012 61.065517 
L 204.08926 61.065517 
L 204.097174 60.017022 
L 204.22958 60.017022 
L 204.240568 58.444279 
L 204.373437 58.444279 
L 204.373437 57.920031 
L 204.491375 57.920031 
L 204.542334 56.871536 
L 204.603901 56.871536 
L 204.603901 56.347288 
L 204.770561 56.347288 
L 204.83435 55.298792 
L 205.725029 55.298792 
L 205.725029 54.774545 
L 205.844094 54.774545 
L 205.885502 53.726049 
L 206.041666 53.726049 
L 206.102328 52.677554 
L 206.225812 52.677554 
L 206.225812 52.153306 
L 206.682501 52.153306 
L 206.682501 51.629058 
L 207.03692 51.629058 
L 207.068902 50.580563 
L 208.169873 50.580563 
L 208.271972 49.532068 
L 208.309175 49.532068 
L 208.309175 49.00782 
L 209.157508 49.00782 
L 209.186961 47.435077 
L 209.286727 47.435077 
L 209.396387 44.813838 
L 209.398712 44.813838 
L 209.489167 42.192599 
L 209.534216 42.192599 
L 209.537677 41.144104 
L 209.658357 41.144104 
L 209.709819 39.047113 
L 210.0367 39.047113 
L 210.074751 37.47437 
L 210.309031 37.47437 
L 210.395933 35.377379 
L 210.898735 35.377379 
L 210.926419 33.804636 
L 211.031428 33.804636 
L 211.044112 32.231893 
L 212.30297 32.231893 
L 212.30297 31.707645 
L 213.998215 31.707645 
L 214.068379 30.65915 
L 215.286386 30.65915 
L 215.286386 30.134902 
L 217.31769 30.134902 
L 217.31769 29.610654 
L 219.467781 29.610654 
L 219.467781 29.086407 
L 221.537987 29.086407 
L 221.537987 28.562159 
L 222.679772 28.562159 
L 222.679772 28.037911 
L 232.699775 28.037911 
L 232.699775 27.513663 
L 333.429677 27.513663 
L 333.429677 27.513663 
" style="fill:none;stroke:#ffa500;stroke-linecap:square;stroke-width:1.5;"/>
   </g>
   <g id="line2d_39">
    <defs>
     <path d="M 0 -6 
L -1.347084 -1.854102 
L -5.706339 -1.854102 
L -2.179628 0.708204 
L -3.526712 4.854102 
L -0 2.291796 
L 3.526712 4.854102 
L 2.179628 0.708204 
L 5.706339 -1.854102 
L 1.347084 -1.854102 
z
" id="m7586dbedfc" style="stroke:#ffa500;stroke-linejoin:bevel;stroke-width:1.5;"/>
    </defs>
    <g>
     <use style="fill-opacity:0;stroke:#ffa500;stroke-linejoin:bevel;stroke-width:1.5;" x="81.99745" xlink:href="#m7586dbedfc" y="260.803898"/>
     <use style="fill-opacity:0;stroke:#ffa500;stroke-linejoin:bevel;stroke-width:1.5;" x="164.790438" xlink:href="#m7586dbedfc" y="193.175943"/>
     <use style="fill-opacity:0;stroke:#ffa500;stroke-linejoin:bevel;stroke-width:1.5;" x="194.69425" xlink:href="#m7586dbedfc" y="80.986931"/>
     <use style="fill-opacity:0;stroke:#ffa500;stroke-linejoin:bevel;stroke-width:1.5;" x="232.699775" xlink:href="#m7586dbedfc" y="28.037911"/>
     <use style="fill-opacity:0;stroke:#ffa500;stroke-linejoin:bevel;stroke-width:1.5;" x="232.699775" xlink:href="#m7586dbedfc" y="27.513663"/>
     <use style="fill-opacity:0;stroke:#ffa500;stroke-linejoin:bevel;stroke-width:1.5;" x="333.429677" xlink:href="#m7586dbedfc" y="27.513663"/>
    </g>
   </g>
   <g id="line2d_40">
    <path style="fill:none;stroke:#ffa500;stroke-linecap:square;stroke-width:1.5;"/>
    <g/>
   </g>
   <g id="line2d_41">
    <path clip-path="url(#p0e74cee2f0)" d="M 200.142118 63.162508 
" style="fill:none;stroke:#ffa500;stroke-linecap:square;stroke-width:1.5;"/>
    <defs>
     <path d="M -12 12 
L 12 -12 
M -12 -12 
L 12 12 
" id="m7763720900" style="stroke:#ffa500;stroke-width:3;"/>
    </defs>
    <g clip-path="url(#p0e74cee2f0)">
     <use style="fill:#ffa500;stroke:#ffa500;stroke-width:3;" x="200.142118" xlink:href="#m7763720900" y="63.162508"/>
    </g>
   </g>
   <g id="line2d_42">
    <defs>
     <path d="M 0 1.5 
C 0.397805 1.5 0.77937 1.341951 1.06066 1.06066 
C 1.341951 0.77937 1.5 0.397805 1.5 0 
C 1.5 -0.397805 1.341951 -0.77937 1.06066 -1.06066 
C 0.77937 -1.341951 0.397805 -1.5 0 -1.5 
C -0.397805 -1.5 -0.77937 -1.341951 -1.06066 -1.06066 
C -1.341951 -0.77937 -1.5 -0.397805 -1.5 0 
C -1.5 0.397805 -1.341951 0.77937 -1.06066 1.06066 
C -0.77937 1.341951 -0.397805 1.5 0 1.5 
z
" id="m314b0d2e27" style="stroke:#6495ed;"/>
    </defs>
    <g>
     <use style="fill:#6495ed;stroke:#6495ed;" x="44.194496" xlink:href="#m314b0d2e27" y="221.485319"/>
     <use style="fill:#6495ed;stroke:#6495ed;" x="44.194496" xlink:href="#m314b0d2e27" y="221.485319"/>
    </g>
   </g>
   <g id="line2d_43">
    <path d="M 44.194496 294.88 
L 44.194496 221.485319 
L 333.429677 221.485319 
" style="fill:none;stroke:#6495ed;stroke-linecap:square;stroke-width:1.5;"/>
   </g>
   <g id="line2d_44">
    <defs>
     <path d="M -0 6 
L 6 -6 
L -6 -6 
z
" id="m0a2096a678" style="stroke:#6495ed;stroke-linejoin:miter;stroke-width:1.5;"/>
    </defs>
    <g>
     <use style="fill-opacity:0;stroke:#6495ed;stroke-linejoin:miter;stroke-width:1.5;" x="333.429677" xlink:href="#m0a2096a678" y="221.485319"/>
    </g>
   </g>
   <g id="line2d_45">
    <path style="fill:none;stroke:#6495ed;stroke-linecap:square;stroke-width:1.5;"/>
    <g/>
   </g>
   <g id="line2d_46">
    <path clip-path="url(#p0e74cee2f0)" d="M 81.99745 221.485319 
" style="fill:none;stroke:#6495ed;stroke-linecap:square;stroke-width:1.5;"/>
    <defs>
     <path d="M -12 12 
L 12 -12 
M -12 -12 
L 12 12 
" id="m20504a0ff4" style="stroke:#6495ed;stroke-width:3;"/>
    </defs>
    <g clip-path="url(#p0e74cee2f0)">
     <use style="fill:#6495ed;stroke:#6495ed;stroke-width:3;" x="81.99745" xlink:href="#m20504a0ff4" y="221.485319"/>
    </g>
   </g>
   <g id="line2d_47">
    <path d="M 333.429677 221.485319 
L 363.933742 289.532673 
" style="fill:none;stroke:#6495ed;stroke-linecap:square;stroke-width:1.5;"/>
    <g>
     <use style="fill-opacity:0;stroke:#6495ed;stroke-linejoin:miter;stroke-width:1.5;" x="333.429677" xlink:href="#m0a2096a678" y="221.485319"/>
     <use style="fill-opacity:0;stroke:#6495ed;stroke-linejoin:miter;stroke-width:1.5;" x="363.933742" xlink:href="#m0a2096a678" y="289.532673"/>
    </g>
   </g>
   <g id="line2d_48">
    <path d="M 333.429677 27.513663 
L 363.933742 225.364752 
" style="fill:none;stroke:#ff00ff;stroke-linecap:square;stroke-width:1.5;"/>
    <g>
     <use style="fill-opacity:0;stroke:#ff00ff;stroke-linejoin:miter;stroke-width:1.5;" x="333.429677" xlink:href="#m0a380253e8" y="27.513663"/>
     <use style="fill-opacity:0;stroke:#ff00ff;stroke-linejoin:miter;stroke-width:1.5;" x="363.933742" xlink:href="#m0a380253e8" y="225.364752"/>
    </g>
   </g>
   <g id="line2d_49">
    <path d="M 333.429677 27.513663 
L 363.933742 161.196832 
" style="fill:none;stroke:#000080;stroke-linecap:square;stroke-width:1.5;"/>
    <g>
     <use style="fill-opacity:0;stroke:#000080;stroke-width:1.5;" x="333.429677" xlink:href="#mb03793f05a" y="27.513663"/>
     <use style="fill-opacity:0;stroke:#000080;stroke-width:1.5;" x="363.933742" xlink:href="#mb03793f05a" y="161.196832"/>
    </g>
   </g>
   <g id="line2d_50">
    <path d="M 333.429677 27.513663 
L 363.933742 97.028911 
" style="fill:none;stroke:#ffa500;stroke-linecap:square;stroke-width:1.5;"/>
    <g>
     <use style="fill-opacity:0;stroke:#ffa500;stroke-linejoin:bevel;stroke-width:1.5;" x="333.429677" xlink:href="#m7586dbedfc" y="27.513663"/>
     <use style="fill-opacity:0;stroke:#ffa500;stroke-linejoin:bevel;stroke-width:1.5;" x="363.933742" xlink:href="#m7586dbedfc" y="97.028911"/>
    </g>
   </g>
   <g id="line2d_51">
    <path d="M 333.429677 294.88 
L 333.429677 27.513663 
" style="fill:none;stroke:#000000;stroke-linecap:square;stroke-width:1.5;"/>
   </g>
   <g id="patch_3">
    <path d="M 56.12 294.88 
L 56.12 24.84 
" style="fill:none;stroke:#000000;stroke-linecap:square;stroke-linejoin:miter;stroke-width:0.8;"/>
   </g>
   <g id="patch_4">
    <path d="M 399.984 294.88 
L 399.984 24.84 
" style="fill:none;stroke:#000000;stroke-linecap:square;stroke-linejoin:miter;stroke-width:0.8;"/>
   </g>
   <g id="patch_5">
    <path d="M 56.12 294.88 
L 399.984 294.88 
" style="fill:none;stroke:#000000;stroke-linecap:square;stroke-linejoin:miter;stroke-width:0.8;"/>
   </g>
   <g id="patch_6">
    <path d="M 56.12 24.84 
L 399.984 24.84 
" style="fill:none;stroke:#000000;stroke-linecap:square;stroke-linejoin:miter;stroke-width:0.8;"/>
   </g>
   <g id="text_14">
    <!-- hybrid -->
    <defs>
     <path d="M 54.890625 33.015625 
L 54.890625 0 
L 45.90625 0 
L 45.90625 32.71875 
Q 45.90625 40.484375 42.875 44.328125 
Q 39.84375 48.1875 33.796875 48.1875 
Q 26.515625 48.1875 22.3125 43.546875 
Q 18.109375 38.921875 18.109375 30.90625 
L 18.109375 0 
L 9.078125 0 
L 9.078125 75.984375 
L 18.109375 75.984375 
L 18.109375 46.1875 
Q 21.34375 51.125 25.703125 53.5625 
Q 30.078125 56 35.796875 56 
Q 45.21875 56 50.046875 50.171875 
Q 54.890625 44.34375 54.890625 33.015625 
z
" id="DejaVuSans-68"/>
     <path d="M 32.171875 -5.078125 
Q 28.375 -14.84375 24.75 -17.8125 
Q 21.140625 -20.796875 15.09375 -20.796875 
L 7.90625 -20.796875 
L 7.90625 -13.28125 
L 13.1875 -13.28125 
Q 16.890625 -13.28125 18.9375 -11.515625 
Q 21 -9.765625 23.484375 -3.21875 
L 25.09375 0.875 
L 2.984375 54.6875 
L 12.5 54.6875 
L 29.59375 11.921875 
L 46.6875 54.6875 
L 56.203125 54.6875 
z
" id="DejaVuSans-79"/>
     <path d="M 48.6875 27.296875 
Q 48.6875 37.203125 44.609375 42.84375 
Q 40.53125 48.484375 33.40625 48.484375 
Q 26.265625 48.484375 22.1875 42.84375 
Q 18.109375 37.203125 18.109375 27.296875 
Q 18.109375 17.390625 22.1875 11.75 
Q 26.265625 6.109375 33.40625 6.109375 
Q 40.53125 6.109375 44.609375 11.75 
Q 48.6875 17.390625 48.6875 27.296875 
z
M 18.109375 46.390625 
Q 20.953125 51.265625 25.265625 53.625 
Q 29.59375 56 35.59375 56 
Q 45.5625 56 51.78125 48.09375 
Q 58.015625 40.1875 58.015625 27.296875 
Q 58.015625 14.40625 51.78125 6.484375 
Q 45.5625 -1.421875 35.59375 -1.421875 
Q 29.59375 -1.421875 25.265625 0.953125 
Q 20.953125 3.328125 18.109375 8.203125 
L 18.109375 0 
L 9.078125 0 
L 9.078125 75.984375 
L 18.109375 75.984375 
z
" id="DejaVuSans-62"/>
    </defs>
    <g transform="translate(369.479935 294.223611)scale(0.17 -0.17)">
     <use xlink:href="#DejaVuSans-68"/>
     <use x="63.378906" xlink:href="#DejaVuSans-79"/>
     <use x="122.558594" xlink:href="#DejaVuSans-62"/>
     <use x="186.035156" xlink:href="#DejaVuSans-72"/>
     <use x="227.148438" xlink:href="#DejaVuSans-69"/>
     <use x="254.931641" xlink:href="#DejaVuSans-64"/>
    </g>
   </g>
   <g id="text_15">
    <!-- GA -->
    <defs>
     <path d="M 59.515625 10.40625 
L 59.515625 29.984375 
L 43.40625 29.984375 
L 43.40625 38.09375 
L 69.28125 38.09375 
L 69.28125 6.78125 
Q 63.578125 2.734375 56.6875 0.65625 
Q 49.8125 -1.421875 42 -1.421875 
Q 24.90625 -1.421875 15.25 8.5625 
Q 5.609375 18.5625 5.609375 36.375 
Q 5.609375 54.25 15.25 64.234375 
Q 24.90625 74.21875 42 74.21875 
Q 49.125 74.21875 55.546875 72.453125 
Q 61.96875 70.703125 67.390625 67.28125 
L 67.390625 56.78125 
Q 61.921875 61.421875 55.765625 63.765625 
Q 49.609375 66.109375 42.828125 66.109375 
Q 29.4375 66.109375 22.71875 58.640625 
Q 16.015625 51.171875 16.015625 36.375 
Q 16.015625 21.625 22.71875 14.15625 
Q 29.4375 6.6875 42.828125 6.6875 
Q 48.046875 6.6875 52.140625 7.59375 
Q 56.25 8.5 59.515625 10.40625 
z
" id="DejaVuSans-47"/>
     <path d="M 34.1875 63.1875 
L 20.796875 26.90625 
L 47.609375 26.90625 
z
M 28.609375 72.90625 
L 39.796875 72.90625 
L 67.578125 0 
L 57.328125 0 
L 50.6875 18.703125 
L 17.828125 18.703125 
L 11.1875 0 
L 0.78125 0 
z
" id="DejaVuSans-41"/>
    </defs>
    <g transform="translate(369.479935 230.05569)scale(0.17 -0.17)">
     <use xlink:href="#DejaVuSans-47"/>
     <use x="77.490234" xlink:href="#DejaVuSans-41"/>
    </g>
   </g>
   <g id="text_16">
    <!-- DASA -->
    <defs>
     <path d="M 19.671875 64.796875 
L 19.671875 8.109375 
L 31.59375 8.109375 
Q 46.6875 8.109375 53.6875 14.9375 
Q 60.6875 21.78125 60.6875 36.53125 
Q 60.6875 51.171875 53.6875 57.984375 
Q 46.6875 64.796875 31.59375 64.796875 
z
M 9.8125 72.90625 
L 30.078125 72.90625 
Q 51.265625 72.90625 61.171875 64.09375 
Q 71.09375 55.28125 71.09375 36.53125 
Q 71.09375 17.671875 61.125 8.828125 
Q 51.171875 0 30.078125 0 
L 9.8125 0 
z
" id="DejaVuSans-44"/>
     <path d="M 53.515625 70.515625 
L 53.515625 60.890625 
Q 47.90625 63.578125 42.921875 64.890625 
Q 37.9375 66.21875 33.296875 66.21875 
Q 25.25 66.21875 20.875 63.09375 
Q 16.5 59.96875 16.5 54.203125 
Q 16.5 49.359375 19.40625 46.890625 
Q 22.3125 44.4375 30.421875 42.921875 
L 36.375 41.703125 
Q 47.40625 39.59375 52.65625 34.296875 
Q 57.90625 29 57.90625 20.125 
Q 57.90625 9.515625 50.796875 4.046875 
Q 43.703125 -1.421875 29.984375 -1.421875 
Q 24.8125 -1.421875 18.96875 -0.25 
Q 13.140625 0.921875 6.890625 3.21875 
L 6.890625 13.375 
Q 12.890625 10.015625 18.65625 8.296875 
Q 24.421875 6.59375 29.984375 6.59375 
Q 38.421875 6.59375 43.015625 9.90625 
Q 47.609375 13.234375 47.609375 19.390625 
Q 47.609375 24.75 44.3125 27.78125 
Q 41.015625 30.8125 33.5 32.328125 
L 27.484375 33.5 
Q 16.453125 35.6875 11.515625 40.375 
Q 6.59375 45.0625 6.59375 53.421875 
Q 6.59375 63.09375 13.40625 68.65625 
Q 20.21875 74.21875 32.171875 74.21875 
Q 37.3125 74.21875 42.625 73.28125 
Q 47.953125 72.359375 53.515625 70.515625 
z
" id="DejaVuSans-53"/>
    </defs>
    <g transform="translate(369.479935 165.887769)scale(0.17 -0.17)">
     <use xlink:href="#DejaVuSans-44"/>
     <use x="76.986328" xlink:href="#DejaVuSans-41"/>
     <use x="145.394531" xlink:href="#DejaVuSans-53"/>
     <use x="208.886719" xlink:href="#DejaVuSans-41"/>
    </g>
   </g>
   <g id="text_17">
    <!-- Rosenbroc -->
    <defs>
     <path d="M 44.390625 34.1875 
Q 47.5625 33.109375 50.5625 29.59375 
Q 53.5625 26.078125 56.59375 19.921875 
L 66.609375 0 
L 56 0 
L 46.6875 18.703125 
Q 43.0625 26.03125 39.671875 28.421875 
Q 36.28125 30.8125 30.421875 30.8125 
L 19.671875 30.8125 
L 19.671875 0 
L 9.8125 0 
L 9.8125 72.90625 
L 32.078125 72.90625 
Q 44.578125 72.90625 50.734375 67.671875 
Q 56.890625 62.453125 56.890625 51.90625 
Q 56.890625 45.015625 53.6875 40.46875 
Q 50.484375 35.9375 44.390625 34.1875 
z
M 19.671875 64.796875 
L 19.671875 38.921875 
L 32.078125 38.921875 
Q 39.203125 38.921875 42.84375 42.21875 
Q 46.484375 45.515625 46.484375 51.90625 
Q 46.484375 58.296875 42.84375 61.546875 
Q 39.203125 64.796875 32.078125 64.796875 
z
" id="DejaVuSans-52"/>
    </defs>
    <g transform="translate(369.479935 101.719848)scale(0.17 -0.17)">
     <use xlink:href="#DejaVuSans-52"/>
     <use x="69.419922" xlink:href="#DejaVuSans-6f"/>
     <use x="130.601562" xlink:href="#DejaVuSans-73"/>
     <use x="182.701172" xlink:href="#DejaVuSans-65"/>
     <use x="244.224609" xlink:href="#DejaVuSans-6e"/>
     <use x="307.603516" xlink:href="#DejaVuSans-62"/>
     <use x="371.080078" xlink:href="#DejaVuSans-72"/>
     <use x="412.162109" xlink:href="#DejaVuSans-6f"/>
     <use x="473.34375" xlink:href="#DejaVuSans-63"/>
    </g>
   </g>
   <g id="text_18">
    <!-- best 2009 -->
    <defs>
     <path d="M 10.984375 1.515625 
L 10.984375 10.5 
Q 14.703125 8.734375 18.5 7.8125 
Q 22.3125 6.890625 25.984375 6.890625 
Q 35.75 6.890625 40.890625 13.453125 
Q 46.046875 20.015625 46.78125 33.40625 
Q 43.953125 29.203125 39.59375 26.953125 
Q 35.25 24.703125 29.984375 24.703125 
Q 19.046875 24.703125 12.671875 31.3125 
Q 6.296875 37.9375 6.296875 49.421875 
Q 6.296875 60.640625 12.9375 67.421875 
Q 19.578125 74.21875 30.609375 74.21875 
Q 43.265625 74.21875 49.921875 64.515625 
Q 56.59375 54.828125 56.59375 36.375 
Q 56.59375 19.140625 48.40625 8.859375 
Q 40.234375 -1.421875 26.421875 -1.421875 
Q 22.703125 -1.421875 18.890625 -0.6875 
Q 15.09375 0.046875 10.984375 1.515625 
z
M 30.609375 32.421875 
Q 37.25 32.421875 41.125 36.953125 
Q 45.015625 41.5 45.015625 49.421875 
Q 45.015625 57.28125 41.125 61.84375 
Q 37.25 66.40625 30.609375 66.40625 
Q 23.96875 66.40625 20.09375 61.84375 
Q 16.21875 57.28125 16.21875 49.421875 
Q 16.21875 41.5 20.09375 36.953125 
Q 23.96875 32.421875 30.609375 32.421875 
z
" id="DejaVuSans-39"/>
    </defs>
    <g transform="translate(369.479935 37.551928)scale(0.17 -0.17)">
     <use xlink:href="#DejaVuSans-62"/>
     <use x="63.476562" xlink:href="#DejaVuSans-65"/>
     <use x="125" xlink:href="#DejaVuSans-73"/>
     <use x="177.099609" xlink:href="#DejaVuSans-74"/>
     <use x="216.308594" xlink:href="#DejaVuSans-20"/>
     <use x="248.095703" xlink:href="#DejaVuSans-32"/>
     <use x="311.71875" xlink:href="#DejaVuSans-30"/>
     <use x="375.341797" xlink:href="#DejaVuSans-30"/>
     <use x="438.964844" xlink:href="#DejaVuSans-39"/>
    </g>
   </g>
   <g id="text_19">
    <!-- bbob f19, 2-D -->
    <g transform="translate(59.55864 35.290806)scale(0.102 -0.102)">
     <use xlink:href="#DejaVuSans-62"/>
     <use x="63.476562" xlink:href="#DejaVuSans-62"/>
     <use x="126.953125" xlink:href="#DejaVuSans-6f"/>
     <use x="188.134766" xlink:href="#DejaVuSans-62"/>
     <use x="251.611328" xlink:href="#DejaVuSans-20"/>
     <use x="283.398438" xlink:href="#DejaVuSans-66"/>
     <use x="318.603516" xlink:href="#DejaVuSans-31"/>
     <use x="382.226562" xlink:href="#DejaVuSans-39"/>
     <use x="445.849609" xlink:href="#DejaVuSans-2c"/>
     <use x="477.636719" xlink:href="#DejaVuSans-20"/>
     <use x="509.423828" xlink:href="#DejaVuSans-32"/>
     <use x="573.046875" xlink:href="#DejaVuSans-2d"/>
     <use x="609.130859" xlink:href="#DejaVuSans-44"/>
    </g>
    <!-- 51 targets: 100..1e-08 -->
    <defs>
     <path d="M 10.796875 72.90625 
L 49.515625 72.90625 
L 49.515625 64.59375 
L 19.828125 64.59375 
L 19.828125 46.734375 
Q 21.96875 47.46875 24.109375 47.828125 
Q 26.265625 48.1875 28.421875 48.1875 
Q 40.625 48.1875 47.75 41.5 
Q 54.890625 34.8125 54.890625 23.390625 
Q 54.890625 11.625 47.5625 5.09375 
Q 40.234375 -1.421875 26.90625 -1.421875 
Q 22.3125 -1.421875 17.546875 -0.640625 
Q 12.796875 0.140625 7.71875 1.703125 
L 7.71875 11.625 
Q 12.109375 9.234375 16.796875 8.0625 
Q 21.484375 6.890625 26.703125 6.890625 
Q 35.15625 6.890625 40.078125 11.328125 
Q 45.015625 15.765625 45.015625 23.390625 
Q 45.015625 31 40.078125 35.4375 
Q 35.15625 39.890625 26.703125 39.890625 
Q 22.75 39.890625 18.8125 39.015625 
Q 14.890625 38.140625 10.796875 36.28125 
z
" id="DejaVuSans-35"/>
     <path d="M 11.71875 12.40625 
L 22.015625 12.40625 
L 22.015625 0 
L 11.71875 0 
z
M 11.71875 51.703125 
L 22.015625 51.703125 
L 22.015625 39.3125 
L 11.71875 39.3125 
z
" id="DejaVuSans-3a"/>
    </defs>
    <g transform="translate(59.55864 46.712575)scale(0.102 -0.102)">
     <use xlink:href="#DejaVuSans-35"/>
     <use x="63.623047" xlink:href="#DejaVuSans-31"/>
     <use x="127.246094" xlink:href="#DejaVuSans-20"/>
     <use x="159.033203" xlink:href="#DejaVuSans-74"/>
     <use x="198.242188" xlink:href="#DejaVuSans-61"/>
     <use x="259.521484" xlink:href="#DejaVuSans-72"/>
     <use x="300.619141" xlink:href="#DejaVuSans-67"/>
     <use x="364.095703" xlink:href="#DejaVuSans-65"/>
     <use x="425.619141" xlink:href="#DejaVuSans-74"/>
     <use x="464.828125" xlink:href="#DejaVuSans-73"/>
     <use x="516.927734" xlink:href="#DejaVuSans-3a"/>
     <use x="550.619141" xlink:href="#DejaVuSans-20"/>
     <use x="582.40625" xlink:href="#DejaVuSans-31"/>
     <use x="646.029297" xlink:href="#DejaVuSans-30"/>
     <use x="709.652344" xlink:href="#DejaVuSans-30"/>
     <use x="773.275391" xlink:href="#DejaVuSans-2e"/>
     <use x="805.0625" xlink:href="#DejaVuSans-2e"/>
     <use x="836.849609" xlink:href="#DejaVuSans-31"/>
     <use x="900.472656" xlink:href="#DejaVuSans-65"/>
     <use x="961.996094" xlink:href="#DejaVuSans-2d"/>
     <use x="998.080078" xlink:href="#DejaVuSans-30"/>
     <use x="1061.703125" xlink:href="#DejaVuSans-38"/>
    </g>
    <!-- 15 instances -->
    <g transform="translate(59.55864 58.134344)scale(0.102 -0.102)">
     <use xlink:href="#DejaVuSans-31"/>
     <use x="63.623047" xlink:href="#DejaVuSans-35"/>
     <use x="127.246094" xlink:href="#DejaVuSans-20"/>
     <use x="159.033203" xlink:href="#DejaVuSans-69"/>
     <use x="186.816406" xlink:href="#DejaVuSans-6e"/>
     <use x="250.195312" xlink:href="#DejaVuSans-73"/>
     <use x="302.294922" xlink:href="#DejaVuSans-74"/>
     <use x="341.503906" xlink:href="#DejaVuSans-61"/>
     <use x="402.783203" xlink:href="#DejaVuSans-6e"/>
     <use x="466.162109" xlink:href="#DejaVuSans-63"/>
     <use x="521.142578" xlink:href="#DejaVuSans-65"/>
     <use x="582.666016" xlink:href="#DejaVuSans-73"/>
    </g>
   </g>
   <g id="text_20">
    <!-- v-coco-version -->
    <g style="fill:#808080;" transform="translate(191.556688 290.099912)scale(0.1 -0.1)">
     <use xlink:href="#DejaVuSans-76"/>
     <use x="59.148438" xlink:href="#DejaVuSans-2d"/>
     <use x="95.232422" xlink:href="#DejaVuSans-63"/>
     <use x="150.212891" xlink:href="#DejaVuSans-6f"/>
     <use x="211.394531" xlink:href="#DejaVuSans-63"/>
     <use x="266.375" xlink:href="#DejaVuSans-6f"/>
     <use x="327.572266" xlink:href="#DejaVuSans-2d"/>
     <use x="363.625" xlink:href="#DejaVuSans-76"/>
     <use x="422.804688" xlink:href="#DejaVuSans-65"/>
     <use x="484.328125" xlink:href="#DejaVuSans-72"/>
     <use x="525.441406" xlink:href="#DejaVuSans-73"/>
     <use x="577.541016" xlink:href="#DejaVuSans-69"/>
     <use x="605.324219" xlink:href="#DejaVuSans-6f"/>
     <use x="666.505859" xlink:href="#DejaVuSans-6e"/>
    </g>
   </g>
   <g id="text_21">
    <!-- 19 Griewank-Rosenbrock F8F2 -->
    <defs>
     <path d="M 4.203125 54.6875 
L 13.1875 54.6875 
L 24.421875 12.015625 
L 35.59375 54.6875 
L 46.1875 54.6875 
L 57.421875 12.015625 
L 68.609375 54.6875 
L 77.59375 54.6875 
L 63.28125 0 
L 52.6875 0 
L 40.921875 44.828125 
L 29.109375 0 
L 18.5 0 
z
" id="DejaVuSans-77"/>
     <path d="M 9.078125 75.984375 
L 18.109375 75.984375 
L 18.109375 31.109375 
L 44.921875 54.6875 
L 56.390625 54.6875 
L 27.390625 29.109375 
L 57.625 0 
L 45.90625 0 
L 18.109375 26.703125 
L 18.109375 0 
L 9.078125 0 
z
" id="DejaVuSans-6b"/>
    </defs>
    <g transform="translate(75.284813 18.84)scale(0.2 -0.2)">
     <use xlink:href="#DejaVuSans-31"/>
     <use x="63.623047" xlink:href="#DejaVuSans-39"/>
     <use x="127.246094" xlink:href="#DejaVuSans-20"/>
     <use x="159.033203" xlink:href="#DejaVuSans-47"/>
     <use x="236.523438" xlink:href="#DejaVuSans-72"/>
     <use x="277.636719" xlink:href="#DejaVuSans-69"/>
     <use x="305.419922" xlink:href="#DejaVuSans-65"/>
     <use x="366.943359" xlink:href="#DejaVuSans-77"/>
     <use x="448.730469" xlink:href="#DejaVuSans-61"/>
     <use x="510.009766" xlink:href="#DejaVuSans-6e"/>
     <use x="573.388672" xlink:href="#DejaVuSans-6b"/>
     <use x="631.298828" xlink:href="#DejaVuSans-2d"/>
     <use x="667.382812" xlink:href="#DejaVuSans-52"/>
     <use x="736.802734" xlink:href="#DejaVuSans-6f"/>
     <use x="797.984375" xlink:href="#DejaVuSans-73"/>
     <use x="850.083984" xlink:href="#DejaVuSans-65"/>
     <use x="911.607422" xlink:href="#DejaVuSans-6e"/>
     <use x="974.986328" xlink:href="#DejaVuSans-62"/>
     <use x="1038.462891" xlink:href="#DejaVuSans-72"/>
     <use x="1079.544922" xlink:href="#DejaVuSans-6f"/>
     <use x="1140.726562" xlink:href="#DejaVuSans-63"/>
     <use x="1195.707031" xlink:href="#DejaVuSans-6b"/>
     <use x="1253.617188" xlink:href="#DejaVuSans-20"/>
     <use x="1285.404297" xlink:href="#DejaVuSans-46"/>
     <use x="1342.923828" xlink:href="#DejaVuSans-38"/>
     <use x="1406.546875" xlink:href="#DejaVuSans-46"/>
     <use x="1464.066406" xlink:href="#DejaVuSans-32"/>
    </g>
   </g>
  </g>
 </g>
 <defs>
  <clipPath id="p0e74cee2f0">
   <rect height="270.04" width="343.864" x="56.12" y="24.84"/>
  </clipPath>
 </defs>
</svg>
