<?xml version="1.0" encoding="utf-8" standalone="no"?>
<!DOCTYPE svg PUBLIC "-//W3C//DTD SVG 1.1//EN"
  "http://www.w3.org/Graphics/SVG/1.1/DTD/svg11.dtd">
<!-- Created with matplotlib (http://matplotlib.org/) -->
<svg height="345.6pt" version="1.1" viewBox="0 0 460.8 345.6" width="460.8pt" xmlns="http://www.w3.org/2000/svg" xmlns:xlink="http://www.w3.org/1999/xlink">
 <defs>
  <style type="text/css">
*{stroke-linecap:butt;stroke-linejoin:round;}
  </style>
 </defs>
 <g id="figure_1">
  <g id="patch_1">
   <path d="M 0 345.6 
L 460.8 345.6 
L 460.8 0 
L 0 0 
z
" style="fill:#ffffff;"/>
  </g>
  <g id="axes_1">
   <g id="patch_2">
    <path d="M 56.12 294.88 
L 399.984 294.88 
L 399.984 24.84 
L 56.12 24.84 
z
" style="fill:#ffffff;"/>
   </g>
   <g id="line2d_1">
    <path d="M 76.131854 294.88 
L 76.131854 289.637523 
L 83.810164 289.637523 
L 83.810164 284.395046 
L 89.599124 284.395046 
L 89.599124 279.152568 
L 97.059773 279.152568 
L 97.059773 273.910091 
L 102.009304 273.910091 
L 102.009304 268.667614 
L 109.915496 268.667614 
L 109.915496 263.425137 
L 114.522062 263.425137 
L 114.522062 258.18266 
L 116.58695 258.18266 
L 116.58695 252.940182 
L 118.245359 252.940182 
L 118.245359 247.697705 
L 119.413762 247.697705 
L 119.413762 242.455228 
L 120.750735 242.455228 
L 120.750735 237.212751 
L 121.689415 237.212751 
L 121.689415 231.970274 
L 122.651658 231.970274 
L 122.651658 226.727797 
L 123.698931 226.727797 
L 123.698931 221.485319 
L 124.298 221.485319 
L 124.298 216.242842 
L 125.436973 216.242842 
L 125.436973 211.000365 
L 126.903352 211.000365 
L 126.903352 205.757888 
L 127.833571 205.757888 
L 127.833571 200.515411 
L 128.614561 200.515411 
L 128.614561 195.272933 
L 130.447623 195.272933 
L 130.447623 190.030456 
L 131.683376 190.030456 
L 131.683376 184.787979 
L 133.307682 184.787979 
L 133.307682 179.545502 
L 134.577163 179.545502 
L 134.577163 174.303025 
L 135.454257 174.303025 
L 135.454257 169.060547 
L 136.418647 169.060547 
L 136.418647 163.81807 
L 137.904883 163.81807 
L 137.904883 158.575593 
L 138.94094 158.575593 
L 138.94094 153.333116 
L 139.918135 153.333116 
L 139.918135 148.090639 
L 140.842798 148.090639 
L 140.842798 142.848162 
L 141.287138 142.848162 
L 141.287138 137.605684 
L 142.235304 137.605684 
L 142.235304 132.363207 
L 143.544882 132.363207 
L 143.544882 127.12073 
L 145.097025 127.12073 
L 145.097025 121.878253 
L 146.556573 121.878253 
L 146.556573 116.635776 
L 147.242397 116.635776 
L 147.242397 111.393298 
L 147.91851 111.393298 
L 147.91851 106.150821 
L 148.585007 106.150821 
L 148.585007 100.908344 
L 148.963498 100.908344 
L 148.963498 95.665867 
L 149.410003 95.665867 
L 149.410003 90.42339 
L 149.830387 90.42339 
L 149.830387 85.180912 
L 150.007454 85.180912 
L 150.007454 79.938435 
L 150.513729 79.938435 
L 150.513729 74.695958 
L 151.047038 74.695958 
L 151.047038 69.453481 
L 151.416168 69.453481 
L 151.416168 64.211004 
L 151.764293 64.211004 
L 151.764293 58.968526 
L 152.209159 58.968526 
L 152.209159 53.726049 
L 152.491002 53.726049 
L 152.491002 48.483572 
L 152.942468 48.483572 
L 152.942468 43.241095 
L 153.297725 43.241095 
L 153.297725 37.998618 
L 153.645795 37.998618 
L 153.645795 32.756141 
L 153.96365 32.756141 
L 153.96365 27.513663 
L 333.429677 27.513663 
" style="fill:none;stroke:#f5deb3;stroke-linecap:square;stroke-width:6;"/>
   </g>
   <g id="line2d_2">
    <defs>
     <path d="M -0 7.778175 
L 7.778175 0 
L 0 -7.778175 
L -7.778175 -0 
z
" id="md9c4bd4e62" style="stroke:#f5deb3;stroke-linejoin:miter;stroke-width:1.5;"/>
    </defs>
    <g>
     <use style="fill:#f5deb3;stroke:#f5deb3;stroke-linejoin:miter;stroke-width:1.5;" x="135.454257" xlink:href="#md9c4bd4e62" y="169.060547"/>
     <use style="fill:#f5deb3;stroke:#f5deb3;stroke-linejoin:miter;stroke-width:1.5;" x="152.209159" xlink:href="#md9c4bd4e62" y="58.968526"/>
     <use style="fill:#f5deb3;stroke:#f5deb3;stroke-linejoin:miter;stroke-width:1.5;" x="153.96365" xlink:href="#md9c4bd4e62" y="27.513663"/>
     <use style="fill:#f5deb3;stroke:#f5deb3;stroke-linejoin:miter;stroke-width:1.5;" x="153.96365" xlink:href="#md9c4bd4e62" y="27.513663"/>
     <use style="fill:#f5deb3;stroke:#f5deb3;stroke-linejoin:miter;stroke-width:1.5;" x="333.429677" xlink:href="#md9c4bd4e62" y="27.513663"/>
    </g>
   </g>
   <g id="line2d_3">
    <path style="fill:none;stroke:#f5deb3;stroke-linecap:square;stroke-width:6;"/>
    <g/>
   </g>
   <g id="line2d_4">
    <path d="M 333.429677 27.513663 
L 363.933742 32.86099 
" style="fill:none;stroke:#f5deb3;stroke-linecap:square;stroke-width:6;"/>
    <g>
     <use style="fill:#f5deb3;stroke:#f5deb3;stroke-linejoin:miter;stroke-width:1.5;" x="333.429677" xlink:href="#md9c4bd4e62" y="27.513663"/>
     <use style="fill:#f5deb3;stroke:#f5deb3;stroke-linejoin:miter;stroke-width:1.5;" x="363.933742" xlink:href="#md9c4bd4e62" y="32.86099"/>
    </g>
   </g>
   <g id="matplotlib.axis_1">
    <g id="xtick_1">
     <g id="line2d_5">
      <path clip-path="url(#p7df02f6a0e)" d="M 56.12 294.88 
L 56.12 24.84 
" style="fill:none;stroke:#b0b0b0;stroke-linecap:square;stroke-width:0.8;"/>
     </g>
     <g id="line2d_6">
      <defs>
       <path d="M 0 0 
L 0 3.5 
" id="m9ec0705840" style="stroke:#000000;stroke-width:0.8;"/>
      </defs>
      <g>
       <use style="stroke:#000000;stroke-width:0.8;" x="56.12" xlink:href="#m9ec0705840" y="294.88"/>
      </g>
     </g>
     <g id="text_1">
      <!-- 0 -->
      <defs>
       <path d="M 31.78125 66.40625 
Q 24.171875 66.40625 20.328125 58.90625 
Q 16.5 51.421875 16.5 36.375 
Q 16.5 21.390625 20.328125 13.890625 
Q 24.171875 6.390625 31.78125 6.390625 
Q 39.453125 6.390625 43.28125 13.890625 
Q 47.125 21.390625 47.125 36.375 
Q 47.125 51.421875 43.28125 58.90625 
Q 39.453125 66.40625 31.78125 66.40625 
z
M 31.78125 74.21875 
Q 44.046875 74.21875 50.515625 64.515625 
Q 56.984375 54.828125 56.984375 36.375 
Q 56.984375 17.96875 50.515625 8.265625 
Q 44.046875 -1.421875 31.78125 -1.421875 
Q 19.53125 -1.421875 13.0625 8.265625 
Q 6.59375 17.96875 6.59375 36.375 
Q 6.59375 54.828125 13.0625 64.515625 
Q 19.53125 74.21875 31.78125 74.21875 
z
" id="DejaVuSans-30"/>
      </defs>
      <g transform="translate(49.7575 317.076875)scale(0.2 -0.2)">
       <use xlink:href="#DejaVuSans-30"/>
      </g>
     </g>
    </g>
    <g id="xtick_2">
     <g id="line2d_7">
      <path clip-path="url(#p7df02f6a0e)" d="M 135.351336 294.88 
L 135.351336 24.84 
" style="fill:none;stroke:#b0b0b0;stroke-linecap:square;stroke-width:0.8;"/>
     </g>
     <g id="line2d_8">
      <g>
       <use style="stroke:#000000;stroke-width:0.8;" x="135.351336" xlink:href="#m9ec0705840" y="294.88"/>
      </g>
     </g>
     <g id="text_2">
      <!-- 2 -->
      <defs>
       <path d="M 19.1875 8.296875 
L 53.609375 8.296875 
L 53.609375 0 
L 7.328125 0 
L 7.328125 8.296875 
Q 12.9375 14.109375 22.625 23.890625 
Q 32.328125 33.6875 34.8125 36.53125 
Q 39.546875 41.84375 41.421875 45.53125 
Q 43.3125 49.21875 43.3125 52.78125 
Q 43.3125 58.59375 39.234375 62.25 
Q 35.15625 65.921875 28.609375 65.921875 
Q 23.96875 65.921875 18.8125 64.3125 
Q 13.671875 62.703125 7.8125 59.421875 
L 7.8125 69.390625 
Q 13.765625 71.78125 18.9375 73 
Q 24.125 74.21875 28.421875 74.21875 
Q 39.75 74.21875 46.484375 68.546875 
Q 53.21875 62.890625 53.21875 53.421875 
Q 53.21875 48.921875 51.53125 44.890625 
Q 49.859375 40.875 45.40625 35.40625 
Q 44.1875 33.984375 37.640625 27.21875 
Q 31.109375 20.453125 19.1875 8.296875 
z
" id="DejaVuSans-32"/>
      </defs>
      <g transform="translate(128.988836 317.076875)scale(0.2 -0.2)">
       <use xlink:href="#DejaVuSans-32"/>
      </g>
     </g>
    </g>
    <g id="xtick_3">
     <g id="line2d_9">
      <path clip-path="url(#p7df02f6a0e)" d="M 214.582673 294.88 
L 214.582673 24.84 
" style="fill:none;stroke:#b0b0b0;stroke-linecap:square;stroke-width:0.8;"/>
     </g>
     <g id="line2d_10">
      <g>
       <use style="stroke:#000000;stroke-width:0.8;" x="214.582673" xlink:href="#m9ec0705840" y="294.88"/>
      </g>
     </g>
     <g id="text_3">
      <!-- 4 -->
      <defs>
       <path d="M 37.796875 64.3125 
L 12.890625 25.390625 
L 37.796875 25.390625 
z
M 35.203125 72.90625 
L 47.609375 72.90625 
L 47.609375 25.390625 
L 58.015625 25.390625 
L 58.015625 17.1875 
L 47.609375 17.1875 
L 47.609375 0 
L 37.796875 0 
L 37.796875 17.1875 
L 4.890625 17.1875 
L 4.890625 26.703125 
z
" id="DejaVuSans-34"/>
      </defs>
      <g transform="translate(208.220173 317.076875)scale(0.2 -0.2)">
       <use xlink:href="#DejaVuSans-34"/>
      </g>
     </g>
    </g>
    <g id="xtick_4">
     <g id="line2d_11">
      <path clip-path="url(#p7df02f6a0e)" d="M 293.814009 294.88 
L 293.814009 24.84 
" style="fill:none;stroke:#b0b0b0;stroke-linecap:square;stroke-width:0.8;"/>
     </g>
     <g id="line2d_12">
      <g>
       <use style="stroke:#000000;stroke-width:0.8;" x="293.814009" xlink:href="#m9ec0705840" y="294.88"/>
      </g>
     </g>
     <g id="text_4">
      <!-- 6 -->
      <defs>
       <path d="M 33.015625 40.375 
Q 26.375 40.375 22.484375 35.828125 
Q 18.609375 31.296875 18.609375 23.390625 
Q 18.609375 15.53125 22.484375 10.953125 
Q 26.375 6.390625 33.015625 6.390625 
Q 39.65625 6.390625 43.53125 10.953125 
Q 47.40625 15.53125 47.40625 23.390625 
Q 47.40625 31.296875 43.53125 35.828125 
Q 39.65625 40.375 33.015625 40.375 
z
M 52.59375 71.296875 
L 52.59375 62.3125 
Q 48.875 64.0625 45.09375 64.984375 
Q 41.3125 65.921875 37.59375 65.921875 
Q 27.828125 65.921875 22.671875 59.328125 
Q 17.53125 52.734375 16.796875 39.40625 
Q 19.671875 43.65625 24.015625 45.921875 
Q 28.375 48.1875 33.59375 48.1875 
Q 44.578125 48.1875 50.953125 41.515625 
Q 57.328125 34.859375 57.328125 23.390625 
Q 57.328125 12.15625 50.6875 5.359375 
Q 44.046875 -1.421875 33.015625 -1.421875 
Q 20.359375 -1.421875 13.671875 8.265625 
Q 6.984375 17.96875 6.984375 36.375 
Q 6.984375 53.65625 15.1875 63.9375 
Q 23.390625 74.21875 37.203125 74.21875 
Q 40.921875 74.21875 44.703125 73.484375 
Q 48.484375 72.75 52.59375 71.296875 
z
" id="DejaVuSans-36"/>
      </defs>
      <g transform="translate(287.451509 317.076875)scale(0.2 -0.2)">
       <use xlink:href="#DejaVuSans-36"/>
      </g>
     </g>
    </g>
    <g id="xtick_5">
     <g id="line2d_13">
      <path clip-path="url(#p7df02f6a0e)" d="M 373.045346 294.88 
L 373.045346 24.84 
" style="fill:none;stroke:#b0b0b0;stroke-linecap:square;stroke-width:0.8;"/>
     </g>
     <g id="line2d_14">
      <g>
       <use style="stroke:#000000;stroke-width:0.8;" x="373.045346" xlink:href="#m9ec0705840" y="294.88"/>
      </g>
     </g>
     <g id="text_5">
      <!-- 8 -->
      <defs>
       <path d="M 31.78125 34.625 
Q 24.75 34.625 20.71875 30.859375 
Q 16.703125 27.09375 16.703125 20.515625 
Q 16.703125 13.921875 20.71875 10.15625 
Q 24.75 6.390625 31.78125 6.390625 
Q 38.8125 6.390625 42.859375 10.171875 
Q 46.921875 13.96875 46.921875 20.515625 
Q 46.921875 27.09375 42.890625 30.859375 
Q 38.875 34.625 31.78125 34.625 
z
M 21.921875 38.8125 
Q 15.578125 40.375 12.03125 44.71875 
Q 8.5 49.078125 8.5 55.328125 
Q 8.5 64.0625 14.71875 69.140625 
Q 20.953125 74.21875 31.78125 74.21875 
Q 42.671875 74.21875 48.875 69.140625 
Q 55.078125 64.0625 55.078125 55.328125 
Q 55.078125 49.078125 51.53125 44.71875 
Q 48 40.375 41.703125 38.8125 
Q 48.828125 37.15625 52.796875 32.3125 
Q 56.78125 27.484375 56.78125 20.515625 
Q 56.78125 9.90625 50.3125 4.234375 
Q 43.84375 -1.421875 31.78125 -1.421875 
Q 19.734375 -1.421875 13.25 4.234375 
Q 6.78125 9.90625 6.78125 20.515625 
Q 6.78125 27.484375 10.78125 32.3125 
Q 14.796875 37.15625 21.921875 38.8125 
z
M 18.3125 54.390625 
Q 18.3125 48.734375 21.84375 45.5625 
Q 25.390625 42.390625 31.78125 42.390625 
Q 38.140625 42.390625 41.71875 45.5625 
Q 45.3125 48.734375 45.3125 54.390625 
Q 45.3125 60.0625 41.71875 63.234375 
Q 38.140625 66.40625 31.78125 66.40625 
Q 25.390625 66.40625 21.84375 63.234375 
Q 18.3125 60.0625 18.3125 54.390625 
z
" id="DejaVuSans-38"/>
      </defs>
      <g transform="translate(366.682846 317.076875)scale(0.2 -0.2)">
       <use xlink:href="#DejaVuSans-38"/>
      </g>
     </g>
    </g>
    <g id="text_6">
     <!-- log10(# f-evals / dimension) -->
     <defs>
      <path d="M 9.421875 75.984375 
L 18.40625 75.984375 
L 18.40625 0 
L 9.421875 0 
z
" id="DejaVuSans-6c"/>
      <path d="M 30.609375 48.390625 
Q 23.390625 48.390625 19.1875 42.75 
Q 14.984375 37.109375 14.984375 27.296875 
Q 14.984375 17.484375 19.15625 11.84375 
Q 23.34375 6.203125 30.609375 6.203125 
Q 37.796875 6.203125 41.984375 11.859375 
Q 46.1875 17.53125 46.1875 27.296875 
Q 46.1875 37.015625 41.984375 42.703125 
Q 37.796875 48.390625 30.609375 48.390625 
z
M 30.609375 56 
Q 42.328125 56 49.015625 48.375 
Q 55.71875 40.765625 55.71875 27.296875 
Q 55.71875 13.875 49.015625 6.21875 
Q 42.328125 -1.421875 30.609375 -1.421875 
Q 18.84375 -1.421875 12.171875 6.21875 
Q 5.515625 13.875 5.515625 27.296875 
Q 5.515625 40.765625 12.171875 48.375 
Q 18.84375 56 30.609375 56 
z
" id="DejaVuSans-6f"/>
      <path d="M 45.40625 27.984375 
Q 45.40625 37.75 41.375 43.109375 
Q 37.359375 48.484375 30.078125 48.484375 
Q 22.859375 48.484375 18.828125 43.109375 
Q 14.796875 37.75 14.796875 27.984375 
Q 14.796875 18.265625 18.828125 12.890625 
Q 22.859375 7.515625 30.078125 7.515625 
Q 37.359375 7.515625 41.375 12.890625 
Q 45.40625 18.265625 45.40625 27.984375 
z
M 54.390625 6.78125 
Q 54.390625 -7.171875 48.1875 -13.984375 
Q 42 -20.796875 29.203125 -20.796875 
Q 24.46875 -20.796875 20.265625 -20.09375 
Q 16.0625 -19.390625 12.109375 -17.921875 
L 12.109375 -9.1875 
Q 16.0625 -11.328125 19.921875 -12.34375 
Q 23.78125 -13.375 27.78125 -13.375 
Q 36.625 -13.375 41.015625 -8.765625 
Q 45.40625 -4.15625 45.40625 5.171875 
L 45.40625 9.625 
Q 42.625 4.78125 38.28125 2.390625 
Q 33.9375 0 27.875 0 
Q 17.828125 0 11.671875 7.65625 
Q 5.515625 15.328125 5.515625 27.984375 
Q 5.515625 40.671875 11.671875 48.328125 
Q 17.828125 56 27.875 56 
Q 33.9375 56 38.28125 53.609375 
Q 42.625 51.21875 45.40625 46.390625 
L 45.40625 54.6875 
L 54.390625 54.6875 
z
" id="DejaVuSans-67"/>
      <path d="M 12.40625 8.296875 
L 28.515625 8.296875 
L 28.515625 63.921875 
L 10.984375 60.40625 
L 10.984375 69.390625 
L 28.421875 72.90625 
L 38.28125 72.90625 
L 38.28125 8.296875 
L 54.390625 8.296875 
L 54.390625 0 
L 12.40625 0 
z
" id="DejaVuSans-31"/>
      <path d="M 31 75.875 
Q 24.46875 64.65625 21.28125 53.65625 
Q 18.109375 42.671875 18.109375 31.390625 
Q 18.109375 20.125 21.3125 9.0625 
Q 24.515625 -2 31 -13.1875 
L 23.1875 -13.1875 
Q 15.875 -1.703125 12.234375 9.375 
Q 8.59375 20.453125 8.59375 31.390625 
Q 8.59375 42.28125 12.203125 53.3125 
Q 15.828125 64.359375 23.1875 75.875 
z
" id="DejaVuSans-28"/>
      <path d="M 51.125 44 
L 36.921875 44 
L 32.8125 27.6875 
L 47.125 27.6875 
z
M 43.796875 71.78125 
L 38.71875 51.515625 
L 52.984375 51.515625 
L 58.109375 71.78125 
L 65.921875 71.78125 
L 60.890625 51.515625 
L 76.125 51.515625 
L 76.125 44 
L 58.984375 44 
L 54.984375 27.6875 
L 70.515625 27.6875 
L 70.515625 20.21875 
L 53.078125 20.21875 
L 48 0 
L 40.1875 0 
L 45.21875 20.21875 
L 30.90625 20.21875 
L 25.875 0 
L 18.015625 0 
L 23.09375 20.21875 
L 7.71875 20.21875 
L 7.71875 27.6875 
L 24.90625 27.6875 
L 29 44 
L 13.28125 44 
L 13.28125 51.515625 
L 30.90625 51.515625 
L 35.890625 71.78125 
z
" id="DejaVuSans-23"/>
      <path id="DejaVuSans-20"/>
      <path d="M 37.109375 75.984375 
L 37.109375 68.5 
L 28.515625 68.5 
Q 23.6875 68.5 21.796875 66.546875 
Q 19.921875 64.59375 19.921875 59.515625 
L 19.921875 54.6875 
L 34.71875 54.6875 
L 34.71875 47.703125 
L 19.921875 47.703125 
L 19.921875 0 
L 10.890625 0 
L 10.890625 47.703125 
L 2.296875 47.703125 
L 2.296875 54.6875 
L 10.890625 54.6875 
L 10.890625 58.5 
Q 10.890625 67.625 15.140625 71.796875 
Q 19.390625 75.984375 28.609375 75.984375 
z
" id="DejaVuSans-66"/>
      <path d="M 4.890625 31.390625 
L 31.203125 31.390625 
L 31.203125 23.390625 
L 4.890625 23.390625 
z
" id="DejaVuSans-2d"/>
      <path d="M 56.203125 29.59375 
L 56.203125 25.203125 
L 14.890625 25.203125 
Q 15.484375 15.921875 20.484375 11.0625 
Q 25.484375 6.203125 34.421875 6.203125 
Q 39.59375 6.203125 44.453125 7.46875 
Q 49.3125 8.734375 54.109375 11.28125 
L 54.109375 2.78125 
Q 49.265625 0.734375 44.1875 -0.34375 
Q 39.109375 -1.421875 33.890625 -1.421875 
Q 20.796875 -1.421875 13.15625 6.1875 
Q 5.515625 13.8125 5.515625 26.8125 
Q 5.515625 40.234375 12.765625 48.109375 
Q 20.015625 56 32.328125 56 
Q 43.359375 56 49.78125 48.890625 
Q 56.203125 41.796875 56.203125 29.59375 
z
M 47.21875 32.234375 
Q 47.125 39.59375 43.09375 43.984375 
Q 39.0625 48.390625 32.421875 48.390625 
Q 24.90625 48.390625 20.390625 44.140625 
Q 15.875 39.890625 15.1875 32.171875 
z
" id="DejaVuSans-65"/>
      <path d="M 2.984375 54.6875 
L 12.5 54.6875 
L 29.59375 8.796875 
L 46.6875 54.6875 
L 56.203125 54.6875 
L 35.6875 0 
L 23.484375 0 
z
" id="DejaVuSans-76"/>
      <path d="M 34.28125 27.484375 
Q 23.390625 27.484375 19.1875 25 
Q 14.984375 22.515625 14.984375 16.5 
Q 14.984375 11.71875 18.140625 8.90625 
Q 21.296875 6.109375 26.703125 6.109375 
Q 34.1875 6.109375 38.703125 11.40625 
Q 43.21875 16.703125 43.21875 25.484375 
L 43.21875 27.484375 
z
M 52.203125 31.203125 
L 52.203125 0 
L 43.21875 0 
L 43.21875 8.296875 
Q 40.140625 3.328125 35.546875 0.953125 
Q 30.953125 -1.421875 24.3125 -1.421875 
Q 15.921875 -1.421875 10.953125 3.296875 
Q 6 8.015625 6 15.921875 
Q 6 25.140625 12.171875 29.828125 
Q 18.359375 34.515625 30.609375 34.515625 
L 43.21875 34.515625 
L 43.21875 35.40625 
Q 43.21875 41.609375 39.140625 45 
Q 35.0625 48.390625 27.6875 48.390625 
Q 23 48.390625 18.546875 47.265625 
Q 14.109375 46.140625 10.015625 43.890625 
L 10.015625 52.203125 
Q 14.9375 54.109375 19.578125 55.046875 
Q 24.21875 56 28.609375 56 
Q 40.484375 56 46.34375 49.84375 
Q 52.203125 43.703125 52.203125 31.203125 
z
" id="DejaVuSans-61"/>
      <path d="M 44.28125 53.078125 
L 44.28125 44.578125 
Q 40.484375 46.53125 36.375 47.5 
Q 32.28125 48.484375 27.875 48.484375 
Q 21.1875 48.484375 17.84375 46.4375 
Q 14.5 44.390625 14.5 40.28125 
Q 14.5 37.15625 16.890625 35.375 
Q 19.28125 33.59375 26.515625 31.984375 
L 29.59375 31.296875 
Q 39.15625 29.25 43.1875 25.515625 
Q 47.21875 21.78125 47.21875 15.09375 
Q 47.21875 7.46875 41.1875 3.015625 
Q 35.15625 -1.421875 24.609375 -1.421875 
Q 20.21875 -1.421875 15.453125 -0.5625 
Q 10.6875 0.296875 5.421875 2 
L 5.421875 11.28125 
Q 10.40625 8.6875 15.234375 7.390625 
Q 20.0625 6.109375 24.8125 6.109375 
Q 31.15625 6.109375 34.5625 8.28125 
Q 37.984375 10.453125 37.984375 14.40625 
Q 37.984375 18.0625 35.515625 20.015625 
Q 33.0625 21.96875 24.703125 23.78125 
L 21.578125 24.515625 
Q 13.234375 26.265625 9.515625 29.90625 
Q 5.8125 33.546875 5.8125 39.890625 
Q 5.8125 47.609375 11.28125 51.796875 
Q 16.75 56 26.8125 56 
Q 31.78125 56 36.171875 55.265625 
Q 40.578125 54.546875 44.28125 53.078125 
z
" id="DejaVuSans-73"/>
      <path d="M 25.390625 72.90625 
L 33.6875 72.90625 
L 8.296875 -9.28125 
L 0 -9.28125 
z
" id="DejaVuSans-2f"/>
      <path d="M 45.40625 46.390625 
L 45.40625 75.984375 
L 54.390625 75.984375 
L 54.390625 0 
L 45.40625 0 
L 45.40625 8.203125 
Q 42.578125 3.328125 38.25 0.953125 
Q 33.9375 -1.421875 27.875 -1.421875 
Q 17.96875 -1.421875 11.734375 6.484375 
Q 5.515625 14.40625 5.515625 27.296875 
Q 5.515625 40.1875 11.734375 48.09375 
Q 17.96875 56 27.875 56 
Q 33.9375 56 38.25 53.625 
Q 42.578125 51.265625 45.40625 46.390625 
z
M 14.796875 27.296875 
Q 14.796875 17.390625 18.875 11.75 
Q 22.953125 6.109375 30.078125 6.109375 
Q 37.203125 6.109375 41.296875 11.75 
Q 45.40625 17.390625 45.40625 27.296875 
Q 45.40625 37.203125 41.296875 42.84375 
Q 37.203125 48.484375 30.078125 48.484375 
Q 22.953125 48.484375 18.875 42.84375 
Q 14.796875 37.203125 14.796875 27.296875 
z
" id="DejaVuSans-64"/>
      <path d="M 9.421875 54.6875 
L 18.40625 54.6875 
L 18.40625 0 
L 9.421875 0 
z
M 9.421875 75.984375 
L 18.40625 75.984375 
L 18.40625 64.59375 
L 9.421875 64.59375 
z
" id="DejaVuSans-69"/>
      <path d="M 52 44.1875 
Q 55.375 50.25 60.0625 53.125 
Q 64.75 56 71.09375 56 
Q 79.640625 56 84.28125 50.015625 
Q 88.921875 44.046875 88.921875 33.015625 
L 88.921875 0 
L 79.890625 0 
L 79.890625 32.71875 
Q 79.890625 40.578125 77.09375 44.375 
Q 74.3125 48.1875 68.609375 48.1875 
Q 61.625 48.1875 57.5625 43.546875 
Q 53.515625 38.921875 53.515625 30.90625 
L 53.515625 0 
L 44.484375 0 
L 44.484375 32.71875 
Q 44.484375 40.625 41.703125 44.40625 
Q 38.921875 48.1875 33.109375 48.1875 
Q 26.21875 48.1875 22.15625 43.53125 
Q 18.109375 38.875 18.109375 30.90625 
L 18.109375 0 
L 9.078125 0 
L 9.078125 54.6875 
L 18.109375 54.6875 
L 18.109375 46.1875 
Q 21.1875 51.21875 25.484375 53.609375 
Q 29.78125 56 35.6875 56 
Q 41.65625 56 45.828125 52.96875 
Q 50 49.953125 52 44.1875 
z
" id="DejaVuSans-6d"/>
      <path d="M 54.890625 33.015625 
L 54.890625 0 
L 45.90625 0 
L 45.90625 32.71875 
Q 45.90625 40.484375 42.875 44.328125 
Q 39.84375 48.1875 33.796875 48.1875 
Q 26.515625 48.1875 22.3125 43.546875 
Q 18.109375 38.921875 18.109375 30.90625 
L 18.109375 0 
L 9.078125 0 
L 9.078125 54.6875 
L 18.109375 54.6875 
L 18.109375 46.1875 
Q 21.34375 51.125 25.703125 53.5625 
Q 30.078125 56 35.796875 56 
Q 45.21875 56 50.046875 50.171875 
Q 54.890625 44.34375 54.890625 33.015625 
z
" id="DejaVuSans-6e"/>
      <path d="M 8.015625 75.875 
L 15.828125 75.875 
Q 23.140625 64.359375 26.78125 53.3125 
Q 30.421875 42.28125 30.421875 31.390625 
Q 30.421875 20.453125 26.78125 9.375 
Q 23.140625 -1.703125 15.828125 -13.1875 
L 8.015625 -13.1875 
Q 14.5 -2 17.703125 9.0625 
Q 20.90625 20.125 20.90625 31.390625 
Q 20.90625 42.671875 17.703125 53.65625 
Q 14.5 64.65625 8.015625 75.875 
z
" id="DejaVuSans-29"/>
     </defs>
     <g transform="translate(107.211219 338.153594)scale(0.17 -0.17)">
      <use xlink:href="#DejaVuSans-6c"/>
      <use x="27.783203" xlink:href="#DejaVuSans-6f"/>
      <use x="88.964844" xlink:href="#DejaVuSans-67"/>
      <use x="152.441406" xlink:href="#DejaVuSans-31"/>
      <use x="216.064453" xlink:href="#DejaVuSans-30"/>
      <use x="279.6875" xlink:href="#DejaVuSans-28"/>
      <use x="318.701172" xlink:href="#DejaVuSans-23"/>
      <use x="402.490234" xlink:href="#DejaVuSans-20"/>
      <use x="434.277344" xlink:href="#DejaVuSans-66"/>
      <use x="469.404297" xlink:href="#DejaVuSans-2d"/>
      <use x="505.488281" xlink:href="#DejaVuSans-65"/>
      <use x="567.011719" xlink:href="#DejaVuSans-76"/>
      <use x="626.191406" xlink:href="#DejaVuSans-61"/>
      <use x="687.470703" xlink:href="#DejaVuSans-6c"/>
      <use x="715.253906" xlink:href="#DejaVuSans-73"/>
      <use x="767.353516" xlink:href="#DejaVuSans-20"/>
      <use x="799.140625" xlink:href="#DejaVuSans-2f"/>
      <use x="832.832031" xlink:href="#DejaVuSans-20"/>
      <use x="864.619141" xlink:href="#DejaVuSans-64"/>
      <use x="928.095703" xlink:href="#DejaVuSans-69"/>
      <use x="955.878906" xlink:href="#DejaVuSans-6d"/>
      <use x="1053.291016" xlink:href="#DejaVuSans-65"/>
      <use x="1114.814453" xlink:href="#DejaVuSans-6e"/>
      <use x="1178.193359" xlink:href="#DejaVuSans-73"/>
      <use x="1230.292969" xlink:href="#DejaVuSans-69"/>
      <use x="1258.076172" xlink:href="#DejaVuSans-6f"/>
      <use x="1319.257812" xlink:href="#DejaVuSans-6e"/>
      <use x="1382.636719" xlink:href="#DejaVuSans-29"/>
     </g>
    </g>
   </g>
   <g id="matplotlib.axis_2">
    <g id="ytick_1">
     <g id="line2d_15">
      <path clip-path="url(#p7df02f6a0e)" d="M 56.12 294.88 
L 399.984 294.88 
" style="fill:none;stroke:#b0b0b0;stroke-linecap:square;stroke-width:0.8;"/>
     </g>
     <g id="line2d_16">
      <defs>
       <path d="M 0 0 
L -3.5 0 
" id="m377228563c" style="stroke:#000000;stroke-width:0.8;"/>
      </defs>
      <g>
       <use style="stroke:#000000;stroke-width:0.8;" x="56.12" xlink:href="#m377228563c" y="294.88"/>
      </g>
     </g>
     <g id="text_7">
      <!-- 0.0 -->
      <defs>
       <path d="M 10.6875 12.40625 
L 21 12.40625 
L 21 0 
L 10.6875 0 
z
" id="DejaVuSans-2e"/>
      </defs>
      <g transform="translate(23.675 300.95875)scale(0.16 -0.16)">
       <use xlink:href="#DejaVuSans-30"/>
       <use x="63.623047" xlink:href="#DejaVuSans-2e"/>
       <use x="95.410156" xlink:href="#DejaVuSans-30"/>
      </g>
     </g>
    </g>
    <g id="ytick_2">
     <g id="line2d_17">
      <path clip-path="url(#p7df02f6a0e)" d="M 56.12 241.406733 
L 399.984 241.406733 
" style="fill:none;stroke:#b0b0b0;stroke-linecap:square;stroke-width:0.8;"/>
     </g>
     <g id="line2d_18">
      <g>
       <use style="stroke:#000000;stroke-width:0.8;" x="56.12" xlink:href="#m377228563c" y="241.406733"/>
      </g>
     </g>
     <g id="text_8">
      <!-- 0.2 -->
      <g transform="translate(23.675 247.485483)scale(0.16 -0.16)">
       <use xlink:href="#DejaVuSans-30"/>
       <use x="63.623047" xlink:href="#DejaVuSans-2e"/>
       <use x="95.410156" xlink:href="#DejaVuSans-32"/>
      </g>
     </g>
    </g>
    <g id="ytick_3">
     <g id="line2d_19">
      <path clip-path="url(#p7df02f6a0e)" d="M 56.12 187.933465 
L 399.984 187.933465 
" style="fill:none;stroke:#b0b0b0;stroke-linecap:square;stroke-width:0.8;"/>
     </g>
     <g id="line2d_20">
      <g>
       <use style="stroke:#000000;stroke-width:0.8;" x="56.12" xlink:href="#m377228563c" y="187.933465"/>
      </g>
     </g>
     <g id="text_9">
      <!-- 0.4 -->
      <g transform="translate(23.675 194.012215)scale(0.16 -0.16)">
       <use xlink:href="#DejaVuSans-30"/>
       <use x="63.623047" xlink:href="#DejaVuSans-2e"/>
       <use x="95.410156" xlink:href="#DejaVuSans-34"/>
      </g>
     </g>
    </g>
    <g id="ytick_4">
     <g id="line2d_21">
      <path clip-path="url(#p7df02f6a0e)" d="M 56.12 134.460198 
L 399.984 134.460198 
" style="fill:none;stroke:#b0b0b0;stroke-linecap:square;stroke-width:0.8;"/>
     </g>
     <g id="line2d_22">
      <g>
       <use style="stroke:#000000;stroke-width:0.8;" x="56.12" xlink:href="#m377228563c" y="134.460198"/>
      </g>
     </g>
     <g id="text_10">
      <!-- 0.6 -->
      <g transform="translate(23.675 140.538948)scale(0.16 -0.16)">
       <use xlink:href="#DejaVuSans-30"/>
       <use x="63.623047" xlink:href="#DejaVuSans-2e"/>
       <use x="95.410156" xlink:href="#DejaVuSans-36"/>
      </g>
     </g>
    </g>
    <g id="ytick_5">
     <g id="line2d_23">
      <path clip-path="url(#p7df02f6a0e)" d="M 56.12 80.986931 
L 399.984 80.986931 
" style="fill:none;stroke:#b0b0b0;stroke-linecap:square;stroke-width:0.8;"/>
     </g>
     <g id="line2d_24">
      <g>
       <use style="stroke:#000000;stroke-width:0.8;" x="56.12" xlink:href="#m377228563c" y="80.986931"/>
      </g>
     </g>
     <g id="text_11">
      <!-- 0.8 -->
      <g transform="translate(23.675 87.065681)scale(0.16 -0.16)">
       <use xlink:href="#DejaVuSans-30"/>
       <use x="63.623047" xlink:href="#DejaVuSans-2e"/>
       <use x="95.410156" xlink:href="#DejaVuSans-38"/>
      </g>
     </g>
    </g>
    <g id="ytick_6">
     <g id="line2d_25">
      <path clip-path="url(#p7df02f6a0e)" d="M 56.12 27.513663 
L 399.984 27.513663 
" style="fill:none;stroke:#b0b0b0;stroke-linecap:square;stroke-width:0.8;"/>
     </g>
     <g id="line2d_26">
      <g>
       <use style="stroke:#000000;stroke-width:0.8;" x="56.12" xlink:href="#m377228563c" y="27.513663"/>
      </g>
     </g>
     <g id="text_12">
      <!-- 1.0 -->
      <g transform="translate(23.675 33.592413)scale(0.16 -0.16)">
       <use xlink:href="#DejaVuSans-31"/>
       <use x="63.623047" xlink:href="#DejaVuSans-2e"/>
       <use x="95.410156" xlink:href="#DejaVuSans-30"/>
      </g>
     </g>
    </g>
    <g id="text_13">
     <!-- Fraction of function,target pairs -->
     <defs>
      <path d="M 9.8125 72.90625 
L 51.703125 72.90625 
L 51.703125 64.59375 
L 19.671875 64.59375 
L 19.671875 43.109375 
L 48.578125 43.109375 
L 48.578125 34.8125 
L 19.671875 34.8125 
L 19.671875 0 
L 9.8125 0 
z
" id="DejaVuSans-46"/>
      <path d="M 41.109375 46.296875 
Q 39.59375 47.171875 37.8125 47.578125 
Q 36.03125 48 33.890625 48 
Q 26.265625 48 22.1875 43.046875 
Q 18.109375 38.09375 18.109375 28.8125 
L 18.109375 0 
L 9.078125 0 
L 9.078125 54.6875 
L 18.109375 54.6875 
L 18.109375 46.1875 
Q 20.953125 51.171875 25.484375 53.578125 
Q 30.03125 56 36.53125 56 
Q 37.453125 56 38.578125 55.875 
Q 39.703125 55.765625 41.0625 55.515625 
z
" id="DejaVuSans-72"/>
      <path d="M 48.78125 52.59375 
L 48.78125 44.1875 
Q 44.96875 46.296875 41.140625 47.34375 
Q 37.3125 48.390625 33.40625 48.390625 
Q 24.65625 48.390625 19.8125 42.84375 
Q 14.984375 37.3125 14.984375 27.296875 
Q 14.984375 17.28125 19.8125 11.734375 
Q 24.65625 6.203125 33.40625 6.203125 
Q 37.3125 6.203125 41.140625 7.25 
Q 44.96875 8.296875 48.78125 10.40625 
L 48.78125 2.09375 
Q 45.015625 0.34375 40.984375 -0.53125 
Q 36.96875 -1.421875 32.421875 -1.421875 
Q 20.0625 -1.421875 12.78125 6.34375 
Q 5.515625 14.109375 5.515625 27.296875 
Q 5.515625 40.671875 12.859375 48.328125 
Q 20.21875 56 33.015625 56 
Q 37.15625 56 41.109375 55.140625 
Q 45.0625 54.296875 48.78125 52.59375 
z
" id="DejaVuSans-63"/>
      <path d="M 18.3125 70.21875 
L 18.3125 54.6875 
L 36.8125 54.6875 
L 36.8125 47.703125 
L 18.3125 47.703125 
L 18.3125 18.015625 
Q 18.3125 11.328125 20.140625 9.421875 
Q 21.96875 7.515625 27.59375 7.515625 
L 36.8125 7.515625 
L 36.8125 0 
L 27.59375 0 
Q 17.1875 0 13.234375 3.875 
Q 9.28125 7.765625 9.28125 18.015625 
L 9.28125 47.703125 
L 2.6875 47.703125 
L 2.6875 54.6875 
L 9.28125 54.6875 
L 9.28125 70.21875 
z
" id="DejaVuSans-74"/>
      <path d="M 8.5 21.578125 
L 8.5 54.6875 
L 17.484375 54.6875 
L 17.484375 21.921875 
Q 17.484375 14.15625 20.5 10.265625 
Q 23.53125 6.390625 29.59375 6.390625 
Q 36.859375 6.390625 41.078125 11.03125 
Q 45.3125 15.671875 45.3125 23.6875 
L 45.3125 54.6875 
L 54.296875 54.6875 
L 54.296875 0 
L 45.3125 0 
L 45.3125 8.40625 
Q 42.046875 3.421875 37.71875 1 
Q 33.40625 -1.421875 27.6875 -1.421875 
Q 18.265625 -1.421875 13.375 4.4375 
Q 8.5 10.296875 8.5 21.578125 
z
M 31.109375 56 
z
" id="DejaVuSans-75"/>
      <path d="M 11.71875 12.40625 
L 22.015625 12.40625 
L 22.015625 4 
L 14.015625 -11.625 
L 7.71875 -11.625 
L 11.71875 4 
z
" id="DejaVuSans-2c"/>
      <path d="M 18.109375 8.203125 
L 18.109375 -20.796875 
L 9.078125 -20.796875 
L 9.078125 54.6875 
L 18.109375 54.6875 
L 18.109375 46.390625 
Q 20.953125 51.265625 25.265625 53.625 
Q 29.59375 56 35.59375 56 
Q 45.5625 56 51.78125 48.09375 
Q 58.015625 40.1875 58.015625 27.296875 
Q 58.015625 14.40625 51.78125 6.484375 
Q 45.5625 -1.421875 35.59375 -1.421875 
Q 29.59375 -1.421875 25.265625 0.953125 
Q 20.953125 3.328125 18.109375 8.203125 
z
M 48.6875 27.296875 
Q 48.6875 37.203125 44.609375 42.84375 
Q 40.53125 48.484375 33.40625 48.484375 
Q 26.265625 48.484375 22.1875 42.84375 
Q 18.109375 37.203125 18.109375 27.296875 
Q 18.109375 17.390625 22.1875 11.75 
Q 26.265625 6.109375 33.40625 6.109375 
Q 40.53125 6.109375 44.609375 11.75 
Q 48.6875 17.390625 48.6875 27.296875 
z
" id="DejaVuSans-70"/>
     </defs>
     <g transform="translate(16.139531 294.999375)rotate(-90)scale(0.17 -0.17)">
      <use xlink:href="#DejaVuSans-46"/>
      <use x="57.410156" xlink:href="#DejaVuSans-72"/>
      <use x="98.523438" xlink:href="#DejaVuSans-61"/>
      <use x="159.802734" xlink:href="#DejaVuSans-63"/>
      <use x="214.783203" xlink:href="#DejaVuSans-74"/>
      <use x="253.992188" xlink:href="#DejaVuSans-69"/>
      <use x="281.775391" xlink:href="#DejaVuSans-6f"/>
      <use x="342.957031" xlink:href="#DejaVuSans-6e"/>
      <use x="406.335938" xlink:href="#DejaVuSans-20"/>
      <use x="438.123047" xlink:href="#DejaVuSans-6f"/>
      <use x="499.304688" xlink:href="#DejaVuSans-66"/>
      <use x="534.509766" xlink:href="#DejaVuSans-20"/>
      <use x="566.296875" xlink:href="#DejaVuSans-66"/>
      <use x="601.501953" xlink:href="#DejaVuSans-75"/>
      <use x="664.880859" xlink:href="#DejaVuSans-6e"/>
      <use x="728.259766" xlink:href="#DejaVuSans-63"/>
      <use x="783.240234" xlink:href="#DejaVuSans-74"/>
      <use x="822.449219" xlink:href="#DejaVuSans-69"/>
      <use x="850.232422" xlink:href="#DejaVuSans-6f"/>
      <use x="911.414062" xlink:href="#DejaVuSans-6e"/>
      <use x="974.792969" xlink:href="#DejaVuSans-2c"/>
      <use x="1006.580078" xlink:href="#DejaVuSans-74"/>
      <use x="1045.789062" xlink:href="#DejaVuSans-61"/>
      <use x="1107.068359" xlink:href="#DejaVuSans-72"/>
      <use x="1148.166016" xlink:href="#DejaVuSans-67"/>
      <use x="1211.642578" xlink:href="#DejaVuSans-65"/>
      <use x="1273.166016" xlink:href="#DejaVuSans-74"/>
      <use x="1312.375" xlink:href="#DejaVuSans-20"/>
      <use x="1344.162109" xlink:href="#DejaVuSans-70"/>
      <use x="1407.638672" xlink:href="#DejaVuSans-61"/>
      <use x="1468.917969" xlink:href="#DejaVuSans-69"/>
      <use x="1496.701172" xlink:href="#DejaVuSans-72"/>
      <use x="1537.814453" xlink:href="#DejaVuSans-73"/>
     </g>
    </g>
   </g>
   <g id="line2d_27">
    <defs>
     <path d="M 0 1.5 
C 0.397805 1.5 0.77937 1.341951 1.06066 1.06066 
C 1.341951 0.77937 1.5 0.397805 1.5 0 
C 1.5 -0.397805 1.341951 -0.77937 1.06066 -1.06066 
C 0.77937 -1.341951 0.397805 -1.5 0 -1.5 
C -0.397805 -1.5 -0.77937 -1.341951 -1.06066 -1.06066 
C -1.341951 -0.77937 -1.5 -0.397805 -1.5 0 
C -1.5 0.397805 -1.341951 0.77937 -1.06066 1.06066 
C -0.77937 1.341951 -0.397805 1.5 0 1.5 
z
" id="mab9023f1e3" style="stroke:#f5deb3;"/>
    </defs>
    <g>
     <use style="fill:#f5deb3;stroke:#f5deb3;" x="153.96365" xlink:href="#mab9023f1e3" y="27.513663"/>
     <use style="fill:#f5deb3;stroke:#f5deb3;" x="153.96365" xlink:href="#mab9023f1e3" y="27.513663"/>
    </g>
   </g>
   <g id="line2d_28">
    <defs>
     <path d="M 0 1.5 
C 0.397805 1.5 0.77937 1.341951 1.06066 1.06066 
C 1.341951 0.77937 1.5 0.397805 1.5 0 
C 1.5 -0.397805 1.341951 -0.77937 1.06066 -1.06066 
C 0.77937 -1.341951 0.397805 -1.5 0 -1.5 
C -0.397805 -1.5 -0.77937 -1.341951 -1.06066 -1.06066 
C -1.341951 -0.77937 -1.5 -0.397805 -1.5 0 
C -1.5 0.397805 -1.341951 0.77937 -1.06066 1.06066 
C -0.77937 1.341951 -0.397805 1.5 0 1.5 
z
" id="md5e90d61d8" style="stroke:#000080;"/>
    </defs>
    <g>
     <use style="fill:#000080;stroke:#000080;" x="279.095149" xlink:href="#md5e90d61d8" y="27.513663"/>
     <use style="fill:#000080;stroke:#000080;" x="279.095149" xlink:href="#md5e90d61d8" y="27.513663"/>
    </g>
   </g>
   <g id="line2d_29">
    <path d="M 28.429836 294.88 
L 28.429836 294.355752 
L 84.484951 294.355752 
L 84.484951 292.258761 
L 108.33596 292.258761 
L 108.33596 291.210266 
L 121.991263 291.210266 
L 121.991263 290.686018 
L 123.900947 290.686018 
L 123.900947 290.161771 
L 126.273486 290.161771 
L 126.273486 289.637523 
L 127.51097 289.637523 
L 127.51097 288.589027 
L 131.076592 288.589027 
L 131.076592 288.06478 
L 131.768338 288.06478 
L 131.768338 287.540532 
L 132.186969 287.540532 
L 132.186969 283.870798 
L 132.635994 283.870798 
L 132.635994 282.822302 
L 133.804194 282.822302 
L 133.804194 282.298055 
L 134.613119 282.298055 
L 134.613119 281.249559 
L 134.756195 281.249559 
L 134.756195 280.725312 
L 135.420019 280.725312 
L 135.420019 280.201064 
L 135.926577 280.201064 
L 135.926577 279.676816 
L 136.386277 279.676816 
L 136.386277 279.152568 
L 137.57545 279.152568 
L 137.57545 278.104073 
L 137.695975 278.104073 
L 137.695975 275.482834 
L 137.875194 275.482834 
L 137.875194 274.958587 
L 138.630934 274.958587 
L 138.716037 273.910091 
L 139.732422 273.910091 
L 139.732422 272.861596 
L 140.842798 272.861596 
L 140.842798 271.288853 
L 141.72029 271.288853 
L 141.72029 270.764605 
L 141.956301 270.764605 
L 141.956301 270.240357 
L 142.622972 270.240357 
L 142.622972 269.716109 
L 143.133935 269.716109 
L 143.133935 269.191862 
L 143.329818 269.191862 
L 143.39462 267.619119 
L 143.736167 267.619119 
L 143.799459 266.570623 
L 144.959777 266.570623 
L 144.959777 266.046375 
L 145.097025 266.046375 
L 145.097025 264.99788 
L 145.464127 264.99788 
L 145.464127 264.473632 
L 145.69201 264.473632 
L 145.69201 263.949385 
L 147.173301 263.949385 
L 147.207883 262.376641 
L 148.311781 262.376641 
L 148.376461 259.231155 
L 148.600945 259.231155 
L 148.600945 258.706907 
L 148.759517 258.706907 
L 148.759517 258.18266 
L 149.606459 258.18266 
L 149.606459 257.134164 
L 150.485197 257.134164 
L 150.485197 255.561421 
L 150.824499 255.561421 
L 150.824499 255.037173 
L 151.157238 255.037173 
L 151.157238 253.988678 
L 151.497132 253.988678 
L 151.497132 253.46443 
L 152.567074 253.46443 
L 152.567074 252.940182 
L 153.151611 252.940182 
L 153.151611 251.891687 
L 153.514596 251.891687 
L 153.514596 250.843192 
L 154.287189 250.843192 
L 154.287189 250.318944 
L 154.794744 250.318944 
L 154.794744 249.794696 
L 154.982656 249.794696 
L 155.037536 248.746201 
L 155.201134 248.746201 
L 155.201134 248.221953 
L 155.341671 248.221953 
L 155.341671 247.173458 
L 155.629938 247.173458 
L 155.629938 246.64921 
L 155.955062 246.64921 
L 155.955062 246.124962 
L 156.527248 246.124962 
L 156.527248 245.076467 
L 156.796469 245.076467 
L 156.796469 244.552219 
L 157.119897 244.552219 
L 157.119897 243.503724 
L 157.255293 243.503724 
L 157.255293 242.979476 
L 157.437357 242.979476 
L 157.437357 242.455228 
L 158.018404 242.455228 
L 158.027617 241.406733 
L 158.517921 241.406733 
L 158.52687 240.358237 
L 158.651673 240.358237 
L 158.651673 239.83399 
L 158.837195 239.83399 
L 158.942317 238.261246 
L 159.020739 238.261246 
L 159.072822 237.212751 
L 159.313815 237.212751 
L 159.313815 236.164255 
L 159.576749 236.164255 
L 159.610385 235.11576 
L 160.033579 235.11576 
L 160.033579 234.591512 
L 160.237285 234.591512 
L 160.269656 232.494521 
L 160.382475 232.494521 
L 160.382475 231.970274 
L 160.510512 231.970274 
L 160.510512 230.921778 
L 160.849963 230.921778 
L 160.927954 229.873283 
L 161.044282 229.873283 
L 161.075171 228.30054 
L 161.244073 228.30054 
L 161.297469 227.252044 
L 161.471754 227.252044 
L 161.554488 226.203549 
L 161.711339 226.203549 
L 161.711339 225.679301 
L 162.035412 225.679301 
L 162.057288 224.630806 
L 162.173488 224.630806 
L 162.173488 224.106558 
L 162.396417 224.106558 
L 162.410701 223.058063 
L 162.805908 223.058063 
L 162.805908 222.533815 
L 163.212694 222.533815 
L 163.267119 220.961072 
L 163.50992 220.961072 
L 163.50992 220.436824 
L 163.703048 220.436824 
L 163.703048 219.912576 
L 163.841558 219.912576 
L 163.841558 219.388328 
L 164.037515 219.388328 
L 164.037515 218.339833 
L 164.517861 218.339833 
L 164.517861 217.291338 
L 164.76244 217.291338 
L 164.843199 215.718594 
L 164.972861 215.718594 
L 164.972861 215.194347 
L 165.325981 215.194347 
L 165.410142 212.573108 
L 165.742729 212.573108 
L 165.742729 212.04886 
L 166.184052 212.04886 
L 166.184052 211.524613 
L 166.720249 211.524613 
L 166.720249 210.476117 
L 167.218658 210.476117 
L 167.218658 209.95187 
L 167.401233 209.95187 
L 167.401233 208.379126 
L 167.724015 208.379126 
L 167.724015 207.854879 
L 168.452753 207.854879 
L 168.54796 206.282136 
L 168.60284 206.282136 
L 168.60284 205.757888 
L 168.908932 205.757888 
L 168.952915 204.185145 
L 169.386674 204.185145 
L 169.453176 203.136649 
L 169.533583 203.136649 
L 169.533583 202.088154 
L 170.031231 202.088154 
L 170.031231 201.563906 
L 170.213633 201.563906 
L 170.213633 201.039658 
L 170.510431 201.039658 
L 170.568293 199.991163 
L 170.70549 199.991163 
L 170.70549 198.942667 
L 171.054573 198.942667 
L 171.054573 198.41842 
L 171.636405 198.41842 
L 171.678114 195.272933 
L 171.987748 195.272933 
L 172.012279 194.224438 
L 172.271797 194.224438 
L 172.271797 193.70019 
L 172.467877 193.70019 
L 172.50365 190.554704 
L 172.744171 190.554704 
L 172.783282 188.457713 
L 172.981376 188.457713 
L 172.981376 187.933465 
L 173.363298 187.933465 
L 173.389718 186.88497 
L 173.521211 186.88497 
L 173.521211 186.360722 
L 173.659134 186.360722 
L 173.659134 185.836474 
L 174.378986 185.836474 
L 174.378986 184.787979 
L 174.80104 184.787979 
L 174.908408 182.16674 
L 175.910982 182.16674 
L 175.910982 180.593997 
L 176.265601 180.593997 
L 176.265601 180.06975 
L 176.487521 180.06975 
L 176.588024 179.021254 
L 176.647422 179.021254 
L 176.647422 178.497006 
L 177.091045 178.497006 
L 177.148734 176.924263 
L 177.278583 176.924263 
L 177.326649 174.303025 
L 177.440272 174.303025 
L 177.508681 173.254529 
L 177.753311 173.254529 
L 177.791314 172.206034 
L 177.899017 172.206034 
L 177.96563 171.157538 
L 178.149641 171.157538 
L 178.255132 169.584795 
L 178.309052 169.584795 
L 178.309052 169.060547 
L 178.645753 169.060547 
L 178.645753 168.012052 
L 178.989614 168.012052 
L 178.989614 166.963557 
L 179.187296 166.963557 
L 179.198062 164.866566 
L 179.37208 164.866566 
L 179.467707 161.721079 
L 179.87347 161.721079 
L 179.87347 161.196832 
L 180.188788 161.196832 
L 180.188788 160.672584 
L 180.458466 160.672584 
L 180.495936 159.624089 
L 180.595459 159.624089 
L 180.595459 159.099841 
L 180.987889 159.099841 
L 180.987889 158.575593 
L 181.161604 158.575593 
L 181.161604 158.051345 
L 181.583685 158.051345 
L 181.583685 157.527098 
L 181.897037 157.527098 
L 181.897037 157.00285 
L 182.243149 157.00285 
L 182.243149 155.954354 
L 182.714545 155.954354 
L 182.714545 155.430107 
L 183.117752 155.430107 
L 183.117752 154.905859 
L 183.387729 154.905859 
L 183.387729 154.381611 
L 183.511725 154.381611 
L 183.511725 153.857364 
L 183.839447 153.857364 
L 183.896878 152.28462 
L 184.10651 152.28462 
L 184.167091 151.236125 
L 184.389402 151.236125 
L 184.405314 149.139134 
L 184.697063 149.139134 
L 184.712693 148.090639 
L 184.823648 148.090639 
L 184.870153 147.042143 
L 185.431738 147.042143 
L 185.513951 145.4694 
L 185.691972 145.4694 
L 185.691972 144.945152 
L 185.875473 144.945152 
L 185.875473 143.896657 
L 186.010015 143.896657 
L 186.084108 141.799666 
L 186.195548 141.799666 
L 186.195548 140.226923 
L 186.51857 140.226923 
L 186.59226 138.129932 
L 186.634228 138.129932 
L 186.634228 137.605684 
L 187.128313 137.605684 
L 187.189299 136.032941 
L 187.370971 136.032941 
L 187.441107 131.838959 
L 187.53915 131.838959 
L 187.649814 129.217721 
L 187.727021 129.217721 
L 187.727021 128.169225 
L 187.856019 128.169225 
L 187.856019 127.12073 
L 188.179934 127.12073 
L 188.187915 126.072235 
L 188.390962 126.072235 
L 188.390962 125.547987 
L 188.549504 125.547987 
L 188.549504 125.023739 
L 188.773048 125.023739 
L 188.773048 124.499491 
L 188.93882 124.499491 
L 189.037826 121.878253 
L 189.163426 121.878253 
L 189.163426 121.354005 
L 189.534817 121.354005 
L 189.534817 120.829757 
L 189.696366 120.829757 
L 189.696366 119.781262 
L 189.905582 119.781262 
L 189.996319 118.732766 
L 190.217547 118.732766 
L 190.217547 118.208519 
L 190.466744 118.208519 
L 190.466744 117.684271 
L 190.618428 117.684271 
L 190.708249 114.538785 
L 190.94913 114.538785 
L 190.94913 114.014537 
L 191.431578 114.014537 
L 191.461946 109.820555 
L 191.697777 109.820555 
L 191.697777 109.296308 
L 192.053219 109.296308 
L 192.059591 108.247812 
L 192.194124 108.247812 
L 192.277361 104.05383 
L 192.484953 104.05383 
L 192.484953 103.005335 
L 193.175701 103.005335 
L 193.211487 101.956839 
L 193.560645 101.956839 
L 193.667739 99.859849 
L 193.776477 99.859849 
L 193.881094 98.287105 
L 193.987357 98.287105 
L 193.987357 97.762858 
L 194.310092 97.762858 
L 194.310092 97.23861 
L 194.569718 97.23861 
L 194.656492 96.190115 
L 195.295296 96.190115 
L 195.295296 94.093124 
L 195.625706 94.093124 
L 195.705265 93.044628 
L 195.767005 93.044628 
L 195.767005 92.520381 
L 196.038082 92.520381 
L 196.038082 91.996133 
L 196.210117 91.996133 
L 196.320875 90.42339 
L 196.366567 90.42339 
L 196.366567 89.899142 
L 196.810165 89.899142 
L 196.885405 88.850646 
L 197.722312 88.850646 
L 197.799152 86.753656 
L 198.353283 86.753656 
L 198.391245 85.70516 
L 198.605081 85.70516 
L 198.610306 84.656665 
L 198.818013 84.656665 
L 198.877268 82.559674 
L 199.039386 82.559674 
L 199.113958 81.511178 
L 199.73836 81.511178 
L 199.73836 80.986931 
L 199.852144 80.986931 
L 199.852144 80.462683 
L 200.021421 80.462683 
L 200.036654 78.365692 
L 200.276206 78.365692 
L 200.276206 77.841444 
L 200.40612 77.841444 
L 200.40612 77.317197 
L 200.686981 77.317197 
L 200.739376 75.744454 
L 200.986855 75.744454 
L 200.986855 75.220206 
L 201.24652 75.220206 
L 201.24652 74.695958 
L 201.455156 74.695958 
L 201.536879 73.647463 
L 201.849849 73.647463 
L 201.849849 72.074719 
L 202.266693 72.074719 
L 202.266693 70.501976 
L 202.727907 70.501976 
L 202.83858 68.404985 
L 202.843346 68.404985 
L 202.869197 67.35649 
L 202.958693 67.35649 
L 202.958693 66.832242 
L 203.203766 66.832242 
L 203.203766 66.307995 
L 203.423032 66.307995 
L 203.423032 65.783747 
L 203.676549 65.783747 
L 203.676549 64.735251 
L 204.441505 64.735251 
L 204.546034 62.114013 
L 205.009011 62.114013 
L 205.009011 61.589765 
L 205.255153 61.589765 
L 205.255153 60.54127 
L 205.663886 60.54127 
L 205.663886 59.492774 
L 206.096976 59.492774 
L 206.096976 58.968526 
L 206.626859 58.968526 
L 206.626859 58.444279 
L 207.04892 58.444279 
L 207.04892 57.920031 
L 207.186456 57.920031 
L 207.186456 56.871536 
L 207.587936 56.871536 
L 207.587936 56.347288 
L 207.976221 56.347288 
L 208.065908 54.250297 
L 208.290583 54.250297 
L 208.290583 53.201802 
L 208.687265 53.201802 
L 208.687265 52.677554 
L 208.937016 52.677554 
L 208.937016 51.629058 
L 209.076902 51.629058 
L 209.076902 51.104811 
L 209.647358 51.104811 
L 209.647358 50.580563 
L 209.985534 50.580563 
L 209.985534 50.056315 
L 210.12922 50.056315 
L 210.12922 49.532068 
L 212.46329 49.532068 
L 212.46329 49.00782 
L 214.164368 49.00782 
L 214.164368 48.483572 
L 227.674004 48.483572 
L 227.674004 47.959324 
L 234.675628 47.959324 
L 234.721161 46.910829 
L 235.640399 46.910829 
L 235.640399 46.386581 
L 236.239115 46.386581 
L 236.239115 45.862334 
L 240.218018 45.862334 
L 240.218018 45.338086 
L 241.772258 45.338086 
L 241.772258 44.813838 
L 248.131703 44.813838 
L 248.131703 44.28959 
L 251.791753 44.28959 
L 251.791753 43.765343 
L 256.223773 43.765343 
L 256.223773 42.716847 
L 262.057186 42.716847 
L 262.057186 42.192599 
L 262.333033 42.192599 
L 262.333033 41.668352 
L 263.077685 41.668352 
L 263.151338 38.522865 
L 263.350788 38.522865 
L 263.426887 36.950122 
L 263.595209 36.950122 
L 263.61433 34.328884 
L 267.247142 34.328884 
L 267.247142 33.804636 
L 270.774025 33.804636 
L 270.774025 32.756141 
L 271.887237 32.756141 
L 271.887237 31.707645 
L 273.947678 31.707645 
L 273.947678 30.134902 
L 277.399667 30.134902 
L 277.399667 29.610654 
L 278.956979 29.610654 
L 279.068074 28.562159 
L 279.095149 28.562159 
L 279.095149 27.513663 
L 333.429677 27.513663 
L 333.429677 27.513663 
" style="fill:none;stroke:#000080;stroke-linecap:square;stroke-width:1.5;"/>
   </g>
   <g id="line2d_30">
    <defs>
     <path d="M 0 6 
C 1.591219 6 3.117479 5.367802 4.242641 4.242641 
C 5.367802 3.117479 6 1.591219 6 0 
C 6 -1.591219 5.367802 -3.117479 4.242641 -4.242641 
C 3.117479 -5.367802 1.591219 -6 0 -6 
C -1.591219 -6 -3.117479 -5.367802 -4.242641 -4.242641 
C -5.367802 -3.117479 -6 -1.591219 -6 0 
C -6 1.591219 -5.367802 3.117479 -4.242641 4.242641 
C -3.117479 5.367802 -1.591219 6 0 6 
z
" id="m164f7c8f30" style="stroke:#000080;stroke-width:1.5;"/>
    </defs>
    <g>
     <use style="fill-opacity:0;stroke:#000080;stroke-width:1.5;" x="84.484951" xlink:href="#m164f7c8f30" y="292.258761"/>
     <use style="fill-opacity:0;stroke:#000080;stroke-width:1.5;" x="164.972861" xlink:href="#m164f7c8f30" y="215.194347"/>
     <use style="fill-opacity:0;stroke:#000080;stroke-width:1.5;" x="188.992202" xlink:href="#m164f7c8f30" y="123.975244"/>
     <use style="fill-opacity:0;stroke:#000080;stroke-width:1.5;" x="251.791753" xlink:href="#m164f7c8f30" y="43.765343"/>
     <use style="fill-opacity:0;stroke:#000080;stroke-width:1.5;" x="279.095149" xlink:href="#m164f7c8f30" y="27.513663"/>
     <use style="fill-opacity:0;stroke:#000080;stroke-width:1.5;" x="333.429677" xlink:href="#m164f7c8f30" y="27.513663"/>
    </g>
   </g>
   <g id="line2d_31">
    <path style="fill:none;stroke:#000080;stroke-linecap:square;stroke-width:1.5;"/>
    <g/>
   </g>
   <g id="line2d_32">
    <defs>
     <path d="M 0 1.5 
C 0.397805 1.5 0.77937 1.341951 1.06066 1.06066 
C 1.341951 0.77937 1.5 0.397805 1.5 0 
C 1.5 -0.397805 1.341951 -0.77937 1.06066 -1.06066 
C 0.77937 -1.341951 0.397805 -1.5 0 -1.5 
C -0.397805 -1.5 -0.77937 -1.341951 -1.06066 -1.06066 
C -1.341951 -0.77937 -1.5 -0.397805 -1.5 0 
C -1.5 0.397805 -1.341951 0.77937 -1.06066 1.06066 
C -0.77937 1.341951 -0.397805 1.5 0 1.5 
z
" id="m6be636aa6b" style="stroke:#ff00ff;"/>
    </defs>
    <g>
     <use style="fill:#ff00ff;stroke:#ff00ff;" x="328.616144" xlink:href="#m6be636aa6b" y="127.12073"/>
     <use style="fill:#ff00ff;stroke:#ff00ff;" x="328.616144" xlink:href="#m6be636aa6b" y="127.12073"/>
    </g>
   </g>
   <g id="line2d_33">
    <path d="M 47.331314 294.88 
L 47.331314 294.355752 
L 64.20635 294.355752 
L 64.20635 293.307257 
L 68.045504 293.307257 
L 68.045504 292.258761 
L 75.021477 292.258761 
L 75.021477 291.210266 
L 91.460924 291.210266 
L 91.460924 289.637523 
L 100.77101 289.637523 
L 100.77101 289.113275 
L 101.524628 289.113275 
L 101.524628 288.589027 
L 107.137126 288.589027 
L 107.137126 288.06478 
L 114.522062 288.06478 
L 114.522062 287.540532 
L 116.276944 287.540532 
L 116.276944 287.016284 
L 121.841001 287.016284 
L 121.841001 286.492036 
L 121.991263 286.492036 
L 121.991263 285.967789 
L 124.81354 285.967789 
L 124.81354 284.919293 
L 128.816974 284.919293 
L 128.816974 283.870798 
L 131.295765 283.870798 
L 131.295765 283.34655 
L 137.331837 283.34655 
L 137.331837 282.298055 
L 139.107709 282.298055 
L 139.107709 281.773807 
L 142.350234 281.773807 
L 142.350234 280.725312 
L 144.90062 280.725312 
L 144.90062 280.201064 
L 151.033214 280.201064 
L 151.047038 277.579825 
L 153.598202 277.579825 
L 153.598202 277.055578 
L 167.310187 277.055578 
L 167.310187 274.958587 
L 169.585412 274.958587 
L 169.585412 274.434339 
L 170.7627 274.434339 
L 170.7627 273.385844 
L 173.370851 273.385844 
L 173.370851 272.861596 
L 173.865801 272.861596 
L 173.865801 271.288853 
L 176.243251 271.288853 
L 176.243251 270.764605 
L 176.802757 270.764605 
L 176.802757 270.240357 
L 180.97576 270.240357 
L 180.97576 269.191862 
L 181.293131 269.191862 
L 181.293131 268.667614 
L 181.487378 268.667614 
L 181.576656 265.522128 
L 182.745225 265.522128 
L 182.745225 264.99788 
L 183.38562 264.99788 
L 183.488675 263.425137 
L 183.692951 263.425137 
L 183.692951 261.852394 
L 185.835271 261.852394 
L 185.835271 261.328146 
L 186.604511 261.328146 
L 186.604511 259.755403 
L 188.375185 259.755403 
L 188.375185 258.706907 
L 189.199574 258.706907 
L 189.199574 258.18266 
L 189.564302 258.18266 
L 189.564302 257.658412 
L 189.756194 257.658412 
L 189.756194 256.609917 
L 191.260252 256.609917 
L 191.260252 256.085669 
L 193.035418 256.085669 
L 193.035418 255.561421 
L 194.36924 255.561421 
L 194.36924 254.512926 
L 194.490249 254.512926 
L 194.490249 253.988678 
L 195.108481 253.988678 
L 195.108481 253.46443 
L 195.976294 253.46443 
L 195.976294 252.940182 
L 196.925783 252.940182 
L 196.925783 251.891687 
L 197.428268 251.891687 
L 197.428268 250.843192 
L 197.927368 250.843192 
L 197.927368 250.318944 
L 199.181471 250.318944 
L 199.181471 249.270448 
L 199.533284 249.270448 
L 199.533284 248.221953 
L 200.307791 248.221953 
L 200.307791 247.697705 
L 201.251748 247.697705 
L 201.251748 246.64921 
L 202.703902 246.64921 
L 202.703902 246.124962 
L 203.335264 246.124962 
L 203.335264 245.600714 
L 203.517557 245.600714 
L 203.517557 245.076467 
L 204.001015 245.076467 
L 204.001015 244.552219 
L 204.899414 244.552219 
L 204.964534 242.979476 
L 205.396587 242.979476 
L 205.396587 242.455228 
L 205.550253 242.455228 
L 205.550253 241.93098 
L 206.097539 241.93098 
L 206.097539 241.406733 
L 206.894683 241.406733 
L 206.894683 240.882485 
L 207.151512 240.882485 
L 207.151512 240.358237 
L 207.407175 240.358237 
L 207.407175 239.309742 
L 207.925629 239.309742 
L 207.950437 238.261246 
L 208.439245 238.261246 
L 208.439245 237.212751 
L 208.681932 237.212751 
L 208.681932 236.688503 
L 209.563723 236.688503 
L 209.563723 236.164255 
L 210.610961 236.164255 
L 210.610961 235.640008 
L 210.881036 235.640008 
L 210.954272 234.591512 
L 211.278361 234.591512 
L 211.278361 233.543017 
L 211.728569 233.543017 
L 211.768735 231.446026 
L 212.295898 231.446026 
L 212.295898 230.921778 
L 212.552962 230.921778 
L 212.552962 230.397531 
L 212.8725 230.397531 
L 212.8725 229.873283 
L 213.07201 229.873283 
L 213.07201 229.349035 
L 213.865634 229.349035 
L 213.865634 228.824787 
L 214.405587 228.824787 
L 214.423655 227.776292 
L 215.575765 227.776292 
L 215.644485 226.203549 
L 215.725493 226.203549 
L 215.725493 225.679301 
L 216.742564 225.679301 
L 216.792266 223.58231 
L 217.089882 223.58231 
L 217.12524 222.533815 
L 217.366346 222.533815 
L 217.366346 222.009567 
L 217.790458 222.009567 
L 217.858289 218.864081 
L 218.797039 218.864081 
L 218.797039 218.339833 
L 218.977357 218.339833 
L 218.977357 217.815585 
L 219.359811 217.815585 
L 219.359811 217.291338 
L 219.68465 217.291338 
L 219.68465 216.76709 
L 219.950406 216.76709 
L 219.969286 214.670099 
L 220.141023 214.670099 
L 220.141023 214.145851 
L 220.567631 214.145851 
L 220.567631 213.097356 
L 220.855353 213.097356 
L 220.855353 212.573108 
L 221.146333 212.573108 
L 221.146333 212.04886 
L 221.413514 212.04886 
L 221.413514 211.000365 
L 221.55704 211.000365 
L 221.65518 209.427622 
L 221.759794 209.427622 
L 221.759794 207.854879 
L 224.135117 207.854879 
L 224.135117 206.282136 
L 224.44727 206.282136 
L 224.499749 205.23364 
L 225.346339 205.23364 
L 225.346339 204.709392 
L 226.360617 204.709392 
L 226.360617 203.660897 
L 226.790587 203.660897 
L 226.790587 203.136649 
L 226.976932 203.136649 
L 226.976932 202.612401 
L 227.63618 202.612401 
L 227.641013 201.563906 
L 227.867929 201.563906 
L 227.873492 200.515411 
L 228.175482 200.515411 
L 228.175482 199.466915 
L 228.318551 199.466915 
L 228.318551 198.942667 
L 228.764463 198.942667 
L 228.764463 198.41842 
L 230.180951 198.41842 
L 230.180951 197.894172 
L 230.729411 197.894172 
L 230.729411 197.369924 
L 231.206019 197.369924 
L 231.206019 196.845677 
L 231.686978 196.845677 
L 231.686978 196.321429 
L 232.49277 196.321429 
L 232.49277 195.272933 
L 256.227107 195.272933 
L 256.227107 194.748686 
L 256.346726 194.748686 
L 256.433699 193.70019 
L 256.467569 193.70019 
L 256.576216 192.651695 
L 256.692279 192.651695 
L 256.692279 192.127447 
L 256.806855 192.127447 
L 256.806855 191.603199 
L 257.069977 191.603199 
L 257.069977 191.078952 
L 257.208005 191.078952 
L 257.208005 190.554704 
L 257.341581 190.554704 
L 257.371194 189.506209 
L 257.502435 189.506209 
L 257.605746 188.457713 
L 257.630004 188.457713 
L 257.709787 186.88497 
L 257.791436 186.88497 
L 257.791436 186.360722 
L 258.172375 186.360722 
L 258.172375 185.836474 
L 258.392495 185.836474 
L 258.490076 183.215236 
L 258.568273 183.215236 
L 258.568273 182.16674 
L 258.735296 182.16674 
L 258.735296 181.642493 
L 259.43211 181.642493 
L 259.43211 181.118245 
L 259.640669 181.118245 
L 259.640669 180.593997 
L 267.651479 180.593997 
L 267.652786 179.545502 
L 267.928674 179.545502 
L 267.928674 179.021254 
L 268.046547 179.021254 
L 268.046547 178.497006 
L 268.311954 178.497006 
L 268.311954 177.972759 
L 268.426396 177.972759 
L 268.434987 176.924263 
L 268.572986 176.924263 
L 268.572986 176.400016 
L 268.969808 176.400016 
L 268.969808 175.35152 
L 274.154166 175.35152 
L 274.154166 174.827272 
L 274.346369 174.827272 
L 274.396628 173.254529 
L 274.46597 173.254529 
L 274.46597 172.730281 
L 274.658658 172.730281 
L 274.692997 171.157538 
L 278.942439 171.157538 
L 279.025114 169.060547 
L 279.629407 169.060547 
L 279.629407 168.5363 
L 282.558467 168.5363 
L 282.620581 167.487804 
L 282.748815 167.487804 
L 282.748815 166.963557 
L 282.889449 166.963557 
L 282.889449 166.439309 
L 283.124576 166.439309 
L 283.124576 165.915061 
L 285.715808 165.915061 
L 285.715808 165.390813 
L 285.874967 165.390813 
L 285.876867 164.342318 
L 288.245792 164.342318 
L 288.281016 162.769575 
L 288.417167 162.769575 
L 288.429523 161.721079 
L 290.503209 161.721079 
L 290.512916 160.148336 
L 290.633484 160.148336 
L 290.633484 159.099841 
L 290.783762 159.099841 
L 290.783762 158.575593 
L 292.515923 158.575593 
L 292.595779 155.954354 
L 292.729922 155.954354 
L 292.729922 154.905859 
L 294.259965 154.905859 
L 294.36501 153.333116 
L 294.505484 153.333116 
L 294.505484 152.808868 
L 295.859037 152.808868 
L 295.859037 152.28462 
L 297.328575 152.28462 
L 297.425424 150.18763 
L 298.682411 150.18763 
L 298.769708 148.090639 
L 300.018613 148.090639 
L 300.100133 146.517896 
L 301.085176 146.517896 
L 301.177076 144.420905 
L 301.277603 144.420905 
L 301.277603 143.896657 
L 302.26796 143.896657 
L 302.26796 143.372409 
L 303.382699 143.372409 
L 303.382699 142.323914 
L 304.262281 142.323914 
L 304.345929 140.226923 
L 305.999765 140.226923 
L 306.049467 139.178427 
L 306.124294 139.178427 
L 306.124294 138.65418 
L 306.82654 138.65418 
L 306.877102 137.081437 
L 306.948981 137.081437 
L 306.948981 136.557189 
L 307.618991 136.557189 
L 307.618991 136.032941 
L 308.426291 136.032941 
L 308.426291 135.508693 
L 309.102142 135.508693 
L 309.149838 134.460198 
L 311.151046 134.460198 
L 311.151046 133.93595 
L 311.732469 133.93595 
L 311.732469 133.411703 
L 312.411045 133.411703 
L 312.411045 132.887455 
L 313.505327 132.887455 
L 313.505327 132.363207 
L 314.013479 132.363207 
L 314.013479 131.838959 
L 315.049769 131.838959 
L 315.117546 130.790464 
L 316.979906 130.790464 
L 316.979906 130.266216 
L 317.46279 130.266216 
L 317.46279 129.741969 
L 319.092372 129.741969 
L 319.092372 129.217721 
L 319.462924 129.217721 
L 319.462924 128.693473 
L 325.337156 128.693473 
L 325.337156 128.169225 
L 325.899533 128.169225 
L 325.899533 127.644978 
L 328.616144 127.644978 
L 328.616144 127.12073 
L 333.429677 127.12073 
L 333.429677 127.12073 
" style="fill:none;stroke:#ff00ff;stroke-linecap:square;stroke-width:1.5;"/>
   </g>
   <g id="line2d_34">
    <defs>
     <path d="M -0 8.485281 
L 5.091169 0 
L 0 -8.485281 
L -5.091169 -0 
z
" id="mf0ea5b5b7f" style="stroke:#ff00ff;stroke-linejoin:miter;stroke-width:1.5;"/>
    </defs>
    <g>
     <use style="fill-opacity:0;stroke:#ff00ff;stroke-linejoin:miter;stroke-width:1.5;" x="144.90062" xlink:href="#mf0ea5b5b7f" y="280.725312"/>
     <use style="fill-opacity:0;stroke:#ff00ff;stroke-linejoin:miter;stroke-width:1.5;" x="203.517557" xlink:href="#mf0ea5b5b7f" y="245.076467"/>
     <use style="fill-opacity:0;stroke:#ff00ff;stroke-linejoin:miter;stroke-width:1.5;" x="267.652786" xlink:href="#mf0ea5b5b7f" y="180.06975"/>
     <use style="fill-opacity:0;stroke:#ff00ff;stroke-linejoin:miter;stroke-width:1.5;" x="319.092372" xlink:href="#mf0ea5b5b7f" y="129.217721"/>
     <use style="fill-opacity:0;stroke:#ff00ff;stroke-linejoin:miter;stroke-width:1.5;" x="328.616144" xlink:href="#mf0ea5b5b7f" y="127.12073"/>
     <use style="fill-opacity:0;stroke:#ff00ff;stroke-linejoin:miter;stroke-width:1.5;" x="333.429677" xlink:href="#mf0ea5b5b7f" y="127.12073"/>
    </g>
   </g>
   <g id="line2d_35">
    <path style="fill:none;stroke:#ff00ff;stroke-linecap:square;stroke-width:1.5;"/>
    <g/>
   </g>
   <g id="line2d_36">
    <path clip-path="url(#p7df02f6a0e)" d="M 254.270861 195.272933 
" style="fill:none;stroke:#ff00ff;stroke-linecap:square;stroke-width:1.5;"/>
    <defs>
     <path d="M -12 12 
L 12 -12 
M -12 -12 
L 12 12 
" id="m0b6d1f7f0f" style="stroke:#ff00ff;stroke-width:3;"/>
    </defs>
    <g clip-path="url(#p7df02f6a0e)">
     <use style="fill:#ff00ff;stroke:#ff00ff;stroke-width:3;" x="254.270861" xlink:href="#m0b6d1f7f0f" y="195.272933"/>
    </g>
   </g>
   <g id="line2d_37">
    <defs>
     <path d="M 0 1.5 
C 0.397805 1.5 0.77937 1.341951 1.06066 1.06066 
C 1.341951 0.77937 1.5 0.397805 1.5 0 
C 1.5 -0.397805 1.341951 -0.77937 1.06066 -1.06066 
C 0.77937 -1.341951 0.397805 -1.5 0 -1.5 
C -0.397805 -1.5 -0.77937 -1.341951 -1.06066 -1.06066 
C -1.341951 -0.77937 -1.5 -0.397805 -1.5 0 
C -1.5 0.397805 -1.341951 0.77937 -1.06066 1.06066 
C -0.77937 1.341951 -0.397805 1.5 0 1.5 
z
" id="mc03b387b7f" style="stroke:#ffa500;"/>
    </defs>
    <g>
     <use style="fill:#ffa500;stroke:#ffa500;" x="205.746895" xlink:href="#mc03b387b7f" y="27.513663"/>
     <use style="fill:#ffa500;stroke:#ffa500;" x="205.746895" xlink:href="#mc03b387b7f" y="27.513663"/>
    </g>
   </g>
   <g id="line2d_38">
    <path d="M 79.971009 294.88 
L 79.971009 292.258761 
L 83.107827 292.258761 
L 83.107827 291.734514 
L 86.946982 291.734514 
L 86.946982 291.210266 
L 89.599124 291.210266 
L 89.599124 290.161771 
L 90.555195 290.161771 
L 90.555195 288.589027 
L 91.460924 288.589027 
L 91.460924 288.06478 
L 92.321346 288.06478 
L 92.321346 287.540532 
L 92.735942 287.540532 
L 92.735942 287.016284 
L 93.536312 287.016284 
L 93.536312 284.919293 
L 93.922955 284.919293 
L 93.922955 283.870798 
L 94.301099 283.870798 
L 94.301099 282.298055 
L 94.67111 282.298055 
L 94.67111 281.249559 
L 96.07637 281.249559 
L 96.07637 280.725312 
L 96.738177 280.725312 
L 96.738177 279.152568 
L 97.059773 279.152568 
L 97.059773 278.628321 
L 97.685473 278.628321 
L 97.685473 278.104073 
L 97.989992 278.104073 
L 97.989992 277.579825 
L 98.583322 277.579825 
L 98.583322 277.055578 
L 98.872486 277.055578 
L 98.872486 276.53133 
L 99.156871 276.53133 
L 99.156871 276.007082 
L 99.711914 276.007082 
L 99.711914 274.958587 
L 99.982863 274.958587 
L 99.982863 274.434339 
L 100.512285 274.434339 
L 100.512285 272.861596 
L 102.009304 272.861596 
L 102.009304 271.8131 
L 102.246616 271.8131 
L 102.246616 270.764605 
L 103.164427 270.764605 
L 103.164427 270.240357 
L 103.605601 270.240357 
L 103.605601 269.716109 
L 103.822018 269.716109 
L 103.822018 268.143366 
L 104.246851 268.143366 
L 104.246851 267.619119 
L 104.865056 267.619119 
L 104.865056 266.570623 
L 105.265187 266.570623 
L 105.265187 266.046375 
L 106.596615 266.046375 
L 106.596615 264.99788 
L 107.313588 264.99788 
L 107.313588 263.949385 
L 107.488258 263.949385 
L 107.488258 262.900889 
L 107.661173 262.900889 
L 107.661173 261.852394 
L 108.001874 261.852394 
L 108.001874 261.328146 
L 110.362401 261.328146 
L 110.362401 259.231155 
L 110.508826 259.231155 
L 110.508826 258.18266 
L 111.082375 258.18266 
L 111.082375 256.609917 
L 111.773426 256.609917 
L 111.773426 256.085669 
L 111.908367 256.085669 
L 111.908367 252.940182 
L 113.572587 252.940182 
L 113.572587 251.367439 
L 113.694177 251.367439 
L 113.694177 250.843192 
L 113.814914 250.843192 
L 113.814914 250.318944 
L 114.053874 250.318944 
L 114.053874 249.794696 
L 114.406204 249.794696 
L 114.406204 249.270448 
L 114.522062 249.270448 
L 114.522062 248.221953 
L 114.865028 248.221953 
L 114.865028 247.697705 
L 115.20129 247.697705 
L 115.20129 247.173458 
L 115.531106 247.173458 
L 115.531106 246.64921 
L 116.790561 246.64921 
L 116.790561 246.124962 
L 117.091528 246.124962 
L 117.091528 245.076467 
L 117.387321 245.076467 
L 117.484799 242.979476 
L 118.704183 242.979476 
L 118.704183 241.93098 
L 118.88434 241.93098 
L 118.88434 240.882485 
L 119.413762 240.882485 
L 119.500437 239.309742 
L 119.927379 239.309742 
L 120.01151 238.261246 
L 120.178549 238.261246 
L 120.178549 236.688503 
L 120.589186 236.688503 
L 120.67015 233.543017 
L 120.750735 233.543017 
L 120.750735 233.018769 
L 121.382177 233.018769 
L 121.382177 231.970274 
L 121.765375 231.970274 
L 121.765375 230.921778 
L 122.507079 230.921778 
L 122.507079 230.397531 
L 122.866275 230.397531 
L 122.866275 229.873283 
L 123.562923 229.873283 
L 123.562923 229.349035 
L 123.900947 229.349035 
L 123.900947 228.30054 
L 124.232458 228.30054 
L 124.232458 227.776292 
L 124.557701 227.776292 
L 124.557701 227.252044 
L 125.190304 227.252044 
L 125.190304 225.155053 
L 125.498092 225.155053 
L 125.558994 223.58231 
L 125.80047 223.58231 
L 125.80047 221.485319 
L 125.979378 221.485319 
L 125.979378 220.961072 
L 126.389735 220.961072 
L 126.389735 219.388328 
L 126.733844 219.388328 
L 126.733844 217.815585 
L 126.847034 217.815585 
L 126.847034 217.291338 
L 127.237437 217.291338 
L 127.292493 215.718594 
L 127.619177 215.718594 
L 127.619177 215.194347 
L 128.045326 215.194347 
L 128.045326 214.145851 
L 128.306406 214.145851 
L 128.35815 212.573108 
L 128.563584 212.573108 
L 128.563584 211.524613 
L 128.816974 211.524613 
L 128.816974 211.000365 
L 128.967235 211.000365 
L 128.967235 210.476117 
L 129.312825 210.476117 
L 129.312825 208.379126 
L 129.889579 208.379126 
L 129.889579 207.854879 
L 130.030796 207.854879 
L 130.030796 206.806383 
L 130.263612 206.806383 
L 130.263612 206.282136 
L 130.720002 206.282136 
L 130.809845 204.709392 
L 130.943735 204.709392 
L 130.943735 203.660897 
L 131.208431 203.660897 
L 131.208431 202.612401 
L 131.425941 202.612401 
L 131.425941 202.088154 
L 132.062446 202.088154 
L 132.062446 201.563906 
L 132.269486 201.563906 
L 132.310597 199.991163 
L 132.635994 199.991163 
L 132.635994 198.41842 
L 133.073598 198.41842 
L 133.15198 196.845677 
L 133.614919 196.845677 
L 133.614919 195.797181 
L 133.879324 195.797181 
L 133.954128 194.748686 
L 134.323346 194.748686 
L 134.432583 193.70019 
L 134.541132 193.70019 
L 134.613119 192.127447 
L 134.720537 192.127447 
L 134.720537 191.078952 
L 134.898092 191.078952 
L 134.898092 188.457713 
L 135.178422 188.457713 
L 135.247796 185.836474 
L 135.759376 185.836474 
L 135.826452 183.215236 
L 135.926577 183.215236 
L 135.926577 182.690988 
L 136.483206 182.690988 
L 136.515394 181.642493 
L 137.115809 181.642493 
L 137.208725 180.593997 
L 137.57545 180.593997 
L 137.665922 179.545502 
L 137.695975 179.545502 
L 137.695975 179.021254 
L 137.964108 179.021254 
L 138.052565 177.972759 
L 138.19899 177.972759 
L 138.257213 176.400016 
L 138.401914 176.400016 
L 138.430709 173.254529 
L 138.828856 173.254529 
L 138.828856 172.730281 
L 138.968847 172.730281 
L 138.99671 170.633291 
L 139.272877 170.633291 
L 139.327583 169.060547 
L 139.652212 169.060547 
L 139.732422 166.439309 
L 139.865278 166.439309 
L 139.918135 164.866566 
L 139.997117 164.866566 
L 139.997117 164.342318 
L 140.20598 164.342318 
L 140.309468 162.245327 
L 140.463543 162.245327 
L 140.463543 160.672584 
L 140.641569 160.672584 
L 140.641569 160.148336 
L 140.792711 160.148336 
L 140.817773 159.099841 
L 141.041701 159.099841 
L 141.066403 158.051345 
L 141.432737 158.051345 
L 141.432737 157.00285 
L 141.624972 157.00285 
L 141.624972 155.954354 
L 141.815083 155.954354 
L 141.815083 155.430107 
L 142.096368 155.430107 
L 142.189117 154.381611 
L 142.327309 154.381611 
L 142.418825 151.760373 
L 142.645506 151.760373 
L 142.712932 149.663382 
L 142.824725 149.663382 
L 142.824725 149.139134 
L 143.15581 149.139134 
L 143.264771 148.090639 
L 143.480644 148.090639 
L 143.587574 146.517896 
L 143.693842 146.517896 
L 143.799459 143.896657 
L 143.862519 143.896657 
L 143.925349 142.848162 
L 144.621831 142.848162 
L 144.621831 142.323914 
L 144.940081 142.323914 
L 145.018732 139.702675 
L 145.116542 139.702675 
L 145.155512 138.65418 
L 145.271892 138.65418 
L 145.310511 136.557189 
L 145.406682 136.557189 
L 145.425852 134.984446 
L 145.69201 134.984446 
L 145.786077 132.887455 
L 145.916913 132.887455 
L 145.916913 132.363207 
L 146.157286 132.363207 
L 146.230576 129.741969 
L 146.339929 129.741969 
L 146.430529 128.693473 
L 146.520654 128.693473 
L 146.628185 125.547987 
L 146.699501 125.547987 
L 146.699501 125.023739 
L 146.929256 125.023739 
L 146.929256 124.499491 
L 147.103926 124.499491 
L 147.103926 123.975244 
L 147.48207 123.975244 
L 147.48207 123.450996 
L 147.718451 123.450996 
L 147.785396 121.878253 
L 148.034145 121.878253 
L 148.083467 119.257014 
L 148.311781 119.257014 
L 148.392593 117.160023 
L 148.473027 117.160023 
L 148.473027 115.063032 
L 148.632777 115.063032 
L 148.712098 113.490289 
L 148.806804 113.490289 
L 148.88533 111.917546 
L 149.025778 111.917546 
L 149.118778 110.344803 
L 149.349101 110.344803 
L 149.349101 109.820555 
L 149.531165 109.820555 
L 149.531165 108.77206 
L 149.72625 108.77206 
L 149.72625 108.247812 
L 149.933898 108.247812 
L 150.022128 106.675069 
L 150.513729 106.675069 
L 150.513729 105.626573 
L 150.683935 105.626573 
L 150.683935 105.102326 
L 150.866445 105.102326 
L 150.866445 104.578078 
L 151.102226 104.578078 
L 151.102226 104.05383 
L 151.456697 104.05383 
L 151.483664 101.432592 
L 151.724483 101.432592 
L 151.724483 100.384096 
L 151.93575 100.384096 
L 151.93575 99.335601 
L 152.183306 99.335601 
L 152.183306 98.811353 
L 152.414593 98.811353 
L 152.46557 97.23861 
L 152.655401 97.23861 
L 152.705671 96.190115 
L 152.780802 96.190115 
L 152.780802 95.665867 
L 152.905295 95.665867 
L 152.930086 94.617371 
L 153.346155 94.617371 
L 153.346155 93.568876 
L 153.881805 93.568876 
L 153.881805 93.044628 
L 154.103055 93.044628 
L 154.103055 91.996133 
L 154.389905 91.996133 
L 154.389905 91.471885 
L 154.559747 91.471885 
L 154.615991 89.899142 
L 154.783626 89.899142 
L 154.783626 88.850646 
L 154.949644 88.850646 
L 155.015605 85.70516 
L 155.330901 85.70516 
L 155.330901 84.132417 
L 155.449 84.132417 
L 155.449 83.608169 
L 155.598146 83.608169 
L 155.598146 82.559674 
L 155.756522 82.559674 
L 155.756522 82.035426 
L 156.274157 82.035426 
L 156.274157 81.511178 
L 156.476927 81.511178 
L 156.577423 80.462683 
L 156.627452 80.462683 
L 156.677335 78.365692 
L 156.885282 78.365692 
L 156.885282 77.317197 
L 157.022529 77.317197 
L 157.022529 76.268701 
L 157.264923 76.268701 
L 157.312995 73.123215 
L 157.541888 73.123215 
L 157.608079 71.550472 
L 157.692809 71.550472 
L 157.777124 69.977729 
L 157.888905 69.977729 
L 157.990736 68.929233 
L 158.119474 68.929233 
L 158.174354 66.832242 
L 158.383121 66.832242 
L 158.383121 65.783747 
L 159.305266 65.783747 
L 159.305266 65.259499 
L 161.067454 65.259499 
L 161.067454 64.735251 
L 161.78553 64.735251 
L 161.78553 64.211004 
L 162.446359 64.211004 
L 162.446359 63.686756 
L 162.588256 63.686756 
L 162.588256 63.162508 
L 162.79893 63.162508 
L 162.79893 62.638261 
L 162.951801 62.638261 
L 162.951801 62.114013 
L 163.334908 62.114013 
L 163.429366 60.54127 
L 163.48311 60.54127 
L 163.48311 60.017022 
L 164.536799 60.017022 
L 164.631176 58.444279 
L 164.725038 58.444279 
L 164.756212 57.395783 
L 165.772114 57.395783 
L 165.772114 56.871536 
L 165.958998 56.871536 
L 165.958998 56.347288 
L 166.161105 56.347288 
L 166.189784 54.774545 
L 166.275537 54.774545 
L 166.360865 52.677554 
L 166.445771 52.677554 
L 166.445771 52.153306 
L 166.563941 52.153306 
L 166.659011 51.104811 
L 166.698006 51.104811 
L 166.698006 50.580563 
L 166.84759 50.580563 
L 166.880655 49.00782 
L 167.001353 49.00782 
L 167.001353 47.435077 
L 167.19705 47.435077 
L 167.277938 45.862334 
L 167.491799 45.862334 
L 167.539553 43.765343 
L 168.721974 43.765343 
L 168.721974 42.716847 
L 169.358095 42.716847 
L 169.358095 42.192599 
L 169.472129 42.192599 
L 169.50052 41.144104 
L 169.655838 41.144104 
L 169.679249 40.095609 
L 169.781881 40.095609 
L 169.888528 38.522865 
L 169.971532 38.522865 
L 170.049559 37.47437 
L 196.536347 37.47437 
L 196.536347 36.950122 
L 200.151673 36.950122 
L 200.151673 35.901627 
L 201.848406 35.901627 
L 201.848406 34.853131 
L 202.573695 34.853131 
L 202.573695 34.328884 
L 202.873955 34.328884 
L 202.983695 31.183397 
L 202.998545 31.183397 
L 203.049071 28.562159 
L 203.392067 28.562159 
L 203.392067 28.037911 
L 205.746895 28.037911 
L 205.746895 27.513663 
L 333.429677 27.513663 
L 333.429677 27.513663 
" style="fill:none;stroke:#ffa500;stroke-linecap:square;stroke-width:1.5;"/>
   </g>
   <g id="line2d_39">
    <defs>
     <path d="M 0 -6 
L -1.347084 -1.854102 
L -5.706339 -1.854102 
L -2.179628 0.708204 
L -3.526712 4.854102 
L -0 2.291796 
L 3.526712 4.854102 
L 2.179628 0.708204 
L 5.706339 -1.854102 
L 1.347084 -1.854102 
z
" id="m7fd502e3cf" style="stroke:#ffa500;stroke-linejoin:bevel;stroke-width:1.5;"/>
    </defs>
    <g>
     <use style="fill-opacity:0;stroke:#ffa500;stroke-linejoin:bevel;stroke-width:1.5;" x="152.780802" xlink:href="#m7fd502e3cf" y="95.665867"/>
     <use style="fill-opacity:0;stroke:#ffa500;stroke-linejoin:bevel;stroke-width:1.5;" x="203.392067" xlink:href="#m7fd502e3cf" y="28.562159"/>
     <use style="fill-opacity:0;stroke:#ffa500;stroke-linejoin:bevel;stroke-width:1.5;" x="205.746895" xlink:href="#m7fd502e3cf" y="27.513663"/>
     <use style="fill-opacity:0;stroke:#ffa500;stroke-linejoin:bevel;stroke-width:1.5;" x="205.746895" xlink:href="#m7fd502e3cf" y="27.513663"/>
     <use style="fill-opacity:0;stroke:#ffa500;stroke-linejoin:bevel;stroke-width:1.5;" x="333.429677" xlink:href="#m7fd502e3cf" y="27.513663"/>
    </g>
   </g>
   <g id="line2d_40">
    <path style="fill:none;stroke:#ffa500;stroke-linecap:square;stroke-width:1.5;"/>
    <g/>
   </g>
   <g id="line2d_41">
    <defs>
     <path d="M 0 1.5 
C 0.397805 1.5 0.77937 1.341951 1.06066 1.06066 
C 1.341951 0.77937 1.5 0.397805 1.5 0 
C 1.5 -0.397805 1.341951 -0.77937 1.06066 -1.06066 
C 0.77937 -1.341951 0.397805 -1.5 0 -1.5 
C -0.397805 -1.5 -0.77937 -1.341951 -1.06066 -1.06066 
C -1.341951 -0.77937 -1.5 -0.397805 -1.5 0 
C -1.5 0.397805 -1.341951 0.77937 -1.06066 1.06066 
C -0.77937 1.341951 -0.397805 1.5 0 1.5 
z
" id="m52fc419a1c" style="stroke:#6495ed;"/>
    </defs>
    <g>
     <use style="fill:#6495ed;stroke:#6495ed;" x="133.576813" xlink:href="#m52fc419a1c" y="284.395046"/>
     <use style="fill:#6495ed;stroke:#6495ed;" x="133.576813" xlink:href="#m52fc419a1c" y="284.395046"/>
    </g>
   </g>
   <g id="line2d_42">
    <path d="M 68.045504 294.88 
L 68.045504 294.355752 
L 86.946982 294.355752 
L 86.946982 293.307257 
L 96.07637 293.307257 
L 96.07637 292.783009 
L 96.410455 292.783009 
L 96.410455 292.258761 
L 102.009304 292.258761 
L 102.009304 291.734514 
L 109.915496 291.734514 
L 109.915496 291.210266 
L 110.065758 291.210266 
L 110.065758 290.686018 
L 112.824432 290.686018 
L 112.824432 289.637523 
L 115.311933 289.637523 
L 115.311933 289.113275 
L 119.413762 289.113275 
L 119.413762 288.06478 
L 121.226476 288.06478 
L 121.226476 287.540532 
L 124.232458 287.540532 
L 124.232458 287.016284 
L 125.558994 287.016284 
L 125.558994 285.967789 
L 129.983852 285.967789 
L 129.983852 285.443541 
L 130.988135 285.443541 
L 130.988135 284.919293 
L 133.576813 284.919293 
L 133.576813 284.395046 
L 333.429677 284.395046 
" style="fill:none;stroke:#6495ed;stroke-linecap:square;stroke-width:1.5;"/>
   </g>
   <g id="line2d_43">
    <defs>
     <path d="M -0 6 
L 6 -6 
L -6 -6 
z
" id="m38f8b9df5a" style="stroke:#6495ed;stroke-linejoin:miter;stroke-width:1.5;"/>
    </defs>
    <g>
     <use style="fill-opacity:0;stroke:#6495ed;stroke-linejoin:miter;stroke-width:1.5;" x="133.576813" xlink:href="#m38f8b9df5a" y="284.919293"/>
     <use style="fill-opacity:0;stroke:#6495ed;stroke-linejoin:miter;stroke-width:1.5;" x="133.576813" xlink:href="#m38f8b9df5a" y="284.395046"/>
     <use style="fill-opacity:0;stroke:#6495ed;stroke-linejoin:miter;stroke-width:1.5;" x="133.576813" xlink:href="#m38f8b9df5a" y="284.395046"/>
     <use style="fill-opacity:0;stroke:#6495ed;stroke-linejoin:miter;stroke-width:1.5;" x="133.576813" xlink:href="#m38f8b9df5a" y="284.395046"/>
     <use style="fill-opacity:0;stroke:#6495ed;stroke-linejoin:miter;stroke-width:1.5;" x="333.429677" xlink:href="#m38f8b9df5a" y="284.395046"/>
    </g>
   </g>
   <g id="line2d_44">
    <path style="fill:none;stroke:#6495ed;stroke-linecap:square;stroke-width:1.5;"/>
    <g/>
   </g>
   <g id="line2d_45">
    <path clip-path="url(#p7df02f6a0e)" d="M 80.810437 294.355752 
" style="fill:none;stroke:#6495ed;stroke-linecap:square;stroke-width:1.5;"/>
    <defs>
     <path d="M -12 12 
L 12 -12 
M -12 -12 
L 12 12 
" id="mb2be5aab62" style="stroke:#6495ed;stroke-width:3;"/>
    </defs>
    <g clip-path="url(#p7df02f6a0e)">
     <use style="fill:#6495ed;stroke:#6495ed;stroke-width:3;" x="80.810437" xlink:href="#mb2be5aab62" y="294.355752"/>
    </g>
   </g>
   <g id="line2d_46">
    <path d="M 333.429677 284.395046 
L 363.933742 289.532673 
" style="fill:none;stroke:#6495ed;stroke-linecap:square;stroke-width:1.5;"/>
    <g>
     <use style="fill-opacity:0;stroke:#6495ed;stroke-linejoin:miter;stroke-width:1.5;" x="333.429677" xlink:href="#m38f8b9df5a" y="284.395046"/>
     <use style="fill-opacity:0;stroke:#6495ed;stroke-linejoin:miter;stroke-width:1.5;" x="363.933742" xlink:href="#m38f8b9df5a" y="289.532673"/>
    </g>
   </g>
   <g id="line2d_47">
    <path d="M 333.429677 127.12073 
L 363.933742 225.364752 
" style="fill:none;stroke:#ff00ff;stroke-linecap:square;stroke-width:1.5;"/>
    <g>
     <use style="fill-opacity:0;stroke:#ff00ff;stroke-linejoin:miter;stroke-width:1.5;" x="333.429677" xlink:href="#mf0ea5b5b7f" y="127.12073"/>
     <use style="fill-opacity:0;stroke:#ff00ff;stroke-linejoin:miter;stroke-width:1.5;" x="363.933742" xlink:href="#mf0ea5b5b7f" y="225.364752"/>
    </g>
   </g>
   <g id="line2d_48">
    <path d="M 333.429677 27.513663 
L 363.933742 161.196832 
" style="fill:none;stroke:#000080;stroke-linecap:square;stroke-width:1.5;"/>
    <g>
     <use style="fill-opacity:0;stroke:#000080;stroke-width:1.5;" x="333.429677" xlink:href="#m164f7c8f30" y="27.513663"/>
     <use style="fill-opacity:0;stroke:#000080;stroke-width:1.5;" x="363.933742" xlink:href="#m164f7c8f30" y="161.196832"/>
    </g>
   </g>
   <g id="line2d_49">
    <path d="M 333.429677 27.513663 
L 363.933742 97.028911 
" style="fill:none;stroke:#ffa500;stroke-linecap:square;stroke-width:1.5;"/>
    <g>
     <use style="fill-opacity:0;stroke:#ffa500;stroke-linejoin:bevel;stroke-width:1.5;" x="333.429677" xlink:href="#m7fd502e3cf" y="27.513663"/>
     <use style="fill-opacity:0;stroke:#ffa500;stroke-linejoin:bevel;stroke-width:1.5;" x="363.933742" xlink:href="#m7fd502e3cf" y="97.028911"/>
    </g>
   </g>
   <g id="line2d_50">
    <path d="M 333.429677 294.88 
L 333.429677 27.513663 
" style="fill:none;stroke:#000000;stroke-linecap:square;stroke-width:1.5;"/>
   </g>
   <g id="patch_3">
    <path d="M 56.12 294.88 
L 56.12 24.84 
" style="fill:none;stroke:#000000;stroke-linecap:square;stroke-linejoin:miter;stroke-width:0.8;"/>
   </g>
   <g id="patch_4">
    <path d="M 399.984 294.88 
L 399.984 24.84 
" style="fill:none;stroke:#000000;stroke-linecap:square;stroke-linejoin:miter;stroke-width:0.8;"/>
   </g>
   <g id="patch_5">
    <path d="M 56.12 294.88 
L 399.984 294.88 
" style="fill:none;stroke:#000000;stroke-linecap:square;stroke-linejoin:miter;stroke-width:0.8;"/>
   </g>
   <g id="patch_6">
    <path d="M 56.12 24.84 
L 399.984 24.84 
" style="fill:none;stroke:#000000;stroke-linecap:square;stroke-linejoin:miter;stroke-width:0.8;"/>
   </g>
   <g id="text_14">
    <!-- hybrid -->
    <defs>
     <path d="M 54.890625 33.015625 
L 54.890625 0 
L 45.90625 0 
L 45.90625 32.71875 
Q 45.90625 40.484375 42.875 44.328125 
Q 39.84375 48.1875 33.796875 48.1875 
Q 26.515625 48.1875 22.3125 43.546875 
Q 18.109375 38.921875 18.109375 30.90625 
L 18.109375 0 
L 9.078125 0 
L 9.078125 75.984375 
L 18.109375 75.984375 
L 18.109375 46.1875 
Q 21.34375 51.125 25.703125 53.5625 
Q 30.078125 56 35.796875 56 
Q 45.21875 56 50.046875 50.171875 
Q 54.890625 44.34375 54.890625 33.015625 
z
" id="DejaVuSans-68"/>
     <path d="M 32.171875 -5.078125 
Q 28.375 -14.84375 24.75 -17.8125 
Q 21.140625 -20.796875 15.09375 -20.796875 
L 7.90625 -20.796875 
L 7.90625 -13.28125 
L 13.1875 -13.28125 
Q 16.890625 -13.28125 18.9375 -11.515625 
Q 21 -9.765625 23.484375 -3.21875 
L 25.09375 0.875 
L 2.984375 54.6875 
L 12.5 54.6875 
L 29.59375 11.921875 
L 46.6875 54.6875 
L 56.203125 54.6875 
z
" id="DejaVuSans-79"/>
     <path d="M 48.6875 27.296875 
Q 48.6875 37.203125 44.609375 42.84375 
Q 40.53125 48.484375 33.40625 48.484375 
Q 26.265625 48.484375 22.1875 42.84375 
Q 18.109375 37.203125 18.109375 27.296875 
Q 18.109375 17.390625 22.1875 11.75 
Q 26.265625 6.109375 33.40625 6.109375 
Q 40.53125 6.109375 44.609375 11.75 
Q 48.6875 17.390625 48.6875 27.296875 
z
M 18.109375 46.390625 
Q 20.953125 51.265625 25.265625 53.625 
Q 29.59375 56 35.59375 56 
Q 45.5625 56 51.78125 48.09375 
Q 58.015625 40.1875 58.015625 27.296875 
Q 58.015625 14.40625 51.78125 6.484375 
Q 45.5625 -1.421875 35.59375 -1.421875 
Q 29.59375 -1.421875 25.265625 0.953125 
Q 20.953125 3.328125 18.109375 8.203125 
L 18.109375 0 
L 9.078125 0 
L 9.078125 75.984375 
L 18.109375 75.984375 
z
" id="DejaVuSans-62"/>
    </defs>
    <g transform="translate(369.479935 294.223611)scale(0.17 -0.17)">
     <use xlink:href="#DejaVuSans-68"/>
     <use x="63.378906" xlink:href="#DejaVuSans-79"/>
     <use x="122.558594" xlink:href="#DejaVuSans-62"/>
     <use x="186.035156" xlink:href="#DejaVuSans-72"/>
     <use x="227.148438" xlink:href="#DejaVuSans-69"/>
     <use x="254.931641" xlink:href="#DejaVuSans-64"/>
    </g>
   </g>
   <g id="text_15">
    <!-- GA -->
    <defs>
     <path d="M 59.515625 10.40625 
L 59.515625 29.984375 
L 43.40625 29.984375 
L 43.40625 38.09375 
L 69.28125 38.09375 
L 69.28125 6.78125 
Q 63.578125 2.734375 56.6875 0.65625 
Q 49.8125 -1.421875 42 -1.421875 
Q 24.90625 -1.421875 15.25 8.5625 
Q 5.609375 18.5625 5.609375 36.375 
Q 5.609375 54.25 15.25 64.234375 
Q 24.90625 74.21875 42 74.21875 
Q 49.125 74.21875 55.546875 72.453125 
Q 61.96875 70.703125 67.390625 67.28125 
L 67.390625 56.78125 
Q 61.921875 61.421875 55.765625 63.765625 
Q 49.609375 66.109375 42.828125 66.109375 
Q 29.4375 66.109375 22.71875 58.640625 
Q 16.015625 51.171875 16.015625 36.375 
Q 16.015625 21.625 22.71875 14.15625 
Q 29.4375 6.6875 42.828125 6.6875 
Q 48.046875 6.6875 52.140625 7.59375 
Q 56.25 8.5 59.515625 10.40625 
z
" id="DejaVuSans-47"/>
     <path d="M 34.1875 63.1875 
L 20.796875 26.90625 
L 47.609375 26.90625 
z
M 28.609375 72.90625 
L 39.796875 72.90625 
L 67.578125 0 
L 57.328125 0 
L 50.6875 18.703125 
L 17.828125 18.703125 
L 11.1875 0 
L 0.78125 0 
z
" id="DejaVuSans-41"/>
    </defs>
    <g transform="translate(369.479935 230.05569)scale(0.17 -0.17)">
     <use xlink:href="#DejaVuSans-47"/>
     <use x="77.490234" xlink:href="#DejaVuSans-41"/>
    </g>
   </g>
   <g id="text_16">
    <!-- DASA -->
    <defs>
     <path d="M 19.671875 64.796875 
L 19.671875 8.109375 
L 31.59375 8.109375 
Q 46.6875 8.109375 53.6875 14.9375 
Q 60.6875 21.78125 60.6875 36.53125 
Q 60.6875 51.171875 53.6875 57.984375 
Q 46.6875 64.796875 31.59375 64.796875 
z
M 9.8125 72.90625 
L 30.078125 72.90625 
Q 51.265625 72.90625 61.171875 64.09375 
Q 71.09375 55.28125 71.09375 36.53125 
Q 71.09375 17.671875 61.125 8.828125 
Q 51.171875 0 30.078125 0 
L 9.8125 0 
z
" id="DejaVuSans-44"/>
     <path d="M 53.515625 70.515625 
L 53.515625 60.890625 
Q 47.90625 63.578125 42.921875 64.890625 
Q 37.9375 66.21875 33.296875 66.21875 
Q 25.25 66.21875 20.875 63.09375 
Q 16.5 59.96875 16.5 54.203125 
Q 16.5 49.359375 19.40625 46.890625 
Q 22.3125 44.4375 30.421875 42.921875 
L 36.375 41.703125 
Q 47.40625 39.59375 52.65625 34.296875 
Q 57.90625 29 57.90625 20.125 
Q 57.90625 9.515625 50.796875 4.046875 
Q 43.703125 -1.421875 29.984375 -1.421875 
Q 24.8125 -1.421875 18.96875 -0.25 
Q 13.140625 0.921875 6.890625 3.21875 
L 6.890625 13.375 
Q 12.890625 10.015625 18.65625 8.296875 
Q 24.421875 6.59375 29.984375 6.59375 
Q 38.421875 6.59375 43.015625 9.90625 
Q 47.609375 13.234375 47.609375 19.390625 
Q 47.609375 24.75 44.3125 27.78125 
Q 41.015625 30.8125 33.5 32.328125 
L 27.484375 33.5 
Q 16.453125 35.6875 11.515625 40.375 
Q 6.59375 45.0625 6.59375 53.421875 
Q 6.59375 63.09375 13.40625 68.65625 
Q 20.21875 74.21875 32.171875 74.21875 
Q 37.3125 74.21875 42.625 73.28125 
Q 47.953125 72.359375 53.515625 70.515625 
z
" id="DejaVuSans-53"/>
    </defs>
    <g transform="translate(369.479935 165.887769)scale(0.17 -0.17)">
     <use xlink:href="#DejaVuSans-44"/>
     <use x="76.986328" xlink:href="#DejaVuSans-41"/>
     <use x="145.394531" xlink:href="#DejaVuSans-53"/>
     <use x="208.886719" xlink:href="#DejaVuSans-41"/>
    </g>
   </g>
   <g id="text_17">
    <!-- Rosenbroc -->
    <defs>
     <path d="M 44.390625 34.1875 
Q 47.5625 33.109375 50.5625 29.59375 
Q 53.5625 26.078125 56.59375 19.921875 
L 66.609375 0 
L 56 0 
L 46.6875 18.703125 
Q 43.0625 26.03125 39.671875 28.421875 
Q 36.28125 30.8125 30.421875 30.8125 
L 19.671875 30.8125 
L 19.671875 0 
L 9.8125 0 
L 9.8125 72.90625 
L 32.078125 72.90625 
Q 44.578125 72.90625 50.734375 67.671875 
Q 56.890625 62.453125 56.890625 51.90625 
Q 56.890625 45.015625 53.6875 40.46875 
Q 50.484375 35.9375 44.390625 34.1875 
z
M 19.671875 64.796875 
L 19.671875 38.921875 
L 32.078125 38.921875 
Q 39.203125 38.921875 42.84375 42.21875 
Q 46.484375 45.515625 46.484375 51.90625 
Q 46.484375 58.296875 42.84375 61.546875 
Q 39.203125 64.796875 32.078125 64.796875 
z
" id="DejaVuSans-52"/>
    </defs>
    <g transform="translate(369.479935 101.719848)scale(0.17 -0.17)">
     <use xlink:href="#DejaVuSans-52"/>
     <use x="69.419922" xlink:href="#DejaVuSans-6f"/>
     <use x="130.601562" xlink:href="#DejaVuSans-73"/>
     <use x="182.701172" xlink:href="#DejaVuSans-65"/>
     <use x="244.224609" xlink:href="#DejaVuSans-6e"/>
     <use x="307.603516" xlink:href="#DejaVuSans-62"/>
     <use x="371.080078" xlink:href="#DejaVuSans-72"/>
     <use x="412.162109" xlink:href="#DejaVuSans-6f"/>
     <use x="473.34375" xlink:href="#DejaVuSans-63"/>
    </g>
   </g>
   <g id="text_18">
    <!-- best 2009 -->
    <defs>
     <path d="M 10.984375 1.515625 
L 10.984375 10.5 
Q 14.703125 8.734375 18.5 7.8125 
Q 22.3125 6.890625 25.984375 6.890625 
Q 35.75 6.890625 40.890625 13.453125 
Q 46.046875 20.015625 46.78125 33.40625 
Q 43.953125 29.203125 39.59375 26.953125 
Q 35.25 24.703125 29.984375 24.703125 
Q 19.046875 24.703125 12.671875 31.3125 
Q 6.296875 37.9375 6.296875 49.421875 
Q 6.296875 60.640625 12.9375 67.421875 
Q 19.578125 74.21875 30.609375 74.21875 
Q 43.265625 74.21875 49.921875 64.515625 
Q 56.59375 54.828125 56.59375 36.375 
Q 56.59375 19.140625 48.40625 8.859375 
Q 40.234375 -1.421875 26.421875 -1.421875 
Q 22.703125 -1.421875 18.890625 -0.6875 
Q 15.09375 0.046875 10.984375 1.515625 
z
M 30.609375 32.421875 
Q 37.25 32.421875 41.125 36.953125 
Q 45.015625 41.5 45.015625 49.421875 
Q 45.015625 57.28125 41.125 61.84375 
Q 37.25 66.40625 30.609375 66.40625 
Q 23.96875 66.40625 20.09375 61.84375 
Q 16.21875 57.28125 16.21875 49.421875 
Q 16.21875 41.5 20.09375 36.953125 
Q 23.96875 32.421875 30.609375 32.421875 
z
" id="DejaVuSans-39"/>
    </defs>
    <g transform="translate(369.479935 37.551928)scale(0.17 -0.17)">
     <use xlink:href="#DejaVuSans-62"/>
     <use x="63.476562" xlink:href="#DejaVuSans-65"/>
     <use x="125" xlink:href="#DejaVuSans-73"/>
     <use x="177.099609" xlink:href="#DejaVuSans-74"/>
     <use x="216.308594" xlink:href="#DejaVuSans-20"/>
     <use x="248.095703" xlink:href="#DejaVuSans-32"/>
     <use x="311.71875" xlink:href="#DejaVuSans-30"/>
     <use x="375.341797" xlink:href="#DejaVuSans-30"/>
     <use x="438.964844" xlink:href="#DejaVuSans-39"/>
    </g>
   </g>
   <g id="text_19">
    <!-- bbob f6, 5-D -->
    <defs>
     <path d="M 10.796875 72.90625 
L 49.515625 72.90625 
L 49.515625 64.59375 
L 19.828125 64.59375 
L 19.828125 46.734375 
Q 21.96875 47.46875 24.109375 47.828125 
Q 26.265625 48.1875 28.421875 48.1875 
Q 40.625 48.1875 47.75 41.5 
Q 54.890625 34.8125 54.890625 23.390625 
Q 54.890625 11.625 47.5625 5.09375 
Q 40.234375 -1.421875 26.90625 -1.421875 
Q 22.3125 -1.421875 17.546875 -0.640625 
Q 12.796875 0.140625 7.71875 1.703125 
L 7.71875 11.625 
Q 12.109375 9.234375 16.796875 8.0625 
Q 21.484375 6.890625 26.703125 6.890625 
Q 35.15625 6.890625 40.078125 11.328125 
Q 45.015625 15.765625 45.015625 23.390625 
Q 45.015625 31 40.078125 35.4375 
Q 35.15625 39.890625 26.703125 39.890625 
Q 22.75 39.890625 18.8125 39.015625 
Q 14.890625 38.140625 10.796875 36.28125 
z
" id="DejaVuSans-35"/>
    </defs>
    <g transform="translate(59.55864 35.290806)scale(0.102 -0.102)">
     <use xlink:href="#DejaVuSans-62"/>
     <use x="63.476562" xlink:href="#DejaVuSans-62"/>
     <use x="126.953125" xlink:href="#DejaVuSans-6f"/>
     <use x="188.134766" xlink:href="#DejaVuSans-62"/>
     <use x="251.611328" xlink:href="#DejaVuSans-20"/>
     <use x="283.398438" xlink:href="#DejaVuSans-66"/>
     <use x="318.603516" xlink:href="#DejaVuSans-36"/>
     <use x="382.226562" xlink:href="#DejaVuSans-2c"/>
     <use x="414.013672" xlink:href="#DejaVuSans-20"/>
     <use x="445.800781" xlink:href="#DejaVuSans-35"/>
     <use x="509.423828" xlink:href="#DejaVuSans-2d"/>
     <use x="545.507812" xlink:href="#DejaVuSans-44"/>
    </g>
    <!-- 51 targets: 100..1e-08 -->
    <defs>
     <path d="M 11.71875 12.40625 
L 22.015625 12.40625 
L 22.015625 0 
L 11.71875 0 
z
M 11.71875 51.703125 
L 22.015625 51.703125 
L 22.015625 39.3125 
L 11.71875 39.3125 
z
" id="DejaVuSans-3a"/>
    </defs>
    <g transform="translate(59.55864 46.712575)scale(0.102 -0.102)">
     <use xlink:href="#DejaVuSans-35"/>
     <use x="63.623047" xlink:href="#DejaVuSans-31"/>
     <use x="127.246094" xlink:href="#DejaVuSans-20"/>
     <use x="159.033203" xlink:href="#DejaVuSans-74"/>
     <use x="198.242188" xlink:href="#DejaVuSans-61"/>
     <use x="259.521484" xlink:href="#DejaVuSans-72"/>
     <use x="300.619141" xlink:href="#DejaVuSans-67"/>
     <use x="364.095703" xlink:href="#DejaVuSans-65"/>
     <use x="425.619141" xlink:href="#DejaVuSans-74"/>
     <use x="464.828125" xlink:href="#DejaVuSans-73"/>
     <use x="516.927734" xlink:href="#DejaVuSans-3a"/>
     <use x="550.619141" xlink:href="#DejaVuSans-20"/>
     <use x="582.40625" xlink:href="#DejaVuSans-31"/>
     <use x="646.029297" xlink:href="#DejaVuSans-30"/>
     <use x="709.652344" xlink:href="#DejaVuSans-30"/>
     <use x="773.275391" xlink:href="#DejaVuSans-2e"/>
     <use x="805.0625" xlink:href="#DejaVuSans-2e"/>
     <use x="836.849609" xlink:href="#DejaVuSans-31"/>
     <use x="900.472656" xlink:href="#DejaVuSans-65"/>
     <use x="961.996094" xlink:href="#DejaVuSans-2d"/>
     <use x="998.080078" xlink:href="#DejaVuSans-30"/>
     <use x="1061.703125" xlink:href="#DejaVuSans-38"/>
    </g>
    <!-- 15 instances -->
    <g transform="translate(59.55864 58.134344)scale(0.102 -0.102)">
     <use xlink:href="#DejaVuSans-31"/>
     <use x="63.623047" xlink:href="#DejaVuSans-35"/>
     <use x="127.246094" xlink:href="#DejaVuSans-20"/>
     <use x="159.033203" xlink:href="#DejaVuSans-69"/>
     <use x="186.816406" xlink:href="#DejaVuSans-6e"/>
     <use x="250.195312" xlink:href="#DejaVuSans-73"/>
     <use x="302.294922" xlink:href="#DejaVuSans-74"/>
     <use x="341.503906" xlink:href="#DejaVuSans-61"/>
     <use x="402.783203" xlink:href="#DejaVuSans-6e"/>
     <use x="466.162109" xlink:href="#DejaVuSans-63"/>
     <use x="521.142578" xlink:href="#DejaVuSans-65"/>
     <use x="582.666016" xlink:href="#DejaVuSans-73"/>
    </g>
   </g>
   <g id="text_20">
    <!-- v-coco-version -->
    <g style="fill:#808080;" transform="translate(191.556688 290.099912)scale(0.1 -0.1)">
     <use xlink:href="#DejaVuSans-76"/>
     <use x="59.148438" xlink:href="#DejaVuSans-2d"/>
     <use x="95.232422" xlink:href="#DejaVuSans-63"/>
     <use x="150.212891" xlink:href="#DejaVuSans-6f"/>
     <use x="211.394531" xlink:href="#DejaVuSans-63"/>
     <use x="266.375" xlink:href="#DejaVuSans-6f"/>
     <use x="327.572266" xlink:href="#DejaVuSans-2d"/>
     <use x="363.625" xlink:href="#DejaVuSans-76"/>
     <use x="422.804688" xlink:href="#DejaVuSans-65"/>
     <use x="484.328125" xlink:href="#DejaVuSans-72"/>
     <use x="525.441406" xlink:href="#DejaVuSans-73"/>
     <use x="577.541016" xlink:href="#DejaVuSans-69"/>
     <use x="605.324219" xlink:href="#DejaVuSans-6f"/>
     <use x="666.505859" xlink:href="#DejaVuSans-6e"/>
    </g>
   </g>
   <g id="text_21">
    <!-- 6 Attractive sector -->
    <g transform="translate(135.134813 18.84)scale(0.2 -0.2)">
     <use xlink:href="#DejaVuSans-36"/>
     <use x="63.623047" xlink:href="#DejaVuSans-20"/>
     <use x="95.410156" xlink:href="#DejaVuSans-41"/>
     <use x="163.802734" xlink:href="#DejaVuSans-74"/>
     <use x="203.011719" xlink:href="#DejaVuSans-74"/>
     <use x="242.220703" xlink:href="#DejaVuSans-72"/>
     <use x="283.333984" xlink:href="#DejaVuSans-61"/>
     <use x="344.613281" xlink:href="#DejaVuSans-63"/>
     <use x="399.59375" xlink:href="#DejaVuSans-74"/>
     <use x="438.802734" xlink:href="#DejaVuSans-69"/>
     <use x="466.585938" xlink:href="#DejaVuSans-76"/>
     <use x="525.765625" xlink:href="#DejaVuSans-65"/>
     <use x="587.289062" xlink:href="#DejaVuSans-20"/>
     <use x="619.076172" xlink:href="#DejaVuSans-73"/>
     <use x="671.175781" xlink:href="#DejaVuSans-65"/>
     <use x="732.699219" xlink:href="#DejaVuSans-63"/>
     <use x="787.679688" xlink:href="#DejaVuSans-74"/>
     <use x="826.888672" xlink:href="#DejaVuSans-6f"/>
     <use x="888.070312" xlink:href="#DejaVuSans-72"/>
    </g>
   </g>
  </g>
 </g>
 <defs>
  <clipPath id="p7df02f6a0e">
   <rect height="270.04" width="343.864" x="56.12" y="24.84"/>
  </clipPath>
 </defs>
</svg>
