<?xml version="1.0" encoding="utf-8" standalone="no"?>
<!DOCTYPE svg PUBLIC "-//W3C//DTD SVG 1.1//EN"
  "http://www.w3.org/Graphics/SVG/1.1/DTD/svg11.dtd">
<!-- Created with matplotlib (http://matplotlib.org/) -->
<svg height="345.6pt" version="1.1" viewBox="0 0 460.8 345.6" width="460.8pt" xmlns="http://www.w3.org/2000/svg" xmlns:xlink="http://www.w3.org/1999/xlink">
 <defs>
  <style type="text/css">
*{stroke-linecap:butt;stroke-linejoin:round;}
  </style>
 </defs>
 <g id="figure_1">
  <g id="patch_1">
   <path d="M 0 345.6 
L 460.8 345.6 
L 460.8 0 
L 0 0 
z
" style="fill:#ffffff;"/>
  </g>
  <g id="axes_1">
   <g id="patch_2">
    <path d="M 56.12 294.88 
L 399.984 294.88 
L 399.984 24.84 
L 56.12 24.84 
z
" style="fill:#ffffff;"/>
   </g>
   <g id="line2d_1">
    <path d="M 100.6852 294.88 
L 100.6852 289.637523 
L 102.711641 289.637523 
L 102.711641 284.395046 
L 103.459797 284.395046 
L 103.459797 279.152568 
L 103.822018 279.152568 
L 103.822018 273.910091 
L 106.47416 273.910091 
L 106.47416 268.667614 
L 109.038297 268.667614 
L 109.038297 263.425137 
L 112.394288 263.425137 
L 112.394288 258.18266 
L 115.747522 258.18266 
L 115.747522 252.940182 
L 117.613917 252.940182 
L 117.613917 247.697705 
L 120.830944 247.697705 
L 120.830944 242.455228 
L 125.375637 242.455228 
L 125.375637 237.212751 
L 128.716065 237.212751 
L 128.716065 231.970274 
L 130.779949 231.970274 
L 130.779949 226.727797 
L 135.692038 226.727797 
L 135.692038 221.485319 
L 136.675441 221.485319 
L 136.675441 216.242842 
L 137.403248 216.242842 
L 137.403248 211.000365 
L 138.19899 211.000365 
L 138.19899 205.757888 
L 138.912987 205.757888 
L 138.912987 200.515411 
L 139.598531 200.515411 
L 139.598531 195.272933 
L 140.04084 195.272933 
L 140.04084 190.030456 
L 140.343826 190.030456 
L 140.343826 184.787979 
L 140.809423 184.787979 
L 140.809423 179.545502 
L 141.058173 179.545502 
L 141.058173 174.303025 
L 141.343906 174.303025 
L 141.343906 169.060547 
L 141.822959 169.060547 
L 141.822959 163.81807 
L 142.135074 163.81807 
L 142.135074 158.575593 
L 143.897453 158.575593 
L 143.897453 153.333116 
L 146.899971 153.333116 
L 146.899971 148.090639 
L 147.276841 148.090639 
L 147.276841 142.848162 
L 147.645632 142.848162 
L 147.645632 137.605684 
L 147.951628 137.605684 
L 147.951628 132.363207 
L 148.252277 132.363207 
L 148.252277 127.12073 
L 148.759517 127.12073 
L 148.759517 121.878253 
L 149.098155 121.878253 
L 149.098155 116.635776 
L 149.480784 116.635776 
L 149.480784 111.393298 
L 149.830387 111.393298 
L 149.830387 106.150821 
L 150.075824 106.150821 
L 150.075824 100.908344 
L 150.293764 100.908344 
L 150.293764 95.665867 
L 150.556439 95.665867 
L 150.556439 90.42339 
L 150.838492 90.42339 
L 150.838492 85.180912 
L 151.047038 85.180912 
L 151.047038 79.938435 
L 151.207511 79.938435 
L 151.207511 74.695958 
L 151.546423 74.695958 
L 151.546423 69.453481 
L 151.68014 69.453481 
L 151.68014 64.211004 
L 151.856829 64.211004 
L 151.856829 58.968526 
L 152.009956 58.968526 
L 152.009956 53.726049 
L 152.183306 53.726049 
L 152.183306 48.483572 
L 152.29077 48.483572 
L 152.29077 43.241095 
L 152.461328 43.241095 
L 152.461328 37.998618 
L 152.588145 37.998618 
L 152.588145 32.756141 
L 152.714035 32.756141 
L 152.714035 27.513663 
L 333.429677 27.513663 
" style="fill:none;stroke:#f5deb3;stroke-linecap:square;stroke-width:6;"/>
   </g>
   <g id="line2d_2">
    <defs>
     <path d="M -0 7.778175 
L 7.778175 0 
L 0 -7.778175 
L -7.778175 -0 
z
" id="m03dbe41854" style="stroke:#f5deb3;stroke-linejoin:miter;stroke-width:1.5;"/>
    </defs>
    <g>
     <use style="fill:#f5deb3;stroke:#f5deb3;stroke-linejoin:miter;stroke-width:1.5;" x="138.19899" xlink:href="#m03dbe41854" y="205.757888"/>
     <use style="fill:#f5deb3;stroke:#f5deb3;stroke-linejoin:miter;stroke-width:1.5;" x="152.29077" xlink:href="#m03dbe41854" y="43.241095"/>
     <use style="fill:#f5deb3;stroke:#f5deb3;stroke-linejoin:miter;stroke-width:1.5;" x="152.714035" xlink:href="#m03dbe41854" y="27.513663"/>
     <use style="fill:#f5deb3;stroke:#f5deb3;stroke-linejoin:miter;stroke-width:1.5;" x="152.714035" xlink:href="#m03dbe41854" y="27.513663"/>
     <use style="fill:#f5deb3;stroke:#f5deb3;stroke-linejoin:miter;stroke-width:1.5;" x="333.429677" xlink:href="#m03dbe41854" y="27.513663"/>
    </g>
   </g>
   <g id="line2d_3">
    <path style="fill:none;stroke:#f5deb3;stroke-linecap:square;stroke-width:6;"/>
    <g/>
   </g>
   <g id="line2d_4">
    <path d="M 333.429677 27.513663 
L 363.933742 32.86099 
" style="fill:none;stroke:#f5deb3;stroke-linecap:square;stroke-width:6;"/>
    <g>
     <use style="fill:#f5deb3;stroke:#f5deb3;stroke-linejoin:miter;stroke-width:1.5;" x="333.429677" xlink:href="#m03dbe41854" y="27.513663"/>
     <use style="fill:#f5deb3;stroke:#f5deb3;stroke-linejoin:miter;stroke-width:1.5;" x="363.933742" xlink:href="#m03dbe41854" y="32.86099"/>
    </g>
   </g>
   <g id="matplotlib.axis_1">
    <g id="xtick_1">
     <g id="line2d_5">
      <path clip-path="url(#pb8d71b3993)" d="M 56.12 294.88 
L 56.12 24.84 
" style="fill:none;stroke:#b0b0b0;stroke-linecap:square;stroke-width:0.8;"/>
     </g>
     <g id="line2d_6">
      <defs>
       <path d="M 0 0 
L 0 3.5 
" id="m1a1d8cc044" style="stroke:#000000;stroke-width:0.8;"/>
      </defs>
      <g>
       <use style="stroke:#000000;stroke-width:0.8;" x="56.12" xlink:href="#m1a1d8cc044" y="294.88"/>
      </g>
     </g>
     <g id="text_1">
      <!-- 0 -->
      <defs>
       <path d="M 31.78125 66.40625 
Q 24.171875 66.40625 20.328125 58.90625 
Q 16.5 51.421875 16.5 36.375 
Q 16.5 21.390625 20.328125 13.890625 
Q 24.171875 6.390625 31.78125 6.390625 
Q 39.453125 6.390625 43.28125 13.890625 
Q 47.125 21.390625 47.125 36.375 
Q 47.125 51.421875 43.28125 58.90625 
Q 39.453125 66.40625 31.78125 66.40625 
z
M 31.78125 74.21875 
Q 44.046875 74.21875 50.515625 64.515625 
Q 56.984375 54.828125 56.984375 36.375 
Q 56.984375 17.96875 50.515625 8.265625 
Q 44.046875 -1.421875 31.78125 -1.421875 
Q 19.53125 -1.421875 13.0625 8.265625 
Q 6.59375 17.96875 6.59375 36.375 
Q 6.59375 54.828125 13.0625 64.515625 
Q 19.53125 74.21875 31.78125 74.21875 
z
" id="DejaVuSans-30"/>
      </defs>
      <g transform="translate(49.7575 317.076875)scale(0.2 -0.2)">
       <use xlink:href="#DejaVuSans-30"/>
      </g>
     </g>
    </g>
    <g id="xtick_2">
     <g id="line2d_7">
      <path clip-path="url(#pb8d71b3993)" d="M 135.351336 294.88 
L 135.351336 24.84 
" style="fill:none;stroke:#b0b0b0;stroke-linecap:square;stroke-width:0.8;"/>
     </g>
     <g id="line2d_8">
      <g>
       <use style="stroke:#000000;stroke-width:0.8;" x="135.351336" xlink:href="#m1a1d8cc044" y="294.88"/>
      </g>
     </g>
     <g id="text_2">
      <!-- 2 -->
      <defs>
       <path d="M 19.1875 8.296875 
L 53.609375 8.296875 
L 53.609375 0 
L 7.328125 0 
L 7.328125 8.296875 
Q 12.9375 14.109375 22.625 23.890625 
Q 32.328125 33.6875 34.8125 36.53125 
Q 39.546875 41.84375 41.421875 45.53125 
Q 43.3125 49.21875 43.3125 52.78125 
Q 43.3125 58.59375 39.234375 62.25 
Q 35.15625 65.921875 28.609375 65.921875 
Q 23.96875 65.921875 18.8125 64.3125 
Q 13.671875 62.703125 7.8125 59.421875 
L 7.8125 69.390625 
Q 13.765625 71.78125 18.9375 73 
Q 24.125 74.21875 28.421875 74.21875 
Q 39.75 74.21875 46.484375 68.546875 
Q 53.21875 62.890625 53.21875 53.421875 
Q 53.21875 48.921875 51.53125 44.890625 
Q 49.859375 40.875 45.40625 35.40625 
Q 44.1875 33.984375 37.640625 27.21875 
Q 31.109375 20.453125 19.1875 8.296875 
z
" id="DejaVuSans-32"/>
      </defs>
      <g transform="translate(128.988836 317.076875)scale(0.2 -0.2)">
       <use xlink:href="#DejaVuSans-32"/>
      </g>
     </g>
    </g>
    <g id="xtick_3">
     <g id="line2d_9">
      <path clip-path="url(#pb8d71b3993)" d="M 214.582673 294.88 
L 214.582673 24.84 
" style="fill:none;stroke:#b0b0b0;stroke-linecap:square;stroke-width:0.8;"/>
     </g>
     <g id="line2d_10">
      <g>
       <use style="stroke:#000000;stroke-width:0.8;" x="214.582673" xlink:href="#m1a1d8cc044" y="294.88"/>
      </g>
     </g>
     <g id="text_3">
      <!-- 4 -->
      <defs>
       <path d="M 37.796875 64.3125 
L 12.890625 25.390625 
L 37.796875 25.390625 
z
M 35.203125 72.90625 
L 47.609375 72.90625 
L 47.609375 25.390625 
L 58.015625 25.390625 
L 58.015625 17.1875 
L 47.609375 17.1875 
L 47.609375 0 
L 37.796875 0 
L 37.796875 17.1875 
L 4.890625 17.1875 
L 4.890625 26.703125 
z
" id="DejaVuSans-34"/>
      </defs>
      <g transform="translate(208.220173 317.076875)scale(0.2 -0.2)">
       <use xlink:href="#DejaVuSans-34"/>
      </g>
     </g>
    </g>
    <g id="xtick_4">
     <g id="line2d_11">
      <path clip-path="url(#pb8d71b3993)" d="M 293.814009 294.88 
L 293.814009 24.84 
" style="fill:none;stroke:#b0b0b0;stroke-linecap:square;stroke-width:0.8;"/>
     </g>
     <g id="line2d_12">
      <g>
       <use style="stroke:#000000;stroke-width:0.8;" x="293.814009" xlink:href="#m1a1d8cc044" y="294.88"/>
      </g>
     </g>
     <g id="text_4">
      <!-- 6 -->
      <defs>
       <path d="M 33.015625 40.375 
Q 26.375 40.375 22.484375 35.828125 
Q 18.609375 31.296875 18.609375 23.390625 
Q 18.609375 15.53125 22.484375 10.953125 
Q 26.375 6.390625 33.015625 6.390625 
Q 39.65625 6.390625 43.53125 10.953125 
Q 47.40625 15.53125 47.40625 23.390625 
Q 47.40625 31.296875 43.53125 35.828125 
Q 39.65625 40.375 33.015625 40.375 
z
M 52.59375 71.296875 
L 52.59375 62.3125 
Q 48.875 64.0625 45.09375 64.984375 
Q 41.3125 65.921875 37.59375 65.921875 
Q 27.828125 65.921875 22.671875 59.328125 
Q 17.53125 52.734375 16.796875 39.40625 
Q 19.671875 43.65625 24.015625 45.921875 
Q 28.375 48.1875 33.59375 48.1875 
Q 44.578125 48.1875 50.953125 41.515625 
Q 57.328125 34.859375 57.328125 23.390625 
Q 57.328125 12.15625 50.6875 5.359375 
Q 44.046875 -1.421875 33.015625 -1.421875 
Q 20.359375 -1.421875 13.671875 8.265625 
Q 6.984375 17.96875 6.984375 36.375 
Q 6.984375 53.65625 15.1875 63.9375 
Q 23.390625 74.21875 37.203125 74.21875 
Q 40.921875 74.21875 44.703125 73.484375 
Q 48.484375 72.75 52.59375 71.296875 
z
" id="DejaVuSans-36"/>
      </defs>
      <g transform="translate(287.451509 317.076875)scale(0.2 -0.2)">
       <use xlink:href="#DejaVuSans-36"/>
      </g>
     </g>
    </g>
    <g id="xtick_5">
     <g id="line2d_13">
      <path clip-path="url(#pb8d71b3993)" d="M 373.045346 294.88 
L 373.045346 24.84 
" style="fill:none;stroke:#b0b0b0;stroke-linecap:square;stroke-width:0.8;"/>
     </g>
     <g id="line2d_14">
      <g>
       <use style="stroke:#000000;stroke-width:0.8;" x="373.045346" xlink:href="#m1a1d8cc044" y="294.88"/>
      </g>
     </g>
     <g id="text_5">
      <!-- 8 -->
      <defs>
       <path d="M 31.78125 34.625 
Q 24.75 34.625 20.71875 30.859375 
Q 16.703125 27.09375 16.703125 20.515625 
Q 16.703125 13.921875 20.71875 10.15625 
Q 24.75 6.390625 31.78125 6.390625 
Q 38.8125 6.390625 42.859375 10.171875 
Q 46.921875 13.96875 46.921875 20.515625 
Q 46.921875 27.09375 42.890625 30.859375 
Q 38.875 34.625 31.78125 34.625 
z
M 21.921875 38.8125 
Q 15.578125 40.375 12.03125 44.71875 
Q 8.5 49.078125 8.5 55.328125 
Q 8.5 64.0625 14.71875 69.140625 
Q 20.953125 74.21875 31.78125 74.21875 
Q 42.671875 74.21875 48.875 69.140625 
Q 55.078125 64.0625 55.078125 55.328125 
Q 55.078125 49.078125 51.53125 44.71875 
Q 48 40.375 41.703125 38.8125 
Q 48.828125 37.15625 52.796875 32.3125 
Q 56.78125 27.484375 56.78125 20.515625 
Q 56.78125 9.90625 50.3125 4.234375 
Q 43.84375 -1.421875 31.78125 -1.421875 
Q 19.734375 -1.421875 13.25 4.234375 
Q 6.78125 9.90625 6.78125 20.515625 
Q 6.78125 27.484375 10.78125 32.3125 
Q 14.796875 37.15625 21.921875 38.8125 
z
M 18.3125 54.390625 
Q 18.3125 48.734375 21.84375 45.5625 
Q 25.390625 42.390625 31.78125 42.390625 
Q 38.140625 42.390625 41.71875 45.5625 
Q 45.3125 48.734375 45.3125 54.390625 
Q 45.3125 60.0625 41.71875 63.234375 
Q 38.140625 66.40625 31.78125 66.40625 
Q 25.390625 66.40625 21.84375 63.234375 
Q 18.3125 60.0625 18.3125 54.390625 
z
" id="DejaVuSans-38"/>
      </defs>
      <g transform="translate(366.682846 317.076875)scale(0.2 -0.2)">
       <use xlink:href="#DejaVuSans-38"/>
      </g>
     </g>
    </g>
    <g id="text_6">
     <!-- log10(# f-evals / dimension) -->
     <defs>
      <path d="M 9.421875 75.984375 
L 18.40625 75.984375 
L 18.40625 0 
L 9.421875 0 
z
" id="DejaVuSans-6c"/>
      <path d="M 30.609375 48.390625 
Q 23.390625 48.390625 19.1875 42.75 
Q 14.984375 37.109375 14.984375 27.296875 
Q 14.984375 17.484375 19.15625 11.84375 
Q 23.34375 6.203125 30.609375 6.203125 
Q 37.796875 6.203125 41.984375 11.859375 
Q 46.1875 17.53125 46.1875 27.296875 
Q 46.1875 37.015625 41.984375 42.703125 
Q 37.796875 48.390625 30.609375 48.390625 
z
M 30.609375 56 
Q 42.328125 56 49.015625 48.375 
Q 55.71875 40.765625 55.71875 27.296875 
Q 55.71875 13.875 49.015625 6.21875 
Q 42.328125 -1.421875 30.609375 -1.421875 
Q 18.84375 -1.421875 12.171875 6.21875 
Q 5.515625 13.875 5.515625 27.296875 
Q 5.515625 40.765625 12.171875 48.375 
Q 18.84375 56 30.609375 56 
z
" id="DejaVuSans-6f"/>
      <path d="M 45.40625 27.984375 
Q 45.40625 37.75 41.375 43.109375 
Q 37.359375 48.484375 30.078125 48.484375 
Q 22.859375 48.484375 18.828125 43.109375 
Q 14.796875 37.75 14.796875 27.984375 
Q 14.796875 18.265625 18.828125 12.890625 
Q 22.859375 7.515625 30.078125 7.515625 
Q 37.359375 7.515625 41.375 12.890625 
Q 45.40625 18.265625 45.40625 27.984375 
z
M 54.390625 6.78125 
Q 54.390625 -7.171875 48.1875 -13.984375 
Q 42 -20.796875 29.203125 -20.796875 
Q 24.46875 -20.796875 20.265625 -20.09375 
Q 16.0625 -19.390625 12.109375 -17.921875 
L 12.109375 -9.1875 
Q 16.0625 -11.328125 19.921875 -12.34375 
Q 23.78125 -13.375 27.78125 -13.375 
Q 36.625 -13.375 41.015625 -8.765625 
Q 45.40625 -4.15625 45.40625 5.171875 
L 45.40625 9.625 
Q 42.625 4.78125 38.28125 2.390625 
Q 33.9375 0 27.875 0 
Q 17.828125 0 11.671875 7.65625 
Q 5.515625 15.328125 5.515625 27.984375 
Q 5.515625 40.671875 11.671875 48.328125 
Q 17.828125 56 27.875 56 
Q 33.9375 56 38.28125 53.609375 
Q 42.625 51.21875 45.40625 46.390625 
L 45.40625 54.6875 
L 54.390625 54.6875 
z
" id="DejaVuSans-67"/>
      <path d="M 12.40625 8.296875 
L 28.515625 8.296875 
L 28.515625 63.921875 
L 10.984375 60.40625 
L 10.984375 69.390625 
L 28.421875 72.90625 
L 38.28125 72.90625 
L 38.28125 8.296875 
L 54.390625 8.296875 
L 54.390625 0 
L 12.40625 0 
z
" id="DejaVuSans-31"/>
      <path d="M 31 75.875 
Q 24.46875 64.65625 21.28125 53.65625 
Q 18.109375 42.671875 18.109375 31.390625 
Q 18.109375 20.125 21.3125 9.0625 
Q 24.515625 -2 31 -13.1875 
L 23.1875 -13.1875 
Q 15.875 -1.703125 12.234375 9.375 
Q 8.59375 20.453125 8.59375 31.390625 
Q 8.59375 42.28125 12.203125 53.3125 
Q 15.828125 64.359375 23.1875 75.875 
z
" id="DejaVuSans-28"/>
      <path d="M 51.125 44 
L 36.921875 44 
L 32.8125 27.6875 
L 47.125 27.6875 
z
M 43.796875 71.78125 
L 38.71875 51.515625 
L 52.984375 51.515625 
L 58.109375 71.78125 
L 65.921875 71.78125 
L 60.890625 51.515625 
L 76.125 51.515625 
L 76.125 44 
L 58.984375 44 
L 54.984375 27.6875 
L 70.515625 27.6875 
L 70.515625 20.21875 
L 53.078125 20.21875 
L 48 0 
L 40.1875 0 
L 45.21875 20.21875 
L 30.90625 20.21875 
L 25.875 0 
L 18.015625 0 
L 23.09375 20.21875 
L 7.71875 20.21875 
L 7.71875 27.6875 
L 24.90625 27.6875 
L 29 44 
L 13.28125 44 
L 13.28125 51.515625 
L 30.90625 51.515625 
L 35.890625 71.78125 
z
" id="DejaVuSans-23"/>
      <path id="DejaVuSans-20"/>
      <path d="M 37.109375 75.984375 
L 37.109375 68.5 
L 28.515625 68.5 
Q 23.6875 68.5 21.796875 66.546875 
Q 19.921875 64.59375 19.921875 59.515625 
L 19.921875 54.6875 
L 34.71875 54.6875 
L 34.71875 47.703125 
L 19.921875 47.703125 
L 19.921875 0 
L 10.890625 0 
L 10.890625 47.703125 
L 2.296875 47.703125 
L 2.296875 54.6875 
L 10.890625 54.6875 
L 10.890625 58.5 
Q 10.890625 67.625 15.140625 71.796875 
Q 19.390625 75.984375 28.609375 75.984375 
z
" id="DejaVuSans-66"/>
      <path d="M 4.890625 31.390625 
L 31.203125 31.390625 
L 31.203125 23.390625 
L 4.890625 23.390625 
z
" id="DejaVuSans-2d"/>
      <path d="M 56.203125 29.59375 
L 56.203125 25.203125 
L 14.890625 25.203125 
Q 15.484375 15.921875 20.484375 11.0625 
Q 25.484375 6.203125 34.421875 6.203125 
Q 39.59375 6.203125 44.453125 7.46875 
Q 49.3125 8.734375 54.109375 11.28125 
L 54.109375 2.78125 
Q 49.265625 0.734375 44.1875 -0.34375 
Q 39.109375 -1.421875 33.890625 -1.421875 
Q 20.796875 -1.421875 13.15625 6.1875 
Q 5.515625 13.8125 5.515625 26.8125 
Q 5.515625 40.234375 12.765625 48.109375 
Q 20.015625 56 32.328125 56 
Q 43.359375 56 49.78125 48.890625 
Q 56.203125 41.796875 56.203125 29.59375 
z
M 47.21875 32.234375 
Q 47.125 39.59375 43.09375 43.984375 
Q 39.0625 48.390625 32.421875 48.390625 
Q 24.90625 48.390625 20.390625 44.140625 
Q 15.875 39.890625 15.1875 32.171875 
z
" id="DejaVuSans-65"/>
      <path d="M 2.984375 54.6875 
L 12.5 54.6875 
L 29.59375 8.796875 
L 46.6875 54.6875 
L 56.203125 54.6875 
L 35.6875 0 
L 23.484375 0 
z
" id="DejaVuSans-76"/>
      <path d="M 34.28125 27.484375 
Q 23.390625 27.484375 19.1875 25 
Q 14.984375 22.515625 14.984375 16.5 
Q 14.984375 11.71875 18.140625 8.90625 
Q 21.296875 6.109375 26.703125 6.109375 
Q 34.1875 6.109375 38.703125 11.40625 
Q 43.21875 16.703125 43.21875 25.484375 
L 43.21875 27.484375 
z
M 52.203125 31.203125 
L 52.203125 0 
L 43.21875 0 
L 43.21875 8.296875 
Q 40.140625 3.328125 35.546875 0.953125 
Q 30.953125 -1.421875 24.3125 -1.421875 
Q 15.921875 -1.421875 10.953125 3.296875 
Q 6 8.015625 6 15.921875 
Q 6 25.140625 12.171875 29.828125 
Q 18.359375 34.515625 30.609375 34.515625 
L 43.21875 34.515625 
L 43.21875 35.40625 
Q 43.21875 41.609375 39.140625 45 
Q 35.0625 48.390625 27.6875 48.390625 
Q 23 48.390625 18.546875 47.265625 
Q 14.109375 46.140625 10.015625 43.890625 
L 10.015625 52.203125 
Q 14.9375 54.109375 19.578125 55.046875 
Q 24.21875 56 28.609375 56 
Q 40.484375 56 46.34375 49.84375 
Q 52.203125 43.703125 52.203125 31.203125 
z
" id="DejaVuSans-61"/>
      <path d="M 44.28125 53.078125 
L 44.28125 44.578125 
Q 40.484375 46.53125 36.375 47.5 
Q 32.28125 48.484375 27.875 48.484375 
Q 21.1875 48.484375 17.84375 46.4375 
Q 14.5 44.390625 14.5 40.28125 
Q 14.5 37.15625 16.890625 35.375 
Q 19.28125 33.59375 26.515625 31.984375 
L 29.59375 31.296875 
Q 39.15625 29.25 43.1875 25.515625 
Q 47.21875 21.78125 47.21875 15.09375 
Q 47.21875 7.46875 41.1875 3.015625 
Q 35.15625 -1.421875 24.609375 -1.421875 
Q 20.21875 -1.421875 15.453125 -0.5625 
Q 10.6875 0.296875 5.421875 2 
L 5.421875 11.28125 
Q 10.40625 8.6875 15.234375 7.390625 
Q 20.0625 6.109375 24.8125 6.109375 
Q 31.15625 6.109375 34.5625 8.28125 
Q 37.984375 10.453125 37.984375 14.40625 
Q 37.984375 18.0625 35.515625 20.015625 
Q 33.0625 21.96875 24.703125 23.78125 
L 21.578125 24.515625 
Q 13.234375 26.265625 9.515625 29.90625 
Q 5.8125 33.546875 5.8125 39.890625 
Q 5.8125 47.609375 11.28125 51.796875 
Q 16.75 56 26.8125 56 
Q 31.78125 56 36.171875 55.265625 
Q 40.578125 54.546875 44.28125 53.078125 
z
" id="DejaVuSans-73"/>
      <path d="M 25.390625 72.90625 
L 33.6875 72.90625 
L 8.296875 -9.28125 
L 0 -9.28125 
z
" id="DejaVuSans-2f"/>
      <path d="M 45.40625 46.390625 
L 45.40625 75.984375 
L 54.390625 75.984375 
L 54.390625 0 
L 45.40625 0 
L 45.40625 8.203125 
Q 42.578125 3.328125 38.25 0.953125 
Q 33.9375 -1.421875 27.875 -1.421875 
Q 17.96875 -1.421875 11.734375 6.484375 
Q 5.515625 14.40625 5.515625 27.296875 
Q 5.515625 40.1875 11.734375 48.09375 
Q 17.96875 56 27.875 56 
Q 33.9375 56 38.25 53.625 
Q 42.578125 51.265625 45.40625 46.390625 
z
M 14.796875 27.296875 
Q 14.796875 17.390625 18.875 11.75 
Q 22.953125 6.109375 30.078125 6.109375 
Q 37.203125 6.109375 41.296875 11.75 
Q 45.40625 17.390625 45.40625 27.296875 
Q 45.40625 37.203125 41.296875 42.84375 
Q 37.203125 48.484375 30.078125 48.484375 
Q 22.953125 48.484375 18.875 42.84375 
Q 14.796875 37.203125 14.796875 27.296875 
z
" id="DejaVuSans-64"/>
      <path d="M 9.421875 54.6875 
L 18.40625 54.6875 
L 18.40625 0 
L 9.421875 0 
z
M 9.421875 75.984375 
L 18.40625 75.984375 
L 18.40625 64.59375 
L 9.421875 64.59375 
z
" id="DejaVuSans-69"/>
      <path d="M 52 44.1875 
Q 55.375 50.25 60.0625 53.125 
Q 64.75 56 71.09375 56 
Q 79.640625 56 84.28125 50.015625 
Q 88.921875 44.046875 88.921875 33.015625 
L 88.921875 0 
L 79.890625 0 
L 79.890625 32.71875 
Q 79.890625 40.578125 77.09375 44.375 
Q 74.3125 48.1875 68.609375 48.1875 
Q 61.625 48.1875 57.5625 43.546875 
Q 53.515625 38.921875 53.515625 30.90625 
L 53.515625 0 
L 44.484375 0 
L 44.484375 32.71875 
Q 44.484375 40.625 41.703125 44.40625 
Q 38.921875 48.1875 33.109375 48.1875 
Q 26.21875 48.1875 22.15625 43.53125 
Q 18.109375 38.875 18.109375 30.90625 
L 18.109375 0 
L 9.078125 0 
L 9.078125 54.6875 
L 18.109375 54.6875 
L 18.109375 46.1875 
Q 21.1875 51.21875 25.484375 53.609375 
Q 29.78125 56 35.6875 56 
Q 41.65625 56 45.828125 52.96875 
Q 50 49.953125 52 44.1875 
z
" id="DejaVuSans-6d"/>
      <path d="M 54.890625 33.015625 
L 54.890625 0 
L 45.90625 0 
L 45.90625 32.71875 
Q 45.90625 40.484375 42.875 44.328125 
Q 39.84375 48.1875 33.796875 48.1875 
Q 26.515625 48.1875 22.3125 43.546875 
Q 18.109375 38.921875 18.109375 30.90625 
L 18.109375 0 
L 9.078125 0 
L 9.078125 54.6875 
L 18.109375 54.6875 
L 18.109375 46.1875 
Q 21.34375 51.125 25.703125 53.5625 
Q 30.078125 56 35.796875 56 
Q 45.21875 56 50.046875 50.171875 
Q 54.890625 44.34375 54.890625 33.015625 
z
" id="DejaVuSans-6e"/>
      <path d="M 8.015625 75.875 
L 15.828125 75.875 
Q 23.140625 64.359375 26.78125 53.3125 
Q 30.421875 42.28125 30.421875 31.390625 
Q 30.421875 20.453125 26.78125 9.375 
Q 23.140625 -1.703125 15.828125 -13.1875 
L 8.015625 -13.1875 
Q 14.5 -2 17.703125 9.0625 
Q 20.90625 20.125 20.90625 31.390625 
Q 20.90625 42.671875 17.703125 53.65625 
Q 14.5 64.65625 8.015625 75.875 
z
" id="DejaVuSans-29"/>
     </defs>
     <g transform="translate(107.211219 338.153594)scale(0.17 -0.17)">
      <use xlink:href="#DejaVuSans-6c"/>
      <use x="27.783203" xlink:href="#DejaVuSans-6f"/>
      <use x="88.964844" xlink:href="#DejaVuSans-67"/>
      <use x="152.441406" xlink:href="#DejaVuSans-31"/>
      <use x="216.064453" xlink:href="#DejaVuSans-30"/>
      <use x="279.6875" xlink:href="#DejaVuSans-28"/>
      <use x="318.701172" xlink:href="#DejaVuSans-23"/>
      <use x="402.490234" xlink:href="#DejaVuSans-20"/>
      <use x="434.277344" xlink:href="#DejaVuSans-66"/>
      <use x="469.404297" xlink:href="#DejaVuSans-2d"/>
      <use x="505.488281" xlink:href="#DejaVuSans-65"/>
      <use x="567.011719" xlink:href="#DejaVuSans-76"/>
      <use x="626.191406" xlink:href="#DejaVuSans-61"/>
      <use x="687.470703" xlink:href="#DejaVuSans-6c"/>
      <use x="715.253906" xlink:href="#DejaVuSans-73"/>
      <use x="767.353516" xlink:href="#DejaVuSans-20"/>
      <use x="799.140625" xlink:href="#DejaVuSans-2f"/>
      <use x="832.832031" xlink:href="#DejaVuSans-20"/>
      <use x="864.619141" xlink:href="#DejaVuSans-64"/>
      <use x="928.095703" xlink:href="#DejaVuSans-69"/>
      <use x="955.878906" xlink:href="#DejaVuSans-6d"/>
      <use x="1053.291016" xlink:href="#DejaVuSans-65"/>
      <use x="1114.814453" xlink:href="#DejaVuSans-6e"/>
      <use x="1178.193359" xlink:href="#DejaVuSans-73"/>
      <use x="1230.292969" xlink:href="#DejaVuSans-69"/>
      <use x="1258.076172" xlink:href="#DejaVuSans-6f"/>
      <use x="1319.257812" xlink:href="#DejaVuSans-6e"/>
      <use x="1382.636719" xlink:href="#DejaVuSans-29"/>
     </g>
    </g>
   </g>
   <g id="matplotlib.axis_2">
    <g id="ytick_1">
     <g id="line2d_15">
      <path clip-path="url(#pb8d71b3993)" d="M 56.12 294.88 
L 399.984 294.88 
" style="fill:none;stroke:#b0b0b0;stroke-linecap:square;stroke-width:0.8;"/>
     </g>
     <g id="line2d_16">
      <defs>
       <path d="M 0 0 
L -3.5 0 
" id="mfc432e6ca7" style="stroke:#000000;stroke-width:0.8;"/>
      </defs>
      <g>
       <use style="stroke:#000000;stroke-width:0.8;" x="56.12" xlink:href="#mfc432e6ca7" y="294.88"/>
      </g>
     </g>
     <g id="text_7">
      <!-- 0.0 -->
      <defs>
       <path d="M 10.6875 12.40625 
L 21 12.40625 
L 21 0 
L 10.6875 0 
z
" id="DejaVuSans-2e"/>
      </defs>
      <g transform="translate(23.675 300.95875)scale(0.16 -0.16)">
       <use xlink:href="#DejaVuSans-30"/>
       <use x="63.623047" xlink:href="#DejaVuSans-2e"/>
       <use x="95.410156" xlink:href="#DejaVuSans-30"/>
      </g>
     </g>
    </g>
    <g id="ytick_2">
     <g id="line2d_17">
      <path clip-path="url(#pb8d71b3993)" d="M 56.12 241.406733 
L 399.984 241.406733 
" style="fill:none;stroke:#b0b0b0;stroke-linecap:square;stroke-width:0.8;"/>
     </g>
     <g id="line2d_18">
      <g>
       <use style="stroke:#000000;stroke-width:0.8;" x="56.12" xlink:href="#mfc432e6ca7" y="241.406733"/>
      </g>
     </g>
     <g id="text_8">
      <!-- 0.2 -->
      <g transform="translate(23.675 247.485483)scale(0.16 -0.16)">
       <use xlink:href="#DejaVuSans-30"/>
       <use x="63.623047" xlink:href="#DejaVuSans-2e"/>
       <use x="95.410156" xlink:href="#DejaVuSans-32"/>
      </g>
     </g>
    </g>
    <g id="ytick_3">
     <g id="line2d_19">
      <path clip-path="url(#pb8d71b3993)" d="M 56.12 187.933465 
L 399.984 187.933465 
" style="fill:none;stroke:#b0b0b0;stroke-linecap:square;stroke-width:0.8;"/>
     </g>
     <g id="line2d_20">
      <g>
       <use style="stroke:#000000;stroke-width:0.8;" x="56.12" xlink:href="#mfc432e6ca7" y="187.933465"/>
      </g>
     </g>
     <g id="text_9">
      <!-- 0.4 -->
      <g transform="translate(23.675 194.012215)scale(0.16 -0.16)">
       <use xlink:href="#DejaVuSans-30"/>
       <use x="63.623047" xlink:href="#DejaVuSans-2e"/>
       <use x="95.410156" xlink:href="#DejaVuSans-34"/>
      </g>
     </g>
    </g>
    <g id="ytick_4">
     <g id="line2d_21">
      <path clip-path="url(#pb8d71b3993)" d="M 56.12 134.460198 
L 399.984 134.460198 
" style="fill:none;stroke:#b0b0b0;stroke-linecap:square;stroke-width:0.8;"/>
     </g>
     <g id="line2d_22">
      <g>
       <use style="stroke:#000000;stroke-width:0.8;" x="56.12" xlink:href="#mfc432e6ca7" y="134.460198"/>
      </g>
     </g>
     <g id="text_10">
      <!-- 0.6 -->
      <g transform="translate(23.675 140.538948)scale(0.16 -0.16)">
       <use xlink:href="#DejaVuSans-30"/>
       <use x="63.623047" xlink:href="#DejaVuSans-2e"/>
       <use x="95.410156" xlink:href="#DejaVuSans-36"/>
      </g>
     </g>
    </g>
    <g id="ytick_5">
     <g id="line2d_23">
      <path clip-path="url(#pb8d71b3993)" d="M 56.12 80.986931 
L 399.984 80.986931 
" style="fill:none;stroke:#b0b0b0;stroke-linecap:square;stroke-width:0.8;"/>
     </g>
     <g id="line2d_24">
      <g>
       <use style="stroke:#000000;stroke-width:0.8;" x="56.12" xlink:href="#mfc432e6ca7" y="80.986931"/>
      </g>
     </g>
     <g id="text_11">
      <!-- 0.8 -->
      <g transform="translate(23.675 87.065681)scale(0.16 -0.16)">
       <use xlink:href="#DejaVuSans-30"/>
       <use x="63.623047" xlink:href="#DejaVuSans-2e"/>
       <use x="95.410156" xlink:href="#DejaVuSans-38"/>
      </g>
     </g>
    </g>
    <g id="ytick_6">
     <g id="line2d_25">
      <path clip-path="url(#pb8d71b3993)" d="M 56.12 27.513663 
L 399.984 27.513663 
" style="fill:none;stroke:#b0b0b0;stroke-linecap:square;stroke-width:0.8;"/>
     </g>
     <g id="line2d_26">
      <g>
       <use style="stroke:#000000;stroke-width:0.8;" x="56.12" xlink:href="#mfc432e6ca7" y="27.513663"/>
      </g>
     </g>
     <g id="text_12">
      <!-- 1.0 -->
      <g transform="translate(23.675 33.592413)scale(0.16 -0.16)">
       <use xlink:href="#DejaVuSans-31"/>
       <use x="63.623047" xlink:href="#DejaVuSans-2e"/>
       <use x="95.410156" xlink:href="#DejaVuSans-30"/>
      </g>
     </g>
    </g>
    <g id="text_13">
     <!-- Fraction of function,target pairs -->
     <defs>
      <path d="M 9.8125 72.90625 
L 51.703125 72.90625 
L 51.703125 64.59375 
L 19.671875 64.59375 
L 19.671875 43.109375 
L 48.578125 43.109375 
L 48.578125 34.8125 
L 19.671875 34.8125 
L 19.671875 0 
L 9.8125 0 
z
" id="DejaVuSans-46"/>
      <path d="M 41.109375 46.296875 
Q 39.59375 47.171875 37.8125 47.578125 
Q 36.03125 48 33.890625 48 
Q 26.265625 48 22.1875 43.046875 
Q 18.109375 38.09375 18.109375 28.8125 
L 18.109375 0 
L 9.078125 0 
L 9.078125 54.6875 
L 18.109375 54.6875 
L 18.109375 46.1875 
Q 20.953125 51.171875 25.484375 53.578125 
Q 30.03125 56 36.53125 56 
Q 37.453125 56 38.578125 55.875 
Q 39.703125 55.765625 41.0625 55.515625 
z
" id="DejaVuSans-72"/>
      <path d="M 48.78125 52.59375 
L 48.78125 44.1875 
Q 44.96875 46.296875 41.140625 47.34375 
Q 37.3125 48.390625 33.40625 48.390625 
Q 24.65625 48.390625 19.8125 42.84375 
Q 14.984375 37.3125 14.984375 27.296875 
Q 14.984375 17.28125 19.8125 11.734375 
Q 24.65625 6.203125 33.40625 6.203125 
Q 37.3125 6.203125 41.140625 7.25 
Q 44.96875 8.296875 48.78125 10.40625 
L 48.78125 2.09375 
Q 45.015625 0.34375 40.984375 -0.53125 
Q 36.96875 -1.421875 32.421875 -1.421875 
Q 20.0625 -1.421875 12.78125 6.34375 
Q 5.515625 14.109375 5.515625 27.296875 
Q 5.515625 40.671875 12.859375 48.328125 
Q 20.21875 56 33.015625 56 
Q 37.15625 56 41.109375 55.140625 
Q 45.0625 54.296875 48.78125 52.59375 
z
" id="DejaVuSans-63"/>
      <path d="M 18.3125 70.21875 
L 18.3125 54.6875 
L 36.8125 54.6875 
L 36.8125 47.703125 
L 18.3125 47.703125 
L 18.3125 18.015625 
Q 18.3125 11.328125 20.140625 9.421875 
Q 21.96875 7.515625 27.59375 7.515625 
L 36.8125 7.515625 
L 36.8125 0 
L 27.59375 0 
Q 17.1875 0 13.234375 3.875 
Q 9.28125 7.765625 9.28125 18.015625 
L 9.28125 47.703125 
L 2.6875 47.703125 
L 2.6875 54.6875 
L 9.28125 54.6875 
L 9.28125 70.21875 
z
" id="DejaVuSans-74"/>
      <path d="M 8.5 21.578125 
L 8.5 54.6875 
L 17.484375 54.6875 
L 17.484375 21.921875 
Q 17.484375 14.15625 20.5 10.265625 
Q 23.53125 6.390625 29.59375 6.390625 
Q 36.859375 6.390625 41.078125 11.03125 
Q 45.3125 15.671875 45.3125 23.6875 
L 45.3125 54.6875 
L 54.296875 54.6875 
L 54.296875 0 
L 45.3125 0 
L 45.3125 8.40625 
Q 42.046875 3.421875 37.71875 1 
Q 33.40625 -1.421875 27.6875 -1.421875 
Q 18.265625 -1.421875 13.375 4.4375 
Q 8.5 10.296875 8.5 21.578125 
z
M 31.109375 56 
z
" id="DejaVuSans-75"/>
      <path d="M 11.71875 12.40625 
L 22.015625 12.40625 
L 22.015625 4 
L 14.015625 -11.625 
L 7.71875 -11.625 
L 11.71875 4 
z
" id="DejaVuSans-2c"/>
      <path d="M 18.109375 8.203125 
L 18.109375 -20.796875 
L 9.078125 -20.796875 
L 9.078125 54.6875 
L 18.109375 54.6875 
L 18.109375 46.390625 
Q 20.953125 51.265625 25.265625 53.625 
Q 29.59375 56 35.59375 56 
Q 45.5625 56 51.78125 48.09375 
Q 58.015625 40.1875 58.015625 27.296875 
Q 58.015625 14.40625 51.78125 6.484375 
Q 45.5625 -1.421875 35.59375 -1.421875 
Q 29.59375 -1.421875 25.265625 0.953125 
Q 20.953125 3.328125 18.109375 8.203125 
z
M 48.6875 27.296875 
Q 48.6875 37.203125 44.609375 42.84375 
Q 40.53125 48.484375 33.40625 48.484375 
Q 26.265625 48.484375 22.1875 42.84375 
Q 18.109375 37.203125 18.109375 27.296875 
Q 18.109375 17.390625 22.1875 11.75 
Q 26.265625 6.109375 33.40625 6.109375 
Q 40.53125 6.109375 44.609375 11.75 
Q 48.6875 17.390625 48.6875 27.296875 
z
" id="DejaVuSans-70"/>
     </defs>
     <g transform="translate(16.139531 294.999375)rotate(-90)scale(0.17 -0.17)">
      <use xlink:href="#DejaVuSans-46"/>
      <use x="57.410156" xlink:href="#DejaVuSans-72"/>
      <use x="98.523438" xlink:href="#DejaVuSans-61"/>
      <use x="159.802734" xlink:href="#DejaVuSans-63"/>
      <use x="214.783203" xlink:href="#DejaVuSans-74"/>
      <use x="253.992188" xlink:href="#DejaVuSans-69"/>
      <use x="281.775391" xlink:href="#DejaVuSans-6f"/>
      <use x="342.957031" xlink:href="#DejaVuSans-6e"/>
      <use x="406.335938" xlink:href="#DejaVuSans-20"/>
      <use x="438.123047" xlink:href="#DejaVuSans-6f"/>
      <use x="499.304688" xlink:href="#DejaVuSans-66"/>
      <use x="534.509766" xlink:href="#DejaVuSans-20"/>
      <use x="566.296875" xlink:href="#DejaVuSans-66"/>
      <use x="601.501953" xlink:href="#DejaVuSans-75"/>
      <use x="664.880859" xlink:href="#DejaVuSans-6e"/>
      <use x="728.259766" xlink:href="#DejaVuSans-63"/>
      <use x="783.240234" xlink:href="#DejaVuSans-74"/>
      <use x="822.449219" xlink:href="#DejaVuSans-69"/>
      <use x="850.232422" xlink:href="#DejaVuSans-6f"/>
      <use x="911.414062" xlink:href="#DejaVuSans-6e"/>
      <use x="974.792969" xlink:href="#DejaVuSans-2c"/>
      <use x="1006.580078" xlink:href="#DejaVuSans-74"/>
      <use x="1045.789062" xlink:href="#DejaVuSans-61"/>
      <use x="1107.068359" xlink:href="#DejaVuSans-72"/>
      <use x="1148.166016" xlink:href="#DejaVuSans-67"/>
      <use x="1211.642578" xlink:href="#DejaVuSans-65"/>
      <use x="1273.166016" xlink:href="#DejaVuSans-74"/>
      <use x="1312.375" xlink:href="#DejaVuSans-20"/>
      <use x="1344.162109" xlink:href="#DejaVuSans-70"/>
      <use x="1407.638672" xlink:href="#DejaVuSans-61"/>
      <use x="1468.917969" xlink:href="#DejaVuSans-69"/>
      <use x="1496.701172" xlink:href="#DejaVuSans-72"/>
      <use x="1537.814453" xlink:href="#DejaVuSans-73"/>
     </g>
    </g>
   </g>
   <g id="line2d_27">
    <defs>
     <path d="M 0 1.5 
C 0.397805 1.5 0.77937 1.341951 1.06066 1.06066 
C 1.341951 0.77937 1.5 0.397805 1.5 0 
C 1.5 -0.397805 1.341951 -0.77937 1.06066 -1.06066 
C 0.77937 -1.341951 0.397805 -1.5 0 -1.5 
C -0.397805 -1.5 -0.77937 -1.341951 -1.06066 -1.06066 
C -1.341951 -0.77937 -1.5 -0.397805 -1.5 0 
C -1.5 0.397805 -1.341951 0.77937 -1.06066 1.06066 
C -0.77937 1.341951 -0.397805 1.5 0 1.5 
z
" id="mfbb854926c" style="stroke:#f5deb3;"/>
    </defs>
    <g>
     <use style="fill:#f5deb3;stroke:#f5deb3;" x="152.714035" xlink:href="#mfbb854926c" y="27.513663"/>
     <use style="fill:#f5deb3;stroke:#f5deb3;" x="152.714035" xlink:href="#mfbb854926c" y="27.513663"/>
    </g>
   </g>
   <g id="line2d_28">
    <defs>
     <path d="M 0 1.5 
C 0.397805 1.5 0.77937 1.341951 1.06066 1.06066 
C 1.341951 0.77937 1.5 0.397805 1.5 0 
C 1.5 -0.397805 1.341951 -0.77937 1.06066 -1.06066 
C 0.77937 -1.341951 0.397805 -1.5 0 -1.5 
C -0.397805 -1.5 -0.77937 -1.341951 -1.06066 -1.06066 
C -1.341951 -0.77937 -1.5 -0.397805 -1.5 0 
C -1.5 0.397805 -1.341951 0.77937 -1.06066 1.06066 
C -0.77937 1.341951 -0.397805 1.5 0 1.5 
z
" id="m80ee159c3d" style="stroke:#000080;"/>
    </defs>
    <g>
     <use style="fill:#000080;stroke:#000080;" x="364.256746" xlink:href="#m80ee159c3d" y="190.030456"/>
     <use style="fill:#000080;stroke:#000080;" x="364.256746" xlink:href="#m80ee159c3d" y="190.030456"/>
    </g>
   </g>
   <g id="line2d_29">
    <path d="M 135.859892 294.88 
L 135.859892 291.734514 
L 137.60566 291.734514 
L 137.60566 289.113275 
L 139.327583 289.113275 
L 139.327583 288.589027 
L 139.997117 288.589027 
L 140.04084 286.492036 
L 140.429423 286.492036 
L 140.472062 284.395046 
L 141.22203 284.395046 
L 141.22203 282.298055 
L 141.744038 282.298055 
L 141.783544 281.249559 
L 143.184934 281.249559 
L 143.184934 279.676816 
L 143.437686 279.676816 
L 143.437686 279.152568 
L 143.932316 279.152568 
L 143.932316 277.055578 
L 144.581633 277.055578 
L 144.581633 274.958587 
L 145.68572 274.958587 
L 145.68572 274.434339 
L 145.811075 274.434339 
L 145.811075 271.8131 
L 146.782331 271.8131 
L 146.782331 271.288853 
L 147.0459 271.288853 
L 147.0459 270.764605 
L 147.276841 270.764605 
L 147.276841 270.240357 
L 147.532997 270.240357 
L 147.589407 268.667614 
L 147.729627 268.667614 
L 147.785396 266.046375 
L 148.006684 266.046375 
L 148.088938 264.473632 
L 148.198003 264.473632 
L 148.225161 263.425137 
L 148.680414 263.425137 
L 148.680414 262.900889 
L 148.968697 262.900889 
L 148.968697 262.376641 
L 149.606459 262.376641 
L 149.606459 261.852394 
L 149.928983 261.852394 
L 149.928983 261.328146 
L 150.721531 261.328146 
L 150.791803 259.755403 
L 151.524035 259.755403 
L 151.524035 258.706907 
L 152.140132 258.706907 
L 152.140132 257.658412 
L 154.079899 257.658412 
L 154.079899 257.134164 
L 154.424008 257.134164 
L 154.424008 255.561421 
L 154.90921 255.561421 
L 154.90921 254.512926 
L 155.055791 254.512926 
L 155.055791 253.46443 
L 155.398997 253.46443 
L 155.398997 252.940182 
L 156.065527 252.940182 
L 156.065527 251.891687 
L 156.219678 251.891687 
L 156.219678 249.270448 
L 156.406229 249.270448 
L 156.456757 248.221953 
L 156.540643 248.221953 
L 156.540643 247.697705 
L 156.75685 247.697705 
L 156.75685 246.64921 
L 157.132838 246.64921 
L 157.132838 246.124962 
L 157.767776 246.124962 
L 157.767776 245.076467 
L 249.881784 245.076467 
L 249.881784 244.552219 
L 256.632523 244.552219 
L 256.632523 244.027971 
L 257.324737 244.027971 
L 257.324737 243.503724 
L 293.815787 243.503724 
L 293.82054 228.824787 
L 296.786894 228.824787 
L 296.786894 228.30054 
L 305.7405 228.30054 
L 305.741948 221.485319 
L 312.716083 221.485319 
L 312.716893 214.670099 
L 317.665759 214.670099 
L 317.666238 208.379126 
L 318.457772 208.379126 
L 318.457772 207.854879 
L 321.504811 207.854879 
L 321.50515 205.23364 
L 324.641517 205.23364 
L 324.641616 202.612401 
L 327.29359 202.612401 
L 327.293755 201.039658 
L 329.590923 201.039658 
L 329.591135 199.991163 
L 329.991468 199.991163 
L 329.991468 199.466915 
L 331.617321 199.466915 
L 331.617321 198.942667 
L 333.429677 198.942667 
L 333.429677 198.942667 
" style="fill:none;stroke:#000080;stroke-linecap:square;stroke-width:1.5;"/>
   </g>
   <g id="line2d_30">
    <defs>
     <path d="M 0 6 
C 1.591219 6 3.117479 5.367802 4.242641 4.242641 
C 5.367802 3.117479 6 1.591219 6 0 
C 6 -1.591219 5.367802 -3.117479 4.242641 -4.242641 
C 3.117479 -5.367802 1.591219 -6 0 -6 
C -1.591219 -6 -3.117479 -5.367802 -4.242641 -4.242641 
C -5.367802 -3.117479 -6 -1.591219 -6 0 
C -6 1.591219 -5.367802 3.117479 -4.242641 4.242641 
C -3.117479 5.367802 -1.591219 6 0 6 
z
" id="m3aee7b9a35" style="stroke:#000080;stroke-width:1.5;"/>
    </defs>
    <g>
     <use style="fill-opacity:0;stroke:#000080;stroke-width:1.5;" x="157.767776" xlink:href="#m3aee7b9a35" y="245.076467"/>
     <use style="fill-opacity:0;stroke:#000080;stroke-width:1.5;" x="257.324737" xlink:href="#m3aee7b9a35" y="243.503724"/>
     <use style="fill-opacity:0;stroke:#000080;stroke-width:1.5;" x="318.457772" xlink:href="#m3aee7b9a35" y="208.379126"/>
     <use style="fill-opacity:0;stroke:#000080;stroke-width:1.5;" x="331.617321" xlink:href="#m3aee7b9a35" y="198.942667"/>
     <use style="fill-opacity:0;stroke:#000080;stroke-width:1.5;" x="333.429677" xlink:href="#m3aee7b9a35" y="198.942667"/>
    </g>
   </g>
   <g id="line2d_31">
    <path style="fill:none;stroke:#000080;stroke-linecap:square;stroke-width:1.5;"/>
    <g/>
   </g>
   <g id="line2d_32">
    <path clip-path="url(#pb8d71b3993)" d="M 293.814015 243.503724 
" style="fill:none;stroke:#000080;stroke-linecap:square;stroke-width:1.5;"/>
    <defs>
     <path d="M -12 12 
L 12 -12 
M -12 -12 
L 12 12 
" id="m5b0326fc5e" style="stroke:#000080;stroke-width:3;"/>
    </defs>
    <g clip-path="url(#pb8d71b3993)">
     <use style="fill:#000080;stroke:#000080;stroke-width:3;" x="293.814015" xlink:href="#m5b0326fc5e" y="243.503724"/>
    </g>
   </g>
   <g id="line2d_33">
    <defs>
     <path d="M 0 1.5 
C 0.397805 1.5 0.77937 1.341951 1.06066 1.06066 
C 1.341951 0.77937 1.5 0.397805 1.5 0 
C 1.5 -0.397805 1.341951 -0.77937 1.06066 -1.06066 
C 0.77937 -1.341951 0.397805 -1.5 0 -1.5 
C -0.397805 -1.5 -0.77937 -1.341951 -1.06066 -1.06066 
C -1.341951 -0.77937 -1.5 -0.397805 -1.5 0 
C -1.5 0.397805 -1.341951 0.77937 -1.06066 1.06066 
C -0.77937 1.341951 -0.397805 1.5 0 1.5 
z
" id="m8530d2225e" style="stroke:#ff00ff;"/>
    </defs>
    <g>
     <use style="fill:#ff00ff;stroke:#ff00ff;" x="325.867154" xlink:href="#m8530d2225e" y="174.303025"/>
     <use style="fill:#ff00ff;stroke:#ff00ff;" x="325.867154" xlink:href="#m8530d2225e" y="174.303025"/>
    </g>
   </g>
   <g id="line2d_34">
    <path d="M 189.820169 294.88 
L 189.820169 294.355752 
L 199.224653 294.355752 
L 199.224653 293.307257 
L 201.791569 293.307257 
L 201.791569 292.258761 
L 202.716709 292.258761 
L 202.716709 289.637523 
L 203.940868 289.637523 
L 203.940868 289.113275 
L 204.944662 289.113275 
L 204.944662 288.06478 
L 205.349572 288.06478 
L 205.349572 284.919293 
L 205.84743 284.919293 
L 205.84743 283.870798 
L 207.118976 283.870798 
L 207.118976 281.773807 
L 207.652233 281.773807 
L 207.655664 280.201064 
L 207.890802 280.201064 
L 207.890802 279.676816 
L 208.435474 279.676816 
L 208.435474 279.152568 
L 209.910003 279.152568 
L 209.910003 278.104073 
L 210.079223 278.104073 
L 210.079223 277.579825 
L 210.391543 277.579825 
L 210.395933 273.385844 
L 212.333716 273.385844 
L 212.333716 271.288853 
L 213.220883 271.288853 
L 213.224607 270.240357 
L 213.342735 270.240357 
L 213.342735 268.667614 
L 213.461282 268.667614 
L 213.461282 266.046375 
L 215.028195 266.046375 
L 215.046069 264.99788 
L 215.173437 264.99788 
L 215.221579 263.425137 
L 215.549978 263.425137 
L 215.549978 262.900889 
L 215.943908 262.900889 
L 215.943908 261.852394 
L 216.474005 261.852394 
L 216.474005 261.328146 
L 216.812329 261.328146 
L 216.812329 260.803898 
L 217.022629 260.803898 
L 217.022629 259.755403 
L 217.387504 259.755403 
L 217.387504 258.706907 
L 218.442003 258.706907 
L 218.442003 258.18266 
L 218.688603 258.18266 
L 218.688603 257.134164 
L 218.833003 257.134164 
L 218.899621 253.46443 
L 218.957978 253.46443 
L 218.957978 252.415935 
L 219.203043 252.415935 
L 219.203043 251.891687 
L 219.681239 251.891687 
L 219.681239 250.318944 
L 219.86447 250.318944 
L 219.86447 248.746201 
L 220.018195 248.746201 
L 220.018195 247.697705 
L 220.544043 247.697705 
L 220.544043 247.173458 
L 221.276479 247.173458 
L 221.276479 246.64921 
L 221.704459 246.64921 
L 221.76803 242.979476 
L 222.12686 242.979476 
L 222.12686 241.93098 
L 222.478358 241.93098 
L 222.478358 241.406733 
L 223.061303 241.406733 
L 223.061303 240.882485 
L 223.931285 240.882485 
L 223.931285 240.358237 
L 224.292195 240.358237 
L 224.292195 239.83399 
L 224.664531 239.83399 
L 224.736515 237.212751 
L 224.942515 237.212751 
L 224.942515 236.688503 
L 225.826438 236.688503 
L 225.826438 236.164255 
L 226.22222 236.164255 
L 226.22222 234.591512 
L 226.791998 234.591512 
L 226.791998 233.543017 
L 227.32383 233.543017 
L 227.32383 232.494521 
L 227.98138 232.494521 
L 227.98138 231.970274 
L 230.964453 231.970274 
L 230.964453 231.446026 
L 234.61763 231.446026 
L 234.61763 230.921778 
L 255.958413 230.921778 
L 256.008095 229.349035 
L 256.314574 229.349035 
L 256.314574 228.30054 
L 256.784437 228.30054 
L 256.784437 227.776292 
L 256.967178 227.776292 
L 256.989232 226.727797 
L 257.109497 226.727797 
L 257.109497 224.630806 
L 258.084458 224.630806 
L 258.084458 224.106558 
L 258.216365 224.106558 
L 258.216365 223.58231 
L 267.058456 223.58231 
L 267.058456 223.058063 
L 267.258829 223.058063 
L 267.258829 222.533815 
L 267.441125 222.533815 
L 267.441125 222.009567 
L 267.671875 222.009567 
L 267.671875 220.436824 
L 268.011324 220.436824 
L 268.011324 219.912576 
L 268.279765 219.912576 
L 268.279765 219.388328 
L 273.886294 219.388328 
L 273.990294 218.339833 
L 274.115703 218.339833 
L 274.168369 215.194347 
L 274.291332 215.194347 
L 274.291332 214.145851 
L 278.555887 214.145851 
L 278.658889 213.097356 
L 278.781927 213.097356 
L 278.873054 210.476117 
L 279.025924 210.476117 
L 279.025924 209.95187 
L 279.153879 209.95187 
L 279.192747 208.379126 
L 282.466885 208.379126 
L 282.563612 205.757888 
L 285.573569 205.757888 
L 285.573569 205.23364 
L 288.181159 205.23364 
L 288.181159 204.185145 
L 290.378126 204.185145 
L 290.42463 202.088154 
L 290.588731 202.088154 
L 290.588731 201.563906 
L 292.328035 201.563906 
L 292.409018 198.41842 
L 294.17412 198.41842 
L 294.188014 197.369924 
L 295.800177 197.369924 
L 295.800177 194.224438 
L 297.260399 194.224438 
L 297.274132 191.078952 
L 297.384512 191.078952 
L 297.384512 190.554704 
L 298.588923 190.554704 
L 298.631717 188.981961 
L 299.889968 188.981961 
L 299.889968 188.457713 
L 301.062437 188.457713 
L 301.062437 187.933465 
L 303.191871 187.933465 
L 303.191871 186.88497 
L 304.156072 186.88497 
L 304.165272 185.312227 
L 305.156714 185.312227 
L 305.156714 184.787979 
L 305.953961 184.787979 
L 305.960968 183.739484 
L 306.793099 183.739484 
L 306.793099 183.215236 
L 307.586832 183.215236 
L 307.586832 182.690988 
L 308.403643 182.690988 
L 308.403643 182.16674 
L 309.065313 182.16674 
L 309.072229 181.118245 
L 311.706093 181.118245 
L 311.706093 180.593997 
L 312.30605 180.593997 
L 312.30605 180.06975 
L 312.885789 180.06975 
L 312.930421 179.021254 
L 313.989761 179.021254 
L 313.989761 178.497006 
L 315.523288 178.497006 
L 315.523288 177.972759 
L 316.001614 177.972759 
L 316.001614 177.448511 
L 316.47011 177.448511 
L 316.47011 176.924263 
L 319.048585 176.924263 
L 319.048585 176.400016 
L 319.438704 176.400016 
L 319.438704 175.875768 
L 320.200611 175.875768 
L 320.200611 175.35152 
L 322.952983 175.35152 
L 322.952983 174.827272 
L 325.867154 174.827272 
L 325.867154 174.303025 
L 333.429677 174.303025 
L 333.429677 174.303025 
" style="fill:none;stroke:#ff00ff;stroke-linecap:square;stroke-width:1.5;"/>
   </g>
   <g id="line2d_35">
    <defs>
     <path d="M -0 8.485281 
L 5.091169 0 
L 0 -8.485281 
L -5.091169 -0 
z
" id="mc687cc2647" style="stroke:#ff00ff;stroke-linejoin:miter;stroke-width:1.5;"/>
    </defs>
    <g>
     <use style="fill-opacity:0;stroke:#ff00ff;stroke-linejoin:miter;stroke-width:1.5;" x="258.084458" xlink:href="#mc687cc2647" y="224.630806"/>
     <use style="fill-opacity:0;stroke:#ff00ff;stroke-linejoin:miter;stroke-width:1.5;" x="313.989761" xlink:href="#mc687cc2647" y="179.021254"/>
     <use style="fill-opacity:0;stroke:#ff00ff;stroke-linejoin:miter;stroke-width:1.5;" x="325.867154" xlink:href="#mc687cc2647" y="174.303025"/>
     <use style="fill-opacity:0;stroke:#ff00ff;stroke-linejoin:miter;stroke-width:1.5;" x="333.429677" xlink:href="#mc687cc2647" y="174.303025"/>
    </g>
   </g>
   <g id="line2d_36">
    <path style="fill:none;stroke:#ff00ff;stroke-linecap:square;stroke-width:1.5;"/>
    <g/>
   </g>
   <g id="line2d_37">
    <path clip-path="url(#pb8d71b3993)" d="M 254.265881 230.921778 
" style="fill:none;stroke:#ff00ff;stroke-linecap:square;stroke-width:1.5;"/>
    <defs>
     <path d="M -12 12 
L 12 -12 
M -12 -12 
L 12 12 
" id="m5acc81e16c" style="stroke:#ff00ff;stroke-width:3;"/>
    </defs>
    <g clip-path="url(#pb8d71b3993)">
     <use style="fill:#ff00ff;stroke:#ff00ff;stroke-width:3;" x="254.265881" xlink:href="#m5acc81e16c" y="230.921778"/>
    </g>
   </g>
   <g id="line2d_38">
    <defs>
     <path d="M 0 1.5 
C 0.397805 1.5 0.77937 1.341951 1.06066 1.06066 
C 1.341951 0.77937 1.5 0.397805 1.5 0 
C 1.5 -0.397805 1.341951 -0.77937 1.06066 -1.06066 
C 0.77937 -1.341951 0.397805 -1.5 0 -1.5 
C -0.397805 -1.5 -0.77937 -1.341951 -1.06066 -1.06066 
C -1.341951 -0.77937 -1.5 -0.397805 -1.5 0 
C -1.5 0.397805 -1.341951 0.77937 -1.06066 1.06066 
C -0.77937 1.341951 -0.397805 1.5 0 1.5 
z
" id="madab4eb439" style="stroke:#ffa500;"/>
    </defs>
    <g>
     <use style="fill:#ffa500;stroke:#ffa500;" x="233.962984" xlink:href="#madab4eb439" y="27.513663"/>
     <use style="fill:#ffa500;stroke:#ffa500;" x="233.962984" xlink:href="#madab4eb439" y="27.513663"/>
    </g>
   </g>
   <g id="line2d_39">
    <path d="M 100.6852 294.88 
L 100.6852 294.355752 
L 101.929467 294.355752 
L 101.929467 293.307257 
L 103.459797 293.307257 
L 103.459797 292.258761 
L 104.524355 292.258761 
L 104.524355 291.210266 
L 105.526863 291.210266 
L 105.526863 290.686018 
L 105.848459 290.686018 
L 105.848459 290.161771 
L 106.47416 290.161771 
L 106.47416 289.637523 
L 106.778678 289.637523 
L 106.778678 288.06478 
L 107.077901 288.06478 
L 107.077901 285.443541 
L 107.661173 285.443541 
L 107.661173 284.919293 
L 107.945557 284.919293 
L 107.945557 283.34655 
L 108.225317 283.34655 
L 108.225317 280.201064 
L 108.771549 280.201064 
L 108.771549 279.152568 
L 109.038297 279.152568 
L 109.038297 276.007082 
L 109.559696 276.007082 
L 109.559696 273.910091 
L 109.814588 273.910091 
L 109.814588 273.385844 
L 110.065758 273.385844 
L 110.065758 272.337348 
L 110.313314 272.337348 
L 110.313314 271.8131 
L 110.797991 271.8131 
L 110.797991 269.191862 
L 111.269386 269.191862 
L 111.269386 267.094871 
L 111.72821 267.094871 
L 111.72821 266.046375 
L 111.953113 266.046375 
L 111.953113 265.522128 
L 112.175115 265.522128 
L 112.175115 263.425137 
L 112.394288 263.425137 
L 112.394288 262.900889 
L 112.610704 262.900889 
L 112.610704 262.376641 
L 113.035537 262.376641 
L 113.035537 261.852394 
L 113.653743 261.852394 
L 113.653743 260.803898 
L 113.854971 260.803898 
L 113.854971 258.18266 
L 114.053874 258.18266 
L 114.053874 257.134164 
L 114.250503 257.134164 
L 114.250503 255.561421 
L 114.637146 255.561421 
L 114.637146 254.512926 
L 115.01529 254.512926 
L 115.01529 252.940182 
L 115.567365 252.940182 
L 115.567365 252.415935 
L 132.487617 252.415935 
L 132.487617 251.891687 
L 133.474783 251.891687 
L 133.474783 251.367439 
L 133.665597 251.367439 
L 133.665597 250.843192 
L 133.854317 250.843192 
L 133.916767 249.794696 
L 134.408368 249.794696 
L 134.468842 248.221953 
L 134.886312 248.221953 
L 134.886312 247.697705 
L 135.293891 247.697705 
L 135.293891 246.124962 
L 136.136059 246.124962 
L 136.136059 245.600714 
L 136.299657 245.600714 
L 136.299657 242.979476 
L 136.461713 242.979476 
L 136.515394 238.785494 
L 136.93892 238.785494 
L 136.991135 237.212751 
L 137.24986 237.212751 
L 137.24986 234.591512 
L 137.454074 234.591512 
L 137.454074 234.067265 
L 137.70598 234.067265 
L 137.70598 233.543017 
L 137.855372 233.543017 
L 137.855372 231.970274 
L 138.052565 231.970274 
L 138.15032 230.397531 
L 138.583472 230.397531 
L 138.583472 228.30054 
L 138.912987 228.30054 
L 139.005987 227.252044 
L 139.052299 227.252044 
L 139.14455 224.630806 
L 139.373038 224.630806 
L 139.373038 224.106558 
L 139.865278 224.106558 
L 139.953283 222.533815 
L 140.386678 222.533815 
L 140.386678 222.009567 
L 140.767613 222.009567 
L 140.767613 221.485319 
L 141.822959 221.485319 
L 141.822959 219.912576 
L 142.057575 219.912576 
L 142.096368 217.815585 
L 142.742815 217.815585 
L 142.742815 217.291338 
L 142.854414 217.291338 
L 142.854414 216.242842 
L 143.22127 216.242842 
L 143.22127 215.718594 
L 143.509224 215.718594 
L 143.509224 215.194347 
L 144.174398 215.194347 
L 144.208705 214.145851 
L 144.615138 214.145851 
L 144.615138 213.621604 
L 144.847864 213.621604 
L 144.847864 212.573108 
L 145.044869 212.573108 
L 145.044869 212.04886 
L 145.559445 212.04886 
L 145.559445 211.524613 
L 146.181751 211.524613 
L 146.181751 210.476117 
L 146.544608 210.476117 
L 146.544608 209.95187 
L 147.334095 209.95187 
L 147.334095 209.427622 
L 148.387217 209.427622 
L 148.494413 208.379126 
L 148.890552 208.379126 
L 148.890552 207.330631 
L 149.046488 207.330631 
L 149.12393 204.709392 
L 149.201024 204.709392 
L 149.303282 202.088154 
L 149.328752 202.088154 
L 149.328752 201.563906 
L 149.656474 201.563906 
L 149.756068 197.894172 
L 150.100177 197.894172 
L 150.148778 196.845677 
L 150.245571 196.845677 
L 150.245571 196.321429 
L 150.461384 196.321429 
L 150.556439 194.224438 
L 150.698043 194.224438 
L 150.768411 191.078952 
L 150.885054 191.078952 
L 150.885054 190.030456 
L 151.000913 190.030456 
L 151.093041 186.360722 
L 151.298542 186.360722 
L 151.298542 185.836474 
L 151.501619 185.836474 
L 151.524035 184.787979 
L 151.613412 184.787979 
L 151.702326 181.118245 
L 151.790783 181.118245 
L 151.790783 180.593997 
L 152.545977 180.593997 
L 152.609191 179.545502 
L 152.797453 179.545502 
L 152.797453 179.021254 
L 153.530552 179.021254 
L 153.530552 177.972759 
L 155.559209 177.972759 
L 155.629938 176.400016 
L 156.986689 176.400016 
L 157.084259 174.303025 
L 157.516605 174.303025 
L 157.626944 172.730281 
L 158.076669 172.730281 
L 158.076669 171.681786 
L 158.319851 171.681786 
L 158.319851 171.157538 
L 158.440165 171.157538 
L 158.544754 170.109043 
L 158.574521 170.109043 
L 158.574521 169.584795 
L 158.766756 169.584795 
L 158.810814 168.5363 
L 158.985929 168.5363 
L 159.087262 167.487804 
L 159.188002 167.487804 
L 159.188002 166.963557 
L 159.401907 166.963557 
L 159.48673 164.342318 
L 159.738718 164.342318 
L 159.780359 163.293823 
L 160.041774 163.293823 
L 160.109912 161.196832 
L 160.191323 161.196832 
L 160.299275 159.624089 
L 160.55298 159.624089 
L 160.645515 158.575593 
L 160.737555 158.575593 
L 160.737555 157.527098 
L 160.894201 157.527098 
L 160.959052 156.478602 
L 161.254256 156.478602 
L 161.292391 155.430107 
L 161.444088 155.430107 
L 161.481804 149.139134 
L 161.606931 149.139134 
L 161.606931 148.614886 
L 161.731154 148.614886 
L 161.731154 148.090639 
L 161.940297 148.090639 
L 161.976942 146.517896 
L 162.110644 146.517896 
L 162.110644 145.4694 
L 162.434481 145.4694 
L 162.434481 144.945152 
L 162.588256 144.945152 
L 162.693915 141.799666 
L 162.833793 141.799666 
L 162.833793 140.751171 
L 163.064425 140.751171 
L 163.098754 139.178427 
L 163.24673 139.178427 
L 163.314599 136.557189 
L 163.393443 136.557189 
L 163.471927 135.508693 
L 163.616741 135.508693 
L 163.683169 133.93595 
L 163.870001 133.93595 
L 163.870001 133.411703 
L 164.033185 133.411703 
L 164.098027 132.363207 
L 164.354981 132.363207 
L 164.354981 131.314712 
L 164.608153 131.314712 
L 164.670869 129.217721 
L 164.754135 129.217721 
L 164.837 127.644978 
L 164.919468 127.644978 
L 165.011775 124.499491 
L 165.083228 124.499491 
L 165.164527 121.354005 
L 165.194915 121.354005 
L 165.295824 119.781262 
L 165.376127 119.781262 
L 165.436109 118.732766 
L 165.495883 118.732766 
L 165.595046 117.160023 
L 165.742729 117.160023 
L 165.742729 116.635776 
L 165.859968 116.635776 
L 165.859968 116.111528 
L 166.015056 116.111528 
L 166.082469 114.014537 
L 166.396765 114.014537 
L 166.396765 113.490289 
L 166.51902 113.490289 
L 166.575153 111.917546 
L 167.035943 111.917546 
L 167.035943 110.869051 
L 167.360233 110.869051 
L 167.386983 109.820555 
L 167.528953 109.820555 
L 167.599501 108.77206 
L 168.306413 108.77206 
L 168.306413 108.247812 
L 168.57459 108.247812 
L 168.57459 107.199317 
L 168.698873 107.199317 
L 168.748336 106.150821 
L 168.904038 106.150821 
L 168.904038 105.626573 
L 169.591684 105.626573 
L 169.591684 105.102326 
L 169.708857 105.102326 
L 169.708857 104.578078 
L 170.032759 104.578078 
L 170.032759 103.529583 
L 170.146977 103.529583 
L 170.146977 103.005335 
L 170.328162 103.005335 
L 170.328162 101.956839 
L 170.507459 101.956839 
L 170.507459 100.384096 
L 170.62596 100.384096 
L 170.69226 99.335601 
L 170.998327 99.335601 
L 170.998327 98.811353 
L 171.206525 98.811353 
L 171.206525 98.287105 
L 171.440416 98.287105 
L 171.440416 97.23861 
L 171.747404 97.23861 
L 171.747404 96.190115 
L 171.885154 96.190115 
L 171.885154 95.665867 
L 172.143879 95.665867 
L 172.143879 95.141619 
L 173.090451 95.141619 
L 173.090451 94.617371 
L 173.532435 94.617371 
L 173.532435 93.044628 
L 174.222799 93.044628 
L 174.222799 92.520381 
L 175.240103 92.520381 
L 175.302083 90.947637 
L 176.591156 90.947637 
L 176.591156 90.42339 
L 176.710761 90.42339 
L 176.741826 89.374894 
L 176.880929 89.374894 
L 176.880929 88.850646 
L 177.170948 88.850646 
L 177.170948 88.326399 
L 177.515606 88.326399 
L 177.579776 86.753656 
L 177.75136 86.753656 
L 177.75136 86.229408 
L 178.331705 86.229408 
L 178.407 85.180912 
L 178.528656 85.180912 
L 178.598452 83.083922 
L 178.695695 83.083922 
L 178.801571 79.414188 
L 178.943251 79.414188 
L 178.943251 78.88994 
L 179.065706 78.88994 
L 179.065706 77.841444 
L 179.227635 77.841444 
L 179.227635 76.268701 
L 179.410217 76.268701 
L 179.410217 75.744454 
L 179.625914 75.744454 
L 179.656508 74.17171 
L 179.795679 74.17171 
L 179.795679 73.123215 
L 180.002346 73.123215 
L 180.091988 71.026224 
L 180.147248 71.026224 
L 180.147248 70.501976 
L 180.31197 70.501976 
L 180.395835 69.453481 
L 180.483455 69.453481 
L 180.558205 68.404985 
L 180.632631 68.404985 
L 180.632631 67.880738 
L 182.617765 67.880738 
L 182.617765 66.832242 
L 183.117752 66.832242 
L 183.117752 66.307995 
L 183.71435 66.307995 
L 183.790066 65.259499 
L 183.879122 65.259499 
L 183.960921 63.686756 
L 184.001674 63.686756 
L 184.103138 62.638261 
L 184.133461 62.638261 
L 184.183881 60.54127 
L 184.277604 60.54127 
L 184.377459 59.492774 
L 184.53603 59.492774 
L 184.53603 58.968526 
L 184.7582 58.968526 
L 184.864992 57.920031 
L 184.916533 57.920031 
L 185.003159 56.871536 
L 185.047905 56.871536 
L 185.047905 56.347288 
L 189.239649 56.347288 
L 189.239649 55.82304 
L 189.652457 55.82304 
L 189.696366 54.250297 
L 189.890171 54.250297 
L 189.998235 51.104811 
L 196.40719 51.104811 
L 196.491104 49.00782 
L 196.725853 49.00782 
L 196.827557 46.910829 
L 196.914256 46.910829 
L 196.914256 46.386581 
L 197.495285 46.386581 
L 197.495285 45.862334 
L 208.245054 45.862334 
L 208.257483 44.28959 
L 209.338533 44.28959 
L 209.338533 43.765343 
L 211.06664 43.765343 
L 211.084219 42.192599 
L 214.622771 42.192599 
L 214.631923 40.619856 
L 214.759544 40.619856 
L 214.836004 37.47437 
L 215.007506 37.47437 
L 215.007506 36.425875 
L 215.289414 36.425875 
L 215.289414 35.901627 
L 215.425378 35.901627 
L 215.485886 34.328884 
L 215.538047 34.328884 
L 215.538047 33.804636 
L 215.738689 33.804636 
L 215.842937 32.756141 
L 215.985188 32.756141 
L 215.985188 32.231893 
L 216.477601 32.231893 
L 216.477601 31.707645 
L 217.252993 31.707645 
L 217.252993 31.183397 
L 217.373856 31.183397 
L 217.373856 30.65915 
L 218.146655 30.65915 
L 218.146655 30.134902 
L 226.607962 30.134902 
L 226.700368 28.562159 
L 227.083141 28.562159 
L 227.083141 28.037911 
L 233.962984 28.037911 
L 233.962984 27.513663 
L 333.429677 27.513663 
L 333.429677 27.513663 
" style="fill:none;stroke:#ffa500;stroke-linecap:square;stroke-width:1.5;"/>
   </g>
   <g id="line2d_40">
    <defs>
     <path d="M 0 -6 
L -1.347084 -1.854102 
L -5.706339 -1.854102 
L -2.179628 0.708204 
L -3.526712 4.854102 
L -0 2.291796 
L 3.526712 4.854102 
L 2.179628 0.708204 
L 5.706339 -1.854102 
L 1.347084 -1.854102 
z
" id="m4adc63c86d" style="stroke:#ffa500;stroke-linejoin:bevel;stroke-width:1.5;"/>
    </defs>
    <g>
     <use style="fill-opacity:0;stroke:#ffa500;stroke-linejoin:bevel;stroke-width:1.5;" x="161.731154" xlink:href="#m4adc63c86d" y="148.614886"/>
     <use style="fill-opacity:0;stroke:#ffa500;stroke-linejoin:bevel;stroke-width:1.5;" x="217.373856" xlink:href="#m4adc63c86d" y="31.183397"/>
     <use style="fill-opacity:0;stroke:#ffa500;stroke-linejoin:bevel;stroke-width:1.5;" x="233.962984" xlink:href="#m4adc63c86d" y="27.513663"/>
     <use style="fill-opacity:0;stroke:#ffa500;stroke-linejoin:bevel;stroke-width:1.5;" x="233.962984" xlink:href="#m4adc63c86d" y="27.513663"/>
     <use style="fill-opacity:0;stroke:#ffa500;stroke-linejoin:bevel;stroke-width:1.5;" x="333.429677" xlink:href="#m4adc63c86d" y="27.513663"/>
    </g>
   </g>
   <g id="line2d_41">
    <path style="fill:none;stroke:#ffa500;stroke-linecap:square;stroke-width:1.5;"/>
    <g/>
   </g>
   <g id="line2d_42">
    <path clip-path="url(#pb8d71b3993)" d="M 214.583246 42.192599 
" style="fill:none;stroke:#ffa500;stroke-linecap:square;stroke-width:1.5;"/>
    <defs>
     <path d="M -12 12 
L 12 -12 
M -12 -12 
L 12 12 
" id="maab02bafa9" style="stroke:#ffa500;stroke-width:3;"/>
    </defs>
    <g clip-path="url(#pb8d71b3993)">
     <use style="fill:#ffa500;stroke:#ffa500;stroke-width:3;" x="214.583246" xlink:href="#maab02bafa9" y="42.192599"/>
    </g>
   </g>
   <g id="line2d_43">
    <path clip-path="url(#pb8d71b3993)" d="M 56.12 294.88 
L 56.12 294.88 
L 56.12 294.88 
L 56.12 294.88 
L 399.984 294.88 
" style="fill:none;stroke:#6495ed;stroke-linecap:square;stroke-width:1.5;"/>
   </g>
   <g id="line2d_44">
    <defs>
     <path d="M -0 6 
L 6 -6 
L -6 -6 
z
" id="m31a4bc71ef" style="stroke:#6495ed;stroke-linejoin:miter;stroke-width:1.5;"/>
    </defs>
    <g clip-path="url(#pb8d71b3993)">
     <use style="fill-opacity:0;stroke:#6495ed;stroke-linejoin:miter;stroke-width:1.5;" x="56.12" xlink:href="#m31a4bc71ef" y="294.88"/>
    </g>
   </g>
   <g id="line2d_45">
    <path clip-path="url(#pb8d71b3993)" style="fill:none;stroke:#6495ed;stroke-linecap:square;stroke-width:1.5;"/>
    <g clip-path="url(#pb8d71b3993)">
     <use style="fill-opacity:0;stroke:#6495ed;stroke-linejoin:miter;stroke-width:1.5;" x="-1" xlink:href="#m31a4bc71ef" y="562.246337"/>
     <use style="fill-opacity:0;stroke:#6495ed;stroke-linejoin:miter;stroke-width:1.5;" x="399.984" xlink:href="#m31a4bc71ef" y="562.246337"/>
    </g>
   </g>
   <g id="line2d_46">
    <path d="M 333.429677 294.88 
L 363.933742 289.532673 
" style="fill:none;stroke:#6495ed;stroke-linecap:square;stroke-width:1.5;"/>
    <g>
     <use style="fill-opacity:0;stroke:#6495ed;stroke-linejoin:miter;stroke-width:1.5;" x="333.429677" xlink:href="#m31a4bc71ef" y="294.88"/>
     <use style="fill-opacity:0;stroke:#6495ed;stroke-linejoin:miter;stroke-width:1.5;" x="363.933742" xlink:href="#m31a4bc71ef" y="289.532673"/>
    </g>
   </g>
   <g id="line2d_47">
    <path d="M 333.429677 198.942667 
L 363.933742 225.364752 
" style="fill:none;stroke:#000080;stroke-linecap:square;stroke-width:1.5;"/>
    <g>
     <use style="fill-opacity:0;stroke:#000080;stroke-width:1.5;" x="333.429677" xlink:href="#m3aee7b9a35" y="198.942667"/>
     <use style="fill-opacity:0;stroke:#000080;stroke-width:1.5;" x="363.933742" xlink:href="#m3aee7b9a35" y="225.364752"/>
    </g>
   </g>
   <g id="line2d_48">
    <path d="M 333.429677 174.303025 
L 363.933742 161.196832 
" style="fill:none;stroke:#ff00ff;stroke-linecap:square;stroke-width:1.5;"/>
    <g>
     <use style="fill-opacity:0;stroke:#ff00ff;stroke-linejoin:miter;stroke-width:1.5;" x="333.429677" xlink:href="#mc687cc2647" y="174.303025"/>
     <use style="fill-opacity:0;stroke:#ff00ff;stroke-linejoin:miter;stroke-width:1.5;" x="363.933742" xlink:href="#mc687cc2647" y="161.196832"/>
    </g>
   </g>
   <g id="line2d_49">
    <path d="M 333.429677 27.513663 
L 363.933742 97.028911 
" style="fill:none;stroke:#ffa500;stroke-linecap:square;stroke-width:1.5;"/>
    <g>
     <use style="fill-opacity:0;stroke:#ffa500;stroke-linejoin:bevel;stroke-width:1.5;" x="333.429677" xlink:href="#m4adc63c86d" y="27.513663"/>
     <use style="fill-opacity:0;stroke:#ffa500;stroke-linejoin:bevel;stroke-width:1.5;" x="363.933742" xlink:href="#m4adc63c86d" y="97.028911"/>
    </g>
   </g>
   <g id="line2d_50">
    <path d="M 333.429677 294.88 
L 333.429677 27.513663 
" style="fill:none;stroke:#000000;stroke-linecap:square;stroke-width:1.5;"/>
   </g>
   <g id="patch_3">
    <path d="M 56.12 294.88 
L 56.12 24.84 
" style="fill:none;stroke:#000000;stroke-linecap:square;stroke-linejoin:miter;stroke-width:0.8;"/>
   </g>
   <g id="patch_4">
    <path d="M 399.984 294.88 
L 399.984 24.84 
" style="fill:none;stroke:#000000;stroke-linecap:square;stroke-linejoin:miter;stroke-width:0.8;"/>
   </g>
   <g id="patch_5">
    <path d="M 56.12 294.88 
L 399.984 294.88 
" style="fill:none;stroke:#000000;stroke-linecap:square;stroke-linejoin:miter;stroke-width:0.8;"/>
   </g>
   <g id="patch_6">
    <path d="M 56.12 24.84 
L 399.984 24.84 
" style="fill:none;stroke:#000000;stroke-linecap:square;stroke-linejoin:miter;stroke-width:0.8;"/>
   </g>
   <g id="text_14">
    <!-- hybrid -->
    <defs>
     <path d="M 54.890625 33.015625 
L 54.890625 0 
L 45.90625 0 
L 45.90625 32.71875 
Q 45.90625 40.484375 42.875 44.328125 
Q 39.84375 48.1875 33.796875 48.1875 
Q 26.515625 48.1875 22.3125 43.546875 
Q 18.109375 38.921875 18.109375 30.90625 
L 18.109375 0 
L 9.078125 0 
L 9.078125 75.984375 
L 18.109375 75.984375 
L 18.109375 46.1875 
Q 21.34375 51.125 25.703125 53.5625 
Q 30.078125 56 35.796875 56 
Q 45.21875 56 50.046875 50.171875 
Q 54.890625 44.34375 54.890625 33.015625 
z
" id="DejaVuSans-68"/>
     <path d="M 32.171875 -5.078125 
Q 28.375 -14.84375 24.75 -17.8125 
Q 21.140625 -20.796875 15.09375 -20.796875 
L 7.90625 -20.796875 
L 7.90625 -13.28125 
L 13.1875 -13.28125 
Q 16.890625 -13.28125 18.9375 -11.515625 
Q 21 -9.765625 23.484375 -3.21875 
L 25.09375 0.875 
L 2.984375 54.6875 
L 12.5 54.6875 
L 29.59375 11.921875 
L 46.6875 54.6875 
L 56.203125 54.6875 
z
" id="DejaVuSans-79"/>
     <path d="M 48.6875 27.296875 
Q 48.6875 37.203125 44.609375 42.84375 
Q 40.53125 48.484375 33.40625 48.484375 
Q 26.265625 48.484375 22.1875 42.84375 
Q 18.109375 37.203125 18.109375 27.296875 
Q 18.109375 17.390625 22.1875 11.75 
Q 26.265625 6.109375 33.40625 6.109375 
Q 40.53125 6.109375 44.609375 11.75 
Q 48.6875 17.390625 48.6875 27.296875 
z
M 18.109375 46.390625 
Q 20.953125 51.265625 25.265625 53.625 
Q 29.59375 56 35.59375 56 
Q 45.5625 56 51.78125 48.09375 
Q 58.015625 40.1875 58.015625 27.296875 
Q 58.015625 14.40625 51.78125 6.484375 
Q 45.5625 -1.421875 35.59375 -1.421875 
Q 29.59375 -1.421875 25.265625 0.953125 
Q 20.953125 3.328125 18.109375 8.203125 
L 18.109375 0 
L 9.078125 0 
L 9.078125 75.984375 
L 18.109375 75.984375 
z
" id="DejaVuSans-62"/>
    </defs>
    <g transform="translate(369.479935 294.223611)scale(0.17 -0.17)">
     <use xlink:href="#DejaVuSans-68"/>
     <use x="63.378906" xlink:href="#DejaVuSans-79"/>
     <use x="122.558594" xlink:href="#DejaVuSans-62"/>
     <use x="186.035156" xlink:href="#DejaVuSans-72"/>
     <use x="227.148438" xlink:href="#DejaVuSans-69"/>
     <use x="254.931641" xlink:href="#DejaVuSans-64"/>
    </g>
   </g>
   <g id="text_15">
    <!-- DASA -->
    <defs>
     <path d="M 19.671875 64.796875 
L 19.671875 8.109375 
L 31.59375 8.109375 
Q 46.6875 8.109375 53.6875 14.9375 
Q 60.6875 21.78125 60.6875 36.53125 
Q 60.6875 51.171875 53.6875 57.984375 
Q 46.6875 64.796875 31.59375 64.796875 
z
M 9.8125 72.90625 
L 30.078125 72.90625 
Q 51.265625 72.90625 61.171875 64.09375 
Q 71.09375 55.28125 71.09375 36.53125 
Q 71.09375 17.671875 61.125 8.828125 
Q 51.171875 0 30.078125 0 
L 9.8125 0 
z
" id="DejaVuSans-44"/>
     <path d="M 34.1875 63.1875 
L 20.796875 26.90625 
L 47.609375 26.90625 
z
M 28.609375 72.90625 
L 39.796875 72.90625 
L 67.578125 0 
L 57.328125 0 
L 50.6875 18.703125 
L 17.828125 18.703125 
L 11.1875 0 
L 0.78125 0 
z
" id="DejaVuSans-41"/>
     <path d="M 53.515625 70.515625 
L 53.515625 60.890625 
Q 47.90625 63.578125 42.921875 64.890625 
Q 37.9375 66.21875 33.296875 66.21875 
Q 25.25 66.21875 20.875 63.09375 
Q 16.5 59.96875 16.5 54.203125 
Q 16.5 49.359375 19.40625 46.890625 
Q 22.3125 44.4375 30.421875 42.921875 
L 36.375 41.703125 
Q 47.40625 39.59375 52.65625 34.296875 
Q 57.90625 29 57.90625 20.125 
Q 57.90625 9.515625 50.796875 4.046875 
Q 43.703125 -1.421875 29.984375 -1.421875 
Q 24.8125 -1.421875 18.96875 -0.25 
Q 13.140625 0.921875 6.890625 3.21875 
L 6.890625 13.375 
Q 12.890625 10.015625 18.65625 8.296875 
Q 24.421875 6.59375 29.984375 6.59375 
Q 38.421875 6.59375 43.015625 9.90625 
Q 47.609375 13.234375 47.609375 19.390625 
Q 47.609375 24.75 44.3125 27.78125 
Q 41.015625 30.8125 33.5 32.328125 
L 27.484375 33.5 
Q 16.453125 35.6875 11.515625 40.375 
Q 6.59375 45.0625 6.59375 53.421875 
Q 6.59375 63.09375 13.40625 68.65625 
Q 20.21875 74.21875 32.171875 74.21875 
Q 37.3125 74.21875 42.625 73.28125 
Q 47.953125 72.359375 53.515625 70.515625 
z
" id="DejaVuSans-53"/>
    </defs>
    <g transform="translate(369.479935 230.05569)scale(0.17 -0.17)">
     <use xlink:href="#DejaVuSans-44"/>
     <use x="76.986328" xlink:href="#DejaVuSans-41"/>
     <use x="145.394531" xlink:href="#DejaVuSans-53"/>
     <use x="208.886719" xlink:href="#DejaVuSans-41"/>
    </g>
   </g>
   <g id="text_16">
    <!-- GA -->
    <defs>
     <path d="M 59.515625 10.40625 
L 59.515625 29.984375 
L 43.40625 29.984375 
L 43.40625 38.09375 
L 69.28125 38.09375 
L 69.28125 6.78125 
Q 63.578125 2.734375 56.6875 0.65625 
Q 49.8125 -1.421875 42 -1.421875 
Q 24.90625 -1.421875 15.25 8.5625 
Q 5.609375 18.5625 5.609375 36.375 
Q 5.609375 54.25 15.25 64.234375 
Q 24.90625 74.21875 42 74.21875 
Q 49.125 74.21875 55.546875 72.453125 
Q 61.96875 70.703125 67.390625 67.28125 
L 67.390625 56.78125 
Q 61.921875 61.421875 55.765625 63.765625 
Q 49.609375 66.109375 42.828125 66.109375 
Q 29.4375 66.109375 22.71875 58.640625 
Q 16.015625 51.171875 16.015625 36.375 
Q 16.015625 21.625 22.71875 14.15625 
Q 29.4375 6.6875 42.828125 6.6875 
Q 48.046875 6.6875 52.140625 7.59375 
Q 56.25 8.5 59.515625 10.40625 
z
" id="DejaVuSans-47"/>
    </defs>
    <g transform="translate(369.479935 165.887769)scale(0.17 -0.17)">
     <use xlink:href="#DejaVuSans-47"/>
     <use x="77.490234" xlink:href="#DejaVuSans-41"/>
    </g>
   </g>
   <g id="text_17">
    <!-- Rosenbroc -->
    <defs>
     <path d="M 44.390625 34.1875 
Q 47.5625 33.109375 50.5625 29.59375 
Q 53.5625 26.078125 56.59375 19.921875 
L 66.609375 0 
L 56 0 
L 46.6875 18.703125 
Q 43.0625 26.03125 39.671875 28.421875 
Q 36.28125 30.8125 30.421875 30.8125 
L 19.671875 30.8125 
L 19.671875 0 
L 9.8125 0 
L 9.8125 72.90625 
L 32.078125 72.90625 
Q 44.578125 72.90625 50.734375 67.671875 
Q 56.890625 62.453125 56.890625 51.90625 
Q 56.890625 45.015625 53.6875 40.46875 
Q 50.484375 35.9375 44.390625 34.1875 
z
M 19.671875 64.796875 
L 19.671875 38.921875 
L 32.078125 38.921875 
Q 39.203125 38.921875 42.84375 42.21875 
Q 46.484375 45.515625 46.484375 51.90625 
Q 46.484375 58.296875 42.84375 61.546875 
Q 39.203125 64.796875 32.078125 64.796875 
z
" id="DejaVuSans-52"/>
    </defs>
    <g transform="translate(369.479935 101.719848)scale(0.17 -0.17)">
     <use xlink:href="#DejaVuSans-52"/>
     <use x="69.419922" xlink:href="#DejaVuSans-6f"/>
     <use x="130.601562" xlink:href="#DejaVuSans-73"/>
     <use x="182.701172" xlink:href="#DejaVuSans-65"/>
     <use x="244.224609" xlink:href="#DejaVuSans-6e"/>
     <use x="307.603516" xlink:href="#DejaVuSans-62"/>
     <use x="371.080078" xlink:href="#DejaVuSans-72"/>
     <use x="412.162109" xlink:href="#DejaVuSans-6f"/>
     <use x="473.34375" xlink:href="#DejaVuSans-63"/>
    </g>
   </g>
   <g id="text_18">
    <!-- best 2009 -->
    <defs>
     <path d="M 10.984375 1.515625 
L 10.984375 10.5 
Q 14.703125 8.734375 18.5 7.8125 
Q 22.3125 6.890625 25.984375 6.890625 
Q 35.75 6.890625 40.890625 13.453125 
Q 46.046875 20.015625 46.78125 33.40625 
Q 43.953125 29.203125 39.59375 26.953125 
Q 35.25 24.703125 29.984375 24.703125 
Q 19.046875 24.703125 12.671875 31.3125 
Q 6.296875 37.9375 6.296875 49.421875 
Q 6.296875 60.640625 12.9375 67.421875 
Q 19.578125 74.21875 30.609375 74.21875 
Q 43.265625 74.21875 49.921875 64.515625 
Q 56.59375 54.828125 56.59375 36.375 
Q 56.59375 19.140625 48.40625 8.859375 
Q 40.234375 -1.421875 26.421875 -1.421875 
Q 22.703125 -1.421875 18.890625 -0.6875 
Q 15.09375 0.046875 10.984375 1.515625 
z
M 30.609375 32.421875 
Q 37.25 32.421875 41.125 36.953125 
Q 45.015625 41.5 45.015625 49.421875 
Q 45.015625 57.28125 41.125 61.84375 
Q 37.25 66.40625 30.609375 66.40625 
Q 23.96875 66.40625 20.09375 61.84375 
Q 16.21875 57.28125 16.21875 49.421875 
Q 16.21875 41.5 20.09375 36.953125 
Q 23.96875 32.421875 30.609375 32.421875 
z
" id="DejaVuSans-39"/>
    </defs>
    <g transform="translate(369.479935 37.551928)scale(0.17 -0.17)">
     <use xlink:href="#DejaVuSans-62"/>
     <use x="63.476562" xlink:href="#DejaVuSans-65"/>
     <use x="125" xlink:href="#DejaVuSans-73"/>
     <use x="177.099609" xlink:href="#DejaVuSans-74"/>
     <use x="216.308594" xlink:href="#DejaVuSans-20"/>
     <use x="248.095703" xlink:href="#DejaVuSans-32"/>
     <use x="311.71875" xlink:href="#DejaVuSans-30"/>
     <use x="375.341797" xlink:href="#DejaVuSans-30"/>
     <use x="438.964844" xlink:href="#DejaVuSans-39"/>
    </g>
   </g>
   <g id="text_19">
    <!-- bbob f12, 3-D -->
    <defs>
     <path d="M 40.578125 39.3125 
Q 47.65625 37.796875 51.625 33 
Q 55.609375 28.21875 55.609375 21.1875 
Q 55.609375 10.40625 48.1875 4.484375 
Q 40.765625 -1.421875 27.09375 -1.421875 
Q 22.515625 -1.421875 17.65625 -0.515625 
Q 12.796875 0.390625 7.625 2.203125 
L 7.625 11.71875 
Q 11.71875 9.328125 16.59375 8.109375 
Q 21.484375 6.890625 26.8125 6.890625 
Q 36.078125 6.890625 40.9375 10.546875 
Q 45.796875 14.203125 45.796875 21.1875 
Q 45.796875 27.640625 41.28125 31.265625 
Q 36.765625 34.90625 28.71875 34.90625 
L 20.21875 34.90625 
L 20.21875 43.015625 
L 29.109375 43.015625 
Q 36.375 43.015625 40.234375 45.921875 
Q 44.09375 48.828125 44.09375 54.296875 
Q 44.09375 59.90625 40.109375 62.90625 
Q 36.140625 65.921875 28.71875 65.921875 
Q 24.65625 65.921875 20.015625 65.03125 
Q 15.375 64.15625 9.8125 62.3125 
L 9.8125 71.09375 
Q 15.4375 72.65625 20.34375 73.4375 
Q 25.25 74.21875 29.59375 74.21875 
Q 40.828125 74.21875 47.359375 69.109375 
Q 53.90625 64.015625 53.90625 55.328125 
Q 53.90625 49.265625 50.4375 45.09375 
Q 46.96875 40.921875 40.578125 39.3125 
z
" id="DejaVuSans-33"/>
    </defs>
    <g transform="translate(59.55864 35.290806)scale(0.102 -0.102)">
     <use xlink:href="#DejaVuSans-62"/>
     <use x="63.476562" xlink:href="#DejaVuSans-62"/>
     <use x="126.953125" xlink:href="#DejaVuSans-6f"/>
     <use x="188.134766" xlink:href="#DejaVuSans-62"/>
     <use x="251.611328" xlink:href="#DejaVuSans-20"/>
     <use x="283.398438" xlink:href="#DejaVuSans-66"/>
     <use x="318.603516" xlink:href="#DejaVuSans-31"/>
     <use x="382.226562" xlink:href="#DejaVuSans-32"/>
     <use x="445.849609" xlink:href="#DejaVuSans-2c"/>
     <use x="477.636719" xlink:href="#DejaVuSans-20"/>
     <use x="509.423828" xlink:href="#DejaVuSans-33"/>
     <use x="573.046875" xlink:href="#DejaVuSans-2d"/>
     <use x="609.130859" xlink:href="#DejaVuSans-44"/>
    </g>
    <!-- 51 targets: 100..1e-08 -->
    <defs>
     <path d="M 10.796875 72.90625 
L 49.515625 72.90625 
L 49.515625 64.59375 
L 19.828125 64.59375 
L 19.828125 46.734375 
Q 21.96875 47.46875 24.109375 47.828125 
Q 26.265625 48.1875 28.421875 48.1875 
Q 40.625 48.1875 47.75 41.5 
Q 54.890625 34.8125 54.890625 23.390625 
Q 54.890625 11.625 47.5625 5.09375 
Q 40.234375 -1.421875 26.90625 -1.421875 
Q 22.3125 -1.421875 17.546875 -0.640625 
Q 12.796875 0.140625 7.71875 1.703125 
L 7.71875 11.625 
Q 12.109375 9.234375 16.796875 8.0625 
Q 21.484375 6.890625 26.703125 6.890625 
Q 35.15625 6.890625 40.078125 11.328125 
Q 45.015625 15.765625 45.015625 23.390625 
Q 45.015625 31 40.078125 35.4375 
Q 35.15625 39.890625 26.703125 39.890625 
Q 22.75 39.890625 18.8125 39.015625 
Q 14.890625 38.140625 10.796875 36.28125 
z
" id="DejaVuSans-35"/>
     <path d="M 11.71875 12.40625 
L 22.015625 12.40625 
L 22.015625 0 
L 11.71875 0 
z
M 11.71875 51.703125 
L 22.015625 51.703125 
L 22.015625 39.3125 
L 11.71875 39.3125 
z
" id="DejaVuSans-3a"/>
    </defs>
    <g transform="translate(59.55864 46.712575)scale(0.102 -0.102)">
     <use xlink:href="#DejaVuSans-35"/>
     <use x="63.623047" xlink:href="#DejaVuSans-31"/>
     <use x="127.246094" xlink:href="#DejaVuSans-20"/>
     <use x="159.033203" xlink:href="#DejaVuSans-74"/>
     <use x="198.242188" xlink:href="#DejaVuSans-61"/>
     <use x="259.521484" xlink:href="#DejaVuSans-72"/>
     <use x="300.619141" xlink:href="#DejaVuSans-67"/>
     <use x="364.095703" xlink:href="#DejaVuSans-65"/>
     <use x="425.619141" xlink:href="#DejaVuSans-74"/>
     <use x="464.828125" xlink:href="#DejaVuSans-73"/>
     <use x="516.927734" xlink:href="#DejaVuSans-3a"/>
     <use x="550.619141" xlink:href="#DejaVuSans-20"/>
     <use x="582.40625" xlink:href="#DejaVuSans-31"/>
     <use x="646.029297" xlink:href="#DejaVuSans-30"/>
     <use x="709.652344" xlink:href="#DejaVuSans-30"/>
     <use x="773.275391" xlink:href="#DejaVuSans-2e"/>
     <use x="805.0625" xlink:href="#DejaVuSans-2e"/>
     <use x="836.849609" xlink:href="#DejaVuSans-31"/>
     <use x="900.472656" xlink:href="#DejaVuSans-65"/>
     <use x="961.996094" xlink:href="#DejaVuSans-2d"/>
     <use x="998.080078" xlink:href="#DejaVuSans-30"/>
     <use x="1061.703125" xlink:href="#DejaVuSans-38"/>
    </g>
    <!-- 15 instances -->
    <g transform="translate(59.55864 58.134344)scale(0.102 -0.102)">
     <use xlink:href="#DejaVuSans-31"/>
     <use x="63.623047" xlink:href="#DejaVuSans-35"/>
     <use x="127.246094" xlink:href="#DejaVuSans-20"/>
     <use x="159.033203" xlink:href="#DejaVuSans-69"/>
     <use x="186.816406" xlink:href="#DejaVuSans-6e"/>
     <use x="250.195312" xlink:href="#DejaVuSans-73"/>
     <use x="302.294922" xlink:href="#DejaVuSans-74"/>
     <use x="341.503906" xlink:href="#DejaVuSans-61"/>
     <use x="402.783203" xlink:href="#DejaVuSans-6e"/>
     <use x="466.162109" xlink:href="#DejaVuSans-63"/>
     <use x="521.142578" xlink:href="#DejaVuSans-65"/>
     <use x="582.666016" xlink:href="#DejaVuSans-73"/>
    </g>
   </g>
   <g id="text_20">
    <!-- v-coco-version -->
    <g style="fill:#808080;" transform="translate(191.556688 290.099912)scale(0.1 -0.1)">
     <use xlink:href="#DejaVuSans-76"/>
     <use x="59.148438" xlink:href="#DejaVuSans-2d"/>
     <use x="95.232422" xlink:href="#DejaVuSans-63"/>
     <use x="150.212891" xlink:href="#DejaVuSans-6f"/>
     <use x="211.394531" xlink:href="#DejaVuSans-63"/>
     <use x="266.375" xlink:href="#DejaVuSans-6f"/>
     <use x="327.572266" xlink:href="#DejaVuSans-2d"/>
     <use x="363.625" xlink:href="#DejaVuSans-76"/>
     <use x="422.804688" xlink:href="#DejaVuSans-65"/>
     <use x="484.328125" xlink:href="#DejaVuSans-72"/>
     <use x="525.441406" xlink:href="#DejaVuSans-73"/>
     <use x="577.541016" xlink:href="#DejaVuSans-69"/>
     <use x="605.324219" xlink:href="#DejaVuSans-6f"/>
     <use x="666.505859" xlink:href="#DejaVuSans-6e"/>
    </g>
   </g>
   <g id="text_21">
    <!-- 12 Bent cigar -->
    <defs>
     <path d="M 19.671875 34.8125 
L 19.671875 8.109375 
L 35.5 8.109375 
Q 43.453125 8.109375 47.28125 11.40625 
Q 51.125 14.703125 51.125 21.484375 
Q 51.125 28.328125 47.28125 31.5625 
Q 43.453125 34.8125 35.5 34.8125 
z
M 19.671875 64.796875 
L 19.671875 42.828125 
L 34.28125 42.828125 
Q 41.5 42.828125 45.03125 45.53125 
Q 48.578125 48.25 48.578125 53.8125 
Q 48.578125 59.328125 45.03125 62.0625 
Q 41.5 64.796875 34.28125 64.796875 
z
M 9.8125 72.90625 
L 35.015625 72.90625 
Q 46.296875 72.90625 52.390625 68.21875 
Q 58.5 63.53125 58.5 54.890625 
Q 58.5 48.1875 55.375 44.234375 
Q 52.25 40.28125 46.1875 39.3125 
Q 53.46875 37.75 57.5 32.78125 
Q 61.53125 27.828125 61.53125 20.40625 
Q 61.53125 10.640625 54.890625 5.3125 
Q 48.25 0 35.984375 0 
L 9.8125 0 
z
" id="DejaVuSans-42"/>
    </defs>
    <g transform="translate(160.834812 18.84)scale(0.2 -0.2)">
     <use xlink:href="#DejaVuSans-31"/>
     <use x="63.623047" xlink:href="#DejaVuSans-32"/>
     <use x="127.246094" xlink:href="#DejaVuSans-20"/>
     <use x="159.033203" xlink:href="#DejaVuSans-42"/>
     <use x="227.636719" xlink:href="#DejaVuSans-65"/>
     <use x="289.160156" xlink:href="#DejaVuSans-6e"/>
     <use x="352.539062" xlink:href="#DejaVuSans-74"/>
     <use x="391.748047" xlink:href="#DejaVuSans-20"/>
     <use x="423.535156" xlink:href="#DejaVuSans-63"/>
     <use x="478.515625" xlink:href="#DejaVuSans-69"/>
     <use x="506.298828" xlink:href="#DejaVuSans-67"/>
     <use x="569.775391" xlink:href="#DejaVuSans-61"/>
     <use x="631.054688" xlink:href="#DejaVuSans-72"/>
    </g>
   </g>
  </g>
 </g>
 <defs>
  <clipPath id="pb8d71b3993">
   <rect height="270.04" width="343.864" x="56.12" y="24.84"/>
  </clipPath>
 </defs>
</svg>
