<?xml version="1.0" encoding="utf-8" standalone="no"?>
<!DOCTYPE svg PUBLIC "-//W3C//DTD SVG 1.1//EN"
  "http://www.w3.org/Graphics/SVG/1.1/DTD/svg11.dtd">
<!-- Created with matplotlib (http://matplotlib.org/) -->
<svg height="345.6pt" version="1.1" viewBox="0 0 460.8 345.6" width="460.8pt" xmlns="http://www.w3.org/2000/svg" xmlns:xlink="http://www.w3.org/1999/xlink">
 <defs>
  <style type="text/css">
*{stroke-linecap:butt;stroke-linejoin:round;}
  </style>
 </defs>
 <g id="figure_1">
  <g id="patch_1">
   <path d="M 0 345.6 
L 460.8 345.6 
L 460.8 0 
L 0 0 
z
" style="fill:#ffffff;"/>
  </g>
  <g id="axes_1">
   <g id="patch_2">
    <path d="M 56.12 294.88 
L 399.984 294.88 
L 399.984 24.84 
L 56.12 24.84 
z
" style="fill:#ffffff;"/>
   </g>
   <g id="line2d_1">
    <path d="M 91.460924 294.88 
L 91.460924 289.637523 
L 103.164427 289.637523 
L 103.164427 284.395046 
L 107.832367 284.395046 
L 107.832367 279.152568 
L 112.696514 279.152568 
L 112.696514 273.910091 
L 116.01427 273.910091 
L 116.01427 268.667614 
L 119.018231 268.667614 
L 119.018231 263.425137 
L 120.870909 263.425137 
L 120.870909 258.18266 
L 122.723495 258.18266 
L 122.723495 252.940182 
L 124.133674 252.940182 
L 124.133674 247.697705 
L 125.436973 247.697705 
L 125.436973 242.455228 
L 126.447567 242.455228 
L 126.447567 237.212751 
L 127.402078 237.212751 
L 127.402078 231.970274 
L 128.563584 231.970274 
L 128.563584 226.727797 
L 129.675556 226.727797 
L 129.675556 221.485319 
L 130.720002 221.485319 
L 130.720002 216.242842 
L 131.447542 216.242842 
L 131.447542 211.000365 
L 132.392525 211.000365 
L 132.392525 205.757888 
L 133.093227 205.757888 
L 133.093227 200.515411 
L 133.916767 200.515411 
L 133.916767 195.272933 
L 134.720537 195.272933 
L 134.720537 190.030456 
L 135.590534 190.030456 
L 135.590534 184.787979 
L 136.402469 184.787979 
L 136.402469 179.545502 
L 158.482077 179.545502 
L 158.482077 174.303025 
L 160.410565 174.303025 
L 160.410565 169.060547 
L 161.005594 169.060547 
L 161.005594 163.81807 
L 161.558239 163.81807 
L 161.558239 158.575593 
L 162.079135 158.575593 
L 162.079135 153.333116 
L 162.644688 153.333116 
L 162.644688 148.090639 
L 163.222912 148.090639 
L 163.222912 142.848162 
L 163.706359 142.848162 
L 163.706359 137.605684 
L 164.176591 137.605684 
L 164.176591 132.363207 
L 164.66252 132.363207 
L 164.66252 127.12073 
L 165.295824 127.12073 
L 165.295824 121.878253 
L 165.775049 121.878253 
L 165.775049 116.635776 
L 166.23843 116.635776 
L 166.23843 111.393298 
L 166.764648 111.393298 
L 166.764648 106.150821 
L 167.283317 106.150821 
L 167.283317 100.908344 
L 167.6531 100.908344 
L 167.6531 95.665867 
L 168.074274 95.665867 
L 168.074274 90.42339 
L 168.409989 90.42339 
L 168.409989 85.180912 
L 168.852566 85.180912 
L 168.852566 79.938435 
L 169.207268 79.938435 
L 169.207268 74.695958 
L 169.592468 74.695958 
L 169.592468 69.453481 
L 169.996815 69.453481 
L 169.996815 64.211004 
L 170.322153 64.211004 
L 170.322153 58.968526 
L 170.645877 58.968526 
L 170.645877 53.726049 
L 170.991825 53.726049 
L 170.991825 48.483572 
L 171.292655 48.483572 
L 171.292655 43.241095 
L 171.632228 43.241095 
L 171.632228 37.998618 
L 171.915997 37.998618 
L 171.915997 32.756141 
L 172.257705 32.756141 
L 172.257705 27.513663 
L 333.429677 27.513663 
" style="fill:none;stroke:#f5deb3;stroke-linecap:square;stroke-width:6;"/>
   </g>
   <g id="line2d_2">
    <defs>
     <path d="M -0 7.778175 
L 7.778175 0 
L 0 -7.778175 
L -7.778175 -0 
z
" id="m52fecd37dc" style="stroke:#f5deb3;stroke-linejoin:miter;stroke-width:1.5;"/>
    </defs>
    <g>
     <use style="fill:#f5deb3;stroke:#f5deb3;stroke-linejoin:miter;stroke-width:1.5;" x="161.558239" xlink:href="#m52fecd37dc" y="158.575593"/>
     <use style="fill:#f5deb3;stroke:#f5deb3;stroke-linejoin:miter;stroke-width:1.5;" x="172.257705" xlink:href="#m52fecd37dc" y="32.756141"/>
     <use style="fill:#f5deb3;stroke:#f5deb3;stroke-linejoin:miter;stroke-width:1.5;" x="172.257705" xlink:href="#m52fecd37dc" y="27.513663"/>
     <use style="fill:#f5deb3;stroke:#f5deb3;stroke-linejoin:miter;stroke-width:1.5;" x="172.257705" xlink:href="#m52fecd37dc" y="27.513663"/>
     <use style="fill:#f5deb3;stroke:#f5deb3;stroke-linejoin:miter;stroke-width:1.5;" x="333.429677" xlink:href="#m52fecd37dc" y="27.513663"/>
    </g>
   </g>
   <g id="line2d_3">
    <path style="fill:none;stroke:#f5deb3;stroke-linecap:square;stroke-width:6;"/>
    <g/>
   </g>
   <g id="line2d_4">
    <path d="M 333.429677 27.513663 
L 363.933742 32.86099 
" style="fill:none;stroke:#f5deb3;stroke-linecap:square;stroke-width:6;"/>
    <g>
     <use style="fill:#f5deb3;stroke:#f5deb3;stroke-linejoin:miter;stroke-width:1.5;" x="333.429677" xlink:href="#m52fecd37dc" y="27.513663"/>
     <use style="fill:#f5deb3;stroke:#f5deb3;stroke-linejoin:miter;stroke-width:1.5;" x="363.933742" xlink:href="#m52fecd37dc" y="32.86099"/>
    </g>
   </g>
   <g id="matplotlib.axis_1">
    <g id="xtick_1">
     <g id="line2d_5">
      <path clip-path="url(#pc5f689075e)" d="M 56.12 294.88 
L 56.12 24.84 
" style="fill:none;stroke:#b0b0b0;stroke-linecap:square;stroke-width:0.8;"/>
     </g>
     <g id="line2d_6">
      <defs>
       <path d="M 0 0 
L 0 3.5 
" id="m706c8f3c3c" style="stroke:#000000;stroke-width:0.8;"/>
      </defs>
      <g>
       <use style="stroke:#000000;stroke-width:0.8;" x="56.12" xlink:href="#m706c8f3c3c" y="294.88"/>
      </g>
     </g>
     <g id="text_1">
      <!-- 0 -->
      <defs>
       <path d="M 31.78125 66.40625 
Q 24.171875 66.40625 20.328125 58.90625 
Q 16.5 51.421875 16.5 36.375 
Q 16.5 21.390625 20.328125 13.890625 
Q 24.171875 6.390625 31.78125 6.390625 
Q 39.453125 6.390625 43.28125 13.890625 
Q 47.125 21.390625 47.125 36.375 
Q 47.125 51.421875 43.28125 58.90625 
Q 39.453125 66.40625 31.78125 66.40625 
z
M 31.78125 74.21875 
Q 44.046875 74.21875 50.515625 64.515625 
Q 56.984375 54.828125 56.984375 36.375 
Q 56.984375 17.96875 50.515625 8.265625 
Q 44.046875 -1.421875 31.78125 -1.421875 
Q 19.53125 -1.421875 13.0625 8.265625 
Q 6.59375 17.96875 6.59375 36.375 
Q 6.59375 54.828125 13.0625 64.515625 
Q 19.53125 74.21875 31.78125 74.21875 
z
" id="DejaVuSans-30"/>
      </defs>
      <g transform="translate(49.7575 317.076875)scale(0.2 -0.2)">
       <use xlink:href="#DejaVuSans-30"/>
      </g>
     </g>
    </g>
    <g id="xtick_2">
     <g id="line2d_7">
      <path clip-path="url(#pc5f689075e)" d="M 135.351336 294.88 
L 135.351336 24.84 
" style="fill:none;stroke:#b0b0b0;stroke-linecap:square;stroke-width:0.8;"/>
     </g>
     <g id="line2d_8">
      <g>
       <use style="stroke:#000000;stroke-width:0.8;" x="135.351336" xlink:href="#m706c8f3c3c" y="294.88"/>
      </g>
     </g>
     <g id="text_2">
      <!-- 2 -->
      <defs>
       <path d="M 19.1875 8.296875 
L 53.609375 8.296875 
L 53.609375 0 
L 7.328125 0 
L 7.328125 8.296875 
Q 12.9375 14.109375 22.625 23.890625 
Q 32.328125 33.6875 34.8125 36.53125 
Q 39.546875 41.84375 41.421875 45.53125 
Q 43.3125 49.21875 43.3125 52.78125 
Q 43.3125 58.59375 39.234375 62.25 
Q 35.15625 65.921875 28.609375 65.921875 
Q 23.96875 65.921875 18.8125 64.3125 
Q 13.671875 62.703125 7.8125 59.421875 
L 7.8125 69.390625 
Q 13.765625 71.78125 18.9375 73 
Q 24.125 74.21875 28.421875 74.21875 
Q 39.75 74.21875 46.484375 68.546875 
Q 53.21875 62.890625 53.21875 53.421875 
Q 53.21875 48.921875 51.53125 44.890625 
Q 49.859375 40.875 45.40625 35.40625 
Q 44.1875 33.984375 37.640625 27.21875 
Q 31.109375 20.453125 19.1875 8.296875 
z
" id="DejaVuSans-32"/>
      </defs>
      <g transform="translate(128.988836 317.076875)scale(0.2 -0.2)">
       <use xlink:href="#DejaVuSans-32"/>
      </g>
     </g>
    </g>
    <g id="xtick_3">
     <g id="line2d_9">
      <path clip-path="url(#pc5f689075e)" d="M 214.582673 294.88 
L 214.582673 24.84 
" style="fill:none;stroke:#b0b0b0;stroke-linecap:square;stroke-width:0.8;"/>
     </g>
     <g id="line2d_10">
      <g>
       <use style="stroke:#000000;stroke-width:0.8;" x="214.582673" xlink:href="#m706c8f3c3c" y="294.88"/>
      </g>
     </g>
     <g id="text_3">
      <!-- 4 -->
      <defs>
       <path d="M 37.796875 64.3125 
L 12.890625 25.390625 
L 37.796875 25.390625 
z
M 35.203125 72.90625 
L 47.609375 72.90625 
L 47.609375 25.390625 
L 58.015625 25.390625 
L 58.015625 17.1875 
L 47.609375 17.1875 
L 47.609375 0 
L 37.796875 0 
L 37.796875 17.1875 
L 4.890625 17.1875 
L 4.890625 26.703125 
z
" id="DejaVuSans-34"/>
      </defs>
      <g transform="translate(208.220173 317.076875)scale(0.2 -0.2)">
       <use xlink:href="#DejaVuSans-34"/>
      </g>
     </g>
    </g>
    <g id="xtick_4">
     <g id="line2d_11">
      <path clip-path="url(#pc5f689075e)" d="M 293.814009 294.88 
L 293.814009 24.84 
" style="fill:none;stroke:#b0b0b0;stroke-linecap:square;stroke-width:0.8;"/>
     </g>
     <g id="line2d_12">
      <g>
       <use style="stroke:#000000;stroke-width:0.8;" x="293.814009" xlink:href="#m706c8f3c3c" y="294.88"/>
      </g>
     </g>
     <g id="text_4">
      <!-- 6 -->
      <defs>
       <path d="M 33.015625 40.375 
Q 26.375 40.375 22.484375 35.828125 
Q 18.609375 31.296875 18.609375 23.390625 
Q 18.609375 15.53125 22.484375 10.953125 
Q 26.375 6.390625 33.015625 6.390625 
Q 39.65625 6.390625 43.53125 10.953125 
Q 47.40625 15.53125 47.40625 23.390625 
Q 47.40625 31.296875 43.53125 35.828125 
Q 39.65625 40.375 33.015625 40.375 
z
M 52.59375 71.296875 
L 52.59375 62.3125 
Q 48.875 64.0625 45.09375 64.984375 
Q 41.3125 65.921875 37.59375 65.921875 
Q 27.828125 65.921875 22.671875 59.328125 
Q 17.53125 52.734375 16.796875 39.40625 
Q 19.671875 43.65625 24.015625 45.921875 
Q 28.375 48.1875 33.59375 48.1875 
Q 44.578125 48.1875 50.953125 41.515625 
Q 57.328125 34.859375 57.328125 23.390625 
Q 57.328125 12.15625 50.6875 5.359375 
Q 44.046875 -1.421875 33.015625 -1.421875 
Q 20.359375 -1.421875 13.671875 8.265625 
Q 6.984375 17.96875 6.984375 36.375 
Q 6.984375 53.65625 15.1875 63.9375 
Q 23.390625 74.21875 37.203125 74.21875 
Q 40.921875 74.21875 44.703125 73.484375 
Q 48.484375 72.75 52.59375 71.296875 
z
" id="DejaVuSans-36"/>
      </defs>
      <g transform="translate(287.451509 317.076875)scale(0.2 -0.2)">
       <use xlink:href="#DejaVuSans-36"/>
      </g>
     </g>
    </g>
    <g id="xtick_5">
     <g id="line2d_13">
      <path clip-path="url(#pc5f689075e)" d="M 373.045346 294.88 
L 373.045346 24.84 
" style="fill:none;stroke:#b0b0b0;stroke-linecap:square;stroke-width:0.8;"/>
     </g>
     <g id="line2d_14">
      <g>
       <use style="stroke:#000000;stroke-width:0.8;" x="373.045346" xlink:href="#m706c8f3c3c" y="294.88"/>
      </g>
     </g>
     <g id="text_5">
      <!-- 8 -->
      <defs>
       <path d="M 31.78125 34.625 
Q 24.75 34.625 20.71875 30.859375 
Q 16.703125 27.09375 16.703125 20.515625 
Q 16.703125 13.921875 20.71875 10.15625 
Q 24.75 6.390625 31.78125 6.390625 
Q 38.8125 6.390625 42.859375 10.171875 
Q 46.921875 13.96875 46.921875 20.515625 
Q 46.921875 27.09375 42.890625 30.859375 
Q 38.875 34.625 31.78125 34.625 
z
M 21.921875 38.8125 
Q 15.578125 40.375 12.03125 44.71875 
Q 8.5 49.078125 8.5 55.328125 
Q 8.5 64.0625 14.71875 69.140625 
Q 20.953125 74.21875 31.78125 74.21875 
Q 42.671875 74.21875 48.875 69.140625 
Q 55.078125 64.0625 55.078125 55.328125 
Q 55.078125 49.078125 51.53125 44.71875 
Q 48 40.375 41.703125 38.8125 
Q 48.828125 37.15625 52.796875 32.3125 
Q 56.78125 27.484375 56.78125 20.515625 
Q 56.78125 9.90625 50.3125 4.234375 
Q 43.84375 -1.421875 31.78125 -1.421875 
Q 19.734375 -1.421875 13.25 4.234375 
Q 6.78125 9.90625 6.78125 20.515625 
Q 6.78125 27.484375 10.78125 32.3125 
Q 14.796875 37.15625 21.921875 38.8125 
z
M 18.3125 54.390625 
Q 18.3125 48.734375 21.84375 45.5625 
Q 25.390625 42.390625 31.78125 42.390625 
Q 38.140625 42.390625 41.71875 45.5625 
Q 45.3125 48.734375 45.3125 54.390625 
Q 45.3125 60.0625 41.71875 63.234375 
Q 38.140625 66.40625 31.78125 66.40625 
Q 25.390625 66.40625 21.84375 63.234375 
Q 18.3125 60.0625 18.3125 54.390625 
z
" id="DejaVuSans-38"/>
      </defs>
      <g transform="translate(366.682846 317.076875)scale(0.2 -0.2)">
       <use xlink:href="#DejaVuSans-38"/>
      </g>
     </g>
    </g>
    <g id="text_6">
     <!-- log10(# f-evals / dimension) -->
     <defs>
      <path d="M 9.421875 75.984375 
L 18.40625 75.984375 
L 18.40625 0 
L 9.421875 0 
z
" id="DejaVuSans-6c"/>
      <path d="M 30.609375 48.390625 
Q 23.390625 48.390625 19.1875 42.75 
Q 14.984375 37.109375 14.984375 27.296875 
Q 14.984375 17.484375 19.15625 11.84375 
Q 23.34375 6.203125 30.609375 6.203125 
Q 37.796875 6.203125 41.984375 11.859375 
Q 46.1875 17.53125 46.1875 27.296875 
Q 46.1875 37.015625 41.984375 42.703125 
Q 37.796875 48.390625 30.609375 48.390625 
z
M 30.609375 56 
Q 42.328125 56 49.015625 48.375 
Q 55.71875 40.765625 55.71875 27.296875 
Q 55.71875 13.875 49.015625 6.21875 
Q 42.328125 -1.421875 30.609375 -1.421875 
Q 18.84375 -1.421875 12.171875 6.21875 
Q 5.515625 13.875 5.515625 27.296875 
Q 5.515625 40.765625 12.171875 48.375 
Q 18.84375 56 30.609375 56 
z
" id="DejaVuSans-6f"/>
      <path d="M 45.40625 27.984375 
Q 45.40625 37.75 41.375 43.109375 
Q 37.359375 48.484375 30.078125 48.484375 
Q 22.859375 48.484375 18.828125 43.109375 
Q 14.796875 37.75 14.796875 27.984375 
Q 14.796875 18.265625 18.828125 12.890625 
Q 22.859375 7.515625 30.078125 7.515625 
Q 37.359375 7.515625 41.375 12.890625 
Q 45.40625 18.265625 45.40625 27.984375 
z
M 54.390625 6.78125 
Q 54.390625 -7.171875 48.1875 -13.984375 
Q 42 -20.796875 29.203125 -20.796875 
Q 24.46875 -20.796875 20.265625 -20.09375 
Q 16.0625 -19.390625 12.109375 -17.921875 
L 12.109375 -9.1875 
Q 16.0625 -11.328125 19.921875 -12.34375 
Q 23.78125 -13.375 27.78125 -13.375 
Q 36.625 -13.375 41.015625 -8.765625 
Q 45.40625 -4.15625 45.40625 5.171875 
L 45.40625 9.625 
Q 42.625 4.78125 38.28125 2.390625 
Q 33.9375 0 27.875 0 
Q 17.828125 0 11.671875 7.65625 
Q 5.515625 15.328125 5.515625 27.984375 
Q 5.515625 40.671875 11.671875 48.328125 
Q 17.828125 56 27.875 56 
Q 33.9375 56 38.28125 53.609375 
Q 42.625 51.21875 45.40625 46.390625 
L 45.40625 54.6875 
L 54.390625 54.6875 
z
" id="DejaVuSans-67"/>
      <path d="M 12.40625 8.296875 
L 28.515625 8.296875 
L 28.515625 63.921875 
L 10.984375 60.40625 
L 10.984375 69.390625 
L 28.421875 72.90625 
L 38.28125 72.90625 
L 38.28125 8.296875 
L 54.390625 8.296875 
L 54.390625 0 
L 12.40625 0 
z
" id="DejaVuSans-31"/>
      <path d="M 31 75.875 
Q 24.46875 64.65625 21.28125 53.65625 
Q 18.109375 42.671875 18.109375 31.390625 
Q 18.109375 20.125 21.3125 9.0625 
Q 24.515625 -2 31 -13.1875 
L 23.1875 -13.1875 
Q 15.875 -1.703125 12.234375 9.375 
Q 8.59375 20.453125 8.59375 31.390625 
Q 8.59375 42.28125 12.203125 53.3125 
Q 15.828125 64.359375 23.1875 75.875 
z
" id="DejaVuSans-28"/>
      <path d="M 51.125 44 
L 36.921875 44 
L 32.8125 27.6875 
L 47.125 27.6875 
z
M 43.796875 71.78125 
L 38.71875 51.515625 
L 52.984375 51.515625 
L 58.109375 71.78125 
L 65.921875 71.78125 
L 60.890625 51.515625 
L 76.125 51.515625 
L 76.125 44 
L 58.984375 44 
L 54.984375 27.6875 
L 70.515625 27.6875 
L 70.515625 20.21875 
L 53.078125 20.21875 
L 48 0 
L 40.1875 0 
L 45.21875 20.21875 
L 30.90625 20.21875 
L 25.875 0 
L 18.015625 0 
L 23.09375 20.21875 
L 7.71875 20.21875 
L 7.71875 27.6875 
L 24.90625 27.6875 
L 29 44 
L 13.28125 44 
L 13.28125 51.515625 
L 30.90625 51.515625 
L 35.890625 71.78125 
z
" id="DejaVuSans-23"/>
      <path id="DejaVuSans-20"/>
      <path d="M 37.109375 75.984375 
L 37.109375 68.5 
L 28.515625 68.5 
Q 23.6875 68.5 21.796875 66.546875 
Q 19.921875 64.59375 19.921875 59.515625 
L 19.921875 54.6875 
L 34.71875 54.6875 
L 34.71875 47.703125 
L 19.921875 47.703125 
L 19.921875 0 
L 10.890625 0 
L 10.890625 47.703125 
L 2.296875 47.703125 
L 2.296875 54.6875 
L 10.890625 54.6875 
L 10.890625 58.5 
Q 10.890625 67.625 15.140625 71.796875 
Q 19.390625 75.984375 28.609375 75.984375 
z
" id="DejaVuSans-66"/>
      <path d="M 4.890625 31.390625 
L 31.203125 31.390625 
L 31.203125 23.390625 
L 4.890625 23.390625 
z
" id="DejaVuSans-2d"/>
      <path d="M 56.203125 29.59375 
L 56.203125 25.203125 
L 14.890625 25.203125 
Q 15.484375 15.921875 20.484375 11.0625 
Q 25.484375 6.203125 34.421875 6.203125 
Q 39.59375 6.203125 44.453125 7.46875 
Q 49.3125 8.734375 54.109375 11.28125 
L 54.109375 2.78125 
Q 49.265625 0.734375 44.1875 -0.34375 
Q 39.109375 -1.421875 33.890625 -1.421875 
Q 20.796875 -1.421875 13.15625 6.1875 
Q 5.515625 13.8125 5.515625 26.8125 
Q 5.515625 40.234375 12.765625 48.109375 
Q 20.015625 56 32.328125 56 
Q 43.359375 56 49.78125 48.890625 
Q 56.203125 41.796875 56.203125 29.59375 
z
M 47.21875 32.234375 
Q 47.125 39.59375 43.09375 43.984375 
Q 39.0625 48.390625 32.421875 48.390625 
Q 24.90625 48.390625 20.390625 44.140625 
Q 15.875 39.890625 15.1875 32.171875 
z
" id="DejaVuSans-65"/>
      <path d="M 2.984375 54.6875 
L 12.5 54.6875 
L 29.59375 8.796875 
L 46.6875 54.6875 
L 56.203125 54.6875 
L 35.6875 0 
L 23.484375 0 
z
" id="DejaVuSans-76"/>
      <path d="M 34.28125 27.484375 
Q 23.390625 27.484375 19.1875 25 
Q 14.984375 22.515625 14.984375 16.5 
Q 14.984375 11.71875 18.140625 8.90625 
Q 21.296875 6.109375 26.703125 6.109375 
Q 34.1875 6.109375 38.703125 11.40625 
Q 43.21875 16.703125 43.21875 25.484375 
L 43.21875 27.484375 
z
M 52.203125 31.203125 
L 52.203125 0 
L 43.21875 0 
L 43.21875 8.296875 
Q 40.140625 3.328125 35.546875 0.953125 
Q 30.953125 -1.421875 24.3125 -1.421875 
Q 15.921875 -1.421875 10.953125 3.296875 
Q 6 8.015625 6 15.921875 
Q 6 25.140625 12.171875 29.828125 
Q 18.359375 34.515625 30.609375 34.515625 
L 43.21875 34.515625 
L 43.21875 35.40625 
Q 43.21875 41.609375 39.140625 45 
Q 35.0625 48.390625 27.6875 48.390625 
Q 23 48.390625 18.546875 47.265625 
Q 14.109375 46.140625 10.015625 43.890625 
L 10.015625 52.203125 
Q 14.9375 54.109375 19.578125 55.046875 
Q 24.21875 56 28.609375 56 
Q 40.484375 56 46.34375 49.84375 
Q 52.203125 43.703125 52.203125 31.203125 
z
" id="DejaVuSans-61"/>
      <path d="M 44.28125 53.078125 
L 44.28125 44.578125 
Q 40.484375 46.53125 36.375 47.5 
Q 32.28125 48.484375 27.875 48.484375 
Q 21.1875 48.484375 17.84375 46.4375 
Q 14.5 44.390625 14.5 40.28125 
Q 14.5 37.15625 16.890625 35.375 
Q 19.28125 33.59375 26.515625 31.984375 
L 29.59375 31.296875 
Q 39.15625 29.25 43.1875 25.515625 
Q 47.21875 21.78125 47.21875 15.09375 
Q 47.21875 7.46875 41.1875 3.015625 
Q 35.15625 -1.421875 24.609375 -1.421875 
Q 20.21875 -1.421875 15.453125 -0.5625 
Q 10.6875 0.296875 5.421875 2 
L 5.421875 11.28125 
Q 10.40625 8.6875 15.234375 7.390625 
Q 20.0625 6.109375 24.8125 6.109375 
Q 31.15625 6.109375 34.5625 8.28125 
Q 37.984375 10.453125 37.984375 14.40625 
Q 37.984375 18.0625 35.515625 20.015625 
Q 33.0625 21.96875 24.703125 23.78125 
L 21.578125 24.515625 
Q 13.234375 26.265625 9.515625 29.90625 
Q 5.8125 33.546875 5.8125 39.890625 
Q 5.8125 47.609375 11.28125 51.796875 
Q 16.75 56 26.8125 56 
Q 31.78125 56 36.171875 55.265625 
Q 40.578125 54.546875 44.28125 53.078125 
z
" id="DejaVuSans-73"/>
      <path d="M 25.390625 72.90625 
L 33.6875 72.90625 
L 8.296875 -9.28125 
L 0 -9.28125 
z
" id="DejaVuSans-2f"/>
      <path d="M 45.40625 46.390625 
L 45.40625 75.984375 
L 54.390625 75.984375 
L 54.390625 0 
L 45.40625 0 
L 45.40625 8.203125 
Q 42.578125 3.328125 38.25 0.953125 
Q 33.9375 -1.421875 27.875 -1.421875 
Q 17.96875 -1.421875 11.734375 6.484375 
Q 5.515625 14.40625 5.515625 27.296875 
Q 5.515625 40.1875 11.734375 48.09375 
Q 17.96875 56 27.875 56 
Q 33.9375 56 38.25 53.625 
Q 42.578125 51.265625 45.40625 46.390625 
z
M 14.796875 27.296875 
Q 14.796875 17.390625 18.875 11.75 
Q 22.953125 6.109375 30.078125 6.109375 
Q 37.203125 6.109375 41.296875 11.75 
Q 45.40625 17.390625 45.40625 27.296875 
Q 45.40625 37.203125 41.296875 42.84375 
Q 37.203125 48.484375 30.078125 48.484375 
Q 22.953125 48.484375 18.875 42.84375 
Q 14.796875 37.203125 14.796875 27.296875 
z
" id="DejaVuSans-64"/>
      <path d="M 9.421875 54.6875 
L 18.40625 54.6875 
L 18.40625 0 
L 9.421875 0 
z
M 9.421875 75.984375 
L 18.40625 75.984375 
L 18.40625 64.59375 
L 9.421875 64.59375 
z
" id="DejaVuSans-69"/>
      <path d="M 52 44.1875 
Q 55.375 50.25 60.0625 53.125 
Q 64.75 56 71.09375 56 
Q 79.640625 56 84.28125 50.015625 
Q 88.921875 44.046875 88.921875 33.015625 
L 88.921875 0 
L 79.890625 0 
L 79.890625 32.71875 
Q 79.890625 40.578125 77.09375 44.375 
Q 74.3125 48.1875 68.609375 48.1875 
Q 61.625 48.1875 57.5625 43.546875 
Q 53.515625 38.921875 53.515625 30.90625 
L 53.515625 0 
L 44.484375 0 
L 44.484375 32.71875 
Q 44.484375 40.625 41.703125 44.40625 
Q 38.921875 48.1875 33.109375 48.1875 
Q 26.21875 48.1875 22.15625 43.53125 
Q 18.109375 38.875 18.109375 30.90625 
L 18.109375 0 
L 9.078125 0 
L 9.078125 54.6875 
L 18.109375 54.6875 
L 18.109375 46.1875 
Q 21.1875 51.21875 25.484375 53.609375 
Q 29.78125 56 35.6875 56 
Q 41.65625 56 45.828125 52.96875 
Q 50 49.953125 52 44.1875 
z
" id="DejaVuSans-6d"/>
      <path d="M 54.890625 33.015625 
L 54.890625 0 
L 45.90625 0 
L 45.90625 32.71875 
Q 45.90625 40.484375 42.875 44.328125 
Q 39.84375 48.1875 33.796875 48.1875 
Q 26.515625 48.1875 22.3125 43.546875 
Q 18.109375 38.921875 18.109375 30.90625 
L 18.109375 0 
L 9.078125 0 
L 9.078125 54.6875 
L 18.109375 54.6875 
L 18.109375 46.1875 
Q 21.34375 51.125 25.703125 53.5625 
Q 30.078125 56 35.796875 56 
Q 45.21875 56 50.046875 50.171875 
Q 54.890625 44.34375 54.890625 33.015625 
z
" id="DejaVuSans-6e"/>
      <path d="M 8.015625 75.875 
L 15.828125 75.875 
Q 23.140625 64.359375 26.78125 53.3125 
Q 30.421875 42.28125 30.421875 31.390625 
Q 30.421875 20.453125 26.78125 9.375 
Q 23.140625 -1.703125 15.828125 -13.1875 
L 8.015625 -13.1875 
Q 14.5 -2 17.703125 9.0625 
Q 20.90625 20.125 20.90625 31.390625 
Q 20.90625 42.671875 17.703125 53.65625 
Q 14.5 64.65625 8.015625 75.875 
z
" id="DejaVuSans-29"/>
     </defs>
     <g transform="translate(107.211219 338.153594)scale(0.17 -0.17)">
      <use xlink:href="#DejaVuSans-6c"/>
      <use x="27.783203" xlink:href="#DejaVuSans-6f"/>
      <use x="88.964844" xlink:href="#DejaVuSans-67"/>
      <use x="152.441406" xlink:href="#DejaVuSans-31"/>
      <use x="216.064453" xlink:href="#DejaVuSans-30"/>
      <use x="279.6875" xlink:href="#DejaVuSans-28"/>
      <use x="318.701172" xlink:href="#DejaVuSans-23"/>
      <use x="402.490234" xlink:href="#DejaVuSans-20"/>
      <use x="434.277344" xlink:href="#DejaVuSans-66"/>
      <use x="469.404297" xlink:href="#DejaVuSans-2d"/>
      <use x="505.488281" xlink:href="#DejaVuSans-65"/>
      <use x="567.011719" xlink:href="#DejaVuSans-76"/>
      <use x="626.191406" xlink:href="#DejaVuSans-61"/>
      <use x="687.470703" xlink:href="#DejaVuSans-6c"/>
      <use x="715.253906" xlink:href="#DejaVuSans-73"/>
      <use x="767.353516" xlink:href="#DejaVuSans-20"/>
      <use x="799.140625" xlink:href="#DejaVuSans-2f"/>
      <use x="832.832031" xlink:href="#DejaVuSans-20"/>
      <use x="864.619141" xlink:href="#DejaVuSans-64"/>
      <use x="928.095703" xlink:href="#DejaVuSans-69"/>
      <use x="955.878906" xlink:href="#DejaVuSans-6d"/>
      <use x="1053.291016" xlink:href="#DejaVuSans-65"/>
      <use x="1114.814453" xlink:href="#DejaVuSans-6e"/>
      <use x="1178.193359" xlink:href="#DejaVuSans-73"/>
      <use x="1230.292969" xlink:href="#DejaVuSans-69"/>
      <use x="1258.076172" xlink:href="#DejaVuSans-6f"/>
      <use x="1319.257812" xlink:href="#DejaVuSans-6e"/>
      <use x="1382.636719" xlink:href="#DejaVuSans-29"/>
     </g>
    </g>
   </g>
   <g id="matplotlib.axis_2">
    <g id="ytick_1">
     <g id="line2d_15">
      <path clip-path="url(#pc5f689075e)" d="M 56.12 294.88 
L 399.984 294.88 
" style="fill:none;stroke:#b0b0b0;stroke-linecap:square;stroke-width:0.8;"/>
     </g>
     <g id="line2d_16">
      <defs>
       <path d="M 0 0 
L -3.5 0 
" id="mf263e58e18" style="stroke:#000000;stroke-width:0.8;"/>
      </defs>
      <g>
       <use style="stroke:#000000;stroke-width:0.8;" x="56.12" xlink:href="#mf263e58e18" y="294.88"/>
      </g>
     </g>
     <g id="text_7">
      <!-- 0.0 -->
      <defs>
       <path d="M 10.6875 12.40625 
L 21 12.40625 
L 21 0 
L 10.6875 0 
z
" id="DejaVuSans-2e"/>
      </defs>
      <g transform="translate(23.675 300.95875)scale(0.16 -0.16)">
       <use xlink:href="#DejaVuSans-30"/>
       <use x="63.623047" xlink:href="#DejaVuSans-2e"/>
       <use x="95.410156" xlink:href="#DejaVuSans-30"/>
      </g>
     </g>
    </g>
    <g id="ytick_2">
     <g id="line2d_17">
      <path clip-path="url(#pc5f689075e)" d="M 56.12 241.406733 
L 399.984 241.406733 
" style="fill:none;stroke:#b0b0b0;stroke-linecap:square;stroke-width:0.8;"/>
     </g>
     <g id="line2d_18">
      <g>
       <use style="stroke:#000000;stroke-width:0.8;" x="56.12" xlink:href="#mf263e58e18" y="241.406733"/>
      </g>
     </g>
     <g id="text_8">
      <!-- 0.2 -->
      <g transform="translate(23.675 247.485483)scale(0.16 -0.16)">
       <use xlink:href="#DejaVuSans-30"/>
       <use x="63.623047" xlink:href="#DejaVuSans-2e"/>
       <use x="95.410156" xlink:href="#DejaVuSans-32"/>
      </g>
     </g>
    </g>
    <g id="ytick_3">
     <g id="line2d_19">
      <path clip-path="url(#pc5f689075e)" d="M 56.12 187.933465 
L 399.984 187.933465 
" style="fill:none;stroke:#b0b0b0;stroke-linecap:square;stroke-width:0.8;"/>
     </g>
     <g id="line2d_20">
      <g>
       <use style="stroke:#000000;stroke-width:0.8;" x="56.12" xlink:href="#mf263e58e18" y="187.933465"/>
      </g>
     </g>
     <g id="text_9">
      <!-- 0.4 -->
      <g transform="translate(23.675 194.012215)scale(0.16 -0.16)">
       <use xlink:href="#DejaVuSans-30"/>
       <use x="63.623047" xlink:href="#DejaVuSans-2e"/>
       <use x="95.410156" xlink:href="#DejaVuSans-34"/>
      </g>
     </g>
    </g>
    <g id="ytick_4">
     <g id="line2d_21">
      <path clip-path="url(#pc5f689075e)" d="M 56.12 134.460198 
L 399.984 134.460198 
" style="fill:none;stroke:#b0b0b0;stroke-linecap:square;stroke-width:0.8;"/>
     </g>
     <g id="line2d_22">
      <g>
       <use style="stroke:#000000;stroke-width:0.8;" x="56.12" xlink:href="#mf263e58e18" y="134.460198"/>
      </g>
     </g>
     <g id="text_10">
      <!-- 0.6 -->
      <g transform="translate(23.675 140.538948)scale(0.16 -0.16)">
       <use xlink:href="#DejaVuSans-30"/>
       <use x="63.623047" xlink:href="#DejaVuSans-2e"/>
       <use x="95.410156" xlink:href="#DejaVuSans-36"/>
      </g>
     </g>
    </g>
    <g id="ytick_5">
     <g id="line2d_23">
      <path clip-path="url(#pc5f689075e)" d="M 56.12 80.986931 
L 399.984 80.986931 
" style="fill:none;stroke:#b0b0b0;stroke-linecap:square;stroke-width:0.8;"/>
     </g>
     <g id="line2d_24">
      <g>
       <use style="stroke:#000000;stroke-width:0.8;" x="56.12" xlink:href="#mf263e58e18" y="80.986931"/>
      </g>
     </g>
     <g id="text_11">
      <!-- 0.8 -->
      <g transform="translate(23.675 87.065681)scale(0.16 -0.16)">
       <use xlink:href="#DejaVuSans-30"/>
       <use x="63.623047" xlink:href="#DejaVuSans-2e"/>
       <use x="95.410156" xlink:href="#DejaVuSans-38"/>
      </g>
     </g>
    </g>
    <g id="ytick_6">
     <g id="line2d_25">
      <path clip-path="url(#pc5f689075e)" d="M 56.12 27.513663 
L 399.984 27.513663 
" style="fill:none;stroke:#b0b0b0;stroke-linecap:square;stroke-width:0.8;"/>
     </g>
     <g id="line2d_26">
      <g>
       <use style="stroke:#000000;stroke-width:0.8;" x="56.12" xlink:href="#mf263e58e18" y="27.513663"/>
      </g>
     </g>
     <g id="text_12">
      <!-- 1.0 -->
      <g transform="translate(23.675 33.592413)scale(0.16 -0.16)">
       <use xlink:href="#DejaVuSans-31"/>
       <use x="63.623047" xlink:href="#DejaVuSans-2e"/>
       <use x="95.410156" xlink:href="#DejaVuSans-30"/>
      </g>
     </g>
    </g>
    <g id="text_13">
     <!-- Fraction of function,target pairs -->
     <defs>
      <path d="M 9.8125 72.90625 
L 51.703125 72.90625 
L 51.703125 64.59375 
L 19.671875 64.59375 
L 19.671875 43.109375 
L 48.578125 43.109375 
L 48.578125 34.8125 
L 19.671875 34.8125 
L 19.671875 0 
L 9.8125 0 
z
" id="DejaVuSans-46"/>
      <path d="M 41.109375 46.296875 
Q 39.59375 47.171875 37.8125 47.578125 
Q 36.03125 48 33.890625 48 
Q 26.265625 48 22.1875 43.046875 
Q 18.109375 38.09375 18.109375 28.8125 
L 18.109375 0 
L 9.078125 0 
L 9.078125 54.6875 
L 18.109375 54.6875 
L 18.109375 46.1875 
Q 20.953125 51.171875 25.484375 53.578125 
Q 30.03125 56 36.53125 56 
Q 37.453125 56 38.578125 55.875 
Q 39.703125 55.765625 41.0625 55.515625 
z
" id="DejaVuSans-72"/>
      <path d="M 48.78125 52.59375 
L 48.78125 44.1875 
Q 44.96875 46.296875 41.140625 47.34375 
Q 37.3125 48.390625 33.40625 48.390625 
Q 24.65625 48.390625 19.8125 42.84375 
Q 14.984375 37.3125 14.984375 27.296875 
Q 14.984375 17.28125 19.8125 11.734375 
Q 24.65625 6.203125 33.40625 6.203125 
Q 37.3125 6.203125 41.140625 7.25 
Q 44.96875 8.296875 48.78125 10.40625 
L 48.78125 2.09375 
Q 45.015625 0.34375 40.984375 -0.53125 
Q 36.96875 -1.421875 32.421875 -1.421875 
Q 20.0625 -1.421875 12.78125 6.34375 
Q 5.515625 14.109375 5.515625 27.296875 
Q 5.515625 40.671875 12.859375 48.328125 
Q 20.21875 56 33.015625 56 
Q 37.15625 56 41.109375 55.140625 
Q 45.0625 54.296875 48.78125 52.59375 
z
" id="DejaVuSans-63"/>
      <path d="M 18.3125 70.21875 
L 18.3125 54.6875 
L 36.8125 54.6875 
L 36.8125 47.703125 
L 18.3125 47.703125 
L 18.3125 18.015625 
Q 18.3125 11.328125 20.140625 9.421875 
Q 21.96875 7.515625 27.59375 7.515625 
L 36.8125 7.515625 
L 36.8125 0 
L 27.59375 0 
Q 17.1875 0 13.234375 3.875 
Q 9.28125 7.765625 9.28125 18.015625 
L 9.28125 47.703125 
L 2.6875 47.703125 
L 2.6875 54.6875 
L 9.28125 54.6875 
L 9.28125 70.21875 
z
" id="DejaVuSans-74"/>
      <path d="M 8.5 21.578125 
L 8.5 54.6875 
L 17.484375 54.6875 
L 17.484375 21.921875 
Q 17.484375 14.15625 20.5 10.265625 
Q 23.53125 6.390625 29.59375 6.390625 
Q 36.859375 6.390625 41.078125 11.03125 
Q 45.3125 15.671875 45.3125 23.6875 
L 45.3125 54.6875 
L 54.296875 54.6875 
L 54.296875 0 
L 45.3125 0 
L 45.3125 8.40625 
Q 42.046875 3.421875 37.71875 1 
Q 33.40625 -1.421875 27.6875 -1.421875 
Q 18.265625 -1.421875 13.375 4.4375 
Q 8.5 10.296875 8.5 21.578125 
z
M 31.109375 56 
z
" id="DejaVuSans-75"/>
      <path d="M 11.71875 12.40625 
L 22.015625 12.40625 
L 22.015625 4 
L 14.015625 -11.625 
L 7.71875 -11.625 
L 11.71875 4 
z
" id="DejaVuSans-2c"/>
      <path d="M 18.109375 8.203125 
L 18.109375 -20.796875 
L 9.078125 -20.796875 
L 9.078125 54.6875 
L 18.109375 54.6875 
L 18.109375 46.390625 
Q 20.953125 51.265625 25.265625 53.625 
Q 29.59375 56 35.59375 56 
Q 45.5625 56 51.78125 48.09375 
Q 58.015625 40.1875 58.015625 27.296875 
Q 58.015625 14.40625 51.78125 6.484375 
Q 45.5625 -1.421875 35.59375 -1.421875 
Q 29.59375 -1.421875 25.265625 0.953125 
Q 20.953125 3.328125 18.109375 8.203125 
z
M 48.6875 27.296875 
Q 48.6875 37.203125 44.609375 42.84375 
Q 40.53125 48.484375 33.40625 48.484375 
Q 26.265625 48.484375 22.1875 42.84375 
Q 18.109375 37.203125 18.109375 27.296875 
Q 18.109375 17.390625 22.1875 11.75 
Q 26.265625 6.109375 33.40625 6.109375 
Q 40.53125 6.109375 44.609375 11.75 
Q 48.6875 17.390625 48.6875 27.296875 
z
" id="DejaVuSans-70"/>
     </defs>
     <g transform="translate(16.139531 294.999375)rotate(-90)scale(0.17 -0.17)">
      <use xlink:href="#DejaVuSans-46"/>
      <use x="57.410156" xlink:href="#DejaVuSans-72"/>
      <use x="98.523438" xlink:href="#DejaVuSans-61"/>
      <use x="159.802734" xlink:href="#DejaVuSans-63"/>
      <use x="214.783203" xlink:href="#DejaVuSans-74"/>
      <use x="253.992188" xlink:href="#DejaVuSans-69"/>
      <use x="281.775391" xlink:href="#DejaVuSans-6f"/>
      <use x="342.957031" xlink:href="#DejaVuSans-6e"/>
      <use x="406.335938" xlink:href="#DejaVuSans-20"/>
      <use x="438.123047" xlink:href="#DejaVuSans-6f"/>
      <use x="499.304688" xlink:href="#DejaVuSans-66"/>
      <use x="534.509766" xlink:href="#DejaVuSans-20"/>
      <use x="566.296875" xlink:href="#DejaVuSans-66"/>
      <use x="601.501953" xlink:href="#DejaVuSans-75"/>
      <use x="664.880859" xlink:href="#DejaVuSans-6e"/>
      <use x="728.259766" xlink:href="#DejaVuSans-63"/>
      <use x="783.240234" xlink:href="#DejaVuSans-74"/>
      <use x="822.449219" xlink:href="#DejaVuSans-69"/>
      <use x="850.232422" xlink:href="#DejaVuSans-6f"/>
      <use x="911.414062" xlink:href="#DejaVuSans-6e"/>
      <use x="974.792969" xlink:href="#DejaVuSans-2c"/>
      <use x="1006.580078" xlink:href="#DejaVuSans-74"/>
      <use x="1045.789062" xlink:href="#DejaVuSans-61"/>
      <use x="1107.068359" xlink:href="#DejaVuSans-72"/>
      <use x="1148.166016" xlink:href="#DejaVuSans-67"/>
      <use x="1211.642578" xlink:href="#DejaVuSans-65"/>
      <use x="1273.166016" xlink:href="#DejaVuSans-74"/>
      <use x="1312.375" xlink:href="#DejaVuSans-20"/>
      <use x="1344.162109" xlink:href="#DejaVuSans-70"/>
      <use x="1407.638672" xlink:href="#DejaVuSans-61"/>
      <use x="1468.917969" xlink:href="#DejaVuSans-69"/>
      <use x="1496.701172" xlink:href="#DejaVuSans-72"/>
      <use x="1537.814453" xlink:href="#DejaVuSans-73"/>
     </g>
    </g>
   </g>
   <g id="line2d_27">
    <defs>
     <path d="M 0 1.5 
C 0.397805 1.5 0.77937 1.341951 1.06066 1.06066 
C 1.341951 0.77937 1.5 0.397805 1.5 0 
C 1.5 -0.397805 1.341951 -0.77937 1.06066 -1.06066 
C 0.77937 -1.341951 0.397805 -1.5 0 -1.5 
C -0.397805 -1.5 -0.77937 -1.341951 -1.06066 -1.06066 
C -1.341951 -0.77937 -1.5 -0.397805 -1.5 0 
C -1.5 0.397805 -1.341951 0.77937 -1.06066 1.06066 
C -0.77937 1.341951 -0.397805 1.5 0 1.5 
z
" id="mc7503a113e" style="stroke:#f5deb3;"/>
    </defs>
    <g>
     <use style="fill:#f5deb3;stroke:#f5deb3;" x="172.257705" xlink:href="#mc7503a113e" y="27.513663"/>
     <use style="fill:#f5deb3;stroke:#f5deb3;" x="172.257705" xlink:href="#mc7503a113e" y="27.513663"/>
    </g>
   </g>
   <g id="line2d_28">
    <defs>
     <path d="M 0 1.5 
C 0.397805 1.5 0.77937 1.341951 1.06066 1.06066 
C 1.341951 0.77937 1.5 0.397805 1.5 0 
C 1.5 -0.397805 1.341951 -0.77937 1.06066 -1.06066 
C 0.77937 -1.341951 0.397805 -1.5 0 -1.5 
C -0.397805 -1.5 -0.77937 -1.341951 -1.06066 -1.06066 
C -1.341951 -0.77937 -1.5 -0.397805 -1.5 0 
C -1.5 0.397805 -1.341951 0.77937 -1.06066 1.06066 
C -0.77937 1.341951 -0.397805 1.5 0 1.5 
z
" id="m971c11e61b" style="stroke:#000080;"/>
    </defs>
    <g>
     <use style="fill:#000080;stroke:#000080;" x="366.815671" xlink:href="#m971c11e61b" y="95.665867"/>
     <use style="fill:#000080;stroke:#000080;" x="366.815671" xlink:href="#m971c11e61b" y="95.665867"/>
    </g>
   </g>
   <g id="line2d_29">
    <path d="M 137.193273 294.88 
L 137.193273 294.355752 
L 139.024527 294.355752 
L 139.024527 293.831505 
L 140.792711 293.831505 
L 140.792711 293.307257 
L 141.384341 293.307257 
L 141.493042 292.258761 
L 142.003116 292.258761 
L 142.003116 291.734514 
L 143.122987 291.734514 
L 143.122987 291.210266 
L 144.039944 291.210266 
L 144.039944 290.686018 
L 144.369037 290.686018 
L 144.369037 290.161771 
L 144.80157 290.161771 
L 144.80157 289.113275 
L 145.048133 289.113275 
L 145.048133 288.589027 
L 146.321752 288.589027 
L 146.385289 287.540532 
L 146.858888 287.540532 
L 146.858888 287.016284 
L 147.233775 287.016284 
L 147.259627 285.443541 
L 147.439516 285.443541 
L 147.532997 283.870798 
L 147.901927 283.870798 
L 147.935077 281.773807 
L 148.91664 281.773807 
L 148.91664 280.725312 
L 149.126505 280.725312 
L 149.126505 280.201064 
L 150.269684 280.201064 
L 150.356213 279.152568 
L 150.485197 279.152568 
L 150.535097 276.53133 
L 151.422929 276.53133 
L 151.476926 275.482834 
L 151.624551 275.482834 
L 151.624551 274.958587 
L 152.52908 274.958587 
L 152.52908 274.434339 
L 152.661693 274.434339 
L 152.661693 273.910091 
L 154.666453 273.910091 
L 154.666453 273.385844 
L 156.05348 273.385844 
L 156.05348 272.861596 
L 156.885282 272.861596 
L 156.963843 271.8131 
L 157.758423 271.8131 
L 157.758423 271.288853 
L 158.274515 271.288853 
L 158.274515 270.764605 
L 158.504488 270.764605 
L 158.504488 270.240357 
L 158.642788 270.240357 
L 158.642788 269.716109 
L 159.848157 269.716109 
L 159.848157 269.191862 
L 159.988438 269.191862 
L 159.988438 268.143366 
L 160.139807 268.143366 
L 160.139807 267.094871 
L 160.574175 267.094871 
L 160.574175 266.570623 
L 161.08674 266.570623 
L 161.140625 264.99788 
L 161.247893 264.99788 
L 161.247893 264.473632 
L 162.788457 264.473632 
L 162.788457 263.425137 
L 163.020842 263.425137 
L 163.020842 262.900889 
L 163.219507 262.900889 
L 163.226317 261.328146 
L 163.785629 261.328146 
L 163.785629 260.803898 
L 164.54626 260.803898 
L 164.54626 260.279651 
L 165.669046 260.279651 
L 165.669046 259.755403 
L 165.938656 259.755403 
L 165.938656 259.231155 
L 167.451902 259.231155 
L 167.451902 258.706907 
L 180.785433 258.706907 
L 180.785433 258.18266 
L 198.345327 258.18266 
L 198.345327 257.658412 
L 198.51076 257.658412 
L 198.51076 257.134164 
L 198.739553 257.134164 
L 198.739553 256.609917 
L 198.942726 256.609917 
L 198.942726 256.085669 
L 199.19368 256.085669 
L 199.218071 255.037173 
L 199.456367 255.037173 
L 199.523378 253.46443 
L 200.525326 253.46443 
L 200.525326 252.415935 
L 200.76513 252.415935 
L 200.76513 251.367439 
L 200.954595 251.367439 
L 200.954595 250.318944 
L 202.254721 250.318944 
L 202.254721 248.746201 
L 210.970834 248.746201 
L 210.970834 248.221953 
L 216.991896 248.221953 
L 217.020439 247.173458 
L 217.486806 247.173458 
L 217.547879 246.124962 
L 218.473365 246.124962 
L 218.473365 245.600714 
L 221.611327 245.600714 
L 221.649705 244.552219 
L 222.248536 244.552219 
L 222.32418 240.882485 
L 222.36363 240.882485 
L 222.406046 239.83399 
L 225.189443 239.83399 
L 225.271444 237.736999 
L 225.327369 237.736999 
L 225.417609 236.164255 
L 228.936907 236.164255 
L 229.001252 234.067265 
L 229.670211 234.067265 
L 229.670211 233.543017 
L 232.273156 233.543017 
L 232.339728 229.873283 
L 234.760077 229.873283 
L 234.819402 228.824787 
L 235.02623 228.824787 
L 235.094154 226.727797 
L 238.350943 226.727797 
L 238.350943 226.203549 
L 239.060883 226.203549 
L 239.151716 224.106558 
L 239.199216 224.106558 
L 239.254912 223.058063 
L 241.452421 223.058063 
L 241.536379 218.864081 
L 241.573618 218.864081 
L 241.573618 218.339833 
L 242.318438 218.339833 
L 242.376715 217.291338 
L 242.834495 217.291338 
L 242.834495 216.76709 
L 243.145332 216.76709 
L 243.145332 216.242842 
L 245.106458 216.242842 
L 245.106458 215.718594 
L 249.191617 215.718594 
L 249.280712 214.145851 
L 249.338089 214.145851 
L 249.338089 213.621604 
L 251.947744 213.621604 
L 251.947744 213.097356 
L 254.47315 213.097356 
L 254.55484 210.476117 
L 255.930081 210.476117 
L 255.930081 209.95187 
L 257.017408 209.95187 
L 257.051811 207.330631 
L 257.140768 207.330631 
L 257.140768 206.282136 
L 257.449734 206.282136 
L 257.544383 199.991163 
L 260.132144 199.991163 
L 260.157789 198.41842 
L 261.092926 198.41842 
L 261.113232 197.369924 
L 263.262429 197.369924 
L 263.359822 193.175943 
L 267.403143 193.175943 
L 267.481642 188.457713 
L 267.956026 188.457713 
L 268.007338 183.739484 
L 268.185242 183.739484 
L 268.209949 181.642493 
L 268.5718 181.642493 
L 268.5718 181.118245 
L 270.533215 181.118245 
L 270.563235 179.021254 
L 271.013693 179.021254 
L 271.087406 173.254529 
L 271.190218 173.254529 
L 271.190218 172.730281 
L 277.235858 172.730281 
L 277.265055 168.012052 
L 278.115149 168.012052 
L 278.158131 161.196832 
L 284.064704 161.196832 
L 284.079116 157.527098 
L 284.58425 157.527098 
L 284.58425 157.00285 
L 284.755933 157.00285 
L 284.854143 153.333116 
L 285.595699 153.333116 
L 285.637538 144.945152 
L 290.202544 144.945152 
L 290.221376 143.372409 
L 290.402413 143.372409 
L 290.402413 142.848162 
L 290.614632 142.848162 
L 290.618436 140.751171 
L 295.06053 140.751171 
L 295.06053 140.226923 
L 295.786378 140.226923 
L 295.786378 139.702675 
L 297.176201 139.702675 
L 297.275839 137.081437 
L 297.315124 137.081437 
L 297.315124 136.557189 
L 297.8775 136.557189 
L 297.884021 134.984446 
L 299.377711 134.984446 
L 299.380212 133.93595 
L 299.626607 133.93595 
L 299.629855 131.838959 
L 301.546391 131.838959 
L 301.546405 130.790464 
L 301.800821 130.790464 
L 301.805509 128.693473 
L 302.135531 128.693473 
L 302.135531 128.169225 
L 304.118154 128.169225 
L 304.217477 126.596482 
L 307.501875 126.596482 
L 307.581171 122.926748 
L 308.745317 122.926748 
L 308.74809 121.878253 
L 310.039096 121.878253 
L 310.039096 121.354005 
L 310.195155 121.354005 
L 310.19517 120.30551 
L 310.394581 120.30551 
L 310.394581 119.781262 
L 311.59496 119.781262 
L 311.595264 118.732766 
L 313.913178 118.732766 
L 313.913184 117.684271 
L 314.777524 117.684271 
L 314.879993 116.111528 
L 315.954345 116.111528 
L 315.957232 114.538785 
L 318.570253 114.538785 
L 318.571609 112.966042 
L 318.773983 112.966042 
L 318.773983 112.441794 
L 319.313817 112.441794 
L 319.313817 111.917546 
L 320.151798 111.917546 
L 320.151798 111.393298 
L 322.231837 111.393298 
L 322.255359 109.296308 
L 323.519081 109.296308 
L 323.519655 107.723564 
L 325.249176 107.723564 
L 325.249176 107.199317 
L 326.33654 107.199317 
L 326.337057 105.626573 
L 327.817034 105.626573 
L 327.817034 105.102326 
L 328.208323 105.102326 
L 328.208323 104.578078 
L 328.757179 104.578078 
L 328.757179 104.05383 
L 330.393948 104.05383 
L 330.393948 103.529583 
L 330.877415 103.529583 
L 330.877415 103.005335 
L 332.766057 103.005335 
L 332.76678 101.956839 
L 333.429677 101.956839 
L 333.429677 101.956839 
" style="fill:none;stroke:#000080;stroke-linecap:square;stroke-width:1.5;"/>
   </g>
   <g id="line2d_30">
    <defs>
     <path d="M 0 6 
C 1.591219 6 3.117479 5.367802 4.242641 4.242641 
C 5.367802 3.117479 6 1.591219 6 0 
C 6 -1.591219 5.367802 -3.117479 4.242641 -4.242641 
C 3.117479 -5.367802 1.591219 -6 0 -6 
C -1.591219 -6 -3.117479 -5.367802 -4.242641 -4.242641 
C -5.367802 -3.117479 -6 -1.591219 -6 0 
C -6 1.591219 -5.367802 3.117479 -4.242641 4.242641 
C -3.117479 5.367802 -1.591219 6 0 6 
z
" id="m67ac2d7623" style="stroke:#000080;stroke-width:1.5;"/>
    </defs>
    <g>
     <use style="fill-opacity:0;stroke:#000080;stroke-width:1.5;" x="202.254721" xlink:href="#m67ac2d7623" y="248.746201"/>
     <use style="fill-opacity:0;stroke:#000080;stroke-width:1.5;" x="257.504011" xlink:href="#m67ac2d7623" y="201.563906"/>
     <use style="fill-opacity:0;stroke:#000080;stroke-width:1.5;" x="304.217477" xlink:href="#m67ac2d7623" y="127.12073"/>
     <use style="fill-opacity:0;stroke:#000080;stroke-width:1.5;" x="332.76678" xlink:href="#m67ac2d7623" y="101.956839"/>
     <use style="fill-opacity:0;stroke:#000080;stroke-width:1.5;" x="333.429677" xlink:href="#m67ac2d7623" y="101.956839"/>
    </g>
   </g>
   <g id="line2d_31">
    <path style="fill:none;stroke:#000080;stroke-linecap:square;stroke-width:1.5;"/>
    <g/>
   </g>
   <g id="line2d_32">
    <path clip-path="url(#pc5f689075e)" d="M 293.814035 140.751171 
" style="fill:none;stroke:#000080;stroke-linecap:square;stroke-width:1.5;"/>
    <defs>
     <path d="M -12 12 
L 12 -12 
M -12 -12 
L 12 12 
" id="m3a3a621dbc" style="stroke:#000080;stroke-width:3;"/>
    </defs>
    <g clip-path="url(#pc5f689075e)">
     <use style="fill:#000080;stroke:#000080;stroke-width:3;" x="293.814035" xlink:href="#m3a3a621dbc" y="140.751171"/>
    </g>
   </g>
   <g id="line2d_33">
    <defs>
     <path d="M 0 1.5 
C 0.397805 1.5 0.77937 1.341951 1.06066 1.06066 
C 1.341951 0.77937 1.5 0.397805 1.5 0 
C 1.5 -0.397805 1.341951 -0.77937 1.06066 -1.06066 
C 0.77937 -1.341951 0.397805 -1.5 0 -1.5 
C -0.397805 -1.5 -0.77937 -1.341951 -1.06066 -1.06066 
C -1.341951 -0.77937 -1.5 -0.397805 -1.5 0 
C -1.5 0.397805 -1.341951 0.77937 -1.06066 1.06066 
C -0.77937 1.341951 -0.397805 1.5 0 1.5 
z
" id="mb4d8f13ba3" style="stroke:#ff00ff;"/>
    </defs>
    <g>
     <use style="fill:#ff00ff;stroke:#ff00ff;" x="314.461871" xlink:href="#mb4d8f13ba3" y="216.242842"/>
     <use style="fill:#ff00ff;stroke:#ff00ff;" x="314.461871" xlink:href="#mb4d8f13ba3" y="216.242842"/>
    </g>
   </g>
   <g id="line2d_34">
    <path d="M 196.835764 294.88 
L 196.835764 294.355752 
L 197.043014 294.355752 
L 197.043014 293.831505 
L 197.262869 293.831505 
L 197.262869 292.783009 
L 198.315238 292.783009 
L 198.315238 291.734514 
L 198.827044 291.734514 
L 198.827044 290.686018 
L 199.056363 290.686018 
L 199.056363 289.637523 
L 200.844837 289.637523 
L 200.955735 288.06478 
L 201.099481 288.06478 
L 201.099481 287.540532 
L 201.923978 287.540532 
L 201.923978 287.016284 
L 202.540815 287.016284 
L 202.540815 286.492036 
L 202.791529 286.492036 
L 202.791529 285.967789 
L 202.933654 285.967789 
L 202.933654 285.443541 
L 203.084016 285.443541 
L 203.084016 284.919293 
L 203.557443 284.919293 
L 203.557443 284.395046 
L 204.301033 284.395046 
L 204.301033 283.34655 
L 205.056068 283.34655 
L 205.056068 282.822302 
L 205.50628 282.822302 
L 205.50628 282.298055 
L 205.769021 282.298055 
L 205.769021 281.773807 
L 206.073293 281.773807 
L 206.147053 280.201064 
L 206.271612 280.201064 
L 206.301428 279.152568 
L 207.71381 279.152568 
L 207.71381 278.628321 
L 208.907849 278.628321 
L 208.979483 276.007082 
L 209.681248 276.007082 
L 209.681248 274.958587 
L 209.957867 274.958587 
L 209.957867 274.434339 
L 210.083469 274.434339 
L 210.191069 272.337348 
L 210.835532 272.337348 
L 210.835532 271.8131 
L 211.644895 271.8131 
L 211.644895 271.288853 
L 212.805098 271.288853 
L 212.805098 270.764605 
L 213.847149 270.764605 
L 213.878006 269.716109 
L 214.828317 269.716109 
L 214.828317 269.191862 
L 214.939728 269.191862 
L 214.939728 268.667614 
L 215.424067 268.667614 
L 215.424067 268.143366 
L 216.235918 268.143366 
L 216.235918 267.094871 
L 216.352113 267.094871 
L 216.352113 265.522128 
L 216.554737 265.522128 
L 216.554737 264.99788 
L 217.220258 264.99788 
L 217.220258 264.473632 
L 217.406982 264.473632 
L 217.406982 262.900889 
L 217.726658 262.900889 
L 217.825689 261.852394 
L 217.846765 261.852394 
L 217.846765 261.328146 
L 218.762664 261.328146 
L 218.762664 260.803898 
L 219.537967 260.803898 
L 219.537967 260.279651 
L 219.845179 260.279651 
L 219.845179 259.755403 
L 220.93094 259.755403 
L 220.93094 259.231155 
L 221.270765 259.231155 
L 221.270765 257.658412 
L 221.56243 257.658412 
L 221.66852 256.609917 
L 222.694166 256.609917 
L 222.73342 255.561421 
L 223.118177 255.561421 
L 223.118177 255.037173 
L 223.634769 255.037173 
L 223.736333 253.988678 
L 225.661143 253.988678 
L 225.661143 252.415935 
L 227.779471 252.415935 
L 227.779471 251.891687 
L 229.01137 251.891687 
L 229.01137 250.843192 
L 232.326913 250.843192 
L 232.326913 250.318944 
L 255.995174 250.318944 
L 255.995174 249.794696 
L 256.161828 249.794696 
L 256.161828 249.270448 
L 256.522339 249.270448 
L 256.617298 248.221953 
L 256.759361 248.221953 
L 256.797509 246.64921 
L 256.96374 246.64921 
L 256.96374 245.600714 
L 257.196851 245.600714 
L 257.196851 244.552219 
L 257.553672 244.552219 
L 257.553672 244.027971 
L 257.778474 244.027971 
L 257.778474 243.503724 
L 267.098479 243.503724 
L 267.098479 242.979476 
L 267.253298 242.979476 
L 267.325055 241.93098 
L 267.451964 241.93098 
L 267.529321 240.882485 
L 267.665335 240.882485 
L 267.76721 239.309742 
L 267.803272 239.309742 
L 267.803272 238.785494 
L 268.006867 238.785494 
L 268.006867 238.261246 
L 268.471283 238.261246 
L 268.471283 237.736999 
L 274.212646 237.736999 
L 274.212646 237.212751 
L 278.766435 237.212751 
L 278.837353 235.640008 
L 278.909547 235.640008 
L 278.909547 234.591512 
L 279.215357 234.591512 
L 279.215357 234.067265 
L 282.564801 234.067265 
L 282.666614 233.018769 
L 282.827547 233.018769 
L 282.827547 232.494521 
L 285.506685 232.494521 
L 285.603539 230.921778 
L 285.676166 230.921778 
L 285.676166 230.397531 
L 288.381468 230.397531 
L 288.381468 229.873283 
L 290.345832 229.873283 
L 290.345832 228.824787 
L 292.355982 228.824787 
L 292.437915 226.727797 
L 294.138497 226.727797 
L 294.15548 225.679301 
L 295.905131 225.679301 
L 295.905131 225.155053 
L 298.710606 225.155053 
L 298.710606 224.630806 
L 299.958571 224.630806 
L 299.958571 224.106558 
L 301.00367 224.106558 
L 301.053281 222.533815 
L 302.211911 222.533815 
L 302.211911 222.009567 
L 303.1497 222.009567 
L 303.175928 220.961072 
L 304.121706 220.961072 
L 304.121706 220.436824 
L 305.989205 220.436824 
L 305.989205 219.912576 
L 309.778711 219.912576 
L 309.778711 219.388328 
L 310.40585 219.388328 
L 310.40585 218.864081 
L 311.643279 218.864081 
L 311.643279 218.339833 
L 313.376136 218.339833 
L 313.376136 217.815585 
L 313.982344 217.815585 
L 313.982344 216.76709 
L 314.461871 216.76709 
L 314.461871 216.242842 
L 333.429677 216.242842 
L 333.429677 216.242842 
" style="fill:none;stroke:#ff00ff;stroke-linecap:square;stroke-width:1.5;"/>
   </g>
   <g id="line2d_35">
    <defs>
     <path d="M -0 8.485281 
L 5.091169 0 
L 0 -8.485281 
L -5.091169 -0 
z
" id="m0f10659ef7" style="stroke:#ff00ff;stroke-linejoin:miter;stroke-width:1.5;"/>
    </defs>
    <g>
     <use style="fill-opacity:0;stroke:#ff00ff;stroke-linejoin:miter;stroke-width:1.5;" x="232.326913" xlink:href="#m0f10659ef7" y="250.843192"/>
     <use style="fill-opacity:0;stroke:#ff00ff;stroke-linejoin:miter;stroke-width:1.5;" x="310.40585" xlink:href="#m0f10659ef7" y="218.864081"/>
     <use style="fill-opacity:0;stroke:#ff00ff;stroke-linejoin:miter;stroke-width:1.5;" x="314.461871" xlink:href="#m0f10659ef7" y="216.242842"/>
     <use style="fill-opacity:0;stroke:#ff00ff;stroke-linejoin:miter;stroke-width:1.5;" x="333.429677" xlink:href="#m0f10659ef7" y="216.242842"/>
    </g>
   </g>
   <g id="line2d_36">
    <path style="fill:none;stroke:#ff00ff;stroke-linecap:square;stroke-width:1.5;"/>
    <g/>
   </g>
   <g id="line2d_37">
    <path clip-path="url(#pc5f689075e)" d="M 254.198341 250.318944 
" style="fill:none;stroke:#ff00ff;stroke-linecap:square;stroke-width:1.5;"/>
    <defs>
     <path d="M -12 12 
L 12 -12 
M -12 -12 
L 12 12 
" id="m2b99580cb9" style="stroke:#ff00ff;stroke-width:3;"/>
    </defs>
    <g clip-path="url(#pc5f689075e)">
     <use style="fill:#ff00ff;stroke:#ff00ff;stroke-width:3;" x="254.198341" xlink:href="#m2b99580cb9" y="250.318944"/>
    </g>
   </g>
   <g id="line2d_38">
    <defs>
     <path d="M 0 1.5 
C 0.397805 1.5 0.77937 1.341951 1.06066 1.06066 
C 1.341951 0.77937 1.5 0.397805 1.5 0 
C 1.5 -0.397805 1.341951 -0.77937 1.06066 -1.06066 
C 0.77937 -1.341951 0.397805 -1.5 0 -1.5 
C -0.397805 -1.5 -0.77937 -1.341951 -1.06066 -1.06066 
C -1.341951 -0.77937 -1.5 -0.397805 -1.5 0 
C -1.5 0.397805 -1.341951 0.77937 -1.06066 1.06066 
C -0.77937 1.341951 -0.397805 1.5 0 1.5 
z
" id="mfc6ec9b1bb" style="stroke:#ffa500;"/>
    </defs>
    <g>
     <use style="fill:#ffa500;stroke:#ffa500;" x="278.251413" xlink:href="#mfc6ec9b1bb" y="69.453481"/>
     <use style="fill:#ffa500;stroke:#ffa500;" x="278.251413" xlink:href="#mfc6ec9b1bb" y="69.453481"/>
    </g>
   </g>
   <g id="line2d_39">
    <path d="M 98.289215 294.88 
L 98.289215 294.355752 
L 99.015266 294.355752 
L 99.015266 293.831505 
L 99.297319 293.831505 
L 99.297319 293.307257 
L 99.574823 293.307257 
L 99.574823 292.783009 
L 101.401295 292.783009 
L 101.401295 291.734514 
L 101.768673 291.734514 
L 101.768673 291.210266 
L 102.82596 291.210266 
L 102.82596 290.686018 
L 102.939523 290.686018 
L 102.939523 290.161771 
L 103.164427 290.161771 
L 103.164427 289.637523 
L 103.386428 289.637523 
L 103.496364 288.06478 
L 104.661446 288.06478 
L 104.661446 286.492036 
L 105.75261 286.492036 
L 105.75261 285.967789 
L 106.226603 285.967789 
L 106.226603 285.443541 
L 106.687887 285.443541 
L 106.687887 284.919293 
L 106.868993 284.919293 
L 106.868993 283.870798 
L 107.048212 283.870798 
L 107.048212 283.34655 
L 107.225583 283.34655 
L 107.225583 281.773807 
L 108.001874 281.773807 
L 108.086006 280.201064 
L 108.169728 280.201064 
L 108.169728 279.152568 
L 108.33596 279.152568 
L 108.33596 278.628321 
L 109.143848 278.628321 
L 109.222589 277.579825 
L 109.610977 277.579825 
L 109.610977 277.055578 
L 110.43577 277.055578 
L 110.43577 276.53133 
L 110.654016 276.53133 
L 110.726154 275.482834 
L 110.797991 275.482834 
L 110.869529 273.910091 
L 111.011718 273.910091 
L 111.011718 273.385844 
L 111.152743 273.385844 
L 111.152743 272.861596 
L 111.29262 272.861596 
L 111.29262 272.337348 
L 112.175115 272.337348 
L 112.175115 271.8131 
L 112.632197 271.8131 
L 112.632197 271.288853 
L 112.951406 271.288853 
L 112.951406 270.764605 
L 113.388576 270.764605 
L 113.450132 269.716109 
L 113.572587 269.716109 
L 113.572587 269.191862 
L 115.366988 269.191862 
L 115.366988 268.667614 
L 116.172355 268.667614 
L 116.172355 268.143366 
L 116.432646 268.143366 
L 116.432646 267.619119 
L 118.058348 267.619119 
L 118.058348 266.046375 
L 118.4763 266.046375 
L 118.4763 265.522128 
L 118.613392 265.522128 
L 118.658847 264.473632 
L 119.586677 264.473632 
L 119.586677 263.425137 
L 119.715232 263.425137 
L 119.715232 262.900889 
L 119.969496 262.900889 
L 119.969496 262.376641 
L 121.029847 262.376641 
L 121.029847 261.328146 
L 121.841001 261.328146 
L 121.841001 260.279651 
L 122.759301 260.279651 
L 122.759301 259.231155 
L 124.428341 259.231155 
L 124.428341 258.706907 
L 127.860183 258.706907 
L 127.860183 258.18266 
L 137.785817 258.18266 
L 137.785817 257.658412 
L 138.169805 257.658412 
L 138.169805 257.134164 
L 138.516805 257.134164 
L 138.516805 256.085669 
L 138.673538 256.085669 
L 138.673538 255.561421 
L 139.080026 255.561421 
L 139.080026 253.988678 
L 139.217997 253.988678 
L 139.272877 252.940182 
L 139.436475 252.940182 
L 139.477132 251.891687 
L 139.772387 251.891687 
L 139.772387 251.367439 
L 140.114914 251.367439 
L 140.193 248.746201 
L 140.61625 248.746201 
L 140.61625 248.221953 
L 140.880268 248.221953 
L 140.930101 247.173458 
L 141.140296 247.173458 
L 141.189383 246.124962 
L 141.287138 246.124962 
L 141.287138 245.600714 
L 141.8387 245.600714 
L 141.8387 245.076467 
L 142.084739 245.076467 
L 142.119602 243.503724 
L 142.223769 243.503724 
L 142.223769 242.979476 
L 142.521201 242.979476 
L 142.521201 241.93098 
L 142.802425 241.93098 
L 142.824725 239.83399 
L 143.275629 239.83399 
L 143.275629 238.785494 
L 143.956678 238.785494 
L 143.956678 238.261246 
L 144.174398 238.261246 
L 144.174398 237.736999 
L 144.500954 237.736999 
L 144.500954 236.688503 
L 149.696381 236.688503 
L 149.785834 235.11576 
L 150.080698 235.11576 
L 150.080698 234.591512 
L 151.081552 234.591512 
L 151.081552 234.067265 
L 151.402636 234.067265 
L 151.402636 233.543017 
L 151.550897 233.543017 
L 151.550897 232.494521 
L 151.896335 232.494521 
L 151.896335 231.446026 
L 155.788023 231.446026 
L 155.788023 230.397531 
L 156.592447 230.397531 
L 156.63744 228.824787 
L 156.751891 228.824787 
L 156.811303 227.776292 
L 156.978533 227.776292 
L 156.978533 227.252044 
L 157.298588 227.252044 
L 157.298588 226.727797 
L 157.612797 226.727797 
L 157.612797 226.203549 
L 157.837762 226.203549 
L 157.837762 225.679301 
L 160.661328 225.679301 
L 160.661328 225.155053 
L 160.834322 225.155053 
L 160.834322 224.106558 
L 160.947397 224.106558 
L 161.017209 223.058063 
L 161.167505 223.058063 
L 161.167505 222.533815 
L 161.286041 222.533815 
L 161.384832 219.912576 
L 161.486826 219.912576 
L 161.486826 219.388328 
L 161.610671 219.388328 
L 161.711339 218.339833 
L 161.818811 218.339833 
L 161.818811 217.815585 
L 164.311356 217.815585 
L 164.416507 216.76709 
L 164.470425 216.76709 
L 164.470425 216.242842 
L 164.718796 216.242842 
L 164.718796 215.194347 
L 164.935915 215.194347 
L 164.997449 213.621604 
L 165.138147 213.621604 
L 165.241407 212.04886 
L 169.83065 212.04886 
L 169.83065 211.524613 
L 170.168214 211.524613 
L 170.168214 210.476117 
L 170.672397 210.476117 
L 170.672397 209.95187 
L 175.607016 209.95187 
L 175.607016 209.427622 
L 175.740765 209.427622 
L 175.740765 208.903374 
L 178.454361 208.903374 
L 178.537046 207.330631 
L 178.588698 207.330631 
L 178.69708 202.612401 
L 178.883065 202.612401 
L 178.883065 202.088154 
L 181.576656 202.088154 
L 181.65148 200.515411 
L 181.861348 200.515411 
L 181.861348 199.991163 
L 182.548143 199.991163 
L 182.59238 198.942667 
L 182.669522 198.942667 
L 182.72222 196.321429 
L 184.856602 196.321429 
L 184.917498 194.748686 
L 185.106538 194.748686 
L 185.106538 194.224438 
L 185.920134 194.224438 
L 186.002769 192.651695 
L 186.717856 192.651695 
L 186.819233 190.030456 
L 187.009106 190.030456 
L 187.068813 188.981961 
L 188.681033 188.981961 
L 188.732127 187.409218 
L 188.792316 187.409218 
L 188.792316 186.88497 
L 189.647327 186.88497 
L 189.647327 186.360722 
L 190.299603 186.360722 
L 190.393908 183.739484 
L 190.528136 183.739484 
L 190.639198 182.690988 
L 190.687563 182.690988 
L 190.796919 180.593997 
L 190.831164 180.593997 
L 190.831164 179.545502 
L 191.776969 179.545502 
L 191.862889 177.972759 
L 192.308158 177.972759 
L 192.308158 176.924263 
L 194.932558 176.924263 
L 195.011087 174.827272 
L 195.103144 174.827272 
L 195.13301 173.254529 
L 195.562937 173.254529 
L 195.648475 170.633291 
L 196.177051 170.633291 
L 196.259098 165.915061 
L 196.295992 165.915061 
L 196.295992 164.866566 
L 196.577551 164.866566 
L 196.577551 164.342318 
L 196.707871 164.342318 
L 196.707871 163.81807 
L 200.120598 163.81807 
L 200.22 158.051345 
L 200.383358 158.051345 
L 200.481258 150.711877 
L 200.499211 150.711877 
L 200.499211 150.18763 
L 202.2304 150.18763 
L 202.30853 148.090639 
L 204.041385 148.090639 
L 204.099389 143.896657 
L 204.834957 143.896657 
L 204.864341 142.848162 
L 211.478788 142.848162 
L 211.478788 141.275418 
L 213.00086 141.275418 
L 213.00086 140.751171 
L 213.63213 140.751171 
L 213.63213 140.226923 
L 213.979515 140.226923 
L 213.979515 139.702675 
L 214.31286 139.702675 
L 214.31286 139.178427 
L 214.854078 139.178427 
L 214.891296 136.557189 
L 216.977531 136.557189 
L 216.977531 136.032941 
L 219.215709 136.032941 
L 219.215709 135.508693 
L 219.492243 135.508693 
L 219.524934 133.93595 
L 219.655977 133.93595 
L 219.681325 129.741969 
L 219.767329 129.741969 
L 219.795436 128.169225 
L 220.356387 128.169225 
L 220.448391 126.596482 
L 220.482248 126.596482 
L 220.482248 126.072235 
L 220.761541 126.072235 
L 220.784712 125.023739 
L 222.05361 125.023739 
L 222.05361 124.499491 
L 222.326813 124.499491 
L 222.326923 123.450996 
L 225.735983 123.450996 
L 225.743359 122.4025 
L 226.655165 122.4025 
L 226.655165 121.878253 
L 226.975927 121.878253 
L 226.975927 121.354005 
L 228.739092 121.354005 
L 228.739092 120.829757 
L 228.975633 120.829757 
L 228.975633 120.30551 
L 229.149747 120.30551 
L 229.245982 117.684271 
L 229.388024 117.684271 
L 229.446645 115.58728 
L 229.611197 115.58728 
L 229.611197 115.063032 
L 229.884546 115.063032 
L 229.937698 112.966042 
L 234.618328 112.966042 
L 234.64467 111.393298 
L 234.989803 111.393298 
L 235.000309 110.344803 
L 235.165555 110.344803 
L 235.189411 108.77206 
L 235.360267 108.77206 
L 235.360267 108.247812 
L 235.486513 108.247812 
L 235.486513 107.723564 
L 235.807306 107.723564 
L 235.807306 107.199317 
L 239.157078 107.199317 
L 239.157078 106.675069 
L 239.311573 106.675069 
L 239.311573 106.150821 
L 239.584791 106.150821 
L 239.588089 105.102326 
L 239.711645 105.102326 
L 239.796334 103.529583 
L 239.938678 103.529583 
L 239.957978 102.481087 
L 242.962704 102.481087 
L 242.962704 101.956839 
L 243.084387 101.956839 
L 243.189856 100.908344 
L 243.31228 100.908344 
L 243.419102 99.859849 
L 245.064761 99.859849 
L 245.064761 99.335601 
L 245.802958 99.335601 
L 245.802958 98.811353 
L 246.090258 98.811353 
L 246.090258 98.287105 
L 248.393098 98.287105 
L 248.393098 97.762858 
L 248.559228 97.762858 
L 248.56109 96.190115 
L 248.717288 96.190115 
L 248.730485 95.141619 
L 248.856692 95.141619 
L 248.856692 94.617371 
L 250.02336 94.617371 
L 250.02336 94.093124 
L 252.50885 94.093124 
L 252.50885 93.568876 
L 252.713111 93.568876 
L 252.713111 93.044628 
L 252.846846 93.044628 
L 252.846846 92.520381 
L 254.111063 92.520381 
L 254.111063 91.996133 
L 254.428527 91.996133 
L 254.491106 90.947637 
L 254.724426 90.947637 
L 254.724426 90.42339 
L 255.781082 90.42339 
L 255.781082 89.899142 
L 256.101491 89.899142 
L 256.101491 89.374894 
L 257.110785 89.374894 
L 257.163953 88.326399 
L 257.2341 88.326399 
L 257.2341 87.802151 
L 257.578612 87.802151 
L 257.583093 86.753656 
L 258.797737 86.753656 
L 258.897675 85.180912 
L 258.937954 85.180912 
L 258.937954 84.656665 
L 260.030186 84.656665 
L 260.030186 84.132417 
L 260.281252 84.132417 
L 260.283813 83.083922 
L 260.880588 83.083922 
L 260.880588 82.559674 
L 261.169163 82.559674 
L 261.169163 82.035426 
L 261.406916 82.035426 
L 261.410966 80.986931 
L 262.398169 80.986931 
L 262.398169 80.462683 
L 263.321149 80.462683 
L 263.321149 79.938435 
L 263.434744 79.938435 
L 263.533399 78.88994 
L 264.218089 78.88994 
L 264.218089 78.365692 
L 265.054546 78.365692 
L 265.054546 77.841444 
L 265.210699 77.841444 
L 265.210699 77.317197 
L 266.96234 77.317197 
L 266.962479 76.268701 
L 267.685576 76.268701 
L 267.685576 75.744454 
L 269.185321 75.744454 
L 269.241476 74.695958 
L 269.914055 74.695958 
L 269.914055 74.17171 
L 271.660822 74.17171 
L 271.660822 73.647463 
L 271.89331 73.647463 
L 271.89331 73.123215 
L 272.178016 73.123215 
L 272.178016 72.598967 
L 272.332026 72.598967 
L 272.332026 72.074719 
L 273.037291 72.074719 
L 273.037291 71.550472 
L 273.426351 71.550472 
L 273.426351 71.026224 
L 274.155639 71.026224 
L 274.155639 70.501976 
L 277.037634 70.501976 
L 277.037634 69.977729 
L 278.251413 69.977729 
L 278.251413 69.453481 
L 333.429677 69.453481 
L 333.429677 69.453481 
" style="fill:none;stroke:#ffa500;stroke-linecap:square;stroke-width:1.5;"/>
   </g>
   <g id="line2d_40">
    <defs>
     <path d="M 0 -6 
L -1.347084 -1.854102 
L -5.706339 -1.854102 
L -2.179628 0.708204 
L -3.526712 4.854102 
L -0 2.291796 
L 3.526712 4.854102 
L 2.179628 0.708204 
L 5.706339 -1.854102 
L 1.347084 -1.854102 
z
" id="md846158833" style="stroke:#ffa500;stroke-linejoin:bevel;stroke-width:1.5;"/>
    </defs>
    <g>
     <use style="fill-opacity:0;stroke:#ffa500;stroke-linejoin:bevel;stroke-width:1.5;" x="127.860183" xlink:href="#md846158833" y="258.706907"/>
     <use style="fill-opacity:0;stroke:#ffa500;stroke-linejoin:bevel;stroke-width:1.5;" x="196.707871" xlink:href="#md846158833" y="163.81807"/>
     <use style="fill-opacity:0;stroke:#ffa500;stroke-linejoin:bevel;stroke-width:1.5;" x="252.713111" xlink:href="#md846158833" y="93.568876"/>
     <use style="fill-opacity:0;stroke:#ffa500;stroke-linejoin:bevel;stroke-width:1.5;" x="278.251413" xlink:href="#md846158833" y="69.453481"/>
     <use style="fill-opacity:0;stroke:#ffa500;stroke-linejoin:bevel;stroke-width:1.5;" x="333.429677" xlink:href="#md846158833" y="69.453481"/>
    </g>
   </g>
   <g id="line2d_41">
    <path style="fill:none;stroke:#ffa500;stroke-linecap:square;stroke-width:1.5;"/>
    <g/>
   </g>
   <g id="line2d_42">
    <path clip-path="url(#pc5f689075e)" d="M 214.583533 139.178427 
" style="fill:none;stroke:#ffa500;stroke-linecap:square;stroke-width:1.5;"/>
    <defs>
     <path d="M -12 12 
L 12 -12 
M -12 -12 
L 12 12 
" id="m53d4a96d14" style="stroke:#ffa500;stroke-width:3;"/>
    </defs>
    <g clip-path="url(#pc5f689075e)">
     <use style="fill:#ffa500;stroke:#ffa500;stroke-width:3;" x="214.583533" xlink:href="#m53d4a96d14" y="139.178427"/>
    </g>
   </g>
   <g id="line2d_43">
    <path clip-path="url(#pc5f689075e)" d="M 56.12 294.88 
L 56.12 294.88 
L 56.12 294.88 
L 56.12 294.88 
L 399.984 294.88 
" style="fill:none;stroke:#6495ed;stroke-linecap:square;stroke-width:1.5;"/>
   </g>
   <g id="line2d_44">
    <defs>
     <path d="M -0 6 
L 6 -6 
L -6 -6 
z
" id="m44b30ad10a" style="stroke:#6495ed;stroke-linejoin:miter;stroke-width:1.5;"/>
    </defs>
    <g clip-path="url(#pc5f689075e)">
     <use style="fill-opacity:0;stroke:#6495ed;stroke-linejoin:miter;stroke-width:1.5;" x="56.12" xlink:href="#m44b30ad10a" y="294.88"/>
    </g>
   </g>
   <g id="line2d_45">
    <path clip-path="url(#pc5f689075e)" style="fill:none;stroke:#6495ed;stroke-linecap:square;stroke-width:1.5;"/>
    <g clip-path="url(#pc5f689075e)">
     <use style="fill-opacity:0;stroke:#6495ed;stroke-linejoin:miter;stroke-width:1.5;" x="-1" xlink:href="#m44b30ad10a" y="562.246337"/>
     <use style="fill-opacity:0;stroke:#6495ed;stroke-linejoin:miter;stroke-width:1.5;" x="399.984" xlink:href="#m44b30ad10a" y="562.246337"/>
    </g>
   </g>
   <g id="line2d_46">
    <path d="M 333.429677 294.88 
L 363.933742 289.532673 
" style="fill:none;stroke:#6495ed;stroke-linecap:square;stroke-width:1.5;"/>
    <g>
     <use style="fill-opacity:0;stroke:#6495ed;stroke-linejoin:miter;stroke-width:1.5;" x="333.429677" xlink:href="#m44b30ad10a" y="294.88"/>
     <use style="fill-opacity:0;stroke:#6495ed;stroke-linejoin:miter;stroke-width:1.5;" x="363.933742" xlink:href="#m44b30ad10a" y="289.532673"/>
    </g>
   </g>
   <g id="line2d_47">
    <path d="M 333.429677 216.242842 
L 363.933742 225.364752 
" style="fill:none;stroke:#ff00ff;stroke-linecap:square;stroke-width:1.5;"/>
    <g>
     <use style="fill-opacity:0;stroke:#ff00ff;stroke-linejoin:miter;stroke-width:1.5;" x="333.429677" xlink:href="#m0f10659ef7" y="216.242842"/>
     <use style="fill-opacity:0;stroke:#ff00ff;stroke-linejoin:miter;stroke-width:1.5;" x="363.933742" xlink:href="#m0f10659ef7" y="225.364752"/>
    </g>
   </g>
   <g id="line2d_48">
    <path d="M 333.429677 101.956839 
L 363.933742 161.196832 
" style="fill:none;stroke:#000080;stroke-linecap:square;stroke-width:1.5;"/>
    <g>
     <use style="fill-opacity:0;stroke:#000080;stroke-width:1.5;" x="333.429677" xlink:href="#m67ac2d7623" y="101.956839"/>
     <use style="fill-opacity:0;stroke:#000080;stroke-width:1.5;" x="363.933742" xlink:href="#m67ac2d7623" y="161.196832"/>
    </g>
   </g>
   <g id="line2d_49">
    <path d="M 333.429677 69.453481 
L 363.933742 97.028911 
" style="fill:none;stroke:#ffa500;stroke-linecap:square;stroke-width:1.5;"/>
    <g>
     <use style="fill-opacity:0;stroke:#ffa500;stroke-linejoin:bevel;stroke-width:1.5;" x="333.429677" xlink:href="#md846158833" y="69.453481"/>
     <use style="fill-opacity:0;stroke:#ffa500;stroke-linejoin:bevel;stroke-width:1.5;" x="363.933742" xlink:href="#md846158833" y="97.028911"/>
    </g>
   </g>
   <g id="line2d_50">
    <path d="M 333.429677 294.88 
L 333.429677 27.513663 
" style="fill:none;stroke:#000000;stroke-linecap:square;stroke-width:1.5;"/>
   </g>
   <g id="patch_3">
    <path d="M 56.12 294.88 
L 56.12 24.84 
" style="fill:none;stroke:#000000;stroke-linecap:square;stroke-linejoin:miter;stroke-width:0.8;"/>
   </g>
   <g id="patch_4">
    <path d="M 399.984 294.88 
L 399.984 24.84 
" style="fill:none;stroke:#000000;stroke-linecap:square;stroke-linejoin:miter;stroke-width:0.8;"/>
   </g>
   <g id="patch_5">
    <path d="M 56.12 294.88 
L 399.984 294.88 
" style="fill:none;stroke:#000000;stroke-linecap:square;stroke-linejoin:miter;stroke-width:0.8;"/>
   </g>
   <g id="patch_6">
    <path d="M 56.12 24.84 
L 399.984 24.84 
" style="fill:none;stroke:#000000;stroke-linecap:square;stroke-linejoin:miter;stroke-width:0.8;"/>
   </g>
   <g id="text_14">
    <!-- hybrid -->
    <defs>
     <path d="M 54.890625 33.015625 
L 54.890625 0 
L 45.90625 0 
L 45.90625 32.71875 
Q 45.90625 40.484375 42.875 44.328125 
Q 39.84375 48.1875 33.796875 48.1875 
Q 26.515625 48.1875 22.3125 43.546875 
Q 18.109375 38.921875 18.109375 30.90625 
L 18.109375 0 
L 9.078125 0 
L 9.078125 75.984375 
L 18.109375 75.984375 
L 18.109375 46.1875 
Q 21.34375 51.125 25.703125 53.5625 
Q 30.078125 56 35.796875 56 
Q 45.21875 56 50.046875 50.171875 
Q 54.890625 44.34375 54.890625 33.015625 
z
" id="DejaVuSans-68"/>
     <path d="M 32.171875 -5.078125 
Q 28.375 -14.84375 24.75 -17.8125 
Q 21.140625 -20.796875 15.09375 -20.796875 
L 7.90625 -20.796875 
L 7.90625 -13.28125 
L 13.1875 -13.28125 
Q 16.890625 -13.28125 18.9375 -11.515625 
Q 21 -9.765625 23.484375 -3.21875 
L 25.09375 0.875 
L 2.984375 54.6875 
L 12.5 54.6875 
L 29.59375 11.921875 
L 46.6875 54.6875 
L 56.203125 54.6875 
z
" id="DejaVuSans-79"/>
     <path d="M 48.6875 27.296875 
Q 48.6875 37.203125 44.609375 42.84375 
Q 40.53125 48.484375 33.40625 48.484375 
Q 26.265625 48.484375 22.1875 42.84375 
Q 18.109375 37.203125 18.109375 27.296875 
Q 18.109375 17.390625 22.1875 11.75 
Q 26.265625 6.109375 33.40625 6.109375 
Q 40.53125 6.109375 44.609375 11.75 
Q 48.6875 17.390625 48.6875 27.296875 
z
M 18.109375 46.390625 
Q 20.953125 51.265625 25.265625 53.625 
Q 29.59375 56 35.59375 56 
Q 45.5625 56 51.78125 48.09375 
Q 58.015625 40.1875 58.015625 27.296875 
Q 58.015625 14.40625 51.78125 6.484375 
Q 45.5625 -1.421875 35.59375 -1.421875 
Q 29.59375 -1.421875 25.265625 0.953125 
Q 20.953125 3.328125 18.109375 8.203125 
L 18.109375 0 
L 9.078125 0 
L 9.078125 75.984375 
L 18.109375 75.984375 
z
" id="DejaVuSans-62"/>
    </defs>
    <g transform="translate(369.479935 294.223611)scale(0.17 -0.17)">
     <use xlink:href="#DejaVuSans-68"/>
     <use x="63.378906" xlink:href="#DejaVuSans-79"/>
     <use x="122.558594" xlink:href="#DejaVuSans-62"/>
     <use x="186.035156" xlink:href="#DejaVuSans-72"/>
     <use x="227.148438" xlink:href="#DejaVuSans-69"/>
     <use x="254.931641" xlink:href="#DejaVuSans-64"/>
    </g>
   </g>
   <g id="text_15">
    <!-- GA -->
    <defs>
     <path d="M 59.515625 10.40625 
L 59.515625 29.984375 
L 43.40625 29.984375 
L 43.40625 38.09375 
L 69.28125 38.09375 
L 69.28125 6.78125 
Q 63.578125 2.734375 56.6875 0.65625 
Q 49.8125 -1.421875 42 -1.421875 
Q 24.90625 -1.421875 15.25 8.5625 
Q 5.609375 18.5625 5.609375 36.375 
Q 5.609375 54.25 15.25 64.234375 
Q 24.90625 74.21875 42 74.21875 
Q 49.125 74.21875 55.546875 72.453125 
Q 61.96875 70.703125 67.390625 67.28125 
L 67.390625 56.78125 
Q 61.921875 61.421875 55.765625 63.765625 
Q 49.609375 66.109375 42.828125 66.109375 
Q 29.4375 66.109375 22.71875 58.640625 
Q 16.015625 51.171875 16.015625 36.375 
Q 16.015625 21.625 22.71875 14.15625 
Q 29.4375 6.6875 42.828125 6.6875 
Q 48.046875 6.6875 52.140625 7.59375 
Q 56.25 8.5 59.515625 10.40625 
z
" id="DejaVuSans-47"/>
     <path d="M 34.1875 63.1875 
L 20.796875 26.90625 
L 47.609375 26.90625 
z
M 28.609375 72.90625 
L 39.796875 72.90625 
L 67.578125 0 
L 57.328125 0 
L 50.6875 18.703125 
L 17.828125 18.703125 
L 11.1875 0 
L 0.78125 0 
z
" id="DejaVuSans-41"/>
    </defs>
    <g transform="translate(369.479935 230.05569)scale(0.17 -0.17)">
     <use xlink:href="#DejaVuSans-47"/>
     <use x="77.490234" xlink:href="#DejaVuSans-41"/>
    </g>
   </g>
   <g id="text_16">
    <!-- DASA -->
    <defs>
     <path d="M 19.671875 64.796875 
L 19.671875 8.109375 
L 31.59375 8.109375 
Q 46.6875 8.109375 53.6875 14.9375 
Q 60.6875 21.78125 60.6875 36.53125 
Q 60.6875 51.171875 53.6875 57.984375 
Q 46.6875 64.796875 31.59375 64.796875 
z
M 9.8125 72.90625 
L 30.078125 72.90625 
Q 51.265625 72.90625 61.171875 64.09375 
Q 71.09375 55.28125 71.09375 36.53125 
Q 71.09375 17.671875 61.125 8.828125 
Q 51.171875 0 30.078125 0 
L 9.8125 0 
z
" id="DejaVuSans-44"/>
     <path d="M 53.515625 70.515625 
L 53.515625 60.890625 
Q 47.90625 63.578125 42.921875 64.890625 
Q 37.9375 66.21875 33.296875 66.21875 
Q 25.25 66.21875 20.875 63.09375 
Q 16.5 59.96875 16.5 54.203125 
Q 16.5 49.359375 19.40625 46.890625 
Q 22.3125 44.4375 30.421875 42.921875 
L 36.375 41.703125 
Q 47.40625 39.59375 52.65625 34.296875 
Q 57.90625 29 57.90625 20.125 
Q 57.90625 9.515625 50.796875 4.046875 
Q 43.703125 -1.421875 29.984375 -1.421875 
Q 24.8125 -1.421875 18.96875 -0.25 
Q 13.140625 0.921875 6.890625 3.21875 
L 6.890625 13.375 
Q 12.890625 10.015625 18.65625 8.296875 
Q 24.421875 6.59375 29.984375 6.59375 
Q 38.421875 6.59375 43.015625 9.90625 
Q 47.609375 13.234375 47.609375 19.390625 
Q 47.609375 24.75 44.3125 27.78125 
Q 41.015625 30.8125 33.5 32.328125 
L 27.484375 33.5 
Q 16.453125 35.6875 11.515625 40.375 
Q 6.59375 45.0625 6.59375 53.421875 
Q 6.59375 63.09375 13.40625 68.65625 
Q 20.21875 74.21875 32.171875 74.21875 
Q 37.3125 74.21875 42.625 73.28125 
Q 47.953125 72.359375 53.515625 70.515625 
z
" id="DejaVuSans-53"/>
    </defs>
    <g transform="translate(369.479935 165.887769)scale(0.17 -0.17)">
     <use xlink:href="#DejaVuSans-44"/>
     <use x="76.986328" xlink:href="#DejaVuSans-41"/>
     <use x="145.394531" xlink:href="#DejaVuSans-53"/>
     <use x="208.886719" xlink:href="#DejaVuSans-41"/>
    </g>
   </g>
   <g id="text_17">
    <!-- Rosenbroc -->
    <defs>
     <path d="M 44.390625 34.1875 
Q 47.5625 33.109375 50.5625 29.59375 
Q 53.5625 26.078125 56.59375 19.921875 
L 66.609375 0 
L 56 0 
L 46.6875 18.703125 
Q 43.0625 26.03125 39.671875 28.421875 
Q 36.28125 30.8125 30.421875 30.8125 
L 19.671875 30.8125 
L 19.671875 0 
L 9.8125 0 
L 9.8125 72.90625 
L 32.078125 72.90625 
Q 44.578125 72.90625 50.734375 67.671875 
Q 56.890625 62.453125 56.890625 51.90625 
Q 56.890625 45.015625 53.6875 40.46875 
Q 50.484375 35.9375 44.390625 34.1875 
z
M 19.671875 64.796875 
L 19.671875 38.921875 
L 32.078125 38.921875 
Q 39.203125 38.921875 42.84375 42.21875 
Q 46.484375 45.515625 46.484375 51.90625 
Q 46.484375 58.296875 42.84375 61.546875 
Q 39.203125 64.796875 32.078125 64.796875 
z
" id="DejaVuSans-52"/>
    </defs>
    <g transform="translate(369.479935 101.719848)scale(0.17 -0.17)">
     <use xlink:href="#DejaVuSans-52"/>
     <use x="69.419922" xlink:href="#DejaVuSans-6f"/>
     <use x="130.601562" xlink:href="#DejaVuSans-73"/>
     <use x="182.701172" xlink:href="#DejaVuSans-65"/>
     <use x="244.224609" xlink:href="#DejaVuSans-6e"/>
     <use x="307.603516" xlink:href="#DejaVuSans-62"/>
     <use x="371.080078" xlink:href="#DejaVuSans-72"/>
     <use x="412.162109" xlink:href="#DejaVuSans-6f"/>
     <use x="473.34375" xlink:href="#DejaVuSans-63"/>
    </g>
   </g>
   <g id="text_18">
    <!-- best 2009 -->
    <defs>
     <path d="M 10.984375 1.515625 
L 10.984375 10.5 
Q 14.703125 8.734375 18.5 7.8125 
Q 22.3125 6.890625 25.984375 6.890625 
Q 35.75 6.890625 40.890625 13.453125 
Q 46.046875 20.015625 46.78125 33.40625 
Q 43.953125 29.203125 39.59375 26.953125 
Q 35.25 24.703125 29.984375 24.703125 
Q 19.046875 24.703125 12.671875 31.3125 
Q 6.296875 37.9375 6.296875 49.421875 
Q 6.296875 60.640625 12.9375 67.421875 
Q 19.578125 74.21875 30.609375 74.21875 
Q 43.265625 74.21875 49.921875 64.515625 
Q 56.59375 54.828125 56.59375 36.375 
Q 56.59375 19.140625 48.40625 8.859375 
Q 40.234375 -1.421875 26.421875 -1.421875 
Q 22.703125 -1.421875 18.890625 -0.6875 
Q 15.09375 0.046875 10.984375 1.515625 
z
M 30.609375 32.421875 
Q 37.25 32.421875 41.125 36.953125 
Q 45.015625 41.5 45.015625 49.421875 
Q 45.015625 57.28125 41.125 61.84375 
Q 37.25 66.40625 30.609375 66.40625 
Q 23.96875 66.40625 20.09375 61.84375 
Q 16.21875 57.28125 16.21875 49.421875 
Q 16.21875 41.5 20.09375 36.953125 
Q 23.96875 32.421875 30.609375 32.421875 
z
" id="DejaVuSans-39"/>
    </defs>
    <g transform="translate(369.479935 37.551928)scale(0.17 -0.17)">
     <use xlink:href="#DejaVuSans-62"/>
     <use x="63.476562" xlink:href="#DejaVuSans-65"/>
     <use x="125" xlink:href="#DejaVuSans-73"/>
     <use x="177.099609" xlink:href="#DejaVuSans-74"/>
     <use x="216.308594" xlink:href="#DejaVuSans-20"/>
     <use x="248.095703" xlink:href="#DejaVuSans-32"/>
     <use x="311.71875" xlink:href="#DejaVuSans-30"/>
     <use x="375.341797" xlink:href="#DejaVuSans-30"/>
     <use x="438.964844" xlink:href="#DejaVuSans-39"/>
    </g>
   </g>
   <g id="text_19">
    <!-- bbob f13, 10-D -->
    <defs>
     <path d="M 40.578125 39.3125 
Q 47.65625 37.796875 51.625 33 
Q 55.609375 28.21875 55.609375 21.1875 
Q 55.609375 10.40625 48.1875 4.484375 
Q 40.765625 -1.421875 27.09375 -1.421875 
Q 22.515625 -1.421875 17.65625 -0.515625 
Q 12.796875 0.390625 7.625 2.203125 
L 7.625 11.71875 
Q 11.71875 9.328125 16.59375 8.109375 
Q 21.484375 6.890625 26.8125 6.890625 
Q 36.078125 6.890625 40.9375 10.546875 
Q 45.796875 14.203125 45.796875 21.1875 
Q 45.796875 27.640625 41.28125 31.265625 
Q 36.765625 34.90625 28.71875 34.90625 
L 20.21875 34.90625 
L 20.21875 43.015625 
L 29.109375 43.015625 
Q 36.375 43.015625 40.234375 45.921875 
Q 44.09375 48.828125 44.09375 54.296875 
Q 44.09375 59.90625 40.109375 62.90625 
Q 36.140625 65.921875 28.71875 65.921875 
Q 24.65625 65.921875 20.015625 65.03125 
Q 15.375 64.15625 9.8125 62.3125 
L 9.8125 71.09375 
Q 15.4375 72.65625 20.34375 73.4375 
Q 25.25 74.21875 29.59375 74.21875 
Q 40.828125 74.21875 47.359375 69.109375 
Q 53.90625 64.015625 53.90625 55.328125 
Q 53.90625 49.265625 50.4375 45.09375 
Q 46.96875 40.921875 40.578125 39.3125 
z
" id="DejaVuSans-33"/>
    </defs>
    <g transform="translate(59.55864 35.290806)scale(0.102 -0.102)">
     <use xlink:href="#DejaVuSans-62"/>
     <use x="63.476562" xlink:href="#DejaVuSans-62"/>
     <use x="126.953125" xlink:href="#DejaVuSans-6f"/>
     <use x="188.134766" xlink:href="#DejaVuSans-62"/>
     <use x="251.611328" xlink:href="#DejaVuSans-20"/>
     <use x="283.398438" xlink:href="#DejaVuSans-66"/>
     <use x="318.603516" xlink:href="#DejaVuSans-31"/>
     <use x="382.226562" xlink:href="#DejaVuSans-33"/>
     <use x="445.849609" xlink:href="#DejaVuSans-2c"/>
     <use x="477.636719" xlink:href="#DejaVuSans-20"/>
     <use x="509.423828" xlink:href="#DejaVuSans-31"/>
     <use x="573.046875" xlink:href="#DejaVuSans-30"/>
     <use x="636.669922" xlink:href="#DejaVuSans-2d"/>
     <use x="672.753906" xlink:href="#DejaVuSans-44"/>
    </g>
    <!-- 51 targets: 100..1e-08 -->
    <defs>
     <path d="M 10.796875 72.90625 
L 49.515625 72.90625 
L 49.515625 64.59375 
L 19.828125 64.59375 
L 19.828125 46.734375 
Q 21.96875 47.46875 24.109375 47.828125 
Q 26.265625 48.1875 28.421875 48.1875 
Q 40.625 48.1875 47.75 41.5 
Q 54.890625 34.8125 54.890625 23.390625 
Q 54.890625 11.625 47.5625 5.09375 
Q 40.234375 -1.421875 26.90625 -1.421875 
Q 22.3125 -1.421875 17.546875 -0.640625 
Q 12.796875 0.140625 7.71875 1.703125 
L 7.71875 11.625 
Q 12.109375 9.234375 16.796875 8.0625 
Q 21.484375 6.890625 26.703125 6.890625 
Q 35.15625 6.890625 40.078125 11.328125 
Q 45.015625 15.765625 45.015625 23.390625 
Q 45.015625 31 40.078125 35.4375 
Q 35.15625 39.890625 26.703125 39.890625 
Q 22.75 39.890625 18.8125 39.015625 
Q 14.890625 38.140625 10.796875 36.28125 
z
" id="DejaVuSans-35"/>
     <path d="M 11.71875 12.40625 
L 22.015625 12.40625 
L 22.015625 0 
L 11.71875 0 
z
M 11.71875 51.703125 
L 22.015625 51.703125 
L 22.015625 39.3125 
L 11.71875 39.3125 
z
" id="DejaVuSans-3a"/>
    </defs>
    <g transform="translate(59.55864 46.712575)scale(0.102 -0.102)">
     <use xlink:href="#DejaVuSans-35"/>
     <use x="63.623047" xlink:href="#DejaVuSans-31"/>
     <use x="127.246094" xlink:href="#DejaVuSans-20"/>
     <use x="159.033203" xlink:href="#DejaVuSans-74"/>
     <use x="198.242188" xlink:href="#DejaVuSans-61"/>
     <use x="259.521484" xlink:href="#DejaVuSans-72"/>
     <use x="300.619141" xlink:href="#DejaVuSans-67"/>
     <use x="364.095703" xlink:href="#DejaVuSans-65"/>
     <use x="425.619141" xlink:href="#DejaVuSans-74"/>
     <use x="464.828125" xlink:href="#DejaVuSans-73"/>
     <use x="516.927734" xlink:href="#DejaVuSans-3a"/>
     <use x="550.619141" xlink:href="#DejaVuSans-20"/>
     <use x="582.40625" xlink:href="#DejaVuSans-31"/>
     <use x="646.029297" xlink:href="#DejaVuSans-30"/>
     <use x="709.652344" xlink:href="#DejaVuSans-30"/>
     <use x="773.275391" xlink:href="#DejaVuSans-2e"/>
     <use x="805.0625" xlink:href="#DejaVuSans-2e"/>
     <use x="836.849609" xlink:href="#DejaVuSans-31"/>
     <use x="900.472656" xlink:href="#DejaVuSans-65"/>
     <use x="961.996094" xlink:href="#DejaVuSans-2d"/>
     <use x="998.080078" xlink:href="#DejaVuSans-30"/>
     <use x="1061.703125" xlink:href="#DejaVuSans-38"/>
    </g>
    <!-- 15 instances -->
    <g transform="translate(59.55864 58.134344)scale(0.102 -0.102)">
     <use xlink:href="#DejaVuSans-31"/>
     <use x="63.623047" xlink:href="#DejaVuSans-35"/>
     <use x="127.246094" xlink:href="#DejaVuSans-20"/>
     <use x="159.033203" xlink:href="#DejaVuSans-69"/>
     <use x="186.816406" xlink:href="#DejaVuSans-6e"/>
     <use x="250.195312" xlink:href="#DejaVuSans-73"/>
     <use x="302.294922" xlink:href="#DejaVuSans-74"/>
     <use x="341.503906" xlink:href="#DejaVuSans-61"/>
     <use x="402.783203" xlink:href="#DejaVuSans-6e"/>
     <use x="466.162109" xlink:href="#DejaVuSans-63"/>
     <use x="521.142578" xlink:href="#DejaVuSans-65"/>
     <use x="582.666016" xlink:href="#DejaVuSans-73"/>
    </g>
   </g>
   <g id="text_20">
    <!-- v-coco-version -->
    <g style="fill:#808080;" transform="translate(191.556688 290.099912)scale(0.1 -0.1)">
     <use xlink:href="#DejaVuSans-76"/>
     <use x="59.148438" xlink:href="#DejaVuSans-2d"/>
     <use x="95.232422" xlink:href="#DejaVuSans-63"/>
     <use x="150.212891" xlink:href="#DejaVuSans-6f"/>
     <use x="211.394531" xlink:href="#DejaVuSans-63"/>
     <use x="266.375" xlink:href="#DejaVuSans-6f"/>
     <use x="327.572266" xlink:href="#DejaVuSans-2d"/>
     <use x="363.625" xlink:href="#DejaVuSans-76"/>
     <use x="422.804688" xlink:href="#DejaVuSans-65"/>
     <use x="484.328125" xlink:href="#DejaVuSans-72"/>
     <use x="525.441406" xlink:href="#DejaVuSans-73"/>
     <use x="577.541016" xlink:href="#DejaVuSans-69"/>
     <use x="605.324219" xlink:href="#DejaVuSans-6f"/>
     <use x="666.505859" xlink:href="#DejaVuSans-6e"/>
    </g>
   </g>
   <g id="text_21">
    <!-- 13 Sharp ridge -->
    <g transform="translate(153.95825 18.84)scale(0.2 -0.2)">
     <use xlink:href="#DejaVuSans-31"/>
     <use x="63.623047" xlink:href="#DejaVuSans-33"/>
     <use x="127.246094" xlink:href="#DejaVuSans-20"/>
     <use x="159.033203" xlink:href="#DejaVuSans-53"/>
     <use x="222.509766" xlink:href="#DejaVuSans-68"/>
     <use x="285.888672" xlink:href="#DejaVuSans-61"/>
     <use x="347.167969" xlink:href="#DejaVuSans-72"/>
     <use x="388.28125" xlink:href="#DejaVuSans-70"/>
     <use x="451.757812" xlink:href="#DejaVuSans-20"/>
     <use x="483.544922" xlink:href="#DejaVuSans-72"/>
     <use x="524.658203" xlink:href="#DejaVuSans-69"/>
     <use x="552.441406" xlink:href="#DejaVuSans-64"/>
     <use x="615.917969" xlink:href="#DejaVuSans-67"/>
     <use x="679.394531" xlink:href="#DejaVuSans-65"/>
    </g>
   </g>
  </g>
 </g>
 <defs>
  <clipPath id="pc5f689075e">
   <rect height="270.04" width="343.864" x="56.12" y="24.84"/>
  </clipPath>
 </defs>
</svg>
