<?xml version="1.0" encoding="utf-8" standalone="no"?>
<!DOCTYPE svg PUBLIC "-//W3C//DTD SVG 1.1//EN"
  "http://www.w3.org/Graphics/SVG/1.1/DTD/svg11.dtd">
<!-- Created with matplotlib (http://matplotlib.org/) -->
<svg height="345.6pt" version="1.1" viewBox="0 0 460.8 345.6" width="460.8pt" xmlns="http://www.w3.org/2000/svg" xmlns:xlink="http://www.w3.org/1999/xlink">
 <defs>
  <style type="text/css">
*{stroke-linecap:butt;stroke-linejoin:round;}
  </style>
 </defs>
 <g id="figure_1">
  <g id="patch_1">
   <path d="M 0 345.6 
L 460.8 345.6 
L 460.8 0 
L 0 0 
z
" style="fill:#ffffff;"/>
  </g>
  <g id="axes_1">
   <g id="patch_2">
    <path d="M 56.12 294.88 
L 399.984 294.88 
L 399.984 24.84 
L 56.12 24.84 
z
" style="fill:#ffffff;"/>
   </g>
   <g id="line2d_1">
    <path d="M 44.194496 294.88 
L 44.194496 263.425137 
L 56.12 263.425137 
L 56.12 252.940182 
L 68.045504 252.940182 
L 68.045504 242.455228 
L 77.673619 242.455228 
L 77.673619 237.212751 
L 85.449963 237.212751 
L 85.449963 231.970274 
L 86.946982 231.970274 
L 86.946982 226.727797 
L 89.599124 226.727797 
L 89.599124 221.485319 
L 90.786137 221.485319 
L 90.786137 216.242842 
L 91.896513 216.242842 
L 91.896513 211.000365 
L 93.922955 211.000365 
L 93.922955 205.757888 
L 94.853174 205.757888 
L 94.853174 200.515411 
L 96.575096 200.515411 
L 96.575096 195.272933 
L 97.375467 195.272933 
L 97.375467 190.030456 
L 98.872486 190.030456 
L 98.872486 184.787979 
L 100.24961 184.787979 
L 100.24961 179.545502 
L 101.524628 179.545502 
L 101.524628 174.303025 
L 103.822018 174.303025 
L 103.822018 169.060547 
L 105.363783 169.060547 
L 105.363783 163.81807 
L 106.778678 163.81807 
L 106.778678 158.575593 
L 108.500601 158.575593 
L 108.500601 153.333116 
L 110.065758 153.333116 
L 110.065758 148.090639 
L 111.152743 148.090639 
L 111.152743 142.848162 
L 111.841029 142.848162 
L 111.841029 137.605684 
L 113.450132 137.605684 
L 113.450132 132.363207 
L 114.053874 132.363207 
L 114.053874 127.12073 
L 114.347981 127.12073 
L 114.347981 121.878253 
L 115.20129 121.878253 
L 115.20129 116.635776 
L 116.01427 116.635776 
L 116.01427 111.393298 
L 116.535669 111.393298 
L 116.535669 106.150821 
L 117.289287 106.150821 
L 117.289287 100.908344 
L 117.773963 100.908344 
L 117.773963 95.665867 
L 118.4763 95.665867 
L 118.4763 90.42339 
L 119.151088 90.42339 
L 119.151088 85.180912 
L 119.370261 85.180912 
L 119.370261 79.938435 
L 119.800405 79.938435 
L 119.800405 74.695958 
L 120.629716 74.695958 
L 120.629716 69.453481 
L 120.830944 69.453481 
L 120.830944 64.211004 
L 121.420883 64.211004 
L 121.420883 58.968526 
L 121.613118 58.968526 
L 121.613118 53.726049 
L 122.177263 53.726049 
L 122.177263 48.483572 
L 122.723495 48.483572 
L 122.723495 43.241095 
L 123.078247 43.241095 
L 123.078247 37.998618 
L 123.252917 37.998618 
L 123.252917 32.756141 
L 123.597026 32.756141 
L 123.597026 27.513663 
L 333.429677 27.513663 
" style="fill:none;stroke:#f5deb3;stroke-linecap:square;stroke-width:6;"/>
   </g>
   <g id="line2d_2">
    <defs>
     <path d="M -0 7.778175 
L 7.778175 0 
L 0 -7.778175 
L -7.778175 -0 
z
" id="m7957662766" style="stroke:#f5deb3;stroke-linejoin:miter;stroke-width:1.5;"/>
    </defs>
    <g>
     <use style="fill:#f5deb3;stroke:#f5deb3;stroke-linejoin:miter;stroke-width:1.5;" x="97.375467" xlink:href="#m7957662766" y="190.030456"/>
     <use style="fill:#f5deb3;stroke:#f5deb3;stroke-linejoin:miter;stroke-width:1.5;" x="119.151088" xlink:href="#m7957662766" y="85.180912"/>
     <use style="fill:#f5deb3;stroke:#f5deb3;stroke-linejoin:miter;stroke-width:1.5;" x="123.597026" xlink:href="#m7957662766" y="32.756141"/>
     <use style="fill:#f5deb3;stroke:#f5deb3;stroke-linejoin:miter;stroke-width:1.5;" x="123.597026" xlink:href="#m7957662766" y="27.513663"/>
     <use style="fill:#f5deb3;stroke:#f5deb3;stroke-linejoin:miter;stroke-width:1.5;" x="123.597026" xlink:href="#m7957662766" y="27.513663"/>
     <use style="fill:#f5deb3;stroke:#f5deb3;stroke-linejoin:miter;stroke-width:1.5;" x="333.429677" xlink:href="#m7957662766" y="27.513663"/>
    </g>
   </g>
   <g id="line2d_3">
    <path style="fill:none;stroke:#f5deb3;stroke-linecap:square;stroke-width:6;"/>
    <g/>
   </g>
   <g id="line2d_4">
    <path d="M 333.429677 27.513663 
L 363.933742 32.86099 
" style="fill:none;stroke:#f5deb3;stroke-linecap:square;stroke-width:6;"/>
    <g>
     <use style="fill:#f5deb3;stroke:#f5deb3;stroke-linejoin:miter;stroke-width:1.5;" x="333.429677" xlink:href="#m7957662766" y="27.513663"/>
     <use style="fill:#f5deb3;stroke:#f5deb3;stroke-linejoin:miter;stroke-width:1.5;" x="363.933742" xlink:href="#m7957662766" y="32.86099"/>
    </g>
   </g>
   <g id="matplotlib.axis_1">
    <g id="xtick_1">
     <g id="line2d_5">
      <path clip-path="url(#pd4f232cf17)" d="M 56.12 294.88 
L 56.12 24.84 
" style="fill:none;stroke:#b0b0b0;stroke-linecap:square;stroke-width:0.8;"/>
     </g>
     <g id="line2d_6">
      <defs>
       <path d="M 0 0 
L 0 3.5 
" id="m3c006a0849" style="stroke:#000000;stroke-width:0.8;"/>
      </defs>
      <g>
       <use style="stroke:#000000;stroke-width:0.8;" x="56.12" xlink:href="#m3c006a0849" y="294.88"/>
      </g>
     </g>
     <g id="text_1">
      <!-- 0 -->
      <defs>
       <path d="M 31.78125 66.40625 
Q 24.171875 66.40625 20.328125 58.90625 
Q 16.5 51.421875 16.5 36.375 
Q 16.5 21.390625 20.328125 13.890625 
Q 24.171875 6.390625 31.78125 6.390625 
Q 39.453125 6.390625 43.28125 13.890625 
Q 47.125 21.390625 47.125 36.375 
Q 47.125 51.421875 43.28125 58.90625 
Q 39.453125 66.40625 31.78125 66.40625 
z
M 31.78125 74.21875 
Q 44.046875 74.21875 50.515625 64.515625 
Q 56.984375 54.828125 56.984375 36.375 
Q 56.984375 17.96875 50.515625 8.265625 
Q 44.046875 -1.421875 31.78125 -1.421875 
Q 19.53125 -1.421875 13.0625 8.265625 
Q 6.59375 17.96875 6.59375 36.375 
Q 6.59375 54.828125 13.0625 64.515625 
Q 19.53125 74.21875 31.78125 74.21875 
z
" id="DejaVuSans-30"/>
      </defs>
      <g transform="translate(49.7575 317.076875)scale(0.2 -0.2)">
       <use xlink:href="#DejaVuSans-30"/>
      </g>
     </g>
    </g>
    <g id="xtick_2">
     <g id="line2d_7">
      <path clip-path="url(#pd4f232cf17)" d="M 135.351336 294.88 
L 135.351336 24.84 
" style="fill:none;stroke:#b0b0b0;stroke-linecap:square;stroke-width:0.8;"/>
     </g>
     <g id="line2d_8">
      <g>
       <use style="stroke:#000000;stroke-width:0.8;" x="135.351336" xlink:href="#m3c006a0849" y="294.88"/>
      </g>
     </g>
     <g id="text_2">
      <!-- 2 -->
      <defs>
       <path d="M 19.1875 8.296875 
L 53.609375 8.296875 
L 53.609375 0 
L 7.328125 0 
L 7.328125 8.296875 
Q 12.9375 14.109375 22.625 23.890625 
Q 32.328125 33.6875 34.8125 36.53125 
Q 39.546875 41.84375 41.421875 45.53125 
Q 43.3125 49.21875 43.3125 52.78125 
Q 43.3125 58.59375 39.234375 62.25 
Q 35.15625 65.921875 28.609375 65.921875 
Q 23.96875 65.921875 18.8125 64.3125 
Q 13.671875 62.703125 7.8125 59.421875 
L 7.8125 69.390625 
Q 13.765625 71.78125 18.9375 73 
Q 24.125 74.21875 28.421875 74.21875 
Q 39.75 74.21875 46.484375 68.546875 
Q 53.21875 62.890625 53.21875 53.421875 
Q 53.21875 48.921875 51.53125 44.890625 
Q 49.859375 40.875 45.40625 35.40625 
Q 44.1875 33.984375 37.640625 27.21875 
Q 31.109375 20.453125 19.1875 8.296875 
z
" id="DejaVuSans-32"/>
      </defs>
      <g transform="translate(128.988836 317.076875)scale(0.2 -0.2)">
       <use xlink:href="#DejaVuSans-32"/>
      </g>
     </g>
    </g>
    <g id="xtick_3">
     <g id="line2d_9">
      <path clip-path="url(#pd4f232cf17)" d="M 214.582673 294.88 
L 214.582673 24.84 
" style="fill:none;stroke:#b0b0b0;stroke-linecap:square;stroke-width:0.8;"/>
     </g>
     <g id="line2d_10">
      <g>
       <use style="stroke:#000000;stroke-width:0.8;" x="214.582673" xlink:href="#m3c006a0849" y="294.88"/>
      </g>
     </g>
     <g id="text_3">
      <!-- 4 -->
      <defs>
       <path d="M 37.796875 64.3125 
L 12.890625 25.390625 
L 37.796875 25.390625 
z
M 35.203125 72.90625 
L 47.609375 72.90625 
L 47.609375 25.390625 
L 58.015625 25.390625 
L 58.015625 17.1875 
L 47.609375 17.1875 
L 47.609375 0 
L 37.796875 0 
L 37.796875 17.1875 
L 4.890625 17.1875 
L 4.890625 26.703125 
z
" id="DejaVuSans-34"/>
      </defs>
      <g transform="translate(208.220173 317.076875)scale(0.2 -0.2)">
       <use xlink:href="#DejaVuSans-34"/>
      </g>
     </g>
    </g>
    <g id="xtick_4">
     <g id="line2d_11">
      <path clip-path="url(#pd4f232cf17)" d="M 293.814009 294.88 
L 293.814009 24.84 
" style="fill:none;stroke:#b0b0b0;stroke-linecap:square;stroke-width:0.8;"/>
     </g>
     <g id="line2d_12">
      <g>
       <use style="stroke:#000000;stroke-width:0.8;" x="293.814009" xlink:href="#m3c006a0849" y="294.88"/>
      </g>
     </g>
     <g id="text_4">
      <!-- 6 -->
      <defs>
       <path d="M 33.015625 40.375 
Q 26.375 40.375 22.484375 35.828125 
Q 18.609375 31.296875 18.609375 23.390625 
Q 18.609375 15.53125 22.484375 10.953125 
Q 26.375 6.390625 33.015625 6.390625 
Q 39.65625 6.390625 43.53125 10.953125 
Q 47.40625 15.53125 47.40625 23.390625 
Q 47.40625 31.296875 43.53125 35.828125 
Q 39.65625 40.375 33.015625 40.375 
z
M 52.59375 71.296875 
L 52.59375 62.3125 
Q 48.875 64.0625 45.09375 64.984375 
Q 41.3125 65.921875 37.59375 65.921875 
Q 27.828125 65.921875 22.671875 59.328125 
Q 17.53125 52.734375 16.796875 39.40625 
Q 19.671875 43.65625 24.015625 45.921875 
Q 28.375 48.1875 33.59375 48.1875 
Q 44.578125 48.1875 50.953125 41.515625 
Q 57.328125 34.859375 57.328125 23.390625 
Q 57.328125 12.15625 50.6875 5.359375 
Q 44.046875 -1.421875 33.015625 -1.421875 
Q 20.359375 -1.421875 13.671875 8.265625 
Q 6.984375 17.96875 6.984375 36.375 
Q 6.984375 53.65625 15.1875 63.9375 
Q 23.390625 74.21875 37.203125 74.21875 
Q 40.921875 74.21875 44.703125 73.484375 
Q 48.484375 72.75 52.59375 71.296875 
z
" id="DejaVuSans-36"/>
      </defs>
      <g transform="translate(287.451509 317.076875)scale(0.2 -0.2)">
       <use xlink:href="#DejaVuSans-36"/>
      </g>
     </g>
    </g>
    <g id="xtick_5">
     <g id="line2d_13">
      <path clip-path="url(#pd4f232cf17)" d="M 373.045346 294.88 
L 373.045346 24.84 
" style="fill:none;stroke:#b0b0b0;stroke-linecap:square;stroke-width:0.8;"/>
     </g>
     <g id="line2d_14">
      <g>
       <use style="stroke:#000000;stroke-width:0.8;" x="373.045346" xlink:href="#m3c006a0849" y="294.88"/>
      </g>
     </g>
     <g id="text_5">
      <!-- 8 -->
      <defs>
       <path d="M 31.78125 34.625 
Q 24.75 34.625 20.71875 30.859375 
Q 16.703125 27.09375 16.703125 20.515625 
Q 16.703125 13.921875 20.71875 10.15625 
Q 24.75 6.390625 31.78125 6.390625 
Q 38.8125 6.390625 42.859375 10.171875 
Q 46.921875 13.96875 46.921875 20.515625 
Q 46.921875 27.09375 42.890625 30.859375 
Q 38.875 34.625 31.78125 34.625 
z
M 21.921875 38.8125 
Q 15.578125 40.375 12.03125 44.71875 
Q 8.5 49.078125 8.5 55.328125 
Q 8.5 64.0625 14.71875 69.140625 
Q 20.953125 74.21875 31.78125 74.21875 
Q 42.671875 74.21875 48.875 69.140625 
Q 55.078125 64.0625 55.078125 55.328125 
Q 55.078125 49.078125 51.53125 44.71875 
Q 48 40.375 41.703125 38.8125 
Q 48.828125 37.15625 52.796875 32.3125 
Q 56.78125 27.484375 56.78125 20.515625 
Q 56.78125 9.90625 50.3125 4.234375 
Q 43.84375 -1.421875 31.78125 -1.421875 
Q 19.734375 -1.421875 13.25 4.234375 
Q 6.78125 9.90625 6.78125 20.515625 
Q 6.78125 27.484375 10.78125 32.3125 
Q 14.796875 37.15625 21.921875 38.8125 
z
M 18.3125 54.390625 
Q 18.3125 48.734375 21.84375 45.5625 
Q 25.390625 42.390625 31.78125 42.390625 
Q 38.140625 42.390625 41.71875 45.5625 
Q 45.3125 48.734375 45.3125 54.390625 
Q 45.3125 60.0625 41.71875 63.234375 
Q 38.140625 66.40625 31.78125 66.40625 
Q 25.390625 66.40625 21.84375 63.234375 
Q 18.3125 60.0625 18.3125 54.390625 
z
" id="DejaVuSans-38"/>
      </defs>
      <g transform="translate(366.682846 317.076875)scale(0.2 -0.2)">
       <use xlink:href="#DejaVuSans-38"/>
      </g>
     </g>
    </g>
    <g id="text_6">
     <!-- log10(# f-evals / dimension) -->
     <defs>
      <path d="M 9.421875 75.984375 
L 18.40625 75.984375 
L 18.40625 0 
L 9.421875 0 
z
" id="DejaVuSans-6c"/>
      <path d="M 30.609375 48.390625 
Q 23.390625 48.390625 19.1875 42.75 
Q 14.984375 37.109375 14.984375 27.296875 
Q 14.984375 17.484375 19.15625 11.84375 
Q 23.34375 6.203125 30.609375 6.203125 
Q 37.796875 6.203125 41.984375 11.859375 
Q 46.1875 17.53125 46.1875 27.296875 
Q 46.1875 37.015625 41.984375 42.703125 
Q 37.796875 48.390625 30.609375 48.390625 
z
M 30.609375 56 
Q 42.328125 56 49.015625 48.375 
Q 55.71875 40.765625 55.71875 27.296875 
Q 55.71875 13.875 49.015625 6.21875 
Q 42.328125 -1.421875 30.609375 -1.421875 
Q 18.84375 -1.421875 12.171875 6.21875 
Q 5.515625 13.875 5.515625 27.296875 
Q 5.515625 40.765625 12.171875 48.375 
Q 18.84375 56 30.609375 56 
z
" id="DejaVuSans-6f"/>
      <path d="M 45.40625 27.984375 
Q 45.40625 37.75 41.375 43.109375 
Q 37.359375 48.484375 30.078125 48.484375 
Q 22.859375 48.484375 18.828125 43.109375 
Q 14.796875 37.75 14.796875 27.984375 
Q 14.796875 18.265625 18.828125 12.890625 
Q 22.859375 7.515625 30.078125 7.515625 
Q 37.359375 7.515625 41.375 12.890625 
Q 45.40625 18.265625 45.40625 27.984375 
z
M 54.390625 6.78125 
Q 54.390625 -7.171875 48.1875 -13.984375 
Q 42 -20.796875 29.203125 -20.796875 
Q 24.46875 -20.796875 20.265625 -20.09375 
Q 16.0625 -19.390625 12.109375 -17.921875 
L 12.109375 -9.1875 
Q 16.0625 -11.328125 19.921875 -12.34375 
Q 23.78125 -13.375 27.78125 -13.375 
Q 36.625 -13.375 41.015625 -8.765625 
Q 45.40625 -4.15625 45.40625 5.171875 
L 45.40625 9.625 
Q 42.625 4.78125 38.28125 2.390625 
Q 33.9375 0 27.875 0 
Q 17.828125 0 11.671875 7.65625 
Q 5.515625 15.328125 5.515625 27.984375 
Q 5.515625 40.671875 11.671875 48.328125 
Q 17.828125 56 27.875 56 
Q 33.9375 56 38.28125 53.609375 
Q 42.625 51.21875 45.40625 46.390625 
L 45.40625 54.6875 
L 54.390625 54.6875 
z
" id="DejaVuSans-67"/>
      <path d="M 12.40625 8.296875 
L 28.515625 8.296875 
L 28.515625 63.921875 
L 10.984375 60.40625 
L 10.984375 69.390625 
L 28.421875 72.90625 
L 38.28125 72.90625 
L 38.28125 8.296875 
L 54.390625 8.296875 
L 54.390625 0 
L 12.40625 0 
z
" id="DejaVuSans-31"/>
      <path d="M 31 75.875 
Q 24.46875 64.65625 21.28125 53.65625 
Q 18.109375 42.671875 18.109375 31.390625 
Q 18.109375 20.125 21.3125 9.0625 
Q 24.515625 -2 31 -13.1875 
L 23.1875 -13.1875 
Q 15.875 -1.703125 12.234375 9.375 
Q 8.59375 20.453125 8.59375 31.390625 
Q 8.59375 42.28125 12.203125 53.3125 
Q 15.828125 64.359375 23.1875 75.875 
z
" id="DejaVuSans-28"/>
      <path d="M 51.125 44 
L 36.921875 44 
L 32.8125 27.6875 
L 47.125 27.6875 
z
M 43.796875 71.78125 
L 38.71875 51.515625 
L 52.984375 51.515625 
L 58.109375 71.78125 
L 65.921875 71.78125 
L 60.890625 51.515625 
L 76.125 51.515625 
L 76.125 44 
L 58.984375 44 
L 54.984375 27.6875 
L 70.515625 27.6875 
L 70.515625 20.21875 
L 53.078125 20.21875 
L 48 0 
L 40.1875 0 
L 45.21875 20.21875 
L 30.90625 20.21875 
L 25.875 0 
L 18.015625 0 
L 23.09375 20.21875 
L 7.71875 20.21875 
L 7.71875 27.6875 
L 24.90625 27.6875 
L 29 44 
L 13.28125 44 
L 13.28125 51.515625 
L 30.90625 51.515625 
L 35.890625 71.78125 
z
" id="DejaVuSans-23"/>
      <path id="DejaVuSans-20"/>
      <path d="M 37.109375 75.984375 
L 37.109375 68.5 
L 28.515625 68.5 
Q 23.6875 68.5 21.796875 66.546875 
Q 19.921875 64.59375 19.921875 59.515625 
L 19.921875 54.6875 
L 34.71875 54.6875 
L 34.71875 47.703125 
L 19.921875 47.703125 
L 19.921875 0 
L 10.890625 0 
L 10.890625 47.703125 
L 2.296875 47.703125 
L 2.296875 54.6875 
L 10.890625 54.6875 
L 10.890625 58.5 
Q 10.890625 67.625 15.140625 71.796875 
Q 19.390625 75.984375 28.609375 75.984375 
z
" id="DejaVuSans-66"/>
      <path d="M 4.890625 31.390625 
L 31.203125 31.390625 
L 31.203125 23.390625 
L 4.890625 23.390625 
z
" id="DejaVuSans-2d"/>
      <path d="M 56.203125 29.59375 
L 56.203125 25.203125 
L 14.890625 25.203125 
Q 15.484375 15.921875 20.484375 11.0625 
Q 25.484375 6.203125 34.421875 6.203125 
Q 39.59375 6.203125 44.453125 7.46875 
Q 49.3125 8.734375 54.109375 11.28125 
L 54.109375 2.78125 
Q 49.265625 0.734375 44.1875 -0.34375 
Q 39.109375 -1.421875 33.890625 -1.421875 
Q 20.796875 -1.421875 13.15625 6.1875 
Q 5.515625 13.8125 5.515625 26.8125 
Q 5.515625 40.234375 12.765625 48.109375 
Q 20.015625 56 32.328125 56 
Q 43.359375 56 49.78125 48.890625 
Q 56.203125 41.796875 56.203125 29.59375 
z
M 47.21875 32.234375 
Q 47.125 39.59375 43.09375 43.984375 
Q 39.0625 48.390625 32.421875 48.390625 
Q 24.90625 48.390625 20.390625 44.140625 
Q 15.875 39.890625 15.1875 32.171875 
z
" id="DejaVuSans-65"/>
      <path d="M 2.984375 54.6875 
L 12.5 54.6875 
L 29.59375 8.796875 
L 46.6875 54.6875 
L 56.203125 54.6875 
L 35.6875 0 
L 23.484375 0 
z
" id="DejaVuSans-76"/>
      <path d="M 34.28125 27.484375 
Q 23.390625 27.484375 19.1875 25 
Q 14.984375 22.515625 14.984375 16.5 
Q 14.984375 11.71875 18.140625 8.90625 
Q 21.296875 6.109375 26.703125 6.109375 
Q 34.1875 6.109375 38.703125 11.40625 
Q 43.21875 16.703125 43.21875 25.484375 
L 43.21875 27.484375 
z
M 52.203125 31.203125 
L 52.203125 0 
L 43.21875 0 
L 43.21875 8.296875 
Q 40.140625 3.328125 35.546875 0.953125 
Q 30.953125 -1.421875 24.3125 -1.421875 
Q 15.921875 -1.421875 10.953125 3.296875 
Q 6 8.015625 6 15.921875 
Q 6 25.140625 12.171875 29.828125 
Q 18.359375 34.515625 30.609375 34.515625 
L 43.21875 34.515625 
L 43.21875 35.40625 
Q 43.21875 41.609375 39.140625 45 
Q 35.0625 48.390625 27.6875 48.390625 
Q 23 48.390625 18.546875 47.265625 
Q 14.109375 46.140625 10.015625 43.890625 
L 10.015625 52.203125 
Q 14.9375 54.109375 19.578125 55.046875 
Q 24.21875 56 28.609375 56 
Q 40.484375 56 46.34375 49.84375 
Q 52.203125 43.703125 52.203125 31.203125 
z
" id="DejaVuSans-61"/>
      <path d="M 44.28125 53.078125 
L 44.28125 44.578125 
Q 40.484375 46.53125 36.375 47.5 
Q 32.28125 48.484375 27.875 48.484375 
Q 21.1875 48.484375 17.84375 46.4375 
Q 14.5 44.390625 14.5 40.28125 
Q 14.5 37.15625 16.890625 35.375 
Q 19.28125 33.59375 26.515625 31.984375 
L 29.59375 31.296875 
Q 39.15625 29.25 43.1875 25.515625 
Q 47.21875 21.78125 47.21875 15.09375 
Q 47.21875 7.46875 41.1875 3.015625 
Q 35.15625 -1.421875 24.609375 -1.421875 
Q 20.21875 -1.421875 15.453125 -0.5625 
Q 10.6875 0.296875 5.421875 2 
L 5.421875 11.28125 
Q 10.40625 8.6875 15.234375 7.390625 
Q 20.0625 6.109375 24.8125 6.109375 
Q 31.15625 6.109375 34.5625 8.28125 
Q 37.984375 10.453125 37.984375 14.40625 
Q 37.984375 18.0625 35.515625 20.015625 
Q 33.0625 21.96875 24.703125 23.78125 
L 21.578125 24.515625 
Q 13.234375 26.265625 9.515625 29.90625 
Q 5.8125 33.546875 5.8125 39.890625 
Q 5.8125 47.609375 11.28125 51.796875 
Q 16.75 56 26.8125 56 
Q 31.78125 56 36.171875 55.265625 
Q 40.578125 54.546875 44.28125 53.078125 
z
" id="DejaVuSans-73"/>
      <path d="M 25.390625 72.90625 
L 33.6875 72.90625 
L 8.296875 -9.28125 
L 0 -9.28125 
z
" id="DejaVuSans-2f"/>
      <path d="M 45.40625 46.390625 
L 45.40625 75.984375 
L 54.390625 75.984375 
L 54.390625 0 
L 45.40625 0 
L 45.40625 8.203125 
Q 42.578125 3.328125 38.25 0.953125 
Q 33.9375 -1.421875 27.875 -1.421875 
Q 17.96875 -1.421875 11.734375 6.484375 
Q 5.515625 14.40625 5.515625 27.296875 
Q 5.515625 40.1875 11.734375 48.09375 
Q 17.96875 56 27.875 56 
Q 33.9375 56 38.25 53.625 
Q 42.578125 51.265625 45.40625 46.390625 
z
M 14.796875 27.296875 
Q 14.796875 17.390625 18.875 11.75 
Q 22.953125 6.109375 30.078125 6.109375 
Q 37.203125 6.109375 41.296875 11.75 
Q 45.40625 17.390625 45.40625 27.296875 
Q 45.40625 37.203125 41.296875 42.84375 
Q 37.203125 48.484375 30.078125 48.484375 
Q 22.953125 48.484375 18.875 42.84375 
Q 14.796875 37.203125 14.796875 27.296875 
z
" id="DejaVuSans-64"/>
      <path d="M 9.421875 54.6875 
L 18.40625 54.6875 
L 18.40625 0 
L 9.421875 0 
z
M 9.421875 75.984375 
L 18.40625 75.984375 
L 18.40625 64.59375 
L 9.421875 64.59375 
z
" id="DejaVuSans-69"/>
      <path d="M 52 44.1875 
Q 55.375 50.25 60.0625 53.125 
Q 64.75 56 71.09375 56 
Q 79.640625 56 84.28125 50.015625 
Q 88.921875 44.046875 88.921875 33.015625 
L 88.921875 0 
L 79.890625 0 
L 79.890625 32.71875 
Q 79.890625 40.578125 77.09375 44.375 
Q 74.3125 48.1875 68.609375 48.1875 
Q 61.625 48.1875 57.5625 43.546875 
Q 53.515625 38.921875 53.515625 30.90625 
L 53.515625 0 
L 44.484375 0 
L 44.484375 32.71875 
Q 44.484375 40.625 41.703125 44.40625 
Q 38.921875 48.1875 33.109375 48.1875 
Q 26.21875 48.1875 22.15625 43.53125 
Q 18.109375 38.875 18.109375 30.90625 
L 18.109375 0 
L 9.078125 0 
L 9.078125 54.6875 
L 18.109375 54.6875 
L 18.109375 46.1875 
Q 21.1875 51.21875 25.484375 53.609375 
Q 29.78125 56 35.6875 56 
Q 41.65625 56 45.828125 52.96875 
Q 50 49.953125 52 44.1875 
z
" id="DejaVuSans-6d"/>
      <path d="M 54.890625 33.015625 
L 54.890625 0 
L 45.90625 0 
L 45.90625 32.71875 
Q 45.90625 40.484375 42.875 44.328125 
Q 39.84375 48.1875 33.796875 48.1875 
Q 26.515625 48.1875 22.3125 43.546875 
Q 18.109375 38.921875 18.109375 30.90625 
L 18.109375 0 
L 9.078125 0 
L 9.078125 54.6875 
L 18.109375 54.6875 
L 18.109375 46.1875 
Q 21.34375 51.125 25.703125 53.5625 
Q 30.078125 56 35.796875 56 
Q 45.21875 56 50.046875 50.171875 
Q 54.890625 44.34375 54.890625 33.015625 
z
" id="DejaVuSans-6e"/>
      <path d="M 8.015625 75.875 
L 15.828125 75.875 
Q 23.140625 64.359375 26.78125 53.3125 
Q 30.421875 42.28125 30.421875 31.390625 
Q 30.421875 20.453125 26.78125 9.375 
Q 23.140625 -1.703125 15.828125 -13.1875 
L 8.015625 -13.1875 
Q 14.5 -2 17.703125 9.0625 
Q 20.90625 20.125 20.90625 31.390625 
Q 20.90625 42.671875 17.703125 53.65625 
Q 14.5 64.65625 8.015625 75.875 
z
" id="DejaVuSans-29"/>
     </defs>
     <g transform="translate(107.211219 338.153594)scale(0.17 -0.17)">
      <use xlink:href="#DejaVuSans-6c"/>
      <use x="27.783203" xlink:href="#DejaVuSans-6f"/>
      <use x="88.964844" xlink:href="#DejaVuSans-67"/>
      <use x="152.441406" xlink:href="#DejaVuSans-31"/>
      <use x="216.064453" xlink:href="#DejaVuSans-30"/>
      <use x="279.6875" xlink:href="#DejaVuSans-28"/>
      <use x="318.701172" xlink:href="#DejaVuSans-23"/>
      <use x="402.490234" xlink:href="#DejaVuSans-20"/>
      <use x="434.277344" xlink:href="#DejaVuSans-66"/>
      <use x="469.404297" xlink:href="#DejaVuSans-2d"/>
      <use x="505.488281" xlink:href="#DejaVuSans-65"/>
      <use x="567.011719" xlink:href="#DejaVuSans-76"/>
      <use x="626.191406" xlink:href="#DejaVuSans-61"/>
      <use x="687.470703" xlink:href="#DejaVuSans-6c"/>
      <use x="715.253906" xlink:href="#DejaVuSans-73"/>
      <use x="767.353516" xlink:href="#DejaVuSans-20"/>
      <use x="799.140625" xlink:href="#DejaVuSans-2f"/>
      <use x="832.832031" xlink:href="#DejaVuSans-20"/>
      <use x="864.619141" xlink:href="#DejaVuSans-64"/>
      <use x="928.095703" xlink:href="#DejaVuSans-69"/>
      <use x="955.878906" xlink:href="#DejaVuSans-6d"/>
      <use x="1053.291016" xlink:href="#DejaVuSans-65"/>
      <use x="1114.814453" xlink:href="#DejaVuSans-6e"/>
      <use x="1178.193359" xlink:href="#DejaVuSans-73"/>
      <use x="1230.292969" xlink:href="#DejaVuSans-69"/>
      <use x="1258.076172" xlink:href="#DejaVuSans-6f"/>
      <use x="1319.257812" xlink:href="#DejaVuSans-6e"/>
      <use x="1382.636719" xlink:href="#DejaVuSans-29"/>
     </g>
    </g>
   </g>
   <g id="matplotlib.axis_2">
    <g id="ytick_1">
     <g id="line2d_15">
      <path clip-path="url(#pd4f232cf17)" d="M 56.12 294.88 
L 399.984 294.88 
" style="fill:none;stroke:#b0b0b0;stroke-linecap:square;stroke-width:0.8;"/>
     </g>
     <g id="line2d_16">
      <defs>
       <path d="M 0 0 
L -3.5 0 
" id="md4a78f0a8d" style="stroke:#000000;stroke-width:0.8;"/>
      </defs>
      <g>
       <use style="stroke:#000000;stroke-width:0.8;" x="56.12" xlink:href="#md4a78f0a8d" y="294.88"/>
      </g>
     </g>
     <g id="text_7">
      <!-- 0.0 -->
      <defs>
       <path d="M 10.6875 12.40625 
L 21 12.40625 
L 21 0 
L 10.6875 0 
z
" id="DejaVuSans-2e"/>
      </defs>
      <g transform="translate(23.675 300.95875)scale(0.16 -0.16)">
       <use xlink:href="#DejaVuSans-30"/>
       <use x="63.623047" xlink:href="#DejaVuSans-2e"/>
       <use x="95.410156" xlink:href="#DejaVuSans-30"/>
      </g>
     </g>
    </g>
    <g id="ytick_2">
     <g id="line2d_17">
      <path clip-path="url(#pd4f232cf17)" d="M 56.12 241.406733 
L 399.984 241.406733 
" style="fill:none;stroke:#b0b0b0;stroke-linecap:square;stroke-width:0.8;"/>
     </g>
     <g id="line2d_18">
      <g>
       <use style="stroke:#000000;stroke-width:0.8;" x="56.12" xlink:href="#md4a78f0a8d" y="241.406733"/>
      </g>
     </g>
     <g id="text_8">
      <!-- 0.2 -->
      <g transform="translate(23.675 247.485483)scale(0.16 -0.16)">
       <use xlink:href="#DejaVuSans-30"/>
       <use x="63.623047" xlink:href="#DejaVuSans-2e"/>
       <use x="95.410156" xlink:href="#DejaVuSans-32"/>
      </g>
     </g>
    </g>
    <g id="ytick_3">
     <g id="line2d_19">
      <path clip-path="url(#pd4f232cf17)" d="M 56.12 187.933465 
L 399.984 187.933465 
" style="fill:none;stroke:#b0b0b0;stroke-linecap:square;stroke-width:0.8;"/>
     </g>
     <g id="line2d_20">
      <g>
       <use style="stroke:#000000;stroke-width:0.8;" x="56.12" xlink:href="#md4a78f0a8d" y="187.933465"/>
      </g>
     </g>
     <g id="text_9">
      <!-- 0.4 -->
      <g transform="translate(23.675 194.012215)scale(0.16 -0.16)">
       <use xlink:href="#DejaVuSans-30"/>
       <use x="63.623047" xlink:href="#DejaVuSans-2e"/>
       <use x="95.410156" xlink:href="#DejaVuSans-34"/>
      </g>
     </g>
    </g>
    <g id="ytick_4">
     <g id="line2d_21">
      <path clip-path="url(#pd4f232cf17)" d="M 56.12 134.460198 
L 399.984 134.460198 
" style="fill:none;stroke:#b0b0b0;stroke-linecap:square;stroke-width:0.8;"/>
     </g>
     <g id="line2d_22">
      <g>
       <use style="stroke:#000000;stroke-width:0.8;" x="56.12" xlink:href="#md4a78f0a8d" y="134.460198"/>
      </g>
     </g>
     <g id="text_10">
      <!-- 0.6 -->
      <g transform="translate(23.675 140.538948)scale(0.16 -0.16)">
       <use xlink:href="#DejaVuSans-30"/>
       <use x="63.623047" xlink:href="#DejaVuSans-2e"/>
       <use x="95.410156" xlink:href="#DejaVuSans-36"/>
      </g>
     </g>
    </g>
    <g id="ytick_5">
     <g id="line2d_23">
      <path clip-path="url(#pd4f232cf17)" d="M 56.12 80.986931 
L 399.984 80.986931 
" style="fill:none;stroke:#b0b0b0;stroke-linecap:square;stroke-width:0.8;"/>
     </g>
     <g id="line2d_24">
      <g>
       <use style="stroke:#000000;stroke-width:0.8;" x="56.12" xlink:href="#md4a78f0a8d" y="80.986931"/>
      </g>
     </g>
     <g id="text_11">
      <!-- 0.8 -->
      <g transform="translate(23.675 87.065681)scale(0.16 -0.16)">
       <use xlink:href="#DejaVuSans-30"/>
       <use x="63.623047" xlink:href="#DejaVuSans-2e"/>
       <use x="95.410156" xlink:href="#DejaVuSans-38"/>
      </g>
     </g>
    </g>
    <g id="ytick_6">
     <g id="line2d_25">
      <path clip-path="url(#pd4f232cf17)" d="M 56.12 27.513663 
L 399.984 27.513663 
" style="fill:none;stroke:#b0b0b0;stroke-linecap:square;stroke-width:0.8;"/>
     </g>
     <g id="line2d_26">
      <g>
       <use style="stroke:#000000;stroke-width:0.8;" x="56.12" xlink:href="#md4a78f0a8d" y="27.513663"/>
      </g>
     </g>
     <g id="text_12">
      <!-- 1.0 -->
      <g transform="translate(23.675 33.592413)scale(0.16 -0.16)">
       <use xlink:href="#DejaVuSans-31"/>
       <use x="63.623047" xlink:href="#DejaVuSans-2e"/>
       <use x="95.410156" xlink:href="#DejaVuSans-30"/>
      </g>
     </g>
    </g>
    <g id="text_13">
     <!-- Fraction of function,target pairs -->
     <defs>
      <path d="M 9.8125 72.90625 
L 51.703125 72.90625 
L 51.703125 64.59375 
L 19.671875 64.59375 
L 19.671875 43.109375 
L 48.578125 43.109375 
L 48.578125 34.8125 
L 19.671875 34.8125 
L 19.671875 0 
L 9.8125 0 
z
" id="DejaVuSans-46"/>
      <path d="M 41.109375 46.296875 
Q 39.59375 47.171875 37.8125 47.578125 
Q 36.03125 48 33.890625 48 
Q 26.265625 48 22.1875 43.046875 
Q 18.109375 38.09375 18.109375 28.8125 
L 18.109375 0 
L 9.078125 0 
L 9.078125 54.6875 
L 18.109375 54.6875 
L 18.109375 46.1875 
Q 20.953125 51.171875 25.484375 53.578125 
Q 30.03125 56 36.53125 56 
Q 37.453125 56 38.578125 55.875 
Q 39.703125 55.765625 41.0625 55.515625 
z
" id="DejaVuSans-72"/>
      <path d="M 48.78125 52.59375 
L 48.78125 44.1875 
Q 44.96875 46.296875 41.140625 47.34375 
Q 37.3125 48.390625 33.40625 48.390625 
Q 24.65625 48.390625 19.8125 42.84375 
Q 14.984375 37.3125 14.984375 27.296875 
Q 14.984375 17.28125 19.8125 11.734375 
Q 24.65625 6.203125 33.40625 6.203125 
Q 37.3125 6.203125 41.140625 7.25 
Q 44.96875 8.296875 48.78125 10.40625 
L 48.78125 2.09375 
Q 45.015625 0.34375 40.984375 -0.53125 
Q 36.96875 -1.421875 32.421875 -1.421875 
Q 20.0625 -1.421875 12.78125 6.34375 
Q 5.515625 14.109375 5.515625 27.296875 
Q 5.515625 40.671875 12.859375 48.328125 
Q 20.21875 56 33.015625 56 
Q 37.15625 56 41.109375 55.140625 
Q 45.0625 54.296875 48.78125 52.59375 
z
" id="DejaVuSans-63"/>
      <path d="M 18.3125 70.21875 
L 18.3125 54.6875 
L 36.8125 54.6875 
L 36.8125 47.703125 
L 18.3125 47.703125 
L 18.3125 18.015625 
Q 18.3125 11.328125 20.140625 9.421875 
Q 21.96875 7.515625 27.59375 7.515625 
L 36.8125 7.515625 
L 36.8125 0 
L 27.59375 0 
Q 17.1875 0 13.234375 3.875 
Q 9.28125 7.765625 9.28125 18.015625 
L 9.28125 47.703125 
L 2.6875 47.703125 
L 2.6875 54.6875 
L 9.28125 54.6875 
L 9.28125 70.21875 
z
" id="DejaVuSans-74"/>
      <path d="M 8.5 21.578125 
L 8.5 54.6875 
L 17.484375 54.6875 
L 17.484375 21.921875 
Q 17.484375 14.15625 20.5 10.265625 
Q 23.53125 6.390625 29.59375 6.390625 
Q 36.859375 6.390625 41.078125 11.03125 
Q 45.3125 15.671875 45.3125 23.6875 
L 45.3125 54.6875 
L 54.296875 54.6875 
L 54.296875 0 
L 45.3125 0 
L 45.3125 8.40625 
Q 42.046875 3.421875 37.71875 1 
Q 33.40625 -1.421875 27.6875 -1.421875 
Q 18.265625 -1.421875 13.375 4.4375 
Q 8.5 10.296875 8.5 21.578125 
z
M 31.109375 56 
z
" id="DejaVuSans-75"/>
      <path d="M 11.71875 12.40625 
L 22.015625 12.40625 
L 22.015625 4 
L 14.015625 -11.625 
L 7.71875 -11.625 
L 11.71875 4 
z
" id="DejaVuSans-2c"/>
      <path d="M 18.109375 8.203125 
L 18.109375 -20.796875 
L 9.078125 -20.796875 
L 9.078125 54.6875 
L 18.109375 54.6875 
L 18.109375 46.390625 
Q 20.953125 51.265625 25.265625 53.625 
Q 29.59375 56 35.59375 56 
Q 45.5625 56 51.78125 48.09375 
Q 58.015625 40.1875 58.015625 27.296875 
Q 58.015625 14.40625 51.78125 6.484375 
Q 45.5625 -1.421875 35.59375 -1.421875 
Q 29.59375 -1.421875 25.265625 0.953125 
Q 20.953125 3.328125 18.109375 8.203125 
z
M 48.6875 27.296875 
Q 48.6875 37.203125 44.609375 42.84375 
Q 40.53125 48.484375 33.40625 48.484375 
Q 26.265625 48.484375 22.1875 42.84375 
Q 18.109375 37.203125 18.109375 27.296875 
Q 18.109375 17.390625 22.1875 11.75 
Q 26.265625 6.109375 33.40625 6.109375 
Q 40.53125 6.109375 44.609375 11.75 
Q 48.6875 17.390625 48.6875 27.296875 
z
" id="DejaVuSans-70"/>
     </defs>
     <g transform="translate(16.139531 294.999375)rotate(-90)scale(0.17 -0.17)">
      <use xlink:href="#DejaVuSans-46"/>
      <use x="57.410156" xlink:href="#DejaVuSans-72"/>
      <use x="98.523438" xlink:href="#DejaVuSans-61"/>
      <use x="159.802734" xlink:href="#DejaVuSans-63"/>
      <use x="214.783203" xlink:href="#DejaVuSans-74"/>
      <use x="253.992188" xlink:href="#DejaVuSans-69"/>
      <use x="281.775391" xlink:href="#DejaVuSans-6f"/>
      <use x="342.957031" xlink:href="#DejaVuSans-6e"/>
      <use x="406.335938" xlink:href="#DejaVuSans-20"/>
      <use x="438.123047" xlink:href="#DejaVuSans-6f"/>
      <use x="499.304688" xlink:href="#DejaVuSans-66"/>
      <use x="534.509766" xlink:href="#DejaVuSans-20"/>
      <use x="566.296875" xlink:href="#DejaVuSans-66"/>
      <use x="601.501953" xlink:href="#DejaVuSans-75"/>
      <use x="664.880859" xlink:href="#DejaVuSans-6e"/>
      <use x="728.259766" xlink:href="#DejaVuSans-63"/>
      <use x="783.240234" xlink:href="#DejaVuSans-74"/>
      <use x="822.449219" xlink:href="#DejaVuSans-69"/>
      <use x="850.232422" xlink:href="#DejaVuSans-6f"/>
      <use x="911.414062" xlink:href="#DejaVuSans-6e"/>
      <use x="974.792969" xlink:href="#DejaVuSans-2c"/>
      <use x="1006.580078" xlink:href="#DejaVuSans-74"/>
      <use x="1045.789062" xlink:href="#DejaVuSans-61"/>
      <use x="1107.068359" xlink:href="#DejaVuSans-72"/>
      <use x="1148.166016" xlink:href="#DejaVuSans-67"/>
      <use x="1211.642578" xlink:href="#DejaVuSans-65"/>
      <use x="1273.166016" xlink:href="#DejaVuSans-74"/>
      <use x="1312.375" xlink:href="#DejaVuSans-20"/>
      <use x="1344.162109" xlink:href="#DejaVuSans-70"/>
      <use x="1407.638672" xlink:href="#DejaVuSans-61"/>
      <use x="1468.917969" xlink:href="#DejaVuSans-69"/>
      <use x="1496.701172" xlink:href="#DejaVuSans-72"/>
      <use x="1537.814453" xlink:href="#DejaVuSans-73"/>
     </g>
    </g>
   </g>
   <g id="line2d_27">
    <defs>
     <path d="M 0 1.5 
C 0.397805 1.5 0.77937 1.341951 1.06066 1.06066 
C 1.341951 0.77937 1.5 0.397805 1.5 0 
C 1.5 -0.397805 1.341951 -0.77937 1.06066 -1.06066 
C 0.77937 -1.341951 0.397805 -1.5 0 -1.5 
C -0.397805 -1.5 -0.77937 -1.341951 -1.06066 -1.06066 
C -1.341951 -0.77937 -1.5 -0.397805 -1.5 0 
C -1.5 0.397805 -1.341951 0.77937 -1.06066 1.06066 
C -0.77937 1.341951 -0.397805 1.5 0 1.5 
z
" id="me46b9b8262" style="stroke:#f5deb3;"/>
    </defs>
    <g>
     <use style="fill:#f5deb3;stroke:#f5deb3;" x="123.597026" xlink:href="#me46b9b8262" y="27.513663"/>
     <use style="fill:#f5deb3;stroke:#f5deb3;" x="123.597026" xlink:href="#me46b9b8262" y="27.513663"/>
    </g>
   </g>
   <g id="line2d_28">
    <defs>
     <path d="M 0 1.5 
C 0.397805 1.5 0.77937 1.341951 1.06066 1.06066 
C 1.341951 0.77937 1.5 0.397805 1.5 0 
C 1.5 -0.397805 1.341951 -0.77937 1.06066 -1.06066 
C 0.77937 -1.341951 0.397805 -1.5 0 -1.5 
C -0.397805 -1.5 -0.77937 -1.341951 -1.06066 -1.06066 
C -1.341951 -0.77937 -1.5 -0.397805 -1.5 0 
C -1.5 0.397805 -1.341951 0.77937 -1.06066 1.06066 
C -0.77937 1.341951 -0.397805 1.5 0 1.5 
z
" id="m7e20558732" style="stroke:#000080;"/>
    </defs>
    <g>
     <use style="fill:#000080;stroke:#000080;" x="357.280999" xlink:href="#m7e20558732" y="48.483572"/>
     <use style="fill:#000080;stroke:#000080;" x="357.280999" xlink:href="#m7e20558732" y="48.483572"/>
    </g>
   </g>
   <g id="line2d_29">
    <path d="M 44.194496 294.88 
L 44.194496 267.094871 
L 100.24961 267.094871 
L 100.24961 266.570623 
L 103.822018 266.570623 
L 103.822018 265.522128 
L 104.865056 265.522128 
L 104.865056 264.99788 
L 106.319855 264.99788 
L 106.319855 261.852394 
L 107.661173 261.852394 
L 107.661173 261.328146 
L 109.687614 261.328146 
L 109.687614 257.658412 
L 111.152743 257.658412 
L 111.152743 253.988678 
L 113.754651 253.988678 
L 113.754651 250.843192 
L 115.476574 250.843192 
L 115.476574 249.270448 
L 116.790561 249.270448 
L 116.790561 247.697705 
L 118.704183 247.697705 
L 118.704183 245.076467 
L 122.177263 245.076467 
L 122.177263 244.552219 
L 122.543338 244.552219 
L 122.543338 244.027971 
L 123.252917 244.027971 
L 123.252917 243.503724 
L 124.428341 243.503724 
L 124.428341 242.979476 
L 126.847034 242.979476 
L 126.847034 239.83399 
L 127.126794 239.83399 
L 127.126794 239.309742 
L 127.402078 239.309742 
L 127.402078 238.261246 
L 128.589091 238.261246 
L 128.589091 237.736999 
L 129.091459 237.736999 
L 129.091459 237.212751 
L 129.458837 237.212751 
L 129.458837 236.688503 
L 130.854591 236.688503 
L 130.854591 235.640008 
L 131.295765 235.640008 
L 131.295765 235.11576 
L 132.55522 235.11576 
L 132.55522 233.543017 
L 133.916767 233.543017 
L 133.916767 233.018769 
L 135.437146 233.018769 
L 135.437146 232.494521 
L 135.859892 232.494521 
L 135.859892 231.970274 
L 136.353845 231.970274 
L 136.353845 231.446026 
L 136.515394 231.446026 
L 136.515394 230.921778 
L 136.675441 230.921778 
L 136.675441 229.349035 
L 136.912753 229.349035 
L 136.991135 225.155053 
L 137.224162 225.155053 
L 137.224162 222.533815 
L 138.271738 222.533815 
L 138.271738 218.339833 
L 138.488154 218.339833 
L 138.488154 216.242842 
L 138.630934 216.242842 
L 138.630934 214.670099 
L 138.842906 214.670099 
L 138.842906 209.427622 
L 139.121534 209.427622 
L 139.190491 208.379126 
L 140.257802 208.379126 
L 140.257802 206.806383 
L 140.83029 206.806383 
L 140.83029 206.282136 
L 140.954964 206.282136 
L 140.954964 205.757888 
L 141.07874 205.757888 
L 141.07874 205.23364 
L 141.684608 205.23364 
L 141.684608 202.612401 
L 142.212226 202.612401 
L 142.269864 201.039658 
L 142.498503 201.039658 
L 142.555192 199.991163 
L 142.611694 199.991163 
L 142.611694 199.466915 
L 142.780095 199.466915 
L 142.780095 198.942667 
L 143.967108 198.942667 
L 143.967108 198.41842 
L 144.277114 198.41842 
L 144.277114 197.369924 
L 144.880856 197.369924 
L 144.930224 195.797181 
L 145.028538 195.797181 
L 145.126293 192.127447 
L 145.511852 192.127447 
L 145.559445 191.078952 
L 145.70144 191.078952 
L 145.70144 190.554704 
L 147.743586 190.554704 
L 147.743586 189.506209 
L 148.157184 189.506209 
L 148.157184 188.981961 
L 148.360314 188.981961 
L 148.360314 187.409218 
L 148.720011 187.409218 
L 148.720011 186.88497 
L 149.417601 186.88497 
L 149.417601 186.360722 
L 150.591949 186.360722 
L 150.627387 181.118245 
L 151.922622 181.118245 
L 151.922622 180.593997 
L 152.215616 180.593997 
L 152.215616 180.06975 
L 152.661693 180.06975 
L 152.661693 179.545502 
L 153.03505 179.545502 
L 153.03505 178.497006 
L 153.430582 178.497006 
L 153.430582 177.972759 
L 153.69918 177.972759 
L 153.69918 177.448511 
L 153.905229 177.448511 
L 153.934464 174.827272 
L 154.593515 174.827272 
L 154.593515 174.303025 
L 154.705599 174.303025 
L 154.761369 172.730281 
L 155.173975 172.730281 
L 155.22825 170.109043 
L 156.75685 170.109043 
L 156.855728 168.012052 
L 157.002989 168.012052 
L 157.002989 167.487804 
L 157.767776 167.487804 
L 157.767776 165.915061 
L 158.477592 165.915061 
L 158.477592 165.390813 
L 158.876691 165.390813 
L 158.985929 163.81807 
L 159.007694 163.81807 
L 159.007694 161.196832 
L 159.479677 161.196832 
L 159.585164 159.624089 
L 160.041774 159.624089 
L 160.041774 154.905859 
L 160.306 154.905859 
L 160.306 154.381611 
L 160.52645 154.381611 
L 160.52645 153.333116 
L 161.324105 153.333116 
L 161.324105 152.808868 
L 161.737342 152.808868 
L 161.792931 150.711877 
L 162.068215 150.711877 
L 162.140886 148.614886 
L 162.357076 148.614886 
L 162.357076 146.517896 
L 162.728991 146.517896 
L 162.728991 145.993648 
L 162.95526 145.993648 
L 163.007056 143.896657 
L 163.263722 143.896657 
L 163.263722 143.372409 
L 163.699736 143.372409 
L 163.699736 142.848162 
L 164.189471 142.848162 
L 164.189471 141.799666 
L 164.960555 141.799666 
L 164.960555 141.275418 
L 165.874567 141.275418 
L 165.874567 140.751171 
L 166.335311 140.751171 
L 166.335311 139.702675 
L 166.742463 139.702675 
L 166.742463 138.129932 
L 168.051144 138.129932 
L 168.051144 137.605684 
L 168.756566 137.605684 
L 168.756566 137.081437 
L 169.821371 137.081437 
L 169.925468 136.032941 
L 170.346926 136.032941 
L 170.403096 134.460198 
L 170.736319 134.460198 
L 170.736319 131.838959 
L 171.750862 131.838959 
L 171.750862 131.314712 
L 172.028614 131.314712 
L 172.028614 130.790464 
L 172.551232 130.790464 
L 172.551232 130.266216 
L 172.75787 130.266216 
L 172.75787 129.741969 
L 173.419862 129.741969 
L 173.476241 127.644978 
L 177.356623 127.644978 
L 177.356623 127.12073 
L 178.549624 127.12073 
L 178.549624 126.596482 
L 178.929591 126.596482 
L 178.929591 126.072235 
L 183.90302 126.072235 
L 183.90302 125.547987 
L 184.998358 125.547987 
L 184.998358 125.023739 
L 186.368462 125.023739 
L 186.368462 123.975244 
L 189.044659 123.975244 
L 189.044659 123.450996 
L 189.293354 123.450996 
L 189.293354 122.4025 
L 192.267923 122.4025 
L 192.343286 120.829757 
L 195.361677 120.829757 
L 195.361677 119.257014 
L 201.036456 119.257014 
L 201.036456 118.208519 
L 206.98616 118.208519 
L 206.98616 116.635776 
L 214.201699 116.635776 
L 214.201699 115.58728 
L 215.250841 115.58728 
L 215.250841 114.538785 
L 217.818135 114.538785 
L 217.818135 114.014537 
L 221.877405 114.014537 
L 221.877405 112.441794 
L 222.082228 112.441794 
L 222.082228 110.869051 
L 226.578145 110.869051 
L 226.578145 110.344803 
L 227.895886 110.344803 
L 227.895886 109.820555 
L 229.063948 109.820555 
L 229.063948 109.296308 
L 235.03142 109.296308 
L 235.03142 108.77206 
L 236.43743 108.77206 
L 236.43743 108.247812 
L 238.417975 108.247812 
L 238.417975 107.199317 
L 242.202497 107.199317 
L 242.202497 106.675069 
L 243.724705 106.675069 
L 243.724705 106.150821 
L 243.868001 106.150821 
L 243.868001 105.626573 
L 245.337242 105.626573 
L 245.337242 105.102326 
L 246.08899 105.102326 
L 246.08899 104.578078 
L 252.242713 104.578078 
L 252.242713 104.05383 
L 253.572539 104.05383 
L 253.572539 103.529583 
L 254.648753 103.529583 
L 254.648753 103.005335 
L 255.895134 103.005335 
L 255.895134 102.481087 
L 256.031542 102.481087 
L 256.031542 101.956839 
L 257.204914 101.956839 
L 257.204914 101.432592 
L 259.223922 101.432592 
L 259.223922 100.908344 
L 259.663525 100.908344 
L 259.663525 100.384096 
L 261.965994 100.384096 
L 261.965994 99.335601 
L 263.524906 99.335601 
L 263.524906 98.811353 
L 264.422839 98.811353 
L 264.422839 98.287105 
L 264.540052 98.287105 
L 264.612947 97.23861 
L 269.152651 97.23861 
L 269.152651 95.665867 
L 269.684203 95.665867 
L 269.684203 95.141619 
L 271.776347 95.141619 
L 271.776347 94.617371 
L 272.886973 94.617371 
L 272.886973 94.093124 
L 276.232526 94.093124 
L 276.232526 93.568876 
L 277.218889 93.568876 
L 277.291433 92.520381 
L 280.267434 92.520381 
L 280.267434 91.996133 
L 281.560431 91.996133 
L 281.560431 91.471885 
L 283.254217 91.471885 
L 283.254217 90.42339 
L 289.058131 90.42339 
L 289.058131 89.899142 
L 289.28921 89.899142 
L 289.28921 89.374894 
L 289.545352 89.374894 
L 289.545352 88.850646 
L 290.539089 88.850646 
L 290.539089 88.326399 
L 291.675544 88.326399 
L 291.675544 87.802151 
L 293.821543 87.802151 
L 293.823306 80.986931 
L 294.078326 80.986931 
L 294.078326 80.462683 
L 294.839024 80.462683 
L 294.839024 79.938435 
L 296.028981 79.938435 
L 296.028981 79.414188 
L 299.223384 79.414188 
L 299.223384 78.88994 
L 304.703535 78.88994 
L 304.703535 78.365692 
L 304.930634 78.365692 
L 304.930634 77.841444 
L 305.743328 77.841444 
L 305.744077 73.647463 
L 305.925113 73.647463 
L 305.925113 73.123215 
L 310.417746 73.123215 
L 310.417746 72.598967 
L 312.180513 72.598967 
L 312.180513 72.074719 
L 312.71799 72.074719 
L 312.718649 67.880738 
L 313.064049 67.880738 
L 313.064049 67.35649 
L 313.291493 67.35649 
L 313.291493 66.832242 
L 313.485996 66.832242 
L 313.485996 66.307995 
L 317.666923 66.307995 
L 317.667349 64.735251 
L 318.246132 64.735251 
L 318.246132 64.211004 
L 321.185231 64.211004 
L 321.185231 63.686756 
L 321.505714 63.686756 
L 321.505988 62.114013 
L 321.852124 62.114013 
L 321.852126 61.065517 
L 324.375633 61.065517 
L 324.375633 60.54127 
L 324.642311 60.54127 
L 324.642579 59.492774 
L 327.294311 59.492774 
L 327.294507 57.920031 
L 329.591692 57.920031 
L 329.591869 55.82304 
L 330.177891 55.82304 
L 330.177891 55.298792 
L 333.429677 55.298792 
L 333.429677 55.298792 
" style="fill:none;stroke:#000080;stroke-linecap:square;stroke-width:1.5;"/>
   </g>
   <g id="line2d_30">
    <defs>
     <path d="M 0 6 
C 1.591219 6 3.117479 5.367802 4.242641 4.242641 
C 5.367802 3.117479 6 1.591219 6 0 
C 6 -1.591219 5.367802 -3.117479 4.242641 -4.242641 
C 3.117479 -5.367802 1.591219 -6 0 -6 
C -1.591219 -6 -3.117479 -5.367802 -4.242641 -4.242641 
C -5.367802 -3.117479 -6 -1.591219 -6 0 
C -6 1.591219 -5.367802 3.117479 -4.242641 4.242641 
C -3.117479 5.367802 -1.591219 6 0 6 
z
" id="md06f93fb03" style="stroke:#000080;stroke-width:1.5;"/>
    </defs>
    <g>
     <use style="fill-opacity:0;stroke:#000080;stroke-width:1.5;" x="111.152743" xlink:href="#md06f93fb03" y="253.988678"/>
     <use style="fill-opacity:0;stroke:#000080;stroke-width:1.5;" x="162.357076" xlink:href="#md06f93fb03" y="146.517896"/>
     <use style="fill-opacity:0;stroke:#000080;stroke-width:1.5;" x="243.868001" xlink:href="#md06f93fb03" y="105.626573"/>
     <use style="fill-opacity:0;stroke:#000080;stroke-width:1.5;" x="313.485996" xlink:href="#md06f93fb03" y="66.832242"/>
     <use style="fill-opacity:0;stroke:#000080;stroke-width:1.5;" x="330.177891" xlink:href="#md06f93fb03" y="55.298792"/>
     <use style="fill-opacity:0;stroke:#000080;stroke-width:1.5;" x="333.429677" xlink:href="#md06f93fb03" y="55.298792"/>
    </g>
   </g>
   <g id="line2d_31">
    <path style="fill:none;stroke:#000080;stroke-linecap:square;stroke-width:1.5;"/>
    <g/>
   </g>
   <g id="line2d_32">
    <path clip-path="url(#pd4f232cf17)" d="M 293.814104 87.802151 
" style="fill:none;stroke:#000080;stroke-linecap:square;stroke-width:1.5;"/>
    <defs>
     <path d="M -12 12 
L 12 -12 
M -12 -12 
L 12 12 
" id="m109a483347" style="stroke:#000080;stroke-width:3;"/>
    </defs>
    <g clip-path="url(#pd4f232cf17)">
     <use style="fill:#000080;stroke:#000080;stroke-width:3;" x="293.814104" xlink:href="#m109a483347" y="87.802151"/>
    </g>
   </g>
   <g id="line2d_33">
    <defs>
     <path d="M 0 1.5 
C 0.397805 1.5 0.77937 1.341951 1.06066 1.06066 
C 1.341951 0.77937 1.5 0.397805 1.5 0 
C 1.5 -0.397805 1.341951 -0.77937 1.06066 -1.06066 
C 0.77937 -1.341951 0.397805 -1.5 0 -1.5 
C -0.397805 -1.5 -0.77937 -1.341951 -1.06066 -1.06066 
C -1.341951 -0.77937 -1.5 -0.397805 -1.5 0 
C -1.5 0.397805 -1.341951 0.77937 -1.06066 1.06066 
C -0.77937 1.341951 -0.397805 1.5 0 1.5 
z
" id="m0dd0d7d6c3" style="stroke:#ff00ff;"/>
    </defs>
    <g>
     <use style="fill:#ff00ff;stroke:#ff00ff;" x="321.038838" xlink:href="#m0dd0d7d6c3" y="74.695958"/>
     <use style="fill:#ff00ff;stroke:#ff00ff;" x="321.038838" xlink:href="#m0dd0d7d6c3" y="74.695958"/>
    </g>
   </g>
   <g id="line2d_34">
    <path d="M 44.194496 294.88 
L 44.194496 266.046375 
L 56.12 266.046375 
L 56.12 257.658412 
L 68.045504 257.658412 
L 68.045504 246.124962 
L 71.884659 246.124962 
L 71.884659 242.455228 
L 75.021477 242.455228 
L 75.021477 241.93098 
L 77.673619 241.93098 
L 77.673619 240.882485 
L 83.810164 240.882485 
L 83.810164 237.736999 
L 88.324106 237.736999 
L 88.324106 236.164255 
L 89.599124 236.164255 
L 89.599124 234.591512 
L 90.786137 234.591512 
L 90.786137 233.543017 
L 95.735668 233.543017 
L 95.735668 232.494521 
L 102.711641 232.494521 
L 102.711641 231.446026 
L 104.865056 231.446026 
L 104.865056 230.921778 
L 105.363783 230.921778 
L 105.363783 229.349035 
L 106.778678 229.349035 
L 106.778678 228.824787 
L 107.661173 228.824787 
L 107.661173 228.30054 
L 111.152743 228.30054 
L 111.152743 227.252044 
L 113.450132 227.252044 
L 113.450132 226.203549 
L 119.370261 226.203549 
L 119.370261 225.155053 
L 119.800405 225.155053 
L 119.800405 224.630806 
L 120.01151 224.630806 
L 120.01151 223.058063 
L 120.629716 223.058063 
L 120.629716 222.533815 
L 121.029847 222.533815 
L 121.029847 220.961072 
L 125.221332 220.961072 
L 125.221332 220.436824 
L 131.619377 220.436824 
L 131.619377 219.912576 
L 134.915747 219.912576 
L 134.915747 219.388328 
L 139.997117 219.388328 
L 139.997117 218.339833 
L 140.127953 218.339833 
L 140.127953 217.815585 
L 143.809985 217.815585 
L 143.809985 217.291338 
L 144.277114 217.291338 
L 144.277114 216.242842 
L 144.480724 216.242842 
L 144.480724 215.718594 
L 144.681953 215.718594 
L 144.681953 215.194347 
L 148.720011 215.194347 
L 148.720011 214.670099 
L 151.253087 214.670099 
L 151.253087 214.145851 
L 152.40821 214.145851 
L 152.40821 213.621604 
L 155.173975 213.621604 
L 155.173975 212.573108 
L 155.36319 212.573108 
L 155.36319 212.04886 
L 155.866525 212.04886 
L 155.866525 211.524613 
L 157.07615 211.524613 
L 157.07615 211.000365 
L 159.072822 211.000365 
L 159.072822 209.95187 
L 162.086411 209.95187 
L 162.086411 208.903374 
L 165.683808 208.903374 
L 165.683808 208.379126 
L 171.160079 208.379126 
L 171.160079 207.854879 
L 172.038816 207.854879 
L 172.038816 206.806383 
L 172.521509 206.806383 
L 172.521509 205.23364 
L 172.933034 205.23364 
L 172.933034 203.660897 
L 174.872117 203.660897 
L 174.872117 203.136649 
L 177.792774 203.136649 
L 177.894664 202.088154 
L 177.959848 202.088154 
L 177.959848 201.563906 
L 178.895393 201.563906 
L 178.990976 199.991163 
L 181.096666 199.991163 
L 181.096666 199.466915 
L 182.523764 199.466915 
L 182.523764 194.224438 
L 183.02645 194.224438 
L 183.074847 191.603199 
L 183.171233 191.603199 
L 183.171233 190.554704 
L 184.604948 190.554704 
L 184.604948 190.030456 
L 185.809638 190.030456 
L 185.809638 189.506209 
L 189.021871 189.506209 
L 189.021871 188.457713 
L 189.743807 188.457713 
L 189.743807 187.409218 
L 190.274886 187.409218 
L 190.274886 186.88497 
L 191.32686 186.88497 
L 191.32686 185.836474 
L 192.189066 185.836474 
L 192.189066 185.312227 
L 193.724507 185.312227 
L 193.724507 183.739484 
L 194.493568 183.739484 
L 194.493568 183.215236 
L 195.422041 183.215236 
L 195.422041 182.690988 
L 195.928027 182.690988 
L 195.950907 178.497006 
L 196.18808 178.497006 
L 196.18808 176.924263 
L 196.461534 176.924263 
L 196.461534 175.875768 
L 196.584409 175.875768 
L 196.584409 175.35152 
L 196.73071 175.35152 
L 196.829971 172.206034 
L 197.585624 172.206034 
L 197.585624 170.633291 
L 197.764891 170.633291 
L 197.764891 170.109043 
L 199.963973 170.109043 
L 199.963973 169.584795 
L 200.810011 169.584795 
L 200.810011 169.060547 
L 201.188904 169.060547 
L 201.188904 168.5363 
L 202.539776 168.5363 
L 202.579572 166.439309 
L 202.965792 166.439309 
L 202.987746 165.390813 
L 203.389759 165.390813 
L 203.389759 162.245327 
L 203.566911 162.245327 
L 203.573437 159.624089 
L 203.706683 159.624089 
L 203.730946 157.527098 
L 204.69584 157.527098 
L 204.69584 156.478602 
L 204.828285 156.478602 
L 204.828285 155.430107 
L 206.057204 155.430107 
L 206.057204 154.905859 
L 206.176805 154.905859 
L 206.176805 154.381611 
L 207.094179 154.381611 
L 207.094179 153.857364 
L 207.497534 153.857364 
L 207.497534 152.28462 
L 208.085999 152.28462 
L 208.085999 151.236125 
L 208.333931 151.236125 
L 208.333931 150.711877 
L 209.010669 150.711877 
L 209.010669 150.18763 
L 209.475282 150.18763 
L 209.54229 148.614886 
L 210.072515 148.614886 
L 210.072515 147.566391 
L 210.433199 147.566391 
L 210.433199 143.896657 
L 210.878476 143.896657 
L 210.878476 143.372409 
L 210.997556 143.372409 
L 210.997556 142.323914 
L 211.148407 142.323914 
L 211.148407 141.799666 
L 211.497735 141.799666 
L 211.497735 141.275418 
L 212.769959 141.275418 
L 212.804335 139.178427 
L 212.982743 139.178427 
L 212.982743 138.129932 
L 213.240425 138.129932 
L 213.240425 137.081437 
L 214.162957 137.081437 
L 214.162957 134.984446 
L 214.834591 134.984446 
L 214.834591 133.411703 
L 215.793298 133.411703 
L 215.793298 132.363207 
L 217.454367 132.363207 
L 217.558882 129.741969 
L 217.613066 129.741969 
L 217.626044 128.693473 
L 219.23108 128.693473 
L 219.23108 128.169225 
L 220.406008 128.169225 
L 220.406008 126.596482 
L 220.84077 126.596482 
L 220.84077 126.072235 
L 221.056461 126.072235 
L 221.116585 120.30551 
L 221.343972 120.30551 
L 221.343972 118.732766 
L 221.544876 118.732766 
L 221.591876 116.111528 
L 221.713934 116.111528 
L 221.713934 114.538785 
L 222.184838 114.538785 
L 222.184838 114.014537 
L 223.242703 114.014537 
L 223.242703 113.490289 
L 223.567746 113.490289 
L 223.567746 112.966042 
L 224.913439 112.966042 
L 224.913439 111.393298 
L 225.280408 111.393298 
L 225.280408 110.869051 
L 225.481556 110.869051 
L 225.552179 109.820555 
L 230.569214 109.820555 
L 230.569214 108.77206 
L 231.101014 108.77206 
L 231.101014 105.102326 
L 241.481738 105.102326 
L 241.481738 104.578078 
L 241.688734 104.578078 
L 241.688734 103.529583 
L 255.598266 103.529583 
L 255.598266 103.005335 
L 256.410658 103.005335 
L 256.410658 102.481087 
L 256.550184 102.481087 
L 256.63872 99.335601 
L 256.923449 99.335601 
L 256.923449 98.811353 
L 257.226209 98.811353 
L 257.226209 98.287105 
L 257.359157 98.287105 
L 257.434303 97.23861 
L 258.275268 97.23861 
L 258.275268 96.714362 
L 261.053572 96.714362 
L 261.053572 96.190115 
L 267.221448 96.190115 
L 267.221448 95.141619 
L 267.436755 95.141619 
L 267.477873 93.044628 
L 267.589347 93.044628 
L 267.589347 92.520381 
L 268.898186 92.520381 
L 268.898186 91.471885 
L 273.648249 91.471885 
L 273.648249 90.42339 
L 274.019866 90.42339 
L 274.019866 88.850646 
L 274.633953 88.850646 
L 274.633953 88.326399 
L 275.186257 88.326399 
L 275.186257 87.802151 
L 278.76955 87.802151 
L 278.76955 87.277903 
L 279.23749 87.277903 
L 279.23749 86.753656 
L 282.487673 86.753656 
L 282.487673 85.70516 
L 282.865658 85.70516 
L 282.865658 85.180912 
L 283.210028 85.180912 
L 283.210028 84.656665 
L 285.543327 84.656665 
L 285.543327 84.132417 
L 285.860367 84.132417 
L 285.860367 83.608169 
L 286.150183 83.608169 
L 286.150183 82.559674 
L 292.596852 82.559674 
L 292.596852 82.035426 
L 292.737303 82.035426 
L 292.793304 80.986931 
L 294.174738 80.986931 
L 294.235863 79.938435 
L 294.538668 79.938435 
L 294.538668 79.414188 
L 295.961445 79.414188 
L 295.961445 78.88994 
L 297.264231 78.88994 
L 297.264231 78.365692 
L 297.531565 78.365692 
L 297.531565 77.841444 
L 302.395744 77.841444 
L 302.395744 76.792949 
L 303.196158 76.792949 
L 303.196158 76.268701 
L 306.132059 76.268701 
L 306.132059 75.744454 
L 306.982493 75.744454 
L 306.982493 75.220206 
L 321.038838 75.220206 
L 321.038838 74.695958 
L 333.429677 74.695958 
L 333.429677 74.695958 
" style="fill:none;stroke:#ff00ff;stroke-linecap:square;stroke-width:1.5;"/>
   </g>
   <g id="line2d_35">
    <defs>
     <path d="M -0 8.485281 
L 5.091169 0 
L 0 -8.485281 
L -5.091169 -0 
z
" id="m19f987d832" style="stroke:#ff00ff;stroke-linejoin:miter;stroke-width:1.5;"/>
    </defs>
    <g>
     <use style="fill-opacity:0;stroke:#ff00ff;stroke-linejoin:miter;stroke-width:1.5;" x="107.661173" xlink:href="#m19f987d832" y="228.30054"/>
     <use style="fill-opacity:0;stroke:#ff00ff;stroke-linejoin:miter;stroke-width:1.5;" x="189.021871" xlink:href="#m19f987d832" y="189.506209"/>
     <use style="fill-opacity:0;stroke:#ff00ff;stroke-linejoin:miter;stroke-width:1.5;" x="256.550184" xlink:href="#m19f987d832" y="101.432592"/>
     <use style="fill-opacity:0;stroke:#ff00ff;stroke-linejoin:miter;stroke-width:1.5;" x="321.038838" xlink:href="#m19f987d832" y="74.695958"/>
     <use style="fill-opacity:0;stroke:#ff00ff;stroke-linejoin:miter;stroke-width:1.5;" x="321.038838" xlink:href="#m19f987d832" y="74.695958"/>
     <use style="fill-opacity:0;stroke:#ff00ff;stroke-linejoin:miter;stroke-width:1.5;" x="333.429677" xlink:href="#m19f987d832" y="74.695958"/>
    </g>
   </g>
   <g id="line2d_36">
    <path style="fill:none;stroke:#ff00ff;stroke-linecap:square;stroke-width:1.5;"/>
    <g/>
   </g>
   <g id="line2d_37">
    <path clip-path="url(#pd4f232cf17)" d="M 254.304682 103.529583 
" style="fill:none;stroke:#ff00ff;stroke-linecap:square;stroke-width:1.5;"/>
    <defs>
     <path d="M -12 12 
L 12 -12 
M -12 -12 
L 12 12 
" id="m3b42a46393" style="stroke:#ff00ff;stroke-width:3;"/>
    </defs>
    <g clip-path="url(#pd4f232cf17)">
     <use style="fill:#ff00ff;stroke:#ff00ff;stroke-width:3;" x="254.304682" xlink:href="#m3b42a46393" y="103.529583"/>
    </g>
   </g>
   <g id="line2d_38">
    <defs>
     <path d="M 0 1.5 
C 0.397805 1.5 0.77937 1.341951 1.06066 1.06066 
C 1.341951 0.77937 1.5 0.397805 1.5 0 
C 1.5 -0.397805 1.341951 -0.77937 1.06066 -1.06066 
C 0.77937 -1.341951 0.397805 -1.5 0 -1.5 
C -0.397805 -1.5 -0.77937 -1.341951 -1.06066 -1.06066 
C -1.341951 -0.77937 -1.5 -0.397805 -1.5 0 
C -1.5 0.397805 -1.341951 0.77937 -1.06066 1.06066 
C -0.77937 1.341951 -0.397805 1.5 0 1.5 
z
" id="m464f4b0488" style="stroke:#ffa500;"/>
    </defs>
    <g>
     <use style="fill:#ffa500;stroke:#ffa500;" x="156.406229" xlink:href="#m464f4b0488" y="27.513663"/>
     <use style="fill:#ffa500;stroke:#ffa500;" x="156.406229" xlink:href="#m464f4b0488" y="27.513663"/>
    </g>
   </g>
   <g id="line2d_39">
    <path d="M 44.194496 294.88 
L 44.194496 272.337348 
L 71.884659 272.337348 
L 71.884659 271.8131 
L 75.021477 271.8131 
L 75.021477 267.619119 
L 77.673619 267.619119 
L 77.673619 267.094871 
L 79.971009 267.094871 
L 79.971009 262.376641 
L 81.99745 262.376641 
L 81.99745 260.803898 
L 83.810164 260.803898 
L 83.810164 255.561421 
L 85.449963 255.561421 
L 85.449963 252.415935 
L 86.946982 252.415935 
L 86.946982 247.173458 
L 88.324106 247.173458 
L 88.324106 240.882485 
L 89.599124 240.882485 
L 89.599124 231.970274 
L 90.786137 231.970274 
L 90.786137 230.397531 
L 91.896513 230.397531 
L 91.896513 224.106558 
L 92.939552 224.106558 
L 92.939552 221.485319 
L 93.922955 221.485319 
L 93.922955 219.388328 
L 96.575096 219.388328 
L 96.575096 216.76709 
L 98.140254 216.76709 
L 98.140254 216.242842 
L 100.24961 216.242842 
L 100.24961 208.379126 
L 100.898928 208.379126 
L 100.898928 205.23364 
L 101.524628 205.23364 
L 101.524628 200.515411 
L 102.128369 200.515411 
L 102.128369 198.942667 
L 102.711641 198.942667 
L 102.711641 196.845677 
L 103.275786 196.845677 
L 103.275786 194.224438 
L 103.822018 194.224438 
L 103.822018 192.651695 
L 104.35144 192.651695 
L 104.35144 192.127447 
L 104.865056 192.127447 
L 104.865056 184.787979 
L 105.363783 184.787979 
L 105.363783 184.263731 
L 105.848459 184.263731 
L 105.848459 182.16674 
L 106.319855 182.16674 
L 106.319855 181.118245 
L 106.778678 181.118245 
L 106.778678 180.593997 
L 108.086006 180.593997 
L 108.086006 177.448511 
L 108.500601 177.448511 
L 108.500601 174.303025 
L 108.90544 174.303025 
L 108.90544 173.254529 
L 109.300972 173.254529 
L 109.300972 172.730281 
L 110.065758 172.730281 
L 110.065758 172.206034 
L 110.43577 172.206034 
L 110.43577 171.157538 
L 110.797991 171.157538 
L 110.797991 166.963557 
L 111.152743 166.963557 
L 111.152743 165.915061 
L 112.502836 165.915061 
L 112.502836 164.342318 
L 113.450132 164.342318 
L 113.450132 162.245327 
L 114.053874 162.245327 
L 114.053874 161.721079 
L 114.637146 161.721079 
L 114.637146 160.672584 
L 116.01427 160.672584 
L 116.01427 160.148336 
L 116.276944 160.148336 
L 116.276944 159.099841 
L 116.535669 159.099841 
L 116.535669 158.051345 
L 116.790561 158.051345 
L 116.790561 157.00285 
L 117.533332 157.00285 
L 117.533332 156.478602 
L 118.4763 156.478602 
L 118.4763 154.381611 
L 119.370261 154.381611 
L 119.370261 153.857364 
L 119.586677 153.857364 
L 119.586677 153.333116 
L 120.01151 153.333116 
L 120.01151 152.808868 
L 120.426105 152.808868 
L 120.426105 151.236125 
L 121.226476 151.236125 
L 121.226476 150.18763 
L 121.420883 150.18763 
L 121.420883 149.663382 
L 121.613118 149.663382 
L 121.613118 148.090639 
L 121.991263 148.090639 
L 121.991263 145.4694 
L 122.177263 145.4694 
L 122.177263 144.945152 
L 122.361274 144.945152 
L 122.361274 140.751171 
L 122.543338 140.751171 
L 122.543338 135.508693 
L 123.078247 135.508693 
L 123.078247 134.984446 
L 123.252917 134.984446 
L 123.252917 132.887455 
L 123.425832 132.887455 
L 123.425832 131.314712 
L 123.597026 131.314712 
L 123.597026 130.790464 
L 123.766534 130.790464 
L 123.766534 130.266216 
L 123.934387 130.266216 
L 123.934387 129.217721 
L 124.749936 129.217721 
L 124.749936 123.975244 
L 124.908508 123.975244 
L 124.908508 122.4025 
L 125.065631 122.4025 
L 125.065631 120.30551 
L 125.375637 120.30551 
L 125.375637 118.208519 
L 125.52857 118.208519 
L 125.52857 116.635776 
L 125.680156 116.635776 
L 125.680156 114.014537 
L 125.979378 114.014537 
L 125.979378 112.966042 
L 126.12706 112.966042 
L 126.12706 111.917546 
L 126.273486 111.917546 
L 126.273486 109.296308 
L 126.56265 109.296308 
L 126.56265 108.77206 
L 126.70543 108.77206 
L 126.70543 108.247812 
L 126.847034 108.247812 
L 126.847034 102.481087 
L 127.538086 102.481087 
L 127.538086 101.432592 
L 127.673027 101.432592 
L 127.673027 100.384096 
L 127.806917 100.384096 
L 127.806917 99.859849 
L 127.939774 99.859849 
L 127.939774 97.762858 
L 128.202449 97.762858 
L 128.202449 96.714362 
L 128.589091 96.714362 
L 128.589091 95.665867 
L 128.967235 95.665867 
L 128.967235 94.617371 
L 129.091459 94.617371 
L 129.091459 94.093124 
L 129.214792 94.093124 
L 129.214792 93.044628 
L 129.93678 93.044628 
L 129.93678 92.520381 
L 130.170864 92.520381 
L 130.170864 90.42339 
L 130.286722 90.42339 
L 130.286722 89.374894 
L 130.965949 89.374894 
L 131.076592 87.802151 
L 131.937015 87.802151 
L 131.937015 87.277903 
L 132.856187 87.277903 
L 132.955351 85.70516 
L 133.053947 85.70516 
L 133.15198 83.608169 
L 133.728734 83.608169 
L 133.728734 83.083922 
L 133.916767 83.083922 
L 134.010019 81.511178 
L 134.102767 81.511178 
L 134.102767 79.938435 
L 134.559157 79.938435 
L 134.648999 76.792949 
L 135.178422 76.792949 
L 135.265096 74.17171 
L 135.351336 74.17171 
L 135.351336 72.074719 
L 135.859892 72.074719 
L 135.859892 69.977729 
L 136.026124 69.977729 
L 136.026124 68.929233 
L 136.272498 68.929233 
L 136.353845 66.832242 
L 136.434809 66.832242 
L 136.434809 65.259499 
L 136.595604 65.259499 
L 136.595604 64.735251 
L 136.912753 64.735251 
L 136.991135 62.638261 
L 137.069162 62.638261 
L 137.146836 61.065517 
L 137.377778 61.065517 
L 137.377778 60.54127 
L 137.680955 60.54127 
L 137.680955 60.017022 
L 137.904883 60.017022 
L 137.904883 59.492774 
L 138.125933 59.492774 
L 138.19899 57.395783 
L 138.34418 57.395783 
L 138.34418 56.871536 
L 138.488154 56.871536 
L 138.488154 56.347288 
L 138.630934 56.347288 
L 138.630934 55.298792 
L 138.772539 55.298792 
L 138.842906 54.250297 
L 138.982784 54.250297 
L 139.052299 50.580563 
L 139.531193 50.580563 
L 139.531193 49.532068 
L 139.732422 49.532068 
L 139.798978 48.483572 
L 140.127953 48.483572 
L 140.127953 47.435077 
L 140.450756 47.435077 
L 140.450756 45.862334 
L 140.5782 45.862334 
L 140.5782 44.813838 
L 140.83029 44.813838 
L 140.83029 43.765343 
L 141.262751 43.765343 
L 141.323654 42.192599 
L 141.684608 42.192599 
L 141.744038 41.144104 
L 141.862285 41.144104 
L 141.862285 40.619856 
L 143.651414 40.619856 
L 143.651414 40.095609 
L 145.368278 40.095609 
L 145.368278 39.571361 
L 145.559445 39.571361 
L 145.559445 39.047113 
L 145.88896 39.047113 
L 145.88896 38.522865 
L 146.028272 38.522865 
L 146.028272 37.998618 
L 146.166464 37.998618 
L 146.212283 36.425875 
L 147.743586 36.425875 
L 147.743586 35.901627 
L 149.830387 35.901627 
L 149.941267 34.853131 
L 150.269684 34.853131 
L 150.269684 34.328884 
L 150.977803 34.328884 
L 150.977803 33.804636 
L 151.591111 33.804636 
L 151.591111 32.756141 
L 151.922622 32.756141 
L 152.020842 31.183397 
L 152.280054 31.183397 
L 152.280054 30.65915 
L 152.535418 30.65915 
L 152.535418 30.134902 
L 153.218734 30.134902 
L 153.218734 28.562159 
L 156.202619 28.562159 
L 156.202619 28.037911 
L 156.406229 28.037911 
L 156.406229 27.513663 
L 333.429677 27.513663 
L 333.429677 27.513663 
" style="fill:none;stroke:#ffa500;stroke-linecap:square;stroke-width:1.5;"/>
   </g>
   <g id="line2d_40">
    <defs>
     <path d="M 0 -6 
L -1.347084 -1.854102 
L -5.706339 -1.854102 
L -2.179628 0.708204 
L -3.526712 4.854102 
L -0 2.291796 
L 3.526712 4.854102 
L 2.179628 0.708204 
L 5.706339 -1.854102 
L 1.347084 -1.854102 
z
" id="m02a07df183" style="stroke:#ffa500;stroke-linejoin:bevel;stroke-width:1.5;"/>
    </defs>
    <g>
     <use style="fill-opacity:0;stroke:#ffa500;stroke-linejoin:bevel;stroke-width:1.5;" x="86.946982" xlink:href="#m02a07df183" y="252.415935"/>
     <use style="fill-opacity:0;stroke:#ffa500;stroke-linejoin:bevel;stroke-width:1.5;" x="117.533332" xlink:href="#m02a07df183" y="156.478602"/>
     <use style="fill-opacity:0;stroke:#ffa500;stroke-linejoin:bevel;stroke-width:1.5;" x="146.212283" xlink:href="#m02a07df183" y="36.425875"/>
     <use style="fill-opacity:0;stroke:#ffa500;stroke-linejoin:bevel;stroke-width:1.5;" x="156.406229" xlink:href="#m02a07df183" y="27.513663"/>
     <use style="fill-opacity:0;stroke:#ffa500;stroke-linejoin:bevel;stroke-width:1.5;" x="156.406229" xlink:href="#m02a07df183" y="27.513663"/>
     <use style="fill-opacity:0;stroke:#ffa500;stroke-linejoin:bevel;stroke-width:1.5;" x="333.429677" xlink:href="#m02a07df183" y="27.513663"/>
    </g>
   </g>
   <g id="line2d_41">
    <path style="fill:none;stroke:#ffa500;stroke-linecap:square;stroke-width:1.5;"/>
    <g/>
   </g>
   <g id="line2d_42">
    <defs>
     <path d="M 0 1.5 
C 0.397805 1.5 0.77937 1.341951 1.06066 1.06066 
C 1.341951 0.77937 1.5 0.397805 1.5 0 
C 1.5 -0.397805 1.341951 -0.77937 1.06066 -1.06066 
C 0.77937 -1.341951 0.397805 -1.5 0 -1.5 
C -0.397805 -1.5 -0.77937 -1.341951 -1.06066 -1.06066 
C -1.341951 -0.77937 -1.5 -0.397805 -1.5 0 
C -1.5 0.397805 -1.341951 0.77937 -1.06066 1.06066 
C -0.77937 1.341951 -0.397805 1.5 0 1.5 
z
" id="ma7e93a4226" style="stroke:#6495ed;"/>
    </defs>
    <g>
     <use style="fill:#6495ed;stroke:#6495ed;" x="159.266743" xlink:href="#ma7e93a4226" y="195.272933"/>
     <use style="fill:#6495ed;stroke:#6495ed;" x="159.266743" xlink:href="#ma7e93a4226" y="195.272933"/>
    </g>
   </g>
   <g id="line2d_43">
    <path d="M 44.194496 294.88 
L 44.194496 263.425137 
L 56.12 263.425137 
L 56.12 259.231155 
L 63.095973 259.231155 
L 63.095973 257.658412 
L 68.045504 257.658412 
L 68.045504 253.988678 
L 71.884659 253.988678 
L 71.884659 251.367439 
L 75.021477 251.367439 
L 75.021477 248.221953 
L 77.673619 248.221953 
L 77.673619 244.552219 
L 83.810164 244.552219 
L 83.810164 241.93098 
L 85.449963 241.93098 
L 85.449963 237.736999 
L 88.324106 237.736999 
L 88.324106 237.212751 
L 89.599124 237.212751 
L 89.599124 236.164255 
L 90.786137 236.164255 
L 90.786137 235.640008 
L 94.853174 235.640008 
L 94.853174 234.067265 
L 95.735668 234.067265 
L 95.735668 231.970274 
L 96.575096 231.970274 
L 96.575096 231.446026 
L 97.375467 231.446026 
L 97.375467 230.921778 
L 98.140254 230.921778 
L 98.140254 230.397531 
L 101.524628 230.397531 
L 101.524628 229.349035 
L 102.128369 229.349035 
L 102.128369 224.106558 
L 103.275786 224.106558 
L 103.275786 223.58231 
L 106.778678 223.58231 
L 106.778678 222.009567 
L 110.065758 222.009567 
L 110.065758 221.485319 
L 110.43577 221.485319 
L 110.43577 220.436824 
L 111.500328 220.436824 
L 111.500328 219.912576 
L 113.450132 219.912576 
L 113.450132 218.864081 
L 116.01427 218.864081 
L 116.01427 217.815585 
L 116.535669 217.815585 
L 116.535669 216.76709 
L 118.245359 216.76709 
L 118.245359 213.621604 
L 120.220057 213.621604 
L 120.220057 212.04886 
L 121.991263 212.04886 
L 121.991263 210.476117 
L 123.597026 210.476117 
L 123.597026 209.427622 
L 125.065631 209.427622 
L 125.065631 207.854879 
L 127.673027 207.854879 
L 127.673027 206.806383 
L 128.842109 206.806383 
L 128.842109 204.709392 
L 129.93678 204.709392 
L 129.93678 204.185145 
L 131.937015 204.185145 
L 131.937015 203.660897 
L 134.559157 203.660897 
L 134.559157 203.136649 
L 135.351336 203.136649 
L 135.351336 202.088154 
L 136.108641 202.088154 
L 136.108641 201.039658 
L 137.530034 201.039658 
L 137.530034 199.991163 
L 138.842906 199.991163 
L 138.842906 198.942667 
L 139.46359 198.942667 
L 139.46359 198.41842 
L 140.641569 198.41842 
L 140.641569 197.894172 
L 142.269864 197.894172 
L 142.269864 197.369924 
L 146.394347 197.369924 
L 146.394347 196.845677 
L 147.190601 196.845677 
L 147.190601 196.321429 
L 148.319879 196.321429 
L 148.319879 195.797181 
L 159.266743 195.797181 
L 159.266743 195.272933 
L 333.429677 195.272933 
" style="fill:none;stroke:#6495ed;stroke-linecap:square;stroke-width:1.5;"/>
   </g>
   <g id="line2d_44">
    <defs>
     <path d="M -0 6 
L 6 -6 
L -6 -6 
z
" id="mce11d1df85" style="stroke:#6495ed;stroke-linejoin:miter;stroke-width:1.5;"/>
    </defs>
    <g>
     <use style="fill-opacity:0;stroke:#6495ed;stroke-linejoin:miter;stroke-width:1.5;" x="106.778678" xlink:href="#mce11d1df85" y="222.009567"/>
     <use style="fill-opacity:0;stroke:#6495ed;stroke-linejoin:miter;stroke-width:1.5;" x="159.266743" xlink:href="#mce11d1df85" y="195.797181"/>
     <use style="fill-opacity:0;stroke:#6495ed;stroke-linejoin:miter;stroke-width:1.5;" x="159.266743" xlink:href="#mce11d1df85" y="195.797181"/>
     <use style="fill-opacity:0;stroke:#6495ed;stroke-linejoin:miter;stroke-width:1.5;" x="159.266743" xlink:href="#mce11d1df85" y="195.272933"/>
     <use style="fill-opacity:0;stroke:#6495ed;stroke-linejoin:miter;stroke-width:1.5;" x="159.266743" xlink:href="#mce11d1df85" y="195.272933"/>
     <use style="fill-opacity:0;stroke:#6495ed;stroke-linejoin:miter;stroke-width:1.5;" x="333.429677" xlink:href="#mce11d1df85" y="195.272933"/>
    </g>
   </g>
   <g id="line2d_45">
    <path style="fill:none;stroke:#6495ed;stroke-linecap:square;stroke-width:1.5;"/>
    <g/>
   </g>
   <g id="line2d_46">
    <path clip-path="url(#pd4f232cf17)" d="M 81.99745 244.552219 
" style="fill:none;stroke:#6495ed;stroke-linecap:square;stroke-width:1.5;"/>
    <defs>
     <path d="M -12 12 
L 12 -12 
M -12 -12 
L 12 12 
" id="mc09018c6cd" style="stroke:#6495ed;stroke-width:3;"/>
    </defs>
    <g clip-path="url(#pd4f232cf17)">
     <use style="fill:#6495ed;stroke:#6495ed;stroke-width:3;" x="81.99745" xlink:href="#mc09018c6cd" y="244.552219"/>
    </g>
   </g>
   <g id="line2d_47">
    <path d="M 333.429677 195.272933 
L 363.933742 289.532673 
" style="fill:none;stroke:#6495ed;stroke-linecap:square;stroke-width:1.5;"/>
    <g>
     <use style="fill-opacity:0;stroke:#6495ed;stroke-linejoin:miter;stroke-width:1.5;" x="333.429677" xlink:href="#mce11d1df85" y="195.272933"/>
     <use style="fill-opacity:0;stroke:#6495ed;stroke-linejoin:miter;stroke-width:1.5;" x="363.933742" xlink:href="#mce11d1df85" y="289.532673"/>
    </g>
   </g>
   <g id="line2d_48">
    <path d="M 333.429677 74.695958 
L 363.933742 225.364752 
" style="fill:none;stroke:#ff00ff;stroke-linecap:square;stroke-width:1.5;"/>
    <g>
     <use style="fill-opacity:0;stroke:#ff00ff;stroke-linejoin:miter;stroke-width:1.5;" x="333.429677" xlink:href="#m19f987d832" y="74.695958"/>
     <use style="fill-opacity:0;stroke:#ff00ff;stroke-linejoin:miter;stroke-width:1.5;" x="363.933742" xlink:href="#m19f987d832" y="225.364752"/>
    </g>
   </g>
   <g id="line2d_49">
    <path d="M 333.429677 55.298792 
L 363.933742 161.196832 
" style="fill:none;stroke:#000080;stroke-linecap:square;stroke-width:1.5;"/>
    <g>
     <use style="fill-opacity:0;stroke:#000080;stroke-width:1.5;" x="333.429677" xlink:href="#md06f93fb03" y="55.298792"/>
     <use style="fill-opacity:0;stroke:#000080;stroke-width:1.5;" x="363.933742" xlink:href="#md06f93fb03" y="161.196832"/>
    </g>
   </g>
   <g id="line2d_50">
    <path d="M 333.429677 27.513663 
L 363.933742 97.028911 
" style="fill:none;stroke:#ffa500;stroke-linecap:square;stroke-width:1.5;"/>
    <g>
     <use style="fill-opacity:0;stroke:#ffa500;stroke-linejoin:bevel;stroke-width:1.5;" x="333.429677" xlink:href="#m02a07df183" y="27.513663"/>
     <use style="fill-opacity:0;stroke:#ffa500;stroke-linejoin:bevel;stroke-width:1.5;" x="363.933742" xlink:href="#m02a07df183" y="97.028911"/>
    </g>
   </g>
   <g id="line2d_51">
    <path d="M 333.429677 294.88 
L 333.429677 27.513663 
" style="fill:none;stroke:#000000;stroke-linecap:square;stroke-width:1.5;"/>
   </g>
   <g id="patch_3">
    <path d="M 56.12 294.88 
L 56.12 24.84 
" style="fill:none;stroke:#000000;stroke-linecap:square;stroke-linejoin:miter;stroke-width:0.8;"/>
   </g>
   <g id="patch_4">
    <path d="M 399.984 294.88 
L 399.984 24.84 
" style="fill:none;stroke:#000000;stroke-linecap:square;stroke-linejoin:miter;stroke-width:0.8;"/>
   </g>
   <g id="patch_5">
    <path d="M 56.12 294.88 
L 399.984 294.88 
" style="fill:none;stroke:#000000;stroke-linecap:square;stroke-linejoin:miter;stroke-width:0.8;"/>
   </g>
   <g id="patch_6">
    <path d="M 56.12 24.84 
L 399.984 24.84 
" style="fill:none;stroke:#000000;stroke-linecap:square;stroke-linejoin:miter;stroke-width:0.8;"/>
   </g>
   <g id="text_14">
    <!-- hybrid -->
    <defs>
     <path d="M 54.890625 33.015625 
L 54.890625 0 
L 45.90625 0 
L 45.90625 32.71875 
Q 45.90625 40.484375 42.875 44.328125 
Q 39.84375 48.1875 33.796875 48.1875 
Q 26.515625 48.1875 22.3125 43.546875 
Q 18.109375 38.921875 18.109375 30.90625 
L 18.109375 0 
L 9.078125 0 
L 9.078125 75.984375 
L 18.109375 75.984375 
L 18.109375 46.1875 
Q 21.34375 51.125 25.703125 53.5625 
Q 30.078125 56 35.796875 56 
Q 45.21875 56 50.046875 50.171875 
Q 54.890625 44.34375 54.890625 33.015625 
z
" id="DejaVuSans-68"/>
     <path d="M 32.171875 -5.078125 
Q 28.375 -14.84375 24.75 -17.8125 
Q 21.140625 -20.796875 15.09375 -20.796875 
L 7.90625 -20.796875 
L 7.90625 -13.28125 
L 13.1875 -13.28125 
Q 16.890625 -13.28125 18.9375 -11.515625 
Q 21 -9.765625 23.484375 -3.21875 
L 25.09375 0.875 
L 2.984375 54.6875 
L 12.5 54.6875 
L 29.59375 11.921875 
L 46.6875 54.6875 
L 56.203125 54.6875 
z
" id="DejaVuSans-79"/>
     <path d="M 48.6875 27.296875 
Q 48.6875 37.203125 44.609375 42.84375 
Q 40.53125 48.484375 33.40625 48.484375 
Q 26.265625 48.484375 22.1875 42.84375 
Q 18.109375 37.203125 18.109375 27.296875 
Q 18.109375 17.390625 22.1875 11.75 
Q 26.265625 6.109375 33.40625 6.109375 
Q 40.53125 6.109375 44.609375 11.75 
Q 48.6875 17.390625 48.6875 27.296875 
z
M 18.109375 46.390625 
Q 20.953125 51.265625 25.265625 53.625 
Q 29.59375 56 35.59375 56 
Q 45.5625 56 51.78125 48.09375 
Q 58.015625 40.1875 58.015625 27.296875 
Q 58.015625 14.40625 51.78125 6.484375 
Q 45.5625 -1.421875 35.59375 -1.421875 
Q 29.59375 -1.421875 25.265625 0.953125 
Q 20.953125 3.328125 18.109375 8.203125 
L 18.109375 0 
L 9.078125 0 
L 9.078125 75.984375 
L 18.109375 75.984375 
z
" id="DejaVuSans-62"/>
    </defs>
    <g transform="translate(369.479935 294.223611)scale(0.17 -0.17)">
     <use xlink:href="#DejaVuSans-68"/>
     <use x="63.378906" xlink:href="#DejaVuSans-79"/>
     <use x="122.558594" xlink:href="#DejaVuSans-62"/>
     <use x="186.035156" xlink:href="#DejaVuSans-72"/>
     <use x="227.148438" xlink:href="#DejaVuSans-69"/>
     <use x="254.931641" xlink:href="#DejaVuSans-64"/>
    </g>
   </g>
   <g id="text_15">
    <!-- GA -->
    <defs>
     <path d="M 59.515625 10.40625 
L 59.515625 29.984375 
L 43.40625 29.984375 
L 43.40625 38.09375 
L 69.28125 38.09375 
L 69.28125 6.78125 
Q 63.578125 2.734375 56.6875 0.65625 
Q 49.8125 -1.421875 42 -1.421875 
Q 24.90625 -1.421875 15.25 8.5625 
Q 5.609375 18.5625 5.609375 36.375 
Q 5.609375 54.25 15.25 64.234375 
Q 24.90625 74.21875 42 74.21875 
Q 49.125 74.21875 55.546875 72.453125 
Q 61.96875 70.703125 67.390625 67.28125 
L 67.390625 56.78125 
Q 61.921875 61.421875 55.765625 63.765625 
Q 49.609375 66.109375 42.828125 66.109375 
Q 29.4375 66.109375 22.71875 58.640625 
Q 16.015625 51.171875 16.015625 36.375 
Q 16.015625 21.625 22.71875 14.15625 
Q 29.4375 6.6875 42.828125 6.6875 
Q 48.046875 6.6875 52.140625 7.59375 
Q 56.25 8.5 59.515625 10.40625 
z
" id="DejaVuSans-47"/>
     <path d="M 34.1875 63.1875 
L 20.796875 26.90625 
L 47.609375 26.90625 
z
M 28.609375 72.90625 
L 39.796875 72.90625 
L 67.578125 0 
L 57.328125 0 
L 50.6875 18.703125 
L 17.828125 18.703125 
L 11.1875 0 
L 0.78125 0 
z
" id="DejaVuSans-41"/>
    </defs>
    <g transform="translate(369.479935 230.05569)scale(0.17 -0.17)">
     <use xlink:href="#DejaVuSans-47"/>
     <use x="77.490234" xlink:href="#DejaVuSans-41"/>
    </g>
   </g>
   <g id="text_16">
    <!-- DASA -->
    <defs>
     <path d="M 19.671875 64.796875 
L 19.671875 8.109375 
L 31.59375 8.109375 
Q 46.6875 8.109375 53.6875 14.9375 
Q 60.6875 21.78125 60.6875 36.53125 
Q 60.6875 51.171875 53.6875 57.984375 
Q 46.6875 64.796875 31.59375 64.796875 
z
M 9.8125 72.90625 
L 30.078125 72.90625 
Q 51.265625 72.90625 61.171875 64.09375 
Q 71.09375 55.28125 71.09375 36.53125 
Q 71.09375 17.671875 61.125 8.828125 
Q 51.171875 0 30.078125 0 
L 9.8125 0 
z
" id="DejaVuSans-44"/>
     <path d="M 53.515625 70.515625 
L 53.515625 60.890625 
Q 47.90625 63.578125 42.921875 64.890625 
Q 37.9375 66.21875 33.296875 66.21875 
Q 25.25 66.21875 20.875 63.09375 
Q 16.5 59.96875 16.5 54.203125 
Q 16.5 49.359375 19.40625 46.890625 
Q 22.3125 44.4375 30.421875 42.921875 
L 36.375 41.703125 
Q 47.40625 39.59375 52.65625 34.296875 
Q 57.90625 29 57.90625 20.125 
Q 57.90625 9.515625 50.796875 4.046875 
Q 43.703125 -1.421875 29.984375 -1.421875 
Q 24.8125 -1.421875 18.96875 -0.25 
Q 13.140625 0.921875 6.890625 3.21875 
L 6.890625 13.375 
Q 12.890625 10.015625 18.65625 8.296875 
Q 24.421875 6.59375 29.984375 6.59375 
Q 38.421875 6.59375 43.015625 9.90625 
Q 47.609375 13.234375 47.609375 19.390625 
Q 47.609375 24.75 44.3125 27.78125 
Q 41.015625 30.8125 33.5 32.328125 
L 27.484375 33.5 
Q 16.453125 35.6875 11.515625 40.375 
Q 6.59375 45.0625 6.59375 53.421875 
Q 6.59375 63.09375 13.40625 68.65625 
Q 20.21875 74.21875 32.171875 74.21875 
Q 37.3125 74.21875 42.625 73.28125 
Q 47.953125 72.359375 53.515625 70.515625 
z
" id="DejaVuSans-53"/>
    </defs>
    <g transform="translate(369.479935 165.887769)scale(0.17 -0.17)">
     <use xlink:href="#DejaVuSans-44"/>
     <use x="76.986328" xlink:href="#DejaVuSans-41"/>
     <use x="145.394531" xlink:href="#DejaVuSans-53"/>
     <use x="208.886719" xlink:href="#DejaVuSans-41"/>
    </g>
   </g>
   <g id="text_17">
    <!-- Rosenbroc -->
    <defs>
     <path d="M 44.390625 34.1875 
Q 47.5625 33.109375 50.5625 29.59375 
Q 53.5625 26.078125 56.59375 19.921875 
L 66.609375 0 
L 56 0 
L 46.6875 18.703125 
Q 43.0625 26.03125 39.671875 28.421875 
Q 36.28125 30.8125 30.421875 30.8125 
L 19.671875 30.8125 
L 19.671875 0 
L 9.8125 0 
L 9.8125 72.90625 
L 32.078125 72.90625 
Q 44.578125 72.90625 50.734375 67.671875 
Q 56.890625 62.453125 56.890625 51.90625 
Q 56.890625 45.015625 53.6875 40.46875 
Q 50.484375 35.9375 44.390625 34.1875 
z
M 19.671875 64.796875 
L 19.671875 38.921875 
L 32.078125 38.921875 
Q 39.203125 38.921875 42.84375 42.21875 
Q 46.484375 45.515625 46.484375 51.90625 
Q 46.484375 58.296875 42.84375 61.546875 
Q 39.203125 64.796875 32.078125 64.796875 
z
" id="DejaVuSans-52"/>
    </defs>
    <g transform="translate(369.479935 101.719848)scale(0.17 -0.17)">
     <use xlink:href="#DejaVuSans-52"/>
     <use x="69.419922" xlink:href="#DejaVuSans-6f"/>
     <use x="130.601562" xlink:href="#DejaVuSans-73"/>
     <use x="182.701172" xlink:href="#DejaVuSans-65"/>
     <use x="244.224609" xlink:href="#DejaVuSans-6e"/>
     <use x="307.603516" xlink:href="#DejaVuSans-62"/>
     <use x="371.080078" xlink:href="#DejaVuSans-72"/>
     <use x="412.162109" xlink:href="#DejaVuSans-6f"/>
     <use x="473.34375" xlink:href="#DejaVuSans-63"/>
    </g>
   </g>
   <g id="text_18">
    <!-- best 2009 -->
    <defs>
     <path d="M 10.984375 1.515625 
L 10.984375 10.5 
Q 14.703125 8.734375 18.5 7.8125 
Q 22.3125 6.890625 25.984375 6.890625 
Q 35.75 6.890625 40.890625 13.453125 
Q 46.046875 20.015625 46.78125 33.40625 
Q 43.953125 29.203125 39.59375 26.953125 
Q 35.25 24.703125 29.984375 24.703125 
Q 19.046875 24.703125 12.671875 31.3125 
Q 6.296875 37.9375 6.296875 49.421875 
Q 6.296875 60.640625 12.9375 67.421875 
Q 19.578125 74.21875 30.609375 74.21875 
Q 43.265625 74.21875 49.921875 64.515625 
Q 56.59375 54.828125 56.59375 36.375 
Q 56.59375 19.140625 48.40625 8.859375 
Q 40.234375 -1.421875 26.421875 -1.421875 
Q 22.703125 -1.421875 18.890625 -0.6875 
Q 15.09375 0.046875 10.984375 1.515625 
z
M 30.609375 32.421875 
Q 37.25 32.421875 41.125 36.953125 
Q 45.015625 41.5 45.015625 49.421875 
Q 45.015625 57.28125 41.125 61.84375 
Q 37.25 66.40625 30.609375 66.40625 
Q 23.96875 66.40625 20.09375 61.84375 
Q 16.21875 57.28125 16.21875 49.421875 
Q 16.21875 41.5 20.09375 36.953125 
Q 23.96875 32.421875 30.609375 32.421875 
z
" id="DejaVuSans-39"/>
    </defs>
    <g transform="translate(369.479935 37.551928)scale(0.17 -0.17)">
     <use xlink:href="#DejaVuSans-62"/>
     <use x="63.476562" xlink:href="#DejaVuSans-65"/>
     <use x="125" xlink:href="#DejaVuSans-73"/>
     <use x="177.099609" xlink:href="#DejaVuSans-74"/>
     <use x="216.308594" xlink:href="#DejaVuSans-20"/>
     <use x="248.095703" xlink:href="#DejaVuSans-32"/>
     <use x="311.71875" xlink:href="#DejaVuSans-30"/>
     <use x="375.341797" xlink:href="#DejaVuSans-30"/>
     <use x="438.964844" xlink:href="#DejaVuSans-39"/>
    </g>
   </g>
   <g id="text_19">
    <!-- bbob f14, 2-D -->
    <g transform="translate(59.55864 35.290806)scale(0.102 -0.102)">
     <use xlink:href="#DejaVuSans-62"/>
     <use x="63.476562" xlink:href="#DejaVuSans-62"/>
     <use x="126.953125" xlink:href="#DejaVuSans-6f"/>
     <use x="188.134766" xlink:href="#DejaVuSans-62"/>
     <use x="251.611328" xlink:href="#DejaVuSans-20"/>
     <use x="283.398438" xlink:href="#DejaVuSans-66"/>
     <use x="318.603516" xlink:href="#DejaVuSans-31"/>
     <use x="382.226562" xlink:href="#DejaVuSans-34"/>
     <use x="445.849609" xlink:href="#DejaVuSans-2c"/>
     <use x="477.636719" xlink:href="#DejaVuSans-20"/>
     <use x="509.423828" xlink:href="#DejaVuSans-32"/>
     <use x="573.046875" xlink:href="#DejaVuSans-2d"/>
     <use x="609.130859" xlink:href="#DejaVuSans-44"/>
    </g>
    <!-- 51 targets: 100..1e-08 -->
    <defs>
     <path d="M 10.796875 72.90625 
L 49.515625 72.90625 
L 49.515625 64.59375 
L 19.828125 64.59375 
L 19.828125 46.734375 
Q 21.96875 47.46875 24.109375 47.828125 
Q 26.265625 48.1875 28.421875 48.1875 
Q 40.625 48.1875 47.75 41.5 
Q 54.890625 34.8125 54.890625 23.390625 
Q 54.890625 11.625 47.5625 5.09375 
Q 40.234375 -1.421875 26.90625 -1.421875 
Q 22.3125 -1.421875 17.546875 -0.640625 
Q 12.796875 0.140625 7.71875 1.703125 
L 7.71875 11.625 
Q 12.109375 9.234375 16.796875 8.0625 
Q 21.484375 6.890625 26.703125 6.890625 
Q 35.15625 6.890625 40.078125 11.328125 
Q 45.015625 15.765625 45.015625 23.390625 
Q 45.015625 31 40.078125 35.4375 
Q 35.15625 39.890625 26.703125 39.890625 
Q 22.75 39.890625 18.8125 39.015625 
Q 14.890625 38.140625 10.796875 36.28125 
z
" id="DejaVuSans-35"/>
     <path d="M 11.71875 12.40625 
L 22.015625 12.40625 
L 22.015625 0 
L 11.71875 0 
z
M 11.71875 51.703125 
L 22.015625 51.703125 
L 22.015625 39.3125 
L 11.71875 39.3125 
z
" id="DejaVuSans-3a"/>
    </defs>
    <g transform="translate(59.55864 46.712575)scale(0.102 -0.102)">
     <use xlink:href="#DejaVuSans-35"/>
     <use x="63.623047" xlink:href="#DejaVuSans-31"/>
     <use x="127.246094" xlink:href="#DejaVuSans-20"/>
     <use x="159.033203" xlink:href="#DejaVuSans-74"/>
     <use x="198.242188" xlink:href="#DejaVuSans-61"/>
     <use x="259.521484" xlink:href="#DejaVuSans-72"/>
     <use x="300.619141" xlink:href="#DejaVuSans-67"/>
     <use x="364.095703" xlink:href="#DejaVuSans-65"/>
     <use x="425.619141" xlink:href="#DejaVuSans-74"/>
     <use x="464.828125" xlink:href="#DejaVuSans-73"/>
     <use x="516.927734" xlink:href="#DejaVuSans-3a"/>
     <use x="550.619141" xlink:href="#DejaVuSans-20"/>
     <use x="582.40625" xlink:href="#DejaVuSans-31"/>
     <use x="646.029297" xlink:href="#DejaVuSans-30"/>
     <use x="709.652344" xlink:href="#DejaVuSans-30"/>
     <use x="773.275391" xlink:href="#DejaVuSans-2e"/>
     <use x="805.0625" xlink:href="#DejaVuSans-2e"/>
     <use x="836.849609" xlink:href="#DejaVuSans-31"/>
     <use x="900.472656" xlink:href="#DejaVuSans-65"/>
     <use x="961.996094" xlink:href="#DejaVuSans-2d"/>
     <use x="998.080078" xlink:href="#DejaVuSans-30"/>
     <use x="1061.703125" xlink:href="#DejaVuSans-38"/>
    </g>
    <!-- 15 instances -->
    <g transform="translate(59.55864 58.134344)scale(0.102 -0.102)">
     <use xlink:href="#DejaVuSans-31"/>
     <use x="63.623047" xlink:href="#DejaVuSans-35"/>
     <use x="127.246094" xlink:href="#DejaVuSans-20"/>
     <use x="159.033203" xlink:href="#DejaVuSans-69"/>
     <use x="186.816406" xlink:href="#DejaVuSans-6e"/>
     <use x="250.195312" xlink:href="#DejaVuSans-73"/>
     <use x="302.294922" xlink:href="#DejaVuSans-74"/>
     <use x="341.503906" xlink:href="#DejaVuSans-61"/>
     <use x="402.783203" xlink:href="#DejaVuSans-6e"/>
     <use x="466.162109" xlink:href="#DejaVuSans-63"/>
     <use x="521.142578" xlink:href="#DejaVuSans-65"/>
     <use x="582.666016" xlink:href="#DejaVuSans-73"/>
    </g>
   </g>
   <g id="text_20">
    <!-- v-coco-version -->
    <g style="fill:#808080;" transform="translate(191.556688 290.099912)scale(0.1 -0.1)">
     <use xlink:href="#DejaVuSans-76"/>
     <use x="59.148438" xlink:href="#DejaVuSans-2d"/>
     <use x="95.232422" xlink:href="#DejaVuSans-63"/>
     <use x="150.212891" xlink:href="#DejaVuSans-6f"/>
     <use x="211.394531" xlink:href="#DejaVuSans-63"/>
     <use x="266.375" xlink:href="#DejaVuSans-6f"/>
     <use x="327.572266" xlink:href="#DejaVuSans-2d"/>
     <use x="363.625" xlink:href="#DejaVuSans-76"/>
     <use x="422.804688" xlink:href="#DejaVuSans-65"/>
     <use x="484.328125" xlink:href="#DejaVuSans-72"/>
     <use x="525.441406" xlink:href="#DejaVuSans-73"/>
     <use x="577.541016" xlink:href="#DejaVuSans-69"/>
     <use x="605.324219" xlink:href="#DejaVuSans-6f"/>
     <use x="666.505859" xlink:href="#DejaVuSans-6e"/>
    </g>
   </g>
   <g id="text_21">
    <!-- 14 Sum of different powers -->
    <defs>
     <path d="M 4.203125 54.6875 
L 13.1875 54.6875 
L 24.421875 12.015625 
L 35.59375 54.6875 
L 46.1875 54.6875 
L 57.421875 12.015625 
L 68.609375 54.6875 
L 77.59375 54.6875 
L 63.28125 0 
L 52.6875 0 
L 40.921875 44.828125 
L 29.109375 0 
L 18.5 0 
z
" id="DejaVuSans-77"/>
    </defs>
    <g transform="translate(91.591063 18.84)scale(0.2 -0.2)">
     <use xlink:href="#DejaVuSans-31"/>
     <use x="63.623047" xlink:href="#DejaVuSans-34"/>
     <use x="127.246094" xlink:href="#DejaVuSans-20"/>
     <use x="159.033203" xlink:href="#DejaVuSans-53"/>
     <use x="222.509766" xlink:href="#DejaVuSans-75"/>
     <use x="285.888672" xlink:href="#DejaVuSans-6d"/>
     <use x="383.300781" xlink:href="#DejaVuSans-20"/>
     <use x="415.087891" xlink:href="#DejaVuSans-6f"/>
     <use x="476.269531" xlink:href="#DejaVuSans-66"/>
     <use x="511.474609" xlink:href="#DejaVuSans-20"/>
     <use x="543.261719" xlink:href="#DejaVuSans-64"/>
     <use x="606.738281" xlink:href="#DejaVuSans-69"/>
     <use x="634.521484" xlink:href="#DejaVuSans-66"/>
     <use x="669.726562" xlink:href="#DejaVuSans-66"/>
     <use x="704.931641" xlink:href="#DejaVuSans-65"/>
     <use x="766.455078" xlink:href="#DejaVuSans-72"/>
     <use x="807.537109" xlink:href="#DejaVuSans-65"/>
     <use x="869.060547" xlink:href="#DejaVuSans-6e"/>
     <use x="932.439453" xlink:href="#DejaVuSans-74"/>
     <use x="971.648438" xlink:href="#DejaVuSans-20"/>
     <use x="1003.435547" xlink:href="#DejaVuSans-70"/>
     <use x="1066.912109" xlink:href="#DejaVuSans-6f"/>
     <use x="1128.09375" xlink:href="#DejaVuSans-77"/>
     <use x="1209.880859" xlink:href="#DejaVuSans-65"/>
     <use x="1271.404297" xlink:href="#DejaVuSans-72"/>
     <use x="1312.517578" xlink:href="#DejaVuSans-73"/>
    </g>
   </g>
  </g>
 </g>
 <defs>
  <clipPath id="pd4f232cf17">
   <rect height="270.04" width="343.864" x="56.12" y="24.84"/>
  </clipPath>
 </defs>
</svg>
