<?xml version="1.0" encoding="utf-8" standalone="no"?>
<!DOCTYPE svg PUBLIC "-//W3C//DTD SVG 1.1//EN"
  "http://www.w3.org/Graphics/SVG/1.1/DTD/svg11.dtd">
<!-- Created with matplotlib (http://matplotlib.org/) -->
<svg height="345.6pt" version="1.1" viewBox="0 0 460.8 345.6" width="460.8pt" xmlns="http://www.w3.org/2000/svg" xmlns:xlink="http://www.w3.org/1999/xlink">
 <defs>
  <style type="text/css">
*{stroke-linecap:butt;stroke-linejoin:round;}
  </style>
 </defs>
 <g id="figure_1">
  <g id="patch_1">
   <path d="M 0 345.6 
L 460.8 345.6 
L 460.8 0 
L 0 0 
z
" style="fill:#ffffff;"/>
  </g>
  <g id="axes_1">
   <g id="patch_2">
    <path d="M 56.12 294.88 
L 399.984 294.88 
L 399.984 24.84 
L 56.12 24.84 
z
" style="fill:#ffffff;"/>
   </g>
   <g id="line2d_1">
    <path d="M 75.021477 294.88 
L 75.021477 289.637523 
L 82.375594 289.637523 
L 82.375594 284.395046 
L 88.057358 284.395046 
L 88.057358 279.152568 
L 102.246616 279.152568 
L 102.246616 273.910091 
L 103.164427 273.910091 
L 103.164427 268.667614 
L 141.529123 268.667614 
L 141.529123 263.425137 
L 147.430992 263.425137 
L 147.430992 258.18266 
L 149.349101 258.18266 
L 149.349101 252.940182 
L 151.657926 252.940182 
L 151.657926 247.697705 
L 155.513078 247.697705 
L 155.513078 242.455228 
L 155.598146 242.455228 
L 155.598146 237.212751 
L 155.735489 237.212751 
L 155.735489 231.970274 
L 155.746009 231.970274 
L 155.746009 226.727797 
L 155.756522 226.727797 
L 155.756522 211.000365 
L 155.777529 211.000365 
L 155.777529 205.757888 
L 155.788023 205.757888 
L 155.788023 195.272933 
L 155.798511 195.272933 
L 155.798511 190.030456 
L 155.808992 190.030456 
L 155.808992 174.303025 
L 155.819467 174.303025 
L 155.819467 169.060547 
L 155.840397 169.060547 
L 155.840397 163.81807 
L 155.850853 163.81807 
L 155.850853 153.333116 
L 155.861303 153.333116 
L 155.861303 148.090639 
L 155.871746 148.090639 
L 155.871746 137.605684 
L 155.882182 137.605684 
L 155.882182 116.635776 
L 155.892613 116.635776 
L 155.892613 106.150821 
L 155.903037 106.150821 
L 155.903037 79.938435 
L 155.923866 79.938435 
L 155.923866 64.211004 
L 155.934271 64.211004 
L 155.934271 53.726049 
L 155.94467 53.726049 
L 155.94467 48.483572 
L 155.955062 48.483572 
L 155.955062 32.756141 
L 155.965449 32.756141 
L 155.965449 27.513663 
L 333.429677 27.513663 
" style="fill:none;stroke:#f5deb3;stroke-linecap:square;stroke-width:6;"/>
   </g>
   <g id="line2d_2">
    <defs>
     <path d="M -0 7.778175 
L 7.778175 0 
L 0 -7.778175 
L -7.778175 -0 
z
" id="m79477ad0db" style="stroke:#f5deb3;stroke-linejoin:miter;stroke-width:1.5;"/>
    </defs>
    <g>
     <use style="fill:#f5deb3;stroke:#f5deb3;stroke-linejoin:miter;stroke-width:1.5;" x="155.756522" xlink:href="#m79477ad0db" y="226.727797"/>
     <use style="fill:#f5deb3;stroke:#f5deb3;stroke-linejoin:miter;stroke-width:1.5;" x="155.892613" xlink:href="#m79477ad0db" y="106.150821"/>
     <use style="fill:#f5deb3;stroke:#f5deb3;stroke-linejoin:miter;stroke-width:1.5;" x="155.965449" xlink:href="#m79477ad0db" y="27.513663"/>
     <use style="fill:#f5deb3;stroke:#f5deb3;stroke-linejoin:miter;stroke-width:1.5;" x="155.965449" xlink:href="#m79477ad0db" y="27.513663"/>
     <use style="fill:#f5deb3;stroke:#f5deb3;stroke-linejoin:miter;stroke-width:1.5;" x="333.429677" xlink:href="#m79477ad0db" y="27.513663"/>
    </g>
   </g>
   <g id="line2d_3">
    <path style="fill:none;stroke:#f5deb3;stroke-linecap:square;stroke-width:6;"/>
    <g/>
   </g>
   <g id="line2d_4">
    <path d="M 333.429677 27.513663 
L 363.933742 32.86099 
" style="fill:none;stroke:#f5deb3;stroke-linecap:square;stroke-width:6;"/>
    <g>
     <use style="fill:#f5deb3;stroke:#f5deb3;stroke-linejoin:miter;stroke-width:1.5;" x="333.429677" xlink:href="#m79477ad0db" y="27.513663"/>
     <use style="fill:#f5deb3;stroke:#f5deb3;stroke-linejoin:miter;stroke-width:1.5;" x="363.933742" xlink:href="#m79477ad0db" y="32.86099"/>
    </g>
   </g>
   <g id="matplotlib.axis_1">
    <g id="xtick_1">
     <g id="line2d_5">
      <path clip-path="url(#pef16a9801e)" d="M 56.12 294.88 
L 56.12 24.84 
" style="fill:none;stroke:#b0b0b0;stroke-linecap:square;stroke-width:0.8;"/>
     </g>
     <g id="line2d_6">
      <defs>
       <path d="M 0 0 
L 0 3.5 
" id="mdcfed41e48" style="stroke:#000000;stroke-width:0.8;"/>
      </defs>
      <g>
       <use style="stroke:#000000;stroke-width:0.8;" x="56.12" xlink:href="#mdcfed41e48" y="294.88"/>
      </g>
     </g>
     <g id="text_1">
      <!-- 0 -->
      <defs>
       <path d="M 31.78125 66.40625 
Q 24.171875 66.40625 20.328125 58.90625 
Q 16.5 51.421875 16.5 36.375 
Q 16.5 21.390625 20.328125 13.890625 
Q 24.171875 6.390625 31.78125 6.390625 
Q 39.453125 6.390625 43.28125 13.890625 
Q 47.125 21.390625 47.125 36.375 
Q 47.125 51.421875 43.28125 58.90625 
Q 39.453125 66.40625 31.78125 66.40625 
z
M 31.78125 74.21875 
Q 44.046875 74.21875 50.515625 64.515625 
Q 56.984375 54.828125 56.984375 36.375 
Q 56.984375 17.96875 50.515625 8.265625 
Q 44.046875 -1.421875 31.78125 -1.421875 
Q 19.53125 -1.421875 13.0625 8.265625 
Q 6.59375 17.96875 6.59375 36.375 
Q 6.59375 54.828125 13.0625 64.515625 
Q 19.53125 74.21875 31.78125 74.21875 
z
" id="DejaVuSans-30"/>
      </defs>
      <g transform="translate(49.7575 317.076875)scale(0.2 -0.2)">
       <use xlink:href="#DejaVuSans-30"/>
      </g>
     </g>
    </g>
    <g id="xtick_2">
     <g id="line2d_7">
      <path clip-path="url(#pef16a9801e)" d="M 135.351336 294.88 
L 135.351336 24.84 
" style="fill:none;stroke:#b0b0b0;stroke-linecap:square;stroke-width:0.8;"/>
     </g>
     <g id="line2d_8">
      <g>
       <use style="stroke:#000000;stroke-width:0.8;" x="135.351336" xlink:href="#mdcfed41e48" y="294.88"/>
      </g>
     </g>
     <g id="text_2">
      <!-- 2 -->
      <defs>
       <path d="M 19.1875 8.296875 
L 53.609375 8.296875 
L 53.609375 0 
L 7.328125 0 
L 7.328125 8.296875 
Q 12.9375 14.109375 22.625 23.890625 
Q 32.328125 33.6875 34.8125 36.53125 
Q 39.546875 41.84375 41.421875 45.53125 
Q 43.3125 49.21875 43.3125 52.78125 
Q 43.3125 58.59375 39.234375 62.25 
Q 35.15625 65.921875 28.609375 65.921875 
Q 23.96875 65.921875 18.8125 64.3125 
Q 13.671875 62.703125 7.8125 59.421875 
L 7.8125 69.390625 
Q 13.765625 71.78125 18.9375 73 
Q 24.125 74.21875 28.421875 74.21875 
Q 39.75 74.21875 46.484375 68.546875 
Q 53.21875 62.890625 53.21875 53.421875 
Q 53.21875 48.921875 51.53125 44.890625 
Q 49.859375 40.875 45.40625 35.40625 
Q 44.1875 33.984375 37.640625 27.21875 
Q 31.109375 20.453125 19.1875 8.296875 
z
" id="DejaVuSans-32"/>
      </defs>
      <g transform="translate(128.988836 317.076875)scale(0.2 -0.2)">
       <use xlink:href="#DejaVuSans-32"/>
      </g>
     </g>
    </g>
    <g id="xtick_3">
     <g id="line2d_9">
      <path clip-path="url(#pef16a9801e)" d="M 214.582673 294.88 
L 214.582673 24.84 
" style="fill:none;stroke:#b0b0b0;stroke-linecap:square;stroke-width:0.8;"/>
     </g>
     <g id="line2d_10">
      <g>
       <use style="stroke:#000000;stroke-width:0.8;" x="214.582673" xlink:href="#mdcfed41e48" y="294.88"/>
      </g>
     </g>
     <g id="text_3">
      <!-- 4 -->
      <defs>
       <path d="M 37.796875 64.3125 
L 12.890625 25.390625 
L 37.796875 25.390625 
z
M 35.203125 72.90625 
L 47.609375 72.90625 
L 47.609375 25.390625 
L 58.015625 25.390625 
L 58.015625 17.1875 
L 47.609375 17.1875 
L 47.609375 0 
L 37.796875 0 
L 37.796875 17.1875 
L 4.890625 17.1875 
L 4.890625 26.703125 
z
" id="DejaVuSans-34"/>
      </defs>
      <g transform="translate(208.220173 317.076875)scale(0.2 -0.2)">
       <use xlink:href="#DejaVuSans-34"/>
      </g>
     </g>
    </g>
    <g id="xtick_4">
     <g id="line2d_11">
      <path clip-path="url(#pef16a9801e)" d="M 293.814009 294.88 
L 293.814009 24.84 
" style="fill:none;stroke:#b0b0b0;stroke-linecap:square;stroke-width:0.8;"/>
     </g>
     <g id="line2d_12">
      <g>
       <use style="stroke:#000000;stroke-width:0.8;" x="293.814009" xlink:href="#mdcfed41e48" y="294.88"/>
      </g>
     </g>
     <g id="text_4">
      <!-- 6 -->
      <defs>
       <path d="M 33.015625 40.375 
Q 26.375 40.375 22.484375 35.828125 
Q 18.609375 31.296875 18.609375 23.390625 
Q 18.609375 15.53125 22.484375 10.953125 
Q 26.375 6.390625 33.015625 6.390625 
Q 39.65625 6.390625 43.53125 10.953125 
Q 47.40625 15.53125 47.40625 23.390625 
Q 47.40625 31.296875 43.53125 35.828125 
Q 39.65625 40.375 33.015625 40.375 
z
M 52.59375 71.296875 
L 52.59375 62.3125 
Q 48.875 64.0625 45.09375 64.984375 
Q 41.3125 65.921875 37.59375 65.921875 
Q 27.828125 65.921875 22.671875 59.328125 
Q 17.53125 52.734375 16.796875 39.40625 
Q 19.671875 43.65625 24.015625 45.921875 
Q 28.375 48.1875 33.59375 48.1875 
Q 44.578125 48.1875 50.953125 41.515625 
Q 57.328125 34.859375 57.328125 23.390625 
Q 57.328125 12.15625 50.6875 5.359375 
Q 44.046875 -1.421875 33.015625 -1.421875 
Q 20.359375 -1.421875 13.671875 8.265625 
Q 6.984375 17.96875 6.984375 36.375 
Q 6.984375 53.65625 15.1875 63.9375 
Q 23.390625 74.21875 37.203125 74.21875 
Q 40.921875 74.21875 44.703125 73.484375 
Q 48.484375 72.75 52.59375 71.296875 
z
" id="DejaVuSans-36"/>
      </defs>
      <g transform="translate(287.451509 317.076875)scale(0.2 -0.2)">
       <use xlink:href="#DejaVuSans-36"/>
      </g>
     </g>
    </g>
    <g id="xtick_5">
     <g id="line2d_13">
      <path clip-path="url(#pef16a9801e)" d="M 373.045346 294.88 
L 373.045346 24.84 
" style="fill:none;stroke:#b0b0b0;stroke-linecap:square;stroke-width:0.8;"/>
     </g>
     <g id="line2d_14">
      <g>
       <use style="stroke:#000000;stroke-width:0.8;" x="373.045346" xlink:href="#mdcfed41e48" y="294.88"/>
      </g>
     </g>
     <g id="text_5">
      <!-- 8 -->
      <defs>
       <path d="M 31.78125 34.625 
Q 24.75 34.625 20.71875 30.859375 
Q 16.703125 27.09375 16.703125 20.515625 
Q 16.703125 13.921875 20.71875 10.15625 
Q 24.75 6.390625 31.78125 6.390625 
Q 38.8125 6.390625 42.859375 10.171875 
Q 46.921875 13.96875 46.921875 20.515625 
Q 46.921875 27.09375 42.890625 30.859375 
Q 38.875 34.625 31.78125 34.625 
z
M 21.921875 38.8125 
Q 15.578125 40.375 12.03125 44.71875 
Q 8.5 49.078125 8.5 55.328125 
Q 8.5 64.0625 14.71875 69.140625 
Q 20.953125 74.21875 31.78125 74.21875 
Q 42.671875 74.21875 48.875 69.140625 
Q 55.078125 64.0625 55.078125 55.328125 
Q 55.078125 49.078125 51.53125 44.71875 
Q 48 40.375 41.703125 38.8125 
Q 48.828125 37.15625 52.796875 32.3125 
Q 56.78125 27.484375 56.78125 20.515625 
Q 56.78125 9.90625 50.3125 4.234375 
Q 43.84375 -1.421875 31.78125 -1.421875 
Q 19.734375 -1.421875 13.25 4.234375 
Q 6.78125 9.90625 6.78125 20.515625 
Q 6.78125 27.484375 10.78125 32.3125 
Q 14.796875 37.15625 21.921875 38.8125 
z
M 18.3125 54.390625 
Q 18.3125 48.734375 21.84375 45.5625 
Q 25.390625 42.390625 31.78125 42.390625 
Q 38.140625 42.390625 41.71875 45.5625 
Q 45.3125 48.734375 45.3125 54.390625 
Q 45.3125 60.0625 41.71875 63.234375 
Q 38.140625 66.40625 31.78125 66.40625 
Q 25.390625 66.40625 21.84375 63.234375 
Q 18.3125 60.0625 18.3125 54.390625 
z
" id="DejaVuSans-38"/>
      </defs>
      <g transform="translate(366.682846 317.076875)scale(0.2 -0.2)">
       <use xlink:href="#DejaVuSans-38"/>
      </g>
     </g>
    </g>
    <g id="text_6">
     <!-- log10(# f-evals / dimension) -->
     <defs>
      <path d="M 9.421875 75.984375 
L 18.40625 75.984375 
L 18.40625 0 
L 9.421875 0 
z
" id="DejaVuSans-6c"/>
      <path d="M 30.609375 48.390625 
Q 23.390625 48.390625 19.1875 42.75 
Q 14.984375 37.109375 14.984375 27.296875 
Q 14.984375 17.484375 19.15625 11.84375 
Q 23.34375 6.203125 30.609375 6.203125 
Q 37.796875 6.203125 41.984375 11.859375 
Q 46.1875 17.53125 46.1875 27.296875 
Q 46.1875 37.015625 41.984375 42.703125 
Q 37.796875 48.390625 30.609375 48.390625 
z
M 30.609375 56 
Q 42.328125 56 49.015625 48.375 
Q 55.71875 40.765625 55.71875 27.296875 
Q 55.71875 13.875 49.015625 6.21875 
Q 42.328125 -1.421875 30.609375 -1.421875 
Q 18.84375 -1.421875 12.171875 6.21875 
Q 5.515625 13.875 5.515625 27.296875 
Q 5.515625 40.765625 12.171875 48.375 
Q 18.84375 56 30.609375 56 
z
" id="DejaVuSans-6f"/>
      <path d="M 45.40625 27.984375 
Q 45.40625 37.75 41.375 43.109375 
Q 37.359375 48.484375 30.078125 48.484375 
Q 22.859375 48.484375 18.828125 43.109375 
Q 14.796875 37.75 14.796875 27.984375 
Q 14.796875 18.265625 18.828125 12.890625 
Q 22.859375 7.515625 30.078125 7.515625 
Q 37.359375 7.515625 41.375 12.890625 
Q 45.40625 18.265625 45.40625 27.984375 
z
M 54.390625 6.78125 
Q 54.390625 -7.171875 48.1875 -13.984375 
Q 42 -20.796875 29.203125 -20.796875 
Q 24.46875 -20.796875 20.265625 -20.09375 
Q 16.0625 -19.390625 12.109375 -17.921875 
L 12.109375 -9.1875 
Q 16.0625 -11.328125 19.921875 -12.34375 
Q 23.78125 -13.375 27.78125 -13.375 
Q 36.625 -13.375 41.015625 -8.765625 
Q 45.40625 -4.15625 45.40625 5.171875 
L 45.40625 9.625 
Q 42.625 4.78125 38.28125 2.390625 
Q 33.9375 0 27.875 0 
Q 17.828125 0 11.671875 7.65625 
Q 5.515625 15.328125 5.515625 27.984375 
Q 5.515625 40.671875 11.671875 48.328125 
Q 17.828125 56 27.875 56 
Q 33.9375 56 38.28125 53.609375 
Q 42.625 51.21875 45.40625 46.390625 
L 45.40625 54.6875 
L 54.390625 54.6875 
z
" id="DejaVuSans-67"/>
      <path d="M 12.40625 8.296875 
L 28.515625 8.296875 
L 28.515625 63.921875 
L 10.984375 60.40625 
L 10.984375 69.390625 
L 28.421875 72.90625 
L 38.28125 72.90625 
L 38.28125 8.296875 
L 54.390625 8.296875 
L 54.390625 0 
L 12.40625 0 
z
" id="DejaVuSans-31"/>
      <path d="M 31 75.875 
Q 24.46875 64.65625 21.28125 53.65625 
Q 18.109375 42.671875 18.109375 31.390625 
Q 18.109375 20.125 21.3125 9.0625 
Q 24.515625 -2 31 -13.1875 
L 23.1875 -13.1875 
Q 15.875 -1.703125 12.234375 9.375 
Q 8.59375 20.453125 8.59375 31.390625 
Q 8.59375 42.28125 12.203125 53.3125 
Q 15.828125 64.359375 23.1875 75.875 
z
" id="DejaVuSans-28"/>
      <path d="M 51.125 44 
L 36.921875 44 
L 32.8125 27.6875 
L 47.125 27.6875 
z
M 43.796875 71.78125 
L 38.71875 51.515625 
L 52.984375 51.515625 
L 58.109375 71.78125 
L 65.921875 71.78125 
L 60.890625 51.515625 
L 76.125 51.515625 
L 76.125 44 
L 58.984375 44 
L 54.984375 27.6875 
L 70.515625 27.6875 
L 70.515625 20.21875 
L 53.078125 20.21875 
L 48 0 
L 40.1875 0 
L 45.21875 20.21875 
L 30.90625 20.21875 
L 25.875 0 
L 18.015625 0 
L 23.09375 20.21875 
L 7.71875 20.21875 
L 7.71875 27.6875 
L 24.90625 27.6875 
L 29 44 
L 13.28125 44 
L 13.28125 51.515625 
L 30.90625 51.515625 
L 35.890625 71.78125 
z
" id="DejaVuSans-23"/>
      <path id="DejaVuSans-20"/>
      <path d="M 37.109375 75.984375 
L 37.109375 68.5 
L 28.515625 68.5 
Q 23.6875 68.5 21.796875 66.546875 
Q 19.921875 64.59375 19.921875 59.515625 
L 19.921875 54.6875 
L 34.71875 54.6875 
L 34.71875 47.703125 
L 19.921875 47.703125 
L 19.921875 0 
L 10.890625 0 
L 10.890625 47.703125 
L 2.296875 47.703125 
L 2.296875 54.6875 
L 10.890625 54.6875 
L 10.890625 58.5 
Q 10.890625 67.625 15.140625 71.796875 
Q 19.390625 75.984375 28.609375 75.984375 
z
" id="DejaVuSans-66"/>
      <path d="M 4.890625 31.390625 
L 31.203125 31.390625 
L 31.203125 23.390625 
L 4.890625 23.390625 
z
" id="DejaVuSans-2d"/>
      <path d="M 56.203125 29.59375 
L 56.203125 25.203125 
L 14.890625 25.203125 
Q 15.484375 15.921875 20.484375 11.0625 
Q 25.484375 6.203125 34.421875 6.203125 
Q 39.59375 6.203125 44.453125 7.46875 
Q 49.3125 8.734375 54.109375 11.28125 
L 54.109375 2.78125 
Q 49.265625 0.734375 44.1875 -0.34375 
Q 39.109375 -1.421875 33.890625 -1.421875 
Q 20.796875 -1.421875 13.15625 6.1875 
Q 5.515625 13.8125 5.515625 26.8125 
Q 5.515625 40.234375 12.765625 48.109375 
Q 20.015625 56 32.328125 56 
Q 43.359375 56 49.78125 48.890625 
Q 56.203125 41.796875 56.203125 29.59375 
z
M 47.21875 32.234375 
Q 47.125 39.59375 43.09375 43.984375 
Q 39.0625 48.390625 32.421875 48.390625 
Q 24.90625 48.390625 20.390625 44.140625 
Q 15.875 39.890625 15.1875 32.171875 
z
" id="DejaVuSans-65"/>
      <path d="M 2.984375 54.6875 
L 12.5 54.6875 
L 29.59375 8.796875 
L 46.6875 54.6875 
L 56.203125 54.6875 
L 35.6875 0 
L 23.484375 0 
z
" id="DejaVuSans-76"/>
      <path d="M 34.28125 27.484375 
Q 23.390625 27.484375 19.1875 25 
Q 14.984375 22.515625 14.984375 16.5 
Q 14.984375 11.71875 18.140625 8.90625 
Q 21.296875 6.109375 26.703125 6.109375 
Q 34.1875 6.109375 38.703125 11.40625 
Q 43.21875 16.703125 43.21875 25.484375 
L 43.21875 27.484375 
z
M 52.203125 31.203125 
L 52.203125 0 
L 43.21875 0 
L 43.21875 8.296875 
Q 40.140625 3.328125 35.546875 0.953125 
Q 30.953125 -1.421875 24.3125 -1.421875 
Q 15.921875 -1.421875 10.953125 3.296875 
Q 6 8.015625 6 15.921875 
Q 6 25.140625 12.171875 29.828125 
Q 18.359375 34.515625 30.609375 34.515625 
L 43.21875 34.515625 
L 43.21875 35.40625 
Q 43.21875 41.609375 39.140625 45 
Q 35.0625 48.390625 27.6875 48.390625 
Q 23 48.390625 18.546875 47.265625 
Q 14.109375 46.140625 10.015625 43.890625 
L 10.015625 52.203125 
Q 14.9375 54.109375 19.578125 55.046875 
Q 24.21875 56 28.609375 56 
Q 40.484375 56 46.34375 49.84375 
Q 52.203125 43.703125 52.203125 31.203125 
z
" id="DejaVuSans-61"/>
      <path d="M 44.28125 53.078125 
L 44.28125 44.578125 
Q 40.484375 46.53125 36.375 47.5 
Q 32.28125 48.484375 27.875 48.484375 
Q 21.1875 48.484375 17.84375 46.4375 
Q 14.5 44.390625 14.5 40.28125 
Q 14.5 37.15625 16.890625 35.375 
Q 19.28125 33.59375 26.515625 31.984375 
L 29.59375 31.296875 
Q 39.15625 29.25 43.1875 25.515625 
Q 47.21875 21.78125 47.21875 15.09375 
Q 47.21875 7.46875 41.1875 3.015625 
Q 35.15625 -1.421875 24.609375 -1.421875 
Q 20.21875 -1.421875 15.453125 -0.5625 
Q 10.6875 0.296875 5.421875 2 
L 5.421875 11.28125 
Q 10.40625 8.6875 15.234375 7.390625 
Q 20.0625 6.109375 24.8125 6.109375 
Q 31.15625 6.109375 34.5625 8.28125 
Q 37.984375 10.453125 37.984375 14.40625 
Q 37.984375 18.0625 35.515625 20.015625 
Q 33.0625 21.96875 24.703125 23.78125 
L 21.578125 24.515625 
Q 13.234375 26.265625 9.515625 29.90625 
Q 5.8125 33.546875 5.8125 39.890625 
Q 5.8125 47.609375 11.28125 51.796875 
Q 16.75 56 26.8125 56 
Q 31.78125 56 36.171875 55.265625 
Q 40.578125 54.546875 44.28125 53.078125 
z
" id="DejaVuSans-73"/>
      <path d="M 25.390625 72.90625 
L 33.6875 72.90625 
L 8.296875 -9.28125 
L 0 -9.28125 
z
" id="DejaVuSans-2f"/>
      <path d="M 45.40625 46.390625 
L 45.40625 75.984375 
L 54.390625 75.984375 
L 54.390625 0 
L 45.40625 0 
L 45.40625 8.203125 
Q 42.578125 3.328125 38.25 0.953125 
Q 33.9375 -1.421875 27.875 -1.421875 
Q 17.96875 -1.421875 11.734375 6.484375 
Q 5.515625 14.40625 5.515625 27.296875 
Q 5.515625 40.1875 11.734375 48.09375 
Q 17.96875 56 27.875 56 
Q 33.9375 56 38.25 53.625 
Q 42.578125 51.265625 45.40625 46.390625 
z
M 14.796875 27.296875 
Q 14.796875 17.390625 18.875 11.75 
Q 22.953125 6.109375 30.078125 6.109375 
Q 37.203125 6.109375 41.296875 11.75 
Q 45.40625 17.390625 45.40625 27.296875 
Q 45.40625 37.203125 41.296875 42.84375 
Q 37.203125 48.484375 30.078125 48.484375 
Q 22.953125 48.484375 18.875 42.84375 
Q 14.796875 37.203125 14.796875 27.296875 
z
" id="DejaVuSans-64"/>
      <path d="M 9.421875 54.6875 
L 18.40625 54.6875 
L 18.40625 0 
L 9.421875 0 
z
M 9.421875 75.984375 
L 18.40625 75.984375 
L 18.40625 64.59375 
L 9.421875 64.59375 
z
" id="DejaVuSans-69"/>
      <path d="M 52 44.1875 
Q 55.375 50.25 60.0625 53.125 
Q 64.75 56 71.09375 56 
Q 79.640625 56 84.28125 50.015625 
Q 88.921875 44.046875 88.921875 33.015625 
L 88.921875 0 
L 79.890625 0 
L 79.890625 32.71875 
Q 79.890625 40.578125 77.09375 44.375 
Q 74.3125 48.1875 68.609375 48.1875 
Q 61.625 48.1875 57.5625 43.546875 
Q 53.515625 38.921875 53.515625 30.90625 
L 53.515625 0 
L 44.484375 0 
L 44.484375 32.71875 
Q 44.484375 40.625 41.703125 44.40625 
Q 38.921875 48.1875 33.109375 48.1875 
Q 26.21875 48.1875 22.15625 43.53125 
Q 18.109375 38.875 18.109375 30.90625 
L 18.109375 0 
L 9.078125 0 
L 9.078125 54.6875 
L 18.109375 54.6875 
L 18.109375 46.1875 
Q 21.1875 51.21875 25.484375 53.609375 
Q 29.78125 56 35.6875 56 
Q 41.65625 56 45.828125 52.96875 
Q 50 49.953125 52 44.1875 
z
" id="DejaVuSans-6d"/>
      <path d="M 54.890625 33.015625 
L 54.890625 0 
L 45.90625 0 
L 45.90625 32.71875 
Q 45.90625 40.484375 42.875 44.328125 
Q 39.84375 48.1875 33.796875 48.1875 
Q 26.515625 48.1875 22.3125 43.546875 
Q 18.109375 38.921875 18.109375 30.90625 
L 18.109375 0 
L 9.078125 0 
L 9.078125 54.6875 
L 18.109375 54.6875 
L 18.109375 46.1875 
Q 21.34375 51.125 25.703125 53.5625 
Q 30.078125 56 35.796875 56 
Q 45.21875 56 50.046875 50.171875 
Q 54.890625 44.34375 54.890625 33.015625 
z
" id="DejaVuSans-6e"/>
      <path d="M 8.015625 75.875 
L 15.828125 75.875 
Q 23.140625 64.359375 26.78125 53.3125 
Q 30.421875 42.28125 30.421875 31.390625 
Q 30.421875 20.453125 26.78125 9.375 
Q 23.140625 -1.703125 15.828125 -13.1875 
L 8.015625 -13.1875 
Q 14.5 -2 17.703125 9.0625 
Q 20.90625 20.125 20.90625 31.390625 
Q 20.90625 42.671875 17.703125 53.65625 
Q 14.5 64.65625 8.015625 75.875 
z
" id="DejaVuSans-29"/>
     </defs>
     <g transform="translate(107.211219 338.153594)scale(0.17 -0.17)">
      <use xlink:href="#DejaVuSans-6c"/>
      <use x="27.783203" xlink:href="#DejaVuSans-6f"/>
      <use x="88.964844" xlink:href="#DejaVuSans-67"/>
      <use x="152.441406" xlink:href="#DejaVuSans-31"/>
      <use x="216.064453" xlink:href="#DejaVuSans-30"/>
      <use x="279.6875" xlink:href="#DejaVuSans-28"/>
      <use x="318.701172" xlink:href="#DejaVuSans-23"/>
      <use x="402.490234" xlink:href="#DejaVuSans-20"/>
      <use x="434.277344" xlink:href="#DejaVuSans-66"/>
      <use x="469.404297" xlink:href="#DejaVuSans-2d"/>
      <use x="505.488281" xlink:href="#DejaVuSans-65"/>
      <use x="567.011719" xlink:href="#DejaVuSans-76"/>
      <use x="626.191406" xlink:href="#DejaVuSans-61"/>
      <use x="687.470703" xlink:href="#DejaVuSans-6c"/>
      <use x="715.253906" xlink:href="#DejaVuSans-73"/>
      <use x="767.353516" xlink:href="#DejaVuSans-20"/>
      <use x="799.140625" xlink:href="#DejaVuSans-2f"/>
      <use x="832.832031" xlink:href="#DejaVuSans-20"/>
      <use x="864.619141" xlink:href="#DejaVuSans-64"/>
      <use x="928.095703" xlink:href="#DejaVuSans-69"/>
      <use x="955.878906" xlink:href="#DejaVuSans-6d"/>
      <use x="1053.291016" xlink:href="#DejaVuSans-65"/>
      <use x="1114.814453" xlink:href="#DejaVuSans-6e"/>
      <use x="1178.193359" xlink:href="#DejaVuSans-73"/>
      <use x="1230.292969" xlink:href="#DejaVuSans-69"/>
      <use x="1258.076172" xlink:href="#DejaVuSans-6f"/>
      <use x="1319.257812" xlink:href="#DejaVuSans-6e"/>
      <use x="1382.636719" xlink:href="#DejaVuSans-29"/>
     </g>
    </g>
   </g>
   <g id="matplotlib.axis_2">
    <g id="ytick_1">
     <g id="line2d_15">
      <path clip-path="url(#pef16a9801e)" d="M 56.12 294.88 
L 399.984 294.88 
" style="fill:none;stroke:#b0b0b0;stroke-linecap:square;stroke-width:0.8;"/>
     </g>
     <g id="line2d_16">
      <defs>
       <path d="M 0 0 
L -3.5 0 
" id="m1f90fe7074" style="stroke:#000000;stroke-width:0.8;"/>
      </defs>
      <g>
       <use style="stroke:#000000;stroke-width:0.8;" x="56.12" xlink:href="#m1f90fe7074" y="294.88"/>
      </g>
     </g>
     <g id="text_7">
      <!-- 0.0 -->
      <defs>
       <path d="M 10.6875 12.40625 
L 21 12.40625 
L 21 0 
L 10.6875 0 
z
" id="DejaVuSans-2e"/>
      </defs>
      <g transform="translate(23.675 300.95875)scale(0.16 -0.16)">
       <use xlink:href="#DejaVuSans-30"/>
       <use x="63.623047" xlink:href="#DejaVuSans-2e"/>
       <use x="95.410156" xlink:href="#DejaVuSans-30"/>
      </g>
     </g>
    </g>
    <g id="ytick_2">
     <g id="line2d_17">
      <path clip-path="url(#pef16a9801e)" d="M 56.12 241.406733 
L 399.984 241.406733 
" style="fill:none;stroke:#b0b0b0;stroke-linecap:square;stroke-width:0.8;"/>
     </g>
     <g id="line2d_18">
      <g>
       <use style="stroke:#000000;stroke-width:0.8;" x="56.12" xlink:href="#m1f90fe7074" y="241.406733"/>
      </g>
     </g>
     <g id="text_8">
      <!-- 0.2 -->
      <g transform="translate(23.675 247.485483)scale(0.16 -0.16)">
       <use xlink:href="#DejaVuSans-30"/>
       <use x="63.623047" xlink:href="#DejaVuSans-2e"/>
       <use x="95.410156" xlink:href="#DejaVuSans-32"/>
      </g>
     </g>
    </g>
    <g id="ytick_3">
     <g id="line2d_19">
      <path clip-path="url(#pef16a9801e)" d="M 56.12 187.933465 
L 399.984 187.933465 
" style="fill:none;stroke:#b0b0b0;stroke-linecap:square;stroke-width:0.8;"/>
     </g>
     <g id="line2d_20">
      <g>
       <use style="stroke:#000000;stroke-width:0.8;" x="56.12" xlink:href="#m1f90fe7074" y="187.933465"/>
      </g>
     </g>
     <g id="text_9">
      <!-- 0.4 -->
      <g transform="translate(23.675 194.012215)scale(0.16 -0.16)">
       <use xlink:href="#DejaVuSans-30"/>
       <use x="63.623047" xlink:href="#DejaVuSans-2e"/>
       <use x="95.410156" xlink:href="#DejaVuSans-34"/>
      </g>
     </g>
    </g>
    <g id="ytick_4">
     <g id="line2d_21">
      <path clip-path="url(#pef16a9801e)" d="M 56.12 134.460198 
L 399.984 134.460198 
" style="fill:none;stroke:#b0b0b0;stroke-linecap:square;stroke-width:0.8;"/>
     </g>
     <g id="line2d_22">
      <g>
       <use style="stroke:#000000;stroke-width:0.8;" x="56.12" xlink:href="#m1f90fe7074" y="134.460198"/>
      </g>
     </g>
     <g id="text_10">
      <!-- 0.6 -->
      <g transform="translate(23.675 140.538948)scale(0.16 -0.16)">
       <use xlink:href="#DejaVuSans-30"/>
       <use x="63.623047" xlink:href="#DejaVuSans-2e"/>
       <use x="95.410156" xlink:href="#DejaVuSans-36"/>
      </g>
     </g>
    </g>
    <g id="ytick_5">
     <g id="line2d_23">
      <path clip-path="url(#pef16a9801e)" d="M 56.12 80.986931 
L 399.984 80.986931 
" style="fill:none;stroke:#b0b0b0;stroke-linecap:square;stroke-width:0.8;"/>
     </g>
     <g id="line2d_24">
      <g>
       <use style="stroke:#000000;stroke-width:0.8;" x="56.12" xlink:href="#m1f90fe7074" y="80.986931"/>
      </g>
     </g>
     <g id="text_11">
      <!-- 0.8 -->
      <g transform="translate(23.675 87.065681)scale(0.16 -0.16)">
       <use xlink:href="#DejaVuSans-30"/>
       <use x="63.623047" xlink:href="#DejaVuSans-2e"/>
       <use x="95.410156" xlink:href="#DejaVuSans-38"/>
      </g>
     </g>
    </g>
    <g id="ytick_6">
     <g id="line2d_25">
      <path clip-path="url(#pef16a9801e)" d="M 56.12 27.513663 
L 399.984 27.513663 
" style="fill:none;stroke:#b0b0b0;stroke-linecap:square;stroke-width:0.8;"/>
     </g>
     <g id="line2d_26">
      <g>
       <use style="stroke:#000000;stroke-width:0.8;" x="56.12" xlink:href="#m1f90fe7074" y="27.513663"/>
      </g>
     </g>
     <g id="text_12">
      <!-- 1.0 -->
      <g transform="translate(23.675 33.592413)scale(0.16 -0.16)">
       <use xlink:href="#DejaVuSans-31"/>
       <use x="63.623047" xlink:href="#DejaVuSans-2e"/>
       <use x="95.410156" xlink:href="#DejaVuSans-30"/>
      </g>
     </g>
    </g>
    <g id="text_13">
     <!-- Fraction of function,target pairs -->
     <defs>
      <path d="M 9.8125 72.90625 
L 51.703125 72.90625 
L 51.703125 64.59375 
L 19.671875 64.59375 
L 19.671875 43.109375 
L 48.578125 43.109375 
L 48.578125 34.8125 
L 19.671875 34.8125 
L 19.671875 0 
L 9.8125 0 
z
" id="DejaVuSans-46"/>
      <path d="M 41.109375 46.296875 
Q 39.59375 47.171875 37.8125 47.578125 
Q 36.03125 48 33.890625 48 
Q 26.265625 48 22.1875 43.046875 
Q 18.109375 38.09375 18.109375 28.8125 
L 18.109375 0 
L 9.078125 0 
L 9.078125 54.6875 
L 18.109375 54.6875 
L 18.109375 46.1875 
Q 20.953125 51.171875 25.484375 53.578125 
Q 30.03125 56 36.53125 56 
Q 37.453125 56 38.578125 55.875 
Q 39.703125 55.765625 41.0625 55.515625 
z
" id="DejaVuSans-72"/>
      <path d="M 48.78125 52.59375 
L 48.78125 44.1875 
Q 44.96875 46.296875 41.140625 47.34375 
Q 37.3125 48.390625 33.40625 48.390625 
Q 24.65625 48.390625 19.8125 42.84375 
Q 14.984375 37.3125 14.984375 27.296875 
Q 14.984375 17.28125 19.8125 11.734375 
Q 24.65625 6.203125 33.40625 6.203125 
Q 37.3125 6.203125 41.140625 7.25 
Q 44.96875 8.296875 48.78125 10.40625 
L 48.78125 2.09375 
Q 45.015625 0.34375 40.984375 -0.53125 
Q 36.96875 -1.421875 32.421875 -1.421875 
Q 20.0625 -1.421875 12.78125 6.34375 
Q 5.515625 14.109375 5.515625 27.296875 
Q 5.515625 40.671875 12.859375 48.328125 
Q 20.21875 56 33.015625 56 
Q 37.15625 56 41.109375 55.140625 
Q 45.0625 54.296875 48.78125 52.59375 
z
" id="DejaVuSans-63"/>
      <path d="M 18.3125 70.21875 
L 18.3125 54.6875 
L 36.8125 54.6875 
L 36.8125 47.703125 
L 18.3125 47.703125 
L 18.3125 18.015625 
Q 18.3125 11.328125 20.140625 9.421875 
Q 21.96875 7.515625 27.59375 7.515625 
L 36.8125 7.515625 
L 36.8125 0 
L 27.59375 0 
Q 17.1875 0 13.234375 3.875 
Q 9.28125 7.765625 9.28125 18.015625 
L 9.28125 47.703125 
L 2.6875 47.703125 
L 2.6875 54.6875 
L 9.28125 54.6875 
L 9.28125 70.21875 
z
" id="DejaVuSans-74"/>
      <path d="M 8.5 21.578125 
L 8.5 54.6875 
L 17.484375 54.6875 
L 17.484375 21.921875 
Q 17.484375 14.15625 20.5 10.265625 
Q 23.53125 6.390625 29.59375 6.390625 
Q 36.859375 6.390625 41.078125 11.03125 
Q 45.3125 15.671875 45.3125 23.6875 
L 45.3125 54.6875 
L 54.296875 54.6875 
L 54.296875 0 
L 45.3125 0 
L 45.3125 8.40625 
Q 42.046875 3.421875 37.71875 1 
Q 33.40625 -1.421875 27.6875 -1.421875 
Q 18.265625 -1.421875 13.375 4.4375 
Q 8.5 10.296875 8.5 21.578125 
z
M 31.109375 56 
z
" id="DejaVuSans-75"/>
      <path d="M 11.71875 12.40625 
L 22.015625 12.40625 
L 22.015625 4 
L 14.015625 -11.625 
L 7.71875 -11.625 
L 11.71875 4 
z
" id="DejaVuSans-2c"/>
      <path d="M 18.109375 8.203125 
L 18.109375 -20.796875 
L 9.078125 -20.796875 
L 9.078125 54.6875 
L 18.109375 54.6875 
L 18.109375 46.390625 
Q 20.953125 51.265625 25.265625 53.625 
Q 29.59375 56 35.59375 56 
Q 45.5625 56 51.78125 48.09375 
Q 58.015625 40.1875 58.015625 27.296875 
Q 58.015625 14.40625 51.78125 6.484375 
Q 45.5625 -1.421875 35.59375 -1.421875 
Q 29.59375 -1.421875 25.265625 0.953125 
Q 20.953125 3.328125 18.109375 8.203125 
z
M 48.6875 27.296875 
Q 48.6875 37.203125 44.609375 42.84375 
Q 40.53125 48.484375 33.40625 48.484375 
Q 26.265625 48.484375 22.1875 42.84375 
Q 18.109375 37.203125 18.109375 27.296875 
Q 18.109375 17.390625 22.1875 11.75 
Q 26.265625 6.109375 33.40625 6.109375 
Q 40.53125 6.109375 44.609375 11.75 
Q 48.6875 17.390625 48.6875 27.296875 
z
" id="DejaVuSans-70"/>
     </defs>
     <g transform="translate(16.139531 294.999375)rotate(-90)scale(0.17 -0.17)">
      <use xlink:href="#DejaVuSans-46"/>
      <use x="57.410156" xlink:href="#DejaVuSans-72"/>
      <use x="98.523438" xlink:href="#DejaVuSans-61"/>
      <use x="159.802734" xlink:href="#DejaVuSans-63"/>
      <use x="214.783203" xlink:href="#DejaVuSans-74"/>
      <use x="253.992188" xlink:href="#DejaVuSans-69"/>
      <use x="281.775391" xlink:href="#DejaVuSans-6f"/>
      <use x="342.957031" xlink:href="#DejaVuSans-6e"/>
      <use x="406.335938" xlink:href="#DejaVuSans-20"/>
      <use x="438.123047" xlink:href="#DejaVuSans-6f"/>
      <use x="499.304688" xlink:href="#DejaVuSans-66"/>
      <use x="534.509766" xlink:href="#DejaVuSans-20"/>
      <use x="566.296875" xlink:href="#DejaVuSans-66"/>
      <use x="601.501953" xlink:href="#DejaVuSans-75"/>
      <use x="664.880859" xlink:href="#DejaVuSans-6e"/>
      <use x="728.259766" xlink:href="#DejaVuSans-63"/>
      <use x="783.240234" xlink:href="#DejaVuSans-74"/>
      <use x="822.449219" xlink:href="#DejaVuSans-69"/>
      <use x="850.232422" xlink:href="#DejaVuSans-6f"/>
      <use x="911.414062" xlink:href="#DejaVuSans-6e"/>
      <use x="974.792969" xlink:href="#DejaVuSans-2c"/>
      <use x="1006.580078" xlink:href="#DejaVuSans-74"/>
      <use x="1045.789062" xlink:href="#DejaVuSans-61"/>
      <use x="1107.068359" xlink:href="#DejaVuSans-72"/>
      <use x="1148.166016" xlink:href="#DejaVuSans-67"/>
      <use x="1211.642578" xlink:href="#DejaVuSans-65"/>
      <use x="1273.166016" xlink:href="#DejaVuSans-74"/>
      <use x="1312.375" xlink:href="#DejaVuSans-20"/>
      <use x="1344.162109" xlink:href="#DejaVuSans-70"/>
      <use x="1407.638672" xlink:href="#DejaVuSans-61"/>
      <use x="1468.917969" xlink:href="#DejaVuSans-69"/>
      <use x="1496.701172" xlink:href="#DejaVuSans-72"/>
      <use x="1537.814453" xlink:href="#DejaVuSans-73"/>
     </g>
    </g>
   </g>
   <g id="line2d_27">
    <defs>
     <path d="M 0 1.5 
C 0.397805 1.5 0.77937 1.341951 1.06066 1.06066 
C 1.341951 0.77937 1.5 0.397805 1.5 0 
C 1.5 -0.397805 1.341951 -0.77937 1.06066 -1.06066 
C 0.77937 -1.341951 0.397805 -1.5 0 -1.5 
C -0.397805 -1.5 -0.77937 -1.341951 -1.06066 -1.06066 
C -1.341951 -0.77937 -1.5 -0.397805 -1.5 0 
C -1.5 0.397805 -1.341951 0.77937 -1.06066 1.06066 
C -0.77937 1.341951 -0.397805 1.5 0 1.5 
z
" id="m81a25e85e3" style="stroke:#f5deb3;"/>
    </defs>
    <g>
     <use style="fill:#f5deb3;stroke:#f5deb3;" x="155.965449" xlink:href="#m81a25e85e3" y="27.513663"/>
     <use style="fill:#f5deb3;stroke:#f5deb3;" x="155.965449" xlink:href="#m81a25e85e3" y="27.513663"/>
    </g>
   </g>
   <g id="line2d_28">
    <defs>
     <path d="M 0 1.5 
C 0.397805 1.5 0.77937 1.341951 1.06066 1.06066 
C 1.341951 0.77937 1.5 0.397805 1.5 0 
C 1.5 -0.397805 1.341951 -0.77937 1.06066 -1.06066 
C 0.77937 -1.341951 0.397805 -1.5 0 -1.5 
C -0.397805 -1.5 -0.77937 -1.341951 -1.06066 -1.06066 
C -1.341951 -0.77937 -1.5 -0.397805 -1.5 0 
C -1.5 0.397805 -1.341951 0.77937 -1.06066 1.06066 
C -0.77937 1.341951 -0.397805 1.5 0 1.5 
z
" id="m1cc9bcc83a" style="stroke:#000080;"/>
    </defs>
    <g>
     <use style="fill:#000080;stroke:#000080;" x="216.101929" xlink:href="#m1cc9bcc83a" y="27.513663"/>
     <use style="fill:#000080;stroke:#000080;" x="216.101929" xlink:href="#m1cc9bcc83a" y="27.513663"/>
    </g>
   </g>
   <g id="line2d_29">
    <path d="M 106.958836 294.88 
L 106.958836 293.831505 
L 107.313588 293.831505 
L 107.313588 293.307257 
L 115.20129 293.307257 
L 115.20129 291.734514 
L 118.338108 291.734514 
L 118.338108 290.686018 
L 121.991263 290.686018 
L 121.991263 289.637523 
L 122.434331 289.637523 
L 122.434331 289.113275 
L 123.148328 289.113275 
L 123.148328 288.589027 
L 123.425832 288.589027 
L 123.425832 288.06478 
L 124.166665 288.06478 
L 124.166665 287.540532 
L 124.940047 287.540532 
L 124.940047 286.492036 
L 126.389735 286.492036 
L 126.389735 285.967789 
L 128.461173 285.967789 
L 128.461173 284.919293 
L 130.401805 284.919293 
L 130.401805 283.34655 
L 131.597991 283.34655 
L 131.597991 282.822302 
L 131.937015 282.822302 
L 131.937015 282.298055 
L 132.716391 282.298055 
L 132.716391 281.773807 
L 133.073598 281.773807 
L 133.15198 279.676816 
L 133.916767 279.676816 
L 133.916767 279.152568 
L 135.038828 279.152568 
L 135.038828 278.628321 
L 135.556566 278.628321 
L 135.556566 278.104073 
L 135.893267 278.104073 
L 135.926577 276.53133 
L 136.579592 276.53133 
L 136.579592 276.007082 
L 136.739045 276.007082 
L 136.739045 275.482834 
L 138.430709 275.482834 
L 138.430709 274.958587 
L 138.99671 274.958587 
L 138.99671 274.434339 
L 139.245459 274.434339 
L 139.245459 273.910091 
L 140.127953 273.910091 
L 140.127953 273.385844 
L 140.540066 273.385844 
L 140.540066 272.861596 
L 141.262751 272.861596 
L 141.262751 272.337348 
L 141.672697 272.337348 
L 141.672697 271.8131 
L 141.862285 271.8131 
L 141.862285 270.764605 
L 142.395991 270.764605 
L 142.395991 270.240357 
L 142.600408 270.240357 
L 142.600408 269.716109 
L 143.308163 269.716109 
L 143.351446 268.143366 
L 143.799459 268.143366 
L 143.799459 267.619119 
L 144.050324 267.619119 
L 144.050324 267.094871 
L 144.621831 267.094871 
L 144.621831 266.046375 
L 145.502318 266.046375 
L 145.502318 265.522128 
L 145.898283 265.522128 
L 145.898283 264.99788 
L 146.065232 264.99788 
L 146.175638 262.900889 
L 146.230576 262.900889 
L 146.24885 261.852394 
L 146.646042 261.852394 
L 146.699501 259.755403 
L 146.946803 259.755403 
L 146.946803 258.706907 
L 147.138648 258.706907 
L 147.138648 257.134164 
L 147.91851 257.134164 
L 148.017674 251.891687 
L 148.181687 251.891687 
L 148.181687 251.367439 
L 149.134229 251.367439 
L 149.134229 250.843192 
L 149.651479 250.843192 
L 149.651479 249.794696 
L 149.860025 249.794696 
L 149.860025 249.270448 
L 150.16818 249.270448 
L 150.16818 248.746201 
L 150.327419 248.746201 
L 150.327419 247.173458 
L 150.542214 247.173458 
L 150.641541 245.076467 
L 150.78245 245.076467 
L 150.838492 243.503724 
L 150.950031 243.503724 
L 150.950031 242.455228 
L 151.198382 242.455228 
L 151.198382 241.93098 
L 151.657926 241.93098 
L 151.764293 240.882485 
L 151.922622 240.882485 
L 151.922622 240.358237 
L 152.053458 240.358237 
L 152.157415 239.309742 
L 152.37626 239.309742 
L 152.414593 238.261246 
L 152.97956 238.261246 
L 152.97956 237.736999 
L 153.236995 237.736999 
L 153.285596 236.688503 
L 154.593515 236.688503 
L 154.593515 235.11576 
L 154.716768 235.11576 
L 154.794744 230.921778 
L 155.502415 230.921778 
L 155.502415 230.397531 
L 155.808992 230.397531 
L 155.808992 229.873283 
L 155.965449 229.873283 
L 155.965449 228.824787 
L 156.314902 228.824787 
L 156.314902 226.727797 
L 156.476927 226.727797 
L 156.527248 223.58231 
L 156.707196 223.58231 
L 156.727075 222.009567 
L 157.15869 222.009567 
L 157.15869 220.436824 
L 157.437357 220.436824 
L 157.437357 219.912576 
L 157.926004 219.912576 
L 157.981504 218.864081 
L 158.064419 218.864081 
L 158.073607 216.76709 
L 158.616107 216.76709 
L 158.642788 214.670099 
L 158.766756 214.670099 
L 158.766756 214.145851 
L 158.968498 214.145851 
L 158.968498 213.621604 
L 159.167901 213.621604 
L 159.271027 212.573108 
L 159.559906 212.573108 
L 159.652338 208.903374 
L 159.844014 208.903374 
L 159.934936 205.757888 
L 160.099028 205.757888 
L 160.099028 205.23364 
L 160.285818 205.23364 
L 160.366403 203.136649 
L 160.430601 203.136649 
L 160.430601 201.563906 
L 160.621768 201.563906 
L 160.621768 201.039658 
L 160.771616 201.039658 
L 160.771616 200.515411 
L 160.912384 200.515411 
L 160.912384 199.991163 
L 161.044282 199.991163 
L 161.044282 198.942667 
L 161.350699 198.942667 
L 161.350699 197.369924 
L 161.531964 197.369924 
L 161.569488 195.797181 
L 161.741053 195.797181 
L 161.741053 195.272933 
L 162.602381 195.272933 
L 162.602381 193.70019 
L 162.812884 193.70019 
L 162.812884 192.651695 
L 163.0415 192.651695 
L 163.089606 188.457713 
L 163.199061 188.457713 
L 163.24673 187.409218 
L 163.409169 187.409218 
L 163.49652 185.836474 
L 163.703048 185.836474 
L 163.703048 184.787979 
L 163.926747 184.787979 
L 163.926747 182.16674 
L 164.410152 182.16674 
L 164.410152 181.642493 
L 164.66252 181.642493 
L 164.725038 179.545502 
L 164.787329 179.545502 
L 164.787329 179.021254 
L 165.205033 179.021254 
L 165.205033 178.497006 
L 165.683808 178.497006 
L 165.683808 177.972759 
L 165.976415 177.972759 
L 166.028559 176.400016 
L 166.292637 176.400016 
L 166.366538 171.681786 
L 166.614338 171.681786 
L 166.614338 170.633291 
L 166.808934 170.633291 
L 166.86964 169.584795 
L 168.291204 169.584795 
L 168.392349 166.963557 
L 168.452753 166.963557 
L 168.452753 164.866566 
L 168.776302 164.866566 
L 168.879547 158.575593 
L 169.074505 158.575593 
L 169.074505 157.00285 
L 169.190428 157.00285 
L 169.190428 156.478602 
L 169.362861 156.478602 
L 169.362861 155.954354 
L 169.481598 155.954354 
L 169.50052 154.905859 
L 169.623008 154.905859 
L 169.623008 153.857364 
L 169.819051 153.857364 
L 169.819051 153.333116 
L 170.972305 153.333116 
L 170.972305 151.236125 
L 171.243592 151.236125 
L 171.243592 150.711877 
L 171.552683 150.711877 
L 171.552683 150.18763 
L 171.740488 150.18763 
L 171.765374 148.614886 
L 172.578928 148.614886 
L 172.578928 147.566391 
L 173.154291 147.566391 
L 173.188666 143.372409 
L 173.355742 143.372409 
L 173.355742 141.275418 
L 173.949969 141.275418 
L 174.059137 139.178427 
L 174.321922 139.178427 
L 174.321922 138.65418 
L 174.59834 138.65418 
L 174.59834 138.129932 
L 174.79409 138.129932 
L 174.818403 136.557189 
L 175.04254 136.557189 
L 175.04254 135.508693 
L 187.162221 135.508693 
L 187.271962 129.217721 
L 187.489367 129.217721 
L 187.489367 128.693473 
L 187.753225 128.693473 
L 187.753225 125.023739 
L 188.071032 125.023739 
L 188.071032 124.499491 
L 188.213427 124.499491 
L 188.213427 123.975244 
L 188.464921 123.975244 
L 188.464921 123.450996 
L 188.629009 123.450996 
L 188.647662 119.781262 
L 188.793087 119.781262 
L 188.862272 117.684271 
L 189.300086 117.684271 
L 189.300086 117.160023 
L 189.466807 117.160023 
L 189.512669 115.58728 
L 189.783848 115.58728 
L 189.783848 114.538785 
L 190.043658 114.538785 
L 190.043658 112.966042 
L 190.3911 112.966042 
L 190.3911 112.441794 
L 190.669615 112.441794 
L 190.726158 111.393298 
L 191.008826 111.393298 
L 191.071016 110.344803 
L 191.272261 110.344803 
L 191.300248 109.296308 
L 201.773225 109.296308 
L 201.857781 103.529583 
L 202.052763 103.529583 
L 202.122476 102.481087 
L 202.172099 102.481087 
L 202.246266 100.908344 
L 202.30256 100.908344 
L 202.406919 94.617371 
L 202.415296 94.617371 
L 202.514119 86.753656 
L 202.577152 86.753656 
L 202.682613 83.083922 
L 202.848111 83.083922 
L 202.848111 80.462683 
L 208.10406 80.462683 
L 208.201065 68.404985 
L 208.275696 68.404985 
L 208.381119 63.162508 
L 208.40725 63.162508 
L 208.502076 56.347288 
L 208.669321 56.347288 
L 208.775742 53.201802 
L 211.339545 53.201802 
L 211.449295 40.619856 
L 211.570243 40.619856 
L 211.636934 37.998618 
L 211.696451 37.998618 
L 211.696451 37.47437 
L 215.775007 37.47437 
L 215.842937 32.756141 
L 215.887969 32.756141 
L 215.988465 29.086407 
L 216.046397 29.086407 
L 216.101929 27.513663 
L 333.429677 27.513663 
L 333.429677 27.513663 
" style="fill:none;stroke:#000080;stroke-linecap:square;stroke-width:1.5;"/>
   </g>
   <g id="line2d_30">
    <defs>
     <path d="M 0 6 
C 1.591219 6 3.117479 5.367802 4.242641 4.242641 
C 5.367802 3.117479 6 1.591219 6 0 
C 6 -1.591219 5.367802 -3.117479 4.242641 -4.242641 
C 3.117479 -5.367802 1.591219 -6 0 -6 
C -1.591219 -6 -3.117479 -5.367802 -4.242641 -4.242641 
C -5.367802 -3.117479 -6 -1.591219 -6 0 
C -6 1.591219 -5.367802 3.117479 -4.242641 4.242641 
C -3.117479 5.367802 -1.591219 6 0 6 
z
" id="mbf2f63e210" style="stroke:#000080;stroke-width:1.5;"/>
    </defs>
    <g>
     <use style="fill-opacity:0;stroke:#000080;stroke-width:1.5;" x="156.527248" xlink:href="#mbf2f63e210" y="223.58231"/>
     <use style="fill-opacity:0;stroke:#000080;stroke-width:1.5;" x="190.3911" xlink:href="#mbf2f63e210" y="112.441794"/>
     <use style="fill-opacity:0;stroke:#000080;stroke-width:1.5;" x="216.101929" xlink:href="#mbf2f63e210" y="28.037911"/>
     <use style="fill-opacity:0;stroke:#000080;stroke-width:1.5;" x="216.101929" xlink:href="#mbf2f63e210" y="27.513663"/>
     <use style="fill-opacity:0;stroke:#000080;stroke-width:1.5;" x="333.429677" xlink:href="#mbf2f63e210" y="27.513663"/>
    </g>
   </g>
   <g id="line2d_31">
    <path style="fill:none;stroke:#000080;stroke-linecap:square;stroke-width:1.5;"/>
    <g/>
   </g>
   <g id="line2d_32">
    <defs>
     <path d="M 0 1.5 
C 0.397805 1.5 0.77937 1.341951 1.06066 1.06066 
C 1.341951 0.77937 1.5 0.397805 1.5 0 
C 1.5 -0.397805 1.341951 -0.77937 1.06066 -1.06066 
C 0.77937 -1.341951 0.397805 -1.5 0 -1.5 
C -0.397805 -1.5 -0.77937 -1.341951 -1.06066 -1.06066 
C -1.341951 -0.77937 -1.5 -0.397805 -1.5 0 
C -1.5 0.397805 -1.341951 0.77937 -1.06066 1.06066 
C -0.77937 1.341951 -0.397805 1.5 0 1.5 
z
" id="m8c149fe02f" style="stroke:#ff00ff;"/>
    </defs>
    <g>
     <use style="fill:#ff00ff;stroke:#ff00ff;" x="279.207956" xlink:href="#m8c149fe02f" y="27.513663"/>
     <use style="fill:#ff00ff;stroke:#ff00ff;" x="279.207956" xlink:href="#m8c149fe02f" y="27.513663"/>
    </g>
   </g>
   <g id="line2d_33">
    <path d="M 47.331314 294.88 
L 47.331314 294.355752 
L 52.280845 294.355752 
L 52.280845 293.831505 
L 56.12 293.831505 
L 56.12 293.307257 
L 76.131854 293.307257 
L 76.131854 291.734514 
L 81.610808 291.734514 
L 81.610808 290.161771 
L 93.140781 290.161771 
L 93.140781 289.113275 
L 105.461817 289.113275 
L 105.461817 288.06478 
L 116.067126 288.06478 
L 116.067126 287.540532 
L 117.869282 287.540532 
L 117.869282 287.016284 
L 118.973716 287.016284 
L 118.973716 286.492036 
L 122.140223 286.492036 
L 122.140223 285.443541 
L 127.51097 285.443541 
L 127.51097 284.919293 
L 131.640736 284.919293 
L 131.640736 283.870798 
L 140.283654 283.870798 
L 140.283654 282.822302 
L 143.329818 282.822302 
L 143.329818 282.298055 
L 145.445 282.298055 
L 145.445 281.773807 
L 146.484661 281.773807 
L 146.484661 280.725312 
L 147.68488 280.725312 
L 147.68488 279.152568 
L 172.551232 279.152568 
L 172.551232 278.628321 
L 178.334534 278.628321 
L 178.334534 277.055578 
L 178.913184 277.055578 
L 178.913184 275.482834 
L 180.365691 275.482834 
L 180.365691 274.958587 
L 181.266906 274.958587 
L 181.266906 274.434339 
L 181.604753 274.434339 
L 181.604753 273.910091 
L 182.845647 273.910091 
L 182.845647 273.385844 
L 183.301033 273.385844 
L 183.301033 272.861596 
L 183.692951 272.861596 
L 183.692951 272.337348 
L 184.339582 272.337348 
L 184.339582 271.288853 
L 186.165063 271.288853 
L 186.165063 270.764605 
L 188.02921 270.764605 
L 188.120764 269.191862 
L 188.200676 269.191862 
L 188.253214 268.143366 
L 190.343301 268.143366 
L 190.343301 267.619119 
L 190.617043 267.619119 
L 190.617043 267.094871 
L 190.778398 267.094871 
L 190.778398 265.522128 
L 192.142212 265.522128 
L 192.142212 264.99788 
L 192.874551 264.99788 
L 192.874551 264.473632 
L 193.031806 264.473632 
L 193.136249 262.900889 
L 193.201951 262.900889 
L 193.201951 262.376641 
L 193.525578 262.376641 
L 193.525578 261.852394 
L 193.861599 261.852394 
L 193.950868 260.803898 
L 194.083909 260.803898 
L 194.151738 259.231155 
L 194.527822 259.231155 
L 194.527822 258.706907 
L 196.083522 258.706907 
L 196.083522 258.18266 
L 196.853613 258.18266 
L 196.946896 257.134164 
L 197.124365 257.134164 
L 197.224691 256.085669 
L 197.326311 256.085669 
L 197.326311 255.037173 
L 197.639601 255.037173 
L 197.639601 254.512926 
L 198.04294 254.512926 
L 198.04294 253.988678 
L 199.364944 253.988678 
L 199.364944 253.46443 
L 199.95552 253.46443 
L 199.95552 252.940182 
L 200.312523 252.940182 
L 200.347977 250.843192 
L 200.811543 250.843192 
L 200.811543 250.318944 
L 200.951176 250.318944 
L 200.951176 249.794696 
L 201.117554 249.794696 
L 201.117554 249.270448 
L 202.491899 249.270448 
L 202.500929 247.697705 
L 202.837899 247.697705 
L 202.873275 245.600714 
L 203.079316 245.600714 
L 203.079316 245.076467 
L 203.193096 245.076467 
L 203.193096 244.552219 
L 203.428297 244.552219 
L 203.428297 244.027971 
L 203.562667 244.027971 
L 203.562667 242.455228 
L 204.110776 242.455228 
L 204.160667 240.882485 
L 204.776342 240.882485 
L 204.776342 240.358237 
L 205.009612 240.358237 
L 205.009612 239.83399 
L 205.242722 239.83399 
L 205.328962 238.261246 
L 205.368981 238.261246 
L 205.459856 237.212751 
L 205.555487 237.212751 
L 205.555487 236.688503 
L 205.784808 236.688503 
L 205.784808 235.640008 
L 206.006581 235.640008 
L 206.107116 233.543017 
L 206.126252 233.543017 
L 206.126252 233.018769 
L 206.281928 233.018769 
L 206.281928 232.494521 
L 206.819204 232.494521 
L 206.841342 231.446026 
L 206.965011 231.446026 
L 206.965011 230.921778 
L 207.098964 230.921778 
L 207.124462 229.349035 
L 207.315028 229.349035 
L 207.315028 228.824787 
L 207.606528 228.824787 
L 207.606528 228.30054 
L 208.693081 228.30054 
L 208.795984 226.203549 
L 209.218949 226.203549 
L 209.218949 225.679301 
L 209.451883 225.679301 
L 209.494949 223.058063 
L 209.5918 223.058063 
L 209.5918 222.009567 
L 209.85106 222.009567 
L 209.85106 220.961072 
L 210.010238 220.961072 
L 210.010238 220.436824 
L 210.269948 220.436824 
L 210.312339 219.388328 
L 210.426629 219.388328 
L 210.510106 216.76709 
L 210.786476 216.76709 
L 210.786476 215.194347 
L 211.442276 215.194347 
L 211.490941 214.145851 
L 211.780483 214.145851 
L 211.88666 212.573108 
L 211.976178 212.573108 
L 212.027351 211.000365 
L 212.255764 211.000365 
L 212.255764 210.476117 
L 212.53708 210.476117 
L 212.632538 207.854879 
L 213.139873 207.854879 
L 213.24619 204.709392 
L 213.363309 204.709392 
L 213.363309 204.185145 
L 213.682059 204.185145 
L 213.793015 201.563906 
L 213.861328 201.563906 
L 213.861328 200.515411 
L 214.222443 200.515411 
L 214.274368 198.942667 
L 214.503002 198.942667 
L 214.503002 197.894172 
L 214.625288 197.894172 
L 214.712594 192.651695 
L 214.859158 192.651695 
L 214.859158 192.127447 
L 215.476742 192.127447 
L 215.566993 188.457713 
L 215.633158 188.457713 
L 215.740941 185.836474 
L 215.902953 185.836474 
L 215.902953 185.312227 
L 216.529098 185.312227 
L 216.529098 184.263731 
L 216.763493 184.263731 
L 216.812228 182.690988 
L 217.094937 182.690988 
L 217.094937 181.642493 
L 217.432951 181.642493 
L 217.432951 180.593997 
L 217.5706 180.593997 
L 217.652261 179.021254 
L 217.889833 179.021254 
L 217.889833 177.972759 
L 218.192374 177.972759 
L 218.27392 173.778777 
L 218.654237 173.778777 
L 218.757401 171.157538 
L 218.809963 171.157538 
L 218.841154 167.487804 
L 219.064557 167.487804 
L 219.064557 166.439309 
L 219.188218 166.439309 
L 219.188218 164.866566 
L 219.70178 164.866566 
L 219.70178 164.342318 
L 219.927218 164.342318 
L 219.996186 163.293823 
L 220.190772 163.293823 
L 220.190772 162.245327 
L 220.322652 162.245327 
L 220.322652 161.721079 
L 220.511162 161.721079 
L 220.511162 160.672584 
L 220.825934 160.672584 
L 220.825934 160.148336 
L 221.182948 160.148336 
L 221.182948 159.624089 
L 221.368576 159.624089 
L 221.44541 158.051345 
L 221.528568 158.051345 
L 221.573092 157.00285 
L 221.722343 157.00285 
L 221.829261 153.857364 
L 221.847317 153.857364 
L 221.847317 153.333116 
L 222.033984 153.333116 
L 222.115463 151.760373 
L 222.190588 151.760373 
L 222.292226 149.663382 
L 222.318804 149.663382 
L 222.425798 147.042143 
L 222.652885 147.042143 
L 222.652885 145.993648 
L 223.01647 145.993648 
L 223.060252 143.896657 
L 223.158358 143.896657 
L 223.263388 141.275418 
L 223.330156 141.275418 
L 223.330156 140.751171 
L 223.501485 140.751171 
L 223.61076 139.702675 
L 223.639038 139.702675 
L 223.650418 138.129932 
L 223.805724 138.129932 
L 223.805724 136.557189 
L 224.108434 136.557189 
L 224.108434 136.032941 
L 224.453669 136.032941 
L 224.517528 133.93595 
L 224.579418 133.93595 
L 224.579418 133.411703 
L 224.819464 133.411703 
L 224.835589 130.790464 
L 225.004275 130.790464 
L 225.094167 128.169225 
L 225.150484 128.169225 
L 225.183777 127.12073 
L 225.370251 127.12073 
L 225.421825 126.072235 
L 225.721221 126.072235 
L 225.760259 123.450996 
L 225.863809 123.450996 
L 225.952174 121.354005 
L 226.145312 121.354005 
L 226.169368 119.781262 
L 226.382814 119.781262 
L 226.382814 119.257014 
L 226.568975 119.257014 
L 226.652095 117.684271 
L 226.690781 117.684271 
L 226.690781 114.538785 
L 227.140893 114.538785 
L 227.140893 114.014537 
L 227.588904 114.014537 
L 227.608927 111.917546 
L 227.723452 111.917546 
L 227.784424 109.296308 
L 228.094401 109.296308 
L 228.18282 104.05383 
L 228.269388 104.05383 
L 228.363403 101.432592 
L 228.649545 101.432592 
L 228.687936 99.859849 
L 228.774118 99.859849 
L 228.834189 97.762858 
L 228.939372 97.762858 
L 228.97921 95.665867 
L 229.168625 95.665867 
L 229.220578 93.044628 
L 229.320072 93.044628 
L 229.406496 90.947637 
L 229.576901 90.947637 
L 229.656175 89.374894 
L 229.753331 89.374894 
L 229.82896 87.277903 
L 229.988508 87.277903 
L 230.073325 85.70516 
L 230.104483 85.70516 
L 230.104483 85.180912 
L 230.225643 85.180912 
L 230.225643 84.656665 
L 230.409981 84.656665 
L 230.504757 81.511178 
L 230.713249 81.511178 
L 230.720658 80.462683 
L 230.858293 80.462683 
L 230.858293 78.88994 
L 231.137402 78.88994 
L 231.192265 75.220206 
L 231.341659 75.220206 
L 231.341659 73.647463 
L 231.653585 73.647463 
L 231.653585 73.123215 
L 232.045965 73.123215 
L 232.045965 72.074719 
L 232.167986 72.074719 
L 232.167986 71.550472 
L 232.326729 71.550472 
L 232.326729 71.026224 
L 232.573985 71.026224 
L 232.573985 69.977729 
L 232.719332 69.977729 
L 232.719332 69.453481 
L 233.005922 69.453481 
L 233.068313 68.404985 
L 233.181683 68.404985 
L 233.198835 64.211004 
L 233.328258 64.211004 
L 233.439244 61.589765 
L 233.577377 61.589765 
L 233.655685 59.492774 
L 233.741211 59.492774 
L 233.804936 55.82304 
L 233.97198 55.82304 
L 233.97198 55.298792 
L 234.243979 55.298792 
L 234.243979 54.774545 
L 234.671026 54.774545 
L 234.700547 53.201802 
L 234.917192 53.201802 
L 234.934385 52.153306 
L 235.25804 52.153306 
L 235.362941 49.532068 
L 235.510286 49.532068 
L 235.609711 46.386581 
L 235.991855 46.386581 
L 236.083022 44.813838 
L 236.232468 44.813838 
L 236.232468 44.28959 
L 236.4121 44.28959 
L 236.440328 43.241095 
L 236.999206 43.241095 
L 237.05764 42.192599 
L 237.395186 42.192599 
L 237.395186 41.668352 
L 257.272851 41.668352 
L 257.272851 41.144104 
L 257.426075 41.144104 
L 257.426075 40.619856 
L 257.544496 40.619856 
L 257.606169 39.571361 
L 257.7773 39.571361 
L 257.7773 39.047113 
L 258.071349 39.047113 
L 258.071349 38.522865 
L 258.263658 38.522865 
L 258.283316 37.47437 
L 258.677017 37.47437 
L 258.702884 36.425875 
L 258.802017 36.425875 
L 258.807703 35.377379 
L 258.9484 35.377379 
L 258.9484 34.853131 
L 259.137891 34.853131 
L 259.243361 33.804636 
L 259.28079 33.804636 
L 259.36578 32.756141 
L 259.542962 32.756141 
L 259.542962 32.231893 
L 259.692078 32.231893 
L 259.692078 31.707645 
L 268.201336 31.707645 
L 268.201336 31.183397 
L 268.489519 31.183397 
L 268.57133 30.134902 
L 268.679883 30.134902 
L 268.692173 29.086407 
L 268.832645 29.086407 
L 268.832645 28.562159 
L 269.145364 28.562159 
L 269.145364 28.037911 
L 279.207956 28.037911 
L 279.207956 27.513663 
L 333.429677 27.513663 
L 333.429677 27.513663 
" style="fill:none;stroke:#ff00ff;stroke-linecap:square;stroke-width:1.5;"/>
   </g>
   <g id="line2d_34">
    <defs>
     <path d="M -0 8.485281 
L 5.091169 0 
L 0 -8.485281 
L -5.091169 -0 
z
" id="mb1ef5befef" style="stroke:#ff00ff;stroke-linejoin:miter;stroke-width:1.5;"/>
    </defs>
    <g>
     <use style="fill-opacity:0;stroke:#ff00ff;stroke-linejoin:miter;stroke-width:1.5;" x="143.329818" xlink:href="#mb1ef5befef" y="282.822302"/>
     <use style="fill-opacity:0;stroke:#ff00ff;stroke-linejoin:miter;stroke-width:1.5;" x="206.107116" xlink:href="#mb1ef5befef" y="234.067265"/>
     <use style="fill-opacity:0;stroke:#ff00ff;stroke-linejoin:miter;stroke-width:1.5;" x="236.440328" xlink:href="#mb1ef5befef" y="43.765343"/>
     <use style="fill-opacity:0;stroke:#ff00ff;stroke-linejoin:miter;stroke-width:1.5;" x="279.207956" xlink:href="#mb1ef5befef" y="27.513663"/>
     <use style="fill-opacity:0;stroke:#ff00ff;stroke-linejoin:miter;stroke-width:1.5;" x="279.207956" xlink:href="#mb1ef5befef" y="27.513663"/>
     <use style="fill-opacity:0;stroke:#ff00ff;stroke-linejoin:miter;stroke-width:1.5;" x="333.429677" xlink:href="#mb1ef5befef" y="27.513663"/>
    </g>
   </g>
   <g id="line2d_35">
    <path style="fill:none;stroke:#ff00ff;stroke-linecap:square;stroke-width:1.5;"/>
    <g/>
   </g>
   <g id="line2d_36">
    <path clip-path="url(#pef16a9801e)" d="M 254.270861 41.668352 
" style="fill:none;stroke:#ff00ff;stroke-linecap:square;stroke-width:1.5;"/>
    <defs>
     <path d="M -12 12 
L 12 -12 
M -12 -12 
L 12 12 
" id="mf3b718ef84" style="stroke:#ff00ff;stroke-width:3;"/>
    </defs>
    <g clip-path="url(#pef16a9801e)">
     <use style="fill:#ff00ff;stroke:#ff00ff;stroke-width:3;" x="254.270861" xlink:href="#mf3b718ef84" y="41.668352"/>
    </g>
   </g>
   <g id="line2d_37">
    <defs>
     <path d="M 0 1.5 
C 0.397805 1.5 0.77937 1.341951 1.06066 1.06066 
C 1.341951 0.77937 1.5 0.397805 1.5 0 
C 1.5 -0.397805 1.341951 -0.77937 1.06066 -1.06066 
C 0.77937 -1.341951 0.397805 -1.5 0 -1.5 
C -0.397805 -1.5 -0.77937 -1.341951 -1.06066 -1.06066 
C -1.341951 -0.77937 -1.5 -0.397805 -1.5 0 
C -1.5 0.397805 -1.341951 0.77937 -1.06066 1.06066 
C -0.77937 1.341951 -0.397805 1.5 0 1.5 
z
" id="mdc47015fc4" style="stroke:#ffa500;"/>
    </defs>
    <g>
     <use style="fill:#ffa500;stroke:#ffa500;" x="282.823536" xlink:href="#mdc47015fc4" y="237.212751"/>
     <use style="fill:#ffa500;stroke:#ffa500;" x="282.823536" xlink:href="#mdc47015fc4" y="237.212751"/>
    </g>
   </g>
   <g id="line2d_38">
    <path d="M 28.429836 294.88 
L 28.429836 294.355752 
L 52.280845 294.355752 
L 52.280845 293.831505 
L 75.021477 293.831505 
L 75.021477 292.258761 
L 90.555195 292.258761 
L 90.555195 291.734514 
L 97.685473 291.734514 
L 97.685473 290.161771 
L 99.156871 290.161771 
L 99.156871 289.637523 
L 100.512285 289.637523 
L 100.512285 289.113275 
L 107.137126 289.113275 
L 107.137126 288.06478 
L 108.169728 288.06478 
L 108.169728 287.540532 
L 113.077449 287.540532 
L 113.077449 287.016284 
L 130.447623 287.016284 
L 130.447623 286.492036 
L 133.073598 286.492036 
L 133.073598 285.443541 
L 133.804194 285.443541 
L 133.804194 284.395046 
L 134.359835 284.395046 
L 134.359835 283.34655 
L 135.420019 283.34655 
L 135.420019 282.822302 
L 136.418647 282.822302 
L 136.418647 281.773807 
L 137.393064 281.773807 
L 137.393064 281.249559 
L 137.545186 281.249559 
L 137.545186 280.201064 
L 143.264771 280.201064 
L 143.264771 278.628321 
L 144.521159 278.628321 
L 144.521159 278.104073 
L 150.796478 278.104073 
L 150.796478 277.579825 
L 151.830441 277.579825 
L 151.830441 276.53133 
L 157.683415 276.53133 
L 157.683415 275.482834 
L 158.238161 275.482834 
L 158.319851 273.910091 
L 158.374097 273.910091 
L 158.374097 273.385844 
L 164.082919 273.385844 
L 164.082919 272.861596 
L 167.164588 272.861596 
L 167.164588 271.8131 
L 167.385201 271.8131 
L 167.385201 271.288853 
L 168.928494 271.288853 
L 168.977302 270.240357 
L 173.573528 270.240357 
L 173.614523 267.619119 
L 176.947505 267.619119 
L 176.947505 267.094871 
L 185.283136 267.094871 
L 185.283136 266.046375 
L 186.525602 266.046375 
L 186.525602 264.99788 
L 188.452354 264.99788 
L 188.452354 264.473632 
L 192.195388 264.473632 
L 192.195388 263.949385 
L 198.025834 263.949385 
L 198.090568 262.376641 
L 198.154165 262.376641 
L 198.154165 261.852394 
L 210.821622 261.852394 
L 210.821622 260.803898 
L 211.218215 260.803898 
L 211.218215 260.279651 
L 211.837892 260.279651 
L 211.837892 259.755403 
L 213.600646 259.755403 
L 213.600646 259.231155 
L 213.957941 259.231155 
L 214.036263 258.18266 
L 216.974387 258.18266 
L 216.974387 257.658412 
L 219.148152 257.658412 
L 219.148152 257.134164 
L 219.751539 257.134164 
L 219.751539 256.609917 
L 223.436408 256.609917 
L 223.436408 256.085669 
L 224.431359 256.085669 
L 224.431359 255.561421 
L 224.602306 255.561421 
L 224.602306 255.037173 
L 225.393579 255.037173 
L 225.393579 254.512926 
L 231.665318 254.512926 
L 231.665318 253.988678 
L 231.808149 253.988678 
L 231.808149 253.46443 
L 233.875604 253.46443 
L 233.875604 252.940182 
L 236.67384 252.940182 
L 236.67384 252.415935 
L 237.320185 252.415935 
L 237.320185 251.891687 
L 239.133018 251.891687 
L 239.133018 251.367439 
L 240.319001 251.367439 
L 240.359967 250.318944 
L 240.59031 250.318944 
L 240.59031 249.794696 
L 240.876076 249.794696 
L 240.941634 248.746201 
L 243.356439 248.746201 
L 243.422996 247.697705 
L 243.974212 247.697705 
L 243.974212 247.173458 
L 246.198815 247.173458 
L 246.198815 246.64921 
L 246.702507 246.64921 
L 246.702507 246.124962 
L 249.245001 246.124962 
L 249.245001 245.600714 
L 250.494272 245.600714 
L 250.494272 245.076467 
L 253.100843 245.076467 
L 253.100843 244.552219 
L 254.030848 244.552219 
L 254.030848 244.027971 
L 257.823351 244.027971 
L 257.823351 243.503724 
L 259.393406 243.503724 
L 259.393406 242.979476 
L 261.429092 242.979476 
L 261.429092 242.455228 
L 264.311916 242.455228 
L 264.311916 241.93098 
L 264.462744 241.93098 
L 264.462744 241.406733 
L 265.756007 241.406733 
L 265.756007 240.882485 
L 267.6893 240.882485 
L 267.6893 240.358237 
L 268.463258 240.358237 
L 268.463258 239.83399 
L 270.901648 239.83399 
L 270.901648 239.309742 
L 276.410206 239.309742 
L 276.410206 238.785494 
L 277.004703 238.785494 
L 277.004703 238.261246 
L 278.572406 238.261246 
L 278.572406 237.736999 
L 282.823536 237.736999 
L 282.823536 237.212751 
L 333.429677 237.212751 
L 333.429677 237.212751 
" style="fill:none;stroke:#ffa500;stroke-linecap:square;stroke-width:1.5;"/>
   </g>
   <g id="line2d_39">
    <defs>
     <path d="M 0 -6 
L -1.347084 -1.854102 
L -5.706339 -1.854102 
L -2.179628 0.708204 
L -3.526712 4.854102 
L -0 2.291796 
L 3.526712 4.854102 
L 2.179628 0.708204 
L 5.706339 -1.854102 
L 1.347084 -1.854102 
z
" id="m09087aeb03" style="stroke:#ffa500;stroke-linejoin:bevel;stroke-width:1.5;"/>
    </defs>
    <g>
     <use style="fill-opacity:0;stroke:#ffa500;stroke-linejoin:bevel;stroke-width:1.5;" x="97.685473" xlink:href="#m09087aeb03" y="290.161771"/>
     <use style="fill-opacity:0;stroke:#ffa500;stroke-linejoin:bevel;stroke-width:1.5;" x="158.374097" xlink:href="#m09087aeb03" y="273.910091"/>
     <use style="fill-opacity:0;stroke:#ffa500;stroke-linejoin:bevel;stroke-width:1.5;" x="225.393579" xlink:href="#m09087aeb03" y="255.037173"/>
     <use style="fill-opacity:0;stroke:#ffa500;stroke-linejoin:bevel;stroke-width:1.5;" x="282.823536" xlink:href="#m09087aeb03" y="237.736999"/>
     <use style="fill-opacity:0;stroke:#ffa500;stroke-linejoin:bevel;stroke-width:1.5;" x="282.823536" xlink:href="#m09087aeb03" y="237.212751"/>
     <use style="fill-opacity:0;stroke:#ffa500;stroke-linejoin:bevel;stroke-width:1.5;" x="333.429677" xlink:href="#m09087aeb03" y="237.212751"/>
    </g>
   </g>
   <g id="line2d_40">
    <path style="fill:none;stroke:#ffa500;stroke-linecap:square;stroke-width:1.5;"/>
    <g/>
   </g>
   <g id="line2d_41">
    <path clip-path="url(#pef16a9801e)" d="M 213.125648 259.755403 
" style="fill:none;stroke:#ffa500;stroke-linecap:square;stroke-width:1.5;"/>
    <defs>
     <path d="M -12 12 
L 12 -12 
M -12 -12 
L 12 12 
" id="mc6dbbbe918" style="stroke:#ffa500;stroke-width:3;"/>
    </defs>
    <g clip-path="url(#pef16a9801e)">
     <use style="fill:#ffa500;stroke:#ffa500;stroke-width:3;" x="213.125648" xlink:href="#mc6dbbbe918" y="259.755403"/>
    </g>
   </g>
   <g id="line2d_42">
    <defs>
     <path d="M 0 1.5 
C 0.397805 1.5 0.77937 1.341951 1.06066 1.06066 
C 1.341951 0.77937 1.5 0.397805 1.5 0 
C 1.5 -0.397805 1.341951 -0.77937 1.06066 -1.06066 
C 0.77937 -1.341951 0.397805 -1.5 0 -1.5 
C -0.397805 -1.5 -0.77937 -1.341951 -1.06066 -1.06066 
C -1.341951 -0.77937 -1.5 -0.397805 -1.5 0 
C -1.5 0.397805 -1.341951 0.77937 -1.06066 1.06066 
C -0.77937 1.341951 -0.397805 1.5 0 1.5 
z
" id="m4d4d245f9c" style="stroke:#6495ed;"/>
    </defs>
    <g>
     <use style="fill:#6495ed;stroke:#6495ed;" x="135.316892" xlink:href="#m4d4d245f9c" y="284.395046"/>
     <use style="fill:#6495ed;stroke:#6495ed;" x="135.316892" xlink:href="#m4d4d245f9c" y="284.395046"/>
    </g>
   </g>
   <g id="line2d_43">
    <path d="M 28.429836 294.88 
L 28.429836 294.355752 
L 40.355341 294.355752 
L 40.355341 293.831505 
L 64.20635 293.831505 
L 64.20635 293.307257 
L 66.232791 293.307257 
L 66.232791 292.783009 
L 76.131854 292.783009 
L 76.131854 291.734514 
L 82.375594 291.734514 
L 82.375594 291.210266 
L 92.735942 291.210266 
L 92.735942 290.686018 
L 101.768673 290.686018 
L 101.768673 290.161771 
L 103.605601 290.161771 
L 103.605601 289.113275 
L 107.661173 289.113275 
L 107.661173 288.589027 
L 109.763911 288.589027 
L 109.763911 287.540532 
L 112.696514 287.540532 
L 112.696514 287.016284 
L 114.522062 287.016284 
L 114.522062 286.492036 
L 119.326649 286.492036 
L 119.326649 285.967789 
L 124.622019 285.967789 
L 124.622019 285.443541 
L 132.994857 285.443541 
L 132.994857 284.919293 
L 135.316892 284.919293 
L 135.316892 284.395046 
L 333.429677 284.395046 
" style="fill:none;stroke:#6495ed;stroke-linecap:square;stroke-width:1.5;"/>
   </g>
   <g id="line2d_44">
    <defs>
     <path d="M -0 6 
L 6 -6 
L -6 -6 
z
" id="m342a216437" style="stroke:#6495ed;stroke-linejoin:miter;stroke-width:1.5;"/>
    </defs>
    <g>
     <use style="fill-opacity:0;stroke:#6495ed;stroke-linejoin:miter;stroke-width:1.5;" x="82.375594" xlink:href="#m342a216437" y="291.210266"/>
     <use style="fill-opacity:0;stroke:#6495ed;stroke-linejoin:miter;stroke-width:1.5;" x="135.316892" xlink:href="#m342a216437" y="284.919293"/>
     <use style="fill-opacity:0;stroke:#6495ed;stroke-linejoin:miter;stroke-width:1.5;" x="135.316892" xlink:href="#m342a216437" y="284.919293"/>
     <use style="fill-opacity:0;stroke:#6495ed;stroke-linejoin:miter;stroke-width:1.5;" x="135.316892" xlink:href="#m342a216437" y="284.395046"/>
     <use style="fill-opacity:0;stroke:#6495ed;stroke-linejoin:miter;stroke-width:1.5;" x="135.316892" xlink:href="#m342a216437" y="284.395046"/>
     <use style="fill-opacity:0;stroke:#6495ed;stroke-linejoin:miter;stroke-width:1.5;" x="333.429677" xlink:href="#m342a216437" y="284.395046"/>
    </g>
   </g>
   <g id="line2d_45">
    <path style="fill:none;stroke:#6495ed;stroke-linecap:square;stroke-width:1.5;"/>
    <g/>
   </g>
   <g id="line2d_46">
    <path clip-path="url(#pef16a9801e)" d="M 80.810437 291.734514 
" style="fill:none;stroke:#6495ed;stroke-linecap:square;stroke-width:1.5;"/>
    <defs>
     <path d="M -12 12 
L 12 -12 
M -12 -12 
L 12 12 
" id="m6d55c6479a" style="stroke:#6495ed;stroke-width:3;"/>
    </defs>
    <g clip-path="url(#pef16a9801e)">
     <use style="fill:#6495ed;stroke:#6495ed;stroke-width:3;" x="80.810437" xlink:href="#m6d55c6479a" y="291.734514"/>
    </g>
   </g>
   <g id="line2d_47">
    <path d="M 333.429677 284.395046 
L 363.933742 289.532673 
" style="fill:none;stroke:#6495ed;stroke-linecap:square;stroke-width:1.5;"/>
    <g>
     <use style="fill-opacity:0;stroke:#6495ed;stroke-linejoin:miter;stroke-width:1.5;" x="333.429677" xlink:href="#m342a216437" y="284.395046"/>
     <use style="fill-opacity:0;stroke:#6495ed;stroke-linejoin:miter;stroke-width:1.5;" x="363.933742" xlink:href="#m342a216437" y="289.532673"/>
    </g>
   </g>
   <g id="line2d_48">
    <path d="M 333.429677 237.212751 
L 363.933742 225.364752 
" style="fill:none;stroke:#ffa500;stroke-linecap:square;stroke-width:1.5;"/>
    <g>
     <use style="fill-opacity:0;stroke:#ffa500;stroke-linejoin:bevel;stroke-width:1.5;" x="333.429677" xlink:href="#m09087aeb03" y="237.212751"/>
     <use style="fill-opacity:0;stroke:#ffa500;stroke-linejoin:bevel;stroke-width:1.5;" x="363.933742" xlink:href="#m09087aeb03" y="225.364752"/>
    </g>
   </g>
   <g id="line2d_49">
    <path d="M 333.429677 27.513663 
L 363.933742 161.196832 
" style="fill:none;stroke:#ff00ff;stroke-linecap:square;stroke-width:1.5;"/>
    <g>
     <use style="fill-opacity:0;stroke:#ff00ff;stroke-linejoin:miter;stroke-width:1.5;" x="333.429677" xlink:href="#mb1ef5befef" y="27.513663"/>
     <use style="fill-opacity:0;stroke:#ff00ff;stroke-linejoin:miter;stroke-width:1.5;" x="363.933742" xlink:href="#mb1ef5befef" y="161.196832"/>
    </g>
   </g>
   <g id="line2d_50">
    <path d="M 333.429677 27.513663 
L 363.933742 97.028911 
" style="fill:none;stroke:#000080;stroke-linecap:square;stroke-width:1.5;"/>
    <g>
     <use style="fill-opacity:0;stroke:#000080;stroke-width:1.5;" x="333.429677" xlink:href="#mbf2f63e210" y="27.513663"/>
     <use style="fill-opacity:0;stroke:#000080;stroke-width:1.5;" x="363.933742" xlink:href="#mbf2f63e210" y="97.028911"/>
    </g>
   </g>
   <g id="line2d_51">
    <path d="M 333.429677 294.88 
L 333.429677 27.513663 
" style="fill:none;stroke:#000000;stroke-linecap:square;stroke-width:1.5;"/>
   </g>
   <g id="patch_3">
    <path d="M 56.12 294.88 
L 56.12 24.84 
" style="fill:none;stroke:#000000;stroke-linecap:square;stroke-linejoin:miter;stroke-width:0.8;"/>
   </g>
   <g id="patch_4">
    <path d="M 399.984 294.88 
L 399.984 24.84 
" style="fill:none;stroke:#000000;stroke-linecap:square;stroke-linejoin:miter;stroke-width:0.8;"/>
   </g>
   <g id="patch_5">
    <path d="M 56.12 294.88 
L 399.984 294.88 
" style="fill:none;stroke:#000000;stroke-linecap:square;stroke-linejoin:miter;stroke-width:0.8;"/>
   </g>
   <g id="patch_6">
    <path d="M 56.12 24.84 
L 399.984 24.84 
" style="fill:none;stroke:#000000;stroke-linecap:square;stroke-linejoin:miter;stroke-width:0.8;"/>
   </g>
   <g id="text_14">
    <!-- hybrid -->
    <defs>
     <path d="M 54.890625 33.015625 
L 54.890625 0 
L 45.90625 0 
L 45.90625 32.71875 
Q 45.90625 40.484375 42.875 44.328125 
Q 39.84375 48.1875 33.796875 48.1875 
Q 26.515625 48.1875 22.3125 43.546875 
Q 18.109375 38.921875 18.109375 30.90625 
L 18.109375 0 
L 9.078125 0 
L 9.078125 75.984375 
L 18.109375 75.984375 
L 18.109375 46.1875 
Q 21.34375 51.125 25.703125 53.5625 
Q 30.078125 56 35.796875 56 
Q 45.21875 56 50.046875 50.171875 
Q 54.890625 44.34375 54.890625 33.015625 
z
" id="DejaVuSans-68"/>
     <path d="M 32.171875 -5.078125 
Q 28.375 -14.84375 24.75 -17.8125 
Q 21.140625 -20.796875 15.09375 -20.796875 
L 7.90625 -20.796875 
L 7.90625 -13.28125 
L 13.1875 -13.28125 
Q 16.890625 -13.28125 18.9375 -11.515625 
Q 21 -9.765625 23.484375 -3.21875 
L 25.09375 0.875 
L 2.984375 54.6875 
L 12.5 54.6875 
L 29.59375 11.921875 
L 46.6875 54.6875 
L 56.203125 54.6875 
z
" id="DejaVuSans-79"/>
     <path d="M 48.6875 27.296875 
Q 48.6875 37.203125 44.609375 42.84375 
Q 40.53125 48.484375 33.40625 48.484375 
Q 26.265625 48.484375 22.1875 42.84375 
Q 18.109375 37.203125 18.109375 27.296875 
Q 18.109375 17.390625 22.1875 11.75 
Q 26.265625 6.109375 33.40625 6.109375 
Q 40.53125 6.109375 44.609375 11.75 
Q 48.6875 17.390625 48.6875 27.296875 
z
M 18.109375 46.390625 
Q 20.953125 51.265625 25.265625 53.625 
Q 29.59375 56 35.59375 56 
Q 45.5625 56 51.78125 48.09375 
Q 58.015625 40.1875 58.015625 27.296875 
Q 58.015625 14.40625 51.78125 6.484375 
Q 45.5625 -1.421875 35.59375 -1.421875 
Q 29.59375 -1.421875 25.265625 0.953125 
Q 20.953125 3.328125 18.109375 8.203125 
L 18.109375 0 
L 9.078125 0 
L 9.078125 75.984375 
L 18.109375 75.984375 
z
" id="DejaVuSans-62"/>
    </defs>
    <g transform="translate(369.479935 294.223611)scale(0.17 -0.17)">
     <use xlink:href="#DejaVuSans-68"/>
     <use x="63.378906" xlink:href="#DejaVuSans-79"/>
     <use x="122.558594" xlink:href="#DejaVuSans-62"/>
     <use x="186.035156" xlink:href="#DejaVuSans-72"/>
     <use x="227.148438" xlink:href="#DejaVuSans-69"/>
     <use x="254.931641" xlink:href="#DejaVuSans-64"/>
    </g>
   </g>
   <g id="text_15">
    <!-- Rosenbroc -->
    <defs>
     <path d="M 44.390625 34.1875 
Q 47.5625 33.109375 50.5625 29.59375 
Q 53.5625 26.078125 56.59375 19.921875 
L 66.609375 0 
L 56 0 
L 46.6875 18.703125 
Q 43.0625 26.03125 39.671875 28.421875 
Q 36.28125 30.8125 30.421875 30.8125 
L 19.671875 30.8125 
L 19.671875 0 
L 9.8125 0 
L 9.8125 72.90625 
L 32.078125 72.90625 
Q 44.578125 72.90625 50.734375 67.671875 
Q 56.890625 62.453125 56.890625 51.90625 
Q 56.890625 45.015625 53.6875 40.46875 
Q 50.484375 35.9375 44.390625 34.1875 
z
M 19.671875 64.796875 
L 19.671875 38.921875 
L 32.078125 38.921875 
Q 39.203125 38.921875 42.84375 42.21875 
Q 46.484375 45.515625 46.484375 51.90625 
Q 46.484375 58.296875 42.84375 61.546875 
Q 39.203125 64.796875 32.078125 64.796875 
z
" id="DejaVuSans-52"/>
    </defs>
    <g transform="translate(369.479935 230.05569)scale(0.17 -0.17)">
     <use xlink:href="#DejaVuSans-52"/>
     <use x="69.419922" xlink:href="#DejaVuSans-6f"/>
     <use x="130.601562" xlink:href="#DejaVuSans-73"/>
     <use x="182.701172" xlink:href="#DejaVuSans-65"/>
     <use x="244.224609" xlink:href="#DejaVuSans-6e"/>
     <use x="307.603516" xlink:href="#DejaVuSans-62"/>
     <use x="371.080078" xlink:href="#DejaVuSans-72"/>
     <use x="412.162109" xlink:href="#DejaVuSans-6f"/>
     <use x="473.34375" xlink:href="#DejaVuSans-63"/>
    </g>
   </g>
   <g id="text_16">
    <!-- GA -->
    <defs>
     <path d="M 59.515625 10.40625 
L 59.515625 29.984375 
L 43.40625 29.984375 
L 43.40625 38.09375 
L 69.28125 38.09375 
L 69.28125 6.78125 
Q 63.578125 2.734375 56.6875 0.65625 
Q 49.8125 -1.421875 42 -1.421875 
Q 24.90625 -1.421875 15.25 8.5625 
Q 5.609375 18.5625 5.609375 36.375 
Q 5.609375 54.25 15.25 64.234375 
Q 24.90625 74.21875 42 74.21875 
Q 49.125 74.21875 55.546875 72.453125 
Q 61.96875 70.703125 67.390625 67.28125 
L 67.390625 56.78125 
Q 61.921875 61.421875 55.765625 63.765625 
Q 49.609375 66.109375 42.828125 66.109375 
Q 29.4375 66.109375 22.71875 58.640625 
Q 16.015625 51.171875 16.015625 36.375 
Q 16.015625 21.625 22.71875 14.15625 
Q 29.4375 6.6875 42.828125 6.6875 
Q 48.046875 6.6875 52.140625 7.59375 
Q 56.25 8.5 59.515625 10.40625 
z
" id="DejaVuSans-47"/>
     <path d="M 34.1875 63.1875 
L 20.796875 26.90625 
L 47.609375 26.90625 
z
M 28.609375 72.90625 
L 39.796875 72.90625 
L 67.578125 0 
L 57.328125 0 
L 50.6875 18.703125 
L 17.828125 18.703125 
L 11.1875 0 
L 0.78125 0 
z
" id="DejaVuSans-41"/>
    </defs>
    <g transform="translate(369.479935 165.887769)scale(0.17 -0.17)">
     <use xlink:href="#DejaVuSans-47"/>
     <use x="77.490234" xlink:href="#DejaVuSans-41"/>
    </g>
   </g>
   <g id="text_17">
    <!-- DASA -->
    <defs>
     <path d="M 19.671875 64.796875 
L 19.671875 8.109375 
L 31.59375 8.109375 
Q 46.6875 8.109375 53.6875 14.9375 
Q 60.6875 21.78125 60.6875 36.53125 
Q 60.6875 51.171875 53.6875 57.984375 
Q 46.6875 64.796875 31.59375 64.796875 
z
M 9.8125 72.90625 
L 30.078125 72.90625 
Q 51.265625 72.90625 61.171875 64.09375 
Q 71.09375 55.28125 71.09375 36.53125 
Q 71.09375 17.671875 61.125 8.828125 
Q 51.171875 0 30.078125 0 
L 9.8125 0 
z
" id="DejaVuSans-44"/>
     <path d="M 53.515625 70.515625 
L 53.515625 60.890625 
Q 47.90625 63.578125 42.921875 64.890625 
Q 37.9375 66.21875 33.296875 66.21875 
Q 25.25 66.21875 20.875 63.09375 
Q 16.5 59.96875 16.5 54.203125 
Q 16.5 49.359375 19.40625 46.890625 
Q 22.3125 44.4375 30.421875 42.921875 
L 36.375 41.703125 
Q 47.40625 39.59375 52.65625 34.296875 
Q 57.90625 29 57.90625 20.125 
Q 57.90625 9.515625 50.796875 4.046875 
Q 43.703125 -1.421875 29.984375 -1.421875 
Q 24.8125 -1.421875 18.96875 -0.25 
Q 13.140625 0.921875 6.890625 3.21875 
L 6.890625 13.375 
Q 12.890625 10.015625 18.65625 8.296875 
Q 24.421875 6.59375 29.984375 6.59375 
Q 38.421875 6.59375 43.015625 9.90625 
Q 47.609375 13.234375 47.609375 19.390625 
Q 47.609375 24.75 44.3125 27.78125 
Q 41.015625 30.8125 33.5 32.328125 
L 27.484375 33.5 
Q 16.453125 35.6875 11.515625 40.375 
Q 6.59375 45.0625 6.59375 53.421875 
Q 6.59375 63.09375 13.40625 68.65625 
Q 20.21875 74.21875 32.171875 74.21875 
Q 37.3125 74.21875 42.625 73.28125 
Q 47.953125 72.359375 53.515625 70.515625 
z
" id="DejaVuSans-53"/>
    </defs>
    <g transform="translate(369.479935 101.719848)scale(0.17 -0.17)">
     <use xlink:href="#DejaVuSans-44"/>
     <use x="76.986328" xlink:href="#DejaVuSans-41"/>
     <use x="145.394531" xlink:href="#DejaVuSans-53"/>
     <use x="208.886719" xlink:href="#DejaVuSans-41"/>
    </g>
   </g>
   <g id="text_18">
    <!-- best 2009 -->
    <defs>
     <path d="M 10.984375 1.515625 
L 10.984375 10.5 
Q 14.703125 8.734375 18.5 7.8125 
Q 22.3125 6.890625 25.984375 6.890625 
Q 35.75 6.890625 40.890625 13.453125 
Q 46.046875 20.015625 46.78125 33.40625 
Q 43.953125 29.203125 39.59375 26.953125 
Q 35.25 24.703125 29.984375 24.703125 
Q 19.046875 24.703125 12.671875 31.3125 
Q 6.296875 37.9375 6.296875 49.421875 
Q 6.296875 60.640625 12.9375 67.421875 
Q 19.578125 74.21875 30.609375 74.21875 
Q 43.265625 74.21875 49.921875 64.515625 
Q 56.59375 54.828125 56.59375 36.375 
Q 56.59375 19.140625 48.40625 8.859375 
Q 40.234375 -1.421875 26.421875 -1.421875 
Q 22.703125 -1.421875 18.890625 -0.6875 
Q 15.09375 0.046875 10.984375 1.515625 
z
M 30.609375 32.421875 
Q 37.25 32.421875 41.125 36.953125 
Q 45.015625 41.5 45.015625 49.421875 
Q 45.015625 57.28125 41.125 61.84375 
Q 37.25 66.40625 30.609375 66.40625 
Q 23.96875 66.40625 20.09375 61.84375 
Q 16.21875 57.28125 16.21875 49.421875 
Q 16.21875 41.5 20.09375 36.953125 
Q 23.96875 32.421875 30.609375 32.421875 
z
" id="DejaVuSans-39"/>
    </defs>
    <g transform="translate(369.479935 37.551928)scale(0.17 -0.17)">
     <use xlink:href="#DejaVuSans-62"/>
     <use x="63.476562" xlink:href="#DejaVuSans-65"/>
     <use x="125" xlink:href="#DejaVuSans-73"/>
     <use x="177.099609" xlink:href="#DejaVuSans-74"/>
     <use x="216.308594" xlink:href="#DejaVuSans-20"/>
     <use x="248.095703" xlink:href="#DejaVuSans-32"/>
     <use x="311.71875" xlink:href="#DejaVuSans-30"/>
     <use x="375.341797" xlink:href="#DejaVuSans-30"/>
     <use x="438.964844" xlink:href="#DejaVuSans-39"/>
    </g>
   </g>
   <g id="text_19">
    <!-- bbob f3, 5-D -->
    <defs>
     <path d="M 40.578125 39.3125 
Q 47.65625 37.796875 51.625 33 
Q 55.609375 28.21875 55.609375 21.1875 
Q 55.609375 10.40625 48.1875 4.484375 
Q 40.765625 -1.421875 27.09375 -1.421875 
Q 22.515625 -1.421875 17.65625 -0.515625 
Q 12.796875 0.390625 7.625 2.203125 
L 7.625 11.71875 
Q 11.71875 9.328125 16.59375 8.109375 
Q 21.484375 6.890625 26.8125 6.890625 
Q 36.078125 6.890625 40.9375 10.546875 
Q 45.796875 14.203125 45.796875 21.1875 
Q 45.796875 27.640625 41.28125 31.265625 
Q 36.765625 34.90625 28.71875 34.90625 
L 20.21875 34.90625 
L 20.21875 43.015625 
L 29.109375 43.015625 
Q 36.375 43.015625 40.234375 45.921875 
Q 44.09375 48.828125 44.09375 54.296875 
Q 44.09375 59.90625 40.109375 62.90625 
Q 36.140625 65.921875 28.71875 65.921875 
Q 24.65625 65.921875 20.015625 65.03125 
Q 15.375 64.15625 9.8125 62.3125 
L 9.8125 71.09375 
Q 15.4375 72.65625 20.34375 73.4375 
Q 25.25 74.21875 29.59375 74.21875 
Q 40.828125 74.21875 47.359375 69.109375 
Q 53.90625 64.015625 53.90625 55.328125 
Q 53.90625 49.265625 50.4375 45.09375 
Q 46.96875 40.921875 40.578125 39.3125 
z
" id="DejaVuSans-33"/>
     <path d="M 10.796875 72.90625 
L 49.515625 72.90625 
L 49.515625 64.59375 
L 19.828125 64.59375 
L 19.828125 46.734375 
Q 21.96875 47.46875 24.109375 47.828125 
Q 26.265625 48.1875 28.421875 48.1875 
Q 40.625 48.1875 47.75 41.5 
Q 54.890625 34.8125 54.890625 23.390625 
Q 54.890625 11.625 47.5625 5.09375 
Q 40.234375 -1.421875 26.90625 -1.421875 
Q 22.3125 -1.421875 17.546875 -0.640625 
Q 12.796875 0.140625 7.71875 1.703125 
L 7.71875 11.625 
Q 12.109375 9.234375 16.796875 8.0625 
Q 21.484375 6.890625 26.703125 6.890625 
Q 35.15625 6.890625 40.078125 11.328125 
Q 45.015625 15.765625 45.015625 23.390625 
Q 45.015625 31 40.078125 35.4375 
Q 35.15625 39.890625 26.703125 39.890625 
Q 22.75 39.890625 18.8125 39.015625 
Q 14.890625 38.140625 10.796875 36.28125 
z
" id="DejaVuSans-35"/>
    </defs>
    <g transform="translate(59.55864 35.290806)scale(0.102 -0.102)">
     <use xlink:href="#DejaVuSans-62"/>
     <use x="63.476562" xlink:href="#DejaVuSans-62"/>
     <use x="126.953125" xlink:href="#DejaVuSans-6f"/>
     <use x="188.134766" xlink:href="#DejaVuSans-62"/>
     <use x="251.611328" xlink:href="#DejaVuSans-20"/>
     <use x="283.398438" xlink:href="#DejaVuSans-66"/>
     <use x="318.603516" xlink:href="#DejaVuSans-33"/>
     <use x="382.226562" xlink:href="#DejaVuSans-2c"/>
     <use x="414.013672" xlink:href="#DejaVuSans-20"/>
     <use x="445.800781" xlink:href="#DejaVuSans-35"/>
     <use x="509.423828" xlink:href="#DejaVuSans-2d"/>
     <use x="545.507812" xlink:href="#DejaVuSans-44"/>
    </g>
    <!-- 51 targets: 100..1e-08 -->
    <defs>
     <path d="M 11.71875 12.40625 
L 22.015625 12.40625 
L 22.015625 0 
L 11.71875 0 
z
M 11.71875 51.703125 
L 22.015625 51.703125 
L 22.015625 39.3125 
L 11.71875 39.3125 
z
" id="DejaVuSans-3a"/>
    </defs>
    <g transform="translate(59.55864 46.712575)scale(0.102 -0.102)">
     <use xlink:href="#DejaVuSans-35"/>
     <use x="63.623047" xlink:href="#DejaVuSans-31"/>
     <use x="127.246094" xlink:href="#DejaVuSans-20"/>
     <use x="159.033203" xlink:href="#DejaVuSans-74"/>
     <use x="198.242188" xlink:href="#DejaVuSans-61"/>
     <use x="259.521484" xlink:href="#DejaVuSans-72"/>
     <use x="300.619141" xlink:href="#DejaVuSans-67"/>
     <use x="364.095703" xlink:href="#DejaVuSans-65"/>
     <use x="425.619141" xlink:href="#DejaVuSans-74"/>
     <use x="464.828125" xlink:href="#DejaVuSans-73"/>
     <use x="516.927734" xlink:href="#DejaVuSans-3a"/>
     <use x="550.619141" xlink:href="#DejaVuSans-20"/>
     <use x="582.40625" xlink:href="#DejaVuSans-31"/>
     <use x="646.029297" xlink:href="#DejaVuSans-30"/>
     <use x="709.652344" xlink:href="#DejaVuSans-30"/>
     <use x="773.275391" xlink:href="#DejaVuSans-2e"/>
     <use x="805.0625" xlink:href="#DejaVuSans-2e"/>
     <use x="836.849609" xlink:href="#DejaVuSans-31"/>
     <use x="900.472656" xlink:href="#DejaVuSans-65"/>
     <use x="961.996094" xlink:href="#DejaVuSans-2d"/>
     <use x="998.080078" xlink:href="#DejaVuSans-30"/>
     <use x="1061.703125" xlink:href="#DejaVuSans-38"/>
    </g>
    <!-- 15 instances -->
    <g transform="translate(59.55864 58.134344)scale(0.102 -0.102)">
     <use xlink:href="#DejaVuSans-31"/>
     <use x="63.623047" xlink:href="#DejaVuSans-35"/>
     <use x="127.246094" xlink:href="#DejaVuSans-20"/>
     <use x="159.033203" xlink:href="#DejaVuSans-69"/>
     <use x="186.816406" xlink:href="#DejaVuSans-6e"/>
     <use x="250.195312" xlink:href="#DejaVuSans-73"/>
     <use x="302.294922" xlink:href="#DejaVuSans-74"/>
     <use x="341.503906" xlink:href="#DejaVuSans-61"/>
     <use x="402.783203" xlink:href="#DejaVuSans-6e"/>
     <use x="466.162109" xlink:href="#DejaVuSans-63"/>
     <use x="521.142578" xlink:href="#DejaVuSans-65"/>
     <use x="582.666016" xlink:href="#DejaVuSans-73"/>
    </g>
   </g>
   <g id="text_20">
    <!-- v-coco-version -->
    <g style="fill:#808080;" transform="translate(191.556688 290.099912)scale(0.1 -0.1)">
     <use xlink:href="#DejaVuSans-76"/>
     <use x="59.148438" xlink:href="#DejaVuSans-2d"/>
     <use x="95.232422" xlink:href="#DejaVuSans-63"/>
     <use x="150.212891" xlink:href="#DejaVuSans-6f"/>
     <use x="211.394531" xlink:href="#DejaVuSans-63"/>
     <use x="266.375" xlink:href="#DejaVuSans-6f"/>
     <use x="327.572266" xlink:href="#DejaVuSans-2d"/>
     <use x="363.625" xlink:href="#DejaVuSans-76"/>
     <use x="422.804688" xlink:href="#DejaVuSans-65"/>
     <use x="484.328125" xlink:href="#DejaVuSans-72"/>
     <use x="525.441406" xlink:href="#DejaVuSans-73"/>
     <use x="577.541016" xlink:href="#DejaVuSans-69"/>
     <use x="605.324219" xlink:href="#DejaVuSans-6f"/>
     <use x="666.505859" xlink:href="#DejaVuSans-6e"/>
    </g>
   </g>
   <g id="text_21">
    <!-- 3 Rastrigin separable -->
    <g transform="translate(121.419188 18.84)scale(0.2 -0.2)">
     <use xlink:href="#DejaVuSans-33"/>
     <use x="63.623047" xlink:href="#DejaVuSans-20"/>
     <use x="95.410156" xlink:href="#DejaVuSans-52"/>
     <use x="164.861328" xlink:href="#DejaVuSans-61"/>
     <use x="226.140625" xlink:href="#DejaVuSans-73"/>
     <use x="278.240234" xlink:href="#DejaVuSans-74"/>
     <use x="317.449219" xlink:href="#DejaVuSans-72"/>
     <use x="358.5625" xlink:href="#DejaVuSans-69"/>
     <use x="386.345703" xlink:href="#DejaVuSans-67"/>
     <use x="449.822266" xlink:href="#DejaVuSans-69"/>
     <use x="477.605469" xlink:href="#DejaVuSans-6e"/>
     <use x="540.984375" xlink:href="#DejaVuSans-20"/>
     <use x="572.771484" xlink:href="#DejaVuSans-73"/>
     <use x="624.871094" xlink:href="#DejaVuSans-65"/>
     <use x="686.394531" xlink:href="#DejaVuSans-70"/>
     <use x="749.871094" xlink:href="#DejaVuSans-61"/>
     <use x="811.150391" xlink:href="#DejaVuSans-72"/>
     <use x="852.263672" xlink:href="#DejaVuSans-61"/>
     <use x="913.542969" xlink:href="#DejaVuSans-62"/>
     <use x="977.019531" xlink:href="#DejaVuSans-6c"/>
     <use x="1004.802734" xlink:href="#DejaVuSans-65"/>
    </g>
   </g>
  </g>
 </g>
 <defs>
  <clipPath id="pef16a9801e">
   <rect height="270.04" width="343.864" x="56.12" y="24.84"/>
  </clipPath>
 </defs>
</svg>
