<?xml version="1.0" encoding="utf-8" standalone="no"?>
<!DOCTYPE svg PUBLIC "-//W3C//DTD SVG 1.1//EN"
  "http://www.w3.org/Graphics/SVG/1.1/DTD/svg11.dtd">
<!-- Created with matplotlib (http://matplotlib.org/) -->
<svg height="345.6pt" version="1.1" viewBox="0 0 460.8 345.6" width="460.8pt" xmlns="http://www.w3.org/2000/svg" xmlns:xlink="http://www.w3.org/1999/xlink">
 <defs>
  <style type="text/css">
*{stroke-linecap:butt;stroke-linejoin:round;}
  </style>
 </defs>
 <g id="figure_1">
  <g id="patch_1">
   <path d="M 0 345.6 
L 460.8 345.6 
L 460.8 0 
L 0 0 
z
" style="fill:#ffffff;"/>
  </g>
  <g id="axes_1">
   <g id="patch_2">
    <path d="M 56.12 294.88 
L 399.984 294.88 
L 399.984 24.84 
L 56.12 24.84 
z
" style="fill:#ffffff;"/>
   </g>
   <g id="line2d_1">
    <path d="M 16.504332 294.88 
L 16.504332 289.637523 
L 66.232791 289.637523 
L 66.232791 284.395046 
L 75.021477 284.395046 
L 75.021477 279.152568 
L 81.215276 279.152568 
L 81.215276 273.910091 
L 91.238922 273.910091 
L 91.238922 268.667614 
L 95.388083 268.667614 
L 95.388083 263.425137 
L 103.275786 263.425137 
L 103.275786 258.18266 
L 127.429366 258.18266 
L 127.429366 252.940182 
L 131.768338 252.940182 
L 131.768338 247.697705 
L 153.236995 247.697705 
L 153.236995 242.455228 
L 153.303786 242.455228 
L 153.303786 237.212751 
L 166.459882 237.212751 
L 166.459882 231.970274 
L 166.736912 231.970274 
L 166.736912 226.727797 
L 166.842073 226.727797 
L 166.842073 221.485319 
L 166.888911 221.485319 
L 166.888911 216.242842 
L 167.16188 216.242842 
L 167.16188 211.000365 
L 167.253712 211.000365 
L 167.253712 205.757888 
L 167.435917 205.757888 
L 167.435917 200.515411 
L 167.560735 200.515411 
L 167.560735 195.272933 
L 167.671514 195.272933 
L 167.671514 190.030456 
L 167.870174 190.030456 
L 167.870174 184.787979 
L 167.947966 184.787979 
L 167.947966 179.545502 
L 167.98673 179.545502 
L 167.98673 174.303025 
L 168.189459 174.303025 
L 168.189459 169.060547 
L 168.301345 169.060547 
L 168.301345 163.81807 
L 168.326672 163.81807 
L 168.326672 158.575593 
L 168.522956 158.575593 
L 168.522956 153.333116 
L 168.54796 153.333116 
L 168.54796 148.090639 
L 168.565441 148.090639 
L 168.565441 142.848162 
L 168.60782 142.848162 
L 168.60782 137.605684 
L 168.642643 137.605684 
L 168.642643 132.363207 
L 168.874644 132.363207 
L 168.874644 127.12073 
L 168.904038 127.12073 
L 168.904038 121.878253 
L 169.047829 121.878253 
L 169.047829 116.635776 
L 171.734261 116.635776 
L 171.734261 111.393298 
L 171.752936 111.393298 
L 171.752936 106.150821 
L 171.948834 106.150821 
L 171.948834 100.908344 
L 172.000018 100.908344 
L 172.000018 95.665867 
L 172.022491 95.665867 
L 172.022491 90.42339 
L 172.11412 90.42339 
L 172.11412 85.180912 
L 175.428726 85.180912 
L 175.428726 79.938435 
L 175.44212 79.938435 
L 175.44212 74.695958 
L 175.472219 74.695958 
L 175.472219 69.453481 
L 175.490587 69.453481 
L 175.490587 64.211004 
L 175.517269 64.211004 
L 175.517269 58.968526 
L 175.560539 58.968526 
L 175.560539 53.726049 
L 175.57217 53.726049 
L 175.57217 48.483572 
L 180.097097 48.483572 
L 180.097097 43.241095 
L 180.140456 43.241095 
L 180.140456 37.998618 
L 180.170998 37.998618 
L 180.170998 32.756141 
L 180.399599 32.756141 
L 180.399599 27.513663 
L 333.429677 27.513663 
" style="fill:none;stroke:#f5deb3;stroke-linecap:square;stroke-width:6;"/>
   </g>
   <g id="line2d_2">
    <defs>
     <path d="M -0 7.778175 
L 7.778175 0 
L 0 -7.778175 
L -7.778175 -0 
z
" id="mb8a6c5810c" style="stroke:#f5deb3;stroke-linejoin:miter;stroke-width:1.5;"/>
    </defs>
    <g>
     <use style="fill:#f5deb3;stroke:#f5deb3;stroke-linejoin:miter;stroke-width:1.5;" x="103.275786" xlink:href="#mb8a6c5810c" y="263.425137"/>
     <use style="fill:#f5deb3;stroke:#f5deb3;stroke-linejoin:miter;stroke-width:1.5;" x="168.60782" xlink:href="#mb8a6c5810c" y="137.605684"/>
     <use style="fill:#f5deb3;stroke:#f5deb3;stroke-linejoin:miter;stroke-width:1.5;" x="175.57217" xlink:href="#mb8a6c5810c" y="53.726049"/>
     <use style="fill:#f5deb3;stroke:#f5deb3;stroke-linejoin:miter;stroke-width:1.5;" x="180.399599" xlink:href="#mb8a6c5810c" y="27.513663"/>
     <use style="fill:#f5deb3;stroke:#f5deb3;stroke-linejoin:miter;stroke-width:1.5;" x="180.399599" xlink:href="#mb8a6c5810c" y="27.513663"/>
     <use style="fill:#f5deb3;stroke:#f5deb3;stroke-linejoin:miter;stroke-width:1.5;" x="333.429677" xlink:href="#mb8a6c5810c" y="27.513663"/>
    </g>
   </g>
   <g id="line2d_3">
    <path style="fill:none;stroke:#f5deb3;stroke-linecap:square;stroke-width:6;"/>
    <g/>
   </g>
   <g id="line2d_4">
    <path d="M 333.429677 27.513663 
L 363.933742 32.86099 
" style="fill:none;stroke:#f5deb3;stroke-linecap:square;stroke-width:6;"/>
    <g>
     <use style="fill:#f5deb3;stroke:#f5deb3;stroke-linejoin:miter;stroke-width:1.5;" x="333.429677" xlink:href="#mb8a6c5810c" y="27.513663"/>
     <use style="fill:#f5deb3;stroke:#f5deb3;stroke-linejoin:miter;stroke-width:1.5;" x="363.933742" xlink:href="#mb8a6c5810c" y="32.86099"/>
    </g>
   </g>
   <g id="matplotlib.axis_1">
    <g id="xtick_1">
     <g id="line2d_5">
      <path clip-path="url(#p28c7813fa7)" d="M 56.12 294.88 
L 56.12 24.84 
" style="fill:none;stroke:#b0b0b0;stroke-linecap:square;stroke-width:0.8;"/>
     </g>
     <g id="line2d_6">
      <defs>
       <path d="M 0 0 
L 0 3.5 
" id="m77989fc3a3" style="stroke:#000000;stroke-width:0.8;"/>
      </defs>
      <g>
       <use style="stroke:#000000;stroke-width:0.8;" x="56.12" xlink:href="#m77989fc3a3" y="294.88"/>
      </g>
     </g>
     <g id="text_1">
      <!-- 0 -->
      <defs>
       <path d="M 31.78125 66.40625 
Q 24.171875 66.40625 20.328125 58.90625 
Q 16.5 51.421875 16.5 36.375 
Q 16.5 21.390625 20.328125 13.890625 
Q 24.171875 6.390625 31.78125 6.390625 
Q 39.453125 6.390625 43.28125 13.890625 
Q 47.125 21.390625 47.125 36.375 
Q 47.125 51.421875 43.28125 58.90625 
Q 39.453125 66.40625 31.78125 66.40625 
z
M 31.78125 74.21875 
Q 44.046875 74.21875 50.515625 64.515625 
Q 56.984375 54.828125 56.984375 36.375 
Q 56.984375 17.96875 50.515625 8.265625 
Q 44.046875 -1.421875 31.78125 -1.421875 
Q 19.53125 -1.421875 13.0625 8.265625 
Q 6.59375 17.96875 6.59375 36.375 
Q 6.59375 54.828125 13.0625 64.515625 
Q 19.53125 74.21875 31.78125 74.21875 
z
" id="DejaVuSans-30"/>
      </defs>
      <g transform="translate(49.7575 317.076875)scale(0.2 -0.2)">
       <use xlink:href="#DejaVuSans-30"/>
      </g>
     </g>
    </g>
    <g id="xtick_2">
     <g id="line2d_7">
      <path clip-path="url(#p28c7813fa7)" d="M 135.351336 294.88 
L 135.351336 24.84 
" style="fill:none;stroke:#b0b0b0;stroke-linecap:square;stroke-width:0.8;"/>
     </g>
     <g id="line2d_8">
      <g>
       <use style="stroke:#000000;stroke-width:0.8;" x="135.351336" xlink:href="#m77989fc3a3" y="294.88"/>
      </g>
     </g>
     <g id="text_2">
      <!-- 2 -->
      <defs>
       <path d="M 19.1875 8.296875 
L 53.609375 8.296875 
L 53.609375 0 
L 7.328125 0 
L 7.328125 8.296875 
Q 12.9375 14.109375 22.625 23.890625 
Q 32.328125 33.6875 34.8125 36.53125 
Q 39.546875 41.84375 41.421875 45.53125 
Q 43.3125 49.21875 43.3125 52.78125 
Q 43.3125 58.59375 39.234375 62.25 
Q 35.15625 65.921875 28.609375 65.921875 
Q 23.96875 65.921875 18.8125 64.3125 
Q 13.671875 62.703125 7.8125 59.421875 
L 7.8125 69.390625 
Q 13.765625 71.78125 18.9375 73 
Q 24.125 74.21875 28.421875 74.21875 
Q 39.75 74.21875 46.484375 68.546875 
Q 53.21875 62.890625 53.21875 53.421875 
Q 53.21875 48.921875 51.53125 44.890625 
Q 49.859375 40.875 45.40625 35.40625 
Q 44.1875 33.984375 37.640625 27.21875 
Q 31.109375 20.453125 19.1875 8.296875 
z
" id="DejaVuSans-32"/>
      </defs>
      <g transform="translate(128.988836 317.076875)scale(0.2 -0.2)">
       <use xlink:href="#DejaVuSans-32"/>
      </g>
     </g>
    </g>
    <g id="xtick_3">
     <g id="line2d_9">
      <path clip-path="url(#p28c7813fa7)" d="M 214.582673 294.88 
L 214.582673 24.84 
" style="fill:none;stroke:#b0b0b0;stroke-linecap:square;stroke-width:0.8;"/>
     </g>
     <g id="line2d_10">
      <g>
       <use style="stroke:#000000;stroke-width:0.8;" x="214.582673" xlink:href="#m77989fc3a3" y="294.88"/>
      </g>
     </g>
     <g id="text_3">
      <!-- 4 -->
      <defs>
       <path d="M 37.796875 64.3125 
L 12.890625 25.390625 
L 37.796875 25.390625 
z
M 35.203125 72.90625 
L 47.609375 72.90625 
L 47.609375 25.390625 
L 58.015625 25.390625 
L 58.015625 17.1875 
L 47.609375 17.1875 
L 47.609375 0 
L 37.796875 0 
L 37.796875 17.1875 
L 4.890625 17.1875 
L 4.890625 26.703125 
z
" id="DejaVuSans-34"/>
      </defs>
      <g transform="translate(208.220173 317.076875)scale(0.2 -0.2)">
       <use xlink:href="#DejaVuSans-34"/>
      </g>
     </g>
    </g>
    <g id="xtick_4">
     <g id="line2d_11">
      <path clip-path="url(#p28c7813fa7)" d="M 293.814009 294.88 
L 293.814009 24.84 
" style="fill:none;stroke:#b0b0b0;stroke-linecap:square;stroke-width:0.8;"/>
     </g>
     <g id="line2d_12">
      <g>
       <use style="stroke:#000000;stroke-width:0.8;" x="293.814009" xlink:href="#m77989fc3a3" y="294.88"/>
      </g>
     </g>
     <g id="text_4">
      <!-- 6 -->
      <defs>
       <path d="M 33.015625 40.375 
Q 26.375 40.375 22.484375 35.828125 
Q 18.609375 31.296875 18.609375 23.390625 
Q 18.609375 15.53125 22.484375 10.953125 
Q 26.375 6.390625 33.015625 6.390625 
Q 39.65625 6.390625 43.53125 10.953125 
Q 47.40625 15.53125 47.40625 23.390625 
Q 47.40625 31.296875 43.53125 35.828125 
Q 39.65625 40.375 33.015625 40.375 
z
M 52.59375 71.296875 
L 52.59375 62.3125 
Q 48.875 64.0625 45.09375 64.984375 
Q 41.3125 65.921875 37.59375 65.921875 
Q 27.828125 65.921875 22.671875 59.328125 
Q 17.53125 52.734375 16.796875 39.40625 
Q 19.671875 43.65625 24.015625 45.921875 
Q 28.375 48.1875 33.59375 48.1875 
Q 44.578125 48.1875 50.953125 41.515625 
Q 57.328125 34.859375 57.328125 23.390625 
Q 57.328125 12.15625 50.6875 5.359375 
Q 44.046875 -1.421875 33.015625 -1.421875 
Q 20.359375 -1.421875 13.671875 8.265625 
Q 6.984375 17.96875 6.984375 36.375 
Q 6.984375 53.65625 15.1875 63.9375 
Q 23.390625 74.21875 37.203125 74.21875 
Q 40.921875 74.21875 44.703125 73.484375 
Q 48.484375 72.75 52.59375 71.296875 
z
" id="DejaVuSans-36"/>
      </defs>
      <g transform="translate(287.451509 317.076875)scale(0.2 -0.2)">
       <use xlink:href="#DejaVuSans-36"/>
      </g>
     </g>
    </g>
    <g id="xtick_5">
     <g id="line2d_13">
      <path clip-path="url(#p28c7813fa7)" d="M 373.045346 294.88 
L 373.045346 24.84 
" style="fill:none;stroke:#b0b0b0;stroke-linecap:square;stroke-width:0.8;"/>
     </g>
     <g id="line2d_14">
      <g>
       <use style="stroke:#000000;stroke-width:0.8;" x="373.045346" xlink:href="#m77989fc3a3" y="294.88"/>
      </g>
     </g>
     <g id="text_5">
      <!-- 8 -->
      <defs>
       <path d="M 31.78125 34.625 
Q 24.75 34.625 20.71875 30.859375 
Q 16.703125 27.09375 16.703125 20.515625 
Q 16.703125 13.921875 20.71875 10.15625 
Q 24.75 6.390625 31.78125 6.390625 
Q 38.8125 6.390625 42.859375 10.171875 
Q 46.921875 13.96875 46.921875 20.515625 
Q 46.921875 27.09375 42.890625 30.859375 
Q 38.875 34.625 31.78125 34.625 
z
M 21.921875 38.8125 
Q 15.578125 40.375 12.03125 44.71875 
Q 8.5 49.078125 8.5 55.328125 
Q 8.5 64.0625 14.71875 69.140625 
Q 20.953125 74.21875 31.78125 74.21875 
Q 42.671875 74.21875 48.875 69.140625 
Q 55.078125 64.0625 55.078125 55.328125 
Q 55.078125 49.078125 51.53125 44.71875 
Q 48 40.375 41.703125 38.8125 
Q 48.828125 37.15625 52.796875 32.3125 
Q 56.78125 27.484375 56.78125 20.515625 
Q 56.78125 9.90625 50.3125 4.234375 
Q 43.84375 -1.421875 31.78125 -1.421875 
Q 19.734375 -1.421875 13.25 4.234375 
Q 6.78125 9.90625 6.78125 20.515625 
Q 6.78125 27.484375 10.78125 32.3125 
Q 14.796875 37.15625 21.921875 38.8125 
z
M 18.3125 54.390625 
Q 18.3125 48.734375 21.84375 45.5625 
Q 25.390625 42.390625 31.78125 42.390625 
Q 38.140625 42.390625 41.71875 45.5625 
Q 45.3125 48.734375 45.3125 54.390625 
Q 45.3125 60.0625 41.71875 63.234375 
Q 38.140625 66.40625 31.78125 66.40625 
Q 25.390625 66.40625 21.84375 63.234375 
Q 18.3125 60.0625 18.3125 54.390625 
z
" id="DejaVuSans-38"/>
      </defs>
      <g transform="translate(366.682846 317.076875)scale(0.2 -0.2)">
       <use xlink:href="#DejaVuSans-38"/>
      </g>
     </g>
    </g>
    <g id="text_6">
     <!-- log10(# f-evals / dimension) -->
     <defs>
      <path d="M 9.421875 75.984375 
L 18.40625 75.984375 
L 18.40625 0 
L 9.421875 0 
z
" id="DejaVuSans-6c"/>
      <path d="M 30.609375 48.390625 
Q 23.390625 48.390625 19.1875 42.75 
Q 14.984375 37.109375 14.984375 27.296875 
Q 14.984375 17.484375 19.15625 11.84375 
Q 23.34375 6.203125 30.609375 6.203125 
Q 37.796875 6.203125 41.984375 11.859375 
Q 46.1875 17.53125 46.1875 27.296875 
Q 46.1875 37.015625 41.984375 42.703125 
Q 37.796875 48.390625 30.609375 48.390625 
z
M 30.609375 56 
Q 42.328125 56 49.015625 48.375 
Q 55.71875 40.765625 55.71875 27.296875 
Q 55.71875 13.875 49.015625 6.21875 
Q 42.328125 -1.421875 30.609375 -1.421875 
Q 18.84375 -1.421875 12.171875 6.21875 
Q 5.515625 13.875 5.515625 27.296875 
Q 5.515625 40.765625 12.171875 48.375 
Q 18.84375 56 30.609375 56 
z
" id="DejaVuSans-6f"/>
      <path d="M 45.40625 27.984375 
Q 45.40625 37.75 41.375 43.109375 
Q 37.359375 48.484375 30.078125 48.484375 
Q 22.859375 48.484375 18.828125 43.109375 
Q 14.796875 37.75 14.796875 27.984375 
Q 14.796875 18.265625 18.828125 12.890625 
Q 22.859375 7.515625 30.078125 7.515625 
Q 37.359375 7.515625 41.375 12.890625 
Q 45.40625 18.265625 45.40625 27.984375 
z
M 54.390625 6.78125 
Q 54.390625 -7.171875 48.1875 -13.984375 
Q 42 -20.796875 29.203125 -20.796875 
Q 24.46875 -20.796875 20.265625 -20.09375 
Q 16.0625 -19.390625 12.109375 -17.921875 
L 12.109375 -9.1875 
Q 16.0625 -11.328125 19.921875 -12.34375 
Q 23.78125 -13.375 27.78125 -13.375 
Q 36.625 -13.375 41.015625 -8.765625 
Q 45.40625 -4.15625 45.40625 5.171875 
L 45.40625 9.625 
Q 42.625 4.78125 38.28125 2.390625 
Q 33.9375 0 27.875 0 
Q 17.828125 0 11.671875 7.65625 
Q 5.515625 15.328125 5.515625 27.984375 
Q 5.515625 40.671875 11.671875 48.328125 
Q 17.828125 56 27.875 56 
Q 33.9375 56 38.28125 53.609375 
Q 42.625 51.21875 45.40625 46.390625 
L 45.40625 54.6875 
L 54.390625 54.6875 
z
" id="DejaVuSans-67"/>
      <path d="M 12.40625 8.296875 
L 28.515625 8.296875 
L 28.515625 63.921875 
L 10.984375 60.40625 
L 10.984375 69.390625 
L 28.421875 72.90625 
L 38.28125 72.90625 
L 38.28125 8.296875 
L 54.390625 8.296875 
L 54.390625 0 
L 12.40625 0 
z
" id="DejaVuSans-31"/>
      <path d="M 31 75.875 
Q 24.46875 64.65625 21.28125 53.65625 
Q 18.109375 42.671875 18.109375 31.390625 
Q 18.109375 20.125 21.3125 9.0625 
Q 24.515625 -2 31 -13.1875 
L 23.1875 -13.1875 
Q 15.875 -1.703125 12.234375 9.375 
Q 8.59375 20.453125 8.59375 31.390625 
Q 8.59375 42.28125 12.203125 53.3125 
Q 15.828125 64.359375 23.1875 75.875 
z
" id="DejaVuSans-28"/>
      <path d="M 51.125 44 
L 36.921875 44 
L 32.8125 27.6875 
L 47.125 27.6875 
z
M 43.796875 71.78125 
L 38.71875 51.515625 
L 52.984375 51.515625 
L 58.109375 71.78125 
L 65.921875 71.78125 
L 60.890625 51.515625 
L 76.125 51.515625 
L 76.125 44 
L 58.984375 44 
L 54.984375 27.6875 
L 70.515625 27.6875 
L 70.515625 20.21875 
L 53.078125 20.21875 
L 48 0 
L 40.1875 0 
L 45.21875 20.21875 
L 30.90625 20.21875 
L 25.875 0 
L 18.015625 0 
L 23.09375 20.21875 
L 7.71875 20.21875 
L 7.71875 27.6875 
L 24.90625 27.6875 
L 29 44 
L 13.28125 44 
L 13.28125 51.515625 
L 30.90625 51.515625 
L 35.890625 71.78125 
z
" id="DejaVuSans-23"/>
      <path id="DejaVuSans-20"/>
      <path d="M 37.109375 75.984375 
L 37.109375 68.5 
L 28.515625 68.5 
Q 23.6875 68.5 21.796875 66.546875 
Q 19.921875 64.59375 19.921875 59.515625 
L 19.921875 54.6875 
L 34.71875 54.6875 
L 34.71875 47.703125 
L 19.921875 47.703125 
L 19.921875 0 
L 10.890625 0 
L 10.890625 47.703125 
L 2.296875 47.703125 
L 2.296875 54.6875 
L 10.890625 54.6875 
L 10.890625 58.5 
Q 10.890625 67.625 15.140625 71.796875 
Q 19.390625 75.984375 28.609375 75.984375 
z
" id="DejaVuSans-66"/>
      <path d="M 4.890625 31.390625 
L 31.203125 31.390625 
L 31.203125 23.390625 
L 4.890625 23.390625 
z
" id="DejaVuSans-2d"/>
      <path d="M 56.203125 29.59375 
L 56.203125 25.203125 
L 14.890625 25.203125 
Q 15.484375 15.921875 20.484375 11.0625 
Q 25.484375 6.203125 34.421875 6.203125 
Q 39.59375 6.203125 44.453125 7.46875 
Q 49.3125 8.734375 54.109375 11.28125 
L 54.109375 2.78125 
Q 49.265625 0.734375 44.1875 -0.34375 
Q 39.109375 -1.421875 33.890625 -1.421875 
Q 20.796875 -1.421875 13.15625 6.1875 
Q 5.515625 13.8125 5.515625 26.8125 
Q 5.515625 40.234375 12.765625 48.109375 
Q 20.015625 56 32.328125 56 
Q 43.359375 56 49.78125 48.890625 
Q 56.203125 41.796875 56.203125 29.59375 
z
M 47.21875 32.234375 
Q 47.125 39.59375 43.09375 43.984375 
Q 39.0625 48.390625 32.421875 48.390625 
Q 24.90625 48.390625 20.390625 44.140625 
Q 15.875 39.890625 15.1875 32.171875 
z
" id="DejaVuSans-65"/>
      <path d="M 2.984375 54.6875 
L 12.5 54.6875 
L 29.59375 8.796875 
L 46.6875 54.6875 
L 56.203125 54.6875 
L 35.6875 0 
L 23.484375 0 
z
" id="DejaVuSans-76"/>
      <path d="M 34.28125 27.484375 
Q 23.390625 27.484375 19.1875 25 
Q 14.984375 22.515625 14.984375 16.5 
Q 14.984375 11.71875 18.140625 8.90625 
Q 21.296875 6.109375 26.703125 6.109375 
Q 34.1875 6.109375 38.703125 11.40625 
Q 43.21875 16.703125 43.21875 25.484375 
L 43.21875 27.484375 
z
M 52.203125 31.203125 
L 52.203125 0 
L 43.21875 0 
L 43.21875 8.296875 
Q 40.140625 3.328125 35.546875 0.953125 
Q 30.953125 -1.421875 24.3125 -1.421875 
Q 15.921875 -1.421875 10.953125 3.296875 
Q 6 8.015625 6 15.921875 
Q 6 25.140625 12.171875 29.828125 
Q 18.359375 34.515625 30.609375 34.515625 
L 43.21875 34.515625 
L 43.21875 35.40625 
Q 43.21875 41.609375 39.140625 45 
Q 35.0625 48.390625 27.6875 48.390625 
Q 23 48.390625 18.546875 47.265625 
Q 14.109375 46.140625 10.015625 43.890625 
L 10.015625 52.203125 
Q 14.9375 54.109375 19.578125 55.046875 
Q 24.21875 56 28.609375 56 
Q 40.484375 56 46.34375 49.84375 
Q 52.203125 43.703125 52.203125 31.203125 
z
" id="DejaVuSans-61"/>
      <path d="M 44.28125 53.078125 
L 44.28125 44.578125 
Q 40.484375 46.53125 36.375 47.5 
Q 32.28125 48.484375 27.875 48.484375 
Q 21.1875 48.484375 17.84375 46.4375 
Q 14.5 44.390625 14.5 40.28125 
Q 14.5 37.15625 16.890625 35.375 
Q 19.28125 33.59375 26.515625 31.984375 
L 29.59375 31.296875 
Q 39.15625 29.25 43.1875 25.515625 
Q 47.21875 21.78125 47.21875 15.09375 
Q 47.21875 7.46875 41.1875 3.015625 
Q 35.15625 -1.421875 24.609375 -1.421875 
Q 20.21875 -1.421875 15.453125 -0.5625 
Q 10.6875 0.296875 5.421875 2 
L 5.421875 11.28125 
Q 10.40625 8.6875 15.234375 7.390625 
Q 20.0625 6.109375 24.8125 6.109375 
Q 31.15625 6.109375 34.5625 8.28125 
Q 37.984375 10.453125 37.984375 14.40625 
Q 37.984375 18.0625 35.515625 20.015625 
Q 33.0625 21.96875 24.703125 23.78125 
L 21.578125 24.515625 
Q 13.234375 26.265625 9.515625 29.90625 
Q 5.8125 33.546875 5.8125 39.890625 
Q 5.8125 47.609375 11.28125 51.796875 
Q 16.75 56 26.8125 56 
Q 31.78125 56 36.171875 55.265625 
Q 40.578125 54.546875 44.28125 53.078125 
z
" id="DejaVuSans-73"/>
      <path d="M 25.390625 72.90625 
L 33.6875 72.90625 
L 8.296875 -9.28125 
L 0 -9.28125 
z
" id="DejaVuSans-2f"/>
      <path d="M 45.40625 46.390625 
L 45.40625 75.984375 
L 54.390625 75.984375 
L 54.390625 0 
L 45.40625 0 
L 45.40625 8.203125 
Q 42.578125 3.328125 38.25 0.953125 
Q 33.9375 -1.421875 27.875 -1.421875 
Q 17.96875 -1.421875 11.734375 6.484375 
Q 5.515625 14.40625 5.515625 27.296875 
Q 5.515625 40.1875 11.734375 48.09375 
Q 17.96875 56 27.875 56 
Q 33.9375 56 38.25 53.625 
Q 42.578125 51.265625 45.40625 46.390625 
z
M 14.796875 27.296875 
Q 14.796875 17.390625 18.875 11.75 
Q 22.953125 6.109375 30.078125 6.109375 
Q 37.203125 6.109375 41.296875 11.75 
Q 45.40625 17.390625 45.40625 27.296875 
Q 45.40625 37.203125 41.296875 42.84375 
Q 37.203125 48.484375 30.078125 48.484375 
Q 22.953125 48.484375 18.875 42.84375 
Q 14.796875 37.203125 14.796875 27.296875 
z
" id="DejaVuSans-64"/>
      <path d="M 9.421875 54.6875 
L 18.40625 54.6875 
L 18.40625 0 
L 9.421875 0 
z
M 9.421875 75.984375 
L 18.40625 75.984375 
L 18.40625 64.59375 
L 9.421875 64.59375 
z
" id="DejaVuSans-69"/>
      <path d="M 52 44.1875 
Q 55.375 50.25 60.0625 53.125 
Q 64.75 56 71.09375 56 
Q 79.640625 56 84.28125 50.015625 
Q 88.921875 44.046875 88.921875 33.015625 
L 88.921875 0 
L 79.890625 0 
L 79.890625 32.71875 
Q 79.890625 40.578125 77.09375 44.375 
Q 74.3125 48.1875 68.609375 48.1875 
Q 61.625 48.1875 57.5625 43.546875 
Q 53.515625 38.921875 53.515625 30.90625 
L 53.515625 0 
L 44.484375 0 
L 44.484375 32.71875 
Q 44.484375 40.625 41.703125 44.40625 
Q 38.921875 48.1875 33.109375 48.1875 
Q 26.21875 48.1875 22.15625 43.53125 
Q 18.109375 38.875 18.109375 30.90625 
L 18.109375 0 
L 9.078125 0 
L 9.078125 54.6875 
L 18.109375 54.6875 
L 18.109375 46.1875 
Q 21.1875 51.21875 25.484375 53.609375 
Q 29.78125 56 35.6875 56 
Q 41.65625 56 45.828125 52.96875 
Q 50 49.953125 52 44.1875 
z
" id="DejaVuSans-6d"/>
      <path d="M 54.890625 33.015625 
L 54.890625 0 
L 45.90625 0 
L 45.90625 32.71875 
Q 45.90625 40.484375 42.875 44.328125 
Q 39.84375 48.1875 33.796875 48.1875 
Q 26.515625 48.1875 22.3125 43.546875 
Q 18.109375 38.921875 18.109375 30.90625 
L 18.109375 0 
L 9.078125 0 
L 9.078125 54.6875 
L 18.109375 54.6875 
L 18.109375 46.1875 
Q 21.34375 51.125 25.703125 53.5625 
Q 30.078125 56 35.796875 56 
Q 45.21875 56 50.046875 50.171875 
Q 54.890625 44.34375 54.890625 33.015625 
z
" id="DejaVuSans-6e"/>
      <path d="M 8.015625 75.875 
L 15.828125 75.875 
Q 23.140625 64.359375 26.78125 53.3125 
Q 30.421875 42.28125 30.421875 31.390625 
Q 30.421875 20.453125 26.78125 9.375 
Q 23.140625 -1.703125 15.828125 -13.1875 
L 8.015625 -13.1875 
Q 14.5 -2 17.703125 9.0625 
Q 20.90625 20.125 20.90625 31.390625 
Q 20.90625 42.671875 17.703125 53.65625 
Q 14.5 64.65625 8.015625 75.875 
z
" id="DejaVuSans-29"/>
     </defs>
     <g transform="translate(107.211219 338.153594)scale(0.17 -0.17)">
      <use xlink:href="#DejaVuSans-6c"/>
      <use x="27.783203" xlink:href="#DejaVuSans-6f"/>
      <use x="88.964844" xlink:href="#DejaVuSans-67"/>
      <use x="152.441406" xlink:href="#DejaVuSans-31"/>
      <use x="216.064453" xlink:href="#DejaVuSans-30"/>
      <use x="279.6875" xlink:href="#DejaVuSans-28"/>
      <use x="318.701172" xlink:href="#DejaVuSans-23"/>
      <use x="402.490234" xlink:href="#DejaVuSans-20"/>
      <use x="434.277344" xlink:href="#DejaVuSans-66"/>
      <use x="469.404297" xlink:href="#DejaVuSans-2d"/>
      <use x="505.488281" xlink:href="#DejaVuSans-65"/>
      <use x="567.011719" xlink:href="#DejaVuSans-76"/>
      <use x="626.191406" xlink:href="#DejaVuSans-61"/>
      <use x="687.470703" xlink:href="#DejaVuSans-6c"/>
      <use x="715.253906" xlink:href="#DejaVuSans-73"/>
      <use x="767.353516" xlink:href="#DejaVuSans-20"/>
      <use x="799.140625" xlink:href="#DejaVuSans-2f"/>
      <use x="832.832031" xlink:href="#DejaVuSans-20"/>
      <use x="864.619141" xlink:href="#DejaVuSans-64"/>
      <use x="928.095703" xlink:href="#DejaVuSans-69"/>
      <use x="955.878906" xlink:href="#DejaVuSans-6d"/>
      <use x="1053.291016" xlink:href="#DejaVuSans-65"/>
      <use x="1114.814453" xlink:href="#DejaVuSans-6e"/>
      <use x="1178.193359" xlink:href="#DejaVuSans-73"/>
      <use x="1230.292969" xlink:href="#DejaVuSans-69"/>
      <use x="1258.076172" xlink:href="#DejaVuSans-6f"/>
      <use x="1319.257812" xlink:href="#DejaVuSans-6e"/>
      <use x="1382.636719" xlink:href="#DejaVuSans-29"/>
     </g>
    </g>
   </g>
   <g id="matplotlib.axis_2">
    <g id="ytick_1">
     <g id="line2d_15">
      <path clip-path="url(#p28c7813fa7)" d="M 56.12 294.88 
L 399.984 294.88 
" style="fill:none;stroke:#b0b0b0;stroke-linecap:square;stroke-width:0.8;"/>
     </g>
     <g id="line2d_16">
      <defs>
       <path d="M 0 0 
L -3.5 0 
" id="m1249ab101b" style="stroke:#000000;stroke-width:0.8;"/>
      </defs>
      <g>
       <use style="stroke:#000000;stroke-width:0.8;" x="56.12" xlink:href="#m1249ab101b" y="294.88"/>
      </g>
     </g>
     <g id="text_7">
      <!-- 0.0 -->
      <defs>
       <path d="M 10.6875 12.40625 
L 21 12.40625 
L 21 0 
L 10.6875 0 
z
" id="DejaVuSans-2e"/>
      </defs>
      <g transform="translate(23.675 300.95875)scale(0.16 -0.16)">
       <use xlink:href="#DejaVuSans-30"/>
       <use x="63.623047" xlink:href="#DejaVuSans-2e"/>
       <use x="95.410156" xlink:href="#DejaVuSans-30"/>
      </g>
     </g>
    </g>
    <g id="ytick_2">
     <g id="line2d_17">
      <path clip-path="url(#p28c7813fa7)" d="M 56.12 241.406733 
L 399.984 241.406733 
" style="fill:none;stroke:#b0b0b0;stroke-linecap:square;stroke-width:0.8;"/>
     </g>
     <g id="line2d_18">
      <g>
       <use style="stroke:#000000;stroke-width:0.8;" x="56.12" xlink:href="#m1249ab101b" y="241.406733"/>
      </g>
     </g>
     <g id="text_8">
      <!-- 0.2 -->
      <g transform="translate(23.675 247.485483)scale(0.16 -0.16)">
       <use xlink:href="#DejaVuSans-30"/>
       <use x="63.623047" xlink:href="#DejaVuSans-2e"/>
       <use x="95.410156" xlink:href="#DejaVuSans-32"/>
      </g>
     </g>
    </g>
    <g id="ytick_3">
     <g id="line2d_19">
      <path clip-path="url(#p28c7813fa7)" d="M 56.12 187.933465 
L 399.984 187.933465 
" style="fill:none;stroke:#b0b0b0;stroke-linecap:square;stroke-width:0.8;"/>
     </g>
     <g id="line2d_20">
      <g>
       <use style="stroke:#000000;stroke-width:0.8;" x="56.12" xlink:href="#m1249ab101b" y="187.933465"/>
      </g>
     </g>
     <g id="text_9">
      <!-- 0.4 -->
      <g transform="translate(23.675 194.012215)scale(0.16 -0.16)">
       <use xlink:href="#DejaVuSans-30"/>
       <use x="63.623047" xlink:href="#DejaVuSans-2e"/>
       <use x="95.410156" xlink:href="#DejaVuSans-34"/>
      </g>
     </g>
    </g>
    <g id="ytick_4">
     <g id="line2d_21">
      <path clip-path="url(#p28c7813fa7)" d="M 56.12 134.460198 
L 399.984 134.460198 
" style="fill:none;stroke:#b0b0b0;stroke-linecap:square;stroke-width:0.8;"/>
     </g>
     <g id="line2d_22">
      <g>
       <use style="stroke:#000000;stroke-width:0.8;" x="56.12" xlink:href="#m1249ab101b" y="134.460198"/>
      </g>
     </g>
     <g id="text_10">
      <!-- 0.6 -->
      <g transform="translate(23.675 140.538948)scale(0.16 -0.16)">
       <use xlink:href="#DejaVuSans-30"/>
       <use x="63.623047" xlink:href="#DejaVuSans-2e"/>
       <use x="95.410156" xlink:href="#DejaVuSans-36"/>
      </g>
     </g>
    </g>
    <g id="ytick_5">
     <g id="line2d_23">
      <path clip-path="url(#p28c7813fa7)" d="M 56.12 80.986931 
L 399.984 80.986931 
" style="fill:none;stroke:#b0b0b0;stroke-linecap:square;stroke-width:0.8;"/>
     </g>
     <g id="line2d_24">
      <g>
       <use style="stroke:#000000;stroke-width:0.8;" x="56.12" xlink:href="#m1249ab101b" y="80.986931"/>
      </g>
     </g>
     <g id="text_11">
      <!-- 0.8 -->
      <g transform="translate(23.675 87.065681)scale(0.16 -0.16)">
       <use xlink:href="#DejaVuSans-30"/>
       <use x="63.623047" xlink:href="#DejaVuSans-2e"/>
       <use x="95.410156" xlink:href="#DejaVuSans-38"/>
      </g>
     </g>
    </g>
    <g id="ytick_6">
     <g id="line2d_25">
      <path clip-path="url(#p28c7813fa7)" d="M 56.12 27.513663 
L 399.984 27.513663 
" style="fill:none;stroke:#b0b0b0;stroke-linecap:square;stroke-width:0.8;"/>
     </g>
     <g id="line2d_26">
      <g>
       <use style="stroke:#000000;stroke-width:0.8;" x="56.12" xlink:href="#m1249ab101b" y="27.513663"/>
      </g>
     </g>
     <g id="text_12">
      <!-- 1.0 -->
      <g transform="translate(23.675 33.592413)scale(0.16 -0.16)">
       <use xlink:href="#DejaVuSans-31"/>
       <use x="63.623047" xlink:href="#DejaVuSans-2e"/>
       <use x="95.410156" xlink:href="#DejaVuSans-30"/>
      </g>
     </g>
    </g>
    <g id="text_13">
     <!-- Fraction of function,target pairs -->
     <defs>
      <path d="M 9.8125 72.90625 
L 51.703125 72.90625 
L 51.703125 64.59375 
L 19.671875 64.59375 
L 19.671875 43.109375 
L 48.578125 43.109375 
L 48.578125 34.8125 
L 19.671875 34.8125 
L 19.671875 0 
L 9.8125 0 
z
" id="DejaVuSans-46"/>
      <path d="M 41.109375 46.296875 
Q 39.59375 47.171875 37.8125 47.578125 
Q 36.03125 48 33.890625 48 
Q 26.265625 48 22.1875 43.046875 
Q 18.109375 38.09375 18.109375 28.8125 
L 18.109375 0 
L 9.078125 0 
L 9.078125 54.6875 
L 18.109375 54.6875 
L 18.109375 46.1875 
Q 20.953125 51.171875 25.484375 53.578125 
Q 30.03125 56 36.53125 56 
Q 37.453125 56 38.578125 55.875 
Q 39.703125 55.765625 41.0625 55.515625 
z
" id="DejaVuSans-72"/>
      <path d="M 48.78125 52.59375 
L 48.78125 44.1875 
Q 44.96875 46.296875 41.140625 47.34375 
Q 37.3125 48.390625 33.40625 48.390625 
Q 24.65625 48.390625 19.8125 42.84375 
Q 14.984375 37.3125 14.984375 27.296875 
Q 14.984375 17.28125 19.8125 11.734375 
Q 24.65625 6.203125 33.40625 6.203125 
Q 37.3125 6.203125 41.140625 7.25 
Q 44.96875 8.296875 48.78125 10.40625 
L 48.78125 2.09375 
Q 45.015625 0.34375 40.984375 -0.53125 
Q 36.96875 -1.421875 32.421875 -1.421875 
Q 20.0625 -1.421875 12.78125 6.34375 
Q 5.515625 14.109375 5.515625 27.296875 
Q 5.515625 40.671875 12.859375 48.328125 
Q 20.21875 56 33.015625 56 
Q 37.15625 56 41.109375 55.140625 
Q 45.0625 54.296875 48.78125 52.59375 
z
" id="DejaVuSans-63"/>
      <path d="M 18.3125 70.21875 
L 18.3125 54.6875 
L 36.8125 54.6875 
L 36.8125 47.703125 
L 18.3125 47.703125 
L 18.3125 18.015625 
Q 18.3125 11.328125 20.140625 9.421875 
Q 21.96875 7.515625 27.59375 7.515625 
L 36.8125 7.515625 
L 36.8125 0 
L 27.59375 0 
Q 17.1875 0 13.234375 3.875 
Q 9.28125 7.765625 9.28125 18.015625 
L 9.28125 47.703125 
L 2.6875 47.703125 
L 2.6875 54.6875 
L 9.28125 54.6875 
L 9.28125 70.21875 
z
" id="DejaVuSans-74"/>
      <path d="M 8.5 21.578125 
L 8.5 54.6875 
L 17.484375 54.6875 
L 17.484375 21.921875 
Q 17.484375 14.15625 20.5 10.265625 
Q 23.53125 6.390625 29.59375 6.390625 
Q 36.859375 6.390625 41.078125 11.03125 
Q 45.3125 15.671875 45.3125 23.6875 
L 45.3125 54.6875 
L 54.296875 54.6875 
L 54.296875 0 
L 45.3125 0 
L 45.3125 8.40625 
Q 42.046875 3.421875 37.71875 1 
Q 33.40625 -1.421875 27.6875 -1.421875 
Q 18.265625 -1.421875 13.375 4.4375 
Q 8.5 10.296875 8.5 21.578125 
z
M 31.109375 56 
z
" id="DejaVuSans-75"/>
      <path d="M 11.71875 12.40625 
L 22.015625 12.40625 
L 22.015625 4 
L 14.015625 -11.625 
L 7.71875 -11.625 
L 11.71875 4 
z
" id="DejaVuSans-2c"/>
      <path d="M 18.109375 8.203125 
L 18.109375 -20.796875 
L 9.078125 -20.796875 
L 9.078125 54.6875 
L 18.109375 54.6875 
L 18.109375 46.390625 
Q 20.953125 51.265625 25.265625 53.625 
Q 29.59375 56 35.59375 56 
Q 45.5625 56 51.78125 48.09375 
Q 58.015625 40.1875 58.015625 27.296875 
Q 58.015625 14.40625 51.78125 6.484375 
Q 45.5625 -1.421875 35.59375 -1.421875 
Q 29.59375 -1.421875 25.265625 0.953125 
Q 20.953125 3.328125 18.109375 8.203125 
z
M 48.6875 27.296875 
Q 48.6875 37.203125 44.609375 42.84375 
Q 40.53125 48.484375 33.40625 48.484375 
Q 26.265625 48.484375 22.1875 42.84375 
Q 18.109375 37.203125 18.109375 27.296875 
Q 18.109375 17.390625 22.1875 11.75 
Q 26.265625 6.109375 33.40625 6.109375 
Q 40.53125 6.109375 44.609375 11.75 
Q 48.6875 17.390625 48.6875 27.296875 
z
" id="DejaVuSans-70"/>
     </defs>
     <g transform="translate(16.139531 294.999375)rotate(-90)scale(0.17 -0.17)">
      <use xlink:href="#DejaVuSans-46"/>
      <use x="57.410156" xlink:href="#DejaVuSans-72"/>
      <use x="98.523438" xlink:href="#DejaVuSans-61"/>
      <use x="159.802734" xlink:href="#DejaVuSans-63"/>
      <use x="214.783203" xlink:href="#DejaVuSans-74"/>
      <use x="253.992188" xlink:href="#DejaVuSans-69"/>
      <use x="281.775391" xlink:href="#DejaVuSans-6f"/>
      <use x="342.957031" xlink:href="#DejaVuSans-6e"/>
      <use x="406.335938" xlink:href="#DejaVuSans-20"/>
      <use x="438.123047" xlink:href="#DejaVuSans-6f"/>
      <use x="499.304688" xlink:href="#DejaVuSans-66"/>
      <use x="534.509766" xlink:href="#DejaVuSans-20"/>
      <use x="566.296875" xlink:href="#DejaVuSans-66"/>
      <use x="601.501953" xlink:href="#DejaVuSans-75"/>
      <use x="664.880859" xlink:href="#DejaVuSans-6e"/>
      <use x="728.259766" xlink:href="#DejaVuSans-63"/>
      <use x="783.240234" xlink:href="#DejaVuSans-74"/>
      <use x="822.449219" xlink:href="#DejaVuSans-69"/>
      <use x="850.232422" xlink:href="#DejaVuSans-6f"/>
      <use x="911.414062" xlink:href="#DejaVuSans-6e"/>
      <use x="974.792969" xlink:href="#DejaVuSans-2c"/>
      <use x="1006.580078" xlink:href="#DejaVuSans-74"/>
      <use x="1045.789062" xlink:href="#DejaVuSans-61"/>
      <use x="1107.068359" xlink:href="#DejaVuSans-72"/>
      <use x="1148.166016" xlink:href="#DejaVuSans-67"/>
      <use x="1211.642578" xlink:href="#DejaVuSans-65"/>
      <use x="1273.166016" xlink:href="#DejaVuSans-74"/>
      <use x="1312.375" xlink:href="#DejaVuSans-20"/>
      <use x="1344.162109" xlink:href="#DejaVuSans-70"/>
      <use x="1407.638672" xlink:href="#DejaVuSans-61"/>
      <use x="1468.917969" xlink:href="#DejaVuSans-69"/>
      <use x="1496.701172" xlink:href="#DejaVuSans-72"/>
      <use x="1537.814453" xlink:href="#DejaVuSans-73"/>
     </g>
    </g>
   </g>
   <g id="line2d_27">
    <defs>
     <path d="M 0 1.5 
C 0.397805 1.5 0.77937 1.341951 1.06066 1.06066 
C 1.341951 0.77937 1.5 0.397805 1.5 0 
C 1.5 -0.397805 1.341951 -0.77937 1.06066 -1.06066 
C 0.77937 -1.341951 0.397805 -1.5 0 -1.5 
C -0.397805 -1.5 -0.77937 -1.341951 -1.06066 -1.06066 
C -1.341951 -0.77937 -1.5 -0.397805 -1.5 0 
C -1.5 0.397805 -1.341951 0.77937 -1.06066 1.06066 
C -0.77937 1.341951 -0.397805 1.5 0 1.5 
z
" id="m9f123b41aa" style="stroke:#f5deb3;"/>
    </defs>
    <g>
     <use style="fill:#f5deb3;stroke:#f5deb3;" x="180.399599" xlink:href="#m9f123b41aa" y="27.513663"/>
     <use style="fill:#f5deb3;stroke:#f5deb3;" x="180.399599" xlink:href="#m9f123b41aa" y="27.513663"/>
    </g>
   </g>
   <g id="line2d_28">
    <defs>
     <path d="M 0 1.5 
C 0.397805 1.5 0.77937 1.341951 1.06066 1.06066 
C 1.341951 0.77937 1.5 0.397805 1.5 0 
C 1.5 -0.397805 1.341951 -0.77937 1.06066 -1.06066 
C 0.77937 -1.341951 0.397805 -1.5 0 -1.5 
C -0.397805 -1.5 -0.77937 -1.341951 -1.06066 -1.06066 
C -1.341951 -0.77937 -1.5 -0.397805 -1.5 0 
C -1.5 0.397805 -1.341951 0.77937 -1.06066 1.06066 
C -0.77937 1.341951 -0.397805 1.5 0 1.5 
z
" id="m9a2ed8485a" style="stroke:#000080;"/>
    </defs>
    <g>
     <use style="fill:#000080;stroke:#000080;" x="286.153476" xlink:href="#m9a2ed8485a" y="27.513663"/>
     <use style="fill:#000080;stroke:#000080;" x="286.153476" xlink:href="#m9a2ed8485a" y="27.513663"/>
    </g>
   </g>
   <g id="line2d_29">
    <path d="M 16.504332 294.88 
L 16.504332 289.637523 
L 86.946982 289.637523 
L 86.946982 289.113275 
L 87.78641 289.113275 
L 87.78641 288.06478 
L 99.982863 288.06478 
L 99.982863 287.540532 
L 106.03857 287.540532 
L 106.03857 286.492036 
L 107.488258 286.492036 
L 107.488258 285.967789 
L 110.43577 285.967789 
L 110.43577 285.443541 
L 111.43137 285.443541 
L 111.43137 283.870798 
L 111.637419 283.870798 
L 111.637419 283.34655 
L 114.92153 283.34655 
L 114.92153 282.298055 
L 118.011276 282.298055 
L 118.011276 281.773807 
L 121.765375 281.773807 
L 121.765375 281.249559 
L 122.866275 281.249559 
L 122.866275 280.201064 
L 123.252917 280.201064 
L 123.252917 279.676816 
L 123.562923 279.676816 
L 123.562923 278.628321 
L 123.967762 278.628321 
L 124.067501 277.055578 
L 124.845254 277.055578 
L 124.845254 276.53133 
L 126.619904 276.53133 
L 126.619904 275.482834 
L 126.762212 275.482834 
L 126.762212 274.434339 
L 127.237437 274.434339 
L 127.237437 273.910091 
L 128.280476 273.910091 
L 128.280476 272.861596 
L 129.842248 272.861596 
L 129.842248 271.8131 
L 132.062446 271.8131 
L 132.062446 271.288853 
L 132.776443 271.288853 
L 132.776443 270.764605 
L 133.576813 270.764605 
L 133.576813 270.240357 
L 135.091308 270.240357 
L 135.091308 268.143366 
L 135.420019 268.143366 
L 135.420019 267.619119 
L 135.826452 267.619119 
L 135.859892 266.570623 
L 137.393064 266.570623 
L 137.393064 266.046375 
L 137.710981 266.046375 
L 137.710981 265.522128 
L 138.982784 265.522128 
L 138.982784 264.99788 
L 140.101866 264.99788 
L 140.101866 264.473632 
L 144.205277 264.473632 
L 144.236101 262.900889 
L 149.394798 262.900889 
L 149.394798 261.852394 
L 158.292664 261.852394 
L 158.292664 261.328146 
L 163.80868 261.328146 
L 163.80868 260.803898 
L 182.944404 260.803898 
L 182.944404 260.279651 
L 183.550422 260.279651 
L 183.550422 259.755403 
L 184.320613 259.755403 
L 184.320613 259.231155 
L 186.583504 259.231155 
L 186.583504 258.706907 
L 192.180212 258.706907 
L 192.180212 258.18266 
L 196.094107 258.18266 
L 196.094107 257.134164 
L 198.442316 257.134164 
L 198.442316 256.609917 
L 198.601597 256.609917 
L 198.601597 255.561421 
L 199.55761 255.561421 
L 199.55761 253.988678 
L 199.869956 253.988678 
L 199.869956 253.46443 
L 203.593327 253.46443 
L 203.599517 252.415935 
L 203.71348 252.415935 
L 203.716392 251.367439 
L 204.021053 251.367439 
L 204.021053 250.843192 
L 205.958365 250.843192 
L 205.958365 250.318944 
L 207.563375 250.318944 
L 207.563375 249.794696 
L 209.418235 249.794696 
L 209.418235 249.270448 
L 210.368919 249.270448 
L 210.385396 247.697705 
L 210.50967 247.697705 
L 210.51926 246.64921 
L 210.655116 246.64921 
L 210.655116 246.124962 
L 210.892553 246.124962 
L 210.892553 245.600714 
L 211.293574 245.600714 
L 211.293574 245.076467 
L 211.583765 245.076467 
L 211.583765 244.552219 
L 212.325348 244.552219 
L 212.325348 244.027971 
L 213.716651 244.027971 
L 213.716651 243.503724 
L 214.694143 243.503724 
L 214.694143 242.979476 
L 218.507227 242.979476 
L 218.559602 240.358237 
L 218.661704 240.358237 
L 218.736061 238.785494 
L 218.857668 238.785494 
L 218.928512 237.212751 
L 218.97669 237.212751 
L 219.058192 234.591512 
L 219.124385 234.591512 
L 219.155804 233.543017 
L 219.264795 233.543017 
L 219.365545 230.397531 
L 219.414595 230.397531 
L 219.414595 229.873283 
L 219.572116 229.873283 
L 219.572116 228.824787 
L 219.706635 228.824787 
L 219.706635 228.30054 
L 220.129312 228.30054 
L 220.129312 227.776292 
L 220.275385 227.776292 
L 220.292555 226.203549 
L 220.504822 226.203549 
L 220.504822 225.679301 
L 220.704742 225.679301 
L 220.704742 225.155053 
L 221.086549 225.155053 
L 221.086549 224.106558 
L 221.384109 224.106558 
L 221.384109 223.058063 
L 221.496827 223.058063 
L 221.555549 220.961072 
L 221.905981 220.961072 
L 221.930805 219.912576 
L 222.247874 219.912576 
L 222.247874 218.864081 
L 222.655145 218.864081 
L 222.655145 218.339833 
L 222.889864 218.339833 
L 222.889864 217.815585 
L 223.219703 217.815585 
L 223.219703 217.291338 
L 223.82343 217.291338 
L 223.82343 216.76709 
L 223.955151 216.76709 
L 224.008353 215.718594 
L 224.359579 215.718594 
L 224.359579 215.194347 
L 224.578552 215.194347 
L 224.578552 214.670099 
L 224.708171 214.670099 
L 224.708171 213.621604 
L 224.839191 213.621604 
L 224.84194 211.524613 
L 225.181454 211.524613 
L 225.181454 211.000365 
L 225.483382 211.000365 
L 225.483382 210.476117 
L 225.700948 210.476117 
L 225.764301 208.903374 
L 225.857378 208.903374 
L 225.857378 208.379126 
L 226.154095 208.379126 
L 226.154095 207.330631 
L 226.329179 207.330631 
L 226.329179 206.282136 
L 227.251235 206.282136 
L 227.251235 205.757888 
L 228.028379 205.757888 
L 228.028379 204.709392 
L 228.197174 204.709392 
L 228.197174 204.185145 
L 228.80162 204.185145 
L 228.80162 203.660897 
L 230.020381 203.660897 
L 230.020381 203.136649 
L 230.446627 203.136649 
L 230.446627 202.612401 
L 232.124346 202.612401 
L 232.124346 202.088154 
L 233.009519 202.088154 
L 233.009519 201.039658 
L 234.093135 201.039658 
L 234.093135 200.515411 
L 234.378219 200.515411 
L 234.378219 199.991163 
L 234.585384 199.991163 
L 234.585384 199.466915 
L 236.111499 199.466915 
L 236.111499 198.942667 
L 236.883951 198.942667 
L 236.883951 198.41842 
L 237.852605 198.41842 
L 237.852605 197.369924 
L 238.482217 197.369924 
L 238.482217 196.321429 
L 239.527733 196.321429 
L 239.527733 195.797181 
L 239.899855 195.797181 
L 239.899855 195.272933 
L 240.13519 195.272933 
L 240.136515 193.70019 
L 240.65719 193.70019 
L 240.65719 193.175943 
L 243.102103 193.175943 
L 243.102103 192.651695 
L 243.75788 192.651695 
L 243.766842 191.603199 
L 243.883644 191.603199 
L 243.974992 190.030456 
L 244.028052 190.030456 
L 244.120678 188.457713 
L 244.160561 188.457713 
L 244.264589 187.409218 
L 244.517831 187.409218 
L 244.517831 186.88497 
L 244.924497 186.88497 
L 244.968594 185.312227 
L 245.151693 185.312227 
L 245.204182 183.739484 
L 245.353101 183.739484 
L 245.353101 183.215236 
L 245.651934 183.215236 
L 245.755078 182.16674 
L 245.773814 182.16674 
L 245.880613 180.06975 
L 246.100949 180.06975 
L 246.100949 179.545502 
L 246.221205 179.545502 
L 246.221205 179.021254 
L 246.36747 179.021254 
L 246.474297 176.400016 
L 246.485318 176.400016 
L 246.498539 175.35152 
L 246.647225 175.35152 
L 246.705619 172.206034 
L 246.865581 172.206034 
L 246.926574 171.157538 
L 246.992034 171.157538 
L 247.077454 170.109043 
L 247.116863 170.109043 
L 247.174955 168.012052 
L 247.255945 168.012052 
L 247.350547 166.963557 
L 247.445142 166.963557 
L 247.505997 164.866566 
L 247.697751 164.866566 
L 247.754818 163.81807 
L 247.815736 163.81807 
L 247.815736 162.769575 
L 248.121614 162.769575 
L 248.121614 161.721079 
L 248.643335 161.721079 
L 248.752033 158.575593 
L 248.899235 158.575593 
L 248.899235 157.00285 
L 249.132433 157.00285 
L 249.150323 155.954354 
L 249.37297 155.954354 
L 249.445514 154.905859 
L 249.515901 154.905859 
L 249.60992 153.857364 
L 249.722965 153.857364 
L 249.817038 148.090639 
L 249.856256 148.090639 
L 249.954383 144.945152 
L 250.043743 144.945152 
L 250.145688 143.372409 
L 250.177102 143.372409 
L 250.177102 142.848162 
L 250.292776 142.848162 
L 250.334307 140.226923 
L 250.427654 140.226923 
L 250.500181 136.032941 
L 250.568432 136.032941 
L 250.611444 134.984446 
L 250.751026 134.984446 
L 250.846431 133.411703 
L 250.915115 133.411703 
L 250.915115 132.363207 
L 251.05592 132.363207 
L 251.16378 130.790464 
L 251.173526 130.790464 
L 251.283283 129.741969 
L 251.312953 129.741969 
L 251.368369 128.693473 
L 251.428417 128.693473 
L 251.536565 127.644978 
L 251.588383 127.644978 
L 251.673351 126.596482 
L 251.910721 126.596482 
L 252.004986 125.023739 
L 252.132856 125.023739 
L 252.144279 123.450996 
L 252.294603 123.450996 
L 252.38058 121.878253 
L 252.563558 121.878253 
L 252.662809 118.732766 
L 252.68223 118.732766 
L 252.79124 117.160023 
L 252.925372 117.160023 
L 253.007155 112.966042 
L 253.092295 112.966042 
L 253.197488 110.344803 
L 253.243998 110.344803 
L 253.342919 106.150821 
L 253.384439 106.150821 
L 253.454824 104.05383 
L 253.514078 104.05383 
L 253.614257 99.335601 
L 253.640064 99.335601 
L 253.67096 98.287105 
L 253.755374 98.287105 
L 253.809309 96.714362 
L 253.922026 96.714362 
L 254.023758 91.996133 
L 254.05052 91.996133 
L 254.156068 89.899142 
L 254.189599 89.899142 
L 254.189599 89.374894 
L 254.325393 89.374894 
L 254.422312 86.229408 
L 254.471101 86.229408 
L 254.49951 84.656665 
L 254.5967 84.656665 
L 254.5967 84.132417 
L 254.746772 84.132417 
L 254.783812 82.035426 
L 254.869786 82.035426 
L 254.872251 80.986931 
L 255.008972 80.986931 
L 255.069495 79.938435 
L 255.20455 79.938435 
L 255.21443 78.365692 
L 255.383659 78.365692 
L 255.437406 76.792949 
L 255.565738 76.792949 
L 255.64692 75.744454 
L 255.701382 75.744454 
L 255.807269 74.17171 
L 255.819079 74.17171 
L 255.819079 73.647463 
L 256.033181 73.647463 
L 256.033181 73.123215 
L 256.260592 73.123215 
L 256.296541 72.074719 
L 256.424404 72.074719 
L 256.424404 71.550472 
L 256.557506 71.550472 
L 256.557506 71.026224 
L 256.668807 71.026224 
L 256.668807 70.501976 
L 256.873124 70.501976 
L 256.968794 68.929233 
L 257.019599 68.929233 
L 257.019599 68.404985 
L 257.15419 68.404985 
L 257.15419 67.880738 
L 268.342243 67.880738 
L 268.388293 65.259499 
L 268.477857 65.259499 
L 268.49679 63.162508 
L 268.618245 63.162508 
L 268.725838 62.114013 
L 268.744353 62.114013 
L 268.831043 60.54127 
L 268.932949 60.54127 
L 268.932949 60.017022 
L 269.083947 60.017022 
L 269.083947 59.492774 
L 269.300819 59.492774 
L 269.398871 57.920031 
L 269.545471 57.920031 
L 269.545471 57.395783 
L 269.692055 57.395783 
L 269.764917 55.82304 
L 269.957363 55.82304 
L 269.978093 54.774545 
L 274.354976 54.774545 
L 274.37811 53.201802 
L 274.511703 53.201802 
L 274.611633 51.104811 
L 274.631073 51.104811 
L 274.70697 50.056315 
L 274.752964 50.056315 
L 274.821251 49.00782 
L 274.878017 49.00782 
L 274.970432 47.435077 
L 274.995615 47.435077 
L 274.995615 46.910829 
L 275.273963 46.910829 
L 275.359529 45.338086 
L 275.454222 45.338086 
L 275.543949 43.241095 
L 275.621793 43.241095 
L 275.621793 41.668352 
L 285.582165 41.668352 
L 285.626864 38.522865 
L 285.695292 38.522865 
L 285.805256 34.328884 
L 285.818279 34.328884 
L 285.883592 32.231893 
L 285.947493 32.231893 
L 286.012319 29.610654 
L 286.071057 29.610654 
L 286.153476 27.513663 
L 333.429677 27.513663 
L 333.429677 27.513663 
" style="fill:none;stroke:#000080;stroke-linecap:square;stroke-width:1.5;"/>
   </g>
   <g id="line2d_30">
    <defs>
     <path d="M 0 6 
C 1.591219 6 3.117479 5.367802 4.242641 4.242641 
C 5.367802 3.117479 6 1.591219 6 0 
C 6 -1.591219 5.367802 -3.117479 4.242641 -4.242641 
C 3.117479 -5.367802 1.591219 -6 0 -6 
C -1.591219 -6 -3.117479 -5.367802 -4.242641 -4.242641 
C -5.367802 -3.117479 -6 -1.591219 -6 0 
C -6 1.591219 -5.367802 3.117479 -4.242641 4.242641 
C -3.117479 5.367802 -1.591219 6 0 6 
z
" id="m69c1e2c04e" style="stroke:#000080;stroke-width:1.5;"/>
    </defs>
    <g>
     <use style="fill-opacity:0;stroke:#000080;stroke-width:1.5;" x="186.583504" xlink:href="#m69c1e2c04e" y="258.706907"/>
     <use style="fill-opacity:0;stroke:#000080;stroke-width:1.5;" x="249.817038" xlink:href="#m69c1e2c04e" y="148.090639"/>
     <use style="fill-opacity:0;stroke:#000080;stroke-width:1.5;" x="275.621793" xlink:href="#m69c1e2c04e" y="41.668352"/>
     <use style="fill-opacity:0;stroke:#000080;stroke-width:1.5;" x="286.153476" xlink:href="#m69c1e2c04e" y="27.513663"/>
     <use style="fill-opacity:0;stroke:#000080;stroke-width:1.5;" x="333.429677" xlink:href="#m69c1e2c04e" y="27.513663"/>
    </g>
   </g>
   <g id="line2d_31">
    <path style="fill:none;stroke:#000080;stroke-linecap:square;stroke-width:1.5;"/>
    <g/>
   </g>
   <g id="line2d_32">
    <defs>
     <path d="M 0 1.5 
C 0.397805 1.5 0.77937 1.341951 1.06066 1.06066 
C 1.341951 0.77937 1.5 0.397805 1.5 0 
C 1.5 -0.397805 1.341951 -0.77937 1.06066 -1.06066 
C 0.77937 -1.341951 0.397805 -1.5 0 -1.5 
C -0.397805 -1.5 -0.77937 -1.341951 -1.06066 -1.06066 
C -1.341951 -0.77937 -1.5 -0.397805 -1.5 0 
C -1.5 0.397805 -1.341951 0.77937 -1.06066 1.06066 
C -0.77937 1.341951 -0.397805 1.5 0 1.5 
z
" id="m7b4fda3a1a" style="stroke:#ff00ff;"/>
    </defs>
    <g>
     <use style="fill:#ff00ff;stroke:#ff00ff;" x="305.786693" xlink:href="#m7b4fda3a1a" y="237.212751"/>
     <use style="fill:#ff00ff;stroke:#ff00ff;" x="305.786693" xlink:href="#m7b4fda3a1a" y="237.212751"/>
    </g>
   </g>
   <g id="line2d_33">
    <path d="M 16.504332 294.88 
L 16.504332 289.637523 
L 44.194496 289.637523 
L 44.194496 289.113275 
L 81.99745 289.113275 
L 81.99745 288.589027 
L 89.100397 288.589027 
L 89.100397 288.06478 
L 97.375467 288.06478 
L 97.375467 287.540532 
L 103.605601 287.540532 
L 103.605601 287.016284 
L 112.042258 287.016284 
L 112.042258 286.492036 
L 113.014543 286.492036 
L 113.014543 285.967789 
L 116.941702 285.967789 
L 116.941702 284.395046 
L 118.198797 284.395046 
L 118.198797 283.870798 
L 119.842834 283.870798 
L 119.842834 283.34655 
L 122.028624 283.34655 
L 122.028624 282.298055 
L 124.199593 282.298055 
L 124.199593 281.773807 
L 126.676968 281.773807 
L 126.676968 281.249559 
L 134.359835 281.249559 
L 134.359835 280.201064 
L 139.638808 280.201064 
L 139.638808 279.676816 
L 140.296566 279.676816 
L 140.296566 279.152568 
L 158.110311 279.152568 
L 158.110311 278.104073 
L 159.339437 278.104073 
L 159.339437 277.055578 
L 159.48814 277.055578 
L 159.48814 276.53133 
L 163.212694 276.53133 
L 163.212694 275.482834 
L 164.365605 275.482834 
L 164.365605 274.958587 
L 164.517861 274.958587 
L 164.517861 274.434339 
L 165.168582 274.434339 
L 165.168582 273.385844 
L 165.392142 273.385844 
L 165.392142 272.337348 
L 168.707127 272.337348 
L 168.707127 271.8131 
L 172.008193 271.8131 
L 172.008193 270.764605 
L 172.553212 270.764605 
L 172.553212 270.240357 
L 174.973885 270.240357 
L 174.973885 268.667614 
L 177.625536 268.667614 
L 177.625536 268.143366 
L 177.919318 268.143366 
L 177.919318 267.619119 
L 179.540399 267.619119 
L 179.540399 267.094871 
L 181.014542 267.094871 
L 181.014542 266.570623 
L 181.339523 266.570623 
L 181.339523 265.522128 
L 182.893468 265.522128 
L 182.893468 264.99788 
L 184.094368 264.99788 
L 184.094368 264.473632 
L 185.215938 264.473632 
L 185.215938 263.949385 
L 186.723938 263.949385 
L 186.723938 263.425137 
L 187.120674 263.425137 
L 187.120674 262.376641 
L 187.319021 262.376641 
L 187.319021 261.852394 
L 187.640756 261.852394 
L 187.640756 261.328146 
L 188.048525 261.328146 
L 188.048525 260.803898 
L 188.43742 260.803898 
L 188.43742 258.706907 
L 189.368012 258.706907 
L 189.391834 255.561421 
L 190.930092 255.561421 
L 191.020335 254.512926 
L 191.377973 254.512926 
L 191.377973 253.46443 
L 191.786681 253.46443 
L 191.786681 252.940182 
L 192.878196 252.940182 
L 192.878196 252.415935 
L 193.265027 252.415935 
L 193.265027 251.891687 
L 193.947443 251.891687 
L 193.947443 251.367439 
L 194.0941 251.367439 
L 194.0941 250.318944 
L 194.303942 250.318944 
L 194.303942 249.270448 
L 194.444277 249.270448 
L 194.444277 248.746201 
L 194.967564 248.746201 
L 194.967564 247.697705 
L 199.093229 247.697705 
L 199.093229 246.64921 
L 200.263161 246.64921 
L 200.263161 246.124962 
L 200.919229 246.124962 
L 200.919229 245.600714 
L 201.112285 245.600714 
L 201.112285 245.076467 
L 203.740964 245.076467 
L 203.740964 244.027971 
L 254.958872 244.027971 
L 254.967265 242.979476 
L 255.08331 242.979476 
L 255.090957 241.406733 
L 266.445029 241.406733 
L 266.445029 240.882485 
L 266.575941 240.882485 
L 266.575941 240.358237 
L 273.384835 240.358237 
L 273.402532 239.309742 
L 278.234622 239.309742 
L 278.234622 238.785494 
L 282.017698 238.785494 
L 282.017698 238.261246 
L 285.149059 238.261246 
L 285.149059 237.736999 
L 305.786693 237.736999 
L 305.786693 237.212751 
L 333.429677 237.212751 
L 333.429677 237.212751 
" style="fill:none;stroke:#ff00ff;stroke-linecap:square;stroke-width:1.5;"/>
   </g>
   <g id="line2d_34">
    <defs>
     <path d="M -0 8.485281 
L 5.091169 0 
L 0 -8.485281 
L -5.091169 -0 
z
" id="ma9489ca6aa" style="stroke:#ff00ff;stroke-linejoin:miter;stroke-width:1.5;"/>
    </defs>
    <g>
     <use style="fill-opacity:0;stroke:#ff00ff;stroke-linejoin:miter;stroke-width:1.5;" x="126.676968" xlink:href="#ma9489ca6aa" y="281.773807"/>
     <use style="fill-opacity:0;stroke:#ff00ff;stroke-linejoin:miter;stroke-width:1.5;" x="185.215938" xlink:href="#ma9489ca6aa" y="263.949385"/>
     <use style="fill-opacity:0;stroke:#ff00ff;stroke-linejoin:miter;stroke-width:1.5;" x="255.090957" xlink:href="#ma9489ca6aa" y="242.455228"/>
     <use style="fill-opacity:0;stroke:#ff00ff;stroke-linejoin:miter;stroke-width:1.5;" x="305.786693" xlink:href="#ma9489ca6aa" y="237.736999"/>
     <use style="fill-opacity:0;stroke:#ff00ff;stroke-linejoin:miter;stroke-width:1.5;" x="305.786693" xlink:href="#ma9489ca6aa" y="237.212751"/>
     <use style="fill-opacity:0;stroke:#ff00ff;stroke-linejoin:miter;stroke-width:1.5;" x="333.429677" xlink:href="#ma9489ca6aa" y="237.212751"/>
    </g>
   </g>
   <g id="line2d_35">
    <path style="fill:none;stroke:#ff00ff;stroke-linecap:square;stroke-width:1.5;"/>
    <g/>
   </g>
   <g id="line2d_36">
    <path clip-path="url(#p28c7813fa7)" d="M 254.198341 244.027971 
" style="fill:none;stroke:#ff00ff;stroke-linecap:square;stroke-width:1.5;"/>
    <defs>
     <path d="M -12 12 
L 12 -12 
M -12 -12 
L 12 12 
" id="m65602ef082" style="stroke:#ff00ff;stroke-width:3;"/>
    </defs>
    <g clip-path="url(#p28c7813fa7)">
     <use style="fill:#ff00ff;stroke:#ff00ff;stroke-width:3;" x="254.198341" xlink:href="#m65602ef082" y="244.027971"/>
    </g>
   </g>
   <g id="line2d_37">
    <defs>
     <path d="M 0 1.5 
C 0.397805 1.5 0.77937 1.341951 1.06066 1.06066 
C 1.341951 0.77937 1.5 0.397805 1.5 0 
C 1.5 -0.397805 1.341951 -0.77937 1.06066 -1.06066 
C 0.77937 -1.341951 0.397805 -1.5 0 -1.5 
C -0.397805 -1.5 -0.77937 -1.341951 -1.06066 -1.06066 
C -1.341951 -0.77937 -1.5 -0.397805 -1.5 0 
C -1.5 0.397805 -1.341951 0.77937 -1.06066 1.06066 
C -0.77937 1.341951 -0.397805 1.5 0 1.5 
z
" id="m04999abdda" style="stroke:#ffa500;"/>
    </defs>
    <g>
     <use style="fill:#ffa500;stroke:#ffa500;" x="230.538003" xlink:href="#m04999abdda" y="27.513663"/>
     <use style="fill:#ffa500;stroke:#ffa500;" x="230.538003" xlink:href="#m04999abdda" y="27.513663"/>
    </g>
   </g>
   <g id="line2d_38">
    <path d="M 16.504332 294.88 
L 16.504332 289.637523 
L 82.745606 289.637523 
L 82.745606 288.06478 
L 83.462579 288.06478 
L 83.462579 287.540532 
L 86.36371 287.540532 
L 86.36371 287.016284 
L 87.78641 287.016284 
L 87.78641 285.967789 
L 88.324106 285.967789 
L 88.324106 285.443541 
L 89.100397 285.443541 
L 89.100397 284.919293 
L 89.351567 284.919293 
L 89.351567 283.870798 
L 89.599124 283.870798 
L 89.599124 282.822302 
L 89.843168 282.822302 
L 89.843168 282.298055 
L 90.0838 282.298055 
L 90.0838 281.249559 
L 90.321112 281.249559 
L 90.321112 280.201064 
L 90.786137 280.201064 
L 90.786137 278.104073 
L 91.238922 278.104073 
L 91.238922 277.579825 
L 92.321346 277.579825 
L 92.321346 277.055578 
L 94.113066 277.055578 
L 94.113066 276.53133 
L 94.487099 276.53133 
L 94.487099 276.007082 
L 95.388083 276.007082 
L 95.388083 275.482834 
L 96.738177 275.482834 
L 96.738177 274.958587 
L 97.218344 274.958587 
L 97.218344 274.434339 
L 102.4807 274.434339 
L 102.4807 273.910091 
L 106.778678 273.910091 
L 106.778678 273.385844 
L 113.388576 273.385844 
L 113.388576 272.861596 
L 132.228277 272.861596 
L 132.228277 272.337348 
L 132.756449 272.337348 
L 132.756449 271.288853 
L 144.521159 271.288853 
L 144.621831 269.716109 
L 144.701947 269.716109 
L 144.791634 268.667614 
L 145.935523 268.667614 
L 145.991232 267.619119 
L 146.339929 267.619119 
L 146.385289 266.046375 
L 146.538623 266.046375 
L 146.538623 264.99788 
L 146.654963 264.99788 
L 146.654963 263.425137 
L 152.137971 263.425137 
L 152.137971 262.376641 
L 153.400477 262.376641 
L 153.400477 261.852394 
L 154.677647 261.852394 
L 154.677647 260.803898 
L 155.195706 260.803898 
L 155.195706 259.755403 
L 155.550347 259.755403 
L 155.550347 259.231155 
L 156.497073 259.231155 
L 156.582432 257.658412 
L 157.032291 257.658412 
L 157.032291 256.609917 
L 157.739702 256.609917 
L 157.739702 256.085669 
L 158.22906 256.085669 
L 158.22906 255.561421 
L 159.288155 255.561421 
L 159.309541 254.512926 
L 159.580957 254.512926 
L 159.681644 252.940182 
L 159.939058 252.940182 
L 159.939058 251.891687 
L 160.334215 251.891687 
L 160.334215 250.843192 
L 161.024949 250.843192 
L 161.024949 250.318944 
L 161.520691 250.318944 
L 161.520691 249.794696 
L 161.707621 249.794696 
L 161.707621 249.270448 
L 161.837274 249.270448 
L 161.837274 248.221953 
L 162.064573 248.221953 
L 162.064573 247.173458 
L 162.399989 247.173458 
L 162.399989 246.124962 
L 163.59343 246.124962 
L 163.59343 245.600714 
L 164.124973 245.600714 
L 164.124973 245.076467 
L 164.502064 245.076467 
L 164.502064 244.552219 
L 165.186817 244.552219 
L 165.186817 244.027971 
L 165.410142 244.027971 
L 165.449078 242.455228 
L 165.550494 242.455228 
L 165.639484 239.309742 
L 165.985116 239.309742 
L 165.985116 238.261246 
L 167.229451 238.261246 
L 167.229451 237.736999 
L 167.626761 237.736999 
L 167.642569 236.164255 
L 168.133243 236.164255 
L 168.161374 234.591512 
L 168.928494 234.591512 
L 168.928494 233.543017 
L 169.502884 233.543017 
L 169.502884 233.018769 
L 170.031231 233.018769 
L 170.031231 232.494521 
L 170.218168 232.494521 
L 170.218168 231.970274 
L 170.346926 231.970274 
L 170.346926 231.446026 
L 170.572735 231.446026 
L 170.572735 230.397531 
L 170.937548 230.397531 
L 171.04161 228.824787 
L 171.396715 228.824787 
L 171.506461 227.776292 
L 171.66978 227.776292 
L 171.736337 226.727797 
L 171.920105 226.727797 
L 171.920105 226.203549 
L 172.231504 226.203549 
L 172.334064 224.630806 
L 172.632215 224.630806 
L 172.632215 224.106558 
L 173.081494 224.106558 
L 173.081494 223.058063 
L 173.276204 223.058063 
L 173.312231 222.009567 
L 173.679542 222.009567 
L 173.725834 220.961072 
L 173.970035 220.961072 
L 174.00464 218.864081 
L 174.28437 218.864081 
L 174.28437 217.291338 
L 174.556102 217.291338 
L 174.556102 216.242842 
L 174.879035 216.242842 
L 174.911861 213.621604 
L 175.385122 213.621604 
L 175.39855 212.04886 
L 176.164796 212.04886 
L 176.164796 210.476117 
L 176.443365 210.476117 
L 176.443365 209.95187 
L 176.80585 209.95187 
L 176.80585 209.427622 
L 177.243951 209.427622 
L 177.320648 207.854879 
L 178.070815 207.854879 
L 178.088044 205.757888 
L 178.183925 205.757888 
L 178.183925 204.709392 
L 178.580332 204.709392 
L 178.580332 204.185145 
L 178.883065 204.185145 
L 178.883065 203.660897 
L 179.031778 203.660897 
L 179.031778 203.136649 
L 179.43589 203.136649 
L 179.455783 202.088154 
L 180.038259 202.088154 
L 180.108585 200.515411 
L 180.563177 200.515411 
L 180.563177 199.991163 
L 180.792793 199.991163 
L 180.884519 197.369924 
L 181.162804 197.369924 
L 181.209548 196.321429 
L 181.290748 196.321429 
L 181.359706 194.224438 
L 181.466165 194.224438 
L 181.520324 193.175943 
L 181.71901 193.175943 
L 181.815188 190.554704 
L 181.892436 190.554704 
L 181.892436 189.506209 
L 182.004804 189.506209 
L 182.074378 186.88497 
L 182.165199 186.88497 
L 182.165199 185.836474 
L 182.472678 185.836474 
L 182.529308 183.739484 
L 183.114538 183.739484 
L 183.164824 182.690988 
L 183.262833 182.690988 
L 183.364512 179.545502 
L 184.241514 179.545502 
L 184.241514 179.021254 
L 184.37945 179.021254 
L 184.37945 178.497006 
L 184.620662 178.497006 
L 184.620662 177.972759 
L 184.735136 177.972759 
L 184.735136 176.924263 
L 184.849823 176.924263 
L 184.849823 175.875768 
L 185.471025 175.875768 
L 185.471025 174.827272 
L 185.693817 174.827272 
L 185.73067 173.778777 
L 186.369349 173.778777 
L 186.478082 172.206034 
L 186.703077 172.206034 
L 186.706555 170.633291 
L 186.990298 170.633291 
L 187.088385 168.5363 
L 187.183379 168.5363 
L 187.183379 168.012052 
L 187.379336 168.012052 
L 187.379336 167.487804 
L 187.596222 167.487804 
L 187.694209 166.439309 
L 187.776939 166.439309 
L 187.847883 165.390813 
L 188.160766 165.390813 
L 188.160766 164.866566 
L 188.365712 164.866566 
L 188.474339 163.293823 
L 188.905946 163.293823 
L 188.986871 161.721079 
L 189.760563 161.721079 
L 189.830325 160.148336 
L 190.139372 160.148336 
L 190.139372 158.575593 
L 190.586533 158.575593 
L 190.586533 158.051345 
L 190.900132 158.051345 
L 190.92737 156.478602 
L 191.066292 156.478602 
L 191.120203 154.905859 
L 191.204771 154.905859 
L 191.269593 153.333116 
L 191.465244 153.333116 
L 191.569126 152.28462 
L 191.656087 152.28462 
L 191.734173 149.663382 
L 191.860311 149.663382 
L 191.948381 147.042143 
L 192.004715 147.042143 
L 192.030899 145.4694 
L 192.157422 145.4694 
L 192.226962 142.323914 
L 192.279248 142.323914 
L 192.321967 140.751171 
L 192.407711 140.751171 
L 192.457584 137.081437 
L 192.535222 137.081437 
L 192.535222 136.557189 
L 192.72933 136.557189 
L 192.771558 135.508693 
L 192.875766 135.508693 
L 192.875766 134.984446 
L 193.031204 134.984446 
L 193.031204 134.460198 
L 193.247199 134.460198 
L 193.294107 132.887455 
L 193.373381 132.887455 
L 193.421124 130.790464 
L 193.763211 130.790464 
L 193.763211 130.266216 
L 193.930308 130.266216 
L 193.973113 127.12073 
L 194.119553 127.12073 
L 194.187805 125.023739 
L 194.356424 125.023739 
L 194.359768 122.4025 
L 194.471432 122.4025 
L 194.507941 121.354005 
L 194.635114 121.354005 
L 194.635114 120.829757 
L 194.900722 120.829757 
L 194.99874 119.257014 
L 195.110082 119.257014 
L 195.110082 118.732766 
L 195.248782 118.732766 
L 195.248782 118.208519 
L 195.442464 118.208519 
L 195.50098 116.635776 
L 195.628813 116.635776 
L 195.668115 115.063032 
L 195.866863 115.063032 
L 195.866863 114.538785 
L 196.039093 114.538785 
L 196.067379 113.490289 
L 196.18006 113.490289 
L 196.204611 111.917546 
L 196.384909 111.917546 
L 196.431913 110.869051 
L 196.570201 110.869051 
L 196.620124 108.247812 
L 196.694251 108.247812 
L 196.699117 106.675069 
L 196.824177 106.675069 
L 196.927223 104.578078 
L 196.963671 104.578078 
L 197.045875 101.956839 
L 197.165607 101.956839 
L 197.254863 100.384096 
L 197.346939 100.384096 
L 197.346939 99.859849 
L 197.699836 99.859849 
L 197.778147 97.762858 
L 197.877922 97.762858 
L 197.895176 96.714362 
L 198.095503 96.714362 
L 198.095503 96.190115 
L 198.262011 96.190115 
L 198.276221 94.617371 
L 198.392127 94.617371 
L 198.392127 94.093124 
L 198.522141 94.093124 
L 198.522141 93.568876 
L 198.771497 93.568876 
L 198.771497 93.044628 
L 198.961078 93.044628 
L 198.961078 92.520381 
L 199.15745 92.520381 
L 199.210084 90.947637 
L 199.423179 90.947637 
L 199.423179 90.42339 
L 199.565025 90.42339 
L 199.576964 89.374894 
L 199.805502 89.374894 
L 199.916423 88.326399 
L 200.128173 88.326399 
L 200.128173 87.802151 
L 200.584039 87.802151 
L 200.584039 87.277903 
L 200.867379 87.277903 
L 200.934069 86.229408 
L 200.98458 86.229408 
L 201.040993 84.132417 
L 201.113037 84.132417 
L 201.113037 83.083922 
L 201.277865 83.083922 
L 201.277865 82.035426 
L 201.586386 82.035426 
L 201.586386 81.511178 
L 201.872193 81.511178 
L 201.962715 79.414188 
L 201.999935 79.414188 
L 202.0969 76.268701 
L 202.221932 76.268701 
L 202.29483 74.695958 
L 202.392948 74.695958 
L 202.458514 72.598967 
L 202.538043 72.598967 
L 202.642366 68.404985 
L 202.694291 68.404985 
L 202.754273 67.35649 
L 202.87939 67.35649 
L 202.92112 65.783747 
L 203.014392 65.783747 
L 203.104144 64.735251 
L 203.289885 64.735251 
L 203.289885 63.686756 
L 203.434218 63.686756 
L 203.434218 63.162508 
L 204.106665 63.162508 
L 204.185873 61.589765 
L 204.41636 61.589765 
L 204.525981 60.017022 
L 204.63 60.017022 
L 204.63 58.968526 
L 204.877955 58.968526 
L 204.987689 56.871536 
L 205.21635 56.871536 
L 205.21635 56.347288 
L 205.676016 56.347288 
L 205.676016 54.774545 
L 206.071318 54.774545 
L 206.143963 53.726049 
L 206.419072 53.726049 
L 206.419072 53.201802 
L 206.564731 53.201802 
L 206.564731 52.677554 
L 207.805893 52.677554 
L 207.862687 50.580563 
L 208.024398 50.580563 
L 208.12636 49.00782 
L 208.228218 49.00782 
L 208.255329 46.910829 
L 208.353711 46.910829 
L 208.458167 44.813838 
L 208.558575 44.813838 
L 208.655972 42.716847 
L 208.76537 42.716847 
L 208.781046 41.668352 
L 216.06077 41.668352 
L 216.06077 41.144104 
L 216.218874 41.144104 
L 216.218874 40.619856 
L 216.412858 40.619856 
L 216.412858 40.095609 
L 216.653865 40.095609 
L 216.653865 39.571361 
L 217.568864 39.571361 
L 217.568864 39.047113 
L 217.769599 39.047113 
L 217.769599 38.522865 
L 218.419075 38.522865 
L 218.518727 36.950122 
L 218.710634 36.950122 
L 218.771568 35.377379 
L 219.426284 35.377379 
L 219.426284 34.853131 
L 219.604399 34.853131 
L 219.604399 34.328884 
L 219.890102 34.328884 
L 219.890102 33.804636 
L 220.443007 33.804636 
L 220.443007 33.280388 
L 220.572125 33.280388 
L 220.593005 32.231893 
L 220.971221 32.231893 
L 220.971221 31.707645 
L 221.874253 31.707645 
L 221.874253 31.183397 
L 223.546301 31.183397 
L 223.546301 30.65915 
L 223.732694 30.65915 
L 223.8371 29.086407 
L 227.231862 29.086407 
L 227.231862 28.562159 
L 229.409694 28.562159 
L 229.409694 28.037911 
L 230.538003 28.037911 
L 230.538003 27.513663 
L 333.429677 27.513663 
L 333.429677 27.513663 
" style="fill:none;stroke:#ffa500;stroke-linecap:square;stroke-width:1.5;"/>
   </g>
   <g id="line2d_39">
    <defs>
     <path d="M 0 -6 
L -1.347084 -1.854102 
L -5.706339 -1.854102 
L -2.179628 0.708204 
L -3.526712 4.854102 
L -0 2.291796 
L 3.526712 4.854102 
L 2.179628 0.708204 
L 5.706339 -1.854102 
L 1.347084 -1.854102 
z
" id="mb2212ed8e1" style="stroke:#ffa500;stroke-linejoin:bevel;stroke-width:1.5;"/>
    </defs>
    <g>
     <use style="fill-opacity:0;stroke:#ffa500;stroke-linejoin:bevel;stroke-width:1.5;" x="96.738177" xlink:href="#mb2212ed8e1" y="275.482834"/>
     <use style="fill-opacity:0;stroke:#ffa500;stroke-linejoin:bevel;stroke-width:1.5;" x="174.556102" xlink:href="#mb2212ed8e1" y="216.242842"/>
     <use style="fill-opacity:0;stroke:#ffa500;stroke-linejoin:bevel;stroke-width:1.5;" x="208.781046" xlink:href="#mb2212ed8e1" y="42.192599"/>
     <use style="fill-opacity:0;stroke:#ffa500;stroke-linejoin:bevel;stroke-width:1.5;" x="230.538003" xlink:href="#mb2212ed8e1" y="27.513663"/>
     <use style="fill-opacity:0;stroke:#ffa500;stroke-linejoin:bevel;stroke-width:1.5;" x="230.538003" xlink:href="#mb2212ed8e1" y="27.513663"/>
     <use style="fill-opacity:0;stroke:#ffa500;stroke-linejoin:bevel;stroke-width:1.5;" x="333.429677" xlink:href="#mb2212ed8e1" y="27.513663"/>
    </g>
   </g>
   <g id="line2d_40">
    <path style="fill:none;stroke:#ffa500;stroke-linecap:square;stroke-width:1.5;"/>
    <g/>
   </g>
   <g id="line2d_41">
    <path clip-path="url(#p28c7813fa7)" d="M 214.584221 41.668352 
" style="fill:none;stroke:#ffa500;stroke-linecap:square;stroke-width:1.5;"/>
    <defs>
     <path d="M -12 12 
L 12 -12 
M -12 -12 
L 12 12 
" id="m8c9d3130b3" style="stroke:#ffa500;stroke-width:3;"/>
    </defs>
    <g clip-path="url(#p28c7813fa7)">
     <use style="fill:#ffa500;stroke:#ffa500;stroke-width:3;" x="214.584221" xlink:href="#m8c9d3130b3" y="41.668352"/>
    </g>
   </g>
   <g id="line2d_42">
    <defs>
     <path d="M 0 1.5 
C 0.397805 1.5 0.77937 1.341951 1.06066 1.06066 
C 1.341951 0.77937 1.5 0.397805 1.5 0 
C 1.5 -0.397805 1.341951 -0.77937 1.06066 -1.06066 
C 0.77937 -1.341951 0.397805 -1.5 0 -1.5 
C -0.397805 -1.5 -0.77937 -1.341951 -1.06066 -1.06066 
C -1.341951 -0.77937 -1.5 -0.397805 -1.5 0 
C -1.5 0.397805 -1.341951 0.77937 -1.06066 1.06066 
C -0.77937 1.341951 -0.397805 1.5 0 1.5 
z
" id="m99767e734a" style="stroke:#6495ed;"/>
    </defs>
    <g>
     <use style="fill:#6495ed;stroke:#6495ed;" x="114.522062" xlink:href="#m99767e734a" y="284.395046"/>
     <use style="fill:#6495ed;stroke:#6495ed;" x="114.522062" xlink:href="#m99767e734a" y="284.395046"/>
    </g>
   </g>
   <g id="line2d_43">
    <path d="M 16.504332 294.88 
L 16.504332 289.637523 
L 57.759799 289.637523 
L 57.759799 289.113275 
L 69.685303 289.113275 
L 69.685303 288.06478 
L 87.78641 288.06478 
L 87.78641 287.540532 
L 88.057358 287.540532 
L 88.057358 287.016284 
L 100.77101 287.016284 
L 100.77101 286.492036 
L 106.504855 286.492036 
L 106.504855 285.443541 
L 113.694177 285.443541 
L 113.694177 284.919293 
L 114.522062 284.919293 
L 114.522062 284.395046 
L 333.429677 284.395046 
" style="fill:none;stroke:#6495ed;stroke-linecap:square;stroke-width:1.5;"/>
   </g>
   <g id="line2d_44">
    <defs>
     <path d="M -0 6 
L 6 -6 
L -6 -6 
z
" id="m3c6f599018" style="stroke:#6495ed;stroke-linejoin:miter;stroke-width:1.5;"/>
    </defs>
    <g>
     <use style="fill-opacity:0;stroke:#6495ed;stroke-linejoin:miter;stroke-width:1.5;" x="69.685303" xlink:href="#m3c6f599018" y="289.113275"/>
     <use style="fill-opacity:0;stroke:#6495ed;stroke-linejoin:miter;stroke-width:1.5;" x="114.522062" xlink:href="#m3c6f599018" y="284.919293"/>
     <use style="fill-opacity:0;stroke:#6495ed;stroke-linejoin:miter;stroke-width:1.5;" x="114.522062" xlink:href="#m3c6f599018" y="284.395046"/>
     <use style="fill-opacity:0;stroke:#6495ed;stroke-linejoin:miter;stroke-width:1.5;" x="114.522062" xlink:href="#m3c6f599018" y="284.395046"/>
     <use style="fill-opacity:0;stroke:#6495ed;stroke-linejoin:miter;stroke-width:1.5;" x="114.522062" xlink:href="#m3c6f599018" y="284.395046"/>
     <use style="fill-opacity:0;stroke:#6495ed;stroke-linejoin:miter;stroke-width:1.5;" x="333.429677" xlink:href="#m3c6f599018" y="284.395046"/>
    </g>
   </g>
   <g id="line2d_45">
    <path style="fill:none;stroke:#6495ed;stroke-linecap:square;stroke-width:1.5;"/>
    <g/>
   </g>
   <g id="line2d_46">
    <path clip-path="url(#p28c7813fa7)" d="M 80.395842 288.06478 
" style="fill:none;stroke:#6495ed;stroke-linecap:square;stroke-width:1.5;"/>
    <defs>
     <path d="M -12 12 
L 12 -12 
M -12 -12 
L 12 12 
" id="m8e227b6c66" style="stroke:#6495ed;stroke-width:3;"/>
    </defs>
    <g clip-path="url(#p28c7813fa7)">
     <use style="fill:#6495ed;stroke:#6495ed;stroke-width:3;" x="80.395842" xlink:href="#m8e227b6c66" y="288.06478"/>
    </g>
   </g>
   <g id="line2d_47">
    <path d="M 333.429677 284.395046 
L 363.933742 289.532673 
" style="fill:none;stroke:#6495ed;stroke-linecap:square;stroke-width:1.5;"/>
    <g>
     <use style="fill-opacity:0;stroke:#6495ed;stroke-linejoin:miter;stroke-width:1.5;" x="333.429677" xlink:href="#m3c6f599018" y="284.395046"/>
     <use style="fill-opacity:0;stroke:#6495ed;stroke-linejoin:miter;stroke-width:1.5;" x="363.933742" xlink:href="#m3c6f599018" y="289.532673"/>
    </g>
   </g>
   <g id="line2d_48">
    <path d="M 333.429677 237.212751 
L 363.933742 225.364752 
" style="fill:none;stroke:#ff00ff;stroke-linecap:square;stroke-width:1.5;"/>
    <g>
     <use style="fill-opacity:0;stroke:#ff00ff;stroke-linejoin:miter;stroke-width:1.5;" x="333.429677" xlink:href="#ma9489ca6aa" y="237.212751"/>
     <use style="fill-opacity:0;stroke:#ff00ff;stroke-linejoin:miter;stroke-width:1.5;" x="363.933742" xlink:href="#ma9489ca6aa" y="225.364752"/>
    </g>
   </g>
   <g id="line2d_49">
    <path d="M 333.429677 27.513663 
L 363.933742 161.196832 
" style="fill:none;stroke:#000080;stroke-linecap:square;stroke-width:1.5;"/>
    <g>
     <use style="fill-opacity:0;stroke:#000080;stroke-width:1.5;" x="333.429677" xlink:href="#m69c1e2c04e" y="27.513663"/>
     <use style="fill-opacity:0;stroke:#000080;stroke-width:1.5;" x="363.933742" xlink:href="#m69c1e2c04e" y="161.196832"/>
    </g>
   </g>
   <g id="line2d_50">
    <path d="M 333.429677 27.513663 
L 363.933742 97.028911 
" style="fill:none;stroke:#ffa500;stroke-linecap:square;stroke-width:1.5;"/>
    <g>
     <use style="fill-opacity:0;stroke:#ffa500;stroke-linejoin:bevel;stroke-width:1.5;" x="333.429677" xlink:href="#mb2212ed8e1" y="27.513663"/>
     <use style="fill-opacity:0;stroke:#ffa500;stroke-linejoin:bevel;stroke-width:1.5;" x="363.933742" xlink:href="#mb2212ed8e1" y="97.028911"/>
    </g>
   </g>
   <g id="line2d_51">
    <path d="M 333.429677 294.88 
L 333.429677 27.513663 
" style="fill:none;stroke:#000000;stroke-linecap:square;stroke-width:1.5;"/>
   </g>
   <g id="patch_3">
    <path d="M 56.12 294.88 
L 56.12 24.84 
" style="fill:none;stroke:#000000;stroke-linecap:square;stroke-linejoin:miter;stroke-width:0.8;"/>
   </g>
   <g id="patch_4">
    <path d="M 399.984 294.88 
L 399.984 24.84 
" style="fill:none;stroke:#000000;stroke-linecap:square;stroke-linejoin:miter;stroke-width:0.8;"/>
   </g>
   <g id="patch_5">
    <path d="M 56.12 294.88 
L 399.984 294.88 
" style="fill:none;stroke:#000000;stroke-linecap:square;stroke-linejoin:miter;stroke-width:0.8;"/>
   </g>
   <g id="patch_6">
    <path d="M 56.12 24.84 
L 399.984 24.84 
" style="fill:none;stroke:#000000;stroke-linecap:square;stroke-linejoin:miter;stroke-width:0.8;"/>
   </g>
   <g id="text_14">
    <!-- hybrid -->
    <defs>
     <path d="M 54.890625 33.015625 
L 54.890625 0 
L 45.90625 0 
L 45.90625 32.71875 
Q 45.90625 40.484375 42.875 44.328125 
Q 39.84375 48.1875 33.796875 48.1875 
Q 26.515625 48.1875 22.3125 43.546875 
Q 18.109375 38.921875 18.109375 30.90625 
L 18.109375 0 
L 9.078125 0 
L 9.078125 75.984375 
L 18.109375 75.984375 
L 18.109375 46.1875 
Q 21.34375 51.125 25.703125 53.5625 
Q 30.078125 56 35.796875 56 
Q 45.21875 56 50.046875 50.171875 
Q 54.890625 44.34375 54.890625 33.015625 
z
" id="DejaVuSans-68"/>
     <path d="M 32.171875 -5.078125 
Q 28.375 -14.84375 24.75 -17.8125 
Q 21.140625 -20.796875 15.09375 -20.796875 
L 7.90625 -20.796875 
L 7.90625 -13.28125 
L 13.1875 -13.28125 
Q 16.890625 -13.28125 18.9375 -11.515625 
Q 21 -9.765625 23.484375 -3.21875 
L 25.09375 0.875 
L 2.984375 54.6875 
L 12.5 54.6875 
L 29.59375 11.921875 
L 46.6875 54.6875 
L 56.203125 54.6875 
z
" id="DejaVuSans-79"/>
     <path d="M 48.6875 27.296875 
Q 48.6875 37.203125 44.609375 42.84375 
Q 40.53125 48.484375 33.40625 48.484375 
Q 26.265625 48.484375 22.1875 42.84375 
Q 18.109375 37.203125 18.109375 27.296875 
Q 18.109375 17.390625 22.1875 11.75 
Q 26.265625 6.109375 33.40625 6.109375 
Q 40.53125 6.109375 44.609375 11.75 
Q 48.6875 17.390625 48.6875 27.296875 
z
M 18.109375 46.390625 
Q 20.953125 51.265625 25.265625 53.625 
Q 29.59375 56 35.59375 56 
Q 45.5625 56 51.78125 48.09375 
Q 58.015625 40.1875 58.015625 27.296875 
Q 58.015625 14.40625 51.78125 6.484375 
Q 45.5625 -1.421875 35.59375 -1.421875 
Q 29.59375 -1.421875 25.265625 0.953125 
Q 20.953125 3.328125 18.109375 8.203125 
L 18.109375 0 
L 9.078125 0 
L 9.078125 75.984375 
L 18.109375 75.984375 
z
" id="DejaVuSans-62"/>
    </defs>
    <g transform="translate(369.479935 294.223611)scale(0.17 -0.17)">
     <use xlink:href="#DejaVuSans-68"/>
     <use x="63.378906" xlink:href="#DejaVuSans-79"/>
     <use x="122.558594" xlink:href="#DejaVuSans-62"/>
     <use x="186.035156" xlink:href="#DejaVuSans-72"/>
     <use x="227.148438" xlink:href="#DejaVuSans-69"/>
     <use x="254.931641" xlink:href="#DejaVuSans-64"/>
    </g>
   </g>
   <g id="text_15">
    <!-- GA -->
    <defs>
     <path d="M 59.515625 10.40625 
L 59.515625 29.984375 
L 43.40625 29.984375 
L 43.40625 38.09375 
L 69.28125 38.09375 
L 69.28125 6.78125 
Q 63.578125 2.734375 56.6875 0.65625 
Q 49.8125 -1.421875 42 -1.421875 
Q 24.90625 -1.421875 15.25 8.5625 
Q 5.609375 18.5625 5.609375 36.375 
Q 5.609375 54.25 15.25 64.234375 
Q 24.90625 74.21875 42 74.21875 
Q 49.125 74.21875 55.546875 72.453125 
Q 61.96875 70.703125 67.390625 67.28125 
L 67.390625 56.78125 
Q 61.921875 61.421875 55.765625 63.765625 
Q 49.609375 66.109375 42.828125 66.109375 
Q 29.4375 66.109375 22.71875 58.640625 
Q 16.015625 51.171875 16.015625 36.375 
Q 16.015625 21.625 22.71875 14.15625 
Q 29.4375 6.6875 42.828125 6.6875 
Q 48.046875 6.6875 52.140625 7.59375 
Q 56.25 8.5 59.515625 10.40625 
z
" id="DejaVuSans-47"/>
     <path d="M 34.1875 63.1875 
L 20.796875 26.90625 
L 47.609375 26.90625 
z
M 28.609375 72.90625 
L 39.796875 72.90625 
L 67.578125 0 
L 57.328125 0 
L 50.6875 18.703125 
L 17.828125 18.703125 
L 11.1875 0 
L 0.78125 0 
z
" id="DejaVuSans-41"/>
    </defs>
    <g transform="translate(369.479935 230.05569)scale(0.17 -0.17)">
     <use xlink:href="#DejaVuSans-47"/>
     <use x="77.490234" xlink:href="#DejaVuSans-41"/>
    </g>
   </g>
   <g id="text_16">
    <!-- DASA -->
    <defs>
     <path d="M 19.671875 64.796875 
L 19.671875 8.109375 
L 31.59375 8.109375 
Q 46.6875 8.109375 53.6875 14.9375 
Q 60.6875 21.78125 60.6875 36.53125 
Q 60.6875 51.171875 53.6875 57.984375 
Q 46.6875 64.796875 31.59375 64.796875 
z
M 9.8125 72.90625 
L 30.078125 72.90625 
Q 51.265625 72.90625 61.171875 64.09375 
Q 71.09375 55.28125 71.09375 36.53125 
Q 71.09375 17.671875 61.125 8.828125 
Q 51.171875 0 30.078125 0 
L 9.8125 0 
z
" id="DejaVuSans-44"/>
     <path d="M 53.515625 70.515625 
L 53.515625 60.890625 
Q 47.90625 63.578125 42.921875 64.890625 
Q 37.9375 66.21875 33.296875 66.21875 
Q 25.25 66.21875 20.875 63.09375 
Q 16.5 59.96875 16.5 54.203125 
Q 16.5 49.359375 19.40625 46.890625 
Q 22.3125 44.4375 30.421875 42.921875 
L 36.375 41.703125 
Q 47.40625 39.59375 52.65625 34.296875 
Q 57.90625 29 57.90625 20.125 
Q 57.90625 9.515625 50.796875 4.046875 
Q 43.703125 -1.421875 29.984375 -1.421875 
Q 24.8125 -1.421875 18.96875 -0.25 
Q 13.140625 0.921875 6.890625 3.21875 
L 6.890625 13.375 
Q 12.890625 10.015625 18.65625 8.296875 
Q 24.421875 6.59375 29.984375 6.59375 
Q 38.421875 6.59375 43.015625 9.90625 
Q 47.609375 13.234375 47.609375 19.390625 
Q 47.609375 24.75 44.3125 27.78125 
Q 41.015625 30.8125 33.5 32.328125 
L 27.484375 33.5 
Q 16.453125 35.6875 11.515625 40.375 
Q 6.59375 45.0625 6.59375 53.421875 
Q 6.59375 63.09375 13.40625 68.65625 
Q 20.21875 74.21875 32.171875 74.21875 
Q 37.3125 74.21875 42.625 73.28125 
Q 47.953125 72.359375 53.515625 70.515625 
z
" id="DejaVuSans-53"/>
    </defs>
    <g transform="translate(369.479935 165.887769)scale(0.17 -0.17)">
     <use xlink:href="#DejaVuSans-44"/>
     <use x="76.986328" xlink:href="#DejaVuSans-41"/>
     <use x="145.394531" xlink:href="#DejaVuSans-53"/>
     <use x="208.886719" xlink:href="#DejaVuSans-41"/>
    </g>
   </g>
   <g id="text_17">
    <!-- Rosenbroc -->
    <defs>
     <path d="M 44.390625 34.1875 
Q 47.5625 33.109375 50.5625 29.59375 
Q 53.5625 26.078125 56.59375 19.921875 
L 66.609375 0 
L 56 0 
L 46.6875 18.703125 
Q 43.0625 26.03125 39.671875 28.421875 
Q 36.28125 30.8125 30.421875 30.8125 
L 19.671875 30.8125 
L 19.671875 0 
L 9.8125 0 
L 9.8125 72.90625 
L 32.078125 72.90625 
Q 44.578125 72.90625 50.734375 67.671875 
Q 56.890625 62.453125 56.890625 51.90625 
Q 56.890625 45.015625 53.6875 40.46875 
Q 50.484375 35.9375 44.390625 34.1875 
z
M 19.671875 64.796875 
L 19.671875 38.921875 
L 32.078125 38.921875 
Q 39.203125 38.921875 42.84375 42.21875 
Q 46.484375 45.515625 46.484375 51.90625 
Q 46.484375 58.296875 42.84375 61.546875 
Q 39.203125 64.796875 32.078125 64.796875 
z
" id="DejaVuSans-52"/>
    </defs>
    <g transform="translate(369.479935 101.719848)scale(0.17 -0.17)">
     <use xlink:href="#DejaVuSans-52"/>
     <use x="69.419922" xlink:href="#DejaVuSans-6f"/>
     <use x="130.601562" xlink:href="#DejaVuSans-73"/>
     <use x="182.701172" xlink:href="#DejaVuSans-65"/>
     <use x="244.224609" xlink:href="#DejaVuSans-6e"/>
     <use x="307.603516" xlink:href="#DejaVuSans-62"/>
     <use x="371.080078" xlink:href="#DejaVuSans-72"/>
     <use x="412.162109" xlink:href="#DejaVuSans-6f"/>
     <use x="473.34375" xlink:href="#DejaVuSans-63"/>
    </g>
   </g>
   <g id="text_18">
    <!-- best 2009 -->
    <defs>
     <path d="M 10.984375 1.515625 
L 10.984375 10.5 
Q 14.703125 8.734375 18.5 7.8125 
Q 22.3125 6.890625 25.984375 6.890625 
Q 35.75 6.890625 40.890625 13.453125 
Q 46.046875 20.015625 46.78125 33.40625 
Q 43.953125 29.203125 39.59375 26.953125 
Q 35.25 24.703125 29.984375 24.703125 
Q 19.046875 24.703125 12.671875 31.3125 
Q 6.296875 37.9375 6.296875 49.421875 
Q 6.296875 60.640625 12.9375 67.421875 
Q 19.578125 74.21875 30.609375 74.21875 
Q 43.265625 74.21875 49.921875 64.515625 
Q 56.59375 54.828125 56.59375 36.375 
Q 56.59375 19.140625 48.40625 8.859375 
Q 40.234375 -1.421875 26.421875 -1.421875 
Q 22.703125 -1.421875 18.890625 -0.6875 
Q 15.09375 0.046875 10.984375 1.515625 
z
M 30.609375 32.421875 
Q 37.25 32.421875 41.125 36.953125 
Q 45.015625 41.5 45.015625 49.421875 
Q 45.015625 57.28125 41.125 61.84375 
Q 37.25 66.40625 30.609375 66.40625 
Q 23.96875 66.40625 20.09375 61.84375 
Q 16.21875 57.28125 16.21875 49.421875 
Q 16.21875 41.5 20.09375 36.953125 
Q 23.96875 32.421875 30.609375 32.421875 
z
" id="DejaVuSans-39"/>
    </defs>
    <g transform="translate(369.479935 37.551928)scale(0.17 -0.17)">
     <use xlink:href="#DejaVuSans-62"/>
     <use x="63.476562" xlink:href="#DejaVuSans-65"/>
     <use x="125" xlink:href="#DejaVuSans-73"/>
     <use x="177.099609" xlink:href="#DejaVuSans-74"/>
     <use x="216.308594" xlink:href="#DejaVuSans-20"/>
     <use x="248.095703" xlink:href="#DejaVuSans-32"/>
     <use x="311.71875" xlink:href="#DejaVuSans-30"/>
     <use x="375.341797" xlink:href="#DejaVuSans-30"/>
     <use x="438.964844" xlink:href="#DejaVuSans-39"/>
    </g>
   </g>
   <g id="text_19">
    <!-- bbob f22, 10-D -->
    <g transform="translate(59.55864 35.290806)scale(0.102 -0.102)">
     <use xlink:href="#DejaVuSans-62"/>
     <use x="63.476562" xlink:href="#DejaVuSans-62"/>
     <use x="126.953125" xlink:href="#DejaVuSans-6f"/>
     <use x="188.134766" xlink:href="#DejaVuSans-62"/>
     <use x="251.611328" xlink:href="#DejaVuSans-20"/>
     <use x="283.398438" xlink:href="#DejaVuSans-66"/>
     <use x="318.603516" xlink:href="#DejaVuSans-32"/>
     <use x="382.226562" xlink:href="#DejaVuSans-32"/>
     <use x="445.849609" xlink:href="#DejaVuSans-2c"/>
     <use x="477.636719" xlink:href="#DejaVuSans-20"/>
     <use x="509.423828" xlink:href="#DejaVuSans-31"/>
     <use x="573.046875" xlink:href="#DejaVuSans-30"/>
     <use x="636.669922" xlink:href="#DejaVuSans-2d"/>
     <use x="672.753906" xlink:href="#DejaVuSans-44"/>
    </g>
    <!-- 51 targets: 100..1e-08 -->
    <defs>
     <path d="M 10.796875 72.90625 
L 49.515625 72.90625 
L 49.515625 64.59375 
L 19.828125 64.59375 
L 19.828125 46.734375 
Q 21.96875 47.46875 24.109375 47.828125 
Q 26.265625 48.1875 28.421875 48.1875 
Q 40.625 48.1875 47.75 41.5 
Q 54.890625 34.8125 54.890625 23.390625 
Q 54.890625 11.625 47.5625 5.09375 
Q 40.234375 -1.421875 26.90625 -1.421875 
Q 22.3125 -1.421875 17.546875 -0.640625 
Q 12.796875 0.140625 7.71875 1.703125 
L 7.71875 11.625 
Q 12.109375 9.234375 16.796875 8.0625 
Q 21.484375 6.890625 26.703125 6.890625 
Q 35.15625 6.890625 40.078125 11.328125 
Q 45.015625 15.765625 45.015625 23.390625 
Q 45.015625 31 40.078125 35.4375 
Q 35.15625 39.890625 26.703125 39.890625 
Q 22.75 39.890625 18.8125 39.015625 
Q 14.890625 38.140625 10.796875 36.28125 
z
" id="DejaVuSans-35"/>
     <path d="M 11.71875 12.40625 
L 22.015625 12.40625 
L 22.015625 0 
L 11.71875 0 
z
M 11.71875 51.703125 
L 22.015625 51.703125 
L 22.015625 39.3125 
L 11.71875 39.3125 
z
" id="DejaVuSans-3a"/>
    </defs>
    <g transform="translate(59.55864 46.712575)scale(0.102 -0.102)">
     <use xlink:href="#DejaVuSans-35"/>
     <use x="63.623047" xlink:href="#DejaVuSans-31"/>
     <use x="127.246094" xlink:href="#DejaVuSans-20"/>
     <use x="159.033203" xlink:href="#DejaVuSans-74"/>
     <use x="198.242188" xlink:href="#DejaVuSans-61"/>
     <use x="259.521484" xlink:href="#DejaVuSans-72"/>
     <use x="300.619141" xlink:href="#DejaVuSans-67"/>
     <use x="364.095703" xlink:href="#DejaVuSans-65"/>
     <use x="425.619141" xlink:href="#DejaVuSans-74"/>
     <use x="464.828125" xlink:href="#DejaVuSans-73"/>
     <use x="516.927734" xlink:href="#DejaVuSans-3a"/>
     <use x="550.619141" xlink:href="#DejaVuSans-20"/>
     <use x="582.40625" xlink:href="#DejaVuSans-31"/>
     <use x="646.029297" xlink:href="#DejaVuSans-30"/>
     <use x="709.652344" xlink:href="#DejaVuSans-30"/>
     <use x="773.275391" xlink:href="#DejaVuSans-2e"/>
     <use x="805.0625" xlink:href="#DejaVuSans-2e"/>
     <use x="836.849609" xlink:href="#DejaVuSans-31"/>
     <use x="900.472656" xlink:href="#DejaVuSans-65"/>
     <use x="961.996094" xlink:href="#DejaVuSans-2d"/>
     <use x="998.080078" xlink:href="#DejaVuSans-30"/>
     <use x="1061.703125" xlink:href="#DejaVuSans-38"/>
    </g>
    <!-- 15 instances -->
    <g transform="translate(59.55864 58.134344)scale(0.102 -0.102)">
     <use xlink:href="#DejaVuSans-31"/>
     <use x="63.623047" xlink:href="#DejaVuSans-35"/>
     <use x="127.246094" xlink:href="#DejaVuSans-20"/>
     <use x="159.033203" xlink:href="#DejaVuSans-69"/>
     <use x="186.816406" xlink:href="#DejaVuSans-6e"/>
     <use x="250.195312" xlink:href="#DejaVuSans-73"/>
     <use x="302.294922" xlink:href="#DejaVuSans-74"/>
     <use x="341.503906" xlink:href="#DejaVuSans-61"/>
     <use x="402.783203" xlink:href="#DejaVuSans-6e"/>
     <use x="466.162109" xlink:href="#DejaVuSans-63"/>
     <use x="521.142578" xlink:href="#DejaVuSans-65"/>
     <use x="582.666016" xlink:href="#DejaVuSans-73"/>
    </g>
   </g>
   <g id="text_20">
    <!-- v-coco-version -->
    <g style="fill:#808080;" transform="translate(191.556688 290.099912)scale(0.1 -0.1)">
     <use xlink:href="#DejaVuSans-76"/>
     <use x="59.148438" xlink:href="#DejaVuSans-2d"/>
     <use x="95.232422" xlink:href="#DejaVuSans-63"/>
     <use x="150.212891" xlink:href="#DejaVuSans-6f"/>
     <use x="211.394531" xlink:href="#DejaVuSans-63"/>
     <use x="266.375" xlink:href="#DejaVuSans-6f"/>
     <use x="327.572266" xlink:href="#DejaVuSans-2d"/>
     <use x="363.625" xlink:href="#DejaVuSans-76"/>
     <use x="422.804688" xlink:href="#DejaVuSans-65"/>
     <use x="484.328125" xlink:href="#DejaVuSans-72"/>
     <use x="525.441406" xlink:href="#DejaVuSans-73"/>
     <use x="577.541016" xlink:href="#DejaVuSans-69"/>
     <use x="605.324219" xlink:href="#DejaVuSans-6f"/>
     <use x="666.505859" xlink:href="#DejaVuSans-6e"/>
    </g>
   </g>
   <g id="text_21">
    <!-- 22 Gallagher 21 peaks -->
    <defs>
     <path d="M 9.078125 75.984375 
L 18.109375 75.984375 
L 18.109375 31.109375 
L 44.921875 54.6875 
L 56.390625 54.6875 
L 27.390625 29.109375 
L 57.625 0 
L 45.90625 0 
L 18.109375 26.703125 
L 18.109375 0 
L 9.078125 0 
z
" id="DejaVuSans-6b"/>
    </defs>
    <g transform="translate(114.927 18.84)scale(0.2 -0.2)">
     <use xlink:href="#DejaVuSans-32"/>
     <use x="63.623047" xlink:href="#DejaVuSans-32"/>
     <use x="127.246094" xlink:href="#DejaVuSans-20"/>
     <use x="159.033203" xlink:href="#DejaVuSans-47"/>
     <use x="236.523438" xlink:href="#DejaVuSans-61"/>
     <use x="297.802734" xlink:href="#DejaVuSans-6c"/>
     <use x="325.585938" xlink:href="#DejaVuSans-6c"/>
     <use x="353.369141" xlink:href="#DejaVuSans-61"/>
     <use x="414.648438" xlink:href="#DejaVuSans-67"/>
     <use x="478.125" xlink:href="#DejaVuSans-68"/>
     <use x="541.503906" xlink:href="#DejaVuSans-65"/>
     <use x="603.027344" xlink:href="#DejaVuSans-72"/>
     <use x="644.140625" xlink:href="#DejaVuSans-20"/>
     <use x="675.927734" xlink:href="#DejaVuSans-32"/>
     <use x="739.550781" xlink:href="#DejaVuSans-31"/>
     <use x="803.173828" xlink:href="#DejaVuSans-20"/>
     <use x="834.960938" xlink:href="#DejaVuSans-70"/>
     <use x="898.4375" xlink:href="#DejaVuSans-65"/>
     <use x="959.960938" xlink:href="#DejaVuSans-61"/>
     <use x="1021.240234" xlink:href="#DejaVuSans-6b"/>
     <use x="1079.150391" xlink:href="#DejaVuSans-73"/>
    </g>
   </g>
  </g>
 </g>
 <defs>
  <clipPath id="p28c7813fa7">
   <rect height="270.04" width="343.864" x="56.12" y="24.84"/>
  </clipPath>
 </defs>
</svg>
