<?xml version="1.0" encoding="utf-8" standalone="no"?>
<!DOCTYPE svg PUBLIC "-//W3C//DTD SVG 1.1//EN"
  "http://www.w3.org/Graphics/SVG/1.1/DTD/svg11.dtd">
<!-- Created with matplotlib (http://matplotlib.org/) -->
<svg height="345.6pt" version="1.1" viewBox="0 0 460.8 345.6" width="460.8pt" xmlns="http://www.w3.org/2000/svg" xmlns:xlink="http://www.w3.org/1999/xlink">
 <defs>
  <style type="text/css">
*{stroke-linecap:butt;stroke-linejoin:round;}
  </style>
 </defs>
 <g id="figure_1">
  <g id="patch_1">
   <path d="M 0 345.6 
L 460.8 345.6 
L 460.8 0 
L 0 0 
z
" style="fill:#ffffff;"/>
  </g>
  <g id="axes_1">
   <g id="patch_2">
    <path d="M 56.12 294.88 
L 399.984 294.88 
L 399.984 24.84 
L 56.12 24.84 
z
" style="fill:#ffffff;"/>
   </g>
   <g id="line2d_1">
    <path d="M 16.504332 294.88 
L 16.504332 284.395046 
L 99.574823 284.395046 
L 99.574823 279.152568 
L 102.4807 279.152568 
L 102.4807 273.910091 
L 105.848459 273.910091 
L 105.848459 268.667614 
L 107.661173 268.667614 
L 107.661173 263.425137 
L 111.43137 263.425137 
L 111.43137 258.18266 
L 118.338108 258.18266 
L 118.338108 252.940182 
L 122.830691 252.940182 
L 122.830691 247.697705 
L 125.46756 247.697705 
L 125.46756 242.455228 
L 127.886754 242.455228 
L 127.886754 237.212751 
L 129.091459 237.212751 
L 129.091459 231.970274 
L 130.332847 231.970274 
L 130.332847 226.727797 
L 131.186528 226.727797 
L 131.186528 221.485319 
L 132.331116 221.485319 
L 132.331116 216.242842 
L 132.696327 216.242842 
L 132.696327 211.000365 
L 133.614919 211.000365 
L 133.614919 205.757888 
L 133.709817 205.757888 
L 133.709817 200.515411 
L 134.158178 200.515411 
L 134.158178 195.272933 
L 134.756195 195.272933 
L 134.756195 190.030456 
L 135.230479 190.030456 
L 135.230479 184.787979 
L 135.316892 184.787979 
L 135.316892 179.545502 
L 135.334123 179.545502 
L 135.334123 174.303025 
L 135.742566 174.303025 
L 135.742566 169.060547 
L 136.059178 169.060547 
L 136.059178 163.81807 
L 136.434809 163.81807 
L 136.434809 158.575593 
L 136.739045 158.575593 
L 136.739045 153.333116 
L 137.037994 153.333116 
L 137.037994 142.848162 
L 137.13133 142.848162 
L 137.13133 137.605684 
L 137.193273 137.605684 
L 137.193273 127.12073 
L 137.208725 127.12073 
L 137.208725 121.878253 
L 137.347164 121.878253 
L 137.347164 116.635776 
L 137.377778 116.635776 
L 137.377778 111.393298 
L 137.57545 111.393298 
L 137.57545 106.150821 
L 137.665922 106.150821 
L 137.665922 100.908344 
L 137.875194 100.908344 
L 137.875194 90.42339 
L 137.964108 90.42339 
L 137.964108 85.180912 
L 138.213564 85.180912 
L 138.213564 79.938435 
L 138.228126 79.938435 
L 138.228126 74.695958 
L 138.271738 74.695958 
L 138.271738 53.726049 
L 138.358632 53.726049 
L 138.358632 48.483572 
L 138.401914 48.483572 
L 138.401914 43.241095 
L 138.445088 43.241095 
L 138.445088 27.513663 
L 333.429677 27.513663 
" style="fill:none;stroke:#f5deb3;stroke-linecap:square;stroke-width:6;"/>
   </g>
   <g id="line2d_2">
    <defs>
     <path d="M -0 7.778175 
L 7.778175 0 
L 0 -7.778175 
L -7.778175 -0 
z
" id="me3b31b7534" style="stroke:#f5deb3;stroke-linejoin:miter;stroke-width:1.5;"/>
    </defs>
    <g>
     <use style="fill:#f5deb3;stroke:#f5deb3;stroke-linejoin:miter;stroke-width:1.5;" x="105.848459" xlink:href="#me3b31b7534" y="268.667614"/>
     <use style="fill:#f5deb3;stroke:#f5deb3;stroke-linejoin:miter;stroke-width:1.5;" x="137.13133" xlink:href="#me3b31b7534" y="137.605684"/>
     <use style="fill:#f5deb3;stroke:#f5deb3;stroke-linejoin:miter;stroke-width:1.5;" x="138.358632" xlink:href="#me3b31b7534" y="48.483572"/>
     <use style="fill:#f5deb3;stroke:#f5deb3;stroke-linejoin:miter;stroke-width:1.5;" x="138.445088" xlink:href="#me3b31b7534" y="27.513663"/>
     <use style="fill:#f5deb3;stroke:#f5deb3;stroke-linejoin:miter;stroke-width:1.5;" x="138.445088" xlink:href="#me3b31b7534" y="27.513663"/>
     <use style="fill:#f5deb3;stroke:#f5deb3;stroke-linejoin:miter;stroke-width:1.5;" x="333.429677" xlink:href="#me3b31b7534" y="27.513663"/>
    </g>
   </g>
   <g id="line2d_3">
    <path style="fill:none;stroke:#f5deb3;stroke-linecap:square;stroke-width:6;"/>
    <g/>
   </g>
   <g id="line2d_4">
    <path d="M 333.429677 27.513663 
L 363.933742 32.86099 
" style="fill:none;stroke:#f5deb3;stroke-linecap:square;stroke-width:6;"/>
    <g>
     <use style="fill:#f5deb3;stroke:#f5deb3;stroke-linejoin:miter;stroke-width:1.5;" x="333.429677" xlink:href="#me3b31b7534" y="27.513663"/>
     <use style="fill:#f5deb3;stroke:#f5deb3;stroke-linejoin:miter;stroke-width:1.5;" x="363.933742" xlink:href="#me3b31b7534" y="32.86099"/>
    </g>
   </g>
   <g id="matplotlib.axis_1">
    <g id="xtick_1">
     <g id="line2d_5">
      <path clip-path="url(#p31e08af85a)" d="M 56.12 294.88 
L 56.12 24.84 
" style="fill:none;stroke:#b0b0b0;stroke-linecap:square;stroke-width:0.8;"/>
     </g>
     <g id="line2d_6">
      <defs>
       <path d="M 0 0 
L 0 3.5 
" id="mcf9f8cb6ef" style="stroke:#000000;stroke-width:0.8;"/>
      </defs>
      <g>
       <use style="stroke:#000000;stroke-width:0.8;" x="56.12" xlink:href="#mcf9f8cb6ef" y="294.88"/>
      </g>
     </g>
     <g id="text_1">
      <!-- 0 -->
      <defs>
       <path d="M 31.78125 66.40625 
Q 24.171875 66.40625 20.328125 58.90625 
Q 16.5 51.421875 16.5 36.375 
Q 16.5 21.390625 20.328125 13.890625 
Q 24.171875 6.390625 31.78125 6.390625 
Q 39.453125 6.390625 43.28125 13.890625 
Q 47.125 21.390625 47.125 36.375 
Q 47.125 51.421875 43.28125 58.90625 
Q 39.453125 66.40625 31.78125 66.40625 
z
M 31.78125 74.21875 
Q 44.046875 74.21875 50.515625 64.515625 
Q 56.984375 54.828125 56.984375 36.375 
Q 56.984375 17.96875 50.515625 8.265625 
Q 44.046875 -1.421875 31.78125 -1.421875 
Q 19.53125 -1.421875 13.0625 8.265625 
Q 6.59375 17.96875 6.59375 36.375 
Q 6.59375 54.828125 13.0625 64.515625 
Q 19.53125 74.21875 31.78125 74.21875 
z
" id="DejaVuSans-30"/>
      </defs>
      <g transform="translate(49.7575 317.076875)scale(0.2 -0.2)">
       <use xlink:href="#DejaVuSans-30"/>
      </g>
     </g>
    </g>
    <g id="xtick_2">
     <g id="line2d_7">
      <path clip-path="url(#p31e08af85a)" d="M 135.351336 294.88 
L 135.351336 24.84 
" style="fill:none;stroke:#b0b0b0;stroke-linecap:square;stroke-width:0.8;"/>
     </g>
     <g id="line2d_8">
      <g>
       <use style="stroke:#000000;stroke-width:0.8;" x="135.351336" xlink:href="#mcf9f8cb6ef" y="294.88"/>
      </g>
     </g>
     <g id="text_2">
      <!-- 2 -->
      <defs>
       <path d="M 19.1875 8.296875 
L 53.609375 8.296875 
L 53.609375 0 
L 7.328125 0 
L 7.328125 8.296875 
Q 12.9375 14.109375 22.625 23.890625 
Q 32.328125 33.6875 34.8125 36.53125 
Q 39.546875 41.84375 41.421875 45.53125 
Q 43.3125 49.21875 43.3125 52.78125 
Q 43.3125 58.59375 39.234375 62.25 
Q 35.15625 65.921875 28.609375 65.921875 
Q 23.96875 65.921875 18.8125 64.3125 
Q 13.671875 62.703125 7.8125 59.421875 
L 7.8125 69.390625 
Q 13.765625 71.78125 18.9375 73 
Q 24.125 74.21875 28.421875 74.21875 
Q 39.75 74.21875 46.484375 68.546875 
Q 53.21875 62.890625 53.21875 53.421875 
Q 53.21875 48.921875 51.53125 44.890625 
Q 49.859375 40.875 45.40625 35.40625 
Q 44.1875 33.984375 37.640625 27.21875 
Q 31.109375 20.453125 19.1875 8.296875 
z
" id="DejaVuSans-32"/>
      </defs>
      <g transform="translate(128.988836 317.076875)scale(0.2 -0.2)">
       <use xlink:href="#DejaVuSans-32"/>
      </g>
     </g>
    </g>
    <g id="xtick_3">
     <g id="line2d_9">
      <path clip-path="url(#p31e08af85a)" d="M 214.582673 294.88 
L 214.582673 24.84 
" style="fill:none;stroke:#b0b0b0;stroke-linecap:square;stroke-width:0.8;"/>
     </g>
     <g id="line2d_10">
      <g>
       <use style="stroke:#000000;stroke-width:0.8;" x="214.582673" xlink:href="#mcf9f8cb6ef" y="294.88"/>
      </g>
     </g>
     <g id="text_3">
      <!-- 4 -->
      <defs>
       <path d="M 37.796875 64.3125 
L 12.890625 25.390625 
L 37.796875 25.390625 
z
M 35.203125 72.90625 
L 47.609375 72.90625 
L 47.609375 25.390625 
L 58.015625 25.390625 
L 58.015625 17.1875 
L 47.609375 17.1875 
L 47.609375 0 
L 37.796875 0 
L 37.796875 17.1875 
L 4.890625 17.1875 
L 4.890625 26.703125 
z
" id="DejaVuSans-34"/>
      </defs>
      <g transform="translate(208.220173 317.076875)scale(0.2 -0.2)">
       <use xlink:href="#DejaVuSans-34"/>
      </g>
     </g>
    </g>
    <g id="xtick_4">
     <g id="line2d_11">
      <path clip-path="url(#p31e08af85a)" d="M 293.814009 294.88 
L 293.814009 24.84 
" style="fill:none;stroke:#b0b0b0;stroke-linecap:square;stroke-width:0.8;"/>
     </g>
     <g id="line2d_12">
      <g>
       <use style="stroke:#000000;stroke-width:0.8;" x="293.814009" xlink:href="#mcf9f8cb6ef" y="294.88"/>
      </g>
     </g>
     <g id="text_4">
      <!-- 6 -->
      <defs>
       <path d="M 33.015625 40.375 
Q 26.375 40.375 22.484375 35.828125 
Q 18.609375 31.296875 18.609375 23.390625 
Q 18.609375 15.53125 22.484375 10.953125 
Q 26.375 6.390625 33.015625 6.390625 
Q 39.65625 6.390625 43.53125 10.953125 
Q 47.40625 15.53125 47.40625 23.390625 
Q 47.40625 31.296875 43.53125 35.828125 
Q 39.65625 40.375 33.015625 40.375 
z
M 52.59375 71.296875 
L 52.59375 62.3125 
Q 48.875 64.0625 45.09375 64.984375 
Q 41.3125 65.921875 37.59375 65.921875 
Q 27.828125 65.921875 22.671875 59.328125 
Q 17.53125 52.734375 16.796875 39.40625 
Q 19.671875 43.65625 24.015625 45.921875 
Q 28.375 48.1875 33.59375 48.1875 
Q 44.578125 48.1875 50.953125 41.515625 
Q 57.328125 34.859375 57.328125 23.390625 
Q 57.328125 12.15625 50.6875 5.359375 
Q 44.046875 -1.421875 33.015625 -1.421875 
Q 20.359375 -1.421875 13.671875 8.265625 
Q 6.984375 17.96875 6.984375 36.375 
Q 6.984375 53.65625 15.1875 63.9375 
Q 23.390625 74.21875 37.203125 74.21875 
Q 40.921875 74.21875 44.703125 73.484375 
Q 48.484375 72.75 52.59375 71.296875 
z
" id="DejaVuSans-36"/>
      </defs>
      <g transform="translate(287.451509 317.076875)scale(0.2 -0.2)">
       <use xlink:href="#DejaVuSans-36"/>
      </g>
     </g>
    </g>
    <g id="xtick_5">
     <g id="line2d_13">
      <path clip-path="url(#p31e08af85a)" d="M 373.045346 294.88 
L 373.045346 24.84 
" style="fill:none;stroke:#b0b0b0;stroke-linecap:square;stroke-width:0.8;"/>
     </g>
     <g id="line2d_14">
      <g>
       <use style="stroke:#000000;stroke-width:0.8;" x="373.045346" xlink:href="#mcf9f8cb6ef" y="294.88"/>
      </g>
     </g>
     <g id="text_5">
      <!-- 8 -->
      <defs>
       <path d="M 31.78125 34.625 
Q 24.75 34.625 20.71875 30.859375 
Q 16.703125 27.09375 16.703125 20.515625 
Q 16.703125 13.921875 20.71875 10.15625 
Q 24.75 6.390625 31.78125 6.390625 
Q 38.8125 6.390625 42.859375 10.171875 
Q 46.921875 13.96875 46.921875 20.515625 
Q 46.921875 27.09375 42.890625 30.859375 
Q 38.875 34.625 31.78125 34.625 
z
M 21.921875 38.8125 
Q 15.578125 40.375 12.03125 44.71875 
Q 8.5 49.078125 8.5 55.328125 
Q 8.5 64.0625 14.71875 69.140625 
Q 20.953125 74.21875 31.78125 74.21875 
Q 42.671875 74.21875 48.875 69.140625 
Q 55.078125 64.0625 55.078125 55.328125 
Q 55.078125 49.078125 51.53125 44.71875 
Q 48 40.375 41.703125 38.8125 
Q 48.828125 37.15625 52.796875 32.3125 
Q 56.78125 27.484375 56.78125 20.515625 
Q 56.78125 9.90625 50.3125 4.234375 
Q 43.84375 -1.421875 31.78125 -1.421875 
Q 19.734375 -1.421875 13.25 4.234375 
Q 6.78125 9.90625 6.78125 20.515625 
Q 6.78125 27.484375 10.78125 32.3125 
Q 14.796875 37.15625 21.921875 38.8125 
z
M 18.3125 54.390625 
Q 18.3125 48.734375 21.84375 45.5625 
Q 25.390625 42.390625 31.78125 42.390625 
Q 38.140625 42.390625 41.71875 45.5625 
Q 45.3125 48.734375 45.3125 54.390625 
Q 45.3125 60.0625 41.71875 63.234375 
Q 38.140625 66.40625 31.78125 66.40625 
Q 25.390625 66.40625 21.84375 63.234375 
Q 18.3125 60.0625 18.3125 54.390625 
z
" id="DejaVuSans-38"/>
      </defs>
      <g transform="translate(366.682846 317.076875)scale(0.2 -0.2)">
       <use xlink:href="#DejaVuSans-38"/>
      </g>
     </g>
    </g>
    <g id="text_6">
     <!-- log10(# f-evals / dimension) -->
     <defs>
      <path d="M 9.421875 75.984375 
L 18.40625 75.984375 
L 18.40625 0 
L 9.421875 0 
z
" id="DejaVuSans-6c"/>
      <path d="M 30.609375 48.390625 
Q 23.390625 48.390625 19.1875 42.75 
Q 14.984375 37.109375 14.984375 27.296875 
Q 14.984375 17.484375 19.15625 11.84375 
Q 23.34375 6.203125 30.609375 6.203125 
Q 37.796875 6.203125 41.984375 11.859375 
Q 46.1875 17.53125 46.1875 27.296875 
Q 46.1875 37.015625 41.984375 42.703125 
Q 37.796875 48.390625 30.609375 48.390625 
z
M 30.609375 56 
Q 42.328125 56 49.015625 48.375 
Q 55.71875 40.765625 55.71875 27.296875 
Q 55.71875 13.875 49.015625 6.21875 
Q 42.328125 -1.421875 30.609375 -1.421875 
Q 18.84375 -1.421875 12.171875 6.21875 
Q 5.515625 13.875 5.515625 27.296875 
Q 5.515625 40.765625 12.171875 48.375 
Q 18.84375 56 30.609375 56 
z
" id="DejaVuSans-6f"/>
      <path d="M 45.40625 27.984375 
Q 45.40625 37.75 41.375 43.109375 
Q 37.359375 48.484375 30.078125 48.484375 
Q 22.859375 48.484375 18.828125 43.109375 
Q 14.796875 37.75 14.796875 27.984375 
Q 14.796875 18.265625 18.828125 12.890625 
Q 22.859375 7.515625 30.078125 7.515625 
Q 37.359375 7.515625 41.375 12.890625 
Q 45.40625 18.265625 45.40625 27.984375 
z
M 54.390625 6.78125 
Q 54.390625 -7.171875 48.1875 -13.984375 
Q 42 -20.796875 29.203125 -20.796875 
Q 24.46875 -20.796875 20.265625 -20.09375 
Q 16.0625 -19.390625 12.109375 -17.921875 
L 12.109375 -9.1875 
Q 16.0625 -11.328125 19.921875 -12.34375 
Q 23.78125 -13.375 27.78125 -13.375 
Q 36.625 -13.375 41.015625 -8.765625 
Q 45.40625 -4.15625 45.40625 5.171875 
L 45.40625 9.625 
Q 42.625 4.78125 38.28125 2.390625 
Q 33.9375 0 27.875 0 
Q 17.828125 0 11.671875 7.65625 
Q 5.515625 15.328125 5.515625 27.984375 
Q 5.515625 40.671875 11.671875 48.328125 
Q 17.828125 56 27.875 56 
Q 33.9375 56 38.28125 53.609375 
Q 42.625 51.21875 45.40625 46.390625 
L 45.40625 54.6875 
L 54.390625 54.6875 
z
" id="DejaVuSans-67"/>
      <path d="M 12.40625 8.296875 
L 28.515625 8.296875 
L 28.515625 63.921875 
L 10.984375 60.40625 
L 10.984375 69.390625 
L 28.421875 72.90625 
L 38.28125 72.90625 
L 38.28125 8.296875 
L 54.390625 8.296875 
L 54.390625 0 
L 12.40625 0 
z
" id="DejaVuSans-31"/>
      <path d="M 31 75.875 
Q 24.46875 64.65625 21.28125 53.65625 
Q 18.109375 42.671875 18.109375 31.390625 
Q 18.109375 20.125 21.3125 9.0625 
Q 24.515625 -2 31 -13.1875 
L 23.1875 -13.1875 
Q 15.875 -1.703125 12.234375 9.375 
Q 8.59375 20.453125 8.59375 31.390625 
Q 8.59375 42.28125 12.203125 53.3125 
Q 15.828125 64.359375 23.1875 75.875 
z
" id="DejaVuSans-28"/>
      <path d="M 51.125 44 
L 36.921875 44 
L 32.8125 27.6875 
L 47.125 27.6875 
z
M 43.796875 71.78125 
L 38.71875 51.515625 
L 52.984375 51.515625 
L 58.109375 71.78125 
L 65.921875 71.78125 
L 60.890625 51.515625 
L 76.125 51.515625 
L 76.125 44 
L 58.984375 44 
L 54.984375 27.6875 
L 70.515625 27.6875 
L 70.515625 20.21875 
L 53.078125 20.21875 
L 48 0 
L 40.1875 0 
L 45.21875 20.21875 
L 30.90625 20.21875 
L 25.875 0 
L 18.015625 0 
L 23.09375 20.21875 
L 7.71875 20.21875 
L 7.71875 27.6875 
L 24.90625 27.6875 
L 29 44 
L 13.28125 44 
L 13.28125 51.515625 
L 30.90625 51.515625 
L 35.890625 71.78125 
z
" id="DejaVuSans-23"/>
      <path id="DejaVuSans-20"/>
      <path d="M 37.109375 75.984375 
L 37.109375 68.5 
L 28.515625 68.5 
Q 23.6875 68.5 21.796875 66.546875 
Q 19.921875 64.59375 19.921875 59.515625 
L 19.921875 54.6875 
L 34.71875 54.6875 
L 34.71875 47.703125 
L 19.921875 47.703125 
L 19.921875 0 
L 10.890625 0 
L 10.890625 47.703125 
L 2.296875 47.703125 
L 2.296875 54.6875 
L 10.890625 54.6875 
L 10.890625 58.5 
Q 10.890625 67.625 15.140625 71.796875 
Q 19.390625 75.984375 28.609375 75.984375 
z
" id="DejaVuSans-66"/>
      <path d="M 4.890625 31.390625 
L 31.203125 31.390625 
L 31.203125 23.390625 
L 4.890625 23.390625 
z
" id="DejaVuSans-2d"/>
      <path d="M 56.203125 29.59375 
L 56.203125 25.203125 
L 14.890625 25.203125 
Q 15.484375 15.921875 20.484375 11.0625 
Q 25.484375 6.203125 34.421875 6.203125 
Q 39.59375 6.203125 44.453125 7.46875 
Q 49.3125 8.734375 54.109375 11.28125 
L 54.109375 2.78125 
Q 49.265625 0.734375 44.1875 -0.34375 
Q 39.109375 -1.421875 33.890625 -1.421875 
Q 20.796875 -1.421875 13.15625 6.1875 
Q 5.515625 13.8125 5.515625 26.8125 
Q 5.515625 40.234375 12.765625 48.109375 
Q 20.015625 56 32.328125 56 
Q 43.359375 56 49.78125 48.890625 
Q 56.203125 41.796875 56.203125 29.59375 
z
M 47.21875 32.234375 
Q 47.125 39.59375 43.09375 43.984375 
Q 39.0625 48.390625 32.421875 48.390625 
Q 24.90625 48.390625 20.390625 44.140625 
Q 15.875 39.890625 15.1875 32.171875 
z
" id="DejaVuSans-65"/>
      <path d="M 2.984375 54.6875 
L 12.5 54.6875 
L 29.59375 8.796875 
L 46.6875 54.6875 
L 56.203125 54.6875 
L 35.6875 0 
L 23.484375 0 
z
" id="DejaVuSans-76"/>
      <path d="M 34.28125 27.484375 
Q 23.390625 27.484375 19.1875 25 
Q 14.984375 22.515625 14.984375 16.5 
Q 14.984375 11.71875 18.140625 8.90625 
Q 21.296875 6.109375 26.703125 6.109375 
Q 34.1875 6.109375 38.703125 11.40625 
Q 43.21875 16.703125 43.21875 25.484375 
L 43.21875 27.484375 
z
M 52.203125 31.203125 
L 52.203125 0 
L 43.21875 0 
L 43.21875 8.296875 
Q 40.140625 3.328125 35.546875 0.953125 
Q 30.953125 -1.421875 24.3125 -1.421875 
Q 15.921875 -1.421875 10.953125 3.296875 
Q 6 8.015625 6 15.921875 
Q 6 25.140625 12.171875 29.828125 
Q 18.359375 34.515625 30.609375 34.515625 
L 43.21875 34.515625 
L 43.21875 35.40625 
Q 43.21875 41.609375 39.140625 45 
Q 35.0625 48.390625 27.6875 48.390625 
Q 23 48.390625 18.546875 47.265625 
Q 14.109375 46.140625 10.015625 43.890625 
L 10.015625 52.203125 
Q 14.9375 54.109375 19.578125 55.046875 
Q 24.21875 56 28.609375 56 
Q 40.484375 56 46.34375 49.84375 
Q 52.203125 43.703125 52.203125 31.203125 
z
" id="DejaVuSans-61"/>
      <path d="M 44.28125 53.078125 
L 44.28125 44.578125 
Q 40.484375 46.53125 36.375 47.5 
Q 32.28125 48.484375 27.875 48.484375 
Q 21.1875 48.484375 17.84375 46.4375 
Q 14.5 44.390625 14.5 40.28125 
Q 14.5 37.15625 16.890625 35.375 
Q 19.28125 33.59375 26.515625 31.984375 
L 29.59375 31.296875 
Q 39.15625 29.25 43.1875 25.515625 
Q 47.21875 21.78125 47.21875 15.09375 
Q 47.21875 7.46875 41.1875 3.015625 
Q 35.15625 -1.421875 24.609375 -1.421875 
Q 20.21875 -1.421875 15.453125 -0.5625 
Q 10.6875 0.296875 5.421875 2 
L 5.421875 11.28125 
Q 10.40625 8.6875 15.234375 7.390625 
Q 20.0625 6.109375 24.8125 6.109375 
Q 31.15625 6.109375 34.5625 8.28125 
Q 37.984375 10.453125 37.984375 14.40625 
Q 37.984375 18.0625 35.515625 20.015625 
Q 33.0625 21.96875 24.703125 23.78125 
L 21.578125 24.515625 
Q 13.234375 26.265625 9.515625 29.90625 
Q 5.8125 33.546875 5.8125 39.890625 
Q 5.8125 47.609375 11.28125 51.796875 
Q 16.75 56 26.8125 56 
Q 31.78125 56 36.171875 55.265625 
Q 40.578125 54.546875 44.28125 53.078125 
z
" id="DejaVuSans-73"/>
      <path d="M 25.390625 72.90625 
L 33.6875 72.90625 
L 8.296875 -9.28125 
L 0 -9.28125 
z
" id="DejaVuSans-2f"/>
      <path d="M 45.40625 46.390625 
L 45.40625 75.984375 
L 54.390625 75.984375 
L 54.390625 0 
L 45.40625 0 
L 45.40625 8.203125 
Q 42.578125 3.328125 38.25 0.953125 
Q 33.9375 -1.421875 27.875 -1.421875 
Q 17.96875 -1.421875 11.734375 6.484375 
Q 5.515625 14.40625 5.515625 27.296875 
Q 5.515625 40.1875 11.734375 48.09375 
Q 17.96875 56 27.875 56 
Q 33.9375 56 38.25 53.625 
Q 42.578125 51.265625 45.40625 46.390625 
z
M 14.796875 27.296875 
Q 14.796875 17.390625 18.875 11.75 
Q 22.953125 6.109375 30.078125 6.109375 
Q 37.203125 6.109375 41.296875 11.75 
Q 45.40625 17.390625 45.40625 27.296875 
Q 45.40625 37.203125 41.296875 42.84375 
Q 37.203125 48.484375 30.078125 48.484375 
Q 22.953125 48.484375 18.875 42.84375 
Q 14.796875 37.203125 14.796875 27.296875 
z
" id="DejaVuSans-64"/>
      <path d="M 9.421875 54.6875 
L 18.40625 54.6875 
L 18.40625 0 
L 9.421875 0 
z
M 9.421875 75.984375 
L 18.40625 75.984375 
L 18.40625 64.59375 
L 9.421875 64.59375 
z
" id="DejaVuSans-69"/>
      <path d="M 52 44.1875 
Q 55.375 50.25 60.0625 53.125 
Q 64.75 56 71.09375 56 
Q 79.640625 56 84.28125 50.015625 
Q 88.921875 44.046875 88.921875 33.015625 
L 88.921875 0 
L 79.890625 0 
L 79.890625 32.71875 
Q 79.890625 40.578125 77.09375 44.375 
Q 74.3125 48.1875 68.609375 48.1875 
Q 61.625 48.1875 57.5625 43.546875 
Q 53.515625 38.921875 53.515625 30.90625 
L 53.515625 0 
L 44.484375 0 
L 44.484375 32.71875 
Q 44.484375 40.625 41.703125 44.40625 
Q 38.921875 48.1875 33.109375 48.1875 
Q 26.21875 48.1875 22.15625 43.53125 
Q 18.109375 38.875 18.109375 30.90625 
L 18.109375 0 
L 9.078125 0 
L 9.078125 54.6875 
L 18.109375 54.6875 
L 18.109375 46.1875 
Q 21.1875 51.21875 25.484375 53.609375 
Q 29.78125 56 35.6875 56 
Q 41.65625 56 45.828125 52.96875 
Q 50 49.953125 52 44.1875 
z
" id="DejaVuSans-6d"/>
      <path d="M 54.890625 33.015625 
L 54.890625 0 
L 45.90625 0 
L 45.90625 32.71875 
Q 45.90625 40.484375 42.875 44.328125 
Q 39.84375 48.1875 33.796875 48.1875 
Q 26.515625 48.1875 22.3125 43.546875 
Q 18.109375 38.921875 18.109375 30.90625 
L 18.109375 0 
L 9.078125 0 
L 9.078125 54.6875 
L 18.109375 54.6875 
L 18.109375 46.1875 
Q 21.34375 51.125 25.703125 53.5625 
Q 30.078125 56 35.796875 56 
Q 45.21875 56 50.046875 50.171875 
Q 54.890625 44.34375 54.890625 33.015625 
z
" id="DejaVuSans-6e"/>
      <path d="M 8.015625 75.875 
L 15.828125 75.875 
Q 23.140625 64.359375 26.78125 53.3125 
Q 30.421875 42.28125 30.421875 31.390625 
Q 30.421875 20.453125 26.78125 9.375 
Q 23.140625 -1.703125 15.828125 -13.1875 
L 8.015625 -13.1875 
Q 14.5 -2 17.703125 9.0625 
Q 20.90625 20.125 20.90625 31.390625 
Q 20.90625 42.671875 17.703125 53.65625 
Q 14.5 64.65625 8.015625 75.875 
z
" id="DejaVuSans-29"/>
     </defs>
     <g transform="translate(107.211219 338.153594)scale(0.17 -0.17)">
      <use xlink:href="#DejaVuSans-6c"/>
      <use x="27.783203" xlink:href="#DejaVuSans-6f"/>
      <use x="88.964844" xlink:href="#DejaVuSans-67"/>
      <use x="152.441406" xlink:href="#DejaVuSans-31"/>
      <use x="216.064453" xlink:href="#DejaVuSans-30"/>
      <use x="279.6875" xlink:href="#DejaVuSans-28"/>
      <use x="318.701172" xlink:href="#DejaVuSans-23"/>
      <use x="402.490234" xlink:href="#DejaVuSans-20"/>
      <use x="434.277344" xlink:href="#DejaVuSans-66"/>
      <use x="469.404297" xlink:href="#DejaVuSans-2d"/>
      <use x="505.488281" xlink:href="#DejaVuSans-65"/>
      <use x="567.011719" xlink:href="#DejaVuSans-76"/>
      <use x="626.191406" xlink:href="#DejaVuSans-61"/>
      <use x="687.470703" xlink:href="#DejaVuSans-6c"/>
      <use x="715.253906" xlink:href="#DejaVuSans-73"/>
      <use x="767.353516" xlink:href="#DejaVuSans-20"/>
      <use x="799.140625" xlink:href="#DejaVuSans-2f"/>
      <use x="832.832031" xlink:href="#DejaVuSans-20"/>
      <use x="864.619141" xlink:href="#DejaVuSans-64"/>
      <use x="928.095703" xlink:href="#DejaVuSans-69"/>
      <use x="955.878906" xlink:href="#DejaVuSans-6d"/>
      <use x="1053.291016" xlink:href="#DejaVuSans-65"/>
      <use x="1114.814453" xlink:href="#DejaVuSans-6e"/>
      <use x="1178.193359" xlink:href="#DejaVuSans-73"/>
      <use x="1230.292969" xlink:href="#DejaVuSans-69"/>
      <use x="1258.076172" xlink:href="#DejaVuSans-6f"/>
      <use x="1319.257812" xlink:href="#DejaVuSans-6e"/>
      <use x="1382.636719" xlink:href="#DejaVuSans-29"/>
     </g>
    </g>
   </g>
   <g id="matplotlib.axis_2">
    <g id="ytick_1">
     <g id="line2d_15">
      <path clip-path="url(#p31e08af85a)" d="M 56.12 294.88 
L 399.984 294.88 
" style="fill:none;stroke:#b0b0b0;stroke-linecap:square;stroke-width:0.8;"/>
     </g>
     <g id="line2d_16">
      <defs>
       <path d="M 0 0 
L -3.5 0 
" id="mc3d4f4ac27" style="stroke:#000000;stroke-width:0.8;"/>
      </defs>
      <g>
       <use style="stroke:#000000;stroke-width:0.8;" x="56.12" xlink:href="#mc3d4f4ac27" y="294.88"/>
      </g>
     </g>
     <g id="text_7">
      <!-- 0.0 -->
      <defs>
       <path d="M 10.6875 12.40625 
L 21 12.40625 
L 21 0 
L 10.6875 0 
z
" id="DejaVuSans-2e"/>
      </defs>
      <g transform="translate(23.675 300.95875)scale(0.16 -0.16)">
       <use xlink:href="#DejaVuSans-30"/>
       <use x="63.623047" xlink:href="#DejaVuSans-2e"/>
       <use x="95.410156" xlink:href="#DejaVuSans-30"/>
      </g>
     </g>
    </g>
    <g id="ytick_2">
     <g id="line2d_17">
      <path clip-path="url(#p31e08af85a)" d="M 56.12 241.406733 
L 399.984 241.406733 
" style="fill:none;stroke:#b0b0b0;stroke-linecap:square;stroke-width:0.8;"/>
     </g>
     <g id="line2d_18">
      <g>
       <use style="stroke:#000000;stroke-width:0.8;" x="56.12" xlink:href="#mc3d4f4ac27" y="241.406733"/>
      </g>
     </g>
     <g id="text_8">
      <!-- 0.2 -->
      <g transform="translate(23.675 247.485483)scale(0.16 -0.16)">
       <use xlink:href="#DejaVuSans-30"/>
       <use x="63.623047" xlink:href="#DejaVuSans-2e"/>
       <use x="95.410156" xlink:href="#DejaVuSans-32"/>
      </g>
     </g>
    </g>
    <g id="ytick_3">
     <g id="line2d_19">
      <path clip-path="url(#p31e08af85a)" d="M 56.12 187.933465 
L 399.984 187.933465 
" style="fill:none;stroke:#b0b0b0;stroke-linecap:square;stroke-width:0.8;"/>
     </g>
     <g id="line2d_20">
      <g>
       <use style="stroke:#000000;stroke-width:0.8;" x="56.12" xlink:href="#mc3d4f4ac27" y="187.933465"/>
      </g>
     </g>
     <g id="text_9">
      <!-- 0.4 -->
      <g transform="translate(23.675 194.012215)scale(0.16 -0.16)">
       <use xlink:href="#DejaVuSans-30"/>
       <use x="63.623047" xlink:href="#DejaVuSans-2e"/>
       <use x="95.410156" xlink:href="#DejaVuSans-34"/>
      </g>
     </g>
    </g>
    <g id="ytick_4">
     <g id="line2d_21">
      <path clip-path="url(#p31e08af85a)" d="M 56.12 134.460198 
L 399.984 134.460198 
" style="fill:none;stroke:#b0b0b0;stroke-linecap:square;stroke-width:0.8;"/>
     </g>
     <g id="line2d_22">
      <g>
       <use style="stroke:#000000;stroke-width:0.8;" x="56.12" xlink:href="#mc3d4f4ac27" y="134.460198"/>
      </g>
     </g>
     <g id="text_10">
      <!-- 0.6 -->
      <g transform="translate(23.675 140.538948)scale(0.16 -0.16)">
       <use xlink:href="#DejaVuSans-30"/>
       <use x="63.623047" xlink:href="#DejaVuSans-2e"/>
       <use x="95.410156" xlink:href="#DejaVuSans-36"/>
      </g>
     </g>
    </g>
    <g id="ytick_5">
     <g id="line2d_23">
      <path clip-path="url(#p31e08af85a)" d="M 56.12 80.986931 
L 399.984 80.986931 
" style="fill:none;stroke:#b0b0b0;stroke-linecap:square;stroke-width:0.8;"/>
     </g>
     <g id="line2d_24">
      <g>
       <use style="stroke:#000000;stroke-width:0.8;" x="56.12" xlink:href="#mc3d4f4ac27" y="80.986931"/>
      </g>
     </g>
     <g id="text_11">
      <!-- 0.8 -->
      <g transform="translate(23.675 87.065681)scale(0.16 -0.16)">
       <use xlink:href="#DejaVuSans-30"/>
       <use x="63.623047" xlink:href="#DejaVuSans-2e"/>
       <use x="95.410156" xlink:href="#DejaVuSans-38"/>
      </g>
     </g>
    </g>
    <g id="ytick_6">
     <g id="line2d_25">
      <path clip-path="url(#p31e08af85a)" d="M 56.12 27.513663 
L 399.984 27.513663 
" style="fill:none;stroke:#b0b0b0;stroke-linecap:square;stroke-width:0.8;"/>
     </g>
     <g id="line2d_26">
      <g>
       <use style="stroke:#000000;stroke-width:0.8;" x="56.12" xlink:href="#mc3d4f4ac27" y="27.513663"/>
      </g>
     </g>
     <g id="text_12">
      <!-- 1.0 -->
      <g transform="translate(23.675 33.592413)scale(0.16 -0.16)">
       <use xlink:href="#DejaVuSans-31"/>
       <use x="63.623047" xlink:href="#DejaVuSans-2e"/>
       <use x="95.410156" xlink:href="#DejaVuSans-30"/>
      </g>
     </g>
    </g>
    <g id="text_13">
     <!-- Fraction of function,target pairs -->
     <defs>
      <path d="M 9.8125 72.90625 
L 51.703125 72.90625 
L 51.703125 64.59375 
L 19.671875 64.59375 
L 19.671875 43.109375 
L 48.578125 43.109375 
L 48.578125 34.8125 
L 19.671875 34.8125 
L 19.671875 0 
L 9.8125 0 
z
" id="DejaVuSans-46"/>
      <path d="M 41.109375 46.296875 
Q 39.59375 47.171875 37.8125 47.578125 
Q 36.03125 48 33.890625 48 
Q 26.265625 48 22.1875 43.046875 
Q 18.109375 38.09375 18.109375 28.8125 
L 18.109375 0 
L 9.078125 0 
L 9.078125 54.6875 
L 18.109375 54.6875 
L 18.109375 46.1875 
Q 20.953125 51.171875 25.484375 53.578125 
Q 30.03125 56 36.53125 56 
Q 37.453125 56 38.578125 55.875 
Q 39.703125 55.765625 41.0625 55.515625 
z
" id="DejaVuSans-72"/>
      <path d="M 48.78125 52.59375 
L 48.78125 44.1875 
Q 44.96875 46.296875 41.140625 47.34375 
Q 37.3125 48.390625 33.40625 48.390625 
Q 24.65625 48.390625 19.8125 42.84375 
Q 14.984375 37.3125 14.984375 27.296875 
Q 14.984375 17.28125 19.8125 11.734375 
Q 24.65625 6.203125 33.40625 6.203125 
Q 37.3125 6.203125 41.140625 7.25 
Q 44.96875 8.296875 48.78125 10.40625 
L 48.78125 2.09375 
Q 45.015625 0.34375 40.984375 -0.53125 
Q 36.96875 -1.421875 32.421875 -1.421875 
Q 20.0625 -1.421875 12.78125 6.34375 
Q 5.515625 14.109375 5.515625 27.296875 
Q 5.515625 40.671875 12.859375 48.328125 
Q 20.21875 56 33.015625 56 
Q 37.15625 56 41.109375 55.140625 
Q 45.0625 54.296875 48.78125 52.59375 
z
" id="DejaVuSans-63"/>
      <path d="M 18.3125 70.21875 
L 18.3125 54.6875 
L 36.8125 54.6875 
L 36.8125 47.703125 
L 18.3125 47.703125 
L 18.3125 18.015625 
Q 18.3125 11.328125 20.140625 9.421875 
Q 21.96875 7.515625 27.59375 7.515625 
L 36.8125 7.515625 
L 36.8125 0 
L 27.59375 0 
Q 17.1875 0 13.234375 3.875 
Q 9.28125 7.765625 9.28125 18.015625 
L 9.28125 47.703125 
L 2.6875 47.703125 
L 2.6875 54.6875 
L 9.28125 54.6875 
L 9.28125 70.21875 
z
" id="DejaVuSans-74"/>
      <path d="M 8.5 21.578125 
L 8.5 54.6875 
L 17.484375 54.6875 
L 17.484375 21.921875 
Q 17.484375 14.15625 20.5 10.265625 
Q 23.53125 6.390625 29.59375 6.390625 
Q 36.859375 6.390625 41.078125 11.03125 
Q 45.3125 15.671875 45.3125 23.6875 
L 45.3125 54.6875 
L 54.296875 54.6875 
L 54.296875 0 
L 45.3125 0 
L 45.3125 8.40625 
Q 42.046875 3.421875 37.71875 1 
Q 33.40625 -1.421875 27.6875 -1.421875 
Q 18.265625 -1.421875 13.375 4.4375 
Q 8.5 10.296875 8.5 21.578125 
z
M 31.109375 56 
z
" id="DejaVuSans-75"/>
      <path d="M 11.71875 12.40625 
L 22.015625 12.40625 
L 22.015625 4 
L 14.015625 -11.625 
L 7.71875 -11.625 
L 11.71875 4 
z
" id="DejaVuSans-2c"/>
      <path d="M 18.109375 8.203125 
L 18.109375 -20.796875 
L 9.078125 -20.796875 
L 9.078125 54.6875 
L 18.109375 54.6875 
L 18.109375 46.390625 
Q 20.953125 51.265625 25.265625 53.625 
Q 29.59375 56 35.59375 56 
Q 45.5625 56 51.78125 48.09375 
Q 58.015625 40.1875 58.015625 27.296875 
Q 58.015625 14.40625 51.78125 6.484375 
Q 45.5625 -1.421875 35.59375 -1.421875 
Q 29.59375 -1.421875 25.265625 0.953125 
Q 20.953125 3.328125 18.109375 8.203125 
z
M 48.6875 27.296875 
Q 48.6875 37.203125 44.609375 42.84375 
Q 40.53125 48.484375 33.40625 48.484375 
Q 26.265625 48.484375 22.1875 42.84375 
Q 18.109375 37.203125 18.109375 27.296875 
Q 18.109375 17.390625 22.1875 11.75 
Q 26.265625 6.109375 33.40625 6.109375 
Q 40.53125 6.109375 44.609375 11.75 
Q 48.6875 17.390625 48.6875 27.296875 
z
" id="DejaVuSans-70"/>
     </defs>
     <g transform="translate(16.139531 294.999375)rotate(-90)scale(0.17 -0.17)">
      <use xlink:href="#DejaVuSans-46"/>
      <use x="57.410156" xlink:href="#DejaVuSans-72"/>
      <use x="98.523438" xlink:href="#DejaVuSans-61"/>
      <use x="159.802734" xlink:href="#DejaVuSans-63"/>
      <use x="214.783203" xlink:href="#DejaVuSans-74"/>
      <use x="253.992188" xlink:href="#DejaVuSans-69"/>
      <use x="281.775391" xlink:href="#DejaVuSans-6f"/>
      <use x="342.957031" xlink:href="#DejaVuSans-6e"/>
      <use x="406.335938" xlink:href="#DejaVuSans-20"/>
      <use x="438.123047" xlink:href="#DejaVuSans-6f"/>
      <use x="499.304688" xlink:href="#DejaVuSans-66"/>
      <use x="534.509766" xlink:href="#DejaVuSans-20"/>
      <use x="566.296875" xlink:href="#DejaVuSans-66"/>
      <use x="601.501953" xlink:href="#DejaVuSans-75"/>
      <use x="664.880859" xlink:href="#DejaVuSans-6e"/>
      <use x="728.259766" xlink:href="#DejaVuSans-63"/>
      <use x="783.240234" xlink:href="#DejaVuSans-74"/>
      <use x="822.449219" xlink:href="#DejaVuSans-69"/>
      <use x="850.232422" xlink:href="#DejaVuSans-6f"/>
      <use x="911.414062" xlink:href="#DejaVuSans-6e"/>
      <use x="974.792969" xlink:href="#DejaVuSans-2c"/>
      <use x="1006.580078" xlink:href="#DejaVuSans-74"/>
      <use x="1045.789062" xlink:href="#DejaVuSans-61"/>
      <use x="1107.068359" xlink:href="#DejaVuSans-72"/>
      <use x="1148.166016" xlink:href="#DejaVuSans-67"/>
      <use x="1211.642578" xlink:href="#DejaVuSans-65"/>
      <use x="1273.166016" xlink:href="#DejaVuSans-74"/>
      <use x="1312.375" xlink:href="#DejaVuSans-20"/>
      <use x="1344.162109" xlink:href="#DejaVuSans-70"/>
      <use x="1407.638672" xlink:href="#DejaVuSans-61"/>
      <use x="1468.917969" xlink:href="#DejaVuSans-69"/>
      <use x="1496.701172" xlink:href="#DejaVuSans-72"/>
      <use x="1537.814453" xlink:href="#DejaVuSans-73"/>
     </g>
    </g>
   </g>
   <g id="line2d_27">
    <defs>
     <path d="M 0 1.5 
C 0.397805 1.5 0.77937 1.341951 1.06066 1.06066 
C 1.341951 0.77937 1.5 0.397805 1.5 0 
C 1.5 -0.397805 1.341951 -0.77937 1.06066 -1.06066 
C 0.77937 -1.341951 0.397805 -1.5 0 -1.5 
C -0.397805 -1.5 -0.77937 -1.341951 -1.06066 -1.06066 
C -1.341951 -0.77937 -1.5 -0.397805 -1.5 0 
C -1.5 0.397805 -1.341951 0.77937 -1.06066 1.06066 
C -0.77937 1.341951 -0.397805 1.5 0 1.5 
z
" id="maeb552eaee" style="stroke:#f5deb3;"/>
    </defs>
    <g>
     <use style="fill:#f5deb3;stroke:#f5deb3;" x="138.445088" xlink:href="#maeb552eaee" y="27.513663"/>
     <use style="fill:#f5deb3;stroke:#f5deb3;" x="138.445088" xlink:href="#maeb552eaee" y="27.513663"/>
    </g>
   </g>
   <g id="line2d_28">
    <defs>
     <path d="M 0 1.5 
C 0.397805 1.5 0.77937 1.341951 1.06066 1.06066 
C 1.341951 0.77937 1.5 0.397805 1.5 0 
C 1.5 -0.397805 1.341951 -0.77937 1.06066 -1.06066 
C 0.77937 -1.341951 0.397805 -1.5 0 -1.5 
C -0.397805 -1.5 -0.77937 -1.341951 -1.06066 -1.06066 
C -1.341951 -0.77937 -1.5 -0.397805 -1.5 0 
C -1.5 0.397805 -1.341951 0.77937 -1.06066 1.06066 
C -0.77937 1.341951 -0.397805 1.5 0 1.5 
z
" id="m46e33ad542" style="stroke:#000080;"/>
    </defs>
    <g>
     <use style="fill:#000080;stroke:#000080;" x="319.890456" xlink:href="#m46e33ad542" y="27.513663"/>
     <use style="fill:#000080;stroke:#000080;" x="319.890456" xlink:href="#m46e33ad542" y="27.513663"/>
    </g>
   </g>
   <g id="line2d_29">
    <path d="M 136.223505 294.88 
L 136.223505 294.355752 
L 139.231734 294.355752 
L 139.231734 293.831505 
L 139.422901 293.831505 
L 139.422901 293.307257 
L 139.772387 293.307257 
L 139.772387 291.210266 
L 140.322361 291.210266 
L 140.322361 290.686018 
L 141.004581 290.686018 
L 141.004581 290.161771 
L 142.073102 290.161771 
L 142.073102 288.589027 
L 142.498503 288.589027 
L 142.498503 288.06478 
L 143.090101 288.06478 
L 143.15581 285.443541 
L 143.39462 285.443541 
L 143.39462 284.395046 
L 143.534192 284.395046 
L 143.619523 283.34655 
L 144.571569 283.34655 
L 144.571569 282.822302 
L 145.358664 282.822302 
L 145.358664 282.298055 
L 145.521381 282.298055 
L 145.521381 281.773807 
L 147.473568 281.773807 
L 147.473568 281.249559 
L 148.751623 281.249559 
L 148.751623 280.201064 
L 149.025778 280.201064 
L 149.025778 279.152568 
L 149.180499 279.152568 
L 149.180499 278.104073 
L 149.356725 278.104073 
L 149.356725 277.579825 
L 150.058757 277.579825 
L 150.058757 277.055578 
L 150.269684 277.055578 
L 150.269684 276.007082 
L 150.456617 276.007082 
L 150.456617 275.482834 
L 153.182154 275.482834 
L 153.182154 274.434339 
L 154.51462 274.434339 
L 154.51462 273.910091 
L 154.75023 273.910091 
L 154.75023 272.337348 
L 155.903037 272.337348 
L 155.903037 271.288853 
L 156.068968 271.288853 
L 156.068968 270.240357 
L 158.517921 270.240357 
L 158.517921 269.716109 
L 159.7109 269.716109 
L 159.7109 269.191862 
L 160.562256 269.191862 
L 160.562256 268.143366 
L 160.939622 268.143366 
L 160.939622 267.619119 
L 161.190511 267.619119 
L 161.190511 266.570623 
L 162.598851 266.570623 
L 162.598851 265.522128 
L 174.149585 265.522128 
L 174.149585 264.99788 
L 188.361763 264.99788 
L 188.361763 264.473632 
L 193.541367 264.473632 
L 193.541367 263.425137 
L 194.149481 263.425137 
L 194.149481 262.376641 
L 196.108714 262.376641 
L 196.189083 260.803898 
L 196.294996 260.803898 
L 196.294996 259.755403 
L 196.71565 259.755403 
L 196.71565 259.231155 
L 197.389988 259.231155 
L 197.389988 258.706907 
L 203.180083 258.706907 
L 203.180083 258.18266 
L 203.36468 258.18266 
L 203.36468 257.658412 
L 207.333392 257.658412 
L 207.333392 257.134164 
L 210.146818 257.134164 
L 210.146818 256.085669 
L 211.298988 256.085669 
L 211.298988 255.561421 
L 214.440144 255.561421 
L 214.440144 255.037173 
L 215.764248 255.037173 
L 215.764248 254.512926 
L 216.447318 254.512926 
L 216.447318 253.988678 
L 218.723217 253.988678 
L 218.723217 253.46443 
L 220.462944 253.46443 
L 220.462944 252.940182 
L 221.382487 252.940182 
L 221.477823 251.891687 
L 222.341177 251.891687 
L 222.341177 251.367439 
L 222.815072 251.367439 
L 222.815072 250.843192 
L 223.733301 250.843192 
L 223.768239 248.746201 
L 224.378964 248.746201 
L 224.378964 248.221953 
L 224.49327 248.221953 
L 224.49327 247.697705 
L 225.8242 247.697705 
L 225.8242 246.64921 
L 226.861525 246.64921 
L 226.861525 246.124962 
L 227.009214 246.124962 
L 227.009214 245.600714 
L 227.205035 245.600714 
L 227.205035 244.552219 
L 227.893822 244.552219 
L 227.893822 242.979476 
L 228.532936 242.979476 
L 228.532936 242.455228 
L 228.976229 242.455228 
L 228.976229 241.93098 
L 229.179234 241.93098 
L 229.205508 239.309742 
L 230.128686 239.309742 
L 230.128686 238.785494 
L 231.371577 238.785494 
L 231.371577 238.261246 
L 231.589295 238.261246 
L 231.648673 236.688503 
L 233.033437 236.688503 
L 233.033437 235.640008 
L 233.273308 235.640008 
L 233.273308 235.11576 
L 233.554432 235.11576 
L 233.554432 234.591512 
L 233.763965 234.591512 
L 233.763965 234.067265 
L 234.522384 234.067265 
L 234.522384 233.543017 
L 235.101725 233.543017 
L 235.143958 231.970274 
L 235.348127 231.970274 
L 235.348127 231.446026 
L 235.592368 231.446026 
L 235.592368 230.921778 
L 236.04852 230.921778 
L 236.04852 230.397531 
L 236.667645 230.397531 
L 236.667645 229.873283 
L 236.973894 229.873283 
L 237.028354 228.824787 
L 237.256098 228.824787 
L 237.256098 228.30054 
L 238.867493 228.30054 
L 238.867493 227.776292 
L 239.094691 227.776292 
L 239.17987 225.679301 
L 240.097785 225.679301 
L 240.097785 225.155053 
L 240.54715 225.155053 
L 240.643956 224.106558 
L 241.66148 224.106558 
L 241.66148 223.058063 
L 242.076236 223.058063 
L 242.092795 220.961072 
L 242.262304 220.961072 
L 242.262304 220.436824 
L 242.441612 220.436824 
L 242.441612 219.912576 
L 242.850606 219.912576 
L 242.850606 219.388328 
L 243.344642 219.388328 
L 243.344642 218.339833 
L 243.802517 218.339833 
L 243.802517 216.76709 
L 244.088165 216.76709 
L 244.088165 216.242842 
L 244.896749 216.242842 
L 244.896749 215.718594 
L 245.200467 215.718594 
L 245.200467 214.670099 
L 245.94447 214.670099 
L 245.94447 214.145851 
L 246.729324 214.145851 
L 246.729324 213.621604 
L 247.156468 213.621604 
L 247.156468 213.097356 
L 247.444148 213.097356 
L 247.444148 212.573108 
L 247.626484 212.573108 
L 247.626484 212.04886 
L 249.293644 212.04886 
L 249.293644 211.524613 
L 250.395407 211.524613 
L 250.395407 211.000365 
L 250.529465 211.000365 
L 250.529465 210.476117 
L 250.730096 210.476117 
L 250.730096 209.95187 
L 251.279186 209.95187 
L 251.279186 209.427622 
L 253.382905 209.427622 
L 253.382905 208.903374 
L 253.505482 208.903374 
L 253.599584 205.757888 
L 253.821237 205.757888 
L 253.821237 205.23364 
L 253.964685 205.23364 
L 253.964685 204.709392 
L 255.786056 204.709392 
L 255.786056 204.185145 
L 255.927918 204.185145 
L 255.927918 203.660897 
L 256.283225 203.660897 
L 256.365848 202.612401 
L 256.977096 202.612401 
L 256.977096 202.088154 
L 257.386968 202.088154 
L 257.45449 201.039658 
L 258.102984 201.039658 
L 258.102984 200.515411 
L 258.396014 200.515411 
L 258.464101 198.942667 
L 258.53156 198.942667 
L 258.557379 197.369924 
L 258.671632 197.369924 
L 258.671632 196.845677 
L 258.834834 196.845677 
L 258.834834 196.321429 
L 259.521068 196.321429 
L 259.544941 195.272933 
L 259.68864 195.272933 
L 259.68864 194.748686 
L 260.348436 194.748686 
L 260.430887 192.651695 
L 260.506746 192.651695 
L 260.506746 192.127447 
L 260.79008 192.127447 
L 260.79008 191.603199 
L 261.08096 191.603199 
L 261.08096 190.554704 
L 261.208037 190.554704 
L 261.265042 189.506209 
L 261.59354 189.506209 
L 261.59354 188.981961 
L 261.769488 188.981961 
L 261.862595 187.933465 
L 261.893809 187.933465 
L 262.004695 186.360722 
L 262.554921 186.360722 
L 262.554921 185.836474 
L 263.206668 185.836474 
L 263.206668 185.312227 
L 263.44705 185.312227 
L 263.44705 184.787979 
L 263.616549 184.787979 
L 263.616549 184.263731 
L 263.750933 184.263731 
L 263.750933 183.739484 
L 264.111569 183.739484 
L 264.126434 181.642493 
L 264.654926 181.642493 
L 264.654926 181.118245 
L 264.973572 181.118245 
L 264.9801 179.545502 
L 265.123758 179.545502 
L 265.133984 178.497006 
L 265.487852 178.497006 
L 265.487852 177.972759 
L 265.772275 177.972759 
L 265.772275 176.924263 
L 266.07883 176.924263 
L 266.07883 176.400016 
L 266.320947 176.400016 
L 266.429723 174.303025 
L 266.689491 174.303025 
L 266.689491 173.778777 
L 267.553428 173.778777 
L 267.553428 173.254529 
L 267.771604 173.254529 
L 267.771604 172.730281 
L 267.882921 172.730281 
L 267.882921 172.206034 
L 268.00871 172.206034 
L 268.00871 171.681786 
L 268.186829 171.681786 
L 268.186829 170.633291 
L 268.306893 170.633291 
L 268.306893 170.109043 
L 268.652508 170.109043 
L 268.652508 169.060547 
L 268.886343 169.060547 
L 268.886343 168.012052 
L 269.12729 168.012052 
L 269.12729 166.963557 
L 269.429948 166.963557 
L 269.429948 166.439309 
L 269.568533 166.439309 
L 269.568533 165.915061 
L 269.687049 165.915061 
L 269.740227 164.866566 
L 270.241145 164.866566 
L 270.241145 164.342318 
L 270.381588 164.342318 
L 270.381588 163.81807 
L 270.511918 163.81807 
L 270.591683 161.196832 
L 270.828835 161.196832 
L 270.828835 159.624089 
L 271.092762 159.624089 
L 271.092762 159.099841 
L 271.525944 159.099841 
L 271.525944 158.575593 
L 271.70401 158.575593 
L 271.80166 156.478602 
L 271.963313 156.478602 
L 271.963313 155.954354 
L 272.095731 155.954354 
L 272.095731 155.430107 
L 272.629107 155.430107 
L 272.629107 154.905859 
L 272.789266 154.905859 
L 272.789266 154.381611 
L 273.442611 154.381611 
L 273.486899 149.663382 
L 273.685034 149.663382 
L 273.760853 148.614886 
L 273.975928 148.614886 
L 273.975928 148.090639 
L 274.22817 148.090639 
L 274.255481 145.993648 
L 274.53621 145.993648 
L 274.53621 145.4694 
L 274.953154 145.4694 
L 274.953154 144.420905 
L 275.099542 144.420905 
L 275.167237 141.799666 
L 275.247231 141.799666 
L 275.274615 140.226923 
L 275.599352 140.226923 
L 275.697946 138.129932 
L 275.775362 138.129932 
L 275.832286 136.557189 
L 275.995515 136.557189 
L 276.081516 134.984446 
L 276.443684 134.984446 
L 276.479302 133.411703 
L 276.590508 133.411703 
L 276.701237 131.314712 
L 276.78178 131.314712 
L 276.829284 129.741969 
L 276.94695 129.741969 
L 276.94695 129.217721 
L 277.093115 129.217721 
L 277.093115 127.644978 
L 277.343034 127.644978 
L 277.443849 126.596482 
L 277.75318 126.596482 
L 277.842653 124.499491 
L 277.871247 124.499491 
L 277.967825 123.450996 
L 278.132652 123.450996 
L 278.132652 122.926748 
L 278.335724 122.926748 
L 278.34964 121.878253 
L 278.462656 121.878253 
L 278.462656 121.354005 
L 278.604429 121.354005 
L 278.7034 119.257014 
L 278.888913 119.257014 
L 278.888913 117.684271 
L 279.040583 117.684271 
L 279.141609 116.111528 
L 279.190311 116.111528 
L 279.190311 115.063032 
L 279.320823 115.063032 
L 279.416846 113.490289 
L 279.457029 113.490289 
L 279.457029 112.966042 
L 279.642703 112.966042 
L 279.740768 110.344803 
L 279.819648 110.344803 
L 279.841122 109.296308 
L 280.074705 109.296308 
L 280.169467 106.675069 
L 280.272632 106.675069 
L 280.283046 105.626573 
L 280.41948 105.626573 
L 280.41948 105.102326 
L 280.614806 105.102326 
L 280.622115 104.05383 
L 280.752589 104.05383 
L 280.782165 101.956839 
L 281.073924 101.956839 
L 281.159892 100.384096 
L 281.312741 100.384096 
L 281.312741 99.859849 
L 281.54739 99.859849 
L 281.620286 98.287105 
L 281.758774 98.287105 
L 281.784002 96.714362 
L 281.924233 96.714362 
L 281.924233 95.665867 
L 282.205528 95.665867 
L 282.307761 94.617371 
L 282.451565 94.617371 
L 282.451565 93.568876 
L 282.698279 93.568876 
L 282.774856 91.996133 
L 282.83741 91.996133 
L 282.94668 90.42339 
L 282.989878 90.42339 
L 283.02038 89.374894 
L 283.505252 89.374894 
L 283.591451 87.802151 
L 283.762247 87.802151 
L 283.76888 86.753656 
L 283.988514 86.753656 
L 284.07512 85.70516 
L 284.197977 85.70516 
L 284.215376 84.132417 
L 284.331016 84.132417 
L 284.331016 83.608169 
L 284.475408 83.608169 
L 284.558937 80.462683 
L 284.671291 80.462683 
L 284.744875 78.88994 
L 285.175057 78.88994 
L 285.264436 76.792949 
L 285.436958 76.792949 
L 285.500932 74.695958 
L 285.646739 74.695958 
L 285.688371 73.647463 
L 286.14787 73.647463 
L 286.180395 72.598967 
L 286.403355 72.598967 
L 286.494537 70.501976 
L 286.556097 70.501976 
L 286.556097 69.977729 
L 286.803144 69.977729 
L 286.803144 68.929233 
L 287.735519 68.929233 
L 287.757323 67.880738 
L 288.063247 67.880738 
L 288.063247 66.832242 
L 288.311559 66.832242 
L 288.311559 66.307995 
L 288.513613 66.307995 
L 288.601373 63.686756 
L 288.653887 63.686756 
L 288.665568 62.114013 
L 288.766358 62.114013 
L 288.766358 61.589765 
L 289.540701 61.589765 
L 289.564015 60.54127 
L 289.697285 60.54127 
L 289.758767 59.492774 
L 290.016034 59.492774 
L 290.050638 58.444279 
L 290.347246 58.444279 
L 290.408619 55.82304 
L 290.63666 55.82304 
L 290.63666 55.298792 
L 290.923072 55.298792 
L 290.923072 54.774545 
L 291.184681 54.774545 
L 291.184681 54.250297 
L 291.348787 54.250297 
L 291.348787 53.726049 
L 291.636228 53.726049 
L 291.656315 52.677554 
L 291.91235 52.677554 
L 291.982607 51.104811 
L 292.195318 51.104811 
L 292.250624 49.532068 
L 292.487258 49.532068 
L 292.549849 47.959324 
L 292.874847 47.959324 
L 292.874847 46.910829 
L 292.987795 46.910829 
L 292.987795 46.386581 
L 293.230261 46.386581 
L 293.230261 45.862334 
L 293.354424 45.862334 
L 293.354424 45.338086 
L 293.540112 45.338086 
L 293.599232 43.765343 
L 293.742331 43.765343 
L 293.742331 42.716847 
L 298.57997 42.716847 
L 298.57997 42.192599 
L 298.74456 42.192599 
L 298.74456 41.668352 
L 299.082443 41.668352 
L 299.082443 40.619856 
L 299.487582 40.619856 
L 299.487582 40.095609 
L 299.975962 40.095609 
L 299.975962 39.571361 
L 300.13425 39.571361 
L 300.13425 39.047113 
L 300.265156 39.047113 
L 300.281805 37.47437 
L 300.378149 37.47437 
L 300.428652 36.425875 
L 300.647734 36.425875 
L 300.677052 35.377379 
L 301.025519 35.377379 
L 301.025519 34.853131 
L 301.150012 34.853131 
L 301.150012 34.328884 
L 301.527864 34.328884 
L 301.601103 33.280388 
L 301.778117 33.280388 
L 301.844864 31.707645 
L 302.30582 31.707645 
L 302.30582 31.183397 
L 304.848189 31.183397 
L 304.848189 30.65915 
L 305.554439 30.65915 
L 305.554439 30.134902 
L 307.597873 30.134902 
L 307.597873 29.610654 
L 309.110792 29.610654 
L 309.110792 29.086407 
L 310.293565 29.086407 
L 310.293565 28.562159 
L 316.117111 28.562159 
L 316.117111 28.037911 
L 319.890456 28.037911 
L 319.890456 27.513663 
L 333.429677 27.513663 
L 333.429677 27.513663 
" style="fill:none;stroke:#000080;stroke-linecap:square;stroke-width:1.5;"/>
   </g>
   <g id="line2d_30">
    <defs>
     <path d="M 0 6 
C 1.591219 6 3.117479 5.367802 4.242641 4.242641 
C 5.367802 3.117479 6 1.591219 6 0 
C 6 -1.591219 5.367802 -3.117479 4.242641 -4.242641 
C 3.117479 -5.367802 1.591219 -6 0 -6 
C -1.591219 -6 -3.117479 -5.367802 -4.242641 -4.242641 
C -5.367802 -3.117479 -6 -1.591219 -6 0 
C -6 1.591219 -5.367802 3.117479 -4.242641 4.242641 
C -3.117479 5.367802 -1.591219 6 0 6 
z
" id="m23ef5cd222" style="stroke:#000080;stroke-width:1.5;"/>
    </defs>
    <g>
     <use style="fill-opacity:0;stroke:#000080;stroke-width:1.5;" x="194.149481" xlink:href="#m23ef5cd222" y="263.425137"/>
     <use style="fill-opacity:0;stroke:#000080;stroke-width:1.5;" x="253.964685" xlink:href="#m23ef5cd222" y="204.709392"/>
     <use style="fill-opacity:0;stroke:#000080;stroke-width:1.5;" x="286.803144" xlink:href="#m23ef5cd222" y="69.977729"/>
     <use style="fill-opacity:0;stroke:#000080;stroke-width:1.5;" x="319.890456" xlink:href="#m23ef5cd222" y="27.513663"/>
     <use style="fill-opacity:0;stroke:#000080;stroke-width:1.5;" x="333.429677" xlink:href="#m23ef5cd222" y="27.513663"/>
    </g>
   </g>
   <g id="line2d_31">
    <path style="fill:none;stroke:#000080;stroke-linecap:square;stroke-width:1.5;"/>
    <g/>
   </g>
   <g id="line2d_32">
    <path clip-path="url(#p31e08af85a)" d="M 293.814047 42.716847 
" style="fill:none;stroke:#000080;stroke-linecap:square;stroke-width:1.5;"/>
    <defs>
     <path d="M -12 12 
L 12 -12 
M -12 -12 
L 12 12 
" id="m3a0cc498ca" style="stroke:#000080;stroke-width:3;"/>
    </defs>
    <g clip-path="url(#p31e08af85a)">
     <use style="fill:#000080;stroke:#000080;stroke-width:3;" x="293.814047" xlink:href="#m3a0cc498ca" y="42.716847"/>
    </g>
   </g>
   <g id="line2d_33">
    <defs>
     <path d="M 0 1.5 
C 0.397805 1.5 0.77937 1.341951 1.06066 1.06066 
C 1.341951 0.77937 1.5 0.397805 1.5 0 
C 1.5 -0.397805 1.341951 -0.77937 1.06066 -1.06066 
C 0.77937 -1.341951 0.397805 -1.5 0 -1.5 
C -0.397805 -1.5 -0.77937 -1.341951 -1.06066 -1.06066 
C -1.341951 -0.77937 -1.5 -0.397805 -1.5 0 
C -1.5 0.397805 -1.341951 0.77937 -1.06066 1.06066 
C -0.77937 1.341951 -0.397805 1.5 0 1.5 
z
" id="mfedffb066d" style="stroke:#ff00ff;"/>
    </defs>
    <g>
     <use style="fill:#ff00ff;stroke:#ff00ff;" x="312.801699" xlink:href="#mfedffb066d" y="258.18266"/>
     <use style="fill:#ff00ff;stroke:#ff00ff;" x="312.801699" xlink:href="#mfedffb066d" y="258.18266"/>
    </g>
   </g>
   <g id="line2d_34">
    <path d="M 190.057262 294.88 
L 190.057262 294.355752 
L 190.800346 294.355752 
L 190.800346 293.831505 
L 191.322871 293.831505 
L 191.322871 292.258761 
L 191.393874 292.258761 
L 191.393874 291.734514 
L 192.945494 291.734514 
L 192.945494 291.210266 
L 193.409937 291.210266 
L 193.409937 290.686018 
L 193.900568 290.686018 
L 193.900568 290.161771 
L 193.921163 290.161771 
L 193.921163 289.637523 
L 193.96399 289.637523 
L 193.96399 289.113275 
L 194.045353 289.113275 
L 194.045353 288.589027 
L 194.496886 288.589027 
L 194.496886 288.06478 
L 194.608765 288.06478 
L 194.608765 287.016284 
L 194.626884 287.016284 
L 194.626884 286.492036 
L 194.629628 286.492036 
L 194.629628 285.967789 
L 195.236075 285.967789 
L 195.236075 285.443541 
L 196.573141 285.443541 
L 196.573141 284.919293 
L 196.704954 284.919293 
L 196.704954 283.870798 
L 196.90897 283.870798 
L 196.90897 283.34655 
L 197.443183 283.34655 
L 197.443183 282.822302 
L 197.471115 282.822302 
L 197.471115 282.298055 
L 198.72572 282.298055 
L 198.72572 281.249559 
L 198.874267 281.249559 
L 198.874267 280.725312 
L 199.086031 280.725312 
L 199.086031 279.676816 
L 199.105077 279.676816 
L 199.105077 279.152568 
L 199.62546 279.152568 
L 199.62546 278.628321 
L 199.976443 278.628321 
L 199.976443 278.104073 
L 200.370393 278.104073 
L 200.370393 277.579825 
L 200.754372 277.579825 
L 200.754372 277.055578 
L 200.984959 277.055578 
L 200.984959 276.53133 
L 201.048551 276.53133 
L 201.048551 276.007082 
L 201.260333 276.007082 
L 201.260333 275.482834 
L 201.587119 275.482834 
L 201.587119 274.958587 
L 202.673677 274.958587 
L 202.673677 274.434339 
L 202.715909 274.434339 
L 202.715909 273.910091 
L 202.935008 273.910091 
L 202.935008 273.385844 
L 204.212928 273.385844 
L 204.212928 272.861596 
L 204.243079 272.861596 
L 204.243079 272.337348 
L 204.532771 272.337348 
L 204.532771 271.288853 
L 204.603901 271.288853 
L 204.603901 270.764605 
L 205.968871 270.764605 
L 205.968871 269.716109 
L 206.499351 269.716109 
L 206.499351 268.667614 
L 207.182224 268.667614 
L 207.182224 267.619119 
L 207.232145 267.619119 
L 207.232145 267.094871 
L 208.311156 267.094871 
L 208.311156 266.570623 
L 208.822215 266.570623 
L 208.822215 266.046375 
L 209.663624 266.046375 
L 209.663624 264.99788 
L 210.861183 264.99788 
L 210.861183 264.473632 
L 210.923014 264.473632 
L 210.923014 263.949385 
L 211.726945 263.949385 
L 211.726945 263.425137 
L 221.639319 263.425137 
L 221.639319 262.900889 
L 282.399415 262.900889 
L 282.399415 261.852394 
L 285.452128 261.852394 
L 285.452128 261.328146 
L 288.043942 261.328146 
L 288.043942 260.803898 
L 292.287006 260.803898 
L 292.287006 260.279651 
L 298.526255 260.279651 
L 298.526255 259.755403 
L 299.787183 259.755403 
L 299.787183 259.231155 
L 304.992947 259.231155 
L 304.992947 258.706907 
L 312.801699 258.706907 
L 312.801699 258.18266 
L 333.429677 258.18266 
" style="fill:none;stroke:#ff00ff;stroke-linecap:square;stroke-width:1.5;"/>
   </g>
   <g id="line2d_35">
    <defs>
     <path d="M -0 8.485281 
L 5.091169 0 
L 0 -8.485281 
L -5.091169 -0 
z
" id="m833402167a" style="stroke:#ff00ff;stroke-linejoin:miter;stroke-width:1.5;"/>
    </defs>
    <g>
     <use style="fill-opacity:0;stroke:#ff00ff;stroke-linejoin:miter;stroke-width:1.5;" x="221.639319" xlink:href="#m833402167a" y="263.425137"/>
     <use style="fill-opacity:0;stroke:#ff00ff;stroke-linejoin:miter;stroke-width:1.5;" x="304.992947" xlink:href="#m833402167a" y="258.706907"/>
     <use style="fill-opacity:0;stroke:#ff00ff;stroke-linejoin:miter;stroke-width:1.5;" x="312.801699" xlink:href="#m833402167a" y="258.18266"/>
     <use style="fill-opacity:0;stroke:#ff00ff;stroke-linejoin:miter;stroke-width:1.5;" x="333.429677" xlink:href="#m833402167a" y="258.18266"/>
    </g>
   </g>
   <g id="line2d_36">
    <path style="fill:none;stroke:#ff00ff;stroke-linecap:square;stroke-width:1.5;"/>
    <g/>
   </g>
   <g id="line2d_37">
    <path clip-path="url(#p31e08af85a)" d="M 254.198341 262.900889 
" style="fill:none;stroke:#ff00ff;stroke-linecap:square;stroke-width:1.5;"/>
    <defs>
     <path d="M -12 12 
L 12 -12 
M -12 -12 
L 12 12 
" id="m44d2650b02" style="stroke:#ff00ff;stroke-width:3;"/>
    </defs>
    <g clip-path="url(#p31e08af85a)">
     <use style="fill:#ff00ff;stroke:#ff00ff;stroke-width:3;" x="254.198341" xlink:href="#m44d2650b02" y="262.900889"/>
    </g>
   </g>
   <g id="line2d_38">
    <defs>
     <path d="M 0 1.5 
C 0.397805 1.5 0.77937 1.341951 1.06066 1.06066 
C 1.341951 0.77937 1.5 0.397805 1.5 0 
C 1.5 -0.397805 1.341951 -0.77937 1.06066 -1.06066 
C 0.77937 -1.341951 0.397805 -1.5 0 -1.5 
C -0.397805 -1.5 -0.77937 -1.341951 -1.06066 -1.06066 
C -1.341951 -0.77937 -1.5 -0.397805 -1.5 0 
C -1.5 0.397805 -1.341951 0.77937 -1.06066 1.06066 
C -0.77937 1.341951 -0.397805 1.5 0 1.5 
z
" id="m77bb183b6e" style="stroke:#ffa500;"/>
    </defs>
    <g>
     <use style="fill:#ffa500;stroke:#ffa500;" x="288.854657" xlink:href="#m77bb183b6e" y="116.635776"/>
     <use style="fill:#ffa500;stroke:#ffa500;" x="288.854657" xlink:href="#m77bb183b6e" y="116.635776"/>
    </g>
   </g>
   <g id="line2d_39">
    <path d="M 95.033331 294.88 
L 95.033331 293.831505 
L 99.156871 293.831505 
L 99.156871 293.307257 
L 99.297319 293.307257 
L 99.297319 292.783009 
L 99.574823 292.783009 
L 99.574823 291.734514 
L 99.847922 291.734514 
L 99.847922 291.210266 
L 101.025901 291.210266 
L 101.025901 290.686018 
L 101.524628 290.686018 
L 101.524628 289.637523 
L 102.246616 289.637523 
L 102.246616 288.589027 
L 103.275786 288.589027 
L 103.275786 288.06478 
L 103.605601 288.06478 
L 103.605601 287.540532 
L 104.035746 287.540532 
L 104.035746 285.443541 
L 104.246851 285.443541 
L 104.246851 284.919293 
L 105.363783 284.919293 
L 105.363783 284.395046 
L 105.75261 284.395046 
L 105.848459 282.822302 
L 105.943777 282.822302 
L 105.943777 282.298055 
L 106.226603 282.298055 
L 106.226603 281.249559 
L 106.504855 281.249559 
L 106.504855 280.201064 
L 106.778678 280.201064 
L 106.778678 279.676816 
L 107.048212 279.676816 
L 107.048212 279.152568 
L 107.401145 279.152568 
L 107.401145 278.628321 
L 107.746983 278.628321 
L 107.746983 277.579825 
L 107.917329 277.579825 
L 107.917329 277.055578 
L 108.169728 277.055578 
L 108.169728 276.53133 
L 109.687614 276.53133 
L 109.763911 273.910091 
L 110.654016 273.910091 
L 110.654016 273.385844 
L 111.011718 273.385844 
L 111.082375 271.8131 
L 112.108815 271.8131 
L 112.108815 271.288853 
L 113.3268 271.288853 
L 113.3268 270.764605 
L 114.5797 270.764605 
L 114.5797 270.240357 
L 114.977847 270.240357 
L 114.977847 269.191862 
L 117.24006 269.191862 
L 117.24006 268.667614 
L 118.058348 268.667614 
L 118.058348 268.143366 
L 118.567816 268.143366 
L 118.567816 267.619119 
L 130.424729 267.619119 
L 130.424729 267.094871 
L 131.05452 267.094871 
L 131.05452 266.570623 
L 131.186528 266.570623 
L 131.186528 266.046375 
L 131.55514 266.046375 
L 131.55514 265.522128 
L 132.186969 265.522128 
L 132.186969 264.99788 
L 132.615836 264.99788 
L 132.716391 263.949385 
L 133.671921 263.949385 
L 133.671921 262.900889 
L 134.523088 262.900889 
L 134.523088 262.376641 
L 135.505488 262.376641 
L 135.505488 261.852394 
L 139.35487 261.852394 
L 139.35487 261.328146 
L 140.780167 261.328146 
L 140.780167 260.279651 
L 149.172796 260.279651 
L 149.172796 259.755403 
L 151.870007 259.755403 
L 151.870007 259.231155 
L 153.823105 259.231155 
L 153.823105 258.706907 
L 155.661671 258.706907 
L 155.672236 257.658412 
L 158.584927 257.658412 
L 158.584927 256.609917 
L 160.70474 256.609917 
L 160.70474 256.085669 
L 162.177107 256.085669 
L 162.177107 255.561421 
L 162.777978 255.561421 
L 162.777978 255.037173 
L 164.954398 255.037173 
L 164.954398 254.512926 
L 165.745669 254.512926 
L 165.745669 253.46443 
L 166.440124 253.46443 
L 166.440124 251.891687 
L 169.067234 251.891687 
L 169.067234 251.367439 
L 169.807444 251.367439 
L 169.807444 250.843192 
L 170.095292 250.843192 
L 170.095292 249.270448 
L 171.192247 249.270448 
L 171.192247 248.221953 
L 172.596709 248.221953 
L 172.596709 247.697705 
L 173.062286 247.697705 
L 173.062286 247.173458 
L 173.742469 247.173458 
L 173.742469 246.124962 
L 174.275417 246.124962 
L 174.275417 245.076467 
L 174.39678 245.076467 
L 174.39678 244.552219 
L 175.904467 244.552219 
L 175.904467 244.027971 
L 176.190453 244.027971 
L 176.190453 243.503724 
L 176.418083 243.503724 
L 176.418083 242.979476 
L 177.837971 242.979476 
L 177.837971 242.455228 
L 180.334234 242.455228 
L 180.334234 241.406733 
L 181.373938 241.406733 
L 181.373938 240.882485 
L 182.699184 240.882485 
L 182.699184 240.358237 
L 183.725039 240.358237 
L 183.725039 239.83399 
L 184.357534 239.83399 
L 184.466835 237.736999 
L 185.172262 237.736999 
L 185.172262 237.212751 
L 187.01594 237.212751 
L 187.01594 236.688503 
L 187.206201 236.688503 
L 187.206201 236.164255 
L 187.430271 236.164255 
L 187.522572 233.543017 
L 187.73849 233.543017 
L 187.73849 233.018769 
L 190.182057 233.018769 
L 190.182057 232.494521 
L 190.329921 232.494521 
L 190.394609 231.446026 
L 190.53649 231.446026 
L 190.53649 230.921778 
L 192.220021 230.921778 
L 192.220021 230.397531 
L 192.97693 230.397531 
L 192.97693 229.873283 
L 193.205528 229.873283 
L 193.234708 228.30054 
L 193.340888 228.30054 
L 193.340888 227.776292 
L 194.078244 227.776292 
L 194.078244 226.727797 
L 194.655396 226.727797 
L 194.655396 225.679301 
L 195.537973 225.679301 
L 195.537973 225.155053 
L 197.820588 225.155053 
L 197.820588 224.106558 
L 197.953168 224.106558 
L 197.953168 223.58231 
L 198.145669 223.58231 
L 198.145669 222.009567 
L 198.700188 222.009567 
L 198.700188 221.485319 
L 199.888154 221.485319 
L 199.888154 220.961072 
L 200.36607 220.961072 
L 200.467976 219.912576 
L 200.756678 219.912576 
L 200.756678 218.864081 
L 201.452573 218.864081 
L 201.553764 216.242842 
L 201.922901 216.242842 
L 201.922901 215.194347 
L 202.189433 215.194347 
L 202.296939 213.621604 
L 202.475214 213.621604 
L 202.475214 213.097356 
L 202.930945 213.097356 
L 202.930945 212.573108 
L 203.163051 212.573108 
L 203.163051 211.524613 
L 203.543723 211.524613 
L 203.543723 210.476117 
L 203.684979 210.476117 
L 203.684979 209.95187 
L 204.005788 209.95187 
L 204.005788 209.427622 
L 204.304473 209.427622 
L 204.304473 208.903374 
L 204.6211 208.903374 
L 204.6211 207.854879 
L 204.790635 207.854879 
L 204.83526 206.282136 
L 205.028509 206.282136 
L 205.028509 204.709392 
L 205.143544 204.709392 
L 205.143544 204.185145 
L 205.435865 204.185145 
L 205.435865 203.660897 
L 205.603974 203.660897 
L 205.603974 203.136649 
L 205.744882 203.136649 
L 205.780217 202.088154 
L 205.938472 202.088154 
L 205.938472 201.563906 
L 206.068779 201.563906 
L 206.126815 199.991163 
L 206.267986 199.991163 
L 206.267986 199.466915 
L 206.678688 199.466915 
L 206.678688 198.41842 
L 206.944103 198.41842 
L 206.944103 196.845677 
L 207.133749 196.845677 
L 207.133749 196.321429 
L 207.299009 196.321429 
L 207.299009 195.797181 
L 207.491039 195.797181 
L 207.491039 194.224438 
L 207.968389 194.224438 
L 207.968389 193.175943 
L 208.625837 193.175943 
L 208.66374 190.554704 
L 209.410336 190.554704 
L 209.410336 189.506209 
L 209.545518 189.506209 
L 209.545518 188.457713 
L 209.687194 188.457713 
L 209.687194 187.933465 
L 210.015623 187.933465 
L 210.015623 187.409218 
L 210.192623 187.409218 
L 210.23432 184.787979 
L 210.351107 184.787979 
L 210.412165 183.739484 
L 210.71963 183.739484 
L 210.785618 182.16674 
L 211.182193 182.16674 
L 211.182193 181.118245 
L 211.295656 181.118245 
L 211.356571 180.06975 
L 211.41148 180.06975 
L 211.507201 178.497006 
L 211.541933 178.497006 
L 211.541933 177.972759 
L 211.837892 177.972759 
L 211.837892 176.924263 
L 211.977379 176.924263 
L 211.977379 175.875768 
L 212.098659 175.875768 
L 212.098659 175.35152 
L 212.225207 175.35152 
L 212.248869 172.730281 
L 212.416521 172.730281 
L 212.416912 170.109043 
L 212.705416 170.109043 
L 212.774929 166.963557 
L 212.963284 166.963557 
L 212.963284 166.439309 
L 213.07877 166.439309 
L 213.07877 165.915061 
L 213.21101 165.915061 
L 213.21101 165.390813 
L 213.557239 165.390813 
L 213.644126 164.342318 
L 213.814617 164.342318 
L 213.871552 162.245327 
L 213.949018 162.245327 
L 213.949018 161.721079 
L 214.315307 161.721079 
L 214.315307 160.672584 
L 214.426781 160.672584 
L 214.426781 159.624089 
L 215.135936 159.624089 
L 215.153753 158.575593 
L 215.294807 158.575593 
L 215.365149 157.527098 
L 215.415546 157.527098 
L 215.415546 157.00285 
L 215.763766 157.00285 
L 215.763766 156.478602 
L 216.005105 156.478602 
L 216.005105 155.954354 
L 216.504343 155.954354 
L 216.504343 155.430107 
L 217.028351 155.430107 
L 217.028351 154.905859 
L 217.929678 154.905859 
L 217.929678 154.381611 
L 218.342364 154.381611 
L 218.342364 153.857364 
L 220.067006 153.857364 
L 220.067006 153.333116 
L 220.214476 153.333116 
L 220.214476 152.808868 
L 220.338173 152.808868 
L 220.338173 152.28462 
L 220.897837 152.28462 
L 221.008091 151.236125 
L 221.756507 151.236125 
L 221.756507 150.18763 
L 222.238616 150.18763 
L 222.238616 149.139134 
L 222.482416 149.139134 
L 222.482416 148.614886 
L 222.723454 148.614886 
L 222.723454 148.090639 
L 223.325395 148.090639 
L 223.403262 147.042143 
L 223.797569 147.042143 
L 223.797569 146.517896 
L 223.925289 146.517896 
L 223.925289 145.4694 
L 224.23417 145.4694 
L 224.23417 144.945152 
L 224.375848 144.945152 
L 224.471109 143.896657 
L 224.87924 143.896657 
L 224.972325 141.275418 
L 225.311146 141.275418 
L 225.311146 140.751171 
L 225.459261 140.751171 
L 225.562816 139.178427 
L 225.628128 139.178427 
L 225.628128 138.65418 
L 225.772743 138.65418 
L 225.772743 138.129932 
L 226.128611 138.129932 
L 226.128611 137.605684 
L 226.281043 137.605684 
L 226.3751 136.557189 
L 226.409137 136.557189 
L 226.409137 135.508693 
L 227.144541 135.508693 
L 227.144541 134.984446 
L 227.633199 134.984446 
L 227.633199 134.460198 
L 228.806965 134.460198 
L 228.806965 133.93595 
L 230.466458 133.93595 
L 230.466458 133.411703 
L 230.79585 133.411703 
L 230.79585 132.887455 
L 231.507273 132.887455 
L 231.507273 132.363207 
L 231.769163 132.363207 
L 231.769163 131.838959 
L 232.03923 131.838959 
L 232.03923 131.314712 
L 232.290438 131.314712 
L 232.290438 130.790464 
L 232.475752 130.790464 
L 232.475752 130.266216 
L 232.796264 130.266216 
L 232.880992 129.217721 
L 232.926548 129.217721 
L 232.926548 128.693473 
L 233.039147 128.693473 
L 233.039147 128.169225 
L 233.247221 128.169225 
L 233.247221 127.644978 
L 233.418244 127.644978 
L 233.418244 127.12073 
L 234.835739 127.12073 
L 234.835739 126.596482 
L 238.017183 126.596482 
L 238.017183 126.072235 
L 238.18317 126.072235 
L 238.245032 124.499491 
L 241.639789 124.499491 
L 241.639789 123.975244 
L 241.86352 123.975244 
L 241.86352 123.450996 
L 242.122117 123.450996 
L 242.122117 122.926748 
L 242.233427 122.926748 
L 242.233427 122.4025 
L 244.238334 122.4025 
L 244.238334 121.878253 
L 247.9543 121.878253 
L 248.039834 120.30551 
L 252.201877 120.30551 
L 252.201877 119.781262 
L 252.363821 119.781262 
L 252.363821 119.257014 
L 257.197602 119.257014 
L 257.197602 118.732766 
L 257.318878 118.732766 
L 257.318878 118.208519 
L 279.276344 118.208519 
L 279.276344 117.684271 
L 279.672276 117.684271 
L 279.672276 117.160023 
L 288.854657 117.160023 
L 288.854657 116.635776 
L 333.429677 116.635776 
L 333.429677 116.635776 
" style="fill:none;stroke:#ffa500;stroke-linecap:square;stroke-width:1.5;"/>
   </g>
   <g id="line2d_40">
    <defs>
     <path d="M 0 -6 
L -1.347084 -1.854102 
L -5.706339 -1.854102 
L -2.179628 0.708204 
L -3.526712 4.854102 
L -0 2.291796 
L 3.526712 4.854102 
L 2.179628 0.708204 
L 5.706339 -1.854102 
L 1.347084 -1.854102 
z
" id="mb765f07a08" style="stroke:#ffa500;stroke-linejoin:bevel;stroke-width:1.5;"/>
    </defs>
    <g>
     <use style="fill-opacity:0;stroke:#ffa500;stroke-linejoin:bevel;stroke-width:1.5;" x="177.837971" xlink:href="#mb765f07a08" y="242.979476"/>
     <use style="fill-opacity:0;stroke:#ffa500;stroke-linejoin:bevel;stroke-width:1.5;" x="232.475752" xlink:href="#mb765f07a08" y="130.266216"/>
     <use style="fill-opacity:0;stroke:#ffa500;stroke-linejoin:bevel;stroke-width:1.5;" x="288.854657" xlink:href="#mb765f07a08" y="116.635776"/>
     <use style="fill-opacity:0;stroke:#ffa500;stroke-linejoin:bevel;stroke-width:1.5;" x="288.854657" xlink:href="#mb765f07a08" y="116.635776"/>
     <use style="fill-opacity:0;stroke:#ffa500;stroke-linejoin:bevel;stroke-width:1.5;" x="333.429677" xlink:href="#mb765f07a08" y="116.635776"/>
    </g>
   </g>
   <g id="line2d_41">
    <path style="fill:none;stroke:#ffa500;stroke-linecap:square;stroke-width:1.5;"/>
    <g/>
   </g>
   <g id="line2d_42">
    <path clip-path="url(#p31e08af85a)" d="M 214.582845 159.624089 
" style="fill:none;stroke:#ffa500;stroke-linecap:square;stroke-width:1.5;"/>
    <defs>
     <path d="M -12 12 
L 12 -12 
M -12 -12 
L 12 12 
" id="m8cb1884316" style="stroke:#ffa500;stroke-width:3;"/>
    </defs>
    <g clip-path="url(#p31e08af85a)">
     <use style="fill:#ffa500;stroke:#ffa500;stroke-width:3;" x="214.582845" xlink:href="#m8cb1884316" y="159.624089"/>
    </g>
   </g>
   <g id="line2d_43">
    <defs>
     <path d="M 0 1.5 
C 0.397805 1.5 0.77937 1.341951 1.06066 1.06066 
C 1.341951 0.77937 1.5 0.397805 1.5 0 
C 1.5 -0.397805 1.341951 -0.77937 1.06066 -1.06066 
C 0.77937 -1.341951 0.397805 -1.5 0 -1.5 
C -0.397805 -1.5 -0.77937 -1.341951 -1.06066 -1.06066 
C -1.341951 -0.77937 -1.5 -0.397805 -1.5 0 
C -1.5 0.397805 -1.341951 0.77937 -1.06066 1.06066 
C -0.77937 1.341951 -0.397805 1.5 0 1.5 
z
" id="mf12584d61b" style="stroke:#6495ed;"/>
    </defs>
    <g>
     <use style="fill:#6495ed;stroke:#6495ed;" x="16.504332" xlink:href="#mf12584d61b" y="284.395046"/>
     <use style="fill:#6495ed;stroke:#6495ed;" x="16.504332" xlink:href="#mf12584d61b" y="284.395046"/>
    </g>
   </g>
   <g id="line2d_44">
    <path d="M 16.504332 294.88 
L 16.504332 284.395046 
L 333.429677 284.395046 
" style="fill:none;stroke:#6495ed;stroke-linecap:square;stroke-width:1.5;"/>
   </g>
   <g id="line2d_45">
    <defs>
     <path d="M -0 6 
L 6 -6 
L -6 -6 
z
" id="m78381839b4" style="stroke:#6495ed;stroke-linejoin:miter;stroke-width:1.5;"/>
    </defs>
    <g>
     <use style="fill-opacity:0;stroke:#6495ed;stroke-linejoin:miter;stroke-width:1.5;" x="333.429677" xlink:href="#m78381839b4" y="284.395046"/>
    </g>
   </g>
   <g id="line2d_46">
    <path style="fill:none;stroke:#6495ed;stroke-linecap:square;stroke-width:1.5;"/>
    <g/>
   </g>
   <g id="line2d_47">
    <path clip-path="url(#p31e08af85a)" d="M 80.395842 284.395046 
" style="fill:none;stroke:#6495ed;stroke-linecap:square;stroke-width:1.5;"/>
    <defs>
     <path d="M -12 12 
L 12 -12 
M -12 -12 
L 12 12 
" id="md7a2f32528" style="stroke:#6495ed;stroke-width:3;"/>
    </defs>
    <g clip-path="url(#p31e08af85a)">
     <use style="fill:#6495ed;stroke:#6495ed;stroke-width:3;" x="80.395842" xlink:href="#md7a2f32528" y="284.395046"/>
    </g>
   </g>
   <g id="line2d_48">
    <path d="M 333.429677 284.395046 
L 363.933742 289.532673 
" style="fill:none;stroke:#6495ed;stroke-linecap:square;stroke-width:1.5;"/>
    <g>
     <use style="fill-opacity:0;stroke:#6495ed;stroke-linejoin:miter;stroke-width:1.5;" x="333.429677" xlink:href="#m78381839b4" y="284.395046"/>
     <use style="fill-opacity:0;stroke:#6495ed;stroke-linejoin:miter;stroke-width:1.5;" x="363.933742" xlink:href="#m78381839b4" y="289.532673"/>
    </g>
   </g>
   <g id="line2d_49">
    <path d="M 333.429677 258.18266 
L 363.933742 225.364752 
" style="fill:none;stroke:#ff00ff;stroke-linecap:square;stroke-width:1.5;"/>
    <g>
     <use style="fill-opacity:0;stroke:#ff00ff;stroke-linejoin:miter;stroke-width:1.5;" x="333.429677" xlink:href="#m833402167a" y="258.18266"/>
     <use style="fill-opacity:0;stroke:#ff00ff;stroke-linejoin:miter;stroke-width:1.5;" x="363.933742" xlink:href="#m833402167a" y="225.364752"/>
    </g>
   </g>
   <g id="line2d_50">
    <path d="M 333.429677 116.635776 
L 363.933742 161.196832 
" style="fill:none;stroke:#ffa500;stroke-linecap:square;stroke-width:1.5;"/>
    <g>
     <use style="fill-opacity:0;stroke:#ffa500;stroke-linejoin:bevel;stroke-width:1.5;" x="333.429677" xlink:href="#mb765f07a08" y="116.635776"/>
     <use style="fill-opacity:0;stroke:#ffa500;stroke-linejoin:bevel;stroke-width:1.5;" x="363.933742" xlink:href="#mb765f07a08" y="161.196832"/>
    </g>
   </g>
   <g id="line2d_51">
    <path d="M 333.429677 27.513663 
L 363.933742 97.028911 
" style="fill:none;stroke:#000080;stroke-linecap:square;stroke-width:1.5;"/>
    <g>
     <use style="fill-opacity:0;stroke:#000080;stroke-width:1.5;" x="333.429677" xlink:href="#m23ef5cd222" y="27.513663"/>
     <use style="fill-opacity:0;stroke:#000080;stroke-width:1.5;" x="363.933742" xlink:href="#m23ef5cd222" y="97.028911"/>
    </g>
   </g>
   <g id="line2d_52">
    <path d="M 333.429677 294.88 
L 333.429677 27.513663 
" style="fill:none;stroke:#000000;stroke-linecap:square;stroke-width:1.5;"/>
   </g>
   <g id="patch_3">
    <path d="M 56.12 294.88 
L 56.12 24.84 
" style="fill:none;stroke:#000000;stroke-linecap:square;stroke-linejoin:miter;stroke-width:0.8;"/>
   </g>
   <g id="patch_4">
    <path d="M 399.984 294.88 
L 399.984 24.84 
" style="fill:none;stroke:#000000;stroke-linecap:square;stroke-linejoin:miter;stroke-width:0.8;"/>
   </g>
   <g id="patch_5">
    <path d="M 56.12 294.88 
L 399.984 294.88 
" style="fill:none;stroke:#000000;stroke-linecap:square;stroke-linejoin:miter;stroke-width:0.8;"/>
   </g>
   <g id="patch_6">
    <path d="M 56.12 24.84 
L 399.984 24.84 
" style="fill:none;stroke:#000000;stroke-linecap:square;stroke-linejoin:miter;stroke-width:0.8;"/>
   </g>
   <g id="text_14">
    <!-- hybrid -->
    <defs>
     <path d="M 54.890625 33.015625 
L 54.890625 0 
L 45.90625 0 
L 45.90625 32.71875 
Q 45.90625 40.484375 42.875 44.328125 
Q 39.84375 48.1875 33.796875 48.1875 
Q 26.515625 48.1875 22.3125 43.546875 
Q 18.109375 38.921875 18.109375 30.90625 
L 18.109375 0 
L 9.078125 0 
L 9.078125 75.984375 
L 18.109375 75.984375 
L 18.109375 46.1875 
Q 21.34375 51.125 25.703125 53.5625 
Q 30.078125 56 35.796875 56 
Q 45.21875 56 50.046875 50.171875 
Q 54.890625 44.34375 54.890625 33.015625 
z
" id="DejaVuSans-68"/>
     <path d="M 32.171875 -5.078125 
Q 28.375 -14.84375 24.75 -17.8125 
Q 21.140625 -20.796875 15.09375 -20.796875 
L 7.90625 -20.796875 
L 7.90625 -13.28125 
L 13.1875 -13.28125 
Q 16.890625 -13.28125 18.9375 -11.515625 
Q 21 -9.765625 23.484375 -3.21875 
L 25.09375 0.875 
L 2.984375 54.6875 
L 12.5 54.6875 
L 29.59375 11.921875 
L 46.6875 54.6875 
L 56.203125 54.6875 
z
" id="DejaVuSans-79"/>
     <path d="M 48.6875 27.296875 
Q 48.6875 37.203125 44.609375 42.84375 
Q 40.53125 48.484375 33.40625 48.484375 
Q 26.265625 48.484375 22.1875 42.84375 
Q 18.109375 37.203125 18.109375 27.296875 
Q 18.109375 17.390625 22.1875 11.75 
Q 26.265625 6.109375 33.40625 6.109375 
Q 40.53125 6.109375 44.609375 11.75 
Q 48.6875 17.390625 48.6875 27.296875 
z
M 18.109375 46.390625 
Q 20.953125 51.265625 25.265625 53.625 
Q 29.59375 56 35.59375 56 
Q 45.5625 56 51.78125 48.09375 
Q 58.015625 40.1875 58.015625 27.296875 
Q 58.015625 14.40625 51.78125 6.484375 
Q 45.5625 -1.421875 35.59375 -1.421875 
Q 29.59375 -1.421875 25.265625 0.953125 
Q 20.953125 3.328125 18.109375 8.203125 
L 18.109375 0 
L 9.078125 0 
L 9.078125 75.984375 
L 18.109375 75.984375 
z
" id="DejaVuSans-62"/>
    </defs>
    <g transform="translate(369.479935 294.223611)scale(0.17 -0.17)">
     <use xlink:href="#DejaVuSans-68"/>
     <use x="63.378906" xlink:href="#DejaVuSans-79"/>
     <use x="122.558594" xlink:href="#DejaVuSans-62"/>
     <use x="186.035156" xlink:href="#DejaVuSans-72"/>
     <use x="227.148438" xlink:href="#DejaVuSans-69"/>
     <use x="254.931641" xlink:href="#DejaVuSans-64"/>
    </g>
   </g>
   <g id="text_15">
    <!-- GA -->
    <defs>
     <path d="M 59.515625 10.40625 
L 59.515625 29.984375 
L 43.40625 29.984375 
L 43.40625 38.09375 
L 69.28125 38.09375 
L 69.28125 6.78125 
Q 63.578125 2.734375 56.6875 0.65625 
Q 49.8125 -1.421875 42 -1.421875 
Q 24.90625 -1.421875 15.25 8.5625 
Q 5.609375 18.5625 5.609375 36.375 
Q 5.609375 54.25 15.25 64.234375 
Q 24.90625 74.21875 42 74.21875 
Q 49.125 74.21875 55.546875 72.453125 
Q 61.96875 70.703125 67.390625 67.28125 
L 67.390625 56.78125 
Q 61.921875 61.421875 55.765625 63.765625 
Q 49.609375 66.109375 42.828125 66.109375 
Q 29.4375 66.109375 22.71875 58.640625 
Q 16.015625 51.171875 16.015625 36.375 
Q 16.015625 21.625 22.71875 14.15625 
Q 29.4375 6.6875 42.828125 6.6875 
Q 48.046875 6.6875 52.140625 7.59375 
Q 56.25 8.5 59.515625 10.40625 
z
" id="DejaVuSans-47"/>
     <path d="M 34.1875 63.1875 
L 20.796875 26.90625 
L 47.609375 26.90625 
z
M 28.609375 72.90625 
L 39.796875 72.90625 
L 67.578125 0 
L 57.328125 0 
L 50.6875 18.703125 
L 17.828125 18.703125 
L 11.1875 0 
L 0.78125 0 
z
" id="DejaVuSans-41"/>
    </defs>
    <g transform="translate(369.479935 230.05569)scale(0.17 -0.17)">
     <use xlink:href="#DejaVuSans-47"/>
     <use x="77.490234" xlink:href="#DejaVuSans-41"/>
    </g>
   </g>
   <g id="text_16">
    <!-- Rosenbroc -->
    <defs>
     <path d="M 44.390625 34.1875 
Q 47.5625 33.109375 50.5625 29.59375 
Q 53.5625 26.078125 56.59375 19.921875 
L 66.609375 0 
L 56 0 
L 46.6875 18.703125 
Q 43.0625 26.03125 39.671875 28.421875 
Q 36.28125 30.8125 30.421875 30.8125 
L 19.671875 30.8125 
L 19.671875 0 
L 9.8125 0 
L 9.8125 72.90625 
L 32.078125 72.90625 
Q 44.578125 72.90625 50.734375 67.671875 
Q 56.890625 62.453125 56.890625 51.90625 
Q 56.890625 45.015625 53.6875 40.46875 
Q 50.484375 35.9375 44.390625 34.1875 
z
M 19.671875 64.796875 
L 19.671875 38.921875 
L 32.078125 38.921875 
Q 39.203125 38.921875 42.84375 42.21875 
Q 46.484375 45.515625 46.484375 51.90625 
Q 46.484375 58.296875 42.84375 61.546875 
Q 39.203125 64.796875 32.078125 64.796875 
z
" id="DejaVuSans-52"/>
    </defs>
    <g transform="translate(369.479935 165.887769)scale(0.17 -0.17)">
     <use xlink:href="#DejaVuSans-52"/>
     <use x="69.419922" xlink:href="#DejaVuSans-6f"/>
     <use x="130.601562" xlink:href="#DejaVuSans-73"/>
     <use x="182.701172" xlink:href="#DejaVuSans-65"/>
     <use x="244.224609" xlink:href="#DejaVuSans-6e"/>
     <use x="307.603516" xlink:href="#DejaVuSans-62"/>
     <use x="371.080078" xlink:href="#DejaVuSans-72"/>
     <use x="412.162109" xlink:href="#DejaVuSans-6f"/>
     <use x="473.34375" xlink:href="#DejaVuSans-63"/>
    </g>
   </g>
   <g id="text_17">
    <!-- DASA -->
    <defs>
     <path d="M 19.671875 64.796875 
L 19.671875 8.109375 
L 31.59375 8.109375 
Q 46.6875 8.109375 53.6875 14.9375 
Q 60.6875 21.78125 60.6875 36.53125 
Q 60.6875 51.171875 53.6875 57.984375 
Q 46.6875 64.796875 31.59375 64.796875 
z
M 9.8125 72.90625 
L 30.078125 72.90625 
Q 51.265625 72.90625 61.171875 64.09375 
Q 71.09375 55.28125 71.09375 36.53125 
Q 71.09375 17.671875 61.125 8.828125 
Q 51.171875 0 30.078125 0 
L 9.8125 0 
z
" id="DejaVuSans-44"/>
     <path d="M 53.515625 70.515625 
L 53.515625 60.890625 
Q 47.90625 63.578125 42.921875 64.890625 
Q 37.9375 66.21875 33.296875 66.21875 
Q 25.25 66.21875 20.875 63.09375 
Q 16.5 59.96875 16.5 54.203125 
Q 16.5 49.359375 19.40625 46.890625 
Q 22.3125 44.4375 30.421875 42.921875 
L 36.375 41.703125 
Q 47.40625 39.59375 52.65625 34.296875 
Q 57.90625 29 57.90625 20.125 
Q 57.90625 9.515625 50.796875 4.046875 
Q 43.703125 -1.421875 29.984375 -1.421875 
Q 24.8125 -1.421875 18.96875 -0.25 
Q 13.140625 0.921875 6.890625 3.21875 
L 6.890625 13.375 
Q 12.890625 10.015625 18.65625 8.296875 
Q 24.421875 6.59375 29.984375 6.59375 
Q 38.421875 6.59375 43.015625 9.90625 
Q 47.609375 13.234375 47.609375 19.390625 
Q 47.609375 24.75 44.3125 27.78125 
Q 41.015625 30.8125 33.5 32.328125 
L 27.484375 33.5 
Q 16.453125 35.6875 11.515625 40.375 
Q 6.59375 45.0625 6.59375 53.421875 
Q 6.59375 63.09375 13.40625 68.65625 
Q 20.21875 74.21875 32.171875 74.21875 
Q 37.3125 74.21875 42.625 73.28125 
Q 47.953125 72.359375 53.515625 70.515625 
z
" id="DejaVuSans-53"/>
    </defs>
    <g transform="translate(369.479935 101.719848)scale(0.17 -0.17)">
     <use xlink:href="#DejaVuSans-44"/>
     <use x="76.986328" xlink:href="#DejaVuSans-41"/>
     <use x="145.394531" xlink:href="#DejaVuSans-53"/>
     <use x="208.886719" xlink:href="#DejaVuSans-41"/>
    </g>
   </g>
   <g id="text_18">
    <!-- best 2009 -->
    <defs>
     <path d="M 10.984375 1.515625 
L 10.984375 10.5 
Q 14.703125 8.734375 18.5 7.8125 
Q 22.3125 6.890625 25.984375 6.890625 
Q 35.75 6.890625 40.890625 13.453125 
Q 46.046875 20.015625 46.78125 33.40625 
Q 43.953125 29.203125 39.59375 26.953125 
Q 35.25 24.703125 29.984375 24.703125 
Q 19.046875 24.703125 12.671875 31.3125 
Q 6.296875 37.9375 6.296875 49.421875 
Q 6.296875 60.640625 12.9375 67.421875 
Q 19.578125 74.21875 30.609375 74.21875 
Q 43.265625 74.21875 49.921875 64.515625 
Q 56.59375 54.828125 56.59375 36.375 
Q 56.59375 19.140625 48.40625 8.859375 
Q 40.234375 -1.421875 26.421875 -1.421875 
Q 22.703125 -1.421875 18.890625 -0.6875 
Q 15.09375 0.046875 10.984375 1.515625 
z
M 30.609375 32.421875 
Q 37.25 32.421875 41.125 36.953125 
Q 45.015625 41.5 45.015625 49.421875 
Q 45.015625 57.28125 41.125 61.84375 
Q 37.25 66.40625 30.609375 66.40625 
Q 23.96875 66.40625 20.09375 61.84375 
Q 16.21875 57.28125 16.21875 49.421875 
Q 16.21875 41.5 20.09375 36.953125 
Q 23.96875 32.421875 30.609375 32.421875 
z
" id="DejaVuSans-39"/>
    </defs>
    <g transform="translate(369.479935 37.551928)scale(0.17 -0.17)">
     <use xlink:href="#DejaVuSans-62"/>
     <use x="63.476562" xlink:href="#DejaVuSans-65"/>
     <use x="125" xlink:href="#DejaVuSans-73"/>
     <use x="177.099609" xlink:href="#DejaVuSans-74"/>
     <use x="216.308594" xlink:href="#DejaVuSans-20"/>
     <use x="248.095703" xlink:href="#DejaVuSans-32"/>
     <use x="311.71875" xlink:href="#DejaVuSans-30"/>
     <use x="375.341797" xlink:href="#DejaVuSans-30"/>
     <use x="438.964844" xlink:href="#DejaVuSans-39"/>
    </g>
   </g>
   <g id="text_19">
    <!-- bbob f9, 10-D -->
    <g transform="translate(59.55864 35.290806)scale(0.102 -0.102)">
     <use xlink:href="#DejaVuSans-62"/>
     <use x="63.476562" xlink:href="#DejaVuSans-62"/>
     <use x="126.953125" xlink:href="#DejaVuSans-6f"/>
     <use x="188.134766" xlink:href="#DejaVuSans-62"/>
     <use x="251.611328" xlink:href="#DejaVuSans-20"/>
     <use x="283.398438" xlink:href="#DejaVuSans-66"/>
     <use x="318.603516" xlink:href="#DejaVuSans-39"/>
     <use x="382.226562" xlink:href="#DejaVuSans-2c"/>
     <use x="414.013672" xlink:href="#DejaVuSans-20"/>
     <use x="445.800781" xlink:href="#DejaVuSans-31"/>
     <use x="509.423828" xlink:href="#DejaVuSans-30"/>
     <use x="573.046875" xlink:href="#DejaVuSans-2d"/>
     <use x="609.130859" xlink:href="#DejaVuSans-44"/>
    </g>
    <!-- 51 targets: 100..1e-08 -->
    <defs>
     <path d="M 10.796875 72.90625 
L 49.515625 72.90625 
L 49.515625 64.59375 
L 19.828125 64.59375 
L 19.828125 46.734375 
Q 21.96875 47.46875 24.109375 47.828125 
Q 26.265625 48.1875 28.421875 48.1875 
Q 40.625 48.1875 47.75 41.5 
Q 54.890625 34.8125 54.890625 23.390625 
Q 54.890625 11.625 47.5625 5.09375 
Q 40.234375 -1.421875 26.90625 -1.421875 
Q 22.3125 -1.421875 17.546875 -0.640625 
Q 12.796875 0.140625 7.71875 1.703125 
L 7.71875 11.625 
Q 12.109375 9.234375 16.796875 8.0625 
Q 21.484375 6.890625 26.703125 6.890625 
Q 35.15625 6.890625 40.078125 11.328125 
Q 45.015625 15.765625 45.015625 23.390625 
Q 45.015625 31 40.078125 35.4375 
Q 35.15625 39.890625 26.703125 39.890625 
Q 22.75 39.890625 18.8125 39.015625 
Q 14.890625 38.140625 10.796875 36.28125 
z
" id="DejaVuSans-35"/>
     <path d="M 11.71875 12.40625 
L 22.015625 12.40625 
L 22.015625 0 
L 11.71875 0 
z
M 11.71875 51.703125 
L 22.015625 51.703125 
L 22.015625 39.3125 
L 11.71875 39.3125 
z
" id="DejaVuSans-3a"/>
    </defs>
    <g transform="translate(59.55864 46.712575)scale(0.102 -0.102)">
     <use xlink:href="#DejaVuSans-35"/>
     <use x="63.623047" xlink:href="#DejaVuSans-31"/>
     <use x="127.246094" xlink:href="#DejaVuSans-20"/>
     <use x="159.033203" xlink:href="#DejaVuSans-74"/>
     <use x="198.242188" xlink:href="#DejaVuSans-61"/>
     <use x="259.521484" xlink:href="#DejaVuSans-72"/>
     <use x="300.619141" xlink:href="#DejaVuSans-67"/>
     <use x="364.095703" xlink:href="#DejaVuSans-65"/>
     <use x="425.619141" xlink:href="#DejaVuSans-74"/>
     <use x="464.828125" xlink:href="#DejaVuSans-73"/>
     <use x="516.927734" xlink:href="#DejaVuSans-3a"/>
     <use x="550.619141" xlink:href="#DejaVuSans-20"/>
     <use x="582.40625" xlink:href="#DejaVuSans-31"/>
     <use x="646.029297" xlink:href="#DejaVuSans-30"/>
     <use x="709.652344" xlink:href="#DejaVuSans-30"/>
     <use x="773.275391" xlink:href="#DejaVuSans-2e"/>
     <use x="805.0625" xlink:href="#DejaVuSans-2e"/>
     <use x="836.849609" xlink:href="#DejaVuSans-31"/>
     <use x="900.472656" xlink:href="#DejaVuSans-65"/>
     <use x="961.996094" xlink:href="#DejaVuSans-2d"/>
     <use x="998.080078" xlink:href="#DejaVuSans-30"/>
     <use x="1061.703125" xlink:href="#DejaVuSans-38"/>
    </g>
    <!-- 15 instances -->
    <g transform="translate(59.55864 58.134344)scale(0.102 -0.102)">
     <use xlink:href="#DejaVuSans-31"/>
     <use x="63.623047" xlink:href="#DejaVuSans-35"/>
     <use x="127.246094" xlink:href="#DejaVuSans-20"/>
     <use x="159.033203" xlink:href="#DejaVuSans-69"/>
     <use x="186.816406" xlink:href="#DejaVuSans-6e"/>
     <use x="250.195312" xlink:href="#DejaVuSans-73"/>
     <use x="302.294922" xlink:href="#DejaVuSans-74"/>
     <use x="341.503906" xlink:href="#DejaVuSans-61"/>
     <use x="402.783203" xlink:href="#DejaVuSans-6e"/>
     <use x="466.162109" xlink:href="#DejaVuSans-63"/>
     <use x="521.142578" xlink:href="#DejaVuSans-65"/>
     <use x="582.666016" xlink:href="#DejaVuSans-73"/>
    </g>
   </g>
   <g id="text_20">
    <!-- v-coco-version -->
    <g style="fill:#808080;" transform="translate(191.556688 290.099912)scale(0.1 -0.1)">
     <use xlink:href="#DejaVuSans-76"/>
     <use x="59.148438" xlink:href="#DejaVuSans-2d"/>
     <use x="95.232422" xlink:href="#DejaVuSans-63"/>
     <use x="150.212891" xlink:href="#DejaVuSans-6f"/>
     <use x="211.394531" xlink:href="#DejaVuSans-63"/>
     <use x="266.375" xlink:href="#DejaVuSans-6f"/>
     <use x="327.572266" xlink:href="#DejaVuSans-2d"/>
     <use x="363.625" xlink:href="#DejaVuSans-76"/>
     <use x="422.804688" xlink:href="#DejaVuSans-65"/>
     <use x="484.328125" xlink:href="#DejaVuSans-72"/>
     <use x="525.441406" xlink:href="#DejaVuSans-73"/>
     <use x="577.541016" xlink:href="#DejaVuSans-69"/>
     <use x="605.324219" xlink:href="#DejaVuSans-6f"/>
     <use x="666.505859" xlink:href="#DejaVuSans-6e"/>
    </g>
   </g>
   <g id="text_21">
    <!-- 9 Rosenbrock rotated -->
    <defs>
     <path d="M 9.078125 75.984375 
L 18.109375 75.984375 
L 18.109375 31.109375 
L 44.921875 54.6875 
L 56.390625 54.6875 
L 27.390625 29.109375 
L 57.625 0 
L 45.90625 0 
L 18.109375 26.703125 
L 18.109375 0 
L 9.078125 0 
z
" id="DejaVuSans-6b"/>
    </defs>
    <g transform="translate(120.011375 18.84)scale(0.2 -0.2)">
     <use xlink:href="#DejaVuSans-39"/>
     <use x="63.623047" xlink:href="#DejaVuSans-20"/>
     <use x="95.410156" xlink:href="#DejaVuSans-52"/>
     <use x="164.830078" xlink:href="#DejaVuSans-6f"/>
     <use x="226.011719" xlink:href="#DejaVuSans-73"/>
     <use x="278.111328" xlink:href="#DejaVuSans-65"/>
     <use x="339.634766" xlink:href="#DejaVuSans-6e"/>
     <use x="403.013672" xlink:href="#DejaVuSans-62"/>
     <use x="466.490234" xlink:href="#DejaVuSans-72"/>
     <use x="507.572266" xlink:href="#DejaVuSans-6f"/>
     <use x="568.753906" xlink:href="#DejaVuSans-63"/>
     <use x="623.734375" xlink:href="#DejaVuSans-6b"/>
     <use x="681.644531" xlink:href="#DejaVuSans-20"/>
     <use x="713.431641" xlink:href="#DejaVuSans-72"/>
     <use x="754.513672" xlink:href="#DejaVuSans-6f"/>
     <use x="815.695312" xlink:href="#DejaVuSans-74"/>
     <use x="854.904297" xlink:href="#DejaVuSans-61"/>
     <use x="916.183594" xlink:href="#DejaVuSans-74"/>
     <use x="955.392578" xlink:href="#DejaVuSans-65"/>
     <use x="1016.916016" xlink:href="#DejaVuSans-64"/>
    </g>
   </g>
  </g>
 </g>
 <defs>
  <clipPath id="p31e08af85a">
   <rect height="270.04" width="343.864" x="56.12" y="24.84"/>
  </clipPath>
 </defs>
</svg>
