<?xml version="1.0" encoding="utf-8" standalone="no"?>
<!DOCTYPE svg PUBLIC "-//W3C//DTD SVG 1.1//EN"
  "http://www.w3.org/Graphics/SVG/1.1/DTD/svg11.dtd">
<!-- Created with matplotlib (http://matplotlib.org/) -->
<svg height="345.6pt" version="1.1" viewBox="0 0 460.8 345.6" width="460.8pt" xmlns="http://www.w3.org/2000/svg" xmlns:xlink="http://www.w3.org/1999/xlink">
 <defs>
  <style type="text/css">
*{stroke-linecap:butt;stroke-linejoin:round;}
  </style>
 </defs>
 <g id="figure_1">
  <g id="patch_1">
   <path d="M 0 345.6 
L 460.8 345.6 
L 460.8 0 
L 0 0 
z
" style="fill:#ffffff;"/>
  </g>
  <g id="axes_1">
   <g id="patch_2">
    <path d="M 56.12 294.88 
L 399.984 294.88 
L 399.984 24.84 
L 56.12 24.84 
z
" style="fill:#ffffff;"/>
   </g>
   <g id="line2d_1">
    <path d="M 4.578827 294.88 
L 4.578827 284.395046 
L 23.480305 284.395046 
L 23.480305 279.152568 
L 51.170468 279.152568 
L 51.170468 273.910091 
L 68.884933 273.910091 
L 68.884933 268.667614 
L 78.860632 268.667614 
L 78.860632 263.425137 
L 86.214749 263.425137 
L 86.214749 258.18266 
L 92.321346 258.18266 
L 92.321346 252.940182 
L 95.122707 252.940182 
L 95.122707 247.697705 
L 97.297085 247.697705 
L 97.297085 242.455228 
L 98.800649 242.455228 
L 98.800649 237.212751 
L 99.847922 237.212751 
L 99.847922 231.970274 
L 100.706692 231.970274 
L 100.706692 226.727797 
L 101.401295 226.727797 
L 101.401295 221.485319 
L 102.246616 221.485319 
L 102.246616 216.242842 
L 102.939523 216.242842 
L 102.939523 211.000365 
L 104.035746 211.000365 
L 104.035746 205.757888 
L 105.461817 205.757888 
L 105.461817 200.515411 
L 107.003582 200.515411 
L 107.003582 195.272933 
L 108.253045 195.272933 
L 108.253045 190.030456 
L 109.725805 190.030456 
L 109.725805 184.787979 
L 111.465883 184.787979 
L 111.465883 179.545502 
L 114.347981 179.545502 
L 114.347981 174.303025 
L 117.066648 174.303025 
L 117.066648 169.060547 
L 119.629636 169.060547 
L 119.629636 163.81807 
L 122.214223 163.81807 
L 122.214223 158.575593 
L 125.159221 158.575593 
L 125.159221 153.333116 
L 126.097625 153.333116 
L 126.097625 148.090639 
L 126.818807 148.090639 
L 126.818807 142.848162 
L 127.578679 142.848162 
L 127.578679 137.605684 
L 128.345229 137.605684 
L 128.345229 132.363207 
L 129.054286 132.363207 
L 129.054286 127.12073 
L 129.877758 127.12073 
L 129.877758 121.878253 
L 130.731258 121.878253 
L 130.731258 116.635776 
L 131.328402 116.635776 
L 131.328402 111.393298 
L 132.020737 111.393298 
L 132.020737 106.150821 
L 132.905841 106.150821 
L 132.905841 100.908344 
L 147.341238 100.908344 
L 147.341238 95.665867 
L 166.244144 95.665867 
L 166.244144 90.42339 
L 167.406573 90.42339 
L 167.406573 85.180912 
L 168.026695 85.180912 
L 168.026695 79.938435 
L 168.64637 79.938435 
L 168.64637 74.695958 
L 169.155492 74.695958 
L 169.155492 69.453481 
L 169.692111 69.453481 
L 169.692111 64.211004 
L 170.254408 64.211004 
L 170.254408 58.968526 
L 170.759404 58.968526 
L 170.759404 53.726049 
L 171.215799 53.726049 
L 171.215799 48.483572 
L 171.764338 48.483572 
L 171.764338 43.241095 
L 172.150635 43.241095 
L 172.150635 37.998618 
L 172.593746 37.998618 
L 172.593746 32.756141 
L 173.029583 32.756141 
L 173.029583 27.513663 
L 333.429677 27.513663 
" style="fill:none;stroke:#f5deb3;stroke-linecap:square;stroke-width:6;"/>
   </g>
   <g id="line2d_2">
    <defs>
     <path d="M -0 7.778175 
L 7.778175 0 
L 0 -7.778175 
L -7.778175 -0 
z
" id="md8c205439c" style="stroke:#f5deb3;stroke-linejoin:miter;stroke-width:1.5;"/>
    </defs>
    <g>
     <use style="fill:#f5deb3;stroke:#f5deb3;stroke-linejoin:miter;stroke-width:1.5;" x="68.884933" xlink:href="#md8c205439c" y="273.910091"/>
     <use style="fill:#f5deb3;stroke:#f5deb3;stroke-linejoin:miter;stroke-width:1.5;" x="114.347981" xlink:href="#md8c205439c" y="174.303025"/>
     <use style="fill:#f5deb3;stroke:#f5deb3;stroke-linejoin:miter;stroke-width:1.5;" x="168.64637" xlink:href="#md8c205439c" y="79.938435"/>
     <use style="fill:#f5deb3;stroke:#f5deb3;stroke-linejoin:miter;stroke-width:1.5;" x="173.029583" xlink:href="#md8c205439c" y="27.513663"/>
     <use style="fill:#f5deb3;stroke:#f5deb3;stroke-linejoin:miter;stroke-width:1.5;" x="173.029583" xlink:href="#md8c205439c" y="27.513663"/>
     <use style="fill:#f5deb3;stroke:#f5deb3;stroke-linejoin:miter;stroke-width:1.5;" x="333.429677" xlink:href="#md8c205439c" y="27.513663"/>
    </g>
   </g>
   <g id="line2d_3">
    <path style="fill:none;stroke:#f5deb3;stroke-linecap:square;stroke-width:6;"/>
    <g/>
   </g>
   <g id="line2d_4">
    <path d="M 333.429677 27.513663 
L 363.933742 32.86099 
" style="fill:none;stroke:#f5deb3;stroke-linecap:square;stroke-width:6;"/>
    <g>
     <use style="fill:#f5deb3;stroke:#f5deb3;stroke-linejoin:miter;stroke-width:1.5;" x="333.429677" xlink:href="#md8c205439c" y="27.513663"/>
     <use style="fill:#f5deb3;stroke:#f5deb3;stroke-linejoin:miter;stroke-width:1.5;" x="363.933742" xlink:href="#md8c205439c" y="32.86099"/>
    </g>
   </g>
   <g id="matplotlib.axis_1">
    <g id="xtick_1">
     <g id="line2d_5">
      <path clip-path="url(#pfca6690753)" d="M 56.12 294.88 
L 56.12 24.84 
" style="fill:none;stroke:#b0b0b0;stroke-linecap:square;stroke-width:0.8;"/>
     </g>
     <g id="line2d_6">
      <defs>
       <path d="M 0 0 
L 0 3.5 
" id="m1e40aefbdd" style="stroke:#000000;stroke-width:0.8;"/>
      </defs>
      <g>
       <use style="stroke:#000000;stroke-width:0.8;" x="56.12" xlink:href="#m1e40aefbdd" y="294.88"/>
      </g>
     </g>
     <g id="text_1">
      <!-- 0 -->
      <defs>
       <path d="M 31.78125 66.40625 
Q 24.171875 66.40625 20.328125 58.90625 
Q 16.5 51.421875 16.5 36.375 
Q 16.5 21.390625 20.328125 13.890625 
Q 24.171875 6.390625 31.78125 6.390625 
Q 39.453125 6.390625 43.28125 13.890625 
Q 47.125 21.390625 47.125 36.375 
Q 47.125 51.421875 43.28125 58.90625 
Q 39.453125 66.40625 31.78125 66.40625 
z
M 31.78125 74.21875 
Q 44.046875 74.21875 50.515625 64.515625 
Q 56.984375 54.828125 56.984375 36.375 
Q 56.984375 17.96875 50.515625 8.265625 
Q 44.046875 -1.421875 31.78125 -1.421875 
Q 19.53125 -1.421875 13.0625 8.265625 
Q 6.59375 17.96875 6.59375 36.375 
Q 6.59375 54.828125 13.0625 64.515625 
Q 19.53125 74.21875 31.78125 74.21875 
z
" id="DejaVuSans-30"/>
      </defs>
      <g transform="translate(49.7575 317.076875)scale(0.2 -0.2)">
       <use xlink:href="#DejaVuSans-30"/>
      </g>
     </g>
    </g>
    <g id="xtick_2">
     <g id="line2d_7">
      <path clip-path="url(#pfca6690753)" d="M 135.351336 294.88 
L 135.351336 24.84 
" style="fill:none;stroke:#b0b0b0;stroke-linecap:square;stroke-width:0.8;"/>
     </g>
     <g id="line2d_8">
      <g>
       <use style="stroke:#000000;stroke-width:0.8;" x="135.351336" xlink:href="#m1e40aefbdd" y="294.88"/>
      </g>
     </g>
     <g id="text_2">
      <!-- 2 -->
      <defs>
       <path d="M 19.1875 8.296875 
L 53.609375 8.296875 
L 53.609375 0 
L 7.328125 0 
L 7.328125 8.296875 
Q 12.9375 14.109375 22.625 23.890625 
Q 32.328125 33.6875 34.8125 36.53125 
Q 39.546875 41.84375 41.421875 45.53125 
Q 43.3125 49.21875 43.3125 52.78125 
Q 43.3125 58.59375 39.234375 62.25 
Q 35.15625 65.921875 28.609375 65.921875 
Q 23.96875 65.921875 18.8125 64.3125 
Q 13.671875 62.703125 7.8125 59.421875 
L 7.8125 69.390625 
Q 13.765625 71.78125 18.9375 73 
Q 24.125 74.21875 28.421875 74.21875 
Q 39.75 74.21875 46.484375 68.546875 
Q 53.21875 62.890625 53.21875 53.421875 
Q 53.21875 48.921875 51.53125 44.890625 
Q 49.859375 40.875 45.40625 35.40625 
Q 44.1875 33.984375 37.640625 27.21875 
Q 31.109375 20.453125 19.1875 8.296875 
z
" id="DejaVuSans-32"/>
      </defs>
      <g transform="translate(128.988836 317.076875)scale(0.2 -0.2)">
       <use xlink:href="#DejaVuSans-32"/>
      </g>
     </g>
    </g>
    <g id="xtick_3">
     <g id="line2d_9">
      <path clip-path="url(#pfca6690753)" d="M 214.582673 294.88 
L 214.582673 24.84 
" style="fill:none;stroke:#b0b0b0;stroke-linecap:square;stroke-width:0.8;"/>
     </g>
     <g id="line2d_10">
      <g>
       <use style="stroke:#000000;stroke-width:0.8;" x="214.582673" xlink:href="#m1e40aefbdd" y="294.88"/>
      </g>
     </g>
     <g id="text_3">
      <!-- 4 -->
      <defs>
       <path d="M 37.796875 64.3125 
L 12.890625 25.390625 
L 37.796875 25.390625 
z
M 35.203125 72.90625 
L 47.609375 72.90625 
L 47.609375 25.390625 
L 58.015625 25.390625 
L 58.015625 17.1875 
L 47.609375 17.1875 
L 47.609375 0 
L 37.796875 0 
L 37.796875 17.1875 
L 4.890625 17.1875 
L 4.890625 26.703125 
z
" id="DejaVuSans-34"/>
      </defs>
      <g transform="translate(208.220173 317.076875)scale(0.2 -0.2)">
       <use xlink:href="#DejaVuSans-34"/>
      </g>
     </g>
    </g>
    <g id="xtick_4">
     <g id="line2d_11">
      <path clip-path="url(#pfca6690753)" d="M 293.814009 294.88 
L 293.814009 24.84 
" style="fill:none;stroke:#b0b0b0;stroke-linecap:square;stroke-width:0.8;"/>
     </g>
     <g id="line2d_12">
      <g>
       <use style="stroke:#000000;stroke-width:0.8;" x="293.814009" xlink:href="#m1e40aefbdd" y="294.88"/>
      </g>
     </g>
     <g id="text_4">
      <!-- 6 -->
      <defs>
       <path d="M 33.015625 40.375 
Q 26.375 40.375 22.484375 35.828125 
Q 18.609375 31.296875 18.609375 23.390625 
Q 18.609375 15.53125 22.484375 10.953125 
Q 26.375 6.390625 33.015625 6.390625 
Q 39.65625 6.390625 43.53125 10.953125 
Q 47.40625 15.53125 47.40625 23.390625 
Q 47.40625 31.296875 43.53125 35.828125 
Q 39.65625 40.375 33.015625 40.375 
z
M 52.59375 71.296875 
L 52.59375 62.3125 
Q 48.875 64.0625 45.09375 64.984375 
Q 41.3125 65.921875 37.59375 65.921875 
Q 27.828125 65.921875 22.671875 59.328125 
Q 17.53125 52.734375 16.796875 39.40625 
Q 19.671875 43.65625 24.015625 45.921875 
Q 28.375 48.1875 33.59375 48.1875 
Q 44.578125 48.1875 50.953125 41.515625 
Q 57.328125 34.859375 57.328125 23.390625 
Q 57.328125 12.15625 50.6875 5.359375 
Q 44.046875 -1.421875 33.015625 -1.421875 
Q 20.359375 -1.421875 13.671875 8.265625 
Q 6.984375 17.96875 6.984375 36.375 
Q 6.984375 53.65625 15.1875 63.9375 
Q 23.390625 74.21875 37.203125 74.21875 
Q 40.921875 74.21875 44.703125 73.484375 
Q 48.484375 72.75 52.59375 71.296875 
z
" id="DejaVuSans-36"/>
      </defs>
      <g transform="translate(287.451509 317.076875)scale(0.2 -0.2)">
       <use xlink:href="#DejaVuSans-36"/>
      </g>
     </g>
    </g>
    <g id="xtick_5">
     <g id="line2d_13">
      <path clip-path="url(#pfca6690753)" d="M 373.045346 294.88 
L 373.045346 24.84 
" style="fill:none;stroke:#b0b0b0;stroke-linecap:square;stroke-width:0.8;"/>
     </g>
     <g id="line2d_14">
      <g>
       <use style="stroke:#000000;stroke-width:0.8;" x="373.045346" xlink:href="#m1e40aefbdd" y="294.88"/>
      </g>
     </g>
     <g id="text_5">
      <!-- 8 -->
      <defs>
       <path d="M 31.78125 34.625 
Q 24.75 34.625 20.71875 30.859375 
Q 16.703125 27.09375 16.703125 20.515625 
Q 16.703125 13.921875 20.71875 10.15625 
Q 24.75 6.390625 31.78125 6.390625 
Q 38.8125 6.390625 42.859375 10.171875 
Q 46.921875 13.96875 46.921875 20.515625 
Q 46.921875 27.09375 42.890625 30.859375 
Q 38.875 34.625 31.78125 34.625 
z
M 21.921875 38.8125 
Q 15.578125 40.375 12.03125 44.71875 
Q 8.5 49.078125 8.5 55.328125 
Q 8.5 64.0625 14.71875 69.140625 
Q 20.953125 74.21875 31.78125 74.21875 
Q 42.671875 74.21875 48.875 69.140625 
Q 55.078125 64.0625 55.078125 55.328125 
Q 55.078125 49.078125 51.53125 44.71875 
Q 48 40.375 41.703125 38.8125 
Q 48.828125 37.15625 52.796875 32.3125 
Q 56.78125 27.484375 56.78125 20.515625 
Q 56.78125 9.90625 50.3125 4.234375 
Q 43.84375 -1.421875 31.78125 -1.421875 
Q 19.734375 -1.421875 13.25 4.234375 
Q 6.78125 9.90625 6.78125 20.515625 
Q 6.78125 27.484375 10.78125 32.3125 
Q 14.796875 37.15625 21.921875 38.8125 
z
M 18.3125 54.390625 
Q 18.3125 48.734375 21.84375 45.5625 
Q 25.390625 42.390625 31.78125 42.390625 
Q 38.140625 42.390625 41.71875 45.5625 
Q 45.3125 48.734375 45.3125 54.390625 
Q 45.3125 60.0625 41.71875 63.234375 
Q 38.140625 66.40625 31.78125 66.40625 
Q 25.390625 66.40625 21.84375 63.234375 
Q 18.3125 60.0625 18.3125 54.390625 
z
" id="DejaVuSans-38"/>
      </defs>
      <g transform="translate(366.682846 317.076875)scale(0.2 -0.2)">
       <use xlink:href="#DejaVuSans-38"/>
      </g>
     </g>
    </g>
    <g id="text_6">
     <!-- log10(# f-evals / dimension) -->
     <defs>
      <path d="M 9.421875 75.984375 
L 18.40625 75.984375 
L 18.40625 0 
L 9.421875 0 
z
" id="DejaVuSans-6c"/>
      <path d="M 30.609375 48.390625 
Q 23.390625 48.390625 19.1875 42.75 
Q 14.984375 37.109375 14.984375 27.296875 
Q 14.984375 17.484375 19.15625 11.84375 
Q 23.34375 6.203125 30.609375 6.203125 
Q 37.796875 6.203125 41.984375 11.859375 
Q 46.1875 17.53125 46.1875 27.296875 
Q 46.1875 37.015625 41.984375 42.703125 
Q 37.796875 48.390625 30.609375 48.390625 
z
M 30.609375 56 
Q 42.328125 56 49.015625 48.375 
Q 55.71875 40.765625 55.71875 27.296875 
Q 55.71875 13.875 49.015625 6.21875 
Q 42.328125 -1.421875 30.609375 -1.421875 
Q 18.84375 -1.421875 12.171875 6.21875 
Q 5.515625 13.875 5.515625 27.296875 
Q 5.515625 40.765625 12.171875 48.375 
Q 18.84375 56 30.609375 56 
z
" id="DejaVuSans-6f"/>
      <path d="M 45.40625 27.984375 
Q 45.40625 37.75 41.375 43.109375 
Q 37.359375 48.484375 30.078125 48.484375 
Q 22.859375 48.484375 18.828125 43.109375 
Q 14.796875 37.75 14.796875 27.984375 
Q 14.796875 18.265625 18.828125 12.890625 
Q 22.859375 7.515625 30.078125 7.515625 
Q 37.359375 7.515625 41.375 12.890625 
Q 45.40625 18.265625 45.40625 27.984375 
z
M 54.390625 6.78125 
Q 54.390625 -7.171875 48.1875 -13.984375 
Q 42 -20.796875 29.203125 -20.796875 
Q 24.46875 -20.796875 20.265625 -20.09375 
Q 16.0625 -19.390625 12.109375 -17.921875 
L 12.109375 -9.1875 
Q 16.0625 -11.328125 19.921875 -12.34375 
Q 23.78125 -13.375 27.78125 -13.375 
Q 36.625 -13.375 41.015625 -8.765625 
Q 45.40625 -4.15625 45.40625 5.171875 
L 45.40625 9.625 
Q 42.625 4.78125 38.28125 2.390625 
Q 33.9375 0 27.875 0 
Q 17.828125 0 11.671875 7.65625 
Q 5.515625 15.328125 5.515625 27.984375 
Q 5.515625 40.671875 11.671875 48.328125 
Q 17.828125 56 27.875 56 
Q 33.9375 56 38.28125 53.609375 
Q 42.625 51.21875 45.40625 46.390625 
L 45.40625 54.6875 
L 54.390625 54.6875 
z
" id="DejaVuSans-67"/>
      <path d="M 12.40625 8.296875 
L 28.515625 8.296875 
L 28.515625 63.921875 
L 10.984375 60.40625 
L 10.984375 69.390625 
L 28.421875 72.90625 
L 38.28125 72.90625 
L 38.28125 8.296875 
L 54.390625 8.296875 
L 54.390625 0 
L 12.40625 0 
z
" id="DejaVuSans-31"/>
      <path d="M 31 75.875 
Q 24.46875 64.65625 21.28125 53.65625 
Q 18.109375 42.671875 18.109375 31.390625 
Q 18.109375 20.125 21.3125 9.0625 
Q 24.515625 -2 31 -13.1875 
L 23.1875 -13.1875 
Q 15.875 -1.703125 12.234375 9.375 
Q 8.59375 20.453125 8.59375 31.390625 
Q 8.59375 42.28125 12.203125 53.3125 
Q 15.828125 64.359375 23.1875 75.875 
z
" id="DejaVuSans-28"/>
      <path d="M 51.125 44 
L 36.921875 44 
L 32.8125 27.6875 
L 47.125 27.6875 
z
M 43.796875 71.78125 
L 38.71875 51.515625 
L 52.984375 51.515625 
L 58.109375 71.78125 
L 65.921875 71.78125 
L 60.890625 51.515625 
L 76.125 51.515625 
L 76.125 44 
L 58.984375 44 
L 54.984375 27.6875 
L 70.515625 27.6875 
L 70.515625 20.21875 
L 53.078125 20.21875 
L 48 0 
L 40.1875 0 
L 45.21875 20.21875 
L 30.90625 20.21875 
L 25.875 0 
L 18.015625 0 
L 23.09375 20.21875 
L 7.71875 20.21875 
L 7.71875 27.6875 
L 24.90625 27.6875 
L 29 44 
L 13.28125 44 
L 13.28125 51.515625 
L 30.90625 51.515625 
L 35.890625 71.78125 
z
" id="DejaVuSans-23"/>
      <path id="DejaVuSans-20"/>
      <path d="M 37.109375 75.984375 
L 37.109375 68.5 
L 28.515625 68.5 
Q 23.6875 68.5 21.796875 66.546875 
Q 19.921875 64.59375 19.921875 59.515625 
L 19.921875 54.6875 
L 34.71875 54.6875 
L 34.71875 47.703125 
L 19.921875 47.703125 
L 19.921875 0 
L 10.890625 0 
L 10.890625 47.703125 
L 2.296875 47.703125 
L 2.296875 54.6875 
L 10.890625 54.6875 
L 10.890625 58.5 
Q 10.890625 67.625 15.140625 71.796875 
Q 19.390625 75.984375 28.609375 75.984375 
z
" id="DejaVuSans-66"/>
      <path d="M 4.890625 31.390625 
L 31.203125 31.390625 
L 31.203125 23.390625 
L 4.890625 23.390625 
z
" id="DejaVuSans-2d"/>
      <path d="M 56.203125 29.59375 
L 56.203125 25.203125 
L 14.890625 25.203125 
Q 15.484375 15.921875 20.484375 11.0625 
Q 25.484375 6.203125 34.421875 6.203125 
Q 39.59375 6.203125 44.453125 7.46875 
Q 49.3125 8.734375 54.109375 11.28125 
L 54.109375 2.78125 
Q 49.265625 0.734375 44.1875 -0.34375 
Q 39.109375 -1.421875 33.890625 -1.421875 
Q 20.796875 -1.421875 13.15625 6.1875 
Q 5.515625 13.8125 5.515625 26.8125 
Q 5.515625 40.234375 12.765625 48.109375 
Q 20.015625 56 32.328125 56 
Q 43.359375 56 49.78125 48.890625 
Q 56.203125 41.796875 56.203125 29.59375 
z
M 47.21875 32.234375 
Q 47.125 39.59375 43.09375 43.984375 
Q 39.0625 48.390625 32.421875 48.390625 
Q 24.90625 48.390625 20.390625 44.140625 
Q 15.875 39.890625 15.1875 32.171875 
z
" id="DejaVuSans-65"/>
      <path d="M 2.984375 54.6875 
L 12.5 54.6875 
L 29.59375 8.796875 
L 46.6875 54.6875 
L 56.203125 54.6875 
L 35.6875 0 
L 23.484375 0 
z
" id="DejaVuSans-76"/>
      <path d="M 34.28125 27.484375 
Q 23.390625 27.484375 19.1875 25 
Q 14.984375 22.515625 14.984375 16.5 
Q 14.984375 11.71875 18.140625 8.90625 
Q 21.296875 6.109375 26.703125 6.109375 
Q 34.1875 6.109375 38.703125 11.40625 
Q 43.21875 16.703125 43.21875 25.484375 
L 43.21875 27.484375 
z
M 52.203125 31.203125 
L 52.203125 0 
L 43.21875 0 
L 43.21875 8.296875 
Q 40.140625 3.328125 35.546875 0.953125 
Q 30.953125 -1.421875 24.3125 -1.421875 
Q 15.921875 -1.421875 10.953125 3.296875 
Q 6 8.015625 6 15.921875 
Q 6 25.140625 12.171875 29.828125 
Q 18.359375 34.515625 30.609375 34.515625 
L 43.21875 34.515625 
L 43.21875 35.40625 
Q 43.21875 41.609375 39.140625 45 
Q 35.0625 48.390625 27.6875 48.390625 
Q 23 48.390625 18.546875 47.265625 
Q 14.109375 46.140625 10.015625 43.890625 
L 10.015625 52.203125 
Q 14.9375 54.109375 19.578125 55.046875 
Q 24.21875 56 28.609375 56 
Q 40.484375 56 46.34375 49.84375 
Q 52.203125 43.703125 52.203125 31.203125 
z
" id="DejaVuSans-61"/>
      <path d="M 44.28125 53.078125 
L 44.28125 44.578125 
Q 40.484375 46.53125 36.375 47.5 
Q 32.28125 48.484375 27.875 48.484375 
Q 21.1875 48.484375 17.84375 46.4375 
Q 14.5 44.390625 14.5 40.28125 
Q 14.5 37.15625 16.890625 35.375 
Q 19.28125 33.59375 26.515625 31.984375 
L 29.59375 31.296875 
Q 39.15625 29.25 43.1875 25.515625 
Q 47.21875 21.78125 47.21875 15.09375 
Q 47.21875 7.46875 41.1875 3.015625 
Q 35.15625 -1.421875 24.609375 -1.421875 
Q 20.21875 -1.421875 15.453125 -0.5625 
Q 10.6875 0.296875 5.421875 2 
L 5.421875 11.28125 
Q 10.40625 8.6875 15.234375 7.390625 
Q 20.0625 6.109375 24.8125 6.109375 
Q 31.15625 6.109375 34.5625 8.28125 
Q 37.984375 10.453125 37.984375 14.40625 
Q 37.984375 18.0625 35.515625 20.015625 
Q 33.0625 21.96875 24.703125 23.78125 
L 21.578125 24.515625 
Q 13.234375 26.265625 9.515625 29.90625 
Q 5.8125 33.546875 5.8125 39.890625 
Q 5.8125 47.609375 11.28125 51.796875 
Q 16.75 56 26.8125 56 
Q 31.78125 56 36.171875 55.265625 
Q 40.578125 54.546875 44.28125 53.078125 
z
" id="DejaVuSans-73"/>
      <path d="M 25.390625 72.90625 
L 33.6875 72.90625 
L 8.296875 -9.28125 
L 0 -9.28125 
z
" id="DejaVuSans-2f"/>
      <path d="M 45.40625 46.390625 
L 45.40625 75.984375 
L 54.390625 75.984375 
L 54.390625 0 
L 45.40625 0 
L 45.40625 8.203125 
Q 42.578125 3.328125 38.25 0.953125 
Q 33.9375 -1.421875 27.875 -1.421875 
Q 17.96875 -1.421875 11.734375 6.484375 
Q 5.515625 14.40625 5.515625 27.296875 
Q 5.515625 40.1875 11.734375 48.09375 
Q 17.96875 56 27.875 56 
Q 33.9375 56 38.25 53.625 
Q 42.578125 51.265625 45.40625 46.390625 
z
M 14.796875 27.296875 
Q 14.796875 17.390625 18.875 11.75 
Q 22.953125 6.109375 30.078125 6.109375 
Q 37.203125 6.109375 41.296875 11.75 
Q 45.40625 17.390625 45.40625 27.296875 
Q 45.40625 37.203125 41.296875 42.84375 
Q 37.203125 48.484375 30.078125 48.484375 
Q 22.953125 48.484375 18.875 42.84375 
Q 14.796875 37.203125 14.796875 27.296875 
z
" id="DejaVuSans-64"/>
      <path d="M 9.421875 54.6875 
L 18.40625 54.6875 
L 18.40625 0 
L 9.421875 0 
z
M 9.421875 75.984375 
L 18.40625 75.984375 
L 18.40625 64.59375 
L 9.421875 64.59375 
z
" id="DejaVuSans-69"/>
      <path d="M 52 44.1875 
Q 55.375 50.25 60.0625 53.125 
Q 64.75 56 71.09375 56 
Q 79.640625 56 84.28125 50.015625 
Q 88.921875 44.046875 88.921875 33.015625 
L 88.921875 0 
L 79.890625 0 
L 79.890625 32.71875 
Q 79.890625 40.578125 77.09375 44.375 
Q 74.3125 48.1875 68.609375 48.1875 
Q 61.625 48.1875 57.5625 43.546875 
Q 53.515625 38.921875 53.515625 30.90625 
L 53.515625 0 
L 44.484375 0 
L 44.484375 32.71875 
Q 44.484375 40.625 41.703125 44.40625 
Q 38.921875 48.1875 33.109375 48.1875 
Q 26.21875 48.1875 22.15625 43.53125 
Q 18.109375 38.875 18.109375 30.90625 
L 18.109375 0 
L 9.078125 0 
L 9.078125 54.6875 
L 18.109375 54.6875 
L 18.109375 46.1875 
Q 21.1875 51.21875 25.484375 53.609375 
Q 29.78125 56 35.6875 56 
Q 41.65625 56 45.828125 52.96875 
Q 50 49.953125 52 44.1875 
z
" id="DejaVuSans-6d"/>
      <path d="M 54.890625 33.015625 
L 54.890625 0 
L 45.90625 0 
L 45.90625 32.71875 
Q 45.90625 40.484375 42.875 44.328125 
Q 39.84375 48.1875 33.796875 48.1875 
Q 26.515625 48.1875 22.3125 43.546875 
Q 18.109375 38.921875 18.109375 30.90625 
L 18.109375 0 
L 9.078125 0 
L 9.078125 54.6875 
L 18.109375 54.6875 
L 18.109375 46.1875 
Q 21.34375 51.125 25.703125 53.5625 
Q 30.078125 56 35.796875 56 
Q 45.21875 56 50.046875 50.171875 
Q 54.890625 44.34375 54.890625 33.015625 
z
" id="DejaVuSans-6e"/>
      <path d="M 8.015625 75.875 
L 15.828125 75.875 
Q 23.140625 64.359375 26.78125 53.3125 
Q 30.421875 42.28125 30.421875 31.390625 
Q 30.421875 20.453125 26.78125 9.375 
Q 23.140625 -1.703125 15.828125 -13.1875 
L 8.015625 -13.1875 
Q 14.5 -2 17.703125 9.0625 
Q 20.90625 20.125 20.90625 31.390625 
Q 20.90625 42.671875 17.703125 53.65625 
Q 14.5 64.65625 8.015625 75.875 
z
" id="DejaVuSans-29"/>
     </defs>
     <g transform="translate(107.211219 338.153594)scale(0.17 -0.17)">
      <use xlink:href="#DejaVuSans-6c"/>
      <use x="27.783203" xlink:href="#DejaVuSans-6f"/>
      <use x="88.964844" xlink:href="#DejaVuSans-67"/>
      <use x="152.441406" xlink:href="#DejaVuSans-31"/>
      <use x="216.064453" xlink:href="#DejaVuSans-30"/>
      <use x="279.6875" xlink:href="#DejaVuSans-28"/>
      <use x="318.701172" xlink:href="#DejaVuSans-23"/>
      <use x="402.490234" xlink:href="#DejaVuSans-20"/>
      <use x="434.277344" xlink:href="#DejaVuSans-66"/>
      <use x="469.404297" xlink:href="#DejaVuSans-2d"/>
      <use x="505.488281" xlink:href="#DejaVuSans-65"/>
      <use x="567.011719" xlink:href="#DejaVuSans-76"/>
      <use x="626.191406" xlink:href="#DejaVuSans-61"/>
      <use x="687.470703" xlink:href="#DejaVuSans-6c"/>
      <use x="715.253906" xlink:href="#DejaVuSans-73"/>
      <use x="767.353516" xlink:href="#DejaVuSans-20"/>
      <use x="799.140625" xlink:href="#DejaVuSans-2f"/>
      <use x="832.832031" xlink:href="#DejaVuSans-20"/>
      <use x="864.619141" xlink:href="#DejaVuSans-64"/>
      <use x="928.095703" xlink:href="#DejaVuSans-69"/>
      <use x="955.878906" xlink:href="#DejaVuSans-6d"/>
      <use x="1053.291016" xlink:href="#DejaVuSans-65"/>
      <use x="1114.814453" xlink:href="#DejaVuSans-6e"/>
      <use x="1178.193359" xlink:href="#DejaVuSans-73"/>
      <use x="1230.292969" xlink:href="#DejaVuSans-69"/>
      <use x="1258.076172" xlink:href="#DejaVuSans-6f"/>
      <use x="1319.257812" xlink:href="#DejaVuSans-6e"/>
      <use x="1382.636719" xlink:href="#DejaVuSans-29"/>
     </g>
    </g>
   </g>
   <g id="matplotlib.axis_2">
    <g id="ytick_1">
     <g id="line2d_15">
      <path clip-path="url(#pfca6690753)" d="M 56.12 294.88 
L 399.984 294.88 
" style="fill:none;stroke:#b0b0b0;stroke-linecap:square;stroke-width:0.8;"/>
     </g>
     <g id="line2d_16">
      <defs>
       <path d="M 0 0 
L -3.5 0 
" id="m5db308ccba" style="stroke:#000000;stroke-width:0.8;"/>
      </defs>
      <g>
       <use style="stroke:#000000;stroke-width:0.8;" x="56.12" xlink:href="#m5db308ccba" y="294.88"/>
      </g>
     </g>
     <g id="text_7">
      <!-- 0.0 -->
      <defs>
       <path d="M 10.6875 12.40625 
L 21 12.40625 
L 21 0 
L 10.6875 0 
z
" id="DejaVuSans-2e"/>
      </defs>
      <g transform="translate(23.675 300.95875)scale(0.16 -0.16)">
       <use xlink:href="#DejaVuSans-30"/>
       <use x="63.623047" xlink:href="#DejaVuSans-2e"/>
       <use x="95.410156" xlink:href="#DejaVuSans-30"/>
      </g>
     </g>
    </g>
    <g id="ytick_2">
     <g id="line2d_17">
      <path clip-path="url(#pfca6690753)" d="M 56.12 241.406733 
L 399.984 241.406733 
" style="fill:none;stroke:#b0b0b0;stroke-linecap:square;stroke-width:0.8;"/>
     </g>
     <g id="line2d_18">
      <g>
       <use style="stroke:#000000;stroke-width:0.8;" x="56.12" xlink:href="#m5db308ccba" y="241.406733"/>
      </g>
     </g>
     <g id="text_8">
      <!-- 0.2 -->
      <g transform="translate(23.675 247.485483)scale(0.16 -0.16)">
       <use xlink:href="#DejaVuSans-30"/>
       <use x="63.623047" xlink:href="#DejaVuSans-2e"/>
       <use x="95.410156" xlink:href="#DejaVuSans-32"/>
      </g>
     </g>
    </g>
    <g id="ytick_3">
     <g id="line2d_19">
      <path clip-path="url(#pfca6690753)" d="M 56.12 187.933465 
L 399.984 187.933465 
" style="fill:none;stroke:#b0b0b0;stroke-linecap:square;stroke-width:0.8;"/>
     </g>
     <g id="line2d_20">
      <g>
       <use style="stroke:#000000;stroke-width:0.8;" x="56.12" xlink:href="#m5db308ccba" y="187.933465"/>
      </g>
     </g>
     <g id="text_9">
      <!-- 0.4 -->
      <g transform="translate(23.675 194.012215)scale(0.16 -0.16)">
       <use xlink:href="#DejaVuSans-30"/>
       <use x="63.623047" xlink:href="#DejaVuSans-2e"/>
       <use x="95.410156" xlink:href="#DejaVuSans-34"/>
      </g>
     </g>
    </g>
    <g id="ytick_4">
     <g id="line2d_21">
      <path clip-path="url(#pfca6690753)" d="M 56.12 134.460198 
L 399.984 134.460198 
" style="fill:none;stroke:#b0b0b0;stroke-linecap:square;stroke-width:0.8;"/>
     </g>
     <g id="line2d_22">
      <g>
       <use style="stroke:#000000;stroke-width:0.8;" x="56.12" xlink:href="#m5db308ccba" y="134.460198"/>
      </g>
     </g>
     <g id="text_10">
      <!-- 0.6 -->
      <g transform="translate(23.675 140.538948)scale(0.16 -0.16)">
       <use xlink:href="#DejaVuSans-30"/>
       <use x="63.623047" xlink:href="#DejaVuSans-2e"/>
       <use x="95.410156" xlink:href="#DejaVuSans-36"/>
      </g>
     </g>
    </g>
    <g id="ytick_5">
     <g id="line2d_23">
      <path clip-path="url(#pfca6690753)" d="M 56.12 80.986931 
L 399.984 80.986931 
" style="fill:none;stroke:#b0b0b0;stroke-linecap:square;stroke-width:0.8;"/>
     </g>
     <g id="line2d_24">
      <g>
       <use style="stroke:#000000;stroke-width:0.8;" x="56.12" xlink:href="#m5db308ccba" y="80.986931"/>
      </g>
     </g>
     <g id="text_11">
      <!-- 0.8 -->
      <g transform="translate(23.675 87.065681)scale(0.16 -0.16)">
       <use xlink:href="#DejaVuSans-30"/>
       <use x="63.623047" xlink:href="#DejaVuSans-2e"/>
       <use x="95.410156" xlink:href="#DejaVuSans-38"/>
      </g>
     </g>
    </g>
    <g id="ytick_6">
     <g id="line2d_25">
      <path clip-path="url(#pfca6690753)" d="M 56.12 27.513663 
L 399.984 27.513663 
" style="fill:none;stroke:#b0b0b0;stroke-linecap:square;stroke-width:0.8;"/>
     </g>
     <g id="line2d_26">
      <g>
       <use style="stroke:#000000;stroke-width:0.8;" x="56.12" xlink:href="#m5db308ccba" y="27.513663"/>
      </g>
     </g>
     <g id="text_12">
      <!-- 1.0 -->
      <g transform="translate(23.675 33.592413)scale(0.16 -0.16)">
       <use xlink:href="#DejaVuSans-31"/>
       <use x="63.623047" xlink:href="#DejaVuSans-2e"/>
       <use x="95.410156" xlink:href="#DejaVuSans-30"/>
      </g>
     </g>
    </g>
    <g id="text_13">
     <!-- Fraction of function,target pairs -->
     <defs>
      <path d="M 9.8125 72.90625 
L 51.703125 72.90625 
L 51.703125 64.59375 
L 19.671875 64.59375 
L 19.671875 43.109375 
L 48.578125 43.109375 
L 48.578125 34.8125 
L 19.671875 34.8125 
L 19.671875 0 
L 9.8125 0 
z
" id="DejaVuSans-46"/>
      <path d="M 41.109375 46.296875 
Q 39.59375 47.171875 37.8125 47.578125 
Q 36.03125 48 33.890625 48 
Q 26.265625 48 22.1875 43.046875 
Q 18.109375 38.09375 18.109375 28.8125 
L 18.109375 0 
L 9.078125 0 
L 9.078125 54.6875 
L 18.109375 54.6875 
L 18.109375 46.1875 
Q 20.953125 51.171875 25.484375 53.578125 
Q 30.03125 56 36.53125 56 
Q 37.453125 56 38.578125 55.875 
Q 39.703125 55.765625 41.0625 55.515625 
z
" id="DejaVuSans-72"/>
      <path d="M 48.78125 52.59375 
L 48.78125 44.1875 
Q 44.96875 46.296875 41.140625 47.34375 
Q 37.3125 48.390625 33.40625 48.390625 
Q 24.65625 48.390625 19.8125 42.84375 
Q 14.984375 37.3125 14.984375 27.296875 
Q 14.984375 17.28125 19.8125 11.734375 
Q 24.65625 6.203125 33.40625 6.203125 
Q 37.3125 6.203125 41.140625 7.25 
Q 44.96875 8.296875 48.78125 10.40625 
L 48.78125 2.09375 
Q 45.015625 0.34375 40.984375 -0.53125 
Q 36.96875 -1.421875 32.421875 -1.421875 
Q 20.0625 -1.421875 12.78125 6.34375 
Q 5.515625 14.109375 5.515625 27.296875 
Q 5.515625 40.671875 12.859375 48.328125 
Q 20.21875 56 33.015625 56 
Q 37.15625 56 41.109375 55.140625 
Q 45.0625 54.296875 48.78125 52.59375 
z
" id="DejaVuSans-63"/>
      <path d="M 18.3125 70.21875 
L 18.3125 54.6875 
L 36.8125 54.6875 
L 36.8125 47.703125 
L 18.3125 47.703125 
L 18.3125 18.015625 
Q 18.3125 11.328125 20.140625 9.421875 
Q 21.96875 7.515625 27.59375 7.515625 
L 36.8125 7.515625 
L 36.8125 0 
L 27.59375 0 
Q 17.1875 0 13.234375 3.875 
Q 9.28125 7.765625 9.28125 18.015625 
L 9.28125 47.703125 
L 2.6875 47.703125 
L 2.6875 54.6875 
L 9.28125 54.6875 
L 9.28125 70.21875 
z
" id="DejaVuSans-74"/>
      <path d="M 8.5 21.578125 
L 8.5 54.6875 
L 17.484375 54.6875 
L 17.484375 21.921875 
Q 17.484375 14.15625 20.5 10.265625 
Q 23.53125 6.390625 29.59375 6.390625 
Q 36.859375 6.390625 41.078125 11.03125 
Q 45.3125 15.671875 45.3125 23.6875 
L 45.3125 54.6875 
L 54.296875 54.6875 
L 54.296875 0 
L 45.3125 0 
L 45.3125 8.40625 
Q 42.046875 3.421875 37.71875 1 
Q 33.40625 -1.421875 27.6875 -1.421875 
Q 18.265625 -1.421875 13.375 4.4375 
Q 8.5 10.296875 8.5 21.578125 
z
M 31.109375 56 
z
" id="DejaVuSans-75"/>
      <path d="M 11.71875 12.40625 
L 22.015625 12.40625 
L 22.015625 4 
L 14.015625 -11.625 
L 7.71875 -11.625 
L 11.71875 4 
z
" id="DejaVuSans-2c"/>
      <path d="M 18.109375 8.203125 
L 18.109375 -20.796875 
L 9.078125 -20.796875 
L 9.078125 54.6875 
L 18.109375 54.6875 
L 18.109375 46.390625 
Q 20.953125 51.265625 25.265625 53.625 
Q 29.59375 56 35.59375 56 
Q 45.5625 56 51.78125 48.09375 
Q 58.015625 40.1875 58.015625 27.296875 
Q 58.015625 14.40625 51.78125 6.484375 
Q 45.5625 -1.421875 35.59375 -1.421875 
Q 29.59375 -1.421875 25.265625 0.953125 
Q 20.953125 3.328125 18.109375 8.203125 
z
M 48.6875 27.296875 
Q 48.6875 37.203125 44.609375 42.84375 
Q 40.53125 48.484375 33.40625 48.484375 
Q 26.265625 48.484375 22.1875 42.84375 
Q 18.109375 37.203125 18.109375 27.296875 
Q 18.109375 17.390625 22.1875 11.75 
Q 26.265625 6.109375 33.40625 6.109375 
Q 40.53125 6.109375 44.609375 11.75 
Q 48.6875 17.390625 48.6875 27.296875 
z
" id="DejaVuSans-70"/>
     </defs>
     <g transform="translate(16.139531 294.999375)rotate(-90)scale(0.17 -0.17)">
      <use xlink:href="#DejaVuSans-46"/>
      <use x="57.410156" xlink:href="#DejaVuSans-72"/>
      <use x="98.523438" xlink:href="#DejaVuSans-61"/>
      <use x="159.802734" xlink:href="#DejaVuSans-63"/>
      <use x="214.783203" xlink:href="#DejaVuSans-74"/>
      <use x="253.992188" xlink:href="#DejaVuSans-69"/>
      <use x="281.775391" xlink:href="#DejaVuSans-6f"/>
      <use x="342.957031" xlink:href="#DejaVuSans-6e"/>
      <use x="406.335938" xlink:href="#DejaVuSans-20"/>
      <use x="438.123047" xlink:href="#DejaVuSans-6f"/>
      <use x="499.304688" xlink:href="#DejaVuSans-66"/>
      <use x="534.509766" xlink:href="#DejaVuSans-20"/>
      <use x="566.296875" xlink:href="#DejaVuSans-66"/>
      <use x="601.501953" xlink:href="#DejaVuSans-75"/>
      <use x="664.880859" xlink:href="#DejaVuSans-6e"/>
      <use x="728.259766" xlink:href="#DejaVuSans-63"/>
      <use x="783.240234" xlink:href="#DejaVuSans-74"/>
      <use x="822.449219" xlink:href="#DejaVuSans-69"/>
      <use x="850.232422" xlink:href="#DejaVuSans-6f"/>
      <use x="911.414062" xlink:href="#DejaVuSans-6e"/>
      <use x="974.792969" xlink:href="#DejaVuSans-2c"/>
      <use x="1006.580078" xlink:href="#DejaVuSans-74"/>
      <use x="1045.789062" xlink:href="#DejaVuSans-61"/>
      <use x="1107.068359" xlink:href="#DejaVuSans-72"/>
      <use x="1148.166016" xlink:href="#DejaVuSans-67"/>
      <use x="1211.642578" xlink:href="#DejaVuSans-65"/>
      <use x="1273.166016" xlink:href="#DejaVuSans-74"/>
      <use x="1312.375" xlink:href="#DejaVuSans-20"/>
      <use x="1344.162109" xlink:href="#DejaVuSans-70"/>
      <use x="1407.638672" xlink:href="#DejaVuSans-61"/>
      <use x="1468.917969" xlink:href="#DejaVuSans-69"/>
      <use x="1496.701172" xlink:href="#DejaVuSans-72"/>
      <use x="1537.814453" xlink:href="#DejaVuSans-73"/>
     </g>
    </g>
   </g>
   <g id="line2d_27">
    <defs>
     <path d="M 0 1.5 
C 0.397805 1.5 0.77937 1.341951 1.06066 1.06066 
C 1.341951 0.77937 1.5 0.397805 1.5 0 
C 1.5 -0.397805 1.341951 -0.77937 1.06066 -1.06066 
C 0.77937 -1.341951 0.397805 -1.5 0 -1.5 
C -0.397805 -1.5 -0.77937 -1.341951 -1.06066 -1.06066 
C -1.341951 -0.77937 -1.5 -0.397805 -1.5 0 
C -1.5 0.397805 -1.341951 0.77937 -1.06066 1.06066 
C -0.77937 1.341951 -0.397805 1.5 0 1.5 
z
" id="ma7df6342a6" style="stroke:#f5deb3;"/>
    </defs>
    <g>
     <use style="fill:#f5deb3;stroke:#f5deb3;" x="173.029583" xlink:href="#ma7df6342a6" y="27.513663"/>
     <use style="fill:#f5deb3;stroke:#f5deb3;" x="173.029583" xlink:href="#ma7df6342a6" y="27.513663"/>
    </g>
   </g>
   <g id="line2d_28">
    <defs>
     <path d="M 0 1.5 
C 0.397805 1.5 0.77937 1.341951 1.06066 1.06066 
C 1.341951 0.77937 1.5 0.397805 1.5 0 
C 1.5 -0.397805 1.341951 -0.77937 1.06066 -1.06066 
C 0.77937 -1.341951 0.397805 -1.5 0 -1.5 
C -0.397805 -1.5 -0.77937 -1.341951 -1.06066 -1.06066 
C -1.341951 -0.77937 -1.5 -0.397805 -1.5 0 
C -1.5 0.397805 -1.341951 0.77937 -1.06066 1.06066 
C -0.77937 1.341951 -0.397805 1.5 0 1.5 
z
" id="md11e92977f" style="stroke:#000080;"/>
    </defs>
    <g>
     <use style="fill:#000080;stroke:#000080;" x="324.1881" xlink:href="#md11e92977f" y="95.665867"/>
     <use style="fill:#000080;stroke:#000080;" x="324.1881" xlink:href="#md11e92977f" y="95.665867"/>
    </g>
   </g>
   <g id="line2d_29">
    <path d="M 4.578827 294.88 
L 4.578827 293.831505 
L 64.20635 293.831505 
L 64.20635 293.307257 
L 75.585622 293.307257 
L 75.585622 292.783009 
L 75.860906 292.783009 
L 75.860906 291.734514 
L 76.661276 291.734514 
L 76.661276 291.210266 
L 83.981358 291.210266 
L 83.981358 290.686018 
L 87.511126 290.686018 
L 87.511126 290.161771 
L 87.78641 290.161771 
L 87.78641 289.637523 
L 90.0838 289.637523 
L 90.0838 289.113275 
L 91.014019 289.113275 
L 91.014019 288.589027 
L 91.126838 288.589027 
L 91.126838 287.540532 
L 96.899726 287.540532 
L 96.899726 286.492036 
L 99.227238 286.492036 
L 99.227238 285.443541 
L 99.847922 285.443541 
L 99.847922 284.395046 
L 101.089038 284.395046 
L 101.089038 283.34655 
L 101.339295 283.34655 
L 101.401295 281.773807 
L 103.275786 281.773807 
L 103.275786 281.249559 
L 104.712575 281.249559 
L 104.712575 280.725312 
L 106.085771 280.725312 
L 106.085771 280.201064 
L 107.959654 280.201064 
L 107.959654 278.628321 
L 109.763911 278.628321 
L 109.763911 278.104073 
L 112.599948 278.104073 
L 112.599948 277.579825 
L 114.80834 277.579825 
L 114.80834 276.53133 
L 115.558307 276.53133 
L 115.558307 275.482834 
L 115.934679 275.482834 
L 115.934679 274.958587 
L 116.866298 274.958587 
L 116.866298 274.434339 
L 117.987691 274.434339 
L 117.987691 273.910091 
L 118.658847 273.910091 
L 118.658847 272.861596 
L 118.973716 272.861596 
L 118.973716 272.337348 
L 120.589186 272.337348 
L 120.589186 271.8131 
L 121.01006 271.8131 
L 121.029847 270.764605 
L 122.361274 270.764605 
L 122.361274 270.240357 
L 123.817062 270.240357 
L 123.817062 269.716109 
L 123.934387 269.716109 
L 123.934387 269.191862 
L 124.248867 269.191862 
L 124.281638 268.143366 
L 126.505205 268.143366 
L 126.605608 267.094871 
L 126.861131 267.094871 
L 126.917402 266.046375 
L 127.126794 266.046375 
L 127.126794 265.522128 
L 127.442993 265.522128 
L 127.442993 263.949385 
L 128.70341 263.949385 
L 128.741348 262.900889 
L 129.116196 262.900889 
L 129.116196 261.852394 
L 129.458837 261.852394 
L 129.567537 258.706907 
L 129.960332 258.706907 
L 129.960332 257.658412 
L 131.043474 257.658412 
L 131.043474 257.134164 
L 132.423148 257.134164 
L 132.423148 256.609917 
L 132.605748 256.609917 
L 132.605748 256.085669 
L 132.726414 256.085669 
L 132.726414 255.561421 
L 132.965236 255.561421 
L 132.965236 255.037173 
L 133.356051 255.037173 
L 133.356051 254.512926 
L 133.738184 254.512926 
L 133.738184 253.988678 
L 134.121257 253.988678 
L 134.121257 253.46443 
L 134.423507 253.46443 
L 134.514059 250.843192 
L 134.818419 250.843192 
L 134.818419 250.318944 
L 135.316892 250.318944 
L 135.316892 249.270448 
L 135.666718 249.270448 
L 135.742566 246.64921 
L 135.959823 246.64921 
L 136.009572 245.600714 
L 136.223505 245.600714 
L 136.305083 244.027971 
L 136.5876 244.027971 
L 136.5876 243.503724 
L 136.707272 243.503724 
L 136.707272 242.455228 
L 136.826118 242.455228 
L 136.865552 241.406733 
L 136.951989 241.406733 
L 137.061375 240.358237 
L 137.076945 240.358237 
L 137.076945 238.785494 
L 137.650877 238.785494 
L 137.650877 238.261246 
L 138.206279 238.261246 
L 138.307997 236.164255 
L 139.114623 236.164255 
L 139.156047 234.591512 
L 139.40252 234.591512 
L 139.40252 234.067265 
L 139.571627 234.067265 
L 139.571627 233.018769 
L 139.83216 233.018769 
L 139.83216 232.494521 
L 139.964252 232.494521 
L 140.02992 231.446026 
L 140.930101 231.446026 
L 140.930101 230.921778 
L 141.047879 230.921778 
L 141.091069 229.349035 
L 141.347954 229.349035 
L 141.432737 227.776292 
L 141.997271 227.776292 
L 141.997271 227.252044 
L 142.538205 227.252044 
L 142.538205 226.727797 
L 142.808002 226.727797 
L 142.808002 225.679301 
L 143.15581 225.679301 
L 143.232155 223.58231 
L 143.432309 223.58231 
L 143.432309 223.058063 
L 143.571577 223.058063 
L 143.571577 222.533815 
L 143.794193 222.533815 
L 143.878248 219.388328 
L 144.039944 219.388328 
L 144.148623 217.815585 
L 144.455405 217.815585 
L 144.455405 216.76709 
L 144.656928 216.76709 
L 144.656928 215.718594 
L 144.771744 215.718594 
L 144.771744 215.194347 
L 145.053029 215.194347 
L 145.053029 214.670099 
L 145.507086 214.670099 
L 145.507086 214.145851 
L 146.253415 214.145851 
L 146.253415 213.621604 
L 146.686152 213.621604 
L 146.721727 212.04886 
L 146.872104 212.04886 
L 146.872104 211.524613 
L 146.990592 211.524613 
L 146.999337 210.476117 
L 147.259627 210.476117 
L 147.345523 207.330631 
L 147.70587 207.330631 
L 147.70587 206.806383 
L 148.153097 206.806383 
L 148.153097 205.23364 
L 148.352235 205.23364 
L 148.424812 204.185145 
L 148.545098 204.185145 
L 148.545098 203.660897 
L 148.869653 203.660897 
L 148.869653 203.136649 
L 149.218963 203.136649 
L 149.218963 202.612401 
L 149.692643 202.612401 
L 149.692643 202.088154 
L 150.062416 202.088154 
L 150.135426 199.991163 
L 150.645078 199.991163 
L 150.645078 199.466915 
L 151.064304 199.466915 
L 151.064304 198.41842 
L 153.708062 198.41842 
L 153.708062 196.845677 
L 154.048009 196.845677 
L 154.146389 195.797181 
L 154.26428 195.797181 
L 154.26428 195.272933 
L 155.440974 195.272933 
L 155.440974 193.70019 
L 156.153905 193.70019 
L 156.182124 192.651695 
L 156.332698 192.651695 
L 156.332698 192.127447 
L 158.502248 192.127447 
L 158.502248 191.078952 
L 159.897799 191.078952 
L 159.961708 188.981961 
L 160.828453 188.981961 
L 160.828453 188.457713 
L 162.499707 188.457713 
L 162.499707 186.88497 
L 164.726598 186.88497 
L 164.726598 186.360722 
L 165.392142 186.360722 
L 165.426626 185.312227 
L 165.537105 185.312227 
L 165.537105 184.787979 
L 165.792653 184.787979 
L 165.792653 184.263731 
L 167.634667 184.263731 
L 167.634667 183.215236 
L 168.846428 183.215236 
L 168.846428 182.16674 
L 169.348558 182.16674 
L 169.348558 181.642493 
L 169.943909 181.642493 
L 170.005999 180.593997 
L 170.388509 180.593997 
L 170.388509 179.545502 
L 172.333062 179.545502 
L 172.372117 178.497006 
L 172.963022 178.497006 
L 172.963022 177.448511 
L 175.031402 177.448511 
L 175.031402 176.924263 
L 176.444155 176.924263 
L 176.444155 176.400016 
L 176.782643 176.400016 
L 176.782643 175.35152 
L 178.072251 175.35152 
L 178.072251 174.827272 
L 178.634635 174.827272 
L 178.634635 174.303025 
L 179.965071 174.303025 
L 179.965071 173.778777 
L 180.307766 173.778777 
L 180.307766 173.254529 
L 180.637582 173.254529 
L 180.637582 172.206034 
L 181.000615 172.206034 
L 181.000615 171.681786 
L 181.668388 171.681786 
L 181.668388 171.157538 
L 183.295733 171.157538 
L 183.295733 170.633291 
L 184.211884 170.633291 
L 184.211884 170.109043 
L 184.392387 170.109043 
L 184.392387 169.060547 
L 185.043915 169.060547 
L 185.043915 168.5363 
L 187.735624 168.5363 
L 187.735624 168.012052 
L 189.502324 168.012052 
L 189.58859 166.963557 
L 190.083723 166.963557 
L 190.083723 166.439309 
L 190.274179 166.439309 
L 190.274179 165.390813 
L 190.775995 165.390813 
L 190.775995 164.866566 
L 191.204101 164.866566 
L 191.204101 164.342318 
L 192.008869 164.342318 
L 192.008869 163.293823 
L 192.232009 163.293823 
L 192.232009 162.769575 
L 192.803314 162.769575 
L 192.803314 161.721079 
L 195.079909 161.721079 
L 195.079909 161.196832 
L 196.226876 161.196832 
L 196.226876 160.672584 
L 196.789852 160.672584 
L 196.789852 160.148336 
L 197.763062 160.148336 
L 197.763062 159.624089 
L 200.182494 159.624089 
L 200.227333 158.575593 
L 200.873678 158.575593 
L 200.873678 157.527098 
L 201.087046 157.527098 
L 201.087046 157.00285 
L 203.080826 157.00285 
L 203.080826 156.478602 
L 206.179329 156.478602 
L 206.179329 155.954354 
L 207.471412 155.954354 
L 207.471412 154.905859 
L 207.934873 154.905859 
L 207.934873 154.381611 
L 208.277433 154.381611 
L 208.277433 153.857364 
L 208.677325 153.857364 
L 208.677325 152.808868 
L 210.302523 152.808868 
L 210.302523 152.28462 
L 212.833024 152.28462 
L 212.833024 151.236125 
L 213.385364 151.236125 
L 213.47404 150.18763 
L 213.86375 150.18763 
L 213.86375 149.139134 
L 215.346891 149.139134 
L 215.346891 148.614886 
L 216.158931 148.614886 
L 216.158931 147.566391 
L 217.339543 147.566391 
L 217.339543 147.042143 
L 219.435824 147.042143 
L 219.435824 145.4694 
L 221.130701 145.4694 
L 221.130701 144.945152 
L 221.280151 144.945152 
L 221.280151 144.420905 
L 222.919616 144.420905 
L 222.919616 143.372409 
L 223.783011 143.372409 
L 223.783011 142.323914 
L 224.916695 142.323914 
L 224.916695 141.799666 
L 226.370505 141.799666 
L 226.370505 140.751171 
L 228.212218 140.751171 
L 228.212218 139.702675 
L 228.6116 139.702675 
L 228.6116 138.65418 
L 229.543222 138.65418 
L 229.543222 137.605684 
L 232.742759 137.605684 
L 232.742759 137.081437 
L 233.3328 137.081437 
L 233.436139 136.032941 
L 237.250201 136.032941 
L 237.251814 134.984446 
L 237.943435 134.984446 
L 237.943435 134.460198 
L 239.153964 134.460198 
L 239.153964 133.93595 
L 241.735819 133.93595 
L 241.756362 132.363207 
L 241.981392 132.363207 
L 241.981392 131.838959 
L 243.673444 131.838959 
L 243.673444 131.314712 
L 245.719883 131.314712 
L 245.719883 129.741969 
L 246.528081 129.741969 
L 246.528081 129.217721 
L 246.741019 129.217721 
L 246.741019 128.693473 
L 249.097963 128.693473 
L 249.097963 128.169225 
L 249.212044 128.169225 
L 249.248844 127.12073 
L 250.09431 127.12073 
L 250.09431 126.596482 
L 250.38462 126.596482 
L 250.38462 126.072235 
L 252.157602 126.072235 
L 252.157602 125.023739 
L 255.031828 125.023739 
L 255.031828 124.499491 
L 255.69953 124.499491 
L 255.69953 123.975244 
L 255.889911 123.975244 
L 255.889911 123.450996 
L 257.515663 123.450996 
L 257.515663 122.926748 
L 257.635359 122.926748 
L 257.635359 122.4025 
L 258.245812 122.4025 
L 258.245812 121.878253 
L 258.381685 121.878253 
L 258.381685 120.829757 
L 258.62712 120.829757 
L 258.62712 119.781262 
L 259.907247 119.781262 
L 259.907247 119.257014 
L 263.316892 119.257014 
L 263.316892 118.732766 
L 264.497116 118.732766 
L 264.497116 118.208519 
L 265.87693 118.208519 
L 265.87693 117.684271 
L 266.098441 117.684271 
L 266.098441 117.160023 
L 266.635524 117.160023 
L 266.635524 116.635776 
L 266.826518 116.635776 
L 266.826518 115.58728 
L 266.949266 115.58728 
L 266.949266 115.063032 
L 267.948027 115.063032 
L 267.948027 114.538785 
L 270.66158 114.538785 
L 270.66158 114.014537 
L 271.564104 114.014537 
L 271.564104 113.490289 
L 273.029297 113.490289 
L 273.029297 111.917546 
L 273.403574 111.917546 
L 273.403574 111.393298 
L 273.911894 111.393298 
L 273.91412 110.344803 
L 274.451235 110.344803 
L 274.451235 109.820555 
L 275.358299 109.820555 
L 275.358299 109.296308 
L 275.744671 109.296308 
L 275.744671 108.77206 
L 279.454689 108.77206 
L 279.454689 108.247812 
L 280.780503 108.247812 
L 280.780503 107.723564 
L 282.64965 107.723564 
L 282.657034 106.150821 
L 283.109181 106.150821 
L 283.109181 104.578078 
L 283.3193 104.578078 
L 283.3193 104.05383 
L 284.334564 104.05383 
L 284.334564 103.529583 
L 285.181237 103.529583 
L 285.181237 103.005335 
L 285.723654 103.005335 
L 285.723654 102.481087 
L 288.430816 102.481087 
L 288.430816 101.956839 
L 289.636018 101.956839 
L 289.636018 101.432592 
L 290.288009 101.432592 
L 290.288009 100.384096 
L 290.919343 100.384096 
L 290.919343 99.859849 
L 292.996962 99.859849 
L 292.996962 98.811353 
L 293.482529 98.811353 
L 293.482529 98.287105 
L 311.432349 98.287105 
L 311.432349 97.762858 
L 312.107579 97.762858 
L 312.107579 97.23861 
L 317.582752 97.23861 
L 317.582752 96.714362 
L 321.142016 96.714362 
L 321.142016 96.190115 
L 324.1881 96.190115 
L 324.1881 95.665867 
L 333.429677 95.665867 
L 333.429677 95.665867 
" style="fill:none;stroke:#000080;stroke-linecap:square;stroke-width:1.5;"/>
   </g>
   <g id="line2d_30">
    <defs>
     <path d="M 0 6 
C 1.591219 6 3.117479 5.367802 4.242641 4.242641 
C 5.367802 3.117479 6 1.591219 6 0 
C 6 -1.591219 5.367802 -3.117479 4.242641 -4.242641 
C 3.117479 -5.367802 1.591219 -6 0 -6 
C -1.591219 -6 -3.117479 -5.367802 -4.242641 -4.242641 
C -5.367802 -3.117479 -6 -1.591219 -6 0 
C -6 1.591219 -5.367802 3.117479 -4.242641 4.242641 
C -3.117479 5.367802 -1.591219 6 0 6 
z
" id="m65c4e7e5ce" style="stroke:#000080;stroke-width:1.5;"/>
    </defs>
    <g>
     <use style="fill-opacity:0;stroke:#000080;stroke-width:1.5;" x="83.981358" xlink:href="#m65c4e7e5ce" y="291.210266"/>
     <use style="fill-opacity:0;stroke:#000080;stroke-width:1.5;" x="143.836272" xlink:href="#m65c4e7e5ce" y="220.961072"/>
     <use style="fill-opacity:0;stroke:#000080;stroke-width:1.5;" x="210.302523" xlink:href="#m65c4e7e5ce" y="152.808868"/>
     <use style="fill-opacity:0;stroke:#000080;stroke-width:1.5;" x="263.316892" xlink:href="#m65c4e7e5ce" y="119.257014"/>
     <use style="fill-opacity:0;stroke:#000080;stroke-width:1.5;" x="324.1881" xlink:href="#m65c4e7e5ce" y="95.665867"/>
     <use style="fill-opacity:0;stroke:#000080;stroke-width:1.5;" x="333.429677" xlink:href="#m65c4e7e5ce" y="95.665867"/>
    </g>
   </g>
   <g id="line2d_31">
    <path style="fill:none;stroke:#000080;stroke-linecap:square;stroke-width:1.5;"/>
    <g/>
   </g>
   <g id="line2d_32">
    <path clip-path="url(#pfca6690753)" d="M 293.814019 98.287105 
" style="fill:none;stroke:#000080;stroke-linecap:square;stroke-width:1.5;"/>
    <defs>
     <path d="M -12 12 
L 12 -12 
M -12 -12 
L 12 12 
" id="m50940d9e7e" style="stroke:#000080;stroke-width:3;"/>
    </defs>
    <g clip-path="url(#pfca6690753)">
     <use style="fill:#000080;stroke:#000080;stroke-width:3;" x="293.814019" xlink:href="#m50940d9e7e" y="98.287105"/>
    </g>
   </g>
   <g id="line2d_33">
    <defs>
     <path d="M 0 1.5 
C 0.397805 1.5 0.77937 1.341951 1.06066 1.06066 
C 1.341951 0.77937 1.5 0.397805 1.5 0 
C 1.5 -0.397805 1.341951 -0.77937 1.06066 -1.06066 
C 0.77937 -1.341951 0.397805 -1.5 0 -1.5 
C -0.397805 -1.5 -0.77937 -1.341951 -1.06066 -1.06066 
C -1.341951 -0.77937 -1.5 -0.397805 -1.5 0 
C -1.5 0.397805 -1.341951 0.77937 -1.06066 1.06066 
C -0.77937 1.341951 -0.397805 1.5 0 1.5 
z
" id="m198c08baff" style="stroke:#ff00ff;"/>
    </defs>
    <g>
     <use style="fill:#ff00ff;stroke:#ff00ff;" x="320.214175" xlink:href="#m198c08baff" y="163.81807"/>
     <use style="fill:#ff00ff;stroke:#ff00ff;" x="320.214175" xlink:href="#m198c08baff" y="163.81807"/>
    </g>
   </g>
   <g id="line2d_34">
    <path d="M 4.578827 294.88 
L 4.578827 291.734514 
L 16.504332 291.734514 
L 16.504332 290.686018 
L 23.480305 290.686018 
L 23.480305 290.161771 
L 38.057951 290.161771 
L 38.057951 288.589027 
L 42.381782 288.589027 
L 42.381782 288.06478 
L 47.331314 288.06478 
L 47.331314 287.016284 
L 59.256818 287.016284 
L 59.256818 286.492036 
L 59.959155 286.492036 
L 59.959155 285.967789 
L 63.095973 285.967789 
L 63.095973 283.870798 
L 65.748115 283.870798 
L 65.748115 282.822302 
L 69.289772 282.822302 
L 69.289772 282.298055 
L 69.685303 282.298055 
L 69.685303 280.201064 
L 81.215276 280.201064 
L 81.215276 279.676816 
L 96.244223 279.676816 
L 96.244223 279.152568 
L 97.685473 279.152568 
L 97.685473 278.628321 
L 101.089038 278.628321 
L 101.089038 278.104073 
L 108.211437 278.104073 
L 108.211437 277.055578 
L 123.967762 277.055578 
L 123.967762 276.53133 
L 124.908508 276.53133 
L 124.908508 276.007082 
L 135.683602 276.007082 
L 135.683602 274.958587 
L 137.347164 274.958587 
L 137.347164 273.910091 
L 148.263111 273.910091 
L 148.263111 272.861596 
L 157.716271 272.861596 
L 157.716271 271.8131 
L 157.844745 271.8131 
L 157.844745 271.288853 
L 158.319851 271.288853 
L 158.319851 270.764605 
L 159.844014 270.764605 
L 159.844014 270.240357 
L 162.09732 270.240357 
L 162.09732 269.191862 
L 162.492604 269.191862 
L 162.492604 268.667614 
L 170.040398 268.667614 
L 170.040398 267.619119 
L 170.812056 267.619119 
L 170.812056 267.094871 
L 173.732305 267.094871 
L 173.732305 266.570623 
L 176.126238 266.570623 
L 176.126238 266.046375 
L 176.396722 266.046375 
L 176.396722 265.522128 
L 176.962832 265.522128 
L 176.962832 264.99788 
L 178.452956 264.99788 
L 178.548227 263.949385 
L 179.602932 263.949385 
L 179.602932 262.900889 
L 180.840552 262.900889 
L 180.840552 262.376641 
L 181.316937 262.376641 
L 181.382828 260.803898 
L 182.03107 260.803898 
L 182.03107 260.279651 
L 182.14934 260.279651 
L 182.14934 259.231155 
L 184.778477 259.231155 
L 184.850792 257.658412 
L 186.10078 257.658412 
L 186.10078 257.134164 
L 187.520498 257.134164 
L 187.520498 256.609917 
L 187.925019 256.609917 
L 187.991726 255.561421 
L 188.437813 255.561421 
L 188.437813 255.037173 
L 189.261526 255.037173 
L 189.261526 254.512926 
L 190.58688 254.512926 
L 190.602488 253.46443 
L 190.728567 253.46443 
L 190.728567 252.940182 
L 190.869438 252.940182 
L 190.869438 251.891687 
L 191.457329 251.891687 
L 191.457329 251.367439 
L 192.876677 251.367439 
L 192.876677 250.843192 
L 193.047453 250.843192 
L 193.154193 247.173458 
L 194.193433 247.173458 
L 194.193433 246.64921 
L 194.508217 246.64921 
L 194.541063 245.600714 
L 195.01699 245.600714 
L 195.01699 245.076467 
L 195.135674 245.076467 
L 195.135674 243.503724 
L 195.875286 243.503724 
L 195.875286 242.979476 
L 196.69936 242.979476 
L 196.69936 242.455228 
L 196.966545 242.455228 
L 197.032997 241.406733 
L 198.209955 241.406733 
L 198.209955 240.882485 
L 198.487318 240.882485 
L 198.533952 239.83399 
L 199.873395 239.83399 
L 199.957332 238.261246 
L 200.415726 238.261246 
L 200.470125 237.212751 
L 200.831642 237.212751 
L 200.831642 235.11576 
L 201.219981 235.11576 
L 201.235498 233.543017 
L 201.458845 233.543017 
L 201.458845 233.018769 
L 201.594624 233.018769 
L 201.594624 232.494521 
L 201.799467 232.494521 
L 201.799467 231.970274 
L 201.967372 231.970274 
L 201.978651 230.921778 
L 202.151913 230.921778 
L 202.151913 230.397531 
L 202.507872 230.397531 
L 202.507872 229.349035 
L 202.633409 229.349035 
L 202.646326 227.776292 
L 202.930945 227.776292 
L 202.930945 227.252044 
L 203.056133 227.252044 
L 203.056133 225.679301 
L 204.073897 225.679301 
L 204.073897 224.630806 
L 204.815238 224.630806 
L 204.876897 223.058063 
L 205.225244 223.058063 
L 205.225244 222.009567 
L 205.368981 222.009567 
L 205.368981 221.485319 
L 205.866095 221.485319 
L 205.866095 220.961072 
L 205.998791 220.961072 
L 206.048024 219.912576 
L 206.18872 219.912576 
L 206.18872 218.864081 
L 206.91659 218.864081 
L 206.943969 216.76709 
L 207.064774 216.76709 
L 207.064774 216.242842 
L 207.756332 216.242842 
L 207.794537 214.145851 
L 207.931454 214.145851 
L 207.931454 213.621604 
L 208.671504 213.621604 
L 208.677568 212.573108 
L 209.161988 212.573108 
L 209.161988 212.04886 
L 209.559577 212.04886 
L 209.559577 211.524613 
L 210.198618 211.524613 
L 210.198618 211.000365 
L 210.497021 211.000365 
L 210.497021 209.95187 
L 210.899587 209.95187 
L 210.899587 208.903374 
L 211.09676 208.903374 
L 211.09676 208.379126 
L 211.545218 208.379126 
L 211.545218 207.330631 
L 211.777547 207.330631 
L 211.777547 206.282136 
L 211.91039 206.282136 
L 211.937197 205.23364 
L 212.470683 205.23364 
L 212.537371 204.185145 
L 213.150534 204.185145 
L 213.164646 203.136649 
L 214.086805 203.136649 
L 214.086805 202.612401 
L 214.270427 202.612401 
L 214.270427 201.563906 
L 214.412278 201.563906 
L 214.469004 200.515411 
L 215.042133 200.515411 
L 215.042133 199.991163 
L 215.774124 199.991163 
L 215.774124 199.466915 
L 216.208311 199.466915 
L 216.208311 198.942667 
L 216.36763 198.942667 
L 216.36763 197.894172 
L 216.754472 197.894172 
L 216.76372 196.321429 
L 217.356904 196.321429 
L 217.356904 195.797181 
L 217.811006 195.797181 
L 217.811006 195.272933 
L 217.923658 195.272933 
L 217.923658 194.748686 
L 218.233752 194.748686 
L 218.233752 194.224438 
L 219.229504 194.224438 
L 219.229504 193.70019 
L 219.585564 193.70019 
L 219.585564 193.175943 
L 219.720425 193.175943 
L 219.760073 191.078952 
L 219.861073 191.078952 
L 219.861073 190.554704 
L 220.555598 190.554704 
L 220.555598 190.030456 
L 220.66951 190.030456 
L 220.66951 189.506209 
L 221.387585 189.506209 
L 221.449335 188.457713 
L 222.893367 188.457713 
L 222.893367 187.409218 
L 224.909711 187.409218 
L 224.909711 186.88497 
L 225.721671 186.88497 
L 225.721671 185.836474 
L 227.696096 185.836474 
L 227.696096 184.787979 
L 236.45358 184.787979 
L 236.45358 184.263731 
L 256.180689 184.263731 
L 256.180689 183.739484 
L 256.36848 183.739484 
L 256.384435 182.690988 
L 256.48573 182.690988 
L 256.48573 182.16674 
L 256.623007 182.16674 
L 256.623007 181.642493 
L 256.929835 181.642493 
L 256.983572 180.06975 
L 257.926982 180.06975 
L 257.926982 179.545502 
L 261.20174 179.545502 
L 261.20174 178.497006 
L 267.475615 178.497006 
L 267.475615 177.972759 
L 274.086644 177.972759 
L 274.086644 177.448511 
L 274.205119 177.448511 
L 274.205119 176.924263 
L 278.690198 176.924263 
L 278.797558 175.875768 
L 278.887729 175.875768 
L 278.887729 175.35152 
L 279.529131 175.35152 
L 279.529131 174.827272 
L 282.405376 174.827272 
L 282.405376 174.303025 
L 285.459044 174.303025 
L 285.459044 173.778777 
L 288.113934 173.778777 
L 288.113934 173.254529 
L 288.543395 173.254529 
L 288.543395 172.206034 
L 290.358814 172.206034 
L 290.358814 171.681786 
L 292.681057 171.681786 
L 292.681057 171.157538 
L 294.428133 171.157538 
L 294.428133 170.633291 
L 301.001284 170.633291 
L 301.026139 169.584795 
L 302.099261 169.584795 
L 302.099261 169.060547 
L 303.105316 169.060547 
L 303.105316 168.5363 
L 305.026519 168.5363 
L 305.026519 168.012052 
L 306.751304 168.012052 
L 306.751304 167.487804 
L 309.692702 167.487804 
L 309.692702 166.963557 
L 310.499441 166.963557 
L 310.499441 165.915061 
L 312.827343 165.915061 
L 312.827343 165.390813 
L 317.318254 165.390813 
L 317.318254 164.866566 
L 317.829412 164.866566 
L 317.829412 164.342318 
L 320.214175 164.342318 
L 320.214175 163.81807 
L 333.429677 163.81807 
L 333.429677 163.81807 
" style="fill:none;stroke:#ff00ff;stroke-linecap:square;stroke-width:1.5;"/>
   </g>
   <g id="line2d_35">
    <defs>
     <path d="M -0 8.485281 
L 5.091169 0 
L 0 -8.485281 
L -5.091169 -0 
z
" id="m5dee645068" style="stroke:#ff00ff;stroke-linejoin:miter;stroke-width:1.5;"/>
    </defs>
    <g>
     <use style="fill-opacity:0;stroke:#ff00ff;stroke-linejoin:miter;stroke-width:1.5;" x="69.685303" xlink:href="#m5dee645068" y="280.201064"/>
     <use style="fill-opacity:0;stroke:#ff00ff;stroke-linejoin:miter;stroke-width:1.5;" x="162.492604" xlink:href="#m5dee645068" y="268.667614"/>
     <use style="fill-opacity:0;stroke:#ff00ff;stroke-linejoin:miter;stroke-width:1.5;" x="219.861073" xlink:href="#m5dee645068" y="191.078952"/>
     <use style="fill-opacity:0;stroke:#ff00ff;stroke-linejoin:miter;stroke-width:1.5;" x="292.681057" xlink:href="#m5dee645068" y="171.681786"/>
     <use style="fill-opacity:0;stroke:#ff00ff;stroke-linejoin:miter;stroke-width:1.5;" x="320.214175" xlink:href="#m5dee645068" y="163.81807"/>
     <use style="fill-opacity:0;stroke:#ff00ff;stroke-linejoin:miter;stroke-width:1.5;" x="333.429677" xlink:href="#m5dee645068" y="163.81807"/>
    </g>
   </g>
   <g id="line2d_36">
    <path style="fill:none;stroke:#ff00ff;stroke-linecap:square;stroke-width:1.5;"/>
    <g/>
   </g>
   <g id="line2d_37">
    <path clip-path="url(#pfca6690753)" d="M 254.210174 184.263731 
" style="fill:none;stroke:#ff00ff;stroke-linecap:square;stroke-width:1.5;"/>
    <defs>
     <path d="M -12 12 
L 12 -12 
M -12 -12 
L 12 12 
" id="me706068884" style="stroke:#ff00ff;stroke-width:3;"/>
    </defs>
    <g clip-path="url(#pfca6690753)">
     <use style="fill:#ff00ff;stroke:#ff00ff;stroke-width:3;" x="254.210174" xlink:href="#me706068884" y="184.263731"/>
    </g>
   </g>
   <g id="line2d_38">
    <defs>
     <path d="M 0 1.5 
C 0.397805 1.5 0.77937 1.341951 1.06066 1.06066 
C 1.341951 0.77937 1.5 0.397805 1.5 0 
C 1.5 -0.397805 1.341951 -0.77937 1.06066 -1.06066 
C 0.77937 -1.341951 0.397805 -1.5 0 -1.5 
C -0.397805 -1.5 -0.77937 -1.341951 -1.06066 -1.06066 
C -1.341951 -0.77937 -1.5 -0.397805 -1.5 0 
C -1.5 0.397805 -1.341951 0.77937 -1.06066 1.06066 
C -0.77937 1.341951 -0.397805 1.5 0 1.5 
z
" id="m146004f75d" style="stroke:#ffa500;"/>
    </defs>
    <g>
     <use style="fill:#ffa500;stroke:#ffa500;" x="277.491301" xlink:href="#m146004f75d" y="116.635776"/>
     <use style="fill:#ffa500;stroke:#ffa500;" x="277.491301" xlink:href="#m146004f75d" y="116.635776"/>
    </g>
   </g>
   <g id="line2d_39">
    <path d="M 61.283259 294.88 
L 61.283259 293.831505 
L 74.438206 293.831505 
L 74.438206 293.307257 
L 74.732313 293.307257 
L 74.732313 292.783009 
L 79.088515 292.783009 
L 79.088515 292.258761 
L 79.313418 292.258761 
L 79.313418 291.734514 
L 79.971009 291.734514 
L 79.971009 291.210266 
L 80.395842 291.210266 
L 80.395842 290.686018 
L 81.014047 290.686018 
L 81.014047 289.637523 
L 81.414179 289.637523 
L 81.414179 289.113275 
L 81.805215 289.113275 
L 81.805215 288.589027 
L 81.99745 288.589027 
L 81.99745 287.540532 
L 82.187561 287.540532 
L 82.187561 287.016284 
L 82.92767 287.016284 
L 82.92767 286.492036 
L 83.107827 286.492036 
L 83.107827 285.967789 
L 83.637249 285.967789 
L 83.637249 285.443541 
L 83.810164 285.443541 
L 83.810164 284.919293 
L 83.981358 284.919293 
L 83.981358 283.870798 
L 84.974222 283.870798 
L 84.974222 283.34655 
L 85.449963 283.34655 
L 85.449963 281.773807 
L 85.605664 281.773807 
L 85.605664 281.249559 
L 85.759969 281.249559 
L 85.759969 280.725312 
L 85.912902 280.725312 
L 85.912902 280.201064 
L 86.803007 280.201064 
L 86.803007 279.676816 
L 87.231366 279.676816 
L 87.231366 279.152568 
L 87.511126 279.152568 
L 87.511126 278.628321 
L 87.78641 278.628321 
L 87.78641 278.104073 
L 87.922418 278.104073 
L 87.922418 277.579825 
L 88.191249 277.579825 
L 88.191249 277.055578 
L 88.324106 277.055578 
L 88.324106 276.007082 
L 88.586781 276.007082 
L 88.586781 275.482834 
L 89.100397 275.482834 
L 89.100397 273.910091 
L 89.843168 273.910091 
L 89.843168 272.861596 
L 90.202865 272.861596 
L 90.202865 271.8131 
L 90.321112 271.8131 
L 90.321112 271.288853 
L 90.438552 271.288853 
L 90.438552 270.764605 
L 90.555195 270.764605 
L 90.555195 270.240357 
L 91.680097 270.240357 
L 91.680097 269.716109 
L 91.896513 269.716109 
L 91.896513 269.191862 
L 92.529893 269.191862 
L 92.529893 268.667614 
L 92.838048 268.667614 
L 92.838048 267.094871 
L 93.140781 267.094871 
L 93.140781 266.570623 
L 93.339683 266.570623 
L 93.339683 266.046375 
L 93.827106 266.046375 
L 93.827106 265.522128 
L 94.762383 265.522128 
L 94.762383 263.949385 
L 95.033331 263.949385 
L 95.033331 262.900889 
L 95.211622 262.900889 
L 95.211622 262.376641 
L 95.388083 262.376641 
L 95.388083 261.852394 
L 95.991825 261.852394 
L 95.991825 261.328146 
L 96.32754 261.328146 
L 96.32754 260.803898 
L 96.819141 260.803898 
L 96.819141 260.279651 
L 97.059773 260.279651 
L 97.059773 259.755403 
L 97.453494 259.755403 
L 97.453494 257.134164 
L 97.838406 257.134164 
L 97.838406 256.609917 
L 98.065287 256.609917 
L 98.065287 255.037173 
L 98.436897 255.037173 
L 98.436897 254.512926 
L 98.800649 254.512926 
L 98.872486 252.415935 
L 99.227238 252.415935 
L 99.227238 251.891687 
L 99.643505 251.891687 
L 99.643505 250.318944 
L 99.847922 250.318944 
L 99.915525 248.746201 
L 100.24961 248.746201 
L 100.24961 248.221953 
L 100.446991 248.221953 
L 100.446991 247.173458 
L 100.706692 247.173458 
L 100.706692 246.64921 
L 100.835088 246.64921 
L 100.835088 246.124962 
L 101.277072 246.124962 
L 101.277072 245.076467 
L 101.585964 245.076467 
L 101.585964 244.552219 
L 101.707985 244.552219 
L 101.707985 244.027971 
L 102.128369 244.027971 
L 102.128369 242.979476 
L 102.305437 242.979476 
L 102.305437 241.93098 
L 102.596558 241.93098 
L 102.596558 241.406733 
L 102.939523 241.406733 
L 102.939523 240.882485 
L 103.052343 240.882485 
L 103.108476 238.785494 
L 103.275786 238.785494 
L 103.331196 236.164255 
L 103.551069 236.164255 
L 103.605601 233.543017 
L 103.982562 233.543017 
L 104.035746 231.970274 
L 104.403497 231.970274 
L 104.403497 231.446026 
L 104.55873 231.446026 
L 104.661446 228.824787 
L 104.712575 228.824787 
L 104.763552 227.776292 
L 104.865056 227.776292 
L 104.865056 227.252044 
L 105.116227 227.252044 
L 105.116227 226.727797 
L 105.363783 226.727797 
L 105.363783 225.679301 
L 105.559295 225.679301 
L 105.559295 225.155053 
L 105.75261 225.155053 
L 105.848459 223.058063 
L 105.896184 223.058063 
L 105.896184 222.009567 
L 106.03857 222.009567 
L 106.132843 219.912576 
L 106.319855 219.912576 
L 106.319855 219.388328 
L 106.596615 219.388328 
L 106.596615 218.864081 
L 106.823895 218.864081 
L 106.823895 217.815585 
L 107.313588 217.815585 
L 107.357422 215.718594 
L 107.488258 215.718594 
L 107.53165 214.145851 
L 107.832367 214.145851 
L 107.832367 213.621604 
L 108.169728 213.621604 
L 108.169728 213.097356 
L 108.459588 213.097356 
L 108.459588 212.573108 
L 108.744646 212.573108 
L 108.744646 211.000365 
L 108.865382 211.000365 
L 108.865382 209.95187 
L 109.064745 209.95187 
L 109.064745 208.903374 
L 109.183264 208.903374 
L 109.183264 208.379126 
L 109.300972 208.379126 
L 109.300972 207.330631 
L 109.417879 207.330631 
L 109.417879 206.282136 
L 109.915496 206.282136 
L 109.915496 205.757888 
L 110.288718 205.757888 
L 110.288718 205.23364 
L 110.833797 205.23364 
L 110.905186 203.136649 
L 111.011718 203.136649 
L 111.011718 202.088154 
L 111.465883 202.088154 
L 111.534703 200.515411 
L 112.042258 200.515411 
L 112.042258 199.991163 
L 112.24116 199.991163 
L 112.24116 199.466915 
L 112.372496 199.466915 
L 112.372496 198.41842 
L 112.696514 198.41842 
L 112.696514 196.845677 
L 113.480828 196.845677 
L 113.480828 195.272933 
L 113.724441 195.272933 
L 113.724441 194.748686 
L 114.464231 194.748686 
L 114.464231 194.224438 
L 114.722956 194.224438 
L 114.722956 193.175943 
L 114.977847 193.175943 
L 114.977847 192.127447 
L 115.117839 192.127447 
L 115.117839 191.603199 
L 116.561329 191.603199 
L 116.561329 191.078952 
L 117.362865 191.078952 
L 117.362865 190.030456 
L 117.869282 190.030456 
L 117.869282 188.981961 
L 118.105292 188.981961 
L 118.105292 187.933465 
L 118.522119 187.933465 
L 118.522119 187.409218 
L 118.726806 187.409218 
L 118.726806 186.88497 
L 119.129016 186.88497 
L 119.129016 186.360722 
L 120.302772 186.360722 
L 120.302772 185.312227 
L 121.536482 185.312227 
L 121.536482 184.263731 
L 121.765375 184.263731 
L 121.765375 183.739484 
L 122.379567 183.739484 
L 122.379567 183.215236 
L 123.304974 183.215236 
L 123.304974 182.690988 
L 123.984426 182.690988 
L 123.984426 182.16674 
L 124.117154 182.16674 
L 124.117154 181.642493 
L 125.919949 181.642493 
L 125.919949 181.118245 
L 127.699888 181.118245 
L 127.699888 180.593997 
L 128.690745 180.593997 
L 128.690745 180.06975 
L 128.879742 180.06975 
L 128.879742 179.021254 
L 129.214792 179.021254 
L 129.214792 178.497006 
L 129.615629 178.497006 
L 129.615629 177.448511 
L 129.818533 177.448511 
L 129.818533 176.924263 
L 130.809845 176.924263 
L 130.888074 174.827272 
L 132.155922 174.827272 
L 132.155922 174.303025 
L 133.239736 174.303025 
L 133.239736 173.778777 
L 134.019316 173.778777 
L 134.019316 173.254529 
L 137.076945 173.254529 
L 137.076945 172.730281 
L 137.628283 172.730281 
L 137.628283 172.206034 
L 139.080026 172.206034 
L 139.080026 171.681786 
L 139.83216 171.681786 
L 139.83216 170.633291 
L 140.412338 170.633291 
L 140.412338 170.109043 
L 142.729748 170.109043 
L 142.729748 169.584795 
L 144.323137 169.584795 
L 144.323137 169.060547 
L 144.701947 169.060547 
L 144.701947 168.012052 
L 145.530905 168.012052 
L 145.530905 167.487804 
L 145.762608 167.487804 
L 145.762608 166.963557 
L 146.407924 166.963557 
L 146.407924 166.439309 
L 146.659422 166.439309 
L 146.659422 165.915061 
L 148.372426 165.915061 
L 148.372426 165.390813 
L 152.059973 165.390813 
L 152.072998 162.769575 
L 152.218844 162.769575 
L 152.218844 161.196832 
L 154.091481 161.196832 
L 154.091481 160.672584 
L 156.694761 160.672584 
L 156.694761 160.148336 
L 161.661078 160.148336 
L 161.661078 159.624089 
L 162.460601 159.624089 
L 162.460601 158.051345 
L 162.887691 158.051345 
L 162.887691 157.527098 
L 163.903853 157.527098 
L 163.903853 157.00285 
L 164.823045 157.00285 
L 164.823045 155.954354 
L 165.798517 155.954354 
L 165.798517 154.905859 
L 166.990415 154.905859 
L 167.01365 153.857364 
L 168.003501 153.857364 
L 168.003501 153.333116 
L 171.974445 153.333116 
L 171.974445 152.808868 
L 172.480804 152.808868 
L 172.480804 152.28462 
L 173.521211 152.28462 
L 173.521211 151.236125 
L 175.437098 151.236125 
L 175.437098 150.711877 
L 177.101687 150.711877 
L 177.101687 150.18763 
L 177.747457 150.18763 
L 177.747457 149.663382 
L 180.313441 149.663382 
L 180.321005 148.614886 
L 180.535814 148.614886 
L 180.535814 148.090639 
L 182.556446 148.090639 
L 182.556446 147.042143 
L 182.730987 147.042143 
L 182.750698 145.993648 
L 184.915568 145.993648 
L 184.915568 145.4694 
L 185.399869 145.4694 
L 185.399869 144.945152 
L 186.440589 144.945152 
L 186.440589 144.420905 
L 186.883474 144.420905 
L 186.883474 143.896657 
L 187.576392 143.896657 
L 187.576392 142.848162 
L 189.867271 142.848162 
L 189.867271 142.323914 
L 190.284071 142.323914 
L 190.284071 141.799666 
L 192.240522 141.799666 
L 192.240522 141.275418 
L 192.398344 141.275418 
L 192.398344 140.751171 
L 193.21387 140.751171 
L 193.21387 140.226923 
L 195.248253 140.226923 
L 195.248253 139.702675 
L 197.149028 139.702675 
L 197.149028 139.178427 
L 198.962571 139.178427 
L 198.962571 138.129932 
L 199.572437 138.129932 
L 199.572437 137.605684 
L 205.068485 137.605684 
L 205.068485 137.081437 
L 205.682511 137.081437 
L 205.682511 136.557189 
L 206.505543 136.557189 
L 206.572544 134.984446 
L 207.8665 134.984446 
L 207.8665 134.460198 
L 208.501708 134.460198 
L 208.501708 133.93595 
L 208.77333 133.93595 
L 208.77333 133.411703 
L 209.006863 133.411703 
L 209.006863 132.887455 
L 209.311052 132.887455 
L 209.311052 132.363207 
L 212.771011 132.363207 
L 212.771011 131.314712 
L 213.895115 131.314712 
L 213.895115 130.790464 
L 214.502656 130.790464 
L 214.502656 130.266216 
L 223.945219 130.266216 
L 223.945219 129.741969 
L 224.192245 129.741969 
L 224.192245 129.217721 
L 226.167877 129.217721 
L 226.167877 128.693473 
L 226.468259 128.693473 
L 226.468259 128.169225 
L 231.975365 128.169225 
L 231.975365 127.644978 
L 236.785678 127.644978 
L 236.785678 127.12073 
L 238.264416 127.12073 
L 238.264416 126.596482 
L 241.383568 126.596482 
L 241.383568 126.072235 
L 242.137575 126.072235 
L 242.137575 125.547987 
L 247.139556 125.547987 
L 247.248603 124.499491 
L 247.431367 124.499491 
L 247.431367 123.975244 
L 249.753411 123.975244 
L 249.753411 123.450996 
L 252.376841 123.450996 
L 252.376841 122.926748 
L 255.257023 122.926748 
L 255.257023 122.4025 
L 257.328591 122.4025 
L 257.328591 121.878253 
L 258.279232 121.878253 
L 258.279232 121.354005 
L 259.981678 121.354005 
L 259.981678 120.829757 
L 261.129408 120.829757 
L 261.169083 119.257014 
L 262.242595 119.257014 
L 262.242595 118.732766 
L 263.323119 118.732766 
L 263.323119 118.208519 
L 264.306782 118.208519 
L 264.306782 117.684271 
L 268.525053 117.684271 
L 268.525053 117.160023 
L 277.491301 117.160023 
L 277.491301 116.635776 
L 333.429677 116.635776 
L 333.429677 116.635776 
" style="fill:none;stroke:#ffa500;stroke-linecap:square;stroke-width:1.5;"/>
   </g>
   <g id="line2d_40">
    <defs>
     <path d="M 0 -6 
L -1.347084 -1.854102 
L -5.706339 -1.854102 
L -2.179628 0.708204 
L -3.526712 4.854102 
L -0 2.291796 
L 3.526712 4.854102 
L 2.179628 0.708204 
L 5.706339 -1.854102 
L 1.347084 -1.854102 
z
" id="m19347306e4" style="stroke:#ffa500;stroke-linejoin:bevel;stroke-width:1.5;"/>
    </defs>
    <g>
     <use style="fill-opacity:0;stroke:#ffa500;stroke-linejoin:bevel;stroke-width:1.5;" x="144.701947" xlink:href="#m19347306e4" y="169.060547"/>
     <use style="fill-opacity:0;stroke:#ffa500;stroke-linejoin:bevel;stroke-width:1.5;" x="242.137575" xlink:href="#m19347306e4" y="125.547987"/>
     <use style="fill-opacity:0;stroke:#ffa500;stroke-linejoin:bevel;stroke-width:1.5;" x="277.491301" xlink:href="#m19347306e4" y="116.635776"/>
     <use style="fill-opacity:0;stroke:#ffa500;stroke-linejoin:bevel;stroke-width:1.5;" x="277.491301" xlink:href="#m19347306e4" y="116.635776"/>
     <use style="fill-opacity:0;stroke:#ffa500;stroke-linejoin:bevel;stroke-width:1.5;" x="333.429677" xlink:href="#m19347306e4" y="116.635776"/>
    </g>
   </g>
   <g id="line2d_41">
    <path style="fill:none;stroke:#ffa500;stroke-linecap:square;stroke-width:1.5;"/>
    <g/>
   </g>
   <g id="line2d_42">
    <path clip-path="url(#pfca6690753)" d="M 214.582759 130.266216 
" style="fill:none;stroke:#ffa500;stroke-linecap:square;stroke-width:1.5;"/>
    <defs>
     <path d="M -12 12 
L 12 -12 
M -12 -12 
L 12 12 
" id="m91f3a545af" style="stroke:#ffa500;stroke-width:3;"/>
    </defs>
    <g clip-path="url(#pfca6690753)">
     <use style="fill:#ffa500;stroke:#ffa500;stroke-width:3;" x="214.582759" xlink:href="#m91f3a545af" y="130.266216"/>
    </g>
   </g>
   <g id="line2d_43">
    <defs>
     <path d="M 0 1.5 
C 0.397805 1.5 0.77937 1.341951 1.06066 1.06066 
C 1.341951 0.77937 1.5 0.397805 1.5 0 
C 1.5 -0.397805 1.341951 -0.77937 1.06066 -1.06066 
C 0.77937 -1.341951 0.397805 -1.5 0 -1.5 
C -0.397805 -1.5 -0.77937 -1.341951 -1.06066 -1.06066 
C -1.341951 -0.77937 -1.5 -0.397805 -1.5 0 
C -1.5 0.397805 -1.341951 0.77937 -1.06066 1.06066 
C -0.77937 1.341951 -0.397805 1.5 0 1.5 
z
" id="m8bb2ea6134" style="stroke:#6495ed;"/>
    </defs>
    <g>
     <use style="fill:#6495ed;stroke:#6495ed;" x="138.125933" xlink:href="#m8bb2ea6134" y="273.910091"/>
     <use style="fill:#6495ed;stroke:#6495ed;" x="138.125933" xlink:href="#m8bb2ea6134" y="273.910091"/>
    </g>
   </g>
   <g id="line2d_44">
    <path d="M 4.578827 294.88 
L 4.578827 283.34655 
L 23.480305 283.34655 
L 23.480305 282.298055 
L 35.405809 282.298055 
L 35.405809 281.773807 
L 53.323884 281.773807 
L 53.323884 281.249559 
L 80.395842 281.249559 
L 80.395842 279.152568 
L 92.216118 279.152568 
L 92.216118 278.104073 
L 97.218344 278.104073 
L 97.218344 277.579825 
L 104.088765 277.579825 
L 104.088765 277.055578 
L 107.917329 277.055578 
L 107.917329 276.53133 
L 113.694177 276.53133 
L 113.694177 276.007082 
L 118.011276 276.007082 
L 118.011276 274.958587 
L 124.330678 274.958587 
L 124.330678 274.434339 
L 138.125933 274.434339 
L 138.125933 273.910091 
L 333.429677 273.910091 
" style="fill:none;stroke:#6495ed;stroke-linecap:square;stroke-width:1.5;"/>
   </g>
   <g id="line2d_45">
    <defs>
     <path d="M -0 6 
L 6 -6 
L -6 -6 
z
" id="me0856e1c1f" style="stroke:#6495ed;stroke-linejoin:miter;stroke-width:1.5;"/>
    </defs>
    <g>
     <use style="fill-opacity:0;stroke:#6495ed;stroke-linejoin:miter;stroke-width:1.5;" x="118.011276" xlink:href="#me0856e1c1f" y="276.007082"/>
     <use style="fill-opacity:0;stroke:#6495ed;stroke-linejoin:miter;stroke-width:1.5;" x="138.125933" xlink:href="#me0856e1c1f" y="274.434339"/>
     <use style="fill-opacity:0;stroke:#6495ed;stroke-linejoin:miter;stroke-width:1.5;" x="138.125933" xlink:href="#me0856e1c1f" y="273.910091"/>
     <use style="fill-opacity:0;stroke:#6495ed;stroke-linejoin:miter;stroke-width:1.5;" x="138.125933" xlink:href="#me0856e1c1f" y="273.910091"/>
     <use style="fill-opacity:0;stroke:#6495ed;stroke-linejoin:miter;stroke-width:1.5;" x="333.429677" xlink:href="#me0856e1c1f" y="273.910091"/>
    </g>
   </g>
   <g id="line2d_46">
    <path style="fill:none;stroke:#6495ed;stroke-linecap:square;stroke-width:1.5;"/>
    <g/>
   </g>
   <g id="line2d_47">
    <path clip-path="url(#pfca6690753)" d="M 80.184737 281.249559 
" style="fill:none;stroke:#6495ed;stroke-linecap:square;stroke-width:1.5;"/>
    <defs>
     <path d="M -12 12 
L 12 -12 
M -12 -12 
L 12 12 
" id="m17bcd850cc" style="stroke:#6495ed;stroke-width:3;"/>
    </defs>
    <g clip-path="url(#pfca6690753)">
     <use style="fill:#6495ed;stroke:#6495ed;stroke-width:3;" x="80.184737" xlink:href="#m17bcd850cc" y="281.249559"/>
    </g>
   </g>
   <g id="line2d_48">
    <path d="M 333.429677 273.910091 
L 363.933742 289.532673 
" style="fill:none;stroke:#6495ed;stroke-linecap:square;stroke-width:1.5;"/>
    <g>
     <use style="fill-opacity:0;stroke:#6495ed;stroke-linejoin:miter;stroke-width:1.5;" x="333.429677" xlink:href="#me0856e1c1f" y="273.910091"/>
     <use style="fill-opacity:0;stroke:#6495ed;stroke-linejoin:miter;stroke-width:1.5;" x="363.933742" xlink:href="#me0856e1c1f" y="289.532673"/>
    </g>
   </g>
   <g id="line2d_49">
    <path d="M 333.429677 163.81807 
L 363.933742 225.364752 
" style="fill:none;stroke:#ff00ff;stroke-linecap:square;stroke-width:1.5;"/>
    <g>
     <use style="fill-opacity:0;stroke:#ff00ff;stroke-linejoin:miter;stroke-width:1.5;" x="333.429677" xlink:href="#m5dee645068" y="163.81807"/>
     <use style="fill-opacity:0;stroke:#ff00ff;stroke-linejoin:miter;stroke-width:1.5;" x="363.933742" xlink:href="#m5dee645068" y="225.364752"/>
    </g>
   </g>
   <g id="line2d_50">
    <path d="M 333.429677 116.635776 
L 363.933742 161.196832 
" style="fill:none;stroke:#ffa500;stroke-linecap:square;stroke-width:1.5;"/>
    <g>
     <use style="fill-opacity:0;stroke:#ffa500;stroke-linejoin:bevel;stroke-width:1.5;" x="333.429677" xlink:href="#m19347306e4" y="116.635776"/>
     <use style="fill-opacity:0;stroke:#ffa500;stroke-linejoin:bevel;stroke-width:1.5;" x="363.933742" xlink:href="#m19347306e4" y="161.196832"/>
    </g>
   </g>
   <g id="line2d_51">
    <path d="M 333.429677 95.665867 
L 363.933742 97.028911 
" style="fill:none;stroke:#000080;stroke-linecap:square;stroke-width:1.5;"/>
    <g>
     <use style="fill-opacity:0;stroke:#000080;stroke-width:1.5;" x="333.429677" xlink:href="#m65c4e7e5ce" y="95.665867"/>
     <use style="fill-opacity:0;stroke:#000080;stroke-width:1.5;" x="363.933742" xlink:href="#m65c4e7e5ce" y="97.028911"/>
    </g>
   </g>
   <g id="line2d_52">
    <path d="M 333.429677 294.88 
L 333.429677 27.513663 
" style="fill:none;stroke:#000000;stroke-linecap:square;stroke-width:1.5;"/>
   </g>
   <g id="patch_3">
    <path d="M 56.12 294.88 
L 56.12 24.84 
" style="fill:none;stroke:#000000;stroke-linecap:square;stroke-linejoin:miter;stroke-width:0.8;"/>
   </g>
   <g id="patch_4">
    <path d="M 399.984 294.88 
L 399.984 24.84 
" style="fill:none;stroke:#000000;stroke-linecap:square;stroke-linejoin:miter;stroke-width:0.8;"/>
   </g>
   <g id="patch_5">
    <path d="M 56.12 294.88 
L 399.984 294.88 
" style="fill:none;stroke:#000000;stroke-linecap:square;stroke-linejoin:miter;stroke-width:0.8;"/>
   </g>
   <g id="patch_6">
    <path d="M 56.12 24.84 
L 399.984 24.84 
" style="fill:none;stroke:#000000;stroke-linecap:square;stroke-linejoin:miter;stroke-width:0.8;"/>
   </g>
   <g id="text_14">
    <!-- hybrid -->
    <defs>
     <path d="M 54.890625 33.015625 
L 54.890625 0 
L 45.90625 0 
L 45.90625 32.71875 
Q 45.90625 40.484375 42.875 44.328125 
Q 39.84375 48.1875 33.796875 48.1875 
Q 26.515625 48.1875 22.3125 43.546875 
Q 18.109375 38.921875 18.109375 30.90625 
L 18.109375 0 
L 9.078125 0 
L 9.078125 75.984375 
L 18.109375 75.984375 
L 18.109375 46.1875 
Q 21.34375 51.125 25.703125 53.5625 
Q 30.078125 56 35.796875 56 
Q 45.21875 56 50.046875 50.171875 
Q 54.890625 44.34375 54.890625 33.015625 
z
" id="DejaVuSans-68"/>
     <path d="M 32.171875 -5.078125 
Q 28.375 -14.84375 24.75 -17.8125 
Q 21.140625 -20.796875 15.09375 -20.796875 
L 7.90625 -20.796875 
L 7.90625 -13.28125 
L 13.1875 -13.28125 
Q 16.890625 -13.28125 18.9375 -11.515625 
Q 21 -9.765625 23.484375 -3.21875 
L 25.09375 0.875 
L 2.984375 54.6875 
L 12.5 54.6875 
L 29.59375 11.921875 
L 46.6875 54.6875 
L 56.203125 54.6875 
z
" id="DejaVuSans-79"/>
     <path d="M 48.6875 27.296875 
Q 48.6875 37.203125 44.609375 42.84375 
Q 40.53125 48.484375 33.40625 48.484375 
Q 26.265625 48.484375 22.1875 42.84375 
Q 18.109375 37.203125 18.109375 27.296875 
Q 18.109375 17.390625 22.1875 11.75 
Q 26.265625 6.109375 33.40625 6.109375 
Q 40.53125 6.109375 44.609375 11.75 
Q 48.6875 17.390625 48.6875 27.296875 
z
M 18.109375 46.390625 
Q 20.953125 51.265625 25.265625 53.625 
Q 29.59375 56 35.59375 56 
Q 45.5625 56 51.78125 48.09375 
Q 58.015625 40.1875 58.015625 27.296875 
Q 58.015625 14.40625 51.78125 6.484375 
Q 45.5625 -1.421875 35.59375 -1.421875 
Q 29.59375 -1.421875 25.265625 0.953125 
Q 20.953125 3.328125 18.109375 8.203125 
L 18.109375 0 
L 9.078125 0 
L 9.078125 75.984375 
L 18.109375 75.984375 
z
" id="DejaVuSans-62"/>
    </defs>
    <g transform="translate(369.479935 294.223611)scale(0.17 -0.17)">
     <use xlink:href="#DejaVuSans-68"/>
     <use x="63.378906" xlink:href="#DejaVuSans-79"/>
     <use x="122.558594" xlink:href="#DejaVuSans-62"/>
     <use x="186.035156" xlink:href="#DejaVuSans-72"/>
     <use x="227.148438" xlink:href="#DejaVuSans-69"/>
     <use x="254.931641" xlink:href="#DejaVuSans-64"/>
    </g>
   </g>
   <g id="text_15">
    <!-- GA -->
    <defs>
     <path d="M 59.515625 10.40625 
L 59.515625 29.984375 
L 43.40625 29.984375 
L 43.40625 38.09375 
L 69.28125 38.09375 
L 69.28125 6.78125 
Q 63.578125 2.734375 56.6875 0.65625 
Q 49.8125 -1.421875 42 -1.421875 
Q 24.90625 -1.421875 15.25 8.5625 
Q 5.609375 18.5625 5.609375 36.375 
Q 5.609375 54.25 15.25 64.234375 
Q 24.90625 74.21875 42 74.21875 
Q 49.125 74.21875 55.546875 72.453125 
Q 61.96875 70.703125 67.390625 67.28125 
L 67.390625 56.78125 
Q 61.921875 61.421875 55.765625 63.765625 
Q 49.609375 66.109375 42.828125 66.109375 
Q 29.4375 66.109375 22.71875 58.640625 
Q 16.015625 51.171875 16.015625 36.375 
Q 16.015625 21.625 22.71875 14.15625 
Q 29.4375 6.6875 42.828125 6.6875 
Q 48.046875 6.6875 52.140625 7.59375 
Q 56.25 8.5 59.515625 10.40625 
z
" id="DejaVuSans-47"/>
     <path d="M 34.1875 63.1875 
L 20.796875 26.90625 
L 47.609375 26.90625 
z
M 28.609375 72.90625 
L 39.796875 72.90625 
L 67.578125 0 
L 57.328125 0 
L 50.6875 18.703125 
L 17.828125 18.703125 
L 11.1875 0 
L 0.78125 0 
z
" id="DejaVuSans-41"/>
    </defs>
    <g transform="translate(369.479935 230.05569)scale(0.17 -0.17)">
     <use xlink:href="#DejaVuSans-47"/>
     <use x="77.490234" xlink:href="#DejaVuSans-41"/>
    </g>
   </g>
   <g id="text_16">
    <!-- Rosenbroc -->
    <defs>
     <path d="M 44.390625 34.1875 
Q 47.5625 33.109375 50.5625 29.59375 
Q 53.5625 26.078125 56.59375 19.921875 
L 66.609375 0 
L 56 0 
L 46.6875 18.703125 
Q 43.0625 26.03125 39.671875 28.421875 
Q 36.28125 30.8125 30.421875 30.8125 
L 19.671875 30.8125 
L 19.671875 0 
L 9.8125 0 
L 9.8125 72.90625 
L 32.078125 72.90625 
Q 44.578125 72.90625 50.734375 67.671875 
Q 56.890625 62.453125 56.890625 51.90625 
Q 56.890625 45.015625 53.6875 40.46875 
Q 50.484375 35.9375 44.390625 34.1875 
z
M 19.671875 64.796875 
L 19.671875 38.921875 
L 32.078125 38.921875 
Q 39.203125 38.921875 42.84375 42.21875 
Q 46.484375 45.515625 46.484375 51.90625 
Q 46.484375 58.296875 42.84375 61.546875 
Q 39.203125 64.796875 32.078125 64.796875 
z
" id="DejaVuSans-52"/>
    </defs>
    <g transform="translate(369.479935 165.887769)scale(0.17 -0.17)">
     <use xlink:href="#DejaVuSans-52"/>
     <use x="69.419922" xlink:href="#DejaVuSans-6f"/>
     <use x="130.601562" xlink:href="#DejaVuSans-73"/>
     <use x="182.701172" xlink:href="#DejaVuSans-65"/>
     <use x="244.224609" xlink:href="#DejaVuSans-6e"/>
     <use x="307.603516" xlink:href="#DejaVuSans-62"/>
     <use x="371.080078" xlink:href="#DejaVuSans-72"/>
     <use x="412.162109" xlink:href="#DejaVuSans-6f"/>
     <use x="473.34375" xlink:href="#DejaVuSans-63"/>
    </g>
   </g>
   <g id="text_17">
    <!-- DASA -->
    <defs>
     <path d="M 19.671875 64.796875 
L 19.671875 8.109375 
L 31.59375 8.109375 
Q 46.6875 8.109375 53.6875 14.9375 
Q 60.6875 21.78125 60.6875 36.53125 
Q 60.6875 51.171875 53.6875 57.984375 
Q 46.6875 64.796875 31.59375 64.796875 
z
M 9.8125 72.90625 
L 30.078125 72.90625 
Q 51.265625 72.90625 61.171875 64.09375 
Q 71.09375 55.28125 71.09375 36.53125 
Q 71.09375 17.671875 61.125 8.828125 
Q 51.171875 0 30.078125 0 
L 9.8125 0 
z
" id="DejaVuSans-44"/>
     <path d="M 53.515625 70.515625 
L 53.515625 60.890625 
Q 47.90625 63.578125 42.921875 64.890625 
Q 37.9375 66.21875 33.296875 66.21875 
Q 25.25 66.21875 20.875 63.09375 
Q 16.5 59.96875 16.5 54.203125 
Q 16.5 49.359375 19.40625 46.890625 
Q 22.3125 44.4375 30.421875 42.921875 
L 36.375 41.703125 
Q 47.40625 39.59375 52.65625 34.296875 
Q 57.90625 29 57.90625 20.125 
Q 57.90625 9.515625 50.796875 4.046875 
Q 43.703125 -1.421875 29.984375 -1.421875 
Q 24.8125 -1.421875 18.96875 -0.25 
Q 13.140625 0.921875 6.890625 3.21875 
L 6.890625 13.375 
Q 12.890625 10.015625 18.65625 8.296875 
Q 24.421875 6.59375 29.984375 6.59375 
Q 38.421875 6.59375 43.015625 9.90625 
Q 47.609375 13.234375 47.609375 19.390625 
Q 47.609375 24.75 44.3125 27.78125 
Q 41.015625 30.8125 33.5 32.328125 
L 27.484375 33.5 
Q 16.453125 35.6875 11.515625 40.375 
Q 6.59375 45.0625 6.59375 53.421875 
Q 6.59375 63.09375 13.40625 68.65625 
Q 20.21875 74.21875 32.171875 74.21875 
Q 37.3125 74.21875 42.625 73.28125 
Q 47.953125 72.359375 53.515625 70.515625 
z
" id="DejaVuSans-53"/>
    </defs>
    <g transform="translate(369.479935 101.719848)scale(0.17 -0.17)">
     <use xlink:href="#DejaVuSans-44"/>
     <use x="76.986328" xlink:href="#DejaVuSans-41"/>
     <use x="145.394531" xlink:href="#DejaVuSans-53"/>
     <use x="208.886719" xlink:href="#DejaVuSans-41"/>
    </g>
   </g>
   <g id="text_18">
    <!-- best 2009 -->
    <defs>
     <path d="M 10.984375 1.515625 
L 10.984375 10.5 
Q 14.703125 8.734375 18.5 7.8125 
Q 22.3125 6.890625 25.984375 6.890625 
Q 35.75 6.890625 40.890625 13.453125 
Q 46.046875 20.015625 46.78125 33.40625 
Q 43.953125 29.203125 39.59375 26.953125 
Q 35.25 24.703125 29.984375 24.703125 
Q 19.046875 24.703125 12.671875 31.3125 
Q 6.296875 37.9375 6.296875 49.421875 
Q 6.296875 60.640625 12.9375 67.421875 
Q 19.578125 74.21875 30.609375 74.21875 
Q 43.265625 74.21875 49.921875 64.515625 
Q 56.59375 54.828125 56.59375 36.375 
Q 56.59375 19.140625 48.40625 8.859375 
Q 40.234375 -1.421875 26.421875 -1.421875 
Q 22.703125 -1.421875 18.890625 -0.6875 
Q 15.09375 0.046875 10.984375 1.515625 
z
M 30.609375 32.421875 
Q 37.25 32.421875 41.125 36.953125 
Q 45.015625 41.5 45.015625 49.421875 
Q 45.015625 57.28125 41.125 61.84375 
Q 37.25 66.40625 30.609375 66.40625 
Q 23.96875 66.40625 20.09375 61.84375 
Q 16.21875 57.28125 16.21875 49.421875 
Q 16.21875 41.5 20.09375 36.953125 
Q 23.96875 32.421875 30.609375 32.421875 
z
" id="DejaVuSans-39"/>
    </defs>
    <g transform="translate(369.479935 37.551928)scale(0.17 -0.17)">
     <use xlink:href="#DejaVuSans-62"/>
     <use x="63.476562" xlink:href="#DejaVuSans-65"/>
     <use x="125" xlink:href="#DejaVuSans-73"/>
     <use x="177.099609" xlink:href="#DejaVuSans-74"/>
     <use x="216.308594" xlink:href="#DejaVuSans-20"/>
     <use x="248.095703" xlink:href="#DejaVuSans-32"/>
     <use x="311.71875" xlink:href="#DejaVuSans-30"/>
     <use x="375.341797" xlink:href="#DejaVuSans-30"/>
     <use x="438.964844" xlink:href="#DejaVuSans-39"/>
    </g>
   </g>
   <g id="text_19">
    <!-- bbob f14, 20-D -->
    <g transform="translate(59.55864 35.290806)scale(0.102 -0.102)">
     <use xlink:href="#DejaVuSans-62"/>
     <use x="63.476562" xlink:href="#DejaVuSans-62"/>
     <use x="126.953125" xlink:href="#DejaVuSans-6f"/>
     <use x="188.134766" xlink:href="#DejaVuSans-62"/>
     <use x="251.611328" xlink:href="#DejaVuSans-20"/>
     <use x="283.398438" xlink:href="#DejaVuSans-66"/>
     <use x="318.603516" xlink:href="#DejaVuSans-31"/>
     <use x="382.226562" xlink:href="#DejaVuSans-34"/>
     <use x="445.849609" xlink:href="#DejaVuSans-2c"/>
     <use x="477.636719" xlink:href="#DejaVuSans-20"/>
     <use x="509.423828" xlink:href="#DejaVuSans-32"/>
     <use x="573.046875" xlink:href="#DejaVuSans-30"/>
     <use x="636.669922" xlink:href="#DejaVuSans-2d"/>
     <use x="672.753906" xlink:href="#DejaVuSans-44"/>
    </g>
    <!-- 51 targets: 100..1e-08 -->
    <defs>
     <path d="M 10.796875 72.90625 
L 49.515625 72.90625 
L 49.515625 64.59375 
L 19.828125 64.59375 
L 19.828125 46.734375 
Q 21.96875 47.46875 24.109375 47.828125 
Q 26.265625 48.1875 28.421875 48.1875 
Q 40.625 48.1875 47.75 41.5 
Q 54.890625 34.8125 54.890625 23.390625 
Q 54.890625 11.625 47.5625 5.09375 
Q 40.234375 -1.421875 26.90625 -1.421875 
Q 22.3125 -1.421875 17.546875 -0.640625 
Q 12.796875 0.140625 7.71875 1.703125 
L 7.71875 11.625 
Q 12.109375 9.234375 16.796875 8.0625 
Q 21.484375 6.890625 26.703125 6.890625 
Q 35.15625 6.890625 40.078125 11.328125 
Q 45.015625 15.765625 45.015625 23.390625 
Q 45.015625 31 40.078125 35.4375 
Q 35.15625 39.890625 26.703125 39.890625 
Q 22.75 39.890625 18.8125 39.015625 
Q 14.890625 38.140625 10.796875 36.28125 
z
" id="DejaVuSans-35"/>
     <path d="M 11.71875 12.40625 
L 22.015625 12.40625 
L 22.015625 0 
L 11.71875 0 
z
M 11.71875 51.703125 
L 22.015625 51.703125 
L 22.015625 39.3125 
L 11.71875 39.3125 
z
" id="DejaVuSans-3a"/>
    </defs>
    <g transform="translate(59.55864 46.712575)scale(0.102 -0.102)">
     <use xlink:href="#DejaVuSans-35"/>
     <use x="63.623047" xlink:href="#DejaVuSans-31"/>
     <use x="127.246094" xlink:href="#DejaVuSans-20"/>
     <use x="159.033203" xlink:href="#DejaVuSans-74"/>
     <use x="198.242188" xlink:href="#DejaVuSans-61"/>
     <use x="259.521484" xlink:href="#DejaVuSans-72"/>
     <use x="300.619141" xlink:href="#DejaVuSans-67"/>
     <use x="364.095703" xlink:href="#DejaVuSans-65"/>
     <use x="425.619141" xlink:href="#DejaVuSans-74"/>
     <use x="464.828125" xlink:href="#DejaVuSans-73"/>
     <use x="516.927734" xlink:href="#DejaVuSans-3a"/>
     <use x="550.619141" xlink:href="#DejaVuSans-20"/>
     <use x="582.40625" xlink:href="#DejaVuSans-31"/>
     <use x="646.029297" xlink:href="#DejaVuSans-30"/>
     <use x="709.652344" xlink:href="#DejaVuSans-30"/>
     <use x="773.275391" xlink:href="#DejaVuSans-2e"/>
     <use x="805.0625" xlink:href="#DejaVuSans-2e"/>
     <use x="836.849609" xlink:href="#DejaVuSans-31"/>
     <use x="900.472656" xlink:href="#DejaVuSans-65"/>
     <use x="961.996094" xlink:href="#DejaVuSans-2d"/>
     <use x="998.080078" xlink:href="#DejaVuSans-30"/>
     <use x="1061.703125" xlink:href="#DejaVuSans-38"/>
    </g>
    <!-- 15 instances -->
    <g transform="translate(59.55864 58.134344)scale(0.102 -0.102)">
     <use xlink:href="#DejaVuSans-31"/>
     <use x="63.623047" xlink:href="#DejaVuSans-35"/>
     <use x="127.246094" xlink:href="#DejaVuSans-20"/>
     <use x="159.033203" xlink:href="#DejaVuSans-69"/>
     <use x="186.816406" xlink:href="#DejaVuSans-6e"/>
     <use x="250.195312" xlink:href="#DejaVuSans-73"/>
     <use x="302.294922" xlink:href="#DejaVuSans-74"/>
     <use x="341.503906" xlink:href="#DejaVuSans-61"/>
     <use x="402.783203" xlink:href="#DejaVuSans-6e"/>
     <use x="466.162109" xlink:href="#DejaVuSans-63"/>
     <use x="521.142578" xlink:href="#DejaVuSans-65"/>
     <use x="582.666016" xlink:href="#DejaVuSans-73"/>
    </g>
   </g>
   <g id="text_20">
    <!-- v-coco-version -->
    <g style="fill:#808080;" transform="translate(191.556688 290.099912)scale(0.1 -0.1)">
     <use xlink:href="#DejaVuSans-76"/>
     <use x="59.148438" xlink:href="#DejaVuSans-2d"/>
     <use x="95.232422" xlink:href="#DejaVuSans-63"/>
     <use x="150.212891" xlink:href="#DejaVuSans-6f"/>
     <use x="211.394531" xlink:href="#DejaVuSans-63"/>
     <use x="266.375" xlink:href="#DejaVuSans-6f"/>
     <use x="327.572266" xlink:href="#DejaVuSans-2d"/>
     <use x="363.625" xlink:href="#DejaVuSans-76"/>
     <use x="422.804688" xlink:href="#DejaVuSans-65"/>
     <use x="484.328125" xlink:href="#DejaVuSans-72"/>
     <use x="525.441406" xlink:href="#DejaVuSans-73"/>
     <use x="577.541016" xlink:href="#DejaVuSans-69"/>
     <use x="605.324219" xlink:href="#DejaVuSans-6f"/>
     <use x="666.505859" xlink:href="#DejaVuSans-6e"/>
    </g>
   </g>
   <g id="text_21">
    <!-- 14 Sum of different powers -->
    <defs>
     <path d="M 4.203125 54.6875 
L 13.1875 54.6875 
L 24.421875 12.015625 
L 35.59375 54.6875 
L 46.1875 54.6875 
L 57.421875 12.015625 
L 68.609375 54.6875 
L 77.59375 54.6875 
L 63.28125 0 
L 52.6875 0 
L 40.921875 44.828125 
L 29.109375 0 
L 18.5 0 
z
" id="DejaVuSans-77"/>
    </defs>
    <g transform="translate(91.591063 18.84)scale(0.2 -0.2)">
     <use xlink:href="#DejaVuSans-31"/>
     <use x="63.623047" xlink:href="#DejaVuSans-34"/>
     <use x="127.246094" xlink:href="#DejaVuSans-20"/>
     <use x="159.033203" xlink:href="#DejaVuSans-53"/>
     <use x="222.509766" xlink:href="#DejaVuSans-75"/>
     <use x="285.888672" xlink:href="#DejaVuSans-6d"/>
     <use x="383.300781" xlink:href="#DejaVuSans-20"/>
     <use x="415.087891" xlink:href="#DejaVuSans-6f"/>
     <use x="476.269531" xlink:href="#DejaVuSans-66"/>
     <use x="511.474609" xlink:href="#DejaVuSans-20"/>
     <use x="543.261719" xlink:href="#DejaVuSans-64"/>
     <use x="606.738281" xlink:href="#DejaVuSans-69"/>
     <use x="634.521484" xlink:href="#DejaVuSans-66"/>
     <use x="669.726562" xlink:href="#DejaVuSans-66"/>
     <use x="704.931641" xlink:href="#DejaVuSans-65"/>
     <use x="766.455078" xlink:href="#DejaVuSans-72"/>
     <use x="807.537109" xlink:href="#DejaVuSans-65"/>
     <use x="869.060547" xlink:href="#DejaVuSans-6e"/>
     <use x="932.439453" xlink:href="#DejaVuSans-74"/>
     <use x="971.648438" xlink:href="#DejaVuSans-20"/>
     <use x="1003.435547" xlink:href="#DejaVuSans-70"/>
     <use x="1066.912109" xlink:href="#DejaVuSans-6f"/>
     <use x="1128.09375" xlink:href="#DejaVuSans-77"/>
     <use x="1209.880859" xlink:href="#DejaVuSans-65"/>
     <use x="1271.404297" xlink:href="#DejaVuSans-72"/>
     <use x="1312.517578" xlink:href="#DejaVuSans-73"/>
    </g>
   </g>
  </g>
 </g>
 <defs>
  <clipPath id="pfca6690753">
   <rect height="270.04" width="343.864" x="56.12" y="24.84"/>
  </clipPath>
 </defs>
</svg>
