<?xml version="1.0" encoding="utf-8" standalone="no"?>
<!DOCTYPE svg PUBLIC "-//W3C//DTD SVG 1.1//EN"
  "http://www.w3.org/Graphics/SVG/1.1/DTD/svg11.dtd">
<!-- Created with matplotlib (http://matplotlib.org/) -->
<svg height="345.6pt" version="1.1" viewBox="0 0 460.8 345.6" width="460.8pt" xmlns="http://www.w3.org/2000/svg" xmlns:xlink="http://www.w3.org/1999/xlink">
 <defs>
  <style type="text/css">
*{stroke-linecap:butt;stroke-linejoin:round;}
  </style>
 </defs>
 <g id="figure_1">
  <g id="patch_1">
   <path d="M 0 345.6 
L 460.8 345.6 
L 460.8 0 
L 0 0 
z
" style="fill:#ffffff;"/>
  </g>
  <g id="axes_1">
   <g id="patch_2">
    <path d="M 56.12 294.88 
L 399.984 294.88 
L 399.984 24.84 
L 56.12 24.84 
z
" style="fill:#ffffff;"/>
   </g>
   <g id="line2d_1">
    <path d="M 37.218523 294.88 
L 37.218523 289.637523 
L 49.144027 289.637523 
L 49.144027 284.395046 
L 56.12 284.395046 
L 56.12 279.152568 
L 72.995036 279.152568 
L 72.995036 273.910091 
L 76.834191 273.910091 
L 76.834191 268.667614 
L 101.110033 268.667614 
L 101.110033 263.425137 
L 108.500601 263.425137 
L 108.500601 258.18266 
L 119.442702 258.18266 
L 119.442702 252.940182 
L 129.050151 252.940182 
L 129.050151 247.697705 
L 131.725909 247.697705 
L 131.725909 242.455228 
L 136.407864 242.455228 
L 136.407864 237.212751 
L 139.687907 237.212751 
L 139.687907 231.970274 
L 141.979724 231.970274 
L 141.979724 226.727797 
L 143.437686 226.727797 
L 143.437686 221.485319 
L 145.495959 221.485319 
L 145.495959 216.242842 
L 146.752794 216.242842 
L 146.752794 211.000365 
L 148.680414 211.000365 
L 148.680414 205.757888 
L 149.020597 205.757888 
L 149.020597 200.515411 
L 149.328752 200.515411 
L 149.328752 195.272933 
L 150.221424 195.272933 
L 150.221424 190.030456 
L 151.988164 190.030456 
L 151.988164 184.787979 
L 160.326158 184.787979 
L 160.326158 179.545502 
L 160.933141 179.545502 
L 160.933141 174.303025 
L 161.39367 174.303025 
L 161.39367 169.060547 
L 162.231295 169.060547 
L 162.231295 163.81807 
L 166.779423 163.81807 
L 166.779423 158.575593 
L 167.243832 158.575593 
L 167.243832 153.333116 
L 167.599501 153.333116 
L 167.599501 148.090639 
L 168.170741 148.090639 
L 168.170741 142.848162 
L 168.674088 142.848162 
L 168.674088 137.605684 
L 169.315136 137.605684 
L 169.315136 132.363207 
L 175.536698 132.363207 
L 175.536698 127.12073 
L 175.779102 127.12073 
L 175.779102 121.878253 
L 175.850072 121.878253 
L 175.850072 116.635776 
L 175.980331 116.635776 
L 175.980331 111.393298 
L 176.098874 111.393298 
L 176.098874 106.150821 
L 176.253898 106.150821 
L 176.253898 100.908344 
L 176.312336 100.908344 
L 176.312336 95.665867 
L 176.375862 95.665867 
L 176.375862 90.42339 
L 176.507459 90.42339 
L 176.507459 85.180912 
L 176.575493 85.180912 
L 176.575493 79.938435 
L 176.690019 79.938435 
L 176.690019 74.695958 
L 176.7263 74.695958 
L 176.7263 69.453481 
L 176.757337 69.453481 
L 176.757337 64.211004 
L 176.783159 64.211004 
L 176.783159 58.968526 
L 176.921929 58.968526 
L 176.921929 53.726049 
L 176.988347 53.726049 
L 176.988347 48.483572 
L 177.074817 48.483572 
L 177.074817 43.241095 
L 177.135594 43.241095 
L 177.135594 37.998618 
L 177.196157 37.998618 
L 177.196157 32.756141 
L 177.256507 32.756141 
L 177.256507 27.513663 
L 333.429677 27.513663 
" style="fill:none;stroke:#f5deb3;stroke-linecap:square;stroke-width:6;"/>
   </g>
   <g id="line2d_2">
    <defs>
     <path d="M -0 7.778175 
L 7.778175 0 
L 0 -7.778175 
L -7.778175 -0 
z
" id="m21f539e92f" style="stroke:#f5deb3;stroke-linejoin:miter;stroke-width:1.5;"/>
    </defs>
    <g>
     <use style="fill:#f5deb3;stroke:#f5deb3;stroke-linejoin:miter;stroke-width:1.5;" x="145.495959" xlink:href="#m21f539e92f" y="216.242842"/>
     <use style="fill:#f5deb3;stroke:#f5deb3;stroke-linejoin:miter;stroke-width:1.5;" x="175.850072" xlink:href="#m21f539e92f" y="121.878253"/>
     <use style="fill:#f5deb3;stroke:#f5deb3;stroke-linejoin:miter;stroke-width:1.5;" x="177.256507" xlink:href="#m21f539e92f" y="32.756141"/>
     <use style="fill:#f5deb3;stroke:#f5deb3;stroke-linejoin:miter;stroke-width:1.5;" x="177.256507" xlink:href="#m21f539e92f" y="27.513663"/>
     <use style="fill:#f5deb3;stroke:#f5deb3;stroke-linejoin:miter;stroke-width:1.5;" x="177.256507" xlink:href="#m21f539e92f" y="27.513663"/>
     <use style="fill:#f5deb3;stroke:#f5deb3;stroke-linejoin:miter;stroke-width:1.5;" x="333.429677" xlink:href="#m21f539e92f" y="27.513663"/>
    </g>
   </g>
   <g id="line2d_3">
    <path style="fill:none;stroke:#f5deb3;stroke-linecap:square;stroke-width:6;"/>
    <g/>
   </g>
   <g id="line2d_4">
    <path d="M 333.429677 27.513663 
L 363.933742 32.86099 
" style="fill:none;stroke:#f5deb3;stroke-linecap:square;stroke-width:6;"/>
    <g>
     <use style="fill:#f5deb3;stroke:#f5deb3;stroke-linejoin:miter;stroke-width:1.5;" x="333.429677" xlink:href="#m21f539e92f" y="27.513663"/>
     <use style="fill:#f5deb3;stroke:#f5deb3;stroke-linejoin:miter;stroke-width:1.5;" x="363.933742" xlink:href="#m21f539e92f" y="32.86099"/>
    </g>
   </g>
   <g id="matplotlib.axis_1">
    <g id="xtick_1">
     <g id="line2d_5">
      <path clip-path="url(#pd424588267)" d="M 56.12 294.88 
L 56.12 24.84 
" style="fill:none;stroke:#b0b0b0;stroke-linecap:square;stroke-width:0.8;"/>
     </g>
     <g id="line2d_6">
      <defs>
       <path d="M 0 0 
L 0 3.5 
" id="m347d4d7835" style="stroke:#000000;stroke-width:0.8;"/>
      </defs>
      <g>
       <use style="stroke:#000000;stroke-width:0.8;" x="56.12" xlink:href="#m347d4d7835" y="294.88"/>
      </g>
     </g>
     <g id="text_1">
      <!-- 0 -->
      <defs>
       <path d="M 31.78125 66.40625 
Q 24.171875 66.40625 20.328125 58.90625 
Q 16.5 51.421875 16.5 36.375 
Q 16.5 21.390625 20.328125 13.890625 
Q 24.171875 6.390625 31.78125 6.390625 
Q 39.453125 6.390625 43.28125 13.890625 
Q 47.125 21.390625 47.125 36.375 
Q 47.125 51.421875 43.28125 58.90625 
Q 39.453125 66.40625 31.78125 66.40625 
z
M 31.78125 74.21875 
Q 44.046875 74.21875 50.515625 64.515625 
Q 56.984375 54.828125 56.984375 36.375 
Q 56.984375 17.96875 50.515625 8.265625 
Q 44.046875 -1.421875 31.78125 -1.421875 
Q 19.53125 -1.421875 13.0625 8.265625 
Q 6.59375 17.96875 6.59375 36.375 
Q 6.59375 54.828125 13.0625 64.515625 
Q 19.53125 74.21875 31.78125 74.21875 
z
" id="DejaVuSans-30"/>
      </defs>
      <g transform="translate(49.7575 317.076875)scale(0.2 -0.2)">
       <use xlink:href="#DejaVuSans-30"/>
      </g>
     </g>
    </g>
    <g id="xtick_2">
     <g id="line2d_7">
      <path clip-path="url(#pd424588267)" d="M 135.351336 294.88 
L 135.351336 24.84 
" style="fill:none;stroke:#b0b0b0;stroke-linecap:square;stroke-width:0.8;"/>
     </g>
     <g id="line2d_8">
      <g>
       <use style="stroke:#000000;stroke-width:0.8;" x="135.351336" xlink:href="#m347d4d7835" y="294.88"/>
      </g>
     </g>
     <g id="text_2">
      <!-- 2 -->
      <defs>
       <path d="M 19.1875 8.296875 
L 53.609375 8.296875 
L 53.609375 0 
L 7.328125 0 
L 7.328125 8.296875 
Q 12.9375 14.109375 22.625 23.890625 
Q 32.328125 33.6875 34.8125 36.53125 
Q 39.546875 41.84375 41.421875 45.53125 
Q 43.3125 49.21875 43.3125 52.78125 
Q 43.3125 58.59375 39.234375 62.25 
Q 35.15625 65.921875 28.609375 65.921875 
Q 23.96875 65.921875 18.8125 64.3125 
Q 13.671875 62.703125 7.8125 59.421875 
L 7.8125 69.390625 
Q 13.765625 71.78125 18.9375 73 
Q 24.125 74.21875 28.421875 74.21875 
Q 39.75 74.21875 46.484375 68.546875 
Q 53.21875 62.890625 53.21875 53.421875 
Q 53.21875 48.921875 51.53125 44.890625 
Q 49.859375 40.875 45.40625 35.40625 
Q 44.1875 33.984375 37.640625 27.21875 
Q 31.109375 20.453125 19.1875 8.296875 
z
" id="DejaVuSans-32"/>
      </defs>
      <g transform="translate(128.988836 317.076875)scale(0.2 -0.2)">
       <use xlink:href="#DejaVuSans-32"/>
      </g>
     </g>
    </g>
    <g id="xtick_3">
     <g id="line2d_9">
      <path clip-path="url(#pd424588267)" d="M 214.582673 294.88 
L 214.582673 24.84 
" style="fill:none;stroke:#b0b0b0;stroke-linecap:square;stroke-width:0.8;"/>
     </g>
     <g id="line2d_10">
      <g>
       <use style="stroke:#000000;stroke-width:0.8;" x="214.582673" xlink:href="#m347d4d7835" y="294.88"/>
      </g>
     </g>
     <g id="text_3">
      <!-- 4 -->
      <defs>
       <path d="M 37.796875 64.3125 
L 12.890625 25.390625 
L 37.796875 25.390625 
z
M 35.203125 72.90625 
L 47.609375 72.90625 
L 47.609375 25.390625 
L 58.015625 25.390625 
L 58.015625 17.1875 
L 47.609375 17.1875 
L 47.609375 0 
L 37.796875 0 
L 37.796875 17.1875 
L 4.890625 17.1875 
L 4.890625 26.703125 
z
" id="DejaVuSans-34"/>
      </defs>
      <g transform="translate(208.220173 317.076875)scale(0.2 -0.2)">
       <use xlink:href="#DejaVuSans-34"/>
      </g>
     </g>
    </g>
    <g id="xtick_4">
     <g id="line2d_11">
      <path clip-path="url(#pd424588267)" d="M 293.814009 294.88 
L 293.814009 24.84 
" style="fill:none;stroke:#b0b0b0;stroke-linecap:square;stroke-width:0.8;"/>
     </g>
     <g id="line2d_12">
      <g>
       <use style="stroke:#000000;stroke-width:0.8;" x="293.814009" xlink:href="#m347d4d7835" y="294.88"/>
      </g>
     </g>
     <g id="text_4">
      <!-- 6 -->
      <defs>
       <path d="M 33.015625 40.375 
Q 26.375 40.375 22.484375 35.828125 
Q 18.609375 31.296875 18.609375 23.390625 
Q 18.609375 15.53125 22.484375 10.953125 
Q 26.375 6.390625 33.015625 6.390625 
Q 39.65625 6.390625 43.53125 10.953125 
Q 47.40625 15.53125 47.40625 23.390625 
Q 47.40625 31.296875 43.53125 35.828125 
Q 39.65625 40.375 33.015625 40.375 
z
M 52.59375 71.296875 
L 52.59375 62.3125 
Q 48.875 64.0625 45.09375 64.984375 
Q 41.3125 65.921875 37.59375 65.921875 
Q 27.828125 65.921875 22.671875 59.328125 
Q 17.53125 52.734375 16.796875 39.40625 
Q 19.671875 43.65625 24.015625 45.921875 
Q 28.375 48.1875 33.59375 48.1875 
Q 44.578125 48.1875 50.953125 41.515625 
Q 57.328125 34.859375 57.328125 23.390625 
Q 57.328125 12.15625 50.6875 5.359375 
Q 44.046875 -1.421875 33.015625 -1.421875 
Q 20.359375 -1.421875 13.671875 8.265625 
Q 6.984375 17.96875 6.984375 36.375 
Q 6.984375 53.65625 15.1875 63.9375 
Q 23.390625 74.21875 37.203125 74.21875 
Q 40.921875 74.21875 44.703125 73.484375 
Q 48.484375 72.75 52.59375 71.296875 
z
" id="DejaVuSans-36"/>
      </defs>
      <g transform="translate(287.451509 317.076875)scale(0.2 -0.2)">
       <use xlink:href="#DejaVuSans-36"/>
      </g>
     </g>
    </g>
    <g id="xtick_5">
     <g id="line2d_13">
      <path clip-path="url(#pd424588267)" d="M 373.045346 294.88 
L 373.045346 24.84 
" style="fill:none;stroke:#b0b0b0;stroke-linecap:square;stroke-width:0.8;"/>
     </g>
     <g id="line2d_14">
      <g>
       <use style="stroke:#000000;stroke-width:0.8;" x="373.045346" xlink:href="#m347d4d7835" y="294.88"/>
      </g>
     </g>
     <g id="text_5">
      <!-- 8 -->
      <defs>
       <path d="M 31.78125 34.625 
Q 24.75 34.625 20.71875 30.859375 
Q 16.703125 27.09375 16.703125 20.515625 
Q 16.703125 13.921875 20.71875 10.15625 
Q 24.75 6.390625 31.78125 6.390625 
Q 38.8125 6.390625 42.859375 10.171875 
Q 46.921875 13.96875 46.921875 20.515625 
Q 46.921875 27.09375 42.890625 30.859375 
Q 38.875 34.625 31.78125 34.625 
z
M 21.921875 38.8125 
Q 15.578125 40.375 12.03125 44.71875 
Q 8.5 49.078125 8.5 55.328125 
Q 8.5 64.0625 14.71875 69.140625 
Q 20.953125 74.21875 31.78125 74.21875 
Q 42.671875 74.21875 48.875 69.140625 
Q 55.078125 64.0625 55.078125 55.328125 
Q 55.078125 49.078125 51.53125 44.71875 
Q 48 40.375 41.703125 38.8125 
Q 48.828125 37.15625 52.796875 32.3125 
Q 56.78125 27.484375 56.78125 20.515625 
Q 56.78125 9.90625 50.3125 4.234375 
Q 43.84375 -1.421875 31.78125 -1.421875 
Q 19.734375 -1.421875 13.25 4.234375 
Q 6.78125 9.90625 6.78125 20.515625 
Q 6.78125 27.484375 10.78125 32.3125 
Q 14.796875 37.15625 21.921875 38.8125 
z
M 18.3125 54.390625 
Q 18.3125 48.734375 21.84375 45.5625 
Q 25.390625 42.390625 31.78125 42.390625 
Q 38.140625 42.390625 41.71875 45.5625 
Q 45.3125 48.734375 45.3125 54.390625 
Q 45.3125 60.0625 41.71875 63.234375 
Q 38.140625 66.40625 31.78125 66.40625 
Q 25.390625 66.40625 21.84375 63.234375 
Q 18.3125 60.0625 18.3125 54.390625 
z
" id="DejaVuSans-38"/>
      </defs>
      <g transform="translate(366.682846 317.076875)scale(0.2 -0.2)">
       <use xlink:href="#DejaVuSans-38"/>
      </g>
     </g>
    </g>
    <g id="text_6">
     <!-- log10(# f-evals / dimension) -->
     <defs>
      <path d="M 9.421875 75.984375 
L 18.40625 75.984375 
L 18.40625 0 
L 9.421875 0 
z
" id="DejaVuSans-6c"/>
      <path d="M 30.609375 48.390625 
Q 23.390625 48.390625 19.1875 42.75 
Q 14.984375 37.109375 14.984375 27.296875 
Q 14.984375 17.484375 19.15625 11.84375 
Q 23.34375 6.203125 30.609375 6.203125 
Q 37.796875 6.203125 41.984375 11.859375 
Q 46.1875 17.53125 46.1875 27.296875 
Q 46.1875 37.015625 41.984375 42.703125 
Q 37.796875 48.390625 30.609375 48.390625 
z
M 30.609375 56 
Q 42.328125 56 49.015625 48.375 
Q 55.71875 40.765625 55.71875 27.296875 
Q 55.71875 13.875 49.015625 6.21875 
Q 42.328125 -1.421875 30.609375 -1.421875 
Q 18.84375 -1.421875 12.171875 6.21875 
Q 5.515625 13.875 5.515625 27.296875 
Q 5.515625 40.765625 12.171875 48.375 
Q 18.84375 56 30.609375 56 
z
" id="DejaVuSans-6f"/>
      <path d="M 45.40625 27.984375 
Q 45.40625 37.75 41.375 43.109375 
Q 37.359375 48.484375 30.078125 48.484375 
Q 22.859375 48.484375 18.828125 43.109375 
Q 14.796875 37.75 14.796875 27.984375 
Q 14.796875 18.265625 18.828125 12.890625 
Q 22.859375 7.515625 30.078125 7.515625 
Q 37.359375 7.515625 41.375 12.890625 
Q 45.40625 18.265625 45.40625 27.984375 
z
M 54.390625 6.78125 
Q 54.390625 -7.171875 48.1875 -13.984375 
Q 42 -20.796875 29.203125 -20.796875 
Q 24.46875 -20.796875 20.265625 -20.09375 
Q 16.0625 -19.390625 12.109375 -17.921875 
L 12.109375 -9.1875 
Q 16.0625 -11.328125 19.921875 -12.34375 
Q 23.78125 -13.375 27.78125 -13.375 
Q 36.625 -13.375 41.015625 -8.765625 
Q 45.40625 -4.15625 45.40625 5.171875 
L 45.40625 9.625 
Q 42.625 4.78125 38.28125 2.390625 
Q 33.9375 0 27.875 0 
Q 17.828125 0 11.671875 7.65625 
Q 5.515625 15.328125 5.515625 27.984375 
Q 5.515625 40.671875 11.671875 48.328125 
Q 17.828125 56 27.875 56 
Q 33.9375 56 38.28125 53.609375 
Q 42.625 51.21875 45.40625 46.390625 
L 45.40625 54.6875 
L 54.390625 54.6875 
z
" id="DejaVuSans-67"/>
      <path d="M 12.40625 8.296875 
L 28.515625 8.296875 
L 28.515625 63.921875 
L 10.984375 60.40625 
L 10.984375 69.390625 
L 28.421875 72.90625 
L 38.28125 72.90625 
L 38.28125 8.296875 
L 54.390625 8.296875 
L 54.390625 0 
L 12.40625 0 
z
" id="DejaVuSans-31"/>
      <path d="M 31 75.875 
Q 24.46875 64.65625 21.28125 53.65625 
Q 18.109375 42.671875 18.109375 31.390625 
Q 18.109375 20.125 21.3125 9.0625 
Q 24.515625 -2 31 -13.1875 
L 23.1875 -13.1875 
Q 15.875 -1.703125 12.234375 9.375 
Q 8.59375 20.453125 8.59375 31.390625 
Q 8.59375 42.28125 12.203125 53.3125 
Q 15.828125 64.359375 23.1875 75.875 
z
" id="DejaVuSans-28"/>
      <path d="M 51.125 44 
L 36.921875 44 
L 32.8125 27.6875 
L 47.125 27.6875 
z
M 43.796875 71.78125 
L 38.71875 51.515625 
L 52.984375 51.515625 
L 58.109375 71.78125 
L 65.921875 71.78125 
L 60.890625 51.515625 
L 76.125 51.515625 
L 76.125 44 
L 58.984375 44 
L 54.984375 27.6875 
L 70.515625 27.6875 
L 70.515625 20.21875 
L 53.078125 20.21875 
L 48 0 
L 40.1875 0 
L 45.21875 20.21875 
L 30.90625 20.21875 
L 25.875 0 
L 18.015625 0 
L 23.09375 20.21875 
L 7.71875 20.21875 
L 7.71875 27.6875 
L 24.90625 27.6875 
L 29 44 
L 13.28125 44 
L 13.28125 51.515625 
L 30.90625 51.515625 
L 35.890625 71.78125 
z
" id="DejaVuSans-23"/>
      <path id="DejaVuSans-20"/>
      <path d="M 37.109375 75.984375 
L 37.109375 68.5 
L 28.515625 68.5 
Q 23.6875 68.5 21.796875 66.546875 
Q 19.921875 64.59375 19.921875 59.515625 
L 19.921875 54.6875 
L 34.71875 54.6875 
L 34.71875 47.703125 
L 19.921875 47.703125 
L 19.921875 0 
L 10.890625 0 
L 10.890625 47.703125 
L 2.296875 47.703125 
L 2.296875 54.6875 
L 10.890625 54.6875 
L 10.890625 58.5 
Q 10.890625 67.625 15.140625 71.796875 
Q 19.390625 75.984375 28.609375 75.984375 
z
" id="DejaVuSans-66"/>
      <path d="M 4.890625 31.390625 
L 31.203125 31.390625 
L 31.203125 23.390625 
L 4.890625 23.390625 
z
" id="DejaVuSans-2d"/>
      <path d="M 56.203125 29.59375 
L 56.203125 25.203125 
L 14.890625 25.203125 
Q 15.484375 15.921875 20.484375 11.0625 
Q 25.484375 6.203125 34.421875 6.203125 
Q 39.59375 6.203125 44.453125 7.46875 
Q 49.3125 8.734375 54.109375 11.28125 
L 54.109375 2.78125 
Q 49.265625 0.734375 44.1875 -0.34375 
Q 39.109375 -1.421875 33.890625 -1.421875 
Q 20.796875 -1.421875 13.15625 6.1875 
Q 5.515625 13.8125 5.515625 26.8125 
Q 5.515625 40.234375 12.765625 48.109375 
Q 20.015625 56 32.328125 56 
Q 43.359375 56 49.78125 48.890625 
Q 56.203125 41.796875 56.203125 29.59375 
z
M 47.21875 32.234375 
Q 47.125 39.59375 43.09375 43.984375 
Q 39.0625 48.390625 32.421875 48.390625 
Q 24.90625 48.390625 20.390625 44.140625 
Q 15.875 39.890625 15.1875 32.171875 
z
" id="DejaVuSans-65"/>
      <path d="M 2.984375 54.6875 
L 12.5 54.6875 
L 29.59375 8.796875 
L 46.6875 54.6875 
L 56.203125 54.6875 
L 35.6875 0 
L 23.484375 0 
z
" id="DejaVuSans-76"/>
      <path d="M 34.28125 27.484375 
Q 23.390625 27.484375 19.1875 25 
Q 14.984375 22.515625 14.984375 16.5 
Q 14.984375 11.71875 18.140625 8.90625 
Q 21.296875 6.109375 26.703125 6.109375 
Q 34.1875 6.109375 38.703125 11.40625 
Q 43.21875 16.703125 43.21875 25.484375 
L 43.21875 27.484375 
z
M 52.203125 31.203125 
L 52.203125 0 
L 43.21875 0 
L 43.21875 8.296875 
Q 40.140625 3.328125 35.546875 0.953125 
Q 30.953125 -1.421875 24.3125 -1.421875 
Q 15.921875 -1.421875 10.953125 3.296875 
Q 6 8.015625 6 15.921875 
Q 6 25.140625 12.171875 29.828125 
Q 18.359375 34.515625 30.609375 34.515625 
L 43.21875 34.515625 
L 43.21875 35.40625 
Q 43.21875 41.609375 39.140625 45 
Q 35.0625 48.390625 27.6875 48.390625 
Q 23 48.390625 18.546875 47.265625 
Q 14.109375 46.140625 10.015625 43.890625 
L 10.015625 52.203125 
Q 14.9375 54.109375 19.578125 55.046875 
Q 24.21875 56 28.609375 56 
Q 40.484375 56 46.34375 49.84375 
Q 52.203125 43.703125 52.203125 31.203125 
z
" id="DejaVuSans-61"/>
      <path d="M 44.28125 53.078125 
L 44.28125 44.578125 
Q 40.484375 46.53125 36.375 47.5 
Q 32.28125 48.484375 27.875 48.484375 
Q 21.1875 48.484375 17.84375 46.4375 
Q 14.5 44.390625 14.5 40.28125 
Q 14.5 37.15625 16.890625 35.375 
Q 19.28125 33.59375 26.515625 31.984375 
L 29.59375 31.296875 
Q 39.15625 29.25 43.1875 25.515625 
Q 47.21875 21.78125 47.21875 15.09375 
Q 47.21875 7.46875 41.1875 3.015625 
Q 35.15625 -1.421875 24.609375 -1.421875 
Q 20.21875 -1.421875 15.453125 -0.5625 
Q 10.6875 0.296875 5.421875 2 
L 5.421875 11.28125 
Q 10.40625 8.6875 15.234375 7.390625 
Q 20.0625 6.109375 24.8125 6.109375 
Q 31.15625 6.109375 34.5625 8.28125 
Q 37.984375 10.453125 37.984375 14.40625 
Q 37.984375 18.0625 35.515625 20.015625 
Q 33.0625 21.96875 24.703125 23.78125 
L 21.578125 24.515625 
Q 13.234375 26.265625 9.515625 29.90625 
Q 5.8125 33.546875 5.8125 39.890625 
Q 5.8125 47.609375 11.28125 51.796875 
Q 16.75 56 26.8125 56 
Q 31.78125 56 36.171875 55.265625 
Q 40.578125 54.546875 44.28125 53.078125 
z
" id="DejaVuSans-73"/>
      <path d="M 25.390625 72.90625 
L 33.6875 72.90625 
L 8.296875 -9.28125 
L 0 -9.28125 
z
" id="DejaVuSans-2f"/>
      <path d="M 45.40625 46.390625 
L 45.40625 75.984375 
L 54.390625 75.984375 
L 54.390625 0 
L 45.40625 0 
L 45.40625 8.203125 
Q 42.578125 3.328125 38.25 0.953125 
Q 33.9375 -1.421875 27.875 -1.421875 
Q 17.96875 -1.421875 11.734375 6.484375 
Q 5.515625 14.40625 5.515625 27.296875 
Q 5.515625 40.1875 11.734375 48.09375 
Q 17.96875 56 27.875 56 
Q 33.9375 56 38.25 53.625 
Q 42.578125 51.265625 45.40625 46.390625 
z
M 14.796875 27.296875 
Q 14.796875 17.390625 18.875 11.75 
Q 22.953125 6.109375 30.078125 6.109375 
Q 37.203125 6.109375 41.296875 11.75 
Q 45.40625 17.390625 45.40625 27.296875 
Q 45.40625 37.203125 41.296875 42.84375 
Q 37.203125 48.484375 30.078125 48.484375 
Q 22.953125 48.484375 18.875 42.84375 
Q 14.796875 37.203125 14.796875 27.296875 
z
" id="DejaVuSans-64"/>
      <path d="M 9.421875 54.6875 
L 18.40625 54.6875 
L 18.40625 0 
L 9.421875 0 
z
M 9.421875 75.984375 
L 18.40625 75.984375 
L 18.40625 64.59375 
L 9.421875 64.59375 
z
" id="DejaVuSans-69"/>
      <path d="M 52 44.1875 
Q 55.375 50.25 60.0625 53.125 
Q 64.75 56 71.09375 56 
Q 79.640625 56 84.28125 50.015625 
Q 88.921875 44.046875 88.921875 33.015625 
L 88.921875 0 
L 79.890625 0 
L 79.890625 32.71875 
Q 79.890625 40.578125 77.09375 44.375 
Q 74.3125 48.1875 68.609375 48.1875 
Q 61.625 48.1875 57.5625 43.546875 
Q 53.515625 38.921875 53.515625 30.90625 
L 53.515625 0 
L 44.484375 0 
L 44.484375 32.71875 
Q 44.484375 40.625 41.703125 44.40625 
Q 38.921875 48.1875 33.109375 48.1875 
Q 26.21875 48.1875 22.15625 43.53125 
Q 18.109375 38.875 18.109375 30.90625 
L 18.109375 0 
L 9.078125 0 
L 9.078125 54.6875 
L 18.109375 54.6875 
L 18.109375 46.1875 
Q 21.1875 51.21875 25.484375 53.609375 
Q 29.78125 56 35.6875 56 
Q 41.65625 56 45.828125 52.96875 
Q 50 49.953125 52 44.1875 
z
" id="DejaVuSans-6d"/>
      <path d="M 54.890625 33.015625 
L 54.890625 0 
L 45.90625 0 
L 45.90625 32.71875 
Q 45.90625 40.484375 42.875 44.328125 
Q 39.84375 48.1875 33.796875 48.1875 
Q 26.515625 48.1875 22.3125 43.546875 
Q 18.109375 38.921875 18.109375 30.90625 
L 18.109375 0 
L 9.078125 0 
L 9.078125 54.6875 
L 18.109375 54.6875 
L 18.109375 46.1875 
Q 21.34375 51.125 25.703125 53.5625 
Q 30.078125 56 35.796875 56 
Q 45.21875 56 50.046875 50.171875 
Q 54.890625 44.34375 54.890625 33.015625 
z
" id="DejaVuSans-6e"/>
      <path d="M 8.015625 75.875 
L 15.828125 75.875 
Q 23.140625 64.359375 26.78125 53.3125 
Q 30.421875 42.28125 30.421875 31.390625 
Q 30.421875 20.453125 26.78125 9.375 
Q 23.140625 -1.703125 15.828125 -13.1875 
L 8.015625 -13.1875 
Q 14.5 -2 17.703125 9.0625 
Q 20.90625 20.125 20.90625 31.390625 
Q 20.90625 42.671875 17.703125 53.65625 
Q 14.5 64.65625 8.015625 75.875 
z
" id="DejaVuSans-29"/>
     </defs>
     <g transform="translate(107.211219 338.153594)scale(0.17 -0.17)">
      <use xlink:href="#DejaVuSans-6c"/>
      <use x="27.783203" xlink:href="#DejaVuSans-6f"/>
      <use x="88.964844" xlink:href="#DejaVuSans-67"/>
      <use x="152.441406" xlink:href="#DejaVuSans-31"/>
      <use x="216.064453" xlink:href="#DejaVuSans-30"/>
      <use x="279.6875" xlink:href="#DejaVuSans-28"/>
      <use x="318.701172" xlink:href="#DejaVuSans-23"/>
      <use x="402.490234" xlink:href="#DejaVuSans-20"/>
      <use x="434.277344" xlink:href="#DejaVuSans-66"/>
      <use x="469.404297" xlink:href="#DejaVuSans-2d"/>
      <use x="505.488281" xlink:href="#DejaVuSans-65"/>
      <use x="567.011719" xlink:href="#DejaVuSans-76"/>
      <use x="626.191406" xlink:href="#DejaVuSans-61"/>
      <use x="687.470703" xlink:href="#DejaVuSans-6c"/>
      <use x="715.253906" xlink:href="#DejaVuSans-73"/>
      <use x="767.353516" xlink:href="#DejaVuSans-20"/>
      <use x="799.140625" xlink:href="#DejaVuSans-2f"/>
      <use x="832.832031" xlink:href="#DejaVuSans-20"/>
      <use x="864.619141" xlink:href="#DejaVuSans-64"/>
      <use x="928.095703" xlink:href="#DejaVuSans-69"/>
      <use x="955.878906" xlink:href="#DejaVuSans-6d"/>
      <use x="1053.291016" xlink:href="#DejaVuSans-65"/>
      <use x="1114.814453" xlink:href="#DejaVuSans-6e"/>
      <use x="1178.193359" xlink:href="#DejaVuSans-73"/>
      <use x="1230.292969" xlink:href="#DejaVuSans-69"/>
      <use x="1258.076172" xlink:href="#DejaVuSans-6f"/>
      <use x="1319.257812" xlink:href="#DejaVuSans-6e"/>
      <use x="1382.636719" xlink:href="#DejaVuSans-29"/>
     </g>
    </g>
   </g>
   <g id="matplotlib.axis_2">
    <g id="ytick_1">
     <g id="line2d_15">
      <path clip-path="url(#pd424588267)" d="M 56.12 294.88 
L 399.984 294.88 
" style="fill:none;stroke:#b0b0b0;stroke-linecap:square;stroke-width:0.8;"/>
     </g>
     <g id="line2d_16">
      <defs>
       <path d="M 0 0 
L -3.5 0 
" id="maa8ba42dbf" style="stroke:#000000;stroke-width:0.8;"/>
      </defs>
      <g>
       <use style="stroke:#000000;stroke-width:0.8;" x="56.12" xlink:href="#maa8ba42dbf" y="294.88"/>
      </g>
     </g>
     <g id="text_7">
      <!-- 0.0 -->
      <defs>
       <path d="M 10.6875 12.40625 
L 21 12.40625 
L 21 0 
L 10.6875 0 
z
" id="DejaVuSans-2e"/>
      </defs>
      <g transform="translate(23.675 300.95875)scale(0.16 -0.16)">
       <use xlink:href="#DejaVuSans-30"/>
       <use x="63.623047" xlink:href="#DejaVuSans-2e"/>
       <use x="95.410156" xlink:href="#DejaVuSans-30"/>
      </g>
     </g>
    </g>
    <g id="ytick_2">
     <g id="line2d_17">
      <path clip-path="url(#pd424588267)" d="M 56.12 241.406733 
L 399.984 241.406733 
" style="fill:none;stroke:#b0b0b0;stroke-linecap:square;stroke-width:0.8;"/>
     </g>
     <g id="line2d_18">
      <g>
       <use style="stroke:#000000;stroke-width:0.8;" x="56.12" xlink:href="#maa8ba42dbf" y="241.406733"/>
      </g>
     </g>
     <g id="text_8">
      <!-- 0.2 -->
      <g transform="translate(23.675 247.485483)scale(0.16 -0.16)">
       <use xlink:href="#DejaVuSans-30"/>
       <use x="63.623047" xlink:href="#DejaVuSans-2e"/>
       <use x="95.410156" xlink:href="#DejaVuSans-32"/>
      </g>
     </g>
    </g>
    <g id="ytick_3">
     <g id="line2d_19">
      <path clip-path="url(#pd424588267)" d="M 56.12 187.933465 
L 399.984 187.933465 
" style="fill:none;stroke:#b0b0b0;stroke-linecap:square;stroke-width:0.8;"/>
     </g>
     <g id="line2d_20">
      <g>
       <use style="stroke:#000000;stroke-width:0.8;" x="56.12" xlink:href="#maa8ba42dbf" y="187.933465"/>
      </g>
     </g>
     <g id="text_9">
      <!-- 0.4 -->
      <g transform="translate(23.675 194.012215)scale(0.16 -0.16)">
       <use xlink:href="#DejaVuSans-30"/>
       <use x="63.623047" xlink:href="#DejaVuSans-2e"/>
       <use x="95.410156" xlink:href="#DejaVuSans-34"/>
      </g>
     </g>
    </g>
    <g id="ytick_4">
     <g id="line2d_21">
      <path clip-path="url(#pd424588267)" d="M 56.12 134.460198 
L 399.984 134.460198 
" style="fill:none;stroke:#b0b0b0;stroke-linecap:square;stroke-width:0.8;"/>
     </g>
     <g id="line2d_22">
      <g>
       <use style="stroke:#000000;stroke-width:0.8;" x="56.12" xlink:href="#maa8ba42dbf" y="134.460198"/>
      </g>
     </g>
     <g id="text_10">
      <!-- 0.6 -->
      <g transform="translate(23.675 140.538948)scale(0.16 -0.16)">
       <use xlink:href="#DejaVuSans-30"/>
       <use x="63.623047" xlink:href="#DejaVuSans-2e"/>
       <use x="95.410156" xlink:href="#DejaVuSans-36"/>
      </g>
     </g>
    </g>
    <g id="ytick_5">
     <g id="line2d_23">
      <path clip-path="url(#pd424588267)" d="M 56.12 80.986931 
L 399.984 80.986931 
" style="fill:none;stroke:#b0b0b0;stroke-linecap:square;stroke-width:0.8;"/>
     </g>
     <g id="line2d_24">
      <g>
       <use style="stroke:#000000;stroke-width:0.8;" x="56.12" xlink:href="#maa8ba42dbf" y="80.986931"/>
      </g>
     </g>
     <g id="text_11">
      <!-- 0.8 -->
      <g transform="translate(23.675 87.065681)scale(0.16 -0.16)">
       <use xlink:href="#DejaVuSans-30"/>
       <use x="63.623047" xlink:href="#DejaVuSans-2e"/>
       <use x="95.410156" xlink:href="#DejaVuSans-38"/>
      </g>
     </g>
    </g>
    <g id="ytick_6">
     <g id="line2d_25">
      <path clip-path="url(#pd424588267)" d="M 56.12 27.513663 
L 399.984 27.513663 
" style="fill:none;stroke:#b0b0b0;stroke-linecap:square;stroke-width:0.8;"/>
     </g>
     <g id="line2d_26">
      <g>
       <use style="stroke:#000000;stroke-width:0.8;" x="56.12" xlink:href="#maa8ba42dbf" y="27.513663"/>
      </g>
     </g>
     <g id="text_12">
      <!-- 1.0 -->
      <g transform="translate(23.675 33.592413)scale(0.16 -0.16)">
       <use xlink:href="#DejaVuSans-31"/>
       <use x="63.623047" xlink:href="#DejaVuSans-2e"/>
       <use x="95.410156" xlink:href="#DejaVuSans-30"/>
      </g>
     </g>
    </g>
    <g id="text_13">
     <!-- Fraction of function,target pairs -->
     <defs>
      <path d="M 9.8125 72.90625 
L 51.703125 72.90625 
L 51.703125 64.59375 
L 19.671875 64.59375 
L 19.671875 43.109375 
L 48.578125 43.109375 
L 48.578125 34.8125 
L 19.671875 34.8125 
L 19.671875 0 
L 9.8125 0 
z
" id="DejaVuSans-46"/>
      <path d="M 41.109375 46.296875 
Q 39.59375 47.171875 37.8125 47.578125 
Q 36.03125 48 33.890625 48 
Q 26.265625 48 22.1875 43.046875 
Q 18.109375 38.09375 18.109375 28.8125 
L 18.109375 0 
L 9.078125 0 
L 9.078125 54.6875 
L 18.109375 54.6875 
L 18.109375 46.1875 
Q 20.953125 51.171875 25.484375 53.578125 
Q 30.03125 56 36.53125 56 
Q 37.453125 56 38.578125 55.875 
Q 39.703125 55.765625 41.0625 55.515625 
z
" id="DejaVuSans-72"/>
      <path d="M 48.78125 52.59375 
L 48.78125 44.1875 
Q 44.96875 46.296875 41.140625 47.34375 
Q 37.3125 48.390625 33.40625 48.390625 
Q 24.65625 48.390625 19.8125 42.84375 
Q 14.984375 37.3125 14.984375 27.296875 
Q 14.984375 17.28125 19.8125 11.734375 
Q 24.65625 6.203125 33.40625 6.203125 
Q 37.3125 6.203125 41.140625 7.25 
Q 44.96875 8.296875 48.78125 10.40625 
L 48.78125 2.09375 
Q 45.015625 0.34375 40.984375 -0.53125 
Q 36.96875 -1.421875 32.421875 -1.421875 
Q 20.0625 -1.421875 12.78125 6.34375 
Q 5.515625 14.109375 5.515625 27.296875 
Q 5.515625 40.671875 12.859375 48.328125 
Q 20.21875 56 33.015625 56 
Q 37.15625 56 41.109375 55.140625 
Q 45.0625 54.296875 48.78125 52.59375 
z
" id="DejaVuSans-63"/>
      <path d="M 18.3125 70.21875 
L 18.3125 54.6875 
L 36.8125 54.6875 
L 36.8125 47.703125 
L 18.3125 47.703125 
L 18.3125 18.015625 
Q 18.3125 11.328125 20.140625 9.421875 
Q 21.96875 7.515625 27.59375 7.515625 
L 36.8125 7.515625 
L 36.8125 0 
L 27.59375 0 
Q 17.1875 0 13.234375 3.875 
Q 9.28125 7.765625 9.28125 18.015625 
L 9.28125 47.703125 
L 2.6875 47.703125 
L 2.6875 54.6875 
L 9.28125 54.6875 
L 9.28125 70.21875 
z
" id="DejaVuSans-74"/>
      <path d="M 8.5 21.578125 
L 8.5 54.6875 
L 17.484375 54.6875 
L 17.484375 21.921875 
Q 17.484375 14.15625 20.5 10.265625 
Q 23.53125 6.390625 29.59375 6.390625 
Q 36.859375 6.390625 41.078125 11.03125 
Q 45.3125 15.671875 45.3125 23.6875 
L 45.3125 54.6875 
L 54.296875 54.6875 
L 54.296875 0 
L 45.3125 0 
L 45.3125 8.40625 
Q 42.046875 3.421875 37.71875 1 
Q 33.40625 -1.421875 27.6875 -1.421875 
Q 18.265625 -1.421875 13.375 4.4375 
Q 8.5 10.296875 8.5 21.578125 
z
M 31.109375 56 
z
" id="DejaVuSans-75"/>
      <path d="M 11.71875 12.40625 
L 22.015625 12.40625 
L 22.015625 4 
L 14.015625 -11.625 
L 7.71875 -11.625 
L 11.71875 4 
z
" id="DejaVuSans-2c"/>
      <path d="M 18.109375 8.203125 
L 18.109375 -20.796875 
L 9.078125 -20.796875 
L 9.078125 54.6875 
L 18.109375 54.6875 
L 18.109375 46.390625 
Q 20.953125 51.265625 25.265625 53.625 
Q 29.59375 56 35.59375 56 
Q 45.5625 56 51.78125 48.09375 
Q 58.015625 40.1875 58.015625 27.296875 
Q 58.015625 14.40625 51.78125 6.484375 
Q 45.5625 -1.421875 35.59375 -1.421875 
Q 29.59375 -1.421875 25.265625 0.953125 
Q 20.953125 3.328125 18.109375 8.203125 
z
M 48.6875 27.296875 
Q 48.6875 37.203125 44.609375 42.84375 
Q 40.53125 48.484375 33.40625 48.484375 
Q 26.265625 48.484375 22.1875 42.84375 
Q 18.109375 37.203125 18.109375 27.296875 
Q 18.109375 17.390625 22.1875 11.75 
Q 26.265625 6.109375 33.40625 6.109375 
Q 40.53125 6.109375 44.609375 11.75 
Q 48.6875 17.390625 48.6875 27.296875 
z
" id="DejaVuSans-70"/>
     </defs>
     <g transform="translate(16.139531 294.999375)rotate(-90)scale(0.17 -0.17)">
      <use xlink:href="#DejaVuSans-46"/>
      <use x="57.410156" xlink:href="#DejaVuSans-72"/>
      <use x="98.523438" xlink:href="#DejaVuSans-61"/>
      <use x="159.802734" xlink:href="#DejaVuSans-63"/>
      <use x="214.783203" xlink:href="#DejaVuSans-74"/>
      <use x="253.992188" xlink:href="#DejaVuSans-69"/>
      <use x="281.775391" xlink:href="#DejaVuSans-6f"/>
      <use x="342.957031" xlink:href="#DejaVuSans-6e"/>
      <use x="406.335938" xlink:href="#DejaVuSans-20"/>
      <use x="438.123047" xlink:href="#DejaVuSans-6f"/>
      <use x="499.304688" xlink:href="#DejaVuSans-66"/>
      <use x="534.509766" xlink:href="#DejaVuSans-20"/>
      <use x="566.296875" xlink:href="#DejaVuSans-66"/>
      <use x="601.501953" xlink:href="#DejaVuSans-75"/>
      <use x="664.880859" xlink:href="#DejaVuSans-6e"/>
      <use x="728.259766" xlink:href="#DejaVuSans-63"/>
      <use x="783.240234" xlink:href="#DejaVuSans-74"/>
      <use x="822.449219" xlink:href="#DejaVuSans-69"/>
      <use x="850.232422" xlink:href="#DejaVuSans-6f"/>
      <use x="911.414062" xlink:href="#DejaVuSans-6e"/>
      <use x="974.792969" xlink:href="#DejaVuSans-2c"/>
      <use x="1006.580078" xlink:href="#DejaVuSans-74"/>
      <use x="1045.789062" xlink:href="#DejaVuSans-61"/>
      <use x="1107.068359" xlink:href="#DejaVuSans-72"/>
      <use x="1148.166016" xlink:href="#DejaVuSans-67"/>
      <use x="1211.642578" xlink:href="#DejaVuSans-65"/>
      <use x="1273.166016" xlink:href="#DejaVuSans-74"/>
      <use x="1312.375" xlink:href="#DejaVuSans-20"/>
      <use x="1344.162109" xlink:href="#DejaVuSans-70"/>
      <use x="1407.638672" xlink:href="#DejaVuSans-61"/>
      <use x="1468.917969" xlink:href="#DejaVuSans-69"/>
      <use x="1496.701172" xlink:href="#DejaVuSans-72"/>
      <use x="1537.814453" xlink:href="#DejaVuSans-73"/>
     </g>
    </g>
   </g>
   <g id="line2d_27">
    <defs>
     <path d="M 0 1.5 
C 0.397805 1.5 0.77937 1.341951 1.06066 1.06066 
C 1.341951 0.77937 1.5 0.397805 1.5 0 
C 1.5 -0.397805 1.341951 -0.77937 1.06066 -1.06066 
C 0.77937 -1.341951 0.397805 -1.5 0 -1.5 
C -0.397805 -1.5 -0.77937 -1.341951 -1.06066 -1.06066 
C -1.341951 -0.77937 -1.5 -0.397805 -1.5 0 
C -1.5 0.397805 -1.341951 0.77937 -1.06066 1.06066 
C -0.77937 1.341951 -0.397805 1.5 0 1.5 
z
" id="m2239036baf" style="stroke:#f5deb3;"/>
    </defs>
    <g>
     <use style="fill:#f5deb3;stroke:#f5deb3;" x="177.256507" xlink:href="#m2239036baf" y="27.513663"/>
     <use style="fill:#f5deb3;stroke:#f5deb3;" x="177.256507" xlink:href="#m2239036baf" y="27.513663"/>
    </g>
   </g>
   <g id="line2d_28">
    <defs>
     <path d="M 0 1.5 
C 0.397805 1.5 0.77937 1.341951 1.06066 1.06066 
C 1.341951 0.77937 1.5 0.397805 1.5 0 
C 1.5 -0.397805 1.341951 -0.77937 1.06066 -1.06066 
C 0.77937 -1.341951 0.397805 -1.5 0 -1.5 
C -0.397805 -1.5 -0.77937 -1.341951 -1.06066 -1.06066 
C -1.341951 -0.77937 -1.5 -0.397805 -1.5 0 
C -1.5 0.397805 -1.341951 0.77937 -1.06066 1.06066 
C -0.77937 1.341951 -0.397805 1.5 0 1.5 
z
" id="m22b3716376" style="stroke:#000080;"/>
    </defs>
    <g>
     <use style="fill:#000080;stroke:#000080;" x="357.894888" xlink:href="#m22b3716376" y="27.513663"/>
     <use style="fill:#000080;stroke:#000080;" x="357.894888" xlink:href="#m22b3716376" y="27.513663"/>
    </g>
   </g>
   <g id="line2d_29">
    <path d="M 37.218523 294.88 
L 37.218523 288.589027 
L 49.144027 288.589027 
L 49.144027 287.540532 
L 68.045504 287.540532 
L 68.045504 285.967789 
L 72.995036 285.967789 
L 72.995036 285.443541 
L 75.021477 285.443541 
L 75.021477 284.395046 
L 87.877201 284.395046 
L 87.877201 283.870798 
L 88.759695 283.870798 
L 88.759695 283.34655 
L 93.922955 283.34655 
L 93.922955 282.822302 
L 97.375467 282.822302 
L 97.375467 280.725312 
L 98.38781 280.725312 
L 98.38781 279.676816 
L 98.872486 279.676816 
L 98.872486 279.152568 
L 100.24961 279.152568 
L 100.24961 277.579825 
L 101.524628 277.579825 
L 101.524628 277.055578 
L 106.778678 277.055578 
L 106.778678 275.482834 
L 111.269386 275.482834 
L 111.269386 274.958587 
L 111.72821 274.958587 
L 111.72821 274.434339 
L 115.01529 274.434339 
L 115.01529 273.910091 
L 115.567365 273.910091 
L 115.567365 273.385844 
L 116.102274 273.385844 
L 116.102274 272.861596 
L 117.773963 272.861596 
L 117.773963 271.8131 
L 120.289014 271.8131 
L 120.289014 269.716109 
L 121.866136 269.716109 
L 121.866136 268.667614 
L 124.428341 268.667614 
L 124.536209 267.619119 
L 124.643404 267.619119 
L 124.643404 266.046375 
L 124.961042 266.046375 
L 124.961042 264.99788 
L 132.076326 264.99788 
L 132.076326 263.949385 
L 133.79164 263.949385 
L 133.854317 261.328146 
L 134.102767 261.328146 
L 134.102767 260.279651 
L 134.468842 260.279651 
L 134.468842 259.755403 
L 135.579219 259.755403 
L 135.579219 259.231155 
L 135.748171 259.231155 
L 135.748171 258.706907 
L 139.821107 258.706907 
L 139.821107 257.658412 
L 140.472062 257.658412 
L 140.472062 257.134164 
L 141.940667 257.134164 
L 141.940667 256.609917 
L 142.212226 256.609917 
L 142.212226 256.085669 
L 143.544882 256.085669 
L 143.544882 255.561421 
L 143.75729 255.561421 
L 143.75729 255.037173 
L 150.627387 255.037173 
L 150.627387 253.46443 
L 152.118505 253.46443 
L 152.118505 252.940182 
L 152.672174 252.940182 
L 152.672174 251.891687 
L 154.779919 251.891687 
L 154.779919 251.367439 
L 158.289641 251.367439 
L 158.289641 250.843192 
L 159.373539 250.843192 
L 159.373539 250.318944 
L 162.171075 250.318944 
L 162.171075 249.794696 
L 163.815261 249.794696 
L 163.815261 249.270448 
L 172.082953 249.270448 
L 172.082953 248.746201 
L 177.983928 248.746201 
L 177.983928 248.221953 
L 178.232378 248.221953 
L 178.232378 247.697705 
L 180.99193 247.697705 
L 180.99193 247.173458 
L 181.248604 247.173458 
L 181.248604 246.64921 
L 187.726475 246.64921 
L 187.726475 246.124962 
L 187.951733 246.124962 
L 187.951733 245.076467 
L 188.259042 245.076467 
L 188.259042 244.552219 
L 189.292107 244.552219 
L 189.292107 243.503724 
L 190.67652 243.503724 
L 190.67652 241.93098 
L 191.723349 241.93098 
L 191.723349 241.406733 
L 193.314848 241.406733 
L 193.407385 239.309742 
L 193.470105 239.309742 
L 193.563758 237.736999 
L 193.811037 237.736999 
L 193.811037 236.688503 
L 195.508281 236.688503 
L 195.508281 236.164255 
L 196.234792 236.164255 
L 196.234792 235.640008 
L 198.449934 235.640008 
L 198.449934 235.11576 
L 198.714473 235.11576 
L 198.714473 234.591512 
L 200.730655 234.591512 
L 200.730655 234.067265 
L 201.072337 234.067265 
L 201.072337 233.543017 
L 207.01334 233.543017 
L 207.01334 233.018769 
L 215.486431 233.018769 
L 215.486431 231.970274 
L 219.15211 231.970274 
L 219.15211 231.446026 
L 220.764064 231.446026 
L 220.810847 228.824787 
L 220.893307 228.824787 
L 220.893307 228.30054 
L 221.281919 228.30054 
L 221.281919 227.776292 
L 221.754428 227.776292 
L 221.792564 226.203549 
L 222.529023 226.203549 
L 222.639965 224.630806 
L 222.67189 224.630806 
L 222.67189 224.106558 
L 223.216162 224.106558 
L 223.316906 223.058063 
L 223.731616 223.058063 
L 223.731616 222.533815 
L 225.812112 222.533815 
L 225.812112 222.009567 
L 227.286872 222.009567 
L 227.286872 220.961072 
L 227.611563 220.961072 
L 227.611563 220.436824 
L 228.071165 220.436824 
L 228.137807 218.339833 
L 228.242084 218.339833 
L 228.306519 214.670099 
L 228.363249 214.670099 
L 228.363249 214.145851 
L 229.838651 214.145851 
L 229.905624 212.573108 
L 234.68622 212.573108 
L 234.696913 211.524613 
L 237.691572 211.524613 
L 237.700851 208.379126 
L 238.443572 208.379126 
L 238.537172 207.330631 
L 238.583001 207.330631 
L 238.583001 206.806383 
L 239.435379 206.806383 
L 239.435379 206.282136 
L 240.010803 206.282136 
L 240.067614 201.563906 
L 240.593927 201.563906 
L 240.593927 201.039658 
L 242.833318 201.039658 
L 242.833318 200.515411 
L 243.441289 200.515411 
L 243.467097 197.894172 
L 246.087107 197.894172 
L 246.087107 197.369924 
L 246.475438 197.369924 
L 246.501652 195.797181 
L 246.994711 195.797181 
L 247.042066 191.603199 
L 247.191371 191.603199 
L 247.191371 190.030456 
L 253.234581 190.030456 
L 253.244525 188.981961 
L 254.620208 188.981961 
L 254.625412 186.360722 
L 254.847412 186.360722 
L 254.847412 185.312227 
L 255.702155 185.312227 
L 255.702155 184.787979 
L 256.331554 184.787979 
L 256.338696 183.739484 
L 257.021531 183.739484 
L 257.021531 183.215236 
L 257.666956 183.215236 
L 257.666956 182.16674 
L 258.732917 182.16674 
L 258.736882 180.06975 
L 258.973176 180.06975 
L 258.973176 179.545502 
L 261.447149 179.545502 
L 261.528954 175.875768 
L 263.101403 175.875768 
L 263.180182 174.827272 
L 264.062809 174.827272 
L 264.148191 164.342318 
L 264.186616 164.342318 
L 264.186616 163.81807 
L 265.109943 163.81807 
L 265.111707 161.721079 
L 265.377125 161.721079 
L 265.424674 160.148336 
L 265.653429 160.148336 
L 265.664682 156.478602 
L 266.903691 156.478602 
L 266.903691 155.954354 
L 268.194148 155.954354 
L 268.244768 154.905859 
L 270.328244 154.905859 
L 270.427088 153.857364 
L 271.238714 153.857364 
L 271.239673 152.28462 
L 271.634177 152.28462 
L 271.634177 150.711877 
L 271.798423 150.711877 
L 271.873373 149.663382 
L 273.742298 149.663382 
L 273.742298 148.090639 
L 273.868351 148.090639 
L 273.934002 143.372409 
L 275.742093 143.372409 
L 275.742093 142.848162 
L 276.616323 142.848162 
L 276.621496 141.799666 
L 278.318257 141.799666 
L 278.325877 132.363207 
L 279.64897 132.363207 
L 279.64897 131.838959 
L 280.208014 131.838959 
L 280.208014 130.266216 
L 285.953514 130.266216 
L 285.953514 129.741969 
L 287.646238 129.741969 
L 287.646238 128.693473 
L 289.651158 128.693473 
L 289.685151 121.354005 
L 289.789473 121.354005 
L 289.789473 120.829757 
L 290.367254 120.829757 
L 290.367254 119.781262 
L 291.216487 119.781262 
L 291.218008 118.208519 
L 292.678209 118.208519 
L 292.678209 117.160023 
L 292.822119 117.160023 
L 292.822119 116.635776 
L 293.059615 116.635776 
L 293.061909 111.393298 
L 294.191886 111.393298 
L 294.228337 108.247812 
L 295.922608 108.247812 
L 295.922608 107.723564 
L 296.624131 107.723564 
L 296.637024 103.529583 
L 296.874695 103.529583 
L 296.875736 102.481087 
L 297.083395 102.481087 
L 297.084452 101.432592 
L 298.508315 101.432592 
L 298.519003 99.859849 
L 299.680327 99.859849 
L 299.681706 95.665867 
L 300.247929 95.665867 
L 300.247949 94.093124 
L 302.254409 94.093124 
L 302.262623 93.044628 
L 303.78394 93.044628 
L 303.801684 88.326399 
L 304.489853 88.326399 
L 304.489853 87.802151 
L 305.181405 87.802151 
L 305.181405 87.277903 
L 305.366867 87.277903 
L 305.366867 86.753656 
L 305.929384 86.753656 
L 305.949582 83.608169 
L 307.201939 83.608169 
L 307.208789 79.414188 
L 307.984027 79.414188 
L 307.984027 78.88994 
L 308.921581 78.88994 
L 308.923008 76.268701 
L 309.255539 76.268701 
L 309.255551 75.220206 
L 310.894789 75.220206 
L 310.894789 74.695958 
L 311.436802 74.695958 
L 311.442087 71.550472 
L 311.892569 71.550472 
L 311.892803 70.501976 
L 312.345472 70.501976 
L 312.391251 69.453481 
L 312.842506 69.453481 
L 312.854781 66.832242 
L 313.230158 66.832242 
L 313.230158 66.307995 
L 313.704156 66.307995 
L 313.708922 62.114013 
L 314.901021 62.114013 
L 314.902105 58.968526 
L 315.137464 58.968526 
L 315.137484 57.395783 
L 316.014318 57.395783 
L 316.014318 56.871536 
L 316.317877 56.871536 
L 316.317877 56.347288 
L 316.718504 56.347288 
L 316.722003 54.250297 
L 317.051738 54.250297 
L 317.051738 53.726049 
L 318.4122 53.726049 
L 318.484299 50.580563 
L 319.329539 50.580563 
L 319.330499 47.435077 
L 319.512748 47.435077 
L 319.51275 46.386581 
L 320.751023 46.386581 
L 320.753973 44.813838 
L 321.015425 44.813838 
L 321.015425 44.28959 
L 322.106224 44.28959 
L 322.107144 42.716847 
L 322.848545 42.716847 
L 322.848545 42.192599 
L 322.997914 42.192599 
L 322.997914 41.668352 
L 324.016134 41.668352 
L 324.016134 41.144104 
L 325.144209 41.144104 
L 325.144887 40.095609 
L 325.768493 40.095609 
L 325.768493 39.571361 
L 325.894617 39.571361 
L 325.894617 39.047113 
L 327.352792 39.047113 
L 327.352792 38.522865 
L 327.725958 38.522865 
L 327.725958 37.998618 
L 328.37319 37.998618 
L 328.3732 36.950122 
L 329.122676 36.950122 
L 329.123771 35.901627 
L 329.96986 35.901627 
L 329.96986 35.377379 
L 330.443032 35.377379 
L 330.539239 34.328884 
L 331.202774 34.328884 
L 331.204294 33.280388 
L 333.057467 33.280388 
L 333.057467 32.756141 
L 333.429677 32.756141 
L 333.429677 32.756141 
" style="fill:none;stroke:#000080;stroke-linecap:square;stroke-width:1.5;"/>
   </g>
   <g id="line2d_30">
    <defs>
     <path d="M 0 6 
C 1.591219 6 3.117479 5.367802 4.242641 4.242641 
C 5.367802 3.117479 6 1.591219 6 0 
C 6 -1.591219 5.367802 -3.117479 4.242641 -4.242641 
C 3.117479 -5.367802 1.591219 -6 0 -6 
C -1.591219 -6 -3.117479 -5.367802 -4.242641 -4.242641 
C -5.367802 -3.117479 -6 -1.591219 -6 0 
C -6 1.591219 -5.367802 3.117479 -4.242641 4.242641 
C -3.117479 5.367802 -1.591219 6 0 6 
z
" id="m6ec662875b" style="stroke:#000080;stroke-width:1.5;"/>
    </defs>
    <g>
     <use style="fill-opacity:0;stroke:#000080;stroke-width:1.5;" x="152.672174" xlink:href="#m6ec662875b" y="251.891687"/>
     <use style="fill-opacity:0;stroke:#000080;stroke-width:1.5;" x="229.905624" xlink:href="#m6ec662875b" y="213.097356"/>
     <use style="fill-opacity:0;stroke:#000080;stroke-width:1.5;" x="271.873373" xlink:href="#m6ec662875b" y="150.18763"/>
     <use style="fill-opacity:0;stroke:#000080;stroke-width:1.5;" x="321.015425" xlink:href="#m6ec662875b" y="44.28959"/>
     <use style="fill-opacity:0;stroke:#000080;stroke-width:1.5;" x="333.057467" xlink:href="#m6ec662875b" y="32.756141"/>
     <use style="fill-opacity:0;stroke:#000080;stroke-width:1.5;" x="333.429677" xlink:href="#m6ec662875b" y="32.756141"/>
    </g>
   </g>
   <g id="line2d_31">
    <path style="fill:none;stroke:#000080;stroke-linecap:square;stroke-width:1.5;"/>
    <g/>
   </g>
   <g id="line2d_32">
    <path clip-path="url(#pd424588267)" d="M 293.814135 111.393298 
" style="fill:none;stroke:#000080;stroke-linecap:square;stroke-width:1.5;"/>
    <defs>
     <path d="M -12 12 
L 12 -12 
M -12 -12 
L 12 12 
" id="m4ee901c830" style="stroke:#000080;stroke-width:3;"/>
    </defs>
    <g clip-path="url(#pd424588267)">
     <use style="fill:#000080;stroke:#000080;stroke-width:3;" x="293.814135" xlink:href="#m4ee901c830" y="111.393298"/>
    </g>
   </g>
   <g id="line2d_33">
    <defs>
     <path d="M 0 1.5 
C 0.397805 1.5 0.77937 1.341951 1.06066 1.06066 
C 1.341951 0.77937 1.5 0.397805 1.5 0 
C 1.5 -0.397805 1.341951 -0.77937 1.06066 -1.06066 
C 0.77937 -1.341951 0.397805 -1.5 0 -1.5 
C -0.397805 -1.5 -0.77937 -1.341951 -1.06066 -1.06066 
C -1.341951 -0.77937 -1.5 -0.397805 -1.5 0 
C -1.5 0.397805 -1.341951 0.77937 -1.06066 1.06066 
C -0.77937 1.341951 -0.397805 1.5 0 1.5 
z
" id="md2098ac944" style="stroke:#ff00ff;"/>
    </defs>
    <g>
     <use style="fill:#ff00ff;stroke:#ff00ff;" x="331.566564" xlink:href="#md2098ac944" y="27.513663"/>
     <use style="fill:#ff00ff;stroke:#ff00ff;" x="331.566564" xlink:href="#md2098ac944" y="27.513663"/>
    </g>
   </g>
   <g id="line2d_34">
    <path d="M 37.218523 294.88 
L 37.218523 287.016284 
L 49.144027 287.016284 
L 49.144027 282.298055 
L 56.12 282.298055 
L 56.12 280.725312 
L 68.045504 280.725312 
L 68.045504 279.676816 
L 70.697646 279.676816 
L 70.697646 274.958587 
L 75.021477 274.958587 
L 75.021477 273.910091 
L 76.834191 273.910091 
L 76.834191 272.861596 
L 78.47399 272.861596 
L 78.47399 272.337348 
L 79.971009 272.337348 
L 79.971009 271.288853 
L 82.623151 271.288853 
L 82.623151 270.764605 
L 83.810164 270.764605 
L 83.810164 270.240357 
L 84.92054 270.240357 
L 84.92054 268.143366 
L 88.759695 268.143366 
L 88.759695 267.619119 
L 95.735668 267.619119 
L 95.735668 266.570623 
L 98.872486 266.570623 
L 98.872486 266.046375 
L 99.802705 266.046375 
L 99.802705 265.522128 
L 101.929467 265.522128 
L 101.929467 264.473632 
L 108.500601 264.473632 
L 108.500601 263.949385 
L 109.559696 263.949385 
L 109.559696 262.900889 
L 112.394288 262.900889 
L 112.394288 260.803898 
L 113.854971 260.803898 
L 113.854971 259.755403 
L 115.20129 259.755403 
L 115.20129 259.231155 
L 120.01151 259.231155 
L 120.01151 257.658412 
L 120.830944 257.658412 
L 120.830944 257.134164 
L 125.680156 257.134164 
L 125.680156 256.609917 
L 127.492869 256.609917 
L 127.492869 255.561421 
L 127.762403 255.561421 
L 127.762403 254.512926 
L 128.202449 254.512926 
L 128.202449 253.988678 
L 129.132668 253.988678 
L 129.132668 252.415935 
L 133.346388 252.415935 
L 133.410705 250.318944 
L 137.755922 250.318944 
L 137.755922 249.794696 
L 139.14455 249.794696 
L 139.14455 248.221953 
L 143.365849 248.221953 
L 143.365849 246.124962 
L 145.400287 246.124962 
L 145.400287 245.076467 
L 146.752794 245.076467 
L 146.752794 242.455228 
L 148.521108 242.455228 
L 148.521108 241.93098 
L 149.706343 241.93098 
L 149.706343 241.406733 
L 152.461328 241.406733 
L 152.461328 239.83399 
L 157.18128 239.83399 
L 157.18128 239.309742 
L 158.304752 239.309742 
L 158.304752 237.736999 
L 159.188002 237.736999 
L 159.188002 237.212751 
L 159.59918 237.212751 
L 159.59918 236.688503 
L 168.616118 236.688503 
L 168.616118 236.164255 
L 171.60157 236.164255 
L 171.60157 234.591512 
L 180.416737 234.591512 
L 180.416737 234.067265 
L 185.187783 234.067265 
L 185.187783 231.970274 
L 186.279548 231.970274 
L 186.279548 230.921778 
L 190.468142 230.921778 
L 190.468142 230.397531 
L 191.295808 230.397531 
L 191.295808 229.349035 
L 192.312971 229.349035 
L 192.312971 227.252044 
L 194.537754 227.252044 
L 194.537754 226.727797 
L 195.617419 226.727797 
L 195.617419 225.679301 
L 199.280572 225.679301 
L 199.280572 225.155053 
L 200.047604 225.155053 
L 200.047604 224.106558 
L 203.352897 224.106558 
L 203.352897 222.533815 
L 203.669413 222.533815 
L 203.669413 222.009567 
L 205.22554 222.009567 
L 205.22554 221.485319 
L 206.008658 221.485319 
L 206.008658 220.961072 
L 207.527375 220.961072 
L 207.527375 220.436824 
L 208.350828 220.436824 
L 208.350828 218.864081 
L 213.371679 218.864081 
L 213.371679 217.815585 
L 214.922812 217.815585 
L 214.922812 217.291338 
L 216.680843 217.291338 
L 216.680843 216.76709 
L 218.14479 216.76709 
L 218.14479 215.194347 
L 218.933946 215.194347 
L 219.002836 213.621604 
L 219.5025 213.621604 
L 219.513269 212.04886 
L 219.702973 212.04886 
L 219.740834 209.95187 
L 220.422353 209.95187 
L 220.422353 209.427622 
L 221.108934 209.427622 
L 221.108934 208.379126 
L 221.326542 208.379126 
L 221.326542 206.806383 
L 221.859569 206.806383 
L 221.859569 205.757888 
L 222.386418 205.757888 
L 222.386418 204.185145 
L 224.032245 204.185145 
L 224.032245 202.088154 
L 224.247452 202.088154 
L 224.247452 201.039658 
L 224.440934 201.039658 
L 224.495817 198.41842 
L 224.876749 198.41842 
L 224.983295 196.845677 
L 225.287028 196.845677 
L 225.307641 195.797181 
L 225.778637 195.797181 
L 225.778637 195.272933 
L 226.710856 195.272933 
L 226.710856 193.70019 
L 227.467078 193.70019 
L 227.467078 192.651695 
L 228.042862 192.651695 
L 228.042862 191.078952 
L 228.249083 191.078952 
L 228.333876 188.981961 
L 228.77457 188.981961 
L 228.77457 188.457713 
L 229.755515 188.457713 
L 229.755515 186.88497 
L 230.196648 186.88497 
L 230.196648 186.360722 
L 230.941864 186.360722 
L 230.941864 185.836474 
L 231.260012 185.836474 
L 231.260012 184.263731 
L 231.503027 184.263731 
L 231.503027 182.690988 
L 232.614328 182.690988 
L 232.614328 181.642493 
L 233.042089 181.642493 
L 233.042089 180.593997 
L 233.995675 180.593997 
L 233.995675 180.06975 
L 234.626756 180.06975 
L 234.626756 177.972759 
L 235.031944 177.972759 
L 235.067375 176.924263 
L 235.510252 176.924263 
L 235.510252 176.400016 
L 236.403745 176.400016 
L 236.455454 174.827272 
L 236.844763 174.827272 
L 236.844763 174.303025 
L 237.292998 174.303025 
L 237.292998 173.778777 
L 237.543942 173.778777 
L 237.550131 171.681786 
L 237.850707 171.681786 
L 237.850707 170.633291 
L 238.479214 170.633291 
L 238.479214 169.584795 
L 240.087942 169.584795 
L 240.087942 169.060547 
L 247.73226 169.060547 
L 247.73226 168.012052 
L 256.316247 168.012052 
L 256.407884 166.439309 
L 256.435955 166.439309 
L 256.435955 165.915061 
L 256.982941 165.915061 
L 257.073044 158.051345 
L 257.425296 158.051345 
L 257.501715 156.478602 
L 257.538122 156.478602 
L 257.538122 154.905859 
L 257.789248 154.905859 
L 257.789248 154.381611 
L 257.911001 154.381611 
L 257.966834 153.333116 
L 258.211733 153.333116 
L 258.318044 149.663382 
L 258.567997 149.663382 
L 258.663555 148.090639 
L 258.692817 148.090639 
L 258.692817 147.042143 
L 259.01926 147.042143 
L 259.033944 145.993648 
L 259.597614 145.993648 
L 259.618385 144.945152 
L 259.749715 144.945152 
L 259.788423 142.848162 
L 259.871475 142.848162 
L 259.871475 141.799666 
L 260.523316 141.799666 
L 260.523316 141.275418 
L 267.614885 141.275418 
L 267.614885 140.751171 
L 268.046388 140.751171 
L 268.141185 139.702675 
L 268.313807 139.702675 
L 268.342187 138.129932 
L 268.476564 138.129932 
L 268.476564 137.081437 
L 268.654536 137.081437 
L 268.740065 136.032941 
L 268.864438 136.032941 
L 268.864438 135.508693 
L 269.074951 135.508693 
L 269.173295 131.314712 
L 269.221478 131.314712 
L 269.221478 130.790464 
L 269.603028 130.790464 
L 269.603028 128.693473 
L 271.252575 128.693473 
L 271.252575 128.169225 
L 273.911387 128.169225 
L 273.911387 127.644978 
L 274.129322 127.644978 
L 274.129322 127.12073 
L 274.26811 127.12073 
L 274.328643 124.499491 
L 274.42371 124.499491 
L 274.491459 123.450996 
L 274.585598 123.450996 
L 274.630674 121.878253 
L 274.761448 121.878253 
L 274.761448 121.354005 
L 274.907714 121.354005 
L 274.994712 118.732766 
L 275.210878 118.732766 
L 275.245506 116.635776 
L 275.515222 116.635776 
L 275.515222 116.111528 
L 278.860449 116.111528 
L 278.860449 115.58728 
L 278.995119 115.58728 
L 278.995119 115.063032 
L 279.191378 115.063032 
L 279.225878 111.917546 
L 279.468667 111.917546 
L 279.505277 110.344803 
L 279.612521 110.344803 
L 279.665893 108.247812 
L 282.55344 108.247812 
L 282.662178 107.199317 
L 282.742554 107.199317 
L 282.84888 104.578078 
L 282.906837 104.578078 
L 282.937253 103.529583 
L 283.021233 103.529583 
L 283.021233 103.005335 
L 283.193503 103.005335 
L 283.232797 100.384096 
L 284.162095 100.384096 
L 284.162095 99.859849 
L 285.580567 99.859849 
L 285.683301 97.762858 
L 285.829814 97.762858 
L 285.888794 95.141619 
L 286.130161 95.141619 
L 286.163295 93.044628 
L 286.950327 93.044628 
L 286.950327 91.996133 
L 288.163877 91.996133 
L 288.233449 89.899142 
L 288.37859 89.899142 
L 288.485466 87.802151 
L 288.530402 87.802151 
L 288.530402 86.753656 
L 288.650671 86.753656 
L 288.666535 84.656665 
L 290.487112 84.656665 
L 290.598046 82.035426 
L 290.692022 82.035426 
L 290.715824 80.986931 
L 290.834323 80.986931 
L 290.851397 78.88994 
L 292.554688 78.88994 
L 292.647482 76.268701 
L 292.668729 76.268701 
L 292.779265 74.695958 
L 292.816055 74.695958 
L 292.816055 74.17171 
L 294.206971 74.17171 
L 294.289587 73.123215 
L 294.319429 73.123215 
L 294.363512 72.074719 
L 294.435069 72.074719 
L 294.435069 71.550472 
L 295.789081 71.550472 
L 295.789081 71.026224 
L 296.113459 71.026224 
L 296.113459 69.453481 
L 297.384037 69.453481 
L 297.420935 66.832242 
L 297.550349 66.832242 
L 297.550349 66.307995 
L 298.739549 66.307995 
L 298.739549 65.783747 
L 298.890435 65.783747 
L 298.897824 64.735251 
L 299.990218 64.735251 
L 300.078754 62.638261 
L 300.154574 62.638261 
L 300.154574 62.114013 
L 301.156101 62.114013 
L 301.228507 60.54127 
L 301.284415 60.54127 
L 301.286105 59.492774 
L 302.172008 59.492774 
L 302.270704 57.395783 
L 302.371119 57.395783 
L 302.377154 55.82304 
L 303.278379 55.82304 
L 303.296077 54.774545 
L 303.389649 54.774545 
L 303.389649 54.250297 
L 304.243514 54.250297 
L 304.35223 52.677554 
L 305.08007 52.677554 
L 305.160709 51.104811 
L 305.269839 51.104811 
L 305.269839 50.056315 
L 306.093839 50.056315 
L 306.093839 49.532068 
L 306.86028 49.532068 
L 306.89686 48.483572 
L 307.741037 48.483572 
L 307.741037 47.959324 
L 308.403393 47.959324 
L 308.403393 47.435077 
L 309.18319 47.435077 
L 309.210894 46.386581 
L 309.777117 46.386581 
L 309.876018 45.338086 
L 309.909251 45.338086 
L 309.909251 44.813838 
L 310.565983 44.813838 
L 310.573995 43.241095 
L 311.133793 43.241095 
L 311.133793 42.716847 
L 311.826022 42.716847 
L 311.826022 42.192599 
L 312.35201 42.192599 
L 312.423388 41.144104 
L 313.527679 41.144104 
L 313.527679 40.619856 
L 314.058124 40.619856 
L 314.058124 40.095609 
L 314.559186 40.095609 
L 314.622468 38.522865 
L 315.130246 38.522865 
L 315.130246 37.998618 
L 316.100221 37.998618 
L 316.100221 37.47437 
L 317.019842 37.47437 
L 317.019842 36.950122 
L 317.463537 36.950122 
L 317.463537 36.425875 
L 317.892196 36.425875 
L 317.892196 35.901627 
L 318.267229 35.901627 
L 318.324217 33.804636 
L 319.883552 33.804636 
L 319.883552 33.280388 
L 320.96324 33.280388 
L 320.96324 32.756141 
L 322.371229 32.756141 
L 322.371229 32.231893 
L 322.6988 32.231893 
L 322.6988 31.707645 
L 323.293458 31.707645 
L 323.293458 31.183397 
L 324.236682 31.183397 
L 324.239133 30.134902 
L 326.702539 30.134902 
L 326.702539 29.610654 
L 328.155062 29.610654 
L 328.155062 29.086407 
L 329.524077 29.086407 
L 329.524077 28.562159 
L 330.967615 28.562159 
L 330.967615 28.037911 
L 331.566564 28.037911 
L 331.566564 27.513663 
L 333.429677 27.513663 
L 333.429677 27.513663 
" style="fill:none;stroke:#ff00ff;stroke-linecap:square;stroke-width:1.5;"/>
   </g>
   <g id="line2d_35">
    <defs>
     <path d="M -0 8.485281 
L 5.091169 0 
L 0 -8.485281 
L -5.091169 -0 
z
" id="m0e40cf59c4" style="stroke:#ff00ff;stroke-linejoin:miter;stroke-width:1.5;"/>
    </defs>
    <g>
     <use style="fill-opacity:0;stroke:#ff00ff;stroke-linejoin:miter;stroke-width:1.5;" x="125.680156" xlink:href="#m0e40cf59c4" y="256.609917"/>
     <use style="fill-opacity:0;stroke:#ff00ff;stroke-linejoin:miter;stroke-width:1.5;" x="186.279548" xlink:href="#m0e40cf59c4" y="230.921778"/>
     <use style="fill-opacity:0;stroke:#ff00ff;stroke-linejoin:miter;stroke-width:1.5;" x="247.73226" xlink:href="#m0e40cf59c4" y="169.060547"/>
     <use style="fill-opacity:0;stroke:#ff00ff;stroke-linejoin:miter;stroke-width:1.5;" x="310.573995" xlink:href="#m0e40cf59c4" y="43.765343"/>
     <use style="fill-opacity:0;stroke:#ff00ff;stroke-linejoin:miter;stroke-width:1.5;" x="331.566564" xlink:href="#m0e40cf59c4" y="27.513663"/>
     <use style="fill-opacity:0;stroke:#ff00ff;stroke-linejoin:miter;stroke-width:1.5;" x="333.429677" xlink:href="#m0e40cf59c4" y="27.513663"/>
    </g>
   </g>
   <g id="line2d_36">
    <path style="fill:none;stroke:#ff00ff;stroke-linecap:square;stroke-width:1.5;"/>
    <g/>
   </g>
   <g id="line2d_37">
    <path clip-path="url(#pd424588267)" d="M 254.265881 168.012052 
" style="fill:none;stroke:#ff00ff;stroke-linecap:square;stroke-width:1.5;"/>
    <defs>
     <path d="M -12 12 
L 12 -12 
M -12 -12 
L 12 12 
" id="meec61240b7" style="stroke:#ff00ff;stroke-width:3;"/>
    </defs>
    <g clip-path="url(#pd424588267)">
     <use style="fill:#ff00ff;stroke:#ff00ff;stroke-width:3;" x="254.265881" xlink:href="#meec61240b7" y="168.012052"/>
    </g>
   </g>
   <g id="line2d_38">
    <defs>
     <path d="M 0 1.5 
C 0.397805 1.5 0.77937 1.341951 1.06066 1.06066 
C 1.341951 0.77937 1.5 0.397805 1.5 0 
C 1.5 -0.397805 1.341951 -0.77937 1.06066 -1.06066 
C 0.77937 -1.341951 0.397805 -1.5 0 -1.5 
C -0.397805 -1.5 -0.77937 -1.341951 -1.06066 -1.06066 
C -1.341951 -0.77937 -1.5 -0.397805 -1.5 0 
C -1.5 0.397805 -1.341951 0.77937 -1.06066 1.06066 
C -0.77937 1.341951 -0.397805 1.5 0 1.5 
z
" id="m9ce7330541" style="stroke:#ffa500;"/>
    </defs>
    <g>
     <use style="fill:#ffa500;stroke:#ffa500;" x="276.951097" xlink:href="#m9ce7330541" y="137.605684"/>
     <use style="fill:#ffa500;stroke:#ffa500;" x="276.951097" xlink:href="#m9ce7330541" y="137.605684"/>
    </g>
   </g>
   <g id="line2d_39">
    <path d="M 37.218523 294.88 
L 37.218523 287.016284 
L 49.144027 287.016284 
L 49.144027 283.34655 
L 56.12 283.34655 
L 56.12 282.822302 
L 61.069532 282.822302 
L 61.069532 282.298055 
L 64.908686 282.298055 
L 64.908686 280.201064 
L 68.045504 280.201064 
L 68.045504 278.104073 
L 72.995036 278.104073 
L 72.995036 277.579825 
L 75.021477 277.579825 
L 75.021477 277.055578 
L 76.834191 277.055578 
L 76.834191 276.53133 
L 81.348133 276.53133 
L 81.348133 276.007082 
L 83.810164 276.007082 
L 83.810164 275.482834 
L 87.877201 275.482834 
L 87.877201 274.434339 
L 88.759695 274.434339 
L 88.759695 272.337348 
L 89.599124 272.337348 
L 89.599124 271.288853 
L 93.273637 271.288853 
L 93.273637 270.764605 
L 94.548655 270.764605 
L 94.548655 270.240357 
L 96.846045 270.240357 
L 96.846045 269.716109 
L 97.889083 269.716109 
L 97.889083 269.191862 
L 106.47416 269.191862 
L 106.47416 268.143366 
L 113.450132 268.143366 
L 113.450132 267.619119 
L 128.967235 267.619119 
L 128.967235 267.094871 
L 130.015162 267.094871 
L 130.015162 266.570623 
L 131.440345 266.570623 
L 131.440345 266.046375 
L 133.217027 266.046375 
L 133.217027 265.522128 
L 135.178422 265.522128 
L 135.178422 264.99788 
L 135.522531 264.99788 
L 135.522531 264.473632 
L 136.353845 264.473632 
L 136.353845 263.949385 
L 138.440297 263.949385 
L 138.440297 262.376641 
L 142.668011 262.376641 
L 142.668011 261.852394 
L 143.184934 261.852394 
L 143.184934 261.328146 
L 145.717145 261.328146 
L 145.717145 260.279651 
L 147.334095 260.279651 
L 147.334095 259.231155 
L 147.476402 259.231155 
L 147.476402 258.18266 
L 147.951628 258.18266 
L 147.951628 257.658412 
L 149.928983 257.658412 
L 149.928983 257.134164 
L 153.188256 257.134164 
L 153.188256 256.609917 
L 154.630958 256.609917 
L 154.668319 255.561421 
L 158.766756 255.561421 
L 158.766756 255.037173 
L 158.927755 255.037173 
L 158.927755 254.512926 
L 159.752609 254.512926 
L 159.752609 253.988678 
L 160.123507 253.988678 
L 160.123507 252.940182 
L 161.481804 252.940182 
L 161.481804 251.891687 
L 161.731154 251.891687 
L 161.731154 251.367439 
L 162.446359 251.367439 
L 162.505625 248.746201 
L 164.733356 248.746201 
L 164.733356 247.697705 
L 164.84733 247.697705 
L 164.84733 247.173458 
L 168.102501 247.173458 
L 168.102501 246.64921 
L 174.419292 246.64921 
L 174.419292 246.124962 
L 174.683672 246.124962 
L 174.683672 245.600714 
L 176.834686 245.600714 
L 176.875797 244.027971 
L 176.962832 244.027971 
L 176.962832 242.979476 
L 177.170948 242.979476 
L 177.170948 242.455228 
L 178.012779 242.455228 
L 178.012779 241.93098 
L 178.570568 241.93098 
L 178.570568 241.406733 
L 183.060521 241.406733 
L 183.103462 239.83399 
L 184.025403 239.83399 
L 184.025403 238.785494 
L 187.517595 238.785494 
L 187.600351 236.164255 
L 188.560959 236.164255 
L 188.605144 234.067265 
L 191.020561 234.067265 
L 191.072366 232.494521 
L 192.066385 232.494521 
L 192.104552 231.446026 
L 194.118987 231.446026 
L 194.118987 230.921778 
L 195.039685 230.921778 
L 195.039685 230.397531 
L 195.92209 230.397531 
L 195.940742 228.824787 
L 196.122806 228.824787 
L 196.122806 228.30054 
L 196.923862 228.30054 
L 196.923862 227.252044 
L 197.754981 227.252044 
L 197.754981 226.727797 
L 199.425116 226.727797 
L 199.447247 223.058063 
L 206.098103 223.058063 
L 206.147802 216.76709 
L 207.416398 216.76709 
L 207.431178 214.145851 
L 210.213558 214.145851 
L 210.225383 210.476117 
L 214.41555 210.476117 
L 214.41555 209.95187 
L 214.601588 209.95187 
L 214.602161 208.379126 
L 216.695051 208.379126 
L 216.695051 207.854879 
L 221.742327 207.854879 
L 221.742327 207.330631 
L 222.655038 207.330631 
L 222.663286 205.757888 
L 222.784053 205.757888 
L 222.880626 203.136649 
L 222.957637 203.136649 
L 222.959047 202.088154 
L 223.295836 202.088154 
L 223.297219 201.039658 
L 224.47453 201.039658 
L 224.47453 200.515411 
L 224.664531 200.515411 
L 224.664531 199.991163 
L 225.316862 199.991163 
L 225.316862 199.466915 
L 225.817784 199.466915 
L 225.817784 198.942667 
L 226.200048 198.942667 
L 226.200048 198.41842 
L 228.549905 198.41842 
L 228.549905 197.894172 
L 230.187389 197.894172 
L 230.20197 196.845677 
L 230.454813 196.845677 
L 230.553015 195.272933 
L 230.570007 195.272933 
L 230.570007 194.748686 
L 230.753131 194.748686 
L 230.753131 194.224438 
L 231.093657 194.224438 
L 231.175396 193.175943 
L 231.410762 193.175943 
L 231.410762 192.651695 
L 232.728563 192.651695 
L 232.728563 192.127447 
L 232.93703 192.127447 
L 232.93703 191.603199 
L 233.279539 191.603199 
L 233.279539 191.078952 
L 234.42306 191.078952 
L 234.42306 190.554704 
L 236.089201 190.554704 
L 236.089201 190.030456 
L 236.289793 190.030456 
L 236.328401 188.981961 
L 236.449984 188.981961 
L 236.521594 187.409218 
L 236.615073 187.409218 
L 236.721513 185.312227 
L 236.902532 185.312227 
L 236.973535 184.263731 
L 238.225829 184.263731 
L 238.29968 183.215236 
L 238.385153 183.215236 
L 238.385153 182.690988 
L 238.754271 182.690988 
L 238.754271 182.16674 
L 240.421847 182.16674 
L 240.421847 181.642493 
L 240.685238 181.642493 
L 240.759794 180.06975 
L 240.880728 180.06975 
L 240.880728 179.545502 
L 241.060735 179.545502 
L 241.060735 179.021254 
L 241.540963 179.021254 
L 241.540963 178.497006 
L 241.915886 178.497006 
L 241.915886 177.972759 
L 242.193857 177.972759 
L 242.280176 176.924263 
L 242.701474 176.924263 
L 242.701474 176.400016 
L 243.661286 176.400016 
L 243.738668 175.35152 
L 243.973838 175.35152 
L 244.01452 173.778777 
L 244.158721 173.778777 
L 244.158721 173.254529 
L 244.310286 173.254529 
L 244.310286 172.730281 
L 246.249174 172.730281 
L 246.249174 172.206034 
L 246.832861 172.206034 
L 246.899256 170.109043 
L 246.952731 170.109043 
L 246.952731 169.584795 
L 248.013144 169.584795 
L 248.013144 169.060547 
L 249.313531 169.060547 
L 249.420609 166.963557 
L 249.475786 166.963557 
L 249.475786 166.439309 
L 251.379337 166.439309 
L 251.447101 164.342318 
L 251.533759 164.342318 
L 251.593581 162.769575 
L 252.047403 162.769575 
L 252.047403 162.245327 
L 253.340098 162.245327 
L 253.340098 161.721079 
L 253.493375 161.721079 
L 253.494809 160.672584 
L 254.843159 160.672584 
L 254.945051 158.051345 
L 255.106723 158.051345 
L 255.106723 157.527098 
L 255.899499 157.527098 
L 255.899499 157.00285 
L 256.310466 157.00285 
L 256.310466 156.478602 
L 256.667734 156.478602 
L 256.667734 155.954354 
L 256.840501 155.954354 
L 256.895452 154.905859 
L 257.637209 154.905859 
L 257.637209 154.381611 
L 257.929801 154.381611 
L 257.929801 153.857364 
L 258.512611 153.857364 
L 258.512611 153.333116 
L 259.098682 153.333116 
L 259.19615 152.28462 
L 259.280483 152.28462 
L 259.38724 150.711877 
L 260.25068 150.711877 
L 260.308835 149.663382 
L 261.560834 149.663382 
L 261.560834 149.139134 
L 261.740678 149.139134 
L 261.740678 148.614886 
L 262.323966 148.614886 
L 262.323966 148.090639 
L 262.603837 148.090639 
L 262.711552 147.042143 
L 263.531958 147.042143 
L 263.543356 145.993648 
L 264.606293 145.993648 
L 264.606293 145.4694 
L 265.182755 145.4694 
L 265.182755 144.945152 
L 265.809789 144.945152 
L 265.809789 144.420905 
L 266.234546 144.420905 
L 266.33358 142.848162 
L 267.066384 142.848162 
L 267.156652 141.799666 
L 267.246825 141.799666 
L 267.246825 141.275418 
L 268.783654 141.275418 
L 268.783654 140.751171 
L 270.782777 140.751171 
L 270.782777 140.226923 
L 272.550093 140.226923 
L 272.550093 139.702675 
L 273.211022 139.702675 
L 273.211022 139.178427 
L 273.899858 139.178427 
L 273.899858 138.65418 
L 274.667658 138.65418 
L 274.667658 138.129932 
L 276.951097 138.129932 
L 276.951097 137.605684 
L 333.429677 137.605684 
L 333.429677 137.605684 
" style="fill:none;stroke:#ffa500;stroke-linecap:square;stroke-width:1.5;"/>
   </g>
   <g id="line2d_40">
    <defs>
     <path d="M 0 -6 
L -1.347084 -1.854102 
L -5.706339 -1.854102 
L -2.179628 0.708204 
L -3.526712 4.854102 
L -0 2.291796 
L 3.526712 4.854102 
L 2.179628 0.708204 
L 5.706339 -1.854102 
L 1.347084 -1.854102 
z
" id="me4b7dbca86" style="stroke:#ffa500;stroke-linejoin:bevel;stroke-width:1.5;"/>
    </defs>
    <g>
     <use style="fill-opacity:0;stroke:#ffa500;stroke-linejoin:bevel;stroke-width:1.5;" x="113.450132" xlink:href="#me4b7dbca86" y="267.619119"/>
     <use style="fill-opacity:0;stroke:#ffa500;stroke-linejoin:bevel;stroke-width:1.5;" x="192.104552" xlink:href="#me4b7dbca86" y="231.446026"/>
     <use style="fill-opacity:0;stroke:#ffa500;stroke-linejoin:bevel;stroke-width:1.5;" x="246.952731" xlink:href="#me4b7dbca86" y="170.109043"/>
     <use style="fill-opacity:0;stroke:#ffa500;stroke-linejoin:bevel;stroke-width:1.5;" x="276.951097" xlink:href="#me4b7dbca86" y="137.605684"/>
     <use style="fill-opacity:0;stroke:#ffa500;stroke-linejoin:bevel;stroke-width:1.5;" x="276.951097" xlink:href="#me4b7dbca86" y="137.605684"/>
     <use style="fill-opacity:0;stroke:#ffa500;stroke-linejoin:bevel;stroke-width:1.5;" x="333.429677" xlink:href="#me4b7dbca86" y="137.605684"/>
    </g>
   </g>
   <g id="line2d_41">
    <path style="fill:none;stroke:#ffa500;stroke-linecap:square;stroke-width:1.5;"/>
    <g/>
   </g>
   <g id="line2d_42">
    <path clip-path="url(#pd424588267)" d="M 214.583246 209.95187 
" style="fill:none;stroke:#ffa500;stroke-linecap:square;stroke-width:1.5;"/>
    <defs>
     <path d="M -12 12 
L 12 -12 
M -12 -12 
L 12 12 
" id="mdee17d26bc" style="stroke:#ffa500;stroke-width:3;"/>
    </defs>
    <g clip-path="url(#pd424588267)">
     <use style="fill:#ffa500;stroke:#ffa500;stroke-width:3;" x="214.583246" xlink:href="#mdee17d26bc" y="209.95187"/>
    </g>
   </g>
   <g id="line2d_43">
    <defs>
     <path d="M 0 1.5 
C 0.397805 1.5 0.77937 1.341951 1.06066 1.06066 
C 1.341951 0.77937 1.5 0.397805 1.5 0 
C 1.5 -0.397805 1.341951 -0.77937 1.06066 -1.06066 
C 0.77937 -1.341951 0.397805 -1.5 0 -1.5 
C -0.397805 -1.5 -0.77937 -1.341951 -1.06066 -1.06066 
C -1.341951 -0.77937 -1.5 -0.397805 -1.5 0 
C -1.5 0.397805 -1.341951 0.77937 -1.06066 1.06066 
C -0.77937 1.341951 -0.397805 1.5 0 1.5 
z
" id="mfbc3aae571" style="stroke:#6495ed;"/>
    </defs>
    <g>
     <use style="fill:#6495ed;stroke:#6495ed;" x="158.633899" xlink:href="#mfbc3aae571" y="231.970274"/>
     <use style="fill:#6495ed;stroke:#6495ed;" x="158.633899" xlink:href="#mfbc3aae571" y="231.970274"/>
    </g>
   </g>
   <g id="line2d_44">
    <path d="M 37.218523 294.88 
L 37.218523 289.113275 
L 49.144027 289.113275 
L 49.144027 287.016284 
L 56.12 287.016284 
L 56.12 280.201064 
L 61.069532 280.201064 
L 61.069532 277.579825 
L 64.908686 277.579825 
L 64.908686 276.007082 
L 68.045504 276.007082 
L 68.045504 274.434339 
L 70.697646 274.434339 
L 70.697646 273.385844 
L 75.021477 273.385844 
L 75.021477 272.861596 
L 78.47399 272.861596 
L 78.47399 272.337348 
L 79.971009 272.337348 
L 79.971009 269.716109 
L 81.348133 269.716109 
L 81.348133 268.667614 
L 83.810164 268.667614 
L 83.810164 267.619119 
L 85.963579 267.619119 
L 85.963579 264.473632 
L 95.152397 264.473632 
L 95.152397 263.425137 
L 95.735668 263.425137 
L 95.735668 257.658412 
L 101.524628 257.658412 
L 101.524628 257.134164 
L 101.929467 257.134164 
L 101.929467 255.037173 
L 106.47416 255.037173 
L 106.47416 253.988678 
L 110.065758 253.988678 
L 110.065758 253.46443 
L 113.035537 253.46443 
L 113.035537 251.367439 
L 115.567365 251.367439 
L 115.567365 250.843192 
L 117.773963 250.843192 
L 117.773963 249.270448 
L 118.089658 249.270448 
L 118.089658 248.746201 
L 119.729457 248.746201 
L 119.729457 247.697705 
L 121.485201 247.697705 
L 121.485201 246.124962 
L 123.078247 246.124962 
L 123.078247 245.076467 
L 124.536209 245.076467 
L 124.536209 242.979476 
L 125.880215 242.979476 
L 125.880215 241.93098 
L 127.126794 241.93098 
L 127.126794 241.406733 
L 128.289123 241.406733 
L 128.289123 240.358237 
L 129.377872 240.358237 
L 129.377872 238.785494 
L 130.401805 238.785494 
L 130.401805 237.736999 
L 133.15198 237.736999 
L 133.15198 236.688503 
L 133.978991 236.688503 
L 133.978991 235.640008 
L 134.768065 235.640008 
L 134.768065 235.11576 
L 136.93892 235.11576 
L 136.93892 234.591512 
L 138.247523 234.591512 
L 138.247523 234.067265 
L 141.664752 234.067265 
L 141.664752 233.543017 
L 142.173693 233.543017 
L 142.173693 233.018769 
L 143.148522 233.018769 
L 143.148522 232.494521 
L 158.633899 232.494521 
L 158.633899 231.970274 
L 333.429677 231.970274 
" style="fill:none;stroke:#6495ed;stroke-linecap:square;stroke-width:1.5;"/>
   </g>
   <g id="line2d_45">
    <defs>
     <path d="M -0 6 
L 6 -6 
L -6 -6 
z
" id="m7323b922ed" style="stroke:#6495ed;stroke-linejoin:miter;stroke-width:1.5;"/>
    </defs>
    <g>
     <use style="fill-opacity:0;stroke:#6495ed;stroke-linejoin:miter;stroke-width:1.5;" x="83.810164" xlink:href="#m7323b922ed" y="267.619119"/>
     <use style="fill-opacity:0;stroke:#6495ed;stroke-linejoin:miter;stroke-width:1.5;" x="143.148522" xlink:href="#m7323b922ed" y="233.018769"/>
     <use style="fill-opacity:0;stroke:#6495ed;stroke-linejoin:miter;stroke-width:1.5;" x="158.633899" xlink:href="#m7323b922ed" y="232.494521"/>
     <use style="fill-opacity:0;stroke:#6495ed;stroke-linejoin:miter;stroke-width:1.5;" x="158.633899" xlink:href="#m7323b922ed" y="231.970274"/>
     <use style="fill-opacity:0;stroke:#6495ed;stroke-linejoin:miter;stroke-width:1.5;" x="158.633899" xlink:href="#m7323b922ed" y="231.970274"/>
     <use style="fill-opacity:0;stroke:#6495ed;stroke-linejoin:miter;stroke-width:1.5;" x="333.429677" xlink:href="#m7323b922ed" y="231.970274"/>
    </g>
   </g>
   <g id="line2d_46">
    <path style="fill:none;stroke:#6495ed;stroke-linecap:square;stroke-width:1.5;"/>
    <g/>
   </g>
   <g id="line2d_47">
    <path clip-path="url(#pd424588267)" d="M 81.348133 268.667614 
" style="fill:none;stroke:#6495ed;stroke-linecap:square;stroke-width:1.5;"/>
    <defs>
     <path d="M -12 12 
L 12 -12 
M -12 -12 
L 12 12 
" id="m7f81b61a8b" style="stroke:#6495ed;stroke-width:3;"/>
    </defs>
    <g clip-path="url(#pd424588267)">
     <use style="fill:#6495ed;stroke:#6495ed;stroke-width:3;" x="81.348133" xlink:href="#m7f81b61a8b" y="268.667614"/>
    </g>
   </g>
   <g id="line2d_48">
    <path d="M 333.429677 231.970274 
L 363.933742 289.532673 
" style="fill:none;stroke:#6495ed;stroke-linecap:square;stroke-width:1.5;"/>
    <g>
     <use style="fill-opacity:0;stroke:#6495ed;stroke-linejoin:miter;stroke-width:1.5;" x="333.429677" xlink:href="#m7323b922ed" y="231.970274"/>
     <use style="fill-opacity:0;stroke:#6495ed;stroke-linejoin:miter;stroke-width:1.5;" x="363.933742" xlink:href="#m7323b922ed" y="289.532673"/>
    </g>
   </g>
   <g id="line2d_49">
    <path d="M 333.429677 137.605684 
L 363.933742 225.364752 
" style="fill:none;stroke:#ffa500;stroke-linecap:square;stroke-width:1.5;"/>
    <g>
     <use style="fill-opacity:0;stroke:#ffa500;stroke-linejoin:bevel;stroke-width:1.5;" x="333.429677" xlink:href="#me4b7dbca86" y="137.605684"/>
     <use style="fill-opacity:0;stroke:#ffa500;stroke-linejoin:bevel;stroke-width:1.5;" x="363.933742" xlink:href="#me4b7dbca86" y="225.364752"/>
    </g>
   </g>
   <g id="line2d_50">
    <path d="M 333.429677 32.756141 
L 363.933742 161.196832 
" style="fill:none;stroke:#000080;stroke-linecap:square;stroke-width:1.5;"/>
    <g>
     <use style="fill-opacity:0;stroke:#000080;stroke-width:1.5;" x="333.429677" xlink:href="#m6ec662875b" y="32.756141"/>
     <use style="fill-opacity:0;stroke:#000080;stroke-width:1.5;" x="363.933742" xlink:href="#m6ec662875b" y="161.196832"/>
    </g>
   </g>
   <g id="line2d_51">
    <path d="M 333.429677 27.513663 
L 363.933742 97.028911 
" style="fill:none;stroke:#ff00ff;stroke-linecap:square;stroke-width:1.5;"/>
    <g>
     <use style="fill-opacity:0;stroke:#ff00ff;stroke-linejoin:miter;stroke-width:1.5;" x="333.429677" xlink:href="#m0e40cf59c4" y="27.513663"/>
     <use style="fill-opacity:0;stroke:#ff00ff;stroke-linejoin:miter;stroke-width:1.5;" x="363.933742" xlink:href="#m0e40cf59c4" y="97.028911"/>
    </g>
   </g>
   <g id="line2d_52">
    <path d="M 333.429677 294.88 
L 333.429677 27.513663 
" style="fill:none;stroke:#000000;stroke-linecap:square;stroke-width:1.5;"/>
   </g>
   <g id="patch_3">
    <path d="M 56.12 294.88 
L 56.12 24.84 
" style="fill:none;stroke:#000000;stroke-linecap:square;stroke-linejoin:miter;stroke-width:0.8;"/>
   </g>
   <g id="patch_4">
    <path d="M 399.984 294.88 
L 399.984 24.84 
" style="fill:none;stroke:#000000;stroke-linecap:square;stroke-linejoin:miter;stroke-width:0.8;"/>
   </g>
   <g id="patch_5">
    <path d="M 56.12 294.88 
L 399.984 294.88 
" style="fill:none;stroke:#000000;stroke-linecap:square;stroke-linejoin:miter;stroke-width:0.8;"/>
   </g>
   <g id="patch_6">
    <path d="M 56.12 24.84 
L 399.984 24.84 
" style="fill:none;stroke:#000000;stroke-linecap:square;stroke-linejoin:miter;stroke-width:0.8;"/>
   </g>
   <g id="text_14">
    <!-- hybrid -->
    <defs>
     <path d="M 54.890625 33.015625 
L 54.890625 0 
L 45.90625 0 
L 45.90625 32.71875 
Q 45.90625 40.484375 42.875 44.328125 
Q 39.84375 48.1875 33.796875 48.1875 
Q 26.515625 48.1875 22.3125 43.546875 
Q 18.109375 38.921875 18.109375 30.90625 
L 18.109375 0 
L 9.078125 0 
L 9.078125 75.984375 
L 18.109375 75.984375 
L 18.109375 46.1875 
Q 21.34375 51.125 25.703125 53.5625 
Q 30.078125 56 35.796875 56 
Q 45.21875 56 50.046875 50.171875 
Q 54.890625 44.34375 54.890625 33.015625 
z
" id="DejaVuSans-68"/>
     <path d="M 32.171875 -5.078125 
Q 28.375 -14.84375 24.75 -17.8125 
Q 21.140625 -20.796875 15.09375 -20.796875 
L 7.90625 -20.796875 
L 7.90625 -13.28125 
L 13.1875 -13.28125 
Q 16.890625 -13.28125 18.9375 -11.515625 
Q 21 -9.765625 23.484375 -3.21875 
L 25.09375 0.875 
L 2.984375 54.6875 
L 12.5 54.6875 
L 29.59375 11.921875 
L 46.6875 54.6875 
L 56.203125 54.6875 
z
" id="DejaVuSans-79"/>
     <path d="M 48.6875 27.296875 
Q 48.6875 37.203125 44.609375 42.84375 
Q 40.53125 48.484375 33.40625 48.484375 
Q 26.265625 48.484375 22.1875 42.84375 
Q 18.109375 37.203125 18.109375 27.296875 
Q 18.109375 17.390625 22.1875 11.75 
Q 26.265625 6.109375 33.40625 6.109375 
Q 40.53125 6.109375 44.609375 11.75 
Q 48.6875 17.390625 48.6875 27.296875 
z
M 18.109375 46.390625 
Q 20.953125 51.265625 25.265625 53.625 
Q 29.59375 56 35.59375 56 
Q 45.5625 56 51.78125 48.09375 
Q 58.015625 40.1875 58.015625 27.296875 
Q 58.015625 14.40625 51.78125 6.484375 
Q 45.5625 -1.421875 35.59375 -1.421875 
Q 29.59375 -1.421875 25.265625 0.953125 
Q 20.953125 3.328125 18.109375 8.203125 
L 18.109375 0 
L 9.078125 0 
L 9.078125 75.984375 
L 18.109375 75.984375 
z
" id="DejaVuSans-62"/>
    </defs>
    <g transform="translate(369.479935 294.223611)scale(0.17 -0.17)">
     <use xlink:href="#DejaVuSans-68"/>
     <use x="63.378906" xlink:href="#DejaVuSans-79"/>
     <use x="122.558594" xlink:href="#DejaVuSans-62"/>
     <use x="186.035156" xlink:href="#DejaVuSans-72"/>
     <use x="227.148438" xlink:href="#DejaVuSans-69"/>
     <use x="254.931641" xlink:href="#DejaVuSans-64"/>
    </g>
   </g>
   <g id="text_15">
    <!-- Rosenbroc -->
    <defs>
     <path d="M 44.390625 34.1875 
Q 47.5625 33.109375 50.5625 29.59375 
Q 53.5625 26.078125 56.59375 19.921875 
L 66.609375 0 
L 56 0 
L 46.6875 18.703125 
Q 43.0625 26.03125 39.671875 28.421875 
Q 36.28125 30.8125 30.421875 30.8125 
L 19.671875 30.8125 
L 19.671875 0 
L 9.8125 0 
L 9.8125 72.90625 
L 32.078125 72.90625 
Q 44.578125 72.90625 50.734375 67.671875 
Q 56.890625 62.453125 56.890625 51.90625 
Q 56.890625 45.015625 53.6875 40.46875 
Q 50.484375 35.9375 44.390625 34.1875 
z
M 19.671875 64.796875 
L 19.671875 38.921875 
L 32.078125 38.921875 
Q 39.203125 38.921875 42.84375 42.21875 
Q 46.484375 45.515625 46.484375 51.90625 
Q 46.484375 58.296875 42.84375 61.546875 
Q 39.203125 64.796875 32.078125 64.796875 
z
" id="DejaVuSans-52"/>
    </defs>
    <g transform="translate(369.479935 230.05569)scale(0.17 -0.17)">
     <use xlink:href="#DejaVuSans-52"/>
     <use x="69.419922" xlink:href="#DejaVuSans-6f"/>
     <use x="130.601562" xlink:href="#DejaVuSans-73"/>
     <use x="182.701172" xlink:href="#DejaVuSans-65"/>
     <use x="244.224609" xlink:href="#DejaVuSans-6e"/>
     <use x="307.603516" xlink:href="#DejaVuSans-62"/>
     <use x="371.080078" xlink:href="#DejaVuSans-72"/>
     <use x="412.162109" xlink:href="#DejaVuSans-6f"/>
     <use x="473.34375" xlink:href="#DejaVuSans-63"/>
    </g>
   </g>
   <g id="text_16">
    <!-- DASA -->
    <defs>
     <path d="M 19.671875 64.796875 
L 19.671875 8.109375 
L 31.59375 8.109375 
Q 46.6875 8.109375 53.6875 14.9375 
Q 60.6875 21.78125 60.6875 36.53125 
Q 60.6875 51.171875 53.6875 57.984375 
Q 46.6875 64.796875 31.59375 64.796875 
z
M 9.8125 72.90625 
L 30.078125 72.90625 
Q 51.265625 72.90625 61.171875 64.09375 
Q 71.09375 55.28125 71.09375 36.53125 
Q 71.09375 17.671875 61.125 8.828125 
Q 51.171875 0 30.078125 0 
L 9.8125 0 
z
" id="DejaVuSans-44"/>
     <path d="M 34.1875 63.1875 
L 20.796875 26.90625 
L 47.609375 26.90625 
z
M 28.609375 72.90625 
L 39.796875 72.90625 
L 67.578125 0 
L 57.328125 0 
L 50.6875 18.703125 
L 17.828125 18.703125 
L 11.1875 0 
L 0.78125 0 
z
" id="DejaVuSans-41"/>
     <path d="M 53.515625 70.515625 
L 53.515625 60.890625 
Q 47.90625 63.578125 42.921875 64.890625 
Q 37.9375 66.21875 33.296875 66.21875 
Q 25.25 66.21875 20.875 63.09375 
Q 16.5 59.96875 16.5 54.203125 
Q 16.5 49.359375 19.40625 46.890625 
Q 22.3125 44.4375 30.421875 42.921875 
L 36.375 41.703125 
Q 47.40625 39.59375 52.65625 34.296875 
Q 57.90625 29 57.90625 20.125 
Q 57.90625 9.515625 50.796875 4.046875 
Q 43.703125 -1.421875 29.984375 -1.421875 
Q 24.8125 -1.421875 18.96875 -0.25 
Q 13.140625 0.921875 6.890625 3.21875 
L 6.890625 13.375 
Q 12.890625 10.015625 18.65625 8.296875 
Q 24.421875 6.59375 29.984375 6.59375 
Q 38.421875 6.59375 43.015625 9.90625 
Q 47.609375 13.234375 47.609375 19.390625 
Q 47.609375 24.75 44.3125 27.78125 
Q 41.015625 30.8125 33.5 32.328125 
L 27.484375 33.5 
Q 16.453125 35.6875 11.515625 40.375 
Q 6.59375 45.0625 6.59375 53.421875 
Q 6.59375 63.09375 13.40625 68.65625 
Q 20.21875 74.21875 32.171875 74.21875 
Q 37.3125 74.21875 42.625 73.28125 
Q 47.953125 72.359375 53.515625 70.515625 
z
" id="DejaVuSans-53"/>
    </defs>
    <g transform="translate(369.479935 165.887769)scale(0.17 -0.17)">
     <use xlink:href="#DejaVuSans-44"/>
     <use x="76.986328" xlink:href="#DejaVuSans-41"/>
     <use x="145.394531" xlink:href="#DejaVuSans-53"/>
     <use x="208.886719" xlink:href="#DejaVuSans-41"/>
    </g>
   </g>
   <g id="text_17">
    <!-- GA -->
    <defs>
     <path d="M 59.515625 10.40625 
L 59.515625 29.984375 
L 43.40625 29.984375 
L 43.40625 38.09375 
L 69.28125 38.09375 
L 69.28125 6.78125 
Q 63.578125 2.734375 56.6875 0.65625 
Q 49.8125 -1.421875 42 -1.421875 
Q 24.90625 -1.421875 15.25 8.5625 
Q 5.609375 18.5625 5.609375 36.375 
Q 5.609375 54.25 15.25 64.234375 
Q 24.90625 74.21875 42 74.21875 
Q 49.125 74.21875 55.546875 72.453125 
Q 61.96875 70.703125 67.390625 67.28125 
L 67.390625 56.78125 
Q 61.921875 61.421875 55.765625 63.765625 
Q 49.609375 66.109375 42.828125 66.109375 
Q 29.4375 66.109375 22.71875 58.640625 
Q 16.015625 51.171875 16.015625 36.375 
Q 16.015625 21.625 22.71875 14.15625 
Q 29.4375 6.6875 42.828125 6.6875 
Q 48.046875 6.6875 52.140625 7.59375 
Q 56.25 8.5 59.515625 10.40625 
z
" id="DejaVuSans-47"/>
    </defs>
    <g transform="translate(369.479935 101.719848)scale(0.17 -0.17)">
     <use xlink:href="#DejaVuSans-47"/>
     <use x="77.490234" xlink:href="#DejaVuSans-41"/>
    </g>
   </g>
   <g id="text_18">
    <!-- best 2009 -->
    <defs>
     <path d="M 10.984375 1.515625 
L 10.984375 10.5 
Q 14.703125 8.734375 18.5 7.8125 
Q 22.3125 6.890625 25.984375 6.890625 
Q 35.75 6.890625 40.890625 13.453125 
Q 46.046875 20.015625 46.78125 33.40625 
Q 43.953125 29.203125 39.59375 26.953125 
Q 35.25 24.703125 29.984375 24.703125 
Q 19.046875 24.703125 12.671875 31.3125 
Q 6.296875 37.9375 6.296875 49.421875 
Q 6.296875 60.640625 12.9375 67.421875 
Q 19.578125 74.21875 30.609375 74.21875 
Q 43.265625 74.21875 49.921875 64.515625 
Q 56.59375 54.828125 56.59375 36.375 
Q 56.59375 19.140625 48.40625 8.859375 
Q 40.234375 -1.421875 26.421875 -1.421875 
Q 22.703125 -1.421875 18.890625 -0.6875 
Q 15.09375 0.046875 10.984375 1.515625 
z
M 30.609375 32.421875 
Q 37.25 32.421875 41.125 36.953125 
Q 45.015625 41.5 45.015625 49.421875 
Q 45.015625 57.28125 41.125 61.84375 
Q 37.25 66.40625 30.609375 66.40625 
Q 23.96875 66.40625 20.09375 61.84375 
Q 16.21875 57.28125 16.21875 49.421875 
Q 16.21875 41.5 20.09375 36.953125 
Q 23.96875 32.421875 30.609375 32.421875 
z
" id="DejaVuSans-39"/>
    </defs>
    <g transform="translate(369.479935 37.551928)scale(0.17 -0.17)">
     <use xlink:href="#DejaVuSans-62"/>
     <use x="63.476562" xlink:href="#DejaVuSans-65"/>
     <use x="125" xlink:href="#DejaVuSans-73"/>
     <use x="177.099609" xlink:href="#DejaVuSans-74"/>
     <use x="216.308594" xlink:href="#DejaVuSans-20"/>
     <use x="248.095703" xlink:href="#DejaVuSans-32"/>
     <use x="311.71875" xlink:href="#DejaVuSans-30"/>
     <use x="375.341797" xlink:href="#DejaVuSans-30"/>
     <use x="438.964844" xlink:href="#DejaVuSans-39"/>
    </g>
   </g>
   <g id="text_19">
    <!-- bbob f16, 3-D -->
    <defs>
     <path d="M 40.578125 39.3125 
Q 47.65625 37.796875 51.625 33 
Q 55.609375 28.21875 55.609375 21.1875 
Q 55.609375 10.40625 48.1875 4.484375 
Q 40.765625 -1.421875 27.09375 -1.421875 
Q 22.515625 -1.421875 17.65625 -0.515625 
Q 12.796875 0.390625 7.625 2.203125 
L 7.625 11.71875 
Q 11.71875 9.328125 16.59375 8.109375 
Q 21.484375 6.890625 26.8125 6.890625 
Q 36.078125 6.890625 40.9375 10.546875 
Q 45.796875 14.203125 45.796875 21.1875 
Q 45.796875 27.640625 41.28125 31.265625 
Q 36.765625 34.90625 28.71875 34.90625 
L 20.21875 34.90625 
L 20.21875 43.015625 
L 29.109375 43.015625 
Q 36.375 43.015625 40.234375 45.921875 
Q 44.09375 48.828125 44.09375 54.296875 
Q 44.09375 59.90625 40.109375 62.90625 
Q 36.140625 65.921875 28.71875 65.921875 
Q 24.65625 65.921875 20.015625 65.03125 
Q 15.375 64.15625 9.8125 62.3125 
L 9.8125 71.09375 
Q 15.4375 72.65625 20.34375 73.4375 
Q 25.25 74.21875 29.59375 74.21875 
Q 40.828125 74.21875 47.359375 69.109375 
Q 53.90625 64.015625 53.90625 55.328125 
Q 53.90625 49.265625 50.4375 45.09375 
Q 46.96875 40.921875 40.578125 39.3125 
z
" id="DejaVuSans-33"/>
    </defs>
    <g transform="translate(59.55864 35.290806)scale(0.102 -0.102)">
     <use xlink:href="#DejaVuSans-62"/>
     <use x="63.476562" xlink:href="#DejaVuSans-62"/>
     <use x="126.953125" xlink:href="#DejaVuSans-6f"/>
     <use x="188.134766" xlink:href="#DejaVuSans-62"/>
     <use x="251.611328" xlink:href="#DejaVuSans-20"/>
     <use x="283.398438" xlink:href="#DejaVuSans-66"/>
     <use x="318.603516" xlink:href="#DejaVuSans-31"/>
     <use x="382.226562" xlink:href="#DejaVuSans-36"/>
     <use x="445.849609" xlink:href="#DejaVuSans-2c"/>
     <use x="477.636719" xlink:href="#DejaVuSans-20"/>
     <use x="509.423828" xlink:href="#DejaVuSans-33"/>
     <use x="573.046875" xlink:href="#DejaVuSans-2d"/>
     <use x="609.130859" xlink:href="#DejaVuSans-44"/>
    </g>
    <!-- 51 targets: 100..1e-08 -->
    <defs>
     <path d="M 10.796875 72.90625 
L 49.515625 72.90625 
L 49.515625 64.59375 
L 19.828125 64.59375 
L 19.828125 46.734375 
Q 21.96875 47.46875 24.109375 47.828125 
Q 26.265625 48.1875 28.421875 48.1875 
Q 40.625 48.1875 47.75 41.5 
Q 54.890625 34.8125 54.890625 23.390625 
Q 54.890625 11.625 47.5625 5.09375 
Q 40.234375 -1.421875 26.90625 -1.421875 
Q 22.3125 -1.421875 17.546875 -0.640625 
Q 12.796875 0.140625 7.71875 1.703125 
L 7.71875 11.625 
Q 12.109375 9.234375 16.796875 8.0625 
Q 21.484375 6.890625 26.703125 6.890625 
Q 35.15625 6.890625 40.078125 11.328125 
Q 45.015625 15.765625 45.015625 23.390625 
Q 45.015625 31 40.078125 35.4375 
Q 35.15625 39.890625 26.703125 39.890625 
Q 22.75 39.890625 18.8125 39.015625 
Q 14.890625 38.140625 10.796875 36.28125 
z
" id="DejaVuSans-35"/>
     <path d="M 11.71875 12.40625 
L 22.015625 12.40625 
L 22.015625 0 
L 11.71875 0 
z
M 11.71875 51.703125 
L 22.015625 51.703125 
L 22.015625 39.3125 
L 11.71875 39.3125 
z
" id="DejaVuSans-3a"/>
    </defs>
    <g transform="translate(59.55864 46.712575)scale(0.102 -0.102)">
     <use xlink:href="#DejaVuSans-35"/>
     <use x="63.623047" xlink:href="#DejaVuSans-31"/>
     <use x="127.246094" xlink:href="#DejaVuSans-20"/>
     <use x="159.033203" xlink:href="#DejaVuSans-74"/>
     <use x="198.242188" xlink:href="#DejaVuSans-61"/>
     <use x="259.521484" xlink:href="#DejaVuSans-72"/>
     <use x="300.619141" xlink:href="#DejaVuSans-67"/>
     <use x="364.095703" xlink:href="#DejaVuSans-65"/>
     <use x="425.619141" xlink:href="#DejaVuSans-74"/>
     <use x="464.828125" xlink:href="#DejaVuSans-73"/>
     <use x="516.927734" xlink:href="#DejaVuSans-3a"/>
     <use x="550.619141" xlink:href="#DejaVuSans-20"/>
     <use x="582.40625" xlink:href="#DejaVuSans-31"/>
     <use x="646.029297" xlink:href="#DejaVuSans-30"/>
     <use x="709.652344" xlink:href="#DejaVuSans-30"/>
     <use x="773.275391" xlink:href="#DejaVuSans-2e"/>
     <use x="805.0625" xlink:href="#DejaVuSans-2e"/>
     <use x="836.849609" xlink:href="#DejaVuSans-31"/>
     <use x="900.472656" xlink:href="#DejaVuSans-65"/>
     <use x="961.996094" xlink:href="#DejaVuSans-2d"/>
     <use x="998.080078" xlink:href="#DejaVuSans-30"/>
     <use x="1061.703125" xlink:href="#DejaVuSans-38"/>
    </g>
    <!-- 15 instances -->
    <g transform="translate(59.55864 58.134344)scale(0.102 -0.102)">
     <use xlink:href="#DejaVuSans-31"/>
     <use x="63.623047" xlink:href="#DejaVuSans-35"/>
     <use x="127.246094" xlink:href="#DejaVuSans-20"/>
     <use x="159.033203" xlink:href="#DejaVuSans-69"/>
     <use x="186.816406" xlink:href="#DejaVuSans-6e"/>
     <use x="250.195312" xlink:href="#DejaVuSans-73"/>
     <use x="302.294922" xlink:href="#DejaVuSans-74"/>
     <use x="341.503906" xlink:href="#DejaVuSans-61"/>
     <use x="402.783203" xlink:href="#DejaVuSans-6e"/>
     <use x="466.162109" xlink:href="#DejaVuSans-63"/>
     <use x="521.142578" xlink:href="#DejaVuSans-65"/>
     <use x="582.666016" xlink:href="#DejaVuSans-73"/>
    </g>
   </g>
   <g id="text_20">
    <!-- v-coco-version -->
    <g style="fill:#808080;" transform="translate(191.556688 290.099912)scale(0.1 -0.1)">
     <use xlink:href="#DejaVuSans-76"/>
     <use x="59.148438" xlink:href="#DejaVuSans-2d"/>
     <use x="95.232422" xlink:href="#DejaVuSans-63"/>
     <use x="150.212891" xlink:href="#DejaVuSans-6f"/>
     <use x="211.394531" xlink:href="#DejaVuSans-63"/>
     <use x="266.375" xlink:href="#DejaVuSans-6f"/>
     <use x="327.572266" xlink:href="#DejaVuSans-2d"/>
     <use x="363.625" xlink:href="#DejaVuSans-76"/>
     <use x="422.804688" xlink:href="#DejaVuSans-65"/>
     <use x="484.328125" xlink:href="#DejaVuSans-72"/>
     <use x="525.441406" xlink:href="#DejaVuSans-73"/>
     <use x="577.541016" xlink:href="#DejaVuSans-69"/>
     <use x="605.324219" xlink:href="#DejaVuSans-6f"/>
     <use x="666.505859" xlink:href="#DejaVuSans-6e"/>
    </g>
   </g>
   <g id="text_21">
    <!-- 16 Weierstrass -->
    <defs>
     <path d="M 3.328125 72.90625 
L 13.28125 72.90625 
L 28.609375 11.28125 
L 43.890625 72.90625 
L 54.984375 72.90625 
L 70.3125 11.28125 
L 85.59375 72.90625 
L 95.609375 72.90625 
L 77.296875 0 
L 64.890625 0 
L 49.515625 63.28125 
L 33.984375 0 
L 21.578125 0 
z
" id="DejaVuSans-57"/>
    </defs>
    <g transform="translate(153.286375 18.84)scale(0.2 -0.2)">
     <use xlink:href="#DejaVuSans-31"/>
     <use x="63.623047" xlink:href="#DejaVuSans-36"/>
     <use x="127.246094" xlink:href="#DejaVuSans-20"/>
     <use x="159.033203" xlink:href="#DejaVuSans-57"/>
     <use x="257.832031" xlink:href="#DejaVuSans-65"/>
     <use x="319.355469" xlink:href="#DejaVuSans-69"/>
     <use x="347.138672" xlink:href="#DejaVuSans-65"/>
     <use x="408.662109" xlink:href="#DejaVuSans-72"/>
     <use x="449.775391" xlink:href="#DejaVuSans-73"/>
     <use x="501.875" xlink:href="#DejaVuSans-74"/>
     <use x="541.083984" xlink:href="#DejaVuSans-72"/>
     <use x="582.197266" xlink:href="#DejaVuSans-61"/>
     <use x="643.476562" xlink:href="#DejaVuSans-73"/>
     <use x="695.576172" xlink:href="#DejaVuSans-73"/>
    </g>
   </g>
  </g>
 </g>
 <defs>
  <clipPath id="pd424588267">
   <rect height="270.04" width="343.864" x="56.12" y="24.84"/>
  </clipPath>
 </defs>
</svg>
