<?xml version="1.0" encoding="utf-8" standalone="no"?>
<!DOCTYPE svg PUBLIC "-//W3C//DTD SVG 1.1//EN"
  "http://www.w3.org/Graphics/SVG/1.1/DTD/svg11.dtd">
<!-- Created with matplotlib (http://matplotlib.org/) -->
<svg height="345.6pt" version="1.1" viewBox="0 0 460.8 345.6" width="460.8pt" xmlns="http://www.w3.org/2000/svg" xmlns:xlink="http://www.w3.org/1999/xlink">
 <defs>
  <style type="text/css">
*{stroke-linecap:butt;stroke-linejoin:round;}
  </style>
 </defs>
 <g id="figure_1">
  <g id="patch_1">
   <path d="M 0 345.6 
L 460.8 345.6 
L 460.8 0 
L 0 0 
z
" style="fill:#ffffff;"/>
  </g>
  <g id="axes_1">
   <g id="patch_2">
    <path d="M 56.12 294.88 
L 399.984 294.88 
L 399.984 24.84 
L 56.12 24.84 
z
" style="fill:#ffffff;"/>
   </g>
   <g id="line2d_1">
    <path d="M 37.218523 294.88 
L 37.218523 268.667614 
L 56.12 268.667614 
L 56.12 263.425137 
L 84.92054 263.425137 
L 84.92054 258.18266 
L 102.324999 258.18266 
L 102.324999 252.940182 
L 112.394288 252.940182 
L 112.394288 247.697705 
L 128.202449 247.697705 
L 128.202449 242.455228 
L 140.599349 242.455228 
L 140.599349 237.212751 
L 148.414079 237.212751 
L 148.414079 231.970274 
L 149.681426 231.970274 
L 149.681426 226.727797 
L 152.118505 226.727797 
L 152.118505 221.485319 
L 153.024788 221.485319 
L 153.024788 216.242842 
L 154.367132 216.242842 
L 154.367132 211.000365 
L 155.146774 211.000365 
L 155.146774 205.757888 
L 155.59461 205.757888 
L 155.59461 200.515411 
L 157.861027 200.515411 
L 157.861027 195.272933 
L 158.22906 195.272933 
L 158.22906 190.030456 
L 159.416073 190.030456 
L 159.416073 184.787979 
L 159.514911 184.787979 
L 159.514911 179.545502 
L 161.431497 179.545502 
L 161.431497 174.303025 
L 161.519438 174.303025 
L 161.519438 169.060547 
L 169.701071 169.060547 
L 169.701071 163.81807 
L 169.739969 163.81807 
L 169.739969 158.575593 
L 169.802025 158.575593 
L 169.802025 153.333116 
L 169.886987 153.333116 
L 169.886987 148.090639 
L 169.963863 148.090639 
L 169.963863 142.848162 
L 170.002173 142.848162 
L 170.002173 137.605684 
L 170.040398 137.605684 
L 170.040398 132.363207 
L 170.086155 132.363207 
L 170.086155 127.12073 
L 170.154564 127.12073 
L 170.154564 121.878253 
L 170.177307 121.878253 
L 170.177307 116.635776 
L 170.298096 116.635776 
L 170.298096 111.393298 
L 170.343175 111.393298 
L 170.343175 106.150821 
L 170.388135 106.150821 
L 170.388135 100.908344 
L 170.425513 100.908344 
L 170.425513 95.665867 
L 170.544578 95.665867 
L 170.544578 90.42339 
L 170.603803 90.42339 
L 170.603803 85.180912 
L 170.655458 85.180912 
L 170.655458 79.938435 
L 170.69226 79.938435 
L 170.69226 74.695958 
L 170.728984 74.695958 
L 170.728984 69.453481 
L 170.976645 69.453481 
L 170.976645 64.211004 
L 171.048813 64.211004 
L 171.048813 58.968526 
L 171.077596 58.968526 
L 171.077596 53.726049 
L 171.120679 53.726049 
L 171.120679 48.483572 
L 171.163656 48.483572 
L 171.163656 43.241095 
L 171.206525 43.241095 
L 171.206525 37.998618 
L 171.256405 37.998618 
L 171.256405 32.756141 
L 171.313233 32.756141 
L 171.313233 27.513663 
L 333.429677 27.513663 
" style="fill:none;stroke:#f5deb3;stroke-linecap:square;stroke-width:6;"/>
   </g>
   <g id="line2d_2">
    <defs>
     <path d="M -0 7.778175 
L 7.778175 0 
L 0 -7.778175 
L -7.778175 -0 
z
" id="m310da185b3" style="stroke:#f5deb3;stroke-linejoin:miter;stroke-width:1.5;"/>
    </defs>
    <g>
     <use style="fill:#f5deb3;stroke:#f5deb3;stroke-linejoin:miter;stroke-width:1.5;" x="112.394288" xlink:href="#m310da185b3" y="247.697705"/>
     <use style="fill:#f5deb3;stroke:#f5deb3;stroke-linejoin:miter;stroke-width:1.5;" x="159.514911" xlink:href="#m310da185b3" y="179.545502"/>
     <use style="fill:#f5deb3;stroke:#f5deb3;stroke-linejoin:miter;stroke-width:1.5;" x="171.048813" xlink:href="#m310da185b3" y="64.211004"/>
     <use style="fill:#f5deb3;stroke:#f5deb3;stroke-linejoin:miter;stroke-width:1.5;" x="171.313233" xlink:href="#m310da185b3" y="32.756141"/>
     <use style="fill:#f5deb3;stroke:#f5deb3;stroke-linejoin:miter;stroke-width:1.5;" x="171.313233" xlink:href="#m310da185b3" y="27.513663"/>
     <use style="fill:#f5deb3;stroke:#f5deb3;stroke-linejoin:miter;stroke-width:1.5;" x="333.429677" xlink:href="#m310da185b3" y="27.513663"/>
    </g>
   </g>
   <g id="line2d_3">
    <path style="fill:none;stroke:#f5deb3;stroke-linecap:square;stroke-width:6;"/>
    <g/>
   </g>
   <g id="line2d_4">
    <path d="M 333.429677 27.513663 
L 363.933742 32.86099 
" style="fill:none;stroke:#f5deb3;stroke-linecap:square;stroke-width:6;"/>
    <g>
     <use style="fill:#f5deb3;stroke:#f5deb3;stroke-linejoin:miter;stroke-width:1.5;" x="333.429677" xlink:href="#m310da185b3" y="27.513663"/>
     <use style="fill:#f5deb3;stroke:#f5deb3;stroke-linejoin:miter;stroke-width:1.5;" x="363.933742" xlink:href="#m310da185b3" y="32.86099"/>
    </g>
   </g>
   <g id="matplotlib.axis_1">
    <g id="xtick_1">
     <g id="line2d_5">
      <path clip-path="url(#p18cb42c3b7)" d="M 56.12 294.88 
L 56.12 24.84 
" style="fill:none;stroke:#b0b0b0;stroke-linecap:square;stroke-width:0.8;"/>
     </g>
     <g id="line2d_6">
      <defs>
       <path d="M 0 0 
L 0 3.5 
" id="me918c8aa7e" style="stroke:#000000;stroke-width:0.8;"/>
      </defs>
      <g>
       <use style="stroke:#000000;stroke-width:0.8;" x="56.12" xlink:href="#me918c8aa7e" y="294.88"/>
      </g>
     </g>
     <g id="text_1">
      <!-- 0 -->
      <defs>
       <path d="M 31.78125 66.40625 
Q 24.171875 66.40625 20.328125 58.90625 
Q 16.5 51.421875 16.5 36.375 
Q 16.5 21.390625 20.328125 13.890625 
Q 24.171875 6.390625 31.78125 6.390625 
Q 39.453125 6.390625 43.28125 13.890625 
Q 47.125 21.390625 47.125 36.375 
Q 47.125 51.421875 43.28125 58.90625 
Q 39.453125 66.40625 31.78125 66.40625 
z
M 31.78125 74.21875 
Q 44.046875 74.21875 50.515625 64.515625 
Q 56.984375 54.828125 56.984375 36.375 
Q 56.984375 17.96875 50.515625 8.265625 
Q 44.046875 -1.421875 31.78125 -1.421875 
Q 19.53125 -1.421875 13.0625 8.265625 
Q 6.59375 17.96875 6.59375 36.375 
Q 6.59375 54.828125 13.0625 64.515625 
Q 19.53125 74.21875 31.78125 74.21875 
z
" id="DejaVuSans-30"/>
      </defs>
      <g transform="translate(49.7575 317.076875)scale(0.2 -0.2)">
       <use xlink:href="#DejaVuSans-30"/>
      </g>
     </g>
    </g>
    <g id="xtick_2">
     <g id="line2d_7">
      <path clip-path="url(#p18cb42c3b7)" d="M 135.351336 294.88 
L 135.351336 24.84 
" style="fill:none;stroke:#b0b0b0;stroke-linecap:square;stroke-width:0.8;"/>
     </g>
     <g id="line2d_8">
      <g>
       <use style="stroke:#000000;stroke-width:0.8;" x="135.351336" xlink:href="#me918c8aa7e" y="294.88"/>
      </g>
     </g>
     <g id="text_2">
      <!-- 2 -->
      <defs>
       <path d="M 19.1875 8.296875 
L 53.609375 8.296875 
L 53.609375 0 
L 7.328125 0 
L 7.328125 8.296875 
Q 12.9375 14.109375 22.625 23.890625 
Q 32.328125 33.6875 34.8125 36.53125 
Q 39.546875 41.84375 41.421875 45.53125 
Q 43.3125 49.21875 43.3125 52.78125 
Q 43.3125 58.59375 39.234375 62.25 
Q 35.15625 65.921875 28.609375 65.921875 
Q 23.96875 65.921875 18.8125 64.3125 
Q 13.671875 62.703125 7.8125 59.421875 
L 7.8125 69.390625 
Q 13.765625 71.78125 18.9375 73 
Q 24.125 74.21875 28.421875 74.21875 
Q 39.75 74.21875 46.484375 68.546875 
Q 53.21875 62.890625 53.21875 53.421875 
Q 53.21875 48.921875 51.53125 44.890625 
Q 49.859375 40.875 45.40625 35.40625 
Q 44.1875 33.984375 37.640625 27.21875 
Q 31.109375 20.453125 19.1875 8.296875 
z
" id="DejaVuSans-32"/>
      </defs>
      <g transform="translate(128.988836 317.076875)scale(0.2 -0.2)">
       <use xlink:href="#DejaVuSans-32"/>
      </g>
     </g>
    </g>
    <g id="xtick_3">
     <g id="line2d_9">
      <path clip-path="url(#p18cb42c3b7)" d="M 214.582673 294.88 
L 214.582673 24.84 
" style="fill:none;stroke:#b0b0b0;stroke-linecap:square;stroke-width:0.8;"/>
     </g>
     <g id="line2d_10">
      <g>
       <use style="stroke:#000000;stroke-width:0.8;" x="214.582673" xlink:href="#me918c8aa7e" y="294.88"/>
      </g>
     </g>
     <g id="text_3">
      <!-- 4 -->
      <defs>
       <path d="M 37.796875 64.3125 
L 12.890625 25.390625 
L 37.796875 25.390625 
z
M 35.203125 72.90625 
L 47.609375 72.90625 
L 47.609375 25.390625 
L 58.015625 25.390625 
L 58.015625 17.1875 
L 47.609375 17.1875 
L 47.609375 0 
L 37.796875 0 
L 37.796875 17.1875 
L 4.890625 17.1875 
L 4.890625 26.703125 
z
" id="DejaVuSans-34"/>
      </defs>
      <g transform="translate(208.220173 317.076875)scale(0.2 -0.2)">
       <use xlink:href="#DejaVuSans-34"/>
      </g>
     </g>
    </g>
    <g id="xtick_4">
     <g id="line2d_11">
      <path clip-path="url(#p18cb42c3b7)" d="M 293.814009 294.88 
L 293.814009 24.84 
" style="fill:none;stroke:#b0b0b0;stroke-linecap:square;stroke-width:0.8;"/>
     </g>
     <g id="line2d_12">
      <g>
       <use style="stroke:#000000;stroke-width:0.8;" x="293.814009" xlink:href="#me918c8aa7e" y="294.88"/>
      </g>
     </g>
     <g id="text_4">
      <!-- 6 -->
      <defs>
       <path d="M 33.015625 40.375 
Q 26.375 40.375 22.484375 35.828125 
Q 18.609375 31.296875 18.609375 23.390625 
Q 18.609375 15.53125 22.484375 10.953125 
Q 26.375 6.390625 33.015625 6.390625 
Q 39.65625 6.390625 43.53125 10.953125 
Q 47.40625 15.53125 47.40625 23.390625 
Q 47.40625 31.296875 43.53125 35.828125 
Q 39.65625 40.375 33.015625 40.375 
z
M 52.59375 71.296875 
L 52.59375 62.3125 
Q 48.875 64.0625 45.09375 64.984375 
Q 41.3125 65.921875 37.59375 65.921875 
Q 27.828125 65.921875 22.671875 59.328125 
Q 17.53125 52.734375 16.796875 39.40625 
Q 19.671875 43.65625 24.015625 45.921875 
Q 28.375 48.1875 33.59375 48.1875 
Q 44.578125 48.1875 50.953125 41.515625 
Q 57.328125 34.859375 57.328125 23.390625 
Q 57.328125 12.15625 50.6875 5.359375 
Q 44.046875 -1.421875 33.015625 -1.421875 
Q 20.359375 -1.421875 13.671875 8.265625 
Q 6.984375 17.96875 6.984375 36.375 
Q 6.984375 53.65625 15.1875 63.9375 
Q 23.390625 74.21875 37.203125 74.21875 
Q 40.921875 74.21875 44.703125 73.484375 
Q 48.484375 72.75 52.59375 71.296875 
z
" id="DejaVuSans-36"/>
      </defs>
      <g transform="translate(287.451509 317.076875)scale(0.2 -0.2)">
       <use xlink:href="#DejaVuSans-36"/>
      </g>
     </g>
    </g>
    <g id="xtick_5">
     <g id="line2d_13">
      <path clip-path="url(#p18cb42c3b7)" d="M 373.045346 294.88 
L 373.045346 24.84 
" style="fill:none;stroke:#b0b0b0;stroke-linecap:square;stroke-width:0.8;"/>
     </g>
     <g id="line2d_14">
      <g>
       <use style="stroke:#000000;stroke-width:0.8;" x="373.045346" xlink:href="#me918c8aa7e" y="294.88"/>
      </g>
     </g>
     <g id="text_5">
      <!-- 8 -->
      <defs>
       <path d="M 31.78125 34.625 
Q 24.75 34.625 20.71875 30.859375 
Q 16.703125 27.09375 16.703125 20.515625 
Q 16.703125 13.921875 20.71875 10.15625 
Q 24.75 6.390625 31.78125 6.390625 
Q 38.8125 6.390625 42.859375 10.171875 
Q 46.921875 13.96875 46.921875 20.515625 
Q 46.921875 27.09375 42.890625 30.859375 
Q 38.875 34.625 31.78125 34.625 
z
M 21.921875 38.8125 
Q 15.578125 40.375 12.03125 44.71875 
Q 8.5 49.078125 8.5 55.328125 
Q 8.5 64.0625 14.71875 69.140625 
Q 20.953125 74.21875 31.78125 74.21875 
Q 42.671875 74.21875 48.875 69.140625 
Q 55.078125 64.0625 55.078125 55.328125 
Q 55.078125 49.078125 51.53125 44.71875 
Q 48 40.375 41.703125 38.8125 
Q 48.828125 37.15625 52.796875 32.3125 
Q 56.78125 27.484375 56.78125 20.515625 
Q 56.78125 9.90625 50.3125 4.234375 
Q 43.84375 -1.421875 31.78125 -1.421875 
Q 19.734375 -1.421875 13.25 4.234375 
Q 6.78125 9.90625 6.78125 20.515625 
Q 6.78125 27.484375 10.78125 32.3125 
Q 14.796875 37.15625 21.921875 38.8125 
z
M 18.3125 54.390625 
Q 18.3125 48.734375 21.84375 45.5625 
Q 25.390625 42.390625 31.78125 42.390625 
Q 38.140625 42.390625 41.71875 45.5625 
Q 45.3125 48.734375 45.3125 54.390625 
Q 45.3125 60.0625 41.71875 63.234375 
Q 38.140625 66.40625 31.78125 66.40625 
Q 25.390625 66.40625 21.84375 63.234375 
Q 18.3125 60.0625 18.3125 54.390625 
z
" id="DejaVuSans-38"/>
      </defs>
      <g transform="translate(366.682846 317.076875)scale(0.2 -0.2)">
       <use xlink:href="#DejaVuSans-38"/>
      </g>
     </g>
    </g>
    <g id="text_6">
     <!-- log10(# f-evals / dimension) -->
     <defs>
      <path d="M 9.421875 75.984375 
L 18.40625 75.984375 
L 18.40625 0 
L 9.421875 0 
z
" id="DejaVuSans-6c"/>
      <path d="M 30.609375 48.390625 
Q 23.390625 48.390625 19.1875 42.75 
Q 14.984375 37.109375 14.984375 27.296875 
Q 14.984375 17.484375 19.15625 11.84375 
Q 23.34375 6.203125 30.609375 6.203125 
Q 37.796875 6.203125 41.984375 11.859375 
Q 46.1875 17.53125 46.1875 27.296875 
Q 46.1875 37.015625 41.984375 42.703125 
Q 37.796875 48.390625 30.609375 48.390625 
z
M 30.609375 56 
Q 42.328125 56 49.015625 48.375 
Q 55.71875 40.765625 55.71875 27.296875 
Q 55.71875 13.875 49.015625 6.21875 
Q 42.328125 -1.421875 30.609375 -1.421875 
Q 18.84375 -1.421875 12.171875 6.21875 
Q 5.515625 13.875 5.515625 27.296875 
Q 5.515625 40.765625 12.171875 48.375 
Q 18.84375 56 30.609375 56 
z
" id="DejaVuSans-6f"/>
      <path d="M 45.40625 27.984375 
Q 45.40625 37.75 41.375 43.109375 
Q 37.359375 48.484375 30.078125 48.484375 
Q 22.859375 48.484375 18.828125 43.109375 
Q 14.796875 37.75 14.796875 27.984375 
Q 14.796875 18.265625 18.828125 12.890625 
Q 22.859375 7.515625 30.078125 7.515625 
Q 37.359375 7.515625 41.375 12.890625 
Q 45.40625 18.265625 45.40625 27.984375 
z
M 54.390625 6.78125 
Q 54.390625 -7.171875 48.1875 -13.984375 
Q 42 -20.796875 29.203125 -20.796875 
Q 24.46875 -20.796875 20.265625 -20.09375 
Q 16.0625 -19.390625 12.109375 -17.921875 
L 12.109375 -9.1875 
Q 16.0625 -11.328125 19.921875 -12.34375 
Q 23.78125 -13.375 27.78125 -13.375 
Q 36.625 -13.375 41.015625 -8.765625 
Q 45.40625 -4.15625 45.40625 5.171875 
L 45.40625 9.625 
Q 42.625 4.78125 38.28125 2.390625 
Q 33.9375 0 27.875 0 
Q 17.828125 0 11.671875 7.65625 
Q 5.515625 15.328125 5.515625 27.984375 
Q 5.515625 40.671875 11.671875 48.328125 
Q 17.828125 56 27.875 56 
Q 33.9375 56 38.28125 53.609375 
Q 42.625 51.21875 45.40625 46.390625 
L 45.40625 54.6875 
L 54.390625 54.6875 
z
" id="DejaVuSans-67"/>
      <path d="M 12.40625 8.296875 
L 28.515625 8.296875 
L 28.515625 63.921875 
L 10.984375 60.40625 
L 10.984375 69.390625 
L 28.421875 72.90625 
L 38.28125 72.90625 
L 38.28125 8.296875 
L 54.390625 8.296875 
L 54.390625 0 
L 12.40625 0 
z
" id="DejaVuSans-31"/>
      <path d="M 31 75.875 
Q 24.46875 64.65625 21.28125 53.65625 
Q 18.109375 42.671875 18.109375 31.390625 
Q 18.109375 20.125 21.3125 9.0625 
Q 24.515625 -2 31 -13.1875 
L 23.1875 -13.1875 
Q 15.875 -1.703125 12.234375 9.375 
Q 8.59375 20.453125 8.59375 31.390625 
Q 8.59375 42.28125 12.203125 53.3125 
Q 15.828125 64.359375 23.1875 75.875 
z
" id="DejaVuSans-28"/>
      <path d="M 51.125 44 
L 36.921875 44 
L 32.8125 27.6875 
L 47.125 27.6875 
z
M 43.796875 71.78125 
L 38.71875 51.515625 
L 52.984375 51.515625 
L 58.109375 71.78125 
L 65.921875 71.78125 
L 60.890625 51.515625 
L 76.125 51.515625 
L 76.125 44 
L 58.984375 44 
L 54.984375 27.6875 
L 70.515625 27.6875 
L 70.515625 20.21875 
L 53.078125 20.21875 
L 48 0 
L 40.1875 0 
L 45.21875 20.21875 
L 30.90625 20.21875 
L 25.875 0 
L 18.015625 0 
L 23.09375 20.21875 
L 7.71875 20.21875 
L 7.71875 27.6875 
L 24.90625 27.6875 
L 29 44 
L 13.28125 44 
L 13.28125 51.515625 
L 30.90625 51.515625 
L 35.890625 71.78125 
z
" id="DejaVuSans-23"/>
      <path id="DejaVuSans-20"/>
      <path d="M 37.109375 75.984375 
L 37.109375 68.5 
L 28.515625 68.5 
Q 23.6875 68.5 21.796875 66.546875 
Q 19.921875 64.59375 19.921875 59.515625 
L 19.921875 54.6875 
L 34.71875 54.6875 
L 34.71875 47.703125 
L 19.921875 47.703125 
L 19.921875 0 
L 10.890625 0 
L 10.890625 47.703125 
L 2.296875 47.703125 
L 2.296875 54.6875 
L 10.890625 54.6875 
L 10.890625 58.5 
Q 10.890625 67.625 15.140625 71.796875 
Q 19.390625 75.984375 28.609375 75.984375 
z
" id="DejaVuSans-66"/>
      <path d="M 4.890625 31.390625 
L 31.203125 31.390625 
L 31.203125 23.390625 
L 4.890625 23.390625 
z
" id="DejaVuSans-2d"/>
      <path d="M 56.203125 29.59375 
L 56.203125 25.203125 
L 14.890625 25.203125 
Q 15.484375 15.921875 20.484375 11.0625 
Q 25.484375 6.203125 34.421875 6.203125 
Q 39.59375 6.203125 44.453125 7.46875 
Q 49.3125 8.734375 54.109375 11.28125 
L 54.109375 2.78125 
Q 49.265625 0.734375 44.1875 -0.34375 
Q 39.109375 -1.421875 33.890625 -1.421875 
Q 20.796875 -1.421875 13.15625 6.1875 
Q 5.515625 13.8125 5.515625 26.8125 
Q 5.515625 40.234375 12.765625 48.109375 
Q 20.015625 56 32.328125 56 
Q 43.359375 56 49.78125 48.890625 
Q 56.203125 41.796875 56.203125 29.59375 
z
M 47.21875 32.234375 
Q 47.125 39.59375 43.09375 43.984375 
Q 39.0625 48.390625 32.421875 48.390625 
Q 24.90625 48.390625 20.390625 44.140625 
Q 15.875 39.890625 15.1875 32.171875 
z
" id="DejaVuSans-65"/>
      <path d="M 2.984375 54.6875 
L 12.5 54.6875 
L 29.59375 8.796875 
L 46.6875 54.6875 
L 56.203125 54.6875 
L 35.6875 0 
L 23.484375 0 
z
" id="DejaVuSans-76"/>
      <path d="M 34.28125 27.484375 
Q 23.390625 27.484375 19.1875 25 
Q 14.984375 22.515625 14.984375 16.5 
Q 14.984375 11.71875 18.140625 8.90625 
Q 21.296875 6.109375 26.703125 6.109375 
Q 34.1875 6.109375 38.703125 11.40625 
Q 43.21875 16.703125 43.21875 25.484375 
L 43.21875 27.484375 
z
M 52.203125 31.203125 
L 52.203125 0 
L 43.21875 0 
L 43.21875 8.296875 
Q 40.140625 3.328125 35.546875 0.953125 
Q 30.953125 -1.421875 24.3125 -1.421875 
Q 15.921875 -1.421875 10.953125 3.296875 
Q 6 8.015625 6 15.921875 
Q 6 25.140625 12.171875 29.828125 
Q 18.359375 34.515625 30.609375 34.515625 
L 43.21875 34.515625 
L 43.21875 35.40625 
Q 43.21875 41.609375 39.140625 45 
Q 35.0625 48.390625 27.6875 48.390625 
Q 23 48.390625 18.546875 47.265625 
Q 14.109375 46.140625 10.015625 43.890625 
L 10.015625 52.203125 
Q 14.9375 54.109375 19.578125 55.046875 
Q 24.21875 56 28.609375 56 
Q 40.484375 56 46.34375 49.84375 
Q 52.203125 43.703125 52.203125 31.203125 
z
" id="DejaVuSans-61"/>
      <path d="M 44.28125 53.078125 
L 44.28125 44.578125 
Q 40.484375 46.53125 36.375 47.5 
Q 32.28125 48.484375 27.875 48.484375 
Q 21.1875 48.484375 17.84375 46.4375 
Q 14.5 44.390625 14.5 40.28125 
Q 14.5 37.15625 16.890625 35.375 
Q 19.28125 33.59375 26.515625 31.984375 
L 29.59375 31.296875 
Q 39.15625 29.25 43.1875 25.515625 
Q 47.21875 21.78125 47.21875 15.09375 
Q 47.21875 7.46875 41.1875 3.015625 
Q 35.15625 -1.421875 24.609375 -1.421875 
Q 20.21875 -1.421875 15.453125 -0.5625 
Q 10.6875 0.296875 5.421875 2 
L 5.421875 11.28125 
Q 10.40625 8.6875 15.234375 7.390625 
Q 20.0625 6.109375 24.8125 6.109375 
Q 31.15625 6.109375 34.5625 8.28125 
Q 37.984375 10.453125 37.984375 14.40625 
Q 37.984375 18.0625 35.515625 20.015625 
Q 33.0625 21.96875 24.703125 23.78125 
L 21.578125 24.515625 
Q 13.234375 26.265625 9.515625 29.90625 
Q 5.8125 33.546875 5.8125 39.890625 
Q 5.8125 47.609375 11.28125 51.796875 
Q 16.75 56 26.8125 56 
Q 31.78125 56 36.171875 55.265625 
Q 40.578125 54.546875 44.28125 53.078125 
z
" id="DejaVuSans-73"/>
      <path d="M 25.390625 72.90625 
L 33.6875 72.90625 
L 8.296875 -9.28125 
L 0 -9.28125 
z
" id="DejaVuSans-2f"/>
      <path d="M 45.40625 46.390625 
L 45.40625 75.984375 
L 54.390625 75.984375 
L 54.390625 0 
L 45.40625 0 
L 45.40625 8.203125 
Q 42.578125 3.328125 38.25 0.953125 
Q 33.9375 -1.421875 27.875 -1.421875 
Q 17.96875 -1.421875 11.734375 6.484375 
Q 5.515625 14.40625 5.515625 27.296875 
Q 5.515625 40.1875 11.734375 48.09375 
Q 17.96875 56 27.875 56 
Q 33.9375 56 38.25 53.625 
Q 42.578125 51.265625 45.40625 46.390625 
z
M 14.796875 27.296875 
Q 14.796875 17.390625 18.875 11.75 
Q 22.953125 6.109375 30.078125 6.109375 
Q 37.203125 6.109375 41.296875 11.75 
Q 45.40625 17.390625 45.40625 27.296875 
Q 45.40625 37.203125 41.296875 42.84375 
Q 37.203125 48.484375 30.078125 48.484375 
Q 22.953125 48.484375 18.875 42.84375 
Q 14.796875 37.203125 14.796875 27.296875 
z
" id="DejaVuSans-64"/>
      <path d="M 9.421875 54.6875 
L 18.40625 54.6875 
L 18.40625 0 
L 9.421875 0 
z
M 9.421875 75.984375 
L 18.40625 75.984375 
L 18.40625 64.59375 
L 9.421875 64.59375 
z
" id="DejaVuSans-69"/>
      <path d="M 52 44.1875 
Q 55.375 50.25 60.0625 53.125 
Q 64.75 56 71.09375 56 
Q 79.640625 56 84.28125 50.015625 
Q 88.921875 44.046875 88.921875 33.015625 
L 88.921875 0 
L 79.890625 0 
L 79.890625 32.71875 
Q 79.890625 40.578125 77.09375 44.375 
Q 74.3125 48.1875 68.609375 48.1875 
Q 61.625 48.1875 57.5625 43.546875 
Q 53.515625 38.921875 53.515625 30.90625 
L 53.515625 0 
L 44.484375 0 
L 44.484375 32.71875 
Q 44.484375 40.625 41.703125 44.40625 
Q 38.921875 48.1875 33.109375 48.1875 
Q 26.21875 48.1875 22.15625 43.53125 
Q 18.109375 38.875 18.109375 30.90625 
L 18.109375 0 
L 9.078125 0 
L 9.078125 54.6875 
L 18.109375 54.6875 
L 18.109375 46.1875 
Q 21.1875 51.21875 25.484375 53.609375 
Q 29.78125 56 35.6875 56 
Q 41.65625 56 45.828125 52.96875 
Q 50 49.953125 52 44.1875 
z
" id="DejaVuSans-6d"/>
      <path d="M 54.890625 33.015625 
L 54.890625 0 
L 45.90625 0 
L 45.90625 32.71875 
Q 45.90625 40.484375 42.875 44.328125 
Q 39.84375 48.1875 33.796875 48.1875 
Q 26.515625 48.1875 22.3125 43.546875 
Q 18.109375 38.921875 18.109375 30.90625 
L 18.109375 0 
L 9.078125 0 
L 9.078125 54.6875 
L 18.109375 54.6875 
L 18.109375 46.1875 
Q 21.34375 51.125 25.703125 53.5625 
Q 30.078125 56 35.796875 56 
Q 45.21875 56 50.046875 50.171875 
Q 54.890625 44.34375 54.890625 33.015625 
z
" id="DejaVuSans-6e"/>
      <path d="M 8.015625 75.875 
L 15.828125 75.875 
Q 23.140625 64.359375 26.78125 53.3125 
Q 30.421875 42.28125 30.421875 31.390625 
Q 30.421875 20.453125 26.78125 9.375 
Q 23.140625 -1.703125 15.828125 -13.1875 
L 8.015625 -13.1875 
Q 14.5 -2 17.703125 9.0625 
Q 20.90625 20.125 20.90625 31.390625 
Q 20.90625 42.671875 17.703125 53.65625 
Q 14.5 64.65625 8.015625 75.875 
z
" id="DejaVuSans-29"/>
     </defs>
     <g transform="translate(107.211219 338.153594)scale(0.17 -0.17)">
      <use xlink:href="#DejaVuSans-6c"/>
      <use x="27.783203" xlink:href="#DejaVuSans-6f"/>
      <use x="88.964844" xlink:href="#DejaVuSans-67"/>
      <use x="152.441406" xlink:href="#DejaVuSans-31"/>
      <use x="216.064453" xlink:href="#DejaVuSans-30"/>
      <use x="279.6875" xlink:href="#DejaVuSans-28"/>
      <use x="318.701172" xlink:href="#DejaVuSans-23"/>
      <use x="402.490234" xlink:href="#DejaVuSans-20"/>
      <use x="434.277344" xlink:href="#DejaVuSans-66"/>
      <use x="469.404297" xlink:href="#DejaVuSans-2d"/>
      <use x="505.488281" xlink:href="#DejaVuSans-65"/>
      <use x="567.011719" xlink:href="#DejaVuSans-76"/>
      <use x="626.191406" xlink:href="#DejaVuSans-61"/>
      <use x="687.470703" xlink:href="#DejaVuSans-6c"/>
      <use x="715.253906" xlink:href="#DejaVuSans-73"/>
      <use x="767.353516" xlink:href="#DejaVuSans-20"/>
      <use x="799.140625" xlink:href="#DejaVuSans-2f"/>
      <use x="832.832031" xlink:href="#DejaVuSans-20"/>
      <use x="864.619141" xlink:href="#DejaVuSans-64"/>
      <use x="928.095703" xlink:href="#DejaVuSans-69"/>
      <use x="955.878906" xlink:href="#DejaVuSans-6d"/>
      <use x="1053.291016" xlink:href="#DejaVuSans-65"/>
      <use x="1114.814453" xlink:href="#DejaVuSans-6e"/>
      <use x="1178.193359" xlink:href="#DejaVuSans-73"/>
      <use x="1230.292969" xlink:href="#DejaVuSans-69"/>
      <use x="1258.076172" xlink:href="#DejaVuSans-6f"/>
      <use x="1319.257812" xlink:href="#DejaVuSans-6e"/>
      <use x="1382.636719" xlink:href="#DejaVuSans-29"/>
     </g>
    </g>
   </g>
   <g id="matplotlib.axis_2">
    <g id="ytick_1">
     <g id="line2d_15">
      <path clip-path="url(#p18cb42c3b7)" d="M 56.12 294.88 
L 399.984 294.88 
" style="fill:none;stroke:#b0b0b0;stroke-linecap:square;stroke-width:0.8;"/>
     </g>
     <g id="line2d_16">
      <defs>
       <path d="M 0 0 
L -3.5 0 
" id="md9b82f245a" style="stroke:#000000;stroke-width:0.8;"/>
      </defs>
      <g>
       <use style="stroke:#000000;stroke-width:0.8;" x="56.12" xlink:href="#md9b82f245a" y="294.88"/>
      </g>
     </g>
     <g id="text_7">
      <!-- 0.0 -->
      <defs>
       <path d="M 10.6875 12.40625 
L 21 12.40625 
L 21 0 
L 10.6875 0 
z
" id="DejaVuSans-2e"/>
      </defs>
      <g transform="translate(23.675 300.95875)scale(0.16 -0.16)">
       <use xlink:href="#DejaVuSans-30"/>
       <use x="63.623047" xlink:href="#DejaVuSans-2e"/>
       <use x="95.410156" xlink:href="#DejaVuSans-30"/>
      </g>
     </g>
    </g>
    <g id="ytick_2">
     <g id="line2d_17">
      <path clip-path="url(#p18cb42c3b7)" d="M 56.12 241.406733 
L 399.984 241.406733 
" style="fill:none;stroke:#b0b0b0;stroke-linecap:square;stroke-width:0.8;"/>
     </g>
     <g id="line2d_18">
      <g>
       <use style="stroke:#000000;stroke-width:0.8;" x="56.12" xlink:href="#md9b82f245a" y="241.406733"/>
      </g>
     </g>
     <g id="text_8">
      <!-- 0.2 -->
      <g transform="translate(23.675 247.485483)scale(0.16 -0.16)">
       <use xlink:href="#DejaVuSans-30"/>
       <use x="63.623047" xlink:href="#DejaVuSans-2e"/>
       <use x="95.410156" xlink:href="#DejaVuSans-32"/>
      </g>
     </g>
    </g>
    <g id="ytick_3">
     <g id="line2d_19">
      <path clip-path="url(#p18cb42c3b7)" d="M 56.12 187.933465 
L 399.984 187.933465 
" style="fill:none;stroke:#b0b0b0;stroke-linecap:square;stroke-width:0.8;"/>
     </g>
     <g id="line2d_20">
      <g>
       <use style="stroke:#000000;stroke-width:0.8;" x="56.12" xlink:href="#md9b82f245a" y="187.933465"/>
      </g>
     </g>
     <g id="text_9">
      <!-- 0.4 -->
      <g transform="translate(23.675 194.012215)scale(0.16 -0.16)">
       <use xlink:href="#DejaVuSans-30"/>
       <use x="63.623047" xlink:href="#DejaVuSans-2e"/>
       <use x="95.410156" xlink:href="#DejaVuSans-34"/>
      </g>
     </g>
    </g>
    <g id="ytick_4">
     <g id="line2d_21">
      <path clip-path="url(#p18cb42c3b7)" d="M 56.12 134.460198 
L 399.984 134.460198 
" style="fill:none;stroke:#b0b0b0;stroke-linecap:square;stroke-width:0.8;"/>
     </g>
     <g id="line2d_22">
      <g>
       <use style="stroke:#000000;stroke-width:0.8;" x="56.12" xlink:href="#md9b82f245a" y="134.460198"/>
      </g>
     </g>
     <g id="text_10">
      <!-- 0.6 -->
      <g transform="translate(23.675 140.538948)scale(0.16 -0.16)">
       <use xlink:href="#DejaVuSans-30"/>
       <use x="63.623047" xlink:href="#DejaVuSans-2e"/>
       <use x="95.410156" xlink:href="#DejaVuSans-36"/>
      </g>
     </g>
    </g>
    <g id="ytick_5">
     <g id="line2d_23">
      <path clip-path="url(#p18cb42c3b7)" d="M 56.12 80.986931 
L 399.984 80.986931 
" style="fill:none;stroke:#b0b0b0;stroke-linecap:square;stroke-width:0.8;"/>
     </g>
     <g id="line2d_24">
      <g>
       <use style="stroke:#000000;stroke-width:0.8;" x="56.12" xlink:href="#md9b82f245a" y="80.986931"/>
      </g>
     </g>
     <g id="text_11">
      <!-- 0.8 -->
      <g transform="translate(23.675 87.065681)scale(0.16 -0.16)">
       <use xlink:href="#DejaVuSans-30"/>
       <use x="63.623047" xlink:href="#DejaVuSans-2e"/>
       <use x="95.410156" xlink:href="#DejaVuSans-38"/>
      </g>
     </g>
    </g>
    <g id="ytick_6">
     <g id="line2d_25">
      <path clip-path="url(#p18cb42c3b7)" d="M 56.12 27.513663 
L 399.984 27.513663 
" style="fill:none;stroke:#b0b0b0;stroke-linecap:square;stroke-width:0.8;"/>
     </g>
     <g id="line2d_26">
      <g>
       <use style="stroke:#000000;stroke-width:0.8;" x="56.12" xlink:href="#md9b82f245a" y="27.513663"/>
      </g>
     </g>
     <g id="text_12">
      <!-- 1.0 -->
      <g transform="translate(23.675 33.592413)scale(0.16 -0.16)">
       <use xlink:href="#DejaVuSans-31"/>
       <use x="63.623047" xlink:href="#DejaVuSans-2e"/>
       <use x="95.410156" xlink:href="#DejaVuSans-30"/>
      </g>
     </g>
    </g>
    <g id="text_13">
     <!-- Fraction of function,target pairs -->
     <defs>
      <path d="M 9.8125 72.90625 
L 51.703125 72.90625 
L 51.703125 64.59375 
L 19.671875 64.59375 
L 19.671875 43.109375 
L 48.578125 43.109375 
L 48.578125 34.8125 
L 19.671875 34.8125 
L 19.671875 0 
L 9.8125 0 
z
" id="DejaVuSans-46"/>
      <path d="M 41.109375 46.296875 
Q 39.59375 47.171875 37.8125 47.578125 
Q 36.03125 48 33.890625 48 
Q 26.265625 48 22.1875 43.046875 
Q 18.109375 38.09375 18.109375 28.8125 
L 18.109375 0 
L 9.078125 0 
L 9.078125 54.6875 
L 18.109375 54.6875 
L 18.109375 46.1875 
Q 20.953125 51.171875 25.484375 53.578125 
Q 30.03125 56 36.53125 56 
Q 37.453125 56 38.578125 55.875 
Q 39.703125 55.765625 41.0625 55.515625 
z
" id="DejaVuSans-72"/>
      <path d="M 48.78125 52.59375 
L 48.78125 44.1875 
Q 44.96875 46.296875 41.140625 47.34375 
Q 37.3125 48.390625 33.40625 48.390625 
Q 24.65625 48.390625 19.8125 42.84375 
Q 14.984375 37.3125 14.984375 27.296875 
Q 14.984375 17.28125 19.8125 11.734375 
Q 24.65625 6.203125 33.40625 6.203125 
Q 37.3125 6.203125 41.140625 7.25 
Q 44.96875 8.296875 48.78125 10.40625 
L 48.78125 2.09375 
Q 45.015625 0.34375 40.984375 -0.53125 
Q 36.96875 -1.421875 32.421875 -1.421875 
Q 20.0625 -1.421875 12.78125 6.34375 
Q 5.515625 14.109375 5.515625 27.296875 
Q 5.515625 40.671875 12.859375 48.328125 
Q 20.21875 56 33.015625 56 
Q 37.15625 56 41.109375 55.140625 
Q 45.0625 54.296875 48.78125 52.59375 
z
" id="DejaVuSans-63"/>
      <path d="M 18.3125 70.21875 
L 18.3125 54.6875 
L 36.8125 54.6875 
L 36.8125 47.703125 
L 18.3125 47.703125 
L 18.3125 18.015625 
Q 18.3125 11.328125 20.140625 9.421875 
Q 21.96875 7.515625 27.59375 7.515625 
L 36.8125 7.515625 
L 36.8125 0 
L 27.59375 0 
Q 17.1875 0 13.234375 3.875 
Q 9.28125 7.765625 9.28125 18.015625 
L 9.28125 47.703125 
L 2.6875 47.703125 
L 2.6875 54.6875 
L 9.28125 54.6875 
L 9.28125 70.21875 
z
" id="DejaVuSans-74"/>
      <path d="M 8.5 21.578125 
L 8.5 54.6875 
L 17.484375 54.6875 
L 17.484375 21.921875 
Q 17.484375 14.15625 20.5 10.265625 
Q 23.53125 6.390625 29.59375 6.390625 
Q 36.859375 6.390625 41.078125 11.03125 
Q 45.3125 15.671875 45.3125 23.6875 
L 45.3125 54.6875 
L 54.296875 54.6875 
L 54.296875 0 
L 45.3125 0 
L 45.3125 8.40625 
Q 42.046875 3.421875 37.71875 1 
Q 33.40625 -1.421875 27.6875 -1.421875 
Q 18.265625 -1.421875 13.375 4.4375 
Q 8.5 10.296875 8.5 21.578125 
z
M 31.109375 56 
z
" id="DejaVuSans-75"/>
      <path d="M 11.71875 12.40625 
L 22.015625 12.40625 
L 22.015625 4 
L 14.015625 -11.625 
L 7.71875 -11.625 
L 11.71875 4 
z
" id="DejaVuSans-2c"/>
      <path d="M 18.109375 8.203125 
L 18.109375 -20.796875 
L 9.078125 -20.796875 
L 9.078125 54.6875 
L 18.109375 54.6875 
L 18.109375 46.390625 
Q 20.953125 51.265625 25.265625 53.625 
Q 29.59375 56 35.59375 56 
Q 45.5625 56 51.78125 48.09375 
Q 58.015625 40.1875 58.015625 27.296875 
Q 58.015625 14.40625 51.78125 6.484375 
Q 45.5625 -1.421875 35.59375 -1.421875 
Q 29.59375 -1.421875 25.265625 0.953125 
Q 20.953125 3.328125 18.109375 8.203125 
z
M 48.6875 27.296875 
Q 48.6875 37.203125 44.609375 42.84375 
Q 40.53125 48.484375 33.40625 48.484375 
Q 26.265625 48.484375 22.1875 42.84375 
Q 18.109375 37.203125 18.109375 27.296875 
Q 18.109375 17.390625 22.1875 11.75 
Q 26.265625 6.109375 33.40625 6.109375 
Q 40.53125 6.109375 44.609375 11.75 
Q 48.6875 17.390625 48.6875 27.296875 
z
" id="DejaVuSans-70"/>
     </defs>
     <g transform="translate(16.139531 294.999375)rotate(-90)scale(0.17 -0.17)">
      <use xlink:href="#DejaVuSans-46"/>
      <use x="57.410156" xlink:href="#DejaVuSans-72"/>
      <use x="98.523438" xlink:href="#DejaVuSans-61"/>
      <use x="159.802734" xlink:href="#DejaVuSans-63"/>
      <use x="214.783203" xlink:href="#DejaVuSans-74"/>
      <use x="253.992188" xlink:href="#DejaVuSans-69"/>
      <use x="281.775391" xlink:href="#DejaVuSans-6f"/>
      <use x="342.957031" xlink:href="#DejaVuSans-6e"/>
      <use x="406.335938" xlink:href="#DejaVuSans-20"/>
      <use x="438.123047" xlink:href="#DejaVuSans-6f"/>
      <use x="499.304688" xlink:href="#DejaVuSans-66"/>
      <use x="534.509766" xlink:href="#DejaVuSans-20"/>
      <use x="566.296875" xlink:href="#DejaVuSans-66"/>
      <use x="601.501953" xlink:href="#DejaVuSans-75"/>
      <use x="664.880859" xlink:href="#DejaVuSans-6e"/>
      <use x="728.259766" xlink:href="#DejaVuSans-63"/>
      <use x="783.240234" xlink:href="#DejaVuSans-74"/>
      <use x="822.449219" xlink:href="#DejaVuSans-69"/>
      <use x="850.232422" xlink:href="#DejaVuSans-6f"/>
      <use x="911.414062" xlink:href="#DejaVuSans-6e"/>
      <use x="974.792969" xlink:href="#DejaVuSans-2c"/>
      <use x="1006.580078" xlink:href="#DejaVuSans-74"/>
      <use x="1045.789062" xlink:href="#DejaVuSans-61"/>
      <use x="1107.068359" xlink:href="#DejaVuSans-72"/>
      <use x="1148.166016" xlink:href="#DejaVuSans-67"/>
      <use x="1211.642578" xlink:href="#DejaVuSans-65"/>
      <use x="1273.166016" xlink:href="#DejaVuSans-74"/>
      <use x="1312.375" xlink:href="#DejaVuSans-20"/>
      <use x="1344.162109" xlink:href="#DejaVuSans-70"/>
      <use x="1407.638672" xlink:href="#DejaVuSans-61"/>
      <use x="1468.917969" xlink:href="#DejaVuSans-69"/>
      <use x="1496.701172" xlink:href="#DejaVuSans-72"/>
      <use x="1537.814453" xlink:href="#DejaVuSans-73"/>
     </g>
    </g>
   </g>
   <g id="line2d_27">
    <defs>
     <path d="M 0 1.5 
C 0.397805 1.5 0.77937 1.341951 1.06066 1.06066 
C 1.341951 0.77937 1.5 0.397805 1.5 0 
C 1.5 -0.397805 1.341951 -0.77937 1.06066 -1.06066 
C 0.77937 -1.341951 0.397805 -1.5 0 -1.5 
C -0.397805 -1.5 -0.77937 -1.341951 -1.06066 -1.06066 
C -1.341951 -0.77937 -1.5 -0.397805 -1.5 0 
C -1.5 0.397805 -1.341951 0.77937 -1.06066 1.06066 
C -0.77937 1.341951 -0.397805 1.5 0 1.5 
z
" id="m11b33702be" style="stroke:#f5deb3;"/>
    </defs>
    <g>
     <use style="fill:#f5deb3;stroke:#f5deb3;" x="171.313233" xlink:href="#m11b33702be" y="27.513663"/>
     <use style="fill:#f5deb3;stroke:#f5deb3;" x="171.313233" xlink:href="#m11b33702be" y="27.513663"/>
    </g>
   </g>
   <g id="line2d_28">
    <defs>
     <path d="M 0 1.5 
C 0.397805 1.5 0.77937 1.341951 1.06066 1.06066 
C 1.341951 0.77937 1.5 0.397805 1.5 0 
C 1.5 -0.397805 1.341951 -0.77937 1.06066 -1.06066 
C 0.77937 -1.341951 0.397805 -1.5 0 -1.5 
C -0.397805 -1.5 -0.77937 -1.341951 -1.06066 -1.06066 
C -1.341951 -0.77937 -1.5 -0.397805 -1.5 0 
C -1.5 0.397805 -1.341951 0.77937 -1.06066 1.06066 
C -0.77937 1.341951 -0.397805 1.5 0 1.5 
z
" id="m9703ffbffc" style="stroke:#000080;"/>
    </defs>
    <g>
     <use style="fill:#000080;stroke:#000080;" x="349.218118" xlink:href="#m9703ffbffc" y="27.513663"/>
     <use style="fill:#000080;stroke:#000080;" x="349.218118" xlink:href="#m9703ffbffc" y="27.513663"/>
    </g>
   </g>
   <g id="line2d_29">
    <path d="M 37.218523 294.88 
L 37.218523 277.055578 
L 49.144027 277.055578 
L 49.144027 275.482834 
L 68.045504 275.482834 
L 68.045504 274.434339 
L 76.834191 274.434339 
L 76.834191 273.910091 
L 85.963579 273.910091 
L 85.963579 273.385844 
L 88.759695 273.385844 
L 88.759695 272.861596 
L 90.399494 272.861596 
L 90.399494 272.337348 
L 93.273637 272.337348 
L 93.273637 270.240357 
L 95.735668 270.240357 
L 95.735668 268.667614 
L 96.846045 268.667614 
L 96.846045 268.143366 
L 97.889083 268.143366 
L 97.889083 265.522128 
L 98.38781 265.522128 
L 98.38781 263.949385 
L 99.802705 263.949385 
L 99.802705 263.425137 
L 101.524628 263.425137 
L 101.524628 262.900889 
L 103.822018 262.900889 
L 103.822018 262.376641 
L 106.47416 262.376641 
L 106.47416 261.852394 
L 107.661173 261.852394 
L 107.661173 261.328146 
L 109.559696 261.328146 
L 109.559696 260.803898 
L 110.557359 260.803898 
L 110.557359 259.231155 
L 111.953113 259.231155 
L 111.953113 258.18266 
L 115.01529 258.18266 
L 115.01529 257.658412 
L 119.871061 257.658412 
L 119.871061 257.134164 
L 124.210555 257.134164 
L 124.319792 255.561421 
L 127.583184 255.561421 
L 127.583184 253.988678 
L 129.377872 253.988678 
L 129.377872 253.46443 
L 134.286778 253.46443 
L 134.286778 252.940182 
L 140.386678 252.940182 
L 140.386678 252.415935 
L 148.994666 252.415935 
L 148.994666 251.891687 
L 150.051438 251.891687 
L 150.051438 250.843192 
L 152.983677 250.843192 
L 152.983677 250.318944 
L 154.310068 250.318944 
L 154.310068 249.794696 
L 155.398997 249.794696 
L 155.434728 247.697705 
L 155.541481 247.697705 
L 155.541481 247.173458 
L 156.937696 247.173458 
L 156.937696 246.124962 
L 160.868192 246.124962 
L 160.868192 245.076467 
L 162.013509 245.076467 
L 162.013509 244.027971 
L 171.761229 244.027971 
L 171.761229 243.503724 
L 172.116827 243.503724 
L 172.116827 242.455228 
L 173.407308 242.455228 
L 173.407308 241.406733 
L 176.731477 241.406733 
L 176.731477 240.358237 
L 177.013825 240.358237 
L 177.013825 238.785494 
L 177.579776 238.785494 
L 177.579776 238.261246 
L 178.364687 238.261246 
L 178.416389 236.164255 
L 183.47469 236.164255 
L 183.47469 235.640008 
L 184.407302 235.640008 
L 184.407302 234.591512 
L 184.816532 234.591512 
L 184.816532 234.067265 
L 184.945457 234.067265 
L 184.945457 233.543017 
L 185.66243 233.543017 
L 185.66243 233.018769 
L 186.377329 233.018769 
L 186.477494 230.921778 
L 186.641212 230.921778 
L 186.641212 230.397531 
L 189.554479 230.397531 
L 189.554479 229.873283 
L 190.891498 229.873283 
L 190.891498 229.349035 
L 191.981265 229.349035 
L 191.981265 228.824787 
L 198.075305 228.824787 
L 198.075305 228.30054 
L 200.957507 228.30054 
L 200.957507 227.776292 
L 206.866686 227.776292 
L 206.929435 226.727797 
L 207.753176 226.727797 
L 207.753176 226.203549 
L 210.388616 226.203549 
L 210.388616 225.679301 
L 211.110906 225.679301 
L 211.110906 224.630806 
L 213.53397 224.630806 
L 213.53397 223.58231 
L 214.377868 223.58231 
L 214.43465 222.009567 
L 215.955032 222.009567 
L 215.955032 221.485319 
L 219.586314 221.485319 
L 219.68465 219.912576 
L 221.704079 219.912576 
L 221.704079 219.388328 
L 222.376577 219.388328 
L 222.392247 218.339833 
L 222.666513 218.339833 
L 222.666513 217.815585 
L 223.646151 217.815585 
L 223.646151 217.291338 
L 223.796528 217.291338 
L 223.869555 216.242842 
L 225.574596 216.242842 
L 225.591239 215.194347 
L 225.712995 215.194347 
L 225.712995 214.670099 
L 225.888975 214.670099 
L 225.888975 214.145851 
L 226.017798 214.145851 
L 226.041974 212.573108 
L 226.164981 212.573108 
L 226.269387 209.95187 
L 226.277236 209.95187 
L 226.277236 209.427622 
L 226.455047 209.427622 
L 226.455047 208.379126 
L 227.113619 208.379126 
L 227.185997 206.806383 
L 227.708376 206.806383 
L 227.735365 204.709392 
L 228.297735 204.709392 
L 228.407214 202.612401 
L 228.477685 202.612401 
L 228.477685 202.088154 
L 229.48318 202.088154 
L 229.49837 201.039658 
L 230.65359 201.039658 
L 230.694555 199.991163 
L 231.017045 199.991163 
L 231.11868 198.942667 
L 232.092746 198.942667 
L 232.172773 197.369924 
L 232.4661 197.369924 
L 232.568018 195.272933 
L 232.61091 195.272933 
L 232.67134 194.224438 
L 233.427664 194.224438 
L 233.431883 193.175943 
L 233.665751 193.175943 
L 233.682389 192.127447 
L 233.925201 192.127447 
L 233.925201 191.603199 
L 234.092453 191.603199 
L 234.177676 188.457713 
L 234.298253 188.457713 
L 234.384461 186.360722 
L 234.629439 186.360722 
L 234.674986 184.787979 
L 234.803652 184.787979 
L 234.840263 183.739484 
L 235.214427 183.739484 
L 235.304948 182.16674 
L 235.367259 182.16674 
L 235.367259 181.642493 
L 235.506683 181.642493 
L 235.587565 179.021254 
L 235.882418 179.021254 
L 235.882418 178.497006 
L 236.030279 178.497006 
L 236.030279 177.972759 
L 238.787731 177.972759 
L 238.847321 174.827272 
L 242.009198 174.827272 
L 242.009198 173.778777 
L 247.82961 173.778777 
L 247.82961 172.730281 
L 250.852074 172.730281 
L 250.85507 170.109043 
L 253.212307 170.109043 
L 253.212307 169.584795 
L 253.945764 169.584795 
L 253.948848 168.5363 
L 258.025196 168.5363 
L 258.025196 168.012052 
L 264.65352 168.012052 
L 264.65352 166.963557 
L 264.855563 166.963557 
L 264.868276 164.866566 
L 271.833933 164.866566 
L 271.849687 161.721079 
L 275.299254 161.721079 
L 275.299254 161.196832 
L 277.969391 161.196832 
L 278.014963 156.478602 
L 281.042531 156.478602 
L 281.042531 155.954354 
L 281.488911 155.954354 
L 281.488911 154.905859 
L 281.855888 154.905859 
L 281.855888 154.381611 
L 281.974246 154.381611 
L 282.041769 152.28462 
L 282.093666 152.28462 
L 282.093666 151.760373 
L 282.777074 151.760373 
L 282.777074 151.236125 
L 286.669596 151.236125 
L 286.688124 149.663382 
L 286.976083 149.663382 
L 286.979164 148.090639 
L 294.04407 148.090639 
L 294.150223 140.226923 
L 294.168025 140.226923 
L 294.258079 133.93595 
L 294.285911 133.93595 
L 294.387769 122.926748 
L 294.397446 122.926748 
L 294.506979 120.829757 
L 295.175451 120.829757 
L 295.175451 120.30551 
L 296.211432 120.30551 
L 296.211432 119.781262 
L 298.043196 119.781262 
L 298.047538 116.111528 
L 299.580449 116.111528 
L 299.589212 115.063032 
L 300.514223 115.063032 
L 300.514223 114.538785 
L 300.839793 114.538785 
L 300.858702 112.441794 
L 302.658583 112.441794 
L 302.658583 111.917546 
L 303.612458 111.917546 
L 303.613678 110.869051 
L 305.87061 110.869051 
L 305.963063 102.481087 
L 305.982574 102.481087 
L 306.08845 93.044628 
L 307.984445 93.044628 
L 307.984523 91.471885 
L 309.41291 91.471885 
L 309.413014 90.42339 
L 310.724361 90.42339 
L 310.724361 89.899142 
L 312.814654 89.899142 
L 312.91354 78.88994 
L 314.244213 78.88994 
L 314.245121 77.841444 
L 315.38928 77.841444 
L 315.38928 77.317197 
L 316.193689 77.317197 
L 316.194496 76.268701 
L 317.739677 76.268701 
L 317.814506 67.35649 
L 318.824776 67.35649 
L 318.824776 66.832242 
L 321.56379 66.832242 
L 321.623859 58.444279 
L 322.438172 58.444279 
L 322.438172 57.920031 
L 324.695943 57.920031 
L 324.739708 53.201802 
L 325.422973 53.201802 
L 325.422973 52.677554 
L 327.331805 52.677554 
L 327.378313 49.532068 
L 329.631332 49.532068 
L 329.66525 42.716847 
L 331.653666 42.716847 
L 331.683591 40.619856 
L 332.555219 40.619856 
L 332.555219 40.095609 
L 333.429677 40.095609 
L 333.429677 40.095609 
" style="fill:none;stroke:#000080;stroke-linecap:square;stroke-width:1.5;"/>
   </g>
   <g id="line2d_30">
    <defs>
     <path d="M 0 6 
C 1.591219 6 3.117479 5.367802 4.242641 4.242641 
C 5.367802 3.117479 6 1.591219 6 0 
C 6 -1.591219 5.367802 -3.117479 4.242641 -4.242641 
C 3.117479 -5.367802 1.591219 -6 0 -6 
C -1.591219 -6 -3.117479 -5.367802 -4.242641 -4.242641 
C -5.367802 -3.117479 -6 -1.591219 -6 0 
C -6 1.591219 -5.367802 3.117479 -4.242641 4.242641 
C -3.117479 5.367802 -1.591219 6 0 6 
z
" id="m05250540ba" style="stroke:#000080;stroke-width:1.5;"/>
    </defs>
    <g>
     <use style="fill-opacity:0;stroke:#000080;stroke-width:1.5;" x="111.953113" xlink:href="#m05250540ba" y="259.231155"/>
     <use style="fill-opacity:0;stroke:#000080;stroke-width:1.5;" x="207.753176" xlink:href="#m05250540ba" y="226.203549"/>
     <use style="fill-opacity:0;stroke:#000080;stroke-width:1.5;" x="258.025196" xlink:href="#m05250540ba" y="168.5363"/>
     <use style="fill-opacity:0;stroke:#000080;stroke-width:1.5;" x="322.438172" xlink:href="#m05250540ba" y="58.444279"/>
     <use style="fill-opacity:0;stroke:#000080;stroke-width:1.5;" x="332.555219" xlink:href="#m05250540ba" y="40.095609"/>
     <use style="fill-opacity:0;stroke:#000080;stroke-width:1.5;" x="333.429677" xlink:href="#m05250540ba" y="40.095609"/>
    </g>
   </g>
   <g id="line2d_31">
    <path style="fill:none;stroke:#000080;stroke-linecap:square;stroke-width:1.5;"/>
    <g/>
   </g>
   <g id="line2d_32">
    <path clip-path="url(#p18cb42c3b7)" d="M 293.814067 148.090639 
" style="fill:none;stroke:#000080;stroke-linecap:square;stroke-width:1.5;"/>
    <defs>
     <path d="M -12 12 
L 12 -12 
M -12 -12 
L 12 12 
" id="mfba58b54d7" style="stroke:#000080;stroke-width:3;"/>
    </defs>
    <g clip-path="url(#p18cb42c3b7)">
     <use style="fill:#000080;stroke:#000080;stroke-width:3;" x="293.814067" xlink:href="#mfba58b54d7" y="148.090639"/>
    </g>
   </g>
   <g id="line2d_33">
    <defs>
     <path d="M 0 1.5 
C 0.397805 1.5 0.77937 1.341951 1.06066 1.06066 
C 1.341951 0.77937 1.5 0.397805 1.5 0 
C 1.5 -0.397805 1.341951 -0.77937 1.06066 -1.06066 
C 0.77937 -1.341951 0.397805 -1.5 0 -1.5 
C -0.397805 -1.5 -0.77937 -1.341951 -1.06066 -1.06066 
C -1.341951 -0.77937 -1.5 -0.397805 -1.5 0 
C -1.5 0.397805 -1.341951 0.77937 -1.06066 1.06066 
C -0.77937 1.341951 -0.397805 1.5 0 1.5 
z
" id="me5828544dd" style="stroke:#ff00ff;"/>
    </defs>
    <g>
     <use style="fill:#ff00ff;stroke:#ff00ff;" x="320.845337" xlink:href="#me5828544dd" y="184.787979"/>
     <use style="fill:#ff00ff;stroke:#ff00ff;" x="320.845337" xlink:href="#me5828544dd" y="184.787979"/>
    </g>
   </g>
   <g id="line2d_34">
    <path d="M 37.218523 294.88 
L 37.218523 278.104073 
L 49.144027 278.104073 
L 49.144027 275.482834 
L 56.12 275.482834 
L 56.12 273.910091 
L 61.069532 273.910091 
L 61.069532 268.143366 
L 64.908686 268.143366 
L 64.908686 266.570623 
L 68.045504 266.570623 
L 68.045504 264.473632 
L 70.697646 264.473632 
L 70.697646 263.949385 
L 75.021477 263.949385 
L 75.021477 262.900889 
L 76.834191 262.900889 
L 76.834191 261.328146 
L 79.971009 261.328146 
L 79.971009 260.279651 
L 93.273637 260.279651 
L 93.273637 259.755403 
L 96.846045 259.755403 
L 96.846045 259.231155 
L 100.24961 259.231155 
L 100.24961 258.18266 
L 112.175115 258.18266 
L 112.175115 257.658412 
L 112.824432 257.658412 
L 112.824432 256.609917 
L 116.102274 256.609917 
L 116.102274 253.988678 
L 118.399664 253.988678 
L 118.399664 253.46443 
L 126.176007 253.46443 
L 126.176007 252.415935 
L 127.219046 252.415935 
L 127.310805 249.270448 
L 133.086687 249.270448 
L 133.086687 248.221953 
L 139.553668 248.221953 
L 139.553668 247.173458 
L 139.865278 247.173458 
L 139.865278 246.124962 
L 144.277114 246.124962 
L 144.277114 244.027971 
L 149.072341 244.027971 
L 149.072341 243.503724 
L 149.855089 243.503724 
L 149.855089 242.979476 
L 152.4401 242.979476 
L 152.4401 242.455228 
L 154.099198 242.455228 
L 154.099198 241.406733 
L 162.984055 241.406733 
L 162.984055 240.358237 
L 169.259289 240.358237 
L 169.259289 239.83399 
L 175.69135 239.83399 
L 175.69135 239.309742 
L 184.224111 239.309742 
L 184.224111 238.785494 
L 189.832258 238.785494 
L 189.832258 237.736999 
L 191.135223 237.736999 
L 191.135223 236.164255 
L 192.176416 236.164255 
L 192.176416 235.640008 
L 202.075083 235.640008 
L 202.075083 234.067265 
L 202.250964 234.067265 
L 202.250964 233.018769 
L 208.931601 233.018769 
L 208.931601 231.446026 
L 211.381043 231.446026 
L 211.381043 230.397531 
L 215.475 230.397531 
L 215.475 229.349035 
L 220.637473 229.349035 
L 220.637473 228.824787 
L 225.101636 228.824787 
L 225.101636 228.30054 
L 230.352378 228.30054 
L 230.352378 227.776292 
L 239.222103 227.776292 
L 239.222103 227.252044 
L 241.159646 227.252044 
L 241.159646 226.727797 
L 243.571752 226.727797 
L 243.598215 225.155053 
L 244.721848 225.155053 
L 244.75544 224.106558 
L 244.891913 224.106558 
L 244.891913 223.58231 
L 245.216743 223.58231 
L 245.216743 222.533815 
L 245.539917 222.533815 
L 245.539917 222.009567 
L 245.792941 222.009567 
L 245.792941 221.485319 
L 246.836381 221.485319 
L 246.836381 220.961072 
L 247.079232 220.961072 
L 247.079232 220.436824 
L 248.201001 220.436824 
L 248.271235 218.864081 
L 248.382888 218.864081 
L 248.382888 218.339833 
L 248.614679 218.339833 
L 248.614679 217.291338 
L 248.735165 217.291338 
L 248.735165 216.76709 
L 250.389841 216.76709 
L 250.389841 215.718594 
L 252.7974 215.718594 
L 252.7974 215.194347 
L 253.662998 215.194347 
L 253.662998 214.145851 
L 255.63286 214.145851 
L 255.63286 213.621604 
L 261.16307 213.621604 
L 261.16307 212.04886 
L 262.072847 212.04886 
L 262.135076 210.476117 
L 262.970606 210.476117 
L 262.970606 209.95187 
L 263.45384 209.95187 
L 263.45384 209.427622 
L 263.596777 209.427622 
L 263.647317 208.379126 
L 264.362288 208.379126 
L 264.362288 207.330631 
L 264.788602 207.330631 
L 264.788602 206.282136 
L 265.336019 206.282136 
L 265.336019 205.757888 
L 265.604971 205.757888 
L 265.604971 204.709392 
L 270.289572 204.709392 
L 270.289572 203.660897 
L 271.391546 203.660897 
L 271.391546 202.612401 
L 271.738359 202.612401 
L 271.738359 202.088154 
L 277.09267 202.088154 
L 277.09267 201.563906 
L 277.226637 201.563906 
L 277.226637 201.039658 
L 277.761352 201.039658 
L 277.761352 200.515411 
L 280.912695 200.515411 
L 281.00182 198.942667 
L 281.061436 198.942667 
L 281.061436 198.41842 
L 281.408578 198.41842 
L 281.408578 197.894172 
L 281.723872 197.894172 
L 281.723872 197.369924 
L 284.285928 197.369924 
L 284.285928 196.845677 
L 284.899604 196.845677 
L 284.899604 196.321429 
L 287.006266 196.321429 
L 287.068859 195.272933 
L 287.167222 195.272933 
L 287.241942 194.224438 
L 287.355743 194.224438 
L 287.355743 193.70019 
L 289.397752 193.70019 
L 289.397752 193.175943 
L 289.702275 193.175943 
L 289.702275 192.651695 
L 291.577584 192.651695 
L 291.577584 192.127447 
L 293.440058 192.127447 
L 293.440058 191.603199 
L 295.416203 191.603199 
L 295.416203 191.078952 
L 299.356319 191.078952 
L 299.356319 190.554704 
L 299.476979 190.554704 
L 299.476979 190.030456 
L 301.895681 190.030456 
L 301.895681 189.506209 
L 302.851718 189.506209 
L 302.851718 188.981961 
L 306.591486 188.981961 
L 306.591486 188.457713 
L 307.39436 188.457713 
L 307.39436 187.933465 
L 308.89576 187.933465 
L 308.89576 187.409218 
L 310.217058 187.409218 
L 310.217058 186.88497 
L 313.328049 186.88497 
L 313.328049 186.360722 
L 313.809001 186.360722 
L 313.809001 185.836474 
L 318.091552 185.836474 
L 318.091552 185.312227 
L 320.845337 185.312227 
L 320.845337 184.787979 
L 333.429677 184.787979 
L 333.429677 184.787979 
" style="fill:none;stroke:#ff00ff;stroke-linecap:square;stroke-width:1.5;"/>
   </g>
   <g id="line2d_35">
    <defs>
     <path d="M -0 8.485281 
L 5.091169 0 
L 0 -8.485281 
L -5.091169 -0 
z
" id="ma6facf4656" style="stroke:#ff00ff;stroke-linejoin:miter;stroke-width:1.5;"/>
    </defs>
    <g>
     <use style="fill-opacity:0;stroke:#ff00ff;stroke-linejoin:miter;stroke-width:1.5;" x="127.310805" xlink:href="#ma6facf4656" y="249.794696"/>
     <use style="fill-opacity:0;stroke:#ff00ff;stroke-linejoin:miter;stroke-width:1.5;" x="175.69135" xlink:href="#ma6facf4656" y="239.83399"/>
     <use style="fill-opacity:0;stroke:#ff00ff;stroke-linejoin:miter;stroke-width:1.5;" x="261.16307" xlink:href="#ma6facf4656" y="212.04886"/>
     <use style="fill-opacity:0;stroke:#ff00ff;stroke-linejoin:miter;stroke-width:1.5;" x="320.845337" xlink:href="#ma6facf4656" y="184.787979"/>
     <use style="fill-opacity:0;stroke:#ff00ff;stroke-linejoin:miter;stroke-width:1.5;" x="320.845337" xlink:href="#ma6facf4656" y="184.787979"/>
     <use style="fill-opacity:0;stroke:#ff00ff;stroke-linejoin:miter;stroke-width:1.5;" x="333.429677" xlink:href="#ma6facf4656" y="184.787979"/>
    </g>
   </g>
   <g id="line2d_36">
    <path style="fill:none;stroke:#ff00ff;stroke-linecap:square;stroke-width:1.5;"/>
    <g/>
   </g>
   <g id="line2d_37">
    <path clip-path="url(#p18cb42c3b7)" d="M 254.265881 214.145851 
" style="fill:none;stroke:#ff00ff;stroke-linecap:square;stroke-width:1.5;"/>
    <defs>
     <path d="M -12 12 
L 12 -12 
M -12 -12 
L 12 12 
" id="m5535e1a635" style="stroke:#ff00ff;stroke-width:3;"/>
    </defs>
    <g clip-path="url(#p18cb42c3b7)">
     <use style="fill:#ff00ff;stroke:#ff00ff;stroke-width:3;" x="254.265881" xlink:href="#m5535e1a635" y="214.145851"/>
    </g>
   </g>
   <g id="line2d_38">
    <defs>
     <path d="M 0 1.5 
C 0.397805 1.5 0.77937 1.341951 1.06066 1.06066 
C 1.341951 0.77937 1.5 0.397805 1.5 0 
C 1.5 -0.397805 1.341951 -0.77937 1.06066 -1.06066 
C 0.77937 -1.341951 0.397805 -1.5 0 -1.5 
C -0.397805 -1.5 -0.77937 -1.341951 -1.06066 -1.06066 
C -1.341951 -0.77937 -1.5 -0.397805 -1.5 0 
C -1.5 0.397805 -1.341951 0.77937 -1.06066 1.06066 
C -0.77937 1.341951 -0.397805 1.5 0 1.5 
z
" id="m7f798e7e9e" style="stroke:#ffa500;"/>
    </defs>
    <g>
     <use style="fill:#ffa500;stroke:#ffa500;" x="259.035286" xlink:href="#m7f798e7e9e" y="153.333116"/>
     <use style="fill:#ffa500;stroke:#ffa500;" x="259.035286" xlink:href="#m7f798e7e9e" y="153.333116"/>
    </g>
   </g>
   <g id="line2d_39">
    <path d="M 37.218523 294.88 
L 37.218523 278.104073 
L 49.144027 278.104073 
L 49.144027 270.764605 
L 56.12 270.764605 
L 56.12 268.667614 
L 61.069532 268.667614 
L 61.069532 268.143366 
L 64.908686 268.143366 
L 64.908686 267.619119 
L 68.045504 267.619119 
L 68.045504 266.046375 
L 70.697646 266.046375 
L 70.697646 265.522128 
L 75.021477 265.522128 
L 75.021477 262.900889 
L 76.834191 262.900889 
L 76.834191 261.328146 
L 78.47399 261.328146 
L 78.47399 260.279651 
L 86.946982 260.279651 
L 86.946982 258.18266 
L 88.759695 258.18266 
L 88.759695 257.134164 
L 89.599124 257.134164 
L 89.599124 256.609917 
L 91.164281 256.609917 
L 91.164281 255.561421 
L 92.59885 255.561421 
L 92.59885 255.037173 
L 93.273637 255.037173 
L 93.273637 253.988678 
L 93.922955 253.988678 
L 93.922955 253.46443 
L 94.548655 253.46443 
L 94.548655 252.940182 
L 98.872486 252.940182 
L 98.872486 252.415935 
L 99.802705 252.415935 
L 99.802705 251.367439 
L 103.459797 251.367439 
L 103.459797 249.794696 
L 103.822018 249.794696 
L 103.822018 248.746201 
L 104.524355 248.746201 
L 104.524355 248.221953 
L 105.199142 248.221953 
L 105.199142 247.697705 
L 121.09564 247.697705 
L 121.09564 247.173458 
L 121.356325 247.173458 
L 121.356325 246.64921 
L 122.115486 246.64921 
L 122.115486 246.124962 
L 122.238819 246.124962 
L 122.238819 245.600714 
L 124.100619 245.600714 
L 124.100619 244.552219 
L 130.015162 244.552219 
L 130.015162 244.027971 
L 131.583719 244.027971 
L 131.583719 242.979476 
L 132.145561 242.979476 
L 132.145561 241.93098 
L 134.529104 241.93098 
L 134.529104 241.406733 
L 138.912987 241.406733 
L 138.912987 240.882485 
L 141.783544 240.882485 
L 141.783544 240.358237 
L 142.441628 240.358237 
L 142.441628 239.83399 
L 142.742815 239.83399 
L 142.742815 238.785494 
L 143.03882 238.785494 
L 143.148522 237.736999 
L 143.22127 237.736999 
L 143.22127 236.688503 
L 144.140023 236.688503 
L 144.140023 236.164255 
L 148.706822 236.164255 
L 148.733189 233.543017 
L 148.91664 233.543017 
L 148.91664 232.494521 
L 149.855089 232.494521 
L 149.855089 231.970274 
L 153.249158 231.970274 
L 153.249158 230.921778 
L 153.430582 230.921778 
L 153.430582 230.397531 
L 154.002487 230.397531 
L 154.002487 229.349035 
L 154.424008 229.349035 
L 154.424008 228.824787 
L 161.075171 228.824787 
L 161.075171 228.30054 
L 161.33044 228.30054 
L 161.33044 227.776292 
L 166.368429 227.776292 
L 166.368429 226.203549 
L 167.045034 226.203549 
L 167.045034 225.679301 
L 167.297653 225.679301 
L 167.297653 225.155053 
L 167.599501 225.155053 
L 167.599501 224.630806 
L 169.243299 224.630806 
L 169.243299 224.106558 
L 169.434201 224.106558 
L 169.434201 223.58231 
L 171.149342 223.58231 
L 171.149342 222.533815 
L 175.00138 222.533815 
L 175.00138 222.009567 
L 180.74777 222.009567 
L 180.837698 220.436824 
L 180.862142 220.436824 
L 180.927158 218.864081 
L 181.088632 218.864081 
L 181.168804 216.242842 
L 181.20476 216.242842 
L 181.220716 215.194347 
L 183.755691 215.194347 
L 183.8278 213.097356 
L 184.294287 213.097356 
L 184.384095 211.000365 
L 185.973756 211.000365 
L 185.973756 210.476117 
L 186.949763 210.476117 
L 186.984024 207.854879 
L 187.297748 207.854879 
L 187.297748 207.330631 
L 189.00793 207.330631 
L 189.08131 205.757888 
L 189.524977 205.757888 
L 189.524977 205.23364 
L 193.436813 205.23364 
L 193.436813 204.709392 
L 195.121638 204.709392 
L 195.121638 204.185145 
L 196.405541 204.185145 
L 196.405541 203.660897 
L 198.747616 203.660897 
L 198.747616 203.136649 
L 199.662903 203.136649 
L 199.72422 201.563906 
L 201.766221 201.563906 
L 201.796393 199.466915 
L 202.508567 199.466915 
L 202.508567 198.942667 
L 203.76647 198.942667 
L 203.76647 198.41842 
L 205.267969 198.41842 
L 205.293573 196.321429 
L 206.570488 196.321429 
L 206.570488 195.797181 
L 206.773937 195.797181 
L 206.773937 195.272933 
L 207.412918 195.272933 
L 207.412918 194.748686 
L 207.634206 194.748686 
L 207.634206 194.224438 
L 207.992042 194.224438 
L 207.992042 193.70019 
L 208.31289 193.70019 
L 208.31289 193.175943 
L 208.898116 193.175943 
L 208.898116 192.651695 
L 211.041999 192.651695 
L 211.041999 192.127447 
L 211.195605 192.127447 
L 211.195605 191.603199 
L 213.063116 191.603199 
L 213.169907 190.030456 
L 213.493693 190.030456 
L 213.493693 189.506209 
L 214.16237 189.506209 
L 214.16237 188.981961 
L 214.56144 188.981961 
L 214.56144 188.457713 
L 214.761815 188.457713 
L 214.813951 187.409218 
L 215.740298 187.409218 
L 215.740298 186.88497 
L 216.232375 186.88497 
L 216.232375 186.360722 
L 217.315243 186.360722 
L 217.315243 185.836474 
L 217.481767 185.836474 
L 217.484674 184.787979 
L 217.903929 184.787979 
L 217.965757 183.739484 
L 220.179674 183.739484 
L 220.179674 183.215236 
L 220.649972 183.215236 
L 220.649972 182.690988 
L 221.068856 182.690988 
L 221.068856 182.16674 
L 221.260926 182.16674 
L 221.260926 181.642493 
L 221.471637 181.642493 
L 221.527649 180.593997 
L 221.949128 180.593997 
L 221.949128 180.06975 
L 222.112427 180.06975 
L 222.112427 179.545502 
L 222.319609 179.545502 
L 222.319609 179.021254 
L 223.433186 179.021254 
L 223.464016 177.972759 
L 223.869889 177.972759 
L 223.869889 177.448511 
L 226.077587 177.448511 
L 226.077587 176.924263 
L 226.532534 176.924263 
L 226.532534 176.400016 
L 226.762356 176.400016 
L 226.762356 175.875768 
L 227.056219 175.875768 
L 227.056219 175.35152 
L 227.507169 175.35152 
L 227.60134 174.303025 
L 228.030268 174.303025 
L 228.030268 173.778777 
L 228.291273 173.778777 
L 228.291273 173.254529 
L 230.268699 173.254529 
L 230.268699 172.730281 
L 233.211502 172.730281 
L 233.211502 172.206034 
L 233.390031 172.206034 
L 233.493706 171.157538 
L 234.200062 171.157538 
L 234.282383 169.584795 
L 234.372847 169.584795 
L 234.372847 169.060547 
L 235.864782 169.060547 
L 235.866613 168.012052 
L 236.307648 168.012052 
L 236.307648 167.487804 
L 236.517428 167.487804 
L 236.517428 166.963557 
L 236.655343 166.963557 
L 236.655343 166.439309 
L 237.321317 166.439309 
L 237.321317 165.915061 
L 238.245554 165.915061 
L 238.344415 164.866566 
L 239.305577 164.866566 
L 239.353892 163.293823 
L 239.824167 163.293823 
L 239.824167 162.769575 
L 240.058354 162.769575 
L 240.058354 162.245327 
L 240.202812 162.245327 
L 240.275876 161.196832 
L 240.442782 161.196832 
L 240.442782 160.672584 
L 241.209987 160.672584 
L 241.232665 159.624089 
L 242.541758 159.624089 
L 242.58788 158.575593 
L 242.805428 158.575593 
L 242.805428 158.051345 
L 248.837593 158.051345 
L 248.837593 157.527098 
L 249.380059 157.527098 
L 249.380059 157.00285 
L 249.660134 157.00285 
L 249.660134 156.478602 
L 250.255574 156.478602 
L 250.301885 155.430107 
L 252.948045 155.430107 
L 252.954396 154.381611 
L 256.209737 154.381611 
L 256.209737 153.857364 
L 259.035286 153.857364 
L 259.035286 153.333116 
L 333.429677 153.333116 
L 333.429677 153.333116 
" style="fill:none;stroke:#ffa500;stroke-linecap:square;stroke-width:1.5;"/>
   </g>
   <g id="line2d_40">
    <defs>
     <path d="M 0 -6 
L -1.347084 -1.854102 
L -5.706339 -1.854102 
L -2.179628 0.708204 
L -3.526712 4.854102 
L -0 2.291796 
L 3.526712 4.854102 
L 2.179628 0.708204 
L 5.706339 -1.854102 
L 1.347084 -1.854102 
z
" id="m0416f41cc8" style="stroke:#ffa500;stroke-linejoin:bevel;stroke-width:1.5;"/>
    </defs>
    <g>
     <use style="fill-opacity:0;stroke:#ffa500;stroke-linejoin:bevel;stroke-width:1.5;" x="94.548655" xlink:href="#m0416f41cc8" y="253.46443"/>
     <use style="fill-opacity:0;stroke:#ffa500;stroke-linejoin:bevel;stroke-width:1.5;" x="167.599501" xlink:href="#m0416f41cc8" y="225.155053"/>
     <use style="fill-opacity:0;stroke:#ffa500;stroke-linejoin:bevel;stroke-width:1.5;" x="228.030268" xlink:href="#m0416f41cc8" y="174.303025"/>
     <use style="fill-opacity:0;stroke:#ffa500;stroke-linejoin:bevel;stroke-width:1.5;" x="259.035286" xlink:href="#m0416f41cc8" y="153.333116"/>
     <use style="fill-opacity:0;stroke:#ffa500;stroke-linejoin:bevel;stroke-width:1.5;" x="259.035286" xlink:href="#m0416f41cc8" y="153.333116"/>
     <use style="fill-opacity:0;stroke:#ffa500;stroke-linejoin:bevel;stroke-width:1.5;" x="333.429677" xlink:href="#m0416f41cc8" y="153.333116"/>
    </g>
   </g>
   <g id="line2d_41">
    <path style="fill:none;stroke:#ffa500;stroke-linecap:square;stroke-width:1.5;"/>
    <g/>
   </g>
   <g id="line2d_42">
    <path clip-path="url(#p18cb42c3b7)" d="M 202.723566 198.942667 
" style="fill:none;stroke:#ffa500;stroke-linecap:square;stroke-width:1.5;"/>
    <defs>
     <path d="M -12 12 
L 12 -12 
M -12 -12 
L 12 12 
" id="me874325750" style="stroke:#ffa500;stroke-width:3;"/>
    </defs>
    <g clip-path="url(#p18cb42c3b7)">
     <use style="fill:#ffa500;stroke:#ffa500;stroke-width:3;" x="202.723566" xlink:href="#me874325750" y="198.942667"/>
    </g>
   </g>
   <g id="line2d_43">
    <defs>
     <path d="M 0 1.5 
C 0.397805 1.5 0.77937 1.341951 1.06066 1.06066 
C 1.341951 0.77937 1.5 0.397805 1.5 0 
C 1.5 -0.397805 1.341951 -0.77937 1.06066 -1.06066 
C 0.77937 -1.341951 0.397805 -1.5 0 -1.5 
C -0.397805 -1.5 -0.77937 -1.341951 -1.06066 -1.06066 
C -1.341951 -0.77937 -1.5 -0.397805 -1.5 0 
C -1.5 0.397805 -1.341951 0.77937 -1.06066 1.06066 
C -0.77937 1.341951 -0.397805 1.5 0 1.5 
z
" id="m840d317995" style="stroke:#6495ed;"/>
    </defs>
    <g>
     <use style="fill:#6495ed;stroke:#6495ed;" x="144.036483" xlink:href="#m840d317995" y="242.455228"/>
     <use style="fill:#6495ed;stroke:#6495ed;" x="144.036483" xlink:href="#m840d317995" y="242.455228"/>
    </g>
   </g>
   <g id="line2d_44">
    <path d="M 37.218523 294.88 
L 37.218523 273.385844 
L 49.144027 273.385844 
L 49.144027 268.143366 
L 56.12 268.143366 
L 56.12 261.852394 
L 61.069532 261.852394 
L 61.069532 260.803898 
L 68.045504 260.803898 
L 68.045504 259.755403 
L 78.47399 259.755403 
L 78.47399 259.231155 
L 79.971009 259.231155 
L 79.971009 258.706907 
L 82.623151 258.706907 
L 82.623151 258.18266 
L 83.810164 258.18266 
L 83.810164 257.658412 
L 84.92054 257.658412 
L 84.92054 255.037173 
L 93.922955 255.037173 
L 93.922955 254.512926 
L 95.152397 254.512926 
L 95.152397 253.988678 
L 98.38781 253.988678 
L 98.38781 253.46443 
L 101.524628 253.46443 
L 101.524628 252.415935 
L 106.164154 252.415935 
L 106.164154 250.318944 
L 107.077901 250.318944 
L 107.077901 249.794696 
L 112.824432 249.794696 
L 112.824432 248.221953 
L 117.613917 248.221953 
L 117.613917 247.173458 
L 121.356325 247.173458 
L 121.356325 246.124962 
L 122.960807 246.124962 
L 122.960807 245.600714 
L 127.034046 245.600714 
L 127.034046 245.076467 
L 128.202449 245.076467 
L 128.202449 244.552219 
L 129.296525 244.552219 
L 129.296525 244.027971 
L 133.916767 244.027971 
L 133.916767 243.503724 
L 139.418374 243.503724 
L 139.418374 242.979476 
L 144.036483 242.979476 
L 144.036483 242.455228 
L 333.429677 242.455228 
" style="fill:none;stroke:#6495ed;stroke-linecap:square;stroke-width:1.5;"/>
   </g>
   <g id="line2d_45">
    <defs>
     <path d="M -0 6 
L 6 -6 
L -6 -6 
z
" id="m1e21fcb71b" style="stroke:#6495ed;stroke-linejoin:miter;stroke-width:1.5;"/>
    </defs>
    <g>
     <use style="fill-opacity:0;stroke:#6495ed;stroke-linejoin:miter;stroke-width:1.5;" x="98.38781" xlink:href="#m1e21fcb71b" y="253.988678"/>
     <use style="fill-opacity:0;stroke:#6495ed;stroke-linejoin:miter;stroke-width:1.5;" x="144.036483" xlink:href="#m1e21fcb71b" y="242.979476"/>
     <use style="fill-opacity:0;stroke:#6495ed;stroke-linejoin:miter;stroke-width:1.5;" x="144.036483" xlink:href="#m1e21fcb71b" y="242.979476"/>
     <use style="fill-opacity:0;stroke:#6495ed;stroke-linejoin:miter;stroke-width:1.5;" x="144.036483" xlink:href="#m1e21fcb71b" y="242.455228"/>
     <use style="fill-opacity:0;stroke:#6495ed;stroke-linejoin:miter;stroke-width:1.5;" x="144.036483" xlink:href="#m1e21fcb71b" y="242.455228"/>
     <use style="fill-opacity:0;stroke:#6495ed;stroke-linejoin:miter;stroke-width:1.5;" x="333.429677" xlink:href="#m1e21fcb71b" y="242.455228"/>
    </g>
   </g>
   <g id="line2d_46">
    <path style="fill:none;stroke:#6495ed;stroke-linecap:square;stroke-width:1.5;"/>
    <g/>
   </g>
   <g id="line2d_47">
    <path clip-path="url(#p18cb42c3b7)" d="M 81.348133 258.706907 
" style="fill:none;stroke:#6495ed;stroke-linecap:square;stroke-width:1.5;"/>
    <defs>
     <path d="M -12 12 
L 12 -12 
M -12 -12 
L 12 12 
" id="me8ae699b11" style="stroke:#6495ed;stroke-width:3;"/>
    </defs>
    <g clip-path="url(#p18cb42c3b7)">
     <use style="fill:#6495ed;stroke:#6495ed;stroke-width:3;" x="81.348133" xlink:href="#me8ae699b11" y="258.706907"/>
    </g>
   </g>
   <g id="line2d_48">
    <path d="M 333.429677 242.455228 
L 363.933742 289.532673 
" style="fill:none;stroke:#6495ed;stroke-linecap:square;stroke-width:1.5;"/>
    <g>
     <use style="fill-opacity:0;stroke:#6495ed;stroke-linejoin:miter;stroke-width:1.5;" x="333.429677" xlink:href="#m1e21fcb71b" y="242.455228"/>
     <use style="fill-opacity:0;stroke:#6495ed;stroke-linejoin:miter;stroke-width:1.5;" x="363.933742" xlink:href="#m1e21fcb71b" y="289.532673"/>
    </g>
   </g>
   <g id="line2d_49">
    <path d="M 333.429677 184.787979 
L 363.933742 225.364752 
" style="fill:none;stroke:#ff00ff;stroke-linecap:square;stroke-width:1.5;"/>
    <g>
     <use style="fill-opacity:0;stroke:#ff00ff;stroke-linejoin:miter;stroke-width:1.5;" x="333.429677" xlink:href="#ma6facf4656" y="184.787979"/>
     <use style="fill-opacity:0;stroke:#ff00ff;stroke-linejoin:miter;stroke-width:1.5;" x="363.933742" xlink:href="#ma6facf4656" y="225.364752"/>
    </g>
   </g>
   <g id="line2d_50">
    <path d="M 333.429677 153.333116 
L 363.933742 161.196832 
" style="fill:none;stroke:#ffa500;stroke-linecap:square;stroke-width:1.5;"/>
    <g>
     <use style="fill-opacity:0;stroke:#ffa500;stroke-linejoin:bevel;stroke-width:1.5;" x="333.429677" xlink:href="#m0416f41cc8" y="153.333116"/>
     <use style="fill-opacity:0;stroke:#ffa500;stroke-linejoin:bevel;stroke-width:1.5;" x="363.933742" xlink:href="#m0416f41cc8" y="161.196832"/>
    </g>
   </g>
   <g id="line2d_51">
    <path d="M 333.429677 40.095609 
L 363.933742 97.028911 
" style="fill:none;stroke:#000080;stroke-linecap:square;stroke-width:1.5;"/>
    <g>
     <use style="fill-opacity:0;stroke:#000080;stroke-width:1.5;" x="333.429677" xlink:href="#m05250540ba" y="40.095609"/>
     <use style="fill-opacity:0;stroke:#000080;stroke-width:1.5;" x="363.933742" xlink:href="#m05250540ba" y="97.028911"/>
    </g>
   </g>
   <g id="line2d_52">
    <path d="M 333.429677 294.88 
L 333.429677 27.513663 
" style="fill:none;stroke:#000000;stroke-linecap:square;stroke-width:1.5;"/>
   </g>
   <g id="patch_3">
    <path d="M 56.12 294.88 
L 56.12 24.84 
" style="fill:none;stroke:#000000;stroke-linecap:square;stroke-linejoin:miter;stroke-width:0.8;"/>
   </g>
   <g id="patch_4">
    <path d="M 399.984 294.88 
L 399.984 24.84 
" style="fill:none;stroke:#000000;stroke-linecap:square;stroke-linejoin:miter;stroke-width:0.8;"/>
   </g>
   <g id="patch_5">
    <path d="M 56.12 294.88 
L 399.984 294.88 
" style="fill:none;stroke:#000000;stroke-linecap:square;stroke-linejoin:miter;stroke-width:0.8;"/>
   </g>
   <g id="patch_6">
    <path d="M 56.12 24.84 
L 399.984 24.84 
" style="fill:none;stroke:#000000;stroke-linecap:square;stroke-linejoin:miter;stroke-width:0.8;"/>
   </g>
   <g id="text_14">
    <!-- hybrid -->
    <defs>
     <path d="M 54.890625 33.015625 
L 54.890625 0 
L 45.90625 0 
L 45.90625 32.71875 
Q 45.90625 40.484375 42.875 44.328125 
Q 39.84375 48.1875 33.796875 48.1875 
Q 26.515625 48.1875 22.3125 43.546875 
Q 18.109375 38.921875 18.109375 30.90625 
L 18.109375 0 
L 9.078125 0 
L 9.078125 75.984375 
L 18.109375 75.984375 
L 18.109375 46.1875 
Q 21.34375 51.125 25.703125 53.5625 
Q 30.078125 56 35.796875 56 
Q 45.21875 56 50.046875 50.171875 
Q 54.890625 44.34375 54.890625 33.015625 
z
" id="DejaVuSans-68"/>
     <path d="M 32.171875 -5.078125 
Q 28.375 -14.84375 24.75 -17.8125 
Q 21.140625 -20.796875 15.09375 -20.796875 
L 7.90625 -20.796875 
L 7.90625 -13.28125 
L 13.1875 -13.28125 
Q 16.890625 -13.28125 18.9375 -11.515625 
Q 21 -9.765625 23.484375 -3.21875 
L 25.09375 0.875 
L 2.984375 54.6875 
L 12.5 54.6875 
L 29.59375 11.921875 
L 46.6875 54.6875 
L 56.203125 54.6875 
z
" id="DejaVuSans-79"/>
     <path d="M 48.6875 27.296875 
Q 48.6875 37.203125 44.609375 42.84375 
Q 40.53125 48.484375 33.40625 48.484375 
Q 26.265625 48.484375 22.1875 42.84375 
Q 18.109375 37.203125 18.109375 27.296875 
Q 18.109375 17.390625 22.1875 11.75 
Q 26.265625 6.109375 33.40625 6.109375 
Q 40.53125 6.109375 44.609375 11.75 
Q 48.6875 17.390625 48.6875 27.296875 
z
M 18.109375 46.390625 
Q 20.953125 51.265625 25.265625 53.625 
Q 29.59375 56 35.59375 56 
Q 45.5625 56 51.78125 48.09375 
Q 58.015625 40.1875 58.015625 27.296875 
Q 58.015625 14.40625 51.78125 6.484375 
Q 45.5625 -1.421875 35.59375 -1.421875 
Q 29.59375 -1.421875 25.265625 0.953125 
Q 20.953125 3.328125 18.109375 8.203125 
L 18.109375 0 
L 9.078125 0 
L 9.078125 75.984375 
L 18.109375 75.984375 
z
" id="DejaVuSans-62"/>
    </defs>
    <g transform="translate(369.479935 294.223611)scale(0.17 -0.17)">
     <use xlink:href="#DejaVuSans-68"/>
     <use x="63.378906" xlink:href="#DejaVuSans-79"/>
     <use x="122.558594" xlink:href="#DejaVuSans-62"/>
     <use x="186.035156" xlink:href="#DejaVuSans-72"/>
     <use x="227.148438" xlink:href="#DejaVuSans-69"/>
     <use x="254.931641" xlink:href="#DejaVuSans-64"/>
    </g>
   </g>
   <g id="text_15">
    <!-- GA -->
    <defs>
     <path d="M 59.515625 10.40625 
L 59.515625 29.984375 
L 43.40625 29.984375 
L 43.40625 38.09375 
L 69.28125 38.09375 
L 69.28125 6.78125 
Q 63.578125 2.734375 56.6875 0.65625 
Q 49.8125 -1.421875 42 -1.421875 
Q 24.90625 -1.421875 15.25 8.5625 
Q 5.609375 18.5625 5.609375 36.375 
Q 5.609375 54.25 15.25 64.234375 
Q 24.90625 74.21875 42 74.21875 
Q 49.125 74.21875 55.546875 72.453125 
Q 61.96875 70.703125 67.390625 67.28125 
L 67.390625 56.78125 
Q 61.921875 61.421875 55.765625 63.765625 
Q 49.609375 66.109375 42.828125 66.109375 
Q 29.4375 66.109375 22.71875 58.640625 
Q 16.015625 51.171875 16.015625 36.375 
Q 16.015625 21.625 22.71875 14.15625 
Q 29.4375 6.6875 42.828125 6.6875 
Q 48.046875 6.6875 52.140625 7.59375 
Q 56.25 8.5 59.515625 10.40625 
z
" id="DejaVuSans-47"/>
     <path d="M 34.1875 63.1875 
L 20.796875 26.90625 
L 47.609375 26.90625 
z
M 28.609375 72.90625 
L 39.796875 72.90625 
L 67.578125 0 
L 57.328125 0 
L 50.6875 18.703125 
L 17.828125 18.703125 
L 11.1875 0 
L 0.78125 0 
z
" id="DejaVuSans-41"/>
    </defs>
    <g transform="translate(369.479935 230.05569)scale(0.17 -0.17)">
     <use xlink:href="#DejaVuSans-47"/>
     <use x="77.490234" xlink:href="#DejaVuSans-41"/>
    </g>
   </g>
   <g id="text_16">
    <!-- Rosenbroc -->
    <defs>
     <path d="M 44.390625 34.1875 
Q 47.5625 33.109375 50.5625 29.59375 
Q 53.5625 26.078125 56.59375 19.921875 
L 66.609375 0 
L 56 0 
L 46.6875 18.703125 
Q 43.0625 26.03125 39.671875 28.421875 
Q 36.28125 30.8125 30.421875 30.8125 
L 19.671875 30.8125 
L 19.671875 0 
L 9.8125 0 
L 9.8125 72.90625 
L 32.078125 72.90625 
Q 44.578125 72.90625 50.734375 67.671875 
Q 56.890625 62.453125 56.890625 51.90625 
Q 56.890625 45.015625 53.6875 40.46875 
Q 50.484375 35.9375 44.390625 34.1875 
z
M 19.671875 64.796875 
L 19.671875 38.921875 
L 32.078125 38.921875 
Q 39.203125 38.921875 42.84375 42.21875 
Q 46.484375 45.515625 46.484375 51.90625 
Q 46.484375 58.296875 42.84375 61.546875 
Q 39.203125 64.796875 32.078125 64.796875 
z
" id="DejaVuSans-52"/>
    </defs>
    <g transform="translate(369.479935 165.887769)scale(0.17 -0.17)">
     <use xlink:href="#DejaVuSans-52"/>
     <use x="69.419922" xlink:href="#DejaVuSans-6f"/>
     <use x="130.601562" xlink:href="#DejaVuSans-73"/>
     <use x="182.701172" xlink:href="#DejaVuSans-65"/>
     <use x="244.224609" xlink:href="#DejaVuSans-6e"/>
     <use x="307.603516" xlink:href="#DejaVuSans-62"/>
     <use x="371.080078" xlink:href="#DejaVuSans-72"/>
     <use x="412.162109" xlink:href="#DejaVuSans-6f"/>
     <use x="473.34375" xlink:href="#DejaVuSans-63"/>
    </g>
   </g>
   <g id="text_17">
    <!-- DASA -->
    <defs>
     <path d="M 19.671875 64.796875 
L 19.671875 8.109375 
L 31.59375 8.109375 
Q 46.6875 8.109375 53.6875 14.9375 
Q 60.6875 21.78125 60.6875 36.53125 
Q 60.6875 51.171875 53.6875 57.984375 
Q 46.6875 64.796875 31.59375 64.796875 
z
M 9.8125 72.90625 
L 30.078125 72.90625 
Q 51.265625 72.90625 61.171875 64.09375 
Q 71.09375 55.28125 71.09375 36.53125 
Q 71.09375 17.671875 61.125 8.828125 
Q 51.171875 0 30.078125 0 
L 9.8125 0 
z
" id="DejaVuSans-44"/>
     <path d="M 53.515625 70.515625 
L 53.515625 60.890625 
Q 47.90625 63.578125 42.921875 64.890625 
Q 37.9375 66.21875 33.296875 66.21875 
Q 25.25 66.21875 20.875 63.09375 
Q 16.5 59.96875 16.5 54.203125 
Q 16.5 49.359375 19.40625 46.890625 
Q 22.3125 44.4375 30.421875 42.921875 
L 36.375 41.703125 
Q 47.40625 39.59375 52.65625 34.296875 
Q 57.90625 29 57.90625 20.125 
Q 57.90625 9.515625 50.796875 4.046875 
Q 43.703125 -1.421875 29.984375 -1.421875 
Q 24.8125 -1.421875 18.96875 -0.25 
Q 13.140625 0.921875 6.890625 3.21875 
L 6.890625 13.375 
Q 12.890625 10.015625 18.65625 8.296875 
Q 24.421875 6.59375 29.984375 6.59375 
Q 38.421875 6.59375 43.015625 9.90625 
Q 47.609375 13.234375 47.609375 19.390625 
Q 47.609375 24.75 44.3125 27.78125 
Q 41.015625 30.8125 33.5 32.328125 
L 27.484375 33.5 
Q 16.453125 35.6875 11.515625 40.375 
Q 6.59375 45.0625 6.59375 53.421875 
Q 6.59375 63.09375 13.40625 68.65625 
Q 20.21875 74.21875 32.171875 74.21875 
Q 37.3125 74.21875 42.625 73.28125 
Q 47.953125 72.359375 53.515625 70.515625 
z
" id="DejaVuSans-53"/>
    </defs>
    <g transform="translate(369.479935 101.719848)scale(0.17 -0.17)">
     <use xlink:href="#DejaVuSans-44"/>
     <use x="76.986328" xlink:href="#DejaVuSans-41"/>
     <use x="145.394531" xlink:href="#DejaVuSans-53"/>
     <use x="208.886719" xlink:href="#DejaVuSans-41"/>
    </g>
   </g>
   <g id="text_18">
    <!-- best 2009 -->
    <defs>
     <path d="M 10.984375 1.515625 
L 10.984375 10.5 
Q 14.703125 8.734375 18.5 7.8125 
Q 22.3125 6.890625 25.984375 6.890625 
Q 35.75 6.890625 40.890625 13.453125 
Q 46.046875 20.015625 46.78125 33.40625 
Q 43.953125 29.203125 39.59375 26.953125 
Q 35.25 24.703125 29.984375 24.703125 
Q 19.046875 24.703125 12.671875 31.3125 
Q 6.296875 37.9375 6.296875 49.421875 
Q 6.296875 60.640625 12.9375 67.421875 
Q 19.578125 74.21875 30.609375 74.21875 
Q 43.265625 74.21875 49.921875 64.515625 
Q 56.59375 54.828125 56.59375 36.375 
Q 56.59375 19.140625 48.40625 8.859375 
Q 40.234375 -1.421875 26.421875 -1.421875 
Q 22.703125 -1.421875 18.890625 -0.6875 
Q 15.09375 0.046875 10.984375 1.515625 
z
M 30.609375 32.421875 
Q 37.25 32.421875 41.125 36.953125 
Q 45.015625 41.5 45.015625 49.421875 
Q 45.015625 57.28125 41.125 61.84375 
Q 37.25 66.40625 30.609375 66.40625 
Q 23.96875 66.40625 20.09375 61.84375 
Q 16.21875 57.28125 16.21875 49.421875 
Q 16.21875 41.5 20.09375 36.953125 
Q 23.96875 32.421875 30.609375 32.421875 
z
" id="DejaVuSans-39"/>
    </defs>
    <g transform="translate(369.479935 37.551928)scale(0.17 -0.17)">
     <use xlink:href="#DejaVuSans-62"/>
     <use x="63.476562" xlink:href="#DejaVuSans-65"/>
     <use x="125" xlink:href="#DejaVuSans-73"/>
     <use x="177.099609" xlink:href="#DejaVuSans-74"/>
     <use x="216.308594" xlink:href="#DejaVuSans-20"/>
     <use x="248.095703" xlink:href="#DejaVuSans-32"/>
     <use x="311.71875" xlink:href="#DejaVuSans-30"/>
     <use x="375.341797" xlink:href="#DejaVuSans-30"/>
     <use x="438.964844" xlink:href="#DejaVuSans-39"/>
    </g>
   </g>
   <g id="text_19">
    <!-- bbob f23, 3-D -->
    <defs>
     <path d="M 40.578125 39.3125 
Q 47.65625 37.796875 51.625 33 
Q 55.609375 28.21875 55.609375 21.1875 
Q 55.609375 10.40625 48.1875 4.484375 
Q 40.765625 -1.421875 27.09375 -1.421875 
Q 22.515625 -1.421875 17.65625 -0.515625 
Q 12.796875 0.390625 7.625 2.203125 
L 7.625 11.71875 
Q 11.71875 9.328125 16.59375 8.109375 
Q 21.484375 6.890625 26.8125 6.890625 
Q 36.078125 6.890625 40.9375 10.546875 
Q 45.796875 14.203125 45.796875 21.1875 
Q 45.796875 27.640625 41.28125 31.265625 
Q 36.765625 34.90625 28.71875 34.90625 
L 20.21875 34.90625 
L 20.21875 43.015625 
L 29.109375 43.015625 
Q 36.375 43.015625 40.234375 45.921875 
Q 44.09375 48.828125 44.09375 54.296875 
Q 44.09375 59.90625 40.109375 62.90625 
Q 36.140625 65.921875 28.71875 65.921875 
Q 24.65625 65.921875 20.015625 65.03125 
Q 15.375 64.15625 9.8125 62.3125 
L 9.8125 71.09375 
Q 15.4375 72.65625 20.34375 73.4375 
Q 25.25 74.21875 29.59375 74.21875 
Q 40.828125 74.21875 47.359375 69.109375 
Q 53.90625 64.015625 53.90625 55.328125 
Q 53.90625 49.265625 50.4375 45.09375 
Q 46.96875 40.921875 40.578125 39.3125 
z
" id="DejaVuSans-33"/>
    </defs>
    <g transform="translate(59.55864 35.290806)scale(0.102 -0.102)">
     <use xlink:href="#DejaVuSans-62"/>
     <use x="63.476562" xlink:href="#DejaVuSans-62"/>
     <use x="126.953125" xlink:href="#DejaVuSans-6f"/>
     <use x="188.134766" xlink:href="#DejaVuSans-62"/>
     <use x="251.611328" xlink:href="#DejaVuSans-20"/>
     <use x="283.398438" xlink:href="#DejaVuSans-66"/>
     <use x="318.603516" xlink:href="#DejaVuSans-32"/>
     <use x="382.226562" xlink:href="#DejaVuSans-33"/>
     <use x="445.849609" xlink:href="#DejaVuSans-2c"/>
     <use x="477.636719" xlink:href="#DejaVuSans-20"/>
     <use x="509.423828" xlink:href="#DejaVuSans-33"/>
     <use x="573.046875" xlink:href="#DejaVuSans-2d"/>
     <use x="609.130859" xlink:href="#DejaVuSans-44"/>
    </g>
    <!-- 51 targets: 100..1e-08 -->
    <defs>
     <path d="M 10.796875 72.90625 
L 49.515625 72.90625 
L 49.515625 64.59375 
L 19.828125 64.59375 
L 19.828125 46.734375 
Q 21.96875 47.46875 24.109375 47.828125 
Q 26.265625 48.1875 28.421875 48.1875 
Q 40.625 48.1875 47.75 41.5 
Q 54.890625 34.8125 54.890625 23.390625 
Q 54.890625 11.625 47.5625 5.09375 
Q 40.234375 -1.421875 26.90625 -1.421875 
Q 22.3125 -1.421875 17.546875 -0.640625 
Q 12.796875 0.140625 7.71875 1.703125 
L 7.71875 11.625 
Q 12.109375 9.234375 16.796875 8.0625 
Q 21.484375 6.890625 26.703125 6.890625 
Q 35.15625 6.890625 40.078125 11.328125 
Q 45.015625 15.765625 45.015625 23.390625 
Q 45.015625 31 40.078125 35.4375 
Q 35.15625 39.890625 26.703125 39.890625 
Q 22.75 39.890625 18.8125 39.015625 
Q 14.890625 38.140625 10.796875 36.28125 
z
" id="DejaVuSans-35"/>
     <path d="M 11.71875 12.40625 
L 22.015625 12.40625 
L 22.015625 0 
L 11.71875 0 
z
M 11.71875 51.703125 
L 22.015625 51.703125 
L 22.015625 39.3125 
L 11.71875 39.3125 
z
" id="DejaVuSans-3a"/>
    </defs>
    <g transform="translate(59.55864 46.712575)scale(0.102 -0.102)">
     <use xlink:href="#DejaVuSans-35"/>
     <use x="63.623047" xlink:href="#DejaVuSans-31"/>
     <use x="127.246094" xlink:href="#DejaVuSans-20"/>
     <use x="159.033203" xlink:href="#DejaVuSans-74"/>
     <use x="198.242188" xlink:href="#DejaVuSans-61"/>
     <use x="259.521484" xlink:href="#DejaVuSans-72"/>
     <use x="300.619141" xlink:href="#DejaVuSans-67"/>
     <use x="364.095703" xlink:href="#DejaVuSans-65"/>
     <use x="425.619141" xlink:href="#DejaVuSans-74"/>
     <use x="464.828125" xlink:href="#DejaVuSans-73"/>
     <use x="516.927734" xlink:href="#DejaVuSans-3a"/>
     <use x="550.619141" xlink:href="#DejaVuSans-20"/>
     <use x="582.40625" xlink:href="#DejaVuSans-31"/>
     <use x="646.029297" xlink:href="#DejaVuSans-30"/>
     <use x="709.652344" xlink:href="#DejaVuSans-30"/>
     <use x="773.275391" xlink:href="#DejaVuSans-2e"/>
     <use x="805.0625" xlink:href="#DejaVuSans-2e"/>
     <use x="836.849609" xlink:href="#DejaVuSans-31"/>
     <use x="900.472656" xlink:href="#DejaVuSans-65"/>
     <use x="961.996094" xlink:href="#DejaVuSans-2d"/>
     <use x="998.080078" xlink:href="#DejaVuSans-30"/>
     <use x="1061.703125" xlink:href="#DejaVuSans-38"/>
    </g>
    <!-- 15 instances -->
    <g transform="translate(59.55864 58.134344)scale(0.102 -0.102)">
     <use xlink:href="#DejaVuSans-31"/>
     <use x="63.623047" xlink:href="#DejaVuSans-35"/>
     <use x="127.246094" xlink:href="#DejaVuSans-20"/>
     <use x="159.033203" xlink:href="#DejaVuSans-69"/>
     <use x="186.816406" xlink:href="#DejaVuSans-6e"/>
     <use x="250.195312" xlink:href="#DejaVuSans-73"/>
     <use x="302.294922" xlink:href="#DejaVuSans-74"/>
     <use x="341.503906" xlink:href="#DejaVuSans-61"/>
     <use x="402.783203" xlink:href="#DejaVuSans-6e"/>
     <use x="466.162109" xlink:href="#DejaVuSans-63"/>
     <use x="521.142578" xlink:href="#DejaVuSans-65"/>
     <use x="582.666016" xlink:href="#DejaVuSans-73"/>
    </g>
   </g>
   <g id="text_20">
    <!-- v-coco-version -->
    <g style="fill:#808080;" transform="translate(191.556688 290.099912)scale(0.1 -0.1)">
     <use xlink:href="#DejaVuSans-76"/>
     <use x="59.148438" xlink:href="#DejaVuSans-2d"/>
     <use x="95.232422" xlink:href="#DejaVuSans-63"/>
     <use x="150.212891" xlink:href="#DejaVuSans-6f"/>
     <use x="211.394531" xlink:href="#DejaVuSans-63"/>
     <use x="266.375" xlink:href="#DejaVuSans-6f"/>
     <use x="327.572266" xlink:href="#DejaVuSans-2d"/>
     <use x="363.625" xlink:href="#DejaVuSans-76"/>
     <use x="422.804688" xlink:href="#DejaVuSans-65"/>
     <use x="484.328125" xlink:href="#DejaVuSans-72"/>
     <use x="525.441406" xlink:href="#DejaVuSans-73"/>
     <use x="577.541016" xlink:href="#DejaVuSans-69"/>
     <use x="605.324219" xlink:href="#DejaVuSans-6f"/>
     <use x="666.505859" xlink:href="#DejaVuSans-6e"/>
    </g>
   </g>
   <g id="text_21">
    <!-- 23 Katsuuras -->
    <defs>
     <path d="M 9.8125 72.90625 
L 19.671875 72.90625 
L 19.671875 42.09375 
L 52.390625 72.90625 
L 65.09375 72.90625 
L 28.90625 38.921875 
L 67.671875 0 
L 54.6875 0 
L 19.671875 35.109375 
L 19.671875 0 
L 9.8125 0 
z
" id="DejaVuSans-4b"/>
    </defs>
    <g transform="translate(162.211375 18.84)scale(0.2 -0.2)">
     <use xlink:href="#DejaVuSans-32"/>
     <use x="63.623047" xlink:href="#DejaVuSans-33"/>
     <use x="127.246094" xlink:href="#DejaVuSans-20"/>
     <use x="159.033203" xlink:href="#DejaVuSans-4b"/>
     <use x="224.59375" xlink:href="#DejaVuSans-61"/>
     <use x="285.873047" xlink:href="#DejaVuSans-74"/>
     <use x="325.082031" xlink:href="#DejaVuSans-73"/>
     <use x="377.181641" xlink:href="#DejaVuSans-75"/>
     <use x="440.560547" xlink:href="#DejaVuSans-75"/>
     <use x="503.939453" xlink:href="#DejaVuSans-72"/>
     <use x="545.052734" xlink:href="#DejaVuSans-61"/>
     <use x="606.332031" xlink:href="#DejaVuSans-73"/>
    </g>
   </g>
  </g>
 </g>
 <defs>
  <clipPath id="p18cb42c3b7">
   <rect height="270.04" width="343.864" x="56.12" y="24.84"/>
  </clipPath>
 </defs>
</svg>
