<?xml version="1.0" encoding="utf-8" standalone="no"?>
<!DOCTYPE svg PUBLIC "-//W3C//DTD SVG 1.1//EN"
  "http://www.w3.org/Graphics/SVG/1.1/DTD/svg11.dtd">
<!-- Created with matplotlib (http://matplotlib.org/) -->
<svg height="345.6pt" version="1.1" viewBox="0 0 460.8 345.6" width="460.8pt" xmlns="http://www.w3.org/2000/svg" xmlns:xlink="http://www.w3.org/1999/xlink">
 <defs>
  <style type="text/css">
*{stroke-linecap:butt;stroke-linejoin:round;}
  </style>
 </defs>
 <g id="figure_1">
  <g id="patch_1">
   <path d="M 0 345.6 
L 460.8 345.6 
L 460.8 0 
L 0 0 
z
" style="fill:#ffffff;"/>
  </g>
  <g id="axes_1">
   <g id="patch_2">
    <path d="M 56.12 294.88 
L 399.984 294.88 
L 399.984 24.84 
L 56.12 24.84 
z
" style="fill:#ffffff;"/>
   </g>
   <g id="line2d_1">
    <path d="M 35.405809 294.88 
L 35.405809 289.637523 
L 59.256818 289.637523 
L 59.256818 284.395046 
L 68.884933 284.395046 
L 68.884933 273.910091 
L 69.289772 273.910091 
L 69.289772 27.513663 
L 333.429677 27.513663 
" style="fill:none;stroke:#f5deb3;stroke-linecap:square;stroke-width:6;"/>
   </g>
   <g id="line2d_2">
    <defs>
     <path d="M -0 7.778175 
L 7.778175 0 
L 0 -7.778175 
L -7.778175 -0 
z
" id="ma87a4aed8d" style="stroke:#f5deb3;stroke-linejoin:miter;stroke-width:1.5;"/>
    </defs>
    <g>
     <use style="fill:#f5deb3;stroke:#f5deb3;stroke-linejoin:miter;stroke-width:1.5;" x="68.884933" xlink:href="#ma87a4aed8d" y="273.910091"/>
     <use style="fill:#f5deb3;stroke:#f5deb3;stroke-linejoin:miter;stroke-width:1.5;" x="69.289772" xlink:href="#ma87a4aed8d" y="273.910091"/>
     <use style="fill:#f5deb3;stroke:#f5deb3;stroke-linejoin:miter;stroke-width:1.5;" x="69.289772" xlink:href="#ma87a4aed8d" y="273.910091"/>
     <use style="fill:#f5deb3;stroke:#f5deb3;stroke-linejoin:miter;stroke-width:1.5;" x="69.289772" xlink:href="#ma87a4aed8d" y="27.513663"/>
     <use style="fill:#f5deb3;stroke:#f5deb3;stroke-linejoin:miter;stroke-width:1.5;" x="69.289772" xlink:href="#ma87a4aed8d" y="27.513663"/>
     <use style="fill:#f5deb3;stroke:#f5deb3;stroke-linejoin:miter;stroke-width:1.5;" x="333.429677" xlink:href="#ma87a4aed8d" y="27.513663"/>
    </g>
   </g>
   <g id="line2d_3">
    <path style="fill:none;stroke:#f5deb3;stroke-linecap:square;stroke-width:6;"/>
    <g/>
   </g>
   <g id="line2d_4">
    <path d="M 333.429677 27.513663 
L 363.933742 32.86099 
" style="fill:none;stroke:#f5deb3;stroke-linecap:square;stroke-width:6;"/>
    <g>
     <use style="fill:#f5deb3;stroke:#f5deb3;stroke-linejoin:miter;stroke-width:1.5;" x="333.429677" xlink:href="#ma87a4aed8d" y="27.513663"/>
     <use style="fill:#f5deb3;stroke:#f5deb3;stroke-linejoin:miter;stroke-width:1.5;" x="363.933742" xlink:href="#ma87a4aed8d" y="32.86099"/>
    </g>
   </g>
   <g id="matplotlib.axis_1">
    <g id="xtick_1">
     <g id="line2d_5">
      <path clip-path="url(#p70f7836016)" d="M 56.12 294.88 
L 56.12 24.84 
" style="fill:none;stroke:#b0b0b0;stroke-linecap:square;stroke-width:0.8;"/>
     </g>
     <g id="line2d_6">
      <defs>
       <path d="M 0 0 
L 0 3.5 
" id="m22d66ffec1" style="stroke:#000000;stroke-width:0.8;"/>
      </defs>
      <g>
       <use style="stroke:#000000;stroke-width:0.8;" x="56.12" xlink:href="#m22d66ffec1" y="294.88"/>
      </g>
     </g>
     <g id="text_1">
      <!-- 0 -->
      <defs>
       <path d="M 31.78125 66.40625 
Q 24.171875 66.40625 20.328125 58.90625 
Q 16.5 51.421875 16.5 36.375 
Q 16.5 21.390625 20.328125 13.890625 
Q 24.171875 6.390625 31.78125 6.390625 
Q 39.453125 6.390625 43.28125 13.890625 
Q 47.125 21.390625 47.125 36.375 
Q 47.125 51.421875 43.28125 58.90625 
Q 39.453125 66.40625 31.78125 66.40625 
z
M 31.78125 74.21875 
Q 44.046875 74.21875 50.515625 64.515625 
Q 56.984375 54.828125 56.984375 36.375 
Q 56.984375 17.96875 50.515625 8.265625 
Q 44.046875 -1.421875 31.78125 -1.421875 
Q 19.53125 -1.421875 13.0625 8.265625 
Q 6.59375 17.96875 6.59375 36.375 
Q 6.59375 54.828125 13.0625 64.515625 
Q 19.53125 74.21875 31.78125 74.21875 
z
" id="DejaVuSans-30"/>
      </defs>
      <g transform="translate(49.7575 317.076875)scale(0.2 -0.2)">
       <use xlink:href="#DejaVuSans-30"/>
      </g>
     </g>
    </g>
    <g id="xtick_2">
     <g id="line2d_7">
      <path clip-path="url(#p70f7836016)" d="M 135.351336 294.88 
L 135.351336 24.84 
" style="fill:none;stroke:#b0b0b0;stroke-linecap:square;stroke-width:0.8;"/>
     </g>
     <g id="line2d_8">
      <g>
       <use style="stroke:#000000;stroke-width:0.8;" x="135.351336" xlink:href="#m22d66ffec1" y="294.88"/>
      </g>
     </g>
     <g id="text_2">
      <!-- 2 -->
      <defs>
       <path d="M 19.1875 8.296875 
L 53.609375 8.296875 
L 53.609375 0 
L 7.328125 0 
L 7.328125 8.296875 
Q 12.9375 14.109375 22.625 23.890625 
Q 32.328125 33.6875 34.8125 36.53125 
Q 39.546875 41.84375 41.421875 45.53125 
Q 43.3125 49.21875 43.3125 52.78125 
Q 43.3125 58.59375 39.234375 62.25 
Q 35.15625 65.921875 28.609375 65.921875 
Q 23.96875 65.921875 18.8125 64.3125 
Q 13.671875 62.703125 7.8125 59.421875 
L 7.8125 69.390625 
Q 13.765625 71.78125 18.9375 73 
Q 24.125 74.21875 28.421875 74.21875 
Q 39.75 74.21875 46.484375 68.546875 
Q 53.21875 62.890625 53.21875 53.421875 
Q 53.21875 48.921875 51.53125 44.890625 
Q 49.859375 40.875 45.40625 35.40625 
Q 44.1875 33.984375 37.640625 27.21875 
Q 31.109375 20.453125 19.1875 8.296875 
z
" id="DejaVuSans-32"/>
      </defs>
      <g transform="translate(128.988836 317.076875)scale(0.2 -0.2)">
       <use xlink:href="#DejaVuSans-32"/>
      </g>
     </g>
    </g>
    <g id="xtick_3">
     <g id="line2d_9">
      <path clip-path="url(#p70f7836016)" d="M 214.582673 294.88 
L 214.582673 24.84 
" style="fill:none;stroke:#b0b0b0;stroke-linecap:square;stroke-width:0.8;"/>
     </g>
     <g id="line2d_10">
      <g>
       <use style="stroke:#000000;stroke-width:0.8;" x="214.582673" xlink:href="#m22d66ffec1" y="294.88"/>
      </g>
     </g>
     <g id="text_3">
      <!-- 4 -->
      <defs>
       <path d="M 37.796875 64.3125 
L 12.890625 25.390625 
L 37.796875 25.390625 
z
M 35.203125 72.90625 
L 47.609375 72.90625 
L 47.609375 25.390625 
L 58.015625 25.390625 
L 58.015625 17.1875 
L 47.609375 17.1875 
L 47.609375 0 
L 37.796875 0 
L 37.796875 17.1875 
L 4.890625 17.1875 
L 4.890625 26.703125 
z
" id="DejaVuSans-34"/>
      </defs>
      <g transform="translate(208.220173 317.076875)scale(0.2 -0.2)">
       <use xlink:href="#DejaVuSans-34"/>
      </g>
     </g>
    </g>
    <g id="xtick_4">
     <g id="line2d_11">
      <path clip-path="url(#p70f7836016)" d="M 293.814009 294.88 
L 293.814009 24.84 
" style="fill:none;stroke:#b0b0b0;stroke-linecap:square;stroke-width:0.8;"/>
     </g>
     <g id="line2d_12">
      <g>
       <use style="stroke:#000000;stroke-width:0.8;" x="293.814009" xlink:href="#m22d66ffec1" y="294.88"/>
      </g>
     </g>
     <g id="text_4">
      <!-- 6 -->
      <defs>
       <path d="M 33.015625 40.375 
Q 26.375 40.375 22.484375 35.828125 
Q 18.609375 31.296875 18.609375 23.390625 
Q 18.609375 15.53125 22.484375 10.953125 
Q 26.375 6.390625 33.015625 6.390625 
Q 39.65625 6.390625 43.53125 10.953125 
Q 47.40625 15.53125 47.40625 23.390625 
Q 47.40625 31.296875 43.53125 35.828125 
Q 39.65625 40.375 33.015625 40.375 
z
M 52.59375 71.296875 
L 52.59375 62.3125 
Q 48.875 64.0625 45.09375 64.984375 
Q 41.3125 65.921875 37.59375 65.921875 
Q 27.828125 65.921875 22.671875 59.328125 
Q 17.53125 52.734375 16.796875 39.40625 
Q 19.671875 43.65625 24.015625 45.921875 
Q 28.375 48.1875 33.59375 48.1875 
Q 44.578125 48.1875 50.953125 41.515625 
Q 57.328125 34.859375 57.328125 23.390625 
Q 57.328125 12.15625 50.6875 5.359375 
Q 44.046875 -1.421875 33.015625 -1.421875 
Q 20.359375 -1.421875 13.671875 8.265625 
Q 6.984375 17.96875 6.984375 36.375 
Q 6.984375 53.65625 15.1875 63.9375 
Q 23.390625 74.21875 37.203125 74.21875 
Q 40.921875 74.21875 44.703125 73.484375 
Q 48.484375 72.75 52.59375 71.296875 
z
" id="DejaVuSans-36"/>
      </defs>
      <g transform="translate(287.451509 317.076875)scale(0.2 -0.2)">
       <use xlink:href="#DejaVuSans-36"/>
      </g>
     </g>
    </g>
    <g id="xtick_5">
     <g id="line2d_13">
      <path clip-path="url(#p70f7836016)" d="M 373.045346 294.88 
L 373.045346 24.84 
" style="fill:none;stroke:#b0b0b0;stroke-linecap:square;stroke-width:0.8;"/>
     </g>
     <g id="line2d_14">
      <g>
       <use style="stroke:#000000;stroke-width:0.8;" x="373.045346" xlink:href="#m22d66ffec1" y="294.88"/>
      </g>
     </g>
     <g id="text_5">
      <!-- 8 -->
      <defs>
       <path d="M 31.78125 34.625 
Q 24.75 34.625 20.71875 30.859375 
Q 16.703125 27.09375 16.703125 20.515625 
Q 16.703125 13.921875 20.71875 10.15625 
Q 24.75 6.390625 31.78125 6.390625 
Q 38.8125 6.390625 42.859375 10.171875 
Q 46.921875 13.96875 46.921875 20.515625 
Q 46.921875 27.09375 42.890625 30.859375 
Q 38.875 34.625 31.78125 34.625 
z
M 21.921875 38.8125 
Q 15.578125 40.375 12.03125 44.71875 
Q 8.5 49.078125 8.5 55.328125 
Q 8.5 64.0625 14.71875 69.140625 
Q 20.953125 74.21875 31.78125 74.21875 
Q 42.671875 74.21875 48.875 69.140625 
Q 55.078125 64.0625 55.078125 55.328125 
Q 55.078125 49.078125 51.53125 44.71875 
Q 48 40.375 41.703125 38.8125 
Q 48.828125 37.15625 52.796875 32.3125 
Q 56.78125 27.484375 56.78125 20.515625 
Q 56.78125 9.90625 50.3125 4.234375 
Q 43.84375 -1.421875 31.78125 -1.421875 
Q 19.734375 -1.421875 13.25 4.234375 
Q 6.78125 9.90625 6.78125 20.515625 
Q 6.78125 27.484375 10.78125 32.3125 
Q 14.796875 37.15625 21.921875 38.8125 
z
M 18.3125 54.390625 
Q 18.3125 48.734375 21.84375 45.5625 
Q 25.390625 42.390625 31.78125 42.390625 
Q 38.140625 42.390625 41.71875 45.5625 
Q 45.3125 48.734375 45.3125 54.390625 
Q 45.3125 60.0625 41.71875 63.234375 
Q 38.140625 66.40625 31.78125 66.40625 
Q 25.390625 66.40625 21.84375 63.234375 
Q 18.3125 60.0625 18.3125 54.390625 
z
" id="DejaVuSans-38"/>
      </defs>
      <g transform="translate(366.682846 317.076875)scale(0.2 -0.2)">
       <use xlink:href="#DejaVuSans-38"/>
      </g>
     </g>
    </g>
    <g id="text_6">
     <!-- log10(# f-evals / dimension) -->
     <defs>
      <path d="M 9.421875 75.984375 
L 18.40625 75.984375 
L 18.40625 0 
L 9.421875 0 
z
" id="DejaVuSans-6c"/>
      <path d="M 30.609375 48.390625 
Q 23.390625 48.390625 19.1875 42.75 
Q 14.984375 37.109375 14.984375 27.296875 
Q 14.984375 17.484375 19.15625 11.84375 
Q 23.34375 6.203125 30.609375 6.203125 
Q 37.796875 6.203125 41.984375 11.859375 
Q 46.1875 17.53125 46.1875 27.296875 
Q 46.1875 37.015625 41.984375 42.703125 
Q 37.796875 48.390625 30.609375 48.390625 
z
M 30.609375 56 
Q 42.328125 56 49.015625 48.375 
Q 55.71875 40.765625 55.71875 27.296875 
Q 55.71875 13.875 49.015625 6.21875 
Q 42.328125 -1.421875 30.609375 -1.421875 
Q 18.84375 -1.421875 12.171875 6.21875 
Q 5.515625 13.875 5.515625 27.296875 
Q 5.515625 40.765625 12.171875 48.375 
Q 18.84375 56 30.609375 56 
z
" id="DejaVuSans-6f"/>
      <path d="M 45.40625 27.984375 
Q 45.40625 37.75 41.375 43.109375 
Q 37.359375 48.484375 30.078125 48.484375 
Q 22.859375 48.484375 18.828125 43.109375 
Q 14.796875 37.75 14.796875 27.984375 
Q 14.796875 18.265625 18.828125 12.890625 
Q 22.859375 7.515625 30.078125 7.515625 
Q 37.359375 7.515625 41.375 12.890625 
Q 45.40625 18.265625 45.40625 27.984375 
z
M 54.390625 6.78125 
Q 54.390625 -7.171875 48.1875 -13.984375 
Q 42 -20.796875 29.203125 -20.796875 
Q 24.46875 -20.796875 20.265625 -20.09375 
Q 16.0625 -19.390625 12.109375 -17.921875 
L 12.109375 -9.1875 
Q 16.0625 -11.328125 19.921875 -12.34375 
Q 23.78125 -13.375 27.78125 -13.375 
Q 36.625 -13.375 41.015625 -8.765625 
Q 45.40625 -4.15625 45.40625 5.171875 
L 45.40625 9.625 
Q 42.625 4.78125 38.28125 2.390625 
Q 33.9375 0 27.875 0 
Q 17.828125 0 11.671875 7.65625 
Q 5.515625 15.328125 5.515625 27.984375 
Q 5.515625 40.671875 11.671875 48.328125 
Q 17.828125 56 27.875 56 
Q 33.9375 56 38.28125 53.609375 
Q 42.625 51.21875 45.40625 46.390625 
L 45.40625 54.6875 
L 54.390625 54.6875 
z
" id="DejaVuSans-67"/>
      <path d="M 12.40625 8.296875 
L 28.515625 8.296875 
L 28.515625 63.921875 
L 10.984375 60.40625 
L 10.984375 69.390625 
L 28.421875 72.90625 
L 38.28125 72.90625 
L 38.28125 8.296875 
L 54.390625 8.296875 
L 54.390625 0 
L 12.40625 0 
z
" id="DejaVuSans-31"/>
      <path d="M 31 75.875 
Q 24.46875 64.65625 21.28125 53.65625 
Q 18.109375 42.671875 18.109375 31.390625 
Q 18.109375 20.125 21.3125 9.0625 
Q 24.515625 -2 31 -13.1875 
L 23.1875 -13.1875 
Q 15.875 -1.703125 12.234375 9.375 
Q 8.59375 20.453125 8.59375 31.390625 
Q 8.59375 42.28125 12.203125 53.3125 
Q 15.828125 64.359375 23.1875 75.875 
z
" id="DejaVuSans-28"/>
      <path d="M 51.125 44 
L 36.921875 44 
L 32.8125 27.6875 
L 47.125 27.6875 
z
M 43.796875 71.78125 
L 38.71875 51.515625 
L 52.984375 51.515625 
L 58.109375 71.78125 
L 65.921875 71.78125 
L 60.890625 51.515625 
L 76.125 51.515625 
L 76.125 44 
L 58.984375 44 
L 54.984375 27.6875 
L 70.515625 27.6875 
L 70.515625 20.21875 
L 53.078125 20.21875 
L 48 0 
L 40.1875 0 
L 45.21875 20.21875 
L 30.90625 20.21875 
L 25.875 0 
L 18.015625 0 
L 23.09375 20.21875 
L 7.71875 20.21875 
L 7.71875 27.6875 
L 24.90625 27.6875 
L 29 44 
L 13.28125 44 
L 13.28125 51.515625 
L 30.90625 51.515625 
L 35.890625 71.78125 
z
" id="DejaVuSans-23"/>
      <path id="DejaVuSans-20"/>
      <path d="M 37.109375 75.984375 
L 37.109375 68.5 
L 28.515625 68.5 
Q 23.6875 68.5 21.796875 66.546875 
Q 19.921875 64.59375 19.921875 59.515625 
L 19.921875 54.6875 
L 34.71875 54.6875 
L 34.71875 47.703125 
L 19.921875 47.703125 
L 19.921875 0 
L 10.890625 0 
L 10.890625 47.703125 
L 2.296875 47.703125 
L 2.296875 54.6875 
L 10.890625 54.6875 
L 10.890625 58.5 
Q 10.890625 67.625 15.140625 71.796875 
Q 19.390625 75.984375 28.609375 75.984375 
z
" id="DejaVuSans-66"/>
      <path d="M 4.890625 31.390625 
L 31.203125 31.390625 
L 31.203125 23.390625 
L 4.890625 23.390625 
z
" id="DejaVuSans-2d"/>
      <path d="M 56.203125 29.59375 
L 56.203125 25.203125 
L 14.890625 25.203125 
Q 15.484375 15.921875 20.484375 11.0625 
Q 25.484375 6.203125 34.421875 6.203125 
Q 39.59375 6.203125 44.453125 7.46875 
Q 49.3125 8.734375 54.109375 11.28125 
L 54.109375 2.78125 
Q 49.265625 0.734375 44.1875 -0.34375 
Q 39.109375 -1.421875 33.890625 -1.421875 
Q 20.796875 -1.421875 13.15625 6.1875 
Q 5.515625 13.8125 5.515625 26.8125 
Q 5.515625 40.234375 12.765625 48.109375 
Q 20.015625 56 32.328125 56 
Q 43.359375 56 49.78125 48.890625 
Q 56.203125 41.796875 56.203125 29.59375 
z
M 47.21875 32.234375 
Q 47.125 39.59375 43.09375 43.984375 
Q 39.0625 48.390625 32.421875 48.390625 
Q 24.90625 48.390625 20.390625 44.140625 
Q 15.875 39.890625 15.1875 32.171875 
z
" id="DejaVuSans-65"/>
      <path d="M 2.984375 54.6875 
L 12.5 54.6875 
L 29.59375 8.796875 
L 46.6875 54.6875 
L 56.203125 54.6875 
L 35.6875 0 
L 23.484375 0 
z
" id="DejaVuSans-76"/>
      <path d="M 34.28125 27.484375 
Q 23.390625 27.484375 19.1875 25 
Q 14.984375 22.515625 14.984375 16.5 
Q 14.984375 11.71875 18.140625 8.90625 
Q 21.296875 6.109375 26.703125 6.109375 
Q 34.1875 6.109375 38.703125 11.40625 
Q 43.21875 16.703125 43.21875 25.484375 
L 43.21875 27.484375 
z
M 52.203125 31.203125 
L 52.203125 0 
L 43.21875 0 
L 43.21875 8.296875 
Q 40.140625 3.328125 35.546875 0.953125 
Q 30.953125 -1.421875 24.3125 -1.421875 
Q 15.921875 -1.421875 10.953125 3.296875 
Q 6 8.015625 6 15.921875 
Q 6 25.140625 12.171875 29.828125 
Q 18.359375 34.515625 30.609375 34.515625 
L 43.21875 34.515625 
L 43.21875 35.40625 
Q 43.21875 41.609375 39.140625 45 
Q 35.0625 48.390625 27.6875 48.390625 
Q 23 48.390625 18.546875 47.265625 
Q 14.109375 46.140625 10.015625 43.890625 
L 10.015625 52.203125 
Q 14.9375 54.109375 19.578125 55.046875 
Q 24.21875 56 28.609375 56 
Q 40.484375 56 46.34375 49.84375 
Q 52.203125 43.703125 52.203125 31.203125 
z
" id="DejaVuSans-61"/>
      <path d="M 44.28125 53.078125 
L 44.28125 44.578125 
Q 40.484375 46.53125 36.375 47.5 
Q 32.28125 48.484375 27.875 48.484375 
Q 21.1875 48.484375 17.84375 46.4375 
Q 14.5 44.390625 14.5 40.28125 
Q 14.5 37.15625 16.890625 35.375 
Q 19.28125 33.59375 26.515625 31.984375 
L 29.59375 31.296875 
Q 39.15625 29.25 43.1875 25.515625 
Q 47.21875 21.78125 47.21875 15.09375 
Q 47.21875 7.46875 41.1875 3.015625 
Q 35.15625 -1.421875 24.609375 -1.421875 
Q 20.21875 -1.421875 15.453125 -0.5625 
Q 10.6875 0.296875 5.421875 2 
L 5.421875 11.28125 
Q 10.40625 8.6875 15.234375 7.390625 
Q 20.0625 6.109375 24.8125 6.109375 
Q 31.15625 6.109375 34.5625 8.28125 
Q 37.984375 10.453125 37.984375 14.40625 
Q 37.984375 18.0625 35.515625 20.015625 
Q 33.0625 21.96875 24.703125 23.78125 
L 21.578125 24.515625 
Q 13.234375 26.265625 9.515625 29.90625 
Q 5.8125 33.546875 5.8125 39.890625 
Q 5.8125 47.609375 11.28125 51.796875 
Q 16.75 56 26.8125 56 
Q 31.78125 56 36.171875 55.265625 
Q 40.578125 54.546875 44.28125 53.078125 
z
" id="DejaVuSans-73"/>
      <path d="M 25.390625 72.90625 
L 33.6875 72.90625 
L 8.296875 -9.28125 
L 0 -9.28125 
z
" id="DejaVuSans-2f"/>
      <path d="M 45.40625 46.390625 
L 45.40625 75.984375 
L 54.390625 75.984375 
L 54.390625 0 
L 45.40625 0 
L 45.40625 8.203125 
Q 42.578125 3.328125 38.25 0.953125 
Q 33.9375 -1.421875 27.875 -1.421875 
Q 17.96875 -1.421875 11.734375 6.484375 
Q 5.515625 14.40625 5.515625 27.296875 
Q 5.515625 40.1875 11.734375 48.09375 
Q 17.96875 56 27.875 56 
Q 33.9375 56 38.25 53.625 
Q 42.578125 51.265625 45.40625 46.390625 
z
M 14.796875 27.296875 
Q 14.796875 17.390625 18.875 11.75 
Q 22.953125 6.109375 30.078125 6.109375 
Q 37.203125 6.109375 41.296875 11.75 
Q 45.40625 17.390625 45.40625 27.296875 
Q 45.40625 37.203125 41.296875 42.84375 
Q 37.203125 48.484375 30.078125 48.484375 
Q 22.953125 48.484375 18.875 42.84375 
Q 14.796875 37.203125 14.796875 27.296875 
z
" id="DejaVuSans-64"/>
      <path d="M 9.421875 54.6875 
L 18.40625 54.6875 
L 18.40625 0 
L 9.421875 0 
z
M 9.421875 75.984375 
L 18.40625 75.984375 
L 18.40625 64.59375 
L 9.421875 64.59375 
z
" id="DejaVuSans-69"/>
      <path d="M 52 44.1875 
Q 55.375 50.25 60.0625 53.125 
Q 64.75 56 71.09375 56 
Q 79.640625 56 84.28125 50.015625 
Q 88.921875 44.046875 88.921875 33.015625 
L 88.921875 0 
L 79.890625 0 
L 79.890625 32.71875 
Q 79.890625 40.578125 77.09375 44.375 
Q 74.3125 48.1875 68.609375 48.1875 
Q 61.625 48.1875 57.5625 43.546875 
Q 53.515625 38.921875 53.515625 30.90625 
L 53.515625 0 
L 44.484375 0 
L 44.484375 32.71875 
Q 44.484375 40.625 41.703125 44.40625 
Q 38.921875 48.1875 33.109375 48.1875 
Q 26.21875 48.1875 22.15625 43.53125 
Q 18.109375 38.875 18.109375 30.90625 
L 18.109375 0 
L 9.078125 0 
L 9.078125 54.6875 
L 18.109375 54.6875 
L 18.109375 46.1875 
Q 21.1875 51.21875 25.484375 53.609375 
Q 29.78125 56 35.6875 56 
Q 41.65625 56 45.828125 52.96875 
Q 50 49.953125 52 44.1875 
z
" id="DejaVuSans-6d"/>
      <path d="M 54.890625 33.015625 
L 54.890625 0 
L 45.90625 0 
L 45.90625 32.71875 
Q 45.90625 40.484375 42.875 44.328125 
Q 39.84375 48.1875 33.796875 48.1875 
Q 26.515625 48.1875 22.3125 43.546875 
Q 18.109375 38.921875 18.109375 30.90625 
L 18.109375 0 
L 9.078125 0 
L 9.078125 54.6875 
L 18.109375 54.6875 
L 18.109375 46.1875 
Q 21.34375 51.125 25.703125 53.5625 
Q 30.078125 56 35.796875 56 
Q 45.21875 56 50.046875 50.171875 
Q 54.890625 44.34375 54.890625 33.015625 
z
" id="DejaVuSans-6e"/>
      <path d="M 8.015625 75.875 
L 15.828125 75.875 
Q 23.140625 64.359375 26.78125 53.3125 
Q 30.421875 42.28125 30.421875 31.390625 
Q 30.421875 20.453125 26.78125 9.375 
Q 23.140625 -1.703125 15.828125 -13.1875 
L 8.015625 -13.1875 
Q 14.5 -2 17.703125 9.0625 
Q 20.90625 20.125 20.90625 31.390625 
Q 20.90625 42.671875 17.703125 53.65625 
Q 14.5 64.65625 8.015625 75.875 
z
" id="DejaVuSans-29"/>
     </defs>
     <g transform="translate(107.211219 338.153594)scale(0.17 -0.17)">
      <use xlink:href="#DejaVuSans-6c"/>
      <use x="27.783203" xlink:href="#DejaVuSans-6f"/>
      <use x="88.964844" xlink:href="#DejaVuSans-67"/>
      <use x="152.441406" xlink:href="#DejaVuSans-31"/>
      <use x="216.064453" xlink:href="#DejaVuSans-30"/>
      <use x="279.6875" xlink:href="#DejaVuSans-28"/>
      <use x="318.701172" xlink:href="#DejaVuSans-23"/>
      <use x="402.490234" xlink:href="#DejaVuSans-20"/>
      <use x="434.277344" xlink:href="#DejaVuSans-66"/>
      <use x="469.404297" xlink:href="#DejaVuSans-2d"/>
      <use x="505.488281" xlink:href="#DejaVuSans-65"/>
      <use x="567.011719" xlink:href="#DejaVuSans-76"/>
      <use x="626.191406" xlink:href="#DejaVuSans-61"/>
      <use x="687.470703" xlink:href="#DejaVuSans-6c"/>
      <use x="715.253906" xlink:href="#DejaVuSans-73"/>
      <use x="767.353516" xlink:href="#DejaVuSans-20"/>
      <use x="799.140625" xlink:href="#DejaVuSans-2f"/>
      <use x="832.832031" xlink:href="#DejaVuSans-20"/>
      <use x="864.619141" xlink:href="#DejaVuSans-64"/>
      <use x="928.095703" xlink:href="#DejaVuSans-69"/>
      <use x="955.878906" xlink:href="#DejaVuSans-6d"/>
      <use x="1053.291016" xlink:href="#DejaVuSans-65"/>
      <use x="1114.814453" xlink:href="#DejaVuSans-6e"/>
      <use x="1178.193359" xlink:href="#DejaVuSans-73"/>
      <use x="1230.292969" xlink:href="#DejaVuSans-69"/>
      <use x="1258.076172" xlink:href="#DejaVuSans-6f"/>
      <use x="1319.257812" xlink:href="#DejaVuSans-6e"/>
      <use x="1382.636719" xlink:href="#DejaVuSans-29"/>
     </g>
    </g>
   </g>
   <g id="matplotlib.axis_2">
    <g id="ytick_1">
     <g id="line2d_15">
      <path clip-path="url(#p70f7836016)" d="M 56.12 294.88 
L 399.984 294.88 
" style="fill:none;stroke:#b0b0b0;stroke-linecap:square;stroke-width:0.8;"/>
     </g>
     <g id="line2d_16">
      <defs>
       <path d="M 0 0 
L -3.5 0 
" id="m63ea0fb777" style="stroke:#000000;stroke-width:0.8;"/>
      </defs>
      <g>
       <use style="stroke:#000000;stroke-width:0.8;" x="56.12" xlink:href="#m63ea0fb777" y="294.88"/>
      </g>
     </g>
     <g id="text_7">
      <!-- 0.0 -->
      <defs>
       <path d="M 10.6875 12.40625 
L 21 12.40625 
L 21 0 
L 10.6875 0 
z
" id="DejaVuSans-2e"/>
      </defs>
      <g transform="translate(23.675 300.95875)scale(0.16 -0.16)">
       <use xlink:href="#DejaVuSans-30"/>
       <use x="63.623047" xlink:href="#DejaVuSans-2e"/>
       <use x="95.410156" xlink:href="#DejaVuSans-30"/>
      </g>
     </g>
    </g>
    <g id="ytick_2">
     <g id="line2d_17">
      <path clip-path="url(#p70f7836016)" d="M 56.12 241.406733 
L 399.984 241.406733 
" style="fill:none;stroke:#b0b0b0;stroke-linecap:square;stroke-width:0.8;"/>
     </g>
     <g id="line2d_18">
      <g>
       <use style="stroke:#000000;stroke-width:0.8;" x="56.12" xlink:href="#m63ea0fb777" y="241.406733"/>
      </g>
     </g>
     <g id="text_8">
      <!-- 0.2 -->
      <g transform="translate(23.675 247.485483)scale(0.16 -0.16)">
       <use xlink:href="#DejaVuSans-30"/>
       <use x="63.623047" xlink:href="#DejaVuSans-2e"/>
       <use x="95.410156" xlink:href="#DejaVuSans-32"/>
      </g>
     </g>
    </g>
    <g id="ytick_3">
     <g id="line2d_19">
      <path clip-path="url(#p70f7836016)" d="M 56.12 187.933465 
L 399.984 187.933465 
" style="fill:none;stroke:#b0b0b0;stroke-linecap:square;stroke-width:0.8;"/>
     </g>
     <g id="line2d_20">
      <g>
       <use style="stroke:#000000;stroke-width:0.8;" x="56.12" xlink:href="#m63ea0fb777" y="187.933465"/>
      </g>
     </g>
     <g id="text_9">
      <!-- 0.4 -->
      <g transform="translate(23.675 194.012215)scale(0.16 -0.16)">
       <use xlink:href="#DejaVuSans-30"/>
       <use x="63.623047" xlink:href="#DejaVuSans-2e"/>
       <use x="95.410156" xlink:href="#DejaVuSans-34"/>
      </g>
     </g>
    </g>
    <g id="ytick_4">
     <g id="line2d_21">
      <path clip-path="url(#p70f7836016)" d="M 56.12 134.460198 
L 399.984 134.460198 
" style="fill:none;stroke:#b0b0b0;stroke-linecap:square;stroke-width:0.8;"/>
     </g>
     <g id="line2d_22">
      <g>
       <use style="stroke:#000000;stroke-width:0.8;" x="56.12" xlink:href="#m63ea0fb777" y="134.460198"/>
      </g>
     </g>
     <g id="text_10">
      <!-- 0.6 -->
      <g transform="translate(23.675 140.538948)scale(0.16 -0.16)">
       <use xlink:href="#DejaVuSans-30"/>
       <use x="63.623047" xlink:href="#DejaVuSans-2e"/>
       <use x="95.410156" xlink:href="#DejaVuSans-36"/>
      </g>
     </g>
    </g>
    <g id="ytick_5">
     <g id="line2d_23">
      <path clip-path="url(#p70f7836016)" d="M 56.12 80.986931 
L 399.984 80.986931 
" style="fill:none;stroke:#b0b0b0;stroke-linecap:square;stroke-width:0.8;"/>
     </g>
     <g id="line2d_24">
      <g>
       <use style="stroke:#000000;stroke-width:0.8;" x="56.12" xlink:href="#m63ea0fb777" y="80.986931"/>
      </g>
     </g>
     <g id="text_11">
      <!-- 0.8 -->
      <g transform="translate(23.675 87.065681)scale(0.16 -0.16)">
       <use xlink:href="#DejaVuSans-30"/>
       <use x="63.623047" xlink:href="#DejaVuSans-2e"/>
       <use x="95.410156" xlink:href="#DejaVuSans-38"/>
      </g>
     </g>
    </g>
    <g id="ytick_6">
     <g id="line2d_25">
      <path clip-path="url(#p70f7836016)" d="M 56.12 27.513663 
L 399.984 27.513663 
" style="fill:none;stroke:#b0b0b0;stroke-linecap:square;stroke-width:0.8;"/>
     </g>
     <g id="line2d_26">
      <g>
       <use style="stroke:#000000;stroke-width:0.8;" x="56.12" xlink:href="#m63ea0fb777" y="27.513663"/>
      </g>
     </g>
     <g id="text_12">
      <!-- 1.0 -->
      <g transform="translate(23.675 33.592413)scale(0.16 -0.16)">
       <use xlink:href="#DejaVuSans-31"/>
       <use x="63.623047" xlink:href="#DejaVuSans-2e"/>
       <use x="95.410156" xlink:href="#DejaVuSans-30"/>
      </g>
     </g>
    </g>
    <g id="text_13">
     <!-- Fraction of function,target pairs -->
     <defs>
      <path d="M 9.8125 72.90625 
L 51.703125 72.90625 
L 51.703125 64.59375 
L 19.671875 64.59375 
L 19.671875 43.109375 
L 48.578125 43.109375 
L 48.578125 34.8125 
L 19.671875 34.8125 
L 19.671875 0 
L 9.8125 0 
z
" id="DejaVuSans-46"/>
      <path d="M 41.109375 46.296875 
Q 39.59375 47.171875 37.8125 47.578125 
Q 36.03125 48 33.890625 48 
Q 26.265625 48 22.1875 43.046875 
Q 18.109375 38.09375 18.109375 28.8125 
L 18.109375 0 
L 9.078125 0 
L 9.078125 54.6875 
L 18.109375 54.6875 
L 18.109375 46.1875 
Q 20.953125 51.171875 25.484375 53.578125 
Q 30.03125 56 36.53125 56 
Q 37.453125 56 38.578125 55.875 
Q 39.703125 55.765625 41.0625 55.515625 
z
" id="DejaVuSans-72"/>
      <path d="M 48.78125 52.59375 
L 48.78125 44.1875 
Q 44.96875 46.296875 41.140625 47.34375 
Q 37.3125 48.390625 33.40625 48.390625 
Q 24.65625 48.390625 19.8125 42.84375 
Q 14.984375 37.3125 14.984375 27.296875 
Q 14.984375 17.28125 19.8125 11.734375 
Q 24.65625 6.203125 33.40625 6.203125 
Q 37.3125 6.203125 41.140625 7.25 
Q 44.96875 8.296875 48.78125 10.40625 
L 48.78125 2.09375 
Q 45.015625 0.34375 40.984375 -0.53125 
Q 36.96875 -1.421875 32.421875 -1.421875 
Q 20.0625 -1.421875 12.78125 6.34375 
Q 5.515625 14.109375 5.515625 27.296875 
Q 5.515625 40.671875 12.859375 48.328125 
Q 20.21875 56 33.015625 56 
Q 37.15625 56 41.109375 55.140625 
Q 45.0625 54.296875 48.78125 52.59375 
z
" id="DejaVuSans-63"/>
      <path d="M 18.3125 70.21875 
L 18.3125 54.6875 
L 36.8125 54.6875 
L 36.8125 47.703125 
L 18.3125 47.703125 
L 18.3125 18.015625 
Q 18.3125 11.328125 20.140625 9.421875 
Q 21.96875 7.515625 27.59375 7.515625 
L 36.8125 7.515625 
L 36.8125 0 
L 27.59375 0 
Q 17.1875 0 13.234375 3.875 
Q 9.28125 7.765625 9.28125 18.015625 
L 9.28125 47.703125 
L 2.6875 47.703125 
L 2.6875 54.6875 
L 9.28125 54.6875 
L 9.28125 70.21875 
z
" id="DejaVuSans-74"/>
      <path d="M 8.5 21.578125 
L 8.5 54.6875 
L 17.484375 54.6875 
L 17.484375 21.921875 
Q 17.484375 14.15625 20.5 10.265625 
Q 23.53125 6.390625 29.59375 6.390625 
Q 36.859375 6.390625 41.078125 11.03125 
Q 45.3125 15.671875 45.3125 23.6875 
L 45.3125 54.6875 
L 54.296875 54.6875 
L 54.296875 0 
L 45.3125 0 
L 45.3125 8.40625 
Q 42.046875 3.421875 37.71875 1 
Q 33.40625 -1.421875 27.6875 -1.421875 
Q 18.265625 -1.421875 13.375 4.4375 
Q 8.5 10.296875 8.5 21.578125 
z
M 31.109375 56 
z
" id="DejaVuSans-75"/>
      <path d="M 11.71875 12.40625 
L 22.015625 12.40625 
L 22.015625 4 
L 14.015625 -11.625 
L 7.71875 -11.625 
L 11.71875 4 
z
" id="DejaVuSans-2c"/>
      <path d="M 18.109375 8.203125 
L 18.109375 -20.796875 
L 9.078125 -20.796875 
L 9.078125 54.6875 
L 18.109375 54.6875 
L 18.109375 46.390625 
Q 20.953125 51.265625 25.265625 53.625 
Q 29.59375 56 35.59375 56 
Q 45.5625 56 51.78125 48.09375 
Q 58.015625 40.1875 58.015625 27.296875 
Q 58.015625 14.40625 51.78125 6.484375 
Q 45.5625 -1.421875 35.59375 -1.421875 
Q 29.59375 -1.421875 25.265625 0.953125 
Q 20.953125 3.328125 18.109375 8.203125 
z
M 48.6875 27.296875 
Q 48.6875 37.203125 44.609375 42.84375 
Q 40.53125 48.484375 33.40625 48.484375 
Q 26.265625 48.484375 22.1875 42.84375 
Q 18.109375 37.203125 18.109375 27.296875 
Q 18.109375 17.390625 22.1875 11.75 
Q 26.265625 6.109375 33.40625 6.109375 
Q 40.53125 6.109375 44.609375 11.75 
Q 48.6875 17.390625 48.6875 27.296875 
z
" id="DejaVuSans-70"/>
     </defs>
     <g transform="translate(16.139531 294.999375)rotate(-90)scale(0.17 -0.17)">
      <use xlink:href="#DejaVuSans-46"/>
      <use x="57.410156" xlink:href="#DejaVuSans-72"/>
      <use x="98.523438" xlink:href="#DejaVuSans-61"/>
      <use x="159.802734" xlink:href="#DejaVuSans-63"/>
      <use x="214.783203" xlink:href="#DejaVuSans-74"/>
      <use x="253.992188" xlink:href="#DejaVuSans-69"/>
      <use x="281.775391" xlink:href="#DejaVuSans-6f"/>
      <use x="342.957031" xlink:href="#DejaVuSans-6e"/>
      <use x="406.335938" xlink:href="#DejaVuSans-20"/>
      <use x="438.123047" xlink:href="#DejaVuSans-6f"/>
      <use x="499.304688" xlink:href="#DejaVuSans-66"/>
      <use x="534.509766" xlink:href="#DejaVuSans-20"/>
      <use x="566.296875" xlink:href="#DejaVuSans-66"/>
      <use x="601.501953" xlink:href="#DejaVuSans-75"/>
      <use x="664.880859" xlink:href="#DejaVuSans-6e"/>
      <use x="728.259766" xlink:href="#DejaVuSans-63"/>
      <use x="783.240234" xlink:href="#DejaVuSans-74"/>
      <use x="822.449219" xlink:href="#DejaVuSans-69"/>
      <use x="850.232422" xlink:href="#DejaVuSans-6f"/>
      <use x="911.414062" xlink:href="#DejaVuSans-6e"/>
      <use x="974.792969" xlink:href="#DejaVuSans-2c"/>
      <use x="1006.580078" xlink:href="#DejaVuSans-74"/>
      <use x="1045.789062" xlink:href="#DejaVuSans-61"/>
      <use x="1107.068359" xlink:href="#DejaVuSans-72"/>
      <use x="1148.166016" xlink:href="#DejaVuSans-67"/>
      <use x="1211.642578" xlink:href="#DejaVuSans-65"/>
      <use x="1273.166016" xlink:href="#DejaVuSans-74"/>
      <use x="1312.375" xlink:href="#DejaVuSans-20"/>
      <use x="1344.162109" xlink:href="#DejaVuSans-70"/>
      <use x="1407.638672" xlink:href="#DejaVuSans-61"/>
      <use x="1468.917969" xlink:href="#DejaVuSans-69"/>
      <use x="1496.701172" xlink:href="#DejaVuSans-72"/>
      <use x="1537.814453" xlink:href="#DejaVuSans-73"/>
     </g>
    </g>
   </g>
   <g id="line2d_27">
    <defs>
     <path d="M 0 1.5 
C 0.397805 1.5 0.77937 1.341951 1.06066 1.06066 
C 1.341951 0.77937 1.5 0.397805 1.5 0 
C 1.5 -0.397805 1.341951 -0.77937 1.06066 -1.06066 
C 0.77937 -1.341951 0.397805 -1.5 0 -1.5 
C -0.397805 -1.5 -0.77937 -1.341951 -1.06066 -1.06066 
C -1.341951 -0.77937 -1.5 -0.397805 -1.5 0 
C -1.5 0.397805 -1.341951 0.77937 -1.06066 1.06066 
C -0.77937 1.341951 -0.397805 1.5 0 1.5 
z
" id="mb379ff6c49" style="stroke:#f5deb3;"/>
    </defs>
    <g>
     <use style="fill:#f5deb3;stroke:#f5deb3;" x="69.289772" xlink:href="#mb379ff6c49" y="27.513663"/>
     <use style="fill:#f5deb3;stroke:#f5deb3;" x="69.289772" xlink:href="#mb379ff6c49" y="27.513663"/>
    </g>
   </g>
   <g id="line2d_28">
    <defs>
     <path d="M 0 1.5 
C 0.397805 1.5 0.77937 1.341951 1.06066 1.06066 
C 1.341951 0.77937 1.5 0.397805 1.5 0 
C 1.5 -0.397805 1.341951 -0.77937 1.06066 -1.06066 
C 0.77937 -1.341951 0.397805 -1.5 0 -1.5 
C -0.397805 -1.5 -0.77937 -1.341951 -1.06066 -1.06066 
C -1.341951 -0.77937 -1.5 -0.397805 -1.5 0 
C -1.5 0.397805 -1.341951 0.77937 -1.06066 1.06066 
C -0.77937 1.341951 -0.397805 1.5 0 1.5 
z
" id="mb0e51948d6" style="stroke:#000080;"/>
    </defs>
    <g>
     <use style="fill:#000080;stroke:#000080;" x="171.45062" xlink:href="#mb0e51948d6" y="27.513663"/>
     <use style="fill:#000080;stroke:#000080;" x="171.45062" xlink:href="#mb0e51948d6" y="27.513663"/>
    </g>
   </g>
   <g id="line2d_29">
    <path d="M 76.131854 294.88 
L 76.131854 294.355752 
L 96.738177 294.355752 
L 96.738177 293.831505 
L 99.297319 293.831505 
L 99.297319 292.783009 
L 101.707985 292.783009 
L 101.707985 292.258761 
L 103.220196 292.258761 
L 103.220196 291.734514 
L 105.166024 291.734514 
L 105.166024 291.210266 
L 105.943777 291.210266 
L 105.943777 290.686018 
L 106.226603 290.686018 
L 106.226603 290.161771 
L 107.444756 290.161771 
L 107.444756 289.637523 
L 108.663681 289.637523 
L 108.663681 288.589027 
L 109.877725 288.589027 
L 109.877725 287.540532 
L 111.082375 287.540532 
L 111.082375 287.016284 
L 111.773426 287.016284 
L 111.874731 285.443541 
L 111.975443 285.443541 
L 111.975443 284.919293 
L 112.306953 284.919293 
L 112.306953 284.395046 
L 112.983003 284.395046 
L 112.983003 283.870798 
L 113.572587 283.870798 
L 113.572587 283.34655 
L 113.844966 283.34655 
L 113.934809 282.298055 
L 114.6944 282.298055 
L 114.6944 281.249559 
L 114.80834 281.249559 
L 114.893302 279.152568 
L 115.558307 279.152568 
L 115.558307 278.104073 
L 117.091528 278.104073 
L 117.091528 277.579825 
L 117.702127 277.579825 
L 117.702127 277.055578 
L 118.544983 277.055578 
L 118.544983 276.53133 
L 118.995988 276.53133 
L 118.995988 276.007082 
L 119.217133 276.007082 
L 119.217133 275.482834 
L 119.348469 275.482834 
L 119.348469 274.958587 
L 120.053422 274.958587 
L 120.053422 274.434339 
L 121.069353 274.434339 
L 121.069353 273.910091 
L 121.765375 273.910091 
L 121.765375 273.385844 
L 121.95382 273.385844 
L 121.95382 272.861596 
L 122.379567 272.861596 
L 122.379567 271.8131 
L 122.954914 271.8131 
L 122.954914 269.716109 
L 123.322292 269.716109 
L 123.322292 269.191862 
L 124.067501 269.191862 
L 124.100619 268.143366 
L 124.444564 268.143366 
L 124.444564 267.619119 
L 125.002954 267.619119 
L 125.081265 266.046375 
L 125.619682 266.046375 
L 125.665057 263.949385 
L 126.461994 263.949385 
L 126.461994 262.900889 
L 126.861131 262.900889 
L 126.861131 261.852394 
L 127.168369 261.852394 
L 127.168369 261.328146 
L 127.565159 261.328146 
L 127.619177 260.279651 
L 127.846882 260.279651 
L 127.846882 259.755403 
L 128.70341 259.755403 
L 128.70341 259.231155 
L 128.917294 259.231155 
L 128.917294 258.706907 
L 129.202498 258.706907 
L 129.227077 257.658412 
L 129.337247 257.658412 
L 129.337247 256.609917 
L 129.723347 256.609917 
L 129.723347 256.085669 
L 129.854093 256.085669 
L 129.854093 255.561421 
L 130.390331 255.561421 
L 130.481907 253.46443 
L 130.79864 253.46443 
L 130.79864 252.940182 
L 131.131648 252.940182 
L 131.186528 251.891687 
L 131.469115 251.891687 
L 131.469115 251.367439 
L 131.597991 251.367439 
L 131.662069 249.794696 
L 131.810662 249.794696 
L 131.810662 248.746201 
L 132.010294 248.746201 
L 132.031173 247.697705 
L 132.12482 247.697705 
L 132.12482 246.64921 
L 132.238588 246.64921 
L 132.290054 245.600714 
L 132.49439 245.600714 
L 132.545096 244.027971 
L 132.776443 244.027971 
L 132.776443 243.503724 
L 132.975116 243.503724 
L 132.975116 242.979476 
L 133.37536 242.979476 
L 133.37536 241.406733 
L 133.888693 241.406733 
L 133.888693 239.83399 
L 134.684806 239.83399 
L 134.711611 237.212751 
L 135.003752 237.212751 
L 135.003752 236.688503 
L 135.247796 236.688503 
L 135.247796 236.164255 
L 135.6329 236.164255 
L 135.6329 235.640008 
L 135.84318 235.640008 
L 135.84318 235.11576 
L 136.133319 235.11576 
L 136.133319 234.591512 
L 136.539496 234.591512 
L 136.539496 234.067265 
L 136.841902 234.067265 
L 136.841902 233.018769 
L 137.162329 233.018769 
L 137.162329 232.494521 
L 137.476898 232.494521 
L 137.507281 231.446026 
L 137.635818 231.446026 
L 137.688466 230.397531 
L 137.867763 230.397531 
L 137.867763 228.30054 
L 138.059916 228.30054 
L 138.125933 226.727797 
L 138.716037 226.727797 
L 138.758431 225.679301 
L 138.933956 225.679301 
L 138.982784 223.58231 
L 139.470362 223.58231 
L 139.470362 223.058063 
L 140.147493 223.058063 
L 140.147493 222.533815 
L 140.315916 222.533815 
L 140.315916 220.961072 
L 140.514596 220.961072 
L 140.590892 218.864081 
L 140.673167 218.864081 
L 140.673167 218.339833 
L 140.99219 218.339833 
L 140.99219 217.815585 
L 141.262751 217.815585 
L 141.262751 216.242842 
L 141.390398 216.242842 
L 141.390398 215.194347 
L 141.511092 215.194347 
L 141.511092 214.670099 
L 141.714348 214.670099 
L 141.815083 213.097356 
L 141.826896 213.097356 
L 141.874065 212.04886 
L 142.177551 212.04886 
L 142.177551 211.524613 
L 142.361685 211.524613 
L 142.418825 209.427622 
L 142.498503 209.427622 
L 142.498503 207.854879 
L 142.819153 207.854879 
L 142.819153 205.757888 
L 143.013122 205.757888 
L 143.046155 203.136649 
L 143.204928 203.136649 
L 143.204928 202.612401 
L 143.373046 202.612401 
L 143.373046 201.563906 
L 143.550224 201.563906 
L 143.619523 199.466915 
L 143.846776 199.466915 
L 143.878248 198.41842 
L 143.977532 198.41842 
L 144.050324 196.845677 
L 144.328243 196.845677 
L 144.328243 196.321429 
L 144.465537 196.321429 
L 144.465537 195.272933 
L 144.851166 195.272933 
L 144.851166 194.748686 
L 145.271892 194.748686 
L 145.353855 192.651695 
L 145.387491 192.651695 
L 145.440215 191.603199 
L 145.507086 191.603199 
L 145.583193 190.554704 
L 145.972683 190.554704 
L 146.005131 189.506209 
L 146.166464 189.506209 
L 146.166464 188.981961 
L 146.376227 188.981961 
L 146.376227 188.457713 
L 146.565541 188.457713 
L 146.672792 186.360722 
L 146.766092 186.360722 
L 146.766092 185.836474 
L 147.155983 185.836474 
L 147.155983 185.312227 
L 147.298333 185.312227 
L 147.298333 183.739484 
L 147.465061 183.739484 
L 147.528759 181.642493 
L 147.760322 181.642493 
L 147.760322 180.593997 
L 147.926795 180.593997 
L 147.980554 178.497006 
L 148.054713 178.497006 
L 148.157184 176.924263 
L 148.250922 176.924263 
L 148.327974 175.35152 
L 148.632777 175.35152 
L 148.640725 174.303025 
L 148.814673 174.303025 
L 148.889247 171.157538 
L 149.080089 171.157538 
L 149.080089 170.633291 
L 149.257341 170.633291 
L 149.257341 170.109043 
L 149.778397 170.109043 
L 149.778397 169.584795 
L 149.948634 169.584795 
L 150.051438 168.012052 
L 150.215382 168.012052 
L 150.291357 166.439309 
L 150.349019 166.439309 
L 150.366999 165.390813 
L 150.552884 165.390813 
L 150.552884 164.342318 
L 150.817498 164.342318 
L 150.817498 163.81807 
L 151.153805 163.81807 
L 151.218916 160.672584 
L 151.266736 160.672584 
L 151.266736 160.148336 
L 151.449949 160.148336 
L 151.453323 158.575593 
L 151.674589 158.575593 
L 151.717839 157.527098 
L 151.853532 157.527098 
L 151.870007 155.954354 
L 152.108763 155.954354 
L 152.202699 154.381611 
L 152.414593 154.381611 
L 152.446471 152.28462 
L 152.573398 152.28462 
L 152.642811 150.18763 
L 152.815127 150.18763 
L 152.855606 148.614886 
L 152.951748 148.614886 
L 152.951748 148.090639 
L 153.108759 148.090639 
L 153.179102 145.993648 
L 153.610112 145.993648 
L 153.675474 144.420905 
L 153.811341 144.420905 
L 153.811341 143.896657 
L 154.021872 143.896657 
L 154.021872 143.372409 
L 154.298632 143.372409 
L 154.404123 142.323914 
L 154.531556 142.323914 
L 154.596326 141.275418 
L 154.669252 141.275418 
L 154.669252 140.751171 
L 154.825281 140.751171 
L 154.875134 139.178427 
L 155.05944 139.178427 
L 155.114076 138.129932 
L 155.20656 138.129932 
L 155.236376 136.557189 
L 155.330901 136.557189 
L 155.330901 135.508693 
L 155.502415 135.508693 
L 155.592841 133.93595 
L 155.616698 133.93595 
L 155.616698 132.887455 
L 155.890006 132.887455 
L 155.890006 132.363207 
L 156.304725 132.363207 
L 156.304725 131.314712 
L 156.454234 131.314712 
L 156.509653 130.266216 
L 156.5674 130.266216 
L 156.662385 129.217721 
L 156.840933 129.217721 
L 156.946688 125.547987 
L 157.182892 125.547987 
L 157.182892 125.023739 
L 157.690461 125.023739 
L 157.690461 124.499491 
L 157.854051 124.499491 
L 157.926004 122.4025 
L 158.142362 122.4025 
L 158.244983 120.30551 
L 158.290396 120.30551 
L 158.290396 119.781262 
L 158.43267 119.781262 
L 158.529107 117.684271 
L 158.698241 117.684271 
L 158.698241 117.160023 
L 158.998991 117.160023 
L 158.998991 115.58728 
L 159.126909 115.58728 
L 159.126909 115.063032 
L 159.245304 115.063032 
L 159.335169 114.014537 
L 159.36715 114.014537 
L 159.452144 112.966042 
L 159.507166 112.966042 
L 159.507166 112.441794 
L 159.916378 112.441794 
L 159.916378 111.917546 
L 160.168295 111.917546 
L 160.168295 111.393298 
L 160.310033 111.393298 
L 160.310033 110.869051 
L 160.460611 110.869051 
L 160.568216 109.820555 
L 160.594021 109.820555 
L 160.647492 108.247812 
L 160.777505 108.247812 
L 160.853871 106.675069 
L 160.962935 106.675069 
L 161.017209 105.626573 
L 161.15215 105.626573 
L 161.177094 104.578078 
L 161.278418 104.578078 
L 161.379148 102.481087 
L 161.411333 102.481087 
L 161.411333 101.432592 
L 161.541353 101.432592 
L 161.541353 100.908344 
L 161.718772 100.908344 
L 161.754038 98.811353 
L 162.022639 98.811353 
L 162.115486 96.714362 
L 162.177107 96.714362 
L 162.206029 95.665867 
L 162.319438 95.665867 
L 162.349913 94.093124 
L 162.735998 94.093124 
L 162.735998 93.044628 
L 162.882483 93.044628 
L 162.982904 90.42339 
L 163.348434 90.42339 
L 163.420953 88.850646 
L 163.620069 88.850646 
L 163.659948 86.753656 
L 163.742736 86.753656 
L 163.807035 85.70516 
L 163.871094 85.70516 
L 163.972444 82.035426 
L 163.98222 82.035426 
L 164.089396 80.986931 
L 164.237687 80.986931 
L 164.237687 80.462683 
L 164.411741 80.462683 
L 164.517861 78.365692 
L 164.610771 78.365692 
L 164.618622 76.792949 
L 164.757769 76.792949 
L 164.757769 76.268701 
L 164.869519 76.268701 
L 164.934373 74.17171 
L 164.991305 74.17171 
L 165.023534 72.598967 
L 165.230806 72.598967 
L 165.250488 70.501976 
L 165.534128 70.501976 
L 165.537105 69.453481 
L 165.78972 69.453481 
L 165.802914 67.880738 
L 165.951736 67.880738 
L 165.951736 66.832242 
L 166.1108 66.832242 
L 166.202674 63.162508 
L 166.244144 63.162508 
L 166.244144 62.638261 
L 166.363702 62.638261 
L 166.401955 61.589765 
L 166.660405 61.589765 
L 166.670162 58.444279 
L 166.7785 58.444279 
L 166.82413 56.871536 
L 167.312872 56.871536 
L 167.312872 56.347288 
L 167.457227 56.347288 
L 167.457227 55.82304 
L 167.633349 55.82304 
L 167.659678 54.774545 
L 167.752823 54.774545 
L 167.793335 52.677554 
L 167.982857 52.677554 
L 168.092242 47.959324 
L 168.110192 47.959324 
L 168.163929 46.386581 
L 168.234047 46.386581 
L 168.332998 43.765343 
L 168.39487 43.765343 
L 168.452753 42.716847 
L 168.601594 42.716847 
L 168.601594 42.192599 
L 168.714552 42.192599 
L 168.714552 40.095609 
L 168.932159 40.095609 
L 168.985829 37.47437 
L 169.27207 37.47437 
L 169.280452 35.901627 
L 169.580707 35.901627 
L 169.604221 34.853131 
L 169.759774 34.853131 
L 169.845717 32.231893 
L 169.880437 32.231893 
L 169.891995 31.183397 
L 170.631495 31.183397 
L 170.691157 30.134902 
L 170.899451 30.134902 
L 170.962536 28.037911 
L 171.45062 28.037911 
L 171.45062 27.513663 
L 333.429677 27.513663 
L 333.429677 27.513663 
" style="fill:none;stroke:#000080;stroke-linecap:square;stroke-width:1.5;"/>
   </g>
   <g id="line2d_30">
    <defs>
     <path d="M 0 6 
C 1.591219 6 3.117479 5.367802 4.242641 4.242641 
C 5.367802 3.117479 6 1.591219 6 0 
C 6 -1.591219 5.367802 -3.117479 4.242641 -4.242641 
C 3.117479 -5.367802 1.591219 -6 0 -6 
C -1.591219 -6 -3.117479 -5.367802 -4.242641 -4.242641 
C -5.367802 -3.117479 -6 -1.591219 -6 0 
C -6 1.591219 -5.367802 3.117479 -4.242641 4.242641 
C -3.117479 5.367802 -1.591219 6 0 6 
z
" id="mf8eac976af" style="stroke:#000080;stroke-width:1.5;"/>
    </defs>
    <g>
     <use style="fill-opacity:0;stroke:#000080;stroke-width:1.5;" x="146.672792" xlink:href="#mf8eac976af" y="186.360722"/>
     <use style="fill-opacity:0;stroke:#000080;stroke-width:1.5;" x="171.45062" xlink:href="#mf8eac976af" y="28.037911"/>
     <use style="fill-opacity:0;stroke:#000080;stroke-width:1.5;" x="171.45062" xlink:href="#mf8eac976af" y="27.513663"/>
     <use style="fill-opacity:0;stroke:#000080;stroke-width:1.5;" x="171.45062" xlink:href="#mf8eac976af" y="27.513663"/>
     <use style="fill-opacity:0;stroke:#000080;stroke-width:1.5;" x="333.429677" xlink:href="#mf8eac976af" y="27.513663"/>
    </g>
   </g>
   <g id="line2d_31">
    <path style="fill:none;stroke:#000080;stroke-linecap:square;stroke-width:1.5;"/>
    <g/>
   </g>
   <g id="line2d_32">
    <defs>
     <path d="M 0 1.5 
C 0.397805 1.5 0.77937 1.341951 1.06066 1.06066 
C 1.341951 0.77937 1.5 0.397805 1.5 0 
C 1.5 -0.397805 1.341951 -0.77937 1.06066 -1.06066 
C 0.77937 -1.341951 0.397805 -1.5 0 -1.5 
C -0.397805 -1.5 -0.77937 -1.341951 -1.06066 -1.06066 
C -1.341951 -0.77937 -1.5 -0.397805 -1.5 0 
C -1.5 0.397805 -1.341951 0.77937 -1.06066 1.06066 
C -0.77937 1.341951 -0.397805 1.5 0 1.5 
z
" id="m052a8db4bd" style="stroke:#ff00ff;"/>
    </defs>
    <g>
     <use style="fill:#ff00ff;stroke:#ff00ff;" x="320.619413" xlink:href="#m052a8db4bd" y="106.150821"/>
     <use style="fill:#ff00ff;stroke:#ff00ff;" x="320.619413" xlink:href="#m052a8db4bd" y="106.150821"/>
    </g>
   </g>
   <g id="line2d_33">
    <path d="M 49.983455 294.88 
L 49.983455 294.355752 
L 76.398601 294.355752 
L 76.398601 293.831505 
L 92.633226 293.831505 
L 92.633226 293.307257 
L 100.381449 293.307257 
L 100.381449 292.783009 
L 107.048212 292.783009 
L 107.048212 292.258761 
L 111.082375 292.258761 
L 111.082375 291.734514 
L 115.854718 291.734514 
L 115.854718 290.686018 
L 132.94546 290.686018 
L 132.94546 290.161771 
L 142.718539 290.161771 
L 142.718539 289.637523 
L 157.650496 289.637523 
L 157.650496 288.589027 
L 158.039126 288.589027 
L 158.039126 288.06478 
L 158.201729 288.06478 
L 158.201729 287.540532 
L 158.620557 287.540532 
L 158.620557 287.016284 
L 158.91391 287.016284 
L 158.916097 285.967789 
L 159.673276 285.967789 
L 159.673276 285.443541 
L 161.685296 285.443541 
L 161.685296 284.919293 
L 162.287112 284.919293 
L 162.287112 284.395046 
L 162.453482 284.395046 
L 162.453482 283.870798 
L 166.674341 283.870798 
L 166.674341 283.34655 
L 169.251696 283.34655 
L 169.251696 282.822302 
L 169.389054 282.822302 
L 169.389054 281.773807 
L 169.550091 281.773807 
L 169.550091 281.249559 
L 171.04161 281.249559 
L 171.04161 280.201064 
L 171.266008 280.201064 
L 171.266008 279.676816 
L 172.373117 279.676816 
L 172.373117 278.628321 
L 173.661918 278.628321 
L 173.661918 278.104073 
L 176.140707 278.104073 
L 176.140707 277.579825 
L 176.383258 277.579825 
L 176.383258 277.055578 
L 176.793477 277.055578 
L 176.854483 276.007082 
L 176.908359 276.007082 
L 176.908359 274.958587 
L 177.173723 274.958587 
L 177.173723 274.434339 
L 178.454361 274.434339 
L 178.454361 273.910091 
L 181.202964 273.910091 
L 181.229286 272.337348 
L 181.317532 272.337348 
L 181.317532 271.8131 
L 181.586612 271.8131 
L 181.587198 270.240357 
L 182.023651 270.240357 
L 182.023651 269.191862 
L 183.163755 269.191862 
L 183.163755 268.667614 
L 185.106538 268.667614 
L 185.106538 268.143366 
L 185.262815 268.143366 
L 185.262815 267.619119 
L 185.817881 267.619119 
L 185.855384 264.99788 
L 187.462757 264.99788 
L 187.462757 264.473632 
L 187.723743 264.473632 
L 187.723743 263.425137 
L 188.11716 263.425137 
L 188.11716 262.376641 
L 188.240095 262.376641 
L 188.240095 261.852394 
L 188.908242 261.852394 
L 188.908242 260.279651 
L 189.37397 260.279651 
L 189.37397 259.755403 
L 189.924705 259.755403 
L 189.924705 258.706907 
L 190.601794 258.706907 
L 190.663397 257.134164 
L 191.217822 257.134164 
L 191.217822 256.609917 
L 191.597944 256.609917 
L 191.597944 256.085669 
L 192.86361 256.085669 
L 192.903387 253.988678 
L 193.275122 253.988678 
L 193.281057 252.415935 
L 193.586023 252.415935 
L 193.586023 251.891687 
L 194.888836 251.891687 
L 194.975632 249.794696 
L 195.009477 249.794696 
L 195.009477 249.270448 
L 195.270205 249.270448 
L 195.270205 248.221953 
L 195.531466 248.221953 
L 195.531466 247.697705 
L 196.249114 247.697705 
L 196.249114 247.173458 
L 196.702279 247.173458 
L 196.805572 245.076467 
L 197.04659 245.076467 
L 197.04659 244.552219 
L 198.280215 244.552219 
L 198.340685 242.979476 
L 198.409093 242.979476 
L 198.409093 242.455228 
L 198.817153 242.455228 
L 198.817153 241.93098 
L 199.038112 241.93098 
L 199.038112 241.406733 
L 199.764434 241.406733 
L 199.860242 238.261246 
L 199.915616 238.261246 
L 200.01741 234.591512 
L 200.298321 234.591512 
L 200.298321 233.543017 
L 200.504866 233.543017 
L 200.504866 233.018769 
L 202.014408 233.018769 
L 202.014408 231.970274 
L 202.500061 231.970274 
L 202.604613 229.349035 
L 202.672818 229.349035 
L 202.672818 228.30054 
L 202.872256 228.30054 
L 202.872256 227.252044 
L 203.275949 227.252044 
L 203.275949 226.727797 
L 203.678333 226.727797 
L 203.717686 225.679301 
L 203.845971 225.679301 
L 203.845971 225.155053 
L 204.207583 225.155053 
L 204.207583 224.630806 
L 204.366896 224.630806 
L 204.366896 224.106558 
L 204.607127 224.106558 
L 204.607127 223.58231 
L 204.791698 223.58231 
L 204.893674 220.961072 
L 205.99369 220.961072 
L 206.074704 219.388328 
L 206.390291 219.388328 
L 206.390291 218.864081 
L 206.851323 218.864081 
L 206.910814 213.621604 
L 207.173492 213.621604 
L 207.258237 212.573108 
L 208.634956 212.573108 
L 208.721404 211.524613 
L 208.876356 211.524613 
L 208.876356 211.000365 
L 209.577652 211.000365 
L 209.644034 209.427622 
L 210.37705 209.427622 
L 210.463063 207.330631 
L 210.705949 207.330631 
L 210.705949 206.806383 
L 211.044641 206.806383 
L 211.117501 204.709392 
L 211.255205 204.709392 
L 211.261466 203.136649 
L 211.808908 203.136649 
L 211.808908 202.088154 
L 212.042015 202.088154 
L 212.129242 201.039658 
L 212.491581 201.039658 
L 212.552575 197.894172 
L 213.178466 197.894172 
L 213.274431 195.797181 
L 213.517749 195.797181 
L 213.517749 195.272933 
L 213.763719 195.272933 
L 213.78779 194.224438 
L 214.235088 194.224438 
L 214.251495 192.127447 
L 214.476623 192.127447 
L 214.476623 191.603199 
L 214.677383 191.603199 
L 214.677383 191.078952 
L 215.021767 191.078952 
L 215.115098 188.457713 
L 215.476415 188.457713 
L 215.476415 187.933465 
L 215.732897 187.933465 
L 215.841578 185.836474 
L 215.901519 185.836474 
L 215.901519 185.312227 
L 216.747647 185.312227 
L 216.819179 183.215236 
L 216.897184 183.215236 
L 216.935641 182.16674 
L 217.268896 182.16674 
L 217.280151 180.593997 
L 217.795668 180.593997 
L 217.880745 179.021254 
L 218.312125 179.021254 
L 218.326317 176.924263 
L 218.424305 176.924263 
L 218.424305 175.875768 
L 218.759425 175.875768 
L 218.775681 174.303025 
L 218.99181 174.303025 
L 219.019882 172.730281 
L 219.481763 172.730281 
L 219.481763 171.681786 
L 220.097813 171.681786 
L 220.097813 170.633291 
L 220.232573 170.633291 
L 220.232573 170.109043 
L 220.560157 170.109043 
L 220.56599 168.5363 
L 220.96766 168.5363 
L 220.96766 168.012052 
L 221.143043 168.012052 
L 221.143043 167.487804 
L 221.392334 167.487804 
L 221.392334 166.963557 
L 221.817571 166.963557 
L 221.817571 166.439309 
L 222.225049 166.439309 
L 222.225049 164.866566 
L 222.638618 164.866566 
L 222.638618 164.342318 
L 222.966446 164.342318 
L 223.000233 163.293823 
L 223.700266 163.293823 
L 223.700266 162.245327 
L 224.067887 162.245327 
L 224.067887 161.721079 
L 224.390205 161.721079 
L 224.494382 160.148336 
L 224.664084 160.148336 
L 224.664084 159.624089 
L 225.353884 159.624089 
L 225.353884 159.099841 
L 226.155237 159.099841 
L 226.155237 158.051345 
L 226.705797 158.051345 
L 226.705797 157.527098 
L 228.236159 157.527098 
L 228.236159 157.00285 
L 230.126385 157.00285 
L 230.126385 156.478602 
L 230.432492 156.478602 
L 230.432492 155.430107 
L 255.857524 155.430107 
L 255.857524 154.381611 
L 256.001783 154.381611 
L 256.072517 153.333116 
L 256.274955 153.333116 
L 256.381199 151.760373 
L 256.446038 151.760373 
L 256.520032 150.711877 
L 256.651592 150.711877 
L 256.75099 148.614886 
L 256.846144 148.614886 
L 256.907971 147.566391 
L 256.961813 147.566391 
L 256.961813 147.042143 
L 257.123417 147.042143 
L 257.123417 146.517896 
L 257.267 146.517896 
L 257.378096 145.4694 
L 257.451614 145.4694 
L 257.451614 144.945152 
L 257.645169 144.945152 
L 257.71647 143.372409 
L 267.189786 143.372409 
L 267.202035 142.323914 
L 267.452947 142.323914 
L 267.483645 140.226923 
L 267.600873 140.226923 
L 267.653888 138.129932 
L 267.731892 138.129932 
L 267.832623 137.081437 
L 269.704967 137.081437 
L 269.704967 136.032941 
L 274.020186 136.032941 
L 274.111717 133.93595 
L 274.233698 133.93595 
L 274.233698 133.411703 
L 274.361514 133.411703 
L 274.437193 130.790464 
L 278.7618 130.790464 
L 278.816629 129.741969 
L 278.877794 129.741969 
L 278.877794 129.217721 
L 279.06479 129.217721 
L 279.06479 128.693473 
L 282.4077 128.693473 
L 282.4077 128.169225 
L 282.582308 128.169225 
L 282.582308 127.644978 
L 282.728752 127.644978 
L 282.743265 126.596482 
L 285.438174 126.596482 
L 285.438174 125.547987 
L 285.730242 125.547987 
L 285.730242 125.023739 
L 286.310985 125.023739 
L 286.310985 124.499491 
L 288.191455 124.499491 
L 288.191455 123.975244 
L 288.786825 123.975244 
L 288.786825 123.450996 
L 290.45548 123.450996 
L 290.518336 122.4025 
L 290.950792 122.4025 
L 290.950792 121.354005 
L 292.301592 121.354005 
L 292.301592 120.829757 
L 294.071292 120.829757 
L 294.132012 118.732766 
L 294.234337 118.732766 
L 294.234337 118.208519 
L 295.751831 118.208519 
L 295.847145 117.160023 
L 297.218179 117.160023 
L 297.318912 114.538785 
L 298.629781 114.538785 
L 298.663143 112.966042 
L 299.92061 112.966042 
L 299.92061 112.441794 
L 300.172316 112.441794 
L 300.172316 111.917546 
L 301.082409 111.917546 
L 301.082409 111.393298 
L 303.186672 111.393298 
L 303.186672 110.869051 
L 305.076078 110.869051 
L 305.076078 110.344803 
L 307.582955 110.344803 
L 307.582955 109.820555 
L 308.287615 109.820555 
L 308.287615 109.296308 
L 309.032488 109.296308 
L 309.032488 108.77206 
L 312.263574 108.77206 
L 312.263574 108.247812 
L 313.427807 108.247812 
L 313.427807 107.723564 
L 313.545484 107.723564 
L 313.545484 107.199317 
L 317.874042 107.199317 
L 317.874042 106.675069 
L 320.619413 106.675069 
L 320.619413 106.150821 
L 333.429677 106.150821 
L 333.429677 106.150821 
" style="fill:none;stroke:#ff00ff;stroke-linecap:square;stroke-width:1.5;"/>
   </g>
   <g id="line2d_34">
    <defs>
     <path d="M -0 8.485281 
L 5.091169 0 
L 0 -8.485281 
L -5.091169 -0 
z
" id="m2297e226d8" style="stroke:#ff00ff;stroke-linejoin:miter;stroke-width:1.5;"/>
    </defs>
    <g>
     <use style="fill-opacity:0;stroke:#ff00ff;stroke-linejoin:miter;stroke-width:1.5;" x="115.854718" xlink:href="#m2297e226d8" y="291.734514"/>
     <use style="fill-opacity:0;stroke:#ff00ff;stroke-linejoin:miter;stroke-width:1.5;" x="193.275122" xlink:href="#m2297e226d8" y="253.988678"/>
     <use style="fill-opacity:0;stroke:#ff00ff;stroke-linejoin:miter;stroke-width:1.5;" x="215.901519" xlink:href="#m2297e226d8" y="185.312227"/>
     <use style="fill-opacity:0;stroke:#ff00ff;stroke-linejoin:miter;stroke-width:1.5;" x="294.132012" xlink:href="#m2297e226d8" y="119.781262"/>
     <use style="fill-opacity:0;stroke:#ff00ff;stroke-linejoin:miter;stroke-width:1.5;" x="320.619413" xlink:href="#m2297e226d8" y="106.150821"/>
     <use style="fill-opacity:0;stroke:#ff00ff;stroke-linejoin:miter;stroke-width:1.5;" x="333.429677" xlink:href="#m2297e226d8" y="106.150821"/>
    </g>
   </g>
   <g id="line2d_35">
    <path style="fill:none;stroke:#ff00ff;stroke-linecap:square;stroke-width:1.5;"/>
    <g/>
   </g>
   <g id="line2d_36">
    <path clip-path="url(#p70f7836016)" d="M 254.210174 155.430107 
" style="fill:none;stroke:#ff00ff;stroke-linecap:square;stroke-width:1.5;"/>
    <defs>
     <path d="M -12 12 
L 12 -12 
M -12 -12 
L 12 12 
" id="m12d0ad7b65" style="stroke:#ff00ff;stroke-width:3;"/>
    </defs>
    <g clip-path="url(#p70f7836016)">
     <use style="fill:#ff00ff;stroke:#ff00ff;stroke-width:3;" x="254.210174" xlink:href="#m12d0ad7b65" y="155.430107"/>
    </g>
   </g>
   <g id="line2d_37">
    <defs>
     <path d="M 0 1.5 
C 0.397805 1.5 0.77937 1.341951 1.06066 1.06066 
C 1.341951 0.77937 1.5 0.397805 1.5 0 
C 1.5 -0.397805 1.341951 -0.77937 1.06066 -1.06066 
C 0.77937 -1.341951 0.397805 -1.5 0 -1.5 
C -0.397805 -1.5 -0.77937 -1.341951 -1.06066 -1.06066 
C -1.341951 -0.77937 -1.5 -0.397805 -1.5 0 
C -1.5 0.397805 -1.341951 0.77937 -1.06066 1.06066 
C -0.77937 1.341951 -0.397805 1.5 0 1.5 
z
" id="m71821f0172" style="stroke:#ffa500;"/>
    </defs>
    <g>
     <use style="fill:#ffa500;stroke:#ffa500;" x="121.343384" xlink:href="#m71821f0172" y="27.513663"/>
     <use style="fill:#ffa500;stroke:#ffa500;" x="121.343384" xlink:href="#m71821f0172" y="27.513663"/>
    </g>
   </g>
   <g id="line2d_38">
    <path d="M 81.215276 294.88 
L 81.215276 294.355752 
L 83.107827 294.355752 
L 83.107827 292.783009 
L 83.462579 292.783009 
L 83.462579 291.734514 
L 84.812673 291.734514 
L 84.812673 290.686018 
L 84.974222 290.686018 
L 84.974222 290.161771 
L 85.449963 290.161771 
L 85.449963 289.637523 
L 85.605664 289.637523 
L 85.605664 289.113275 
L 85.759969 289.113275 
L 85.759969 288.589027 
L 85.912902 288.589027 
L 85.912902 288.06478 
L 86.214749 288.06478 
L 86.214749 287.016284 
L 86.657818 287.016284 
L 86.657818 286.492036 
L 86.803007 286.492036 
L 86.803007 284.919293 
L 87.231366 284.919293 
L 87.231366 284.395046 
L 87.511126 284.395046 
L 87.511126 283.870798 
L 87.78641 283.870798 
L 87.78641 283.34655 
L 87.922418 283.34655 
L 87.922418 282.298055 
L 88.455945 282.298055 
L 88.455945 280.725312 
L 89.100397 280.725312 
L 89.100397 280.201064 
L 89.475791 280.201064 
L 89.475791 279.676816 
L 89.721579 279.676816 
L 89.721579 279.152568 
L 89.843168 279.152568 
L 89.843168 277.055578 
L 89.963905 277.055578 
L 89.963905 276.007082 
L 90.0838 276.007082 
L 90.0838 272.337348 
L 90.555195 272.337348 
L 90.555195 271.8131 
L 90.671054 271.8131 
L 90.671054 270.240357 
L 90.900455 270.240357 
L 90.900455 269.191862 
L 91.014019 269.191862 
L 91.014019 268.667614 
L 91.126838 268.667614 
L 91.126838 268.143366 
L 91.238922 268.143366 
L 91.238922 267.094871 
L 91.460924 267.094871 
L 91.570859 265.522128 
L 91.788645 265.522128 
L 91.896513 263.425137 
L 92.110241 263.425137 
L 92.110241 262.900889 
L 92.425936 262.900889 
L 92.425936 262.376641 
L 93.438278 262.376641 
L 93.438278 260.279651 
L 94.018273 260.279651 
L 94.018273 259.755403 
L 94.39435 259.755403 
L 94.39435 258.706907 
L 94.579351 258.706907 
L 94.579351 257.658412 
L 95.033331 257.658412 
L 95.033331 256.609917 
L 95.300079 256.609917 
L 95.300079 255.561421 
L 95.649428 255.561421 
L 95.649428 255.037173 
L 96.07637 255.037173 
L 96.07637 253.46443 
L 96.244223 253.46443 
L 96.244223 251.891687 
L 96.65683 251.891687 
L 96.738177 250.318944 
L 96.899726 250.318944 
L 96.899726 249.794696 
L 97.375467 249.794696 
L 97.375467 249.270448 
L 97.608494 249.270448 
L 97.685473 247.697705 
L 97.838406 247.697705 
L 97.914366 246.124962 
L 98.140254 246.124962 
L 98.214895 244.552219 
L 98.510265 244.552219 
L 98.510265 242.979476 
L 98.944024 242.979476 
L 98.944024 241.93098 
L 99.156871 241.93098 
L 99.156871 241.406733 
L 99.367116 241.406733 
L 99.436631 239.309742 
L 99.505866 239.309742 
L 99.505866 238.261246 
L 99.643505 238.261246 
L 99.711914 235.640008 
L 99.847922 235.640008 
L 99.847922 234.591512 
L 100.381449 234.591512 
L 100.381449 233.018769 
L 100.577332 233.018769 
L 100.642134 230.397531 
L 101.025901 230.397531 
L 101.025901 229.349035 
L 101.151945 229.349035 
L 101.151945 228.30054 
L 101.339295 228.30054 
L 101.339295 227.776292 
L 101.524628 227.776292 
L 101.524628 227.252044 
L 101.707985 227.252044 
L 101.707985 226.203549 
L 101.889409 226.203549 
L 101.949461 224.106558 
L 102.128369 224.106558 
L 102.187595 221.485319 
L 102.422477 221.485319 
L 102.4807 218.864081 
L 102.596558 218.864081 
L 102.596558 218.339833 
L 102.711641 218.339833 
L 102.768895 214.145851 
L 102.939523 214.145851 
L 102.939523 213.621604 
L 103.331196 213.621604 
L 103.386428 209.427622 
L 103.551069 209.427622 
L 103.605601 208.379126 
L 103.71415 208.379126 
L 103.768168 207.330631 
L 104.088765 207.330631 
L 104.088765 206.806383 
L 104.246851 206.806383 
L 104.246851 205.757888 
L 104.403497 205.757888 
L 104.403497 205.23364 
L 104.712575 205.23364 
L 104.712575 204.709392 
L 104.865056 204.709392 
L 104.865056 204.185145 
L 105.016198 204.185145 
L 105.066285 200.515411 
L 105.166024 200.515411 
L 105.215677 198.942667 
L 105.363783 198.942667 
L 105.461817 197.369924 
L 105.896184 197.369924 
L 105.943777 194.224438 
L 106.226603 194.224438 
L 106.273292 193.175943 
L 106.366292 193.175943 
L 106.458791 187.409218 
L 106.687887 187.409218 
L 106.733343 186.360722 
L 107.003582 186.360722 
L 107.048212 184.263731 
L 107.225583 184.263731 
L 107.313588 180.593997 
L 107.444756 180.593997 
L 107.53165 178.497006 
L 107.959654 178.497006 
L 108.043991 176.924263 
L 108.127918 176.924263 
L 108.169728 174.827272 
L 108.704211 174.827272 
L 108.704211 173.778777 
L 108.865382 173.778777 
L 108.945405 170.109043 
L 108.985277 170.109043 
L 109.025057 166.963557 
L 109.104342 166.963557 
L 109.104342 165.915061 
L 109.222589 165.915061 
L 109.261825 163.81807 
L 109.533998 163.81807 
L 109.572531 162.245327 
L 109.649338 162.245327 
L 109.649338 161.721079 
L 109.83987 161.721079 
L 109.877725 158.575593 
L 110.177599 158.575593 
L 110.251758 157.527098 
L 110.325599 157.527098 
L 110.399124 152.808868 
L 110.94077 152.808868 
L 110.94077 151.760373 
L 111.222824 151.760373 
L 111.327413 148.090639 
L 111.43137 148.090639 
L 111.534703 144.420905 
L 111.671522 144.420905 
L 111.773426 141.799666 
L 111.841029 141.799666 
L 111.841029 140.226923 
L 112.008883 140.226923 
L 112.075568 137.081437 
L 112.306953 137.081437 
L 112.405174 136.032941 
L 112.437789 136.032941 
L 112.437789 134.984446 
L 112.760592 134.984446 
L 112.856263 133.93595 
L 113.17138 133.93595 
L 113.17138 131.314712 
L 113.295828 131.314712 
L 113.388576 130.266216 
L 113.419382 130.266216 
L 113.480828 128.169225 
L 113.603066 128.169225 
L 113.603066 127.644978 
L 113.754651 127.644978 
L 113.754651 126.596482 
L 113.904913 126.596482 
L 113.964652 120.829757 
L 114.230941 120.829757 
L 114.289561 118.208519 
L 114.347981 118.208519 
L 114.377117 114.538785 
L 114.522062 114.538785 
L 114.522062 112.441794 
L 114.637146 112.441794 
L 114.722956 111.393298 
L 114.893302 111.393298 
L 114.977847 107.723564 
L 115.145701 107.723564 
L 115.173518 103.005335 
L 115.366988 103.005335 
L 115.476574 99.335601 
L 115.531106 99.335601 
L 115.639654 96.190115 
L 115.827982 96.190115 
L 115.881413 93.568876 
L 115.96125 93.568876 
L 115.96125 93.044628 
L 116.119821 93.044628 
L 116.198562 89.899142 
L 116.250857 89.899142 
L 116.329002 87.277903 
L 116.458459 87.277903 
L 116.561329 83.608169 
L 116.612534 83.608169 
L 116.663587 81.511178 
L 116.765241 81.511178 
L 116.815843 80.462683 
L 116.891469 80.462683 
L 116.941702 78.365692 
L 117.041731 78.365692 
L 117.091528 74.695958 
L 117.190692 74.695958 
L 117.264691 71.026224 
L 117.436129 71.026224 
L 117.484799 69.977729 
L 117.654068 69.977729 
L 117.726106 65.783747 
L 117.773963 65.783747 
L 117.797843 62.638261 
L 117.987691 62.638261 
L 118.081836 60.017022 
L 118.128716 60.017022 
L 118.128716 59.492774 
L 118.314968 59.492774 
L 118.384296 56.871536 
L 118.4763 56.871536 
L 118.544983 54.774545 
L 118.613392 54.774545 
L 118.704183 51.104811 
L 118.794497 51.104811 
L 118.88434 49.532068 
L 118.929086 49.532068 
L 119.018231 47.435077 
L 119.040445 47.435077 
L 119.151088 40.095609 
L 119.304801 40.095609 
L 119.370261 37.47437 
L 119.435472 37.47437 
L 119.435472 36.950122 
L 119.586677 36.950122 
L 119.586677 36.425875 
L 119.927379 36.425875 
L 119.927379 35.377379 
L 120.116099 35.377379 
L 120.136941 34.328884 
L 120.302772 34.328884 
L 120.385092 33.280388 
L 120.54856 33.280388 
L 120.54856 32.231893 
L 120.690332 32.231893 
L 120.730624 29.610654 
L 120.870909 29.610654 
L 120.870909 29.086407 
L 121.148094 29.086407 
L 121.148094 28.562159 
L 121.265534 28.562159 
L 121.343384 27.513663 
L 333.429677 27.513663 
L 333.429677 27.513663 
" style="fill:none;stroke:#ffa500;stroke-linecap:square;stroke-width:1.5;"/>
   </g>
   <g id="line2d_39">
    <defs>
     <path d="M 0 -6 
L -1.347084 -1.854102 
L -5.706339 -1.854102 
L -2.179628 0.708204 
L -3.526712 4.854102 
L -0 2.291796 
L 3.526712 4.854102 
L 2.179628 0.708204 
L 5.706339 -1.854102 
L 1.347084 -1.854102 
z
" id="m85c37cba72" style="stroke:#ffa500;stroke-linejoin:bevel;stroke-width:1.5;"/>
    </defs>
    <g>
     <use style="fill-opacity:0;stroke:#ffa500;stroke-linejoin:bevel;stroke-width:1.5;" x="107.53165" xlink:href="#m85c37cba72" y="179.545502"/>
     <use style="fill-opacity:0;stroke:#ffa500;stroke-linejoin:bevel;stroke-width:1.5;" x="121.343384" xlink:href="#m85c37cba72" y="28.037911"/>
     <use style="fill-opacity:0;stroke:#ffa500;stroke-linejoin:bevel;stroke-width:1.5;" x="121.343384" xlink:href="#m85c37cba72" y="27.513663"/>
     <use style="fill-opacity:0;stroke:#ffa500;stroke-linejoin:bevel;stroke-width:1.5;" x="121.343384" xlink:href="#m85c37cba72" y="27.513663"/>
     <use style="fill-opacity:0;stroke:#ffa500;stroke-linejoin:bevel;stroke-width:1.5;" x="333.429677" xlink:href="#m85c37cba72" y="27.513663"/>
    </g>
   </g>
   <g id="line2d_40">
    <path style="fill:none;stroke:#ffa500;stroke-linecap:square;stroke-width:1.5;"/>
    <g/>
   </g>
   <g id="line2d_41">
    <defs>
     <path d="M 0 1.5 
C 0.397805 1.5 0.77937 1.341951 1.06066 1.06066 
C 1.341951 0.77937 1.5 0.397805 1.5 0 
C 1.5 -0.397805 1.341951 -0.77937 1.06066 -1.06066 
C 0.77937 -1.341951 0.397805 -1.5 0 -1.5 
C -0.397805 -1.5 -0.77937 -1.341951 -1.06066 -1.06066 
C -1.341951 -0.77937 -1.5 -0.397805 -1.5 0 
C -1.5 0.397805 -1.341951 0.77937 -1.06066 1.06066 
C -0.77937 1.341951 -0.397805 1.5 0 1.5 
z
" id="m59e2a912f6" style="stroke:#6495ed;"/>
    </defs>
    <g>
     <use style="fill:#6495ed;stroke:#6495ed;" x="99.156871" xlink:href="#m59e2a912f6" y="289.637523"/>
     <use style="fill:#6495ed;stroke:#6495ed;" x="99.156871" xlink:href="#m59e2a912f6" y="289.637523"/>
    </g>
   </g>
   <g id="line2d_42">
    <path d="M 4.578827 294.88 
L 4.578827 293.307257 
L 80.395842 293.307257 
L 80.395842 291.734514 
L 92.216118 291.734514 
L 92.216118 290.161771 
L 99.156871 290.161771 
L 99.156871 289.637523 
L 333.429677 289.637523 
" style="fill:none;stroke:#6495ed;stroke-linecap:square;stroke-width:1.5;"/>
   </g>
   <g id="line2d_43">
    <defs>
     <path d="M -0 6 
L 6 -6 
L -6 -6 
z
" id="m66323e9702" style="stroke:#6495ed;stroke-linejoin:miter;stroke-width:1.5;"/>
    </defs>
    <g>
     <use style="fill-opacity:0;stroke:#6495ed;stroke-linejoin:miter;stroke-width:1.5;" x="99.156871" xlink:href="#m66323e9702" y="290.161771"/>
     <use style="fill-opacity:0;stroke:#6495ed;stroke-linejoin:miter;stroke-width:1.5;" x="99.156871" xlink:href="#m66323e9702" y="290.161771"/>
     <use style="fill-opacity:0;stroke:#6495ed;stroke-linejoin:miter;stroke-width:1.5;" x="99.156871" xlink:href="#m66323e9702" y="289.637523"/>
     <use style="fill-opacity:0;stroke:#6495ed;stroke-linejoin:miter;stroke-width:1.5;" x="99.156871" xlink:href="#m66323e9702" y="289.637523"/>
     <use style="fill-opacity:0;stroke:#6495ed;stroke-linejoin:miter;stroke-width:1.5;" x="333.429677" xlink:href="#m66323e9702" y="289.637523"/>
    </g>
   </g>
   <g id="line2d_44">
    <path style="fill:none;stroke:#6495ed;stroke-linecap:square;stroke-width:1.5;"/>
    <g/>
   </g>
   <g id="line2d_45">
    <path clip-path="url(#p70f7836016)" d="M 80.184737 293.307257 
" style="fill:none;stroke:#6495ed;stroke-linecap:square;stroke-width:1.5;"/>
    <defs>
     <path d="M -12 12 
L 12 -12 
M -12 -12 
L 12 12 
" id="m4e4012f273" style="stroke:#6495ed;stroke-width:3;"/>
    </defs>
    <g clip-path="url(#p70f7836016)">
     <use style="fill:#6495ed;stroke:#6495ed;stroke-width:3;" x="80.184737" xlink:href="#m4e4012f273" y="293.307257"/>
    </g>
   </g>
   <g id="line2d_46">
    <path d="M 333.429677 289.637523 
L 363.933742 289.532673 
" style="fill:none;stroke:#6495ed;stroke-linecap:square;stroke-width:1.5;"/>
    <g>
     <use style="fill-opacity:0;stroke:#6495ed;stroke-linejoin:miter;stroke-width:1.5;" x="333.429677" xlink:href="#m66323e9702" y="289.637523"/>
     <use style="fill-opacity:0;stroke:#6495ed;stroke-linejoin:miter;stroke-width:1.5;" x="363.933742" xlink:href="#m66323e9702" y="289.532673"/>
    </g>
   </g>
   <g id="line2d_47">
    <path d="M 333.429677 106.150821 
L 363.933742 225.364752 
" style="fill:none;stroke:#ff00ff;stroke-linecap:square;stroke-width:1.5;"/>
    <g>
     <use style="fill-opacity:0;stroke:#ff00ff;stroke-linejoin:miter;stroke-width:1.5;" x="333.429677" xlink:href="#m2297e226d8" y="106.150821"/>
     <use style="fill-opacity:0;stroke:#ff00ff;stroke-linejoin:miter;stroke-width:1.5;" x="363.933742" xlink:href="#m2297e226d8" y="225.364752"/>
    </g>
   </g>
   <g id="line2d_48">
    <path d="M 333.429677 27.513663 
L 363.933742 161.196832 
" style="fill:none;stroke:#000080;stroke-linecap:square;stroke-width:1.5;"/>
    <g>
     <use style="fill-opacity:0;stroke:#000080;stroke-width:1.5;" x="333.429677" xlink:href="#mf8eac976af" y="27.513663"/>
     <use style="fill-opacity:0;stroke:#000080;stroke-width:1.5;" x="363.933742" xlink:href="#mf8eac976af" y="161.196832"/>
    </g>
   </g>
   <g id="line2d_49">
    <path d="M 333.429677 27.513663 
L 363.933742 97.028911 
" style="fill:none;stroke:#ffa500;stroke-linecap:square;stroke-width:1.5;"/>
    <g>
     <use style="fill-opacity:0;stroke:#ffa500;stroke-linejoin:bevel;stroke-width:1.5;" x="333.429677" xlink:href="#m85c37cba72" y="27.513663"/>
     <use style="fill-opacity:0;stroke:#ffa500;stroke-linejoin:bevel;stroke-width:1.5;" x="363.933742" xlink:href="#m85c37cba72" y="97.028911"/>
    </g>
   </g>
   <g id="line2d_50">
    <path d="M 333.429677 294.88 
L 333.429677 27.513663 
" style="fill:none;stroke:#000000;stroke-linecap:square;stroke-width:1.5;"/>
   </g>
   <g id="patch_3">
    <path d="M 56.12 294.88 
L 56.12 24.84 
" style="fill:none;stroke:#000000;stroke-linecap:square;stroke-linejoin:miter;stroke-width:0.8;"/>
   </g>
   <g id="patch_4">
    <path d="M 399.984 294.88 
L 399.984 24.84 
" style="fill:none;stroke:#000000;stroke-linecap:square;stroke-linejoin:miter;stroke-width:0.8;"/>
   </g>
   <g id="patch_5">
    <path d="M 56.12 294.88 
L 399.984 294.88 
" style="fill:none;stroke:#000000;stroke-linecap:square;stroke-linejoin:miter;stroke-width:0.8;"/>
   </g>
   <g id="patch_6">
    <path d="M 56.12 24.84 
L 399.984 24.84 
" style="fill:none;stroke:#000000;stroke-linecap:square;stroke-linejoin:miter;stroke-width:0.8;"/>
   </g>
   <g id="text_14">
    <!-- hybrid -->
    <defs>
     <path d="M 54.890625 33.015625 
L 54.890625 0 
L 45.90625 0 
L 45.90625 32.71875 
Q 45.90625 40.484375 42.875 44.328125 
Q 39.84375 48.1875 33.796875 48.1875 
Q 26.515625 48.1875 22.3125 43.546875 
Q 18.109375 38.921875 18.109375 30.90625 
L 18.109375 0 
L 9.078125 0 
L 9.078125 75.984375 
L 18.109375 75.984375 
L 18.109375 46.1875 
Q 21.34375 51.125 25.703125 53.5625 
Q 30.078125 56 35.796875 56 
Q 45.21875 56 50.046875 50.171875 
Q 54.890625 44.34375 54.890625 33.015625 
z
" id="DejaVuSans-68"/>
     <path d="M 32.171875 -5.078125 
Q 28.375 -14.84375 24.75 -17.8125 
Q 21.140625 -20.796875 15.09375 -20.796875 
L 7.90625 -20.796875 
L 7.90625 -13.28125 
L 13.1875 -13.28125 
Q 16.890625 -13.28125 18.9375 -11.515625 
Q 21 -9.765625 23.484375 -3.21875 
L 25.09375 0.875 
L 2.984375 54.6875 
L 12.5 54.6875 
L 29.59375 11.921875 
L 46.6875 54.6875 
L 56.203125 54.6875 
z
" id="DejaVuSans-79"/>
     <path d="M 48.6875 27.296875 
Q 48.6875 37.203125 44.609375 42.84375 
Q 40.53125 48.484375 33.40625 48.484375 
Q 26.265625 48.484375 22.1875 42.84375 
Q 18.109375 37.203125 18.109375 27.296875 
Q 18.109375 17.390625 22.1875 11.75 
Q 26.265625 6.109375 33.40625 6.109375 
Q 40.53125 6.109375 44.609375 11.75 
Q 48.6875 17.390625 48.6875 27.296875 
z
M 18.109375 46.390625 
Q 20.953125 51.265625 25.265625 53.625 
Q 29.59375 56 35.59375 56 
Q 45.5625 56 51.78125 48.09375 
Q 58.015625 40.1875 58.015625 27.296875 
Q 58.015625 14.40625 51.78125 6.484375 
Q 45.5625 -1.421875 35.59375 -1.421875 
Q 29.59375 -1.421875 25.265625 0.953125 
Q 20.953125 3.328125 18.109375 8.203125 
L 18.109375 0 
L 9.078125 0 
L 9.078125 75.984375 
L 18.109375 75.984375 
z
" id="DejaVuSans-62"/>
    </defs>
    <g transform="translate(369.479935 294.223611)scale(0.17 -0.17)">
     <use xlink:href="#DejaVuSans-68"/>
     <use x="63.378906" xlink:href="#DejaVuSans-79"/>
     <use x="122.558594" xlink:href="#DejaVuSans-62"/>
     <use x="186.035156" xlink:href="#DejaVuSans-72"/>
     <use x="227.148438" xlink:href="#DejaVuSans-69"/>
     <use x="254.931641" xlink:href="#DejaVuSans-64"/>
    </g>
   </g>
   <g id="text_15">
    <!-- GA -->
    <defs>
     <path d="M 59.515625 10.40625 
L 59.515625 29.984375 
L 43.40625 29.984375 
L 43.40625 38.09375 
L 69.28125 38.09375 
L 69.28125 6.78125 
Q 63.578125 2.734375 56.6875 0.65625 
Q 49.8125 -1.421875 42 -1.421875 
Q 24.90625 -1.421875 15.25 8.5625 
Q 5.609375 18.5625 5.609375 36.375 
Q 5.609375 54.25 15.25 64.234375 
Q 24.90625 74.21875 42 74.21875 
Q 49.125 74.21875 55.546875 72.453125 
Q 61.96875 70.703125 67.390625 67.28125 
L 67.390625 56.78125 
Q 61.921875 61.421875 55.765625 63.765625 
Q 49.609375 66.109375 42.828125 66.109375 
Q 29.4375 66.109375 22.71875 58.640625 
Q 16.015625 51.171875 16.015625 36.375 
Q 16.015625 21.625 22.71875 14.15625 
Q 29.4375 6.6875 42.828125 6.6875 
Q 48.046875 6.6875 52.140625 7.59375 
Q 56.25 8.5 59.515625 10.40625 
z
" id="DejaVuSans-47"/>
     <path d="M 34.1875 63.1875 
L 20.796875 26.90625 
L 47.609375 26.90625 
z
M 28.609375 72.90625 
L 39.796875 72.90625 
L 67.578125 0 
L 57.328125 0 
L 50.6875 18.703125 
L 17.828125 18.703125 
L 11.1875 0 
L 0.78125 0 
z
" id="DejaVuSans-41"/>
    </defs>
    <g transform="translate(369.479935 230.05569)scale(0.17 -0.17)">
     <use xlink:href="#DejaVuSans-47"/>
     <use x="77.490234" xlink:href="#DejaVuSans-41"/>
    </g>
   </g>
   <g id="text_16">
    <!-- DASA -->
    <defs>
     <path d="M 19.671875 64.796875 
L 19.671875 8.109375 
L 31.59375 8.109375 
Q 46.6875 8.109375 53.6875 14.9375 
Q 60.6875 21.78125 60.6875 36.53125 
Q 60.6875 51.171875 53.6875 57.984375 
Q 46.6875 64.796875 31.59375 64.796875 
z
M 9.8125 72.90625 
L 30.078125 72.90625 
Q 51.265625 72.90625 61.171875 64.09375 
Q 71.09375 55.28125 71.09375 36.53125 
Q 71.09375 17.671875 61.125 8.828125 
Q 51.171875 0 30.078125 0 
L 9.8125 0 
z
" id="DejaVuSans-44"/>
     <path d="M 53.515625 70.515625 
L 53.515625 60.890625 
Q 47.90625 63.578125 42.921875 64.890625 
Q 37.9375 66.21875 33.296875 66.21875 
Q 25.25 66.21875 20.875 63.09375 
Q 16.5 59.96875 16.5 54.203125 
Q 16.5 49.359375 19.40625 46.890625 
Q 22.3125 44.4375 30.421875 42.921875 
L 36.375 41.703125 
Q 47.40625 39.59375 52.65625 34.296875 
Q 57.90625 29 57.90625 20.125 
Q 57.90625 9.515625 50.796875 4.046875 
Q 43.703125 -1.421875 29.984375 -1.421875 
Q 24.8125 -1.421875 18.96875 -0.25 
Q 13.140625 0.921875 6.890625 3.21875 
L 6.890625 13.375 
Q 12.890625 10.015625 18.65625 8.296875 
Q 24.421875 6.59375 29.984375 6.59375 
Q 38.421875 6.59375 43.015625 9.90625 
Q 47.609375 13.234375 47.609375 19.390625 
Q 47.609375 24.75 44.3125 27.78125 
Q 41.015625 30.8125 33.5 32.328125 
L 27.484375 33.5 
Q 16.453125 35.6875 11.515625 40.375 
Q 6.59375 45.0625 6.59375 53.421875 
Q 6.59375 63.09375 13.40625 68.65625 
Q 20.21875 74.21875 32.171875 74.21875 
Q 37.3125 74.21875 42.625 73.28125 
Q 47.953125 72.359375 53.515625 70.515625 
z
" id="DejaVuSans-53"/>
    </defs>
    <g transform="translate(369.479935 165.887769)scale(0.17 -0.17)">
     <use xlink:href="#DejaVuSans-44"/>
     <use x="76.986328" xlink:href="#DejaVuSans-41"/>
     <use x="145.394531" xlink:href="#DejaVuSans-53"/>
     <use x="208.886719" xlink:href="#DejaVuSans-41"/>
    </g>
   </g>
   <g id="text_17">
    <!-- Rosenbroc -->
    <defs>
     <path d="M 44.390625 34.1875 
Q 47.5625 33.109375 50.5625 29.59375 
Q 53.5625 26.078125 56.59375 19.921875 
L 66.609375 0 
L 56 0 
L 46.6875 18.703125 
Q 43.0625 26.03125 39.671875 28.421875 
Q 36.28125 30.8125 30.421875 30.8125 
L 19.671875 30.8125 
L 19.671875 0 
L 9.8125 0 
L 9.8125 72.90625 
L 32.078125 72.90625 
Q 44.578125 72.90625 50.734375 67.671875 
Q 56.890625 62.453125 56.890625 51.90625 
Q 56.890625 45.015625 53.6875 40.46875 
Q 50.484375 35.9375 44.390625 34.1875 
z
M 19.671875 64.796875 
L 19.671875 38.921875 
L 32.078125 38.921875 
Q 39.203125 38.921875 42.84375 42.21875 
Q 46.484375 45.515625 46.484375 51.90625 
Q 46.484375 58.296875 42.84375 61.546875 
Q 39.203125 64.796875 32.078125 64.796875 
z
" id="DejaVuSans-52"/>
    </defs>
    <g transform="translate(369.479935 101.719848)scale(0.17 -0.17)">
     <use xlink:href="#DejaVuSans-52"/>
     <use x="69.419922" xlink:href="#DejaVuSans-6f"/>
     <use x="130.601562" xlink:href="#DejaVuSans-73"/>
     <use x="182.701172" xlink:href="#DejaVuSans-65"/>
     <use x="244.224609" xlink:href="#DejaVuSans-6e"/>
     <use x="307.603516" xlink:href="#DejaVuSans-62"/>
     <use x="371.080078" xlink:href="#DejaVuSans-72"/>
     <use x="412.162109" xlink:href="#DejaVuSans-6f"/>
     <use x="473.34375" xlink:href="#DejaVuSans-63"/>
    </g>
   </g>
   <g id="text_18">
    <!-- best 2009 -->
    <defs>
     <path d="M 10.984375 1.515625 
L 10.984375 10.5 
Q 14.703125 8.734375 18.5 7.8125 
Q 22.3125 6.890625 25.984375 6.890625 
Q 35.75 6.890625 40.890625 13.453125 
Q 46.046875 20.015625 46.78125 33.40625 
Q 43.953125 29.203125 39.59375 26.953125 
Q 35.25 24.703125 29.984375 24.703125 
Q 19.046875 24.703125 12.671875 31.3125 
Q 6.296875 37.9375 6.296875 49.421875 
Q 6.296875 60.640625 12.9375 67.421875 
Q 19.578125 74.21875 30.609375 74.21875 
Q 43.265625 74.21875 49.921875 64.515625 
Q 56.59375 54.828125 56.59375 36.375 
Q 56.59375 19.140625 48.40625 8.859375 
Q 40.234375 -1.421875 26.421875 -1.421875 
Q 22.703125 -1.421875 18.890625 -0.6875 
Q 15.09375 0.046875 10.984375 1.515625 
z
M 30.609375 32.421875 
Q 37.25 32.421875 41.125 36.953125 
Q 45.015625 41.5 45.015625 49.421875 
Q 45.015625 57.28125 41.125 61.84375 
Q 37.25 66.40625 30.609375 66.40625 
Q 23.96875 66.40625 20.09375 61.84375 
Q 16.21875 57.28125 16.21875 49.421875 
Q 16.21875 41.5 20.09375 36.953125 
Q 23.96875 32.421875 30.609375 32.421875 
z
" id="DejaVuSans-39"/>
    </defs>
    <g transform="translate(369.479935 37.551928)scale(0.17 -0.17)">
     <use xlink:href="#DejaVuSans-62"/>
     <use x="63.476562" xlink:href="#DejaVuSans-65"/>
     <use x="125" xlink:href="#DejaVuSans-73"/>
     <use x="177.099609" xlink:href="#DejaVuSans-74"/>
     <use x="216.308594" xlink:href="#DejaVuSans-20"/>
     <use x="248.095703" xlink:href="#DejaVuSans-32"/>
     <use x="311.71875" xlink:href="#DejaVuSans-30"/>
     <use x="375.341797" xlink:href="#DejaVuSans-30"/>
     <use x="438.964844" xlink:href="#DejaVuSans-39"/>
    </g>
   </g>
   <g id="text_19">
    <!-- bbob f1, 20-D -->
    <g transform="translate(59.55864 35.290806)scale(0.102 -0.102)">
     <use xlink:href="#DejaVuSans-62"/>
     <use x="63.476562" xlink:href="#DejaVuSans-62"/>
     <use x="126.953125" xlink:href="#DejaVuSans-6f"/>
     <use x="188.134766" xlink:href="#DejaVuSans-62"/>
     <use x="251.611328" xlink:href="#DejaVuSans-20"/>
     <use x="283.398438" xlink:href="#DejaVuSans-66"/>
     <use x="318.603516" xlink:href="#DejaVuSans-31"/>
     <use x="382.226562" xlink:href="#DejaVuSans-2c"/>
     <use x="414.013672" xlink:href="#DejaVuSans-20"/>
     <use x="445.800781" xlink:href="#DejaVuSans-32"/>
     <use x="509.423828" xlink:href="#DejaVuSans-30"/>
     <use x="573.046875" xlink:href="#DejaVuSans-2d"/>
     <use x="609.130859" xlink:href="#DejaVuSans-44"/>
    </g>
    <!-- 51 targets: 100..1e-08 -->
    <defs>
     <path d="M 10.796875 72.90625 
L 49.515625 72.90625 
L 49.515625 64.59375 
L 19.828125 64.59375 
L 19.828125 46.734375 
Q 21.96875 47.46875 24.109375 47.828125 
Q 26.265625 48.1875 28.421875 48.1875 
Q 40.625 48.1875 47.75 41.5 
Q 54.890625 34.8125 54.890625 23.390625 
Q 54.890625 11.625 47.5625 5.09375 
Q 40.234375 -1.421875 26.90625 -1.421875 
Q 22.3125 -1.421875 17.546875 -0.640625 
Q 12.796875 0.140625 7.71875 1.703125 
L 7.71875 11.625 
Q 12.109375 9.234375 16.796875 8.0625 
Q 21.484375 6.890625 26.703125 6.890625 
Q 35.15625 6.890625 40.078125 11.328125 
Q 45.015625 15.765625 45.015625 23.390625 
Q 45.015625 31 40.078125 35.4375 
Q 35.15625 39.890625 26.703125 39.890625 
Q 22.75 39.890625 18.8125 39.015625 
Q 14.890625 38.140625 10.796875 36.28125 
z
" id="DejaVuSans-35"/>
     <path d="M 11.71875 12.40625 
L 22.015625 12.40625 
L 22.015625 0 
L 11.71875 0 
z
M 11.71875 51.703125 
L 22.015625 51.703125 
L 22.015625 39.3125 
L 11.71875 39.3125 
z
" id="DejaVuSans-3a"/>
    </defs>
    <g transform="translate(59.55864 46.712575)scale(0.102 -0.102)">
     <use xlink:href="#DejaVuSans-35"/>
     <use x="63.623047" xlink:href="#DejaVuSans-31"/>
     <use x="127.246094" xlink:href="#DejaVuSans-20"/>
     <use x="159.033203" xlink:href="#DejaVuSans-74"/>
     <use x="198.242188" xlink:href="#DejaVuSans-61"/>
     <use x="259.521484" xlink:href="#DejaVuSans-72"/>
     <use x="300.619141" xlink:href="#DejaVuSans-67"/>
     <use x="364.095703" xlink:href="#DejaVuSans-65"/>
     <use x="425.619141" xlink:href="#DejaVuSans-74"/>
     <use x="464.828125" xlink:href="#DejaVuSans-73"/>
     <use x="516.927734" xlink:href="#DejaVuSans-3a"/>
     <use x="550.619141" xlink:href="#DejaVuSans-20"/>
     <use x="582.40625" xlink:href="#DejaVuSans-31"/>
     <use x="646.029297" xlink:href="#DejaVuSans-30"/>
     <use x="709.652344" xlink:href="#DejaVuSans-30"/>
     <use x="773.275391" xlink:href="#DejaVuSans-2e"/>
     <use x="805.0625" xlink:href="#DejaVuSans-2e"/>
     <use x="836.849609" xlink:href="#DejaVuSans-31"/>
     <use x="900.472656" xlink:href="#DejaVuSans-65"/>
     <use x="961.996094" xlink:href="#DejaVuSans-2d"/>
     <use x="998.080078" xlink:href="#DejaVuSans-30"/>
     <use x="1061.703125" xlink:href="#DejaVuSans-38"/>
    </g>
    <!-- 15 instances -->
    <g transform="translate(59.55864 58.134344)scale(0.102 -0.102)">
     <use xlink:href="#DejaVuSans-31"/>
     <use x="63.623047" xlink:href="#DejaVuSans-35"/>
     <use x="127.246094" xlink:href="#DejaVuSans-20"/>
     <use x="159.033203" xlink:href="#DejaVuSans-69"/>
     <use x="186.816406" xlink:href="#DejaVuSans-6e"/>
     <use x="250.195312" xlink:href="#DejaVuSans-73"/>
     <use x="302.294922" xlink:href="#DejaVuSans-74"/>
     <use x="341.503906" xlink:href="#DejaVuSans-61"/>
     <use x="402.783203" xlink:href="#DejaVuSans-6e"/>
     <use x="466.162109" xlink:href="#DejaVuSans-63"/>
     <use x="521.142578" xlink:href="#DejaVuSans-65"/>
     <use x="582.666016" xlink:href="#DejaVuSans-73"/>
    </g>
   </g>
   <g id="text_20">
    <!-- v-coco-version -->
    <g style="fill:#808080;" transform="translate(191.556688 290.099912)scale(0.1 -0.1)">
     <use xlink:href="#DejaVuSans-76"/>
     <use x="59.148438" xlink:href="#DejaVuSans-2d"/>
     <use x="95.232422" xlink:href="#DejaVuSans-63"/>
     <use x="150.212891" xlink:href="#DejaVuSans-6f"/>
     <use x="211.394531" xlink:href="#DejaVuSans-63"/>
     <use x="266.375" xlink:href="#DejaVuSans-6f"/>
     <use x="327.572266" xlink:href="#DejaVuSans-2d"/>
     <use x="363.625" xlink:href="#DejaVuSans-76"/>
     <use x="422.804688" xlink:href="#DejaVuSans-65"/>
     <use x="484.328125" xlink:href="#DejaVuSans-72"/>
     <use x="525.441406" xlink:href="#DejaVuSans-73"/>
     <use x="577.541016" xlink:href="#DejaVuSans-69"/>
     <use x="605.324219" xlink:href="#DejaVuSans-6f"/>
     <use x="666.505859" xlink:href="#DejaVuSans-6e"/>
    </g>
   </g>
   <g id="text_21">
    <!-- 1 Sphere -->
    <g transform="translate(183.062938 18.84)scale(0.2 -0.2)">
     <use xlink:href="#DejaVuSans-31"/>
     <use x="63.623047" xlink:href="#DejaVuSans-20"/>
     <use x="95.410156" xlink:href="#DejaVuSans-53"/>
     <use x="158.886719" xlink:href="#DejaVuSans-70"/>
     <use x="222.363281" xlink:href="#DejaVuSans-68"/>
     <use x="285.742188" xlink:href="#DejaVuSans-65"/>
     <use x="347.265625" xlink:href="#DejaVuSans-72"/>
     <use x="388.347656" xlink:href="#DejaVuSans-65"/>
    </g>
   </g>
  </g>
 </g>
 <defs>
  <clipPath id="p70f7836016">
   <rect height="270.04" width="343.864" x="56.12" y="24.84"/>
  </clipPath>
 </defs>
</svg>
