<?xml version="1.0" encoding="utf-8" standalone="no"?>
<!DOCTYPE svg PUBLIC "-//W3C//DTD SVG 1.1//EN"
  "http://www.w3.org/Graphics/SVG/1.1/DTD/svg11.dtd">
<!-- Created with matplotlib (http://matplotlib.org/) -->
<svg height="345.6pt" version="1.1" viewBox="0 0 460.8 345.6" width="460.8pt" xmlns="http://www.w3.org/2000/svg" xmlns:xlink="http://www.w3.org/1999/xlink">
 <defs>
  <style type="text/css">
*{stroke-linecap:butt;stroke-linejoin:round;}
  </style>
 </defs>
 <g id="figure_1">
  <g id="patch_1">
   <path d="M 0 345.6 
L 460.8 345.6 
L 460.8 0 
L 0 0 
z
" style="fill:#ffffff;"/>
  </g>
  <g id="axes_1">
   <g id="patch_2">
    <path d="M 56.12 294.88 
L 399.984 294.88 
L 399.984 24.84 
L 56.12 24.84 
z
" style="fill:#ffffff;"/>
   </g>
   <g id="line2d_1">
    <path d="M 72.995036 294.88 
L 72.995036 263.425137 
L 75.021477 263.425137 
L 75.021477 258.18266 
L 81.348133 258.18266 
L 81.348133 252.940182 
L 90.399494 252.940182 
L 90.399494 247.697705 
L 101.110033 247.697705 
L 101.110033 242.455228 
L 139.643277 242.455228 
L 139.643277 237.212751 
L 144.581633 237.212751 
L 144.581633 231.970274 
L 159.696975 231.970274 
L 159.696975 226.727797 
L 169.940837 226.727797 
L 169.940837 221.485319 
L 170.20002 221.485319 
L 170.20002 216.242842 
L 170.328162 216.242842 
L 170.328162 211.000365 
L 170.618578 211.000365 
L 170.618578 205.757888 
L 170.758306 205.757888 
L 170.758306 200.515411 
L 170.933198 200.515411 
L 170.933198 195.272933 
L 171.005548 195.272933 
L 171.005548 190.030456 
L 171.113506 190.030456 
L 171.113506 184.787979 
L 171.284843 184.787979 
L 171.284843 179.545502 
L 171.376942 179.545502 
L 171.376942 174.303025 
L 171.538689 174.303025 
L 171.538689 169.060547 
L 171.636405 169.060547 
L 171.636405 163.81807 
L 171.69893 163.81807 
L 171.69893 158.575593 
L 171.775043 158.575593 
L 171.775043 153.333116 
L 171.837067 153.333116 
L 171.837067 148.090639 
L 171.864562 148.090639 
L 171.864562 142.848162 
L 171.933107 142.848162 
L 171.933107 137.605684 
L 172.001381 137.605684 
L 172.001381 132.363207 
L 172.089733 132.363207 
L 172.089733 127.12073 
L 172.157389 127.12073 
L 172.157389 121.878253 
L 172.191117 121.878253 
L 172.191117 116.635776 
L 172.298606 116.635776 
L 172.298606 111.393298 
L 172.325374 111.393298 
L 172.325374 106.150821 
L 172.398771 106.150821 
L 172.398771 100.908344 
L 172.491734 100.908344 
L 172.491734 95.665867 
L 172.564426 95.665867 
L 172.564426 90.42339 
L 172.643378 90.42339 
L 172.643378 85.180912 
L 172.721969 85.180912 
L 172.721969 79.938435 
L 172.774164 79.938435 
L 172.774164 74.695958 
L 172.806706 74.695958 
L 172.806706 69.453481 
L 173.045622 69.453481 
L 173.045622 64.211004 
L 173.325485 64.211004 
L 173.325485 58.968526 
L 173.631886 58.968526 
L 173.631886 53.726049 
L 173.926833 53.726049 
L 173.926833 48.483572 
L 174.186831 48.483572 
L 174.186831 43.241095 
L 174.228787 43.241095 
L 174.228787 37.998618 
L 174.300474 37.998618 
L 174.300474 32.756141 
L 174.365926 32.756141 
L 174.365926 27.513663 
L 333.429677 27.513663 
" style="fill:none;stroke:#f5deb3;stroke-linecap:square;stroke-width:6;"/>
   </g>
   <g id="line2d_2">
    <defs>
     <path d="M -0 7.778175 
L 7.778175 0 
L 0 -7.778175 
L -7.778175 -0 
z
" id="m006baa0d99" style="stroke:#f5deb3;stroke-linejoin:miter;stroke-width:1.5;"/>
    </defs>
    <g>
     <use style="fill:#f5deb3;stroke:#f5deb3;stroke-linejoin:miter;stroke-width:1.5;" x="169.940837" xlink:href="#m006baa0d99" y="221.485319"/>
     <use style="fill:#f5deb3;stroke:#f5deb3;stroke-linejoin:miter;stroke-width:1.5;" x="174.186831" xlink:href="#m006baa0d99" y="43.241095"/>
     <use style="fill:#f5deb3;stroke:#f5deb3;stroke-linejoin:miter;stroke-width:1.5;" x="174.365926" xlink:href="#m006baa0d99" y="27.513663"/>
     <use style="fill:#f5deb3;stroke:#f5deb3;stroke-linejoin:miter;stroke-width:1.5;" x="174.365926" xlink:href="#m006baa0d99" y="27.513663"/>
     <use style="fill:#f5deb3;stroke:#f5deb3;stroke-linejoin:miter;stroke-width:1.5;" x="333.429677" xlink:href="#m006baa0d99" y="27.513663"/>
    </g>
   </g>
   <g id="line2d_3">
    <path style="fill:none;stroke:#f5deb3;stroke-linecap:square;stroke-width:6;"/>
    <g/>
   </g>
   <g id="line2d_4">
    <path d="M 333.429677 27.513663 
L 363.933742 32.86099 
" style="fill:none;stroke:#f5deb3;stroke-linecap:square;stroke-width:6;"/>
    <g>
     <use style="fill:#f5deb3;stroke:#f5deb3;stroke-linejoin:miter;stroke-width:1.5;" x="333.429677" xlink:href="#m006baa0d99" y="27.513663"/>
     <use style="fill:#f5deb3;stroke:#f5deb3;stroke-linejoin:miter;stroke-width:1.5;" x="363.933742" xlink:href="#m006baa0d99" y="32.86099"/>
    </g>
   </g>
   <g id="matplotlib.axis_1">
    <g id="xtick_1">
     <g id="line2d_5">
      <path clip-path="url(#p96bf2fe1b2)" d="M 56.12 294.88 
L 56.12 24.84 
" style="fill:none;stroke:#b0b0b0;stroke-linecap:square;stroke-width:0.8;"/>
     </g>
     <g id="line2d_6">
      <defs>
       <path d="M 0 0 
L 0 3.5 
" id="m1f82734a59" style="stroke:#000000;stroke-width:0.8;"/>
      </defs>
      <g>
       <use style="stroke:#000000;stroke-width:0.8;" x="56.12" xlink:href="#m1f82734a59" y="294.88"/>
      </g>
     </g>
     <g id="text_1">
      <!-- 0 -->
      <defs>
       <path d="M 31.78125 66.40625 
Q 24.171875 66.40625 20.328125 58.90625 
Q 16.5 51.421875 16.5 36.375 
Q 16.5 21.390625 20.328125 13.890625 
Q 24.171875 6.390625 31.78125 6.390625 
Q 39.453125 6.390625 43.28125 13.890625 
Q 47.125 21.390625 47.125 36.375 
Q 47.125 51.421875 43.28125 58.90625 
Q 39.453125 66.40625 31.78125 66.40625 
z
M 31.78125 74.21875 
Q 44.046875 74.21875 50.515625 64.515625 
Q 56.984375 54.828125 56.984375 36.375 
Q 56.984375 17.96875 50.515625 8.265625 
Q 44.046875 -1.421875 31.78125 -1.421875 
Q 19.53125 -1.421875 13.0625 8.265625 
Q 6.59375 17.96875 6.59375 36.375 
Q 6.59375 54.828125 13.0625 64.515625 
Q 19.53125 74.21875 31.78125 74.21875 
z
" id="DejaVuSans-30"/>
      </defs>
      <g transform="translate(49.7575 317.076875)scale(0.2 -0.2)">
       <use xlink:href="#DejaVuSans-30"/>
      </g>
     </g>
    </g>
    <g id="xtick_2">
     <g id="line2d_7">
      <path clip-path="url(#p96bf2fe1b2)" d="M 135.351336 294.88 
L 135.351336 24.84 
" style="fill:none;stroke:#b0b0b0;stroke-linecap:square;stroke-width:0.8;"/>
     </g>
     <g id="line2d_8">
      <g>
       <use style="stroke:#000000;stroke-width:0.8;" x="135.351336" xlink:href="#m1f82734a59" y="294.88"/>
      </g>
     </g>
     <g id="text_2">
      <!-- 2 -->
      <defs>
       <path d="M 19.1875 8.296875 
L 53.609375 8.296875 
L 53.609375 0 
L 7.328125 0 
L 7.328125 8.296875 
Q 12.9375 14.109375 22.625 23.890625 
Q 32.328125 33.6875 34.8125 36.53125 
Q 39.546875 41.84375 41.421875 45.53125 
Q 43.3125 49.21875 43.3125 52.78125 
Q 43.3125 58.59375 39.234375 62.25 
Q 35.15625 65.921875 28.609375 65.921875 
Q 23.96875 65.921875 18.8125 64.3125 
Q 13.671875 62.703125 7.8125 59.421875 
L 7.8125 69.390625 
Q 13.765625 71.78125 18.9375 73 
Q 24.125 74.21875 28.421875 74.21875 
Q 39.75 74.21875 46.484375 68.546875 
Q 53.21875 62.890625 53.21875 53.421875 
Q 53.21875 48.921875 51.53125 44.890625 
Q 49.859375 40.875 45.40625 35.40625 
Q 44.1875 33.984375 37.640625 27.21875 
Q 31.109375 20.453125 19.1875 8.296875 
z
" id="DejaVuSans-32"/>
      </defs>
      <g transform="translate(128.988836 317.076875)scale(0.2 -0.2)">
       <use xlink:href="#DejaVuSans-32"/>
      </g>
     </g>
    </g>
    <g id="xtick_3">
     <g id="line2d_9">
      <path clip-path="url(#p96bf2fe1b2)" d="M 214.582673 294.88 
L 214.582673 24.84 
" style="fill:none;stroke:#b0b0b0;stroke-linecap:square;stroke-width:0.8;"/>
     </g>
     <g id="line2d_10">
      <g>
       <use style="stroke:#000000;stroke-width:0.8;" x="214.582673" xlink:href="#m1f82734a59" y="294.88"/>
      </g>
     </g>
     <g id="text_3">
      <!-- 4 -->
      <defs>
       <path d="M 37.796875 64.3125 
L 12.890625 25.390625 
L 37.796875 25.390625 
z
M 35.203125 72.90625 
L 47.609375 72.90625 
L 47.609375 25.390625 
L 58.015625 25.390625 
L 58.015625 17.1875 
L 47.609375 17.1875 
L 47.609375 0 
L 37.796875 0 
L 37.796875 17.1875 
L 4.890625 17.1875 
L 4.890625 26.703125 
z
" id="DejaVuSans-34"/>
      </defs>
      <g transform="translate(208.220173 317.076875)scale(0.2 -0.2)">
       <use xlink:href="#DejaVuSans-34"/>
      </g>
     </g>
    </g>
    <g id="xtick_4">
     <g id="line2d_11">
      <path clip-path="url(#p96bf2fe1b2)" d="M 293.814009 294.88 
L 293.814009 24.84 
" style="fill:none;stroke:#b0b0b0;stroke-linecap:square;stroke-width:0.8;"/>
     </g>
     <g id="line2d_12">
      <g>
       <use style="stroke:#000000;stroke-width:0.8;" x="293.814009" xlink:href="#m1f82734a59" y="294.88"/>
      </g>
     </g>
     <g id="text_4">
      <!-- 6 -->
      <defs>
       <path d="M 33.015625 40.375 
Q 26.375 40.375 22.484375 35.828125 
Q 18.609375 31.296875 18.609375 23.390625 
Q 18.609375 15.53125 22.484375 10.953125 
Q 26.375 6.390625 33.015625 6.390625 
Q 39.65625 6.390625 43.53125 10.953125 
Q 47.40625 15.53125 47.40625 23.390625 
Q 47.40625 31.296875 43.53125 35.828125 
Q 39.65625 40.375 33.015625 40.375 
z
M 52.59375 71.296875 
L 52.59375 62.3125 
Q 48.875 64.0625 45.09375 64.984375 
Q 41.3125 65.921875 37.59375 65.921875 
Q 27.828125 65.921875 22.671875 59.328125 
Q 17.53125 52.734375 16.796875 39.40625 
Q 19.671875 43.65625 24.015625 45.921875 
Q 28.375 48.1875 33.59375 48.1875 
Q 44.578125 48.1875 50.953125 41.515625 
Q 57.328125 34.859375 57.328125 23.390625 
Q 57.328125 12.15625 50.6875 5.359375 
Q 44.046875 -1.421875 33.015625 -1.421875 
Q 20.359375 -1.421875 13.671875 8.265625 
Q 6.984375 17.96875 6.984375 36.375 
Q 6.984375 53.65625 15.1875 63.9375 
Q 23.390625 74.21875 37.203125 74.21875 
Q 40.921875 74.21875 44.703125 73.484375 
Q 48.484375 72.75 52.59375 71.296875 
z
" id="DejaVuSans-36"/>
      </defs>
      <g transform="translate(287.451509 317.076875)scale(0.2 -0.2)">
       <use xlink:href="#DejaVuSans-36"/>
      </g>
     </g>
    </g>
    <g id="xtick_5">
     <g id="line2d_13">
      <path clip-path="url(#p96bf2fe1b2)" d="M 373.045346 294.88 
L 373.045346 24.84 
" style="fill:none;stroke:#b0b0b0;stroke-linecap:square;stroke-width:0.8;"/>
     </g>
     <g id="line2d_14">
      <g>
       <use style="stroke:#000000;stroke-width:0.8;" x="373.045346" xlink:href="#m1f82734a59" y="294.88"/>
      </g>
     </g>
     <g id="text_5">
      <!-- 8 -->
      <defs>
       <path d="M 31.78125 34.625 
Q 24.75 34.625 20.71875 30.859375 
Q 16.703125 27.09375 16.703125 20.515625 
Q 16.703125 13.921875 20.71875 10.15625 
Q 24.75 6.390625 31.78125 6.390625 
Q 38.8125 6.390625 42.859375 10.171875 
Q 46.921875 13.96875 46.921875 20.515625 
Q 46.921875 27.09375 42.890625 30.859375 
Q 38.875 34.625 31.78125 34.625 
z
M 21.921875 38.8125 
Q 15.578125 40.375 12.03125 44.71875 
Q 8.5 49.078125 8.5 55.328125 
Q 8.5 64.0625 14.71875 69.140625 
Q 20.953125 74.21875 31.78125 74.21875 
Q 42.671875 74.21875 48.875 69.140625 
Q 55.078125 64.0625 55.078125 55.328125 
Q 55.078125 49.078125 51.53125 44.71875 
Q 48 40.375 41.703125 38.8125 
Q 48.828125 37.15625 52.796875 32.3125 
Q 56.78125 27.484375 56.78125 20.515625 
Q 56.78125 9.90625 50.3125 4.234375 
Q 43.84375 -1.421875 31.78125 -1.421875 
Q 19.734375 -1.421875 13.25 4.234375 
Q 6.78125 9.90625 6.78125 20.515625 
Q 6.78125 27.484375 10.78125 32.3125 
Q 14.796875 37.15625 21.921875 38.8125 
z
M 18.3125 54.390625 
Q 18.3125 48.734375 21.84375 45.5625 
Q 25.390625 42.390625 31.78125 42.390625 
Q 38.140625 42.390625 41.71875 45.5625 
Q 45.3125 48.734375 45.3125 54.390625 
Q 45.3125 60.0625 41.71875 63.234375 
Q 38.140625 66.40625 31.78125 66.40625 
Q 25.390625 66.40625 21.84375 63.234375 
Q 18.3125 60.0625 18.3125 54.390625 
z
" id="DejaVuSans-38"/>
      </defs>
      <g transform="translate(366.682846 317.076875)scale(0.2 -0.2)">
       <use xlink:href="#DejaVuSans-38"/>
      </g>
     </g>
    </g>
    <g id="text_6">
     <!-- log10(# f-evals / dimension) -->
     <defs>
      <path d="M 9.421875 75.984375 
L 18.40625 75.984375 
L 18.40625 0 
L 9.421875 0 
z
" id="DejaVuSans-6c"/>
      <path d="M 30.609375 48.390625 
Q 23.390625 48.390625 19.1875 42.75 
Q 14.984375 37.109375 14.984375 27.296875 
Q 14.984375 17.484375 19.15625 11.84375 
Q 23.34375 6.203125 30.609375 6.203125 
Q 37.796875 6.203125 41.984375 11.859375 
Q 46.1875 17.53125 46.1875 27.296875 
Q 46.1875 37.015625 41.984375 42.703125 
Q 37.796875 48.390625 30.609375 48.390625 
z
M 30.609375 56 
Q 42.328125 56 49.015625 48.375 
Q 55.71875 40.765625 55.71875 27.296875 
Q 55.71875 13.875 49.015625 6.21875 
Q 42.328125 -1.421875 30.609375 -1.421875 
Q 18.84375 -1.421875 12.171875 6.21875 
Q 5.515625 13.875 5.515625 27.296875 
Q 5.515625 40.765625 12.171875 48.375 
Q 18.84375 56 30.609375 56 
z
" id="DejaVuSans-6f"/>
      <path d="M 45.40625 27.984375 
Q 45.40625 37.75 41.375 43.109375 
Q 37.359375 48.484375 30.078125 48.484375 
Q 22.859375 48.484375 18.828125 43.109375 
Q 14.796875 37.75 14.796875 27.984375 
Q 14.796875 18.265625 18.828125 12.890625 
Q 22.859375 7.515625 30.078125 7.515625 
Q 37.359375 7.515625 41.375 12.890625 
Q 45.40625 18.265625 45.40625 27.984375 
z
M 54.390625 6.78125 
Q 54.390625 -7.171875 48.1875 -13.984375 
Q 42 -20.796875 29.203125 -20.796875 
Q 24.46875 -20.796875 20.265625 -20.09375 
Q 16.0625 -19.390625 12.109375 -17.921875 
L 12.109375 -9.1875 
Q 16.0625 -11.328125 19.921875 -12.34375 
Q 23.78125 -13.375 27.78125 -13.375 
Q 36.625 -13.375 41.015625 -8.765625 
Q 45.40625 -4.15625 45.40625 5.171875 
L 45.40625 9.625 
Q 42.625 4.78125 38.28125 2.390625 
Q 33.9375 0 27.875 0 
Q 17.828125 0 11.671875 7.65625 
Q 5.515625 15.328125 5.515625 27.984375 
Q 5.515625 40.671875 11.671875 48.328125 
Q 17.828125 56 27.875 56 
Q 33.9375 56 38.28125 53.609375 
Q 42.625 51.21875 45.40625 46.390625 
L 45.40625 54.6875 
L 54.390625 54.6875 
z
" id="DejaVuSans-67"/>
      <path d="M 12.40625 8.296875 
L 28.515625 8.296875 
L 28.515625 63.921875 
L 10.984375 60.40625 
L 10.984375 69.390625 
L 28.421875 72.90625 
L 38.28125 72.90625 
L 38.28125 8.296875 
L 54.390625 8.296875 
L 54.390625 0 
L 12.40625 0 
z
" id="DejaVuSans-31"/>
      <path d="M 31 75.875 
Q 24.46875 64.65625 21.28125 53.65625 
Q 18.109375 42.671875 18.109375 31.390625 
Q 18.109375 20.125 21.3125 9.0625 
Q 24.515625 -2 31 -13.1875 
L 23.1875 -13.1875 
Q 15.875 -1.703125 12.234375 9.375 
Q 8.59375 20.453125 8.59375 31.390625 
Q 8.59375 42.28125 12.203125 53.3125 
Q 15.828125 64.359375 23.1875 75.875 
z
" id="DejaVuSans-28"/>
      <path d="M 51.125 44 
L 36.921875 44 
L 32.8125 27.6875 
L 47.125 27.6875 
z
M 43.796875 71.78125 
L 38.71875 51.515625 
L 52.984375 51.515625 
L 58.109375 71.78125 
L 65.921875 71.78125 
L 60.890625 51.515625 
L 76.125 51.515625 
L 76.125 44 
L 58.984375 44 
L 54.984375 27.6875 
L 70.515625 27.6875 
L 70.515625 20.21875 
L 53.078125 20.21875 
L 48 0 
L 40.1875 0 
L 45.21875 20.21875 
L 30.90625 20.21875 
L 25.875 0 
L 18.015625 0 
L 23.09375 20.21875 
L 7.71875 20.21875 
L 7.71875 27.6875 
L 24.90625 27.6875 
L 29 44 
L 13.28125 44 
L 13.28125 51.515625 
L 30.90625 51.515625 
L 35.890625 71.78125 
z
" id="DejaVuSans-23"/>
      <path id="DejaVuSans-20"/>
      <path d="M 37.109375 75.984375 
L 37.109375 68.5 
L 28.515625 68.5 
Q 23.6875 68.5 21.796875 66.546875 
Q 19.921875 64.59375 19.921875 59.515625 
L 19.921875 54.6875 
L 34.71875 54.6875 
L 34.71875 47.703125 
L 19.921875 47.703125 
L 19.921875 0 
L 10.890625 0 
L 10.890625 47.703125 
L 2.296875 47.703125 
L 2.296875 54.6875 
L 10.890625 54.6875 
L 10.890625 58.5 
Q 10.890625 67.625 15.140625 71.796875 
Q 19.390625 75.984375 28.609375 75.984375 
z
" id="DejaVuSans-66"/>
      <path d="M 4.890625 31.390625 
L 31.203125 31.390625 
L 31.203125 23.390625 
L 4.890625 23.390625 
z
" id="DejaVuSans-2d"/>
      <path d="M 56.203125 29.59375 
L 56.203125 25.203125 
L 14.890625 25.203125 
Q 15.484375 15.921875 20.484375 11.0625 
Q 25.484375 6.203125 34.421875 6.203125 
Q 39.59375 6.203125 44.453125 7.46875 
Q 49.3125 8.734375 54.109375 11.28125 
L 54.109375 2.78125 
Q 49.265625 0.734375 44.1875 -0.34375 
Q 39.109375 -1.421875 33.890625 -1.421875 
Q 20.796875 -1.421875 13.15625 6.1875 
Q 5.515625 13.8125 5.515625 26.8125 
Q 5.515625 40.234375 12.765625 48.109375 
Q 20.015625 56 32.328125 56 
Q 43.359375 56 49.78125 48.890625 
Q 56.203125 41.796875 56.203125 29.59375 
z
M 47.21875 32.234375 
Q 47.125 39.59375 43.09375 43.984375 
Q 39.0625 48.390625 32.421875 48.390625 
Q 24.90625 48.390625 20.390625 44.140625 
Q 15.875 39.890625 15.1875 32.171875 
z
" id="DejaVuSans-65"/>
      <path d="M 2.984375 54.6875 
L 12.5 54.6875 
L 29.59375 8.796875 
L 46.6875 54.6875 
L 56.203125 54.6875 
L 35.6875 0 
L 23.484375 0 
z
" id="DejaVuSans-76"/>
      <path d="M 34.28125 27.484375 
Q 23.390625 27.484375 19.1875 25 
Q 14.984375 22.515625 14.984375 16.5 
Q 14.984375 11.71875 18.140625 8.90625 
Q 21.296875 6.109375 26.703125 6.109375 
Q 34.1875 6.109375 38.703125 11.40625 
Q 43.21875 16.703125 43.21875 25.484375 
L 43.21875 27.484375 
z
M 52.203125 31.203125 
L 52.203125 0 
L 43.21875 0 
L 43.21875 8.296875 
Q 40.140625 3.328125 35.546875 0.953125 
Q 30.953125 -1.421875 24.3125 -1.421875 
Q 15.921875 -1.421875 10.953125 3.296875 
Q 6 8.015625 6 15.921875 
Q 6 25.140625 12.171875 29.828125 
Q 18.359375 34.515625 30.609375 34.515625 
L 43.21875 34.515625 
L 43.21875 35.40625 
Q 43.21875 41.609375 39.140625 45 
Q 35.0625 48.390625 27.6875 48.390625 
Q 23 48.390625 18.546875 47.265625 
Q 14.109375 46.140625 10.015625 43.890625 
L 10.015625 52.203125 
Q 14.9375 54.109375 19.578125 55.046875 
Q 24.21875 56 28.609375 56 
Q 40.484375 56 46.34375 49.84375 
Q 52.203125 43.703125 52.203125 31.203125 
z
" id="DejaVuSans-61"/>
      <path d="M 44.28125 53.078125 
L 44.28125 44.578125 
Q 40.484375 46.53125 36.375 47.5 
Q 32.28125 48.484375 27.875 48.484375 
Q 21.1875 48.484375 17.84375 46.4375 
Q 14.5 44.390625 14.5 40.28125 
Q 14.5 37.15625 16.890625 35.375 
Q 19.28125 33.59375 26.515625 31.984375 
L 29.59375 31.296875 
Q 39.15625 29.25 43.1875 25.515625 
Q 47.21875 21.78125 47.21875 15.09375 
Q 47.21875 7.46875 41.1875 3.015625 
Q 35.15625 -1.421875 24.609375 -1.421875 
Q 20.21875 -1.421875 15.453125 -0.5625 
Q 10.6875 0.296875 5.421875 2 
L 5.421875 11.28125 
Q 10.40625 8.6875 15.234375 7.390625 
Q 20.0625 6.109375 24.8125 6.109375 
Q 31.15625 6.109375 34.5625 8.28125 
Q 37.984375 10.453125 37.984375 14.40625 
Q 37.984375 18.0625 35.515625 20.015625 
Q 33.0625 21.96875 24.703125 23.78125 
L 21.578125 24.515625 
Q 13.234375 26.265625 9.515625 29.90625 
Q 5.8125 33.546875 5.8125 39.890625 
Q 5.8125 47.609375 11.28125 51.796875 
Q 16.75 56 26.8125 56 
Q 31.78125 56 36.171875 55.265625 
Q 40.578125 54.546875 44.28125 53.078125 
z
" id="DejaVuSans-73"/>
      <path d="M 25.390625 72.90625 
L 33.6875 72.90625 
L 8.296875 -9.28125 
L 0 -9.28125 
z
" id="DejaVuSans-2f"/>
      <path d="M 45.40625 46.390625 
L 45.40625 75.984375 
L 54.390625 75.984375 
L 54.390625 0 
L 45.40625 0 
L 45.40625 8.203125 
Q 42.578125 3.328125 38.25 0.953125 
Q 33.9375 -1.421875 27.875 -1.421875 
Q 17.96875 -1.421875 11.734375 6.484375 
Q 5.515625 14.40625 5.515625 27.296875 
Q 5.515625 40.1875 11.734375 48.09375 
Q 17.96875 56 27.875 56 
Q 33.9375 56 38.25 53.625 
Q 42.578125 51.265625 45.40625 46.390625 
z
M 14.796875 27.296875 
Q 14.796875 17.390625 18.875 11.75 
Q 22.953125 6.109375 30.078125 6.109375 
Q 37.203125 6.109375 41.296875 11.75 
Q 45.40625 17.390625 45.40625 27.296875 
Q 45.40625 37.203125 41.296875 42.84375 
Q 37.203125 48.484375 30.078125 48.484375 
Q 22.953125 48.484375 18.875 42.84375 
Q 14.796875 37.203125 14.796875 27.296875 
z
" id="DejaVuSans-64"/>
      <path d="M 9.421875 54.6875 
L 18.40625 54.6875 
L 18.40625 0 
L 9.421875 0 
z
M 9.421875 75.984375 
L 18.40625 75.984375 
L 18.40625 64.59375 
L 9.421875 64.59375 
z
" id="DejaVuSans-69"/>
      <path d="M 52 44.1875 
Q 55.375 50.25 60.0625 53.125 
Q 64.75 56 71.09375 56 
Q 79.640625 56 84.28125 50.015625 
Q 88.921875 44.046875 88.921875 33.015625 
L 88.921875 0 
L 79.890625 0 
L 79.890625 32.71875 
Q 79.890625 40.578125 77.09375 44.375 
Q 74.3125 48.1875 68.609375 48.1875 
Q 61.625 48.1875 57.5625 43.546875 
Q 53.515625 38.921875 53.515625 30.90625 
L 53.515625 0 
L 44.484375 0 
L 44.484375 32.71875 
Q 44.484375 40.625 41.703125 44.40625 
Q 38.921875 48.1875 33.109375 48.1875 
Q 26.21875 48.1875 22.15625 43.53125 
Q 18.109375 38.875 18.109375 30.90625 
L 18.109375 0 
L 9.078125 0 
L 9.078125 54.6875 
L 18.109375 54.6875 
L 18.109375 46.1875 
Q 21.1875 51.21875 25.484375 53.609375 
Q 29.78125 56 35.6875 56 
Q 41.65625 56 45.828125 52.96875 
Q 50 49.953125 52 44.1875 
z
" id="DejaVuSans-6d"/>
      <path d="M 54.890625 33.015625 
L 54.890625 0 
L 45.90625 0 
L 45.90625 32.71875 
Q 45.90625 40.484375 42.875 44.328125 
Q 39.84375 48.1875 33.796875 48.1875 
Q 26.515625 48.1875 22.3125 43.546875 
Q 18.109375 38.921875 18.109375 30.90625 
L 18.109375 0 
L 9.078125 0 
L 9.078125 54.6875 
L 18.109375 54.6875 
L 18.109375 46.1875 
Q 21.34375 51.125 25.703125 53.5625 
Q 30.078125 56 35.796875 56 
Q 45.21875 56 50.046875 50.171875 
Q 54.890625 44.34375 54.890625 33.015625 
z
" id="DejaVuSans-6e"/>
      <path d="M 8.015625 75.875 
L 15.828125 75.875 
Q 23.140625 64.359375 26.78125 53.3125 
Q 30.421875 42.28125 30.421875 31.390625 
Q 30.421875 20.453125 26.78125 9.375 
Q 23.140625 -1.703125 15.828125 -13.1875 
L 8.015625 -13.1875 
Q 14.5 -2 17.703125 9.0625 
Q 20.90625 20.125 20.90625 31.390625 
Q 20.90625 42.671875 17.703125 53.65625 
Q 14.5 64.65625 8.015625 75.875 
z
" id="DejaVuSans-29"/>
     </defs>
     <g transform="translate(107.211219 338.153594)scale(0.17 -0.17)">
      <use xlink:href="#DejaVuSans-6c"/>
      <use x="27.783203" xlink:href="#DejaVuSans-6f"/>
      <use x="88.964844" xlink:href="#DejaVuSans-67"/>
      <use x="152.441406" xlink:href="#DejaVuSans-31"/>
      <use x="216.064453" xlink:href="#DejaVuSans-30"/>
      <use x="279.6875" xlink:href="#DejaVuSans-28"/>
      <use x="318.701172" xlink:href="#DejaVuSans-23"/>
      <use x="402.490234" xlink:href="#DejaVuSans-20"/>
      <use x="434.277344" xlink:href="#DejaVuSans-66"/>
      <use x="469.404297" xlink:href="#DejaVuSans-2d"/>
      <use x="505.488281" xlink:href="#DejaVuSans-65"/>
      <use x="567.011719" xlink:href="#DejaVuSans-76"/>
      <use x="626.191406" xlink:href="#DejaVuSans-61"/>
      <use x="687.470703" xlink:href="#DejaVuSans-6c"/>
      <use x="715.253906" xlink:href="#DejaVuSans-73"/>
      <use x="767.353516" xlink:href="#DejaVuSans-20"/>
      <use x="799.140625" xlink:href="#DejaVuSans-2f"/>
      <use x="832.832031" xlink:href="#DejaVuSans-20"/>
      <use x="864.619141" xlink:href="#DejaVuSans-64"/>
      <use x="928.095703" xlink:href="#DejaVuSans-69"/>
      <use x="955.878906" xlink:href="#DejaVuSans-6d"/>
      <use x="1053.291016" xlink:href="#DejaVuSans-65"/>
      <use x="1114.814453" xlink:href="#DejaVuSans-6e"/>
      <use x="1178.193359" xlink:href="#DejaVuSans-73"/>
      <use x="1230.292969" xlink:href="#DejaVuSans-69"/>
      <use x="1258.076172" xlink:href="#DejaVuSans-6f"/>
      <use x="1319.257812" xlink:href="#DejaVuSans-6e"/>
      <use x="1382.636719" xlink:href="#DejaVuSans-29"/>
     </g>
    </g>
   </g>
   <g id="matplotlib.axis_2">
    <g id="ytick_1">
     <g id="line2d_15">
      <path clip-path="url(#p96bf2fe1b2)" d="M 56.12 294.88 
L 399.984 294.88 
" style="fill:none;stroke:#b0b0b0;stroke-linecap:square;stroke-width:0.8;"/>
     </g>
     <g id="line2d_16">
      <defs>
       <path d="M 0 0 
L -3.5 0 
" id="m09be20710f" style="stroke:#000000;stroke-width:0.8;"/>
      </defs>
      <g>
       <use style="stroke:#000000;stroke-width:0.8;" x="56.12" xlink:href="#m09be20710f" y="294.88"/>
      </g>
     </g>
     <g id="text_7">
      <!-- 0.0 -->
      <defs>
       <path d="M 10.6875 12.40625 
L 21 12.40625 
L 21 0 
L 10.6875 0 
z
" id="DejaVuSans-2e"/>
      </defs>
      <g transform="translate(23.675 300.95875)scale(0.16 -0.16)">
       <use xlink:href="#DejaVuSans-30"/>
       <use x="63.623047" xlink:href="#DejaVuSans-2e"/>
       <use x="95.410156" xlink:href="#DejaVuSans-30"/>
      </g>
     </g>
    </g>
    <g id="ytick_2">
     <g id="line2d_17">
      <path clip-path="url(#p96bf2fe1b2)" d="M 56.12 241.406733 
L 399.984 241.406733 
" style="fill:none;stroke:#b0b0b0;stroke-linecap:square;stroke-width:0.8;"/>
     </g>
     <g id="line2d_18">
      <g>
       <use style="stroke:#000000;stroke-width:0.8;" x="56.12" xlink:href="#m09be20710f" y="241.406733"/>
      </g>
     </g>
     <g id="text_8">
      <!-- 0.2 -->
      <g transform="translate(23.675 247.485483)scale(0.16 -0.16)">
       <use xlink:href="#DejaVuSans-30"/>
       <use x="63.623047" xlink:href="#DejaVuSans-2e"/>
       <use x="95.410156" xlink:href="#DejaVuSans-32"/>
      </g>
     </g>
    </g>
    <g id="ytick_3">
     <g id="line2d_19">
      <path clip-path="url(#p96bf2fe1b2)" d="M 56.12 187.933465 
L 399.984 187.933465 
" style="fill:none;stroke:#b0b0b0;stroke-linecap:square;stroke-width:0.8;"/>
     </g>
     <g id="line2d_20">
      <g>
       <use style="stroke:#000000;stroke-width:0.8;" x="56.12" xlink:href="#m09be20710f" y="187.933465"/>
      </g>
     </g>
     <g id="text_9">
      <!-- 0.4 -->
      <g transform="translate(23.675 194.012215)scale(0.16 -0.16)">
       <use xlink:href="#DejaVuSans-30"/>
       <use x="63.623047" xlink:href="#DejaVuSans-2e"/>
       <use x="95.410156" xlink:href="#DejaVuSans-34"/>
      </g>
     </g>
    </g>
    <g id="ytick_4">
     <g id="line2d_21">
      <path clip-path="url(#p96bf2fe1b2)" d="M 56.12 134.460198 
L 399.984 134.460198 
" style="fill:none;stroke:#b0b0b0;stroke-linecap:square;stroke-width:0.8;"/>
     </g>
     <g id="line2d_22">
      <g>
       <use style="stroke:#000000;stroke-width:0.8;" x="56.12" xlink:href="#m09be20710f" y="134.460198"/>
      </g>
     </g>
     <g id="text_10">
      <!-- 0.6 -->
      <g transform="translate(23.675 140.538948)scale(0.16 -0.16)">
       <use xlink:href="#DejaVuSans-30"/>
       <use x="63.623047" xlink:href="#DejaVuSans-2e"/>
       <use x="95.410156" xlink:href="#DejaVuSans-36"/>
      </g>
     </g>
    </g>
    <g id="ytick_5">
     <g id="line2d_23">
      <path clip-path="url(#p96bf2fe1b2)" d="M 56.12 80.986931 
L 399.984 80.986931 
" style="fill:none;stroke:#b0b0b0;stroke-linecap:square;stroke-width:0.8;"/>
     </g>
     <g id="line2d_24">
      <g>
       <use style="stroke:#000000;stroke-width:0.8;" x="56.12" xlink:href="#m09be20710f" y="80.986931"/>
      </g>
     </g>
     <g id="text_11">
      <!-- 0.8 -->
      <g transform="translate(23.675 87.065681)scale(0.16 -0.16)">
       <use xlink:href="#DejaVuSans-30"/>
       <use x="63.623047" xlink:href="#DejaVuSans-2e"/>
       <use x="95.410156" xlink:href="#DejaVuSans-38"/>
      </g>
     </g>
    </g>
    <g id="ytick_6">
     <g id="line2d_25">
      <path clip-path="url(#p96bf2fe1b2)" d="M 56.12 27.513663 
L 399.984 27.513663 
" style="fill:none;stroke:#b0b0b0;stroke-linecap:square;stroke-width:0.8;"/>
     </g>
     <g id="line2d_26">
      <g>
       <use style="stroke:#000000;stroke-width:0.8;" x="56.12" xlink:href="#m09be20710f" y="27.513663"/>
      </g>
     </g>
     <g id="text_12">
      <!-- 1.0 -->
      <g transform="translate(23.675 33.592413)scale(0.16 -0.16)">
       <use xlink:href="#DejaVuSans-31"/>
       <use x="63.623047" xlink:href="#DejaVuSans-2e"/>
       <use x="95.410156" xlink:href="#DejaVuSans-30"/>
      </g>
     </g>
    </g>
    <g id="text_13">
     <!-- Fraction of function,target pairs -->
     <defs>
      <path d="M 9.8125 72.90625 
L 51.703125 72.90625 
L 51.703125 64.59375 
L 19.671875 64.59375 
L 19.671875 43.109375 
L 48.578125 43.109375 
L 48.578125 34.8125 
L 19.671875 34.8125 
L 19.671875 0 
L 9.8125 0 
z
" id="DejaVuSans-46"/>
      <path d="M 41.109375 46.296875 
Q 39.59375 47.171875 37.8125 47.578125 
Q 36.03125 48 33.890625 48 
Q 26.265625 48 22.1875 43.046875 
Q 18.109375 38.09375 18.109375 28.8125 
L 18.109375 0 
L 9.078125 0 
L 9.078125 54.6875 
L 18.109375 54.6875 
L 18.109375 46.1875 
Q 20.953125 51.171875 25.484375 53.578125 
Q 30.03125 56 36.53125 56 
Q 37.453125 56 38.578125 55.875 
Q 39.703125 55.765625 41.0625 55.515625 
z
" id="DejaVuSans-72"/>
      <path d="M 48.78125 52.59375 
L 48.78125 44.1875 
Q 44.96875 46.296875 41.140625 47.34375 
Q 37.3125 48.390625 33.40625 48.390625 
Q 24.65625 48.390625 19.8125 42.84375 
Q 14.984375 37.3125 14.984375 27.296875 
Q 14.984375 17.28125 19.8125 11.734375 
Q 24.65625 6.203125 33.40625 6.203125 
Q 37.3125 6.203125 41.140625 7.25 
Q 44.96875 8.296875 48.78125 10.40625 
L 48.78125 2.09375 
Q 45.015625 0.34375 40.984375 -0.53125 
Q 36.96875 -1.421875 32.421875 -1.421875 
Q 20.0625 -1.421875 12.78125 6.34375 
Q 5.515625 14.109375 5.515625 27.296875 
Q 5.515625 40.671875 12.859375 48.328125 
Q 20.21875 56 33.015625 56 
Q 37.15625 56 41.109375 55.140625 
Q 45.0625 54.296875 48.78125 52.59375 
z
" id="DejaVuSans-63"/>
      <path d="M 18.3125 70.21875 
L 18.3125 54.6875 
L 36.8125 54.6875 
L 36.8125 47.703125 
L 18.3125 47.703125 
L 18.3125 18.015625 
Q 18.3125 11.328125 20.140625 9.421875 
Q 21.96875 7.515625 27.59375 7.515625 
L 36.8125 7.515625 
L 36.8125 0 
L 27.59375 0 
Q 17.1875 0 13.234375 3.875 
Q 9.28125 7.765625 9.28125 18.015625 
L 9.28125 47.703125 
L 2.6875 47.703125 
L 2.6875 54.6875 
L 9.28125 54.6875 
L 9.28125 70.21875 
z
" id="DejaVuSans-74"/>
      <path d="M 8.5 21.578125 
L 8.5 54.6875 
L 17.484375 54.6875 
L 17.484375 21.921875 
Q 17.484375 14.15625 20.5 10.265625 
Q 23.53125 6.390625 29.59375 6.390625 
Q 36.859375 6.390625 41.078125 11.03125 
Q 45.3125 15.671875 45.3125 23.6875 
L 45.3125 54.6875 
L 54.296875 54.6875 
L 54.296875 0 
L 45.3125 0 
L 45.3125 8.40625 
Q 42.046875 3.421875 37.71875 1 
Q 33.40625 -1.421875 27.6875 -1.421875 
Q 18.265625 -1.421875 13.375 4.4375 
Q 8.5 10.296875 8.5 21.578125 
z
M 31.109375 56 
z
" id="DejaVuSans-75"/>
      <path d="M 11.71875 12.40625 
L 22.015625 12.40625 
L 22.015625 4 
L 14.015625 -11.625 
L 7.71875 -11.625 
L 11.71875 4 
z
" id="DejaVuSans-2c"/>
      <path d="M 18.109375 8.203125 
L 18.109375 -20.796875 
L 9.078125 -20.796875 
L 9.078125 54.6875 
L 18.109375 54.6875 
L 18.109375 46.390625 
Q 20.953125 51.265625 25.265625 53.625 
Q 29.59375 56 35.59375 56 
Q 45.5625 56 51.78125 48.09375 
Q 58.015625 40.1875 58.015625 27.296875 
Q 58.015625 14.40625 51.78125 6.484375 
Q 45.5625 -1.421875 35.59375 -1.421875 
Q 29.59375 -1.421875 25.265625 0.953125 
Q 20.953125 3.328125 18.109375 8.203125 
z
M 48.6875 27.296875 
Q 48.6875 37.203125 44.609375 42.84375 
Q 40.53125 48.484375 33.40625 48.484375 
Q 26.265625 48.484375 22.1875 42.84375 
Q 18.109375 37.203125 18.109375 27.296875 
Q 18.109375 17.390625 22.1875 11.75 
Q 26.265625 6.109375 33.40625 6.109375 
Q 40.53125 6.109375 44.609375 11.75 
Q 48.6875 17.390625 48.6875 27.296875 
z
" id="DejaVuSans-70"/>
     </defs>
     <g transform="translate(16.139531 294.999375)rotate(-90)scale(0.17 -0.17)">
      <use xlink:href="#DejaVuSans-46"/>
      <use x="57.410156" xlink:href="#DejaVuSans-72"/>
      <use x="98.523438" xlink:href="#DejaVuSans-61"/>
      <use x="159.802734" xlink:href="#DejaVuSans-63"/>
      <use x="214.783203" xlink:href="#DejaVuSans-74"/>
      <use x="253.992188" xlink:href="#DejaVuSans-69"/>
      <use x="281.775391" xlink:href="#DejaVuSans-6f"/>
      <use x="342.957031" xlink:href="#DejaVuSans-6e"/>
      <use x="406.335938" xlink:href="#DejaVuSans-20"/>
      <use x="438.123047" xlink:href="#DejaVuSans-6f"/>
      <use x="499.304688" xlink:href="#DejaVuSans-66"/>
      <use x="534.509766" xlink:href="#DejaVuSans-20"/>
      <use x="566.296875" xlink:href="#DejaVuSans-66"/>
      <use x="601.501953" xlink:href="#DejaVuSans-75"/>
      <use x="664.880859" xlink:href="#DejaVuSans-6e"/>
      <use x="728.259766" xlink:href="#DejaVuSans-63"/>
      <use x="783.240234" xlink:href="#DejaVuSans-74"/>
      <use x="822.449219" xlink:href="#DejaVuSans-69"/>
      <use x="850.232422" xlink:href="#DejaVuSans-6f"/>
      <use x="911.414062" xlink:href="#DejaVuSans-6e"/>
      <use x="974.792969" xlink:href="#DejaVuSans-2c"/>
      <use x="1006.580078" xlink:href="#DejaVuSans-74"/>
      <use x="1045.789062" xlink:href="#DejaVuSans-61"/>
      <use x="1107.068359" xlink:href="#DejaVuSans-72"/>
      <use x="1148.166016" xlink:href="#DejaVuSans-67"/>
      <use x="1211.642578" xlink:href="#DejaVuSans-65"/>
      <use x="1273.166016" xlink:href="#DejaVuSans-74"/>
      <use x="1312.375" xlink:href="#DejaVuSans-20"/>
      <use x="1344.162109" xlink:href="#DejaVuSans-70"/>
      <use x="1407.638672" xlink:href="#DejaVuSans-61"/>
      <use x="1468.917969" xlink:href="#DejaVuSans-69"/>
      <use x="1496.701172" xlink:href="#DejaVuSans-72"/>
      <use x="1537.814453" xlink:href="#DejaVuSans-73"/>
     </g>
    </g>
   </g>
   <g id="line2d_27">
    <defs>
     <path d="M 0 1.5 
C 0.397805 1.5 0.77937 1.341951 1.06066 1.06066 
C 1.341951 0.77937 1.5 0.397805 1.5 0 
C 1.5 -0.397805 1.341951 -0.77937 1.06066 -1.06066 
C 0.77937 -1.341951 0.397805 -1.5 0 -1.5 
C -0.397805 -1.5 -0.77937 -1.341951 -1.06066 -1.06066 
C -1.341951 -0.77937 -1.5 -0.397805 -1.5 0 
C -1.5 0.397805 -1.341951 0.77937 -1.06066 1.06066 
C -0.77937 1.341951 -0.397805 1.5 0 1.5 
z
" id="m71697e3a52" style="stroke:#f5deb3;"/>
    </defs>
    <g>
     <use style="fill:#f5deb3;stroke:#f5deb3;" x="174.365926" xlink:href="#m71697e3a52" y="27.513663"/>
     <use style="fill:#f5deb3;stroke:#f5deb3;" x="174.365926" xlink:href="#m71697e3a52" y="27.513663"/>
    </g>
   </g>
   <g id="line2d_28">
    <defs>
     <path d="M 0 1.5 
C 0.397805 1.5 0.77937 1.341951 1.06066 1.06066 
C 1.341951 0.77937 1.5 0.397805 1.5 0 
C 1.5 -0.397805 1.341951 -0.77937 1.06066 -1.06066 
C 0.77937 -1.341951 0.397805 -1.5 0 -1.5 
C -0.397805 -1.5 -0.77937 -1.341951 -1.06066 -1.06066 
C -1.341951 -0.77937 -1.5 -0.397805 -1.5 0 
C -1.5 0.397805 -1.341951 0.77937 -1.06066 1.06066 
C -0.77937 1.341951 -0.397805 1.5 0 1.5 
z
" id="m799d9c88b1" style="stroke:#000080;"/>
    </defs>
    <g>
     <use style="fill:#000080;stroke:#000080;" x="256.215553" xlink:href="#m799d9c88b1" y="27.513663"/>
     <use style="fill:#000080;stroke:#000080;" x="256.215553" xlink:href="#m799d9c88b1" y="27.513663"/>
    </g>
   </g>
   <g id="line2d_29">
    <path d="M 37.218523 294.88 
L 37.218523 293.307257 
L 68.045504 293.307257 
L 68.045504 292.783009 
L 101.929467 292.783009 
L 101.929467 290.161771 
L 110.557359 290.161771 
L 110.557359 284.919293 
L 114.250503 284.919293 
L 114.250503 280.725312 
L 115.567365 280.725312 
L 115.567365 278.628321 
L 126.847034 278.628321 
L 126.847034 277.579825 
L 129.132668 277.579825 
L 129.132668 276.53133 
L 130.478102 276.53133 
L 130.478102 275.482834 
L 130.704982 275.482834 
L 130.704982 274.958587 
L 133.217027 274.958587 
L 133.217027 274.434339 
L 135.579219 274.434339 
L 135.579219 272.861596 
L 135.748171 272.861596 
L 135.748171 272.337348 
L 136.026124 272.337348 
L 136.026124 270.240357 
L 136.781317 270.240357 
L 136.781317 268.143366 
L 137.855372 268.143366 
L 137.855372 267.094871 
L 139.776821 267.094871 
L 139.776821 266.046375 
L 139.953283 266.046375 
L 140.04084 263.425137 
L 140.257802 263.425137 
L 140.257802 262.376641 
L 141.22203 262.376641 
L 141.22203 261.852394 
L 142.441628 261.852394 
L 142.441628 260.803898 
L 142.668011 260.803898 
L 142.668011 260.279651 
L 143.148522 260.279651 
L 143.184934 253.988678 
L 143.509224 253.988678 
L 143.580466 251.891687 
L 144.140023 251.891687 
L 144.140023 251.367439 
L 144.345252 251.367439 
L 144.345252 250.318944 
L 144.514426 250.318944 
L 144.581633 248.746201 
L 145.142532 248.746201 
L 145.142532 246.124962 
L 145.559445 246.124962 
L 145.559445 245.600714 
L 146.484661 245.600714 
L 146.514661 243.503724 
L 146.604348 243.503724 
L 146.693569 242.455228 
L 146.723207 242.455228 
L 146.723207 241.93098 
L 149.072341 241.93098 
L 149.072341 240.358237 
L 150.627387 240.358237 
L 150.627387 239.83399 
L 157.516605 239.83399 
L 157.516605 239.309742 
L 160.164229 239.309742 
L 160.164229 238.261246 
L 189.720711 238.261246 
L 189.720711 237.736999 
L 190.205252 237.736999 
L 190.205252 237.212751 
L 190.724781 237.212751 
L 190.724781 236.688503 
L 190.975386 236.688503 
L 191.022816 235.11576 
L 191.090348 235.11576 
L 191.090348 234.591512 
L 191.454909 234.591512 
L 191.562351 231.446026 
L 191.614732 231.446026 
L 191.614732 230.921778 
L 191.74499 230.921778 
L 191.74499 227.252044 
L 191.991928 227.252044 
L 191.991928 226.727797 
L 192.400634 226.727797 
L 192.400634 226.203549 
L 192.626078 226.203549 
L 192.626078 225.679301 
L 193.874216 225.679301 
L 193.874216 224.630806 
L 207.07112 224.630806 
L 207.07112 224.106558 
L 208.64569 224.106558 
L 208.690981 220.436824 
L 208.823738 220.436824 
L 208.91088 218.339833 
L 208.961046 218.339833 
L 208.961046 217.815585 
L 209.079113 217.815585 
L 209.111459 216.242842 
L 209.196375 216.242842 
L 209.299595 214.145851 
L 209.381262 214.145851 
L 209.482611 210.476117 
L 209.507278 210.476117 
L 209.507278 209.95187 
L 209.706393 209.95187 
L 209.706393 208.903374 
L 209.880632 208.903374 
L 209.913765 207.854879 
L 210.069534 207.854879 
L 210.147635 206.282136 
L 212.871613 206.282136 
L 212.910211 201.563906 
L 213.025488 201.563906 
L 213.126896 199.466915 
L 213.158074 199.466915 
L 213.165549 197.894172 
L 213.39566 197.894172 
L 213.505908 195.272933 
L 213.520555 195.272933 
L 213.568679 192.651695 
L 213.632433 192.651695 
L 213.729733 190.554704 
L 213.762847 190.554704 
L 213.812098 187.933465 
L 213.877349 187.933465 
L 213.877349 186.88497 
L 214.025485 186.88497 
L 214.130017 183.215236 
L 214.152376 183.215236 
L 214.226893 179.545502 
L 214.325556 179.545502 
L 214.427707 177.448511 
L 215.51416 177.448511 
L 215.569484 175.35152 
L 215.639739 175.35152 
L 215.700575 173.254529 
L 215.801314 173.254529 
L 215.86584 169.584795 
L 215.932247 169.584795 
L 216.025315 167.487804 
L 216.070083 167.487804 
L 216.070083 166.963557 
L 216.241751 166.963557 
L 216.26361 164.866566 
L 216.397279 164.866566 
L 216.426156 162.769575 
L 216.536574 162.769575 
L 216.602996 160.148336 
L 216.657983 160.148336 
L 216.690993 158.575593 
L 216.838506 158.575593 
L 216.910288 154.381611 
L 217.059417 154.381611 
L 217.059417 153.857364 
L 217.65629 153.857364 
L 217.750527 152.28462 
L 217.77484 152.28462 
L 217.837132 150.711877 
L 217.978943 150.711877 
L 218.085943 149.139134 
L 218.113056 149.139134 
L 218.148054 147.042143 
L 218.264199 147.042143 
L 218.276696 143.372409 
L 218.603013 143.372409 
L 218.603013 142.323914 
L 218.793538 142.323914 
L 218.793538 141.799666 
L 219.247268 141.799666 
L 219.247268 141.275418 
L 227.35252 141.275418 
L 227.432872 131.314712 
L 227.505545 131.314712 
L 227.613714 127.644978 
L 227.618823 127.644978 
L 227.672771 121.878253 
L 228.01136 121.878253 
L 228.099944 119.257014 
L 228.144848 119.257014 
L 228.245454 114.538785 
L 228.262812 114.538785 
L 228.33336 110.344803 
L 228.391544 110.344803 
L 228.391544 109.296308 
L 230.30944 109.296308 
L 230.413501 101.432592 
L 230.432229 101.432592 
L 230.535552 88.850646 
L 230.569328 88.850646 
L 230.652012 84.132417 
L 232.950444 84.132417 
L 232.950444 83.608169 
L 233.222181 83.608169 
L 233.222181 83.083922 
L 240.481393 83.083922 
L 240.58406 74.17171 
L 240.595697 74.17171 
L 240.691401 66.832242 
L 248.494301 66.832242 
L 248.586968 54.774545 
L 248.607219 54.774545 
L 248.607219 53.726049 
L 255.253951 53.726049 
L 255.337512 41.668352 
L 256.154392 41.668352 
L 256.215553 27.513663 
L 333.429677 27.513663 
L 333.429677 27.513663 
" style="fill:none;stroke:#000080;stroke-linecap:square;stroke-width:1.5;"/>
   </g>
   <g id="line2d_30">
    <defs>
     <path d="M 0 6 
C 1.591219 6 3.117479 5.367802 4.242641 4.242641 
C 5.367802 3.117479 6 1.591219 6 0 
C 6 -1.591219 5.367802 -3.117479 4.242641 -4.242641 
C 3.117479 -5.367802 1.591219 -6 0 -6 
C -1.591219 -6 -3.117479 -5.367802 -4.242641 -4.242641 
C -5.367802 -3.117479 -6 -1.591219 -6 0 
C -6 1.591219 -5.367802 3.117479 -4.242641 4.242641 
C -3.117479 5.367802 -1.591219 6 0 6 
z
" id="med29a1ede1" style="stroke:#000080;stroke-width:1.5;"/>
    </defs>
    <g>
     <use style="fill-opacity:0;stroke:#000080;stroke-width:1.5;" x="133.217027" xlink:href="#med29a1ede1" y="274.958587"/>
     <use style="fill-opacity:0;stroke:#000080;stroke-width:1.5;" x="160.164229" xlink:href="#med29a1ede1" y="238.261246"/>
     <use style="fill-opacity:0;stroke:#000080;stroke-width:1.5;" x="230.340678" xlink:href="#med29a1ede1" y="104.05383"/>
     <use style="fill-opacity:0;stroke:#000080;stroke-width:1.5;" x="256.215553" xlink:href="#med29a1ede1" y="27.513663"/>
     <use style="fill-opacity:0;stroke:#000080;stroke-width:1.5;" x="256.215553" xlink:href="#med29a1ede1" y="27.513663"/>
     <use style="fill-opacity:0;stroke:#000080;stroke-width:1.5;" x="333.429677" xlink:href="#med29a1ede1" y="27.513663"/>
    </g>
   </g>
   <g id="line2d_31">
    <path style="fill:none;stroke:#000080;stroke-linecap:square;stroke-width:1.5;"/>
    <g/>
   </g>
   <g id="line2d_32">
    <defs>
     <path d="M 0 1.5 
C 0.397805 1.5 0.77937 1.341951 1.06066 1.06066 
C 1.341951 0.77937 1.5 0.397805 1.5 0 
C 1.5 -0.397805 1.341951 -0.77937 1.06066 -1.06066 
C 0.77937 -1.341951 0.397805 -1.5 0 -1.5 
C -0.397805 -1.5 -0.77937 -1.341951 -1.06066 -1.06066 
C -1.341951 -0.77937 -1.5 -0.397805 -1.5 0 
C -1.5 0.397805 -1.341951 0.77937 -1.06066 1.06066 
C -0.77937 1.341951 -0.397805 1.5 0 1.5 
z
" id="m84ed75dd82" style="stroke:#ff00ff;"/>
    </defs>
    <g>
     <use style="fill:#ff00ff;stroke:#ff00ff;" x="236.613798" xlink:href="#m84ed75dd82" y="27.513663"/>
     <use style="fill:#ff00ff;stroke:#ff00ff;" x="236.613798" xlink:href="#m84ed75dd82" y="27.513663"/>
    </g>
   </g>
   <g id="line2d_33">
    <path d="M 70.697646 294.88 
L 70.697646 292.783009 
L 75.021477 292.783009 
L 75.021477 287.540532 
L 82.623151 287.540532 
L 82.623151 284.919293 
L 85.963579 284.919293 
L 85.963579 281.773807 
L 88.759695 281.773807 
L 88.759695 279.676816 
L 90.399494 279.676816 
L 90.399494 278.104073 
L 92.59885 278.104073 
L 92.59885 273.910091 
L 94.548655 273.910091 
L 94.548655 272.337348 
L 98.872486 272.337348 
L 98.872486 271.288853 
L 102.711641 271.288853 
L 102.711641 270.764605 
L 103.089785 270.764605 
L 103.089785 269.191862 
L 105.199142 269.191862 
L 105.199142 268.667614 
L 105.848459 268.667614 
L 105.848459 267.619119 
L 107.661173 267.619119 
L 107.661173 265.522128 
L 108.771549 265.522128 
L 108.771549 263.949385 
L 111.500328 263.949385 
L 111.500328 259.755403 
L 113.450132 259.755403 
L 113.450132 258.18266 
L 113.854971 258.18266 
L 113.854971 257.658412 
L 115.747522 257.658412 
L 115.747522 252.415935 
L 137.855372 252.415935 
L 137.855372 251.891687 
L 138.535879 251.891687 
L 138.535879 250.843192 
L 146.151164 250.843192 
L 146.151164 250.318944 
L 154.945972 250.318944 
L 154.945972 249.794696 
L 155.99657 249.794696 
L 155.99657 249.270448 
L 159.273883 249.270448 
L 159.273883 248.746201 
L 161.644292 248.746201 
L 161.644292 247.697705 
L 164.291101 247.697705 
L 164.291101 247.173458 
L 164.503117 247.173458 
L 164.503117 245.076467 
L 167.502423 245.076467 
L 167.502423 244.552219 
L 172.485111 244.552219 
L 172.485111 243.503724 
L 172.826202 243.503724 
L 172.826202 242.979476 
L 177.863191 242.979476 
L 177.863191 242.455228 
L 182.938271 242.455228 
L 182.938271 241.93098 
L 183.415127 241.93098 
L 183.415127 241.406733 
L 184.093019 241.406733 
L 184.093019 239.309742 
L 186.45986 239.309742 
L 186.45986 238.785494 
L 188.343587 238.785494 
L 188.343587 238.261246 
L 191.625624 238.261246 
L 191.625624 236.688503 
L 191.742827 236.688503 
L 191.742827 236.164255 
L 192.448452 236.164255 
L 192.448452 234.591512 
L 193.000068 234.591512 
L 193.000068 231.446026 
L 193.458362 231.446026 
L 193.458362 230.921778 
L 194.26158 230.921778 
L 194.26158 229.873283 
L 195.27734 229.873283 
L 195.27734 229.349035 
L 195.676033 229.349035 
L 195.676033 228.30054 
L 197.447221 228.30054 
L 197.447221 227.776292 
L 197.586394 227.776292 
L 197.586394 226.727797 
L 197.744301 226.727797 
L 197.744301 225.155053 
L 198.621912 225.155053 
L 198.621912 224.630806 
L 199.461064 224.630806 
L 199.518974 223.058063 
L 199.713335 223.058063 
L 199.777185 222.009567 
L 199.906871 222.009567 
L 199.92839 220.436824 
L 200.063614 220.436824 
L 200.063614 219.912576 
L 201.881795 219.912576 
L 201.881795 219.388328 
L 202.122476 219.388328 
L 202.122476 218.864081 
L 202.296704 218.864081 
L 202.296704 217.815585 
L 202.4483 217.815585 
L 202.4483 216.76709 
L 203.714774 216.76709 
L 203.714774 215.718594 
L 204.364611 215.718594 
L 204.364611 214.145851 
L 204.910486 214.145851 
L 205.011812 212.573108 
L 205.028809 212.573108 
L 205.028809 212.04886 
L 205.203792 212.04886 
L 205.203792 211.524613 
L 205.323069 211.524613 
L 205.323069 211.000365 
L 206.148738 211.000365 
L 206.148738 210.476117 
L 206.300686 210.476117 
L 206.300686 209.427622 
L 206.544887 209.427622 
L 206.544887 208.903374 
L 206.702459 208.903374 
L 206.702459 207.330631 
L 206.879254 207.330631 
L 206.879254 205.23364 
L 207.057804 205.23364 
L 207.096837 201.563906 
L 207.647942 201.563906 
L 207.647942 200.515411 
L 207.785558 200.515411 
L 207.859466 197.894172 
L 208.06172 197.894172 
L 208.06172 197.369924 
L 208.448586 197.369924 
L 208.448586 196.321429 
L 208.588908 196.321429 
L 208.588908 194.748686 
L 209.22772 194.748686 
L 209.22772 193.70019 
L 209.678197 193.70019 
L 209.678197 193.175943 
L 210.303516 193.175943 
L 210.303516 192.651695 
L 210.471841 192.651695 
L 210.471841 192.127447 
L 210.624826 192.127447 
L 210.632043 190.554704 
L 210.856412 190.554704 
L 210.884165 187.933465 
L 211.074377 187.933465 
L 211.074377 187.409218 
L 211.224211 187.409218 
L 211.224211 186.88497 
L 211.354772 186.88497 
L 211.393472 183.215236 
L 211.497392 183.215236 
L 211.608189 179.021254 
L 212.033737 179.021254 
L 212.033737 178.497006 
L 212.27676 178.497006 
L 212.27676 176.924263 
L 212.736154 176.924263 
L 212.736154 176.400016 
L 213.682059 176.400016 
L 213.785087 173.778777 
L 213.885114 173.778777 
L 213.885114 171.681786 
L 214.16472 171.681786 
L 214.16472 171.157538 
L 214.758977 171.157538 
L 214.851255 169.584795 
L 214.930682 169.584795 
L 215.010303 167.487804 
L 215.077303 167.487804 
L 215.077303 165.390813 
L 215.406254 165.390813 
L 215.422101 164.342318 
L 216.083754 164.342318 
L 216.083754 163.293823 
L 216.245396 163.293823 
L 216.284921 161.196832 
L 216.932315 161.196832 
L 216.932315 159.099841 
L 217.174739 159.099841 
L 217.174739 157.527098 
L 217.57407 157.527098 
L 217.671633 156.478602 
L 217.781508 156.478602 
L 217.781508 155.954354 
L 217.931802 155.954354 
L 217.980826 153.333116 
L 218.122396 153.333116 
L 218.140593 149.663382 
L 218.235932 149.663382 
L 218.235932 149.139134 
L 218.651974 149.139134 
L 218.651974 148.614886 
L 218.867015 148.614886 
L 218.867015 147.042143 
L 218.995737 147.042143 
L 219.012591 145.4694 
L 219.192079 145.4694 
L 219.192079 144.420905 
L 219.408748 144.420905 
L 219.486982 142.323914 
L 219.552838 142.323914 
L 219.63256 136.557189 
L 219.673989 136.557189 
L 219.774795 134.984446 
L 219.944024 134.984446 
L 219.944024 133.93595 
L 220.141106 133.93595 
L 220.141106 132.363207 
L 220.383508 132.363207 
L 220.457035 130.266216 
L 220.620119 130.266216 
L 220.620119 129.217721 
L 220.811646 129.217721 
L 220.811646 128.693473 
L 221.20989 128.693473 
L 221.318402 126.596482 
L 221.749135 126.596482 
L 221.749135 125.023739 
L 221.961831 125.023739 
L 221.994293 122.4025 
L 222.381316 122.4025 
L 222.381316 121.878253 
L 222.725562 121.878253 
L 222.835247 120.30551 
L 222.854761 120.30551 
L 222.928357 119.257014 
L 222.975604 119.257014 
L 222.975604 116.111528 
L 223.168527 116.111528 
L 223.18558 114.538785 
L 223.340363 114.538785 
L 223.340363 114.014537 
L 223.561962 114.014537 
L 223.652584 111.393298 
L 223.874568 111.393298 
L 223.874568 110.344803 
L 224.044161 110.344803 
L 224.112192 109.296308 
L 224.168132 109.296308 
L 224.259547 107.199317 
L 224.291542 107.199317 
L 224.291542 106.675069 
L 224.501295 106.675069 
L 224.549561 105.626573 
L 224.66485 105.626573 
L 224.66485 105.102326 
L 224.976087 105.102326 
L 225.077348 101.432592 
L 225.104748 101.432592 
L 225.202163 99.335601 
L 225.487795 99.335601 
L 225.487795 98.287105 
L 225.70879 98.287105 
L 225.70879 97.762858 
L 225.884218 97.762858 
L 225.955728 96.190115 
L 226.043742 96.190115 
L 226.151812 94.617371 
L 226.754726 94.617371 
L 226.819617 93.568876 
L 227.125242 93.568876 
L 227.171932 91.471885 
L 227.279745 91.471885 
L 227.376529 90.42339 
L 227.433144 90.42339 
L 227.469518 84.132417 
L 227.546897 84.132417 
L 227.605914 82.559674 
L 227.933144 82.559674 
L 228.018979 80.986931 
L 228.0921 80.986931 
L 228.114838 79.414188 
L 228.747906 79.414188 
L 228.799939 78.365692 
L 228.990632 78.365692 
L 228.990632 77.841444 
L 229.181934 77.841444 
L 229.243439 75.220206 
L 229.343676 75.220206 
L 229.415991 71.550472 
L 229.48125 71.550472 
L 229.48125 70.501976 
L 229.604564 70.501976 
L 229.632565 68.404985 
L 229.722719 68.404985 
L 229.722719 67.880738 
L 229.862027 67.880738 
L 229.862027 67.35649 
L 229.98921 67.35649 
L 229.98921 65.259499 
L 230.101737 65.259499 
L 230.107088 62.638261 
L 230.608008 62.638261 
L 230.608008 61.065517 
L 230.741477 61.065517 
L 230.741477 60.54127 
L 230.890152 60.54127 
L 230.899262 57.920031 
L 231.006231 57.920031 
L 231.006231 56.871536 
L 231.696058 56.871536 
L 231.777102 53.201802 
L 231.872048 53.201802 
L 231.968352 51.629058 
L 232.07263 51.629058 
L 232.159564 46.910829 
L 232.456768 46.910829 
L 232.456768 46.386581 
L 233.052286 46.386581 
L 233.157035 44.813838 
L 233.258439 44.813838 
L 233.316062 43.241095 
L 233.793149 43.241095 
L 233.793149 42.192599 
L 233.990849 42.192599 
L 234.078238 37.47437 
L 234.106839 37.47437 
L 234.157651 35.377379 
L 234.321758 35.377379 
L 234.321758 34.328884 
L 234.608321 34.328884 
L 234.68836 33.280388 
L 234.767673 33.280388 
L 234.771575 32.231893 
L 235.162833 32.231893 
L 235.258109 31.183397 
L 235.379934 31.183397 
L 235.403888 30.134902 
L 235.591624 30.134902 
L 235.591624 28.562159 
L 236.226666 28.562159 
L 236.226666 28.037911 
L 236.613798 28.037911 
L 236.613798 27.513663 
L 333.429677 27.513663 
L 333.429677 27.513663 
" style="fill:none;stroke:#ff00ff;stroke-linecap:square;stroke-width:1.5;"/>
   </g>
   <g id="line2d_34">
    <defs>
     <path d="M -0 8.485281 
L 5.091169 0 
L 0 -8.485281 
L -5.091169 -0 
z
" id="md1af814bdc" style="stroke:#ff00ff;stroke-linejoin:miter;stroke-width:1.5;"/>
    </defs>
    <g>
     <use style="fill-opacity:0;stroke:#ff00ff;stroke-linejoin:miter;stroke-width:1.5;" x="115.747522" xlink:href="#md1af814bdc" y="252.415935"/>
     <use style="fill-opacity:0;stroke:#ff00ff;stroke-linejoin:miter;stroke-width:1.5;" x="209.22772" xlink:href="#md1af814bdc" y="194.748686"/>
     <use style="fill-opacity:0;stroke:#ff00ff;stroke-linejoin:miter;stroke-width:1.5;" x="236.613798" xlink:href="#md1af814bdc" y="28.037911"/>
     <use style="fill-opacity:0;stroke:#ff00ff;stroke-linejoin:miter;stroke-width:1.5;" x="236.613798" xlink:href="#md1af814bdc" y="27.513663"/>
     <use style="fill-opacity:0;stroke:#ff00ff;stroke-linejoin:miter;stroke-width:1.5;" x="333.429677" xlink:href="#md1af814bdc" y="27.513663"/>
    </g>
   </g>
   <g id="line2d_35">
    <path style="fill:none;stroke:#ff00ff;stroke-linecap:square;stroke-width:1.5;"/>
    <g/>
   </g>
   <g id="line2d_36">
    <defs>
     <path d="M 0 1.5 
C 0.397805 1.5 0.77937 1.341951 1.06066 1.06066 
C 1.341951 0.77937 1.5 0.397805 1.5 0 
C 1.5 -0.397805 1.341951 -0.77937 1.06066 -1.06066 
C 0.77937 -1.341951 0.397805 -1.5 0 -1.5 
C -0.397805 -1.5 -0.77937 -1.341951 -1.06066 -1.06066 
C -1.341951 -0.77937 -1.5 -0.397805 -1.5 0 
C -1.5 0.397805 -1.341951 0.77937 -1.06066 1.06066 
C -0.77937 1.341951 -0.397805 1.5 0 1.5 
z
" id="mffc559feab" style="stroke:#ffa500;"/>
    </defs>
    <g>
     <use style="fill:#ffa500;stroke:#ffa500;" x="238.578594" xlink:href="#mffc559feab" y="27.513663"/>
     <use style="fill:#ffa500;stroke:#ffa500;" x="238.578594" xlink:href="#mffc559feab" y="27.513663"/>
    </g>
   </g>
   <g id="line2d_37">
    <path d="M 79.971009 294.88 
L 79.971009 289.637523 
L 81.348133 289.637523 
L 81.348133 286.492036 
L 82.623151 286.492036 
L 82.623151 285.967789 
L 83.810164 285.967789 
L 83.810164 283.870798 
L 84.92054 283.870798 
L 84.92054 279.152568 
L 85.963579 279.152568 
L 85.963579 276.53133 
L 86.946982 276.53133 
L 86.946982 272.337348 
L 88.759695 272.337348 
L 88.759695 269.716109 
L 91.164281 269.716109 
L 91.164281 266.570623 
L 91.896513 266.570623 
L 91.896513 262.376641 
L 92.59885 262.376641 
L 92.59885 259.231155 
L 93.273637 259.231155 
L 93.273637 258.18266 
L 93.922955 258.18266 
L 93.922955 257.134164 
L 96.299813 257.134164 
L 96.299813 253.46443 
L 96.846045 253.46443 
L 96.846045 252.940182 
L 98.38781 252.940182 
L 98.38781 251.891687 
L 98.872486 251.891687 
L 98.872486 248.221953 
L 99.802705 248.221953 
L 99.802705 247.697705 
L 101.524628 247.697705 
L 101.524628 247.173458 
L 102.711641 247.173458 
L 102.711641 246.64921 
L 103.459797 246.64921 
L 103.459797 246.124962 
L 103.822018 246.124962 
L 103.822018 245.600714 
L 104.865056 245.600714 
L 104.865056 244.552219 
L 105.848459 244.552219 
L 105.848459 242.979476 
L 107.077901 242.979476 
L 107.077901 241.93098 
L 108.225317 241.93098 
L 108.225317 239.83399 
L 109.300972 239.83399 
L 109.300972 238.261246 
L 109.559696 238.261246 
L 109.559696 236.688503 
L 111.72821 236.688503 
L 111.72821 235.640008 
L 112.175115 235.640008 
L 112.175115 235.11576 
L 112.394288 235.11576 
L 112.394288 234.067265 
L 114.053874 234.067265 
L 114.053874 233.018769 
L 114.44491 233.018769 
L 114.44491 230.921778 
L 116.621053 230.921778 
L 116.621053 230.397531 
L 118.089658 230.397531 
L 118.089658 229.873283 
L 120.289014 229.873283 
L 120.289014 228.30054 
L 120.562113 228.30054 
L 120.562113 227.252044 
L 121.226476 227.252044 
L 121.226476 226.203549 
L 124.428341 226.203549 
L 124.428341 224.630806 
L 134.22566 224.630806 
L 134.22566 224.106558 
L 136.886546 224.106558 
L 136.886546 223.058063 
L 145.304081 223.058063 
L 145.304081 222.533815 
L 148.387217 222.533815 
L 148.387217 221.485319 
L 153.846609 221.485319 
L 153.846609 220.961072 
L 158.350009 220.961072 
L 158.350009 219.912576 
L 159.752609 219.912576 
L 159.752609 218.864081 
L 160.339583 218.864081 
L 160.339583 218.339833 
L 160.645515 218.339833 
L 160.645515 217.815585 
L 164.000672 217.815585 
L 164.000672 217.291338 
L 164.226984 217.291338 
L 164.226984 216.76709 
L 168.03399 216.76709 
L 168.03399 215.194347 
L 168.37385 215.194347 
L 168.482875 214.145851 
L 181.661588 214.145851 
L 181.661588 212.573108 
L 182.117957 212.573108 
L 182.227362 207.854879 
L 182.283679 207.854879 
L 182.388314 203.660897 
L 182.395763 203.660897 
L 182.432963 201.039658 
L 186.944046 201.039658 
L 187.04666 196.321429 
L 187.058024 196.321429 
L 187.143014 191.078952 
L 187.202259 191.078952 
L 187.202259 190.030456 
L 189.239649 190.030456 
L 189.331968 185.312227 
L 189.376701 185.312227 
L 189.485561 180.06975 
L 189.520055 180.06975 
L 189.520055 179.021254 
L 190.060363 179.021254 
L 190.169737 169.584795 
L 190.193422 169.584795 
L 190.290191 161.721079 
L 192.142635 161.721079 
L 192.25008 153.857364 
L 192.273167 153.857364 
L 192.294128 151.760373 
L 200.665102 151.760373 
L 200.763978 138.65418 
L 200.873742 138.65418 
L 200.977753 124.499491 
L 201.013125 124.499491 
L 201.020695 121.878253 
L 205.415162 121.878253 
L 205.511625 109.820555 
L 207.064019 109.820555 
L 207.130477 99.335601 
L 211.594549 99.335601 
L 211.705401 98.287105 
L 211.739939 98.287105 
L 211.739939 97.762858 
L 212.463938 97.762858 
L 212.494398 95.141619 
L 212.668983 95.141619 
L 212.72849 92.520381 
L 213.375986 92.520381 
L 213.375986 91.996133 
L 214.424234 91.996133 
L 214.511412 88.850646 
L 215.180085 88.850646 
L 215.283358 87.277903 
L 215.364108 87.277903 
L 215.372874 86.229408 
L 215.754233 86.229408 
L 215.754233 85.70516 
L 215.89456 85.70516 
L 215.973555 83.083922 
L 216.013181 83.083922 
L 216.119456 82.035426 
L 216.133087 82.035426 
L 216.159795 80.462683 
L 216.378173 80.462683 
L 216.465268 78.365692 
L 216.490952 78.365692 
L 216.597895 76.268701 
L 216.695051 76.268701 
L 216.734064 75.220206 
L 217.084725 75.220206 
L 217.18115 74.17171 
L 217.219077 74.17171 
L 217.327471 72.074719 
L 217.333826 72.074719 
L 217.333826 71.550472 
L 217.759589 71.550472 
L 217.759589 71.026224 
L 218.879528 71.026224 
L 218.988636 66.832242 
L 219.464542 66.832242 
L 219.530484 64.735251 
L 219.57645 64.735251 
L 219.677401 62.638261 
L 220.067882 62.638261 
L 220.154801 61.065517 
L 220.68098 61.065517 
L 220.779672 58.968526 
L 221.207939 58.968526 
L 221.230946 57.920031 
L 221.333516 57.920031 
L 221.440868 55.82304 
L 221.758963 55.82304 
L 221.784264 53.726049 
L 221.992801 53.726049 
L 221.992801 53.201802 
L 222.410086 53.201802 
L 222.420271 52.153306 
L 223.621073 52.153306 
L 223.621073 51.629058 
L 224.463554 51.629058 
L 224.463554 51.104811 
L 224.577494 51.104811 
L 224.577494 50.580563 
L 225.429581 50.580563 
L 225.429581 50.056315 
L 225.731304 50.056315 
L 225.802256 49.00782 
L 225.851778 49.00782 
L 225.954544 47.959324 
L 226.110485 47.959324 
L 226.121339 46.910829 
L 226.310045 46.910829 
L 226.310045 46.386581 
L 226.628192 46.386581 
L 226.720772 44.813838 
L 226.885667 44.813838 
L 226.915657 43.765343 
L 227.371075 43.765343 
L 227.371075 43.241095 
L 228.015564 43.241095 
L 228.015564 42.716847 
L 228.677525 42.716847 
L 228.731535 41.144104 
L 228.98368 41.144104 
L 229.009486 39.571361 
L 229.116021 39.571361 
L 229.119717 38.522865 
L 229.372105 38.522865 
L 229.412843 37.47437 
L 229.73033 37.47437 
L 229.73033 36.950122 
L 230.75806 36.950122 
L 230.75806 36.425875 
L 232.113875 36.425875 
L 232.113875 35.901627 
L 232.664725 35.901627 
L 232.664725 35.377379 
L 232.924988 35.377379 
L 232.924988 34.853131 
L 233.549976 34.853131 
L 233.549976 34.328884 
L 234.155812 34.328884 
L 234.155812 33.804636 
L 234.327765 33.804636 
L 234.39081 32.756141 
L 234.600082 32.756141 
L 234.600082 32.231893 
L 236.390511 32.231893 
L 236.48133 31.183397 
L 236.921015 31.183397 
L 236.972755 30.134902 
L 237.063044 30.134902 
L 237.084922 29.086407 
L 237.257418 29.086407 
L 237.257418 28.562159 
L 238.576888 28.562159 
L 238.578594 27.513663 
L 333.429677 27.513663 
L 333.429677 27.513663 
" style="fill:none;stroke:#ffa500;stroke-linecap:square;stroke-width:1.5;"/>
   </g>
   <g id="line2d_38">
    <defs>
     <path d="M 0 -6 
L -1.347084 -1.854102 
L -5.706339 -1.854102 
L -2.179628 0.708204 
L -3.526712 4.854102 
L -0 2.291796 
L 3.526712 4.854102 
L 2.179628 0.708204 
L 5.706339 -1.854102 
L 1.347084 -1.854102 
z
" id="m3e7b6d2834" style="stroke:#ffa500;stroke-linejoin:bevel;stroke-width:1.5;"/>
    </defs>
    <g>
     <use style="fill-opacity:0;stroke:#ffa500;stroke-linejoin:bevel;stroke-width:1.5;" x="168.482875" xlink:href="#m3e7b6d2834" y="214.670099"/>
     <use style="fill-opacity:0;stroke:#ffa500;stroke-linejoin:bevel;stroke-width:1.5;" x="218.988636" xlink:href="#m3e7b6d2834" y="67.35649"/>
     <use style="fill-opacity:0;stroke:#ffa500;stroke-linejoin:bevel;stroke-width:1.5;" x="238.578594" xlink:href="#m3e7b6d2834" y="27.513663"/>
     <use style="fill-opacity:0;stroke:#ffa500;stroke-linejoin:bevel;stroke-width:1.5;" x="238.578594" xlink:href="#m3e7b6d2834" y="27.513663"/>
     <use style="fill-opacity:0;stroke:#ffa500;stroke-linejoin:bevel;stroke-width:1.5;" x="333.429677" xlink:href="#m3e7b6d2834" y="27.513663"/>
    </g>
   </g>
   <g id="line2d_39">
    <path style="fill:none;stroke:#ffa500;stroke-linecap:square;stroke-width:1.5;"/>
    <g/>
   </g>
   <g id="line2d_40">
    <path clip-path="url(#p96bf2fe1b2)" d="M 212.428875 97.762858 
" style="fill:none;stroke:#ffa500;stroke-linecap:square;stroke-width:1.5;"/>
    <defs>
     <path d="M -12 12 
L 12 -12 
M -12 -12 
L 12 12 
" id="ma93c1dd3a2" style="stroke:#ffa500;stroke-width:3;"/>
    </defs>
    <g clip-path="url(#p96bf2fe1b2)">
     <use style="fill:#ffa500;stroke:#ffa500;stroke-width:3;" x="212.428875" xlink:href="#ma93c1dd3a2" y="97.762858"/>
    </g>
   </g>
   <g id="line2d_41">
    <defs>
     <path d="M 0 1.5 
C 0.397805 1.5 0.77937 1.341951 1.06066 1.06066 
C 1.341951 0.77937 1.5 0.397805 1.5 0 
C 1.5 -0.397805 1.341951 -0.77937 1.06066 -1.06066 
C 0.77937 -1.341951 0.397805 -1.5 0 -1.5 
C -0.397805 -1.5 -0.77937 -1.341951 -1.06066 -1.06066 
C -1.341951 -0.77937 -1.5 -0.397805 -1.5 0 
C -1.5 0.397805 -1.341951 0.77937 -1.06066 1.06066 
C -0.77937 1.341951 -0.397805 1.5 0 1.5 
z
" id="mbf7b2becdb" style="stroke:#6495ed;"/>
    </defs>
    <g>
     <use style="fill:#6495ed;stroke:#6495ed;" x="128.202449" xlink:href="#mbf7b2becdb" y="252.940182"/>
     <use style="fill:#6495ed;stroke:#6495ed;" x="128.202449" xlink:href="#mbf7b2becdb" y="252.940182"/>
    </g>
   </g>
   <g id="line2d_42">
    <path d="M 56.12 294.88 
L 56.12 292.258761 
L 68.045504 292.258761 
L 68.045504 291.210266 
L 76.834191 291.210266 
L 76.834191 284.919293 
L 78.47399 284.919293 
L 78.47399 283.870798 
L 84.92054 283.870798 
L 84.92054 281.249559 
L 87.877201 281.249559 
L 87.877201 280.725312 
L 91.164281 280.725312 
L 91.164281 278.104073 
L 91.896513 278.104073 
L 91.896513 274.958587 
L 95.152397 274.958587 
L 95.152397 272.337348 
L 98.872486 272.337348 
L 98.872486 270.764605 
L 99.343882 270.764605 
L 99.343882 268.667614 
L 101.524628 268.667614 
L 101.524628 267.094871 
L 104.17677 267.094871 
L 104.17677 264.99788 
L 104.524355 264.99788 
L 104.524355 264.473632 
L 106.164154 264.473632 
L 106.164154 263.949385 
L 108.225317 263.949385 
L 108.225317 262.376641 
L 108.500601 262.376641 
L 108.500601 260.803898 
L 111.500328 260.803898 
L 111.500328 259.755403 
L 114.250503 259.755403 
L 114.250503 259.231155 
L 114.44491 259.231155 
L 114.44491 258.706907 
L 115.385301 258.706907 
L 115.385301 258.18266 
L 116.621053 258.18266 
L 116.621053 257.658412 
L 117.613917 257.658412 
L 117.613917 257.134164 
L 118.854445 257.134164 
L 118.854445 256.609917 
L 119.586677 256.609917 
L 119.586677 256.085669 
L 120.697054 256.085669 
L 120.697054 255.561421 
L 123.878618 255.561421 
L 123.878618 255.037173 
L 126.56265 255.037173 
L 126.56265 254.512926 
L 128.202449 254.512926 
L 128.202449 252.940182 
L 333.429677 252.940182 
" style="fill:none;stroke:#6495ed;stroke-linecap:square;stroke-width:1.5;"/>
   </g>
   <g id="line2d_43">
    <defs>
     <path d="M -0 6 
L 6 -6 
L -6 -6 
z
" id="m009a2463e2" style="stroke:#6495ed;stroke-linejoin:miter;stroke-width:1.5;"/>
    </defs>
    <g>
     <use style="fill-opacity:0;stroke:#6495ed;stroke-linejoin:miter;stroke-width:1.5;" x="128.202449" xlink:href="#m009a2463e2" y="254.512926"/>
     <use style="fill-opacity:0;stroke:#6495ed;stroke-linejoin:miter;stroke-width:1.5;" x="128.202449" xlink:href="#m009a2463e2" y="252.940182"/>
     <use style="fill-opacity:0;stroke:#6495ed;stroke-linejoin:miter;stroke-width:1.5;" x="128.202449" xlink:href="#m009a2463e2" y="252.940182"/>
     <use style="fill-opacity:0;stroke:#6495ed;stroke-linejoin:miter;stroke-width:1.5;" x="128.202449" xlink:href="#m009a2463e2" y="252.940182"/>
     <use style="fill-opacity:0;stroke:#6495ed;stroke-linejoin:miter;stroke-width:1.5;" x="333.429677" xlink:href="#m009a2463e2" y="252.940182"/>
    </g>
   </g>
   <g id="line2d_44">
    <path style="fill:none;stroke:#6495ed;stroke-linecap:square;stroke-width:1.5;"/>
    <g/>
   </g>
   <g id="line2d_45">
    <path clip-path="url(#p96bf2fe1b2)" d="M 81.348133 283.870798 
" style="fill:none;stroke:#6495ed;stroke-linecap:square;stroke-width:1.5;"/>
    <defs>
     <path d="M -12 12 
L 12 -12 
M -12 -12 
L 12 12 
" id="mc6acb39fcf" style="stroke:#6495ed;stroke-width:3;"/>
    </defs>
    <g clip-path="url(#p96bf2fe1b2)">
     <use style="fill:#6495ed;stroke:#6495ed;stroke-width:3;" x="81.348133" xlink:href="#mc6acb39fcf" y="283.870798"/>
    </g>
   </g>
   <g id="line2d_46">
    <path d="M 333.429677 252.940182 
L 363.933742 289.532673 
" style="fill:none;stroke:#6495ed;stroke-linecap:square;stroke-width:1.5;"/>
    <g>
     <use style="fill-opacity:0;stroke:#6495ed;stroke-linejoin:miter;stroke-width:1.5;" x="333.429677" xlink:href="#m009a2463e2" y="252.940182"/>
     <use style="fill-opacity:0;stroke:#6495ed;stroke-linejoin:miter;stroke-width:1.5;" x="363.933742" xlink:href="#m009a2463e2" y="289.532673"/>
    </g>
   </g>
   <g id="line2d_47">
    <path d="M 333.429677 27.513663 
L 363.933742 225.364752 
" style="fill:none;stroke:#000080;stroke-linecap:square;stroke-width:1.5;"/>
    <g>
     <use style="fill-opacity:0;stroke:#000080;stroke-width:1.5;" x="333.429677" xlink:href="#med29a1ede1" y="27.513663"/>
     <use style="fill-opacity:0;stroke:#000080;stroke-width:1.5;" x="363.933742" xlink:href="#med29a1ede1" y="225.364752"/>
    </g>
   </g>
   <g id="line2d_48">
    <path d="M 333.429677 27.513663 
L 363.933742 161.196832 
" style="fill:none;stroke:#ffa500;stroke-linecap:square;stroke-width:1.5;"/>
    <g>
     <use style="fill-opacity:0;stroke:#ffa500;stroke-linejoin:bevel;stroke-width:1.5;" x="333.429677" xlink:href="#m3e7b6d2834" y="27.513663"/>
     <use style="fill-opacity:0;stroke:#ffa500;stroke-linejoin:bevel;stroke-width:1.5;" x="363.933742" xlink:href="#m3e7b6d2834" y="161.196832"/>
    </g>
   </g>
   <g id="line2d_49">
    <path d="M 333.429677 27.513663 
L 363.933742 97.028911 
" style="fill:none;stroke:#ff00ff;stroke-linecap:square;stroke-width:1.5;"/>
    <g>
     <use style="fill-opacity:0;stroke:#ff00ff;stroke-linejoin:miter;stroke-width:1.5;" x="333.429677" xlink:href="#md1af814bdc" y="27.513663"/>
     <use style="fill-opacity:0;stroke:#ff00ff;stroke-linejoin:miter;stroke-width:1.5;" x="363.933742" xlink:href="#md1af814bdc" y="97.028911"/>
    </g>
   </g>
   <g id="line2d_50">
    <path d="M 333.429677 294.88 
L 333.429677 27.513663 
" style="fill:none;stroke:#000000;stroke-linecap:square;stroke-width:1.5;"/>
   </g>
   <g id="patch_3">
    <path d="M 56.12 294.88 
L 56.12 24.84 
" style="fill:none;stroke:#000000;stroke-linecap:square;stroke-linejoin:miter;stroke-width:0.8;"/>
   </g>
   <g id="patch_4">
    <path d="M 399.984 294.88 
L 399.984 24.84 
" style="fill:none;stroke:#000000;stroke-linecap:square;stroke-linejoin:miter;stroke-width:0.8;"/>
   </g>
   <g id="patch_5">
    <path d="M 56.12 294.88 
L 399.984 294.88 
" style="fill:none;stroke:#000000;stroke-linecap:square;stroke-linejoin:miter;stroke-width:0.8;"/>
   </g>
   <g id="patch_6">
    <path d="M 56.12 24.84 
L 399.984 24.84 
" style="fill:none;stroke:#000000;stroke-linecap:square;stroke-linejoin:miter;stroke-width:0.8;"/>
   </g>
   <g id="text_14">
    <!-- hybrid -->
    <defs>
     <path d="M 54.890625 33.015625 
L 54.890625 0 
L 45.90625 0 
L 45.90625 32.71875 
Q 45.90625 40.484375 42.875 44.328125 
Q 39.84375 48.1875 33.796875 48.1875 
Q 26.515625 48.1875 22.3125 43.546875 
Q 18.109375 38.921875 18.109375 30.90625 
L 18.109375 0 
L 9.078125 0 
L 9.078125 75.984375 
L 18.109375 75.984375 
L 18.109375 46.1875 
Q 21.34375 51.125 25.703125 53.5625 
Q 30.078125 56 35.796875 56 
Q 45.21875 56 50.046875 50.171875 
Q 54.890625 44.34375 54.890625 33.015625 
z
" id="DejaVuSans-68"/>
     <path d="M 32.171875 -5.078125 
Q 28.375 -14.84375 24.75 -17.8125 
Q 21.140625 -20.796875 15.09375 -20.796875 
L 7.90625 -20.796875 
L 7.90625 -13.28125 
L 13.1875 -13.28125 
Q 16.890625 -13.28125 18.9375 -11.515625 
Q 21 -9.765625 23.484375 -3.21875 
L 25.09375 0.875 
L 2.984375 54.6875 
L 12.5 54.6875 
L 29.59375 11.921875 
L 46.6875 54.6875 
L 56.203125 54.6875 
z
" id="DejaVuSans-79"/>
     <path d="M 48.6875 27.296875 
Q 48.6875 37.203125 44.609375 42.84375 
Q 40.53125 48.484375 33.40625 48.484375 
Q 26.265625 48.484375 22.1875 42.84375 
Q 18.109375 37.203125 18.109375 27.296875 
Q 18.109375 17.390625 22.1875 11.75 
Q 26.265625 6.109375 33.40625 6.109375 
Q 40.53125 6.109375 44.609375 11.75 
Q 48.6875 17.390625 48.6875 27.296875 
z
M 18.109375 46.390625 
Q 20.953125 51.265625 25.265625 53.625 
Q 29.59375 56 35.59375 56 
Q 45.5625 56 51.78125 48.09375 
Q 58.015625 40.1875 58.015625 27.296875 
Q 58.015625 14.40625 51.78125 6.484375 
Q 45.5625 -1.421875 35.59375 -1.421875 
Q 29.59375 -1.421875 25.265625 0.953125 
Q 20.953125 3.328125 18.109375 8.203125 
L 18.109375 0 
L 9.078125 0 
L 9.078125 75.984375 
L 18.109375 75.984375 
z
" id="DejaVuSans-62"/>
    </defs>
    <g transform="translate(369.479935 294.223611)scale(0.17 -0.17)">
     <use xlink:href="#DejaVuSans-68"/>
     <use x="63.378906" xlink:href="#DejaVuSans-79"/>
     <use x="122.558594" xlink:href="#DejaVuSans-62"/>
     <use x="186.035156" xlink:href="#DejaVuSans-72"/>
     <use x="227.148438" xlink:href="#DejaVuSans-69"/>
     <use x="254.931641" xlink:href="#DejaVuSans-64"/>
    </g>
   </g>
   <g id="text_15">
    <!-- DASA -->
    <defs>
     <path d="M 19.671875 64.796875 
L 19.671875 8.109375 
L 31.59375 8.109375 
Q 46.6875 8.109375 53.6875 14.9375 
Q 60.6875 21.78125 60.6875 36.53125 
Q 60.6875 51.171875 53.6875 57.984375 
Q 46.6875 64.796875 31.59375 64.796875 
z
M 9.8125 72.90625 
L 30.078125 72.90625 
Q 51.265625 72.90625 61.171875 64.09375 
Q 71.09375 55.28125 71.09375 36.53125 
Q 71.09375 17.671875 61.125 8.828125 
Q 51.171875 0 30.078125 0 
L 9.8125 0 
z
" id="DejaVuSans-44"/>
     <path d="M 34.1875 63.1875 
L 20.796875 26.90625 
L 47.609375 26.90625 
z
M 28.609375 72.90625 
L 39.796875 72.90625 
L 67.578125 0 
L 57.328125 0 
L 50.6875 18.703125 
L 17.828125 18.703125 
L 11.1875 0 
L 0.78125 0 
z
" id="DejaVuSans-41"/>
     <path d="M 53.515625 70.515625 
L 53.515625 60.890625 
Q 47.90625 63.578125 42.921875 64.890625 
Q 37.9375 66.21875 33.296875 66.21875 
Q 25.25 66.21875 20.875 63.09375 
Q 16.5 59.96875 16.5 54.203125 
Q 16.5 49.359375 19.40625 46.890625 
Q 22.3125 44.4375 30.421875 42.921875 
L 36.375 41.703125 
Q 47.40625 39.59375 52.65625 34.296875 
Q 57.90625 29 57.90625 20.125 
Q 57.90625 9.515625 50.796875 4.046875 
Q 43.703125 -1.421875 29.984375 -1.421875 
Q 24.8125 -1.421875 18.96875 -0.25 
Q 13.140625 0.921875 6.890625 3.21875 
L 6.890625 13.375 
Q 12.890625 10.015625 18.65625 8.296875 
Q 24.421875 6.59375 29.984375 6.59375 
Q 38.421875 6.59375 43.015625 9.90625 
Q 47.609375 13.234375 47.609375 19.390625 
Q 47.609375 24.75 44.3125 27.78125 
Q 41.015625 30.8125 33.5 32.328125 
L 27.484375 33.5 
Q 16.453125 35.6875 11.515625 40.375 
Q 6.59375 45.0625 6.59375 53.421875 
Q 6.59375 63.09375 13.40625 68.65625 
Q 20.21875 74.21875 32.171875 74.21875 
Q 37.3125 74.21875 42.625 73.28125 
Q 47.953125 72.359375 53.515625 70.515625 
z
" id="DejaVuSans-53"/>
    </defs>
    <g transform="translate(369.479935 230.05569)scale(0.17 -0.17)">
     <use xlink:href="#DejaVuSans-44"/>
     <use x="76.986328" xlink:href="#DejaVuSans-41"/>
     <use x="145.394531" xlink:href="#DejaVuSans-53"/>
     <use x="208.886719" xlink:href="#DejaVuSans-41"/>
    </g>
   </g>
   <g id="text_16">
    <!-- Rosenbroc -->
    <defs>
     <path d="M 44.390625 34.1875 
Q 47.5625 33.109375 50.5625 29.59375 
Q 53.5625 26.078125 56.59375 19.921875 
L 66.609375 0 
L 56 0 
L 46.6875 18.703125 
Q 43.0625 26.03125 39.671875 28.421875 
Q 36.28125 30.8125 30.421875 30.8125 
L 19.671875 30.8125 
L 19.671875 0 
L 9.8125 0 
L 9.8125 72.90625 
L 32.078125 72.90625 
Q 44.578125 72.90625 50.734375 67.671875 
Q 56.890625 62.453125 56.890625 51.90625 
Q 56.890625 45.015625 53.6875 40.46875 
Q 50.484375 35.9375 44.390625 34.1875 
z
M 19.671875 64.796875 
L 19.671875 38.921875 
L 32.078125 38.921875 
Q 39.203125 38.921875 42.84375 42.21875 
Q 46.484375 45.515625 46.484375 51.90625 
Q 46.484375 58.296875 42.84375 61.546875 
Q 39.203125 64.796875 32.078125 64.796875 
z
" id="DejaVuSans-52"/>
    </defs>
    <g transform="translate(369.479935 165.887769)scale(0.17 -0.17)">
     <use xlink:href="#DejaVuSans-52"/>
     <use x="69.419922" xlink:href="#DejaVuSans-6f"/>
     <use x="130.601562" xlink:href="#DejaVuSans-73"/>
     <use x="182.701172" xlink:href="#DejaVuSans-65"/>
     <use x="244.224609" xlink:href="#DejaVuSans-6e"/>
     <use x="307.603516" xlink:href="#DejaVuSans-62"/>
     <use x="371.080078" xlink:href="#DejaVuSans-72"/>
     <use x="412.162109" xlink:href="#DejaVuSans-6f"/>
     <use x="473.34375" xlink:href="#DejaVuSans-63"/>
    </g>
   </g>
   <g id="text_17">
    <!-- GA -->
    <defs>
     <path d="M 59.515625 10.40625 
L 59.515625 29.984375 
L 43.40625 29.984375 
L 43.40625 38.09375 
L 69.28125 38.09375 
L 69.28125 6.78125 
Q 63.578125 2.734375 56.6875 0.65625 
Q 49.8125 -1.421875 42 -1.421875 
Q 24.90625 -1.421875 15.25 8.5625 
Q 5.609375 18.5625 5.609375 36.375 
Q 5.609375 54.25 15.25 64.234375 
Q 24.90625 74.21875 42 74.21875 
Q 49.125 74.21875 55.546875 72.453125 
Q 61.96875 70.703125 67.390625 67.28125 
L 67.390625 56.78125 
Q 61.921875 61.421875 55.765625 63.765625 
Q 49.609375 66.109375 42.828125 66.109375 
Q 29.4375 66.109375 22.71875 58.640625 
Q 16.015625 51.171875 16.015625 36.375 
Q 16.015625 21.625 22.71875 14.15625 
Q 29.4375 6.6875 42.828125 6.6875 
Q 48.046875 6.6875 52.140625 7.59375 
Q 56.25 8.5 59.515625 10.40625 
z
" id="DejaVuSans-47"/>
    </defs>
    <g transform="translate(369.479935 101.719848)scale(0.17 -0.17)">
     <use xlink:href="#DejaVuSans-47"/>
     <use x="77.490234" xlink:href="#DejaVuSans-41"/>
    </g>
   </g>
   <g id="text_18">
    <!-- best 2009 -->
    <defs>
     <path d="M 10.984375 1.515625 
L 10.984375 10.5 
Q 14.703125 8.734375 18.5 7.8125 
Q 22.3125 6.890625 25.984375 6.890625 
Q 35.75 6.890625 40.890625 13.453125 
Q 46.046875 20.015625 46.78125 33.40625 
Q 43.953125 29.203125 39.59375 26.953125 
Q 35.25 24.703125 29.984375 24.703125 
Q 19.046875 24.703125 12.671875 31.3125 
Q 6.296875 37.9375 6.296875 49.421875 
Q 6.296875 60.640625 12.9375 67.421875 
Q 19.578125 74.21875 30.609375 74.21875 
Q 43.265625 74.21875 49.921875 64.515625 
Q 56.59375 54.828125 56.59375 36.375 
Q 56.59375 19.140625 48.40625 8.859375 
Q 40.234375 -1.421875 26.421875 -1.421875 
Q 22.703125 -1.421875 18.890625 -0.6875 
Q 15.09375 0.046875 10.984375 1.515625 
z
M 30.609375 32.421875 
Q 37.25 32.421875 41.125 36.953125 
Q 45.015625 41.5 45.015625 49.421875 
Q 45.015625 57.28125 41.125 61.84375 
Q 37.25 66.40625 30.609375 66.40625 
Q 23.96875 66.40625 20.09375 61.84375 
Q 16.21875 57.28125 16.21875 49.421875 
Q 16.21875 41.5 20.09375 36.953125 
Q 23.96875 32.421875 30.609375 32.421875 
z
" id="DejaVuSans-39"/>
    </defs>
    <g transform="translate(369.479935 37.551928)scale(0.17 -0.17)">
     <use xlink:href="#DejaVuSans-62"/>
     <use x="63.476562" xlink:href="#DejaVuSans-65"/>
     <use x="125" xlink:href="#DejaVuSans-73"/>
     <use x="177.099609" xlink:href="#DejaVuSans-74"/>
     <use x="216.308594" xlink:href="#DejaVuSans-20"/>
     <use x="248.095703" xlink:href="#DejaVuSans-32"/>
     <use x="311.71875" xlink:href="#DejaVuSans-30"/>
     <use x="375.341797" xlink:href="#DejaVuSans-30"/>
     <use x="438.964844" xlink:href="#DejaVuSans-39"/>
    </g>
   </g>
   <g id="text_19">
    <!-- bbob f20, 3-D -->
    <defs>
     <path d="M 40.578125 39.3125 
Q 47.65625 37.796875 51.625 33 
Q 55.609375 28.21875 55.609375 21.1875 
Q 55.609375 10.40625 48.1875 4.484375 
Q 40.765625 -1.421875 27.09375 -1.421875 
Q 22.515625 -1.421875 17.65625 -0.515625 
Q 12.796875 0.390625 7.625 2.203125 
L 7.625 11.71875 
Q 11.71875 9.328125 16.59375 8.109375 
Q 21.484375 6.890625 26.8125 6.890625 
Q 36.078125 6.890625 40.9375 10.546875 
Q 45.796875 14.203125 45.796875 21.1875 
Q 45.796875 27.640625 41.28125 31.265625 
Q 36.765625 34.90625 28.71875 34.90625 
L 20.21875 34.90625 
L 20.21875 43.015625 
L 29.109375 43.015625 
Q 36.375 43.015625 40.234375 45.921875 
Q 44.09375 48.828125 44.09375 54.296875 
Q 44.09375 59.90625 40.109375 62.90625 
Q 36.140625 65.921875 28.71875 65.921875 
Q 24.65625 65.921875 20.015625 65.03125 
Q 15.375 64.15625 9.8125 62.3125 
L 9.8125 71.09375 
Q 15.4375 72.65625 20.34375 73.4375 
Q 25.25 74.21875 29.59375 74.21875 
Q 40.828125 74.21875 47.359375 69.109375 
Q 53.90625 64.015625 53.90625 55.328125 
Q 53.90625 49.265625 50.4375 45.09375 
Q 46.96875 40.921875 40.578125 39.3125 
z
" id="DejaVuSans-33"/>
    </defs>
    <g transform="translate(59.55864 35.290806)scale(0.102 -0.102)">
     <use xlink:href="#DejaVuSans-62"/>
     <use x="63.476562" xlink:href="#DejaVuSans-62"/>
     <use x="126.953125" xlink:href="#DejaVuSans-6f"/>
     <use x="188.134766" xlink:href="#DejaVuSans-62"/>
     <use x="251.611328" xlink:href="#DejaVuSans-20"/>
     <use x="283.398438" xlink:href="#DejaVuSans-66"/>
     <use x="318.603516" xlink:href="#DejaVuSans-32"/>
     <use x="382.226562" xlink:href="#DejaVuSans-30"/>
     <use x="445.849609" xlink:href="#DejaVuSans-2c"/>
     <use x="477.636719" xlink:href="#DejaVuSans-20"/>
     <use x="509.423828" xlink:href="#DejaVuSans-33"/>
     <use x="573.046875" xlink:href="#DejaVuSans-2d"/>
     <use x="609.130859" xlink:href="#DejaVuSans-44"/>
    </g>
    <!-- 51 targets: 100..1e-08 -->
    <defs>
     <path d="M 10.796875 72.90625 
L 49.515625 72.90625 
L 49.515625 64.59375 
L 19.828125 64.59375 
L 19.828125 46.734375 
Q 21.96875 47.46875 24.109375 47.828125 
Q 26.265625 48.1875 28.421875 48.1875 
Q 40.625 48.1875 47.75 41.5 
Q 54.890625 34.8125 54.890625 23.390625 
Q 54.890625 11.625 47.5625 5.09375 
Q 40.234375 -1.421875 26.90625 -1.421875 
Q 22.3125 -1.421875 17.546875 -0.640625 
Q 12.796875 0.140625 7.71875 1.703125 
L 7.71875 11.625 
Q 12.109375 9.234375 16.796875 8.0625 
Q 21.484375 6.890625 26.703125 6.890625 
Q 35.15625 6.890625 40.078125 11.328125 
Q 45.015625 15.765625 45.015625 23.390625 
Q 45.015625 31 40.078125 35.4375 
Q 35.15625 39.890625 26.703125 39.890625 
Q 22.75 39.890625 18.8125 39.015625 
Q 14.890625 38.140625 10.796875 36.28125 
z
" id="DejaVuSans-35"/>
     <path d="M 11.71875 12.40625 
L 22.015625 12.40625 
L 22.015625 0 
L 11.71875 0 
z
M 11.71875 51.703125 
L 22.015625 51.703125 
L 22.015625 39.3125 
L 11.71875 39.3125 
z
" id="DejaVuSans-3a"/>
    </defs>
    <g transform="translate(59.55864 46.712575)scale(0.102 -0.102)">
     <use xlink:href="#DejaVuSans-35"/>
     <use x="63.623047" xlink:href="#DejaVuSans-31"/>
     <use x="127.246094" xlink:href="#DejaVuSans-20"/>
     <use x="159.033203" xlink:href="#DejaVuSans-74"/>
     <use x="198.242188" xlink:href="#DejaVuSans-61"/>
     <use x="259.521484" xlink:href="#DejaVuSans-72"/>
     <use x="300.619141" xlink:href="#DejaVuSans-67"/>
     <use x="364.095703" xlink:href="#DejaVuSans-65"/>
     <use x="425.619141" xlink:href="#DejaVuSans-74"/>
     <use x="464.828125" xlink:href="#DejaVuSans-73"/>
     <use x="516.927734" xlink:href="#DejaVuSans-3a"/>
     <use x="550.619141" xlink:href="#DejaVuSans-20"/>
     <use x="582.40625" xlink:href="#DejaVuSans-31"/>
     <use x="646.029297" xlink:href="#DejaVuSans-30"/>
     <use x="709.652344" xlink:href="#DejaVuSans-30"/>
     <use x="773.275391" xlink:href="#DejaVuSans-2e"/>
     <use x="805.0625" xlink:href="#DejaVuSans-2e"/>
     <use x="836.849609" xlink:href="#DejaVuSans-31"/>
     <use x="900.472656" xlink:href="#DejaVuSans-65"/>
     <use x="961.996094" xlink:href="#DejaVuSans-2d"/>
     <use x="998.080078" xlink:href="#DejaVuSans-30"/>
     <use x="1061.703125" xlink:href="#DejaVuSans-38"/>
    </g>
    <!-- 15 instances -->
    <g transform="translate(59.55864 58.134344)scale(0.102 -0.102)">
     <use xlink:href="#DejaVuSans-31"/>
     <use x="63.623047" xlink:href="#DejaVuSans-35"/>
     <use x="127.246094" xlink:href="#DejaVuSans-20"/>
     <use x="159.033203" xlink:href="#DejaVuSans-69"/>
     <use x="186.816406" xlink:href="#DejaVuSans-6e"/>
     <use x="250.195312" xlink:href="#DejaVuSans-73"/>
     <use x="302.294922" xlink:href="#DejaVuSans-74"/>
     <use x="341.503906" xlink:href="#DejaVuSans-61"/>
     <use x="402.783203" xlink:href="#DejaVuSans-6e"/>
     <use x="466.162109" xlink:href="#DejaVuSans-63"/>
     <use x="521.142578" xlink:href="#DejaVuSans-65"/>
     <use x="582.666016" xlink:href="#DejaVuSans-73"/>
    </g>
   </g>
   <g id="text_20">
    <!-- v-coco-version -->
    <g style="fill:#808080;" transform="translate(191.556688 290.099912)scale(0.1 -0.1)">
     <use xlink:href="#DejaVuSans-76"/>
     <use x="59.148438" xlink:href="#DejaVuSans-2d"/>
     <use x="95.232422" xlink:href="#DejaVuSans-63"/>
     <use x="150.212891" xlink:href="#DejaVuSans-6f"/>
     <use x="211.394531" xlink:href="#DejaVuSans-63"/>
     <use x="266.375" xlink:href="#DejaVuSans-6f"/>
     <use x="327.572266" xlink:href="#DejaVuSans-2d"/>
     <use x="363.625" xlink:href="#DejaVuSans-76"/>
     <use x="422.804688" xlink:href="#DejaVuSans-65"/>
     <use x="484.328125" xlink:href="#DejaVuSans-72"/>
     <use x="525.441406" xlink:href="#DejaVuSans-73"/>
     <use x="577.541016" xlink:href="#DejaVuSans-69"/>
     <use x="605.324219" xlink:href="#DejaVuSans-6f"/>
     <use x="666.505859" xlink:href="#DejaVuSans-6e"/>
    </g>
   </g>
   <g id="text_21">
    <!-- 20 Schwefel x*sin(x) -->
    <defs>
     <path d="M 4.203125 54.6875 
L 13.1875 54.6875 
L 24.421875 12.015625 
L 35.59375 54.6875 
L 46.1875 54.6875 
L 57.421875 12.015625 
L 68.609375 54.6875 
L 77.59375 54.6875 
L 63.28125 0 
L 52.6875 0 
L 40.921875 44.828125 
L 29.109375 0 
L 18.5 0 
z
" id="DejaVuSans-77"/>
     <path d="M 54.890625 54.6875 
L 35.109375 28.078125 
L 55.90625 0 
L 45.3125 0 
L 29.390625 21.484375 
L 13.484375 0 
L 2.875 0 
L 24.125 28.609375 
L 4.6875 54.6875 
L 15.28125 54.6875 
L 29.78125 35.203125 
L 44.28125 54.6875 
z
" id="DejaVuSans-78"/>
     <path d="M 47.015625 60.890625 
L 29.5 51.421875 
L 47.015625 41.890625 
L 44.1875 37.109375 
L 27.78125 47.015625 
L 27.78125 28.609375 
L 22.21875 28.609375 
L 22.21875 47.015625 
L 5.8125 37.109375 
L 2.984375 41.890625 
L 20.515625 51.421875 
L 2.984375 60.890625 
L 5.8125 65.71875 
L 22.21875 55.8125 
L 22.21875 74.21875 
L 27.78125 74.21875 
L 27.78125 55.8125 
L 44.1875 65.71875 
z
" id="DejaVuSans-2a"/>
    </defs>
    <g transform="translate(125.037938 18.84)scale(0.2 -0.2)">
     <use xlink:href="#DejaVuSans-32"/>
     <use x="63.623047" xlink:href="#DejaVuSans-30"/>
     <use x="127.246094" xlink:href="#DejaVuSans-20"/>
     <use x="159.033203" xlink:href="#DejaVuSans-53"/>
     <use x="222.509766" xlink:href="#DejaVuSans-63"/>
     <use x="277.490234" xlink:href="#DejaVuSans-68"/>
     <use x="340.869141" xlink:href="#DejaVuSans-77"/>
     <use x="422.65625" xlink:href="#DejaVuSans-65"/>
     <use x="484.179688" xlink:href="#DejaVuSans-66"/>
     <use x="519.384766" xlink:href="#DejaVuSans-65"/>
     <use x="580.908203" xlink:href="#DejaVuSans-6c"/>
     <use x="608.691406" xlink:href="#DejaVuSans-20"/>
     <use x="640.478516" xlink:href="#DejaVuSans-78"/>
     <use x="699.658203" xlink:href="#DejaVuSans-2a"/>
     <use x="749.658203" xlink:href="#DejaVuSans-73"/>
     <use x="801.757812" xlink:href="#DejaVuSans-69"/>
     <use x="829.541016" xlink:href="#DejaVuSans-6e"/>
     <use x="892.919922" xlink:href="#DejaVuSans-28"/>
     <use x="931.933594" xlink:href="#DejaVuSans-78"/>
     <use x="991.113281" xlink:href="#DejaVuSans-29"/>
    </g>
   </g>
  </g>
 </g>
 <defs>
  <clipPath id="p96bf2fe1b2">
   <rect height="270.04" width="343.864" x="56.12" y="24.84"/>
  </clipPath>
 </defs>
</svg>
