<?xml version="1.0" encoding="utf-8" standalone="no"?>
<!DOCTYPE svg PUBLIC "-//W3C//DTD SVG 1.1//EN"
  "http://www.w3.org/Graphics/SVG/1.1/DTD/svg11.dtd">
<!-- Created with matplotlib (http://matplotlib.org/) -->
<svg height="345.6pt" version="1.1" viewBox="0 0 460.8 345.6" width="460.8pt" xmlns="http://www.w3.org/2000/svg" xmlns:xlink="http://www.w3.org/1999/xlink">
 <defs>
  <style type="text/css">
*{stroke-linecap:butt;stroke-linejoin:round;}
  </style>
 </defs>
 <g id="figure_1">
  <g id="patch_1">
   <path d="M 0 345.6 
L 460.8 345.6 
L 460.8 0 
L 0 0 
z
" style="fill:#ffffff;"/>
  </g>
  <g id="axes_1">
   <g id="patch_2">
    <path d="M 56.12 294.88 
L 399.984 294.88 
L 399.984 24.84 
L 56.12 24.84 
z
" style="fill:#ffffff;"/>
   </g>
   <g id="line2d_1">
    <path d="M 56.12 294.88 
L 56.12 289.637523 
L 61.069532 289.637523 
L 61.069532 284.395046 
L 64.908686 284.395046 
L 64.908686 279.152568 
L 72.995036 279.152568 
L 72.995036 268.667614 
L 78.47399 268.667614 
L 78.47399 263.425137 
L 87.877201 263.425137 
L 87.877201 258.18266 
L 92.59885 258.18266 
L 92.59885 252.940182 
L 99.802705 252.940182 
L 99.802705 247.697705 
L 100.24961 247.697705 
L 100.24961 242.455228 
L 109.038297 242.455228 
L 109.038297 237.212751 
L 112.394288 237.212751 
L 112.394288 231.970274 
L 125.979378 231.970274 
L 125.979378 226.727797 
L 129.699468 226.727797 
L 129.699468 221.485319 
L 132.006811 221.485319 
L 132.006811 216.242842 
L 137.60566 216.242842 
L 137.60566 211.000365 
L 138.34418 211.000365 
L 138.34418 205.757888 
L 138.725467 205.757888 
L 138.725467 200.515411 
L 139.14455 200.515411 
L 139.14455 195.272933 
L 139.598531 195.272933 
L 139.598531 190.030456 
L 142.854414 190.030456 
L 142.854414 184.787979 
L 143.075465 184.787979 
L 143.075465 179.545502 
L 143.437686 179.545502 
L 143.437686 174.303025 
L 143.509224 174.303025 
L 143.509224 74.695958 
L 143.862519 74.695958 
L 143.862519 69.453481 
L 144.480724 69.453481 
L 144.480724 64.211004 
L 144.81481 64.211004 
L 144.81481 58.968526 
L 145.304081 58.968526 
L 145.304081 53.726049 
L 145.935523 53.726049 
L 145.935523 48.483572 
L 146.333872 48.483572 
L 146.333872 43.241095 
L 146.899971 43.241095 
L 146.899971 37.998618 
L 147.334095 37.998618 
L 147.334095 32.756141 
L 147.673676 32.756141 
L 147.673676 27.513663 
L 333.429677 27.513663 
" style="fill:none;stroke:#f5deb3;stroke-linecap:square;stroke-width:6;"/>
   </g>
   <g id="line2d_2">
    <defs>
     <path d="M -0 7.778175 
L 7.778175 0 
L 0 -7.778175 
L -7.778175 -0 
z
" id="mbb83a71604" style="stroke:#f5deb3;stroke-linejoin:miter;stroke-width:1.5;"/>
    </defs>
    <g>
     <use style="fill:#f5deb3;stroke:#f5deb3;stroke-linejoin:miter;stroke-width:1.5;" x="139.14455" xlink:href="#mbb83a71604" y="195.272933"/>
     <use style="fill:#f5deb3;stroke:#f5deb3;stroke-linejoin:miter;stroke-width:1.5;" x="145.304081" xlink:href="#mbb83a71604" y="53.726049"/>
     <use style="fill:#f5deb3;stroke:#f5deb3;stroke-linejoin:miter;stroke-width:1.5;" x="147.673676" xlink:href="#mbb83a71604" y="27.513663"/>
     <use style="fill:#f5deb3;stroke:#f5deb3;stroke-linejoin:miter;stroke-width:1.5;" x="147.673676" xlink:href="#mbb83a71604" y="27.513663"/>
     <use style="fill:#f5deb3;stroke:#f5deb3;stroke-linejoin:miter;stroke-width:1.5;" x="333.429677" xlink:href="#mbb83a71604" y="27.513663"/>
    </g>
   </g>
   <g id="line2d_3">
    <path style="fill:none;stroke:#f5deb3;stroke-linecap:square;stroke-width:6;"/>
    <g/>
   </g>
   <g id="line2d_4">
    <path d="M 333.429677 27.513663 
L 363.933742 32.86099 
" style="fill:none;stroke:#f5deb3;stroke-linecap:square;stroke-width:6;"/>
    <g>
     <use style="fill:#f5deb3;stroke:#f5deb3;stroke-linejoin:miter;stroke-width:1.5;" x="333.429677" xlink:href="#mbb83a71604" y="27.513663"/>
     <use style="fill:#f5deb3;stroke:#f5deb3;stroke-linejoin:miter;stroke-width:1.5;" x="363.933742" xlink:href="#mbb83a71604" y="32.86099"/>
    </g>
   </g>
   <g id="matplotlib.axis_1">
    <g id="xtick_1">
     <g id="line2d_5">
      <path clip-path="url(#pd4ce3df955)" d="M 56.12 294.88 
L 56.12 24.84 
" style="fill:none;stroke:#b0b0b0;stroke-linecap:square;stroke-width:0.8;"/>
     </g>
     <g id="line2d_6">
      <defs>
       <path d="M 0 0 
L 0 3.5 
" id="md3a7da52d5" style="stroke:#000000;stroke-width:0.8;"/>
      </defs>
      <g>
       <use style="stroke:#000000;stroke-width:0.8;" x="56.12" xlink:href="#md3a7da52d5" y="294.88"/>
      </g>
     </g>
     <g id="text_1">
      <!-- 0 -->
      <defs>
       <path d="M 31.78125 66.40625 
Q 24.171875 66.40625 20.328125 58.90625 
Q 16.5 51.421875 16.5 36.375 
Q 16.5 21.390625 20.328125 13.890625 
Q 24.171875 6.390625 31.78125 6.390625 
Q 39.453125 6.390625 43.28125 13.890625 
Q 47.125 21.390625 47.125 36.375 
Q 47.125 51.421875 43.28125 58.90625 
Q 39.453125 66.40625 31.78125 66.40625 
z
M 31.78125 74.21875 
Q 44.046875 74.21875 50.515625 64.515625 
Q 56.984375 54.828125 56.984375 36.375 
Q 56.984375 17.96875 50.515625 8.265625 
Q 44.046875 -1.421875 31.78125 -1.421875 
Q 19.53125 -1.421875 13.0625 8.265625 
Q 6.59375 17.96875 6.59375 36.375 
Q 6.59375 54.828125 13.0625 64.515625 
Q 19.53125 74.21875 31.78125 74.21875 
z
" id="DejaVuSans-30"/>
      </defs>
      <g transform="translate(49.7575 317.076875)scale(0.2 -0.2)">
       <use xlink:href="#DejaVuSans-30"/>
      </g>
     </g>
    </g>
    <g id="xtick_2">
     <g id="line2d_7">
      <path clip-path="url(#pd4ce3df955)" d="M 135.351336 294.88 
L 135.351336 24.84 
" style="fill:none;stroke:#b0b0b0;stroke-linecap:square;stroke-width:0.8;"/>
     </g>
     <g id="line2d_8">
      <g>
       <use style="stroke:#000000;stroke-width:0.8;" x="135.351336" xlink:href="#md3a7da52d5" y="294.88"/>
      </g>
     </g>
     <g id="text_2">
      <!-- 2 -->
      <defs>
       <path d="M 19.1875 8.296875 
L 53.609375 8.296875 
L 53.609375 0 
L 7.328125 0 
L 7.328125 8.296875 
Q 12.9375 14.109375 22.625 23.890625 
Q 32.328125 33.6875 34.8125 36.53125 
Q 39.546875 41.84375 41.421875 45.53125 
Q 43.3125 49.21875 43.3125 52.78125 
Q 43.3125 58.59375 39.234375 62.25 
Q 35.15625 65.921875 28.609375 65.921875 
Q 23.96875 65.921875 18.8125 64.3125 
Q 13.671875 62.703125 7.8125 59.421875 
L 7.8125 69.390625 
Q 13.765625 71.78125 18.9375 73 
Q 24.125 74.21875 28.421875 74.21875 
Q 39.75 74.21875 46.484375 68.546875 
Q 53.21875 62.890625 53.21875 53.421875 
Q 53.21875 48.921875 51.53125 44.890625 
Q 49.859375 40.875 45.40625 35.40625 
Q 44.1875 33.984375 37.640625 27.21875 
Q 31.109375 20.453125 19.1875 8.296875 
z
" id="DejaVuSans-32"/>
      </defs>
      <g transform="translate(128.988836 317.076875)scale(0.2 -0.2)">
       <use xlink:href="#DejaVuSans-32"/>
      </g>
     </g>
    </g>
    <g id="xtick_3">
     <g id="line2d_9">
      <path clip-path="url(#pd4ce3df955)" d="M 214.582673 294.88 
L 214.582673 24.84 
" style="fill:none;stroke:#b0b0b0;stroke-linecap:square;stroke-width:0.8;"/>
     </g>
     <g id="line2d_10">
      <g>
       <use style="stroke:#000000;stroke-width:0.8;" x="214.582673" xlink:href="#md3a7da52d5" y="294.88"/>
      </g>
     </g>
     <g id="text_3">
      <!-- 4 -->
      <defs>
       <path d="M 37.796875 64.3125 
L 12.890625 25.390625 
L 37.796875 25.390625 
z
M 35.203125 72.90625 
L 47.609375 72.90625 
L 47.609375 25.390625 
L 58.015625 25.390625 
L 58.015625 17.1875 
L 47.609375 17.1875 
L 47.609375 0 
L 37.796875 0 
L 37.796875 17.1875 
L 4.890625 17.1875 
L 4.890625 26.703125 
z
" id="DejaVuSans-34"/>
      </defs>
      <g transform="translate(208.220173 317.076875)scale(0.2 -0.2)">
       <use xlink:href="#DejaVuSans-34"/>
      </g>
     </g>
    </g>
    <g id="xtick_4">
     <g id="line2d_11">
      <path clip-path="url(#pd4ce3df955)" d="M 293.814009 294.88 
L 293.814009 24.84 
" style="fill:none;stroke:#b0b0b0;stroke-linecap:square;stroke-width:0.8;"/>
     </g>
     <g id="line2d_12">
      <g>
       <use style="stroke:#000000;stroke-width:0.8;" x="293.814009" xlink:href="#md3a7da52d5" y="294.88"/>
      </g>
     </g>
     <g id="text_4">
      <!-- 6 -->
      <defs>
       <path d="M 33.015625 40.375 
Q 26.375 40.375 22.484375 35.828125 
Q 18.609375 31.296875 18.609375 23.390625 
Q 18.609375 15.53125 22.484375 10.953125 
Q 26.375 6.390625 33.015625 6.390625 
Q 39.65625 6.390625 43.53125 10.953125 
Q 47.40625 15.53125 47.40625 23.390625 
Q 47.40625 31.296875 43.53125 35.828125 
Q 39.65625 40.375 33.015625 40.375 
z
M 52.59375 71.296875 
L 52.59375 62.3125 
Q 48.875 64.0625 45.09375 64.984375 
Q 41.3125 65.921875 37.59375 65.921875 
Q 27.828125 65.921875 22.671875 59.328125 
Q 17.53125 52.734375 16.796875 39.40625 
Q 19.671875 43.65625 24.015625 45.921875 
Q 28.375 48.1875 33.59375 48.1875 
Q 44.578125 48.1875 50.953125 41.515625 
Q 57.328125 34.859375 57.328125 23.390625 
Q 57.328125 12.15625 50.6875 5.359375 
Q 44.046875 -1.421875 33.015625 -1.421875 
Q 20.359375 -1.421875 13.671875 8.265625 
Q 6.984375 17.96875 6.984375 36.375 
Q 6.984375 53.65625 15.1875 63.9375 
Q 23.390625 74.21875 37.203125 74.21875 
Q 40.921875 74.21875 44.703125 73.484375 
Q 48.484375 72.75 52.59375 71.296875 
z
" id="DejaVuSans-36"/>
      </defs>
      <g transform="translate(287.451509 317.076875)scale(0.2 -0.2)">
       <use xlink:href="#DejaVuSans-36"/>
      </g>
     </g>
    </g>
    <g id="xtick_5">
     <g id="line2d_13">
      <path clip-path="url(#pd4ce3df955)" d="M 373.045346 294.88 
L 373.045346 24.84 
" style="fill:none;stroke:#b0b0b0;stroke-linecap:square;stroke-width:0.8;"/>
     </g>
     <g id="line2d_14">
      <g>
       <use style="stroke:#000000;stroke-width:0.8;" x="373.045346" xlink:href="#md3a7da52d5" y="294.88"/>
      </g>
     </g>
     <g id="text_5">
      <!-- 8 -->
      <defs>
       <path d="M 31.78125 34.625 
Q 24.75 34.625 20.71875 30.859375 
Q 16.703125 27.09375 16.703125 20.515625 
Q 16.703125 13.921875 20.71875 10.15625 
Q 24.75 6.390625 31.78125 6.390625 
Q 38.8125 6.390625 42.859375 10.171875 
Q 46.921875 13.96875 46.921875 20.515625 
Q 46.921875 27.09375 42.890625 30.859375 
Q 38.875 34.625 31.78125 34.625 
z
M 21.921875 38.8125 
Q 15.578125 40.375 12.03125 44.71875 
Q 8.5 49.078125 8.5 55.328125 
Q 8.5 64.0625 14.71875 69.140625 
Q 20.953125 74.21875 31.78125 74.21875 
Q 42.671875 74.21875 48.875 69.140625 
Q 55.078125 64.0625 55.078125 55.328125 
Q 55.078125 49.078125 51.53125 44.71875 
Q 48 40.375 41.703125 38.8125 
Q 48.828125 37.15625 52.796875 32.3125 
Q 56.78125 27.484375 56.78125 20.515625 
Q 56.78125 9.90625 50.3125 4.234375 
Q 43.84375 -1.421875 31.78125 -1.421875 
Q 19.734375 -1.421875 13.25 4.234375 
Q 6.78125 9.90625 6.78125 20.515625 
Q 6.78125 27.484375 10.78125 32.3125 
Q 14.796875 37.15625 21.921875 38.8125 
z
M 18.3125 54.390625 
Q 18.3125 48.734375 21.84375 45.5625 
Q 25.390625 42.390625 31.78125 42.390625 
Q 38.140625 42.390625 41.71875 45.5625 
Q 45.3125 48.734375 45.3125 54.390625 
Q 45.3125 60.0625 41.71875 63.234375 
Q 38.140625 66.40625 31.78125 66.40625 
Q 25.390625 66.40625 21.84375 63.234375 
Q 18.3125 60.0625 18.3125 54.390625 
z
" id="DejaVuSans-38"/>
      </defs>
      <g transform="translate(366.682846 317.076875)scale(0.2 -0.2)">
       <use xlink:href="#DejaVuSans-38"/>
      </g>
     </g>
    </g>
    <g id="text_6">
     <!-- log10(# f-evals / dimension) -->
     <defs>
      <path d="M 9.421875 75.984375 
L 18.40625 75.984375 
L 18.40625 0 
L 9.421875 0 
z
" id="DejaVuSans-6c"/>
      <path d="M 30.609375 48.390625 
Q 23.390625 48.390625 19.1875 42.75 
Q 14.984375 37.109375 14.984375 27.296875 
Q 14.984375 17.484375 19.15625 11.84375 
Q 23.34375 6.203125 30.609375 6.203125 
Q 37.796875 6.203125 41.984375 11.859375 
Q 46.1875 17.53125 46.1875 27.296875 
Q 46.1875 37.015625 41.984375 42.703125 
Q 37.796875 48.390625 30.609375 48.390625 
z
M 30.609375 56 
Q 42.328125 56 49.015625 48.375 
Q 55.71875 40.765625 55.71875 27.296875 
Q 55.71875 13.875 49.015625 6.21875 
Q 42.328125 -1.421875 30.609375 -1.421875 
Q 18.84375 -1.421875 12.171875 6.21875 
Q 5.515625 13.875 5.515625 27.296875 
Q 5.515625 40.765625 12.171875 48.375 
Q 18.84375 56 30.609375 56 
z
" id="DejaVuSans-6f"/>
      <path d="M 45.40625 27.984375 
Q 45.40625 37.75 41.375 43.109375 
Q 37.359375 48.484375 30.078125 48.484375 
Q 22.859375 48.484375 18.828125 43.109375 
Q 14.796875 37.75 14.796875 27.984375 
Q 14.796875 18.265625 18.828125 12.890625 
Q 22.859375 7.515625 30.078125 7.515625 
Q 37.359375 7.515625 41.375 12.890625 
Q 45.40625 18.265625 45.40625 27.984375 
z
M 54.390625 6.78125 
Q 54.390625 -7.171875 48.1875 -13.984375 
Q 42 -20.796875 29.203125 -20.796875 
Q 24.46875 -20.796875 20.265625 -20.09375 
Q 16.0625 -19.390625 12.109375 -17.921875 
L 12.109375 -9.1875 
Q 16.0625 -11.328125 19.921875 -12.34375 
Q 23.78125 -13.375 27.78125 -13.375 
Q 36.625 -13.375 41.015625 -8.765625 
Q 45.40625 -4.15625 45.40625 5.171875 
L 45.40625 9.625 
Q 42.625 4.78125 38.28125 2.390625 
Q 33.9375 0 27.875 0 
Q 17.828125 0 11.671875 7.65625 
Q 5.515625 15.328125 5.515625 27.984375 
Q 5.515625 40.671875 11.671875 48.328125 
Q 17.828125 56 27.875 56 
Q 33.9375 56 38.28125 53.609375 
Q 42.625 51.21875 45.40625 46.390625 
L 45.40625 54.6875 
L 54.390625 54.6875 
z
" id="DejaVuSans-67"/>
      <path d="M 12.40625 8.296875 
L 28.515625 8.296875 
L 28.515625 63.921875 
L 10.984375 60.40625 
L 10.984375 69.390625 
L 28.421875 72.90625 
L 38.28125 72.90625 
L 38.28125 8.296875 
L 54.390625 8.296875 
L 54.390625 0 
L 12.40625 0 
z
" id="DejaVuSans-31"/>
      <path d="M 31 75.875 
Q 24.46875 64.65625 21.28125 53.65625 
Q 18.109375 42.671875 18.109375 31.390625 
Q 18.109375 20.125 21.3125 9.0625 
Q 24.515625 -2 31 -13.1875 
L 23.1875 -13.1875 
Q 15.875 -1.703125 12.234375 9.375 
Q 8.59375 20.453125 8.59375 31.390625 
Q 8.59375 42.28125 12.203125 53.3125 
Q 15.828125 64.359375 23.1875 75.875 
z
" id="DejaVuSans-28"/>
      <path d="M 51.125 44 
L 36.921875 44 
L 32.8125 27.6875 
L 47.125 27.6875 
z
M 43.796875 71.78125 
L 38.71875 51.515625 
L 52.984375 51.515625 
L 58.109375 71.78125 
L 65.921875 71.78125 
L 60.890625 51.515625 
L 76.125 51.515625 
L 76.125 44 
L 58.984375 44 
L 54.984375 27.6875 
L 70.515625 27.6875 
L 70.515625 20.21875 
L 53.078125 20.21875 
L 48 0 
L 40.1875 0 
L 45.21875 20.21875 
L 30.90625 20.21875 
L 25.875 0 
L 18.015625 0 
L 23.09375 20.21875 
L 7.71875 20.21875 
L 7.71875 27.6875 
L 24.90625 27.6875 
L 29 44 
L 13.28125 44 
L 13.28125 51.515625 
L 30.90625 51.515625 
L 35.890625 71.78125 
z
" id="DejaVuSans-23"/>
      <path id="DejaVuSans-20"/>
      <path d="M 37.109375 75.984375 
L 37.109375 68.5 
L 28.515625 68.5 
Q 23.6875 68.5 21.796875 66.546875 
Q 19.921875 64.59375 19.921875 59.515625 
L 19.921875 54.6875 
L 34.71875 54.6875 
L 34.71875 47.703125 
L 19.921875 47.703125 
L 19.921875 0 
L 10.890625 0 
L 10.890625 47.703125 
L 2.296875 47.703125 
L 2.296875 54.6875 
L 10.890625 54.6875 
L 10.890625 58.5 
Q 10.890625 67.625 15.140625 71.796875 
Q 19.390625 75.984375 28.609375 75.984375 
z
" id="DejaVuSans-66"/>
      <path d="M 4.890625 31.390625 
L 31.203125 31.390625 
L 31.203125 23.390625 
L 4.890625 23.390625 
z
" id="DejaVuSans-2d"/>
      <path d="M 56.203125 29.59375 
L 56.203125 25.203125 
L 14.890625 25.203125 
Q 15.484375 15.921875 20.484375 11.0625 
Q 25.484375 6.203125 34.421875 6.203125 
Q 39.59375 6.203125 44.453125 7.46875 
Q 49.3125 8.734375 54.109375 11.28125 
L 54.109375 2.78125 
Q 49.265625 0.734375 44.1875 -0.34375 
Q 39.109375 -1.421875 33.890625 -1.421875 
Q 20.796875 -1.421875 13.15625 6.1875 
Q 5.515625 13.8125 5.515625 26.8125 
Q 5.515625 40.234375 12.765625 48.109375 
Q 20.015625 56 32.328125 56 
Q 43.359375 56 49.78125 48.890625 
Q 56.203125 41.796875 56.203125 29.59375 
z
M 47.21875 32.234375 
Q 47.125 39.59375 43.09375 43.984375 
Q 39.0625 48.390625 32.421875 48.390625 
Q 24.90625 48.390625 20.390625 44.140625 
Q 15.875 39.890625 15.1875 32.171875 
z
" id="DejaVuSans-65"/>
      <path d="M 2.984375 54.6875 
L 12.5 54.6875 
L 29.59375 8.796875 
L 46.6875 54.6875 
L 56.203125 54.6875 
L 35.6875 0 
L 23.484375 0 
z
" id="DejaVuSans-76"/>
      <path d="M 34.28125 27.484375 
Q 23.390625 27.484375 19.1875 25 
Q 14.984375 22.515625 14.984375 16.5 
Q 14.984375 11.71875 18.140625 8.90625 
Q 21.296875 6.109375 26.703125 6.109375 
Q 34.1875 6.109375 38.703125 11.40625 
Q 43.21875 16.703125 43.21875 25.484375 
L 43.21875 27.484375 
z
M 52.203125 31.203125 
L 52.203125 0 
L 43.21875 0 
L 43.21875 8.296875 
Q 40.140625 3.328125 35.546875 0.953125 
Q 30.953125 -1.421875 24.3125 -1.421875 
Q 15.921875 -1.421875 10.953125 3.296875 
Q 6 8.015625 6 15.921875 
Q 6 25.140625 12.171875 29.828125 
Q 18.359375 34.515625 30.609375 34.515625 
L 43.21875 34.515625 
L 43.21875 35.40625 
Q 43.21875 41.609375 39.140625 45 
Q 35.0625 48.390625 27.6875 48.390625 
Q 23 48.390625 18.546875 47.265625 
Q 14.109375 46.140625 10.015625 43.890625 
L 10.015625 52.203125 
Q 14.9375 54.109375 19.578125 55.046875 
Q 24.21875 56 28.609375 56 
Q 40.484375 56 46.34375 49.84375 
Q 52.203125 43.703125 52.203125 31.203125 
z
" id="DejaVuSans-61"/>
      <path d="M 44.28125 53.078125 
L 44.28125 44.578125 
Q 40.484375 46.53125 36.375 47.5 
Q 32.28125 48.484375 27.875 48.484375 
Q 21.1875 48.484375 17.84375 46.4375 
Q 14.5 44.390625 14.5 40.28125 
Q 14.5 37.15625 16.890625 35.375 
Q 19.28125 33.59375 26.515625 31.984375 
L 29.59375 31.296875 
Q 39.15625 29.25 43.1875 25.515625 
Q 47.21875 21.78125 47.21875 15.09375 
Q 47.21875 7.46875 41.1875 3.015625 
Q 35.15625 -1.421875 24.609375 -1.421875 
Q 20.21875 -1.421875 15.453125 -0.5625 
Q 10.6875 0.296875 5.421875 2 
L 5.421875 11.28125 
Q 10.40625 8.6875 15.234375 7.390625 
Q 20.0625 6.109375 24.8125 6.109375 
Q 31.15625 6.109375 34.5625 8.28125 
Q 37.984375 10.453125 37.984375 14.40625 
Q 37.984375 18.0625 35.515625 20.015625 
Q 33.0625 21.96875 24.703125 23.78125 
L 21.578125 24.515625 
Q 13.234375 26.265625 9.515625 29.90625 
Q 5.8125 33.546875 5.8125 39.890625 
Q 5.8125 47.609375 11.28125 51.796875 
Q 16.75 56 26.8125 56 
Q 31.78125 56 36.171875 55.265625 
Q 40.578125 54.546875 44.28125 53.078125 
z
" id="DejaVuSans-73"/>
      <path d="M 25.390625 72.90625 
L 33.6875 72.90625 
L 8.296875 -9.28125 
L 0 -9.28125 
z
" id="DejaVuSans-2f"/>
      <path d="M 45.40625 46.390625 
L 45.40625 75.984375 
L 54.390625 75.984375 
L 54.390625 0 
L 45.40625 0 
L 45.40625 8.203125 
Q 42.578125 3.328125 38.25 0.953125 
Q 33.9375 -1.421875 27.875 -1.421875 
Q 17.96875 -1.421875 11.734375 6.484375 
Q 5.515625 14.40625 5.515625 27.296875 
Q 5.515625 40.1875 11.734375 48.09375 
Q 17.96875 56 27.875 56 
Q 33.9375 56 38.25 53.625 
Q 42.578125 51.265625 45.40625 46.390625 
z
M 14.796875 27.296875 
Q 14.796875 17.390625 18.875 11.75 
Q 22.953125 6.109375 30.078125 6.109375 
Q 37.203125 6.109375 41.296875 11.75 
Q 45.40625 17.390625 45.40625 27.296875 
Q 45.40625 37.203125 41.296875 42.84375 
Q 37.203125 48.484375 30.078125 48.484375 
Q 22.953125 48.484375 18.875 42.84375 
Q 14.796875 37.203125 14.796875 27.296875 
z
" id="DejaVuSans-64"/>
      <path d="M 9.421875 54.6875 
L 18.40625 54.6875 
L 18.40625 0 
L 9.421875 0 
z
M 9.421875 75.984375 
L 18.40625 75.984375 
L 18.40625 64.59375 
L 9.421875 64.59375 
z
" id="DejaVuSans-69"/>
      <path d="M 52 44.1875 
Q 55.375 50.25 60.0625 53.125 
Q 64.75 56 71.09375 56 
Q 79.640625 56 84.28125 50.015625 
Q 88.921875 44.046875 88.921875 33.015625 
L 88.921875 0 
L 79.890625 0 
L 79.890625 32.71875 
Q 79.890625 40.578125 77.09375 44.375 
Q 74.3125 48.1875 68.609375 48.1875 
Q 61.625 48.1875 57.5625 43.546875 
Q 53.515625 38.921875 53.515625 30.90625 
L 53.515625 0 
L 44.484375 0 
L 44.484375 32.71875 
Q 44.484375 40.625 41.703125 44.40625 
Q 38.921875 48.1875 33.109375 48.1875 
Q 26.21875 48.1875 22.15625 43.53125 
Q 18.109375 38.875 18.109375 30.90625 
L 18.109375 0 
L 9.078125 0 
L 9.078125 54.6875 
L 18.109375 54.6875 
L 18.109375 46.1875 
Q 21.1875 51.21875 25.484375 53.609375 
Q 29.78125 56 35.6875 56 
Q 41.65625 56 45.828125 52.96875 
Q 50 49.953125 52 44.1875 
z
" id="DejaVuSans-6d"/>
      <path d="M 54.890625 33.015625 
L 54.890625 0 
L 45.90625 0 
L 45.90625 32.71875 
Q 45.90625 40.484375 42.875 44.328125 
Q 39.84375 48.1875 33.796875 48.1875 
Q 26.515625 48.1875 22.3125 43.546875 
Q 18.109375 38.921875 18.109375 30.90625 
L 18.109375 0 
L 9.078125 0 
L 9.078125 54.6875 
L 18.109375 54.6875 
L 18.109375 46.1875 
Q 21.34375 51.125 25.703125 53.5625 
Q 30.078125 56 35.796875 56 
Q 45.21875 56 50.046875 50.171875 
Q 54.890625 44.34375 54.890625 33.015625 
z
" id="DejaVuSans-6e"/>
      <path d="M 8.015625 75.875 
L 15.828125 75.875 
Q 23.140625 64.359375 26.78125 53.3125 
Q 30.421875 42.28125 30.421875 31.390625 
Q 30.421875 20.453125 26.78125 9.375 
Q 23.140625 -1.703125 15.828125 -13.1875 
L 8.015625 -13.1875 
Q 14.5 -2 17.703125 9.0625 
Q 20.90625 20.125 20.90625 31.390625 
Q 20.90625 42.671875 17.703125 53.65625 
Q 14.5 64.65625 8.015625 75.875 
z
" id="DejaVuSans-29"/>
     </defs>
     <g transform="translate(107.211219 338.153594)scale(0.17 -0.17)">
      <use xlink:href="#DejaVuSans-6c"/>
      <use x="27.783203" xlink:href="#DejaVuSans-6f"/>
      <use x="88.964844" xlink:href="#DejaVuSans-67"/>
      <use x="152.441406" xlink:href="#DejaVuSans-31"/>
      <use x="216.064453" xlink:href="#DejaVuSans-30"/>
      <use x="279.6875" xlink:href="#DejaVuSans-28"/>
      <use x="318.701172" xlink:href="#DejaVuSans-23"/>
      <use x="402.490234" xlink:href="#DejaVuSans-20"/>
      <use x="434.277344" xlink:href="#DejaVuSans-66"/>
      <use x="469.404297" xlink:href="#DejaVuSans-2d"/>
      <use x="505.488281" xlink:href="#DejaVuSans-65"/>
      <use x="567.011719" xlink:href="#DejaVuSans-76"/>
      <use x="626.191406" xlink:href="#DejaVuSans-61"/>
      <use x="687.470703" xlink:href="#DejaVuSans-6c"/>
      <use x="715.253906" xlink:href="#DejaVuSans-73"/>
      <use x="767.353516" xlink:href="#DejaVuSans-20"/>
      <use x="799.140625" xlink:href="#DejaVuSans-2f"/>
      <use x="832.832031" xlink:href="#DejaVuSans-20"/>
      <use x="864.619141" xlink:href="#DejaVuSans-64"/>
      <use x="928.095703" xlink:href="#DejaVuSans-69"/>
      <use x="955.878906" xlink:href="#DejaVuSans-6d"/>
      <use x="1053.291016" xlink:href="#DejaVuSans-65"/>
      <use x="1114.814453" xlink:href="#DejaVuSans-6e"/>
      <use x="1178.193359" xlink:href="#DejaVuSans-73"/>
      <use x="1230.292969" xlink:href="#DejaVuSans-69"/>
      <use x="1258.076172" xlink:href="#DejaVuSans-6f"/>
      <use x="1319.257812" xlink:href="#DejaVuSans-6e"/>
      <use x="1382.636719" xlink:href="#DejaVuSans-29"/>
     </g>
    </g>
   </g>
   <g id="matplotlib.axis_2">
    <g id="ytick_1">
     <g id="line2d_15">
      <path clip-path="url(#pd4ce3df955)" d="M 56.12 294.88 
L 399.984 294.88 
" style="fill:none;stroke:#b0b0b0;stroke-linecap:square;stroke-width:0.8;"/>
     </g>
     <g id="line2d_16">
      <defs>
       <path d="M 0 0 
L -3.5 0 
" id="ma288157663" style="stroke:#000000;stroke-width:0.8;"/>
      </defs>
      <g>
       <use style="stroke:#000000;stroke-width:0.8;" x="56.12" xlink:href="#ma288157663" y="294.88"/>
      </g>
     </g>
     <g id="text_7">
      <!-- 0.0 -->
      <defs>
       <path d="M 10.6875 12.40625 
L 21 12.40625 
L 21 0 
L 10.6875 0 
z
" id="DejaVuSans-2e"/>
      </defs>
      <g transform="translate(23.675 300.95875)scale(0.16 -0.16)">
       <use xlink:href="#DejaVuSans-30"/>
       <use x="63.623047" xlink:href="#DejaVuSans-2e"/>
       <use x="95.410156" xlink:href="#DejaVuSans-30"/>
      </g>
     </g>
    </g>
    <g id="ytick_2">
     <g id="line2d_17">
      <path clip-path="url(#pd4ce3df955)" d="M 56.12 241.406733 
L 399.984 241.406733 
" style="fill:none;stroke:#b0b0b0;stroke-linecap:square;stroke-width:0.8;"/>
     </g>
     <g id="line2d_18">
      <g>
       <use style="stroke:#000000;stroke-width:0.8;" x="56.12" xlink:href="#ma288157663" y="241.406733"/>
      </g>
     </g>
     <g id="text_8">
      <!-- 0.2 -->
      <g transform="translate(23.675 247.485483)scale(0.16 -0.16)">
       <use xlink:href="#DejaVuSans-30"/>
       <use x="63.623047" xlink:href="#DejaVuSans-2e"/>
       <use x="95.410156" xlink:href="#DejaVuSans-32"/>
      </g>
     </g>
    </g>
    <g id="ytick_3">
     <g id="line2d_19">
      <path clip-path="url(#pd4ce3df955)" d="M 56.12 187.933465 
L 399.984 187.933465 
" style="fill:none;stroke:#b0b0b0;stroke-linecap:square;stroke-width:0.8;"/>
     </g>
     <g id="line2d_20">
      <g>
       <use style="stroke:#000000;stroke-width:0.8;" x="56.12" xlink:href="#ma288157663" y="187.933465"/>
      </g>
     </g>
     <g id="text_9">
      <!-- 0.4 -->
      <g transform="translate(23.675 194.012215)scale(0.16 -0.16)">
       <use xlink:href="#DejaVuSans-30"/>
       <use x="63.623047" xlink:href="#DejaVuSans-2e"/>
       <use x="95.410156" xlink:href="#DejaVuSans-34"/>
      </g>
     </g>
    </g>
    <g id="ytick_4">
     <g id="line2d_21">
      <path clip-path="url(#pd4ce3df955)" d="M 56.12 134.460198 
L 399.984 134.460198 
" style="fill:none;stroke:#b0b0b0;stroke-linecap:square;stroke-width:0.8;"/>
     </g>
     <g id="line2d_22">
      <g>
       <use style="stroke:#000000;stroke-width:0.8;" x="56.12" xlink:href="#ma288157663" y="134.460198"/>
      </g>
     </g>
     <g id="text_10">
      <!-- 0.6 -->
      <g transform="translate(23.675 140.538948)scale(0.16 -0.16)">
       <use xlink:href="#DejaVuSans-30"/>
       <use x="63.623047" xlink:href="#DejaVuSans-2e"/>
       <use x="95.410156" xlink:href="#DejaVuSans-36"/>
      </g>
     </g>
    </g>
    <g id="ytick_5">
     <g id="line2d_23">
      <path clip-path="url(#pd4ce3df955)" d="M 56.12 80.986931 
L 399.984 80.986931 
" style="fill:none;stroke:#b0b0b0;stroke-linecap:square;stroke-width:0.8;"/>
     </g>
     <g id="line2d_24">
      <g>
       <use style="stroke:#000000;stroke-width:0.8;" x="56.12" xlink:href="#ma288157663" y="80.986931"/>
      </g>
     </g>
     <g id="text_11">
      <!-- 0.8 -->
      <g transform="translate(23.675 87.065681)scale(0.16 -0.16)">
       <use xlink:href="#DejaVuSans-30"/>
       <use x="63.623047" xlink:href="#DejaVuSans-2e"/>
       <use x="95.410156" xlink:href="#DejaVuSans-38"/>
      </g>
     </g>
    </g>
    <g id="ytick_6">
     <g id="line2d_25">
      <path clip-path="url(#pd4ce3df955)" d="M 56.12 27.513663 
L 399.984 27.513663 
" style="fill:none;stroke:#b0b0b0;stroke-linecap:square;stroke-width:0.8;"/>
     </g>
     <g id="line2d_26">
      <g>
       <use style="stroke:#000000;stroke-width:0.8;" x="56.12" xlink:href="#ma288157663" y="27.513663"/>
      </g>
     </g>
     <g id="text_12">
      <!-- 1.0 -->
      <g transform="translate(23.675 33.592413)scale(0.16 -0.16)">
       <use xlink:href="#DejaVuSans-31"/>
       <use x="63.623047" xlink:href="#DejaVuSans-2e"/>
       <use x="95.410156" xlink:href="#DejaVuSans-30"/>
      </g>
     </g>
    </g>
    <g id="text_13">
     <!-- Fraction of function,target pairs -->
     <defs>
      <path d="M 9.8125 72.90625 
L 51.703125 72.90625 
L 51.703125 64.59375 
L 19.671875 64.59375 
L 19.671875 43.109375 
L 48.578125 43.109375 
L 48.578125 34.8125 
L 19.671875 34.8125 
L 19.671875 0 
L 9.8125 0 
z
" id="DejaVuSans-46"/>
      <path d="M 41.109375 46.296875 
Q 39.59375 47.171875 37.8125 47.578125 
Q 36.03125 48 33.890625 48 
Q 26.265625 48 22.1875 43.046875 
Q 18.109375 38.09375 18.109375 28.8125 
L 18.109375 0 
L 9.078125 0 
L 9.078125 54.6875 
L 18.109375 54.6875 
L 18.109375 46.1875 
Q 20.953125 51.171875 25.484375 53.578125 
Q 30.03125 56 36.53125 56 
Q 37.453125 56 38.578125 55.875 
Q 39.703125 55.765625 41.0625 55.515625 
z
" id="DejaVuSans-72"/>
      <path d="M 48.78125 52.59375 
L 48.78125 44.1875 
Q 44.96875 46.296875 41.140625 47.34375 
Q 37.3125 48.390625 33.40625 48.390625 
Q 24.65625 48.390625 19.8125 42.84375 
Q 14.984375 37.3125 14.984375 27.296875 
Q 14.984375 17.28125 19.8125 11.734375 
Q 24.65625 6.203125 33.40625 6.203125 
Q 37.3125 6.203125 41.140625 7.25 
Q 44.96875 8.296875 48.78125 10.40625 
L 48.78125 2.09375 
Q 45.015625 0.34375 40.984375 -0.53125 
Q 36.96875 -1.421875 32.421875 -1.421875 
Q 20.0625 -1.421875 12.78125 6.34375 
Q 5.515625 14.109375 5.515625 27.296875 
Q 5.515625 40.671875 12.859375 48.328125 
Q 20.21875 56 33.015625 56 
Q 37.15625 56 41.109375 55.140625 
Q 45.0625 54.296875 48.78125 52.59375 
z
" id="DejaVuSans-63"/>
      <path d="M 18.3125 70.21875 
L 18.3125 54.6875 
L 36.8125 54.6875 
L 36.8125 47.703125 
L 18.3125 47.703125 
L 18.3125 18.015625 
Q 18.3125 11.328125 20.140625 9.421875 
Q 21.96875 7.515625 27.59375 7.515625 
L 36.8125 7.515625 
L 36.8125 0 
L 27.59375 0 
Q 17.1875 0 13.234375 3.875 
Q 9.28125 7.765625 9.28125 18.015625 
L 9.28125 47.703125 
L 2.6875 47.703125 
L 2.6875 54.6875 
L 9.28125 54.6875 
L 9.28125 70.21875 
z
" id="DejaVuSans-74"/>
      <path d="M 8.5 21.578125 
L 8.5 54.6875 
L 17.484375 54.6875 
L 17.484375 21.921875 
Q 17.484375 14.15625 20.5 10.265625 
Q 23.53125 6.390625 29.59375 6.390625 
Q 36.859375 6.390625 41.078125 11.03125 
Q 45.3125 15.671875 45.3125 23.6875 
L 45.3125 54.6875 
L 54.296875 54.6875 
L 54.296875 0 
L 45.3125 0 
L 45.3125 8.40625 
Q 42.046875 3.421875 37.71875 1 
Q 33.40625 -1.421875 27.6875 -1.421875 
Q 18.265625 -1.421875 13.375 4.4375 
Q 8.5 10.296875 8.5 21.578125 
z
M 31.109375 56 
z
" id="DejaVuSans-75"/>
      <path d="M 11.71875 12.40625 
L 22.015625 12.40625 
L 22.015625 4 
L 14.015625 -11.625 
L 7.71875 -11.625 
L 11.71875 4 
z
" id="DejaVuSans-2c"/>
      <path d="M 18.109375 8.203125 
L 18.109375 -20.796875 
L 9.078125 -20.796875 
L 9.078125 54.6875 
L 18.109375 54.6875 
L 18.109375 46.390625 
Q 20.953125 51.265625 25.265625 53.625 
Q 29.59375 56 35.59375 56 
Q 45.5625 56 51.78125 48.09375 
Q 58.015625 40.1875 58.015625 27.296875 
Q 58.015625 14.40625 51.78125 6.484375 
Q 45.5625 -1.421875 35.59375 -1.421875 
Q 29.59375 -1.421875 25.265625 0.953125 
Q 20.953125 3.328125 18.109375 8.203125 
z
M 48.6875 27.296875 
Q 48.6875 37.203125 44.609375 42.84375 
Q 40.53125 48.484375 33.40625 48.484375 
Q 26.265625 48.484375 22.1875 42.84375 
Q 18.109375 37.203125 18.109375 27.296875 
Q 18.109375 17.390625 22.1875 11.75 
Q 26.265625 6.109375 33.40625 6.109375 
Q 40.53125 6.109375 44.609375 11.75 
Q 48.6875 17.390625 48.6875 27.296875 
z
" id="DejaVuSans-70"/>
     </defs>
     <g transform="translate(16.139531 294.999375)rotate(-90)scale(0.17 -0.17)">
      <use xlink:href="#DejaVuSans-46"/>
      <use x="57.410156" xlink:href="#DejaVuSans-72"/>
      <use x="98.523438" xlink:href="#DejaVuSans-61"/>
      <use x="159.802734" xlink:href="#DejaVuSans-63"/>
      <use x="214.783203" xlink:href="#DejaVuSans-74"/>
      <use x="253.992188" xlink:href="#DejaVuSans-69"/>
      <use x="281.775391" xlink:href="#DejaVuSans-6f"/>
      <use x="342.957031" xlink:href="#DejaVuSans-6e"/>
      <use x="406.335938" xlink:href="#DejaVuSans-20"/>
      <use x="438.123047" xlink:href="#DejaVuSans-6f"/>
      <use x="499.304688" xlink:href="#DejaVuSans-66"/>
      <use x="534.509766" xlink:href="#DejaVuSans-20"/>
      <use x="566.296875" xlink:href="#DejaVuSans-66"/>
      <use x="601.501953" xlink:href="#DejaVuSans-75"/>
      <use x="664.880859" xlink:href="#DejaVuSans-6e"/>
      <use x="728.259766" xlink:href="#DejaVuSans-63"/>
      <use x="783.240234" xlink:href="#DejaVuSans-74"/>
      <use x="822.449219" xlink:href="#DejaVuSans-69"/>
      <use x="850.232422" xlink:href="#DejaVuSans-6f"/>
      <use x="911.414062" xlink:href="#DejaVuSans-6e"/>
      <use x="974.792969" xlink:href="#DejaVuSans-2c"/>
      <use x="1006.580078" xlink:href="#DejaVuSans-74"/>
      <use x="1045.789062" xlink:href="#DejaVuSans-61"/>
      <use x="1107.068359" xlink:href="#DejaVuSans-72"/>
      <use x="1148.166016" xlink:href="#DejaVuSans-67"/>
      <use x="1211.642578" xlink:href="#DejaVuSans-65"/>
      <use x="1273.166016" xlink:href="#DejaVuSans-74"/>
      <use x="1312.375" xlink:href="#DejaVuSans-20"/>
      <use x="1344.162109" xlink:href="#DejaVuSans-70"/>
      <use x="1407.638672" xlink:href="#DejaVuSans-61"/>
      <use x="1468.917969" xlink:href="#DejaVuSans-69"/>
      <use x="1496.701172" xlink:href="#DejaVuSans-72"/>
      <use x="1537.814453" xlink:href="#DejaVuSans-73"/>
     </g>
    </g>
   </g>
   <g id="line2d_27">
    <defs>
     <path d="M 0 1.5 
C 0.397805 1.5 0.77937 1.341951 1.06066 1.06066 
C 1.341951 0.77937 1.5 0.397805 1.5 0 
C 1.5 -0.397805 1.341951 -0.77937 1.06066 -1.06066 
C 0.77937 -1.341951 0.397805 -1.5 0 -1.5 
C -0.397805 -1.5 -0.77937 -1.341951 -1.06066 -1.06066 
C -1.341951 -0.77937 -1.5 -0.397805 -1.5 0 
C -1.5 0.397805 -1.341951 0.77937 -1.06066 1.06066 
C -0.77937 1.341951 -0.397805 1.5 0 1.5 
z
" id="m7cc45f0fc2" style="stroke:#f5deb3;"/>
    </defs>
    <g>
     <use style="fill:#f5deb3;stroke:#f5deb3;" x="147.673676" xlink:href="#m7cc45f0fc2" y="27.513663"/>
     <use style="fill:#f5deb3;stroke:#f5deb3;" x="147.673676" xlink:href="#m7cc45f0fc2" y="27.513663"/>
    </g>
   </g>
   <g id="line2d_28">
    <defs>
     <path d="M 0 1.5 
C 0.397805 1.5 0.77937 1.341951 1.06066 1.06066 
C 1.341951 0.77937 1.5 0.397805 1.5 0 
C 1.5 -0.397805 1.341951 -0.77937 1.06066 -1.06066 
C 0.77937 -1.341951 0.397805 -1.5 0 -1.5 
C -0.397805 -1.5 -0.77937 -1.341951 -1.06066 -1.06066 
C -1.341951 -0.77937 -1.5 -0.397805 -1.5 0 
C -1.5 0.397805 -1.341951 0.77937 -1.06066 1.06066 
C -0.77937 1.341951 -0.397805 1.5 0 1.5 
z
" id="m3a76a131fa" style="stroke:#000080;"/>
    </defs>
    <g>
     <use style="fill:#000080;stroke:#000080;" x="193.645289" xlink:href="#m3a76a131fa" y="27.513663"/>
     <use style="fill:#000080;stroke:#000080;" x="193.645289" xlink:href="#m3a76a131fa" y="27.513663"/>
    </g>
   </g>
   <g id="line2d_29">
    <path d="M 37.218523 294.88 
L 37.218523 293.307257 
L 49.144027 293.307257 
L 49.144027 285.443541 
L 64.908686 285.443541 
L 64.908686 283.34655 
L 68.045504 283.34655 
L 68.045504 282.298055 
L 72.995036 282.298055 
L 72.995036 279.676816 
L 76.834191 279.676816 
L 76.834191 278.628321 
L 81.348133 278.628321 
L 81.348133 277.579825 
L 84.92054 277.579825 
L 84.92054 275.482834 
L 86.946982 275.482834 
L 86.946982 273.385844 
L 87.877201 273.385844 
L 87.877201 272.861596 
L 90.399494 272.861596 
L 90.399494 270.764605 
L 91.896513 270.764605 
L 91.896513 268.667614 
L 93.273637 268.667614 
L 93.273637 268.143366 
L 96.299813 268.143366 
L 96.299813 267.619119 
L 100.6852 267.619119 
L 100.6852 266.570623 
L 101.110033 266.570623 
L 101.110033 265.522128 
L 105.848459 265.522128 
L 105.848459 264.473632 
L 107.372008 264.473632 
L 107.372008 261.852394 
L 109.038297 261.852394 
L 109.038297 261.328146 
L 109.300972 261.328146 
L 109.300972 259.755403 
L 111.72821 259.755403 
L 111.72821 259.231155 
L 114.44491 259.231155 
L 114.44491 258.706907 
L 115.20129 258.706907 
L 115.20129 257.134164 
L 116.790561 257.134164 
L 116.790561 256.609917 
L 117.289287 256.609917 
L 117.289287 256.085669 
L 118.399664 256.085669 
L 118.399664 255.561421 
L 120.289014 255.561421 
L 120.289014 253.988678 
L 123.653714 253.988678 
L 123.653714 253.46443 
L 125.272921 253.46443 
L 125.272921 252.940182 
L 128.375364 252.940182 
L 128.375364 250.843192 
L 130.478102 250.843192 
L 130.478102 249.794696 
L 131.368207 249.794696 
L 131.368207 248.746201 
L 134.708635 248.746201 
L 134.708635 248.221953 
L 134.886312 248.221953 
L 134.886312 247.173458 
L 140.084452 247.173458 
L 140.171345 244.552219 
L 140.514596 244.552219 
L 140.514596 244.027971 
L 141.783544 244.027971 
L 141.783544 242.455228 
L 143.473492 242.455228 
L 143.473492 240.882485 
L 143.615976 240.882485 
L 143.615976 239.83399 
L 145.077485 239.83399 
L 145.077485 239.309742 
L 146.574504 239.309742 
L 146.574504 238.785494 
L 147.0459 238.785494 
L 147.0459 237.736999 
L 150.269684 237.736999 
L 150.269684 237.212751 
L 150.556439 237.212751 
L 150.556439 236.688503 
L 151.023991 236.688503 
L 151.023991 235.640008 
L 152.963085 235.640008 
L 152.963085 235.11576 
L 154.060579 235.11576 
L 154.156965 233.018769 
L 156.574083 233.018769 
L 156.574083 231.970274 
L 159.780359 231.970274 
L 159.780359 231.446026 
L 160.312722 231.446026 
L 160.312722 230.921778 
L 160.933141 230.921778 
L 160.933141 229.349035 
L 161.139344 229.349035 
L 161.139344 228.824787 
L 163.007056 228.824787 
L 163.052966 227.776292 
L 163.280698 227.776292 
L 163.280698 227.252044 
L 163.815261 227.252044 
L 163.815261 226.203549 
L 164.054826 226.203549 
L 164.054826 225.679301 
L 164.774889 225.679301 
L 164.774889 224.630806 
L 164.981061 224.630806 
L 164.981061 222.533815 
L 165.683808 222.533815 
L 165.683808 220.961072 
L 165.801448 220.961072 
L 165.859968 219.388328 
L 166.092078 219.388328 
L 166.092078 218.339833 
L 167.090418 218.339833 
L 167.11759 217.291338 
L 167.333441 217.291338 
L 167.333441 216.76709 
L 168.102501 216.76709 
L 168.102501 216.242842 
L 168.624411 216.242842 
L 168.624411 215.194347 
L 168.781233 215.194347 
L 168.879547 213.097356 
L 170.440441 213.097356 
L 170.462809 211.000365 
L 171.426331 211.000365 
L 171.426331 209.427622 
L 171.615513 209.427622 
L 171.615513 208.379126 
L 172.042215 208.379126 
L 172.143879 204.709392 
L 172.617101 204.709392 
L 172.643378 197.369924 
L 173.779991 197.369924 
L 173.779991 195.272933 
L 174.741875 195.272933 
L 174.741875 192.651695 
L 174.989929 192.651695 
L 174.989929 192.127447 
L 175.469991 192.127447 
L 175.564417 190.030456 
L 175.996544 190.030456 
L 175.996544 183.739484 
L 176.731477 183.739484 
L 176.731477 182.690988 
L 176.952616 182.690988 
L 176.952616 181.642493 
L 177.281591 181.642493 
L 177.281591 181.118245 
L 177.441266 181.118245 
L 177.441266 180.06975 
L 178.127702 180.06975 
L 178.127702 169.060547 
L 178.303384 169.060547 
L 178.303384 168.5363 
L 178.561263 168.5363 
L 178.561263 166.963557 
L 178.769417 166.963557 
L 178.769417 157.527098 
L 179.029514 157.527098 
L 179.029514 147.566391 
L 179.673966 147.566391 
L 179.682688 140.226923 
L 179.812996 140.226923 
L 179.812996 132.363207 
L 180.299355 132.363207 
L 180.299355 131.838959 
L 181.21274 131.838959 
L 181.21274 122.926748 
L 182.144429 122.926748 
L 182.144429 112.966042 
L 182.283679 112.966042 
L 182.283679 112.441794 
L 182.477497 112.441794 
L 182.477497 111.393298 
L 183.589726 111.393298 
L 183.589726 110.869051 
L 183.731587 110.869051 
L 183.731587 100.384096 
L 183.991495 100.384096 
L 184.066004 98.811353 
L 184.542605 98.811353 
L 184.627859 93.568876 
L 185.038326 93.568876 
L 185.108446 86.229408 
L 185.373579 86.229408 
L 185.373579 77.841444 
L 185.507737 77.841444 
L 185.507737 76.268701 
L 185.970731 76.268701 
L 186.046197 71.550472 
L 186.7138 71.550472 
L 186.7138 69.977729 
L 186.918297 69.977729 
L 187.02391 64.735251 
L 187.49269 64.735251 
L 187.49269 57.395783 
L 187.840829 57.395783 
L 187.840829 46.910829 
L 188.311932 46.910829 
L 188.4146 42.192599 
L 188.610335 42.192599 
L 188.711243 37.998618 
L 189.071207 37.998618 
L 189.111582 35.377379 
L 189.264649 35.377379 
L 189.322011 34.328884 
L 189.512669 34.328884 
L 189.512669 33.280388 
L 189.800807 33.280388 
L 189.851584 32.231893 
L 190.644271 32.231893 
L 190.690323 30.134902 
L 190.75917 30.134902 
L 190.75917 29.610654 
L 192.138408 29.610654 
L 192.138408 29.086407 
L 192.383971 29.086407 
L 192.383971 28.562159 
L 193.012127 28.562159 
L 193.012127 28.037911 
L 193.645289 28.037911 
L 193.645289 27.513663 
L 333.429677 27.513663 
L 333.429677 27.513663 
" style="fill:none;stroke:#000080;stroke-linecap:square;stroke-width:1.5;"/>
   </g>
   <g id="line2d_30">
    <defs>
     <path d="M 0 6 
C 1.591219 6 3.117479 5.367802 4.242641 4.242641 
C 5.367802 3.117479 6 1.591219 6 0 
C 6 -1.591219 5.367802 -3.117479 4.242641 -4.242641 
C 3.117479 -5.367802 1.591219 -6 0 -6 
C -1.591219 -6 -3.117479 -5.367802 -4.242641 -4.242641 
C -5.367802 -3.117479 -6 -1.591219 -6 0 
C -6 1.591219 -5.367802 3.117479 -4.242641 4.242641 
C -3.117479 5.367802 -1.591219 6 0 6 
z
" id="mc4575a0494" style="stroke:#000080;stroke-width:1.5;"/>
    </defs>
    <g>
     <use style="fill-opacity:0;stroke:#000080;stroke-width:1.5;" x="81.348133" xlink:href="#mc4575a0494" y="278.628321"/>
     <use style="fill-opacity:0;stroke:#000080;stroke-width:1.5;" x="156.574083" xlink:href="#mc4575a0494" y="233.018769"/>
     <use style="fill-opacity:0;stroke:#000080;stroke-width:1.5;" x="185.507737" xlink:href="#mc4575a0494" y="76.268701"/>
     <use style="fill-opacity:0;stroke:#000080;stroke-width:1.5;" x="193.645289" xlink:href="#mc4575a0494" y="27.513663"/>
     <use style="fill-opacity:0;stroke:#000080;stroke-width:1.5;" x="193.645289" xlink:href="#mc4575a0494" y="27.513663"/>
     <use style="fill-opacity:0;stroke:#000080;stroke-width:1.5;" x="333.429677" xlink:href="#mc4575a0494" y="27.513663"/>
    </g>
   </g>
   <g id="line2d_31">
    <path style="fill:none;stroke:#000080;stroke-linecap:square;stroke-width:1.5;"/>
    <g/>
   </g>
   <g id="line2d_32">
    <defs>
     <path d="M 0 1.5 
C 0.397805 1.5 0.77937 1.341951 1.06066 1.06066 
C 1.341951 0.77937 1.5 0.397805 1.5 0 
C 1.5 -0.397805 1.341951 -0.77937 1.06066 -1.06066 
C 0.77937 -1.341951 0.397805 -1.5 0 -1.5 
C -0.397805 -1.5 -0.77937 -1.341951 -1.06066 -1.06066 
C -1.341951 -0.77937 -1.5 -0.397805 -1.5 0 
C -1.5 0.397805 -1.341951 0.77937 -1.06066 1.06066 
C -0.77937 1.341951 -0.397805 1.5 0 1.5 
z
" id="m724f302c4c" style="stroke:#ff00ff;"/>
    </defs>
    <g>
     <use style="fill:#ff00ff;stroke:#ff00ff;" x="310.72702" xlink:href="#m724f302c4c" y="27.513663"/>
     <use style="fill:#ff00ff;stroke:#ff00ff;" x="310.72702" xlink:href="#m724f302c4c" y="27.513663"/>
    </g>
   </g>
   <g id="line2d_33">
    <path d="M 37.218523 294.88 
L 37.218523 292.258761 
L 98.38781 292.258761 
L 98.38781 291.734514 
L 101.524628 291.734514 
L 101.524628 291.210266 
L 102.324999 291.210266 
L 102.324999 290.686018 
L 110.797991 290.686018 
L 110.797991 290.161771 
L 111.953113 290.161771 
L 111.953113 289.637523 
L 113.035537 289.637523 
L 113.035537 289.113275 
L 115.01529 289.113275 
L 115.01529 288.06478 
L 116.449859 288.06478 
L 116.449859 287.016284 
L 118.399664 287.016284 
L 118.399664 286.492036 
L 120.697054 286.492036 
L 120.697054 285.967789 
L 120.963801 285.967789 
L 120.963801 284.919293 
L 123.989976 284.919293 
L 123.989976 284.395046 
L 124.961042 284.395046 
L 124.961042 282.822302 
L 127.219046 282.822302 
L 127.219046 282.298055 
L 128.115335 282.298055 
L 128.115335 281.773807 
L 129.458837 281.773807 
L 129.458837 281.249559 
L 131.223017 281.249559 
L 131.223017 280.201064 
L 131.866934 280.201064 
L 131.866934 279.152568 
L 132.889306 279.152568 
L 132.889306 278.628321 
L 133.79164 278.628321 
L 133.79164 278.104073 
L 134.04099 278.104073 
L 134.04099 276.007082 
L 134.408368 276.007082 
L 134.408368 275.482834 
L 136.568909 275.482834 
L 136.568909 274.958587 
L 137.198425 274.958587 
L 137.198425 273.910091 
L 137.904883 273.910091 
L 137.904883 272.861596 
L 139.776821 272.861596 
L 139.776821 272.337348 
L 141.783544 272.337348 
L 141.783544 271.8131 
L 142.327309 271.8131 
L 142.327309 269.716109 
L 142.555192 269.716109 
L 142.59288 268.143366 
L 142.928414 268.143366 
L 142.928414 267.619119 
L 143.615976 267.619119 
L 143.686778 265.522128 
L 144.242944 265.522128 
L 144.242944 264.99788 
L 144.548063 264.99788 
L 144.548063 262.900889 
L 144.781692 262.900889 
L 144.781692 262.376641 
L 147.785396 262.376641 
L 147.785396 261.852394 
L 148.170801 261.852394 
L 148.170801 261.328146 
L 148.467677 261.328146 
L 148.467677 260.803898 
L 148.994666 260.803898 
L 148.994666 260.279651 
L 150.461384 260.279651 
L 150.461384 259.755403 
L 151.253087 259.755403 
L 151.253087 259.231155 
L 151.411658 259.231155 
L 151.411658 258.706907 
L 152.053458 258.706907 
L 152.053458 258.18266 
L 153.728767 258.18266 
L 153.728767 257.134164 
L 154.461821 257.134164 
L 154.461821 256.085669 
L 154.798448 256.085669 
L 154.853918 254.512926 
L 155.019263 254.512926 
L 155.019263 253.988678 
L 156.065527 253.988678 
L 156.065527 253.46443 
L 156.607458 253.46443 
L 156.607458 252.940182 
L 171.795742 252.940182 
L 171.795742 251.891687 
L 174.442958 251.891687 
L 174.442958 250.318944 
L 174.79409 250.318944 
L 174.817246 249.270448 
L 175.047107 249.270448 
L 175.149551 248.221953 
L 175.296457 248.221953 
L 175.330181 245.600714 
L 176.942393 245.600714 
L 176.942393 245.076467 
L 177.75136 245.076467 
L 177.75136 244.552219 
L 177.94056 244.552219 
L 178.003167 242.979476 
L 179.687048 242.979476 
L 179.687048 242.455228 
L 180.99193 242.455228 
L 180.99193 241.406733 
L 185.348503 241.406733 
L 185.348503 240.882485 
L 185.563587 240.882485 
L 185.582163 238.261246 
L 185.696277 238.261246 
L 185.696277 237.736999 
L 189.08131 237.736999 
L 189.161918 230.397531 
L 189.381664 230.397531 
L 189.381664 229.873283 
L 189.652457 229.873283 
L 189.752309 227.776292 
L 193.448571 227.776292 
L 193.448571 227.252044 
L 194.717011 227.252044 
L 194.717011 226.727797 
L 197.459637 226.727797 
L 197.459637 226.203549 
L 201.430785 226.203549 
L 201.505757 221.485319 
L 202.430876 221.485319 
L 202.430876 220.961072 
L 203.457226 220.961072 
L 203.457226 220.436824 
L 203.641272 220.436824 
L 203.703985 216.76709 
L 205.343686 216.76709 
L 205.428837 214.670099 
L 206.137499 214.670099 
L 206.137499 213.097356 
L 206.738688 213.097356 
L 206.807312 207.854879 
L 206.995522 207.854879 
L 206.995522 207.330631 
L 207.211648 207.330631 
L 207.211648 206.806383 
L 209.524985 206.806383 
L 209.524985 205.23364 
L 210.324831 205.23364 
L 210.324831 204.709392 
L 211.454799 204.709392 
L 211.454799 203.660897 
L 211.939036 203.660897 
L 211.939036 203.136649 
L 214.681603 203.136649 
L 214.681603 200.515411 
L 214.89017 200.515411 
L 214.89017 198.41842 
L 215.041602 198.41842 
L 215.041602 197.894172 
L 217.887846 197.894172 
L 217.887846 196.845677 
L 218.042379 196.845677 
L 218.044255 195.797181 
L 220.659643 195.797181 
L 220.659643 194.224438 
L 223.363787 194.224438 
L 223.437642 192.651695 
L 223.486931 192.651695 
L 223.575229 182.690988 
L 223.601053 182.690988 
L 223.623108 181.642493 
L 224.543455 181.642493 
L 224.543455 181.118245 
L 224.693233 181.118245 
L 224.704701 178.497006 
L 227.242142 178.497006 
L 227.242142 176.924263 
L 228.214581 176.924263 
L 228.214581 176.400016 
L 228.474871 176.400016 
L 228.474871 174.303025 
L 230.768808 174.303025 
L 230.878367 164.342318 
L 231.116487 164.342318 
L 231.219937 158.575593 
L 231.356765 158.575593 
L 231.363037 157.00285 
L 234.603844 157.00285 
L 234.654639 155.430107 
L 238.679524 155.430107 
L 238.679524 154.905859 
L 239.717914 154.905859 
L 239.717914 154.381611 
L 240.36594 154.381611 
L 240.400376 147.042143 
L 240.690521 147.042143 
L 240.698944 134.460198 
L 242.409928 134.460198 
L 242.470697 125.547987 
L 244.681411 125.547987 
L 244.703036 118.208519 
L 251.149045 118.208519 
L 251.158012 108.247812 
L 253.337867 108.247812 
L 253.338952 106.150821 
L 268.617764 106.150821 
L 268.651986 94.093124 
L 268.755452 94.093124 
L 268.76817 82.035426 
L 272.28775 82.035426 
L 272.293581 66.832242 
L 282.733405 66.832242 
L 282.736517 54.250297 
L 291.50611 54.250297 
L 291.608709 52.153306 
L 291.891587 52.153306 
L 291.970771 49.00782 
L 292.320587 49.00782 
L 292.428323 42.716847 
L 292.435837 42.716847 
L 292.524952 41.144104 
L 292.558359 41.144104 
L 292.656354 39.571361 
L 293.037358 39.571361 
L 293.13267 37.47437 
L 295.510075 37.47437 
L 295.592658 34.853131 
L 296.422055 34.853131 
L 296.422055 34.328884 
L 299.569399 34.328884 
L 299.634658 32.231893 
L 303.447747 32.231893 
L 303.550647 31.183397 
L 303.602445 31.183397 
L 303.602445 30.65915 
L 303.926016 30.65915 
L 303.926016 30.134902 
L 304.291721 30.134902 
L 304.291964 29.086407 
L 305.5428 29.086407 
L 305.5428 28.562159 
L 307.953684 28.562159 
L 307.953684 28.037911 
L 310.72702 28.037911 
L 310.72702 27.513663 
L 333.429677 27.513663 
L 333.429677 27.513663 
" style="fill:none;stroke:#ff00ff;stroke-linecap:square;stroke-width:1.5;"/>
   </g>
   <g id="line2d_34">
    <defs>
     <path d="M -0 8.485281 
L 5.091169 0 
L 0 -8.485281 
L -5.091169 -0 
z
" id="md9c0bd02be" style="stroke:#ff00ff;stroke-linejoin:miter;stroke-width:1.5;"/>
    </defs>
    <g>
     <use style="fill-opacity:0;stroke:#ff00ff;stroke-linejoin:miter;stroke-width:1.5;" x="175.330181" xlink:href="#md9c0bd02be" y="247.697705"/>
     <use style="fill-opacity:0;stroke:#ff00ff;stroke-linejoin:miter;stroke-width:1.5;" x="223.486931" xlink:href="#md9c0bd02be" y="192.651695"/>
     <use style="fill-opacity:0;stroke:#ff00ff;stroke-linejoin:miter;stroke-width:1.5;" x="272.293581" xlink:href="#md9c0bd02be" y="68.404985"/>
     <use style="fill-opacity:0;stroke:#ff00ff;stroke-linejoin:miter;stroke-width:1.5;" x="310.72702" xlink:href="#md9c0bd02be" y="27.513663"/>
     <use style="fill-opacity:0;stroke:#ff00ff;stroke-linejoin:miter;stroke-width:1.5;" x="333.429677" xlink:href="#md9c0bd02be" y="27.513663"/>
    </g>
   </g>
   <g id="line2d_35">
    <path style="fill:none;stroke:#ff00ff;stroke-linecap:square;stroke-width:1.5;"/>
    <g/>
   </g>
   <g id="line2d_36">
    <path clip-path="url(#pd4ce3df955)" d="M 291.51188 53.726049 
" style="fill:none;stroke:#ff00ff;stroke-linecap:square;stroke-width:1.5;"/>
    <defs>
     <path d="M -12 12 
L 12 -12 
M -12 -12 
L 12 12 
" id="md3c4736540" style="stroke:#ff00ff;stroke-width:3;"/>
    </defs>
    <g clip-path="url(#pd4ce3df955)">
     <use style="fill:#ff00ff;stroke:#ff00ff;stroke-width:3;" x="291.51188" xlink:href="#md3c4736540" y="53.726049"/>
    </g>
   </g>
   <g id="line2d_37">
    <defs>
     <path d="M 0 1.5 
C 0.397805 1.5 0.77937 1.341951 1.06066 1.06066 
C 1.341951 0.77937 1.5 0.397805 1.5 0 
C 1.5 -0.397805 1.341951 -0.77937 1.06066 -1.06066 
C 0.77937 -1.341951 0.397805 -1.5 0 -1.5 
C -0.397805 -1.5 -0.77937 -1.341951 -1.06066 -1.06066 
C -1.341951 -0.77937 -1.5 -0.397805 -1.5 0 
C -1.5 0.397805 -1.341951 0.77937 -1.06066 1.06066 
C -0.77937 1.341951 -0.397805 1.5 0 1.5 
z
" id="m8d14e41d1c" style="stroke:#ffa500;"/>
    </defs>
    <g>
     <use style="fill:#ffa500;stroke:#ffa500;" x="282.217237" xlink:href="#m8d14e41d1c" y="27.513663"/>
     <use style="fill:#ffa500;stroke:#ffa500;" x="282.217237" xlink:href="#m8d14e41d1c" y="27.513663"/>
    </g>
   </g>
   <g id="line2d_38">
    <path d="M 49.144027 294.88 
L 49.144027 294.355752 
L 56.12 294.355752 
L 56.12 293.831505 
L 61.069532 293.831505 
L 61.069532 287.016284 
L 64.908686 287.016284 
L 64.908686 283.870798 
L 68.045504 283.870798 
L 68.045504 281.773807 
L 76.834191 281.773807 
L 76.834191 280.725312 
L 79.971009 280.725312 
L 79.971009 279.676816 
L 81.348133 279.676816 
L 81.348133 276.007082 
L 82.623151 276.007082 
L 82.623151 274.958587 
L 85.963579 274.958587 
L 85.963579 269.716109 
L 87.877201 269.716109 
L 87.877201 269.191862 
L 93.273637 269.191862 
L 93.273637 268.143366 
L 94.548655 268.143366 
L 94.548655 267.619119 
L 95.735668 267.619119 
L 95.735668 266.570623 
L 96.299813 266.570623 
L 96.299813 261.852394 
L 101.929467 261.852394 
L 101.929467 261.328146 
L 102.711641 261.328146 
L 102.711641 260.803898 
L 103.089785 260.803898 
L 103.089785 260.279651 
L 106.47416 260.279651 
L 106.47416 258.706907 
L 108.500601 258.706907 
L 108.500601 258.18266 
L 113.035537 258.18266 
L 113.035537 254.512926 
L 113.653743 254.512926 
L 113.653743 253.988678 
L 118.854445 253.988678 
L 118.854445 252.940182 
L 120.562113 252.940182 
L 120.562113 251.891687 
L 121.991263 251.891687 
L 121.991263 251.367439 
L 122.960807 251.367439 
L 122.960807 250.318944 
L 123.989976 250.318944 
L 123.989976 247.697705 
L 125.477743 247.697705 
L 125.477743 246.124962 
L 129.132668 246.124962 
L 129.132668 245.600714 
L 135.003752 245.600714 
L 135.003752 245.076467 
L 135.859892 245.076467 
L 135.859892 243.503724 
L 136.245297 243.503724 
L 136.245297 242.455228 
L 137.655893 242.455228 
L 137.655893 239.309742 
L 149.072341 239.309742 
L 149.175364 237.212751 
L 150.31781 237.212751 
L 150.31781 236.688503 
L 157.002989 236.688503 
L 157.002989 235.11576 
L 160.486577 235.11576 
L 160.486577 234.067265 
L 161.010757 234.067265 
L 161.010757 233.543017 
L 164.857654 233.543017 
L 164.857654 232.494521 
L 166.159191 232.494521 
L 166.159191 231.970274 
L 174.024036 231.970274 
L 174.024036 231.446026 
L 175.257029 231.446026 
L 175.257029 230.397531 
L 176.152488 230.397531 
L 176.152488 229.873283 
L 176.296418 229.873283 
L 176.296418 229.349035 
L 176.860392 229.349035 
L 176.860392 228.824787 
L 177.451196 228.824787 
L 177.451196 227.776292 
L 178.810747 227.776292 
L 178.810747 227.252044 
L 180.353954 227.252044 
L 180.353954 226.727797 
L 180.983847 226.727797 
L 180.983847 226.203549 
L 182.916607 226.203549 
L 182.916607 225.679301 
L 183.492169 225.679301 
L 183.492169 225.155053 
L 185.121165 225.155053 
L 185.171945 224.106558 
L 185.36418 224.106558 
L 185.36418 223.058063 
L 185.994916 223.058063 
L 185.994916 222.533815 
L 186.492175 222.533815 
L 186.492175 220.436824 
L 186.817793 220.436824 
L 186.817793 219.912576 
L 187.973289 219.912576 
L 187.973289 219.388328 
L 188.895995 219.388328 
L 188.895995 218.864081 
L 190.637353 218.864081 
L 190.637353 217.815585 
L 192.456754 217.815585 
L 192.456754 215.718594 
L 192.675323 215.718594 
L 192.675323 214.670099 
L 192.810024 214.670099 
L 192.846578 213.097356 
L 193.042239 213.097356 
L 193.042239 212.04886 
L 193.2357 212.04886 
L 193.2357 211.524613 
L 193.929546 211.524613 
L 193.969502 210.476117 
L 195.123416 210.476117 
L 195.123416 208.903374 
L 195.777274 208.903374 
L 195.87452 195.272933 
L 196.346054 195.272933 
L 196.346054 194.748686 
L 196.533727 194.748686 
L 196.572978 193.70019 
L 196.683704 193.70019 
L 196.683704 193.175943 
L 196.971813 193.175943 
L 196.971813 192.127447 
L 198.154463 192.127447 
L 198.154463 189.506209 
L 198.413277 189.506209 
L 198.413277 188.457713 
L 198.541967 188.457713 
L 198.541967 187.409218 
L 199.741893 187.409218 
L 199.747327 179.021254 
L 199.990109 179.021254 
L 199.990109 178.497006 
L 200.517664 178.497006 
L 200.517664 174.827272 
L 200.66639 174.827272 
L 200.66639 173.778777 
L 201.180158 173.778777 
L 201.180158 173.254529 
L 201.356722 173.254529 
L 201.356722 168.012052 
L 201.680241 168.012052 
L 201.680241 155.954354 
L 202.032318 155.954354 
L 202.032318 154.905859 
L 202.65258 154.905859 
L 202.65258 152.808868 
L 203.686708 152.808868 
L 203.686708 151.236125 
L 203.99189 151.236125 
L 203.99189 141.799666 
L 204.788304 141.799666 
L 204.815643 132.363207 
L 205.4005 132.363207 
L 205.4005 130.790464 
L 207.490173 130.790464 
L 207.490173 129.217721 
L 207.804277 129.217721 
L 207.804277 117.684271 
L 208.029015 117.684271 
L 208.029015 111.393298 
L 208.985677 111.393298 
L 208.985677 110.869051 
L 209.494949 110.869051 
L 209.49572 107.199317 
L 209.694206 107.199317 
L 209.694206 106.675069 
L 209.888921 106.675069 
L 209.888921 96.714362 
L 210.038194 96.714362 
L 210.038194 94.093124 
L 210.422247 94.093124 
L 210.422247 91.996133 
L 211.47817 91.996133 
L 211.47817 85.70516 
L 212.143126 85.70516 
L 212.143126 85.180912 
L 212.275449 85.180912 
L 212.275449 76.792949 
L 212.434074 76.792949 
L 212.434074 76.268701 
L 212.60348 76.268701 
L 212.60348 75.744454 
L 213.721294 75.744454 
L 213.766455 74.17171 
L 214.770893 74.17171 
L 214.770893 72.598967 
L 215.374517 72.598967 
L 215.460837 71.550472 
L 216.280765 71.550472 
L 216.280765 66.832242 
L 216.745194 66.832242 
L 216.745194 65.783747 
L 217.60537 65.783747 
L 217.667799 64.735251 
L 217.884059 64.735251 
L 217.884059 63.162508 
L 218.775569 63.162508 
L 218.775569 62.638261 
L 220.837979 62.638261 
L 220.837979 62.114013 
L 222.793308 62.114013 
L 222.793308 60.017022 
L 254.830947 60.017022 
L 254.830947 58.444279 
L 254.974404 58.444279 
L 255.056984 50.580563 
L 255.167815 50.580563 
L 255.210856 47.959324 
L 255.384414 47.959324 
L 255.489119 45.338086 
L 255.523348 45.338086 
L 255.561484 42.192599 
L 255.640298 42.192599 
L 255.729354 39.047113 
L 255.916686 39.047113 
L 255.980971 37.998618 
L 256.060465 37.998618 
L 256.060465 35.377379 
L 256.196313 35.377379 
L 256.196313 34.853131 
L 256.827265 34.853131 
L 256.827265 34.328884 
L 266.591484 34.328884 
L 266.591484 33.804636 
L 266.749623 33.804636 
L 266.851379 31.183397 
L 266.962154 31.183397 
L 266.962154 30.65915 
L 267.112065 30.65915 
L 267.112065 30.134902 
L 267.251391 30.134902 
L 267.251391 29.610654 
L 273.357783 29.610654 
L 273.357783 29.086407 
L 273.610155 29.086407 
L 273.610155 28.562159 
L 278.296775 28.562159 
L 278.296775 28.037911 
L 282.217237 28.037911 
L 282.217237 27.513663 
L 333.429677 27.513663 
L 333.429677 27.513663 
" style="fill:none;stroke:#ffa500;stroke-linecap:square;stroke-width:1.5;"/>
   </g>
   <g id="line2d_39">
    <defs>
     <path d="M 0 -6 
L -1.347084 -1.854102 
L -5.706339 -1.854102 
L -2.179628 0.708204 
L -3.526712 4.854102 
L -0 2.291796 
L 3.526712 4.854102 
L 2.179628 0.708204 
L 5.706339 -1.854102 
L 1.347084 -1.854102 
z
" id="m6b0e301244" style="stroke:#ffa500;stroke-linejoin:bevel;stroke-width:1.5;"/>
    </defs>
    <g>
     <use style="fill-opacity:0;stroke:#ffa500;stroke-linejoin:bevel;stroke-width:1.5;" x="161.010757" xlink:href="#m6b0e301244" y="233.543017"/>
     <use style="fill-opacity:0;stroke:#ffa500;stroke-linejoin:bevel;stroke-width:1.5;" x="201.356722" xlink:href="#m6b0e301244" y="168.012052"/>
     <use style="fill-opacity:0;stroke:#ffa500;stroke-linejoin:bevel;stroke-width:1.5;" x="256.827265" xlink:href="#m6b0e301244" y="34.328884"/>
     <use style="fill-opacity:0;stroke:#ffa500;stroke-linejoin:bevel;stroke-width:1.5;" x="282.217237" xlink:href="#m6b0e301244" y="27.513663"/>
     <use style="fill-opacity:0;stroke:#ffa500;stroke-linejoin:bevel;stroke-width:1.5;" x="282.217237" xlink:href="#m6b0e301244" y="27.513663"/>
     <use style="fill-opacity:0;stroke:#ffa500;stroke-linejoin:bevel;stroke-width:1.5;" x="333.429677" xlink:href="#m6b0e301244" y="27.513663"/>
    </g>
   </g>
   <g id="line2d_40">
    <path style="fill:none;stroke:#ffa500;stroke-linecap:square;stroke-width:1.5;"/>
    <g/>
   </g>
   <g id="line2d_41">
    <path clip-path="url(#pd4ce3df955)" d="M 254.265881 60.017022 
" style="fill:none;stroke:#ffa500;stroke-linecap:square;stroke-width:1.5;"/>
    <defs>
     <path d="M -12 12 
L 12 -12 
M -12 -12 
L 12 12 
" id="m8090f3e829" style="stroke:#ffa500;stroke-width:3;"/>
    </defs>
    <g clip-path="url(#pd4ce3df955)">
     <use style="fill:#ffa500;stroke:#ffa500;stroke-width:3;" x="254.265881" xlink:href="#m8090f3e829" y="60.017022"/>
    </g>
   </g>
   <g id="line2d_42">
    <defs>
     <path d="M 0 1.5 
C 0.397805 1.5 0.77937 1.341951 1.06066 1.06066 
C 1.341951 0.77937 1.5 0.397805 1.5 0 
C 1.5 -0.397805 1.341951 -0.77937 1.06066 -1.06066 
C 0.77937 -1.341951 0.397805 -1.5 0 -1.5 
C -0.397805 -1.5 -0.77937 -1.341951 -1.06066 -1.06066 
C -1.341951 -0.77937 -1.5 -0.397805 -1.5 0 
C -1.5 0.397805 -1.341951 0.77937 -1.06066 1.06066 
C -0.77937 1.341951 -0.397805 1.5 0 1.5 
z
" id="m160019dfac" style="stroke:#6495ed;"/>
    </defs>
    <g>
     <use style="fill:#6495ed;stroke:#6495ed;" x="190.183952" xlink:href="#m160019dfac" y="27.513663"/>
     <use style="fill:#6495ed;stroke:#6495ed;" x="190.183952" xlink:href="#m160019dfac" y="27.513663"/>
    </g>
   </g>
   <g id="line2d_43">
    <path d="M 37.218523 294.88 
L 37.218523 292.258761 
L 49.144027 292.258761 
L 49.144027 288.06478 
L 56.12 288.06478 
L 56.12 286.492036 
L 61.069532 286.492036 
L 61.069532 278.628321 
L 64.908686 278.628321 
L 64.908686 277.579825 
L 70.697646 277.579825 
L 70.697646 277.055578 
L 75.021477 277.055578 
L 75.021477 273.385844 
L 84.92054 273.385844 
L 84.92054 270.764605 
L 86.946982 270.764605 
L 86.946982 269.716109 
L 87.877201 269.716109 
L 87.877201 267.619119 
L 100.6852 267.619119 
L 100.6852 267.094871 
L 101.929467 267.094871 
L 101.929467 264.99788 
L 106.47416 264.99788 
L 106.47416 263.425137 
L 107.945557 263.425137 
L 107.945557 262.376641 
L 110.313314 262.376641 
L 110.313314 260.279651 
L 111.269386 260.279651 
L 111.269386 259.755403 
L 112.175115 259.755403 
L 112.175115 256.609917 
L 119.586677 256.609917 
L 119.586677 256.085669 
L 121.09564 256.085669 
L 121.09564 254.512926 
L 122.238819 254.512926 
L 122.238819 253.988678 
L 122.482864 253.988678 
L 122.482864 252.940182 
L 124.961042 252.940182 
L 124.961042 252.415935 
L 126.077974 252.415935 
L 126.077974 251.891687 
L 126.370415 251.891687 
L 126.370415 247.697705 
L 126.940794 247.697705 
L 126.940794 245.076467 
L 127.492869 245.076467 
L 127.492869 243.503724 
L 129.619631 243.503724 
L 129.619631 242.979476 
L 130.015162 242.979476 
L 130.015162 242.455228 
L 132.889306 242.455228 
L 132.889306 241.93098 
L 133.281829 241.93098 
L 133.281829 241.406733 
L 135.293891 241.406733 
L 135.293891 240.358237 
L 136.026124 240.358237 
L 136.026124 239.83399 
L 136.568909 239.83399 
L 136.568909 239.309742 
L 137.24986 239.309742 
L 137.24986 236.164255 
L 137.855372 236.164255 
L 137.855372 234.591512 
L 139.909337 234.591512 
L 139.909337 233.018769 
L 142.173693 233.018769 
L 142.173693 232.494521 
L 142.817295 232.494521 
L 142.817295 231.970274 
L 144.140023 231.970274 
L 144.140023 231.446026 
L 144.37922 231.446026 
L 144.480724 229.349035 
L 144.548063 229.349035 
L 144.548063 228.824787 
L 144.74851 228.824787 
L 144.74851 228.30054 
L 145.432237 228.30054 
L 145.432237 227.252044 
L 146.333872 227.252044 
L 146.333872 226.727797 
L 146.66388 226.727797 
L 146.66388 225.679301 
L 146.987677 225.679301 
L 146.987677 225.155053 
L 147.391159 225.155053 
L 147.391159 224.630806 
L 148.061564 224.630806 
L 148.061564 222.533815 
L 149.328752 222.533815 
L 149.328752 220.961072 
L 150.485197 220.961072 
L 150.485197 220.436824 
L 150.861789 220.436824 
L 150.885054 218.864081 
L 151.115996 218.864081 
L 151.115996 218.339833 
L 151.411658 218.339833 
L 151.411658 216.76709 
L 151.657926 216.76709 
L 151.68014 215.194347 
L 152.009956 215.194347 
L 152.009956 214.670099 
L 152.418846 214.670099 
L 152.418846 213.621604 
L 153.249158 213.621604 
L 153.249158 213.097356 
L 153.649755 213.097356 
L 153.649755 212.573108 
L 154.156965 212.573108 
L 154.156965 211.000365 
L 155.110439 211.000365 
L 155.128616 209.95187 
L 155.470386 209.95187 
L 155.541481 207.854879 
L 156.253747 207.854879 
L 156.253747 207.330631 
L 156.49036 207.330631 
L 156.49036 206.806383 
L 156.657399 206.806383 
L 156.657399 205.757888 
L 157.18128 205.757888 
L 157.18128 204.709392 
L 158.722584 204.709392 
L 158.722584 203.660897 
L 158.942317 203.660897 
L 158.942317 203.136649 
L 159.173647 203.136649 
L 159.173647 202.612401 
L 159.557097 202.612401 
L 159.557097 202.088154 
L 160.137092 202.088154 
L 160.137092 201.039658 
L 160.272351 201.039658 
L 160.379797 199.466915 
L 160.724437 199.466915 
L 160.724437 198.942667 
L 161.139344 198.942667 
L 161.139344 191.078952 
L 161.494358 191.078952 
L 161.494358 188.981961 
L 161.619394 188.981961 
L 161.619394 187.933465 
L 162.207233 187.933465 
L 162.291305 182.690988 
L 162.752336 182.690988 
L 162.752336 181.642493 
L 162.926417 181.642493 
L 162.984055 180.06975 
L 163.280698 180.06975 
L 163.359697 179.021254 
L 163.616741 179.021254 
L 163.616741 177.448511 
L 164.259073 177.448511 
L 164.323071 175.875768 
L 164.733356 175.875768 
L 164.733356 175.35152 
L 164.867972 175.35152 
L 164.867972 174.827272 
L 165.144238 174.827272 
L 165.144238 166.439309 
L 165.614811 166.439309 
L 165.614811 158.575593 
L 165.908583 158.575593 
L 165.986083 149.663382 
L 166.05361 149.663382 
L 166.05361 148.090639 
L 166.302129 148.090639 
L 166.368429 139.702675 
L 166.742463 139.702675 
L 166.742463 137.081437 
L 167.243832 137.081437 
L 167.243832 136.032941 
L 167.546617 136.032941 
L 167.546617 135.508693 
L 168.051144 135.508693 
L 168.051144 127.12073 
L 168.238711 127.12073 
L 168.238711 126.596482 
L 168.541296 126.596482 
L 168.599519 117.684271 
L 168.707127 117.684271 
L 168.707127 116.111528 
L 169.505247 116.111528 
L 169.505247 107.199317 
L 169.79428 107.199317 
L 169.79428 96.714362 
L 170.025118 96.714362 
L 170.124194 94.617371 
L 170.33567 94.617371 
L 170.33567 94.093124 
L 170.485148 94.093124 
L 170.500025 91.996133 
L 170.62596 91.996133 
L 170.62596 90.947637 
L 170.787578 90.947637 
L 170.787578 85.180912 
L 170.918691 85.180912 
L 170.918691 80.462683 
L 171.077596 80.462683 
L 171.077596 79.938435 
L 171.22792 79.938435 
L 171.22792 79.414188 
L 171.475578 79.414188 
L 171.475578 78.88994 
L 171.622479 78.88994 
L 171.622479 69.453481 
L 171.843945 69.453481 
L 171.91942 64.735251 
L 171.967278 64.735251 
L 171.967278 61.589765 
L 172.405427 61.589765 
L 172.465224 60.54127 
L 172.597367 60.54127 
L 172.597367 59.492774 
L 172.748086 59.492774 
L 172.748086 58.968526 
L 173.007103 58.968526 
L 173.116015 56.347288 
L 173.767698 56.347288 
L 173.81682 54.774545 
L 174.365926 54.774545 
L 174.365926 54.250297 
L 174.776702 54.250297 
L 174.776702 53.201802 
L 182.488612 53.201802 
L 182.488612 49.00782 
L 182.64715 49.00782 
L 182.64715 46.910829 
L 183.210347 46.910829 
L 183.210347 46.386581 
L 184.123359 46.386581 
L 184.140192 43.765343 
L 184.884338 43.765343 
L 184.884338 43.241095 
L 185.913154 43.241095 
L 185.913154 42.192599 
L 187.00113 42.192599 
L 187.00113 41.668352 
L 187.751043 41.668352 
L 187.751043 40.095609 
L 189.06868 40.095609 
L 189.06868 31.707645 
L 189.269645 31.707645 
L 189.269645 28.037911 
L 190.183952 28.037911 
L 190.183952 27.513663 
L 333.429677 27.513663 
L 333.429677 27.513663 
" style="fill:none;stroke:#6495ed;stroke-linecap:square;stroke-width:1.5;"/>
   </g>
   <g id="line2d_44">
    <defs>
     <path d="M -0 6 
L 6 -6 
L -6 -6 
z
" id="m8f38cb8010" style="stroke:#6495ed;stroke-linejoin:miter;stroke-width:1.5;"/>
    </defs>
    <g>
     <use style="fill-opacity:0;stroke:#6495ed;stroke-linejoin:miter;stroke-width:1.5;" x="75.021477" xlink:href="#m8f38cb8010" y="277.055578"/>
     <use style="fill-opacity:0;stroke:#6495ed;stroke-linejoin:miter;stroke-width:1.5;" x="144.548063" xlink:href="#m8f38cb8010" y="228.824787"/>
     <use style="fill-opacity:0;stroke:#6495ed;stroke-linejoin:miter;stroke-width:1.5;" x="170.500025" xlink:href="#m8f38cb8010" y="92.520381"/>
     <use style="fill-opacity:0;stroke:#6495ed;stroke-linejoin:miter;stroke-width:1.5;" x="190.183952" xlink:href="#m8f38cb8010" y="28.037911"/>
     <use style="fill-opacity:0;stroke:#6495ed;stroke-linejoin:miter;stroke-width:1.5;" x="190.183952" xlink:href="#m8f38cb8010" y="27.513663"/>
     <use style="fill-opacity:0;stroke:#6495ed;stroke-linejoin:miter;stroke-width:1.5;" x="333.429677" xlink:href="#m8f38cb8010" y="27.513663"/>
    </g>
   </g>
   <g id="line2d_45">
    <path style="fill:none;stroke:#6495ed;stroke-linecap:square;stroke-width:1.5;"/>
    <g/>
   </g>
   <g id="line2d_46">
    <defs>
     <path d="M 0 1.5 
C 0.397805 1.5 0.77937 1.341951 1.06066 1.06066 
C 1.341951 0.77937 1.5 0.397805 1.5 0 
C 1.5 -0.397805 1.341951 -0.77937 1.06066 -1.06066 
C 0.77937 -1.341951 0.397805 -1.5 0 -1.5 
C -0.397805 -1.5 -0.77937 -1.341951 -1.06066 -1.06066 
C -1.341951 -0.77937 -1.5 -0.397805 -1.5 0 
C -1.5 0.397805 -1.341951 0.77937 -1.06066 1.06066 
C -0.77937 1.341951 -0.397805 1.5 0 1.5 
z
" id="m7d89de5177" style="stroke:#ff0000;"/>
    </defs>
    <g>
     <use style="fill:#ff0000;stroke:#ff0000;" x="258.862499" xlink:href="#m7d89de5177" y="200.515411"/>
     <use style="fill:#ff0000;stroke:#ff0000;" x="258.862499" xlink:href="#m7d89de5177" y="200.515411"/>
    </g>
   </g>
   <g id="line2d_47">
    <path d="M 37.218523 294.88 
L 37.218523 293.831505 
L 61.069532 293.831505 
L 61.069532 292.783009 
L 116.790561 292.783009 
L 116.790561 291.210266 
L 125.065631 291.210266 
L 125.065631 285.967789 
L 125.375637 285.967789 
L 125.375637 285.443541 
L 125.680156 285.443541 
L 125.680156 284.395046 
L 136.93892 284.395046 
L 136.93892 282.298055 
L 137.55528 282.298055 
L 137.55528 280.725312 
L 138.15032 280.725312 
L 138.15032 278.104073 
L 138.630934 278.104073 
L 138.630934 277.579825 
L 138.772539 277.579825 
L 138.772539 276.53133 
L 139.005987 276.53133 
L 139.005987 276.007082 
L 140.767613 276.007082 
L 140.767613 273.910091 
L 141.343906 273.910091 
L 141.343906 273.385844 
L 144.311217 273.385844 
L 144.311217 271.8131 
L 144.480724 271.8131 
L 144.581633 269.716109 
L 147.924034 269.716109 
L 147.924034 266.570623 
L 151.093041 266.570623 
L 151.093041 265.522128 
L 151.900718 265.522128 
L 151.900718 264.99788 
L 152.29077 264.99788 
L 152.29077 263.949385 
L 153.167907 263.949385 
L 153.167907 263.425137 
L 153.28964 263.425137 
L 153.350185 261.852394 
L 161.35576 261.852394 
L 161.444088 259.755403 
L 162.231295 259.755403 
L 162.231295 259.231155 
L 162.374969 259.231155 
L 162.374969 258.18266 
L 162.658767 258.18266 
L 162.763996 256.609917 
L 162.833793 256.609917 
L 162.833793 256.085669 
L 163.404677 256.085669 
L 163.404677 255.037173 
L 164.439786 255.037173 
L 164.545209 251.891687 
L 166.311616 251.891687 
L 166.311616 251.367439 
L 168.085399 251.367439 
L 168.162226 248.746201 
L 168.348593 248.746201 
L 168.348593 248.221953 
L 170.16973 248.221953 
L 170.16973 247.173458 
L 172.211323 247.173458 
L 172.211323 246.64921 
L 181.568062 246.64921 
L 181.568062 246.124962 
L 183.0031 246.124962 
L 183.056938 244.552219 
L 183.14273 244.552219 
L 183.14273 244.027971 
L 186.076292 244.027971 
L 186.094323 240.882485 
L 187.911241 240.882485 
L 187.922048 239.309742 
L 188.957141 239.309742 
L 188.957141 238.261246 
L 190.079435 238.261246 
L 190.079435 237.736999 
L 190.507696 237.736999 
L 190.5286 235.11576 
L 194.317543 235.11576 
L 194.317543 234.591512 
L 194.71883 234.591512 
L 194.71883 234.067265 
L 196.397291 234.067265 
L 196.397291 233.543017 
L 196.612139 233.543017 
L 196.63657 232.494521 
L 197.062554 232.494521 
L 197.119618 230.921778 
L 197.448773 230.921778 
L 197.520041 229.873283 
L 202.092871 229.873283 
L 202.092871 229.349035 
L 202.416925 229.349035 
L 202.416925 228.824787 
L 202.83404 228.824787 
L 202.83404 228.30054 
L 204.127212 228.30054 
L 204.127212 227.776292 
L 204.279232 227.776292 
L 204.279232 227.252044 
L 206.521997 227.252044 
L 206.521997 226.203549 
L 207.148155 226.203549 
L 207.245943 225.155053 
L 207.447683 225.155053 
L 207.447683 224.630806 
L 207.65309 224.630806 
L 207.65309 224.106558 
L 207.777894 224.106558 
L 207.777894 223.58231 
L 210.832894 223.58231 
L 210.832894 223.058063 
L 213.573545 223.058063 
L 213.573545 222.533815 
L 213.708628 222.533815 
L 213.752017 220.961072 
L 218.28641 220.961072 
L 218.28641 220.436824 
L 218.42458 220.436824 
L 218.42458 219.912576 
L 220.298562 219.912576 
L 220.298562 219.388328 
L 220.560258 219.388328 
L 220.560258 218.864081 
L 221.898223 218.864081 
L 221.898223 218.339833 
L 222.128709 218.339833 
L 222.173774 217.291338 
L 223.273357 217.291338 
L 223.273357 216.76709 
L 224.940002 216.76709 
L 224.940002 216.242842 
L 225.109414 216.242842 
L 225.156316 214.670099 
L 227.539337 214.670099 
L 227.597303 213.621604 
L 227.829095 213.621604 
L 227.829095 213.097356 
L 229.846919 213.097356 
L 229.9322 211.524613 
L 231.896594 211.524613 
L 231.896594 211.000365 
L 233.62219 211.000365 
L 233.62219 210.476117 
L 236.700912 210.476117 
L 236.780644 209.427622 
L 236.81612 209.427622 
L 236.830762 208.379126 
L 239.34628 208.379126 
L 239.34628 207.854879 
L 240.528932 207.854879 
L 240.570137 206.806383 
L 241.571814 206.806383 
L 241.634183 205.23364 
L 241.765809 205.23364 
L 241.765809 204.709392 
L 242.566921 204.709392 
L 242.566921 204.185145 
L 244.570871 204.185145 
L 244.570871 203.660897 
L 247.756795 203.660897 
L 247.756795 203.136649 
L 248.466795 203.136649 
L 248.566454 202.088154 
L 249.83876 202.088154 
L 249.83876 201.563906 
L 252.336556 201.563906 
L 252.336556 201.039658 
L 258.862499 201.039658 
L 258.862499 200.515411 
L 333.429677 200.515411 
L 333.429677 200.515411 
" style="fill:none;stroke:#ff0000;stroke-linecap:square;stroke-width:1.5;"/>
   </g>
   <g id="line2d_48">
    <defs>
     <path d="M 0 -6 
L -5.196152 -3 
L -5.196152 3 
L -0 6 
L 5.196152 3 
L 5.196152 -3 
z
" id="m1007a78ff9" style="stroke:#ff0000;stroke-linejoin:miter;stroke-width:1.5;"/>
    </defs>
    <g>
     <use style="fill-opacity:0;stroke:#ff0000;stroke-linejoin:miter;stroke-width:1.5;" x="61.069532" xlink:href="#m1007a78ff9" y="292.783009"/>
     <use style="fill-opacity:0;stroke:#ff0000;stroke-linejoin:miter;stroke-width:1.5;" x="168.348593" xlink:href="#m1007a78ff9" y="248.221953"/>
     <use style="fill-opacity:0;stroke:#ff0000;stroke-linejoin:miter;stroke-width:1.5;" x="236.830762" xlink:href="#m1007a78ff9" y="208.903374"/>
     <use style="fill-opacity:0;stroke:#ff0000;stroke-linejoin:miter;stroke-width:1.5;" x="258.862499" xlink:href="#m1007a78ff9" y="200.515411"/>
     <use style="fill-opacity:0;stroke:#ff0000;stroke-linejoin:miter;stroke-width:1.5;" x="258.862499" xlink:href="#m1007a78ff9" y="200.515411"/>
     <use style="fill-opacity:0;stroke:#ff0000;stroke-linejoin:miter;stroke-width:1.5;" x="333.429677" xlink:href="#m1007a78ff9" y="200.515411"/>
    </g>
   </g>
   <g id="line2d_49">
    <path style="fill:none;stroke:#ff0000;stroke-linecap:square;stroke-width:1.5;"/>
    <g/>
   </g>
   <g id="line2d_50">
    <path clip-path="url(#pd4ce3df955)" d="M 193.726435 235.11576 
" style="fill:none;stroke:#ff0000;stroke-linecap:square;stroke-width:1.5;"/>
    <defs>
     <path d="M -12 12 
L 12 -12 
M -12 -12 
L 12 12 
" id="m657f8abe0b" style="stroke:#ff0000;stroke-width:3;"/>
    </defs>
    <g clip-path="url(#pd4ce3df955)">
     <use style="fill:#ff0000;stroke:#ff0000;stroke-width:3;" x="193.726435" xlink:href="#m657f8abe0b" y="235.11576"/>
    </g>
   </g>
   <g id="line2d_51">
    <defs>
     <path d="M 0 1.5 
C 0.397805 1.5 0.77937 1.341951 1.06066 1.06066 
C 1.341951 0.77937 1.5 0.397805 1.5 0 
C 1.5 -0.397805 1.341951 -0.77937 1.06066 -1.06066 
C 0.77937 -1.341951 0.397805 -1.5 0 -1.5 
C -0.397805 -1.5 -0.77937 -1.341951 -1.06066 -1.06066 
C -1.341951 -0.77937 -1.5 -0.397805 -1.5 0 
C -1.5 0.397805 -1.341951 0.77937 -1.06066 1.06066 
C -0.77937 1.341951 -0.397805 1.5 0 1.5 
z
" id="m2a12be8f09" style="stroke:#9acd32;"/>
    </defs>
    <g>
     <use style="fill:#9acd32;stroke:#9acd32;" x="144.715264" xlink:href="#m2a12be8f09" y="258.18266"/>
     <use style="fill:#9acd32;stroke:#9acd32;" x="144.715264" xlink:href="#m2a12be8f09" y="258.18266"/>
    </g>
   </g>
   <g id="line2d_52">
    <path d="M 37.218523 294.88 
L 37.218523 291.734514 
L 49.144027 291.734514 
L 49.144027 291.210266 
L 56.12 291.210266 
L 56.12 287.016284 
L 64.908686 287.016284 
L 64.908686 283.34655 
L 68.045504 283.34655 
L 68.045504 280.725312 
L 70.697646 280.725312 
L 70.697646 280.201064 
L 76.834191 280.201064 
L 76.834191 277.579825 
L 78.47399 277.579825 
L 78.47399 276.53133 
L 82.623151 276.53133 
L 82.623151 275.482834 
L 84.92054 275.482834 
L 84.92054 274.958587 
L 86.946982 274.958587 
L 86.946982 274.434339 
L 91.164281 274.434339 
L 91.164281 271.288853 
L 95.152397 271.288853 
L 95.152397 270.240357 
L 98.872486 270.240357 
L 98.872486 269.716109 
L 100.6852 269.716109 
L 100.6852 269.191862 
L 101.524628 269.191862 
L 101.524628 268.667614 
L 104.17677 268.667614 
L 104.17677 268.143366 
L 106.164154 268.143366 
L 106.164154 267.619119 
L 108.225317 267.619119 
L 108.225317 267.094871 
L 111.500328 267.094871 
L 111.500328 266.046375 
L 112.394288 266.046375 
L 112.394288 265.522128 
L 112.824432 265.522128 
L 112.824432 264.99788 
L 114.250503 264.99788 
L 114.250503 264.473632 
L 115.385301 264.473632 
L 115.385301 263.949385 
L 116.621053 263.949385 
L 116.621053 263.425137 
L 116.790561 263.425137 
L 116.790561 262.900889 
L 121.09564 262.900889 
L 121.09564 262.376641 
L 121.356325 262.376641 
L 121.356325 261.852394 
L 122.238819 261.852394 
L 122.238819 261.328146 
L 123.766534 261.328146 
L 123.766534 260.803898 
L 129.858039 260.803898 
L 129.858039 259.755403 
L 142.403606 259.755403 
L 142.403606 258.706907 
L 144.715264 258.706907 
L 144.715264 258.18266 
L 333.429677 258.18266 
" style="fill:none;stroke:#9acd32;stroke-linecap:square;stroke-width:1.5;"/>
   </g>
   <g id="line2d_53">
    <defs>
     <path d="M 0 -6 
L -6 6 
L 6 6 
z
" id="me7fd21444a" style="stroke:#9acd32;stroke-linejoin:miter;stroke-width:1.5;"/>
    </defs>
    <g>
     <use style="fill-opacity:0;stroke:#9acd32;stroke-linejoin:miter;stroke-width:1.5;" x="70.697646" xlink:href="#me7fd21444a" y="280.201064"/>
     <use style="fill-opacity:0;stroke:#9acd32;stroke-linejoin:miter;stroke-width:1.5;" x="122.238819" xlink:href="#me7fd21444a" y="261.328146"/>
     <use style="fill-opacity:0;stroke:#9acd32;stroke-linejoin:miter;stroke-width:1.5;" x="144.715264" xlink:href="#me7fd21444a" y="258.706907"/>
     <use style="fill-opacity:0;stroke:#9acd32;stroke-linejoin:miter;stroke-width:1.5;" x="144.715264" xlink:href="#me7fd21444a" y="258.18266"/>
     <use style="fill-opacity:0;stroke:#9acd32;stroke-linejoin:miter;stroke-width:1.5;" x="144.715264" xlink:href="#me7fd21444a" y="258.18266"/>
     <use style="fill-opacity:0;stroke:#9acd32;stroke-linejoin:miter;stroke-width:1.5;" x="333.429677" xlink:href="#me7fd21444a" y="258.18266"/>
    </g>
   </g>
   <g id="line2d_54">
    <path style="fill:none;stroke:#9acd32;stroke-linecap:square;stroke-width:1.5;"/>
    <g/>
   </g>
   <g id="line2d_55">
    <path clip-path="url(#pd4ce3df955)" d="M 81.348133 276.53133 
" style="fill:none;stroke:#9acd32;stroke-linecap:square;stroke-width:1.5;"/>
    <defs>
     <path d="M -12 12 
L 12 -12 
M -12 -12 
L 12 12 
" id="mfd939537f1" style="stroke:#9acd32;stroke-width:3;"/>
    </defs>
    <g clip-path="url(#pd4ce3df955)">
     <use style="fill:#9acd32;stroke:#9acd32;stroke-width:3;" x="81.348133" xlink:href="#mfd939537f1" y="276.53133"/>
    </g>
   </g>
   <g id="line2d_56">
    <path d="M 333.429677 258.18266 
L 363.933742 289.532673 
" style="fill:none;stroke:#9acd32;stroke-linecap:square;stroke-width:1.5;"/>
    <g>
     <use style="fill-opacity:0;stroke:#9acd32;stroke-linejoin:miter;stroke-width:1.5;" x="333.429677" xlink:href="#me7fd21444a" y="258.18266"/>
     <use style="fill-opacity:0;stroke:#9acd32;stroke-linejoin:miter;stroke-width:1.5;" x="363.933742" xlink:href="#me7fd21444a" y="289.532673"/>
    </g>
   </g>
   <g id="line2d_57">
    <path d="M 333.429677 200.515411 
L 363.933742 246.754059 
" style="fill:none;stroke:#ff0000;stroke-linecap:square;stroke-width:1.5;"/>
    <g>
     <use style="fill-opacity:0;stroke:#ff0000;stroke-linejoin:miter;stroke-width:1.5;" x="333.429677" xlink:href="#m1007a78ff9" y="200.515411"/>
     <use style="fill-opacity:0;stroke:#ff0000;stroke-linejoin:miter;stroke-width:1.5;" x="363.933742" xlink:href="#m1007a78ff9" y="246.754059"/>
    </g>
   </g>
   <g id="line2d_58">
    <path d="M 333.429677 27.513663 
L 363.933742 203.975446 
" style="fill:none;stroke:#ff00ff;stroke-linecap:square;stroke-width:1.5;"/>
    <g>
     <use style="fill-opacity:0;stroke:#ff00ff;stroke-linejoin:miter;stroke-width:1.5;" x="333.429677" xlink:href="#md9c0bd02be" y="27.513663"/>
     <use style="fill-opacity:0;stroke:#ff00ff;stroke-linejoin:miter;stroke-width:1.5;" x="363.933742" xlink:href="#md9c0bd02be" y="203.975446"/>
    </g>
   </g>
   <g id="line2d_59">
    <path d="M 333.429677 27.513663 
L 363.933742 161.196832 
" style="fill:none;stroke:#ffa500;stroke-linecap:square;stroke-width:1.5;"/>
    <g>
     <use style="fill-opacity:0;stroke:#ffa500;stroke-linejoin:bevel;stroke-width:1.5;" x="333.429677" xlink:href="#m6b0e301244" y="27.513663"/>
     <use style="fill-opacity:0;stroke:#ffa500;stroke-linejoin:bevel;stroke-width:1.5;" x="363.933742" xlink:href="#m6b0e301244" y="161.196832"/>
    </g>
   </g>
   <g id="line2d_60">
    <path d="M 333.429677 27.513663 
L 363.933742 118.418218 
" style="fill:none;stroke:#000080;stroke-linecap:square;stroke-width:1.5;"/>
    <g>
     <use style="fill-opacity:0;stroke:#000080;stroke-width:1.5;" x="333.429677" xlink:href="#mc4575a0494" y="27.513663"/>
     <use style="fill-opacity:0;stroke:#000080;stroke-width:1.5;" x="363.933742" xlink:href="#mc4575a0494" y="118.418218"/>
    </g>
   </g>
   <g id="line2d_61">
    <path d="M 333.429677 27.513663 
L 363.933742 75.639604 
" style="fill:none;stroke:#6495ed;stroke-linecap:square;stroke-width:1.5;"/>
    <g>
     <use style="fill-opacity:0;stroke:#6495ed;stroke-linejoin:miter;stroke-width:1.5;" x="333.429677" xlink:href="#m8f38cb8010" y="27.513663"/>
     <use style="fill-opacity:0;stroke:#6495ed;stroke-linejoin:miter;stroke-width:1.5;" x="363.933742" xlink:href="#m8f38cb8010" y="75.639604"/>
    </g>
   </g>
   <g id="line2d_62">
    <path d="M 333.429677 294.88 
L 333.429677 27.513663 
" style="fill:none;stroke:#000000;stroke-linecap:square;stroke-width:1.5;"/>
   </g>
   <g id="patch_3">
    <path d="M 56.12 294.88 
L 56.12 24.84 
" style="fill:none;stroke:#000000;stroke-linecap:square;stroke-linejoin:miter;stroke-width:0.8;"/>
   </g>
   <g id="patch_4">
    <path d="M 399.984 294.88 
L 399.984 24.84 
" style="fill:none;stroke:#000000;stroke-linecap:square;stroke-linejoin:miter;stroke-width:0.8;"/>
   </g>
   <g id="patch_5">
    <path d="M 56.12 294.88 
L 399.984 294.88 
" style="fill:none;stroke:#000000;stroke-linecap:square;stroke-linejoin:miter;stroke-width:0.8;"/>
   </g>
   <g id="patch_6">
    <path d="M 56.12 24.84 
L 399.984 24.84 
" style="fill:none;stroke:#000000;stroke-linecap:square;stroke-linejoin:miter;stroke-width:0.8;"/>
   </g>
   <g id="text_14">
    <!-- gsa solve -->
    <g transform="translate(369.479935 294.223611)scale(0.17 -0.17)">
     <use xlink:href="#DejaVuSans-67"/>
     <use x="63.476562" xlink:href="#DejaVuSans-73"/>
     <use x="115.576172" xlink:href="#DejaVuSans-61"/>
     <use x="176.855469" xlink:href="#DejaVuSans-20"/>
     <use x="208.642578" xlink:href="#DejaVuSans-73"/>
     <use x="260.742188" xlink:href="#DejaVuSans-6f"/>
     <use x="321.923828" xlink:href="#DejaVuSans-6c"/>
     <use x="349.707031" xlink:href="#DejaVuSans-76"/>
     <use x="408.886719" xlink:href="#DejaVuSans-65"/>
    </g>
   </g>
   <g id="text_15">
    <!-- Rosenbroc -->
    <defs>
     <path d="M 44.390625 34.1875 
Q 47.5625 33.109375 50.5625 29.59375 
Q 53.5625 26.078125 56.59375 19.921875 
L 66.609375 0 
L 56 0 
L 46.6875 18.703125 
Q 43.0625 26.03125 39.671875 28.421875 
Q 36.28125 30.8125 30.421875 30.8125 
L 19.671875 30.8125 
L 19.671875 0 
L 9.8125 0 
L 9.8125 72.90625 
L 32.078125 72.90625 
Q 44.578125 72.90625 50.734375 67.671875 
Q 56.890625 62.453125 56.890625 51.90625 
Q 56.890625 45.015625 53.6875 40.46875 
Q 50.484375 35.9375 44.390625 34.1875 
z
M 19.671875 64.796875 
L 19.671875 38.921875 
L 32.078125 38.921875 
Q 39.203125 38.921875 42.84375 42.21875 
Q 46.484375 45.515625 46.484375 51.90625 
Q 46.484375 58.296875 42.84375 61.546875 
Q 39.203125 64.796875 32.078125 64.796875 
z
" id="DejaVuSans-52"/>
     <path d="M 48.6875 27.296875 
Q 48.6875 37.203125 44.609375 42.84375 
Q 40.53125 48.484375 33.40625 48.484375 
Q 26.265625 48.484375 22.1875 42.84375 
Q 18.109375 37.203125 18.109375 27.296875 
Q 18.109375 17.390625 22.1875 11.75 
Q 26.265625 6.109375 33.40625 6.109375 
Q 40.53125 6.109375 44.609375 11.75 
Q 48.6875 17.390625 48.6875 27.296875 
z
M 18.109375 46.390625 
Q 20.953125 51.265625 25.265625 53.625 
Q 29.59375 56 35.59375 56 
Q 45.5625 56 51.78125 48.09375 
Q 58.015625 40.1875 58.015625 27.296875 
Q 58.015625 14.40625 51.78125 6.484375 
Q 45.5625 -1.421875 35.59375 -1.421875 
Q 29.59375 -1.421875 25.265625 0.953125 
Q 20.953125 3.328125 18.109375 8.203125 
L 18.109375 0 
L 9.078125 0 
L 9.078125 75.984375 
L 18.109375 75.984375 
z
" id="DejaVuSans-62"/>
    </defs>
    <g transform="translate(369.479935 251.444997)scale(0.17 -0.17)">
     <use xlink:href="#DejaVuSans-52"/>
     <use x="69.419922" xlink:href="#DejaVuSans-6f"/>
     <use x="130.601562" xlink:href="#DejaVuSans-73"/>
     <use x="182.701172" xlink:href="#DejaVuSans-65"/>
     <use x="244.224609" xlink:href="#DejaVuSans-6e"/>
     <use x="307.603516" xlink:href="#DejaVuSans-62"/>
     <use x="371.080078" xlink:href="#DejaVuSans-72"/>
     <use x="412.162109" xlink:href="#DejaVuSans-6f"/>
     <use x="473.34375" xlink:href="#DejaVuSans-63"/>
    </g>
   </g>
   <g id="text_16">
    <!-- DASA -->
    <defs>
     <path d="M 19.671875 64.796875 
L 19.671875 8.109375 
L 31.59375 8.109375 
Q 46.6875 8.109375 53.6875 14.9375 
Q 60.6875 21.78125 60.6875 36.53125 
Q 60.6875 51.171875 53.6875 57.984375 
Q 46.6875 64.796875 31.59375 64.796875 
z
M 9.8125 72.90625 
L 30.078125 72.90625 
Q 51.265625 72.90625 61.171875 64.09375 
Q 71.09375 55.28125 71.09375 36.53125 
Q 71.09375 17.671875 61.125 8.828125 
Q 51.171875 0 30.078125 0 
L 9.8125 0 
z
" id="DejaVuSans-44"/>
     <path d="M 34.1875 63.1875 
L 20.796875 26.90625 
L 47.609375 26.90625 
z
M 28.609375 72.90625 
L 39.796875 72.90625 
L 67.578125 0 
L 57.328125 0 
L 50.6875 18.703125 
L 17.828125 18.703125 
L 11.1875 0 
L 0.78125 0 
z
" id="DejaVuSans-41"/>
     <path d="M 53.515625 70.515625 
L 53.515625 60.890625 
Q 47.90625 63.578125 42.921875 64.890625 
Q 37.9375 66.21875 33.296875 66.21875 
Q 25.25 66.21875 20.875 63.09375 
Q 16.5 59.96875 16.5 54.203125 
Q 16.5 49.359375 19.40625 46.890625 
Q 22.3125 44.4375 30.421875 42.921875 
L 36.375 41.703125 
Q 47.40625 39.59375 52.65625 34.296875 
Q 57.90625 29 57.90625 20.125 
Q 57.90625 9.515625 50.796875 4.046875 
Q 43.703125 -1.421875 29.984375 -1.421875 
Q 24.8125 -1.421875 18.96875 -0.25 
Q 13.140625 0.921875 6.890625 3.21875 
L 6.890625 13.375 
Q 12.890625 10.015625 18.65625 8.296875 
Q 24.421875 6.59375 29.984375 6.59375 
Q 38.421875 6.59375 43.015625 9.90625 
Q 47.609375 13.234375 47.609375 19.390625 
Q 47.609375 24.75 44.3125 27.78125 
Q 41.015625 30.8125 33.5 32.328125 
L 27.484375 33.5 
Q 16.453125 35.6875 11.515625 40.375 
Q 6.59375 45.0625 6.59375 53.421875 
Q 6.59375 63.09375 13.40625 68.65625 
Q 20.21875 74.21875 32.171875 74.21875 
Q 37.3125 74.21875 42.625 73.28125 
Q 47.953125 72.359375 53.515625 70.515625 
z
" id="DejaVuSans-53"/>
    </defs>
    <g transform="translate(369.479935 208.666383)scale(0.17 -0.17)">
     <use xlink:href="#DejaVuSans-44"/>
     <use x="76.986328" xlink:href="#DejaVuSans-41"/>
     <use x="145.394531" xlink:href="#DejaVuSans-53"/>
     <use x="208.886719" xlink:href="#DejaVuSans-41"/>
    </g>
   </g>
   <g id="text_17">
    <!-- GA -->
    <defs>
     <path d="M 59.515625 10.40625 
L 59.515625 29.984375 
L 43.40625 29.984375 
L 43.40625 38.09375 
L 69.28125 38.09375 
L 69.28125 6.78125 
Q 63.578125 2.734375 56.6875 0.65625 
Q 49.8125 -1.421875 42 -1.421875 
Q 24.90625 -1.421875 15.25 8.5625 
Q 5.609375 18.5625 5.609375 36.375 
Q 5.609375 54.25 15.25 64.234375 
Q 24.90625 74.21875 42 74.21875 
Q 49.125 74.21875 55.546875 72.453125 
Q 61.96875 70.703125 67.390625 67.28125 
L 67.390625 56.78125 
Q 61.921875 61.421875 55.765625 63.765625 
Q 49.609375 66.109375 42.828125 66.109375 
Q 29.4375 66.109375 22.71875 58.640625 
Q 16.015625 51.171875 16.015625 36.375 
Q 16.015625 21.625 22.71875 14.15625 
Q 29.4375 6.6875 42.828125 6.6875 
Q 48.046875 6.6875 52.140625 7.59375 
Q 56.25 8.5 59.515625 10.40625 
z
" id="DejaVuSans-47"/>
    </defs>
    <g transform="translate(369.479935 165.887769)scale(0.17 -0.17)">
     <use xlink:href="#DejaVuSans-47"/>
     <use x="77.490234" xlink:href="#DejaVuSans-41"/>
    </g>
   </g>
   <g id="text_18">
    <!-- ALPS -->
    <defs>
     <path d="M 9.8125 72.90625 
L 19.671875 72.90625 
L 19.671875 8.296875 
L 55.171875 8.296875 
L 55.171875 0 
L 9.8125 0 
z
" id="DejaVuSans-4c"/>
     <path d="M 19.671875 64.796875 
L 19.671875 37.40625 
L 32.078125 37.40625 
Q 38.96875 37.40625 42.71875 40.96875 
Q 46.484375 44.53125 46.484375 51.125 
Q 46.484375 57.671875 42.71875 61.234375 
Q 38.96875 64.796875 32.078125 64.796875 
z
M 9.8125 72.90625 
L 32.078125 72.90625 
Q 44.34375 72.90625 50.609375 67.359375 
Q 56.890625 61.8125 56.890625 51.125 
Q 56.890625 40.328125 50.609375 34.8125 
Q 44.34375 29.296875 32.078125 29.296875 
L 19.671875 29.296875 
L 19.671875 0 
L 9.8125 0 
z
" id="DejaVuSans-50"/>
    </defs>
    <g transform="translate(369.479935 123.109155)scale(0.17 -0.17)">
     <use xlink:href="#DejaVuSans-41"/>
     <use x="68.408203" xlink:href="#DejaVuSans-4c"/>
     <use x="124.121094" xlink:href="#DejaVuSans-50"/>
     <use x="184.423828" xlink:href="#DejaVuSans-53"/>
    </g>
   </g>
   <g id="text_19">
    <!-- PSO -->
    <defs>
     <path d="M 39.40625 66.21875 
Q 28.65625 66.21875 22.328125 58.203125 
Q 16.015625 50.203125 16.015625 36.375 
Q 16.015625 22.609375 22.328125 14.59375 
Q 28.65625 6.59375 39.40625 6.59375 
Q 50.140625 6.59375 56.421875 14.59375 
Q 62.703125 22.609375 62.703125 36.375 
Q 62.703125 50.203125 56.421875 58.203125 
Q 50.140625 66.21875 39.40625 66.21875 
z
M 39.40625 74.21875 
Q 54.734375 74.21875 63.90625 63.9375 
Q 73.09375 53.65625 73.09375 36.375 
Q 73.09375 19.140625 63.90625 8.859375 
Q 54.734375 -1.421875 39.40625 -1.421875 
Q 24.03125 -1.421875 14.8125 8.828125 
Q 5.609375 19.09375 5.609375 36.375 
Q 5.609375 53.65625 14.8125 63.9375 
Q 24.03125 74.21875 39.40625 74.21875 
z
" id="DejaVuSans-4f"/>
    </defs>
    <g transform="translate(369.479935 80.330541)scale(0.17 -0.17)">
     <use xlink:href="#DejaVuSans-50"/>
     <use x="60.302734" xlink:href="#DejaVuSans-53"/>
     <use x="123.779297" xlink:href="#DejaVuSans-4f"/>
    </g>
   </g>
   <g id="text_20">
    <!-- best 2009 -->
    <defs>
     <path d="M 10.984375 1.515625 
L 10.984375 10.5 
Q 14.703125 8.734375 18.5 7.8125 
Q 22.3125 6.890625 25.984375 6.890625 
Q 35.75 6.890625 40.890625 13.453125 
Q 46.046875 20.015625 46.78125 33.40625 
Q 43.953125 29.203125 39.59375 26.953125 
Q 35.25 24.703125 29.984375 24.703125 
Q 19.046875 24.703125 12.671875 31.3125 
Q 6.296875 37.9375 6.296875 49.421875 
Q 6.296875 60.640625 12.9375 67.421875 
Q 19.578125 74.21875 30.609375 74.21875 
Q 43.265625 74.21875 49.921875 64.515625 
Q 56.59375 54.828125 56.59375 36.375 
Q 56.59375 19.140625 48.40625 8.859375 
Q 40.234375 -1.421875 26.421875 -1.421875 
Q 22.703125 -1.421875 18.890625 -0.6875 
Q 15.09375 0.046875 10.984375 1.515625 
z
M 30.609375 32.421875 
Q 37.25 32.421875 41.125 36.953125 
Q 45.015625 41.5 45.015625 49.421875 
Q 45.015625 57.28125 41.125 61.84375 
Q 37.25 66.40625 30.609375 66.40625 
Q 23.96875 66.40625 20.09375 61.84375 
Q 16.21875 57.28125 16.21875 49.421875 
Q 16.21875 41.5 20.09375 36.953125 
Q 23.96875 32.421875 30.609375 32.421875 
z
" id="DejaVuSans-39"/>
    </defs>
    <g transform="translate(369.479935 37.551928)scale(0.17 -0.17)">
     <use xlink:href="#DejaVuSans-62"/>
     <use x="63.476562" xlink:href="#DejaVuSans-65"/>
     <use x="125" xlink:href="#DejaVuSans-73"/>
     <use x="177.099609" xlink:href="#DejaVuSans-74"/>
     <use x="216.308594" xlink:href="#DejaVuSans-20"/>
     <use x="248.095703" xlink:href="#DejaVuSans-32"/>
     <use x="311.71875" xlink:href="#DejaVuSans-30"/>
     <use x="375.341797" xlink:href="#DejaVuSans-30"/>
     <use x="438.964844" xlink:href="#DejaVuSans-39"/>
    </g>
   </g>
   <g id="text_21">
    <!-- bbob f7, 3-D -->
    <defs>
     <path d="M 8.203125 72.90625 
L 55.078125 72.90625 
L 55.078125 68.703125 
L 28.609375 0 
L 18.3125 0 
L 43.21875 64.59375 
L 8.203125 64.59375 
z
" id="DejaVuSans-37"/>
     <path d="M 40.578125 39.3125 
Q 47.65625 37.796875 51.625 33 
Q 55.609375 28.21875 55.609375 21.1875 
Q 55.609375 10.40625 48.1875 4.484375 
Q 40.765625 -1.421875 27.09375 -1.421875 
Q 22.515625 -1.421875 17.65625 -0.515625 
Q 12.796875 0.390625 7.625 2.203125 
L 7.625 11.71875 
Q 11.71875 9.328125 16.59375 8.109375 
Q 21.484375 6.890625 26.8125 6.890625 
Q 36.078125 6.890625 40.9375 10.546875 
Q 45.796875 14.203125 45.796875 21.1875 
Q 45.796875 27.640625 41.28125 31.265625 
Q 36.765625 34.90625 28.71875 34.90625 
L 20.21875 34.90625 
L 20.21875 43.015625 
L 29.109375 43.015625 
Q 36.375 43.015625 40.234375 45.921875 
Q 44.09375 48.828125 44.09375 54.296875 
Q 44.09375 59.90625 40.109375 62.90625 
Q 36.140625 65.921875 28.71875 65.921875 
Q 24.65625 65.921875 20.015625 65.03125 
Q 15.375 64.15625 9.8125 62.3125 
L 9.8125 71.09375 
Q 15.4375 72.65625 20.34375 73.4375 
Q 25.25 74.21875 29.59375 74.21875 
Q 40.828125 74.21875 47.359375 69.109375 
Q 53.90625 64.015625 53.90625 55.328125 
Q 53.90625 49.265625 50.4375 45.09375 
Q 46.96875 40.921875 40.578125 39.3125 
z
" id="DejaVuSans-33"/>
    </defs>
    <g transform="translate(59.55864 35.290806)scale(0.102 -0.102)">
     <use xlink:href="#DejaVuSans-62"/>
     <use x="63.476562" xlink:href="#DejaVuSans-62"/>
     <use x="126.953125" xlink:href="#DejaVuSans-6f"/>
     <use x="188.134766" xlink:href="#DejaVuSans-62"/>
     <use x="251.611328" xlink:href="#DejaVuSans-20"/>
     <use x="283.398438" xlink:href="#DejaVuSans-66"/>
     <use x="318.603516" xlink:href="#DejaVuSans-37"/>
     <use x="382.226562" xlink:href="#DejaVuSans-2c"/>
     <use x="414.013672" xlink:href="#DejaVuSans-20"/>
     <use x="445.800781" xlink:href="#DejaVuSans-33"/>
     <use x="509.423828" xlink:href="#DejaVuSans-2d"/>
     <use x="545.507812" xlink:href="#DejaVuSans-44"/>
    </g>
    <!-- 51 targets: 100..1e-08 -->
    <defs>
     <path d="M 10.796875 72.90625 
L 49.515625 72.90625 
L 49.515625 64.59375 
L 19.828125 64.59375 
L 19.828125 46.734375 
Q 21.96875 47.46875 24.109375 47.828125 
Q 26.265625 48.1875 28.421875 48.1875 
Q 40.625 48.1875 47.75 41.5 
Q 54.890625 34.8125 54.890625 23.390625 
Q 54.890625 11.625 47.5625 5.09375 
Q 40.234375 -1.421875 26.90625 -1.421875 
Q 22.3125 -1.421875 17.546875 -0.640625 
Q 12.796875 0.140625 7.71875 1.703125 
L 7.71875 11.625 
Q 12.109375 9.234375 16.796875 8.0625 
Q 21.484375 6.890625 26.703125 6.890625 
Q 35.15625 6.890625 40.078125 11.328125 
Q 45.015625 15.765625 45.015625 23.390625 
Q 45.015625 31 40.078125 35.4375 
Q 35.15625 39.890625 26.703125 39.890625 
Q 22.75 39.890625 18.8125 39.015625 
Q 14.890625 38.140625 10.796875 36.28125 
z
" id="DejaVuSans-35"/>
     <path d="M 11.71875 12.40625 
L 22.015625 12.40625 
L 22.015625 0 
L 11.71875 0 
z
M 11.71875 51.703125 
L 22.015625 51.703125 
L 22.015625 39.3125 
L 11.71875 39.3125 
z
" id="DejaVuSans-3a"/>
    </defs>
    <g transform="translate(59.55864 46.712575)scale(0.102 -0.102)">
     <use xlink:href="#DejaVuSans-35"/>
     <use x="63.623047" xlink:href="#DejaVuSans-31"/>
     <use x="127.246094" xlink:href="#DejaVuSans-20"/>
     <use x="159.033203" xlink:href="#DejaVuSans-74"/>
     <use x="198.242188" xlink:href="#DejaVuSans-61"/>
     <use x="259.521484" xlink:href="#DejaVuSans-72"/>
     <use x="300.619141" xlink:href="#DejaVuSans-67"/>
     <use x="364.095703" xlink:href="#DejaVuSans-65"/>
     <use x="425.619141" xlink:href="#DejaVuSans-74"/>
     <use x="464.828125" xlink:href="#DejaVuSans-73"/>
     <use x="516.927734" xlink:href="#DejaVuSans-3a"/>
     <use x="550.619141" xlink:href="#DejaVuSans-20"/>
     <use x="582.40625" xlink:href="#DejaVuSans-31"/>
     <use x="646.029297" xlink:href="#DejaVuSans-30"/>
     <use x="709.652344" xlink:href="#DejaVuSans-30"/>
     <use x="773.275391" xlink:href="#DejaVuSans-2e"/>
     <use x="805.0625" xlink:href="#DejaVuSans-2e"/>
     <use x="836.849609" xlink:href="#DejaVuSans-31"/>
     <use x="900.472656" xlink:href="#DejaVuSans-65"/>
     <use x="961.996094" xlink:href="#DejaVuSans-2d"/>
     <use x="998.080078" xlink:href="#DejaVuSans-30"/>
     <use x="1061.703125" xlink:href="#DejaVuSans-38"/>
    </g>
    <!-- 15 instances -->
    <g transform="translate(59.55864 58.134344)scale(0.102 -0.102)">
     <use xlink:href="#DejaVuSans-31"/>
     <use x="63.623047" xlink:href="#DejaVuSans-35"/>
     <use x="127.246094" xlink:href="#DejaVuSans-20"/>
     <use x="159.033203" xlink:href="#DejaVuSans-69"/>
     <use x="186.816406" xlink:href="#DejaVuSans-6e"/>
     <use x="250.195312" xlink:href="#DejaVuSans-73"/>
     <use x="302.294922" xlink:href="#DejaVuSans-74"/>
     <use x="341.503906" xlink:href="#DejaVuSans-61"/>
     <use x="402.783203" xlink:href="#DejaVuSans-6e"/>
     <use x="466.162109" xlink:href="#DejaVuSans-63"/>
     <use x="521.142578" xlink:href="#DejaVuSans-65"/>
     <use x="582.666016" xlink:href="#DejaVuSans-73"/>
    </g>
   </g>
   <g id="text_22">
    <!-- v-coco-version -->
    <g style="fill:#808080;" transform="translate(191.556688 290.099912)scale(0.1 -0.1)">
     <use xlink:href="#DejaVuSans-76"/>
     <use x="59.148438" xlink:href="#DejaVuSans-2d"/>
     <use x="95.232422" xlink:href="#DejaVuSans-63"/>
     <use x="150.212891" xlink:href="#DejaVuSans-6f"/>
     <use x="211.394531" xlink:href="#DejaVuSans-63"/>
     <use x="266.375" xlink:href="#DejaVuSans-6f"/>
     <use x="327.572266" xlink:href="#DejaVuSans-2d"/>
     <use x="363.625" xlink:href="#DejaVuSans-76"/>
     <use x="422.804688" xlink:href="#DejaVuSans-65"/>
     <use x="484.328125" xlink:href="#DejaVuSans-72"/>
     <use x="525.441406" xlink:href="#DejaVuSans-73"/>
     <use x="577.541016" xlink:href="#DejaVuSans-69"/>
     <use x="605.324219" xlink:href="#DejaVuSans-6f"/>
     <use x="666.505859" xlink:href="#DejaVuSans-6e"/>
    </g>
   </g>
   <g id="text_23">
    <!-- 7 Step-ellipsoid -->
    <g transform="translate(150.842625 18.84)scale(0.2 -0.2)">
     <use xlink:href="#DejaVuSans-37"/>
     <use x="63.623047" xlink:href="#DejaVuSans-20"/>
     <use x="95.410156" xlink:href="#DejaVuSans-53"/>
     <use x="158.886719" xlink:href="#DejaVuSans-74"/>
     <use x="198.095703" xlink:href="#DejaVuSans-65"/>
     <use x="259.619141" xlink:href="#DejaVuSans-70"/>
     <use x="323.095703" xlink:href="#DejaVuSans-2d"/>
     <use x="359.179688" xlink:href="#DejaVuSans-65"/>
     <use x="420.703125" xlink:href="#DejaVuSans-6c"/>
     <use x="448.486328" xlink:href="#DejaVuSans-6c"/>
     <use x="476.269531" xlink:href="#DejaVuSans-69"/>
     <use x="504.052734" xlink:href="#DejaVuSans-70"/>
     <use x="567.529297" xlink:href="#DejaVuSans-73"/>
     <use x="619.628906" xlink:href="#DejaVuSans-6f"/>
     <use x="680.810547" xlink:href="#DejaVuSans-69"/>
     <use x="708.59375" xlink:href="#DejaVuSans-64"/>
    </g>
   </g>
  </g>
 </g>
 <defs>
  <clipPath id="pd4ce3df955">
   <rect height="270.04" width="343.864" x="56.12" y="24.84"/>
  </clipPath>
 </defs>
</svg>
