<?xml version="1.0" encoding="utf-8" standalone="no"?>
<!DOCTYPE svg PUBLIC "-//W3C//DTD SVG 1.1//EN"
  "http://www.w3.org/Graphics/SVG/1.1/DTD/svg11.dtd">
<!-- Created with matplotlib (http://matplotlib.org/) -->
<svg height="345.6pt" version="1.1" viewBox="0 0 460.8 345.6" width="460.8pt" xmlns="http://www.w3.org/2000/svg" xmlns:xlink="http://www.w3.org/1999/xlink">
 <defs>
  <style type="text/css">
*{stroke-linecap:butt;stroke-linejoin:round;}
  </style>
 </defs>
 <g id="figure_1">
  <g id="patch_1">
   <path d="M 0 345.6 
L 460.8 345.6 
L 460.8 0 
L 0 0 
z
" style="fill:#ffffff;"/>
  </g>
  <g id="axes_1">
   <g id="patch_2">
    <path d="M 56.12 294.88 
L 399.984 294.88 
L 399.984 24.84 
L 56.12 24.84 
z
" style="fill:#ffffff;"/>
   </g>
   <g id="line2d_1">
    <path d="M 105.704484 294.88 
L 105.704484 289.637523 
L 113.450132 289.637523 
L 113.450132 284.395046 
L 116.891469 284.395046 
L 116.891469 279.152568 
L 118.613392 279.152568 
L 118.613392 273.910091 
L 122.687614 273.910091 
L 122.687614 268.667614 
L 132.716391 268.667614 
L 132.716391 263.425137 
L 135.666718 263.425137 
L 135.666718 258.18266 
L 141.618997 258.18266 
L 141.618997 252.940182 
L 142.206452 252.940182 
L 142.206452 247.697705 
L 142.606052 247.697705 
L 142.606052 242.455228 
L 142.90255 242.455228 
L 142.90255 237.212751 
L 143.139407 237.212751 
L 143.139407 231.970274 
L 143.39462 231.970274 
L 143.39462 226.727797 
L 143.571577 226.727797 
L 143.571577 221.485319 
L 143.715018 221.485319 
L 143.715018 216.242842 
L 143.846776 216.242842 
L 143.846776 211.000365 
L 143.956678 211.000365 
L 143.956678 205.757888 
L 144.055512 205.757888 
L 144.055512 200.515411 
L 144.158938 200.515411 
L 144.158938 195.272933 
L 144.25662 195.272933 
L 144.25662 190.030456 
L 144.37413 190.030456 
L 144.37413 184.787979 
L 144.475663 184.787979 
L 144.475663 179.545502 
L 144.541341 179.545502 
L 144.541341 174.303025 
L 144.606768 174.303025 
L 144.606768 169.060547 
L 144.681953 169.060547 
L 144.681953 163.81807 
L 144.756811 163.81807 
L 144.756811 158.575593 
L 144.826386 158.575593 
L 144.826386 153.333116 
L 144.890741 153.333116 
L 144.890741 148.090639 
L 144.954855 148.090639 
L 144.954855 142.848162 
L 145.033439 142.848162 
L 145.033439 137.605684 
L 145.121418 137.605684 
L 145.121418 132.363207 
L 145.189537 132.363207 
L 145.189537 127.12073 
L 145.257388 127.12073 
L 145.257388 121.878253 
L 145.339419 121.878253 
L 145.339419 116.635776 
L 145.377887 116.635776 
L 145.377887 111.393298 
L 145.435429 111.393298 
L 145.435429 106.150821 
L 145.492778 106.150821 
L 145.492778 100.908344 
L 145.545181 100.908344 
L 145.545181 95.665867 
L 145.606907 95.665867 
L 145.606907 90.42339 
L 145.677855 90.42339 
L 145.677855 85.180912 
L 145.757911 85.180912 
L 145.757911 79.938435 
L 145.818879 79.938435 
L 145.818879 74.695958 
L 145.902942 74.695958 
L 145.902942 69.453481 
L 145.954113 69.453481 
L 145.954113 64.211004 
L 146.005131 64.211004 
L 146.005131 58.968526 
L 146.060616 58.968526 
L 146.060616 53.726049 
L 146.115922 53.726049 
L 146.115922 48.483572 
L 146.157286 48.483572 
L 146.157286 43.241095 
L 146.216858 43.241095 
L 146.216858 37.998618 
L 146.262543 37.998618 
L 146.262543 32.756141 
L 146.321752 32.756141 
L 146.321752 27.513663 
L 333.429677 27.513663 
" style="fill:none;stroke:#f5deb3;stroke-linecap:square;stroke-width:6;"/>
   </g>
   <g id="line2d_2">
    <defs>
     <path d="M -0 7.778175 
L 7.778175 0 
L 0 -7.778175 
L -7.778175 -0 
z
" id="m9f25d69aed" style="stroke:#f5deb3;stroke-linejoin:miter;stroke-width:1.5;"/>
    </defs>
    <g>
     <use style="fill:#f5deb3;stroke:#f5deb3;stroke-linejoin:miter;stroke-width:1.5;" x="143.571577" xlink:href="#m9f25d69aed" y="226.727797"/>
     <use style="fill:#f5deb3;stroke:#f5deb3;stroke-linejoin:miter;stroke-width:1.5;" x="145.492778" xlink:href="#m9f25d69aed" y="106.150821"/>
     <use style="fill:#f5deb3;stroke:#f5deb3;stroke-linejoin:miter;stroke-width:1.5;" x="146.321752" xlink:href="#m9f25d69aed" y="27.513663"/>
     <use style="fill:#f5deb3;stroke:#f5deb3;stroke-linejoin:miter;stroke-width:1.5;" x="146.321752" xlink:href="#m9f25d69aed" y="27.513663"/>
     <use style="fill:#f5deb3;stroke:#f5deb3;stroke-linejoin:miter;stroke-width:1.5;" x="333.429677" xlink:href="#m9f25d69aed" y="27.513663"/>
    </g>
   </g>
   <g id="line2d_3">
    <path style="fill:none;stroke:#f5deb3;stroke-linecap:square;stroke-width:6;"/>
    <g/>
   </g>
   <g id="line2d_4">
    <path d="M 333.429677 27.513663 
L 363.933742 32.86099 
" style="fill:none;stroke:#f5deb3;stroke-linecap:square;stroke-width:6;"/>
    <g>
     <use style="fill:#f5deb3;stroke:#f5deb3;stroke-linejoin:miter;stroke-width:1.5;" x="333.429677" xlink:href="#m9f25d69aed" y="27.513663"/>
     <use style="fill:#f5deb3;stroke:#f5deb3;stroke-linejoin:miter;stroke-width:1.5;" x="363.933742" xlink:href="#m9f25d69aed" y="32.86099"/>
    </g>
   </g>
   <g id="matplotlib.axis_1">
    <g id="xtick_1">
     <g id="line2d_5">
      <path clip-path="url(#p95f608a1b0)" d="M 56.12 294.88 
L 56.12 24.84 
" style="fill:none;stroke:#b0b0b0;stroke-linecap:square;stroke-width:0.8;"/>
     </g>
     <g id="line2d_6">
      <defs>
       <path d="M 0 0 
L 0 3.5 
" id="m1fba5e561c" style="stroke:#000000;stroke-width:0.8;"/>
      </defs>
      <g>
       <use style="stroke:#000000;stroke-width:0.8;" x="56.12" xlink:href="#m1fba5e561c" y="294.88"/>
      </g>
     </g>
     <g id="text_1">
      <!-- 0 -->
      <defs>
       <path d="M 31.78125 66.40625 
Q 24.171875 66.40625 20.328125 58.90625 
Q 16.5 51.421875 16.5 36.375 
Q 16.5 21.390625 20.328125 13.890625 
Q 24.171875 6.390625 31.78125 6.390625 
Q 39.453125 6.390625 43.28125 13.890625 
Q 47.125 21.390625 47.125 36.375 
Q 47.125 51.421875 43.28125 58.90625 
Q 39.453125 66.40625 31.78125 66.40625 
z
M 31.78125 74.21875 
Q 44.046875 74.21875 50.515625 64.515625 
Q 56.984375 54.828125 56.984375 36.375 
Q 56.984375 17.96875 50.515625 8.265625 
Q 44.046875 -1.421875 31.78125 -1.421875 
Q 19.53125 -1.421875 13.0625 8.265625 
Q 6.59375 17.96875 6.59375 36.375 
Q 6.59375 54.828125 13.0625 64.515625 
Q 19.53125 74.21875 31.78125 74.21875 
z
" id="DejaVuSans-30"/>
      </defs>
      <g transform="translate(49.7575 317.076875)scale(0.2 -0.2)">
       <use xlink:href="#DejaVuSans-30"/>
      </g>
     </g>
    </g>
    <g id="xtick_2">
     <g id="line2d_7">
      <path clip-path="url(#p95f608a1b0)" d="M 135.351336 294.88 
L 135.351336 24.84 
" style="fill:none;stroke:#b0b0b0;stroke-linecap:square;stroke-width:0.8;"/>
     </g>
     <g id="line2d_8">
      <g>
       <use style="stroke:#000000;stroke-width:0.8;" x="135.351336" xlink:href="#m1fba5e561c" y="294.88"/>
      </g>
     </g>
     <g id="text_2">
      <!-- 2 -->
      <defs>
       <path d="M 19.1875 8.296875 
L 53.609375 8.296875 
L 53.609375 0 
L 7.328125 0 
L 7.328125 8.296875 
Q 12.9375 14.109375 22.625 23.890625 
Q 32.328125 33.6875 34.8125 36.53125 
Q 39.546875 41.84375 41.421875 45.53125 
Q 43.3125 49.21875 43.3125 52.78125 
Q 43.3125 58.59375 39.234375 62.25 
Q 35.15625 65.921875 28.609375 65.921875 
Q 23.96875 65.921875 18.8125 64.3125 
Q 13.671875 62.703125 7.8125 59.421875 
L 7.8125 69.390625 
Q 13.765625 71.78125 18.9375 73 
Q 24.125 74.21875 28.421875 74.21875 
Q 39.75 74.21875 46.484375 68.546875 
Q 53.21875 62.890625 53.21875 53.421875 
Q 53.21875 48.921875 51.53125 44.890625 
Q 49.859375 40.875 45.40625 35.40625 
Q 44.1875 33.984375 37.640625 27.21875 
Q 31.109375 20.453125 19.1875 8.296875 
z
" id="DejaVuSans-32"/>
      </defs>
      <g transform="translate(128.988836 317.076875)scale(0.2 -0.2)">
       <use xlink:href="#DejaVuSans-32"/>
      </g>
     </g>
    </g>
    <g id="xtick_3">
     <g id="line2d_9">
      <path clip-path="url(#p95f608a1b0)" d="M 214.582673 294.88 
L 214.582673 24.84 
" style="fill:none;stroke:#b0b0b0;stroke-linecap:square;stroke-width:0.8;"/>
     </g>
     <g id="line2d_10">
      <g>
       <use style="stroke:#000000;stroke-width:0.8;" x="214.582673" xlink:href="#m1fba5e561c" y="294.88"/>
      </g>
     </g>
     <g id="text_3">
      <!-- 4 -->
      <defs>
       <path d="M 37.796875 64.3125 
L 12.890625 25.390625 
L 37.796875 25.390625 
z
M 35.203125 72.90625 
L 47.609375 72.90625 
L 47.609375 25.390625 
L 58.015625 25.390625 
L 58.015625 17.1875 
L 47.609375 17.1875 
L 47.609375 0 
L 37.796875 0 
L 37.796875 17.1875 
L 4.890625 17.1875 
L 4.890625 26.703125 
z
" id="DejaVuSans-34"/>
      </defs>
      <g transform="translate(208.220173 317.076875)scale(0.2 -0.2)">
       <use xlink:href="#DejaVuSans-34"/>
      </g>
     </g>
    </g>
    <g id="xtick_4">
     <g id="line2d_11">
      <path clip-path="url(#p95f608a1b0)" d="M 293.814009 294.88 
L 293.814009 24.84 
" style="fill:none;stroke:#b0b0b0;stroke-linecap:square;stroke-width:0.8;"/>
     </g>
     <g id="line2d_12">
      <g>
       <use style="stroke:#000000;stroke-width:0.8;" x="293.814009" xlink:href="#m1fba5e561c" y="294.88"/>
      </g>
     </g>
     <g id="text_4">
      <!-- 6 -->
      <defs>
       <path d="M 33.015625 40.375 
Q 26.375 40.375 22.484375 35.828125 
Q 18.609375 31.296875 18.609375 23.390625 
Q 18.609375 15.53125 22.484375 10.953125 
Q 26.375 6.390625 33.015625 6.390625 
Q 39.65625 6.390625 43.53125 10.953125 
Q 47.40625 15.53125 47.40625 23.390625 
Q 47.40625 31.296875 43.53125 35.828125 
Q 39.65625 40.375 33.015625 40.375 
z
M 52.59375 71.296875 
L 52.59375 62.3125 
Q 48.875 64.0625 45.09375 64.984375 
Q 41.3125 65.921875 37.59375 65.921875 
Q 27.828125 65.921875 22.671875 59.328125 
Q 17.53125 52.734375 16.796875 39.40625 
Q 19.671875 43.65625 24.015625 45.921875 
Q 28.375 48.1875 33.59375 48.1875 
Q 44.578125 48.1875 50.953125 41.515625 
Q 57.328125 34.859375 57.328125 23.390625 
Q 57.328125 12.15625 50.6875 5.359375 
Q 44.046875 -1.421875 33.015625 -1.421875 
Q 20.359375 -1.421875 13.671875 8.265625 
Q 6.984375 17.96875 6.984375 36.375 
Q 6.984375 53.65625 15.1875 63.9375 
Q 23.390625 74.21875 37.203125 74.21875 
Q 40.921875 74.21875 44.703125 73.484375 
Q 48.484375 72.75 52.59375 71.296875 
z
" id="DejaVuSans-36"/>
      </defs>
      <g transform="translate(287.451509 317.076875)scale(0.2 -0.2)">
       <use xlink:href="#DejaVuSans-36"/>
      </g>
     </g>
    </g>
    <g id="xtick_5">
     <g id="line2d_13">
      <path clip-path="url(#p95f608a1b0)" d="M 373.045346 294.88 
L 373.045346 24.84 
" style="fill:none;stroke:#b0b0b0;stroke-linecap:square;stroke-width:0.8;"/>
     </g>
     <g id="line2d_14">
      <g>
       <use style="stroke:#000000;stroke-width:0.8;" x="373.045346" xlink:href="#m1fba5e561c" y="294.88"/>
      </g>
     </g>
     <g id="text_5">
      <!-- 8 -->
      <defs>
       <path d="M 31.78125 34.625 
Q 24.75 34.625 20.71875 30.859375 
Q 16.703125 27.09375 16.703125 20.515625 
Q 16.703125 13.921875 20.71875 10.15625 
Q 24.75 6.390625 31.78125 6.390625 
Q 38.8125 6.390625 42.859375 10.171875 
Q 46.921875 13.96875 46.921875 20.515625 
Q 46.921875 27.09375 42.890625 30.859375 
Q 38.875 34.625 31.78125 34.625 
z
M 21.921875 38.8125 
Q 15.578125 40.375 12.03125 44.71875 
Q 8.5 49.078125 8.5 55.328125 
Q 8.5 64.0625 14.71875 69.140625 
Q 20.953125 74.21875 31.78125 74.21875 
Q 42.671875 74.21875 48.875 69.140625 
Q 55.078125 64.0625 55.078125 55.328125 
Q 55.078125 49.078125 51.53125 44.71875 
Q 48 40.375 41.703125 38.8125 
Q 48.828125 37.15625 52.796875 32.3125 
Q 56.78125 27.484375 56.78125 20.515625 
Q 56.78125 9.90625 50.3125 4.234375 
Q 43.84375 -1.421875 31.78125 -1.421875 
Q 19.734375 -1.421875 13.25 4.234375 
Q 6.78125 9.90625 6.78125 20.515625 
Q 6.78125 27.484375 10.78125 32.3125 
Q 14.796875 37.15625 21.921875 38.8125 
z
M 18.3125 54.390625 
Q 18.3125 48.734375 21.84375 45.5625 
Q 25.390625 42.390625 31.78125 42.390625 
Q 38.140625 42.390625 41.71875 45.5625 
Q 45.3125 48.734375 45.3125 54.390625 
Q 45.3125 60.0625 41.71875 63.234375 
Q 38.140625 66.40625 31.78125 66.40625 
Q 25.390625 66.40625 21.84375 63.234375 
Q 18.3125 60.0625 18.3125 54.390625 
z
" id="DejaVuSans-38"/>
      </defs>
      <g transform="translate(366.682846 317.076875)scale(0.2 -0.2)">
       <use xlink:href="#DejaVuSans-38"/>
      </g>
     </g>
    </g>
    <g id="text_6">
     <!-- log10(# f-evals / dimension) -->
     <defs>
      <path d="M 9.421875 75.984375 
L 18.40625 75.984375 
L 18.40625 0 
L 9.421875 0 
z
" id="DejaVuSans-6c"/>
      <path d="M 30.609375 48.390625 
Q 23.390625 48.390625 19.1875 42.75 
Q 14.984375 37.109375 14.984375 27.296875 
Q 14.984375 17.484375 19.15625 11.84375 
Q 23.34375 6.203125 30.609375 6.203125 
Q 37.796875 6.203125 41.984375 11.859375 
Q 46.1875 17.53125 46.1875 27.296875 
Q 46.1875 37.015625 41.984375 42.703125 
Q 37.796875 48.390625 30.609375 48.390625 
z
M 30.609375 56 
Q 42.328125 56 49.015625 48.375 
Q 55.71875 40.765625 55.71875 27.296875 
Q 55.71875 13.875 49.015625 6.21875 
Q 42.328125 -1.421875 30.609375 -1.421875 
Q 18.84375 -1.421875 12.171875 6.21875 
Q 5.515625 13.875 5.515625 27.296875 
Q 5.515625 40.765625 12.171875 48.375 
Q 18.84375 56 30.609375 56 
z
" id="DejaVuSans-6f"/>
      <path d="M 45.40625 27.984375 
Q 45.40625 37.75 41.375 43.109375 
Q 37.359375 48.484375 30.078125 48.484375 
Q 22.859375 48.484375 18.828125 43.109375 
Q 14.796875 37.75 14.796875 27.984375 
Q 14.796875 18.265625 18.828125 12.890625 
Q 22.859375 7.515625 30.078125 7.515625 
Q 37.359375 7.515625 41.375 12.890625 
Q 45.40625 18.265625 45.40625 27.984375 
z
M 54.390625 6.78125 
Q 54.390625 -7.171875 48.1875 -13.984375 
Q 42 -20.796875 29.203125 -20.796875 
Q 24.46875 -20.796875 20.265625 -20.09375 
Q 16.0625 -19.390625 12.109375 -17.921875 
L 12.109375 -9.1875 
Q 16.0625 -11.328125 19.921875 -12.34375 
Q 23.78125 -13.375 27.78125 -13.375 
Q 36.625 -13.375 41.015625 -8.765625 
Q 45.40625 -4.15625 45.40625 5.171875 
L 45.40625 9.625 
Q 42.625 4.78125 38.28125 2.390625 
Q 33.9375 0 27.875 0 
Q 17.828125 0 11.671875 7.65625 
Q 5.515625 15.328125 5.515625 27.984375 
Q 5.515625 40.671875 11.671875 48.328125 
Q 17.828125 56 27.875 56 
Q 33.9375 56 38.28125 53.609375 
Q 42.625 51.21875 45.40625 46.390625 
L 45.40625 54.6875 
L 54.390625 54.6875 
z
" id="DejaVuSans-67"/>
      <path d="M 12.40625 8.296875 
L 28.515625 8.296875 
L 28.515625 63.921875 
L 10.984375 60.40625 
L 10.984375 69.390625 
L 28.421875 72.90625 
L 38.28125 72.90625 
L 38.28125 8.296875 
L 54.390625 8.296875 
L 54.390625 0 
L 12.40625 0 
z
" id="DejaVuSans-31"/>
      <path d="M 31 75.875 
Q 24.46875 64.65625 21.28125 53.65625 
Q 18.109375 42.671875 18.109375 31.390625 
Q 18.109375 20.125 21.3125 9.0625 
Q 24.515625 -2 31 -13.1875 
L 23.1875 -13.1875 
Q 15.875 -1.703125 12.234375 9.375 
Q 8.59375 20.453125 8.59375 31.390625 
Q 8.59375 42.28125 12.203125 53.3125 
Q 15.828125 64.359375 23.1875 75.875 
z
" id="DejaVuSans-28"/>
      <path d="M 51.125 44 
L 36.921875 44 
L 32.8125 27.6875 
L 47.125 27.6875 
z
M 43.796875 71.78125 
L 38.71875 51.515625 
L 52.984375 51.515625 
L 58.109375 71.78125 
L 65.921875 71.78125 
L 60.890625 51.515625 
L 76.125 51.515625 
L 76.125 44 
L 58.984375 44 
L 54.984375 27.6875 
L 70.515625 27.6875 
L 70.515625 20.21875 
L 53.078125 20.21875 
L 48 0 
L 40.1875 0 
L 45.21875 20.21875 
L 30.90625 20.21875 
L 25.875 0 
L 18.015625 0 
L 23.09375 20.21875 
L 7.71875 20.21875 
L 7.71875 27.6875 
L 24.90625 27.6875 
L 29 44 
L 13.28125 44 
L 13.28125 51.515625 
L 30.90625 51.515625 
L 35.890625 71.78125 
z
" id="DejaVuSans-23"/>
      <path id="DejaVuSans-20"/>
      <path d="M 37.109375 75.984375 
L 37.109375 68.5 
L 28.515625 68.5 
Q 23.6875 68.5 21.796875 66.546875 
Q 19.921875 64.59375 19.921875 59.515625 
L 19.921875 54.6875 
L 34.71875 54.6875 
L 34.71875 47.703125 
L 19.921875 47.703125 
L 19.921875 0 
L 10.890625 0 
L 10.890625 47.703125 
L 2.296875 47.703125 
L 2.296875 54.6875 
L 10.890625 54.6875 
L 10.890625 58.5 
Q 10.890625 67.625 15.140625 71.796875 
Q 19.390625 75.984375 28.609375 75.984375 
z
" id="DejaVuSans-66"/>
      <path d="M 4.890625 31.390625 
L 31.203125 31.390625 
L 31.203125 23.390625 
L 4.890625 23.390625 
z
" id="DejaVuSans-2d"/>
      <path d="M 56.203125 29.59375 
L 56.203125 25.203125 
L 14.890625 25.203125 
Q 15.484375 15.921875 20.484375 11.0625 
Q 25.484375 6.203125 34.421875 6.203125 
Q 39.59375 6.203125 44.453125 7.46875 
Q 49.3125 8.734375 54.109375 11.28125 
L 54.109375 2.78125 
Q 49.265625 0.734375 44.1875 -0.34375 
Q 39.109375 -1.421875 33.890625 -1.421875 
Q 20.796875 -1.421875 13.15625 6.1875 
Q 5.515625 13.8125 5.515625 26.8125 
Q 5.515625 40.234375 12.765625 48.109375 
Q 20.015625 56 32.328125 56 
Q 43.359375 56 49.78125 48.890625 
Q 56.203125 41.796875 56.203125 29.59375 
z
M 47.21875 32.234375 
Q 47.125 39.59375 43.09375 43.984375 
Q 39.0625 48.390625 32.421875 48.390625 
Q 24.90625 48.390625 20.390625 44.140625 
Q 15.875 39.890625 15.1875 32.171875 
z
" id="DejaVuSans-65"/>
      <path d="M 2.984375 54.6875 
L 12.5 54.6875 
L 29.59375 8.796875 
L 46.6875 54.6875 
L 56.203125 54.6875 
L 35.6875 0 
L 23.484375 0 
z
" id="DejaVuSans-76"/>
      <path d="M 34.28125 27.484375 
Q 23.390625 27.484375 19.1875 25 
Q 14.984375 22.515625 14.984375 16.5 
Q 14.984375 11.71875 18.140625 8.90625 
Q 21.296875 6.109375 26.703125 6.109375 
Q 34.1875 6.109375 38.703125 11.40625 
Q 43.21875 16.703125 43.21875 25.484375 
L 43.21875 27.484375 
z
M 52.203125 31.203125 
L 52.203125 0 
L 43.21875 0 
L 43.21875 8.296875 
Q 40.140625 3.328125 35.546875 0.953125 
Q 30.953125 -1.421875 24.3125 -1.421875 
Q 15.921875 -1.421875 10.953125 3.296875 
Q 6 8.015625 6 15.921875 
Q 6 25.140625 12.171875 29.828125 
Q 18.359375 34.515625 30.609375 34.515625 
L 43.21875 34.515625 
L 43.21875 35.40625 
Q 43.21875 41.609375 39.140625 45 
Q 35.0625 48.390625 27.6875 48.390625 
Q 23 48.390625 18.546875 47.265625 
Q 14.109375 46.140625 10.015625 43.890625 
L 10.015625 52.203125 
Q 14.9375 54.109375 19.578125 55.046875 
Q 24.21875 56 28.609375 56 
Q 40.484375 56 46.34375 49.84375 
Q 52.203125 43.703125 52.203125 31.203125 
z
" id="DejaVuSans-61"/>
      <path d="M 44.28125 53.078125 
L 44.28125 44.578125 
Q 40.484375 46.53125 36.375 47.5 
Q 32.28125 48.484375 27.875 48.484375 
Q 21.1875 48.484375 17.84375 46.4375 
Q 14.5 44.390625 14.5 40.28125 
Q 14.5 37.15625 16.890625 35.375 
Q 19.28125 33.59375 26.515625 31.984375 
L 29.59375 31.296875 
Q 39.15625 29.25 43.1875 25.515625 
Q 47.21875 21.78125 47.21875 15.09375 
Q 47.21875 7.46875 41.1875 3.015625 
Q 35.15625 -1.421875 24.609375 -1.421875 
Q 20.21875 -1.421875 15.453125 -0.5625 
Q 10.6875 0.296875 5.421875 2 
L 5.421875 11.28125 
Q 10.40625 8.6875 15.234375 7.390625 
Q 20.0625 6.109375 24.8125 6.109375 
Q 31.15625 6.109375 34.5625 8.28125 
Q 37.984375 10.453125 37.984375 14.40625 
Q 37.984375 18.0625 35.515625 20.015625 
Q 33.0625 21.96875 24.703125 23.78125 
L 21.578125 24.515625 
Q 13.234375 26.265625 9.515625 29.90625 
Q 5.8125 33.546875 5.8125 39.890625 
Q 5.8125 47.609375 11.28125 51.796875 
Q 16.75 56 26.8125 56 
Q 31.78125 56 36.171875 55.265625 
Q 40.578125 54.546875 44.28125 53.078125 
z
" id="DejaVuSans-73"/>
      <path d="M 25.390625 72.90625 
L 33.6875 72.90625 
L 8.296875 -9.28125 
L 0 -9.28125 
z
" id="DejaVuSans-2f"/>
      <path d="M 45.40625 46.390625 
L 45.40625 75.984375 
L 54.390625 75.984375 
L 54.390625 0 
L 45.40625 0 
L 45.40625 8.203125 
Q 42.578125 3.328125 38.25 0.953125 
Q 33.9375 -1.421875 27.875 -1.421875 
Q 17.96875 -1.421875 11.734375 6.484375 
Q 5.515625 14.40625 5.515625 27.296875 
Q 5.515625 40.1875 11.734375 48.09375 
Q 17.96875 56 27.875 56 
Q 33.9375 56 38.25 53.625 
Q 42.578125 51.265625 45.40625 46.390625 
z
M 14.796875 27.296875 
Q 14.796875 17.390625 18.875 11.75 
Q 22.953125 6.109375 30.078125 6.109375 
Q 37.203125 6.109375 41.296875 11.75 
Q 45.40625 17.390625 45.40625 27.296875 
Q 45.40625 37.203125 41.296875 42.84375 
Q 37.203125 48.484375 30.078125 48.484375 
Q 22.953125 48.484375 18.875 42.84375 
Q 14.796875 37.203125 14.796875 27.296875 
z
" id="DejaVuSans-64"/>
      <path d="M 9.421875 54.6875 
L 18.40625 54.6875 
L 18.40625 0 
L 9.421875 0 
z
M 9.421875 75.984375 
L 18.40625 75.984375 
L 18.40625 64.59375 
L 9.421875 64.59375 
z
" id="DejaVuSans-69"/>
      <path d="M 52 44.1875 
Q 55.375 50.25 60.0625 53.125 
Q 64.75 56 71.09375 56 
Q 79.640625 56 84.28125 50.015625 
Q 88.921875 44.046875 88.921875 33.015625 
L 88.921875 0 
L 79.890625 0 
L 79.890625 32.71875 
Q 79.890625 40.578125 77.09375 44.375 
Q 74.3125 48.1875 68.609375 48.1875 
Q 61.625 48.1875 57.5625 43.546875 
Q 53.515625 38.921875 53.515625 30.90625 
L 53.515625 0 
L 44.484375 0 
L 44.484375 32.71875 
Q 44.484375 40.625 41.703125 44.40625 
Q 38.921875 48.1875 33.109375 48.1875 
Q 26.21875 48.1875 22.15625 43.53125 
Q 18.109375 38.875 18.109375 30.90625 
L 18.109375 0 
L 9.078125 0 
L 9.078125 54.6875 
L 18.109375 54.6875 
L 18.109375 46.1875 
Q 21.1875 51.21875 25.484375 53.609375 
Q 29.78125 56 35.6875 56 
Q 41.65625 56 45.828125 52.96875 
Q 50 49.953125 52 44.1875 
z
" id="DejaVuSans-6d"/>
      <path d="M 54.890625 33.015625 
L 54.890625 0 
L 45.90625 0 
L 45.90625 32.71875 
Q 45.90625 40.484375 42.875 44.328125 
Q 39.84375 48.1875 33.796875 48.1875 
Q 26.515625 48.1875 22.3125 43.546875 
Q 18.109375 38.921875 18.109375 30.90625 
L 18.109375 0 
L 9.078125 0 
L 9.078125 54.6875 
L 18.109375 54.6875 
L 18.109375 46.1875 
Q 21.34375 51.125 25.703125 53.5625 
Q 30.078125 56 35.796875 56 
Q 45.21875 56 50.046875 50.171875 
Q 54.890625 44.34375 54.890625 33.015625 
z
" id="DejaVuSans-6e"/>
      <path d="M 8.015625 75.875 
L 15.828125 75.875 
Q 23.140625 64.359375 26.78125 53.3125 
Q 30.421875 42.28125 30.421875 31.390625 
Q 30.421875 20.453125 26.78125 9.375 
Q 23.140625 -1.703125 15.828125 -13.1875 
L 8.015625 -13.1875 
Q 14.5 -2 17.703125 9.0625 
Q 20.90625 20.125 20.90625 31.390625 
Q 20.90625 42.671875 17.703125 53.65625 
Q 14.5 64.65625 8.015625 75.875 
z
" id="DejaVuSans-29"/>
     </defs>
     <g transform="translate(107.211219 338.153594)scale(0.17 -0.17)">
      <use xlink:href="#DejaVuSans-6c"/>
      <use x="27.783203" xlink:href="#DejaVuSans-6f"/>
      <use x="88.964844" xlink:href="#DejaVuSans-67"/>
      <use x="152.441406" xlink:href="#DejaVuSans-31"/>
      <use x="216.064453" xlink:href="#DejaVuSans-30"/>
      <use x="279.6875" xlink:href="#DejaVuSans-28"/>
      <use x="318.701172" xlink:href="#DejaVuSans-23"/>
      <use x="402.490234" xlink:href="#DejaVuSans-20"/>
      <use x="434.277344" xlink:href="#DejaVuSans-66"/>
      <use x="469.404297" xlink:href="#DejaVuSans-2d"/>
      <use x="505.488281" xlink:href="#DejaVuSans-65"/>
      <use x="567.011719" xlink:href="#DejaVuSans-76"/>
      <use x="626.191406" xlink:href="#DejaVuSans-61"/>
      <use x="687.470703" xlink:href="#DejaVuSans-6c"/>
      <use x="715.253906" xlink:href="#DejaVuSans-73"/>
      <use x="767.353516" xlink:href="#DejaVuSans-20"/>
      <use x="799.140625" xlink:href="#DejaVuSans-2f"/>
      <use x="832.832031" xlink:href="#DejaVuSans-20"/>
      <use x="864.619141" xlink:href="#DejaVuSans-64"/>
      <use x="928.095703" xlink:href="#DejaVuSans-69"/>
      <use x="955.878906" xlink:href="#DejaVuSans-6d"/>
      <use x="1053.291016" xlink:href="#DejaVuSans-65"/>
      <use x="1114.814453" xlink:href="#DejaVuSans-6e"/>
      <use x="1178.193359" xlink:href="#DejaVuSans-73"/>
      <use x="1230.292969" xlink:href="#DejaVuSans-69"/>
      <use x="1258.076172" xlink:href="#DejaVuSans-6f"/>
      <use x="1319.257812" xlink:href="#DejaVuSans-6e"/>
      <use x="1382.636719" xlink:href="#DejaVuSans-29"/>
     </g>
    </g>
   </g>
   <g id="matplotlib.axis_2">
    <g id="ytick_1">
     <g id="line2d_15">
      <path clip-path="url(#p95f608a1b0)" d="M 56.12 294.88 
L 399.984 294.88 
" style="fill:none;stroke:#b0b0b0;stroke-linecap:square;stroke-width:0.8;"/>
     </g>
     <g id="line2d_16">
      <defs>
       <path d="M 0 0 
L -3.5 0 
" id="m3df8d6c788" style="stroke:#000000;stroke-width:0.8;"/>
      </defs>
      <g>
       <use style="stroke:#000000;stroke-width:0.8;" x="56.12" xlink:href="#m3df8d6c788" y="294.88"/>
      </g>
     </g>
     <g id="text_7">
      <!-- 0.0 -->
      <defs>
       <path d="M 10.6875 12.40625 
L 21 12.40625 
L 21 0 
L 10.6875 0 
z
" id="DejaVuSans-2e"/>
      </defs>
      <g transform="translate(23.675 300.95875)scale(0.16 -0.16)">
       <use xlink:href="#DejaVuSans-30"/>
       <use x="63.623047" xlink:href="#DejaVuSans-2e"/>
       <use x="95.410156" xlink:href="#DejaVuSans-30"/>
      </g>
     </g>
    </g>
    <g id="ytick_2">
     <g id="line2d_17">
      <path clip-path="url(#p95f608a1b0)" d="M 56.12 241.406733 
L 399.984 241.406733 
" style="fill:none;stroke:#b0b0b0;stroke-linecap:square;stroke-width:0.8;"/>
     </g>
     <g id="line2d_18">
      <g>
       <use style="stroke:#000000;stroke-width:0.8;" x="56.12" xlink:href="#m3df8d6c788" y="241.406733"/>
      </g>
     </g>
     <g id="text_8">
      <!-- 0.2 -->
      <g transform="translate(23.675 247.485483)scale(0.16 -0.16)">
       <use xlink:href="#DejaVuSans-30"/>
       <use x="63.623047" xlink:href="#DejaVuSans-2e"/>
       <use x="95.410156" xlink:href="#DejaVuSans-32"/>
      </g>
     </g>
    </g>
    <g id="ytick_3">
     <g id="line2d_19">
      <path clip-path="url(#p95f608a1b0)" d="M 56.12 187.933465 
L 399.984 187.933465 
" style="fill:none;stroke:#b0b0b0;stroke-linecap:square;stroke-width:0.8;"/>
     </g>
     <g id="line2d_20">
      <g>
       <use style="stroke:#000000;stroke-width:0.8;" x="56.12" xlink:href="#m3df8d6c788" y="187.933465"/>
      </g>
     </g>
     <g id="text_9">
      <!-- 0.4 -->
      <g transform="translate(23.675 194.012215)scale(0.16 -0.16)">
       <use xlink:href="#DejaVuSans-30"/>
       <use x="63.623047" xlink:href="#DejaVuSans-2e"/>
       <use x="95.410156" xlink:href="#DejaVuSans-34"/>
      </g>
     </g>
    </g>
    <g id="ytick_4">
     <g id="line2d_21">
      <path clip-path="url(#p95f608a1b0)" d="M 56.12 134.460198 
L 399.984 134.460198 
" style="fill:none;stroke:#b0b0b0;stroke-linecap:square;stroke-width:0.8;"/>
     </g>
     <g id="line2d_22">
      <g>
       <use style="stroke:#000000;stroke-width:0.8;" x="56.12" xlink:href="#m3df8d6c788" y="134.460198"/>
      </g>
     </g>
     <g id="text_10">
      <!-- 0.6 -->
      <g transform="translate(23.675 140.538948)scale(0.16 -0.16)">
       <use xlink:href="#DejaVuSans-30"/>
       <use x="63.623047" xlink:href="#DejaVuSans-2e"/>
       <use x="95.410156" xlink:href="#DejaVuSans-36"/>
      </g>
     </g>
    </g>
    <g id="ytick_5">
     <g id="line2d_23">
      <path clip-path="url(#p95f608a1b0)" d="M 56.12 80.986931 
L 399.984 80.986931 
" style="fill:none;stroke:#b0b0b0;stroke-linecap:square;stroke-width:0.8;"/>
     </g>
     <g id="line2d_24">
      <g>
       <use style="stroke:#000000;stroke-width:0.8;" x="56.12" xlink:href="#m3df8d6c788" y="80.986931"/>
      </g>
     </g>
     <g id="text_11">
      <!-- 0.8 -->
      <g transform="translate(23.675 87.065681)scale(0.16 -0.16)">
       <use xlink:href="#DejaVuSans-30"/>
       <use x="63.623047" xlink:href="#DejaVuSans-2e"/>
       <use x="95.410156" xlink:href="#DejaVuSans-38"/>
      </g>
     </g>
    </g>
    <g id="ytick_6">
     <g id="line2d_25">
      <path clip-path="url(#p95f608a1b0)" d="M 56.12 27.513663 
L 399.984 27.513663 
" style="fill:none;stroke:#b0b0b0;stroke-linecap:square;stroke-width:0.8;"/>
     </g>
     <g id="line2d_26">
      <g>
       <use style="stroke:#000000;stroke-width:0.8;" x="56.12" xlink:href="#m3df8d6c788" y="27.513663"/>
      </g>
     </g>
     <g id="text_12">
      <!-- 1.0 -->
      <g transform="translate(23.675 33.592413)scale(0.16 -0.16)">
       <use xlink:href="#DejaVuSans-31"/>
       <use x="63.623047" xlink:href="#DejaVuSans-2e"/>
       <use x="95.410156" xlink:href="#DejaVuSans-30"/>
      </g>
     </g>
    </g>
    <g id="text_13">
     <!-- Fraction of function,target pairs -->
     <defs>
      <path d="M 9.8125 72.90625 
L 51.703125 72.90625 
L 51.703125 64.59375 
L 19.671875 64.59375 
L 19.671875 43.109375 
L 48.578125 43.109375 
L 48.578125 34.8125 
L 19.671875 34.8125 
L 19.671875 0 
L 9.8125 0 
z
" id="DejaVuSans-46"/>
      <path d="M 41.109375 46.296875 
Q 39.59375 47.171875 37.8125 47.578125 
Q 36.03125 48 33.890625 48 
Q 26.265625 48 22.1875 43.046875 
Q 18.109375 38.09375 18.109375 28.8125 
L 18.109375 0 
L 9.078125 0 
L 9.078125 54.6875 
L 18.109375 54.6875 
L 18.109375 46.1875 
Q 20.953125 51.171875 25.484375 53.578125 
Q 30.03125 56 36.53125 56 
Q 37.453125 56 38.578125 55.875 
Q 39.703125 55.765625 41.0625 55.515625 
z
" id="DejaVuSans-72"/>
      <path d="M 48.78125 52.59375 
L 48.78125 44.1875 
Q 44.96875 46.296875 41.140625 47.34375 
Q 37.3125 48.390625 33.40625 48.390625 
Q 24.65625 48.390625 19.8125 42.84375 
Q 14.984375 37.3125 14.984375 27.296875 
Q 14.984375 17.28125 19.8125 11.734375 
Q 24.65625 6.203125 33.40625 6.203125 
Q 37.3125 6.203125 41.140625 7.25 
Q 44.96875 8.296875 48.78125 10.40625 
L 48.78125 2.09375 
Q 45.015625 0.34375 40.984375 -0.53125 
Q 36.96875 -1.421875 32.421875 -1.421875 
Q 20.0625 -1.421875 12.78125 6.34375 
Q 5.515625 14.109375 5.515625 27.296875 
Q 5.515625 40.671875 12.859375 48.328125 
Q 20.21875 56 33.015625 56 
Q 37.15625 56 41.109375 55.140625 
Q 45.0625 54.296875 48.78125 52.59375 
z
" id="DejaVuSans-63"/>
      <path d="M 18.3125 70.21875 
L 18.3125 54.6875 
L 36.8125 54.6875 
L 36.8125 47.703125 
L 18.3125 47.703125 
L 18.3125 18.015625 
Q 18.3125 11.328125 20.140625 9.421875 
Q 21.96875 7.515625 27.59375 7.515625 
L 36.8125 7.515625 
L 36.8125 0 
L 27.59375 0 
Q 17.1875 0 13.234375 3.875 
Q 9.28125 7.765625 9.28125 18.015625 
L 9.28125 47.703125 
L 2.6875 47.703125 
L 2.6875 54.6875 
L 9.28125 54.6875 
L 9.28125 70.21875 
z
" id="DejaVuSans-74"/>
      <path d="M 8.5 21.578125 
L 8.5 54.6875 
L 17.484375 54.6875 
L 17.484375 21.921875 
Q 17.484375 14.15625 20.5 10.265625 
Q 23.53125 6.390625 29.59375 6.390625 
Q 36.859375 6.390625 41.078125 11.03125 
Q 45.3125 15.671875 45.3125 23.6875 
L 45.3125 54.6875 
L 54.296875 54.6875 
L 54.296875 0 
L 45.3125 0 
L 45.3125 8.40625 
Q 42.046875 3.421875 37.71875 1 
Q 33.40625 -1.421875 27.6875 -1.421875 
Q 18.265625 -1.421875 13.375 4.4375 
Q 8.5 10.296875 8.5 21.578125 
z
M 31.109375 56 
z
" id="DejaVuSans-75"/>
      <path d="M 11.71875 12.40625 
L 22.015625 12.40625 
L 22.015625 4 
L 14.015625 -11.625 
L 7.71875 -11.625 
L 11.71875 4 
z
" id="DejaVuSans-2c"/>
      <path d="M 18.109375 8.203125 
L 18.109375 -20.796875 
L 9.078125 -20.796875 
L 9.078125 54.6875 
L 18.109375 54.6875 
L 18.109375 46.390625 
Q 20.953125 51.265625 25.265625 53.625 
Q 29.59375 56 35.59375 56 
Q 45.5625 56 51.78125 48.09375 
Q 58.015625 40.1875 58.015625 27.296875 
Q 58.015625 14.40625 51.78125 6.484375 
Q 45.5625 -1.421875 35.59375 -1.421875 
Q 29.59375 -1.421875 25.265625 0.953125 
Q 20.953125 3.328125 18.109375 8.203125 
z
M 48.6875 27.296875 
Q 48.6875 37.203125 44.609375 42.84375 
Q 40.53125 48.484375 33.40625 48.484375 
Q 26.265625 48.484375 22.1875 42.84375 
Q 18.109375 37.203125 18.109375 27.296875 
Q 18.109375 17.390625 22.1875 11.75 
Q 26.265625 6.109375 33.40625 6.109375 
Q 40.53125 6.109375 44.609375 11.75 
Q 48.6875 17.390625 48.6875 27.296875 
z
" id="DejaVuSans-70"/>
     </defs>
     <g transform="translate(16.139531 294.999375)rotate(-90)scale(0.17 -0.17)">
      <use xlink:href="#DejaVuSans-46"/>
      <use x="57.410156" xlink:href="#DejaVuSans-72"/>
      <use x="98.523438" xlink:href="#DejaVuSans-61"/>
      <use x="159.802734" xlink:href="#DejaVuSans-63"/>
      <use x="214.783203" xlink:href="#DejaVuSans-74"/>
      <use x="253.992188" xlink:href="#DejaVuSans-69"/>
      <use x="281.775391" xlink:href="#DejaVuSans-6f"/>
      <use x="342.957031" xlink:href="#DejaVuSans-6e"/>
      <use x="406.335938" xlink:href="#DejaVuSans-20"/>
      <use x="438.123047" xlink:href="#DejaVuSans-6f"/>
      <use x="499.304688" xlink:href="#DejaVuSans-66"/>
      <use x="534.509766" xlink:href="#DejaVuSans-20"/>
      <use x="566.296875" xlink:href="#DejaVuSans-66"/>
      <use x="601.501953" xlink:href="#DejaVuSans-75"/>
      <use x="664.880859" xlink:href="#DejaVuSans-6e"/>
      <use x="728.259766" xlink:href="#DejaVuSans-63"/>
      <use x="783.240234" xlink:href="#DejaVuSans-74"/>
      <use x="822.449219" xlink:href="#DejaVuSans-69"/>
      <use x="850.232422" xlink:href="#DejaVuSans-6f"/>
      <use x="911.414062" xlink:href="#DejaVuSans-6e"/>
      <use x="974.792969" xlink:href="#DejaVuSans-2c"/>
      <use x="1006.580078" xlink:href="#DejaVuSans-74"/>
      <use x="1045.789062" xlink:href="#DejaVuSans-61"/>
      <use x="1107.068359" xlink:href="#DejaVuSans-72"/>
      <use x="1148.166016" xlink:href="#DejaVuSans-67"/>
      <use x="1211.642578" xlink:href="#DejaVuSans-65"/>
      <use x="1273.166016" xlink:href="#DejaVuSans-74"/>
      <use x="1312.375" xlink:href="#DejaVuSans-20"/>
      <use x="1344.162109" xlink:href="#DejaVuSans-70"/>
      <use x="1407.638672" xlink:href="#DejaVuSans-61"/>
      <use x="1468.917969" xlink:href="#DejaVuSans-69"/>
      <use x="1496.701172" xlink:href="#DejaVuSans-72"/>
      <use x="1537.814453" xlink:href="#DejaVuSans-73"/>
     </g>
    </g>
   </g>
   <g id="line2d_27">
    <defs>
     <path d="M 0 1.5 
C 0.397805 1.5 0.77937 1.341951 1.06066 1.06066 
C 1.341951 0.77937 1.5 0.397805 1.5 0 
C 1.5 -0.397805 1.341951 -0.77937 1.06066 -1.06066 
C 0.77937 -1.341951 0.397805 -1.5 0 -1.5 
C -0.397805 -1.5 -0.77937 -1.341951 -1.06066 -1.06066 
C -1.341951 -0.77937 -1.5 -0.397805 -1.5 0 
C -1.5 0.397805 -1.341951 0.77937 -1.06066 1.06066 
C -0.77937 1.341951 -0.397805 1.5 0 1.5 
z
" id="m388ce17cb4" style="stroke:#f5deb3;"/>
    </defs>
    <g>
     <use style="fill:#f5deb3;stroke:#f5deb3;" x="146.321752" xlink:href="#m388ce17cb4" y="27.513663"/>
     <use style="fill:#f5deb3;stroke:#f5deb3;" x="146.321752" xlink:href="#m388ce17cb4" y="27.513663"/>
    </g>
   </g>
   <g id="line2d_28">
    <defs>
     <path d="M 0 1.5 
C 0.397805 1.5 0.77937 1.341951 1.06066 1.06066 
C 1.341951 0.77937 1.5 0.397805 1.5 0 
C 1.5 -0.397805 1.341951 -0.77937 1.06066 -1.06066 
C 0.77937 -1.341951 0.397805 -1.5 0 -1.5 
C -0.397805 -1.5 -0.77937 -1.341951 -1.06066 -1.06066 
C -1.341951 -0.77937 -1.5 -0.397805 -1.5 0 
C -1.5 0.397805 -1.341951 0.77937 -1.06066 1.06066 
C -0.77937 1.341951 -0.397805 1.5 0 1.5 
z
" id="m90c333f817" style="stroke:#000080;"/>
    </defs>
    <g>
     <use style="fill:#000080;stroke:#000080;" x="346.584654" xlink:href="#m90c333f817" y="242.455228"/>
     <use style="fill:#000080;stroke:#000080;" x="346.584654" xlink:href="#m90c333f817" y="242.455228"/>
    </g>
   </g>
   <g id="line2d_29">
    <path d="M 164.232871 294.88 
L 164.264949 293.307257 
L 164.80442 293.307257 
L 164.80442 292.783009 
L 166.19265 292.783009 
L 166.19265 292.258761 
L 166.667375 292.258761 
L 166.679912 290.686018 
L 167.569994 290.686018 
L 167.569994 290.161771 
L 168.823085 290.161771 
L 168.823085 289.637523 
L 169.233698 289.637523 
L 169.233698 289.113275 
L 169.537122 289.113275 
L 169.605396 288.06478 
L 170.97339 288.06478 
L 170.97339 287.540532 
L 172.324036 287.540532 
L 172.401101 286.492036 
L 172.586833 286.492036 
L 172.586833 285.443541 
L 173.309389 285.443541 
L 173.309389 284.395046 
L 173.862133 284.395046 
L 173.862133 283.34655 
L 174.463343 283.34655 
L 174.463343 282.822302 
L 175.040827 282.822302 
L 175.040827 282.298055 
L 175.284075 282.298055 
L 175.284075 281.773807 
L 175.850617 281.773807 
L 175.850617 281.249559 
L 176.274374 281.249559 
L 176.274374 280.201064 
L 176.822848 280.201064 
L 176.888367 278.104073 
L 179.075194 278.104073 
L 179.075194 277.055578 
L 179.783979 277.055578 
L 179.813212 275.482834 
L 181.591296 275.482834 
L 181.591296 274.958587 
L 182.785683 274.958587 
L 182.785683 273.910091 
L 185.139907 273.910091 
L 185.139907 273.385844 
L 203.357413 273.385844 
L 203.357413 272.861596 
L 206.498388 272.861596 
L 206.498388 272.337348 
L 208.883905 272.337348 
L 208.883905 270.764605 
L 213.950714 270.764605 
L 213.950714 270.240357 
L 215.430865 270.240357 
L 215.430865 269.191862 
L 216.693707 269.191862 
L 216.693707 268.667614 
L 220.622885 268.667614 
L 220.622885 268.143366 
L 224.705831 268.143366 
L 224.705831 267.619119 
L 226.294505 267.619119 
L 226.294505 266.046375 
L 229.428615 266.046375 
L 229.428615 265.522128 
L 230.651156 265.522128 
L 230.651156 264.473632 
L 236.057658 264.473632 
L 236.057658 262.900889 
L 237.64238 262.900889 
L 237.64238 261.852394 
L 242.568747 261.852394 
L 242.568747 260.803898 
L 246.007177 260.803898 
L 246.007177 259.755403 
L 253.7539 259.755403 
L 253.7539 259.231155 
L 258.251217 259.231155 
L 258.251217 258.706907 
L 264.656448 258.706907 
L 264.656448 257.658412 
L 266.206462 257.658412 
L 266.206462 257.134164 
L 267.713846 257.134164 
L 267.713846 256.609917 
L 273.149492 256.609917 
L 273.149492 256.085669 
L 280.112559 256.085669 
L 280.112559 255.561421 
L 280.575593 255.561421 
L 280.575593 254.512926 
L 283.555416 254.512926 
L 283.555416 253.988678 
L 286.64762 253.988678 
L 286.64762 253.46443 
L 289.993499 253.46443 
L 289.993499 252.415935 
L 300.363381 252.415935 
L 300.363381 250.843192 
L 307.378269 250.843192 
L 307.378269 250.318944 
L 307.624058 250.318944 
L 307.624058 249.794696 
L 309.323979 249.794696 
L 309.323979 249.270448 
L 312.503508 249.270448 
L 312.503508 248.746201 
L 318.558696 248.746201 
L 318.558696 248.221953 
L 319.550431 248.221953 
L 319.620657 247.173458 
L 323.798487 247.173458 
L 323.798487 246.64921 
L 325.29238 246.64921 
L 325.29238 246.124962 
L 328.4377 246.124962 
L 328.4377 245.600714 
L 331.581599 245.600714 
L 331.581599 244.552219 
L 332.053952 244.552219 
L 332.053952 244.027971 
L 333.429677 244.027971 
L 333.429677 244.027971 
" style="fill:none;stroke:#000080;stroke-linecap:square;stroke-width:1.5;"/>
   </g>
   <g id="line2d_30">
    <defs>
     <path d="M 0 6 
C 1.591219 6 3.117479 5.367802 4.242641 4.242641 
C 5.367802 3.117479 6 1.591219 6 0 
C 6 -1.591219 5.367802 -3.117479 4.242641 -4.242641 
C 3.117479 -5.367802 1.591219 -6 0 -6 
C -1.591219 -6 -3.117479 -5.367802 -4.242641 -4.242641 
C -5.367802 -3.117479 -6 -1.591219 -6 0 
C -6 1.591219 -5.367802 3.117479 -4.242641 4.242641 
C -3.117479 5.367802 -1.591219 6 0 6 
z
" id="m065c3533f7" style="stroke:#000080;stroke-width:1.5;"/>
    </defs>
    <g>
     <use style="fill-opacity:0;stroke:#000080;stroke-width:1.5;" x="208.883905" xlink:href="#m065c3533f7" y="272.337348"/>
     <use style="fill-opacity:0;stroke:#000080;stroke-width:1.5;" x="280.575593" xlink:href="#m065c3533f7" y="254.512926"/>
     <use style="fill-opacity:0;stroke:#000080;stroke-width:1.5;" x="332.053952" xlink:href="#m065c3533f7" y="244.027971"/>
     <use style="fill-opacity:0;stroke:#000080;stroke-width:1.5;" x="333.429677" xlink:href="#m065c3533f7" y="244.027971"/>
    </g>
   </g>
   <g id="line2d_31">
    <path style="fill:none;stroke:#000080;stroke-linecap:square;stroke-width:1.5;"/>
    <g/>
   </g>
   <g id="line2d_32">
    <path clip-path="url(#p95f608a1b0)" d="M 269.963 256.609917 
" style="fill:none;stroke:#000080;stroke-linecap:square;stroke-width:1.5;"/>
    <defs>
     <path d="M -12 12 
L 12 -12 
M -12 -12 
L 12 12 
" id="m79c101d0d9" style="stroke:#000080;stroke-width:3;"/>
    </defs>
    <g clip-path="url(#p95f608a1b0)">
     <use style="fill:#000080;stroke:#000080;stroke-width:3;" x="269.963" xlink:href="#m79c101d0d9" y="256.609917"/>
    </g>
   </g>
   <g id="line2d_33">
    <defs>
     <path d="M 0 1.5 
C 0.397805 1.5 0.77937 1.341951 1.06066 1.06066 
C 1.341951 0.77937 1.5 0.397805 1.5 0 
C 1.5 -0.397805 1.341951 -0.77937 1.06066 -1.06066 
C 0.77937 -1.341951 0.397805 -1.5 0 -1.5 
C -0.397805 -1.5 -0.77937 -1.341951 -1.06066 -1.06066 
C -1.341951 -0.77937 -1.5 -0.397805 -1.5 0 
C -1.5 0.397805 -1.341951 0.77937 -1.06066 1.06066 
C -0.77937 1.341951 -0.397805 1.5 0 1.5 
z
" id="md19b1e4a5c" style="stroke:#ff00ff;"/>
    </defs>
    <g>
     <use style="fill:#ff00ff;stroke:#ff00ff;" x="308.656824" xlink:href="#md19b1e4a5c" y="27.513663"/>
     <use style="fill:#ff00ff;stroke:#ff00ff;" x="308.656824" xlink:href="#md19b1e4a5c" y="27.513663"/>
    </g>
   </g>
   <g id="line2d_34">
    <path d="M 142.183335 294.88 
L 142.183335 293.831505 
L 143.122987 293.831505 
L 143.122987 293.307257 
L 143.64079 293.307257 
L 143.64079 292.783009 
L 144.220696 292.783009 
L 144.220696 292.258761 
L 145.296039 292.258761 
L 145.296039 291.734514 
L 145.545181 291.734514 
L 145.545181 290.161771 
L 148.814673 290.161771 
L 148.814673 289.637523 
L 156.664878 289.637523 
L 156.664878 289.113275 
L 156.83353 289.113275 
L 156.83353 288.589027 
L 157.063978 288.589027 
L 157.063978 287.540532 
L 158.048328 287.540532 
L 158.048328 287.016284 
L 158.70267 287.016284 
L 158.70267 286.492036 
L 159.654433 286.492036 
L 159.654433 285.443541 
L 165.129006 285.443541 
L 165.129006 284.919293 
L 169.11565 284.919293 
L 169.11565 284.395046 
L 178.597756 284.395046 
L 178.597756 283.34655 
L 181.313963 283.34655 
L 181.313963 282.822302 
L 183.80191 282.822302 
L 183.80191 282.298055 
L 186.365358 282.298055 
L 186.365358 281.773807 
L 187.575152 281.773807 
L 187.575152 280.201064 
L 199.910369 280.201064 
L 199.910369 279.676816 
L 200.05968 279.676816 
L 200.05968 279.152568 
L 200.192623 279.152568 
L 200.192623 278.628321 
L 203.885904 278.628321 
L 203.885904 278.104073 
L 204.439023 278.104073 
L 204.439023 276.53133 
L 204.593604 276.53133 
L 204.593604 276.007082 
L 205.046038 276.007082 
L 205.046038 275.482834 
L 206.076537 275.482834 
L 206.076537 274.434339 
L 206.397075 274.434339 
L 206.397075 273.385844 
L 207.003943 273.385844 
L 207.003943 272.861596 
L 207.283764 272.861596 
L 207.283764 271.8131 
L 208.148505 271.8131 
L 208.148505 271.288853 
L 208.48222 271.288853 
L 208.48222 270.764605 
L 216.286869 270.764605 
L 216.286869 269.716109 
L 216.616224 269.716109 
L 216.616224 269.191862 
L 217.039318 269.191862 
L 217.039318 268.667614 
L 217.668805 268.667614 
L 217.778317 266.570623 
L 221.849516 266.570623 
L 221.849516 266.046375 
L 223.908538 266.046375 
L 223.908538 265.522128 
L 230.127117 265.522128 
L 230.235932 264.473632 
L 230.279446 264.473632 
L 230.279446 263.949385 
L 230.420469 263.949385 
L 230.478517 262.900889 
L 230.603862 262.900889 
L 230.603862 262.376641 
L 231.129381 262.376641 
L 231.129381 261.852394 
L 231.425247 261.852394 
L 231.425247 261.328146 
L 232.517569 261.328146 
L 232.517569 260.279651 
L 234.721694 260.279651 
L 234.721694 259.231155 
L 235.083313 259.231155 
L 235.083313 258.18266 
L 235.791441 258.18266 
L 235.791441 257.658412 
L 235.958411 257.658412 
L 235.958411 257.134164 
L 236.345504 257.134164 
L 236.345504 256.609917 
L 237.606178 256.609917 
L 237.606178 255.037173 
L 237.733271 255.037173 
L 237.733271 254.512926 
L 238.438713 254.512926 
L 238.538398 252.940182 
L 239.043746 252.940182 
L 239.043746 252.415935 
L 239.331364 252.415935 
L 239.331364 251.367439 
L 239.806603 251.367439 
L 239.806603 250.843192 
L 240.190291 250.843192 
L 240.271889 249.270448 
L 241.19537 249.270448 
L 241.19537 248.746201 
L 241.349237 248.746201 
L 241.349237 247.697705 
L 241.550164 247.697705 
L 241.550164 246.64921 
L 242.091317 246.64921 
L 242.091317 246.124962 
L 242.42871 246.124962 
L 242.42871 245.600714 
L 243.005246 245.600714 
L 243.005246 245.076467 
L 243.250852 245.076467 
L 243.264987 243.503724 
L 243.505369 243.503724 
L 243.505369 241.93098 
L 243.62424 241.93098 
L 243.62424 240.882485 
L 244.330692 240.882485 
L 244.421707 238.785494 
L 244.51549 238.785494 
L 244.51549 238.261246 
L 244.90899 238.261246 
L 244.90899 237.736999 
L 245.644709 237.736999 
L 245.684292 236.164255 
L 245.819892 236.164255 
L 245.819892 235.640008 
L 245.932486 235.640008 
L 245.932486 235.11576 
L 246.250066 235.11576 
L 246.266143 233.543017 
L 246.393758 233.543017 
L 246.451492 232.494521 
L 247.032109 232.494521 
L 247.032109 231.970274 
L 247.233922 231.970274 
L 247.233922 230.921778 
L 247.652416 230.921778 
L 247.652416 230.397531 
L 248.013888 230.397531 
L 248.013888 229.873283 
L 248.776996 229.873283 
L 248.776996 229.349035 
L 249.800806 229.349035 
L 249.814452 227.252044 
L 250.333284 227.252044 
L 250.333284 226.727797 
L 250.474747 226.727797 
L 250.515042 224.630806 
L 250.865779 224.630806 
L 250.865779 223.58231 
L 251.029278 223.58231 
L 251.029278 223.058063 
L 251.409237 223.058063 
L 251.409237 222.533815 
L 251.838961 222.533815 
L 251.88046 220.961072 
L 252.532549 220.961072 
L 252.620705 218.864081 
L 253.264981 218.864081 
L 253.264981 217.815585 
L 253.917357 217.815585 
L 254.024436 216.242842 
L 254.250667 216.242842 
L 254.250667 215.718594 
L 254.60181 215.718594 
L 254.60181 215.194347 
L 255.819447 215.194347 
L 255.846482 214.145851 
L 256.006105 214.145851 
L 256.006105 213.621604 
L 256.262057 213.621604 
L 256.262057 213.097356 
L 256.381525 213.097356 
L 256.487183 212.04886 
L 257.296706 212.04886 
L 257.296706 211.524613 
L 257.670104 211.524613 
L 257.743934 209.427622 
L 258.137755 209.427622 
L 258.188816 207.854879 
L 258.625903 207.854879 
L 258.625903 207.330631 
L 259.167864 207.330631 
L 259.266988 205.23364 
L 259.417171 205.23364 
L 259.417171 204.709392 
L 259.631011 204.709392 
L 259.631011 204.185145 
L 260.0198 204.185145 
L 260.0198 203.660897 
L 260.140411 203.660897 
L 260.243796 202.612401 
L 260.669873 202.612401 
L 260.769665 201.039658 
L 261.030426 201.039658 
L 261.084679 199.991163 
L 261.336029 199.991163 
L 261.336029 198.41842 
L 261.942613 198.41842 
L 261.951874 196.845677 
L 262.092094 196.845677 
L 262.154138 195.272933 
L 262.400887 195.272933 
L 262.400887 194.748686 
L 262.512935 194.748686 
L 262.512935 194.224438 
L 263.187848 194.224438 
L 263.187848 193.175943 
L 263.359751 193.175943 
L 263.359751 192.651695 
L 263.494353 192.651695 
L 263.494353 192.127447 
L 263.693817 192.127447 
L 263.693817 191.603199 
L 264.00581 191.603199 
L 264.00581 191.078952 
L 264.238451 191.078952 
L 264.238451 190.554704 
L 264.708158 190.554704 
L 264.746504 189.506209 
L 265.065775 189.506209 
L 265.065775 188.981961 
L 265.222447 188.981961 
L 265.296924 187.409218 
L 265.828047 187.409218 
L 265.900385 185.312227 
L 266.104492 185.312227 
L 266.153223 183.215236 
L 266.287313 183.215236 
L 266.287313 182.690988 
L 266.796449 182.690988 
L 266.796449 181.642493 
L 267.238074 181.642493 
L 267.307485 179.545502 
L 267.398067 179.545502 
L 267.455428 178.497006 
L 267.72315 178.497006 
L 267.72315 177.972759 
L 268.16597 177.972759 
L 268.262106 175.35152 
L 268.576142 175.35152 
L 268.627068 174.303025 
L 268.752196 174.303025 
L 268.814527 172.730281 
L 269.501858 172.730281 
L 269.575676 171.681786 
L 269.684703 171.681786 
L 269.728221 170.633291 
L 269.954317 170.633291 
L 269.982661 169.584795 
L 270.311766 169.584795 
L 270.333548 167.487804 
L 270.437212 167.487804 
L 270.437212 166.963557 
L 270.669779 166.963557 
L 270.669779 165.915061 
L 271.162538 165.915061 
L 271.162538 165.390813 
L 271.303263 165.390813 
L 271.334487 163.81807 
L 271.663126 163.81807 
L 271.663126 163.293823 
L 271.787473 163.293823 
L 271.868347 162.245327 
L 272.096929 162.245327 
L 272.096929 161.196832 
L 272.238732 161.196832 
L 272.238732 160.672584 
L 272.533995 160.672584 
L 272.60488 159.099841 
L 272.674928 159.099841 
L 272.707616 157.527098 
L 272.96664 157.527098 
L 272.974467 155.954354 
L 273.238147 155.954354 
L 273.29462 153.857364 
L 273.354737 153.857364 
L 273.433828 152.28462 
L 273.743153 152.28462 
L 273.743153 151.760373 
L 274.201001 151.760373 
L 274.297008 150.711877 
L 274.494731 150.711877 
L 274.601136 149.139134 
L 274.807201 149.139134 
L 274.807201 148.090639 
L 274.989087 148.090639 
L 275.01481 146.517896 
L 275.188835 146.517896 
L 275.188835 145.4694 
L 275.304289 145.4694 
L 275.369728 143.896657 
L 275.529657 143.896657 
L 275.60644 142.848162 
L 275.702356 142.848162 
L 275.789387 141.275418 
L 275.86089 141.275418 
L 275.86089 140.751171 
L 276.154644 140.751171 
L 276.244226 139.702675 
L 276.519554 139.702675 
L 276.519554 139.178427 
L 276.950685 139.178427 
L 277.005617 138.129932 
L 277.175383 138.129932 
L 277.191794 136.032941 
L 277.383342 136.032941 
L 277.428959 134.984446 
L 277.573372 134.984446 
L 277.573372 134.460198 
L 277.703275 134.460198 
L 277.7799 131.838959 
L 277.842875 131.838959 
L 277.842875 131.314712 
L 278.117966 131.314712 
L 278.198101 129.217721 
L 278.337416 129.217721 
L 278.365093 127.12073 
L 278.509423 127.12073 
L 278.594743 124.499491 
L 278.676516 124.499491 
L 278.774998 122.926748 
L 278.876446 122.926748 
L 278.876446 122.4025 
L 279.005101 122.4025 
L 279.005101 121.878253 
L 279.176754 121.878253 
L 279.200081 120.829757 
L 279.306988 120.829757 
L 279.390627 118.732766 
L 279.476961 118.732766 
L 279.586026 117.160023 
L 279.802334 117.160023 
L 279.802334 116.635776 
L 279.965167 116.635776 
L 279.965167 115.58728 
L 280.09455 115.58728 
L 280.196962 114.014537 
L 280.355991 114.014537 
L 280.381667 112.966042 
L 280.515411 112.966042 
L 280.515411 112.441794 
L 280.731727 112.441794 
L 280.731727 111.917546 
L 280.859484 111.917546 
L 280.911086 109.296308 
L 281.07457 109.296308 
L 281.07457 108.247812 
L 281.762842 108.247812 
L 281.762842 107.723564 
L 281.888374 107.723564 
L 281.958105 105.626573 
L 282.012865 105.626573 
L 282.012865 104.578078 
L 282.241635 104.578078 
L 282.325137 101.956839 
L 282.572354 101.956839 
L 282.641164 100.384096 
L 282.762994 100.384096 
L 282.844017 98.811353 
L 282.919584 98.811353 
L 282.919584 98.287105 
L 283.06496 98.287105 
L 283.141376 95.665867 
L 283.428944 95.665867 
L 283.428944 95.141619 
L 283.569446 95.141619 
L 283.581509 94.093124 
L 284.38477 94.093124 
L 284.493934 93.044628 
L 284.557172 93.044628 
L 284.591118 90.42339 
L 284.809005 90.42339 
L 284.809005 89.899142 
L 284.935989 89.899142 
L 284.935989 89.374894 
L 285.079041 89.374894 
L 285.10857 87.802151 
L 285.37406 87.802151 
L 285.420366 86.753656 
L 285.512477 86.753656 
L 285.512477 86.229408 
L 285.632336 86.229408 
L 285.632336 85.70516 
L 285.838362 85.70516 
L 285.949348 83.608169 
L 285.991196 83.608169 
L 286.088821 82.035426 
L 286.140965 82.035426 
L 286.246492 79.938435 
L 286.264201 79.938435 
L 286.341953 78.365692 
L 286.488587 78.365692 
L 286.488587 77.317197 
L 286.70318 77.317197 
L 286.718941 76.268701 
L 286.944362 76.268701 
L 287.003257 74.17171 
L 287.056304 74.17171 
L 287.056304 73.647463 
L 287.29269 73.647463 
L 287.326935 71.550472 
L 287.517078 71.550472 
L 287.517078 71.026224 
L 287.859275 71.026224 
L 287.902945 69.453481 
L 288.088408 69.453481 
L 288.088408 68.404985 
L 288.436073 68.404985 
L 288.436073 67.880738 
L 288.601273 67.880738 
L 288.601273 67.35649 
L 288.744069 67.35649 
L 288.790507 66.307995 
L 288.978767 66.307995 
L 289.011852 65.259499 
L 289.21166 65.259499 
L 289.294567 63.162508 
L 289.547597 63.162508 
L 289.547597 62.114013 
L 289.79095 62.114013 
L 289.800999 60.54127 
L 289.964011 60.54127 
L 289.964011 60.017022 
L 290.120222 60.017022 
L 290.120222 59.492774 
L 290.248279 59.492774 
L 290.248279 58.968526 
L 290.448022 58.968526 
L 290.460769 57.920031 
L 290.706513 57.920031 
L 290.768561 55.298792 
L 291.069458 55.298792 
L 291.069458 54.250297 
L 291.246702 54.250297 
L 291.345435 52.153306 
L 291.424921 52.153306 
L 291.473278 50.056315 
L 291.605627 50.056315 
L 291.689986 49.00782 
L 291.864935 49.00782 
L 291.968266 47.959324 
L 292.095467 47.959324 
L 292.106464 46.910829 
L 292.239344 46.910829 
L 292.261649 44.813838 
L 292.48405 44.813838 
L 292.48405 44.28959 
L 292.616622 44.28959 
L 292.616622 43.765343 
L 292.791122 43.765343 
L 292.791122 43.241095 
L 292.909379 43.241095 
L 292.915393 41.144104 
L 293.027219 41.144104 
L 293.124106 40.095609 
L 293.191529 40.095609 
L 293.191529 39.571361 
L 293.328119 39.571361 
L 293.328119 38.522865 
L 293.464814 38.522865 
L 293.464814 36.950122 
L 293.696082 36.950122 
L 293.716104 34.853131 
L 298.686226 34.853131 
L 298.686226 34.328884 
L 299.495133 34.328884 
L 299.495133 33.804636 
L 299.693583 33.804636 
L 299.747884 32.756141 
L 299.842813 32.756141 
L 299.927012 30.65915 
L 299.999207 30.65915 
L 299.999207 30.134902 
L 300.344357 30.134902 
L 300.344357 29.610654 
L 300.510576 29.610654 
L 300.510576 29.086407 
L 304.325224 29.086407 
L 304.325224 28.562159 
L 305.296077 28.562159 
L 305.296077 28.037911 
L 308.656824 28.037911 
L 308.656824 27.513663 
L 333.429677 27.513663 
L 333.429677 27.513663 
" style="fill:none;stroke:#ff00ff;stroke-linecap:square;stroke-width:1.5;"/>
   </g>
   <g id="line2d_35">
    <defs>
     <path d="M -0 8.485281 
L 5.091169 0 
L 0 -8.485281 
L -5.091169 -0 
z
" id="m1a521a59e1" style="stroke:#ff00ff;stroke-linejoin:miter;stroke-width:1.5;"/>
    </defs>
    <g>
     <use style="fill-opacity:0;stroke:#ff00ff;stroke-linejoin:miter;stroke-width:1.5;" x="242.091317" xlink:href="#m1a521a59e1" y="246.124962"/>
     <use style="fill-opacity:0;stroke:#ff00ff;stroke-linejoin:miter;stroke-width:1.5;" x="279.802334" xlink:href="#m1a521a59e1" y="116.635776"/>
     <use style="fill-opacity:0;stroke:#ff00ff;stroke-linejoin:miter;stroke-width:1.5;" x="308.656824" xlink:href="#m1a521a59e1" y="27.513663"/>
     <use style="fill-opacity:0;stroke:#ff00ff;stroke-linejoin:miter;stroke-width:1.5;" x="308.656824" xlink:href="#m1a521a59e1" y="27.513663"/>
     <use style="fill-opacity:0;stroke:#ff00ff;stroke-linejoin:miter;stroke-width:1.5;" x="333.429677" xlink:href="#m1a521a59e1" y="27.513663"/>
    </g>
   </g>
   <g id="line2d_36">
    <path style="fill:none;stroke:#ff00ff;stroke-linecap:square;stroke-width:1.5;"/>
    <g/>
   </g>
   <g id="line2d_37">
    <path clip-path="url(#p95f608a1b0)" d="M 293.81402 34.853131 
" style="fill:none;stroke:#ff00ff;stroke-linecap:square;stroke-width:1.5;"/>
    <defs>
     <path d="M -12 12 
L 12 -12 
M -12 -12 
L 12 12 
" id="m9b918c5909" style="stroke:#ff00ff;stroke-width:3;"/>
    </defs>
    <g clip-path="url(#p95f608a1b0)">
     <use style="fill:#ff00ff;stroke:#ff00ff;stroke-width:3;" x="293.81402" xlink:href="#m9b918c5909" y="34.853131"/>
    </g>
   </g>
   <g id="line2d_38">
    <defs>
     <path d="M 0 1.5 
C 0.397805 1.5 0.77937 1.341951 1.06066 1.06066 
C 1.341951 0.77937 1.5 0.397805 1.5 0 
C 1.5 -0.397805 1.341951 -0.77937 1.06066 -1.06066 
C 0.77937 -1.341951 0.397805 -1.5 0 -1.5 
C -0.397805 -1.5 -0.77937 -1.341951 -1.06066 -1.06066 
C -1.341951 -0.77937 -1.5 -0.397805 -1.5 0 
C -1.5 0.397805 -1.341951 0.77937 -1.06066 1.06066 
C -0.77937 1.341951 -0.397805 1.5 0 1.5 
z
" id="ma73a415037" style="stroke:#ffa500;"/>
    </defs>
    <g>
     <use style="fill:#ffa500;stroke:#ffa500;" x="212.497214" xlink:href="#ma73a415037" y="273.910091"/>
     <use style="fill:#ffa500;stroke:#ffa500;" x="212.497214" xlink:href="#ma73a415037" y="273.910091"/>
    </g>
   </g>
   <g id="line2d_39">
    <path d="M 199.951695 294.88 
L 199.951695 294.355752 
L 200.018412 294.355752 
L 200.018412 293.307257 
L 201.101553 293.307257 
L 201.101553 292.783009 
L 201.260707 292.783009 
L 201.260707 292.258761 
L 202.032793 292.258761 
L 202.032793 291.734514 
L 202.21346 291.734514 
L 202.21346 291.210266 
L 202.556397 291.210266 
L 202.556397 290.161771 
L 203.113026 290.161771 
L 203.113026 289.637523 
L 204.133687 289.637523 
L 204.133687 289.113275 
L 204.366896 289.113275 
L 204.366896 288.06478 
L 204.792762 288.06478 
L 204.792762 287.540532 
L 204.821004 287.540532 
L 204.821004 287.016284 
L 204.823583 287.016284 
L 204.823583 286.492036 
L 205.277624 286.492036 
L 205.277624 285.967789 
L 205.838661 285.967789 
L 205.838661 284.919293 
L 206.098384 284.919293 
L 206.098384 284.395046 
L 206.851053 284.395046 
L 206.851053 283.870798 
L 206.851592 283.870798 
L 206.851592 282.822302 
L 207.0979 282.822302 
L 207.0979 282.298055 
L 207.857728 282.298055 
L 207.857728 281.773807 
L 207.899896 281.773807 
L 207.899896 280.201064 
L 208.660341 280.201064 
L 208.660341 279.152568 
L 208.955519 279.152568 
L 208.955519 278.628321 
L 209.549437 278.628321 
L 209.549437 278.104073 
L 210.403831 278.104073 
L 210.403831 277.055578 
L 211.054359 277.055578 
L 211.054359 276.53133 
L 211.11729 276.53133 
L 211.11729 276.007082 
L 211.832947 276.007082 
L 211.832947 275.482834 
L 211.849895 275.482834 
L 211.849895 274.434339 
L 212.497214 274.434339 
L 212.497214 273.910091 
L 333.429677 273.910091 
" style="fill:none;stroke:#ffa500;stroke-linecap:square;stroke-width:1.5;"/>
   </g>
   <g id="line2d_40">
    <defs>
     <path d="M 0 -6 
L -1.347084 -1.854102 
L -5.706339 -1.854102 
L -2.179628 0.708204 
L -3.526712 4.854102 
L -0 2.291796 
L 3.526712 4.854102 
L 2.179628 0.708204 
L 5.706339 -1.854102 
L 1.347084 -1.854102 
z
" id="mb9d7c1c315" style="stroke:#ffa500;stroke-linejoin:bevel;stroke-width:1.5;"/>
    </defs>
    <g>
     <use style="fill-opacity:0;stroke:#ffa500;stroke-linejoin:bevel;stroke-width:1.5;" x="212.497214" xlink:href="#mb9d7c1c315" y="274.434339"/>
     <use style="fill-opacity:0;stroke:#ffa500;stroke-linejoin:bevel;stroke-width:1.5;" x="212.497214" xlink:href="#mb9d7c1c315" y="273.910091"/>
     <use style="fill-opacity:0;stroke:#ffa500;stroke-linejoin:bevel;stroke-width:1.5;" x="212.497214" xlink:href="#mb9d7c1c315" y="273.910091"/>
     <use style="fill-opacity:0;stroke:#ffa500;stroke-linejoin:bevel;stroke-width:1.5;" x="333.429677" xlink:href="#mb9d7c1c315" y="273.910091"/>
    </g>
   </g>
   <g id="line2d_41">
    <path style="fill:none;stroke:#ffa500;stroke-linecap:square;stroke-width:1.5;"/>
    <g/>
   </g>
   <g id="line2d_42">
    <path clip-path="url(#p95f608a1b0)" d="M 254.210174 273.910091 
" style="fill:none;stroke:#ffa500;stroke-linecap:square;stroke-width:1.5;"/>
    <defs>
     <path d="M -12 12 
L 12 -12 
M -12 -12 
L 12 12 
" id="m5c3c99f65d" style="stroke:#ffa500;stroke-width:3;"/>
    </defs>
    <g clip-path="url(#p95f608a1b0)">
     <use style="fill:#ffa500;stroke:#ffa500;stroke-width:3;" x="254.210174" xlink:href="#m5c3c99f65d" y="273.910091"/>
    </g>
   </g>
   <g id="line2d_43">
    <defs>
     <path d="M 0 1.5 
C 0.397805 1.5 0.77937 1.341951 1.06066 1.06066 
C 1.341951 0.77937 1.5 0.397805 1.5 0 
C 1.5 -0.397805 1.341951 -0.77937 1.06066 -1.06066 
C 0.77937 -1.341951 0.397805 -1.5 0 -1.5 
C -0.397805 -1.5 -0.77937 -1.341951 -1.06066 -1.06066 
C -1.341951 -0.77937 -1.5 -0.397805 -1.5 0 
C -1.5 0.397805 -1.341951 0.77937 -1.06066 1.06066 
C -0.77937 1.341951 -0.397805 1.5 0 1.5 
z
" id="m3b28ed89d7" style="stroke:#6495ed;"/>
    </defs>
    <g>
     <use style="fill:#6495ed;stroke:#6495ed;" x="323.106819" xlink:href="#m3b28ed89d7" y="252.940182"/>
     <use style="fill:#6495ed;stroke:#6495ed;" x="323.106819" xlink:href="#m3b28ed89d7" y="252.940182"/>
    </g>
   </g>
   <g id="line2d_44">
    <path d="M 142.206452 294.88 
L 142.206452 292.783009 
L 144.811501 292.783009 
L 144.811501 292.258761 
L 145.223496 292.258761 
L 145.223496 291.734514 
L 146.407924 291.734514 
L 146.407924 291.210266 
L 147.562635 291.210266 
L 147.562635 290.686018 
L 148.07115 290.686018 
L 148.07115 289.113275 
L 148.928366 289.113275 
L 148.928366 288.589027 
L 149.341473 288.589027 
L 149.341473 288.06478 
L 150.124495 288.06478 
L 150.124495 287.540532 
L 150.61322 287.540532 
L 150.61322 287.016284 
L 151.341614 287.016284 
L 151.341614 286.492036 
L 152.491002 286.492036 
L 152.491002 285.967789 
L 153.639853 285.967789 
L 153.639853 284.919293 
L 153.823105 284.919293 
L 153.823105 284.395046 
L 154.426847 284.395046 
L 154.426847 283.870798 
L 154.822507 283.870798 
L 154.822507 283.34655 
L 154.999139 283.34655 
L 154.999139 282.822302 
L 155.843012 282.822302 
L 155.843012 281.249559 
L 156.207738 281.249559 
L 156.207738 280.725312 
L 157.37768 280.725312 
L 157.37768 280.201064 
L 157.767776 280.201064 
L 157.767776 279.676816 
L 158.466372 279.676816 
L 158.466372 279.152568 
L 159.509279 279.152568 
L 159.509279 278.628321 
L 163.427684 278.628321 
L 163.427684 277.579825 
L 164.128204 277.579825 
L 164.128204 277.055578 
L 166.77573 277.055578 
L 166.77573 276.007082 
L 176.11578 276.007082 
L 176.11578 275.482834 
L 185.184141 275.482834 
L 185.184141 274.958587 
L 193.514459 274.958587 
L 193.514459 274.434339 
L 194.182456 274.434339 
L 194.182456 273.910091 
L 197.825145 273.910091 
L 197.825145 273.385844 
L 213.318094 273.385844 
L 213.318094 272.861596 
L 224.872572 272.861596 
L 224.872572 272.337348 
L 228.480472 272.337348 
L 228.480472 271.8131 
L 229.166745 271.8131 
L 229.166745 271.288853 
L 231.796797 271.288853 
L 231.796797 270.240357 
L 233.093441 270.240357 
L 233.093441 269.716109 
L 234.108794 269.716109 
L 234.108794 268.143366 
L 237.712046 268.143366 
L 237.712046 267.619119 
L 244.519477 267.619119 
L 244.519477 267.094871 
L 248.337858 267.094871 
L 248.358345 264.99788 
L 251.869846 264.99788 
L 251.869846 264.473632 
L 253.933046 264.473632 
L 253.933046 263.949385 
L 254.268257 263.949385 
L 254.268257 263.425137 
L 254.686715 263.425137 
L 254.696687 262.376641 
L 257.089404 262.376641 
L 257.089404 261.852394 
L 259.282474 261.852394 
L 259.282474 261.328146 
L 264.24239 261.328146 
L 264.24239 260.803898 
L 264.493565 260.803898 
L 264.493565 260.279651 
L 265.071711 260.279651 
L 265.071711 259.231155 
L 271.361543 259.231155 
L 271.361543 258.706907 
L 276.762383 258.706907 
L 276.762383 258.18266 
L 277.134328 258.18266 
L 277.134328 257.658412 
L 277.253513 257.658412 
L 277.253513 257.134164 
L 281.475339 257.134164 
L 281.475339 256.609917 
L 284.681711 256.609917 
L 284.681711 255.561421 
L 287.383362 255.561421 
L 287.383362 255.037173 
L 295.267235 255.037173 
L 295.267235 254.512926 
L 304.74925 254.512926 
L 304.74925 253.988678 
L 316.268443 253.988678 
L 316.268443 253.46443 
L 323.106819 253.46443 
L 323.106819 252.940182 
L 333.429677 252.940182 
L 333.429677 252.940182 
" style="fill:none;stroke:#6495ed;stroke-linecap:square;stroke-width:1.5;"/>
   </g>
   <g id="line2d_45">
    <defs>
     <path d="M -0 6 
L 6 -6 
L -6 -6 
z
" id="ma5fe84979b" style="stroke:#6495ed;stroke-linejoin:miter;stroke-width:1.5;"/>
    </defs>
    <g>
     <use style="fill-opacity:0;stroke:#6495ed;stroke-linejoin:miter;stroke-width:1.5;" x="185.184141" xlink:href="#ma5fe84979b" y="275.482834"/>
     <use style="fill-opacity:0;stroke:#6495ed;stroke-linejoin:miter;stroke-width:1.5;" x="254.696687" xlink:href="#ma5fe84979b" y="262.376641"/>
     <use style="fill-opacity:0;stroke:#6495ed;stroke-linejoin:miter;stroke-width:1.5;" x="304.74925" xlink:href="#ma5fe84979b" y="253.988678"/>
     <use style="fill-opacity:0;stroke:#6495ed;stroke-linejoin:miter;stroke-width:1.5;" x="323.106819" xlink:href="#ma5fe84979b" y="252.940182"/>
     <use style="fill-opacity:0;stroke:#6495ed;stroke-linejoin:miter;stroke-width:1.5;" x="333.429677" xlink:href="#ma5fe84979b" y="252.940182"/>
    </g>
   </g>
   <g id="line2d_46">
    <path style="fill:none;stroke:#6495ed;stroke-linecap:square;stroke-width:1.5;"/>
    <g/>
   </g>
   <g id="line2d_47">
    <path clip-path="url(#p95f608a1b0)" d="M 254.198341 263.949385 
" style="fill:none;stroke:#6495ed;stroke-linecap:square;stroke-width:1.5;"/>
    <defs>
     <path d="M -12 12 
L 12 -12 
M -12 -12 
L 12 12 
" id="md1fadacd46" style="stroke:#6495ed;stroke-width:3;"/>
    </defs>
    <g clip-path="url(#p95f608a1b0)">
     <use style="fill:#6495ed;stroke:#6495ed;stroke-width:3;" x="254.198341" xlink:href="#md1fadacd46" y="263.949385"/>
    </g>
   </g>
   <g id="line2d_48">
    <defs>
     <path d="M 0 1.5 
C 0.397805 1.5 0.77937 1.341951 1.06066 1.06066 
C 1.341951 0.77937 1.5 0.397805 1.5 0 
C 1.5 -0.397805 1.341951 -0.77937 1.06066 -1.06066 
C 0.77937 -1.341951 0.397805 -1.5 0 -1.5 
C -0.397805 -1.5 -0.77937 -1.341951 -1.06066 -1.06066 
C -1.341951 -0.77937 -1.5 -0.397805 -1.5 0 
C -1.5 0.397805 -1.341951 0.77937 -1.06066 1.06066 
C -0.77937 1.341951 -0.397805 1.5 0 1.5 
z
" id="m90f162259e" style="stroke:#ff0000;"/>
    </defs>
    <g>
     <use style="fill:#ff0000;stroke:#ff0000;" x="279.666578" xlink:href="#m90f162259e" y="127.12073"/>
     <use style="fill:#ff0000;stroke:#ff0000;" x="279.666578" xlink:href="#m90f162259e" y="127.12073"/>
    </g>
   </g>
   <g id="line2d_49">
    <path d="M 102.364056 294.88 
L 102.364056 293.307257 
L 103.220196 293.307257 
L 103.331196 290.686018 
L 104.194317 290.686018 
L 104.194317 290.161771 
L 104.661446 290.161771 
L 104.661446 289.637523 
L 105.75261 289.637523 
L 105.75261 288.06478 
L 105.991239 288.06478 
L 105.991239 287.540532 
L 106.366292 287.540532 
L 106.366292 287.016284 
L 106.868993 287.016284 
L 106.868993 286.492036 
L 107.574933 286.492036 
L 107.574933 285.967789 
L 107.832367 285.967789 
L 107.832367 284.919293 
L 108.294552 284.919293 
L 108.294552 284.395046 
L 108.784985 284.395046 
L 108.784985 283.34655 
L 108.945405 283.34655 
L 108.985277 281.773807 
L 109.572531 281.773807 
L 109.572531 280.725312 
L 110.76211 280.725312 
L 110.76211 280.201064 
L 113.724441 280.201064 
L 113.724441 279.676816 
L 113.964652 279.676816 
L 113.964652 279.152568 
L 114.260276 279.152568 
L 114.260276 278.628321 
L 115.693673 278.628321 
L 115.693673 277.055578 
L 118.861923 277.055578 
L 118.861923 276.53133 
L 120.830944 276.53133 
L 120.830944 276.007082 
L 121.727437 276.007082 
L 121.727437 275.482834 
L 129.276128 275.482834 
L 129.276128 274.958587 
L 129.913196 274.958587 
L 129.913196 273.910091 
L 136.754909 273.910091 
L 136.754909 272.861596 
L 138.581096 272.861596 
L 138.581096 272.337348 
L 139.504184 272.337348 
L 139.504184 271.8131 
L 141.624972 271.8131 
L 141.624972 271.288853 
L 147.285441 271.288853 
L 147.285441 270.240357 
L 149.00245 270.240357 
L 149.00245 269.191862 
L 157.413511 269.191862 
L 157.413511 268.667614 
L 167.292727 268.667614 
L 167.292727 267.619119 
L 168.148593 267.619119 
L 168.148593 266.570623 
L 169.798153 266.570623 
L 169.798153 266.046375 
L 171.157932 266.046375 
L 171.252135 264.473632 
L 177.364856 264.473632 
L 177.364856 262.900889 
L 177.583471 262.900889 
L 177.583471 261.852394 
L 178.297714 261.852394 
L 178.297714 261.328146 
L 178.613074 261.328146 
L 178.613074 260.803898 
L 179.26989 260.803898 
L 179.26989 260.279651 
L 179.760557 260.279651 
L 179.760557 259.755403 
L 180.166547 259.755403 
L 180.166547 259.231155 
L 180.579325 259.231155 
L 180.579325 258.706907 
L 181.427797 258.706907 
L 181.427797 258.18266 
L 183.210169 258.18266 
L 183.210169 257.658412 
L 183.87075 257.658412 
L 183.943401 256.085669 
L 184.267587 256.085669 
L 184.267587 255.037173 
L 184.950754 255.037173 
L 185.058754 253.46443 
L 185.171311 253.46443 
L 185.171311 252.940182 
L 185.449522 252.940182 
L 185.449522 252.415935 
L 185.899641 252.415935 
L 185.899641 251.367439 
L 186.193308 251.367439 
L 186.193308 250.843192 
L 186.79243 250.843192 
L 186.836502 249.270448 
L 186.966331 249.270448 
L 186.966331 248.221953 
L 187.146547 248.221953 
L 187.146547 247.697705 
L 187.374736 247.697705 
L 187.374736 246.64921 
L 187.633754 246.64921 
L 187.712263 244.027971 
L 188.450783 244.027971 
L 188.510397 241.93098 
L 188.713952 241.93098 
L 188.713952 241.406733 
L 188.882591 241.406733 
L 188.882591 240.882485 
L 189.16418 240.882485 
L 189.16418 240.358237 
L 189.698558 240.358237 
L 189.698558 239.83399 
L 189.8354 239.83399 
L 189.8354 238.785494 
L 189.994883 238.785494 
L 189.994883 237.736999 
L 190.318647 237.736999 
L 190.318647 237.212751 
L 190.588615 237.212751 
L 190.622238 236.164255 
L 190.935533 236.164255 
L 190.935533 235.640008 
L 191.067642 235.640008 
L 191.067642 235.11576 
L 191.414721 235.11576 
L 191.414721 234.067265 
L 191.6107 234.067265 
L 191.67727 232.494521 
L 192.309414 232.494521 
L 192.309414 231.970274 
L 192.66487 231.970274 
L 192.66487 230.397531 
L 192.873639 230.397531 
L 192.873639 229.873283 
L 193.027591 229.873283 
L 193.027591 229.349035 
L 193.217146 229.349035 
L 193.217146 228.824787 
L 193.881954 228.824787 
L 193.881954 227.776292 
L 194.104569 227.776292 
L 194.162171 226.203549 
L 194.348338 226.203549 
L 194.348338 225.679301 
L 194.536099 225.679301 
L 194.536099 225.155053 
L 194.754818 225.155053 
L 194.754818 224.630806 
L 195.001694 224.630806 
L 195.001694 224.106558 
L 195.390836 224.106558 
L 195.495503 222.533815 
L 195.767262 222.533815 
L 195.784971 219.912576 
L 196.591509 219.912576 
L 196.591509 219.388328 
L 196.751336 219.388328 
L 196.751336 218.864081 
L 196.996456 218.864081 
L 196.996456 218.339833 
L 197.275811 218.339833 
L 197.275811 217.815585 
L 197.387651 217.815585 
L 197.400734 216.242842 
L 197.728958 216.242842 
L 197.728958 215.194347 
L 198.411295 215.194347 
L 198.411295 213.621604 
L 198.588089 213.621604 
L 198.588089 213.097356 
L 198.807042 213.097356 
L 198.807042 212.573108 
L 199.10402 212.573108 
L 199.137407 211.000365 
L 199.715921 211.000365 
L 199.715921 210.476117 
L 200.180905 210.476117 
L 200.229117 209.427622 
L 200.310749 209.427622 
L 200.372358 207.330631 
L 200.839484 207.330631 
L 200.839484 206.282136 
L 201.406934 206.282136 
L 201.406934 205.757888 
L 201.800191 205.757888 
L 201.800191 205.23364 
L 201.979546 205.23364 
L 201.979546 204.709392 
L 202.44354 204.709392 
L 202.44354 203.660897 
L 202.561069 203.660897 
L 202.588556 202.088154 
L 202.717795 202.088154 
L 202.717795 201.563906 
L 203.729006 201.563906 
L 203.729006 200.515411 
L 204.063754 200.515411 
L 204.063754 199.991163 
L 204.300564 199.991163 
L 204.311663 197.369924 
L 204.447398 197.369924 
L 204.447398 196.845677 
L 204.641809 196.845677 
L 204.641809 196.321429 
L 204.905303 196.321429 
L 204.905303 195.272933 
L 205.246126 195.272933 
L 205.246126 194.748686 
L 205.55854 194.748686 
L 205.55854 193.70019 
L 205.836087 193.70019 
L 205.893914 192.127447 
L 206.010263 192.127447 
L 206.010263 191.078952 
L 206.429715 191.078952 
L 206.429715 190.554704 
L 206.740814 190.554704 
L 206.846468 188.981961 
L 206.887957 188.981961 
L 206.887957 187.933465 
L 207.011292 187.933465 
L 207.011292 187.409218 
L 207.236892 187.409218 
L 207.236892 186.88497 
L 207.361556 186.88497 
L 207.361556 186.360722 
L 207.610399 186.360722 
L 207.610399 185.836474 
L 207.761576 185.836474 
L 207.761576 184.787979 
L 208.203184 184.787979 
L 208.203184 184.263731 
L 208.386669 184.263731 
L 208.431375 181.642493 
L 208.791167 181.642493 
L 208.791287 180.06975 
L 208.935344 180.06975 
L 208.935344 179.545502 
L 209.661334 179.545502 
L 209.711075 177.448511 
L 210.017082 177.448511 
L 210.097095 176.400016 
L 211.1256 176.400016 
L 211.1256 175.35152 
L 211.250611 175.35152 
L 211.250611 173.778777 
L 211.363522 173.778777 
L 211.363522 172.730281 
L 212.050788 172.730281 
L 212.050788 172.206034 
L 212.173829 172.206034 
L 212.266987 170.109043 
L 212.5955 170.109043 
L 212.5955 169.584795 
L 213.146514 169.584795 
L 213.230098 167.487804 
L 213.378354 167.487804 
L 213.379277 165.390813 
L 213.711675 165.390813 
L 213.711675 164.866566 
L 213.865903 164.866566 
L 213.865903 164.342318 
L 214.223673 164.342318 
L 214.319064 162.245327 
L 214.380363 162.245327 
L 214.380363 161.721079 
L 217.496903 161.721079 
L 217.496903 161.196832 
L 218.054639 161.196832 
L 218.054639 160.672584 
L 218.340083 160.672584 
L 218.340083 160.148336 
L 218.662247 160.148336 
L 218.662247 159.624089 
L 219.899704 159.624089 
L 219.97853 158.575593 
L 220.36856 158.575593 
L 220.36856 158.051345 
L 220.633055 158.051345 
L 220.633055 157.527098 
L 221.335782 157.527098 
L 221.335782 157.00285 
L 221.52673 157.00285 
L 221.52673 156.478602 
L 221.899797 156.478602 
L 221.899797 155.954354 
L 222.688421 155.954354 
L 222.688421 155.430107 
L 223.224441 155.430107 
L 223.224441 154.905859 
L 223.726224 154.905859 
L 223.726224 154.381611 
L 224.376432 154.381611 
L 224.376432 153.857364 
L 224.756433 153.857364 
L 224.756433 153.333116 
L 224.984313 153.333116 
L 224.984313 152.808868 
L 225.583389 152.808868 
L 225.583389 152.28462 
L 225.805123 152.28462 
L 225.845223 151.236125 
L 226.153569 151.236125 
L 226.153569 150.711877 
L 226.42613 150.711877 
L 226.42613 150.18763 
L 228.337782 150.18763 
L 228.337782 149.663382 
L 228.454372 149.663382 
L 228.454372 149.139134 
L 228.699982 149.139134 
L 228.699982 148.614886 
L 229.693066 148.614886 
L 229.693066 148.090639 
L 231.143875 148.090639 
L 231.143875 147.566391 
L 231.680387 147.566391 
L 231.680387 147.042143 
L 233.036999 147.042143 
L 233.036999 146.517896 
L 233.148909 146.517896 
L 233.248587 144.945152 
L 233.365372 144.945152 
L 233.429064 143.372409 
L 237.977544 143.372409 
L 237.977544 142.323914 
L 238.182887 142.323914 
L 238.257334 141.275418 
L 238.337302 141.275418 
L 238.392405 139.702675 
L 241.908917 139.702675 
L 241.908917 139.178427 
L 244.959339 139.178427 
L 244.959339 138.65418 
L 245.29232 138.65418 
L 245.29232 137.605684 
L 247.802667 137.605684 
L 247.802667 137.081437 
L 247.91897 137.081437 
L 247.91897 136.557189 
L 250.132673 136.557189 
L 250.234289 134.984446 
L 252.18444 134.984446 
L 252.18444 134.460198 
L 255.823196 134.460198 
L 255.823196 133.93595 
L 257.321469 133.93595 
L 257.321469 132.887455 
L 258.699653 132.887455 
L 258.699653 132.363207 
L 259.916079 132.363207 
L 259.916079 131.838959 
L 261.16338 131.838959 
L 261.16338 131.314712 
L 264.302035 131.314712 
L 264.302035 130.790464 
L 266.877388 130.790464 
L 266.877388 129.741969 
L 269.92319 129.741969 
L 269.92319 128.693473 
L 272.510933 128.693473 
L 272.510933 128.169225 
L 278.004354 128.169225 
L 278.004354 127.644978 
L 279.666578 127.644978 
L 279.666578 127.12073 
L 333.429677 127.12073 
L 333.429677 127.12073 
" style="fill:none;stroke:#ff0000;stroke-linecap:square;stroke-width:1.5;"/>
   </g>
   <g id="line2d_50">
    <defs>
     <path d="M 0 -6 
L -5.196152 -3 
L -5.196152 3 
L -0 6 
L 5.196152 3 
L 5.196152 -3 
z
" id="mbdd087ce79" style="stroke:#ff0000;stroke-linejoin:miter;stroke-width:1.5;"/>
    </defs>
    <g>
     <use style="fill-opacity:0;stroke:#ff0000;stroke-linejoin:miter;stroke-width:1.5;" x="169.798153" xlink:href="#mbdd087ce79" y="266.570623"/>
     <use style="fill-opacity:0;stroke:#ff0000;stroke-linejoin:miter;stroke-width:1.5;" x="206.846468" xlink:href="#mbdd087ce79" y="190.030456"/>
     <use style="fill-opacity:0;stroke:#ff0000;stroke-linejoin:miter;stroke-width:1.5;" x="279.666578" xlink:href="#mbdd087ce79" y="127.644978"/>
     <use style="fill-opacity:0;stroke:#ff0000;stroke-linejoin:miter;stroke-width:1.5;" x="279.666578" xlink:href="#mbdd087ce79" y="127.12073"/>
     <use style="fill-opacity:0;stroke:#ff0000;stroke-linejoin:miter;stroke-width:1.5;" x="333.429677" xlink:href="#mbdd087ce79" y="127.12073"/>
    </g>
   </g>
   <g id="line2d_51">
    <path style="fill:none;stroke:#ff0000;stroke-linecap:square;stroke-width:1.5;"/>
    <g/>
   </g>
   <g id="line2d_52">
    <path clip-path="url(#p95f608a1b0)" d="M 214.582759 161.721079 
" style="fill:none;stroke:#ff0000;stroke-linecap:square;stroke-width:1.5;"/>
    <defs>
     <path d="M -12 12 
L 12 -12 
M -12 -12 
L 12 12 
" id="m6cf12b1a26" style="stroke:#ff0000;stroke-width:3;"/>
    </defs>
    <g clip-path="url(#p95f608a1b0)">
     <use style="fill:#ff0000;stroke:#ff0000;stroke-width:3;" x="214.582759" xlink:href="#m6cf12b1a26" y="161.721079"/>
    </g>
   </g>
   <g id="line2d_53">
    <path clip-path="url(#p95f608a1b0)" d="M 56.12 294.88 
L 56.12 294.88 
L 56.12 294.88 
L 56.12 294.88 
L 399.984 294.88 
" style="fill:none;stroke:#9acd32;stroke-linecap:square;stroke-width:1.5;"/>
   </g>
   <g id="line2d_54">
    <defs>
     <path d="M 0 -6 
L -6 6 
L 6 6 
z
" id="mb93b995757" style="stroke:#9acd32;stroke-linejoin:miter;stroke-width:1.5;"/>
    </defs>
    <g clip-path="url(#p95f608a1b0)">
     <use style="fill-opacity:0;stroke:#9acd32;stroke-linejoin:miter;stroke-width:1.5;" x="56.12" xlink:href="#mb93b995757" y="294.88"/>
    </g>
   </g>
   <g id="line2d_55">
    <path clip-path="url(#p95f608a1b0)" style="fill:none;stroke:#9acd32;stroke-linecap:square;stroke-width:1.5;"/>
    <g clip-path="url(#p95f608a1b0)">
     <use style="fill-opacity:0;stroke:#9acd32;stroke-linejoin:miter;stroke-width:1.5;" x="-1" xlink:href="#mb93b995757" y="562.246337"/>
     <use style="fill-opacity:0;stroke:#9acd32;stroke-linejoin:miter;stroke-width:1.5;" x="399.984" xlink:href="#mb93b995757" y="562.246337"/>
    </g>
   </g>
   <g id="line2d_56">
    <path d="M 333.429677 294.88 
L 363.933742 289.532673 
" style="fill:none;stroke:#9acd32;stroke-linecap:square;stroke-width:1.5;"/>
    <g>
     <use style="fill-opacity:0;stroke:#9acd32;stroke-linejoin:miter;stroke-width:1.5;" x="333.429677" xlink:href="#mb93b995757" y="294.88"/>
     <use style="fill-opacity:0;stroke:#9acd32;stroke-linejoin:miter;stroke-width:1.5;" x="363.933742" xlink:href="#mb93b995757" y="289.532673"/>
    </g>
   </g>
   <g id="line2d_57">
    <path d="M 333.429677 273.910091 
L 363.933742 246.754059 
" style="fill:none;stroke:#ffa500;stroke-linecap:square;stroke-width:1.5;"/>
    <g>
     <use style="fill-opacity:0;stroke:#ffa500;stroke-linejoin:bevel;stroke-width:1.5;" x="333.429677" xlink:href="#mb9d7c1c315" y="273.910091"/>
     <use style="fill-opacity:0;stroke:#ffa500;stroke-linejoin:bevel;stroke-width:1.5;" x="363.933742" xlink:href="#mb9d7c1c315" y="246.754059"/>
    </g>
   </g>
   <g id="line2d_58">
    <path d="M 333.429677 252.940182 
L 363.933742 203.975446 
" style="fill:none;stroke:#6495ed;stroke-linecap:square;stroke-width:1.5;"/>
    <g>
     <use style="fill-opacity:0;stroke:#6495ed;stroke-linejoin:miter;stroke-width:1.5;" x="333.429677" xlink:href="#ma5fe84979b" y="252.940182"/>
     <use style="fill-opacity:0;stroke:#6495ed;stroke-linejoin:miter;stroke-width:1.5;" x="363.933742" xlink:href="#ma5fe84979b" y="203.975446"/>
    </g>
   </g>
   <g id="line2d_59">
    <path d="M 333.429677 244.027971 
L 363.933742 161.196832 
" style="fill:none;stroke:#000080;stroke-linecap:square;stroke-width:1.5;"/>
    <g>
     <use style="fill-opacity:0;stroke:#000080;stroke-width:1.5;" x="333.429677" xlink:href="#m065c3533f7" y="244.027971"/>
     <use style="fill-opacity:0;stroke:#000080;stroke-width:1.5;" x="363.933742" xlink:href="#m065c3533f7" y="161.196832"/>
    </g>
   </g>
   <g id="line2d_60">
    <path d="M 333.429677 127.12073 
L 363.933742 118.418218 
" style="fill:none;stroke:#ff0000;stroke-linecap:square;stroke-width:1.5;"/>
    <g>
     <use style="fill-opacity:0;stroke:#ff0000;stroke-linejoin:miter;stroke-width:1.5;" x="333.429677" xlink:href="#mbdd087ce79" y="127.12073"/>
     <use style="fill-opacity:0;stroke:#ff0000;stroke-linejoin:miter;stroke-width:1.5;" x="363.933742" xlink:href="#mbdd087ce79" y="118.418218"/>
    </g>
   </g>
   <g id="line2d_61">
    <path d="M 333.429677 27.513663 
L 363.933742 75.639604 
" style="fill:none;stroke:#ff00ff;stroke-linecap:square;stroke-width:1.5;"/>
    <g>
     <use style="fill-opacity:0;stroke:#ff00ff;stroke-linejoin:miter;stroke-width:1.5;" x="333.429677" xlink:href="#m1a521a59e1" y="27.513663"/>
     <use style="fill-opacity:0;stroke:#ff00ff;stroke-linejoin:miter;stroke-width:1.5;" x="363.933742" xlink:href="#m1a521a59e1" y="75.639604"/>
    </g>
   </g>
   <g id="line2d_62">
    <path d="M 333.429677 294.88 
L 333.429677 27.513663 
" style="fill:none;stroke:#000000;stroke-linecap:square;stroke-width:1.5;"/>
   </g>
   <g id="patch_3">
    <path d="M 56.12 294.88 
L 56.12 24.84 
" style="fill:none;stroke:#000000;stroke-linecap:square;stroke-linejoin:miter;stroke-width:0.8;"/>
   </g>
   <g id="patch_4">
    <path d="M 399.984 294.88 
L 399.984 24.84 
" style="fill:none;stroke:#000000;stroke-linecap:square;stroke-linejoin:miter;stroke-width:0.8;"/>
   </g>
   <g id="patch_5">
    <path d="M 56.12 294.88 
L 399.984 294.88 
" style="fill:none;stroke:#000000;stroke-linecap:square;stroke-linejoin:miter;stroke-width:0.8;"/>
   </g>
   <g id="patch_6">
    <path d="M 56.12 24.84 
L 399.984 24.84 
" style="fill:none;stroke:#000000;stroke-linecap:square;stroke-linejoin:miter;stroke-width:0.8;"/>
   </g>
   <g id="text_14">
    <!-- gsa solve -->
    <g transform="translate(369.479935 294.223611)scale(0.17 -0.17)">
     <use xlink:href="#DejaVuSans-67"/>
     <use x="63.476562" xlink:href="#DejaVuSans-73"/>
     <use x="115.576172" xlink:href="#DejaVuSans-61"/>
     <use x="176.855469" xlink:href="#DejaVuSans-20"/>
     <use x="208.642578" xlink:href="#DejaVuSans-73"/>
     <use x="260.742188" xlink:href="#DejaVuSans-6f"/>
     <use x="321.923828" xlink:href="#DejaVuSans-6c"/>
     <use x="349.707031" xlink:href="#DejaVuSans-76"/>
     <use x="408.886719" xlink:href="#DejaVuSans-65"/>
    </g>
   </g>
   <g id="text_15">
    <!-- GA -->
    <defs>
     <path d="M 59.515625 10.40625 
L 59.515625 29.984375 
L 43.40625 29.984375 
L 43.40625 38.09375 
L 69.28125 38.09375 
L 69.28125 6.78125 
Q 63.578125 2.734375 56.6875 0.65625 
Q 49.8125 -1.421875 42 -1.421875 
Q 24.90625 -1.421875 15.25 8.5625 
Q 5.609375 18.5625 5.609375 36.375 
Q 5.609375 54.25 15.25 64.234375 
Q 24.90625 74.21875 42 74.21875 
Q 49.125 74.21875 55.546875 72.453125 
Q 61.96875 70.703125 67.390625 67.28125 
L 67.390625 56.78125 
Q 61.921875 61.421875 55.765625 63.765625 
Q 49.609375 66.109375 42.828125 66.109375 
Q 29.4375 66.109375 22.71875 58.640625 
Q 16.015625 51.171875 16.015625 36.375 
Q 16.015625 21.625 22.71875 14.15625 
Q 29.4375 6.6875 42.828125 6.6875 
Q 48.046875 6.6875 52.140625 7.59375 
Q 56.25 8.5 59.515625 10.40625 
z
" id="DejaVuSans-47"/>
     <path d="M 34.1875 63.1875 
L 20.796875 26.90625 
L 47.609375 26.90625 
z
M 28.609375 72.90625 
L 39.796875 72.90625 
L 67.578125 0 
L 57.328125 0 
L 50.6875 18.703125 
L 17.828125 18.703125 
L 11.1875 0 
L 0.78125 0 
z
" id="DejaVuSans-41"/>
    </defs>
    <g transform="translate(369.479935 251.444997)scale(0.17 -0.17)">
     <use xlink:href="#DejaVuSans-47"/>
     <use x="77.490234" xlink:href="#DejaVuSans-41"/>
    </g>
   </g>
   <g id="text_16">
    <!-- PSO -->
    <defs>
     <path d="M 19.671875 64.796875 
L 19.671875 37.40625 
L 32.078125 37.40625 
Q 38.96875 37.40625 42.71875 40.96875 
Q 46.484375 44.53125 46.484375 51.125 
Q 46.484375 57.671875 42.71875 61.234375 
Q 38.96875 64.796875 32.078125 64.796875 
z
M 9.8125 72.90625 
L 32.078125 72.90625 
Q 44.34375 72.90625 50.609375 67.359375 
Q 56.890625 61.8125 56.890625 51.125 
Q 56.890625 40.328125 50.609375 34.8125 
Q 44.34375 29.296875 32.078125 29.296875 
L 19.671875 29.296875 
L 19.671875 0 
L 9.8125 0 
z
" id="DejaVuSans-50"/>
     <path d="M 53.515625 70.515625 
L 53.515625 60.890625 
Q 47.90625 63.578125 42.921875 64.890625 
Q 37.9375 66.21875 33.296875 66.21875 
Q 25.25 66.21875 20.875 63.09375 
Q 16.5 59.96875 16.5 54.203125 
Q 16.5 49.359375 19.40625 46.890625 
Q 22.3125 44.4375 30.421875 42.921875 
L 36.375 41.703125 
Q 47.40625 39.59375 52.65625 34.296875 
Q 57.90625 29 57.90625 20.125 
Q 57.90625 9.515625 50.796875 4.046875 
Q 43.703125 -1.421875 29.984375 -1.421875 
Q 24.8125 -1.421875 18.96875 -0.25 
Q 13.140625 0.921875 6.890625 3.21875 
L 6.890625 13.375 
Q 12.890625 10.015625 18.65625 8.296875 
Q 24.421875 6.59375 29.984375 6.59375 
Q 38.421875 6.59375 43.015625 9.90625 
Q 47.609375 13.234375 47.609375 19.390625 
Q 47.609375 24.75 44.3125 27.78125 
Q 41.015625 30.8125 33.5 32.328125 
L 27.484375 33.5 
Q 16.453125 35.6875 11.515625 40.375 
Q 6.59375 45.0625 6.59375 53.421875 
Q 6.59375 63.09375 13.40625 68.65625 
Q 20.21875 74.21875 32.171875 74.21875 
Q 37.3125 74.21875 42.625 73.28125 
Q 47.953125 72.359375 53.515625 70.515625 
z
" id="DejaVuSans-53"/>
     <path d="M 39.40625 66.21875 
Q 28.65625 66.21875 22.328125 58.203125 
Q 16.015625 50.203125 16.015625 36.375 
Q 16.015625 22.609375 22.328125 14.59375 
Q 28.65625 6.59375 39.40625 6.59375 
Q 50.140625 6.59375 56.421875 14.59375 
Q 62.703125 22.609375 62.703125 36.375 
Q 62.703125 50.203125 56.421875 58.203125 
Q 50.140625 66.21875 39.40625 66.21875 
z
M 39.40625 74.21875 
Q 54.734375 74.21875 63.90625 63.9375 
Q 73.09375 53.65625 73.09375 36.375 
Q 73.09375 19.140625 63.90625 8.859375 
Q 54.734375 -1.421875 39.40625 -1.421875 
Q 24.03125 -1.421875 14.8125 8.828125 
Q 5.609375 19.09375 5.609375 36.375 
Q 5.609375 53.65625 14.8125 63.9375 
Q 24.03125 74.21875 39.40625 74.21875 
z
" id="DejaVuSans-4f"/>
    </defs>
    <g transform="translate(369.479935 208.666383)scale(0.17 -0.17)">
     <use xlink:href="#DejaVuSans-50"/>
     <use x="60.302734" xlink:href="#DejaVuSans-53"/>
     <use x="123.779297" xlink:href="#DejaVuSans-4f"/>
    </g>
   </g>
   <g id="text_17">
    <!-- ALPS -->
    <defs>
     <path d="M 9.8125 72.90625 
L 19.671875 72.90625 
L 19.671875 8.296875 
L 55.171875 8.296875 
L 55.171875 0 
L 9.8125 0 
z
" id="DejaVuSans-4c"/>
    </defs>
    <g transform="translate(369.479935 165.887769)scale(0.17 -0.17)">
     <use xlink:href="#DejaVuSans-41"/>
     <use x="68.408203" xlink:href="#DejaVuSans-4c"/>
     <use x="124.121094" xlink:href="#DejaVuSans-50"/>
     <use x="184.423828" xlink:href="#DejaVuSans-53"/>
    </g>
   </g>
   <g id="text_18">
    <!-- Rosenbroc -->
    <defs>
     <path d="M 44.390625 34.1875 
Q 47.5625 33.109375 50.5625 29.59375 
Q 53.5625 26.078125 56.59375 19.921875 
L 66.609375 0 
L 56 0 
L 46.6875 18.703125 
Q 43.0625 26.03125 39.671875 28.421875 
Q 36.28125 30.8125 30.421875 30.8125 
L 19.671875 30.8125 
L 19.671875 0 
L 9.8125 0 
L 9.8125 72.90625 
L 32.078125 72.90625 
Q 44.578125 72.90625 50.734375 67.671875 
Q 56.890625 62.453125 56.890625 51.90625 
Q 56.890625 45.015625 53.6875 40.46875 
Q 50.484375 35.9375 44.390625 34.1875 
z
M 19.671875 64.796875 
L 19.671875 38.921875 
L 32.078125 38.921875 
Q 39.203125 38.921875 42.84375 42.21875 
Q 46.484375 45.515625 46.484375 51.90625 
Q 46.484375 58.296875 42.84375 61.546875 
Q 39.203125 64.796875 32.078125 64.796875 
z
" id="DejaVuSans-52"/>
     <path d="M 48.6875 27.296875 
Q 48.6875 37.203125 44.609375 42.84375 
Q 40.53125 48.484375 33.40625 48.484375 
Q 26.265625 48.484375 22.1875 42.84375 
Q 18.109375 37.203125 18.109375 27.296875 
Q 18.109375 17.390625 22.1875 11.75 
Q 26.265625 6.109375 33.40625 6.109375 
Q 40.53125 6.109375 44.609375 11.75 
Q 48.6875 17.390625 48.6875 27.296875 
z
M 18.109375 46.390625 
Q 20.953125 51.265625 25.265625 53.625 
Q 29.59375 56 35.59375 56 
Q 45.5625 56 51.78125 48.09375 
Q 58.015625 40.1875 58.015625 27.296875 
Q 58.015625 14.40625 51.78125 6.484375 
Q 45.5625 -1.421875 35.59375 -1.421875 
Q 29.59375 -1.421875 25.265625 0.953125 
Q 20.953125 3.328125 18.109375 8.203125 
L 18.109375 0 
L 9.078125 0 
L 9.078125 75.984375 
L 18.109375 75.984375 
z
" id="DejaVuSans-62"/>
    </defs>
    <g transform="translate(369.479935 123.109155)scale(0.17 -0.17)">
     <use xlink:href="#DejaVuSans-52"/>
     <use x="69.419922" xlink:href="#DejaVuSans-6f"/>
     <use x="130.601562" xlink:href="#DejaVuSans-73"/>
     <use x="182.701172" xlink:href="#DejaVuSans-65"/>
     <use x="244.224609" xlink:href="#DejaVuSans-6e"/>
     <use x="307.603516" xlink:href="#DejaVuSans-62"/>
     <use x="371.080078" xlink:href="#DejaVuSans-72"/>
     <use x="412.162109" xlink:href="#DejaVuSans-6f"/>
     <use x="473.34375" xlink:href="#DejaVuSans-63"/>
    </g>
   </g>
   <g id="text_19">
    <!-- DASA -->
    <defs>
     <path d="M 19.671875 64.796875 
L 19.671875 8.109375 
L 31.59375 8.109375 
Q 46.6875 8.109375 53.6875 14.9375 
Q 60.6875 21.78125 60.6875 36.53125 
Q 60.6875 51.171875 53.6875 57.984375 
Q 46.6875 64.796875 31.59375 64.796875 
z
M 9.8125 72.90625 
L 30.078125 72.90625 
Q 51.265625 72.90625 61.171875 64.09375 
Q 71.09375 55.28125 71.09375 36.53125 
Q 71.09375 17.671875 61.125 8.828125 
Q 51.171875 0 30.078125 0 
L 9.8125 0 
z
" id="DejaVuSans-44"/>
    </defs>
    <g transform="translate(369.479935 80.330541)scale(0.17 -0.17)">
     <use xlink:href="#DejaVuSans-44"/>
     <use x="76.986328" xlink:href="#DejaVuSans-41"/>
     <use x="145.394531" xlink:href="#DejaVuSans-53"/>
     <use x="208.886719" xlink:href="#DejaVuSans-41"/>
    </g>
   </g>
   <g id="text_20">
    <!-- best 2009 -->
    <defs>
     <path d="M 10.984375 1.515625 
L 10.984375 10.5 
Q 14.703125 8.734375 18.5 7.8125 
Q 22.3125 6.890625 25.984375 6.890625 
Q 35.75 6.890625 40.890625 13.453125 
Q 46.046875 20.015625 46.78125 33.40625 
Q 43.953125 29.203125 39.59375 26.953125 
Q 35.25 24.703125 29.984375 24.703125 
Q 19.046875 24.703125 12.671875 31.3125 
Q 6.296875 37.9375 6.296875 49.421875 
Q 6.296875 60.640625 12.9375 67.421875 
Q 19.578125 74.21875 30.609375 74.21875 
Q 43.265625 74.21875 49.921875 64.515625 
Q 56.59375 54.828125 56.59375 36.375 
Q 56.59375 19.140625 48.40625 8.859375 
Q 40.234375 -1.421875 26.421875 -1.421875 
Q 22.703125 -1.421875 18.890625 -0.6875 
Q 15.09375 0.046875 10.984375 1.515625 
z
M 30.609375 32.421875 
Q 37.25 32.421875 41.125 36.953125 
Q 45.015625 41.5 45.015625 49.421875 
Q 45.015625 57.28125 41.125 61.84375 
Q 37.25 66.40625 30.609375 66.40625 
Q 23.96875 66.40625 20.09375 61.84375 
Q 16.21875 57.28125 16.21875 49.421875 
Q 16.21875 41.5 20.09375 36.953125 
Q 23.96875 32.421875 30.609375 32.421875 
z
" id="DejaVuSans-39"/>
    </defs>
    <g transform="translate(369.479935 37.551928)scale(0.17 -0.17)">
     <use xlink:href="#DejaVuSans-62"/>
     <use x="63.476562" xlink:href="#DejaVuSans-65"/>
     <use x="125" xlink:href="#DejaVuSans-73"/>
     <use x="177.099609" xlink:href="#DejaVuSans-74"/>
     <use x="216.308594" xlink:href="#DejaVuSans-20"/>
     <use x="248.095703" xlink:href="#DejaVuSans-32"/>
     <use x="311.71875" xlink:href="#DejaVuSans-30"/>
     <use x="375.341797" xlink:href="#DejaVuSans-30"/>
     <use x="438.964844" xlink:href="#DejaVuSans-39"/>
    </g>
   </g>
   <g id="text_21">
    <!-- bbob f9, 20-D -->
    <g transform="translate(59.55864 35.290806)scale(0.102 -0.102)">
     <use xlink:href="#DejaVuSans-62"/>
     <use x="63.476562" xlink:href="#DejaVuSans-62"/>
     <use x="126.953125" xlink:href="#DejaVuSans-6f"/>
     <use x="188.134766" xlink:href="#DejaVuSans-62"/>
     <use x="251.611328" xlink:href="#DejaVuSans-20"/>
     <use x="283.398438" xlink:href="#DejaVuSans-66"/>
     <use x="318.603516" xlink:href="#DejaVuSans-39"/>
     <use x="382.226562" xlink:href="#DejaVuSans-2c"/>
     <use x="414.013672" xlink:href="#DejaVuSans-20"/>
     <use x="445.800781" xlink:href="#DejaVuSans-32"/>
     <use x="509.423828" xlink:href="#DejaVuSans-30"/>
     <use x="573.046875" xlink:href="#DejaVuSans-2d"/>
     <use x="609.130859" xlink:href="#DejaVuSans-44"/>
    </g>
    <!-- 51 targets: 100..1e-08 -->
    <defs>
     <path d="M 10.796875 72.90625 
L 49.515625 72.90625 
L 49.515625 64.59375 
L 19.828125 64.59375 
L 19.828125 46.734375 
Q 21.96875 47.46875 24.109375 47.828125 
Q 26.265625 48.1875 28.421875 48.1875 
Q 40.625 48.1875 47.75 41.5 
Q 54.890625 34.8125 54.890625 23.390625 
Q 54.890625 11.625 47.5625 5.09375 
Q 40.234375 -1.421875 26.90625 -1.421875 
Q 22.3125 -1.421875 17.546875 -0.640625 
Q 12.796875 0.140625 7.71875 1.703125 
L 7.71875 11.625 
Q 12.109375 9.234375 16.796875 8.0625 
Q 21.484375 6.890625 26.703125 6.890625 
Q 35.15625 6.890625 40.078125 11.328125 
Q 45.015625 15.765625 45.015625 23.390625 
Q 45.015625 31 40.078125 35.4375 
Q 35.15625 39.890625 26.703125 39.890625 
Q 22.75 39.890625 18.8125 39.015625 
Q 14.890625 38.140625 10.796875 36.28125 
z
" id="DejaVuSans-35"/>
     <path d="M 11.71875 12.40625 
L 22.015625 12.40625 
L 22.015625 0 
L 11.71875 0 
z
M 11.71875 51.703125 
L 22.015625 51.703125 
L 22.015625 39.3125 
L 11.71875 39.3125 
z
" id="DejaVuSans-3a"/>
    </defs>
    <g transform="translate(59.55864 46.712575)scale(0.102 -0.102)">
     <use xlink:href="#DejaVuSans-35"/>
     <use x="63.623047" xlink:href="#DejaVuSans-31"/>
     <use x="127.246094" xlink:href="#DejaVuSans-20"/>
     <use x="159.033203" xlink:href="#DejaVuSans-74"/>
     <use x="198.242188" xlink:href="#DejaVuSans-61"/>
     <use x="259.521484" xlink:href="#DejaVuSans-72"/>
     <use x="300.619141" xlink:href="#DejaVuSans-67"/>
     <use x="364.095703" xlink:href="#DejaVuSans-65"/>
     <use x="425.619141" xlink:href="#DejaVuSans-74"/>
     <use x="464.828125" xlink:href="#DejaVuSans-73"/>
     <use x="516.927734" xlink:href="#DejaVuSans-3a"/>
     <use x="550.619141" xlink:href="#DejaVuSans-20"/>
     <use x="582.40625" xlink:href="#DejaVuSans-31"/>
     <use x="646.029297" xlink:href="#DejaVuSans-30"/>
     <use x="709.652344" xlink:href="#DejaVuSans-30"/>
     <use x="773.275391" xlink:href="#DejaVuSans-2e"/>
     <use x="805.0625" xlink:href="#DejaVuSans-2e"/>
     <use x="836.849609" xlink:href="#DejaVuSans-31"/>
     <use x="900.472656" xlink:href="#DejaVuSans-65"/>
     <use x="961.996094" xlink:href="#DejaVuSans-2d"/>
     <use x="998.080078" xlink:href="#DejaVuSans-30"/>
     <use x="1061.703125" xlink:href="#DejaVuSans-38"/>
    </g>
    <!-- 15 instances -->
    <g transform="translate(59.55864 58.134344)scale(0.102 -0.102)">
     <use xlink:href="#DejaVuSans-31"/>
     <use x="63.623047" xlink:href="#DejaVuSans-35"/>
     <use x="127.246094" xlink:href="#DejaVuSans-20"/>
     <use x="159.033203" xlink:href="#DejaVuSans-69"/>
     <use x="186.816406" xlink:href="#DejaVuSans-6e"/>
     <use x="250.195312" xlink:href="#DejaVuSans-73"/>
     <use x="302.294922" xlink:href="#DejaVuSans-74"/>
     <use x="341.503906" xlink:href="#DejaVuSans-61"/>
     <use x="402.783203" xlink:href="#DejaVuSans-6e"/>
     <use x="466.162109" xlink:href="#DejaVuSans-63"/>
     <use x="521.142578" xlink:href="#DejaVuSans-65"/>
     <use x="582.666016" xlink:href="#DejaVuSans-73"/>
    </g>
   </g>
   <g id="text_22">
    <!-- v-coco-version -->
    <g style="fill:#808080;" transform="translate(191.556688 290.099912)scale(0.1 -0.1)">
     <use xlink:href="#DejaVuSans-76"/>
     <use x="59.148438" xlink:href="#DejaVuSans-2d"/>
     <use x="95.232422" xlink:href="#DejaVuSans-63"/>
     <use x="150.212891" xlink:href="#DejaVuSans-6f"/>
     <use x="211.394531" xlink:href="#DejaVuSans-63"/>
     <use x="266.375" xlink:href="#DejaVuSans-6f"/>
     <use x="327.572266" xlink:href="#DejaVuSans-2d"/>
     <use x="363.625" xlink:href="#DejaVuSans-76"/>
     <use x="422.804688" xlink:href="#DejaVuSans-65"/>
     <use x="484.328125" xlink:href="#DejaVuSans-72"/>
     <use x="525.441406" xlink:href="#DejaVuSans-73"/>
     <use x="577.541016" xlink:href="#DejaVuSans-69"/>
     <use x="605.324219" xlink:href="#DejaVuSans-6f"/>
     <use x="666.505859" xlink:href="#DejaVuSans-6e"/>
    </g>
   </g>
   <g id="text_23">
    <!-- 9 Rosenbrock rotated -->
    <defs>
     <path d="M 9.078125 75.984375 
L 18.109375 75.984375 
L 18.109375 31.109375 
L 44.921875 54.6875 
L 56.390625 54.6875 
L 27.390625 29.109375 
L 57.625 0 
L 45.90625 0 
L 18.109375 26.703125 
L 18.109375 0 
L 9.078125 0 
z
" id="DejaVuSans-6b"/>
    </defs>
    <g transform="translate(120.011375 18.84)scale(0.2 -0.2)">
     <use xlink:href="#DejaVuSans-39"/>
     <use x="63.623047" xlink:href="#DejaVuSans-20"/>
     <use x="95.410156" xlink:href="#DejaVuSans-52"/>
     <use x="164.830078" xlink:href="#DejaVuSans-6f"/>
     <use x="226.011719" xlink:href="#DejaVuSans-73"/>
     <use x="278.111328" xlink:href="#DejaVuSans-65"/>
     <use x="339.634766" xlink:href="#DejaVuSans-6e"/>
     <use x="403.013672" xlink:href="#DejaVuSans-62"/>
     <use x="466.490234" xlink:href="#DejaVuSans-72"/>
     <use x="507.572266" xlink:href="#DejaVuSans-6f"/>
     <use x="568.753906" xlink:href="#DejaVuSans-63"/>
     <use x="623.734375" xlink:href="#DejaVuSans-6b"/>
     <use x="681.644531" xlink:href="#DejaVuSans-20"/>
     <use x="713.431641" xlink:href="#DejaVuSans-72"/>
     <use x="754.513672" xlink:href="#DejaVuSans-6f"/>
     <use x="815.695312" xlink:href="#DejaVuSans-74"/>
     <use x="854.904297" xlink:href="#DejaVuSans-61"/>
     <use x="916.183594" xlink:href="#DejaVuSans-74"/>
     <use x="955.392578" xlink:href="#DejaVuSans-65"/>
     <use x="1016.916016" xlink:href="#DejaVuSans-64"/>
    </g>
   </g>
  </g>
 </g>
 <defs>
  <clipPath id="p95f608a1b0">
   <rect height="270.04" width="343.864" x="56.12" y="24.84"/>
  </clipPath>
 </defs>
</svg>
