<?xml version="1.0" encoding="utf-8" standalone="no"?>
<!DOCTYPE svg PUBLIC "-//W3C//DTD SVG 1.1//EN"
  "http://www.w3.org/Graphics/SVG/1.1/DTD/svg11.dtd">
<!-- Created with matplotlib (http://matplotlib.org/) -->
<svg height="345.6pt" version="1.1" viewBox="0 0 460.8 345.6" width="460.8pt" xmlns="http://www.w3.org/2000/svg" xmlns:xlink="http://www.w3.org/1999/xlink">
 <defs>
  <style type="text/css">
*{stroke-linecap:butt;stroke-linejoin:round;}
  </style>
 </defs>
 <g id="figure_1">
  <g id="patch_1">
   <path d="M 0 345.6 
L 460.8 345.6 
L 460.8 0 
L 0 0 
z
" style="fill:#ffffff;"/>
  </g>
  <g id="axes_1">
   <g id="patch_2">
    <path d="M 56.12 294.88 
L 399.984 294.88 
L 399.984 24.84 
L 56.12 24.84 
z
" style="fill:#ffffff;"/>
   </g>
   <g id="line2d_1">
    <path d="M -1 289.637523 
L 79.971009 289.637523 
L 79.971009 284.395046 
L 86.289391 284.395046 
L 86.289391 279.152568 
L 105.04126 279.152568 
L 105.04126 273.910091 
L 117.190692 273.910091 
L 117.190692 268.667614 
L 130.91036 268.667614 
L 130.91036 263.425137 
L 147.210042 263.425137 
L 147.210042 258.18266 
L 147.772864 258.18266 
L 147.772864 252.940182 
L 152.858715 252.940182 
L 152.858715 247.697705 
L 172.865127 247.697705 
L 172.865127 242.455228 
L 172.885527 242.455228 
L 172.885527 237.212751 
L 217.314791 237.212751 
L 217.314791 231.970274 
L 222.885193 231.970274 
L 222.885193 226.727797 
L 222.886281 226.727797 
L 222.886281 221.485319 
L 222.888298 221.485319 
L 222.888298 216.242842 
L 222.893314 216.242842 
L 222.893314 211.000365 
L 222.895914 211.000365 
L 222.895914 205.757888 
L 222.89931 205.757888 
L 222.89931 200.515411 
L 222.902784 200.515411 
L 222.902784 195.272933 
L 222.907398 195.272933 
L 222.907398 190.030456 
L 222.914661 190.030456 
L 222.914661 184.787979 
L 222.916278 184.787979 
L 222.916278 179.545502 
L 222.920278 179.545502 
L 222.920278 174.303025 
L 222.93029 174.303025 
L 222.93029 169.060547 
L 222.932276 169.060547 
L 222.932276 163.81807 
L 222.93614 163.81807 
L 222.93614 158.575593 
L 222.94564 158.575593 
L 222.94564 153.333116 
L 222.94773 153.333116 
L 222.94773 148.090639 
L 222.951538 148.090639 
L 222.951538 142.848162 
L 222.956139 142.848162 
L 222.956139 137.605684 
L 222.960395 137.605684 
L 222.960395 132.363207 
L 222.966156 132.363207 
L 222.966156 127.12073 
L 222.969643 127.12073 
L 222.969643 121.878253 
L 222.979098 121.878253 
L 222.979098 116.635776 
L 222.983454 116.635776 
L 222.983454 111.393298 
L 222.985724 111.393298 
L 222.985724 106.150821 
L 222.99815 106.150821 
L 222.99815 100.908344 
L 223.002211 100.908344 
L 223.002211 95.665867 
L 223.004004 95.665867 
L 223.004004 90.42339 
L 223.011806 90.42339 
L 223.011806 85.180912 
L 223.017181 85.180912 
L 223.017181 79.938435 
L 223.019473 79.938435 
L 223.019473 74.695958 
L 223.02632 74.695958 
L 223.02632 69.453481 
L 223.031085 69.453481 
L 223.031085 64.211004 
L 223.038164 64.211004 
L 223.038164 58.968526 
L 223.041874 58.968526 
L 223.041874 53.726049 
L 223.04482 53.726049 
L 223.04482 48.483572 
L 223.052945 48.483572 
L 223.052945 43.241095 
L 223.054864 43.241095 
L 223.054864 37.998618 
L 223.056914 37.998618 
L 223.056914 32.756141 
L 223.064036 32.756141 
L 223.064036 27.513663 
L 333.429677 27.513663 
" style="fill:none;stroke:#f5deb3;stroke-linecap:square;stroke-width:6;"/>
   </g>
   <g id="line2d_2">
    <defs>
     <path d="M -0 7.778175 
L 7.778175 0 
L 0 -7.778175 
L -7.778175 -0 
z
" id="mdbd7d606a4" style="stroke:#f5deb3;stroke-linejoin:miter;stroke-width:1.5;"/>
    </defs>
    <g>
     <use style="fill:#f5deb3;stroke:#f5deb3;stroke-linejoin:miter;stroke-width:1.5;" x="130.91036" xlink:href="#mdbd7d606a4" y="263.425137"/>
     <use style="fill:#f5deb3;stroke:#f5deb3;stroke-linejoin:miter;stroke-width:1.5;" x="222.886281" xlink:href="#mdbd7d606a4" y="226.727797"/>
     <use style="fill:#f5deb3;stroke:#f5deb3;stroke-linejoin:miter;stroke-width:1.5;" x="223.02632" xlink:href="#mdbd7d606a4" y="74.695958"/>
     <use style="fill:#f5deb3;stroke:#f5deb3;stroke-linejoin:miter;stroke-width:1.5;" x="223.064036" xlink:href="#mdbd7d606a4" y="27.513663"/>
     <use style="fill:#f5deb3;stroke:#f5deb3;stroke-linejoin:miter;stroke-width:1.5;" x="223.064036" xlink:href="#mdbd7d606a4" y="27.513663"/>
     <use style="fill:#f5deb3;stroke:#f5deb3;stroke-linejoin:miter;stroke-width:1.5;" x="333.429677" xlink:href="#mdbd7d606a4" y="27.513663"/>
    </g>
   </g>
   <g id="line2d_3">
    <path style="fill:none;stroke:#f5deb3;stroke-linecap:square;stroke-width:6;"/>
    <g/>
   </g>
   <g id="line2d_4">
    <path d="M 333.429677 27.513663 
L 363.933742 32.86099 
" style="fill:none;stroke:#f5deb3;stroke-linecap:square;stroke-width:6;"/>
    <g>
     <use style="fill:#f5deb3;stroke:#f5deb3;stroke-linejoin:miter;stroke-width:1.5;" x="333.429677" xlink:href="#mdbd7d606a4" y="27.513663"/>
     <use style="fill:#f5deb3;stroke:#f5deb3;stroke-linejoin:miter;stroke-width:1.5;" x="363.933742" xlink:href="#mdbd7d606a4" y="32.86099"/>
    </g>
   </g>
   <g id="matplotlib.axis_1">
    <g id="xtick_1">
     <g id="line2d_5">
      <path clip-path="url(#p39fe56da63)" d="M 56.12 294.88 
L 56.12 24.84 
" style="fill:none;stroke:#b0b0b0;stroke-linecap:square;stroke-width:0.8;"/>
     </g>
     <g id="line2d_6">
      <defs>
       <path d="M 0 0 
L 0 3.5 
" id="m84d222d19e" style="stroke:#000000;stroke-width:0.8;"/>
      </defs>
      <g>
       <use style="stroke:#000000;stroke-width:0.8;" x="56.12" xlink:href="#m84d222d19e" y="294.88"/>
      </g>
     </g>
     <g id="text_1">
      <!-- 0 -->
      <defs>
       <path d="M 31.78125 66.40625 
Q 24.171875 66.40625 20.328125 58.90625 
Q 16.5 51.421875 16.5 36.375 
Q 16.5 21.390625 20.328125 13.890625 
Q 24.171875 6.390625 31.78125 6.390625 
Q 39.453125 6.390625 43.28125 13.890625 
Q 47.125 21.390625 47.125 36.375 
Q 47.125 51.421875 43.28125 58.90625 
Q 39.453125 66.40625 31.78125 66.40625 
z
M 31.78125 74.21875 
Q 44.046875 74.21875 50.515625 64.515625 
Q 56.984375 54.828125 56.984375 36.375 
Q 56.984375 17.96875 50.515625 8.265625 
Q 44.046875 -1.421875 31.78125 -1.421875 
Q 19.53125 -1.421875 13.0625 8.265625 
Q 6.59375 17.96875 6.59375 36.375 
Q 6.59375 54.828125 13.0625 64.515625 
Q 19.53125 74.21875 31.78125 74.21875 
z
" id="DejaVuSans-30"/>
      </defs>
      <g transform="translate(49.7575 317.076875)scale(0.2 -0.2)">
       <use xlink:href="#DejaVuSans-30"/>
      </g>
     </g>
    </g>
    <g id="xtick_2">
     <g id="line2d_7">
      <path clip-path="url(#p39fe56da63)" d="M 135.351336 294.88 
L 135.351336 24.84 
" style="fill:none;stroke:#b0b0b0;stroke-linecap:square;stroke-width:0.8;"/>
     </g>
     <g id="line2d_8">
      <g>
       <use style="stroke:#000000;stroke-width:0.8;" x="135.351336" xlink:href="#m84d222d19e" y="294.88"/>
      </g>
     </g>
     <g id="text_2">
      <!-- 2 -->
      <defs>
       <path d="M 19.1875 8.296875 
L 53.609375 8.296875 
L 53.609375 0 
L 7.328125 0 
L 7.328125 8.296875 
Q 12.9375 14.109375 22.625 23.890625 
Q 32.328125 33.6875 34.8125 36.53125 
Q 39.546875 41.84375 41.421875 45.53125 
Q 43.3125 49.21875 43.3125 52.78125 
Q 43.3125 58.59375 39.234375 62.25 
Q 35.15625 65.921875 28.609375 65.921875 
Q 23.96875 65.921875 18.8125 64.3125 
Q 13.671875 62.703125 7.8125 59.421875 
L 7.8125 69.390625 
Q 13.765625 71.78125 18.9375 73 
Q 24.125 74.21875 28.421875 74.21875 
Q 39.75 74.21875 46.484375 68.546875 
Q 53.21875 62.890625 53.21875 53.421875 
Q 53.21875 48.921875 51.53125 44.890625 
Q 49.859375 40.875 45.40625 35.40625 
Q 44.1875 33.984375 37.640625 27.21875 
Q 31.109375 20.453125 19.1875 8.296875 
z
" id="DejaVuSans-32"/>
      </defs>
      <g transform="translate(128.988836 317.076875)scale(0.2 -0.2)">
       <use xlink:href="#DejaVuSans-32"/>
      </g>
     </g>
    </g>
    <g id="xtick_3">
     <g id="line2d_9">
      <path clip-path="url(#p39fe56da63)" d="M 214.582673 294.88 
L 214.582673 24.84 
" style="fill:none;stroke:#b0b0b0;stroke-linecap:square;stroke-width:0.8;"/>
     </g>
     <g id="line2d_10">
      <g>
       <use style="stroke:#000000;stroke-width:0.8;" x="214.582673" xlink:href="#m84d222d19e" y="294.88"/>
      </g>
     </g>
     <g id="text_3">
      <!-- 4 -->
      <defs>
       <path d="M 37.796875 64.3125 
L 12.890625 25.390625 
L 37.796875 25.390625 
z
M 35.203125 72.90625 
L 47.609375 72.90625 
L 47.609375 25.390625 
L 58.015625 25.390625 
L 58.015625 17.1875 
L 47.609375 17.1875 
L 47.609375 0 
L 37.796875 0 
L 37.796875 17.1875 
L 4.890625 17.1875 
L 4.890625 26.703125 
z
" id="DejaVuSans-34"/>
      </defs>
      <g transform="translate(208.220173 317.076875)scale(0.2 -0.2)">
       <use xlink:href="#DejaVuSans-34"/>
      </g>
     </g>
    </g>
    <g id="xtick_4">
     <g id="line2d_11">
      <path clip-path="url(#p39fe56da63)" d="M 293.814009 294.88 
L 293.814009 24.84 
" style="fill:none;stroke:#b0b0b0;stroke-linecap:square;stroke-width:0.8;"/>
     </g>
     <g id="line2d_12">
      <g>
       <use style="stroke:#000000;stroke-width:0.8;" x="293.814009" xlink:href="#m84d222d19e" y="294.88"/>
      </g>
     </g>
     <g id="text_4">
      <!-- 6 -->
      <defs>
       <path d="M 33.015625 40.375 
Q 26.375 40.375 22.484375 35.828125 
Q 18.609375 31.296875 18.609375 23.390625 
Q 18.609375 15.53125 22.484375 10.953125 
Q 26.375 6.390625 33.015625 6.390625 
Q 39.65625 6.390625 43.53125 10.953125 
Q 47.40625 15.53125 47.40625 23.390625 
Q 47.40625 31.296875 43.53125 35.828125 
Q 39.65625 40.375 33.015625 40.375 
z
M 52.59375 71.296875 
L 52.59375 62.3125 
Q 48.875 64.0625 45.09375 64.984375 
Q 41.3125 65.921875 37.59375 65.921875 
Q 27.828125 65.921875 22.671875 59.328125 
Q 17.53125 52.734375 16.796875 39.40625 
Q 19.671875 43.65625 24.015625 45.921875 
Q 28.375 48.1875 33.59375 48.1875 
Q 44.578125 48.1875 50.953125 41.515625 
Q 57.328125 34.859375 57.328125 23.390625 
Q 57.328125 12.15625 50.6875 5.359375 
Q 44.046875 -1.421875 33.015625 -1.421875 
Q 20.359375 -1.421875 13.671875 8.265625 
Q 6.984375 17.96875 6.984375 36.375 
Q 6.984375 53.65625 15.1875 63.9375 
Q 23.390625 74.21875 37.203125 74.21875 
Q 40.921875 74.21875 44.703125 73.484375 
Q 48.484375 72.75 52.59375 71.296875 
z
" id="DejaVuSans-36"/>
      </defs>
      <g transform="translate(287.451509 317.076875)scale(0.2 -0.2)">
       <use xlink:href="#DejaVuSans-36"/>
      </g>
     </g>
    </g>
    <g id="xtick_5">
     <g id="line2d_13">
      <path clip-path="url(#p39fe56da63)" d="M 373.045346 294.88 
L 373.045346 24.84 
" style="fill:none;stroke:#b0b0b0;stroke-linecap:square;stroke-width:0.8;"/>
     </g>
     <g id="line2d_14">
      <g>
       <use style="stroke:#000000;stroke-width:0.8;" x="373.045346" xlink:href="#m84d222d19e" y="294.88"/>
      </g>
     </g>
     <g id="text_5">
      <!-- 8 -->
      <defs>
       <path d="M 31.78125 34.625 
Q 24.75 34.625 20.71875 30.859375 
Q 16.703125 27.09375 16.703125 20.515625 
Q 16.703125 13.921875 20.71875 10.15625 
Q 24.75 6.390625 31.78125 6.390625 
Q 38.8125 6.390625 42.859375 10.171875 
Q 46.921875 13.96875 46.921875 20.515625 
Q 46.921875 27.09375 42.890625 30.859375 
Q 38.875 34.625 31.78125 34.625 
z
M 21.921875 38.8125 
Q 15.578125 40.375 12.03125 44.71875 
Q 8.5 49.078125 8.5 55.328125 
Q 8.5 64.0625 14.71875 69.140625 
Q 20.953125 74.21875 31.78125 74.21875 
Q 42.671875 74.21875 48.875 69.140625 
Q 55.078125 64.0625 55.078125 55.328125 
Q 55.078125 49.078125 51.53125 44.71875 
Q 48 40.375 41.703125 38.8125 
Q 48.828125 37.15625 52.796875 32.3125 
Q 56.78125 27.484375 56.78125 20.515625 
Q 56.78125 9.90625 50.3125 4.234375 
Q 43.84375 -1.421875 31.78125 -1.421875 
Q 19.734375 -1.421875 13.25 4.234375 
Q 6.78125 9.90625 6.78125 20.515625 
Q 6.78125 27.484375 10.78125 32.3125 
Q 14.796875 37.15625 21.921875 38.8125 
z
M 18.3125 54.390625 
Q 18.3125 48.734375 21.84375 45.5625 
Q 25.390625 42.390625 31.78125 42.390625 
Q 38.140625 42.390625 41.71875 45.5625 
Q 45.3125 48.734375 45.3125 54.390625 
Q 45.3125 60.0625 41.71875 63.234375 
Q 38.140625 66.40625 31.78125 66.40625 
Q 25.390625 66.40625 21.84375 63.234375 
Q 18.3125 60.0625 18.3125 54.390625 
z
" id="DejaVuSans-38"/>
      </defs>
      <g transform="translate(366.682846 317.076875)scale(0.2 -0.2)">
       <use xlink:href="#DejaVuSans-38"/>
      </g>
     </g>
    </g>
    <g id="text_6">
     <!-- log10(# f-evals / dimension) -->
     <defs>
      <path d="M 9.421875 75.984375 
L 18.40625 75.984375 
L 18.40625 0 
L 9.421875 0 
z
" id="DejaVuSans-6c"/>
      <path d="M 30.609375 48.390625 
Q 23.390625 48.390625 19.1875 42.75 
Q 14.984375 37.109375 14.984375 27.296875 
Q 14.984375 17.484375 19.15625 11.84375 
Q 23.34375 6.203125 30.609375 6.203125 
Q 37.796875 6.203125 41.984375 11.859375 
Q 46.1875 17.53125 46.1875 27.296875 
Q 46.1875 37.015625 41.984375 42.703125 
Q 37.796875 48.390625 30.609375 48.390625 
z
M 30.609375 56 
Q 42.328125 56 49.015625 48.375 
Q 55.71875 40.765625 55.71875 27.296875 
Q 55.71875 13.875 49.015625 6.21875 
Q 42.328125 -1.421875 30.609375 -1.421875 
Q 18.84375 -1.421875 12.171875 6.21875 
Q 5.515625 13.875 5.515625 27.296875 
Q 5.515625 40.765625 12.171875 48.375 
Q 18.84375 56 30.609375 56 
z
" id="DejaVuSans-6f"/>
      <path d="M 45.40625 27.984375 
Q 45.40625 37.75 41.375 43.109375 
Q 37.359375 48.484375 30.078125 48.484375 
Q 22.859375 48.484375 18.828125 43.109375 
Q 14.796875 37.75 14.796875 27.984375 
Q 14.796875 18.265625 18.828125 12.890625 
Q 22.859375 7.515625 30.078125 7.515625 
Q 37.359375 7.515625 41.375 12.890625 
Q 45.40625 18.265625 45.40625 27.984375 
z
M 54.390625 6.78125 
Q 54.390625 -7.171875 48.1875 -13.984375 
Q 42 -20.796875 29.203125 -20.796875 
Q 24.46875 -20.796875 20.265625 -20.09375 
Q 16.0625 -19.390625 12.109375 -17.921875 
L 12.109375 -9.1875 
Q 16.0625 -11.328125 19.921875 -12.34375 
Q 23.78125 -13.375 27.78125 -13.375 
Q 36.625 -13.375 41.015625 -8.765625 
Q 45.40625 -4.15625 45.40625 5.171875 
L 45.40625 9.625 
Q 42.625 4.78125 38.28125 2.390625 
Q 33.9375 0 27.875 0 
Q 17.828125 0 11.671875 7.65625 
Q 5.515625 15.328125 5.515625 27.984375 
Q 5.515625 40.671875 11.671875 48.328125 
Q 17.828125 56 27.875 56 
Q 33.9375 56 38.28125 53.609375 
Q 42.625 51.21875 45.40625 46.390625 
L 45.40625 54.6875 
L 54.390625 54.6875 
z
" id="DejaVuSans-67"/>
      <path d="M 12.40625 8.296875 
L 28.515625 8.296875 
L 28.515625 63.921875 
L 10.984375 60.40625 
L 10.984375 69.390625 
L 28.421875 72.90625 
L 38.28125 72.90625 
L 38.28125 8.296875 
L 54.390625 8.296875 
L 54.390625 0 
L 12.40625 0 
z
" id="DejaVuSans-31"/>
      <path d="M 31 75.875 
Q 24.46875 64.65625 21.28125 53.65625 
Q 18.109375 42.671875 18.109375 31.390625 
Q 18.109375 20.125 21.3125 9.0625 
Q 24.515625 -2 31 -13.1875 
L 23.1875 -13.1875 
Q 15.875 -1.703125 12.234375 9.375 
Q 8.59375 20.453125 8.59375 31.390625 
Q 8.59375 42.28125 12.203125 53.3125 
Q 15.828125 64.359375 23.1875 75.875 
z
" id="DejaVuSans-28"/>
      <path d="M 51.125 44 
L 36.921875 44 
L 32.8125 27.6875 
L 47.125 27.6875 
z
M 43.796875 71.78125 
L 38.71875 51.515625 
L 52.984375 51.515625 
L 58.109375 71.78125 
L 65.921875 71.78125 
L 60.890625 51.515625 
L 76.125 51.515625 
L 76.125 44 
L 58.984375 44 
L 54.984375 27.6875 
L 70.515625 27.6875 
L 70.515625 20.21875 
L 53.078125 20.21875 
L 48 0 
L 40.1875 0 
L 45.21875 20.21875 
L 30.90625 20.21875 
L 25.875 0 
L 18.015625 0 
L 23.09375 20.21875 
L 7.71875 20.21875 
L 7.71875 27.6875 
L 24.90625 27.6875 
L 29 44 
L 13.28125 44 
L 13.28125 51.515625 
L 30.90625 51.515625 
L 35.890625 71.78125 
z
" id="DejaVuSans-23"/>
      <path id="DejaVuSans-20"/>
      <path d="M 37.109375 75.984375 
L 37.109375 68.5 
L 28.515625 68.5 
Q 23.6875 68.5 21.796875 66.546875 
Q 19.921875 64.59375 19.921875 59.515625 
L 19.921875 54.6875 
L 34.71875 54.6875 
L 34.71875 47.703125 
L 19.921875 47.703125 
L 19.921875 0 
L 10.890625 0 
L 10.890625 47.703125 
L 2.296875 47.703125 
L 2.296875 54.6875 
L 10.890625 54.6875 
L 10.890625 58.5 
Q 10.890625 67.625 15.140625 71.796875 
Q 19.390625 75.984375 28.609375 75.984375 
z
" id="DejaVuSans-66"/>
      <path d="M 4.890625 31.390625 
L 31.203125 31.390625 
L 31.203125 23.390625 
L 4.890625 23.390625 
z
" id="DejaVuSans-2d"/>
      <path d="M 56.203125 29.59375 
L 56.203125 25.203125 
L 14.890625 25.203125 
Q 15.484375 15.921875 20.484375 11.0625 
Q 25.484375 6.203125 34.421875 6.203125 
Q 39.59375 6.203125 44.453125 7.46875 
Q 49.3125 8.734375 54.109375 11.28125 
L 54.109375 2.78125 
Q 49.265625 0.734375 44.1875 -0.34375 
Q 39.109375 -1.421875 33.890625 -1.421875 
Q 20.796875 -1.421875 13.15625 6.1875 
Q 5.515625 13.8125 5.515625 26.8125 
Q 5.515625 40.234375 12.765625 48.109375 
Q 20.015625 56 32.328125 56 
Q 43.359375 56 49.78125 48.890625 
Q 56.203125 41.796875 56.203125 29.59375 
z
M 47.21875 32.234375 
Q 47.125 39.59375 43.09375 43.984375 
Q 39.0625 48.390625 32.421875 48.390625 
Q 24.90625 48.390625 20.390625 44.140625 
Q 15.875 39.890625 15.1875 32.171875 
z
" id="DejaVuSans-65"/>
      <path d="M 2.984375 54.6875 
L 12.5 54.6875 
L 29.59375 8.796875 
L 46.6875 54.6875 
L 56.203125 54.6875 
L 35.6875 0 
L 23.484375 0 
z
" id="DejaVuSans-76"/>
      <path d="M 34.28125 27.484375 
Q 23.390625 27.484375 19.1875 25 
Q 14.984375 22.515625 14.984375 16.5 
Q 14.984375 11.71875 18.140625 8.90625 
Q 21.296875 6.109375 26.703125 6.109375 
Q 34.1875 6.109375 38.703125 11.40625 
Q 43.21875 16.703125 43.21875 25.484375 
L 43.21875 27.484375 
z
M 52.203125 31.203125 
L 52.203125 0 
L 43.21875 0 
L 43.21875 8.296875 
Q 40.140625 3.328125 35.546875 0.953125 
Q 30.953125 -1.421875 24.3125 -1.421875 
Q 15.921875 -1.421875 10.953125 3.296875 
Q 6 8.015625 6 15.921875 
Q 6 25.140625 12.171875 29.828125 
Q 18.359375 34.515625 30.609375 34.515625 
L 43.21875 34.515625 
L 43.21875 35.40625 
Q 43.21875 41.609375 39.140625 45 
Q 35.0625 48.390625 27.6875 48.390625 
Q 23 48.390625 18.546875 47.265625 
Q 14.109375 46.140625 10.015625 43.890625 
L 10.015625 52.203125 
Q 14.9375 54.109375 19.578125 55.046875 
Q 24.21875 56 28.609375 56 
Q 40.484375 56 46.34375 49.84375 
Q 52.203125 43.703125 52.203125 31.203125 
z
" id="DejaVuSans-61"/>
      <path d="M 44.28125 53.078125 
L 44.28125 44.578125 
Q 40.484375 46.53125 36.375 47.5 
Q 32.28125 48.484375 27.875 48.484375 
Q 21.1875 48.484375 17.84375 46.4375 
Q 14.5 44.390625 14.5 40.28125 
Q 14.5 37.15625 16.890625 35.375 
Q 19.28125 33.59375 26.515625 31.984375 
L 29.59375 31.296875 
Q 39.15625 29.25 43.1875 25.515625 
Q 47.21875 21.78125 47.21875 15.09375 
Q 47.21875 7.46875 41.1875 3.015625 
Q 35.15625 -1.421875 24.609375 -1.421875 
Q 20.21875 -1.421875 15.453125 -0.5625 
Q 10.6875 0.296875 5.421875 2 
L 5.421875 11.28125 
Q 10.40625 8.6875 15.234375 7.390625 
Q 20.0625 6.109375 24.8125 6.109375 
Q 31.15625 6.109375 34.5625 8.28125 
Q 37.984375 10.453125 37.984375 14.40625 
Q 37.984375 18.0625 35.515625 20.015625 
Q 33.0625 21.96875 24.703125 23.78125 
L 21.578125 24.515625 
Q 13.234375 26.265625 9.515625 29.90625 
Q 5.8125 33.546875 5.8125 39.890625 
Q 5.8125 47.609375 11.28125 51.796875 
Q 16.75 56 26.8125 56 
Q 31.78125 56 36.171875 55.265625 
Q 40.578125 54.546875 44.28125 53.078125 
z
" id="DejaVuSans-73"/>
      <path d="M 25.390625 72.90625 
L 33.6875 72.90625 
L 8.296875 -9.28125 
L 0 -9.28125 
z
" id="DejaVuSans-2f"/>
      <path d="M 45.40625 46.390625 
L 45.40625 75.984375 
L 54.390625 75.984375 
L 54.390625 0 
L 45.40625 0 
L 45.40625 8.203125 
Q 42.578125 3.328125 38.25 0.953125 
Q 33.9375 -1.421875 27.875 -1.421875 
Q 17.96875 -1.421875 11.734375 6.484375 
Q 5.515625 14.40625 5.515625 27.296875 
Q 5.515625 40.1875 11.734375 48.09375 
Q 17.96875 56 27.875 56 
Q 33.9375 56 38.25 53.625 
Q 42.578125 51.265625 45.40625 46.390625 
z
M 14.796875 27.296875 
Q 14.796875 17.390625 18.875 11.75 
Q 22.953125 6.109375 30.078125 6.109375 
Q 37.203125 6.109375 41.296875 11.75 
Q 45.40625 17.390625 45.40625 27.296875 
Q 45.40625 37.203125 41.296875 42.84375 
Q 37.203125 48.484375 30.078125 48.484375 
Q 22.953125 48.484375 18.875 42.84375 
Q 14.796875 37.203125 14.796875 27.296875 
z
" id="DejaVuSans-64"/>
      <path d="M 9.421875 54.6875 
L 18.40625 54.6875 
L 18.40625 0 
L 9.421875 0 
z
M 9.421875 75.984375 
L 18.40625 75.984375 
L 18.40625 64.59375 
L 9.421875 64.59375 
z
" id="DejaVuSans-69"/>
      <path d="M 52 44.1875 
Q 55.375 50.25 60.0625 53.125 
Q 64.75 56 71.09375 56 
Q 79.640625 56 84.28125 50.015625 
Q 88.921875 44.046875 88.921875 33.015625 
L 88.921875 0 
L 79.890625 0 
L 79.890625 32.71875 
Q 79.890625 40.578125 77.09375 44.375 
Q 74.3125 48.1875 68.609375 48.1875 
Q 61.625 48.1875 57.5625 43.546875 
Q 53.515625 38.921875 53.515625 30.90625 
L 53.515625 0 
L 44.484375 0 
L 44.484375 32.71875 
Q 44.484375 40.625 41.703125 44.40625 
Q 38.921875 48.1875 33.109375 48.1875 
Q 26.21875 48.1875 22.15625 43.53125 
Q 18.109375 38.875 18.109375 30.90625 
L 18.109375 0 
L 9.078125 0 
L 9.078125 54.6875 
L 18.109375 54.6875 
L 18.109375 46.1875 
Q 21.1875 51.21875 25.484375 53.609375 
Q 29.78125 56 35.6875 56 
Q 41.65625 56 45.828125 52.96875 
Q 50 49.953125 52 44.1875 
z
" id="DejaVuSans-6d"/>
      <path d="M 54.890625 33.015625 
L 54.890625 0 
L 45.90625 0 
L 45.90625 32.71875 
Q 45.90625 40.484375 42.875 44.328125 
Q 39.84375 48.1875 33.796875 48.1875 
Q 26.515625 48.1875 22.3125 43.546875 
Q 18.109375 38.921875 18.109375 30.90625 
L 18.109375 0 
L 9.078125 0 
L 9.078125 54.6875 
L 18.109375 54.6875 
L 18.109375 46.1875 
Q 21.34375 51.125 25.703125 53.5625 
Q 30.078125 56 35.796875 56 
Q 45.21875 56 50.046875 50.171875 
Q 54.890625 44.34375 54.890625 33.015625 
z
" id="DejaVuSans-6e"/>
      <path d="M 8.015625 75.875 
L 15.828125 75.875 
Q 23.140625 64.359375 26.78125 53.3125 
Q 30.421875 42.28125 30.421875 31.390625 
Q 30.421875 20.453125 26.78125 9.375 
Q 23.140625 -1.703125 15.828125 -13.1875 
L 8.015625 -13.1875 
Q 14.5 -2 17.703125 9.0625 
Q 20.90625 20.125 20.90625 31.390625 
Q 20.90625 42.671875 17.703125 53.65625 
Q 14.5 64.65625 8.015625 75.875 
z
" id="DejaVuSans-29"/>
     </defs>
     <g transform="translate(107.211219 338.153594)scale(0.17 -0.17)">
      <use xlink:href="#DejaVuSans-6c"/>
      <use x="27.783203" xlink:href="#DejaVuSans-6f"/>
      <use x="88.964844" xlink:href="#DejaVuSans-67"/>
      <use x="152.441406" xlink:href="#DejaVuSans-31"/>
      <use x="216.064453" xlink:href="#DejaVuSans-30"/>
      <use x="279.6875" xlink:href="#DejaVuSans-28"/>
      <use x="318.701172" xlink:href="#DejaVuSans-23"/>
      <use x="402.490234" xlink:href="#DejaVuSans-20"/>
      <use x="434.277344" xlink:href="#DejaVuSans-66"/>
      <use x="469.404297" xlink:href="#DejaVuSans-2d"/>
      <use x="505.488281" xlink:href="#DejaVuSans-65"/>
      <use x="567.011719" xlink:href="#DejaVuSans-76"/>
      <use x="626.191406" xlink:href="#DejaVuSans-61"/>
      <use x="687.470703" xlink:href="#DejaVuSans-6c"/>
      <use x="715.253906" xlink:href="#DejaVuSans-73"/>
      <use x="767.353516" xlink:href="#DejaVuSans-20"/>
      <use x="799.140625" xlink:href="#DejaVuSans-2f"/>
      <use x="832.832031" xlink:href="#DejaVuSans-20"/>
      <use x="864.619141" xlink:href="#DejaVuSans-64"/>
      <use x="928.095703" xlink:href="#DejaVuSans-69"/>
      <use x="955.878906" xlink:href="#DejaVuSans-6d"/>
      <use x="1053.291016" xlink:href="#DejaVuSans-65"/>
      <use x="1114.814453" xlink:href="#DejaVuSans-6e"/>
      <use x="1178.193359" xlink:href="#DejaVuSans-73"/>
      <use x="1230.292969" xlink:href="#DejaVuSans-69"/>
      <use x="1258.076172" xlink:href="#DejaVuSans-6f"/>
      <use x="1319.257812" xlink:href="#DejaVuSans-6e"/>
      <use x="1382.636719" xlink:href="#DejaVuSans-29"/>
     </g>
    </g>
   </g>
   <g id="matplotlib.axis_2">
    <g id="ytick_1">
     <g id="line2d_15">
      <path clip-path="url(#p39fe56da63)" d="M 56.12 294.88 
L 399.984 294.88 
" style="fill:none;stroke:#b0b0b0;stroke-linecap:square;stroke-width:0.8;"/>
     </g>
     <g id="line2d_16">
      <defs>
       <path d="M 0 0 
L -3.5 0 
" id="m4aaa9cd17a" style="stroke:#000000;stroke-width:0.8;"/>
      </defs>
      <g>
       <use style="stroke:#000000;stroke-width:0.8;" x="56.12" xlink:href="#m4aaa9cd17a" y="294.88"/>
      </g>
     </g>
     <g id="text_7">
      <!-- 0.0 -->
      <defs>
       <path d="M 10.6875 12.40625 
L 21 12.40625 
L 21 0 
L 10.6875 0 
z
" id="DejaVuSans-2e"/>
      </defs>
      <g transform="translate(23.675 300.95875)scale(0.16 -0.16)">
       <use xlink:href="#DejaVuSans-30"/>
       <use x="63.623047" xlink:href="#DejaVuSans-2e"/>
       <use x="95.410156" xlink:href="#DejaVuSans-30"/>
      </g>
     </g>
    </g>
    <g id="ytick_2">
     <g id="line2d_17">
      <path clip-path="url(#p39fe56da63)" d="M 56.12 241.406733 
L 399.984 241.406733 
" style="fill:none;stroke:#b0b0b0;stroke-linecap:square;stroke-width:0.8;"/>
     </g>
     <g id="line2d_18">
      <g>
       <use style="stroke:#000000;stroke-width:0.8;" x="56.12" xlink:href="#m4aaa9cd17a" y="241.406733"/>
      </g>
     </g>
     <g id="text_8">
      <!-- 0.2 -->
      <g transform="translate(23.675 247.485483)scale(0.16 -0.16)">
       <use xlink:href="#DejaVuSans-30"/>
       <use x="63.623047" xlink:href="#DejaVuSans-2e"/>
       <use x="95.410156" xlink:href="#DejaVuSans-32"/>
      </g>
     </g>
    </g>
    <g id="ytick_3">
     <g id="line2d_19">
      <path clip-path="url(#p39fe56da63)" d="M 56.12 187.933465 
L 399.984 187.933465 
" style="fill:none;stroke:#b0b0b0;stroke-linecap:square;stroke-width:0.8;"/>
     </g>
     <g id="line2d_20">
      <g>
       <use style="stroke:#000000;stroke-width:0.8;" x="56.12" xlink:href="#m4aaa9cd17a" y="187.933465"/>
      </g>
     </g>
     <g id="text_9">
      <!-- 0.4 -->
      <g transform="translate(23.675 194.012215)scale(0.16 -0.16)">
       <use xlink:href="#DejaVuSans-30"/>
       <use x="63.623047" xlink:href="#DejaVuSans-2e"/>
       <use x="95.410156" xlink:href="#DejaVuSans-34"/>
      </g>
     </g>
    </g>
    <g id="ytick_4">
     <g id="line2d_21">
      <path clip-path="url(#p39fe56da63)" d="M 56.12 134.460198 
L 399.984 134.460198 
" style="fill:none;stroke:#b0b0b0;stroke-linecap:square;stroke-width:0.8;"/>
     </g>
     <g id="line2d_22">
      <g>
       <use style="stroke:#000000;stroke-width:0.8;" x="56.12" xlink:href="#m4aaa9cd17a" y="134.460198"/>
      </g>
     </g>
     <g id="text_10">
      <!-- 0.6 -->
      <g transform="translate(23.675 140.538948)scale(0.16 -0.16)">
       <use xlink:href="#DejaVuSans-30"/>
       <use x="63.623047" xlink:href="#DejaVuSans-2e"/>
       <use x="95.410156" xlink:href="#DejaVuSans-36"/>
      </g>
     </g>
    </g>
    <g id="ytick_5">
     <g id="line2d_23">
      <path clip-path="url(#p39fe56da63)" d="M 56.12 80.986931 
L 399.984 80.986931 
" style="fill:none;stroke:#b0b0b0;stroke-linecap:square;stroke-width:0.8;"/>
     </g>
     <g id="line2d_24">
      <g>
       <use style="stroke:#000000;stroke-width:0.8;" x="56.12" xlink:href="#m4aaa9cd17a" y="80.986931"/>
      </g>
     </g>
     <g id="text_11">
      <!-- 0.8 -->
      <g transform="translate(23.675 87.065681)scale(0.16 -0.16)">
       <use xlink:href="#DejaVuSans-30"/>
       <use x="63.623047" xlink:href="#DejaVuSans-2e"/>
       <use x="95.410156" xlink:href="#DejaVuSans-38"/>
      </g>
     </g>
    </g>
    <g id="ytick_6">
     <g id="line2d_25">
      <path clip-path="url(#p39fe56da63)" d="M 56.12 27.513663 
L 399.984 27.513663 
" style="fill:none;stroke:#b0b0b0;stroke-linecap:square;stroke-width:0.8;"/>
     </g>
     <g id="line2d_26">
      <g>
       <use style="stroke:#000000;stroke-width:0.8;" x="56.12" xlink:href="#m4aaa9cd17a" y="27.513663"/>
      </g>
     </g>
     <g id="text_12">
      <!-- 1.0 -->
      <g transform="translate(23.675 33.592413)scale(0.16 -0.16)">
       <use xlink:href="#DejaVuSans-31"/>
       <use x="63.623047" xlink:href="#DejaVuSans-2e"/>
       <use x="95.410156" xlink:href="#DejaVuSans-30"/>
      </g>
     </g>
    </g>
    <g id="text_13">
     <!-- Fraction of function,target pairs -->
     <defs>
      <path d="M 9.8125 72.90625 
L 51.703125 72.90625 
L 51.703125 64.59375 
L 19.671875 64.59375 
L 19.671875 43.109375 
L 48.578125 43.109375 
L 48.578125 34.8125 
L 19.671875 34.8125 
L 19.671875 0 
L 9.8125 0 
z
" id="DejaVuSans-46"/>
      <path d="M 41.109375 46.296875 
Q 39.59375 47.171875 37.8125 47.578125 
Q 36.03125 48 33.890625 48 
Q 26.265625 48 22.1875 43.046875 
Q 18.109375 38.09375 18.109375 28.8125 
L 18.109375 0 
L 9.078125 0 
L 9.078125 54.6875 
L 18.109375 54.6875 
L 18.109375 46.1875 
Q 20.953125 51.171875 25.484375 53.578125 
Q 30.03125 56 36.53125 56 
Q 37.453125 56 38.578125 55.875 
Q 39.703125 55.765625 41.0625 55.515625 
z
" id="DejaVuSans-72"/>
      <path d="M 48.78125 52.59375 
L 48.78125 44.1875 
Q 44.96875 46.296875 41.140625 47.34375 
Q 37.3125 48.390625 33.40625 48.390625 
Q 24.65625 48.390625 19.8125 42.84375 
Q 14.984375 37.3125 14.984375 27.296875 
Q 14.984375 17.28125 19.8125 11.734375 
Q 24.65625 6.203125 33.40625 6.203125 
Q 37.3125 6.203125 41.140625 7.25 
Q 44.96875 8.296875 48.78125 10.40625 
L 48.78125 2.09375 
Q 45.015625 0.34375 40.984375 -0.53125 
Q 36.96875 -1.421875 32.421875 -1.421875 
Q 20.0625 -1.421875 12.78125 6.34375 
Q 5.515625 14.109375 5.515625 27.296875 
Q 5.515625 40.671875 12.859375 48.328125 
Q 20.21875 56 33.015625 56 
Q 37.15625 56 41.109375 55.140625 
Q 45.0625 54.296875 48.78125 52.59375 
z
" id="DejaVuSans-63"/>
      <path d="M 18.3125 70.21875 
L 18.3125 54.6875 
L 36.8125 54.6875 
L 36.8125 47.703125 
L 18.3125 47.703125 
L 18.3125 18.015625 
Q 18.3125 11.328125 20.140625 9.421875 
Q 21.96875 7.515625 27.59375 7.515625 
L 36.8125 7.515625 
L 36.8125 0 
L 27.59375 0 
Q 17.1875 0 13.234375 3.875 
Q 9.28125 7.765625 9.28125 18.015625 
L 9.28125 47.703125 
L 2.6875 47.703125 
L 2.6875 54.6875 
L 9.28125 54.6875 
L 9.28125 70.21875 
z
" id="DejaVuSans-74"/>
      <path d="M 8.5 21.578125 
L 8.5 54.6875 
L 17.484375 54.6875 
L 17.484375 21.921875 
Q 17.484375 14.15625 20.5 10.265625 
Q 23.53125 6.390625 29.59375 6.390625 
Q 36.859375 6.390625 41.078125 11.03125 
Q 45.3125 15.671875 45.3125 23.6875 
L 45.3125 54.6875 
L 54.296875 54.6875 
L 54.296875 0 
L 45.3125 0 
L 45.3125 8.40625 
Q 42.046875 3.421875 37.71875 1 
Q 33.40625 -1.421875 27.6875 -1.421875 
Q 18.265625 -1.421875 13.375 4.4375 
Q 8.5 10.296875 8.5 21.578125 
z
M 31.109375 56 
z
" id="DejaVuSans-75"/>
      <path d="M 11.71875 12.40625 
L 22.015625 12.40625 
L 22.015625 4 
L 14.015625 -11.625 
L 7.71875 -11.625 
L 11.71875 4 
z
" id="DejaVuSans-2c"/>
      <path d="M 18.109375 8.203125 
L 18.109375 -20.796875 
L 9.078125 -20.796875 
L 9.078125 54.6875 
L 18.109375 54.6875 
L 18.109375 46.390625 
Q 20.953125 51.265625 25.265625 53.625 
Q 29.59375 56 35.59375 56 
Q 45.5625 56 51.78125 48.09375 
Q 58.015625 40.1875 58.015625 27.296875 
Q 58.015625 14.40625 51.78125 6.484375 
Q 45.5625 -1.421875 35.59375 -1.421875 
Q 29.59375 -1.421875 25.265625 0.953125 
Q 20.953125 3.328125 18.109375 8.203125 
z
M 48.6875 27.296875 
Q 48.6875 37.203125 44.609375 42.84375 
Q 40.53125 48.484375 33.40625 48.484375 
Q 26.265625 48.484375 22.1875 42.84375 
Q 18.109375 37.203125 18.109375 27.296875 
Q 18.109375 17.390625 22.1875 11.75 
Q 26.265625 6.109375 33.40625 6.109375 
Q 40.53125 6.109375 44.609375 11.75 
Q 48.6875 17.390625 48.6875 27.296875 
z
" id="DejaVuSans-70"/>
     </defs>
     <g transform="translate(16.139531 294.999375)rotate(-90)scale(0.17 -0.17)">
      <use xlink:href="#DejaVuSans-46"/>
      <use x="57.410156" xlink:href="#DejaVuSans-72"/>
      <use x="98.523438" xlink:href="#DejaVuSans-61"/>
      <use x="159.802734" xlink:href="#DejaVuSans-63"/>
      <use x="214.783203" xlink:href="#DejaVuSans-74"/>
      <use x="253.992188" xlink:href="#DejaVuSans-69"/>
      <use x="281.775391" xlink:href="#DejaVuSans-6f"/>
      <use x="342.957031" xlink:href="#DejaVuSans-6e"/>
      <use x="406.335938" xlink:href="#DejaVuSans-20"/>
      <use x="438.123047" xlink:href="#DejaVuSans-6f"/>
      <use x="499.304688" xlink:href="#DejaVuSans-66"/>
      <use x="534.509766" xlink:href="#DejaVuSans-20"/>
      <use x="566.296875" xlink:href="#DejaVuSans-66"/>
      <use x="601.501953" xlink:href="#DejaVuSans-75"/>
      <use x="664.880859" xlink:href="#DejaVuSans-6e"/>
      <use x="728.259766" xlink:href="#DejaVuSans-63"/>
      <use x="783.240234" xlink:href="#DejaVuSans-74"/>
      <use x="822.449219" xlink:href="#DejaVuSans-69"/>
      <use x="850.232422" xlink:href="#DejaVuSans-6f"/>
      <use x="911.414062" xlink:href="#DejaVuSans-6e"/>
      <use x="974.792969" xlink:href="#DejaVuSans-2c"/>
      <use x="1006.580078" xlink:href="#DejaVuSans-74"/>
      <use x="1045.789062" xlink:href="#DejaVuSans-61"/>
      <use x="1107.068359" xlink:href="#DejaVuSans-72"/>
      <use x="1148.166016" xlink:href="#DejaVuSans-67"/>
      <use x="1211.642578" xlink:href="#DejaVuSans-65"/>
      <use x="1273.166016" xlink:href="#DejaVuSans-74"/>
      <use x="1312.375" xlink:href="#DejaVuSans-20"/>
      <use x="1344.162109" xlink:href="#DejaVuSans-70"/>
      <use x="1407.638672" xlink:href="#DejaVuSans-61"/>
      <use x="1468.917969" xlink:href="#DejaVuSans-69"/>
      <use x="1496.701172" xlink:href="#DejaVuSans-72"/>
      <use x="1537.814453" xlink:href="#DejaVuSans-73"/>
     </g>
    </g>
   </g>
   <g id="line2d_27">
    <defs>
     <path d="M 0 1.5 
C 0.397805 1.5 0.77937 1.341951 1.06066 1.06066 
C 1.341951 0.77937 1.5 0.397805 1.5 0 
C 1.5 -0.397805 1.341951 -0.77937 1.06066 -1.06066 
C 0.77937 -1.341951 0.397805 -1.5 0 -1.5 
C -0.397805 -1.5 -0.77937 -1.341951 -1.06066 -1.06066 
C -1.341951 -0.77937 -1.5 -0.397805 -1.5 0 
C -1.5 0.397805 -1.341951 0.77937 -1.06066 1.06066 
C -0.77937 1.341951 -0.397805 1.5 0 1.5 
z
" id="m976f552954" style="stroke:#f5deb3;"/>
    </defs>
    <g>
     <use style="fill:#f5deb3;stroke:#f5deb3;" x="223.064036" xlink:href="#m976f552954" y="27.513663"/>
     <use style="fill:#f5deb3;stroke:#f5deb3;" x="223.064036" xlink:href="#m976f552954" y="27.513663"/>
    </g>
   </g>
   <g id="line2d_28">
    <defs>
     <path d="M 0 1.5 
C 0.397805 1.5 0.77937 1.341951 1.06066 1.06066 
C 1.341951 0.77937 1.5 0.397805 1.5 0 
C 1.5 -0.397805 1.341951 -0.77937 1.06066 -1.06066 
C 0.77937 -1.341951 0.397805 -1.5 0 -1.5 
C -0.397805 -1.5 -0.77937 -1.341951 -1.06066 -1.06066 
C -1.341951 -0.77937 -1.5 -0.397805 -1.5 0 
C -1.5 0.397805 -1.341951 0.77937 -1.06066 1.06066 
C -0.77937 1.341951 -0.397805 1.5 0 1.5 
z
" id="m58b5b0cf4d" style="stroke:#000080;"/>
    </defs>
    <g>
     <use style="fill:#000080;stroke:#000080;" x="324.207859" xlink:href="#m58b5b0cf4d" y="163.81807"/>
     <use style="fill:#000080;stroke:#000080;" x="324.207859" xlink:href="#m58b5b0cf4d" y="163.81807"/>
    </g>
   </g>
   <g id="line2d_29">
    <path d="M -1 289.637523 
L 138.23904 289.637523 
L 138.23904 289.113275 
L 141.174058 289.113275 
L 141.219991 288.06478 
L 143.144876 288.06478 
L 143.174928 286.492036 
L 144.893211 286.492036 
L 144.893211 285.443541 
L 146.852277 285.443541 
L 146.852277 284.919293 
L 147.492693 284.919293 
L 147.492693 284.395046 
L 147.825022 284.395046 
L 147.825022 283.870798 
L 148.362333 283.870798 
L 148.471021 282.298055 
L 149.538709 282.298055 
L 149.538709 281.773807 
L 150.023961 281.773807 
L 150.023961 281.249559 
L 150.215382 281.249559 
L 150.215382 280.725312 
L 152.276838 280.725312 
L 152.30255 278.628321 
L 153.750924 278.628321 
L 153.750924 277.579825 
L 154.644044 277.579825 
L 154.644044 276.53133 
L 154.791965 276.53133 
L 154.791965 276.007082 
L 155.138605 276.007082 
L 155.138605 275.482834 
L 156.0341 275.482834 
L 156.0341 274.958587 
L 156.533528 274.958587 
L 156.533528 274.434339 
L 156.934424 274.434339 
L 156.934424 273.910091 
L 157.281764 273.910091 
L 157.287774 272.861596 
L 157.671666 272.861596 
L 157.671666 272.337348 
L 158.700456 272.337348 
L 158.746893 270.764605 
L 159.122588 270.764605 
L 159.122588 269.716109 
L 160.120449 269.716109 
L 160.120449 269.191862 
L 160.459611 269.191862 
L 160.459611 268.143366 
L 161.377253 268.143366 
L 161.377253 267.094871 
L 162.505921 267.094871 
L 162.505921 266.046375 
L 162.813755 266.046375 
L 162.813755 265.522128 
L 163.085317 265.522128 
L 163.085317 264.99788 
L 163.390633 264.99788 
L 163.390633 264.473632 
L 163.826771 264.473632 
L 163.894032 263.425137 
L 165.162499 263.425137 
L 165.162499 262.376641 
L 165.33803 262.376641 
L 165.386889 260.803898 
L 165.635046 260.803898 
L 165.635046 260.279651 
L 166.542899 260.279651 
L 166.542899 259.755403 
L 166.777807 259.755403 
L 166.777807 258.706907 
L 167.445244 258.706907 
L 167.445244 258.18266 
L 168.181166 258.18266 
L 168.181166 257.658412 
L 171.424217 257.658412 
L 171.424217 257.134164 
L 172.643542 257.134164 
L 172.643542 256.609917 
L 173.118889 256.609917 
L 173.118889 256.085669 
L 173.765546 256.085669 
L 173.765546 255.561421 
L 174.086774 255.561421 
L 174.086774 255.037173 
L 174.599658 255.037173 
L 174.599658 253.988678 
L 175.328778 253.988678 
L 175.328778 252.940182 
L 176.863345 252.940182 
L 176.863345 251.891687 
L 178.379391 251.891687 
L 178.379391 249.794696 
L 181.376606 249.794696 
L 181.376606 249.270448 
L 183.651978 249.270448 
L 183.651978 248.221953 
L 186.062906 248.221953 
L 186.062906 247.697705 
L 187.326362 247.697705 
L 187.326362 247.173458 
L 196.816447 247.173458 
L 196.816447 246.64921 
L 197.454128 246.64921 
L 197.454128 245.076467 
L 197.609404 245.076467 
L 197.609404 244.552219 
L 197.755743 244.552219 
L 197.755743 244.027971 
L 198.582204 244.027971 
L 198.682964 242.979476 
L 206.422528 242.979476 
L 206.422528 241.93098 
L 221.791225 241.93098 
L 221.791225 241.406733 
L 227.71774 241.406733 
L 227.71774 240.358237 
L 228.047504 240.358237 
L 228.047504 239.83399 
L 236.321522 239.83399 
L 236.321522 239.309742 
L 236.534812 239.309742 
L 236.534812 238.261246 
L 240.405113 238.261246 
L 240.405113 237.212751 
L 241.341556 237.212751 
L 241.341556 236.688503 
L 241.861484 236.688503 
L 241.861484 235.11576 
L 243.343615 235.11576 
L 243.343615 234.591512 
L 243.674506 234.591512 
L 243.780693 233.543017 
L 245.418943 233.543017 
L 245.418943 231.970274 
L 245.534929 231.970274 
L 245.534929 231.446026 
L 245.801508 231.446026 
L 245.801508 230.921778 
L 246.328343 230.921778 
L 246.328343 229.349035 
L 247.649717 229.349035 
L 247.716638 227.776292 
L 248.294612 227.776292 
L 248.294612 227.252044 
L 249.716191 227.252044 
L 249.716191 225.679301 
L 250.110835 225.679301 
L 250.110835 224.630806 
L 252.698982 224.630806 
L 252.698982 224.106558 
L 253.120984 224.106558 
L 253.120984 223.058063 
L 253.796334 223.058063 
L 253.796334 222.009567 
L 255.668223 222.009567 
L 255.668223 221.485319 
L 257.497433 221.485319 
L 257.497433 220.961072 
L 263.313185 220.961072 
L 263.313185 219.912576 
L 264.139253 219.912576 
L 264.139253 219.388328 
L 264.648959 219.388328 
L 264.648959 218.339833 
L 264.855206 218.339833 
L 264.855206 217.815585 
L 265.302009 217.815585 
L 265.302009 216.76709 
L 265.647052 216.76709 
L 265.647052 216.242842 
L 266.452187 216.242842 
L 266.452187 215.718594 
L 266.835443 215.718594 
L 266.835443 214.670099 
L 267.67977 214.670099 
L 267.67977 214.145851 
L 268.214069 214.145851 
L 268.214069 213.621604 
L 268.813365 213.621604 
L 268.819116 212.573108 
L 272.948064 212.573108 
L 272.948064 212.04886 
L 273.118163 212.04886 
L 273.118163 211.524613 
L 273.584377 211.524613 
L 273.584377 211.000365 
L 274.120892 211.000365 
L 274.185098 209.427622 
L 274.261393 209.427622 
L 274.261393 208.379126 
L 274.585932 208.379126 
L 274.585932 207.330631 
L 275.638056 207.330631 
L 275.638056 206.806383 
L 275.974155 206.806383 
L 275.974155 206.282136 
L 276.184895 206.282136 
L 276.184895 205.757888 
L 276.760829 205.757888 
L 276.760829 205.23364 
L 279.547102 205.23364 
L 279.622189 204.185145 
L 279.819385 204.185145 
L 279.829718 203.136649 
L 280.395696 203.136649 
L 280.395696 202.612401 
L 280.784737 202.612401 
L 280.784737 202.088154 
L 281.190927 202.088154 
L 281.190927 201.563906 
L 281.75507 201.563906 
L 281.75507 201.039658 
L 283.538312 201.039658 
L 283.538312 200.515411 
L 283.851776 200.515411 
L 283.851776 199.991163 
L 284.128743 199.991163 
L 284.128743 198.942667 
L 284.784329 198.942667 
L 284.850383 197.369924 
L 284.958971 197.369924 
L 285.049269 195.797181 
L 285.155285 195.797181 
L 285.155285 195.272933 
L 285.27919 195.272933 
L 285.27919 194.748686 
L 285.620995 194.748686 
L 285.620995 194.224438 
L 286.920157 194.224438 
L 286.920157 193.70019 
L 287.339463 193.70019 
L 287.339463 193.175943 
L 287.771918 193.175943 
L 287.771918 192.651695 
L 288.226312 192.651695 
L 288.301026 191.078952 
L 288.402583 191.078952 
L 288.402583 190.030456 
L 290.18927 190.030456 
L 290.18927 189.506209 
L 290.308619 189.506209 
L 290.308619 188.981961 
L 292.631346 188.981961 
L 292.631346 188.457713 
L 292.761729 188.457713 
L 292.761729 187.933465 
L 293.458513 187.933465 
L 293.535089 186.88497 
L 294.86985 186.88497 
L 294.86985 185.312227 
L 295.358607 185.312227 
L 295.466874 184.263731 
L 295.495491 184.263731 
L 295.533902 183.215236 
L 296.980413 183.215236 
L 296.980413 182.690988 
L 297.220117 182.690988 
L 297.317312 181.118245 
L 297.377518 181.118245 
L 297.377518 180.593997 
L 298.502957 180.593997 
L 298.502957 180.06975 
L 298.987915 180.06975 
L 299.042559 179.021254 
L 299.875651 179.021254 
L 299.875651 178.497006 
L 300.745619 178.497006 
L 300.745619 177.972759 
L 301.34101 177.972759 
L 301.34101 176.924263 
L 301.559462 176.924263 
L 301.585153 175.875768 
L 301.955464 175.875768 
L 301.955464 175.35152 
L 302.691793 175.35152 
L 302.691793 174.827272 
L 303.245685 174.827272 
L 303.245685 174.303025 
L 305.378278 174.303025 
L 305.378278 173.778777 
L 305.502967 173.778777 
L 305.567753 172.206034 
L 307.52672 172.206034 
L 307.52672 171.681786 
L 308.260927 171.681786 
L 308.260927 171.157538 
L 308.579285 171.157538 
L 308.579285 170.633291 
L 310.312374 170.633291 
L 310.312374 170.109043 
L 311.022978 170.109043 
L 311.117564 169.060547 
L 311.838036 169.060547 
L 311.838036 168.5363 
L 314.007269 168.5363 
L 314.007269 168.012052 
L 314.399905 168.012052 
L 314.399905 167.487804 
L 316.4115 167.487804 
L 316.463249 166.439309 
L 316.53691 166.439309 
L 316.53691 165.915061 
L 316.997103 165.915061 
L 316.997103 165.390813 
L 318.127237 165.390813 
L 318.127237 164.866566 
L 319.099051 164.866566 
L 319.099051 164.342318 
L 324.207859 164.342318 
L 324.207859 163.81807 
L 333.429677 163.81807 
L 333.429677 163.81807 
" style="fill:none;stroke:#000080;stroke-linecap:square;stroke-width:1.5;"/>
   </g>
   <g id="line2d_30">
    <defs>
     <path d="M 0 6 
C 1.591219 6 3.117479 5.367802 4.242641 4.242641 
C 5.367802 3.117479 6 1.591219 6 0 
C 6 -1.591219 5.367802 -3.117479 4.242641 -4.242641 
C 3.117479 -5.367802 1.591219 -6 0 -6 
C -1.591219 -6 -3.117479 -5.367802 -4.242641 -4.242641 
C -5.367802 -3.117479 -6 -1.591219 -6 0 
C -6 1.591219 -5.367802 3.117479 -4.242641 4.242641 
C -3.117479 5.367802 -1.591219 6 0 6 
z
" id="m0ba13964cd" style="stroke:#000080;stroke-width:1.5;"/>
    </defs>
    <g>
     <use style="fill-opacity:0;stroke:#000080;stroke-width:1.5;" x="163.894032" xlink:href="#m0ba13964cd" y="263.425137"/>
     <use style="fill-opacity:0;stroke:#000080;stroke-width:1.5;" x="221.791225" xlink:href="#m0ba13964cd" y="241.406733"/>
     <use style="fill-opacity:0;stroke:#000080;stroke-width:1.5;" x="297.377518" xlink:href="#m0ba13964cd" y="181.118245"/>
     <use style="fill-opacity:0;stroke:#000080;stroke-width:1.5;" x="324.207859" xlink:href="#m0ba13964cd" y="163.81807"/>
     <use style="fill-opacity:0;stroke:#000080;stroke-width:1.5;" x="333.429677" xlink:href="#m0ba13964cd" y="163.81807"/>
    </g>
   </g>
   <g id="line2d_31">
    <path style="fill:none;stroke:#000080;stroke-linecap:square;stroke-width:1.5;"/>
    <g/>
   </g>
   <g id="line2d_32">
    <path clip-path="url(#p39fe56da63)" d="M 258.037496 220.961072 
" style="fill:none;stroke:#000080;stroke-linecap:square;stroke-width:1.5;"/>
    <defs>
     <path d="M -12 12 
L 12 -12 
M -12 -12 
L 12 12 
" id="m601e20b8dc" style="stroke:#000080;stroke-width:3;"/>
    </defs>
    <g clip-path="url(#p39fe56da63)">
     <use style="fill:#000080;stroke:#000080;stroke-width:3;" x="258.037496" xlink:href="#m601e20b8dc" y="220.961072"/>
    </g>
   </g>
   <g id="line2d_33">
    <defs>
     <path d="M 0 1.5 
C 0.397805 1.5 0.77937 1.341951 1.06066 1.06066 
C 1.341951 0.77937 1.5 0.397805 1.5 0 
C 1.5 -0.397805 1.341951 -0.77937 1.06066 -1.06066 
C 0.77937 -1.341951 0.397805 -1.5 0 -1.5 
C -0.397805 -1.5 -0.77937 -1.341951 -1.06066 -1.06066 
C -1.341951 -0.77937 -1.5 -0.397805 -1.5 0 
C -1.5 0.397805 -1.341951 0.77937 -1.06066 1.06066 
C -0.77937 1.341951 -0.397805 1.5 0 1.5 
z
" id="m8e305266bf" style="stroke:#ff00ff;"/>
    </defs>
    <g>
     <use style="fill:#ff00ff;stroke:#ff00ff;" x="326.105852" xlink:href="#m8e305266bf" y="27.513663"/>
     <use style="fill:#ff00ff;stroke:#ff00ff;" x="326.105852" xlink:href="#m8e305266bf" y="27.513663"/>
    </g>
   </g>
   <g id="line2d_34">
    <path d="M -1 289.637523 
L 105.363783 289.637523 
L 105.363783 289.113275 
L 113.403986 289.113275 
L 113.403986 288.06478 
L 113.814914 288.06478 
L 113.814914 287.540532 
L 114.068699 287.540532 
L 114.068699 287.016284 
L 115.284339 287.016284 
L 115.284339 286.492036 
L 115.531106 286.492036 
L 115.531106 285.967789 
L 117.605876 285.967789 
L 117.605876 284.919293 
L 118.395823 284.919293 
L 118.395823 283.870798 
L 119.106916 283.870798 
L 119.106916 282.298055 
L 122.260312 282.298055 
L 122.269514 280.725312 
L 123.528753 280.725312 
L 123.528753 279.152568 
L 124.557701 279.152568 
L 124.557701 278.628321 
L 124.781768 278.628321 
L 124.837331 276.53133 
L 126.461994 276.53133 
L 126.461994 276.007082 
L 127.558394 276.007082 
L 127.558394 275.482834 
L 128.293446 275.482834 
L 128.293446 274.958587 
L 128.798098 274.958587 
L 128.798098 274.434339 
L 129.312825 274.434339 
L 129.312825 273.385844 
L 132.041604 273.385844 
L 132.041604 272.861596 
L 134.626583 272.861596 
L 134.626583 272.337348 
L 135.165383 272.337348 
L 135.165383 271.8131 
L 138.947921 271.8131 
L 138.947921 271.288853 
L 141.369189 271.288853 
L 141.369189 270.764605 
L 178.407587 270.764605 
L 178.407587 270.240357 
L 178.758263 270.240357 
L 178.869014 268.143366 
L 179.058926 268.143366 
L 179.058926 267.619119 
L 179.411657 267.619119 
L 179.411657 267.094871 
L 179.604246 267.094871 
L 179.604246 266.570623 
L 179.727647 266.570623 
L 179.727647 266.046375 
L 180.193551 266.046375 
L 180.27873 263.949385 
L 180.312495 263.949385 
L 180.404617 262.376641 
L 180.657369 262.376641 
L 180.657369 261.328146 
L 180.891227 261.328146 
L 180.891227 260.803898 
L 181.065312 260.803898 
L 181.139985 259.755403 
L 181.206256 259.755403 
L 181.206256 259.231155 
L 181.50827 259.231155 
L 181.50827 258.706907 
L 189.805105 258.706907 
L 189.909552 257.134164 
L 189.93534 257.134164 
L 190.025563 256.085669 
L 190.718067 256.085669 
L 190.762777 255.037173 
L 190.997141 255.037173 
L 190.997141 253.988678 
L 191.108256 253.988678 
L 191.218323 248.746201 
L 191.257916 248.746201 
L 191.257916 248.221953 
L 191.531886 248.221953 
L 191.531886 247.173458 
L 191.742935 247.173458 
L 191.742935 246.64921 
L 191.979932 246.64921 
L 191.979932 246.124962 
L 198.035514 246.124962 
L 198.035514 245.600714 
L 200.151673 245.600714 
L 200.194211 242.979476 
L 205.803805 242.979476 
L 205.874588 241.93098 
L 215.686731 241.93098 
L 215.686731 241.406733 
L 223.566164 241.406733 
L 223.566164 240.358237 
L 224.534903 240.358237 
L 224.534903 239.83399 
L 224.764693 239.83399 
L 224.764693 239.309742 
L 224.959482 239.309742 
L 224.959482 238.785494 
L 225.574967 238.785494 
L 225.574967 238.261246 
L 226.541973 238.261246 
L 226.541973 237.736999 
L 227.064106 237.736999 
L 227.064106 236.164255 
L 227.658764 236.164255 
L 227.658764 235.640008 
L 227.860535 235.640008 
L 227.860535 234.591512 
L 228.661618 234.591512 
L 228.661618 234.067265 
L 228.975521 234.067265 
L 228.975521 233.018769 
L 229.374866 233.018769 
L 229.374866 231.970274 
L 229.722172 231.970274 
L 229.722172 231.446026 
L 230.448081 231.446026 
L 230.448081 230.921778 
L 230.961265 230.921778 
L 230.961265 230.397531 
L 231.527542 230.397531 
L 231.527542 229.349035 
L 231.677107 229.349035 
L 231.677107 228.824787 
L 232.266048 228.824787 
L 232.266048 227.776292 
L 232.393231 227.776292 
L 232.393231 226.727797 
L 232.526803 226.727797 
L 232.526803 226.203549 
L 234.514527 226.203549 
L 234.514527 225.679301 
L 240.563956 225.679301 
L 240.674512 223.58231 
L 240.714368 223.58231 
L 240.714368 223.058063 
L 240.875423 223.058063 
L 240.976759 222.009567 
L 241.126204 222.009567 
L 241.126204 220.961072 
L 241.411699 220.961072 
L 241.411699 220.436824 
L 241.671826 220.436824 
L 241.671826 219.912576 
L 241.875039 219.912576 
L 241.875039 219.388328 
L 242.064738 219.388328 
L 242.064738 218.339833 
L 242.426783 218.339833 
L 242.426783 217.815585 
L 242.629732 217.815585 
L 242.629732 217.291338 
L 243.115714 217.291338 
L 243.115714 216.76709 
L 243.473252 216.76709 
L 243.473252 216.242842 
L 250.28801 216.242842 
L 250.376581 214.145851 
L 250.480509 214.145851 
L 250.480509 213.621604 
L 250.644129 213.621604 
L 250.681308 211.524613 
L 250.760546 211.524613 
L 250.852842 209.427622 
L 250.961159 209.427622 
L 250.961159 208.379126 
L 251.375825 208.379126 
L 251.485618 207.330631 
L 251.790833 207.330631 
L 251.790833 206.282136 
L 252.002821 206.282136 
L 252.002821 205.757888 
L 252.158653 205.757888 
L 252.158653 205.23364 
L 252.427656 205.23364 
L 252.493906 203.660897 
L 252.552979 203.660897 
L 252.552979 202.612401 
L 252.724122 202.612401 
L 252.724122 201.563906 
L 256.546619 201.563906 
L 256.654438 199.466915 
L 256.728036 199.466915 
L 256.772017 197.894172 
L 256.898253 197.894172 
L 256.898253 197.369924 
L 257.064236 197.369924 
L 257.162903 195.797181 
L 257.226306 195.797181 
L 257.277674 192.651695 
L 257.340305 192.651695 
L 257.396264 191.078952 
L 257.462576 191.078952 
L 257.538493 188.457713 
L 257.582584 188.457713 
L 257.65167 185.312227 
L 257.712154 185.312227 
L 257.815409 181.118245 
L 257.913038 181.118245 
L 258.000438 177.448511 
L 258.163759 177.448511 
L 258.258536 175.35152 
L 258.310649 175.35152 
L 258.41845 172.730281 
L 258.476976 172.730281 
L 258.554982 171.157538 
L 258.624759 171.157538 
L 258.72332 170.109043 
L 258.767442 170.109043 
L 258.804518 169.060547 
L 258.914887 169.060547 
L 258.963181 167.487804 
L 269.729404 167.487804 
L 269.828205 162.769575 
L 269.84823 162.769575 
L 269.915408 161.196832 
L 269.995386 161.196832 
L 270.078615 159.099841 
L 270.162061 159.099841 
L 270.162061 158.575593 
L 270.288531 158.575593 
L 270.354296 157.527098 
L 270.459704 157.527098 
L 270.529778 155.430107 
L 272.239144 155.430107 
L 272.326603 151.760373 
L 272.356198 151.760373 
L 272.437643 148.614886 
L 272.479322 148.614886 
L 272.550734 147.042143 
L 272.640143 147.042143 
L 272.730622 144.945152 
L 272.767978 144.945152 
L 272.81889 141.799666 
L 272.888757 141.799666 
L 272.946953 140.751171 
L 275.104453 140.751171 
L 275.183143 136.557189 
L 275.227868 136.557189 
L 275.33031 133.93595 
L 275.353625 133.93595 
L 275.461433 129.217721 
L 275.510955 129.217721 
L 275.616998 126.072235 
L 282.980366 126.072235 
L 283.081758 122.4025 
L 283.098058 122.4025 
L 283.201763 116.635776 
L 283.215935 116.635776 
L 283.326476 108.77206 
L 283.34618 108.77206 
L 283.432564 103.529583 
L 283.500643 103.529583 
L 283.500643 101.956839 
L 294.109105 101.956839 
L 294.173073 99.859849 
L 294.223872 99.859849 
L 294.307003 96.190115 
L 294.575804 96.190115 
L 294.678884 91.996133 
L 294.706932 91.996133 
L 294.743722 88.850646 
L 295.151266 88.850646 
L 295.256058 85.70516 
L 295.292318 85.70516 
L 295.31057 84.656665 
L 295.704362 84.656665 
L 295.814172 78.88994 
L 295.818653 78.88994 
L 295.918022 75.220206 
L 295.945809 75.220206 
L 295.945809 74.695958 
L 297.626298 74.695958 
L 297.697418 71.550472 
L 297.777882 71.550472 
L 297.795139 70.501976 
L 298.133129 70.501976 
L 298.173944 68.929233 
L 298.270976 68.929233 
L 298.270976 68.404985 
L 298.814387 68.404985 
L 298.925382 64.735251 
L 298.937521 64.735251 
L 298.937521 64.211004 
L 301.166958 64.211004 
L 301.273095 56.347288 
L 301.32022 56.347288 
L 301.336161 54.250297 
L 305.927667 54.250297 
L 305.927667 53.726049 
L 306.127087 53.726049 
L 306.166879 52.153306 
L 306.411576 52.153306 
L 306.487114 51.104811 
L 306.710642 51.104811 
L 306.817668 45.862334 
L 306.823669 45.862334 
L 306.823669 45.338086 
L 308.071193 45.338086 
L 308.096397 43.765343 
L 308.417811 43.765343 
L 308.492841 42.192599 
L 309.825436 42.192599 
L 309.913417 37.998618 
L 312.815168 37.998618 
L 312.815168 37.47437 
L 312.974419 37.47437 
L 312.97484 36.425875 
L 313.201164 36.425875 
L 313.234005 35.377379 
L 313.434513 35.377379 
L 313.434513 34.853131 
L 314.556363 34.853131 
L 314.59428 32.756141 
L 315.529309 32.756141 
L 315.574998 30.65915 
L 318.058884 30.65915 
L 318.058884 30.134902 
L 319.818609 30.134902 
L 319.847147 28.562159 
L 321.924231 28.562159 
L 321.924231 28.037911 
L 326.105852 28.037911 
L 326.105852 27.513663 
L 333.429677 27.513663 
L 333.429677 27.513663 
" style="fill:none;stroke:#ff00ff;stroke-linecap:square;stroke-width:1.5;"/>
   </g>
   <g id="line2d_35">
    <defs>
     <path d="M -0 8.485281 
L 5.091169 0 
L 0 -8.485281 
L -5.091169 -0 
z
" id="mb7023c54df" style="stroke:#ff00ff;stroke-linejoin:miter;stroke-width:1.5;"/>
    </defs>
    <g>
     <use style="fill-opacity:0;stroke:#ff00ff;stroke-linejoin:miter;stroke-width:1.5;" x="124.557701" xlink:href="#mb7023c54df" y="278.628321"/>
     <use style="fill-opacity:0;stroke:#ff00ff;stroke-linejoin:miter;stroke-width:1.5;" x="200.194211" xlink:href="#mb7023c54df" y="244.027971"/>
     <use style="fill-opacity:0;stroke:#ff00ff;stroke-linejoin:miter;stroke-width:1.5;" x="258.963181" xlink:href="#mb7023c54df" y="167.487804"/>
     <use style="fill-opacity:0;stroke:#ff00ff;stroke-linejoin:miter;stroke-width:1.5;" x="298.814387" xlink:href="#mb7023c54df" y="67.880738"/>
     <use style="fill-opacity:0;stroke:#ff00ff;stroke-linejoin:miter;stroke-width:1.5;" x="326.105852" xlink:href="#mb7023c54df" y="27.513663"/>
     <use style="fill-opacity:0;stroke:#ff00ff;stroke-linejoin:miter;stroke-width:1.5;" x="333.429677" xlink:href="#mb7023c54df" y="27.513663"/>
    </g>
   </g>
   <g id="line2d_36">
    <path style="fill:none;stroke:#ff00ff;stroke-linecap:square;stroke-width:1.5;"/>
    <g/>
   </g>
   <g id="line2d_37">
    <path clip-path="url(#p39fe56da63)" d="M 293.81402 101.956839 
" style="fill:none;stroke:#ff00ff;stroke-linecap:square;stroke-width:1.5;"/>
    <defs>
     <path d="M -12 12 
L 12 -12 
M -12 -12 
L 12 12 
" id="m21278f3348" style="stroke:#ff00ff;stroke-width:3;"/>
    </defs>
    <g clip-path="url(#p39fe56da63)">
     <use style="fill:#ff00ff;stroke:#ff00ff;stroke-width:3;" x="293.81402" xlink:href="#m21278f3348" y="101.956839"/>
    </g>
   </g>
   <g id="line2d_38">
    <defs>
     <path d="M 0 1.5 
C 0.397805 1.5 0.77937 1.341951 1.06066 1.06066 
C 1.341951 0.77937 1.5 0.397805 1.5 0 
C 1.5 -0.397805 1.341951 -0.77937 1.06066 -1.06066 
C 0.77937 -1.341951 0.397805 -1.5 0 -1.5 
C -0.397805 -1.5 -0.77937 -1.341951 -1.06066 -1.06066 
C -1.341951 -0.77937 -1.5 -0.397805 -1.5 0 
C -1.5 0.397805 -1.341951 0.77937 -1.06066 1.06066 
C -0.77937 1.341951 -0.397805 1.5 0 1.5 
z
" id="m3cc91d091e" style="stroke:#ffa500;"/>
    </defs>
    <g>
     <use style="fill:#ffa500;stroke:#ffa500;" x="282.136971" xlink:href="#m3cc91d091e" y="237.212751"/>
     <use style="fill:#ffa500;stroke:#ffa500;" x="282.136971" xlink:href="#m3cc91d091e" y="237.212751"/>
    </g>
   </g>
   <g id="line2d_39">
    <path d="M -1 289.637523 
L 166.516208 289.637523 
L 166.516208 289.113275 
L 170.643112 289.113275 
L 170.643112 288.589027 
L 174.269148 288.589027 
L 174.269148 288.06478 
L 174.972165 288.06478 
L 174.972165 287.540532 
L 175.220195 287.540532 
L 175.220195 286.492036 
L 176.288719 286.492036 
L 176.288719 285.967789 
L 178.864557 285.967789 
L 178.864557 285.443541 
L 179.133362 285.443541 
L 179.133362 284.919293 
L 179.576301 284.919293 
L 179.576301 283.870798 
L 179.965715 283.870798 
L 179.965715 283.34655 
L 180.873843 283.34655 
L 180.873843 282.822302 
L 182.006232 282.822302 
L 182.066409 281.773807 
L 182.406094 281.773807 
L 182.406094 281.249559 
L 182.924915 281.249559 
L 182.924915 280.725312 
L 183.05201 280.725312 
L 183.05201 280.201064 
L 183.395373 280.201064 
L 183.395373 279.676816 
L 183.777957 279.676816 
L 183.777957 279.152568 
L 184.034546 279.152568 
L 184.034546 278.628321 
L 184.739524 278.628321 
L 184.739524 278.104073 
L 185.124899 278.104073 
L 185.124899 276.53133 
L 186.961834 276.53133 
L 186.961834 275.482834 
L 187.320699 275.482834 
L 187.320699 274.958587 
L 188.098724 274.958587 
L 188.098724 274.434339 
L 188.977919 274.434339 
L 188.980586 272.861596 
L 190.745594 272.861596 
L 190.749891 270.764605 
L 191.287426 270.764605 
L 191.287426 270.240357 
L 191.651521 270.240357 
L 191.651521 269.191862 
L 192.372558 269.191862 
L 192.472984 266.570623 
L 192.609272 266.570623 
L 192.648564 265.522128 
L 194.184004 265.522128 
L 194.184004 264.99788 
L 194.465202 264.99788 
L 194.465202 264.473632 
L 195.013905 264.473632 
L 195.013905 263.949385 
L 195.32101 263.949385 
L 195.32101 262.900889 
L 196.52603 262.900889 
L 196.52861 261.328146 
L 196.690236 261.328146 
L 196.775206 259.231155 
L 196.846741 259.231155 
L 196.846741 258.18266 
L 197.500626 258.18266 
L 197.500626 257.658412 
L 197.789224 257.658412 
L 197.789224 257.134164 
L 198.851208 257.134164 
L 198.851208 256.609917 
L 199.961659 256.609917 
L 200.022925 255.561421 
L 200.218811 255.561421 
L 200.218811 255.037173 
L 200.846558 255.037173 
L 200.93616 253.988678 
L 201.784541 253.988678 
L 201.785265 252.940182 
L 202.70862 252.940182 
L 202.70862 251.891687 
L 203.509045 251.891687 
L 203.514366 250.318944 
L 203.765582 250.318944 
L 203.765582 249.794696 
L 203.884302 249.794696 
L 203.884302 249.270448 
L 208.448217 249.270448 
L 208.531999 247.697705 
L 209.104837 247.697705 
L 209.104837 246.64921 
L 211.280186 246.64921 
L 211.280186 246.124962 
L 254.711648 246.124962 
L 254.795976 244.552219 
L 255.047512 244.552219 
L 255.079857 242.979476 
L 255.177128 242.979476 
L 255.281967 241.93098 
L 255.322927 241.93098 
L 255.406272 239.83399 
L 266.620198 239.83399 
L 266.620198 239.309742 
L 273.482906 239.309742 
L 273.498284 238.261246 
L 278.347867 238.261246 
L 278.347867 237.736999 
L 282.136971 237.736999 
L 282.136971 237.212751 
L 333.429677 237.212751 
L 333.429677 237.212751 
" style="fill:none;stroke:#ffa500;stroke-linecap:square;stroke-width:1.5;"/>
   </g>
   <g id="line2d_40">
    <defs>
     <path d="M 0 -6 
L -1.347084 -1.854102 
L -5.706339 -1.854102 
L -2.179628 0.708204 
L -3.526712 4.854102 
L -0 2.291796 
L 3.526712 4.854102 
L 2.179628 0.708204 
L 5.706339 -1.854102 
L 1.347084 -1.854102 
z
" id="me943ec1028" style="stroke:#ffa500;stroke-linejoin:bevel;stroke-width:1.5;"/>
    </defs>
    <g>
     <use style="fill-opacity:0;stroke:#ffa500;stroke-linejoin:bevel;stroke-width:1.5;" x="200.022925" xlink:href="#me943ec1028" y="255.561421"/>
     <use style="fill-opacity:0;stroke:#ffa500;stroke-linejoin:bevel;stroke-width:1.5;" x="278.347867" xlink:href="#me943ec1028" y="238.261246"/>
     <use style="fill-opacity:0;stroke:#ffa500;stroke-linejoin:bevel;stroke-width:1.5;" x="282.136971" xlink:href="#me943ec1028" y="237.212751"/>
     <use style="fill-opacity:0;stroke:#ffa500;stroke-linejoin:bevel;stroke-width:1.5;" x="333.429677" xlink:href="#me943ec1028" y="237.212751"/>
    </g>
   </g>
   <g id="line2d_41">
    <path style="fill:none;stroke:#ffa500;stroke-linecap:square;stroke-width:1.5;"/>
    <g/>
   </g>
   <g id="line2d_42">
    <path clip-path="url(#p39fe56da63)" d="M 254.198341 246.124962 
" style="fill:none;stroke:#ffa500;stroke-linecap:square;stroke-width:1.5;"/>
    <defs>
     <path d="M -12 12 
L 12 -12 
M -12 -12 
L 12 12 
" id="m168d682d3f" style="stroke:#ffa500;stroke-width:3;"/>
    </defs>
    <g clip-path="url(#p39fe56da63)">
     <use style="fill:#ffa500;stroke:#ffa500;stroke-width:3;" x="254.198341" xlink:href="#m168d682d3f" y="246.124962"/>
    </g>
   </g>
   <g id="line2d_43">
    <defs>
     <path d="M 0 1.5 
C 0.397805 1.5 0.77937 1.341951 1.06066 1.06066 
C 1.341951 0.77937 1.5 0.397805 1.5 0 
C 1.5 -0.397805 1.341951 -0.77937 1.06066 -1.06066 
C 0.77937 -1.341951 0.397805 -1.5 0 -1.5 
C -0.397805 -1.5 -0.77937 -1.341951 -1.06066 -1.06066 
C -1.341951 -0.77937 -1.5 -0.397805 -1.5 0 
C -1.5 0.397805 -1.341951 0.77937 -1.06066 1.06066 
C -0.77937 1.341951 -0.397805 1.5 0 1.5 
z
" id="ma2fed88491" style="stroke:#ff0000;"/>
    </defs>
    <g>
     <use style="fill:#ff0000;stroke:#ff0000;" x="290.502476" xlink:href="#ma2fed88491" y="27.513663"/>
     <use style="fill:#ff0000;stroke:#ff0000;" x="290.502476" xlink:href="#ma2fed88491" y="27.513663"/>
    </g>
   </g>
   <g id="line2d_44">
    <path d="M -1 289.637523 
L 86.803007 289.637523 
L 86.803007 287.540532 
L 88.057358 287.540532 
L 88.057358 287.016284 
L 88.191249 287.016284 
L 88.191249 286.492036 
L 88.586781 286.492036 
L 88.586781 285.443541 
L 88.781188 285.443541 
L 88.781188 284.919293 
L 88.973423 284.919293 
L 89.037027 283.34655 
L 89.903642 283.34655 
L 89.903642 282.822302 
L 90.26209 282.822302 
L 90.321112 280.725312 
L 90.555195 280.725312 
L 90.555195 280.201064 
L 90.728691 280.201064 
L 90.728691 279.676816 
L 90.843391 279.676816 
L 90.900455 277.579825 
L 91.014019 277.579825 
L 91.014019 277.055578 
L 91.126838 277.055578 
L 91.182972 275.482834 
L 91.460924 275.482834 
L 91.570859 273.910091 
L 92.216118 273.910091 
L 92.216118 272.861596 
L 93.63379 272.861596 
L 93.63379 272.337348 
L 94.065734 272.337348 
L 94.065734 271.8131 
L 94.625292 271.8131 
L 94.625292 271.288853 
L 94.762383 271.288853 
L 94.762383 270.240357 
L 95.300079 270.240357 
L 95.300079 269.716109 
L 95.606145 269.716109 
L 95.606145 269.191862 
L 95.735668 269.191862 
L 95.821478 267.094871 
L 96.034149 267.094871 
L 96.07637 265.522128 
L 96.65683 265.522128 
L 96.65683 264.473632 
L 97.492375 264.473632 
L 97.492375 263.949385 
L 97.838406 263.949385 
L 97.838406 263.425137 
L 98.289215 263.425137 
L 98.400095 261.852394 
L 100.083378 261.852394 
L 100.116753 260.279651 
L 100.512285 260.279651 
L 100.512285 259.755403 
L 101.524628 259.755403 
L 101.524628 258.706907 
L 132.984989 258.706907 
L 132.984989 257.658412 
L 137.545186 257.658412 
L 137.545186 257.134164 
L 142.450171 257.134164 
L 142.450171 256.609917 
L 146.3422 256.609917 
L 146.3422 255.561421 
L 148.432857 255.561421 
L 148.432857 255.037173 
L 148.622836 255.037173 
L 148.622836 254.512926 
L 148.749649 254.512926 
L 148.775294 252.940182 
L 148.98688 252.940182 
L 148.98688 252.415935 
L 149.293721 252.415935 
L 149.293721 251.891687 
L 150.215382 251.891687 
L 150.215382 251.367439 
L 152.030633 251.367439 
L 152.030633 250.318944 
L 152.146075 250.318944 
L 152.146075 249.794696 
L 159.118266 249.794696 
L 159.118266 249.270448 
L 161.417952 249.270448 
L 161.506589 248.221953 
L 163.036338 248.221953 
L 163.09561 245.076467 
L 163.36026 245.076467 
L 163.382202 243.503724 
L 163.500709 243.503724 
L 163.554231 242.455228 
L 176.36344 242.455228 
L 176.426778 240.882485 
L 177.140775 240.882485 
L 177.140775 240.358237 
L 180.882385 240.358237 
L 180.882385 239.83399 
L 200.938537 239.83399 
L 201.034471 237.736999 
L 201.067432 237.736999 
L 201.067432 237.212751 
L 201.182157 237.212751 
L 201.272272 236.164255 
L 201.307385 236.164255 
L 201.406934 234.591512 
L 201.520896 234.591512 
L 201.598283 233.543017 
L 201.650989 233.543017 
L 201.650989 232.494521 
L 201.76462 232.494521 
L 201.803174 230.921778 
L 201.93699 230.921778 
L 201.970685 228.824787 
L 202.131525 228.824787 
L 202.131525 228.30054 
L 202.297466 228.30054 
L 202.360508 226.203549 
L 202.538303 226.203549 
L 202.579745 224.630806 
L 202.860358 224.630806 
L 202.860358 224.106558 
L 214.286538 224.106558 
L 214.286538 223.58231 
L 214.911563 223.58231 
L 214.991511 222.009567 
L 218.2238 222.009567 
L 218.2238 221.485319 
L 218.760066 221.485319 
L 218.846929 219.388328 
L 218.979755 219.388328 
L 219.084965 218.339833 
L 219.099162 218.339833 
L 219.10032 217.291338 
L 219.456412 217.291338 
L 219.548283 215.194347 
L 219.810457 215.194347 
L 219.81563 214.145851 
L 220.009276 214.145851 
L 220.009276 213.621604 
L 220.372923 213.621604 
L 220.372923 213.097356 
L 220.520911 213.097356 
L 220.520911 212.573108 
L 220.654284 212.573108 
L 220.654284 212.04886 
L 221.266419 212.04886 
L 221.266419 211.524613 
L 221.439752 211.524613 
L 221.439752 211.000365 
L 226.52041 211.000365 
L 226.52041 210.476117 
L 227.112408 210.476117 
L 227.189849 209.427622 
L 227.294126 209.427622 
L 227.294126 208.903374 
L 227.428687 208.903374 
L 227.480612 207.330631 
L 227.553725 207.330631 
L 227.632755 206.282136 
L 227.762544 206.282136 
L 227.796181 204.709392 
L 228.174076 204.709392 
L 228.174076 204.185145 
L 228.403478 204.185145 
L 228.403478 203.660897 
L 228.539378 203.660897 
L 228.616167 202.088154 
L 228.678195 202.088154 
L 228.750046 201.039658 
L 228.914951 201.039658 
L 228.914951 200.515411 
L 229.047015 200.515411 
L 229.150466 199.466915 
L 229.170522 199.466915 
L 229.245469 198.41842 
L 229.342083 198.41842 
L 229.342083 197.894172 
L 232.694402 197.894172 
L 232.694402 197.369924 
L 232.824801 197.369924 
L 232.824801 196.845677 
L 233.036278 196.845677 
L 233.096726 195.797181 
L 233.434831 195.797181 
L 233.434831 195.272933 
L 233.554246 195.272933 
L 233.651937 193.70019 
L 233.687793 193.70019 
L 233.775457 192.127447 
L 233.82256 192.127447 
L 233.868455 191.078952 
L 234.03583 191.078952 
L 234.109126 190.030456 
L 234.406494 190.030456 
L 234.406494 189.506209 
L 234.532842 189.506209 
L 234.532842 188.981961 
L 234.911386 188.981961 
L 234.911386 188.457713 
L 235.18871 188.457713 
L 235.290316 186.88497 
L 235.626037 186.88497 
L 235.626037 186.360722 
L 235.808083 186.360722 
L 235.808083 185.836474 
L 236.872051 185.836474 
L 236.872051 185.312227 
L 237.713245 185.312227 
L 237.713245 184.787979 
L 238.141834 184.787979 
L 238.246804 183.739484 
L 238.473347 183.739484 
L 238.473347 183.215236 
L 238.607612 183.215236 
L 238.67764 182.16674 
L 238.74957 182.16674 
L 238.74957 181.642493 
L 238.875365 181.642493 
L 238.875365 181.118245 
L 239.10882 181.118245 
L 239.10882 180.593997 
L 239.422409 180.593997 
L 239.422409 180.06975 
L 239.830137 180.06975 
L 239.830137 179.545502 
L 240.912555 179.545502 
L 241.008776 176.924263 
L 241.142941 176.924263 
L 241.230036 175.35152 
L 241.290947 175.35152 
L 241.38787 174.303025 
L 241.444389 174.303025 
L 241.499068 173.254529 
L 241.613002 173.254529 
L 241.684987 171.681786 
L 241.798577 171.681786 
L 241.904883 169.060547 
L 242.140037 169.060547 
L 242.246786 168.012052 
L 244.197822 168.012052 
L 244.197822 167.487804 
L 244.32134 167.487804 
L 244.388724 165.915061 
L 244.512696 165.915061 
L 244.565594 164.866566 
L 244.778365 164.866566 
L 244.778365 164.342318 
L 244.943915 164.342318 
L 245.051335 163.293823 
L 245.073799 163.293823 
L 245.12775 161.721079 
L 245.354374 161.721079 
L 245.427503 160.148336 
L 245.668099 160.148336 
L 245.668099 159.624089 
L 246.202608 159.624089 
L 246.237616 158.575593 
L 246.625404 158.575593 
L 246.625404 158.051345 
L 246.816055 158.051345 
L 246.88289 157.00285 
L 246.938943 157.00285 
L 246.938943 156.478602 
L 247.132767 156.478602 
L 247.232097 154.905859 
L 247.263387 154.905859 
L 247.263387 154.381611 
L 247.435771 154.381611 
L 247.490212 153.333116 
L 247.587967 153.333116 
L 247.587967 152.808868 
L 247.746071 152.808868 
L 247.746071 152.28462 
L 248.254283 152.28462 
L 248.254283 151.760373 
L 248.464153 151.760373 
L 248.464153 151.236125 
L 248.627241 151.236125 
L 248.722522 149.139134 
L 248.771619 149.139134 
L 248.771619 148.614886 
L 248.950101 148.614886 
L 249.019246 147.566391 
L 249.072482 147.566391 
L 249.13196 145.993648 
L 249.199918 145.993648 
L 249.248506 144.945152 
L 249.367508 144.945152 
L 249.467906 142.848162 
L 249.52267 142.848162 
L 249.536933 141.799666 
L 249.698489 141.799666 
L 249.729765 140.751171 
L 250.496677 140.751171 
L 250.496677 140.226923 
L 250.721101 140.226923 
L 250.779403 139.178427 
L 250.878115 139.178427 
L 250.941939 138.129932 
L 251.003704 138.129932 
L 251.112004 137.081437 
L 251.12977 137.081437 
L 251.215969 136.032941 
L 251.439731 136.032941 
L 251.496446 134.460198 
L 252.074812 134.460198 
L 252.139538 132.887455 
L 252.202258 132.887455 
L 252.256581 131.314712 
L 252.337056 131.314712 
L 252.350321 130.266216 
L 252.541498 130.266216 
L 252.541498 129.741969 
L 252.731646 129.741969 
L 252.777535 128.693473 
L 252.871386 128.693473 
L 252.917635 127.644978 
L 253.256278 127.644978 
L 253.325452 126.596482 
L 253.692864 126.596482 
L 253.692864 126.072235 
L 253.823505 126.072235 
L 253.823505 125.547987 
L 253.970775 125.547987 
L 254.03506 124.499491 
L 254.203622 124.499491 
L 254.213552 123.450996 
L 254.399396 123.450996 
L 254.489406 122.4025 
L 254.598848 122.4025 
L 254.624488 121.354005 
L 254.993262 121.354005 
L 254.993262 120.829757 
L 255.248616 120.829757 
L 255.260545 119.781262 
L 255.471304 119.781262 
L 255.570135 118.732766 
L 255.59804 118.732766 
L 255.644627 117.160023 
L 255.765225 117.160023 
L 255.861909 116.111528 
L 256.124846 116.111528 
L 256.124846 115.58728 
L 256.419971 115.58728 
L 256.419971 115.063032 
L 256.892675 115.063032 
L 256.912942 113.490289 
L 257.015506 113.490289 
L 257.092916 111.917546 
L 257.22359 111.917546 
L 257.280098 110.869051 
L 257.445582 110.869051 
L 257.445582 110.344803 
L 257.67378 110.344803 
L 257.752504 109.296308 
L 257.937791 109.296308 
L 257.937791 108.77206 
L 258.223807 108.77206 
L 258.310036 107.723564 
L 258.389495 107.723564 
L 258.389495 107.199317 
L 258.518966 107.199317 
L 258.547972 106.150821 
L 258.973065 106.150821 
L 259.064522 103.529583 
L 259.133601 103.529583 
L 259.23141 102.481087 
L 259.43092 102.481087 
L 259.435289 101.432592 
L 259.548059 101.432592 
L 259.568989 100.384096 
L 259.948531 100.384096 
L 259.951391 99.335601 
L 260.316655 99.335601 
L 260.425656 97.762858 
L 260.433615 97.762858 
L 260.433615 97.23861 
L 260.658351 97.23861 
L 260.705883 96.190115 
L 260.877998 96.190115 
L 260.986659 95.141619 
L 261.156848 95.141619 
L 261.156848 94.617371 
L 261.279176 94.617371 
L 261.362392 93.044628 
L 261.411877 93.044628 
L 261.411877 92.520381 
L 261.633165 92.520381 
L 261.672833 91.471885 
L 261.89355 91.471885 
L 261.89355 90.947637 
L 262.119972 90.947637 
L 262.135571 89.899142 
L 262.245316 89.899142 
L 262.245316 89.374894 
L 262.424633 89.374894 
L 262.463958 87.802151 
L 262.645521 87.802151 
L 262.716312 85.70516 
L 262.784897 85.70516 
L 262.882899 83.608169 
L 263.253451 83.608169 
L 263.35724 81.511178 
L 263.412038 81.511178 
L 263.412038 80.986931 
L 263.701187 80.986931 
L 263.701187 80.462683 
L 263.861466 80.462683 
L 263.940826 78.88994 
L 263.974087 78.88994 
L 264.031969 77.841444 
L 264.111303 77.841444 
L 264.14792 76.792949 
L 264.231536 76.792949 
L 264.29719 75.744454 
L 264.374463 75.744454 
L 264.405566 74.695958 
L 264.602303 74.695958 
L 264.602303 74.17171 
L 264.766129 74.17171 
L 264.851735 72.598967 
L 264.988938 72.598967 
L 265.071656 71.550472 
L 265.182362 71.550472 
L 265.221468 70.501976 
L 265.313812 70.501976 
L 265.313812 69.977729 
L 265.527061 69.977729 
L 265.527061 69.453481 
L 265.664042 69.453481 
L 265.664042 68.929233 
L 265.822321 68.929233 
L 265.898513 67.880738 
L 266.212118 67.880738 
L 266.212118 67.35649 
L 266.355485 67.35649 
L 266.355485 66.832242 
L 266.614485 66.832242 
L 266.614485 66.307995 
L 266.725857 66.307995 
L 266.725857 65.783747 
L 267.211621 65.783747 
L 267.211621 65.259499 
L 267.328133 65.259499 
L 267.328133 64.735251 
L 267.827015 64.735251 
L 267.827015 64.211004 
L 267.986741 64.211004 
L 268.050154 62.638261 
L 268.116687 62.638261 
L 268.141587 61.589765 
L 268.786863 61.589765 
L 268.84509 60.54127 
L 269.074297 60.54127 
L 269.07673 59.492774 
L 269.505435 59.492774 
L 269.610216 58.444279 
L 269.767261 58.444279 
L 269.767261 57.920031 
L 270.056738 57.920031 
L 270.056738 57.395783 
L 270.291754 57.395783 
L 270.373421 55.82304 
L 270.428337 55.82304 
L 270.480301 54.774545 
L 270.937633 54.774545 
L 270.980424 53.726049 
L 271.179745 53.726049 
L 271.278266 52.677554 
L 271.430498 52.677554 
L 271.430498 52.153306 
L 271.548109 52.153306 
L 271.579767 51.104811 
L 271.707357 51.104811 
L 271.707357 50.580563 
L 271.954732 50.580563 
L 271.964367 49.532068 
L 272.300991 49.532068 
L 272.300991 49.00782 
L 272.83876 49.00782 
L 272.83876 48.483572 
L 273.034741 48.483572 
L 273.034741 47.959324 
L 273.318972 47.959324 
L 273.318972 47.435077 
L 273.913773 47.435077 
L 273.913773 46.910829 
L 274.184896 46.910829 
L 274.231057 45.862334 
L 274.382636 45.862334 
L 274.382636 45.338086 
L 274.782784 45.338086 
L 274.817105 44.28959 
L 275.29662 44.28959 
L 275.306086 43.241095 
L 275.784546 43.241095 
L 275.784546 42.716847 
L 275.956947 42.716847 
L 275.956947 42.192599 
L 276.240526 42.192599 
L 276.289654 41.144104 
L 276.666271 41.144104 
L 276.72755 40.095609 
L 276.913077 40.095609 
L 276.960081 39.047113 
L 277.56312 39.047113 
L 277.618242 37.998618 
L 277.984311 37.998618 
L 277.984311 37.47437 
L 278.142467 37.47437 
L 278.214123 36.425875 
L 278.455569 36.425875 
L 278.455569 35.901627 
L 278.957894 35.901627 
L 278.957894 35.377379 
L 279.166237 35.377379 
L 279.166237 34.853131 
L 279.460722 34.853131 
L 279.552315 33.280388 
L 279.647316 33.280388 
L 279.647316 32.756141 
L 282.011872 32.756141 
L 282.082427 31.707645 
L 283.35195 31.707645 
L 283.35195 31.183397 
L 284.053167 31.183397 
L 284.147098 30.134902 
L 284.394122 30.134902 
L 284.394122 29.610654 
L 285.948273 29.610654 
L 285.948273 29.086407 
L 287.089763 29.086407 
L 287.089763 28.562159 
L 288.664736 28.562159 
L 288.664736 28.037911 
L 290.502476 28.037911 
L 290.502476 27.513663 
L 333.429677 27.513663 
L 333.429677 27.513663 
" style="fill:none;stroke:#ff0000;stroke-linecap:square;stroke-width:1.5;"/>
   </g>
   <g id="line2d_45">
    <defs>
     <path d="M 0 -6 
L -5.196152 -3 
L -5.196152 3 
L -0 6 
L 5.196152 3 
L 5.196152 -3 
z
" id="mdabd551bb1" style="stroke:#ff0000;stroke-linejoin:miter;stroke-width:1.5;"/>
    </defs>
    <g>
     <use style="fill-opacity:0;stroke:#ff0000;stroke-linejoin:miter;stroke-width:1.5;" x="132.984989" xlink:href="#mdabd551bb1" y="258.706907"/>
     <use style="fill-opacity:0;stroke:#ff0000;stroke-linejoin:miter;stroke-width:1.5;" x="220.654284" xlink:href="#mdabd551bb1" y="212.573108"/>
     <use style="fill-opacity:0;stroke:#ff0000;stroke-linejoin:miter;stroke-width:1.5;" x="265.071656" xlink:href="#mdabd551bb1" y="71.550472"/>
     <use style="fill-opacity:0;stroke:#ff0000;stroke-linejoin:miter;stroke-width:1.5;" x="290.502476" xlink:href="#mdabd551bb1" y="27.513663"/>
     <use style="fill-opacity:0;stroke:#ff0000;stroke-linejoin:miter;stroke-width:1.5;" x="290.502476" xlink:href="#mdabd551bb1" y="27.513663"/>
     <use style="fill-opacity:0;stroke:#ff0000;stroke-linejoin:miter;stroke-width:1.5;" x="333.429677" xlink:href="#mdabd551bb1" y="27.513663"/>
    </g>
   </g>
   <g id="line2d_46">
    <path style="fill:none;stroke:#ff0000;stroke-linecap:square;stroke-width:1.5;"/>
    <g/>
   </g>
   <g id="line2d_47">
    <path clip-path="url(#p39fe56da63)" d="M 212.203489 224.106558 
" style="fill:none;stroke:#ff0000;stroke-linecap:square;stroke-width:1.5;"/>
    <defs>
     <path d="M -12 12 
L 12 -12 
M -12 -12 
L 12 12 
" id="m45782bbfa1" style="stroke:#ff0000;stroke-width:3;"/>
    </defs>
    <g clip-path="url(#p39fe56da63)">
     <use style="fill:#ff0000;stroke:#ff0000;stroke-width:3;" x="212.203489" xlink:href="#m45782bbfa1" y="224.106558"/>
    </g>
   </g>
   <g id="line2d_48">
    <path d="M 333.429677 237.212751 
L 363.933742 289.532673 
" style="fill:none;stroke:#ffa500;stroke-linecap:square;stroke-width:1.5;"/>
    <g>
     <use style="fill-opacity:0;stroke:#ffa500;stroke-linejoin:bevel;stroke-width:1.5;" x="333.429677" xlink:href="#me943ec1028" y="237.212751"/>
     <use style="fill-opacity:0;stroke:#ffa500;stroke-linejoin:bevel;stroke-width:1.5;" x="363.933742" xlink:href="#me943ec1028" y="289.532673"/>
    </g>
   </g>
   <g id="line2d_49">
    <path d="M 333.429677 163.81807 
L 363.933742 225.364752 
" style="fill:none;stroke:#000080;stroke-linecap:square;stroke-width:1.5;"/>
    <g>
     <use style="fill-opacity:0;stroke:#000080;stroke-width:1.5;" x="333.429677" xlink:href="#m0ba13964cd" y="163.81807"/>
     <use style="fill-opacity:0;stroke:#000080;stroke-width:1.5;" x="363.933742" xlink:href="#m0ba13964cd" y="225.364752"/>
    </g>
   </g>
   <g id="line2d_50">
    <path d="M 333.429677 27.513663 
L 363.933742 161.196832 
" style="fill:none;stroke:#ff00ff;stroke-linecap:square;stroke-width:1.5;"/>
    <g>
     <use style="fill-opacity:0;stroke:#ff00ff;stroke-linejoin:miter;stroke-width:1.5;" x="333.429677" xlink:href="#mb7023c54df" y="27.513663"/>
     <use style="fill-opacity:0;stroke:#ff00ff;stroke-linejoin:miter;stroke-width:1.5;" x="363.933742" xlink:href="#mb7023c54df" y="161.196832"/>
    </g>
   </g>
   <g id="line2d_51">
    <path d="M 333.429677 27.513663 
L 363.933742 97.028911 
" style="fill:none;stroke:#ff0000;stroke-linecap:square;stroke-width:1.5;"/>
    <g>
     <use style="fill-opacity:0;stroke:#ff0000;stroke-linejoin:miter;stroke-width:1.5;" x="333.429677" xlink:href="#mdabd551bb1" y="27.513663"/>
     <use style="fill-opacity:0;stroke:#ff0000;stroke-linejoin:miter;stroke-width:1.5;" x="363.933742" xlink:href="#mdabd551bb1" y="97.028911"/>
    </g>
   </g>
   <g id="line2d_52">
    <path d="M 333.429677 294.88 
L 333.429677 27.513663 
" style="fill:none;stroke:#000000;stroke-linecap:square;stroke-width:1.5;"/>
   </g>
   <g id="patch_3">
    <path d="M 56.12 294.88 
L 56.12 24.84 
" style="fill:none;stroke:#000000;stroke-linecap:square;stroke-linejoin:miter;stroke-width:0.8;"/>
   </g>
   <g id="patch_4">
    <path d="M 399.984 294.88 
L 399.984 24.84 
" style="fill:none;stroke:#000000;stroke-linecap:square;stroke-linejoin:miter;stroke-width:0.8;"/>
   </g>
   <g id="patch_5">
    <path d="M 56.12 294.88 
L 399.984 294.88 
" style="fill:none;stroke:#000000;stroke-linecap:square;stroke-linejoin:miter;stroke-width:0.8;"/>
   </g>
   <g id="patch_6">
    <path d="M 56.12 24.84 
L 399.984 24.84 
" style="fill:none;stroke:#000000;stroke-linecap:square;stroke-linejoin:miter;stroke-width:0.8;"/>
   </g>
   <g id="text_14">
    <!-- GA -->
    <defs>
     <path d="M 59.515625 10.40625 
L 59.515625 29.984375 
L 43.40625 29.984375 
L 43.40625 38.09375 
L 69.28125 38.09375 
L 69.28125 6.78125 
Q 63.578125 2.734375 56.6875 0.65625 
Q 49.8125 -1.421875 42 -1.421875 
Q 24.90625 -1.421875 15.25 8.5625 
Q 5.609375 18.5625 5.609375 36.375 
Q 5.609375 54.25 15.25 64.234375 
Q 24.90625 74.21875 42 74.21875 
Q 49.125 74.21875 55.546875 72.453125 
Q 61.96875 70.703125 67.390625 67.28125 
L 67.390625 56.78125 
Q 61.921875 61.421875 55.765625 63.765625 
Q 49.609375 66.109375 42.828125 66.109375 
Q 29.4375 66.109375 22.71875 58.640625 
Q 16.015625 51.171875 16.015625 36.375 
Q 16.015625 21.625 22.71875 14.15625 
Q 29.4375 6.6875 42.828125 6.6875 
Q 48.046875 6.6875 52.140625 7.59375 
Q 56.25 8.5 59.515625 10.40625 
z
" id="DejaVuSans-47"/>
     <path d="M 34.1875 63.1875 
L 20.796875 26.90625 
L 47.609375 26.90625 
z
M 28.609375 72.90625 
L 39.796875 72.90625 
L 67.578125 0 
L 57.328125 0 
L 50.6875 18.703125 
L 17.828125 18.703125 
L 11.1875 0 
L 0.78125 0 
z
" id="DejaVuSans-41"/>
    </defs>
    <g transform="translate(369.479935 294.223611)scale(0.17 -0.17)">
     <use xlink:href="#DejaVuSans-47"/>
     <use x="77.490234" xlink:href="#DejaVuSans-41"/>
    </g>
   </g>
   <g id="text_15">
    <!-- ALPS -->
    <defs>
     <path d="M 9.8125 72.90625 
L 19.671875 72.90625 
L 19.671875 8.296875 
L 55.171875 8.296875 
L 55.171875 0 
L 9.8125 0 
z
" id="DejaVuSans-4c"/>
     <path d="M 19.671875 64.796875 
L 19.671875 37.40625 
L 32.078125 37.40625 
Q 38.96875 37.40625 42.71875 40.96875 
Q 46.484375 44.53125 46.484375 51.125 
Q 46.484375 57.671875 42.71875 61.234375 
Q 38.96875 64.796875 32.078125 64.796875 
z
M 9.8125 72.90625 
L 32.078125 72.90625 
Q 44.34375 72.90625 50.609375 67.359375 
Q 56.890625 61.8125 56.890625 51.125 
Q 56.890625 40.328125 50.609375 34.8125 
Q 44.34375 29.296875 32.078125 29.296875 
L 19.671875 29.296875 
L 19.671875 0 
L 9.8125 0 
z
" id="DejaVuSans-50"/>
     <path d="M 53.515625 70.515625 
L 53.515625 60.890625 
Q 47.90625 63.578125 42.921875 64.890625 
Q 37.9375 66.21875 33.296875 66.21875 
Q 25.25 66.21875 20.875 63.09375 
Q 16.5 59.96875 16.5 54.203125 
Q 16.5 49.359375 19.40625 46.890625 
Q 22.3125 44.4375 30.421875 42.921875 
L 36.375 41.703125 
Q 47.40625 39.59375 52.65625 34.296875 
Q 57.90625 29 57.90625 20.125 
Q 57.90625 9.515625 50.796875 4.046875 
Q 43.703125 -1.421875 29.984375 -1.421875 
Q 24.8125 -1.421875 18.96875 -0.25 
Q 13.140625 0.921875 6.890625 3.21875 
L 6.890625 13.375 
Q 12.890625 10.015625 18.65625 8.296875 
Q 24.421875 6.59375 29.984375 6.59375 
Q 38.421875 6.59375 43.015625 9.90625 
Q 47.609375 13.234375 47.609375 19.390625 
Q 47.609375 24.75 44.3125 27.78125 
Q 41.015625 30.8125 33.5 32.328125 
L 27.484375 33.5 
Q 16.453125 35.6875 11.515625 40.375 
Q 6.59375 45.0625 6.59375 53.421875 
Q 6.59375 63.09375 13.40625 68.65625 
Q 20.21875 74.21875 32.171875 74.21875 
Q 37.3125 74.21875 42.625 73.28125 
Q 47.953125 72.359375 53.515625 70.515625 
z
" id="DejaVuSans-53"/>
    </defs>
    <g transform="translate(369.479935 230.05569)scale(0.17 -0.17)">
     <use xlink:href="#DejaVuSans-41"/>
     <use x="68.408203" xlink:href="#DejaVuSans-4c"/>
     <use x="124.121094" xlink:href="#DejaVuSans-50"/>
     <use x="184.423828" xlink:href="#DejaVuSans-53"/>
    </g>
   </g>
   <g id="text_16">
    <!-- DASA -->
    <defs>
     <path d="M 19.671875 64.796875 
L 19.671875 8.109375 
L 31.59375 8.109375 
Q 46.6875 8.109375 53.6875 14.9375 
Q 60.6875 21.78125 60.6875 36.53125 
Q 60.6875 51.171875 53.6875 57.984375 
Q 46.6875 64.796875 31.59375 64.796875 
z
M 9.8125 72.90625 
L 30.078125 72.90625 
Q 51.265625 72.90625 61.171875 64.09375 
Q 71.09375 55.28125 71.09375 36.53125 
Q 71.09375 17.671875 61.125 8.828125 
Q 51.171875 0 30.078125 0 
L 9.8125 0 
z
" id="DejaVuSans-44"/>
    </defs>
    <g transform="translate(369.479935 165.887769)scale(0.17 -0.17)">
     <use xlink:href="#DejaVuSans-44"/>
     <use x="76.986328" xlink:href="#DejaVuSans-41"/>
     <use x="145.394531" xlink:href="#DejaVuSans-53"/>
     <use x="208.886719" xlink:href="#DejaVuSans-41"/>
    </g>
   </g>
   <g id="text_17">
    <!-- Rosenbroc -->
    <defs>
     <path d="M 44.390625 34.1875 
Q 47.5625 33.109375 50.5625 29.59375 
Q 53.5625 26.078125 56.59375 19.921875 
L 66.609375 0 
L 56 0 
L 46.6875 18.703125 
Q 43.0625 26.03125 39.671875 28.421875 
Q 36.28125 30.8125 30.421875 30.8125 
L 19.671875 30.8125 
L 19.671875 0 
L 9.8125 0 
L 9.8125 72.90625 
L 32.078125 72.90625 
Q 44.578125 72.90625 50.734375 67.671875 
Q 56.890625 62.453125 56.890625 51.90625 
Q 56.890625 45.015625 53.6875 40.46875 
Q 50.484375 35.9375 44.390625 34.1875 
z
M 19.671875 64.796875 
L 19.671875 38.921875 
L 32.078125 38.921875 
Q 39.203125 38.921875 42.84375 42.21875 
Q 46.484375 45.515625 46.484375 51.90625 
Q 46.484375 58.296875 42.84375 61.546875 
Q 39.203125 64.796875 32.078125 64.796875 
z
" id="DejaVuSans-52"/>
     <path d="M 48.6875 27.296875 
Q 48.6875 37.203125 44.609375 42.84375 
Q 40.53125 48.484375 33.40625 48.484375 
Q 26.265625 48.484375 22.1875 42.84375 
Q 18.109375 37.203125 18.109375 27.296875 
Q 18.109375 17.390625 22.1875 11.75 
Q 26.265625 6.109375 33.40625 6.109375 
Q 40.53125 6.109375 44.609375 11.75 
Q 48.6875 17.390625 48.6875 27.296875 
z
M 18.109375 46.390625 
Q 20.953125 51.265625 25.265625 53.625 
Q 29.59375 56 35.59375 56 
Q 45.5625 56 51.78125 48.09375 
Q 58.015625 40.1875 58.015625 27.296875 
Q 58.015625 14.40625 51.78125 6.484375 
Q 45.5625 -1.421875 35.59375 -1.421875 
Q 29.59375 -1.421875 25.265625 0.953125 
Q 20.953125 3.328125 18.109375 8.203125 
L 18.109375 0 
L 9.078125 0 
L 9.078125 75.984375 
L 18.109375 75.984375 
z
" id="DejaVuSans-62"/>
    </defs>
    <g transform="translate(369.479935 101.719848)scale(0.17 -0.17)">
     <use xlink:href="#DejaVuSans-52"/>
     <use x="69.419922" xlink:href="#DejaVuSans-6f"/>
     <use x="130.601562" xlink:href="#DejaVuSans-73"/>
     <use x="182.701172" xlink:href="#DejaVuSans-65"/>
     <use x="244.224609" xlink:href="#DejaVuSans-6e"/>
     <use x="307.603516" xlink:href="#DejaVuSans-62"/>
     <use x="371.080078" xlink:href="#DejaVuSans-72"/>
     <use x="412.162109" xlink:href="#DejaVuSans-6f"/>
     <use x="473.34375" xlink:href="#DejaVuSans-63"/>
    </g>
   </g>
   <g id="text_18">
    <!-- best 2009 -->
    <defs>
     <path d="M 10.984375 1.515625 
L 10.984375 10.5 
Q 14.703125 8.734375 18.5 7.8125 
Q 22.3125 6.890625 25.984375 6.890625 
Q 35.75 6.890625 40.890625 13.453125 
Q 46.046875 20.015625 46.78125 33.40625 
Q 43.953125 29.203125 39.59375 26.953125 
Q 35.25 24.703125 29.984375 24.703125 
Q 19.046875 24.703125 12.671875 31.3125 
Q 6.296875 37.9375 6.296875 49.421875 
Q 6.296875 60.640625 12.9375 67.421875 
Q 19.578125 74.21875 30.609375 74.21875 
Q 43.265625 74.21875 49.921875 64.515625 
Q 56.59375 54.828125 56.59375 36.375 
Q 56.59375 19.140625 48.40625 8.859375 
Q 40.234375 -1.421875 26.421875 -1.421875 
Q 22.703125 -1.421875 18.890625 -0.6875 
Q 15.09375 0.046875 10.984375 1.515625 
z
M 30.609375 32.421875 
Q 37.25 32.421875 41.125 36.953125 
Q 45.015625 41.5 45.015625 49.421875 
Q 45.015625 57.28125 41.125 61.84375 
Q 37.25 66.40625 30.609375 66.40625 
Q 23.96875 66.40625 20.09375 61.84375 
Q 16.21875 57.28125 16.21875 49.421875 
Q 16.21875 41.5 20.09375 36.953125 
Q 23.96875 32.421875 30.609375 32.421875 
z
" id="DejaVuSans-39"/>
    </defs>
    <g transform="translate(369.479935 37.551928)scale(0.17 -0.17)">
     <use xlink:href="#DejaVuSans-62"/>
     <use x="63.476562" xlink:href="#DejaVuSans-65"/>
     <use x="125" xlink:href="#DejaVuSans-73"/>
     <use x="177.099609" xlink:href="#DejaVuSans-74"/>
     <use x="216.308594" xlink:href="#DejaVuSans-20"/>
     <use x="248.095703" xlink:href="#DejaVuSans-32"/>
     <use x="311.71875" xlink:href="#DejaVuSans-30"/>
     <use x="375.341797" xlink:href="#DejaVuSans-30"/>
     <use x="438.964844" xlink:href="#DejaVuSans-39"/>
    </g>
   </g>
   <g id="text_19">
    <!-- bbob f22, 40-D -->
    <g transform="translate(59.55864 35.290806)scale(0.102 -0.102)">
     <use xlink:href="#DejaVuSans-62"/>
     <use x="63.476562" xlink:href="#DejaVuSans-62"/>
     <use x="126.953125" xlink:href="#DejaVuSans-6f"/>
     <use x="188.134766" xlink:href="#DejaVuSans-62"/>
     <use x="251.611328" xlink:href="#DejaVuSans-20"/>
     <use x="283.398438" xlink:href="#DejaVuSans-66"/>
     <use x="318.603516" xlink:href="#DejaVuSans-32"/>
     <use x="382.226562" xlink:href="#DejaVuSans-32"/>
     <use x="445.849609" xlink:href="#DejaVuSans-2c"/>
     <use x="477.636719" xlink:href="#DejaVuSans-20"/>
     <use x="509.423828" xlink:href="#DejaVuSans-34"/>
     <use x="573.046875" xlink:href="#DejaVuSans-30"/>
     <use x="636.669922" xlink:href="#DejaVuSans-2d"/>
     <use x="672.753906" xlink:href="#DejaVuSans-44"/>
    </g>
    <!-- 51 targets: 100..1e-08 -->
    <defs>
     <path d="M 10.796875 72.90625 
L 49.515625 72.90625 
L 49.515625 64.59375 
L 19.828125 64.59375 
L 19.828125 46.734375 
Q 21.96875 47.46875 24.109375 47.828125 
Q 26.265625 48.1875 28.421875 48.1875 
Q 40.625 48.1875 47.75 41.5 
Q 54.890625 34.8125 54.890625 23.390625 
Q 54.890625 11.625 47.5625 5.09375 
Q 40.234375 -1.421875 26.90625 -1.421875 
Q 22.3125 -1.421875 17.546875 -0.640625 
Q 12.796875 0.140625 7.71875 1.703125 
L 7.71875 11.625 
Q 12.109375 9.234375 16.796875 8.0625 
Q 21.484375 6.890625 26.703125 6.890625 
Q 35.15625 6.890625 40.078125 11.328125 
Q 45.015625 15.765625 45.015625 23.390625 
Q 45.015625 31 40.078125 35.4375 
Q 35.15625 39.890625 26.703125 39.890625 
Q 22.75 39.890625 18.8125 39.015625 
Q 14.890625 38.140625 10.796875 36.28125 
z
" id="DejaVuSans-35"/>
     <path d="M 11.71875 12.40625 
L 22.015625 12.40625 
L 22.015625 0 
L 11.71875 0 
z
M 11.71875 51.703125 
L 22.015625 51.703125 
L 22.015625 39.3125 
L 11.71875 39.3125 
z
" id="DejaVuSans-3a"/>
    </defs>
    <g transform="translate(59.55864 46.712575)scale(0.102 -0.102)">
     <use xlink:href="#DejaVuSans-35"/>
     <use x="63.623047" xlink:href="#DejaVuSans-31"/>
     <use x="127.246094" xlink:href="#DejaVuSans-20"/>
     <use x="159.033203" xlink:href="#DejaVuSans-74"/>
     <use x="198.242188" xlink:href="#DejaVuSans-61"/>
     <use x="259.521484" xlink:href="#DejaVuSans-72"/>
     <use x="300.619141" xlink:href="#DejaVuSans-67"/>
     <use x="364.095703" xlink:href="#DejaVuSans-65"/>
     <use x="425.619141" xlink:href="#DejaVuSans-74"/>
     <use x="464.828125" xlink:href="#DejaVuSans-73"/>
     <use x="516.927734" xlink:href="#DejaVuSans-3a"/>
     <use x="550.619141" xlink:href="#DejaVuSans-20"/>
     <use x="582.40625" xlink:href="#DejaVuSans-31"/>
     <use x="646.029297" xlink:href="#DejaVuSans-30"/>
     <use x="709.652344" xlink:href="#DejaVuSans-30"/>
     <use x="773.275391" xlink:href="#DejaVuSans-2e"/>
     <use x="805.0625" xlink:href="#DejaVuSans-2e"/>
     <use x="836.849609" xlink:href="#DejaVuSans-31"/>
     <use x="900.472656" xlink:href="#DejaVuSans-65"/>
     <use x="961.996094" xlink:href="#DejaVuSans-2d"/>
     <use x="998.080078" xlink:href="#DejaVuSans-30"/>
     <use x="1061.703125" xlink:href="#DejaVuSans-38"/>
    </g>
    <!-- 15 instances -->
    <g transform="translate(59.55864 58.134344)scale(0.102 -0.102)">
     <use xlink:href="#DejaVuSans-31"/>
     <use x="63.623047" xlink:href="#DejaVuSans-35"/>
     <use x="127.246094" xlink:href="#DejaVuSans-20"/>
     <use x="159.033203" xlink:href="#DejaVuSans-69"/>
     <use x="186.816406" xlink:href="#DejaVuSans-6e"/>
     <use x="250.195312" xlink:href="#DejaVuSans-73"/>
     <use x="302.294922" xlink:href="#DejaVuSans-74"/>
     <use x="341.503906" xlink:href="#DejaVuSans-61"/>
     <use x="402.783203" xlink:href="#DejaVuSans-6e"/>
     <use x="466.162109" xlink:href="#DejaVuSans-63"/>
     <use x="521.142578" xlink:href="#DejaVuSans-65"/>
     <use x="582.666016" xlink:href="#DejaVuSans-73"/>
    </g>
   </g>
   <g id="text_20">
    <!-- v-coco-version -->
    <g style="fill:#808080;" transform="translate(191.556688 290.099912)scale(0.1 -0.1)">
     <use xlink:href="#DejaVuSans-76"/>
     <use x="59.148438" xlink:href="#DejaVuSans-2d"/>
     <use x="95.232422" xlink:href="#DejaVuSans-63"/>
     <use x="150.212891" xlink:href="#DejaVuSans-6f"/>
     <use x="211.394531" xlink:href="#DejaVuSans-63"/>
     <use x="266.375" xlink:href="#DejaVuSans-6f"/>
     <use x="327.572266" xlink:href="#DejaVuSans-2d"/>
     <use x="363.625" xlink:href="#DejaVuSans-76"/>
     <use x="422.804688" xlink:href="#DejaVuSans-65"/>
     <use x="484.328125" xlink:href="#DejaVuSans-72"/>
     <use x="525.441406" xlink:href="#DejaVuSans-73"/>
     <use x="577.541016" xlink:href="#DejaVuSans-69"/>
     <use x="605.324219" xlink:href="#DejaVuSans-6f"/>
     <use x="666.505859" xlink:href="#DejaVuSans-6e"/>
    </g>
   </g>
   <g id="text_21">
    <!-- 22 Gallagher 21 peaks -->
    <defs>
     <path d="M 54.890625 33.015625 
L 54.890625 0 
L 45.90625 0 
L 45.90625 32.71875 
Q 45.90625 40.484375 42.875 44.328125 
Q 39.84375 48.1875 33.796875 48.1875 
Q 26.515625 48.1875 22.3125 43.546875 
Q 18.109375 38.921875 18.109375 30.90625 
L 18.109375 0 
L 9.078125 0 
L 9.078125 75.984375 
L 18.109375 75.984375 
L 18.109375 46.1875 
Q 21.34375 51.125 25.703125 53.5625 
Q 30.078125 56 35.796875 56 
Q 45.21875 56 50.046875 50.171875 
Q 54.890625 44.34375 54.890625 33.015625 
z
" id="DejaVuSans-68"/>
     <path d="M 9.078125 75.984375 
L 18.109375 75.984375 
L 18.109375 31.109375 
L 44.921875 54.6875 
L 56.390625 54.6875 
L 27.390625 29.109375 
L 57.625 0 
L 45.90625 0 
L 18.109375 26.703125 
L 18.109375 0 
L 9.078125 0 
z
" id="DejaVuSans-6b"/>
    </defs>
    <g transform="translate(114.927 18.84)scale(0.2 -0.2)">
     <use xlink:href="#DejaVuSans-32"/>
     <use x="63.623047" xlink:href="#DejaVuSans-32"/>
     <use x="127.246094" xlink:href="#DejaVuSans-20"/>
     <use x="159.033203" xlink:href="#DejaVuSans-47"/>
     <use x="236.523438" xlink:href="#DejaVuSans-61"/>
     <use x="297.802734" xlink:href="#DejaVuSans-6c"/>
     <use x="325.585938" xlink:href="#DejaVuSans-6c"/>
     <use x="353.369141" xlink:href="#DejaVuSans-61"/>
     <use x="414.648438" xlink:href="#DejaVuSans-67"/>
     <use x="478.125" xlink:href="#DejaVuSans-68"/>
     <use x="541.503906" xlink:href="#DejaVuSans-65"/>
     <use x="603.027344" xlink:href="#DejaVuSans-72"/>
     <use x="644.140625" xlink:href="#DejaVuSans-20"/>
     <use x="675.927734" xlink:href="#DejaVuSans-32"/>
     <use x="739.550781" xlink:href="#DejaVuSans-31"/>
     <use x="803.173828" xlink:href="#DejaVuSans-20"/>
     <use x="834.960938" xlink:href="#DejaVuSans-70"/>
     <use x="898.4375" xlink:href="#DejaVuSans-65"/>
     <use x="959.960938" xlink:href="#DejaVuSans-61"/>
     <use x="1021.240234" xlink:href="#DejaVuSans-6b"/>
     <use x="1079.150391" xlink:href="#DejaVuSans-73"/>
    </g>
   </g>
  </g>
 </g>
 <defs>
  <clipPath id="p39fe56da63">
   <rect height="270.04" width="343.864" x="56.12" y="24.84"/>
  </clipPath>
 </defs>
</svg>
