<?xml version="1.0" encoding="utf-8" standalone="no"?>
<!DOCTYPE svg PUBLIC "-//W3C//DTD SVG 1.1//EN"
  "http://www.w3.org/Graphics/SVG/1.1/DTD/svg11.dtd">
<!-- Created with matplotlib (http://matplotlib.org/) -->
<svg height="345.6pt" version="1.1" viewBox="0 0 460.8 345.6" width="460.8pt" xmlns="http://www.w3.org/2000/svg" xmlns:xlink="http://www.w3.org/1999/xlink">
 <defs>
  <style type="text/css">
*{stroke-linecap:butt;stroke-linejoin:round;}
  </style>
 </defs>
 <g id="figure_1">
  <g id="patch_1">
   <path d="M 0 345.6 
L 460.8 345.6 
L 460.8 0 
L 0 0 
z
" style="fill:#ffffff;"/>
  </g>
  <g id="axes_1">
   <g id="patch_2">
    <path d="M 56.12 294.88 
L 399.984 294.88 
L 399.984 24.84 
L 56.12 24.84 
z
" style="fill:#ffffff;"/>
   </g>
   <g id="line2d_1">
    <path d="M -1 289.637523 
L 79.971009 289.637523 
L 79.971009 284.395046 
L 91.070521 284.395046 
L 91.070521 279.152568 
L 94.853174 279.152568 
L 94.853174 273.910091 
L 107.313588 273.910091 
L 107.313588 268.667614 
L 112.24116 268.667614 
L 112.24116 263.425137 
L 127.333669 263.425137 
L 127.333669 258.18266 
L 129.983852 258.18266 
L 129.983852 252.940182 
L 134.268466 252.940182 
L 134.268466 247.697705 
L 151.407712 247.697705 
L 151.407712 242.455228 
L 163.998502 242.455228 
L 163.998502 237.212751 
L 190.817474 237.212751 
L 190.817474 231.970274 
L 190.83373 231.970274 
L 190.83373 226.727797 
L 190.83715 226.727797 
L 190.83715 221.485319 
L 190.840398 221.485319 
L 190.840398 216.242842 
L 190.853216 216.242842 
L 190.853216 211.000365 
L 190.859536 211.000365 
L 190.859536 205.757888 
L 190.870121 205.757888 
L 190.870121 200.515411 
L 190.878311 200.515411 
L 190.878311 195.272933 
L 190.888373 195.272933 
L 190.888373 190.030456 
L 190.903028 190.030456 
L 190.903028 184.787979 
L 190.909671 184.787979 
L 190.909671 179.545502 
L 190.920054 179.545502 
L 190.920054 174.303025 
L 190.941313 174.303025 
L 190.941313 169.060547 
L 190.94828 169.060547 
L 190.94828 163.81807 
L 190.956433 163.81807 
L 190.956433 158.575593 
L 190.976799 158.575593 
L 190.976799 153.333116 
L 190.982735 153.333116 
L 190.982735 148.090639 
L 190.992058 148.090639 
L 190.992058 142.848162 
L 191.00544 142.848162 
L 191.00544 137.605684 
L 191.015428 137.605684 
L 191.015428 132.363207 
L 191.026255 132.363207 
L 191.026255 127.12073 
L 191.032512 127.12073 
L 191.032512 121.878253 
L 191.047383 121.878253 
L 191.047383 116.635776 
L 191.054477 116.635776 
L 191.054477 111.393298 
L 191.058529 111.393298 
L 191.058529 106.150821 
L 191.072028 106.150821 
L 191.072028 100.908344 
L 191.078268 100.908344 
L 191.078268 95.665867 
L 191.081977 95.665867 
L 191.081977 90.42339 
L 191.09091 90.42339 
L 191.09091 85.180912 
L 191.099501 85.180912 
L 191.099501 79.938435 
L 191.104384 79.938435 
L 191.104384 74.695958 
L 191.113978 74.695958 
L 191.113978 69.453481 
L 191.122221 69.453481 
L 191.122221 64.211004 
L 191.133822 64.211004 
L 191.133822 58.968526 
L 191.141216 58.968526 
L 191.141216 53.726049 
L 191.148102 53.726049 
L 191.148102 48.483572 
L 191.167572 48.483572 
L 191.167572 43.241095 
L 191.172771 43.241095 
L 191.172771 37.998618 
L 191.177969 37.998618 
L 191.177969 32.756141 
L 191.200418 32.756141 
L 191.200418 27.513663 
L 333.429677 27.513663 
" style="fill:none;stroke:#f5deb3;stroke-linecap:square;stroke-width:6;"/>
   </g>
   <g id="line2d_2">
    <defs>
     <path d="M -0 7.778175 
L 7.778175 0 
L 0 -7.778175 
L -7.778175 -0 
z
" id="mb2f49392f0" style="stroke:#f5deb3;stroke-linejoin:miter;stroke-width:1.5;"/>
    </defs>
    <g>
     <use style="fill:#f5deb3;stroke:#f5deb3;stroke-linejoin:miter;stroke-width:1.5;" x="91.070521" xlink:href="#mb2f49392f0" y="284.395046"/>
     <use style="fill:#f5deb3;stroke:#f5deb3;stroke-linejoin:miter;stroke-width:1.5;" x="163.998502" xlink:href="#mb2f49392f0" y="237.212751"/>
     <use style="fill:#f5deb3;stroke:#f5deb3;stroke-linejoin:miter;stroke-width:1.5;" x="191.122221" xlink:href="#mb2f49392f0" y="64.211004"/>
     <use style="fill:#f5deb3;stroke:#f5deb3;stroke-linejoin:miter;stroke-width:1.5;" x="191.200418" xlink:href="#mb2f49392f0" y="27.513663"/>
     <use style="fill:#f5deb3;stroke:#f5deb3;stroke-linejoin:miter;stroke-width:1.5;" x="191.200418" xlink:href="#mb2f49392f0" y="27.513663"/>
     <use style="fill:#f5deb3;stroke:#f5deb3;stroke-linejoin:miter;stroke-width:1.5;" x="333.429677" xlink:href="#mb2f49392f0" y="27.513663"/>
    </g>
   </g>
   <g id="line2d_3">
    <path style="fill:none;stroke:#f5deb3;stroke-linecap:square;stroke-width:6;"/>
    <g/>
   </g>
   <g id="line2d_4">
    <path d="M 333.429677 27.513663 
L 363.933742 32.86099 
" style="fill:none;stroke:#f5deb3;stroke-linecap:square;stroke-width:6;"/>
    <g>
     <use style="fill:#f5deb3;stroke:#f5deb3;stroke-linejoin:miter;stroke-width:1.5;" x="333.429677" xlink:href="#mb2f49392f0" y="27.513663"/>
     <use style="fill:#f5deb3;stroke:#f5deb3;stroke-linejoin:miter;stroke-width:1.5;" x="363.933742" xlink:href="#mb2f49392f0" y="32.86099"/>
    </g>
   </g>
   <g id="matplotlib.axis_1">
    <g id="xtick_1">
     <g id="line2d_5">
      <path clip-path="url(#p2bda0b5139)" d="M 56.12 294.88 
L 56.12 24.84 
" style="fill:none;stroke:#b0b0b0;stroke-linecap:square;stroke-width:0.8;"/>
     </g>
     <g id="line2d_6">
      <defs>
       <path d="M 0 0 
L 0 3.5 
" id="m139187c786" style="stroke:#000000;stroke-width:0.8;"/>
      </defs>
      <g>
       <use style="stroke:#000000;stroke-width:0.8;" x="56.12" xlink:href="#m139187c786" y="294.88"/>
      </g>
     </g>
     <g id="text_1">
      <!-- 0 -->
      <defs>
       <path d="M 31.78125 66.40625 
Q 24.171875 66.40625 20.328125 58.90625 
Q 16.5 51.421875 16.5 36.375 
Q 16.5 21.390625 20.328125 13.890625 
Q 24.171875 6.390625 31.78125 6.390625 
Q 39.453125 6.390625 43.28125 13.890625 
Q 47.125 21.390625 47.125 36.375 
Q 47.125 51.421875 43.28125 58.90625 
Q 39.453125 66.40625 31.78125 66.40625 
z
M 31.78125 74.21875 
Q 44.046875 74.21875 50.515625 64.515625 
Q 56.984375 54.828125 56.984375 36.375 
Q 56.984375 17.96875 50.515625 8.265625 
Q 44.046875 -1.421875 31.78125 -1.421875 
Q 19.53125 -1.421875 13.0625 8.265625 
Q 6.59375 17.96875 6.59375 36.375 
Q 6.59375 54.828125 13.0625 64.515625 
Q 19.53125 74.21875 31.78125 74.21875 
z
" id="DejaVuSans-30"/>
      </defs>
      <g transform="translate(49.7575 317.076875)scale(0.2 -0.2)">
       <use xlink:href="#DejaVuSans-30"/>
      </g>
     </g>
    </g>
    <g id="xtick_2">
     <g id="line2d_7">
      <path clip-path="url(#p2bda0b5139)" d="M 135.351336 294.88 
L 135.351336 24.84 
" style="fill:none;stroke:#b0b0b0;stroke-linecap:square;stroke-width:0.8;"/>
     </g>
     <g id="line2d_8">
      <g>
       <use style="stroke:#000000;stroke-width:0.8;" x="135.351336" xlink:href="#m139187c786" y="294.88"/>
      </g>
     </g>
     <g id="text_2">
      <!-- 2 -->
      <defs>
       <path d="M 19.1875 8.296875 
L 53.609375 8.296875 
L 53.609375 0 
L 7.328125 0 
L 7.328125 8.296875 
Q 12.9375 14.109375 22.625 23.890625 
Q 32.328125 33.6875 34.8125 36.53125 
Q 39.546875 41.84375 41.421875 45.53125 
Q 43.3125 49.21875 43.3125 52.78125 
Q 43.3125 58.59375 39.234375 62.25 
Q 35.15625 65.921875 28.609375 65.921875 
Q 23.96875 65.921875 18.8125 64.3125 
Q 13.671875 62.703125 7.8125 59.421875 
L 7.8125 69.390625 
Q 13.765625 71.78125 18.9375 73 
Q 24.125 74.21875 28.421875 74.21875 
Q 39.75 74.21875 46.484375 68.546875 
Q 53.21875 62.890625 53.21875 53.421875 
Q 53.21875 48.921875 51.53125 44.890625 
Q 49.859375 40.875 45.40625 35.40625 
Q 44.1875 33.984375 37.640625 27.21875 
Q 31.109375 20.453125 19.1875 8.296875 
z
" id="DejaVuSans-32"/>
      </defs>
      <g transform="translate(128.988836 317.076875)scale(0.2 -0.2)">
       <use xlink:href="#DejaVuSans-32"/>
      </g>
     </g>
    </g>
    <g id="xtick_3">
     <g id="line2d_9">
      <path clip-path="url(#p2bda0b5139)" d="M 214.582673 294.88 
L 214.582673 24.84 
" style="fill:none;stroke:#b0b0b0;stroke-linecap:square;stroke-width:0.8;"/>
     </g>
     <g id="line2d_10">
      <g>
       <use style="stroke:#000000;stroke-width:0.8;" x="214.582673" xlink:href="#m139187c786" y="294.88"/>
      </g>
     </g>
     <g id="text_3">
      <!-- 4 -->
      <defs>
       <path d="M 37.796875 64.3125 
L 12.890625 25.390625 
L 37.796875 25.390625 
z
M 35.203125 72.90625 
L 47.609375 72.90625 
L 47.609375 25.390625 
L 58.015625 25.390625 
L 58.015625 17.1875 
L 47.609375 17.1875 
L 47.609375 0 
L 37.796875 0 
L 37.796875 17.1875 
L 4.890625 17.1875 
L 4.890625 26.703125 
z
" id="DejaVuSans-34"/>
      </defs>
      <g transform="translate(208.220173 317.076875)scale(0.2 -0.2)">
       <use xlink:href="#DejaVuSans-34"/>
      </g>
     </g>
    </g>
    <g id="xtick_4">
     <g id="line2d_11">
      <path clip-path="url(#p2bda0b5139)" d="M 293.814009 294.88 
L 293.814009 24.84 
" style="fill:none;stroke:#b0b0b0;stroke-linecap:square;stroke-width:0.8;"/>
     </g>
     <g id="line2d_12">
      <g>
       <use style="stroke:#000000;stroke-width:0.8;" x="293.814009" xlink:href="#m139187c786" y="294.88"/>
      </g>
     </g>
     <g id="text_4">
      <!-- 6 -->
      <defs>
       <path d="M 33.015625 40.375 
Q 26.375 40.375 22.484375 35.828125 
Q 18.609375 31.296875 18.609375 23.390625 
Q 18.609375 15.53125 22.484375 10.953125 
Q 26.375 6.390625 33.015625 6.390625 
Q 39.65625 6.390625 43.53125 10.953125 
Q 47.40625 15.53125 47.40625 23.390625 
Q 47.40625 31.296875 43.53125 35.828125 
Q 39.65625 40.375 33.015625 40.375 
z
M 52.59375 71.296875 
L 52.59375 62.3125 
Q 48.875 64.0625 45.09375 64.984375 
Q 41.3125 65.921875 37.59375 65.921875 
Q 27.828125 65.921875 22.671875 59.328125 
Q 17.53125 52.734375 16.796875 39.40625 
Q 19.671875 43.65625 24.015625 45.921875 
Q 28.375 48.1875 33.59375 48.1875 
Q 44.578125 48.1875 50.953125 41.515625 
Q 57.328125 34.859375 57.328125 23.390625 
Q 57.328125 12.15625 50.6875 5.359375 
Q 44.046875 -1.421875 33.015625 -1.421875 
Q 20.359375 -1.421875 13.671875 8.265625 
Q 6.984375 17.96875 6.984375 36.375 
Q 6.984375 53.65625 15.1875 63.9375 
Q 23.390625 74.21875 37.203125 74.21875 
Q 40.921875 74.21875 44.703125 73.484375 
Q 48.484375 72.75 52.59375 71.296875 
z
" id="DejaVuSans-36"/>
      </defs>
      <g transform="translate(287.451509 317.076875)scale(0.2 -0.2)">
       <use xlink:href="#DejaVuSans-36"/>
      </g>
     </g>
    </g>
    <g id="xtick_5">
     <g id="line2d_13">
      <path clip-path="url(#p2bda0b5139)" d="M 373.045346 294.88 
L 373.045346 24.84 
" style="fill:none;stroke:#b0b0b0;stroke-linecap:square;stroke-width:0.8;"/>
     </g>
     <g id="line2d_14">
      <g>
       <use style="stroke:#000000;stroke-width:0.8;" x="373.045346" xlink:href="#m139187c786" y="294.88"/>
      </g>
     </g>
     <g id="text_5">
      <!-- 8 -->
      <defs>
       <path d="M 31.78125 34.625 
Q 24.75 34.625 20.71875 30.859375 
Q 16.703125 27.09375 16.703125 20.515625 
Q 16.703125 13.921875 20.71875 10.15625 
Q 24.75 6.390625 31.78125 6.390625 
Q 38.8125 6.390625 42.859375 10.171875 
Q 46.921875 13.96875 46.921875 20.515625 
Q 46.921875 27.09375 42.890625 30.859375 
Q 38.875 34.625 31.78125 34.625 
z
M 21.921875 38.8125 
Q 15.578125 40.375 12.03125 44.71875 
Q 8.5 49.078125 8.5 55.328125 
Q 8.5 64.0625 14.71875 69.140625 
Q 20.953125 74.21875 31.78125 74.21875 
Q 42.671875 74.21875 48.875 69.140625 
Q 55.078125 64.0625 55.078125 55.328125 
Q 55.078125 49.078125 51.53125 44.71875 
Q 48 40.375 41.703125 38.8125 
Q 48.828125 37.15625 52.796875 32.3125 
Q 56.78125 27.484375 56.78125 20.515625 
Q 56.78125 9.90625 50.3125 4.234375 
Q 43.84375 -1.421875 31.78125 -1.421875 
Q 19.734375 -1.421875 13.25 4.234375 
Q 6.78125 9.90625 6.78125 20.515625 
Q 6.78125 27.484375 10.78125 32.3125 
Q 14.796875 37.15625 21.921875 38.8125 
z
M 18.3125 54.390625 
Q 18.3125 48.734375 21.84375 45.5625 
Q 25.390625 42.390625 31.78125 42.390625 
Q 38.140625 42.390625 41.71875 45.5625 
Q 45.3125 48.734375 45.3125 54.390625 
Q 45.3125 60.0625 41.71875 63.234375 
Q 38.140625 66.40625 31.78125 66.40625 
Q 25.390625 66.40625 21.84375 63.234375 
Q 18.3125 60.0625 18.3125 54.390625 
z
" id="DejaVuSans-38"/>
      </defs>
      <g transform="translate(366.682846 317.076875)scale(0.2 -0.2)">
       <use xlink:href="#DejaVuSans-38"/>
      </g>
     </g>
    </g>
    <g id="text_6">
     <!-- log10(# f-evals / dimension) -->
     <defs>
      <path d="M 9.421875 75.984375 
L 18.40625 75.984375 
L 18.40625 0 
L 9.421875 0 
z
" id="DejaVuSans-6c"/>
      <path d="M 30.609375 48.390625 
Q 23.390625 48.390625 19.1875 42.75 
Q 14.984375 37.109375 14.984375 27.296875 
Q 14.984375 17.484375 19.15625 11.84375 
Q 23.34375 6.203125 30.609375 6.203125 
Q 37.796875 6.203125 41.984375 11.859375 
Q 46.1875 17.53125 46.1875 27.296875 
Q 46.1875 37.015625 41.984375 42.703125 
Q 37.796875 48.390625 30.609375 48.390625 
z
M 30.609375 56 
Q 42.328125 56 49.015625 48.375 
Q 55.71875 40.765625 55.71875 27.296875 
Q 55.71875 13.875 49.015625 6.21875 
Q 42.328125 -1.421875 30.609375 -1.421875 
Q 18.84375 -1.421875 12.171875 6.21875 
Q 5.515625 13.875 5.515625 27.296875 
Q 5.515625 40.765625 12.171875 48.375 
Q 18.84375 56 30.609375 56 
z
" id="DejaVuSans-6f"/>
      <path d="M 45.40625 27.984375 
Q 45.40625 37.75 41.375 43.109375 
Q 37.359375 48.484375 30.078125 48.484375 
Q 22.859375 48.484375 18.828125 43.109375 
Q 14.796875 37.75 14.796875 27.984375 
Q 14.796875 18.265625 18.828125 12.890625 
Q 22.859375 7.515625 30.078125 7.515625 
Q 37.359375 7.515625 41.375 12.890625 
Q 45.40625 18.265625 45.40625 27.984375 
z
M 54.390625 6.78125 
Q 54.390625 -7.171875 48.1875 -13.984375 
Q 42 -20.796875 29.203125 -20.796875 
Q 24.46875 -20.796875 20.265625 -20.09375 
Q 16.0625 -19.390625 12.109375 -17.921875 
L 12.109375 -9.1875 
Q 16.0625 -11.328125 19.921875 -12.34375 
Q 23.78125 -13.375 27.78125 -13.375 
Q 36.625 -13.375 41.015625 -8.765625 
Q 45.40625 -4.15625 45.40625 5.171875 
L 45.40625 9.625 
Q 42.625 4.78125 38.28125 2.390625 
Q 33.9375 0 27.875 0 
Q 17.828125 0 11.671875 7.65625 
Q 5.515625 15.328125 5.515625 27.984375 
Q 5.515625 40.671875 11.671875 48.328125 
Q 17.828125 56 27.875 56 
Q 33.9375 56 38.28125 53.609375 
Q 42.625 51.21875 45.40625 46.390625 
L 45.40625 54.6875 
L 54.390625 54.6875 
z
" id="DejaVuSans-67"/>
      <path d="M 12.40625 8.296875 
L 28.515625 8.296875 
L 28.515625 63.921875 
L 10.984375 60.40625 
L 10.984375 69.390625 
L 28.421875 72.90625 
L 38.28125 72.90625 
L 38.28125 8.296875 
L 54.390625 8.296875 
L 54.390625 0 
L 12.40625 0 
z
" id="DejaVuSans-31"/>
      <path d="M 31 75.875 
Q 24.46875 64.65625 21.28125 53.65625 
Q 18.109375 42.671875 18.109375 31.390625 
Q 18.109375 20.125 21.3125 9.0625 
Q 24.515625 -2 31 -13.1875 
L 23.1875 -13.1875 
Q 15.875 -1.703125 12.234375 9.375 
Q 8.59375 20.453125 8.59375 31.390625 
Q 8.59375 42.28125 12.203125 53.3125 
Q 15.828125 64.359375 23.1875 75.875 
z
" id="DejaVuSans-28"/>
      <path d="M 51.125 44 
L 36.921875 44 
L 32.8125 27.6875 
L 47.125 27.6875 
z
M 43.796875 71.78125 
L 38.71875 51.515625 
L 52.984375 51.515625 
L 58.109375 71.78125 
L 65.921875 71.78125 
L 60.890625 51.515625 
L 76.125 51.515625 
L 76.125 44 
L 58.984375 44 
L 54.984375 27.6875 
L 70.515625 27.6875 
L 70.515625 20.21875 
L 53.078125 20.21875 
L 48 0 
L 40.1875 0 
L 45.21875 20.21875 
L 30.90625 20.21875 
L 25.875 0 
L 18.015625 0 
L 23.09375 20.21875 
L 7.71875 20.21875 
L 7.71875 27.6875 
L 24.90625 27.6875 
L 29 44 
L 13.28125 44 
L 13.28125 51.515625 
L 30.90625 51.515625 
L 35.890625 71.78125 
z
" id="DejaVuSans-23"/>
      <path id="DejaVuSans-20"/>
      <path d="M 37.109375 75.984375 
L 37.109375 68.5 
L 28.515625 68.5 
Q 23.6875 68.5 21.796875 66.546875 
Q 19.921875 64.59375 19.921875 59.515625 
L 19.921875 54.6875 
L 34.71875 54.6875 
L 34.71875 47.703125 
L 19.921875 47.703125 
L 19.921875 0 
L 10.890625 0 
L 10.890625 47.703125 
L 2.296875 47.703125 
L 2.296875 54.6875 
L 10.890625 54.6875 
L 10.890625 58.5 
Q 10.890625 67.625 15.140625 71.796875 
Q 19.390625 75.984375 28.609375 75.984375 
z
" id="DejaVuSans-66"/>
      <path d="M 4.890625 31.390625 
L 31.203125 31.390625 
L 31.203125 23.390625 
L 4.890625 23.390625 
z
" id="DejaVuSans-2d"/>
      <path d="M 56.203125 29.59375 
L 56.203125 25.203125 
L 14.890625 25.203125 
Q 15.484375 15.921875 20.484375 11.0625 
Q 25.484375 6.203125 34.421875 6.203125 
Q 39.59375 6.203125 44.453125 7.46875 
Q 49.3125 8.734375 54.109375 11.28125 
L 54.109375 2.78125 
Q 49.265625 0.734375 44.1875 -0.34375 
Q 39.109375 -1.421875 33.890625 -1.421875 
Q 20.796875 -1.421875 13.15625 6.1875 
Q 5.515625 13.8125 5.515625 26.8125 
Q 5.515625 40.234375 12.765625 48.109375 
Q 20.015625 56 32.328125 56 
Q 43.359375 56 49.78125 48.890625 
Q 56.203125 41.796875 56.203125 29.59375 
z
M 47.21875 32.234375 
Q 47.125 39.59375 43.09375 43.984375 
Q 39.0625 48.390625 32.421875 48.390625 
Q 24.90625 48.390625 20.390625 44.140625 
Q 15.875 39.890625 15.1875 32.171875 
z
" id="DejaVuSans-65"/>
      <path d="M 2.984375 54.6875 
L 12.5 54.6875 
L 29.59375 8.796875 
L 46.6875 54.6875 
L 56.203125 54.6875 
L 35.6875 0 
L 23.484375 0 
z
" id="DejaVuSans-76"/>
      <path d="M 34.28125 27.484375 
Q 23.390625 27.484375 19.1875 25 
Q 14.984375 22.515625 14.984375 16.5 
Q 14.984375 11.71875 18.140625 8.90625 
Q 21.296875 6.109375 26.703125 6.109375 
Q 34.1875 6.109375 38.703125 11.40625 
Q 43.21875 16.703125 43.21875 25.484375 
L 43.21875 27.484375 
z
M 52.203125 31.203125 
L 52.203125 0 
L 43.21875 0 
L 43.21875 8.296875 
Q 40.140625 3.328125 35.546875 0.953125 
Q 30.953125 -1.421875 24.3125 -1.421875 
Q 15.921875 -1.421875 10.953125 3.296875 
Q 6 8.015625 6 15.921875 
Q 6 25.140625 12.171875 29.828125 
Q 18.359375 34.515625 30.609375 34.515625 
L 43.21875 34.515625 
L 43.21875 35.40625 
Q 43.21875 41.609375 39.140625 45 
Q 35.0625 48.390625 27.6875 48.390625 
Q 23 48.390625 18.546875 47.265625 
Q 14.109375 46.140625 10.015625 43.890625 
L 10.015625 52.203125 
Q 14.9375 54.109375 19.578125 55.046875 
Q 24.21875 56 28.609375 56 
Q 40.484375 56 46.34375 49.84375 
Q 52.203125 43.703125 52.203125 31.203125 
z
" id="DejaVuSans-61"/>
      <path d="M 44.28125 53.078125 
L 44.28125 44.578125 
Q 40.484375 46.53125 36.375 47.5 
Q 32.28125 48.484375 27.875 48.484375 
Q 21.1875 48.484375 17.84375 46.4375 
Q 14.5 44.390625 14.5 40.28125 
Q 14.5 37.15625 16.890625 35.375 
Q 19.28125 33.59375 26.515625 31.984375 
L 29.59375 31.296875 
Q 39.15625 29.25 43.1875 25.515625 
Q 47.21875 21.78125 47.21875 15.09375 
Q 47.21875 7.46875 41.1875 3.015625 
Q 35.15625 -1.421875 24.609375 -1.421875 
Q 20.21875 -1.421875 15.453125 -0.5625 
Q 10.6875 0.296875 5.421875 2 
L 5.421875 11.28125 
Q 10.40625 8.6875 15.234375 7.390625 
Q 20.0625 6.109375 24.8125 6.109375 
Q 31.15625 6.109375 34.5625 8.28125 
Q 37.984375 10.453125 37.984375 14.40625 
Q 37.984375 18.0625 35.515625 20.015625 
Q 33.0625 21.96875 24.703125 23.78125 
L 21.578125 24.515625 
Q 13.234375 26.265625 9.515625 29.90625 
Q 5.8125 33.546875 5.8125 39.890625 
Q 5.8125 47.609375 11.28125 51.796875 
Q 16.75 56 26.8125 56 
Q 31.78125 56 36.171875 55.265625 
Q 40.578125 54.546875 44.28125 53.078125 
z
" id="DejaVuSans-73"/>
      <path d="M 25.390625 72.90625 
L 33.6875 72.90625 
L 8.296875 -9.28125 
L 0 -9.28125 
z
" id="DejaVuSans-2f"/>
      <path d="M 45.40625 46.390625 
L 45.40625 75.984375 
L 54.390625 75.984375 
L 54.390625 0 
L 45.40625 0 
L 45.40625 8.203125 
Q 42.578125 3.328125 38.25 0.953125 
Q 33.9375 -1.421875 27.875 -1.421875 
Q 17.96875 -1.421875 11.734375 6.484375 
Q 5.515625 14.40625 5.515625 27.296875 
Q 5.515625 40.1875 11.734375 48.09375 
Q 17.96875 56 27.875 56 
Q 33.9375 56 38.25 53.625 
Q 42.578125 51.265625 45.40625 46.390625 
z
M 14.796875 27.296875 
Q 14.796875 17.390625 18.875 11.75 
Q 22.953125 6.109375 30.078125 6.109375 
Q 37.203125 6.109375 41.296875 11.75 
Q 45.40625 17.390625 45.40625 27.296875 
Q 45.40625 37.203125 41.296875 42.84375 
Q 37.203125 48.484375 30.078125 48.484375 
Q 22.953125 48.484375 18.875 42.84375 
Q 14.796875 37.203125 14.796875 27.296875 
z
" id="DejaVuSans-64"/>
      <path d="M 9.421875 54.6875 
L 18.40625 54.6875 
L 18.40625 0 
L 9.421875 0 
z
M 9.421875 75.984375 
L 18.40625 75.984375 
L 18.40625 64.59375 
L 9.421875 64.59375 
z
" id="DejaVuSans-69"/>
      <path d="M 52 44.1875 
Q 55.375 50.25 60.0625 53.125 
Q 64.75 56 71.09375 56 
Q 79.640625 56 84.28125 50.015625 
Q 88.921875 44.046875 88.921875 33.015625 
L 88.921875 0 
L 79.890625 0 
L 79.890625 32.71875 
Q 79.890625 40.578125 77.09375 44.375 
Q 74.3125 48.1875 68.609375 48.1875 
Q 61.625 48.1875 57.5625 43.546875 
Q 53.515625 38.921875 53.515625 30.90625 
L 53.515625 0 
L 44.484375 0 
L 44.484375 32.71875 
Q 44.484375 40.625 41.703125 44.40625 
Q 38.921875 48.1875 33.109375 48.1875 
Q 26.21875 48.1875 22.15625 43.53125 
Q 18.109375 38.875 18.109375 30.90625 
L 18.109375 0 
L 9.078125 0 
L 9.078125 54.6875 
L 18.109375 54.6875 
L 18.109375 46.1875 
Q 21.1875 51.21875 25.484375 53.609375 
Q 29.78125 56 35.6875 56 
Q 41.65625 56 45.828125 52.96875 
Q 50 49.953125 52 44.1875 
z
" id="DejaVuSans-6d"/>
      <path d="M 54.890625 33.015625 
L 54.890625 0 
L 45.90625 0 
L 45.90625 32.71875 
Q 45.90625 40.484375 42.875 44.328125 
Q 39.84375 48.1875 33.796875 48.1875 
Q 26.515625 48.1875 22.3125 43.546875 
Q 18.109375 38.921875 18.109375 30.90625 
L 18.109375 0 
L 9.078125 0 
L 9.078125 54.6875 
L 18.109375 54.6875 
L 18.109375 46.1875 
Q 21.34375 51.125 25.703125 53.5625 
Q 30.078125 56 35.796875 56 
Q 45.21875 56 50.046875 50.171875 
Q 54.890625 44.34375 54.890625 33.015625 
z
" id="DejaVuSans-6e"/>
      <path d="M 8.015625 75.875 
L 15.828125 75.875 
Q 23.140625 64.359375 26.78125 53.3125 
Q 30.421875 42.28125 30.421875 31.390625 
Q 30.421875 20.453125 26.78125 9.375 
Q 23.140625 -1.703125 15.828125 -13.1875 
L 8.015625 -13.1875 
Q 14.5 -2 17.703125 9.0625 
Q 20.90625 20.125 20.90625 31.390625 
Q 20.90625 42.671875 17.703125 53.65625 
Q 14.5 64.65625 8.015625 75.875 
z
" id="DejaVuSans-29"/>
     </defs>
     <g transform="translate(107.211219 338.153594)scale(0.17 -0.17)">
      <use xlink:href="#DejaVuSans-6c"/>
      <use x="27.783203" xlink:href="#DejaVuSans-6f"/>
      <use x="88.964844" xlink:href="#DejaVuSans-67"/>
      <use x="152.441406" xlink:href="#DejaVuSans-31"/>
      <use x="216.064453" xlink:href="#DejaVuSans-30"/>
      <use x="279.6875" xlink:href="#DejaVuSans-28"/>
      <use x="318.701172" xlink:href="#DejaVuSans-23"/>
      <use x="402.490234" xlink:href="#DejaVuSans-20"/>
      <use x="434.277344" xlink:href="#DejaVuSans-66"/>
      <use x="469.404297" xlink:href="#DejaVuSans-2d"/>
      <use x="505.488281" xlink:href="#DejaVuSans-65"/>
      <use x="567.011719" xlink:href="#DejaVuSans-76"/>
      <use x="626.191406" xlink:href="#DejaVuSans-61"/>
      <use x="687.470703" xlink:href="#DejaVuSans-6c"/>
      <use x="715.253906" xlink:href="#DejaVuSans-73"/>
      <use x="767.353516" xlink:href="#DejaVuSans-20"/>
      <use x="799.140625" xlink:href="#DejaVuSans-2f"/>
      <use x="832.832031" xlink:href="#DejaVuSans-20"/>
      <use x="864.619141" xlink:href="#DejaVuSans-64"/>
      <use x="928.095703" xlink:href="#DejaVuSans-69"/>
      <use x="955.878906" xlink:href="#DejaVuSans-6d"/>
      <use x="1053.291016" xlink:href="#DejaVuSans-65"/>
      <use x="1114.814453" xlink:href="#DejaVuSans-6e"/>
      <use x="1178.193359" xlink:href="#DejaVuSans-73"/>
      <use x="1230.292969" xlink:href="#DejaVuSans-69"/>
      <use x="1258.076172" xlink:href="#DejaVuSans-6f"/>
      <use x="1319.257812" xlink:href="#DejaVuSans-6e"/>
      <use x="1382.636719" xlink:href="#DejaVuSans-29"/>
     </g>
    </g>
   </g>
   <g id="matplotlib.axis_2">
    <g id="ytick_1">
     <g id="line2d_15">
      <path clip-path="url(#p2bda0b5139)" d="M 56.12 294.88 
L 399.984 294.88 
" style="fill:none;stroke:#b0b0b0;stroke-linecap:square;stroke-width:0.8;"/>
     </g>
     <g id="line2d_16">
      <defs>
       <path d="M 0 0 
L -3.5 0 
" id="m27d3f5b903" style="stroke:#000000;stroke-width:0.8;"/>
      </defs>
      <g>
       <use style="stroke:#000000;stroke-width:0.8;" x="56.12" xlink:href="#m27d3f5b903" y="294.88"/>
      </g>
     </g>
     <g id="text_7">
      <!-- 0.0 -->
      <defs>
       <path d="M 10.6875 12.40625 
L 21 12.40625 
L 21 0 
L 10.6875 0 
z
" id="DejaVuSans-2e"/>
      </defs>
      <g transform="translate(23.675 300.95875)scale(0.16 -0.16)">
       <use xlink:href="#DejaVuSans-30"/>
       <use x="63.623047" xlink:href="#DejaVuSans-2e"/>
       <use x="95.410156" xlink:href="#DejaVuSans-30"/>
      </g>
     </g>
    </g>
    <g id="ytick_2">
     <g id="line2d_17">
      <path clip-path="url(#p2bda0b5139)" d="M 56.12 241.406733 
L 399.984 241.406733 
" style="fill:none;stroke:#b0b0b0;stroke-linecap:square;stroke-width:0.8;"/>
     </g>
     <g id="line2d_18">
      <g>
       <use style="stroke:#000000;stroke-width:0.8;" x="56.12" xlink:href="#m27d3f5b903" y="241.406733"/>
      </g>
     </g>
     <g id="text_8">
      <!-- 0.2 -->
      <g transform="translate(23.675 247.485483)scale(0.16 -0.16)">
       <use xlink:href="#DejaVuSans-30"/>
       <use x="63.623047" xlink:href="#DejaVuSans-2e"/>
       <use x="95.410156" xlink:href="#DejaVuSans-32"/>
      </g>
     </g>
    </g>
    <g id="ytick_3">
     <g id="line2d_19">
      <path clip-path="url(#p2bda0b5139)" d="M 56.12 187.933465 
L 399.984 187.933465 
" style="fill:none;stroke:#b0b0b0;stroke-linecap:square;stroke-width:0.8;"/>
     </g>
     <g id="line2d_20">
      <g>
       <use style="stroke:#000000;stroke-width:0.8;" x="56.12" xlink:href="#m27d3f5b903" y="187.933465"/>
      </g>
     </g>
     <g id="text_9">
      <!-- 0.4 -->
      <g transform="translate(23.675 194.012215)scale(0.16 -0.16)">
       <use xlink:href="#DejaVuSans-30"/>
       <use x="63.623047" xlink:href="#DejaVuSans-2e"/>
       <use x="95.410156" xlink:href="#DejaVuSans-34"/>
      </g>
     </g>
    </g>
    <g id="ytick_4">
     <g id="line2d_21">
      <path clip-path="url(#p2bda0b5139)" d="M 56.12 134.460198 
L 399.984 134.460198 
" style="fill:none;stroke:#b0b0b0;stroke-linecap:square;stroke-width:0.8;"/>
     </g>
     <g id="line2d_22">
      <g>
       <use style="stroke:#000000;stroke-width:0.8;" x="56.12" xlink:href="#m27d3f5b903" y="134.460198"/>
      </g>
     </g>
     <g id="text_10">
      <!-- 0.6 -->
      <g transform="translate(23.675 140.538948)scale(0.16 -0.16)">
       <use xlink:href="#DejaVuSans-30"/>
       <use x="63.623047" xlink:href="#DejaVuSans-2e"/>
       <use x="95.410156" xlink:href="#DejaVuSans-36"/>
      </g>
     </g>
    </g>
    <g id="ytick_5">
     <g id="line2d_23">
      <path clip-path="url(#p2bda0b5139)" d="M 56.12 80.986931 
L 399.984 80.986931 
" style="fill:none;stroke:#b0b0b0;stroke-linecap:square;stroke-width:0.8;"/>
     </g>
     <g id="line2d_24">
      <g>
       <use style="stroke:#000000;stroke-width:0.8;" x="56.12" xlink:href="#m27d3f5b903" y="80.986931"/>
      </g>
     </g>
     <g id="text_11">
      <!-- 0.8 -->
      <g transform="translate(23.675 87.065681)scale(0.16 -0.16)">
       <use xlink:href="#DejaVuSans-30"/>
       <use x="63.623047" xlink:href="#DejaVuSans-2e"/>
       <use x="95.410156" xlink:href="#DejaVuSans-38"/>
      </g>
     </g>
    </g>
    <g id="ytick_6">
     <g id="line2d_25">
      <path clip-path="url(#p2bda0b5139)" d="M 56.12 27.513663 
L 399.984 27.513663 
" style="fill:none;stroke:#b0b0b0;stroke-linecap:square;stroke-width:0.8;"/>
     </g>
     <g id="line2d_26">
      <g>
       <use style="stroke:#000000;stroke-width:0.8;" x="56.12" xlink:href="#m27d3f5b903" y="27.513663"/>
      </g>
     </g>
     <g id="text_12">
      <!-- 1.0 -->
      <g transform="translate(23.675 33.592413)scale(0.16 -0.16)">
       <use xlink:href="#DejaVuSans-31"/>
       <use x="63.623047" xlink:href="#DejaVuSans-2e"/>
       <use x="95.410156" xlink:href="#DejaVuSans-30"/>
      </g>
     </g>
    </g>
    <g id="text_13">
     <!-- Fraction of function,target pairs -->
     <defs>
      <path d="M 9.8125 72.90625 
L 51.703125 72.90625 
L 51.703125 64.59375 
L 19.671875 64.59375 
L 19.671875 43.109375 
L 48.578125 43.109375 
L 48.578125 34.8125 
L 19.671875 34.8125 
L 19.671875 0 
L 9.8125 0 
z
" id="DejaVuSans-46"/>
      <path d="M 41.109375 46.296875 
Q 39.59375 47.171875 37.8125 47.578125 
Q 36.03125 48 33.890625 48 
Q 26.265625 48 22.1875 43.046875 
Q 18.109375 38.09375 18.109375 28.8125 
L 18.109375 0 
L 9.078125 0 
L 9.078125 54.6875 
L 18.109375 54.6875 
L 18.109375 46.1875 
Q 20.953125 51.171875 25.484375 53.578125 
Q 30.03125 56 36.53125 56 
Q 37.453125 56 38.578125 55.875 
Q 39.703125 55.765625 41.0625 55.515625 
z
" id="DejaVuSans-72"/>
      <path d="M 48.78125 52.59375 
L 48.78125 44.1875 
Q 44.96875 46.296875 41.140625 47.34375 
Q 37.3125 48.390625 33.40625 48.390625 
Q 24.65625 48.390625 19.8125 42.84375 
Q 14.984375 37.3125 14.984375 27.296875 
Q 14.984375 17.28125 19.8125 11.734375 
Q 24.65625 6.203125 33.40625 6.203125 
Q 37.3125 6.203125 41.140625 7.25 
Q 44.96875 8.296875 48.78125 10.40625 
L 48.78125 2.09375 
Q 45.015625 0.34375 40.984375 -0.53125 
Q 36.96875 -1.421875 32.421875 -1.421875 
Q 20.0625 -1.421875 12.78125 6.34375 
Q 5.515625 14.109375 5.515625 27.296875 
Q 5.515625 40.671875 12.859375 48.328125 
Q 20.21875 56 33.015625 56 
Q 37.15625 56 41.109375 55.140625 
Q 45.0625 54.296875 48.78125 52.59375 
z
" id="DejaVuSans-63"/>
      <path d="M 18.3125 70.21875 
L 18.3125 54.6875 
L 36.8125 54.6875 
L 36.8125 47.703125 
L 18.3125 47.703125 
L 18.3125 18.015625 
Q 18.3125 11.328125 20.140625 9.421875 
Q 21.96875 7.515625 27.59375 7.515625 
L 36.8125 7.515625 
L 36.8125 0 
L 27.59375 0 
Q 17.1875 0 13.234375 3.875 
Q 9.28125 7.765625 9.28125 18.015625 
L 9.28125 47.703125 
L 2.6875 47.703125 
L 2.6875 54.6875 
L 9.28125 54.6875 
L 9.28125 70.21875 
z
" id="DejaVuSans-74"/>
      <path d="M 8.5 21.578125 
L 8.5 54.6875 
L 17.484375 54.6875 
L 17.484375 21.921875 
Q 17.484375 14.15625 20.5 10.265625 
Q 23.53125 6.390625 29.59375 6.390625 
Q 36.859375 6.390625 41.078125 11.03125 
Q 45.3125 15.671875 45.3125 23.6875 
L 45.3125 54.6875 
L 54.296875 54.6875 
L 54.296875 0 
L 45.3125 0 
L 45.3125 8.40625 
Q 42.046875 3.421875 37.71875 1 
Q 33.40625 -1.421875 27.6875 -1.421875 
Q 18.265625 -1.421875 13.375 4.4375 
Q 8.5 10.296875 8.5 21.578125 
z
M 31.109375 56 
z
" id="DejaVuSans-75"/>
      <path d="M 11.71875 12.40625 
L 22.015625 12.40625 
L 22.015625 4 
L 14.015625 -11.625 
L 7.71875 -11.625 
L 11.71875 4 
z
" id="DejaVuSans-2c"/>
      <path d="M 18.109375 8.203125 
L 18.109375 -20.796875 
L 9.078125 -20.796875 
L 9.078125 54.6875 
L 18.109375 54.6875 
L 18.109375 46.390625 
Q 20.953125 51.265625 25.265625 53.625 
Q 29.59375 56 35.59375 56 
Q 45.5625 56 51.78125 48.09375 
Q 58.015625 40.1875 58.015625 27.296875 
Q 58.015625 14.40625 51.78125 6.484375 
Q 45.5625 -1.421875 35.59375 -1.421875 
Q 29.59375 -1.421875 25.265625 0.953125 
Q 20.953125 3.328125 18.109375 8.203125 
z
M 48.6875 27.296875 
Q 48.6875 37.203125 44.609375 42.84375 
Q 40.53125 48.484375 33.40625 48.484375 
Q 26.265625 48.484375 22.1875 42.84375 
Q 18.109375 37.203125 18.109375 27.296875 
Q 18.109375 17.390625 22.1875 11.75 
Q 26.265625 6.109375 33.40625 6.109375 
Q 40.53125 6.109375 44.609375 11.75 
Q 48.6875 17.390625 48.6875 27.296875 
z
" id="DejaVuSans-70"/>
     </defs>
     <g transform="translate(16.139531 294.999375)rotate(-90)scale(0.17 -0.17)">
      <use xlink:href="#DejaVuSans-46"/>
      <use x="57.410156" xlink:href="#DejaVuSans-72"/>
      <use x="98.523438" xlink:href="#DejaVuSans-61"/>
      <use x="159.802734" xlink:href="#DejaVuSans-63"/>
      <use x="214.783203" xlink:href="#DejaVuSans-74"/>
      <use x="253.992188" xlink:href="#DejaVuSans-69"/>
      <use x="281.775391" xlink:href="#DejaVuSans-6f"/>
      <use x="342.957031" xlink:href="#DejaVuSans-6e"/>
      <use x="406.335938" xlink:href="#DejaVuSans-20"/>
      <use x="438.123047" xlink:href="#DejaVuSans-6f"/>
      <use x="499.304688" xlink:href="#DejaVuSans-66"/>
      <use x="534.509766" xlink:href="#DejaVuSans-20"/>
      <use x="566.296875" xlink:href="#DejaVuSans-66"/>
      <use x="601.501953" xlink:href="#DejaVuSans-75"/>
      <use x="664.880859" xlink:href="#DejaVuSans-6e"/>
      <use x="728.259766" xlink:href="#DejaVuSans-63"/>
      <use x="783.240234" xlink:href="#DejaVuSans-74"/>
      <use x="822.449219" xlink:href="#DejaVuSans-69"/>
      <use x="850.232422" xlink:href="#DejaVuSans-6f"/>
      <use x="911.414062" xlink:href="#DejaVuSans-6e"/>
      <use x="974.792969" xlink:href="#DejaVuSans-2c"/>
      <use x="1006.580078" xlink:href="#DejaVuSans-74"/>
      <use x="1045.789062" xlink:href="#DejaVuSans-61"/>
      <use x="1107.068359" xlink:href="#DejaVuSans-72"/>
      <use x="1148.166016" xlink:href="#DejaVuSans-67"/>
      <use x="1211.642578" xlink:href="#DejaVuSans-65"/>
      <use x="1273.166016" xlink:href="#DejaVuSans-74"/>
      <use x="1312.375" xlink:href="#DejaVuSans-20"/>
      <use x="1344.162109" xlink:href="#DejaVuSans-70"/>
      <use x="1407.638672" xlink:href="#DejaVuSans-61"/>
      <use x="1468.917969" xlink:href="#DejaVuSans-69"/>
      <use x="1496.701172" xlink:href="#DejaVuSans-72"/>
      <use x="1537.814453" xlink:href="#DejaVuSans-73"/>
     </g>
    </g>
   </g>
   <g id="line2d_27">
    <defs>
     <path d="M 0 1.5 
C 0.397805 1.5 0.77937 1.341951 1.06066 1.06066 
C 1.341951 0.77937 1.5 0.397805 1.5 0 
C 1.5 -0.397805 1.341951 -0.77937 1.06066 -1.06066 
C 0.77937 -1.341951 0.397805 -1.5 0 -1.5 
C -0.397805 -1.5 -0.77937 -1.341951 -1.06066 -1.06066 
C -1.341951 -0.77937 -1.5 -0.397805 -1.5 0 
C -1.5 0.397805 -1.341951 0.77937 -1.06066 1.06066 
C -0.77937 1.341951 -0.397805 1.5 0 1.5 
z
" id="m5e862e3521" style="stroke:#f5deb3;"/>
    </defs>
    <g>
     <use style="fill:#f5deb3;stroke:#f5deb3;" x="191.200418" xlink:href="#m5e862e3521" y="27.513663"/>
     <use style="fill:#f5deb3;stroke:#f5deb3;" x="191.200418" xlink:href="#m5e862e3521" y="27.513663"/>
    </g>
   </g>
   <g id="line2d_28">
    <defs>
     <path d="M 0 1.5 
C 0.397805 1.5 0.77937 1.341951 1.06066 1.06066 
C 1.341951 0.77937 1.5 0.397805 1.5 0 
C 1.5 -0.397805 1.341951 -0.77937 1.06066 -1.06066 
C 0.77937 -1.341951 0.397805 -1.5 0 -1.5 
C -0.397805 -1.5 -0.77937 -1.341951 -1.06066 -1.06066 
C -1.341951 -0.77937 -1.5 -0.397805 -1.5 0 
C -1.5 0.397805 -1.341951 0.77937 -1.06066 1.06066 
C -0.77937 1.341951 -0.397805 1.5 0 1.5 
z
" id="mf23c0d357e" style="stroke:#000080;"/>
    </defs>
    <g>
     <use style="fill:#000080;stroke:#000080;" x="238.609581" xlink:href="#mf23c0d357e" y="27.513663"/>
     <use style="fill:#000080;stroke:#000080;" x="238.609581" xlink:href="#mf23c0d357e" y="27.513663"/>
    </g>
   </g>
   <g id="line2d_29">
    <path d="M -1 289.637523 
L 136.861612 289.637523 
L 136.861612 289.113275 
L 137.139085 289.113275 
L 137.139085 287.540532 
L 137.811933 287.540532 
L 137.890045 285.967789 
L 140.280425 285.967789 
L 140.280425 284.919293 
L 144.011367 284.919293 
L 144.011367 284.395046 
L 146.988406 284.395046 
L 146.988406 283.870798 
L 147.833352 283.870798 
L 147.833352 283.34655 
L 148.167398 283.34655 
L 148.167398 282.298055 
L 149.035489 282.298055 
L 149.035489 280.725312 
L 149.536823 280.725312 
L 149.536823 279.676816 
L 149.724385 279.676816 
L 149.756068 278.628321 
L 150.787712 278.628321 
L 150.787712 278.104073 
L 151.343312 278.104073 
L 151.343312 277.579825 
L 152.280054 277.579825 
L 152.280054 276.53133 
L 152.96257 276.53133 
L 152.96257 275.482834 
L 153.42306 275.482834 
L 153.42306 274.958587 
L 155.309341 274.958587 
L 155.309341 274.434339 
L 155.624643 274.434339 
L 155.624643 273.910091 
L 157.250476 273.910091 
L 157.250476 273.385844 
L 157.508697 273.385844 
L 157.508697 272.861596 
L 158.039126 272.861596 
L 158.039126 272.337348 
L 158.402282 272.337348 
L 158.423672 271.288853 
L 158.762344 271.288853 
L 158.762344 270.764605 
L 160.321121 270.764605 
L 160.321121 269.716109 
L 160.634635 269.716109 
L 160.70474 268.143366 
L 161.051044 268.143366 
L 161.051044 267.619119 
L 161.330757 267.619119 
L 161.348801 266.570623 
L 161.57511 266.570623 
L 161.57511 266.046375 
L 161.977857 266.046375 
L 161.977857 265.522128 
L 162.47661 265.522128 
L 162.47661 264.99788 
L 164.406179 264.99788 
L 164.406179 264.473632 
L 165.367362 264.473632 
L 165.367362 263.425137 
L 165.671999 263.425137 
L 165.671999 262.376641 
L 166.059626 262.376641 
L 166.059626 260.803898 
L 166.561137 260.803898 
L 166.561137 259.755403 
L 166.960301 259.755403 
L 166.960301 259.231155 
L 167.440581 259.231155 
L 167.440581 258.706907 
L 167.879268 258.706907 
L 167.879268 258.18266 
L 168.276615 258.18266 
L 168.276615 257.658412 
L 168.410619 257.658412 
L 168.410619 257.134164 
L 168.851953 257.134164 
L 168.851953 256.609917 
L 169.04176 256.609917 
L 169.04176 256.085669 
L 169.446656 256.085669 
L 169.449027 254.512926 
L 169.810346 254.512926 
L 169.833548 253.46443 
L 170.720361 253.46443 
L 170.720361 252.940182 
L 171.062131 252.940182 
L 171.062131 252.415935 
L 172.250151 252.415935 
L 172.250151 251.891687 
L 172.540835 251.891687 
L 172.540835 251.367439 
L 172.857835 251.367439 
L 172.857835 250.843192 
L 173.180079 250.843192 
L 173.180079 250.318944 
L 173.327851 250.318944 
L 173.327851 249.794696 
L 174.910135 249.794696 
L 174.910135 249.270448 
L 175.060517 249.270448 
L 175.060517 248.746201 
L 175.461774 248.746201 
L 175.461774 247.697705 
L 176.507983 247.697705 
L 176.507983 247.173458 
L 176.971257 247.173458 
L 176.971257 246.64921 
L 177.364482 246.64921 
L 177.364482 245.600714 
L 178.848432 245.600714 
L 178.848432 244.552219 
L 179.494176 244.552219 
L 179.494176 244.027971 
L 180.683305 244.027971 
L 180.683305 242.979476 
L 181.949858 242.979476 
L 181.949858 242.455228 
L 183.268409 242.455228 
L 183.268409 241.406733 
L 183.523238 241.406733 
L 183.610907 239.83399 
L 183.927056 239.83399 
L 183.927056 239.309742 
L 185.341601 239.309742 
L 185.341601 238.785494 
L 186.074638 238.785494 
L 186.074638 238.261246 
L 186.4112 238.261246 
L 186.43816 236.688503 
L 187.187819 236.688503 
L 187.187819 236.164255 
L 187.703444 236.164255 
L 187.703444 235.11576 
L 188.362553 235.11576 
L 188.362553 234.591512 
L 188.731354 234.591512 
L 188.73232 233.543017 
L 189.163426 233.543017 
L 189.163426 233.018769 
L 189.874867 233.018769 
L 189.874867 232.494521 
L 190.719789 232.494521 
L 190.719789 231.446026 
L 191.202092 231.446026 
L 191.25825 229.873283 
L 191.572731 229.873283 
L 191.572731 228.824787 
L 191.731251 228.824787 
L 191.731251 228.30054 
L 192.392565 228.30054 
L 192.392565 227.252044 
L 192.794617 227.252044 
L 192.794617 226.203549 
L 194.055568 226.203549 
L 194.055568 225.679301 
L 194.378012 225.679301 
L 194.378012 225.155053 
L 194.634291 225.155053 
L 194.634291 223.58231 
L 194.842698 223.58231 
L 194.842698 223.058063 
L 195.234088 223.058063 
L 195.234088 222.009567 
L 195.520919 222.009567 
L 195.520919 221.485319 
L 196.59053 221.485319 
L 196.59053 220.436824 
L 197.229881 220.436824 
L 197.275576 218.864081 
L 198.217862 218.864081 
L 198.294078 217.815585 
L 198.58035 217.815585 
L 198.58035 217.291338 
L 198.711877 217.291338 
L 198.711877 216.76709 
L 198.844231 216.76709 
L 198.844231 216.242842 
L 198.959905 216.242842 
L 198.959905 215.718594 
L 199.463204 215.718594 
L 199.555344 214.145851 
L 199.625871 214.145851 
L 199.649964 212.04886 
L 199.817884 212.04886 
L 199.817884 211.524613 
L 199.945754 211.524613 
L 199.950688 210.476117 
L 200.171465 210.476117 
L 200.171465 209.427622 
L 200.320704 209.427622 
L 200.320704 208.903374 
L 200.454586 208.903374 
L 200.550333 207.854879 
L 200.604308 207.854879 
L 200.604308 207.330631 
L 201.007698 207.330631 
L 201.007698 206.806383 
L 201.397126 206.806383 
L 201.397126 206.282136 
L 201.546516 206.282136 
L 201.546516 205.23364 
L 201.660381 205.23364 
L 201.663115 203.136649 
L 201.777028 203.136649 
L 201.887853 202.088154 
L 202.125404 202.088154 
L 202.20675 199.991163 
L 202.288503 199.991163 
L 202.288503 199.466915 
L 202.625396 199.466915 
L 202.625396 198.41842 
L 202.788285 198.41842 
L 202.788285 197.894172 
L 202.978461 197.894172 
L 202.978461 196.845677 
L 203.16397 196.845677 
L 203.255522 194.224438 
L 203.613356 194.224438 
L 203.613356 193.70019 
L 203.968683 193.70019 
L 203.968683 193.175943 
L 204.123895 193.175943 
L 204.151284 192.127447 
L 204.264952 192.127447 
L 204.264952 191.603199 
L 204.495472 191.603199 
L 204.499956 190.030456 
L 204.843368 190.030456 
L 204.944437 187.409218 
L 205.028734 187.409218 
L 205.107175 186.360722 
L 205.341036 186.360722 
L 205.426347 185.312227 
L 205.461171 185.312227 
L 205.509269 183.739484 
L 205.796065 183.739484 
L 205.804091 182.16674 
L 205.918058 182.16674 
L 205.918058 181.642493 
L 206.135039 181.642493 
L 206.135039 180.593997 
L 206.265545 180.593997 
L 206.328204 179.545502 
L 206.413334 179.545502 
L 206.503341 177.972759 
L 206.567199 177.972759 
L 206.613672 176.924263 
L 206.679165 176.924263 
L 206.679165 175.875768 
L 206.954895 175.875768 
L 206.960322 174.303025 
L 207.2996 174.303025 
L 207.313912 173.254529 
L 207.527829 173.254529 
L 207.613946 170.633291 
L 207.744239 170.633291 
L 207.83425 169.060547 
L 207.950754 169.060547 
L 207.950754 168.5363 
L 208.117594 168.5363 
L 208.117594 168.012052 
L 208.433589 168.012052 
L 208.433589 167.487804 
L 208.55253 167.487804 
L 208.55253 166.963557 
L 208.900131 166.963557 
L 208.900131 166.439309 
L 209.286025 166.439309 
L 209.286025 165.915061 
L 209.549322 165.915061 
L 209.647874 162.769575 
L 209.828337 162.769575 
L 209.919387 160.148336 
L 210.030537 160.148336 
L 210.030537 159.624089 
L 210.189736 159.624089 
L 210.189736 158.575593 
L 210.381608 158.575593 
L 210.468691 155.954354 
L 210.741636 155.954354 
L 210.745776 154.381611 
L 210.866629 154.381611 
L 210.95321 152.28462 
L 211.116027 152.28462 
L 211.116027 151.236125 
L 211.24022 151.236125 
L 211.24022 150.711877 
L 211.370522 150.711877 
L 211.469873 149.663382 
L 211.649078 149.663382 
L 211.710535 147.566391 
L 211.916015 147.566391 
L 212.019565 145.993648 
L 212.051635 145.993648 
L 212.051635 145.4694 
L 212.211784 145.4694 
L 212.211784 144.420905 
L 212.342309 144.420905 
L 212.342309 143.896657 
L 212.543086 143.896657 
L 212.596514 142.848162 
L 212.654924 142.848162 
L 212.758486 140.226923 
L 212.816207 140.226923 
L 212.816207 139.702675 
L 212.94456 139.702675 
L 212.94456 139.178427 
L 213.154741 139.178427 
L 213.221535 136.032941 
L 213.285056 136.032941 
L 213.365017 133.93595 
L 213.400206 133.93595 
L 213.400206 133.411703 
L 213.569105 133.411703 
L 213.620672 131.838959 
L 213.718822 131.838959 
L 213.72045 130.790464 
L 213.874824 130.790464 
L 213.975728 128.169225 
L 213.99777 128.169225 
L 213.99777 127.644978 
L 214.162825 127.644978 
L 214.162825 127.12073 
L 214.299923 127.12073 
L 214.299923 126.596482 
L 214.437021 126.596482 
L 214.475541 125.023739 
L 214.570453 125.023739 
L 214.659793 122.926748 
L 214.768255 122.926748 
L 214.84671 121.878253 
L 214.907638 121.878253 
L 215.004065 120.829757 
L 215.13102 120.829757 
L 215.236272 119.781262 
L 215.279572 119.781262 
L 215.316459 118.732766 
L 215.454596 118.732766 
L 215.473843 115.58728 
L 215.583924 115.58728 
L 215.616155 113.490289 
L 215.720864 113.490289 
L 215.720864 112.966042 
L 215.999323 112.966042 
L 216.057297 109.296308 
L 216.191318 109.296308 
L 216.201853 107.723564 
L 216.369801 107.723564 
L 216.445659 105.102326 
L 216.487179 105.102326 
L 216.597755 103.005335 
L 216.684459 103.005335 
L 216.722331 100.908344 
L 216.863877 100.908344 
L 216.867079 98.811353 
L 217.088023 98.811353 
L 217.130842 97.23861 
L 217.321615 97.23861 
L 217.397489 94.093124 
L 217.488695 94.093124 
L 217.536907 93.044628 
L 217.714938 93.044628 
L 217.714938 91.471885 
L 217.869414 91.471885 
L 217.869414 90.947637 
L 218.07189 90.947637 
L 218.144184 88.326399 
L 218.349173 88.326399 
L 218.448543 86.229408 
L 218.526322 86.229408 
L 218.586582 85.180912 
L 218.72156 85.180912 
L 218.752642 83.608169 
L 218.850756 83.608169 
L 218.850756 83.083922 
L 218.999964 83.083922 
L 219.064292 82.035426 
L 219.169614 82.035426 
L 219.278387 80.462683 
L 219.677774 80.462683 
L 219.759086 78.365692 
L 220.031288 78.365692 
L 220.071884 76.792949 
L 220.149397 76.792949 
L 220.149397 76.268701 
L 220.264074 76.268701 
L 220.293882 74.17171 
L 220.383027 74.17171 
L 220.49363 72.598967 
L 220.535038 72.598967 
L 220.535038 72.074719 
L 220.846598 72.074719 
L 220.899118 69.453481 
L 221.02419 69.453481 
L 221.02419 68.929233 
L 221.188955 68.929233 
L 221.277178 67.35649 
L 221.553369 67.35649 
L 221.663391 65.783747 
L 221.806494 65.783747 
L 221.872451 62.638261 
L 221.987115 62.638261 
L 222.089291 59.492774 
L 222.228552 59.492774 
L 222.228552 58.968526 
L 222.556284 58.968526 
L 222.556284 57.920031 
L 222.719514 57.920031 
L 222.774241 56.871536 
L 222.842612 56.871536 
L 222.842612 55.82304 
L 223.049028 55.82304 
L 223.049028 55.298792 
L 223.556516 55.298792 
L 223.556516 54.250297 
L 224.125931 54.250297 
L 224.125931 53.726049 
L 224.462779 53.726049 
L 224.462779 52.677554 
L 225.128897 52.677554 
L 225.128897 51.629058 
L 225.633944 51.629058 
L 225.633944 51.104811 
L 227.216473 51.104811 
L 227.216473 50.580563 
L 228.264748 50.580563 
L 228.264748 50.056315 
L 228.505192 50.056315 
L 228.505192 49.00782 
L 228.934872 49.00782 
L 229.02401 47.959324 
L 229.48681 47.959324 
L 229.48681 46.910829 
L 229.635261 46.910829 
L 229.635261 46.386581 
L 232.108404 46.386581 
L 232.153059 44.28959 
L 232.31131 44.28959 
L 232.31131 43.765343 
L 232.559452 43.765343 
L 232.559452 43.241095 
L 232.679941 43.241095 
L 232.679941 42.716847 
L 232.817739 42.716847 
L 232.817739 42.192599 
L 232.932264 42.192599 
L 233.017255 41.144104 
L 233.106621 41.144104 
L 233.106621 40.619856 
L 233.338947 40.619856 
L 233.417395 38.522865 
L 233.627641 38.522865 
L 233.627641 37.47437 
L 234.150981 37.47437 
L 234.150981 36.950122 
L 234.282716 36.950122 
L 234.282716 35.901627 
L 234.426418 35.901627 
L 234.426418 34.853131 
L 234.719066 34.853131 
L 234.778705 33.804636 
L 234.97724 33.804636 
L 234.97724 33.280388 
L 235.144517 33.280388 
L 235.22319 30.65915 
L 235.733141 30.65915 
L 235.733141 30.134902 
L 236.57989 30.134902 
L 236.57989 29.086407 
L 238.007773 29.086407 
L 238.007773 28.037911 
L 238.609581 28.037911 
L 238.609581 27.513663 
L 333.429677 27.513663 
L 333.429677 27.513663 
" style="fill:none;stroke:#000080;stroke-linecap:square;stroke-width:1.5;"/>
   </g>
   <g id="line2d_30">
    <defs>
     <path d="M 0 6 
C 1.591219 6 3.117479 5.367802 4.242641 4.242641 
C 5.367802 3.117479 6 1.591219 6 0 
C 6 -1.591219 5.367802 -3.117479 4.242641 -4.242641 
C 3.117479 -5.367802 1.591219 -6 0 -6 
C -1.591219 -6 -3.117479 -5.367802 -4.242641 -4.242641 
C -5.367802 -3.117479 -6 -1.591219 -6 0 
C -6 1.591219 -5.367802 3.117479 -4.242641 4.242641 
C -3.117479 5.367802 -1.591219 6 0 6 
z
" id="m67dbe465e9" style="stroke:#000080;stroke-width:1.5;"/>
    </defs>
    <g>
     <use style="fill-opacity:0;stroke:#000080;stroke-width:1.5;" x="196.59053" xlink:href="#m67dbe465e9" y="221.485319"/>
     <use style="fill-opacity:0;stroke:#000080;stroke-width:1.5;" x="225.633944" xlink:href="#m67dbe465e9" y="51.629058"/>
     <use style="fill-opacity:0;stroke:#000080;stroke-width:1.5;" x="238.609581" xlink:href="#m67dbe465e9" y="27.513663"/>
     <use style="fill-opacity:0;stroke:#000080;stroke-width:1.5;" x="238.609581" xlink:href="#m67dbe465e9" y="27.513663"/>
     <use style="fill-opacity:0;stroke:#000080;stroke-width:1.5;" x="333.429677" xlink:href="#m67dbe465e9" y="27.513663"/>
    </g>
   </g>
   <g id="line2d_31">
    <path style="fill:none;stroke:#000080;stroke-linecap:square;stroke-width:1.5;"/>
    <g/>
   </g>
   <g id="line2d_32">
    <defs>
     <path d="M 0 1.5 
C 0.397805 1.5 0.77937 1.341951 1.06066 1.06066 
C 1.341951 0.77937 1.5 0.397805 1.5 0 
C 1.5 -0.397805 1.341951 -0.77937 1.06066 -1.06066 
C 0.77937 -1.341951 0.397805 -1.5 0 -1.5 
C -0.397805 -1.5 -0.77937 -1.341951 -1.06066 -1.06066 
C -1.341951 -0.77937 -1.5 -0.397805 -1.5 0 
C -1.5 0.397805 -1.341951 0.77937 -1.06066 1.06066 
C -0.77937 1.341951 -0.397805 1.5 0 1.5 
z
" id="mdf69649bf4" style="stroke:#ff00ff;"/>
    </defs>
    <g>
     <use style="fill:#ff00ff;stroke:#ff00ff;" x="267.969459" xlink:href="#mdf69649bf4" y="27.513663"/>
     <use style="fill:#ff00ff;stroke:#ff00ff;" x="267.969459" xlink:href="#mdf69649bf4" y="27.513663"/>
    </g>
   </g>
   <g id="line2d_33">
    <path d="M -1 289.637523 
L 103.578357 289.637523 
L 103.578357 288.589027 
L 104.035746 288.589027 
L 104.035746 288.06478 
L 108.065011 288.06478 
L 108.065011 287.016284 
L 109.83987 287.016284 
L 109.83987 286.492036 
L 110.563416 286.492036 
L 110.563416 285.443541 
L 111.824153 285.443541 
L 111.824153 284.919293 
L 112.51906 284.919293 
L 112.51906 283.870798 
L 112.888036 283.870798 
L 112.888036 283.34655 
L 116.040718 283.34655 
L 116.040718 282.822302 
L 116.289973 282.822302 
L 116.380902 281.249559 
L 116.484234 281.249559 
L 116.484234 280.725312 
L 116.853698 280.725312 
L 116.853698 280.201064 
L 116.979281 280.201064 
L 116.979281 279.676816 
L 118.210449 279.676816 
L 118.210449 279.152568 
L 118.533555 279.152568 
L 118.533555 278.628321 
L 119.261023 278.628321 
L 119.359368 277.579825 
L 119.736565 277.579825 
L 119.736565 276.53133 
L 120.136941 276.53133 
L 120.136941 276.007082 
L 122.642658 276.007082 
L 122.642658 275.482834 
L 123.183262 275.482834 
L 123.183262 274.958587 
L 123.443028 274.958587 
L 123.443028 274.434339 
L 124.108889 274.434339 
L 124.108889 273.910091 
L 124.232458 273.910091 
L 124.232458 272.861596 
L 124.805603 272.861596 
L 124.805603 271.8131 
L 125.942259 271.8131 
L 125.942259 271.288853 
L 126.526769 271.288853 
L 126.526769 270.240357 
L 127.223646 270.240357 
L 127.223646 268.667614 
L 128.454753 268.667614 
L 128.454753 268.143366 
L 129.263878 268.143366 
L 129.263878 267.619119 
L 130.100972 267.619119 
L 130.100972 266.570623 
L 131.474505 266.570623 
L 131.474505 266.046375 
L 131.931768 266.046375 
L 131.931768 265.522128 
L 133.220273 265.522128 
L 133.220273 264.473632 
L 136.459025 264.473632 
L 136.459025 263.949385 
L 136.659503 263.949385 
L 136.659503 263.425137 
L 137.654639 263.425137 
L 137.654639 262.376641 
L 138.427112 262.376641 
L 138.427112 261.852394 
L 138.961875 261.852394 
L 138.961875 261.328146 
L 140.688944 261.328146 
L 140.688944 259.755403 
L 141.645868 259.755403 
L 141.645868 259.231155 
L 142.00896 259.231155 
L 142.00896 258.706907 
L 145.656601 258.706907 
L 145.656601 257.658412 
L 146.706172 257.658412 
L 146.706172 257.134164 
L 146.907297 257.134164 
L 146.907297 256.609917 
L 149.299458 256.609917 
L 149.299458 256.085669 
L 150.10261 256.085669 
L 150.10261 255.561421 
L 151.68125 255.561421 
L 151.68125 255.037173 
L 152.758923 255.037173 
L 152.758923 253.988678 
L 153.027354 253.988678 
L 153.027354 253.46443 
L 155.631261 253.46443 
L 155.631261 252.940182 
L 156.269057 252.940182 
L 156.269057 252.415935 
L 157.100467 252.415935 
L 157.100467 251.891687 
L 157.921371 251.891687 
L 157.921371 251.367439 
L 158.8975 251.367439 
L 158.8975 250.318944 
L 159.116105 250.318944 
L 159.116105 249.270448 
L 160.015126 249.270448 
L 160.015126 248.746201 
L 160.313058 248.746201 
L 160.313058 248.221953 
L 162.814627 248.221953 
L 162.814627 247.173458 
L 163.446179 247.173458 
L 163.446179 246.124962 
L 164.816063 246.124962 
L 164.826922 245.076467 
L 165.679381 245.076467 
L 165.679381 244.552219 
L 167.725981 244.552219 
L 167.725981 244.027971 
L 167.954432 244.027971 
L 168.052429 242.979476 
L 168.604085 242.979476 
L 168.684213 241.93098 
L 169.580119 241.93098 
L 169.617139 239.83399 
L 170.4479 239.83399 
L 170.4479 239.309742 
L 170.778619 239.309742 
L 170.778619 237.736999 
L 171.672906 237.736999 
L 171.672906 237.212751 
L 172.087699 237.212751 
L 172.087699 236.688503 
L 172.338074 236.688503 
L 172.338074 236.164255 
L 172.711347 236.164255 
L 172.711347 235.11576 
L 173.157636 235.11576 
L 173.170532 234.067265 
L 173.420333 234.067265 
L 173.420333 233.543017 
L 173.899243 233.543017 
L 173.899243 232.494521 
L 175.947588 232.494521 
L 175.947588 231.446026 
L 176.36463 231.446026 
L 176.36463 230.921778 
L 178.085174 230.921778 
L 178.152143 229.873283 
L 178.356094 229.873283 
L 178.356094 228.824787 
L 178.958605 228.824787 
L 178.958605 228.30054 
L 179.463071 228.30054 
L 179.463071 227.776292 
L 180.017747 227.776292 
L 180.017747 227.252044 
L 180.261665 227.252044 
L 180.261665 226.727797 
L 180.591116 226.727797 
L 180.591116 225.679301 
L 181.181097 225.679301 
L 181.181097 225.155053 
L 181.431638 225.155053 
L 181.431638 224.630806 
L 181.605631 224.630806 
L 181.605631 224.106558 
L 192.032813 224.106558 
L 192.032813 223.58231 
L 192.169929 223.58231 
L 192.169929 222.009567 
L 193.346061 222.009567 
L 193.346061 221.485319 
L 193.78714 221.485319 
L 193.78714 219.912576 
L 197.35174 219.912576 
L 197.35174 219.388328 
L 197.736746 219.388328 
L 197.736746 218.864081 
L 199.022074 218.864081 
L 199.022074 217.815585 
L 200.794584 217.815585 
L 200.817192 216.242842 
L 201.051762 216.242842 
L 201.051762 215.718594 
L 202.449374 215.718594 
L 202.449374 214.670099 
L 202.617034 214.670099 
L 202.617034 214.145851 
L 203.774856 214.145851 
L 203.774856 213.097356 
L 206.137499 213.097356 
L 206.137499 212.573108 
L 206.488889 212.573108 
L 206.488889 212.04886 
L 209.367465 212.04886 
L 209.367465 211.000365 
L 209.490555 211.000365 
L 209.490555 210.476117 
L 209.761753 210.476117 
L 209.840864 209.427622 
L 209.896472 209.427622 
L 209.960287 207.854879 
L 210.143589 207.854879 
L 210.143589 207.330631 
L 210.336249 207.330631 
L 210.412384 206.282136 
L 210.538803 206.282136 
L 210.61692 204.709392 
L 210.66187 204.709392 
L 210.733945 202.612401 
L 211.03423 202.612401 
L 211.093389 201.563906 
L 211.150087 201.563906 
L 211.150087 201.039658 
L 211.319071 201.039658 
L 211.365804 199.991163 
L 211.435667 199.991163 
L 211.49578 198.41842 
L 211.595845 198.41842 
L 211.595845 197.369924 
L 211.937748 197.369924 
L 211.937748 196.845677 
L 216.281531 196.845677 
L 216.281531 196.321429 
L 219.88552 196.321429 
L 219.952012 195.272933 
L 220.078479 195.272933 
L 220.172226 192.127447 
L 220.194652 192.127447 
L 220.305759 188.457713 
L 220.392051 188.457713 
L 220.50217 186.360722 
L 220.518414 186.360722 
L 220.597948 184.787979 
L 220.649478 184.787979 
L 220.68807 183.739484 
L 220.84615 183.739484 
L 220.84615 183.215236 
L 227.973146 183.215236 
L 227.973146 182.690988 
L 228.990849 182.690988 
L 229.094156 177.972759 
L 229.123129 177.972759 
L 229.198373 175.35152 
L 229.235084 175.35152 
L 229.336647 172.730281 
L 229.367491 172.730281 
L 229.435093 170.109043 
L 229.551945 170.109043 
L 229.647271 168.5363 
L 229.699784 168.5363 
L 229.715641 167.487804 
L 231.674447 167.487804 
L 231.779646 163.293823 
L 231.797556 163.293823 
L 231.873376 160.148336 
L 231.924831 160.148336 
L 232.030136 158.051345 
L 232.055548 158.051345 
L 232.159703 154.905859 
L 232.174825 154.905859 
L 232.257166 152.28462 
L 232.314072 152.28462 
L 232.314072 151.760373 
L 233.320965 151.760373 
L 233.36784 150.18763 
L 233.467697 150.18763 
L 233.546791 147.566391 
L 233.589308 147.566391 
L 233.681444 144.420905 
L 233.724733 144.420905 
L 233.832539 142.323914 
L 233.852071 142.323914 
L 233.940092 139.178427 
L 239.271543 139.178427 
L 239.333436 134.460198 
L 239.401248 134.460198 
L 239.500244 132.887455 
L 239.567625 132.887455 
L 239.667533 127.644978 
L 239.711086 127.644978 
L 239.711086 126.596482 
L 245.660181 126.596482 
L 245.768788 115.063032 
L 245.799616 115.063032 
L 245.90248 109.296308 
L 252.04541 109.296308 
L 252.155791 97.23861 
L 252.169579 97.23861 
L 252.21041 92.520381 
L 253.53755 92.520381 
L 253.641614 81.511178 
L 253.651492 81.511178 
L 253.694941 72.598967 
L 254.4859 72.598967 
L 254.596078 65.783747 
L 254.603243 65.783747 
L 254.6469 62.114013 
L 261.518495 62.114013 
L 261.609643 51.104811 
L 261.74877 51.104811 
L 261.848503 40.095609 
L 267.905756 40.095609 
L 267.969459 27.513663 
L 333.429677 27.513663 
L 333.429677 27.513663 
" style="fill:none;stroke:#ff00ff;stroke-linecap:square;stroke-width:1.5;"/>
   </g>
   <g id="line2d_34">
    <defs>
     <path d="M -0 8.485281 
L 5.091169 0 
L 0 -8.485281 
L -5.091169 -0 
z
" id="m2db257bc13" style="stroke:#ff00ff;stroke-linejoin:miter;stroke-width:1.5;"/>
    </defs>
    <g>
     <use style="fill-opacity:0;stroke:#ff00ff;stroke-linejoin:miter;stroke-width:1.5;" x="155.631261" xlink:href="#m2db257bc13" y="252.940182"/>
     <use style="fill-opacity:0;stroke:#ff00ff;stroke-linejoin:miter;stroke-width:1.5;" x="233.589308" xlink:href="#m2db257bc13" y="147.566391"/>
     <use style="fill-opacity:0;stroke:#ff00ff;stroke-linejoin:miter;stroke-width:1.5;" x="261.848503" xlink:href="#m2db257bc13" y="40.619856"/>
     <use style="fill-opacity:0;stroke:#ff00ff;stroke-linejoin:miter;stroke-width:1.5;" x="267.969459" xlink:href="#m2db257bc13" y="27.513663"/>
     <use style="fill-opacity:0;stroke:#ff00ff;stroke-linejoin:miter;stroke-width:1.5;" x="333.429677" xlink:href="#m2db257bc13" y="27.513663"/>
    </g>
   </g>
   <g id="line2d_35">
    <path style="fill:none;stroke:#ff00ff;stroke-linecap:square;stroke-width:1.5;"/>
    <g/>
   </g>
   <g id="line2d_36">
    <defs>
     <path d="M 0 1.5 
C 0.397805 1.5 0.77937 1.341951 1.06066 1.06066 
C 1.341951 0.77937 1.5 0.397805 1.5 0 
C 1.5 -0.397805 1.341951 -0.77937 1.06066 -1.06066 
C 0.77937 -1.341951 0.397805 -1.5 0 -1.5 
C -0.397805 -1.5 -0.77937 -1.341951 -1.06066 -1.06066 
C -1.341951 -0.77937 -1.5 -0.397805 -1.5 0 
C -1.5 0.397805 -1.341951 0.77937 -1.06066 1.06066 
C -0.77937 1.341951 -0.397805 1.5 0 1.5 
z
" id="mc58989bd28" style="stroke:#ffa500;"/>
    </defs>
    <g>
     <use style="fill:#ffa500;stroke:#ffa500;" x="326.040655" xlink:href="#mc58989bd28" y="195.272933"/>
     <use style="fill:#ffa500;stroke:#ffa500;" x="326.040655" xlink:href="#mc58989bd28" y="195.272933"/>
    </g>
   </g>
   <g id="line2d_37">
    <path d="M -1 289.637523 
L 171.22596 289.637523 
L 171.22596 288.589027 
L 173.057481 288.589027 
L 173.057481 288.06478 
L 176.0884 288.06478 
L 176.0884 287.540532 
L 176.650932 287.540532 
L 176.754365 284.919293 
L 178.112065 284.919293 
L 178.112065 284.395046 
L 182.250756 284.395046 
L 182.351857 281.249559 
L 182.869303 281.249559 
L 182.869303 280.725312 
L 183.573129 280.725312 
L 183.573129 280.201064 
L 184.464358 280.201064 
L 184.464358 279.676816 
L 184.598068 279.676816 
L 184.602983 278.628321 
L 186.893799 278.628321 
L 186.924523 274.434339 
L 187.053692 274.434339 
L 187.053692 273.910091 
L 187.706521 273.910091 
L 187.706521 273.385844 
L 187.965074 273.385844 
L 187.965074 272.861596 
L 190.445066 272.861596 
L 190.445066 271.288853 
L 190.773764 271.288853 
L 190.773764 270.764605 
L 191.028961 270.764605 
L 191.028961 270.240357 
L 191.410917 270.240357 
L 191.410917 269.716109 
L 192.041106 269.716109 
L 192.041106 269.191862 
L 192.925968 269.191862 
L 192.925968 268.667614 
L 193.301369 268.667614 
L 193.301369 267.094871 
L 193.551155 267.094871 
L 193.551155 266.570623 
L 193.875076 266.570623 
L 193.881667 264.473632 
L 195.454628 264.473632 
L 195.510887 262.900889 
L 195.625189 262.900889 
L 195.711449 260.803898 
L 196.595058 260.803898 
L 196.595058 260.279651 
L 196.845414 260.279651 
L 196.845414 259.755403 
L 197.206397 259.755403 
L 197.206397 258.706907 
L 198.818766 258.706907 
L 198.903395 257.658412 
L 199.89977 257.658412 
L 199.89977 257.134164 
L 200.987993 257.134164 
L 201.082333 256.085669 
L 202.047595 256.085669 
L 202.047595 255.561421 
L 203.508063 255.561421 
L 203.508063 254.512926 
L 205.019438 254.512926 
L 205.019438 253.46443 
L 205.421513 253.46443 
L 205.421513 252.415935 
L 207.350689 252.415935 
L 207.350689 251.367439 
L 207.884095 251.367439 
L 207.884095 249.794696 
L 209.12062 249.794696 
L 209.12062 249.270448 
L 209.725284 249.270448 
L 209.725284 248.746201 
L 211.829363 248.746201 
L 211.829363 247.697705 
L 212.472628 247.697705 
L 212.472628 246.124962 
L 254.802152 246.124962 
L 254.802152 245.076467 
L 254.915035 245.076467 
L 255.009226 243.503724 
L 255.082807 243.503724 
L 255.082807 242.979476 
L 255.201365 242.979476 
L 255.252852 241.93098 
L 255.449053 241.93098 
L 255.449053 241.406733 
L 255.833772 241.406733 
L 255.833772 240.882485 
L 266.4284 240.882485 
L 266.506912 237.212751 
L 266.638908 237.212751 
L 266.659179 236.164255 
L 266.760564 236.164255 
L 266.841688 235.11576 
L 267.189822 235.11576 
L 267.189822 233.543017 
L 273.314117 233.543017 
L 273.399721 231.970274 
L 273.484041 231.970274 
L 273.581692 230.921778 
L 278.274766 230.921778 
L 278.274766 230.397531 
L 278.412015 230.397531 
L 278.412015 229.873283 
L 282.053768 229.873283 
L 282.104641 228.30054 
L 285.153962 228.30054 
L 285.218506 225.155053 
L 285.388036 225.155053 
L 285.388036 224.630806 
L 287.817869 224.630806 
L 287.920833 223.058063 
L 290.07833 223.058063 
L 290.110257 219.912576 
L 290.247604 219.912576 
L 290.247604 218.864081 
L 292.093305 218.864081 
L 292.190879 217.291338 
L 293.896839 217.291338 
L 293.896839 216.76709 
L 295.529125 216.76709 
L 295.609076 215.194347 
L 297.037749 215.194347 
L 297.13314 213.097356 
L 298.427455 213.097356 
L 298.459423 211.524613 
L 299.725083 211.524613 
L 299.759355 210.476117 
L 300.903982 210.476117 
L 300.903982 209.95187 
L 303.987111 209.95187 
L 303.987111 209.427622 
L 306.63065 209.427622 
L 306.640607 207.854879 
L 307.417012 207.854879 
L 307.478995 205.23364 
L 308.200411 205.23364 
L 308.200411 204.709392 
L 309.622114 204.709392 
L 309.647159 203.660897 
L 310.292265 203.660897 
L 310.292265 203.136649 
L 310.956986 203.136649 
L 310.956986 202.612401 
L 311.574743 202.612401 
L 311.574743 202.088154 
L 312.182694 202.088154 
L 312.182694 201.563906 
L 312.743141 201.563906 
L 312.743141 201.039658 
L 313.321428 201.039658 
L 313.321428 200.515411 
L 313.866356 200.515411 
L 313.871617 199.466915 
L 314.933468 199.466915 
L 314.933468 198.942667 
L 315.39748 198.942667 
L 315.39748 198.41842 
L 315.880342 198.41842 
L 315.880342 197.894172 
L 316.821061 197.894172 
L 316.821061 197.369924 
L 317.690254 197.369924 
L 317.690254 196.845677 
L 318.529326 196.845677 
L 318.529326 196.321429 
L 322.199058 196.321429 
L 322.199058 195.797181 
L 326.040655 195.797181 
L 326.040655 195.272933 
L 333.429677 195.272933 
L 333.429677 195.272933 
" style="fill:none;stroke:#ffa500;stroke-linecap:square;stroke-width:1.5;"/>
   </g>
   <g id="line2d_38">
    <defs>
     <path d="M 0 -6 
L -1.347084 -1.854102 
L -5.706339 -1.854102 
L -2.179628 0.708204 
L -3.526712 4.854102 
L -0 2.291796 
L 3.526712 4.854102 
L 2.179628 0.708204 
L 5.706339 -1.854102 
L 1.347084 -1.854102 
z
" id="m7c34bdeced" style="stroke:#ffa500;stroke-linejoin:bevel;stroke-width:1.5;"/>
    </defs>
    <g>
     <use style="fill-opacity:0;stroke:#ffa500;stroke-linejoin:bevel;stroke-width:1.5;" x="187.965074" xlink:href="#m7c34bdeced" y="272.861596"/>
     <use style="fill-opacity:0;stroke:#ffa500;stroke-linejoin:bevel;stroke-width:1.5;" x="273.581692" xlink:href="#m7c34bdeced" y="230.921778"/>
     <use style="fill-opacity:0;stroke:#ffa500;stroke-linejoin:bevel;stroke-width:1.5;" x="317.690254" xlink:href="#m7c34bdeced" y="196.845677"/>
     <use style="fill-opacity:0;stroke:#ffa500;stroke-linejoin:bevel;stroke-width:1.5;" x="326.040655" xlink:href="#m7c34bdeced" y="195.272933"/>
     <use style="fill-opacity:0;stroke:#ffa500;stroke-linejoin:bevel;stroke-width:1.5;" x="333.429677" xlink:href="#m7c34bdeced" y="195.272933"/>
    </g>
   </g>
   <g id="line2d_39">
    <path style="fill:none;stroke:#ffa500;stroke-linecap:square;stroke-width:1.5;"/>
    <g/>
   </g>
   <g id="line2d_40">
    <path clip-path="url(#p2bda0b5139)" d="M 254.198341 246.124962 
" style="fill:none;stroke:#ffa500;stroke-linecap:square;stroke-width:1.5;"/>
    <defs>
     <path d="M -12 12 
L 12 -12 
M -12 -12 
L 12 12 
" id="maf8b3274de" style="stroke:#ffa500;stroke-width:3;"/>
    </defs>
    <g clip-path="url(#p2bda0b5139)">
     <use style="fill:#ffa500;stroke:#ffa500;stroke-width:3;" x="254.198341" xlink:href="#maf8b3274de" y="246.124962"/>
    </g>
   </g>
   <g id="line2d_41">
    <defs>
     <path d="M 0 1.5 
C 0.397805 1.5 0.77937 1.341951 1.06066 1.06066 
C 1.341951 0.77937 1.5 0.397805 1.5 0 
C 1.5 -0.397805 1.341951 -0.77937 1.06066 -1.06066 
C 0.77937 -1.341951 0.397805 -1.5 0 -1.5 
C -0.397805 -1.5 -0.77937 -1.341951 -1.06066 -1.06066 
C -1.341951 -0.77937 -1.5 -0.397805 -1.5 0 
C -1.5 0.397805 -1.341951 0.77937 -1.06066 1.06066 
C -0.77937 1.341951 -0.397805 1.5 0 1.5 
z
" id="mb6f4bb385d" style="stroke:#ff0000;"/>
    </defs>
    <g>
     <use style="fill:#ff0000;stroke:#ff0000;" x="242.322255" xlink:href="#mb6f4bb385d" y="27.513663"/>
     <use style="fill:#ff0000;stroke:#ff0000;" x="242.322255" xlink:href="#mb6f4bb385d" y="27.513663"/>
    </g>
   </g>
   <g id="line2d_42">
    <path d="M -1 289.637523 
L 86.730565 289.637523 
L 86.730565 289.113275 
L 86.946982 289.113275 
L 86.946982 288.589027 
L 87.922418 288.589027 
L 87.922418 287.540532 
L 88.191249 287.540532 
L 88.191249 287.016284 
L 88.521487 287.016284 
L 88.521487 285.967789 
L 89.100397 285.967789 
L 89.100397 285.443541 
L 89.289118 285.443541 
L 89.289118 284.395046 
L 89.413791 284.395046 
L 89.413791 283.870798 
L 89.599124 283.870798 
L 89.599124 283.34655 
L 89.903642 283.34655 
L 89.903642 282.822302 
L 90.202865 282.822302 
L 90.202865 282.298055 
L 90.321112 282.298055 
L 90.321112 281.773807 
L 90.438552 281.773807 
L 90.496972 280.201064 
L 90.613222 280.201064 
L 90.613222 279.152568 
L 90.728691 279.152568 
L 90.728691 278.628321 
L 91.460924 278.628321 
L 91.460924 277.055578 
L 91.625565 277.055578 
L 91.734457 275.482834 
L 91.950195 275.482834 
L 91.950195 273.910091 
L 92.477993 273.910091 
L 92.477993 273.385844 
L 93.536312 273.385844 
L 93.536312 272.861596 
L 93.97068 272.861596 
L 93.97068 271.288853 
L 94.716807 271.288853 
L 94.716807 270.764605 
L 95.821478 270.764605 
L 95.821478 270.240357 
L 96.07637 270.240357 
L 96.07637 269.716109 
L 96.492973 269.716109 
L 96.492973 268.667614 
L 98.944024 268.667614 
L 98.944024 268.143366 
L 99.677744 268.143366 
L 99.711914 267.094871 
L 100.609763 267.094871 
L 100.609763 266.570623 
L 101.432211 266.570623 
L 101.432211 265.522128 
L 101.677561 265.522128 
L 101.677561 264.99788 
L 102.451613 264.99788 
L 102.451613 263.949385 
L 103.523738 263.949385 
L 103.523738 262.900889 
L 105.486238 262.900889 
L 105.486238 261.852394 
L 108.253045 261.852394 
L 108.253045 261.328146 
L 110.690123 261.328146 
L 110.690123 260.803898 
L 112.405174 260.803898 
L 112.405174 260.279651 
L 113.108816 260.279651 
L 113.108816 259.231155 
L 114.493171 259.231155 
L 114.493171 258.706907 
L 114.794138 258.706907 
L 114.794138 258.18266 
L 116.419724 258.18266 
L 116.419724 257.658412 
L 117.545444 257.658412 
L 117.545444 257.134164 
L 118.163792 257.134164 
L 118.163792 256.085669 
L 118.917911 256.085669 
L 118.917911 254.512926 
L 119.704556 254.512926 
L 119.704556 253.988678 
L 121.236249 253.988678 
L 121.236249 253.46443 
L 121.784313 253.46443 
L 121.784313 252.940182 
L 122.065904 252.940182 
L 122.065904 251.891687 
L 122.848492 251.891687 
L 122.848492 251.367439 
L 123.313635 251.367439 
L 123.313635 250.843192 
L 124.314347 250.843192 
L 124.314347 250.318944 
L 124.908508 250.318944 
L 124.908508 249.270448 
L 125.298657 249.270448 
L 125.298657 248.746201 
L 126.790532 248.746201 
L 126.790532 248.221953 
L 127.326813 248.221953 
L 127.326813 247.697705 
L 127.706597 247.697705 
L 127.706597 247.173458 
L 130.888074 247.173458 
L 130.888074 246.64921 
L 131.05452 246.64921 
L 131.05452 245.076467 
L 131.715286 245.076467 
L 131.715286 244.552219 
L 131.837062 244.552219 
L 131.837062 244.027971 
L 132.325988 244.027971 
L 132.325988 243.503724 
L 132.686286 243.503724 
L 132.686286 242.455228 
L 133.399467 242.455228 
L 133.399467 241.406733 
L 140.312692 241.406733 
L 140.312692 240.882485 
L 143.356848 240.882485 
L 143.356848 240.358237 
L 143.648758 240.358237 
L 143.648758 239.83399 
L 143.998361 239.83399 
L 143.998361 238.785494 
L 145.708509 238.785494 
L 145.708509 238.261246 
L 145.972683 238.261246 
L 145.972683 236.688503 
L 146.24885 236.688503 
L 146.24885 235.640008 
L 148.171482 235.640008 
L 148.171482 235.11576 
L 148.465001 235.11576 
L 148.465001 234.591512 
L 152.066487 234.591512 
L 152.066487 233.543017 
L 153.900839 233.543017 
L 153.900839 232.494521 
L 154.147831 232.494521 
L 154.147831 231.446026 
L 154.365708 231.446026 
L 154.365708 230.921778 
L 154.610375 230.921778 
L 154.610375 230.397531 
L 154.857148 230.397531 
L 154.931736 228.824787 
L 155.16582 228.824787 
L 155.270194 227.252044 
L 155.313386 227.252044 
L 155.394078 226.203549 
L 155.449 226.203549 
L 155.525066 224.106558 
L 155.598146 224.106558 
L 155.680156 223.058063 
L 155.837783 223.058063 
L 155.837783 222.009567 
L 156.048314 222.009567 
L 156.128211 218.864081 
L 156.207738 218.864081 
L 156.308542 217.815585 
L 156.361895 217.815585 
L 156.460541 216.242842 
L 156.604957 216.242842 
L 156.682316 213.097356 
L 156.78781 213.097356 
L 156.891432 212.04886 
L 156.902498 212.04886 
L 156.902498 210.476117 
L 157.190146 210.476117 
L 157.243247 209.427622 
L 157.330988 209.427622 
L 157.414704 207.854879 
L 157.641079 207.854879 
L 157.641079 206.282136 
L 157.765438 206.282136 
L 157.765438 205.757888 
L 159.801488 205.757888 
L 159.801488 205.23364 
L 159.978162 205.23364 
L 159.978162 204.185145 
L 160.134715 204.185145 
L 160.154057 202.612401 
L 163.167493 202.612401 
L 163.167493 202.088154 
L 164.228054 202.088154 
L 164.228054 201.563906 
L 164.391074 201.563906 
L 164.391074 200.515411 
L 168.468448 200.515411 
L 168.564193 198.41842 
L 168.585397 198.41842 
L 168.661889 196.845677 
L 168.696603 196.845677 
L 168.781849 194.748686 
L 168.816322 194.748686 
L 168.816322 193.70019 
L 169.026579 193.70019 
L 169.055108 192.651695 
L 169.162726 192.651695 
L 169.266679 191.078952 
L 169.293617 191.078952 
L 169.393217 188.457713 
L 169.459693 188.457713 
L 169.459693 187.933465 
L 169.610681 187.933465 
L 169.610681 187.409218 
L 169.774321 187.409218 
L 169.87639 185.312227 
L 174.814932 185.312227 
L 174.92092 183.739484 
L 174.940316 183.739484 
L 175.021544 182.690988 
L 175.058377 182.690988 
L 175.136495 180.593997 
L 175.187528 180.593997 
L 175.187528 180.06975 
L 175.314452 180.06975 
L 175.403583 177.448511 
L 175.440865 177.448511 
L 175.515186 176.400016 
L 175.565109 176.400016 
L 175.601213 175.35152 
L 175.6897 175.35152 
L 175.786759 173.778777 
L 180.130583 173.778777 
L 180.130583 172.206034 
L 180.690708 172.206034 
L 180.796164 167.487804 
L 180.827094 167.487804 
L 180.914073 165.915061 
L 180.943273 165.915061 
L 181.027249 161.721079 
L 181.069838 161.721079 
L 181.176601 158.575593 
L 181.257061 158.575593 
L 181.285685 157.527098 
L 183.015138 157.527098 
L 183.015138 157.00285 
L 189.772392 157.00285 
L 189.864376 153.857364 
L 189.893664 153.857364 
L 189.998833 149.139134 
L 190.008346 149.139134 
L 190.108181 145.4694 
L 190.129041 145.4694 
L 190.151833 144.420905 
L 195.205724 144.420905 
L 195.300969 139.178427 
L 195.319955 139.178427 
L 195.419028 133.411703 
L 195.431208 133.411703 
L 195.508932 129.217721 
L 197.284513 129.217721 
L 197.387184 120.829757 
L 197.39723 120.829757 
L 197.494821 115.063032 
L 197.705916 115.063032 
L 197.81375 106.675069 
L 197.863607 106.675069 
L 197.929632 101.956839 
L 199.946056 101.956839 
L 199.946056 101.432592 
L 204.409292 101.432592 
L 204.519189 91.996133 
L 204.539481 91.996133 
L 204.5843 86.229408 
L 211.831837 86.229408 
L 211.94166 68.929233 
L 212.358616 68.929233 
L 212.456039 66.832242 
L 212.500904 66.832242 
L 212.500904 66.307995 
L 212.679588 66.307995 
L 212.741596 65.259499 
L 213.158526 65.259499 
L 213.252093 60.54127 
L 213.278468 60.54127 
L 213.278468 60.017022 
L 213.669046 60.017022 
L 213.701401 58.968526 
L 213.89422 58.968526 
L 213.979292 57.395783 
L 214.444264 57.395783 
L 214.501446 56.347288 
L 215.14364 56.347288 
L 215.14364 55.82304 
L 216.003323 55.82304 
L 216.095194 53.726049 
L 216.659127 53.726049 
L 216.671474 52.153306 
L 217.328803 52.153306 
L 217.423436 49.00782 
L 217.918308 49.00782 
L 218.023361 46.386581 
L 218.101258 46.386581 
L 218.163092 43.765343 
L 218.52427 43.765343 
L 218.52427 43.241095 
L 218.667404 43.241095 
L 218.73089 40.619856 
L 220.939533 40.619856 
L 220.981632 39.047113 
L 223.717095 39.047113 
L 223.776206 36.425875 
L 224.14901 36.425875 
L 224.21354 33.280388 
L 224.380132 33.280388 
L 224.390813 32.231893 
L 224.725474 32.231893 
L 224.725474 31.707645 
L 225.096338 31.707645 
L 225.096338 31.183397 
L 226.693377 31.183397 
L 226.693377 30.65915 
L 227.176284 30.65915 
L 227.176284 30.134902 
L 227.425547 30.134902 
L 227.425547 29.610654 
L 230.701994 29.610654 
L 230.701994 29.086407 
L 230.904593 29.086407 
L 230.904593 28.562159 
L 231.026949 28.562159 
L 231.026949 28.037911 
L 242.322255 28.037911 
L 242.322255 27.513663 
L 333.429677 27.513663 
L 333.429677 27.513663 
" style="fill:none;stroke:#ff0000;stroke-linecap:square;stroke-width:1.5;"/>
   </g>
   <g id="line2d_43">
    <defs>
     <path d="M 0 -6 
L -5.196152 -3 
L -5.196152 3 
L -0 6 
L 5.196152 3 
L 5.196152 -3 
z
" id="mb194493761" style="stroke:#ff0000;stroke-linejoin:miter;stroke-width:1.5;"/>
    </defs>
    <g>
     <use style="fill-opacity:0;stroke:#ff0000;stroke-linejoin:miter;stroke-width:1.5;" x="96.492973" xlink:href="#mb194493761" y="268.667614"/>
     <use style="fill-opacity:0;stroke:#ff0000;stroke-linejoin:miter;stroke-width:1.5;" x="169.87639" xlink:href="#mb194493761" y="185.836474"/>
     <use style="fill-opacity:0;stroke:#ff0000;stroke-linejoin:miter;stroke-width:1.5;" x="218.73089" xlink:href="#mb194493761" y="40.619856"/>
     <use style="fill-opacity:0;stroke:#ff0000;stroke-linejoin:miter;stroke-width:1.5;" x="242.322255" xlink:href="#mb194493761" y="27.513663"/>
     <use style="fill-opacity:0;stroke:#ff0000;stroke-linejoin:miter;stroke-width:1.5;" x="242.322255" xlink:href="#mb194493761" y="27.513663"/>
     <use style="fill-opacity:0;stroke:#ff0000;stroke-linejoin:miter;stroke-width:1.5;" x="333.429677" xlink:href="#mb194493761" y="27.513663"/>
    </g>
   </g>
   <g id="line2d_44">
    <path style="fill:none;stroke:#ff0000;stroke-linecap:square;stroke-width:1.5;"/>
    <g/>
   </g>
   <g id="line2d_45">
    <path clip-path="url(#p2bda0b5139)" d="M 211.795662 86.229408 
" style="fill:none;stroke:#ff0000;stroke-linecap:square;stroke-width:1.5;"/>
    <defs>
     <path d="M -12 12 
L 12 -12 
M -12 -12 
L 12 12 
" id="m40a91cf1eb" style="stroke:#ff0000;stroke-width:3;"/>
    </defs>
    <g clip-path="url(#p2bda0b5139)">
     <use style="fill:#ff0000;stroke:#ff0000;stroke-width:3;" x="211.795662" xlink:href="#m40a91cf1eb" y="86.229408"/>
    </g>
   </g>
   <g id="line2d_46">
    <path d="M 333.429677 195.272933 
L 363.933742 289.532673 
" style="fill:none;stroke:#ffa500;stroke-linecap:square;stroke-width:1.5;"/>
    <g>
     <use style="fill-opacity:0;stroke:#ffa500;stroke-linejoin:bevel;stroke-width:1.5;" x="333.429677" xlink:href="#m7c34bdeced" y="195.272933"/>
     <use style="fill-opacity:0;stroke:#ffa500;stroke-linejoin:bevel;stroke-width:1.5;" x="363.933742" xlink:href="#m7c34bdeced" y="289.532673"/>
    </g>
   </g>
   <g id="line2d_47">
    <path d="M 333.429677 27.513663 
L 363.933742 225.364752 
" style="fill:none;stroke:#ff00ff;stroke-linecap:square;stroke-width:1.5;"/>
    <g>
     <use style="fill-opacity:0;stroke:#ff00ff;stroke-linejoin:miter;stroke-width:1.5;" x="333.429677" xlink:href="#m2db257bc13" y="27.513663"/>
     <use style="fill-opacity:0;stroke:#ff00ff;stroke-linejoin:miter;stroke-width:1.5;" x="363.933742" xlink:href="#m2db257bc13" y="225.364752"/>
    </g>
   </g>
   <g id="line2d_48">
    <path d="M 333.429677 27.513663 
L 363.933742 161.196832 
" style="fill:none;stroke:#ff0000;stroke-linecap:square;stroke-width:1.5;"/>
    <g>
     <use style="fill-opacity:0;stroke:#ff0000;stroke-linejoin:miter;stroke-width:1.5;" x="333.429677" xlink:href="#mb194493761" y="27.513663"/>
     <use style="fill-opacity:0;stroke:#ff0000;stroke-linejoin:miter;stroke-width:1.5;" x="363.933742" xlink:href="#mb194493761" y="161.196832"/>
    </g>
   </g>
   <g id="line2d_49">
    <path d="M 333.429677 27.513663 
L 363.933742 97.028911 
" style="fill:none;stroke:#000080;stroke-linecap:square;stroke-width:1.5;"/>
    <g>
     <use style="fill-opacity:0;stroke:#000080;stroke-width:1.5;" x="333.429677" xlink:href="#m67dbe465e9" y="27.513663"/>
     <use style="fill-opacity:0;stroke:#000080;stroke-width:1.5;" x="363.933742" xlink:href="#m67dbe465e9" y="97.028911"/>
    </g>
   </g>
   <g id="line2d_50">
    <path d="M 333.429677 294.88 
L 333.429677 27.513663 
" style="fill:none;stroke:#000000;stroke-linecap:square;stroke-width:1.5;"/>
   </g>
   <g id="patch_3">
    <path d="M 56.12 294.88 
L 56.12 24.84 
" style="fill:none;stroke:#000000;stroke-linecap:square;stroke-linejoin:miter;stroke-width:0.8;"/>
   </g>
   <g id="patch_4">
    <path d="M 399.984 294.88 
L 399.984 24.84 
" style="fill:none;stroke:#000000;stroke-linecap:square;stroke-linejoin:miter;stroke-width:0.8;"/>
   </g>
   <g id="patch_5">
    <path d="M 56.12 294.88 
L 399.984 294.88 
" style="fill:none;stroke:#000000;stroke-linecap:square;stroke-linejoin:miter;stroke-width:0.8;"/>
   </g>
   <g id="patch_6">
    <path d="M 56.12 24.84 
L 399.984 24.84 
" style="fill:none;stroke:#000000;stroke-linecap:square;stroke-linejoin:miter;stroke-width:0.8;"/>
   </g>
   <g id="text_14">
    <!-- GA -->
    <defs>
     <path d="M 59.515625 10.40625 
L 59.515625 29.984375 
L 43.40625 29.984375 
L 43.40625 38.09375 
L 69.28125 38.09375 
L 69.28125 6.78125 
Q 63.578125 2.734375 56.6875 0.65625 
Q 49.8125 -1.421875 42 -1.421875 
Q 24.90625 -1.421875 15.25 8.5625 
Q 5.609375 18.5625 5.609375 36.375 
Q 5.609375 54.25 15.25 64.234375 
Q 24.90625 74.21875 42 74.21875 
Q 49.125 74.21875 55.546875 72.453125 
Q 61.96875 70.703125 67.390625 67.28125 
L 67.390625 56.78125 
Q 61.921875 61.421875 55.765625 63.765625 
Q 49.609375 66.109375 42.828125 66.109375 
Q 29.4375 66.109375 22.71875 58.640625 
Q 16.015625 51.171875 16.015625 36.375 
Q 16.015625 21.625 22.71875 14.15625 
Q 29.4375 6.6875 42.828125 6.6875 
Q 48.046875 6.6875 52.140625 7.59375 
Q 56.25 8.5 59.515625 10.40625 
z
" id="DejaVuSans-47"/>
     <path d="M 34.1875 63.1875 
L 20.796875 26.90625 
L 47.609375 26.90625 
z
M 28.609375 72.90625 
L 39.796875 72.90625 
L 67.578125 0 
L 57.328125 0 
L 50.6875 18.703125 
L 17.828125 18.703125 
L 11.1875 0 
L 0.78125 0 
z
" id="DejaVuSans-41"/>
    </defs>
    <g transform="translate(369.479935 294.223611)scale(0.17 -0.17)">
     <use xlink:href="#DejaVuSans-47"/>
     <use x="77.490234" xlink:href="#DejaVuSans-41"/>
    </g>
   </g>
   <g id="text_15">
    <!-- DASA -->
    <defs>
     <path d="M 19.671875 64.796875 
L 19.671875 8.109375 
L 31.59375 8.109375 
Q 46.6875 8.109375 53.6875 14.9375 
Q 60.6875 21.78125 60.6875 36.53125 
Q 60.6875 51.171875 53.6875 57.984375 
Q 46.6875 64.796875 31.59375 64.796875 
z
M 9.8125 72.90625 
L 30.078125 72.90625 
Q 51.265625 72.90625 61.171875 64.09375 
Q 71.09375 55.28125 71.09375 36.53125 
Q 71.09375 17.671875 61.125 8.828125 
Q 51.171875 0 30.078125 0 
L 9.8125 0 
z
" id="DejaVuSans-44"/>
     <path d="M 53.515625 70.515625 
L 53.515625 60.890625 
Q 47.90625 63.578125 42.921875 64.890625 
Q 37.9375 66.21875 33.296875 66.21875 
Q 25.25 66.21875 20.875 63.09375 
Q 16.5 59.96875 16.5 54.203125 
Q 16.5 49.359375 19.40625 46.890625 
Q 22.3125 44.4375 30.421875 42.921875 
L 36.375 41.703125 
Q 47.40625 39.59375 52.65625 34.296875 
Q 57.90625 29 57.90625 20.125 
Q 57.90625 9.515625 50.796875 4.046875 
Q 43.703125 -1.421875 29.984375 -1.421875 
Q 24.8125 -1.421875 18.96875 -0.25 
Q 13.140625 0.921875 6.890625 3.21875 
L 6.890625 13.375 
Q 12.890625 10.015625 18.65625 8.296875 
Q 24.421875 6.59375 29.984375 6.59375 
Q 38.421875 6.59375 43.015625 9.90625 
Q 47.609375 13.234375 47.609375 19.390625 
Q 47.609375 24.75 44.3125 27.78125 
Q 41.015625 30.8125 33.5 32.328125 
L 27.484375 33.5 
Q 16.453125 35.6875 11.515625 40.375 
Q 6.59375 45.0625 6.59375 53.421875 
Q 6.59375 63.09375 13.40625 68.65625 
Q 20.21875 74.21875 32.171875 74.21875 
Q 37.3125 74.21875 42.625 73.28125 
Q 47.953125 72.359375 53.515625 70.515625 
z
" id="DejaVuSans-53"/>
    </defs>
    <g transform="translate(369.479935 230.05569)scale(0.17 -0.17)">
     <use xlink:href="#DejaVuSans-44"/>
     <use x="76.986328" xlink:href="#DejaVuSans-41"/>
     <use x="145.394531" xlink:href="#DejaVuSans-53"/>
     <use x="208.886719" xlink:href="#DejaVuSans-41"/>
    </g>
   </g>
   <g id="text_16">
    <!-- Rosenbroc -->
    <defs>
     <path d="M 44.390625 34.1875 
Q 47.5625 33.109375 50.5625 29.59375 
Q 53.5625 26.078125 56.59375 19.921875 
L 66.609375 0 
L 56 0 
L 46.6875 18.703125 
Q 43.0625 26.03125 39.671875 28.421875 
Q 36.28125 30.8125 30.421875 30.8125 
L 19.671875 30.8125 
L 19.671875 0 
L 9.8125 0 
L 9.8125 72.90625 
L 32.078125 72.90625 
Q 44.578125 72.90625 50.734375 67.671875 
Q 56.890625 62.453125 56.890625 51.90625 
Q 56.890625 45.015625 53.6875 40.46875 
Q 50.484375 35.9375 44.390625 34.1875 
z
M 19.671875 64.796875 
L 19.671875 38.921875 
L 32.078125 38.921875 
Q 39.203125 38.921875 42.84375 42.21875 
Q 46.484375 45.515625 46.484375 51.90625 
Q 46.484375 58.296875 42.84375 61.546875 
Q 39.203125 64.796875 32.078125 64.796875 
z
" id="DejaVuSans-52"/>
     <path d="M 48.6875 27.296875 
Q 48.6875 37.203125 44.609375 42.84375 
Q 40.53125 48.484375 33.40625 48.484375 
Q 26.265625 48.484375 22.1875 42.84375 
Q 18.109375 37.203125 18.109375 27.296875 
Q 18.109375 17.390625 22.1875 11.75 
Q 26.265625 6.109375 33.40625 6.109375 
Q 40.53125 6.109375 44.609375 11.75 
Q 48.6875 17.390625 48.6875 27.296875 
z
M 18.109375 46.390625 
Q 20.953125 51.265625 25.265625 53.625 
Q 29.59375 56 35.59375 56 
Q 45.5625 56 51.78125 48.09375 
Q 58.015625 40.1875 58.015625 27.296875 
Q 58.015625 14.40625 51.78125 6.484375 
Q 45.5625 -1.421875 35.59375 -1.421875 
Q 29.59375 -1.421875 25.265625 0.953125 
Q 20.953125 3.328125 18.109375 8.203125 
L 18.109375 0 
L 9.078125 0 
L 9.078125 75.984375 
L 18.109375 75.984375 
z
" id="DejaVuSans-62"/>
    </defs>
    <g transform="translate(369.479935 165.887769)scale(0.17 -0.17)">
     <use xlink:href="#DejaVuSans-52"/>
     <use x="69.419922" xlink:href="#DejaVuSans-6f"/>
     <use x="130.601562" xlink:href="#DejaVuSans-73"/>
     <use x="182.701172" xlink:href="#DejaVuSans-65"/>
     <use x="244.224609" xlink:href="#DejaVuSans-6e"/>
     <use x="307.603516" xlink:href="#DejaVuSans-62"/>
     <use x="371.080078" xlink:href="#DejaVuSans-72"/>
     <use x="412.162109" xlink:href="#DejaVuSans-6f"/>
     <use x="473.34375" xlink:href="#DejaVuSans-63"/>
    </g>
   </g>
   <g id="text_17">
    <!-- ALPS -->
    <defs>
     <path d="M 9.8125 72.90625 
L 19.671875 72.90625 
L 19.671875 8.296875 
L 55.171875 8.296875 
L 55.171875 0 
L 9.8125 0 
z
" id="DejaVuSans-4c"/>
     <path d="M 19.671875 64.796875 
L 19.671875 37.40625 
L 32.078125 37.40625 
Q 38.96875 37.40625 42.71875 40.96875 
Q 46.484375 44.53125 46.484375 51.125 
Q 46.484375 57.671875 42.71875 61.234375 
Q 38.96875 64.796875 32.078125 64.796875 
z
M 9.8125 72.90625 
L 32.078125 72.90625 
Q 44.34375 72.90625 50.609375 67.359375 
Q 56.890625 61.8125 56.890625 51.125 
Q 56.890625 40.328125 50.609375 34.8125 
Q 44.34375 29.296875 32.078125 29.296875 
L 19.671875 29.296875 
L 19.671875 0 
L 9.8125 0 
z
" id="DejaVuSans-50"/>
    </defs>
    <g transform="translate(369.479935 101.719848)scale(0.17 -0.17)">
     <use xlink:href="#DejaVuSans-41"/>
     <use x="68.408203" xlink:href="#DejaVuSans-4c"/>
     <use x="124.121094" xlink:href="#DejaVuSans-50"/>
     <use x="184.423828" xlink:href="#DejaVuSans-53"/>
    </g>
   </g>
   <g id="text_18">
    <!-- best 2009 -->
    <defs>
     <path d="M 10.984375 1.515625 
L 10.984375 10.5 
Q 14.703125 8.734375 18.5 7.8125 
Q 22.3125 6.890625 25.984375 6.890625 
Q 35.75 6.890625 40.890625 13.453125 
Q 46.046875 20.015625 46.78125 33.40625 
Q 43.953125 29.203125 39.59375 26.953125 
Q 35.25 24.703125 29.984375 24.703125 
Q 19.046875 24.703125 12.671875 31.3125 
Q 6.296875 37.9375 6.296875 49.421875 
Q 6.296875 60.640625 12.9375 67.421875 
Q 19.578125 74.21875 30.609375 74.21875 
Q 43.265625 74.21875 49.921875 64.515625 
Q 56.59375 54.828125 56.59375 36.375 
Q 56.59375 19.140625 48.40625 8.859375 
Q 40.234375 -1.421875 26.421875 -1.421875 
Q 22.703125 -1.421875 18.890625 -0.6875 
Q 15.09375 0.046875 10.984375 1.515625 
z
M 30.609375 32.421875 
Q 37.25 32.421875 41.125 36.953125 
Q 45.015625 41.5 45.015625 49.421875 
Q 45.015625 57.28125 41.125 61.84375 
Q 37.25 66.40625 30.609375 66.40625 
Q 23.96875 66.40625 20.09375 61.84375 
Q 16.21875 57.28125 16.21875 49.421875 
Q 16.21875 41.5 20.09375 36.953125 
Q 23.96875 32.421875 30.609375 32.421875 
z
" id="DejaVuSans-39"/>
    </defs>
    <g transform="translate(369.479935 37.551928)scale(0.17 -0.17)">
     <use xlink:href="#DejaVuSans-62"/>
     <use x="63.476562" xlink:href="#DejaVuSans-65"/>
     <use x="125" xlink:href="#DejaVuSans-73"/>
     <use x="177.099609" xlink:href="#DejaVuSans-74"/>
     <use x="216.308594" xlink:href="#DejaVuSans-20"/>
     <use x="248.095703" xlink:href="#DejaVuSans-32"/>
     <use x="311.71875" xlink:href="#DejaVuSans-30"/>
     <use x="375.341797" xlink:href="#DejaVuSans-30"/>
     <use x="438.964844" xlink:href="#DejaVuSans-39"/>
    </g>
   </g>
   <g id="text_19">
    <!-- bbob f21, 40-D -->
    <g transform="translate(59.55864 35.290806)scale(0.102 -0.102)">
     <use xlink:href="#DejaVuSans-62"/>
     <use x="63.476562" xlink:href="#DejaVuSans-62"/>
     <use x="126.953125" xlink:href="#DejaVuSans-6f"/>
     <use x="188.134766" xlink:href="#DejaVuSans-62"/>
     <use x="251.611328" xlink:href="#DejaVuSans-20"/>
     <use x="283.398438" xlink:href="#DejaVuSans-66"/>
     <use x="318.603516" xlink:href="#DejaVuSans-32"/>
     <use x="382.226562" xlink:href="#DejaVuSans-31"/>
     <use x="445.849609" xlink:href="#DejaVuSans-2c"/>
     <use x="477.636719" xlink:href="#DejaVuSans-20"/>
     <use x="509.423828" xlink:href="#DejaVuSans-34"/>
     <use x="573.046875" xlink:href="#DejaVuSans-30"/>
     <use x="636.669922" xlink:href="#DejaVuSans-2d"/>
     <use x="672.753906" xlink:href="#DejaVuSans-44"/>
    </g>
    <!-- 51 targets: 100..1e-08 -->
    <defs>
     <path d="M 10.796875 72.90625 
L 49.515625 72.90625 
L 49.515625 64.59375 
L 19.828125 64.59375 
L 19.828125 46.734375 
Q 21.96875 47.46875 24.109375 47.828125 
Q 26.265625 48.1875 28.421875 48.1875 
Q 40.625 48.1875 47.75 41.5 
Q 54.890625 34.8125 54.890625 23.390625 
Q 54.890625 11.625 47.5625 5.09375 
Q 40.234375 -1.421875 26.90625 -1.421875 
Q 22.3125 -1.421875 17.546875 -0.640625 
Q 12.796875 0.140625 7.71875 1.703125 
L 7.71875 11.625 
Q 12.109375 9.234375 16.796875 8.0625 
Q 21.484375 6.890625 26.703125 6.890625 
Q 35.15625 6.890625 40.078125 11.328125 
Q 45.015625 15.765625 45.015625 23.390625 
Q 45.015625 31 40.078125 35.4375 
Q 35.15625 39.890625 26.703125 39.890625 
Q 22.75 39.890625 18.8125 39.015625 
Q 14.890625 38.140625 10.796875 36.28125 
z
" id="DejaVuSans-35"/>
     <path d="M 11.71875 12.40625 
L 22.015625 12.40625 
L 22.015625 0 
L 11.71875 0 
z
M 11.71875 51.703125 
L 22.015625 51.703125 
L 22.015625 39.3125 
L 11.71875 39.3125 
z
" id="DejaVuSans-3a"/>
    </defs>
    <g transform="translate(59.55864 46.712575)scale(0.102 -0.102)">
     <use xlink:href="#DejaVuSans-35"/>
     <use x="63.623047" xlink:href="#DejaVuSans-31"/>
     <use x="127.246094" xlink:href="#DejaVuSans-20"/>
     <use x="159.033203" xlink:href="#DejaVuSans-74"/>
     <use x="198.242188" xlink:href="#DejaVuSans-61"/>
     <use x="259.521484" xlink:href="#DejaVuSans-72"/>
     <use x="300.619141" xlink:href="#DejaVuSans-67"/>
     <use x="364.095703" xlink:href="#DejaVuSans-65"/>
     <use x="425.619141" xlink:href="#DejaVuSans-74"/>
     <use x="464.828125" xlink:href="#DejaVuSans-73"/>
     <use x="516.927734" xlink:href="#DejaVuSans-3a"/>
     <use x="550.619141" xlink:href="#DejaVuSans-20"/>
     <use x="582.40625" xlink:href="#DejaVuSans-31"/>
     <use x="646.029297" xlink:href="#DejaVuSans-30"/>
     <use x="709.652344" xlink:href="#DejaVuSans-30"/>
     <use x="773.275391" xlink:href="#DejaVuSans-2e"/>
     <use x="805.0625" xlink:href="#DejaVuSans-2e"/>
     <use x="836.849609" xlink:href="#DejaVuSans-31"/>
     <use x="900.472656" xlink:href="#DejaVuSans-65"/>
     <use x="961.996094" xlink:href="#DejaVuSans-2d"/>
     <use x="998.080078" xlink:href="#DejaVuSans-30"/>
     <use x="1061.703125" xlink:href="#DejaVuSans-38"/>
    </g>
    <!-- 15 instances -->
    <g transform="translate(59.55864 58.134344)scale(0.102 -0.102)">
     <use xlink:href="#DejaVuSans-31"/>
     <use x="63.623047" xlink:href="#DejaVuSans-35"/>
     <use x="127.246094" xlink:href="#DejaVuSans-20"/>
     <use x="159.033203" xlink:href="#DejaVuSans-69"/>
     <use x="186.816406" xlink:href="#DejaVuSans-6e"/>
     <use x="250.195312" xlink:href="#DejaVuSans-73"/>
     <use x="302.294922" xlink:href="#DejaVuSans-74"/>
     <use x="341.503906" xlink:href="#DejaVuSans-61"/>
     <use x="402.783203" xlink:href="#DejaVuSans-6e"/>
     <use x="466.162109" xlink:href="#DejaVuSans-63"/>
     <use x="521.142578" xlink:href="#DejaVuSans-65"/>
     <use x="582.666016" xlink:href="#DejaVuSans-73"/>
    </g>
   </g>
   <g id="text_20">
    <!-- v-coco-version -->
    <g style="fill:#808080;" transform="translate(191.556688 290.099912)scale(0.1 -0.1)">
     <use xlink:href="#DejaVuSans-76"/>
     <use x="59.148438" xlink:href="#DejaVuSans-2d"/>
     <use x="95.232422" xlink:href="#DejaVuSans-63"/>
     <use x="150.212891" xlink:href="#DejaVuSans-6f"/>
     <use x="211.394531" xlink:href="#DejaVuSans-63"/>
     <use x="266.375" xlink:href="#DejaVuSans-6f"/>
     <use x="327.572266" xlink:href="#DejaVuSans-2d"/>
     <use x="363.625" xlink:href="#DejaVuSans-76"/>
     <use x="422.804688" xlink:href="#DejaVuSans-65"/>
     <use x="484.328125" xlink:href="#DejaVuSans-72"/>
     <use x="525.441406" xlink:href="#DejaVuSans-73"/>
     <use x="577.541016" xlink:href="#DejaVuSans-69"/>
     <use x="605.324219" xlink:href="#DejaVuSans-6f"/>
     <use x="666.505859" xlink:href="#DejaVuSans-6e"/>
    </g>
   </g>
   <g id="text_21">
    <!-- 21 Gallagher 101 peaks -->
    <defs>
     <path d="M 54.890625 33.015625 
L 54.890625 0 
L 45.90625 0 
L 45.90625 32.71875 
Q 45.90625 40.484375 42.875 44.328125 
Q 39.84375 48.1875 33.796875 48.1875 
Q 26.515625 48.1875 22.3125 43.546875 
Q 18.109375 38.921875 18.109375 30.90625 
L 18.109375 0 
L 9.078125 0 
L 9.078125 75.984375 
L 18.109375 75.984375 
L 18.109375 46.1875 
Q 21.34375 51.125 25.703125 53.5625 
Q 30.078125 56 35.796875 56 
Q 45.21875 56 50.046875 50.171875 
Q 54.890625 44.34375 54.890625 33.015625 
z
" id="DejaVuSans-68"/>
     <path d="M 9.078125 75.984375 
L 18.109375 75.984375 
L 18.109375 31.109375 
L 44.921875 54.6875 
L 56.390625 54.6875 
L 27.390625 29.109375 
L 57.625 0 
L 45.90625 0 
L 18.109375 26.703125 
L 18.109375 0 
L 9.078125 0 
z
" id="DejaVuSans-6b"/>
    </defs>
    <g transform="translate(108.5645 18.84)scale(0.2 -0.2)">
     <use xlink:href="#DejaVuSans-32"/>
     <use x="63.623047" xlink:href="#DejaVuSans-31"/>
     <use x="127.246094" xlink:href="#DejaVuSans-20"/>
     <use x="159.033203" xlink:href="#DejaVuSans-47"/>
     <use x="236.523438" xlink:href="#DejaVuSans-61"/>
     <use x="297.802734" xlink:href="#DejaVuSans-6c"/>
     <use x="325.585938" xlink:href="#DejaVuSans-6c"/>
     <use x="353.369141" xlink:href="#DejaVuSans-61"/>
     <use x="414.648438" xlink:href="#DejaVuSans-67"/>
     <use x="478.125" xlink:href="#DejaVuSans-68"/>
     <use x="541.503906" xlink:href="#DejaVuSans-65"/>
     <use x="603.027344" xlink:href="#DejaVuSans-72"/>
     <use x="644.140625" xlink:href="#DejaVuSans-20"/>
     <use x="675.927734" xlink:href="#DejaVuSans-31"/>
     <use x="739.550781" xlink:href="#DejaVuSans-30"/>
     <use x="803.173828" xlink:href="#DejaVuSans-31"/>
     <use x="866.796875" xlink:href="#DejaVuSans-20"/>
     <use x="898.583984" xlink:href="#DejaVuSans-70"/>
     <use x="962.060547" xlink:href="#DejaVuSans-65"/>
     <use x="1023.583984" xlink:href="#DejaVuSans-61"/>
     <use x="1084.863281" xlink:href="#DejaVuSans-6b"/>
     <use x="1142.773438" xlink:href="#DejaVuSans-73"/>
    </g>
   </g>
  </g>
 </g>
 <defs>
  <clipPath id="p2bda0b5139">
   <rect height="270.04" width="343.864" x="56.12" y="24.84"/>
  </clipPath>
 </defs>
</svg>
