<?xml version="1.0" encoding="utf-8" standalone="no"?>
<!DOCTYPE svg PUBLIC "-//W3C//DTD SVG 1.1//EN"
  "http://www.w3.org/Graphics/SVG/1.1/DTD/svg11.dtd">
<!-- Created with matplotlib (http://matplotlib.org/) -->
<svg height="345.6pt" version="1.1" viewBox="0 0 460.8 345.6" width="460.8pt" xmlns="http://www.w3.org/2000/svg" xmlns:xlink="http://www.w3.org/1999/xlink">
 <defs>
  <style type="text/css">
*{stroke-linecap:butt;stroke-linejoin:round;}
  </style>
 </defs>
 <g id="figure_1">
  <g id="patch_1">
   <path d="M 0 345.6 
L 460.8 345.6 
L 460.8 0 
L 0 0 
z
" style="fill:#ffffff;"/>
  </g>
  <g id="axes_1">
   <g id="patch_2">
    <path d="M 56.12 294.88 
L 399.984 294.88 
L 399.984 24.84 
L 56.12 24.84 
z
" style="fill:#ffffff;"/>
   </g>
   <g id="line2d_1">
    <path d="M 37.218523 294.88 
L 37.218523 284.395046 
L 64.908686 284.395046 
L 64.908686 279.152568 
L 81.348133 279.152568 
L 81.348133 273.910091 
L 103.459797 273.910091 
L 103.459797 268.667614 
L 115.925812 268.667614 
L 115.925812 263.425137 
L 139.508688 263.425137 
L 139.508688 258.18266 
L 161.619394 258.18266 
L 161.619394 252.940182 
L 180.193868 252.940182 
L 180.193868 247.697705 
L 186.338875 247.697705 
L 186.338875 242.455228 
L 196.341087 242.455228 
L 196.341087 237.212751 
L 207.143737 237.212751 
L 207.143737 231.970274 
L 213.893473 231.970274 
L 213.893473 226.727797 
L 220.496121 226.727797 
L 220.496121 221.485319 
L 224.464522 221.485319 
L 224.464522 216.242842 
L 235.747527 216.242842 
L 235.747527 211.000365 
L 239.629868 211.000365 
L 239.629868 205.757888 
L 249.905721 205.757888 
L 249.905721 200.515411 
L 257.216178 200.515411 
L 257.216178 195.272933 
L 257.216226 195.272933 
L 257.216226 190.030456 
L 257.216371 190.030456 
L 257.216371 111.393298 
L 257.216563 111.393298 
L 257.216563 106.150821 
L 257.216611 106.150821 
L 257.216611 100.908344 
L 257.21666 100.908344 
L 257.21666 79.938435 
L 257.216948 79.938435 
L 257.216948 27.513663 
L 333.429677 27.513663 
" style="fill:none;stroke:#f5deb3;stroke-linecap:square;stroke-width:6;"/>
   </g>
   <g id="line2d_2">
    <defs>
     <path d="M -0 7.778175 
L 7.778175 0 
L 0 -7.778175 
L -7.778175 -0 
z
" id="m1dcab58458" style="stroke:#f5deb3;stroke-linejoin:miter;stroke-width:1.5;"/>
    </defs>
    <g>
     <use style="fill:#f5deb3;stroke:#f5deb3;stroke-linejoin:miter;stroke-width:1.5;" x="115.925812" xlink:href="#m1dcab58458" y="263.425137"/>
     <use style="fill:#f5deb3;stroke:#f5deb3;stroke-linejoin:miter;stroke-width:1.5;" x="213.893473" xlink:href="#m1dcab58458" y="231.970274"/>
     <use style="fill:#f5deb3;stroke:#f5deb3;stroke-linejoin:miter;stroke-width:1.5;" x="257.216226" xlink:href="#m1dcab58458" y="190.030456"/>
     <use style="fill:#f5deb3;stroke:#f5deb3;stroke-linejoin:miter;stroke-width:1.5;" x="257.216948" xlink:href="#m1dcab58458" y="79.938435"/>
     <use style="fill:#f5deb3;stroke:#f5deb3;stroke-linejoin:miter;stroke-width:1.5;" x="257.216948" xlink:href="#m1dcab58458" y="27.513663"/>
     <use style="fill:#f5deb3;stroke:#f5deb3;stroke-linejoin:miter;stroke-width:1.5;" x="333.429677" xlink:href="#m1dcab58458" y="27.513663"/>
    </g>
   </g>
   <g id="line2d_3">
    <path style="fill:none;stroke:#f5deb3;stroke-linecap:square;stroke-width:6;"/>
    <g/>
   </g>
   <g id="line2d_4">
    <path d="M 333.429677 27.513663 
L 363.933742 32.86099 
" style="fill:none;stroke:#f5deb3;stroke-linecap:square;stroke-width:6;"/>
    <g>
     <use style="fill:#f5deb3;stroke:#f5deb3;stroke-linejoin:miter;stroke-width:1.5;" x="333.429677" xlink:href="#m1dcab58458" y="27.513663"/>
     <use style="fill:#f5deb3;stroke:#f5deb3;stroke-linejoin:miter;stroke-width:1.5;" x="363.933742" xlink:href="#m1dcab58458" y="32.86099"/>
    </g>
   </g>
   <g id="matplotlib.axis_1">
    <g id="xtick_1">
     <g id="line2d_5">
      <path clip-path="url(#p12e2c859b4)" d="M 56.12 294.88 
L 56.12 24.84 
" style="fill:none;stroke:#b0b0b0;stroke-linecap:square;stroke-width:0.8;"/>
     </g>
     <g id="line2d_6">
      <defs>
       <path d="M 0 0 
L 0 3.5 
" id="mbadab138bc" style="stroke:#000000;stroke-width:0.8;"/>
      </defs>
      <g>
       <use style="stroke:#000000;stroke-width:0.8;" x="56.12" xlink:href="#mbadab138bc" y="294.88"/>
      </g>
     </g>
     <g id="text_1">
      <!-- 0 -->
      <defs>
       <path d="M 31.78125 66.40625 
Q 24.171875 66.40625 20.328125 58.90625 
Q 16.5 51.421875 16.5 36.375 
Q 16.5 21.390625 20.328125 13.890625 
Q 24.171875 6.390625 31.78125 6.390625 
Q 39.453125 6.390625 43.28125 13.890625 
Q 47.125 21.390625 47.125 36.375 
Q 47.125 51.421875 43.28125 58.90625 
Q 39.453125 66.40625 31.78125 66.40625 
z
M 31.78125 74.21875 
Q 44.046875 74.21875 50.515625 64.515625 
Q 56.984375 54.828125 56.984375 36.375 
Q 56.984375 17.96875 50.515625 8.265625 
Q 44.046875 -1.421875 31.78125 -1.421875 
Q 19.53125 -1.421875 13.0625 8.265625 
Q 6.59375 17.96875 6.59375 36.375 
Q 6.59375 54.828125 13.0625 64.515625 
Q 19.53125 74.21875 31.78125 74.21875 
z
" id="DejaVuSans-30"/>
      </defs>
      <g transform="translate(49.7575 317.076875)scale(0.2 -0.2)">
       <use xlink:href="#DejaVuSans-30"/>
      </g>
     </g>
    </g>
    <g id="xtick_2">
     <g id="line2d_7">
      <path clip-path="url(#p12e2c859b4)" d="M 135.351336 294.88 
L 135.351336 24.84 
" style="fill:none;stroke:#b0b0b0;stroke-linecap:square;stroke-width:0.8;"/>
     </g>
     <g id="line2d_8">
      <g>
       <use style="stroke:#000000;stroke-width:0.8;" x="135.351336" xlink:href="#mbadab138bc" y="294.88"/>
      </g>
     </g>
     <g id="text_2">
      <!-- 2 -->
      <defs>
       <path d="M 19.1875 8.296875 
L 53.609375 8.296875 
L 53.609375 0 
L 7.328125 0 
L 7.328125 8.296875 
Q 12.9375 14.109375 22.625 23.890625 
Q 32.328125 33.6875 34.8125 36.53125 
Q 39.546875 41.84375 41.421875 45.53125 
Q 43.3125 49.21875 43.3125 52.78125 
Q 43.3125 58.59375 39.234375 62.25 
Q 35.15625 65.921875 28.609375 65.921875 
Q 23.96875 65.921875 18.8125 64.3125 
Q 13.671875 62.703125 7.8125 59.421875 
L 7.8125 69.390625 
Q 13.765625 71.78125 18.9375 73 
Q 24.125 74.21875 28.421875 74.21875 
Q 39.75 74.21875 46.484375 68.546875 
Q 53.21875 62.890625 53.21875 53.421875 
Q 53.21875 48.921875 51.53125 44.890625 
Q 49.859375 40.875 45.40625 35.40625 
Q 44.1875 33.984375 37.640625 27.21875 
Q 31.109375 20.453125 19.1875 8.296875 
z
" id="DejaVuSans-32"/>
      </defs>
      <g transform="translate(128.988836 317.076875)scale(0.2 -0.2)">
       <use xlink:href="#DejaVuSans-32"/>
      </g>
     </g>
    </g>
    <g id="xtick_3">
     <g id="line2d_9">
      <path clip-path="url(#p12e2c859b4)" d="M 214.582673 294.88 
L 214.582673 24.84 
" style="fill:none;stroke:#b0b0b0;stroke-linecap:square;stroke-width:0.8;"/>
     </g>
     <g id="line2d_10">
      <g>
       <use style="stroke:#000000;stroke-width:0.8;" x="214.582673" xlink:href="#mbadab138bc" y="294.88"/>
      </g>
     </g>
     <g id="text_3">
      <!-- 4 -->
      <defs>
       <path d="M 37.796875 64.3125 
L 12.890625 25.390625 
L 37.796875 25.390625 
z
M 35.203125 72.90625 
L 47.609375 72.90625 
L 47.609375 25.390625 
L 58.015625 25.390625 
L 58.015625 17.1875 
L 47.609375 17.1875 
L 47.609375 0 
L 37.796875 0 
L 37.796875 17.1875 
L 4.890625 17.1875 
L 4.890625 26.703125 
z
" id="DejaVuSans-34"/>
      </defs>
      <g transform="translate(208.220173 317.076875)scale(0.2 -0.2)">
       <use xlink:href="#DejaVuSans-34"/>
      </g>
     </g>
    </g>
    <g id="xtick_4">
     <g id="line2d_11">
      <path clip-path="url(#p12e2c859b4)" d="M 293.814009 294.88 
L 293.814009 24.84 
" style="fill:none;stroke:#b0b0b0;stroke-linecap:square;stroke-width:0.8;"/>
     </g>
     <g id="line2d_12">
      <g>
       <use style="stroke:#000000;stroke-width:0.8;" x="293.814009" xlink:href="#mbadab138bc" y="294.88"/>
      </g>
     </g>
     <g id="text_4">
      <!-- 6 -->
      <defs>
       <path d="M 33.015625 40.375 
Q 26.375 40.375 22.484375 35.828125 
Q 18.609375 31.296875 18.609375 23.390625 
Q 18.609375 15.53125 22.484375 10.953125 
Q 26.375 6.390625 33.015625 6.390625 
Q 39.65625 6.390625 43.53125 10.953125 
Q 47.40625 15.53125 47.40625 23.390625 
Q 47.40625 31.296875 43.53125 35.828125 
Q 39.65625 40.375 33.015625 40.375 
z
M 52.59375 71.296875 
L 52.59375 62.3125 
Q 48.875 64.0625 45.09375 64.984375 
Q 41.3125 65.921875 37.59375 65.921875 
Q 27.828125 65.921875 22.671875 59.328125 
Q 17.53125 52.734375 16.796875 39.40625 
Q 19.671875 43.65625 24.015625 45.921875 
Q 28.375 48.1875 33.59375 48.1875 
Q 44.578125 48.1875 50.953125 41.515625 
Q 57.328125 34.859375 57.328125 23.390625 
Q 57.328125 12.15625 50.6875 5.359375 
Q 44.046875 -1.421875 33.015625 -1.421875 
Q 20.359375 -1.421875 13.671875 8.265625 
Q 6.984375 17.96875 6.984375 36.375 
Q 6.984375 53.65625 15.1875 63.9375 
Q 23.390625 74.21875 37.203125 74.21875 
Q 40.921875 74.21875 44.703125 73.484375 
Q 48.484375 72.75 52.59375 71.296875 
z
" id="DejaVuSans-36"/>
      </defs>
      <g transform="translate(287.451509 317.076875)scale(0.2 -0.2)">
       <use xlink:href="#DejaVuSans-36"/>
      </g>
     </g>
    </g>
    <g id="xtick_5">
     <g id="line2d_13">
      <path clip-path="url(#p12e2c859b4)" d="M 373.045346 294.88 
L 373.045346 24.84 
" style="fill:none;stroke:#b0b0b0;stroke-linecap:square;stroke-width:0.8;"/>
     </g>
     <g id="line2d_14">
      <g>
       <use style="stroke:#000000;stroke-width:0.8;" x="373.045346" xlink:href="#mbadab138bc" y="294.88"/>
      </g>
     </g>
     <g id="text_5">
      <!-- 8 -->
      <defs>
       <path d="M 31.78125 34.625 
Q 24.75 34.625 20.71875 30.859375 
Q 16.703125 27.09375 16.703125 20.515625 
Q 16.703125 13.921875 20.71875 10.15625 
Q 24.75 6.390625 31.78125 6.390625 
Q 38.8125 6.390625 42.859375 10.171875 
Q 46.921875 13.96875 46.921875 20.515625 
Q 46.921875 27.09375 42.890625 30.859375 
Q 38.875 34.625 31.78125 34.625 
z
M 21.921875 38.8125 
Q 15.578125 40.375 12.03125 44.71875 
Q 8.5 49.078125 8.5 55.328125 
Q 8.5 64.0625 14.71875 69.140625 
Q 20.953125 74.21875 31.78125 74.21875 
Q 42.671875 74.21875 48.875 69.140625 
Q 55.078125 64.0625 55.078125 55.328125 
Q 55.078125 49.078125 51.53125 44.71875 
Q 48 40.375 41.703125 38.8125 
Q 48.828125 37.15625 52.796875 32.3125 
Q 56.78125 27.484375 56.78125 20.515625 
Q 56.78125 9.90625 50.3125 4.234375 
Q 43.84375 -1.421875 31.78125 -1.421875 
Q 19.734375 -1.421875 13.25 4.234375 
Q 6.78125 9.90625 6.78125 20.515625 
Q 6.78125 27.484375 10.78125 32.3125 
Q 14.796875 37.15625 21.921875 38.8125 
z
M 18.3125 54.390625 
Q 18.3125 48.734375 21.84375 45.5625 
Q 25.390625 42.390625 31.78125 42.390625 
Q 38.140625 42.390625 41.71875 45.5625 
Q 45.3125 48.734375 45.3125 54.390625 
Q 45.3125 60.0625 41.71875 63.234375 
Q 38.140625 66.40625 31.78125 66.40625 
Q 25.390625 66.40625 21.84375 63.234375 
Q 18.3125 60.0625 18.3125 54.390625 
z
" id="DejaVuSans-38"/>
      </defs>
      <g transform="translate(366.682846 317.076875)scale(0.2 -0.2)">
       <use xlink:href="#DejaVuSans-38"/>
      </g>
     </g>
    </g>
    <g id="text_6">
     <!-- log10(# f-evals / dimension) -->
     <defs>
      <path d="M 9.421875 75.984375 
L 18.40625 75.984375 
L 18.40625 0 
L 9.421875 0 
z
" id="DejaVuSans-6c"/>
      <path d="M 30.609375 48.390625 
Q 23.390625 48.390625 19.1875 42.75 
Q 14.984375 37.109375 14.984375 27.296875 
Q 14.984375 17.484375 19.15625 11.84375 
Q 23.34375 6.203125 30.609375 6.203125 
Q 37.796875 6.203125 41.984375 11.859375 
Q 46.1875 17.53125 46.1875 27.296875 
Q 46.1875 37.015625 41.984375 42.703125 
Q 37.796875 48.390625 30.609375 48.390625 
z
M 30.609375 56 
Q 42.328125 56 49.015625 48.375 
Q 55.71875 40.765625 55.71875 27.296875 
Q 55.71875 13.875 49.015625 6.21875 
Q 42.328125 -1.421875 30.609375 -1.421875 
Q 18.84375 -1.421875 12.171875 6.21875 
Q 5.515625 13.875 5.515625 27.296875 
Q 5.515625 40.765625 12.171875 48.375 
Q 18.84375 56 30.609375 56 
z
" id="DejaVuSans-6f"/>
      <path d="M 45.40625 27.984375 
Q 45.40625 37.75 41.375 43.109375 
Q 37.359375 48.484375 30.078125 48.484375 
Q 22.859375 48.484375 18.828125 43.109375 
Q 14.796875 37.75 14.796875 27.984375 
Q 14.796875 18.265625 18.828125 12.890625 
Q 22.859375 7.515625 30.078125 7.515625 
Q 37.359375 7.515625 41.375 12.890625 
Q 45.40625 18.265625 45.40625 27.984375 
z
M 54.390625 6.78125 
Q 54.390625 -7.171875 48.1875 -13.984375 
Q 42 -20.796875 29.203125 -20.796875 
Q 24.46875 -20.796875 20.265625 -20.09375 
Q 16.0625 -19.390625 12.109375 -17.921875 
L 12.109375 -9.1875 
Q 16.0625 -11.328125 19.921875 -12.34375 
Q 23.78125 -13.375 27.78125 -13.375 
Q 36.625 -13.375 41.015625 -8.765625 
Q 45.40625 -4.15625 45.40625 5.171875 
L 45.40625 9.625 
Q 42.625 4.78125 38.28125 2.390625 
Q 33.9375 0 27.875 0 
Q 17.828125 0 11.671875 7.65625 
Q 5.515625 15.328125 5.515625 27.984375 
Q 5.515625 40.671875 11.671875 48.328125 
Q 17.828125 56 27.875 56 
Q 33.9375 56 38.28125 53.609375 
Q 42.625 51.21875 45.40625 46.390625 
L 45.40625 54.6875 
L 54.390625 54.6875 
z
" id="DejaVuSans-67"/>
      <path d="M 12.40625 8.296875 
L 28.515625 8.296875 
L 28.515625 63.921875 
L 10.984375 60.40625 
L 10.984375 69.390625 
L 28.421875 72.90625 
L 38.28125 72.90625 
L 38.28125 8.296875 
L 54.390625 8.296875 
L 54.390625 0 
L 12.40625 0 
z
" id="DejaVuSans-31"/>
      <path d="M 31 75.875 
Q 24.46875 64.65625 21.28125 53.65625 
Q 18.109375 42.671875 18.109375 31.390625 
Q 18.109375 20.125 21.3125 9.0625 
Q 24.515625 -2 31 -13.1875 
L 23.1875 -13.1875 
Q 15.875 -1.703125 12.234375 9.375 
Q 8.59375 20.453125 8.59375 31.390625 
Q 8.59375 42.28125 12.203125 53.3125 
Q 15.828125 64.359375 23.1875 75.875 
z
" id="DejaVuSans-28"/>
      <path d="M 51.125 44 
L 36.921875 44 
L 32.8125 27.6875 
L 47.125 27.6875 
z
M 43.796875 71.78125 
L 38.71875 51.515625 
L 52.984375 51.515625 
L 58.109375 71.78125 
L 65.921875 71.78125 
L 60.890625 51.515625 
L 76.125 51.515625 
L 76.125 44 
L 58.984375 44 
L 54.984375 27.6875 
L 70.515625 27.6875 
L 70.515625 20.21875 
L 53.078125 20.21875 
L 48 0 
L 40.1875 0 
L 45.21875 20.21875 
L 30.90625 20.21875 
L 25.875 0 
L 18.015625 0 
L 23.09375 20.21875 
L 7.71875 20.21875 
L 7.71875 27.6875 
L 24.90625 27.6875 
L 29 44 
L 13.28125 44 
L 13.28125 51.515625 
L 30.90625 51.515625 
L 35.890625 71.78125 
z
" id="DejaVuSans-23"/>
      <path id="DejaVuSans-20"/>
      <path d="M 37.109375 75.984375 
L 37.109375 68.5 
L 28.515625 68.5 
Q 23.6875 68.5 21.796875 66.546875 
Q 19.921875 64.59375 19.921875 59.515625 
L 19.921875 54.6875 
L 34.71875 54.6875 
L 34.71875 47.703125 
L 19.921875 47.703125 
L 19.921875 0 
L 10.890625 0 
L 10.890625 47.703125 
L 2.296875 47.703125 
L 2.296875 54.6875 
L 10.890625 54.6875 
L 10.890625 58.5 
Q 10.890625 67.625 15.140625 71.796875 
Q 19.390625 75.984375 28.609375 75.984375 
z
" id="DejaVuSans-66"/>
      <path d="M 4.890625 31.390625 
L 31.203125 31.390625 
L 31.203125 23.390625 
L 4.890625 23.390625 
z
" id="DejaVuSans-2d"/>
      <path d="M 56.203125 29.59375 
L 56.203125 25.203125 
L 14.890625 25.203125 
Q 15.484375 15.921875 20.484375 11.0625 
Q 25.484375 6.203125 34.421875 6.203125 
Q 39.59375 6.203125 44.453125 7.46875 
Q 49.3125 8.734375 54.109375 11.28125 
L 54.109375 2.78125 
Q 49.265625 0.734375 44.1875 -0.34375 
Q 39.109375 -1.421875 33.890625 -1.421875 
Q 20.796875 -1.421875 13.15625 6.1875 
Q 5.515625 13.8125 5.515625 26.8125 
Q 5.515625 40.234375 12.765625 48.109375 
Q 20.015625 56 32.328125 56 
Q 43.359375 56 49.78125 48.890625 
Q 56.203125 41.796875 56.203125 29.59375 
z
M 47.21875 32.234375 
Q 47.125 39.59375 43.09375 43.984375 
Q 39.0625 48.390625 32.421875 48.390625 
Q 24.90625 48.390625 20.390625 44.140625 
Q 15.875 39.890625 15.1875 32.171875 
z
" id="DejaVuSans-65"/>
      <path d="M 2.984375 54.6875 
L 12.5 54.6875 
L 29.59375 8.796875 
L 46.6875 54.6875 
L 56.203125 54.6875 
L 35.6875 0 
L 23.484375 0 
z
" id="DejaVuSans-76"/>
      <path d="M 34.28125 27.484375 
Q 23.390625 27.484375 19.1875 25 
Q 14.984375 22.515625 14.984375 16.5 
Q 14.984375 11.71875 18.140625 8.90625 
Q 21.296875 6.109375 26.703125 6.109375 
Q 34.1875 6.109375 38.703125 11.40625 
Q 43.21875 16.703125 43.21875 25.484375 
L 43.21875 27.484375 
z
M 52.203125 31.203125 
L 52.203125 0 
L 43.21875 0 
L 43.21875 8.296875 
Q 40.140625 3.328125 35.546875 0.953125 
Q 30.953125 -1.421875 24.3125 -1.421875 
Q 15.921875 -1.421875 10.953125 3.296875 
Q 6 8.015625 6 15.921875 
Q 6 25.140625 12.171875 29.828125 
Q 18.359375 34.515625 30.609375 34.515625 
L 43.21875 34.515625 
L 43.21875 35.40625 
Q 43.21875 41.609375 39.140625 45 
Q 35.0625 48.390625 27.6875 48.390625 
Q 23 48.390625 18.546875 47.265625 
Q 14.109375 46.140625 10.015625 43.890625 
L 10.015625 52.203125 
Q 14.9375 54.109375 19.578125 55.046875 
Q 24.21875 56 28.609375 56 
Q 40.484375 56 46.34375 49.84375 
Q 52.203125 43.703125 52.203125 31.203125 
z
" id="DejaVuSans-61"/>
      <path d="M 44.28125 53.078125 
L 44.28125 44.578125 
Q 40.484375 46.53125 36.375 47.5 
Q 32.28125 48.484375 27.875 48.484375 
Q 21.1875 48.484375 17.84375 46.4375 
Q 14.5 44.390625 14.5 40.28125 
Q 14.5 37.15625 16.890625 35.375 
Q 19.28125 33.59375 26.515625 31.984375 
L 29.59375 31.296875 
Q 39.15625 29.25 43.1875 25.515625 
Q 47.21875 21.78125 47.21875 15.09375 
Q 47.21875 7.46875 41.1875 3.015625 
Q 35.15625 -1.421875 24.609375 -1.421875 
Q 20.21875 -1.421875 15.453125 -0.5625 
Q 10.6875 0.296875 5.421875 2 
L 5.421875 11.28125 
Q 10.40625 8.6875 15.234375 7.390625 
Q 20.0625 6.109375 24.8125 6.109375 
Q 31.15625 6.109375 34.5625 8.28125 
Q 37.984375 10.453125 37.984375 14.40625 
Q 37.984375 18.0625 35.515625 20.015625 
Q 33.0625 21.96875 24.703125 23.78125 
L 21.578125 24.515625 
Q 13.234375 26.265625 9.515625 29.90625 
Q 5.8125 33.546875 5.8125 39.890625 
Q 5.8125 47.609375 11.28125 51.796875 
Q 16.75 56 26.8125 56 
Q 31.78125 56 36.171875 55.265625 
Q 40.578125 54.546875 44.28125 53.078125 
z
" id="DejaVuSans-73"/>
      <path d="M 25.390625 72.90625 
L 33.6875 72.90625 
L 8.296875 -9.28125 
L 0 -9.28125 
z
" id="DejaVuSans-2f"/>
      <path d="M 45.40625 46.390625 
L 45.40625 75.984375 
L 54.390625 75.984375 
L 54.390625 0 
L 45.40625 0 
L 45.40625 8.203125 
Q 42.578125 3.328125 38.25 0.953125 
Q 33.9375 -1.421875 27.875 -1.421875 
Q 17.96875 -1.421875 11.734375 6.484375 
Q 5.515625 14.40625 5.515625 27.296875 
Q 5.515625 40.1875 11.734375 48.09375 
Q 17.96875 56 27.875 56 
Q 33.9375 56 38.25 53.625 
Q 42.578125 51.265625 45.40625 46.390625 
z
M 14.796875 27.296875 
Q 14.796875 17.390625 18.875 11.75 
Q 22.953125 6.109375 30.078125 6.109375 
Q 37.203125 6.109375 41.296875 11.75 
Q 45.40625 17.390625 45.40625 27.296875 
Q 45.40625 37.203125 41.296875 42.84375 
Q 37.203125 48.484375 30.078125 48.484375 
Q 22.953125 48.484375 18.875 42.84375 
Q 14.796875 37.203125 14.796875 27.296875 
z
" id="DejaVuSans-64"/>
      <path d="M 9.421875 54.6875 
L 18.40625 54.6875 
L 18.40625 0 
L 9.421875 0 
z
M 9.421875 75.984375 
L 18.40625 75.984375 
L 18.40625 64.59375 
L 9.421875 64.59375 
z
" id="DejaVuSans-69"/>
      <path d="M 52 44.1875 
Q 55.375 50.25 60.0625 53.125 
Q 64.75 56 71.09375 56 
Q 79.640625 56 84.28125 50.015625 
Q 88.921875 44.046875 88.921875 33.015625 
L 88.921875 0 
L 79.890625 0 
L 79.890625 32.71875 
Q 79.890625 40.578125 77.09375 44.375 
Q 74.3125 48.1875 68.609375 48.1875 
Q 61.625 48.1875 57.5625 43.546875 
Q 53.515625 38.921875 53.515625 30.90625 
L 53.515625 0 
L 44.484375 0 
L 44.484375 32.71875 
Q 44.484375 40.625 41.703125 44.40625 
Q 38.921875 48.1875 33.109375 48.1875 
Q 26.21875 48.1875 22.15625 43.53125 
Q 18.109375 38.875 18.109375 30.90625 
L 18.109375 0 
L 9.078125 0 
L 9.078125 54.6875 
L 18.109375 54.6875 
L 18.109375 46.1875 
Q 21.1875 51.21875 25.484375 53.609375 
Q 29.78125 56 35.6875 56 
Q 41.65625 56 45.828125 52.96875 
Q 50 49.953125 52 44.1875 
z
" id="DejaVuSans-6d"/>
      <path d="M 54.890625 33.015625 
L 54.890625 0 
L 45.90625 0 
L 45.90625 32.71875 
Q 45.90625 40.484375 42.875 44.328125 
Q 39.84375 48.1875 33.796875 48.1875 
Q 26.515625 48.1875 22.3125 43.546875 
Q 18.109375 38.921875 18.109375 30.90625 
L 18.109375 0 
L 9.078125 0 
L 9.078125 54.6875 
L 18.109375 54.6875 
L 18.109375 46.1875 
Q 21.34375 51.125 25.703125 53.5625 
Q 30.078125 56 35.796875 56 
Q 45.21875 56 50.046875 50.171875 
Q 54.890625 44.34375 54.890625 33.015625 
z
" id="DejaVuSans-6e"/>
      <path d="M 8.015625 75.875 
L 15.828125 75.875 
Q 23.140625 64.359375 26.78125 53.3125 
Q 30.421875 42.28125 30.421875 31.390625 
Q 30.421875 20.453125 26.78125 9.375 
Q 23.140625 -1.703125 15.828125 -13.1875 
L 8.015625 -13.1875 
Q 14.5 -2 17.703125 9.0625 
Q 20.90625 20.125 20.90625 31.390625 
Q 20.90625 42.671875 17.703125 53.65625 
Q 14.5 64.65625 8.015625 75.875 
z
" id="DejaVuSans-29"/>
     </defs>
     <g transform="translate(107.211219 338.153594)scale(0.17 -0.17)">
      <use xlink:href="#DejaVuSans-6c"/>
      <use x="27.783203" xlink:href="#DejaVuSans-6f"/>
      <use x="88.964844" xlink:href="#DejaVuSans-67"/>
      <use x="152.441406" xlink:href="#DejaVuSans-31"/>
      <use x="216.064453" xlink:href="#DejaVuSans-30"/>
      <use x="279.6875" xlink:href="#DejaVuSans-28"/>
      <use x="318.701172" xlink:href="#DejaVuSans-23"/>
      <use x="402.490234" xlink:href="#DejaVuSans-20"/>
      <use x="434.277344" xlink:href="#DejaVuSans-66"/>
      <use x="469.404297" xlink:href="#DejaVuSans-2d"/>
      <use x="505.488281" xlink:href="#DejaVuSans-65"/>
      <use x="567.011719" xlink:href="#DejaVuSans-76"/>
      <use x="626.191406" xlink:href="#DejaVuSans-61"/>
      <use x="687.470703" xlink:href="#DejaVuSans-6c"/>
      <use x="715.253906" xlink:href="#DejaVuSans-73"/>
      <use x="767.353516" xlink:href="#DejaVuSans-20"/>
      <use x="799.140625" xlink:href="#DejaVuSans-2f"/>
      <use x="832.832031" xlink:href="#DejaVuSans-20"/>
      <use x="864.619141" xlink:href="#DejaVuSans-64"/>
      <use x="928.095703" xlink:href="#DejaVuSans-69"/>
      <use x="955.878906" xlink:href="#DejaVuSans-6d"/>
      <use x="1053.291016" xlink:href="#DejaVuSans-65"/>
      <use x="1114.814453" xlink:href="#DejaVuSans-6e"/>
      <use x="1178.193359" xlink:href="#DejaVuSans-73"/>
      <use x="1230.292969" xlink:href="#DejaVuSans-69"/>
      <use x="1258.076172" xlink:href="#DejaVuSans-6f"/>
      <use x="1319.257812" xlink:href="#DejaVuSans-6e"/>
      <use x="1382.636719" xlink:href="#DejaVuSans-29"/>
     </g>
    </g>
   </g>
   <g id="matplotlib.axis_2">
    <g id="ytick_1">
     <g id="line2d_15">
      <path clip-path="url(#p12e2c859b4)" d="M 56.12 294.88 
L 399.984 294.88 
" style="fill:none;stroke:#b0b0b0;stroke-linecap:square;stroke-width:0.8;"/>
     </g>
     <g id="line2d_16">
      <defs>
       <path d="M 0 0 
L -3.5 0 
" id="m57f0a58da7" style="stroke:#000000;stroke-width:0.8;"/>
      </defs>
      <g>
       <use style="stroke:#000000;stroke-width:0.8;" x="56.12" xlink:href="#m57f0a58da7" y="294.88"/>
      </g>
     </g>
     <g id="text_7">
      <!-- 0.0 -->
      <defs>
       <path d="M 10.6875 12.40625 
L 21 12.40625 
L 21 0 
L 10.6875 0 
z
" id="DejaVuSans-2e"/>
      </defs>
      <g transform="translate(23.675 300.95875)scale(0.16 -0.16)">
       <use xlink:href="#DejaVuSans-30"/>
       <use x="63.623047" xlink:href="#DejaVuSans-2e"/>
       <use x="95.410156" xlink:href="#DejaVuSans-30"/>
      </g>
     </g>
    </g>
    <g id="ytick_2">
     <g id="line2d_17">
      <path clip-path="url(#p12e2c859b4)" d="M 56.12 241.406733 
L 399.984 241.406733 
" style="fill:none;stroke:#b0b0b0;stroke-linecap:square;stroke-width:0.8;"/>
     </g>
     <g id="line2d_18">
      <g>
       <use style="stroke:#000000;stroke-width:0.8;" x="56.12" xlink:href="#m57f0a58da7" y="241.406733"/>
      </g>
     </g>
     <g id="text_8">
      <!-- 0.2 -->
      <g transform="translate(23.675 247.485483)scale(0.16 -0.16)">
       <use xlink:href="#DejaVuSans-30"/>
       <use x="63.623047" xlink:href="#DejaVuSans-2e"/>
       <use x="95.410156" xlink:href="#DejaVuSans-32"/>
      </g>
     </g>
    </g>
    <g id="ytick_3">
     <g id="line2d_19">
      <path clip-path="url(#p12e2c859b4)" d="M 56.12 187.933465 
L 399.984 187.933465 
" style="fill:none;stroke:#b0b0b0;stroke-linecap:square;stroke-width:0.8;"/>
     </g>
     <g id="line2d_20">
      <g>
       <use style="stroke:#000000;stroke-width:0.8;" x="56.12" xlink:href="#m57f0a58da7" y="187.933465"/>
      </g>
     </g>
     <g id="text_9">
      <!-- 0.4 -->
      <g transform="translate(23.675 194.012215)scale(0.16 -0.16)">
       <use xlink:href="#DejaVuSans-30"/>
       <use x="63.623047" xlink:href="#DejaVuSans-2e"/>
       <use x="95.410156" xlink:href="#DejaVuSans-34"/>
      </g>
     </g>
    </g>
    <g id="ytick_4">
     <g id="line2d_21">
      <path clip-path="url(#p12e2c859b4)" d="M 56.12 134.460198 
L 399.984 134.460198 
" style="fill:none;stroke:#b0b0b0;stroke-linecap:square;stroke-width:0.8;"/>
     </g>
     <g id="line2d_22">
      <g>
       <use style="stroke:#000000;stroke-width:0.8;" x="56.12" xlink:href="#m57f0a58da7" y="134.460198"/>
      </g>
     </g>
     <g id="text_10">
      <!-- 0.6 -->
      <g transform="translate(23.675 140.538948)scale(0.16 -0.16)">
       <use xlink:href="#DejaVuSans-30"/>
       <use x="63.623047" xlink:href="#DejaVuSans-2e"/>
       <use x="95.410156" xlink:href="#DejaVuSans-36"/>
      </g>
     </g>
    </g>
    <g id="ytick_5">
     <g id="line2d_23">
      <path clip-path="url(#p12e2c859b4)" d="M 56.12 80.986931 
L 399.984 80.986931 
" style="fill:none;stroke:#b0b0b0;stroke-linecap:square;stroke-width:0.8;"/>
     </g>
     <g id="line2d_24">
      <g>
       <use style="stroke:#000000;stroke-width:0.8;" x="56.12" xlink:href="#m57f0a58da7" y="80.986931"/>
      </g>
     </g>
     <g id="text_11">
      <!-- 0.8 -->
      <g transform="translate(23.675 87.065681)scale(0.16 -0.16)">
       <use xlink:href="#DejaVuSans-30"/>
       <use x="63.623047" xlink:href="#DejaVuSans-2e"/>
       <use x="95.410156" xlink:href="#DejaVuSans-38"/>
      </g>
     </g>
    </g>
    <g id="ytick_6">
     <g id="line2d_25">
      <path clip-path="url(#p12e2c859b4)" d="M 56.12 27.513663 
L 399.984 27.513663 
" style="fill:none;stroke:#b0b0b0;stroke-linecap:square;stroke-width:0.8;"/>
     </g>
     <g id="line2d_26">
      <g>
       <use style="stroke:#000000;stroke-width:0.8;" x="56.12" xlink:href="#m57f0a58da7" y="27.513663"/>
      </g>
     </g>
     <g id="text_12">
      <!-- 1.0 -->
      <g transform="translate(23.675 33.592413)scale(0.16 -0.16)">
       <use xlink:href="#DejaVuSans-31"/>
       <use x="63.623047" xlink:href="#DejaVuSans-2e"/>
       <use x="95.410156" xlink:href="#DejaVuSans-30"/>
      </g>
     </g>
    </g>
    <g id="text_13">
     <!-- Fraction of function,target pairs -->
     <defs>
      <path d="M 9.8125 72.90625 
L 51.703125 72.90625 
L 51.703125 64.59375 
L 19.671875 64.59375 
L 19.671875 43.109375 
L 48.578125 43.109375 
L 48.578125 34.8125 
L 19.671875 34.8125 
L 19.671875 0 
L 9.8125 0 
z
" id="DejaVuSans-46"/>
      <path d="M 41.109375 46.296875 
Q 39.59375 47.171875 37.8125 47.578125 
Q 36.03125 48 33.890625 48 
Q 26.265625 48 22.1875 43.046875 
Q 18.109375 38.09375 18.109375 28.8125 
L 18.109375 0 
L 9.078125 0 
L 9.078125 54.6875 
L 18.109375 54.6875 
L 18.109375 46.1875 
Q 20.953125 51.171875 25.484375 53.578125 
Q 30.03125 56 36.53125 56 
Q 37.453125 56 38.578125 55.875 
Q 39.703125 55.765625 41.0625 55.515625 
z
" id="DejaVuSans-72"/>
      <path d="M 48.78125 52.59375 
L 48.78125 44.1875 
Q 44.96875 46.296875 41.140625 47.34375 
Q 37.3125 48.390625 33.40625 48.390625 
Q 24.65625 48.390625 19.8125 42.84375 
Q 14.984375 37.3125 14.984375 27.296875 
Q 14.984375 17.28125 19.8125 11.734375 
Q 24.65625 6.203125 33.40625 6.203125 
Q 37.3125 6.203125 41.140625 7.25 
Q 44.96875 8.296875 48.78125 10.40625 
L 48.78125 2.09375 
Q 45.015625 0.34375 40.984375 -0.53125 
Q 36.96875 -1.421875 32.421875 -1.421875 
Q 20.0625 -1.421875 12.78125 6.34375 
Q 5.515625 14.109375 5.515625 27.296875 
Q 5.515625 40.671875 12.859375 48.328125 
Q 20.21875 56 33.015625 56 
Q 37.15625 56 41.109375 55.140625 
Q 45.0625 54.296875 48.78125 52.59375 
z
" id="DejaVuSans-63"/>
      <path d="M 18.3125 70.21875 
L 18.3125 54.6875 
L 36.8125 54.6875 
L 36.8125 47.703125 
L 18.3125 47.703125 
L 18.3125 18.015625 
Q 18.3125 11.328125 20.140625 9.421875 
Q 21.96875 7.515625 27.59375 7.515625 
L 36.8125 7.515625 
L 36.8125 0 
L 27.59375 0 
Q 17.1875 0 13.234375 3.875 
Q 9.28125 7.765625 9.28125 18.015625 
L 9.28125 47.703125 
L 2.6875 47.703125 
L 2.6875 54.6875 
L 9.28125 54.6875 
L 9.28125 70.21875 
z
" id="DejaVuSans-74"/>
      <path d="M 8.5 21.578125 
L 8.5 54.6875 
L 17.484375 54.6875 
L 17.484375 21.921875 
Q 17.484375 14.15625 20.5 10.265625 
Q 23.53125 6.390625 29.59375 6.390625 
Q 36.859375 6.390625 41.078125 11.03125 
Q 45.3125 15.671875 45.3125 23.6875 
L 45.3125 54.6875 
L 54.296875 54.6875 
L 54.296875 0 
L 45.3125 0 
L 45.3125 8.40625 
Q 42.046875 3.421875 37.71875 1 
Q 33.40625 -1.421875 27.6875 -1.421875 
Q 18.265625 -1.421875 13.375 4.4375 
Q 8.5 10.296875 8.5 21.578125 
z
M 31.109375 56 
z
" id="DejaVuSans-75"/>
      <path d="M 11.71875 12.40625 
L 22.015625 12.40625 
L 22.015625 4 
L 14.015625 -11.625 
L 7.71875 -11.625 
L 11.71875 4 
z
" id="DejaVuSans-2c"/>
      <path d="M 18.109375 8.203125 
L 18.109375 -20.796875 
L 9.078125 -20.796875 
L 9.078125 54.6875 
L 18.109375 54.6875 
L 18.109375 46.390625 
Q 20.953125 51.265625 25.265625 53.625 
Q 29.59375 56 35.59375 56 
Q 45.5625 56 51.78125 48.09375 
Q 58.015625 40.1875 58.015625 27.296875 
Q 58.015625 14.40625 51.78125 6.484375 
Q 45.5625 -1.421875 35.59375 -1.421875 
Q 29.59375 -1.421875 25.265625 0.953125 
Q 20.953125 3.328125 18.109375 8.203125 
z
M 48.6875 27.296875 
Q 48.6875 37.203125 44.609375 42.84375 
Q 40.53125 48.484375 33.40625 48.484375 
Q 26.265625 48.484375 22.1875 42.84375 
Q 18.109375 37.203125 18.109375 27.296875 
Q 18.109375 17.390625 22.1875 11.75 
Q 26.265625 6.109375 33.40625 6.109375 
Q 40.53125 6.109375 44.609375 11.75 
Q 48.6875 17.390625 48.6875 27.296875 
z
" id="DejaVuSans-70"/>
     </defs>
     <g transform="translate(16.139531 294.999375)rotate(-90)scale(0.17 -0.17)">
      <use xlink:href="#DejaVuSans-46"/>
      <use x="57.410156" xlink:href="#DejaVuSans-72"/>
      <use x="98.523438" xlink:href="#DejaVuSans-61"/>
      <use x="159.802734" xlink:href="#DejaVuSans-63"/>
      <use x="214.783203" xlink:href="#DejaVuSans-74"/>
      <use x="253.992188" xlink:href="#DejaVuSans-69"/>
      <use x="281.775391" xlink:href="#DejaVuSans-6f"/>
      <use x="342.957031" xlink:href="#DejaVuSans-6e"/>
      <use x="406.335938" xlink:href="#DejaVuSans-20"/>
      <use x="438.123047" xlink:href="#DejaVuSans-6f"/>
      <use x="499.304688" xlink:href="#DejaVuSans-66"/>
      <use x="534.509766" xlink:href="#DejaVuSans-20"/>
      <use x="566.296875" xlink:href="#DejaVuSans-66"/>
      <use x="601.501953" xlink:href="#DejaVuSans-75"/>
      <use x="664.880859" xlink:href="#DejaVuSans-6e"/>
      <use x="728.259766" xlink:href="#DejaVuSans-63"/>
      <use x="783.240234" xlink:href="#DejaVuSans-74"/>
      <use x="822.449219" xlink:href="#DejaVuSans-69"/>
      <use x="850.232422" xlink:href="#DejaVuSans-6f"/>
      <use x="911.414062" xlink:href="#DejaVuSans-6e"/>
      <use x="974.792969" xlink:href="#DejaVuSans-2c"/>
      <use x="1006.580078" xlink:href="#DejaVuSans-74"/>
      <use x="1045.789062" xlink:href="#DejaVuSans-61"/>
      <use x="1107.068359" xlink:href="#DejaVuSans-72"/>
      <use x="1148.166016" xlink:href="#DejaVuSans-67"/>
      <use x="1211.642578" xlink:href="#DejaVuSans-65"/>
      <use x="1273.166016" xlink:href="#DejaVuSans-74"/>
      <use x="1312.375" xlink:href="#DejaVuSans-20"/>
      <use x="1344.162109" xlink:href="#DejaVuSans-70"/>
      <use x="1407.638672" xlink:href="#DejaVuSans-61"/>
      <use x="1468.917969" xlink:href="#DejaVuSans-69"/>
      <use x="1496.701172" xlink:href="#DejaVuSans-72"/>
      <use x="1537.814453" xlink:href="#DejaVuSans-73"/>
     </g>
    </g>
   </g>
   <g id="line2d_27">
    <defs>
     <path d="M 0 1.5 
C 0.397805 1.5 0.77937 1.341951 1.06066 1.06066 
C 1.341951 0.77937 1.5 0.397805 1.5 0 
C 1.5 -0.397805 1.341951 -0.77937 1.06066 -1.06066 
C 0.77937 -1.341951 0.397805 -1.5 0 -1.5 
C -0.397805 -1.5 -0.77937 -1.341951 -1.06066 -1.06066 
C -1.341951 -0.77937 -1.5 -0.397805 -1.5 0 
C -1.5 0.397805 -1.341951 0.77937 -1.06066 1.06066 
C -0.77937 1.341951 -0.397805 1.5 0 1.5 
z
" id="mef950444d7" style="stroke:#f5deb3;"/>
    </defs>
    <g>
     <use style="fill:#f5deb3;stroke:#f5deb3;" x="257.216948" xlink:href="#mef950444d7" y="27.513663"/>
     <use style="fill:#f5deb3;stroke:#f5deb3;" x="257.216948" xlink:href="#mef950444d7" y="27.513663"/>
    </g>
   </g>
   <g id="line2d_28">
    <defs>
     <path d="M 0 1.5 
C 0.397805 1.5 0.77937 1.341951 1.06066 1.06066 
C 1.341951 0.77937 1.5 0.397805 1.5 0 
C 1.5 -0.397805 1.341951 -0.77937 1.06066 -1.06066 
C 0.77937 -1.341951 0.397805 -1.5 0 -1.5 
C -0.397805 -1.5 -0.77937 -1.341951 -1.06066 -1.06066 
C -1.341951 -0.77937 -1.5 -0.397805 -1.5 0 
C -1.5 0.397805 -1.341951 0.77937 -1.06066 1.06066 
C -0.77937 1.341951 -0.397805 1.5 0 1.5 
z
" id="m8bb4fbd486" style="stroke:#000080;"/>
    </defs>
    <g>
     <use style="fill:#000080;stroke:#000080;" x="305.362195" xlink:href="#m8bb4fbd486" y="27.513663"/>
     <use style="fill:#000080;stroke:#000080;" x="305.362195" xlink:href="#m8bb4fbd486" y="27.513663"/>
    </g>
   </g>
   <g id="line2d_29">
    <path d="M 37.218523 294.88 
L 37.218523 290.161771 
L 49.144027 290.161771 
L 49.144027 288.06478 
L 56.12 288.06478 
L 56.12 284.395046 
L 61.069532 284.395046 
L 61.069532 283.870798 
L 64.908686 283.870798 
L 64.908686 282.298055 
L 68.045504 282.298055 
L 68.045504 281.249559 
L 70.697646 281.249559 
L 70.697646 279.152568 
L 76.834191 279.152568 
L 76.834191 278.104073 
L 82.623151 278.104073 
L 82.623151 276.007082 
L 84.92054 276.007082 
L 84.92054 275.482834 
L 87.877201 275.482834 
L 87.877201 274.958587 
L 94.548655 274.958587 
L 94.548655 274.434339 
L 95.735668 274.434339 
L 95.735668 273.910091 
L 99.343882 273.910091 
L 99.343882 273.385844 
L 104.17677 273.385844 
L 104.17677 272.861596 
L 110.065758 272.861596 
L 110.065758 272.337348 
L 113.035537 272.337348 
L 113.035537 271.8131 
L 118.245359 271.8131 
L 118.245359 271.288853 
L 137.301141 271.288853 
L 137.301141 270.764605 
L 138.247523 270.764605 
L 138.247523 269.191862 
L 139.821107 269.191862 
L 139.821107 268.667614 
L 143.401805 268.667614 
L 143.401805 268.143366 
L 145.68572 268.143366 
L 145.68572 267.619119 
L 145.904495 267.619119 
L 145.904495 267.094871 
L 147.504723 267.094871 
L 147.504723 265.522128 
L 148.27935 265.522128 
L 148.27935 264.99788 
L 148.414079 264.99788 
L 148.414079 264.473632 
L 150.173027 264.473632 
L 150.173027 263.949385 
L 158.046028 263.949385 
L 158.046028 262.900889 
L 158.168265 262.900889 
L 158.168265 261.852394 
L 160.352999 261.852394 
L 160.352999 261.328146 
L 162.763996 261.328146 
L 162.763996 260.803898 
L 165.986083 260.803898 
L 165.986083 260.279651 
L 172.839187 260.279651 
L 172.839187 259.755403 
L 174.16281 259.755403 
L 174.16281 259.231155 
L 175.641792 259.231155 
L 175.641792 258.18266 
L 178.481967 258.18266 
L 178.481967 257.658412 
L 180.549916 257.658412 
L 180.549916 256.609917 
L 183.513121 256.609917 
L 183.513121 253.46443 
L 188.30665 253.46443 
L 188.30665 251.891687 
L 194.241015 251.891687 
L 194.241015 251.367439 
L 195.206741 251.367439 
L 195.206741 250.843192 
L 197.008486 250.843192 
L 197.008486 250.318944 
L 197.149659 250.318944 
L 197.149659 249.794696 
L 197.281848 249.794696 
L 197.281848 249.270448 
L 198.436747 249.270448 
L 198.436747 248.746201 
L 198.666808 248.746201 
L 198.666808 248.221953 
L 200.376811 248.221953 
L 200.376811 247.697705 
L 205.693331 247.697705 
L 205.709667 246.124962 
L 206.872971 246.124962 
L 206.872971 245.600714 
L 207.158754 245.600714 
L 207.158754 244.027971 
L 208.070933 244.027971 
L 208.070933 243.503724 
L 210.927483 243.503724 
L 210.927483 241.93098 
L 213.67541 241.93098 
L 213.67541 241.406733 
L 213.862405 241.406733 
L 213.862405 240.358237 
L 215.682293 240.358237 
L 215.682293 239.83399 
L 216.035332 239.83399 
L 216.035332 239.309742 
L 216.272969 239.309742 
L 216.272969 238.785494 
L 217.439558 238.785494 
L 217.439558 238.261246 
L 218.632497 238.261246 
L 218.632497 237.212751 
L 219.603028 237.212751 
L 219.603028 236.688503 
L 221.41737 236.688503 
L 221.41737 236.164255 
L 221.567437 236.164255 
L 221.567437 235.11576 
L 222.497194 235.11576 
L 222.497194 234.591512 
L 222.704471 234.591512 
L 222.738062 233.543017 
L 224.144133 233.543017 
L 224.144133 233.018769 
L 225.228747 233.018769 
L 225.228747 231.970274 
L 226.595414 231.970274 
L 226.595414 231.446026 
L 228.481265 231.446026 
L 228.481265 230.921778 
L 228.882066 230.921778 
L 228.882066 230.397531 
L 230.310819 230.397531 
L 230.310819 229.873283 
L 236.761694 229.873283 
L 236.761694 228.30054 
L 239.56837 228.30054 
L 239.56837 227.252044 
L 240.971648 227.252044 
L 240.971648 226.727797 
L 241.627397 226.727797 
L 241.627397 226.203549 
L 244.111063 226.203549 
L 244.111063 225.155053 
L 244.542849 225.155053 
L 244.542849 224.630806 
L 244.800655 224.630806 
L 244.862436 223.058063 
L 245.808264 223.058063 
L 245.808264 222.533815 
L 246.162751 222.533815 
L 246.217192 221.485319 
L 246.30307 221.485319 
L 246.30307 220.961072 
L 246.481456 220.961072 
L 246.481456 219.912576 
L 246.680842 219.912576 
L 246.75481 215.718594 
L 247.047542 215.718594 
L 247.047542 212.573108 
L 247.384617 212.573108 
L 247.384617 212.04886 
L 248.153719 212.04886 
L 248.153719 211.524613 
L 249.545073 211.524613 
L 249.545073 211.000365 
L 249.829078 211.000365 
L 249.829078 210.476117 
L 253.366481 210.476117 
L 253.366481 209.427622 
L 253.502992 209.427622 
L 253.502992 208.903374 
L 253.618985 208.903374 
L 253.712151 204.185145 
L 253.731254 204.185145 
L 253.731254 203.660897 
L 254.009083 203.660897 
L 254.009083 202.088154 
L 254.156137 202.088154 
L 254.248277 200.515411 
L 254.428204 200.515411 
L 254.536175 198.942667 
L 259.588896 198.942667 
L 259.615957 196.845677 
L 259.894637 196.845677 
L 259.894637 196.321429 
L 260.396341 196.321429 
L 260.396341 195.797181 
L 260.573512 195.797181 
L 260.662797 193.175943 
L 260.687396 193.175943 
L 260.761727 191.078952 
L 260.837259 191.078952 
L 260.912034 188.457713 
L 260.948874 188.457713 
L 261.022742 185.836474 
L 261.07262 185.836474 
L 261.145424 183.739484 
L 261.236521 183.739484 
L 261.236521 183.215236 
L 261.374707 183.215236 
L 261.374707 182.16674 
L 261.63261 182.16674 
L 261.656457 180.06975 
L 262.974222 180.06975 
L 262.974222 179.545502 
L 264.902634 179.545502 
L 264.902634 179.021254 
L 266.765321 179.021254 
L 266.765321 177.448511 
L 268.359395 177.448511 
L 268.415557 175.875768 
L 268.494836 175.875768 
L 268.591226 173.254529 
L 268.702538 173.254529 
L 268.796964 169.060547 
L 268.882279 169.060547 
L 268.921489 163.293823 
L 270.232622 163.293823 
L 270.232622 162.769575 
L 270.347053 162.769575 
L 270.36862 160.672584 
L 270.468103 160.672584 
L 270.566416 157.00285 
L 270.615605 157.00285 
L 270.615605 156.478602 
L 270.76227 156.478602 
L 270.76227 155.954354 
L 270.928745 155.954354 
L 271.031475 153.333116 
L 271.086598 153.333116 
L 271.188436 151.236125 
L 271.229148 151.236125 
L 271.263214 148.614886 
L 271.61737 148.614886 
L 271.61737 146.517896 
L 271.742539 146.517896 
L 271.742539 145.993648 
L 272.513521 145.993648 
L 272.513521 145.4694 
L 272.793694 145.4694 
L 272.886499 142.848162 
L 273.033759 142.848162 
L 273.07043 140.751171 
L 273.246143 140.751171 
L 273.246143 140.226923 
L 273.556626 140.226923 
L 273.556626 139.702675 
L 273.779954 139.702675 
L 273.873323 137.081437 
L 274.073845 137.081437 
L 274.119758 136.032941 
L 274.239347 136.032941 
L 274.342432 133.93595 
L 274.488109 133.93595 
L 274.51704 131.838959 
L 274.644887 131.838959 
L 274.755425 128.169225 
L 274.833017 128.169225 
L 274.881621 127.12073 
L 274.975387 127.12073 
L 274.975387 126.596482 
L 275.153477 126.596482 
L 275.153477 125.547987 
L 275.394725 125.547987 
L 275.394725 123.975244 
L 275.55256 123.975244 
L 275.65287 122.4025 
L 275.984741 122.4025 
L 275.984741 121.878253 
L 276.324966 121.878253 
L 276.324966 120.829757 
L 276.490548 120.829757 
L 276.545979 117.684271 
L 276.625406 117.684271 
L 276.729501 110.344803 
L 276.825953 110.344803 
L 276.825953 109.820555 
L 276.955803 109.820555 
L 277.054841 106.675069 
L 277.088925 106.675069 
L 277.190579 96.714362 
L 277.214495 96.714362 
L 277.283018 94.617371 
L 277.339813 94.617371 
L 277.340127 91.996133 
L 277.849767 91.996133 
L 277.849767 91.471885 
L 278.084441 91.471885 
L 278.185161 86.753656 
L 278.207152 86.753656 
L 278.284546 84.132417 
L 278.320487 84.132417 
L 278.410617 79.938435 
L 280.785798 79.938435 
L 280.86996 72.598967 
L 280.921845 72.598967 
L 281.021337 66.832242 
L 281.040543 66.832242 
L 281.147629 62.638261 
L 281.177874 62.638261 
L 281.185654 60.54127 
L 282.102233 60.54127 
L 282.102233 60.017022 
L 282.479823 60.017022 
L 282.479823 59.492774 
L 283.465344 59.492774 
L 283.560514 53.726049 
L 283.57694 53.726049 
L 283.686526 43.765343 
L 283.689832 43.765343 
L 283.689832 42.716847 
L 286.712448 42.716847 
L 286.712448 41.668352 
L 290.486492 41.668352 
L 290.574904 35.901627 
L 290.627701 35.901627 
L 290.730444 33.280388 
L 290.819587 33.280388 
L 290.819587 32.756141 
L 291.338613 32.756141 
L 291.363839 29.086407 
L 299.139043 29.086407 
L 299.139043 28.562159 
L 304.874954 28.562159 
L 304.874954 28.037911 
L 305.362195 28.037911 
L 305.362195 27.513663 
L 333.429677 27.513663 
L 333.429677 27.513663 
" style="fill:none;stroke:#000080;stroke-linecap:square;stroke-width:1.5;"/>
   </g>
   <g id="line2d_30">
    <defs>
     <path d="M 0 6 
C 1.591219 6 3.117479 5.367802 4.242641 4.242641 
C 5.367802 3.117479 6 1.591219 6 0 
C 6 -1.591219 5.367802 -3.117479 4.242641 -4.242641 
C 3.117479 -5.367802 1.591219 -6 0 -6 
C -1.591219 -6 -3.117479 -5.367802 -4.242641 -4.242641 
C -5.367802 -3.117479 -6 -1.591219 -6 0 
C -6 1.591219 -5.367802 3.117479 -4.242641 4.242641 
C -3.117479 5.367802 -1.591219 6 0 6 
z
" id="m49a973fb70" style="stroke:#000080;stroke-width:1.5;"/>
    </defs>
    <g>
     <use style="fill-opacity:0;stroke:#000080;stroke-width:1.5;" x="87.877201" xlink:href="#m49a973fb70" y="274.958587"/>
     <use style="fill-opacity:0;stroke:#000080;stroke-width:1.5;" x="183.513121" xlink:href="#m49a973fb70" y="253.46443"/>
     <use style="fill-opacity:0;stroke:#000080;stroke-width:1.5;" x="264.902634" xlink:href="#m49a973fb70" y="179.545502"/>
     <use style="fill-opacity:0;stroke:#000080;stroke-width:1.5;" x="281.177874" xlink:href="#m49a973fb70" y="62.638261"/>
     <use style="fill-opacity:0;stroke:#000080;stroke-width:1.5;" x="305.362195" xlink:href="#m49a973fb70" y="27.513663"/>
     <use style="fill-opacity:0;stroke:#000080;stroke-width:1.5;" x="333.429677" xlink:href="#m49a973fb70" y="27.513663"/>
    </g>
   </g>
   <g id="line2d_31">
    <path style="fill:none;stroke:#000080;stroke-linecap:square;stroke-width:1.5;"/>
    <g/>
   </g>
   <g id="line2d_32">
    <path clip-path="url(#p12e2c859b4)" d="M 302.602696 28.562159 
" style="fill:none;stroke:#000080;stroke-linecap:square;stroke-width:1.5;"/>
    <defs>
     <path d="M -12 12 
L 12 -12 
M -12 -12 
L 12 12 
" id="m2473e570ff" style="stroke:#000080;stroke-width:3;"/>
    </defs>
    <g clip-path="url(#p12e2c859b4)">
     <use style="fill:#000080;stroke:#000080;stroke-width:3;" x="302.602696" xlink:href="#m2473e570ff" y="28.562159"/>
    </g>
   </g>
   <g id="line2d_33">
    <defs>
     <path d="M 0 1.5 
C 0.397805 1.5 0.77937 1.341951 1.06066 1.06066 
C 1.341951 0.77937 1.5 0.397805 1.5 0 
C 1.5 -0.397805 1.341951 -0.77937 1.06066 -1.06066 
C 0.77937 -1.341951 0.397805 -1.5 0 -1.5 
C -0.397805 -1.5 -0.77937 -1.341951 -1.06066 -1.06066 
C -1.341951 -0.77937 -1.5 -0.397805 -1.5 0 
C -1.5 0.397805 -1.341951 0.77937 -1.06066 1.06066 
C -0.77937 1.341951 -0.397805 1.5 0 1.5 
z
" id="m2d723c5b7b" style="stroke:#ff00ff;"/>
    </defs>
    <g>
     <use style="fill:#ff00ff;stroke:#ff00ff;" x="356.997827" xlink:href="#m2d723c5b7b" y="190.030456"/>
     <use style="fill:#ff00ff;stroke:#ff00ff;" x="356.997827" xlink:href="#m2d723c5b7b" y="190.030456"/>
    </g>
   </g>
   <g id="line2d_34">
    <path d="M 37.218523 294.88 
L 37.218523 286.492036 
L 76.834191 286.492036 
L 76.834191 285.967789 
L 78.47399 285.967789 
L 78.47399 284.919293 
L 92.59885 284.919293 
L 92.59885 284.395046 
L 94.548655 284.395046 
L 94.548655 283.870798 
L 96.846045 283.870798 
L 96.846045 282.822302 
L 98.38781 282.822302 
L 98.38781 282.298055 
L 101.110033 282.298055 
L 101.110033 280.201064 
L 102.711641 280.201064 
L 102.711641 279.676816 
L 106.164154 279.676816 
L 106.164154 279.152568 
L 108.225317 279.152568 
L 108.225317 278.628321 
L 126.940794 278.628321 
L 126.940794 277.055578 
L 134.408368 277.055578 
L 134.408368 276.007082 
L 138.295919 276.007082 
L 138.295919 275.482834 
L 138.630934 275.482834 
L 138.630934 273.385844 
L 138.819483 273.385844 
L 138.819483 272.861596 
L 141.099283 272.861596 
L 141.099283 272.337348 
L 141.262751 272.337348 
L 141.262751 271.8131 
L 142.096368 271.8131 
L 142.096368 271.288853 
L 143.184934 271.288853 
L 143.184934 270.764605 
L 144.946649 270.764605 
L 144.946649 269.716109 
L 145.779822 269.716109 
L 145.779822 269.191862 
L 148.252277 269.191862 
L 148.252277 268.667614 
L 151.27583 268.667614 
L 151.27583 268.143366 
L 155.273347 268.143366 
L 155.273347 267.619119 
L 172.813207 267.619119 
L 172.813207 267.094871 
L 173.369592 267.094871 
L 173.407308 266.046375 
L 187.120391 266.046375 
L 187.120391 265.522128 
L 187.737398 265.522128 
L 187.802795 264.473632 
L 188.926595 264.473632 
L 189.033269 262.900889 
L 207.081766 262.900889 
L 207.081766 261.852394 
L 211.28128 261.852394 
L 211.359615 259.755403 
L 215.112929 259.755403 
L 215.112929 259.231155 
L 219.30751 259.231155 
L 219.30751 258.706907 
L 224.185207 258.706907 
L 224.185207 258.18266 
L 224.390416 258.18266 
L 224.435759 256.609917 
L 224.937489 256.609917 
L 224.937489 256.085669 
L 225.390152 256.085669 
L 225.390152 255.561421 
L 229.135969 255.561421 
L 229.135969 255.037173 
L 231.144762 255.037173 
L 231.144762 254.512926 
L 231.267189 254.512926 
L 231.267189 253.988678 
L 234.136682 253.988678 
L 234.136682 253.46443 
L 238.119567 253.46443 
L 238.119567 252.415935 
L 238.704523 252.415935 
L 238.704523 251.367439 
L 239.05213 251.367439 
L 239.05213 250.318944 
L 240.382078 250.318944 
L 240.421847 248.746201 
L 240.637877 248.746201 
L 240.637877 248.221953 
L 241.616199 248.221953 
L 241.658568 246.124962 
L 247.827367 246.124962 
L 247.827367 245.600714 
L 256.883435 245.600714 
L 256.923571 244.552219 
L 258.74591 244.552219 
L 258.747495 243.503724 
L 262.175055 243.503724 
L 262.197874 242.455228 
L 262.774235 242.455228 
L 262.812966 240.882485 
L 264.691738 240.882485 
L 264.695727 239.309742 
L 272.550744 239.309742 
L 272.550744 238.261246 
L 275.550057 238.261246 
L 275.631367 234.067265 
L 275.669738 234.067265 
L 275.669738 233.543017 
L 283.479383 233.543017 
L 283.479383 233.018769 
L 283.801659 233.018769 
L 283.804892 231.970274 
L 285.655164 231.970274 
L 285.657385 229.873283 
L 286.041803 229.873283 
L 286.041803 229.349035 
L 286.183993 229.349035 
L 286.199535 227.776292 
L 291.787196 227.776292 
L 291.788835 226.727797 
L 292.470887 226.727797 
L 292.470887 226.203549 
L 294.5711 226.203549 
L 294.5711 225.679301 
L 295.925327 225.679301 
L 295.925327 225.155053 
L 298.936813 225.155053 
L 298.97248 222.009567 
L 302.350184 222.009567 
L 302.350184 221.485319 
L 306.827604 221.485319 
L 306.827604 220.961072 
L 308.498866 220.961072 
L 308.498912 219.912576 
L 312.279377 219.912576 
L 312.279377 219.388328 
L 314.597741 219.388328 
L 314.605524 214.670099 
L 317.857142 214.670099 
L 317.857142 214.145851 
L 318.217651 214.145851 
L 318.217749 212.573108 
L 320.2057 212.573108 
L 320.2057 212.04886 
L 321.947822 212.04886 
L 321.947822 211.524613 
L 322.661613 211.524613 
L 322.662935 209.95187 
L 324.31992 209.95187 
L 324.31992 209.427622 
L 325.011362 209.427622 
L 325.011362 208.903374 
L 325.610825 208.903374 
L 325.610825 208.379126 
L 327.611159 208.379126 
L 327.611169 207.330631 
L 328.126341 207.330631 
L 328.128737 204.709392 
L 329.869174 204.709392 
L 329.869174 204.185145 
L 330.3218 204.185145 
L 330.322279 203.136649 
L 332.268931 203.136649 
L 332.268931 202.612401 
L 333.429677 202.612401 
L 333.429677 202.612401 
" style="fill:none;stroke:#ff00ff;stroke-linecap:square;stroke-width:1.5;"/>
   </g>
   <g id="line2d_35">
    <defs>
     <path d="M -0 8.485281 
L 5.091169 0 
L 0 -8.485281 
L -5.091169 -0 
z
" id="mfb72faa651" style="stroke:#ff00ff;stroke-linejoin:miter;stroke-width:1.5;"/>
    </defs>
    <g>
     <use style="fill-opacity:0;stroke:#ff00ff;stroke-linejoin:miter;stroke-width:1.5;" x="106.164154" xlink:href="#mfb72faa651" y="279.152568"/>
     <use style="fill-opacity:0;stroke:#ff00ff;stroke-linejoin:miter;stroke-width:1.5;" x="189.033269" xlink:href="#mfb72faa651" y="263.425137"/>
     <use style="fill-opacity:0;stroke:#ff00ff;stroke-linejoin:miter;stroke-width:1.5;" x="247.827367" xlink:href="#mfb72faa651" y="245.600714"/>
     <use style="fill-opacity:0;stroke:#ff00ff;stroke-linejoin:miter;stroke-width:1.5;" x="321.947822" xlink:href="#mfb72faa651" y="212.04886"/>
     <use style="fill-opacity:0;stroke:#ff00ff;stroke-linejoin:miter;stroke-width:1.5;" x="332.268931" xlink:href="#mfb72faa651" y="202.612401"/>
     <use style="fill-opacity:0;stroke:#ff00ff;stroke-linejoin:miter;stroke-width:1.5;" x="333.429677" xlink:href="#mfb72faa651" y="202.612401"/>
    </g>
   </g>
   <g id="line2d_36">
    <path style="fill:none;stroke:#ff00ff;stroke-linecap:square;stroke-width:1.5;"/>
    <g/>
   </g>
   <g id="line2d_37">
    <path clip-path="url(#p12e2c859b4)" d="M 293.814072 226.203549 
" style="fill:none;stroke:#ff00ff;stroke-linecap:square;stroke-width:1.5;"/>
    <defs>
     <path d="M -12 12 
L 12 -12 
M -12 -12 
L 12 12 
" id="m235ee0f0f4" style="stroke:#ff00ff;stroke-width:3;"/>
    </defs>
    <g clip-path="url(#p12e2c859b4)">
     <use style="fill:#ff00ff;stroke:#ff00ff;stroke-width:3;" x="293.814072" xlink:href="#m235ee0f0f4" y="226.203549"/>
    </g>
   </g>
   <g id="line2d_38">
    <defs>
     <path d="M 0 1.5 
C 0.397805 1.5 0.77937 1.341951 1.06066 1.06066 
C 1.341951 0.77937 1.5 0.397805 1.5 0 
C 1.5 -0.397805 1.341951 -0.77937 1.06066 -1.06066 
C 0.77937 -1.341951 0.397805 -1.5 0 -1.5 
C -0.397805 -1.5 -0.77937 -1.341951 -1.06066 -1.06066 
C -1.341951 -0.77937 -1.5 -0.397805 -1.5 0 
C -1.5 0.397805 -1.341951 0.77937 -1.06066 1.06066 
C -0.77937 1.341951 -0.397805 1.5 0 1.5 
z
" id="m207fb0fa45" style="stroke:#ffa500;"/>
    </defs>
    <g>
     <use style="fill:#ffa500;stroke:#ffa500;" x="214.511988" xlink:href="#m207fb0fa45" y="252.940182"/>
     <use style="fill:#ffa500;stroke:#ffa500;" x="214.511988" xlink:href="#m207fb0fa45" y="252.940182"/>
    </g>
   </g>
   <g id="line2d_39">
    <path d="M 37.218523 294.88 
L 37.218523 289.637523 
L 49.144027 289.637523 
L 49.144027 286.492036 
L 56.12 286.492036 
L 56.12 284.919293 
L 61.069532 284.919293 
L 61.069532 284.395046 
L 64.908686 284.395046 
L 64.908686 282.822302 
L 72.995036 282.822302 
L 72.995036 282.298055 
L 76.834191 282.298055 
L 76.834191 281.249559 
L 78.47399 281.249559 
L 78.47399 280.725312 
L 81.348133 280.725312 
L 81.348133 280.201064 
L 84.92054 280.201064 
L 84.92054 279.152568 
L 86.946982 279.152568 
L 86.946982 278.628321 
L 87.877201 278.628321 
L 87.877201 278.104073 
L 99.343882 278.104073 
L 99.343882 277.579825 
L 101.110033 277.579825 
L 101.110033 276.53133 
L 104.865056 276.53133 
L 104.865056 275.482834 
L 107.661173 275.482834 
L 107.661173 274.434339 
L 109.559696 274.434339 
L 109.559696 273.910091 
L 111.035303 273.910091 
L 111.035303 272.337348 
L 113.653743 272.337348 
L 113.653743 271.288853 
L 114.250503 271.288853 
L 114.250503 270.240357 
L 120.289014 270.240357 
L 120.289014 269.716109 
L 122.115486 269.716109 
L 122.115486 269.191862 
L 124.536209 269.191862 
L 124.536209 268.667614 
L 128.027779 268.667614 
L 128.027779 268.143366 
L 128.115335 268.143366 
L 128.115335 267.619119 
L 156.773369 267.619119 
L 156.773369 266.570623 
L 159.613185 266.570623 
L 159.613185 266.046375 
L 163.314599 266.046375 
L 163.314599 264.99788 
L 165.604932 264.99788 
L 165.604932 264.473632 
L 166.226043 264.473632 
L 166.226043 263.949385 
L 168.042569 263.949385 
L 168.042569 263.425137 
L 169.638649 263.425137 
L 169.638649 262.900889 
L 172.372117 262.900889 
L 172.372117 262.376641 
L 174.741875 262.376641 
L 174.741875 261.328146 
L 175.05852 261.328146 
L 175.05852 260.803898 
L 175.380644 260.803898 
L 175.380644 260.279651 
L 182.362215 260.279651 
L 182.362215 259.755403 
L 187.954429 259.755403 
L 187.954429 259.231155 
L 190.827742 259.231155 
L 190.827742 258.706907 
L 194.825845 258.706907 
L 194.825845 257.658412 
L 195.370439 257.658412 
L 195.370439 257.134164 
L 204.112463 257.134164 
L 204.112463 256.609917 
L 204.89035 256.609917 
L 204.89035 256.085669 
L 210.575671 256.085669 
L 210.575671 254.512926 
L 210.897669 254.512926 
L 210.897669 253.46443 
L 214.511988 253.46443 
L 214.511988 252.940182 
L 333.429677 252.940182 
" style="fill:none;stroke:#ffa500;stroke-linecap:square;stroke-width:1.5;"/>
   </g>
   <g id="line2d_40">
    <defs>
     <path d="M 0 -6 
L -1.347084 -1.854102 
L -5.706339 -1.854102 
L -2.179628 0.708204 
L -3.526712 4.854102 
L -0 2.291796 
L 3.526712 4.854102 
L 2.179628 0.708204 
L 5.706339 -1.854102 
L 1.347084 -1.854102 
z
" id="m0a3fd6a710" style="stroke:#ffa500;stroke-linejoin:bevel;stroke-width:1.5;"/>
    </defs>
    <g>
     <use style="fill-opacity:0;stroke:#ffa500;stroke-linejoin:bevel;stroke-width:1.5;" x="128.115335" xlink:href="#m0a3fd6a710" y="268.143366"/>
     <use style="fill-opacity:0;stroke:#ffa500;stroke-linejoin:bevel;stroke-width:1.5;" x="204.89035" xlink:href="#m0a3fd6a710" y="256.609917"/>
     <use style="fill-opacity:0;stroke:#ffa500;stroke-linejoin:bevel;stroke-width:1.5;" x="214.511988" xlink:href="#m0a3fd6a710" y="252.940182"/>
     <use style="fill-opacity:0;stroke:#ffa500;stroke-linejoin:bevel;stroke-width:1.5;" x="214.511988" xlink:href="#m0a3fd6a710" y="252.940182"/>
     <use style="fill-opacity:0;stroke:#ffa500;stroke-linejoin:bevel;stroke-width:1.5;" x="333.429677" xlink:href="#m0a3fd6a710" y="252.940182"/>
    </g>
   </g>
   <g id="line2d_41">
    <path style="fill:none;stroke:#ffa500;stroke-linecap:square;stroke-width:1.5;"/>
    <g/>
   </g>
   <g id="line2d_42">
    <path clip-path="url(#p12e2c859b4)" d="M 254.265881 252.940182 
" style="fill:none;stroke:#ffa500;stroke-linecap:square;stroke-width:1.5;"/>
    <defs>
     <path d="M -12 12 
L 12 -12 
M -12 -12 
L 12 12 
" id="mb6c38bca3d" style="stroke:#ffa500;stroke-width:3;"/>
    </defs>
    <g clip-path="url(#p12e2c859b4)">
     <use style="fill:#ffa500;stroke:#ffa500;stroke-width:3;" x="254.265881" xlink:href="#mb6c38bca3d" y="252.940182"/>
    </g>
   </g>
   <g id="line2d_43">
    <defs>
     <path d="M 0 1.5 
C 0.397805 1.5 0.77937 1.341951 1.06066 1.06066 
C 1.341951 0.77937 1.5 0.397805 1.5 0 
C 1.5 -0.397805 1.341951 -0.77937 1.06066 -1.06066 
C 0.77937 -1.341951 0.397805 -1.5 0 -1.5 
C -0.397805 -1.5 -0.77937 -1.341951 -1.06066 -1.06066 
C -1.341951 -0.77937 -1.5 -0.397805 -1.5 0 
C -1.5 0.397805 -1.341951 0.77937 -1.06066 1.06066 
C -0.77937 1.341951 -0.397805 1.5 0 1.5 
z
" id="m7d59505605" style="stroke:#6495ed;"/>
    </defs>
    <g>
     <use style="fill:#6495ed;stroke:#6495ed;" x="331.232054" xlink:href="#m7d59505605" y="216.242842"/>
     <use style="fill:#6495ed;stroke:#6495ed;" x="331.232054" xlink:href="#m7d59505605" y="216.242842"/>
    </g>
   </g>
   <g id="line2d_44">
    <path d="M 37.218523 294.88 
L 37.218523 285.443541 
L 49.144027 285.443541 
L 49.144027 280.725312 
L 61.069532 280.725312 
L 61.069532 279.152568 
L 64.908686 279.152568 
L 64.908686 278.628321 
L 76.834191 278.628321 
L 76.834191 277.055578 
L 84.92054 277.055578 
L 84.92054 276.007082 
L 85.963579 276.007082 
L 85.963579 274.958587 
L 102.711641 274.958587 
L 102.711641 274.434339 
L 107.077901 274.434339 
L 107.077901 273.910091 
L 107.661173 273.910091 
L 107.661173 272.337348 
L 109.814588 272.337348 
L 109.814588 271.8131 
L 116.621053 271.8131 
L 116.621053 270.764605 
L 119.729457 270.764605 
L 119.729457 270.240357 
L 119.871061 270.240357 
L 119.871061 269.716109 
L 123.878618 269.716109 
L 123.878618 269.191862 
L 127.939774 269.191862 
L 127.939774 267.619119 
L 129.132668 267.619119 
L 129.132668 266.046375 
L 134.04099 266.046375 
L 134.04099 265.522128 
L 134.82729 265.522128 
L 134.82729 264.99788 
L 136.299657 264.99788 
L 136.299657 263.949385 
L 137.198425 263.949385 
L 137.198425 263.425137 
L 139.553668 263.425137 
L 139.553668 262.900889 
L 139.821107 262.900889 
L 139.821107 262.376641 
L 152.672174 262.376641 
L 152.672174 260.803898 
L 154.021872 260.803898 
L 154.021872 259.755403 
L 159.10169 259.755403 
L 159.10169 259.231155 
L 159.890913 259.231155 
L 159.890913 258.18266 
L 160.150665 258.18266 
L 160.150665 257.658412 
L 160.894201 257.658412 
L 160.894201 257.134164 
L 169.90239 257.134164 
L 169.90239 256.609917 
L 172.891028 256.609917 
L 172.891028 256.085669 
L 175.59762 256.085669 
L 175.59762 255.561421 
L 180.374907 255.561421 
L 180.374907 255.037173 
L 184.140192 255.037173 
L 184.140192 254.512926 
L 184.337586 254.512926 
L 184.337586 253.46443 
L 189.610885 253.46443 
L 189.610885 252.940182 
L 195.158923 252.940182 
L 195.158923 251.891687 
L 243.917536 251.891687 
L 243.917536 251.367439 
L 254.350162 251.367439 
L 254.350162 250.843192 
L 254.489099 250.843192 
L 254.489099 250.318944 
L 261.740197 250.318944 
L 261.740197 249.794696 
L 266.269838 249.794696 
L 266.269838 248.221953 
L 273.150574 248.221953 
L 273.150574 247.697705 
L 276.014202 247.697705 
L 276.014202 247.173458 
L 278.087431 247.173458 
L 278.122501 245.076467 
L 280.280101 245.076467 
L 280.280101 244.552219 
L 283.684491 244.552219 
L 283.684491 244.027971 
L 286.534697 244.027971 
L 286.54415 242.979476 
L 287.699235 242.979476 
L 287.699235 242.455228 
L 288.979153 242.455228 
L 288.979153 241.93098 
L 289.993905 241.93098 
L 290.011469 240.882485 
L 291.126359 240.882485 
L 291.126359 240.358237 
L 292.018231 240.358237 
L 292.033846 237.736999 
L 293.829252 237.736999 
L 293.829252 237.212751 
L 295.467665 237.212751 
L 295.480445 235.640008 
L 296.29347 235.640008 
L 296.29347 235.11576 
L 298.350493 235.11576 
L 298.350493 234.591512 
L 299.045642 234.591512 
L 299.045642 234.067265 
L 299.613858 234.067265 
L 299.623901 233.018769 
L 300.800145 233.018769 
L 300.800145 232.494521 
L 301.40971 232.494521 
L 301.413693 231.446026 
L 301.909887 231.446026 
L 301.918676 230.397531 
L 302.482001 230.397531 
L 302.482001 229.873283 
L 302.960637 229.873283 
L 302.960637 228.30054 
L 303.93527 228.30054 
L 303.93527 227.776292 
L 304.448117 227.776292 
L 304.448117 227.252044 
L 305.351288 227.252044 
L 305.351288 226.727797 
L 305.754169 226.727797 
L 305.754169 226.203549 
L 306.592899 226.203549 
L 306.592899 224.630806 
L 307.804265 224.630806 
L 307.804265 224.106558 
L 308.888545 224.106558 
L 308.888545 223.058063 
L 310.25932 223.058063 
L 310.26473 222.009567 
L 310.616043 222.009567 
L 310.616043 221.485319 
L 311.533919 221.485319 
L 311.533919 220.961072 
L 312.137472 220.961072 
L 312.137472 219.912576 
L 312.457646 219.912576 
L 312.457646 219.388328 
L 312.720569 219.388328 
L 312.720569 218.864081 
L 313.289087 218.864081 
L 313.289087 218.339833 
L 315.145067 218.339833 
L 315.145067 217.815585 
L 324.645877 217.815585 
L 324.645877 217.291338 
L 330.63701 217.291338 
L 330.63701 216.76709 
L 331.232054 216.76709 
L 331.232054 216.242842 
L 333.429677 216.242842 
L 333.429677 216.242842 
" style="fill:none;stroke:#6495ed;stroke-linecap:square;stroke-width:1.5;"/>
   </g>
   <g id="line2d_45">
    <defs>
     <path d="M -0 6 
L 6 -6 
L -6 -6 
z
" id="m72cfe51bc9" style="stroke:#6495ed;stroke-linejoin:miter;stroke-width:1.5;"/>
    </defs>
    <g>
     <use style="fill-opacity:0;stroke:#6495ed;stroke-linejoin:miter;stroke-width:1.5;" x="85.963579" xlink:href="#m72cfe51bc9" y="276.007082"/>
     <use style="fill-opacity:0;stroke:#6495ed;stroke-linejoin:miter;stroke-width:1.5;" x="160.894201" xlink:href="#m72cfe51bc9" y="257.658412"/>
     <use style="fill-opacity:0;stroke:#6495ed;stroke-linejoin:miter;stroke-width:1.5;" x="195.158923" xlink:href="#m72cfe51bc9" y="251.891687"/>
     <use style="fill-opacity:0;stroke:#6495ed;stroke-linejoin:miter;stroke-width:1.5;" x="288.979153" xlink:href="#m72cfe51bc9" y="241.93098"/>
     <use style="fill-opacity:0;stroke:#6495ed;stroke-linejoin:miter;stroke-width:1.5;" x="331.232054" xlink:href="#m72cfe51bc9" y="216.242842"/>
     <use style="fill-opacity:0;stroke:#6495ed;stroke-linejoin:miter;stroke-width:1.5;" x="333.429677" xlink:href="#m72cfe51bc9" y="216.242842"/>
    </g>
   </g>
   <g id="line2d_46">
    <path style="fill:none;stroke:#6495ed;stroke-linecap:square;stroke-width:1.5;"/>
    <g/>
   </g>
   <g id="line2d_47">
    <path clip-path="url(#p12e2c859b4)" d="M 254.198341 251.367439 
" style="fill:none;stroke:#6495ed;stroke-linecap:square;stroke-width:1.5;"/>
    <defs>
     <path d="M -12 12 
L 12 -12 
M -12 -12 
L 12 12 
" id="m6178699517" style="stroke:#6495ed;stroke-width:3;"/>
    </defs>
    <g clip-path="url(#p12e2c859b4)">
     <use style="fill:#6495ed;stroke:#6495ed;stroke-width:3;" x="254.198341" xlink:href="#m6178699517" y="251.367439"/>
    </g>
   </g>
   <g id="line2d_48">
    <defs>
     <path d="M 0 1.5 
C 0.397805 1.5 0.77937 1.341951 1.06066 1.06066 
C 1.341951 0.77937 1.5 0.397805 1.5 0 
C 1.5 -0.397805 1.341951 -0.77937 1.06066 -1.06066 
C 0.77937 -1.341951 0.397805 -1.5 0 -1.5 
C -0.397805 -1.5 -0.77937 -1.341951 -1.06066 -1.06066 
C -1.341951 -0.77937 -1.5 -0.397805 -1.5 0 
C -1.5 0.397805 -1.341951 0.77937 -1.06066 1.06066 
C -0.77937 1.341951 -0.397805 1.5 0 1.5 
z
" id="mf933a64f6a" style="stroke:#ff0000;"/>
    </defs>
    <g>
     <use style="fill:#ff0000;stroke:#ff0000;" x="268.341507" xlink:href="#mf933a64f6a" y="247.697705"/>
     <use style="fill:#ff0000;stroke:#ff0000;" x="268.341507" xlink:href="#mf933a64f6a" y="247.697705"/>
    </g>
   </g>
   <g id="line2d_49">
    <path d="M 37.218523 294.88 
L 37.218523 286.492036 
L 49.144027 286.492036 
L 49.144027 283.870798 
L 56.12 283.870798 
L 56.12 283.34655 
L 68.045504 283.34655 
L 68.045504 280.725312 
L 70.697646 280.725312 
L 70.697646 280.201064 
L 72.995036 280.201064 
L 72.995036 279.676816 
L 82.623151 279.676816 
L 82.623151 279.152568 
L 87.877201 279.152568 
L 87.877201 278.628321 
L 89.599124 278.628321 
L 89.599124 277.579825 
L 90.399494 277.579825 
L 90.399494 277.055578 
L 94.548655 277.055578 
L 94.548655 276.53133 
L 100.24961 276.53133 
L 100.24961 276.007082 
L 131.368207 276.007082 
L 131.368207 274.434339 
L 136.245297 274.434339 
L 136.245297 273.385844 
L 148.225161 273.385844 
L 148.225161 272.337348 
L 148.547762 272.337348 
L 148.547762 271.8131 
L 148.759517 271.8131 
L 148.759517 271.288853 
L 148.994666 271.288853 
L 148.994666 270.240357 
L 154.724209 270.240357 
L 154.724209 269.716109 
L 154.982656 269.716109 
L 154.982656 269.191862 
L 165.723111 269.191862 
L 165.723111 268.667614 
L 167.573079 268.667614 
L 167.573079 267.619119 
L 173.179761 267.619119 
L 173.179761 267.094871 
L 177.945384 267.094871 
L 177.945384 266.570623 
L 179.691406 266.570623 
L 179.691406 266.046375 
L 179.869158 266.046375 
L 179.869158 264.99788 
L 180.599593 264.99788 
L 180.599593 264.473632 
L 180.902806 264.473632 
L 180.902806 263.949385 
L 185.616168 263.949385 
L 185.616168 263.425137 
L 185.708568 263.425137 
L 185.708568 262.900889 
L 194.120871 262.900889 
L 194.120871 262.376641 
L 195.454322 262.376641 
L 195.454322 261.852394 
L 195.582847 261.852394 
L 195.582847 261.328146 
L 196.987767 261.328146 
L 196.987767 260.803898 
L 199.123538 260.803898 
L 199.123538 259.755403 
L 199.130579 259.755403 
L 199.130579 257.658412 
L 199.352996 257.658412 
L 199.352996 257.134164 
L 201.896187 257.134164 
L 201.896187 256.609917 
L 209.6469 256.609917 
L 209.6469 256.085669 
L 214.607315 256.085669 
L 214.607315 255.561421 
L 219.171887 255.561421 
L 219.171887 255.037173 
L 219.50767 255.037173 
L 219.50767 253.988678 
L 222.605822 253.988678 
L 222.605822 253.46443 
L 224.845825 253.46443 
L 224.845825 252.940182 
L 232.394356 252.940182 
L 232.394356 252.415935 
L 239.701273 252.415935 
L 239.701273 251.891687 
L 243.294163 251.891687 
L 243.294163 251.367439 
L 244.680414 251.367439 
L 244.680414 250.843192 
L 248.797841 250.843192 
L 248.797841 250.318944 
L 257.768383 250.318944 
L 257.768383 249.794696 
L 260.886821 249.794696 
L 260.886821 249.270448 
L 267.212433 249.270448 
L 267.212433 248.746201 
L 267.568281 248.746201 
L 267.568281 248.221953 
L 268.341507 248.221953 
L 268.341507 247.697705 
L 333.429677 247.697705 
" style="fill:none;stroke:#ff0000;stroke-linecap:square;stroke-width:1.5;"/>
   </g>
   <g id="line2d_50">
    <defs>
     <path d="M 0 -6 
L -5.196152 -3 
L -5.196152 3 
L -0 6 
L 5.196152 3 
L 5.196152 -3 
z
" id="md798b2d2fe" style="stroke:#ff0000;stroke-linejoin:miter;stroke-width:1.5;"/>
    </defs>
    <g>
     <use style="fill-opacity:0;stroke:#ff0000;stroke-linejoin:miter;stroke-width:1.5;" x="136.245297" xlink:href="#md798b2d2fe" y="273.385844"/>
     <use style="fill-opacity:0;stroke:#ff0000;stroke-linejoin:miter;stroke-width:1.5;" x="201.896187" xlink:href="#md798b2d2fe" y="257.134164"/>
     <use style="fill-opacity:0;stroke:#ff0000;stroke-linejoin:miter;stroke-width:1.5;" x="248.797841" xlink:href="#md798b2d2fe" y="250.318944"/>
     <use style="fill-opacity:0;stroke:#ff0000;stroke-linejoin:miter;stroke-width:1.5;" x="268.341507" xlink:href="#md798b2d2fe" y="247.697705"/>
     <use style="fill-opacity:0;stroke:#ff0000;stroke-linejoin:miter;stroke-width:1.5;" x="268.341507" xlink:href="#md798b2d2fe" y="247.697705"/>
     <use style="fill-opacity:0;stroke:#ff0000;stroke-linejoin:miter;stroke-width:1.5;" x="333.429677" xlink:href="#md798b2d2fe" y="247.697705"/>
    </g>
   </g>
   <g id="line2d_51">
    <path style="fill:none;stroke:#ff0000;stroke-linecap:square;stroke-width:1.5;"/>
    <g/>
   </g>
   <g id="line2d_52">
    <path clip-path="url(#p12e2c859b4)" d="M 214.582673 256.085669 
" style="fill:none;stroke:#ff0000;stroke-linecap:square;stroke-width:1.5;"/>
    <defs>
     <path d="M -12 12 
L 12 -12 
M -12 -12 
L 12 12 
" id="m06efa90fef" style="stroke:#ff0000;stroke-width:3;"/>
    </defs>
    <g clip-path="url(#p12e2c859b4)">
     <use style="fill:#ff0000;stroke:#ff0000;stroke-width:3;" x="214.582673" xlink:href="#m06efa90fef" y="256.085669"/>
    </g>
   </g>
   <g id="line2d_53">
    <defs>
     <path d="M 0 1.5 
C 0.397805 1.5 0.77937 1.341951 1.06066 1.06066 
C 1.341951 0.77937 1.5 0.397805 1.5 0 
C 1.5 -0.397805 1.341951 -0.77937 1.06066 -1.06066 
C 0.77937 -1.341951 0.397805 -1.5 0 -1.5 
C -0.397805 -1.5 -0.77937 -1.341951 -1.06066 -1.06066 
C -1.341951 -0.77937 -1.5 -0.397805 -1.5 0 
C -1.5 0.397805 -1.341951 0.77937 -1.06066 1.06066 
C -0.77937 1.341951 -0.397805 1.5 0 1.5 
z
" id="m0e4204ba3d" style="stroke:#9acd32;"/>
    </defs>
    <g>
     <use style="fill:#9acd32;stroke:#9acd32;" x="140.084452" xlink:href="#m0e4204ba3d" y="268.667614"/>
     <use style="fill:#9acd32;stroke:#9acd32;" x="140.084452" xlink:href="#m0e4204ba3d" y="268.667614"/>
    </g>
   </g>
   <g id="line2d_54">
    <path d="M 37.218523 294.88 
L 37.218523 285.443541 
L 49.144027 285.443541 
L 49.144027 283.870798 
L 56.12 283.870798 
L 56.12 283.34655 
L 61.069532 283.34655 
L 61.069532 282.298055 
L 64.908686 282.298055 
L 64.908686 281.773807 
L 68.045504 281.773807 
L 68.045504 280.725312 
L 79.971009 280.725312 
L 79.971009 279.152568 
L 86.946982 279.152568 
L 86.946982 278.628321 
L 96.299813 278.628321 
L 96.299813 277.055578 
L 96.846045 277.055578 
L 96.846045 276.53133 
L 102.324999 276.53133 
L 102.324999 275.482834 
L 102.711641 275.482834 
L 102.711641 274.958587 
L 110.557359 274.958587 
L 110.557359 274.434339 
L 113.244084 274.434339 
L 113.244084 273.910091 
L 115.925812 273.910091 
L 115.925812 273.385844 
L 119.871061 273.385844 
L 119.871061 272.337348 
L 120.01151 272.337348 
L 120.01151 271.8131 
L 126.077974 271.8131 
L 126.077974 271.288853 
L 130.478102 271.288853 
L 130.478102 270.764605 
L 134.04099 270.764605 
L 134.04099 270.240357 
L 134.886312 270.240357 
L 134.886312 269.716109 
L 136.299657 269.716109 
L 136.299657 269.191862 
L 140.084452 269.191862 
L 140.084452 268.667614 
L 333.429677 268.667614 
" style="fill:none;stroke:#9acd32;stroke-linecap:square;stroke-width:1.5;"/>
   </g>
   <g id="line2d_55">
    <defs>
     <path d="M 0 -6 
L -6 6 
L 6 6 
z
" id="m08b6637c6d" style="stroke:#9acd32;stroke-linejoin:miter;stroke-width:1.5;"/>
    </defs>
    <g>
     <use style="fill-opacity:0;stroke:#9acd32;stroke-linejoin:miter;stroke-width:1.5;" x="86.946982" xlink:href="#m08b6637c6d" y="278.628321"/>
     <use style="fill-opacity:0;stroke:#9acd32;stroke-linejoin:miter;stroke-width:1.5;" x="140.084452" xlink:href="#m08b6637c6d" y="269.191862"/>
     <use style="fill-opacity:0;stroke:#9acd32;stroke-linejoin:miter;stroke-width:1.5;" x="140.084452" xlink:href="#m08b6637c6d" y="269.191862"/>
     <use style="fill-opacity:0;stroke:#9acd32;stroke-linejoin:miter;stroke-width:1.5;" x="140.084452" xlink:href="#m08b6637c6d" y="268.667614"/>
     <use style="fill-opacity:0;stroke:#9acd32;stroke-linejoin:miter;stroke-width:1.5;" x="140.084452" xlink:href="#m08b6637c6d" y="268.667614"/>
     <use style="fill-opacity:0;stroke:#9acd32;stroke-linejoin:miter;stroke-width:1.5;" x="333.429677" xlink:href="#m08b6637c6d" y="268.667614"/>
    </g>
   </g>
   <g id="line2d_56">
    <path style="fill:none;stroke:#9acd32;stroke-linecap:square;stroke-width:1.5;"/>
    <g/>
   </g>
   <g id="line2d_57">
    <path clip-path="url(#p12e2c859b4)" d="M 81.348133 279.152568 
" style="fill:none;stroke:#9acd32;stroke-linecap:square;stroke-width:1.5;"/>
    <defs>
     <path d="M -12 12 
L 12 -12 
M -12 -12 
L 12 12 
" id="mf80d1ed1b9" style="stroke:#9acd32;stroke-width:3;"/>
    </defs>
    <g clip-path="url(#p12e2c859b4)">
     <use style="fill:#9acd32;stroke:#9acd32;stroke-width:3;" x="81.348133" xlink:href="#mf80d1ed1b9" y="279.152568"/>
    </g>
   </g>
   <g id="line2d_58">
    <path d="M 333.429677 268.667614 
L 363.933742 289.532673 
" style="fill:none;stroke:#9acd32;stroke-linecap:square;stroke-width:1.5;"/>
    <g>
     <use style="fill-opacity:0;stroke:#9acd32;stroke-linejoin:miter;stroke-width:1.5;" x="333.429677" xlink:href="#m08b6637c6d" y="268.667614"/>
     <use style="fill-opacity:0;stroke:#9acd32;stroke-linejoin:miter;stroke-width:1.5;" x="363.933742" xlink:href="#m08b6637c6d" y="289.532673"/>
    </g>
   </g>
   <g id="line2d_59">
    <path d="M 333.429677 252.940182 
L 363.933742 246.754059 
" style="fill:none;stroke:#ffa500;stroke-linecap:square;stroke-width:1.5;"/>
    <g>
     <use style="fill-opacity:0;stroke:#ffa500;stroke-linejoin:bevel;stroke-width:1.5;" x="333.429677" xlink:href="#m0a3fd6a710" y="252.940182"/>
     <use style="fill-opacity:0;stroke:#ffa500;stroke-linejoin:bevel;stroke-width:1.5;" x="363.933742" xlink:href="#m0a3fd6a710" y="246.754059"/>
    </g>
   </g>
   <g id="line2d_60">
    <path d="M 333.429677 247.697705 
L 363.933742 203.975446 
" style="fill:none;stroke:#ff0000;stroke-linecap:square;stroke-width:1.5;"/>
    <g>
     <use style="fill-opacity:0;stroke:#ff0000;stroke-linejoin:miter;stroke-width:1.5;" x="333.429677" xlink:href="#md798b2d2fe" y="247.697705"/>
     <use style="fill-opacity:0;stroke:#ff0000;stroke-linejoin:miter;stroke-width:1.5;" x="363.933742" xlink:href="#md798b2d2fe" y="203.975446"/>
    </g>
   </g>
   <g id="line2d_61">
    <path d="M 333.429677 216.242842 
L 363.933742 161.196832 
" style="fill:none;stroke:#6495ed;stroke-linecap:square;stroke-width:1.5;"/>
    <g>
     <use style="fill-opacity:0;stroke:#6495ed;stroke-linejoin:miter;stroke-width:1.5;" x="333.429677" xlink:href="#m72cfe51bc9" y="216.242842"/>
     <use style="fill-opacity:0;stroke:#6495ed;stroke-linejoin:miter;stroke-width:1.5;" x="363.933742" xlink:href="#m72cfe51bc9" y="161.196832"/>
    </g>
   </g>
   <g id="line2d_62">
    <path d="M 333.429677 202.612401 
L 363.933742 118.418218 
" style="fill:none;stroke:#ff00ff;stroke-linecap:square;stroke-width:1.5;"/>
    <g>
     <use style="fill-opacity:0;stroke:#ff00ff;stroke-linejoin:miter;stroke-width:1.5;" x="333.429677" xlink:href="#mfb72faa651" y="202.612401"/>
     <use style="fill-opacity:0;stroke:#ff00ff;stroke-linejoin:miter;stroke-width:1.5;" x="363.933742" xlink:href="#mfb72faa651" y="118.418218"/>
    </g>
   </g>
   <g id="line2d_63">
    <path d="M 333.429677 27.513663 
L 363.933742 75.639604 
" style="fill:none;stroke:#000080;stroke-linecap:square;stroke-width:1.5;"/>
    <g>
     <use style="fill-opacity:0;stroke:#000080;stroke-width:1.5;" x="333.429677" xlink:href="#m49a973fb70" y="27.513663"/>
     <use style="fill-opacity:0;stroke:#000080;stroke-width:1.5;" x="363.933742" xlink:href="#m49a973fb70" y="75.639604"/>
    </g>
   </g>
   <g id="line2d_64">
    <path d="M 333.429677 294.88 
L 333.429677 27.513663 
" style="fill:none;stroke:#000000;stroke-linecap:square;stroke-width:1.5;"/>
   </g>
   <g id="patch_3">
    <path d="M 56.12 294.88 
L 56.12 24.84 
" style="fill:none;stroke:#000000;stroke-linecap:square;stroke-linejoin:miter;stroke-width:0.8;"/>
   </g>
   <g id="patch_4">
    <path d="M 399.984 294.88 
L 399.984 24.84 
" style="fill:none;stroke:#000000;stroke-linecap:square;stroke-linejoin:miter;stroke-width:0.8;"/>
   </g>
   <g id="patch_5">
    <path d="M 56.12 294.88 
L 399.984 294.88 
" style="fill:none;stroke:#000000;stroke-linecap:square;stroke-linejoin:miter;stroke-width:0.8;"/>
   </g>
   <g id="patch_6">
    <path d="M 56.12 24.84 
L 399.984 24.84 
" style="fill:none;stroke:#000000;stroke-linecap:square;stroke-linejoin:miter;stroke-width:0.8;"/>
   </g>
   <g id="text_14">
    <!-- gsa solve -->
    <g transform="translate(369.479935 294.223611)scale(0.17 -0.17)">
     <use xlink:href="#DejaVuSans-67"/>
     <use x="63.476562" xlink:href="#DejaVuSans-73"/>
     <use x="115.576172" xlink:href="#DejaVuSans-61"/>
     <use x="176.855469" xlink:href="#DejaVuSans-20"/>
     <use x="208.642578" xlink:href="#DejaVuSans-73"/>
     <use x="260.742188" xlink:href="#DejaVuSans-6f"/>
     <use x="321.923828" xlink:href="#DejaVuSans-6c"/>
     <use x="349.707031" xlink:href="#DejaVuSans-76"/>
     <use x="408.886719" xlink:href="#DejaVuSans-65"/>
    </g>
   </g>
   <g id="text_15">
    <!-- GA -->
    <defs>
     <path d="M 59.515625 10.40625 
L 59.515625 29.984375 
L 43.40625 29.984375 
L 43.40625 38.09375 
L 69.28125 38.09375 
L 69.28125 6.78125 
Q 63.578125 2.734375 56.6875 0.65625 
Q 49.8125 -1.421875 42 -1.421875 
Q 24.90625 -1.421875 15.25 8.5625 
Q 5.609375 18.5625 5.609375 36.375 
Q 5.609375 54.25 15.25 64.234375 
Q 24.90625 74.21875 42 74.21875 
Q 49.125 74.21875 55.546875 72.453125 
Q 61.96875 70.703125 67.390625 67.28125 
L 67.390625 56.78125 
Q 61.921875 61.421875 55.765625 63.765625 
Q 49.609375 66.109375 42.828125 66.109375 
Q 29.4375 66.109375 22.71875 58.640625 
Q 16.015625 51.171875 16.015625 36.375 
Q 16.015625 21.625 22.71875 14.15625 
Q 29.4375 6.6875 42.828125 6.6875 
Q 48.046875 6.6875 52.140625 7.59375 
Q 56.25 8.5 59.515625 10.40625 
z
" id="DejaVuSans-47"/>
     <path d="M 34.1875 63.1875 
L 20.796875 26.90625 
L 47.609375 26.90625 
z
M 28.609375 72.90625 
L 39.796875 72.90625 
L 67.578125 0 
L 57.328125 0 
L 50.6875 18.703125 
L 17.828125 18.703125 
L 11.1875 0 
L 0.78125 0 
z
" id="DejaVuSans-41"/>
    </defs>
    <g transform="translate(369.479935 251.444997)scale(0.17 -0.17)">
     <use xlink:href="#DejaVuSans-47"/>
     <use x="77.490234" xlink:href="#DejaVuSans-41"/>
    </g>
   </g>
   <g id="text_16">
    <!-- Rosenbroc -->
    <defs>
     <path d="M 44.390625 34.1875 
Q 47.5625 33.109375 50.5625 29.59375 
Q 53.5625 26.078125 56.59375 19.921875 
L 66.609375 0 
L 56 0 
L 46.6875 18.703125 
Q 43.0625 26.03125 39.671875 28.421875 
Q 36.28125 30.8125 30.421875 30.8125 
L 19.671875 30.8125 
L 19.671875 0 
L 9.8125 0 
L 9.8125 72.90625 
L 32.078125 72.90625 
Q 44.578125 72.90625 50.734375 67.671875 
Q 56.890625 62.453125 56.890625 51.90625 
Q 56.890625 45.015625 53.6875 40.46875 
Q 50.484375 35.9375 44.390625 34.1875 
z
M 19.671875 64.796875 
L 19.671875 38.921875 
L 32.078125 38.921875 
Q 39.203125 38.921875 42.84375 42.21875 
Q 46.484375 45.515625 46.484375 51.90625 
Q 46.484375 58.296875 42.84375 61.546875 
Q 39.203125 64.796875 32.078125 64.796875 
z
" id="DejaVuSans-52"/>
     <path d="M 48.6875 27.296875 
Q 48.6875 37.203125 44.609375 42.84375 
Q 40.53125 48.484375 33.40625 48.484375 
Q 26.265625 48.484375 22.1875 42.84375 
Q 18.109375 37.203125 18.109375 27.296875 
Q 18.109375 17.390625 22.1875 11.75 
Q 26.265625 6.109375 33.40625 6.109375 
Q 40.53125 6.109375 44.609375 11.75 
Q 48.6875 17.390625 48.6875 27.296875 
z
M 18.109375 46.390625 
Q 20.953125 51.265625 25.265625 53.625 
Q 29.59375 56 35.59375 56 
Q 45.5625 56 51.78125 48.09375 
Q 58.015625 40.1875 58.015625 27.296875 
Q 58.015625 14.40625 51.78125 6.484375 
Q 45.5625 -1.421875 35.59375 -1.421875 
Q 29.59375 -1.421875 25.265625 0.953125 
Q 20.953125 3.328125 18.109375 8.203125 
L 18.109375 0 
L 9.078125 0 
L 9.078125 75.984375 
L 18.109375 75.984375 
z
" id="DejaVuSans-62"/>
    </defs>
    <g transform="translate(369.479935 208.666383)scale(0.17 -0.17)">
     <use xlink:href="#DejaVuSans-52"/>
     <use x="69.419922" xlink:href="#DejaVuSans-6f"/>
     <use x="130.601562" xlink:href="#DejaVuSans-73"/>
     <use x="182.701172" xlink:href="#DejaVuSans-65"/>
     <use x="244.224609" xlink:href="#DejaVuSans-6e"/>
     <use x="307.603516" xlink:href="#DejaVuSans-62"/>
     <use x="371.080078" xlink:href="#DejaVuSans-72"/>
     <use x="412.162109" xlink:href="#DejaVuSans-6f"/>
     <use x="473.34375" xlink:href="#DejaVuSans-63"/>
    </g>
   </g>
   <g id="text_17">
    <!-- PSO -->
    <defs>
     <path d="M 19.671875 64.796875 
L 19.671875 37.40625 
L 32.078125 37.40625 
Q 38.96875 37.40625 42.71875 40.96875 
Q 46.484375 44.53125 46.484375 51.125 
Q 46.484375 57.671875 42.71875 61.234375 
Q 38.96875 64.796875 32.078125 64.796875 
z
M 9.8125 72.90625 
L 32.078125 72.90625 
Q 44.34375 72.90625 50.609375 67.359375 
Q 56.890625 61.8125 56.890625 51.125 
Q 56.890625 40.328125 50.609375 34.8125 
Q 44.34375 29.296875 32.078125 29.296875 
L 19.671875 29.296875 
L 19.671875 0 
L 9.8125 0 
z
" id="DejaVuSans-50"/>
     <path d="M 53.515625 70.515625 
L 53.515625 60.890625 
Q 47.90625 63.578125 42.921875 64.890625 
Q 37.9375 66.21875 33.296875 66.21875 
Q 25.25 66.21875 20.875 63.09375 
Q 16.5 59.96875 16.5 54.203125 
Q 16.5 49.359375 19.40625 46.890625 
Q 22.3125 44.4375 30.421875 42.921875 
L 36.375 41.703125 
Q 47.40625 39.59375 52.65625 34.296875 
Q 57.90625 29 57.90625 20.125 
Q 57.90625 9.515625 50.796875 4.046875 
Q 43.703125 -1.421875 29.984375 -1.421875 
Q 24.8125 -1.421875 18.96875 -0.25 
Q 13.140625 0.921875 6.890625 3.21875 
L 6.890625 13.375 
Q 12.890625 10.015625 18.65625 8.296875 
Q 24.421875 6.59375 29.984375 6.59375 
Q 38.421875 6.59375 43.015625 9.90625 
Q 47.609375 13.234375 47.609375 19.390625 
Q 47.609375 24.75 44.3125 27.78125 
Q 41.015625 30.8125 33.5 32.328125 
L 27.484375 33.5 
Q 16.453125 35.6875 11.515625 40.375 
Q 6.59375 45.0625 6.59375 53.421875 
Q 6.59375 63.09375 13.40625 68.65625 
Q 20.21875 74.21875 32.171875 74.21875 
Q 37.3125 74.21875 42.625 73.28125 
Q 47.953125 72.359375 53.515625 70.515625 
z
" id="DejaVuSans-53"/>
     <path d="M 39.40625 66.21875 
Q 28.65625 66.21875 22.328125 58.203125 
Q 16.015625 50.203125 16.015625 36.375 
Q 16.015625 22.609375 22.328125 14.59375 
Q 28.65625 6.59375 39.40625 6.59375 
Q 50.140625 6.59375 56.421875 14.59375 
Q 62.703125 22.609375 62.703125 36.375 
Q 62.703125 50.203125 56.421875 58.203125 
Q 50.140625 66.21875 39.40625 66.21875 
z
M 39.40625 74.21875 
Q 54.734375 74.21875 63.90625 63.9375 
Q 73.09375 53.65625 73.09375 36.375 
Q 73.09375 19.140625 63.90625 8.859375 
Q 54.734375 -1.421875 39.40625 -1.421875 
Q 24.03125 -1.421875 14.8125 8.828125 
Q 5.609375 19.09375 5.609375 36.375 
Q 5.609375 53.65625 14.8125 63.9375 
Q 24.03125 74.21875 39.40625 74.21875 
z
" id="DejaVuSans-4f"/>
    </defs>
    <g transform="translate(369.479935 165.887769)scale(0.17 -0.17)">
     <use xlink:href="#DejaVuSans-50"/>
     <use x="60.302734" xlink:href="#DejaVuSans-53"/>
     <use x="123.779297" xlink:href="#DejaVuSans-4f"/>
    </g>
   </g>
   <g id="text_18">
    <!-- DASA -->
    <defs>
     <path d="M 19.671875 64.796875 
L 19.671875 8.109375 
L 31.59375 8.109375 
Q 46.6875 8.109375 53.6875 14.9375 
Q 60.6875 21.78125 60.6875 36.53125 
Q 60.6875 51.171875 53.6875 57.984375 
Q 46.6875 64.796875 31.59375 64.796875 
z
M 9.8125 72.90625 
L 30.078125 72.90625 
Q 51.265625 72.90625 61.171875 64.09375 
Q 71.09375 55.28125 71.09375 36.53125 
Q 71.09375 17.671875 61.125 8.828125 
Q 51.171875 0 30.078125 0 
L 9.8125 0 
z
" id="DejaVuSans-44"/>
    </defs>
    <g transform="translate(369.479935 123.109155)scale(0.17 -0.17)">
     <use xlink:href="#DejaVuSans-44"/>
     <use x="76.986328" xlink:href="#DejaVuSans-41"/>
     <use x="145.394531" xlink:href="#DejaVuSans-53"/>
     <use x="208.886719" xlink:href="#DejaVuSans-41"/>
    </g>
   </g>
   <g id="text_19">
    <!-- ALPS -->
    <defs>
     <path d="M 9.8125 72.90625 
L 19.671875 72.90625 
L 19.671875 8.296875 
L 55.171875 8.296875 
L 55.171875 0 
L 9.8125 0 
z
" id="DejaVuSans-4c"/>
    </defs>
    <g transform="translate(369.479935 80.330541)scale(0.17 -0.17)">
     <use xlink:href="#DejaVuSans-41"/>
     <use x="68.408203" xlink:href="#DejaVuSans-4c"/>
     <use x="124.121094" xlink:href="#DejaVuSans-50"/>
     <use x="184.423828" xlink:href="#DejaVuSans-53"/>
    </g>
   </g>
   <g id="text_20">
    <!-- best 2009 -->
    <defs>
     <path d="M 10.984375 1.515625 
L 10.984375 10.5 
Q 14.703125 8.734375 18.5 7.8125 
Q 22.3125 6.890625 25.984375 6.890625 
Q 35.75 6.890625 40.890625 13.453125 
Q 46.046875 20.015625 46.78125 33.40625 
Q 43.953125 29.203125 39.59375 26.953125 
Q 35.25 24.703125 29.984375 24.703125 
Q 19.046875 24.703125 12.671875 31.3125 
Q 6.296875 37.9375 6.296875 49.421875 
Q 6.296875 60.640625 12.9375 67.421875 
Q 19.578125 74.21875 30.609375 74.21875 
Q 43.265625 74.21875 49.921875 64.515625 
Q 56.59375 54.828125 56.59375 36.375 
Q 56.59375 19.140625 48.40625 8.859375 
Q 40.234375 -1.421875 26.421875 -1.421875 
Q 22.703125 -1.421875 18.890625 -0.6875 
Q 15.09375 0.046875 10.984375 1.515625 
z
M 30.609375 32.421875 
Q 37.25 32.421875 41.125 36.953125 
Q 45.015625 41.5 45.015625 49.421875 
Q 45.015625 57.28125 41.125 61.84375 
Q 37.25 66.40625 30.609375 66.40625 
Q 23.96875 66.40625 20.09375 61.84375 
Q 16.21875 57.28125 16.21875 49.421875 
Q 16.21875 41.5 20.09375 36.953125 
Q 23.96875 32.421875 30.609375 32.421875 
z
" id="DejaVuSans-39"/>
    </defs>
    <g transform="translate(369.479935 37.551928)scale(0.17 -0.17)">
     <use xlink:href="#DejaVuSans-62"/>
     <use x="63.476562" xlink:href="#DejaVuSans-65"/>
     <use x="125" xlink:href="#DejaVuSans-73"/>
     <use x="177.099609" xlink:href="#DejaVuSans-74"/>
     <use x="216.308594" xlink:href="#DejaVuSans-20"/>
     <use x="248.095703" xlink:href="#DejaVuSans-32"/>
     <use x="311.71875" xlink:href="#DejaVuSans-30"/>
     <use x="375.341797" xlink:href="#DejaVuSans-30"/>
     <use x="438.964844" xlink:href="#DejaVuSans-39"/>
    </g>
   </g>
   <g id="text_21">
    <!-- bbob f24, 3-D -->
    <defs>
     <path d="M 40.578125 39.3125 
Q 47.65625 37.796875 51.625 33 
Q 55.609375 28.21875 55.609375 21.1875 
Q 55.609375 10.40625 48.1875 4.484375 
Q 40.765625 -1.421875 27.09375 -1.421875 
Q 22.515625 -1.421875 17.65625 -0.515625 
Q 12.796875 0.390625 7.625 2.203125 
L 7.625 11.71875 
Q 11.71875 9.328125 16.59375 8.109375 
Q 21.484375 6.890625 26.8125 6.890625 
Q 36.078125 6.890625 40.9375 10.546875 
Q 45.796875 14.203125 45.796875 21.1875 
Q 45.796875 27.640625 41.28125 31.265625 
Q 36.765625 34.90625 28.71875 34.90625 
L 20.21875 34.90625 
L 20.21875 43.015625 
L 29.109375 43.015625 
Q 36.375 43.015625 40.234375 45.921875 
Q 44.09375 48.828125 44.09375 54.296875 
Q 44.09375 59.90625 40.109375 62.90625 
Q 36.140625 65.921875 28.71875 65.921875 
Q 24.65625 65.921875 20.015625 65.03125 
Q 15.375 64.15625 9.8125 62.3125 
L 9.8125 71.09375 
Q 15.4375 72.65625 20.34375 73.4375 
Q 25.25 74.21875 29.59375 74.21875 
Q 40.828125 74.21875 47.359375 69.109375 
Q 53.90625 64.015625 53.90625 55.328125 
Q 53.90625 49.265625 50.4375 45.09375 
Q 46.96875 40.921875 40.578125 39.3125 
z
" id="DejaVuSans-33"/>
    </defs>
    <g transform="translate(59.55864 35.290806)scale(0.102 -0.102)">
     <use xlink:href="#DejaVuSans-62"/>
     <use x="63.476562" xlink:href="#DejaVuSans-62"/>
     <use x="126.953125" xlink:href="#DejaVuSans-6f"/>
     <use x="188.134766" xlink:href="#DejaVuSans-62"/>
     <use x="251.611328" xlink:href="#DejaVuSans-20"/>
     <use x="283.398438" xlink:href="#DejaVuSans-66"/>
     <use x="318.603516" xlink:href="#DejaVuSans-32"/>
     <use x="382.226562" xlink:href="#DejaVuSans-34"/>
     <use x="445.849609" xlink:href="#DejaVuSans-2c"/>
     <use x="477.636719" xlink:href="#DejaVuSans-20"/>
     <use x="509.423828" xlink:href="#DejaVuSans-33"/>
     <use x="573.046875" xlink:href="#DejaVuSans-2d"/>
     <use x="609.130859" xlink:href="#DejaVuSans-44"/>
    </g>
    <!-- 51 targets: 100..1e-08 -->
    <defs>
     <path d="M 10.796875 72.90625 
L 49.515625 72.90625 
L 49.515625 64.59375 
L 19.828125 64.59375 
L 19.828125 46.734375 
Q 21.96875 47.46875 24.109375 47.828125 
Q 26.265625 48.1875 28.421875 48.1875 
Q 40.625 48.1875 47.75 41.5 
Q 54.890625 34.8125 54.890625 23.390625 
Q 54.890625 11.625 47.5625 5.09375 
Q 40.234375 -1.421875 26.90625 -1.421875 
Q 22.3125 -1.421875 17.546875 -0.640625 
Q 12.796875 0.140625 7.71875 1.703125 
L 7.71875 11.625 
Q 12.109375 9.234375 16.796875 8.0625 
Q 21.484375 6.890625 26.703125 6.890625 
Q 35.15625 6.890625 40.078125 11.328125 
Q 45.015625 15.765625 45.015625 23.390625 
Q 45.015625 31 40.078125 35.4375 
Q 35.15625 39.890625 26.703125 39.890625 
Q 22.75 39.890625 18.8125 39.015625 
Q 14.890625 38.140625 10.796875 36.28125 
z
" id="DejaVuSans-35"/>
     <path d="M 11.71875 12.40625 
L 22.015625 12.40625 
L 22.015625 0 
L 11.71875 0 
z
M 11.71875 51.703125 
L 22.015625 51.703125 
L 22.015625 39.3125 
L 11.71875 39.3125 
z
" id="DejaVuSans-3a"/>
    </defs>
    <g transform="translate(59.55864 46.712575)scale(0.102 -0.102)">
     <use xlink:href="#DejaVuSans-35"/>
     <use x="63.623047" xlink:href="#DejaVuSans-31"/>
     <use x="127.246094" xlink:href="#DejaVuSans-20"/>
     <use x="159.033203" xlink:href="#DejaVuSans-74"/>
     <use x="198.242188" xlink:href="#DejaVuSans-61"/>
     <use x="259.521484" xlink:href="#DejaVuSans-72"/>
     <use x="300.619141" xlink:href="#DejaVuSans-67"/>
     <use x="364.095703" xlink:href="#DejaVuSans-65"/>
     <use x="425.619141" xlink:href="#DejaVuSans-74"/>
     <use x="464.828125" xlink:href="#DejaVuSans-73"/>
     <use x="516.927734" xlink:href="#DejaVuSans-3a"/>
     <use x="550.619141" xlink:href="#DejaVuSans-20"/>
     <use x="582.40625" xlink:href="#DejaVuSans-31"/>
     <use x="646.029297" xlink:href="#DejaVuSans-30"/>
     <use x="709.652344" xlink:href="#DejaVuSans-30"/>
     <use x="773.275391" xlink:href="#DejaVuSans-2e"/>
     <use x="805.0625" xlink:href="#DejaVuSans-2e"/>
     <use x="836.849609" xlink:href="#DejaVuSans-31"/>
     <use x="900.472656" xlink:href="#DejaVuSans-65"/>
     <use x="961.996094" xlink:href="#DejaVuSans-2d"/>
     <use x="998.080078" xlink:href="#DejaVuSans-30"/>
     <use x="1061.703125" xlink:href="#DejaVuSans-38"/>
    </g>
    <!-- 15 instances -->
    <g transform="translate(59.55864 58.134344)scale(0.102 -0.102)">
     <use xlink:href="#DejaVuSans-31"/>
     <use x="63.623047" xlink:href="#DejaVuSans-35"/>
     <use x="127.246094" xlink:href="#DejaVuSans-20"/>
     <use x="159.033203" xlink:href="#DejaVuSans-69"/>
     <use x="186.816406" xlink:href="#DejaVuSans-6e"/>
     <use x="250.195312" xlink:href="#DejaVuSans-73"/>
     <use x="302.294922" xlink:href="#DejaVuSans-74"/>
     <use x="341.503906" xlink:href="#DejaVuSans-61"/>
     <use x="402.783203" xlink:href="#DejaVuSans-6e"/>
     <use x="466.162109" xlink:href="#DejaVuSans-63"/>
     <use x="521.142578" xlink:href="#DejaVuSans-65"/>
     <use x="582.666016" xlink:href="#DejaVuSans-73"/>
    </g>
   </g>
   <g id="text_22">
    <!-- v-coco-version -->
    <g style="fill:#808080;" transform="translate(191.556688 290.099912)scale(0.1 -0.1)">
     <use xlink:href="#DejaVuSans-76"/>
     <use x="59.148438" xlink:href="#DejaVuSans-2d"/>
     <use x="95.232422" xlink:href="#DejaVuSans-63"/>
     <use x="150.212891" xlink:href="#DejaVuSans-6f"/>
     <use x="211.394531" xlink:href="#DejaVuSans-63"/>
     <use x="266.375" xlink:href="#DejaVuSans-6f"/>
     <use x="327.572266" xlink:href="#DejaVuSans-2d"/>
     <use x="363.625" xlink:href="#DejaVuSans-76"/>
     <use x="422.804688" xlink:href="#DejaVuSans-65"/>
     <use x="484.328125" xlink:href="#DejaVuSans-72"/>
     <use x="525.441406" xlink:href="#DejaVuSans-73"/>
     <use x="577.541016" xlink:href="#DejaVuSans-69"/>
     <use x="605.324219" xlink:href="#DejaVuSans-6f"/>
     <use x="666.505859" xlink:href="#DejaVuSans-6e"/>
    </g>
   </g>
   <g id="text_23">
    <!-- 24 Lunacek bi-Rastrigin -->
    <defs>
     <path d="M 9.078125 75.984375 
L 18.109375 75.984375 
L 18.109375 31.109375 
L 44.921875 54.6875 
L 56.390625 54.6875 
L 27.390625 29.109375 
L 57.625 0 
L 45.90625 0 
L 18.109375 26.703125 
L 18.109375 0 
L 9.078125 0 
z
" id="DejaVuSans-6b"/>
    </defs>
    <g transform="translate(109.8645 18.84)scale(0.2 -0.2)">
     <use xlink:href="#DejaVuSans-32"/>
     <use x="63.623047" xlink:href="#DejaVuSans-34"/>
     <use x="127.246094" xlink:href="#DejaVuSans-20"/>
     <use x="159.033203" xlink:href="#DejaVuSans-4c"/>
     <use x="214.730469" xlink:href="#DejaVuSans-75"/>
     <use x="278.109375" xlink:href="#DejaVuSans-6e"/>
     <use x="341.488281" xlink:href="#DejaVuSans-61"/>
     <use x="402.767578" xlink:href="#DejaVuSans-63"/>
     <use x="457.748047" xlink:href="#DejaVuSans-65"/>
     <use x="519.271484" xlink:href="#DejaVuSans-6b"/>
     <use x="577.181641" xlink:href="#DejaVuSans-20"/>
     <use x="608.96875" xlink:href="#DejaVuSans-62"/>
     <use x="672.445312" xlink:href="#DejaVuSans-69"/>
     <use x="700.228516" xlink:href="#DejaVuSans-2d"/>
     <use x="736.3125" xlink:href="#DejaVuSans-52"/>
     <use x="805.763672" xlink:href="#DejaVuSans-61"/>
     <use x="867.042969" xlink:href="#DejaVuSans-73"/>
     <use x="919.142578" xlink:href="#DejaVuSans-74"/>
     <use x="958.351562" xlink:href="#DejaVuSans-72"/>
     <use x="999.464844" xlink:href="#DejaVuSans-69"/>
     <use x="1027.248047" xlink:href="#DejaVuSans-67"/>
     <use x="1090.724609" xlink:href="#DejaVuSans-69"/>
     <use x="1118.507812" xlink:href="#DejaVuSans-6e"/>
    </g>
   </g>
  </g>
 </g>
 <defs>
  <clipPath id="p12e2c859b4">
   <rect height="270.04" width="343.864" x="56.12" y="24.84"/>
  </clipPath>
 </defs>
</svg>
