<?xml version="1.0" encoding="utf-8" standalone="no"?>
<!DOCTYPE svg PUBLIC "-//W3C//DTD SVG 1.1//EN"
  "http://www.w3.org/Graphics/SVG/1.1/DTD/svg11.dtd">
<!-- Created with matplotlib (http://matplotlib.org/) -->
<svg height="345.6pt" version="1.1" viewBox="0 0 460.8 345.6" width="460.8pt" xmlns="http://www.w3.org/2000/svg" xmlns:xlink="http://www.w3.org/1999/xlink">
 <defs>
  <style type="text/css">
*{stroke-linecap:butt;stroke-linejoin:round;}
  </style>
 </defs>
 <g id="figure_1">
  <g id="patch_1">
   <path d="M 0 345.6 
L 460.8 345.6 
L 460.8 0 
L 0 0 
z
" style="fill:#ffffff;"/>
  </g>
  <g id="axes_1">
   <g id="patch_2">
    <path d="M 56.12 294.88 
L 399.984 294.88 
L 399.984 24.84 
L 56.12 24.84 
z
" style="fill:#ffffff;"/>
   </g>
   <g id="line2d_1">
    <path d="M 122.00061 294.88 
L 122.00061 289.637523 
L 124.436454 289.637523 
L 124.436454 284.395046 
L 126.548307 284.395046 
L 126.548307 279.152568 
L 128.299927 279.152568 
L 128.299927 273.910091 
L 130.708738 273.910091 
L 130.708738 268.667614 
L 133.088322 268.667614 
L 133.088322 263.425137 
L 135.012527 263.425137 
L 135.012527 258.18266 
L 136.834012 258.18266 
L 136.834012 252.940182 
L 138.598912 252.940182 
L 138.598912 247.697705 
L 139.675645 247.697705 
L 139.675645 242.455228 
L 140.902088 242.455228 
L 140.902088 237.212751 
L 141.844599 237.212751 
L 141.844599 231.970274 
L 142.43308 231.970274 
L 142.43308 226.727797 
L 143.383837 226.727797 
L 143.383837 221.485319 
L 144.305254 221.485319 
L 144.305254 216.242842 
L 145.387491 216.242842 
L 145.387491 211.000365 
L 146.723947 211.000365 
L 146.723947 205.757888 
L 148.040318 205.757888 
L 148.040318 200.515411 
L 148.735824 200.515411 
L 148.735824 195.272933 
L 149.583906 195.272933 
L 149.583906 190.030456 
L 150.179084 190.030456 
L 150.179084 184.787979 
L 150.869935 184.787979 
L 150.869935 179.545502 
L 151.48198 179.545502 
L 151.48198 174.303025 
L 152.133106 174.303025 
L 152.133106 169.060547 
L 152.858715 169.060547 
L 152.858715 163.81807 
L 153.577338 163.81807 
L 153.577338 158.575593 
L 154.188174 158.575593 
L 154.188174 153.333116 
L 154.768327 153.333116 
L 154.768327 148.090639 
L 155.2999 148.090639 
L 155.2999 142.848162 
L 155.600797 142.848162 
L 155.600797 137.605684 
L 155.990091 137.605684 
L 155.990091 132.363207 
L 156.248641 132.363207 
L 156.248641 127.12073 
L 156.603706 127.12073 
L 156.603706 121.878253 
L 157.201021 121.878253 
L 157.201021 116.635776 
L 157.674016 116.635776 
L 157.674016 111.393298 
L 158.099996 111.393298 
L 158.099996 106.150821 
L 158.567084 106.150821 
L 158.567084 100.908344 
L 158.907348 100.908344 
L 158.907348 95.665867 
L 159.261386 95.665867 
L 159.261386 90.42339 
L 159.704635 90.42339 
L 159.704635 85.180912 
L 159.970965 85.180912 
L 159.970965 79.938435 
L 160.532423 79.938435 
L 160.532423 74.695958 
L 161.110817 74.695958 
L 161.110817 69.453481 
L 161.585411 69.453481 
L 161.585411 64.211004 
L 162.045442 64.211004 
L 162.045442 58.968526 
L 162.358866 58.968526 
L 162.358866 53.726049 
L 162.597968 53.726049 
L 162.597968 48.483572 
L 162.898971 48.483572 
L 162.898971 43.241095 
L 163.108469 43.241095 
L 163.108469 37.998618 
L 163.398218 37.998618 
L 163.398218 32.756141 
L 163.76502 32.756141 
L 163.76502 27.513663 
L 333.429677 27.513663 
" style="fill:none;stroke:#f5deb3;stroke-linecap:square;stroke-width:6;"/>
   </g>
   <g id="line2d_2">
    <defs>
     <path d="M -0 7.778175 
L 7.778175 0 
L 0 -7.778175 
L -7.778175 -0 
z
" id="m951a7ffafc" style="stroke:#f5deb3;stroke-linejoin:miter;stroke-width:1.5;"/>
    </defs>
    <g>
     <use style="fill:#f5deb3;stroke:#f5deb3;stroke-linejoin:miter;stroke-width:1.5;" x="149.583906" xlink:href="#m951a7ffafc" y="190.030456"/>
     <use style="fill:#f5deb3;stroke:#f5deb3;stroke-linejoin:miter;stroke-width:1.5;" x="162.597968" xlink:href="#m951a7ffafc" y="48.483572"/>
     <use style="fill:#f5deb3;stroke:#f5deb3;stroke-linejoin:miter;stroke-width:1.5;" x="163.76502" xlink:href="#m951a7ffafc" y="27.513663"/>
     <use style="fill:#f5deb3;stroke:#f5deb3;stroke-linejoin:miter;stroke-width:1.5;" x="163.76502" xlink:href="#m951a7ffafc" y="27.513663"/>
     <use style="fill:#f5deb3;stroke:#f5deb3;stroke-linejoin:miter;stroke-width:1.5;" x="333.429677" xlink:href="#m951a7ffafc" y="27.513663"/>
    </g>
   </g>
   <g id="line2d_3">
    <path style="fill:none;stroke:#f5deb3;stroke-linecap:square;stroke-width:6;"/>
    <g/>
   </g>
   <g id="line2d_4">
    <path d="M 333.429677 27.513663 
L 363.933742 32.86099 
" style="fill:none;stroke:#f5deb3;stroke-linecap:square;stroke-width:6;"/>
    <g>
     <use style="fill:#f5deb3;stroke:#f5deb3;stroke-linejoin:miter;stroke-width:1.5;" x="333.429677" xlink:href="#m951a7ffafc" y="27.513663"/>
     <use style="fill:#f5deb3;stroke:#f5deb3;stroke-linejoin:miter;stroke-width:1.5;" x="363.933742" xlink:href="#m951a7ffafc" y="32.86099"/>
    </g>
   </g>
   <g id="matplotlib.axis_1">
    <g id="xtick_1">
     <g id="line2d_5">
      <path clip-path="url(#p0837c5a562)" d="M 56.12 294.88 
L 56.12 24.84 
" style="fill:none;stroke:#b0b0b0;stroke-linecap:square;stroke-width:0.8;"/>
     </g>
     <g id="line2d_6">
      <defs>
       <path d="M 0 0 
L 0 3.5 
" id="maca2f1ea7b" style="stroke:#000000;stroke-width:0.8;"/>
      </defs>
      <g>
       <use style="stroke:#000000;stroke-width:0.8;" x="56.12" xlink:href="#maca2f1ea7b" y="294.88"/>
      </g>
     </g>
     <g id="text_1">
      <!-- 0 -->
      <defs>
       <path d="M 31.78125 66.40625 
Q 24.171875 66.40625 20.328125 58.90625 
Q 16.5 51.421875 16.5 36.375 
Q 16.5 21.390625 20.328125 13.890625 
Q 24.171875 6.390625 31.78125 6.390625 
Q 39.453125 6.390625 43.28125 13.890625 
Q 47.125 21.390625 47.125 36.375 
Q 47.125 51.421875 43.28125 58.90625 
Q 39.453125 66.40625 31.78125 66.40625 
z
M 31.78125 74.21875 
Q 44.046875 74.21875 50.515625 64.515625 
Q 56.984375 54.828125 56.984375 36.375 
Q 56.984375 17.96875 50.515625 8.265625 
Q 44.046875 -1.421875 31.78125 -1.421875 
Q 19.53125 -1.421875 13.0625 8.265625 
Q 6.59375 17.96875 6.59375 36.375 
Q 6.59375 54.828125 13.0625 64.515625 
Q 19.53125 74.21875 31.78125 74.21875 
z
" id="DejaVuSans-30"/>
      </defs>
      <g transform="translate(49.7575 317.076875)scale(0.2 -0.2)">
       <use xlink:href="#DejaVuSans-30"/>
      </g>
     </g>
    </g>
    <g id="xtick_2">
     <g id="line2d_7">
      <path clip-path="url(#p0837c5a562)" d="M 135.351336 294.88 
L 135.351336 24.84 
" style="fill:none;stroke:#b0b0b0;stroke-linecap:square;stroke-width:0.8;"/>
     </g>
     <g id="line2d_8">
      <g>
       <use style="stroke:#000000;stroke-width:0.8;" x="135.351336" xlink:href="#maca2f1ea7b" y="294.88"/>
      </g>
     </g>
     <g id="text_2">
      <!-- 2 -->
      <defs>
       <path d="M 19.1875 8.296875 
L 53.609375 8.296875 
L 53.609375 0 
L 7.328125 0 
L 7.328125 8.296875 
Q 12.9375 14.109375 22.625 23.890625 
Q 32.328125 33.6875 34.8125 36.53125 
Q 39.546875 41.84375 41.421875 45.53125 
Q 43.3125 49.21875 43.3125 52.78125 
Q 43.3125 58.59375 39.234375 62.25 
Q 35.15625 65.921875 28.609375 65.921875 
Q 23.96875 65.921875 18.8125 64.3125 
Q 13.671875 62.703125 7.8125 59.421875 
L 7.8125 69.390625 
Q 13.765625 71.78125 18.9375 73 
Q 24.125 74.21875 28.421875 74.21875 
Q 39.75 74.21875 46.484375 68.546875 
Q 53.21875 62.890625 53.21875 53.421875 
Q 53.21875 48.921875 51.53125 44.890625 
Q 49.859375 40.875 45.40625 35.40625 
Q 44.1875 33.984375 37.640625 27.21875 
Q 31.109375 20.453125 19.1875 8.296875 
z
" id="DejaVuSans-32"/>
      </defs>
      <g transform="translate(128.988836 317.076875)scale(0.2 -0.2)">
       <use xlink:href="#DejaVuSans-32"/>
      </g>
     </g>
    </g>
    <g id="xtick_3">
     <g id="line2d_9">
      <path clip-path="url(#p0837c5a562)" d="M 214.582673 294.88 
L 214.582673 24.84 
" style="fill:none;stroke:#b0b0b0;stroke-linecap:square;stroke-width:0.8;"/>
     </g>
     <g id="line2d_10">
      <g>
       <use style="stroke:#000000;stroke-width:0.8;" x="214.582673" xlink:href="#maca2f1ea7b" y="294.88"/>
      </g>
     </g>
     <g id="text_3">
      <!-- 4 -->
      <defs>
       <path d="M 37.796875 64.3125 
L 12.890625 25.390625 
L 37.796875 25.390625 
z
M 35.203125 72.90625 
L 47.609375 72.90625 
L 47.609375 25.390625 
L 58.015625 25.390625 
L 58.015625 17.1875 
L 47.609375 17.1875 
L 47.609375 0 
L 37.796875 0 
L 37.796875 17.1875 
L 4.890625 17.1875 
L 4.890625 26.703125 
z
" id="DejaVuSans-34"/>
      </defs>
      <g transform="translate(208.220173 317.076875)scale(0.2 -0.2)">
       <use xlink:href="#DejaVuSans-34"/>
      </g>
     </g>
    </g>
    <g id="xtick_4">
     <g id="line2d_11">
      <path clip-path="url(#p0837c5a562)" d="M 293.814009 294.88 
L 293.814009 24.84 
" style="fill:none;stroke:#b0b0b0;stroke-linecap:square;stroke-width:0.8;"/>
     </g>
     <g id="line2d_12">
      <g>
       <use style="stroke:#000000;stroke-width:0.8;" x="293.814009" xlink:href="#maca2f1ea7b" y="294.88"/>
      </g>
     </g>
     <g id="text_4">
      <!-- 6 -->
      <defs>
       <path d="M 33.015625 40.375 
Q 26.375 40.375 22.484375 35.828125 
Q 18.609375 31.296875 18.609375 23.390625 
Q 18.609375 15.53125 22.484375 10.953125 
Q 26.375 6.390625 33.015625 6.390625 
Q 39.65625 6.390625 43.53125 10.953125 
Q 47.40625 15.53125 47.40625 23.390625 
Q 47.40625 31.296875 43.53125 35.828125 
Q 39.65625 40.375 33.015625 40.375 
z
M 52.59375 71.296875 
L 52.59375 62.3125 
Q 48.875 64.0625 45.09375 64.984375 
Q 41.3125 65.921875 37.59375 65.921875 
Q 27.828125 65.921875 22.671875 59.328125 
Q 17.53125 52.734375 16.796875 39.40625 
Q 19.671875 43.65625 24.015625 45.921875 
Q 28.375 48.1875 33.59375 48.1875 
Q 44.578125 48.1875 50.953125 41.515625 
Q 57.328125 34.859375 57.328125 23.390625 
Q 57.328125 12.15625 50.6875 5.359375 
Q 44.046875 -1.421875 33.015625 -1.421875 
Q 20.359375 -1.421875 13.671875 8.265625 
Q 6.984375 17.96875 6.984375 36.375 
Q 6.984375 53.65625 15.1875 63.9375 
Q 23.390625 74.21875 37.203125 74.21875 
Q 40.921875 74.21875 44.703125 73.484375 
Q 48.484375 72.75 52.59375 71.296875 
z
" id="DejaVuSans-36"/>
      </defs>
      <g transform="translate(287.451509 317.076875)scale(0.2 -0.2)">
       <use xlink:href="#DejaVuSans-36"/>
      </g>
     </g>
    </g>
    <g id="xtick_5">
     <g id="line2d_13">
      <path clip-path="url(#p0837c5a562)" d="M 373.045346 294.88 
L 373.045346 24.84 
" style="fill:none;stroke:#b0b0b0;stroke-linecap:square;stroke-width:0.8;"/>
     </g>
     <g id="line2d_14">
      <g>
       <use style="stroke:#000000;stroke-width:0.8;" x="373.045346" xlink:href="#maca2f1ea7b" y="294.88"/>
      </g>
     </g>
     <g id="text_5">
      <!-- 8 -->
      <defs>
       <path d="M 31.78125 34.625 
Q 24.75 34.625 20.71875 30.859375 
Q 16.703125 27.09375 16.703125 20.515625 
Q 16.703125 13.921875 20.71875 10.15625 
Q 24.75 6.390625 31.78125 6.390625 
Q 38.8125 6.390625 42.859375 10.171875 
Q 46.921875 13.96875 46.921875 20.515625 
Q 46.921875 27.09375 42.890625 30.859375 
Q 38.875 34.625 31.78125 34.625 
z
M 21.921875 38.8125 
Q 15.578125 40.375 12.03125 44.71875 
Q 8.5 49.078125 8.5 55.328125 
Q 8.5 64.0625 14.71875 69.140625 
Q 20.953125 74.21875 31.78125 74.21875 
Q 42.671875 74.21875 48.875 69.140625 
Q 55.078125 64.0625 55.078125 55.328125 
Q 55.078125 49.078125 51.53125 44.71875 
Q 48 40.375 41.703125 38.8125 
Q 48.828125 37.15625 52.796875 32.3125 
Q 56.78125 27.484375 56.78125 20.515625 
Q 56.78125 9.90625 50.3125 4.234375 
Q 43.84375 -1.421875 31.78125 -1.421875 
Q 19.734375 -1.421875 13.25 4.234375 
Q 6.78125 9.90625 6.78125 20.515625 
Q 6.78125 27.484375 10.78125 32.3125 
Q 14.796875 37.15625 21.921875 38.8125 
z
M 18.3125 54.390625 
Q 18.3125 48.734375 21.84375 45.5625 
Q 25.390625 42.390625 31.78125 42.390625 
Q 38.140625 42.390625 41.71875 45.5625 
Q 45.3125 48.734375 45.3125 54.390625 
Q 45.3125 60.0625 41.71875 63.234375 
Q 38.140625 66.40625 31.78125 66.40625 
Q 25.390625 66.40625 21.84375 63.234375 
Q 18.3125 60.0625 18.3125 54.390625 
z
" id="DejaVuSans-38"/>
      </defs>
      <g transform="translate(366.682846 317.076875)scale(0.2 -0.2)">
       <use xlink:href="#DejaVuSans-38"/>
      </g>
     </g>
    </g>
    <g id="text_6">
     <!-- log10(# f-evals / dimension) -->
     <defs>
      <path d="M 9.421875 75.984375 
L 18.40625 75.984375 
L 18.40625 0 
L 9.421875 0 
z
" id="DejaVuSans-6c"/>
      <path d="M 30.609375 48.390625 
Q 23.390625 48.390625 19.1875 42.75 
Q 14.984375 37.109375 14.984375 27.296875 
Q 14.984375 17.484375 19.15625 11.84375 
Q 23.34375 6.203125 30.609375 6.203125 
Q 37.796875 6.203125 41.984375 11.859375 
Q 46.1875 17.53125 46.1875 27.296875 
Q 46.1875 37.015625 41.984375 42.703125 
Q 37.796875 48.390625 30.609375 48.390625 
z
M 30.609375 56 
Q 42.328125 56 49.015625 48.375 
Q 55.71875 40.765625 55.71875 27.296875 
Q 55.71875 13.875 49.015625 6.21875 
Q 42.328125 -1.421875 30.609375 -1.421875 
Q 18.84375 -1.421875 12.171875 6.21875 
Q 5.515625 13.875 5.515625 27.296875 
Q 5.515625 40.765625 12.171875 48.375 
Q 18.84375 56 30.609375 56 
z
" id="DejaVuSans-6f"/>
      <path d="M 45.40625 27.984375 
Q 45.40625 37.75 41.375 43.109375 
Q 37.359375 48.484375 30.078125 48.484375 
Q 22.859375 48.484375 18.828125 43.109375 
Q 14.796875 37.75 14.796875 27.984375 
Q 14.796875 18.265625 18.828125 12.890625 
Q 22.859375 7.515625 30.078125 7.515625 
Q 37.359375 7.515625 41.375 12.890625 
Q 45.40625 18.265625 45.40625 27.984375 
z
M 54.390625 6.78125 
Q 54.390625 -7.171875 48.1875 -13.984375 
Q 42 -20.796875 29.203125 -20.796875 
Q 24.46875 -20.796875 20.265625 -20.09375 
Q 16.0625 -19.390625 12.109375 -17.921875 
L 12.109375 -9.1875 
Q 16.0625 -11.328125 19.921875 -12.34375 
Q 23.78125 -13.375 27.78125 -13.375 
Q 36.625 -13.375 41.015625 -8.765625 
Q 45.40625 -4.15625 45.40625 5.171875 
L 45.40625 9.625 
Q 42.625 4.78125 38.28125 2.390625 
Q 33.9375 0 27.875 0 
Q 17.828125 0 11.671875 7.65625 
Q 5.515625 15.328125 5.515625 27.984375 
Q 5.515625 40.671875 11.671875 48.328125 
Q 17.828125 56 27.875 56 
Q 33.9375 56 38.28125 53.609375 
Q 42.625 51.21875 45.40625 46.390625 
L 45.40625 54.6875 
L 54.390625 54.6875 
z
" id="DejaVuSans-67"/>
      <path d="M 12.40625 8.296875 
L 28.515625 8.296875 
L 28.515625 63.921875 
L 10.984375 60.40625 
L 10.984375 69.390625 
L 28.421875 72.90625 
L 38.28125 72.90625 
L 38.28125 8.296875 
L 54.390625 8.296875 
L 54.390625 0 
L 12.40625 0 
z
" id="DejaVuSans-31"/>
      <path d="M 31 75.875 
Q 24.46875 64.65625 21.28125 53.65625 
Q 18.109375 42.671875 18.109375 31.390625 
Q 18.109375 20.125 21.3125 9.0625 
Q 24.515625 -2 31 -13.1875 
L 23.1875 -13.1875 
Q 15.875 -1.703125 12.234375 9.375 
Q 8.59375 20.453125 8.59375 31.390625 
Q 8.59375 42.28125 12.203125 53.3125 
Q 15.828125 64.359375 23.1875 75.875 
z
" id="DejaVuSans-28"/>
      <path d="M 51.125 44 
L 36.921875 44 
L 32.8125 27.6875 
L 47.125 27.6875 
z
M 43.796875 71.78125 
L 38.71875 51.515625 
L 52.984375 51.515625 
L 58.109375 71.78125 
L 65.921875 71.78125 
L 60.890625 51.515625 
L 76.125 51.515625 
L 76.125 44 
L 58.984375 44 
L 54.984375 27.6875 
L 70.515625 27.6875 
L 70.515625 20.21875 
L 53.078125 20.21875 
L 48 0 
L 40.1875 0 
L 45.21875 20.21875 
L 30.90625 20.21875 
L 25.875 0 
L 18.015625 0 
L 23.09375 20.21875 
L 7.71875 20.21875 
L 7.71875 27.6875 
L 24.90625 27.6875 
L 29 44 
L 13.28125 44 
L 13.28125 51.515625 
L 30.90625 51.515625 
L 35.890625 71.78125 
z
" id="DejaVuSans-23"/>
      <path id="DejaVuSans-20"/>
      <path d="M 37.109375 75.984375 
L 37.109375 68.5 
L 28.515625 68.5 
Q 23.6875 68.5 21.796875 66.546875 
Q 19.921875 64.59375 19.921875 59.515625 
L 19.921875 54.6875 
L 34.71875 54.6875 
L 34.71875 47.703125 
L 19.921875 47.703125 
L 19.921875 0 
L 10.890625 0 
L 10.890625 47.703125 
L 2.296875 47.703125 
L 2.296875 54.6875 
L 10.890625 54.6875 
L 10.890625 58.5 
Q 10.890625 67.625 15.140625 71.796875 
Q 19.390625 75.984375 28.609375 75.984375 
z
" id="DejaVuSans-66"/>
      <path d="M 4.890625 31.390625 
L 31.203125 31.390625 
L 31.203125 23.390625 
L 4.890625 23.390625 
z
" id="DejaVuSans-2d"/>
      <path d="M 56.203125 29.59375 
L 56.203125 25.203125 
L 14.890625 25.203125 
Q 15.484375 15.921875 20.484375 11.0625 
Q 25.484375 6.203125 34.421875 6.203125 
Q 39.59375 6.203125 44.453125 7.46875 
Q 49.3125 8.734375 54.109375 11.28125 
L 54.109375 2.78125 
Q 49.265625 0.734375 44.1875 -0.34375 
Q 39.109375 -1.421875 33.890625 -1.421875 
Q 20.796875 -1.421875 13.15625 6.1875 
Q 5.515625 13.8125 5.515625 26.8125 
Q 5.515625 40.234375 12.765625 48.109375 
Q 20.015625 56 32.328125 56 
Q 43.359375 56 49.78125 48.890625 
Q 56.203125 41.796875 56.203125 29.59375 
z
M 47.21875 32.234375 
Q 47.125 39.59375 43.09375 43.984375 
Q 39.0625 48.390625 32.421875 48.390625 
Q 24.90625 48.390625 20.390625 44.140625 
Q 15.875 39.890625 15.1875 32.171875 
z
" id="DejaVuSans-65"/>
      <path d="M 2.984375 54.6875 
L 12.5 54.6875 
L 29.59375 8.796875 
L 46.6875 54.6875 
L 56.203125 54.6875 
L 35.6875 0 
L 23.484375 0 
z
" id="DejaVuSans-76"/>
      <path d="M 34.28125 27.484375 
Q 23.390625 27.484375 19.1875 25 
Q 14.984375 22.515625 14.984375 16.5 
Q 14.984375 11.71875 18.140625 8.90625 
Q 21.296875 6.109375 26.703125 6.109375 
Q 34.1875 6.109375 38.703125 11.40625 
Q 43.21875 16.703125 43.21875 25.484375 
L 43.21875 27.484375 
z
M 52.203125 31.203125 
L 52.203125 0 
L 43.21875 0 
L 43.21875 8.296875 
Q 40.140625 3.328125 35.546875 0.953125 
Q 30.953125 -1.421875 24.3125 -1.421875 
Q 15.921875 -1.421875 10.953125 3.296875 
Q 6 8.015625 6 15.921875 
Q 6 25.140625 12.171875 29.828125 
Q 18.359375 34.515625 30.609375 34.515625 
L 43.21875 34.515625 
L 43.21875 35.40625 
Q 43.21875 41.609375 39.140625 45 
Q 35.0625 48.390625 27.6875 48.390625 
Q 23 48.390625 18.546875 47.265625 
Q 14.109375 46.140625 10.015625 43.890625 
L 10.015625 52.203125 
Q 14.9375 54.109375 19.578125 55.046875 
Q 24.21875 56 28.609375 56 
Q 40.484375 56 46.34375 49.84375 
Q 52.203125 43.703125 52.203125 31.203125 
z
" id="DejaVuSans-61"/>
      <path d="M 44.28125 53.078125 
L 44.28125 44.578125 
Q 40.484375 46.53125 36.375 47.5 
Q 32.28125 48.484375 27.875 48.484375 
Q 21.1875 48.484375 17.84375 46.4375 
Q 14.5 44.390625 14.5 40.28125 
Q 14.5 37.15625 16.890625 35.375 
Q 19.28125 33.59375 26.515625 31.984375 
L 29.59375 31.296875 
Q 39.15625 29.25 43.1875 25.515625 
Q 47.21875 21.78125 47.21875 15.09375 
Q 47.21875 7.46875 41.1875 3.015625 
Q 35.15625 -1.421875 24.609375 -1.421875 
Q 20.21875 -1.421875 15.453125 -0.5625 
Q 10.6875 0.296875 5.421875 2 
L 5.421875 11.28125 
Q 10.40625 8.6875 15.234375 7.390625 
Q 20.0625 6.109375 24.8125 6.109375 
Q 31.15625 6.109375 34.5625 8.28125 
Q 37.984375 10.453125 37.984375 14.40625 
Q 37.984375 18.0625 35.515625 20.015625 
Q 33.0625 21.96875 24.703125 23.78125 
L 21.578125 24.515625 
Q 13.234375 26.265625 9.515625 29.90625 
Q 5.8125 33.546875 5.8125 39.890625 
Q 5.8125 47.609375 11.28125 51.796875 
Q 16.75 56 26.8125 56 
Q 31.78125 56 36.171875 55.265625 
Q 40.578125 54.546875 44.28125 53.078125 
z
" id="DejaVuSans-73"/>
      <path d="M 25.390625 72.90625 
L 33.6875 72.90625 
L 8.296875 -9.28125 
L 0 -9.28125 
z
" id="DejaVuSans-2f"/>
      <path d="M 45.40625 46.390625 
L 45.40625 75.984375 
L 54.390625 75.984375 
L 54.390625 0 
L 45.40625 0 
L 45.40625 8.203125 
Q 42.578125 3.328125 38.25 0.953125 
Q 33.9375 -1.421875 27.875 -1.421875 
Q 17.96875 -1.421875 11.734375 6.484375 
Q 5.515625 14.40625 5.515625 27.296875 
Q 5.515625 40.1875 11.734375 48.09375 
Q 17.96875 56 27.875 56 
Q 33.9375 56 38.25 53.625 
Q 42.578125 51.265625 45.40625 46.390625 
z
M 14.796875 27.296875 
Q 14.796875 17.390625 18.875 11.75 
Q 22.953125 6.109375 30.078125 6.109375 
Q 37.203125 6.109375 41.296875 11.75 
Q 45.40625 17.390625 45.40625 27.296875 
Q 45.40625 37.203125 41.296875 42.84375 
Q 37.203125 48.484375 30.078125 48.484375 
Q 22.953125 48.484375 18.875 42.84375 
Q 14.796875 37.203125 14.796875 27.296875 
z
" id="DejaVuSans-64"/>
      <path d="M 9.421875 54.6875 
L 18.40625 54.6875 
L 18.40625 0 
L 9.421875 0 
z
M 9.421875 75.984375 
L 18.40625 75.984375 
L 18.40625 64.59375 
L 9.421875 64.59375 
z
" id="DejaVuSans-69"/>
      <path d="M 52 44.1875 
Q 55.375 50.25 60.0625 53.125 
Q 64.75 56 71.09375 56 
Q 79.640625 56 84.28125 50.015625 
Q 88.921875 44.046875 88.921875 33.015625 
L 88.921875 0 
L 79.890625 0 
L 79.890625 32.71875 
Q 79.890625 40.578125 77.09375 44.375 
Q 74.3125 48.1875 68.609375 48.1875 
Q 61.625 48.1875 57.5625 43.546875 
Q 53.515625 38.921875 53.515625 30.90625 
L 53.515625 0 
L 44.484375 0 
L 44.484375 32.71875 
Q 44.484375 40.625 41.703125 44.40625 
Q 38.921875 48.1875 33.109375 48.1875 
Q 26.21875 48.1875 22.15625 43.53125 
Q 18.109375 38.875 18.109375 30.90625 
L 18.109375 0 
L 9.078125 0 
L 9.078125 54.6875 
L 18.109375 54.6875 
L 18.109375 46.1875 
Q 21.1875 51.21875 25.484375 53.609375 
Q 29.78125 56 35.6875 56 
Q 41.65625 56 45.828125 52.96875 
Q 50 49.953125 52 44.1875 
z
" id="DejaVuSans-6d"/>
      <path d="M 54.890625 33.015625 
L 54.890625 0 
L 45.90625 0 
L 45.90625 32.71875 
Q 45.90625 40.484375 42.875 44.328125 
Q 39.84375 48.1875 33.796875 48.1875 
Q 26.515625 48.1875 22.3125 43.546875 
Q 18.109375 38.921875 18.109375 30.90625 
L 18.109375 0 
L 9.078125 0 
L 9.078125 54.6875 
L 18.109375 54.6875 
L 18.109375 46.1875 
Q 21.34375 51.125 25.703125 53.5625 
Q 30.078125 56 35.796875 56 
Q 45.21875 56 50.046875 50.171875 
Q 54.890625 44.34375 54.890625 33.015625 
z
" id="DejaVuSans-6e"/>
      <path d="M 8.015625 75.875 
L 15.828125 75.875 
Q 23.140625 64.359375 26.78125 53.3125 
Q 30.421875 42.28125 30.421875 31.390625 
Q 30.421875 20.453125 26.78125 9.375 
Q 23.140625 -1.703125 15.828125 -13.1875 
L 8.015625 -13.1875 
Q 14.5 -2 17.703125 9.0625 
Q 20.90625 20.125 20.90625 31.390625 
Q 20.90625 42.671875 17.703125 53.65625 
Q 14.5 64.65625 8.015625 75.875 
z
" id="DejaVuSans-29"/>
     </defs>
     <g transform="translate(107.211219 338.153594)scale(0.17 -0.17)">
      <use xlink:href="#DejaVuSans-6c"/>
      <use x="27.783203" xlink:href="#DejaVuSans-6f"/>
      <use x="88.964844" xlink:href="#DejaVuSans-67"/>
      <use x="152.441406" xlink:href="#DejaVuSans-31"/>
      <use x="216.064453" xlink:href="#DejaVuSans-30"/>
      <use x="279.6875" xlink:href="#DejaVuSans-28"/>
      <use x="318.701172" xlink:href="#DejaVuSans-23"/>
      <use x="402.490234" xlink:href="#DejaVuSans-20"/>
      <use x="434.277344" xlink:href="#DejaVuSans-66"/>
      <use x="469.404297" xlink:href="#DejaVuSans-2d"/>
      <use x="505.488281" xlink:href="#DejaVuSans-65"/>
      <use x="567.011719" xlink:href="#DejaVuSans-76"/>
      <use x="626.191406" xlink:href="#DejaVuSans-61"/>
      <use x="687.470703" xlink:href="#DejaVuSans-6c"/>
      <use x="715.253906" xlink:href="#DejaVuSans-73"/>
      <use x="767.353516" xlink:href="#DejaVuSans-20"/>
      <use x="799.140625" xlink:href="#DejaVuSans-2f"/>
      <use x="832.832031" xlink:href="#DejaVuSans-20"/>
      <use x="864.619141" xlink:href="#DejaVuSans-64"/>
      <use x="928.095703" xlink:href="#DejaVuSans-69"/>
      <use x="955.878906" xlink:href="#DejaVuSans-6d"/>
      <use x="1053.291016" xlink:href="#DejaVuSans-65"/>
      <use x="1114.814453" xlink:href="#DejaVuSans-6e"/>
      <use x="1178.193359" xlink:href="#DejaVuSans-73"/>
      <use x="1230.292969" xlink:href="#DejaVuSans-69"/>
      <use x="1258.076172" xlink:href="#DejaVuSans-6f"/>
      <use x="1319.257812" xlink:href="#DejaVuSans-6e"/>
      <use x="1382.636719" xlink:href="#DejaVuSans-29"/>
     </g>
    </g>
   </g>
   <g id="matplotlib.axis_2">
    <g id="ytick_1">
     <g id="line2d_15">
      <path clip-path="url(#p0837c5a562)" d="M 56.12 294.88 
L 399.984 294.88 
" style="fill:none;stroke:#b0b0b0;stroke-linecap:square;stroke-width:0.8;"/>
     </g>
     <g id="line2d_16">
      <defs>
       <path d="M 0 0 
L -3.5 0 
" id="m8592096539" style="stroke:#000000;stroke-width:0.8;"/>
      </defs>
      <g>
       <use style="stroke:#000000;stroke-width:0.8;" x="56.12" xlink:href="#m8592096539" y="294.88"/>
      </g>
     </g>
     <g id="text_7">
      <!-- 0.0 -->
      <defs>
       <path d="M 10.6875 12.40625 
L 21 12.40625 
L 21 0 
L 10.6875 0 
z
" id="DejaVuSans-2e"/>
      </defs>
      <g transform="translate(23.675 300.95875)scale(0.16 -0.16)">
       <use xlink:href="#DejaVuSans-30"/>
       <use x="63.623047" xlink:href="#DejaVuSans-2e"/>
       <use x="95.410156" xlink:href="#DejaVuSans-30"/>
      </g>
     </g>
    </g>
    <g id="ytick_2">
     <g id="line2d_17">
      <path clip-path="url(#p0837c5a562)" d="M 56.12 241.406733 
L 399.984 241.406733 
" style="fill:none;stroke:#b0b0b0;stroke-linecap:square;stroke-width:0.8;"/>
     </g>
     <g id="line2d_18">
      <g>
       <use style="stroke:#000000;stroke-width:0.8;" x="56.12" xlink:href="#m8592096539" y="241.406733"/>
      </g>
     </g>
     <g id="text_8">
      <!-- 0.2 -->
      <g transform="translate(23.675 247.485483)scale(0.16 -0.16)">
       <use xlink:href="#DejaVuSans-30"/>
       <use x="63.623047" xlink:href="#DejaVuSans-2e"/>
       <use x="95.410156" xlink:href="#DejaVuSans-32"/>
      </g>
     </g>
    </g>
    <g id="ytick_3">
     <g id="line2d_19">
      <path clip-path="url(#p0837c5a562)" d="M 56.12 187.933465 
L 399.984 187.933465 
" style="fill:none;stroke:#b0b0b0;stroke-linecap:square;stroke-width:0.8;"/>
     </g>
     <g id="line2d_20">
      <g>
       <use style="stroke:#000000;stroke-width:0.8;" x="56.12" xlink:href="#m8592096539" y="187.933465"/>
      </g>
     </g>
     <g id="text_9">
      <!-- 0.4 -->
      <g transform="translate(23.675 194.012215)scale(0.16 -0.16)">
       <use xlink:href="#DejaVuSans-30"/>
       <use x="63.623047" xlink:href="#DejaVuSans-2e"/>
       <use x="95.410156" xlink:href="#DejaVuSans-34"/>
      </g>
     </g>
    </g>
    <g id="ytick_4">
     <g id="line2d_21">
      <path clip-path="url(#p0837c5a562)" d="M 56.12 134.460198 
L 399.984 134.460198 
" style="fill:none;stroke:#b0b0b0;stroke-linecap:square;stroke-width:0.8;"/>
     </g>
     <g id="line2d_22">
      <g>
       <use style="stroke:#000000;stroke-width:0.8;" x="56.12" xlink:href="#m8592096539" y="134.460198"/>
      </g>
     </g>
     <g id="text_10">
      <!-- 0.6 -->
      <g transform="translate(23.675 140.538948)scale(0.16 -0.16)">
       <use xlink:href="#DejaVuSans-30"/>
       <use x="63.623047" xlink:href="#DejaVuSans-2e"/>
       <use x="95.410156" xlink:href="#DejaVuSans-36"/>
      </g>
     </g>
    </g>
    <g id="ytick_5">
     <g id="line2d_23">
      <path clip-path="url(#p0837c5a562)" d="M 56.12 80.986931 
L 399.984 80.986931 
" style="fill:none;stroke:#b0b0b0;stroke-linecap:square;stroke-width:0.8;"/>
     </g>
     <g id="line2d_24">
      <g>
       <use style="stroke:#000000;stroke-width:0.8;" x="56.12" xlink:href="#m8592096539" y="80.986931"/>
      </g>
     </g>
     <g id="text_11">
      <!-- 0.8 -->
      <g transform="translate(23.675 87.065681)scale(0.16 -0.16)">
       <use xlink:href="#DejaVuSans-30"/>
       <use x="63.623047" xlink:href="#DejaVuSans-2e"/>
       <use x="95.410156" xlink:href="#DejaVuSans-38"/>
      </g>
     </g>
    </g>
    <g id="ytick_6">
     <g id="line2d_25">
      <path clip-path="url(#p0837c5a562)" d="M 56.12 27.513663 
L 399.984 27.513663 
" style="fill:none;stroke:#b0b0b0;stroke-linecap:square;stroke-width:0.8;"/>
     </g>
     <g id="line2d_26">
      <g>
       <use style="stroke:#000000;stroke-width:0.8;" x="56.12" xlink:href="#m8592096539" y="27.513663"/>
      </g>
     </g>
     <g id="text_12">
      <!-- 1.0 -->
      <g transform="translate(23.675 33.592413)scale(0.16 -0.16)">
       <use xlink:href="#DejaVuSans-31"/>
       <use x="63.623047" xlink:href="#DejaVuSans-2e"/>
       <use x="95.410156" xlink:href="#DejaVuSans-30"/>
      </g>
     </g>
    </g>
    <g id="text_13">
     <!-- Fraction of function,target pairs -->
     <defs>
      <path d="M 9.8125 72.90625 
L 51.703125 72.90625 
L 51.703125 64.59375 
L 19.671875 64.59375 
L 19.671875 43.109375 
L 48.578125 43.109375 
L 48.578125 34.8125 
L 19.671875 34.8125 
L 19.671875 0 
L 9.8125 0 
z
" id="DejaVuSans-46"/>
      <path d="M 41.109375 46.296875 
Q 39.59375 47.171875 37.8125 47.578125 
Q 36.03125 48 33.890625 48 
Q 26.265625 48 22.1875 43.046875 
Q 18.109375 38.09375 18.109375 28.8125 
L 18.109375 0 
L 9.078125 0 
L 9.078125 54.6875 
L 18.109375 54.6875 
L 18.109375 46.1875 
Q 20.953125 51.171875 25.484375 53.578125 
Q 30.03125 56 36.53125 56 
Q 37.453125 56 38.578125 55.875 
Q 39.703125 55.765625 41.0625 55.515625 
z
" id="DejaVuSans-72"/>
      <path d="M 48.78125 52.59375 
L 48.78125 44.1875 
Q 44.96875 46.296875 41.140625 47.34375 
Q 37.3125 48.390625 33.40625 48.390625 
Q 24.65625 48.390625 19.8125 42.84375 
Q 14.984375 37.3125 14.984375 27.296875 
Q 14.984375 17.28125 19.8125 11.734375 
Q 24.65625 6.203125 33.40625 6.203125 
Q 37.3125 6.203125 41.140625 7.25 
Q 44.96875 8.296875 48.78125 10.40625 
L 48.78125 2.09375 
Q 45.015625 0.34375 40.984375 -0.53125 
Q 36.96875 -1.421875 32.421875 -1.421875 
Q 20.0625 -1.421875 12.78125 6.34375 
Q 5.515625 14.109375 5.515625 27.296875 
Q 5.515625 40.671875 12.859375 48.328125 
Q 20.21875 56 33.015625 56 
Q 37.15625 56 41.109375 55.140625 
Q 45.0625 54.296875 48.78125 52.59375 
z
" id="DejaVuSans-63"/>
      <path d="M 18.3125 70.21875 
L 18.3125 54.6875 
L 36.8125 54.6875 
L 36.8125 47.703125 
L 18.3125 47.703125 
L 18.3125 18.015625 
Q 18.3125 11.328125 20.140625 9.421875 
Q 21.96875 7.515625 27.59375 7.515625 
L 36.8125 7.515625 
L 36.8125 0 
L 27.59375 0 
Q 17.1875 0 13.234375 3.875 
Q 9.28125 7.765625 9.28125 18.015625 
L 9.28125 47.703125 
L 2.6875 47.703125 
L 2.6875 54.6875 
L 9.28125 54.6875 
L 9.28125 70.21875 
z
" id="DejaVuSans-74"/>
      <path d="M 8.5 21.578125 
L 8.5 54.6875 
L 17.484375 54.6875 
L 17.484375 21.921875 
Q 17.484375 14.15625 20.5 10.265625 
Q 23.53125 6.390625 29.59375 6.390625 
Q 36.859375 6.390625 41.078125 11.03125 
Q 45.3125 15.671875 45.3125 23.6875 
L 45.3125 54.6875 
L 54.296875 54.6875 
L 54.296875 0 
L 45.3125 0 
L 45.3125 8.40625 
Q 42.046875 3.421875 37.71875 1 
Q 33.40625 -1.421875 27.6875 -1.421875 
Q 18.265625 -1.421875 13.375 4.4375 
Q 8.5 10.296875 8.5 21.578125 
z
M 31.109375 56 
z
" id="DejaVuSans-75"/>
      <path d="M 11.71875 12.40625 
L 22.015625 12.40625 
L 22.015625 4 
L 14.015625 -11.625 
L 7.71875 -11.625 
L 11.71875 4 
z
" id="DejaVuSans-2c"/>
      <path d="M 18.109375 8.203125 
L 18.109375 -20.796875 
L 9.078125 -20.796875 
L 9.078125 54.6875 
L 18.109375 54.6875 
L 18.109375 46.390625 
Q 20.953125 51.265625 25.265625 53.625 
Q 29.59375 56 35.59375 56 
Q 45.5625 56 51.78125 48.09375 
Q 58.015625 40.1875 58.015625 27.296875 
Q 58.015625 14.40625 51.78125 6.484375 
Q 45.5625 -1.421875 35.59375 -1.421875 
Q 29.59375 -1.421875 25.265625 0.953125 
Q 20.953125 3.328125 18.109375 8.203125 
z
M 48.6875 27.296875 
Q 48.6875 37.203125 44.609375 42.84375 
Q 40.53125 48.484375 33.40625 48.484375 
Q 26.265625 48.484375 22.1875 42.84375 
Q 18.109375 37.203125 18.109375 27.296875 
Q 18.109375 17.390625 22.1875 11.75 
Q 26.265625 6.109375 33.40625 6.109375 
Q 40.53125 6.109375 44.609375 11.75 
Q 48.6875 17.390625 48.6875 27.296875 
z
" id="DejaVuSans-70"/>
     </defs>
     <g transform="translate(16.139531 294.999375)rotate(-90)scale(0.17 -0.17)">
      <use xlink:href="#DejaVuSans-46"/>
      <use x="57.410156" xlink:href="#DejaVuSans-72"/>
      <use x="98.523438" xlink:href="#DejaVuSans-61"/>
      <use x="159.802734" xlink:href="#DejaVuSans-63"/>
      <use x="214.783203" xlink:href="#DejaVuSans-74"/>
      <use x="253.992188" xlink:href="#DejaVuSans-69"/>
      <use x="281.775391" xlink:href="#DejaVuSans-6f"/>
      <use x="342.957031" xlink:href="#DejaVuSans-6e"/>
      <use x="406.335938" xlink:href="#DejaVuSans-20"/>
      <use x="438.123047" xlink:href="#DejaVuSans-6f"/>
      <use x="499.304688" xlink:href="#DejaVuSans-66"/>
      <use x="534.509766" xlink:href="#DejaVuSans-20"/>
      <use x="566.296875" xlink:href="#DejaVuSans-66"/>
      <use x="601.501953" xlink:href="#DejaVuSans-75"/>
      <use x="664.880859" xlink:href="#DejaVuSans-6e"/>
      <use x="728.259766" xlink:href="#DejaVuSans-63"/>
      <use x="783.240234" xlink:href="#DejaVuSans-74"/>
      <use x="822.449219" xlink:href="#DejaVuSans-69"/>
      <use x="850.232422" xlink:href="#DejaVuSans-6f"/>
      <use x="911.414062" xlink:href="#DejaVuSans-6e"/>
      <use x="974.792969" xlink:href="#DejaVuSans-2c"/>
      <use x="1006.580078" xlink:href="#DejaVuSans-74"/>
      <use x="1045.789062" xlink:href="#DejaVuSans-61"/>
      <use x="1107.068359" xlink:href="#DejaVuSans-72"/>
      <use x="1148.166016" xlink:href="#DejaVuSans-67"/>
      <use x="1211.642578" xlink:href="#DejaVuSans-65"/>
      <use x="1273.166016" xlink:href="#DejaVuSans-74"/>
      <use x="1312.375" xlink:href="#DejaVuSans-20"/>
      <use x="1344.162109" xlink:href="#DejaVuSans-70"/>
      <use x="1407.638672" xlink:href="#DejaVuSans-61"/>
      <use x="1468.917969" xlink:href="#DejaVuSans-69"/>
      <use x="1496.701172" xlink:href="#DejaVuSans-72"/>
      <use x="1537.814453" xlink:href="#DejaVuSans-73"/>
     </g>
    </g>
   </g>
   <g id="line2d_27">
    <defs>
     <path d="M 0 1.5 
C 0.397805 1.5 0.77937 1.341951 1.06066 1.06066 
C 1.341951 0.77937 1.5 0.397805 1.5 0 
C 1.5 -0.397805 1.341951 -0.77937 1.06066 -1.06066 
C 0.77937 -1.341951 0.397805 -1.5 0 -1.5 
C -0.397805 -1.5 -0.77937 -1.341951 -1.06066 -1.06066 
C -1.341951 -0.77937 -1.5 -0.397805 -1.5 0 
C -1.5 0.397805 -1.341951 0.77937 -1.06066 1.06066 
C -0.77937 1.341951 -0.397805 1.5 0 1.5 
z
" id="mb029e52ebf" style="stroke:#f5deb3;"/>
    </defs>
    <g>
     <use style="fill:#f5deb3;stroke:#f5deb3;" x="163.76502" xlink:href="#mb029e52ebf" y="27.513663"/>
     <use style="fill:#f5deb3;stroke:#f5deb3;" x="163.76502" xlink:href="#mb029e52ebf" y="27.513663"/>
    </g>
   </g>
   <g id="line2d_28">
    <defs>
     <path d="M 0 1.5 
C 0.397805 1.5 0.77937 1.341951 1.06066 1.06066 
C 1.341951 0.77937 1.5 0.397805 1.5 0 
C 1.5 -0.397805 1.341951 -0.77937 1.06066 -1.06066 
C 0.77937 -1.341951 0.397805 -1.5 0 -1.5 
C -0.397805 -1.5 -0.77937 -1.341951 -1.06066 -1.06066 
C -1.341951 -0.77937 -1.5 -0.397805 -1.5 0 
C -1.5 0.397805 -1.341951 0.77937 -1.06066 1.06066 
C -0.77937 1.341951 -0.397805 1.5 0 1.5 
z
" id="m0dfc9e4d55" style="stroke:#000080;"/>
    </defs>
    <g>
     <use style="fill:#000080;stroke:#000080;" x="308.68628" xlink:href="#m0dfc9e4d55" y="190.030456"/>
     <use style="fill:#000080;stroke:#000080;" x="308.68628" xlink:href="#m0dfc9e4d55" y="190.030456"/>
    </g>
   </g>
   <g id="line2d_29">
    <path d="M 175.297583 294.88 
L 175.297583 294.355752 
L 176.008424 294.355752 
L 176.111757 292.783009 
L 177.715225 292.783009 
L 177.715225 292.258761 
L 178.051052 292.258761 
L 178.051052 291.734514 
L 179.277258 291.734514 
L 179.277258 291.210266 
L 180.121659 291.210266 
L 180.121659 290.686018 
L 181.407398 290.686018 
L 181.407398 290.161771 
L 181.674505 290.161771 
L 181.674505 289.637523 
L 183.45693 289.637523 
L 183.45693 288.589027 
L 185.426119 288.589027 
L 185.42846 287.540532 
L 185.721925 287.540532 
L 185.721925 287.016284 
L 186.007298 287.016284 
L 186.007298 285.967789 
L 186.291801 285.967789 
L 186.291801 285.443541 
L 186.801297 285.443541 
L 186.869051 283.34655 
L 186.929889 283.34655 
L 186.999064 281.773807 
L 187.854189 281.773807 
L 187.854189 281.249559 
L 188.936529 281.249559 
L 188.994676 279.676816 
L 189.476619 279.676816 
L 189.476619 279.152568 
L 189.82162 279.152568 
L 189.82162 277.579825 
L 191.8479 277.579825 
L 191.952709 275.482834 
L 192.360041 275.482834 
L 192.360041 274.958587 
L 193.339261 274.958587 
L 193.339261 274.434339 
L 194.299748 274.434339 
L 194.299748 273.910091 
L 196.196974 273.910091 
L 196.233126 272.337348 
L 197.10145 272.337348 
L 197.134092 270.240357 
L 198.267119 270.240357 
L 198.267119 269.191862 
L 198.786263 269.191862 
L 198.827044 268.143366 
L 198.988569 268.143366 
L 198.988569 267.094871 
L 199.201148 267.094871 
L 199.267901 265.522128 
L 200.024128 265.522128 
L 200.024128 264.473632 
L 200.273044 264.473632 
L 200.273044 263.949385 
L 200.682447 263.949385 
L 200.77876 262.900889 
L 201.375916 262.900889 
L 201.43568 260.803898 
L 203.900235 260.803898 
L 203.900235 260.279651 
L 204.583762 260.279651 
L 204.583762 259.755403 
L 204.779916 259.755403 
L 204.779916 259.231155 
L 207.223044 259.231155 
L 207.223044 258.18266 
L 207.350296 258.18266 
L 207.350296 257.658412 
L 207.574626 257.658412 
L 207.65858 256.609917 
L 207.843734 256.609917 
L 207.843734 256.085669 
L 208.08079 256.085669 
L 208.08079 254.512926 
L 208.616836 254.512926 
L 208.616836 253.988678 
L 208.906593 253.988678 
L 208.906593 252.940182 
L 209.060486 252.940182 
L 209.060486 251.891687 
L 209.267874 251.891687 
L 209.267874 251.367439 
L 209.562802 251.367439 
L 209.562802 250.318944 
L 209.675356 250.318944 
L 209.675356 249.794696 
L 210.358806 249.794696 
L 210.358806 249.270448 
L 210.908536 249.270448 
L 210.942424 247.173458 
L 211.758348 247.173458 
L 211.758348 246.124962 
L 212.466987 246.124962 
L 212.466987 245.600714 
L 212.793791 245.600714 
L 212.833738 244.552219 
L 214.55732 244.552219 
L 214.588349 243.503724 
L 214.976215 243.503724 
L 215.048371 241.406733 
L 215.496046 241.406733 
L 215.496046 240.882485 
L 215.95895 240.882485 
L 215.95895 240.358237 
L 216.486909 240.358237 
L 216.486909 239.83399 
L 217.392778 239.83399 
L 217.392778 239.309742 
L 217.914729 239.309742 
L 217.914729 238.261246 
L 218.882008 238.261246 
L 218.882008 237.736999 
L 219.031378 237.736999 
L 219.031378 237.212751 
L 219.831742 237.212751 
L 219.85012 235.640008 
L 220.01097 235.640008 
L 220.01097 235.11576 
L 220.287677 235.11576 
L 220.387693 233.543017 
L 220.553987 233.543017 
L 220.553987 233.018769 
L 221.838263 233.018769 
L 221.838263 232.494521 
L 222.139155 232.494521 
L 222.139155 231.970274 
L 222.335093 231.970274 
L 222.335093 231.446026 
L 222.47399 231.446026 
L 222.47399 230.921778 
L 222.679127 230.921778 
L 222.753441 229.349035 
L 224.794869 229.349035 
L 224.794869 228.824787 
L 225.169207 228.824787 
L 225.169207 228.30054 
L 227.136208 228.30054 
L 227.136208 227.252044 
L 228.156948 227.252044 
L 228.156948 226.727797 
L 228.578664 226.727797 
L 228.578664 226.203549 
L 228.943125 226.203549 
L 228.943125 225.679301 
L 229.529623 225.679301 
L 229.529623 225.155053 
L 229.83474 225.155053 
L 229.83474 224.630806 
L 230.027604 224.630806 
L 230.027604 224.106558 
L 230.291498 224.106558 
L 230.291498 223.58231 
L 230.538683 223.58231 
L 230.538683 223.058063 
L 230.85253 223.058063 
L 230.85253 222.533815 
L 231.31608 222.533815 
L 231.31608 222.009567 
L 233.337139 222.009567 
L 233.438209 220.436824 
L 233.955011 220.436824 
L 233.955011 219.912576 
L 234.488661 219.912576 
L 234.488661 219.388328 
L 235.174018 219.388328 
L 235.174018 218.864081 
L 236.40258 218.864081 
L 236.40258 218.339833 
L 237.263857 218.339833 
L 237.263857 217.815585 
L 237.67981 217.815585 
L 237.67981 217.291338 
L 238.162515 217.291338 
L 238.162515 215.718594 
L 239.518497 215.718594 
L 239.518497 215.194347 
L 239.985482 215.194347 
L 239.985482 213.621604 
L 240.501031 213.621604 
L 240.501031 213.097356 
L 240.900774 213.097356 
L 240.900774 212.04886 
L 242.18095 212.04886 
L 242.18095 211.524613 
L 242.654822 211.524613 
L 242.654822 211.000365 
L 244.011436 211.000365 
L 244.011436 210.476117 
L 245.42839 210.476117 
L 245.42839 209.95187 
L 245.662894 209.95187 
L 245.662894 208.903374 
L 246.011137 208.903374 
L 246.011137 208.379126 
L 249.96441 208.379126 
L 249.96441 207.854879 
L 250.401533 207.854879 
L 250.401533 207.330631 
L 251.251698 207.330631 
L 251.251698 206.806383 
L 251.539256 206.806383 
L 251.539256 206.282136 
L 251.91078 206.282136 
L 251.91078 205.757888 
L 252.792239 205.757888 
L 252.792239 205.23364 
L 253.139067 205.23364 
L 253.142123 204.185145 
L 256.050674 204.185145 
L 256.050674 203.660897 
L 257.058176 203.660897 
L 257.058176 203.136649 
L 257.613577 203.136649 
L 257.613577 202.088154 
L 257.848526 202.088154 
L 257.848526 201.039658 
L 265.92278 201.039658 
L 265.92278 200.515411 
L 266.377565 200.515411 
L 266.377565 199.991163 
L 266.610244 199.991163 
L 266.610244 199.466915 
L 267.111324 199.466915 
L 267.111324 198.942667 
L 267.539493 198.942667 
L 267.539493 198.41842 
L 267.68753 198.41842 
L 267.68753 197.894172 
L 268.998253 197.894172 
L 268.998253 197.369924 
L 269.195835 197.369924 
L 269.195835 196.845677 
L 271.907889 196.845677 
L 271.907889 196.321429 
L 274.586333 196.321429 
L 274.586333 195.797181 
L 275.361805 195.797181 
L 275.361805 195.272933 
L 275.858819 195.272933 
L 275.858819 194.748686 
L 278.698208 194.748686 
L 278.698208 194.224438 
L 280.293668 194.224438 
L 280.293668 193.70019 
L 280.479339 193.70019 
L 280.479339 193.175943 
L 285.348228 193.175943 
L 285.348228 192.651695 
L 293.790501 192.651695 
L 293.790501 192.127447 
L 295.630689 192.127447 
L 295.630689 191.078952 
L 297.464494 191.078952 
L 297.464494 190.554704 
L 308.68628 190.554704 
L 308.68628 190.030456 
L 333.429677 190.030456 
L 333.429677 190.030456 
" style="fill:none;stroke:#000080;stroke-linecap:square;stroke-width:1.5;"/>
   </g>
   <g id="line2d_30">
    <defs>
     <path d="M 0 6 
C 1.591219 6 3.117479 5.367802 4.242641 4.242641 
C 5.367802 3.117479 6 1.591219 6 0 
C 6 -1.591219 5.367802 -3.117479 4.242641 -4.242641 
C 3.117479 -5.367802 1.591219 -6 0 -6 
C -1.591219 -6 -3.117479 -5.367802 -4.242641 -4.242641 
C -5.367802 -3.117479 -6 -1.591219 -6 0 
C -6 1.591219 -5.367802 3.117479 -4.242641 4.242641 
C -3.117479 5.367802 -1.591219 6 0 6 
z
" id="m12be8d9dd2" style="stroke:#000080;stroke-width:1.5;"/>
    </defs>
    <g>
     <use style="fill-opacity:0;stroke:#000080;stroke-width:1.5;" x="233.438209" xlink:href="#m12be8d9dd2" y="220.436824"/>
     <use style="fill-opacity:0;stroke:#000080;stroke-width:1.5;" x="308.68628" xlink:href="#m12be8d9dd2" y="190.554704"/>
     <use style="fill-opacity:0;stroke:#000080;stroke-width:1.5;" x="308.68628" xlink:href="#m12be8d9dd2" y="190.030456"/>
     <use style="fill-opacity:0;stroke:#000080;stroke-width:1.5;" x="333.429677" xlink:href="#m12be8d9dd2" y="190.030456"/>
    </g>
   </g>
   <g id="line2d_31">
    <path style="fill:none;stroke:#000080;stroke-linecap:square;stroke-width:1.5;"/>
    <g/>
   </g>
   <g id="line2d_32">
    <path clip-path="url(#p0837c5a562)" d="M 258.037496 201.039658 
" style="fill:none;stroke:#000080;stroke-linecap:square;stroke-width:1.5;"/>
    <defs>
     <path d="M -12 12 
L 12 -12 
M -12 -12 
L 12 12 
" id="mb4193e6a25" style="stroke:#000080;stroke-width:3;"/>
    </defs>
    <g clip-path="url(#p0837c5a562)">
     <use style="fill:#000080;stroke:#000080;stroke-width:3;" x="258.037496" xlink:href="#mb4193e6a25" y="201.039658"/>
    </g>
   </g>
   <g id="line2d_33">
    <defs>
     <path d="M 0 1.5 
C 0.397805 1.5 0.77937 1.341951 1.06066 1.06066 
C 1.341951 0.77937 1.5 0.397805 1.5 0 
C 1.5 -0.397805 1.341951 -0.77937 1.06066 -1.06066 
C 0.77937 -1.341951 0.397805 -1.5 0 -1.5 
C -0.397805 -1.5 -0.77937 -1.341951 -1.06066 -1.06066 
C -1.341951 -0.77937 -1.5 -0.397805 -1.5 0 
C -1.5 0.397805 -1.341951 0.77937 -1.06066 1.06066 
C -0.77937 1.341951 -0.397805 1.5 0 1.5 
z
" id="ma7d1d2604f" style="stroke:#ff00ff;"/>
    </defs>
    <g>
     <use style="fill:#ff00ff;stroke:#ff00ff;" x="244.582346" xlink:href="#ma7d1d2604f" y="27.513663"/>
     <use style="fill:#ff00ff;stroke:#ff00ff;" x="244.582346" xlink:href="#ma7d1d2604f" y="27.513663"/>
    </g>
   </g>
   <g id="line2d_34">
    <path d="M 150.616763 294.88 
L 150.616763 294.355752 
L 155.454349 294.355752 
L 155.454349 292.258761 
L 156.153905 292.258761 
L 156.203899 291.210266 
L 157.105327 291.210266 
L 157.105327 290.161771 
L 158.385376 290.161771 
L 158.385376 289.113275 
L 159.078239 289.113275 
L 159.078239 288.589027 
L 160.166262 288.589027 
L 160.166262 288.06478 
L 160.968759 288.06478 
L 160.968759 287.540532 
L 161.292708 287.540532 
L 161.292708 287.016284 
L 162.234902 287.016284 
L 162.234902 285.967789 
L 163.081026 285.967789 
L 163.081026 285.443541 
L 163.301894 285.443541 
L 163.301894 284.395046 
L 164.223236 284.395046 
L 164.223236 283.34655 
L 164.888847 283.34655 
L 164.888847 282.822302 
L 165.566843 282.822302 
L 165.566843 282.298055 
L 166.336732 282.298055 
L 166.336732 281.773807 
L 166.759798 281.773807 
L 166.759798 281.249559 
L 167.686624 281.249559 
L 167.686624 280.725312 
L 168.08326 280.725312 
L 168.08326 280.201064 
L 168.462172 280.201064 
L 168.462172 279.676816 
L 169.383104 279.676816 
L 169.428861 277.579825 
L 169.827171 277.579825 
L 169.827171 277.055578 
L 170.256671 277.055578 
L 170.256671 276.53133 
L 170.860724 276.53133 
L 170.860724 275.482834 
L 172.041875 275.482834 
L 172.041875 274.958587 
L 172.156207 274.958587 
L 172.156207 274.434339 
L 173.600093 274.434339 
L 173.600093 273.910091 
L 175.029688 273.910091 
L 175.101535 272.861596 
L 175.367902 272.861596 
L 175.428307 269.191862 
L 177.226987 269.191862 
L 177.226987 268.667614 
L 177.762454 268.667614 
L 177.762454 267.619119 
L 178.065786 267.619119 
L 178.065786 266.570623 
L 178.610986 266.570623 
L 178.610986 266.046375 
L 178.971902 266.046375 
L 178.971902 264.99788 
L 179.3087 264.99788 
L 179.3087 264.473632 
L 181.11503 264.473632 
L 181.167904 261.852394 
L 181.462332 261.852394 
L 181.462332 261.328146 
L 181.831647 261.328146 
L 181.831647 260.803898 
L 182.273837 260.803898 
L 182.273837 260.279651 
L 182.531802 260.279651 
L 182.531802 259.755403 
L 182.678591 259.755403 
L 182.678591 259.231155 
L 183.770481 259.231155 
L 183.770481 258.706907 
L 184.284112 258.706907 
L 184.284112 257.658412 
L 184.534057 257.658412 
L 184.534057 256.609917 
L 184.880793 256.609917 
L 184.880793 256.085669 
L 185.640933 256.085669 
L 185.714557 254.512926 
L 186.043938 254.512926 
L 186.043938 253.988678 
L 186.808214 253.988678 
L 186.808214 252.415935 
L 186.947048 252.415935 
L 186.947048 251.367439 
L 187.356324 251.367439 
L 187.356324 250.843192 
L 187.573499 250.843192 
L 187.573499 249.794696 
L 188.077257 249.794696 
L 188.077257 249.270448 
L 188.360973 249.270448 
L 188.360973 248.746201 
L 188.523703 248.746201 
L 188.609167 247.173458 
L 188.768613 247.173458 
L 188.874926 246.124962 
L 189.328483 246.124962 
L 189.328483 245.600714 
L 190.783544 245.600714 
L 190.783544 245.076467 
L 191.49078 245.076467 
L 191.586815 244.027971 
L 192.136505 244.027971 
L 192.148076 242.979476 
L 192.285066 242.979476 
L 192.347516 241.406733 
L 192.767432 241.406733 
L 192.767432 240.358237 
L 192.895803 240.358237 
L 193.002882 239.309742 
L 193.104953 239.309742 
L 193.104953 238.261246 
L 194.558565 238.261246 
L 194.558565 237.736999 
L 194.915973 237.736999 
L 194.937544 235.640008 
L 195.040578 235.640008 
L 195.040578 234.591512 
L 195.252751 234.591512 
L 195.252751 233.543017 
L 195.65287 233.543017 
L 195.65287 233.018769 
L 196.55598 233.018769 
L 196.55598 232.494521 
L 196.924703 232.494521 
L 196.926983 231.446026 
L 197.076124 231.446026 
L 197.076124 230.397531 
L 197.783401 230.397531 
L 197.886665 229.349035 
L 198.156847 229.349035 
L 198.196582 227.776292 
L 198.559295 227.776292 
L 198.559295 227.252044 
L 199.392318 227.252044 
L 199.392318 226.203549 
L 199.759141 226.203549 
L 199.759141 225.679301 
L 199.946862 225.679301 
L 199.946862 224.630806 
L 200.085771 224.630806 
L 200.085771 224.106558 
L 200.838719 224.106558 
L 200.863561 222.533815 
L 200.962001 222.533815 
L 200.982494 220.961072 
L 201.476084 220.961072 
L 201.476084 220.436824 
L 201.758004 220.436824 
L 201.758004 219.912576 
L 202.008423 219.912576 
L 202.008423 219.388328 
L 202.730134 219.388328 
L 202.826574 218.339833 
L 203.364267 218.339833 
L 203.399402 215.194347 
L 203.546745 215.194347 
L 203.546745 214.145851 
L 203.969241 214.145851 
L 204.071996 212.573108 
L 204.403852 212.573108 
L 204.456311 209.95187 
L 204.68598 209.95187 
L 204.757851 208.903374 
L 204.84655 208.903374 
L 204.84655 207.854879 
L 205.299255 207.854879 
L 205.299255 207.330631 
L 205.455908 207.330631 
L 205.528426 206.282136 
L 205.818557 206.282136 
L 205.818557 205.757888 
L 206.010971 205.757888 
L 206.100849 202.088154 
L 206.13511 202.088154 
L 206.13511 201.563906 
L 206.622829 201.563906 
L 206.622829 200.515411 
L 206.930755 200.515411 
L 206.950472 198.942667 
L 207.237683 198.942667 
L 207.301439 197.894172 
L 207.424137 197.894172 
L 207.424137 197.369924 
L 207.551534 197.369924 
L 207.586386 195.272933 
L 207.958404 195.272933 
L 207.96782 194.224438 
L 208.121601 194.224438 
L 208.126109 193.175943 
L 208.603933 193.175943 
L 208.603933 192.651695 
L 208.831591 192.651695 
L 208.905037 191.078952 
L 208.973286 191.078952 
L 209.073525 190.030456 
L 209.703937 190.030456 
L 209.712331 188.457713 
L 209.959443 188.457713 
L 210.020334 187.409218 
L 210.401857 187.409218 
L 210.417974 185.312227 
L 210.608631 185.312227 
L 210.608631 184.787979 
L 210.766621 184.787979 
L 210.766621 184.263731 
L 211.013018 184.263731 
L 211.039198 182.690988 
L 211.258023 182.690988 
L 211.258023 182.16674 
L 211.544653 182.16674 
L 211.624525 180.593997 
L 211.676855 180.593997 
L 211.760223 179.021254 
L 211.872668 179.021254 
L 211.891992 176.924263 
L 212.100795 176.924263 
L 212.136235 175.875768 
L 212.437778 175.875768 
L 212.437778 174.827272 
L 212.559785 174.827272 
L 212.559785 174.303025 
L 212.749923 174.303025 
L 212.777652 173.254529 
L 213.01354 173.254529 
L 213.01354 172.206034 
L 213.206585 172.206034 
L 213.206585 171.681786 
L 213.77346 171.681786 
L 213.843377 169.584795 
L 214.007779 169.584795 
L 214.007779 169.060547 
L 214.293013 169.060547 
L 214.293013 167.487804 
L 214.794021 167.487804 
L 214.874135 164.866566 
L 215.2508 164.866566 
L 215.2508 164.342318 
L 215.523311 164.342318 
L 215.600554 161.196832 
L 215.638661 161.196832 
L 215.694071 160.148336 
L 216.039087 160.148336 
L 216.039087 159.099841 
L 216.31575 159.099841 
L 216.31575 158.575593 
L 216.706143 158.575593 
L 216.706143 158.051345 
L 216.890791 158.051345 
L 216.928287 156.478602 
L 217.407749 156.478602 
L 217.407749 155.430107 
L 217.635412 155.430107 
L 217.660067 154.381611 
L 217.943729 154.381611 
L 217.943729 153.333116 
L 218.217882 153.333116 
L 218.27687 152.28462 
L 218.410607 152.28462 
L 218.410607 151.760373 
L 218.53716 151.760373 
L 218.53716 151.236125 
L 218.876915 151.236125 
L 218.89634 150.18763 
L 219.062535 150.18763 
L 219.062535 149.663382 
L 219.231638 149.663382 
L 219.231638 149.139134 
L 219.402313 149.139134 
L 219.407773 147.042143 
L 219.580321 147.042143 
L 219.629598 145.4694 
L 219.742427 145.4694 
L 219.804996 143.896657 
L 220.023327 143.896657 
L 220.023327 143.372409 
L 220.599646 143.372409 
L 220.599646 142.323914 
L 220.829644 142.323914 
L 220.918921 140.226923 
L 221.223112 140.226923 
L 221.288513 138.65418 
L 221.381733 138.65418 
L 221.443678 137.081437 
L 221.49533 137.081437 
L 221.604464 136.032941 
L 221.620986 136.032941 
L 221.632297 134.984446 
L 221.83197 134.984446 
L 221.935153 132.363207 
L 222.051771 132.363207 
L 222.051771 131.838959 
L 222.302088 131.838959 
L 222.302088 130.790464 
L 222.532537 130.790464 
L 222.532537 130.266216 
L 222.723561 130.266216 
L 222.736446 129.217721 
L 222.86232 129.217721 
L 222.86232 126.596482 
L 223.064824 126.596482 
L 223.13391 124.499491 
L 223.397955 124.499491 
L 223.460687 123.450996 
L 223.574583 123.450996 
L 223.66014 121.878253 
L 223.737167 121.878253 
L 223.737167 121.354005 
L 223.945743 121.354005 
L 224.055044 119.257014 
L 224.082354 119.257014 
L 224.082354 118.732766 
L 224.214621 118.732766 
L 224.214621 118.208519 
L 224.363355 118.208519 
L 224.411062 117.160023 
L 224.497863 117.160023 
L 224.590072 115.063032 
L 224.716145 115.063032 
L 224.747668 113.490289 
L 224.919573 113.490289 
L 224.919573 112.966042 
L 225.278144 112.966042 
L 225.367815 111.393298 
L 225.39133 111.393298 
L 225.481944 109.296308 
L 225.61359 109.296308 
L 225.61359 108.77206 
L 226.039735 108.77206 
L 226.13626 105.626573 
L 226.346273 105.626573 
L 226.430624 102.481087 
L 226.479529 102.481087 
L 226.507855 100.908344 
L 226.630455 100.908344 
L 226.730845 99.859849 
L 226.886852 99.859849 
L 226.915587 97.23861 
L 227.076678 97.23861 
L 227.076678 96.714362 
L 227.24287 96.714362 
L 227.331089 94.617371 
L 227.415798 94.617371 
L 227.508921 91.996133 
L 227.569281 91.996133 
L 227.569281 91.471885 
L 227.78652 91.471885 
L 227.887908 89.374894 
L 227.947787 89.374894 
L 228.054464 87.802151 
L 228.101499 87.802151 
L 228.146588 85.180912 
L 228.27001 85.180912 
L 228.27001 84.656665 
L 228.50682 84.656665 
L 228.50682 84.132417 
L 228.671179 84.132417 
L 228.741473 82.035426 
L 228.90891 82.035426 
L 228.90891 81.511178 
L 229.022616 81.511178 
L 229.022616 80.986931 
L 229.177356 80.986931 
L 229.177356 80.462683 
L 229.304907 80.462683 
L 229.304907 79.938435 
L 229.462483 79.938435 
L 229.560916 78.365692 
L 229.62701 78.365692 
L 229.62701 77.317197 
L 229.817822 77.317197 
L 229.817822 76.268701 
L 229.955467 76.268701 
L 229.955467 75.220206 
L 230.377844 75.220206 
L 230.462836 73.647463 
L 230.614046 73.647463 
L 230.614046 73.123215 
L 230.814663 73.123215 
L 230.814663 72.598967 
L 230.930092 72.598967 
L 230.930092 72.074719 
L 231.081786 72.074719 
L 231.093635 70.501976 
L 231.198832 70.501976 
L 231.287955 69.453481 
L 231.375499 69.453481 
L 231.449615 67.880738 
L 232.124796 67.880738 
L 232.124796 66.832242 
L 232.76611 66.832242 
L 232.76611 66.307995 
L 233.508506 66.307995 
L 233.508506 65.783747 
L 233.696207 65.783747 
L 233.696207 64.735251 
L 233.881616 64.735251 
L 233.881616 64.211004 
L 234.222126 64.211004 
L 234.222126 62.114013 
L 234.55204 62.114013 
L 234.55204 61.589765 
L 234.686381 61.589765 
L 234.745654 60.017022 
L 235.6655 60.017022 
L 235.758597 57.920031 
L 236.065595 57.920031 
L 236.142386 56.347288 
L 236.285205 56.347288 
L 236.361935 55.298792 
L 237.004803 55.298792 
L 237.004803 54.774545 
L 237.467074 54.774545 
L 237.48415 53.726049 
L 237.792852 53.726049 
L 237.836592 51.629058 
L 237.993415 51.629058 
L 237.993415 51.104811 
L 238.118819 51.104811 
L 238.188821 48.483572 
L 238.272602 48.483572 
L 238.272602 47.435077 
L 238.412033 47.435077 
L 238.412033 46.910829 
L 238.607771 46.910829 
L 238.607771 45.862334 
L 238.749148 45.862334 
L 238.751175 43.765343 
L 238.959047 43.765343 
L 239.026842 42.192599 
L 239.223102 42.192599 
L 239.239158 40.619856 
L 239.424257 40.619856 
L 239.520274 39.047113 
L 239.70144 39.047113 
L 239.70144 37.998618 
L 239.826161 37.998618 
L 239.826161 37.47437 
L 239.974385 37.47437 
L 239.974385 36.425875 
L 240.12415 36.425875 
L 240.179462 34.328884 
L 240.556135 34.328884 
L 240.556135 33.280388 
L 240.869815 33.280388 
L 240.869815 32.231893 
L 241.105972 32.231893 
L 241.200846 30.65915 
L 241.303711 30.65915 
L 241.303711 30.134902 
L 241.51336 30.134902 
L 241.51336 29.610654 
L 241.732145 29.610654 
L 241.732145 29.086407 
L 242.085265 29.086407 
L 242.085265 28.562159 
L 243.57842 28.562159 
L 243.57842 28.037911 
L 244.582346 28.037911 
L 244.582346 27.513663 
L 333.429677 27.513663 
L 333.429677 27.513663 
" style="fill:none;stroke:#ff00ff;stroke-linecap:square;stroke-width:1.5;"/>
   </g>
   <g id="line2d_35">
    <defs>
     <path d="M -0 8.485281 
L 5.091169 0 
L 0 -8.485281 
L -5.091169 -0 
z
" id="m9f3c07219c" style="stroke:#ff00ff;stroke-linejoin:miter;stroke-width:1.5;"/>
    </defs>
    <g>
     <use style="fill-opacity:0;stroke:#ff00ff;stroke-linejoin:miter;stroke-width:1.5;" x="202.826574" xlink:href="#m9f3c07219c" y="218.864081"/>
     <use style="fill-opacity:0;stroke:#ff00ff;stroke-linejoin:miter;stroke-width:1.5;" x="244.582346" xlink:href="#m9f3c07219c" y="28.037911"/>
     <use style="fill-opacity:0;stroke:#ff00ff;stroke-linejoin:miter;stroke-width:1.5;" x="244.582346" xlink:href="#m9f3c07219c" y="27.513663"/>
     <use style="fill-opacity:0;stroke:#ff00ff;stroke-linejoin:miter;stroke-width:1.5;" x="333.429677" xlink:href="#m9f3c07219c" y="27.513663"/>
    </g>
   </g>
   <g id="line2d_36">
    <path style="fill:none;stroke:#ff00ff;stroke-linecap:square;stroke-width:1.5;"/>
    <g/>
   </g>
   <g id="line2d_37">
    <defs>
     <path d="M 0 1.5 
C 0.397805 1.5 0.77937 1.341951 1.06066 1.06066 
C 1.341951 0.77937 1.5 0.397805 1.5 0 
C 1.5 -0.397805 1.341951 -0.77937 1.06066 -1.06066 
C 0.77937 -1.341951 0.397805 -1.5 0 -1.5 
C -0.397805 -1.5 -0.77937 -1.341951 -1.06066 -1.06066 
C -1.341951 -0.77937 -1.5 -0.397805 -1.5 0 
C -1.5 0.397805 -1.341951 0.77937 -1.06066 1.06066 
C -0.77937 1.341951 -0.397805 1.5 0 1.5 
z
" id="m4c0fda50dc" style="stroke:#ffa500;"/>
    </defs>
    <g>
     <use style="fill:#ffa500;stroke:#ffa500;" x="318.188532" xlink:href="#m4c0fda50dc" y="273.910091"/>
     <use style="fill:#ffa500;stroke:#ffa500;" x="318.188532" xlink:href="#m4c0fda50dc" y="273.910091"/>
    </g>
   </g>
   <g id="line2d_38">
    <path d="M 209.693482 294.88 
L 209.693482 294.355752 
L 209.897319 294.355752 
L 209.897319 292.783009 
L 211.329831 292.783009 
L 211.329831 292.258761 
L 212.783813 292.258761 
L 212.783813 291.734514 
L 213.153853 291.734514 
L 213.153853 290.686018 
L 213.702985 290.686018 
L 213.702985 290.161771 
L 215.598648 290.161771 
L 215.598648 289.637523 
L 218.096419 289.637523 
L 218.096419 289.113275 
L 218.540851 289.113275 
L 218.540851 288.06478 
L 219.14119 288.06478 
L 219.14119 287.540532 
L 219.821753 287.540532 
L 219.821753 287.016284 
L 221.862649 287.016284 
L 221.862649 286.492036 
L 223.833382 286.492036 
L 223.833382 285.967789 
L 229.34398 285.967789 
L 229.34398 285.443541 
L 255.682161 285.443541 
L 255.682161 284.919293 
L 256.386075 284.919293 
L 256.386075 284.395046 
L 256.642885 284.395046 
L 256.642885 283.870798 
L 257.841452 283.870798 
L 257.841452 283.34655 
L 266.881747 283.34655 
L 266.881747 282.822302 
L 266.897859 282.822302 
L 266.897859 282.298055 
L 267.147912 282.298055 
L 267.147912 281.773807 
L 267.252462 281.773807 
L 267.252462 281.249559 
L 268.041649 281.249559 
L 268.041649 280.725312 
L 273.628847 280.725312 
L 273.628847 280.201064 
L 282.316251 280.201064 
L 282.316251 279.676816 
L 282.348873 279.676816 
L 282.348873 278.628321 
L 282.681458 278.628321 
L 282.681458 278.104073 
L 294.029211 278.104073 
L 294.029211 277.579825 
L 298.506477 277.579825 
L 298.506477 277.055578 
L 301.058381 277.055578 
L 301.058381 276.53133 
L 302.152105 276.53133 
L 302.152105 276.007082 
L 305.941204 276.007082 
L 305.941204 275.482834 
L 309.74021 275.482834 
L 309.74021 274.958587 
L 313.952197 274.958587 
L 313.952197 274.434339 
L 318.188532 274.434339 
L 318.188532 273.910091 
L 333.429677 273.910091 
" style="fill:none;stroke:#ffa500;stroke-linecap:square;stroke-width:1.5;"/>
   </g>
   <g id="line2d_39">
    <defs>
     <path d="M 0 -6 
L -1.347084 -1.854102 
L -5.706339 -1.854102 
L -2.179628 0.708204 
L -3.526712 4.854102 
L -0 2.291796 
L 3.526712 4.854102 
L 2.179628 0.708204 
L 5.706339 -1.854102 
L 1.347084 -1.854102 
z
" id="m5849607a4d" style="stroke:#ffa500;stroke-linejoin:bevel;stroke-width:1.5;"/>
    </defs>
    <g>
     <use style="fill-opacity:0;stroke:#ffa500;stroke-linejoin:bevel;stroke-width:1.5;" x="229.34398" xlink:href="#m5849607a4d" y="285.967789"/>
     <use style="fill-opacity:0;stroke:#ffa500;stroke-linejoin:bevel;stroke-width:1.5;" x="273.628847" xlink:href="#m5849607a4d" y="280.201064"/>
     <use style="fill-opacity:0;stroke:#ffa500;stroke-linejoin:bevel;stroke-width:1.5;" x="318.188532" xlink:href="#m5849607a4d" y="273.910091"/>
     <use style="fill-opacity:0;stroke:#ffa500;stroke-linejoin:bevel;stroke-width:1.5;" x="333.429677" xlink:href="#m5849607a4d" y="273.910091"/>
    </g>
   </g>
   <g id="line2d_40">
    <path style="fill:none;stroke:#ffa500;stroke-linecap:square;stroke-width:1.5;"/>
    <g/>
   </g>
   <g id="line2d_41">
    <path clip-path="url(#p0837c5a562)" d="M 254.198341 285.443541 
" style="fill:none;stroke:#ffa500;stroke-linecap:square;stroke-width:1.5;"/>
    <defs>
     <path d="M -12 12 
L 12 -12 
M -12 -12 
L 12 12 
" id="maa9838f23e" style="stroke:#ffa500;stroke-width:3;"/>
    </defs>
    <g clip-path="url(#p0837c5a562)">
     <use style="fill:#ffa500;stroke:#ffa500;stroke-width:3;" x="254.198341" xlink:href="#maa9838f23e" y="285.443541"/>
    </g>
   </g>
   <g id="line2d_42">
    <defs>
     <path d="M 0 1.5 
C 0.397805 1.5 0.77937 1.341951 1.06066 1.06066 
C 1.341951 0.77937 1.5 0.397805 1.5 0 
C 1.5 -0.397805 1.341951 -0.77937 1.06066 -1.06066 
C 0.77937 -1.341951 0.397805 -1.5 0 -1.5 
C -0.397805 -1.5 -0.77937 -1.341951 -1.06066 -1.06066 
C -1.341951 -0.77937 -1.5 -0.397805 -1.5 0 
C -1.5 0.397805 -1.341951 0.77937 -1.06066 1.06066 
C -0.77937 1.341951 -0.397805 1.5 0 1.5 
z
" id="m8054172995" style="stroke:#ff0000;"/>
    </defs>
    <g>
     <use style="fill:#ff0000;stroke:#ff0000;" x="291.016051" xlink:href="#m8054172995" y="163.81807"/>
     <use style="fill:#ff0000;stroke:#ff0000;" x="291.016051" xlink:href="#m8054172995" y="163.81807"/>
    </g>
   </g>
   <g id="line2d_43">
    <path d="M 128.065045 294.88 
L 128.065045 293.831505 
L 130.118472 293.831505 
L 130.118472 293.307257 
L 132.458806 293.307257 
L 132.458806 292.783009 
L 136.215325 292.783009 
L 136.215325 292.258761 
L 140.704707 292.258761 
L 140.704707 291.734514 
L 141.118777 291.734514 
L 141.118777 291.210266 
L 142.704518 291.210266 
L 142.704518 290.686018 
L 144.979451 290.686018 
L 145.013826 289.113275 
L 148.902949 289.113275 
L 149.010229 287.540532 
L 155.040276 287.540532 
L 155.040276 287.016284 
L 156.444139 287.016284 
L 156.533528 285.967789 
L 158.708204 285.967789 
L 158.708204 285.443541 
L 163.350968 285.443541 
L 163.350968 284.919293 
L 163.556736 284.919293 
L 163.610084 283.34655 
L 164.319344 283.34655 
L 164.319344 282.298055 
L 166.523939 282.298055 
L 166.523939 281.249559 
L 167.366478 281.249559 
L 167.366478 280.201064 
L 168.852566 280.201064 
L 168.852566 279.676816 
L 169.584236 279.676816 
L 169.584236 279.152568 
L 170.075299 279.152568 
L 170.075299 278.628321 
L 171.084784 278.628321 
L 171.110636 277.055578 
L 171.299044 277.055578 
L 171.299044 276.007082 
L 171.857349 276.007082 
L 171.857349 275.482834 
L 173.116015 275.482834 
L 173.202016 273.910091 
L 173.924396 273.910091 
L 173.924396 272.861596 
L 174.585591 272.861596 
L 174.672445 270.764605 
L 177.250733 270.764605 
L 177.250733 269.716109 
L 178.123883 269.716109 
L 178.123883 269.191862 
L 179.831701 269.191862 
L 179.903197 268.143366 
L 180.028006 268.143366 
L 180.028006 267.619119 
L 180.682071 267.619119 
L 180.682071 267.094871 
L 181.018174 267.094871 
L 181.018174 266.570623 
L 181.632805 266.570623 
L 181.632805 264.473632 
L 182.584923 264.473632 
L 182.652195 263.425137 
L 182.707689 263.425137 
L 182.707689 262.900889 
L 182.963061 262.900889 
L 182.963061 262.376641 
L 183.233329 262.376641 
L 183.233329 260.279651 
L 183.495488 260.279651 
L 183.495488 259.231155 
L 183.845866 259.231155 
L 183.845866 258.18266 
L 185.290691 258.18266 
L 185.290691 257.658412 
L 185.522337 257.658412 
L 185.522337 257.134164 
L 185.919224 257.134164 
L 185.919224 256.609917 
L 186.93418 256.609917 
L 186.93418 256.085669 
L 187.344178 256.085669 
L 187.400229 253.988678 
L 188.246457 253.988678 
L 188.246457 253.46443 
L 188.76572 253.46443 
L 188.76572 252.940182 
L 189.217807 252.940182 
L 189.217807 252.415935 
L 190.277536 252.415935 
L 190.277536 251.891687 
L 191.335168 251.891687 
L 191.335168 251.367439 
L 191.905688 251.367439 
L 191.952869 250.318944 
L 193.326097 250.318944 
L 193.402426 249.270448 
L 193.539175 249.270448 
L 193.539175 248.221953 
L 193.758594 248.221953 
L 193.758594 247.697705 
L 194.880862 247.697705 
L 194.907337 245.076467 
L 195.19617 245.076467 
L 195.19617 244.027971 
L 195.765079 244.027971 
L 195.869543 242.979476 
L 196.656862 242.979476 
L 196.656862 241.93098 
L 197.602827 241.93098 
L 197.602827 241.406733 
L 198.244454 241.406733 
L 198.264232 240.358237 
L 198.583294 240.358237 
L 198.583294 239.83399 
L 198.709821 239.83399 
L 198.709821 238.785494 
L 199.645046 238.785494 
L 199.645046 237.736999 
L 199.959747 237.736999 
L 199.959747 237.212751 
L 200.887604 237.212751 
L 200.887604 236.688503 
L 201.3205 236.688503 
L 201.3205 235.640008 
L 201.96164 235.640008 
L 201.96164 234.591512 
L 202.386307 234.591512 
L 202.386307 234.067265 
L 203.025931 234.067265 
L 203.025931 233.018769 
L 203.536858 233.018769 
L 203.536858 232.494521 
L 203.653265 232.494521 
L 203.653265 231.446026 
L 203.92998 231.446026 
L 203.92998 230.921778 
L 204.116151 230.921778 
L 204.116151 230.397531 
L 204.276231 230.397531 
L 204.276231 229.873283 
L 205.465556 229.873283 
L 205.465556 229.349035 
L 206.021444 229.349035 
L 206.021444 228.30054 
L 206.317916 228.30054 
L 206.317916 227.776292 
L 206.669902 227.776292 
L 206.669902 227.252044 
L 206.956034 227.252044 
L 206.956034 226.727797 
L 207.577276 226.727797 
L 207.577276 225.679301 
L 207.780364 225.679301 
L 207.780364 224.630806 
L 208.334117 224.630806 
L 208.334117 224.106558 
L 208.512179 224.106558 
L 208.604724 222.533815 
L 209.115952 222.533815 
L 209.115952 221.485319 
L 209.403479 221.485319 
L 209.403479 220.436824 
L 209.993005 220.436824 
L 209.993005 219.912576 
L 210.138077 219.912576 
L 210.138077 219.388328 
L 210.405586 219.388328 
L 210.405586 218.864081 
L 210.756041 218.864081 
L 210.756041 218.339833 
L 210.889195 218.339833 
L 210.889195 216.76709 
L 211.081742 216.76709 
L 211.1535 215.194347 
L 211.729026 215.194347 
L 211.729026 214.670099 
L 211.845105 214.670099 
L 211.938501 212.04886 
L 212.315733 212.04886 
L 212.315733 211.524613 
L 212.575259 211.524613 
L 212.575259 211.000365 
L 212.733264 211.000365 
L 212.733264 210.476117 
L 212.866798 210.476117 
L 212.866798 209.95187 
L 213.239541 209.95187 
L 213.309806 208.903374 
L 213.611026 208.903374 
L 213.611026 208.379126 
L 213.743814 208.379126 
L 213.743814 207.854879 
L 214.030446 207.854879 
L 214.030446 207.330631 
L 214.265608 207.330631 
L 214.265608 206.282136 
L 214.421745 206.282136 
L 214.421745 205.757888 
L 219.632228 205.757888 
L 219.632228 205.23364 
L 220.988806 205.23364 
L 221.039772 203.136649 
L 222.063386 203.136649 
L 222.115463 202.088154 
L 222.490187 202.088154 
L 222.490187 201.563906 
L 222.676037 201.563906 
L 222.754699 199.991163 
L 222.939925 199.991163 
L 222.939925 199.466915 
L 223.114065 199.466915 
L 223.114065 198.942667 
L 223.282724 198.942667 
L 223.282724 198.41842 
L 223.520889 198.41842 
L 223.520889 197.369924 
L 223.751763 197.369924 
L 223.751763 196.845677 
L 224.365962 196.845677 
L 224.42903 195.272933 
L 225.140474 195.272933 
L 225.165883 193.70019 
L 225.41204 193.70019 
L 225.41204 193.175943 
L 225.608334 193.175943 
L 225.608334 192.651695 
L 226.029234 192.651695 
L 226.029234 192.127447 
L 230.649228 192.127447 
L 230.649228 191.603199 
L 231.297367 191.603199 
L 231.297367 191.078952 
L 231.642499 191.078952 
L 231.642499 190.554704 
L 232.415306 190.554704 
L 232.502291 189.506209 
L 232.601037 189.506209 
L 232.601037 188.981961 
L 235.082137 188.981961 
L 235.082137 188.457713 
L 235.336969 188.457713 
L 235.336969 187.933465 
L 235.904587 187.933465 
L 235.904587 187.409218 
L 236.354449 187.409218 
L 236.354449 186.88497 
L 236.74192 186.88497 
L 236.74192 186.360722 
L 236.896454 186.360722 
L 237.004815 185.312227 
L 237.395917 185.312227 
L 237.395917 184.787979 
L 237.553858 184.787979 
L 237.581993 183.739484 
L 237.775644 183.739484 
L 237.775644 182.690988 
L 237.989664 182.690988 
L 237.989664 182.16674 
L 240.086037 182.16674 
L 240.086037 181.642493 
L 240.280188 181.642493 
L 240.280188 181.118245 
L 241.054248 181.118245 
L 241.054248 180.593997 
L 241.222677 180.593997 
L 241.222677 180.06975 
L 241.354319 180.06975 
L 241.447702 179.021254 
L 241.690487 179.021254 
L 241.748444 177.448511 
L 241.918553 177.448511 
L 241.918553 176.924263 
L 244.422831 176.924263 
L 244.422831 176.400016 
L 244.724827 176.400016 
L 244.828148 175.35152 
L 244.92575 175.35152 
L 244.92575 174.827272 
L 245.135334 174.827272 
L 245.135334 174.303025 
L 245.382974 174.303025 
L 245.382974 173.778777 
L 247.379431 173.778777 
L 247.379431 173.254529 
L 247.708078 173.254529 
L 247.708078 172.730281 
L 249.92492 172.730281 
L 249.92492 172.206034 
L 253.951517 172.206034 
L 254.022133 171.157538 
L 255.552989 171.157538 
L 255.552989 170.633291 
L 255.678029 170.633291 
L 255.678029 170.109043 
L 258.490656 170.109043 
L 258.490656 169.584795 
L 259.975896 169.584795 
L 259.975896 169.060547 
L 260.859265 169.060547 
L 260.859265 168.5363 
L 261.163672 168.5363 
L 261.163672 168.012052 
L 264.302271 168.012052 
L 264.302271 166.963557 
L 265.727295 166.963557 
L 265.727295 166.439309 
L 266.955685 166.439309 
L 266.955685 165.915061 
L 269.254029 165.915061 
L 269.254029 165.390813 
L 273.09452 165.390813 
L 273.09452 164.866566 
L 276.094595 164.866566 
L 276.094595 164.342318 
L 291.016051 164.342318 
L 291.016051 163.81807 
L 333.429677 163.81807 
L 333.429677 163.81807 
" style="fill:none;stroke:#ff0000;stroke-linecap:square;stroke-width:1.5;"/>
   </g>
   <g id="line2d_44">
    <defs>
     <path d="M 0 -6 
L -5.196152 -3 
L -5.196152 3 
L -0 6 
L 5.196152 3 
L 5.196152 -3 
z
" id="m4878faf1de" style="stroke:#ff0000;stroke-linejoin:miter;stroke-width:1.5;"/>
    </defs>
    <g>
     <use style="fill-opacity:0;stroke:#ff0000;stroke-linejoin:miter;stroke-width:1.5;" x="183.233329" xlink:href="#m4878faf1de" y="260.279651"/>
     <use style="fill-opacity:0;stroke:#ff0000;stroke-linejoin:miter;stroke-width:1.5;" x="223.520889" xlink:href="#m4878faf1de" y="198.41842"/>
     <use style="fill-opacity:0;stroke:#ff0000;stroke-linejoin:miter;stroke-width:1.5;" x="291.016051" xlink:href="#m4878faf1de" y="164.342318"/>
     <use style="fill-opacity:0;stroke:#ff0000;stroke-linejoin:miter;stroke-width:1.5;" x="291.016051" xlink:href="#m4878faf1de" y="163.81807"/>
     <use style="fill-opacity:0;stroke:#ff0000;stroke-linejoin:miter;stroke-width:1.5;" x="333.429677" xlink:href="#m4878faf1de" y="163.81807"/>
    </g>
   </g>
   <g id="line2d_45">
    <path style="fill:none;stroke:#ff0000;stroke-linecap:square;stroke-width:1.5;"/>
    <g/>
   </g>
   <g id="line2d_46">
    <path clip-path="url(#p0837c5a562)" d="M 214.582716 205.757888 
" style="fill:none;stroke:#ff0000;stroke-linecap:square;stroke-width:1.5;"/>
    <defs>
     <path d="M -12 12 
L 12 -12 
M -12 -12 
L 12 12 
" id="m4f39f7dafb" style="stroke:#ff0000;stroke-width:3;"/>
    </defs>
    <g clip-path="url(#p0837c5a562)">
     <use style="fill:#ff0000;stroke:#ff0000;stroke-width:3;" x="214.582716" xlink:href="#m4f39f7dafb" y="205.757888"/>
    </g>
   </g>
   <g id="line2d_47">
    <path d="M 333.429677 273.910091 
L 363.933742 289.532673 
" style="fill:none;stroke:#ffa500;stroke-linecap:square;stroke-width:1.5;"/>
    <g>
     <use style="fill-opacity:0;stroke:#ffa500;stroke-linejoin:bevel;stroke-width:1.5;" x="333.429677" xlink:href="#m5849607a4d" y="273.910091"/>
     <use style="fill-opacity:0;stroke:#ffa500;stroke-linejoin:bevel;stroke-width:1.5;" x="363.933742" xlink:href="#m5849607a4d" y="289.532673"/>
    </g>
   </g>
   <g id="line2d_48">
    <path d="M 333.429677 190.030456 
L 363.933742 225.364752 
" style="fill:none;stroke:#000080;stroke-linecap:square;stroke-width:1.5;"/>
    <g>
     <use style="fill-opacity:0;stroke:#000080;stroke-width:1.5;" x="333.429677" xlink:href="#m12be8d9dd2" y="190.030456"/>
     <use style="fill-opacity:0;stroke:#000080;stroke-width:1.5;" x="363.933742" xlink:href="#m12be8d9dd2" y="225.364752"/>
    </g>
   </g>
   <g id="line2d_49">
    <path d="M 333.429677 163.81807 
L 363.933742 161.196832 
" style="fill:none;stroke:#ff0000;stroke-linecap:square;stroke-width:1.5;"/>
    <g>
     <use style="fill-opacity:0;stroke:#ff0000;stroke-linejoin:miter;stroke-width:1.5;" x="333.429677" xlink:href="#m4878faf1de" y="163.81807"/>
     <use style="fill-opacity:0;stroke:#ff0000;stroke-linejoin:miter;stroke-width:1.5;" x="363.933742" xlink:href="#m4878faf1de" y="161.196832"/>
    </g>
   </g>
   <g id="line2d_50">
    <path d="M 333.429677 27.513663 
L 363.933742 97.028911 
" style="fill:none;stroke:#ff00ff;stroke-linecap:square;stroke-width:1.5;"/>
    <g>
     <use style="fill-opacity:0;stroke:#ff00ff;stroke-linejoin:miter;stroke-width:1.5;" x="333.429677" xlink:href="#m9f3c07219c" y="27.513663"/>
     <use style="fill-opacity:0;stroke:#ff00ff;stroke-linejoin:miter;stroke-width:1.5;" x="363.933742" xlink:href="#m9f3c07219c" y="97.028911"/>
    </g>
   </g>
   <g id="line2d_51">
    <path d="M 333.429677 294.88 
L 333.429677 27.513663 
" style="fill:none;stroke:#000000;stroke-linecap:square;stroke-width:1.5;"/>
   </g>
   <g id="patch_3">
    <path d="M 56.12 294.88 
L 56.12 24.84 
" style="fill:none;stroke:#000000;stroke-linecap:square;stroke-linejoin:miter;stroke-width:0.8;"/>
   </g>
   <g id="patch_4">
    <path d="M 399.984 294.88 
L 399.984 24.84 
" style="fill:none;stroke:#000000;stroke-linecap:square;stroke-linejoin:miter;stroke-width:0.8;"/>
   </g>
   <g id="patch_5">
    <path d="M 56.12 294.88 
L 399.984 294.88 
" style="fill:none;stroke:#000000;stroke-linecap:square;stroke-linejoin:miter;stroke-width:0.8;"/>
   </g>
   <g id="patch_6">
    <path d="M 56.12 24.84 
L 399.984 24.84 
" style="fill:none;stroke:#000000;stroke-linecap:square;stroke-linejoin:miter;stroke-width:0.8;"/>
   </g>
   <g id="text_14">
    <!-- GA -->
    <defs>
     <path d="M 59.515625 10.40625 
L 59.515625 29.984375 
L 43.40625 29.984375 
L 43.40625 38.09375 
L 69.28125 38.09375 
L 69.28125 6.78125 
Q 63.578125 2.734375 56.6875 0.65625 
Q 49.8125 -1.421875 42 -1.421875 
Q 24.90625 -1.421875 15.25 8.5625 
Q 5.609375 18.5625 5.609375 36.375 
Q 5.609375 54.25 15.25 64.234375 
Q 24.90625 74.21875 42 74.21875 
Q 49.125 74.21875 55.546875 72.453125 
Q 61.96875 70.703125 67.390625 67.28125 
L 67.390625 56.78125 
Q 61.921875 61.421875 55.765625 63.765625 
Q 49.609375 66.109375 42.828125 66.109375 
Q 29.4375 66.109375 22.71875 58.640625 
Q 16.015625 51.171875 16.015625 36.375 
Q 16.015625 21.625 22.71875 14.15625 
Q 29.4375 6.6875 42.828125 6.6875 
Q 48.046875 6.6875 52.140625 7.59375 
Q 56.25 8.5 59.515625 10.40625 
z
" id="DejaVuSans-47"/>
     <path d="M 34.1875 63.1875 
L 20.796875 26.90625 
L 47.609375 26.90625 
z
M 28.609375 72.90625 
L 39.796875 72.90625 
L 67.578125 0 
L 57.328125 0 
L 50.6875 18.703125 
L 17.828125 18.703125 
L 11.1875 0 
L 0.78125 0 
z
" id="DejaVuSans-41"/>
    </defs>
    <g transform="translate(369.479935 294.223611)scale(0.17 -0.17)">
     <use xlink:href="#DejaVuSans-47"/>
     <use x="77.490234" xlink:href="#DejaVuSans-41"/>
    </g>
   </g>
   <g id="text_15">
    <!-- ALPS -->
    <defs>
     <path d="M 9.8125 72.90625 
L 19.671875 72.90625 
L 19.671875 8.296875 
L 55.171875 8.296875 
L 55.171875 0 
L 9.8125 0 
z
" id="DejaVuSans-4c"/>
     <path d="M 19.671875 64.796875 
L 19.671875 37.40625 
L 32.078125 37.40625 
Q 38.96875 37.40625 42.71875 40.96875 
Q 46.484375 44.53125 46.484375 51.125 
Q 46.484375 57.671875 42.71875 61.234375 
Q 38.96875 64.796875 32.078125 64.796875 
z
M 9.8125 72.90625 
L 32.078125 72.90625 
Q 44.34375 72.90625 50.609375 67.359375 
Q 56.890625 61.8125 56.890625 51.125 
Q 56.890625 40.328125 50.609375 34.8125 
Q 44.34375 29.296875 32.078125 29.296875 
L 19.671875 29.296875 
L 19.671875 0 
L 9.8125 0 
z
" id="DejaVuSans-50"/>
     <path d="M 53.515625 70.515625 
L 53.515625 60.890625 
Q 47.90625 63.578125 42.921875 64.890625 
Q 37.9375 66.21875 33.296875 66.21875 
Q 25.25 66.21875 20.875 63.09375 
Q 16.5 59.96875 16.5 54.203125 
Q 16.5 49.359375 19.40625 46.890625 
Q 22.3125 44.4375 30.421875 42.921875 
L 36.375 41.703125 
Q 47.40625 39.59375 52.65625 34.296875 
Q 57.90625 29 57.90625 20.125 
Q 57.90625 9.515625 50.796875 4.046875 
Q 43.703125 -1.421875 29.984375 -1.421875 
Q 24.8125 -1.421875 18.96875 -0.25 
Q 13.140625 0.921875 6.890625 3.21875 
L 6.890625 13.375 
Q 12.890625 10.015625 18.65625 8.296875 
Q 24.421875 6.59375 29.984375 6.59375 
Q 38.421875 6.59375 43.015625 9.90625 
Q 47.609375 13.234375 47.609375 19.390625 
Q 47.609375 24.75 44.3125 27.78125 
Q 41.015625 30.8125 33.5 32.328125 
L 27.484375 33.5 
Q 16.453125 35.6875 11.515625 40.375 
Q 6.59375 45.0625 6.59375 53.421875 
Q 6.59375 63.09375 13.40625 68.65625 
Q 20.21875 74.21875 32.171875 74.21875 
Q 37.3125 74.21875 42.625 73.28125 
Q 47.953125 72.359375 53.515625 70.515625 
z
" id="DejaVuSans-53"/>
    </defs>
    <g transform="translate(369.479935 230.05569)scale(0.17 -0.17)">
     <use xlink:href="#DejaVuSans-41"/>
     <use x="68.408203" xlink:href="#DejaVuSans-4c"/>
     <use x="124.121094" xlink:href="#DejaVuSans-50"/>
     <use x="184.423828" xlink:href="#DejaVuSans-53"/>
    </g>
   </g>
   <g id="text_16">
    <!-- Rosenbroc -->
    <defs>
     <path d="M 44.390625 34.1875 
Q 47.5625 33.109375 50.5625 29.59375 
Q 53.5625 26.078125 56.59375 19.921875 
L 66.609375 0 
L 56 0 
L 46.6875 18.703125 
Q 43.0625 26.03125 39.671875 28.421875 
Q 36.28125 30.8125 30.421875 30.8125 
L 19.671875 30.8125 
L 19.671875 0 
L 9.8125 0 
L 9.8125 72.90625 
L 32.078125 72.90625 
Q 44.578125 72.90625 50.734375 67.671875 
Q 56.890625 62.453125 56.890625 51.90625 
Q 56.890625 45.015625 53.6875 40.46875 
Q 50.484375 35.9375 44.390625 34.1875 
z
M 19.671875 64.796875 
L 19.671875 38.921875 
L 32.078125 38.921875 
Q 39.203125 38.921875 42.84375 42.21875 
Q 46.484375 45.515625 46.484375 51.90625 
Q 46.484375 58.296875 42.84375 61.546875 
Q 39.203125 64.796875 32.078125 64.796875 
z
" id="DejaVuSans-52"/>
     <path d="M 48.6875 27.296875 
Q 48.6875 37.203125 44.609375 42.84375 
Q 40.53125 48.484375 33.40625 48.484375 
Q 26.265625 48.484375 22.1875 42.84375 
Q 18.109375 37.203125 18.109375 27.296875 
Q 18.109375 17.390625 22.1875 11.75 
Q 26.265625 6.109375 33.40625 6.109375 
Q 40.53125 6.109375 44.609375 11.75 
Q 48.6875 17.390625 48.6875 27.296875 
z
M 18.109375 46.390625 
Q 20.953125 51.265625 25.265625 53.625 
Q 29.59375 56 35.59375 56 
Q 45.5625 56 51.78125 48.09375 
Q 58.015625 40.1875 58.015625 27.296875 
Q 58.015625 14.40625 51.78125 6.484375 
Q 45.5625 -1.421875 35.59375 -1.421875 
Q 29.59375 -1.421875 25.265625 0.953125 
Q 20.953125 3.328125 18.109375 8.203125 
L 18.109375 0 
L 9.078125 0 
L 9.078125 75.984375 
L 18.109375 75.984375 
z
" id="DejaVuSans-62"/>
    </defs>
    <g transform="translate(369.479935 165.887769)scale(0.17 -0.17)">
     <use xlink:href="#DejaVuSans-52"/>
     <use x="69.419922" xlink:href="#DejaVuSans-6f"/>
     <use x="130.601562" xlink:href="#DejaVuSans-73"/>
     <use x="182.701172" xlink:href="#DejaVuSans-65"/>
     <use x="244.224609" xlink:href="#DejaVuSans-6e"/>
     <use x="307.603516" xlink:href="#DejaVuSans-62"/>
     <use x="371.080078" xlink:href="#DejaVuSans-72"/>
     <use x="412.162109" xlink:href="#DejaVuSans-6f"/>
     <use x="473.34375" xlink:href="#DejaVuSans-63"/>
    </g>
   </g>
   <g id="text_17">
    <!-- DASA -->
    <defs>
     <path d="M 19.671875 64.796875 
L 19.671875 8.109375 
L 31.59375 8.109375 
Q 46.6875 8.109375 53.6875 14.9375 
Q 60.6875 21.78125 60.6875 36.53125 
Q 60.6875 51.171875 53.6875 57.984375 
Q 46.6875 64.796875 31.59375 64.796875 
z
M 9.8125 72.90625 
L 30.078125 72.90625 
Q 51.265625 72.90625 61.171875 64.09375 
Q 71.09375 55.28125 71.09375 36.53125 
Q 71.09375 17.671875 61.125 8.828125 
Q 51.171875 0 30.078125 0 
L 9.8125 0 
z
" id="DejaVuSans-44"/>
    </defs>
    <g transform="translate(369.479935 101.719848)scale(0.17 -0.17)">
     <use xlink:href="#DejaVuSans-44"/>
     <use x="76.986328" xlink:href="#DejaVuSans-41"/>
     <use x="145.394531" xlink:href="#DejaVuSans-53"/>
     <use x="208.886719" xlink:href="#DejaVuSans-41"/>
    </g>
   </g>
   <g id="text_18">
    <!-- best 2009 -->
    <defs>
     <path d="M 10.984375 1.515625 
L 10.984375 10.5 
Q 14.703125 8.734375 18.5 7.8125 
Q 22.3125 6.890625 25.984375 6.890625 
Q 35.75 6.890625 40.890625 13.453125 
Q 46.046875 20.015625 46.78125 33.40625 
Q 43.953125 29.203125 39.59375 26.953125 
Q 35.25 24.703125 29.984375 24.703125 
Q 19.046875 24.703125 12.671875 31.3125 
Q 6.296875 37.9375 6.296875 49.421875 
Q 6.296875 60.640625 12.9375 67.421875 
Q 19.578125 74.21875 30.609375 74.21875 
Q 43.265625 74.21875 49.921875 64.515625 
Q 56.59375 54.828125 56.59375 36.375 
Q 56.59375 19.140625 48.40625 8.859375 
Q 40.234375 -1.421875 26.421875 -1.421875 
Q 22.703125 -1.421875 18.890625 -0.6875 
Q 15.09375 0.046875 10.984375 1.515625 
z
M 30.609375 32.421875 
Q 37.25 32.421875 41.125 36.953125 
Q 45.015625 41.5 45.015625 49.421875 
Q 45.015625 57.28125 41.125 61.84375 
Q 37.25 66.40625 30.609375 66.40625 
Q 23.96875 66.40625 20.09375 61.84375 
Q 16.21875 57.28125 16.21875 49.421875 
Q 16.21875 41.5 20.09375 36.953125 
Q 23.96875 32.421875 30.609375 32.421875 
z
" id="DejaVuSans-39"/>
    </defs>
    <g transform="translate(369.479935 37.551928)scale(0.17 -0.17)">
     <use xlink:href="#DejaVuSans-62"/>
     <use x="63.476562" xlink:href="#DejaVuSans-65"/>
     <use x="125" xlink:href="#DejaVuSans-73"/>
     <use x="177.099609" xlink:href="#DejaVuSans-74"/>
     <use x="216.308594" xlink:href="#DejaVuSans-20"/>
     <use x="248.095703" xlink:href="#DejaVuSans-32"/>
     <use x="311.71875" xlink:href="#DejaVuSans-30"/>
     <use x="375.341797" xlink:href="#DejaVuSans-30"/>
     <use x="438.964844" xlink:href="#DejaVuSans-39"/>
    </g>
   </g>
   <g id="text_19">
    <!-- bbob f6, 40-D -->
    <g transform="translate(59.55864 35.290806)scale(0.102 -0.102)">
     <use xlink:href="#DejaVuSans-62"/>
     <use x="63.476562" xlink:href="#DejaVuSans-62"/>
     <use x="126.953125" xlink:href="#DejaVuSans-6f"/>
     <use x="188.134766" xlink:href="#DejaVuSans-62"/>
     <use x="251.611328" xlink:href="#DejaVuSans-20"/>
     <use x="283.398438" xlink:href="#DejaVuSans-66"/>
     <use x="318.603516" xlink:href="#DejaVuSans-36"/>
     <use x="382.226562" xlink:href="#DejaVuSans-2c"/>
     <use x="414.013672" xlink:href="#DejaVuSans-20"/>
     <use x="445.800781" xlink:href="#DejaVuSans-34"/>
     <use x="509.423828" xlink:href="#DejaVuSans-30"/>
     <use x="573.046875" xlink:href="#DejaVuSans-2d"/>
     <use x="609.130859" xlink:href="#DejaVuSans-44"/>
    </g>
    <!-- 51 targets: 100..1e-08 -->
    <defs>
     <path d="M 10.796875 72.90625 
L 49.515625 72.90625 
L 49.515625 64.59375 
L 19.828125 64.59375 
L 19.828125 46.734375 
Q 21.96875 47.46875 24.109375 47.828125 
Q 26.265625 48.1875 28.421875 48.1875 
Q 40.625 48.1875 47.75 41.5 
Q 54.890625 34.8125 54.890625 23.390625 
Q 54.890625 11.625 47.5625 5.09375 
Q 40.234375 -1.421875 26.90625 -1.421875 
Q 22.3125 -1.421875 17.546875 -0.640625 
Q 12.796875 0.140625 7.71875 1.703125 
L 7.71875 11.625 
Q 12.109375 9.234375 16.796875 8.0625 
Q 21.484375 6.890625 26.703125 6.890625 
Q 35.15625 6.890625 40.078125 11.328125 
Q 45.015625 15.765625 45.015625 23.390625 
Q 45.015625 31 40.078125 35.4375 
Q 35.15625 39.890625 26.703125 39.890625 
Q 22.75 39.890625 18.8125 39.015625 
Q 14.890625 38.140625 10.796875 36.28125 
z
" id="DejaVuSans-35"/>
     <path d="M 11.71875 12.40625 
L 22.015625 12.40625 
L 22.015625 0 
L 11.71875 0 
z
M 11.71875 51.703125 
L 22.015625 51.703125 
L 22.015625 39.3125 
L 11.71875 39.3125 
z
" id="DejaVuSans-3a"/>
    </defs>
    <g transform="translate(59.55864 46.712575)scale(0.102 -0.102)">
     <use xlink:href="#DejaVuSans-35"/>
     <use x="63.623047" xlink:href="#DejaVuSans-31"/>
     <use x="127.246094" xlink:href="#DejaVuSans-20"/>
     <use x="159.033203" xlink:href="#DejaVuSans-74"/>
     <use x="198.242188" xlink:href="#DejaVuSans-61"/>
     <use x="259.521484" xlink:href="#DejaVuSans-72"/>
     <use x="300.619141" xlink:href="#DejaVuSans-67"/>
     <use x="364.095703" xlink:href="#DejaVuSans-65"/>
     <use x="425.619141" xlink:href="#DejaVuSans-74"/>
     <use x="464.828125" xlink:href="#DejaVuSans-73"/>
     <use x="516.927734" xlink:href="#DejaVuSans-3a"/>
     <use x="550.619141" xlink:href="#DejaVuSans-20"/>
     <use x="582.40625" xlink:href="#DejaVuSans-31"/>
     <use x="646.029297" xlink:href="#DejaVuSans-30"/>
     <use x="709.652344" xlink:href="#DejaVuSans-30"/>
     <use x="773.275391" xlink:href="#DejaVuSans-2e"/>
     <use x="805.0625" xlink:href="#DejaVuSans-2e"/>
     <use x="836.849609" xlink:href="#DejaVuSans-31"/>
     <use x="900.472656" xlink:href="#DejaVuSans-65"/>
     <use x="961.996094" xlink:href="#DejaVuSans-2d"/>
     <use x="998.080078" xlink:href="#DejaVuSans-30"/>
     <use x="1061.703125" xlink:href="#DejaVuSans-38"/>
    </g>
    <!-- 15 instances -->
    <g transform="translate(59.55864 58.134344)scale(0.102 -0.102)">
     <use xlink:href="#DejaVuSans-31"/>
     <use x="63.623047" xlink:href="#DejaVuSans-35"/>
     <use x="127.246094" xlink:href="#DejaVuSans-20"/>
     <use x="159.033203" xlink:href="#DejaVuSans-69"/>
     <use x="186.816406" xlink:href="#DejaVuSans-6e"/>
     <use x="250.195312" xlink:href="#DejaVuSans-73"/>
     <use x="302.294922" xlink:href="#DejaVuSans-74"/>
     <use x="341.503906" xlink:href="#DejaVuSans-61"/>
     <use x="402.783203" xlink:href="#DejaVuSans-6e"/>
     <use x="466.162109" xlink:href="#DejaVuSans-63"/>
     <use x="521.142578" xlink:href="#DejaVuSans-65"/>
     <use x="582.666016" xlink:href="#DejaVuSans-73"/>
    </g>
   </g>
   <g id="text_20">
    <!-- v-coco-version -->
    <g style="fill:#808080;" transform="translate(191.556688 290.099912)scale(0.1 -0.1)">
     <use xlink:href="#DejaVuSans-76"/>
     <use x="59.148438" xlink:href="#DejaVuSans-2d"/>
     <use x="95.232422" xlink:href="#DejaVuSans-63"/>
     <use x="150.212891" xlink:href="#DejaVuSans-6f"/>
     <use x="211.394531" xlink:href="#DejaVuSans-63"/>
     <use x="266.375" xlink:href="#DejaVuSans-6f"/>
     <use x="327.572266" xlink:href="#DejaVuSans-2d"/>
     <use x="363.625" xlink:href="#DejaVuSans-76"/>
     <use x="422.804688" xlink:href="#DejaVuSans-65"/>
     <use x="484.328125" xlink:href="#DejaVuSans-72"/>
     <use x="525.441406" xlink:href="#DejaVuSans-73"/>
     <use x="577.541016" xlink:href="#DejaVuSans-69"/>
     <use x="605.324219" xlink:href="#DejaVuSans-6f"/>
     <use x="666.505859" xlink:href="#DejaVuSans-6e"/>
    </g>
   </g>
   <g id="text_21">
    <!-- 6 Attractive sector -->
    <g transform="translate(135.134813 18.84)scale(0.2 -0.2)">
     <use xlink:href="#DejaVuSans-36"/>
     <use x="63.623047" xlink:href="#DejaVuSans-20"/>
     <use x="95.410156" xlink:href="#DejaVuSans-41"/>
     <use x="163.802734" xlink:href="#DejaVuSans-74"/>
     <use x="203.011719" xlink:href="#DejaVuSans-74"/>
     <use x="242.220703" xlink:href="#DejaVuSans-72"/>
     <use x="283.333984" xlink:href="#DejaVuSans-61"/>
     <use x="344.613281" xlink:href="#DejaVuSans-63"/>
     <use x="399.59375" xlink:href="#DejaVuSans-74"/>
     <use x="438.802734" xlink:href="#DejaVuSans-69"/>
     <use x="466.585938" xlink:href="#DejaVuSans-76"/>
     <use x="525.765625" xlink:href="#DejaVuSans-65"/>
     <use x="587.289062" xlink:href="#DejaVuSans-20"/>
     <use x="619.076172" xlink:href="#DejaVuSans-73"/>
     <use x="671.175781" xlink:href="#DejaVuSans-65"/>
     <use x="732.699219" xlink:href="#DejaVuSans-63"/>
     <use x="787.679688" xlink:href="#DejaVuSans-74"/>
     <use x="826.888672" xlink:href="#DejaVuSans-6f"/>
     <use x="888.070312" xlink:href="#DejaVuSans-72"/>
    </g>
   </g>
  </g>
 </g>
 <defs>
  <clipPath id="p0837c5a562">
   <rect height="270.04" width="343.864" x="56.12" y="24.84"/>
  </clipPath>
 </defs>
</svg>
